<?xml version="1.0" encoding="UTF-8"?><svg xmlns="http://www.w3.org/2000/svg" width="5in" height="2.5in" xmlns:xlink="http://www.w3.org/1999/xlink" viewBox="0 0 360 180"><defs><clipPath id="b"><polygon points="120.3099 102.1452 121.6985 163.4603 150.1647 160.4663 148.1513 100.4789 120.3099 102.1452" fill="none" stroke-width="0"/></clipPath><clipPath id="d"><circle cx="258.4083" cy="44.838" r="40.6515" fill="none" stroke-width="0"/></clipPath></defs><g id="a"><line x1="152.7729" y1="97.9895" x2="172.7757" y2="106.2665" fill="none" stroke="#231f20" stroke-linecap="round" stroke-linejoin="round" stroke-width=".5"/><path d="M208.6427,104.3697c-.5173-1.0346-2.4141-1.1208-2.4141-1.1208,0,0-29.3144,1.7244-31.2974,1.8968s-1.6382,2.4141-1.6382,2.4141v31.2112s.1724,2.4141,4.6558,1.8968,27.8486-2.9314,27.8486-2.9314c0,0,2.3279-.1724,2.5003-1.6382v-3.3625" fill="none" stroke="#231f20" stroke-linecap="round" stroke-linejoin="round" stroke-width=".5"/><polyline points="206.3398 94.6411 231.1433 102.5135 208.1869 103.5555" fill="none" stroke="#231f20" stroke-linecap="round" stroke-linejoin="round" stroke-width=".5"/><polyline points="231.1433 130.0497 231.1433 134.9745 207.0695 137.4754" fill="none" stroke="#231f20" stroke-linecap="round" stroke-linejoin="round" stroke-width=".5"/><line x1="231.1433" y1="102.5135" x2="231.1433" y2="113.1184" fill="none" stroke="#231f20" stroke-linecap="round" stroke-linejoin="round" stroke-width=".5"/><polyline points="173.4369 139.5737 172.206 140.2661 153.9383 128.9915" fill="none" stroke="#231f20" stroke-linecap="round" stroke-linejoin="round" stroke-width=".5"/><path d="M173.1292,109.8016s-.4616,1.9233-2.1541,1.0001l-1.8463-.7693-.7693-.0769-3.4619,13.9244s-.6154,1.9233-2.231,1.0001l-1.154-.3847v9.2316" fill="none" stroke="#231f20" stroke-linecap="round" stroke-linejoin="round" stroke-width=".5"/><path d="M177.6621,112.528l6.1718-6.1718,6.1718-.6096s1.1429.9143,1.0667,2.6668l-.5334.6096s-5.4098.381-9.372,6.5528l-2.4382-.9905s-1.2953-1.2191-1.0667-2.0573Z" fill="none" stroke="#231f20" stroke-linecap="round" stroke-linejoin="round" stroke-width=".5"/><path d="M192.444,108.7182s-.1524-2.5144-.6858-2.9716l6.5528-.2286,6.629,5.7908s-1.7525,2.743-2.743,2.8192c0,0-3.2764-5.2575-9.753-5.4098Z" fill="none" stroke="#231f20" stroke-linecap="round" stroke-linejoin="round" stroke-width=".5"/><path d="M207.811,119.7244v-14.2174c0-1.1108.7935-.8993.7935-.8993l17.7931-.895s1.2191,0,1.2191,1.2191l-.2286,25.0682s.0762.8381-.9905.9905-16.6105,1.2191-16.6105,1.2191c0,0-2.1064.5823-2.1468-1.2788v-1.6589" fill="none" stroke="#231f20" stroke-linecap="round" stroke-linejoin="round" stroke-width=".5"/><path d="M174.7667,118.4712s-.4572-2.6668,1.4477-3.7336l2.2097,1.1429,2.1335.762,3.4288,1.9049s-.8303,2.3662-.5297,5.0151" fill="none" stroke="#231f20" stroke-linecap="round" stroke-linejoin="round" stroke-width=".5"/><path d="M182.31,116.033l2.6668,1.3715s1.7525-3.3526,5.867-4.1907l.0762-2.8192s-4.1907-.6858-8.61,5.6384Z" fill="none" stroke="#231f20" stroke-linecap="round" stroke-linejoin="round" stroke-width=".5"/><path d="M192.5202,113.2138s3.8098,0,6.4004,3.2002l2.2097-1.5239s-3.4288-4.6479-8.61-4.7241v3.0478Z" fill="none" stroke="#231f20" stroke-linecap="round" stroke-linejoin="round" stroke-width=".5"/><path d="M184.0517,131.2212c1.3159,1.2244,3.6465,2.6859,7.2493,2.6414l-.1524-2.9716s-.3523.0181-.9449-.092" fill="none" stroke="#231f20" stroke-linecap="round" stroke-linejoin="round" stroke-width=".5"/><path d="M194.1788,130.4894c-.5157.1847-1.0692.3252-1.6586.4016l.3048,2.743s3.8928-.2133,6.8604-3.495" fill="none" stroke="#231f20" stroke-linecap="round" stroke-linejoin="round" stroke-width=".5"/><path d="M200.2622,122.4989c.2444-2.6635-.9356-4.855-.9356-4.855,0,0,3.4165-1.1988,4.6752-3.896,0,0,1.3786-.5994,1.6783-1.1388,0,0,1.0789.0599,1.1388,1.2587v2.5174" fill="none" stroke="#231f20" stroke-linecap="round" stroke-linejoin="round" stroke-width=".5"/><path d="M211.12,119.7948l.071-7.168,4.2556-4.915,7.1327-.5394s2.0379.4196,2.0379,3.6563-.1199,14.2055-.1199,14.2055c0,0-.1199,2.6373-2.0379,2.9969s-7.1327.7792-7.1327.7792l-.9965-.9544" fill="none" stroke="#231f20" stroke-linecap="round" stroke-linejoin="round" stroke-width=".5"/><path d="M214.4122,126.091l2.0534-.0978s2.3376-.7193,2.4575-3.0569l.0599-15.4042" fill="none" stroke="#231f20" stroke-linecap="round" stroke-linejoin="round" stroke-width=".5"/><path d="M201.5487,129.7651c-3.793,4.9915-8.8503,5.4129-8.8503,5.4129,0,0,.5394.6593-.3596,1.4985,0,0-.4462.7422.1192,1.2267l5.7743-.5249,6.6222-7.9144" fill="none" stroke="#231f20" stroke-linecap="round" stroke-linejoin="round" stroke-width=".5"/><path d="M182.0735,131.0931c1.3998,1.4899,4.6233,4.3062,8.8267,4.085,0,0,.7792.5994.0599,1.3786,0,0-.8039.7005-.3193,1.3062l-7.1068.848-5.6531-5.6935c-.9691-1.171.1615-1.5344.1615-1.5344l2.0399-1.1848" fill="none" stroke="#231f20" stroke-linecap="round" stroke-linejoin="round" stroke-width=".5"/><path d="M174.9565,119.0545v8.2715s2.2777,1.1988,2.5174-2.8771c0,0,.3596-5.3945-2.5174-5.3945Z" fill="none" stroke="#231f20" stroke-linecap="round" stroke-linejoin="round" stroke-width=".5"/><ellipse cx="176.0713" cy="123.2179" rx=".5657" ry="1.5428" fill="none" stroke="#231f20" stroke-linecap="round" stroke-linejoin="round" stroke-width=".5"/><ellipse cx="204.4722" cy="106.6867" rx="2.9304" ry="2.8226" transform="translate(19.4278 244.3439) rotate(-64.2001)" fill="none" stroke="#231f20" stroke-linecap="round" stroke-linejoin="round" stroke-width=".5"/><line x1="204.6244" y1="104.8182" x2="204.6244" y2="108.4337" fill="none" stroke="#231f20" stroke-linecap="round" stroke-linejoin="round" stroke-width=".5"/><line x1="203.0749" y1="106.8268" x2="206.0591" y2="106.5973" fill="none" stroke="#231f20" stroke-linecap="round" stroke-linejoin="round" stroke-width=".5"/><ellipse cx="204.8758" cy="134.4577" rx="2.9304" ry="2.8226" transform="translate(-5.347 260.3916) rotate(-64.2001)" fill="none" stroke="#231f20" stroke-linecap="round" stroke-linejoin="round" stroke-width=".5"/><line x1="205.028" y1="132.5892" x2="205.028" y2="136.2048" fill="none" stroke="#231f20" stroke-linecap="round" stroke-linejoin="round" stroke-width=".5"/><line x1="203.4785" y1="134.5979" x2="206.4628" y2="134.3683" fill="none" stroke="#231f20" stroke-linecap="round" stroke-linejoin="round" stroke-width=".5"/><ellipse cx="177.1856" cy="137.1218" rx="2.9304" ry="2.8226" transform="translate(-23.3842 236.9661) rotate(-64.2001)" fill="none" stroke="#231f20" stroke-linecap="round" stroke-linejoin="round" stroke-width=".5"/><line x1="177.3377" y1="135.2533" x2="177.3377" y2="138.8688" fill="none" stroke="#231f20" stroke-linecap="round" stroke-linejoin="round" stroke-width=".5"/><line x1="175.7882" y1="137.2619" x2="178.7725" y2="137.0324" fill="none" stroke="#231f20" stroke-linecap="round" stroke-linejoin="round" stroke-width=".5"/><ellipse cx="176.8626" cy="108.382" rx="2.9304" ry="2.8226" transform="translate(2.3084 220.4439) rotate(-64.2001)" fill="none" stroke="#231f20" stroke-linecap="round" stroke-linejoin="round" stroke-width=".5"/><line x1="177.0148" y1="106.5135" x2="177.0148" y2="110.1291" fill="none" stroke="#231f20" stroke-linecap="round" stroke-linejoin="round" stroke-width=".5"/><line x1="175.4653" y1="108.5222" x2="178.4496" y2="108.2926" fill="none" stroke="#231f20" stroke-linecap="round" stroke-linejoin="round" stroke-width=".5"/><path d="M205.7574,117.8556v-1.7368s1.8725.137,2.2379,2.1465" fill="none" stroke="#231f20" stroke-linecap="round" stroke-linejoin="round" stroke-width=".5"/><path d="M211.1972,115.8409l2.8912,1.3856s1.6171.9593-.343,1.5988l-2.4992-1.1191" fill="none" stroke="#231f20" stroke-linecap="round" stroke-linejoin="round" stroke-width=".5"/><path d="M211.2462,114.5619l4.8024,2.2916s1.6171.9593-.343,1.5988l-1.8131.373" fill="none" stroke="#231f20" stroke-linecap="round" stroke-linejoin="round" stroke-width=".5"/><path d="M214.4372,121.7496l1.7585.7693s1.6171.9593-.343,1.5988l-1.2156-.5542" fill="none" stroke="#231f20" stroke-linecap="round" stroke-linejoin="round" stroke-width=".5"/><path d="M215.9996,124.1177l1.8131-.373c1.9602-.6395.343-1.5988.343-1.5988l-2.8912-1.4095-2.0394.1483" fill="none" stroke="#231f20" stroke-linecap="round" stroke-linejoin="round" stroke-width=".5"/><path d="M214.0629,109.3674l2.0837.9986s1.6171.9593-.343,1.5988l-2.4992-1.1191" fill="none" stroke="#231f20" stroke-linecap="round" stroke-linejoin="round" stroke-width=".5"/><path d="M214.8275,108.4281l3.2793,1.5648s1.6171.9593-.343,1.5988l-1.8131.373" fill="none" stroke="#231f20" stroke-linecap="round" stroke-linejoin="round" stroke-width=".5"/><path d="M227.5862,127.7858l7.6059,3.5252s2.1771.8845,2.8575-.8845v-12.8585s.4082-1.4287-1.6328-2.041l-6.5992-2.2445s-1.6328-.2041-1.905.6803" fill="none" stroke="#231f20" stroke-linecap="round" stroke-linejoin="round" stroke-width=".5"/><path d="M229.2731,115.2549l4.8305,1.905s1.0886-.068,1.0886,1.5648v11.2257" fill="none" stroke="#231f20" stroke-linecap="round" stroke-linejoin="round" stroke-width=".5"/><line x1="229.6813" y1="118.5205" x2="229.6813" y2="124.7117" fill="none" stroke="#231f20" stroke-linecap="round" stroke-linejoin="round" stroke-width=".5"/><line x1="230.7018" y1="118.9968" x2="230.7018" y2="125.1879" fill="none" stroke="#231f20" stroke-linecap="round" stroke-linejoin="round" stroke-width=".5"/><line x1="231.7224" y1="119.473" x2="231.7224" y2="125.6642" fill="none" stroke="#231f20" stroke-linecap="round" stroke-linejoin="round" stroke-width=".5"/><path d="M183.3831,125.1042c-2.0486.2049-3.4064-.7352-3.4064-.7352l-2.0486-1.8438,2.7998-.1366,2.1169,1.434,28.2026-2.0486-2.3411-1.725,3.0246-.1873,2.1358,1.4562s1.0194.8252,0,1.3591c0,0-28.435,2.2222-30.4837,2.427Z" fill="none" stroke="#231f20" stroke-linecap="round" stroke-linejoin="round" stroke-width=".5"/><path d="M177.617,125.6031l.5527,1.309-.0291,1.7454,1.9416,1.6406s1.5048.9223,3.2522.8252,29.1245-2.33,29.1245-2.33c0,0,1.6018-.1942,1.796-1.5533l.1456-5.0482" fill="none" stroke="#231f20" stroke-linecap="round" stroke-linejoin="round" stroke-width=".5"/><path d="M174.9565,127.326s-.5079.4419-.952.3208v1.8978s1.6959.848,2.019,1.5344l2.8669-1.6556" fill="none" stroke="#231f20" stroke-linecap="round" stroke-linejoin="round" stroke-width=".5"/><path d="M176.2352,119.4542s1.8568-.3229,2.2604.9688c0,0,.7266,1.6146,1.2109,2.0182" fill="none" stroke="#231f20" stroke-linecap="round" stroke-linejoin="round" stroke-width=".5"/><path d="M204.5713,122.199s-.7266-1.3724-.0807-3.1485,1.9375-.9688,1.9375-.9688l.0807.9688,1.1968.9176,1.0007.0809" fill="none" stroke="#231f20" stroke-linecap="round" stroke-linejoin="round" stroke-width=".5"/><polyline points="349.8336 88.3468 349.8336 87.9151 271.7887 92.154 271.6394 101.4734" fill="none" stroke="#231f20" stroke-linecap="round" stroke-linejoin="round" stroke-width=".5"/><polyline points="238.1404 127.6186 271.4941 124.8075 269.3098 122.6578 238.0986 125.1364" fill="none" stroke="#231f20" stroke-linecap="round" stroke-linejoin="round" stroke-width=".5"/><line x1="269.1549" y1="124.9805" x2="269.1549" y2="122.8901" fill="none" stroke="#231f20" stroke-linecap="round" stroke-linejoin="round" stroke-width=".5"/><path d="M238.2011,128.407c9.7838-.8663,31.7395-2.7918,33.6028-2.7918,2.1024,0,1.1108-1.1404,1.1108-1.1404l-3.1665-2.9064-31.6269,2.6324" fill="none" stroke="#231f20" stroke-linecap="round" stroke-linejoin="round" stroke-width=".5"/><polyline points="222.1854 135.9459 222.1854 138.6011 222.7924 138.5058" fill="none" stroke="#231f20" stroke-linecap="round" stroke-linejoin="round" stroke-width=".5"/><polyline points="233.2251 130.3298 233.2251 138.493 223.8525 139.4482" fill="none" stroke="#231f20" stroke-linecap="round" stroke-linejoin="round" stroke-width=".5"/><path d="M222.8706,135.8073l-.0159,3.1346.9168.4699c-.0689-1.4171-.1058-2.6328-.1198-3.6739" fill="none" stroke="#231f20" stroke-linecap="round" stroke-linejoin="round" stroke-width=".5"/><path d="M233.7066,138.467l38.1719-3.6488s1.263-.0702,1.3332-2.3156l-.0471-7.4384" fill="none" stroke="#231f20" stroke-linecap="round" stroke-linejoin="round" stroke-width=".5"/><path d="M159.759,132.9138c-2.0682-.5058-3.9212-.9582-3.9212-.9582l-1.036-.8133" fill="none" stroke="#231f20" stroke-linecap="round" stroke-linejoin="round" stroke-width=".5"/><path d="M211.1928,137.087l-.0416,3.7152-41.0712,3.8932s-3.47.3385-5.4166-.3385-9.0559-2.7929-9.0559-2.7929l-.5924-.6771-.2134-9.7444" fill="none" stroke="#231f20" stroke-linecap="round" stroke-linejoin="round" stroke-width=".5"/><path d="M221.3464,135.9965c-.0171,1.2507-.0458,1.8042-.2642,3.506l-9.7557,1.0557" fill="none" stroke="#231f20" stroke-linecap="round" stroke-linejoin="round" stroke-width=".5"/><line x1="166.762" y1="144.8217" x2="157.8758" y2="145.3979" fill="none" stroke="#231f20" stroke-linecap="round" stroke-linejoin="round" stroke-width=".5"/><polyline points="215.5336 153.7528 269.7796 147.9016 347.5076 139.1531" fill="none" stroke="#231f20" stroke-linecap="round" stroke-linejoin="round" stroke-width=".5"/><line x1="207.3856" y1="154.6317" x2="213.2101" y2="154.0049" fill="none" stroke="#231f20" stroke-linecap="round" stroke-linejoin="round" stroke-width=".5"/><line x1="219.0575" y1="94.0749" x2="219.0575" y2="98.6965" fill="none" stroke="#231f20" stroke-linecap="round" stroke-linejoin="round" stroke-width=".5"/><line x1="210.3025" y1="94.5357" x2="210.2573" y2="95.856" fill="none" stroke="#231f20" stroke-linecap="round" stroke-linejoin="round" stroke-width=".5"/><line x1="207.8537" y1="110.5114" x2="207.8537" y2="116.092" fill="none" stroke="#231f20" stroke-linecap="round" stroke-linejoin="round" stroke-width=".5"/><path d="M220.5165,99.1685l.0157-1.911s-.2833-3.4123,4.3967-3.5595" fill="none" stroke="#231f20" stroke-linecap="round" stroke-linejoin="round" stroke-width=".5"/><path d="M224.4903,100.1981l4.7317-4.6248,5.0569-.4541s.9294.7517.8551,2.1771l-.4408.4923s-3.3929.2092-6.4423,3.6076" fill="none" stroke="#231f20" stroke-linecap="round" stroke-linejoin="round" stroke-width=".5"/><path d="M236.2548,97.5536s-.1076-2.0469-.5411-2.4225l5.3662-.1415,5.3874,4.7566s-1.4534,2.2199-2.2649,2.2752c0,0-2.6464-4.2999-7.9476-4.4678Z" fill="none" stroke="#231f20" stroke-linecap="round" stroke-linejoin="round" stroke-width=".5"/><path d="M251,117.1436s12.7326-.7624,13.6069-.8792.8177-.7992.8177-.7992l.3583-20.3948c.0083-.9919-.9897-1.0002-.9897-1.0002l-14.5729.6075s-.6481-.1775-.6557.7263-.0896,10.6737-.0896,10.6737" fill="none" stroke="#231f20" stroke-linecap="round" stroke-linejoin="round" stroke-width=".5"/><path d="M231.2329,103.1307c.7862-.7607,1.9941-1.6032,3.6812-1.9302l.0816-2.2933s-2.6232-.449-5.7316,2.8658" fill="none" stroke="#231f20" stroke-linecap="round" stroke-linejoin="round" stroke-width=".5"/><path d="M236.2864,101.2118s3.1189.0259,5.218,2.6472l1.8194-1.2249s-2.7753-3.805-7.0166-3.9021l-.0208,2.4798Z" fill="none" stroke="#231f20" stroke-linecap="round" stroke-linejoin="round" stroke-width=".5"/><path d="M237.965,117.5277c1.5463-.4522,3.8903-1.5759,5.3952-4.3534l-1.8636-.9454s-1.7271,2.6097-4.7297,3.2642" fill="none" stroke="#231f20" stroke-linecap="round" stroke-linejoin="round" stroke-width=".5"/><path d="M247.5202,113.2426l-.1013.3737-.4453.4353-.8285-.6897-.8313-.3483c-.8309-.3971-3.1245-1.928-3.1245-1.928,1.6447-3.0102-.0462-6.1944-.0462-6.1944,0,0,2.8052-.9522,3.8541-3.1382,0,0,1.1327-.4783,1.3817-.9152,0,0,.8829.0561.9237,1.0319l-.0172,2.0483" fill="none" stroke="#231f20" stroke-linecap="round" stroke-linejoin="round" stroke-width=".5"/><path d="M252.2831,101.2198l3.5175-3.9701,5.843-.3905s1.6655.3552,1.6434,2.9887c-.0221,2.6335-.1951,11.5573-.1951,11.5573,0,0-.1161,2.145-1.6889,2.4246s-5.8447.5856-5.8447.5856l-3.4562-3.3451.1808-9.8504Z" fill="none" stroke="#231f20" stroke-linecap="round" stroke-linejoin="round" stroke-width=".5"/><path d="M253.4173,112.2516l3.0927-.1207s1.9187-.5694,2.0328-2.4705l.1543-12.533" fill="none" stroke="#231f20" stroke-linecap="round" stroke-linejoin="round" stroke-width=".5"/><path d="M242.2145,119.7671c2.7189-2.3673,4.1138-4.8431,4.1138-4.8431-.6314-.7856-2.1505-1.042-2.1505-1.042-1.9406,2.9588-4.4514,4.2435-6.1147,4.7955" fill="none" stroke="#231f20" stroke-linecap="round" stroke-linejoin="round" stroke-width=".5"/><path d="M238.1437,120.1564c5.1747-.391,10.2574-.7769,10.2574-.7769,0,0,.6858.152.6469-1.0676s-.1685-3.3179-.1685-3.3179l1.7669-.0341.3112,3.8555s.4731,2.1011-1.3969,2.7196l-11.247.83" fill="none" stroke="#231f20" stroke-linecap="round" stroke-linejoin="round" stroke-width=".5"/><polyline points="247.2737 119.2238 247.1093 115.4183 248.8796 114.994" fill="none" stroke="#231f20" stroke-linecap="round" stroke-linejoin="round" stroke-width=".5"/><path d="M247.0707,112.4846l1.4179-.1391-.1334-2.1885.4087-.4743.0245-2.9163s-.4933-1.5126-1.5317-1.3704c0,0-.8862.0932-.9758,1.7267l-.0209,2.4889.6259.7846.1849,2.0883Z" fill="none" stroke="#231f20" stroke-linecap="round" stroke-linejoin="round" stroke-width=".5"/><path d="M248.6662,112.2716l.1274-.0578.5582-.2533-.1357-1.9219.4087-.4743.0245-2.9163s-.4933-1.5126-1.5317-1.3704l-.8611.1186" fill="none" stroke="#231f20" stroke-linecap="round" stroke-linejoin="round" stroke-width=".5"/><polyline points="247.6292 112.4865 247.6174 113.8973 248.0656 114.4714 248.0611 115.0117" fill="none" stroke="#231f20" stroke-linecap="round" stroke-linejoin="round" stroke-width=".5"/><polyline points="248.4769 112.2533 248.4651 113.6642 248.9133 114.2382 248.9088 114.7785" fill="none" stroke="#231f20" stroke-linecap="round" stroke-linejoin="round" stroke-width=".5"/><polyline points="249.2944 112.02 249.2826 113.4308 249.7308 114.0049 249.7263 114.5452" fill="none" stroke="#231f20" stroke-linecap="round" stroke-linejoin="round" stroke-width=".5"/><ellipse cx="247.5042" cy="108.0164" rx="1.2553" ry=".4631" transform="translate(137.4107 354.6036) rotate(-89.5183)" fill="none" stroke="#231f20" stroke-linecap="round" stroke-linejoin="round" stroke-width=".5"/><ellipse cx="222.7518" cy="109.2399" rx="1.2553" ry=".4631" transform="translate(111.6429 331.0654) rotate(-89.5183)" fill="none" stroke="#231f20" stroke-linecap="round" stroke-linejoin="round" stroke-width=".5"/><ellipse cx="246.3636" cy="95.5821" rx="2.2008" ry="2.127" transform="translate(39.2182 259.6604) rotate(-59.5873)" fill="none" stroke="#231f20" stroke-linecap="round" stroke-linejoin="round" stroke-width=".5"/><line x1="246.4902" y1="94.1817" x2="246.4674" y2="96.8932" fill="none" stroke="#231f20" stroke-linecap="round" stroke-linejoin="round" stroke-width=".5"/><ellipse cx="223.9005" cy="96.7993" rx="2.027" ry="1.9209" transform="translate(65.5505 282.3439) rotate(-72.9018)" fill="none" stroke="#231f20" stroke-linecap="round" stroke-linejoin="round" stroke-width=".5"/><line x1="224.0147" y1="95.5042" x2="223.9936" y2="98.0118" fill="none" stroke="#231f20" stroke-linecap="round" stroke-linejoin="round" stroke-width=".5"/><line x1="222.9513" y1="96.8886" x2="224.978" y2="96.7462" fill="none" stroke="#231f20" stroke-linecap="round" stroke-linejoin="round" stroke-width=".5"/><path d="M247.3936,105.1726l.0112-1.3377s1.532.1242,1.8174,1.7617" fill="none" stroke="#231f20" stroke-linecap="round" stroke-linejoin="round" stroke-width=".5"/><path d="M252.2662,103.835l2.3575,1.147s1.3174.7915-.2917,1.2985l-2.0384-.9275" fill="none" stroke="#231f20" stroke-linecap="round" stroke-linejoin="round" stroke-width=".5"/><path d="M252.3151,102.7947l3.916,1.8971s1.3174.7915-.2917,1.2985l-1.4869.2912" fill="none" stroke="#231f20" stroke-linecap="round" stroke-linejoin="round" stroke-width=".5"/><path d="M256.1413,110.6018l1.4869-.2912c1.6091-.507.2917-1.2985.2917-1.2985l-2.3574-1.1664-2.2078.1412,2.9579,1.3154s1.3174.7915-.2917,1.2985l-2.7177-1.2586.008-.9569" fill="none" stroke="#231f20" stroke-linecap="round" stroke-linejoin="round" stroke-width=".5"/><path d="M254.6565,98.5873l1.6991.8266s1.3174.7915-.2917,1.2985l-2.0384-.9275" fill="none" stroke="#231f20" stroke-linecap="round" stroke-linejoin="round" stroke-width=".5"/><path d="M255.2889,97.8283l2.674,1.2954s1.3174.7915-.2917,1.2985l-1.4869.2912" fill="none" stroke="#231f20" stroke-linecap="round" stroke-linejoin="round" stroke-width=".5"/><path d="M268.7978,101.0588l.2247-7.2916s-.2504-.8336-1.9241-.7835l-17.0606.754" fill="none" stroke="#231f20" stroke-linecap="round" stroke-linejoin="round" stroke-width=".5"/><polyline points="250.776 120.7988 268.2265 119.6003 268.359 115.5943" fill="none" stroke="#231f20" stroke-linecap="round" stroke-linejoin="round" stroke-width=".5"/><path d="M265.6041,113.6893l7.3097,2.5649s1.7763.7344,2.3454-.7002l.0878-11.0347s.3439-1.1597-1.3228-1.6717l-6.7035-1.7849s-1.3354-.1771-1.5642.5406" fill="none" stroke="#231f20" stroke-linecap="round" stroke-linejoin="round" stroke-width=".5"/><path d="M266.8158,102.834l5.2325,1.4827s.8916-.048.8805,1.2806l-.0766,9.1336" fill="none" stroke="#231f20" stroke-linecap="round" stroke-linejoin="round" stroke-width=".5"/><line x1="267.2633" y1="105.5219" x2="267.2175" y2="110.9876" fill="none" stroke="#231f20" stroke-linecap="round" stroke-linejoin="round" stroke-width=".5"/><line x1="268.0953" y1="105.832" x2="268.0494" y2="111.2978" fill="none" stroke="#231f20" stroke-linecap="round" stroke-linejoin="round" stroke-width=".5"/><line x1="268.9272" y1="106.1422" x2="268.8814" y2="111.6079" fill="none" stroke="#231f20" stroke-linecap="round" stroke-linejoin="round" stroke-width=".5"/><ellipse cx="267.2227" cy="98.8249" rx=".9063" ry=".6998" transform="translate(143.0558 355.2561) rotate(-84.4587)" fill="none" stroke="#231f20" stroke-linecap="round" stroke-linejoin="round" stroke-width=".5"/><path d="M246.2511,92.4787s3.5537-.1839,3.9692,2.1989" fill="none" stroke="#231f20" stroke-linecap="round" stroke-linejoin="round" stroke-width=".5"/><line x1="245.2658" y1="95.6318" x2="247.7291" y2="95.5332" fill="none" stroke="#231f20" stroke-linecap="round" stroke-linejoin="round" stroke-width=".5"/><line x1="270.8579" y1="135.0813" x2="270.7142" y2="147.4409" fill="none" stroke="#231f20" stroke-linecap="round" stroke-linejoin="round" stroke-width=".5"/><line x1="271.0829" y1="115.7239" x2="271.0147" y2="121.5925" fill="none" stroke="#231f20" stroke-linecap="round" stroke-linejoin="round" stroke-width=".5"/><line x1="295.1824" y1="91.345" x2="293.7262" y2="145.0931" fill="none" stroke="#231f20" stroke-linecap="round" stroke-linejoin="round" stroke-width=".5"/><polygon points="283.4593 107.7698 276.391 108.1492 276.3942 103.8956 283.5663 103.4953 283.4593 107.7698" fill="none" stroke="#231f20" stroke-linecap="round" stroke-linejoin="round" stroke-width=".5"/><polygon points="283.0723 130.2727 275.7442 131.0177 275.9487 119.5278 283.2835 119.0872 283.0723 130.2727" fill="none" stroke="#231f20" stroke-linecap="round" stroke-linejoin="round" stroke-width=".5"/><polyline points="283.0767 126.0048 282.3122 126.0627 282.3342 127.0749 281.3241 127.1585 281.3117 129.1468 277.2699 129.6026 277.3773 120.8507 281.3014 120.639 281.3474 122.7536 282.4174 122.685 282.4382 123.6418 283.0333 123.6369" fill="none" stroke="#231f20" stroke-linecap="round" stroke-linejoin="round" stroke-width=".5"/><line x1="281.3241" y1="127.1585" x2="277.5855" y2="126.2191" fill="none" stroke="#231f20" stroke-linecap="round" stroke-linejoin="round" stroke-width=".5"/><line x1="282.2677" y1="126.0572" x2="277.4261" y2="124.8069" fill="none" stroke="#231f20" stroke-linecap="round" stroke-linejoin="round" stroke-width=".5"/><line x1="281.3621" y1="128.9058" x2="277.6235" y2="127.9664" fill="none" stroke="#231f20" stroke-linecap="round" stroke-linejoin="round" stroke-width=".5"/><polygon points="282.6915 143.716 275.3205 144.7585 275.5164 133.3284 282.8943 132.5881 282.6915 143.716" fill="none" stroke="#231f20" stroke-linecap="round" stroke-linejoin="round" stroke-width=".5"/><polyline points="282.6922 139.4732 281.9233 139.5623 281.9463 140.5675 280.9302 140.6923 280.9194 142.6693 276.8541 143.289 276.9546 134.5845 280.9018 134.2124 280.9499 136.3125 282.0261 136.2002 282.0479 137.1505 282.6466 137.1211" fill="none" stroke="#231f20" stroke-linecap="round" stroke-linejoin="round" stroke-width=".5"/><line x1="280.9302" y1="140.6923" x2="277.1686" y2="139.9126" fill="none" stroke="#231f20" stroke-linecap="round" stroke-linejoin="round" stroke-width=".5"/><line x1="281.8784" y1="139.5586" x2="277.0071" y2="138.5153" fill="none" stroke="#231f20" stroke-linecap="round" stroke-linejoin="round" stroke-width=".5"/><line x1="280.9699" y1="142.4277" x2="277.2084" y2="141.6479" fill="none" stroke="#231f20" stroke-linecap="round" stroke-linejoin="round" stroke-width=".5"/><polyline points="276.5068 104.0182 282.2133 105.606 282.2382 106.7545 276.53 107.1107" fill="none" stroke="#231f20" stroke-linecap="round" stroke-linejoin="round" stroke-width=".5"/><line x1="276.4582" y1="105.83" x2="282.2133" y2="105.606" fill="none" stroke="#231f20" stroke-linecap="round" stroke-linejoin="round" stroke-width=".5"/><ellipse cx="276.1592" cy="101.0913" rx=".6714" ry=".8281" transform="translate(-4.5068 13.285) rotate(-2.7335)" fill="#231f20" stroke-width="0"/><ellipse cx="276.1037" cy="98.5371" rx=".6714" ry=".8281" transform="translate(-4.3851 13.2795) rotate(-2.7335)" fill="#231f20" stroke-width="0"/><ellipse cx="276.0482" cy="95.9829" rx=".6714" ry=".8281" transform="translate(-4.2633 13.2739) rotate(-2.7335)" fill="#231f20" stroke-width="0"/><path d="M277.5079,117.1388h0c-.5763-.0476-1.0431-.5835-1.0373-1.191l.044-4.5877c.0058-.6074.4821-1.0655,1.0585-1.0179h0c.5763.0476,1.0431.5835,1.0373,1.191l-.044,4.5877c-.0058.6074-.4821,1.0655-1.0585,1.0179Z" fill="none" stroke="#231f20" stroke-miterlimit="10" stroke-width=".5"/><path d="M289.8397,102.7062l-1.0068,37.6565s.1176,1.5494-2.2196,3.3917" fill="none" stroke="#231f20" stroke-linecap="round" stroke-linejoin="round" stroke-width=".5"/><line x1="286.5622" y1="145.5594" x2="287.6574" y2="100.124" fill="none" stroke="#231f20" stroke-linecap="round" stroke-linejoin="round" stroke-width=".5"/><polygon points="288.9155 102.2866 288.908 99.6697 286.9371 99.613 286.9483 97.9165 286.0635 97.2076 286.1358 94.0075 287.0983 94.0364 287.1942 91.999 289.8121 92.3333 289.7203 99.0716 291.6587 97.5298 291.6962 99.3706 289.6337 101.3601 289.5575 102.322 288.9155 102.2866" fill="none" stroke="#231f20" stroke-linecap="round" stroke-linejoin="round" stroke-width=".5"/><polyline points="291.9094 97.4055 292.007 92.1432 289.8121 92.3333" fill="none" stroke="#231f20" stroke-linecap="round" stroke-linejoin="round" stroke-width=".5"/><polyline points="291.6587 97.5298 293.9049 97.484 293.9407 99.2428 291.731 99.2878" fill="none" stroke="#231f20" stroke-linecap="round" stroke-linejoin="round" stroke-width=".5"/><polyline points="293.9467 99.2122 291.6826 101.3713 291.6706 102.2686 289.5575 102.322" fill="none" stroke="#231f20" stroke-linecap="round" stroke-linejoin="round" stroke-width=".5"/><line x1="291.6826" y1="101.3713" x2="289.6337" y2="101.3601" fill="none" stroke="#231f20" stroke-linecap="round" stroke-linejoin="round" stroke-width=".5"/><polyline points="287.1942 91.999 289.2856 91.7381 292.007 92.1432" fill="none" stroke="#231f20" stroke-linecap="round" stroke-linejoin="round" stroke-width=".5"/><polygon points="290.3193 93.4415 291.4545 93.3345 291.0042 94.6029 290.3193 93.4415" fill="#231f20" stroke-width="0"/><line x1="296.8264" y1="91.0984" x2="294.7596" y2="145.0931" fill="none" stroke="#231f20" stroke-linecap="round" stroke-linejoin="round" stroke-width=".5"/><path d="M324.7628,100.349l-1.071,33.9527s.0945,3.8754-2.5521,6.1439" fill="none" stroke="#231f20" stroke-linecap="round" stroke-linejoin="round" stroke-width=".5"/><line x1="321.0452" y1="142.3833" x2="322.6336" y2="97.8669" fill="none" stroke="#231f20" stroke-linecap="round" stroke-linejoin="round" stroke-width=".5"/><polygon points="323.8473 99.9348 323.8931 97.4617 321.9238 97.3701 321.9696 95.7671 321.0994 95.0801 321.2368 92.0575 322.1986 92.1033 322.336 90.1797 324.9465 90.5461 324.7175 96.9121 326.6868 95.4923 326.6868 97.2327 324.5843 99.0731 324.4885 99.9806 323.8473 99.9348" fill="none" stroke="#231f20" stroke-linecap="round" stroke-linejoin="round" stroke-width=".5"/><polyline points="326.94 95.3797 327.1448 90.4087 324.9465 90.5461" fill="none" stroke="#231f20" stroke-linecap="round" stroke-linejoin="round" stroke-width=".5"/><polyline points="326.6868 95.4923 328.9335 95.4923 328.9335 97.1551 326.7233 97.1551" fill="none" stroke="#231f20" stroke-linecap="round" stroke-linejoin="round" stroke-width=".5"/><polyline points="328.9401 97.1263 326.6325 99.123 326.6022 99.9708 324.4885 99.9806" fill="none" stroke="#231f20" stroke-linecap="round" stroke-linejoin="round" stroke-width=".5"/><line x1="326.6325" y1="99.123" x2="324.5843" y2="99.0731" fill="none" stroke="#231f20" stroke-linecap="round" stroke-linejoin="round" stroke-width=".5"/><polyline points="322.336 90.1797 324.4322 89.9734 327.1448 90.4087" fill="none" stroke="#231f20" stroke-linecap="round" stroke-linejoin="round" stroke-width=".5"/><polygon points="325.431 91.6032 326.5681 91.5238 326.0921 92.7139 325.431 91.6032" fill="#231f20" stroke-width="0"/><path d="M311.0703,100.9519l-1.071,33.9527s.0945,3.8754-2.5521,6.1439" fill="none" stroke="#231f20" stroke-linecap="round" stroke-linejoin="round" stroke-width=".5"/><line x1="307.3528" y1="142.9862" x2="308.9411" y2="98.4697" fill="none" stroke="#231f20" stroke-linecap="round" stroke-linejoin="round" stroke-width=".5"/><polygon points="310.1549 100.5376 310.2007 98.0645 308.2313 97.9729 308.2771 96.3699 307.407 95.683 307.5444 92.6603 308.5061 92.7061 308.6435 90.7825 311.254 91.1489 311.025 97.5149 312.9944 96.0951 312.9944 97.8355 310.8918 99.6759 310.7961 100.5834 310.1549 100.5376" fill="none" stroke="#231f20" stroke-linecap="round" stroke-linejoin="round" stroke-width=".5"/><polyline points="313.2476 95.9825 313.4524 91.0115 311.254 91.1489" fill="none" stroke="#231f20" stroke-linecap="round" stroke-linejoin="round" stroke-width=".5"/><polyline points="312.9944 96.0951 315.241 96.0951 315.241 97.7579 313.0309 97.7579" fill="none" stroke="#231f20" stroke-linecap="round" stroke-linejoin="round" stroke-width=".5"/><polyline points="315.2477 97.7291 312.94 99.7258 312.9098 100.5736 310.7961 100.5834" fill="none" stroke="#231f20" stroke-linecap="round" stroke-linejoin="round" stroke-width=".5"/><line x1="312.94" y1="99.7258" x2="310.8918" y2="99.6759" fill="none" stroke="#231f20" stroke-linecap="round" stroke-linejoin="round" stroke-width=".5"/><polyline points="308.6435 90.7825 310.7397 90.5763 313.4524 91.0115" fill="none" stroke="#231f20" stroke-linecap="round" stroke-linejoin="round" stroke-width=".5"/><polygon points="311.7386 92.206 312.8757 92.1266 312.3997 93.3167 311.7386 92.206" fill="#231f20" stroke-width="0"/><path d="M351.6572,98.7196l-1.7737,35.5662s.0861,1.4665-2.2882,3.1624" fill="none" stroke="#231f20" stroke-linecap="round" stroke-linejoin="round" stroke-width=".5"/><line x1="347.5076" y1="139.1531" x2="349.528" y2="96.2375" fill="none" stroke="#231f20" stroke-linecap="round" stroke-linejoin="round" stroke-width=".5"/><polygon points="350.7418 98.3054 350.7876 95.8323 348.8182 95.7407 348.864 94.1377 347.9939 93.4507 348.1313 90.4281 349.093 90.4739 349.2304 88.5503 351.8409 88.9167 351.6119 95.2827 353.5813 93.8629 353.5813 95.6033 351.4787 97.4437 351.3829 98.3512 350.7418 98.3054" fill="none" stroke="#231f20" stroke-linecap="round" stroke-linejoin="round" stroke-width=".5"/><polyline points="353.8344 93.7503 354.0392 88.7793 351.8409 88.9167" fill="none" stroke="#231f20" stroke-linecap="round" stroke-linejoin="round" stroke-width=".5"/><polyline points="353.5813 93.8629 355.8279 93.8629 355.8279 95.5257 353.6178 95.5257" fill="none" stroke="#231f20" stroke-linecap="round" stroke-linejoin="round" stroke-width=".5"/><polyline points="355.8346 95.4969 353.5269 97.4936 353.4967 98.3414 351.3829 98.3512" fill="none" stroke="#231f20" stroke-linecap="round" stroke-linejoin="round" stroke-width=".5"/><line x1="353.5269" y1="97.4936" x2="351.4787" y2="97.4437" fill="none" stroke="#231f20" stroke-linecap="round" stroke-linejoin="round" stroke-width=".5"/><polyline points="349.2304 88.5503 351.3266 88.344 354.0392 88.7793" fill="none" stroke="#231f20" stroke-linecap="round" stroke-linejoin="round" stroke-width=".5"/><polygon points="352.3254 89.9738 353.4626 89.8944 352.9866 91.0845 352.3254 89.9738" fill="#231f20" stroke-width="0"/><path d="M338.5301,99.5086l-1.4748,33.4033s.0473,3.4737-2.6466,6.3329" fill="none" stroke="#231f20" stroke-linecap="round" stroke-linejoin="round" stroke-width=".5"/><line x1="334.2669" y1="140.4735" x2="336.4009" y2="97.0264" fill="none" stroke="#231f20" stroke-linecap="round" stroke-linejoin="round" stroke-width=".5"/><polygon points="337.6146 99.0943 337.6604 96.6212 335.6911 96.5296 335.7369 94.9266 334.8667 94.2397 335.0041 91.217 335.9659 91.2628 336.1033 89.3392 338.7138 89.7056 338.4848 96.0716 340.4541 94.6518 340.4541 96.3922 338.3516 98.2326 338.2558 99.1401 337.6146 99.0943" fill="none" stroke="#231f20" stroke-linecap="round" stroke-linejoin="round" stroke-width=".5"/><polyline points="340.7073 94.5393 340.9121 89.5682 338.7138 89.7056" fill="none" stroke="#231f20" stroke-linecap="round" stroke-linejoin="round" stroke-width=".5"/><polyline points="340.4541 94.6518 342.7008 94.6518 342.7008 96.3146 340.4906 96.3146" fill="none" stroke="#231f20" stroke-linecap="round" stroke-linejoin="round" stroke-width=".5"/><polyline points="342.7074 96.2858 340.3998 98.2825 340.3695 99.1303 338.2558 99.1401" fill="none" stroke="#231f20" stroke-linecap="round" stroke-linejoin="round" stroke-width=".5"/><line x1="340.3998" y1="98.2825" x2="338.3516" y2="98.2326" fill="none" stroke="#231f20" stroke-linecap="round" stroke-linejoin="round" stroke-width=".5"/><polyline points="336.1033 89.3392 338.1995 89.133 340.9121 89.5682" fill="none" stroke="#231f20" stroke-linecap="round" stroke-linejoin="round" stroke-width=".5"/><polygon points="339.1983 90.7627 340.3354 90.6833 339.8594 91.8734 339.1983 90.7627" fill="#231f20" stroke-width="0"/><path d="M315.2288,141.5696l-.8874.0732c-.1664.0137-.3026-.1124-.3027-.2803l-.0002-.8974c0-.1679.1361-.3165.3025-.3302l.8874-.0732c.1664-.0137.3026.1124.3027.2803l.0002.8974c0,.1679-.1361.3165-.3025.3302Z" fill="#231f20" stroke-width="0"/><path d="M301.2776,142.9648l-.8874.0732c-.1664.0137-.3026-.1124-.3027-.2803l-.0002-.8974c0-.1679.1361-.3165.3025-.3302l.8874-.0732c.1664-.0137.3026.1124.3027.2803l.0002.8974c0,.1679-.1361.3165-.3025.3302Z" fill="#231f20" stroke-width="0"/><path d="M328.4159,140.1843l-.8874.0732c-.1664.0137-.3026-.1124-.3027-.2803l-.0002-.8974c0-.1679.1361-.3165.3025-.3302l.8874-.0732c.1664-.0137.3026.1124.3027.2803l.0002.8974c0,.1679-.1361.3165-.3025.3302Z" fill="#231f20" stroke-width="0"/><path d="M342.0008,138.7243l-.8874.0732c-.1664.0137-.3026-.1124-.3027-.2803l-.0002-.8974c0-.1679.1361-.3165.3025-.3302l.8874-.0732c.1664-.0137.3026.1124.3027.2803l.0002.8974c0,.1679-.1361.3165-.3025.3302Z" fill="#231f20" stroke-width="0"/><polygon points="347.2319 113.7232 342.0192 114.1955 342.7023 100.8999 347.9586 100.6146 347.2319 113.7232" fill="none" stroke="#231f20" stroke-linecap="round" stroke-linejoin="round" stroke-width=".5404"/><polyline points="342.0228 114.1332 341.0534 113.596 341.7366 100.3004 346.9928 100.015 347.9646 100.5917" fill="none" stroke="#231f20" stroke-linecap="round" stroke-linejoin="round" stroke-width=".5404"/><line x1="342.7023" y1="100.8999" x2="341.7366" y2="100.3004" fill="none" stroke="#231f20" stroke-linecap="round" stroke-linejoin="round" stroke-width=".5404"/><ellipse cx="339.674" cy="108.7007" rx=".7643" ry=".7057" transform="translate(213.857 442.4137) rotate(-87.0879)" fill="#231f20" stroke-width="0"/><ellipse cx="339.8078" cy="106.0708" rx=".7643" ry=".7057" transform="translate(216.6106 440.051) rotate(-87.0879)" fill="#231f20" stroke-width="0"/><ellipse cx="339.0184" cy="124.2253" rx=".7643" ry=".7057" transform="translate(197.7303 456.4949) rotate(-87.0879)" fill="#231f20" stroke-width="0"/><ellipse cx="339.1522" cy="121.5953" rx=".7643" ry=".7057" transform="translate(200.4838 454.1321) rotate(-87.0879)" fill="#231f20" stroke-width="0"/><polyline points="341.5013 129.162 341.9823 116.5444 347.1862 116.0907 346.8026 128.5953 341.4279 129.1747" fill="none" stroke="#231f20" stroke-linecap="round" stroke-linejoin="round" stroke-width=".5404"/><polyline points="347.1923 116.0678 346.2205 115.4911 341.0165 115.9449 340.5373 128.7789 341.4279 129.1747" fill="none" stroke="#231f20" stroke-linecap="round" stroke-linejoin="round" stroke-width=".5404"/><line x1="341.9823" y1="116.5444" x2="341.0165" y2="115.9449" fill="none" stroke="#231f20" stroke-linecap="round" stroke-linejoin="round" stroke-width=".5404"/><polygon points="333.6574 114.7804 328.6395 115.2609 329.2971 101.7347 334.3569 101.4444 333.6574 114.7804" fill="none" stroke="#231f20" stroke-linecap="round" stroke-linejoin="round" stroke-width=".5348"/><polyline points="328.643 115.1975 327.7098 114.6509 328.3674 101.1248 333.4272 100.8345 334.3627 101.4212" fill="none" stroke="#231f20" stroke-linecap="round" stroke-linejoin="round" stroke-width=".5348"/><line x1="329.2971" y1="101.7347" x2="328.3674" y2="101.1248" fill="none" stroke="#231f20" stroke-linecap="round" stroke-linejoin="round" stroke-width=".5348"/><ellipse cx="326.382" cy="109.6708" rx=".7775" ry=".6793" transform="translate(206.982 432.6205) rotate(-88.2832)" fill="#231f20" stroke-width="0"/><ellipse cx="326.5108" cy="106.9952" rx=".7775" ry=".6793" transform="translate(209.7813 430.1538) rotate(-88.2832)" fill="#231f20" stroke-width="0"/><ellipse cx="325.7509" cy="125.4645" rx=".7775" ry=".6793" transform="translate(190.5832 447.3103) rotate(-88.2832)" fill="#231f20" stroke-width="0"/><ellipse cx="325.8797" cy="122.789" rx=".7775" ry=".6793" transform="translate(193.3825 444.8436) rotate(-88.2832)" fill="#231f20" stroke-width="0"/><polyline points="328.141 130.4869 328.604 117.6505 333.6134 117.1889 333.2441 129.9103 328.0703 130.4998" fill="none" stroke="#231f20" stroke-linecap="round" stroke-linejoin="round" stroke-width=".5348"/><polyline points="333.6192 117.1656 332.6837 116.579 327.6743 117.0405 327.213 130.0971 328.0703 130.4998" fill="none" stroke="#231f20" stroke-linecap="round" stroke-linejoin="round" stroke-width=".5348"/><line x1="328.604" y1="117.6505" x2="327.6743" y2="117.0405" fill="none" stroke="#231f20" stroke-linecap="round" stroke-linejoin="round" stroke-width=".5348"/><path d="M355.1085,90.2444l.7105.0323.1562-5.1217L37.462,102.1375s-1.1214.0467-1.028,1.3083.2336,5.5426.2336,5.5426l-22.3764-39.4462-.1031-3.507,182.0675-4.9451,159.6602,23.9954" fill="none" stroke="#231f20" stroke-linecap="round" stroke-linejoin="round" stroke-width=".5"/><polyline points="15.1424 65.8427 12.1929 61.5983 176.0007 58.1935 194.5433 61.0684" fill="none" stroke="#231f20" stroke-linecap="round" stroke-linejoin="round" stroke-width=".5"/><polyline points="12.1929 61.5983 12.1929 64.5287 14.0336 67.3097" fill="none" stroke="#231f20" stroke-linecap="round" stroke-linejoin="round" stroke-width=".5"/><line x1="36.4948" y1="102.4985" x2="14.1881" y2="66.0352" fill="none" stroke="#231f20" stroke-linecap="round" stroke-linejoin="round" stroke-width=".5"/><line x1="339.7126" y1="142.9519" x2="342.6792" y2="142.6196" fill="none" stroke="#231f20" stroke-linecap="round" stroke-linejoin="round" stroke-width=".5"/><polyline points="354.7932 93.001 355.1931 86.3226 49.5809 103.4413 38.7045 104.0506 42.7026 176.033" fill="none" stroke="#231f20" stroke-linecap="round" stroke-linejoin="round" stroke-width=".5"/><polyline points="187.2701 159.9176 275.2361 150.175 351.8842 141.5884 354.5129 97.6834" fill="none" stroke="#231f20" stroke-linecap="round" stroke-linejoin="round" stroke-width=".5"/><polyline points="179.8831 160.8571 42.1196 176.2903 14.1117 93.5504 12.1929 64.5287" fill="none" stroke="#231f20" stroke-linecap="round" stroke-linejoin="round" stroke-width=".5"/><line x1="187.2209" y1="157.9973" x2="351.9429" y2="140.2272" fill="none" stroke="#231f20" stroke-linecap="round" stroke-linejoin="round" stroke-width=".5"/><line x1="270.6863" y1="101.5082" x2="270.8356" y2="92.1888" fill="none" stroke="#231f20" stroke-linecap="round" stroke-linejoin="round" stroke-width=".5"/><line x1="213.3357" y1="155.141" x2="213.3357" y2="140.4925" fill="none" stroke="#231f20" stroke-linecap="round" stroke-linejoin="round" stroke-width=".5"/><line x1="215.3333" y1="154.9595" x2="215.3333" y2="140.3109" fill="none" stroke="#231f20" stroke-linecap="round" stroke-linejoin="round" stroke-width=".5"/><polyline points="256.7551 139.7012 256.4296 146.6983 244.8062 147.8142 244.8046 140.8484" fill="none" stroke="#231f20" stroke-linecap="round" stroke-linejoin="round" stroke-width=".5"/><polyline points="230.5586 142.7889 230.5586 149.1736 242.3042 147.9119 242.5128 140.926" fill="none" stroke="#231f20" stroke-linecap="round" stroke-linejoin="round" stroke-width=".5"/><polyline points="244.8062 147.8142 243.6359 147.5053 243.6566 140.624" fill="none" stroke="#231f20" stroke-linecap="round" stroke-linejoin="round" stroke-width=".5"/><polyline points="230.5586 149.1736 229.3836 148.6435 229.3836 143.2742" fill="none" stroke="#231f20" stroke-linecap="round" stroke-linejoin="round" stroke-width=".5"/><polyline points="211.9889 140.6052 211.8877 152.133 157.8154 157.8064" fill="none" stroke="#231f20" stroke-linecap="round" stroke-linejoin="round" stroke-width=".5"/><polyline points="157.645 142.5885 157.7362 145.4327 157.8154 157.8064 157.8345 160.7893" fill="none" stroke="#231f20" stroke-linecap="round" stroke-linejoin="round" stroke-width=".5"/><polyline points="166.2392 150.2643 160.3999 150.7633 158.5033 149.5156 158.5033 146.2217 168.2854 145.5229 168.7845 145.8224 170.9805 145.6727 170.9805 149.5156 169.9324 149.7153" fill="none" stroke="#231f20" stroke-linecap="round" stroke-linejoin="round" stroke-width=".5"/><line x1="160.3999" y1="150.7633" x2="160.3999" y2="147.4694" fill="none" stroke="#231f20" stroke-linecap="round" stroke-linejoin="round" stroke-width=".5"/><polyline points="158.5033 146.2217 160.3999 147.4694 167.4869 146.9204 166.5386 147.5692 166.5386 151.0129 168.3852 151.1127 169.9324 149.7153 169.9324 146.7207 168.535 147.8187 166.6384 147.7688" fill="none" stroke="#231f20" stroke-linecap="round" stroke-linejoin="round" stroke-width=".5"/><line x1="169.9324" y1="146.7207" x2="170.8807" y2="146.571" fill="none" stroke="#231f20" stroke-linecap="round" stroke-linejoin="round" stroke-width=".5"/><path d="M179.5618,155.6669l6.7459,1.7699s.711.326-.0146.7291l-4.8547.5762c-.0733.0049-.1469-.0022-.2179-.0212l-8.0274-2.2479" fill="none" stroke="#231f20" stroke-linecap="round" stroke-linejoin="round" stroke-width=".5"/><path d="M173.9668,158.4633l7.2508,2.1161c.073.0203.1489.0281.2245.023l4.8511-.576.3882-.2918.0155-1.7484" fill="none" stroke="#231f20" stroke-linecap="round" stroke-linejoin="round" stroke-width=".5"/><path d="M173.5836,157.5741l-.015,2.0976-.3981.6414-2.2339.0221v-.8184l-1.7731-.5258v-2.1572l1.7731.5258v.8184l2.2339-.0221.3981-.6414-2.7205-.8626" fill="none" stroke="#231f20" stroke-linecap="round" stroke-linejoin="round" stroke-width=".5"/><line x1="181.2039" y1="158.7176" x2="181.2039" y2="160.6101" fill="none" stroke="#231f20" stroke-linecap="round" stroke-linejoin="round" stroke-width=".5"/><line x1="172.698" y1="158.3552" x2="172.698" y2="160.2477" fill="none" stroke="#231f20" stroke-linecap="round" stroke-linejoin="round" stroke-width=".5"/><line x1="171.0344" y1="158.2136" x2="171.0344" y2="160.1061" fill="none" stroke="#231f20" stroke-linecap="round" stroke-linejoin="round" stroke-width=".5"/><path d="M213.0532,154.0244l-2.4428-1.7062s-2.8042,2.2434-5.1177,2.7341l-19.91,2.0331" fill="none" stroke="#231f20" stroke-linecap="round" stroke-linejoin="round" stroke-width=".5"/><path d="M151.4419,159.3748s2.3369-.5163,2.4043-4.2234" fill="none" stroke="#231f20" stroke-linecap="round" stroke-linejoin="round" stroke-width=".5"/><line x1="153.1826" y1="112.3407" x2="153.989" y2="161.1782" fill="none" stroke="#231f20" stroke-linecap="round" stroke-linejoin="round" stroke-width=".5"/><path d="M149.622,110.6436h-.8088l.5392,1.2132.6066,38.5536,2.2916,1.9546s.4718,4.9203-.7414,6.0661" fill="none" stroke="#231f20" stroke-linecap="round" stroke-linejoin="round" stroke-width=".5"/><path d="M149.452,108.8067l-.5012-.401v-1.9548l-.9022-1.9548v-2.456h.9022c0,.1504-.0501-2.055-.0501-2.055l.2041.099,1.4499.703v7.6186l.899-1.7113h3.1982v2.0352l-.8722,2.1183v1.0591h-3.3435v-.9761l1.1422-2.2429-.0623-1.9937" fill="none" stroke="#231f20" stroke-linecap="round" stroke-linejoin="round" stroke-width=".5"/><polyline points="149.853 111.6135 149.853 106.5512 149.452 106.2003" fill="none" stroke="#231f20" stroke-linecap="round" stroke-linejoin="round" stroke-width=".5"/><polyline points="149.1048 99.8348 151.507 99.8348 153.3114 100.6304 153.3114 106.4008" fill="none" stroke="#231f20" stroke-linecap="round" stroke-linejoin="round" stroke-width=".5"/><line x1="150.5547" y1="100.7871" x2="153.3114" y2="100.7871" fill="none" stroke="#231f20" stroke-linecap="round" stroke-linejoin="round" stroke-width=".5"/><line x1="151.5784" y1="108.6881" x2="154.6519" y2="108.6881" fill="none" stroke="#231f20" stroke-linecap="round" stroke-linejoin="round" stroke-width=".5"/><line x1="150.4362" y1="110.931" x2="153.7797" y2="110.931" fill="none" stroke="#231f20" stroke-linecap="round" stroke-linejoin="round" stroke-width=".5"/><line x1="114.3721" y1="114.8446" x2="115.1784" y2="165.5252" fill="none" stroke="#231f20" stroke-linecap="round" stroke-linejoin="round" stroke-width=".5"/><path d="M110.8115,113.1475h-.8088l.5392,1.2132,1.0191,39.8869,2.2916,1.9546s.5898,4.9635-.6234,6.1093" fill="none" stroke="#231f20" stroke-linecap="round" stroke-linejoin="round" stroke-width=".5"/><path d="M110.6415,111.3106l-.5012-.401v-1.9548l-.9022-1.9548v-2.456h.9022c0,.1504-.0501-2.055-.0501-2.055l.2041.099,1.4499.703v7.6186l.899-1.7113h3.1982v2.0352l-.8722,2.1183v1.0591h-3.3435v-.9761l1.1422-2.2429-.0623-1.9937" fill="none" stroke="#231f20" stroke-linecap="round" stroke-linejoin="round" stroke-width=".5"/><polyline points="111.0425 114.1174 111.0425 109.0551 110.6415 108.7042" fill="none" stroke="#231f20" stroke-linecap="round" stroke-linejoin="round" stroke-width=".5"/><polyline points="110.2943 102.3387 112.6965 102.3387 114.5009 103.1343 114.5009 108.9047" fill="none" stroke="#231f20" stroke-linecap="round" stroke-linejoin="round" stroke-width=".5"/><line x1="111.7442" y1="103.291" x2="114.5009" y2="103.291" fill="none" stroke="#231f20" stroke-linecap="round" stroke-linejoin="round" stroke-width=".5"/><line x1="112.7678" y1="111.192" x2="115.8414" y2="111.192" fill="none" stroke="#231f20" stroke-linecap="round" stroke-linejoin="round" stroke-width=".5"/><line x1="111.6256" y1="113.4349" x2="114.9692" y2="113.4349" fill="none" stroke="#231f20" stroke-linecap="round" stroke-linejoin="round" stroke-width=".5"/><line x1="93.7224" y1="116.5129" x2="95.3921" y2="167.7554" fill="none" stroke="#231f20" stroke-linecap="round" stroke-linejoin="round" stroke-width=".5"/><path d="M90.2116,114.878l-.7906.0228.5489,1.2254,1.2888,39.4063,2.2752,1.9341s.9616,5.4056-.2036,6.6115" fill="none" stroke="#231f20" stroke-linecap="round" stroke-linejoin="round" stroke-width=".5"/><path d="M90.0123,113.0044l-.4972-.3959-.0353-1.9989-.9171-1.9734-.0443-2.5114.8818-.0254c.0027.1538-.0861-2.1-.0861-2.1l.2013.0954,1.4299.678.1375,7.7904.8479-1.7752,3.126-.0902.0367,2.0811-.8143,2.1907.0191,1.083-3.2681.0943-.0176-.9981,1.076-2.3257-.0969-2.0369" fill="none" stroke="#231f20" stroke-linecap="round" stroke-linejoin="round" stroke-width=".5"/><polyline points="90.4549 115.8633 90.3635 110.6867 89.9652 110.3392" fill="none" stroke="#231f20" stroke-linecap="round" stroke-linejoin="round" stroke-width=".5"/><polyline points="89.5109 103.8399 91.859 103.7722 93.637 104.5348 93.7412 110.4354" fill="none" stroke="#231f20" stroke-linecap="round" stroke-linejoin="round" stroke-width=".5"/><line x1="90.9453" y1="104.7728" x2="93.6399" y2="104.6951" fill="none" stroke="#231f20" stroke-linecap="round" stroke-linejoin="round" stroke-width=".5"/><line x1="92.0885" y1="112.8232" x2="95.0927" y2="112.7365" fill="none" stroke="#231f20" stroke-linecap="round" stroke-linejoin="round" stroke-width=".5"/><line x1="91.0125" y1="115.1489" x2="94.2806" y2="115.0546" fill="none" stroke="#231f20" stroke-linecap="round" stroke-linejoin="round" stroke-width=".5"/><polyline points="72.5293 117.4193 74.6029 168.1039 76.0069 169.7068" fill="none" stroke="#231f20" stroke-linecap="round" stroke-linejoin="round" stroke-width=".5"/><polyline points="69.0146 115.7831 68.2264 115.8067 68.7839 117.0349 70.3917 158.2117 72.6765 160.149 72.6765 170.1105" fill="none" stroke="#231f20" stroke-linecap="round" stroke-linejoin="round" stroke-width=".5"/><path d="M68.8005,113.9046l-.499-.3965-.0515-2.0043-.9308-1.978-.0648-2.5182.8792-.0263c.004.1542-.103-2.1056-.103-2.1056l.2015.0955,1.4315.6785.2009,7.8116.831-1.7808,3.1168-.0933.0537,2.0868-.7942,2.1974.0279,1.086-3.2584.0975-.0257-1.0008,1.054-2.333-.1133-2.0424" fill="none" stroke="#231f20" stroke-linecap="round" stroke-linejoin="round" stroke-width=".5"/><polyline points="69.2653 116.7708 69.1318 111.5802 68.7318 111.2322" fill="none" stroke="#231f20" stroke-linecap="round" stroke-linejoin="round" stroke-width=".5"/><polyline points="68.2255 104.7155 70.5666 104.6455 72.346 105.4086 72.4982 111.3252" fill="none" stroke="#231f20" stroke-linecap="round" stroke-linejoin="round" stroke-width=".5"/><line x1="69.6636" y1="105.6497" x2="72.3502" y2="105.5693" fill="none" stroke="#231f20" stroke-linecap="round" stroke-linejoin="round" stroke-width=".5"/><line x1="70.8696" y1="113.721" x2="73.8649" y2="113.6313" fill="none" stroke="#231f20" stroke-linecap="round" stroke-linejoin="round" stroke-width=".5"/><line x1="69.8156" y1="116.054" x2="73.074" y2="115.9565" fill="none" stroke="#231f20" stroke-linecap="round" stroke-linejoin="round" stroke-width=".5"/><polygon points="66.7046 137.0472 58.8849 137.8682 58.2277 122.9787 66.0994 122.4776 66.7046 137.0472" fill="none" stroke="#231f20" stroke-linecap="round" stroke-linejoin="round" stroke-width=".5"/><polyline points="58.8838 137.7929 57.6676 137.1678 57.0104 122.2783 64.5769 121.8016 66.1061 122.4497" fill="none" stroke="#231f20" stroke-linecap="round" stroke-linejoin="round" stroke-width=".5"/><line x1="58.2277" y1="122.9787" x2="57.0104" y2="122.2783" fill="none" stroke="#231f20" stroke-linecap="round" stroke-linejoin="round" stroke-width=".5"/><polygon points="67.3683 154.6045 59.7455 155.4105 59.0766 140.1876 66.7459 139.5053 67.3683 154.6045" fill="none" stroke="#231f20" stroke-linecap="round" stroke-linejoin="round" stroke-width=".5"/><polyline points="59.7443 155.336 58.5579 154.7171 57.8889 139.4942 65.2607 138.8358 66.7523 139.4778" fill="none" stroke="#231f20" stroke-linecap="round" stroke-linejoin="round" stroke-width=".5"/><line x1="59.0766" y1="140.1876" x2="57.8889" y2="139.4942" fill="none" stroke="#231f20" stroke-linecap="round" stroke-linejoin="round" stroke-width=".5"/><line x1="113.1462" y1="156.1192" x2="113.3124" y2="165.9273" fill="none" stroke="#231f20" stroke-linecap="round" stroke-linejoin="round" stroke-width=".5"/><line x1="93.0313" y1="157.2413" x2="93.1975" y2="168.0468" fill="none" stroke="#231f20" stroke-linecap="round" stroke-linejoin="round" stroke-width=".5"/><polyline points="109.2905 100.2383 111.1051 101.8715 91.5953 102.8423 89.8474 101.1722" fill="none" stroke="#231f20" stroke-linecap="round" stroke-linejoin="round" stroke-width=".5"/><polyline points="148.1084 98.0638 149.8767 99.4193 112.3228 101.5006 110.6212 100.1081" fill="none" stroke="#231f20" stroke-linecap="round" stroke-linejoin="round" stroke-width=".5"/><polyline points="69.4645 102.503 70.8843 103.982 90.4117 102.985 88.8211 101.3615" fill="none" stroke="#231f20" stroke-linecap="round" stroke-linejoin="round" stroke-width=".5"/><polyline points="68.1404 102.6234 69.6219 104.1038 50.4062 105.1378 49.5946 103.4534 53.4123 171.1153" fill="none" stroke="#231f20" stroke-linecap="round" stroke-linejoin="round" stroke-width=".5"/><line x1="151.2887" y1="151.6881" x2="151.2887" y2="161.6564" fill="none" stroke="#231f20" stroke-linecap="round" stroke-linejoin="round" stroke-width=".5"/><line x1="36.6677" y1="108.9884" x2="40.7169" y2="172.2876" fill="none" stroke="#231f20" stroke-linecap="round" stroke-linejoin="round" stroke-width=".5"/><path d="M170.9805,145.6727l35.5069-3.252s1.9909-.1414,3.053-1.4923v1.2818c-.824,1.5565-5.0357,1.648-5.0357,1.648l-1.7396,1.9227-31.3128,3.0214" fill="none" stroke="#231f20" stroke-linecap="round" stroke-linejoin="round" stroke-width=".5"/><polyline points="230.8727 138.7722 230.8178 142.513 229.7697 142.7126" fill="none" stroke="#231f20" stroke-linecap="round" stroke-linejoin="round" stroke-width=".5"/><polyline points="226.0765 143.2616 220.2372 143.7607 218.3406 142.513 218.4081 139.788" fill="none" stroke="#231f20" stroke-linecap="round" stroke-linejoin="round" stroke-width=".5"/><line x1="220.2372" y1="143.7607" x2="220.2372" y2="140.4667" fill="none" stroke="#231f20" stroke-linecap="round" stroke-linejoin="round" stroke-width=".5"/><polyline points="218.4081 139.788 220.2372 140.4667 227.3242 139.9177 226.3759 140.5665 226.3759 144.0102 228.2225 144.11 229.7697 142.7126 229.7697 139.7181 228.3723 140.8161 226.4757 140.7662" fill="none" stroke="#231f20" stroke-linecap="round" stroke-linejoin="round" stroke-width=".5"/><path d="M269.3777,135.2075c-.824,1.5565-5.0357,1.648-5.0357,1.648l-1.7396,1.9227-31.3128,3.0214" fill="none" stroke="#231f20" stroke-linecap="round" stroke-linejoin="round" stroke-width=".5"/><polygon points="86.8837 135.5877 79.2372 136.4805 78.9518 124.6976 86.6414 123.8795 86.8837 135.5877" fill="none" stroke="#231f20" stroke-linecap="round" stroke-linejoin="round" stroke-width=".5"/><polyline points="79.2378 136.4796 78.0666 135.8125 77.7812 124.0296 85.1726 123.2388 86.6486 123.8522" fill="none" stroke="#231f20" stroke-linecap="round" stroke-linejoin="round" stroke-width=".5"/><line x1="78.8917" y1="124.6371" x2="77.8573" y2="124.0369" fill="none" stroke="#231f20" stroke-linecap="round" stroke-linejoin="round" stroke-width=".5"/><polygon points="87.5556 162.227 80.1015 163.103 79.8126 151.4521 87.3091 150.6487 87.5556 162.227" fill="none" stroke="#231f20" stroke-linecap="round" stroke-linejoin="round" stroke-width=".5"/><polyline points="80.0821 163.0896 78.9596 162.4414 78.6708 150.7905 85.8765 150.014 87.3161 150.6218" fill="none" stroke="#231f20" stroke-linecap="round" stroke-linejoin="round" stroke-width=".5"/><line x1="79.8126" y1="151.4521" x2="78.6708" y2="150.7905" fill="none" stroke="#231f20" stroke-linecap="round" stroke-linejoin="round" stroke-width=".5"/><polygon points="87.1528 148.9047 79.6986 149.7807 79.4098 138.1298 86.7186 137.3738 87.1528 148.9047" fill="none" stroke="#231f20" stroke-linecap="round" stroke-linejoin="round" stroke-width=".5"/><polyline points="79.6951 149.7768 78.5568 149.1191 78.2679 137.4682 85.286 136.739 86.7256 137.3469" fill="none" stroke="#231f20" stroke-linecap="round" stroke-linejoin="round" stroke-width=".5"/><line x1="79.4098" y1="138.1298" x2="78.2679" y2="137.4682" fill="none" stroke="#231f20" stroke-linecap="round" stroke-linejoin="round" stroke-width=".5"/><polygon points="86.5024 122.1024 78.8559 122.9952 78.5705 111.2123 86.2602 110.6306 86.5024 122.1024" fill="none" stroke="#231f20" stroke-linecap="round" stroke-linejoin="round" stroke-width=".5"/><polyline points="78.8566 123.0087 77.6854 122.3272 77.4 110.5443 84.7914 109.9899 86.2673 110.6033" fill="none" stroke="#231f20" stroke-linecap="round" stroke-linejoin="round" stroke-width=".5"/><line x1="78.5105" y1="111.1518" x2="77.34" y2="110.4837" fill="none" stroke="#231f20" stroke-linecap="round" stroke-linejoin="round" stroke-width=".5"/><ellipse cx="235.1644" cy="150.1354" rx=".8557" ry=".7134" transform="translate(-25.0113 49.3805) rotate(-11.386)" fill="#231f20" stroke-width="0"/><ellipse cx="237.8145" cy="149.8594" rx=".8557" ry=".7134" transform="translate(-24.9046 49.8982) rotate(-11.386)" fill="#231f20" stroke-width="0"/><ellipse cx="249.0316" cy="148.7339" rx=".8557" ry=".7134" transform="translate(-24.4617 52.0905) rotate(-11.386)" fill="#231f20" stroke-width="0"/><ellipse cx="251.6816" cy="148.4579" rx=".8557" ry=".7134" transform="translate(-24.355 52.6083) rotate(-11.386)" fill="#231f20" stroke-width="0"/><ellipse cx="117.4928" cy="113.3939" rx=".8872" ry=".9609" fill="#231f20" stroke-width="0"/><ellipse cx="75.8512" cy="132.2752" rx=".8872" ry=".9609" fill="#231f20" stroke-width="0"/><ellipse cx="75.8512" cy="128.9644" rx=".8872" ry=".9609" fill="#231f20" stroke-width="0"/><ellipse cx="75.4398" cy="119.2462" rx=".8872" ry=".9609" fill="#231f20" stroke-width="0"/><ellipse cx="75.4398" cy="115.9354" rx=".8872" ry=".9609" fill="#231f20" stroke-width="0"/><ellipse cx="76.2626" cy="145.6943" rx=".8872" ry=".9609" fill="#231f20" stroke-width="0"/><ellipse cx="76.2626" cy="142.3835" rx=".8872" ry=".9609" fill="#231f20" stroke-width="0"/><ellipse cx="76.674" cy="158.449" rx=".8872" ry=".9609" fill="#231f20" stroke-width="0"/><ellipse cx="76.674" cy="155.1382" rx=".8872" ry=".9609" fill="#231f20" stroke-width="0"/><polygon points="107.8949 133.7968 100.3315 134.68 100.0491 123.025 107.6553 122.2157 107.8949 133.7968" fill="none" stroke="#231f20" stroke-linecap="round" stroke-linejoin="round" stroke-width=".4946"/><polyline points="100.3321 134.6791 99.1736 134.0192 98.8913 122.3642 106.2024 121.582 107.6624 122.1888" fill="none" stroke="#231f20" stroke-linecap="round" stroke-linejoin="round" stroke-width=".4946"/><line x1="99.9898" y1="122.9651" x2="98.9665" y2="122.3714" fill="none" stroke="#231f20" stroke-linecap="round" stroke-linejoin="round" stroke-width=".4946"/><polygon points="108.5596 160.147 101.1864 161.0134 100.9007 149.489 108.3158 148.6944 108.5596 160.147" fill="none" stroke="#231f20" stroke-linecap="round" stroke-linejoin="round" stroke-width=".4946"/><polyline points="101.1672 161.0001 100.0569 160.359 99.7712 148.8346 106.8987 148.0665 108.3227 148.6677" fill="none" stroke="#231f20" stroke-linecap="round" stroke-linejoin="round" stroke-width=".4946"/><line x1="100.9007" y1="149.489" x2="99.7712" y2="148.8346" fill="none" stroke="#231f20" stroke-linecap="round" stroke-linejoin="round" stroke-width=".4946"/><polygon points="108.1612 146.9693 100.7879 147.8358 100.5022 136.3113 107.7317 135.5635 108.1612 146.9693" fill="none" stroke="#231f20" stroke-linecap="round" stroke-linejoin="round" stroke-width=".4946"/><polyline points="100.7844 147.8319 99.6585 147.1814 99.3727 135.6569 106.3146 134.9357 107.7385 135.5369" fill="none" stroke="#231f20" stroke-linecap="round" stroke-linejoin="round" stroke-width=".4946"/><line x1="100.5022" y1="136.3113" x2="99.3727" y2="135.6569" fill="none" stroke="#231f20" stroke-linecap="round" stroke-linejoin="round" stroke-width=".4946"/><polygon points="107.5178 120.4579 99.9544 121.341 99.6721 109.6861 107.2782 109.1106 107.5178 120.4579" fill="none" stroke="#231f20" stroke-linecap="round" stroke-linejoin="round" stroke-width=".4946"/><polyline points="99.955 121.3544 98.7965 120.6803 98.5142 109.0253 105.8253 108.4769 107.2853 109.0837" fill="none" stroke="#231f20" stroke-linecap="round" stroke-linejoin="round" stroke-width=".4946"/><line x1="99.6127" y1="109.6262" x2="98.4548" y2="108.9654" fill="none" stroke="#231f20" stroke-linecap="round" stroke-linejoin="round" stroke-width=".4946"/><ellipse cx="96.9822" cy="130.5203" rx=".8776" ry=".9504" fill="#231f20" stroke-width="0"/><ellipse cx="96.9822" cy="127.2454" rx=".8776" ry=".9504" fill="#231f20" stroke-width="0"/><ellipse cx="96.5753" cy="117.6327" rx=".8776" ry=".9504" fill="#231f20" stroke-width="0"/><ellipse cx="96.5753" cy="114.3579" rx=".8776" ry=".9504" fill="#231f20" stroke-width="0"/><ellipse cx="97.3892" cy="143.7937" rx=".8776" ry=".9504" fill="#231f20" stroke-width="0"/><ellipse cx="97.3892" cy="140.5188" rx=".8776" ry=".9504" fill="#231f20" stroke-width="0"/><ellipse cx="97.7961" cy="156.4099" rx=".8776" ry=".9504" fill="#231f20" stroke-width="0"/><ellipse cx="97.7961" cy="153.1351" rx=".8776" ry=".9504" fill="#231f20" stroke-width="0"/><ellipse cx="55.0164" cy="132.1312" rx=".8822" ry=".9663" transform="translate(-30.5756 17.4165) rotate(-14.122)" fill="#231f20" stroke-width="0"/><ellipse cx="54.8249" cy="128.2184" rx=".8822" ry=".9663" transform="translate(-29.6267 17.2515) rotate(-14.122)" fill="#231f20" stroke-width="0"/><ellipse cx="55.765" cy="149.5759" rx=".8822" ry=".9663" transform="translate(-34.8093 18.1264) rotate(-14.122)" fill="#231f20" stroke-width="0"/><ellipse cx="55.5735" cy="145.663" rx=".8822" ry=".9663" transform="translate(-33.8604 17.9614) rotate(-14.122)" fill="#231f20" stroke-width="0"/><polygon points="151.3271 101.8275 152.4665 101.7928 151.9443 102.9633 151.3271 101.8275" fill="#231f20" stroke-width="0"/><polygon points="112.5971 104.6368 113.7365 104.602 113.2143 105.7725 112.5971 104.6368" fill="#231f20" stroke-width="0"/><polygon points="91.8369 105.8992 92.9763 105.8645 92.4541 107.035 91.8369 105.8992" fill="#231f20" stroke-width="0"/><polygon points="70.5182 106.6995 71.6576 106.6647 71.1354 107.8352 70.5182 106.6995" fill="#231f20" stroke-width="0"/><polyline points="170.6617 159.7769 49.2747 172.913 46.8362 135.2389 40.7401 135.6047" fill="none" stroke="#231f20" stroke-linecap="round" stroke-linejoin="round" stroke-width=".5"/><g clip-path="url(#b)"><path d="M148.9041,137.5439c-7.1892-6.461-14.9403-13.8968-21.8863-20.6978-2.3988-2.3345-4.8749-4.5877-7.3095-6.8844-.0516-.0487-.0538-.1308-.0071-.1836l8.1368-9.1803c.09-.1021.2485-.1081.3462-.0133,7.0151,6.6366,14.341,13.5645,21.1064,20.3804-7.1481-6.4077-14.4582-13.367-21.4395-20.0296,0,0,.3459-.0134.3459-.0134l-8.3005,9.0325-.0071-.1833c2.4191,2.3131,4.7968,4.6699,7.2517,6.9453,7.0914,6.5895,15.1689,14.0085,21.763,20.8276h0Z" fill="#231f20" stroke-width="0"/><path d="M148.7856,143.1262c-9.8347-8.7616-19.538-18.6158-29.1951-27.583,4.2752-5.2041,9.3857-10.2241,14.0047-15.3014.0987-.1045.2636-.1092.3679-.0104,2.5721,2.4356,5.1182,4.8985,7.6544,7.372,2.4716,2.4657,5.2966,5.0027,7.5607,7.4706-5.2374-4.7722-10.428-9.5948-15.5722-14.4666,0,0,.3674-.0106.3674-.0106-4.6868,5.0234-9.4434,9.9813-14.1981,14.941l-.0053-.1837c2.4182,2.3141,4.7982,4.6684,7.2529,6.9441,7.0924,6.5875,15.1671,14.011,21.7626,20.8281h0Z" fill="#231f20" stroke-width="0"/><path d="M148.8461,148.5318c-7.5347-6.4679-14.6078-13.4356-21.901-20.1656,0,0-7.3591-6.6584-7.3591-6.6584-.0854-.077-.0896-.2103-.0095-.2927,3.2866-3.5394,6.603-7.0505,9.9447-10.5375,2.9871-2.9548,7.2171-7.6158,10.1786-10.3152-2.7893,3.0977-6.9303,7.5591-9.8136,10.6619-3.3103,3.5169-6.646,7.0096-10.0115,10.4741l-.0095-.2924,7.2097,6.8198c7.2038,6.7492,14.9836,13.3272,21.7711,20.3061h0Z" fill="#231f20" stroke-width="0"/><path d="M149.2397,154.7352c-7.4839-6.5222-14.6884-13.3489-21.8909-20.1766,0,0-7.3326-6.687-7.3326-6.687-.0609-.0556-.0638-.1519-.0093-.2134,8.1937-9.2006,16.5895-18.6344,25.083-27.3593-8.11,9.3459-16.4163,18.5167-24.8585,27.5633,0,0-.0093-.2131-.0093-.2131l7.2362,6.7912c7.2937,6.6514,14.9437,13.371,21.7813,20.295h0Z" fill="#231f20" stroke-width="0"/><path d="M149.7207,160.9388c-7.277-6.4268-15.1846-13.7797-22.2584-20.5133-2.4305-2.3253-4.9192-4.5878-7.4046-6.8538-.0476-.0434-.0501-.1185-.0077-.1667,6.8574-7.7964,13.7042-15.6024,20.7181-23.2584,0,0,7.0178-7.6526,7.0178-7.6526l.0057.1411c-.0074-.0192-2.7579-2.6765-2.7085-2.7128.0415-.0574,2.8156,2.5689,2.8482,2.5658.04.0365.0411.1008.0056.1414l-6.8437,7.8087c-6.7831,7.5526-14.1339,16.1019-20.8737,22.9595,9.5813,9.0689,20.2986,18.3015,29.5011,27.5413h0Z" fill="#231f20" stroke-width="0"/><path d="M145.7441,162.704c-8.765-7.5661-16.9923-15.7139-25.5419-23.5148,4.24-5.2967,9.146-10.4817,13.6729-15.6802,4.6042-5.0678,9.322-10.4403,14.0068-15.2345-4.4826,5.2439-9.0229,10.4373-13.6171,15.5829-4.5296,4.9187-9.5112,10.8144-13.9134,15.171,8.3684,7.9183,17.4153,15.5555,25.3927,23.6757h0Z" fill="#231f20" stroke-width="0"/><path d="M148.9996,112.7045c-8.9675,10.915-19.0093,21.7131-28.1857,32.5008,0,0-.0109-.2045-.0109-.2045,3.2246,2.9298,11.4547,10.4187,14.532,13.2926,0,0,4.7981,4.4805,4.7981,4.4805l-.3279.0191c3.2777-3.6889,6.4828-7.5196,9.8225-11.1173-3.047,3.8531-6.3328,7.6085-9.4761,11.414-.0797.0955-.2218.1084-.3173.0287-.0085.0048-4.8408-4.4454-4.8504-4.4454-3.0695-2.8111-11.2461-10.5045-14.3807-13.4561-.0585-.0534-.0621-.1451-.011-.2048,9.4533-10.4882,18.8248-22.1829,28.4074-32.3074h0Z" fill="#231f20" stroke-width="0"/><path d="M136.4087,161.0419c1.7486-2.5995,4.1983-4.5621,6.1332-6.9948,1.9589-2.4014,4.0077-4.8174,6.335-6.8439-1.7852,2.5314-3.9471,4.8227-6.1314,7.0268-2.2108,2.116-3.9653,5.0324-6.3368,6.8119h0Z" fill="#231f20" stroke-width="0"/><path d="M149.0428,118.5783c-4.5884,5.5356-9.4666,10.8094-14.3635,16.0682-4.7981,5.3465-9.4345,10.8386-14.2796,16.1436,0,0-.0165-.3593-.0165-.3593,3.3192,3.1017,6.6057,6.2385,9.8458,9.4239.023.0202-.0116.0584-.034.0367-3.4274-2.983-6.8099-6.016-10.1599-9.0844-.1024-.0954-.1089-.2555-.0165-.3596,4.7603-5.3812,9.7289-10.5747,14.5354-15.9136,4.7104-5.3567,9.4991-11.0492,14.4888-15.9556h0Z" fill="#231f20" stroke-width="0"/><path d="M129.4217,164.6248c-3.1351-2.6941-6.2049-5.4605-9.229-8.2773-.0868-.0795-.0912-.2162-.0137-.3041,2.4118-2.6477,4.924-5.2047,7.2952-7.889,6.856-7.7697,14.5017-16.6529,21.6777-23.8546-6.661,7.9119-14.4571,16.3612-21.5499,23.9699-2.4277,2.6333-4.7144,5.3939-7.1016,8.0637l-.0137-.3038c2.9702,2.7982,6.2497,5.7092,8.935,8.5952h0Z" fill="#231f20" stroke-width="0"/><path d="M123.7246,164.9693c-1.1897-1.0096-2.3687-2.0307-3.5313-3.0696-.068-.0608-.0746-.1647-.0152-.2335,2.3394-2.7097,4.7184-5.384,7.1964-7.9696,7.2414-7.9209,14.0242-16.2543,21.5548-23.9147-2.0458,2.7097-4.67,5.4857-6.952,8.1802-4.6978,5.3978-9.7594,10.4688-14.4149,15.9028-2.2965,2.7453-4.6921,5.402-7.1271,8.0233l-.0112-.2379c1.0513,1.084,2.4452,2.2398,3.3005,3.319h0Z" fill="#231f20" stroke-width="0"/><path d="M149.019,132.1321c-5.1711-4.345-9.8067-9.2539-14.7417-13.8481-5.0069-4.5173-9.9667-9.0845-14.7406-13.8493-.0676-.0613-.0697-.1701-.0018-.2323,1.0091-.9093,2.0123-1.9129,3.0508-2.7495-.869,1.0187-1.8905,1.9928-2.8259,2.9801,0,0-.0018-.2321-.0018-.2321,5.023,4.5013,9.8592,9.1991,14.6483,13.9468,4.7913,4.6712,10.2291,9.0958,14.6127,13.9845h0Z" fill="#231f20" stroke-width="0"/><path d="M122.4128,101.1328c4.7608,3.9199,8.8675,8.5246,13.4562,12.626,4.5777,4.1115,9.0515,8.3323,13.3022,12.7881.0215.0206-.0118.0575-.0344.0363-4.6688-4.0156-9.1144-8.2662-13.4562-12.6259-4.2619-4.3699-9.3501-8.3053-13.2677-12.8244h0Z" fill="#231f20" stroke-width="0"/><path d="M148.9289,136.0027c-3.9922,5.0125-8.6817,9.3841-12.8586,14.228-4.1873,4.8331-8.4859,9.5645-13.0236,14.0772-.0202.0219-.0578-.0107-.0369-.0338,4.0897-4.9224,8.4185-9.626,12.8585-14.2281,4.4517-4.5221,8.4533-9.8628,13.0605-14.0433h0Z" fill="#231f20" stroke-width="0"/><path d="M132.0447,159.5631c2.4851-3.3254,5.6623-6.0044,8.3312-9.1601,2.6935-3.125,5.4738-6.2613,8.5305-9.007-2.5179,3.2585-5.4158,6.2682-8.3297,9.193-2.9406,2.8336-5.4368,6.4812-8.532,8.9742h0Z" fill="#231f20" stroke-width="0"/><path d="M128.2749,163.6336c.0345-.4517.3179-.6417.6633-.7986.3514-.4861.4894-1.1019,1.2151-1.2294.0201-.0052.0403.0133.0366.0339-.072.7335-.6749.9178-1.1329,1.3056-.1298.3561-.298.6538-.7454.7225-.0201.0044-.0394-.0136-.0366-.0339h0Z" fill="#231f20" stroke-width="0"/><path d="M144.8115,162.6554c.4387-.8859,1.1316-1.523,1.8826-2.1173,1.0305-1.1866,1.8643-2.6546,3.283-3.4201-.7,1.4772-2.047,2.4099-3.1641,3.5301-.5265.7333-1.1873,1.7151-2.0015,2.0073h0Z" fill="#231f20" stroke-width="0"/></g><polyline points="13.834 91.7404 13.5812 93.014 10.2305 93.0584 9.7435 93.8509 7.0309 93.9021 4.9752 61.9733 5.6192 61.4218 7.8533 61.3656 7.9427 62.0545 11.2532 61.9949 11.3074 61.3335 11.7334 61.2907 12.1543 61.9694" fill="none" stroke="#231f20" stroke-linecap="round" stroke-linejoin="round" stroke-width=".5"/><ellipse cx="8.9815" cy="69.451" rx="1.5474" ry="1.9248" transform="translate(-60.5605 77.6983) rotate(-89.3947)" fill="none" stroke="#231f20" stroke-linecap="round" stroke-linejoin="round" stroke-width=".5"/><ellipse cx="10.1694" cy="86.1355" rx="2.0259" ry="2.2657" transform="translate(-76.0688 95.3943) rotate(-89.3947)" fill="none" stroke="#231f20" stroke-linecap="round" stroke-linejoin="round" stroke-width=".5"/><path d="M103.9257,165.8797l-.8874.0732c-.1664.0137-.3026-.1124-.3027-.2803l-.0002-.8974c0-.1679.1361-.3165.3025-.3302l.8874-.0732c.1664-.0137.3026.1124.3027.2803l.0002.8974c0,.1679-.1361.3165-.3025.3302Z" fill="#231f20" stroke-width="0"/><path d="M84.3581,167.9466l-.8874.0732c-.1664.0137-.3026-.1124-.3027-.2803l-.0002-.8974c0-.1679.1361-.3165.3025-.3302l.8874-.0732c.1664-.0137.3026.1124.3027.2803l.0002.8974c0,.1679-.1361.3165-.3025.3302Z" fill="#231f20" stroke-width="0"/><path d="M62.6545,170.2483l-.8874.0732c-.1664.0137-.3026-.1124-.3027-.2803l-.0002-.8974c0-.1679.1361-.3165.3025-.3302l.8874-.0732c.1664-.0137.3026.1124.3027.2803l.0002.8974c0,.1679-.1361.3165-.3025.3302Z" fill="#231f20" stroke-width="0"/><path d="M268.1014,142.2284l-.8874.0732c-.1664.0137-.3026-.1124-.3027-.2803l-.0002-.8974c0-.1679.1361-.3165.3025-.3302l.8874-.0732c.1664-.0137.3026.1124.3027.2803l.0002.8974c0,.1679-.1361.3165-.3025.3302Z" fill="#231f20" stroke-width="0"/><path d="M210.5956,147.1059l-.8874.0732c-.1664.0137-.3026-.1124-.3027-.2803l-.0002-.8974c0-.1679.1361-.3165.3025-.3302l.8874-.0732c.1664-.0137.3026.1124.3027.2803l.0002.8974c0,.1679-.1361.3165-.3025.3302Z" fill="#231f20" stroke-width="0"/><path d="M116.2788,111.654l.1153,3.4576,3.7059-.1976-.2162-6.5333-3.7059.1976.0086.2604s.2408.0091.2408.2608l.0093,2.191-.1579.3636Z" fill="#231f20" stroke-width="0"/><ellipse cx="118.2089" cy="113.5329" rx=".8515" ry=".832" transform="translate(-37.299 165.305) rotate(-62.2578)" fill="#fff" stroke-width="0"/><path d="M119.2339,109.6856l-.0063-.1898-.2474.0132c-.035-.0728-.0957-.1287-.1695-.1595l-.0084-.2552-.1875.01.0073.221-.2687.0143-.0073-.221-.1875.01.0073.221-.2653.0141-.0073-.221-.1875.01.0073.221-.262.014-.0073-.221-.1875.01.0082.2483c-.0767.0378-.1366.1042-.1682.1844l-.2474.0132.0063.1898.2183-.0116.0089.2685-.2183.0116.0063.1898.2183-.0116.0089.2686-.2183.0116.0063.1898.2183-.0116.0089.2685-.2183.0116.0063.1898.2497-.0133c.0359.0723.0963.1284.1706.1583l.0084.2529.1875-.01-.0073-.221.2687-.0143.0073.221.1875-.01-.0073-.221.2653-.0141.0073.221.1875-.01-.0073-.221.262-.014.0073.221.1875-.01-.0083-.2507c.0737-.0375.1312-.1012.1627-.1783l.2497-.0133-.0063-.1898-.2183.0116-.0089-.2685.2183-.0116-.0063-.1898-.2183.0116-.0089-.2686.2183-.0116-.0063-.1898-.2183.0116-.0089-.2685.2183-.0116ZM118.0299,110.7561l-.1517.0081-.3951-.5882.0201.6082-.1362.0073-.0274-.8273.1508-.008.3934.5895-.0176-.6095.1362-.0073.0274.8273ZM118.5385,110.729l-.1595.0085-.2993-.8128.1487-.0079.2263.6438.1904-.666.1452-.0077-.2518.8422Z" fill="#fff" stroke="#231f20" stroke-miterlimit="10" stroke-width=".0204"/><polygon points="135.7651 162.3525 130.9927 162.9393 130.9812 160.453 135.7536 159.9854 135.7651 162.3525" fill="#231f20" stroke-width="0"/><path d="M132.2941,162.3105c-.0422.0041-.0764-.0059-.1028-.0297-.0264-.0241-.0395-.0572-.0397-.0997-.0002-.0411.0126-.0767.0387-.1074.0261-.0304.0602-.0476.1024-.0518.0421-.0041.076.0065.1017.0318.0257.0256.0387.0587.0389.0998.0002.0426-.0125.0781-.0379.1073-.0254.0289-.0592.0455-.1013.0497ZM132.2572,161.7986c-.0001-.0227-.0032-.0604-.0091-.1135-.006-.0533-.0123-.1104-.019-.1716-.0067-.0609-.013-.1202-.019-.1772s-.0098-.1015-.0113-.1332c-.0041-.0635-.0085-.1209-.0132-.173s-.0071-.0927-.0073-.1219c-.0002-.0531.0101-.0918.0312-.1163.0209-.0248.0462-.0386.0755-.0415.0306-.003.0562.0058.0768.0265.0205.0204.0309.0572.0311.1102.0001.0292-.0012.0699-.0042.1219-.0029.0522-.0069.1111-.0116.1766-.0011.0319-.0044.0771-.0099.1352s-.0113.1186-.0173.1808c-.0061.0625-.0116.1206-.0165.1751-.0048.0541-.0072.0924-.0071.1151l-.069.0068Z" fill="#fff" stroke="#fff" stroke-miterlimit="10" stroke-width=".0503"/><path d="M134.7886,161.9901l-.8459.0876c-.1586.0164-.2885-.1011-.2885-.2611l-.0002-.8554c0-.16.1297-.3044.2884-.3208l.8459-.0876c.1586-.0164.2885.1011.2885.2611l.0002.8554c0,.16-.1297.3044-.2884.3208Z" fill="#fff" stroke-width="0"/><polyline points="186.6354 147.3931 186.7705 151.7243 177.8992 152.6436 177.8232 148.2136" fill="none" stroke="#231f20" stroke-linecap="round" stroke-linejoin="round" stroke-width=".392"/><line x1="177.3154" y1="151.8648" x2="177.239" y2="148.2546" fill="none" stroke="#231f20" stroke-linecap="round" stroke-linejoin="round" stroke-width=".392"/><line x1="177.8495" y1="152.6032" x2="177.3261" y2="151.8825" fill="none" stroke="#231f20" stroke-linecap="round" stroke-linejoin="round" stroke-width=".392"/><polyline points="206.6939 143.7008 206.8299 149.4666 198.0575 150.381 198.0499 146.2854" fill="none" stroke="#231f20" stroke-linecap="round" stroke-linejoin="round" stroke-width=".392"/><line x1="197.4805" y1="149.7315" x2="197.4755" y2="146.2854" fill="none" stroke="#231f20" stroke-linecap="round" stroke-linejoin="round" stroke-width=".392"/><line x1="198.0575" y1="150.3468" x2="197.4805" y2="149.6589" fill="none" stroke="#231f20" stroke-linecap="round" stroke-linejoin="round" stroke-width=".392"/><polyline points="196.658 146.3264 196.7939 150.572 188.0215 151.4864 187.9655 147.229" fill="none" stroke="#231f20" stroke-linecap="round" stroke-linejoin="round" stroke-width=".392"/><line x1="187.4446" y1="150.8391" x2="187.3884" y2="147.27" fill="none" stroke="#231f20" stroke-linecap="round" stroke-linejoin="round" stroke-width=".392"/><line x1="188.0215" y1="151.3725" x2="187.4446" y2="150.7643" fill="none" stroke="#231f20" stroke-linecap="round" stroke-linejoin="round" stroke-width=".392"/><polyline points="176.5265 148.2945 176.6136 152.8214 167.7423 153.7406 167.7798 151.1276" fill="none" stroke="#231f20" stroke-linecap="round" stroke-linejoin="round" stroke-width=".392"/><line x1="167.1585" y1="153.1365" x2="167.2403" y2="151.0443" fill="none" stroke="#231f20" stroke-linecap="round" stroke-linejoin="round" stroke-width=".392"/><line x1="167.6926" y1="153.6288" x2="167.1088" y2="153.0955" fill="none" stroke="#231f20" stroke-linecap="round" stroke-linejoin="round" stroke-width=".392"/><path d="M182.6524,154.0394c.0343-.4036.3853-.7557.784-.7865s.694.2714.6597.6749-.3853.7557-.784.7865-.694-.2714-.6597-.6749Z" fill="#231f20" stroke-width="0"/><path d="M180.1654,154.2316c.0343-.4036.3853-.7557.784-.7865s.694.2714.6597.6749-.3853.7557-.784.7865-.694-.2714-.6597-.6749Z" fill="#231f20" stroke-width="0"/><path d="M172.8362,155.1348c.0343-.4036.3853-.7557.784-.7865s.694.2714.6597.6749-.3853.7557-.784.7865-.694-.2714-.6597-.6749Z" fill="#231f20" stroke-width="0"/><path d="M170.3492,155.327c.0343-.4036.3853-.7557.784-.7865s.694.2714.6597.6749-.3853.7557-.784.7865-.694-.2714-.6597-.6749Z" fill="#231f20" stroke-width="0"/><path d="M192.7617,152.9213c.0343-.4036.3853-.7557.784-.7865s.694.2714.6597.6749-.3853.7557-.784.7865-.694-.2714-.6597-.6749Z" fill="#231f20" stroke-width="0"/><path d="M190.2746,153.1135c.0343-.4036.3853-.7557.784-.7865s.694.2714.6597.6749-.3853.7557-.784.7865-.694-.2714-.6597-.6749Z" fill="#231f20" stroke-width="0"/><path d="M202.3719,151.8418c.0343-.4036.3853-.7557.784-.7865s.694.2714.6597.6749-.3853.7557-.784.7865-.694-.2714-.6597-.6749Z" fill="#231f20" stroke-width="0"/><path d="M199.8848,152.0341c.0343-.4036.3853-.7557.784-.7865s.694.2714.6597.6749-.3853.7557-.784.7865-.694-.2714-.6597-.6749Z" fill="#231f20" stroke-width="0"/></g><g id="c"><polygon points="163.1793 89.8542 176.0618 94.6824 168.5787 95.0584 192.7859 99.5629 200.5501 93.7067 192.6633 94.0732 179.6414 89.0785 163.1793 89.8542" fill="#221f20" stroke-width="0"/><polygon points="200.5501 93.7067 192.7859 99.5629 168.5787 95.0584 176.0618 94.6824 163.1793 89.8542 179.6414 89.0785 192.6633 94.0732 200.5501 93.7067" fill="none" stroke="#fff" stroke-linecap="round" stroke-linejoin="round" stroke-width="4"/><polygon points="177.7438 87.6663 164.8613 82.8381 172.3444 82.4621 148.1372 77.9576 140.373 83.8138 148.2599 83.4473 161.2818 88.4421 177.7438 87.6663" fill="#221f20" stroke-width="0"/><polygon points="140.373 83.8138 148.1372 77.9576 172.3444 82.4621 164.8613 82.8381 177.7438 87.6663 161.2818 88.4421 148.2599 83.4473 140.373 83.8138" fill="none" stroke="#fff" stroke-linecap="round" stroke-linejoin="round" stroke-width="3"/><polygon points="163.1793 89.8542 176.0618 94.6824 168.5787 95.0584 192.7859 99.5629 200.5501 93.7067 192.6633 94.0732 179.6414 89.0785 163.1793 89.8542" fill="#221f20" stroke-width="0"/><polygon points="178.1852 88.0934 165.3027 83.2652 172.7858 82.8892 148.7906 78.789 140.8144 84.2409 148.7012 83.8744 161.7231 88.8691 178.1852 88.0934" fill="#221f20" stroke-width="0"/><path d="M201.1128,127.8252c1.0769-2.7982.2815-5.8564-1.7729-7.7936l2.6158-.193-9.8942-4.4129-1.3203,5.5391,2.8805-.3384c1.8867,1.9436,2.5853,4.8784,1.5485,7.5724" fill="#231f20" stroke="#fff" stroke-linecap="round" stroke-linejoin="round" stroke-width="2"/><path d="M201.1128,127.8252c1.0769-2.7982.2815-5.8564-1.7729-7.7936l2.6158-.193-9.8942-4.4129-1.3203,5.5391,2.8805-.3384c1.8867,1.9436,2.5853,4.8784,1.5485,7.5724" fill="#231f20" stroke-width="0"/><ellipse cx="254.987" cy="94.3638" rx="1.3814" ry="1.1516" transform="translate(-13.6108 52.1962) rotate(-11.386)" fill="#231f20" stroke-width="0"/><path d="M337.8629,87.5749c-.0815-.3489.0869-.4158.3305-.4775.0526-.0396.0731-.1064.0818-.1832.0307-.3105.1809-.5199.5831-.5162.0192.0002.035.0141.0382.0323.094.6294-.2887.5198-.5793.7717-.0203.2502-.0588.428-.4161.4051-.0189-.0009-.0342-.0146-.0381-.0323h0Z" fill="#231f20" stroke-width="0"/><g clip-path="url(#d)"><circle cx="258.4083" cy="44.838" r="40.6515" fill="#fff" stroke="#231f20" stroke-miterlimit="10"/><path d="M259.2333,39.7134v-2.7573s.7121-2.0166,3.7713-1.6976l11.4563,3.8909s2.0981.8528,1.8324,3.027v20.757s-1.2057,3.2246-6.3443.6554-10.9037-4.9505-10.9037-4.9505l.188-18.9248Z" fill="#ced0d1" stroke-width="0"/><path d="M228.8229,20.8709c-.8351-1.6702-3.897-1.8093-3.897-1.8093,0,0-47.3209,2.7836-50.5221,3.0619s-2.6444,3.897-2.6444,3.897v50.3829s.2784,3.897,7.5157,3.0619,44.9549-4.7321,44.9549-4.7321c0,0,3.7578-.2784,4.0362-2.6444v-5.428" fill="none" stroke="#231f20" stroke-linecap="round" stroke-linejoin="round" stroke-width=".5"/><polyline points="225.1055 5.1664 265.1447 17.8746 228.0872 19.5567" fill="none" stroke="#231f20" stroke-linecap="round" stroke-linejoin="round" stroke-width=".5"/><polyline points="265.1447 62.3251 265.1447 70.275 226.2834 74.3121" fill="none" stroke="#231f20" stroke-linecap="round" stroke-linejoin="round" stroke-width=".5"/><line x1="265.1447" y1="17.8746" x2="265.1447" y2="34.9935" fill="none" stroke="#231f20" stroke-linecap="round" stroke-linejoin="round" stroke-width=".5"/><path d="M202.674,27.8906s-.246-4.059-1.107-4.7969l10.5779-.369,10.7009,9.3479s-2.829,4.4279-4.4279,4.5509c0,0-5.2889-8.4869-15.7438-8.7329Z" fill="none" stroke="#231f20" stroke-linecap="round" stroke-linejoin="round" stroke-width=".5"/><path d="M227.4803,45.6575v-22.9506c0-1.7932,1.2808-1.4516,1.2808-1.4516l28.7227-1.4448s1.968,0,1.968,1.968l-.369,40.4665s.123,1.353-1.599,1.599-26.8137,1.968-26.8137,1.968c0,0-3.4002.94-3.4655-2.0644v-2.6778" fill="none" stroke="#231f20" stroke-linecap="round" stroke-linejoin="round" stroke-width=".5"/><path d="M215.2947,50.1362c.3946-4.2996-1.5103-7.8373-1.5103-7.8373,0,0,5.5151-1.9351,7.547-6.2892,0,0,2.2254-.9676,2.7092-1.8384,0,0,1.7416.0968,1.8384,2.0319v4.0638" fill="none" stroke="#231f20" stroke-linecap="round" stroke-linejoin="round" stroke-width=".5"/><path d="M232.822,45.7711l.1146-11.571,6.8697-7.934,11.514-.8708s3.2897.6773,3.2897,5.9021-.1935,22.9313-.1935,22.9313c0,0-.1935,4.2573-3.2897,4.8378s-11.514,1.2578-11.514,1.2578l-1.6087-1.5407" fill="none" stroke="#231f20" stroke-linecap="round" stroke-linejoin="round" stroke-width=".5"/><path d="M238.1364,55.9347l3.3148-.1578s3.7735-1.1611,3.967-4.9346l.0968-24.8664" fill="none" stroke="#231f20" stroke-linecap="round" stroke-linejoin="round" stroke-width=".5"/><path d="M217.3714,61.8657c-6.1229,8.0575-14.2867,8.7379-14.2867,8.7379,0,0,.8708,1.0643-.5805,2.4189,0,0-.7202,1.198.1924,1.9802l9.3212-.8474,10.69-12.7758" fill="none" stroke="#231f20" stroke-linecap="round" stroke-linejoin="round" stroke-width=".5"/><ellipse cx="222.0907" cy="24.6112" rx="4.7305" ry="4.5564" transform="translate(103.2724 213.8524) rotate(-64.2001)" fill="none" stroke="#231f20" stroke-linecap="round" stroke-linejoin="round" stroke-width=".5"/><line x1="222.3364" y1="21.595" x2="222.3364" y2="27.4314" fill="none" stroke="#231f20" stroke-linecap="round" stroke-linejoin="round" stroke-width=".5"/><line x1="219.8351" y1="24.8374" x2="224.6524" y2="24.4668" fill="none" stroke="#231f20" stroke-linecap="round" stroke-linejoin="round" stroke-width=".5"/><ellipse cx="222.7423" cy="69.4408" rx="4.7305" ry="4.5564" transform="translate(63.2795 239.7574) rotate(-64.2001)" fill="none" stroke="#231f20" stroke-linecap="round" stroke-linejoin="round" stroke-width=".5"/><line x1="222.988" y1="66.4245" x2="222.988" y2="72.2609" fill="none" stroke="#231f20" stroke-linecap="round" stroke-linejoin="round" stroke-width=".5"/><line x1="220.4867" y1="69.667" x2="225.304" y2="69.2964" fill="none" stroke="#231f20" stroke-linecap="round" stroke-linejoin="round" stroke-width=".5"/><path d="M224.1654,42.6406v-2.8037s3.0227.2212,3.6125,3.465" fill="none" stroke="#231f20" stroke-linecap="round" stroke-linejoin="round" stroke-width=".5"/><path d="M232.9466,39.3885l4.6672,2.2367s2.6105,1.5485-.5537,2.5808l-4.0344-1.8066" fill="none" stroke="#231f20" stroke-linecap="round" stroke-linejoin="round" stroke-width=".5"/><path d="M233.0257,37.3238l7.7523,3.6992s2.6105,1.5485-.5537,2.5808l-2.9269.6022" fill="none" stroke="#231f20" stroke-linecap="round" stroke-linejoin="round" stroke-width=".5"/><path d="M238.1767,48.9266l2.8386,1.2419s2.6105,1.5485-.5537,2.5808l-1.9623-.8946" fill="none" stroke="#231f20" stroke-linecap="round" stroke-linejoin="round" stroke-width=".5"/><path d="M240.6989,52.7493l2.9269-.6022c3.1642-1.0323.5537-2.5808.5537-2.5808l-4.6672-2.2753-3.2921.2394" fill="none" stroke="#231f20" stroke-linecap="round" stroke-linejoin="round" stroke-width=".5"/><path d="M237.5726,28.9385l3.3636,1.612s2.6105,1.5485-.5537,2.5808l-4.0344-1.8066" fill="none" stroke="#231f20" stroke-linecap="round" stroke-linejoin="round" stroke-width=".5"/><path d="M238.8068,27.4223l5.2936,2.5259s2.6105,1.5485-.5537,2.5808l-2.9269.6022" fill="none" stroke="#231f20" stroke-linecap="round" stroke-linejoin="round" stroke-width=".5"/><path d="M259.4028,58.6706l12.2779,5.6906s3.5144,1.4277,4.6127-1.4277v-20.757s.659-2.3063-2.6358-3.2948l-10.6529-3.6231s-2.6358-.3295-3.0751,1.0983" fill="none" stroke="#231f20" stroke-linecap="round" stroke-linejoin="round" stroke-width=".5"/><path d="M262.1258,38.4424l7.7976,3.0751s1.7572-.1098,1.7572,2.526v18.1212" fill="none" stroke="#231f20" stroke-linecap="round" stroke-linejoin="round" stroke-width=".5"/><line x1="262.7848" y1="43.714" x2="262.7848" y2="53.7081" fill="none" stroke="#231f20" stroke-linecap="round" stroke-linejoin="round" stroke-width=".5"/><line x1="264.4321" y1="44.4828" x2="264.4321" y2="54.4769" fill="none" stroke="#231f20" stroke-linecap="round" stroke-linejoin="round" stroke-width=".5"/><line x1="266.0795" y1="45.2516" x2="266.0795" y2="55.2457" fill="none" stroke="#231f20" stroke-linecap="round" stroke-linejoin="round" stroke-width=".5"/><path d="M188.0474,54.3418c-3.307.3307-5.4987-1.1868-5.4987-1.1868l-3.307-2.9763,4.5196-.2205,3.4172,2.3149,45.5263-3.307-3.7791-2.7846,4.8825-.3024,3.4477,2.3507s1.6455,1.3321,0,2.194c0,0-45.9015,3.5872-49.2085,3.9179Z" fill="none" stroke="#231f20" stroke-linecap="round" stroke-linejoin="round" stroke-width=".5"/><path d="M178.7396,55.1471l.8922,2.1131-.047,2.8175,3.1343,2.6483s2.4291,1.4888,5.25,1.3321,47.0145-3.7612,47.0145-3.7612c0,0,2.5858-.3134,2.8992-2.5074l.2351-8.1492" fill="none" stroke="#231f20" stroke-linecap="round" stroke-linejoin="round" stroke-width=".5"/><path d="M222.2508,49.6521s-1.1729-2.2154-.1303-5.0824,3.1276-1.5638,3.1276-1.5638l.1303,1.5638,1.9319,1.4813,1.6154.1306" fill="none" stroke="#231f20" stroke-linecap="round" stroke-linejoin="round" stroke-width=".5"/><polyline points="250.6843 71.8431 250.6843 76.1292 251.6642 75.9755" fill="none" stroke="#231f20" stroke-linecap="round" stroke-linejoin="round" stroke-width=".5"/><polyline points="268.5054 62.7773 268.5054 75.9548 253.3755 77.4967" fill="none" stroke="#231f20" stroke-linecap="round" stroke-linejoin="round" stroke-width=".5"/><path d="M251.7905,71.6193l-.0256,5.06,1.48.7586c-.1113-2.2876-.1708-4.2499-.1934-5.9306" fill="none" stroke="#231f20" stroke-linecap="round" stroke-linejoin="round" stroke-width=".5"/><line x1="269.2827" y1="75.9128" x2="291.587" y2="73.7807" fill="none" stroke="#231f20" stroke-linecap="round" stroke-linejoin="round" stroke-width=".5"/><path d="M249.33,71.9248c-.0275,2.019-.0739,2.9124-.4265,5.6595l-15.7482,1.7041" fill="none" stroke="#231f20" stroke-linecap="round" stroke-linejoin="round" stroke-width=".5"/><polygon points="264.0215 94.4888 278.9036 93.0649 279.2403 81.7878 264.0215 83.2439 264.0215 94.4888" fill="none" stroke="#231f20" stroke-linecap="round" stroke-linejoin="round" stroke-width=".5"/><polyline points="264.0215 94.4888 262.1248 93.633 262.1248 82.4311 278.4691 80.8672 279.2403 81.7878" fill="none" stroke="#231f20" stroke-linecap="round" stroke-linejoin="round" stroke-width=".5"/><line x1="264.0215" y1="83.2439" x2="262.1248" y2="82.4311" fill="none" stroke="#231f20" stroke-linecap="round" stroke-linejoin="round" stroke-width=".5"/><line x1="245.6352" y1="4.2524" x2="245.6352" y2="11.7129" fill="none" stroke="#231f20" stroke-linecap="round" stroke-linejoin="round" stroke-width=".5"/><line x1="227.5494" y1="30.7852" x2="227.5494" y2="39.7938" fill="none" stroke="#231f20" stroke-linecap="round" stroke-linejoin="round" stroke-width=".5"/></g><line x1="258.2592" y1="87.9544" x2="240.7644" y2="116.6725" fill="#221f20" stroke-width="0"/><line x1="258.2592" y1="87.9544" x2="240.7644" y2="116.6725" fill="none" stroke="#fff" stroke-linecap="round" stroke-linejoin="round" stroke-width="4"/><line x1="258.2592" y1="87.9544" x2="240.7644" y2="116.6725" fill="none" stroke="#231f20" stroke-linecap="round" stroke-linejoin="round"/><circle cx="258.4083" cy="44.838" r="40.6515" fill="none" stroke="#fff" stroke-miterlimit="10" stroke-width="4"/><circle cx="258.4083" cy="44.838" r="40.6515" fill="none" stroke="#231f20" stroke-miterlimit="10"/><polygon points="289.4953 59.2259 279.5265 48.7841 289.9655 36.7849 289.8038 42.308 305.1538 41.2271 304.7837 52.7118 289.6746 53.9956 289.4953 59.2259" fill="#221f20" stroke-width="0"/><polygon points="289.9655 36.7849 279.5265 48.7841 289.4953 59.2259 289.6746 53.9956 304.7837 52.7118 305.1538 41.2271 289.8038 42.308 289.9655 36.7849" fill="none" stroke="#fff" stroke-linecap="round" stroke-linejoin="round" stroke-width="4"/><polygon points="289.4953 59.2259 279.5265 48.7841 289.9655 36.7849 289.8038 42.308 305.1538 41.2271 304.7837 52.7118 289.6746 53.9956 289.4953 59.2259" fill="#221f20" stroke-width="0"/><path d="M296.5648,19.3001c0,7.593-6.2455,13.7452-13.9499,13.7452s-13.9526-6.1522-13.9526-13.7452,6.2455-13.7547,13.9526-13.7547,13.9499,6.159,13.9499,13.7547" fill="#211f1f" stroke="#fff" stroke-miterlimit="10" stroke-width="1.5"/><path d="M284.2101,26.3413h-1.8457v-11.7612c-.4443.4238-1.0273.8477-1.749,1.2715-.7207.4238-1.3682.7417-1.9424.9536v-1.7842c1.0322-.4854,1.9346-1.0732,2.707-1.7637s1.3193-1.3604,1.6406-2.0098h1.1895v15.0938Z" fill="#fff" stroke-width="0"/><polygon points="320.2921 113.2908 315.2743 113.8737 315.9319 100.3341 320.9916 99.9405 320.2921 113.2908" fill="none" stroke="#231f20" stroke-linecap="round" stroke-linejoin="round" stroke-width=".5348"/><polyline points="315.2778 113.8102 314.3446 113.2827 315.0022 99.7431 320.062 99.3496 320.9974 99.9172" fill="none" stroke="#231f20" stroke-linecap="round" stroke-linejoin="round" stroke-width=".5348"/><line x1="315.9319" y1="100.3341" x2="315.0022" y2="99.7431" fill="none" stroke="#231f20" stroke-linecap="round" stroke-linejoin="round" stroke-width=".5348"/><ellipse cx="313.0167" cy="108.3296" rx=".7784" ry=".6785" transform="translate(175.5917 409.7084) rotate(-84.5774)" fill="#231f20" stroke-width="0"/><ellipse cx="313.1455" cy="105.6514" rx=".7784" ry=".6785" transform="translate(178.3745 407.4115) rotate(-84.5774)" fill="#231f20" stroke-width="0"/><ellipse cx="312.246" cy="129.6224" rx=".7784" ry=".6785" transform="translate(153.6964 428.2217) rotate(-84.5774)" fill="#231f20" stroke-width="0"/><ellipse cx="312.3748" cy="126.9442" rx=".7784" ry=".6785" transform="translate(156.4792 425.9249) rotate(-84.5774)" fill="#231f20" stroke-width="0"/><polyline points="314.6361 135.2214 315.0991 122.3755 320.1085 121.8117 319.7392 134.5407 314.5655 135.2357" fill="none" stroke="#231f20" stroke-linecap="round" stroke-linejoin="round" stroke-width=".5348"/><polyline points="320.1143 121.7883 319.1788 121.2207 314.1695 121.7845 313.7081 134.8505 314.5655 135.2357" fill="none" stroke="#231f20" stroke-linecap="round" stroke-linejoin="round" stroke-width=".5348"/><line x1="315.0991" y1="122.3755" x2="314.1695" y2="121.7845" fill="none" stroke="#231f20" stroke-linecap="round" stroke-linejoin="round" stroke-width=".5348"/><polyline points="301.2398 107.1482 300.4068 106.6435 300.7009 97.5027 305.5344 97.2047 306.4318 97.7566 301.6076 98.1033 301.2699 107.1604 305.9814 106.6007 306.426 97.7774" fill="none" stroke="#231f20" stroke-linecap="round" stroke-linejoin="round" stroke-width=".4878"/><polygon points="305.6076 117.0778 300.8961 117.6375 301.3305 108.5742 306.0551 108.0765 305.6076 117.0778" fill="none" stroke="#231f20" stroke-linecap="round" stroke-linejoin="round" stroke-width=".4878"/><polyline points="300.9003 117.5811 300.033 117.1206 300.4674 108.0574 305.192 107.5596 306.0608 108.0557" fill="none" stroke="#231f20" stroke-linecap="round" stroke-linejoin="round" stroke-width=".4878"/><line x1="301.3305" y1="108.5742" x2="300.4674" y2="108.0574" fill="none" stroke="#231f20" stroke-linecap="round" stroke-linejoin="round" stroke-width=".4878"/><polygon points="305.2642 127.5915 300.5527 128.1512 300.987 119.088 305.7116 118.5902 305.2642 127.5915" fill="none" stroke="#231f20" stroke-linecap="round" stroke-linejoin="round" stroke-width=".4878"/><polyline points="300.5569 128.0948 299.6896 127.6343 300.1239 118.5711 304.8485 118.0733 305.7173 118.5694" fill="none" stroke="#231f20" stroke-linecap="round" stroke-linejoin="round" stroke-width=".4878"/><line x1="300.987" y1="119.088" x2="300.1239" y2="118.5711" fill="none" stroke="#231f20" stroke-linecap="round" stroke-linejoin="round" stroke-width=".4878"/><polygon points="304.8329 138.0673 300.1215 138.627 300.5558 129.5638 305.2804 129.066 304.8329 138.0673" fill="none" stroke="#231f20" stroke-linecap="round" stroke-linejoin="round" stroke-width=".4878"/><polyline points="300.1256 138.5706 299.2584 138.1101 299.6927 129.0469 304.4173 128.5491 305.2861 129.0452" fill="none" stroke="#231f20" stroke-linecap="round" stroke-linejoin="round" stroke-width=".4878"/><line x1="300.5558" y1="129.5638" x2="299.6927" y2="129.0469" fill="none" stroke="#231f20" stroke-linecap="round" stroke-linejoin="round" stroke-width=".4878"/><ellipse cx="298.5972" cy="114.4117" rx=".7962" ry=".7352" transform="translate(169.1635 406.8108) rotate(-87.0879)" fill="#231f20" stroke-width="0"/><ellipse cx="298.7366" cy="111.6718" rx=".7962" ry=".7352" transform="translate(172.0322 404.3493) rotate(-87.0879)" fill="#231f20" stroke-width="0"/><ellipse cx="298.5972" cy="103.5808" rx=".7962" ry=".7352" transform="translate(179.9804 396.5302) rotate(-87.0879)" fill="#231f20" stroke-width="0"/><ellipse cx="298.7366" cy="100.8409" rx=".7962" ry=".7352" transform="translate(182.8491 394.0687) rotate(-87.0879)" fill="#231f20" stroke-width="0"/><ellipse cx="298.2202" cy="124.9687" rx=".7962" ry=".7352" transform="translate(158.2622 416.455) rotate(-87.0879)" fill="#231f20" stroke-width="0"/><ellipse cx="298.3596" cy="122.2289" rx=".7962" ry=".7352" transform="translate(161.1308 413.9935) rotate(-87.0879)" fill="#231f20" stroke-width="0"/><ellipse cx="297.8432" cy="135.375" rx=".7962" ry=".7352" transform="translate(147.5115 425.956) rotate(-87.0879)" fill="#231f20" stroke-width="0"/><ellipse cx="297.9825" cy="132.6351" rx=".7962" ry=".7352" transform="translate(150.3801 423.4946) rotate(-87.0879)" fill="#231f20" stroke-width="0"/><line x1="301.6128" y1="98.0961" x2="300.7009" y2="97.5027" fill="none" stroke="#231f20" stroke-linecap="round" stroke-linejoin="round" stroke-width=".4878"/></g></svg>