<?xml version="1.0" encoding="UTF-8"?><svg xmlns="http://www.w3.org/2000/svg" width="3.5in" height="3.75in" xmlns:xlink="http://www.w3.org/1999/xlink" viewBox="0 0 252 270"><defs><clipPath id="b"><polygon points="12.838 25.703 12.838 221.486 220.961 295.522 238.236 191.872 238.236 27.348 12.838 25.703" clip-rule="evenodd" fill="none"/></clipPath><clipPath id="c"><polygon points="80.707 90.515 83.137 197.817 132.953 192.577 129.43 87.599 80.707 90.515" fill="none"/></clipPath><clipPath id="d"><polygon points="103.88 103.175 106.523 221.151 160.688 214.149 156.857 100.004 103.88 103.175" fill="none"/></clipPath><clipPath id="f"><circle cx="190.4" cy="58.138" r="40.25" fill="none"/></clipPath></defs><g id="a"><g clip-path="url(#b)"><polyline points="247.349 180.828 342.279 170.589 478.303 155.279" fill="none" stroke="#231f20" stroke-linecap="round" stroke-linejoin="round" stroke-width=".5"/><line x1="233.09" y1="182.366" x2="243.283" y2="181.27" fill="none" stroke="#231f20" stroke-linecap="round" stroke-linejoin="round" stroke-width=".5"/><path d="M491.605,69.689l1.243.057.273-8.963L-64.277,90.502s-1.962.082-1.799,2.29.409,9.7.409,9.7l-39.159-69.031-.181-6.137,318.618-8.654,279.405,41.992" fill="none" stroke="#231f20" stroke-linecap="round" stroke-linejoin="round" stroke-width=".5"/><polyline points="-103.336 26.986 -108.498 19.558 178.166 13.6 210.616 18.631" fill="none" stroke="#231f20" stroke-linecap="round" stroke-linejoin="round" stroke-width=".5"/><polyline points="491.053 74.513 491.753 62.826 -43.069 92.783 -62.102 93.849 -55.106 219.819" fill="none" stroke="#231f20" stroke-linecap="round" stroke-linejoin="round" stroke-width=".5"/><polyline points="197.888 191.617 351.828 174.567 485.962 159.541 490.562 82.707" fill="none" stroke="#231f20" stroke-linecap="round" stroke-linejoin="round" stroke-width=".5"/><polyline points="184.96 193.261 -56.126 220.269 -105.14 75.474 -108.498 24.686" fill="none" stroke="#231f20" stroke-linecap="round" stroke-linejoin="round" stroke-width=".5"/><line x1="197.801" y1="188.256" x2="486.065" y2="157.159" fill="none" stroke="#231f20" stroke-linecap="round" stroke-linejoin="round" stroke-width=".5"/><line x1="243.502" y1="183.258" x2="243.502" y2="157.623" fill="none" stroke="#231f20" stroke-linecap="round" stroke-linejoin="round" stroke-width=".5"/><line x1="246.998" y1="182.94" x2="246.998" y2="157.305" fill="none" stroke="#231f20" stroke-linecap="round" stroke-linejoin="round" stroke-width=".5"/><polyline points="241.145 157.82 240.968 177.994 146.342 187.922" fill="none" stroke="#231f20" stroke-linecap="round" stroke-linejoin="round" stroke-width=".5"/><polyline points="146.044 161.291 146.203 166.268 146.342 187.922 146.375 193.142" fill="none" stroke="#231f20" stroke-linecap="round" stroke-linejoin="round" stroke-width=".5"/><path d="M184.398,184.178l11.805,3.097s1.244.571-.026,1.276l-8.496,1.008c-.128.009-.257-.004-.381-.037l-14.048-3.934" fill="none" stroke="#231f20" stroke-linecap="round" stroke-linejoin="round" stroke-width=".5"/><path d="M174.607,189.072l12.689,3.703c.128.036.261.049.393.04l8.489-1.008.679-.511.027-3.06" fill="none" stroke="#231f20" stroke-linecap="round" stroke-linejoin="round" stroke-width=".5"/><path d="M173.936,187.516l-.026,3.671-.697,1.122-3.909.039v-1.432l-3.103-.92v-3.775l3.103.92v1.432l3.909-.039.697-1.122-4.761-1.51" fill="none" stroke="#231f20" stroke-linecap="round" stroke-linejoin="round" stroke-width=".5"/><line x1="187.272" y1="189.517" x2="187.272" y2="192.829" fill="none" stroke="#231f20" stroke-linecap="round" stroke-linejoin="round" stroke-width=".5"/><line x1="172.386" y1="188.883" x2="172.386" y2="192.194" fill="none" stroke="#231f20" stroke-linecap="round" stroke-linejoin="round" stroke-width=".5"/><line x1="169.475" y1="188.635" x2="169.475" y2="191.947" fill="none" stroke="#231f20" stroke-linecap="round" stroke-linejoin="round" stroke-width=".5"/><path d="M243.008,181.304l-4.275-2.986s-4.907,3.926-8.956,4.785l-34.843,3.558" fill="none" stroke="#231f20" stroke-linecap="round" stroke-linejoin="round" stroke-width=".5"/><path d="M135.188,190.667s4.09-.904,4.208-7.391" fill="none" stroke="#231f20" stroke-linecap="round" stroke-linejoin="round" stroke-width=".5"/><line x1="138.234" y1="108.357" x2="139.646" y2="193.823" fill="none" stroke="#231f20" stroke-linecap="round" stroke-linejoin="round" stroke-width=".5"/><path d="M132.003,105.387h-1.415l.944,2.123,1.062,67.469,4.01,3.421s.826,8.611-1.297,10.616" fill="none" stroke="#231f20" stroke-linecap="round" stroke-linejoin="round" stroke-width=".5"/><path d="M131.706,102.173l-.877-.702v-3.421l-1.579-3.421v-4.298h1.579c0,.263-.088-3.596-.088-3.596l.357.173,2.537,1.23v13.332l1.573-2.995h5.597v3.562l-1.526,3.707v1.853h-5.851v-1.708l1.999-3.925-.109-3.489" fill="none" stroke="#231f20" stroke-linecap="round" stroke-linejoin="round" stroke-width=".5"/><polyline points="132.408 107.085 132.408 98.226 131.706 97.612" fill="none" stroke="#231f20" stroke-linecap="round" stroke-linejoin="round" stroke-width=".5"/><polyline points="131.098 86.472 135.302 86.472 138.46 87.864 138.46 97.962" fill="none" stroke="#231f20" stroke-linecap="round" stroke-linejoin="round" stroke-width=".5"/><line x1="133.636" y1="88.138" x2="138.46" y2="88.138" fill="none" stroke="#231f20" stroke-linecap="round" stroke-linejoin="round" stroke-width=".5"/><line x1="135.427" y1="101.965" x2="140.806" y2="101.965" fill="none" stroke="#231f20" stroke-linecap="round" stroke-linejoin="round" stroke-width=".5"/><line x1="133.428" y1="105.89" x2="139.279" y2="105.89" fill="none" stroke="#231f20" stroke-linecap="round" stroke-linejoin="round" stroke-width=".5"/><line x1="70.316" y1="112.739" x2="71.727" y2="201.43" fill="none" stroke="#231f20" stroke-linecap="round" stroke-linejoin="round" stroke-width=".5"/><path d="M64.085,109.769h-1.415l.944,2.123,1.783,69.802,4.01,3.421s1.032,8.686-1.091,10.691" fill="none" stroke="#231f20" stroke-linecap="round" stroke-linejoin="round" stroke-width=".5"/><path d="M63.787,106.555l-.877-.702v-3.421l-1.579-3.421v-4.298h1.579c0,.263-.088-3.596-.088-3.596l.357.173,2.537,1.23v13.332l1.573-2.995h5.597v3.562l-1.526,3.707v1.853h-5.851v-1.708l1.999-3.925-.109-3.489" fill="none" stroke="#231f20" stroke-linecap="round" stroke-linejoin="round" stroke-width=".5"/><polyline points="64.489 111.467 64.489 102.607 63.787 101.993" fill="none" stroke="#231f20" stroke-linecap="round" stroke-linejoin="round" stroke-width=".5"/><polyline points="63.18 90.854 67.384 90.854 70.541 92.246 70.541 102.344" fill="none" stroke="#231f20" stroke-linecap="round" stroke-linejoin="round" stroke-width=".5"/><line x1="65.717" y1="92.52" x2="70.541" y2="92.52" fill="none" stroke="#231f20" stroke-linecap="round" stroke-linejoin="round" stroke-width=".5"/><line x1="67.509" y1="106.347" x2="72.887" y2="106.347" fill="none" stroke="#231f20" stroke-linecap="round" stroke-linejoin="round" stroke-width=".5"/><line x1="65.51" y1="110.272" x2="71.361" y2="110.272" fill="none" stroke="#231f20" stroke-linecap="round" stroke-linejoin="round" stroke-width=".5"/><line x1="34.179" y1="115.659" x2="37.101" y2="205.333" fill="none" stroke="#231f20" stroke-linecap="round" stroke-linejoin="round" stroke-width=".5"/><path d="M28.035,112.797l-1.383.04.961,2.144,2.255,68.961,3.982,3.385s1.683,9.46-.356,11.57" fill="none" stroke="#231f20" stroke-linecap="round" stroke-linejoin="round" stroke-width=".5"/><path d="M27.686,109.519l-.87-.693-.062-3.498-1.605-3.453-.078-4.395,1.543-.045c.005.269-.151-3.675-.151-3.675l.352.167,2.502,1.186.241,13.633,1.484-3.107,5.471-.158.064,3.642-1.425,3.834.033,1.895-5.719.165-.031-1.747,1.883-4.07-.17-3.565" fill="none" stroke="#231f20" stroke-linecap="round" stroke-linejoin="round" stroke-width=".5"/><polyline points="28.461 114.522 28.301 105.463 27.604 104.855" fill="none" stroke="#231f20" stroke-linecap="round" stroke-linejoin="round" stroke-width=".5"/><polyline points="26.809 93.481 30.918 93.362 34.03 94.697 34.212 105.023" fill="none" stroke="#231f20" stroke-linecap="round" stroke-linejoin="round" stroke-width=".5"/><line x1="29.319" y1="95.113" x2="34.035" y2="94.977" fill="none" stroke="#231f20" stroke-linecap="round" stroke-linejoin="round" stroke-width=".5"/><line x1="31.32" y1="109.202" x2="36.577" y2="109.05" fill="none" stroke="#231f20" stroke-linecap="round" stroke-linejoin="round" stroke-width=".5"/><line x1="29.437" y1="113.272" x2="35.156" y2="113.107" fill="none" stroke="#231f20" stroke-linecap="round" stroke-linejoin="round" stroke-width=".5"/><polyline points="-2.909 117.245 .72 205.943 3.177 208.748" fill="none" stroke="#231f20" stroke-linecap="round" stroke-linejoin="round" stroke-width=".5"/><line x1="68.171" y1="184.97" x2="68.462" y2="202.134" fill="none" stroke="#231f20" stroke-linecap="round" stroke-linejoin="round" stroke-width=".5"/><line x1="32.97" y1="186.933" x2="33.26" y2="205.843" fill="none" stroke="#231f20" stroke-linecap="round" stroke-linejoin="round" stroke-width=".5"/><polyline points="61.423 87.178 64.599 90.036 30.457 91.735 27.398 88.812" fill="none" stroke="#231f20" stroke-linecap="round" stroke-linejoin="round" stroke-width=".5"/><polyline points="129.354 83.373 132.449 85.745 66.73 89.387 63.752 86.95" fill="none" stroke="#231f20" stroke-linecap="round" stroke-linejoin="round" stroke-width=".5"/><polyline points="-8.272 91.141 -5.788 93.729 28.385 91.985 25.602 89.144" fill="none" stroke="#231f20" stroke-linecap="round" stroke-linejoin="round" stroke-width=".5"/><line x1="134.92" y1="177.215" x2="134.92" y2="194.66" fill="none" stroke="#231f20" stroke-linecap="round" stroke-linejoin="round" stroke-width=".5"/><polygon points="22.211 149.039 8.83 150.602 8.33 129.982 21.787 128.55 22.211 149.039" fill="none" stroke="#231f20" stroke-linecap="round" stroke-linejoin="round" stroke-width=".5"/><polyline points="8.831 150.6 6.781 149.433 6.282 128.813 19.217 127.429 21.8 128.502" fill="none" stroke="#231f20" stroke-linecap="round" stroke-linejoin="round" stroke-width=".5"/><line x1="8.225" y1="129.876" x2="6.415" y2="128.825" fill="none" stroke="#231f20" stroke-linecap="round" stroke-linejoin="round" stroke-width=".5"/><polygon points="23.387 195.658 10.342 197.191 9.837 176.802 22.956 175.396 23.387 195.658" fill="none" stroke="#231f20" stroke-linecap="round" stroke-linejoin="round" stroke-width=".5"/><polyline points="10.309 197.168 8.344 196.033 7.839 175.644 20.449 174.285 22.968 175.349" fill="none" stroke="#231f20" stroke-linecap="round" stroke-linejoin="round" stroke-width=".5"/><line x1="9.837" y1="176.802" x2="7.839" y2="175.644" fill="none" stroke="#231f20" stroke-linecap="round" stroke-linejoin="round" stroke-width=".5"/><polygon points="22.682 172.344 9.637 173.877 9.132 153.488 21.922 152.165 22.682 172.344" fill="none" stroke="#231f20" stroke-linecap="round" stroke-linejoin="round" stroke-width=".5"/><polyline points="9.631 173.87 7.639 172.719 7.134 152.33 19.415 151.054 21.935 152.118" fill="none" stroke="#231f20" stroke-linecap="round" stroke-linejoin="round" stroke-width=".5"/><line x1="9.132" y1="153.488" x2="7.134" y2="152.33" fill="none" stroke="#231f20" stroke-linecap="round" stroke-linejoin="round" stroke-width=".5"/><polygon points="21.544 125.44 8.163 127.003 7.663 106.383 21.12 105.364 21.544 125.44" fill="none" stroke="#231f20" stroke-linecap="round" stroke-linejoin="round" stroke-width=".5"/><polyline points="8.164 127.026 6.114 125.834 5.615 105.214 18.55 104.243 21.133 105.317" fill="none" stroke="#231f20" stroke-linecap="round" stroke-linejoin="round" stroke-width=".5"/><line x1="7.558" y1="106.277" x2="5.51" y2="105.108" fill="none" stroke="#231f20" stroke-linecap="round" stroke-linejoin="round" stroke-width=".5"/><ellipse cx="75.777" cy="110.2" rx="1.553" ry="1.682" fill="#231f20"/><ellipse cx="2.904" cy="143.243" rx="1.553" ry="1.682" fill="#231f20"/><ellipse cx="2.904" cy="137.449" rx="1.553" ry="1.682" fill="#231f20"/><ellipse cx="2.184" cy="120.442" rx="1.553" ry="1.682" fill="#231f20"/><ellipse cx="2.184" cy="114.648" rx="1.553" ry="1.682" fill="#231f20"/><ellipse cx="3.624" cy="166.726" rx="1.553" ry="1.682" fill="#231f20"/><ellipse cx="3.624" cy="160.932" rx="1.553" ry="1.682" fill="#231f20"/><ellipse cx="4.344" cy="189.047" rx="1.553" ry="1.682" fill="#231f20"/><ellipse cx="4.344" cy="183.253" rx="1.553" ry="1.682" fill="#231f20"/><polygon points="58.981 145.905 45.745 147.451 45.251 127.055 58.562 125.638 58.981 145.905" fill="none" stroke="#231f20" stroke-linecap="round" stroke-linejoin="round" stroke-width=".495"/><polyline points="45.746 147.449 43.719 146.295 43.225 125.898 56.019 124.53 58.574 125.591" fill="none" stroke="#231f20" stroke-linecap="round" stroke-linejoin="round" stroke-width=".495"/><line x1="45.147" y1="126.95" x2="43.356" y2="125.911" fill="none" stroke="#231f20" stroke-linecap="round" stroke-linejoin="round" stroke-width=".495"/><polygon points="60.144 192.018 47.241 193.534 46.741 173.367 59.717 171.976 60.144 192.018" fill="none" stroke="#231f20" stroke-linecap="round" stroke-linejoin="round" stroke-width=".495"/><polyline points="47.207 193.511 45.264 192.389 44.764 172.222 57.238 170.877 59.729 171.93" fill="none" stroke="#231f20" stroke-linecap="round" stroke-linejoin="round" stroke-width=".495"/><line x1="46.741" y1="173.367" x2="44.764" y2="172.222" fill="none" stroke="#231f20" stroke-linecap="round" stroke-linejoin="round" stroke-width=".495"/><polygon points="59.447 168.957 46.544 170.474 46.044 150.306 58.695 148.997 59.447 168.957" fill="none" stroke="#231f20" stroke-linecap="round" stroke-linejoin="round" stroke-width=".495"/><polyline points="46.538 170.467 44.567 169.328 44.067 149.161 56.215 147.898 58.707 148.951" fill="none" stroke="#231f20" stroke-linecap="round" stroke-linejoin="round" stroke-width=".495"/><line x1="46.044" y1="150.306" x2="44.067" y2="149.161" fill="none" stroke="#231f20" stroke-linecap="round" stroke-linejoin="round" stroke-width=".495"/><polygon points="58.321 122.562 45.085 124.108 44.591 103.712 57.902 102.705 58.321 122.562" fill="none" stroke="#231f20" stroke-linecap="round" stroke-linejoin="round" stroke-width=".495"/><polyline points="45.086 124.131 43.059 122.951 42.565 102.555 55.359 101.596 57.914 102.657" fill="none" stroke="#231f20" stroke-linecap="round" stroke-linejoin="round" stroke-width=".495"/><line x1="44.487" y1="103.607" x2="42.461" y2="102.45" fill="none" stroke="#231f20" stroke-linecap="round" stroke-linejoin="round" stroke-width=".495"/><ellipse cx="39.884" cy="140.171" rx="1.536" ry="1.663" fill="#231f20"/><ellipse cx="39.884" cy="134.44" rx="1.536" ry="1.663" fill="#231f20"/><ellipse cx="39.172" cy="117.618" rx="1.536" ry="1.663" fill="#231f20"/><ellipse cx="39.172" cy="111.887" rx="1.536" ry="1.663" fill="#231f20"/><ellipse cx="40.596" cy="163.4" rx="1.536" ry="1.663" fill="#231f20"/><ellipse cx="40.596" cy="157.669" rx="1.536" ry="1.663" fill="#231f20"/><ellipse cx="41.308" cy="185.478" rx="1.536" ry="1.663" fill="#231f20"/><ellipse cx="41.308" cy="179.747" rx="1.536" ry="1.663" fill="#231f20"/><polygon points="134.987 89.959 136.981 89.898 136.067 91.947 134.987 89.959" fill="#231f20"/><polygon points="67.21 94.875 69.204 94.815 68.29 96.863 67.21 94.875" fill="#231f20"/><polygon points="30.879 97.085 32.873 97.024 31.959 99.072 30.879 97.085" fill="#231f20"/><polyline points="168.823 191.371 -43.605 214.359 -47.872 148.429 -58.54 149.069" fill="none" stroke="#231f20" stroke-linecap="round" stroke-linejoin="round" stroke-width=".5"/><g clip-path="url(#c)"><path d="M130.76,152.449c-12.434-11.462-26.02-24.45-38.275-36.249-4.205-4.078-8.511-8.049-12.763-12.078-.052-.049-.054-.131-.007-.184l14.301-16.01c.089-.099.241-.108.34-.019,12.07,11.449,25.253,23.928,37.055,35.527-9.088-8.319-19.059-17.806-28.095-26.325,0,0-9.286-8.846-9.286-8.846,0,0,.346-.013.346-.013,0,0-14.465,15.862-14.465,15.862l-.007-.183c4.242,4.039,8.43,8.134,12.719,12.124,12.366,11.638,26.268,24.589,38.137,36.394h0Z" fill="#231f20"/><path d="M130.553,162.218c-12.435-11.461-26.02-24.452-38.276-36.248-4.206-4.077-8.508-8.052-12.762-12.08,7.799-8.964,16.439-17.737,24.583-26.573.098-.104.263-.109.367-.011,8.91,8.544,18.132,17.212,26.774,25.821-4.556-4.205-9.074-8.449-13.595-12.691-4.527-4.235-9.044-8.48-13.535-12.753,0,0,.367-.011.367-.011-8.138,8.502-16.808,18.198-24.781,26.029,4.241,4.04,8.432,8.132,12.72,12.122,12.368,11.635,26.265,24.593,38.137,36.394h0Z" fill="#231f20"/><path d="M130.658,171.678c-12.975-11.547-25.546-23.533-38.291-35.329,0,0-12.822-11.713-12.822-11.713-.085-.077-.089-.21-.009-.293,5.781-6.166,11.592-12.303,17.428-18.417,5.193-5.252,12.526-13.226,17.662-18.194-4.952,5.354-12.22,13.143-17.297,18.541-5.805,6.143-11.635,12.263-17.495,18.353,0,0-.009-.292-.009-.292l12.673,11.874c12.677,11.792,25.889,23.46,38.161,35.469h0Z" fill="#231f20"/><path d="M131.347,182.534c-12.324-11.033-26.147-23.956-38.283-35.337,0,0-12.793-11.744-12.793-11.744,6.787-8.227,14.561-16.239,21.746-24.327,6.474-6.91,15.619-17.262,22.042-23.854-14.132,15.962-29.131,32.517-43.573,48.172,0,0-.009-.213-.009-.213,0,0,12.702,11.843,12.702,11.843,12.246,11.219,26.425,24.055,38.168,35.461h0Z" fill="#231f20"/><path d="M132.189,193.39c-12.626-11.365-26.447-24.251-38.908-35.946-4.198-4.121-8.957-8.025-12.962-12.165,8.005-9.013,28.468-32.038,36.313-40.653,0,0,12.216-13.451,12.216-13.451l.006.141c-.008-.016-4.828-4.646-4.78-4.679.045-.055,4.884,4.533,4.919,4.532.267.047-12.073,13.7-12.036,13.748-7.622,8.635-28.464,31.687-36.461,40.52,0,0-.008-.166-.008-.166,4.298,4.021,8.592,8.046,12.945,12.008,12.57,11.53,26.672,24.415,38.756,36.11h0Z" fill="#231f20"/><path d="M125.23,196.479c-14.731-13.279-30.339-27.756-44.663-41.351,15.709-17.783,32.29-36.572,48.377-53.899-15.617,17.76-32.466,37.022-48.221,53.892,14.481,13.541,30.429,27.649,44.506,41.359h0Z" fill="#231f20"/><path d="M130.9,108.982c-15.68,18.552-33.483,38.345-49.394,56.816,8.008,6.726,25.516,23.444,33.776,30.943,0,0-.328.019-.328.019,5.668-6.519,11.299-13.07,17.012-19.551-5.286,6.58-11.166,13.253-16.666,19.848-.083.099-.234.108-.328.019-8.431-7.757-25.331-23.423-33.677-31.266-.058-.054-.062-.145-.011-.205,0,0,12.416-14.145,12.416-14.145,11.911-13.745,25.097-29.232,37.2-42.478h0Z" fill="#231f20"/><path d="M108.894,193.597c3.302-4.329,7.307-8.023,10.796-12.185,3.499-4.151,7.11-8.202,10.962-12.035.02-.022.058.01.037.033-3.4,4.24-7.042,8.263-10.795,12.185-3.766,3.843-7.074,8.499-10.999,12.002h0Z" fill="#231f20"/><path d="M130.976,119.26c-11.814,13.75-25.788,28.518-37.691,42.191-4.166,4.707-8.347,9.402-12.564,14.064,0,0-.017-.359-.017-.359,5.82,5.415,11.607,10.865,17.348,16.365.024.02-.012.059-.034.037-2.973-2.64-5.916-5.311-8.855-7.986-2.94-2.675-5.894-5.334-8.807-8.039-.103-.095-.109-.256-.017-.36,4.188-4.688,8.411-9.344,12.65-13.986,12.335-13.218,25.593-28.963,37.986-41.926h0Z" fill="#231f20"/><path d="M96.666,199.841c-5.401-4.809-10.747-9.678-16.048-14.597-.083-.076-.087-.208-.013-.292l12.688-13.877c12.091-13.567,25.493-28.836,37.874-41.801-11.857,13.668-25.427,28.518-37.746,41.917,0,0-12.507,14.04-12.507,14.04,0,0-.013-.292-.013-.292,5.242,4.905,10.798,9.921,15.765,14.902h0Z" fill="#231f20"/><path d="M86.696,200.443c-2.048-1.804-4.085-3.619-6.106-5.452-.068-.062-.072-.169-.011-.238,4.128-4.707,8.296-9.378,12.562-13.96,8.461-9.229,16.539-18.803,24.964-28.065,4.216-4.561,8.481-9.48,12.737-13.804-4.07,4.758-8.219,9.447-12.359,14.143-8.281,9.391-16.91,18.471-25.155,27.894-4.087,4.744-8.272,9.399-12.497,14.019l-.011-.238c1.908,1.878,4.166,3.827,5.875,5.701h0Z" fill="#231f20"/><path d="M130.961,142.978c-8.851-7.813-17.14-16.218-25.773-24.261-4.3-3.989-15.297-14.207-19.384-18.138,0,0-6.36-6.153-6.36-6.153-.063-.058-.063-.158-.002-.217,1.732-1.63,3.463-3.346,5.234-4.894-1.595,1.733-3.351,3.417-5.024,5.11,0,0-.002-.217-.002-.217l6.498,6.007c4.104,3.817,15.014,14.319,19.189,18.345,8.44,8.171,17.575,16.049,25.623,24.419h0Z" fill="#231f20"/><path d="M84.374,88.757c6.047,5.356,11.841,10.978,17.603,16.633,9.806,9.213,19.761,18.27,29.225,27.841.022.021-.012.058-.034.036-10.046-8.958-19.604-18.434-29.309-27.752-5.874-5.463-12.067-11.029-17.483-16.759h0Z" fill="#231f20"/><path d="M130.777,149.753c-5.455,6.382-11.18,12.515-16.94,18.617-9.383,10.369-18.607,20.884-28.354,30.917-.02.023-.058-.011-.037-.034,9.123-10.604,18.773-20.73,28.263-31,5.565-6.21,11.227-12.742,17.067-18.5h0Z" fill="#231f20"/><path d="M101.257,191.009c4.588-5.596,9.869-10.547,14.641-15.973,4.782-5.415,9.675-10.729,14.805-15.821.02-.022.058.011.037.034-4.685,5.505-9.608,10.79-14.641,15.973-5.045,5.102-9.644,11.028-14.842,15.787h0Z" fill="#231f20"/><path d="M94.66,198.133c.209-.638.67-1.023,1.192-1.369.641-.797,1.079-1.738,2.095-2.18.02-.011.046.012.037.034-.363,1.047-1.268,1.556-2.013,2.256-.305.546-.653,1.035-1.274,1.293-.021.01-.046-.012-.037-.034h0Z" fill="#231f20"/><path d="M123.599,196.421c.919-1.404,2.094-2.563,3.325-3.677,1.834-2.052,3.462-4.384,5.687-6.023-1.489,2.347-3.656,4.145-5.569,6.133-1.011,1.247-2.148,2.77-3.444,3.567h0Z" fill="#231f20"/></g><path d="M52.035,202.051l-1.553.128c-.291.024-.53-.197-.53-.49v-1.57c0-.294.238-.554.529-.578l1.553-.128c.291-.024.53.197.53.49v1.57c0,.294-.238.554-.529.578Z" fill="#231f20"/><path d="M17.791,205.668l-1.553.128c-.291.024-.53-.197-.53-.49v-1.57c0-.294.238-.554.529-.578l1.553-.128c.291-.024.53.197.53.49v1.57c0,.294-.238.554-.529.578Z" fill="#231f20"/><path d="M238.707,169.196l-1.553.128c-.291.024-.53-.197-.53-.49v-1.57c0-.294.238-.554.529-.578l1.553-.128c.291-.024.53.197.53.49v1.57c0,.294-.238.554-.529.578Z" fill="#231f20"/><path d="M73.653,107.155l.202,6.051,6.485-.346-.378-11.433-6.485.346.015.456s.421.016.421.456l.016,3.834-.276.636Z" fill="#231f20"/><ellipse cx="77.03" cy="110.444" rx="1.49" ry="1.456" transform="translate(-56.575 127.209) rotate(-62.258)" fill="#fff"/><path d="M78.824,103.711l-.011-.332-.433.023c-.061-.127-.168-.225-.297-.279l-.015-.447-.328.017.013.387-.47.025-.013-.387-.328.017.013.387-.464.025-.013-.387-.328.017.013.387-.459.024-.013-.387-.328.017.014.435c-.134.066-.239.182-.294.323l-.433.023.011.332.382-.02.016.47-.382.02.011.332.382-.02.016.47-.382.02.011.332.382-.02.016.47-.382.02.011.332.437-.023c.063.126.169.225.298.277l.015.443.328-.017-.013-.387.47-.025.013.387.328-.017-.013-.387.464-.025.013.387.328-.017-.013-.387.459-.024.013.387.328-.017-.015-.439c.129-.066.23-.177.285-.312l.437-.023-.011-.332-.382.02-.016-.47.382-.02-.011-.332-.382.02-.016-.47.382-.02-.011-.332-.382.02-.016-.47.382-.02ZM76.717,105.584l-.265.014-.691-1.029.035,1.064-.238.013-.048-1.448.264-.014.688,1.032-.031-1.067.238-.013.048,1.448ZM77.607,105.537l-.279.015-.524-1.422.26-.014.396,1.127.333-1.165.254-.014-.441,1.474Z" fill="#fff" stroke="#231f20" stroke-miterlimit="10" stroke-width=".02"/><polygon points="107.754 195.878 99.402 196.905 99.382 192.554 107.734 191.735 107.754 195.878" fill="#231f20"/><path d="M101.68,195.804c-.074.007-.134-.01-.18-.052-.046-.042-.069-.1-.069-.175,0-.072.022-.134.068-.188.046-.053.105-.083.179-.091s.133.011.178.056c.045.045.068.103.068.175,0,.074-.022.137-.066.188-.044.051-.104.08-.177.087ZM101.615,194.909c0-.04-.006-.106-.016-.199-.01-.093-.021-.193-.033-.3-.012-.107-.023-.21-.033-.31s-.017-.178-.02-.233c-.007-.111-.015-.212-.023-.303s-.012-.162-.013-.213c0-.093.018-.161.055-.204.037-.043.081-.068.132-.073.054-.005.098.01.134.046.036.036.054.1.054.193,0,.051-.002.122-.007.213-.005.091-.012.194-.02.309-.002.056-.008.135-.017.237s-.02.208-.03.316c-.011.109-.02.211-.029.306-.008.095-.013.162-.012.201l-.121.012Z" fill="#fff" stroke="#fff" stroke-miterlimit="10" stroke-width=".05"/><path d="M106.045,195.244l-1.48.153c-.278.029-.505-.177-.505-.457v-1.497c0-.28.227-.533.504-.561l1.48-.153c.278-.029.505.177.505.457v1.497c0,.28-.227.533-.504.561Z" fill="#fff"/><polyline points="196.777 169.699 197.013 177.279 181.488 178.887 181.355 171.135" fill="none" stroke="#231f20" stroke-linecap="round" stroke-linejoin="round" stroke-width=".392"/><line x1="180.467" y1="177.524" x2="180.333" y2="171.207" fill="none" stroke="#231f20" stroke-linecap="round" stroke-linejoin="round" stroke-width=".392"/><line x1="181.401" y1="178.817" x2="180.486" y2="177.555" fill="none" stroke="#231f20" stroke-linecap="round" stroke-linejoin="round" stroke-width=".392"/><polyline points="231.879 163.237 232.117 173.328 216.765 174.928 216.752 167.76" fill="none" stroke="#231f20" stroke-linecap="round" stroke-linejoin="round" stroke-width=".392"/><line x1="215.756" y1="173.791" x2="215.747" y2="167.76" fill="none" stroke="#231f20" stroke-linecap="round" stroke-linejoin="round" stroke-width=".392"/><line x1="216.765" y1="174.868" x2="215.756" y2="173.664" fill="none" stroke="#231f20" stroke-linecap="round" stroke-linejoin="round" stroke-width=".392"/><polyline points="214.316 167.832 214.554 175.262 199.202 176.862 199.105 169.412" fill="none" stroke="#231f20" stroke-linecap="round" stroke-linejoin="round" stroke-width=".392"/><line x1="198.193" y1="175.729" x2="198.094" y2="169.483" fill="none" stroke="#231f20" stroke-linecap="round" stroke-linejoin="round" stroke-width=".392"/><line x1="199.202" y1="176.663" x2="198.193" y2="175.598" fill="none" stroke="#231f20" stroke-linecap="round" stroke-linejoin="round" stroke-width=".392"/><polyline points="179.086 171.276 179.239 179.198 163.714 180.807 163.779 176.234" fill="none" stroke="#231f20" stroke-linecap="round" stroke-linejoin="round" stroke-width=".392"/><line x1="162.692" y1="179.75" x2="162.835" y2="176.088" fill="none" stroke="#231f20" stroke-linecap="round" stroke-linejoin="round" stroke-width=".392"/><line x1="163.627" y1="180.611" x2="162.605" y2="179.678" fill="none" stroke="#231f20" stroke-linecap="round" stroke-linejoin="round" stroke-width=".392"/><path d="M189.807,181.33c.06-.706.674-1.323,1.372-1.376s1.214.475,1.154,1.181-.674,1.323-1.372,1.376-1.214-.475-1.154-1.181Z" fill="#231f20"/><path d="M185.454,181.666c.06-.706.674-1.323,1.372-1.376s1.214.475,1.154,1.181-.674,1.323-1.372,1.376-1.214-.475-1.154-1.181Z" fill="#231f20"/><path d="M172.628,183.247c.06-.706.674-1.323,1.372-1.376s1.214.475,1.154,1.181-.674,1.323-1.372,1.376-1.214-.475-1.154-1.181Z" fill="#231f20"/><path d="M168.276,183.583c.06-.706.674-1.323,1.372-1.376s1.214.475,1.154,1.181-.674,1.323-1.372,1.376-1.214-.475-1.154-1.181Z" fill="#231f20"/><path d="M207.498,179.373c.06-.706.674-1.323,1.372-1.376s1.214.475,1.154,1.181-.674,1.323-1.372,1.376-1.214-.475-1.154-1.181Z" fill="#231f20"/><path d="M203.145,179.71c.06-.706.674-1.323,1.372-1.376s1.214.475,1.154,1.181-.674,1.323-1.372,1.376-1.214-.475-1.154-1.181Z" fill="#231f20"/><path d="M224.316,177.484c.06-.706.674-1.323,1.372-1.376s1.214.475,1.154,1.181-.674,1.323-1.372,1.376-1.214-.475-1.154-1.181Z" fill="#231f20"/><path d="M219.963,177.821c.06-.706.674-1.323,1.372-1.376s1.214.475,1.154,1.181-.674,1.323-1.372,1.376-1.214-.475-1.154-1.181Z" fill="#231f20"/><polyline points="265.772 162.549 255.554 163.422 252.235 161.239 252.353 156.47" fill="none" stroke="#231f20" stroke-linecap="round" stroke-linejoin="round" stroke-width=".5"/><path d="M70.201,112.241l.851-1.701,1.489-3.615.638-4.466-2.765-.213v-9.995l-2.977-1.701-4.253-3.828,65.927-3.615,31.9,14.887,1.276,61.036,8.507-19.353c1.276-5.742,4.679-6.38,4.679-6.38,4.891-2.127,8.294,7.443,8.294,7.443l8.932,28.072-4.041,8.932,2.552,2.552.425,1.489-.213,1.701h-7.231l-1.914-1.489-17.439,34.665-69.968,7.443-23.394-24.882-1.276-86.981ZM183.271,156.91s-.282-17.137-6.215-19.209c0,0-3.766,3.39-2.731,16.101,0,0,.753,13.653,6.215,15.536l.377-3.39-.659-1.224.282-8.851,1.412-.094,1.318,1.13Z" fill="#d0cfce"/><line x1="184.76" y1="193.238" x2="177.006" y2="194.107" fill="none" stroke="#231f20" stroke-linecap="round" stroke-linejoin="round" stroke-width=".5"/><path d="M247.712,132.411l10.744,4.773,16.682-1.461,3.29,1.513s62.742-5.609,66.949-5.609c3.679,0,1.944-1.996,1.944-1.996l-5.541-5.086-94.068,7.867v2.081" fill="none" stroke="#231f20" stroke-linecap="round" stroke-linejoin="round" stroke-width=".5"/><polyline points="183.06 137.884 243.737 133.002 253.746 137.432 236.538 138.973 239.235 140.578 185.872 145.357" fill="none" stroke="#231f20" stroke-linecap="round" stroke-linejoin="round" stroke-width=".5"/><line x1="161.921" y1="139.585" x2="170.829" y2="138.868" fill="none" stroke="#231f20" stroke-linecap="round" stroke-linejoin="round" stroke-width=".5"/><path d="M162.074,146.191c1.136.185,3.084.46,5.187.566" fill="none" stroke="#231f20" stroke-linecap="round" stroke-linejoin="round" stroke-width=".5"/><line x1="169.727" y1="140.598" x2="161.997" y2="141.223" fill="none" stroke="#231f20" stroke-linecap="round" stroke-linejoin="round" stroke-width=".5"/><line x1="179.422" y1="139.834" x2="175.725" y2="140.113" fill="none" stroke="#231f20" stroke-linecap="round" stroke-linejoin="round" stroke-width=".5"/><polyline points="235.149 140.761 224.874 136.136 183.948 139.447" fill="none" stroke="#231f20" stroke-linecap="round" stroke-linejoin="round" stroke-width=".5"/><line x1="224.721" y1="136.136" x2="224.837" y2="141.609" fill="none" stroke="#231f20" stroke-linecap="round" stroke-linejoin="round" stroke-width=".5"/><line x1="179.978" y1="163.82" x2="176.753" y2="164.126" fill="none" stroke="#231f20" stroke-linecap="round" stroke-linejoin="round" stroke-width=".5"/><polyline points="239.235 140.578 239.235 158.203 191.421 162.735" fill="none" stroke="#231f20" stroke-linecap="round" stroke-linejoin="round" stroke-width=".5"/><path d="M238.904,140.13l17.264-1.593s1.975,5.478.446,17.391l-17.072,1.847" fill="none" stroke="#231f20" stroke-linecap="round" stroke-linejoin="round" stroke-width=".5"/><line x1="254.066" y1="138.684" x2="252.218" y2="137.856" fill="none" stroke="#231f20" stroke-linecap="round" stroke-linejoin="round" stroke-width=".5"/><line x1="243.302" y1="183.235" x2="243.302" y2="157.6" fill="none" stroke="#231f20" stroke-linecap="round" stroke-linejoin="round" stroke-width=".5"/><line x1="246.798" y1="182.917" x2="246.798" y2="157.282" fill="none" stroke="#231f20" stroke-linecap="round" stroke-linejoin="round" stroke-width=".5"/><line x1="183.138" y1="184.018" x2="181.512" y2="184.188" fill="none" stroke="#231f20" stroke-linecap="round" stroke-linejoin="round" stroke-width=".5"/><polyline points="240.945 157.797 240.768 177.971 191.952 183.093" fill="none" stroke="#231f20" stroke-linecap="round" stroke-linejoin="round" stroke-width=".5"/><path d="M184.198,184.155l11.805,3.097s1.244.571-.026,1.276l-8.496,1.008c-.128.009-.257-.004-.381-.037l-7.449-2.086" fill="none" stroke="#231f20" stroke-linecap="round" stroke-linejoin="round" stroke-width=".5"/><path d="M178.371,190.206l8.724,2.546c.128.036.261.049.393.04l8.489-1.008.679-.511.027-3.06" fill="none" stroke="#231f20" stroke-linecap="round" stroke-linejoin="round" stroke-width=".5"/><line x1="187.071" y1="189.494" x2="187.071" y2="192.806" fill="none" stroke="#231f20" stroke-linecap="round" stroke-linejoin="round" stroke-width=".5"/><path d="M242.808,181.281l-4.275-2.986s-4.907,3.926-8.956,4.785l-34.843,3.558" fill="none" stroke="#231f20" stroke-linecap="round" stroke-linejoin="round" stroke-width=".5"/><line x1="70.116" y1="112.716" x2="71.527" y2="201.408" fill="none" stroke="#231f20" stroke-linecap="round" stroke-linejoin="round" stroke-width=".5"/><path d="M63.885,109.747h-1.415l.944,2.123,1.783,69.802,4.01,3.421s1.032,8.686-1.091,10.691" fill="none" stroke="#231f20" stroke-linecap="round" stroke-linejoin="round" stroke-width=".5"/><path d="M64.289,111.444v-8.859l-.702-.614v4.561l-.877-.702v-3.421l-1.579-3.421v-4.298h1.579c0,.263-.088-3.596-.088-3.596l.357.173,2.537,1.23v13.332l1.573-2.995h5.597v3.562l-1.526,3.707v1.853h-5.851v-1.708l1.999-3.925-.109-3.489" fill="none" stroke="#231f20" stroke-linecap="round" stroke-linejoin="round" stroke-width=".5"/><polyline points="62.979 90.831 67.183 90.831 70.341 92.223 70.341 102.322" fill="none" stroke="#231f20" stroke-linecap="round" stroke-linejoin="round" stroke-width=".5"/><line x1="65.517" y1="92.498" x2="70.341" y2="92.498" fill="none" stroke="#231f20" stroke-linecap="round" stroke-linejoin="round" stroke-width=".5"/><line x1="67.308" y1="106.324" x2="72.687" y2="106.324" fill="none" stroke="#231f20" stroke-linecap="round" stroke-linejoin="round" stroke-width=".5"/><line x1="65.309" y1="110.249" x2="71.16" y2="110.249" fill="none" stroke="#231f20" stroke-linecap="round" stroke-linejoin="round" stroke-width=".5"/><line x1="67.97" y1="184.947" x2="68.261" y2="202.111" fill="none" stroke="#231f20" stroke-linecap="round" stroke-linejoin="round" stroke-width=".5"/><polyline points="129.154 83.35 161.1 97.742 91.243 101.478 86.713 99.098 63.552 86.928" fill="none" stroke="#231f20" stroke-linecap="round" stroke-linejoin="round" stroke-width=".5"/><line x1="237.75" y1="123.331" x2="237.75" y2="131.673" fill="none" stroke="#231f20" stroke-linecap="round" stroke-linejoin="round" stroke-width=".5"/><line x1="237.75" y1="77.852" x2="237.75" y2="97.778" fill="none" stroke="#231f20" stroke-linecap="round" stroke-linejoin="round" stroke-width=".5"/><path d="M141.228,88.247c.139-1.713,1.21-5.98,8.403-6.268" fill="none" stroke="#231f20" stroke-linecap="round" stroke-linejoin="round" stroke-width=".5"/><path d="M199.63,81.859s-1.683-2.284-6.01-2.284" fill="none" stroke="#231f20" stroke-linecap="round" stroke-linejoin="round" stroke-width=".5"/><path d="M150.219,92.208l7.704-7.704,9.736-.962s1.803,1.442,1.683,4.207l-.841.962s-6.145.433-11.825,6.512" fill="none" stroke="#231f20" stroke-linecap="round" stroke-linejoin="round" stroke-width=".5"/><path d="M171.505,88.229s-.24-3.966-1.082-4.687l10.337-.361,10.457,9.135s-2.764,4.327-4.327,4.447c0,0-5.168-8.293-15.385-8.534Z" fill="none" stroke="#231f20" stroke-linecap="round" stroke-linejoin="round" stroke-width=".5"/><path d="M200.231,125.97s24.519-1.683,26.202-1.923,1.562-1.562,1.562-1.562l.361-39.543c0-1.923-1.923-1.923-1.923-1.923l-28.067,1.412s-1.252-.334-1.252,1.419v20.693" fill="none" stroke="#231f20" stroke-linecap="round" stroke-linejoin="round" stroke-width=".5"/><path d="M161.345,99.724c1.458-1.615,3.944-3.651,7.636-4.403l.12-4.447s-4.793-.784-10.52,5.142" fill="none" stroke="#231f20" stroke-linecap="round" stroke-linejoin="round" stroke-width=".5"/><path d="M171.626,95.321s6.01,0,10.096,5.048l3.486-2.404s-5.409-7.332-13.582-7.452v4.808Z" fill="none" stroke="#231f20" stroke-linecap="round" stroke-linejoin="round" stroke-width=".5"/><path d="M161.924,126.236c2.002.98,4.57,1.697,7.778,1.657l-.24-4.687s-3.589.184-7.868-3.232" fill="none" stroke="#231f20" stroke-linecap="round" stroke-linejoin="round" stroke-width=".5"/><path d="M171.626,123.205l.481,4.327s8.774-.481,13.341-9.135l-3.606-1.803s-3.726,5.769-10.216,6.611Z" fill="none" stroke="#231f20" stroke-linecap="round" stroke-linejoin="round" stroke-width=".5"/><path d="M193.464,118.463l-.189.726-.851.851-1.607-1.324-1.607-.662c-1.607-.756-6.051-3.687-6.051-3.687,3.12-5.862-.189-12.008-.189-12.008,0,0,5.389-1.891,7.375-6.146,0,0,2.175-.945,2.647-1.796,0,0,1.702.095,1.796,1.986v3.971" fill="none" stroke="#231f20" stroke-linecap="round" stroke-linejoin="round" stroke-width=".5"/><path d="M202.446,95.079l6.713-7.753,11.251-.851s3.215.662,3.215,5.767-.189,22.408-.189,22.408c0,0-.189,4.16-3.215,4.727s-11.251,1.229-11.251,1.229l-6.713-6.429.189-19.099Z" fill="none" stroke="#231f20" stroke-linecap="round" stroke-linejoin="round" stroke-width=".5"/><path d="M204.81,116.447l5.957-.284s3.687-1.135,3.876-4.822l.095-24.299" fill="none" stroke="#231f20" stroke-linecap="round" stroke-linejoin="round" stroke-width=".5"/><path d="M183.347,131.197c5.2-4.633,7.848-9.455,7.848-9.455-1.229-1.513-4.16-1.986-4.16-1.986-6.051,9.455-15.128,10.211-15.128,10.211,0,0,.851,1.04-.567,2.364" fill="none" stroke="#231f20" stroke-linecap="round" stroke-linejoin="round" stroke-width=".5"/><path d="M169.165,132.142c1.135-1.229-.095-2.175-.095-2.175-2.774.146-5.278-.547-7.414-1.574" fill="none" stroke="#231f20" stroke-linecap="round" stroke-linejoin="round" stroke-width=".5"/><line x1="171.875" y1="136.626" x2="161.758" y2="137.462" fill="none" stroke="#231f20" stroke-linecap="round" stroke-linejoin="round" stroke-width=".5"/><path d="M161.681,133.181c11.62-.973,33.579-2.835,33.579-2.835,0,0,1.324.284,1.229-2.08-.095-2.364-.378-6.429-.378-6.429l3.404-.095.662,7.469s.945,4.066-2.647,5.295l-15.527,1.283" fill="none" stroke="#231f20" stroke-linecap="round" stroke-linejoin="round" stroke-width=".5"/><polyline points="193.086 130.062 192.707 122.688 196.111 121.837" fill="none" stroke="#231f20" stroke-linecap="round" stroke-linejoin="round" stroke-width=".5"/><path d="M192.586,117.001l2.729-.292-.292-4.24.78-.926v-5.654s-.975-2.924-2.973-2.632c0,0-1.706.195-1.852,3.363v4.825l1.219,1.511.39,4.045Z" fill="none" stroke="#231f20" stroke-linecap="round" stroke-linejoin="round" stroke-width=".5"/><path d="M195.656,116.562l.245-.114,1.071-.5-.292-3.724.78-.926v-5.654s-.975-2.924-2.973-2.632l-1.657.244" fill="none" stroke="#231f20" stroke-linecap="round" stroke-linejoin="round" stroke-width=".5"/><polyline points="193.662 116.996 193.662 119.731 194.535 120.836 194.535 121.884" fill="none" stroke="#231f20" stroke-linecap="round" stroke-linejoin="round" stroke-width=".5"/><polyline points="195.291 116.53 195.291 119.265 196.164 120.371 196.164 121.418" fill="none" stroke="#231f20" stroke-linecap="round" stroke-linejoin="round" stroke-width=".5"/><polyline points="196.862 116.064 196.862 118.8 197.735 119.905 197.735 120.953" fill="none" stroke="#231f20" stroke-linecap="round" stroke-linejoin="round" stroke-width=".5"/><ellipse cx="193.349" cy="108.332" rx=".892" ry="2.434" fill="none" stroke="#231f20" stroke-linecap="round" stroke-linejoin="round" stroke-width=".5"/><ellipse cx="191.72" cy="85.48" rx="4.261" ry="4.104" transform="translate(31.318 220.886) rotate(-64.2)" fill="none" stroke="#231f20" stroke-linecap="round" stroke-linejoin="round" stroke-width=".5"/><line x1="191.941" y1="82.764" x2="191.941" y2="88.02" fill="none" stroke="#231f20" stroke-linecap="round" stroke-linejoin="round" stroke-width=".5"/><line x1="189.688" y1="85.684" x2="194.027" y2="85.35" fill="none" stroke="#231f20" stroke-linecap="round" stroke-linejoin="round" stroke-width=".5"/><path d="M143.564,88.816c-.136-.797-.036-1.653.338-2.448.921-1.959,3.156-2.808,4.991-1.896s2.576,3.24,1.655,5.199c-.389.828-1.012,1.457-1.741,1.839" fill="none" stroke="#231f20" stroke-linecap="round" stroke-linejoin="round" stroke-width=".5"/><line x1="147.424" y1="85.508" x2="147.424" y2="90.369" fill="none" stroke="#231f20" stroke-linecap="round" stroke-linejoin="round" stroke-width=".5"/><line x1="145.398" y1="88.209" x2="149.3" y2="87.9" fill="none" stroke="#231f20" stroke-linecap="round" stroke-linejoin="round" stroke-width=".5"/><path d="M193.09,102.821v-2.594s2.954.216,3.53,3.386" fill="none" stroke="#231f20" stroke-linecap="round" stroke-linejoin="round" stroke-width=".5"/><path d="M202.456,100.149l4.561,2.186s2.551,1.513-.541,2.522l-3.942-1.765" fill="none" stroke="#231f20" stroke-linecap="round" stroke-linejoin="round" stroke-width=".5"/><path d="M202.533,98.132l7.575,3.615s2.551,1.513-.541,2.522l-2.86.588" fill="none" stroke="#231f20" stroke-linecap="round" stroke-linejoin="round" stroke-width=".5"/><path d="M210.031,113.205l2.86-.588c3.092-1.009.541-2.522.541-2.522l-4.561-2.223-4.252.309,5.72,2.503s2.551,1.513-.541,2.522l-5.256-2.396v-1.855" fill="none" stroke="#231f20" stroke-linecap="round" stroke-linejoin="round" stroke-width=".5"/><path d="M206.976,89.938l3.287,1.575s2.551,1.513-.541,2.522l-3.942-1.765" fill="none" stroke="#231f20" stroke-linecap="round" stroke-linejoin="round" stroke-width=".5"/><path d="M208.182,88.456l5.173,2.468s2.551,1.513-.541,2.522l-2.86.588" fill="none" stroke="#231f20" stroke-linecap="round" stroke-linejoin="round" stroke-width=".5"/><path d="M234.262,94.502l.315-14.139s-.496-1.612-3.72-1.488l-32.858,1.736" fill="none" stroke="#231f20" stroke-linecap="round" stroke-linejoin="round" stroke-width=".5"/><polyline points="199.859 133.059 233.461 130.455 233.651 122.687" fill="none" stroke="#231f20" stroke-linecap="round" stroke-linejoin="round" stroke-width=".5"/><path d="M228.313,119.039l10.625,4.829s3.434,1.395,4.507-1.395v-20.283s.644-2.254-2.576-3.22l-9.444-3.327s-2.576-.322-3.005,1.073" fill="none" stroke="#231f20" stroke-linecap="round" stroke-linejoin="round" stroke-width=".5"/><path d="M229.601,98.54l7.62,3.005s1.717-.107,1.717,2.468v17.708" fill="none" stroke="#231f20" stroke-linecap="round" stroke-linejoin="round" stroke-width=".5"/><line x1="230.245" y1="103.692" x2="230.245" y2="113.458" fill="none" stroke="#231f20" stroke-linecap="round" stroke-linejoin="round" stroke-width=".5"/><line x1="231.854" y1="104.443" x2="231.854" y2="114.209" fill="none" stroke="#231f20" stroke-linecap="round" stroke-linejoin="round" stroke-width=".5"/><line x1="233.464" y1="105.194" x2="233.464" y2="114.96" fill="none" stroke="#231f20" stroke-linecap="round" stroke-linejoin="round" stroke-width=".5"/><ellipse cx="231.191" cy="90.196" rx="1.757" ry="1.348" transform="translate(121.452 312.777) rotate(-85.068)" fill="none" stroke="#231f20" stroke-linecap="round" stroke-linejoin="round" stroke-width=".5"/><path d="M191.84,164.59l39.478-3.616s3.484-.248,5.343-2.612v2.243c-1.442,2.724-8.812,2.884-8.812,2.884l-3.044,3.365-31.874,3.076" fill="none" stroke="#231f20" stroke-linecap="round" stroke-linejoin="round" stroke-width=".5"/><line x1="177.409" y1="165.912" x2="180.176" y2="165.658" fill="none" stroke="#231f20" stroke-linecap="round" stroke-linejoin="round" stroke-width=".5"/><polygon points="67.009 94.853 69.003 94.792 68.089 96.84 67.009 94.853" fill="#231f20"/><polyline points="231.396 163.204 238.343 170.277 232.281 176.846 156.495 184.55 154.732 183.113 154.705 181.873 154.567 175.499" fill="none"/><g clip-path="url(#d)"><path d="M158.305,170.516c-13.505-12.479-28.281-26.598-41.612-39.419-4.576-4.43-9.253-8.754-13.875-13.135-.052-.049-.054-.131-.007-.184l15.565-17.394c.086-.097.236-.102.33-.013,0,0,10.119,9.595,10.119,9.595,10.053,9.588,20.391,19.325,30.151,29.003-13.428-12.453-27.297-25.592-40.587-38.265,0,0,.329-.013.329-.013,0,0-15.712,17.262-15.712,17.262,0,0-.007-.183-.007-.183,4.613,4.391,9.172,8.839,13.832,13.181,13.445,12.662,28.533,26.74,41.475,39.563h0Z" fill="#231f20"/><path d="M158.08,181.138c-13.505-12.476-28.281-26.6-41.613-39.418-4.483-4.518-9.625-8.77-13.88-13.32,6.648-7.165,20.056-21.562,26.756-28.675.092-.098.247-.103.344-.01,4.902,4.626,9.769,9.289,14.622,13.967,4.843,4.686,9.797,9.339,14.552,14.077-9.901-9.109-19.732-18.412-29.509-27.692,0,0,.344-.01.344-.01l-13.43,14.288c.076-.153-13.823,14.842-13.494,14.049,4.612,4.392,9.174,8.837,13.833,13.179,13.446,12.657,28.531,26.746,41.474,39.564h0Z" fill="#231f20"/><path d="M158.195,191.423c-14.088-12.577-27.772-25.592-41.63-38.418,0,0-13.935-12.743-13.935-12.743-.085-.077-.089-.21-.009-.293,6.289-6.701,12.609-13.374,18.953-20.022,5.642-5.72,13.608-14.369,19.187-19.8-5.392,5.814-13.297,14.28-18.822,20.146-6.313,6.678-12.652,13.333-19.02,19.959,0,0-.009-.292-.009-.292l13.786,12.904c13.79,12.822,28.115,25.52,41.5,38.559h0Z" fill="#231f20"/><path d="M158.943,203.227c-13.384-12.014-28.419-26.059-41.623-38.426,0,0-13.906-12.774-13.906-12.774,7.423-8.927,15.832-17.639,23.653-26.427,5.928-6.419,18.004-19.761,23.948-25.953-5.851,6.597-17.668,19.755-23.568,26.298-7.811,8.409-16.198,18.228-23.826,25.859,0,0,13.815,12.872,13.815,12.872,13.315,12.206,28.701,26.162,41.508,38.55h0Z" fill="#231f20"/><path d="M159.859,215.031c-13.714-12.372-28.745-26.382-42.3-39.09-4.575-4.47-9.711-8.724-14.093-13.213,0,0,13.114-14.776,13.114-14.776,7.798-8.639,18.644-20.94,26.375-29.42,0,0,13.275-14.632,13.275-14.632l.006.141c-.011-.012-5.248-5.05-5.201-5.08.045-.055,5.306,4.934,5.341,4.933.225.147-13.101,14.81-13.095,14.93-12.056,13.364-27.602,31.138-39.645,43.897,18.346,17.201,38.26,34.953,56.224,52.311h0Z" fill="#231f20"/><path d="M152.292,218.39c-16.003-14.455-32.96-30.181-48.557-44.954,17.093-19.331,35.118-39.734,52.593-58.613-17.006,19.314-35.296,40.187-52.436,58.606,15.755,14.72,33.051,30.075,48.4,44.961h0Z" fill="#231f20"/><path d="M158.454,123.253c-12.755,15.001-27.19,31.467-40.308,46.309,0,0-13.407,15.462-13.407,15.462,0,0-.011-.205-.011-.205,8.882,8.11,18.695,17.162,27.573,25.378,0,0,9.159,8.494,9.159,8.494,0,0-.328.019-.328.019,6.159-7.092,12.281-14.216,18.484-21.27-5.777,7.153-12.147,14.399-18.138,21.566-.081.096-.224.108-.319.027-.008.002-9.18-8.478-9.188-8.48-8.879-8.248-18.67-17.261-27.442-25.52-.058-.054-.062-.145-.011-.205,0,0,13.496-15.384,13.496-15.384,12.959-14.943,27.296-31.756,40.44-46.193h0Z" fill="#231f20"/><path d="M133.738,216.141c3.751-4.828,8.204-9.022,12.141-13.683,3.947-4.651,8.007-9.2,12.308-13.534.02-.022.058.01.037.033-3.849,4.739-7.939,9.261-12.141,13.683-4.214,4.342-7.972,9.498-12.345,13.5h0Z" fill="#231f20"/><path d="M158.537,134.429c-12.87,14.928-28.034,31.013-40.99,45.868-4.534,5.115-9.084,10.215-13.668,15.285l-.016-.358c6.109,5.688,12.189,11.407,18.224,17.174.024.02-.012.059-.034.037-3.117-2.776-6.207-5.582-9.291-8.393-3.083-2.813-6.188-5.602-9.246-8.442-.102-.095-.109-.255-.017-.358,4.554-5.097,9.142-10.163,13.747-15.214,13.398-14.391,27.839-31.458,41.291-45.597h0Z" fill="#231f20"/><path d="M121.234,222.045c-5.865-5.238-11.674-10.536-17.438-15.883-.083-.076-.088-.208-.013-.292l13.788-15.096c13.157-14.748,27.733-31.318,41.174-45.458-12.916,14.841-27.662,30.995-41.046,45.573,0,0-13.607,15.259-13.607,15.259,0,0-.013-.292-.013-.292,5.705,5.333,11.725,10.779,17.155,16.189h0Z" fill="#231f20"/><path d="M110.393,222.7c-2.225-1.963-4.434-3.943-6.619-5.95-.061-.056-.065-.152-.01-.214,3.349-3.843,10.18-11.457,13.637-15.2,13.728-15.115,26.961-30.754,40.988-45.561-13.183,15.568-27.269,30.437-40.787,45.742-3.332,3.837-10.168,11.483-13.611,15.223,0,0-.01-.213-.01-.213,2.094,2.028,4.53,4.136,6.412,6.173h0Z" fill="#231f20"/><path d="M158.524,160.218c-9.6-8.52-18.637-17.634-28.018-26.385-4.672-4.341-16.621-15.46-21.068-19.731,0,0-6.921-6.684-6.921-6.684-.063-.058-.063-.158-.002-.217,1.881-1.775,3.76-3.636,5.68-5.33-1.744,1.879-3.649,3.708-5.47,5.545,0,0-.002-.217-.002-.217,0,0,7.059,6.538,7.059,6.538,4.46,4.153,16.33,15.564,20.873,19.937,9.188,8.879,19.073,17.465,27.869,26.542h0Z" fill="#231f20"/><path d="M107.866,101.265c6.558,5.841,12.863,11.949,19.136,18.09,10.658,10.022,21.465,19.888,31.78,30.268.023.021-.012.058-.034.036-10.898-9.767-21.307-20.052-31.865-30.179-6.385-5.948-13.09-12-19.017-18.215h0Z" fill="#231f20"/><path d="M158.32,167.584c-5.949,6.922-12.169,13.596-18.423,20.239-10.207,11.27-20.255,22.686-30.826,33.62-.02.023-.058-.011-.037-.034,9.947-11.505,20.421-22.532,30.735-33.703,6.059-6.751,12.216-13.824,18.551-20.122h0Z" fill="#231f20"/><path d="M125.987,212.703c5.056-6.102,10.806-11.558,16.046-17.49,5.246-5.926,10.622-11.733,16.21-17.338.02-.022.058.011.037.034-5.161,6.001-10.539,11.806-16.046,17.49-5.513,5.608-10.581,12.04-16.247,17.304h0Z" fill="#231f20"/><path d="M119.053,220.191c.163-.589.578-.923,1.052-1.219.564-.714.924-1.571,1.864-1.93.02-.01.045.012.037.034-.286.964-1.112,1.388-1.782,2.006-.258.496-.56.935-1.135,1.143-.021.009-.044-.013-.037-.034h0Z" fill="#231f20"/><path d="M150.519,218.33c1.017-1.51,2.29-2.775,3.619-3.994,1.997-2.229,3.788-4.736,6.177-6.553-1.651,2.524-3.984,4.499-6.058,6.663-1.109,1.353-2.344,2.984-3.738,3.884h0Z" fill="#231f20"/></g><polygon points="118.021 227.154 148.964 246.827 132.151 248.764 196.163 263.298 204.47 241.154 186.693 243.118 155.106 223.027 118.021 227.154" fill="#221f20"/><path d="M162.047,159.02l10.683-23.741s3.378-4.383,6.392-.091c3.013,4.292,9.131,25.475,9.131,25.475" fill="none" stroke="#231f20" stroke-linecap="round" stroke-linejoin="round" stroke-width=".5"/><path d="M190.261,160.664s-6.118-21.184-9.131-25.475c-.824-1.174-1.676-1.699-2.479-1.842l-2.269.016" fill="none" stroke="#231f20" stroke-linecap="round" stroke-linejoin="round" stroke-width=".5"/><path d="M180.664,169.284c-.542.689-1.151,1.087-1.814,1.135-3.029.217-6.012-6.981-6.665-16.078-.652-9.097,1.274-16.647,4.303-16.864s6.012,6.981,6.665,16.078c.082,1.137.123,2.25.127,3.327" fill="none" stroke="#231f20" stroke-linecap="round" stroke-linejoin="round" stroke-width=".5"/><path d="M176.99,137.63c-2.266,1.942-3.415,8.261-2.86,15.995.623,8.692,3.376,15.651,6.261,16.063" fill="none" stroke="#231f20" stroke-linecap="round" stroke-linejoin="round" stroke-width=".5"/><path d="M152.959,95.174l-64.356,3.316s-2.425.101-2.368,2.578l3.404,117.582" fill="none" stroke="#231f20" stroke-linecap="round" stroke-linejoin="round" stroke-width=".5"/><polyline points="71.552 199.16 94.472 224.107 161.829 216.467" fill="none" stroke="#231f20" stroke-linecap="round" stroke-linejoin="round" stroke-width=".5"/><line x1="91.243" y1="101.478" x2="94.472" y2="224.107" fill="none" stroke="#231f20" stroke-linecap="round" stroke-linejoin="round" stroke-width=".5"/><line x1="161.1" y1="97.742" x2="162.764" y2="207.891" fill="none" stroke="#231f20" stroke-linecap="round" stroke-linejoin="round" stroke-width=".5"/><path d="M184.948,183.882l5.997-.228c1.239-.75,1.108-2.249,1.108-2.249l-1.043-1.467c-1.695-.456-2.053-2.184-2.053-2.184l3.911-8.605-6.16.326-4.107,8.214c-.293,1.499.815,2.705.815,2.705l1.304.098,1.01,1.206-.456,1.402c-.424,1.01-1.579.519-1.579.519l-2.291-2.499-.869,1.635-.358-3.169,2.402-4.242v-2.811l-.767-.664-.92,1.738-1.278-2.3,1.175-1.278.204-4.14-.715-1.073.051-9.301,1.533-.051,2.027,2.93-.664,1.329,1.05,1.794-1.517,2.98-1.288-4.592.213-.292.683-.94-1.792-2.632" fill="none" stroke="#231f20" stroke-linecap="round" stroke-linejoin="round" stroke-width=".5"/><polyline points="186.709 169.476 184.278 161.517 190.84 161.161 193.021 168.832" fill="none" stroke="#231f20" stroke-linecap="round" stroke-linejoin="round" stroke-width=".5"/><line x1="182.873" y1="159.768" x2="182.032" y2="159.812" fill="none" stroke="#231f20" stroke-linecap="round" stroke-linejoin="round" stroke-width=".5"/><path d="M180.894,173.608l-20.939,40.264c1.705.284,2.984,2.7,2.984,2.7l2.04-.233,17.152-33.749" fill="none" stroke="#231f20" stroke-linecap="round" stroke-linejoin="round" stroke-width=".5"/><path d="M194.273,150.346s3.992-31.086-25.204-46.708" fill="none" stroke="#fff" stroke-linecap="round" stroke-linejoin="round" stroke-width="9"/><path d="M195.145,149.583c-.158-10.015-3.203-34.352-27.766-47.338" fill="none" stroke="#000" stroke-dasharray="2 3" stroke-linecap="round" stroke-linejoin="round" stroke-width="1.25"/><polygon points="198.231 148.731 195.008 154.064 192 148.606 198.231 148.731"/><polygon points="101.972 124.852 94.723 125.29 94.3 112.512 101.549 112.074 101.972 124.852" fill="#231f20"/><path d="M99.908,122.077c.03.914-.677,1.699-1.58,1.754s-1.66-.642-1.69-1.556c-.03-.914.677-1.699,1.58-1.754s1.66.642,1.69,1.556Z" fill="#fff"/><path d="M100.278,114.635l-.012-.371-.484.029c-.068-.142-.187-.25-.332-.31l-.017-.499-.367.022.014.432-.526.032-.014-.432-.367.022.014.432-.519.031-.014-.432-.367.022.014.432-.513.031-.014-.432-.367.022.016.486c-.15.075-.267.206-.329.363l-.484.029.012.371.427-.026.017.525-.427.026.012.371.427-.026.017.525-.427.026.012.371.427-.026.017.525-.427.026.012.371.489-.03c.07.141.188.25.334.307l.016.495.367-.022-.014-.432.526-.032.014.432.367-.022-.014-.432.519-.031.014.432.367-.022-.014-.432.513-.031.014.432.367-.022-.016-.49c.144-.074.257-.2.318-.351l.489-.03-.012-.371-.427.026-.017-.525.427-.026-.012-.371-.427.026-.017-.525.427-.026-.012-.371-.427.026-.017-.525.427-.026ZM97.923,116.746l-.297.018-.773-1.145.039,1.19-.266.016-.054-1.618.295-.018.77,1.148-.034-1.192.266-.016.054,1.618ZM98.917,116.686l-.312.019-.586-1.586.291-.018.443,1.256.372-1.305.284-.017-.493,1.651Z" fill="#fff" stroke="#231f20" stroke-miterlimit="10" stroke-width=".023"/><polygon points="132.617 217.956 123.281 218.907 123.259 214.043 132.595 213.325 132.617 217.956" fill="#231f20"/><path d="M125.827,217.731c-.083.006-.15-.015-.201-.062-.052-.048-.077-.113-.078-.197,0-.08.025-.15.076-.209.051-.058.118-.091.2-.097s.149.016.199.066c.05.051.076.116.076.197,0,.083-.024.152-.074.208-.05.055-.116.087-.198.093ZM125.755,216.728c0-.044-.006-.118-.018-.222-.012-.105-.024-.216-.037-.336-.013-.119-.025-.236-.037-.348s-.019-.199-.022-.261c-.008-.124-.017-.237-.026-.339s-.014-.182-.014-.239c0-.104.02-.179.061-.226.041-.048.09-.074.148-.078.06-.005.11.014.15.055.04.041.06.113.061.217,0,.057-.002.137-.008.238-.006.102-.013.217-.023.345-.002.062-.009.151-.019.264s-.022.232-.034.353c-.012.122-.023.236-.032.342-.009.106-.014.18-.014.225l-.135.01Z" fill="#fff" stroke="#fff" stroke-miterlimit="10" stroke-width=".056"/><path d="M130.707,217.207l-1.655.137c-.31.026-.564-.21-.564-.523v-1.673c0-.313.253-.59.564-.616l1.655-.137c.31-.026.564.21.564.523v1.673c0,.313-.253.59-.564.616Z" fill="#fff"/></g></g><g id="e"><circle cx="190.4" cy="58.138" r="40.25" fill="#fff"/><path d="M186.56,96.958l.923-24.552-2-.308v-2.462l3.078.462v-6.309h-2.616v-6.309l-2.462-4.463.154-10.002h2l.462-7.694,6.771.154,10.156.308-.462,18.312,4.616.154.923,1.231.308,5.848-5.848,8.463-.154,3.078-5.078.769-.769,21.936s-7.386,1.231-10.002,1.385Z" fill="#d0cfce"/><g clip-path="url(#f)"><polyline points="202.554 54.201 202.952 35.651 193.147 35.651 186.124 35.253 186.124 43.336 183.739 43.203 183.474 53.008 185.992 57.646 185.859 63.741 188.642 64.006 188.774 55.393 190.762 55.658 190.666 72.973 192.484 73.275 192.484 69.571 198.314 61.886 198.447 55.923 197.387 54.466 195.399 60.163 192.484 62.151 193.147 35.651" fill="none" stroke="#231f20" stroke-linecap="round" stroke-linejoin="round" stroke-width=".5"/><polyline points="197.387 54.466 207.324 54.333 208.384 55.791 208.517 60.826 202.422 69.306 202.422 73.148 192.561 73.273" fill="none" stroke="#231f20" stroke-linecap="round" stroke-linejoin="round" stroke-width=".5"/><line x1="192.484" y1="69.571" x2="202.2" y2="69.474" fill="none" stroke="#231f20" stroke-linecap="round" stroke-linejoin="round" stroke-width=".5"/><line x1="190.726" y1="61.066" x2="188.897" y2="60.863" fill="none" stroke="#231f20" stroke-linecap="round" stroke-linejoin="round" stroke-width=".5"/><polyline points="188.642 64.006 188.642 69.921 185.599 69.51 185.599 71.932 186.421 72.069" fill="none" stroke="#231f20" stroke-linecap="round" stroke-linejoin="round" stroke-width=".5"/><path d="M190.467,72.903l-2.697-.545-2.864,120.167,5.614,5.425s.252,11.418-4.353,15.392v1.325s6.182-.568,7.128-9.841c0,0,.767-9.222,1.035-20.039l3.19-111.57" fill="none" stroke="#231f20" stroke-linecap="round" stroke-linejoin="round" stroke-width=".5"/><polygon points="194.467 39.49 201.835 39.49 198.151 47.268 194.467 39.49" fill="#231f20"/><path d="M190.502,35.118s.091-1.367-4.649-1.276-52.05.182-52.05.182c0,0-3.464-.82-3.464,4.375l-.091,94.072" fill="none" stroke="#231f20" stroke-miterlimit="10" stroke-width=".5"/><path d="M162.531,36.562c2.812,2.197,5.085,4.88,7.268,7.659,3.983,4.216,8.867,8.146,11.821,13.036-4.638-3.689-8.163-8.417-12.058-12.815-2.495-2.388-5.426-4.924-7.03-7.879h0Z" fill="#231f20"/><path d="M151.791,43.885c3.587,3.072,6.645,6.618,9.602,10.268,5.282,5.664,11.461,11.046,15.71,17.383-5.936-5.144-10.761-11.314-15.949-17.163-3.275-3.258-6.982-6.666-9.364-10.487h0Z" fill="#231f20"/><path d="M160.336,36.14c-.608,1.619-1.761,2.758-3.026,3.824-1.054,1.237-1.719,2.795-2.827,3.99-.727.805-1.508,1.565-2.447,2.194l-.077-.064c1.035-2.643,3.25-4.319,5.101-6.326.813-1.44,1.721-2.784,3.198-3.681,0,0,.077.064.077.064h0Z" fill="#231f20"/><path d="M176.689,36.385c-3.664,4.902-7.885,9.292-12.184,13.621-4.085,4.516-7.829,9.344-11.993,13.794,0,0-.004-.713-.004-.713,2.607,2.888,5.166,5.815,7.583,8.868,0,0-.073.068-.073.068-2.982-2.746-5.825-5.629-8.612-8.568,2.128-2.401,4.334-4.732,6.548-7.056,2.121-2.188,4.302-4.323,6.315-6.609,3.904-4.591,7.875-9.658,12.422-13.406h0Z" fill="#231f20"/><path d="M161.237,71.834c2.226-3.253,4.98-6.008,7.835-8.68,4.319-4.764,8.28-10.406,13.352-14.197-3.742,5.377-8.607,9.725-13.114,14.416-2.443,2.952-4.996,6.353-8.074,8.461h0Z" fill="#231f20"/><path d="M170.109,100.045c2.143,1.495,3.742,3.47,5.253,5.543,1.709,1.886,3.782,3.436,5.443,5.368,1.118,1.277,2.174,2.611,3.091,4.073l-.074.068c-3.521-2.514-5.923-6.063-8.699-9.289-1.94-1.678-3.776-3.435-5.088-5.695,0,0,.074-.068.074-.068h0Z" fill="#231f20"/><path d="M160.472,106.616c3.265,2.714,5.99,5.913,8.624,9.205,4.736,5.076,10.377,9.865,14.081,15.612-5.395-4.552-9.671-10.137-14.319-15.393-2.947-2.905-6.334-5.955-8.386-9.425h0Z" fill="#231f20"/><path d="M168.139,99.673c-.502,1.491-1.548,2.501-2.706,3.439-.947,1.108-1.505,2.538-2.507,3.604-.656.719-1.365,1.394-2.234,1.937l-.077-.064c.858-2.428,2.893-3.889,4.568-5.684.707-1.312,1.507-2.527,2.879-3.296,0,0,.077.064.077.064h0Z" fill="#231f20"/><path d="M182.812,99.893c-2.335,3.42-5.202,6.347-8.171,9.192-4.507,5.048-8.646,10.971-13.914,15.052,3.925-5.656,8.98-10.293,13.674-15.27,2.555-3.121,5.214-6.693,8.411-8.975h0Z" fill="#231f20"/><path d="M173.665,127.033c.842-1.71,2.197-2.908,3.659-4.025,1.262-1.301,2.157-2.948,3.471-4.203.864-.846,1.779-1.643,2.844-2.3l.073.069c-1.423,2.797-3.96,4.549-6.152,6.657-1.035,1.519-2.159,2.938-3.821,3.871,0,0-.073-.069-.073-.069h0Z" fill="#231f20"/><ellipse cx="145.178" cy="48.385" rx="2.931" ry="3.017" fill="#231f20"/><ellipse cx="145.178" cy="57.522" rx="2.931" ry="3.017" fill="#231f20"/><ellipse cx="145.178" cy="66.659" rx="2.931" ry="3.017" fill="#231f20"/><polygon points="145.329 78.549 145.329 89.838 145.329 94.186 176.299 92.968 176.299 77.33 145.329 78.549" fill="none" stroke="#231f20" stroke-miterlimit="10" stroke-width=".5"/><polygon points="171.985 88.841 147.792 89.656 147.792 86.032 171.985 85.488 171.985 88.841" fill="none" stroke="#231f20" stroke-miterlimit="10" stroke-width=".5"/><line x1="147.61" y1="85.941" x2="145.526" y2="84.673" fill="none" stroke="#231f20" stroke-miterlimit="10" stroke-width=".5"/><line x1="147.61" y1="89.566" x2="145.526" y2="88.297" fill="none" stroke="#231f20" stroke-miterlimit="10" stroke-width=".5"/><line x1="171.713" y1="85.216" x2="157.463" y2="78.165" fill="none" stroke="#231f20" stroke-miterlimit="10" stroke-width=".5"/><path d="M152.748,124.878l-3.454.203c-1.478.087-2.646-1.093-2.596-2.623l.622-19.112c.05-1.53,1.299-2.853,2.777-2.94l3.454-.203c1.478-.087,2.646,1.093,2.596,2.623l-.622,19.112c-.05,1.53-1.299,2.853-2.777,2.94Z" fill="none" stroke="#231f20" stroke-miterlimit="10" stroke-width=".5"/><line x1="117.768" y1="28.171" x2="223.499" y2="28.913" fill="none" stroke="#231f20" stroke-miterlimit="10" stroke-width=".5"/><line x1="117.768" y1="22.377" x2="219.893" y2="23.093" fill="none" stroke="#231f20" stroke-miterlimit="10" stroke-width=".5"/><line x1="213.176" y1="114.675" x2="216.018" y2="33.209" fill="none" stroke="#231f20" stroke-miterlimit="10" stroke-width=".5"/><line x1="225.776" y1="31.956" x2="38.99" y2="31.703" fill="none" stroke="#231f20" stroke-miterlimit="10" stroke-width=".5"/><polyline points="179.39 36.278 152.051 36.493 152.051 72.443 179.508 71.548" fill="none"/><polyline points="182.529 98.153 160.404 98.972 160.1 131.731" fill="none"/><line x1="125.963" y1="33.951" x2="132.831" y2="33.951" fill="none" stroke="#231f20" stroke-miterlimit="10" stroke-width=".5"/></g><circle cx="190.4" cy="58.138" r="40.25" fill="none" stroke="#fff" stroke-miterlimit="10" stroke-width="4"/><circle cx="190.4" cy="58.138" r="40.25" fill="none" stroke="#231f20" stroke-miterlimit="10"/><polygon points="195.023 33.505 185.183 24.156 190.196 24.189 190.405 6.716 200.285 6.8 200.076 24.275 205.088 24.319 195.023 33.505" fill="#2c2a26" stroke="#fff" stroke-linecap="round" stroke-linejoin="round"/><path d="M177.394,24.231c0,7.593-6.246,13.745-13.95,13.745s-13.953-6.152-13.953-13.745,6.246-13.755,13.953-13.755,13.95,6.159,13.95,13.755" fill="#211f1f" stroke="#fff" stroke-miterlimit="10" stroke-width="1.5"/><rect x="149.443" y="16.237" width="27.228" height="24.791" fill="none"/><path d="M165.043,31.273h-1.846v-11.761c-.444.424-1.027.848-1.749,1.271s-1.369.742-1.943.954v-1.784c1.032-.485,1.935-1.073,2.707-1.764s1.319-1.36,1.641-2.01h1.189v15.094Z" fill="#fff"/><line x1="115.196" y1="93.374" x2="102.243" y2="78.069" fill="none" stroke="#fff" stroke-linecap="round" stroke-linejoin="round" stroke-width="4"/><line x1="115.196" y1="93.374" x2="102.243" y2="78.069" fill="none" stroke="#58595b" stroke-linecap="round" stroke-linejoin="round"/><rect x="73.846" y="62.085" width="50.365" height="14.177" fill="#fff"/><rect x="73.846" y="62.085" width="50.365" height="14.177" fill="none" stroke="#fff" stroke-miterlimit="10" stroke-width="2"/><rect x="73.846" y="62.085" width="50.365" height="14.177" fill="none" stroke="#58595b" stroke-miterlimit="10"/><path d="M79.602,64.872l3.576,5.748h.023v-5.748h1.765v8.568h-1.885l-3.563-5.736h-.024v5.736h-1.764v-8.568h1.872Z" fill="#221f20"/><path d="M88.482,73.439l-2.772-8.568h1.932l1.908,6.024h.024l1.932-6.024h1.944l-2.845,8.568h-2.123Z" fill="#221f20"/><path d="M98.803,64.872c.384,0,.729.062,1.038.186.308.124.571.294.792.51.22.216.388.466.504.75.115.284.174.59.174.918,0,.504-.106.94-.318,1.308-.212.368-.558.648-1.038.84v.024c.232.064.425.162.576.294.152.132.276.288.372.468s.166.378.21.594c.044.216.074.432.09.648.008.136.017.296.024.48s.021.372.042.564c.02.192.052.374.096.546s.11.318.198.438h-1.884c-.104-.272-.168-.596-.192-.972-.023-.376-.06-.736-.107-1.08-.064-.448-.2-.776-.408-.984-.208-.208-.548-.312-1.021-.312h-1.884v3.348h-1.884v-8.568h4.62ZM98.131,68.748c.432,0,.756-.096.972-.288s.324-.504.324-.936c0-.416-.108-.718-.324-.906s-.54-.282-.972-.282h-2.064v2.412h2.064Z" fill="#221f20"/><path d="M107.117,64.872l3.204,8.568h-1.956l-.647-1.908h-3.204l-.672,1.908h-1.896l3.24-8.568h1.932ZM107.225,70.127l-1.08-3.144h-.024l-1.115,3.144h2.22Z" fill="#221f20"/><path d="M113.719,64.872l2.004,5.892h.023l1.896-5.892h2.651v8.568h-1.764v-6.072h-.024l-2.1,6.072h-1.452l-2.1-6.012h-.024v6.012h-1.764v-8.568h2.652Z" fill="#221f20"/></g></svg>