<?xml version="1.0" encoding="UTF-8"?><svg id="a" xmlns="http://www.w3.org/2000/svg" width="5.625in" height="1.75in" viewBox="0 0 405 126"><rect x="4.17" y="3.622" width="396" height="82.759" fill="none" stroke="#ccc" stroke-linecap="round" stroke-linejoin="round" stroke-width=".923"/><rect x="8.196" y="7.727" width="387.949" height="74.551" fill="#e6e6e6" stroke-width="0"/><rect x="14.914" y="46.301" width="180.967" height="33.173" fill="#ccc" stroke-width="0"/><path d="M72.44,75.247h28.281c.403,0,.755-.302.755-.755v-25.614c0-.453-.352-.755-.755-.755h-28.281c-.403,0-.755.302-.755.755v25.614c0,.453.352.755.755.755" fill="#e6e6e6" fill-rule="evenodd" stroke-width="0"/><path d="M91.21,49.532c0-.201-.151-.302-.302-.302s-.302.151-.302.302l.201,1.862c0,.101.05.101.101.101s.101-.05.101-.101l.201-1.862M91.26,52.199c0-.201-.151-.352-.352-.352s-.352.151-.352.352c0,.151.151.302.352.302s.352-.151.352-.302Z" fill="#262626" fill-rule="evenodd" stroke-width="0"/><path d="M84.265,50.539c-.201-.805-1.057-1.258-1.862-1.057-.855.252-1.308,1.107-1.057,1.912.252.805,1.107,1.258,1.912,1.057.805-.252,1.258-1.107,1.006-1.912M84.064,50.841c.101.654-.403,1.308-1.107,1.359-.503.101-1.057-.201-1.258-.705l.855-.855.352,1.359,1.157-1.157ZM81.548,51.143c-.05-.704.403-1.359,1.107-1.409.554-.101,1.057.201,1.308.705l-.855.855-.352-1.359-1.208,1.208Z" fill="#262626" fill-rule="evenodd" stroke-width="0"/><circle cx="82.883" cy="55.375" r="1.694" fill="#262626" stroke-width="0"/><circle cx="90.96" cy="55.375" r="1.694" fill="#262626" stroke-width="0"/><path d="M155.37,73.536h12.782c.554,0,1.006-.453,1.006-.956v-23.198c0-.503-.453-.956-1.006-.956h-12.782c-.503,0-.956.453-.956.956v23.198c0,.503.453.956.956.956Z" fill="#595a5a" stroke-width="0"/><path d="M156.376,69.762h10.819c.403,0,.755-.352.755-.755v-16.053c0-.403-.352-.755-.755-.755h-10.819c-.453,0-.755.352-.755.755v16.053c0,.403.302.755.755.755Z" fill="#d9d9d9" stroke-width="0"/><path d="M166.34,56.98v-2.365c0-.252-.201-.453-.453-.453h-8.202c-.252,0-.453.201-.453.453v2.365h9.108Z" fill="#595a5a" stroke-width="0"/><path d="M166.34,56.98h-9.108v10.165c0,.252.201.453.453.453h8.202c.252,0,.453-.201.453-.453v-10.165Z" fill="#6a6a6a" stroke-width="0"/><path d="M161.761,60.955c.151,0,.302-.101.302-.252v-2.164c0-.151-.151-.252-.302-.252s-.252.101-.252.252v2.164c0,.151.101.252.252.252M162.767,64.679c0-.554-.453-.956-1.006-.956-.503,0-.956.403-.956.956s.453.956.956.956c.554,0,1.006-.403,1.006-.956ZM163.321,64.679c0-.855-.705-1.51-1.56-1.51-.805,0-1.51.654-1.51,1.51s.705,1.51,1.51,1.51c.855,0,1.56-.654,1.56-1.51Z" fill="#fff" fill-rule="evenodd" stroke-width="0"/><rect x="172.58" y="48.174" width="19.625" height="26.067" rx="1.359" ry="1.359" fill="#595a5a" stroke-width="0"/><path d="M174.542,55.923v10.568c0,.554.252,1.107.704,1.56l4.227,4.026c.403.403.956.604,1.51.604h7.095c1.208,0,2.164-.956,2.164-2.164v-18.619c0-1.208-.956-2.164-2.164-2.164h-7.095c-.554,0-1.107.201-1.51.604l-4.227,4.026c-.453.453-.704,1.006-.704,1.56Z" fill="#292929" stroke-width="0"/><path d="M182.543,68.051h4.328v-1.308h-4.328v1.308ZM177.914,61.861h4.328v-1.308h-4.328v1.308ZM182.543,55.671h4.328v-1.258h-4.328v1.258Z" fill="#b3b3b3" fill-rule="evenodd" stroke-width="0"/><rect x="133.35" y="74.946" width="62.149" height="4.528" fill="#595a5a" stroke-width="0"/><rect x="85.155" y="72.682" width="4.527" height="6.791" fill="#595a5a" stroke-width="0"/><rect x="15.927" y="74.946" width="46.75" height="4.528" fill="#595a5a" stroke-width="0"/><path d="M108.213,74.946c-.948,0-1.843-.105-2.738-.316l-6.423-1.579c-.895-.263-1.79-.368-2.738-.368h-6.844c-.263,0-.474.211-.474.474v5.896c0,.211.211.421.474.421h43.853v-4.528h-25.112Z" fill="#6a6a6a" stroke-width="0"/><path d="M92.63,78.789h38.22v-3.159h-22.637c-1,0-1.948-.105-2.895-.368l-6.423-1.579c-.842-.211-1.685-.316-2.58-.316h-3.685v5.422" fill="#d66927" fill-rule="evenodd" stroke-width="0"/><path d="M78.574,74.946h-15.951v4.528h22.795c.211,0,.421-.211.421-.421v-5.896c0-.263-.211-.474-.421-.474h-3.159c-.263,0-.474.105-.684.263l-2.316,1.79c-.211.158-.474.211-.684.211Z" fill="#6a6a6a" stroke-width="0"/><rect x="12.557" y="76.42" width="6.791" height="3.053" fill="#595a5a" stroke-width="0"/><rect x="209.565" y="46.301" width="180.967" height="33.173" fill="#ccc" stroke-width="0"/><path d="M267.091,75.247h28.281c.403,0,.755-.302.755-.755v-25.614c0-.453-.352-.755-.755-.755h-28.281c-.403,0-.755.302-.755.755v25.614c0,.453.352.755.755.755" fill="#e6e6e6" fill-rule="evenodd" stroke-width="0"/><path d="M285.861,49.532c0-.201-.151-.302-.302-.302s-.302.151-.302.302l.201,1.862c0,.101.05.101.101.101s.101-.05.101-.101l.201-1.862M285.911,52.199c0-.201-.151-.352-.352-.352s-.352.151-.352.352c0,.151.151.302.352.302s.352-.151.352-.302Z" fill="#262626" fill-rule="evenodd" stroke-width="0"/><path d="M278.917,50.539c-.201-.805-1.057-1.258-1.862-1.057-.855.252-1.308,1.107-1.057,1.912.252.805,1.107,1.258,1.912,1.057.805-.252,1.258-1.107,1.006-1.912M278.715,50.841c.101.654-.403,1.308-1.107,1.359-.503.101-1.057-.201-1.258-.705l.855-.855.352,1.359,1.157-1.157ZM276.199,51.143c-.05-.704.403-1.359,1.107-1.409.554-.101,1.057.201,1.308.705l-.855.855-.352-1.359-1.208,1.208Z" fill="#262626" fill-rule="evenodd" stroke-width="0"/><circle cx="277.534" cy="55.375" r="1.694" fill="#262626" stroke-width="0"/><circle cx="285.612" cy="55.375" r="1.694" fill="#262626" stroke-width="0"/><path d="M350.021,73.536h12.782c.554,0,1.006-.453,1.006-.956v-23.198c0-.503-.453-.956-1.006-.956h-12.782c-.503,0-.956.453-.956.956v23.198c0,.503.453.956.956.956Z" fill="#595a5a" stroke-width="0"/><path d="M351.027,69.762h10.819c.403,0,.755-.352.755-.755v-16.053c0-.403-.352-.755-.755-.755h-10.819c-.453,0-.755.352-.755.755v16.053c0,.403.302.755.755.755Z" fill="#d9d9d9" stroke-width="0"/><path d="M360.991,56.98v-2.365c0-.252-.201-.453-.453-.453h-8.202c-.252,0-.453.201-.453.453v2.365h9.108Z" fill="#595a5a" stroke-width="0"/><path d="M360.991,56.98h-9.108v10.165c0,.252.201.453.453.453h8.202c.252,0,.453-.201.453-.453v-10.165Z" fill="#6a6a6a" stroke-width="0"/><path d="M356.412,60.955c.151,0,.302-.101.302-.252v-2.164c0-.151-.151-.252-.302-.252s-.252.101-.252.252v2.164c0,.151.101.252.252.252M357.418,64.679c0-.554-.453-.956-1.006-.956-.503,0-.956.403-.956.956s.453.956.956.956c.554,0,1.006-.403,1.006-.956ZM357.972,64.679c0-.855-.705-1.51-1.56-1.51-.805,0-1.51.654-1.51,1.51s.705,1.51,1.51,1.51c.855,0,1.56-.654,1.56-1.51Z" fill="#fff" fill-rule="evenodd" stroke-width="0"/><rect x="367.231" y="48.174" width="19.625" height="26.067" rx="1.359" ry="1.359" fill="#595a5a" stroke-width="0"/><path d="M369.193,55.923v10.568c0,.554.252,1.107.704,1.56l4.227,4.026c.403.403.956.604,1.51.604h7.095c1.208,0,2.164-.956,2.164-2.164v-18.619c0-1.208-.956-2.164-2.164-2.164h-7.095c-.554,0-1.107.201-1.51.604l-4.227,4.026c-.453.453-.704,1.006-.704,1.56Z" fill="#292929" stroke-width="0"/><path d="M377.195,68.051h4.328v-1.308h-4.328v1.308ZM372.565,61.861h4.328v-1.308h-4.328v1.308ZM377.195,55.671h4.328v-1.258h-4.328v1.258Z" fill="#b3b3b3" fill-rule="evenodd" stroke-width="0"/><rect x="329.54" y="75.05" width="60.722" height="4.424" fill="#595a5a" stroke-width="0"/><rect x="282.452" y="72.838" width="4.424" height="6.635" fill="#595a5a" stroke-width="0"/><rect x="214.813" y="75.05" width="45.677" height="4.424" fill="#595a5a" stroke-width="0"/><path d="M304.981,75.05c-.926,0-1.8-.103-2.675-.309l-6.275-1.543c-.874-.257-1.749-.36-2.675-.36h-6.687c-.257,0-.463.206-.463.463v5.761c0,.206.206.411.463.411h42.846v-4.424h-24.535Z" fill="#6a6a6a" stroke-width="0"/><path d="M289.756,78.805h37.343v-3.086h-22.118c-.977,0-1.903-.103-2.829-.36l-6.275-1.543c-.823-.206-1.646-.309-2.52-.309h-3.601v5.298" fill="#d66927" fill-rule="evenodd" stroke-width="0"/><path d="M276.022,75.05h-15.585v4.424h22.272c.206,0,.412-.206.412-.411v-5.761c0-.257-.206-.463-.412-.463h-3.086c-.257,0-.463.103-.669.257l-2.263,1.749c-.206.154-.463.206-.669.206Z" fill="#6a6a6a" stroke-width="0"/><rect x="211.521" y="76.49" width="6.635" height="2.983" fill="#595a5a" stroke-width="0"/><path d="M201.889,56.438h4.126v-4.982h-4.126l-1.912,2.466,1.912,2.516ZM204.103,72.038l1.912-2.516-1.912-2.516h-4.126v5.032h4.126Z" fill="#333" fill-rule="evenodd" stroke-width="0"/><path d="M203.047,69.522c0-.705-.604-1.308-1.359-1.308s-1.359.604-1.359,1.308c0,.755.604,1.359,1.359,1.359s1.359-.604,1.359-1.359M202.795,69.723c-.101.604-.654,1.006-1.258.906-.503-.05-.855-.403-.956-.855l-.05-.05.956-.554v1.258l1.258-.755.05.05ZM200.581,69.371c.05-.604.654-1.006,1.258-.956.453.101.855.453.906.906l-.956.554v-1.258l-1.258.755h.05ZM204.003,53.922c0-.705-.604-1.308-1.359-1.308s-1.359.604-1.359,1.308c0,.755.604,1.359,1.359,1.359s1.359-.604,1.359-1.359ZM203.751,54.123c-.05.604-.654,1.006-1.258.906-.453-.05-.855-.403-.906-.855l-.05-.05.956-.554v1.258l1.258-.755v.05ZM201.537,53.771c.101-.604.654-1.006,1.258-.906.503.05.855.403.956.855l-.956.554v-1.258l-1.258.755Z" fill="#fff" fill-rule="evenodd" stroke-width="0"/><path d="M205.379,55.026h-.266v-1.689c-.063.061-.147.122-.251.183s-.196.106-.279.137v-.256c.148-.07.278-.154.39-.254.11-.099.189-.195.235-.288h.171v2.168Z" fill="#fff" stroke-width="0"/><path d="M204.767,70.375v.255h-1.427c-.003-.063.008-.125.03-.185.036-.097.095-.192.175-.287.08-.094.195-.203.347-.327.234-.192.394-.345.476-.457.083-.112.124-.219.124-.318,0-.105-.037-.194-.112-.267s-.174-.108-.294-.108c-.128,0-.23.039-.307.115s-.115.183-.116.318l-.272-.028c.019-.203.089-.358.211-.465.121-.106.285-.159.49-.159.207,0,.371.057.492.172.12.115.181.258.181.428,0,.086-.018.171-.053.255-.035.083-.094.171-.176.264-.082.092-.219.219-.409.38-.159.133-.262.224-.307.271s-.082.096-.111.144h1.059Z" fill="#fff" stroke-width="0"/><rect x="14.914" y="10.655" width="180.967" height="33.173" fill="#e6e6e6" stroke-width="0"/><polyline points="201.889 21.553 206.016 21.553 206.016 16.571 201.889 16.571 199.977 19.037 201.889 21.553" fill="#333" fill-rule="evenodd" stroke-width="0"/><polygon points="204.103 37.152 206.016 34.636 204.103 32.171 199.977 32.171 199.977 37.152 204.103 37.152" fill="#333" fill-rule="evenodd" stroke-width="0"/><path d="M205.345,20.393h-.569l-.227-.588h-1.036l-.214.588h-.555l1.01-2.591h.553l1.038,2.591ZM204.381,19.368l-.357-.961-.35.961h.707Z" fill="#fff" stroke-width="0"/><path d="M201.098,33.403h1.035c.205,0,.358.009.459.026.101.017.19.053.271.106.079.055.146.127.198.217.054.09.08.191.08.303,0,.122-.033.233-.099.334-.064.102-.153.178-.266.229.158.046.279.124.364.235.085.11.127.24.127.391,0,.117-.027.232-.082.344s-.13.2-.225.267-.212.107-.351.123c-.087.01-.298.016-.631.018h-.882v-2.592ZM201.621,33.834v.6h.343c.204,0,.331-.003.381-.009.089-.011.159-.042.211-.093.051-.052.077-.119.077-.203,0-.08-.022-.145-.066-.195-.044-.05-.11-.08-.197-.091-.052-.006-.201-.009-.447-.009h-.301ZM201.621,34.865v.693h.484c.188,0,.309-.006.359-.016.077-.015.141-.049.189-.104s.073-.128.073-.221c0-.077-.019-.144-.057-.197-.037-.055-.092-.094-.163-.119-.071-.024-.226-.037-.464-.037h-.423Z" fill="#fff" stroke-width="0"/><rect x="209.565" y="10.655" width="180.967" height="33.173" fill="#e6e6e6" stroke-width="0"/><rect x="114.256" y="10.859" width="81.218" height="26.993" fill="#999" stroke-width="0"/><rect x="154.865" y="10.859" width="29.621" height="20.902" fill="#2762ac" stroke-width="0"/><rect x="114.211" y="10.859" width="40.415" height="20.902" fill="#f5f6f6" stroke-width="0"/><rect x="15.227" y="10.882" width="95.46" height="30.579" fill="#999" stroke-width="0"/><path d="M87.622,24.943h15.745c.39,0,.634-.244.634-.634v-7.361c0-.39-.244-.682-.634-.682h-15.745c-.341,0-.634.292-.634.682v7.361c0,.39.292.634.634.634Z" fill="#f5f6f6" fill-rule="evenodd" stroke-width="0"/><rect x="67.588" y="15.658" width="12.869" height="8.336" rx=".634" ry=".634" fill="#f5f6f6" stroke-width="0"/><rect x="23.345" y="12.204" width="17.11" height="12.041" rx=".634" ry=".634" fill="#f5f6f6" stroke-width="0"/><rect x="43.951" y="12.204" width="17.11" height="12.041" rx=".634" ry=".634" fill="#f5f6f6" stroke-width="0"/><rect x="16.045" y="24.87" width="64.176" height="14.858" fill="#2762ac" stroke-width="0"/><rect x="23.186" y="28.799" width="12.566" height="8.149" fill="#ee7623" stroke="#2762ac" stroke-miterlimit="10" stroke-width=".393"/><rect x="36.199" y="28.799" width="12.566" height="8.149" fill="#ee7623" stroke="#2762ac" stroke-miterlimit="10" stroke-width=".393"/><rect x="49.212" y="28.799" width="12.566" height="8.149" fill="#ee7623" stroke="#2762ac" stroke-miterlimit="10" stroke-width=".393"/><rect x="62.225" y="28.799" width="12.566" height="8.149" fill="#ee7623" stroke="#2762ac" stroke-miterlimit="10" stroke-width=".393"/><circle cx="26.839" cy="26.709" r=".854" fill="#262626" stroke-width="0"/><circle cx="32.281" cy="26.709" r=".854" fill="#262626" stroke-width="0"/><circle cx="39.811" cy="26.709" r=".854" fill="#262626" stroke-width="0"/><circle cx="45.254" cy="26.709" r=".854" fill="#262626" stroke-width="0"/><circle cx="52.784" cy="26.709" r=".854" fill="#262626" stroke-width="0"/><circle cx="58.226" cy="26.709" r=".854" fill="#262626" stroke-width="0"/><circle cx="65.757" cy="26.709" r=".854" fill="#262626" stroke-width="0"/><circle cx="71.199" cy="26.709" r=".854" fill="#262626" stroke-width="0"/><polygon points="26.31 19.921 26.31 22.504 37.425 22.504 37.425 19.921 37.181 19.921 37.181 18.166 37.425 18.166 37.425 15.631 34.987 15.631 34.987 14.022 33.915 14.022 33.915 13.242 29.771 13.242 29.771 14.022 28.748 14.022 28.748 15.631 26.31 15.631 26.31 18.166 26.505 18.166 26.505 19.921 26.31 19.921" fill="#262626" stroke-width="0"/><polygon points="46.882 19.921 46.882 22.504 57.996 22.504 57.996 19.921 57.752 19.921 57.752 18.166 57.996 18.166 57.996 15.631 55.559 15.631 55.559 14.022 54.486 14.022 54.486 13.242 50.343 13.242 50.343 14.022 49.319 14.022 49.319 15.631 46.882 15.631 46.882 18.166 47.077 18.166 47.077 19.921 46.882 19.921" fill="#262626" stroke-width="0"/><path d="M71.063,21.767h6.045c.829,0,1.511-.682,1.511-1.511v-.487c0-.829-.682-1.462-1.511-1.462h-6.045c-.829,0-1.462.634-1.462,1.462v.487c0,.829.634,1.511,1.462,1.511Z" fill="#1a1a1a" fill-rule="evenodd" stroke-width="0"/><path d="M101.022,18.139h-10.822c-.146,0-.292.098-.292.244v4.144c0,.146.146.244.292.244h10.822c.146,0,.292-.097.292-.244v-4.144c0-.146-.146-.244-.292-.244Z" fill="#262626" stroke-width="0"/><polygon points="18.997 33.029 19.618 33.029 19.618 34.982 19.897 34.982 19.897 34.238 20.455 34.238 20.455 34.765 21.509 34.765 21.509 33.37 20.455 33.37 20.455 33.866 19.897 33.866 19.897 31.882 20.455 31.882 20.455 32.347 21.509 32.347 21.509 30.982 20.455 30.982 20.455 31.509 19.897 31.509 19.897 30.827 19.618 30.827 19.618 32.657 18.997 32.657 18.966 32.099 17.881 32.099 17.881 33.556 18.966 33.556 18.997 33.029" fill="#fff" fill-rule="evenodd" stroke-width="0"/><path d="M107.439,18.478v3.266l-.731-.731v-.634c.195-.097.244-.292.195-.487-.098-.146-.292-.244-.487-.195-.146.097-.244.292-.195.487.049.098.146.146.195.195v.78l1.024.975v.341c-.292.049-.487.341-.39.634.049.292.341.487.634.39.292-.049.487-.341.39-.634-.049-.195-.195-.341-.39-.39v-1.267l.975-.975v-.634h.244v-.731h-.731v.731h.244v.487l-.731.731v-2.34h.244l-.39-.731-.341.731h.244Z" fill="#f2f2f2" fill-rule="evenodd" stroke-width="0"/><path d="M20.951,18.18h-2.389c-.195-.536-.731-.78-1.267-.634-.097.049-.195.097-.292.195v.146h.536l.341.634-.341.585h-.536v.146c.439.341,1.024.292,1.365-.146.097-.049.146-.195.195-.292h2.389c.146.487.682.682,1.121.536.097-.049.195-.097.244-.146v-.146h-.487l-.292-.536.292-.585h.487v-.097c-.39-.341-.926-.292-1.219.097-.097.049-.146.146-.146.244Z" fill="#f2f2f2" fill-rule="evenodd" stroke-width="0"/><path d="M119.643,27.465h9.36c.097,0,.195-.097.195-.195v-9.36c0-.097-.097-.244-.195-.244h-9.36c-.146,0-.244.146-.244.244v9.36c0,.097.098.195.244.195" fill="#262626" fill-rule="evenodd" stroke-width="0"/><path d="M132.738,27.465h9.36c.097,0,.195-.097.195-.195v-9.36c0-.097-.097-.244-.195-.244h-9.36c-.146,0-.244.146-.244.244v9.36c0,.097.098.195.244.195" fill="#262626" fill-rule="evenodd" stroke-width="0"/><path d="M143.356,27.465h9.36c.097,0,.195-.097.195-.195v-9.36c0-.097-.097-.244-.195-.244h-9.36c-.146,0-.244.146-.244.244v9.36c0,.097.098.195.244.195" fill="#262626" fill-rule="evenodd" stroke-width="0"/><rect x="156.682" y="17.518" width="12.566" height="8.149" fill="#262626" stroke-width="0"/><rect x="169.688" y="17.518" width="12.566" height="8.149" fill="#262626" stroke-width="0"/><circle cx="122.212" cy="13.92" r="1.106" fill="#262626" stroke-width="0"/><circle cx="126.309" cy="13.92" r="1.106" fill="#262626" stroke-width="0"/><circle cx="135.672" cy="13.92" r="1.106" fill="#262626" stroke-width="0"/><circle cx="139.769" cy="13.92" r="1.106" fill="#262626" stroke-width="0"/><circle cx="145.475" cy="13.92" r="1.106" fill="#262626" stroke-width="0"/><circle cx="149.572" cy="13.92" r="1.106" fill="#262626" stroke-width="0"/><circle cx="160.204" cy="13.92" r="1.106" fill="#262626" stroke-width="0"/><circle cx="166.495" cy="13.92" r="1.106" fill="#262626" stroke-width="0"/><circle cx="173.03" cy="13.92" r="1.106" fill="#262626" stroke-width="0"/><circle cx="179.322" cy="13.92" r="1.106" fill="#262626" stroke-width="0"/><path d="M106.834,37.64v3.722H19.846v1.349h86.988v1.117h88.657v-4.42h-80.168v-2.233h-8.06c-.238,0-.429.186-.429.465Z" fill="#4d4e4e" stroke-width="0"/><path d="M111.937,39.408h-19.172c-.191,0-.429.093-.572.233l-2.671,2.605c-.191.14-.382.233-.62.233H24.377c-.191,0-.429-.093-.572-.233l-2.671-2.605c-.191-.14-.382-.233-.62-.233h-4.531v1.396h-3.386v3.024h99.34v-4.42Z" fill="#4d4e4e" stroke-width="0"/><path d="M125.767,37.175h-13.83v6.653h28.853v-4.42h-3.052c-.572,0-1.145-.093-1.717-.186l-8.584-1.861c-.525-.093-1.097-.186-1.669-.186Z" fill="#6a6a6a" stroke-width="0"/><path d="M137.881,40.106h-3.1c-.906,0-1.812-.093-2.718-.279l-5.961-1.349c-.763-.186-1.574-.279-2.385-.279h-3.481v4.606h17.646v-2.698" fill="#d66927" fill-rule="evenodd" stroke-width="0"/><rect x="66.647" y="18.553" width=".159" height="1.591" fill="#fff" stroke-width="0"/><path d="M66.17,19.348c0,.345-.292.637-.637.637s-.637-.292-.637-.637.292-.637.637-.637.637.292.637.637Z" fill="none" stroke="#fff" stroke-miterlimit="10" stroke-width=".168"/><rect x="64.26" y="18.553" width=".186" height="1.591" fill="#fff" stroke-width="0"/><path d="M63.783,19.348c0,.345-.265.637-.637.637-.345,0-.637-.292-.637-.637s.292-.637.637-.637c.371,0,.637.292.637.637Z" fill="none" stroke="#fff" stroke-miterlimit="10" stroke-width=".168"/><rect x="61.873" y="18.553" width=".186" height="1.591" fill="#fff" stroke-width="0"/><rect x="309.319" y="10.859" width="81.218" height="26.993" fill="#999" stroke-width="0"/><rect x="349.928" y="10.859" width="29.621" height="20.902" fill="#2762ac" stroke-width="0"/><rect x="309.275" y="10.859" width="40.415" height="20.902" fill="#f5f6f6" stroke-width="0"/><rect x="210.29" y="10.882" width="95.46" height="30.579" fill="#999" stroke-width="0"/><path d="M282.686,24.943h15.745c.39,0,.634-.244.634-.634v-7.361c0-.39-.244-.682-.634-.682h-15.745c-.341,0-.634.292-.634.682v7.361c0,.39.292.634.634.634Z" fill="#f5f6f6" fill-rule="evenodd" stroke-width="0"/><rect x="262.651" y="15.658" width="12.869" height="8.336" rx=".634" ry=".634" fill="#f5f6f6" stroke-width="0"/><rect x="218.408" y="12.204" width="17.11" height="12.041" rx=".634" ry=".634" fill="#f5f6f6" stroke-width="0"/><rect x="239.015" y="12.204" width="17.11" height="12.041" rx=".634" ry=".634" fill="#f5f6f6" stroke-width="0"/><rect x="211.108" y="24.87" width="64.176" height="14.858" fill="#2762ac" stroke-width="0"/><rect x="218.249" y="28.799" width="12.566" height="8.149" fill="#ee7623" stroke="#2762ac" stroke-miterlimit="10" stroke-width=".393"/><rect x="231.262" y="28.799" width="12.566" height="8.149" fill="#ee7623" stroke="#2762ac" stroke-miterlimit="10" stroke-width=".393"/><rect x="244.275" y="28.799" width="12.566" height="8.149" fill="#ee7623" stroke="#2762ac" stroke-miterlimit="10" stroke-width=".393"/><rect x="257.288" y="28.799" width="12.566" height="8.149" fill="#ee7623" stroke="#2762ac" stroke-miterlimit="10" stroke-width=".393"/><circle cx="227.344" cy="26.709" r=".854" fill="#262626" stroke-width="0"/><circle cx="234.875" cy="26.709" r=".854" fill="#262626" stroke-width="0"/><circle cx="240.317" cy="26.709" r=".854" fill="#262626" stroke-width="0"/><circle cx="247.847" cy="26.709" r=".854" fill="#262626" stroke-width="0"/><circle cx="253.289" cy="26.709" r=".854" fill="#262626" stroke-width="0"/><circle cx="260.82" cy="26.709" r=".854" fill="#262626" stroke-width="0"/><circle cx="266.262" cy="26.709" r=".854" fill="#262626" stroke-width="0"/><polygon points="221.373 19.921 221.373 22.504 232.488 22.504 232.488 19.921 232.244 19.921 232.244 18.166 232.488 18.166 232.488 15.631 230.051 15.631 230.051 14.022 228.978 14.022 228.978 13.242 224.835 13.242 224.835 14.022 223.811 14.022 223.811 15.631 221.373 15.631 221.373 18.166 221.568 18.166 221.568 19.921 221.373 19.921" fill="#262626" stroke-width="0"/><polygon points="241.945 19.921 241.945 22.504 253.059 22.504 253.059 19.921 252.816 19.921 252.816 18.166 253.059 18.166 253.059 15.631 250.622 15.631 250.622 14.022 249.55 14.022 249.55 13.242 245.406 13.242 245.406 14.022 244.382 14.022 244.382 15.631 241.945 15.631 241.945 18.166 242.14 18.166 242.14 19.921 241.945 19.921" fill="#262626" stroke-width="0"/><path d="M266.126,21.767h6.045c.829,0,1.511-.682,1.511-1.511v-.487c0-.829-.682-1.462-1.511-1.462h-6.045c-.829,0-1.462.634-1.462,1.462v.487c0,.829.634,1.511,1.462,1.511Z" fill="#1a1a1a" fill-rule="evenodd" stroke-width="0"/><path d="M296.085,18.139h-10.822c-.146,0-.292.098-.292.244v4.144c0,.146.146.244.292.244h10.822c.146,0,.292-.097.292-.244v-4.144c0-.146-.146-.244-.292-.244Z" fill="#262626" stroke-width="0"/><path d="M302.502,18.478v3.266l-.731-.731v-.634c.195-.097.244-.292.195-.487-.098-.146-.292-.244-.487-.195-.146.097-.244.292-.195.487.049.098.146.146.195.195v.78l1.024.975v.341c-.292.049-.487.341-.39.634.049.292.341.487.634.39.292-.049.487-.341.39-.634-.049-.195-.195-.341-.39-.39v-1.267l.975-.975v-.634h.244v-.731h-.731v.731h.244v.487l-.731.731v-2.34h.244l-.39-.731-.341.731h.244Z" fill="#f2f2f2" fill-rule="evenodd" stroke-width="0"/><path d="M314.706,27.465h9.36c.097,0,.195-.097.195-.195v-9.36c0-.097-.097-.244-.195-.244h-9.36c-.146,0-.244.146-.244.244v9.36c0,.097.098.195.244.195" fill="#262626" fill-rule="evenodd" stroke-width="0"/><path d="M327.801,27.465h9.36c.097,0,.195-.097.195-.195v-9.36c0-.097-.097-.244-.195-.244h-9.36c-.146,0-.244.146-.244.244v9.36c0,.097.098.195.244.195" fill="#262626" fill-rule="evenodd" stroke-width="0"/><path d="M338.419,27.465h9.36c.097,0,.195-.097.195-.195v-9.36c0-.097-.097-.244-.195-.244h-9.36c-.146,0-.244.146-.244.244v9.36c0,.097.098.195.244.195" fill="#262626" fill-rule="evenodd" stroke-width="0"/><rect x="351.745" y="17.518" width="12.566" height="8.149" fill="#262626" stroke-width="0"/><rect x="364.752" y="17.518" width="12.566" height="8.149" fill="#262626" stroke-width="0"/><circle cx="317.275" cy="13.92" r="1.106" fill="#262626" stroke-width="0"/><circle cx="321.372" cy="13.92" r="1.106" fill="#262626" stroke-width="0"/><circle cx="330.736" cy="13.92" r="1.106" fill="#262626" stroke-width="0"/><circle cx="334.832" cy="13.92" r="1.106" fill="#262626" stroke-width="0"/><circle cx="340.538" cy="13.92" r="1.106" fill="#262626" stroke-width="0"/><circle cx="344.635" cy="13.92" r="1.106" fill="#262626" stroke-width="0"/><circle cx="355.267" cy="13.92" r="1.106" fill="#262626" stroke-width="0"/><circle cx="361.558" cy="13.92" r="1.106" fill="#262626" stroke-width="0"/><circle cx="368.094" cy="13.92" r="1.106" fill="#262626" stroke-width="0"/><circle cx="374.385" cy="13.92" r="1.106" fill="#262626" stroke-width="0"/><path d="M301.897,37.64v3.722h-86.988v1.349h86.988v1.117h88.657v-4.42h-80.168v-2.233h-8.06c-.238,0-.429.186-.429.465Z" fill="#4d4e4e" stroke-width="0"/><path d="M307,39.408h-19.172c-.191,0-.429.093-.572.233l-2.671,2.605c-.191.14-.382.233-.62.233h-64.525c-.191,0-.429-.093-.572-.233l-2.671-2.605c-.191-.14-.382-.233-.62-.233h-4.531v1.396h-3.386v3.024h99.34v-4.42Z" fill="#4d4e4e" stroke-width="0"/><path d="M320.831,37.175h-13.83v6.653h28.853v-4.42h-3.052c-.572,0-1.145-.093-1.717-.186l-8.584-1.861c-.525-.093-1.097-.186-1.669-.186Z" fill="#6a6a6a" stroke-width="0"/><path d="M332.944,40.106h-3.1c-.906,0-1.812-.093-2.718-.279l-5.961-1.349c-.763-.186-1.574-.279-2.385-.279h-3.481v4.606h17.646v-2.698" fill="#d66927" fill-rule="evenodd" stroke-width="0"/><rect x="261.711" y="18.553" width=".159" height="1.591" fill="#fff" stroke-width="0"/><path d="M261.233,19.348c0,.345-.292.637-.637.637s-.637-.292-.637-.637.292-.637.637-.637.637.292.637.637Z" fill="none" stroke="#fff" stroke-miterlimit="10" stroke-width=".168"/><rect x="259.324" y="18.553" width=".186" height="1.591" fill="#fff" stroke-width="0"/><path d="M258.846,19.348c0,.345-.265.637-.637.637-.345,0-.637-.292-.637-.637s.292-.637.637-.637c.371,0,.637.292.637.637Z" fill="none" stroke="#fff" stroke-miterlimit="10" stroke-width=".168"/><rect x="256.936" y="18.553" width=".186" height="1.591" fill="#fff" stroke-width="0"/><path d="M215.354,18.18h-2.389c-.195-.536-.731-.78-1.267-.634-.097.049-.195.097-.292.195v.146h.536l.341.634-.341.585h-.536v.146c.439.341,1.024.292,1.365-.146.097-.049.146-.195.195-.292h2.389c.146.487.682.682,1.121.536.097-.049.195-.097.244-.146v-.146h-.487l-.292-.536.292-.585h.487v-.097c-.39-.341-.926-.292-1.219.097-.097.049-.146.146-.146.244Z" fill="#f2f2f2" fill-rule="evenodd" stroke-width="0"/><polygon points="214.002 33.029 214.622 33.029 214.622 34.982 214.901 34.982 214.901 34.238 215.459 34.238 215.459 34.765 216.513 34.765 216.513 33.37 215.459 33.37 215.459 33.866 214.901 33.866 214.901 31.882 215.459 31.882 215.459 32.347 216.513 32.347 216.513 30.982 215.459 30.982 215.459 31.509 214.901 31.509 214.901 30.827 214.622 30.827 214.622 32.657 214.002 32.657 213.971 32.099 212.885 32.099 212.885 33.556 213.971 33.556 214.002 33.029" fill="#fff" fill-rule="evenodd" stroke-width="0"/><polyline points="29.564 34.987 29.564 120.876 92.141 120.876" fill="none" stroke="#ee7623" stroke-linecap="round" stroke-linejoin="round" stroke-width="2"/><polyline points="42.584 34.987 42.584 113.179 92.141 113.179" fill="none" stroke="#ee7623" stroke-linecap="round" stroke-linejoin="round" stroke-width="2"/><polyline points="55.604 34.987 55.604 105.135 92.141 105.135" fill="none" stroke="#ee7623" stroke-linecap="round" stroke-linejoin="round" stroke-width="2"/><polyline points="68.623 34.987 68.623 97.396 92.141 97.396" fill="none" stroke="#ee7623" stroke-linecap="round" stroke-linejoin="round" stroke-width="2"/><circle cx="92.271" cy="97.323" r="2.661" fill="#ee7623" stroke-width="0"/><circle cx="92.271" cy="105.069" r="2.661" fill="#ee7623" stroke-width="0"/><circle cx="92.271" cy="113.141" r="2.661" fill="#ee7623" stroke-width="0"/><circle cx="92.271" cy="120.803" r="2.661" fill="#ee7623" stroke-width="0"/><polyline points="263.646 34.987 263.646 120.876 201.99 120.876" fill="none" stroke="#ee7623" stroke-linecap="round" stroke-linejoin="round" stroke-width="2"/><polyline points="250.626 34.987 250.626 113.179 201.99 113.179" fill="none" stroke="#ee7623" stroke-linecap="round" stroke-linejoin="round" stroke-width="2"/><polyline points="237.607 34.987 237.607 105.135 201.99 105.135" fill="none" stroke="#ee7623" stroke-linecap="round" stroke-linejoin="round" stroke-width="2"/><polyline points="224.587 34.987 224.587 97.396 201.99 97.396" fill="none" stroke="#ee7623" stroke-linecap="round" stroke-linejoin="round" stroke-width="2"/><circle cx="201.861" cy="97.323" r="2.661" fill="#ee7623" stroke-width="0"/><circle cx="201.861" cy="105.069" r="2.661" fill="#ee7623" stroke-width="0"/><circle cx="201.861" cy="113.141" r="2.661" fill="#ee7623" stroke-width="0"/><circle cx="201.861" cy="120.803" r="2.661" fill="#ee7623" stroke-width="0"/><path d="M99.702,110.739h22.478v-14.503c0-.176-.145-.311-.324-.311h-21.832c-.178,0-.321.135-.321.311v14.503Z" fill="#ee7623" stroke-width="0"/><path d="M107.498,106.317l1.341-1.277c.607.683,1.24,1.062,2.138,1.062.733,0,1.252-.418,1.252-1.075v-.025c0-.721-.645-1.126-1.733-1.126h-.81l-.304-1.239,2.113-2.125h-3.479v-1.67h5.983v1.467l-2.239,2.138c1.202.203,2.378.835,2.378,2.479v.025c0,1.67-1.214,2.896-3.188,2.896-1.594,0-2.694-.632-3.454-1.53Z" fill="#fff" stroke-width="0"/><path d="M128.418,98.241v-1.089h4.826v1.089h-1.766v4.802h-1.295v-4.802h-1.765Z" fill="#ee7623" stroke-width="0"/><path d="M132.907,99.986c.104-.277.253-.515.445-.71.192-.194.423-.346.692-.453s.572-.161.908-.161.639.054.911.161.505.259.697.453c.192.195.341.433.445.71s.157.587.157.928-.053.649-.157.925c-.104.274-.253.51-.445.705s-.425.345-.697.449-.576.157-.911.157-.639-.053-.908-.157-.5-.254-.692-.449-.342-.431-.445-.705c-.105-.275-.157-.583-.157-.925s.052-.65.157-.928ZM133.97,101.414c.033.162.09.308.17.437.079.13.186.232.317.31s.297.115.495.115.364-.038.499-.115.242-.18.321-.31c.08-.129.137-.274.169-.437.033-.163.05-.329.05-.5,0-.17-.017-.338-.05-.503-.032-.165-.089-.311-.169-.438-.079-.126-.187-.229-.321-.309-.135-.08-.302-.12-.499-.12s-.363.04-.495.12c-.132.079-.238.183-.317.309-.08.127-.137.272-.17.438-.032.165-.049.333-.049.503,0,.171.017.337.049.5Z" fill="#ee7623" stroke-width="0"/><path d="M143.244,102.498c-.138.231-.318.397-.541.5-.223.102-.474.152-.755.152-.318,0-.6-.062-.841-.186-.242-.124-.441-.292-.599-.504-.156-.211-.275-.455-.354-.729-.08-.275-.12-.562-.12-.858,0-.286.04-.562.12-.829.079-.267.198-.502.354-.705.157-.203.354-.367.59-.491s.512-.186.825-.186c.253,0,.493.054.722.161s.408.266.54.475h.017v-2.146h1.172v5.891h-1.113v-.545h-.017ZM143.194,100.39c-.033-.162-.09-.306-.169-.429-.08-.124-.184-.225-.31-.302-.127-.076-.286-.115-.479-.115s-.354.039-.486.115c-.133.077-.238.179-.318.306-.079.127-.138.271-.173.433-.036.163-.054.332-.054.508,0,.165.02.33.058.495s.101.312.186.441.192.233.322.313c.129.08.284.119.466.119.192,0,.354-.038.482-.115s.232-.18.31-.31c.077-.129.132-.276.165-.441s.05-.335.05-.511c0-.177-.017-.346-.05-.508Z" fill="#ee7623" stroke-width="0"/><path d="M145.208,100.089c.016-.275.085-.504.206-.686.121-.181.274-.327.462-.437.187-.11.397-.188.631-.235s.469-.07.705-.07c.215,0,.432.016.652.046.22.03.421.089.602.177.182.088.33.211.446.367.115.157.173.364.173.623v2.219c0,.193.011.377.033.553.021.177.061.309.115.396h-1.188c-.022-.066-.04-.133-.054-.202-.014-.068-.023-.139-.029-.21-.187.192-.407.327-.66.404-.253.076-.511.115-.775.115-.203,0-.394-.025-.569-.074-.176-.05-.33-.127-.462-.231s-.235-.236-.31-.396c-.074-.16-.111-.35-.111-.569,0-.242.043-.441.128-.599.086-.156.195-.281.33-.375s.289-.164.462-.21c.174-.047.348-.084.524-.112.176-.027.349-.049.52-.065.17-.017.321-.041.454-.074.132-.033.236-.081.313-.145.076-.063.112-.155.106-.276,0-.126-.021-.227-.062-.301s-.097-.132-.165-.174c-.068-.041-.148-.068-.239-.082s-.188-.021-.293-.021c-.23,0-.412.049-.544.148-.133.099-.209.264-.231.495h-1.171ZM147.913,100.956c-.049.044-.111.078-.186.103-.074.025-.153.046-.239.062-.085.017-.174.03-.268.041s-.188.024-.28.041c-.089.017-.175.039-.261.066-.085.027-.159.064-.223.111-.062.047-.114.105-.152.177-.038.072-.058.163-.058.272,0,.104.02.192.058.264.038.072.091.128.157.17.065.041.143.069.23.086s.179.025.272.025c.23,0,.409-.039.536-.116.127-.076.22-.169.28-.276.061-.106.098-.216.111-.325.014-.11.021-.198.021-.265v-.437Z" fill="#ee7623" stroke-width="0"/><path d="M152.334,98.777v.784h-.857v2.112c0,.197.033.33.099.396.066.066.198.1.396.1.065,0,.129-.003.189-.009.061-.005.118-.014.173-.024v.907c-.099.017-.209.027-.329.033-.121.005-.239.008-.355.008-.182,0-.354-.012-.516-.037-.162-.024-.305-.072-.429-.145-.124-.071-.222-.173-.293-.305s-.107-.306-.107-.52v-2.517h-.709v-.784h.709v-1.278h1.172v1.278h.857Z" fill="#ee7623" stroke-width="0"/><path d="M152.847,100.089c.016-.275.085-.504.206-.686.121-.181.274-.327.462-.437.187-.11.397-.188.631-.235s.469-.07.705-.07c.215,0,.432.016.652.046.22.03.421.089.602.177.182.088.33.211.446.367.115.157.173.364.173.623v2.219c0,.193.011.377.033.553.021.177.061.309.115.396h-1.188c-.022-.066-.04-.133-.054-.202-.014-.068-.023-.139-.029-.21-.187.192-.407.327-.66.404-.253.076-.511.115-.775.115-.203,0-.394-.025-.569-.074-.176-.05-.33-.127-.462-.231s-.235-.236-.31-.396c-.074-.16-.111-.35-.111-.569,0-.242.043-.441.128-.599.086-.156.195-.281.33-.375s.289-.164.462-.21c.174-.047.348-.084.524-.112.176-.027.349-.049.52-.065.17-.017.321-.041.454-.074.132-.033.236-.081.313-.145.076-.063.112-.155.106-.276,0-.126-.021-.227-.062-.301s-.097-.132-.165-.174c-.068-.041-.148-.068-.239-.082s-.188-.021-.293-.021c-.23,0-.412.049-.544.148-.133.099-.209.264-.231.495h-1.171ZM155.552,100.956c-.049.044-.111.078-.186.103-.074.025-.153.046-.239.062-.085.017-.174.03-.268.041s-.188.024-.28.041c-.089.017-.175.039-.261.066-.085.027-.159.064-.223.111-.062.047-.114.105-.152.177-.038.072-.058.163-.058.272,0,.104.02.192.058.264.038.072.091.128.157.17.065.041.143.069.23.086s.179.025.272.025c.23,0,.409-.039.536-.116.127-.076.22-.169.28-.276.061-.106.098-.216.111-.325.014-.11.021-.198.021-.265v-.437Z" fill="#ee7623" stroke-width="0"/><path d="M161.039,98.777v.595h.024c.148-.248.341-.428.577-.541.236-.112.479-.169.727-.169.313,0,.57.043.771.128.2.085.358.203.474.354.116.151.197.336.244.553.046.218.069.458.069.723v2.623h-1.171v-2.409c0-.352-.056-.614-.165-.788-.11-.173-.306-.26-.586-.26-.319,0-.55.095-.693.285-.143.189-.214.502-.214.937v2.235h-1.172v-4.266h1.114Z" fill="#ee7623" stroke-width="0"/><path d="M166.071,102.019c.176.171.43.256.76.256.236,0,.439-.059.61-.177.17-.118.274-.244.313-.376h1.031c-.165.512-.418.878-.76,1.098-.341.22-.753.33-1.237.33-.335,0-.638-.054-.907-.161s-.498-.26-.685-.458c-.188-.198-.332-.435-.434-.709-.102-.275-.152-.578-.152-.908,0-.318.052-.615.157-.891.104-.275.252-.513.445-.714.192-.2.422-.358.688-.474.267-.116.562-.174.887-.174.363,0,.68.07.949.211.27.14.49.328.664.564.173.236.298.506.375.809s.104.619.083.949h-3.077c.017.379.112.654.288.824ZM167.395,99.776c-.14-.154-.354-.231-.64-.231-.187,0-.342.032-.466.095-.124.063-.223.142-.297.235s-.127.192-.156.297c-.031.104-.049.198-.054.28h1.905c-.055-.297-.152-.522-.293-.676Z" fill="#ee7623" stroke-width="0"/><path d="M171.895,98.777v.784h-.857v2.112c0,.197.033.33.099.396.066.066.198.1.396.1.065,0,.129-.003.189-.009.061-.005.118-.014.173-.024v.907c-.099.017-.209.027-.329.033-.121.005-.239.008-.355.008-.182,0-.354-.012-.516-.037-.162-.024-.305-.072-.429-.145-.124-.071-.222-.173-.293-.305s-.107-.306-.107-.52v-2.517h-.709v-.784h.709v-1.278h1.172v1.278h.857Z" fill="#ee7623" stroke-width="0"/><path d="M176.127,103.042l-.76-2.862h-.017l-.726,2.862h-1.213l-1.353-4.266h1.237l.783,2.896h.017l.71-2.896h1.139l.726,2.888h.017l.784-2.888h1.204l-1.345,4.266h-1.204Z" fill="#ee7623" stroke-width="0"/><path d="M179.197,99.986c.104-.277.253-.515.445-.71.192-.194.423-.346.692-.453s.572-.161.908-.161.639.054.911.161.505.259.697.453c.192.195.341.433.445.71s.157.587.157.928-.053.649-.157.925c-.104.274-.253.51-.445.705s-.425.345-.697.449-.576.157-.911.157-.639-.053-.908-.157-.5-.254-.692-.449-.342-.431-.445-.705c-.105-.275-.157-.583-.157-.925s.052-.65.157-.928ZM180.26,101.414c.033.162.09.308.17.437.079.13.186.232.317.31s.297.115.495.115.364-.038.499-.115.242-.18.321-.31c.08-.129.137-.274.169-.437.033-.163.05-.329.05-.5,0-.17-.017-.338-.05-.503-.032-.165-.089-.311-.169-.438-.079-.126-.187-.229-.321-.309-.135-.08-.302-.12-.499-.12s-.363.04-.495.12c-.132.079-.238.183-.317.309-.08.127-.137.272-.17.438-.032.165-.049.333-.049.503,0,.171.017.337.049.5Z" fill="#ee7623" stroke-width="0"/><path d="M185.327,98.777v.792h.017c.055-.132.129-.254.223-.367.093-.112.2-.209.321-.288.121-.08.25-.142.388-.186s.28-.066.429-.066c.077,0,.163.014.256.041v1.089c-.055-.011-.121-.021-.197-.028-.077-.009-.151-.013-.223-.013-.215,0-.396.036-.545.107s-.269.169-.359.293c-.09.124-.155.269-.193.433-.039.165-.058.345-.058.537v1.922h-1.172v-4.266h1.114Z" fill="#ee7623" stroke-width="0"/><path d="M188.701,97.152v3.16l1.477-1.535h1.386l-1.608,1.568,1.79,2.697h-1.419l-1.172-1.905-.453.437v1.469h-1.172v-5.891h1.172Z" fill="#ee7623" stroke-width="0"/><path d="M193.51,101.772v1.271c0,.187-.035.358-.104.516s-.161.293-.276.408-.252.211-.408.285c-.157.074-.323.125-.499.152v-.594c.082-.017.161-.05.235-.1.074-.049.139-.108.193-.177.055-.069.097-.146.124-.231s.038-.172.033-.26h-.595v-1.271h1.296Z" fill="#ee7623" stroke-width="0"/><path d="M129.895,106.886v.578h.017c.154-.22.339-.391.557-.512s.466-.182.747-.182c.27,0,.516.053.739.157.223.104.392.288.507.553.127-.188.299-.353.516-.495.218-.144.475-.215.771-.215.226,0,.435.027.627.083.192.055.357.143.495.264s.245.279.322.475c.076.195.115.43.115.705v2.854h-1.172v-2.417c0-.144-.005-.278-.017-.404-.011-.127-.041-.236-.091-.33-.049-.094-.122-.168-.218-.223-.097-.055-.228-.083-.393-.083s-.298.032-.399.095c-.103.063-.182.146-.239.248-.059.102-.097.217-.116.347-.019.129-.028.26-.028.392v2.376h-1.172v-2.393c0-.126-.003-.252-.008-.375-.005-.124-.029-.238-.07-.343-.042-.104-.11-.188-.207-.252-.096-.062-.238-.095-.425-.095-.055,0-.128.013-.219.037-.09.025-.179.072-.264.141-.085.068-.158.168-.219.297s-.091.299-.091.508v2.475h-1.171v-4.266h1.105Z" fill="#ee7623" stroke-width="0"/><path d="M137.485,110.128c.176.171.43.256.76.256.236,0,.439-.059.61-.177.17-.118.274-.244.313-.376h1.031c-.165.512-.418.878-.76,1.098-.341.22-.753.33-1.237.33-.335,0-.638-.054-.907-.161s-.498-.26-.685-.458c-.188-.198-.332-.435-.434-.709-.102-.275-.152-.578-.152-.908,0-.318.052-.615.157-.891.104-.275.252-.513.445-.714.192-.2.422-.358.688-.474.267-.116.562-.174.887-.174.363,0,.68.07.949.211.27.14.49.328.664.564.173.236.298.506.375.809s.104.619.083.949h-3.077c.017.379.112.654.288.824ZM138.809,107.885c-.14-.154-.354-.231-.64-.231-.187,0-.342.032-.466.095-.124.063-.223.142-.297.235s-.127.192-.156.297c-.031.104-.049.198-.054.28h1.905c-.055-.297-.152-.522-.293-.676Z" fill="#ee7623" stroke-width="0"/><path d="M142.921,107.769h-2.054v-.883h3.597v.883l-2.219,2.5h2.376v.883h-3.919v-.883l2.219-2.5Z" fill="#ee7623" stroke-width="0"/><path d="M147.203,107.769h-2.054v-.883h3.597v.883l-2.219,2.5h2.376v.883h-3.919v-.883l2.219-2.5Z" fill="#ee7623" stroke-width="0"/><path d="M149.481,108.199c.016-.275.085-.504.206-.686.121-.181.274-.327.462-.437.187-.11.397-.188.631-.235s.469-.07.705-.07c.215,0,.432.016.652.046.22.03.421.089.602.177.182.088.33.211.446.367.115.157.173.364.173.623v2.219c0,.193.011.377.033.553.021.177.061.309.115.396h-1.188c-.022-.066-.04-.133-.054-.202-.014-.068-.023-.139-.029-.21-.187.192-.407.327-.66.404-.253.076-.511.115-.775.115-.203,0-.394-.025-.569-.074-.176-.05-.33-.127-.462-.231s-.235-.236-.31-.396c-.074-.16-.111-.35-.111-.569,0-.242.043-.441.128-.599.086-.156.195-.281.33-.375s.289-.164.462-.21c.174-.047.348-.084.524-.112.176-.027.349-.049.52-.065.17-.017.321-.041.454-.074.132-.033.236-.081.313-.145.076-.063.112-.155.106-.276,0-.126-.021-.227-.062-.301s-.097-.132-.165-.174c-.068-.041-.148-.068-.239-.082s-.188-.021-.293-.021c-.23,0-.412.049-.544.148-.133.099-.209.264-.231.495h-1.171ZM152.186,109.065c-.049.044-.111.078-.186.103-.074.025-.153.046-.239.062-.085.017-.174.03-.268.041s-.188.024-.28.041c-.089.017-.175.039-.261.066-.085.027-.159.064-.223.111-.062.047-.114.105-.152.177-.038.072-.058.163-.058.272,0,.104.02.192.058.264.038.072.091.128.157.17.065.041.143.069.23.086s.179.025.272.025c.23,0,.409-.039.536-.116.127-.076.22-.169.28-.276.061-.106.098-.216.111-.325.014-.11.021-.198.021-.265v-.437Z" fill="#ee7623" stroke-width="0"/><path d="M155.379,106.886v.595h.024c.148-.248.341-.428.577-.541.236-.112.479-.169.727-.169.313,0,.57.043.771.128.2.085.358.203.474.354.116.151.197.336.244.553.046.218.069.458.069.723v2.623h-1.171v-2.409c0-.352-.056-.614-.165-.788-.11-.173-.306-.26-.586-.26-.319,0-.55.095-.693.285-.143.189-.214.502-.214.937v2.235h-1.172v-4.266h1.114Z" fill="#ee7623" stroke-width="0"/><path d="M159.19,106.227v-.966h1.172v.966h-1.172ZM160.362,106.886v4.266h-1.172v-4.266h1.172Z" fill="#ee7623" stroke-width="0"/><path d="M162.4,106.886v.595h.024c.148-.248.341-.428.577-.541.236-.112.479-.169.727-.169.313,0,.57.043.771.128.2.085.358.203.474.354.116.151.197.336.244.553.046.218.069.458.069.723v2.623h-1.171v-2.409c0-.352-.056-.614-.165-.788-.11-.173-.306-.26-.586-.26-.319,0-.55.095-.693.285-.143.189-.214.502-.214.937v2.235h-1.172v-4.266h1.114Z" fill="#ee7623" stroke-width="0"/><path d="M167.432,110.128c.176.171.43.256.76.256.236,0,.439-.059.61-.177.17-.118.274-.244.313-.376h1.031c-.165.512-.418.878-.76,1.098-.341.22-.753.33-1.237.33-.335,0-.638-.054-.907-.161s-.498-.26-.685-.458c-.188-.198-.332-.435-.434-.709-.102-.275-.152-.578-.152-.908,0-.318.052-.615.157-.891.104-.275.252-.513.445-.714.192-.2.422-.358.688-.474.267-.116.562-.174.887-.174.363,0,.68.07.949.211.27.14.49.328.664.564.173.236.298.506.375.809s.104.619.083.949h-3.077c.017.379.112.654.288.824ZM168.756,107.885c-.14-.154-.354-.231-.64-.231-.187,0-.342.032-.466.095-.124.063-.223.142-.297.235s-.127.192-.156.297c-.031.104-.049.198-.054.28h1.905c-.055-.297-.152-.522-.293-.676Z" fill="#ee7623" stroke-width="0"/><path d="M175.245,107.654c-.188,0-.344.043-.471.128-.126.085-.229.195-.309.33-.08.135-.137.283-.17.445-.032.162-.049.323-.049.482,0,.154.017.312.049.471.033.159.087.304.161.433.074.13.175.235.301.318.127.082.281.123.463.123.28,0,.496-.078.647-.234.151-.157.246-.367.284-.632h1.131c-.077.566-.298.999-.66,1.296-.363.297-.828.445-1.395.445-.319,0-.612-.054-.879-.161s-.493-.257-.681-.449c-.187-.192-.333-.422-.437-.689-.105-.267-.157-.56-.157-.878,0-.33.048-.637.145-.92.096-.283.237-.528.425-.734.187-.206.415-.367.685-.482.27-.116.577-.174.924-.174.253,0,.496.033.73.099.233.066.442.167.627.302s.334.303.449.503c.116.201.182.438.198.714h-1.146c-.077-.489-.366-.734-.866-.734Z" fill="#ee7623" stroke-width="0"/><path d="M177.893,108.199c.016-.275.085-.504.206-.686.121-.181.274-.327.462-.437.187-.11.397-.188.631-.235s.469-.07.705-.07c.215,0,.432.016.652.046.22.03.421.089.602.177.182.088.33.211.446.367.115.157.173.364.173.623v2.219c0,.193.011.377.033.553.021.177.061.309.115.396h-1.188c-.022-.066-.04-.133-.054-.202-.014-.068-.023-.139-.029-.21-.187.192-.407.327-.66.404-.253.076-.511.115-.775.115-.203,0-.394-.025-.569-.074-.176-.05-.33-.127-.462-.231s-.235-.236-.31-.396c-.074-.16-.111-.35-.111-.569,0-.242.043-.441.128-.599.086-.156.195-.281.33-.375s.289-.164.462-.21c.174-.047.348-.084.524-.112.176-.027.349-.049.52-.065.17-.017.321-.041.454-.074.132-.033.236-.081.313-.145.076-.063.112-.155.106-.276,0-.126-.021-.227-.062-.301s-.097-.132-.165-.174c-.068-.041-.148-.068-.239-.082s-.188-.021-.293-.021c-.23,0-.412.049-.544.148-.133.099-.209.264-.231.495h-1.171ZM180.598,109.065c-.049.044-.111.078-.186.103-.074.025-.153.046-.239.062-.085.017-.174.03-.268.041s-.188.024-.28.041c-.089.017-.175.039-.261.066-.085.027-.159.064-.223.111-.062.047-.114.105-.152.177-.038.072-.058.163-.058.272,0,.104.02.192.058.264.038.072.091.128.157.17.065.041.143.069.23.086s.179.025.272.025c.23,0,.409-.039.536-.116.127-.076.22-.169.28-.276.061-.106.098-.216.111-.325.014-.11.021-.198.021-.265v-.437Z" fill="#ee7623" stroke-width="0"/><path d="M183.792,106.886v.792h.017c.055-.132.129-.254.223-.367.093-.112.2-.209.321-.288.121-.08.25-.142.388-.186s.28-.066.429-.066c.077,0,.163.014.256.041v1.089c-.055-.011-.121-.021-.197-.028-.077-.009-.151-.013-.223-.013-.215,0-.396.036-.545.107s-.269.169-.359.293c-.09.124-.155.269-.193.433-.039.165-.058.345-.058.537v1.922h-1.172v-4.266h1.114Z" fill="#ee7623" stroke-width="0"/><path d="M188.766,110.607c-.138.231-.318.397-.541.5-.223.102-.474.152-.755.152-.318,0-.6-.062-.841-.186-.242-.124-.441-.292-.599-.504-.156-.211-.275-.455-.354-.729-.08-.275-.12-.562-.12-.858,0-.286.04-.562.12-.829.079-.267.198-.502.354-.705.157-.203.354-.367.59-.491s.512-.186.825-.186c.253,0,.493.054.722.161s.408.266.54.475h.017v-2.146h1.172v5.891h-1.113v-.545h-.017ZM188.716,108.5c-.033-.162-.09-.306-.169-.429-.08-.124-.184-.225-.31-.302-.127-.076-.286-.115-.479-.115s-.354.039-.486.115c-.133.077-.238.179-.318.306-.079.127-.138.271-.173.433-.036.163-.054.332-.054.508,0,.165.02.33.058.495s.101.312.186.441.192.233.322.313c.129.08.284.119.466.119.192,0,.354-.038.482-.115s.232-.18.31-.31c.077-.129.132-.276.165-.441s.05-.335.05-.511c0-.177-.017-.346-.05-.508Z" fill="#ee7623" stroke-width="0"/><path d="M131.784,118.717c-.137.231-.317.397-.54.5-.223.102-.475.152-.755.152-.319,0-.6-.062-.842-.186-.242-.124-.441-.292-.598-.504-.157-.211-.275-.455-.354-.729-.08-.275-.12-.562-.12-.858,0-.286.04-.562.12-.829.08-.267.198-.502.354-.705s.354-.367.59-.491.512-.186.825-.186c.253,0,.494.054.722.161.229.107.409.266.541.475h.017v-2.146h1.171v5.891h-1.114v-.545h-.017ZM131.735,116.61c-.033-.162-.089-.306-.169-.429-.08-.124-.183-.225-.309-.302-.126-.076-.286-.115-.479-.115s-.355.039-.487.115c-.132.077-.238.179-.317.306-.08.127-.138.271-.173.433-.036.163-.054.332-.054.508,0,.165.019.33.058.495s.101.312.186.441c.085.129.192.233.322.313s.285.119.466.119c.192,0,.354-.038.482-.115.129-.077.232-.18.31-.31.077-.129.132-.276.165-.441.033-.165.049-.335.049-.511,0-.177-.017-.346-.049-.508Z" fill="#ee7623" stroke-width="0"/><path d="M135.051,118.239c.176.171.43.256.76.256.236,0,.439-.059.61-.177.17-.118.274-.244.313-.376h1.031c-.165.512-.418.878-.76,1.098-.341.22-.753.33-1.237.33-.335,0-.638-.054-.907-.161s-.498-.26-.685-.458c-.188-.198-.332-.435-.434-.709-.102-.275-.152-.578-.152-.908,0-.318.052-.615.157-.891.104-.275.252-.513.445-.714.192-.2.422-.358.688-.474.267-.116.562-.174.887-.174.363,0,.68.07.949.211.27.14.49.328.664.564.173.236.298.506.375.809s.104.619.083.949h-3.077c.017.379.112.654.288.824ZM136.375,115.996c-.14-.154-.354-.231-.64-.231-.187,0-.342.032-.466.095-.124.063-.223.142-.297.235s-.127.192-.156.297c-.031.104-.049.198-.054.28h1.905c-.055-.297-.152-.522-.293-.676Z" fill="#ee7623" stroke-width="0"/><path d="M139.647,114.997v.545h.017c.143-.231.324-.398.544-.503s.462-.157.727-.157c.335,0,.624.063.866.189.241.127.442.295.602.504.16.209.278.452.355.729.076.278.115.568.115.871,0,.286-.039.561-.115.824-.077.265-.194.498-.351.702-.157.203-.353.365-.586.486-.234.121-.508.182-.821.182-.264,0-.507-.054-.73-.161-.223-.107-.405-.266-.548-.475h-.017v2.021h-1.172v-5.759h1.114ZM141.168,118.379c.13-.077.234-.178.313-.301.08-.124.137-.269.17-.434.032-.165.049-.332.049-.503s-.018-.339-.054-.503c-.035-.165-.095-.312-.177-.441-.083-.13-.188-.234-.318-.313-.129-.08-.287-.12-.474-.12-.193,0-.354.04-.483.12-.129.079-.233.183-.313.309-.079.127-.136.272-.169.438s-.049.336-.049.512c0,.171.018.338.053.503.036.165.094.31.174.434.079.123.186.224.317.301s.292.115.479.115c.192,0,.354-.038.482-.115Z" fill="#ee7623" stroke-width="0"/><path d="M144.827,118.239c.176.171.43.256.76.256.236,0,.439-.059.61-.177.17-.118.274-.244.313-.376h1.031c-.165.512-.418.878-.76,1.098-.341.22-.753.33-1.237.33-.335,0-.638-.054-.907-.161s-.498-.26-.685-.458c-.188-.198-.332-.435-.434-.709-.102-.275-.152-.578-.152-.908,0-.318.052-.615.157-.891.104-.275.252-.513.445-.714.192-.2.422-.358.688-.474.267-.116.562-.174.887-.174.363,0,.68.07.949.211.27.14.49.328.664.564.173.236.298.506.375.809s.104.619.083.949h-3.077c.017.379.112.654.288.824ZM146.151,115.996c-.14-.154-.354-.231-.64-.231-.187,0-.342.032-.466.095-.124.063-.223.142-.297.235s-.127.192-.156.297c-.031.104-.049.198-.054.28h1.905c-.055-.297-.152-.522-.293-.676Z" fill="#ee7623" stroke-width="0"/><path d="M149.422,114.997v.595h.024c.148-.248.341-.428.577-.541.236-.112.479-.169.727-.169.313,0,.57.043.771.128.2.085.358.203.474.354.116.151.197.336.244.553.046.218.069.458.069.723v2.623h-1.171v-2.409c0-.352-.056-.614-.165-.788-.11-.173-.306-.26-.586-.26-.319,0-.55.095-.693.285-.143.189-.214.502-.214.937v2.235h-1.172v-4.266h1.114Z" fill="#ee7623" stroke-width="0"/><path d="M156.229,118.717c-.138.231-.318.397-.541.5-.223.102-.474.152-.755.152-.318,0-.6-.062-.841-.186-.242-.124-.441-.292-.599-.504-.156-.211-.275-.455-.354-.729-.08-.275-.12-.562-.12-.858,0-.286.04-.562.12-.829.079-.267.198-.502.354-.705.157-.203.354-.367.59-.491s.512-.186.825-.186c.253,0,.493.054.722.161s.408.266.54.475h.017v-2.146h1.172v5.891h-1.113v-.545h-.017ZM156.179,116.61c-.033-.162-.09-.306-.169-.429-.08-.124-.184-.225-.31-.302-.127-.076-.286-.115-.479-.115s-.354.039-.486.115c-.133.077-.238.179-.318.306-.079.127-.138.271-.173.433-.036.163-.054.332-.054.508,0,.165.02.33.058.495s.101.312.186.441.192.233.322.313c.129.08.284.119.466.119.192,0,.354-.038.482-.115s.232-.18.31-.31c.077-.129.132-.276.165-.441s.05-.335.05-.511c0-.177-.017-.346-.05-.508Z" fill="#ee7623" stroke-width="0"/><path d="M159.496,118.239c.176.171.43.256.76.256.236,0,.439-.059.61-.177.17-.118.274-.244.313-.376h1.031c-.165.512-.418.878-.76,1.098-.341.22-.753.33-1.237.33-.335,0-.638-.054-.907-.161s-.498-.26-.685-.458c-.188-.198-.332-.435-.434-.709-.102-.275-.152-.578-.152-.908,0-.318.052-.615.157-.891.104-.275.252-.513.445-.714.192-.2.422-.358.688-.474.267-.116.562-.174.887-.174.363,0,.68.07.949.211.27.14.49.328.664.564.173.236.298.506.375.809s.104.619.083.949h-3.077c.017.379.112.654.288.824ZM160.82,115.996c-.14-.154-.354-.231-.64-.231-.187,0-.342.032-.466.095-.124.063-.223.142-.297.235s-.127.192-.156.297c-.031.104-.049.198-.054.28h1.905c-.055-.297-.152-.522-.293-.676Z" fill="#ee7623" stroke-width="0"/><path d="M164.091,114.997v.595h.024c.148-.248.341-.428.577-.541.236-.112.479-.169.727-.169.313,0,.57.043.771.128.2.085.358.203.474.354.116.151.197.336.244.553.046.218.069.458.069.723v2.623h-1.171v-2.409c0-.352-.056-.614-.165-.788-.11-.173-.306-.26-.586-.26-.319,0-.55.095-.693.285-.143.189-.214.502-.214.937v2.235h-1.172v-4.266h1.114Z" fill="#ee7623" stroke-width="0"/><path d="M170.211,114.997v.784h-.857v2.112c0,.197.033.33.099.396.066.066.198.1.396.1.065,0,.129-.003.189-.009.061-.005.118-.014.173-.024v.907c-.099.017-.209.027-.329.033-.121.005-.239.008-.355.008-.182,0-.354-.012-.516-.037-.162-.024-.305-.072-.429-.145-.124-.071-.222-.173-.293-.305s-.107-.306-.107-.52v-2.517h-.709v-.784h.709v-1.278h1.172v1.278h.857Z" fill="#ee7623" stroke-width="0"/><path d="M221.027,33.875c.117.113.286.17.506.17.158,0,.294-.039.407-.118s.184-.162.209-.25h.688c-.11.341-.278.585-.506.731s-.502.22-.825.22c-.224,0-.425-.035-.604-.107-.18-.071-.332-.173-.457-.305-.124-.132-.221-.29-.288-.474-.068-.183-.103-.385-.103-.604,0-.213.035-.411.104-.594.07-.184.169-.342.297-.476.129-.134.282-.239.46-.316s.375-.116.591-.116c.242,0,.453.047.633.141s.327.219.442.377c.116.157.199.337.25.539.052.201.07.412.056.632h-2.052c.011.254.075.437.192.551ZM221.91,32.379c-.094-.103-.235-.154-.426-.154-.125,0-.229.021-.312.063-.082.042-.148.095-.197.156-.05.062-.085.129-.104.198-.021.069-.032.132-.036.188h1.271c-.037-.198-.102-.349-.195-.451Z" fill="#fff" stroke-width="0"/><path d="M224.427,34.557v-2.497h-.968v-.589c.136.004.267-.006.393-.03.127-.023.24-.065.342-.126.101-.061.186-.141.256-.239.069-.099.115-.222.137-.368h.622v3.85h-.781Z" fill="#fff" stroke-width="0"/><path d="M226.373,32.588c.012-.184.058-.336.138-.457.081-.121.184-.218.309-.291.124-.073.265-.126.42-.157.156-.031.312-.047.471-.047.143,0,.288.011.435.03.146.021.28.06.401.118.121.06.22.141.297.245s.115.243.115.415v1.479c0,.129.008.252.022.369s.04.205.077.264h-.792c-.015-.044-.027-.089-.036-.135s-.016-.093-.02-.141c-.124.129-.271.219-.439.27-.169.052-.341.077-.518.077-.135,0-.262-.017-.379-.049-.117-.033-.22-.085-.309-.154-.088-.069-.156-.158-.206-.265-.049-.105-.074-.232-.074-.379,0-.161.028-.294.086-.398.057-.104.13-.188.22-.251.09-.062.192-.108.308-.14s.232-.057.35-.074c.117-.019.232-.033.347-.044.113-.012.214-.028.302-.05.089-.022.158-.054.209-.097.052-.042.075-.104.072-.184,0-.085-.014-.151-.042-.201-.027-.05-.063-.088-.109-.115s-.1-.046-.16-.055c-.061-.01-.125-.015-.195-.015-.153,0-.274.033-.362.1-.088.065-.14.176-.154.33h-.781ZM228.178,33.166c-.033.029-.074.053-.124.069-.05.016-.103.029-.159.041-.058.011-.117.02-.179.027-.062.007-.125.017-.188.027-.059.011-.116.025-.173.044-.058.019-.106.043-.148.074-.043.031-.076.07-.103.118-.025.048-.038.108-.038.182,0,.069.013.129.038.176.026.048.061.086.104.113s.096.047.154.058.119.017.182.017c.154,0,.273-.025.357-.077s.146-.112.188-.185c.04-.071.064-.144.074-.217.009-.073.014-.132.014-.176v-.292Z" fill="#fff" stroke-width="0"/><path d="M233.858,33.875c.117.113.286.17.506.17.158,0,.294-.039.407-.118s.184-.162.209-.25h.688c-.11.341-.278.585-.506.731s-.502.22-.825.22c-.224,0-.425-.035-.604-.107-.18-.071-.332-.173-.457-.305-.124-.132-.221-.29-.288-.474-.068-.183-.103-.385-.103-.604,0-.213.035-.411.104-.594.07-.184.169-.342.297-.476.129-.134.282-.239.46-.316s.375-.116.591-.116c.242,0,.453.047.633.141s.327.219.442.377c.116.157.199.337.25.539.052.201.07.412.056.632h-2.052c.011.254.075.437.192.551ZM234.741,32.379c-.094-.103-.235-.154-.426-.154-.125,0-.229.021-.312.063-.082.042-.148.095-.197.156-.05.062-.085.129-.104.198-.021.069-.032.132-.036.188h1.271c-.037-.198-.102-.349-.195-.451Z" fill="#fff" stroke-width="0"/><path d="M237.258,34.557v-2.497h-.968v-.589c.136.004.267-.006.393-.03.127-.023.24-.065.342-.126.101-.061.186-.141.256-.239.069-.099.115-.222.137-.368h.622v3.85h-.781Z" fill="#fff" stroke-width="0"/><path d="M240.019,30.63v1.43h.011c.096-.146.225-.254.388-.321.163-.068.333-.103.509-.103.144,0,.284.03.424.089.139.059.265.148.377.269.111.121.202.276.271.465.07.189.104.414.104.674s-.034.485-.104.674c-.069.189-.16.344-.271.465-.112.121-.238.211-.377.27-.14.059-.28.088-.424.088-.209,0-.396-.033-.561-.099-.165-.066-.29-.178-.374-.336h-.012v.363h-.742v-3.927h.781ZM241.283,32.792c-.025-.11-.065-.207-.121-.291-.055-.085-.123-.151-.206-.201-.082-.05-.183-.074-.3-.074-.113,0-.213.024-.297.074s-.154.116-.209.201c-.055.084-.096.181-.121.291s-.038.226-.038.347c0,.117.013.23.038.341s.066.207.121.292c.055.084.125.151.209.2.084.05.184.074.297.074.117,0,.218-.024.3-.074.083-.049.151-.116.206-.2.056-.085.096-.182.121-.292s.039-.224.039-.341c0-.121-.014-.236-.039-.347Z" fill="#fff" stroke-width="0"/><path d="M247.019,33.875c.117.113.286.17.506.17.158,0,.294-.039.407-.118s.184-.162.209-.25h.688c-.11.341-.278.585-.506.731s-.502.22-.825.22c-.224,0-.425-.035-.604-.107-.18-.071-.332-.173-.457-.305-.124-.132-.221-.29-.288-.474-.068-.183-.103-.385-.103-.604,0-.213.035-.411.104-.594.07-.184.169-.342.297-.476.129-.134.282-.239.46-.316s.375-.116.591-.116c.242,0,.453.047.633.141s.327.219.442.377c.116.157.199.337.25.539.052.201.07.412.056.632h-2.052c.011.254.075.437.192.551ZM247.901,32.379c-.094-.103-.235-.154-.426-.154-.125,0-.229.021-.312.063-.082.042-.148.095-.197.156-.05.062-.085.129-.104.198-.021.069-.032.132-.036.188h1.271c-.037-.198-.102-.349-.195-.451Z" fill="#fff" stroke-width="0"/><path d="M250.418,34.557v-2.497h-.968v-.589c.136.004.267-.006.393-.03.127-.023.24-.065.342-.126.101-.061.186-.141.256-.239.069-.099.115-.222.137-.368h.622v3.85h-.781Z" fill="#fff" stroke-width="0"/><path d="M253.756,32.225c-.124,0-.229.028-.313.085-.084.058-.153.131-.206.221s-.091.188-.112.297c-.022.108-.033.215-.033.321,0,.103.011.207.033.313.021.106.058.203.106.289.05.086.117.156.201.212.084.055.187.082.308.082.188,0,.331-.052.432-.156.102-.104.164-.245.19-.421h.753c-.051.378-.197.665-.439.863s-.552.297-.93.297c-.213,0-.408-.035-.586-.107-.178-.071-.329-.171-.453-.3-.125-.128-.223-.281-.292-.459s-.104-.373-.104-.586c0-.22.032-.424.097-.613.063-.188.158-.352.283-.489.124-.138.276-.244.456-.321s.385-.116.616-.116c.169,0,.331.022.486.066.156.044.295.111.418.201s.223.201.3.335.121.293.132.476h-.764c-.052-.326-.244-.489-.578-.489Z" fill="#fff" stroke-width="0"/><path d="M259.788,33.875c.117.113.286.17.506.17.158,0,.294-.039.407-.118s.184-.162.209-.25h.688c-.11.341-.278.585-.506.731s-.502.22-.825.22c-.224,0-.425-.035-.604-.107-.18-.071-.332-.173-.457-.305-.124-.132-.221-.29-.288-.474-.068-.183-.103-.385-.103-.604,0-.213.035-.411.104-.594.07-.184.169-.342.297-.476.129-.134.282-.239.46-.316s.375-.116.591-.116c.242,0,.453.047.633.141s.327.219.442.377c.116.157.199.337.25.539.052.201.07.412.056.632h-2.052c.011.254.075.437.192.551ZM260.671,32.379c-.094-.103-.235-.154-.426-.154-.125,0-.229.021-.312.063-.082.042-.148.095-.197.156-.05.062-.085.129-.104.198-.021.069-.032.132-.036.188h1.271c-.037-.198-.102-.349-.195-.451Z" fill="#fff" stroke-width="0"/><path d="M263.188,34.557v-2.497h-.968v-.589c.136.004.267-.006.393-.03.127-.023.24-.065.342-.126.101-.061.186-.141.256-.239.069-.099.115-.222.137-.368h.622v3.85h-.781Z" fill="#fff" stroke-width="0"/><path d="M267.186,34.194c-.092.154-.212.266-.36.333s-.316.102-.503.102c-.213,0-.399-.041-.562-.124-.161-.082-.294-.193-.398-.335s-.184-.304-.236-.486c-.054-.184-.08-.374-.08-.572,0-.19.026-.375.08-.553.053-.178.132-.335.236-.471s.235-.244.394-.327c.157-.082.341-.124.55-.124.169,0,.329.036.481.107s.272.177.36.316h.011v-1.43h.781v3.927h-.743v-.363h-.011ZM267.152,32.789c-.021-.107-.06-.203-.112-.286-.054-.082-.122-.148-.206-.2-.085-.052-.191-.077-.319-.077-.129,0-.236.025-.324.077s-.159.119-.212.203c-.054.085-.092.181-.115.289-.024.108-.036.221-.036.338,0,.11.013.221.038.33.026.11.067.208.124.295.057.086.128.155.215.209.086.053.189.079.311.079.128,0,.235-.025.321-.077.087-.051.155-.12.207-.206.051-.086.088-.184.109-.294.022-.11.033-.224.033-.341s-.011-.23-.033-.339Z" fill="#fff" stroke-width="0"/><path d="M25.81,33.725c.118.113.286.17.506.17.157,0,.293-.039.407-.118s.184-.162.209-.25h.688c-.11.341-.279.585-.506.731-.228.146-.502.22-.825.22-.224,0-.425-.035-.605-.107-.18-.071-.332-.173-.457-.305-.125-.132-.221-.29-.289-.474-.068-.183-.102-.385-.102-.604,0-.213.035-.411.104-.594.069-.184.168-.342.297-.476s.281-.239.459-.316c.178-.077.375-.116.591-.116.242,0,.453.047.633.141s.327.219.442.377c.116.157.199.337.25.539.051.201.07.412.055.632h-2.052c.011.254.075.437.192.551ZM26.692,32.229c-.093-.103-.235-.154-.426-.154-.125,0-.228.021-.311.063s-.148.095-.198.156c-.049.062-.084.129-.104.198-.02.069-.032.132-.036.188h1.271c-.037-.198-.102-.349-.195-.451Z" fill="#fff" stroke-width="0"/><path d="M29.208,34.407v-2.497h-.968v-.589c.135.004.267-.006.393-.03.126-.023.24-.065.341-.126.101-.061.186-.141.256-.239s.116-.222.138-.368h.621v3.85h-.781Z" fill="#fff" stroke-width="0"/><path d="M31.156,32.438c.011-.184.057-.336.137-.457s.184-.218.308-.291.265-.126.421-.157c.156-.031.312-.047.47-.047.143,0,.288.011.435.03.146.021.28.06.401.118.121.06.22.141.297.245.077.104.116.243.116.415v1.479c0,.129.007.252.022.369s.04.205.077.264h-.792c-.015-.044-.026-.089-.036-.135s-.016-.093-.019-.141c-.125.129-.271.219-.44.27-.169.052-.341.077-.517.077-.136,0-.262-.017-.379-.049-.118-.033-.22-.085-.308-.154s-.157-.158-.206-.265c-.05-.105-.075-.232-.075-.379,0-.161.029-.294.085-.398s.13-.188.22-.251c.09-.062.192-.108.308-.14.116-.031.232-.057.35-.074.117-.019.232-.033.346-.044.114-.012.215-.028.303-.05.088-.022.158-.054.209-.097.051-.042.075-.104.071-.184,0-.085-.014-.151-.041-.201-.028-.05-.064-.088-.11-.115-.046-.027-.099-.046-.16-.055-.061-.01-.125-.015-.195-.015-.154,0-.275.033-.363.1-.088.065-.14.176-.154.33h-.781ZM32.959,33.015c-.033.029-.074.053-.124.069-.05.016-.103.029-.16.041-.057.011-.116.02-.179.027-.062.007-.125.017-.187.027-.059.011-.116.025-.173.044-.057.019-.106.043-.148.074s-.076.07-.102.118c-.026.048-.039.108-.039.182,0,.069.013.129.039.176.025.048.061.086.104.113s.095.047.154.058.119.017.182.017c.154,0,.273-.025.357-.077s.146-.112.187-.185c.041-.071.065-.144.074-.217s.014-.132.014-.176v-.292Z" fill="#fff" stroke-width="0"/><path d="M38.793,33.875c.118.113.286.17.506.17.157,0,.293-.039.407-.118s.184-.162.209-.25h.688c-.11.341-.279.585-.506.731-.228.146-.502.22-.825.22-.224,0-.425-.035-.605-.107-.18-.071-.332-.173-.457-.305-.125-.132-.221-.29-.289-.474-.068-.183-.102-.385-.102-.604,0-.213.035-.411.104-.594.069-.184.168-.342.297-.476s.281-.239.459-.316c.178-.077.375-.116.591-.116.242,0,.453.047.633.141s.327.219.442.377c.116.157.199.337.25.539.051.201.07.412.055.632h-2.052c.011.254.075.437.192.551ZM39.676,32.379c-.093-.103-.235-.154-.426-.154-.125,0-.228.021-.311.063s-.148.095-.198.156c-.049.062-.084.129-.104.198-.02.069-.032.132-.036.188h1.271c-.037-.198-.102-.349-.195-.451Z" fill="#fff" stroke-width="0"/><path d="M42.192,34.557v-2.497h-.968v-.589c.135.004.267-.006.393-.03.126-.023.24-.065.341-.126.101-.061.186-.141.256-.239s.116-.222.138-.368h.621v3.85h-.781Z" fill="#fff" stroke-width="0"/><path d="M44.953,30.63v1.43h.011c.095-.146.225-.254.388-.321.163-.068.333-.103.509-.103.143,0,.284.03.424.089.139.059.265.148.376.269.112.121.203.276.272.465.069.189.104.414.104.674s-.035.485-.104.674c-.07.189-.161.344-.272.465s-.237.211-.376.27c-.14.059-.281.088-.424.088-.209,0-.396-.033-.561-.099-.165-.066-.29-.178-.374-.336h-.011v.363h-.743v-3.927h.781ZM46.218,32.792c-.025-.11-.066-.207-.121-.291-.055-.085-.124-.151-.207-.201s-.182-.074-.3-.074c-.113,0-.212.024-.297.074s-.154.116-.209.201c-.055.084-.095.181-.121.291-.025.11-.039.226-.039.347,0,.117.013.23.039.341.026.11.066.207.121.292.055.084.125.151.209.2.084.05.184.074.297.074.118,0,.217-.024.3-.074.083-.049.151-.116.207-.2.055-.085.095-.182.121-.292.026-.11.039-.224.039-.341,0-.121-.013-.236-.039-.347Z" fill="#fff" stroke-width="0"/><path d="M51.952,33.875c.118.113.286.17.506.17.157,0,.293-.039.407-.118s.184-.162.209-.25h.688c-.11.341-.279.585-.506.731-.228.146-.502.22-.825.22-.224,0-.425-.035-.605-.107-.18-.071-.332-.173-.457-.305-.125-.132-.221-.29-.289-.474-.068-.183-.102-.385-.102-.604,0-.213.035-.411.104-.594.069-.184.168-.342.297-.476s.281-.239.459-.316c.178-.077.375-.116.591-.116.242,0,.453.047.633.141s.327.219.442.377c.116.157.199.337.25.539.051.201.07.412.055.632h-2.052c.011.254.075.437.192.551ZM52.835,32.379c-.093-.103-.235-.154-.426-.154-.125,0-.228.021-.311.063s-.148.095-.198.156c-.049.062-.084.129-.104.198-.02.069-.032.132-.036.188h1.271c-.037-.198-.102-.349-.195-.451Z" fill="#fff" stroke-width="0"/><path d="M55.351,34.557v-2.497h-.968v-.589c.135.004.267-.006.393-.03.126-.023.24-.065.341-.126.101-.061.186-.141.256-.239s.116-.222.138-.368h.621v3.85h-.781Z" fill="#fff" stroke-width="0"/><path d="M58.689,32.225c-.125,0-.229.028-.313.085-.084.058-.153.131-.206.221s-.091.188-.113.297-.033.215-.033.321c0,.103.011.207.033.313s.058.203.107.289c.049.086.116.156.201.212.084.055.187.082.308.082.187,0,.331-.052.432-.156.101-.104.164-.245.19-.421h.753c-.052.378-.198.665-.44.863-.242.198-.552.297-.93.297-.213,0-.408-.035-.586-.107-.178-.071-.329-.171-.454-.3-.125-.128-.222-.281-.292-.459s-.104-.373-.104-.586c0-.22.032-.424.096-.613.064-.188.159-.352.283-.489s.277-.244.457-.321.385-.116.616-.116c.168,0,.331.022.487.066.156.044.295.111.418.201.123.09.223.201.3.335.077.134.121.293.132.476h-.765c-.051-.326-.244-.489-.578-.489Z" fill="#fff" stroke-width="0"/><path d="M64.722,33.875c.118.113.286.17.506.17.157,0,.293-.039.407-.118s.184-.162.209-.25h.688c-.11.341-.279.585-.506.731-.228.146-.502.22-.825.22-.224,0-.425-.035-.605-.107-.18-.071-.332-.173-.457-.305-.125-.132-.221-.29-.289-.474-.068-.183-.102-.385-.102-.604,0-.213.035-.411.104-.594.069-.184.168-.342.297-.476s.281-.239.459-.316c.178-.077.375-.116.591-.116.242,0,.453.047.633.141s.327.219.442.377c.116.157.199.337.25.539.051.201.07.412.055.632h-2.052c.011.254.075.437.192.551ZM65.605,32.379c-.093-.103-.235-.154-.426-.154-.125,0-.228.021-.311.063s-.148.095-.198.156c-.049.062-.084.129-.104.198-.02.069-.032.132-.036.188h1.271c-.037-.198-.102-.349-.195-.451Z" fill="#fff" stroke-width="0"/><path d="M68.121,34.557v-2.497h-.968v-.589c.135.004.267-.006.393-.03.126-.023.24-.065.341-.126.101-.061.186-.141.256-.239s.116-.222.138-.368h.621v3.85h-.781Z" fill="#fff" stroke-width="0"/><path d="M72.12,34.194c-.092.154-.212.266-.36.333s-.316.102-.503.102c-.213,0-.4-.041-.561-.124-.162-.082-.294-.193-.399-.335s-.183-.304-.236-.486c-.053-.184-.08-.374-.08-.572,0-.19.027-.375.08-.553s.132-.335.236-.471.236-.244.394-.327c.157-.082.341-.124.55-.124.168,0,.329.036.481.107.152.071.272.177.36.316h.011v-1.43h.781v3.927h-.742v-.363h-.011ZM72.087,32.789c-.022-.107-.06-.203-.113-.286-.053-.082-.122-.148-.207-.2s-.19-.077-.319-.077-.236.025-.325.077c-.088.052-.159.119-.211.203-.053.085-.092.181-.116.289s-.036.221-.036.338c0,.11.013.221.039.33.025.11.067.208.124.295.057.086.128.155.215.209.086.053.189.079.311.079.128,0,.235-.025.322-.077.086-.051.155-.12.206-.206s.088-.184.11-.294.033-.224.033-.341-.011-.23-.033-.339Z" fill="#fff" stroke-width="0"/></svg>