<?xml version="1.0" encoding="UTF-8"?><svg xmlns="http://www.w3.org/2000/svg" width="5in" height="4.493in" viewBox="0 0 360 323.493"><g id="a"><path d="M142.932,109.801c-2.901.182-5.174,1.897-5.174,3.985,0,2.21,2.546,4.001,5.686,4.001s5.686-1.791,5.686-4.001l-.657-.305-4.69-3.311.309-.722-.425-.245-.735.598Z" fill="#d0cfcd"/><path d="M143.545,117.9c-1.942.446-4.156-1.098-4.156-1.098-1.868-1.727-1.647-3.37-1.647-3.37-.209.419-.323.87-.323,1.34,0,.362.068.714.195,1.048.659,1.733,2.913,3.009,5.592,3.009l.338-.929Z" fill="#d0cfcd"/></g><g id="b"><path d="M204.44,316.479l.318-24.544s.444-1.206-1.587-2.348S8.594,160.66,8.594,160.66v26.141l195.846,129.885,1.714-1.015" fill="none" stroke="#231f20" stroke-linecap="round" stroke-linejoin="round" stroke-width=".5"/><path d="M8.594,160.66l.625-1.286.08-2.953s-.04-.838.798-.599,4.75,1.796,4.75,1.796l1.317,2.155v1.157l.679,1.317,5.867,3.871s.679.279.399-.679c0,0-.16-.599-.758-.918s-1.756-1.118-1.756-1.118l-.439-.878,1.197-.479,151.883,100.729,1.281,2.069-.049,1.182.64,1.182,5.764,3.842s.562.426.662-.236-.749-1.186-.749-1.186l-1.86-1.198-.312-.824,1.099-.474,19.97,13.2s.42.178.614.785c.068.212.108.478.093.806-.059,1.267-.029,4.154-.029,4.154l-.56,1.208" fill="none" stroke="#231f20" stroke-linecap="round" stroke-linejoin="round" stroke-width=".5"/><path d="M324.686,209.246l-115.625,73.779s-.977.43-.911,1.712" fill="none" stroke="#231f20" stroke-linecap="round" stroke-linejoin="round" stroke-width=".5"/><polyline points="206.108 283.71 205.738 315.223 208.303 316.827" fill="none" stroke="#231f20" stroke-linecap="round" stroke-linejoin="round" stroke-width=".5"/><path d="M208.588,316.669l-1.33-2.629,1.298-2.597.317-17.767s.158-2.882,3.357-1.71l9.818,6.492s1.457,1.298,3.04.253l28.656-18.7.354-1.119" fill="none" stroke="#231f20" stroke-linecap="round" stroke-linejoin="round" stroke-width=".5"/><path d="M313.086,242.212l20.996-13.381s.074-1.257-.961-1.996-2.883-2.07-2.883-2.07c0,0-.739-.296-1.774.37s-82.505,52.638-82.505,52.638l-.887-.222-23.288,14.86s-1.183.518-.296,1.109l3.549,2.366s.961,1.109.813,2.144" fill="none" stroke="#231f20" stroke-linecap="round" stroke-linejoin="round" stroke-width=".5"/><path d="M268.15,282.489s-7.561,4.863-9.628,6.128-2.277-.717-2.277-.717l-.042-5.946,58.024-36.94" fill="none" stroke="#231f20" stroke-linecap="round" stroke-linejoin="round" stroke-width=".5"/><path d="M272.185,279.888s1.349-.759,2.91-3.078,3.331-3.12,3.331-3.12c0,0,31.542-20.114,33.946-21.675s1.982-2.825,1.982-2.825l.211-4.006s-.97-1.898-1.265-2.488-.97-1.012-.97-1.012l-58.189,37.168s.66.578.825,1.155,1.238,1.948,1.238,1.948" fill="none" stroke="#231f20" stroke-linecap="round" stroke-linejoin="round" stroke-width=".5"/><path d="M210.219,318.846l.59.663,2.137,1.327s1.142.7,1.216-.884.295-20.487.295-20.487c0,0,.074-.921,1.032-.405s6.444,4.28,6.444,4.28c0,0,1.727,1.278,4.095-.301,2.552-1.701,25.535-16.287,25.535-16.287,0,0,2.248,3.943,6.08,2.285" fill="none" stroke="#231f20" stroke-linecap="round" stroke-linejoin="round" stroke-width=".5"/><line x1="224.936" y1="298.92" x2="224.936" y2="303.512" fill="none" stroke="#231f20" stroke-linecap="round" stroke-linejoin="round" stroke-width=".5"/><path d="M213.994,320.611s1.183,1.237,2.098.807,115.434-73.693,115.434-73.693l.027-.785" fill="none" stroke="#231f20" stroke-linecap="round" stroke-linejoin="round" stroke-width=".5"/><path d="M331.915,236.015l-.048,9.475s.048,1.378-1.039,1.74l-31.3,20.052.12-5.889,15.983-10.255.08-4.767" fill="none" stroke="#231f20" stroke-linecap="round" stroke-linejoin="round" stroke-width=".5"/><path d="M314.549,246.973l19.308-12.218s.24-.28.24-.801c0,0,1.001-.04.961-1.442s-.028-13.321-.028-13.321c0,0,.061-1.104-.809-1.608s-1.253-.783-1.253-.783" fill="none" stroke="#231f20" stroke-linecap="round" stroke-linejoin="round" stroke-width=".5"/><line x1="332.927" y1="214.786" x2="332.731" y2="226.466" fill="none" stroke="#231f20" stroke-linecap="round" stroke-linejoin="round" stroke-width=".5"/><path d="M333.682,235.014l-.067,9.113s.102,1.314-1.748,1.363" fill="none" stroke="#231f20" stroke-linecap="round" stroke-linejoin="round" stroke-width=".5"/><polygon points="316.733 247.774 324.238 243.003 324.185 249.49 316.653 254.368 316.733 247.774" fill="none" stroke="#231f20" stroke-linecap="round" stroke-linejoin="round" stroke-width=".5"/><path d="M310.221,256.69l2.98-1.913s.439-.031.439.314v.659l-.721,1.004-2.321,1.474-.659-.188-.094-.878.376-.47Z" fill="none" stroke="#231f20" stroke-linecap="round" stroke-linejoin="round" stroke-width=".5"/><ellipse cx="307.4" cy="259.601" rx=".925" ry=".721" transform="translate(-76.391 380.398) rotate(-57.653)" fill="none" stroke="#231f20" stroke-linecap="round" stroke-linejoin="round" stroke-width=".5"/><ellipse cx="304.608" cy="261.546" rx=".925" ry=".721" transform="translate(-79.332 378.944) rotate(-57.653)" fill="none" stroke="#231f20" stroke-linecap="round" stroke-linejoin="round" stroke-width=".5"/><ellipse cx="301.816" cy="263.49" rx=".925" ry=".721" transform="translate(-82.273 377.49) rotate(-57.653)" fill="none" stroke="#231f20" stroke-linecap="round" stroke-linejoin="round" stroke-width=".5"/><path d="M288.843,262.564l10.946-6.867s.541-.464.541.325v2.14s-.09.473-.811.946-10.632,6.78-10.632,6.78c0,0-.541.428-.541-.225s.023-2.388.023-2.388c0,0,.093-.476.475-.711Z" fill="none" stroke="#231f20" stroke-linecap="round" stroke-linejoin="round" stroke-width=".5"/><path d="M263.138,284.217l5.719-2.068h.572s2.859-.968,3.255-4.047c0,0,.396-2.727-2.111-1.496l-1.276.792-5.939,1.892-2.815,1.76s-2.551,2.375-1.584,4.531c0,0,.528.924,2.024.088s2.155-1.452,2.155-1.452Z" fill="none" stroke="#231f20" stroke-linecap="round" stroke-linejoin="round" stroke-width=".5"/><path d="M264.386,277.806l4.835-1.285s1.714-1.653,3.06-.826c0,0,.796.704.49,1.989" fill="none" stroke="#231f20" stroke-linecap="round" stroke-linejoin="round" stroke-width=".5"/><path d="M272.527,279.275s2.387-3.244,1.714-5.447c0,0-.275-1.683-2.693-.765l-10.773,6.947s-3.856,3.366-2.663,6.549c0,0,.367,1.591,3.152.275" fill="none" stroke="#231f20" stroke-linecap="round" stroke-linejoin="round" stroke-width=".5"/><polyline points="241.769 279.603 241.823 276.22 247.417 272.624 248.162 273.05 248.189 276.273" fill="none" stroke="#231f20" stroke-linecap="round" stroke-linejoin="round" stroke-width=".5"/><polyline points="249.947 275.075 248.642 271.825 251.279 270.12 252.717 270.866 252.744 273.29" fill="none" stroke="#231f20" stroke-linecap="round" stroke-linejoin="round" stroke-width=".5"/><line x1="244.14" y1="278.138" x2="241.929" y2="276.62" fill="none" stroke="#231f20" stroke-linecap="round" stroke-linejoin="round" stroke-width=".5"/><line x1="216.19" y1="289.286" x2="216.104" y2="294.38" fill="none" stroke="#231f20" stroke-linecap="round" stroke-linejoin="round" stroke-width=".5"/><ellipse cx="210.152" cy="288.793" rx="1.214" ry="1.73" transform="translate(-124.688 164.505) rotate(-33.593)" fill="none" stroke="#231f20" stroke-linecap="round" stroke-linejoin="round" stroke-width=".5"/><ellipse cx="201.977" cy="292.476" rx="1.214" ry="1.73" transform="translate(-128.091 160.597) rotate(-33.593)" fill="none" stroke="#231f20" stroke-linecap="round" stroke-linejoin="round" stroke-width=".5"/><ellipse cx="201.977" cy="301.857" rx="1.214" ry="1.73" transform="translate(-133.281 162.164) rotate(-33.593)" fill="none" stroke="#231f20" stroke-linecap="round" stroke-linejoin="round" stroke-width=".5"/><ellipse cx="201.977" cy="311.238" rx="1.214" ry="1.73" transform="translate(-138.472 163.731) rotate(-33.593)" fill="none" stroke="#231f20" stroke-linecap="round" stroke-linejoin="round" stroke-width=".5"/><polygon points="37.369 166.049 59.857 151.593 65.775 155.397 69.918 152.776 83.106 161.653 60.703 176.025 54.785 172.052 50.558 174.926 37.369 166.049" fill="none" stroke="#231f20" stroke-linecap="round" stroke-linejoin="round" stroke-width=".5"/><polygon points="66.79 147.535 79.809 155.904 84.29 153.622 89.869 157.257 112.611 142.97 99.338 133.924 95.111 136.714 89.278 132.74 66.79 147.535" fill="none" stroke="#231f20" stroke-linecap="round" stroke-linejoin="round" stroke-width=".5"/><polygon points="96.294 128.598 109.519 137.275 113.622 134.728 119.712 138.32 142.116 124.117 128.758 115.156 124.7 118.03 118.782 113.888 96.294 128.598" fill="none" stroke="#231f20" stroke-linecap="round" stroke-linejoin="round" stroke-width=".5"/><polygon points="117.703 160.041 110.707 155.419 125.197 146.051 132.817 150.922 141.811 145.301 173.539 166.286 164.92 172.407 172.04 177.279 157.925 186.772 150.055 181.401 141.186 187.397 109.084 166.037 117.703 160.041" fill="none" stroke="#231f20" stroke-linecap="round" stroke-linejoin="round" stroke-width=".5"/><polygon points="175.584 215.409 189.95 206.165 197.524 211.066 206.545 205.274 238.397 226.546 229.71 232.449 236.615 237.126 222.582 246.593 214.786 241.693 205.876 247.595 174.024 226.212 182.823 220.421 175.584 215.409" fill="none" stroke="#231f20" stroke-linecap="round" stroke-linejoin="round" stroke-width=".5"/><polyline points="157.925 186.772 157.319 210.175 172.131 200.931 172.04 177.279" fill="none" stroke="#231f20" stroke-linecap="round" stroke-linejoin="round" stroke-width=".5"/><polyline points="150.055 181.401 150.035 205.006 157.319 210.175" fill="none" stroke="#231f20" stroke-linecap="round" stroke-linejoin="round" stroke-width=".5"/><line x1="143.619" y1="208.341" x2="150.035" y2="205.006" fill="none" stroke="#231f20" stroke-linecap="round" stroke-linejoin="round" stroke-width=".5"/><line x1="140.865" y1="206.258" x2="141.186" y2="187.397" fill="none" stroke="#231f20" stroke-linecap="round" stroke-linejoin="round" stroke-width=".5"/><line x1="109.084" y1="166.037" x2="108.819" y2="185.029" fill="none" stroke="#231f20" stroke-linecap="round" stroke-linejoin="round" stroke-width=".5"/><line x1="110.707" y1="155.419" x2="110.49" y2="164.971" fill="none" stroke="#231f20" stroke-linecap="round" stroke-linejoin="round" stroke-width=".5"/><line x1="112.611" y1="142.97" x2="112.349" y2="154.041" fill="none" stroke="#231f20" stroke-linecap="round" stroke-linejoin="round" stroke-width=".5"/><polyline points="110.297 162.6 89.711 175.829 83.062 171.514" fill="none" stroke="#231f20" stroke-linecap="round" stroke-linejoin="round" stroke-width=".5"/><line x1="119.423" y1="149.584" x2="119.712" y2="138.32" fill="none" stroke="#231f20" stroke-linecap="round" stroke-linejoin="round" stroke-width=".5"/><polyline points="130.883 149.443 141.919 142.368 142.116 124.117" fill="none" stroke="#231f20" stroke-linecap="round" stroke-linejoin="round" stroke-width=".5"/><line x1="96.294" y1="128.598" x2="96.149" y2="135.931" fill="none" stroke="#231f20" stroke-linecap="round" stroke-linejoin="round" stroke-width=".5"/><line x1="113.622" y1="134.728" x2="113.268" y2="153.687" fill="none" stroke="#231f20" stroke-linecap="round" stroke-linejoin="round" stroke-width=".5"/><line x1="109.519" y1="137.275" x2="109.378" y2="140.529" fill="none" stroke="#231f20" stroke-linecap="round" stroke-linejoin="round" stroke-width=".5"/><polyline points="92.329 134.587 94.417 133.349 96.149 132.323" fill="none" stroke="#231f20" stroke-linecap="round" stroke-linejoin="round" stroke-width=".5"/><line x1="94.522" y1="136.143" x2="94.417" y2="133.349" fill="none" stroke="#231f20" stroke-linecap="round" stroke-linejoin="round" stroke-width=".5"/><line x1="62.866" y1="153.452" x2="66.418" y2="151.16" fill="none" stroke="#231f20" stroke-linecap="round" stroke-linejoin="round" stroke-width=".5"/><line x1="66.79" y1="147.535" x2="66.532" y2="154.942" fill="none" stroke="#231f20" stroke-linecap="round" stroke-linejoin="round" stroke-width=".5"/><line x1="79.809" y1="155.904" x2="79.939" y2="159.296" fill="none" stroke="#231f20" stroke-linecap="round" stroke-linejoin="round" stroke-width=".5"/><line x1="84.29" y1="153.622" x2="84.179" y2="172.244" fill="none" stroke="#231f20" stroke-linecap="round" stroke-linejoin="round" stroke-width=".5"/><line x1="89.869" y1="157.257" x2="89.711" y2="175.829" fill="none" stroke="#231f20" stroke-linecap="round" stroke-linejoin="round" stroke-width=".5"/><polyline points="83.106 161.653 83.033 179.916 65.614 191.108" fill="none" stroke="#231f20" stroke-linecap="round" stroke-linejoin="round" stroke-width=".5"/><line x1="60.703" y1="176.025" x2="60.491" y2="187.876" fill="none" stroke="#231f20" stroke-linecap="round" stroke-linejoin="round" stroke-width=".5"/><line x1="54.785" y1="172.052" x2="54.58" y2="184.014" fill="none" stroke="#231f20" stroke-linecap="round" stroke-linejoin="round" stroke-width=".5"/><line x1="50.558" y1="174.926" x2="50.482" y2="181.177" fill="none" stroke="#231f20" stroke-linecap="round" stroke-linejoin="round" stroke-width=".5"/><line x1="37.369" y1="166.049" x2="37.24" y2="172.27" fill="none" stroke="#231f20" stroke-linecap="round" stroke-linejoin="round" stroke-width=".5"/><path d="M124.102,103.052l.151-1.281,4.219-2.336.151-3.315-1.206-.678.151-4.219.98-1.281.151-5.952-.527-.603v-3.089l.904-.603,5.35,1.884,1.26,2.171-.051,1.17.661,1.221,4.934,3.205s.116,1.148-3.006,1.148c0,0-3.784-1.23-4.54.378,0,0-.662,1.703.946,2.649s13.999,9.175,13.999,9.175c0,0,1.513,1.23,3.784,1.23,0,0,.662-.095,3.689,2.081s37.458,24.877,37.458,24.877c0,0,1.08.585.341,1.455,0,0-.392.609.653,1.262s52.99,35.12,52.99,35.12c0,0,1.098.676.953,1.856,0,0-.269,1.077,1.139,1.864s62.39,41.345,62.39,41.345c0,0,.65,1.626,2.222.921s6.285-3.956,6.285-3.956c0,0,.538-.389-.052-1.322-.204-.323-.543-.711-1.086-1.17l.921-.596-2.746-1.822-2.118.032.064-1.412-2.599-1.765-2.471,1.636s-1.155.674-3.048-.642-6.482-4.332-6.482-4.332c0,0-.802-.898.257-1.572s2.246-1.38,2.246-1.38l-2.771-1.709" fill="none" stroke="#231f20" stroke-linecap="round" stroke-linejoin="round" stroke-width=".5"/><path d="M159.688,101.613l-.35-.156-.117-.933-.7-.7-.039-1.206-4.161-2.8s-.7-.078-.739.894c0,0-.7-.506-1.789-.35l-1.478-.894-.272-.7-1.672,1.167s7.933,5.25,9.139,6.105,1.633.389,1.633.389l1.244-.894,8.011,5.25-.078,1.478,2.139-.039,22.75,14.972.194,1.594h2.1l8.244,5.561-2.178,1.322c-1.089.778-.233,1.633-.233,1.633l7.505,4.939c1.828,1.4,3.344.311,3.344.311l2.022-1.283,6.3,4.122-1.867,1.089s8.167,5.561,9.372,6.339,1.633.233,1.633.233l1.206-.739,5.989,3.85-.117,1.361,2.061.078,5.717,3.694s-.856.467-2.178,1.283-.233,1.711-.233,1.711c0,0,4.861,3.15,6.611,4.433s2.994.389,2.994.389l2.294-1.439,7.194,4.705v1.478l2.061-.117,20.36,13.475c-.67,1.722.351,1.34.351,1.34h1.563l5.231,3.508-.893.67,9.186,6.092c.925.67,1.6-.133,1.6-.133,0-.342-.684-.969-.684-.969,0,0-.684-.513-1.652-1.054s-.285-1.253-.285-1.253l1.196-.456,20.531,13.641.175.698.629-.21,3.98,2.768-.928.657,1.078.725,8.241,5.54s-115.569,73.769-116.512,74.388-1.562,0-1.562,0c0,0-7.543-4.95-8.309-5.48s-.825-.029-.825-.029c-.796.53-1.503-.206-1.503-.206l-3.742-2.357" fill="none" stroke="#231f20" stroke-linecap="round" stroke-linejoin="round" stroke-width=".5"/><path d="M149.733,94.496l-2.022-1.322-2.217.039.233-1.439-3.531-2.379c-.102-.356-1.272-1.323-2.187-1.78s-.356-1.221-.356-1.221l1.323-.458,151.931,100.932.988,1.756v1.262l.768,1.262,5.434,3.568" fill="none" stroke="#231f20" stroke-linecap="round" stroke-linejoin="round" stroke-width=".5"/><polyline points="311.952 203.049 311.503 201.926 306.754 198.685 304.797 198.332 303.674 197.562 303.417 196.407" fill="none" stroke="#231f20" stroke-linecap="round" stroke-linejoin="round" stroke-width=".5"/><line x1="319.927" y1="205.304" x2="319.918" y2="207.272" fill="none" stroke="#231f20" stroke-linecap="round" stroke-linejoin="round" stroke-width=".5"/><line x1="320.377" y1="207.751" x2="320.379" y2="209.05" fill="none" stroke="#231f20" stroke-linecap="round" stroke-linejoin="round" stroke-width=".5"/><polyline points="244.504 157.301 244.673 158.568 245.795 159.354 247.816 159.616 252.679 162.908 253.166 164.105" fill="none" stroke="#231f20" stroke-linecap="round" stroke-linejoin="round" stroke-width=".5"/><path d="M230.424,148.568l-.68-.489-.136-.924-.598-.462-.082-.951s-.054-.571-.734-.979-3.534-2.338-3.534-2.338c0,0-.734.136-.625,1.196,0,0-.027-.544-1.658-.516l-1.577-.897-.292-.812" fill="none" stroke="#231f20" stroke-linecap="round" stroke-linejoin="round" stroke-width=".5"/><polyline points="203.749 130.352 204.001 131.561 205.725 132.757 207.871 133.144 212.234 135.994 212.691 137.191 213.289 137.648" fill="none" stroke="#231f20" stroke-linecap="round" stroke-linejoin="round" stroke-width=".5"/><path d="M138.235,95.802s-1.849.308-1.849,3.312-.308,18.333-.308,18.333l4.622,3.312s1.914,1.384,3.772-.473" fill="none" stroke="#231f20" stroke-linecap="round" stroke-linejoin="round" stroke-width=".5"/><path d="M144.089,99.73l-.077,1.155-4.545-2.85s-.693-.385-.693,1.155-.077,10.784-.077,10.784" fill="none" stroke="#231f20" stroke-linecap="round" stroke-linejoin="round" stroke-width=".5"/><path d="M147.864,119.758l28.578,18.641s1.232,1.155,1.232,1.926" fill="none" stroke="#231f20" stroke-linecap="round" stroke-linejoin="round" stroke-width=".5"/><path d="M179.513,143.17s1.421,1.128,2.391.383,1.669-.18,1.669-.18l15.326,10.108s.969.444.888,1.816-.081,4.762-.081,4.762c0,0,.04.969,1.937,1.856" fill="none" stroke="#231f20" stroke-linecap="round" stroke-linejoin="round" stroke-width=".5"/><ellipse cx="178.991" cy="141.586" rx="1.15" ry="1.751" transform="translate(-49.065 132.942) rotate(-36.174)" fill="none" stroke="#231f20" stroke-linecap="round" stroke-linejoin="round" stroke-width=".5"/><path d="M177.928,139.526c.081-.152.19-.281.328-.382.725-.53,1.967-.065,2.774,1.039s.874,2.428.149,2.958c-.318.233-.736.274-1.173.153" fill="none" stroke="#231f20" stroke-linecap="round" stroke-linejoin="round" stroke-width=".5"/><polyline points="201.562 163.368 201.723 154.652 208.947 149.93 209.028 144.442 209.956 143.877" fill="none" stroke="#231f20" stroke-linecap="round" stroke-linejoin="round" stroke-width=".5"/><polyline points="214.677 147.065 206.768 152.311 230.174 167.888 238.285 162.561" fill="none" stroke="#231f20" stroke-linecap="round" stroke-linejoin="round" stroke-width=".5"/><line x1="213.79" y1="147.589" x2="209.028" y2="144.442" fill="none" stroke="#231f20" stroke-linecap="round" stroke-linejoin="round" stroke-width=".5"/><polyline points="206.768 152.311 206.647 158.284 201.723 154.652" fill="none" stroke="#231f20" stroke-linecap="round" stroke-linejoin="round" stroke-width=".5"/><polyline points="230.174 167.888 229.891 186.371 238.285 181.004" fill="none" stroke="#231f20" stroke-linecap="round" stroke-linejoin="round" stroke-width=".5"/><polyline points="238.608 162.925 238.326 186.694 237.034 187.582 237.075 181.811" fill="none" stroke="#231f20" stroke-linecap="round" stroke-linejoin="round" stroke-width=".5"/><polyline points="229.891 186.371 225.008 183.223 224.968 188.954 229.084 186.25" fill="none" stroke="#231f20" stroke-linecap="round" stroke-linejoin="round" stroke-width=".5"/><line x1="232.878" y1="184.676" x2="237.034" y2="187.582" fill="none" stroke="#231f20" stroke-linecap="round" stroke-linejoin="round" stroke-width=".5"/><line x1="219.652" y1="185.407" x2="224.941" y2="188.927" fill="none" stroke="#231f20" stroke-linecap="round" stroke-linejoin="round" stroke-width=".5"/><polyline points="246.696 189.586 245.52 190.322 278.553 212.376 279.827 211.641" fill="none" stroke="#231f20" stroke-linecap="round" stroke-linejoin="round" stroke-width=".5"/><polyline points="245.569 190.812 245.569 191.4 245.03 191.694 245.03 193.507 246.304 194.415 246.255 193.115 277.866 214.091 277.817 215.366 278.963 216.106 278.963 214.488" fill="none" stroke="#231f20" stroke-linecap="round" stroke-linejoin="round" stroke-width=".5"/><path d="M300.075,224.744l-14.522-9.735s-.745-.266-.692.745l-2.979-1.809s.372-.692-.319-1.436l-2.181-1.489s-.745-.16-.745.426l-31.433-20.998c.282-.969-.767-1.493-.767-1.493,0,0-1.493-.969-1.937-1.211s-.646.202-.646.202c0,0,.04.404,0,1.17s-.646.404-.646.404l-4.762-3.188" fill="none" stroke="#231f20" stroke-linecap="round" stroke-linejoin="round" stroke-width=".5"/><polyline points="278.553 212.376 278.491 213.924 279.441 214.436 281.829 212.876" fill="none" stroke="#231f20" stroke-linecap="round" stroke-linejoin="round" stroke-width=".5"/><polyline points="280.391 215.045 280.416 216.653 285.508 219.917 286.117 219.576 286.068 218.431 285.557 218.651 284.874 218.285 286.848 216.994 287.335 217.408 286.921 217.822 286.897 219.04 289.114 217.773" fill="none" stroke="#231f20" stroke-linecap="round" stroke-linejoin="round" stroke-width=".5"/><polyline points="221.279 202.944 221.485 196.692 223.112 195.719 278.54 232.383 278.756 238.314" fill="none" stroke="#231f20" stroke-linecap="round" stroke-linejoin="round" stroke-width=".5"/><polyline points="214.7 206.826 214.7 200.679 216.426 199.493 272.07 236.697 272.178 242.412" fill="none" stroke="#231f20" stroke-linecap="round" stroke-linejoin="round" stroke-width=".5"/><polyline points="208.122 206.395 208.122 204.993 209.848 204.022 265.492 240.795 265.492 246.618" fill="none" stroke="#231f20" stroke-linecap="round" stroke-linejoin="round" stroke-width=".5"/><polyline points="238.397 226.546 238.382 231.52 238.317 253.412 246.513 258.696" fill="none" stroke="#231f20" stroke-linecap="round" stroke-linejoin="round" stroke-width=".5"/><polyline points="238.382 231.52 258.804 245.148 258.754 251.285" fill="none" stroke="#231f20" stroke-linecap="round" stroke-linejoin="round" stroke-width=".5"/><polyline points="238.61 233.863 257.121 246.088 257.072 252.176" fill="none" stroke="#231f20" stroke-linecap="round" stroke-linejoin="round" stroke-width=".5"/><polyline points="263.803 247.87 263.803 241.832 208.122 204.993" fill="none" stroke="#231f20" stroke-linecap="round" stroke-linejoin="round" stroke-width=".5"/><polyline points="214.7 200.679 270.237 237.625 270.287 243.663" fill="none" stroke="#231f20" stroke-linecap="round" stroke-linejoin="round" stroke-width=".5"/><polyline points="277.068 239.555 276.919 233.418 221.732 196.89" fill="none" stroke="#231f20" stroke-linecap="round" stroke-linejoin="round" stroke-width=".5"/><polyline points="236.615 237.126 236.634 261.267 224.7 268.726" fill="none" stroke="#231f20" stroke-linecap="round" stroke-linejoin="round" stroke-width=".5"/><line x1="205.876" y1="247.595" x2="205.604" y2="254.405" fill="none" stroke="#231f20" stroke-linecap="round" stroke-linejoin="round" stroke-width=".5"/><line x1="214.786" y1="241.693" x2="214.655" y2="260.671" fill="none" stroke="#231f20" stroke-linecap="round" stroke-linejoin="round" stroke-width=".5"/><line x1="222.582" y1="246.593" x2="222.114" y2="265.245" fill="none" stroke="#231f20" stroke-linecap="round" stroke-linejoin="round" stroke-width=".5"/><line x1="175.584" y1="215.409" x2="175.325" y2="225.045" fill="none" stroke="#231f20" stroke-linecap="round" stroke-linejoin="round" stroke-width=".5"/><line x1="174.024" y1="226.212" x2="173.822" y2="233.033" fill="none" stroke="#231f20" stroke-linecap="round" stroke-linejoin="round" stroke-width=".5"/><polyline points="167.149 241.021 166.961 231.53 168.841 230.308 224.351 267.182 224.238 273.144" fill="none" stroke="#231f20" stroke-linecap="round" stroke-linejoin="round" stroke-width=".5"/><polyline points="157.751 243.183 157.751 237.356 159.443 236.229 215.047 273.054 215.024 279.151" fill="none" stroke="#231f20" stroke-linecap="round" stroke-linejoin="round" stroke-width=".5"/><polyline points="151.267 247.882 151.267 241.679 152.865 240.552 208.566 277.232 208.405 283.499" fill="none" stroke="#231f20" stroke-linecap="round" stroke-linejoin="round" stroke-width=".5"/><polyline points="158.409 237.356 213.292 274.007 213.376 280.303" fill="none" stroke="#231f20" stroke-linecap="round" stroke-linejoin="round" stroke-width=".5"/><polyline points="166.961 231.53 222.784 268.275 222.635 274.251" fill="none" stroke="#231f20" stroke-linecap="round" stroke-linejoin="round" stroke-width=".5"/><polyline points="151.267 241.679 206.808 278.33 206.736 283.713" fill="none" stroke="#231f20" stroke-linecap="round" stroke-linejoin="round" stroke-width=".5"/><line x1="206.808" y1="278.33" x2="208.566" y2="277.232" fill="none" stroke="#231f20" stroke-linecap="round" stroke-linejoin="round" stroke-width=".5"/><line x1="213.292" y1="274.007" x2="215.047" y2="273.054" fill="none" stroke="#231f20" stroke-linecap="round" stroke-linejoin="round" stroke-width=".5"/><line x1="222.784" y1="268.275" x2="224.351" y2="267.182" fill="none" stroke="#231f20" stroke-linecap="round" stroke-linejoin="round" stroke-width=".5"/><line x1="204.218" y1="283.458" x2="204.288" y2="290.196" fill="none" stroke="#231f20" stroke-linecap="round" stroke-linejoin="round" stroke-width=".5"/><line x1="257.121" y1="246.088" x2="258.804" y2="245.148" fill="none" stroke="#231f20" stroke-linecap="round" stroke-linejoin="round" stroke-width=".5"/><line x1="263.803" y1="241.832" x2="265.492" y2="240.795" fill="none" stroke="#231f20" stroke-linecap="round" stroke-linejoin="round" stroke-width=".5"/><line x1="270.237" y1="237.625" x2="272.07" y2="236.697" fill="none" stroke="#231f20" stroke-linecap="round" stroke-linejoin="round" stroke-width=".5"/><line x1="276.919" y1="233.418" x2="278.54" y2="232.383" fill="none" stroke="#231f20" stroke-linecap="round" stroke-linejoin="round" stroke-width=".5"/><polyline points="73.213 196.129 73.213 189.91 74.891 188.824 79.626 191.941 130.37 225.349 130.469 234.036" fill="none" stroke="#231f20" stroke-linecap="round" stroke-linejoin="round" stroke-width=".5"/><polyline points="136.984 228.212 136.984 221.203 86.246 187.438 81.505 184.283 79.827 185.566 79.626 191.941" fill="none" stroke="#231f20" stroke-linecap="round" stroke-linejoin="round" stroke-width=".5"/><polyline points="143.499 223.868 143.499 216.958 88.119 180.334 86.441 181.223 86.246 187.438" fill="none" stroke="#231f20" stroke-linecap="round" stroke-linejoin="round" stroke-width=".5"/><polyline points="92.956 182.901 93.154 176.879 94.733 175.991 150.344 212.866 150.311 219.624" fill="none" stroke="#231f20" stroke-linecap="round" stroke-linejoin="round" stroke-width=".5"/><polyline points="86.441 181.223 142.019 218.044 142.117 224.954" fill="none" stroke="#231f20" stroke-linecap="round" stroke-linejoin="round" stroke-width=".5"/><polyline points="79.827 185.566 135.306 222.289 135.405 229.298" fill="none" stroke="#231f20" stroke-linecap="round" stroke-linejoin="round" stroke-width=".5"/><polyline points="73.213 189.91 128.692 226.435 128.692 233.049" fill="none" stroke="#231f20" stroke-linecap="round" stroke-linejoin="round" stroke-width=".5"/><polyline points="93.154 176.879 148.691 213.905 148.665 220.884" fill="none" stroke="#231f20" stroke-linecap="round" stroke-linejoin="round" stroke-width=".5"/><line x1="128.692" y1="226.435" x2="130.37" y2="225.349" fill="none" stroke="#231f20" stroke-linecap="round" stroke-linejoin="round" stroke-width=".5"/><line x1="135.306" y1="222.289" x2="136.984" y2="221.203" fill="none" stroke="#231f20" stroke-linecap="round" stroke-linejoin="round" stroke-width=".5"/><line x1="142.019" y1="218.044" x2="143.499" y2="216.958" fill="none" stroke="#231f20" stroke-linecap="round" stroke-linejoin="round" stroke-width=".5"/><line x1="148.691" y1="213.905" x2="150.344" y2="212.866" fill="none" stroke="#231f20" stroke-linecap="round" stroke-linejoin="round" stroke-width=".5"/><polyline points="143.854 146.557 144.015 144.706 145.705 143.499 150.523 146.694 201.151 180.275 201.151 187.277" fill="none" stroke="#231f20" stroke-linecap="round" stroke-linejoin="round" stroke-width=".5"/><polyline points="207.75 183.173 207.67 176.01 152.304 139.395 150.694 140.441 150.523 146.694" fill="none" stroke="#231f20" stroke-linecap="round" stroke-linejoin="round" stroke-width=".5"/><polyline points="157.293 141.809 157.213 136.176 158.903 135.049 214.269 171.826 214.349 178.988" fill="none" stroke="#231f20" stroke-linecap="round" stroke-linejoin="round" stroke-width=".5"/><polyline points="173.951 170.699 194.472 184.46 194.713 191.461" fill="none" stroke="#231f20" stroke-linecap="round" stroke-linejoin="round" stroke-width=".5"/><polyline points="173.539 166.286 173.601 172.956 173.79 193.151 187.793 202.567 188.597 202.567 189.483 203.13 189.885 203.774 190.77 204.257 193.564 202.669 193.638 197.82 191.693 196.367 191.324 195.112 189.872 194.767 189.847 198.534" fill="none" stroke="#231f20" stroke-linecap="round" stroke-linejoin="round" stroke-width=".5"/><polyline points="173.601 172.956 192.782 185.426 192.863 192.588" fill="none" stroke="#231f20" stroke-linecap="round" stroke-linejoin="round" stroke-width=".5"/><polyline points="144.015 144.706 199.542 181.402 199.461 188.162" fill="none" stroke="#231f20" stroke-linecap="round" stroke-linejoin="round" stroke-width=".5"/><polyline points="157.213 136.176 212.659 172.791 212.659 179.712" fill="none" stroke="#231f20" stroke-linecap="round" stroke-linejoin="round" stroke-width=".5"/><polyline points="151.177 140.682 206.141 177.137 206.06 184.299" fill="none" stroke="#231f20" stroke-linecap="round" stroke-linejoin="round" stroke-width=".5"/><line x1="192.782" y1="185.426" x2="194.472" y2="184.46" fill="none" stroke="#231f20" stroke-linecap="round" stroke-linejoin="round" stroke-width=".5"/><line x1="199.542" y1="181.402" x2="201.151" y2="180.275" fill="none" stroke="#231f20" stroke-linecap="round" stroke-linejoin="round" stroke-width=".5"/><line x1="206.141" y1="177.137" x2="207.67" y2="176.01" fill="none" stroke="#231f20" stroke-linecap="round" stroke-linejoin="round" stroke-width=".5"/><line x1="212.659" y1="172.791" x2="214.269" y2="171.826" fill="none" stroke="#231f20" stroke-linecap="round" stroke-linejoin="round" stroke-width=".5"/><polyline points="173.818 187.507 188.345 197.647 190.894 199.426 190.78 203.896" fill="none" stroke="#231f20" stroke-linecap="round" stroke-linejoin="round" stroke-width=".5"/><line x1="188.122" y1="202.508" x2="188.281" y2="197.79" fill="none" stroke="#231f20" stroke-linecap="round" stroke-linejoin="round" stroke-width=".5"/><polyline points="190.044 194.595 192.407 193.093 193.81 193.512 194.106 194.447 196.1 196.121 196.149 196.663 196.026 197.155 194.278 198.238 194.204 202.152 196.888 200.503 196.912 196.909" fill="none" stroke="#231f20" stroke-linecap="round" stroke-linejoin="round" stroke-width=".5"/><line x1="193.81" y1="193.758" x2="191.57" y2="195.136" fill="none" stroke="#231f20" stroke-linecap="round" stroke-linejoin="round" stroke-width=".5"/><polyline points="197.016 200.601 197.09 195.751 195.145 194.299 194.776 193.043 193.323 192.699" fill="none" stroke="#231f20" stroke-linecap="round" stroke-linejoin="round" stroke-width=".5"/><polyline points="193.496 192.526 195.859 191.025 197.262 191.443 197.558 192.379 199.552 194.052 199.601 194.594 199.478 195.086 197.73 196.17 197.656 200.084 200.339 198.434 200.364 194.84" fill="none" stroke="#231f20" stroke-linecap="round" stroke-linejoin="round" stroke-width=".5"/><line x1="197.262" y1="191.689" x2="195.022" y2="193.068" fill="none" stroke="#231f20" stroke-linecap="round" stroke-linejoin="round" stroke-width=".5"/><polyline points="200.146 198.494 200.22 193.644 198.275 192.192 197.906 190.937 196.453 190.592" fill="none" stroke="#231f20" stroke-linecap="round" stroke-linejoin="round" stroke-width=".5"/><polyline points="196.626 190.42 198.989 188.918 200.392 189.336 200.687 190.272 202.681 191.946 202.731 192.487 202.608 192.98 200.86 194.063 200.786 197.977 203.469 196.328 203.494 192.734" fill="none" stroke="#231f20" stroke-linecap="round" stroke-linejoin="round" stroke-width=".5"/><line x1="200.392" y1="189.583" x2="198.152" y2="190.961" fill="none" stroke="#231f20" stroke-linecap="round" stroke-linejoin="round" stroke-width=".5"/><polyline points="203.486 196.508 203.56 191.658 201.615 190.206 201.246 188.95 199.794 188.606" fill="none" stroke="#231f20" stroke-linecap="round" stroke-linejoin="round" stroke-width=".5"/><polyline points="199.966 188.433 202.329 186.932 203.733 187.35 204.028 188.286 206.022 189.96 206.071 190.501 205.948 190.994 204.2 192.077 204.126 195.991 206.81 194.341 206.834 190.747" fill="none" stroke="#231f20" stroke-linecap="round" stroke-linejoin="round" stroke-width=".5"/><line x1="203.733" y1="187.596" x2="201.492" y2="188.975" fill="none" stroke="#231f20" stroke-linecap="round" stroke-linejoin="round" stroke-width=".5"/><polyline points="206.767 194.371 206.841 189.521 204.896 188.069 204.527 186.814 203.074 186.469" fill="none" stroke="#231f20" stroke-linecap="round" stroke-linejoin="round" stroke-width=".5"/><polyline points="203.246 186.297 205.61 184.795 207.013 185.213 207.308 186.149 209.302 187.823 209.352 188.364 209.228 188.857 207.481 189.94 207.407 193.854 210.09 192.205 210.115 188.611" fill="none" stroke="#231f20" stroke-linecap="round" stroke-linejoin="round" stroke-width=".5"/><line x1="207.013" y1="185.46" x2="204.773" y2="186.838" fill="none" stroke="#231f20" stroke-linecap="round" stroke-linejoin="round" stroke-width=".5"/><polyline points="210.047 192.234 210.121 187.385 208.176 185.932 207.807 184.677 206.354 184.332" fill="none" stroke="#231f20" stroke-linecap="round" stroke-linejoin="round" stroke-width=".5"/><polyline points="206.527 184.16 208.89 182.658 210.293 183.077 210.589 184.012 212.583 185.686 212.632 186.228 212.509 186.72 210.761 187.803 210.687 191.717 213.37 190.068 213.395 186.474" fill="none" stroke="#231f20" stroke-linecap="round" stroke-linejoin="round" stroke-width=".5"/><line x1="210.293" y1="183.323" x2="208.053" y2="184.701" fill="none" stroke="#231f20" stroke-linecap="round" stroke-linejoin="round" stroke-width=".5"/><polyline points="213.316 190.093 213.389 185.243 211.445 183.79 211.075 182.535 209.623 182.19" fill="none" stroke="#231f20" stroke-linecap="round" stroke-linejoin="round" stroke-width=".5"/><polyline points="209.795 182.018 212.159 180.516 213.562 180.935 213.857 181.87 215.851 183.544 215.9 184.086 215.777 184.578 214.03 185.661 213.956 189.576 216.639 187.926 216.664 184.332" fill="none" stroke="#231f20" stroke-linecap="round" stroke-linejoin="round" stroke-width=".5"/><line x1="213.562" y1="181.181" x2="211.322" y2="182.56" fill="none" stroke="#231f20" stroke-linecap="round" stroke-linejoin="round" stroke-width=".5"/><polyline points="216.686 188.016 216.76 183.166 214.815 181.714 214.446 180.458 212.994 180.114" fill="none" stroke="#231f20" stroke-linecap="round" stroke-linejoin="round" stroke-width=".5"/><polyline points="213.166 179.941 215.529 178.44 216.932 178.858 217.228 179.794 219.222 181.468 219.271 182.009 219.148 182.502 217.4 183.585 217.326 187.499 219.33 186.147 219.354 182.553" fill="none" stroke="#231f20" stroke-linecap="round" stroke-linejoin="round" stroke-width=".5"/><line x1="216.932" y1="179.104" x2="214.692" y2="180.483" fill="none" stroke="#231f20" stroke-linecap="round" stroke-linejoin="round" stroke-width=".5"/><path d="M189.776,196.358l2.68,2.68s.521-.409,1.005-.298" fill="none" stroke="#231f20" stroke-linecap="round" stroke-linejoin="round" stroke-width=".5"/><polyline points="132.127 235.361 132.18 231.782 133.632 232.127 134.001 233.382 135.946 234.835 135.872 235.595" fill="none" stroke="#231f20" stroke-linecap="round" stroke-linejoin="round" stroke-width=".5"/><polyline points="137.201 238.744 139.196 237.518 139.22 233.924" fill="none" stroke="#231f20" stroke-linecap="round" stroke-linejoin="round" stroke-width=".5"/><polyline points="132.352 231.61 134.715 230.108 136.119 230.527 136.414 231.462 138.408 233.136 138.457 233.678 138.334 234.17 136.586 235.253 136.532 238.114" fill="none" stroke="#231f20" stroke-linecap="round" stroke-linejoin="round" stroke-width=".5"/><line x1="136.119" y1="230.773" x2="133.878" y2="232.151" fill="none" stroke="#231f20" stroke-linecap="round" stroke-linejoin="round" stroke-width=".5"/><polyline points="139.296 237.34 139.37 232.49 137.425 231.038 137.056 229.782 135.604 229.437" fill="none" stroke="#231f20" stroke-linecap="round" stroke-linejoin="round" stroke-width=".5"/><polyline points="135.776 229.265 138.139 227.763 139.542 228.182 139.838 229.117 141.832 230.791 141.881 231.333 141.758 231.825 140.01 232.908 139.936 236.823 142.62 235.173 142.644 231.579" fill="none" stroke="#231f20" stroke-linecap="round" stroke-linejoin="round" stroke-width=".5"/><line x1="139.542" y1="228.428" x2="137.302" y2="229.807" fill="none" stroke="#231f20" stroke-linecap="round" stroke-linejoin="round" stroke-width=".5"/><polyline points="142.534 235.293 142.608 230.443 140.663 228.991 140.294 227.735 138.841 227.39" fill="none" stroke="#231f20" stroke-linecap="round" stroke-linejoin="round" stroke-width=".5"/><polyline points="139.014 227.218 141.377 225.716 142.78 226.135 143.076 227.07 145.07 228.744 145.119 229.286 144.996 229.778 143.248 230.862 143.174 234.776 145.857 233.126 145.882 229.532" fill="none" stroke="#231f20" stroke-linecap="round" stroke-linejoin="round" stroke-width=".5"/><line x1="142.78" y1="226.381" x2="140.54" y2="227.76" fill="none" stroke="#231f20" stroke-linecap="round" stroke-linejoin="round" stroke-width=".5"/><polyline points="145.921 233.171 145.995 228.322 144.05 226.869 143.681 225.614 142.228 225.269" fill="none" stroke="#231f20" stroke-linecap="round" stroke-linejoin="round" stroke-width=".5"/><polyline points="142.401 225.097 144.764 223.595 146.167 224.014 146.462 224.949 148.456 226.623 148.506 227.165 148.383 227.657 146.635 228.74 146.561 232.654 149.244 231.005 149.269 227.411" fill="none" stroke="#231f20" stroke-linecap="round" stroke-linejoin="round" stroke-width=".5"/><line x1="146.167" y1="224.26" x2="143.927" y2="225.638" fill="none" stroke="#231f20" stroke-linecap="round" stroke-linejoin="round" stroke-width=".5"/><polyline points="149.159 231.013 149.233 226.163 147.288 224.711 146.918 223.455 145.466 223.111" fill="none" stroke="#231f20" stroke-linecap="round" stroke-linejoin="round" stroke-width=".5"/><polyline points="145.638 222.938 148.002 221.437 149.405 221.855 149.7 222.791 151.694 224.465 151.744 225.006 151.62 225.498 149.873 226.582 149.799 230.496 152.482 228.846 152.507 225.252" fill="none" stroke="#231f20" stroke-linecap="round" stroke-linejoin="round" stroke-width=".5"/><line x1="149.405" y1="222.101" x2="147.165" y2="223.48" fill="none" stroke="#231f20" stroke-linecap="round" stroke-linejoin="round" stroke-width=".5"/><polyline points="152.434 228.966 152.508 224.116 150.563 222.664 150.194 221.408 148.741 221.064" fill="none" stroke="#231f20" stroke-linecap="round" stroke-linejoin="round" stroke-width=".5"/><polyline points="148.913 220.891 151.277 219.39 152.68 219.808 152.975 220.744 154.969 222.418 155.019 222.959 154.895 223.452 153.148 224.535 153.074 228.449 155.757 226.8 155.782 223.205" fill="none" stroke="#231f20" stroke-linecap="round" stroke-linejoin="round" stroke-width=".5"/><line x1="152.68" y1="220.054" x2="150.44" y2="221.433" fill="none" stroke="#231f20" stroke-linecap="round" stroke-linejoin="round" stroke-width=".5"/><polyline points="155.858 226.77 155.932 221.92 153.987 220.468 153.617 219.213 152.165 218.868" fill="none" stroke="#231f20" stroke-linecap="round" stroke-linejoin="round" stroke-width=".5"/><polyline points="152.337 218.696 154.701 217.194 156.104 217.612 156.399 218.548 158.393 220.222 158.442 220.763 158.319 221.256 156.572 222.339 156.498 226.253 158.388 224.901 158.412 221.307" fill="none" stroke="#231f20" stroke-linecap="round" stroke-linejoin="round" stroke-width=".5"/><line x1="156.104" y1="217.859" x2="153.864" y2="219.237" fill="none" stroke="#231f20" stroke-linecap="round" stroke-linejoin="round" stroke-width=".5"/><polyline points="135.649 235.725 135.097 235.774 134.772 237.106" fill="none" stroke="#231f20" stroke-linecap="round" stroke-linejoin="round" stroke-width=".5"/><polyline points="24.259 163.224 27.687 161.075 30.501 162.866 33.264 161.126 30.45 159.233 34.338 156.777 37.254 158.517" fill="none" stroke="#231f20" stroke-linecap="round" stroke-linejoin="round" stroke-width=".5"/><polyline points="39.557 157.186 37.357 155.652 37.357 154.731 41.04 152.377 43.957 154.219" fill="none" stroke="#231f20" stroke-linecap="round" stroke-linejoin="round" stroke-width=".5"/><polyline points="46.208 152.735 44.213 151.405 44.161 150.586 47.896 148.13 50.71 149.921" fill="none" stroke="#231f20" stroke-linecap="round" stroke-linejoin="round" stroke-width=".5"/><polyline points="80.063 131.349 78.068 130.019 78.017 129.201 81.752 126.745 84.566 128.535" fill="none" stroke="#231f20" stroke-linecap="round" stroke-linejoin="round" stroke-width=".5"/><polyline points="86.763 126.917 84.767 125.587 84.716 124.769 88.451 122.313 91.265 124.103" fill="none" stroke="#231f20" stroke-linecap="round" stroke-linejoin="round" stroke-width=".5"/><polyline points="93.359 122.692 91.364 121.361 91.313 120.543 95.048 118.087 97.862 119.878" fill="none" stroke="#231f20" stroke-linecap="round" stroke-linejoin="round" stroke-width=".5"/><polyline points="100.162 118.363 98.166 117.032 98.115 116.214 101.85 113.758 104.664 115.549" fill="none" stroke="#231f20" stroke-linecap="round" stroke-linejoin="round" stroke-width=".5"/><polyline points="106.861 114.034 104.866 112.703 104.815 111.885 108.55 109.429 111.364 111.22 112.841 110.377 110.854 108.986 117.015 105.16 129.586 113.507 129.586 115.594" fill="none" stroke="#231f20" stroke-linecap="round" stroke-linejoin="round" stroke-width=".5"/><polyline points="71.214 133.529 74.949 131.074 77.763 132.864" fill="none" stroke="#231f20" stroke-linecap="round" stroke-linejoin="round" stroke-width=".5"/><polyline points="53.115 148.489 50.966 147.158 50.966 146.033 54.701 143.782 57.464 145.623" fill="none" stroke="#231f20" stroke-linecap="round" stroke-linejoin="round" stroke-width=".5"/><polyline points="59.818 144.14 57.771 142.707 57.72 141.837 63.194 138.461 66.111 140.405" fill="none" stroke="#231f20" stroke-linecap="round" stroke-linejoin="round" stroke-width=".5"/><polyline points="69.447 140.729 69.55 134.338 78.105 139.904" fill="none" stroke="#231f20" stroke-linecap="round" stroke-linejoin="round" stroke-width=".5"/><line x1="124.021" y1="117.234" x2="129.586" y2="113.507" fill="none" stroke="#231f20" stroke-linecap="round" stroke-linejoin="round" stroke-width=".5"/><polyline points="118.754 106.104 118.804 104.961 118.307 103.222 121.388 101.334 134.257 109.88 131.425 111.868 118.804 103.52" fill="none" stroke="#231f20" stroke-linecap="round" stroke-linejoin="round" stroke-width=".5"/><line x1="131.425" y1="111.868" x2="131.226" y2="116.687" fill="none" stroke="#231f20" stroke-linecap="round" stroke-linejoin="round" stroke-width=".5"/><polyline points="132.568 117.631 134.104 116.467 134.257 109.88" fill="none" stroke="#231f20" stroke-linecap="round" stroke-linejoin="round" stroke-width=".5"/><path d="M143.168,118.97c-4.981-.155-5.428-3.276-5.428-3.276l-.402-.186c-1.237-2.66,1.237-5.011,1.237-5.011l4.88-3.061,7.97,5.299" fill="none" stroke="#231f20" stroke-linecap="round" stroke-linejoin="round" stroke-width=".5"/><path d="M143.556,117.994c-2.382.186-3.991-1.063-3.991-1.063-3.588-2.753-.804-5.445-.804-5.445,1.021-1.64,4.176-1.732,4.176-1.732l.742-.557.402.309-.309.742,4.826,3.341.526.062" fill="none" stroke="#231f20" stroke-linecap="round" stroke-linejoin="round" stroke-width=".5"/><path d="M148.815,115.013s-.842,1.618-3.193,2.206c0,0-4.261.818-1.478,2.755" fill="none" stroke="#231f20" stroke-linecap="round" stroke-linejoin="round" stroke-width=".5"/><path d="M149.279,115.941s-1.423,1.578-3.712,1.98c0,0-2.722.557-1.145,2.258,0,0,1.825.495,3.991-.959s2.908-1.918,2.908-1.918" fill="none" stroke="#231f20" stroke-linecap="round" stroke-linejoin="round" stroke-width=".5"/><path d="M150.651,113.533l1.717.499s1.75.845,1.651,2.202c0,0-.118,1.278-1.573,1.317l-2.241-.727s-1.494-1.101-1.199-2.221c0,0,.048-1.201,1.645-1.069Z" fill="none" stroke="#231f20" stroke-linecap="round" stroke-linejoin="round" stroke-width=".5"/><path d="M149.4,113.678s.098-1.121,2.084-.786l1.828.727s2.556,1.691.295,3.519" fill="none" stroke="#231f20" stroke-linecap="round" stroke-linejoin="round" stroke-width=".5"/><line x1="150.503" y1="116.002" x2="150.503" y2="114.34" fill="none" stroke="#231f20" stroke-linecap="round" stroke-linejoin="round" stroke-width=".5"/><line x1="151.359" y1="116.299" x2="151.359" y2="114.636" fill="none" stroke="#231f20" stroke-linecap="round" stroke-linejoin="round" stroke-width=".5"/><line x1="152.215" y1="116.595" x2="152.215" y2="114.932" fill="none" stroke="#231f20" stroke-linecap="round" stroke-linejoin="round" stroke-width=".5"/><ellipse cx="140.919" cy="102.393" rx="1.211" ry="1.692" transform="translate(-32.811 89.721) rotate(-31.831)" fill="none" stroke="#231f20" stroke-linecap="round" stroke-linejoin="round" stroke-width=".5"/><path d="M139.545,101.013c.002-.459.153-.831.456-1.019.643-.399,1.729.185,2.424,1.305s.738,2.352.094,2.751c-.241.15-.545.161-.866.058" fill="none" stroke="#231f20" stroke-linecap="round" stroke-linejoin="round" stroke-width=".5"/><line x1="157.309" y1="109.952" x2="201.507" y2="139.36" fill="none" stroke="#231f20" stroke-linecap="round" stroke-linejoin="round" stroke-width=".5"/><polyline points="158.358 107.597 154.966 109.813 154.775 112.439 153.817 113.096 151.793 111.646 151.793 112.603" fill="none" stroke="#231f20" stroke-linecap="round" stroke-linejoin="round" stroke-width=".5"/><polyline points="152.039 111.536 154.2 110.141 154.228 109.375 155.842 108.309 156.389 108.664" fill="none" stroke="#231f20" stroke-linecap="round" stroke-linejoin="round" stroke-width=".5"/><polyline points="155.158 109.758 156.279 110.442 159.562 108.363" fill="none" stroke="#231f20" stroke-linecap="round" stroke-linejoin="round" stroke-width=".5"/><polyline points="202.437 138.843 200.163 140.222 202.368 141.635 204.609 140.256 204.574 150.044 202.3 151.525 202.403 141.669" fill="none" stroke="#231f20" stroke-linecap="round" stroke-linejoin="round" stroke-width=".5"/><polyline points="202.058 151.388 199.818 149.906 200.37 149.492 200.473 140.36" fill="none" stroke="#231f20" stroke-linecap="round" stroke-linejoin="round" stroke-width=".5"/><path d="M200.232,149.733l-.793-.414.069-9.339-43.905-29.086-.069,3.756s1.172.827.758,1.93c0,0,0,.896-1.31.586l-.069,3.412,44.045,29.311" fill="none" stroke="#231f20" stroke-linecap="round" stroke-linejoin="round" stroke-width=".5"/><path d="M152.447,117.551s1.023,1.251,2.414,1.348" fill="none" stroke="#231f20" stroke-linecap="round" stroke-linejoin="round" stroke-width=".5"/></g><g id="c"><path d="M196.192,56.698l3.356-.748s5.001-.71,14.819-6.46,10.224-13.454,10.224-13.454l5.363-3.708-3.514-2.14-1.54,1.157c-2.347,1.588-4.924.107-4.924.107,0,0-23.123-13.343-24.548-14.671s2.976-3.25,2.976-3.25l-3.616-2.283-5.257,3.374s-12.322,1.198-19.999,8.286-4.808,18.033-4.808,18.033" fill="#d0cfcd"/><path d="M226.411,86.101l.965,7.173c2.069,9.866,15.397,17.132,31.255,16.588,17.035-.585,30.538-9.96,30.161-20.941l-.591-6.431" fill="#d1d3d4" stroke="#231f20" stroke-linecap="round" stroke-linejoin="round" stroke-width=".521"/><ellipse cx="257.326" cy="84.436" rx="30.862" ry="19.894" transform="translate(-2.745 8.877) rotate(-1.966)" fill="#d1d3d4" stroke="#231f20" stroke-linecap="round" stroke-linejoin="round" stroke-width=".521"/><line x1="246.969" y1="78.405" x2="267.26" y2="90.476" fill="none" stroke="#231f20" stroke-linecap="round" stroke-linejoin="round" stroke-width="3"/><line x1="266.933" y1="77.962" x2="247.546" y2="90.998" fill="none" stroke="#231f20" stroke-linecap="round" stroke-linejoin="round" stroke-width="3"/><path d="M290.727,90.392s-5.145,2.819-8.959,3.149-5.417.239-5.682,1.178c0,0-1.317,2.142-.648,5.488,0,0-.058,3.116,1.219,3.328s3.706,2.035,3.706,2.035l9.933-4.408.43-10.77Z" fill="#fff"/><path d="M164.721,40.941l-.13.749s-.123,9.224,8.541,15.308c0,0,9.332,6.295,21.204,5.601l.323-4.537,1.533-1.364" fill="#d0cfcd"/><path d="M242.788,33.492l.237,13.669-19.287,12.947c-5.176,4.192-14.758,7.51-19.833,8.091-5.075.581-6.612-3.443-6.612-3.443-1.851-5.997,3.374-7.051,3.374-7.051,13.07-3.18,20.654-9.9,20.654-9.9l21.439-14.396L192.625,2.817l-22.806,15.437s-8.833,7.33-8.883,17.599l-.107,8.244,2.917,1.66s-1.781-5.644.074-9.566" fill="none" stroke="#231f20" stroke-linecap="round" stroke-linejoin="round" stroke-width=".5"/><path d="M197.291,64.756l-1.391.521s-1.033.164-1.282-2.01.04-5.204.04-5.204l1.533-1.364" fill="none" stroke="#231f20" stroke-linecap="round" stroke-linejoin="round" stroke-width=".5"/><polygon points="205.124 20.303 210.01 17.121 219.91 23.001 215.017 26.266 205.124 20.303" fill="none" stroke="#231f20" stroke-linecap="round" stroke-linejoin="round" stroke-width=".5"/><path d="M164.62,41.669s-.123,9.224,8.541,15.308c0,0,9.332,6.295,21.204,5.601" fill="none" stroke="#231f20" stroke-linecap="round" stroke-linejoin="round" stroke-width=".507"/><path d="M189.528,14.623s-17.014.797-23.136,12.719c0,0-8.601,14.3,6.939,24.212,0,0,15.993,11.268,35.436,1.278,0,0,15.273-7.265,15.823-16.796l5.363-3.708-3.514-2.14-1.788,1.236s-1.893,1.57-4.677.028-24.548-14.671-24.548-14.671c0,0-.972-.854.361-1.724,1.308-.853,2.614-1.526,2.614-1.526l-3.616-2.283-5.257,3.374Z" fill="none" stroke="#231f20" stroke-linecap="round" stroke-linejoin="round" stroke-width=".507"/><line x1="180.066" y1="29.817" x2="200.358" y2="41.888" fill="none" stroke="#231f20" stroke-linecap="round" stroke-linejoin="round" stroke-width="3"/><line x1="200.03" y1="29.374" x2="180.643" y2="42.41" fill="none" stroke="#231f20" stroke-linecap="round" stroke-linejoin="round" stroke-width="3"/><path d="M323.616,71.582l.237,13.669-19.287,12.947c-5.176,4.192-14.758,7.51-19.833,8.091s-6.612-3.443-6.612-3.443c-1.851-5.997,3.374-7.051,3.374-7.051,13.07-3.18,20.654-9.9,20.654-9.9l21.439-14.396-50.134-30.592-22.806,15.437s-4.857,4.03-7.388,10.301" fill="none" stroke="#231f20" stroke-linecap="round" stroke-linejoin="round" stroke-width=".5"/><path d="M247.22,65.433c6.122-11.923,23.136-12.719,23.136-12.719l5.257-3.374,3.616,2.283s-1.307.673-2.614,1.526c-1.334.87-.361,1.724-.361,1.724,0,0,21.764,13.13,24.548,14.671s4.677-.028,4.677-.028l1.788-1.236,3.514,2.14-5.363,3.708c-.55,9.53-15.823,16.796-15.823,16.796-.255.131-.514.251-.764.383-4.689,2.461-10.998,2.646-10.998,2.646,0,0-1.955.302-2.346,2.201,0,0-.289,3.03-.04,5.204s1.282,2.01,1.282,2.01l3.011,1.75" fill="none" stroke="#231f20" stroke-linecap="round" stroke-linejoin="round" stroke-width=".507"/><polygon points="285.953 58.394 290.838 55.211 300.739 61.092 295.845 64.356 285.953 58.394" fill="none" stroke="#231f20" stroke-linecap="round" stroke-linejoin="round" stroke-width=".5"/><line x1="181.572" y1="65.091" x2="143.712" y2="112.914" fill="none" stroke="#fff" stroke-linecap="round" stroke-linejoin="round" stroke-width="3"/><line x1="181.572" y1="65.091" x2="143.712" y2="112.914" fill="#231f20" stroke="#231f20" stroke-linecap="round" stroke-linejoin="round" stroke-width=".5"/></g><g id="d"><line x1="254.164" y1="124.276" x2="253.646" y2="124.587" fill="#231f20"/><polygon points="225.379 103.117 234.455 108.676 219.119 117.869 223.715 120.654 207.531 119.978 205.52 109.632 209.978 112.329 225.379 103.117" fill="#231f20"/><path d="M157.69,63.287c-.673.414-2.693,1.658-4.723,2.46-2.342.924-4.11.863-5.236.107l-.014.026,11.338,9.459c1.125.755,2.893.816,5.237-.108,2.029-.802,4.049-2.045,4.722-2.459l-11.324-9.485Z" stroke="#fff"/><path d="M147.718,65.88c-1.785-1.991-1.098-6.787,2.197-13.426l.101-.334-2.766-2.316,12.605-2.806,3.658,16.427-2.764-2.315c-3.633,7.317-4.169,12.569-1.693,14.229l-11.338-9.459Z" stroke="#fff" stroke-linejoin="round"/><path d="M156.556,31.011c0,7.593-6.246,13.745-13.95,13.745s-13.953-6.152-13.953-13.745,6.246-13.755,13.953-13.755,13.95,6.159,13.95,13.755" fill="#231f20" stroke="#fff" stroke-miterlimit="10" stroke-width="1.5"/><rect x="128.413" y="22.954" width="27.228" height="24.791" fill="none"/><path d="M144.011,37.99h-1.846v-11.761c-.444.424-1.027.848-1.749,1.271s-1.369.742-1.943.954v-1.784c1.032-.485,1.935-1.073,2.707-1.764s1.319-1.36,1.641-2.01h1.189v15.094Z" fill="#fff"/><path d="M223.703,90.155c0,7.593-6.246,13.745-13.95,13.745s-13.953-6.152-13.953-13.745,6.246-13.755,13.953-13.755,13.95,6.159,13.95,13.755" fill="#231f20" stroke="#fff" stroke-miterlimit="10" stroke-width="1.5"/><rect x="196.434" y="82.098" width="27.228" height="24.791" fill="none"/><path d="M214.78,95.36v1.774h-9.936c-.014-.444.058-.872.215-1.282.253-.677.658-1.343,1.216-2,.557-.656,1.361-1.415,2.414-2.276,1.634-1.34,2.738-2.401,3.312-3.184s.861-1.523.861-2.22c0-.731-.262-1.348-.784-1.851-.523-.502-1.205-.753-2.046-.753-.889,0-1.6.267-2.133.8s-.804,1.271-.811,2.215l-1.896-.195c.13-1.415.618-2.493,1.466-3.235.848-.741,1.986-1.112,3.415-1.112,1.442,0,2.584.4,3.425,1.2s1.261,1.791,1.261,2.974c0,.602-.123,1.193-.369,1.774s-.654,1.193-1.225,1.835c-.571.643-1.52,1.524-2.846,2.646-1.107.93-1.818,1.561-2.133,1.892s-.574.665-.779,1h7.372Z" fill="#fff"/></g></svg>