<?xml version="1.0" encoding="UTF-8"?><svg id="a" xmlns="http://www.w3.org/2000/svg" width="2.286in" height="1.35in" viewBox="0 0 164.564 97.17"><rect x="1.282" y="1.282" width="162" height="94.606" fill="none" stroke="#939598" stroke-width="2.564"/><polygon points="163.282 1.282 80.43 1.282 80.43 23.709 137.221 23.709 163.282 23.709 163.282 1.282" fill="#939598" stroke="#939598" stroke-width="2.564"/><rect x="1.282" y="1.282" width="77.517" height="22.427" fill="none" stroke="#939598" stroke-width="2.564"/><path d="M85.714,9.727v5.238h3.132v1.188h-4.545v-6.426h1.413Z" fill="#fff"/><path d="M91.051,9.727v6.426h-1.413v-6.426h1.413Z" fill="#fff"/><path d="M96.811,9.727v1.188h-3.104v1.485h2.69v1.098h-2.69v2.655h-1.413v-6.426h4.518Z" fill="#fff"/><path d="M97.126,10.915v-1.188h5.265v1.188h-1.926v5.238h-1.413v-5.238h-1.926Z" fill="#fff"/><path d="M104.542,9.727v6.426h-1.413v-6.426h1.413Z" fill="#fff"/><path d="M107.188,9.727l2.682,4.311h.018v-4.311h1.323v6.426h-1.413l-2.673-4.302h-.018v4.302h-1.323v-6.426h1.404Z" fill="#fff"/><path d="M116.259,16.104c-.306.129-.615.193-.927.193-.492,0-.935-.085-1.327-.256-.394-.171-.725-.407-.995-.707-.27-.3-.477-.653-.621-1.058-.144-.405-.216-.841-.216-1.31,0-.48.072-.925.216-1.336.145-.411.352-.77.621-1.076.271-.306.602-.546.995-.72.393-.174.835-.261,1.327-.261.33,0,.649.05.959.148.309.099.588.245.837.437.248.192.454.429.616.711.162.282.261.606.297.972h-1.35c-.084-.36-.246-.63-.486-.81-.24-.18-.531-.27-.873-.27-.318,0-.588.062-.81.185-.223.123-.402.288-.54.495-.139.207-.239.442-.302.707-.063.264-.095.537-.095.819,0,.27.031.533.095.788.062.255.163.484.302.688.138.204.317.368.54.49.222.123.491.185.81.185.468,0,.829-.118,1.085-.355.255-.237.403-.581.445-1.03h-1.422v-1.053h2.699v3.474h-.899l-.145-.729c-.252.324-.53.551-.837.68Z" fill="#fff"/><path d="M123.198,9.727v2.466h2.601v-2.466h1.413v6.426h-1.413v-2.772h-2.601v2.772h-1.413v-6.426h1.413Z" fill="#fff"/><path d="M131.658,9.727l2.402,6.426h-1.467l-.485-1.431h-2.403l-.504,1.431h-1.422l2.43-6.426h1.449ZM131.739,13.669l-.811-2.358h-.018l-.837,2.358h1.665Z" fill="#fff"/><path d="M137.652,10.915h-3.178v-1.188h5.059v1.116l-3.447,4.122h3.537v1.188h-5.418v-1.116l3.447-4.122Z" fill="#fff"/><path d="M143.655,9.727l2.402,6.426h-1.467l-.485-1.431h-2.403l-.504,1.431h-1.422l2.43-6.426h1.449ZM143.736,13.669l-.811-2.358h-.018l-.837,2.358h1.665Z" fill="#fff"/><path d="M150.081,9.727c.288,0,.548.046.778.139.231.093.429.221.595.383.164.162.29.35.378.562.087.213.13.442.13.688,0,.378-.079.705-.238.981s-.419.486-.778.63v.018c.174.048.317.122.432.22.114.099.207.216.279.351.072.135.124.284.157.446.033.162.056.324.067.486.006.102.013.222.019.36.006.138.017.279.031.423.015.144.039.28.072.409.032.129.082.239.148.329h-1.413c-.078-.204-.126-.447-.145-.729-.018-.282-.045-.552-.081-.81-.048-.336-.149-.582-.306-.738-.156-.156-.411-.234-.765-.234h-1.413v2.511h-1.413v-6.426h3.465ZM149.577,12.634c.324,0,.567-.072.729-.216.162-.144.243-.378.243-.702,0-.312-.081-.539-.243-.68-.161-.141-.404-.211-.729-.211h-1.548v1.809h1.548Z" fill="#fff"/><path d="M155.886,9.727c.414,0,.8.066,1.157.198.356.132.666.33.927.594.261.264.465.594.612.99.146.396.22.861.22,1.395,0,.468-.06.9-.18,1.296s-.302.738-.544,1.026c-.243.288-.547.514-.909.679-.363.165-.791.248-1.283.248h-2.771v-6.426h2.771ZM155.787,14.965c.204,0,.402-.033.594-.099.192-.066.363-.175.514-.329.149-.153.27-.352.359-.598s.136-.546.136-.9c0-.324-.032-.617-.095-.878-.063-.261-.167-.484-.311-.67-.145-.186-.335-.329-.571-.427-.237-.099-.53-.148-.878-.148h-1.008v4.05h1.26Z" fill="#fff"/><path d="M9.104,18.555h12.535c.265,0,.25-.284.133-.485,0,0-6.074-12.181-6.233-12.503-.032-.035-.077-.079-.166-.079-.088,0-.133.044-.166.079-.161.322-6.233,12.503-6.233,12.503-.116.201-.133.485.131.485Z" fill="#f79320" fill-rule="evenodd"/><path d="M30.719,10.735c-.093-.15-.21-.282-.35-.395s-.298-.202-.475-.265-.361-.095-.555-.095c-.354,0-.654.069-.9.205-.247.137-.447.32-.6.55-.154.23-.265.492-.335.785-.07.293-.105.597-.105.91,0,.3.035.592.105.875.07.284.181.539.335.765.153.227.353.408.6.545.246.137.546.205.9.205.48,0,.855-.146,1.125-.44s.435-.68.495-1.16h1.52c-.04.447-.143.85-.31,1.21-.167.36-.387.667-.66.92-.273.253-.593.447-.96.58s-.77.2-1.21.2c-.547,0-1.039-.095-1.475-.285s-.805-.452-1.105-.785c-.3-.333-.53-.725-.69-1.175-.16-.45-.24-.935-.24-1.455,0-.533.08-1.028.24-1.485.16-.457.39-.855.69-1.195.3-.34.668-.606,1.105-.8s.928-.29,1.475-.29c.393,0,.765.057,1.115.17.35.114.664.279.94.495.277.217.505.485.685.805.18.32.293.687.34,1.1h-1.52c-.027-.18-.087-.345-.18-.495Z" fill="#221f1f"/><path d="M37.019,8.83l2.67,7.14h-1.63l-.54-1.59h-2.67l-.56,1.59h-1.58l2.7-7.14h1.61ZM37.108,13.21l-.9-2.62h-.02l-.93,2.62h1.85Z" fill="#221f1f"/><path d="M45.469,15.425c-.54.47-1.287.705-2.24.705-.967,0-1.715-.233-2.245-.7-.53-.466-.795-1.187-.795-2.16v-4.44h1.57v4.44c0,.194.017.384.05.57.034.187.104.352.21.495.106.143.255.26.445.35.19.09.445.135.765.135.56,0,.946-.125,1.16-.375s.32-.642.32-1.175v-4.44h1.57v4.44c0,.967-.27,1.685-.81,2.155Z" fill="#221f1f"/><path d="M46.979,10.15v-1.32h5.85v1.32h-2.14v5.82h-1.57v-5.82h-2.14Z" fill="#221f1f"/><path d="M55.128,8.83v7.14h-1.57v-7.14h1.57Z" fill="#221f1f"/><path d="M56.349,10.945c.16-.457.39-.855.69-1.195.3-.34.668-.606,1.105-.8s.928-.29,1.475-.29c.553,0,1.046.097,1.48.29.433.193.8.46,1.1.8.3.34.53.739.69,1.195.16.457.24.952.24,1.485,0,.52-.08,1.005-.24,1.455-.16.45-.39.842-.69,1.175-.3.333-.667.595-1.1.785-.434.19-.927.285-1.48.285-.547,0-1.039-.095-1.475-.285s-.805-.452-1.105-.785c-.3-.333-.53-.725-.69-1.175-.16-.45-.24-.935-.24-1.455,0-.533.08-1.028.24-1.485ZM57.784,13.305c.07.284.181.539.335.765.153.227.353.408.6.545.246.137.546.205.9.205s.653-.068.9-.205.446-.318.6-.545c.153-.227.265-.481.335-.765.07-.283.105-.575.105-.875,0-.313-.035-.617-.105-.91-.07-.293-.182-.555-.335-.785-.154-.23-.354-.414-.6-.55-.247-.136-.547-.205-.9-.205s-.654.069-.9.205c-.247.137-.447.32-.6.55-.154.23-.265.492-.335.785-.07.293-.105.597-.105.91,0,.3.035.592.105.875Z" fill="#221f1f"/><path d="M65.668,8.83l2.98,4.79h.02v-4.79h1.47v7.14h-1.57l-2.97-4.78h-.02v4.78h-1.47v-7.14h1.56Z" fill="#221f1f"/><path d="M9.497,19.162c-.691,0-1.249-.559-1.249-1.247,0-.291.15-.535.262-.767l5.878-11.786c.227-.292.583-.48.984-.48s.759.188.986.48l5.876,11.786c.134.233.261.476.261.767,0,.689-.558,1.247-1.248,1.247h-11.75ZM9.497,18.151h11.75c.249,0,.236-.273.126-.461,0,0-5.697-11.42-5.844-11.719-.033-.032-.071-.076-.156-.076s-.127.045-.155.076c-.15.299-5.846,11.719-5.846,11.719-.109.188-.125.461.125.461Z" fill="#f79320" fill-rule="evenodd"/><path d="M16.257,16.421c0,.489-.396.884-.885.884s-.884-.395-.884-.884.396-.885.884-.885.885.395.885.885Z" fill="#fff" fill-rule="evenodd"/><path d="M15.372,9.03c-.454,0-.821.368-.821.819l.271,4.427c0,.303.247.546.549.546.301,0,.545-.242.545-.546l.276-4.427c0-.451-.367-.819-.821-.819Z" fill="#fff" fill-rule="evenodd"/><rect x="112.355" y="53.793" width="22.031" height="9.485" fill="#fff"/><path d="M134.386,63.278h-22.031v-9.485h22.031v9.485ZM135.509,64.403h-24.278v-11.733h24.278v11.733" fill="#221f1f" fill-rule="evenodd"/><path d="M111.014,40.501c0,1.886-1.528,3.411-3.415,3.411s-3.412-1.525-3.412-3.411,1.528-3.413,3.412-3.413,3.415,1.528,3.415,3.413Z" fill="#221f1f" fill-rule="evenodd"/><path d="M101.871,44.807c.781-1.366,2.707-2.067,3.827-1.234l2.915,1.984,2.619,6.361,5.094,4.794c.666.667.666,1.745,0,2.41-.665.668-1.745.668-2.413,0l-6.424-5.33-.75-2.621-2.244,4.868,5.616,7.11c.805,1.019.587,2.484.372,3l-3.872,9.746c-.43,1.035-1.624,1.527-2.661,1.095-1.037-.433-1.529-1.621-1.095-2.659l3.066-7.966c.218-.583-.108-1.446-.517-1.902l-6.901-8.047c-1.025-1.025-1.14-2.654-.41-4.116l3.779-7.492" fill="#221f1f" fill-rule="evenodd"/><path d="M135.73,40.501c0,1.886,1.528,3.411,3.412,3.411s3.413-1.525,3.413-3.411-1.53-3.413-3.413-3.413-3.412,1.528-3.412,3.413Z" fill="#221f1f" fill-rule="evenodd"/><path d="M144.872,44.807c-.781-1.366-2.707-2.067-3.829-1.234l-2.915,1.984-2.619,6.361-5.095,4.794c-.665.667-.665,1.745,0,2.41.667.668,1.749.668,2.413,0l6.427-5.33.748-2.621,2.246,4.868-5.615,7.11c-.806,1.019-.589,2.484-.376,3l3.874,9.746c.432,1.035,1.624,1.527,2.662,1.095,1.036-.433,1.527-1.621,1.095-2.659l-3.064-7.966c-.222-.583.105-1.446.51-1.902l6.905-8.047c1.025-1.025,1.142-2.654.412-4.116l-3.779-7.492" fill="#221f1f" fill-rule="evenodd"/><path d="M18.859,76.66l-.787.062c-.07-.311-.17-.536-.299-.677-.214-.226-.478-.339-.791-.339-.252,0-.473.07-.664.211-.249.182-.445.447-.589.796s-.218.846-.224,1.49c.19-.29.423-.506.699-.646s.564-.211.866-.211c.527,0,.976.194,1.347.582.371.389.556.891.556,1.506,0,.404-.087.78-.261,1.127-.175.348-.414.613-.719.798s-.65.277-1.037.277c-.659,0-1.197-.243-1.613-.728-.416-.485-.624-1.284-.624-2.397,0-1.245.23-2.151.69-2.717.401-.492.942-.738,1.622-.738.507,0,.922.143,1.246.427s.518.677.583,1.178ZM15.629,79.437c0,.272.058.533.174.782.115.249.277.439.485.569.208.131.426.195.655.195.334,0,.621-.135.861-.404s.36-.636.36-1.099c0-.445-.119-.796-.356-1.053-.237-.256-.536-.384-.896-.384-.357,0-.661.128-.91.384-.249.257-.374.593-.374,1.009Z" fill="#231f20"/><path d="M19.67,78.347c0-.762.078-1.375.235-1.839.157-.465.39-.823.699-1.075.309-.252.698-.378,1.167-.378.346,0,.649.07.91.209.261.14.476.34.646.603.17.262.303.581.4.958.097.376.145.884.145,1.522,0,.756-.078,1.366-.233,1.831-.155.464-.388.823-.696,1.076-.31.254-.7.381-1.171.381-.621,0-1.109-.223-1.463-.669-.425-.536-.637-1.409-.637-2.619ZM20.483,78.347c0,1.058.124,1.762.371,2.112.248.35.553.524.917.524s.668-.176.917-.527c.247-.352.371-1.055.371-2.109,0-1.061-.124-1.765-.371-2.114-.248-.349-.556-.522-.925-.522-.363,0-.653.153-.87.461-.272.394-.409,1.118-.409,2.176Z" fill="#231f20"/><path d="M25.029,81.525v-.901h.901v.901h-.901Z" fill="#231f20"/><path d="M29.975,81.525h-.791v-5.041c-.19.182-.44.363-.75.545s-.586.318-.833.409v-.765c.442-.208.829-.46,1.16-.757.331-.296.565-.583.703-.861h.51v6.47Z" fill="#231f20"/><path d="M34.523,81.525v-6.443h.791v6.443h-.791Z" fill="#231f20"/><path d="M37.18,81.525h-.734v-6.443h.791v2.299c.334-.419.76-.628,1.279-.628.287,0,.559.058.815.173.256.116.467.278.633.488.166.209.295.462.389.758s.141.612.141.949c0,.8-.198,1.418-.593,1.854-.396.438-.87.655-1.424.655-.551,0-.983-.229-1.296-.69v.585ZM37.171,79.156c0,.56.076.964.229,1.213.249.407.586.611,1.011.611.346,0,.645-.15.896-.45.252-.301.378-.748.378-1.343,0-.609-.121-1.06-.363-1.35-.241-.29-.534-.435-.876-.435-.346,0-.645.149-.896.45-.252.3-.378.734-.378,1.303Z" fill="#231f20"/><path d="M41.05,80.132l.782-.123c.044.313.166.554.367.721s.481.251.842.251c.363,0,.633-.074.809-.222.176-.148.264-.322.264-.521,0-.179-.078-.319-.233-.422-.108-.07-.378-.159-.809-.268-.58-.146-.982-.273-1.207-.38-.224-.107-.394-.256-.51-.444-.116-.189-.173-.397-.173-.626,0-.208.047-.401.143-.578.095-.178.225-.324.389-.441.123-.091.291-.168.503-.231.212-.062.44-.094.684-.094.366,0,.688.053.965.158.276.105.481.248.613.428.132.181.223.422.272.724l-.773.105c-.035-.24-.137-.428-.305-.562-.169-.135-.407-.202-.714-.202-.363,0-.623.06-.778.18s-.233.261-.233.422c0,.103.032.195.097.277.064.085.166.155.303.211.079.029.312.097.699.202.56.149.95.271,1.171.366.221.096.395.234.521.416s.189.407.189.677c0,.264-.077.512-.231.745-.153.232-.375.413-.666.54-.29.128-.618.191-.984.191-.606,0-1.069-.126-1.386-.378-.318-.252-.521-.626-.609-1.121Z" fill="#231f20"/><path d="M49.698,83.42c-.437-.551-.806-1.195-1.107-1.935-.302-.738-.453-1.503-.453-2.294,0-.697.113-1.365.338-2.004.264-.741.671-1.479,1.222-2.215h.567c-.354.609-.589,1.044-.703,1.305-.179.405-.319.827-.422,1.267-.126.548-.189,1.099-.189,1.652,0,1.409.438,2.817,1.314,4.224h-.567Z" fill="#231f20"/><path d="M55.031,80.764v.761h-4.258c-.006-.19.025-.374.092-.55.108-.29.282-.575.521-.856.238-.281.583-.606,1.035-.976.7-.574,1.173-1.029,1.419-1.365.246-.335.369-.652.369-.951,0-.313-.112-.578-.336-.793-.225-.216-.517-.323-.877-.323-.381,0-.686.114-.914.343s-.344.545-.347.949l-.813-.083c.056-.607.265-1.069.628-1.387.363-.318.851-.478,1.463-.478.618,0,1.107.172,1.468.515s.541.768.541,1.274c0,.258-.053.512-.158.761s-.281.511-.525.786c-.245.275-.651.653-1.22,1.134-.475.398-.779.669-.914.812-.135.142-.246.284-.334.428h3.16Z" fill="#231f20"/><path d="M55.842,75.926v-.76h4.17v.615c-.41.437-.817,1.017-1.22,1.74s-.714,1.468-.934,2.232c-.158.539-.259,1.13-.303,1.771h-.813c.009-.507.108-1.119.299-1.837s.464-1.41.819-2.077c.356-.666.735-1.229,1.136-1.686h-3.155Z" fill="#231f20"/><path d="M61.148,81.525v-.901h.901v.901h-.901Z" fill="#231f20"/><path d="M63.12,79.824l.791-.105c.091.448.245.771.464.97.218.197.484.296.797.296.372,0,.686-.129.943-.387.256-.258.384-.577.384-.958,0-.363-.119-.662-.356-.898s-.539-.354-.905-.354c-.149,0-.335.029-.558.088l.088-.694c.053.006.095.009.127.009.337,0,.64-.088.91-.264s.404-.447.404-.813c0-.29-.098-.53-.294-.721s-.45-.286-.76-.286c-.308,0-.564.097-.769.29s-.337.483-.396.871l-.791-.141c.097-.53.316-.941.659-1.233.343-.291.769-.438,1.279-.438.352,0,.675.076.971.227.296.151.522.356.679.617s.235.538.235.831c0,.278-.075.532-.224.761s-.371.41-.664.545c.381.088.677.27.888.547.211.276.316.623.316,1.039,0,.562-.205,1.04-.615,1.431-.41.392-.929.587-1.556.587-.565,0-1.035-.168-1.408-.506-.374-.337-.587-.773-.64-1.31Z" fill="#231f20"/><path d="M70.665,81.525v-6.443h.791v3.675l1.872-1.898h1.024l-1.784,1.731,1.964,2.936h-.976l-1.542-2.387-.558.536v1.851h-.791Z" fill="#231f20"/><path d="M74.926,81.912l.769.114c.032.237.122.41.268.519.196.146.464.22.804.22.367,0,.649-.073.848-.22s.334-.352.404-.615c.041-.161.06-.499.058-1.016-.347.408-.777.611-1.292.611-.642,0-1.138-.231-1.49-.694s-.527-1.019-.527-1.666c0-.445.081-.856.242-1.232.161-.377.395-.667.701-.872s.666-.308,1.079-.308c.551,0,1.005.223,1.362.668v-.562h.729v4.034c0,.727-.074,1.241-.222,1.545-.148.303-.383.543-.703.719-.321.176-.716.264-1.185.264-.557,0-1.006-.126-1.349-.376-.343-.251-.508-.628-.497-1.132ZM75.581,79.108c0,.612.122,1.059.365,1.34s.548.422.914.422c.363,0,.668-.14.914-.419.246-.28.369-.719.369-1.316,0-.571-.127-1.002-.38-1.292-.254-.29-.559-.436-.917-.436-.352,0-.65.143-.896.429-.246.285-.369.71-.369,1.272Z" fill="#231f20"/><path d="M80.504,83.42h-.566c.876-1.406,1.314-2.814,1.314-4.224,0-.551-.063-1.098-.189-1.64-.1-.439-.239-.861-.418-1.266-.113-.264-.35-.703-.707-1.318h.566c.551.735.959,1.474,1.223,2.215.225.639.338,1.307.338,2.004,0,.791-.151,1.556-.455,2.294-.303.739-.672,1.384-1.105,1.935Z" fill="#231f20"/><polyline points="46.522 68.764 71.241 54.305 71.241 47.905" fill="#fff" stroke="#221f1f" stroke-linecap="round" stroke-linejoin="round" stroke-width=".766"/><polyline points="24.53 49.5 49.291 35.226 71.227 47.905 46.477 62.172" fill="#fff" stroke="#221f1f" stroke-linecap="round" stroke-linejoin="round" stroke-width=".766"/><polygon points="46.473 68.74 46.473 62.177 24.533 49.504 24.499 55.788 46.473 68.74" fill="#fff" stroke="#221f1f" stroke-linecap="round" stroke-linejoin="round" stroke-width=".766"/></svg>