<?xml version="1.0" encoding="UTF-8"?><svg xmlns="http://www.w3.org/2000/svg" width="5.444in" height="2.126in" xmlns:xlink="http://www.w3.org/1999/xlink" viewBox="0 0 391.977 153.071"><defs><clipPath id="b"><rect x="1.845" y="2.965" width="378" height="63.585" fill="none"/></clipPath><clipPath id="d"><rect x="1.845" y="2.965" width="378" height="63.585" fill="none"/></clipPath><clipPath id="e"><path d="M196.009,50.163c0-1.791-1.418-3.209-3.209-3.209-1.717,0-3.209,1.418-3.209,3.209,0,1.717,1.493,3.135,3.209,3.135,1.791,0,3.209-1.418,3.209-3.135" clip-rule="evenodd" fill="#a6a6a6"/></clipPath><clipPath id="f"><path d="M196.009,9.803c0-1.791-1.418-3.209-3.209-3.209-1.717,0-3.209,1.418-3.209,3.209,0,1.717,1.493,3.135,3.209,3.135,1.791,0,3.209-1.418,3.209-3.135" clip-rule="evenodd" fill="#a6a6a6"/></clipPath><clipPath id="h"><rect x="29.607" y="74.261" width="171.8" height="18.794" fill="none"/></clipPath><clipPath id="i"><rect x="98.098" y="75.38" width="37.914" height="7.355" fill="none"/></clipPath></defs><g id="a"><g clip-path="url(#b)"><rect x="-.211" y="-4.538" width="386.948" height="67.979" fill="#1a1a1a"/><path d="M386.774,62.196H-.828v2.863h387.601v-2.863Z" fill="#e6e6e6" fill-rule="evenodd"/><path d="M386.52-4.148H-.57v61.613h1.992v1.618h385.099V-4.148ZM-.996,61.325h387.815v-2.241H-.996v2.241Z" fill="#e6e6e6" fill-rule="evenodd"/><path d="M26.695,59.084h182.016v-1.618H26.695v1.618Z" fill="#d9d9d9" fill-rule="evenodd"/><path d="M33.791,14.14h-6.225c-.498,0-.871.373-.871.872v5.602h1.992v20.791h-1.992v3.112c0,.622-.498,1.12-1.121,1.12h-1.992c-.622,0-1.121.498-1.121,1.121v5.602c0,.622.498,1.12,1.121,1.12h1.992c.622,0,1.121.498,1.121,1.121v2.863h182.016v-2.863c0-.622.498-1.121,1.121-1.121h1.992c.623,0,1.121-.498,1.121-1.12v-5.602c0-.622-.498-1.121-1.121-1.121h-1.992c-.622,0-1.121-.498-1.121-1.12v-3.112h-1.867v-20.791h1.867v-5.602c0-.498-.373-.872-.747-.872h-6.225v1.992H33.791v-1.992" fill="#1a1a1a" fill-rule="evenodd"/><path d="M28.438,47.132v-3.486c0-.498-.373-.872-.871-.872h-.872v1.743c0,.623-.498,1.121-1.121,1.121h-1.992c-.622,0-1.121.498-1.121,1.121v5.602c0,.623.498,1.121,1.121,1.121h1.992c.623,0,1.121.498,1.121,1.121v2.241h1.743v-4.855h-4.482v-4.855h4.482M207.092,51.988v4.855h1.618v-2.241c0-.623.498-1.121,1.121-1.121h1.992c.622,0,1.121-.498,1.121-1.121v-5.602c0-.623-.498-1.121-1.121-1.121h-1.992c-.623,0-1.121-.498-1.121-1.121v-1.743h-.747c-.498,0-.872.373-.872.872v3.486h4.482v4.855h-4.482Z" fill="#bfbfbf" fill-rule="evenodd"/><path d="M280.671,38.666l3.361-3.486c.373-.373.373-.996,0-1.369l-3.361-3.361c-.373-.373-.996-.373-1.369,0l-3.361,3.361c-.373.373-.373.996,0,1.369l3.361,3.486c.373.373.996.373,1.369,0ZM280.671,26.092l3.361-3.361c.373-.373.373-.996,0-1.369l-3.361-3.486c-.373-.373-.996-.373-1.369,0l-3.361,3.486c-.373.373-.373.996,0,1.369l3.361,3.361c.373.373.996.373,1.369,0ZM280.671,13.642l3.361-3.486c.373-.373.373-.996,0-1.369l-3.361-3.361c-.373-.373-.996-.373-1.369,0l-3.361,3.361c-.373.373-.373.996,0,1.369l3.361,3.486c.373.373.996.373,1.369,0ZM380.767,38.666l3.486-3.486c.374-.373.374-.996,0-1.369l-3.486-3.361c-.373-.373-.996-.373-1.369,0l-3.362,3.361c-.373.373-.373.996,0,1.369l3.362,3.486c.373.373.996.373,1.369,0ZM380.767,13.642l3.486-3.486c.374-.373.374-.996,0-1.369l-3.486-3.361c-.373-.373-.996-.373-1.369,0l-3.362,3.361c-.373.373-.373.996,0,1.369l3.362,3.486c.373.373.996.373,1.369,0ZM380.767,26.092l3.486-3.361c.374-.373.374-.996,0-1.369l-3.486-3.486c-.373-.373-.996-.373-1.369,0l-3.362,3.486c-.373.373-.373.996,0,1.369l3.362,3.361c.373.373.996.373,1.369,0ZM380.767,51.116l3.486-3.361c.374-.373.374-.996,0-1.369l-3.486-3.486c-.373-.373-.996-.373-1.369,0l-3.362,3.486c-.373.373-.373.996,0,1.369l3.362,3.361c.373.373.996.373,1.369,0ZM374.542,19.867l3.361-3.486c.374-.373.374-.872,0-1.245l-3.361-3.486c-.373-.373-.996-.373-1.369,0l-3.362,3.486c-.373.373-.373.872,0,1.245l3.362,3.486c.373.373.996.373,1.369,0ZM374.542,32.317l3.361-3.361c.374-.373.374-.996,0-1.369l-3.361-3.361c-.373-.373-.996-.373-1.369,0l-3.362,3.361c-.373.373-.373.996,0,1.369l3.362,3.361c.373.373.996.373,1.369,0ZM374.542,44.891l3.361-3.486c.374-.373.374-.996,0-1.369l-3.361-3.361c-.373-.373-.996-.373-1.369,0l-3.362,3.361c-.373.373-.373.996,0,1.369l3.362,3.486c.373.373.996.373,1.369,0ZM368.317,13.642l3.361-3.486c.374-.373.374-.996,0-1.369l-3.361-3.361c-.373-.373-.996-.373-1.369,0l-3.486,3.361c-.373.373-.373.996,0,1.369l3.486,3.486c.373.373.996.373,1.369,0ZM368.317,38.666l3.361-3.486c.374-.373.374-.996,0-1.369l-3.361-3.361c-.373-.373-.996-.373-1.369,0l-3.486,3.361c-.373.373-.373.996,0,1.369l3.486,3.486c.373.373.996.373,1.369,0ZM368.317,26.092l3.361-3.361c.374-.373.374-.996,0-1.369l-3.361-3.486c-.373-.373-.996-.373-1.369,0l-3.486,3.486c-.373.373-.373.996,0,1.369l3.486,3.361c.373.373.996.373,1.369,0ZM374.542,7.293l3.361-3.361c.374-.373.374-.996,0-1.369l-3.361-3.361c-.373-.373-.996-.373-1.369,0l-3.362,3.361c-.373.373-.373.996,0,1.369l3.362,3.361c.373.373.996.373,1.369,0ZM361.968,32.317l3.486-3.361c.374-.373.374-.996,0-1.369l-3.486-3.361c-.373-.373-.996-.373-1.369,0l-3.361,3.361c-.373.373-.373.996,0,1.369l3.361,3.361c.374.373.996.373,1.369,0ZM361.968,19.867l3.486-3.486c.374-.373.374-.872,0-1.245l-3.486-3.486c-.373-.373-.996-.373-1.369,0l-3.361,3.486c-.373.373-.373.872,0,1.245l3.361,3.486c.374.373.996.373,1.369,0ZM361.968,44.891l3.486-3.486c.374-.373.374-.996,0-1.369l-3.486-3.361c-.373-.373-.996-.373-1.369,0l-3.361,3.361c-.373.373-.373.996,0,1.369l3.361,3.486c.374.373.996.373,1.369,0ZM355.743,38.666l3.361-3.486c.374-.373.374-.996,0-1.369l-3.361-3.361c-.373-.373-.996-.373-1.369,0l-3.361,3.361c-.373.373-.373.996,0,1.369l3.361,3.486c.374.373.996.373,1.369,0ZM355.743,26.092l3.361-3.361c.374-.373.374-.996,0-1.369l-3.361-3.486c-.373-.373-.996-.373-1.369,0l-3.361,3.486c-.373.373-.373.996,0,1.369l3.361,3.361c.374.373.996.373,1.369,0ZM355.743,13.642l3.361-3.486c.374-.373.374-.996,0-1.369l-3.361-3.361c-.373-.373-.996-.373-1.369,0l-3.361,3.361c-.373.373-.373.996,0,1.369l3.361,3.486c.374.373.996.373,1.369,0ZM361.968,7.293l3.486-3.361c.374-.373.374-.996,0-1.369l-3.486-3.361c-.373-.373-.996-.373-1.369,0l-3.361,3.361c-.373.373-.373.996,0,1.369l3.361,3.361c.374.373.996.373,1.369,0ZM349.518,32.317l3.361-3.361c.374-.373.374-.996,0-1.369l-3.361-3.361c-.373-.373-.996-.373-1.369,0l-3.486,3.361c-.249.373-.249.996,0,1.369l3.486,3.361c.374.373.996.373,1.369,0ZM349.518,19.867l3.361-3.486c.374-.373.374-.872,0-1.245l-3.361-3.486c-.373-.373-.996-.373-1.369,0l-3.486,3.486c-.249.373-.249.872,0,1.245l3.486,3.486c.374.373.996.373,1.369,0ZM349.518,44.891l3.361-3.486c.374-.373.374-.996,0-1.369l-3.361-3.361c-.373-.373-.996-.373-1.369,0l-3.486,3.361c-.249.373-.249.996,0,1.369l3.486,3.486c.374.373.996.373,1.369,0ZM343.293,13.642l3.361-3.486c.374-.373.374-.996,0-1.369l-3.361-3.361c-.373-.373-.996-.373-1.369,0l-3.486,3.361c-.373.373-.373.996,0,1.369l3.486,3.486c.374.373.996.373,1.369,0ZM343.293,26.092l3.361-3.361c.374-.373.374-.996,0-1.369l-3.361-3.486c-.373-.373-.996-.373-1.369,0l-3.486,3.486c-.373.373-.373.996,0,1.369l3.486,3.361c.374.373.996.373,1.369,0ZM343.293,38.666l3.361-3.486c.374-.373.374-.996,0-1.369l-3.361-3.361c-.373-.373-.996-.373-1.369,0l-3.486,3.361c-.373.373-.373.996,0,1.369l3.486,3.486c.374.373.996.373,1.369,0ZM349.518,7.293l3.361-3.361c.374-.373.374-.996,0-1.369l-3.361-3.361c-.373-.373-.996-.373-1.369,0l-3.486,3.361c-.249.373-.249.996,0,1.369l3.486,3.361c.374.373.996.373,1.369,0ZM336.944,32.317l3.486-3.361c.374-.373.374-.996,0-1.369l-3.486-3.361c-.373-.373-.996-.373-1.369,0l-3.361,3.361c-.373.373-.373.996,0,1.369l3.361,3.361c.374.373.996.373,1.369,0ZM336.944,44.891l3.486-3.486c.374-.373.374-.996,0-1.369l-3.486-3.361c-.373-.373-.996-.373-1.369,0l-3.361,3.361c-.373.373-.373.996,0,1.369l3.361,3.486c.374.373.996.373,1.369,0ZM330.719,13.642l3.361-3.486c.374-.373.374-.996,0-1.369l-3.361-3.361c-.373-.373-.996-.373-1.369,0l-3.361,3.361c-.373.373-.373.996,0,1.369l3.361,3.486c.374.373.996.373,1.369,0ZM324.494,19.867l3.361-3.486c.374-.373.374-.872,0-1.245l-3.361-3.486c-.373-.373-.996-.373-1.369,0l-3.486,3.486c-.373.373-.373.872,0,1.245l3.486,3.486c.374.373.996.373,1.369,0ZM324.494,7.293l3.361-3.361c.374-.373.374-.996,0-1.369l-3.361-3.361c-.373-.373-.996-.373-1.369,0l-3.486,3.361c-.373.373-.373.996,0,1.369l3.486,3.361c.374.373.996.373,1.369,0ZM318.269,13.642l3.361-3.486c.374-.373.374-.996,0-1.369l-3.361-3.361c-.373-.373-.996-.373-1.369,0l-3.486,3.361c-.373.373-.373.996,0,1.369l3.486,3.486c.374.373.996.373,1.369,0ZM311.92,19.867l3.486-3.486c.374-.373.374-.872,0-1.245l-3.486-3.486c-.373-.373-.996-.373-1.369,0l-3.361,3.486c-.373.373-.373.872,0,1.245l3.361,3.486c.373.373.996.373,1.369,0ZM311.92,7.293l3.486-3.361c.374-.373.374-.996,0-1.369l-3.486-3.361c-.373-.373-.996-.373-1.369,0l-3.361,3.361c-.373.373-.373.996,0,1.369l3.361,3.361c.373.373.996.373,1.369,0ZM305.695,13.642l3.361-3.486c.373-.373.373-.996,0-1.369l-3.361-3.361c-.373-.373-.996-.373-1.369,0l-3.361,3.361c-.373.373-.373.996,0,1.369l3.361,3.486c.373.373.996.373,1.369,0ZM330.719,38.666l3.361-3.486c.374-.373.374-.996,0-1.369l-3.361-3.361c-.373-.373-.996-.373-1.369,0l-3.361,3.361c-.373.373-.373.996,0,1.369l3.361,3.486c.374.373.996.373,1.369,0ZM324.494,44.891l3.361-3.486c.374-.373.374-.996,0-1.369l-3.361-3.361c-.373-.373-.996-.373-1.369,0l-3.486,3.361c-.373.373-.373.996,0,1.369l3.486,3.486c.374.373.996.373,1.369,0ZM318.269,38.666l3.361-3.486c.374-.373.374-.996,0-1.369l-3.361-3.361c-.373-.373-.996-.373-1.369,0l-3.486,3.361c-.373.373-.373.996,0,1.369l3.486,3.486c.374.373.996.373,1.369,0ZM318.269,51.116l3.361-3.361c.374-.373.374-.996,0-1.369l-3.361-3.486c-.373-.373-.996-.373-1.369,0l-3.486,3.486c-.373.373-.373.996,0,1.369l3.486,3.361c.374.373.996.373,1.369,0ZM311.92,32.317l3.486-3.361c.374-.373.374-.996,0-1.369l-3.486-3.361c-.373-.373-.996-.373-1.369,0l-3.361,3.361c-.373.373-.373.996,0,1.369l3.361,3.361c.373.373.996.373,1.369,0ZM305.695,26.092l3.361-3.361c.373-.373.373-.996,0-1.369l-3.361-3.486c-.373-.373-.996-.373-1.369,0l-3.361,3.486c-.373.373-.373.996,0,1.369l3.361,3.361c.373.373.996.373,1.369,0ZM308.434,42.277h5.727c.249,0,.498-.125.622-.249l.622-.622c.374-.373.374-.996,0-1.369l-3.486-3.361c-.373-.373-.996-.373-1.369,0l-3.361,3.361c-.373.373-.373.996,0,1.369l.498.622c.249.124.498.249.747.249ZM305.695,38.666l3.361-3.486c.373-.373.373-.996,0-1.369l-3.361-3.361c-.373-.373-.996-.373-1.369,0l-3.361,3.361c-.373.373-.373.996,0,1.369l3.361,3.486c.373.373.996.373,1.369,0ZM330.719,26.092l3.361-3.361c.374-.373.374-.996,0-1.369l-3.361-3.486c-.373-.373-.996-.373-1.369,0l-3.361,3.486c-.373.373-.373.996,0,1.369l3.361,3.361c.374.373.996.373,1.369,0ZM324.494,32.317l3.361-3.361c.374-.373.374-.996,0-1.369l-3.361-3.361c-.373-.373-.996-.373-1.369,0l-3.486,3.361c-.373.373-.373.996,0,1.369l3.486,3.361c.374.373.996.373,1.369,0ZM318.269,26.092l3.361-3.361c.374-.373.374-.996,0-1.369l-3.361-3.486c-.373-.373-.996-.373-1.369,0l-3.486,3.486c-.373.373-.373.996,0,1.369l3.486,3.361c.374.373.996.373,1.369,0ZM336.944,7.293l3.486-3.361c.374-.373.374-.996,0-1.369l-3.486-3.361c-.373-.373-.996-.373-1.369,0l-3.361,3.361c-.373.373-.373.996,0,1.369l3.361,3.361c.374.373.996.373,1.369,0ZM336.944,19.867l3.486-3.486c.374-.373.374-.872,0-1.245l-3.486-3.486c-.373-.373-.996-.373-1.369,0l-3.361,3.486c-.373.373-.373.872,0,1.245l3.361,3.486c.374.373.996.373,1.369,0ZM302.334,42.028l.498-.622c.373-.373.373-.996,0-1.369l-3.361-3.361c-.373-.373-.996-.373-1.369,0l-3.486,3.361c-.373.373-.373.996,0,1.369l.622.622c.124.124.374.249.623.249h5.727c.249,0,.498-.125.747-.249ZM299.47,19.867l3.361-3.486c.373-.373.373-.872,0-1.245l-3.361-3.486c-.373-.373-.996-.373-1.369,0l-3.486,3.486c-.373.373-.373.872,0,1.245l3.486,3.486c.373.373.996.373,1.369,0ZM299.47,32.317l3.361-3.361c.373-.373.373-.996,0-1.369l-3.361-3.361c-.373-.373-.996-.373-1.369,0l-3.486,3.361c-.373.373-.373.996,0,1.369l3.486,3.361c.373.373.996.373,1.369,0ZM293.121,13.642l3.486-3.486c.373-.373.373-.996,0-1.369l-3.486-3.361c-.373-.373-.872-.373-1.245,0l-3.486,3.361c-.373.373-.373.996,0,1.369l3.486,3.486c.373.373.872.373,1.245,0ZM293.121,38.666l3.486-3.486c.373-.373.373-.996,0-1.369l-3.486-3.361c-.373-.373-.872-.373-1.245,0l-3.486,3.361c-.373.373-.373.996,0,1.369l3.486,3.486c.373.373.872.373,1.245,0ZM299.47,7.293l3.361-3.361c.373-.373.373-.996,0-1.369l-3.361-3.361c-.373-.373-.996-.373-1.369,0l-3.486,3.361c-.373.373-.373.996,0,1.369l3.486,3.361c.373.373.996.373,1.369,0ZM293.121,26.092l3.486-3.361c.373-.373.373-.996,0-1.369l-3.486-3.486c-.373-.373-.872-.373-1.245,0l-3.486,3.486c-.373.373-.373.996,0,1.369l3.486,3.361c.373.373.872.373,1.245,0ZM286.896,32.317l3.486-3.361c.373-.373.373-.996,0-1.369l-3.486-3.361c-.373-.373-.996-.373-1.369,0l-3.361,3.361c-.373.373-.373.996,0,1.369l3.361,3.361c.373.373.996.373,1.369,0ZM286.896,7.293l3.486-3.361c.373-.373.373-.996,0-1.369l-3.486-3.361c-.373-.373-.996-.373-1.369,0l-3.361,3.361c-.373.373-.373.996,0,1.369l3.361,3.361c.373.373.996.373,1.369,0ZM286.896,19.867l3.486-3.486c.373-.373.373-.872,0-1.245l-3.486-3.486c-.373-.373-.996-.373-1.369,0l-3.361,3.486c-.373.373-.373.872,0,1.245l3.361,3.486c.373.373.996.373,1.369,0ZM289.759,42.028l.622-.622c.373-.373.373-.996,0-1.369l-3.486-3.361c-.373-.373-.996-.373-1.369,0l-3.361,3.361c-.373.373-.373.996,0,1.369l.498.622c.249.124.498.249.747.249h5.727c.249,0,.498-.125.623-.249Z" fill="#1a1a1a" fill-rule="evenodd"/><path d="M24.08,7.293l3.486-3.362c.373-.373.373-.996,0-1.369l-3.486-3.361c-.374-.373-.871-.373-1.245,0l-3.486,3.361c-.374.374-.374.996,0,1.369l3.486,3.362c.373.373.871.373,1.245,0ZM18.602,43.646l-.747-.747c-.374-.373-.996-.373-1.369,0l-3.361,3.486c-.374.373-.374.996,0,1.369l3.361,3.362c.373.373.996.373,1.369,0l.747-.747c.124-.124.249-.373.249-.622v-5.478c0-.249-.124-.498-.249-.622ZM17.855,26.092l3.486-3.362c.373-.373.373-.996,0-1.369l-3.486-3.486c-.374-.373-.996-.373-1.369,0l-3.361,3.486c-.374.373-.374.996,0,1.369l3.361,3.362c.373.373.996.373,1.369,0ZM17.855,13.642l3.486-3.486c.373-.373.373-.996,0-1.369l-3.486-3.361c-.374-.373-.996-.373-1.369,0l-3.361,3.361c-.374.374-.374.996,0,1.369l3.361,3.486c.373.373.996.373,1.369,0ZM17.855,38.666l3.486-3.486c.373-.373.373-.996,0-1.369l-3.486-3.362c-.374-.373-.996-.373-1.369,0l-3.361,3.362c-.374.373-.374.996,0,1.369l3.361,3.486c.373.373.996.373,1.369,0ZM11.63,19.867l3.361-3.486c.373-.373.373-.871,0-1.245l-3.361-3.486c-.374-.373-.996-.373-1.369,0l-3.361,3.486c-.374.373-.374.871,0,1.245l3.361,3.486c.373.373.996.373,1.369,0ZM11.63,44.891l3.361-3.486c.373-.373.373-.996,0-1.369l-3.361-3.362c-.374-.373-.996-.373-1.369,0l-3.361,3.362c-.374.373-.374.996,0,1.369l3.361,3.486c.373.373.996.373,1.369,0ZM11.63,32.317l3.361-3.362c.373-.373.373-.996,0-1.369l-3.361-3.362c-.374-.373-.996-.373-1.369,0l-3.361,3.362c-.374.373-.374.996,0,1.369l3.361,3.362c.373.373.996.373,1.369,0ZM14.494,54.602l.498-.623c.373-.373.373-.996,0-1.369l-3.361-3.361c-.374-.374-.996-.374-1.369,0l-3.361,3.361c-.374.373-.374.996,0,1.369l.622.623c.124.124.373.249.622.249h5.602c.249,0,.498-.124.747-.249ZM11.63,7.293l3.361-3.362c.373-.373.373-.996,0-1.369l-3.361-3.361c-.374-.373-.996-.373-1.369,0l-3.361,3.361c-.374.374-.374.996,0,1.369l3.361,3.362c.373.373.996.373,1.369,0ZM277.309,42.028l.498-.623c.373-.373.373-.996,0-1.369l-3.362-3.362c-.373-.373-.996-.373-1.369,0l-3.486,3.362c-.373.373-.373.996,0,1.369l.623.623c.124.124.373.249.622.249h5.727c.249,0,.498-.124.747-.249ZM274.446,19.867l3.362-3.486c.373-.373.373-.871,0-1.245l-3.362-3.486c-.373-.373-.996-.373-1.369,0l-3.486,3.486c-.373.373-.373.871,0,1.245l3.486,3.486c.373.373.996.373,1.369,0ZM274.446,7.293l3.362-3.362c.373-.373.373-.996,0-1.369l-3.362-3.361c-.373-.373-.996-.373-1.369,0l-3.486,3.361c-.373.374-.373.996,0,1.369l3.486,3.362c.373.373.996.373,1.369,0ZM274.446,32.317l3.362-3.362c.373-.373.373-.996,0-1.369l-3.362-3.362c-.373-.373-.996-.373-1.369,0l-3.486,3.362c-.373.373-.373.996,0,1.369l3.486,3.362c.373.373.996.373,1.369,0ZM268.097,26.092l3.486-3.362c.373-.373.373-.996,0-1.369l-3.486-3.486c-.373-.373-.871-.373-1.245,0l-3.486,3.486c-.373.373-.373.996,0,1.369l3.486,3.362c.373.373.871.373,1.245,0ZM268.097,38.666l3.486-3.486c.373-.373.373-.996,0-1.369l-3.486-3.362c-.373-.373-.871-.373-1.245,0l-3.486,3.362c-.373.373-.373.996,0,1.369l3.486,3.486c.373.373.871.373,1.245,0ZM268.097,13.642l3.486-3.486c.373-.373.373-.996,0-1.369l-3.486-3.361c-.373-.373-.871-.373-1.245,0l-3.486,3.361c-.373.374-.373.996,0,1.369l3.486,3.486c.373.373.871.373,1.245,0ZM261.872,19.867l3.486-3.486c.373-.373.373-.871,0-1.245l-3.486-3.486c-.373-.373-.996-.373-1.369,0l-3.362,3.486c-.373.373-.373.871,0,1.245l3.362,3.486c.373.373.996.373,1.369,0ZM261.872,32.317l3.486-3.362c.373-.373.373-.996,0-1.369l-3.486-3.362c-.373-.373-.996-.373-1.369,0l-3.362,3.362c-.373.373-.373.996,0,1.369l3.362,3.362c.373.373.996.373,1.369,0ZM264.735,42.028l.623-.623c.373-.373.373-.996,0-1.369l-3.486-3.362c-.373-.373-.996-.373-1.369,0l-3.362,3.362c-.373.373-.373.996,0,1.369l.498.623c.249.124.498.249.747.249h5.727c.249,0,.498-.124.622-.249ZM249.422,7.293l3.361-3.362c.374-.373.374-.996,0-1.369l-3.361-3.361c-.373-.373-.996-.373-1.369,0l-3.486,3.361c-.373.374-.373.996,0,1.369l3.486,3.362c.373.373.996.373,1.369,0ZM236.848,7.293l3.486-3.362c.373-.373.373-.996,0-1.369l-3.486-3.361c-.373-.373-.996-.373-1.369,0l-3.361,3.361c-.373.374-.373.996,0,1.369l3.361,3.362c.374.373.996.373,1.369,0ZM224.398,7.293l3.361-3.362c.374-.373.374-.996,0-1.369l-3.361-3.361c-.373-.373-.996-.373-1.369,0l-3.486,3.361c-.373.374-.373.996,0,1.369l3.486,3.362c.374.373.996.373,1.369,0ZM253.157,31.943v5.104c0,.249.124.498.249.622l.872.996c.373.373.996.373,1.369,0l3.361-3.486c.374-.373.374-.996,0-1.369l-3.361-3.362c-.373-.373-.996-.373-1.369,0l-.872.872c-.124.124-.249.373-.249.622ZM255.647,26.092l3.361-3.362c.374-.373.374-.996,0-1.369l-3.361-3.486c-.373-.373-.996-.373-1.369,0l-3.362,3.486c-.373.373-.373.996,0,1.369l3.362,3.362c.373.373.996.373,1.369,0ZM245.936,29.951h5.478c.249,0,.498-.124.747-.373l.622-.623c.374-.373.374-.996,0-1.369l-3.361-3.362c-.373-.373-.996-.373-1.369,0l-3.486,3.362c-.373.373-.373.996,0,1.369l.747.623c.124.249.373.373.622.373ZM243.072,26.092l3.486-3.362c.373-.373.373-.996,0-1.369l-3.486-3.486c-.373-.373-.871-.373-1.245,0l-3.486,3.486c-.373.373-.373.996,0,1.369l3.486,3.362c.373.373.871.373,1.245,0ZM236.848,19.867l3.486-3.486c.373-.373.373-.871,0-1.245l-3.486-3.486c-.373-.373-.996-.373-1.369,0l-3.361,3.486c-.373.373-.373.871,0,1.245l3.361,3.486c.374.373.996.373,1.369,0ZM230.623,13.642l3.361-3.486c.374-.373.374-.996,0-1.369l-3.361-3.361c-.373-.373-.996-.373-1.369,0l-3.361,3.361c-.373.374-.373.996,0,1.369l3.361,3.486c.374.373.996.373,1.369,0ZM218.048,13.642l3.486-3.486c.374-.373.374-.996,0-1.369l-3.486-3.361c-.373-.373-.871-.373-1.245,0l-3.486,3.361c-.373.374-.373.996,0,1.369l3.486,3.486c.374.373.872.373,1.245,0ZM233.486,29.951h5.478c.249,0,.498-.124.622-.373l.747-.623c.373-.373.373-.996,0-1.369l-3.486-3.362c-.373-.373-.996-.373-1.369,0l-3.361,3.362c-.373.373-.373.996,0,1.369l.623.623c.249.249.498.373.747.373ZM230.623,26.092l3.361-3.362c.374-.373.374-.996,0-1.369l-3.361-3.486c-.373-.373-.996-.373-1.369,0l-3.361,3.486c-.373.373-.373.996,0,1.369l3.361,3.362c.374.373.996.373,1.369,0ZM255.647,13.642l3.361-3.486c.374-.373.374-.996,0-1.369l-3.361-3.361c-.373-.373-.996-.373-1.369,0l-3.362,3.361c-.373.374-.373.996,0,1.369l3.362,3.486c.373.373.996.373,1.369,0ZM249.422,19.867l3.361-3.486c.374-.373.374-.871,0-1.245l-3.361-3.486c-.373-.373-.996-.373-1.369,0l-3.486,3.486c-.373.373-.373.871,0,1.245l3.486,3.486c.373.373.996.373,1.369,0ZM243.072,13.642l3.486-3.486c.373-.373.373-.996,0-1.369l-3.486-3.361c-.373-.373-.871-.373-1.245,0l-3.486,3.361c-.373.374-.373.996,0,1.369l3.486,3.486c.373.373.871.373,1.245,0ZM261.872,7.293l3.486-3.362c.373-.373.373-.996,0-1.369l-3.486-3.361c-.373-.373-.996-.373-1.369,0l-3.362,3.361c-.373.374-.373.996,0,1.369l3.362,3.362c.373.373.996.373,1.369,0Z" fill="#1a1a1a" fill-rule="evenodd"/><path d="M333.583,56.843h35.108c.623,0,1.121-.498,1.121-1.121v-5.478c0-.622-.498-1.121-1.121-1.121h-35.108c-.623,0-1.121.498-1.121,1.121v5.478c0,.623.498,1.121,1.121,1.121M231.37,56.594h19.422c.623,0,1.121-.498,1.121-1.121v-23.655c0-.622-.498-1.121-1.121-1.121h-19.422c-.622,0-1.121.498-1.121,1.121v23.655c0,.623.498,1.121,1.121,1.121Z" fill="#333" fill-rule="evenodd"/><path d="M230.249,47.381h21.663v-.498h-21.663v.498ZM239.462,49.498l.498,3.61q0,.124.124.124t.124-.124l.498-3.61c.124-.373-.125-.747-.498-.747-.373-.124-.747.124-.747.498v.249ZM240.707,54.353c0-.249-.249-.622-.623-.622s-.622.373-.622.622c0,.374.249.623.622.623s.623-.249.623-.623ZM339.434,52.984c0-1.494-1.245-2.863-2.863-2.863-1.494,0-2.739,1.369-2.739,2.863s1.245,2.863,2.739,2.863c1.618,0,2.863-1.369,2.863-2.863ZM338.687,52.984c0,1.12-.872,2.116-2.117,2.116-1.121,0-2.116-.996-2.116-2.116s.996-2.117,2.116-2.117c1.245,0,2.117.996,2.117,2.117ZM337.069,52.485c0,.249-.249.373-.498.373s-.373-.124-.373-.373.124-.498.373-.498.498.249.498.498ZM335.699,52.984l.747,1.494q.124.124.249.124v-.124l.872-1.494c.249-.623,0-1.245-.498-1.494-.498-.249-1.121,0-1.369.498-.124.249-.124.622,0,.996ZM364.707,50.867l.374,3.237q.124.124.249.124v-.124l.498-3.237c.124-.373-.124-.622-.498-.622-.249-.124-.623.124-.623.498v.124ZM365.828,55.224c0-.249-.249-.498-.498-.498-.374,0-.623.249-.623.498,0,.373.249.622.623.622.249,0,.498-.249.498-.622Z" fill="#fff" fill-rule="evenodd"/><path d="M356.366,55.349h4.233c.622,0,1.121-.498,1.121-1.121v-1.992c0-.623-.498-1.121-1.121-1.121h-4.233c-.622,0-1.121.498-1.121,1.121v1.992c0,.623.498,1.121,1.121,1.121M341.799,55.349h4.108c.623,0,1.121-.498,1.121-1.121v-1.992c0-.623-.498-1.121-1.121-1.121h-4.108c-.622,0-1.121.498-1.121,1.121v1.992c0,.623.498,1.121,1.121,1.121Z" fill="#e6e6e6" fill-rule="evenodd"/><path d="M356.615,54.726h3.735c.498,0,.872-.373.872-.871v-1.245c0-.498-.373-.996-.872-.996h-3.735c-.498,0-.996.498-.996.996v1.245c0,.498.498.871.996.871M243.446,41.53c0-1.867-1.494-3.361-3.361-3.361s-3.361,1.494-3.361,3.361,1.494,3.361,3.361,3.361,3.361-1.494,3.361-3.361Z" fill="#f7941d" fill-rule="evenodd"/><path d="M234.187,44.578h-.729v-4.648c-.175.167-.405.335-.69.502s-.541.293-.769.377v-.705c.408-.192.765-.424,1.07-.697.306-.272.521-.538.648-.794h.47v5.965Z" fill="#fff"/><path d="M342.044,54.73h3.61c.622,0,.996-.373.996-.871v-1.245c0-.498-.373-.996-.996-.996h-3.61c-.622,0-.996.498-.996.996v1.245c0,.498.373.871.996.871Z" fill="#27aae1" fill-rule="evenodd"/></g><rect x="230.249" y="5.537" width="10.112" height="16.786" rx="1.121" ry="1.121" fill="#333"/><rect x="230.249" y="18.023" width="21.663" height="38.82" rx="1.121" ry="1.121" fill="#333"/><rect x="230.249" y="47.132" width="21.663" height=".498" fill="#fff"/><rect x="230.249" y="35.234" width="21.663" height=".498" fill="#fff"/><path d="M239.462,49.747l.498,3.61q0,.124.124.124t.124-.124l.498-3.61c.124-.373-.125-.747-.498-.747-.373-.124-.747.124-.747.498v.249Z" fill="#fff" fill-rule="evenodd"/><path d="M240.707,54.602c0-.249-.249-.622-.623-.622s-.622.373-.622.622c0,.374.249.623.622.623s.623-.249.623-.623Z" fill="#fff" fill-rule="evenodd"/><path d="M245.621,41.779c0-1.867-1.494-3.361-3.361-3.361s-3.361,1.494-3.361,3.361,1.494,3.361,3.361,3.361,3.361-1.494,3.361-3.361Z" fill="#f7941d" fill-rule="evenodd"/><path d="M236.449,44.126v.701h-3.928c-.005-.176.023-.344.085-.506.101-.268.261-.531.48-.791.221-.259.538-.559.955-.9.646-.529,1.082-.949,1.309-1.258.227-.309.341-.602.341-.877,0-.289-.104-.533-.311-.731-.207-.198-.477-.298-.809-.298-.352,0-.632.105-.843.316-.211.21-.317.502-.32.875l-.75-.077c.052-.56.245-.985.58-1.279.335-.293.784-.439,1.35-.439.569,0,1.021.158,1.354.474.332.316.498.708.498,1.175,0,.238-.049.471-.146.701-.098.229-.259.471-.484.725s-.601.603-1.125,1.046c-.438.367-.719.617-.843.748s-.227.263-.308.395h2.914Z" fill="#fff"/><path d="M245.621,29.88c0-1.867-1.494-3.361-3.361-3.361s-3.361,1.494-3.361,3.361,1.494,3.361,3.361,3.361,3.361-1.494,3.361-3.361Z" fill="#f7941d" fill-rule="evenodd"/><path d="M235.362,15.008h-.729v-4.648c-.175.167-.405.335-.69.502s-.541.293-.769.377v-.705c.408-.192.765-.424,1.07-.697.306-.272.521-.538.648-.794h.47v5.965Z" fill="#fff"/></g><g id="c"><g clip-path="url(#d)"><path d="M205.86,21.28v32.764h14.553c5,0,9.031-4.03,9.031-8.956v-14.852c0-4.926-4.03-8.956-9.031-8.956h-14.553M205.86,25.758v-4.478h-2.239v-3.06H31.891v3.06h-2.239v32.764h1.12v2.239h173.969v-2.239h1.119v-28.286Z" fill="#e5e5e5" fill-rule="evenodd" stroke="#221f20" stroke-miterlimit="10" stroke-width=".25"/><path d="M49.206,54.641h-3.284v.075l-.075.299c-.224.746-.896,1.269-1.642,1.269h5v-1.642M39.354,54.641h-3.284v1.642h5c-.746,0-1.418-.522-1.642-1.269l-.075-.299v-.075ZM199.367,54.641h-3.209c-.075,0-.075.075-.075.075l-.075.299c-.224.746-.896,1.269-1.642,1.269h5v-1.642ZM189.516,54.641h-3.284v1.642h5c-.746,0-1.418-.522-1.567-1.269l-.149-.299v-.075ZM31.891,19.862v-1.642c-1.269,0-2.239.97-2.239,2.239v.821h1.642v-.821c0-.299.299-.597.597-.597ZM203.621,19.862c.299,0,.522.299.522.597v.821h1.717v-.821c0-1.269-1.045-2.239-2.239-2.239v1.642Z" fill="#d8d8d8" fill-rule="evenodd"/><path d="M31.891,19.862v-1.642c-1.269,0-2.239.97-2.239,2.239v.821h1.642v-.821c0-.299.299-.597.597-.597Z" fill="none" stroke="gray" stroke-linecap="round" stroke-linejoin="round"/><path d="M49.206,54.641v-1.119h-1.642c-.746,0-1.343.448-1.642,1.119h3.284M39.354,54.641c-.224-.672-.896-1.119-1.567-1.119h-1.717v1.119h3.284ZM199.367,54.641v-1.119h-1.642c-.746,0-1.343.448-1.567,1.119h3.209ZM189.516,54.641c-.224-.672-.896-1.119-1.567-1.119h-1.717v1.119h3.284ZM50.773,46.506v-5c0-.224-.075-.522-.224-.672l-.97-.896c-.373-.373-.97-.373-1.343,0l-3.433,3.358c-.373.373-.373.97,0,1.343l3.433,3.433c.373.373.97.373,1.343,0l.97-.896c.149-.224.224-.448.224-.672ZM201.457,21.28v-1.418h-6.418l3.209,3.284c.373.373.97.373,1.343,0l1.866-1.866ZM193.322,29.34l3.433-3.358c.373-.373.373-1.045,0-1.418l-3.433-3.358c-.373-.373-.97-.373-1.343,0l-3.433,3.358c-.373.373-.373,1.045,0,1.418l3.433,3.358c.373.373.97.373,1.343,0ZM187.053,35.61l3.433-3.433c.373-.373.373-.97,0-1.343l-3.433-3.433c-.373-.373-.97-.373-1.343,0l-3.358,3.433c-.373.373-.373.97,0,1.343l3.358,3.433c.373.373.97.373,1.343,0ZM199.591,35.61l3.433-3.433c.373-.373.373-.97,0-1.343l-3.433-3.433c-.373-.373-.97-.373-1.343,0l-3.358,3.433c-.373.373-.373.97,0,1.343l3.358,3.433c.373.373.97.373,1.343,0ZM187.053,48.194l3.433-3.433c.373-.373.373-.97,0-1.343l-3.433-3.433c-.373-.373-.97-.373-1.343,0l-3.358,3.433c-.373.373-.373.97,0,1.343l3.358,3.433c.373.373.97.373,1.343,0ZM199.591,48.194l3.433-3.433c.373-.373.373-.97,0-1.343l-3.433-3.433c-.373-.373-.97-.373-1.343,0l-3.358,3.433c-.373.373-.373.97,0,1.343l3.358,3.433c.373.373.97.373,1.343,0ZM193.322,41.804l3.433-3.358c.373-.373.373-.97,0-1.343l-3.433-3.433c-.373-.373-.97-.373-1.343,0l-3.433,3.433c-.373.373-.373.97,0,1.343l3.433,3.358c.373.373.97.373,1.343,0ZM118.316,29.34l3.433-3.358c.373-.373.373-1.045,0-1.418l-3.433-3.358c-.373-.373-.97-.373-1.343,0l-3.433,3.358c-.373.373-.373,1.045,0,1.418l3.433,3.358c.373.373.97.373,1.343,0ZM105.957,29.34l3.433-3.358c.373-.373.373-1.045,0-1.418l-3.433-3.358c-.373-.373-.97-.373-1.343,0l-3.433,3.358c-.373.373-.373,1.045,0,1.418l3.433,3.358c.373.373.97.373,1.343,0ZM130.969,29.34l3.433-3.358c.373-.373.373-1.045,0-1.418l-3.433-3.358c-.373-.373-.97-.373-1.343,0l-3.433,3.358c-.373.373-.373,1.045,0,1.418l3.433,3.358c.373.373.97.373,1.343,0ZM105.957,41.688l3.433-3.358c.373-.373.373-1.045,0-1.418l-3.433-3.358c-.373-.373-.97-.373-1.343,0l-3.433,3.358c-.373.373-.373,1.045,0,1.418l3.433,3.358c.373.373.97.373,1.343,0ZM130.969,41.688l3.433-3.358c.373-.373.373-1.045,0-1.418l-3.433-3.358c-.373-.373-.97-.373-1.343,0l-3.433,3.358c-.373.373-.373,1.045,0,1.418l3.433,3.358c.373.373.97.373,1.343,0ZM118.316,41.804l3.433-3.358c.373-.373.373-.97,0-1.343l-3.433-3.433c-.373-.373-.97-.373-1.343,0l-3.433,3.433c-.373.373-.373.97,0,1.343l3.433,3.358c.373.373.97.373,1.343,0ZM49.579,35.61l3.433-3.433c.373-.373.373-.97,0-1.343l-3.433-3.433c-.373-.373-.97-.373-1.343,0l-3.433,3.433c-.373.373-.373.97,0,1.343l3.433,3.433c.373.373.97.373,1.343,0ZM112.092,35.61l3.433-3.433c.373-.373.373-.97,0-1.343l-3.433-3.433c-.373-.373-.97-.373-1.343,0l-3.433,3.433c-.373.373-.373.97,0,1.343l3.433,3.433c.373.373.97.373,1.343,0ZM124.617,35.61l3.433-3.433c.373-.373.373-.97,0-1.343l-3.433-3.433c-.373-.373-.97-.373-1.343,0l-3.433,3.433c-.373.373-.373.97,0,1.343l3.433,3.433c.373.373.97.373,1.343,0ZM112.092,47.587l3.433-3.433c.373-.373.373-.97,0-1.343l-3.433-3.433c-.373-.373-.97-.373-1.343,0l-3.433,3.433c-.373.373-.373.97,0,1.343l3.433,3.433c.373.373.97.373,1.343,0ZM124.617,47.587l3.433-3.433c.373-.373.373-.97,0-1.343l-3.433-3.433c-.373-.373-.97-.373-1.343,0l-3.433,3.433c-.373.373-.373.97,0,1.343l3.433,3.433c.373.373.97.373,1.343,0ZM190.337,19.862h-7.836l3.284,3.284c.373.373.97.373,1.343,0l3.209-3.284ZM177.873,19.862h-7.836l3.209,3.284c.373.373.97.373,1.343,0l3.284-3.284ZM165.335,19.862h-7.836l3.284,3.284c.373.373.97.373,1.343,0l3.209-3.284ZM152.871,19.862h-7.836l3.209,3.284c.373.373.97.373,1.343,0l3.284-3.284ZM140.333,19.862h-7.836l3.284,3.284c.373.373.97.373,1.343,0l3.209-3.284ZM127.869,19.862h-7.836l3.209,3.284c.373.373.97.373,1.343,0l3.284-3.284ZM115.331,19.862h-7.836l3.284,3.284c.373.373.97.373,1.343,0l3.209-3.284ZM102.867,19.862h-7.836l3.209,3.284c.373.373.97.373,1.343,0l3.284-3.284ZM90.329,19.862h-7.836l3.284,3.284c.373.373.97.373,1.343,0l3.209-3.284ZM77.865,19.862h-7.836l3.209,3.284c.373.373.97.373,1.343,0l3.284-3.284ZM65.326,19.862h-7.836l3.284,3.284c.373.373.97.373,1.343,0l3.209-3.284ZM52.863,19.862h-7.836l3.209,3.284c.373.373.97.373,1.343,0l3.284-3.284ZM136.693,48.596h42.69c.448,0,.746-.373.746-.746v-20.972c0-.373-.299-.746-.746-.746h-42.69c-.448,0-.746.373-.746.746v20.972c0,.373.299.746.746.746ZM53.982,48.596h42.765c.373,0,.746-.373.746-.746v-20.972c0-.373-.373-.746-.746-.746h-42.765c-.373,0-.746.373-.746.746v20.972c0,.373.373.746.746.746Z" fill="#1a1a1a" fill-rule="evenodd"/><rect x="53.236" y="48.894" width="126.959" height="5.374" fill="#333"/><path d="M179.085,27.101h-42.093v20.524h42.093v-20.524ZM96.373,27.101h-42.018v20.524h42.018v-20.524Z" fill="#d8d8d8" fill-rule="evenodd"/><path d="M178.562,27.475h-41.048v19.778h41.048v-19.778ZM95.851,27.475h-40.973v19.778h40.973v-19.778Z" fill="#262626" fill-rule="evenodd"/><path d="M45.325,51.133v-28.062c0-1.343-1.119-2.463-2.538-2.463l-22.987.299c-1.418,0-2.538,1.119-2.538,2.537v27.316c0,1.418,1.119,2.537,2.538,2.537l22.987.299c1.418.075,2.538-1.045,2.538-2.463" fill="#666" fill-rule="evenodd"/><path d="M20.024,51.656h22.539c.373,0,.672-.299.672-.672v-27.763c0-.373-.299-.672-.672-.672h-22.539c-.299,0-.672.299-.672.672v27.763c0,.373.373.672.672.672" fill="#333" fill-rule="evenodd"/><polyline points="29.577 31.505 29.577 30.236 25.771 30.236 25.771 33.52 29.577 33.52 29.577 32.251 30.995 32.251 30.995 37.699 31.667 37.699 31.667 36.43 33.085 36.43 33.085 37.699 36.817 37.699 36.817 34.49 33.085 34.49 33.085 35.759 31.667 35.759 31.667 28.072 33.085 28.072 33.085 29.34 36.817 29.34 36.817 26.057 33.085 26.057 33.085 27.325 31.667 27.325 31.667 26.057 30.995 26.057 30.995 31.505 29.577 31.505" fill="#fff" fill-rule="evenodd"/><rect x="18.681" y="21.802" width="25.226" height="30.6" rx=".97" ry=".97" fill="none" stroke="#595959" stroke-linecap="round" stroke-linejoin="round"/><path d="M196.009,50.163c0-1.791-1.418-3.209-3.209-3.209-1.717,0-3.209,1.418-3.209,3.209,0,1.717,1.493,3.135,3.209,3.135,1.791,0,3.209-1.418,3.209-3.135" fill="#a6a6a6" fill-rule="evenodd"/><path d="M194.218,50.163c0-.821-.597-1.418-1.418-1.418-.746,0-1.418.597-1.418,1.418,0,.746.672,1.343,1.418,1.343.821,0,1.418-.597,1.418-1.343" fill="#dedede" fill-rule="evenodd"/><path d="M228.847,40.535h.075c.149,0,.224-.149.224-.299v-.149c-.075-.149-.149-.224-.299-.224h-.075c0-.149-.075-.299-.075-.373l.149-.075c.075,0,.149-.149.149-.299l-.075-.149c0-.149-.149-.224-.224-.224l-.149.075c0-.149-.075-.299-.075-.373l.075-.075c.149,0,.224-.149.149-.299l-.075-.149c0-.149-.149-.224-.299-.224l-.075.075c-.075-.149-.075-.224-.149-.373l.149-.075c.075,0,.075-.149.075-.299l-.075-.149c-.075-.149-.224-.224-.299-.149h-.149c-.075-.075-.075-.224-.149-.299l.075-.075c.149-.075.149-.224.075-.299l-.075-.149c-.075-.149-.224-.224-.299-.149l-.149.075c-.075-.149-.149-.224-.224-.373l.149-.075c.075,0,.075-.149,0-.299l-.075-.149c-.149-.075-.224-.149-.373-.075l-.075.075c-.075-.075-.149-.224-.224-.299l.075-.075c.075-.075.075-.224,0-.373l-.149-.075c-.075-.149-.224-.149-.299-.075l-.149.075c-.075-.075-.149-.149-.224-.299l.075-.075c.075-.075.075-.224-.075-.299l-.149-.149c-.075-.075-.224-.075-.299,0l-.075.075c-.075-.075-.224-.149-.299-.224l.075-.075c.075-.149,0-.299-.075-.373l-.149-.075c-.149-.075-.299-.075-.373,0l-.075.075c-.075-.075-.224-.149-.299-.149l.075-.149c.075-.075,0-.224-.149-.299l-.149-.075c-.149-.075-.299-.075-.299,0l-.075.149c-.149-.075-.224-.149-.373-.149l.075-.149c.075-.075,0-.224-.149-.299l-.149-.075c-.149-.075-.299,0-.373.075v.149c-.149-.075-.224-.149-.373-.149v-.149c.075-.075,0-.224-.149-.224l-.149-.075c-.149-.075-.299,0-.299.075l-.075.149c-.149,0-.224-.075-.373-.075v-.149c.075-.075-.075-.224-.149-.224l-.224-.075c-.149,0-.224.075-.299.149v.149c-.149-.075-.299-.075-.373-.075v-.149c0-.075-.075-.224-.224-.224h-.224c-.075,0-.224.075-.224.149v.149h-.448v-.149c0-.075-.075-.224-.224-.224h-.149c-.149,0-.299.149-.299.224v.149h-.373v-.149c0-.075-.149-.149-.299-.149h-.149c-.149,0-.299.149-.299.224l.075.149c-.149,0-.299,0-.448.075v-.149c0-.075-.149-.149-.299-.149l-.149.075c-.149,0-.224.149-.224.224v.149c-.075,0-.224.075-.373.075v-.149c-.075-.075-.224-.149-.299-.075l-.224.075c-.075,0-.224.149-.149.224v.149c-.075,0-.224.075-.299.149l-.075-.149c-.075-.075-.224-.149-.299-.075l-.224.075c-.075.075-.149.224-.149.299l.075.149c-.075,0-.224.075-.373.149v-.149c-.075-.075-.224-.075-.373,0l-.149.075c-.075.075-.149.224-.075.299v.149c-.075,0-.149.075-.299.149l-.075-.075c-.075-.075-.224-.075-.299,0l-.149.075c-.149.075-.149.224-.075.373l.075.075c-.149.075-.224.149-.299.224l-.149-.075c-.075-.075-.224-.075-.299,0l-.149.149c-.075.075-.149.224-.075.299l.149.075c-.149.149-.224.224-.299.299l-.075-.075c-.075-.075-.224-.075-.373.075l-.075.075c-.149.149-.149.299-.075.373l.149.075c-.075.075-.224.224-.299.299l-.075-.075c-.075-.075-.224,0-.299.075l-.149.149c-.075.149-.075.299.075.299l.075.075c-.075.149-.149.224-.224.373l-.075-.075c-.149-.075-.299,0-.299.149l-.149.149c-.075.075,0,.224.075.299l.075.075c0,.075-.075.224-.149.299h-.075c-.149-.075-.299,0-.299.149l-.075.149c-.075.149-.075.299.075.299l.075.075c0,.149-.075.224-.149.373l-.075-.075c-.149,0-.224.075-.299.224l-.075.149c0,.149.075.299.149.299l.149.075c-.075.075-.075.224-.149.373l-.075-.075c-.149,0-.224.075-.299.224v.149c-.075.149,0,.299.149.299l.075.075c0,.075,0,.224-.075.373h-.075c-.149,0-.224.075-.224.224l-.075.149c0,.149.075.299.224.299h.149c-.075.149-.075.299-.075.373h-.075c-.149,0-.224.149-.224.299v.149c0,.149.075.299.224.299h.075c0,.075,0,.224.075.373h-.149c-.149,0-.224.149-.224.299l.075.149c0,.149.075.224.224.224h.075c.075.149.075.224.075.373h-.075c-.149.075-.224.224-.149.299v.224c.075.149.149.224.299.224l.075-.075c.075.149.075.299.149.373l-.149.075c-.075,0-.149.149-.149.299l.075.149c.075.149.149.224.299.224l.075-.075c.075.149.149.224.149.373l-.075.075c-.149,0-.149.149-.075.299l.075.149c0,.149.149.224.299.149l.075-.075c.075.149.149.224.149.373l-.075.075c-.075.075-.149.224-.075.299l.149.149c0,.149.149.224.299.149l.075-.075c.075.149.149.224.224.299l-.075.075c-.149.075-.149.224-.075.373l.149.149c.075.075.224.149.299.075l.075-.075c.075.075.224.224.299.299l-.149.075c-.075.075-.075.224.075.299l.075.149c.149.149.299.149.373.075l.075-.075c.075.075.149.149.299.299l-.149.075c-.075.075,0,.224.075.299l.149.149c.075.075.224.075.299,0l.149-.075c.075.075.149.149.299.224l-.075.075c-.075.149-.075.224.075.373l.149.075c.075.075.224.075.299,0l.075-.149c.149.075.224.149.299.224v.149c-.075.075,0,.224.075.299l.149.075c.149.075.299.075.373-.075v-.075c.149.075.299.149.373.149l-.075.149c0,.075.075.224.149.299l.224.075c.075,0,.224,0,.299-.075l.075-.149c.075.075.224.075.299.149v.075c-.075.149.075.299.149.299l.224.075c.075.075.224,0,.299-.149v-.075c.149,0,.299.075.373.075v.149c0,.075.075.224.224.224l.149.075c.149,0,.299-.075.299-.149v-.149c.149,0,.299.075.448.075l-.075.149c0,.075.149.149.299.224h.149c.149,0,.299-.075.299-.224v-.075h.373v.149c0,.075.149.224.299.224h.149c.149,0,.224-.149.224-.224v-.149h.448v.075c0,.149.149.224.224.224h.224c.149-.075.224-.149.224-.224v-.149c.075,0,.224-.075.373-.075v.149c.075.075.149.149.299.149l.224-.075c.075,0,.224-.149.149-.224v-.149c.149,0,.224-.075.373-.075l.075.075c0,.149.149.224.299.149l.149-.075c.149,0,.224-.149.149-.299v-.075c.149-.075.224-.075.373-.149v.149c.075.075.224.075.373.075l.149-.075c.149-.075.224-.224.149-.299l-.075-.149c.149,0,.224-.075.373-.149l.075.075c0,.149.149.149.299.075l.149-.075c.149-.075.224-.224.149-.299l-.075-.149c.075-.075.224-.149.299-.224l.075.149c.075.075.224.075.373,0l.149-.075c.075-.149.149-.224.075-.373l-.075-.075c.075-.075.224-.149.299-.224l.075.075c.075.075.224.075.299,0l.149-.149c.149-.075.149-.224.075-.299l-.075-.075c.075-.149.149-.224.224-.299l.149.075c.075.075.224.075.299-.075l.149-.149c.075-.075.075-.224,0-.299l-.075-.075c.075-.075.149-.224.224-.299l.075.075c.149.075.224,0,.373-.075l.075-.149c.075-.149.075-.299,0-.373l-.149-.075c.075-.075.149-.149.224-.299l.149.075c.075.075.224,0,.299-.149l.075-.149c.075-.075.075-.224-.075-.299l-.075-.075c.075-.149.075-.224.149-.373l.149.075c.075.075.224,0,.299-.149l.075-.149c0-.149,0-.299-.075-.299l-.149-.075c.075-.149.075-.224.149-.373l.075.075c.149,0,.299-.075.299-.224l.075-.149c.075-.149,0-.299-.149-.299l-.075-.075c0-.075.075-.224.075-.373l.149.075c.075,0,.224-.075.224-.224l.075-.224c0-.075-.075-.224-.149-.299h-.149c0-.149.075-.224.075-.373h.075c.149,0,.224-.075.299-.224v-.149c0-.149-.075-.299-.224-.299h-.075v-.373h.149c.075,0,.224-.149.224-.299v-.149c0-.149-.149-.299-.224-.299h-.149v-.373" fill="#e2873f" fill-rule="evenodd"/><path d="M214.07,34.938c1.045-.746,2.314-1.194,3.657-1.343.597-.075,1.119-.075,1.717,0,.224,0,.373-.149.448-.299l.075-.224c.075-.224-.075-.448-.299-.522h-.075c-1.12-.149-2.239-.075-3.358.224-.97.224-1.94.672-2.761,1.269-.224.149-.299.448-.149.597,0,0,.075,0,.075.075l.149.149c.149.149.373.149.522.075M222.951,47.625c-1.045.746-2.314,1.194-3.582,1.343-.597.075-1.194.075-1.791,0-.224,0-.373.149-.448.299l-.075.224c-.075.224.075.448.299.522h.075c1.119.149,2.239.075,3.358-.224.97-.299,1.94-.746,2.836-1.343.149-.075.224-.373.075-.522v-.075l-.224-.149c-.075-.149-.373-.149-.522-.075ZM210.786,41.132,210.786,41.132c0-1.343.373-2.612,1.045-3.732.149-.299.299-.522.522-.746.075-.224.075-.448-.075-.522l-.149-.224c-.149-.149-.448-.149-.597,0,0,0,0,.075-.075.075-.299.448-.672.97-.896,1.493-.522,1.119-.821,2.388-.896,3.657,0,.299.075.597.075.97,0,.224.224.373.448.299h.299c.149-.075.299-.299.299-.448v-.821ZM209.667,41.132,225.638,38.222c.075.224.299.299.522.224h.224c.224-.075.373-.299.299-.522v-.075c-.299-.672-.672-1.269-1.12-1.866-.448-.672-1.119-1.269-1.791-1.791-.448-.373-.97-.672-1.567-.896-.149-.149-.448,0-.522.149v.075l-.075.224c-.075.224,0,.448.224.522.672.299,1.343.746,1.94,1.269.522.522.97,1.045,1.343,1.567.224.373.373.746.522,1.119ZM226.31,41.431,226.31,41.431c-.075,1.343-.448,2.687-1.119,3.806-.149.224-.299.448-.448.672-.149.149-.149.373,0,.522l.224.224c.149.149.373.149.522,0,.075,0,.075-.075.075-.075.373-.448.672-.97.896-1.567.597-1.119.896-2.314.896-3.582,0-.299,0-.597-.075-.97,0-.224-.224-.373-.448-.373l-.224.075c-.224.075-.373.224-.373.448.075.299.075.522.075.821ZM227.355,41.431,210.413,44.715c.224.672.597,1.269,1.045,1.866.522.672,1.12,1.269,1.791,1.791.522.373,1.045.672,1.567.896.224.075.448,0,.522-.224h.075v-.224c.075-.224,0-.448-.149-.522-.746-.299-1.418-.746-2.015-1.269-.448-.522-.896-1.045-1.269-1.642-.224-.299-.448-.672-.597-1.045-.075-.224-.299-.299-.448-.299l-.299.075c-.224.075-.299.299-.299.522q.075,0,.075.075Z" fill="#ca6e2c" fill-rule="evenodd"/><path d="M224.966,41.282c0-3.582-2.911-6.418-6.418-6.418-3.582,0-6.493,2.836-6.493,6.418s2.911,6.418,6.493,6.418c3.508,0,6.418-2.836,6.418-6.418" fill="#dcdcdc" fill-rule="evenodd"/><path d="M222.13,43.67l-1.642-1.567c-.448-.448-.448-1.194,0-1.642l1.642-1.567-1.194-1.194-1.642,1.567c-.448.448-1.119.448-1.567,0l-1.567-1.567-1.194,1.194,1.567,1.567c.448.448.448,1.194,0,1.642l-1.567,1.567,1.194,1.194,1.567-1.642c.448-.373,1.119-.373,1.567,0l1.642,1.642,1.194-1.194" fill="#bfbfbf" fill-rule="evenodd"/><path d="M61.094,53.36v-3.562h.472v3.141h1.754v.42h-2.226Z" fill="#fff"/><path d="M63.876,53.36v-3.562h.483l1.871,2.796v-2.796h.452v3.562h-.483l-1.871-2.799v2.799h-.452Z" fill="#fff"/><path d="M67.455,53.36v-3.562h.472v1.766l1.769-1.766h.639l-1.494,1.443,1.56,2.119h-.622l-1.268-1.803-.583.568v1.234h-.472Z" fill="#fff"/><path d="M29.175,46.937c-.292.249-.573.424-.843.526-.271.103-.561.153-.87.153-.511,0-.904-.125-1.178-.375-.275-.25-.412-.569-.412-.958,0-.228.052-.436.156-.624.104-.188.239-.34.407-.454s.357-.2.567-.258c.155-.041.389-.081.701-.119.637-.076,1.105-.167,1.406-.271.003-.108.004-.177.004-.206,0-.321-.074-.547-.223-.679-.202-.178-.501-.267-.898-.267-.371,0-.645.065-.821.195s-.308.36-.392.69l-.771-.105c.07-.33.186-.597.346-.799.161-.203.393-.359.697-.469.304-.109.656-.164,1.056-.164.397,0,.72.047.969.14.248.094.431.211.547.353.117.142.199.321.246.537.026.134.04.376.04.727v1.052c0,.733.017,1.197.05,1.391.033.194.1.38.199.559h-.824c-.082-.164-.134-.355-.158-.574ZM29.109,45.175c-.286.117-.715.216-1.288.298-.324.047-.554.1-.688.158-.134.059-.238.144-.311.256-.073.113-.109.237-.109.375,0,.21.08.385.239.525.159.141.392.21.699.21.304,0,.574-.066.811-.199.237-.133.411-.315.521-.545.085-.178.127-.441.127-.789v-.289Z" fill="#fff"/><path d="M34.35,47.511h-.732v-6.423h.789v2.292c.333-.417.758-.626,1.275-.626.286,0,.557.058.812.173.256.116.466.278.631.486.165.209.294.461.388.756.093.295.14.611.14.947,0,.797-.197,1.414-.591,1.849-.395.436-.868.653-1.42.653-.549,0-.98-.229-1.292-.688v.583ZM34.341,45.149c0,.558.076.961.228,1.209.248.406.584.609,1.008.609.344,0,.643-.149.894-.449.251-.3.377-.746.377-1.339,0-.607-.121-1.056-.361-1.345-.241-.289-.533-.434-.875-.434-.345,0-.643.15-.894.449-.251.299-.377.732-.377,1.299Z" fill="#fff"/><path d="M205.86-19.08V13.684h14.553c5,0,9.031-4.03,9.031-8.956v-14.852c0-4.926-4.03-8.956-9.031-8.956h-14.553M205.86-14.602v-4.478h-2.239v-3.06H31.891v3.06h-2.239V13.684h1.12v2.239h173.969v-2.239h1.119V-14.602Z" fill="#e5e5e5" fill-rule="evenodd" stroke="#221f20" stroke-miterlimit="10" stroke-width=".25"/><path d="M49.206,14.281h-3.284v.075l-.075.299c-.224.746-.896,1.269-1.642,1.269h5v-1.642M39.354,14.281h-3.284v1.642h5c-.746,0-1.418-.522-1.642-1.269l-.075-.299v-.075ZM199.367,14.281h-3.209c-.075,0-.075.075-.075.075l-.075.299c-.224.746-.896,1.269-1.642,1.269h5v-1.642ZM189.516,14.281h-3.284v1.642h5c-.746,0-1.418-.522-1.567-1.269l-.149-.299v-.075ZM31.891-20.498v-1.642c-1.269,0-2.239.97-2.239,2.239v.821h1.642v-.821c0-.299.299-.597.597-.597ZM203.621-20.498c.299,0,.522.299.522.597v.821h1.717v-.821c0-1.269-1.045-2.239-2.239-2.239v1.642Z" fill="#d8d8d8" fill-rule="evenodd"/><path d="M49.206,14.281v-1.119h-1.642c-.746,0-1.343.448-1.642,1.119h3.284M39.354,14.281c-.224-.672-.896-1.119-1.567-1.119h-1.717v1.119h3.284ZM199.367,14.281v-1.119h-1.642c-.746,0-1.343.448-1.567,1.119h3.209ZM189.516,14.281c-.224-.672-.896-1.119-1.567-1.119h-1.717v1.119h3.284ZM50.773,6.146V1.145c0-.224-.075-.522-.224-.672l-.97-.896c-.373-.373-.97-.373-1.343,0l-3.433,3.358c-.373.373-.373.97,0,1.343l3.433,3.433c.373.373.97.373,1.343,0l.97-.896c.149-.224.224-.448.224-.672ZM112.099,7.799l3.433-3.433c.373-.373.373-.97,0-1.343l-3.433-3.433c-.373-.373-.97-.373-1.343,0l-3.433,3.433c-.373.373-.373.97,0,1.343l3.433,3.433c.373.373.97.373,1.343,0ZM124.933,7.799l3.433-3.433c.373-.373.373-.97,0-1.343l-3.433-3.433c-.373-.373-.97-.373-1.343,0l-3.433,3.433c-.373.373-.373.97,0,1.343l3.433,3.433c.373.373.97.373,1.343,0ZM187.043,7.799l3.433-3.433c.373-.373.373-.97,0-1.343l-3.433-3.433c-.373-.373-.97-.373-1.343,0l-3.433,3.433c-.373.373-.373.97,0,1.343l3.433,3.433c.373.373.97.373,1.343,0ZM199.877,7.799l3.433-3.433c.373-.373.373-.97,0-1.343l-3.433-3.433c-.373-.373-.97-.373-1.343,0l-3.433,3.433c-.373.373-.373.97,0,1.343l3.433,3.433c.373.373.97.373,1.343,0ZM136.697,8.236h42.69c.448,0,.746-.373.746-.746V-13.483c0-.373-.299-.746-.746-.746h-42.69c-.448,0-.746.373-.746.746V7.489c0,.373.299.746.746.746ZM54.001,8.236h42.765c.373,0,.746-.373.746-.746V-13.483c0-.373-.373-.746-.746-.746h-42.765c-.373,0-.746.373-.746.746V7.489c0,.373.373.746.746.746Z" fill="#1a1a1a" fill-rule="evenodd"/><path d="M179.089-13.259h-42.093V7.265h42.093V-13.259ZM96.392-13.259h-42.018V7.265h42.018V-13.259Z" fill="#d8d8d8" fill-rule="evenodd"/><path d="M178.567-12.886h-41.048V6.892h41.048V-12.886ZM95.87-12.886h-40.973V6.892h40.973V-12.886Z" fill="#262626" fill-rule="evenodd"/><path d="M45.325,10.773v-28.062c0-1.343-1.119-2.463-2.538-2.463l-22.987.299c-1.418,0-2.538,1.119-2.538,2.537V10.4c0,1.418,1.119,2.537,2.538,2.537l22.987.299c1.418.075,2.538-1.045,2.538-2.463" fill="#666" fill-rule="evenodd"/><path d="M20.024,11.296h22.539c.373,0,.672-.299.672-.672v-27.763c0-.373-.299-.672-.672-.672h-22.539c-.299,0-.672.299-.672.672V10.624c0,.373.373.672.672.672" fill="#333" fill-rule="evenodd"/><path d="M19.651,12.042h23.36c.522,0,.896-.448.896-.97v-28.659c0-.522-.373-.97-.896-.97h-23.36c-.522,0-.97.448-.97.97V11.072c0,.522.448.97.97.97Z" fill="none" stroke="#595959" stroke-linecap="round" stroke-linejoin="round"/><path d="M196.009,9.803c0-1.791-1.418-3.209-3.209-3.209-1.717,0-3.209,1.418-3.209,3.209,0,1.717,1.493,3.135,3.209,3.135,1.791,0,3.209-1.418,3.209-3.135" fill="#a6a6a6" fill-rule="evenodd"/><path d="M194.218,9.803c0-.821-.597-1.418-1.418-1.418-.746,0-1.418.597-1.418,1.418,0,.746.672,1.343,1.418,1.343.821,0,1.418-.597,1.418-1.343" fill="#dedede" fill-rule="evenodd"/><path d="M228.847.175h.075c.149,0,.224-.149.224-.299v-.149c-.075-.149-.149-.224-.299-.224h-.075c0-.149-.075-.299-.075-.373l.149-.075c.075,0,.149-.149.149-.299l-.075-.149c0-.149-.149-.224-.224-.224l-.149.075c0-.149-.075-.299-.075-.373l.075-.075c.149,0,.224-.149.149-.299l-.075-.149c0-.149-.149-.224-.299-.224l-.075.075c-.075-.149-.075-.224-.149-.373l.149-.075c.075,0,.075-.149.075-.299l-.075-.149c-.075-.149-.224-.224-.299-.149h-.149c-.075-.075-.075-.224-.149-.299l.075-.075c.149-.075.149-.224.075-.299l-.075-.149c-.075-.149-.224-.224-.299-.149l-.149.075c-.075-.149-.149-.224-.224-.373l.149-.075c.075,0,.075-.149,0-.299l-.075-.149c-.149-.075-.224-.149-.373-.075l-.075.075c-.075-.075-.149-.224-.224-.299l.075-.075c.075-.075.075-.224,0-.373l-.149-.075c-.075-.149-.224-.149-.299-.075l-.149.075c-.075-.075-.149-.149-.224-.299l.075-.075c.075-.075.075-.224-.075-.299l-.149-.149c-.075-.075-.224-.075-.299,0l-.075.075c-.075-.075-.224-.149-.299-.224l.075-.075c.075-.149,0-.299-.075-.373l-.149-.075c-.149-.075-.299-.075-.373,0l-.075.075c-.075-.075-.224-.149-.299-.149l.075-.149c.075-.075,0-.224-.149-.299l-.149-.075c-.149-.075-.299-.075-.299,0l-.075.149c-.149-.075-.224-.149-.373-.149l.075-.149c.075-.075,0-.224-.149-.299l-.149-.075c-.149-.075-.299,0-.373.075v.149c-.149-.075-.224-.149-.373-.149v-.149c.075-.075,0-.224-.149-.224l-.149-.075c-.149-.075-.299,0-.299.075l-.075.149c-.149,0-.224-.075-.373-.075v-.149c.075-.075-.075-.224-.149-.224l-.224-.075c-.149,0-.224.075-.299.149v.149c-.149-.075-.299-.075-.373-.075v-.149c0-.075-.075-.224-.224-.224h-.224c-.075,0-.224.075-.224.149v.149h-.448v-.149c0-.075-.075-.224-.224-.224h-.149c-.149,0-.299.149-.299.224v.149h-.373v-.149c0-.075-.149-.149-.299-.149h-.149c-.149,0-.299.149-.299.224l.075.149c-.149,0-.299,0-.448.075v-.149c0-.075-.149-.149-.299-.149l-.149.075c-.149,0-.224.149-.224.224v.149c-.075,0-.224.075-.373.075v-.149c-.075-.075-.224-.149-.299-.075l-.224.075c-.075,0-.224.149-.149.224v.149c-.075,0-.224.075-.299.149l-.075-.149c-.075-.075-.224-.149-.299-.075l-.224.075c-.075.075-.149.224-.149.299l.075.149c-.075,0-.224.075-.373.149v-.149c-.075-.075-.224-.075-.373,0l-.149.075c-.075.075-.149.224-.075.299v.149c-.075,0-.149.075-.299.149l-.075-.075c-.075-.075-.224-.075-.299,0l-.149.075c-.149.075-.149.224-.075.373l.075.075c-.149.075-.224.149-.299.224l-.149-.075c-.075-.075-.224-.075-.299,0l-.149.149c-.075.075-.149.224-.075.299l.149.075c-.149.149-.224.224-.299.299l-.075-.075c-.075-.075-.224-.075-.373.075l-.075.075c-.149.149-.149.299-.075.373l.149.075c-.075.075-.224.224-.299.299l-.075-.075c-.075-.075-.224,0-.299.075l-.149.149c-.075.149-.075.299.075.299l.075.075c-.075.149-.149.224-.224.373l-.075-.075c-.149-.075-.299,0-.299.149l-.149.149c-.075.075,0,.224.075.299l.075.075c0,.075-.075.224-.149.299h-.075c-.149-.075-.299,0-.299.149l-.075.149c-.075.149-.075.299.075.299l.075.075c0,.149-.075.224-.149.373l-.075-.075c-.149,0-.224.075-.299.224l-.075.149c0,.149.075.299.149.299l.149.075c-.075.075-.075.224-.149.373l-.075-.075c-.149,0-.224.075-.299.224v.149c-.075.149,0,.299.149.299l.075.075c0,.075,0,.224-.075.373h-.075c-.149,0-.224.075-.224.224l-.075.149c0,.149.075.299.224.299h.149c-.075.149-.075.299-.075.373h-.075c-.149,0-.224.149-.224.299v.149c0,.149.075.299.224.299h.075c0,.075,0,.224.075.373h-.149c-.149,0-.224.149-.224.299l.075.149c0,.149.075.224.224.224h.075c.075.149.075.224.075.373h-.075c-.149.075-.224.224-.149.299v.224c.075.149.149.224.299.224l.075-.075c.075.149.075.299.149.373l-.149.075c-.075,0-.149.149-.149.299l.075.149c.075.149.149.224.299.224l.075-.075c.075.149.149.224.149.373l-.075.075c-.149,0-.149.149-.075.299l.075.149c0,.149.149.224.299.149l.075-.075c.075.149.149.224.149.373l-.075.075c-.075.075-.149.224-.075.299l.149.149c0,.149.149.224.299.149l.075-.075c.075.149.149.224.224.299l-.075.075c-.149.075-.149.224-.075.373l.149.149c.075.075.224.149.299.075l.075-.075c.075.075.224.224.299.299l-.149.075c-.075.075-.075.224.075.299l.075.149c.149.149.299.149.373.075l.075-.075c.075.075.149.149.299.299l-.149.075c-.075.075,0,.224.075.299l.149.149c.075.075.224.075.299,0l.149-.075c.075.075.149.149.299.224l-.075.075c-.075.149-.075.224.075.373l.149.075c.075.075.224.075.299,0l.075-.149c.149.075.224.149.299.224v.149c-.075.075,0,.224.075.299l.149.075c.149.075.299.075.373-.075v-.075c.149.075.299.149.373.149l-.075.149c0,.075.075.224.149.299l.224.075c.075,0,.224,0,.299-.075l.075-.149c.075.075.224.075.299.149v.075c-.075.149.075.299.149.299l.224.075c.075.075.224,0,.299-.149v-.075c.149,0,.299.075.373.075v.149c0,.075.075.224.224.224l.149.075c.149,0,.299-.075.299-.149v-.149c.149,0,.299.075.448.075l-.075.149c0,.075.149.149.299.224h.149c.149,0,.299-.075.299-.224v-.075h.373v.149c0,.075.149.224.299.224h.149c.149,0,.224-.149.224-.224v-.149h.448v.075c0,.149.149.224.224.224h.224c.149-.075.224-.149.224-.224v-.149c.075,0,.224-.075.373-.075v.149c.075.075.149.149.299.149l.224-.075c.075,0,.224-.149.149-.224v-.149c.149,0,.224-.075.373-.075l.075.075c0,.149.149.224.299.149l.149-.075c.149,0,.224-.149.149-.299v-.075c.149-.075.224-.075.373-.149v.149c.075.075.224.075.373.075l.149-.075c.149-.075.224-.224.149-.299l-.075-.149c.149,0,.224-.075.373-.149l.075.075c0,.149.149.149.299.075l.149-.075c.149-.075.224-.224.149-.299l-.075-.149c.075-.075.224-.149.299-.224l.075.149c.075.075.224.075.373,0l.149-.075c.075-.149.149-.224.075-.373l-.075-.075c.075-.075.224-.149.299-.224l.075.075c.075.075.224.075.299,0l.149-.149c.149-.075.149-.224.075-.299l-.075-.075c.075-.149.149-.224.224-.299l.149.075c.075.075.224.075.299-.075l.149-.149c.075-.075.075-.224,0-.299l-.075-.075c.075-.075.149-.224.224-.299l.075.075c.149.075.224,0,.373-.075l.075-.149c.075-.149.075-.299,0-.373l-.149-.075c.075-.075.149-.149.224-.299l.149.075c.075.075.224,0,.299-.149l.075-.149c.075-.075.075-.224-.075-.299l-.075-.075c.075-.149.075-.224.149-.373l.149.075c.075.075.224,0,.299-.149l.075-.149c0-.149,0-.299-.075-.299l-.149-.075c.075-.149.075-.224.149-.373l.075.075c.149,0,.299-.075.299-.224l.075-.149c.075-.149,0-.299-.149-.299l-.075-.075c0-.075.075-.224.075-.373l.149.075c.075,0,.224-.075.224-.224l.075-.224c0-.075-.075-.224-.149-.299h-.149c0-.149.075-.224.075-.373h.075c.149,0,.224-.075.299-.224v-.149c0-.149-.075-.299-.224-.299h-.075v-.373h.149c.075,0,.224-.149.224-.299v-.149c0-.149-.149-.299-.224-.299h-.149V.175" fill="#e2873f" fill-rule="evenodd"/><path d="M214.07-5.422c1.045-.746,2.314-1.194,3.657-1.343.597-.075,1.119-.075,1.717,0,.224,0,.373-.149.448-.299l.075-.224c.075-.224-.075-.448-.299-.522h-.075c-1.12-.149-2.239-.075-3.358.224-.97.224-1.94.672-2.761,1.269-.224.149-.299.448-.149.597,0,0,.075,0,.075.075l.149.149c.149.149.373.149.522.075M222.951,7.265c-1.045.746-2.314,1.194-3.582,1.343-.597.075-1.194.075-1.791,0-.224,0-.373.149-.448.299l-.075.224c-.075.224.075.448.299.522h.075c1.119.149,2.239.075,3.358-.224.97-.299,1.94-.746,2.836-1.343.149-.075.224-.373.075-.522v-.075l-.224-.149c-.075-.149-.373-.149-.522-.075ZM210.786.772,210.786.772c0-1.343.373-2.612,1.045-3.732.149-.299.299-.522.522-.746.075-.224.075-.448-.075-.522l-.149-.224c-.149-.149-.448-.149-.597,0,0,0,0,.075-.075.075-.299.448-.672.97-.896,1.493-.522,1.119-.821,2.388-.896,3.657,0,.299.075.597.075.97,0,.224.224.373.448.299h.299c.149-.075.299-.299.299-.448v-.821ZM209.667.772,225.638-2.138c.075.224.299.299.522.224h.224c.224-.075.373-.299.299-.522v-.075c-.299-.672-.672-1.269-1.12-1.866-.448-.672-1.119-1.269-1.791-1.791-.448-.373-.97-.672-1.567-.896-.149-.149-.448,0-.522.149v.075l-.075.224c-.075.224,0,.448.224.522.672.299,1.343.746,1.94,1.269.522.522.97,1.045,1.343,1.567.224.373.373.746.522,1.119ZM226.31,1.071,226.31,1.071c-.075,1.343-.448,2.687-1.119,3.806-.149.224-.299.448-.448.672-.149.149-.149.373,0,.522l.224.224c.149.149.373.149.522,0,.075,0,.075-.075.075-.075.373-.448.672-.97.896-1.567.597-1.119.896-2.314.896-3.582,0-.299,0-.597-.075-.97,0-.224-.224-.373-.448-.373l-.224.075c-.224.075-.373.224-.373.448.075.299.075.522.075.821ZM227.355,1.071,210.413,4.355c.224.672.597,1.269,1.045,1.866.522.672,1.12,1.269,1.791,1.791.522.373,1.045.672,1.567.896.224.075.448,0,.522-.224h.075v-.224c.075-.224,0-.448-.149-.522-.746-.299-1.418-.746-2.015-1.269-.448-.522-.896-1.045-1.269-1.642-.224-.299-.448-.672-.597-1.045-.075-.224-.299-.299-.448-.299l-.299.075c-.224.075-.299.299-.299.522q.075,0,.075.075Z" fill="#ca6e2c" fill-rule="evenodd"/><path d="M224.966.922c0-3.582-2.911-6.418-6.418-6.418-3.582,0-6.493,2.836-6.493,6.418s2.911,6.418,6.493,6.418c3.508,0,6.418-2.836,6.418-6.418" fill="#dcdcdc" fill-rule="evenodd"/><path d="M222.13,3.31l-1.642-1.567c-.448-.448-.448-1.194,0-1.642l1.642-1.567-1.194-1.194-1.642,1.567c-.448.448-1.119.448-1.567,0l-1.567-1.567-1.194,1.194,1.567,1.567c.448.448.448,1.194,0,1.642l-1.567,1.567,1.194,1.194,1.567-1.642c.448-.373,1.119-.373,1.567,0l1.642,1.642,1.194-1.194" fill="#bfbfbf" fill-rule="evenodd"/><path d="M29.175,6.576c-.292.249-.573.424-.843.526-.271.103-.561.153-.87.153-.511,0-.904-.125-1.178-.375-.275-.25-.412-.569-.412-.958,0-.228.052-.436.156-.624.104-.188.239-.34.407-.454s.357-.2.567-.258c.155-.041.389-.081.701-.119.637-.076,1.105-.167,1.406-.271.003-.108.004-.177.004-.206,0-.321-.074-.547-.223-.679-.202-.178-.501-.267-.898-.267-.371,0-.645.065-.821.195s-.308.36-.392.69l-.771-.105c.07-.33.186-.597.346-.799.161-.203.393-.359.697-.469.304-.109.656-.164,1.056-.164.397,0,.72.047.969.14.248.094.431.211.547.353.117.142.199.321.246.537.026.134.04.376.04.727v1.052c0,.733.017,1.197.05,1.391.033.194.1.38.199.559h-.824c-.082-.164-.134-.355-.158-.574ZM29.109,4.815c-.286.117-.715.216-1.288.298-.324.047-.554.1-.688.158-.134.059-.238.144-.311.256-.073.113-.109.237-.109.375,0,.21.08.385.239.525.159.141.392.21.699.21.304,0,.574-.066.811-.199.237-.133.411-.315.521-.545.085-.178.127-.441.127-.789v-.289Z" fill="#fff"/><path d="M34.35,7.15h-.732V.727h.789v2.292c.333-.417.758-.626,1.275-.626.286,0,.557.058.812.173.256.116.466.278.631.486.165.209.294.461.388.756.093.295.14.611.14.947,0,.797-.197,1.414-.591,1.849-.395.436-.868.653-1.42.653-.549,0-.98-.229-1.292-.688v.583ZM34.341,4.789c0,.558.076.961.228,1.209.248.406.584.609,1.008.609.344,0,.643-.149.894-.449.251-.3.377-.746.377-1.339,0-.607-.121-1.056-.361-1.345-.241-.289-.533-.434-.875-.434-.345,0-.643.15-.894.449-.251.299-.377.732-.377,1.299Z" fill="#fff"/></g><path d="M73.492,53.748h3.173c.364,0,.624-.26.624-.624v-2.029c0-.364-.26-.676-.624-.676h-3.173c-.364,0-.624.312-.624.676v2.029c0,.364.26.624.624.624Z" fill="#8dc63f" fill-rule="evenodd"/><path d="M82.476,53.748h3.173c.364,0,.624-.26.624-.624v-2.029c0-.364-.26-.676-.624-.676h-3.173c-.364,0-.624.312-.624.676v2.029c0,.364.26.624.624.624Z" fill="#f7941d" fill-rule="evenodd"/><path d="M88.637,50.989l-.289,1.676q0,.058-.058.058s-.058,0-.058-.058l-.231-1.676c0-.173.116-.347.289-.347.116-.058.289.058.347.231v.116Z" fill="#fff" fill-rule="evenodd"/><path d="M88.001,53.243c0-.173.173-.289.289-.289.173,0,.289.116.289.289s-.116.289-.289.289c-.116,0-.289-.116-.289-.289Z" fill="#fff" fill-rule="evenodd"/><path d="M141.809,53.36v-3.562h.472v3.141h1.754v.42h-2.226Z" fill="#fff"/><path d="M144.591,53.36v-3.562h.483l1.871,2.796v-2.796h.452v3.562h-.483l-1.871-2.799v2.799h-.452Z" fill="#fff"/><path d="M148.169,53.36v-3.562h.472v1.766l1.769-1.766h.639l-1.494,1.443,1.56,2.119h-.622l-1.268-1.803-.583.568v1.234h-.472Z" fill="#fff"/><path d="M154.207,53.748h3.173c.364,0,.624-.26.624-.624v-2.029c0-.364-.26-.676-.624-.676h-3.173c-.364,0-.624.312-.624.676v2.029c0,.364.26.624.624.624Z" fill="#8dc63f" fill-rule="evenodd"/><path d="M163.191,53.748h3.173c.364,0,.624-.26.624-.624v-2.029c0-.364-.26-.676-.624-.676h-3.173c-.364,0-.624.312-.624.676v2.029c0,.364.26.624.624.624Z" fill="#f7941d" fill-rule="evenodd"/><path d="M169.352,50.989l-.289,1.676q0,.058-.058.058s-.058,0-.058-.058l-.231-1.676c0-.173.116-.347.289-.347.116-.058.289.058.347.231v.116Z" fill="#fff" fill-rule="evenodd"/><path d="M168.716,53.243c0-.173.173-.289.289-.289.173,0,.289.116.289.289s-.116.289-.289.289c-.116,0-.289-.116-.289-.289Z" fill="#fff" fill-rule="evenodd"/><rect x="53.236" y="8.541" width="126.959" height="5.374" fill="#333"/><path d="M61.094,13.006v-3.562h.472v3.141h1.754v.42h-2.226Z" fill="#fff"/><path d="M63.876,13.006v-3.562h.483l1.871,2.796v-2.796h.452v3.562h-.483l-1.871-2.799v2.799h-.452Z" fill="#fff"/><path d="M67.455,13.006v-3.562h.472v1.766l1.769-1.766h.639l-1.494,1.443,1.56,2.119h-.622l-1.268-1.803-.583.568v1.234h-.472Z" fill="#fff"/><path d="M73.492,13.395h3.173c.364,0,.624-.26.624-.624v-2.029c0-.364-.26-.676-.624-.676h-3.173c-.364,0-.624.312-.624.676v2.029c0,.364.26.624.624.624Z" fill="#8dc63f" fill-rule="evenodd"/><path d="M82.476,13.395h3.173c.364,0,.624-.26.624-.624v-2.029c0-.364-.26-.676-.624-.676h-3.173c-.364,0-.624.312-.624.676v2.029c0,.364.26.624.624.624Z" fill="#f7941d" fill-rule="evenodd"/><path d="M88.637,10.635l-.289,1.676q0,.058-.058.058s-.058,0-.058-.058l-.231-1.676c0-.173.116-.347.289-.347.116-.058.289.058.347.231v.116Z" fill="#fff" fill-rule="evenodd"/><path d="M88.001,12.89c0-.173.173-.289.289-.289.173,0,.289.116.289.289s-.116.289-.289.289c-.116,0-.289-.116-.289-.289Z" fill="#fff" fill-rule="evenodd"/><path d="M141.809,13.006v-3.562h.472v3.141h1.754v.42h-2.226Z" fill="#fff"/><path d="M144.591,13.006v-3.562h.483l1.871,2.796v-2.796h.452v3.562h-.483l-1.871-2.799v2.799h-.452Z" fill="#fff"/><path d="M148.169,13.006v-3.562h.472v1.766l1.769-1.766h.639l-1.494,1.443,1.56,2.119h-.622l-1.268-1.803-.583.568v1.234h-.472Z" fill="#fff"/><path d="M154.207,13.395h3.173c.364,0,.624-.26.624-.624v-2.029c0-.364-.26-.676-.624-.676h-3.173c-.364,0-.624.312-.624.676v2.029c0,.364.26.624.624.624Z" fill="#8dc63f" fill-rule="evenodd"/><path d="M163.191,13.395h3.173c.364,0,.624-.26.624-.624v-2.029c0-.364-.26-.676-.624-.676h-3.173c-.364,0-.624.312-.624.676v2.029c0,.364.26.624.624.624Z" fill="#f7941d" fill-rule="evenodd"/><path d="M169.352,10.635l-.289,1.676q0,.058-.058.058s-.058,0-.058-.058l-.231-1.676c0-.173.116-.347.289-.347.116-.058.289.058.347.231v.116Z" fill="#fff" fill-rule="evenodd"/><path d="M168.716,12.89c0-.173.173-.289.289-.289.173,0,.289.116.289.289s-.116.289-.289.289c-.116,0-.289-.116-.289-.289Z" fill="#fff" fill-rule="evenodd"/></g><g id="g"><g clip-path="url(#h)"><rect x="30.31" y="47.683" width="170.037" height="44.246" fill="#e5e5e5"/><path d="M147.289,82.977h51.135c.68,0,1.133-.566,1.133-1.133v-31.831c0-.566-.453-1.133-1.133-1.133h-51.135c-.68,0-1.133.566-1.133,1.133v31.831c0,.566.453,1.133,1.133,1.133ZM32.302,82.977h51.248c.566,0,1.133-.566,1.133-1.133v-31.831c0-.566-.566-1.133-1.133-1.133h-51.248c-.566,0-1.133.566-1.133,1.133v31.831c0,.566.566,1.133,1.133,1.133Z" fill="#1a1a1a" fill-rule="evenodd"/><path d="M197.971,50.353h-50.229v31.152h50.229v-31.152ZM82.984,50.353h-50.115v31.152h50.115v-31.152Z" fill="#d8d8d8" fill-rule="evenodd"/><path d="M197.195,50.919h-48.643v30.019h48.643v-30.019ZM82.191,50.919h-48.53v30.019h48.53v-30.019Z" fill="#262626" fill-rule="evenodd"/></g><line x1="31.046" y1="73.225" x2="53.029" y2="55.093" fill="none" stroke="#fff" stroke-linecap="round" stroke-linejoin="round" stroke-width="3"/><line x1="31.046" y1="73.225" x2="53.029" y2="55.093" fill="none" stroke="#231f20" stroke-dasharray="2.883" stroke-linecap="round" stroke-linejoin="round"/><line x1="199.253" y1="72.812" x2="182.953" y2="55.093" fill="none" stroke="#fff" stroke-linecap="round" stroke-linejoin="round" stroke-width="3"/><line x1="199.253" y1="72.812" x2="182.953" y2="55.093" fill="none" stroke="#231f20" stroke-dasharray="2.883" stroke-linecap="round" stroke-linejoin="round"/><rect x="28.809" y="73.842" width="173.019" height="17.762" fill="none" stroke="#fff" stroke-linecap="round" stroke-linejoin="round" stroke-width="3"/><rect x="28.809" y="73.842" width="173.019" height="17.762" fill="none" stroke="#231f20" stroke-miterlimit="10"/><path d="M78.805,133.369c0,7.593-6.246,13.745-13.95,13.745s-13.953-6.152-13.953-13.745,6.246-13.755,13.953-13.755,13.95,6.159,13.95,13.755" fill="#221f1f" stroke="#fff" stroke-miterlimit="10" stroke-width="1.5"/><rect x="50.854" y="125.375" width="27.228" height="24.791" fill="none"/><path d="M66.452,140.411h-1.846v-11.761c-.444.424-1.027.848-1.749,1.271s-1.369.742-1.943.954v-1.784c1.032-.485,1.935-1.073,2.707-1.764s1.319-1.36,1.641-2.01h1.189v15.094Z" fill="#fff"/><polyline points="60.233 92.1 60.233 103.09 167.182 103.09 167.182 92.13" fill="none" stroke="#fff" stroke-miterlimit="10" stroke-width="3"/><polyline points="60.233 92.1 60.233 103.09 167.182 103.09 167.182 92.13" fill="none" stroke="#231f20" stroke-miterlimit="10" stroke-width=".75"/><line x1="65.227" y1="103.338" x2="65.227" y2="117.644" fill="none" stroke="#231f20" stroke-miterlimit="10" stroke-width=".75"/><polyline points="72.111 92.13 72.111 108.057 179.004 108.057 179.004 92.1" fill="none" stroke="#fff" stroke-miterlimit="10" stroke-width="3"/><polyline points="72.111 92.13 72.111 108.057 179.004 108.057 179.004 92.1" fill="none" stroke="#231f20" stroke-miterlimit="10" stroke-width=".75"/><line x1="173.902" y1="108.124" x2="173.902" y2="117.518" fill="none" stroke="#231f20" stroke-miterlimit="10" stroke-width=".75"/><path d="M277.915,92.719c0,7.593-6.246,13.745-13.95,13.745s-13.953-6.152-13.953-13.745,6.246-13.755,13.953-13.755,13.95,6.159,13.95,13.755" fill="#221f1f" stroke="#fff" stroke-miterlimit="10" stroke-width="1.5"/><rect x="250.358" y="84.725" width="27.228" height="24.791" fill="none"/><path d="M259.015,95.792l1.846-.246c.212,1.046.572,1.799,1.082,2.261.509.461,1.129.692,1.86.692.868,0,1.602-.301,2.2-.902.598-.602.896-1.347.896-2.235,0-.848-.276-1.546-.83-2.097-.554-.55-1.258-.825-2.112-.825-.349,0-.783.068-1.303.205l.205-1.62c.123.014.223.021.298.021.786,0,1.493-.205,2.122-.615s.943-1.042.943-1.897c0-.677-.229-1.237-.687-1.682s-1.05-.667-1.774-.667c-.718,0-1.315.226-1.794.677s-.786,1.128-.923,2.03l-1.846-.328c.226-1.237.738-2.196,1.538-2.876s1.794-1.021,2.983-1.021c.82,0,1.576.176,2.267.528s1.218.832,1.584,1.44c.365.608.549,1.254.549,1.938,0,.649-.175,1.241-.523,1.774s-.864.957-1.548,1.271c.889.205,1.579.631,2.071,1.276.492.646.738,1.455.738,2.425,0,1.312-.479,2.425-1.436,3.337-.957.913-2.167,1.369-3.63,1.369-1.319,0-2.415-.393-3.286-1.179-.872-.786-1.369-1.805-1.492-3.056Z" fill="#fff"/><path d="M357.18,92.719c0,7.593-6.246,13.745-13.95,13.745s-13.953-6.152-13.953-13.745,6.246-13.755,13.953-13.755,13.95,6.159,13.95,13.755" fill="#221f1f" stroke="#fff" stroke-miterlimit="10" stroke-width="1.5"/><rect x="329.228" y="84.725" width="27.228" height="17.791" fill="none"/><path d="M343.791,99.761v-3.599h-6.521v-1.692l6.86-9.741h1.507v9.741h2.03v1.692h-2.03v3.599h-1.846ZM343.791,94.47v-6.778l-4.706,6.778h4.706Z" fill="#fff"/><path d="M389.998,92.719c0,7.593-6.246,13.745-13.95,13.745s-13.953-6.152-13.953-13.745,6.246-13.755,13.953-13.755,13.95,6.159,13.95,13.755" fill="#221f1f" stroke="#fff" stroke-miterlimit="10" stroke-width="1.5"/><rect x="362.699" y="84.725" width="27.228" height="16.791" fill="none"/><path d="M371.345,95.823l1.938-.164c.144.943.477,1.653,1,2.128.522.475,1.153.712,1.892.712.889,0,1.641-.335,2.256-1.005s.923-1.559.923-2.666c0-1.053-.296-1.883-.887-2.492-.592-.608-1.366-.913-2.323-.913-.595,0-1.131.135-1.609.405-.479.271-.854.621-1.128,1.051l-1.733-.226,1.456-7.721h7.476v1.764h-5.999l-.81,4.04c.902-.629,1.849-.943,2.84-.943,1.312,0,2.42.455,3.322,1.364s1.354,2.078,1.354,3.507c0,1.36-.396,2.536-1.189,3.527-.964,1.217-2.279,1.825-3.947,1.825-1.367,0-2.483-.383-3.348-1.148-.865-.766-1.359-1.781-1.482-3.045Z" fill="#fff"/><path d="M188.112,133.369c0,7.593-6.246,13.745-13.95,13.745s-13.953-6.152-13.953-13.745,6.246-13.755,13.953-13.755,13.95,6.159,13.95,13.755" fill="#221f1f" stroke="#fff" stroke-miterlimit="10" stroke-width="1.5"/><rect x="160.612" y="125.375" width="27.228" height="24.791" fill="none"/><path d="M178.958,138.637v1.774h-9.936c-.014-.444.058-.872.215-1.282.253-.677.658-1.343,1.215-2,.557-.656,1.362-1.415,2.415-2.276,1.634-1.34,2.738-2.401,3.312-3.184s.861-1.523.861-2.22c0-.731-.262-1.348-.784-1.851-.523-.502-1.205-.753-2.046-.753-.889,0-1.6.267-2.133.8s-.803,1.271-.81,2.215l-1.897-.195c.13-1.415.619-2.493,1.466-3.235.848-.741,1.986-1.112,3.415-1.112,1.442,0,2.584.4,3.425,1.2s1.261,1.791,1.261,2.974c0,.602-.123,1.193-.369,1.774s-.655,1.193-1.225,1.835c-.571.643-1.52,1.524-2.846,2.646-1.107.93-1.818,1.561-2.133,1.892s-.574.665-.779,1h7.373Z" fill="#fff"/><polyline points="264.336 76.868 264.336 35.307 254.435 35.307" fill="none" stroke="#fff" stroke-linecap="round" stroke-linejoin="round" stroke-width="3"/><polyline points="264.336 76.868 264.336 35.307 254.435 35.307" fill="none" stroke="#231f20" stroke-linecap="round" stroke-linejoin="round" stroke-width=".75"/><line x1="343.601" y1="57.669" x2="343.601" y2="76.868" fill="none" stroke="#fff" stroke-linecap="round" stroke-linejoin="round" stroke-width="3"/><line x1="343.601" y1="57.669" x2="343.601" y2="76.868" fill="none" stroke="#231f20" stroke-linecap="round" stroke-linejoin="round" stroke-width=".75"/><polyline points="376.419 76.868 376.419 70.417 358.58 70.417 358.58 57.669" fill="none" stroke="#fff" stroke-linecap="round" stroke-linejoin="round" stroke-width="3"/><polyline points="376.419 76.868 376.419 70.417 358.58 70.417 358.58 57.669" fill="none" stroke="#231f20" stroke-linecap="round" stroke-linejoin="round" stroke-width=".75"/><g clip-path="url(#i)"><rect x="100.801" y="68.011" width="10.955" height="10.955" rx="1.541" ry="1.541" transform="translate(-20.836 96.675) rotate(-45)" fill="#1a1a1a"/><rect x="121.112" y="68.011" width="10.955" height="10.955" rx="1.541" ry="1.541" transform="translate(-14.887 111.037) rotate(-45)" fill="#1a1a1a"/></g><rect x="31.304" y="83.223" width="168.288" height="6.954" fill="#333"/><path d="M41.717,89.142v-4.723h.625v4.166h2.326v.557h-2.951Z" fill="#fff"/><path d="M45.406,89.142v-4.723h.641l2.481,3.708v-3.708h.599v4.723h-.641l-2.481-3.711v3.711h-.599Z" fill="#fff"/><path d="M50.151,89.142v-4.723h.625v2.342l2.345-2.342h.847l-1.981,1.914,2.068,2.809h-.825l-1.682-2.391-.773.754v1.637h-.625Z" fill="#fff"/><path d="M58.154,89.229h4.206c.483,0,.827-.345.827-.827v-2.689c0-.483-.345-.896-.827-.896h-4.206c-.483,0-.827.414-.827.896v2.689c0,.483.345.827.827.827Z" fill="#8dc63f" fill-rule="evenodd"/><path d="M70.062,89.229h4.206c.483,0,.827-.345.827-.827v-2.689c0-.483-.345-.896-.827-.896h-4.206c-.483,0-.827.414-.827.896v2.689c0,.483.345.827.827.827Z" fill="#f7941d" fill-rule="evenodd"/><path d="M78.229,85.571l-.383,2.222q0,.077-.077.077s-.077,0-.077-.077l-.307-2.222c0-.23.153-.46.383-.46.153-.077.383.077.46.306v.153Z" fill="#fff" fill-rule="evenodd"/><path d="M77.386,88.559c0-.23.23-.383.383-.383.23,0,.383.153.383.383s-.153.383-.383.383c-.153,0-.383-.153-.383-.383Z" fill="#fff" fill-rule="evenodd"/><path d="M148.707,89.142v-4.723h.625v4.166h2.326v.557h-2.951Z" fill="#fff"/><path d="M152.396,89.142v-4.723h.641l2.481,3.708v-3.708h.599v4.723h-.641l-2.481-3.711v3.711h-.599Z" fill="#fff"/><path d="M157.141,89.142v-4.723h.625v2.342l2.345-2.342h.847l-1.981,1.914,2.068,2.809h-.825l-1.682-2.391-.773.754v1.637h-.625Z" fill="#fff"/><path d="M165.144,89.229h4.206c.483,0,.827-.345.827-.827v-2.689c0-.483-.345-.896-.827-.896h-4.206c-.483,0-.827.414-.827.896v2.689c0,.483.345.827.827.827Z" fill="#8dc63f" fill-rule="evenodd"/><path d="M177.053,89.229h4.206c.483,0,.827-.345.827-.827v-2.689c0-.483-.345-.896-.827-.896h-4.206c-.483,0-.827.414-.827.896v2.689c0,.483.345.827.827.827Z" fill="#f7941d" fill-rule="evenodd"/><path d="M185.219,85.571l-.383,2.222q0,.077-.077.077s-.077,0-.077-.077l-.307-2.222c0-.23.153-.46.383-.46.153-.077.383.077.46.306v.153Z" fill="#fff" fill-rule="evenodd"/><path d="M184.376,88.559c0-.23.23-.383.383-.383.23,0,.383.153.383.383s-.153.383-.383.383c-.153,0-.383-.153-.383-.383Z" fill="#fff" fill-rule="evenodd"/></g></svg>