<?xml version="1.0" encoding="UTF-8"?><svg id="a" xmlns="http://www.w3.org/2000/svg" width="6in" height="3.5in" xmlns:xlink="http://www.w3.org/1999/xlink" viewBox="0 0 432 252"><defs><clipPath id="b"><rect x="-1.176" y=".064" width="437.174" height="261.379" fill="none" stroke-width="0"/></clipPath></defs><g clip-path="url(#b)"><path d="M209.709,96.998l-7.63,7.234-2.874,1.09-8.027,7.234-1.883,3.766-2.973.595-2.676-.396s-4.558.297-4.459,6.54l-.099,2.676-10.504.991-1.982-.297-1.189,1.288-.694,1.288,1.387,23.485,1.09.495,19.918,3.766,2.081-2.279,7.63-9.216,144.678,24.873s.793,10.207,10.504,10.504c0,0,9.117,1.09,10.801-8.027l2.477-7.828,1.784-4.162.694-5.054s1.982-10.009-9.117-12.288l3.651-9.328-3.928-5.092,1.746-15.858s-3.201-2.764-3.201-5.528l-3.637-.582-8.147,17.749-141.555-19.64,8.293-7.711-2.161-.287Z" fill="#d1d3d4" stroke-width="0"/><path d="M23.925,186.419l-1.296.078-2.539-.322-.925-.897-5.769-34.796c-.359-3.292,3.53-2.652,3.53-2.652l9.339-5.667.151-.046.117.031,6.666,1.627.123.031.108.071.084.057.147.26,5.903,33.976s.438,1.236-.566,1.957-15.073,6.29-15.073,6.29Z" fill="none" stroke="#231f20" stroke-miterlimit="10" stroke-width=".5"/><path d="M22.59,70.383l6.152,38.498-.104.951-3.825,1.943-12.808,2.812-3.253-.273-1.008-1.141L1.684,73.693l13.15-5.162.164-.021.119.04,6.988,1.372s.394.081.485.462Z" fill="none" stroke="#231f20" stroke-miterlimit="10" stroke-width=".5"/><path d="M70.82,44.096l-42.948,18.696s-2.135.951-2.582,3.094" fill="none" stroke="#231f20" stroke-miterlimit="10" stroke-width=".5"/><path d="M17.582,68.516l.824-.73c3.002-1.901,6.649-1.493,6.649-1.493l1.608-.454,9.875-4.585.109-.043.179-.046.093.018,9.017.986s1.766.13,2.166,2.537l3.874,29.553s.864,3.328,2.763,2.961,7.535-3.788,7.535-3.788l1.543.738,11.338-6.105" fill="none" stroke="#231f20" stroke-miterlimit="10" stroke-width=".5"/><path d="M81.906,109.728l.357-.103-2.081-.522-42.253,25.795s-2.65,1.644-2.873,4.015" fill="none" stroke="#231f20" stroke-miterlimit="10" stroke-width=".5"/><polyline points="52.282 90.173 54.058 89.84 57.39 90.062 65.828 85.177 73.712 86.398" fill="none" stroke="#231f20" stroke-miterlimit="10" stroke-width=".5"/><path d="M28.637,109.832l9.056,1.189,6.647-3.324s4.736,11.218-3.324,12.381c0,0-2.991.249-4.238-1.579" fill="none" stroke="#231f20" stroke-miterlimit="10" stroke-width=".5"/><path d="M35.226,118.455c-.126.149-.267.279-.42.39-1.074.778-2.748.631-4.005-.432-1.437-1.215-1.785-3.165-.778-4.357s2.989-1.173,4.426.042,1.785,3.165.778,4.357Z" fill="none" stroke="#231f20" stroke-miterlimit="10" stroke-width=".5"/><line x1="42.513" y1="114.677" x2="34.806" y2="118.845" fill="none" stroke="#231f20" stroke-miterlimit="10" stroke-width=".5"/><line x1="35.45" y1="110.855" x2="30.153" y2="113.776" fill="none" stroke="#231f20" stroke-miterlimit="10" stroke-width=".5"/><path d="M40.285,179.427l4.446.652,3.379.474,5.512-3.912s3.987,7.297-2.369,10.92c0,0-2.529.889-4.101-.957" fill="none" stroke="#231f20" stroke-miterlimit="10" stroke-width=".5"/><ellipse cx="42.648" cy="185.05" rx="2.635" ry="3.307" transform="translate(-136.601 122.343) rotate(-57.74)" fill="none" stroke="#231f20" stroke-miterlimit="10" stroke-width=".5"/><line x1="45.305" y1="187.356" x2="52.004" y2="182.434" fill="none" stroke="#231f20" stroke-miterlimit="10" stroke-width=".5"/><line x1="40.066" y1="182.922" x2="44.417" y2="180.042" fill="none" stroke="#231f20" stroke-miterlimit="10" stroke-width=".5"/><line x1="51.938" y1="187.396" x2="81.612" y2="165.894" fill="none" stroke="#231f20" stroke-miterlimit="10" stroke-width=".5"/><polyline points="78.615 86.195 78.801 86.168 84.082 85.417 84.523 85.118 84.902 84.754 85.159 84.279 85.286 83.63 85.429 80.356 86.477 78.596 86.657 74.502 86.521 72.464 86.031 70.913 85.244 69.771 84.403 69.217 83.468 69.089 81.773 68.864 81.274 68.912 79.545 69.802 78.414 71.406 77.691 73.548 77.5 75.109 77.314 79.591 78.271 80.819 78.133 84.138 77.687 84.442 77.211 84.952 76.932 85.8 76.921 85.95 76.72 90.79 76.714 90.921" fill="none" stroke="#231f20" stroke-miterlimit="10" stroke-width=".5"/><path d="M132.13,75.653l-1.555.952c-1.771,1.869-1.929,5.517-1.929,5.517l-.259,4.63.825,1.247-.193,3.428s.244,1.785,1.096,2.215l-.28,4.953-.011.187" fill="none" stroke="#231f20" stroke-miterlimit="10" stroke-width=".5"/><polyline points="78.406 91.171 78.428 90.656 78.615 86.195 79.06 85.891 79.538 85.381 79.819 84.532 79.83 84.381 79.97 81.058 79.017 79.83 79.206 75.343 79.265 74.599 79.655 72.792 80.351 71.204 81.572 69.744 82.971 69.137 83.468 69.089" fill="none" stroke="#231f20" stroke-miterlimit="10" stroke-width=".5"/><path d="M76.72,90.79l-.433.067-.668.104-.397.182-.386.25-.244.289-.172.403-.081.447-.345,8.183.318,2.486,1.091,2.243,1.706,1.655,2.286.927,47.589,7.589h.242s1.368.005,1.368.005l5.295-1.363s3.599-1.14,4.108-4.845l.566-9.537c.005-2.149-2.081-1.865-2.081-1.865l.182-5.708s.056-1.554-.944-1.443l-3.719.5" fill="none" stroke="#231f20" stroke-miterlimit="10" stroke-width=".5"/><polyline points="129.824 98.782 131.64 99.051 136.481 98.012" fill="none" stroke="#231f20" stroke-miterlimit="10" stroke-width=".5"/><path d="M78.257,93.683s-.317,3.589-.317,6.439,2.217,2.533,2.217,2.533l46.016,6.535c.736-.21.836-1.865.836-1.865l.409-6.967s.159-1.24,1.284-1.533l.596-.122" fill="none" stroke="#231f20" stroke-miterlimit="10" stroke-width=".5"/><polyline points="130.211 87.008 131.032 88.256 130.837 91.687 131.277 92.132 131.644 92.624 131.868 93.194 131.934 93.905 131.677 98.402 131.64 99.051" fill="none" stroke="#231f20" stroke-miterlimit="10" stroke-width=".5"/><polyline points="126.073 107.17 86.938 101.156 86.553 101.038 86.058 100.561 85.742 99.914 85.656 99.186 85.955 92.001 85.914 91.562 85.782 91.213 85.489 90.873 85.212 90.594 84.606 90.351 84.114 90.282 83.87 90.285 78.406 91.171 76.714 90.921" fill="none" stroke="#231f20" stroke-miterlimit="10" stroke-width=".5"/><polyline points="91.081 155.621 85.979 157.37 84.359 157.059" fill="none" stroke="#231f20" stroke-miterlimit="10" stroke-width=".5"/><path d="M86.187,152.718l.716-.236h.004s4.386-1.45,4.386-1.45c0,0,1.102-.489,1.157-1.623l.143-3.063.983-1.82.18-3.83c.12-3.64-1.92-4.644-1.92-4.644l-2.667-.094c-1.727.105-3.141,2.954-3.141,2.954l-.681,2.114-.182,1.481-.186,4.188.889.969-.139,3.102s-.87.596-1.163,1.642l-.193,4.346-.002.035v.004l-.012.262" fill="none" stroke="#231f20" stroke-miterlimit="10" stroke-width=".5"/><polyline points="141.399 165.205 136.869 167.158 135.135 166.825" fill="none" stroke="#231f20" stroke-miterlimit="10" stroke-width=".5"/><line x1="140.657" y1="158.381" x2="136.111" y2="160.234" fill="none" stroke="#231f20" stroke-miterlimit="10" stroke-width=".5"/><polyline points="140.657 158.381 141.071 158.81 141.497 159.442 141.691 160.329 141.687 160.473 141.409 165.03 141.399 165.205" fill="none" stroke="#231f20" stroke-miterlimit="10" stroke-width=".5"/><path d="M135.135,166.825l.284-4.795c-.685-.556-1.043-2.121-1.043-2.121l.188-3.197-.769-.973.253-4.317s.705-6.68,4.227-7.259" fill="none" stroke="#231f20" stroke-miterlimit="10" stroke-width=".5"/><path d="M85.979,157.37l.039-.877.17-3.775.427-.264.459-.456.27-.783.011-.141.141-3.105-.886-.969.246-4.892s.991-5.052,3.577-5.989" fill="none" stroke="#231f20" stroke-miterlimit="10" stroke-width=".5"/><path d="M134.499,166.702c-1.557.631-1.65,1.641-1.65,1.641l-.429,7.071-.552,1.162-44.587-8.244s-1.969-.514-1.884-2.826.257-5.737.257-5.737" fill="none" stroke="#231f20" stroke-miterlimit="10" stroke-width=".5"/><polyline points="135.793 151.74 135.537 156.061 136.301 157.034 136.111 160.234 136.53 160.67 136.879 161.147 137.093 161.69 137.156 162.358 136.935 166.055 136.869 167.158" fill="none" stroke="#231f20" stroke-miterlimit="10" stroke-width=".5"/><path d="M141.409,165.03l.654.124s1.179.126,1.314,1.729l-.551,8.909s.164,2.675-2.705,4.103l-4.943,2.36c-1.624.664-2.766.32-2.766.32l-45.503-9.24c-5.235-1.351-5.154-7.039-5.154-7.039l.35-7.616s-.027-1.232,1.693-1.728l.574-.193" fill="none" stroke="#231f20" stroke-miterlimit="10" stroke-width=".5"/><path d="M91.089,155.451l.688.13s1.382-.246,1.28,1.519l-.295,6.76s-.278,1.755,1.288,1.969l38.094,7.485" fill="none" stroke="#231f20" stroke-miterlimit="10" stroke-width=".5"/><path d="M185.995,55.385l2.15.248s1.634.441,1.692,1.917l.524,16.057-3.493.683-8.996-1.21" fill="none" stroke="#231f20" stroke-miterlimit="10" stroke-width=".5"/><path d="M173.666,53.967c.739-.863,2.436-.634,2.436-.634l8.1.931s2.799,1.243,2.481,5.776" fill="none" stroke="#231f20" stroke-miterlimit="10" stroke-width=".5"/><path d="M136.565,71.993c-4.466,1.253-5.618,8.574-5.618,8.574l.404,5.383s.985,2.483,3.358,3.317" fill="none" stroke="#231f20" stroke-miterlimit="10" stroke-width=".5"/><polyline points="135.879 89.476 134.709 89.267 134.647 89.254" fill="none" stroke="#231f20" stroke-miterlimit="10" stroke-width=".5"/><line x1="190.391" y1="112.809" x2="190.012" y2="102.29" fill="none" stroke="#231f20" stroke-miterlimit="10" stroke-width=".5"/><line x1="152.089" y1="113.302" x2="138.326" y2="111.287" fill="none" stroke="#231f20" stroke-miterlimit="10" stroke-width=".5"/><line x1="180.032" y1="116.872" x2="165.373" y2="115.103" fill="none" stroke="#231f20" stroke-miterlimit="10" stroke-width=".5"/><path d="M79.961,65.371s-1.744-18.721-2.067-21.261c-.345-2.707,2.733-3.243,2.733-3.243l56.273,6.407s3.791.456,4.311,2.779" fill="none" stroke="#231f20" stroke-miterlimit="10" stroke-width=".5"/><line x1="175.478" y1="105.959" x2="160.412" y2="117.825" fill="none" stroke="#231f20" stroke-miterlimit="10" stroke-width=".5"/><path d="M175.942,104.017l.098.015.068.01,8.413,1.237s1.165.306,1.959-.32l6.747-5.601" fill="none" stroke="#231f20" stroke-miterlimit="10" stroke-width=".5"/><path d="M192.04,74.187l-7.333,5.546-9.877-1.398-.108-.176-.541-.862-.781-.63-.961-.321-1.624-.211-.22.047-.831.101-.212.077-.009.005-.404.203-15.678,10.553c-1.804,1.418-1.542,3.676-1.542,3.676l1.515,24.317s.149,2.589,2.488,3.297c0,0,2.814.714,4.477-.58l15.078-11.873.321-.534.042-.098.199-.954.011-.092-.011-.25-1.101-24.865-.02-.097-.041-.19-.12-.554" fill="none" stroke="#231f20" stroke-miterlimit="10" stroke-width=".5"/><polyline points="151.906 99.245 144.721 91.167 144.466 90.812 144.282 90.395 144.2 89.961 142.737 67.828 142.759 67.417 142.886 67.025 143.112 66.704 149.52 60.12 149.816 59.896 150.191 59.767 150.601 59.757 156.824 60.51 163.098 61.268 164.516 61.717 164.839 61.819 166.226 62.825 167.31 64.205 167.445 64.513 167.904 65.561 168.154 66.976" fill="none" stroke="#231f20" stroke-miterlimit="10" stroke-width=".5"/><polyline points="168.154 66.976 168.177 67.469 168.299 70.007 168.336 70.773 168.49 73.968 168.627 76.823" fill="none" stroke="#231f20" stroke-miterlimit="10" stroke-width=".5"/><polyline points="176.406 105.776 176.481 107.505 176.477 107.717 176.353 108.208 176.078 108.604" fill="none" stroke="#231f20" stroke-miterlimit="10" stroke-width=".5"/><polyline points="151.828 105.474 140.573 103.779 139.798 103.458 139.445 103.146 139.163 102.762 138.971 102.33 138.884 101.883 135.857 58.943 135.852 58.872 135.606 55.378 135.479 53.574 135.476 53.351 135.583 52.829 135.84 52.4 136.349 52.052 136.981 51.983 138.423 52.151 141.77 52.543 172.543 56.139 173.378 56.462 173.755 56.793 174.051 57.204 174.249 57.672 174.33 58.16 175.033 74.266 175.173 77.492" fill="none" stroke="#231f20" stroke-miterlimit="10" stroke-width=".5"/><polyline points="179.029 105.472 178.989 105.908 178.836 106.296 178.582 106.605 178.286 106.813 176.514 108.256 176.467 108.293 176.298 108.429 176.078 108.604 175.551 108.911 174.908 108.95 173.575 108.749" fill="none" stroke="#231f20" stroke-miterlimit="10" stroke-width=".5"/><polyline points="177.26 63.05 177.334 64.805 177.336 64.866 177.633 71.993 177.651 72.416 177.811 76.266 177.856 76.668 177.832 76.761 177.853 77.266 177.86 77.434 177.863 77.497 177.881 77.57 177.876 77.81" fill="none" stroke="#231f20" stroke-miterlimit="10" stroke-width=".5"/><line x1="177.23" y1="62.48" x2="177.237" y2="62.476" fill="none" stroke="#231f20" stroke-miterlimit="10" stroke-width=".5"/><polyline points="177.257 62.972 177.26 63.05 177.253 63.054" fill="none" stroke="#231f20" stroke-miterlimit="10" stroke-width=".5"/><polyline points="177.25 62.977 177.257 62.972 177.237 62.476 176.988 56.501 176.903 56.002 176.696 55.525 176.317 55.041 175.831 54.689 175.217 54.498 139.588 50.425 136.349 52.052" fill="none" stroke="#231f20" stroke-miterlimit="10" stroke-width=".5"/><path d="M170.652,84.168s-4.127,13.651,1.542,20.817" fill="none" stroke="#231f20" stroke-miterlimit="10" stroke-width=".5"/><path d="M166.571,87.161s-4.49,15.238,1.27,20.726" fill="none" stroke="#231f20" stroke-miterlimit="10" stroke-width=".5"/><path d="M162.307,90.381s-4.762,10.045,1.451,21.225" fill="none" stroke="#231f20" stroke-miterlimit="10" stroke-width=".5"/><line x1="45.868" y1="110.254" x2="73.543" y2="95.381" fill="none" stroke="#231f20" stroke-miterlimit="10" stroke-width=".5"/><line x1="43.427" y1="119.307" x2="73.414" y2="102.494" fill="none" stroke="#231f20" stroke-miterlimit="10" stroke-width=".5"/><line x1="54.763" y1="179.324" x2="81.509" y2="159.7" fill="none" stroke="#231f20" stroke-miterlimit="10" stroke-width=".5"/><line x1="83.981" y1="85.644" x2="83.834" y2="90.179" fill="none" stroke="#231f20" stroke-miterlimit="10" stroke-width=".5"/><path d="M173.035,181.903l19.911,3.851s1.35.205,1.317-1.032l-.463-14.191" fill="none" stroke="#231f20" stroke-miterlimit="10" stroke-width=".5"/><polyline points="88.147 133.609 88.569 133.214 88.816 133.046 90.222 132.091 90.268 132.044 90.259 131.97 90.21 131.94 90.136 131.919" fill="none" stroke="#231f20" stroke-miterlimit="10" stroke-width=".5"/><path d="M141.735,141.02c-4.397,2.183-5.287,9.246-5.287,9.246l.36,5.147s1.406,4.297,5.379,1.722l.829-.627" fill="none" stroke="#231f20" stroke-miterlimit="10" stroke-width=".5"/><polyline points="139.264 131.679 138.941 131.152 137.707 129.792 136.166 128.092 135.69 127.567 128.274 119.387 127.883 119.071 127.441 118.911 117.226 117.258 116.991 117.257 116.893 117.257 116.6 117.365 116.361 117.588 116.221 117.9 116.23 118.011 116.217 118.123 115.336 121.069 115.195 121.822 115.24 122.175 115.402 122.525 115.636 122.823 115.945 123.071 116.301 123.225 118.54 124.064 120.666 124.86 124.854 127.361 128.911 130.858 130.305 132.556 132.343 135.038 132.658 135.382 133.044 135.616 133.492 135.712 133.9 135.624 134.264 135.286 134.549 135.114 134.593 135.093 134.684 135.049 134.819 135.039 137.625 133.511 137.737 133.475 137.84 133.45 138.674 132.967 139.231 132.608 139.349 132.248 139.264 131.679" fill="none" stroke="#231f20" stroke-miterlimit="10" stroke-width=".5"/><polyline points="87.364 110.394 87.305 110.457 87.273 110.511 87.185 110.54 86.976 110.609 86.13 111.551 85.947 112.923 86.891 121.535 86.956 122.437 87.132 124.349 87.265 125.564 88.147 133.609 87.254 134.446 86.116 136.207 85.213 138.494 84.723 140.975" fill="none" stroke="#231f20" stroke-miterlimit="10" stroke-width=".5"/><path d="M129.889,116.465l12.888,2.06s2.643.417,3.718,2.504" fill="none" stroke="#231f20" stroke-miterlimit="10" stroke-width=".5"/><line x1="144.202" y1="176.104" x2="155.842" y2="178.445" fill="none" stroke="#231f20" stroke-miterlimit="10" stroke-width=".5"/><line x1="157.461" y1="149.545" x2="157.476" y2="149.532" fill="none" stroke="#231f20" stroke-miterlimit="10" stroke-width=".5"/><line x1="156.749" y1="149.263" x2="156.747" y2="149.266" fill="none" stroke="#231f20" stroke-miterlimit="10" stroke-width=".5"/><polyline points="164.54 148.6 163.541 149.498 162.63 150.318 160.033 150.004 157.461 149.545 156.86 149.438 156.749 149.269 156.749 149.263 156.572 146.306 161.706 141.846 163.771 140.052 164.326 139.57 164.331 139.565 164.407 139.499 164.481 139.435" fill="none" stroke="#231f20" stroke-miterlimit="10" stroke-width=".5"/><path d="M163.683,133.173l-8.41-1.351c-.764-.136-1.031.272-1.031.272l-6.13,5.601c-.456.597-.362.993-.362.993l1.322,20.013s-.041.713.494,1.113l5.87,6.496" fill="none" stroke="#231f20" stroke-miterlimit="10" stroke-width=".5"/><polyline points="156.815 148.695 159.99 149.259 162.464 147.345" fill="none" stroke="#231f20" stroke-miterlimit="10" stroke-width=".5"/><line x1="142.314" y1="124.14" x2="163.48" y2="127.601" fill="none" stroke="#231f20" stroke-miterlimit="10" stroke-width=".5"/><path d="M165.685,125.389l-10.278-1.664-10.352-1.675c-.553-.102-.792.107-.792.107l-2.608,2.017s-.77.478-.778,1.322l.293,4.156,2.787,39.542s.26,1.483,1.607,1.795l10.248,1.986" fill="none" stroke="#231f20" stroke-miterlimit="10" stroke-width=".5"/><line x1="369.887" y1="152.243" x2="526.76" y2="176.602" fill="none" stroke="#231f20" stroke-miterlimit="10" stroke-width=".5"/><polyline points="526.76 169.62 358.408 142.914 362.076 134.176" fill="none" stroke="#231f20" stroke-miterlimit="10" stroke-width=".5"/><line x1="374.19" y1="142.82" x2="526.76" y2="166.511" fill="none" stroke="#231f20" stroke-miterlimit="10" stroke-width=".5"/><line x1="132.469" y1="115.377" x2="178.454" y2="122.163" fill="none" stroke="#231f20" stroke-miterlimit="10" stroke-width=".5"/><path d="M178.759,173.455l.094.018.091.017,7.979,1.525s1.172.351,1.857-.396l5.605-6.315-.501-17.062" fill="none" stroke="#231f20" stroke-miterlimit="10" stroke-width=".5"/><path d="M167.137,153.4l-9.451,8.73c-1.576,1.594-1.455,3.571-1.455,3.571l1.356,21.739s-.016,2.121,2.355,3.083c0,0,2.211.962,4.252-.579l1.023-1.059,3.441-3.56,3.748-3.877,5.913-6.118.347-.551.19-.883.01-.113-.014-.308-.757-17.082" fill="none" stroke="#231f20" stroke-miterlimit="10" stroke-width=".5"/><path d="M165.931,164.688s-4.262,16.316,1.826,18.751" fill="none" stroke="#231f20" stroke-miterlimit="10" stroke-width=".5"/><path d="M170.253,160.67s-4.931,17.534,1.461,18.812" fill="none" stroke="#231f20" stroke-miterlimit="10" stroke-width=".5"/><path d="M174.272,156.895s-4.627,18.386,1.218,18.508" fill="none" stroke="#231f20" stroke-miterlimit="10" stroke-width=".5"/><polyline points="68.929 43.062 67.96 35.032 525.435 83.731" fill="none" stroke="#231f20" stroke-miterlimit="10" stroke-width=".5"/><polyline points="68.053 34.745 251.345 -38.59 527.075 -21.357" fill="none" stroke="#231f20" stroke-miterlimit="10" stroke-width=".5"/><polyline points="526.815 89.811 141.096 45.557 145.372 43.297" fill="none" stroke="#231f20" stroke-miterlimit="10" stroke-width=".5"/><path d="M173.027,78.693l-14.244,9.639s-1.816,1.033-1.714,4.712c.107,3.855,1.714,21.848,1.714,21.848" fill="none" stroke="#231f20" stroke-miterlimit="10" stroke-width=".5"/><path d="M171.9,155.162l-8.442,8.442s-1.938,1.208-1.857,4.735c.087,3.81,1.31,19.173,1.31,19.173" fill="none" stroke="#231f20" stroke-miterlimit="10" stroke-width=".5"/><path d="M197.457,146.607l.598,19.238s.142.471.646.724l16.479,3.278s.652.126.632-.496l-.457-19.58" fill="none" stroke="#231f20" stroke-miterlimit="10" stroke-width=".5"/><path d="M218.05,162.634l1.489-.519.849-.6,2.514-3.922c.529-.921.519-2.127.519-2.127l.027-4.827" fill="none" stroke="#231f20" stroke-miterlimit="10" stroke-width=".5"/><polyline points="225.131 151.1 225.182 156.879 222.597 161.114 218.885 166.818" fill="none" stroke="#231f20" stroke-miterlimit="10" stroke-width=".5"/><path d="M217.386,150.047l.255,19.212c-.197,2.477-2.239,2.208-2.239,2.208l-17.246-3.429c-1.536-.439-1.562-1.763-1.562-1.763l-.006-.032-.55-18.059" fill="none" stroke="#231f20" stroke-miterlimit="10" stroke-width=".5"/><path d="M215.851,196.44l-.446-19.094c.022-.583-.647-.727-.647-.727l-16.345-2.724c-.397-.027-.463.365-.463.365l.583,18.761s.139.459.63.706l16.071,3.197s.636.122.616-.483Z" fill="none" stroke="#231f20" stroke-miterlimit="10" stroke-width=".5"/><polyline points="216.894 175.381 219.14 173.044 223.274 170.188" fill="none" stroke="#231f20" stroke-miterlimit="10" stroke-width=".5"/><path d="M218.034,189.89l1.453-.506.828-.585,2.451-3.825c.516-.898.507-2.074.507-2.074l-.119-12.365" fill="none" stroke="#231f20" stroke-miterlimit="10" stroke-width=".5"/><path d="M220.538,166.434l3.537.579s.767.14.769.896l.144,16.367-2.521,4.13-3.62,5.563" fill="none" stroke="#231f20" stroke-miterlimit="10" stroke-width=".5"/><path d="M216.051,174.745s1.294.54,1.292,1.661l.292,19.944c-.192,2.416-2.183,2.154-2.183,2.154l-16.819-3.344c-1.498-.429-1.523-1.72-1.523-1.72l-.006-.032-.588-19.312s.384-2.265,2.248-1.954l1.991.234,9.381-.922,1.209-.687" fill="none" stroke="#231f20" stroke-miterlimit="10" stroke-width=".5"/><path d="M21.613,70.59l-1.898.518-12.536,2.869s-2.33.431-1.984,2.718c.345,2.286,6.352,37.261,6.352,37.261" fill="none" stroke="#231f20" stroke-miterlimit="10" stroke-width=".5"/><line x1="19.47" y1="76.302" x2="24.119" y2="106.163" fill="none" stroke="#231f20" stroke-miterlimit="10" stroke-width=".5"/><line x1="17.047" y1="80.362" x2="20.649" y2="103.74" fill="none" stroke="#231f20" stroke-miterlimit="10" stroke-width=".5"/><line x1="14.558" y1="84.356" x2="17.243" y2="101.383" fill="none" stroke="#231f20" stroke-miterlimit="10" stroke-width=".5"/><line x1="12.397" y1="88.417" x2="13.969" y2="98.829" fill="none" stroke="#231f20" stroke-miterlimit="10" stroke-width=".5"/><line x1="10.105" y1="91.887" x2="10.826" y2="96.34" fill="none" stroke="#231f20" stroke-miterlimit="10" stroke-width=".5"/><path d="M44.498,63.242l-12.416,5.681s-3.327.162-2.921,3.408,5.194,36.437,5.194,36.437" fill="none" stroke="#231f20" stroke-miterlimit="10" stroke-width=".5"/><path d="M53.307,135.783l-10.474,6.808s-3.666.175-2.968,4.015,5.201,33.256,5.201,33.256" fill="none" stroke="#231f20" stroke-miterlimit="10" stroke-width=".5"/><path d="M81.397,149.487l-3.324-30.321s2.911-2.767,2.738-7.626" fill="none" stroke="#231f20" stroke-miterlimit="10" stroke-width=".5"/><ellipse cx="83.196" cy="74.926" rx="2.96" ry="1.666" transform="translate(1.104 151.059) rotate(-84.849)" fill="none" stroke="#231f20" stroke-miterlimit="10" stroke-width=".5"/><path d="M85.362,85.535c.173.865,2.017,1.96,2.017,1.96l9.914-5.418c-3.286-8.473-1.326-13.604-1.326-13.604l-7.148-5.361-.98-2.479-3.631-2.594-2.017,1.556s-.115,3.055.288,4.438" fill="none" stroke="#231f20" stroke-miterlimit="10" stroke-width=".5"/><path d="M84.959,69.107l-.692-4.266s-3.977-.634-7.032,6.744" fill="none" stroke="#231f20" stroke-miterlimit="10" stroke-width=".5"/><path d="M90.397,61.424s5.225-8.984,15.918-9.18c0,0,.488-3.271,1.27-4.687,0,0-.342-1.025-1.758-1.221s-10.547-1.074-10.547-1.074l-9.082,10.547s4.541,2.539,4.199,5.615Z" fill="none" stroke="#231f20" stroke-miterlimit="10" stroke-width=".5"/><path d="M109.419,52.332s-.62-3.123,1.082-5.28l11.292,1.021,12.541,13.903s-.511,2.1-6.299,3.688c0,0-6.351-11.272-18.616-13.333Z" fill="none" stroke="#231f20" stroke-miterlimit="10" stroke-width=".5"/><path d="M97.024,66.141l-4.058-2.718s.13-3.202,5.398-6.202c5.295-3.015,7.916-2.225,8.002-2.029l.881,5.513s-5.819-.459-10.222,5.437Z" fill="none" stroke="#231f20" stroke-miterlimit="10" stroke-width=".5"/><path d="M110.895,55.816s10.403,2.928,14.452,11.524c0,0-1.931,1.433-4.049,1.744,0,0-2.928-5.793-11.15-8.347,0,0-2.305-5.668.747-4.921Z" fill="none" stroke="#231f20" stroke-miterlimit="10" stroke-width=".5"/><path d="M128.449,88.772l-4.083-2.84s2.189-8.875-1.361-13.609c0,0,2.663-2.367,7.396-4.378,4.733-2.012,5.858-3.373,5.858-3.373" fill="none" stroke="#231f20" stroke-miterlimit="10" stroke-width=".5"/><path d="M95.446,86.641s1.359-1.679,3.478-1.799c0,0,4.558,6.477,11.394,8.476l.36,4.558s-8.096-.72-15.233-11.235Z" fill="none" stroke="#231f20" stroke-miterlimit="10" stroke-width=".5"/><path d="M112.789,93.459s6.729.168,9.981-5.159l4.318,3.14s-2.579,7.514-13.682,6.841c0,0-1.29-2.019-.617-4.823Z" fill="none" stroke="#231f20" stroke-miterlimit="10" stroke-width=".5"/><path d="M101.644,102.87s-11.03-10.489-11.818-13.296l3.053-1.822s9.061,11.178,17.087,12.656c0,0,2.511,3.053,2.511,4.333" fill="none" stroke="#231f20" stroke-miterlimit="10" stroke-width=".5"/><path d="M115.876,105.283s-.985-3.398-2.511-3.792c0,0,10.686-.246,15.955-7.83" fill="none" stroke="#231f20" stroke-miterlimit="10" stroke-width=".5"/><polyline points="168.299 70.007 163.478 69.427 152.346 76.466 152.476 78.676 155.143 78.987 158.037 77.464 168.336 70.773" fill="none" stroke="#231f20" stroke-miterlimit="10" stroke-width=".5"/><polyline points="168.098 74.415 158.572 80.823 155.351 80.2 155.143 78.987" fill="none" stroke="#231f20" stroke-miterlimit="10" stroke-width=".5"/><polyline points="152.476 78.676 152.658 79.792 155.351 80.2" fill="none" stroke="#231f20" stroke-miterlimit="10" stroke-width=".5"/><polyline points="164.238 62.013 160.707 64.006 160.957 66.125 163.615 66.665 167.445 64.513" fill="none" stroke="#231f20" stroke-miterlimit="10" stroke-width=".5"/><path d="M93.59,123.637l8.548-8.634,10.534,1.338,1.381,1.036s-1.425,2.677-1.036,4.965c0,0-9.843-1.77-15.24,7.037,0,0-.475-2.245-1.295-3.065l-2.893-2.677Z" fill="none" stroke="#231f20" stroke-miterlimit="10" stroke-width=".5"/><path d="M99.85,131.149s2.202-6.821,12.779-6.389c0,0,1.166,2.072.604,4.878,0,0-4.749-.734-9.411,4.619l-3.972-3.108Z" fill="none" stroke="#231f20" stroke-miterlimit="10" stroke-width=".5"/><path d="M115.651,125.148s9.584,2.18,15.153,11.484l-3.799,1.489s-4.663-6.692-10.836-7.987l-.518-4.986Z" fill="none" stroke="#231f20" stroke-miterlimit="10" stroke-width=".5"/><path d="M91.88,135.755l-.131-3.984-2.149-.839-.131-3.329,1.704-1.52,3.748,2.359,1.101,2.647,6.422,4.954s-1.963,6.781,1.606,12.58l-8.922,3.836s-2.141-.875-2.575-2.444" fill="none" stroke="#231f20" stroke-miterlimit="10" stroke-width=".5"/><path d="M96.584,154.739s.572-1.611,3.43-1.299c0,0,4.833,9.095,16.319,12.525,0,0,.728,2.443,2.131,2.962l-10.654-1.663-11.226-12.525Z" fill="none" stroke="#231f20" stroke-miterlimit="10" stroke-width=".5"/><path d="M134.107,160.82c-5.613,7.016-15.02,5.561-15.02,5.561,0,0,1.923,2.495,1.923,3.326,0,0,5.613,2.443,11.33,2.079" fill="none" stroke="#231f20" stroke-miterlimit="10" stroke-width=".5"/><path d="M141.426,134.16s-5.727,3.111-6.505,3.465-6.151,2.651-6.328,3.182,3.252,6.081,1.167,12.904l4.454,3.111" fill="none" stroke="#231f20" stroke-miterlimit="10" stroke-width=".5"/><line x1="91.081" y1="155.621" x2="91.114" y2="151.315" fill="none" stroke="#231f20" stroke-miterlimit="10" stroke-width=".5"/><line x1="39.651" y1="143.733" x2="34.479" y2="142.684" fill="none" stroke="#231f20" stroke-miterlimit="10" stroke-width=".5"/><line x1="28.468" y1="69.856" x2="22.946" y2="68.808" fill="none" stroke="#231f20" stroke-miterlimit="10" stroke-width=".5"/><ellipse cx="135.088" cy="81.821" rx="1.577" ry="4.08" fill="none" stroke="#231f20" stroke-miterlimit="10" stroke-width=".5"/><ellipse cx="140.606" cy="150.892" rx="3.477" ry="1.852" transform="translate(-24.095 275.036) rotate(-84.028)" fill="none" stroke="#231f20" stroke-miterlimit="10" stroke-width=".5"/><path d="M118.476,159.53s6.112.273,9.713-4.011l4.393,2.974s-3.779,6.494-13.369,5.511c0,0-.969-2.783-.737-4.475Z" fill="none" stroke="#231f20" stroke-miterlimit="10" stroke-width=".5"/><path d="M102.112,152.523s6.512,9.768,14.236,10.942c0,0-.341-2.65-.189-4.203,0,0-4.619-1.817-10.866-8.027l-3.18,1.287Z" fill="none" stroke="#231f20" stroke-miterlimit="10" stroke-width=".5"/><ellipse cx="90.597" cy="141.725" rx="2.755" ry="1.313" transform="translate(-65.395 204.656) rotate(-79.382)" fill="none" stroke="#231f20" stroke-miterlimit="10" stroke-width=".5"/><line x1="187.568" y1="158.138" x2="187.786" y2="173.228" fill="none" stroke="#231f20" stroke-miterlimit="10" stroke-width=".5"/><line x1="185.22" y1="103.026" x2="184.317" y2="81.605" fill="none" stroke="#231f20" stroke-miterlimit="10" stroke-width=".5"/><path d="M195.04,70.666l18.413,2.276.27.088.231.185.156.253.058.283.368,23.08c-.068.702-.68.602-.68.602l-18.103-2.513c-.712-.078-.709-1.233-.709-1.233l-.669-22.392s.041-.674.665-.63Z" fill="none" stroke="#231f20" stroke-miterlimit="10" stroke-width=".5"/><path d="M216.342,91.046l.067,4.602s-.899,1.641-2.042,1.927" fill="none" stroke="#231f20" stroke-miterlimit="10" stroke-width=".5"/><path d="M215.813,72.394l.007-.006,1.61-1.265.44-.254,4.158-1.535.202.129.173.992.135,13.371s.151,1.541-.548,2.162l-2.658,3.413-2.389,1.037" fill="none" stroke="#231f20" stroke-miterlimit="10" stroke-width=".5"/><path d="M216.342,91.046l-.261-17.866-1.017-1.647,2.612-2.731,6.482-2.095-.756-.615-6.107-.724-6.746,2.319-2.246,1.105-10.295.756-2.195-.171s-1.162.412-1.346,1.291" fill="none" stroke="#231f20" stroke-miterlimit="10" stroke-width=".5"/><path d="M224.158,66.707l.358,19.412s-6.071,7.991-7.628,9.34" fill="none" stroke="#231f20" stroke-miterlimit="10" stroke-width=".5"/><path d="M165.667,127.805l20.212,2.498.297.097.253.203.172.278.064.311.404,24.775c-.075.77-.746.661-.746.661l-19.463-3.636c-.782-.086-.778-1.353-.778-1.353l-1.144-23.142s.045-.74.73-.691Z" fill="none" stroke="#231f20" stroke-miterlimit="10" stroke-width=".5"/><path d="M189.05,150.176l.074,4.49s-.987,1.802-2.242,2.115" fill="none" stroke="#231f20" stroke-miterlimit="10" stroke-width=".5"/><path d="M188.47,129.701l.008-.007,1.767-1.388.483-.279,6.344-3.318.222.142.19,1.089.149,12.922s.166,1.692-.602,2.373l-2.917,3.747-4.63,4.154" fill="none" stroke="#231f20" stroke-miterlimit="10" stroke-width=".5"/><path d="M189.05,150.176l-.287-19.612-1.116-1.808,2.867-2.998,8.101-4.658-.83-.675-6.703-.795-7.558,4.115-3.299,2.002-11.301.83-2.41-.188s-1.275.452-1.477,1.417" fill="none" stroke="#231f20" stroke-miterlimit="10" stroke-width=".5"/><path d="M199.011,121.163l.358,19.412s-3.375,6.405-10.011,13.704" fill="none" stroke="#231f20" stroke-miterlimit="10" stroke-width=".5"/><line x1="365.666" y1="219.602" x2="526.961" y2="251.319" fill="none" stroke="#231f20" stroke-miterlimit="10" stroke-width=".5"/><line x1="221.922" y1="191.336" x2="347.357" y2="216.002" fill="none" stroke="#231f20" stroke-miterlimit="10" stroke-width=".5"/><line x1="365.666" y1="216.706" x2="526.961" y2="248.424" fill="none" stroke="#231f20" stroke-miterlimit="10" stroke-width=".5"/><line x1="221.922" y1="188.44" x2="347.357" y2="213.106" fill="none" stroke="#231f20" stroke-miterlimit="10" stroke-width=".5"/><path d="M360.945,79.829s.903.733,2.594.798,9.753,1.105,9.753,1.105c0,0,8.258,1.17,7.738,8.518-.52,7.347-4.702,52.12-4.702,52.12" fill="none" stroke="#231f20" stroke-miterlimit="10" stroke-width=".5"/><polyline points="359.353 97.68 361.107 76.336 214.727 59.61 214.772 65.76" fill="none" stroke="#231f20" stroke-miterlimit="10" stroke-width=".5"/><polygon points="232.016 70.847 234.646 68.836 338.309 81.368 336.143 83.844 232.016 70.847" fill="none" stroke="#231f20" stroke-miterlimit="10" stroke-width=".5"/><polyline points="232.016 70.847 231.861 87.557 335.313 100.112 336.143 83.844" fill="none" stroke="#231f20" stroke-miterlimit="10" stroke-width=".5"/><polyline points="338.309 81.368 337.69 97.348 335.313 100.112" fill="none" stroke="#231f20" stroke-miterlimit="10" stroke-width=".5"/><line x1="256.364" y1="90.065" x2="256.364" y2="74.044" fill="none" stroke="#231f20" stroke-miterlimit="10" stroke-width=".5"/><line x1="282.619" y1="93.58" x2="282.826" y2="77.558" fill="none" stroke="#231f20" stroke-miterlimit="10" stroke-width=".5"/><line x1="308.755" y1="96.799" x2="308.961" y2="80.778" fill="none" stroke="#231f20" stroke-miterlimit="10" stroke-width=".5"/><polyline points="232.967 152.637 233.122 159.698 331.239 176.038 331.34 169.513" fill="none" stroke="#231f20" stroke-miterlimit="10" stroke-width=".5"/><polyline points="333.412 169.691 333.396 173.179 331.239 176.038" fill="none" stroke="#231f20" stroke-miterlimit="10" stroke-width=".5"/><line x1="256.347" y1="163.075" x2="256.158" y2="156.791" fill="none" stroke="#231f20" stroke-miterlimit="10" stroke-width=".5"/><line x1="281.258" y1="167.569" x2="281.136" y2="161.031" fill="none" stroke="#231f20" stroke-miterlimit="10" stroke-width=".5"/><line x1="306.047" y1="171.748" x2="305.925" y2="165.184" fill="none" stroke="#231f20" stroke-miterlimit="10" stroke-width=".5"/><line x1="221.89" y1="90.076" x2="357.011" y2="107.455" fill="none" stroke="#231f20" stroke-miterlimit="10" stroke-width=".5"/><ellipse cx="366.745" cy="105.964" rx="8.956" ry="9.379" transform="translate(235.724 464.521) rotate(-86.043)" fill="none" stroke="#231f20" stroke-miterlimit="10" stroke-width=".5"/><ellipse cx="366.636" cy="106.128" rx="5.327" ry="5.579" transform="translate(235.457 464.565) rotate(-86.043)" fill="none" stroke="#231f20" stroke-miterlimit="10" stroke-width=".5"/><path d="M358.247,101.707l3.063-5.804c1.744-2.802,5.043-4.577,8.691-4.325,5.167.357,9.08,4.647,8.738,9.582l-2.905,7.941" fill="none" stroke="#231f20" stroke-miterlimit="10" stroke-width=".5"/><line x1="366.841" y1="102.987" x2="366.305" y2="109.2" fill="none" stroke="#231f20" stroke-miterlimit="10" stroke-width=".5"/><line x1="362.985" y1="105.451" x2="370.376" y2="106.629" fill="none" stroke="#231f20" stroke-miterlimit="10" stroke-width=".5"/><path d="M363.954,177.631c3.448,1.457,5.888,4.602,5.9,8.094.017,4.597-4.18,8.054-9.373,7.721-5.193-.333-9.417-4.33-9.434-8.927" fill="none" stroke="#231f20" stroke-miterlimit="10" stroke-width=".5"/><path d="M365.946,185.634c.01,2.735-2.486,4.791-5.575,4.593s-5.601-2.576-5.611-5.31,2.486-4.791,5.575-4.593,5.601,2.576,5.611,5.31Z" fill="none" stroke="#231f20" stroke-miterlimit="10" stroke-width=".5"/><path d="M365.276,170.592c3.429,1.597,5.836,5.07,5.822,8.945l-2.388,8.244" fill="none" stroke="#231f20" stroke-miterlimit="10" stroke-width=".5"/><line x1="360.33" y1="182.349" x2="360.245" y2="188.137" fill="none" stroke="#231f20" stroke-miterlimit="10" stroke-width=".5"/><line x1="356.653" y1="184.644" x2="364.129" y2="185.742" fill="none" stroke="#231f20" stroke-miterlimit="10" stroke-width=".5"/><path d="M358.278,172.298c.011,3.084-2.803,5.402-6.287,5.179s-6.316-2.904-6.328-5.988,2.803-5.402,6.287-5.179,6.316,2.904,6.328,5.988Z" fill="none" stroke="#231f20" stroke-miterlimit="10" stroke-width=".5"/><line x1="351.945" y1="168.594" x2="351.85" y2="175.121" fill="none" stroke="#231f20" stroke-miterlimit="10" stroke-width=".5"/><line x1="347.799" y1="171.182" x2="356.229" y2="172.42" fill="none" stroke="#231f20" stroke-miterlimit="10" stroke-width=".5"/><path d="M366.159,214.923c.017,4.234-4.18,7.417-9.373,7.111-5.193-.307-9.417-3.988-9.434-8.221s4.18-7.417,9.373-7.111,9.417,3.988,9.434,8.221Z" fill="none" stroke="#231f20" stroke-miterlimit="10" stroke-width=".5"/><path d="M362.252,214.839c.01,2.518-2.486,4.412-5.575,4.229s-5.601-2.372-5.611-4.89c-.01-2.518,2.486-4.412,5.575-4.229s5.601,2.372,5.611,4.89Z" fill="none" stroke="#231f20" stroke-miterlimit="10" stroke-width=".5"/><path d="M347.98,210.6l2.698-7.167c1.562-2.86,4.746-4.689,8.413-4.46,5.194.324,9.389,4.653,9.37,9.668l-2.388,8.09" fill="none" stroke="#231f20" stroke-miterlimit="10" stroke-width=".5"/><line x1="356.636" y1="211.814" x2="356.551" y2="217.144" fill="none" stroke="#231f20" stroke-miterlimit="10" stroke-width=".5"/><line x1="352.958" y1="213.927" x2="360.435" y2="214.938" fill="none" stroke="#231f20" stroke-miterlimit="10" stroke-width=".5"/><path d="M190.223,113.793l151.874,23.365,1.293,1.596,2.5,1.43c.646.101,1.738,1.102,1.738,1.102l12.833,2.457,2.231.953s6.427,2.356,5.141,11.033" fill="none" stroke="#231f20" stroke-miterlimit="10" stroke-width=".5"/><path d="M368.354,161.47c2.901,1.302,4.983,3.584,4.544,7.768l-1.325,11.414s-.147,1.988-2.062,3.24" fill="none" stroke="#231f20" stroke-miterlimit="10" stroke-width=".5"/><polyline points="223.577 162.723 228.477 161.404 348.717 183.077" fill="none" stroke="#231f20" stroke-miterlimit="10" stroke-width=".5"/><line x1="221.526" y1="163.734" x2="349.304" y2="186.391" fill="none" stroke="#231f20" stroke-miterlimit="10" stroke-width=".5"/><line x1="349.834" y1="206.112" x2="350.924" y2="190.129" fill="none" stroke="#231f20" stroke-miterlimit="10" stroke-width=".5"/><path d="M131.922,101.65l-.557,7.682s-.111,2.505-1.726,4.398" fill="none" stroke="#231f20" stroke-miterlimit="10" stroke-width=".5"/><path d="M137.048,169.065l-.414,7.507s-.052,2.485-1.346,4.038" fill="none" stroke="#231f20" stroke-miterlimit="10" stroke-width=".5"/><path d="M366.209,191.49c.21-.266,5.274,1.743,3.275,12.735l-1.364,12.28" fill="none" stroke="#231f20" stroke-miterlimit="10" stroke-width=".5"/><polygon points="428.149 99.72 456.435 103.204 454.903 114.212 426.755 110.867 428.149 99.72" fill="none" stroke="#231f20" stroke-miterlimit="10" stroke-width=".5"/><polygon points="417.089 179.353 443.931 183.624 442.508 193.806 415.695 189.319 417.089 179.353" fill="none" stroke="#231f20" stroke-miterlimit="10" stroke-width=".5"/><ellipse cx="387.418" cy="123.262" rx="2.523" ry="2.116" fill="none" stroke="#231f20" stroke-miterlimit="10" stroke-width=".5"/><ellipse cx="386.604" cy="132.214" rx="2.523" ry="2.116" fill="none" stroke="#231f20" stroke-miterlimit="10" stroke-width=".5"/><ellipse cx="379.169" cy="198.866" rx="2.523" ry="2.116" fill="none" stroke="#231f20" stroke-miterlimit="10" stroke-width=".5"/><ellipse cx="378.004" cy="207.292" rx="2.523" ry="2.116" fill="none" stroke="#231f20" stroke-miterlimit="10" stroke-width=".5"/><path d="M36.088,72.978l7.472-3.507s1.22-.61,1.372.61,3.736,27.752,3.736,27.752c0,0,.305,1.449-.686,2.135s-7.243,3.965-7.243,3.965c0,0-1.296.534-1.449-.534l-4.117-28.667s-.534-1.067.915-1.754Z" fill="none" stroke="#231f20" stroke-miterlimit="10" stroke-width=".5"/><path d="M46.448,146.292l6.856-4.44s1.22-.559,1.372.559,3.613,24.092,3.613,24.092c0,0,.305,1.327-.686,1.955s-6.781,5.139-6.781,5.139c0,0-1.296.489-1.449-.489l-3.84-25.21s-.534-.978.915-1.606Z" fill="none" stroke="#231f20" stroke-miterlimit="10" stroke-width=".5"/><ellipse cx="67.292" cy="145.658" rx="4.156" ry="2.309" transform="translate(-90.065 177.013) rotate(-76.473)" fill="none" stroke="#231f20" stroke-miterlimit="10" stroke-width=".5"/><ellipse cx="64.983" cy="128.419" rx="4.156" ry="2.309" transform="translate(-75.073 161.562) rotate(-76.473)" fill="none" stroke="#231f20" stroke-miterlimit="10" stroke-width=".5"/><ellipse cx="58.519" cy="79.164" rx="4.156" ry="2.309" transform="translate(-32.137 117.543) rotate(-76.473)" fill="none" stroke="#231f20" stroke-miterlimit="10" stroke-width=".5"/><ellipse cx="55.966" cy="60.154" rx="4.156" ry="2.309" transform="translate(-15.609 100.497) rotate(-76.473)" fill="none" stroke="#231f20" stroke-miterlimit="10" stroke-width=".5"/><path d="M33.661,144.197l-1.941.947-12.427,3.711s-2.238.059-1.944,2.12,5.654,33.984,5.654,33.984c0,0,.589.942,1.296,1.001" fill="none" stroke="#231f20" stroke-miterlimit="10" stroke-width=".5"/><line x1="30.896" y1="150.209" x2="35.078" y2="177.184" fill="none" stroke="#231f20" stroke-miterlimit="10" stroke-width=".5"/><line x1="28.54" y1="154.273" x2="32.015" y2="175.24" fill="none" stroke="#231f20" stroke-miterlimit="10" stroke-width=".5"/><line x1="26.302" y1="158.101" x2="28.776" y2="173.415" fill="none" stroke="#231f20" stroke-miterlimit="10" stroke-width=".5"/><line x1="24.064" y1="161.929" x2="25.596" y2="171.471" fill="none" stroke="#231f20" stroke-miterlimit="10" stroke-width=".5"/><line x1="22.062" y1="165.699" x2="22.592" y2="169.41" fill="none" stroke="#231f20" stroke-miterlimit="10" stroke-width=".5"/><path d="M79.869,36.785l-3.225,1.391s-1.644-1.518-3.098-.885c0,0-2.656.316-2.656,2.529l.696,5.248-1.975,3.585,4.634,38.682" fill="none" stroke="#231f20" stroke-miterlimit="10" stroke-width=".5"/><line x1="74.469" y1="45.133" x2="76.981" y2="67.847" fill="none" stroke="#231f20" stroke-miterlimit="10" stroke-width=".5"/><line x1="85.149" y1="135.14" x2="83.24" y2="113.709" fill="none" stroke="#231f20" stroke-miterlimit="10" stroke-width=".5"/><ellipse cx="352.186" cy="171.441" rx="9.215" ry="10.534" transform="translate(91.085 463.422) rotate(-74.152)" fill="none" stroke="#231f20" stroke-miterlimit="10" stroke-width=".5"/><path d="M342.345,167.415l2.82-6.683c1.39-4.896,7.054-7.577,12.65-5.988s8.41,6.47,7.021,11.366l-2.516,8.208" fill="none" stroke="#231f20" stroke-miterlimit="10" stroke-width=".5"/><line x1="340.865" y1="170.092" x2="197.538" y2="145.504" fill="none" stroke="#231f20" stroke-miterlimit="10" stroke-width=".5"/><path d="M179.27,124.639v-3.895c.371-3.431,4.266-4.173,4.266-4.173l2.968.371,2.782-.556s.742-2.968,2.504-4.451,6.955-5.935,6.955-5.935l147.928,21.014" fill="none" stroke="#231f20" stroke-miterlimit="10" stroke-width=".5"/><line x1="342.658" y1="136.981" x2="355.674" y2="108.469" fill="none" stroke="#231f20" stroke-miterlimit="10" stroke-width=".5"/><line x1="344.661" y1="157.227" x2="346.1" y2="143.17" fill="none" stroke="#231f20" stroke-miterlimit="10" stroke-width=".5"/><polyline points="352.583 141.727 358.403 128.774 360.081 113.293" fill="none" stroke="#231f20" stroke-miterlimit="10" stroke-width=".5"/><path d="M358.403,128.774c1.181-.008,1.623,3.784,1.623,3.784,0,0,4.207,1.187,2.589,6.689" fill="none" stroke="#231f20" stroke-miterlimit="10" stroke-width=".5"/><line x1="346.002" y1="138.383" x2="358.084" y2="111.629" fill="none" stroke="#231f20" stroke-miterlimit="10" stroke-width=".5"/><polyline points="199.333 105.45 201.82 104.462 209.639 97.372" fill="none" stroke="#231f20" stroke-miterlimit="10" stroke-width=".5"/><polyline points="354.005 106.876 345.367 124.792 203.805 104.994 211.904 97.488" fill="none" stroke="#231f20" stroke-miterlimit="10" stroke-width=".5"/><ellipse cx="368.073" cy="129.389" rx="2.554" ry="3.46" transform="translate(155.667 456.656) rotate(-76.383)" fill="none" stroke="#231f20" stroke-miterlimit="10" stroke-width=".5"/><path d="M28.406,142.054s.767-2.361,6.994-2.922l9.945-5.696,8.381,1.151s1.883,0,2.326,2.437,3.655,24.199,3.655,24.199c0,0,.831,6.036,5.316,2.99s5.648-3.987,5.648-3.987l1.44.332,10.521-7.642s-1.994-3.046-9.248-2.824l-8.085,6.036s-2.99-.665-5.814.665" fill="none" stroke="#231f20" stroke-miterlimit="10" stroke-width=".5"/><line x1="191.639" y1="51.332" x2="193.916" y2="108.464" fill="none" stroke="#231f20" stroke-miterlimit="10" stroke-width=".5"/><line x1="140.749" y1="48.671" x2="144.424" y2="46.192" fill="none" stroke="#231f20" stroke-miterlimit="10" stroke-width=".5"/><path d="M184.524,54.314s4.393.366,7.106-1.938" fill="none" stroke="#231f20" stroke-miterlimit="10" stroke-width=".5"/><line x1="187.479" y1="117.176" x2="187.479" y2="120.683" fill="none" stroke="#231f20" stroke-miterlimit="10" stroke-width=".5"/><path d="M337.359,159.866l2.415,2.611s.604.611-.067,1.049l-2.677,1.58c-.751.399-1.271-.257-1.271-.257l-2.41-2.605c-.489-.647.064-1.047.064-1.047l2.673-1.587s.715-.507,1.273.256Z" fill="none" stroke="#231f20" stroke-miterlimit="10" stroke-width=".5"/><path d="M213.51,139.268l2.442,2.469s.609.577-.03,1.027l-2.556,1.633c-.718.415-1.248-.208-1.248-.208l-2.437-2.463c-.498-.616.027-1.025.027-1.025l2.552-1.639s.68-.52,1.25.208Z" fill="none" stroke="#231f20" stroke-miterlimit="10" stroke-width=".5"/><path d="M210.473,122.941l-.46,1.262c-.249.739,2.562,3.506,2.562,3.506,0,0,.597.593,1.254.204l2.583-1.684.854-2.191" fill="none" stroke="#231f20" stroke-miterlimit="10" stroke-width=".5"/><path d="M216.162,134.53l-2.566,1.65c-.66.414-1.251-.206-1.251-.206l-2.445-2.472c-.547-.61.137-1.103.137-1.103l2.451-1.585s.653-.387,1.253.206l2.449,2.478s.649.55-.03,1.032Z" fill="none" stroke="#231f20" stroke-miterlimit="10" stroke-width=".5"/><path d="M233.52,142.593l2.442,2.469s.609.577-.03,1.027l-2.556,1.633c-.718.415-1.248-.208-1.248-.208l-2.437-2.463c-.498-.616.027-1.025.027-1.025l2.552-1.639s.68-.52,1.25.208Z" fill="none" stroke="#231f20" stroke-miterlimit="10" stroke-width=".5"/><path d="M230.483,126.266l-.46,1.262c-.249.739,2.562,3.506,2.562,3.506,0,0,.597.593,1.254.204l2.583-1.684.854-2.191" fill="none" stroke="#231f20" stroke-miterlimit="10" stroke-width=".5"/><path d="M236.172,137.855l-2.566,1.65c-.66.414-1.251-.206-1.251-.206l-2.445-2.472c-.547-.61.137-1.103.137-1.103l2.451-1.585s.653-.387,1.253.206l2.449,2.478s.649.55-.03,1.032Z" fill="none" stroke="#231f20" stroke-miterlimit="10" stroke-width=".5"/><path d="M243.719,144.293l2.442,2.469s.609.577-.03,1.027l-2.556,1.633c-.718.415-1.248-.208-1.248-.208l-2.437-2.463c-.498-.616.027-1.025.027-1.025l2.552-1.639s.68-.52,1.25.208Z" fill="none" stroke="#231f20" stroke-miterlimit="10" stroke-width=".5"/><path d="M240.682,127.966l-.46,1.262c-.249.739,2.562,3.506,2.562,3.506,0,0,.597.593,1.254.204l2.583-1.684.854-2.191" fill="none" stroke="#231f20" stroke-miterlimit="10" stroke-width=".5"/><path d="M246.371,139.555l-2.566,1.65c-.66.414-1.251-.206-1.251-.206l-2.445-2.472c-.547-.61.137-1.103.137-1.103l2.451-1.585s.653-.387,1.253.206l2.449,2.478s.649.55-.03,1.032Z" fill="none" stroke="#231f20" stroke-miterlimit="10" stroke-width=".5"/><path d="M253.862,145.938l2.442,2.469s.609.577-.03,1.027l-2.556,1.633c-.718.415-1.248-.208-1.248-.208l-2.437-2.463c-.498-.616.027-1.025.027-1.025l2.552-1.639s.68-.52,1.25.208Z" fill="none" stroke="#231f20" stroke-miterlimit="10" stroke-width=".5"/><path d="M250.826,129.611l-.46,1.262c-.249.739,2.562,3.506,2.562,3.506,0,0,.597.593,1.254.204l2.583-1.684.854-2.191" fill="none" stroke="#231f20" stroke-miterlimit="10" stroke-width=".5"/><path d="M256.515,141.2l-2.566,1.65c-.66.414-1.251-.206-1.251-.206l-2.445-2.472c-.547-.61.137-1.103.137-1.103l2.451-1.585s.653-.387,1.253.206l2.449,2.478s.649.55-.03,1.032Z" fill="none" stroke="#231f20" stroke-miterlimit="10" stroke-width=".5"/><path d="M264.226,147.638l2.442,2.469s.609.577-.03,1.027l-2.556,1.633c-.718.415-1.248-.208-1.248-.208l-2.437-2.463c-.498-.616.027-1.025.027-1.025l2.552-1.639s.68-.52,1.25.208Z" fill="none" stroke="#231f20" stroke-miterlimit="10" stroke-width=".5"/><path d="M261.189,131.311l-.46,1.262c-.249.739,2.562,3.506,2.562,3.506,0,0,.597.593,1.254.204l2.583-1.684.854-2.191" fill="none" stroke="#231f20" stroke-miterlimit="10" stroke-width=".5"/><path d="M266.878,142.9l-2.566,1.65c-.66.414-1.251-.206-1.251-.206l-2.445-2.472c-.547-.61.137-1.103.137-1.103l2.451-1.585s.653-.387,1.253.206l2.449,2.478s.649.55-.03,1.032Z" fill="none" stroke="#231f20" stroke-miterlimit="10" stroke-width=".5"/><path d="M274.434,149.398l2.425,2.502s.605.585-.04,1.03l-2.582,1.613c-.725.409-1.25-.222-1.25-.222l-2.421-2.497c-.493-.623.037-1.028.037-1.028l2.578-1.62s.687-.515,1.252.221Z" fill="none" stroke="#231f20" stroke-miterlimit="10" stroke-width=".5"/><path d="M271.551,132.981l-.474,1.262c-.258.739,2.536,3.545,2.536,3.545,0,0,.593.601,1.257.217l2.609-1.664.879-2.19" fill="none" stroke="#231f20" stroke-miterlimit="10" stroke-width=".5"/><path d="M277.144,144.669l-2.591,1.63c-.666.409-1.253-.219-1.253-.219l-2.429-2.506c-.543-.618.149-1.105.149-1.105l2.476-1.566s.659-.382,1.256.219l2.433,2.511s.646.559-.04,1.036Z" fill="none" stroke="#231f20" stroke-miterlimit="10" stroke-width=".5"/><path d="M284.743,151.097l2.425,2.502s.605.585-.04,1.03l-2.582,1.613c-.725.409-1.25-.222-1.25-.222l-2.421-2.497c-.493-.623.037-1.028.037-1.028l2.578-1.62s.687-.515,1.252.221Z" fill="none" stroke="#231f20" stroke-miterlimit="10" stroke-width=".5"/><path d="M281.859,134.681l-.474,1.262c-.258.739,2.536,3.545,2.536,3.545,0,0,.593.601,1.257.217l2.609-1.664.879-2.19" fill="none" stroke="#231f20" stroke-miterlimit="10" stroke-width=".5"/><path d="M287.452,146.369l-2.591,1.63c-.666.409-1.253-.219-1.253-.219l-2.429-2.506c-.543-.618.149-1.105.149-1.105l2.476-1.566s.659-.382,1.256.219l2.433,2.511s.646.559-.04,1.036Z" fill="none" stroke="#231f20" stroke-miterlimit="10" stroke-width=".5"/><path d="M292.312,136.275l-.476,1.274c-.258.746,2.543,3.578,2.543,3.578,0,0,.595.607,1.26.219l2.616-1.68.882-2.211" fill="none" stroke="#231f20" stroke-miterlimit="10" stroke-width=".5"/><path d="M295.204,152.847l2.432,2.526s.607.591-.04,1.04l-2.589,1.629c-.727.413-1.254-.224-1.254-.224l-2.427-2.521c-.495-.629.037-1.038.037-1.038l2.585-1.635s.689-.519,1.256.223Z" fill="none" stroke="#231f20" stroke-miterlimit="10" stroke-width=".5"/><path d="M297.921,148.074l-2.599,1.646c-.668.413-1.256-.221-1.256-.221l-2.436-2.53c-.544-.623.149-1.116.149-1.116l2.483-1.581s.661-.386,1.259.221l2.44,2.535s.648.564-.04,1.045Z" fill="none" stroke="#231f20" stroke-miterlimit="10" stroke-width=".5"/><path d="M305.673,154.548l2.442,2.561s.61.599-.056,1.039l-2.661,1.59c-.747.402-1.274-.242-1.274-.242l-2.437-2.556c-.495-.636.053-1.038.053-1.038l2.657-1.597s.71-.509,1.276.241Z" fill="none" stroke="#231f20" stroke-miterlimit="10" stroke-width=".5"/><path d="M302.965,137.935l-.503,1.267c-.274.742,2.539,3.615,2.539,3.615,0,0,.597.616,1.281.238l2.689-1.642.93-2.198" fill="none" stroke="#231f20" stroke-miterlimit="10" stroke-width=".5"/><path d="M308.509,149.815l-2.671,1.608c-.687.403-1.277-.24-1.277-.24l-2.445-2.565c-.546-.631.168-1.113.168-1.113l2.552-1.545s.679-.376,1.28.24l2.449,2.571s.652.573-.056,1.045Z" fill="none" stroke="#231f20" stroke-miterlimit="10" stroke-width=".5"/><path d="M316.086,156.302l2.441,2.586s.61.605-.056,1.05l-2.661,1.607c-.747.406-1.274-.244-1.274-.244l-2.436-2.581c-.495-.642.053-1.048.053-1.048l2.657-1.613s.71-.514,1.276.244Z" fill="none" stroke="#231f20" stroke-miterlimit="10" stroke-width=".5"/><path d="M313.381,139.525l-.503,1.28c-.274.749,2.539,3.651,2.539,3.651,0,0,.597.622,1.281.24l2.69-1.658.93-2.22" fill="none" stroke="#231f20" stroke-miterlimit="10" stroke-width=".5"/><path d="M318.923,151.522l-2.671,1.624c-.687.407-1.277-.242-1.277-.242l-2.445-2.59c-.546-.638.168-1.124.168-1.124l2.552-1.56s.679-.38,1.28.242l2.449,2.596s.652.579-.056,1.055Z" fill="none" stroke="#231f20" stroke-miterlimit="10" stroke-width=".5"/><path d="M326.721,158.056l2.415,2.611s.604.611-.067,1.049l-2.677,1.58c-.751.399-1.271-.257-1.271-.257l-2.41-2.605c-.489-.647.064-1.047.064-1.047l2.673-1.587s.715-.507,1.273.256Z" fill="none" stroke="#231f20" stroke-miterlimit="10" stroke-width=".5"/><path d="M324.184,141.253l-.516,1.275c-.281.747,2.502,3.676,2.502,3.676,0,0,.591.628,1.278.253l2.706-1.631.953-2.21" fill="none" stroke="#231f20" stroke-miterlimit="10" stroke-width=".5"/><path d="M329.606,153.304l-2.687,1.597c-.691.4-1.274-.255-1.274-.255l-2.419-2.615c-.539-.643.18-1.123.18-1.123l2.568-1.535s.683-.373,1.277.255l2.423,2.62s.646.585-.067,1.055Z" fill="none" stroke="#231f20" stroke-miterlimit="10" stroke-width=".5"/><path d="M340.243,155.114l-2.687,1.597c-.691.4-1.274-.255-1.274-.255l-2.419-2.615c-.539-.643.18-1.123.18-1.123l2.568-1.535s.683-.373,1.277.255l2.423,2.62s.646.585-.067,1.055Z" fill="none" stroke="#231f20" stroke-miterlimit="10" stroke-width=".5"/><path d="M332.259,154.766l2.415,2.611s.604.611-.067,1.049l-2.677,1.58c-.751.399-1.271-.257-1.271-.257l-2.41-2.605c-.489-.647.064-1.047.064-1.047l2.673-1.587s.715-.507,1.273.256Z" fill="none" stroke="#231f20" stroke-miterlimit="10" stroke-width=".5"/><path d="M335.144,150.015l-2.687,1.597c-.691.4-1.274-.255-1.274-.255l-2.419-2.615c-.539-.643.18-1.123.18-1.123l2.568-1.535s.683-.373,1.277.255l2.423,2.62s.646.585-.067,1.055Z" fill="none" stroke="#231f20" stroke-miterlimit="10" stroke-width=".5"/><path d="M321.668,153.085l2.415,2.611s.604.611-.067,1.049l-2.677,1.58c-.751.399-1.271-.257-1.271-.257l-2.41-2.605c-.489-.647.064-1.047.064-1.047l2.673-1.587s.715-.507,1.273.256Z" fill="none" stroke="#231f20" stroke-miterlimit="10" stroke-width=".5"/><path d="M324.553,148.333l-2.687,1.597c-.691.4-1.274-.255-1.274-.255l-2.419-2.615c-.539-.643.18-1.123.18-1.123l2.568-1.535s.683-.373,1.277.255l2.423,2.62s.646.585-.067,1.055Z" fill="none" stroke="#231f20" stroke-miterlimit="10" stroke-width=".5"/><path d="M311.077,151.162l2.415,2.611s.604.611-.067,1.049l-2.677,1.58c-.751.399-1.271-.257-1.271-.257l-2.41-2.605c-.489-.647.064-1.047.064-1.047l2.673-1.587s.715-.507,1.273.256Z" fill="none" stroke="#231f20" stroke-miterlimit="10" stroke-width=".5"/><path d="M313.962,146.568l-2.687,1.597c-.691.4-1.274-.255-1.274-.255l-2.419-2.615c-.539-.643.18-1.123.18-1.123l2.568-1.535s.683-.373,1.277.255l2.423,2.62s.646.585-.067,1.055Z" fill="none" stroke="#231f20" stroke-miterlimit="10" stroke-width=".5"/><path d="M300.676,149.429l2.415,2.611s.604.611-.067,1.049l-2.677,1.58c-.751.399-1.271-.257-1.271-.257l-2.41-2.605c-.489-.647.064-1.047.064-1.047l2.673-1.587s.715-.507,1.273.256Z" fill="none" stroke="#231f20" stroke-miterlimit="10" stroke-width=".5"/><path d="M303.561,144.835l-2.687,1.597c-.691.4-1.274-.255-1.274-.255l-2.419-2.615c-.539-.643.18-1.123.18-1.123l2.568-1.535s.683-.373,1.277.255l2.423,2.62s.646.585-.067,1.055Z" fill="none" stroke="#231f20" stroke-miterlimit="10" stroke-width=".5"/><path d="M290.117,147.774l2.415,2.611s.604.611-.067,1.049l-2.677,1.58c-.751.399-1.271-.257-1.271-.257l-2.41-2.605c-.489-.647.064-1.047.064-1.047l2.673-1.587s.715-.507,1.273.256Z" fill="none" stroke="#231f20" stroke-miterlimit="10" stroke-width=".5"/><path d="M293.002,143.18l-2.687,1.597c-.691.4-1.274-.255-1.274-.255l-2.419-2.615c-.539-.643.18-1.123.18-1.123l2.568-1.535s.683-.373,1.277.255l2.423,2.62s.646.585-.067,1.055Z" fill="none" stroke="#231f20" stroke-miterlimit="10" stroke-width=".5"/><path d="M279.716,145.962l2.415,2.611s.604.611-.067,1.049l-2.677,1.58c-.751.399-1.271-.257-1.271-.257l-2.41-2.605c-.489-.647.064-1.047.064-1.047l2.673-1.587s.715-.507,1.273.256Z" fill="none" stroke="#231f20" stroke-miterlimit="10" stroke-width=".5"/><path d="M282.601,141.368l-2.687,1.597c-.691.4-1.274-.255-1.274-.255l-2.419-2.615c-.539-.643.18-1.123.18-1.123l2.568-1.535s.683-.373,1.277.255l2.423,2.62s.646.585-.067,1.055Z" fill="none" stroke="#231f20" stroke-miterlimit="10" stroke-width=".5"/><path d="M269.394,144.228l2.415,2.611s.604.611-.067,1.049l-2.677,1.58c-.751.399-1.271-.257-1.271-.257l-2.41-2.605c-.489-.647.064-1.047.064-1.047l2.673-1.587s.715-.507,1.273.256Z" fill="none" stroke="#231f20" stroke-miterlimit="10" stroke-width=".5"/><path d="M272.279,139.634l-2.687,1.597c-.691.4-1.274-.255-1.274-.255l-2.419-2.615c-.539-.643.18-1.123.18-1.123l2.568-1.535s.683-.373,1.277.255l2.423,2.62s.646.585-.067,1.055Z" fill="none" stroke="#231f20" stroke-miterlimit="10" stroke-width=".5"/><path d="M259.129,142.54l2.415,2.611s.604.611-.067,1.049l-2.677,1.58c-.751.399-1.271-.257-1.271-.257l-2.41-2.605c-.489-.647.064-1.047.064-1.047l2.673-1.587s.715-.507,1.273.256Z" fill="none" stroke="#231f20" stroke-miterlimit="10" stroke-width=".5"/><path d="M261.878,137.98l-2.687,1.597c-.691.4-1.274-.255-1.274-.255l-2.419-2.615c-.539-.643.18-1.123.18-1.123l2.568-1.535s.683-.373,1.277.255l2.423,2.62s.646.585-.067,1.055Z" fill="none" stroke="#231f20" stroke-miterlimit="10" stroke-width=".5"/><path d="M248.952,140.918l2.415,2.611s.604.611-.067,1.049l-2.677,1.58c-.751.399-1.271-.257-1.271-.257l-2.41-2.605c-.489-.647.064-1.047.064-1.047l2.673-1.587s.715-.507,1.273.256Z" fill="none" stroke="#231f20" stroke-miterlimit="10" stroke-width=".5"/><path d="M251.612,136.406l-2.687,1.597c-.691.4-1.274-.255-1.274-.255l-2.419-2.615c-.539-.643.18-1.123.18-1.123l2.568-1.535s.683-.373,1.277.255l2.423,2.62s.646.585-.067,1.055Z" fill="none" stroke="#231f20" stroke-miterlimit="10" stroke-width=".5"/><path d="M238.761,139.12l2.415,2.611s.604.611-.067,1.049l-2.677,1.58c-.751.399-1.271-.257-1.271-.257l-2.41-2.605c-.489-.647.064-1.047.064-1.047l2.673-1.587s.715-.507,1.273.256Z" fill="none" stroke="#231f20" stroke-miterlimit="10" stroke-width=".5"/><path d="M241.42,134.608l-2.687,1.597c-.691.4-1.274-.255-1.274-.255l-2.419-2.615c-.539-.643.18-1.123.18-1.123l2.568-1.535s.683-.373,1.277.255l2.423,2.62s.646.585-.067,1.055Z" fill="none" stroke="#231f20" stroke-miterlimit="10" stroke-width=".5"/><path d="M228.645,137.546l2.415,2.611s.604.611-.067,1.049l-2.677,1.58c-.751.399-1.271-.257-1.271-.257l-2.41-2.605c-.489-.647.064-1.047.064-1.047l2.673-1.587s.715-.507,1.273.256Z" fill="none" stroke="#231f20" stroke-miterlimit="10" stroke-width=".5"/><path d="M231.304,133.034l-2.687,1.597c-.691.4-1.274-.255-1.274-.255l-2.419-2.615c-.539-.643.18-1.123.18-1.123l2.568-1.535s.683-.373,1.277.255l2.423,2.62s.646.585-.067,1.055Z" fill="none" stroke="#231f20" stroke-miterlimit="10" stroke-width=".5"/><path d="M218.529,135.898l2.415,2.611s.604.611-.067,1.049l-2.677,1.58c-.751.399-1.271-.257-1.271-.257l-2.41-2.605c-.489-.647.064-1.047.064-1.047l2.673-1.587s.715-.507,1.273.256Z" fill="none" stroke="#231f20" stroke-miterlimit="10" stroke-width=".5"/><path d="M221.188,131.385l-2.687,1.597c-.691.4-1.274-.255-1.274-.255l-2.419-2.615c-.539-.643.18-1.123.18-1.123l2.568-1.535s.683-.373,1.277.255l2.423,2.62s.646.585-.067,1.055Z" fill="none" stroke="#231f20" stroke-miterlimit="10" stroke-width=".5"/><path d="M223.376,140.948l2.442,2.469s.609.577-.03,1.027l-2.556,1.633c-.718.415-1.248-.208-1.248-.208l-2.437-2.463c-.498-.616.027-1.025.027-1.025l2.552-1.639s.68-.52,1.25.208Z" fill="none" stroke="#231f20" stroke-miterlimit="10" stroke-width=".5"/><path d="M220.34,124.621l-.46,1.262c-.249.739,2.562,3.506,2.562,3.506,0,0,.597.593,1.254.204l2.583-1.684.854-2.191" fill="none" stroke="#231f20" stroke-miterlimit="10" stroke-width=".5"/><path d="M226.029,136.21l-2.566,1.65c-.66.414-1.251-.206-1.251-.206l-2.445-2.472c-.547-.61.137-1.103.137-1.103l2.451-1.585s.653-.387,1.253.206l2.449,2.478s.649.55-.03,1.032Z" fill="none" stroke="#231f20" stroke-miterlimit="10" stroke-width=".5"/><ellipse cx="204.255" cy="128.182" rx="1.441" ry="1.836" transform="translate(26.696 291.348) rotate(-74.692)" fill="none" stroke="#231f20" stroke-miterlimit="10" stroke-width=".5"/><ellipse cx="204.168" cy="132.82" rx="1.441" ry="1.836" transform="translate(22.158 294.679) rotate(-74.692)" fill="none" stroke="#231f20" stroke-miterlimit="10" stroke-width=".5"/><ellipse cx="204.006" cy="139.953" rx="1.441" ry="1.836" transform="translate(15.159 299.772) rotate(-74.692)" fill="none" stroke="#231f20" stroke-miterlimit="10" stroke-width=".5"/><path d="M238.065,184.112l2.209,2.266s.551.53-.024.919l-2.3,1.404c-.647.355-1.126-.215-1.126-.215l-2.204-2.261c-.451-.563.021-.917.021-.917l2.296-1.41s.611-.45,1.127.214Z" fill="none" stroke="#231f20" stroke-miterlimit="10" stroke-width=".5"/><path d="M235.279,169.426l-.411,1.12c-.223.656,2.32,3.197,2.32,3.197,0,0,.54.545,1.132.211l2.324-1.449.764-1.942" fill="none" stroke="#231f20" stroke-miterlimit="10" stroke-width=".5"/><path d="M240.442,179.93l-2.308,1.419c-.594.356-1.128-.213-1.128-.213l-2.212-2.269c-.495-.558.121-.984.121-.984l2.205-1.364s.587-.332,1.131.213l2.216,2.274s.587.507-.024.923Z" fill="none" stroke="#231f20" stroke-miterlimit="10" stroke-width=".5"/><path d="M256.116,187.543l2.209,2.266s.551.53-.024.919l-2.3,1.404c-.647.355-1.126-.215-1.126-.215l-2.204-2.261c-.451-.563.021-.917.021-.917l2.296-1.41s.611-.45,1.127.214Z" fill="none" stroke="#231f20" stroke-miterlimit="10" stroke-width=".5"/><path d="M253.33,172.857l-.411,1.12c-.223.656,2.32,3.197,2.32,3.197,0,0,.54.545,1.132.211l2.324-1.449.764-1.942" fill="none" stroke="#231f20" stroke-miterlimit="10" stroke-width=".5"/><path d="M258.493,183.361l-2.308,1.419c-.594.356-1.128-.213-1.128-.213l-2.212-2.269c-.495-.558.121-.984.121-.984l2.205-1.364s.587-.332,1.131.213l2.216,2.274s.587.507-.024.923Z" fill="none" stroke="#231f20" stroke-miterlimit="10" stroke-width=".5"/><path d="M265.316,189.296l2.209,2.266s.551.53-.024.919l-2.3,1.404c-.647.355-1.126-.215-1.126-.215l-2.204-2.261c-.451-.563.021-.917.021-.917l2.296-1.41s.611-.45,1.127.214Z" fill="none" stroke="#231f20" stroke-miterlimit="10" stroke-width=".5"/><path d="M262.53,174.61l-.411,1.12c-.223.656,2.32,3.197,2.32,3.197,0,0,.54.545,1.132.211l2.324-1.449.764-1.942" fill="none" stroke="#231f20" stroke-miterlimit="10" stroke-width=".5"/><path d="M267.693,185.115l-2.308,1.419c-.594.356-1.128-.213-1.128-.213l-2.212-2.269c-.495-.558.121-.984.121-.984l2.205-1.364s.587-.332,1.131.213l2.216,2.274s.587.507-.024.923Z" fill="none" stroke="#231f20" stroke-miterlimit="10" stroke-width=".5"/><path d="M274.467,190.999l2.209,2.266s.551.53-.024.919l-2.3,1.404c-.647.355-1.126-.215-1.126-.215l-2.204-2.261c-.451-.563.021-.917.021-.917l2.296-1.41s.611-.45,1.127.214Z" fill="none" stroke="#231f20" stroke-miterlimit="10" stroke-width=".5"/><path d="M271.68,176.313l-.411,1.12c-.223.656,2.32,3.197,2.32,3.197,0,0,.54.545,1.132.211l2.324-1.449.764-1.942" fill="none" stroke="#231f20" stroke-miterlimit="10" stroke-width=".5"/><path d="M276.844,186.818l-2.308,1.419c-.594.356-1.128-.213-1.128-.213l-2.212-2.269c-.495-.558.121-.984.121-.984l2.205-1.364s.587-.332,1.131.213l2.216,2.274s.587.507-.024.923Z" fill="none" stroke="#231f20" stroke-miterlimit="10" stroke-width=".5"/><path d="M283.815,192.756l2.209,2.266s.551.53-.024.919l-2.3,1.404c-.647.355-1.126-.215-1.126-.215l-2.204-2.261c-.451-.563.021-.917.021-.917l2.296-1.41s.611-.45,1.127.214Z" fill="none" stroke="#231f20" stroke-miterlimit="10" stroke-width=".5"/><path d="M281.029,178.07l-.411,1.12c-.223.656,2.32,3.197,2.32,3.197,0,0,.54.545,1.132.211l2.324-1.449.764-1.942" fill="none" stroke="#231f20" stroke-miterlimit="10" stroke-width=".5"/><path d="M286.192,188.575l-2.308,1.419c-.594.356-1.128-.213-1.128-.213l-2.212-2.269c-.495-.558.121-.984.121-.984l2.205-1.364s.587-.332,1.131.213l2.216,2.274s.587.507-.024.923Z" fill="none" stroke="#231f20" stroke-miterlimit="10" stroke-width=".5"/><path d="M293.025,194.564l2.194,2.295s.547.538-.033.921l-2.323,1.386c-.653.35-1.128-.227-1.128-.227l-2.19-2.29c-.447-.569.031-.92.031-.92l2.319-1.391s.618-.445,1.13.226Z" fill="none" stroke="#231f20" stroke-miterlimit="10" stroke-width=".5"/><path d="M290.377,179.801l-.424,1.119c-.23.656,2.297,3.231,2.297,3.231,0,0,.537.552,1.134.223l2.347-1.431.786-1.941" fill="none" stroke="#231f20" stroke-miterlimit="10" stroke-width=".5"/><path d="M295.453,190.392l-2.332,1.401c-.6.351-1.13-.225-1.13-.225l-2.198-2.299c-.491-.565.131-.986.131-.986l2.228-1.346s.593-.327,1.133.225l2.201,2.304s.584.515-.033.926Z" fill="none" stroke="#231f20" stroke-miterlimit="10" stroke-width=".5"/><path d="M302.324,196.32l2.194,2.295s.547.538-.033.921l-2.323,1.386c-.653.35-1.128-.227-1.128-.227l-2.19-2.29c-.447-.569.031-.92.031-.92l2.319-1.391s.618-.445,1.13.226Z" fill="none" stroke="#231f20" stroke-miterlimit="10" stroke-width=".5"/><path d="M299.676,181.557l-.424,1.119c-.23.656,2.297,3.231,2.297,3.231,0,0,.537.552,1.134.223l2.347-1.431.786-1.941" fill="none" stroke="#231f20" stroke-miterlimit="10" stroke-width=".5"/><path d="M304.753,192.148l-2.332,1.401c-.6.351-1.13-.225-1.13-.225l-2.198-2.299c-.491-.565.131-.986.131-.986l2.228-1.346s.593-.327,1.133.225l2.201,2.304s.584.515-.033.926Z" fill="none" stroke="#231f20" stroke-miterlimit="10" stroke-width=".5"/><path d="M309.105,183.222l-.425,1.13c-.231.662,2.303,3.261,2.303,3.261,0,0,.538.557,1.137.225l2.354-1.445.789-1.959" fill="none" stroke="#231f20" stroke-miterlimit="10" stroke-width=".5"/><path d="M311.761,198.124l2.2,2.317s.549.543-.033.93l-2.329,1.399c-.655.353-1.131-.229-1.131-.229l-2.196-2.312c-.448-.574.031-.929.031-.929l2.326-1.405s.62-.449,1.133.228Z" fill="none" stroke="#231f20" stroke-miterlimit="10" stroke-width=".5"/><path d="M314.196,193.912l-2.338,1.414c-.601.354-1.134-.227-1.134-.227l-2.204-2.32c-.493-.57.131-.995.131-.995l2.234-1.359s.595-.33,1.136.227l2.207,2.325s.586.52-.033.935Z" fill="none" stroke="#231f20" stroke-miterlimit="10" stroke-width=".5"/><path d="M321.205,199.884l2.209,2.349s.552.55-.048.929l-2.394,1.363c-.672.343-1.149-.246-1.149-.246l-2.204-2.344c-.448-.581.045-.928.045-.928l2.391-1.369s.638-.44,1.151.245Z" fill="none" stroke="#231f20" stroke-miterlimit="10" stroke-width=".5"/><path d="M318.715,184.95l-.45,1.123c-.245.658,2.3,3.294,2.3,3.294,0,0,.54.565,1.156.242l2.42-1.409.832-1.947" fill="none" stroke="#231f20" stroke-miterlimit="10" stroke-width=".5"/><path d="M323.748,195.711l-2.404,1.379c-.618.345-1.152-.243-1.152-.243l-2.212-2.352c-.494-.578.148-.993.148-.993l2.296-1.325s.611-.321,1.155.244l2.216,2.357s.589.528-.048.934Z" fill="none" stroke="#231f20" stroke-miterlimit="10" stroke-width=".5"/><path d="M330.599,201.691l2.209,2.371s.551.556-.048.938l-2.395,1.378c-.672.347-1.149-.248-1.149-.248l-2.204-2.366c-.448-.586.045-.937.045-.937l2.391-1.384s.638-.444,1.151.247Z" fill="none" stroke="#231f20" stroke-miterlimit="10" stroke-width=".5"/><path d="M328.11,186.61l-.45,1.134c-.245.665,2.3,3.326,2.3,3.326,0,0,.54.57,1.156.244l2.42-1.424.832-1.966" fill="none" stroke="#231f20" stroke-miterlimit="10" stroke-width=".5"/><path d="M333.143,197.476l-2.404,1.393c-.618.349-1.152-.245-1.152-.245l-2.212-2.374c-.494-.583.149-1.003.149-1.003l2.297-1.339s.611-.325,1.155.246l2.216,2.38s.589.533-.048.943Z" fill="none" stroke="#231f20" stroke-miterlimit="10" stroke-width=".5"/><path d="M340.193,203.503l2.185,2.392s.546.561-.057.938l-2.409,1.354c-.676.34-1.147-.259-1.147-.259l-2.181-2.387c-.442-.591.054-.936.054-.936l2.406-1.36s.643-.438,1.149.258Z" fill="none" stroke="#231f20" stroke-miterlimit="10" stroke-width=".5"/><path d="M337.856,188.402l-.461,1.129c-.252.662,2.267,3.348,2.267,3.348,0,0,.535.575,1.153.255l2.435-1.399.852-1.957" fill="none" stroke="#231f20" stroke-miterlimit="10" stroke-width=".5"/><path d="M342.78,199.314l-2.418,1.369c-.622.343-1.15-.257-1.15-.257l-2.189-2.396c-.488-.588.159-1.001.159-1.001l2.311-1.316s.614-.318,1.152.257l2.192,2.401s.584.539-.057.943Z" fill="none" stroke="#231f20" stroke-miterlimit="10" stroke-width=".5"/><path d="M345.176,200.683l2.185,2.392s.546.561-.057.938l-2.409,1.354c-.676.34-1.147-.259-1.147-.259l-2.181-2.387c-.442-.591.054-.936.054-.936l2.406-1.36s.643-.438,1.149.258Z" fill="none" stroke="#231f20" stroke-miterlimit="10" stroke-width=".5"/><path d="M347.763,196.495l-2.418,1.369c-.622.343-1.15-.257-1.15-.257l-2.189-2.396c-.488-.588.159-1.001.159-1.001l2.311-1.316s.614-.318,1.152.257l2.192,2.401s.584.539-.057.943Z" fill="none" stroke="#231f20" stroke-miterlimit="10" stroke-width=".5"/><path d="M335.622,198.938l2.185,2.392s.546.561-.057.938l-2.409,1.354c-.676.34-1.147-.259-1.147-.259l-2.181-2.387c-.442-.591.054-.936.054-.936l2.406-1.36s.643-.438,1.149.258Z" fill="none" stroke="#231f20" stroke-miterlimit="10" stroke-width=".5"/><path d="M338.209,194.749l-2.418,1.369c-.622.343-1.15-.257-1.15-.257l-2.189-2.396c-.488-.588.159-1.001.159-1.001l2.311-1.316s.614-.318,1.152.257l2.192,2.401s.584.539-.057.943Z" fill="none" stroke="#231f20" stroke-miterlimit="10" stroke-width=".5"/><path d="M326.067,196.976l2.185,2.392s.546.561-.057.938l-2.409,1.354c-.676.34-1.147-.259-1.147-.259l-2.181-2.387c-.442-.591.054-.936.054-.936l2.406-1.36s.643-.438,1.149.258Z" fill="none" stroke="#231f20" stroke-miterlimit="10" stroke-width=".5"/><path d="M328.655,192.928l-2.418,1.369c-.622.343-1.15-.257-1.15-.257l-2.189-2.396c-.488-.588.159-1.001.159-1.001l2.311-1.316s.614-.318,1.152.257l2.192,2.401s.584.539-.057.943Z" fill="none" stroke="#231f20" stroke-miterlimit="10" stroke-width=".5"/><path d="M316.684,195.188l2.185,2.392s.546.561-.057.938l-2.409,1.354c-.676.34-1.147-.259-1.147-.259l-2.181-2.387c-.442-.591.054-.936.054-.936l2.406-1.36s.643-.438,1.149.258Z" fill="none" stroke="#231f20" stroke-miterlimit="10" stroke-width=".5"/><path d="M319.272,191.14l-2.418,1.369c-.622.343-1.15-.257-1.15-.257l-2.189-2.396c-.488-.588.159-1.001.159-1.001l2.311-1.316s.614-.318,1.152.257l2.192,2.401s.584.539-.057.943Z" fill="none" stroke="#231f20" stroke-miterlimit="10" stroke-width=".5"/><path d="M307.16,193.466l2.185,2.392s.546.561-.057.938l-2.409,1.354c-.676.34-1.147-.259-1.147-.259l-2.181-2.387c-.442-.591.054-.936.054-.936l2.406-1.36s.643-.438,1.149.258Z" fill="none" stroke="#231f20" stroke-miterlimit="10" stroke-width=".5"/><path d="M309.747,189.419l-2.418,1.369c-.622.343-1.15-.257-1.15-.257l-2.189-2.396c-.488-.588.159-1.001.159-1.001l2.311-1.316s.614-.318,1.152.257l2.192,2.401s.584.539-.057.943Z" fill="none" stroke="#231f20" stroke-miterlimit="10" stroke-width=".5"/><path d="M297.777,191.608l2.185,2.392s.546.561-.057.938l-2.409,1.354c-.676.34-1.147-.259-1.147-.259l-2.181-2.387c-.442-.591.054-.936.054-.936l2.406-1.36s.643-.438,1.149.258Z" fill="none" stroke="#231f20" stroke-miterlimit="10" stroke-width=".5"/><path d="M300.364,187.56l-2.418,1.369c-.622.343-1.15-.257-1.15-.257l-2.189-2.396c-.488-.588.159-1.001.159-1.001l2.311-1.316s.614-.318,1.152.257l2.192,2.401s.584.539-.057.943Z" fill="none" stroke="#231f20" stroke-miterlimit="10" stroke-width=".5"/><path d="M288.465,189.821l2.185,2.392s.546.561-.057.938l-2.409,1.354c-.676.34-1.147-.259-1.147-.259l-2.181-2.387c-.442-.591.054-.936.054-.936l2.406-1.36s.643-.438,1.149.258Z" fill="none" stroke="#231f20" stroke-miterlimit="10" stroke-width=".5"/><path d="M291.052,185.774l-2.418,1.369c-.622.343-1.15-.257-1.15-.257l-2.189-2.396c-.488-.588.159-1.001.159-1.001l2.311-1.316s.614-.318,1.152.257l2.192,2.401s.584.539-.057.943Z" fill="none" stroke="#231f20" stroke-miterlimit="10" stroke-width=".5"/><path d="M279.205,188.076l2.185,2.392s.546.561-.057.938l-2.409,1.354c-.676.34-1.147-.259-1.147-.259l-2.181-2.387c-.442-.591.054-.936.054-.936l2.406-1.36s.643-.438,1.149.258Z" fill="none" stroke="#231f20" stroke-miterlimit="10" stroke-width=".5"/><path d="M281.67,184.057l-2.418,1.369c-.622.343-1.15-.257-1.15-.257l-2.189-2.396c-.488-.588.159-1.001.159-1.001l2.311-1.316s.614-.318,1.152.257l2.192,2.401s.584.539-.057.943Z" fill="none" stroke="#231f20" stroke-miterlimit="10" stroke-width=".5"/><path d="M270.025,186.394l2.185,2.392s.546.561-.057.938l-2.409,1.354c-.676.34-1.147-.259-1.147-.259l-2.181-2.387c-.442-.591.054-.936.054-.936l2.406-1.36s.643-.438,1.149.258Z" fill="none" stroke="#231f20" stroke-miterlimit="10" stroke-width=".5"/><path d="M272.409,182.415l-2.418,1.369c-.622.343-1.15-.257-1.15-.257l-2.189-2.396c-.488-.588.159-1.001.159-1.001l2.311-1.316s.614-.318,1.152.257l2.192,2.401s.584.539-.057.943Z" fill="none" stroke="#231f20" stroke-miterlimit="10" stroke-width=".5"/><path d="M260.831,184.552l2.185,2.392s.546.561-.057.938l-2.409,1.354c-.676.34-1.147-.259-1.147-.259l-2.181-2.387c-.442-.591.054-.936.054-.936l2.406-1.36s.643-.438,1.149.258Z" fill="none" stroke="#231f20" stroke-miterlimit="10" stroke-width=".5"/><path d="M263.215,180.573l-2.418,1.369c-.622.343-1.15-.257-1.15-.257l-2.189-2.396c-.488-.588.159-1.001.159-1.001l2.311-1.316s.614-.318,1.152.257l2.192,2.401s.584.539-.057.943Z" fill="none" stroke="#231f20" stroke-miterlimit="10" stroke-width=".5"/><path d="M251.705,182.914l2.185,2.392s.546.561-.057.938l-2.409,1.354c-.676.34-1.147-.259-1.147-.259l-2.181-2.387c-.442-.591.054-.936.054-.936l2.406-1.36s.643-.438,1.149.258Z" fill="none" stroke="#231f20" stroke-miterlimit="10" stroke-width=".5"/><path d="M254.09,178.935l-2.418,1.369c-.622.343-1.15-.257-1.15-.257l-2.189-2.396c-.488-.588.159-1.001.159-1.001l2.311-1.316s.614-.318,1.152.257l2.192,2.401s.584.539-.057.943Z" fill="none" stroke="#231f20" stroke-miterlimit="10" stroke-width=".5"/><path d="M242.579,181.208l2.185,2.392s.546.561-.057.938l-2.409,1.354c-.676.34-1.147-.259-1.147-.259l-2.181-2.387c-.442-.591.054-.936.054-.936l2.406-1.36s.643-.438,1.149.258Z" fill="none" stroke="#231f20" stroke-miterlimit="10" stroke-width=".5"/><path d="M244.964,177.229l-2.418,1.369c-.622.343-1.15-.257-1.15-.257l-2.189-2.396c-.488-.588.159-1.001.159-1.001l2.311-1.316s.614-.318,1.152.257l2.192,2.401s.584.539-.057.943Z" fill="none" stroke="#231f20" stroke-miterlimit="10" stroke-width=".5"/><path d="M246.965,185.84l2.209,2.266s.551.53-.024.919l-2.3,1.404c-.647.355-1.126-.215-1.126-.215l-2.204-2.261c-.451-.563.021-.917.021-.917l2.296-1.41s.611-.45,1.127.214Z" fill="none" stroke="#231f20" stroke-miterlimit="10" stroke-width=".5"/><path d="M244.179,171.154l-.411,1.12c-.223.656,2.32,3.197,2.32,3.197,0,0,.54.545,1.132.211l2.324-1.449.764-1.942" fill="none" stroke="#231f20" stroke-miterlimit="10" stroke-width=".5"/><path d="M249.343,181.658l-2.308,1.419c-.594.356-1.128-.213-1.128-.213l-2.212-2.269c-.495-.558.121-.984.121-.984l2.205-1.364s.587-.332,1.131.213l2.216,2.274s.587.507-.024.923Z" fill="none" stroke="#231f20" stroke-miterlimit="10" stroke-width=".5"/><ellipse cx="229.687" cy="173.976" rx="1.281" ry="1.667" transform="translate(-7.438 337.67) rotate(-71.76)" fill="none" stroke="#231f20" stroke-miterlimit="10" stroke-width=".5"/><ellipse cx="229.623" cy="178.127" rx="1.281" ry="1.667" transform="translate(-11.424 340.461) rotate(-71.76)" fill="none" stroke="#231f20" stroke-miterlimit="10" stroke-width=".5"/><ellipse cx="229.498" cy="184.509" rx="1.281" ry="1.667" transform="translate(-17.572 344.726) rotate(-71.76)" fill="none" stroke="#231f20" stroke-miterlimit="10" stroke-width=".5"/><polyline points="397.012 146.113 400.48 115.824 389.555 114.058 390.405 103.853 381.966 102.806 378.107 143.169" fill="none" stroke="#231f20" stroke-miterlimit="10" stroke-width=".5"/><polyline points="370.364 217.284 374.133 180.391 382.014 181.533 381.215 190.899 391.266 192.726 388.296 220.939" fill="none" stroke="#231f20" stroke-miterlimit="10" stroke-width=".5"/><path d="M199.573,90.443c-.23.161-.452.267-.665.318-.213.051-.441.061-.685.029-.403-.052-.712-.188-.928-.408-.216-.22-.324-.479-.324-.778,0-.175.041-.33.123-.464.082-.134.189-.236.322-.307.132-.07.281-.117.447-.141.122-.016.306-.022.553-.019.502.007.871-.015,1.108-.065.002-.083.004-.135.004-.158,0-.247-.058-.429-.175-.545-.159-.158-.395-.257-.708-.297-.292-.038-.508-.016-.648.066s-.243.245-.31.49l-.607-.159c.055-.247.147-.44.273-.579.127-.139.31-.236.549-.289s.517-.059.832-.019c.313.041.567.109.763.207.195.097.339.206.431.327s.156.267.193.437c.021.106.031.294.031.563v.808c-.002.563.011.921.038,1.074.026.153.078.303.156.45l-.649-.084c-.064-.134-.106-.286-.124-.457ZM199.523,89.083c-.226.061-.564.093-1.015.098-.255.003-.436.02-.542.051s-.188.086-.245.165c-.057.079-.087.171-.087.277,0,.162.062.304.188.428s.309.202.55.233c.239.031.453.007.639-.071.187-.078.324-.2.411-.366.067-.128.101-.326.101-.593v-.222Z" fill="#231f20" stroke-width="0"/><path d="M201.686,91.158l-.577-.075.006-4.936.622.08-.002,1.761c.263-.287.598-.404,1.005-.351.225.029.439.101.64.216.201.115.367.261.497.438.13.177.231.384.305.62.073.236.11.484.11.742,0,.613-.157,1.066-.468,1.36-.311.294-.684.413-1.119.357-.433-.056-.772-.276-1.018-.66v.448ZM201.681,89.342c0,.429.059.746.178.953.195.337.46.528.793.571.272.035.507-.049.705-.254.198-.204.298-.535.298-.99,0-.467-.094-.824-.284-1.071s-.419-.388-.688-.423c-.272-.035-.506.05-.705.254-.198.205-.297.524-.298.96Z" fill="#231f20" stroke-width="0"/><path d="M207.439,90.593l.611.157c-.067.402-.238.702-.514.898-.275.197-.613.269-1.014.217-.502-.065-.905-.277-1.209-.636s-.456-.837-.456-1.435c0-.386.066-.716.198-.988.132-.273.331-.464.6-.574.268-.11.56-.145.875-.104.398.052.724.192.977.421.253.229.415.529.486.9l-.604.013c-.057-.248-.159-.441-.305-.582-.146-.14-.322-.224-.53-.25-.313-.041-.568.036-.763.23-.196.193-.294.527-.295,1.001,0,.48.094.842.282,1.084.189.242.435.383.739.422.244.032.447-.015.611-.14.164-.125.267-.336.311-.633Z" fill="#231f20" stroke-width="0"/><path d="M210.959,92.359v-.451c-.233.325-.575.458-1.026.399-.292-.038-.561-.151-.806-.34-.245-.189-.435-.433-.569-.732-.134-.299-.201-.632-.201-.998,0-.357.062-.673.184-.948s.306-.474.55-.597c.244-.123.517-.165.819-.126.221.029.418.1.59.213.172.113.313.25.421.41l.002-1.771.618.08-.006,4.936-.576-.075ZM208.996,90.32c0,.458.098.813.296,1.066.197.252.431.396.7.431.272.035.502-.043.693-.235.19-.192.285-.51.286-.955,0-.489-.095-.861-.289-1.115-.193-.254-.431-.399-.714-.436-.276-.036-.507.044-.693.24-.186.196-.279.531-.279,1.004Z" fill="#231f20" stroke-width="0"/><path d="M205.821,80.6l-.002,1.681,4.818-1.928-7.906-1.024.002-1.623-4.818,1.87,7.906,1.024M197.919,76.272l12.721,1.647v-.986s-12.719-1.647-12.719-1.647v.986ZM197.911,82.997l12.721,1.647v-.986s-12.719-1.647-12.719-1.647v.986Z" fill="#231f20" stroke-width="0"/><path d="M202.35,163.196c-.206.14-.405.229-.595.268-.19.039-.394.039-.612,0-.359-.064-.634-.201-.825-.412-.192-.211-.286-.455-.284-.73.001-.161.039-.303.112-.423.074-.121.17-.211.289-.271.118-.06.252-.097.4-.113.109-.01.273-.009.493.003.447.025.777.019.989-.018.003-.076.004-.125.004-.145.002-.228-.049-.398-.153-.509-.141-.151-.35-.252-.629-.301-.261-.046-.453-.034-.578.036s-.218.217-.279.441l-.541-.17c.051-.225.134-.4.247-.524.114-.124.278-.206.492-.246s.462-.035.742.015c.279.049.505.123.679.22.174.097.301.203.383.318s.138.252.169.411c.018.099.026.272.024.521l-.006.746c-.004.52.005.851.028.993.022.142.068.282.137.421l-.578-.102c-.057-.126-.093-.268-.108-.427ZM202.314,161.939c-.202.047-.504.064-.906.051-.228-.007-.389.002-.484.026s-.168.072-.22.143c-.052.071-.078.155-.079.252-.001.149.054.283.165.403s.274.198.49.236c.213.038.404.024.57-.041.167-.065.29-.172.369-.322.061-.116.092-.297.094-.543l.002-.205Z" fill="#231f20" stroke-width="0"/><path d="M204.23,163.937l-.514-.091.036-4.555.554.098-.013,1.625c.236-.255.536-.35.899-.286.201.036.391.11.57.224.179.114.326.255.44.423.115.169.204.363.268.584.064.221.095.45.093.689-.004.565-.146.978-.426,1.237-.279.26-.613.355-1.001.286-.386-.068-.687-.284-.904-.649l-.003.413ZM204.237,162.261c-.003.396.048.691.153.886.172.319.407.505.704.557.242.043.452-.026.63-.207.178-.181.269-.482.272-.902.003-.431-.079-.764-.247-.999s-.371-.374-.611-.416c-.242-.043-.452.026-.63.207-.178.181-.269.473-.272.874Z" fill="#231f20" stroke-width="0"/><path d="M209.365,163.637l.544.168c-.062.368-.217.638-.464.809-.247.171-.549.225-.906.162-.447-.079-.805-.291-1.075-.634s-.402-.79-.398-1.341c.003-.356.064-.658.183-.904.119-.247.299-.415.539-.507.24-.091.5-.112.781-.062.355.063.644.205.869.426.224.221.367.504.428.849l-.539-.012c-.05-.231-.139-.414-.269-.548-.129-.135-.286-.219-.471-.251-.279-.049-.507.011-.682.183-.176.171-.266.475-.269.912-.003.443.078.78.245,1.011.167.231.386.37.656.418.217.039.399.003.546-.105.147-.109.24-.3.282-.572Z" fill="#231f20" stroke-width="0"/><path d="M212.495,165.402l.003-.416c-.21.291-.516.4-.918.329-.261-.046-.499-.161-.717-.345-.217-.184-.385-.416-.503-.698-.118-.281-.176-.591-.173-.928.003-.329.059-.618.17-.867s.276-.426.494-.53c.219-.104.462-.133.731-.085.197.035.372.108.525.219.153.111.277.243.373.394l.013-1.634.551.098-.036,4.555-.514-.091ZM210.757,163.445c-.003.423.082.754.257.995.175.24.382.382.622.424.242.043.448-.021.619-.19.171-.17.258-.46.261-.87.004-.452-.08-.798-.251-1.04-.171-.242-.382-.385-.634-.43-.246-.044-.453.022-.619.195-.167.174-.252.479-.255.916Z" fill="#231f20" stroke-width="0"/><path d="M207.984,154.354l-.012,1.551,4.31-1.594-7.046-1.249.012-1.498-4.309,1.54,7.046,1.249M200.962,150.056l11.337,2.009.007-.909-11.337-2.009-.007.909ZM200.913,156.261l11.337,2.009.007-.909-11.337-2.009-.007.909Z" fill="#231f20" stroke-width="0"/></g><g id="c"><polyline points="170.489 175.013 185.55 160.151 170.462 157.54 155.41 172.399 150.206 171.496 155.805 181.179 175.702 175.913 170.489 175.013" fill="#000" stroke="#fff" stroke-linecap="round" stroke-linejoin="round" stroke-width="1.394"/><polyline points="322.652 187.857 337.713 172.996 322.625 170.385 307.573 185.244 302.369 184.34 307.968 194.023 327.865 188.757 322.652 187.857" fill="#000" stroke="#fff" stroke-linecap="round" stroke-linejoin="round" stroke-width="1.394"/><polyline points="156.38 183.456 156.38 197.006 309.027 227.652 308.392 197.156" fill="none" stroke="#fff" stroke-linecap="round" stroke-linejoin="round" stroke-width="4"/><polyline points="156.38 183.456 156.38 197.006 309.027 227.652 308.392 197.156" fill="none" stroke="#000" stroke-linecap="round" stroke-linejoin="round"/><line x1="227.445" y1="221.562" x2="227.281" y2="211.172" fill="none" stroke="#000" stroke-linecap="round" stroke-linejoin="round"/><path d="M339.981,151.846c5.627-3.133,12.638-3.857,19.237-1.984,12.753,3.621,20.511,15.789,17.293,27.125-1.577,5.558-5.507,10.066-11.062,12.696-3.267,1.546-6.872,2.33-10.557,2.33-2.439,0-4.911-.343-7.346-1.034-2.307-.655-4.499-1.603-6.517-2.816l2.796-4.645c1.606.967,3.357,1.722,5.202,2.246,4.851,1.378,9.858,1.03,14.103-.981,4.122-1.951,7.022-5.245,8.165-9.277,2.402-8.46-3.68-17.624-13.557-20.428-5.226-1.484-10.737-.934-15.119,1.504l-.054.042,2.465,4.428-11.994-2.015,4.614-11.241,2.271,4.08.059-.03Z" fill="#231f20" stroke="#fff" stroke-linecap="round" stroke-linejoin="round" stroke-width=".89"/><path d="M397.49,142.575c0,7.593-6.246,13.745-13.95,13.745s-13.953-6.152-13.953-13.745,6.246-13.755,13.953-13.755,13.95,6.159,13.95,13.755" fill="#211e1f" stroke="#fff" stroke-miterlimit="10" stroke-width="1.5"/><path d="M385.137,149.617h-1.846v-11.762c-.444.424-1.027.848-1.748,1.271-.722.424-1.369.742-1.943.954v-1.784c1.032-.485,1.935-1.073,2.707-1.764s1.319-1.36,1.641-2.01h1.189v15.094Z" fill="#fff" stroke-width="0"/><path d="M241.656,237.843c0,7.593-6.246,13.745-13.95,13.745s-13.953-6.152-13.953-13.745,6.246-13.755,13.953-13.755,13.95,6.159,13.95,13.755" fill="#211e1f" stroke="#fff" stroke-miterlimit="10" stroke-width="1.5"/><path d="M232.287,243.11v1.774h-9.936c-.014-.444.058-.872.215-1.282.253-.677.658-1.343,1.215-1.999.557-.656,1.362-1.415,2.415-2.276,1.634-1.34,2.738-2.401,3.312-3.184.574-.783.861-1.523.861-2.221,0-.731-.262-1.348-.784-1.851-.523-.502-1.205-.754-2.046-.754-.889,0-1.6.267-2.133.8s-.803,1.271-.81,2.215l-1.897-.194c.13-1.415.619-2.493,1.466-3.235.848-.741,1.986-1.112,3.415-1.112,1.442,0,2.584.399,3.425,1.199s1.261,1.791,1.261,2.974c0,.602-.123,1.193-.369,1.774s-.655,1.192-1.225,1.835c-.571.643-1.52,1.524-2.846,2.646-1.107.93-1.818,1.561-2.133,1.893-.314.331-.574.664-.779.999h7.373Z" fill="#fff" stroke-width="0"/></g></svg>