<?xml version="1.0" encoding="UTF-8"?><svg xmlns="http://www.w3.org/2000/svg" width="5.625in" height="4.625in" xmlns:xlink="http://www.w3.org/1999/xlink" viewBox="0 0 405 333"><defs><clipPath id="d"><circle cx="253.894" cy="96.963" r="93.857" fill="none"/></clipPath></defs><g id="a"><path d="M188.935,130.118s131.916,29.974,133.941,30.405,1.25,1.199,1.25,1.199c0,0-309.739,47.252-314.11,47.876s-3.747-2.29-3.747-2.29l11.449-64.529,171.217-12.662Z" fill="none" stroke="#231f20" stroke-linecap="round" stroke-linejoin="round" stroke-width=".5"/><line x1="6.799" y1="208.79" x2="14.061" y2="247.947" fill="none" stroke="#231f20" stroke-linecap="round" stroke-linejoin="round" stroke-width=".5"/><polyline points="17.559 230.818 14.059 213.607 15.639 208.79" fill="none" stroke="#231f20" stroke-linecap="round" stroke-linejoin="round" stroke-width=".5"/><line x1="182.039" y1="243.502" x2="183.271" y2="243.218" fill="none" stroke="#231f20" stroke-linecap="round" stroke-linejoin="round" stroke-width=".5"/><path d="M65.113,277.589l12.76-2.566s2.643-.793,3.876.705c0,0,1.145,1.938,4.141,1.41s13.127-2.291,13.127-2.291l-.084-3.748-.879-2.329-2.153.703-5.625-4.834" fill="none" stroke="#231f20" stroke-linecap="round" stroke-linejoin="round" stroke-width=".5"/><line x1="60.608" y1="271.096" x2="180.799" y2="243.184" fill="none" stroke="#231f20" stroke-linecap="round" stroke-linejoin="round" stroke-width=".5"/><polyline points="57.508 279.119 30.565 284.538 29.948 280.573 30.844 277.848 30.879 277.838 51.138 273.244" fill="none" stroke="#231f20" stroke-linecap="round" stroke-linejoin="round" stroke-width=".5"/><path d="M63.832,273.998l13.632-2.645s2.109-.659,3.098.198,1.45,1.252,1.45,1.252c0,0,.923,1.252,3.428.791s13.492-2.495,13.492-2.495" fill="none" stroke="#231f20" stroke-linecap="round" stroke-linejoin="round" stroke-width=".5"/><line x1="29.948" y1="280.573" x2="54.313" y2="275.845" fill="none" stroke="#231f20" stroke-linecap="round" stroke-linejoin="round" stroke-width=".5"/><polyline points="61.982 272.326 76.796 268.845 77.862 269.578 61.996 272.865" fill="none" stroke="#231f20" stroke-linecap="round" stroke-linejoin="round" stroke-width=".5"/><polyline points="52.689 274.793 42.485 276.907 52.577 274.536" fill="none" stroke="#231f20" stroke-linecap="round" stroke-linejoin="round" stroke-width=".5"/><path d="M81.437,268.321l6.798-1.584s.528-.528,1.386.198,3.63,3.036,3.63,3.036c0,0,.66.528-.066.726s-7.656,1.584-7.656,1.584c0,0-.924.066-1.584-.462s-3.102-2.838-3.102-2.838c0,0-.132-.594.594-.66Z" fill="none" stroke="#231f20" stroke-linecap="round" stroke-linejoin="round" stroke-width=".5"/><line x1="95.73" y1="264.321" x2="95.916" y2="268.929" fill="none" stroke="#231f20" stroke-linecap="round" stroke-linejoin="round" stroke-width=".5"/><line x1="97.824" y1="266.369" x2="96.288" y2="269.022" fill="none" stroke="#231f20" stroke-linecap="round" stroke-linejoin="round" stroke-width=".5"/><path d="M98.525,268.841l1.325-.452.395,3.192,6.191,5.492s-.372-3.212-.372-3.91-.698-1.536-.698-1.536l-2.979-2.746-1.024-1.164-4.887-3.025c-1.396-.652.931-1.489.931-1.489" fill="none" stroke="#231f20" stroke-linecap="round" stroke-linejoin="round" stroke-width=".5"/><path d="M185.249,244.623s-33.367,9.994-34.72,10.411-1.093.989-1.093.989c0,0,.208.677.416,1.978s-.86,1.837-.86,1.837l-21.097,6.521-9.379,1.196s-.656.154-3.898,1.081-5.056-.27-5.056-.27l-2.895-2.432s-3.435-1.544-3.937-2.2-1.235-.27-1.235-.27l-2.277.579s-1.054.438-.25.861,4.149,2.201,4.149,2.201l.762,1.778,2.921,2.709s.339.423.423,1.312.339,3.937.339,3.937l-.974.296" fill="none" stroke="#231f20" stroke-linecap="round" stroke-linejoin="round" stroke-width=".5"/><path d="M125.47,263.465c-1.439-1.397-5.588-1.355-5.588-1.355l-.254-2.794c4.911-.169,6.35,2.074,6.35,2.074,1.016,2.117-1.439,4.022-1.439,4.022l-6.308.593s-2.54.72-4.276,1.397-2.667-.254-2.667-.254l-2.159-1.947s-2.921-1.609-3.81-2.159.72-.72.72-.72l5.842-1.312s-2.921,1.228-3.048,3.514" fill="none" stroke="#231f20" stroke-linecap="round" stroke-linejoin="round" stroke-width=".5"/><path d="M110.314,265.582s.931-1.143,1.947-1.482l-.381-3.09" fill="none" stroke="#231f20" stroke-linecap="round" stroke-linejoin="round" stroke-width=".5"/><line x1="112.231" y1="260.847" x2="178.85" y2="245.133" fill="none" stroke="#231f20" stroke-linecap="round" stroke-linejoin="round" stroke-width=".5"/><path d="M104.222,268.008s3.89,3.074,5.379,5.043c0,0,1.009,2.209,4.37,1.249s35.299-10.998,35.299-10.998c0,0,1.204-.384,1.153-1.633-.056-1.351-.529-3.399-.529-3.399" fill="none" stroke="#231f20" stroke-linecap="round" stroke-linejoin="round" stroke-width=".5"/><line x1="199.3" y1="243.862" x2="206.673" y2="241.671" fill="none" stroke="#231f20" stroke-linecap="round" stroke-linejoin="round" stroke-width=".5"/><line x1="150.223" y1="258.446" x2="188.248" y2="247.146" fill="none" stroke="#231f20" stroke-linecap="round" stroke-linejoin="round" stroke-width=".5"/><line x1="110.806" y1="265.704" x2="123.076" y2="262.591" fill="none" stroke="#231f20" stroke-linecap="round" stroke-linejoin="round" stroke-width=".5"/><line x1="200.939" y1="213.112" x2="201.088" y2="233.774" fill="none" stroke="#231f20" stroke-linecap="round" stroke-linejoin="round" stroke-width=".5"/><line x1="206.863" y1="214.335" x2="206.94" y2="237.75" fill="none" stroke="#231f20" stroke-linecap="round" stroke-linejoin="round" stroke-width=".5"/><line x1="206.763" y1="180.042" x2="206.789" y2="192.158" fill="none" stroke="#231f20" stroke-linecap="round" stroke-linejoin="round" stroke-width=".5"/><path d="M193.361,245.808v3.678l-1.288.294" fill="none" stroke="#231f20" stroke-linecap="round" stroke-linejoin="round" stroke-width=".5"/><path d="M186.451,234.068v-4.568l1.288-.234,5.153,4.041s.468.41.468,1.23v5.682" fill="none" stroke="#231f20" stroke-linecap="round" stroke-linejoin="round" stroke-width=".5"/><path d="M186.451,229.559l5.153,4.041s.468.41.468,1.23v14.951l-5.153-4.217" fill="none" stroke="#231f20" stroke-linecap="round" stroke-linejoin="round" stroke-width=".5"/><polyline points="181.854 230.483 190.758 238.467 186.231 239.427 181.568 234.97" fill="none" stroke="#231f20" stroke-linecap="round" stroke-linejoin="round" stroke-width=".5"/><line x1="186.231" y1="239.427" x2="186.231" y2="245.439" fill="none" stroke="#231f20" stroke-linecap="round" stroke-linejoin="round" stroke-width=".5"/><path d="M190.758,238.467v1.065l-3.468.73v3.954l3.531-.73s.041,1.061.041.94l-4.504,1.015-4.261-4.058" fill="none" stroke="#231f20" stroke-linecap="round" stroke-linejoin="round" stroke-width=".5"/><path d="M192.309,241.003l20.656,17.727,1.673,2.51s1.15,2.144-.052,2.249l-1.673-.366-20.708-18.093" fill="none" stroke="#231f20" stroke-linecap="round" stroke-linejoin="round" stroke-width=".5"/><path d="M192.391,239.651l21.463,18.451,1.673,2.51s.682,2.678-.52,2.783" fill="none" stroke="#231f20" stroke-linecap="round" stroke-linejoin="round" stroke-width=".5"/><polyline points="181.4 243.804 177.242 239.498 176.747 225.096" fill="none" stroke="#231f20" stroke-linecap="round" stroke-linejoin="round" stroke-width=".5"/><path d="M193.245,234.306c.817-.689,1.845-1.158,2.996-1.297,3.07-.372,5.85,1.74,6.211,4.717s-1.835,5.692-4.905,6.064" fill="none" stroke="#231f20" stroke-linecap="round" stroke-linejoin="round" stroke-width=".5"/><path d="M198.579,234.09c.361,2.977-1.835,5.692-4.905,6.064" fill="none" stroke="#231f20" stroke-linecap="round" stroke-linejoin="round" stroke-width=".5"/><path d="M189.372,230.67c.817-.689,1.845-1.158,2.996-1.297,1.089-.132,2.142.049,3.064.47l5.739,4.619" fill="none" stroke="#231f20" stroke-linecap="round" stroke-linejoin="round" stroke-width=".5"/><line x1="192.779" y1="229.027" x2="197.604" y2="233.002" fill="none" stroke="#231f20" stroke-linecap="round" stroke-linejoin="round" stroke-width=".5"/><path d="M183.375,231.558l-.049-9.605s-.147-.784.882-.98,13.967-2.842,13.967-2.842c0,0,.931-.196,1.029.441s.196,13.967.196,13.967" fill="none" stroke="#231f20" stroke-linecap="round" stroke-linejoin="round" stroke-width=".5"/><path d="M182.101,230.872l-.049-9.605s-.147-.784.882-.98,13.967-2.842,13.967-2.842l1.984.574" fill="none" stroke="#231f20" stroke-linecap="round" stroke-linejoin="round" stroke-width=".5"/><ellipse cx="100.967" cy="243.597" rx="1.529" ry="1.493" fill="none" stroke="#231f20" stroke-linecap="round" stroke-linejoin="round" stroke-width=".5"/><ellipse cx="108.965" cy="241.961" rx="1.529" ry="1.493" fill="none" stroke="#231f20" stroke-linecap="round" stroke-linejoin="round" stroke-width=".5"/><polyline points="205.915 238.737 207.627 239.998 210.285 239.593 211.997 238.467 211.997 240.314 210.285 241.62 207.537 242.071 205.555 240.359 205.555 238.467 208.213 237.836 208.213 236.845 209.654 237.746 209.654 239.278" fill="none" stroke="#231f20" stroke-linecap="round" stroke-linejoin="round" stroke-width=".5"/><path d="M249.009,184.318v-4.989s.027-.376.724-.456,6.24-.896,6.24-.896c0,0,.939-.241.912.563l-.07,4.651s.107.59-.456.724-6.196,1.019-6.196,1.019c0,0-1.046.376-1.153-.617Z" fill="none" stroke="#231f20" stroke-linecap="round" stroke-linejoin="round" stroke-width=".5"/><path d="M261.11,182.978v-4.989s.027-.376.724-.456,8.409-1.287,8.409-1.287c0,0,.939-.241.912.563l-.07,4.651s.107.59-.456.724-8.366,1.411-8.366,1.411c0,0-1.046.376-1.153-.617Z" fill="none" stroke="#231f20" stroke-linecap="round" stroke-linejoin="round" stroke-width=".5"/><path d="M233.78,186.944v-7.702s.027-.376.724-.456,8.899-1.287,8.899-1.287c0,0,.939-.241.912.563l-.07,7.364s.107.59-.456.724-8.856,1.411-8.856,1.411c0,0-1.046.376-1.153-.617Z" fill="none" stroke="#231f20" stroke-linecap="round" stroke-linejoin="round" stroke-width=".5"/><path d="M220.262,183.67v-2.186s.027-.376.724-.456,8.899-1.287,8.899-1.287c0,0,.939-.241.912.563l-.07,7.364s.107.59-.456.724c-.202.048-1.402.244-2.857.475" fill="none" stroke="#231f20" stroke-linecap="round" stroke-linejoin="round" stroke-width=".5"/><line x1="211.223" y1="217.306" x2="211.28" y2="233.065" fill="none" stroke="#231f20" stroke-linecap="round" stroke-linejoin="round" stroke-width=".5"/><polygon points="116.775 242.921 118.586 241.473 120.895 242.152 121.212 244.733 119.084 246.317 117.091 245.457 116.775 242.921" fill="none" stroke="#231f20" stroke-linecap="round" stroke-linejoin="round" stroke-width=".5"/><polygon points="122.344 241.744 124.155 240.295 126.464 240.975 126.781 243.555 124.653 245.14 122.661 244.28 122.344 241.744" fill="none" stroke="#231f20" stroke-linecap="round" stroke-linejoin="round" stroke-width=".5"/><polygon points="128.048 240.477 129.859 239.028 132.169 239.707 132.485 242.288 130.357 243.872 128.365 243.012 128.048 240.477" fill="none" stroke="#231f20" stroke-linecap="round" stroke-linejoin="round" stroke-width=".5"/><polygon points="133.799 239.209 135.61 237.76 137.919 238.439 138.236 241.02 136.108 242.605 134.115 241.744 133.799 239.209" fill="none" stroke="#231f20" stroke-linecap="round" stroke-linejoin="round" stroke-width=".5"/><polygon points="139.322 238.077 141.133 236.628 143.442 237.307 143.759 239.888 141.631 241.473 139.639 240.612 139.322 238.077" fill="none" stroke="#231f20" stroke-linecap="round" stroke-linejoin="round" stroke-width=".5"/><polygon points="144.755 236.809 146.566 235.36 148.876 236.039 149.193 238.62 147.065 240.205 145.072 239.345 144.755 236.809" fill="none" stroke="#231f20" stroke-linecap="round" stroke-linejoin="round" stroke-width=".5"/><polygon points="150.143 235.677 151.954 234.228 154.263 234.908 154.58 237.488 152.452 239.073 150.46 238.213 150.143 235.677" fill="none" stroke="#231f20" stroke-linecap="round" stroke-linejoin="round" stroke-width=".5"/><polygon points="155.36 234.511 157.171 233.062 159.48 233.741 159.797 236.322 157.669 237.907 155.677 237.046 155.36 234.511" fill="none" stroke="#231f20" stroke-linecap="round" stroke-linejoin="round" stroke-width=".5"/><polyline points="165.035 235.163 162.907 236.747 160.915 235.887 160.598 233.352 162.409 231.903 164.718 232.582" fill="none" stroke="#231f20" stroke-linecap="round" stroke-linejoin="round" stroke-width=".5"/><polygon points="158.709 238.375 160.52 236.926 162.829 237.605 163.146 240.186 161.018 241.771 159.026 240.911 158.709 238.375" fill="none" stroke="#231f20" stroke-linecap="round" stroke-linejoin="round" stroke-width=".5"/><polygon points="120.17 246.77 121.981 245.321 124.29 246 124.607 248.581 122.479 250.166 120.487 249.305 120.17 246.77" fill="none" stroke="#231f20" stroke-linecap="round" stroke-linejoin="round" stroke-width=".5"/><polygon points="123.568 250.752 125.379 249.303 127.688 249.982 128.005 252.563 125.877 254.148 123.885 253.287 123.568 250.752" fill="none" stroke="#231f20" stroke-linecap="round" stroke-linejoin="round" stroke-width=".5"/><polygon points="129.089 249.425 130.901 247.976 133.21 248.655 133.527 251.236 131.399 252.82 129.406 251.96 129.089 249.425" fill="none" stroke="#231f20" stroke-linecap="round" stroke-linejoin="round" stroke-width=".5"/><polygon points="134.983 248.044 136.794 246.595 139.103 247.274 139.42 249.855 137.292 251.44 135.299 250.58 134.983 248.044" fill="none" stroke="#231f20" stroke-linecap="round" stroke-linejoin="round" stroke-width=".5"/><polygon points="140.557 246.876 142.368 245.427 144.677 246.106 144.994 248.687 142.866 250.272 140.874 249.412 140.557 246.876" fill="none" stroke="#231f20" stroke-linecap="round" stroke-linejoin="round" stroke-width=".5"/><polygon points="146.132 245.549 147.943 244.1 150.252 244.779 150.569 247.36 148.441 248.945 146.448 248.084 146.132 245.549" fill="none" stroke="#231f20" stroke-linecap="round" stroke-linejoin="round" stroke-width=".5"/><polygon points="151.494 244.434 153.305 242.985 155.614 243.664 155.931 246.245 153.803 247.83 151.811 246.969 151.494 244.434" fill="none" stroke="#231f20" stroke-linecap="round" stroke-linejoin="round" stroke-width=".5"/><polygon points="156.962 243.266 158.773 241.817 161.082 242.496 161.399 245.077 159.271 246.662 157.279 245.802 156.962 243.266" fill="none" stroke="#231f20" stroke-linecap="round" stroke-linejoin="round" stroke-width=".5"/><polygon points="125.739 245.593 127.55 244.144 129.859 244.823 130.176 247.404 128.048 248.989 126.056 248.128 125.739 245.593" fill="none" stroke="#231f20" stroke-linecap="round" stroke-linejoin="round" stroke-width=".5"/><polygon points="131.444 244.325 133.255 242.876 135.564 243.555 135.881 246.136 133.753 247.721 131.761 246.861 131.444 244.325" fill="none" stroke="#231f20" stroke-linecap="round" stroke-linejoin="round" stroke-width=".5"/><polygon points="137.194 243.057 139.005 241.608 141.314 242.288 141.631 244.868 139.503 246.453 137.511 245.593 137.194 243.057" fill="none" stroke="#231f20" stroke-linecap="round" stroke-linejoin="round" stroke-width=".5"/><polygon points="142.718 241.925 144.529 240.477 146.838 241.156 147.155 243.736 145.027 245.321 143.035 244.461 142.718 241.925" fill="none" stroke="#231f20" stroke-linecap="round" stroke-linejoin="round" stroke-width=".5"/><polygon points="148.151 240.658 149.962 239.209 152.271 239.888 152.588 242.469 150.46 244.053 148.468 243.193 148.151 240.658" fill="none" stroke="#231f20" stroke-linecap="round" stroke-linejoin="round" stroke-width=".5"/><polygon points="153.539 239.526 155.35 238.077 157.659 238.756 157.976 241.337 155.848 242.921 153.856 242.061 153.539 239.526" fill="none" stroke="#231f20" stroke-linecap="round" stroke-linejoin="round" stroke-width=".5"/><polyline points="59.116 253.869 60.841 252.53 63.632 253.352 64.015 256.472 62.465 257.683" fill="none" stroke="#231f20" stroke-linecap="round" stroke-linejoin="round" stroke-width=".5"/><polygon points="65.219 252.749 67.409 250.998 70.201 251.819 70.584 254.939 68.011 256.855 65.603 255.815 65.219 252.749" fill="none" stroke="#231f20" stroke-linecap="round" stroke-linejoin="round" stroke-width=".5"/><polygon points="71.733 251.381 73.923 249.629 76.714 250.45 77.097 253.57 74.525 255.486 72.116 254.446 71.733 251.381" fill="none" stroke="#231f20" stroke-linecap="round" stroke-linejoin="round" stroke-width=".5"/><polygon points="78.04 249.971 80.229 248.219 83.021 249.04 83.404 252.16 80.831 254.076 78.423 253.036 78.04 249.971" fill="none" stroke="#231f20" stroke-linecap="round" stroke-linejoin="round" stroke-width=".5"/><polygon points="89.736 250.759 87.164 252.675 84.755 251.635 84.372 248.57 86.562 246.818 89.353 247.639 89.736 250.759" fill="none" stroke="#231f20" stroke-linecap="round" stroke-linejoin="round" stroke-width=".5"/><polygon points="82.088 254.643 84.278 252.891 87.069 253.712 87.452 256.832 84.88 258.748 82.471 257.708 82.088 254.643" fill="none" stroke="#231f20" stroke-linecap="round" stroke-linejoin="round" stroke-width=".5"/><polyline points="44.794 270.37 44.969 271.795 42.397 273.711 39.988 272.671 39.605 269.605 40.24 269.097" fill="none" stroke="#231f20" stroke-linecap="round" stroke-linejoin="round" stroke-width=".5"/><polyline points="54.665 266.102 55.886 265.125 58.678 265.946 59.061 269.066" fill="none" stroke="#231f20" stroke-linecap="round" stroke-linejoin="round" stroke-width=".5"/><polygon points="66.883 263.315 69.073 261.564 71.864 262.385 72.247 265.505 69.675 267.421 67.266 266.381 66.883 263.315" fill="none" stroke="#231f20" stroke-linecap="round" stroke-linejoin="round" stroke-width=".5"/><polygon points="73.366 261.967 75.555 260.216 78.347 261.037 78.73 264.157 76.157 266.073 73.749 265.033 73.366 261.967" fill="none" stroke="#231f20" stroke-linecap="round" stroke-linejoin="round" stroke-width=".5"/><polygon points="79.977 260.555 82.166 258.804 84.958 259.625 85.341 262.745 82.768 264.661 80.36 263.621 79.977 260.555" fill="none" stroke="#231f20" stroke-linecap="round" stroke-linejoin="round" stroke-width=".5"/><polyline points="49.505 261.909 51.694 260.157 54.486 260.978 54.869 264.098" fill="none" stroke="#231f20" stroke-linecap="round" stroke-linejoin="round" stroke-width=".5"/><polyline points="63.091 258.696 64.946 257.183 67.737 258.004 68.121 261.124 65.548 263.04" fill="none" stroke="#231f20" stroke-linecap="round" stroke-linejoin="round" stroke-width=".5"/><polygon points="69.325 257.402 71.514 255.65 74.306 256.472 74.689 259.592 72.116 261.507 69.708 260.467 69.325 257.402" fill="none" stroke="#231f20" stroke-linecap="round" stroke-linejoin="round" stroke-width=".5"/><polygon points="75.838 256.034 78.028 254.282 80.819 255.103 81.203 258.223 78.63 260.139 76.222 259.099 75.838 256.034" fill="none" stroke="#231f20" stroke-linecap="round" stroke-linejoin="round" stroke-width=".5"/><polyline points="46.197 260.162 45.813 257.096 48.003 255.345 50.795 256.166 51.178 259.286 48.605 261.202" fill="none" stroke="#231f20" stroke-linecap="round" stroke-linejoin="round" stroke-width=".5"/><polygon points="52.327 255.728 54.517 253.976 57.308 254.797 57.691 257.917 55.119 259.833 52.71 258.793 52.327 255.728" fill="none" stroke="#231f20" stroke-linecap="round" stroke-linejoin="round" stroke-width=".5"/><polygon points="58.634 254.318 60.823 252.566 63.615 253.387 63.998 256.507 61.425 258.423 59.017 257.383 58.634 254.318" fill="none" stroke="#231f20" stroke-linecap="round" stroke-linejoin="round" stroke-width=".5"/><polygon points="62.682 258.989 64.872 257.238 67.663 258.059 68.047 261.179 65.474 263.095 63.065 262.055 62.682 258.989" fill="none" stroke="#231f20" stroke-linecap="round" stroke-linejoin="round" stroke-width=".5"/><polygon points="60.363 265.334 62.552 263.582 65.344 264.403 65.727 267.523 63.154 269.439 60.746 268.399 60.363 265.334" fill="none" stroke="#231f20" stroke-linecap="round" stroke-linejoin="round" stroke-width=".5"/><polygon points="56.122 260.536 58.311 258.784 61.103 259.605 61.486 262.725 58.914 264.641 56.505 263.601 56.122 260.536" fill="none" stroke="#231f20" stroke-linecap="round" stroke-linejoin="round" stroke-width=".5"/><line x1="23.35" y1="245.226" x2="19.866" y2="232.231" fill="none" stroke="#231f20" stroke-linecap="round" stroke-linejoin="round" stroke-width=".5"/><line x1="202.369" y1="213.015" x2="202.635" y2="238.323" fill="none" stroke="#231f20" stroke-linecap="round" stroke-linejoin="round" stroke-width=".5"/><line x1="202.03" y1="180.682" x2="202.108" y2="188.078" fill="none" stroke="#231f20" stroke-linecap="round" stroke-linejoin="round" stroke-width=".5"/><line x1="44.467" y1="245.21" x2="180.679" y2="218.557" fill="none" stroke="#231f20" stroke-linecap="round" stroke-linejoin="round" stroke-width=".5"/><path d="M208.923,192.672v-10.811s.574-2.057,3.253-1.435l7.414,3.348s1.244.478,1.1,2.009" fill="none" stroke="#231f20" stroke-linecap="round" stroke-linejoin="round" stroke-width=".5"/><path d="M217.676,197.456v-11.672s.478-1.483,1.579-.526l37.559,17.955" fill="none" stroke="#231f20" stroke-linecap="round" stroke-linejoin="round" stroke-width=".5"/><path d="M256.387,218.143l.61-17.367c0-3.773,3.718-4.661,3.718-4.661l6.492-1.554s5.049-.777,11.763,3.329c0,0,7.824,3.163,8.989,13.261,0,0,1.665,13.594-10.764,23.859,0,0-4.55,3.773-13.872,6.492,0,0-1.609-.333-1.554-1.942l2.108-36.344s.055-2.747,1.998-3.385,6.436-2.081,6.436-2.081c0,0,4.994-1.054,9.599,3.107,0,0,5.882,5.826,5.16,13.039-.721,7.213-2.33,10.931-6.492,16.147-4.161,5.216-9.599,8.101-16.701,9.766,0,0-1.221.111-1.665-1.443" fill="none" stroke="#231f20" stroke-linecap="round" stroke-linejoin="round" stroke-width=".5"/><path d="M265.975,209.919s3.421-2.143,6.545,1.389,3.124,7.268,3.124,7.268l-.951,13.313s-1.019,5.026-5.434,4.279-4.415-3.532-4.415-3.532c0,0-.469-2.804-2.309-3.26" fill="none" stroke="#231f20" stroke-linecap="round" stroke-linejoin="round" stroke-width=".5"/><path d="M263.767,210.43s1.562.815,2.106-.679.679-8.015,7.607-10.324c0,0,6.453-1.562,11.343,5.57" fill="none" stroke="#231f20" stroke-linecap="round" stroke-linejoin="round" stroke-width=".5"/><path d="M274.771,199.97s10.189,7.675.883,23.909" fill="none" stroke="#231f20" stroke-linecap="round" stroke-linejoin="round" stroke-width=".5"/><path d="M262.918,224.078l3.358,1.891s.81-.27.425-1.274l-.579-.733.193-3.821s1.505-1.081.309-1.698-3.126-1.196-3.473-2.393" fill="none" stroke="#231f20" stroke-linecap="round" stroke-linejoin="round" stroke-width=".5"/><path d="M218.832,198.137v-6.183s-.059-1.413.766-1.06,4.947,2.473,4.947,2.473c0,0,1.001.412,1.001,1.296v6.655" fill="none" stroke="#231f20" stroke-linecap="round" stroke-linejoin="round" stroke-width=".5"/><line x1="258.709" y1="238.835" x2="262.35" y2="241.081" fill="none" stroke="#231f20" stroke-linecap="round" stroke-linejoin="round" stroke-width=".5"/><path d="M213.525,180.498l60.006-9.331s2.172-.483,2.172,1.287-1.207,18.259-1.207,18.259c0,0,.483,1.689-1.93,2.172-2.413.483-26.142,5.067-26.142,5.067" fill="none" stroke="#231f20" stroke-linecap="round" stroke-linejoin="round" stroke-width=".5"/><polyline points="231.784 191.115 252.939 187.254 254.387 188.059 254.306 194.574 243.689 196.826" fill="none" stroke="#231f20" stroke-linecap="round" stroke-linejoin="round" stroke-width=".5"/><line x1="233.795" y1="191.839" x2="254.387" y2="188.059" fill="none" stroke="#231f20" stroke-linecap="round" stroke-linejoin="round" stroke-width=".5"/><line x1="246.087" y1="189.648" x2="246.087" y2="196.064" fill="none" stroke="#231f20" stroke-linecap="round" stroke-linejoin="round" stroke-width=".5"/><line x1="237.802" y1="191.22" x2="237.802" y2="193.727" fill="none" stroke="#231f20" stroke-linecap="round" stroke-linejoin="round" stroke-width=".5"/><path d="M319.751,164.15l-41.494,6.255s-1.843.391-1.843,1.955-.782,16.53-.782,16.53c0,0-.112,1.731,2.178,1.34l40.454-7.479" fill="none" stroke="#231f20" stroke-linecap="round" stroke-linejoin="round" stroke-width=".5"/><path d="M282.782,192.242l-1.036.196s-1.115.215-.332.43,1.76.391,1.76.391c0,0,1.701.548,2.073.997s1.271.372,1.662.254,2.601-.567,2.601-.567l4.947-.313s1.173.117,1.095-.645-.508-2.542-.508-2.542c0,0-.137-.567-1.095-.372s-11.165,2.17-11.165,2.17Z" fill="none" stroke="#231f20" stroke-linecap="round" stroke-linejoin="round" stroke-width=".295"/><path d="M283.603,193.361s-.039-.688,1.525-1.192l.098,1.813,4.263-.739s1.936-.218,3.187.319" fill="none" stroke="#231f20" stroke-linecap="round" stroke-linejoin="round" stroke-width=".295"/><path d="M292.813,193.596c1.193-.353.567-1.108.567-1.108-.782-.974-4.126-1.058-4.126-1.058l.215,1.679" fill="none" stroke="#231f20" stroke-linecap="round" stroke-linejoin="round" stroke-width=".295"/><polyline points="278.519 193.721 280.352 194.232 281.344 195.224 283.268 196.576 283.358 199.913 282.516 200.063" fill="none" stroke="#231f20" stroke-linecap="round" stroke-linejoin="round" stroke-width=".295"/><path d="M283.418,197.388l1.443.812s1.202.451,2.555.15,8.776-2.224,8.776-2.224c0,0,.721-.301.751-.812s-.054-1.966-.054-1.966" fill="none" stroke="#231f20" stroke-linecap="round" stroke-linejoin="round" stroke-width=".295"/><path d="M320.37,185.323l-1.049-.863-43.536,8.452.264,1.984.641.565,1.771-.226.49.377.075,1.809,3.43,2.601-.113-3.354-2.676-1.658s-.415-.905-2.676-.98c0,0-.603-.452.377-.528s2.035-.264,2.035-.264l3.015.678,1.997,1.018s1.206.565,2.827.188,2.487-.603,2.487-.603l5.05-.264,1.394-.264s.791-.113.716-.98-.49-2.45-.49-2.45c0,0-.339-.339.641-.565s23.329-4.673,23.329-4.673l-.038,1.922-23.367,4.598" fill="none" stroke="#231f20" stroke-linecap="round" stroke-linejoin="round" stroke-width=".295"/><polyline points="320.648 186.315 322.176 186.049 322.269 184.98 320.385 185.236" fill="none" stroke="#231f20" stroke-linecap="round" stroke-linejoin="round" stroke-width=".295"/><line x1="286.967" y1="195.286" x2="287.415" y2="198.35" fill="none" stroke="#231f20" stroke-linecap="round" stroke-linejoin="round" stroke-width=".295"/><polygon points="288.157 195.966 288.384 197.127 289.375 196.306 288.157 195.966" fill="#231f20"/><path d="M274.496,190.713s2.942,1.562,5.097,1.162" fill="none" stroke="#231f20" stroke-linecap="round" stroke-linejoin="round" stroke-width=".5"/><line x1="323.478" y1="183.957" x2="323.245" y2="186.84" fill="none" stroke="#231f20" stroke-linecap="round" stroke-linejoin="round" stroke-width=".295"/><polyline points="285.712 224.916 289.574 223.659 289.933 220.605 286.79 221.593" fill="none" stroke="#231f20" stroke-linecap="round" stroke-linejoin="round" stroke-width=".295"/><line x1="290.003" y1="220.315" x2="287.776" y2="218.453" fill="none" stroke="#231f20" stroke-linecap="round" stroke-linejoin="round" stroke-width=".295"/><line x1="289.711" y1="219.913" x2="315.346" y2="211.624" fill="none" stroke="#231f20" stroke-linecap="round" stroke-linejoin="round" stroke-width=".5"/><line x1="287.849" y1="217.722" x2="313.557" y2="209.762" fill="none" stroke="#231f20" stroke-linecap="round" stroke-linejoin="round" stroke-width=".5"/><path d="M301.47,196.141l-1.534,15.301s-.037.803.913.584,5.733-1.497,5.733-1.497c0,0,1.096-.365,1.169-1.424s1.461-14.57,1.461-14.57c0,0,.146-.913-.621-.73s-6.281,1.315-6.281,1.315c0,0-.913.146-.84,1.022Z" fill="none" stroke="#231f20" stroke-linecap="round" stroke-linejoin="round" stroke-width=".5"/><path d="M309,193.807l-2.454-1.208s-.913-.548-1.68-.365-6.281,1.315-6.281,1.315c0,0-.913.146-.84,1.022l-1.534,15.301s-.219.658.851,1.048l3.236,1.168" fill="none" stroke="#231f20" stroke-linecap="round" stroke-linejoin="round" stroke-width=".5"/><line x1="307.874" y1="209.679" x2="312.999" y2="208.258" fill="none" stroke="#231f20" stroke-linecap="round" stroke-linejoin="round" stroke-width=".5"/><line x1="288.309" y1="214.453" x2="299.087" y2="211.823" fill="none" stroke="#231f20" stroke-linecap="round" stroke-linejoin="round" stroke-width=".5"/><line x1="275.975" y1="217.462" x2="278.606" y2="216.82" fill="none" stroke="#231f20" stroke-linecap="round" stroke-linejoin="round" stroke-width=".5"/><polyline points="309.257 193.781 309.42 191.831 320.189 189.677 318.889 188.986 308.079 191.14 307.835 192.969" fill="none" stroke="#231f20" stroke-linecap="round" stroke-linejoin="round" stroke-width=".5"/><line x1="320.189" y1="189.677" x2="319.498" y2="197.195" fill="none" stroke="#231f20" stroke-linecap="round" stroke-linejoin="round" stroke-width=".5"/><path d="M320.609,189.325s.174-.827.715-1.418c.19-.208.426-.387.716-.49,1.113-.398,1.829-.477,1.829-.477,0,0,2.703.239,3.737,1.829s6.678,11.726,6.678,11.726c0,0,1.59,2.345,1.312,4.412s-.358,3.021-.358,3.021l-2.266.477s-.517.398-1.749-.119-3.14-1.232-3.14-1.232" fill="none" stroke="#231f20" stroke-linecap="round" stroke-linejoin="round" stroke-width=".5"/><path d="M321.682,187.814c1.868.08,2.822,1.511,2.822,1.511l7.95,13.436s.557,1.272.517,2.504-.278,2.981-.278,2.981" fill="none" stroke="#231f20" stroke-linecap="round" stroke-linejoin="round" stroke-width=".5"/><path d="M323.168,212.336l6.551,2.612s2.693.764,3.858-1.125" fill="none" stroke="#231f20" stroke-linecap="round" stroke-linejoin="round" stroke-width=".5"/><path d="M318.425,207.844l32.69,12.701,2.856.256s2.088-1.193.852-2.344-2.289-1.726-2.289-1.726l-32.206-11.877" fill="none" stroke="#231f20" stroke-linecap="round" stroke-linejoin="round" stroke-width=".5"/><polyline points="320.416 209.228 317.705 209.858 318.17 205.039 321.046 204.409 316.171 202.492 313.159 203.04 312.557 207.941 317.513 209.995" fill="none" stroke="#231f20" stroke-linecap="round" stroke-linejoin="round" stroke-width=".5"/><line x1="313.159" y1="203.04" x2="318.061" y2="204.984" fill="none" stroke="#231f20" stroke-linecap="round" stroke-linejoin="round" stroke-width=".5"/><path d="M323.078,205.847l.584-4.85s.057-.772-.858-1.086-6.689-2.344-6.689-2.344c0,0-.8-.057-.772.629l-.588,4.421" fill="none" stroke="#231f20" stroke-linecap="round" stroke-linejoin="round" stroke-width=".5"/><path d="M313.955,208.632l-.213,1.599s-.2.6.8.943,5.889,2.458,5.889,2.458c0,0,1.515.686,1.744-.286l.456-3.791" fill="none" stroke="#231f20" stroke-linecap="round" stroke-linejoin="round" stroke-width=".5"/><path d="M318.104,198.239s1.022-.933,2.577-.933l6.443,2.399" fill="none" stroke="#231f20" stroke-linecap="round" stroke-linejoin="round" stroke-width=".5"/><path d="M323.702,200.683s1.6-1.644,3.688-.622c0,0,1.466.978,1.289,2.933,0,0,.222,2.888-1.333,3.955" fill="none" stroke="#231f20" stroke-linecap="round" stroke-linejoin="round" stroke-width=".5"/><path d="M317.425,197.852l.529-4.647s.232-1.26-1.07-1.014c-1.456.275-4.021.873-4.021.873l-2.084,3.774-.451,6.932,1.07,2.926,1.352-.282" fill="none" stroke="#231f20" stroke-linecap="round" stroke-linejoin="round" stroke-width=".5"/><path d="M285.579,175.37s1.039-.32,1.079.44-.24,5.795-.24,5.795c0,0,.16.719-.4.759s-4.716.719-4.716.719c0,0-.639.16-.6-.679s.44-5.595.44-5.595c0,0,.08-.839.759-.919s3.677-.52,3.677-.52Z" fill="none" stroke="#231f20" stroke-linecap="round" stroke-linejoin="round" stroke-width=".5"/><path d="M286.407,175.273l-1.866-.816c-.314-.092-.72.033-.72.033,0,0-2.998.44-3.677.52s-.759.919-.759.919c0,0-.4,4.756-.44,5.595-.015.315.066.489.172.584l1.795.942" fill="none" stroke="#231f20" stroke-linecap="round" stroke-linejoin="round" stroke-width=".5"/><path d="M314.7,169.87s.874-.269.908.37-.202,4.877-.202,4.877c0,0,.135.605-.336.639s-12.833,2.026-12.833,2.026c0,0-.538.135-.505-.572s.37-4.709.37-4.709c0,0,.067-.706.639-.774s11.959-1.858,11.959-1.858Z" fill="none" stroke="#231f20" stroke-linecap="round" stroke-linejoin="round" stroke-width=".421"/><path d="M315.396,169.788l-1.571-.686c-.264-.077-9.47,1.448-9.47,1.448,0,0-2.523.37-3.094.437s-.639.774-.639.774c0,0-.336,4.002-.37,4.709-.013.265.055.411.145.491l1.51.793" fill="none" stroke="#231f20" stroke-linecap="round" stroke-linejoin="round" stroke-width=".421"/><path d="M298.687,173.033s1.039-.32,1.079.44-.24,5.795-.24,5.795c0,0,.16.719-.4.759s-9.999,1.83-9.999,1.83c0,0-.639.16-.6-.679s.44-5.595.44-5.595c0,0,.08-.839.759-.919s8.96-1.63,8.96-1.63Z" fill="none" stroke="#231f20" stroke-linecap="round" stroke-linejoin="round" stroke-width=".5"/><path d="M299.515,172.936l-1.866-.816c-.314-.092-.72.033-.72.033,0,0-8.28,1.55-8.96,1.63s-.759.919-.759.919c0,0-.4,4.756-.44,5.595-.015.315.066.489.172.584l1.795.942" fill="none" stroke="#231f20" stroke-linecap="round" stroke-linejoin="round" stroke-width=".5"/><line x1="294.594" y1="174.003" x2="294.096" y2="180.701" fill="none" stroke="#231f20" stroke-linecap="round" stroke-linejoin="round" stroke-width=".5"/><line x1="308.724" y1="170.878" x2="308.298" y2="176.608" fill="none" stroke="#231f20" stroke-linecap="round" stroke-linejoin="round" stroke-width=".421"/><path d="M321.624,163.274l10.74,2.38s.515.129.515.965c0,0-1.222-.322-1.351.257l-.386,1.415s-.45,1.029-1.672.643-8.747-2.251-8.747-2.251l-.643-.836.257-1.994s.386-.45,1.286-.579Z" fill="none" stroke="#231f20" stroke-linecap="round" stroke-linejoin="round" stroke-width=".421"/><line x1="332.879" y1="166.618" x2="373.347" y2="176.488" fill="none" stroke="#231f20" stroke-linecap="round" stroke-linejoin="round" stroke-width=".421"/><line x1="330.943" y1="168.895" x2="370.912" y2="178.78" fill="none" stroke="#231f20" stroke-linecap="round" stroke-linejoin="round" stroke-width=".421"/><path d="M320.723,166.682l-.095,1.998s-1.576,1.647-1.647,2.865l-.287,3.152.716,1.862-.072,2.65" fill="none" stroke="#231f20" stroke-linecap="round" stroke-linejoin="round" stroke-width=".421"/><path d="M349.765,173.617s2.14.632,1.965,2l-1.754,10.773s-.211,1.404-1.474,1.018l-7.369-2.105s-1.368-.356-1.228-1.369v-.594l-17.825-5.208-.106-.303-.07-.842-1.053-1.895.456-3.509,1.369-2,.14-1.018,18.177,4.632s.667-1.544,2.562-1.228" fill="none" stroke="#231f20" stroke-linecap="round" stroke-linejoin="round" stroke-width=".421"/><path d="M324.143,169.136s-3.549,4.2-.786,9.077" fill="none" stroke="#231f20" stroke-linecap="round" stroke-linejoin="round" stroke-width=".421"/><path d="M392.111,173.935l-8.608-2.029s-9.308-.63-16.796,14.626c-7.488,15.256,3.079,20.505,3.079,20.505l7.138,2.169s4.689,1.12,9.098-2.589l1.33-5.948" fill="none" stroke="#231f20" stroke-linecap="round" stroke-linejoin="round" stroke-width=".421"/><path d="M320.169,179.954l8.748,2.379-.14,1.959,1.12.35-.07.77-.77.07-10.217-3.149s-1.47-2.169.7-2.659" fill="none" stroke="#231f20" stroke-linecap="round" stroke-linejoin="round" stroke-width=".421"/><line x1="330.737" y1="184.853" x2="363.838" y2="194.79" fill="none" stroke="#231f20" stroke-linecap="round" stroke-linejoin="round" stroke-width=".421"/><line x1="329.195" y1="182.659" x2="364.053" y2="193.139" fill="none" stroke="#231f20" stroke-linecap="round" stroke-linejoin="round" stroke-width=".421"/><path d="M370.218,180.093l-15.194-3.866s-1.492-.271-1.764,1.221-1.492,8.14-1.492,8.14c0,0,.136,1.696,1.492,2.035s11.599,3.256,11.599,3.256" fill="none" stroke="#231f20" stroke-linecap="round" stroke-linejoin="round" stroke-width=".421"/><path d="M375.857,175.052s2.839-1.506,4.75-.29.174,2.491.174,2.491c0,0-5.33,3.07-8.168,21.55,0,0,.058,7.994,4.982,9.5,0,0,2.549.985,5.156-2.085" fill="none" stroke="#231f20" stroke-linecap="round" stroke-linejoin="round" stroke-width=".421"/><path d="M374.965,202.908c2.659-1.05,4.059-10.007,4.059-10.007l8.258,2.169-.98,4.129c-2.029,9.028-7.558,8.328-7.558,8.328-7.208-2.239-4.549-14.066-4.549-14.066,1.816-7.14,4.768-11.573,7.506-14.299,3.489-3.473,6.63-4.176,6.63-4.176,4.549-1.61,3.709,0,3.709,0l-.958,7.277v7.503s-1.307,3.288-1.728,4.51-1.518.97-1.518.97l-12.14-3.667s1.349-2.318,1.897-3.583,1.981-1.602,1.981-1.602l7.841,2.066s-.927.569-.843,1.328,1.222,3.752,1.222,3.752l.885-3.246-1.644-.464" fill="none" stroke="#231f20" stroke-linecap="round" stroke-linejoin="round" stroke-width=".421"/><path d="M381.702,179.161c1.541,7.21,5.925,3.775,5.587,3.859l-4.426-1.37" fill="none" stroke="#231f20" stroke-linecap="round" stroke-linejoin="round" stroke-width=".421"/><path d="M379.364,185.697s.379-.59,1.855-.211,5.649,1.475,5.649,1.475c0,0,1.728.632,1.096,2.656" fill="none" stroke="#231f20" stroke-linecap="round" stroke-linejoin="round" stroke-width=".421"/><path d="M374,197.982s2.635.941,4.141-1.067" fill="none" stroke="#231f20" stroke-linecap="round" stroke-linejoin="round" stroke-width=".421"/><path d="M391.083,182.262s2.24-1.407,5.69.162,4.454,5.583,4.454,5.583l-2.698,12.673s-2.635,3.45-6.399,2.447-3.878-1.895-5.828-3.927" fill="none" stroke="#231f20" stroke-linecap="round" stroke-linejoin="round" stroke-width=".421"/><path d="M391.44,185.497s.502-1.38,3.513-.753c3.011.627,2.949,4.141,2.949,4.141l-2.196,10.289s-1.631,2.698-5.834,1.004c0,0-2.196-3.45-2.76-3.513" fill="none" stroke="#231f20" stroke-linecap="round" stroke-linejoin="round" stroke-width=".421"/><ellipse cx="347.905" cy="176.329" rx="1.466" ry="1.536" fill="none" stroke="#231f20" stroke-linecap="round" stroke-linejoin="round" stroke-width=".421"/><ellipse cx="346.741" cy="184.104" rx="1.466" ry="1.536" fill="none" stroke="#231f20" stroke-linecap="round" stroke-linejoin="round" stroke-width=".421"/><line x1="250.35" y1="199.921" x2="257.121" y2="198.521" fill="none" stroke="#231f20" stroke-linecap="round" stroke-linejoin="round" stroke-width=".421"/><polyline points="322.203 184.695 321.048 184.206 319.321 184.46" fill="none" stroke="#231f20" stroke-linecap="round" stroke-linejoin="round" stroke-width=".295"/><line x1="211.455" y1="231.452" x2="228.624" y2="227.894" fill="none" stroke="#231f20" stroke-linecap="round" stroke-linejoin="round" stroke-width=".295"/><line x1="211.492" y1="232.937" x2="229.308" y2="229.498" fill="none" stroke="#231f20" stroke-linecap="round" stroke-linejoin="round" stroke-width=".295"/><line x1="213.163" y1="235.819" x2="232.749" y2="232.001" fill="none" stroke="#231f20" stroke-linecap="round" stroke-linejoin="round" stroke-width=".295"/><line x1="206.652" y1="197.56" x2="206.652" y2="208.715" fill="none" stroke="#231f20" stroke-linecap="round" stroke-linejoin="round" stroke-width=".5"/><line x1="30.844" y1="277.848" x2="28.595" y2="268.755" fill="none" stroke="#231f20" stroke-linecap="round" stroke-linejoin="round" stroke-width=".5"/></g><g id="b"><path d="M43.233,259.176l-.467.583c16.765,4.552,22.316,18.291,22.316,18.291l1.443,7.716.833,7.716s-1.221,14.211-11.991,23.648c-14.822,10.547-23.204,11.269-29.699,13.434s-7.439-1.998-7.439-1.998l.111-1.554-1.055-.999-2.72-7.439s-2.331-8.715-3.775-16.098-1.358-12.563-1.358-12.563l-4.138-16.692.611-7.938s1.499-2.331,6.156-3.211l.855-19.389-3.984-18.192,4.687-15.179,181.376-27.307,20.773,8.925.742,4.674,4.823,2.226,1.632,2.374,28.269,14.765,1.707.445,11.364-2.997,7.937,3.788,1.263,2.165-.16,8.47.519,1.261s4.452,0,6.752,6.01l.594,4.303-.634,14.443s-.553,6.035-5.376,5.516l-3.561-1.632s.519,5.268-2.894,6.752-7.568,2.968-7.568,2.968c0,0-9.423,1.336-17.214-5.194s-8.978-16.62-8.978-16.62c0,0-1.113-5.862,1.632-11.946l-2.003-.074-11.426-7.42-1.929-.148s-1.781-.074-3.413-1.484-3.339-2.597-3.339-2.597l.422,4.498-11.843,14.982,11.843,3.068s1.518.467,1.479,2.258.156,3.776.156,3.776l-2.336,6.19.156,5.294s-.195,1.869-1.324,1.791-14.676-.467-14.676-.467l-1.207,1.83-6.54-2.297-7.825-.662-4.905-4.438-4.087-2.452s-1.903-1.666-.27-3.617l18.358-20.079-66.827,12.419.759.78,2.168-.111.765,5.182-10.759,1.68s-2.838-.463-4.518-1.564-4.37-2.437-4.37-2.437l-65.894,12.574M22.843,271.672l-.255,33.913c1.961,8.947-.335,15.281-.335,15.281,11.375-1.256,21.864-7.091,21.864-7.091,16.62-7.83,18.466-25.262,18.466-25.262l-.369-2.881c-2.142-5.614-8.199-10.341-8.199-10.341-15.586-11.228-30.063-5.244-30.063-5.244l-1.108,1.625Z" fill="#dcddde"/><line x1="22.959" y1="285.315" x2="30.167" y2="283.643" fill="none" stroke="#231f20" stroke-linecap="round" stroke-linejoin="round" stroke-width=".555"/><polyline points="13.393 209.452 8.934 224.492 12.957 243.508" fill="none" stroke="#231f20" stroke-linecap="round" stroke-linejoin="round" stroke-width=".555"/><line x1="12.116" y1="261.286" x2="13.431" y2="233.371" fill="none" stroke="#231f20" stroke-linecap="round" stroke-linejoin="round" stroke-width=".555"/><line x1="10.996" y1="285.052" x2="11.653" y2="271.113" fill="none" stroke="#231f20" stroke-linecap="round" stroke-linejoin="round" stroke-width=".555"/><line x1="14.192" y1="260.931" x2="15.883" y2="233.033" fill="none" stroke="#231f20" stroke-linecap="round" stroke-linejoin="round" stroke-width=".555"/><path d="M11.63,232.898l.809-7.735s1.457-1.136,4.429-.728c0,0,.962.207,1.107.992l.537,3.641-.033,6.787-.727-3.346s-.407-1.076-1.891-.785l-2.793.175s-1.804.553-1.542,2.066l1.164,5.295" fill="none" stroke="#231f20" stroke-linecap="round" stroke-linejoin="round" stroke-width=".555"/><path d="M17.978,327.559c.548,4.25,5.21,3.565,5.21,3.565,20.155-4.113,31.809-13.574,31.809-13.574,0,0,15.197-14.046,11.796-29.39-.666-3.005-2.045-6.06-4.392-9.069-14.328-18.373-38.185-13.642-38.185-13.642,0,0-9.598,2.605-13.917,3.839-4.319,1.234-5.073,3.428-5.073,3.428l.754-7.404s1.111-1.772,4.375-2.78c3.264-1.008,11.521-3.312,11.521-3.312,0,0,15.601-3.6,28.658,3.648,0,0,11.471,6.483,14.64,15.754l1.659,9.119" fill="none" stroke="#231f20" stroke-linecap="round" stroke-linejoin="round" stroke-width=".555"/><path d="M20.104,327.491s.069,2.399,2.537,2.057c2.468-.343,26.257-5.69,34.483-17.482,0,0,12.614-14.054,6.65-27.422,0,0-5.416-14.465-26.119-17.893,0,0-5.484-1.371-13.917.411l-13.711,3.976s-3.428.617-2.537,4.456c.891,3.839,2.468,10.009,2.468,10.009" fill="none" stroke="#231f20" stroke-linecap="round" stroke-linejoin="round" stroke-width=".555"/><line x1="9.011" y1="289.011" x2="5.227" y2="272.715" fill="none" stroke="#231f20" stroke-linecap="round" stroke-linejoin="round" stroke-width=".555"/><path d="M14.55,286.561s-4.499-4.411-5.117,3.352c0,0-1.147,8.91,7.234,34.669,0,0,1.323,4.587,4.852,1.764l1.323-7.057s1.116-7.046-.255-13.704l.467-34.863" fill="none" stroke="#231f20" stroke-linecap="round" stroke-linejoin="round" stroke-width=".555"/><path d="M12.786,284.796s-1.5-17.026,18.702-18.349" fill="none" stroke="#231f20" stroke-linecap="round" stroke-linejoin="round" stroke-width=".555"/><path d="M14.815,286.208s-1.853-18.878,20.29-17.82c0,0,25.759.529,29.553,25.847" fill="none" stroke="#231f20" stroke-linecap="round" stroke-linejoin="round" stroke-width=".555"/><path d="M22.878,270.516c1.104,4.382,2.089,8.296,2.089,8.296l1.648-.485-2.08-8.444" fill="none" stroke="#231f20" stroke-linecap="round" stroke-linejoin="round" stroke-width=".555"/><line x1="19.75" y1="256.145" x2="20.354" y2="247.092" fill="none" stroke="#231f20" stroke-linecap="round" stroke-linejoin="round" stroke-width=".555"/><path d="M23.008,320.968s20.606-3.217,31.561-14.954c0,0,7.651-8.086,7.999-19.041" fill="none" stroke="#231f20" stroke-linecap="round" stroke-linejoin="round" stroke-width=".555"/><path d="M42.817,259.338l66.311-12.736,5.679,3.032s1.302,1.263,3.827.829c2.525-.434,10.141-1.539,10.141-1.539l-.592-4.893" fill="none" stroke="#231f20" stroke-linecap="round" stroke-linejoin="round" stroke-width=".555"/><path d="M39.439,258.68l65.637-13.061,2.926-3.433,1.278-.111,5.169,3.224s1.445,1.167,3.891.723,8.726-1.223,8.726-1.223c0,0,1.278-.056.945-1.056l-2.168.111-6.336-3.891s-.111-1.223,1.779-1.445l-13.95,2.39-3.168,3.224-71.589,13.971" fill="none" stroke="#231f20" stroke-linecap="round" stroke-linejoin="round" stroke-width=".555"/><path d="M113.419,240.945l2.03-.302s1.08-.259,2.159.345,4.059,2.289,4.059,2.289c0,0,1.036.561.259.821s-3.757.691-3.757.691c0,0-.605.173-1.598-.389s-4.232-2.591-4.232-2.591c0,0-.518-.605,1.08-.864Z" fill="none" stroke="#231f20" stroke-linecap="round" stroke-linejoin="round" stroke-width=".555"/><path d="M222.252,200.053l.032-1.434c-2.52-.409-2.484,1.434-2.484,1.434v2.384l-.885.136s-6.13-3.065-7.015-3.474-.954-2.18-.954-2.18c-.204-1.635.244-2.08.244-2.08,1.158-1.09,2.6-.62,2.6-.62l8.283,3.945" fill="none" stroke="#231f20" stroke-linecap="round" stroke-linejoin="round" stroke-width=".555"/><path d="M214.908,202.175l13.925,7.421s.097-1.462,1.511-1.17" fill="none" stroke="#231f20" stroke-linecap="round" stroke-linejoin="round" stroke-width=".555"/><polygon points="214.134 202.816 212.454 205.306 212.503 210.035 214.696 212.082 214.696 213.74 213.965 213.593 213.819 212.667 212.551 211.887 210.504 209.499 210.504 204.624 212.353 201.906 214.134 202.816" fill="none" stroke="#231f20" stroke-linecap="round" stroke-linejoin="round" stroke-width=".555"/><line x1="256.533" y1="222.279" x2="259.305" y2="223.777" fill="none" stroke="#231f20" stroke-linecap="round" stroke-linejoin="round" stroke-width=".555"/><line x1="219.8" y1="202.437" x2="247.724" y2="217.52" fill="none" stroke="#231f20" stroke-linecap="round" stroke-linejoin="round" stroke-width=".555"/><line x1="220.682" y1="199.311" x2="252.064" y2="215.556" fill="none" stroke="#231f20" stroke-linecap="round" stroke-linejoin="round" stroke-width=".555"/><path d="M244.224,238.923l13.327,8.643s2.468,1.913,3.764-.062" fill="none" stroke="#231f20" stroke-linecap="round" stroke-linejoin="round" stroke-width=".555"/><path d="M222.204,224.747c-2.152.768-2.92-.256-2.92-.256,0,0-6.711-4.406-7.429-4.867s-.666-.973-.666-.973c0,0,.051-1.127.051-1.844s1.281-.768,1.281-.768l6.916,4.611s.564.564.564,1.23v1.742s.256.461,1.178.359l14.384,9.328" fill="none" stroke="#231f20" stroke-linecap="round" stroke-linejoin="round" stroke-width=".555"/><path d="M245.364,236.839l12.631,7.937s1.312,1.094,1.385-3.062" fill="none" stroke="#231f20" stroke-linecap="round" stroke-linejoin="round" stroke-width=".555"/><line x1="219.941" y1="220.864" x2="236.757" y2="231.431" fill="none" stroke="#231f20" stroke-linecap="round" stroke-linejoin="round" stroke-width=".555"/><path d="M273.056,227.391s.451-7.667.451-9.02-1.263-2.165-1.263-2.165l-7.937-3.788s-14.251,2.255-19.212,8.028c-4.961,5.773-11.906,14.071-10.643,24.985,0,0,.992,10.012,11.906,17.588,0,0,9.2,5.412,16.055,2.886l7.216-2.796s2.165-.541,1.894-6.855" fill="none" stroke="#231f20" stroke-linecap="round" stroke-linejoin="round" stroke-width=".555"/><path d="M271.433,227.752l.631-9.2s0-1.714-2.255-1.082c0,0-17.137,1.173-24.263,17.588,0,0-5.773,10.643.361,23.091,0,0,4.059,6.584,13.62,5.773,0,0,7.757-1.082,8.839-12.628l.205-2.817.699-.381.064-1.398s2.732-7.751,1.334-17.726l.766-1.219Z" fill="none" stroke="#231f20" stroke-linecap="round" stroke-linejoin="round" stroke-width=".555"/><path d="M247.08,219.544s3.337-2.886,6.224-2.165c0,0,2.616,1.263.18,3.247,0,0-6.555,5.829-8.749,11.094-2.255,5.412-5.502,11.635-1.533,24.804,0,0,2.886,7.126,11.545,8.569,0,0,12.718,2.796,14.522-12.086" fill="none" stroke="#231f20" stroke-linecap="round" stroke-linejoin="round" stroke-width=".555"/><path d="M261.231,243.129s1.258,7.546-2.695,12.128c0,0-4.402,6.468-12.038,3.054" fill="none" stroke="#231f20" stroke-linecap="round" stroke-linejoin="round" stroke-width=".555"/><path d="M260.565,220.076s2.351,1.334,2.923,4.13c.572,2.796,3.621,3.749,3.621,3.749,0,0,0,2.796-2.796.762,0,0-2.287-1.843-2.732-5.909,0,0-2.16-1.461-2.478,1.97s-.762,9.784-.762,9.784l-1.779,4.13s-.127,1.588,1.271,2.16c1.398.572,8.704,5.146,8.704,5.146" fill="none" stroke="#231f20" stroke-linecap="round" stroke-linejoin="round" stroke-width=".555"/><path d="M258.85,233.609s.826-1.144,2.605-.826l6.353,3.304.318,1.779s-1.203-.129-1.63.496c-.092.135-.149.306-.149.52l.953,5.4s1.207.762,1.271-.508.191-3.621.191-3.621c0,0,.254-1.144-1.588-1.334" fill="none" stroke="#231f20" stroke-linecap="round" stroke-linejoin="round" stroke-width=".555"/><path d="M268.571,250.763l1.906,4.257c1.97,4.003,6.163,3.367,6.163,3.367,3.367-.318,3.939-5.528,3.939-5.528l.699-15.312c-.762-7.942-6.417-9.594-6.417-9.594-3.367-.445-3.558,1.334-3.558,1.334,0,0,5.803.904,7.503,6.711,0,0,.496,1.77.496,3.683,0,1.713-.708,13.385-.708,13.385,0,0-1.7,3.399-5.099,1.558,0,0-1.629-.991-2.62-3.399-.991-2.408-1.604-3.131-1.604-3.131" fill="none" stroke="#231f20" stroke-linecap="round" stroke-linejoin="round" stroke-width=".555"/><path d="M271.303,237.04l1.906,1.08s.889,1.08-.318,1.334l-1.652.191" fill="none" stroke="#231f20" stroke-linecap="round" stroke-linejoin="round" stroke-width=".555"/><path d="M270.223,244.728l2.287.127s1.906,1.144.191,1.588l-1.588-1.271" fill="none" stroke="#231f20" stroke-linecap="round" stroke-linejoin="round" stroke-width=".555"/><path d="M13.164,286.426s-1.295.299-.398,8.567c.897,8.268,1.992,12.054,1.992,12.054l4.582,16.935s1.295,1.494,2.092,0" fill="none" stroke="#231f20" stroke-linecap="round" stroke-linejoin="round" stroke-width=".555"/><polyline points="17.849 298.984 15.66 300.463 17.375 307.147 19.328 306.201" fill="none" stroke="#231f20" stroke-linecap="round" stroke-linejoin="round" stroke-width=".555"/><path d="M104.778,242.034s-69.445,13.256-72.613,13.959c-3.167.704-3.871-1.056-3.871-1.056,0,0-5.279-23.931-5.983-26.981-.704-3.05,1.29-3.402,1.29-3.402l106.984-16.775s2.933-.704,3.402,2.346l2.011,23.298s.62,2.419-2.357,2.977c-2.977.558-11.993,2.04-11.993,2.04" fill="none" stroke="#231f20" stroke-linecap="round" stroke-linejoin="round" stroke-width=".555"/><path d="M33.242,225.207l19.055-3.176s1.512-.076,1.815,1.512,1.739,9.452,1.739,9.452c0,0,.227,1.664-1.285,1.89s-19.055,3.327-19.055,3.327c0,0-1.361,0-1.664-1.588s-1.89-10.208-1.89-10.208c0,0-.454-.832,1.285-1.21Z" fill="none" stroke="#231f20" stroke-linecap="round" stroke-linejoin="round" stroke-width=".555"/><path d="M35.795,241.96l60.752-10.901s1.512-.076,1.815,1.512.775,6.778.775,6.778c0,0,.227,1.664-1.285,1.89s-60.118,11.685-60.118,11.685c0,0-1.361,0-1.664-1.588s-1.559-8.167-1.559-8.167c0,0-.454-.832,1.285-1.21Z" fill="none" stroke="#231f20" stroke-linecap="round" stroke-linejoin="round" stroke-width=".555"/><path d="M59.379,221.032l17.349-3.006s1.376-.068,1.645,1.472,1.544,9.166,1.544,9.166c0,0,.2,1.613-1.177,1.827s-17.35,3.152-17.35,3.152c0,0-1.238-.005-1.507-1.545s-1.679-9.899-1.679-9.899c0,0-.409-.808,1.174-1.168Z" fill="none" stroke="#231f20" stroke-linecap="round" stroke-linejoin="round" stroke-width=".555"/><line x1="51.209" y1="239.156" x2="53.242" y2="249.322" fill="none" stroke="#231f20" stroke-linecap="round" stroke-linejoin="round" stroke-width=".555"/><line x1="66.991" y1="236.445" x2="69.024" y2="246.611" fill="none" stroke="#231f20" stroke-linecap="round" stroke-linejoin="round" stroke-width=".555"/><line x1="82.676" y1="233.637" x2="84.71" y2="243.803" fill="none" stroke="#231f20" stroke-linecap="round" stroke-linejoin="round" stroke-width=".555"/><path d="M210.373,195.287l-72.99,11.221s-2.224.604-1.835,3.618l.827,12.01,1.41,1.264.506,7.806s-.072,2.532,2.315,2.532l71.116-13.489" fill="none" stroke="#231f20" stroke-linecap="round" stroke-linejoin="round" stroke-width=".555"/><path d="M143.498,213.884l8.481-1.323s.856-.233.973.622.739,7.625.739,7.625c0,0,.272,1.089-.895,1.323-1.167.233-8.053,1.362-8.053,1.362,0,0-1.05.039-1.089-.895s-.661-7.781-.661-7.781c0,0-.156-.739.506-.934Z" fill="none" stroke="#231f20" stroke-linecap="round" stroke-linejoin="round" stroke-width=".555"/><path d="M152.835,212.717l-1.697-1.605c-.229-.049-.443.01-.443.01l-8.481,1.323c-.661.195-.506.934-.506.934,0,0,.622,6.847.661,7.781.011.266.104.453.232.585l1.324,1.555" fill="none" stroke="#231f20" stroke-linecap="round" stroke-linejoin="round" stroke-width=".555"/><path d="M157.095,211.708l17.638-3.117s.856-.233.973.622.739,7.625.739,7.625c0,0,.272,1.089-.895,1.323s-17.21,3.156-17.21,3.156c0,0-1.05.039-1.089-.895s-.661-7.781-.661-7.781c0,0-.156-.739.506-.934Z" fill="none" stroke="#231f20" stroke-linecap="round" stroke-linejoin="round" stroke-width=".555"/><path d="M178.551,206.142l22.8-3.947s.856-.233.973.622.258,7.077.258,7.077c0,0,.272,1.089-.895,1.323s-22.017,3.956-22.017,3.956c0,0-1.05.039-1.089-.895s-.535-7.202-.535-7.202c0,0-.156-.739.506-.934Z" fill="none" stroke="#231f20" stroke-linecap="round" stroke-linejoin="round" stroke-width=".555"/><path d="M175.589,208.747l-1.697-1.605c-.229-.049-.443.01-.443.01l-17.638,3.117c-.661.195-.506.934-.506.934,0,0,.622,6.847.661,7.781.011.266.104.453.232.585l1.324,1.555" fill="none" stroke="#231f20" stroke-linecap="round" stroke-linejoin="round" stroke-width=".555"/><line x1="166.853" y1="219.361" x2="166.26" y2="210.263" fill="none" stroke="#231f20" stroke-linecap="round" stroke-linejoin="round" stroke-width=".555"/><path d="M88.041,220.158l12.324-2.079s.891-.049,1.089.94.792,6.187.792,6.187c0,0,.297.841-.891,1.089s-12.027,2.128-12.027,2.128c0,0-1.386.198-1.485-.841s-.94-6.385-.94-6.385c0,0,0-.99,1.138-1.039Z" fill="none" stroke="#231f20" stroke-linecap="round" stroke-linejoin="round" stroke-width=".555"/><path d="M110.252,216.941l15.507-2.607s.891-.049,1.089.94.792,6.187.792,6.187c0,0,.297.841-.891,1.089-1.188.247-15.21,2.657-15.21,2.657,0,0-1.386.198-1.485-.841s-.94-6.385-.94-6.385c0,0,0-.99,1.138-1.039Z" fill="none" stroke="#231f20" stroke-linecap="round" stroke-linejoin="round" stroke-width=".555"/><polyline points="45.458 223.364 45.872 225.16 47.028 224.969 47.392 226.611 50.569 226.127 51.813 232.758 37.621 235.191 36.309 228.491 39.348 227.938 39.021 226.31 40.453 226.073 40.143 224.38" fill="none" stroke="#231f20" stroke-linecap="round" stroke-linejoin="round" stroke-width=".555"/><polyline points="70.85 219.534 71.264 221.33 72.42 221.14 72.784 222.781 75.961 222.298 77.205 228.929 63.013 231.361 61.701 224.661 64.74 224.108 64.413 222.48 65.845 222.243 65.535 220.551" fill="none" stroke="#231f20" stroke-linecap="round" stroke-linejoin="round" stroke-width=".555"/><path d="M90.741,222.019l6.968-1.133s1.473,0,1.586,1.529-1.19,1.529-1.19,1.529l-6.911,1.246s-1.246.227-1.643-1.19,1.19-1.983,1.19-1.983Z" fill="none" stroke="#231f20" stroke-linecap="round" stroke-linejoin="round" stroke-width=".555"/><path d="M112.628,218.241s-1.299.247-1.113,1.237.442,2.791.442,2.791c0,0,.062.928,1.113.804s10.875-1.955,10.875-1.955c0,0,1.029-.336.967-1.326s-.341-2.569-.341-2.569c0,0-.062-.99-1.361-.804s-10.582,1.822-10.582,1.822Z" fill="none" stroke="#231f20" stroke-linecap="round" stroke-linejoin="round" stroke-width=".555"/><line x1="191.194" y1="203.906" x2="191.194" y2="213.022" fill="none" stroke="#231f20" stroke-linecap="round" stroke-linejoin="round" stroke-width=".555"/><line x1="212.111" y1="211.619" x2="212.111" y2="215.727" fill="none" stroke="#231f20" stroke-linecap="round" stroke-linejoin="round" stroke-width=".555"/><line x1="212.111" y1="199.33" x2="212.111" y2="201.82" fill="none" stroke="#231f20" stroke-linecap="round" stroke-linejoin="round" stroke-width=".555"/><polyline points="9.165 224.428 216.286 191.536 216.286 194.869" fill="none" stroke="#231f20" stroke-linecap="round" stroke-linejoin="round" stroke-width=".555"/><line x1="19.248" y1="259.593" x2="15.38" y2="245.166" fill="none" stroke="#231f20" stroke-linecap="round" stroke-linejoin="round" stroke-width=".555"/><polyline points="18.48 235.854 16.948 236.071 19.301 238.057 21.966 251.386 21.877 259.22" fill="none" stroke="#231f20" stroke-linecap="round" stroke-linejoin="round" stroke-width=".555"/><path d="M18.569,235.705s2.248,1.464,2.509,2.666,2.509,12.336,2.509,12.336l-.105,7.736" fill="none" stroke="#231f20" stroke-linecap="round" stroke-linejoin="round" stroke-width=".555"/><path d="M141.622,234.564s1.831,1.119,6.001.305,46.484-8.849,46.484-8.849" fill="none" stroke="#231f20" stroke-linecap="round" stroke-linejoin="round" stroke-width=".555"/><line x1="122.805" y1="241.583" x2="192.277" y2="228.359" fill="none" stroke="#231f20" stroke-linecap="round" stroke-linejoin="round" stroke-width=".555"/><line x1="124.432" y1="243.21" x2="192.069" y2="230.24" fill="none" stroke="#231f20" stroke-linecap="round" stroke-linejoin="round" stroke-width=".555"/><line x1="216.146" y1="191.383" x2="194.7" y2="181.724" fill="none" stroke="#231f20" stroke-linecap="round" stroke-linejoin="round" stroke-width=".555"/><path d="M214.696,213.74l4.355,3.247,2.996,2.151.999-.077,5.454,3.61s.384,1.383.768,2.381,5.751,4.219,5.751,4.219c0,0,2.414,1.687,2.626-.575,0,0,.199-10.757.299-13.546s-1.594-3.586-1.594-3.586" fill="none" stroke="#231f20" stroke-linecap="round" stroke-linejoin="round" stroke-width=".555"/><ellipse cx="234.214" cy="215.127" rx="1.265" ry="2.108" transform="translate(-20.316 24.47) rotate(-5.732)" fill="none" stroke="#231f20" stroke-linecap="round" stroke-linejoin="round" stroke-width=".555"/><ellipse cx="234.214" cy="225.093" rx="1.265" ry="2.108" transform="translate(-21.312 24.52) rotate(-5.732)" fill="none" stroke="#231f20" stroke-linecap="round" stroke-linejoin="round" stroke-width=".555"/><line x1="222.737" y1="206.677" x2="222.737" y2="219.061" fill="none" stroke="#231f20" stroke-linecap="round" stroke-linejoin="round" stroke-width=".555"/><path d="M216.745,203.359l.06,2.111,2.352,2.081s.905.633.875,1.327,0,5.549,0,5.549c0,0-1.176-.905-1.93-.271,0,0-1.297.271-2.051-.814v-4.101s.452-.724,1.387-.663l1.146-.181" fill="none" stroke="#231f20" stroke-linecap="round" stroke-linejoin="round" stroke-width=".555"/><path d="M210.483,222.73l-14.181,3.059-22.825,25.186s-1.625,2.077.722,3.612,4.605,2.438,4.605,2.438c0,0,1.371.741,3.169.1" fill="none" stroke="#231f20" stroke-linecap="round" stroke-linejoin="round" stroke-width=".555"/><polyline points="190.659 261.462 190.659 257.797 196.966 259.94 196.966 264.19" fill="none" stroke="#231f20" stroke-linecap="round" stroke-linejoin="round" stroke-width=".555"/><polyline points="198.14 262.033 198.115 257.671 190.659 257.62" fill="none" stroke="#231f20" stroke-linecap="round" stroke-linejoin="round" stroke-width=".555"/><line x1="197.075" y1="259.623" x2="197.912" y2="257.747" fill="none" stroke="#231f20" stroke-linecap="round" stroke-linejoin="round" stroke-width=".555"/><path d="M182.414,257.385l5.176-.046s7.375-1.283,9.299-1.649,3.665-.458,3.665-.458l13.101.046.504.687s.137,4.764.183,5.726-1.008,1.099-1.008,1.099l-11.131-.321-4.169-.164-.777,1.986-6.562-2.331-8.117-.604-.604-4.231,29.79-34.971,3.109-.259s-12.367,15.501-13.592,16.726.32,1.759.32,1.759c0,0,11.192,2.665,13.217,3.198s1.546,1.919,1.546,1.919c0,0-1.865,3.624-2.718,5.329s-3.624,1.599-3.624,1.599l-9.113.053s-11.085,1.705-12.577,2.398c-1.492.693.16,1.172.16,1.172l11.138-1.865,13.997.064.703.625" fill="none" stroke="#231f20" stroke-linecap="round" stroke-linejoin="round" stroke-width=".555"/><polyline points="203.091 240.327 214.975 225.404 214.871 221.895" fill="none" stroke="#231f20" stroke-linecap="round" stroke-linejoin="round" stroke-width=".555"/><polyline points="216.459 244.955 216.459 249.534 214.158 255.965" fill="none" stroke="#231f20" stroke-linecap="round" stroke-linejoin="round" stroke-width=".555"/><path d="M188.713,251.896l8.462-10.238s.795-.888,1.823-.654,13.978,3.226,13.978,3.226c0,0,.888.28.608.935s-3.179,5.61-3.179,5.61l-8.275.047-12.622,1.917s-1.823.514-.795-.841Z" fill="none" stroke="#231f20" stroke-linecap="round" stroke-linejoin="round" stroke-width=".555"/><path d="M211.48,248.297s-.093-2.431-5.75-3.506c-5.657-1.075-11.5,1.309-11.5,1.309l.14,3.787s8.228-4.02,15.988.421" fill="none" stroke="#231f20" stroke-linecap="round" stroke-linejoin="round" stroke-width=".555"/><path d="M191.331,249.372s.421,1.87,2.291,2.431" fill="none" stroke="#231f20" stroke-linecap="round" stroke-linejoin="round" stroke-width=".555"/><line x1="194.369" y1="249.886" x2="193.247" y2="251.288" fill="none" stroke="#231f20" stroke-linecap="round" stroke-linejoin="round" stroke-width=".555"/><line x1="202.665" y1="255.423" x2="202.665" y2="262.313" fill="none" stroke="#231f20" stroke-linecap="round" stroke-linejoin="round" stroke-width=".555"/><line x1="204.423" y1="255.634" x2="204.423" y2="262.524" fill="none" stroke="#231f20" stroke-linecap="round" stroke-linejoin="round" stroke-width=".555"/><line x1="206.18" y1="255.845" x2="206.18" y2="262.735" fill="none" stroke="#231f20" stroke-linecap="round" stroke-linejoin="round" stroke-width=".555"/><line x1="207.938" y1="255.634" x2="207.938" y2="262.524" fill="none" stroke="#231f20" stroke-linecap="round" stroke-linejoin="round" stroke-width=".555"/><line x1="209.696" y1="255.704" x2="209.696" y2="262.594" fill="none" stroke="#231f20" stroke-linecap="round" stroke-linejoin="round" stroke-width=".555"/><line x1="211.454" y1="255.845" x2="211.454" y2="262.735" fill="none" stroke="#231f20" stroke-linecap="round" stroke-linejoin="round" stroke-width=".555"/><line x1="182.577" y1="261.356" x2="178.048" y2="256.884" fill="none" stroke="#231f20" stroke-linecap="round" stroke-linejoin="round" stroke-width=".555"/><path d="M16.517,291.584c3.721,10.574,4.308,18.798,4.308,18.798,0,0-.685,3.133-.294,5.777s-.294,2.252-.294,2.252l-1.664-4.7c-5.287-14.099-3.623-22.715-3.623-22.715l.979-.587-.783-3.525,3.133-12.336" fill="none" stroke="#231f20" stroke-linecap="round" stroke-linejoin="round" stroke-width=".555"/></g><g id="c"><polyline points="137.206 256.693 108.128 249.008 107.968 245.883 118.306 247.146 108.168 234.431 107.976 231.471 126.473 231.089 136.88 243.96 147.016 239.279 147.037 242.105 137.206 256.693" stroke="#fff" stroke-linecap="round" stroke-linejoin="round" stroke-width=".5"/><polyline points="79.491 235.514 108.627 240.362 108.569 243.199 98.392 245.061 108.312 254.92 108.529 257.776 90.224 261.118 79.818 248.247 69.66 250.102 69.68 247.168 79.491 235.514" stroke="#fff" stroke-linecap="round" stroke-linejoin="round" stroke-width=".5"/><polyline points="137.206 253.707 147.037 239.119 136.88 240.975 126.473 228.104 108.168 231.445 118.306 244.161 108.128 246.023 137.206 253.707 137.206 256.693" stroke="#fff" stroke-linecap="round" stroke-linejoin="round" stroke-width=".5"/><polyline points="79.491 232.529 108.569 240.213 98.392 242.075 108.529 254.791 90.224 258.132 79.818 245.261 69.66 247.117 79.491 232.529" stroke="#fff" stroke-linecap="round" stroke-linejoin="round" stroke-width=".5"/><line x1="79.818" y1="245.261" x2="79.818" y2="248.247" stroke="#fff" stroke-linecap="round" stroke-linejoin="round" stroke-width=".5"/><line x1="90.224" y1="258.132" x2="90.224" y2="261.118" stroke="#fff" stroke-linecap="round" stroke-linejoin="round" stroke-width=".5"/><g clip-path="url(#d)"><circle cx="254.16" cy="96.61" r="93.857" fill="#fff" stroke="#fff" stroke-miterlimit="10" stroke-width="6"/><path d="M193.437,91.039l120.154-23.628v6.713l-66.32,14.231.269,7.652s.403,3.491-5.102,4.162l-20.54,4.967s-7.115.134-9.129-2.819v6.713l-2.282.269-8.726-6.981v-5.37l-2.282-.134-3.625.94-1.88-2.282-.537-4.43Z" fill="#dcddde"/><path d="M324.366,28.832c-52.179,7.958-108.154,16.493-156.998,23.938" fill="none" stroke="#231f20" stroke-linecap="round" stroke-linejoin="round" stroke-width=".5"/><line x1="290.665" y1="118.393" x2="292.522" y2="117.965" fill="none" stroke="#231f20" stroke-linecap="round" stroke-linejoin="round" stroke-width=".5"/><line x1="170.81" y1="146.083" x2="271.47" y2="122.828" fill="none" stroke="#231f20" stroke-linecap="round" stroke-linejoin="round" stroke-width=".5"/><path d="M295.503,120.083s-50.293,15.064-52.333,15.692-1.648,1.491-1.648,1.491c0,0,.314,1.02.628,2.982s-1.297,2.769-1.297,2.769l-31.799,9.83-14.137,1.803s-.989.233-5.876,1.629-7.621-.407-7.621-.407l-4.363-3.665" fill="none" stroke="#231f20" stroke-linecap="round" stroke-linejoin="round" stroke-width=".5"/><path d="M205.399,148.483c-2.17-2.106-8.423-2.042-8.423-2.042l-.383-4.212c7.402-.255,9.572,3.127,9.572,3.127,1.531,3.191-2.17,6.062-2.17,6.062l-9.508.893s-3.829,1.085-6.445,2.106c-2.616,1.021-4.02-.383-4.02-.383l-3.254-2.935s-4.403-2.425-5.743-3.254c-1.34-.83,1.085-1.085,1.085-1.085l8.806-1.978s-4.403,1.851-4.594,5.296" fill="none" stroke="#231f20" stroke-linecap="round" stroke-linejoin="round" stroke-width=".5"/><path d="M182.554,151.674s1.404-1.723,2.935-2.233l-.574-4.658" fill="none" stroke="#231f20" stroke-linecap="round" stroke-linejoin="round" stroke-width=".5"/><line x1="185.443" y1="144.538" x2="236.41" y2="132.475" fill="none" stroke="#231f20" stroke-linecap="round" stroke-linejoin="round" stroke-width=".5"/><path d="M181.479,162.931s1.52,3.33,6.587,1.882c5.067-1.448,53.206-16.577,53.206-16.577,0,0,1.815-.579,1.737-2.461-.084-2.036-.797-5.123-.797-5.123" fill="none" stroke="#231f20" stroke-linecap="round" stroke-linejoin="round" stroke-width=".5"/><line x1="316.682" y1="118.936" x2="327.796" y2="115.633" fill="none" stroke="#231f20" stroke-linecap="round" stroke-linejoin="round" stroke-width=".5"/><line x1="242.709" y1="140.919" x2="300.023" y2="123.886" fill="none" stroke="#231f20" stroke-linecap="round" stroke-linejoin="round" stroke-width=".5"/><line x1="183.295" y1="151.858" x2="201.79" y2="147.166" fill="none" stroke="#231f20" stroke-linecap="round" stroke-linejoin="round" stroke-width=".5"/><path d="M158.354,106.265l15.154-2.911,7.711,4.116s1.768,1.714,5.197,1.125c3.429-.589,13.769-2.089,13.769-2.089l-.804-6.643" fill="none" stroke="#231f20" stroke-linecap="round" stroke-linejoin="round" stroke-width=".5"/><path d="M157.391,104.132l10.616-2.113,3.972-4.662,1.736-.151,7.018,4.377s1.962,1.585,5.282.981,11.848-1.66,11.848-1.66c0,0,1.736-.075,1.283-1.434l-2.943.151-8.603-5.282s-.151-1.66,2.415-1.962l-18.941,3.245-4.301,4.377-9.389,1.832" fill="none" stroke="#231f20" stroke-linecap="round" stroke-linejoin="round" stroke-width=".5"/><path d="M179.335,95.673l2.756-.41s1.466-.352,2.932.469,5.512,3.108,5.512,3.108c0,0,1.407.762.352,1.114s-5.101.938-5.101.938c0,0-.821.235-2.169-.528s-5.746-3.518-5.746-3.518c0,0-.704-.821,1.466-1.173Z" fill="none" stroke="#231f20" stroke-linecap="round" stroke-linejoin="round" stroke-width=".5"/><path d="M327.105,40.151l.044-1.948c-3.422-.555-3.373,1.948-3.373,1.948v3.237l-1.202.185s-8.323-4.162-9.525-4.716-1.295-2.959-1.295-2.959c-.277-2.219.331-2.824.331-2.824,1.572-1.48,3.53-.841,3.53-.841l11.247,5.357" fill="none" stroke="#231f20" stroke-linecap="round" stroke-linejoin="round" stroke-width=".5"/><path d="M316.316,42.585l19.724,10.524s.132-1.986,2.052-1.589" fill="none" stroke="#231f20" stroke-linecap="round" stroke-linejoin="round" stroke-width=".5"/><polygon points="316.082 43.902 313.801 47.284 313.867 53.704 316.845 56.484 316.845 58.734 315.852 58.536 315.654 57.278 313.933 56.219 311.153 52.976 311.153 46.357 313.663 42.667 316.082 43.902" fill="none" stroke="#231f20" stroke-linecap="round" stroke-linejoin="round" stroke-width=".5"/><line x1="323.775" y1="43.387" x2="339.615" y2="51.944" fill="none" stroke="#231f20" stroke-linecap="round" stroke-linejoin="round" stroke-width=".5"/><line x1="324.973" y1="39.144" x2="334.764" y2="44.212" fill="none" stroke="#231f20" stroke-linecap="round" stroke-linejoin="round" stroke-width=".5"/><path d="M327.038,73.68c-2.922,1.043-3.965-.348-3.965-.348,0,0-9.113-5.982-10.086-6.608s-.904-1.322-.904-1.322c0,0,.07-1.53.07-2.504s1.739-1.043,1.739-1.043l9.391,6.261s.765.765.765,1.669v2.365s.348.626,1.6.487l19.53,12.666" fill="none" stroke="#231f20" stroke-linecap="round" stroke-linejoin="round" stroke-width=".5"/><line x1="323.966" y1="68.408" x2="346.799" y2="82.755" fill="none" stroke="#231f20" stroke-linecap="round" stroke-linejoin="round" stroke-width=".5"/><path d="M350.135,78.111c-4.256,6.517-7.538,14.391-6.467,23.653,0,0,.585,5.899,5.22,12.866" fill="none" stroke="#231f20" stroke-linecap="round" stroke-linejoin="round" stroke-width=".5"/><line x1="319.153" y1="72.587" x2="319.378" y2="103.73" fill="none" stroke="#231f20" stroke-linecap="round" stroke-linejoin="round" stroke-width=".5"/><line x1="328.081" y1="74.43" x2="328.197" y2="109.723" fill="none" stroke="#231f20" stroke-linecap="round" stroke-linejoin="round" stroke-width=".5"/><line x1="327.931" y1="28.882" x2="327.971" y2="41.002" fill="none" stroke="#231f20" stroke-linecap="round" stroke-linejoin="round" stroke-width=".5"/><path d="M307.73,121.87v5.544l-1.942.444" fill="none" stroke="#231f20" stroke-linecap="round" stroke-linejoin="round" stroke-width=".5"/><path d="M297.315,104.173v-6.885l1.942-.353,7.767,6.09s.706.618.706,1.854v8.564" fill="none" stroke="#231f20" stroke-linecap="round" stroke-linejoin="round" stroke-width=".5"/><path d="M297.315,97.377l7.767,6.09s.706.618.706,1.854v22.536l-7.767-6.357" fill="none" stroke="#231f20" stroke-linecap="round" stroke-linejoin="round" stroke-width=".5"/><polyline points="290.386 98.77 303.806 110.804 296.983 112.252 289.954 105.532" fill="none" stroke="#231f20" stroke-linecap="round" stroke-linejoin="round" stroke-width=".5"/><line x1="296.983" y1="112.252" x2="296.983" y2="121.314" fill="none" stroke="#231f20" stroke-linecap="round" stroke-linejoin="round" stroke-width=".5"/><path d="M303.806,110.804v1.605l-5.228,1.101v5.959l5.322-1.101s.061,1.6.061,1.416l-6.79,1.529-6.423-6.117" fill="none" stroke="#231f20" stroke-linecap="round" stroke-linejoin="round" stroke-width=".5"/><path d="M306.144,114.627l31.134,26.72,2.522,3.783s1.734,3.232-.079,3.389l-2.522-.552-31.213-27.272" fill="none" stroke="#231f20" stroke-linecap="round" stroke-linejoin="round" stroke-width=".5"/><path d="M306.268,112.589l32.351,27.812,2.522,3.783s1.029,4.037-.784,4.195" fill="none" stroke="#231f20" stroke-linecap="round" stroke-linejoin="round" stroke-width=".5"/><polyline points="289.701 118.849 283.435 112.358 282.689 90.649" fill="none" stroke="#231f20" stroke-linecap="round" stroke-linejoin="round" stroke-width=".5"/><line x1="272.617" y1="114.671" x2="283.435" y2="112.358" fill="none" stroke="#231f20" stroke-linecap="round" stroke-linejoin="round" stroke-width=".5"/><path d="M307.556,104.532c1.231-1.038,2.781-1.745,4.516-1.955,4.627-.561,8.818,2.623,9.362,7.11.544,4.487-2.766,8.579-7.393,9.14" fill="none" stroke="#231f20" stroke-linecap="round" stroke-linejoin="round" stroke-width=".5"/><path d="M315.596,104.207c.544,4.487-2.766,8.579-7.393,9.14" fill="none" stroke="#231f20" stroke-linecap="round" stroke-linejoin="round" stroke-width=".5"/><path d="M301.718,99.052c1.231-1.038,2.781-1.745,4.516-1.955,1.642-.199,3.229.074,4.618.709l8.651,6.963" fill="none" stroke="#231f20" stroke-linecap="round" stroke-linejoin="round" stroke-width=".5"/><line x1="306.854" y1="96.575" x2="314.125" y2="102.566" fill="none" stroke="#231f20" stroke-linecap="round" stroke-linejoin="round" stroke-width=".5"/><path d="M292.679,100.39l-.074-14.478s-.222-1.182,1.33-1.477,21.052-4.284,21.052-4.284c0,0,1.403-.295,1.551.665s.295,21.052.295,21.052" fill="none" stroke="#231f20" stroke-linecap="round" stroke-linejoin="round" stroke-width=".5"/><path d="M290.759,99.356l-.074-14.478s-.222-1.182,1.33-1.477,21.052-4.284,21.052-4.284l2.99.866" fill="none" stroke="#231f20" stroke-linecap="round" stroke-linejoin="round" stroke-width=".5"/><path d="M156.58,99.257c6.757-1.291,11.023-2.105,11.023-2.105" fill="none" stroke="#231f20" stroke-linecap="round" stroke-linejoin="round" stroke-width=".5"/><path d="M210.447,86.958l-3.185-33.129c-.637-4.141-4.619-3.185-4.619-3.185l-41.577,6.519" fill="none" stroke="#231f20" stroke-linecap="round" stroke-linejoin="round" stroke-width=".5"/><path d="M310.975,33.681l-99.103,15.236s-3.02.82-2.492,4.913l1.122,16.307,1.915,1.717.688,11.235s-.098,3.438,3.144,3.438" fill="none" stroke="#231f20" stroke-linecap="round" stroke-linejoin="round" stroke-width=".5"/><path d="M220.175,58.93l11.515-1.796s1.162-.317,1.321.845,1.004,10.353,1.004,10.353c0,0,.37,1.479-1.215,1.796s-10.934,1.849-10.934,1.849c0,0-1.426.053-1.479-1.215s-.898-10.565-.898-10.565c0,0-.211-1.004.687-1.268Z" fill="none" stroke="#231f20" stroke-linecap="round" stroke-linejoin="round" stroke-width=".5"/><path d="M232.852,57.346l-2.304-2.179c-.31-.066-.601.013-.601.013l-11.515,1.796c-.898.264-.687,1.268-.687,1.268,0,0,.845,9.297.898,10.565.015.361.142.616.315.794l1.798,2.111" fill="none" stroke="#231f20" stroke-linecap="round" stroke-linejoin="round" stroke-width=".5"/><path d="M238.636,55.976l23.949-4.232s1.162-.317,1.321.845,1.004,10.353,1.004,10.353c0,0,.37,1.479-1.215,1.796s-23.368,4.285-23.368,4.285c0,0-1.426.053-1.479-1.215s-.898-10.565-.898-10.565c0,0-.211-1.004.687-1.268Z" fill="none" stroke="#231f20" stroke-linecap="round" stroke-linejoin="round" stroke-width=".5"/><path d="M267.769,48.418l30.957-5.36s1.162-.317,1.321.845.35,9.608.35,9.608c0,0,.37,1.479-1.215,1.796s-29.894,5.372-29.894,5.372c0,0-1.426.053-1.479-1.215s-.726-9.779-.726-9.779c0,0-.211-1.004.687-1.268Z" fill="none" stroke="#231f20" stroke-linecap="round" stroke-linejoin="round" stroke-width=".5"/><path d="M263.747,51.956l-2.304-2.179c-.31-.066-.601.013-.601.013l-23.949,4.232c-.898.264-.687,1.268-.687,1.268,0,0,.845,9.297.898,10.565.015.361.142.616.315.794l1.798,2.111" fill="none" stroke="#231f20" stroke-linecap="round" stroke-linejoin="round" stroke-width=".5"/><line x1="251.885" y1="66.367" x2="251.08" y2="54.014" fill="none" stroke="#231f20" stroke-linecap="round" stroke-linejoin="round" stroke-width=".5"/><path d="M163.343,67.582c.343,2.538.821,6.721.821,6.721,0,0,.403,1.142-1.21,1.478-.33.069-1.211.231-2.402.445" fill="none" stroke="#231f20" stroke-linecap="round" stroke-linejoin="round" stroke-width=".5"/><path d="M175.035,63.081l21.055-3.54s1.21-.067,1.478,1.277c.269,1.344,1.075,8.4,1.075,8.4,0,0,.403,1.142-1.21,1.478s-20.652,3.607-20.652,3.607c0,0-1.882.269-2.016-1.142s-1.277-8.669-1.277-8.669c0,0,0-1.344,1.546-1.411Z" fill="none" stroke="#231f20" stroke-linecap="round" stroke-linejoin="round" stroke-width=".5"/><path d="M178.26,64.846s-1.764.336-1.512,1.68.6,3.789.6,3.789c0,0,.084,1.26,1.512,1.092s14.765-2.654,14.765-2.654c0,0,1.396-.456,1.312-1.8s-.463-3.489-.463-3.489c0,0-.084-1.344-1.848-1.092s-14.367,2.474-14.367,2.474Z" fill="none" stroke="#231f20" stroke-linecap="round" stroke-linejoin="round" stroke-width=".5"/><line x1="284.935" y1="45.382" x2="284.935" y2="57.76" fill="none" stroke="#231f20" stroke-linecap="round" stroke-linejoin="round" stroke-width=".5"/><ellipse cx="168.464" cy="118.536" rx="2.304" ry="2.25" fill="none" stroke="#231f20" stroke-linecap="round" stroke-linejoin="round" stroke-width=".5"/><ellipse cx="180.52" cy="116.071" rx="2.304" ry="2.25" fill="none" stroke="#231f20" stroke-linecap="round" stroke-linejoin="round" stroke-width=".5"/><line x1="313.334" y1="55.856" x2="313.334" y2="61.432" fill="none" stroke="#231f20" stroke-linecap="round" stroke-linejoin="round" stroke-width=".5"/><line x1="313.334" y1="39.169" x2="313.334" y2="42.55" fill="none" stroke="#231f20" stroke-linecap="round" stroke-linejoin="round" stroke-width=".5"/><line x1="319.003" y1="29.943" x2="319.003" y2="33.113" fill="none" stroke="#231f20" stroke-linecap="round" stroke-linejoin="round" stroke-width=".5"/><polyline points="326.653 111.211 329.233 113.112 333.24 112.501 335.82 110.804 335.82 113.588 333.24 115.557 329.098 116.236 326.11 113.656 326.11 110.804 330.116 109.853 330.116 108.359 332.289 109.717 332.289 112.026" fill="none" stroke="#231f20" stroke-linecap="round" stroke-linejoin="round" stroke-width=".5"/><line x1="330.116" y1="108.359" x2="344.204" y2="105.04" fill="none" stroke="#231f20" stroke-linecap="round" stroke-linejoin="round" stroke-width=".5"/><line x1="335.82" y1="113.588" x2="347.052" y2="111.498" fill="none" stroke="#231f20" stroke-linecap="round" stroke-linejoin="round" stroke-width=".5"/><line x1="332.289" y1="109.717" x2="344.971" y2="107.428" fill="none" stroke="#231f20" stroke-linecap="round" stroke-linejoin="round" stroke-width=".5"/><line x1="334.654" y1="78.908" x2="334.654" y2="106.67" fill="none" stroke="#231f20" stroke-linecap="round" stroke-linejoin="round" stroke-width=".5"/><polygon points="192.292 117.518 195.022 115.334 198.502 116.358 198.98 120.248 195.772 122.637 192.769 121.34 192.292 117.518" fill="none" stroke="#231f20" stroke-linecap="round" stroke-linejoin="round" stroke-width=".5"/><polygon points="200.686 115.744 203.416 113.56 206.896 114.584 207.374 118.474 204.166 120.862 201.164 119.566 200.686 115.744" fill="none" stroke="#231f20" stroke-linecap="round" stroke-linejoin="round" stroke-width=".5"/><polygon points="209.285 113.833 212.015 111.649 215.495 112.673 215.973 116.563 212.765 118.951 209.762 117.655 209.285 113.833" fill="none" stroke="#231f20" stroke-linecap="round" stroke-linejoin="round" stroke-width=".5"/><polygon points="217.952 111.922 220.682 109.738 224.162 110.762 224.64 114.652 221.432 117.041 218.43 115.744 217.952 111.922" fill="none" stroke="#231f20" stroke-linecap="round" stroke-linejoin="round" stroke-width=".5"/><polygon points="226.278 110.216 229.008 108.032 232.488 109.056 232.966 112.946 229.758 115.334 226.755 114.038 226.278 110.216" fill="none" stroke="#231f20" stroke-linecap="round" stroke-linejoin="round" stroke-width=".5"/><polygon points="234.467 108.305 237.197 106.121 240.677 107.145 241.155 111.035 237.948 113.424 234.945 112.127 234.467 108.305" fill="none" stroke="#231f20" stroke-linecap="round" stroke-linejoin="round" stroke-width=".5"/><polygon points="242.588 106.599 245.318 104.415 248.799 105.439 249.276 109.329 246.069 111.717 243.066 110.421 242.588 106.599" fill="none" stroke="#231f20" stroke-linecap="round" stroke-linejoin="round" stroke-width=".5"/><polygon points="250.451 104.841 253.181 102.657 256.661 103.681 257.139 107.571 253.932 109.959 250.929 108.663 250.451 104.841" fill="none" stroke="#231f20" stroke-linecap="round" stroke-linejoin="round" stroke-width=".5"/><polyline points="265.034 105.824 261.827 108.212 258.824 106.915 258.346 103.094 261.076 100.91 264.557 101.934" fill="none" stroke="#231f20" stroke-linecap="round" stroke-linejoin="round" stroke-width=".5"/><polygon points="255.499 110.665 258.229 108.482 261.709 109.505 262.187 113.395 258.979 115.784 255.977 114.487 255.499 110.665" fill="none" stroke="#231f20" stroke-linecap="round" stroke-linejoin="round" stroke-width=".5"/><polygon points="197.41 123.319 200.14 121.135 203.62 122.159 204.098 126.049 200.891 128.438 197.888 127.141 197.41 123.319" fill="none" stroke="#231f20" stroke-linecap="round" stroke-linejoin="round" stroke-width=".5"/><polygon points="202.532 129.321 205.261 127.137 208.742 128.161 209.22 132.051 206.012 134.439 203.009 133.143 202.532 129.321" fill="none" stroke="#231f20" stroke-linecap="round" stroke-linejoin="round" stroke-width=".5"/><polygon points="210.854 127.32 213.584 125.136 217.064 126.16 217.542 130.05 214.334 132.439 211.332 131.142 210.854 127.32" fill="none" stroke="#231f20" stroke-linecap="round" stroke-linejoin="round" stroke-width=".5"/><polygon points="219.737 125.24 222.466 123.056 225.947 124.08 226.425 127.969 223.217 130.358 220.214 129.061 219.737 125.24" fill="none" stroke="#231f20" stroke-linecap="round" stroke-linejoin="round" stroke-width=".5"/><polygon points="228.139 123.479 230.869 121.295 234.349 122.319 234.827 126.209 231.619 128.598 228.617 127.301 228.139 123.479" fill="none" stroke="#231f20" stroke-linecap="round" stroke-linejoin="round" stroke-width=".5"/><polygon points="236.541 121.479 239.271 119.295 242.752 120.318 243.229 124.208 240.022 126.597 237.019 125.3 236.541 121.479" fill="none" stroke="#231f20" stroke-linecap="round" stroke-linejoin="round" stroke-width=".5"/><polygon points="244.624 119.798 247.354 117.614 250.834 118.638 251.312 122.528 248.104 124.917 245.101 123.62 244.624 119.798" fill="none" stroke="#231f20" stroke-linecap="round" stroke-linejoin="round" stroke-width=".5"/><polygon points="252.866 118.038 255.596 115.854 259.076 116.877 259.554 120.767 256.347 123.156 253.344 121.859 252.866 118.038" fill="none" stroke="#231f20" stroke-linecap="round" stroke-linejoin="round" stroke-width=".5"/><polygon points="205.804 121.545 208.534 119.361 212.015 120.385 212.492 124.275 209.285 126.663 206.282 125.366 205.804 121.545" fill="none" stroke="#231f20" stroke-linecap="round" stroke-linejoin="round" stroke-width=".5"/><polygon points="214.403 119.634 217.133 117.45 220.613 118.474 221.091 122.364 217.884 124.752 214.881 123.456 214.403 119.634" fill="none" stroke="#231f20" stroke-linecap="round" stroke-linejoin="round" stroke-width=".5"/><polygon points="223.07 117.723 225.8 115.539 229.281 116.563 229.758 120.453 226.551 122.841 223.548 121.545 223.07 117.723" fill="none" stroke="#231f20" stroke-linecap="round" stroke-linejoin="round" stroke-width=".5"/><polygon points="231.396 116.017 234.126 113.833 237.606 114.857 238.084 118.747 234.877 121.135 231.874 119.839 231.396 116.017" fill="none" stroke="#231f20" stroke-linecap="round" stroke-linejoin="round" stroke-width=".5"/><polygon points="239.586 114.106 242.315 111.922 245.796 112.946 246.274 116.836 243.066 119.224 240.063 117.928 239.586 114.106" fill="none" stroke="#231f20" stroke-linecap="round" stroke-linejoin="round" stroke-width=".5"/><polygon points="247.707 112.4 250.437 110.216 253.917 111.24 254.395 115.13 251.187 117.518 248.184 116.222 247.707 112.4" fill="none" stroke="#231f20" stroke-linecap="round" stroke-linejoin="round" stroke-width=".5"/><path d="M211.746,89.219l-2.651.5s-2.851.55-.85,1.1c2.001.55,4.502,1,4.502,1,0,0,4.352,1.401,5.302,2.551.95,1.15,3.251.95,4.252.65s6.653-1.451,6.653-1.451l12.655-.8s3.001.3,2.801-1.651c-.2-1.951-1.301-6.503-1.301-6.503,0,0-.35-1.451-2.801-.95s-28.561,5.552-28.561,5.552Z" fill="none" stroke="#231f20" stroke-dasharray="1.13 1.507" stroke-linecap="round" stroke-linejoin="round" stroke-width=".5"/><path d="M213.847,92.082s-.1-1.761,3.902-3.049l.25,4.639,10.904-1.89s4.952-.558,8.153.816" fill="none" stroke="#231f20" stroke-dasharray="1.13 1.507" stroke-linecap="round" stroke-linejoin="round" stroke-width=".5"/><path d="M237.406,92.683c3.051-.902,1.451-2.835,1.451-2.835-2.001-2.491-10.554-2.706-10.554-2.706l.55,4.295" fill="none" stroke="#231f20" stroke-dasharray="1.13 1.507" stroke-linecap="round" stroke-linejoin="round" stroke-width=".5"/><polyline points="200.842 93.002 205.532 94.309 208.069 96.846 212.99 100.306 213.22 108.84 211.067 109.225" fill="none" stroke="#231f20" stroke-dasharray="1.13 1.507" stroke-linecap="round" stroke-linejoin="round" stroke-width=".5"/><path d="M213.374,102.382l3.691,2.076s3.075,1.153,6.535.384c3.46-.769,22.451-5.69,22.451-5.69,0,0,1.845-.769,1.922-2.076s-.137-5.03-.137-5.03" fill="none" stroke="#231f20" stroke-dasharray="1.13 1.507" stroke-linecap="round" stroke-linejoin="round" stroke-width=".5"/><path d="M307.9,71.518l-2.684-2.207-111.368,21.621.675,5.075,1.639,1.446,4.531-.578,1.253.964.193,4.628,8.773,6.652-.289-8.58-6.845-4.242s-1.061-2.314-6.845-2.507c0,0-1.543-1.157.964-1.35s5.206-.675,5.206-.675l7.713,1.735,5.11,2.603s3.085,1.446,7.231.482c4.146-.964,6.363-1.543,6.363-1.543l12.919-.675,3.567-.675s2.025-.289,1.832-2.507-1.253-6.267-1.253-6.267c0,0-.868-.868,1.639-1.446,2.507-.578,59.677-11.955,59.677-11.955l-.096,4.917-59.774,11.762" fill="none" stroke="#231f20" stroke-dasharray="1.13 1.507" stroke-linecap="round" stroke-linejoin="round" stroke-width=".5"/><line x1="307.939" y1="71.298" x2="316.363" y2="69.685" fill="none" stroke="#231f20" stroke-dasharray="1.13 1.507" stroke-linecap="round" stroke-linejoin="round" stroke-width=".5"/><line x1="308.611" y1="74.058" x2="320.043" y2="71.773" fill="none" stroke="#231f20" stroke-dasharray="1.13 1.507" stroke-linecap="round" stroke-linejoin="round" stroke-width=".5"/><line x1="222.454" y1="97.005" x2="223.6" y2="104.842" fill="none" stroke="#231f20" stroke-dasharray="1.13 1.507" stroke-linecap="round" stroke-linejoin="round" stroke-width=".5"/><polygon points="225.497 98.744 226.076 101.714 228.612 99.613 225.497 98.744" fill="#231f20"/><path d="M260.981,108.962l30.997-33.903,20.051-4.262.872-.775,4.068-.291.194,4.94-16.08,20.342,16.08,4.165s2.061.634,2.009,3.066c-.053,2.431.211,5.127.211,5.127l-3.171,8.404.211,7.188s-.264,2.537-1.797,2.431-19.927-.634-19.927-.634l-1.639,2.484-8.88-3.118-10.624-.899-6.66-6.026-5.55-3.33s-2.584-2.262-.367-4.91Z" fill="#dcddde"/><path d="M312.802,70.308l-20.979,4.407-30.944,34.577s-2.207,2.82.981,4.904,6.253,3.31,6.253,3.31c0,0,1.861,1.006,4.302.135" fill="none" stroke="#231f20" stroke-linecap="round" stroke-linejoin="round" stroke-width=".5"/><polyline points="284.209 123.53 284.209 118.554 292.771 121.464 292.771 127.234" fill="none" stroke="#231f20" stroke-linecap="round" stroke-linejoin="round" stroke-width=".5"/><polyline points="294.366 124.305 294.332 118.382 284.208 118.313" fill="none" stroke="#231f20" stroke-linecap="round" stroke-linejoin="round" stroke-width=".5"/><line x1="292.92" y1="121.034" x2="294.056" y2="118.486" fill="none" stroke="#231f20" stroke-linecap="round" stroke-linejoin="round" stroke-width=".5"/><path d="M273.014,117.994l7.028-.062s10.013-1.741,12.625-2.239,4.976-.622,4.976-.622l17.788.062.684.933s.187,6.468.249,7.774-1.368,1.493-1.368,1.493l-15.113-.435-5.66-.222-1.055,2.697-8.91-3.165-11.021-.821-.821-5.745,40.482-47.334,4.132-.807s-16.737,21.353-18.401,23.018.434,2.388.434,2.388c0,0,15.196,3.618,17.945,4.342s2.098,2.605,2.098,2.605c0,0-2.533,4.92-3.69,7.236s-4.92,2.171-4.92,2.171l-12.373.072s-15.051,2.316-17.077,3.256.217,1.592.217,1.592l15.123-2.533,19.004.087.955.849" fill="none" stroke="#231f20" stroke-linecap="round" stroke-linejoin="round" stroke-width=".5"/><polyline points="301.088 94.833 317.224 74.573 317.083 69.807" fill="none" stroke="#231f20" stroke-linecap="round" stroke-linejoin="round" stroke-width=".5"/><polyline points="319.239 101.118 319.239 107.335 316.114 116.066" fill="none" stroke="#231f20" stroke-linecap="round" stroke-linejoin="round" stroke-width=".5"/><path d="M281.566,110.542l11.489-13.901s1.079-1.206,2.476-.889,18.979,4.38,18.979,4.38c0,0,1.206.381.825,1.269s-4.316,7.617-4.316,7.617l-11.235.063-17.138,2.602s-2.476.698-1.079-1.143Z" fill="none" stroke="#231f20" stroke-linecap="round" stroke-linejoin="round" stroke-width=".5"/><path d="M312.478,105.655s-.127-3.301-7.807-4.761c-7.68-1.46-15.615,1.777-15.615,1.777l.19,5.141s11.172-5.459,21.708.571" fill="none" stroke="#231f20" stroke-linecap="round" stroke-linejoin="round" stroke-width=".5"/><path d="M285.12,107.114s.571,2.539,3.11,3.301" fill="none" stroke="#231f20" stroke-linecap="round" stroke-linejoin="round" stroke-width=".5"/><line x1="289.246" y1="107.813" x2="287.723" y2="109.717" fill="none" stroke="#231f20" stroke-linecap="round" stroke-linejoin="round" stroke-width=".5"/><line x1="300.51" y1="115.33" x2="300.51" y2="124.686" fill="none" stroke="#231f20" stroke-linecap="round" stroke-linejoin="round" stroke-width=".5"/><line x1="302.896" y1="115.617" x2="302.896" y2="124.972" fill="none" stroke="#231f20" stroke-linecap="round" stroke-linejoin="round" stroke-width=".5"/><line x1="305.283" y1="115.903" x2="305.283" y2="125.259" fill="none" stroke="#231f20" stroke-linecap="round" stroke-linejoin="round" stroke-width=".5"/><line x1="307.669" y1="115.617" x2="307.669" y2="124.972" fill="none" stroke="#231f20" stroke-linecap="round" stroke-linejoin="round" stroke-width=".5"/><line x1="310.056" y1="115.712" x2="310.056" y2="125.068" fill="none" stroke="#231f20" stroke-linecap="round" stroke-linejoin="round" stroke-width=".5"/><line x1="312.443" y1="115.903" x2="312.443" y2="125.259" fill="none" stroke="#231f20" stroke-linecap="round" stroke-linejoin="round" stroke-width=".5"/><line x1="273.235" y1="123.386" x2="267.085" y2="117.314" fill="none" stroke="#231f20" stroke-linecap="round" stroke-linejoin="round" stroke-width=".5"/><circle cx="254.16" cy="96.61" r="93.857" fill="none"/><path d="M263.328,102.699l10.129,6.018-21.291,8.264,2.864-3.64c-18.287-1.762-24.849-11.418-24.849-11.418l11.087-2.671s6.277,5.685,19.654,6.535l2.407-3.088Z" fill="#231f20" stroke="#fff" stroke-miterlimit="10" stroke-width=".754"/><polyline points="196.113 113.327 170.51 118.407 169.533 107.709 195.133 102.634 194.791 98.942 204.837 107.411 196.448 117.023 196.113 113.327" stroke="#fff" stroke-linecap="round" stroke-linejoin="round" stroke-width=".754"/></g><circle cx="253.894" cy="96.963" r="93.857" fill="none" stroke="#fff" stroke-miterlimit="10" stroke-width="4"/><circle cx="253.894" cy="96.963" r="93.857" fill="none" stroke="#231f20" stroke-miterlimit="10" stroke-width=".75"/><line x1="214.551" y1="168.785" x2="195.558" y2="234.042" fill="#fff"/><line x1="214.551" y1="168.785" x2="195.558" y2="234.042" fill="none" stroke="#fff" stroke-linecap="round" stroke-linejoin="round" stroke-width="3"/><line x1="214.551" y1="168.785" x2="195.558" y2="234.042" fill="none" stroke="#000" stroke-linecap="round" stroke-linejoin="round" stroke-width=".75"/></g></svg>