<?xml version="1.0" encoding="utf-8"?>
<!-- Generator: Adobe Illustrator 28.3.0, SVG Export Plug-In . SVG Version: 6.00 Build 0)  -->
<svg version="1.1" xmlns="http://www.w3.org/2000/svg" xmlns:xlink="http://www.w3.org/1999/xlink" x="0px" y="0px"
	 width="361.2745px" height="266.9524px" viewBox="0 0 361.2745 266.9524" style="enable-background:new 0 0 361.2745 266.9524;"
	 xml:space="preserve">
<style type="text/css">
	.st0{fill:none;stroke:#1670B9;stroke-width:2.5;stroke-miterlimit:10;}
	.st1{fill:none;stroke:#BCBEC0;stroke-width:2.3914;stroke-miterlimit:10;}
	.st2{fill:none;stroke:#FFFFFF;stroke-width:3.5871;stroke-miterlimit:10;}
	.st3{fill:none;stroke:#F5A800;stroke-width:2.5;stroke-miterlimit:10;}
	.st4{fill:none;stroke:#FFFFFF;stroke-width:5.9784;stroke-miterlimit:10;}
	.st5{fill:none;stroke:#1670B9;stroke-width:2.5;stroke-miterlimit:10;stroke-dasharray:2.3065;}
	.st6{fill:none;stroke:#F5A800;stroke-width:2.5;stroke-miterlimit:10;stroke-dasharray:2.3065;}
	.st7{fill:#FFFFFF;stroke:#000000;stroke-width:1.2745;stroke-miterlimit:10;}
	.st8{fill:#FFFFFF;stroke:#000000;stroke-width:1.3045;stroke-miterlimit:10;}
	.st9{fill:none;stroke:#000000;stroke-width:1.4842;stroke-miterlimit:10;}
</style>
<g id="Layer_1">
	<line class="st0" x1="146.176" y1="32.6733" x2="254.001" y2="32.6733"/>
	<polyline class="st2" points="144.7815,167.7022 221.4187,167.7022 221.4187,84.978 254.001,84.978 	"/>
	<polyline class="st3" points="144.7815,167.6714 221.4187,167.6714 221.4187,84.978 254.001,84.978 	"/>
	<polyline class="st4" points="144.7815,50.3531 210.1147,50.3531 210.1147,107.419 254.001,107.419 	"/>
	<polyline class="st5" points="144.7815,50.0706 210.1147,50.0706 210.1147,107.419 254.001,107.419 	"/>
	<polyline class="st4" points="145.1767,186.3305 237.9303,186.3305 237.9303,56.2094 254.001,56.2094 	"/>
	<polyline class="st6" points="145.1767,186.3305 237.9303,186.3305 237.9303,56.2094 254.001,56.2094 	"/>
	<rect x="0.6373" y="18.2704" class="st7" width="144.1442" height="104.1757"/>
	<g>
		<path d="M37.1392,70.3521l1.042,0.2632c-0.2183,0.856-0.6113,1.5083-1.1787,1.9575c-0.5679,0.4497-1.2617,0.6743-2.0815,0.6743
			c-0.8486,0-1.5386-0.1729-2.0708-0.5181c-0.5312-0.3457-0.936-0.8462-1.2139-1.5015c-0.2773-0.6553-0.416-1.3589-0.416-2.1108
			c0-0.8198,0.1567-1.5352,0.4697-2.1455c0.3135-0.6108,0.7593-1.0742,1.3379-1.3916c0.5781-0.3164,1.2144-0.4751,1.9092-0.4751
			c0.7876,0,1.4502,0.2007,1.9873,0.6016s0.9111,0.9648,1.1226,1.6919l-1.0259,0.2417c-0.1826-0.5728-0.4478-0.9902-0.7949-1.2515
			s-0.7842-0.3921-1.3105-0.3921c-0.605,0-1.1108,0.145-1.5176,0.4351c-0.4062,0.29-0.6919,0.6797-0.8564,1.168
			c-0.1646,0.4893-0.2471,0.9932-0.2471,1.5122c0,0.6694,0.0977,1.2544,0.293,1.7534c0.1948,0.5,0.4985,0.873,0.9102,1.1201
			s0.8574,0.3706,1.3374,0.3706c0.5835,0,1.0776-0.1685,1.4824-0.5049S36.9962,71.0147,37.1392,70.3521z"/>
		<path d="M38.9815,70.2608c0-1.0562,0.2935-1.8389,0.8809-2.3472c0.4907-0.4224,1.0884-0.6338,1.7939-0.6338
			c0.7842,0,1.4253,0.2568,1.9229,0.7705c0.4976,0.5142,0.7466,1.2241,0.7466,2.1299c0,0.7339-0.1099,1.3115-0.3306,1.7324
			c-0.2197,0.4204-0.5405,0.7471-0.9609,0.98c-0.4209,0.2329-0.8804,0.3491-1.3779,0.3491c-0.7983,0-1.4438-0.2559-1.9365-0.7681
			C39.2276,71.9614,38.9815,71.2241,38.9815,70.2608z M39.9752,70.2608c0,0.7305,0.1592,1.2773,0.478,1.6411
			c0.3188,0.3633,0.7197,0.5449,1.2031,0.5449c0.48,0,0.8789-0.1826,1.1978-0.5479s0.478-0.9219,0.478-1.6704
			c0-0.7056-0.1602-1.2397-0.4805-1.603c-0.3208-0.3638-0.7192-0.5454-1.1953-0.5454c-0.4834,0-0.8843,0.1807-1.2031,0.5425
			S39.9752,69.5303,39.9752,70.2608z"/>
		<path d="M45.459,73.1128v-5.7041h0.8701v0.811c0.4189-0.6265,1.0239-0.9399,1.8154-0.9399c0.3438,0,0.6597,0.0615,0.9478,0.1855
			c0.2886,0.123,0.5044,0.2852,0.6475,0.4858s0.2437,0.4385,0.3008,0.7144c0.0356,0.1792,0.0537,0.4922,0.0537,0.9399v3.5073
			h-0.9668v-3.4697c0-0.394-0.0376-0.6885-0.1128-0.8838c-0.0752-0.1948-0.2085-0.3506-0.3999-0.4668
			c-0.1919-0.1167-0.4165-0.1748-0.6743-0.1748c-0.4116,0-0.7671,0.1309-1.0659,0.3921c-0.2993,0.2612-0.4487,0.7573-0.4487,1.4878
			v3.1152H45.459z"/>
		<path d="M53.6876,72.2481l0.1396,0.854c-0.272,0.0571-0.5156,0.0859-0.7305,0.0859c-0.3511,0-0.623-0.0557-0.8164-0.1665
			s-0.3296-0.2568-0.4082-0.438c-0.0786-0.1807-0.1182-0.561-0.1182-1.1411v-3.2817h-0.709v-0.752h0.709v-1.4126l0.9614-0.5801
			v1.9927h0.9722v0.752h-0.9722v3.3354c0,0.2759,0.0171,0.4531,0.0513,0.5317c0.0337,0.0786,0.0894,0.1416,0.166,0.188
			c0.0771,0.0464,0.1875,0.0698,0.3306,0.0698C53.3707,72.2857,53.5123,72.273,53.6876,72.2481z"/>
		<path d="M54.6221,73.1128v-5.7041h0.8701v0.8647c0.2222-0.4048,0.4272-0.6714,0.6147-0.8003
			c0.1885-0.1289,0.395-0.1934,0.6206-0.1934c0.3257,0,0.6572,0.104,0.9937,0.3115l-0.333,0.897
			c-0.2363-0.1396-0.4727-0.2095-0.709-0.2095c-0.2114,0-0.4009,0.0635-0.5693,0.1904c-0.1685,0.1274-0.2881,0.3037-0.3599,0.5293
			c-0.1074,0.3438-0.1611,0.7197-0.1611,1.1279v2.9863H54.6221z"/>
		<path d="M57.9361,70.2608c0-1.0562,0.2935-1.8389,0.8809-2.3472c0.4907-0.4224,1.0884-0.6338,1.7939-0.6338
			c0.7842,0,1.4253,0.2568,1.9229,0.7705c0.4976,0.5142,0.7466,1.2241,0.7466,2.1299c0,0.7339-0.1099,1.3115-0.3306,1.7324
			c-0.2197,0.4204-0.5405,0.7471-0.9609,0.98c-0.4209,0.2329-0.8804,0.3491-1.3779,0.3491c-0.7983,0-1.4438-0.2559-1.9365-0.7681
			C58.1822,71.9614,57.9361,71.2241,57.9361,70.2608z M58.9297,70.2608c0,0.7305,0.1592,1.2773,0.478,1.6411
			c0.3188,0.3633,0.7197,0.5449,1.2031,0.5449c0.48,0,0.8789-0.1826,1.1978-0.5479s0.478-0.9219,0.478-1.6704
			c0-0.7056-0.1602-1.2397-0.4805-1.603c-0.3208-0.3638-0.7192-0.5454-1.1953-0.5454c-0.4834,0-0.8843,0.1807-1.2031,0.5425
			S58.9297,69.5303,58.9297,70.2608z"/>
		<path d="M64.3922,73.1128v-7.874h0.9668v7.874H64.3922z"/>
		<path d="M66.836,73.1128v-7.874h0.9668v7.874H66.836z"/>
		<path d="M73.2061,71.2759l0.999,0.1235c-0.1577,0.5835-0.4492,1.0366-0.8755,1.3589s-0.9702,0.4834-1.6328,0.4834
			c-0.8345,0-1.4956-0.2568-1.9849-0.7705c-0.4883-0.5142-0.7329-1.2349-0.7329-2.1621c0-0.9595,0.2471-1.7046,0.7412-2.2344
			s1.1353-0.7949,1.9229-0.7949c0.7627,0,1.3857,0.2598,1.8691,0.7788s0.7251,1.2495,0.7251,2.1914
			c0,0.0571-0.002,0.1431-0.0054,0.2578h-4.2539c0.0356,0.6265,0.2129,1.1064,0.5317,1.4395s0.7163,0.4995,1.1924,0.4995
			c0.3545,0,0.6572-0.0933,0.9077-0.2793S73.0591,71.6841,73.2061,71.2759z M70.0318,69.7129h3.1851
			c-0.043-0.48-0.1646-0.8398-0.3652-1.0796c-0.3081-0.3726-0.707-0.5586-1.1978-0.5586c-0.4438,0-0.8174,0.1484-1.1196,0.4458
			C70.2315,68.8179,70.064,69.2154,70.0318,69.7129z"/>
		<path d="M75.4083,73.1128v-5.7041h0.8701v0.8647c0.2222-0.4048,0.4272-0.6714,0.6147-0.8003
			c0.1885-0.1289,0.395-0.1934,0.6206-0.1934c0.3257,0,0.6572,0.104,0.9937,0.3115l-0.333,0.897
			c-0.2363-0.1396-0.4727-0.2095-0.709-0.2095c-0.2114,0-0.4009,0.0635-0.5693,0.1904c-0.1685,0.1274-0.2881,0.3037-0.3599,0.5293
			c-0.1074,0.3438-0.1611,0.7197-0.1611,1.1279v2.9863H75.4083z"/>
		<path d="M80.7901,73.1128l3.0239-7.874h1.1226l3.2227,7.874h-1.187l-0.9185-2.3848h-3.2925l-0.8647,2.3848H80.7901z
			 M83.0621,69.8794h2.6694l-0.8218-2.1807c-0.2505-0.6626-0.437-1.2065-0.5586-1.6328c-0.1001,0.5049-0.2417,1.0063-0.4243,1.5039
			L83.0621,69.8794z"/>
	</g>
	<rect x="0.6373" y="154.7523" class="st7" width="144.1442" height="104.1757"/>
	<g>
		<path d="M36.5328,210.1939l1.042,0.2627c-0.2183,0.8564-0.6113,1.5088-1.1787,1.958c-0.5679,0.4492-1.2617,0.6748-2.0815,0.6748
			c-0.8486,0-1.5386-0.1729-2.0708-0.5186c-0.5312-0.3457-0.936-0.8467-1.2139-1.501c-0.2773-0.6562-0.416-1.3594-0.416-2.1113
			c0-0.8203,0.1567-1.5352,0.4697-2.1455c0.3135-0.6104,0.7593-1.0742,1.3379-1.3916c0.5781-0.3164,1.2144-0.4746,1.9092-0.4746
			c0.7876,0,1.4502,0.2002,1.9873,0.6016c0.5371,0.4004,0.9111,0.9648,1.1226,1.6914l-1.0259,0.2422
			c-0.1826-0.5732-0.4478-0.9902-0.7949-1.252s-0.7842-0.3926-1.3105-0.3926c-0.605,0-1.1108,0.1455-1.5176,0.4355
			c-0.4062,0.29-0.6919,0.6797-0.8564,1.168c-0.1646,0.4893-0.2471,0.9932-0.2471,1.5117c0,0.6699,0.0977,1.2549,0.293,1.7539
			c0.1948,0.5,0.4985,0.873,0.9102,1.1201s0.8574,0.3701,1.3374,0.3701c0.5835,0,1.0776-0.168,1.4824-0.5039
			C36.1158,211.356,36.3897,210.856,36.5328,210.1939z"/>
		<path d="M38.3751,210.103c0-1.0566,0.2935-1.8389,0.8809-2.3477c0.4907-0.4229,1.0884-0.6338,1.7939-0.6338
			c0.7842,0,1.4253,0.2568,1.9229,0.7705s0.7466,1.2236,0.7466,2.1299c0,0.7344-0.1099,1.3115-0.3306,1.7324
			c-0.2197,0.4209-0.5405,0.7471-0.9609,0.9795c-0.4209,0.2334-0.8804,0.3496-1.3779,0.3496c-0.7983,0-1.4438-0.2559-1.9365-0.7676
			C38.6212,211.8032,38.3751,211.0659,38.3751,210.103z M39.3687,210.103c0,0.7305,0.1592,1.2773,0.478,1.6406
			s0.7197,0.5449,1.2031,0.5449c0.48,0,0.8789-0.1826,1.1978-0.5479s0.478-0.9219,0.478-1.6709
			c0-0.7051-0.1602-1.2393-0.4805-1.6025c-0.3208-0.3633-0.7192-0.5459-1.1953-0.5459c-0.4834,0-0.8843,0.1816-1.2031,0.543
			S39.3687,209.3726,39.3687,210.103z"/>
		<path d="M44.8526,212.9546v-5.7041h0.8701v0.8115c0.4189-0.627,1.0239-0.9404,1.8154-0.9404c0.3438,0,0.6597,0.0615,0.9478,0.1855
			c0.2886,0.123,0.5044,0.2852,0.6475,0.4854c0.1431,0.2012,0.2437,0.4395,0.3008,0.7148c0.0356,0.1787,0.0537,0.4922,0.0537,0.9395
			v3.5078h-0.9668v-3.4697c0-0.3936-0.0376-0.6885-0.1128-0.8838s-0.2085-0.3506-0.3999-0.4668
			c-0.1919-0.1162-0.4165-0.1748-0.6743-0.1748c-0.4116,0-0.7671,0.1309-1.0659,0.3916c-0.2993,0.2617-0.4487,0.7578-0.4487,1.4883
			v3.1152H44.8526z"/>
		<path d="M53.0811,212.0894l0.1396,0.8545c-0.272,0.0576-0.5156,0.0859-0.7305,0.0859c-0.3511,0-0.623-0.0557-0.8164-0.167
			c-0.1934-0.1104-0.3296-0.2568-0.4082-0.4375s-0.1182-0.5605-0.1182-1.1406v-3.2822h-0.709v-0.752h0.709v-1.4131l0.9614-0.5801
			v1.9932h0.9722v0.752h-0.9722v3.335c0,0.2764,0.0171,0.4531,0.0513,0.5322c0.0337,0.0791,0.0894,0.1416,0.166,0.1885
			c0.0771,0.0459,0.1875,0.0693,0.3306,0.0693C52.7642,212.1275,52.9058,212.1148,53.0811,212.0894z"/>
		<path d="M54.0157,212.9546v-5.7041h0.8701v0.8643c0.2222-0.4043,0.4272-0.6709,0.6147-0.7998
			c0.1885-0.1289,0.395-0.1934,0.6206-0.1934c0.3257,0,0.6572,0.1035,0.9937,0.3115l-0.333,0.8965
			c-0.2363-0.1387-0.4727-0.209-0.709-0.209c-0.2114,0-0.4009,0.0635-0.5693,0.1904s-0.2881,0.3037-0.3599,0.5293
			c-0.1074,0.3438-0.1611,0.7197-0.1611,1.1279v2.9863H54.0157z"/>
		<path d="M57.3297,210.103c0-1.0566,0.2935-1.8389,0.8809-2.3477c0.4907-0.4229,1.0884-0.6338,1.7939-0.6338
			c0.7842,0,1.4253,0.2568,1.9229,0.7705s0.7466,1.2236,0.7466,2.1299c0,0.7344-0.1099,1.3115-0.3306,1.7324
			c-0.2197,0.4209-0.5405,0.7471-0.9609,0.9795c-0.4209,0.2334-0.8804,0.3496-1.3779,0.3496c-0.7983,0-1.4438-0.2559-1.9365-0.7676
			C57.5757,211.8032,57.3297,211.0659,57.3297,210.103z M58.3233,210.103c0,0.7305,0.1592,1.2773,0.478,1.6406
			s0.7197,0.5449,1.2031,0.5449c0.48,0,0.8789-0.1826,1.1978-0.5479s0.478-0.9219,0.478-1.6709
			c0-0.7051-0.1602-1.2393-0.4805-1.6025c-0.3208-0.3633-0.7192-0.5459-1.1953-0.5459c-0.4834,0-0.8843,0.1816-1.2031,0.543
			S58.3233,209.3726,58.3233,210.103z"/>
		<path d="M63.7857,212.9546v-7.874h0.9668v7.874H63.7857z"/>
		<path d="M66.2296,212.9546v-7.874h0.9668v7.874H66.2296z"/>
		<path d="M72.5997,211.1177l0.999,0.124c-0.1577,0.583-0.4492,1.0361-0.8755,1.3584s-0.9702,0.4834-1.6328,0.4834
			c-0.8345,0-1.4956-0.2568-1.9849-0.7705c-0.4883-0.5137-0.7329-1.2344-0.7329-2.1621c0-0.96,0.2471-1.7041,0.7412-2.2344
			s1.1353-0.7949,1.9229-0.7949c0.7627,0,1.3857,0.2598,1.8691,0.7783c0.4834,0.5195,0.7251,1.25,0.7251,2.1914
			c0,0.0576-0.002,0.1436-0.0054,0.2578h-4.2539c0.0356,0.627,0.2129,1.1074,0.5317,1.4395c0.3188,0.334,0.7163,0.5,1.1924,0.5
			c0.3545,0,0.6572-0.0928,0.9077-0.2793S72.4527,211.5259,72.5997,211.1177z M69.4254,209.5542h3.1851
			c-0.043-0.4795-0.1646-0.8389-0.3652-1.0791c-0.3081-0.3721-0.707-0.5586-1.1978-0.5586c-0.4438,0-0.8174,0.1484-1.1196,0.4463
			C69.6251,208.6597,69.4576,209.0571,69.4254,209.5542z"/>
		<path d="M74.8018,212.9546v-5.7041h0.8701v0.8643c0.2222-0.4043,0.4272-0.6709,0.6147-0.7998
			c0.1885-0.1289,0.395-0.1934,0.6206-0.1934c0.3257,0,0.6572,0.1035,0.9937,0.3115l-0.333,0.8965
			c-0.2363-0.1387-0.4727-0.209-0.709-0.209c-0.2114,0-0.4009,0.0635-0.5693,0.1904s-0.2881,0.3037-0.3599,0.5293
			c-0.1074,0.3438-0.1611,0.7197-0.1611,1.1279v2.9863H74.8018z"/>
		<path d="M81.6124,212.9546v-7.874h2.9541c0.6016,0,1.084,0.0801,1.4473,0.2393c0.3638,0.1592,0.6484,0.4043,0.8545,0.7354
			c0.2056,0.3311,0.3086,0.6777,0.3086,1.04c0,0.3359-0.0913,0.6533-0.2739,0.9502s-0.4585,0.5371-0.8271,0.7197
			c0.4761,0.1396,0.8423,0.3779,1.0981,0.7148c0.2563,0.3359,0.3843,0.7334,0.3843,1.1914c0,0.3691-0.0776,0.7119-0.2339,1.0293
			c-0.1553,0.3164-0.3481,0.5605-0.5771,0.7324s-0.5166,0.3018-0.8623,0.3896c-0.3452,0.0879-0.7686,0.1318-1.27,0.1318H81.6124z
			 M82.6544,208.3892h1.7026c0.4619,0,0.793-0.0303,0.9937-0.0908c0.2651-0.0791,0.4648-0.21,0.5986-0.3926
			c0.1348-0.1826,0.2017-0.4121,0.2017-0.6875c0-0.2617-0.0625-0.4912-0.188-0.6904c-0.1255-0.1982-0.3042-0.335-0.5371-0.4082
			s-0.6318-0.1104-1.1978-0.1104h-1.5737V208.3892z M82.6544,212.0249h1.9604c0.3364,0,0.5728-0.0117,0.709-0.0371
			c0.2397-0.043,0.4404-0.1143,0.6016-0.2148s0.2935-0.2461,0.3975-0.4375s0.1558-0.4131,0.1558-0.6641
			c0-0.293-0.0752-0.5479-0.2256-0.7646s-0.3589-0.3691-0.626-0.457c-0.2666-0.0879-0.6504-0.1318-1.1519-0.1318h-1.8208V212.0249z"
			/>
	</g>
	<g>
		<rect x="254.001" y="18.2704" class="st7" width="106.6362" height="104.1757"/>
		<g>
			<g>
				<g>
					<rect x="254.001" y="27.5591" class="st8" width="33.4165" height="12.2283"/>
					<g>
						<path d="M266.4351,35.6226l0.9531,0.1177c-0.1504,0.5576-0.4287,0.9897-0.8359,1.2974
							c-0.4062,0.3076-0.9258,0.4614-1.5586,0.4614c-0.7959,0-1.4277-0.2451-1.8945-0.7358
							c-0.4658-0.4902-0.6992-1.1782-0.6992-2.0635c0-0.916,0.2354-1.627,0.707-2.1328s1.084-0.7588,1.8359-0.7588
							c0.7275,0,1.3223,0.248,1.7842,0.7437c0.4609,0.4956,0.6924,1.1929,0.6924,2.0918c0,0.0547-0.002,0.1367-0.0059,0.2461
							h-4.0605c0.0342,0.5981,0.2031,1.0557,0.5078,1.374c0.3037,0.3174,0.6836,0.4766,1.1387,0.4766
							c0.3379,0,0.627-0.0889,0.8662-0.2666S266.2945,36.0122,266.4351,35.6226z M263.4048,34.1309h3.04
							c-0.041-0.458-0.1572-0.8018-0.3486-1.0308c-0.2939-0.3555-0.6748-0.5332-1.1436-0.5332
							c-0.4238,0-0.7803,0.1421-1.0684,0.4253C263.5953,33.2764,263.4351,33.6558,263.4048,34.1309z"/>
						<path d="M268.2906,33.669c0-0.8882,0.0918-1.6035,0.2744-2.1455c0.1826-0.5415,0.4551-0.9595,0.8154-1.2534
							s0.8145-0.4409,1.3613-0.4409c0.4033,0,0.7568,0.0811,1.0605,0.2437c0.3047,0.1621,0.5557,0.3965,0.7539,0.7021
							c0.1982,0.3062,0.3535,0.6787,0.4668,1.1177c0.1133,0.4395,0.1689,1.0317,0.1689,1.7764c0,0.8818-0.0908,1.5938-0.2715,2.1357
							c-0.1816,0.5415-0.4521,0.9604-0.8125,1.2559c-0.3604,0.2959-0.8164,0.4434-1.3662,0.4434
							c-0.7246,0-1.2939-0.2593-1.707-0.7793C268.5386,36.0996,268.2906,35.0811,268.2906,33.669z M269.2398,33.669
							c0,1.2344,0.1436,2.0552,0.4326,2.4639c0.2891,0.4082,0.6455,0.6123,1.0693,0.6123s0.7803-0.2051,1.0684-0.6152
							c0.2891-0.4102,0.4336-1.2305,0.4336-2.4609c0-1.2368-0.1445-2.0591-0.4336-2.4658
							c-0.2881-0.4067-0.6484-0.6104-1.0791-0.6104c-0.4238,0-0.7617,0.1797-1.0146,0.5386
							C269.398,31.5894,269.2398,32.4356,269.2398,33.669z"/>
						<path d="M277.939,36.7041c-0.3418,0.291-0.6709,0.4961-0.9873,0.6152c-0.3154,0.1196-0.6553,0.1797-1.0176,0.1797
							c-0.5977,0-1.0576-0.146-1.3789-0.4385c-0.3213-0.292-0.4824-0.6655-0.4824-1.1201c0-0.2666,0.0615-0.5103,0.1826-0.7305
							c0.1211-0.2207,0.2803-0.3975,0.4766-0.5308s0.418-0.2339,0.6641-0.3022c0.1807-0.0479,0.4541-0.0942,0.8203-0.1387
							c0.7451-0.0889,1.2939-0.1948,1.6455-0.3179c0.0039-0.1265,0.0059-0.2065,0.0059-0.2407c0-0.376-0.0879-0.6411-0.2617-0.7949
							c-0.2363-0.2085-0.5869-0.3125-1.0508-0.3125c-0.4346,0-0.7549,0.0757-0.9619,0.228c-0.207,0.1519-0.3594,0.4214-0.459,0.8071
							l-0.9023-0.123c0.082-0.3857,0.2168-0.6978,0.4053-0.9355c0.1875-0.2373,0.46-0.4204,0.8154-0.5483
							c0.3555-0.1284,0.7666-0.1924,1.2354-0.1924c0.4648,0,0.8428,0.0547,1.1328,0.1641c0.291,0.1094,0.5039,0.2471,0.6406,0.4126
							c0.1367,0.166,0.2324,0.3755,0.2871,0.6279c0.0312,0.1577,0.0469,0.4414,0.0469,0.8516v1.2305
							c0,0.8579,0.0195,1.4004,0.0586,1.6274c0.0391,0.2275,0.1172,0.4453,0.2334,0.6538h-0.9639
							C278.0279,37.1846,277.9664,36.961,277.939,36.7041z M277.8619,34.6436c-0.335,0.1367-0.8369,0.2529-1.5068,0.3486
							c-0.3799,0.0547-0.6484,0.1162-0.8057,0.1846s-0.2783,0.168-0.3633,0.2998c-0.0859,0.1313-0.1289,0.2778-0.1289,0.4385
							c0,0.2461,0.0938,0.4512,0.2803,0.6152c0.1855,0.1641,0.458,0.2461,0.8174,0.2461c0.3555,0,0.6719-0.0781,0.9482-0.2334
							c0.2773-0.1558,0.4805-0.3682,0.6104-0.6387c0.0986-0.208,0.1484-0.5156,0.1484-0.9229V34.6436z"/>
					</g>
				</g>
			</g>
			<g>
				<g>
					<rect x="254.001" y="49.6244" class="st8" width="33.4165" height="12.2283"/>
					<g>
						<path d="M266.4351,57.688l0.9531,0.1177c-0.1504,0.5576-0.4287,0.9897-0.8359,1.2974
							c-0.4062,0.3076-0.9258,0.4614-1.5586,0.4614c-0.7959,0-1.4277-0.2451-1.8945-0.7358
							c-0.4658-0.4902-0.6992-1.1782-0.6992-2.0635c0-0.916,0.2354-1.627,0.707-2.1328s1.084-0.7588,1.8359-0.7588
							c0.7275,0,1.3223,0.248,1.7842,0.7437c0.4609,0.4956,0.6924,1.1929,0.6924,2.0918c0,0.0547-0.002,0.1367-0.0059,0.2461
							h-4.0605c0.0342,0.5981,0.2031,1.0557,0.5078,1.374c0.3037,0.3174,0.6836,0.4766,1.1387,0.4766
							c0.3379,0,0.627-0.0889,0.8662-0.2666S266.2945,58.0777,266.4351,57.688z M263.4048,56.1963h3.04
							c-0.041-0.458-0.1572-0.8018-0.3486-1.0308c-0.2939-0.3555-0.6748-0.5332-1.1436-0.5332
							c-0.4238,0-0.7803,0.1421-1.0684,0.4253C263.5953,55.3418,263.4351,55.7212,263.4048,56.1963z"/>
						<path d="M268.2906,55.7344c0-0.8882,0.0918-1.6035,0.2744-2.1455c0.1826-0.5415,0.4551-0.9595,0.8154-1.2534
							s0.8145-0.4409,1.3613-0.4409c0.4033,0,0.7568,0.0811,1.0605,0.2437c0.3047,0.1621,0.5557,0.3965,0.7539,0.7021
							c0.1982,0.3062,0.3535,0.6787,0.4668,1.1177c0.1133,0.4395,0.1689,1.0317,0.1689,1.7764c0,0.8818-0.0908,1.5938-0.2715,2.1357
							c-0.1816,0.5415-0.4521,0.9604-0.8125,1.2559c-0.3604,0.2959-0.8164,0.4434-1.3662,0.4434
							c-0.7246,0-1.2939-0.2593-1.707-0.7793C268.5386,58.1651,268.2906,57.1465,268.2906,55.7344z M269.2398,55.7344
							c0,1.2344,0.1436,2.0552,0.4326,2.4639c0.2891,0.4082,0.6455,0.6123,1.0693,0.6123s0.7803-0.2051,1.0684-0.6152
							c0.2891-0.4102,0.4336-1.2305,0.4336-2.4609c0-1.2368-0.1445-2.0591-0.4336-2.4658
							c-0.2881-0.4067-0.6484-0.6104-1.0791-0.6104c-0.4238,0-0.7617,0.1797-1.0146,0.5386
							C269.398,53.6548,269.2398,54.501,269.2398,55.7344z"/>
						<path d="M275.2369,59.4414h-0.8555v-7.5161h0.9219v2.6812c0.3906-0.4883,0.8877-0.7329,1.4922-0.7329
							c0.335,0,0.6523,0.0674,0.9512,0.2026c0.2988,0.1348,0.5449,0.3247,0.7383,0.5688c0.1934,0.2446,0.3447,0.5396,0.4541,0.8843
							c0.1094,0.3457,0.1641,0.7148,0.1641,1.1074c0,0.9336-0.2314,1.6548-0.6924,2.1641s-1.0156,0.7637-1.6611,0.7637
							c-0.6426,0-1.1465-0.2681-1.5127-0.8047V59.4414z M275.2271,56.6778c0,0.6533,0.0889,1.125,0.2666,1.415
							c0.29,0.4756,0.6836,0.7129,1.1787,0.7129c0.4033,0,0.752-0.1753,1.0459-0.5254c0.2939-0.3506,0.4414-0.8726,0.4414-1.5664
							c0-0.7109-0.1416-1.2354-0.4229-1.5742c-0.2822-0.3379-0.623-0.5073-1.0234-0.5073c-0.4033,0-0.752,0.1753-1.0459,0.5254
							C275.3736,55.5083,275.2271,56.0152,275.2271,56.6778z"/>
					</g>
				</g>
			</g>
			<g>
				<g>
					<rect x="254.001" y="78.8639" class="st8" width="33.4165" height="12.2283"/>
					<g>
						<path d="M266.4351,86.9282l0.9531,0.1177c-0.1504,0.5576-0.4287,0.9897-0.8359,1.2974
							c-0.4062,0.3076-0.9258,0.4614-1.5586,0.4614c-0.7959,0-1.4277-0.2451-1.8945-0.7358
							c-0.4658-0.4902-0.6992-1.1782-0.6992-2.0635c0-0.916,0.2354-1.627,0.707-2.1328s1.084-0.7588,1.8359-0.7588
							c0.7275,0,1.3223,0.248,1.7842,0.7437c0.4609,0.4956,0.6924,1.1929,0.6924,2.0918c0,0.0547-0.002,0.1367-0.0059,0.2461
							h-4.0605c0.0342,0.5981,0.2031,1.0557,0.5078,1.374c0.3037,0.3174,0.6836,0.4766,1.1387,0.4766
							c0.3379,0,0.627-0.0889,0.8662-0.2666S266.2945,87.3179,266.4351,86.9282z M263.4048,85.4365h3.04
							c-0.041-0.458-0.1572-0.8018-0.3486-1.0308c-0.2939-0.3555-0.6748-0.5332-1.1436-0.5332
							c-0.4238,0-0.7803,0.1421-1.0684,0.4253C263.5953,84.5821,263.4351,84.9614,263.4048,85.4365z"/>
						<path d="M268.2906,84.9746c0-0.8882,0.0918-1.6035,0.2744-2.1455c0.1826-0.5415,0.4551-0.9595,0.8154-1.2534
							s0.8145-0.4409,1.3613-0.4409c0.4033,0,0.7568,0.0811,1.0605,0.2437c0.3047,0.1621,0.5557,0.3965,0.7539,0.7021
							c0.1982,0.3062,0.3535,0.6787,0.4668,1.1177c0.1133,0.4395,0.1689,1.0317,0.1689,1.7764c0,0.8818-0.0908,1.5938-0.2715,2.1357
							c-0.1816,0.5415-0.4521,0.9604-0.8125,1.2559c-0.3604,0.2959-0.8164,0.4434-1.3662,0.4434
							c-0.7246,0-1.2939-0.2593-1.707-0.7793C268.5386,87.4053,268.2906,86.3867,268.2906,84.9746z M269.2398,84.9746
							c0,1.2344,0.1436,2.0552,0.4326,2.4639c0.2891,0.4082,0.6455,0.6123,1.0693,0.6123s0.7803-0.2051,1.0684-0.6152
							c0.2891-0.4102,0.4336-1.2305,0.4336-2.4609c0-1.2368-0.1445-2.0591-0.4336-2.4658
							c-0.2881-0.4067-0.6484-0.6104-1.0791-0.6104c-0.4238,0-0.7617,0.1797-1.0146,0.5386
							C269.398,82.895,269.2398,83.7412,269.2398,84.9746z"/>
						<path d="M277.939,88.0098c-0.3418,0.291-0.6709,0.4961-0.9873,0.6152c-0.3154,0.1196-0.6553,0.1797-1.0176,0.1797
							c-0.5977,0-1.0576-0.146-1.3789-0.4385c-0.3213-0.292-0.4824-0.6655-0.4824-1.1201c0-0.2666,0.0615-0.5103,0.1826-0.7305
							c0.1211-0.2207,0.2803-0.3975,0.4766-0.5308s0.418-0.2339,0.6641-0.3022c0.1807-0.0479,0.4541-0.0942,0.8203-0.1387
							c0.7451-0.0889,1.2939-0.1948,1.6455-0.3179c0.0039-0.1265,0.0059-0.2065,0.0059-0.2407c0-0.376-0.0879-0.6411-0.2617-0.7949
							c-0.2363-0.2085-0.5869-0.3125-1.0508-0.3125c-0.4346,0-0.7549,0.0757-0.9619,0.228c-0.207,0.1519-0.3594,0.4214-0.459,0.8071
							l-0.9023-0.123c0.082-0.3857,0.2168-0.6978,0.4053-0.9355c0.1875-0.2373,0.46-0.4204,0.8154-0.5483
							c0.3555-0.1284,0.7666-0.1924,1.2354-0.1924c0.4648,0,0.8428,0.0547,1.1328,0.1641c0.291,0.1094,0.5039,0.2471,0.6406,0.4126
							c0.1367,0.166,0.2324,0.3755,0.2871,0.6279c0.0312,0.1577,0.0469,0.4414,0.0469,0.8516v1.2305
							c0,0.8579,0.0195,1.4004,0.0586,1.6274c0.0391,0.2275,0.1172,0.4453,0.2334,0.6538h-0.9639
							C278.0279,88.4903,277.9664,88.2666,277.939,88.0098z M277.8619,85.9492c-0.335,0.1367-0.8369,0.2529-1.5068,0.3486
							c-0.3799,0.0547-0.6484,0.1162-0.8057,0.1846s-0.2783,0.168-0.3633,0.2998c-0.0859,0.1313-0.1289,0.2778-0.1289,0.4385
							c0,0.2461,0.0938,0.4512,0.2803,0.6152c0.1855,0.1641,0.458,0.2461,0.8174,0.2461c0.3555,0,0.6719-0.0781,0.9482-0.2334
							c0.2773-0.1558,0.4805-0.3682,0.6104-0.6387c0.0986-0.208,0.1484-0.5156,0.1484-0.9229V85.9492z"/>
					</g>
				</g>
			</g>
			<g>
				<g>
					<rect x="254.001" y="100.9291" class="st8" width="33.4165" height="12.2283"/>
					<g>
						<path d="M266.4351,108.9927l0.9531,0.1177c-0.1504,0.5576-0.4287,0.9897-0.8359,1.2974
							c-0.4062,0.3076-0.9258,0.4614-1.5586,0.4614c-0.7959,0-1.4277-0.2451-1.8945-0.7358
							c-0.4658-0.4902-0.6992-1.1782-0.6992-2.0635c0-0.916,0.2354-1.627,0.707-2.1328s1.084-0.7588,1.8359-0.7588
							c0.7275,0,1.3223,0.248,1.7842,0.7437c0.4609,0.4956,0.6924,1.1929,0.6924,2.0918c0,0.0547-0.002,0.1367-0.0059,0.2461
							h-4.0605c0.0342,0.5981,0.2031,1.0557,0.5078,1.374c0.3037,0.3174,0.6836,0.4766,1.1387,0.4766
							c0.3379,0,0.627-0.0889,0.8662-0.2666S266.2945,109.3823,266.4351,108.9927z M263.4048,107.501h3.04
							c-0.041-0.458-0.1572-0.8018-0.3486-1.0308c-0.2939-0.3555-0.6748-0.5332-1.1436-0.5332
							c-0.4238,0-0.7803,0.1421-1.0684,0.4253C263.5953,106.6465,263.4351,107.0259,263.4048,107.501z"/>
						<path d="M268.2906,107.0391c0-0.8882,0.0918-1.6035,0.2744-2.1455c0.1826-0.5415,0.4551-0.9595,0.8154-1.2534
							s0.8145-0.4409,1.3613-0.4409c0.4033,0,0.7568,0.0811,1.0605,0.2437c0.3047,0.1621,0.5557,0.3965,0.7539,0.7021
							c0.1982,0.3062,0.3535,0.6787,0.4668,1.1177c0.1133,0.4395,0.1689,1.0317,0.1689,1.7764c0,0.8818-0.0908,1.5938-0.2715,2.1357
							c-0.1816,0.5415-0.4521,0.9604-0.8125,1.2559c-0.3604,0.2959-0.8164,0.4434-1.3662,0.4434
							c-0.7246,0-1.2939-0.2593-1.707-0.7793C268.5386,109.4697,268.2906,108.4512,268.2906,107.0391z M269.2398,107.0391
							c0,1.2344,0.1436,2.0552,0.4326,2.4639c0.2891,0.4082,0.6455,0.6123,1.0693,0.6123s0.7803-0.2051,1.0684-0.6152
							c0.2891-0.4102,0.4336-1.2305,0.4336-2.4609c0-1.2368-0.1445-2.0591-0.4336-2.4658
							c-0.2881-0.4067-0.6484-0.6104-1.0791-0.6104c-0.4238,0-0.7617,0.1797-1.0146,0.5386
							C269.398,104.9595,269.2398,105.8057,269.2398,107.0391z"/>
						<path d="M275.2369,110.7461h-0.8555V103.23h0.9219v2.6812c0.3906-0.4883,0.8877-0.7329,1.4922-0.7329
							c0.335,0,0.6523,0.0674,0.9512,0.2026c0.2988,0.1348,0.5449,0.3247,0.7383,0.5688c0.1934,0.2446,0.3447,0.5396,0.4541,0.8843
							c0.1094,0.3457,0.1641,0.7148,0.1641,1.1074c0,0.9336-0.2314,1.6548-0.6924,2.1641s-1.0156,0.7637-1.6611,0.7637
							c-0.6426,0-1.1465-0.2681-1.5127-0.8047V110.7461z M275.2271,107.9824c0,0.6533,0.0889,1.125,0.2666,1.415
							c0.29,0.4756,0.6836,0.7129,1.1787,0.7129c0.4033,0,0.752-0.1753,1.0459-0.5254c0.2939-0.3506,0.4414-0.8726,0.4414-1.5664
							c0-0.7109-0.1416-1.2354-0.4229-1.5742c-0.2822-0.3379-0.623-0.5073-1.0234-0.5073c-0.4033,0-0.752,0.1753-1.0459,0.5254
							C275.3736,106.813,275.2271,107.3198,275.2271,107.9824z"/>
					</g>
				</g>
			</g>
		</g>
		<line class="st8" x1="254.001" y1="70.3583" x2="360.6373" y2="70.3583"/>
	</g>
	<g>
		<path d="M291.0533,9.5586l0.9619-0.084c0.0449,0.3857,0.1514,0.7017,0.3174,0.9487c0.167,0.2466,0.4248,0.4463,0.7754,0.5986
			c0.3496,0.1528,0.7441,0.229,1.1816,0.229c0.3896,0,0.7324-0.0581,1.0303-0.1738c0.2979-0.1152,0.5195-0.2739,0.665-0.4751
			c0.1455-0.2017,0.2178-0.4214,0.2178-0.6597c0-0.2417-0.0703-0.4526-0.21-0.6333c-0.1406-0.1802-0.3711-0.3315-0.6934-0.4546
			c-0.207-0.0801-0.6641-0.2056-1.3721-0.3755c-0.707-0.1699-1.2031-0.3301-1.4873-0.481
			c-0.3672-0.1924-0.6416-0.4316-0.8223-0.7168c-0.1797-0.2856-0.2705-0.6055-0.2705-0.959c0-0.3892,0.1104-0.7524,0.3311-1.0903
			c0.2207-0.3384,0.543-0.5947,0.9668-0.77s0.8955-0.2627,1.4141-0.2627c0.5703,0,1.0742,0.0918,1.5107,0.2759
			c0.4355,0.1841,0.7715,0.4546,1.0059,0.812c0.2344,0.3569,0.3604,0.7617,0.3779,1.2134l-0.9766,0.0737
			c-0.0527-0.4868-0.2305-0.8545-0.5332-1.1035c-0.3037-0.2485-0.751-0.373-1.3428-0.373c-0.6172,0-1.0664,0.1133-1.3477,0.3389
			c-0.2822,0.2261-0.4238,0.4985-0.4238,0.8174c0,0.2769,0.1006,0.5044,0.2998,0.6831c0.1963,0.1787,0.709,0.3613,1.5371,0.5488
			s1.3965,0.3516,1.7051,0.4912c0.4482,0.207,0.7793,0.4688,0.9932,0.7856c0.2139,0.3174,0.3203,0.6821,0.3203,1.0957
			c0,0.4097-0.1172,0.7959-0.3516,1.1587c-0.2354,0.3623-0.5723,0.6445-1.0117,0.8457c-0.4395,0.2017-0.9346,0.3022-1.4844,0.3022
			c-0.6973,0-1.2812-0.1016-1.7529-0.3047c-0.4707-0.2031-0.8398-0.5088-1.1084-0.917
			C291.2086,10.5352,291.067,10.0738,291.0533,9.5586z"/>
		<path d="M298.4566,12.0337V4.3306h0.9463v2.7637c0.4414-0.5112,0.998-0.7671,1.6709-0.7671c0.4131,0,0.7725,0.0815,1.0771,0.2446
			c0.3047,0.1626,0.5225,0.3877,0.6543,0.6753c0.1309,0.2871,0.1973,0.7041,0.1973,1.2505v3.5361h-0.9463V8.4976
			c0-0.4731-0.1025-0.8174-0.3076-1.0327s-0.4941-0.3232-0.8691-0.3232c-0.2803,0-0.5439,0.0728-0.791,0.2183
			s-0.4229,0.3423-0.5283,0.5913c-0.1045,0.2485-0.1572,0.5918-0.1572,1.0298v3.0527H298.4566z"/>
		<path d="M308.2613,10.2368l0.9775,0.1206c-0.1543,0.5713-0.4395,1.0142-0.8564,1.3296c-0.417,0.3149-0.9492,0.4727-1.5977,0.4727
			c-0.8164,0-1.4629-0.251-1.9414-0.7539c-0.4785-0.5024-0.7168-1.2075-0.7168-2.1147c0-0.939,0.2412-1.6675,0.7246-2.186
			s1.1104-0.7778,1.8809-0.7778c0.7461,0,1.3564,0.2544,1.8291,0.7622s0.709,1.2227,0.709,2.1436
			c0,0.0562-0.002,0.1401-0.0049,0.2524h-4.1621c0.0352,0.6128,0.209,1.0825,0.5205,1.4082s0.7002,0.4888,1.167,0.4888
			c0.3467,0,0.6426-0.0913,0.8877-0.2734S308.1177,10.6363,308.2613,10.2368z M305.1558,8.7075h3.1162
			c-0.042-0.4692-0.1611-0.8213-0.3574-1.0562c-0.3018-0.3643-0.6924-0.5464-1.1719-0.5464c-0.4346,0-0.7998,0.1455-1.0957,0.436
			C305.3511,7.8321,305.1871,8.2207,305.1558,8.7075z"/>
		<path d="M310.4058,12.0337V4.3306h0.9453v7.7031H310.4058z"/>
		<path d="M313.0435,12.0337V7.189h-0.8359V6.4536h0.8359V5.8599c0-0.375,0.0332-0.6533,0.0996-0.8354
			c0.0908-0.2456,0.251-0.4443,0.4805-0.5967s0.5508-0.2285,0.9648-0.2285c0.2656,0,0.5605,0.0317,0.8828,0.0947l-0.1426,0.8247
			c-0.1963-0.0347-0.3818-0.0522-0.5566-0.0522c-0.2871,0-0.4902,0.061-0.6094,0.1836c-0.1191,0.123-0.1787,0.3521-0.1787,0.6885
			v0.5151h1.0879V7.189h-1.0879v4.8447H313.0435z"/>
		<path d="M322.0963,12.0337h-0.9453V6.0069c-0.2275,0.2173-0.5264,0.4346-0.8965,0.6514
			c-0.3691,0.2173-0.7012,0.3804-0.9951,0.4888V6.2329c0.5283-0.249,0.9912-0.5503,1.3867-0.9038
			c0.3965-0.354,0.6768-0.6973,0.8408-1.0298h0.6094V12.0337z"/>
	</g>
	<g>
		<path d="M307.2007,47.5689v-7.874h1.0684l4.1367,6.1821v-6.1821h0.998v7.874h-1.0684l-4.1357-6.1875v6.1875H307.2007z"/>
		<path d="M314.8013,45.0391l0.9824-0.0859c0.0469,0.394,0.1553,0.7173,0.3252,0.9692c0.1699,0.2529,0.4346,0.457,0.792,0.6123
			c0.3584,0.1562,0.7617,0.2339,1.209,0.2339c0.3975,0,0.748-0.0591,1.0527-0.1772s0.5312-0.2803,0.6797-0.4863
			c0.1484-0.2056,0.2227-0.4302,0.2227-0.6738c0-0.2471-0.0713-0.4629-0.2148-0.6475c-0.1436-0.1841-0.3799-0.3389-0.709-0.4644
			c-0.2109-0.0825-0.6787-0.2104-1.4023-0.3843c-0.7227-0.1733-1.2295-0.3374-1.5195-0.4912
			c-0.376-0.1968-0.6562-0.4414-0.8408-0.7334c-0.1846-0.2915-0.2764-0.6182-0.2764-0.98c0-0.3975,0.1133-0.769,0.3379-1.1147
			c0.2266-0.3452,0.5557-0.6074,0.9883-0.7866c0.4336-0.1792,0.915-0.2686,1.4453-0.2686c0.584,0,1.0986,0.0942,1.5439,0.2817
			c0.4463,0.1885,0.7891,0.4648,1.0283,0.8301c0.2402,0.3652,0.3691,0.7788,0.3867,1.2407l-0.998,0.0752
			c-0.0547-0.4976-0.2363-0.8735-0.5459-1.1279s-0.7666-0.3813-1.3721-0.3813c-0.6299,0-1.0898,0.1152-1.3779,0.3467
			c-0.2881,0.2305-0.4326,0.5093-0.4326,0.835c0,0.2827,0.1025,0.5156,0.3066,0.6982c0.2002,0.1826,0.7246,0.3696,1.5713,0.5615
			c0.8467,0.1914,1.4277,0.3589,1.7432,0.502c0.458,0.2114,0.7959,0.479,1.0146,0.8027c0.2188,0.3242,0.3271,0.6978,0.3271,1.1201
			c0,0.4189-0.1191,0.8135-0.3594,1.1846c-0.2402,0.3701-0.585,0.6587-1.0342,0.8643c-0.4492,0.2061-0.9551,0.3091-1.5166,0.3091
			c-0.7129,0-1.3105-0.104-1.792-0.3115s-0.8594-0.52-1.1328-0.937C314.9595,46.0371,314.816,45.5655,314.8013,45.0391z"/>
		<path d="M322.4595,47.5689v-7.874h1.5684l1.8633,5.5752c0.1719,0.519,0.2979,0.9077,0.377,1.1655
			c0.0889-0.2866,0.2285-0.707,0.418-1.2622l1.8857-5.4785h1.4014v7.874h-1.0039v-6.5903l-2.2881,6.5903h-0.9404l-2.2773-6.7031
			v6.7031H322.4595z"/>
		<path d="M333.2408,47.5689l3.0234-7.874h1.123l3.2227,7.874h-1.1875l-0.918-2.3848h-3.293l-0.8652,2.3848H333.2408z
			 M335.5123,44.3355h2.6699l-0.8223-2.1807c-0.251-0.6626-0.4365-1.2065-0.5586-1.6328c-0.1006,0.5049-0.2422,1.0063-0.4238,1.5039
			L335.5123,44.3355z"/>
	</g>
	<g>
		<path d="M306.5943,99.8062v-7.874h1.0684l4.1367,6.1821v-6.1821h0.998v7.874h-1.0684l-4.1357-6.1875v6.1875H306.5943z"/>
		<path d="M314.1939,97.2764l0.9824-0.0859c0.0469,0.394,0.1553,0.7173,0.3252,0.9692c0.1699,0.2529,0.4346,0.457,0.792,0.6123
			c0.3584,0.1562,0.7617,0.2339,1.209,0.2339c0.3975,0,0.748-0.0591,1.0527-0.1772s0.5312-0.2803,0.6797-0.4863
			c0.1484-0.2056,0.2227-0.4302,0.2227-0.6738c0-0.2471-0.0713-0.4629-0.2148-0.6475c-0.1436-0.1841-0.3799-0.3389-0.709-0.4644
			c-0.2109-0.0825-0.6787-0.2104-1.4023-0.3843c-0.7227-0.1733-1.2295-0.3374-1.5195-0.4912
			c-0.376-0.1968-0.6562-0.4414-0.8408-0.7334c-0.1846-0.2915-0.2764-0.6182-0.2764-0.98c0-0.3975,0.1133-0.769,0.3379-1.1147
			c0.2266-0.3452,0.5557-0.6074,0.9883-0.7866c0.4336-0.1792,0.915-0.2686,1.4453-0.2686c0.584,0,1.0986,0.0942,1.5439,0.2817
			c0.4463,0.1885,0.7891,0.4648,1.0283,0.8301c0.2402,0.3652,0.3691,0.7788,0.3867,1.2407l-0.998,0.0752
			c-0.0547-0.4976-0.2363-0.8735-0.5459-1.1279s-0.7666-0.3813-1.3721-0.3813c-0.6299,0-1.0898,0.1152-1.3779,0.3467
			c-0.2881,0.2305-0.4326,0.5093-0.4326,0.835c0,0.2827,0.1025,0.5156,0.3066,0.6982c0.2002,0.1826,0.7246,0.3696,1.5713,0.5615
			c0.8467,0.1914,1.4277,0.3589,1.7432,0.502c0.458,0.2114,0.7959,0.479,1.0146,0.8027c0.2188,0.3242,0.3271,0.6978,0.3271,1.1201
			c0,0.4189-0.1191,0.8135-0.3594,1.1846c-0.2402,0.3701-0.585,0.6587-1.0342,0.8643c-0.4492,0.2061-0.9551,0.3091-1.5166,0.3091
			c-0.7129,0-1.3105-0.104-1.792-0.3115s-0.8594-0.52-1.1328-0.937C314.3521,98.2744,314.2086,97.8028,314.1939,97.2764z"/>
		<path d="M321.8541,99.8062v-7.874h1.5684l1.8633,5.5752c0.1719,0.519,0.2979,0.9077,0.377,1.1655
			c0.0889-0.2866,0.2285-0.707,0.418-1.2622l1.8857-5.4785h1.4014v7.874h-1.0039v-6.5903l-2.2881,6.5903h-0.9404l-2.2773-6.7031
			v6.7031H321.8541z"/>
		<path d="M334.0621,99.8062v-7.874h2.9541c0.6016,0,1.084,0.0796,1.4473,0.2393c0.3633,0.1592,0.6484,0.4043,0.8545,0.7354
			c0.2061,0.3315,0.3086,0.6777,0.3086,1.0396c0,0.3364-0.0908,0.6533-0.2744,0.9507c-0.1816,0.2974-0.458,0.5371-0.8262,0.7197
			c0.4756,0.1396,0.8418,0.3779,1.0977,0.7144s0.3848,0.7339,0.3848,1.1924c0,0.3687-0.0781,0.7114-0.2344,1.0288
			c-0.1553,0.3164-0.3477,0.561-0.5771,0.7329s-0.5166,0.3018-0.8623,0.3892c-0.3457,0.0879-0.7686,0.1318-1.2695,0.1318H334.0621z
			 M335.1041,95.2407h1.7031c0.4609,0,0.793-0.0303,0.9932-0.0913c0.2646-0.0786,0.4648-0.2095,0.5986-0.3921
			c0.1348-0.1826,0.2012-0.4116,0.2012-0.6875c0-0.2612-0.0625-0.4912-0.1875-0.6904c-0.125-0.1982-0.3047-0.3345-0.5371-0.4082
			c-0.2324-0.0732-0.6318-0.1099-1.1973-0.1099h-1.5742V95.2407z M335.1041,98.877h1.9609c0.3359,0,0.5723-0.0127,0.709-0.0376
			c0.2393-0.043,0.4395-0.1147,0.6016-0.2148c0.1602-0.1001,0.293-0.2461,0.3965-0.4375c0.1045-0.1919,0.1562-0.4131,0.1562-0.6636
			c0-0.2935-0.0752-0.5488-0.2256-0.7651c-0.1504-0.2168-0.3594-0.3691-0.626-0.457c-0.2666-0.0874-0.6504-0.1313-1.1523-0.1313
			h-1.8203V98.877z"/>
	</g>
</g>
<g id="Layer_2">
	<g>
		<g>
			<g>
				<g>
					<path d="M105.4752,53.0503l-0.0703-0.7236c0.3232-0.0347,0.5869-0.1143,0.7939-0.2397c0.2061-0.125,0.373-0.3193,0.501-0.583
						c0.127-0.2637,0.1914-0.5605,0.1914-0.8901c0-0.2925-0.0488-0.5508-0.1455-0.7749s-0.2295-0.3911-0.3975-0.5005
						c-0.1689-0.1094-0.3525-0.1641-0.5518-0.1641c-0.2021,0-0.3789,0.0527-0.5293,0.1582
						c-0.1514,0.1055-0.2773,0.2793-0.3799,0.522c-0.0674,0.1558-0.1729,0.4995-0.3145,1.0322
						c-0.1426,0.5327-0.2764,0.9058-0.4023,1.1191c-0.1611,0.2769-0.3613,0.4834-0.5996,0.6191
						c-0.2393,0.1357-0.5059,0.2036-0.8027,0.2036c-0.3242,0-0.6289-0.083-0.9111-0.249c-0.2832-0.166-0.4971-0.4087-0.6436-0.7275
						c-0.1465-0.3193-0.2207-0.6738-0.2207-1.064c0-0.4302,0.0771-0.8091,0.2314-1.1372c0.1533-0.3281,0.3799-0.5806,0.6787-0.7573
						s0.6367-0.2715,1.0156-0.2847l0.0605,0.7354c-0.4062,0.0396-0.7139,0.1733-0.9219,0.4014s-0.3125,0.5649-0.3125,1.0107
						c0,0.4639,0.0947,0.8022,0.2832,1.0142c0.1895,0.2124,0.417,0.3188,0.6836,0.3188c0.2314,0,0.4219-0.0752,0.5713-0.2256
						c0.1494-0.1479,0.3027-0.5332,0.459-1.1567c0.1572-0.6235,0.2939-1.0518,0.4111-1.2837
						c0.1729-0.3374,0.3916-0.5864,0.6572-0.7476c0.2646-0.1606,0.5703-0.2412,0.916-0.2412c0.3428,0,0.666,0.0884,0.9688,0.2651
						c0.3037,0.1768,0.5391,0.4302,0.708,0.7612c0.168,0.3311,0.252,0.7036,0.252,1.1172c0,0.5249-0.085,0.9644-0.2539,1.3193
						c-0.1699,0.3545-0.4258,0.6328-0.7676,0.8345C106.2925,52.9336,105.9068,53.0396,105.4752,53.0503z"/>
					<path d="M107.5455,47.4932h-6.4424v-0.7119h6.4424V47.4932z"/>
					<path d="M105.2115,45.9429c-0.8633,0-1.5039-0.2163-1.9199-0.6484c-0.3457-0.3613-0.5186-0.8018-0.5186-1.3213
						c0-0.5771,0.21-1.0493,0.6309-1.4155c0.4199-0.3667,1.001-0.5498,1.7422-0.5498c0.6006,0,1.0732,0.0811,1.417,0.2432
						c0.3447,0.1621,0.6123,0.3979,0.8027,0.708c0.1895,0.3096,0.2852,0.6479,0.2852,1.0142c0,0.5884-0.209,1.0635-0.6289,1.4258
						C106.6041,45.7617,106.0005,45.9429,105.2115,45.9429z M105.2115,45.2114c0.5977,0,1.0459-0.1177,1.3428-0.3521
						c0.2979-0.2349,0.4463-0.5303,0.4463-0.8862c0-0.353-0.1494-0.647-0.4482-0.8818c-0.2988-0.2344-0.7539-0.3521-1.3662-0.3521
						c-0.5771,0-1.0146,0.1182-1.3125,0.354c-0.2969,0.2358-0.4453,0.5293-0.4453,0.8799c0,0.356,0.1475,0.6514,0.4434,0.8862
						C104.1675,45.0938,104.6138,45.2114,105.2115,45.2114z"/>
					<path d="M106.8384,39.6187l0.6982-0.1025c0.0469,0.2002,0.0703,0.3794,0.0703,0.5376c0,0.2583-0.0459,0.459-0.1357,0.6011
						c-0.0908,0.1426-0.2109,0.2427-0.3584,0.3008c-0.1484,0.0581-0.46,0.0869-0.9346,0.0869h-2.6846v0.522h-0.6152v-0.522h-1.1553
						l-0.4746-0.708h1.6299v-0.7158h0.6152v0.7158h2.7295c0.2256,0,0.3701-0.0122,0.4346-0.0376
						c0.0645-0.0249,0.1162-0.0659,0.1533-0.1226c0.0391-0.0566,0.0576-0.1377,0.0576-0.2432
						C106.8687,39.8521,106.8589,39.7481,106.8384,39.6187z"/>
					<path d="M107.5455,34.1885v0.7119h-5.041c0.1826,0.1714,0.3643,0.396,0.5449,0.6743c0.1826,0.2783,0.3184,0.5278,0.4092,0.7495
						h-0.7646c-0.208-0.3984-0.46-0.7461-0.7559-1.0444c-0.2959-0.2979-0.583-0.5088-0.8613-0.6328v-0.4585H107.5455z"/>
					<path d="M107.5455,30.2852v0.7119h-5.041c0.1826,0.1714,0.3643,0.396,0.5449,0.6743c0.1826,0.2783,0.3184,0.5278,0.4092,0.7495
						h-0.7646c-0.208-0.3984-0.46-0.7461-0.7559-1.0444c-0.2959-0.2979-0.583-0.5088-0.8613-0.6328v-0.4585H107.5455z"/>
				</g>
			</g>
		</g>
		<g>
			<g>
				<path d="M129.0298,35.9488c-0.3579,0.3042-0.7026,0.519-1.0342,0.6445c-0.3311,0.1255-0.6865,0.188-1.0659,0.188
					c-0.6265,0-1.1084-0.1533-1.4448-0.459c-0.3364-0.3066-0.5049-0.6978-0.5049-1.1738c0-0.2793,0.0635-0.5342,0.1904-0.7656
					c0.1274-0.2305,0.2939-0.416,0.5-0.5557c0.2056-0.1396,0.4375-0.2451,0.6953-0.3169c0.1899-0.0503,0.4761-0.0986,0.8594-0.145
					c0.7808-0.0933,1.3555-0.2041,1.7241-0.333c0.0034-0.1323,0.0054-0.2168,0.0054-0.2524c0-0.394-0.0913-0.6714-0.2739-0.8325
					c-0.2471-0.2183-0.6143-0.3276-1.1011-0.3276c-0.4546,0-0.7905,0.0796-1.0068,0.2388c-0.2168,0.1597-0.377,0.4414-0.481,0.8462
					l-0.9453-0.1289c0.0859-0.4048,0.2275-0.7314,0.4243-0.98c0.1968-0.249,0.4814-0.4404,0.854-0.5752
					c0.3726-0.1338,0.8037-0.2012,1.2944-0.2012c0.4868,0,0.8828,0.0571,1.187,0.1719s0.5283,0.2588,0.6714,0.4326
					c0.1431,0.1733,0.2437,0.3926,0.3008,0.6577c0.0322,0.1646,0.0483,0.4619,0.0483,0.8916v1.2891
					c0,0.8989,0.0205,1.4673,0.062,1.7056c0.041,0.2378,0.1226,0.4663,0.2441,0.6846h-1.0098
					C129.1231,36.4517,129.0587,36.2173,129.0298,35.9488z M128.9493,33.7896c-0.3511,0.1431-0.8774,0.2651-1.5791,0.3652
					c-0.3975,0.0571-0.6787,0.1216-0.8433,0.1934s-0.292,0.1763-0.3813,0.314c-0.0894,0.1382-0.1343,0.291-0.1343,0.4595
					c0,0.2578,0.0977,0.4727,0.293,0.6445c0.1948,0.1719,0.4805,0.2578,0.8564,0.2578c0.3726,0,0.7036-0.0815,0.9937-0.2446
					c0.29-0.1626,0.5029-0.3857,0.6392-0.6685c0.104-0.2183,0.1558-0.5405,0.1558-0.9668V33.7896z"/>
			</g>
		</g>
		<g>
			<g>
				<path d="M126.1993,53.4746h-0.897v-7.874h0.9668v2.8091c0.4082-0.5122,0.9292-0.7681,1.563-0.7681
					c0.3511,0,0.6831,0.0708,0.9966,0.2119c0.313,0.1416,0.5708,0.3403,0.7734,0.5967c0.2021,0.2559,0.3604,0.5645,0.4751,0.9263
					s0.1719,0.7485,0.1719,1.1602c0,0.9775-0.2417,1.7329-0.7251,2.2666s-1.0635,0.8003-1.7402,0.8003
					c-0.6733,0-1.2012-0.2812-1.5845-0.8433V53.4746z M126.1885,50.5796c0,0.6841,0.0933,1.1782,0.2793,1.4824
					c0.3042,0.4976,0.7163,0.7466,1.2354,0.7466c0.4224,0,0.7876-0.1836,1.0957-0.5508c0.3081-0.3667,0.4619-0.9136,0.4619-1.6406
					c0-0.7446-0.1479-1.2944-0.4429-1.6489c-0.2959-0.3545-0.6528-0.5317-1.0718-0.5317c-0.4224,0-0.7876,0.1836-1.0957,0.5508
					C126.3423,49.354,126.1885,49.8848,126.1885,50.5796z"/>
			</g>
		</g>
		<line class="st9" x1="112.0098" y1="25.8341" x2="112.0098" y2="57.3086"/>
		<g>
			<polyline class="st9" points="144.5454,57.5365 97.1614,57.5365 97.1614,25.4376 144.5454,25.4376 			"/>
			<line class="st9" x1="144.1087" y1="41.487" x2="112.0098" y2="41.487"/>
		</g>
	</g>
	<g>
		<g>
			<g>
				<g>
					<path d="M105.4752,189.8618l-0.0703-0.7236c0.3232-0.0342,0.5869-0.1143,0.7939-0.2393c0.2061-0.125,0.373-0.3203,0.501-0.584
						c0.127-0.2637,0.1914-0.5605,0.1914-0.8896c0-0.292-0.0488-0.5508-0.1455-0.7744c-0.0967-0.2246-0.2295-0.3916-0.3975-0.501
						c-0.1689-0.1094-0.3525-0.1641-0.5518-0.1641c-0.2021,0-0.3789,0.0527-0.5293,0.1582
						c-0.1514,0.1055-0.2773,0.2793-0.3799,0.5225c-0.0674,0.1553-0.1729,0.499-0.3145,1.0312
						c-0.1426,0.5332-0.2764,0.9062-0.4023,1.1191c-0.1611,0.2773-0.3613,0.4844-0.5996,0.6191
						c-0.2393,0.1367-0.5059,0.2041-0.8027,0.2041c-0.3242,0-0.6289-0.083-0.9111-0.249c-0.2832-0.166-0.4971-0.4082-0.6436-0.7275
						s-0.2207-0.6738-0.2207-1.0635c0-0.4307,0.0771-0.8096,0.2314-1.1377c0.1533-0.3281,0.3799-0.5811,0.6787-0.7568
						c0.2988-0.1777,0.6367-0.2715,1.0156-0.2852l0.0605,0.7354c-0.4062,0.04-0.7139,0.1729-0.9219,0.4014
						s-0.3125,0.5645-0.3125,1.0107c0,0.4639,0.0947,0.8018,0.2832,1.0146c0.1895,0.2119,0.417,0.3184,0.6836,0.3184
						c0.2314,0,0.4219-0.0752,0.5713-0.2256c0.1494-0.1475,0.3027-0.5332,0.459-1.1572c0.1572-0.623,0.2939-1.0508,0.4111-1.2832
						c0.1729-0.3379,0.3916-0.5859,0.6572-0.748c0.2646-0.1602,0.5703-0.2402,0.916-0.2402c0.3428,0,0.666,0.0879,0.9688,0.2646
						c0.3037,0.1768,0.5391,0.4307,0.708,0.7607c0.168,0.332,0.252,0.7041,0.252,1.1172c0,0.5254-0.085,0.9648-0.2539,1.3203
						c-0.1699,0.3535-0.4258,0.6328-0.7676,0.834C106.2925,189.7446,105.9068,189.8511,105.4752,189.8618z"/>
					<path d="M107.5455,184.3052h-6.4424v-0.7129h6.4424V184.3052z"/>
					<path d="M105.2115,182.7544c-0.8633,0-1.5039-0.2168-1.9199-0.6484c-0.3457-0.3613-0.5186-0.8018-0.5186-1.3213
						c0-0.5771,0.21-1.0498,0.6309-1.415c0.4199-0.3672,1.001-0.5508,1.7422-0.5508c0.6006,0,1.0732,0.082,1.417,0.2441
						c0.3447,0.1621,0.6123,0.3975,0.8027,0.707c0.1895,0.3105,0.2852,0.6484,0.2852,1.0146c0,0.5889-0.209,1.0635-0.6289,1.4258
						C106.6041,182.5728,106.0005,182.7544,105.2115,182.7544z M105.2115,182.023c0.5977,0,1.0459-0.1182,1.3428-0.3525
						c0.2979-0.2344,0.4463-0.5293,0.4463-0.8857c0-0.3525-0.1494-0.6475-0.4482-0.8818s-0.7539-0.3516-1.3662-0.3516
						c-0.5771,0-1.0146,0.1172-1.3125,0.3535c-0.2969,0.2363-0.4453,0.5293-0.4453,0.8799c0,0.3564,0.1475,0.6514,0.4434,0.8857
						S104.6138,182.023,105.2115,182.023z"/>
					<path d="M106.8384,176.4302l0.6982-0.1025c0.0469,0.2002,0.0703,0.3799,0.0703,0.5381c0,0.2578-0.0459,0.459-0.1357,0.6006
						c-0.0908,0.1426-0.2109,0.2432-0.3584,0.3008c-0.1484,0.0576-0.46,0.0869-0.9346,0.0869h-2.6846v0.5215h-0.6152v-0.5215
						h-1.1553l-0.4746-0.708h1.6299v-0.7158h0.6152v0.7158h2.7295c0.2256,0,0.3701-0.0127,0.4346-0.0381
						c0.0645-0.0244,0.1162-0.0654,0.1533-0.1221c0.0391-0.0566,0.0576-0.1377,0.0576-0.2432
						C106.8687,176.6636,106.8589,176.5591,106.8384,176.4302z"/>
					<path d="M107.5455,171.0005v0.7109h-5.041c0.1826,0.1719,0.3643,0.3965,0.5449,0.6748
						c0.1826,0.2783,0.3184,0.5283,0.4092,0.749h-0.7646c-0.208-0.3984-0.46-0.7461-0.7559-1.0439s-0.583-0.5088-0.8613-0.6328
						v-0.458H107.5455z"/>
					<path d="M107.5455,167.0962v0.7129h-5.041c0.1826,0.1709,0.3643,0.3955,0.5449,0.6738c0.1826,0.2783,0.3184,0.5273,0.4092,0.75
						h-0.7646c-0.208-0.3984-0.46-0.7461-0.7559-1.0449c-0.2959-0.2979-0.583-0.5088-0.8613-0.6328v-0.459H107.5455z"/>
				</g>
			</g>
		</g>
		<g>
			<g>
				<path d="M129.0298,172.7612c-0.3579,0.3047-0.7026,0.5195-1.0342,0.6445c-0.3311,0.126-0.6865,0.1885-1.0659,0.1885
					c-0.6265,0-1.1084-0.1533-1.4448-0.459c-0.3364-0.3066-0.5049-0.6982-0.5049-1.1738c0-0.2793,0.0635-0.5342,0.1904-0.7656
					c0.1274-0.2305,0.2939-0.416,0.5-0.5557c0.2056-0.1396,0.4375-0.2451,0.6953-0.3174c0.1899-0.0498,0.4761-0.0986,0.8594-0.1445
					c0.7808-0.0938,1.3555-0.2041,1.7241-0.333c0.0034-0.1328,0.0054-0.2168,0.0054-0.2529c0-0.3936-0.0913-0.6709-0.2739-0.832
					c-0.2471-0.2188-0.6143-0.3281-1.1011-0.3281c-0.4546,0-0.7905,0.0801-1.0068,0.2393c-0.2168,0.1592-0.377,0.4414-0.481,0.8457
					l-0.9453-0.1289c0.0859-0.4043,0.2275-0.7314,0.4243-0.9795c0.1968-0.249,0.4814-0.4404,0.854-0.5752
					c0.3726-0.1338,0.8037-0.2012,1.2944-0.2012c0.4868,0,0.8828,0.0566,1.187,0.1719c0.3042,0.1143,0.5283,0.2588,0.6714,0.4326
					c0.1431,0.1729,0.2437,0.3926,0.3008,0.6572c0.0322,0.165,0.0483,0.4619,0.0483,0.8916v1.2891
					c0,0.8994,0.0205,1.4678,0.062,1.7061c0.041,0.2373,0.1226,0.4658,0.2441,0.6846h-1.0098
					C129.1231,173.2642,129.0587,173.0298,129.0298,172.7612z M128.9493,170.6021c-0.3511,0.1436-0.8774,0.2656-1.5791,0.3652
					c-0.3975,0.0576-0.6787,0.1221-0.8433,0.1934c-0.1646,0.0723-0.292,0.1768-0.3813,0.3145s-0.1343,0.291-0.1343,0.459
					c0,0.2578,0.0977,0.4727,0.293,0.6445c0.1948,0.1719,0.4805,0.2578,0.8564,0.2578c0.3726,0,0.7036-0.0811,0.9937-0.2441
					s0.5029-0.3857,0.6392-0.6689c0.104-0.2178,0.1558-0.54,0.1558-0.9668V170.6021z"/>
			</g>
		</g>
		<g>
			<g>
				<path d="M126.1993,190.2866h-0.897v-7.874h0.9668v2.8096c0.4082-0.5127,0.9292-0.7686,1.563-0.7686
					c0.3511,0,0.6831,0.0713,0.9966,0.2119c0.313,0.1416,0.5708,0.3408,0.7734,0.5967c0.2021,0.2559,0.3604,0.5645,0.4751,0.9268
					c0.1147,0.3613,0.1719,0.748,0.1719,1.1602c0,0.9775-0.2417,1.7324-0.7251,2.2666c-0.4834,0.5332-1.0635,0.7998-1.7402,0.7998
					c-0.6733,0-1.2012-0.2812-1.5845-0.8428V190.2866z M126.1885,187.3921c0,0.6836,0.0933,1.1777,0.2793,1.4824
					c0.3042,0.4971,0.7163,0.7461,1.2354,0.7461c0.4224,0,0.7876-0.1836,1.0957-0.5508c0.3081-0.3662,0.4619-0.9131,0.4619-1.6406
					c0-0.7441-0.1479-1.2939-0.4429-1.6484c-0.2959-0.3545-0.6528-0.5322-1.0718-0.5322c-0.4224,0-0.7876,0.1836-1.0957,0.5508
					S126.1885,186.6968,126.1885,187.3921z"/>
			</g>
		</g>
		<line class="st9" x1="112.0098" y1="162.6466" x2="112.0098" y2="194.1211"/>
		<g>
			<polyline class="st9" points="144.5454,194.349 97.1614,194.349 97.1614,162.2501 144.5454,162.2501 			"/>
			<line class="st9" x1="144.1087" y1="178.2995" x2="112.0098" y2="178.2995"/>
		</g>
	</g>
</g>
</svg>
