<?xml version="1.0" encoding="UTF-8"?><svg id="a" xmlns="http://www.w3.org/2000/svg" width="2.286in" height="1.35in" viewBox="0 0 164.564 97.17"><rect x="1.282" y="1.282" width="162" height="94.606" fill="none" stroke="#939598" stroke-width="2.564"/><polygon points="163.282 1.282 80.43 1.282 80.43 23.709 137.221 23.709 163.282 23.709 163.282 1.282" fill="#939598" stroke="#939598" stroke-width="2.564"/><rect x="1.282" y="1.282" width="77.517" height="22.427" fill="none" stroke="#939598" stroke-width="2.564"/><path d="M85.714,9.727v5.238h3.132v1.188h-4.545v-6.426h1.413Z" fill="#fff" stroke-width="0"/><path d="M91.051,9.727v6.426h-1.413v-6.426h1.413Z" fill="#fff" stroke-width="0"/><path d="M96.811,9.727v1.188h-3.104v1.485h2.69v1.098h-2.69v2.655h-1.413v-6.426h4.518Z" fill="#fff" stroke-width="0"/><path d="M97.126,10.915v-1.188h5.265v1.188h-1.926v5.238h-1.413v-5.238h-1.926Z" fill="#fff" stroke-width="0"/><path d="M104.542,9.727v6.426h-1.413v-6.426h1.413Z" fill="#fff" stroke-width="0"/><path d="M107.188,9.727l2.682,4.311h.018v-4.311h1.323v6.426h-1.413l-2.673-4.302h-.018v4.302h-1.323v-6.426h1.404Z" fill="#fff" stroke-width="0"/><path d="M116.259,16.104c-.306.129-.615.193-.927.193-.492,0-.935-.085-1.327-.256-.394-.171-.725-.407-.995-.707-.27-.3-.477-.653-.621-1.058-.144-.405-.216-.841-.216-1.31,0-.48.072-.925.216-1.336.145-.411.352-.77.621-1.076.271-.306.602-.546.995-.72.393-.174.835-.261,1.327-.261.33,0,.649.05.959.148.309.099.588.245.837.437.248.192.454.429.616.711.162.282.261.606.297.972h-1.35c-.084-.36-.246-.63-.486-.81-.24-.18-.531-.27-.873-.27-.318,0-.588.062-.81.185-.223.123-.402.288-.54.495-.139.207-.239.442-.302.707-.063.264-.095.537-.095.819,0,.27.031.533.095.788.062.255.163.484.302.688.138.204.317.368.54.49.222.123.491.185.81.185.468,0,.829-.118,1.085-.355.255-.237.403-.581.445-1.03h-1.422v-1.053h2.699v3.474h-.899l-.145-.729c-.252.324-.53.551-.837.68Z" fill="#fff" stroke-width="0"/><path d="M123.198,9.727v2.466h2.601v-2.466h1.413v6.426h-1.413v-2.772h-2.601v2.772h-1.413v-6.426h1.413Z" fill="#fff" stroke-width="0"/><path d="M131.658,9.727l2.402,6.426h-1.467l-.485-1.431h-2.403l-.504,1.431h-1.422l2.43-6.426h1.449ZM131.739,13.669l-.811-2.358h-.018l-.837,2.358h1.665Z" fill="#fff" stroke-width="0"/><path d="M137.652,10.915h-3.178v-1.188h5.059v1.116l-3.447,4.122h3.537v1.188h-5.418v-1.116l3.447-4.122Z" fill="#fff" stroke-width="0"/><path d="M143.655,9.727l2.402,6.426h-1.467l-.485-1.431h-2.403l-.504,1.431h-1.422l2.43-6.426h1.449ZM143.736,13.669l-.811-2.358h-.018l-.837,2.358h1.665Z" fill="#fff" stroke-width="0"/><path d="M150.081,9.727c.288,0,.548.046.778.139.231.093.429.221.595.383.164.162.29.35.378.562.087.213.13.442.13.688,0,.378-.079.705-.238.981s-.419.486-.778.63v.018c.174.048.317.122.432.22.114.099.207.216.279.351.072.135.124.284.157.446.033.162.056.324.067.486.006.102.013.222.019.36.006.138.017.279.031.423.015.144.039.28.072.409.032.129.082.239.148.329h-1.413c-.078-.204-.126-.447-.145-.729-.018-.282-.045-.552-.081-.81-.048-.336-.149-.582-.306-.738-.156-.156-.411-.234-.765-.234h-1.413v2.511h-1.413v-6.426h3.465ZM149.577,12.634c.324,0,.567-.072.729-.216.162-.144.243-.378.243-.702,0-.312-.081-.539-.243-.68-.161-.141-.404-.211-.729-.211h-1.548v1.809h1.548Z" fill="#fff" stroke-width="0"/><path d="M155.886,9.727c.414,0,.8.066,1.157.198.356.132.666.33.927.594.261.264.465.594.612.99.146.396.22.861.22,1.395,0,.468-.06.9-.18,1.296s-.302.738-.544,1.026c-.243.288-.547.514-.909.679-.363.165-.791.248-1.283.248h-2.771v-6.426h2.771ZM155.787,14.965c.204,0,.402-.033.594-.099.192-.066.363-.175.514-.329.149-.153.27-.352.359-.598s.136-.546.136-.9c0-.324-.032-.617-.095-.878-.063-.261-.167-.484-.311-.67-.145-.186-.335-.329-.571-.427-.237-.099-.53-.148-.878-.148h-1.008v4.05h1.26Z" fill="#fff" stroke-width="0"/><path d="M9.104,18.555h12.535c.265,0,.25-.284.133-.485,0,0-6.074-12.181-6.233-12.503-.032-.035-.077-.079-.166-.079-.088,0-.133.044-.166.079-.161.322-6.233,12.503-6.233,12.503-.116.201-.133.485.131.485Z" fill="#f79320" fill-rule="evenodd" stroke-width="0"/><path d="M30.719,10.735c-.093-.15-.21-.282-.35-.395s-.298-.202-.475-.265-.361-.095-.555-.095c-.354,0-.654.069-.9.205-.247.137-.447.32-.6.55-.154.23-.265.492-.335.785-.07.293-.105.597-.105.91,0,.3.035.592.105.875.07.284.181.539.335.765.153.227.353.408.6.545.246.137.546.205.9.205.48,0,.855-.146,1.125-.44s.435-.68.495-1.16h1.52c-.04.447-.143.85-.31,1.21-.167.36-.387.667-.66.92-.273.253-.593.447-.96.58s-.77.2-1.21.2c-.547,0-1.039-.095-1.475-.285s-.805-.452-1.105-.785c-.3-.333-.53-.725-.69-1.175-.16-.45-.24-.935-.24-1.455,0-.533.08-1.028.24-1.485.16-.457.39-.855.69-1.195.3-.34.668-.606,1.105-.8s.928-.29,1.475-.29c.393,0,.765.057,1.115.17.35.114.664.279.94.495.277.217.505.485.685.805.18.32.293.687.34,1.1h-1.52c-.027-.18-.087-.345-.18-.495Z" fill="#221f1f" stroke-width="0"/><path d="M37.019,8.83l2.67,7.14h-1.63l-.54-1.59h-2.67l-.56,1.59h-1.58l2.7-7.14h1.61ZM37.108,13.21l-.9-2.62h-.02l-.93,2.62h1.85Z" fill="#221f1f" stroke-width="0"/><path d="M45.469,15.425c-.54.47-1.287.705-2.24.705-.967,0-1.715-.233-2.245-.7-.53-.466-.795-1.187-.795-2.16v-4.44h1.57v4.44c0,.194.017.384.05.57.034.187.104.352.21.495.106.143.255.26.445.35.19.09.445.135.765.135.56,0,.946-.125,1.16-.375s.32-.642.32-1.175v-4.44h1.57v4.44c0,.967-.27,1.685-.81,2.155Z" fill="#221f1f" stroke-width="0"/><path d="M46.979,10.15v-1.32h5.85v1.32h-2.14v5.82h-1.57v-5.82h-2.14Z" fill="#221f1f" stroke-width="0"/><path d="M55.128,8.83v7.14h-1.57v-7.14h1.57Z" fill="#221f1f" stroke-width="0"/><path d="M56.349,10.945c.16-.457.39-.855.69-1.195.3-.34.668-.606,1.105-.8s.928-.29,1.475-.29c.553,0,1.046.097,1.48.29.433.193.8.46,1.1.8.3.34.53.739.69,1.195.16.457.24.952.24,1.485,0,.52-.08,1.005-.24,1.455-.16.45-.39.842-.69,1.175-.3.333-.667.595-1.1.785-.434.19-.927.285-1.48.285-.547,0-1.039-.095-1.475-.285s-.805-.452-1.105-.785c-.3-.333-.53-.725-.69-1.175-.16-.45-.24-.935-.24-1.455,0-.533.08-1.028.24-1.485ZM57.784,13.305c.07.284.181.539.335.765.153.227.353.408.6.545.246.137.546.205.9.205s.653-.068.9-.205.446-.318.6-.545c.153-.227.265-.481.335-.765.07-.283.105-.575.105-.875,0-.313-.035-.617-.105-.91-.07-.293-.182-.555-.335-.785-.154-.23-.354-.414-.6-.55-.247-.136-.547-.205-.9-.205s-.654.069-.9.205c-.247.137-.447.32-.6.55-.154.23-.265.492-.335.785-.07.293-.105.597-.105.91,0,.3.035.592.105.875Z" fill="#221f1f" stroke-width="0"/><path d="M65.668,8.83l2.98,4.79h.02v-4.79h1.47v7.14h-1.57l-2.97-4.78h-.02v4.78h-1.47v-7.14h1.56Z" fill="#221f1f" stroke-width="0"/><path d="M9.497,19.162c-.691,0-1.249-.559-1.249-1.247,0-.291.15-.535.262-.767l5.878-11.786c.227-.292.583-.48.984-.48s.759.188.986.48l5.876,11.786c.134.233.261.476.261.767,0,.689-.558,1.247-1.248,1.247h-11.75ZM9.497,18.151h11.75c.249,0,.236-.273.126-.461,0,0-5.697-11.42-5.844-11.719-.033-.032-.071-.076-.156-.076s-.127.045-.155.076c-.15.299-5.846,11.719-5.846,11.719-.109.188-.125.461.125.461Z" fill="#f79320" fill-rule="evenodd" stroke-width="0"/><path d="M16.257,16.421c0,.489-.396.884-.885.884s-.884-.395-.884-.884.396-.885.884-.885.885.395.885.885Z" fill="#fff" fill-rule="evenodd" stroke-width="0"/><path d="M15.372,9.03c-.454,0-.821.368-.821.819l.271,4.427c0,.303.247.546.549.546.301,0,.545-.242.545-.546l.276-4.427c0-.451-.367-.819-.821-.819Z" fill="#fff" fill-rule="evenodd" stroke-width="0"/><path d="M13.465,68.233v-.686c-.363.527-.857.791-1.481.791-.275,0-.533-.053-.771-.158s-.416-.238-.531-.397c-.116-.16-.197-.355-.244-.587-.032-.155-.048-.401-.048-.738v-2.892h.791v2.588c0,.413.016.691.048.835.05.208.155.372.316.49.161.119.36.178.598.178s.46-.061.668-.182c.208-.122.355-.287.441-.497.086-.209.13-.514.13-.912v-2.5h.791v4.667h-.708Z" fill="#231f20" stroke-width="0"/><path d="M15.187,70.022v-6.456h.721v.606c.17-.237.362-.416.576-.534.214-.119.473-.178.778-.178.398,0,.75.103,1.055.308s.535.494.69.867c.155.374.233.783.233,1.229,0,.478-.085.908-.257,1.29-.171.383-.42.676-.747.879-.327.204-.67.306-1.03.306-.264,0-.5-.056-.71-.167s-.381-.252-.516-.422v2.272h-.791ZM15.903,65.926c0,.601.122,1.045.365,1.332s.538.431.883.431c.352,0,.652-.148.903-.446.25-.297.375-.758.375-1.382,0-.595-.123-1.04-.367-1.336-.245-.296-.537-.444-.877-.444-.337,0-.635.157-.895.473-.259.314-.389.772-.389,1.373Z" fill="#231f20" stroke-width="0"/><path d="M23.97,67.525l.114.699c-.223.047-.422.07-.598.07-.287,0-.51-.046-.668-.137-.158-.09-.27-.21-.334-.357-.064-.148-.097-.46-.097-.935v-2.685h-.58v-.615h.58v-1.156l.787-.475v1.631h.795v.615h-.795v2.729c0,.226.014.371.042.436s.073.115.137.153c.062.038.153.058.27.058.088,0,.204-.011.347-.031Z" fill="#231f20" stroke-width="0"/><path d="M24.224,65.899c0-.864.24-1.504.721-1.92.401-.346.891-.519,1.468-.519.642,0,1.166.21,1.573.63.407.421.611,1.002.611,1.743,0,.601-.09,1.073-.27,1.417-.181.345-.443.611-.787.802s-.72.286-1.127.286c-.653,0-1.182-.209-1.584-.629-.403-.419-.604-1.022-.604-1.811ZM25.037,65.899c0,.598.13,1.046.391,1.343.261.298.589.446.984.446.393,0,.719-.149.98-.448s.391-.755.391-1.367c0-.577-.131-1.015-.394-1.312-.262-.298-.588-.446-.978-.446-.396,0-.724.148-.984.444s-.391.742-.391,1.34Z" fill="#231f20" stroke-width="0"/><path d="M14.344,78.272v.761h-4.258c-.006-.19.025-.374.092-.55.108-.29.282-.575.521-.856.238-.281.583-.606,1.035-.976.7-.574,1.173-1.029,1.419-1.365.246-.335.369-.652.369-.951,0-.313-.112-.578-.336-.793-.225-.216-.517-.323-.877-.323-.381,0-.686.114-.914.343s-.344.545-.347.949l-.813-.083c.056-.607.265-1.069.628-1.387.363-.318.851-.478,1.463-.478.618,0,1.107.172,1.468.515s.541.768.541,1.274c0,.258-.053.512-.158.761s-.281.511-.525.786c-.245.275-.651.653-1.22,1.134-.475.398-.779.669-.914.812-.135.142-.246.284-.334.428h3.16Z" fill="#231f20" stroke-width="0"/><path d="M19.071,74.168l-.787.062c-.07-.311-.17-.536-.299-.677-.214-.226-.478-.339-.791-.339-.252,0-.473.07-.664.211-.249.182-.445.447-.589.796s-.218.846-.224,1.49c.19-.29.423-.506.699-.646s.564-.211.866-.211c.527,0,.976.194,1.347.582.371.389.556.891.556,1.506,0,.404-.087.78-.261,1.127-.175.348-.414.613-.719.798s-.65.277-1.037.277c-.659,0-1.197-.243-1.613-.728-.416-.485-.624-1.284-.624-2.397,0-1.245.23-2.151.69-2.717.401-.492.942-.738,1.622-.738.507,0,.922.143,1.246.427s.518.677.583,1.178ZM15.841,76.945c0,.272.058.533.174.782.115.249.277.439.485.569.208.131.426.195.655.195.334,0,.621-.135.861-.404s.36-.636.36-1.099c0-.445-.119-.796-.356-1.053-.237-.256-.536-.384-.896-.384-.357,0-.661.128-.91.384-.249.257-.374.593-.374,1.009Z" fill="#231f20" stroke-width="0"/><path d="M19.747,75.855c0-.762.078-1.375.235-1.839.157-.465.39-.823.699-1.075.309-.252.698-.378,1.167-.378.346,0,.649.07.91.209.261.14.476.34.646.603.17.262.303.581.4.958.097.376.145.884.145,1.522,0,.756-.078,1.366-.233,1.831-.155.464-.388.823-.696,1.076-.31.254-.7.381-1.171.381-.621,0-1.109-.223-1.463-.669-.425-.536-.637-1.409-.637-2.619ZM20.56,75.855c0,1.058.124,1.762.371,2.112.248.35.553.524.917.524s.668-.176.917-.527c.247-.352.371-1.055.371-2.109,0-1.061-.124-1.765-.371-2.114-.248-.349-.556-.522-.925-.522-.363,0-.653.153-.87.461-.272.394-.409,1.118-.409,2.176Z" fill="#231f20" stroke-width="0"/><path d="M24.972,79.033v-.901h.901v.901h-.901Z" fill="#231f20" stroke-width="0"/><path d="M29.339,79.033v-1.543h-2.795v-.725l2.94-4.176h.646v4.176h.87v.725h-.87v1.543h-.791ZM29.339,76.765v-2.905l-2.017,2.905h2.017Z" fill="#231f20" stroke-width="0"/><path d="M34.061,79.033v-6.443h.791v6.443h-.791Z" fill="#231f20" stroke-width="0"/><path d="M36.583,79.033h-.734v-6.443h.791v2.299c.334-.419.76-.628,1.279-.628.287,0,.559.058.815.173.256.116.467.278.633.488.166.209.295.462.39.758.093.296.141.612.141.949,0,.8-.198,1.418-.594,1.854-.396.438-.87.655-1.424.655-.551,0-.983-.229-1.296-.69v.585ZM36.574,76.664c0,.56.076.964.229,1.213.249.407.586.611,1.011.611.346,0,.645-.15.897-.45.252-.301.377-.748.377-1.343,0-.609-.12-1.06-.362-1.35-.241-.29-.534-.435-.876-.435-.346,0-.645.149-.896.45-.252.3-.378.734-.378,1.303Z" fill="#231f20" stroke-width="0"/><path d="M40.317,77.639l.781-.123c.045.313.167.554.367.721.201.167.481.251.842.251.363,0,.633-.074.809-.222.176-.148.264-.322.264-.521,0-.179-.078-.319-.232-.422-.109-.07-.379-.159-.809-.268-.58-.146-.982-.273-1.207-.38-.224-.107-.394-.256-.51-.444-.115-.189-.174-.397-.174-.626,0-.208.048-.401.144-.578.095-.178.225-.324.389-.441.123-.091.291-.168.503-.231.213-.062.44-.094.684-.094.366,0,.688.053.965.158.276.105.48.248.613.428.131.181.222.422.271.724l-.773.105c-.035-.24-.137-.428-.305-.562-.169-.135-.406-.202-.715-.202-.363,0-.622.06-.777.18s-.232.261-.232.422c0,.103.031.195.096.277.064.085.166.155.304.211.079.029.312.097.698.202.56.149.95.271,1.172.366.221.096.395.234.521.416s.188.407.188.677c0,.264-.076.512-.23.745-.153.232-.375.413-.666.54-.289.128-.618.191-.984.191-.605,0-1.068-.126-1.386-.378-.318-.252-.521-.626-.608-1.121Z" fill="#231f20" stroke-width="0"/><path d="M48.696,80.927c-.438-.551-.807-1.195-1.107-1.935-.303-.738-.453-1.503-.453-2.294,0-.697.112-1.365.338-2.004.264-.741.671-1.479,1.223-2.215h.566c-.354.609-.589,1.044-.703,1.305-.179.405-.319.827-.422,1.267-.126.548-.189,1.099-.189,1.652,0,1.409.438,2.817,1.314,4.224h-.566Z" fill="#231f20" stroke-width="0"/><path d="M52.717,79.033h-.791v-5.041c-.191.182-.44.363-.75.545-.309.182-.586.318-.832.409v-.765c.441-.208.828-.46,1.16-.757.33-.296.564-.583.703-.861h.51v6.47Z" fill="#231f20" stroke-width="0"/><path d="M57.497,79.033h-.791v-5.041c-.191.182-.44.363-.75.545-.309.182-.586.318-.832.409v-.765c.441-.208.828-.46,1.16-.757.33-.296.564-.583.703-.861h.51v6.47Z" fill="#231f20" stroke-width="0"/><path d="M60.515,75.539c-.328-.12-.571-.291-.729-.514s-.237-.489-.237-.8c0-.469.168-.863.505-1.183s.785-.479,1.346-.479,1.015.164,1.357.49c.343.327.514.725.514,1.193,0,.299-.078.559-.234.78-.157.221-.396.392-.715.512.396.129.697.337.903.624.207.287.31.63.31,1.028,0,.551-.194,1.014-.584,1.389-.39.376-.902.563-1.538.563s-1.148-.188-1.538-.565c-.39-.376-.584-.846-.584-1.408,0-.419.105-.77.318-1.053.212-.283.515-.476.907-.578ZM60.102,77.174c0,.226.054.444.16.655.107.211.266.374.477.49.211.115.438.173.682.173.378,0,.689-.121.936-.364s.369-.553.369-.928c0-.381-.126-.695-.38-.944-.253-.249-.57-.374-.951-.374-.372,0-.681.123-.925.369-.245.246-.367.554-.367.923ZM60.356,74.199c0,.305.098.554.294.747s.451.29.766.29c.304,0,.554-.097.749-.288.194-.192.292-.427.292-.705,0-.291-.101-.534-.301-.732-.201-.197-.451-.297-.75-.297-.302,0-.552.097-.751.29s-.299.426-.299.695Z" fill="#231f20" stroke-width="0"/><path d="M64.522,79.033v-.901h.901v.901h-.901Z" fill="#231f20" stroke-width="0"/><path d="M69.333,79.033h-.791v-5.041c-.191.182-.44.363-.75.545-.309.182-.586.318-.832.409v-.765c.441-.208.828-.46,1.16-.757.33-.296.564-.583.703-.861h.51v6.47Z" fill="#231f20" stroke-width="0"/><path d="M71.357,79.033v-6.443h.791v3.675l1.872-1.898h1.024l-1.785,1.731,1.965,2.936h-.976l-1.542-2.387-.559.536v1.851h-.791Z" fill="#231f20" stroke-width="0"/><path d="M75.483,79.42l.769.114c.032.237.122.41.269.519.196.146.464.22.804.22.366,0,.649-.073.849-.22s.334-.352.404-.615c.041-.161.06-.499.058-1.016-.347.408-.777.611-1.293.611-.641,0-1.138-.231-1.489-.694s-.527-1.019-.527-1.666c0-.445.08-.856.241-1.232.161-.377.396-.667.701-.872.307-.205.666-.308,1.079-.308.551,0,1.005.223,1.362.668v-.562h.729v4.034c0,.727-.074,1.241-.222,1.545-.148.303-.383.543-.703.719-.321.176-.716.264-1.185.264-.557,0-1.007-.126-1.349-.376-.344-.251-.509-.628-.497-1.132ZM76.139,76.616c0,.612.121,1.059.364,1.34s.548.422.914.422c.363,0,.668-.14.914-.419.246-.28.369-.719.369-1.316,0-.571-.127-1.002-.38-1.292-.254-.29-.56-.436-.916-.436-.352,0-.65.143-.896.429-.246.285-.369.71-.369,1.272Z" fill="#231f20" stroke-width="0"/><path d="M80.927,80.927h-.566c.876-1.406,1.314-2.814,1.314-4.224,0-.551-.063-1.098-.189-1.64-.1-.439-.239-.861-.418-1.266-.113-.264-.35-.703-.707-1.318h.566c.551.735.959,1.474,1.223,2.215.225.639.338,1.307.338,2.004,0,.791-.151,1.556-.455,2.294-.303.739-.672,1.384-1.105,1.935Z" fill="#231f20" stroke-width="0"/><path d="M13.047,85.513l.691.09c-.076.477-.269.85-.58,1.119s-.693.404-1.146.404c-.568,0-1.024-.186-1.369-.557s-.518-.903-.518-1.596c0-.448.074-.84.223-1.176s.375-.588.678-.756.633-.252.99-.252c.451,0,.819.113,1.105.342.287.228.47.551.551.971l-.684.105c-.065-.279-.18-.488-.346-.629s-.365-.211-.6-.211c-.354,0-.642.127-.863.381s-.332.655-.332,1.205c0,.558.107.962.32,1.215s.492.379.836.379c.276,0,.506-.085.691-.254s.302-.43.352-.781Z" fill="#231f20" stroke-width="0"/><path d="M13.999,84.959c0-.769.213-1.338.641-1.707.357-.308.792-.461,1.305-.461.57,0,1.037.187,1.398.561.362.373.543.89.543,1.549,0,.534-.08.954-.24,1.26s-.393.544-.699.713-.64.254-1.002.254c-.581,0-1.05-.187-1.408-.559s-.537-.909-.537-1.609ZM14.721,84.959c0,.531.116.929.348,1.193s.523.396.875.396c.349,0,.639-.133.871-.398s.348-.671.348-1.215c0-.514-.117-.902-.35-1.166-.233-.265-.523-.396-.869-.396-.352,0-.643.131-.875.395-.232.263-.348.66-.348,1.191Z" fill="#231f20" stroke-width="0"/><path d="M18.629,87.033v-4.148h.633v.59c.305-.456.745-.684,1.32-.684.25,0,.48.045.689.135s.367.207.471.354c.104.146.177.318.219.52.026.13.039.357.039.684v2.551h-.703v-2.523c0-.287-.027-.501-.082-.643-.055-.143-.152-.256-.291-.34-.139-.085-.303-.127-.49-.127-.299,0-.558.095-.775.285-.217.189-.326.551-.326,1.082v2.266h-.703Z" fill="#231f20" stroke-width="0"/><path d="M23.167,87.033v-3.602h-.621v-.547h.621v-.441c0-.279.025-.486.074-.622.068-.182.187-.33.357-.443s.41-.17.717-.17c.198,0,.417.023.656.07l-.105.613c-.146-.025-.284-.039-.414-.039-.213,0-.365.046-.453.137-.088.092-.133.263-.133.513v.383h.809v.547h-.809v3.602h-.699Z" fill="#231f20" stroke-width="0"/><path d="M25.146,82.114v-.809h.703v.809h-.703ZM25.146,87.033v-4.148h.703v4.148h-.703Z" fill="#231f20" stroke-width="0"/><path d="M26.71,87.377l.684.102c.029.211.108.364.238.461.174.13.413.195.715.195.326,0,.577-.065.754-.195s.297-.312.359-.547c.037-.144.053-.444.051-.902-.307.362-.69.543-1.148.543-.57,0-1.012-.206-1.324-.617s-.469-.905-.469-1.48c0-.396.072-.762.215-1.096.143-.335.351-.594.623-.775.272-.183.592-.273.959-.273.49,0,.893.197,1.211.594v-.5h.648v3.586c0,.646-.066,1.104-.197,1.373s-.34.482-.625.639-.636.234-1.053.234c-.495,0-.895-.111-1.199-.334s-.452-.558-.441-1.006ZM27.292,84.885c0,.544.108.941.324,1.191s.487.375.812.375c.323,0,.594-.124.812-.373s.328-.639.328-1.17c0-.508-.113-.891-.338-1.148s-.497-.387-.814-.387c-.312,0-.578.127-.797.381s-.328.631-.328,1.131Z" fill="#231f20" stroke-width="0"/><path d="M33.927,87.033v-.609c-.323.469-.762.703-1.316.703-.245,0-.473-.047-.686-.141s-.37-.212-.473-.354-.175-.315-.217-.521c-.029-.138-.043-.356-.043-.656v-2.57h.703v2.301c0,.367.014.614.043.742.044.185.138.33.281.436s.32.158.531.158.409-.054.594-.162.316-.255.393-.441.115-.456.115-.811v-2.223h.703v4.148h-.629Z" fill="#231f20" stroke-width="0"/><path d="M35.569,87.033v-4.148h.633v.629c.162-.295.311-.488.447-.582s.287-.141.451-.141c.237,0,.478.075.723.227l-.242.652c-.172-.102-.344-.152-.516-.152-.154,0-.292.046-.414.139-.123.092-.209.221-.262.385-.078.25-.117.523-.117.82v2.172h-.703Z" fill="#231f20" stroke-width="0"/><path d="M40.868,86.521c-.261.222-.511.378-.752.469s-.499.137-.775.137c-.456,0-.807-.111-1.051-.334-.245-.223-.367-.507-.367-.854,0-.203.046-.389.139-.557s.213-.303.363-.404c.15-.102.318-.179.506-.23.138-.037.347-.072.625-.105.567-.068.985-.148,1.254-.242.003-.097.004-.158.004-.184,0-.287-.066-.488-.199-.605-.18-.159-.446-.238-.801-.238-.331,0-.575.058-.732.174-.157.115-.274.32-.35.615l-.688-.094c.062-.295.166-.532.309-.713.143-.182.351-.32.621-.418s.585-.146.941-.146c.354,0,.642.041.863.125.222.083.384.188.488.314.104.126.177.285.219.479.023.119.035.336.035.648v.938c0,.653.015,1.067.045,1.24s.089.339.178.498h-.734c-.073-.146-.12-.316-.141-.512ZM40.81,84.951c-.255.104-.638.192-1.148.266-.289.042-.493.089-.613.141s-.212.128-.277.229-.098.212-.098.334c0,.188.071.344.213.469s.35.188.623.188c.271,0,.512-.06.723-.178s.366-.28.465-.486c.075-.159.113-.394.113-.703v-.258Z" fill="#231f20" stroke-width="0"/><path d="M44.065,86.404l.102.621c-.198.042-.375.062-.531.062-.255,0-.453-.04-.594-.121s-.239-.187-.297-.318-.086-.408-.086-.83v-2.387h-.516v-.547h.516v-1.028l.699-.422v1.45h.707v.547h-.707v2.426c0,.2.013.329.037.387s.065.103.121.137.136.051.24.051c.078,0,.181-.009.309-.027Z" fill="#231f20" stroke-width="0"/><path d="M44.677,82.114v-.809h.703v.809h-.703ZM44.677,87.033v-4.148h.703v4.148h-.703Z" fill="#231f20" stroke-width="0"/><path d="M46.108,84.959c0-.769.214-1.338.641-1.707.356-.308.792-.461,1.305-.461.57,0,1.036.187,1.398.561.362.373.543.89.543,1.549,0,.534-.08.954-.24,1.26s-.394.544-.699.713-.64.254-1.002.254c-.581,0-1.05-.187-1.408-.559s-.537-.909-.537-1.609ZM46.831,84.959c0,.531.116.929.348,1.193s.523.396.875.396c.349,0,.64-.133.871-.398s.348-.671.348-1.215c0-.514-.116-.902-.35-1.166-.233-.265-.522-.396-.869-.396-.352,0-.644.131-.875.395-.231.263-.348.66-.348,1.191Z" fill="#231f20" stroke-width="0"/><path d="M50.739,87.033v-4.148h.633v.59c.305-.456.745-.684,1.32-.684.25,0,.479.045.689.135s.366.207.471.354c.104.146.177.318.219.52.026.13.039.357.039.684v2.551h-.703v-2.523c0-.287-.027-.501-.082-.643-.055-.143-.151-.256-.291-.34-.14-.085-.303-.127-.49-.127-.3,0-.558.095-.775.285-.218.189-.326.551-.326,1.082v2.266h-.703Z" fill="#231f20" stroke-width="0"/><path d="M59.943,87.033v-.523c-.263.411-.649.617-1.16.617-.331,0-.635-.091-.912-.273s-.492-.437-.645-.764-.229-.702-.229-1.127c0-.414.069-.79.207-1.127.138-.338.345-.596.621-.775s.585-.27.926-.27c.25,0,.473.053.668.158s.354.242.477.412v-2.056h.699v5.728h-.652ZM57.721,84.963c0,.531.112.929.336,1.191s.488.395.793.395c.308,0,.568-.126.783-.377s.322-.635.322-1.15c0-.568-.109-.984-.328-1.25s-.488-.398-.809-.398c-.312,0-.573.127-.783.383-.21.255-.314.657-.314,1.207Z" fill="#231f20" stroke-width="0"/><path d="M64.461,85.697l.727.09c-.114.425-.327.754-.637.988s-.706.352-1.188.352c-.606,0-1.088-.187-1.443-.561s-.533-.897-.533-1.572c0-.698.18-1.24.539-1.625.359-.386.825-.578,1.398-.578.555,0,1.008.188,1.359.566.352.377.527.908.527,1.594,0,.041,0,.104-.004.188h-3.094c.026.456.155.805.387,1.047s.521.363.867.363c.258,0,.478-.067.66-.203s.327-.352.434-.648ZM62.152,84.56h2.316c-.031-.35-.12-.611-.266-.785-.224-.271-.515-.406-.871-.406-.323,0-.595.107-.814.324-.22.216-.342.505-.365.867Z" fill="#231f20" stroke-width="0"/><path d="M65.99,88.623v-5.738h.641v.539c.151-.211.321-.369.512-.475s.421-.158.691-.158c.354,0,.667.091.938.273.271.182.476.439.613.771s.207.695.207,1.092c0,.425-.076.807-.229,1.146s-.374.601-.664.781-.596.271-.916.271c-.234,0-.444-.05-.631-.148s-.339-.224-.459-.375v2.02h-.703ZM66.627,84.982c0,.534.108.929.324,1.184s.478.383.785.383c.312,0,.58-.132.803-.396s.334-.674.334-1.229c0-.529-.108-.925-.326-1.188-.218-.264-.478-.395-.779-.395-.3,0-.564.14-.795.42-.23.279-.346.687-.346,1.221Z" fill="#231f20" stroke-width="0"/><path d="M73.199,85.697l.727.09c-.114.425-.327.754-.637.988s-.706.352-1.188.352c-.606,0-1.088-.187-1.443-.561s-.533-.897-.533-1.572c0-.698.18-1.24.539-1.625.359-.386.825-.578,1.398-.578.555,0,1.008.188,1.359.566.352.377.527.908.527,1.594,0,.041,0,.104-.004.188h-3.094c.026.456.155.805.387,1.047s.521.363.867.363c.258,0,.478-.067.66-.203s.327-.352.434-.648ZM70.891,84.56h2.316c-.031-.35-.12-.611-.266-.785-.224-.271-.515-.406-.871-.406-.323,0-.595.107-.814.324-.22.216-.342.505-.365.867Z" fill="#231f20" stroke-width="0"/><path d="M74.729,87.033v-4.148h.633v.59c.305-.456.745-.684,1.32-.684.25,0,.479.045.689.135s.366.207.471.354c.104.146.177.318.219.52.026.13.039.357.039.684v2.551h-.703v-2.523c0-.287-.027-.501-.082-.643-.055-.143-.151-.256-.291-.34-.14-.085-.303-.127-.49-.127-.3,0-.558.095-.775.285-.218.189-.326.551-.326,1.082v2.266h-.703Z" fill="#231f20" stroke-width="0"/><path d="M81.789,87.033v-.523c-.263.411-.649.617-1.16.617-.331,0-.635-.091-.912-.273s-.492-.437-.645-.764-.229-.702-.229-1.127c0-.414.069-.79.207-1.127.138-.338.345-.596.621-.775s.585-.27.926-.27c.25,0,.473.053.668.158s.354.242.477.412v-2.056h.699v5.728h-.652ZM79.566,84.963c0,.531.112.929.336,1.191s.488.395.793.395c.308,0,.568-.126.783-.377s.322-.635.322-1.15c0-.568-.109-.984-.328-1.25s-.488-.398-.809-.398c-.312,0-.573.127-.783.383-.21.255-.314.657-.314,1.207Z" fill="#231f20" stroke-width="0"/><path d="M86.307,85.697l.727.09c-.114.425-.327.754-.637.988s-.706.352-1.188.352c-.606,0-1.088-.187-1.443-.561s-.533-.897-.533-1.572c0-.698.18-1.24.539-1.625.359-.386.825-.578,1.398-.578.555,0,1.008.188,1.359.566.352.377.527.908.527,1.594,0,.041,0,.104-.004.188h-3.094c.026.456.155.805.387,1.047s.521.363.867.363c.258,0,.478-.067.66-.203s.327-.352.434-.648ZM83.998,84.56h2.316c-.031-.35-.12-.611-.266-.785-.224-.271-.515-.406-.871-.406-.323,0-.595.107-.814.324-.22.216-.342.505-.365.867Z" fill="#231f20" stroke-width="0"/><path d="M87.836,87.033v-4.148h.633v.59c.305-.456.745-.684,1.32-.684.25,0,.479.045.689.135s.366.207.471.354c.104.146.177.318.219.52.026.13.039.357.039.684v2.551h-.703v-2.523c0-.287-.027-.501-.082-.643-.055-.143-.151-.256-.291-.34-.14-.085-.303-.127-.49-.127-.3,0-.558.095-.775.285-.218.189-.326.551-.326,1.082v2.266h-.703Z" fill="#231f20" stroke-width="0"/><path d="M93.74,86.404l.102.621c-.198.042-.375.062-.531.062-.255,0-.453-.04-.594-.121s-.239-.187-.297-.318-.086-.408-.086-.83v-2.387h-.516v-.547h.516v-1.028l.699-.422v1.45h.707v.547h-.707v2.426c0,.2.013.329.037.387s.065.103.121.137.136.051.24.051c.078,0,.181-.009.309-.027Z" fill="#231f20" stroke-width="0"/><path d="M101.605,43.067c0,1.93,1.566,3.494,3.495,3.494s3.494-1.564,3.494-3.494-1.563-3.496-3.494-3.496-3.495,1.566-3.495,3.496Z" fill="#231f20" stroke-width="0"/><path d="M105.865,48.563l-3.569-2.475s-1.748-.655-2.33,1.24l-4.878,9.756s-.218,1.821,1.602,3.422l6.7,7.718s.945.945.143,2.911l-2.619,5.898s-1.093,1.966.145,3.277l1.383.802s1.309,0,1.966-1.311l3.64-9.101s.731-3.132-.727-4.805l-4.806-5.462s-.8-1.383-.218-2.549l2.038-3.201.765-.147s-.327,2.33,1.128,3.204l6.552,5.388s1.092.074,1.455-.509l.585-.728s.433-1.238-.585-2.185l-5.642-5.022-2.729-6.119Z" fill="#231f20" stroke-width="0"/><path d="M134.078,43.029c0,1.93-1.566,3.496-3.494,3.496s-3.495-1.566-3.495-3.496,1.563-3.494,3.495-3.494,3.494,1.564,3.494,3.494Z" fill="#231f20" stroke-width="0"/><path d="M125.501,38.394c0,1.93-1.566,3.496-3.494,3.496s-3.495-1.566-3.495-3.496,1.563-3.494,3.495-3.494,3.494,1.564,3.494,3.494Z" fill="#231f20" stroke-width="0"/><path d="M127.635,47.399h4.953s1.964.438,2.035,2.111c.074,1.676,0,5.317,0,5.317l.034,7.718s-.686.69-1.269,1.001c0,0-.51.237-.656.891l-.51,8.009.074,7.354s-.437,1.747-1.711,1.821h-.786s-1.289-.583-1.579-2.404v-10.703s-1.966-2.33-2.623-4.006c-.654-1.675-.654-10.339-.654-10.339,0,0-.073-.947-.874-.29l-4.516,6.333s-.855.384-1.346.219c0,0-1.039-.764-.71-2.075l7.756-9.939s1.164-1.327,2.384-1.019Z" fill="#231f20" stroke-width="0"/><path d="M121.876,51.335s-1.883-2.451-2.338-3.102-2.024-2.002-2.024-2.002v-1.555s.133-2.111,2.384-2.111h4.953s1.964.438,2.035,2.111c.074,1.676,0,1.649,0,1.649,0,0-1.478.191-2.504,1.909l-2.505,3.102Z" fill="#231f20" stroke-width="0"/><path d="M117.858,61.9c.657,1.676,2.623,4.006,2.623,4.006v10.703c.29,1.821,1.579,2.404,1.579,2.404h.786c1.274-.074,1.711-1.821,1.711-1.821l-.074-7.354.51-8.009c.145-.654.656-.891.656-.891.583-.311,1.269-1.001,1.269-1.001" fill="#231f20" stroke-width="0"/><path d="M111.814,55.848s-.855.384-1.346.219" fill="#231f20" stroke-width="0"/><polygon points="120.364 71.794 135.903 69.254 135.903 56.837 120.364 54.297 104.826 56.837 104.826 69.254 120.364 71.794" fill="#fff" stroke-width="0"/><line x1="120.364" y1="59.377" x2="120.364" y2="71.794" fill="none" stroke="#231f20" stroke-width="1.144"/><line x1="104.826" y1="56.837" x2="104.826" y2="69.254" fill="none" stroke="#231f20" stroke-width="1.144"/><line x1="135.903" y1="56.837" x2="135.903" y2="69.254" fill="none" stroke="#231f20" stroke-width="1.144"/><line x1="104.826" y1="56.837" x2="120.364" y2="59.377" fill="none" stroke="#231f20" stroke-width="1.144"/><line x1="135.903" y1="56.837" x2="120.364" y2="59.377" fill="none" stroke="#231f20" stroke-width="1.144"/><line x1="104.826" y1="56.837" x2="120.364" y2="54.297" fill="none" stroke="#231f20" stroke-width="1.144"/><line x1="135.903" y1="56.837" x2="120.364" y2="54.297" fill="none" stroke="#231f20" stroke-width="1.144"/><line x1="104.826" y1="69.254" x2="120.364" y2="71.794" fill="none" stroke="#231f20" stroke-width="1.144"/><line x1="135.903" y1="69.254" x2="120.364" y2="71.794" fill="none" stroke="#231f20" stroke-width="1.144"/><path d="M141.359,43.067c0,1.93-1.563,3.494-3.494,3.494s-3.494-1.564-3.494-3.494,1.562-3.496,3.494-3.496,3.494,1.566,3.494,3.496Z" fill="#231f20" stroke-width="0"/><path d="M137.1,48.563l3.569-2.475s1.747-.655,2.33,1.24l4.877,9.756s.219,1.821-1.601,3.422l-6.701,7.718s-.943.945-.143,2.911l2.621,5.898s1.092,1.966-.145,3.277l-1.383.802s-1.311,0-1.966-1.311l-3.641-9.101s-.729-3.132.728-4.805l4.805-5.462s.801-1.383.219-2.549l-2.04-3.201-.764-.147s.326,2.33-1.128,3.204l-6.553,5.388s-1.092.074-1.455-.509l-.584-.728s-.435-1.238.584-2.185l5.643-5.022,2.729-6.119Z" fill="#231f20" stroke-width="0"/><path d="M109.71,43.029c0,1.93,1.564,3.496,3.494,3.496s3.494-1.566,3.494-3.496-1.563-3.494-3.494-3.494-3.494,1.564-3.494,3.494Z" fill="#231f20" stroke-width="0"/><path d="M116.153,47.399h-4.95s-1.966.438-2.039,2.111c-.074,1.676,0,5.317,0,5.317l-.032,7.718s.688.69,1.269,1.001c0,0,.51.237.656.891l.51,8.009-.071,7.354s.435,1.747,1.709,1.821h.785s1.291-.583,1.583-2.404v-10.703s1.964-2.33,2.62-4.006c.654-1.675.654-10.339.654-10.339,0,0,.074-.947.874-.29l4.516,6.333s.856.384,1.348.219c0,0,1.034-.764.708-2.075l-7.754-9.939s-1.166-1.327-2.386-1.019Z" fill="#231f20" stroke-width="0"/><polyline points="51.975 68.638 76.694 54.178 76.694 42.497" fill="#fff" stroke="#221f1f" stroke-linecap="round" stroke-linejoin="round" stroke-width=".766"/><polyline points="29.983 44.092 54.745 31.214 76.681 42.497 51.93 56.763" fill="#fff" stroke="#221f1f" stroke-linecap="round" stroke-linejoin="round" stroke-width=".766"/><polygon points="51.926 68.613 51.926 56.768 29.986 44.095 29.953 55.661 51.926 68.613" fill="#fff" stroke="#221f1f" stroke-linecap="round" stroke-linejoin="round" stroke-width=".766"/><line x1="30.004" y1="50.243" x2="51.759" y2="62.823" fill="#fff" stroke="#221f1f" stroke-linecap="round" stroke-linejoin="round" stroke-width=".766"/></svg>