<?xml version="1.0" encoding="UTF-8"?><svg id="a" xmlns="http://www.w3.org/2000/svg" width="4.88in" height="2.38in" viewBox="0 0 351.5 171.18"><polygon points="16.06 39.37 313.15 66.96 351.08 6.71 191.49 .25 16.06 39.37" fill="none" stroke="#231f20" stroke-linecap="round" stroke-linejoin="round" stroke-width=".5"/><polyline points="309.11 86.15 245.93 79.29 245.26 60.81" fill="none" stroke="#231f20" stroke-linecap="round" stroke-linejoin="round" stroke-width=".5"/><polyline points="148.36 68.69 127.3 66.4 124.65 49.76" fill="none" stroke="#231f20" stroke-linecap="round" stroke-linejoin="round" stroke-width=".5"/><polyline points="115.67 65.14 77.06 60.95 73.75 44.98" fill="none" stroke="#231f20" stroke-linecap="round" stroke-linejoin="round" stroke-width=".5"/><polyline points="64.38 59.57 31.67 56.02 27.63 40.62" fill="none" stroke="#231f20" stroke-linecap="round" stroke-linejoin="round" stroke-width=".5"/><path d="m63.34,78.85l47.93,6.23c-1.29-7.56-.51-13.74-.51-13.74l-47.62-5.49s-1.75,3.85.2,12.99Z" fill="none" stroke="#231f20" stroke-linecap="round" stroke-linejoin="round" stroke-width=".5"/><path d="m64.67,63.51l-5.45,1.9-42.49-4.9s-2.03,5.32.28,12.32l42.73,5.56,3.09-1.49" fill="none" stroke="#231f20" stroke-linecap="round" stroke-linejoin="round" stroke-width=".5"/><path d="m147.79,75.61l-32.6-3.76s-2.1,5.17.1,13.75l34.41,4.47" fill="none" stroke="#231f20" stroke-linecap="round" stroke-linejoin="round" stroke-width=".5"/><path d="m305.37,110.24l-67.21-8.66c-1.2-10.63.84-15.45.84-15.45l67.46,7.78s.81.09.77,1.38-1.05,14.09-1.05,14.09c0,0-.04.85-.81.85Z" fill="none" stroke="#231f20" stroke-linecap="round" stroke-linejoin="round" stroke-width=".5"/><path d="m254.73,103.73s-.59-6.55.71-15.69" fill="none" stroke="#231f20" stroke-linecap="round" stroke-linejoin="round" stroke-width=".5"/><line x1="239.02" y1="86.03" x2="246.45" y2="79.45" fill="none" stroke="#231f20" stroke-linecap="round" stroke-linejoin="round" stroke-width=".5"/><polyline points="240.33 85.17 301.1 92.08 304.86 85.84" fill="none" stroke="#231f20" stroke-linecap="round" stroke-linejoin="round" stroke-width=".5"/><polyline points="262.26 87.35 267.23 81.72 267.17 87.84" fill="none" stroke="#231f20" stroke-linecap="round" stroke-linejoin="round" stroke-width=".5"/><path d="m232.66,123.4l58.29,8.97,1.59-.49,14.12,2.06.4-4.53-.73-1.23,3.77-53.08,1.04-1.32.27-5.59s-.14-.81.54-1.32" fill="none" stroke="#231f20" stroke-linecap="round" stroke-linejoin="round" stroke-width=".5"/><line x1="307.17" y1="94.57" x2="308.76" y2="92" fill="none" stroke="#231f20" stroke-linecap="round" stroke-linejoin="round" stroke-width=".5"/><line x1="305.94" y1="109.9" x2="307.78" y2="106.82" fill="none" stroke="#231f20" stroke-linecap="round" stroke-linejoin="round" stroke-width=".5"/><path d="m66,91.75l-34.66-5.02s-.85.18-.75-1.31,1.03-10.62,1.03-10.62" fill="none" stroke="#231f20" stroke-linecap="round" stroke-linejoin="round" stroke-width=".5"/><path d="m116.23,99.03l-39.48-5.72s-1.34.37-1.13-1.63,1.13-10.98,1.13-10.98" fill="none" stroke="#231f20" stroke-linecap="round" stroke-linejoin="round" stroke-width=".5"/><path d="m137.19,102.06l-10.14-1.47s-1.78.06-1.58-1.79c.22-2.11,1.28-11.64,1.28-11.64" fill="none" stroke="#231f20" stroke-linecap="round" stroke-linejoin="round" stroke-width=".5"/><path d="m306.14,126.54l-60.9-8.82s-2.45-.32-2.21-2.21,1.32-13.1,1.32-13.1" fill="none" stroke="#231f20" stroke-linecap="round" stroke-linejoin="round" stroke-width=".5"/><path d="m128.39,73.46s-1.29,6.09.15,13.82" fill="none" stroke="#231f20" stroke-linecap="round" stroke-linejoin="round" stroke-width=".5"/><polyline points="127.3 66.4 118.55 70.57 117.77 70.94 115.89 71.84 115.49 48.83" fill="none" stroke="#231f20" stroke-linecap="round" stroke-linejoin="round" stroke-width=".5"/><polyline points="147.66 74.58 135.22 73.07 117.77 70.94" fill="none" stroke="#231f20" stroke-linecap="round" stroke-linejoin="round" stroke-width=".5"/><polyline points="135.22 73.07 144.42 68.58 144.48 74.04" fill="none" stroke="#231f20" stroke-linecap="round" stroke-linejoin="round" stroke-width=".5"/><line x1="110.88" y1="71.45" x2="115.68" y2="69.29" fill="none" stroke="#231f20" stroke-linecap="round" stroke-linejoin="round" stroke-width=".5"/><polyline points="115.56 67.14 108.96 69.9 65.15 65.11 77.06 60.95" fill="none" stroke="#231f20" stroke-linecap="round" stroke-linejoin="round" stroke-width=".5"/><polyline points="82.14 66.61 92.41 62.87 92.41 68.1" fill="none" stroke="#231f20" stroke-linecap="round" stroke-linejoin="round" stroke-width=".5"/><path d="m75.62,80.2s-1.87-4.27-.47-12.87" fill="none" stroke="#231f20" stroke-linecap="round" stroke-linejoin="round" stroke-width=".5"/><path d="m59.22,65.4s-.73,4.92.51,12.98" fill="none" stroke="#231f20" stroke-linecap="round" stroke-linejoin="round" stroke-width=".5"/><polyline points="33.34 61.45 45.45 57.72 45.62 62.7" fill="none" stroke="#231f20" stroke-linecap="round" stroke-linejoin="round" stroke-width=".5"/><polyline points="31.67 56.02 18.6 59.7 57.86 64.19 64.73 61.92" fill="none" stroke="#231f20" stroke-linecap="round" stroke-linejoin="round" stroke-width=".5"/><path d="m26.99,61.98s-1.26,5.29.79,12.14" fill="none" stroke="#231f20" stroke-linecap="round" stroke-linejoin="round" stroke-width=".5"/><path d="m17.42,60.58s.24-.56,1.18-.88" fill="none" stroke="#231f20" stroke-linecap="round" stroke-linejoin="round" stroke-width=".5"/><path d="m64.12,66.01s.39-.86,1.03-.9l-1.24-21.04-10.21,14.4-4.19,4.65" fill="none" stroke="#231f20" stroke-linecap="round" stroke-linejoin="round" stroke-width=".5"/><line x1="148.11" y1="68.9" x2="177.72" y2="54.7" fill="none" stroke="#231f20" stroke-linecap="round" stroke-linejoin="round" stroke-width=".5"/><line x1="180.5" y1="95.81" x2="184.39" y2="96.27" fill="none" stroke="#231f20" stroke-linecap="round" stroke-linejoin="round" stroke-width=".5"/><path d="m204.63,99.01l11.01,1.46s.85-.07,1.06.63l-1.55-22.97c-.35-2.04-2.54-2.18-2.54-2.18l-63.48-6.97c-1.7,0-1.64,1.23-1.64,1.23l2.69,21.6,26.5,3.51" fill="none" stroke="#231f20" stroke-linecap="round" stroke-linejoin="round" stroke-width=".5"/><line x1="196.31" y1="97.91" x2="200.49" y2="98.46" fill="none" stroke="#231f20" stroke-linecap="round" stroke-linejoin="round" stroke-width=".5"/><line x1="188.39" y1="96.86" x2="192.5" y2="97.4" fill="none" stroke="#231f20" stroke-linecap="round" stroke-linejoin="round" stroke-width=".5"/><path d="m153.55,66.47s.87-.95,3.78-.63,58.44,6.14,58.44,6.14c0,0,4.02.71,4.02,3.23l-1.81,63.16-4.65,5.51" fill="none" stroke="#231f20" stroke-linecap="round" stroke-linejoin="round" stroke-width=".5"/><path d="m216.7,101.1l-.3,16.01-2.68,25.52s-.16,2.44-2.36,2.05l-61.98-10.79s-1.89-.16-1.65-2.68,1.34-13.23,1.34-13.23" fill="none" stroke="#231f20" stroke-linecap="round" stroke-linejoin="round" stroke-width=".5"/><path d="m151.15,92.27l-12.79,7.02s-.91.18-.91,1.45.12,14,.12,14c0,0,0,1.33,1.64,1.58,2.54.38,14.18,2.06,14.18,2.06" fill="none" stroke="#231f20" stroke-linecap="round" stroke-linejoin="round" stroke-width=".5"/><polyline points="210.08 99.91 200.99 107.58 139.12 98.99" fill="none" stroke="#231f20" stroke-linecap="round" stroke-linejoin="round" stroke-width=".5"/><line x1="205.12" y1="110.39" x2="216.23" y2="100.69" fill="none" stroke="#231f20" stroke-linecap="round" stroke-linejoin="round" stroke-width=".5"/><polyline points="161.56 101.77 171.62 95.11 171.62 103.35" fill="none" stroke="#231f20" stroke-linecap="round" stroke-linejoin="round" stroke-width=".5"/><path d="m204.96,127.85l-51.25-7.77s-1.8-9.92,0-17.13l50.31,7.03s1.53-.09,1.44,1.8c0,0-1.53,8.15-.5,16.07l11.29-11.13" fill="none" stroke="#231f20" stroke-linecap="round" stroke-linejoin="round" stroke-width=".5"/><line x1="153.7" y1="102.95" x2="156.68" y2="101.54" fill="none" stroke="#231f20" stroke-linecap="round" stroke-linejoin="round" stroke-width=".5"/><line x1="137.81" y1="100.27" x2="154.51" y2="102.52" fill="none" stroke="#231f20" stroke-linecap="round" stroke-linejoin="round" stroke-width=".5"/><line x1="240.35" y1="84.4" x2="241.34" y2="60.7" fill="none" stroke="#231f20" stroke-linecap="round" stroke-linejoin="round" stroke-width=".5"/><polyline points="219.47 73.36 237.77 60.19 235.43 120.97 238.79 121.44 239.6 102.1" fill="none" stroke="#231f20" stroke-linecap="round" stroke-linejoin="round" stroke-width=".5"/><line x1="218.4" y1="139.52" x2="235.2" y2="120.36" fill="none" stroke="#231f20" stroke-linecap="round" stroke-linejoin="round" stroke-width=".5"/><path d="m234.11,122.18l66.02,9.63s5.15.49,6.56-1.25" fill="none" stroke="#231f20" stroke-linecap="round" stroke-linejoin="round" stroke-width=".5"/><path d="m312.85,136.7l4.39.7.29,1.06,4.62.67s1.92,0,2.12-2.21,5.39-65.9,5.39-65.9c0,0,.19-1.92-1.54-2.21s-4.81-.48-4.81-.48l-.19,1.83-7.6-.67.07-1.79-1.48-.16-.43,6.52-1.1-.14" fill="none" stroke="#231f20" stroke-linecap="round" stroke-linejoin="round" stroke-width=".5"/><polyline points="231.14 125.38 269.43 131.05 271.74 130.67 278.95 131.82 280.11 133.27 299.16 136.15 300.6 135.38 307.91 136.25 308.78 136.05 310.06 136.26" fill="none" stroke="#231f20" stroke-linecap="round" stroke-linejoin="round" stroke-width=".5"/><polyline points="328.78 88.22 351.25 38.98 351.03 10.42" fill="none" stroke="#231f20" stroke-linecap="round" stroke-linejoin="round" stroke-width=".5"/><polyline points="75.24 26.12 327.27 44.46 327.27 49.14" fill="none" stroke="#231f20" stroke-linecap="round" stroke-linejoin="round" stroke-width=".5"/><polyline points="315.54 69.06 351.03 10.42 351.03 6.71" fill="none" stroke="#231f20" stroke-linecap="round" stroke-linejoin="round" stroke-width=".5"/><polyline points="308 135.01 312.57 73.92 313.54 72.33" fill="none" stroke="#231f20" stroke-linecap="round" stroke-linejoin="round" stroke-width=".5"/><path d="m170.95,63.37l-.16-2.11c.31-2.27,1.71-2.83,1.71-2.83l3.13-1.39,17.81,1.56,3.44-2.19" fill="none" stroke="#231f20" stroke-linecap="round" stroke-linejoin="round" stroke-width=".5"/><path d="m158.84,66.1s.08-1.02,1.87-1.87l3.04-1.5,18.91,1.89,8.36-4.84s-6.09-.55-11.25,4.22" fill="none" stroke="#231f20" stroke-linecap="round" stroke-linejoin="round" stroke-width=".5"/><path d="m182.43,54.93s-.86.16-.39,2.58" fill="none" stroke="#231f20" stroke-linecap="round" stroke-linejoin="round" stroke-width=".5"/><path d="m190.55,58.37s1.95-2.03,4.22-2.27" fill="none" stroke="#231f20" stroke-linecap="round" stroke-linejoin="round" stroke-width=".5"/><path d="m162.59,64.7l54.68,5.39s3.2-.08,3.98,2.03" fill="none" stroke="#231f20" stroke-linecap="round" stroke-linejoin="round" stroke-width=".5"/><path d="m223.05,70.63s-.7-1.48-2.89-1.95l-18.67-2.03,8.05-4.84s4.61-.86,11.48,6.72" fill="none" stroke="#231f20" stroke-linecap="round" stroke-linejoin="round" stroke-width=".5"/><path d="m232.5,63.99s-.55-1.72-4.45-2.11l-16.01-1.56,3.28-2.11" fill="none" stroke="#231f20" stroke-linecap="round" stroke-linejoin="round" stroke-width=".5"/><path d="m226.17,59.15s2.11,1.41,3.67,3.2" fill="none" stroke="#231f20" stroke-linecap="round" stroke-linejoin="round" stroke-width=".5"/><path d="m173.13,58.21l54.99,5s2.03.7,2.66,1.8" fill="none" stroke="#231f20" stroke-linecap="round" stroke-linejoin="round" stroke-width=".5"/><polygon points="160.55 72.37 157.13 72 150.56 78.73 150.97 82.37 160.55 72.37" fill="none" stroke="#231f20" stroke-linecap="round" stroke-linejoin="round" stroke-width=".5"/><polygon points="152.96 71.56 149.69 71.19 150.08 74.52 152.96 71.56" fill="none" stroke="#231f20" stroke-linecap="round" stroke-linejoin="round" stroke-width=".5"/><polygon points="168.36 73.21 164.86 72.84 151.43 86.36 151.82 89.81 168.36 73.21" fill="none" stroke="#231f20" stroke-linecap="round" stroke-linejoin="round" stroke-width=".5"/><polyline points="175.95 104.03 205.37 77.15 209.45 77.55 179.93 104.6" fill="none" stroke="#231f20" stroke-linecap="round" stroke-linejoin="round" stroke-width=".5"/><polygon points="172.65 99.15 197.17 76.32 200.75 76.7 172.7 102.56 172.65 99.15" fill="none" stroke="#231f20" stroke-linecap="round" stroke-linejoin="round" stroke-width=".5"/><polygon points="192.62 75.83 188.87 75.42 169.95 93.42 173.77 93.95 192.62 75.83" fill="none" stroke="#231f20" stroke-linecap="round" stroke-linejoin="round" stroke-width=".5"/><polygon points="184.49 74.95 180.82 74.56 162.28 92.38 166.12 92.9 184.49 74.95" fill="none" stroke="#231f20" stroke-linecap="round" stroke-linejoin="round" stroke-width=".5"/><polygon points="158.64 91.88 155.08 91.39 172.68 73.68 176.35 74.07 158.64 91.88" fill="none" stroke="#231f20" stroke-linecap="round" stroke-linejoin="round" stroke-width=".5"/><polyline points="183.87 105.28 213.02 79.28 213.26 83.1 187.33 105.65" fill="none" stroke="#231f20" stroke-linecap="round" stroke-linejoin="round" stroke-width=".5"/><polyline points="191.57 106.12 213.55 87.66 213.77 91.23 195.45 106.7" fill="none" stroke="#231f20" stroke-linecap="round" stroke-linejoin="round" stroke-width=".5"/><polygon points="214.04 95.48 214.28 99.31 210.29 98.78 214.04 95.48" fill="none" stroke="#231f20" stroke-linecap="round" stroke-linejoin="round" stroke-width=".5"/><polyline points="199.81 107.49 206.83 101.25 207.46 101.88" fill="none" stroke="#231f20" stroke-linecap="round" stroke-linejoin="round" stroke-width=".5"/><polygon points="212.34 132.68 212.73 128.79 198.87 140.26 202.79 140.93 212.34 132.68" fill="none" stroke="#231f20" stroke-linecap="round" stroke-linejoin="round" stroke-width=".5"/><polygon points="211.83 137.86 211.37 142.41 207.08 141.67 211.83 137.86" fill="none" stroke="#231f20" stroke-linecap="round" stroke-linejoin="round" stroke-width=".5"/><polyline points="199.92 127.14 186.88 138.2 183 137.53 195.87 126.55" fill="none" stroke="#231f20" stroke-linecap="round" stroke-linejoin="round" stroke-width=".5"/><polyline points="191.62 125.89 179.19 136.88 175.19 136.19 187.72 125.29" fill="none" stroke="#231f20" stroke-linecap="round" stroke-linejoin="round" stroke-width=".5"/><polyline points="183.69 124.79 171.26 135.51 167.75 134.91 180.12 124.14" fill="none" stroke="#231f20" stroke-linecap="round" stroke-linejoin="round" stroke-width=".5"/><polyline points="175.94 123.67 163.51 134.18 160.05 133.58 172.11 123.01" fill="none" stroke="#231f20" stroke-linecap="round" stroke-linejoin="round" stroke-width=".5"/><polyline points="168.07 122.35 156.16 132.92 152.65 132.31 164.43 121.89" fill="none" stroke="#231f20" stroke-linecap="round" stroke-linejoin="round" stroke-width=".5"/><polyline points="160.73 121.16 149.7 130.48 150.24 126.32 156.82 120.76" fill="none" stroke="#231f20" stroke-linecap="round" stroke-linejoin="round" stroke-width=".5"/><polyline points="151.29 118.36 150.84 121.76 153.31 119.44" fill="none" stroke="#231f20" stroke-linecap="round" stroke-linejoin="round" stroke-width=".5"/><polyline points="213.54 119.56 213.24 123.72 194.78 139.56 190.81 138.87 203.93 127.89" fill="none" stroke="#231f20" stroke-linecap="round" stroke-linejoin="round" stroke-width=".5"/><line x1="20.54" y1="78.07" x2="21.25" y2="90.49" fill="none" stroke="#231f20" stroke-linecap="round" stroke-linejoin="round" stroke-width=".5"/><line x1="18.49" y1="39.89" x2="19.55" y2="59.31" fill="none" stroke="#231f20" stroke-linecap="round" stroke-linejoin="round" stroke-width=".5"/><path d="m30.52,86.6l-11.83,5.07.2.8,4.27.6,1.39.8,10.9,1.67,2.28-.51,4.05.57.29,1.08,28.91,4.28s2.17.4,3.48-.74" fill="none" stroke="#231f20" stroke-linecap="round" stroke-linejoin="round" stroke-width=".5"/><path d="m87.57,94.96l-12.85,3.45v2.92l22.73,3.45s2.4.53,3.8.06" fill="none" stroke="#231f20" stroke-linecap="round" stroke-linejoin="round" stroke-width=".5"/><path d="m74.72,98.41l22.32,3.56s12.91,1.81,15.31-3.45" fill="none" stroke="#231f20" stroke-linecap="round" stroke-linejoin="round" stroke-width=".5"/><path d="m114.13,98.92c-.87,3.86-12,4.09-12,4.09,0,0-1,.01-1,.57" fill="none" stroke="#231f20" stroke-linecap="round" stroke-linejoin="round" stroke-width=".5"/><path d="m110.57,104.9c-2.19,1.23-6.05,1.14-6.05,1.14-2.54,1.35-3.39.03-3.39.03v-2.49s1.49.82,3.31-.12c0,0,4.71-.32,6.11-1.14l2.34.29-.03-.85s2.9-1.05,3.13-2.66" fill="none" stroke="#231f20" stroke-linecap="round" stroke-linejoin="round" stroke-width=".5"/><line x1="104.52" y1="106.04" x2="104.52" y2="103.67" fill="none" stroke="#231f20" stroke-linecap="round" stroke-linejoin="round" stroke-width=".5"/><ellipse cx="102.59" cy="99.51" rx="6.1" ry="1.57" fill="none" stroke="#231f20" stroke-linecap="round" stroke-linejoin="round" stroke-width=".5"/><path d="m98.63,100.6s3.82-1.43,8.45-.09" fill="none" stroke="#231f20" stroke-linecap="round" stroke-linejoin="round" stroke-width=".5"/><polyline points="110.66 102.63 110.66 106.21 137.42 110.41" fill="none" stroke="#231f20" stroke-linecap="round" stroke-linejoin="round" stroke-width=".5"/><line x1="110.85" y1="103.3" x2="137.38" y2="107.19" fill="none" stroke="#231f20" stroke-linecap="round" stroke-linejoin="round" stroke-width=".5"/><line x1="125.75" y1="100.39" x2="119.18" y2="103.97" fill="none" stroke="#231f20" stroke-linecap="round" stroke-linejoin="round" stroke-width=".5"/><line x1="116.25" y1="85.76" x2="116.58" y2="104.03" fill="none" stroke="#231f20" stroke-linecap="round" stroke-linejoin="round" stroke-width=".5"/><line x1="118.74" y1="86.13" x2="119.07" y2="104.03" fill="none" stroke="#231f20" stroke-linecap="round" stroke-linejoin="round" stroke-width=".5"/><polyline points="65.71 79.3 66.04 96.11 68.52 96.54" fill="none" stroke="#231f20" stroke-linecap="round" stroke-linejoin="round" stroke-width=".5"/><polyline points="68.2 79.65 68.52 96.54 75.71 93.2" fill="none" stroke="#231f20" stroke-linecap="round" stroke-linejoin="round" stroke-width=".5"/><polyline points="21.82 90.73 72.63 98.21 85.73 94.82" fill="none" stroke="#231f20" stroke-linecap="round" stroke-linejoin="round" stroke-width=".5"/><polyline points="56.32 43.22 46.82 56.61 44.53 56.41 53.77 43.12" fill="none" stroke="#231f20" stroke-linecap="round" stroke-linejoin="round" stroke-width=".5"/><polyline points="48.6 42.63 39.62 55.97 41.92 56.18 51.06 42.89" fill="none" stroke="#231f20" stroke-linecap="round" stroke-linejoin="round" stroke-width=".5"/><polyline points="45.97 42.32 37.03 55.74 34.73 55.49 43.71 42.12" fill="none" stroke="#231f20" stroke-linecap="round" stroke-linejoin="round" stroke-width=".5"/><polyline points="38.45 41.6 31.86 51.67 32.59 54.62 41.09 41.77" fill="none" stroke="#231f20" stroke-linecap="round" stroke-linejoin="round" stroke-width=".5"/><polyline points="33.69 41.13 30.46 45.98 31.12 48.67 36.29 41.4" fill="none" stroke="#231f20" stroke-linecap="round" stroke-linejoin="round" stroke-width=".5"/><polyline points="29.18 40.82 29.68 42.83 31.12 40.93" fill="none" stroke="#231f20" stroke-linecap="round" stroke-linejoin="round" stroke-width=".5"/><polyline points="46.36 62.73 46.24 60.58 48.7 57.97 58.8 43.34" fill="none" stroke="#231f20" stroke-linecap="round" stroke-linejoin="round" stroke-width=".5"/><polyline points="46.89 62.88 51.23 58.28 61.6 43.73" fill="none" stroke="#231f20" stroke-linecap="round" stroke-linejoin="round" stroke-width=".5"/><polyline points="51.88 63.34 56.15 58.66 64.13 47.72" fill="none" stroke="#231f20" stroke-linecap="round" stroke-linejoin="round" stroke-width=".5"/><polyline points="54.57 63.69 58.6 59.08 64.17 51.4" fill="none" stroke="#231f20" stroke-linecap="round" stroke-linejoin="round" stroke-width=".5"/><polyline points="57.18 64 61.29 59.31 64.36 55.01" fill="none" stroke="#231f20" stroke-linecap="round" stroke-linejoin="round" stroke-width=".5"/><polyline points="60.41 63.27 63.79 59.51 64.59 58.39" fill="none" stroke="#231f20" stroke-linecap="round" stroke-linejoin="round" stroke-width=".5"/><line x1="67.32" y1="64.26" x2="66.03" y2="44.21" fill="none" stroke="#231f20" stroke-linecap="round" stroke-linejoin="round" stroke-width=".5"/><line x1="118.01" y1="49.04" x2="118.55" y2="70.57" fill="none" stroke="#231f20" stroke-linecap="round" stroke-linejoin="round" stroke-width=".5"/><polyline points="65.7 90.15 63.51 89.84 65.9 87.32" fill="none" stroke="#231f20" stroke-linecap="round" stroke-linejoin="round" stroke-width=".5"/><polyline points="65.75 81.66 58.64 89.14 60.78 89.45 65.75 84.39" fill="none" stroke="#231f20" stroke-linecap="round" stroke-linejoin="round" stroke-width=".5"/><polyline points="63.17 78.44 53.48 88.4 55.68 88.72 65.21 79.13" fill="none" stroke="#231f20" stroke-linecap="round" stroke-linejoin="round" stroke-width=".5"/><polyline points="57.76 78.29 48.62 87.71 50.56 87.98 60.59 78.14" fill="none" stroke="#231f20" stroke-linecap="round" stroke-linejoin="round" stroke-width=".5"/><polyline points="52.69 77.74 43.57 86.98 45.75 87.29 55.03 77.89" fill="none" stroke="#231f20" stroke-linecap="round" stroke-linejoin="round" stroke-width=".5"/><polyline points="47.98 77 38.99 86.33 41.23 86.65 50.06 77.19" fill="none" stroke="#231f20" stroke-linecap="round" stroke-linejoin="round" stroke-width=".5"/><polyline points="42.81 76.3 33.87 85.64 36.2 85.97 45.44 76.65" fill="none" stroke="#231f20" stroke-linecap="round" stroke-linejoin="round" stroke-width=".5"/><polyline points="37.8 75.8 32.33 81.21 32.04 83.75 40.43 76.05" fill="none" stroke="#231f20" stroke-linecap="round" stroke-linejoin="round" stroke-width=".5"/><polyline points="33.03 75.16 32.72 77.79 35.41 75.36" fill="none" stroke="#231f20" stroke-linecap="round" stroke-linejoin="round" stroke-width=".5"/><polyline points="105.36 47.99 93.77 61.74 91.27 61.46 102.32 47.57" fill="none" stroke="#231f20" stroke-linecap="round" stroke-linejoin="round" stroke-width=".5"/><polyline points="96.72 46.98 85.79 60.83 88.6 61.16 99.54 47.28" fill="none" stroke="#231f20" stroke-linecap="round" stroke-linejoin="round" stroke-width=".5"/><polyline points="91.08 46.46 80.33 60.21 83.11 60.53 93.9 46.76" fill="none" stroke="#231f20" stroke-linecap="round" stroke-linejoin="round" stroke-width=".5"/><polyline points="85.59 46.02 77.58 56.44 78.18 59.22 88.34 46.24" fill="none" stroke="#231f20" stroke-linecap="round" stroke-linejoin="round" stroke-width=".5"/><polyline points="80.14 45.53 76.31 50.53 76.96 53.54 82.96 45.72" fill="none" stroke="#231f20" stroke-linecap="round" stroke-linejoin="round" stroke-width=".5"/><polyline points="75.14 45.12 75.64 47.42 77.54 45.16" fill="none" stroke="#231f20" stroke-linecap="round" stroke-linejoin="round" stroke-width=".5"/><polyline points="116.32 97.08 112.38 96.54 116.29 92.48" fill="none" stroke="#231f20" stroke-linecap="round" stroke-linejoin="round" stroke-width=".5"/><polyline points="116.13 86.52 106.7 95.75 109.52 96.14 116.21 89.18" fill="none" stroke="#231f20" stroke-linecap="round" stroke-linejoin="round" stroke-width=".5"/><polyline points="114.66 83.1 111.18 85.08 101.08 94.97 103.6 95.32 114.88 84.46" fill="none" stroke="#231f20" stroke-linecap="round" stroke-linejoin="round" stroke-width=".5"/><polyline points="105.49 84.42 95.56 94.21 98.21 94.58 108.15 84.83" fill="none" stroke="#231f20" stroke-linecap="round" stroke-linejoin="round" stroke-width=".5"/><polyline points="100.02 83.7 90.26 93.48 92.77 93.83 102.31 84.1" fill="none" stroke="#231f20" stroke-linecap="round" stroke-linejoin="round" stroke-width=".5"/><polyline points="94.54 82.97 84.8 92.73 87.17 93.05 97.16 83.42" fill="none" stroke="#231f20" stroke-linecap="round" stroke-linejoin="round" stroke-width=".5"/><polyline points="89.14 82.37 79.32 91.97 81.89 92.32 91.72 82.65" fill="none" stroke="#231f20" stroke-linecap="round" stroke-linejoin="round" stroke-width=".5"/><polyline points="83.62 81.69 77.51 87.8 77.09 90.83 86.28 82.05" fill="none" stroke="#231f20" stroke-linecap="round" stroke-linejoin="round" stroke-width=".5"/><polyline points="78.42 81.09 78.02 84.02 80.92 81.28" fill="none" stroke="#231f20" stroke-linecap="round" stroke-linejoin="round" stroke-width=".5"/><polyline points="108.18 48.02 93.08 65.97 93.12 67.94" fill="none" stroke="#231f20" stroke-linecap="round" stroke-linejoin="round" stroke-width=".5"/><line x1="93.94" y1="68.12" x2="111.04" y2="48.32" fill="none" stroke="#231f20" stroke-linecap="round" stroke-linejoin="round" stroke-width=".5"/><polyline points="96.79 68.57 101.43 63.63 113.93 48.54" fill="none" stroke="#231f20" stroke-linecap="round" stroke-linejoin="round" stroke-width=".5"/><polyline points="99.5 68.86 104.17 63.97 115.41 50.39" fill="none" stroke="#231f20" stroke-linecap="round" stroke-linejoin="round" stroke-width=".5"/><polyline points="102.39 69.2 107.03 64.15 115.49 54.1" fill="none" stroke="#231f20" stroke-linecap="round" stroke-linejoin="round" stroke-width=".5"/><polyline points="104.92 69.38 109.81 64.49 115.63 57.55" fill="none" stroke="#231f20" stroke-linecap="round" stroke-linejoin="round" stroke-width=".5"/><polyline points="107.85 69.79 112.85 64.82 115.63 61.26" fill="none" stroke="#231f20" stroke-linecap="round" stroke-linejoin="round" stroke-width=".5"/><line x1="111.93" y1="68.72" x2="115.37" y2="65.3" fill="none" stroke="#231f20" stroke-linecap="round" stroke-linejoin="round" stroke-width=".5"/><polyline points="159.61 52.92 146.25 67.23 143.23 66.95 156.55 52.64" fill="none" stroke="#231f20" stroke-linecap="round" stroke-linejoin="round" stroke-width=".5"/><polyline points="150.28 52 137.17 66.37 140.15 66.65 153.32 52.39" fill="none" stroke="#231f20" stroke-linecap="round" stroke-linejoin="round" stroke-width=".5"/><polyline points="144.16 51.46 131 65.78 134.08 66.07 147.1 51.85" fill="none" stroke="#231f20" stroke-linecap="round" stroke-linejoin="round" stroke-width=".5"/><polyline points="137.94 50.83 128.28 61.69 128.7 64.78 140.93 51.22" fill="none" stroke="#231f20" stroke-linecap="round" stroke-linejoin="round" stroke-width=".5"/><polyline points="131.72 50.34 127.39 55.08 127.85 58.51 134.91 50.68" fill="none" stroke="#231f20" stroke-linecap="round" stroke-linejoin="round" stroke-width=".5"/><polyline points="126.7 50.05 126.98 52.06 128.78 50.09" fill="none" stroke="#231f20" stroke-linecap="round" stroke-linejoin="round" stroke-width=".5"/><polyline points="144.65 72.27 147.83 68.6 162.97 53.13" fill="none" stroke="#231f20" stroke-linecap="round" stroke-linejoin="round" stroke-width=".5"/><line x1="154.4" y1="65.86" x2="166" y2="53.47" fill="none" stroke="#231f20" stroke-linecap="round" stroke-linejoin="round" stroke-width=".5"/><line x1="160.71" y1="62.82" x2="169.48" y2="53.86" fill="none" stroke="#231f20" stroke-linecap="round" stroke-linejoin="round" stroke-width=".5"/><line x1="166.54" y1="60.13" x2="172.71" y2="54.11" fill="none" stroke="#231f20" stroke-linecap="round" stroke-linejoin="round" stroke-width=".5"/><line x1="173.15" y1="56.95" x2="173.15" y2="54.16" fill="none" stroke="#231f20" stroke-linecap="round" stroke-linejoin="round" stroke-width=".5"/><polyline points="137.23 100.18 135.6 99.97 146.36 89.82" fill="none" stroke="#231f20" stroke-linecap="round" stroke-linejoin="round" stroke-width=".5"/><polyline points="140.48 89.09 129.55 99.18 132.2 99.52 143.28 89.37" fill="none" stroke="#231f20" stroke-linecap="round" stroke-linejoin="round" stroke-width=".5"/><polyline points="134.26 88.25 127.49 94.47 127.12 97.6 137.23 88.76" fill="none" stroke="#231f20" stroke-linecap="round" stroke-linejoin="round" stroke-width=".5"/><polyline points="128.27 87.75 127.94 90.61 131.18 87.92" fill="none" stroke="#231f20" stroke-linecap="round" stroke-linejoin="round" stroke-width=".5"/><line x1="141.32" y1="97.66" x2="149.27" y2="90.21" fill="none" stroke="#231f20" stroke-linecap="round" stroke-linejoin="round" stroke-width=".5"/><polyline points="289.37 64.96 269.41 80.67 265.93 80.34 285.5 64.45" fill="none" stroke="#231f20" stroke-linecap="round" stroke-linejoin="round" stroke-width=".5"/><polyline points="277.3 63.81 258.22 79.61 261.9 79.96 281.25 64.13" fill="none" stroke="#231f20" stroke-linecap="round" stroke-linejoin="round" stroke-width=".5"/><polyline points="269.63 63.02 250.64 78.89 254.38 79.24 273.27 63.38" fill="none" stroke="#231f20" stroke-linecap="round" stroke-linejoin="round" stroke-width=".5"/><polyline points="261.75 62.31 247.77 74 247.81 76.95 248.18 77.2 265.53 62.7" fill="none" stroke="#231f20" stroke-linecap="round" stroke-linejoin="round" stroke-width=".5"/><polyline points="254.2 61.63 247.67 67.02 247.72 70.69 257.94 61.88" fill="none" stroke="#231f20" stroke-linecap="round" stroke-linejoin="round" stroke-width=".5"/><polyline points="247.58 61.01 247.62 63.63 250.31 61.24" fill="none" stroke="#231f20" stroke-linecap="round" stroke-linejoin="round" stroke-width=".5"/><polyline points="267.37 85.96 272.26 82.13 293.51 65.25" fill="none" stroke="#231f20" stroke-linecap="round" stroke-linejoin="round" stroke-width=".5"/><polyline points="268.85 88.36 275.75 82.63 297.38 65.68" fill="none" stroke="#231f20" stroke-linecap="round" stroke-linejoin="round" stroke-width=".5"/><polyline points="272.76 88.74 279.87 83.01 301.59 66.05" fill="none" stroke="#231f20" stroke-linecap="round" stroke-linejoin="round" stroke-width=".5"/><polyline points="276.25 89.03 283.49 83.39 305.71 66.31" fill="none" stroke="#231f20" stroke-linecap="round" stroke-linejoin="round" stroke-width=".5"/><polyline points="280.38 89.66 287.91 83.77 309.2 67.4 309.5 67.57 309.5 70.43 291.45 84.23 283.95 90.17" fill="none" stroke="#231f20" stroke-linecap="round" stroke-linejoin="round" stroke-width=".5"/><polyline points="296.12 91.3 302.17 86.86 302.26 90.04 299.78 91.89" fill="none" stroke="#231f20" stroke-linecap="round" stroke-linejoin="round" stroke-width=".5"/><polygon points="308.57 85.16 308.78 82.01 305.09 84.72 308.57 85.16" fill="none" stroke="#231f20" stroke-linecap="round" stroke-linejoin="round" stroke-width=".5"/><polyline points="291.95 91.05 299.4 85.12 309.04 77.88 309.25 74.72 295.74 84.65 288.08 90.5" fill="none" stroke="#231f20" stroke-linecap="round" stroke-linejoin="round" stroke-width=".5"/><polyline points="246.44 102.88 246.09 106.36 250.18 103.22" fill="none" stroke="#231f20" stroke-linecap="round" stroke-linejoin="round" stroke-width=".5"/><polyline points="253.97 103.73 245.67 110.42 245.31 113.98 257.51 104.14" fill="none" stroke="#231f20" stroke-linecap="round" stroke-linejoin="round" stroke-width=".5"/><polyline points="261.42 104.65 248.09 115.9 251.41 116.36 264.92 105.12" fill="none" stroke="#231f20" stroke-linecap="round" stroke-linejoin="round" stroke-width=".5"/><polyline points="268.97 105.67 255.36 116.92 258.98 117.42 272.51 106.11" fill="none" stroke="#231f20" stroke-linecap="round" stroke-linejoin="round" stroke-width=".5"/><polyline points="276.64 106.65 263.03 117.99 266.28 118.44 280.18 107.09" fill="none" stroke="#231f20" stroke-linecap="round" stroke-linejoin="round" stroke-width=".5"/><polyline points="284.38 107.64 270.48 119.03 273.94 119.51 288.21 108.11" fill="none" stroke="#231f20" stroke-linecap="round" stroke-linejoin="round" stroke-width=".5"/><polyline points="292.3 108.7 278.14 120.1 281.69 120.6 296.09 109.1" fill="none" stroke="#231f20" stroke-linecap="round" stroke-linejoin="round" stroke-width=".5"/><polyline points="300.18 109.72 286.05 121.21 289.63 121.71 304.05 110.16" fill="none" stroke="#231f20" stroke-linecap="round" stroke-linejoin="round" stroke-width=".5"/><polygon points="306.14 115.89 306.45 112.19 293.79 122.29 297.48 122.8 306.14 115.89" fill="none" stroke="#231f20" stroke-linecap="round" stroke-linejoin="round" stroke-width=".5"/><polygon points="305.78 120.27 305.48 123.92 301.93 123.43 305.78 120.27" fill="none" stroke="#231f20" stroke-linecap="round" stroke-linejoin="round" stroke-width=".5"/><polygon points="324.7 33.66 320.3 39.46 94.32 23.82 109.96 20.22 324.7 33.66" fill="none" stroke="#231f20" stroke-linecap="round" stroke-linejoin="round" stroke-width=".5"/><polyline points="337.95 16.21 163.87 7.81 151.97 10.55" fill="none" stroke="#231f20" stroke-linecap="round" stroke-linejoin="round" stroke-width=".5"/><path d="m16.86,51.24c-.78,1.95-2.06.84-2.06.84l-.21-4.23s1.16.28,1.88-.45" fill="none" stroke="#231f20" stroke-linecap="round" stroke-linejoin="round" stroke-width=".5"/><path d="m6.23,45.1l-.43-5.89,2.58.26.07,1.05,4.22.28v-1.07s1.5.09,1.5.09l.25,5.02s1.31.11,1.93-.56" fill="none" stroke="#231f20" stroke-linecap="round" stroke-linejoin="round" stroke-width=".5"/><line x1="7.12" y1="57.31" x2="6.57" y2="49.83" fill="none" stroke="#231f20" stroke-linecap="round" stroke-linejoin="round" stroke-width=".5"/><line x1="8.13" y1="71.38" x2="8.07" y2="70.52" fill="none" stroke="#231f20" stroke-linecap="round" stroke-linejoin="round" stroke-width=".5"/><line x1="9.2" y1="86.06" x2="9.02" y2="83.57" fill="none" stroke="#231f20" stroke-linecap="round" stroke-linejoin="round" stroke-width=".5"/><polyline points="18.69 91.66 12.13 91.11 12.15 91.8 9.6 91.65 9.53 90.68" fill="none" stroke="#231f20" stroke-linecap="round" stroke-linejoin="round" stroke-width=".5"/><polygon points="2.26 57.74 9.85 58.64 11.43 58.12 4.43 57.25 2.26 57.74" fill="none" stroke="#231f20" stroke-linecap="round" stroke-linejoin="round" stroke-width=".5"/><line x1="3.04" y1="70.94" x2="2.26" y2="57.74" fill="none" stroke="#231f20" stroke-linecap="round" stroke-linejoin="round" stroke-width=".5"/><line x1="9.85" y1="58.64" x2="10.85" y2="73.19" fill="none" stroke="#231f20" stroke-linecap="round" stroke-linejoin="round" stroke-width=".5"/><path d="m11.43,58.12l1.35.25,8.13-2.41s2.03.16,1.82-1.12" fill="none" stroke="#231f20" stroke-linecap="round" stroke-linejoin="round" stroke-width=".5"/><line x1="21.12" y1="59.03" x2="20.91" y2="55.96" fill="none" stroke="#231f20" stroke-linecap="round" stroke-linejoin="round" stroke-width=".5"/><line x1="2.99" y1="69.57" x2="10.6" y2="70.75" fill="none" stroke="#231f20" stroke-linecap="round" stroke-linejoin="round" stroke-width=".5"/><path d="m13.85,58.16l.69,15.74.09,2.14-1.26.53.21,3.38,1.2-.56.13,3.16-.74,1.07-1.21-.14-8.09-.93-4.37-5.54-.23-5.41,7.26,1.08c-.09,1.16,1.16,1.45,1.16,1.45l3.81.65.47,8.7" fill="none" stroke="#231f20" stroke-linecap="round" stroke-linejoin="round" stroke-width=".5"/><line x1="12.68" y1="58.38" x2="13.36" y2="73.77" fill="none" stroke="#231f20" stroke-linecap="round" stroke-linejoin="round" stroke-width=".5"/><ellipse cx="4.12" cy="59.71" rx=".63" ry=".78" transform="translate(-25.97 7.97) rotate(-26.23)" fill="none" stroke="#231f20" stroke-linecap="round" stroke-linejoin="round" stroke-width=".5"/><ellipse cx="4.24" cy="62.42" rx=".63" ry=".78" transform="translate(-27.15 8.3) rotate(-26.23)" fill="none" stroke="#231f20" stroke-linecap="round" stroke-linejoin="round" stroke-width=".5"/><ellipse cx="4.36" cy="65.13" rx=".63" ry=".78" transform="translate(-28.33 8.63) rotate(-26.23)" fill="none" stroke="#231f20" stroke-linecap="round" stroke-linejoin="round" stroke-width=".5"/><ellipse cx="4.49" cy="67.84" rx=".63" ry=".78" transform="translate(-29.52 8.97) rotate(-26.23)" fill="none" stroke="#231f20" stroke-linecap="round" stroke-linejoin="round" stroke-width=".5"/><line x1="17.4" y1="60.18" x2="16.06" y2="39.37" fill="none" stroke="#231f20" stroke-linecap="round" stroke-linejoin="round" stroke-width=".5"/><line x1="19.4" y1="91.44" x2="18.22" y2="73.01" fill="none" stroke="#231f20" stroke-linecap="round" stroke-linejoin="round" stroke-width=".5"/><ellipse cx="9.98" cy="52.95" rx="2.22" ry="2.85" transform="translate(-6.31 1.59) rotate(-6.93)" fill="none" stroke="#231f20" stroke-linecap="round" stroke-linejoin="round" stroke-width=".5"/><polyline points="18.48 77.48 21.05 78.07 24.21 76.89 24.13 76.01 22.45 76.01 22.3 73.73" fill="none" stroke="#231f20" stroke-linecap="round" stroke-linejoin="round" stroke-width=".5"/><line x1="7.51" y1="72.69" x2="9.51" y2="71.92" fill="none" stroke="#231f20" stroke-linecap="round" stroke-linejoin="round" stroke-width=".5"/><path d="m12.48,74.78l2.01-.76-3.81-.65s-1.25-.28-1.16-1.45l-7.26-1.08-2.01.76" fill="none" stroke="#231f20" stroke-linecap="round" stroke-linejoin="round" stroke-width=".5"/><ellipse cx="320.56" cy="86.17" rx="4.34" ry="4.06" fill="none" stroke="#231f20" stroke-linecap="round" stroke-linejoin="round" stroke-width=".5"/><ellipse cx="318.1" cy="121.94" rx="4.34" ry="4.06" fill="none" stroke="#231f20" stroke-linecap="round" stroke-linejoin="round" stroke-width=".5"/><path d="m313.81,77.74l1.64-2.39c.54-.49,1.29-.79,2.11-.79,1.65,0,2.98,1.21,2.98,2.7l-1.52,3.43" fill="none" stroke="#231f20" stroke-linecap="round" stroke-linejoin="round" stroke-width=".5"/><path d="m313.63,80.32c-.17-.34-.26-.71-.26-1.11,0-1.49,1.34-2.7,2.98-2.7s2.98,1.21,2.98,2.7c0,1.22-.9,2.26-2.14,2.59" fill="none" stroke="#231f20" stroke-linecap="round" stroke-linejoin="round" stroke-width=".5"/><ellipse cx="315.66" cy="80.63" rx="1.88" ry="1.7" fill="none" stroke="#231f20" stroke-linecap="round" stroke-linejoin="round" stroke-width=".5"/><path d="m309.81,132.36l1.41-2.68c.48-.57,1.16-.95,1.94-1.02,1.54-.13,2.85,1.04,2.93,2.63l-1.25,3.78" fill="none" stroke="#231f20" stroke-linecap="round" stroke-linejoin="round" stroke-width=".5"/><path d="m309.77,135.12c-.17-.35-.28-.74-.3-1.16-.08-1.59,1.11-2.98,2.65-3.11s2.85,1.04,2.93,2.63c.06,1.3-.73,2.48-1.87,2.93" fill="none" stroke="#231f20" stroke-linecap="round" stroke-linejoin="round" stroke-width=".5"/><ellipse cx="311.69" cy="135.29" rx="1.83" ry="1.75" transform="translate(62.42 366.2) rotate(-66.27)" fill="none" stroke="#231f20" stroke-linecap="round" stroke-linejoin="round" stroke-width=".5"/><ellipse cx="323.88" cy="92.2" rx="1.24" ry="1.52" transform="translate(186.52 399.67) rotate(-81.82)" fill="none" stroke="#231f20" stroke-linecap="round" stroke-linejoin="round" stroke-width=".5"/><ellipse cx="319.61" cy="96.18" rx="1.24" ry="1.52" transform="translate(178.92 398.85) rotate(-81.82)" fill="none" stroke="#231f20" stroke-linecap="round" stroke-linejoin="round" stroke-width=".5"/><ellipse cx="316.07" cy="91.31" rx="1.24" ry="1.52" transform="translate(180.71 391.16) rotate(-81.82)" fill="none" stroke="#231f20" stroke-linecap="round" stroke-linejoin="round" stroke-width=".5"/><ellipse cx="2.95" cy="48.13" rx=".98" ry="1.29" transform="translate(-4.8 .54) rotate(-5.74)" fill="none" stroke="#231f20" stroke-linecap="round" stroke-linejoin="round" stroke-width=".5"/><path d="m2.82,46.85l.91-.15c.54-.05,1.03.48,1.1,1.19.04.44-.09.85-.32,1.11l-1.05.34" fill="none" stroke="#231f20" stroke-linecap="round" stroke-linejoin="round" stroke-width=".5"/><path d="m3.73,46.7l1.78-1.26c.8-.08,1.55.78,1.66,1.93s-.44,2.14-1.24,2.22l-1.41-.59" fill="none" stroke="#231f20" stroke-linecap="round" stroke-linejoin="round" stroke-width=".5"/><path d="m5.51,45.44l4.77-1.06c.8-.08,1.55.78,1.66,1.93s-.44,2.14-1.24,2.22l-4.6,1.05" fill="none" stroke="#231f20" stroke-linecap="round" stroke-linejoin="round" stroke-width=".5"/><ellipse cx="6.18" cy="89.09" rx=".96" ry="1.32" transform="translate(-23.58 4.89) rotate(-15.5)" fill="none" stroke="#231f20" stroke-linecap="round" stroke-linejoin="round" stroke-width=".5"/><path d="m5.9,87.8l.88-.21c.52-.09,1.08.41,1.23,1.12.1.44.02.86-.18,1.14l-1,.42" fill="none" stroke="#231f20" stroke-linecap="round" stroke-linejoin="round" stroke-width=".5"/><path d="m6.78,87.59l1.6-1.39c.78-.13,1.62.68,1.87,1.83s-.17,2.18-.95,2.32l-1.47-.5" fill="none" stroke="#231f20" stroke-linecap="round" stroke-linejoin="round" stroke-width=".5"/><path d="m8.38,86.2l4.58-1.38c.78-.13,1.62.68,1.87,1.83s-.17,2.18-.95,2.32l-4.41,1.37" fill="none" stroke="#231f20" stroke-linecap="round" stroke-linejoin="round" stroke-width=".5"/><polygon points="170.7 153.71 158.28 162.22 163.74 163.22 140.76 169.18 140.19 159.21 146.01 160.24 158.64 151.56 170.7 153.71" fill="#231f20" stroke-width="0"/><polygon points="140.19 159.21 140.76 169.18 163.74 163.22 158.28 162.22 170.7 153.71 158.64 151.56 146.01 160.24 140.19 159.21" fill="none" stroke="#fff" stroke-linecap="round" stroke-linejoin="round" stroke-width="4"/><polygon points="160.28 150.27 172.62 141.71 167.2 140.7 190.14 134.75 190.71 144.72 184.98 143.69 172.25 152.4 160.28 150.27" fill="#231f20" stroke-width="0"/><polyline points="167.16 140.71 167.2 140.7 172.62 141.71 160.28 150.27 172.25 152.4 184.98 143.69 190.71 144.72" fill="none" stroke="#fff" stroke-linecap="round" stroke-linejoin="round" stroke-width="4"/><polyline points="190.71 144.72 190.14 134.75 167.2 140.7" fill="none" stroke="#fff" stroke-linecap="round" stroke-linejoin="round" stroke-width="4"/><polygon points="170.7 153.71 158.28 162.22 163.74 163.22 140.76 169.18 140.19 159.21 146.01 160.24 158.64 151.56 170.7 153.71" fill="#231f20" stroke-width="0"/><polygon points="160.28 150.27 172.62 141.71 167.2 140.7 190.14 134.75 190.71 144.72 184.98 143.69 172.25 152.4 160.28 150.27" fill="#231f20" stroke-width="0"/><polygon points="123.77 121.03 132.78 114.78 128.83 114.04 145.58 109.69 145.99 116.97 141.81 116.22 132.51 122.58 123.77 121.03" fill="#231f20" stroke-width="0"/><polyline points="128.79 114.04 128.83 114.04 132.78 114.78 123.77 121.03 132.51 122.58 141.81 116.22 145.99 116.97" fill="none" stroke="#fff" stroke-miterlimit="10" stroke-width="3"/><polyline points="145.99 116.97 145.58 109.69 128.83 114.04" fill="none" stroke="#fff" stroke-miterlimit="10" stroke-width="3"/><polygon points="123.77 121.03 132.78 114.78 128.83 114.04 145.58 109.69 145.99 116.97 141.81 116.22 132.51 122.58 123.77 121.03" fill="#231f20" stroke-width="0"/><path d="m121.38,125.89c0,7.59-6.25,13.75-13.95,13.75s-13.95-6.15-13.95-13.75,6.25-13.75,13.95-13.75,13.95,6.16,13.95,13.75" fill="#221f1f" stroke="#fff" stroke-miterlimit="10" stroke-width="1.5"/><path d="m109.02,132.93h-1.85v-11.76c-.44.42-1.03.85-1.75,1.27s-1.37.74-1.94.95v-1.78c1.03-.49,1.93-1.07,2.71-1.76s1.32-1.36,1.64-2.01h1.19v15.09Z" fill="#fff" stroke-width="0"/></svg>