<?xml version="1.0" encoding="UTF-8"?><svg xmlns="http://www.w3.org/2000/svg" width="5.444in" height="2.006in" xmlns:xlink="http://www.w3.org/1999/xlink" viewBox="0 0 391.977 144.431"><defs><clipPath id="b"><rect x="1.845" y="2.965" width="378" height="63.585" fill="none"/></clipPath><clipPath id="d"><rect x="46.182" y="73.602" width="139.898" height="17.484" fill="none"/></clipPath></defs><g id="a"><g clip-path="url(#b)"><rect x="-.211" y="-4.538" width="386.948" height="67.979" fill="#1a1a1a"/><path d="M386.774,62.196H-.828v2.863h387.601v-2.863Z" fill="#e6e6e6" fill-rule="evenodd"/><path d="M386.52-4.148H-.57v61.613h1.992v1.618h385.099V-4.148ZM-.996,61.325h387.815v-2.241H-.996v2.241Z" fill="#e6e6e6" fill-rule="evenodd"/><path d="M26.695,59.084h182.016v-1.618H26.695v1.618Z" fill="#d9d9d9" fill-rule="evenodd"/><path d="M33.791,14.14h-6.225c-.498,0-.871.373-.871.872v5.602h1.992v20.791h-1.992v3.112c0,.622-.498,1.12-1.121,1.12h-1.992c-.622,0-1.121.498-1.121,1.121v5.602c0,.622.498,1.12,1.121,1.12h1.992c.622,0,1.121.498,1.121,1.121v2.863h182.016v-2.863c0-.622.498-1.121,1.121-1.121h1.992c.623,0,1.121-.498,1.121-1.12v-5.602c0-.622-.498-1.121-1.121-1.121h-1.992c-.622,0-1.121-.498-1.121-1.12v-3.112h-1.867v-20.791h1.867v-5.602c0-.498-.373-.872-.747-.872h-6.225v1.992H33.791v-1.992" fill="#1a1a1a" fill-rule="evenodd"/><path d="M28.438,47.132v-3.486c0-.498-.373-.872-.871-.872h-.872v1.743c0,.623-.498,1.121-1.121,1.121h-1.992c-.622,0-1.121.498-1.121,1.121v5.602c0,.623.498,1.121,1.121,1.121h1.992c.623,0,1.121.498,1.121,1.121v2.241h1.743v-4.855h-4.482v-4.855h4.482M207.092,51.988v4.855h1.618v-2.241c0-.623.498-1.121,1.121-1.121h1.992c.622,0,1.121-.498,1.121-1.121v-5.602c0-.623-.498-1.121-1.121-1.121h-1.992c-.623,0-1.121-.498-1.121-1.121v-1.743h-.747c-.498,0-.872.373-.872.872v3.486h4.482v4.855h-4.482Z" fill="#bfbfbf" fill-rule="evenodd"/><path d="M280.671,38.666l3.361-3.486c.373-.373.373-.996,0-1.369l-3.361-3.361c-.373-.373-.996-.373-1.369,0l-3.361,3.361c-.373.373-.373.996,0,1.369l3.361,3.486c.373.373.996.373,1.369,0ZM280.671,26.092l3.361-3.361c.373-.373.373-.996,0-1.369l-3.361-3.486c-.373-.373-.996-.373-1.369,0l-3.361,3.486c-.373.373-.373.996,0,1.369l3.361,3.361c.373.373.996.373,1.369,0ZM280.671,13.642l3.361-3.486c.373-.373.373-.996,0-1.369l-3.361-3.361c-.373-.373-.996-.373-1.369,0l-3.361,3.361c-.373.373-.373.996,0,1.369l3.361,3.486c.373.373.996.373,1.369,0ZM380.767,38.666l3.486-3.486c.374-.373.374-.996,0-1.369l-3.486-3.361c-.373-.373-.996-.373-1.369,0l-3.362,3.361c-.373.373-.373.996,0,1.369l3.362,3.486c.373.373.996.373,1.369,0ZM380.767,13.642l3.486-3.486c.374-.373.374-.996,0-1.369l-3.486-3.361c-.373-.373-.996-.373-1.369,0l-3.362,3.361c-.373.373-.373.996,0,1.369l3.362,3.486c.373.373.996.373,1.369,0ZM380.767,26.092l3.486-3.361c.374-.373.374-.996,0-1.369l-3.486-3.486c-.373-.373-.996-.373-1.369,0l-3.362,3.486c-.373.373-.373.996,0,1.369l3.362,3.361c.373.373.996.373,1.369,0ZM380.767,51.116l3.486-3.361c.374-.373.374-.996,0-1.369l-3.486-3.486c-.373-.373-.996-.373-1.369,0l-3.362,3.486c-.373.373-.373.996,0,1.369l3.362,3.361c.373.373.996.373,1.369,0ZM374.542,19.867l3.361-3.486c.374-.373.374-.872,0-1.245l-3.361-3.486c-.373-.373-.996-.373-1.369,0l-3.362,3.486c-.373.373-.373.872,0,1.245l3.362,3.486c.373.373.996.373,1.369,0ZM374.542,32.317l3.361-3.361c.374-.373.374-.996,0-1.369l-3.361-3.361c-.373-.373-.996-.373-1.369,0l-3.362,3.361c-.373.373-.373.996,0,1.369l3.362,3.361c.373.373.996.373,1.369,0ZM374.542,44.891l3.361-3.486c.374-.373.374-.996,0-1.369l-3.361-3.361c-.373-.373-.996-.373-1.369,0l-3.362,3.361c-.373.373-.373.996,0,1.369l3.362,3.486c.373.373.996.373,1.369,0ZM368.317,13.642l3.361-3.486c.374-.373.374-.996,0-1.369l-3.361-3.361c-.373-.373-.996-.373-1.369,0l-3.486,3.361c-.373.373-.373.996,0,1.369l3.486,3.486c.373.373.996.373,1.369,0ZM368.317,38.666l3.361-3.486c.374-.373.374-.996,0-1.369l-3.361-3.361c-.373-.373-.996-.373-1.369,0l-3.486,3.361c-.373.373-.373.996,0,1.369l3.486,3.486c.373.373.996.373,1.369,0ZM368.317,26.092l3.361-3.361c.374-.373.374-.996,0-1.369l-3.361-3.486c-.373-.373-.996-.373-1.369,0l-3.486,3.486c-.373.373-.373.996,0,1.369l3.486,3.361c.373.373.996.373,1.369,0ZM374.542,7.293l3.361-3.361c.374-.373.374-.996,0-1.369l-3.361-3.361c-.373-.373-.996-.373-1.369,0l-3.362,3.361c-.373.373-.373.996,0,1.369l3.362,3.361c.373.373.996.373,1.369,0ZM361.968,32.317l3.486-3.361c.374-.373.374-.996,0-1.369l-3.486-3.361c-.373-.373-.996-.373-1.369,0l-3.361,3.361c-.373.373-.373.996,0,1.369l3.361,3.361c.374.373.996.373,1.369,0ZM361.968,19.867l3.486-3.486c.374-.373.374-.872,0-1.245l-3.486-3.486c-.373-.373-.996-.373-1.369,0l-3.361,3.486c-.373.373-.373.872,0,1.245l3.361,3.486c.374.373.996.373,1.369,0ZM361.968,44.891l3.486-3.486c.374-.373.374-.996,0-1.369l-3.486-3.361c-.373-.373-.996-.373-1.369,0l-3.361,3.361c-.373.373-.373.996,0,1.369l3.361,3.486c.374.373.996.373,1.369,0ZM355.743,38.666l3.361-3.486c.374-.373.374-.996,0-1.369l-3.361-3.361c-.373-.373-.996-.373-1.369,0l-3.361,3.361c-.373.373-.373.996,0,1.369l3.361,3.486c.374.373.996.373,1.369,0ZM355.743,26.092l3.361-3.361c.374-.373.374-.996,0-1.369l-3.361-3.486c-.373-.373-.996-.373-1.369,0l-3.361,3.486c-.373.373-.373.996,0,1.369l3.361,3.361c.374.373.996.373,1.369,0ZM355.743,13.642l3.361-3.486c.374-.373.374-.996,0-1.369l-3.361-3.361c-.373-.373-.996-.373-1.369,0l-3.361,3.361c-.373.373-.373.996,0,1.369l3.361,3.486c.374.373.996.373,1.369,0ZM361.968,7.293l3.486-3.361c.374-.373.374-.996,0-1.369l-3.486-3.361c-.373-.373-.996-.373-1.369,0l-3.361,3.361c-.373.373-.373.996,0,1.369l3.361,3.361c.374.373.996.373,1.369,0ZM349.518,32.317l3.361-3.361c.374-.373.374-.996,0-1.369l-3.361-3.361c-.373-.373-.996-.373-1.369,0l-3.486,3.361c-.249.373-.249.996,0,1.369l3.486,3.361c.374.373.996.373,1.369,0ZM349.518,19.867l3.361-3.486c.374-.373.374-.872,0-1.245l-3.361-3.486c-.373-.373-.996-.373-1.369,0l-3.486,3.486c-.249.373-.249.872,0,1.245l3.486,3.486c.374.373.996.373,1.369,0ZM349.518,44.891l3.361-3.486c.374-.373.374-.996,0-1.369l-3.361-3.361c-.373-.373-.996-.373-1.369,0l-3.486,3.361c-.249.373-.249.996,0,1.369l3.486,3.486c.374.373.996.373,1.369,0ZM343.293,13.642l3.361-3.486c.374-.373.374-.996,0-1.369l-3.361-3.361c-.373-.373-.996-.373-1.369,0l-3.486,3.361c-.373.373-.373.996,0,1.369l3.486,3.486c.374.373.996.373,1.369,0ZM343.293,26.092l3.361-3.361c.374-.373.374-.996,0-1.369l-3.361-3.486c-.373-.373-.996-.373-1.369,0l-3.486,3.486c-.373.373-.373.996,0,1.369l3.486,3.361c.374.373.996.373,1.369,0ZM343.293,38.666l3.361-3.486c.374-.373.374-.996,0-1.369l-3.361-3.361c-.373-.373-.996-.373-1.369,0l-3.486,3.361c-.373.373-.373.996,0,1.369l3.486,3.486c.374.373.996.373,1.369,0ZM349.518,7.293l3.361-3.361c.374-.373.374-.996,0-1.369l-3.361-3.361c-.373-.373-.996-.373-1.369,0l-3.486,3.361c-.249.373-.249.996,0,1.369l3.486,3.361c.374.373.996.373,1.369,0ZM336.944,32.317l3.486-3.361c.374-.373.374-.996,0-1.369l-3.486-3.361c-.373-.373-.996-.373-1.369,0l-3.361,3.361c-.373.373-.373.996,0,1.369l3.361,3.361c.374.373.996.373,1.369,0ZM336.944,44.891l3.486-3.486c.374-.373.374-.996,0-1.369l-3.486-3.361c-.373-.373-.996-.373-1.369,0l-3.361,3.361c-.373.373-.373.996,0,1.369l3.361,3.486c.374.373.996.373,1.369,0ZM330.719,13.642l3.361-3.486c.374-.373.374-.996,0-1.369l-3.361-3.361c-.373-.373-.996-.373-1.369,0l-3.361,3.361c-.373.373-.373.996,0,1.369l3.361,3.486c.374.373.996.373,1.369,0ZM324.494,19.867l3.361-3.486c.374-.373.374-.872,0-1.245l-3.361-3.486c-.373-.373-.996-.373-1.369,0l-3.486,3.486c-.373.373-.373.872,0,1.245l3.486,3.486c.374.373.996.373,1.369,0ZM324.494,7.293l3.361-3.361c.374-.373.374-.996,0-1.369l-3.361-3.361c-.373-.373-.996-.373-1.369,0l-3.486,3.361c-.373.373-.373.996,0,1.369l3.486,3.361c.374.373.996.373,1.369,0ZM318.269,13.642l3.361-3.486c.374-.373.374-.996,0-1.369l-3.361-3.361c-.373-.373-.996-.373-1.369,0l-3.486,3.361c-.373.373-.373.996,0,1.369l3.486,3.486c.374.373.996.373,1.369,0ZM311.92,19.867l3.486-3.486c.374-.373.374-.872,0-1.245l-3.486-3.486c-.373-.373-.996-.373-1.369,0l-3.361,3.486c-.373.373-.373.872,0,1.245l3.361,3.486c.373.373.996.373,1.369,0ZM311.92,7.293l3.486-3.361c.374-.373.374-.996,0-1.369l-3.486-3.361c-.373-.373-.996-.373-1.369,0l-3.361,3.361c-.373.373-.373.996,0,1.369l3.361,3.361c.373.373.996.373,1.369,0ZM305.695,13.642l3.361-3.486c.373-.373.373-.996,0-1.369l-3.361-3.361c-.373-.373-.996-.373-1.369,0l-3.361,3.361c-.373.373-.373.996,0,1.369l3.361,3.486c.373.373.996.373,1.369,0ZM330.719,38.666l3.361-3.486c.374-.373.374-.996,0-1.369l-3.361-3.361c-.373-.373-.996-.373-1.369,0l-3.361,3.361c-.373.373-.373.996,0,1.369l3.361,3.486c.374.373.996.373,1.369,0ZM324.494,44.891l3.361-3.486c.374-.373.374-.996,0-1.369l-3.361-3.361c-.373-.373-.996-.373-1.369,0l-3.486,3.361c-.373.373-.373.996,0,1.369l3.486,3.486c.374.373.996.373,1.369,0ZM318.269,38.666l3.361-3.486c.374-.373.374-.996,0-1.369l-3.361-3.361c-.373-.373-.996-.373-1.369,0l-3.486,3.361c-.373.373-.373.996,0,1.369l3.486,3.486c.374.373.996.373,1.369,0ZM318.269,51.116l3.361-3.361c.374-.373.374-.996,0-1.369l-3.361-3.486c-.373-.373-.996-.373-1.369,0l-3.486,3.486c-.373.373-.373.996,0,1.369l3.486,3.361c.374.373.996.373,1.369,0ZM311.92,32.317l3.486-3.361c.374-.373.374-.996,0-1.369l-3.486-3.361c-.373-.373-.996-.373-1.369,0l-3.361,3.361c-.373.373-.373.996,0,1.369l3.361,3.361c.373.373.996.373,1.369,0ZM305.695,26.092l3.361-3.361c.373-.373.373-.996,0-1.369l-3.361-3.486c-.373-.373-.996-.373-1.369,0l-3.361,3.486c-.373.373-.373.996,0,1.369l3.361,3.361c.373.373.996.373,1.369,0ZM308.434,42.277h5.727c.249,0,.498-.125.622-.249l.622-.622c.374-.373.374-.996,0-1.369l-3.486-3.361c-.373-.373-.996-.373-1.369,0l-3.361,3.361c-.373.373-.373.996,0,1.369l.498.622c.249.124.498.249.747.249ZM305.695,38.666l3.361-3.486c.373-.373.373-.996,0-1.369l-3.361-3.361c-.373-.373-.996-.373-1.369,0l-3.361,3.361c-.373.373-.373.996,0,1.369l3.361,3.486c.373.373.996.373,1.369,0ZM330.719,26.092l3.361-3.361c.374-.373.374-.996,0-1.369l-3.361-3.486c-.373-.373-.996-.373-1.369,0l-3.361,3.486c-.373.373-.373.996,0,1.369l3.361,3.361c.374.373.996.373,1.369,0ZM324.494,32.317l3.361-3.361c.374-.373.374-.996,0-1.369l-3.361-3.361c-.373-.373-.996-.373-1.369,0l-3.486,3.361c-.373.373-.373.996,0,1.369l3.486,3.361c.374.373.996.373,1.369,0ZM318.269,26.092l3.361-3.361c.374-.373.374-.996,0-1.369l-3.361-3.486c-.373-.373-.996-.373-1.369,0l-3.486,3.486c-.373.373-.373.996,0,1.369l3.486,3.361c.374.373.996.373,1.369,0ZM336.944,7.293l3.486-3.361c.374-.373.374-.996,0-1.369l-3.486-3.361c-.373-.373-.996-.373-1.369,0l-3.361,3.361c-.373.373-.373.996,0,1.369l3.361,3.361c.374.373.996.373,1.369,0ZM336.944,19.867l3.486-3.486c.374-.373.374-.872,0-1.245l-3.486-3.486c-.373-.373-.996-.373-1.369,0l-3.361,3.486c-.373.373-.373.872,0,1.245l3.361,3.486c.374.373.996.373,1.369,0ZM302.334,42.028l.498-.622c.373-.373.373-.996,0-1.369l-3.361-3.361c-.373-.373-.996-.373-1.369,0l-3.486,3.361c-.373.373-.373.996,0,1.369l.622.622c.124.124.374.249.623.249h5.727c.249,0,.498-.125.747-.249ZM299.47,19.867l3.361-3.486c.373-.373.373-.872,0-1.245l-3.361-3.486c-.373-.373-.996-.373-1.369,0l-3.486,3.486c-.373.373-.373.872,0,1.245l3.486,3.486c.373.373.996.373,1.369,0ZM299.47,32.317l3.361-3.361c.373-.373.373-.996,0-1.369l-3.361-3.361c-.373-.373-.996-.373-1.369,0l-3.486,3.361c-.373.373-.373.996,0,1.369l3.486,3.361c.373.373.996.373,1.369,0ZM293.121,13.642l3.486-3.486c.373-.373.373-.996,0-1.369l-3.486-3.361c-.373-.373-.872-.373-1.245,0l-3.486,3.361c-.373.373-.373.996,0,1.369l3.486,3.486c.373.373.872.373,1.245,0ZM293.121,38.666l3.486-3.486c.373-.373.373-.996,0-1.369l-3.486-3.361c-.373-.373-.872-.373-1.245,0l-3.486,3.361c-.373.373-.373.996,0,1.369l3.486,3.486c.373.373.872.373,1.245,0ZM299.47,7.293l3.361-3.361c.373-.373.373-.996,0-1.369l-3.361-3.361c-.373-.373-.996-.373-1.369,0l-3.486,3.361c-.373.373-.373.996,0,1.369l3.486,3.361c.373.373.996.373,1.369,0ZM293.121,26.092l3.486-3.361c.373-.373.373-.996,0-1.369l-3.486-3.486c-.373-.373-.872-.373-1.245,0l-3.486,3.486c-.373.373-.373.996,0,1.369l3.486,3.361c.373.373.872.373,1.245,0ZM286.896,32.317l3.486-3.361c.373-.373.373-.996,0-1.369l-3.486-3.361c-.373-.373-.996-.373-1.369,0l-3.361,3.361c-.373.373-.373.996,0,1.369l3.361,3.361c.373.373.996.373,1.369,0ZM286.896,7.293l3.486-3.361c.373-.373.373-.996,0-1.369l-3.486-3.361c-.373-.373-.996-.373-1.369,0l-3.361,3.361c-.373.373-.373.996,0,1.369l3.361,3.361c.373.373.996.373,1.369,0ZM286.896,19.867l3.486-3.486c.373-.373.373-.872,0-1.245l-3.486-3.486c-.373-.373-.996-.373-1.369,0l-3.361,3.486c-.373.373-.373.872,0,1.245l3.361,3.486c.373.373.996.373,1.369,0ZM289.759,42.028l.622-.622c.373-.373.373-.996,0-1.369l-3.486-3.361c-.373-.373-.996-.373-1.369,0l-3.361,3.361c-.373.373-.373.996,0,1.369l.498.622c.249.124.498.249.747.249h5.727c.249,0,.498-.125.623-.249Z" fill="#1a1a1a" fill-rule="evenodd"/><path d="M152.313,11.401h4.98c.374,0,.498-.124.747-.249l.871-.996c.374-.373.374-.996,0-1.369l-3.361-3.361c-.373-.373-.996-.373-1.369,0l-3.361,3.361c-.373.374-.373.996,0,1.369l.871.996c.124.124.374.249.622.249M149.325,7.293l3.361-3.362c.374-.373.374-.996,0-1.369l-3.361-3.361c-.373-.373-.996-.373-1.369,0l-3.486,3.361c-.374.374-.374.996,0,1.369l3.486,3.362c.374.373.996.373,1.369,0ZM139.863,11.401h4.98c.249,0,.498-.124.622-.249l.996-.996c.374-.373.374-.996,0-1.369l-3.486-3.361c-.373-.373-.996-.373-1.369,0l-3.361,3.361c-.374.374-.374.996,0,1.369l.871.996c.249.124.498.249.747.249ZM136.751,7.293l3.486-3.362c.374-.373.374-.996,0-1.369l-3.486-3.361c-.373-.373-.996-.373-1.369,0l-3.361,3.361c-.374.374-.374.996,0,1.369l3.361,3.362c.374.373.996.373,1.369,0ZM133.016,11.152l.871-.996c.374-.373.374-.996,0-1.369l-3.361-3.361c-.373-.373-.996-.373-1.369,0l-3.361,3.361c-.374.374-.374.996,0,1.369l.871.996c.124.124.374.249.622.249h4.98c.249,0,.498-.124.747-.249ZM124.301,7.293l3.361-3.362c.374-.373.374-.996,0-1.369l-3.361-3.361c-.373-.373-.996-.373-1.369,0l-3.486,3.361c-.374.374-.374.996,0,1.369l3.486,3.362c.374.373.996.373,1.369,0ZM114.839,11.401h4.98c.249,0,.498-.124.622-.249l.996-.996c.374-.373.374-.996,0-1.369l-3.486-3.361c-.374-.373-.996-.373-1.369,0l-3.361,3.361c-.374.374-.374.996,0,1.369l.871.996c.249.124.498.249.747.249ZM111.727,7.293l3.486-3.362c.374-.373.374-.996,0-1.369l-3.486-3.361c-.374-.373-.996-.373-1.369,0l-3.361,3.361c-.374.374-.374.996,0,1.369l3.361,3.362c.373.373.996.373,1.369,0ZM102.265,11.401h4.98c.249,0,.498-.124.747-.249l.871-.996c.373-.373.373-.996,0-1.369l-3.361-3.361c-.374-.373-.996-.373-1.369,0l-3.361,3.361c-.374.374-.374.996,0,1.369l.871.996c.124.124.373.249.622.249ZM99.277,7.293l3.361-3.362c.373-.373.373-.996,0-1.369l-3.361-3.361c-.374-.373-.996-.373-1.369,0l-3.486,3.361c-.374.374-.374.996,0,1.369l3.486,3.362c.373.373.996.373,1.369,0ZM89.815,11.401h4.98c.249,0,.498-.124.622-.249l.996-.996c.373-.373.373-.996,0-1.369l-3.486-3.361c-.374-.373-.996-.373-1.369,0l-3.361,3.361c-.374.374-.374.996,0,1.369l.871.996c.249.124.498.249.747.249ZM86.703,7.293l3.361-3.362c.373-.373.373-.996,0-1.369l-3.361-3.361c-.374-.373-.996-.373-1.369,0l-3.361,3.361c-.374.374-.374.996,0,1.369l3.361,3.362c.373.373.996.373,1.369,0ZM77.241,11.401h4.98c.249,0,.498-.124.747-.249l.871-.996c.373-.373.373-.996,0-1.369l-3.361-3.361c-.374-.373-.996-.373-1.369,0l-3.486,3.361c-.374.374-.374.996,0,1.369l.996.996c.124.124.373.249.622.249ZM74.253,7.293l3.361-3.362c.373-.373.373-.996,0-1.369l-3.361-3.361c-.374-.373-.996-.373-1.369,0l-3.486,3.361c-.374.374-.374.996,0,1.369l3.486,3.362c.373.373.996.373,1.369,0ZM64.791,11.401h4.98c.249,0,.498-.124.622-.249l.996-.996c.373-.373.373-.996,0-1.369l-3.486-3.361c-.374-.373-.996-.373-1.369,0l-3.361,3.361c-.374.374-.374.996,0,1.369l.871.996c.249.124.498.249.747.249ZM61.679,7.293l3.361-3.362c.373-.373.373-.996,0-1.369l-3.361-3.361c-.374-.373-.996-.373-1.369,0l-3.361,3.361c-.374.374-.374.996,0,1.369l3.361,3.362c.373.373.996.373,1.369,0ZM57.944,11.152l.871-.996c.373-.373.373-.996,0-1.369l-3.361-3.361c-.374-.373-.996-.373-1.369,0l-3.486,3.361c-.373.374-.373.996,0,1.369l.996.996c.125.124.374.249.622.249h4.98c.249,0,.498-.124.747-.249ZM49.229,7.293l3.361-3.362c.373-.373.373-.996,0-1.369l-3.361-3.361c-.374-.373-.996-.373-1.369,0l-3.486,3.361c-.373.374-.373.996,0,1.369l3.486,3.362c.373.373.996.373,1.369,0ZM45.369,11.152l.996-.996c.373-.373.373-.996,0-1.369l-3.486-3.361c-.374-.373-.996-.373-1.369,0l-3.361,3.361c-.373.374-.373.996,0,1.369l.871.996c.249.124.498.249.747.249h4.98c.249,0,.498-.124.622-.249ZM36.655,7.293l3.361-3.362c.373-.373.373-.996,0-1.369l-3.361-3.361c-.374-.373-.996-.373-1.369,0l-3.361,3.361c-.373.374-.373.996,0,1.369l3.361,3.362c.373.373.996.373,1.369,0ZM32.92,11.152l.872-.996c.373-.373.373-.996,0-1.369l-3.361-3.361c-.374-.373-.996-.373-1.369,0l-3.486,3.361c-.374.374-.374.996,0,1.369l.996.996c.124.124.374.249.622.249h4.98c.249,0,.498-.124.747-.249ZM24.08,7.293l3.486-3.362c.373-.373.373-.996,0-1.369l-3.486-3.361c-.374-.373-.871-.373-1.245,0l-3.486,3.361c-.374.374-.374.996,0,1.369l3.486,3.362c.373.373.871.373,1.245,0ZM18.602,43.646l-.747-.747c-.374-.373-.996-.373-1.369,0l-3.361,3.486c-.374.373-.374.996,0,1.369l3.361,3.362c.373.373.996.373,1.369,0l.747-.747c.124-.124.249-.373.249-.622v-5.478c0-.249-.124-.498-.249-.622ZM17.855,26.092l3.486-3.362c.373-.373.373-.996,0-1.369l-3.486-3.486c-.374-.373-.996-.373-1.369,0l-3.361,3.486c-.374.373-.374.996,0,1.369l3.361,3.362c.373.373.996.373,1.369,0ZM17.855,13.642l3.486-3.486c.373-.373.373-.996,0-1.369l-3.486-3.361c-.374-.373-.996-.373-1.369,0l-3.361,3.361c-.374.374-.374.996,0,1.369l3.361,3.486c.373.373.996.373,1.369,0ZM17.855,38.666l3.486-3.486c.373-.373.373-.996,0-1.369l-3.486-3.362c-.374-.373-.996-.373-1.369,0l-3.361,3.362c-.374.373-.374.996,0,1.369l3.361,3.486c.373.373.996.373,1.369,0ZM11.63,19.867l3.361-3.486c.373-.373.373-.871,0-1.245l-3.361-3.486c-.374-.373-.996-.373-1.369,0l-3.361,3.486c-.374.373-.374.871,0,1.245l3.361,3.486c.373.373.996.373,1.369,0ZM11.63,44.891l3.361-3.486c.373-.373.373-.996,0-1.369l-3.361-3.362c-.374-.373-.996-.373-1.369,0l-3.361,3.362c-.374.373-.374.996,0,1.369l3.361,3.486c.373.373.996.373,1.369,0ZM11.63,32.317l3.361-3.362c.373-.373.373-.996,0-1.369l-3.361-3.362c-.374-.373-.996-.373-1.369,0l-3.361,3.362c-.374.373-.374.996,0,1.369l3.361,3.362c.373.373.996.373,1.369,0ZM14.494,54.602l.498-.623c.373-.373.373-.996,0-1.369l-3.361-3.361c-.374-.374-.996-.374-1.369,0l-3.361,3.361c-.374.373-.374.996,0,1.369l.622.623c.124.124.373.249.622.249h5.602c.249,0,.498-.124.747-.249ZM11.63,7.293l3.361-3.362c.373-.373.373-.996,0-1.369l-3.361-3.361c-.374-.373-.996-.373-1.369,0l-3.361,3.361c-.374.374-.374.996,0,1.369l3.361,3.362c.373.373.996.373,1.369,0ZM277.309,42.028l.498-.623c.373-.373.373-.996,0-1.369l-3.362-3.362c-.373-.373-.996-.373-1.369,0l-3.486,3.362c-.373.373-.373.996,0,1.369l.623.623c.124.124.373.249.622.249h5.727c.249,0,.498-.124.747-.249ZM274.446,19.867l3.362-3.486c.373-.373.373-.871,0-1.245l-3.362-3.486c-.373-.373-.996-.373-1.369,0l-3.486,3.486c-.373.373-.373.871,0,1.245l3.486,3.486c.373.373.996.373,1.369,0ZM274.446,7.293l3.362-3.362c.373-.373.373-.996,0-1.369l-3.362-3.361c-.373-.373-.996-.373-1.369,0l-3.486,3.361c-.373.374-.373.996,0,1.369l3.486,3.362c.373.373.996.373,1.369,0ZM274.446,32.317l3.362-3.362c.373-.373.373-.996,0-1.369l-3.362-3.362c-.373-.373-.996-.373-1.369,0l-3.486,3.362c-.373.373-.373.996,0,1.369l3.486,3.362c.373.373.996.373,1.369,0ZM268.097,26.092l3.486-3.362c.373-.373.373-.996,0-1.369l-3.486-3.486c-.373-.373-.871-.373-1.245,0l-3.486,3.486c-.373.373-.373.996,0,1.369l3.486,3.362c.373.373.871.373,1.245,0ZM268.097,38.666l3.486-3.486c.373-.373.373-.996,0-1.369l-3.486-3.362c-.373-.373-.871-.373-1.245,0l-3.486,3.362c-.373.373-.373.996,0,1.369l3.486,3.486c.373.373.871.373,1.245,0ZM268.097,13.642l3.486-3.486c.373-.373.373-.996,0-1.369l-3.486-3.361c-.373-.373-.871-.373-1.245,0l-3.486,3.361c-.373.374-.373.996,0,1.369l3.486,3.486c.373.373.871.373,1.245,0ZM261.872,19.867l3.486-3.486c.373-.373.373-.871,0-1.245l-3.486-3.486c-.373-.373-.996-.373-1.369,0l-3.362,3.486c-.373.373-.373.871,0,1.245l3.362,3.486c.373.373.996.373,1.369,0ZM261.872,32.317l3.486-3.362c.373-.373.373-.996,0-1.369l-3.486-3.362c-.373-.373-.996-.373-1.369,0l-3.362,3.362c-.373.373-.373.996,0,1.369l3.362,3.362c.373.373.996.373,1.369,0ZM264.735,42.028l.623-.623c.373-.373.373-.996,0-1.369l-3.486-3.362c-.373-.373-.996-.373-1.369,0l-3.362,3.362c-.373.373-.373.996,0,1.369l.498.623c.249.124.498.249.747.249h5.727c.249,0,.498-.124.622-.249ZM249.422,7.293l3.361-3.362c.374-.373.374-.996,0-1.369l-3.361-3.361c-.373-.373-.996-.373-1.369,0l-3.486,3.361c-.373.374-.373.996,0,1.369l3.486,3.362c.373.373.996.373,1.369,0ZM236.848,7.293l3.486-3.362c.373-.373.373-.996,0-1.369l-3.486-3.361c-.373-.373-.996-.373-1.369,0l-3.361,3.361c-.373.374-.373.996,0,1.369l3.361,3.362c.374.373.996.373,1.369,0ZM224.398,7.293l3.361-3.362c.374-.373.374-.996,0-1.369l-3.361-3.361c-.373-.373-.996-.373-1.369,0l-3.486,3.361c-.373.374-.373.996,0,1.369l3.486,3.362c.374.373.996.373,1.369,0ZM253.157,31.943v5.104c0,.249.124.498.249.622l.872.996c.373.373.996.373,1.369,0l3.361-3.486c.374-.373.374-.996,0-1.369l-3.361-3.362c-.373-.373-.996-.373-1.369,0l-.872.872c-.124.124-.249.373-.249.622ZM255.647,26.092l3.361-3.362c.374-.373.374-.996,0-1.369l-3.361-3.486c-.373-.373-.996-.373-1.369,0l-3.362,3.486c-.373.373-.373.996,0,1.369l3.362,3.362c.373.373.996.373,1.369,0ZM245.936,29.951h5.478c.249,0,.498-.124.747-.373l.622-.623c.374-.373.374-.996,0-1.369l-3.361-3.362c-.373-.373-.996-.373-1.369,0l-3.486,3.362c-.373.373-.373.996,0,1.369l.747.623c.124.249.373.373.622.373ZM243.072,26.092l3.486-3.362c.373-.373.373-.996,0-1.369l-3.486-3.486c-.373-.373-.871-.373-1.245,0l-3.486,3.486c-.373.373-.373.996,0,1.369l3.486,3.362c.373.373.871.373,1.245,0ZM236.848,19.867l3.486-3.486c.373-.373.373-.871,0-1.245l-3.486-3.486c-.373-.373-.996-.373-1.369,0l-3.361,3.486c-.373.373-.373.871,0,1.245l3.361,3.486c.374.373.996.373,1.369,0ZM230.623,13.642l3.361-3.486c.374-.373.374-.996,0-1.369l-3.361-3.361c-.373-.373-.996-.373-1.369,0l-3.361,3.361c-.373.374-.373.996,0,1.369l3.361,3.486c.374.373.996.373,1.369,0ZM218.048,13.642l3.486-3.486c.374-.373.374-.996,0-1.369l-3.486-3.361c-.373-.373-.871-.373-1.245,0l-3.486,3.361c-.373.374-.373.996,0,1.369l3.486,3.486c.374.373.872.373,1.245,0ZM233.486,29.951h5.478c.249,0,.498-.124.622-.373l.747-.623c.373-.373.373-.996,0-1.369l-3.486-3.362c-.373-.373-.996-.373-1.369,0l-3.361,3.362c-.373.373-.373.996,0,1.369l.623.623c.249.249.498.373.747.373ZM230.623,26.092l3.361-3.362c.374-.373.374-.996,0-1.369l-3.361-3.486c-.373-.373-.996-.373-1.369,0l-3.361,3.486c-.373.373-.373.996,0,1.369l3.361,3.362c.374.373.996.373,1.369,0ZM255.647,13.642l3.361-3.486c.374-.373.374-.996,0-1.369l-3.361-3.361c-.373-.373-.996-.373-1.369,0l-3.362,3.361c-.373.374-.373.996,0,1.369l3.362,3.486c.373.373.996.373,1.369,0ZM249.422,19.867l3.361-3.486c.374-.373.374-.871,0-1.245l-3.361-3.486c-.373-.373-.996-.373-1.369,0l-3.486,3.486c-.373.373-.373.871,0,1.245l3.486,3.486c.373.373.996.373,1.369,0ZM243.072,13.642l3.486-3.486c.373-.373.373-.996,0-1.369l-3.486-3.361c-.373-.373-.871-.373-1.245,0l-3.486,3.361c-.373.374-.373.996,0,1.369l3.486,3.486c.373.373.871.373,1.245,0ZM261.872,7.293l3.486-3.362c.373-.373.373-.996,0-1.369l-3.486-3.361c-.373-.373-.996-.373-1.369,0l-3.362,3.361c-.373.374-.373.996,0,1.369l3.362,3.362c.373.373.996.373,1.369,0ZM211.823,7.293l3.486-3.362c.374-.373.374-.996,0-1.369l-3.486-3.361c-.373-.373-.996-.373-1.369,0l-3.361,3.361c-.373.374-.373.996,0,1.369l3.361,3.362c.374.373.996.373,1.369,0ZM202.362,11.401h5.104c.249,0,.498-.124.623-.249l.871-.996c.374-.373.374-.996,0-1.369l-3.361-3.361c-.373-.373-.996-.373-1.369,0l-3.361,3.361c-.373.374-.373.996,0,1.369l.872.996c.124.124.373.249.622.249ZM199.374,7.293l3.361-3.362c.374-.373.374-.996,0-1.369l-3.361-3.361c-.373-.373-.996-.373-1.369,0l-3.486,3.361c-.373.374-.373.996,0,1.369l3.486,3.362c.374.373.996.373,1.369,0ZM195.514,11.152l.996-.996c.374-.373.374-.996,0-1.369l-3.486-3.361c-.373-.373-.871-.373-1.245,0l-3.486,3.361c-.373.374-.373.996,0,1.369l.872.996c.249.124.498.249.747.249h4.98c.249,0,.498-.124.623-.249ZM186.799,7.293l3.486-3.362c.374-.373.374-.996,0-1.369l-3.486-3.361c-.373-.373-.996-.373-1.369,0l-3.361,3.361c-.373.374-.373.996,0,1.369l3.361,3.362c.373.373.996.373,1.369,0ZM183.064,11.152l.872-.996c.373-.373.373-.996,0-1.369l-3.361-3.361c-.373-.373-.996-.373-1.369,0l-3.361,3.361c-.373.374-.373.996,0,1.369l.871.996c.124.124.374.249.622.249h5.104c.249,0,.373-.124.622-.249ZM174.349,7.293l3.361-3.362c.373-.373.373-.996,0-1.369l-3.361-3.361c-.373-.373-.996-.373-1.369,0l-3.486,3.361c-.373.374-.373.996,0,1.369l3.486,3.362c.373.373.996.373,1.369,0ZM170.49,11.152l.996-.996c.373-.373.373-.996,0-1.369l-3.486-3.361c-.373-.373-.871-.373-1.245,0l-3.486,3.361c-.373.374-.373.996,0,1.369l.871.996c.249.124.498.249.747.249h4.98c.249,0,.498-.124.622-.249ZM161.775,7.293l3.486-3.362c.373-.373.373-.996,0-1.369l-3.486-3.361c-.373-.373-.996-.373-1.369,0l-3.361,3.361c-.373.374-.373.996,0,1.369l3.361,3.362c.374.373.996.373,1.369,0Z" fill="#1a1a1a" fill-rule="evenodd"/><path d="M333.583,56.843h35.108c.623,0,1.121-.498,1.121-1.121v-5.478c0-.622-.498-1.121-1.121-1.121h-35.108c-.623,0-1.121.498-1.121,1.121v5.478c0,.623.498,1.121,1.121,1.121M231.37,56.594h19.422c.623,0,1.121-.498,1.121-1.121v-23.655c0-.622-.498-1.121-1.121-1.121h-19.422c-.622,0-1.121.498-1.121,1.121v23.655c0,.623.498,1.121,1.121,1.121Z" fill="#333" fill-rule="evenodd"/><path d="M230.249,47.381h21.663v-.498h-21.663v.498ZM239.462,49.498l.498,3.61q0,.124.124.124t.124-.124l.498-3.61c.124-.373-.125-.747-.498-.747-.373-.124-.747.124-.747.498v.249ZM240.707,54.353c0-.249-.249-.622-.623-.622s-.622.373-.622.622c0,.374.249.623.622.623s.623-.249.623-.623ZM339.434,52.984c0-1.494-1.245-2.863-2.863-2.863-1.494,0-2.739,1.369-2.739,2.863s1.245,2.863,2.739,2.863c1.618,0,2.863-1.369,2.863-2.863ZM338.687,52.984c0,1.12-.872,2.116-2.117,2.116-1.121,0-2.116-.996-2.116-2.116s.996-2.117,2.116-2.117c1.245,0,2.117.996,2.117,2.117ZM337.069,52.485c0,.249-.249.373-.498.373s-.373-.124-.373-.373.124-.498.373-.498.498.249.498.498ZM335.699,52.984l.747,1.494q.124.124.249.124v-.124l.872-1.494c.249-.623,0-1.245-.498-1.494-.498-.249-1.121,0-1.369.498-.124.249-.124.622,0,.996ZM364.707,50.867l.374,3.237q.124.124.249.124v-.124l.498-3.237c.124-.373-.124-.622-.498-.622-.249-.124-.623.124-.623.498v.124ZM365.828,55.224c0-.249-.249-.498-.498-.498-.374,0-.623.249-.623.498,0,.373.249.622.623.622.249,0,.498-.249.498-.622Z" fill="#fff" fill-rule="evenodd"/><path d="M356.366,55.349h4.233c.622,0,1.121-.498,1.121-1.121v-1.992c0-.623-.498-1.121-1.121-1.121h-4.233c-.622,0-1.121.498-1.121,1.121v1.992c0,.623.498,1.121,1.121,1.121M341.799,55.349h4.108c.623,0,1.121-.498,1.121-1.121v-1.992c0-.623-.498-1.121-1.121-1.121h-4.108c-.622,0-1.121.498-1.121,1.121v1.992c0,.623.498,1.121,1.121,1.121Z" fill="#e6e6e6" fill-rule="evenodd"/><path d="M356.615,54.726h3.735c.498,0,.872-.373.872-.871v-1.245c0-.498-.373-.996-.872-.996h-3.735c-.498,0-.996.498-.996.996v1.245c0,.498.498.871.996.871M243.446,41.53c0-1.867-1.494-3.361-3.361-3.361s-3.361,1.494-3.361,3.361,1.494,3.361,3.361,3.361,3.361-1.494,3.361-3.361Z" fill="#f7941d" fill-rule="evenodd"/><path d="M205.972,21.236v32.867h14.566c4.98,0,8.964-4.108,8.964-9.088v-14.815c0-4.98-3.984-8.964-8.964-8.964h-14.566" fill="#e6e6e6" fill-rule="evenodd"/><path d="M222.157,43.646l-1.494-1.618c-.498-.373-.498-1.121,0-1.618l1.494-1.494-1.121-1.245-1.618,1.618c-.373.373-1.12.373-1.618,0l-1.494-1.618-1.245,1.245,1.618,1.494c.374.498.374,1.245,0,1.618l-1.618,1.618,1.245,1.121,1.494-1.494c.498-.498,1.245-.498,1.618,0l1.618,1.494,1.121-1.121" fill="silver" fill-rule="evenodd"/><path d="M222.157,43.646l-1.494-1.618c-.498-.373-.498-1.121,0-1.618l1.494-1.494-1.121-1.245-1.618,1.618c-.373.373-1.12.373-1.618,0l-1.494-1.618-1.245,1.245,1.618,1.494c.374.498.374,1.245,0,1.618l-1.618,1.618,1.245,1.121,1.494-1.494c.498-.498,1.245-.498,1.618,0l1.618,1.494,1.121-1.121Z" fill="none" stroke="#a2a2a2" stroke-linecap="round" stroke-linejoin="round"/><path d="M205.972,21.236v32.867h14.566c4.98,0,8.964-4.108,8.964-9.088v-14.815c0-4.98-3.984-8.964-8.964-8.964h-14.566M205.972,25.718v-4.482h-2.241v-3.112H31.799v3.112h-2.241v32.867h1.12v2.241h174.173v-2.241h1.121v-28.386Z" fill="#e6e6e6" fill-rule="evenodd"/><path d="M205.972,21.236v32.867h14.566c4.98,0,8.964-4.108,8.964-9.088v-14.815c0-4.98-3.984-8.964-8.964-8.964h-14.566Z" fill="none" stroke="#221f20" stroke-linecap="round" stroke-linejoin="round" stroke-width=".259"/><path d="M49.104,54.602v-1.121h-1.618c-.747,0-1.369.498-1.618,1.121h3.237M39.269,54.602c-.249-.622-.871-1.121-1.619-1.121h-1.618v1.121h3.237ZM199.498,54.602v-1.121h-1.743c-.622,0-1.245.498-1.494,1.121h3.237ZM189.538,54.602c-.124-.622-.872-1.121-1.494-1.121h-1.743v1.121h3.237ZM144.843,54.602v-2.739c0-.622-.373-.996-.871-.996h-1.992c-.622,0-.996.373-.996.996v2.739h3.859ZM136.129,54.602v-2.739c0-.622-.373-.996-.996-.996h-1.992c-.498,0-.996.373-.996.996v2.739h3.984ZM103.386,54.602v-2.739c0-.622-.498-.996-.996-.996h-1.992c-.622,0-.996.373-.996.996v2.739h3.984ZM94.546,54.602v-2.739c0-.622-.374-.996-.996-.996h-1.992c-.498,0-.871.373-.871.996v2.739h3.859ZM201.615,21.236v-1.494h-6.474l3.237,3.361c.373.373.996.373,1.369,0l1.868-1.868ZM193.398,29.329l3.486-3.486c.373-.373.373-.871,0-1.245l-3.486-3.486c-.373-.373-.996-.373-1.369,0l-3.362,3.486c-.373.373-.373.871,0,1.245l3.362,3.486c.373.373.996.373,1.369,0ZM199.623,35.554l3.486-3.361c.373-.374.373-.996,0-1.369l-3.486-3.486c-.373-.373-.871-.373-1.245,0l-3.486,3.486c-.373.373-.373.996,0,1.369l3.486,3.361c.373.373.871.373,1.245,0ZM180.948,29.329l3.361-3.486c.374-.373.374-.871,0-1.245l-3.361-3.486c-.374-.373-.996-.373-1.369,0l-3.486,3.486c-.373.373-.373.871,0,1.245l3.486,3.486c.374.373.996.373,1.369,0ZM187.173,35.554l3.361-3.361c.374-.374.374-.996,0-1.369l-3.361-3.486c-.374-.373-.996-.373-1.369,0l-3.361,3.486c-.373.373-.373.996,0,1.369l3.361,3.361c.374.373.996.373,1.369,0ZM193.398,41.779l3.486-3.361c.373-.374.373-.996,0-1.369l-3.486-3.362c-.373-.373-.996-.373-1.369,0l-3.362,3.362c-.373.373-.373.996,0,1.369l3.362,3.361c.373.373.996.373,1.369,0ZM199.623,48.004l3.486-3.361c.373-.374.373-.996,0-1.369l-3.486-3.362c-.373-.373-.871-.373-1.245,0l-3.486,3.362c-.373.373-.373.996,0,1.369l3.486,3.361c.373.373.871.373,1.245,0ZM168.374,29.329l3.486-3.486c.374-.373.374-.871,0-1.245l-3.486-3.486c-.373-.373-.996-.373-1.369,0l-3.361,3.486c-.373.373-.373.871,0,1.245l3.361,3.486c.373.373.996.373,1.369,0ZM174.598,35.554l3.486-3.361c.374-.374.374-.996,0-1.369l-3.486-3.486c-.373-.373-.871-.373-1.245,0l-3.486,3.486c-.373.373-.373.996,0,1.369l3.486,3.361c.374.373.871.373,1.245,0ZM180.948,41.779l3.361-3.361c.374-.374.374-.996,0-1.369l-3.361-3.362c-.374-.373-.996-.373-1.369,0l-3.486,3.362c-.373.373-.373.996,0,1.369l3.486,3.361c.374.373.996.373,1.369,0ZM187.173,48.004l3.361-3.361c.374-.374.374-.996,0-1.369l-3.361-3.362c-.374-.373-.996-.373-1.369,0l-3.361,3.362c-.373.373-.373.996,0,1.369l3.361,3.361c.374.373.996.373,1.369,0ZM168.374,41.779l3.486-3.361c.374-.374.374-.996,0-1.369l-3.486-3.362c-.373-.373-.996-.373-1.369,0l-3.361,3.362c-.373.373-.373.996,0,1.369l3.361,3.361c.373.373.996.373,1.369,0ZM174.598,48.004l3.486-3.361c.374-.374.374-.996,0-1.369l-3.486-3.362c-.373-.373-.871-.373-1.245,0l-3.486,3.362c-.373.373-.373.996,0,1.369l3.486,3.361c.374.373.871.373,1.245,0ZM68.277,29.329l3.361-3.486c.374-.373.374-.871,0-1.245l-3.361-3.486c-.374-.373-.996-.373-1.369,0l-3.361,3.486c-.374.373-.374.871,0,1.245l3.361,3.486c.374.373.996.373,1.369,0ZM55.827,29.329l3.361-3.486c.374-.373.374-.871,0-1.245l-3.361-3.486c-.374-.373-.996-.373-1.369,0l-3.486,3.486c-.374.373-.374.871,0,1.245l3.486,3.486c.374.373.996.373,1.369,0ZM62.052,35.554l3.361-3.361c.374-.374.374-.996,0-1.369l-3.361-3.486c-.374-.373-.996-.373-1.369,0l-3.486,3.486c-.374.373-.374.996,0,1.369l3.486,3.361c.374.373.996.373,1.369,0ZM68.277,41.779l3.361-3.361c.374-.374.374-.996,0-1.369l-3.361-3.362c-.374-.373-.996-.373-1.369,0l-3.361,3.362c-.374.373-.374.996,0,1.369l3.361,3.361c.374.373.996.373,1.369,0ZM49.478,35.554l3.486-3.361c.374-.374.374-.996,0-1.369l-3.486-3.486c-.374-.373-.996-.373-1.369,0l-3.361,3.486c-.374.373-.374.996,0,1.369l3.361,3.361c.373.373.996.373,1.369,0ZM55.827,41.779l3.361-3.361c.374-.374.374-.996,0-1.369l-3.361-3.362c-.374-.373-.996-.373-1.369,0l-3.486,3.362c-.374.373-.374.996,0,1.369l3.486,3.361c.374.373.996.373,1.369,0ZM62.052,48.004l3.361-3.361c.374-.374.374-.996,0-1.369l-3.361-3.362c-.374-.373-.996-.373-1.369,0l-3.486,3.362c-.374.373-.374.996,0,1.369l3.486,3.361c.374.373.996.373,1.369,0ZM49.478,48.004l3.486-3.361c.374-.374.374-.996,0-1.369l-3.486-3.362c-.374-.373-.996-.373-1.369,0l-3.361,3.362c-.374.373-.374.996,0,1.369l3.361,3.361c.373.373.996.373,1.369,0ZM190.41,19.743h-7.843l3.237,3.361c.374.373.996.373,1.369,0l3.237-3.361ZM177.96,19.743h-7.843l3.237,3.361c.374.373.996.373,1.369,0l3.237-3.361ZM165.386,19.743h-7.843l3.237,3.361c.373.373.996.373,1.369,0l3.237-3.361ZM152.936,19.743h-7.843l3.237,3.361c.373.373.996.373,1.369,0l3.237-3.361ZM140.361,19.743h-7.843l3.237,3.361c.373.373.996.373,1.369,0l3.237-3.361ZM127.912,19.743h-7.843l3.237,3.361c.373.373.871.373,1.245,0l3.361-3.361ZM115.337,19.743h-7.843l3.237,3.361c.374.373.996.373,1.369,0l3.237-3.361ZM102.763,19.743h-7.843l3.361,3.361c.374.373.872.373,1.245,0l3.237-3.361ZM90.313,19.743h-7.843l3.237,3.361c.374.373.996.373,1.369,0l3.237-3.361ZM77.739,19.743h-7.843l3.237,3.361c.374.373.996.373,1.369,0l3.237-3.361ZM65.289,19.743h-7.843l3.237,3.361c.374.373.996.373,1.369,0l3.237-3.361ZM52.715,19.743h-7.843l3.237,3.361c.373.373.996.373,1.369,0l3.237-3.361ZM75.373,48.502h84.783c.373,0,.747-.249.747-.622v-21.04c0-.373-.374-.747-.747-.747h-84.783c-.373,0-.747.373-.747.747v21.04c0,.373.374.622.747.622Z" fill="#1a1a1a" fill-rule="evenodd"/><path d="M45.245,51.116v-28.137c0-1.369-1.12-2.49-2.49-2.49l-23.032.374c-1.494,0-2.49,1.12-2.49,2.49v27.39c0,1.369.996,2.49,2.49,2.49l23.032.374c1.369,0,2.49-1.121,2.49-2.49" fill="#666" fill-rule="evenodd"/><path d="M19.972,51.614h22.534c.373,0,.622-.249.622-.622v-27.888c0-.374-.249-.623-.622-.623h-22.534c-.373,0-.747.249-.747.623v27.888c0,.373.374.622.747.622" fill="#333" fill-rule="evenodd"/><polyline points="29.434 31.445 29.434 30.2 25.699 30.2 25.699 33.437 29.434 33.437 29.434 32.192 30.928 32.192 30.928 37.67 31.55 37.67 31.55 36.425 32.92 36.425 32.92 37.67 36.779 37.67 36.779 34.433 32.92 34.433 32.92 35.678 31.55 35.678 31.55 27.959 32.92 27.959 32.92 29.204 36.779 29.204 36.779 25.967 32.92 25.967 32.92 27.337 31.55 27.337 31.55 25.967 30.928 25.967 30.928 31.445 29.434 31.445" fill="#fff" fill-rule="evenodd"/><path d="M145.092,54.229h15.811v-5.353h-86.277v5.353h15.811v-2.365c0-.622.498-1.12,1.12-1.12h1.992c.622,0,1.12.498,1.12,1.12v2.365h4.606v-2.365c0-.622.498-1.12,1.121-1.12h1.992c.622,0,1.121.498,1.121,1.12v2.365h28.51v-2.365c0-.622.498-1.12,1.121-1.12h1.992c.622,0,1.121.498,1.121,1.12v2.365h4.606v-2.365c0-.622.498-1.12,1.12-1.12h1.992c.622,0,1.12.498,1.12,1.12v2.365" fill="#333" fill-rule="evenodd"/><path d="M146.586,50.245l.374,1.992v.124q.124,0,.124-.124l.249-1.992c.124-.124-.125-.373-.249-.373-.249,0-.373.124-.498.249v.124M147.333,52.984c0-.249-.125-.373-.374-.373-.124,0-.249.124-.249.373,0,.124.124.373.249.373.249,0,.374-.249.374-.373ZM105.129,50.245l.249,1.992q0,.124.124.124v-.124l.249-1.992c.124-.124-.124-.373-.249-.373-.249,0-.374.124-.374.249v.124ZM105.751,52.984c0-.249-.124-.373-.373-.373-.125,0-.249.124-.249.373,0,.124.124.373.249.373.249,0,.373-.249.373-.373Z" fill="#fff" fill-rule="evenodd"/><rect x="75.871" y="26.963" width="83.787" height="20.667" fill="#d9d9d9"/><path d="M159.036,27.461h-40.96v19.795h40.96v-19.795ZM117.454,27.461h-40.96v19.795h40.96v-19.795Z" fill="#262626" fill-rule="evenodd"/><path d="M196.137,50.12c0-1.743-1.494-3.237-3.237-3.237s-3.237,1.494-3.237,3.237,1.494,3.237,3.237,3.237,3.237-1.494,3.237-3.237Z" fill="#a6a6a6"/><path d="M229.004,40.534h.124c.124,0,.124-.124.124-.249v-.249c0-.124-.124-.249-.249-.249h-.124v-.374h.124s.124-.124.124-.249l-.124-.249c0-.124-.124-.249-.249-.124h-.124v-.373l.124-.124s.124-.125,0-.249v-.124c0-.124-.124-.249-.249-.249h-.124c0-.124-.124-.124-.124-.249l.124-.124c.124,0,.124-.124,0-.249v-.249c-.124-.124-.249-.124-.374-.124h-.124s0-.125-.124-.249l.124-.124c.124,0,.124-.124,0-.249v-.249c-.124-.124-.249-.124-.373-.124l-.124.124c0-.124-.124-.249-.124-.373.124-.124.124-.249.124-.374l-.124-.124c-.124-.124-.249-.124-.373-.124l-.124.124c0-.124-.125-.249-.249-.373h.124c.125-.124.125-.249,0-.373l-.124-.124c-.124-.124-.249-.124-.373-.124v.124c-.124-.124-.249-.124-.373-.249l.124-.124c.124,0,0-.249,0-.249l-.124-.124c-.124-.124-.249-.124-.373-.124l-.124.124c-.124,0-.124-.124-.249-.249v-.124c.125,0,.125-.124,0-.249l-.124-.124c-.124-.124-.373-.124-.373,0l-.124.124-.249-.249v-.124c.124,0,0-.249-.124-.249l-.124-.125c-.124,0-.249,0-.374.125-.124,0-.249-.125-.373-.125v-.124c.124-.124,0-.249-.124-.249l-.124-.124c-.124,0-.249,0-.373.124v.124c-.124-.124-.249-.124-.373-.124v-.124c.124-.124,0-.249-.124-.373h-.125c-.249,0-.373,0-.373.124v.124c-.124,0-.249-.124-.373-.124v-.124c0-.124-.124-.249-.249-.249h-.124c-.124,0-.249,0-.374.124v.124c-.124,0-.249,0-.373-.124,0-.124,0-.249-.249-.249l-.124-.124c-.124,0-.249.124-.249.249v.124h-.373v-.124c0-.124-.124-.249-.374-.249h-.124c-.124,0-.249.124-.249.249v.124h-.373v-.124c0-.124-.124-.249-.373-.249l-.124.124c-.125,0-.249.124-.249.249-.124.124-.249.124-.373.124v-.124c0-.124-.124-.124-.249-.124h-.249c-.124,0-.249.124-.124.249v.124c-.124,0-.249.124-.373.124l-.125-.124c0-.124-.124-.124-.249-.124h-.124c-.249.124-.249.249-.249.373v.124c-.124,0-.249,0-.373.124v-.124c0-.124-.124-.124-.373-.124l-.125.124c-.124,0-.124.124-.124.249v.124c-.124,0-.124.125-.249.125h-.124c0-.125-.249-.125-.373-.125l-.124.125c-.124,0-.124.249-.124.249l.124.124c-.124.124-.249.124-.373.249v-.124c-.124-.124-.249-.124-.374,0l-.124.124c-.124.124-.124.249-.124.249l.124.124c-.124.124-.249.249-.373.249v-.124c-.124,0-.249,0-.373.124l-.124.124c-.124,0-.124.249-.124.249l.124.124-.249.249-.125-.124c-.124,0-.249,0-.373.124v.124c-.124.124-.124.249-.124.373h.124c-.124.124-.124.249-.249.373l-.124-.124s-.249,0-.249.124l-.124.124c-.124.125-.124.249,0,.374h.124c-.124.124-.124.249-.249.373l-.124-.124s-.249,0-.249.124l-.124.249c0,.124,0,.249.124.249v.124c0,.124-.124.249-.124.249h-.124c-.124,0-.249,0-.249.124l-.124.249c0,.124,0,.249.124.249l.124.124q-.124.124-.124.249h-.124c-.124,0-.249.124-.373.249v.124c0,.124,0,.249.124.249l.124.124c0,.124-.124.249-.124.373h-.124c-.124-.124-.249,0-.249.124v.249c-.124.124,0,.249.124.249h.124c0,.124,0,.249-.124.374h-.124c-.124,0-.124.124-.124.249l-.125.249c0,.124.125.249.249.249h.124v.373h-.124c-.124,0-.249.124-.249.249v.124c0,.249.125.374.249.374h.124v.373h-.124c-.124,0-.249.124-.249.249l.125.124q0,.249.124.249h.124c.124.124.124.249.124.374h-.124c-.124.124-.249.249-.124.373v.124c0,.124.124.249.249.249h.124c0,.124.124.249.124.373h-.124c-.124,0-.124.124-.124.374v.124c.124.124.249.249.373.124h.124c0,.124,0,.249.124.373h-.124c-.124.124-.124.249-.124.373l.124.124c0,.124.124.249.249.124h.124c0,.124.124.249.124.374-.124.124-.124.249-.124.373l.124.124c0,.124.249.249.249.124h.124l.249.249-.124.124c-.124,0-.124.249,0,.373l.124.125c0,.124.249.124.249,0h.124l.249.249-.124.124c0,.124,0,.249.124.373v.124c.124,0,.249.124.373,0l.125-.124c.124.124.124.249.249.373h-.124c0,.124,0,.249.124.374l.124.124c.124.124.249.124.373,0v-.124c.124.124.249.249.373.249l-.124.124c0,.124,0,.249.124.373l.124.124c.124,0,.249,0,.374-.124.124,0,.249.124.373.124l-.124.124c0,.124,0,.249.124.373h.124c.124.124.373.124.373,0l.124-.124q.124.124.249.124v.124c0,.125,0,.249.124.374h.125c.249.124.373,0,.373,0v-.124c.124,0,.249.124.373.124v.124c0,.124,0,.249.249.249h.124c.124.124.249,0,.249,0l.125-.124h.373v.124c-.124.124,0,.249.124.249l.249.124c.124,0,.249-.124.249-.124v-.124h.373v.124c0,.124.124.249.249.249h.124c.249,0,.373,0,.373-.124v-.124h.373v.124c0,.124.124.124.249.124h.124c.249,0,.374,0,.374-.124v-.124h.373v.124c0,.124.124.124.249.124h.124c.249,0,.249-.124.249-.249v-.124h.373v.124c.125,0,.249.124.374.124l.124-.124c.124,0,.249-.124.249-.249v-.124h.373v.124s.124.124.373,0h.125c.124,0,.249-.124.124-.249v-.124c.124,0,.249-.124.373-.124v.124c.124,0,.249.124.373,0h.124c.124-.124.249-.249.124-.374v-.124c.124,0,.249,0,.373-.124v.124c.125.124.249.124.374,0h.124c.124-.124.249-.249.124-.373v-.124c.124,0,.124-.124.249-.124h.124c0,.124.249.124.373.124l.124-.124c.125-.124.125-.249,0-.373v-.124c.125,0,.125-.124.249-.249l.124.124c.124.124.249.124.373,0l.124-.124c0-.125.124-.249,0-.374h-.124l.373-.373v.124c.124.124.249,0,.373,0l.124-.124c.125-.124.125-.249,0-.373l-.124-.124c.124-.124.249-.124.249-.249h.124c.124.124.249.124.373,0l.124-.125c0-.124,0-.373-.124-.373v-.124c0-.124.124-.124.124-.249h.124c.124.124.249,0,.373-.124v-.124c.124-.124.124-.249,0-.373h-.124c.124-.124.124-.249.124-.374h.124c.124.124.249,0,.374-.124v-.124c.124-.124.124-.249,0-.373h-.124c0-.124.124-.249.124-.373h.124c.124.124.249,0,.249-.124v-.124c.124-.249,0-.374,0-.374h-.124v-.373h.124c.124,0,.249-.124.249-.249l.124-.124c0-.124-.124-.249-.124-.373h-.124v-.374h.124c.124,0,.249,0,.249-.249v-.124c0-.124,0-.249-.124-.249h-.124v-.373h.124c.124,0,.124-.124.124-.374v-.124c0-.124,0-.249-.124-.249h-.124v-.373" fill="#f28226" fill-rule="evenodd"/><path d="M225.145,41.281c0-3.61-2.988-6.474-6.474-6.474-3.61,0-6.474,2.863-6.474,6.474,0,3.486,2.863,6.474,6.474,6.474,3.486,0,6.474-2.988,6.474-6.474" fill="#ddd" fill-rule="evenodd"/><path d="M222.157,43.646l-1.494-1.618c-.498-.373-.498-1.121,0-1.618l1.494-1.494-1.121-1.245-1.618,1.618c-.373.373-1.12.373-1.618,0l-1.494-1.618-1.245,1.245,1.618,1.494c.374.498.374,1.245,0,1.618l-1.618,1.618,1.245,1.121,1.494-1.494c.498-.498,1.245-.498,1.618,0l1.618,1.494,1.121-1.121" fill="#a6a6a6" fill-rule="evenodd"/><path d="M28.574,47.707c-.337.287-.663.49-.975.608s-.647.177-1.005.177c-.591,0-1.045-.145-1.363-.433s-.476-.658-.476-1.107c0-.263.06-.504.18-.722.12-.218.277-.393.471-.524s.413-.231.656-.299c.179-.047.449-.093.811-.137.736-.088,1.278-.193,1.626-.314.003-.125.005-.204.005-.238,0-.372-.086-.633-.258-.785-.233-.206-.579-.309-1.039-.309-.429,0-.746.075-.95.225-.205.15-.355.417-.454.798l-.892-.122c.081-.381.215-.689.4-.924s.454-.416.806-.542c.351-.126.758-.19,1.221-.19.459,0,.833.054,1.12.162s.498.244.633.408c.135.164.229.371.284.621.03.155.045.436.045.841v1.216c0,.848.02,1.384.058,1.608.039.225.116.44.23.646h-.952c-.095-.189-.155-.41-.183-.664ZM28.499,45.67c-.331.135-.828.25-1.489.345-.375.054-.64.115-.795.182-.156.068-.275.167-.36.296s-.126.274-.126.433c0,.243.092.446.276.608s.454.243.808.243c.351,0,.664-.077.937-.23.274-.154.475-.364.603-.631.098-.206.147-.51.147-.912v-.334Z" fill="#fff"/><path d="M34.557,48.37h-.846v-7.427h.912v2.65c.385-.483.876-.725,1.474-.725.331,0,.644.067.939.2s.539.321.729.562c.191.242.34.533.448.874.108.341.162.706.162,1.094,0,.922-.228,1.635-.684,2.138-.456.503-1.003.755-1.642.755-.635,0-1.133-.265-1.494-.795v.674ZM34.547,45.64c0,.645.088,1.111.264,1.398.287.47.675.705,1.165.705.398,0,.743-.173,1.033-.52s.436-.862.436-1.547c0-.703-.139-1.221-.417-1.555-.279-.334-.616-.502-1.011-.502-.398,0-.743.173-1.034.52s-.436.847-.436,1.502Z" fill="#fff"/><path d="M234.187,44.578h-.729v-4.648c-.175.167-.405.335-.69.502s-.541.293-.769.377v-.705c.408-.192.765-.424,1.07-.697.306-.272.521-.538.648-.794h.47v5.965Z" fill="#fff"/><path d="M79.591,53.509v-3.713h.491v3.275h1.829v.438h-2.32Z" fill="#fff"/><path d="M82.491,53.509v-3.713h.504l1.95,2.916v-2.916h.471v3.713h-.504l-1.95-2.918v2.918h-.471Z" fill="#fff"/><path d="M86.222,53.509v-3.713h.491v1.841l1.844-1.841h.666l-1.558,1.505,1.626,2.208h-.648l-1.322-1.879-.608.593v1.287h-.491Z" fill="#fff"/><path d="M120.657,53.509v-3.713h.491v3.275h1.829v.438h-2.32Z" fill="#fff"/><path d="M123.557,53.509v-3.713h.504l1.95,2.916v-2.916h.471v3.713h-.504l-1.95-2.918v2.918h-.471Z" fill="#fff"/><path d="M127.289,53.509v-3.713h.491v1.841l1.844-1.841h.666l-1.558,1.505,1.626,2.208h-.648l-1.322-1.879-.608.593v1.287h-.491Z" fill="#fff"/><rect x="91.438" y="52.616" width="2.241" height="1.494" fill="#8dc63f"/><rect x="133.018" y="52.616" width="2.241" height="1.494" fill="#8dc63f"/><rect x="100.27" y="52.616" width="2.241" height="1.494" fill="#f7941d"/><rect x="141.85" y="52.616" width="2.241" height="1.494" fill="#f7941d"/><path d="M342.044,54.73h3.61c.622,0,.996-.373.996-.871v-1.245c0-.498-.373-.996-.996-.996h-3.61c-.622,0-.996.498-.996.996v1.245c0,.498.373.871.996.871Z" fill="#27aae1" fill-rule="evenodd"/></g></g><g id="c"><line x1="47.008" y1="71.337" x2="72.223" y2="52.627" fill="none" stroke="#fff" stroke-linecap="round" stroke-linejoin="round" stroke-width="3"/><line x1="47.008" y1="71.337" x2="72.223" y2="52.627" fill="none" stroke="#231f20" stroke-dasharray="2.883" stroke-linecap="round" stroke-linejoin="round"/><line x1="187.076" y1="71.075" x2="163.15" y2="52.627" fill="none" stroke="#fff" stroke-linecap="round" stroke-linejoin="round" stroke-width="3"/><line x1="187.076" y1="71.075" x2="163.15" y2="52.627" fill="none" stroke="#231f20" stroke-dasharray="2.883" stroke-linecap="round" stroke-linejoin="round"/><g clip-path="url(#d)"><path d="M44.683,15.807h-11.144c-.892,0-1.56.669-1.56,1.56v10.03h3.566v37.221h-3.566v5.572c0,1.114-.892,2.006-2.006,2.006h-3.566c-1.114,0-2.006.892-2.006,2.006v10.03c0,1.114.892,2.006,2.006,2.006h3.566c1.114,0,2.006.892,2.006,2.006v5.126h189.988v-5.126c0-1.114.892-2.006,2.006-2.006h3.566c1.114,0,2.006-.891,2.006-2.006v-10.03c0-1.114-.891-2.006-2.006-2.006h-3.566c-1.114,0-2.006-.891-2.006-2.006v-5.572h-3.343V27.397h3.343v-10.03c0-.892-.669-1.56-1.337-1.56h-11.144v3.566H44.683v-3.566" fill="#1a1a1a" fill-rule="evenodd"/><path d="M217.064,36.535v-8.024h-4.012v-5.572H41.117v5.572h-4.012v58.841h2.006v4.012h175.947v-4.012h2.006v-50.817Z" fill="#e6e6e6" fill-rule="evenodd"/><path d="M176.656,88.244v-4.903c0-1.114-.669-1.783-1.56-1.783h-3.566c-1.114,0-1.783.669-1.783,1.783v4.903h6.909ZM161.054,88.244v-4.903c0-1.114-.669-1.783-1.783-1.783h-3.566c-.891,0-1.783.669-1.783,1.783v4.903h7.132ZM102.436,88.244v-4.903c0-1.114-.892-1.783-1.783-1.783h-3.566c-1.114,0-1.783.669-1.783,1.783v4.903h7.132ZM86.612,88.244v-4.903c0-1.114-.669-1.783-1.783-1.783h-3.566c-.892,0-1.56.669-1.56,1.783v4.903h6.909ZM52.288,77.323h151.783c.669,0,1.337-.446,1.337-1.114v-37.667c0-.669-.669-1.337-1.337-1.337H52.288c-.669,0-1.337.669-1.337,1.337v37.667c0,.669.669,1.114,1.337,1.114Z" fill="#1a1a1a" fill-rule="evenodd"/><path d="M177.102,87.575h28.306v-9.584H50.951v9.584h28.306v-4.235c0-1.114.891-2.006,2.006-2.006h3.566c1.114,0,2.006.891,2.006,2.006v4.235h8.247v-4.235c0-1.114.892-2.006,2.006-2.006h3.566c1.114,0,2.006.891,2.006,2.006v4.235h51.04v-4.235c0-1.114.892-2.006,2.006-2.006h3.566c1.114,0,2.006.891,2.006,2.006v4.235h8.247v-4.235c0-1.114.891-2.006,2.006-2.006h3.566c1.114,0,2.006.891,2.006,2.006v4.235" fill="#333" fill-rule="evenodd"/><path d="M179.776,80.443l.669,3.566v.223q.223,0,.223-.223l.446-3.566c.223-.223-.223-.669-.446-.669-.446,0-.669.223-.892.446v.223M181.114,85.346c0-.446-.223-.669-.669-.669-.223,0-.446.223-.446.669,0,.223.223.669.446.669.446,0,.669-.446.669-.669ZM105.557,80.443l.446,3.566q0,.223.223.223v-.223l.446-3.566c.223-.223-.223-.669-.446-.669-.446,0-.669.223-.669.446v.223ZM106.671,85.346c0-.446-.223-.669-.669-.669-.223,0-.446.223-.446.669,0,.223.223.669.446.669.446,0,.669-.446.669-.669Z" fill="#fff" fill-rule="evenodd"/><rect x="53.179" y="38.764" width="150" height="36.998" fill="#d9d9d9"/><path d="M202.065,39.656h-73.328v35.438h73.328v-35.438ZM127.622,39.656H54.294v35.438h73.328v-35.438Z" fill="#262626" fill-rule="evenodd"/><path d="M59.839,86.288v-6.647h.879v5.863h3.274v.784h-4.153Z" fill="#fff"/><path d="M65.03,86.288v-6.647h.902l3.492,5.219v-5.219h.843v6.647h-.902l-3.491-5.224v5.224h-.844Z" fill="#fff"/><path d="M71.71,86.288v-6.647h.879v3.297l3.302-3.297h1.192l-2.789,2.693,2.911,3.954h-1.16l-2.367-3.364-1.089,1.061v2.304h-.879Z" fill="#fff"/><path d="M133.356,86.288v-6.647h.879v5.863h3.274v.784h-4.153Z" fill="#fff"/><path d="M138.548,86.288v-6.647h.902l3.492,5.219v-5.219h.843v6.647h-.902l-3.491-5.224v5.224h-.844Z" fill="#fff"/><path d="M145.228,86.288v-6.647h.879v3.297l3.302-3.297h1.192l-2.789,2.693,2.911,3.954h-1.16l-2.367-3.364-1.089,1.061v2.304h-.879Z" fill="#fff"/><rect x="81.048" y="84.689" width="4.012" height="2.675" fill="#8dc63f"/><rect x="155.486" y="84.689" width="4.012" height="2.675" fill="#8dc63f"/><rect x="96.858" y="84.689" width="4.012" height="2.675" fill="#f7941d"/><rect x="171.296" y="84.689" width="4.012" height="2.675" fill="#f7941d"/></g><rect x="46.394" y="73.842" width="141.308" height="17.762" fill="none" stroke="#fff" stroke-linecap="round" stroke-linejoin="round" stroke-width="3"/><rect x="46.394" y="73.842" width="141.308" height="17.762" fill="none" stroke="#231f20" stroke-miterlimit="10"/><path d="M101.42,129.668c0,7.593-6.246,13.745-13.95,13.745s-13.953-6.152-13.953-13.745,6.246-13.755,13.953-13.755,13.95,6.159,13.95,13.755" fill="#221f1f" stroke="#fff" stroke-miterlimit="10" stroke-width="1.5"/><rect x="73.469" y="121.674" width="27.228" height="24.791" fill="none"/><path d="M89.067,136.709h-1.846v-11.761c-.444.424-1.027.848-1.749,1.271s-1.369.742-1.943.954v-1.784c1.032-.485,1.935-1.073,2.707-1.764s1.319-1.36,1.641-2.01h1.189v15.094Z" fill="#fff"/><polyline points="82.848 88.273 82.848 99.263 157.485 99.263 157.485 88.639" fill="none" stroke="#fff" stroke-miterlimit="10" stroke-width="3"/><polyline points="82.848 88.273 82.848 99.263 157.485 99.263 157.485 88.639" fill="none" stroke="#231f20" stroke-miterlimit="10" stroke-width=".75"/><line x1="87.842" y1="99.511" x2="87.842" y2="113.817" fill="none" stroke="#231f20" stroke-miterlimit="10" stroke-width=".75"/><polyline points="98.807 88.207 98.807 104.355 173.269 104.355 173.269 88.573" fill="none" stroke="#fff" stroke-miterlimit="10" stroke-width="3"/><polyline points="98.807 88.207 98.807 104.355 173.269 104.355 173.269 88.573" fill="none" stroke="#231f20" stroke-miterlimit="10" stroke-width=".75"/><line x1="163.709" y1="104.423" x2="163.709" y2="113.817" fill="none" stroke="#231f20" stroke-miterlimit="10" stroke-width=".75"/><path d="M270.336,92.719c0,7.593-6.246,13.745-13.95,13.745s-13.953-6.152-13.953-13.745,6.246-13.755,13.953-13.755,13.95,6.159,13.95,13.755" fill="#221f1f" stroke="#fff" stroke-miterlimit="10" stroke-width="1.5"/><rect x="242.78" y="84.725" width="27.228" height="24.791" fill="none"/><path d="M251.436,95.792l1.845-.246c.212,1.046.572,1.799,1.082,2.261.509.461,1.13.692,1.861.692.868,0,1.601-.301,2.199-.902.598-.602.897-1.347.897-2.235,0-.848-.277-1.546-.831-2.097-.554-.55-1.258-.825-2.112-.825-.349,0-.782.068-1.302.205l.205-1.62c.123.014.222.021.297.021.786,0,1.494-.205,2.123-.615s.943-1.042.943-1.897c0-.677-.229-1.237-.688-1.682s-1.049-.667-1.773-.667c-.718,0-1.316.226-1.795.677s-.786,1.128-.923,2.03l-1.845-.328c.226-1.237.738-2.196,1.538-2.876.8-.68,1.795-1.021,2.984-1.021.82,0,1.575.176,2.266.528s1.219.832,1.584,1.44c.366.608.549,1.254.549,1.938,0,.649-.174,1.241-.522,1.774s-.865.957-1.549,1.271c.889.205,1.579.631,2.071,1.276.492.646.738,1.455.738,2.425,0,1.312-.479,2.425-1.436,3.337-.957.913-2.167,1.369-3.63,1.369-1.319,0-2.415-.393-3.286-1.179-.872-.786-1.369-1.805-1.492-3.056Z" fill="#fff"/><path d="M357.18,92.719c0,7.593-6.246,13.745-13.95,13.745s-13.953-6.152-13.953-13.745,6.246-13.755,13.953-13.755,13.95,6.159,13.95,13.755" fill="#221f1f" stroke="#fff" stroke-miterlimit="10" stroke-width="1.5"/><rect x="329.228" y="84.725" width="27.228" height="17.791" fill="none"/><path d="M343.791,99.761v-3.599h-6.521v-1.692l6.86-9.741h1.507v9.741h2.03v1.692h-2.03v3.599h-1.846ZM343.791,94.47v-6.778l-4.706,6.778h4.706Z" fill="#fff"/><path d="M389.998,92.719c0,7.593-6.246,13.745-13.95,13.745s-13.953-6.152-13.953-13.745,6.246-13.755,13.953-13.755,13.95,6.159,13.95,13.755" fill="#221f1f" stroke="#fff" stroke-miterlimit="10" stroke-width="1.5"/><rect x="362.699" y="84.725" width="27.228" height="16.791" fill="none"/><path d="M371.345,95.823l1.938-.164c.144.943.477,1.653,1,2.128.522.475,1.153.712,1.892.712.889,0,1.641-.335,2.256-1.005s.923-1.559.923-2.666c0-1.053-.296-1.883-.887-2.492-.592-.608-1.366-.913-2.323-.913-.595,0-1.131.135-1.609.405-.479.271-.854.621-1.128,1.051l-1.733-.226,1.456-7.721h7.476v1.764h-5.999l-.81,4.04c.902-.629,1.849-.943,2.84-.943,1.312,0,2.42.455,3.322,1.364s1.354,2.078,1.354,3.507c0,1.36-.396,2.536-1.189,3.527-.964,1.217-2.279,1.825-3.947,1.825-1.367,0-2.483-.383-3.348-1.148-.865-.766-1.359-1.781-1.482-3.045Z" fill="#fff"/><path d="M177.919,129.668c0,7.593-6.246,13.745-13.95,13.745s-13.953-6.152-13.953-13.745,6.246-13.755,13.953-13.755,13.95,6.159,13.95,13.755" fill="#221f1f" stroke="#fff" stroke-miterlimit="10" stroke-width="1.5"/><rect x="150.419" y="121.674" width="27.228" height="24.791" fill="none"/><path d="M168.766,134.936v1.774h-9.936c-.014-.444.058-.872.215-1.282.253-.677.658-1.343,1.215-2,.557-.656,1.362-1.415,2.415-2.276,1.634-1.34,2.738-2.401,3.312-3.184s.861-1.523.861-2.22c0-.731-.262-1.348-.784-1.851-.523-.502-1.205-.753-2.046-.753-.889,0-1.6.267-2.133.8s-.803,1.271-.81,2.215l-1.897-.195c.13-1.415.619-2.493,1.466-3.235.848-.741,1.986-1.112,3.415-1.112,1.442,0,2.584.4,3.425,1.2s1.261,1.791,1.261,2.974c0,.602-.123,1.193-.369,1.774s-.655,1.193-1.225,1.835c-.571.643-1.52,1.524-2.846,2.646-1.107.93-1.818,1.561-2.133,1.892s-.574.665-.779,1h7.373Z" fill="#fff"/><polyline points="256.758 76.868 256.758 41.772 246.856 41.772" fill="none" stroke="#fff" stroke-linecap="round" stroke-linejoin="round" stroke-width="3"/><polyline points="256.758 76.868 256.758 41.772 246.856 41.772" fill="none" stroke="#231f20" stroke-linecap="round" stroke-linejoin="round" stroke-width=".75"/><line x1="343.601" y1="57.669" x2="343.601" y2="76.868" fill="none" stroke="#fff" stroke-linecap="round" stroke-linejoin="round" stroke-width="3"/><line x1="343.601" y1="57.669" x2="343.601" y2="76.868" fill="none" stroke="#231f20" stroke-linecap="round" stroke-linejoin="round" stroke-width=".75"/><polyline points="376.419 76.868 376.419 70.417 358.58 70.417 358.58 57.669" fill="none" stroke="#fff" stroke-linecap="round" stroke-linejoin="round" stroke-width="3"/><polyline points="376.419 76.868 376.419 70.417 358.58 70.417 358.58 57.669" fill="none" stroke="#231f20" stroke-linecap="round" stroke-linejoin="round" stroke-width=".75"/></g></svg>