<?xml version="1.0" encoding="UTF-8"?><svg id="a" xmlns="http://www.w3.org/2000/svg" width="4.625in" height="2.75in" xmlns:xlink="http://www.w3.org/1999/xlink" viewBox="0 0 333 198"><defs><clipPath id="b"><path d="M328.057,115.334c0,29.704-24.078,53.79-53.789,53.79s-53.789-24.086-53.789-53.79,24.082-53.793,53.789-53.793,53.789,24.084,53.789,53.793Z" fill="none" stroke="#231f20" stroke-width=".568"/></clipPath></defs><path d="M149.15,171.43h1.353v3.202h3.675v-3.202h1.353v7.701h-1.353v-3.246h-3.675v3.246h-1.353v-7.701Z" fill="#231f20" stroke-width="0"/><path d="M156.96,177.459v-.022c0-1.254.99-1.87,2.41-1.87.649,0,1.111.099,1.562.242v-.143c0-.825-.506-1.265-1.441-1.265-.649,0-1.133.143-1.661.363l-.363-1.045c.649-.286,1.276-.473,2.2-.473.869,0,1.518.231,1.925.649.429.418.627,1.034.627,1.793v3.443h-1.298v-.726c-.396.473-1.001.847-1.893.847-1.089,0-2.068-.627-2.068-1.793ZM160.954,177.041v-.396c-.341-.132-.792-.231-1.32-.231-.858,0-1.364.363-1.364.968v.022c0,.561.495.88,1.133.88.88,0,1.551-.506,1.551-1.243Z" fill="#231f20" stroke-width="0"/><path d="M163.802,173.322h1.342v.892c.374-.539.913-1.012,1.815-1.012,1.31,0,2.068.88,2.068,2.222v3.708h-1.331v-3.3c0-.902-.451-1.419-1.243-1.419-.77,0-1.309.539-1.309,1.441v3.278h-1.342v-5.809Z" fill="#231f20" stroke-width="0"/><path d="M170.336,176.238v-.022c0-1.925,1.309-3.014,2.695-3.014.957,0,1.562.473,1.98,1.023v-3.125h1.331v8.031h-1.331v-.968c-.429.605-1.034,1.089-1.98,1.089-1.364,0-2.695-1.089-2.695-3.015ZM175.034,176.238v-.022c0-1.122-.792-1.859-1.683-1.859-.913,0-1.672.715-1.672,1.859v.022c0,1.122.77,1.859,1.672,1.859.891,0,1.683-.748,1.683-1.859Z" fill="#231f20" stroke-width="0"/><path d="M178.08,171.1h1.342v8.031h-1.342v-8.031Z" fill="#231f20" stroke-width="0"/><path d="M180.841,176.249v-.022c0-1.661,1.177-3.025,2.838-3.025,1.848,0,2.783,1.452,2.783,3.125,0,.121-.011.242-.022.374h-4.269c.143.946.814,1.474,1.672,1.474.649,0,1.111-.242,1.573-.693l.781.693c-.55.66-1.31,1.089-2.376,1.089-1.683,0-2.981-1.221-2.981-3.014ZM185.143,175.82c-.088-.858-.594-1.529-1.475-1.529-.814,0-1.386.627-1.507,1.529h2.981Z" fill="#231f20" stroke-width="0"/><path d="M187.331,178.372l.594-.902c.638.473,1.309.715,1.903.715.572,0,.902-.242.902-.627v-.022c0-.451-.616-.605-1.298-.814-.858-.242-1.815-.594-1.815-1.694v-.022c0-1.111.913-1.782,2.068-1.782.726,0,1.519.253,2.134.66l-.528.946c-.561-.341-1.155-.55-1.639-.55-.517,0-.814.253-.814.572v.022c0,.429.627.605,1.31.825.847.264,1.804.649,1.804,1.694v.022c0,1.221-.946,1.826-2.156,1.826-.825,0-1.738-.286-2.464-.869Z" fill="#231f20" stroke-width="0"/><path d="M196.218,177.459v-.022c0-1.254.99-1.87,2.41-1.87.649,0,1.111.099,1.562.242v-.143c0-.825-.506-1.265-1.441-1.265-.649,0-1.133.143-1.661.363l-.363-1.045c.649-.286,1.276-.473,2.2-.473.869,0,1.518.231,1.925.649.429.418.627,1.034.627,1.793v3.443h-1.298v-.726c-.396.473-1.001.847-1.892.847-1.089,0-2.068-.627-2.068-1.793ZM200.212,177.041v-.396c-.341-.132-.792-.231-1.32-.231-.858,0-1.364.363-1.364.968v.022c0,.561.495.88,1.133.88.88,0,1.551-.506,1.551-1.243Z" fill="#231f20" stroke-width="0"/><path d="M203.061,173.322h1.342v.892c.374-.539.913-1.012,1.815-1.012,1.31,0,2.068.88,2.068,2.222v3.708h-1.331v-3.3c0-.902-.451-1.419-1.243-1.419-.77,0-1.309.539-1.309,1.441v3.278h-1.342v-5.809Z" fill="#231f20" stroke-width="0"/><path d="M209.594,176.238v-.022c0-1.925,1.309-3.014,2.695-3.014.957,0,1.562.473,1.98,1.023v-3.125h1.331v8.031h-1.331v-.968c-.429.605-1.034,1.089-1.98,1.089-1.364,0-2.695-1.089-2.695-3.015ZM214.292,176.238v-.022c0-1.122-.792-1.859-1.683-1.859-.914,0-1.672.715-1.672,1.859v.022c0,1.122.77,1.859,1.672,1.859.891,0,1.683-.748,1.683-1.859Z" fill="#231f20" stroke-width="0"/><path d="M220.253,176.26v-.022c0-1.65,1.276-3.036,3.025-3.036,1.089,0,1.771.407,2.321,1.001l-.836.891c-.407-.418-.836-.726-1.496-.726-.968,0-1.684.836-1.684,1.848v.022c0,1.034.715,1.859,1.738,1.859.627,0,1.078-.286,1.507-.715l.803.792c-.572.638-1.243,1.089-2.376,1.089-1.727,0-3.003-1.353-3.003-3.003Z" fill="#231f20" stroke-width="0"/><path d="M226.457,177.459v-.022c0-1.254.99-1.87,2.41-1.87.649,0,1.111.099,1.562.242v-.143c0-.825-.506-1.265-1.441-1.265-.649,0-1.133.143-1.661.363l-.363-1.045c.649-.286,1.276-.473,2.2-.473.869,0,1.518.231,1.925.649.429.418.627,1.034.627,1.793v3.443h-1.298v-.726c-.396.473-1.001.847-1.893.847-1.089,0-2.068-.627-2.068-1.793ZM230.451,177.041v-.396c-.341-.132-.792-.231-1.32-.231-.858,0-1.364.363-1.364.968v.022c0,.561.495.88,1.133.88.88,0,1.551-.506,1.551-1.243Z" fill="#231f20" stroke-width="0"/><path d="M234.642,178.229v.902h-1.342v-8.031h1.342v3.19c.429-.605,1.034-1.089,1.98-1.089,1.364,0,2.695,1.078,2.695,3.014v.022c0,1.925-1.32,3.015-2.695,3.015-.968,0-1.573-.484-1.98-1.023ZM237.964,176.238v-.022c0-1.122-.77-1.859-1.661-1.859-.902,0-1.694.749-1.694,1.859v.022c0,1.111.792,1.859,1.694,1.859.913,0,1.661-.715,1.661-1.859Z" fill="#231f20" stroke-width="0"/><path d="M240.757,171.1h1.342v8.031h-1.342v-8.031Z" fill="#231f20" stroke-width="0"/><path d="M243.518,176.249v-.022c0-1.661,1.177-3.025,2.838-3.025,1.848,0,2.783,1.452,2.783,3.125,0,.121-.011.242-.022.374h-4.269c.143.946.814,1.474,1.672,1.474.649,0,1.111-.242,1.573-.693l.781.693c-.55.66-1.31,1.089-2.376,1.089-1.683,0-2.981-1.221-2.981-3.014ZM247.82,175.82c-.088-.858-.594-1.529-1.474-1.529-.814,0-1.386.627-1.507,1.529h2.981Z" fill="#231f20" stroke-width="0"/><path d="M148.985,184.687h1.342v.88c.374-.517.88-1.001,1.771-1.001.836,0,1.43.407,1.738,1.023.462-.616,1.078-1.023,1.958-1.023,1.265,0,2.035.803,2.035,2.222v3.708h-1.331v-3.3c0-.924-.429-1.419-1.177-1.419-.726,0-1.243.506-1.243,1.441v3.278h-1.331v-3.312c0-.902-.44-1.408-1.177-1.408s-1.243.55-1.243,1.441v3.278h-1.342v-5.809Z" fill="#231f20" stroke-width="0"/><path d="M159.039,188.823v-.022c0-1.254.99-1.87,2.41-1.87.649,0,1.111.099,1.562.242v-.143c0-.825-.506-1.265-1.441-1.265-.649,0-1.133.143-1.661.363l-.363-1.045c.649-.286,1.276-.473,2.2-.473.869,0,1.518.231,1.925.649.429.418.627,1.034.627,1.793v3.443h-1.298v-.726c-.396.473-1.001.847-1.893.847-1.089,0-2.068-.627-2.068-1.793ZM163.033,188.405v-.396c-.341-.132-.792-.231-1.32-.231-.858,0-1.364.363-1.364.968v.022c0,.561.495.88,1.133.88.88,0,1.551-.506,1.551-1.243Z" fill="#231f20" stroke-width="0"/><path d="M165.881,184.687h1.342v.891c.374-.54.913-1.012,1.815-1.012,1.31,0,2.068.88,2.068,2.222v3.708h-1.331v-3.3c0-.902-.451-1.419-1.243-1.419-.77,0-1.309.539-1.309,1.441v3.278h-1.342v-5.809Z" fill="#231f20" stroke-width="0"/><path d="M172.316,188.823v-.022c0-1.254.99-1.87,2.41-1.87.649,0,1.111.099,1.562.242v-.143c0-.825-.506-1.265-1.441-1.265-.649,0-1.133.143-1.661.363l-.363-1.045c.649-.286,1.276-.473,2.2-.473.869,0,1.518.231,1.925.649.429.418.627,1.034.627,1.793v3.443h-1.298v-.726c-.396.473-1.001.847-1.892.847-1.089,0-2.068-.627-2.068-1.793ZM176.31,188.405v-.396c-.341-.132-.792-.231-1.32-.231-.858,0-1.364.363-1.364.968v.022c0,.561.495.88,1.133.88.88,0,1.551-.506,1.551-1.243Z" fill="#231f20" stroke-width="0"/><path d="M179.158,191.584l.495-1.001c.627.385,1.276.605,2.068.605,1.188,0,1.837-.605,1.837-1.771v-.44c-.484.616-1.089,1.056-2.046,1.056-1.375,0-2.641-1.012-2.641-2.718v-.022c0-1.716,1.287-2.728,2.641-2.728.979,0,1.584.451,2.035.99v-.869h1.331v4.621c0,.979-.253,1.705-.737,2.189-.528.528-1.342.781-2.387.781-.957,0-1.848-.242-2.596-.693ZM183.57,187.305v-.022c0-.946-.781-1.584-1.705-1.584s-1.65.627-1.65,1.584v.022c0,.946.737,1.595,1.65,1.595.924,0,1.705-.649,1.705-1.595Z" fill="#231f20" stroke-width="0"/><path d="M186.231,187.613v-.022c0-1.661,1.177-3.025,2.838-3.025,1.848,0,2.783,1.452,2.783,3.125,0,.121-.011.242-.022.374h-4.269c.143.946.814,1.474,1.672,1.474.649,0,1.111-.242,1.573-.693l.781.693c-.55.66-1.31,1.089-2.376,1.089-1.683,0-2.981-1.221-2.981-3.014ZM190.533,187.184c-.088-.858-.594-1.529-1.474-1.529-.814,0-1.386.627-1.507,1.529h2.981Z" fill="#231f20" stroke-width="0"/><path d="M193.183,184.687h1.342v.88c.374-.517.88-1.001,1.771-1.001.836,0,1.43.407,1.738,1.023.462-.616,1.078-1.023,1.958-1.023,1.265,0,2.035.803,2.035,2.222v3.708h-1.331v-3.3c0-.924-.429-1.419-1.177-1.419-.726,0-1.243.506-1.243,1.441v3.278h-1.331v-3.312c0-.902-.44-1.408-1.177-1.408s-1.243.55-1.243,1.441v3.278h-1.342v-5.809Z" fill="#231f20" stroke-width="0"/><path d="M203.313,187.613v-.022c0-1.661,1.177-3.025,2.838-3.025,1.848,0,2.783,1.452,2.783,3.125,0,.121-.011.242-.022.374h-4.269c.143.946.814,1.474,1.672,1.474.649,0,1.111-.242,1.573-.693l.781.693c-.55.66-1.31,1.089-2.376,1.089-1.683,0-2.981-1.221-2.981-3.014ZM207.615,187.184c-.088-.858-.594-1.529-1.475-1.529-.814,0-1.386.627-1.507,1.529h2.981Z" fill="#231f20" stroke-width="0"/><path d="M210.266,184.687h1.342v.891c.374-.54.913-1.012,1.815-1.012,1.31,0,2.068.88,2.068,2.222v3.708h-1.331v-3.3c0-.902-.451-1.419-1.243-1.419-.77,0-1.309.539-1.309,1.441v3.278h-1.342v-5.809Z" fill="#231f20" stroke-width="0"/><path d="M217.372,188.889v-3.058h-.737v-1.144h.737v-1.596h1.331v1.596h1.562v1.144h-1.562v2.849c0,.517.264.726.715.726.297,0,.562-.066.825-.198v1.089c-.33.187-.693.297-1.199.297-.979,0-1.672-.429-1.672-1.706Z" fill="#231f20" stroke-width="0"/><path d="M224.62,187.602v-.022c0-1.925,1.309-3.014,2.695-3.014.957,0,1.562.473,1.98,1.023v-3.125h1.331v8.031h-1.331v-.968c-.429.605-1.034,1.089-1.98,1.089-1.364,0-2.695-1.089-2.695-3.015ZM229.318,187.602v-.022c0-1.122-.792-1.859-1.683-1.859-.913,0-1.672.715-1.672,1.859v.022c0,1.122.77,1.859,1.672,1.859.891,0,1.683-.748,1.683-1.859Z" fill="#231f20" stroke-width="0"/><path d="M231.979,187.613v-.022c0-1.661,1.177-3.025,2.838-3.025,1.848,0,2.783,1.452,2.783,3.125,0,.121-.011.242-.022.374h-4.269c.143.946.814,1.474,1.672,1.474.649,0,1.111-.242,1.573-.693l.781.693c-.55.66-1.31,1.089-2.376,1.089-1.683,0-2.981-1.221-2.981-3.014ZM236.281,187.184c-.088-.858-.594-1.529-1.474-1.529-.814,0-1.386.627-1.507,1.529h2.981Z" fill="#231f20" stroke-width="0"/><path d="M238.117,184.687h1.43l1.562,4.269,1.573-4.269h1.397l-2.376,5.853h-1.199l-2.387-5.853Z" fill="#231f20" stroke-width="0"/><path d="M245.234,182.53h1.43v1.265h-1.43v-1.265ZM245.278,184.687h1.342v5.809h-1.342v-5.809Z" fill="#231f20" stroke-width="0"/><path d="M248.039,187.624v-.022c0-1.65,1.276-3.036,3.025-3.036,1.089,0,1.771.407,2.321,1.001l-.836.891c-.407-.418-.836-.726-1.496-.726-.968,0-1.684.836-1.684,1.848v.022c0,1.034.715,1.859,1.738,1.859.627,0,1.078-.286,1.507-.715l.803.792c-.572.638-1.243,1.089-2.376,1.089-1.727,0-3.003-1.353-3.003-3.003Z" fill="#231f20" stroke-width="0"/><path d="M254.155,187.613v-.022c0-1.661,1.177-3.025,2.838-3.025,1.848,0,2.783,1.452,2.783,3.125,0,.121-.011.242-.022.374h-4.269c.143.946.814,1.474,1.672,1.474.649,0,1.111-.242,1.573-.693l.781.693c-.55.66-1.31,1.089-2.376,1.089-1.683,0-2.981-1.221-2.981-3.014ZM258.457,187.184c-.088-.858-.594-1.529-1.474-1.529-.814,0-1.386.627-1.507,1.529h2.981Z" fill="#231f20" stroke-width="0"/><polygon points="47.131 50.342 134.989 101.188 134.989 170.15 46.909 119.121 47.131 50.342" fill="#d1d3d4" stroke-width="0"/><polygon points="233.589 44.631 233.699 75.072 233.818 107.991 137.87 168.328 135.028 101.037 233.589 44.631" fill="#fff" stroke-width="0"/><polygon points="47.637 50.432 145.038 4.297 233.585 44.374 134.081 101.037 47.637 50.432" fill="#fff" stroke-width="0"/><polyline points="144.722 4.283 233.504 44.162 233.504 75.331" fill="none" stroke="#231f20" stroke-linecap="round" stroke-linejoin="round" stroke-width=".568"/><line x1="233.432" y1="44.165" x2="134.639" y2="101.114" fill="none" stroke="#231f20" stroke-linecap="round" stroke-linejoin="round" stroke-width=".568"/><line x1="219.876" y1="116.417" x2="134.639" y2="169.622" fill="none" stroke="#231f20" stroke-linecap="round" stroke-linejoin="round" stroke-width=".568"/><line x1="47.035" y1="50.53" x2="144.677" y2="4.286" fill="none" stroke="#231f20" stroke-linecap="round" stroke-linejoin="round" stroke-width=".568"/><path d="M136.802,112.933c0,.276-.343.305-.771.058-.428-.244-.768-.674-.768-.95,0-.273.34-.302.768-.058.427.244.771.668.771.95" fill="#fff" stroke-width="0"/><path d="M136.802,130.465c0,.276-.343.308-.771.064-.428-.244-.768-.671-.768-.952,0-.273.34-.302.768-.053.427.239.771.663.771.942" fill="#fff" stroke-width="0"/><path d="M136.802,148.003c0,.279-.343.305-.771.061-.428-.244-.768-.668-.768-.944,0-.284.34-.31.768-.061.427.241.771.666.771.944" fill="#fff" stroke-width="0"/><path d="M136.802,165.537c0,.281-.343.31-.771.061-.428-.244-.768-.671-.768-.947,0-.281.34-.305.768-.064.427.244.771.671.771.95" fill="#fff" stroke-width="0"/><line x1="131.393" y1="167.673" x2="131.393" y2="99.369" fill="none" stroke="#231f20" stroke-linecap="round" stroke-linejoin="round" stroke-width=".568"/><polygon points="47.043 50.538 134.629 101.143 134.629 169.604 47.043 119.001 47.043 50.538" fill="none" stroke="#231f20" stroke-linecap="round" stroke-linejoin="round" stroke-width=".568"/><line x1="50.136" y1="56.456" x2="62.406" y2="63.612" fill="none" stroke="#231f20" stroke-linecap="round" stroke-linejoin="round" stroke-width=".568"/><line x1="64.148" y1="64.803" x2="103.098" y2="87.032" fill="none" stroke="#231f20" stroke-linecap="round" stroke-linejoin="round" stroke-width=".568"/><line x1="106.485" y1="88.984" x2="131.121" y2="103.212" fill="none" stroke="#231f20" stroke-linecap="round" stroke-linejoin="round" stroke-width=".568"/><line x1="64.102" y1="125.235" x2="103.226" y2="147.56" fill="none" stroke="#231f20" stroke-linecap="round" stroke-linejoin="round" stroke-width=".568"/><line x1="106.552" y1="149.337" x2="131.223" y2="163.583" fill="none" stroke="#231f20" stroke-linecap="round" stroke-linejoin="round" stroke-width=".568"/><line x1="50.21" y1="52.536" x2="50.21" y2="120.855" fill="none" stroke="#231f20" stroke-linecap="round" stroke-linejoin="round" stroke-width=".568"/><line x1="62.427" y1="127.967" x2="62.427" y2="59.607" fill="none" stroke="#231f20" stroke-linecap="round" stroke-linejoin="round" stroke-width=".568"/><line x1="64.071" y1="128.818" x2="64.071" y2="60.365" fill="none" stroke="#231f20" stroke-linecap="round" stroke-linejoin="round" stroke-width=".568"/><line x1="103.228" y1="151.406" x2="103.228" y2="83.223" fill="none" stroke="#231f20" stroke-linecap="round" stroke-linejoin="round" stroke-width=".568"/><line x1="106.463" y1="84.99" x2="106.463" y2="153.337" fill="none" stroke="#231f20" stroke-linecap="round" stroke-linejoin="round" stroke-width=".568"/><path d="M133.44,122.81c.166.093.296.324.296.512" fill="#fff" stroke-width="0"/><path d="M133.44,158.254c.166.093.296.324.296.515" fill="#fff" stroke-width="0"/><line x1="50.065" y1="117.397" x2="62.476" y2="124.632" fill="none" stroke="#231f20" stroke-linecap="round" stroke-linejoin="round" stroke-width=".568"/><path d="M4.088,70.937l-.031-2.719c.16-1.514,2.8-2.41,2.8-2.41l11.521-3.495c1.078-.035,1.993,2.253,1.993,2.253l.163,4.993c.994,1.047,1.929.297,1.929.297l8.11-2.505c2.553-.044,3.312,3.331,3.312,3.331,0,0,.715,43.879.883,49.031.168,5.152-2.896,6.812-2.896,6.812l-8.429,2.675c-2.844,1.053-1.68,3.653-1.482,6.046s-1.916,3.781-1.916,3.781l-13.538,4.161-1.489-1.511-.023-1.77s1.297-.536,1.521.806l.455.165,10.103-3.299s.935-.3.921-2.099-1.317-1.756-1.317-1.756l-10.199,3.122-.273,1.268s-.218.858-1.226.668l-.068-5.214s.993-.527,1.284.093-.149.949.925.779c1.074-.17,11.135-3.378,11.135-3.378,0,0,.803-.206.768-1.285s-.006-1.574-.006-1.574c0,0,.105-.903-1.282-.678s-10.696,3.049-10.696,3.049c0,0-.845.298-.916.885s-.044,1.396-.539,1.412-.69-.124-.69-.124l-.062-5.43s-.012-.28.708-.27c0,0,.503-.084.607.34l.098.941s-.342.094.73-.151,12.347-3.912,12.347-3.912c0,0,1.059-.634,1.025-1.683l-.039-1.198s-.302-.98-1.582-.698c-1.28.282-12.59,3.83-12.59,3.83,0,0-.473.195-.514.796s.037,1.138-.319,1.24-.492-.134-.492-.134l-.061-5.171s.04-.286.522-.212.518.253.563.701.226.502,1.003.417,12.22-4.118,12.22-4.118c0,0,1.036-.424,1.004-1.382s-.013-1.319-.013-1.319c0,0-.482-.974-1.348-.886s-12.462,4.066-12.462,4.066c0,0-.476.106-.399.643s-.05,1.231-.44,1.214c0,0-.673.2-.679-.398l-.056-5.203s.476-.509,1.122.01c0,0,.181.024.206.803s1.71.034,1.71.034l11.424-3.702s.863-.208.859-1.258-.054-1.648-.054-1.648c0,0-.153-1.015-1.313-.707s-12.057,3.603-12.057,3.603c0,0-.656.111-.674.472s.043,1.318-.073,1.442-1.068.365-1.18-.174l-.19-16.635s-.045-.777.615-.769.678.548.678.548c0,0,.115.776.741.665s12.428-4.185,12.428-4.185c0,0,.861-.268.892-1.139s-.093-1.916-.093-1.916c0,0-.444-.735-1.244-.439s-11.607,3.618-11.607,3.618c0,0-1.25.281-1.387.676s.042,1.288-.315,1.389-.761.172-.765-.515l-.023-3.914s-.037-.613.47-.689.871.032.953.719,1.11.024,1.11.024l11.783-3.744s.802-.236.809-.926-.041-2.158-.041-2.158c0,0-.007-1.139-1.047-.835-1.04.304-12.53,3.828-12.53,3.828,0,0-.537.078-.581.559s.098,1.166-.406,1.333-.561-.087-.561-.087l-.051-4.629s-.017-.751.614-.711.681.637.681.637c0,0-.135.454.761.335.896-.119,12.054-3.693,12.054-3.693,0,0,1.16-.278,1.16-1.207s-.063-1.917-.063-1.917c0,0-.261-.651-1.362-.375s-12.353,3.733-12.353,3.733c0,0-.502.226-.491.586s-.014.886-.297.999c-.651.261-.766-.515-.766-.515l-.031-4.125s.14-.408.598-.307c0,0,.424-.069.506.588s1.502.071,1.502.071l10.827-3.623s1.045-.154,1.046-1.024-.216-2.033-.216-2.033c0,0-.295-.77-1.366-.495-1.071.275-11.05,3.21-11.05,3.21,0,0-.803.206-.793.506l.032.989s.005.51-.55.618-.569-.339-.569-.339l-.042-4.349s.08-.542.653-.441.504.733.504.733c0,0-.167.396.668.249s10.842-3.173,10.842-3.173c0,0,.744-.174.716-1.043s-.212-1.912-.212-1.912c0,0-.239-.892-1.31-.617s-9.989,2.666-9.989,2.666c0,0-.709.323-.732.534s.121.956.036,1.108.03.779-1.199.849Z" fill="#d1d3d4" stroke="#231f20" stroke-miterlimit="10" stroke-width=".568"/><path d="M7.649,101.048s-.038-1.168,1.517-1.759c1.555-.591,2.497-.666,2.497-.666,0,0,.865.332.911,1.724s-.019,6.298-.019,6.298c0,0-.091,1.352-1.876,1.771-1.685.395-2.693.178-2.801-.358s-.229-7.01-.229-7.01Z" fill="#fff" stroke="#231f20" stroke-miterlimit="10" stroke-width=".568"/><rect x="26.175" y="115.349" width="1.753" height="4.001" rx=".244" ry=".244" transform="translate(57.924 233.752) rotate(178.127)" fill="#fff" stroke="#231f20" stroke-miterlimit="10" stroke-width=".568"/><rect x="25.761" y="102.677" width="1.753" height="4.001" rx=".244" ry=".244" transform="translate(56.682 208.429) rotate(178.127)" fill="#fff" stroke="#231f20" stroke-miterlimit="10" stroke-width=".568"/><rect x="25.348" y="90.051" width="1.753" height="4.001" rx=".244" ry=".244" transform="translate(55.444 183.197) rotate(178.127)" fill="#fff" stroke="#231f20" stroke-miterlimit="10" stroke-width=".568"/><rect x="24.904" y="76.481" width="1.753" height="4.001" rx=".244" ry=".244" transform="translate(54.113 156.079) rotate(178.127)" fill="#fff" stroke="#231f20" stroke-miterlimit="10" stroke-width=".568"/><path d="M85.076,121.923l-.009-2.719c.173-1.512,2.82-2.386,2.82-2.386l11.55-3.399c1.079-.026,1.974,2.27,1.974,2.27l.122,4.995c.985,1.055,1.926.313,1.926.313l8.131-2.438c2.553-.023,3.284,3.359,3.284,3.359,0,0,.349,43.883.475,49.037.126,5.154-2.953,6.788-2.953,6.788l-8.451,2.604c-2.853,1.029-1.71,3.639-1.532,6.033s-1.947,3.765-1.947,3.765l-13.573,4.048-1.476-1.523-.008-1.77s1.302-.525,1.514.819l.454.169,10.13-3.215s.937-.293.938-2.092-1.302-1.767-1.302-1.767l-10.224,3.037-.284,1.266s-.226.857-1.231.658l-.025-5.214s.998-.519,1.283.104-.157.948.919.787c1.075-.161,11.163-3.285,11.163-3.285,0,0,.805-.199.778-1.278s.007-1.574.007-1.574c0,0,.113-.902-1.276-.688-1.389.214-10.721,2.959-10.721,2.959,0,0-.847.29-.923.877s-.056,1.395-.55,1.408c-.494.012-.689-.129-.689-.129l-.017-5.43s-.01-.28.71-.264c0,0,.504-.08.604.345l.09.942s-.343.091.731-.145,12.379-3.809,12.379-3.809c0,0,1.064-.626,1.039-1.674l-.029-1.199s-.294-.982-1.576-.711c-1.283.271-12.621,3.725-12.621,3.725,0,0-.475.191-.52.792s.028,1.139-.33,1.237-.491-.138-.491-.138l-.018-5.172s.043-.286.524-.207.516.257.557.706.222.504,1,.425,12.254-4.016,12.254-4.016c0,0,1.039-.415,1.016-1.374s-.002-1.319-.002-1.319c0,0-.474-.978-1.341-.897s-12.495,3.962-12.495,3.962c0,0-.477.102-.404.639s-.06,1.231-.45,1.21c0,0-.674.195-.676-.403l-.013-5.203s.48-.505,1.122.019c0,0,.181.026.199.805s1.71.048,1.71.048l11.455-3.607s.865-.201.869-1.25-.04-1.648-.04-1.648c0,0-.145-1.016-1.307-.718-1.162.298-12.087,3.502-12.087,3.502,0,0-.657.106-.678.466s.032,1.318-.085,1.441-1.071.356-1.178-.184l-.051-16.636s-.039-.778.621-.764.673.553.673.553c0,0,.109.777.736.672.627-.105,12.462-4.081,12.462-4.081,0,0,.863-.261.902-1.131s-.077-1.917-.077-1.917c0,0-.438-.739-1.24-.449s-11.637,3.521-11.637,3.521c0,0-1.252.271-1.393.664s.031,1.288-.326,1.387-.762.166-.76-.521l.01-3.914s-.032-.613.476-.685.87.039.947.726,1.11.033,1.11.033l11.814-3.646s.804-.229.817-.919-.023-2.158-.023-2.158c0,0,.002-1.139-1.04-.844-1.042.295-12.561,3.724-12.561,3.724,0,0-.538.073-.586.554s.088,1.167-.417,1.329-.56-.092-.56-.092l-.012-4.63s-.01-.751.62-.706.675.643.675.643c0,0-.139.453.758.341s12.085-3.592,12.085-3.592c0,0,1.163-.268,1.17-1.198s-.047-1.918-.047-1.918c0,0-.256-.653-1.359-.387s-12.384,3.629-12.384,3.629c0,0-.504.222-.496.582s-.021.885-.306.997c-.653.256-.761-.521-.761-.521l.003-4.125s.143-.407.601-.302c0,0,.425-.066.501.592s1.501.083,1.501.083l10.857-3.532s1.046-.145,1.055-1.015-.199-2.034-.199-2.034c0,0-.289-.772-1.361-.506s-11.077,3.118-11.077,3.118c0,0-.805.199-.797.499l.024.989s0,.51-.555.613-.566-.344-.566-.344l-.006-4.349s.084-.541.656-.435.498.737.498.737c0,0-.17.394.666.254s10.868-3.083,10.868-3.083c0,0,.745-.168.724-1.037s-.197-1.914-.197-1.914c0,0-.232-.894-1.304-.628s-10.011,2.582-10.011,2.582c0,0-.712.317-.737.528s.113.957.027,1.109.024.779-1.206.839Z" fill="#d1d3d4" stroke="#231f20" stroke-miterlimit="10" stroke-width=".568"/><path d="M88.387,152.063s-.028-1.169,1.531-1.746,2.503-.646,2.503-.646c0,0,.863.339.897,1.732s-.071,6.298-.071,6.298c0,0-.102,1.352-1.891,1.755-1.688.381-2.694.156-2.797-.382s-.171-7.011-.171-7.011Z" fill="#fff" stroke="#231f20" stroke-miterlimit="10" stroke-width=".568"/><rect x="106.776" y="166.525" width="1.753" height="4.001" rx=".244" ry=".244" transform="translate(219.378 334.38) rotate(178.605)" fill="#fff" stroke="#231f20" stroke-miterlimit="10" stroke-width=".568"/><rect x="106.468" y="153.851" width="1.753" height="4.001" rx=".244" ry=".244" transform="translate(218.452 309.042) rotate(178.605)" fill="#fff" stroke="#231f20" stroke-miterlimit="10" stroke-width=".568"/><rect x="106.16" y="141.221" width="1.753" height="4.001" rx=".244" ry=".244" transform="translate(217.529 283.795) rotate(178.605)" fill="#fff" stroke="#231f20" stroke-miterlimit="10" stroke-width=".568"/><rect x="105.829" y="127.648" width="1.753" height="4.001" rx=".244" ry=".244" transform="translate(216.537 256.66) rotate(178.605)" fill="#fff" stroke="#231f20" stroke-miterlimit="10" stroke-width=".568"/><path d="M46.9,56.851l-1.496-.867s-1.208-.403-1.208,1.048v58.753c0,1.587.927,2.023.927,2.023l1.777,1.026" fill="#fff" stroke-width="0"/><path d="M46.9,56.851l-1.496-.867s-1.208-.403-1.208,1.048v58.753c0,1.587.927,2.023.927,2.023l1.777,1.026" fill="none" stroke="#231f20" stroke-linecap="round" stroke-linejoin="round" stroke-width=".568"/><path d="M44.841,112.887c0-.284.345-.306.77-.06.426.249.772.672.772.95,0,.276-.345.306-.772.062-.424-.249-.77-.672-.77-.952" fill="#fff" stroke-width="0"/><path d="M44.841,112.887c0-.284.345-.306.77-.06.426.249.772.672.772.95,0,.276-.345.306-.772.062-.424-.249-.77-.672-.77-.952Z" fill="none" stroke="#231f20" stroke-linecap="round" stroke-linejoin="round" stroke-width=".568"/><path d="M44.841,95.296c0-.28.345-.31.77-.062.426.245.772.668.772.948,0,.282-.345.308-.772.062-.424-.247-.77-.666-.77-.948" fill="#fff" stroke-width="0"/><path d="M44.841,95.296c0-.28.345-.31.77-.062.426.245.772.668.772.948,0,.282-.345.308-.772.062-.424-.247-.77-.666-.77-.948Z" fill="none" stroke="#231f20" stroke-linecap="round" stroke-linejoin="round" stroke-width=".568"/><path d="M44.841,77.703c0-.284.345-.31.77-.062.426.243.772.67.772.95,0,.278-.345.304-.772.06-.424-.249-.77-.672-.77-.948" fill="#fff" stroke-width="0"/><path d="M44.841,77.703c0-.284.345-.31.77-.062.426.243.772.67.772.95,0,.278-.345.304-.772.06-.424-.249-.77-.672-.77-.948Z" fill="none" stroke="#231f20" stroke-linecap="round" stroke-linejoin="round" stroke-width=".568"/><path d="M44.841,60.107c0-.28.345-.308.77-.062.426.245.772.67.772.95s-.345.312-.772.062c-.424-.243-.77-.67-.77-.95" fill="#fff" stroke-width="0"/><path d="M44.841,60.107c0-.28.345-.308.77-.062.426.245.772.67.772.95s-.345.312-.772.062c-.424-.243-.77-.67-.77-.95Z" fill="none" stroke="#231f20" stroke-linecap="round" stroke-linejoin="round" stroke-width=".568"/><path d="M43.875,71.579l1.886-1.104c.098-.053.155-.173.155-.339,0-.339-.234-.744-.524-.908-.143-.084-.269-.091-.366-.037l-1.884,1.096c.095-.049.223-.039.366.045.29.164.524.573.524.906,0,.166-.06.288-.157.341" fill="#fff" stroke-width="0"/><path d="M43.875,71.579l1.886-1.104c.098-.053.155-.173.155-.339,0-.339-.234-.744-.524-.908-.143-.084-.269-.091-.366-.037l-1.884,1.096c.095-.049.223-.039.366.045.29.164.524.573.524.906,0,.166-.06.288-.157.341Z" fill="none" stroke="#231f20" stroke-linecap="round" stroke-linejoin="round" stroke-width=".568"/><path d="M42.888,70.952c.164.101.297.331.297.516" fill="#fff" stroke-width="0"/><path d="M42.888,70.952c.164.101.297.331.297.516" fill="none" stroke="#231f20" stroke-linecap="round" stroke-linejoin="round" stroke-width=".568"/><polyline points="43.092 70.332 42.839 70.905 42.327 71.098" fill="none" stroke="#231f20" stroke-linecap="round" stroke-linejoin="round" stroke-width=".568"/><path d="M42.867,71.653c0,.197-.137.282-.306.181-.175-.101-.311-.341-.311-.539s.137-.28.311-.179c.17.099.306.339.306.536" fill="#fff" stroke-width="0"/><path d="M42.867,71.653c0,.197-.137.282-.306.181-.175-.101-.311-.341-.311-.539s.137-.28.311-.179c.17.099.306.339.306.536Z" fill="none" stroke="#231f20" stroke-linecap="round" stroke-linejoin="round" stroke-width=".568"/><polyline points="42.867 71.752 43.174 71.54 43.813 71.604" fill="none" stroke="#231f20" stroke-linecap="round" stroke-linejoin="round" stroke-width=".568"/><path d="M43.875,107.14l1.886-1.104c.098-.053.155-.175.155-.339,0-.337-.234-.744-.524-.906-.143-.084-.269-.095-.366-.041l-1.884,1.102c.095-.051.223-.045.366.041.29.166.524.571.524.907,0,.168-.06.286-.157.341" fill="#fff" stroke-width="0"/><path d="M43.875,107.14l1.886-1.104c.098-.053.155-.175.155-.339,0-.337-.234-.744-.524-.906-.143-.084-.269-.095-.366-.041l-1.884,1.102c.095-.051.223-.045.366.041.29.166.524.571.524.907,0,.168-.06.286-.157.341Z" fill="none" stroke="#231f20" stroke-linecap="round" stroke-linejoin="round" stroke-width=".568"/><path d="M42.888,106.517c.164.093.297.325.297.514" fill="#fff" stroke-width="0"/><path d="M42.888,106.517c.164.093.297.325.297.514" fill="none" stroke="#231f20" stroke-linecap="round" stroke-linejoin="round" stroke-width=".568"/><polyline points="43.092 105.892 42.839 106.463 42.327 106.659" fill="none" stroke="#231f20" stroke-linecap="round" stroke-linejoin="round" stroke-width=".568"/><path d="M42.867,107.216c0,.197-.137.275-.306.177-.175-.101-.311-.341-.311-.536,0-.197.137-.276.311-.177.17.099.306.337.306.537" fill="#fff" stroke-width="0"/><path d="M42.867,107.216c0,.197-.137.275-.306.177-.175-.101-.311-.341-.311-.536,0-.197.137-.276.311-.177.17.099.306.337.306.537Z" fill="none" stroke="#231f20" stroke-linecap="round" stroke-linejoin="round" stroke-width=".568"/><polyline points="42.867 107.312 43.174 107.101 43.813 107.171" fill="none" stroke="#231f20" stroke-linecap="round" stroke-linejoin="round" stroke-width=".568"/><path d="M134.802,168.814l3.69-2.064s.703-.275.703-1.854v-25.145c0-1.087,1.284-1.614,1.284-1.614l.398-.222s.698-.389.698-1.359v-13.166c0-1.089-.803-.865-.803-.865l-.413.068s-1.163.403-1.163-.502v-15.717c0-1.176-.918-.575-.918-.575l-3.44,1.918" fill="none" stroke="#231f20" stroke-linecap="round" stroke-linejoin="round" stroke-width=".568"/><path d="M134.869,169.667l1.535.9s1.211.403,1.211-1.048v-58.815c0-1.585-.927-2.023-.927-2.023l-1.783-1.03" fill="none" stroke="#231f20" stroke-linecap="round" stroke-linejoin="round" stroke-width=".568"/><path d="M136.969,112.77c0,.275-.343.306-.771.06-.425-.245-.769-.674-.769-.958,0-.275.343-.3.769-.053.428.24.771.666.771.952Z" fill="none" stroke="#231f20" stroke-linecap="round" stroke-linejoin="round" stroke-width=".568"/><path d="M136.969,130.365c0,.275-.343.302-.771.057-.425-.249-.769-.67-.769-.95s.343-.306.769-.062c.428.245.771.672.771.954Z" fill="none" stroke="#231f20" stroke-linecap="round" stroke-linejoin="round" stroke-width=".568"/><path d="M136.969,147.965c0,.278-.343.306-.771.068-.425-.255-.769-.674-.769-.956s.343-.306.769-.062c.428.249.771.672.771.95Z" fill="none" stroke="#231f20" stroke-linecap="round" stroke-linejoin="round" stroke-width=".568"/><path d="M136.969,165.572c0,.277-.343.308-.771.062-.425-.247-.769-.676-.769-.954,0-.275.343-.304.769-.058.428.245.771.67.771.95Z" fill="none" stroke="#231f20" stroke-linecap="round" stroke-linejoin="round" stroke-width=".568"/><path d="M134.587,123.302l1.887-1.106c.098-.049.157-.164.157-.339,0-.331-.235-.738-.523-.907-.143-.084-.276-.088-.366-.043l-1.888,1.106c.098-.047.227-.043.369.043.289.164.52.567.52.906,0,.169-.06.284-.156.339Z" fill="#fff" stroke="#231f20" stroke-linecap="round" stroke-linejoin="round" stroke-width=".568"/><path d="M133.6,122.68c.164.095.298.323.298.514" fill="none" stroke="#231f20" stroke-linecap="round" stroke-linejoin="round" stroke-width=".568"/><polyline points="133.806 122.057 133.554 122.624 133.041 122.823" fill="none" stroke="#231f20" stroke-linecap="round" stroke-linejoin="round" stroke-width=".568"/><path d="M133.583,123.374c0,.199-.14.28-.311.183-.171-.101-.31-.341-.31-.539,0-.195.14-.278.31-.177.172.099.311.335.311.532Z" fill="none" stroke="#231f20" stroke-linecap="round" stroke-linejoin="round" stroke-width=".568"/><polyline points="133.583 123.473 133.888 123.263 134.524 123.331" fill="none" stroke="#231f20" stroke-linecap="round" stroke-linejoin="round" stroke-width=".568"/><path d="M134.587,158.883l1.887-1.106c.098-.053.157-.166.157-.341,0-.333-.235-.74-.523-.906-.143-.086-.276-.091-.366-.043l-1.888,1.106c.098-.049.227-.039.369.041.289.164.52.569.52.906,0,.171-.06.288-.156.343Z" fill="#fff" stroke="#231f20" stroke-linecap="round" stroke-linejoin="round" stroke-width=".568"/><path d="M133.6,158.259c.164.092.298.323.298.512" fill="none" stroke="#231f20" stroke-linecap="round" stroke-linejoin="round" stroke-width=".568"/><polyline points="133.806 157.634 133.554 158.203 133.041 158.4" fill="none" stroke="#231f20" stroke-linecap="round" stroke-linejoin="round" stroke-width=".568"/><path d="M133.583,158.955c0,.201-.14.286-.311.179-.171-.095-.31-.335-.31-.537,0-.189.14-.275.31-.175.172.101.311.341.311.532Z" fill="none" stroke="#231f20" stroke-linecap="round" stroke-linejoin="round" stroke-width=".568"/><polyline points="133.583 159.056 133.888 158.844 134.524 158.908" fill="none" stroke="#231f20" stroke-linecap="round" stroke-linejoin="round" stroke-width=".568"/><line x1="30.573" y1="67.351" x2="46.9" y2="61.343" fill="none" stroke="#231f20" stroke-dasharray="0 0 1.363 1.363" stroke-linecap="round" stroke-linejoin="round" stroke-width=".568"/><line x1="30.573" y1="127.25" x2="46.9" y2="121.242" fill="none" stroke="#231f20" stroke-dasharray="0 0 1.363 1.363" stroke-linecap="round" stroke-linejoin="round" stroke-width=".568"/><line x1="114.569" y1="118.462" x2="135.028" y2="110.286" fill="none" stroke="#231f20" stroke-dasharray="0 0 1.363 1.363" stroke-linecap="round" stroke-linejoin="round" stroke-width=".568"/><line x1="115.353" y1="176.665" x2="134.068" y2="169.391" fill="none" stroke="#231f20" stroke-dasharray="0 0 1.363 1.363" stroke-linecap="round" stroke-linejoin="round" stroke-width=".568"/><path d="M216.323,99.576c0,.448-.488.793-.488.793l-7.954,4.589s-.42.289-.42-.294v-1.233l-7.939,4.527s-.7.414-.7-.443v-16.617c0-1.17.881-1.448.881-1.448l22.722-13.119s.95-.477.95.337v16.569c0,.995-.766,1.385-.766,1.385l-6.252,3.674s-.032.607-.032,1.281Z" fill="none" stroke="#6d6e71" stroke-linecap="round" stroke-linejoin="round" stroke-width=".568"/><path d="M199.326,97.351v-2.968c0-.772.637-1.016.637-1.016l3.384-1.952s.504-.363.504.467v2.857" fill="none" stroke="#6d6e71" stroke-linecap="round" stroke-linejoin="round" stroke-width=".568"/><path d="M218.429,86.293v-2.965c0-.772.633-1.021.633-1.021l3.383-1.95s.507-.363.507.467v2.857" fill="none" stroke="#6d6e71" stroke-linecap="round" stroke-linejoin="round" stroke-width=".568"/><path d="M222.858,83.556c.038-.024.095-.021.162.013.127.074.229.252.229.4,0,.074-.02.122-.066.151l-4.398,2.541c.038-.029.065-.08.065-.154,0-.143-.097-.324-.227-.395-.068-.042-.123-.045-.167-.021" fill="none" stroke="#6d6e71" stroke-linecap="round" stroke-linejoin="round" stroke-width=".568"/><path d="M218.85,86.508c0,.149-.097.21-.227.138-.131-.077-.235-.257-.235-.403,0-.149.103-.21.235-.13.13.072.227.252.227.395Z" fill="none" stroke="#6d6e71" stroke-linecap="round" stroke-linejoin="round" stroke-width=".568"/><polyline points="219.946 85.197 219.946 84.006 221.528 83.139 221.528 84.33" fill="none" stroke="#6d6e71" stroke-linecap="round" stroke-linejoin="round" stroke-width=".568"/><path d="M215.491,84.046v2.255c0,3.276-1.733,4.082-1.733,4.082l-4.894,2.862s-1.955.695-1.955-1.939v-2.443l8.582-4.817Z" fill="none" stroke="#6d6e71" stroke-linecap="round" stroke-linejoin="round" stroke-width=".568"/><path d="M203.795,94.574c.034-.024.095-.019.162.016.127.072.233.255.233.4,0,.072-.025.125-.072.151l-4.396,2.541c.042-.029.068-.077.068-.151,0-.151-.102-.329-.227-.398-.07-.04-.123-.045-.168-.016" fill="none" stroke="#6d6e71" stroke-linecap="round" stroke-linejoin="round" stroke-width=".568"/><path d="M199.79,97.531c0,.146-.102.207-.227.133-.127-.077-.237-.255-.237-.403,0-.143.11-.202.237-.127.125.069.227.247.227.398" fill="#fff" stroke-width="0"/><path d="M199.79,97.531c0,.146-.102.207-.227.133-.127-.077-.237-.255-.237-.403,0-.143.11-.202.237-.127.125.069.227.247.227.398Z" fill="none" stroke="#6d6e71" stroke-linecap="round" stroke-linejoin="round" stroke-width=".568"/><polyline points="200.805 96.258 200.805 95.067 202.391 94.192 202.391 95.385" fill="none" stroke="#6d6e71" stroke-linecap="round" stroke-linejoin="round" stroke-width=".568"/><line x1="204.354" y1="101.213" x2="204.696" y2="100.541" fill="#fff" stroke-width="0"/><line x1="204.354" y1="101.213" x2="204.696" y2="100.541" fill="none" stroke="#58595b" stroke-linecap="round" stroke-linejoin="round" stroke-width=".568"/><line x1="204.354" y1="101.213" x2="205.035" y2="100.817" fill="none" stroke="#6d6e71" stroke-linecap="round" stroke-linejoin="round" stroke-width=".568"/><polyline points="224.667 89.868 219.125 86.646 223.395 84.171 231.342 88.722 207.673 102.234 199.952 97.815 204.367 95.282 209.917 98.43" fill="#fff" stroke-width="0"/><line x1="204.367" y1="95.282" x2="209.917" y2="98.43" fill="none" stroke="#6d6e71" stroke-linecap="round" stroke-linejoin="round" stroke-width=".568"/><polyline points="223.395 84.171 231.342 88.722 207.673 102.234 199.952 97.815" fill="none" stroke="#6d6e71" stroke-linecap="round" stroke-linejoin="round" stroke-width=".568"/><line x1="224.667" y1="89.868" x2="219.125" y2="86.646" fill="none" stroke="#6d6e71" stroke-linecap="round" stroke-linejoin="round" stroke-width=".568"/><path d="M206.95,98.534l-.385-.286s.739-1.706,1.22-2.257c.488-.544.968-.737.968-.737l2.902-1.647s.802.164.74.714l-1.676,3.026,8.179-4.673,2.026-3.602s.322-.936,1.321-1.419l2.71-1.676s.869-.064.638.711l-.737,1.385-1.509,1.061-1.196,2.257-12.235,6.986-.772-.578" fill="#fff" stroke-width="0"/><path d="M206.6,97.961l-.461.268s-.15.223.229.459c.375.228.694.093.694.093l1.686-.976" fill="none" stroke="#6d6e71" stroke-linecap="round" stroke-linejoin="round" stroke-width=".568"/><path d="M206.962,98.579s.728-1.355.922-1.695c.458-.777,1.076-1.109,1.076-1.109l3.069-1.74s.544-.191.186.626c-.077.18-1.477,2.751-1.552,2.894-.412.812-.042.581-.042.581l8.679-5.082s.215-.156.671-1.058c.16-.316,1.252-2.313,1.499-2.801.464-.896,1.053-1.151,1.053-1.151l2.861-1.698s.418-.188.255.247c-.057.154-.81,1.541-.81,1.541l-1.456.894-1.268,2.302" fill="none" stroke="#6d6e71" stroke-linecap="round" stroke-linejoin="round" stroke-width=".568"/><polyline points="224.646 89.892 224.367 90.929 211.349 98.446 209.93 98.446" fill="#f1f2f2" stroke-width="0"/><polyline points="224.646 89.892 224.367 90.929 211.349 98.446 209.93 98.446" fill="none" stroke="#6d6e71" stroke-linecap="round" stroke-linejoin="round" stroke-width=".568"/><path d="M170.96,127.971c0,.448-.489.793-.489.793l-7.955,4.589s-.424.292-.424-.292c0-.589.004-1.236.004-1.236l-7.935,4.525s-.708.422-.708-.44v-16.609c0-1.175.885-1.453.885-1.453l22.718-13.121s.953-.472.953.34v16.572c0,.989-.766,1.382-.766,1.382l-6.256,3.674s-.026.61-.026,1.278Z" fill="none" stroke="#231f20" stroke-linecap="round" stroke-linejoin="round" stroke-width=".568"/><path d="M153.965,125.749v-2.965c0-.777.638-1.021.638-1.021l3.375-1.952s.509-.366.509.469v2.857" fill="none" stroke="#231f20" stroke-linecap="round" stroke-linejoin="round" stroke-width=".568"/><path d="M173.068,114.691v-2.965c0-.772.633-1.024.633-1.024l3.38-1.944s.509-.369.509.467v2.851" fill="none" stroke="#231f20" stroke-linecap="round" stroke-linejoin="round" stroke-width=".568"/><path d="M177.652,111.97c.131.072.233.252.233.398,0,.074-.024.125-.064.149l-4.396,2.538c.037-.024.068-.077.068-.149,0-.146-.105-.329-.235-.4-.064-.034-.123-.04-.166-.016" fill="none" stroke="#231f20" stroke-linecap="round" stroke-linejoin="round" stroke-width=".568"/><path d="M173.493,114.906c0,.149-.105.21-.235.135s-.233-.255-.233-.398c0-.154.103-.212.233-.138.13.072.235.255.235.4" fill="#fff" stroke-width="0"/><path d="M173.493,114.906c0,.149-.105.21-.235.135s-.233-.255-.233-.398c0-.154.103-.212.233-.138.13.072.235.255.235.4Z" fill="none" stroke="#231f20" stroke-linecap="round" stroke-linejoin="round" stroke-width=".568"/><polyline points="174.582 113.604 174.582 112.405 176.168 111.535 176.168 112.726" fill="none" stroke="#231f20" stroke-linecap="round" stroke-linejoin="round" stroke-width=".568"/><path d="M170.131,112.447v2.255c0,3.273-1.74,4.082-1.74,4.082l-4.888,2.854s-1.961.705-1.961-1.928v-2.451l8.59-4.811Z" fill="none" stroke="#231f20" stroke-linecap="round" stroke-linejoin="round" stroke-width=".568"/><path d="M158.426,122.974c.043-.026.103-.024.167.013.131.072.229.252.229.4,0,.074-.025.127-.064.154l-4.398,2.533c.039-.021.064-.077.064-.149,0-.146-.102-.329-.233-.4-.062-.034-.119-.04-.159-.016" fill="none" stroke="#231f20" stroke-linecap="round" stroke-linejoin="round" stroke-width=".568"/><path d="M154.425,125.926c0,.149-.102.207-.233.135-.126-.072-.227-.257-.227-.398,0-.154.101-.21.227-.138.131.072.233.255.233.4" fill="#fff" stroke-width="0"/><path d="M154.425,125.926c0,.149-.102.207-.233.135-.126-.072-.227-.257-.227-.398,0-.154.101-.21.227-.138.131.072.233.255.233.4Z" fill="none" stroke="#231f20" stroke-linecap="round" stroke-linejoin="round" stroke-width=".568"/><polyline points="155.437 124.656 155.437 123.462 157.03 122.59 157.03 123.786" fill="none" stroke="#231f20" stroke-linecap="round" stroke-linejoin="round" stroke-width=".568"/><line x1="158.986" y1="129.605" x2="159.332" y2="128.934" fill="#fff" stroke-width="0"/><line x1="158.986" y1="129.605" x2="159.332" y2="128.934" fill="none" stroke="#231f20" stroke-linecap="round" stroke-linejoin="round" stroke-width=".568"/><line x1="158.986" y1="129.605" x2="159.674" y2="129.215" fill="none" stroke="#231f20" stroke-linecap="round" stroke-linejoin="round" stroke-width=".568"/><polyline points="179.306 118.266 173.761 115.041 178.028 112.569 185.977 117.118 162.312 130.634 154.588 126.21 159.006 123.68 164.556 126.828" fill="#fff" stroke-width="0"/><line x1="159.006" y1="123.68" x2="164.556" y2="126.828" fill="none" stroke="#231f20" stroke-linecap="round" stroke-linejoin="round" stroke-width=".568"/><polyline points="178.028 112.569 185.977 117.118 162.312 130.634 154.588 126.21" fill="none" stroke="#231f20" stroke-linecap="round" stroke-linejoin="round" stroke-width=".568"/><line x1="179.306" y1="118.266" x2="173.761" y2="115.041" fill="none" stroke="#231f20" stroke-linecap="round" stroke-linejoin="round" stroke-width=".568"/><path d="M178.232,117.614l1.687-.979s.144-.276-.162-.491c-.379-.276-.761-.056-.761-.056l-1.686.973" fill="none" stroke="#231f20" stroke-linecap="round" stroke-linejoin="round" stroke-width=".568"/><path d="M161.587,126.934l-.385-.292s.739-1.706,1.223-2.252c.484-.552.964-.743.964-.743l2.899-1.642s.806.162.743.711l-1.676,3.026,8.176-4.671,2.033-3.607s.32-.928,1.318-1.416l2.705-1.674s.873-.066.642.705l-.737,1.387-1.513,1.061-1.188,2.255-12.237,6.986-.774-.578.159-.387-2.351,1.13Z" fill="#fff" stroke-width="0"/><path d="M161.237,126.361l-.459.268s-.153.217.227.456c.374.233.692.09.692.09l1.69-.971" fill="none" stroke="#231f20" stroke-linecap="round" stroke-linejoin="round" stroke-width=".568"/><path d="M161.601,126.977s.725-1.358.919-1.698c.46-.777,1.076-1.106,1.076-1.106l3.063-1.735s.552-.199.194.621c-.076.18-1.484,2.753-1.554,2.891-.417.812-.043.581-.043.581l8.679-5.082s.215-.151.671-1.053c.159-.316,1.255-2.321,1.499-2.801.459-.902,1.05-1.151,1.05-1.151l2.863-1.7s.42-.188.257.249c-.057.151-.817,1.544-.817,1.544l-1.453.891-1.264,2.294" fill="none" stroke="#231f20" stroke-linecap="round" stroke-linejoin="round" stroke-width=".568"/><polyline points="164.571 126.841 165.986 126.841 179.002 119.322 179.278 118.293" fill="none" stroke="#231f20" stroke-linecap="round" stroke-linejoin="round" stroke-width=".568"/><path d="M239.096,91.571c0,14.174-11.49,25.67-25.668,25.67s-25.667-11.495-25.667-25.67,11.493-25.667,25.667-25.667,25.668,11.493,25.668,25.667Z" fill="none" stroke="#6d6e71" stroke-miterlimit="10" stroke-width=".568"/><line x1="210.829" y1="66.079" x2="274.268" y2="61.541" fill="none" stroke="#231f20" stroke-dasharray="0 0 1.363 1.363" stroke-linecap="round" stroke-linejoin="round" stroke-width=".568"/><line x1="198.377" y1="112.65" x2="231.425" y2="148.937" fill="none" stroke="#231f20" stroke-dasharray="0 0 1.363 1.363" stroke-linecap="round" stroke-linejoin="round" stroke-width=".568"/><g clip-path="url(#b)"><polygon points="-28.655 44.658 155.456 151.205 155.456 295.725 -29.126 188.786 -28.655 44.658" fill="#d1d3d4" stroke-width="0"/><polygon points="339.43 9.995 362.983 165.838 161.918 292.279 132.896 128.199 339.43 9.995" fill="#fff" stroke-width="0"/><polyline points="176.28 -51.49 362.327 32.078 362.327 165.567" fill="none" stroke="#231f20" stroke-linecap="round" stroke-linejoin="round" stroke-width=".568"/><line x1="362.302" y1="165.599" x2="155.145" y2="294.993" fill="none" stroke="#231f20" stroke-linecap="round" stroke-linejoin="round" stroke-width=".568"/><line x1="-28.434" y1="45.42" x2="176.184" y2="-51.482" fill="none" stroke="#231f20" stroke-linecap="round" stroke-linejoin="round" stroke-width=".568"/><line x1="255.251" y1="135.532" x2="255.965" y2="134.126" fill="#fff" stroke-width="0"/><path d="M155.153,293.192l7.705-4.297s1.46-.57,1.46-3.878v-52.48c0-2.265,2.685-3.358,2.685-3.358l.83-.469s1.46-.804,1.46-2.838v-27.497c0-2.273-1.686-1.801-1.686-1.801l-.854.148s-2.436.836-2.436-1.053v-32.826c0-2.456-1.906-1.21-1.906-1.21l-7.187,4.008" fill="none" stroke="#231f20" stroke-linecap="round" stroke-linejoin="round" stroke-width=".568"/><path d="M155.297,294.982l3.204,1.888s2.524.838,2.524-2.199v-122.784c0-3.318-1.938-4.225-1.938-4.225l-3.723-2.143" fill="#fff" stroke-width="0"/><path d="M155.297,294.982l3.204,1.888s2.524.838,2.524-2.199v-122.784c0-3.318-1.938-4.225-1.938-4.225l-3.723-2.143" fill="none" stroke="#231f20" stroke-linecap="round" stroke-linejoin="round" stroke-width=".568"/><path d="M159.677,176.198c0,.578-.721.639-1.613.119-.894-.509-1.607-1.403-1.607-1.984s.714-.639,1.607-.13c.891.52,1.613,1.408,1.613,1.995" fill="#fff" stroke-width="0"/><path d="M159.677,176.198c0,.578-.721.639-1.613.119-.894-.509-1.607-1.403-1.607-1.984s.714-.639,1.607-.13c.891.52,1.613,1.408,1.613,1.995Z" fill="none" stroke="#231f20" stroke-linecap="round" stroke-linejoin="round" stroke-width=".568"/><line x1="30.343" y1="152.223" x2="-21.715" y2="122.174" fill="none" stroke="#231f20" stroke-linecap="round" stroke-linejoin="round" stroke-width=".568"/><line x1="30.335" y1="150.717" x2="-21.739" y2="120.644" fill="none" stroke="#231f20" stroke-linecap="round" stroke-linejoin="round" stroke-width=".568"/><line x1="148.341" y1="290.908" x2="148.341" y2="147.772" fill="none" stroke="#231f20" stroke-linecap="round" stroke-linejoin="round" stroke-width=".568"/><polygon points="-28.417 45.449 155.124 151.486 155.124 294.956 -28.417 188.913 -28.417 45.449" fill="none" stroke="#231f20" stroke-linecap="round" stroke-linejoin="round" stroke-width=".568"/><line x1="-21.937" y1="57.841" x2="30.006" y2="87.834" fill="none" stroke="#231f20" stroke-linecap="round" stroke-linejoin="round" stroke-width=".568"/><line x1="37.164" y1="91.961" x2="89.044" y2="121.92" fill="none" stroke="#231f20" stroke-linecap="round" stroke-linejoin="round" stroke-width=".568"/><line x1="-21.937" y1="130.97" x2="29.889" y2="160.899" fill="none" stroke="#231f20" stroke-linecap="round" stroke-linejoin="round" stroke-width=".568"/><line x1="96.146" y1="126.012" x2="147.775" y2="155.825" fill="none" stroke="#231f20" stroke-linecap="round" stroke-linejoin="round" stroke-width=".568"/><line x1="36.847" y1="164.909" x2="89.091" y2="195.072" fill="none" stroke="#231f20" stroke-linecap="round" stroke-linejoin="round" stroke-width=".568"/><line x1="30.299" y1="222.8" x2="30.299" y2="79.543" fill="none" stroke="#231f20" stroke-linecap="round" stroke-linejoin="round" stroke-width=".568"/><line x1="37.076" y1="83.253" x2="37.076" y2="226.699" fill="none" stroke="#231f20" stroke-linecap="round" stroke-linejoin="round" stroke-width=".568"/><line x1="89.327" y1="256.817" x2="89.327" y2="113.933" fill="none" stroke="#231f20" stroke-linecap="round" stroke-linejoin="round" stroke-width=".568"/><line x1="96.099" y1="117.644" x2="96.099" y2="260.87" fill="none" stroke="#231f20" stroke-linecap="round" stroke-linejoin="round" stroke-width=".568"/><path d="M154.696,198.197l3.952-2.3c.195-.117.318-.358.318-.719,0-.695-.495-1.538-1.091-1.894-.301-.175-.573-.188-.768-.085l-3.939,2.313c.196-.114.464-.087.772.08.601.345,1.089,1.194,1.089,1.894,0,.358-.119.594-.333.711" fill="#fff" stroke-width="0"/><path d="M154.696,198.197l3.952-2.3c.195-.117.318-.358.318-.719,0-.695-.495-1.538-1.091-1.894-.301-.175-.573-.188-.768-.085l-3.939,2.313c.196-.114.464-.087.772.08.601.345,1.089,1.194,1.089,1.894,0,.358-.119.594-.333.711Z" fill="none" stroke="#231f20" stroke-linecap="round" stroke-linejoin="round" stroke-width=".568"/><path d="M152.635,196.895c.343.196.622.682.622,1.074" fill="#fff" stroke-width="0"/><path d="M152.635,196.895c.343.196.622.682.622,1.074" fill="none" stroke="#231f20" stroke-linecap="round" stroke-linejoin="round" stroke-width=".568"/><polyline points="153.07 195.592 152.537 196.786 151.469 197.192" fill="none" stroke="#231f20" stroke-linecap="round" stroke-linejoin="round" stroke-width=".568"/><path d="M152.594,198.356c0,.416-.288.581-.647.374-.357-.202-.639-.708-.639-1.119s.282-.581.639-.377c.359.215.647.716.647,1.122" fill="#fff" stroke-width="0"/><path d="M152.594,198.356c0,.416-.288.581-.647.374-.357-.202-.639-.708-.639-1.119s.282-.581.639-.377c.359.215.647.716.647,1.122Z" fill="none" stroke="#231f20" stroke-linecap="round" stroke-linejoin="round" stroke-width=".568"/><polyline points="152.594 198.558 153.233 198.12 154.562 198.26" fill="none" stroke="#231f20" stroke-linecap="round" stroke-linejoin="round" stroke-width=".568"/><line x1="89.309" y1="186.277" x2="37.069" y2="156.119" fill="none" stroke="#231f20" stroke-linecap="round" stroke-linejoin="round" stroke-width=".568"/><line x1="89.309" y1="184.76" x2="37.055" y2="154.589" fill="none" stroke="#231f20" stroke-linecap="round" stroke-linejoin="round" stroke-width=".568"/><line x1="148.164" y1="220.254" x2="96.082" y2="190.192" fill="none" stroke="#231f20" stroke-linecap="round" stroke-linejoin="round" stroke-width=".568"/><line x1="148.164" y1="218.742" x2="96.114" y2="188.688" fill="none" stroke="#231f20" stroke-linecap="round" stroke-linejoin="round" stroke-width=".568"/><path d="M202.36,177.285c0,.944-1.029,1.655-1.029,1.655l-16.668,9.623s-.891.615-.891-.613.008-2.589.008-2.589l-16.63,9.48s-1.475.886-1.475-.915v-34.812c0-2.456,1.849-3.04,1.849-3.04l47.61-27.503s1.997-.987,1.997.714v34.728c0,2.072-1.605,2.899-1.605,2.899l-13.119,7.689s-.048,1.284-.048,2.684Z" fill="none" stroke="#231f20" stroke-linecap="round" stroke-linejoin="round" stroke-width=".568"/><path d="M166.743,166.416c0-1.631,1.337-2.138,1.337-2.138l7.073-4.095s1.072-.767,1.072.981v5.986l-9.481,5.48v-6.215Z" fill="none" stroke="#231f20" stroke-linecap="round" stroke-linejoin="round" stroke-width=".568"/><path d="M206.774,143.239c0-1.623,1.326-2.135,1.326-2.135l7.083-4.085s1.065-.769,1.065.976v5.984l-9.474,5.477v-6.217Z" fill="none" stroke="#231f20" stroke-linecap="round" stroke-linejoin="round" stroke-width=".568"/><path d="M206.827,149.038l9.216-5.326c.091-.053.216-.045.342.04.272.151.488.53.488.838,0,.151-.053.263-.141.305l-9.208,5.323c.081-.053.138-.156.138-.313,0-.313-.214-.687-.488-.835-.133-.077-.261-.082-.348-.032" fill="#fff" stroke-width="0"/><path d="M206.827,149.038l9.216-5.326c.091-.053.216-.045.342.04.272.151.488.53.488.838,0,.151-.053.263-.141.305l-9.208,5.323c.081-.053.138-.156.138-.313,0-.313-.214-.687-.488-.835-.133-.077-.261-.082-.348-.032Z" fill="none" stroke="#231f20" stroke-linecap="round" stroke-linejoin="round" stroke-width=".568"/><path d="M207.663,149.905c0,.313-.214.438-.488.289-.265-.164-.492-.538-.492-.841,0-.316.227-.438.492-.284.274.149.488.523.488.835" fill="#fff" stroke-width="0"/><path d="M207.663,149.905c0,.313-.214.438-.488.289-.265-.164-.492-.538-.492-.841,0-.316.227-.438.492-.284.274.149.488.523.488.835Z" fill="none" stroke="#231f20" stroke-linecap="round" stroke-linejoin="round" stroke-width=".568"/><polyline points="209.949 147.168 209.949 144.669 213.271 142.839 213.271 145.34" fill="none" stroke="#231f20" stroke-linecap="round" stroke-linejoin="round" stroke-width=".568"/><polyline points="209.949 147.107 211.36 147.926 211.36 148.536" fill="none" stroke="#231f20" stroke-linecap="round" stroke-linejoin="round" stroke-width=".568"/><polyline points="213.331 145.25 214.746 146.062 214.746 146.592" fill="none" stroke="#231f20" stroke-linecap="round" stroke-linejoin="round" stroke-width=".568"/><path d="M200.613,144.751v4.729c0,6.859-3.637,8.551-3.637,8.551l-10.243,5.984s-4.109,1.475-4.109-4.05v-5.132l17.988-10.082Z" fill="none" stroke="#231f20" stroke-linecap="round" stroke-linejoin="round" stroke-width=".568"/><path d="M166.885,172.132l9.21-5.321c.089-.056.21-.05.35.024.266.162.481.538.481.849,0,.154-.057.26-.138.313l-9.216,5.318c.085-.042.139-.164.139-.318,0-.3-.218-.684-.492-.835-.135-.074-.251-.082-.336-.029" fill="#fff" stroke-width="0"/><path d="M166.885,172.132l9.21-5.321c.089-.056.21-.05.35.024.266.162.481.538.481.849,0,.154-.057.26-.138.313l-9.216,5.318c.085-.042.139-.164.139-.318,0-.3-.218-.684-.492-.835-.135-.074-.251-.082-.336-.029Z" fill="none" stroke="#231f20" stroke-linecap="round" stroke-linejoin="round" stroke-width=".568"/><path d="M167.712,172.997c0,.318-.218.438-.492.287-.265-.151-.477-.533-.477-.836,0-.316.212-.44.477-.286.274.151.492.536.492.835" fill="#fff" stroke-width="0"/><path d="M167.712,172.997c0,.318-.218.438-.492.287-.265-.151-.477-.533-.477-.836,0-.316.212-.44.477-.286.274.151.492.536.492.835Z" fill="none" stroke="#231f20" stroke-linecap="round" stroke-linejoin="round" stroke-width=".568"/><polyline points="169.828 170.341 169.828 167.838 173.166 166.005 173.166 168.514" fill="none" stroke="#231f20" stroke-linecap="round" stroke-linejoin="round" stroke-width=".568"/><line x1="169.828" y1="170.275" x2="171.243" y2="171.095" fill="none" stroke="#231f20" stroke-linecap="round" stroke-linejoin="round" stroke-width=".568"/><line x1="173.215" y1="168.416" x2="174.636" y2="169.235" fill="none" stroke="#231f20" stroke-linecap="round" stroke-linejoin="round" stroke-width=".568"/><line x1="177.266" y1="180.712" x2="177.99" y2="179.309" fill="#fff" stroke-width="0"/><line x1="177.266" y1="180.712" x2="177.99" y2="179.309" fill="none" stroke="#231f20" stroke-linecap="round" stroke-linejoin="round" stroke-width=".568"/><line x1="177.266" y1="180.712" x2="178.704" y2="179.885" fill="none" stroke="#231f20" stroke-linecap="round" stroke-linejoin="round" stroke-width=".568"/><polyline points="219.848 156.947 208.227 150.194 217.17 145.009 233.826 154.541 184.233 182.863 168.049 173.599 177.309 168.291 188.938 174.893" fill="#f1f2f2" stroke-width="0"/><polyline points="219.848 156.947 208.227 150.194 217.17 145.009 233.826 154.541 184.233 182.863 168.049 173.599 177.309 168.291 188.938 174.893" fill="none" stroke="#231f20" stroke-linecap="round" stroke-linejoin="round" stroke-width=".568"/><path d="M217.594,155.581l3.534-2.045s.301-.589-.342-1.034c-.789-.573-1.587-.117-1.587-.117l-3.53,2.045" fill="none" stroke="#231f20" stroke-linecap="round" stroke-linejoin="round" stroke-width=".568"/><path d="M182.72,175.113l-.812-.61s1.552-3.581,2.56-4.727c1.016-1.148,2.024-1.552,2.024-1.552l6.077-3.44s1.694.34,1.556,1.485l-3.506,6.342,17.133-9.785,4.256-7.559s.668-1.949,2.76-2.968l5.667-3.506s1.829-.135,1.354,1.48l-1.554,2.904-3.164,2.231-2.498,4.719-25.638,14.641-1.622-1.209.33-.809-4.92,2.363Z" fill="#f1f2f2" stroke-width="0"/><path d="M181.985,173.912l-.966.562s-.317.456.471.955c.788.483,1.456.188,1.456.188l3.538-2.037" fill="none" stroke="#231f20" stroke-linecap="round" stroke-linejoin="round" stroke-width=".568"/><path d="M187.221,172.962l-4.475,2.244s1.514-2.843,1.926-3.565c.964-1.621,2.254-2.318,2.254-2.318l6.42-3.636s1.152-.416.403,1.302c-.159.385-3.105,5.769-3.256,6.061-.87,1.705-.085,1.215-.085,1.215l18.182-10.647s.45-.313,1.407-2.209c.34-.663,2.63-4.862,3.135-5.862.973-1.894,2.203-2.422,2.203-2.422l6.002-3.562s.879-.387.54.525c-.123.316-1.707,3.231-1.707,3.231l-3.046,1.873-2.651,4.811" fill="none" stroke="#231f20" stroke-linecap="round" stroke-linejoin="round" stroke-width=".568"/><path d="M182.783,175.211l-.886-.793s1.52-2.835,1.939-3.554c.948-1.629,2.239-2.318,2.239-2.318l6.429-3.637s1.022-.44,1.477.883" fill="none" stroke="#231f20" stroke-linecap="round" stroke-linejoin="round" stroke-width=".568"/><line x1="186.385" y1="173.607" x2="187.221" y2="172.962" fill="none" stroke="#231f20" stroke-linecap="round" stroke-linejoin="round" stroke-width=".568"/><polyline points="219.793 157 219.214 159.162 191.929 174.925 188.966 174.925" fill="#f1f2f2" stroke-width="0"/><polyline points="219.793 157 219.214 159.162 191.929 174.925 188.966 174.925" fill="none" stroke="#231f20" stroke-linecap="round" stroke-linejoin="round" stroke-width=".568"/><line x1="219.719" y1="157.135" x2="189.044" y2="174.856" fill="none" stroke="#231f20" stroke-linecap="round" stroke-linejoin="round" stroke-width=".568"/><path d="M190.64,172.864l17.103-10.021s.46-.326,1.411-2.223c.34-.655,2.613-4.856,3.143-5.854.928-1.793,2.205-2.419,2.205-2.419l5.994-3.559s1.305-.294,1.464.849" fill="none" stroke="#231f20" stroke-linecap="round" stroke-linejoin="round" stroke-width=".568"/><line x1="185.767" y1="168.747" x2="186.764" y2="169.323" fill="none" stroke="#231f20" stroke-linecap="round" stroke-linejoin="round" stroke-width=".568"/><line x1="184.209" y1="170.654" x2="185.024" y2="171.127" fill="none" stroke="#231f20" stroke-linecap="round" stroke-linejoin="round" stroke-width=".568"/><line x1="214.37" y1="152.502" x2="215.177" y2="152.963" fill="none" stroke="#231f20" stroke-linecap="round" stroke-linejoin="round" stroke-width=".568"/><line x1="212.54" y1="154.382" x2="213.36" y2="154.854" fill="none" stroke="#231f20" stroke-linecap="round" stroke-linejoin="round" stroke-width=".568"/></g><path d="M328.057,115.334c0,29.704-24.078,53.79-53.789,53.79s-53.789-24.086-53.789-53.79,24.082-53.793,53.789-53.793,53.789,24.084,53.789,53.793Z" fill="none" stroke="#231f20" stroke-width=".568"/><path d="M283.66,132.397c0,1.058-1.166,1.87-1.166,1.87l-18.852,10.883s-1.007.69-1.007-.698v-2.92l-18.816,10.724s-1.655.992-1.655-1.034v-39.393c0-2.774,2.08-3.438,2.08-3.438l53.87-31.102s2.258-1.127,2.258.796v39.284c0,2.35-1.821,3.284-1.821,3.284l-14.832,8.702s-.06,1.448-.06,3.042Z" fill="none" stroke="#231f20" stroke-linecap="round" stroke-linejoin="round" stroke-width=".568"/><path d="M281.68,95.587v5.344c0,7.758-4.111,9.668-4.111,9.668l-11.597,6.782s-4.64,1.66-4.64-4.581v-5.811l20.349-11.403Z" fill="none" stroke="#231f20" stroke-linecap="round" stroke-linejoin="round" stroke-width=".568"/><path d="M287.977,117.148v-25.495l4.496-2.583v-4.284c0-1.525-1.66-.562-1.66-.562l-4.953,2.907s-2.914,1.215-2.914,5.787v8.135c0,8.639-4.583,10.769-4.583,10.769l-12.917,7.557s-5.171,1.626-5.171-5.108v-8.644c0-4.445-3.481-2.024-3.481-2.024l-4.758,2.695s-1.504.729-1.504,2.761v4.244" fill="none" stroke="#231f20" stroke-dasharray="0 0 .852 1.136" stroke-width=".568"/><line x1="250.53" y1="113.302" x2="254.933" y2="110.761" fill="none" stroke="#231f20" stroke-dasharray="0 0 .852 1.136" stroke-width=".568"/><path d="M243.36,120.089c0-1.838,1.513-2.419,1.513-2.419l8.013-4.626s1.199-.867,1.199,1.114v6.766l-10.725,6.196v-7.032Z" fill="none" stroke="#231f20" stroke-linecap="round" stroke-linejoin="round" stroke-width=".568"/><path d="M288.637,93.876c0-1.833,1.517-2.416,1.517-2.416l8.011-4.628s1.199-.865,1.199,1.111v6.771l-10.728,6.191v-7.029Z" fill="none" stroke="#231f20" stroke-linecap="round" stroke-linejoin="round" stroke-width=".568"/><path d="M288.711,100.433l10.426-6.021c.101-.058.237-.053.39.037.308.175.548.602.548.95,0,.172-.057.297-.155.355l-10.428,6.016c.098-.058.159-.178.159-.353,0-.347-.244-.772-.548-.95-.152-.087-.29-.095-.393-.034" fill="#f1f2f2" stroke-width="0"/><path d="M288.711,100.433l10.426-6.021c.101-.058.237-.053.39.037.308.175.548.602.548.95,0,.172-.057.297-.155.355l-10.428,6.016c.098-.058.159-.178.159-.353,0-.347-.244-.772-.548-.95-.152-.087-.29-.095-.393-.034Z" fill="none" stroke="#231f20" stroke-linecap="round" stroke-linejoin="round" stroke-width=".568"/><path d="M289.652,101.417c0,.35-.244.496-.548.316-.305-.172-.552-.599-.552-.95,0-.347.247-.488.552-.316.304.178.548.602.548.95" fill="#fff" stroke-width="0"/><path d="M289.652,101.417c0,.35-.244.496-.548.316-.305-.172-.552-.599-.552-.95,0-.347.247-.488.552-.316.304.178.548.602.548.95Z" fill="none" stroke="#231f20" stroke-linecap="round" stroke-linejoin="round" stroke-width=".568"/><polyline points="292.239 98.313 292.239 95.486 296.003 93.42 296.003 96.25" fill="none" stroke="#231f20" stroke-linecap="round" stroke-linejoin="round" stroke-width=".568"/><polyline points="292.235 98.245 293.84 99.173 293.84 99.857" fill="none" stroke="#231f20" stroke-linecap="round" stroke-linejoin="round" stroke-width=".568"/><polyline points="296.069 96.149 297.671 97.072 297.671 97.661" fill="none" stroke="#231f20" stroke-linecap="round" stroke-linejoin="round" stroke-width=".568"/><path d="M243.519,126.559l10.424-6.018c.099-.058.24-.048.392.037.304.175.548.602.548.947,0,.175-.056.297-.154.361l-10.429,6.013c.095-.056.159-.18.159-.353,0-.35-.248-.777-.549-.952-.154-.085-.292-.093-.391-.034" fill="#f1f2f2" stroke-width="0"/><path d="M243.519,126.559l10.424-6.018c.099-.058.24-.048.392.037.304.175.548.602.548.947,0,.175-.056.297-.154.361l-10.429,6.013c.095-.056.159-.18.159-.353,0-.35-.248-.777-.549-.952-.154-.085-.292-.093-.391-.034Z" fill="none" stroke="#231f20" stroke-linecap="round" stroke-linejoin="round" stroke-width=".568"/><path d="M244.459,127.545c0,.347-.248.493-.549.316-.302-.175-.55-.599-.55-.95,0-.348.248-.491.55-.318.301.175.549.602.549.952" fill="#fff" stroke-width="0"/><path d="M244.459,127.545c0,.347-.248.493-.549.316-.302-.175-.55-.599-.55-.95,0-.348.248-.491.55-.318.301.175.549.602.549.952Z" fill="none" stroke="#231f20" stroke-linecap="round" stroke-linejoin="round" stroke-width=".568"/><polyline points="246.862 124.53 246.862 121.7 250.627 119.633 250.627 122.463" fill="none" stroke="#231f20" stroke-linecap="round" stroke-linejoin="round" stroke-width=".568"/><polyline points="248.459 126.073 248.459 125.384 246.859 124.461" fill="none" stroke="#231f20" stroke-linecap="round" stroke-linejoin="round" stroke-width=".568"/><polyline points="250.689 122.363 252.291 123.286 252.291 123.875" fill="none" stroke="#231f20" stroke-linecap="round" stroke-linejoin="round" stroke-width=".568"/><polyline points="319.007 106.52 319.007 107.321 262.898 139.356 244.586 128.88 244.586 128.073" fill="#fff" stroke-width="0"/><polyline points="319.007 106.52 319.007 107.819 262.898 139.854 244.586 129.308 244.586 128.073" fill="none" stroke="#231f20" stroke-linecap="round" stroke-linejoin="round" stroke-width=".568"/><polyline points="303.264 109.241 290.113 101.594 300.237 95.733 319.081 106.52 262.975 138.555 244.661 128.073 255.137 122.081 268.293 129.54" fill="#fff" stroke-width="0"/><polyline points="300.237 95.733 319.081 106.52 262.975 138.555 244.661 128.073 255.137 122.081 268.293 129.54" fill="none" stroke="#231f20" stroke-linecap="round" stroke-linejoin="round" stroke-width=".568"/><line x1="303.264" y1="109.241" x2="290.113" y2="101.594" fill="none" stroke="#231f20" stroke-linecap="round" stroke-linejoin="round" stroke-width=".568"/><path d="M300.715,107.69l3.997-2.305s.35-.663-.374-1.18c-.904-.637-1.813-.122-1.813-.122l-3.994,2.31" fill="none" stroke="#231f20" stroke-linecap="round" stroke-linejoin="round" stroke-width=".568"/><path d="M261.259,129.784l-.918-.687s1.756-4.04,2.902-5.342c1.149-1.297,2.293-1.753,2.293-1.753l6.868-3.894s1.906.377,1.761,1.679l-3.973,7.175,19.392-11.068,4.807-8.549s.767-2.217,3.131-3.358l6.409-3.971s2.064-.156,1.526,1.679l-1.753,3.281-3.591,2.523-2.821,5.339-29.01,16.564-1.83-1.369.381-.918-5.574,2.668Z" fill="#d1d3d4" stroke-width="0"/><path d="M260.429,128.429l-1.095.631s-.357.523.544,1.088c.881.549,1.644.215,1.644.215l3.993-2.31" fill="none" stroke="#231f20" stroke-linecap="round" stroke-linejoin="round" stroke-width=".568"/><path d="M266.353,127.36l-5.065,2.53s1.717-3.217,2.187-4.024c1.086-1.843,2.538-2.628,2.538-2.628l7.274-4.114s1.294-.461.454,1.48c-.183.43-3.513,6.525-3.68,6.857-.983,1.926-.106,1.376-.106,1.376l20.573-12.05s.509-.366,1.594-2.504c.378-.751,2.969-5.493,3.552-6.631,1.097-2.138,2.492-2.737,2.492-2.737l6.788-4.021s.993-.448.605.584c-.134.358-1.93,3.65-1.93,3.65l-3.443,2.124-3.005,5.451" fill="none" stroke="#231f20" stroke-linecap="round" stroke-linejoin="round" stroke-width=".568"/><path d="M261.333,129.898l-.999-.886s1.713-3.22,2.187-4.026c1.086-1.843,2.538-2.628,2.538-2.628l7.27-4.117s1.154-.499,1.67,1.008" fill="none" stroke="#231f20" stroke-linecap="round" stroke-linejoin="round" stroke-width=".568"/><line x1="265.41" y1="128.092" x2="266.353" y2="127.36" fill="none" stroke="#231f20" stroke-linecap="round" stroke-linejoin="round" stroke-width=".568"/><polyline points="303.114 109.459 268.414 129.492 271.68 129.574 302.546 111.75 303.208 109.294" fill="#d1d3d4" stroke-width="0"/><polyline points="303.114 109.459 268.414 129.492 271.68 129.574 302.546 111.75 303.208 109.294" fill="none" stroke="#231f20" stroke-linecap="round" stroke-linejoin="round" stroke-width=".568"/><path d="M270.222,127.24l19.348-11.331s.517-.369,1.598-2.509c.378-.748,2.963-5.493,3.553-6.631,1.056-2.026,2.492-2.735,2.492-2.735l6.786-4.026s1.471-.334,1.655.955" fill="none" stroke="#231f20" stroke-linecap="round" stroke-linejoin="round" stroke-width=".568"/><line x1="264.707" y1="122.58" x2="265.841" y2="123.238" fill="none" stroke="#231f20" stroke-linecap="round" stroke-linejoin="round" stroke-width=".568"/><line x1="262.942" y1="124.744" x2="263.865" y2="125.275" fill="none" stroke="#231f20" stroke-linecap="round" stroke-linejoin="round" stroke-width=".568"/><line x1="297.066" y1="104.204" x2="297.989" y2="104.743" fill="none" stroke="#231f20" stroke-linecap="round" stroke-linejoin="round" stroke-width=".568"/><line x1="295.003" y1="106.345" x2="295.926" y2="106.878" fill="none" stroke="#231f20" stroke-linecap="round" stroke-linejoin="round" stroke-width=".568"/><line x1="262.898" y1="139.356" x2="262.898" y2="138.518" fill="none" stroke="#231f20" stroke-linecap="round" stroke-linejoin="round" stroke-width=".568"/><path d="M298.683,125.599l-5.949-2.241-2.248,7.607,1.512-.867c.527,2.106.878,3.506.878,5.512,0,3.644-1.17,3.703-2.797,5.589,4.676-.369,8.057-1.565,8.057-8.22,0-2.111-.325-4.323-.912-6.541l1.46-.838Z" fill="#231f20" stroke-width="0"/><path d="M298.683,125.599l-5.949-2.241-2.248,7.607,1.512-.867c.527,2.106.878,3.506.878,5.512,0,3.644-1.17,3.703-2.797,5.589,4.676-.369,8.057-1.565,8.057-8.22,0-2.111-.325-4.323-.912-6.541l1.46-.838Z" fill="none" stroke="#fff" stroke-width=".568"/><path d="M285.02,139.049c-.832-.48-1.639-1.04-2.428-1.668l-4.058,2.342c.707.554,1.439,1.048,2.182,1.475,4.407,2.549,8.285,2.178,10.551-.459-1.846.149-3.975-.377-6.246-1.69" fill="#231f20" stroke-width="0"/></svg>