<?xml version="1.0" encoding="UTF-8"?><svg id="a" xmlns="http://www.w3.org/2000/svg" width="6.25in" height="5.875in" viewBox="0 0 450 423"><polyline points="313.531 278.566 215.117 278.566 215.117 132.898 184.777 132.898" fill="none" stroke="#fff" stroke-miterlimit="10" stroke-width="5"/><polyline points="313.531 278.566 215.117 278.566 215.117 132.898 184.777 132.898" fill="none" stroke="#1670b9" stroke-miterlimit="10" stroke-width="2.989"/><line x1="313.531" y1="327.671" x2="230.237" y2="327.671" fill="none" stroke="#fff" stroke-miterlimit="10" stroke-width="5"/><line x1="313.531" y1="327.671" x2="230.237" y2="327.671" fill="none" stroke="#1670b9" stroke-miterlimit="10" stroke-width="2.989"/><line x1="313.531" y1="72.641" x2="230.237" y2="72.641" fill="none" stroke="#fff" stroke-miterlimit="10" stroke-width="5"/><line x1="313.531" y1="72.641" x2="230.237" y2="72.641" fill="none" stroke="#1670b9" stroke-miterlimit="10" stroke-width="2.989"/><line x1="184.749" y1="121.748" x2="313.531" y2="121.748" fill="none" stroke="#1670b9" stroke-miterlimit="10" stroke-width="2.989"/><polyline points="313.557 376.625 230.237 376.625 230.237 229.246 313.677 229.246" fill="none" stroke="#1670b9" stroke-miterlimit="10" stroke-width="2.989"/><polyline points="313.531 23.691 230.237 23.691 230.237 170.338 313.572 170.338" fill="none" stroke="#1670b9" stroke-miterlimit="10" stroke-width="2.989"/><line x1="183.975" y1="298.722" x2="313.667" y2="298.722" fill="none" stroke="#fff" stroke-miterlimit="10" stroke-width="5"/><line x1="183.975" y1="298.722" x2="313.667" y2="298.722" fill="none" stroke="#1670b9" stroke-dasharray="5 4" stroke-miterlimit="10" stroke-width="2.989"/><polyline points="313.597 397.262 273.88 397.262 273.88 249.914 313.551 249.914" fill="none" stroke="#fff" stroke-miterlimit="10" stroke-width="5"/><polyline points="313.597 397.262 273.88 397.262 273.88 249.914 313.551 249.914" fill="none" stroke="#1670b9" stroke-dasharray="5 4" stroke-miterlimit="10" stroke-width="2.989"/><polyline points="313.549 44.52 273.88 44.52 273.88 191.064 313.61 191.064" fill="none" stroke="#fff" stroke-miterlimit="10" stroke-width="5"/><polyline points="313.549 44.52 273.88 44.52 273.88 191.064 313.61 191.064" fill="none" stroke="#1670b9" stroke-dasharray="5 4" stroke-miterlimit="10" stroke-width="2.989"/><rect x="3.794" y="56.835" width="180.18" height="130.22" fill="#fff" stroke="#231f20" stroke-miterlimit="10" stroke-width="1.593"/><path d="M69.035,122.398l1.162-.102c.055.465.183.847.384,1.146.201.298.513.539.936.724.423.184.899.276,1.428.276.47,0,.884-.07,1.244-.209s.627-.331.803-.574c.176-.244.264-.509.264-.797,0-.292-.084-.547-.254-.765-.169-.218-.449-.401-.838-.549-.25-.097-.802-.249-1.657-.454-.855-.206-1.454-.399-1.796-.581-.444-.233-.775-.521-.993-.866-.218-.345-.327-.731-.327-1.159,0-.47.133-.909.4-1.317.267-.409.656-.719,1.168-.93s1.081-.317,1.708-.317c.69,0,1.298.111,1.825.333.526.222.932.549,1.215.98s.436.92.457,1.466l-1.181.089c-.063-.588-.278-1.033-.644-1.333-.366-.3-.907-.451-1.622-.451-.745,0-1.288.137-1.628.409-.341.273-.511.602-.511.987,0,.334.121.609.362.825.237.216.856.437,1.856.663,1.001.227,1.688.424,2.06.594.542.25.941.566,1.2.949.258.383.387.824.387,1.323,0,.495-.142.962-.425,1.399-.284.438-.691.779-1.222,1.022-.531.243-1.129.365-1.793.365-.842,0-1.548-.123-2.117-.368-.569-.246-1.016-.615-1.34-1.108-.323-.493-.494-1.05-.511-1.672Z" fill="#231f20"/><path d="M79.223,125.388l-2.063-6.741h1.181l1.073,3.891.4,1.447c.017-.072.133-.535.349-1.39l1.073-3.948h1.174l1.009,3.91.336,1.289.387-1.301,1.155-3.897h1.111l-2.107,6.741h-1.187l-1.073-4.037-.26-1.149-1.365,5.186h-1.193Z" fill="#231f20"/><path d="M87.373,117.396v-1.314h1.143v1.314h-1.143ZM87.373,125.388v-6.741h1.143v6.741h-1.143Z" fill="#231f20"/><path d="M92.75,124.366l.165,1.009c-.322.068-.609.102-.863.102-.415,0-.736-.065-.965-.197s-.389-.304-.482-.517c-.093-.214-.14-.664-.14-1.349v-3.878h-.838v-.889h.838v-1.669l1.136-.686v2.355h1.149v.889h-1.149v3.942c0,.326.02.535.06.628.041.093.106.167.197.222.091.055.221.083.39.083.127,0,.294-.015.501-.044Z" fill="#231f20"/><path d="M98.266,122.919l1.124.146c-.123.774-.437,1.381-.943,1.818-.505.438-1.126.657-1.863.657-.922,0-1.664-.302-2.225-.904-.561-.604-.841-1.468-.841-2.593,0-.728.121-1.365.362-1.911s.608-.955,1.101-1.229c.493-.272,1.03-.409,1.609-.409.732,0,1.331.185,1.796.556.465.37.764.896.895,1.577l-1.111.171c-.106-.453-.293-.793-.562-1.022-.269-.229-.593-.343-.974-.343-.576,0-1.043.206-1.403.619-.36.412-.54,1.065-.54,1.958,0,.906.173,1.563.521,1.974s.8.616,1.358.616c.449,0,.823-.138,1.124-.413s.491-.698.571-1.27Z" fill="#231f20"/><path d="M100.367,125.388v-9.306h1.143v3.339c.533-.618,1.206-.927,2.019-.927.5,0,.933.099,1.301.295.368.197.632.469.79.816.159.347.238.851.238,1.511v4.272h-1.143v-4.272c0-.571-.124-.987-.371-1.248-.248-.26-.598-.39-1.051-.39-.338,0-.657.088-.955.263-.299.176-.511.414-.638.714s-.19.715-.19,1.244v3.688h-1.143Z" fill="#231f20"/><path d="M109.615,125.388l3.574-9.306h1.327l3.809,9.306h-1.403l-1.085-2.818h-3.891l-1.022,2.818h-1.308ZM112.3,121.567h3.155l-.971-2.577c-.296-.783-.516-1.426-.66-1.93-.119.597-.286,1.189-.501,1.777l-1.022,2.729Z" fill="#231f20"/><rect x="3.794" y="233.745" width="180.18" height="130.22" fill="#fff" stroke="#231f20" stroke-miterlimit="10" stroke-width="1.593"/><path d="M68.676,300.008l1.162-.102c.055.466.183.848.384,1.146.201.298.513.539.936.724.423.184.899.276,1.428.276.47,0,.884-.07,1.244-.21s.627-.331.803-.574c.176-.243.264-.509.264-.797,0-.292-.084-.547-.254-.765s-.449-.401-.838-.549c-.25-.098-.802-.249-1.657-.454s-1.454-.399-1.796-.581c-.444-.232-.775-.521-.993-.866-.218-.345-.327-.731-.327-1.159,0-.469.133-.908.4-1.316s.656-.719,1.168-.93c.512-.212,1.081-.318,1.708-.318.69,0,1.298.111,1.825.334.526.222.932.549,1.215.98s.436.92.457,1.467l-1.181.088c-.063-.588-.278-1.032-.644-1.332-.366-.301-.907-.451-1.622-.451-.745,0-1.288.137-1.628.409-.341.273-.511.603-.511.987,0,.334.121.609.362.825.237.216.856.437,1.856.663,1.001.227,1.688.425,2.06.594.542.25.941.566,1.2.949s.387.824.387,1.323c0,.495-.142.962-.425,1.399-.284.438-.691.779-1.222,1.022-.531.243-1.129.364-1.793.364-.842,0-1.548-.122-2.117-.367-.569-.246-1.016-.615-1.34-1.108-.323-.493-.494-1.05-.511-1.673Z" fill="#231f20"/><path d="M78.864,302.998l-2.063-6.741h1.181l1.073,3.892.4,1.447c.017-.072.133-.536.349-1.391l1.073-3.948h1.174l1.009,3.91.336,1.288.387-1.301,1.155-3.897h1.111l-2.107,6.741h-1.187l-1.073-4.037-.26-1.148-1.365,5.186h-1.193Z" fill="#231f20"/><path d="M87.015,295.006v-1.313h1.143v1.313h-1.143ZM87.015,302.998v-6.741h1.143v6.741h-1.143Z" fill="#231f20"/><path d="M92.391,301.977l.165,1.009c-.322.067-.609.102-.863.102-.415,0-.736-.065-.965-.196-.229-.132-.389-.304-.482-.518s-.14-.664-.14-1.35v-3.878h-.838v-.889h.838v-1.669l1.136-.686v2.354h1.149v.889h-1.149v3.942c0,.325.02.535.06.628.041.093.106.167.197.222.091.056.221.083.39.083.127,0,.294-.015.501-.044Z" fill="#231f20"/><path d="M97.907,300.529l1.124.146c-.123.774-.437,1.381-.943,1.818-.505.438-1.126.657-1.863.657-.922,0-1.664-.302-2.225-.904-.561-.604-.841-1.468-.841-2.594,0-.728.121-1.364.362-1.91s.608-.955,1.101-1.229c.493-.272,1.03-.409,1.609-.409.732,0,1.331.186,1.796.556s.764.896.895,1.577l-1.111.171c-.106-.452-.293-.793-.562-1.021-.269-.229-.593-.343-.974-.343-.576,0-1.043.206-1.403.619-.36.412-.54,1.065-.54,1.958,0,.905.173,1.563.521,1.975.347.41.8.615,1.358.615.449,0,.823-.138,1.124-.412.3-.275.491-.699.571-1.27Z" fill="#231f20"/><path d="M100.008,302.998v-9.306h1.143v3.339c.533-.618,1.206-.927,2.019-.927.5,0,.933.099,1.301.295.368.197.632.469.79.815.159.348.238.852.238,1.512v4.271h-1.143v-4.271c0-.572-.124-.987-.371-1.248-.248-.26-.598-.391-1.051-.391-.338,0-.657.088-.955.264-.299.176-.511.414-.638.715-.127.3-.19.715-.19,1.244v3.688h-1.143Z" fill="#231f20"/><path d="M110.945,302.998v-9.306h3.491c.711,0,1.281.094,1.711.282.429.188.766.479,1.009.87.244.392.365.801.365,1.228,0,.398-.108.772-.324,1.124s-.542.635-.978.851c.563.165.996.446,1.298.844.302.398.454.868.454,1.41,0,.436-.092.841-.276,1.215-.185.375-.412.664-.683.867s-.61.356-1.019.46c-.409.104-.909.155-1.501.155h-3.548ZM112.177,297.602h2.012c.546,0,.938-.036,1.174-.108.313-.093.549-.247.708-.463.158-.216.238-.486.238-.812,0-.309-.074-.581-.222-.815-.148-.235-.36-.396-.635-.482s-.747-.13-1.416-.13h-1.86v2.812ZM112.177,301.9h2.317c.398,0,.677-.016.838-.045.284-.051.521-.136.711-.254s.347-.291.47-.518.184-.487.184-.783c0-.348-.089-.649-.267-.905s-.424-.436-.739-.539c-.315-.104-.77-.155-1.362-.155h-2.152v3.199Z" fill="#231f20"/><rect x="314.499" y="4.162" width="133.295" height="205.437" fill="#fff" stroke="#231f20" stroke-miterlimit="10" stroke-width="1.593"/><rect x="314.499" y="15.773" width="41.771" height="15.285" fill="#fff" stroke="#231f20" stroke-miterlimit="10" stroke-width="1.631"/><path d="M329.987,25.872l1.181.146c-.187.69-.531,1.225-1.035,1.606-.503.381-1.146.571-1.93.571-.985,0-1.768-.304-2.345-.911-.578-.607-.866-1.458-.866-2.555,0-1.134.291-2.014.875-2.641s1.342-.939,2.273-.939c.9,0,1.637.307,2.209.92.57.614.856,1.477.856,2.59,0,.068-.002.169-.007.305h-5.027c.043.741.252,1.308.629,1.701s.847.59,1.409.59c.419,0,.776-.11,1.073-.33.296-.22.53-.571.704-1.054ZM326.236,24.025h3.764c-.051-.567-.194-.992-.432-1.276-.364-.44-.836-.66-1.416-.66-.524,0-.966.176-1.323.527s-.556.821-.593,1.409Z" fill="#231f20"/><path d="M336.589,28.043h-1.143v-7.281c-.275.262-.637.525-1.083.787s-.847.459-1.202.59v-1.104c.639-.3,1.197-.665,1.676-1.092.478-.427.816-.842,1.016-1.244h.736v9.344Z" fill="#231f20"/><path d="M344.231,27.211c-.423.36-.83.614-1.222.762s-.812.222-1.261.222c-.74,0-1.31-.181-1.707-.543-.397-.361-.597-.824-.597-1.387,0-.33.075-.632.226-.904.15-.273.347-.492.59-.657s.518-.29.822-.375c.225-.059.562-.116,1.016-.171.923-.11,1.602-.241,2.037-.394.005-.157.007-.256.007-.298,0-.465-.108-.793-.323-.984-.293-.258-.727-.387-1.302-.387-.537,0-.935.094-1.19.283-.256.188-.445.521-.568,1l-1.117-.152c.102-.478.27-.864.502-1.159.232-.294.569-.521,1.01-.679.439-.159.949-.238,1.529-.238.575,0,1.043.068,1.402.203.36.135.625.306.794.511.169.206.288.465.355.778.038.195.058.546.058,1.054v1.523c0,1.062.023,1.734.072,2.015.049.282.146.551.289.81h-1.193c-.118-.237-.194-.514-.229-.832ZM344.136,24.66c-.414.169-1.036.313-1.865.432-.471.068-.803.144-.997.229s-.345.208-.45.372c-.106.163-.159.344-.159.542,0,.305.115.559.346.762s.568.305,1.013.305c.44,0,.832-.096,1.174-.289.344-.193.595-.456.756-.791.123-.258.184-.639.184-1.143v-.419Z" fill="#231f20"/><rect x="314.499" y="36.515" width="41.771" height="15.285" fill="#fff" stroke="#231f20" stroke-miterlimit="10" stroke-width="1.631"/><path d="M329.987,46.614l1.181.146c-.187.69-.531,1.225-1.035,1.606-.503.381-1.146.571-1.93.571-.985,0-1.768-.304-2.345-.911-.578-.607-.866-1.458-.866-2.555,0-1.134.291-2.014.875-2.641s1.342-.939,2.273-.939c.9,0,1.637.307,2.209.92.57.614.856,1.477.856,2.59,0,.068-.002.169-.007.305h-5.027c.043.741.252,1.308.629,1.701s.847.59,1.409.59c.419,0,.776-.11,1.073-.33.296-.22.53-.571.704-1.054ZM326.236,44.767h3.764c-.051-.567-.194-.992-.432-1.276-.364-.44-.836-.66-1.416-.66-.524,0-.966.176-1.323.527s-.556.821-.593,1.409Z" fill="#231f20"/><path d="M336.589,48.785h-1.143v-7.281c-.275.262-.637.525-1.083.787s-.847.459-1.202.59v-1.104c.639-.3,1.197-.665,1.676-1.092.478-.427.816-.842,1.016-1.244h.736v9.344Z" fill="#231f20"/><path d="M340.886,48.785h-1.06v-9.306h1.143v3.32c.482-.605,1.099-.908,1.847-.908.415,0,.808.083,1.178.251.37.167.675.402.914.704.239.303.427.668.562,1.095.135.427.203.884.203,1.371,0,1.155-.286,2.048-.857,2.679s-1.257.946-2.057.946-1.42-.332-1.873-.997v.844ZM340.874,45.363c0,.808.109,1.392.33,1.752.359.588.846.882,1.459.882.5,0,.932-.217,1.295-.65.364-.434.547-1.081.547-1.939,0-.88-.175-1.53-.524-1.949-.349-.419-.771-.628-1.267-.628-.499,0-.931.217-1.295.65-.363.434-.545,1.062-.545,1.882Z" fill="#231f20"/><rect x="314.499" y="64.798" width="41.771" height="15.285" fill="#fff" stroke="#231f20" stroke-miterlimit="10" stroke-width="1.631"/><path d="M329.987,74.898l1.181.146c-.187.69-.531,1.225-1.035,1.606-.503.381-1.146.571-1.93.571-.985,0-1.768-.304-2.345-.911-.578-.607-.866-1.458-.866-2.555,0-1.134.291-2.014.875-2.641s1.342-.939,2.273-.939c.9,0,1.637.307,2.209.92.57.614.856,1.477.856,2.59,0,.068-.002.169-.007.305h-5.027c.043.741.252,1.308.629,1.701s.847.59,1.409.59c.419,0,.776-.11,1.073-.33.296-.22.53-.571.704-1.054ZM326.236,73.051h3.764c-.051-.567-.194-.992-.432-1.276-.364-.44-.836-.66-1.416-.66-.524,0-.966.176-1.323.527s-.556.821-.593,1.409Z" fill="#231f20"/><path d="M338.29,75.971v1.098h-6.151c-.009-.275.036-.54.134-.793.156-.419.407-.832.752-1.238s.843-.876,1.494-1.409c1.012-.83,1.695-1.486,2.051-1.971.355-.485.533-.943.533-1.375,0-.453-.162-.834-.485-1.146-.324-.311-.746-.466-1.267-.466-.55,0-.99.165-1.32.495s-.497.787-.502,1.371l-1.174-.121c.08-.876.383-1.543.908-2.003.524-.459,1.229-.688,2.113-.688.893,0,1.6.248,2.12.743s.78,1.109.78,1.841c0,.373-.076.738-.229,1.098s-.404.738-.758,1.136-.94.944-1.762,1.638c-.686.576-1.126.966-1.32,1.171-.194.205-.355.411-.482.619h4.564Z" fill="#231f20"/><path d="M344.231,76.237c-.423.36-.83.614-1.222.762s-.812.222-1.261.222c-.74,0-1.31-.181-1.707-.543-.397-.361-.597-.824-.597-1.387,0-.33.075-.632.226-.904.15-.273.347-.492.59-.657s.518-.29.822-.375c.225-.059.562-.116,1.016-.171.923-.11,1.602-.241,2.037-.394.005-.157.007-.256.007-.298,0-.465-.108-.793-.323-.984-.293-.258-.727-.387-1.302-.387-.537,0-.935.094-1.19.283-.256.188-.445.521-.568,1l-1.117-.152c.102-.478.27-.864.502-1.159.232-.294.569-.521,1.01-.679.439-.159.949-.238,1.529-.238.575,0,1.043.068,1.402.203.36.135.625.306.794.511.169.206.288.465.355.778.038.195.058.546.058,1.054v1.523c0,1.062.023,1.734.072,2.015.049.282.146.551.289.81h-1.193c-.118-.237-.194-.514-.229-.832ZM344.136,73.686c-.414.169-1.036.313-1.865.432-.471.068-.803.144-.997.229s-.345.208-.45.372c-.106.163-.159.344-.159.542,0,.305.115.559.346.762s.568.305,1.013.305c.44,0,.832-.096,1.174-.289.344-.193.595-.456.756-.791.123-.258.184-.639.184-1.143v-.419Z" fill="#231f20"/><rect x="314.499" y="85.54" width="41.771" height="15.285" fill="#fff" stroke="#231f20" stroke-miterlimit="10" stroke-width="1.631"/><path d="M329.987,95.64l1.181.146c-.187.69-.531,1.225-1.035,1.606-.503.381-1.146.571-1.93.571-.985,0-1.768-.304-2.345-.911-.578-.607-.866-1.458-.866-2.555,0-1.134.291-2.014.875-2.641s1.342-.939,2.273-.939c.9,0,1.637.307,2.209.92.57.614.856,1.477.856,2.59,0,.068-.002.169-.007.305h-5.027c.043.741.252,1.308.629,1.701s.847.59,1.409.59c.419,0,.776-.11,1.073-.33.296-.22.53-.571.704-1.054ZM326.236,93.792h3.764c-.051-.567-.194-.992-.432-1.276-.364-.44-.836-.66-1.416-.66-.524,0-.966.176-1.323.527s-.556.821-.593,1.409Z" fill="#231f20"/><path d="M338.29,96.712v1.098h-6.151c-.009-.275.036-.54.134-.793.156-.419.407-.832.752-1.238s.843-.876,1.494-1.409c1.012-.83,1.695-1.486,2.051-1.971.355-.485.533-.943.533-1.375,0-.453-.162-.834-.485-1.146-.324-.311-.746-.466-1.267-.466-.55,0-.99.165-1.32.495s-.497.787-.502,1.371l-1.174-.121c.08-.876.383-1.543.908-2.003.524-.459,1.229-.688,2.113-.688.893,0,1.6.248,2.12.743s.78,1.109.78,1.841c0,.373-.076.738-.229,1.098s-.404.738-.758,1.136-.94.944-1.762,1.638c-.686.576-1.126.966-1.32,1.171-.194.205-.355.411-.482.619h4.564Z" fill="#231f20"/><path d="M340.886,97.811h-1.06v-9.306h1.143v3.32c.482-.605,1.099-.908,1.847-.908.415,0,.808.083,1.178.251.37.167.675.402.914.704.239.303.427.668.562,1.095.135.427.203.884.203,1.371,0,1.155-.286,2.048-.857,2.679s-1.257.946-2.057.946-1.42-.332-1.873-.997v.844ZM340.874,94.389c0,.808.109,1.392.33,1.752.359.588.846.882,1.459.882.5,0,.932-.217,1.295-.65.364-.434.547-1.081.547-1.939,0-.88-.175-1.53-.524-1.949-.349-.419-.771-.628-1.267-.628-.499,0-.931.217-1.295.65-.363.434-.545,1.062-.545,1.882Z" fill="#231f20"/><rect x="314.499" y="113.824" width="41.771" height="15.285" fill="#fff" stroke="#231f20" stroke-miterlimit="10" stroke-width="1.631"/><path d="M329.987,123.924l1.181.146c-.187.69-.531,1.225-1.035,1.606-.503.381-1.146.571-1.93.571-.985,0-1.768-.304-2.345-.911-.578-.607-.866-1.458-.866-2.555,0-1.134.291-2.014.875-2.641s1.342-.939,2.273-.939c.9,0,1.637.307,2.209.92.57.614.856,1.477.856,2.59,0,.068-.002.169-.007.305h-5.027c.043.741.252,1.308.629,1.701s.847.59,1.409.59c.419,0,.776-.11,1.073-.33.296-.22.53-.571.704-1.054ZM326.236,122.077h3.764c-.051-.567-.194-.992-.432-1.276-.364-.44-.836-.66-1.416-.66-.524,0-.966.176-1.323.527s-.556.821-.593,1.409Z" fill="#231f20"/><path d="M332.291,123.638l1.143-.152c.131.647.354,1.114.67,1.4.315.285.699.428,1.151.428.538,0,.992-.186,1.362-.559s.556-.833.556-1.384c0-.525-.172-.958-.515-1.298-.343-.34-.778-.511-1.308-.511-.216,0-.484.042-.807.127l.127-1.003c.076.008.138.013.185.013.486,0,.925-.127,1.313-.381.39-.254.584-.646.584-1.174,0-.419-.142-.766-.425-1.041s-.649-.413-1.099-.413c-.443,0-.814.14-1.11.419s-.486.698-.571,1.257l-1.143-.203c.14-.766.457-1.359.952-1.78.495-.421,1.11-.632,1.847-.632.508,0,.976.109,1.403.327.428.218.754.515.98.892s.34.776.34,1.2c0,.402-.108.768-.323,1.098-.217.33-.536.592-.959.787.55.127.978.391,1.282.79.305.4.457.9.457,1.501,0,.812-.296,1.501-.889,2.066-.593.565-1.342.848-2.247.848-.816,0-1.495-.243-2.034-.73-.54-.487-.848-1.117-.924-1.892Z" fill="#231f20"/><path d="M344.231,125.263c-.423.36-.83.614-1.222.762s-.812.222-1.261.222c-.74,0-1.31-.181-1.707-.543-.397-.361-.597-.824-.597-1.387,0-.33.075-.632.226-.904.15-.273.347-.492.59-.657s.518-.29.822-.375c.225-.059.562-.116,1.016-.171.923-.11,1.602-.241,2.037-.394.005-.157.007-.256.007-.298,0-.465-.108-.793-.323-.984-.293-.258-.727-.387-1.302-.387-.537,0-.935.094-1.19.283-.256.188-.445.521-.568,1l-1.117-.152c.102-.478.27-.864.502-1.159.232-.294.569-.521,1.01-.679.439-.159.949-.238,1.529-.238.575,0,1.043.068,1.402.203.36.135.625.306.794.511.169.206.288.465.355.778.038.195.058.546.058,1.054v1.523c0,1.062.023,1.734.072,2.015.049.282.146.551.289.81h-1.193c-.118-.237-.194-.514-.229-.832ZM344.136,122.711c-.414.169-1.036.313-1.865.432-.471.068-.803.144-.997.229s-.345.208-.45.372c-.106.163-.159.344-.159.542,0,.305.115.559.346.762s.568.305,1.013.305c.44,0,.832-.096,1.174-.289.344-.193.595-.456.756-.791.123-.258.184-.639.184-1.143v-.419Z" fill="#231f20"/><rect x="314.499" y="134.566" width="41.771" height="15.285" fill="#fff" stroke="#231f20" stroke-miterlimit="10" stroke-width="1.631"/><path d="M329.987,144.665l1.181.146c-.187.69-.531,1.225-1.035,1.606-.503.381-1.146.571-1.93.571-.985,0-1.768-.304-2.345-.911-.578-.607-.866-1.458-.866-2.555,0-1.134.291-2.014.875-2.641s1.342-.939,2.273-.939c.9,0,1.637.307,2.209.92.57.614.856,1.477.856,2.59,0,.068-.002.169-.007.305h-5.027c.043.741.252,1.308.629,1.701s.847.59,1.409.59c.419,0,.776-.11,1.073-.33.296-.22.53-.571.704-1.054ZM326.236,142.818h3.764c-.051-.567-.194-.992-.432-1.276-.364-.44-.836-.66-1.416-.66-.524,0-.966.176-1.323.527s-.556.821-.593,1.409Z" fill="#231f20"/><path d="M332.291,144.38l1.143-.152c.131.647.354,1.114.67,1.4.315.285.699.428,1.151.428.538,0,.992-.186,1.362-.559s.556-.833.556-1.384c0-.525-.172-.958-.515-1.298-.343-.34-.778-.511-1.308-.511-.216,0-.484.042-.807.127l.127-1.003c.076.008.138.013.185.013.486,0,.925-.127,1.313-.381.39-.254.584-.646.584-1.174,0-.419-.142-.766-.425-1.041s-.649-.413-1.099-.413c-.443,0-.814.14-1.11.419s-.486.698-.571,1.257l-1.143-.203c.14-.766.457-1.359.952-1.78.495-.421,1.11-.632,1.847-.632.508,0,.976.109,1.403.327.428.218.754.515.98.892s.34.776.34,1.2c0,.402-.108.768-.323,1.098-.217.33-.536.592-.959.787.55.127.978.391,1.282.79.305.4.457.9.457,1.501,0,.812-.296,1.501-.889,2.066-.593.565-1.342.848-2.247.848-.816,0-1.495-.243-2.034-.73-.54-.487-.848-1.117-.924-1.892Z" fill="#231f20"/><path d="M340.886,146.836h-1.06v-9.306h1.143v3.32c.482-.605,1.099-.908,1.847-.908.415,0,.808.083,1.178.251.37.167.675.402.914.704.239.303.427.668.562,1.095.135.427.203.884.203,1.371,0,1.155-.286,2.048-.857,2.679s-1.257.946-2.057.946-1.42-.332-1.873-.997v.844ZM340.874,143.415c0,.808.109,1.392.33,1.752.359.588.846.882,1.459.882.5,0,.932-.217,1.295-.65.364-.434.547-1.081.547-1.939,0-.88-.175-1.53-.524-1.949-.349-.419-.771-.628-1.267-.628-.499,0-.931.217-1.295.65-.363.434-.545,1.062-.545,1.882Z" fill="#231f20"/><rect x="314.499" y="162.85" width="41.771" height="15.285" fill="#fff" stroke="#231f20" stroke-miterlimit="10" stroke-width="1.631"/><path d="M329.987,172.949l1.181.146c-.187.689-.531,1.225-1.035,1.605-.503.381-1.146.571-1.93.571-.985,0-1.768-.304-2.345-.911-.578-.606-.866-1.458-.866-2.555,0-1.134.291-2.014.875-2.641s1.342-.939,2.273-.939c.9,0,1.637.307,2.209.92.57.614.856,1.477.856,2.59,0,.068-.002.169-.007.305h-5.027c.043.74.252,1.308.629,1.701s.847.59,1.409.59c.419,0,.776-.109,1.073-.33.296-.22.53-.571.704-1.054ZM326.236,171.102h3.764c-.051-.567-.194-.992-.432-1.276-.364-.44-.836-.66-1.416-.66-.524,0-.966.176-1.323.527s-.556.821-.593,1.409Z" fill="#231f20"/><path d="M335.947,175.12v-2.228h-4.037v-1.048l4.247-6.03h.933v6.03h1.257v1.048h-1.257v2.228h-1.143ZM335.947,171.845v-4.196l-2.913,4.196h2.913Z" fill="#231f20"/><path d="M344.231,174.289c-.423.359-.83.613-1.222.762-.392.147-.812.222-1.261.222-.74,0-1.31-.181-1.707-.543-.397-.361-.597-.823-.597-1.387,0-.33.075-.632.226-.904.15-.273.347-.492.59-.657s.518-.29.822-.375c.225-.059.562-.116,1.016-.171.923-.11,1.602-.241,2.037-.394.005-.157.007-.256.007-.298,0-.465-.108-.793-.323-.984-.293-.258-.727-.387-1.302-.387-.537,0-.935.094-1.19.283-.256.188-.445.521-.568,1l-1.117-.152c.102-.478.27-.864.502-1.159.232-.294.569-.521,1.01-.679.439-.159.949-.238,1.529-.238.575,0,1.043.068,1.402.203.36.135.625.306.794.511.169.206.288.465.355.778.038.195.058.546.058,1.054v1.524c0,1.062.023,1.733.072,2.015.049.282.146.552.289.81h-1.193c-.118-.236-.194-.514-.229-.831ZM344.136,171.737c-.414.169-1.036.313-1.865.432-.471.067-.803.144-.997.229-.194.084-.345.208-.45.371-.106.163-.159.344-.159.543,0,.305.115.559.346.762s.568.305,1.013.305c.44,0,.832-.097,1.174-.289.344-.192.595-.456.756-.79.123-.259.184-.64.184-1.143v-.419Z" fill="#231f20"/><rect x="314.499" y="183.592" width="41.771" height="15.285" fill="#fff" stroke="#231f20" stroke-miterlimit="10" stroke-width="1.631"/><path d="M329.987,193.691l1.181.146c-.187.69-.531,1.226-1.035,1.606-.503.381-1.146.571-1.93.571-.985,0-1.768-.304-2.345-.911-.578-.607-.866-1.459-.866-2.555,0-1.135.291-2.015.875-2.641.584-.627,1.342-.939,2.273-.939.9,0,1.637.307,2.209.92.57.614.856,1.478.856,2.59,0,.068-.002.17-.007.305h-5.027c.043.741.252,1.308.629,1.701s.847.591,1.409.591c.419,0,.776-.11,1.073-.33.296-.221.53-.571.704-1.054ZM326.236,191.844h3.764c-.051-.566-.194-.992-.432-1.275-.364-.44-.836-.66-1.416-.66-.524,0-.966.176-1.323.526-.357.352-.556.821-.593,1.409Z" fill="#231f20"/><path d="M335.947,195.862v-2.229h-4.037v-1.047l4.247-6.03h.933v6.03h1.257v1.047h-1.257v2.229h-1.143ZM335.947,192.587v-4.196l-2.913,4.196h2.913Z" fill="#231f20"/><path d="M340.886,195.862h-1.06v-9.306h1.143v3.319c.482-.604,1.099-.907,1.847-.907.415,0,.808.083,1.178.251.37.167.675.401.914.704s.427.668.562,1.095c.135.428.203.885.203,1.371,0,1.155-.286,2.049-.857,2.679-.571.631-1.257.946-2.057.946s-1.42-.332-1.873-.997v.845ZM340.874,192.44c0,.809.109,1.393.33,1.752.359.589.846.883,1.459.883.5,0,.932-.217,1.295-.65.364-.435.547-1.081.547-1.939,0-.881-.175-1.53-.524-1.949-.349-.419-.771-.628-1.267-.628-.499,0-.931.217-1.295.65-.363.434-.545,1.062-.545,1.882Z" fill="#231f20"/><path d="M381.729,111.972v-9.306h1.264l4.887,7.306v-7.306h1.182v9.306h-1.264l-4.888-7.312v7.312h-1.181Z" fill="#231f20"/><path d="M390.71,108.982l1.162-.102c.055.465.183.847.384,1.146.201.298.513.539.937.724.423.184.898.276,1.428.276.47,0,.885-.07,1.244-.209s.627-.331.803-.574c.176-.244.264-.509.264-.797,0-.292-.085-.547-.254-.765-.169-.218-.448-.401-.838-.549-.25-.097-.802-.249-1.656-.454-.855-.206-1.454-.399-1.797-.581-.444-.233-.775-.521-.993-.866-.218-.345-.327-.731-.327-1.159,0-.47.133-.909.4-1.317.266-.409.655-.719,1.168-.93.512-.211,1.081-.317,1.707-.317.689,0,1.298.111,1.825.333.526.222.932.549,1.216.98.283.432.436.92.457,1.466l-1.182.089c-.062-.588-.277-1.033-.644-1.333s-.907-.451-1.622-.451c-.745,0-1.287.137-1.628.409-.341.273-.511.602-.511.987,0,.334.12.609.361.825.237.216.855.437,1.856.663,1.001.227,1.688.424,2.06.594.542.25.942.566,1.2.949.258.383.388.824.388,1.323,0,.495-.143.962-.426,1.399-.283.438-.69.779-1.222,1.022-.531.243-1.129.365-1.794.365-.842,0-1.547-.123-2.116-.368s-1.016-.615-1.34-1.108c-.323-.493-.494-1.05-.511-1.672Z" fill="#231f20"/><path d="M399.763,111.972v-9.306h1.854l2.203,6.589c.203.614.351,1.073.443,1.377.106-.338.271-.836.496-1.492l2.228-6.475h1.657v9.306h-1.188v-7.789l-2.704,7.789h-1.11l-2.691-7.922v7.922h-1.188Z" fill="#231f20"/><path d="M412.501,111.972l3.574-9.306h1.326l3.809,9.306h-1.402l-1.086-2.818h-3.891l-1.021,2.818h-1.309ZM415.187,108.151h3.154l-.971-2.577c-.296-.783-.517-1.426-.66-1.93-.118.597-.285,1.189-.502,1.777l-1.021,2.729Z" fill="#231f20"/><rect x="314.499" y="209.879" width="133.295" height="205.437" fill="#fff" stroke="#231f20" stroke-miterlimit="10" stroke-width="1.593"/><rect x="314.499" y="221.49" width="41.771" height="15.285" fill="#fff" stroke="#231f20" stroke-miterlimit="10" stroke-width="1.631"/><path d="M329.987,231.589l1.181.146c-.187.689-.531,1.225-1.035,1.605-.503.381-1.146.571-1.93.571-.985,0-1.768-.304-2.345-.911-.578-.606-.866-1.458-.866-2.555,0-1.134.291-2.014.875-2.641.584-.626,1.342-.939,2.273-.939.9,0,1.637.307,2.209.921.57.613.856,1.477.856,2.59,0,.067-.002.169-.007.305h-5.027c.043.74.252,1.308.629,1.701s.847.59,1.409.59c.419,0,.776-.109,1.073-.33.296-.22.53-.571.704-1.054ZM326.236,229.742h3.764c-.051-.567-.194-.992-.432-1.276-.364-.439-.836-.66-1.416-.66-.524,0-.966.176-1.323.527-.357.351-.556.82-.593,1.409Z" fill="#231f20"/><path d="M336.589,233.76h-1.143v-7.28c-.275.262-.637.524-1.083.787-.446.262-.847.459-1.202.59v-1.104c.639-.3,1.197-.664,1.676-1.092.478-.427.816-.842,1.016-1.244h.736v9.344Z" fill="#231f20"/><path d="M344.231,232.929c-.423.359-.83.613-1.222.762-.392.147-.812.222-1.261.222-.74,0-1.31-.181-1.707-.543-.397-.361-.597-.823-.597-1.387,0-.33.075-.632.226-.904.15-.273.347-.492.59-.657s.518-.29.822-.374c.225-.06.562-.116,1.016-.172.923-.109,1.602-.241,2.037-.394.005-.156.007-.256.007-.298,0-.466-.108-.794-.323-.984-.293-.258-.727-.387-1.302-.387-.537,0-.935.094-1.19.282s-.445.521-.568,1l-1.117-.152c.102-.479.27-.864.502-1.159.232-.294.569-.521,1.01-.679.439-.159.949-.238,1.529-.238.575,0,1.043.068,1.402.203.36.136.625.306.794.511.169.206.288.465.355.778.038.194.058.546.058,1.054v1.523c0,1.062.023,1.733.072,2.015.049.282.146.552.289.81h-1.193c-.118-.236-.194-.514-.229-.831ZM344.136,230.377c-.414.169-1.036.312-1.865.432-.471.067-.803.144-.997.229-.194.084-.345.208-.45.371-.106.163-.159.344-.159.543,0,.305.115.559.346.762s.568.305,1.013.305c.44,0,.832-.097,1.174-.289.344-.192.595-.456.756-.79.123-.259.184-.64.184-1.143v-.419Z" fill="#231f20"/><rect x="314.499" y="242.231" width="41.771" height="15.285" fill="#fff" stroke="#231f20" stroke-miterlimit="10" stroke-width="1.631"/><path d="M329.987,252.331l1.181.146c-.187.69-.531,1.226-1.035,1.606-.503.381-1.146.571-1.93.571-.985,0-1.768-.304-2.345-.911-.578-.607-.866-1.459-.866-2.555,0-1.135.291-2.015.875-2.641.584-.627,1.342-.939,2.273-.939.9,0,1.637.307,2.209.92.57.614.856,1.478.856,2.59,0,.068-.002.17-.007.305h-5.027c.043.741.252,1.308.629,1.701s.847.591,1.409.591c.419,0,.776-.11,1.073-.33.296-.221.53-.571.704-1.054ZM326.236,250.483h3.764c-.051-.566-.194-.992-.432-1.275-.364-.44-.836-.66-1.416-.66-.524,0-.966.176-1.323.526-.357.352-.556.821-.593,1.409Z" fill="#231f20"/><path d="M336.589,254.502h-1.143v-7.281c-.275.263-.637.525-1.083.787-.446.263-.847.459-1.202.591v-1.104c.639-.301,1.197-.665,1.676-1.092.478-.428.816-.843,1.016-1.244h.736v9.344Z" fill="#231f20"/><path d="M340.886,254.502h-1.06v-9.306h1.143v3.319c.482-.604,1.099-.907,1.847-.907.415,0,.808.083,1.178.251.37.167.675.401.914.704s.427.668.562,1.095c.135.428.203.885.203,1.371,0,1.155-.286,2.049-.857,2.679-.571.631-1.257.946-2.057.946s-1.42-.332-1.873-.997v.845ZM340.874,251.08c0,.809.109,1.393.33,1.752.359.589.846.883,1.459.883.5,0,.932-.217,1.295-.65.364-.435.547-1.081.547-1.939,0-.881-.175-1.53-.524-1.949-.349-.419-.771-.628-1.267-.628-.499,0-.931.217-1.295.65-.363.434-.545,1.062-.545,1.882Z" fill="#231f20"/><rect x="314.499" y="270.515" width="41.771" height="15.285" fill="#fff" stroke="#231f20" stroke-miterlimit="10" stroke-width="1.631"/><path d="M329.987,280.615l1.181.146c-.187.69-.531,1.226-1.035,1.606-.503.381-1.146.571-1.93.571-.985,0-1.768-.304-2.345-.911-.578-.607-.866-1.459-.866-2.555,0-1.135.291-2.015.875-2.641.584-.627,1.342-.939,2.273-.939.9,0,1.637.307,2.209.92.57.614.856,1.478.856,2.59,0,.068-.002.17-.007.305h-5.027c.043.741.252,1.308.629,1.701s.847.591,1.409.591c.419,0,.776-.11,1.073-.33.296-.221.53-.571.704-1.054ZM326.236,278.768h3.764c-.051-.566-.194-.992-.432-1.275-.364-.44-.836-.66-1.416-.66-.524,0-.966.176-1.323.526-.357.352-.556.821-.593,1.409Z" fill="#231f20"/><path d="M338.29,281.687v1.099h-6.151c-.009-.275.036-.54.134-.794.156-.419.407-.831.752-1.237s.843-.876,1.494-1.409c1.012-.83,1.695-1.486,2.051-1.971.355-.485.533-.943.533-1.375,0-.452-.162-.834-.485-1.146-.324-.311-.746-.467-1.267-.467-.55,0-.99.165-1.32.495s-.497.787-.502,1.371l-1.174-.12c.08-.876.383-1.544.908-2.003.524-.459,1.229-.688,2.113-.688.893,0,1.6.247,2.12.742s.78,1.109.78,1.841c0,.373-.076.738-.229,1.099-.152.359-.404.738-.758,1.136-.354.398-.94.944-1.762,1.638-.686.576-1.126.966-1.32,1.172-.194.205-.355.411-.482.618h4.564Z" fill="#231f20"/><path d="M344.231,281.954c-.423.36-.83.614-1.222.762-.392.148-.812.223-1.261.223-.74,0-1.31-.181-1.707-.543-.397-.361-.597-.824-.597-1.387,0-.33.075-.632.226-.904.15-.273.347-.492.59-.657s.518-.29.822-.375c.225-.059.562-.116,1.016-.171.923-.11,1.602-.241,2.037-.394.005-.157.007-.256.007-.299,0-.465-.108-.793-.323-.983-.293-.259-.727-.388-1.302-.388-.537,0-.935.095-1.19.283-.256.188-.445.521-.568.999l-1.117-.152c.102-.478.27-.864.502-1.158s.569-.521,1.01-.679c.439-.159.949-.238,1.529-.238.575,0,1.043.067,1.402.203.36.135.625.306.794.511s.288.465.355.777c.038.195.058.546.058,1.054v1.523c0,1.062.023,1.734.072,2.016s.146.551.289.81h-1.193c-.118-.237-.194-.515-.229-.832ZM344.136,279.402c-.414.17-1.036.313-1.865.432-.471.068-.803.145-.997.229-.194.085-.345.209-.45.372-.106.162-.159.344-.159.542,0,.305.115.559.346.762s.568.305,1.013.305c.44,0,.832-.096,1.174-.288.344-.193.595-.456.756-.791.123-.258.184-.639.184-1.143v-.419Z" fill="#231f20"/><rect x="314.499" y="291.257" width="41.771" height="15.285" fill="#fff" stroke="#231f20" stroke-miterlimit="10" stroke-width="1.631"/><path d="M329.987,301.356l1.181.146c-.187.689-.531,1.225-1.035,1.605-.503.381-1.146.571-1.93.571-.985,0-1.768-.304-2.345-.911-.578-.606-.866-1.458-.866-2.555,0-1.134.291-2.014.875-2.641.584-.626,1.342-.939,2.273-.939.9,0,1.637.307,2.209.921.57.613.856,1.477.856,2.59,0,.067-.002.169-.007.305h-5.027c.043.74.252,1.308.629,1.701s.847.59,1.409.59c.419,0,.776-.109,1.073-.33.296-.22.53-.571.704-1.054ZM326.236,299.51h3.764c-.051-.567-.194-.992-.432-1.276-.364-.439-.836-.66-1.416-.66-.524,0-.966.176-1.323.527-.357.351-.556.82-.593,1.409Z" fill="#231f20"/><path d="M338.29,302.43v1.098h-6.151c-.009-.274.036-.539.134-.793.156-.419.407-.832.752-1.238s.843-.876,1.494-1.409c1.012-.829,1.695-1.486,2.051-1.971s.533-.942.533-1.374c0-.453-.162-.835-.485-1.146-.324-.311-.746-.466-1.267-.466-.55,0-.99.165-1.32.495s-.497.787-.502,1.371l-1.174-.121c.08-.876.383-1.543.908-2.003.524-.459,1.229-.688,2.113-.688.893,0,1.6.248,2.12.743s.78,1.108.78,1.841c0,.372-.076.738-.229,1.098-.152.36-.404.738-.758,1.137-.354.397-.94.943-1.762,1.638-.686.575-1.126.966-1.32,1.171s-.355.411-.482.619h4.564Z" fill="#231f20"/><path d="M340.886,303.527h-1.06v-9.306h1.143v3.32c.482-.605,1.099-.908,1.847-.908.415,0,.808.084,1.178.251s.675.402.914.704c.239.303.427.668.562,1.096.135.427.203.884.203,1.371,0,1.155-.286,2.048-.857,2.679-.571.63-1.257.945-2.057.945s-1.42-.332-1.873-.996v.844ZM340.874,300.106c0,.808.109,1.392.33,1.752.359.588.846.882,1.459.882.5,0,.932-.217,1.295-.65.364-.434.547-1.08.547-1.939,0-.88-.175-1.529-.524-1.948-.349-.419-.771-.629-1.267-.629-.499,0-.931.217-1.295.65-.363.435-.545,1.062-.545,1.883Z" fill="#231f20"/><rect x="314.499" y="319.541" width="41.771" height="15.285" fill="#fff" stroke="#231f20" stroke-miterlimit="10" stroke-width="1.631"/><path d="M329.987,329.641l1.181.146c-.187.69-.531,1.226-1.035,1.606-.503.381-1.146.571-1.93.571-.985,0-1.768-.304-2.345-.911-.578-.607-.866-1.459-.866-2.555,0-1.135.291-2.015.875-2.641.584-.627,1.342-.939,2.273-.939.9,0,1.637.307,2.209.92.57.614.856,1.478.856,2.59,0,.068-.002.17-.007.305h-5.027c.043.741.252,1.308.629,1.701s.847.591,1.409.591c.419,0,.776-.11,1.073-.33.296-.221.53-.571.704-1.054ZM326.236,327.793h3.764c-.051-.566-.194-.992-.432-1.275-.364-.44-.836-.66-1.416-.66-.524,0-.966.176-1.323.526-.357.352-.556.821-.593,1.409Z" fill="#231f20"/><path d="M332.291,329.354l1.143-.152c.131.647.354,1.114.67,1.4.315.285.699.428,1.151.428.538,0,.992-.186,1.362-.559.37-.372.556-.833.556-1.384,0-.524-.172-.957-.515-1.298s-.778-.511-1.308-.511c-.216,0-.484.042-.807.127l.127-1.003c.076.008.138.013.185.013.486,0,.925-.127,1.313-.381.39-.254.584-.646.584-1.175,0-.419-.142-.766-.425-1.041-.283-.274-.649-.412-1.099-.412-.443,0-.814.14-1.11.419s-.486.698-.571,1.257l-1.143-.203c.14-.767.457-1.359.952-1.78.495-.422,1.11-.632,1.847-.632.508,0,.976.108,1.403.327.428.218.754.515.98.892.227.376.34.776.34,1.199,0,.402-.108.769-.323,1.099-.217.33-.536.592-.959.787.55.127.978.391,1.282.79.305.4.457.9.457,1.501,0,.812-.296,1.502-.889,2.066-.593.565-1.342.848-2.247.848-.816,0-1.495-.243-2.034-.73-.54-.486-.848-1.117-.924-1.892Z" fill="#231f20"/><path d="M344.231,330.979c-.423.36-.83.614-1.222.762-.392.148-.812.223-1.261.223-.74,0-1.31-.181-1.707-.543-.397-.361-.597-.824-.597-1.387,0-.33.075-.632.226-.904.15-.273.347-.492.59-.657s.518-.29.822-.375c.225-.059.562-.116,1.016-.171.923-.11,1.602-.241,2.037-.394.005-.157.007-.256.007-.299,0-.465-.108-.793-.323-.983-.293-.259-.727-.388-1.302-.388-.537,0-.935.095-1.19.283-.256.188-.445.521-.568.999l-1.117-.152c.102-.478.27-.864.502-1.158s.569-.521,1.01-.679c.439-.159.949-.238,1.529-.238.575,0,1.043.067,1.402.203.36.135.625.306.794.511s.288.465.355.777c.038.195.058.546.058,1.054v1.523c0,1.062.023,1.734.072,2.016s.146.551.289.81h-1.193c-.118-.237-.194-.515-.229-.832ZM344.136,328.428c-.414.17-1.036.313-1.865.432-.471.068-.803.145-.997.229-.194.085-.345.209-.45.372-.106.162-.159.344-.159.542,0,.305.115.559.346.762s.568.305,1.013.305c.44,0,.832-.096,1.174-.288.344-.193.595-.456.756-.791.123-.258.184-.639.184-1.143v-.419Z" fill="#231f20"/><rect x="314.499" y="340.283" width="41.771" height="15.285" fill="#fff" stroke="#231f20" stroke-miterlimit="10" stroke-width="1.631"/><path d="M329.987,350.382l1.181.146c-.187.689-.531,1.225-1.035,1.605-.503.381-1.146.571-1.93.571-.985,0-1.768-.304-2.345-.911-.578-.606-.866-1.458-.866-2.555,0-1.134.291-2.014.875-2.641.584-.626,1.342-.939,2.273-.939.9,0,1.637.307,2.209.921.57.613.856,1.477.856,2.59,0,.067-.002.169-.007.305h-5.027c.043.74.252,1.308.629,1.701s.847.59,1.409.59c.419,0,.776-.109,1.073-.33.296-.22.53-.571.704-1.054ZM326.236,348.535h3.764c-.051-.567-.194-.992-.432-1.276-.364-.439-.836-.66-1.416-.66-.524,0-.966.176-1.323.527-.357.351-.556.82-.593,1.409Z" fill="#231f20"/><path d="M332.291,350.097l1.143-.152c.131.647.354,1.113.67,1.399.315.285.699.429,1.151.429.538,0,.992-.187,1.362-.559.37-.373.556-.834.556-1.384,0-.525-.172-.958-.515-1.299-.343-.34-.778-.511-1.308-.511-.216,0-.484.043-.807.127l.127-1.003c.076.009.138.013.185.013.486,0,.925-.127,1.313-.381.39-.254.584-.646.584-1.174,0-.419-.142-.767-.425-1.041-.283-.275-.649-.413-1.099-.413-.443,0-.814.14-1.11.419s-.486.698-.571,1.257l-1.143-.203c.14-.766.457-1.359.952-1.78s1.11-.632,1.847-.632c.508,0,.976.109,1.403.327s.754.516.98.892c.227.377.34.776.34,1.2,0,.401-.108.768-.323,1.098-.217.33-.536.593-.959.787.55.127.978.391,1.282.79.305.4.457.9.457,1.502,0,.812-.296,1.501-.889,2.065-.593.565-1.342.848-2.247.848-.816,0-1.495-.243-2.034-.729-.54-.487-.848-1.117-.924-1.892Z" fill="#231f20"/><path d="M340.886,352.553h-1.06v-9.306h1.143v3.32c.482-.605,1.099-.908,1.847-.908.415,0,.808.084,1.178.251s.675.402.914.704c.239.303.427.668.562,1.096.135.427.203.884.203,1.371,0,1.155-.286,2.048-.857,2.679-.571.63-1.257.945-2.057.945s-1.42-.332-1.873-.996v.844ZM340.874,349.132c0,.808.109,1.392.33,1.752.359.588.846.882,1.459.882.5,0,.932-.217,1.295-.65.364-.434.547-1.08.547-1.939,0-.88-.175-1.529-.524-1.948-.349-.419-.771-.629-1.267-.629-.499,0-.931.217-1.295.65-.363.435-.545,1.062-.545,1.883Z" fill="#231f20"/><rect x="314.499" y="368.567" width="41.771" height="15.285" fill="#fff" stroke="#231f20" stroke-miterlimit="10" stroke-width="1.631"/><path d="M329.987,378.666l1.181.146c-.187.689-.531,1.225-1.035,1.605-.503.381-1.146.571-1.93.571-.985,0-1.768-.304-2.345-.911-.578-.606-.866-1.458-.866-2.555,0-1.134.291-2.014.875-2.641.584-.626,1.342-.939,2.273-.939.9,0,1.637.307,2.209.921.57.613.856,1.477.856,2.59,0,.067-.002.169-.007.305h-5.027c.043.74.252,1.308.629,1.701s.847.59,1.409.59c.419,0,.776-.109,1.073-.33.296-.22.53-.571.704-1.054ZM326.236,376.819h3.764c-.051-.567-.194-.992-.432-1.276-.364-.439-.836-.66-1.416-.66-.524,0-.966.176-1.323.527-.357.351-.556.82-.593,1.409Z" fill="#231f20"/><path d="M335.947,380.837v-2.228h-4.037v-1.048l4.247-6.03h.933v6.03h1.257v1.048h-1.257v2.228h-1.143ZM335.947,377.561v-4.195l-2.913,4.195h2.913Z" fill="#231f20"/><path d="M344.231,380.006c-.423.359-.83.613-1.222.762-.392.147-.812.222-1.261.222-.74,0-1.31-.181-1.707-.543-.397-.361-.597-.823-.597-1.387,0-.33.075-.632.226-.904.15-.273.347-.492.59-.657s.518-.29.822-.374c.225-.06.562-.116,1.016-.172.923-.109,1.602-.241,2.037-.394.005-.156.007-.256.007-.298,0-.466-.108-.794-.323-.984-.293-.258-.727-.387-1.302-.387-.537,0-.935.094-1.19.282s-.445.521-.568,1l-1.117-.152c.102-.479.27-.864.502-1.159.232-.294.569-.521,1.01-.679.439-.159.949-.238,1.529-.238.575,0,1.043.068,1.402.203.36.136.625.306.794.511.169.206.288.465.355.778.038.194.058.546.058,1.054v1.523c0,1.062.023,1.733.072,2.015.049.282.146.552.289.81h-1.193c-.118-.236-.194-.514-.229-.831ZM344.136,377.454c-.414.169-1.036.312-1.865.432-.471.067-.803.144-.997.229-.194.084-.345.208-.45.371-.106.163-.159.344-.159.543,0,.305.115.559.346.762s.568.305,1.013.305c.44,0,.832-.097,1.174-.289.344-.192.595-.456.756-.79.123-.259.184-.64.184-1.143v-.419Z" fill="#231f20"/><rect x="314.499" y="389.308" width="41.771" height="15.285" fill="#fff" stroke="#231f20" stroke-miterlimit="10" stroke-width="1.631"/><path d="M329.987,399.408l1.181.146c-.187.69-.531,1.226-1.035,1.606-.503.381-1.146.571-1.93.571-.985,0-1.768-.304-2.345-.911-.578-.607-.866-1.459-.866-2.555,0-1.135.291-2.015.875-2.641.584-.627,1.342-.939,2.273-.939.9,0,1.637.307,2.209.92.57.614.856,1.478.856,2.59,0,.068-.002.17-.007.305h-5.027c.043.741.252,1.308.629,1.701s.847.591,1.409.591c.419,0,.776-.11,1.073-.33.296-.221.53-.571.704-1.054ZM326.236,397.561h3.764c-.051-.566-.194-.992-.432-1.275-.364-.44-.836-.66-1.416-.66-.524,0-.966.176-1.323.526-.357.352-.556.821-.593,1.409Z" fill="#231f20"/><path d="M335.947,401.579v-2.229h-4.037v-1.047l4.247-6.03h.933v6.03h1.257v1.047h-1.257v2.229h-1.143ZM335.947,398.304v-4.196l-2.913,4.196h2.913Z" fill="#231f20"/><path d="M340.886,401.579h-1.06v-9.306h1.143v3.319c.482-.604,1.099-.907,1.847-.907.415,0,.808.083,1.178.251.37.167.675.401.914.704s.427.668.562,1.095c.135.428.203.885.203,1.371,0,1.155-.286,2.049-.857,2.679-.571.631-1.257.946-2.057.946s-1.42-.332-1.873-.997v.845ZM340.874,398.157c0,.809.109,1.393.33,1.752.359.589.846.883,1.459.883.5,0,.932-.217,1.295-.65.364-.435.547-1.081.547-1.939,0-.881-.175-1.53-.524-1.949-.349-.419-.771-.628-1.267-.628-.499,0-.931.217-1.295.65-.363.434-.545,1.062-.545,1.882Z" fill="#231f20"/><path d="M381.37,317.689v-9.306h1.264l4.887,7.306v-7.306h1.182v9.306h-1.264l-4.888-7.312v7.312h-1.181Z" fill="#231f20"/><path d="M390.353,314.699l1.162-.102c.055.466.183.848.384,1.146.201.298.513.539.937.724.423.184.898.275,1.428.275.47,0,.885-.069,1.244-.209s.627-.331.803-.574c.176-.244.264-.51.264-.797,0-.292-.085-.547-.254-.765-.169-.219-.448-.401-.838-.55-.25-.097-.802-.248-1.656-.453-.855-.206-1.454-.399-1.797-.581-.444-.233-.775-.521-.993-.866-.218-.346-.327-.731-.327-1.159,0-.47.133-.908.4-1.316.266-.409.655-.719,1.168-.931.512-.211,1.081-.317,1.707-.317.689,0,1.298.111,1.825.334.526.222.932.549,1.216.98.283.432.436.92.457,1.466l-1.182.089c-.062-.588-.277-1.032-.644-1.333-.366-.3-.907-.45-1.622-.45-.745,0-1.287.137-1.628.409-.341.273-.511.602-.511.987,0,.334.12.609.361.825.237.216.855.437,1.856.663s1.688.424,2.06.594c.542.249.942.565,1.2.949.258.383.388.823.388,1.323,0,.495-.143.962-.426,1.399-.283.438-.69.778-1.222,1.022-.531.243-1.129.364-1.794.364-.842,0-1.547-.122-2.116-.368-.569-.245-1.016-.614-1.34-1.107-.323-.493-.494-1.051-.511-1.673Z" fill="#231f20"/><path d="M399.403,317.689v-9.306h1.854l2.203,6.589c.203.613.351,1.072.443,1.377.106-.338.271-.836.496-1.491l2.228-6.475h1.657v9.306h-1.188v-7.789l-2.704,7.789h-1.11l-2.691-7.922v7.922h-1.188Z" fill="#231f20"/><path d="M413.832,317.689v-9.306h3.491c.711,0,1.281.094,1.711.282s.766.479,1.009.87c.243.391.365.801.365,1.228,0,.398-.108.772-.323,1.124-.217.351-.542.635-.979.851.563.165.996.446,1.299.844.303.398.453.868.453,1.409,0,.437-.092.842-.275,1.216-.185.375-.412.663-.683.866s-.61.356-1.019.461c-.408.104-.909.155-1.502.155h-3.548ZM415.063,312.294h2.012c.547,0,.938-.036,1.175-.108.313-.093.549-.247.708-.463.158-.216.238-.487.238-.812,0-.31-.074-.581-.223-.815-.148-.235-.359-.396-.635-.482-.275-.087-.747-.131-1.416-.131h-1.859v2.812ZM415.063,316.591h2.316c.398,0,.678-.015.838-.044.284-.051.521-.136.711-.254.191-.119.348-.291.471-.518.122-.227.184-.487.184-.784,0-.347-.089-.648-.267-.904s-.424-.436-.739-.539c-.315-.104-.77-.156-1.361-.156h-2.152v3.199Z" fill="#231f20"/><line x1="276.226" y1="93.734" x2="313.597" y2="93.734" fill="none" stroke="#1670b9" stroke-dasharray="5 4" stroke-miterlimit="10" stroke-width="2.989"/><polyline points="313.458 142.346 198.962 142.346 198.962 288.589 184.771 288.589" fill="none" stroke="#fff" stroke-miterlimit="10" stroke-width="5"/><polyline points="313.458 142.346 198.962 142.346 198.962 288.589 184.771 288.589" fill="none" stroke="#1670b9" stroke-dasharray="5 4" stroke-miterlimit="10" stroke-width="2.989"/><line x1="275.844" y1="348.005" x2="313.597" y2="348.005" fill="none" stroke="#1670b9" stroke-dasharray="5 4" stroke-miterlimit="10" stroke-width="2.989"/></svg>