<?xml version="1.0" encoding="UTF-8"?><svg id="a" xmlns="http://www.w3.org/2000/svg" width="5.625in" height="4.3in" xmlns:xlink="http://www.w3.org/1999/xlink" viewBox="0 0 405 309.6"><defs><clipPath id="b"><circle cx="220.443" cy="97.635" r="94.104" fill="none" stroke-width="0"/></clipPath></defs><path d="M213.944,198.506l-19.399-13.77-3.92.302-.302,1.709-39.804,7.74-.194,6.625-15.23,4.379-3.94.251-3.652-1.766-.161,4.335-1.405.161-5.78-4.335-.201-3.171-.843-.682-3.131.281-1.004-.911-2.354.163,3.496,2.185,2.031-.063.444,4.823-10.293,1.498-7.268-3.574-73.116,14.688-1.631,30.454,5.904,28.385-.564,3.045.677,4.06,52.435-11.727s3.493-.138,4.384,1.792l1.782.817,16.776-2.821-.297-3.934-.594-2.672-2.524.742-2.95-2.719,93.51-23.929-39.982,54.493s-2.113,2.761,2.108,4.671l1.91,1.005,3.719,4.021,7.338.603,6.031,1.809,1.106-1.608,13.77.704s.503-.503.503-1.508-.101-5.126-.101-5.126l9.348-19.701-.201-3.82s.101-1.608-2.412-2.01-7.438-1.809-7.438-1.809l19.198-28.948,1.709-.101.302-3.92,21.208,18.595s2.211,1.005,3.015.302.302-2.613-.201-3.619-1.508-2.613-1.508-2.613l-18.495-15.479s4.121.201,6.332-5.327c0,0-.503-3.619-1.91-4.825v-11.559s-6.886-6.6-6.232-16.585Z" fill="#dcddde" stroke-width="0"/><path d="M172.391,296.075l4.367-5.439s6.84-3.543,13.844.165l.082.989-2.802,3.708-7.581.082-7.416,1.071-.494-.577Z" fill="#fff" stroke-width="0"/><path d="M87.613,267.155l3.708,3.296s1.401.494,2.967,0,7.169-1.731,7.169-1.731c0,0,0-.412-1.154-1.401s-3.791-2.967-3.791-2.967l-8.735,2.143-.165.659Z" fill="#fff" stroke-width="0"/><path d="M30.118,269.891s26.653-5.083,28.851-29.401c0,0-7.968-19.234-31.599-15.799l-.412-6.595,14.563-1.511s14.975,4.122,19.646,16.761l2.061,11.266s1.099,25.829-31.874,34.209l-1.236-8.93Z" fill="#fff" stroke-width="0"/><path d="M186.531,104.882s132.262,30.052,134.293,30.484,1.253,1.202,1.253,1.202c0,0-310.551,47.376-314.934,48.002s-3.757-2.296-3.757-2.296l11.479-64.698,171.666-12.695Z" fill="none" stroke="#231f20" stroke-linecap="round" stroke-linejoin="round" stroke-width=".5"/><line x1="3.25" y1="183.207" x2="10.531" y2="219.011" fill="none" stroke="#231f20" stroke-linecap="round" stroke-linejoin="round" stroke-width=".5"/><line x1="10.529" y1="184.581" x2="14.037" y2="201.837" fill="none" stroke="#231f20" stroke-linecap="round" stroke-linejoin="round" stroke-width=".5"/><line x1="13.402" y1="217.812" x2="14.59" y2="192.601" fill="none" stroke="#231f20" stroke-linecap="round" stroke-linejoin="round" stroke-width=".5"/><line x1="12.391" y1="239.277" x2="12.984" y2="226.688" fill="none" stroke="#231f20" stroke-linecap="round" stroke-linejoin="round" stroke-width=".5"/><line x1="15.277" y1="217.492" x2="16.804" y2="192.296" fill="none" stroke="#231f20" stroke-linecap="round" stroke-linejoin="round" stroke-width=".5"/><path d="M12.964,192.173l.731-6.986s1.316-1.026,4-.658c0,0,.868.187,1,.896l.485,3.288-.03,6.13-.657-3.022s-.368-.972-1.708-.709l-2.522.158s-1.629.499-1.393,1.866l1.051,4.782" fill="none" stroke="#231f20" stroke-linecap="round" stroke-linejoin="round" stroke-width=".5"/><path d="M18.697,277.668c.495,3.839,4.706,3.22,4.706,3.22,18.203-3.715,28.729-12.259,28.729-12.259,0,0,13.725-12.686,10.653-26.544-.602-2.714-1.847-5.473-3.967-8.191-12.94-16.593-34.487-12.321-34.487-12.321,0,0-8.668,2.353-12.569,3.467s-4.582,3.096-4.582,3.096l.681-6.687s1.003-1.6,3.951-2.51,10.405-2.991,10.405-2.991c0,0,14.09-3.252,25.883,3.295,0,0,10.361,5.855,13.222,14.229l1.498,8.236" fill="none" stroke="#231f20" stroke-linecap="round" stroke-linejoin="round" stroke-width=".5"/><path d="M20.616,277.606s.062,2.167,2.291,1.857,23.714-5.139,31.144-15.789c0,0,11.393-12.693,6.006-24.766,0,0-4.891-13.064-23.59-16.16,0,0-4.953-1.238-12.569.371l-12.383,3.591s-3.096.557-2.291,4.025,2.229,9.04,2.229,9.04" fill="none" stroke="#231f20" stroke-linecap="round" stroke-linejoin="round" stroke-width=".5"/><line x1="10.598" y1="242.853" x2="7.181" y2="228.135" fill="none" stroke="#231f20" stroke-linecap="round" stroke-linejoin="round" stroke-width=".5"/><path d="M15.601,240.639s-4.063-3.984-4.621,3.028c0,0-1.036,8.047,6.533,31.312,0,0,1.195,4.143,4.382,1.593l1.195-6.374" fill="none" stroke="#231f20" stroke-linecap="round" stroke-linejoin="round" stroke-width=".5"/><path d="M14.007,239.046s-1.354-15.377,16.891-16.572" fill="none" stroke="#231f20" stroke-linecap="round" stroke-linejoin="round" stroke-width=".5"/><path d="M15.84,240.321s-1.673-17.05,18.325-16.094c0,0,23.265.478,26.691,23.344" fill="none" stroke="#231f20" stroke-linecap="round" stroke-linejoin="round" stroke-width=".5"/><path d="M24.651,255.407l1.226-.438-1.138-4.378s-.263-2.189-3.678-1.051c0,0-2.715.613-1.926,3.678s4.466,17.689,4.466,17.689l1.489-.438-4.378-17.776s0-1.687,2.538-1.775l1.402,4.489Z" fill="none" stroke="#231f20" stroke-linecap="round" stroke-linejoin="round" stroke-width=".5"/><path d="M18.662,250.208l.307-9.926s1.944-2.968,4.912-.716l.246,9.527" fill="none" stroke="#231f20" stroke-linecap="round" stroke-linejoin="round" stroke-width=".5"/><path d="M23.24,271.715s18.61-2.905,28.504-13.506c0,0,6.91-7.303,7.224-17.197" fill="none" stroke="#231f20" stroke-linecap="round" stroke-linejoin="round" stroke-width=".5"/><path d="M41.13,216.053l59.889-11.503,5.129,2.738s1.176,1.14,3.457.748,9.159-1.39,9.159-1.39l-.535-4.419" fill="none" stroke="#231f20" stroke-linecap="round" stroke-linejoin="round" stroke-width=".5"/><path d="M38.08,215.459l59.28-11.796,2.642-3.101,1.155-.1,4.668,2.911s1.305,1.054,3.514.653,7.881-1.104,7.881-1.104c0,0,1.155-.05.853-.954l-1.958.1-5.722-3.514s-.1-1.104,1.606-1.305l-12.599,2.158-2.861,2.911-64.656,12.618" fill="none" stroke="#231f20" stroke-linecap="round" stroke-linejoin="round" stroke-width=".5"/><path d="M104.895,199.441l1.833-.273s.975-.234,1.95.312,3.666,2.067,3.666,2.067c0,0,.936.507.234.741s-3.393.624-3.393.624c0,0-.546.156-1.443-.351s-3.822-2.34-3.822-2.34c0,0-.468-.546.975-.78Z" fill="none" stroke="#231f20" stroke-linecap="round" stroke-linejoin="round" stroke-width=".5"/><path d="M203.188,162.509l.029-1.295c-2.276-.369-2.244,1.295-2.244,1.295v2.153l-.8.123s-5.536-2.768-6.336-3.137-.861-1.968-.861-1.968c-.185-1.476.22-1.879.22-1.879,1.046-.984,2.348-.56,2.348-.56l7.481,3.563" fill="none" stroke="#231f20" stroke-linecap="round" stroke-linejoin="round" stroke-width=".5"/><path d="M196.012,164.128l13.12,7s.088-1.321,1.365-1.057" fill="none" stroke="#231f20" stroke-linecap="round" stroke-linejoin="round" stroke-width=".5"/><polygon points="195.856 165.005 194.339 167.254 194.383 171.525 196.364 173.374 196.364 174.871 195.704 174.739 195.572 173.902 194.427 173.198 192.578 171.04 192.578 166.638 194.248 164.183 195.856 165.005" fill="none" stroke="#231f20" stroke-linecap="round" stroke-linejoin="round" stroke-width=".5"/><line x1="234.149" y1="182.583" x2="236.653" y2="183.936" fill="none" stroke="#231f20" stroke-linecap="round" stroke-linejoin="round" stroke-width=".5"/><line x1="200.974" y1="164.662" x2="226.193" y2="178.285" fill="none" stroke="#231f20" stroke-linecap="round" stroke-linejoin="round" stroke-width=".5"/><line x1="201.77" y1="161.839" x2="230.113" y2="176.511" fill="none" stroke="#231f20" stroke-linecap="round" stroke-linejoin="round" stroke-width=".5"/><path d="M223.032,197.616l12.036,7.806s2.229,1.728,3.4-.056" fill="none" stroke="#231f20" stroke-linecap="round" stroke-linejoin="round" stroke-width=".5"/><path d="M203.144,184.812c-1.943.694-2.637-.231-2.637-.231,0,0-6.061-3.979-6.709-4.396s-.602-.879-.602-.879c0,0,.046-1.018.046-1.666s1.157-.694,1.157-.694l6.247,4.164s.509.509.509,1.111v1.573s.231.416,1.064.324l12.991,8.425" fill="none" stroke="#231f20" stroke-linecap="round" stroke-linejoin="round" stroke-width=".5"/><path d="M224.062,195.733l11.408,7.168s1.185.988,1.251-2.765" fill="none" stroke="#231f20" stroke-linecap="round" stroke-linejoin="round" stroke-width=".5"/><line x1="201.101" y1="181.305" x2="216.288" y2="190.848" fill="none" stroke="#231f20" stroke-linecap="round" stroke-linejoin="round" stroke-width=".5"/><path d="M249.072,187.2s.407-6.924.407-8.146-1.14-1.955-1.14-1.955l-7.169-3.421s-12.871,2.037-17.351,7.25-10.753,12.708-9.613,22.565c0,0,.896,9.042,10.753,15.885,0,0,8.309,4.888,14.5,2.607l6.517-2.525s1.955-.489,1.711-6.191" fill="none" stroke="#231f20" stroke-linecap="round" stroke-linejoin="round" stroke-width=".5"/><path d="M247.606,187.526l.57-8.309s0-1.548-2.037-.978c0,0-15.478,1.059-21.913,15.885,0,0-5.214,9.613.326,20.854,0,0,3.666,5.947,12.301,5.214,0,0,7.006-.978,7.983-11.405l.185-2.545.631-.344.057-1.262s2.467-7.001,1.205-16.01l.691-1.101Z" fill="none" stroke="#231f20" stroke-linecap="round" stroke-linejoin="round" stroke-width=".5"/><path d="M225.611,180.113s3.014-2.607,5.621-1.955c0,0,2.362,1.14.163,2.933,0,0-5.92,5.264-7.902,10.02-2.037,4.888-4.969,10.509-1.385,22.402,0,0,2.607,6.436,10.427,7.739,0,0,11.486,2.525,13.115-10.916" fill="none" stroke="#231f20" stroke-linecap="round" stroke-linejoin="round" stroke-width=".5"/><path d="M238.392,201.414s1.136,6.815-2.434,10.953c0,0-3.976,5.842-10.872,2.759" fill="none" stroke="#231f20" stroke-linecap="round" stroke-linejoin="round" stroke-width=".5"/><line x1="197.899" y1="184.085" x2="197.934" y2="187.278" fill="none" stroke="#231f20" stroke-linecap="round" stroke-linejoin="round" stroke-width=".5"/><line x1="203.838" y1="185.311" x2="203.864" y2="191.556" fill="none" stroke="#231f20" stroke-linecap="round" stroke-linejoin="round" stroke-width=".5"/><line x1="203.738" y1="155.014" x2="203.765" y2="163.076" fill="none" stroke="#231f20" stroke-linecap="round" stroke-linejoin="round" stroke-width=".5"/><path d="M237.791,180.593s2.123,1.205,2.64,3.73,3.271,3.386,3.271,3.386c0,0,0,2.525-2.525.689,0,0-2.066-1.664-2.467-5.337,0,0-1.951-1.32-2.238,1.779s-.689,8.837-.689,8.837l-1.607,3.73s-.115,1.435,1.148,1.951,7.861,4.648,7.861,4.648" fill="none" stroke="#231f20" stroke-linecap="round" stroke-linejoin="round" stroke-width=".5"/><path d="M236.242,192.816s.746-1.033,2.353-.746l5.738,2.984.287,1.607s-1.086-.116-1.472.448c-.083.122-.134.276-.134.47l.861,4.877s1.09.689,1.148-.459.172-3.271.172-3.271c0,0,.23-1.033-1.435-1.205" fill="none" stroke="#231f20" stroke-linecap="round" stroke-linejoin="round" stroke-width=".5"/><path d="M245.021,208.309l1.721,3.845c1.779,3.615,5.566,3.041,5.566,3.041,3.041-.287,3.558-4.992,3.558-4.992l.631-13.829c-.689-7.173-5.796-8.665-5.796-8.665-3.041-.402-3.213,1.205-3.213,1.205,0,0,5.241.816,6.776,6.061,0,0,.448,1.599.448,3.326,0,1.547-.64,12.088-.64,12.088,0,0-1.535,3.07-4.605,1.407,0,0-1.471-.895-2.367-3.07s-1.449-2.828-1.449-2.828" fill="none" stroke="#231f20" stroke-linecap="round" stroke-linejoin="round" stroke-width=".5"/><path d="M247.488,195.914l1.721.975s.803.975-.287,1.205l-1.492.172" fill="none" stroke="#231f20" stroke-linecap="round" stroke-linejoin="round" stroke-width=".5"/><path d="M246.513,202.858l2.066.115s1.721,1.033.172,1.435l-1.435-1.148" fill="none" stroke="#231f20" stroke-linecap="round" stroke-linejoin="round" stroke-width=".5"/><path d="M14.349,240.518s-1.17.27-.36,7.738,1.799,10.887,1.799,10.887l4.139,15.295s1.17,1.35,1.889,0" fill="none" stroke="#231f20" stroke-linecap="round" stroke-linejoin="round" stroke-width=".5"/><polyline points="18.58 251.86 16.603 253.195 18.152 259.232 19.915 258.378" fill="none" stroke="#231f20" stroke-linecap="round" stroke-linejoin="round" stroke-width=".5"/><line x1="21.182" y1="238.112" x2="21.412" y2="227.289" fill="none" stroke="#231f20" stroke-linecap="round" stroke-linejoin="round" stroke-width=".5"/><path d="M125.59,193.644l-2.119-22.037c-.424-2.755-3.072-2.119-3.072-2.119l-96.623,15.15s-1.801.318-1.165,3.072,5.403,24.368,5.403,24.368c0,0,.636,1.589,3.496.954s65.581-12.608,65.581-12.608" fill="none" stroke="#231f20" stroke-linecap="round" stroke-linejoin="round" stroke-width=".5"/><path d="M32.482,185.227l17.21-2.868s1.366-.068,1.639,1.366,1.571,8.537,1.571,8.537c0,0,.205,1.502-1.161,1.707s-17.21,3.005-17.21,3.005c0,0-1.229,0-1.502-1.434s-1.707-9.219-1.707-9.219c0,0-.41-.751,1.161-1.093Z" fill="none" stroke="#231f20" stroke-linecap="round" stroke-linejoin="round" stroke-width=".5"/><path d="M34.788,200.358l54.868-9.845s1.366-.068,1.639,1.366.7,6.121.7,6.121c0,0,.205,1.502-1.161,1.707s-54.296,10.553-54.296,10.553c0,0-1.229,0-1.502-1.434s-1.408-7.376-1.408-7.376c0,0-.41-.751,1.161-1.093Z" fill="none" stroke="#231f20" stroke-linecap="round" stroke-linejoin="round" stroke-width=".5"/><path d="M56.088,181.456l15.669-2.715s1.243-.061,1.486,1.33,1.395,8.278,1.395,8.278c0,0,.18,1.457-1.063,1.65s-15.669,2.847-15.669,2.847c0,0-1.118-.005-1.361-1.395s-1.516-8.94-1.516-8.94c0,0-.37-.729,1.061-1.054Z" fill="none" stroke="#231f20" stroke-linecap="round" stroke-linejoin="round" stroke-width=".5"/><line x1="48.709" y1="197.825" x2="50.546" y2="207.007" fill="none" stroke="#231f20" stroke-linecap="round" stroke-linejoin="round" stroke-width=".5"/><line x1="62.963" y1="195.377" x2="64.799" y2="204.559" fill="none" stroke="#231f20" stroke-linecap="round" stroke-linejoin="round" stroke-width=".5"/><line x1="77.129" y1="192.841" x2="78.966" y2="202.023" fill="none" stroke="#231f20" stroke-linecap="round" stroke-linejoin="round" stroke-width=".5"/><path d="M192.459,158.205l-65.921,10.135s-2.009.545-1.657,3.268l.747,10.847,1.274,1.142.457,7.473s-.065,2.287,2.091,2.287" fill="none" stroke="#231f20" stroke-linecap="round" stroke-linejoin="round" stroke-width=".5"/><path d="M132.061,175.001l7.66-1.195s.773-.211.878.562.668,6.887.668,6.887c0,0,.246.984-.808,1.195s-7.273,1.23-7.273,1.23c0,0-.949.035-.984-.808s-.597-7.027-.597-7.027c0,0-.141-.668.457-.843Z" fill="none" stroke="#231f20" stroke-linecap="round" stroke-linejoin="round" stroke-width=".5"/><path d="M140.494,173.947l-1.533-1.449c-.206-.044-.4.009-.4.009l-7.66,1.195c-.597.176-.457.843-.457.843,0,0,.562,6.184.597,7.027.01.24.094.409.21.528l1.196,1.404" fill="none" stroke="#231f20" stroke-linecap="round" stroke-linejoin="round" stroke-width=".5"/><path d="M144.341,173.036l15.93-2.815s.773-.211.878.562.668,6.887.668,6.887c0,0,.246.984-.808,1.195s-15.544,2.85-15.544,2.85c0,0-.949.035-.984-.808s-.597-7.027-.597-7.027c0,0-.141-.668.457-.843Z" fill="none" stroke="#231f20" stroke-linecap="round" stroke-linejoin="round" stroke-width=".5"/><path d="M163.719,168.009l20.592-3.565s.773-.211.878.562.233,6.391.233,6.391c0,0,.246.984-.808,1.195s-19.885,3.573-19.885,3.573c0,0-.949.035-.984-.808s-.483-6.505-.483-6.505c0,0-.141-.668.457-.843Z" fill="none" stroke="#231f20" stroke-linecap="round" stroke-linejoin="round" stroke-width=".5"/><path d="M161.044,170.362l-1.533-1.449c-.206-.044-.4.009-.4.009l-15.93,2.815c-.597.176-.457.843-.457.843,0,0,.562,6.184.597,7.027.01.24.094.409.21.528l1.196,1.404" fill="none" stroke="#231f20" stroke-linecap="round" stroke-linejoin="round" stroke-width=".5"/><line x1="153.154" y1="179.948" x2="152.618" y2="171.731" fill="none" stroke="#231f20" stroke-linecap="round" stroke-linejoin="round" stroke-width=".5"/><path d="M81.975,180.667l11.13-1.877s.805-.045.983.849.715,5.588.715,5.588c0,0,.268.76-.805.983s-10.862,1.922-10.862,1.922c0,0-1.252.179-1.341-.76s-.849-5.766-.849-5.766c0,0,0-.894,1.028-.939Z" fill="none" stroke="#231f20" stroke-linecap="round" stroke-linejoin="round" stroke-width=".5"/><path d="M102.035,177.762l14.005-2.355s.805-.045.983.849.715,5.588.715,5.588c0,0,.268.76-.805.983s-13.737,2.399-13.737,2.399c0,0-1.252.179-1.341-.76s-.849-5.766-.849-5.766c0,0,0-.894,1.028-.939Z" fill="none" stroke="#231f20" stroke-linecap="round" stroke-linejoin="round" stroke-width=".5"/><polyline points="43.515 183.563 43.889 185.185 44.934 185.013 45.262 186.495 48.132 186.059 49.255 192.048 36.438 194.245 35.252 188.193 37.997 187.694 37.702 186.224 38.995 186.01 38.715 184.481" fill="none" stroke="#231f20" stroke-linecap="round" stroke-linejoin="round" stroke-width=".5"/><polyline points="66.448 180.104 66.822 181.726 67.867 181.554 68.195 183.037 71.065 182.6 72.188 188.589 59.371 190.786 58.185 184.734 60.93 184.235 60.634 182.765 61.928 182.551 61.648 181.022" fill="none" stroke="#231f20" stroke-linecap="round" stroke-linejoin="round" stroke-width=".5"/><path d="M84.413,182.348l6.293-1.023s1.33,0,1.433,1.381-1.074,1.381-1.074,1.381l-6.242,1.126s-1.126.205-1.484-1.074,1.074-1.791,1.074-1.791Z" fill="none" stroke="#231f20" stroke-linecap="round" stroke-linejoin="round" stroke-width=".5"/><path d="M104.18,178.936s-1.173.223-1.006,1.117.399,2.521.399,2.521c0,0,.056.838,1.006.726s9.822-1.766,9.822-1.766c0,0,.929-.304.873-1.197s-.308-2.321-.308-2.321c0,0-.056-.894-1.229-.726s-9.557,1.646-9.557,1.646Z" fill="none" stroke="#231f20" stroke-linecap="round" stroke-linejoin="round" stroke-width=".5"/><line x1="175.138" y1="165.989" x2="175.138" y2="174.223" fill="none" stroke="#231f20" stroke-linecap="round" stroke-linejoin="round" stroke-width=".5"/><line x1="194.029" y1="172.956" x2="194.029" y2="176.665" fill="none" stroke="#231f20" stroke-linecap="round" stroke-linejoin="round" stroke-width=".5"/><line x1="194.029" y1="161.856" x2="194.029" y2="164.105" fill="none" stroke="#231f20" stroke-linecap="round" stroke-linejoin="round" stroke-width=".5"/><line x1="197.8" y1="155.719" x2="197.8" y2="157.828" fill="none" stroke="#231f20" stroke-linecap="round" stroke-linejoin="round" stroke-width=".5"/><line x1="222.051" y1="203.909" x2="229.408" y2="202.176" fill="none" stroke="#231f20" stroke-linecap="round" stroke-linejoin="round" stroke-width=".5"/><line x1="222.516" y1="208.84" x2="236.269" y2="206.281" fill="none" stroke="#231f20" stroke-linecap="round" stroke-linejoin="round" stroke-width=".5"/><line x1="222.117" y1="205.989" x2="232.483" y2="204.118" fill="none" stroke="#231f20" stroke-linecap="round" stroke-linejoin="round" stroke-width=".5"/><path d="M205.478,163.505v-6.963s.738-1.793,3.27-1.055l7.174,3.27s1.088.465.926,1.762" fill="none" stroke="#231f20" stroke-linecap="round" stroke-linejoin="round" stroke-width=".5"/><path d="M214.093,167.867v-7.78s-.432-1.297,2.215-.972" fill="none" stroke="#231f20" stroke-linecap="round" stroke-linejoin="round" stroke-width=".5"/><path d="M214.795,159.655l37.115,18.152s1.621.648,1.567,1.567" fill="none" stroke="#231f20" stroke-linecap="round" stroke-linejoin="round" stroke-width=".5"/><path d="M249.182,177.841l2.179,1.066s1.621.648,1.567,1.567" fill="none" stroke="#231f20" stroke-linecap="round" stroke-linejoin="round" stroke-width=".5"/><line x1="214.246" y1="160.754" x2="240.357" y2="173.525" fill="none" stroke="#231f20" stroke-linecap="round" stroke-linejoin="round" stroke-width=".5"/><path d="M252.916,188.767l.47-12.979s.235-3.465,2.702-4.346,6.989-1.938,6.989-1.938c0,0,12.185-.295,19.261,9.729,0,0,3.415,5.464,1.928,13.62-.467,2.561-1.417,5.387-3.107,8.392,0,0-5.896,12.579-20.538,14.839,0,0-.983.295-2.26-.491l-3.243-1.965" fill="none" stroke="#231f20" stroke-linecap="round" stroke-linejoin="round" stroke-width=".5"/><path d="M277.744,176.331c-3.14-2.512-7.723-2.826-7.723-2.826,0,0-5.714,1.57-7.095,2.009s-1.381,2.763-1.381,2.763c0,0-2.323,33.719-2.323,35.289s1.256,1.507,1.256,1.507c1.695-.377,7.409-2.7,7.409-2.7,12.935-6.091,15.384-21.475,15.384-21.475.565-10.298-3.83-13.437-6.901-15.967s-6.413-2.574-6.413-2.574c0,0-5.555,1.581-7.678,2.348s-2.032,4.832-2.032,4.832l-2.28,35.347" fill="none" stroke="#231f20" stroke-linecap="round" stroke-linejoin="round" stroke-width=".5"/><path d="M261.863,185.195s.277-8.93,7.684-11.561" fill="none" stroke="#231f20" stroke-linecap="round" stroke-linejoin="round" stroke-width=".5"/><path d="M262.902,184.78s1.246-10.522,9.761-10.661" fill="none" stroke="#231f20" stroke-linecap="round" stroke-linejoin="round" stroke-width=".5"/><path d="M261.102,186.441s1.869-2.492,3.807-2.077c0,0,6.369.9,6.715,7.546l-.623,15.161s-1.315,5.884-6.438,3.669c0,0-2.769-.138-4.707-6.438" fill="none" stroke="#231f20" stroke-linecap="round" stroke-linejoin="round" stroke-width=".5"/><path d="M260.817,191.926l2.954,1.67-.899,1.284-.171,4.067s1.456,1.113.599,1.798l-.685.171-2.269-1.413" fill="none" stroke="#231f20" stroke-linecap="round" stroke-linejoin="round" stroke-width=".5"/><path d="M271.575,200.261s9.676-17.296-.229-25.753" fill="none" stroke="#231f20" stroke-linecap="round" stroke-linejoin="round" stroke-width=".5"/><line x1="259.765" y1="209.48" x2="261.746" y2="208.718" fill="none" stroke="#231f20" stroke-linecap="round" stroke-linejoin="round" stroke-width=".5"/><line x1="305.735" y1="184.662" x2="310.628" y2="183.502" fill="none" stroke="#231f20" stroke-linecap="round" stroke-linejoin="round" stroke-width=".5"/><line x1="284.678" y1="189.528" x2="296.012" y2="186.841" fill="none" stroke="#231f20" stroke-linecap="round" stroke-linejoin="round" stroke-width=".5"/><line x1="272.108" y1="192.507" x2="274.587" y2="191.92" fill="none" stroke="#231f20" stroke-linecap="round" stroke-linejoin="round" stroke-width=".5"/><line x1="310.104" y1="184.714" x2="284.799" y2="192.601" fill="none" stroke="#231f20" stroke-linecap="round" stroke-linejoin="round" stroke-width=".5"/><line x1="311.132" y1="186.909" x2="286.308" y2="194.726" fill="none" stroke="#231f20" stroke-linecap="round" stroke-linejoin="round" stroke-width=".5"/><polyline points="284.593 193.561 286.719 195.618 286.445 198.224 282.33 199.801" fill="none" stroke="#231f20" stroke-linecap="round" stroke-linejoin="round" stroke-width=".5"/><line x1="283.496" y1="196.852" x2="286.719" y2="195.618" fill="none" stroke="#231f20" stroke-linecap="round" stroke-linejoin="round" stroke-width=".5"/><path d="M209.817,155.346l60.881-8.879s1.464-.338,1.464,1.689l-.643,16.51s-.113,1.914-2.477,2.59l-26.496,5.337" fill="none" stroke="#231f20" stroke-linecap="round" stroke-linejoin="round" stroke-width=".5"/><path d="M215.603,158.242v-1.51s.04-.556,1.073-.675,9.137-1.43,9.137-1.43c0,0,1.39-.358,1.351.834v6.992s.159.874-.675,1.073-2.344.397-2.344.397" fill="none" stroke="#231f20" stroke-linecap="round" stroke-linejoin="round" stroke-width=".5"/><path d="M229.785,161.818v-7.389s.04-.556,1.073-.675,9.241-1.326,9.241-1.326c0,0,1.39-.358,1.351.834l-.104,6.888s.159.874-.675,1.073-9.176,1.51-9.176,1.51c0,0-1.549.556-1.708-.914Z" fill="none" stroke="#231f20" stroke-linecap="round" stroke-linejoin="round" stroke-width=".5"/><path d="M245.499,159.127v-5.002s.027-.377.726-.457,6.256-.898,6.256-.898c0,0,.941-.242.914.565l-.07,4.663s.108.592-.457.726-6.213,1.022-6.213,1.022c0,0-1.049.377-1.156-.619Z" fill="none" stroke="#231f20" stroke-linecap="round" stroke-linejoin="round" stroke-width=".5"/><path d="M257.632,157.784v-5.002s.027-.377.726-.457,8.431-1.291,8.431-1.291c0,0,.941-.242.914.565l-.07,4.663s.108.592-.457.726-8.388,1.415-8.388,1.415c0,0-1.049.377-1.156-.619Z" fill="none" stroke="#231f20" stroke-linecap="round" stroke-linejoin="round" stroke-width=".5"/><path d="M228.494,166.079c1.033-.119,21.031-3.673,21.031-3.673,0,0,1.39-.358,1.351.834l-.104,5.584s.159.874-.675,1.073c-.38.09-5.781,1.098-10.29,1.929" fill="none" stroke="#231f20" stroke-linecap="round" stroke-linejoin="round" stroke-width=".5"/><line x1="242.627" y1="163.876" x2="242.627" y2="170.922" fill="none" stroke="#231f20" stroke-linecap="round" stroke-linejoin="round" stroke-width=".5"/><line x1="234.331" y1="165.203" x2="234.331" y2="169.082" fill="none" stroke="#231f20" stroke-linecap="round" stroke-linejoin="round" stroke-width=".5"/><line x1="208.21" y1="188.29" x2="208.21" y2="194.418" fill="none" stroke="#231f20" stroke-linecap="round" stroke-linejoin="round" stroke-width=".5"/><path d="M126.454,195.148l-1.763.333s-1.897.366-.566.732,2.995.665,2.995.665c0,0,2.895.932,3.527,1.697s2.163.632,2.828.433,4.425-.965,4.425-.965l8.418-.532s1.996.2,1.863-1.098-.865-4.325-.865-4.325c0,0-.233-.965-1.863-.632s-18.998,3.693-18.998,3.693Z" fill="none" stroke="#231f20" stroke-linecap="round" stroke-linejoin="round" stroke-width=".5"/><path d="M127.852,197.053s-.067-1.171,2.595-2.028l.166,3.085,7.253-1.257s3.294-.371,5.423.543" fill="none" stroke="#231f20" stroke-linecap="round" stroke-linejoin="round" stroke-width=".5"/><path d="M143.523,197.453c2.03-.6.965-1.886.965-1.886-1.331-1.657-7.02-1.8-7.02-1.8l.366,2.857" fill="none" stroke="#231f20" stroke-linecap="round" stroke-linejoin="round" stroke-width=".5"/><polyline points="119.201 197.664 122.321 198.534 124.008 200.222 127.281 202.523 127.435 208.2 126.003 208.456" fill="none" stroke="#231f20" stroke-linecap="round" stroke-linejoin="round" stroke-width=".5"/><path d="M127.537,203.904l2.455,1.381s2.046.767,4.347.256,14.934-3.785,14.934-3.785c0,0,1.227-.511,1.279-1.381s-.091-3.346-.091-3.346" fill="none" stroke="#231f20" stroke-linecap="round" stroke-linejoin="round" stroke-width=".5"/><path d="M190.414,183.374l-1.785-1.468-74.08,14.382.449,3.376,1.09.962,3.014-.385.834.641.128,3.078,5.836,4.425-.192-5.708-4.553-2.822s-.705-1.539-4.553-1.667c0,0-1.026-.77.641-.898s3.463-.449,3.463-.449l5.13,1.154,3.399,1.731s2.052.962,4.81.321,4.233-1.026,4.233-1.026l8.593-.449,2.373-.449s1.347-.192,1.218-1.667-.834-4.168-.834-4.168c0,0-.577-.577,1.09-.962s39.696-7.952,39.696-7.952l-.064,3.271-39.76,7.824" fill="none" stroke="#231f20" stroke-linecap="round" stroke-linejoin="round" stroke-width=".5"/><line x1="190.44" y1="183.228" x2="196.043" y2="182.155" fill="none" stroke="#231f20" stroke-linecap="round" stroke-linejoin="round" stroke-width=".5"/><line x1="190.887" y1="185.063" x2="198.491" y2="183.544" fill="none" stroke="#231f20" stroke-linecap="round" stroke-linejoin="round" stroke-width=".5"/><line x1="133.577" y1="200.328" x2="134.339" y2="205.541" fill="none" stroke="#231f20" stroke-linecap="round" stroke-linejoin="round" stroke-width=".5"/><polygon points="135.601 201.484 135.986 203.46 137.673 202.063 135.601 201.484" fill="#231f20" stroke-width="0"/><line x1="19.543" y1="183.097" x2="26.484" y2="214.706" fill="none" stroke="#231f20" stroke-linecap="round" stroke-linejoin="round" stroke-width=".5"/><line x1="19.844" y1="216.284" x2="16.35" y2="203.254" fill="none" stroke="#231f20" stroke-linecap="round" stroke-linejoin="round" stroke-width=".5"/><polyline points="19.15 194.843 17.767 195.039 19.891 196.833 22.299 208.872 22.218 215.946" fill="none" stroke="#231f20" stroke-linecap="round" stroke-linejoin="round" stroke-width=".5"/><path d="M19.23,194.709s2.03,1.322,2.266,2.408,2.266,11.141,2.266,11.141l-.094,6.987" fill="none" stroke="#231f20" stroke-linecap="round" stroke-linejoin="round" stroke-width=".5"/><polyline points="20.646 215.953 20.93 208.966 18.711 198.108 16.728 194.426" fill="none" stroke="#231f20" stroke-linecap="round" stroke-linejoin="round" stroke-width=".5"/><line x1="112.605" y1="199.79" x2="114.916" y2="199.375" fill="none" stroke="#231f20" stroke-linecap="round" stroke-linejoin="round" stroke-width=".5"/><path d="M317.56,139.193l-41.602,6.271s-1.848.392-1.848,1.96-.784,16.574-.784,16.574c0,0-.112,1.736,2.184,1.344l40.56-7.499" fill="none" stroke="#231f20" stroke-linecap="round" stroke-linejoin="round" stroke-width=".5"/><path d="M280.494,167.359l-1.039.196s-1.117.216-.333.431,1.764.392,1.764.392c0,0,1.706.549,2.078,1s1.274.372,1.666.255,2.607-.569,2.607-.569l4.96-.314s1.176.118,1.098-.647-.51-2.549-.51-2.549c0,0-.137-.569-1.098-.372s-11.195,2.176-11.195,2.176Z" fill="none" stroke="#231f20" stroke-linecap="round" stroke-linejoin="round" stroke-width=".295"/><path d="M281.317,168.481s-.039-.69,1.529-1.195l.098,1.818,4.274-.741s1.941-.219,3.196.32" fill="none" stroke="#231f20" stroke-linecap="round" stroke-linejoin="round" stroke-width=".295"/><path d="M290.551,168.716c1.196-.354.569-1.111.569-1.111-.784-.976-4.137-1.061-4.137-1.061l.216,1.683" fill="none" stroke="#231f20" stroke-linecap="round" stroke-linejoin="round" stroke-width=".295"/><polyline points="276.22 168.841 278.058 169.354 279.052 170.348 280.981 171.704 281.071 175.049 280.228 175.2" fill="none" stroke="#231f20" stroke-linecap="round" stroke-linejoin="round" stroke-width=".295"/><path d="M281.132,172.518l1.446.814s1.205.452,2.562.151,8.8-2.23,8.8-2.23c0,0,.723-.301.753-.814s-.054-1.972-.054-1.972" fill="none" stroke="#231f20" stroke-linecap="round" stroke-linejoin="round" stroke-width=".295"/><path d="M318.181,160.421l-1.052-.865-43.651,8.474.265,1.989.642.567,1.776-.227.491.378.076,1.814,3.439,2.607-.113-3.363-2.683-1.663s-.416-.907-2.683-.982c0,0-.605-.453.378-.529s2.041-.265,2.041-.265l3.023.68,2.003,1.02s1.209.567,2.834.189,2.494-.605,2.494-.605l5.064-.265,1.398-.265s.794-.113.718-.982-.491-2.456-.491-2.456c0,0-.34-.34.642-.567s23.39-4.686,23.39-4.686l-.038,1.927-23.428,4.61" fill="none" stroke="#231f20" stroke-linecap="round" stroke-linejoin="round" stroke-width=".295"/><polyline points="318.46 161.416 319.991 161.15 320.085 160.077 318.196 160.334" fill="none" stroke="#231f20" stroke-linecap="round" stroke-linejoin="round" stroke-width=".295"/><line x1="284.691" y1="170.411" x2="285.14" y2="173.482" fill="none" stroke="#231f20" stroke-linecap="round" stroke-linejoin="round" stroke-width=".295"/><polygon points="285.883 171.092 286.11 172.256 287.104 171.433 285.883 171.092" fill="#231f20" stroke-width="0"/><path d="M272.186,165.826s2.95,1.566,5.11,1.165" fill="none" stroke="#231f20" stroke-linecap="round" stroke-linejoin="round" stroke-width=".5"/><line x1="321.297" y1="159.052" x2="321.064" y2="161.942" fill="none" stroke="#231f20" stroke-linecap="round" stroke-linejoin="round" stroke-width=".295"/><path d="M299.231,171.267l-1.538,15.341s-.037.805.915.586,5.748-1.501,5.748-1.501c0,0,1.098-.366,1.172-1.428s1.465-14.609,1.465-14.609c0,0,.146-.915-.622-.732s-6.297,1.318-6.297,1.318c0,0-.915.146-.842,1.025Z" fill="none" stroke="#231f20" stroke-linecap="round" stroke-linejoin="round" stroke-width=".5"/><path d="M306.781,168.927l-2.461-1.211s-.915-.549-1.684-.366-6.297,1.318-6.297,1.318c0,0-.915.146-.842,1.025l-1.538,15.341s-.22.66.853,1.05l3.245,1.171" fill="none" stroke="#231f20" stroke-linecap="round" stroke-linejoin="round" stroke-width=".5"/><polyline points="307.039 168.902 307.202 166.946 317.999 164.787 316.696 164.094 305.857 166.253 305.613 168.087" fill="none" stroke="#231f20" stroke-linecap="round" stroke-linejoin="round" stroke-width=".5"/><line x1="317.999" y1="164.787" x2="317.307" y2="172.324" fill="none" stroke="#231f20" stroke-linecap="round" stroke-linejoin="round" stroke-width=".5"/><path d="M318.42,164.433s.174-.829.717-1.422c.191-.208.427-.388.718-.491,1.116-.399,1.833-.478,1.833-.478,0,0,2.71.239,3.746,1.833s6.696,11.757,6.696,11.757c0,0,1.594,2.351,1.315,4.424s-.359,3.029-.359,3.029l-2.272.478s-.518.399-1.754-.12-3.148-1.235-3.148-1.235" fill="none" stroke="#231f20" stroke-linecap="round" stroke-linejoin="round" stroke-width=".5"/><path d="M319.497,162.919c1.873.08,2.83,1.514,2.83,1.514l7.971,13.471s.558,1.275.518,2.511-.279,2.989-.279,2.989" fill="none" stroke="#231f20" stroke-linecap="round" stroke-linejoin="round" stroke-width=".5"/><path d="M320.986,187.505l6.568,2.619s2.7.766,3.868-1.128" fill="none" stroke="#231f20" stroke-linecap="round" stroke-linejoin="round" stroke-width=".5"/><path d="M316.231,183.001l32.776,12.734,2.863.256s2.094-1.197.855-2.35-2.295-1.73-2.295-1.73l-32.291-11.909" fill="none" stroke="#231f20" stroke-linecap="round" stroke-linejoin="round" stroke-width=".5"/><polyline points="318.227 184.389 315.509 185.02 315.975 180.188 318.858 179.557 313.971 177.635 310.951 178.184 310.347 183.099 315.316 185.158" fill="none" stroke="#231f20" stroke-linecap="round" stroke-linejoin="round" stroke-width=".5"/><line x1="310.951" y1="178.184" x2="315.866" y2="180.134" fill="none" stroke="#231f20" stroke-linecap="round" stroke-linejoin="round" stroke-width=".5"/><path d="M320.896,180.999l.585-4.862s.057-.774-.86-1.089-6.707-2.35-6.707-2.35c0,0-.803-.057-.774.631l-.59,4.433" fill="none" stroke="#231f20" stroke-linecap="round" stroke-linejoin="round" stroke-width=".5"/><path d="M311.749,183.791l-.213,1.603s-.201.602.803.946,5.904,2.465,5.904,2.465c0,0,1.519.688,1.748-.287l.457-3.8" fill="none" stroke="#231f20" stroke-linecap="round" stroke-linejoin="round" stroke-width=".5"/><path d="M315.908,173.371s1.025-.936,2.584-.936l6.46,2.406" fill="none" stroke="#231f20" stroke-linecap="round" stroke-linejoin="round" stroke-width=".5"/><path d="M321.522,175.821s1.604-1.648,3.698-.624c0,0,1.47.98,1.292,2.94,0,0,.223,2.896-1.336,3.965" fill="none" stroke="#231f20" stroke-linecap="round" stroke-linejoin="round" stroke-width=".5"/><path d="M315.228,172.983l.53-4.659s.233-1.264-1.073-1.017c-1.46.276-4.032.875-4.032.875l-2.09,3.784-.452,6.95,1.073,2.933,1.355-.282" fill="none" stroke="#231f20" stroke-linecap="round" stroke-linejoin="round" stroke-width=".5"/><path d="M283.298,150.442s1.042-.321,1.082.441-.24,5.811-.24,5.811c0,0,.16.721-.401.761s-4.729.721-4.729.721c0,0-.641.16-.601-.681s.441-5.61.441-5.61c0,0,.08-.842.761-.922s3.687-.521,3.687-.521Z" fill="none" stroke="#231f20" stroke-linecap="round" stroke-linejoin="round" stroke-width=".5"/><path d="M284.128,150.345l-1.871-.818c-.315-.092-.722.033-.722.033,0,0-3.005.441-3.687.521s-.761.922-.761.922c0,0-.401,4.769-.441,5.61-.015.316.066.49.173.585l1.799.944" fill="none" stroke="#231f20" stroke-linecap="round" stroke-linejoin="round" stroke-width=".5"/><path d="M312.495,144.927s.877-.27.91.371-.202,4.89-.202,4.89c0,0,.135.607-.337.641s-12.867,2.031-12.867,2.031c0,0-.54.135-.506-.573s.371-4.721.371-4.721c0,0,.067-.708.641-.776s11.99-1.863,11.99-1.863Z" fill="none" stroke="#231f20" stroke-linecap="round" stroke-linejoin="round" stroke-width=".421"/><path d="M313.194,144.846l-1.575-.688c-.265-.077-9.495,1.452-9.495,1.452,0,0-2.529.371-3.102.438s-.641.776-.641.776c0,0-.337,4.013-.371,4.721-.013.266.055.413.145.493l1.514.795" fill="none" stroke="#231f20" stroke-linecap="round" stroke-linejoin="round" stroke-width=".421"/><path d="M296.441,148.099s1.042-.321,1.082.441-.24,5.811-.24,5.811c0,0,.16.721-.401.761s-10.025,1.835-10.025,1.835c0,0-.641.16-.601-.681s.441-5.61.441-5.61c0,0,.08-.842.761-.922s8.983-1.635,8.983-1.635Z" fill="none" stroke="#231f20" stroke-linecap="round" stroke-linejoin="round" stroke-width=".5"/><path d="M297.271,148.002l-1.871-.818c-.315-.092-.722.033-.722.033,0,0-8.302,1.554-8.983,1.635s-.761.922-.761.922c0,0-.401,4.769-.441,5.61-.015.316.066.49.173.585l1.799.944" fill="none" stroke="#231f20" stroke-linecap="round" stroke-linejoin="round" stroke-width=".5"/><line x1="292.337" y1="149.071" x2="291.838" y2="155.787" fill="none" stroke="#231f20" stroke-linecap="round" stroke-linejoin="round" stroke-width=".5"/><line x1="306.505" y1="145.939" x2="306.077" y2="151.683" fill="none" stroke="#231f20" stroke-linecap="round" stroke-linejoin="round" stroke-width=".421"/><path d="M319.438,138.314l10.768,2.386s.516.129.516.967c0,0-1.225-.322-1.354.258l-.387,1.419s-.451,1.032-1.677.645-8.77-2.257-8.77-2.257l-.645-.838.258-1.999s.387-.451,1.29-.58Z" fill="none" stroke="#231f20" stroke-linecap="round" stroke-linejoin="round" stroke-width=".421"/><line x1="330.722" y1="141.667" x2="371.297" y2="151.563" fill="none" stroke="#231f20" stroke-linecap="round" stroke-linejoin="round" stroke-width=".421"/><line x1="328.781" y1="143.95" x2="368.855" y2="153.861" fill="none" stroke="#231f20" stroke-linecap="round" stroke-linejoin="round" stroke-width=".421"/><path d="M318.535,141.732l-.095,2.003s-1.58,1.652-1.652,2.873l-.287,3.16.718,1.867-.072,2.657" fill="none" stroke="#231f20" stroke-linecap="round" stroke-linejoin="round" stroke-width=".421"/><path d="M347.653,148.685s2.146.633,1.97,2.005l-1.759,10.801s-.211,1.407-1.478,1.02l-7.388-2.111s-1.371-.357-1.231-1.373v-.596l-17.871-5.221-.107-.304-.07-.844-1.055-1.9.457-3.518,1.372-2.005.141-1.02,18.224,4.644s.668-1.548,2.568-1.231" fill="none" stroke="#231f20" stroke-linecap="round" stroke-linejoin="round" stroke-width=".421"/><path d="M321.964,144.192s-3.559,4.211-.788,9.101" fill="none" stroke="#231f20" stroke-linecap="round" stroke-linejoin="round" stroke-width=".421"/><path d="M390.109,149.004l-8.63-2.035s-9.332-.631-16.84,14.665c-7.508,15.296,3.087,20.558,3.087,20.558l7.157,2.175s4.701,1.123,9.121-2.596l1.333-5.964" fill="none" stroke="#231f20" stroke-linecap="round" stroke-linejoin="round" stroke-width=".421"/><path d="M317.98,155.038l8.771,2.386-.14,1.965,1.123.351-.07.772-.772.07-10.244-3.157s-1.473-2.175.702-2.666" fill="none" stroke="#231f20" stroke-linecap="round" stroke-linejoin="round" stroke-width=".421"/><line x1="328.575" y1="159.95" x2="361.763" y2="169.913" fill="none" stroke="#231f20" stroke-linecap="round" stroke-linejoin="round" stroke-width=".421"/><line x1="327.029" y1="157.75" x2="361.979" y2="168.258" fill="none" stroke="#231f20" stroke-linecap="round" stroke-linejoin="round" stroke-width=".421"/><path d="M368.16,155.178l-15.234-3.877s-1.496-.272-1.768,1.224-1.496,8.161-1.496,8.161c0,0,.136,1.7,1.496,2.04s11.63,3.264,11.63,3.264" fill="none" stroke="#231f20" stroke-linecap="round" stroke-linejoin="round" stroke-width=".421"/><path d="M373.813,150.123s2.846-1.51,4.763-.29.174,2.498.174,2.498c0,0-5.343,3.078-8.189,21.606,0,0,.058,8.015,4.995,9.525,0,0,2.556.987,5.169-2.091" fill="none" stroke="#231f20" stroke-linecap="round" stroke-linejoin="round" stroke-width=".421"/><path d="M372.919,178.052c2.666-1.052,4.07-10.034,4.07-10.034l8.279,2.175-.982,4.14c-2.035,9.051-7.578,8.35-7.578,8.35-7.227-2.245-4.561-14.103-4.561-14.103,1.82-7.158,4.781-11.603,7.526-14.336,3.498-3.482,6.647-4.187,6.647-4.187,4.561-1.614,3.719,0,3.719,0l-.96,7.296v7.523s-1.31,3.297-1.733,4.522-1.522.972-1.522.972l-12.172-3.677s1.352-2.325,1.902-3.592,1.986-1.606,1.986-1.606l7.861,2.071s-.93.571-.845,1.331,1.226,3.762,1.226,3.762l.888-3.254-1.648-.465" fill="none" stroke="#231f20" stroke-linecap="round" stroke-linejoin="round" stroke-width=".421"/><path d="M379.673,154.244c1.545,7.229,5.94,3.785,5.602,3.869l-4.438-1.374" fill="none" stroke="#231f20" stroke-linecap="round" stroke-linejoin="round" stroke-width=".421"/><path d="M377.33,160.797s.38-.592,1.86-.211,5.663,1.479,5.663,1.479c0,0,1.733.634,1.099,2.663" fill="none" stroke="#231f20" stroke-linecap="round" stroke-linejoin="round" stroke-width=".421"/><path d="M371.951,173.113s2.642.944,4.151-1.069" fill="none" stroke="#231f20" stroke-linecap="round" stroke-linejoin="round" stroke-width=".421"/><path d="M389.079,157.352s2.245-1.411,5.705.162,4.466,5.598,4.466,5.598l-2.705,12.706s-2.642,3.46-6.416,2.453-3.888-1.9-5.844-3.938" fill="none" stroke="#231f20" stroke-linecap="round" stroke-linejoin="round" stroke-width=".421"/><path d="M389.438,160.596s.503-1.384,3.522-.755c3.019.629,2.956,4.151,2.956,4.151l-2.202,10.316s-1.635,2.705-5.85,1.006c0,0-2.202-3.46-2.768-3.522" fill="none" stroke="#231f20" stroke-linecap="round" stroke-linejoin="round" stroke-width=".421"/><ellipse cx="345.788" cy="151.404" rx="1.47" ry="1.54" fill="none" stroke="#231f20" stroke-linecap="round" stroke-linejoin="round" stroke-width=".421"/><ellipse cx="344.621" cy="159.199" rx="1.47" ry="1.54" fill="none" stroke="#231f20" stroke-linecap="round" stroke-linejoin="round" stroke-width=".421"/><polyline points="320.018 159.792 318.86 159.302 317.129 159.556" fill="none" stroke="#231f20" stroke-linecap="round" stroke-linejoin="round" stroke-width=".295"/><line x1="199.237" y1="236.977" x2="200.596" y2="236.638" fill="none" stroke="#231f20" stroke-linecap="round" stroke-linejoin="round" stroke-width=".5"/><line x1="220.13" y1="215.386" x2="220.244" y2="225.783" fill="none" stroke="#231f20" stroke-linecap="round" stroke-linejoin="round" stroke-width=".5"/><line x1="62.549" y1="239.192" x2="214.159" y2="204.051" fill="none" stroke="#231f20" stroke-linecap="round" stroke-linejoin="round" stroke-width=".5"/><polyline points="30.375 270.083 25.882 249.864 39.028 246.726 41.472 244.077 58.394 240.155" fill="none" stroke="#231f20" stroke-linecap="round" stroke-linejoin="round" stroke-width=".5"/><line x1="185.186" y1="240.485" x2="32.302" y2="278.758" fill="none" stroke="#231f20" stroke-linecap="round" stroke-linejoin="round" stroke-width=".5"/><path d="M97.986,262.182l6.22,5.297,2.376-.823.975,2.585.101,4.182s-11.18,2.145-14.485,2.787-4.574-1.501-4.574-1.501c-1.365-1.65-4.281-.719-4.281-.719l-52.202,11.451-.689-4.415.874-2.27" fill="none" stroke="#231f20" stroke-linecap="round" stroke-linejoin="round" stroke-width=".5"/><path d="M107.557,269.242s-12.124,2.463-14.888,3.022c-2.764.559-3.786-.823-3.786-.823,0,0-.51-.433-1.604-1.373s-3.42-.166-3.42-.166l-52.431,11.127" fill="none" stroke="#231f20" stroke-linecap="round" stroke-linejoin="round" stroke-width=".5"/><polygon points="45.258 276.716 84.295 267.914 83.117 267.115 45.258 276.716" fill="none" stroke="#231f20" stroke-linecap="round" stroke-linejoin="round" stroke-width=".5"/><path d="M88.239,266.448l7.501-1.887s.923-.249,1.871.546,3.673,2.975,3.673,2.975c0,0,.73.578-.071.812s-8.448,1.903-8.448,1.903c0,0-1.02.09-1.75-.488s-3.43-3.113-3.43-3.113c0,0-.147-.661.654-.747Z" fill="none" stroke="#231f20" stroke-linecap="round" stroke-linejoin="round" stroke-width=".5"/><path d="M211.74,239.353l.008,4.106-1.421.351" fill="none" stroke="#231f20" stroke-linecap="round" stroke-linejoin="round" stroke-width=".5"/><path d="M204.086,226.369l-.01-5.099,1.422-.284,5.697,4.42s.518.449.52,1.364c0,.369.006,3.151.012,6.342" fill="none" stroke="#231f20" stroke-linecap="round" stroke-linejoin="round" stroke-width=".5"/><path d="M204.076,221.335l5.697,4.42s.518.449.52,1.364.033,16.69.033,16.69l-5.697-4.617" fill="none" stroke="#231f20" stroke-linecap="round" stroke-linejoin="round" stroke-width=".5"/><polyline points="199.004 222.448 208.85 231.204 203.855 232.355 198.698 227.461" fill="none" stroke="#231f20" stroke-linecap="round" stroke-linejoin="round" stroke-width=".5"/><line x1="203.855" y1="232.355" x2="203.869" y2="239.066" fill="none" stroke="#231f20" stroke-linecap="round" stroke-linejoin="round" stroke-width=".5"/><path d="M208.85,231.204l.002,1.188-3.827.876.009,4.413,3.896-.877s.047,1.184.047,1.048l-4.97,1.212-4.712-4.455" fill="none" stroke="#231f20" stroke-linecap="round" stroke-linejoin="round" stroke-width=".5"/><path d="M210.568,234.007l22.84,19.426,1.853,2.773s1.275,2.373-.053,2.511l-1.848-.379-22.899-19.833" fill="none" stroke="#231f20" stroke-linecap="round" stroke-linejoin="round" stroke-width=".5"/><path d="M210.655,232.497l23.733,20.22,1.853,2.773s.759,2.978-.568,3.116" fill="none" stroke="#231f20" stroke-linecap="round" stroke-linejoin="round" stroke-width=".5"/><path d="M186.266,217.769s-1.458.023-1.456,1.095l1.102,21.09s-.064,1.408,1.526,1.048,10.795-2.785,10.795-2.785c0,0,.861-.148.79-2.425s-.633-18.953-.633-18.953c0,0,.063-1.877-1.394-1.452s-10.73,2.382-10.73,2.382Z" fill="none" stroke="#231f20" stroke-linecap="round" stroke-linejoin="round" stroke-width=".5"/><path d="M198.123,215.638l-2.9-2.679c-.202-.268-.535-.432-1.081-.273-1.457.425-10.73,2.382-10.73,2.382,0,0-1.458.023-1.456,1.095l1.102,21.09s-.017.37.181.682l2.873,2.859" fill="none" stroke="#231f20" stroke-linecap="round" stroke-linejoin="round" stroke-width=".5"/><polyline points="198.532 237.326 193.933 232.592 193.355 216.524" fill="none" stroke="#231f20" stroke-linecap="round" stroke-linejoin="round" stroke-width=".5"/><line x1="186.014" y1="234.431" x2="193.933" y2="232.592" fill="none" stroke="#231f20" stroke-linecap="round" stroke-linejoin="round" stroke-width=".5"/><path d="M211.587,226.515c.9-.783,2.034-1.325,3.304-1.5,3.388-.469,6.462,1.839,6.867,5.156.405,3.317-2.014,6.386-5.401,6.855" fill="none" stroke="#231f20" stroke-linecap="round" stroke-linejoin="round" stroke-width=".5"/><path d="M217.474,226.181c.405,3.317-2.014,6.386-5.401,6.855" fill="none" stroke="#231f20" stroke-linecap="round" stroke-linejoin="round" stroke-width=".5"/><path d="M207.303,222.525c.9-.783,2.034-1.325,3.304-1.5,1.202-.166,2.365.017,3.383.471l6.346,5.056" fill="none" stroke="#231f20" stroke-linecap="round" stroke-linejoin="round" stroke-width=".5"/><line x1="211.061" y1="220.63" x2="216.395" y2="224.983" fill="none" stroke="#231f20" stroke-linecap="round" stroke-linejoin="round" stroke-width=".5"/><path d="M218.241,213.008c.075,4.625.137,11.426.137,11.426" fill="none" stroke="#231f20" stroke-linecap="round" stroke-linejoin="round" stroke-width=".5"/><path d="M200.686,223.621l-.075-10.721s-.164-.873.972-1.11c.918-.191,10.423-2.307,14.032-3.111" fill="none" stroke="#231f20" stroke-linecap="round" stroke-linejoin="round" stroke-width=".5"/><path d="M199.278,222.877l-.075-10.721s-.164-.873.972-1.11,15.09-3.318,15.09-3.318" fill="none" stroke="#231f20" stroke-linecap="round" stroke-linejoin="round" stroke-width=".5"/><path d="M209.684,220.927l-.016-8.212,4.217-.867,1.637,1.094.017,8.799.013,6.613s-.525,1.448-3.372,1.867" fill="none" stroke="#231f20" stroke-linecap="round" stroke-linejoin="round" stroke-width=".5"/><ellipse cx="109.743" cy="238.506" rx="1.693" ry="1.661" transform="translate(-89.271 67.269) rotate(-24.582)" fill="none" stroke="#231f20" stroke-linecap="round" stroke-linejoin="round" stroke-width=".5"/><ellipse cx="118.568" cy="236.54" rx="1.693" ry="1.661" transform="translate(-87.653 70.762) rotate(-24.582)" fill="none" stroke="#231f20" stroke-linecap="round" stroke-linejoin="round" stroke-width=".5"/><polygon points="124.994 236.964 127.072 235.247 129.728 235.994 130.098 238.988 127.655 240.869 125.364 239.906 124.994 236.964" fill="none" stroke="#231f20" stroke-linecap="round" stroke-linejoin="round" stroke-width=".5"/><polygon points="131.392 235.494 133.47 233.777 136.126 234.524 136.496 237.518 134.054 239.399 131.762 238.435 131.392 235.494" fill="none" stroke="#231f20" stroke-linecap="round" stroke-linejoin="round" stroke-width=".5"/><polygon points="137.947 233.916 140.025 232.199 142.681 232.946 143.051 235.94 140.608 237.821 138.317 236.858 137.947 233.916" fill="none" stroke="#231f20" stroke-linecap="round" stroke-linejoin="round" stroke-width=".5"/><polygon points="144.553 232.338 146.631 230.621 149.287 231.368 149.657 234.362 147.215 236.243 144.923 235.279 144.553 232.338" fill="none" stroke="#231f20" stroke-linecap="round" stroke-linejoin="round" stroke-width=".5"/><polygon points="150.9 230.921 152.978 229.204 155.634 229.951 156.004 232.945 153.561 234.826 151.27 233.862 150.9 230.921" fill="none" stroke="#231f20" stroke-linecap="round" stroke-linejoin="round" stroke-width=".5"/><polygon points="157.142 229.348 159.22 227.631 161.876 228.378 162.246 231.372 159.804 233.253 157.512 232.29 157.142 229.348" fill="none" stroke="#231f20" stroke-linecap="round" stroke-linejoin="round" stroke-width=".5"/><polygon points="163.332 227.934 165.411 226.217 168.066 226.964 168.437 229.958 165.994 231.839 163.702 230.875 163.332 227.934" fill="none" stroke="#231f20" stroke-linecap="round" stroke-linejoin="round" stroke-width=".5"/><polygon points="169.326 226.483 171.404 224.766 174.06 225.513 174.43 228.507 171.988 230.388 169.696 229.424 169.326 226.483" fill="none" stroke="#231f20" stroke-linecap="round" stroke-linejoin="round" stroke-width=".5"/><polygon points="180.448 227.064 178.006 228.945 175.714 227.981 175.344 225.04 177.422 223.323 180.078 224.07 180.448 227.064" fill="none" stroke="#231f20" stroke-linecap="round" stroke-linejoin="round" stroke-width=".5"/><polygon points="173.184 230.913 175.262 229.196 177.918 229.943 178.288 232.937 175.846 234.818 173.554 233.855 173.184 230.913" fill="none" stroke="#231f20" stroke-linecap="round" stroke-linejoin="round" stroke-width=".5"/><polygon points="128.905 241.375 130.984 239.658 133.64 240.405 134.01 243.399 131.567 245.28 129.276 244.317 128.905 241.375" fill="none" stroke="#231f20" stroke-linecap="round" stroke-linejoin="round" stroke-width=".5"/><polygon points="132.82 245.942 134.898 244.224 137.554 244.972 137.924 247.965 135.482 249.846 133.19 248.883 132.82 245.942" fill="none" stroke="#231f20" stroke-linecap="round" stroke-linejoin="round" stroke-width=".5"/><polygon points="139.164 244.298 141.242 242.581 143.898 243.328 144.268 246.322 141.825 248.203 139.534 247.239 139.164 244.298" fill="none" stroke="#231f20" stroke-linecap="round" stroke-linejoin="round" stroke-width=".5"/><polygon points="145.934 242.586 148.012 240.869 150.668 241.616 151.038 244.61 148.596 246.491 146.304 245.527 145.934 242.586" fill="none" stroke="#231f20" stroke-linecap="round" stroke-linejoin="round" stroke-width=".5"/><polygon points="152.339 241.126 154.417 239.409 157.073 240.156 157.443 243.15 155.001 245.031 152.709 244.068 152.339 241.126" fill="none" stroke="#231f20" stroke-linecap="round" stroke-linejoin="round" stroke-width=".5"/><polygon points="158.743 239.482 160.822 237.764 163.478 238.512 163.848 241.506 161.405 243.386 159.114 242.423 158.743 239.482" fill="none" stroke="#231f20" stroke-linecap="round" stroke-linejoin="round" stroke-width=".5"/><polygon points="164.904 238.088 166.983 236.371 169.638 237.118 170.009 240.112 167.566 241.993 165.274 241.029 164.904 238.088" fill="none" stroke="#231f20" stroke-linecap="round" stroke-linejoin="round" stroke-width=".5"/><polygon points="171.187 236.63 173.266 234.913 175.921 235.66 176.291 238.654 173.849 240.535 171.557 239.571 171.187 236.63" fill="none" stroke="#231f20" stroke-linecap="round" stroke-linejoin="round" stroke-width=".5"/><polygon points="135.304 239.905 137.382 238.188 140.038 238.935 140.408 241.929 137.966 243.81 135.674 242.847 135.304 239.905" fill="none" stroke="#231f20" stroke-linecap="round" stroke-linejoin="round" stroke-width=".5"/><polygon points="141.858 238.328 143.937 236.61 146.593 237.358 146.963 240.352 144.52 242.232 142.229 241.269 141.858 238.328" fill="none" stroke="#231f20" stroke-linecap="round" stroke-linejoin="round" stroke-width=".5"/><polygon points="148.465 236.749 150.543 235.032 153.199 235.779 153.569 238.773 151.127 240.654 148.835 239.69 148.465 236.749" fill="none" stroke="#231f20" stroke-linecap="round" stroke-linejoin="round" stroke-width=".5"/><polygon points="154.812 235.332 156.89 233.615 159.546 234.362 159.916 237.356 157.473 239.237 155.182 238.274 154.812 235.332" fill="none" stroke="#231f20" stroke-linecap="round" stroke-linejoin="round" stroke-width=".5"/><polygon points="161.054 233.759 163.132 232.042 165.788 232.789 166.158 235.783 163.716 237.664 161.424 236.701 161.054 233.759" fill="none" stroke="#231f20" stroke-linecap="round" stroke-linejoin="round" stroke-width=".5"/><polygon points="167.244 232.345 169.323 230.628 171.978 231.375 172.348 234.369 169.906 236.25 167.614 235.287 167.244 232.345" fill="none" stroke="#231f20" stroke-linecap="round" stroke-linejoin="round" stroke-width=".5"/><polygon points="171.623 220.159 173.701 218.441 176.357 219.189 176.727 222.183 174.285 224.063 171.993 223.1 171.623 220.159" fill="none" stroke="#231f20" stroke-linecap="round" stroke-linejoin="round" stroke-width=".5"/><polygon points="127.344 230.621 129.423 228.904 132.078 229.651 132.449 232.645 130.006 234.526 127.714 233.562 127.344 230.621" fill="none" stroke="#231f20" stroke-linecap="round" stroke-linejoin="round" stroke-width=".5"/><polygon points="133.743 229.151 135.821 227.434 138.477 228.181 138.847 231.175 136.405 233.055 134.113 232.092 133.743 229.151" fill="none" stroke="#231f20" stroke-linecap="round" stroke-linejoin="round" stroke-width=".5"/><polygon points="140.297 227.573 142.376 225.856 145.031 226.603 145.402 229.597 142.959 231.478 140.667 230.514 140.297 227.573" fill="none" stroke="#231f20" stroke-linecap="round" stroke-linejoin="round" stroke-width=".5"/><polygon points="146.904 225.994 148.982 224.277 151.638 225.024 152.008 228.018 149.566 229.899 147.274 228.936 146.904 225.994" fill="none" stroke="#231f20" stroke-linecap="round" stroke-linejoin="round" stroke-width=".5"/><polygon points="153.25 224.578 155.329 222.86 157.984 223.608 158.355 226.602 155.912 228.482 153.62 227.519 153.25 224.578" fill="none" stroke="#231f20" stroke-linecap="round" stroke-linejoin="round" stroke-width=".5"/><polygon points="159.493 223.005 161.571 221.288 164.227 222.035 164.597 225.029 162.154 226.91 159.863 225.946 159.493 223.005" fill="none" stroke="#231f20" stroke-linecap="round" stroke-linejoin="round" stroke-width=".5"/><polygon points="165.683 221.591 167.761 219.873 170.417 220.621 170.787 223.615 168.345 225.495 166.053 224.532 165.683 221.591" fill="none" stroke="#231f20" stroke-linecap="round" stroke-linejoin="round" stroke-width=".5"/><polyline points="41.784 250.777 42.212 253.28 39.377 255.464 36.716 254.345 36.286 250.93" fill="none" stroke="#231f20" stroke-linecap="round" stroke-linejoin="round" stroke-width=".5"/><polygon points="32.977 258.193 35.39 256.199 38.473 257.067 38.903 260.543 36.067 262.726 33.407 261.608 32.977 258.193" fill="none" stroke="#231f20" stroke-linecap="round" stroke-linejoin="round" stroke-width=".5"/><polygon points="40.406 256.486 42.819 254.492 45.902 255.36 46.332 258.836 43.496 261.02 40.835 259.901 40.406 256.486" fill="none" stroke="#231f20" stroke-linecap="round" stroke-linejoin="round" stroke-width=".5"/><polygon points="36.243 250.936 38.656 248.942 41.74 249.81 42.169 253.286 39.334 255.47 36.673 254.351 36.243 250.936" fill="none" stroke="#231f20" stroke-linecap="round" stroke-linejoin="round" stroke-width=".5"/><polygon points="43.181 249.251 45.594 247.257 48.677 248.125 49.107 251.601 46.271 253.785 43.611 252.666 43.181 249.251" fill="none" stroke="#231f20" stroke-linecap="round" stroke-linejoin="round" stroke-width=".5"/><polyline points="50.879 259.029 48.445 258.069 48.016 254.654 50.429 252.66 53.513 253.982 53.756 255.693" fill="none" stroke="#231f20" stroke-linecap="round" stroke-linejoin="round" stroke-width=".5"/><polyline points="63.293 244.616 64.096 244.842 64.525 248.318 63.119 249.401" fill="none" stroke="#231f20" stroke-linecap="round" stroke-linejoin="round" stroke-width=".5"/><polygon points="65.816 244.347 68.229 242.353 71.312 243.221 71.742 246.697 68.906 248.881 66.245 247.762 65.816 244.347" fill="none" stroke="#231f20" stroke-linecap="round" stroke-linejoin="round" stroke-width=".5"/><polygon points="50.456 247.593 52.869 245.599 55.953 246.467 56.383 249.943 53.547 252.126 50.886 251.008 50.456 247.593" fill="none" stroke="#231f20" stroke-linecap="round" stroke-linejoin="round" stroke-width=".5"/><polygon points="73.089 242.551 75.502 240.557 78.586 241.425 79.016 244.901 76.18 247.085 73.519 245.966 73.089 242.551" fill="none" stroke="#231f20" stroke-linecap="round" stroke-linejoin="round" stroke-width=".5"/><polygon points="80.306 240.93 82.719 238.936 85.802 239.804 86.232 243.28 83.396 245.463 80.736 244.345 80.306 240.93" fill="none" stroke="#231f20" stroke-linecap="round" stroke-linejoin="round" stroke-width=".5"/><polygon points="87.293 239.138 89.706 237.145 92.789 238.012 93.219 241.488 90.384 243.672 87.723 242.553 87.293 239.138" fill="none" stroke="#231f20" stroke-linecap="round" stroke-linejoin="round" stroke-width=".5"/><polygon points="70.302 249.35 72.715 247.357 75.799 248.224 76.228 251.7 73.393 253.884 70.732 252.765 70.302 249.35" fill="none" stroke="#231f20" stroke-linecap="round" stroke-linejoin="round" stroke-width=".5"/><polygon points="77.489 247.709 79.902 245.715 82.986 246.582 83.416 250.058 80.58 252.242 77.919 251.123 77.489 247.709" fill="none" stroke="#231f20" stroke-linecap="round" stroke-linejoin="round" stroke-width=".5"/><polygon points="84.448 246.024 86.861 244.03 89.944 244.898 90.374 248.374 87.538 250.557 84.878 249.439 84.448 246.024" fill="none" stroke="#231f20" stroke-linecap="round" stroke-linejoin="round" stroke-width=".5"/><polygon points="97.361 246.698 94.526 248.882 91.865 247.763 91.435 244.348 93.848 242.355 96.932 243.222 97.361 246.698" fill="none" stroke="#231f20" stroke-linecap="round" stroke-linejoin="round" stroke-width=".5"/><polygon points="88.927 251.168 91.34 249.174 94.424 250.041 94.854 253.517 92.018 255.701 89.357 254.582 88.927 251.168" fill="none" stroke="#231f20" stroke-linecap="round" stroke-linejoin="round" stroke-width=".5"/><polyline points="38.619 267.011 37.948 266.729 37.519 263.314 39.932 261.321 43.015 262.188 43.297 264.575" fill="none" stroke="#231f20" stroke-linecap="round" stroke-linejoin="round" stroke-width=".5"/><polyline points="54.925 265.581 55.355 269.057 52.519 271.241 49.858 270.122" fill="none" stroke="#231f20" stroke-linecap="round" stroke-linejoin="round" stroke-width=".5"/><polygon points="57.29 264.72 59.703 262.726 62.786 263.593 63.216 267.069 60.38 269.253 57.719 268.135 57.29 264.72" fill="none" stroke="#231f20" stroke-linecap="round" stroke-linejoin="round" stroke-width=".5"/><polygon points="72.162 261.116 74.575 259.122 77.658 259.989 78.088 263.465 75.252 265.649 72.591 264.531 72.162 261.116" fill="none" stroke="#231f20" stroke-linecap="round" stroke-linejoin="round" stroke-width=".5"/><polygon points="64.859 263.26 67.272 261.266 70.355 262.134 70.785 265.61 67.949 267.794 65.288 266.675 64.859 263.26" fill="none" stroke="#231f20" stroke-linecap="round" stroke-linejoin="round" stroke-width=".5"/><polygon points="63.062 251.146 65.475 249.153 68.558 250.02 68.988 253.496 66.152 255.68 63.492 254.561 63.062 251.146" fill="none" stroke="#231f20" stroke-linecap="round" stroke-linejoin="round" stroke-width=".5"/><polygon points="79.315 259.497 81.728 257.504 84.811 258.371 85.241 261.847 82.405 264.031 79.744 262.912 79.315 259.497" fill="none" stroke="#231f20" stroke-linecap="round" stroke-linejoin="round" stroke-width=".5"/><polygon points="86.609 257.805 89.022 255.811 92.106 256.679 92.535 260.155 89.7 262.339 87.039 261.22 86.609 257.805" fill="none" stroke="#231f20" stroke-linecap="round" stroke-linejoin="round" stroke-width=".5"/><polyline points="45.18 263.452 44.948 261.608 47.361 259.614 49.505 260.217" fill="none" stroke="#231f20" stroke-linecap="round" stroke-linejoin="round" stroke-width=".5"/><polyline points="67.965 256.025 70.01 254.304 73.093 255.172 73.523 258.648 70.687 260.832" fill="none" stroke="#231f20" stroke-linecap="round" stroke-linejoin="round" stroke-width=".5"/><polygon points="74.844 254.472 77.257 252.478 80.34 253.346 80.77 256.822 77.935 259.006 75.274 257.887 74.844 254.472" fill="none" stroke="#231f20" stroke-linecap="round" stroke-linejoin="round" stroke-width=".5"/><polygon points="67.573 256.29 69.986 254.296 73.069 255.164 73.499 258.64 70.663 260.823 68.002 259.705 67.573 256.29" fill="none" stroke="#231f20" stroke-linecap="round" stroke-linejoin="round" stroke-width=".5"/><polygon points="60.301 258.108 62.714 256.114 65.798 256.981 66.228 260.457 63.392 262.641 60.731 261.523 60.301 258.108" fill="none" stroke="#231f20" stroke-linecap="round" stroke-linejoin="round" stroke-width=".5"/><polygon points="82.031 252.83 84.444 250.836 87.528 251.704 87.958 255.18 85.122 257.364 82.461 256.245 82.031 252.83" fill="none" stroke="#231f20" stroke-linecap="round" stroke-linejoin="round" stroke-width=".5"/><line x1="194.67" y1="185.202" x2="213.902" y2="198.487" fill="none" stroke="#231f20" stroke-linecap="round" stroke-linejoin="round" stroke-width=".5"/><line x1="25.87" y1="249.661" x2="27.579" y2="225.174" fill="none" stroke="#231f20" stroke-linecap="round" stroke-linejoin="round" stroke-width=".5"/><path d="M194.856,240.911l-40.276,54.829s-1.468,1.876.652,3.262,4.159,2.202,4.159,2.202c0,0,1.238.669,2.862.09" fill="none" stroke="#231f20" stroke-linecap="round" stroke-linejoin="round" stroke-width=".5"/><polyline points="170.099 305.211 170.099 301.901 175.795 303.837 175.795 307.675" fill="none" stroke="#231f20" stroke-linecap="round" stroke-linejoin="round" stroke-width=".5"/><polyline points="176.856 305.727 176.833 301.787 170.099 301.741" fill="none" stroke="#231f20" stroke-linecap="round" stroke-linejoin="round" stroke-width=".5"/><line x1="175.894" y1="303.551" x2="176.65" y2="301.856" fill="none" stroke="#231f20" stroke-linecap="round" stroke-linejoin="round" stroke-width=".5"/><path d="M208.493,242.295s-17.923,27.315-19.03,28.422.289,1.588.289,1.588c0,0,7.473,1.929,9.302,2.411s1.396,1.733,1.396,1.733c0,0-8.822,17.616-9.592,19.156s-3.273,1.444-3.273,1.444l-8.231.048s-10.011,1.54-11.359,2.166.144,1.059.144,1.059l10.06-1.685,12.641.058.635.565" fill="none" stroke="#231f20" stroke-linecap="round" stroke-linejoin="round" stroke-width=".5"/><path d="M162.653,301.529l4.675-.041s6.661-1.158,8.398-1.489,3.31-.414,3.31-.414l11.832.041.455.621s.124,4.303.165,5.171-.91.993-.91.993l-10.053-.29-3.765-.148-.702,1.794-5.927-2.106-7.331-.546-.546-3.821,44.377-60.32" fill="none" stroke="#231f20" stroke-linecap="round" stroke-linejoin="round" stroke-width=".5"/><line x1="190.474" y1="272.413" x2="209.753" y2="243.435" fill="none" stroke="#231f20" stroke-linecap="round" stroke-linejoin="round" stroke-width=".5"/><polyline points="200.538 275.96 200.538 280.095 191.322 300.246" fill="none" stroke="#231f20" stroke-linecap="round" stroke-linejoin="round" stroke-width=".5"/><path d="M192.219,289.397c-.253.591-4.287,6.162-4.287,6.162l-7.473.042-11.4,1.731s-1.647.464-.718-.76l8.17-9.285" fill="none" stroke="#231f20" stroke-linecap="round" stroke-linejoin="round" stroke-width=".5"/><path d="M192.181,289.286s-.084-2.196-5.193-3.167-10.387,1.182-10.387,1.182l.127,3.42s7.431-3.631,14.44.38" fill="none" stroke="#231f20" stroke-linecap="round" stroke-linejoin="round" stroke-width=".5"/><path d="M170.706,294.292s.38,1.689,2.069,2.196" fill="none" stroke="#231f20" stroke-linecap="round" stroke-linejoin="round" stroke-width=".5"/><line x1="176.823" y1="290.647" x2="172.437" y2="296.023" fill="none" stroke="#231f20" stroke-linecap="round" stroke-linejoin="round" stroke-width=".5"/><line x1="180.942" y1="299.757" x2="180.942" y2="305.98" fill="none" stroke="#231f20" stroke-linecap="round" stroke-linejoin="round" stroke-width=".5"/><line x1="182.53" y1="299.947" x2="182.53" y2="306.171" fill="none" stroke="#231f20" stroke-linecap="round" stroke-linejoin="round" stroke-width=".5"/><line x1="184.117" y1="300.138" x2="184.117" y2="306.361" fill="none" stroke="#231f20" stroke-linecap="round" stroke-linejoin="round" stroke-width=".5"/><line x1="185.705" y1="299.947" x2="185.705" y2="306.171" fill="none" stroke="#231f20" stroke-linecap="round" stroke-linejoin="round" stroke-width=".5"/><line x1="187.292" y1="300.011" x2="187.292" y2="306.234" fill="none" stroke="#231f20" stroke-linecap="round" stroke-linejoin="round" stroke-width=".5"/><line x1="188.88" y1="300.138" x2="188.88" y2="306.361" fill="none" stroke="#231f20" stroke-linecap="round" stroke-linejoin="round" stroke-width=".5"/><line x1="162.8" y1="305.115" x2="158.709" y2="301.076" fill="none" stroke="#231f20" stroke-linecap="round" stroke-linejoin="round" stroke-width=".5"/><line x1="101.46" y1="264.81" x2="202.668" y2="238.811" fill="none" stroke="#231f20" stroke-linecap="round" stroke-linejoin="round" stroke-width=".5"/><g clip-path="url(#b)"><circle cx="220.85" cy="97.018" r="94.104" fill="#fff" stroke="#fff" stroke-miterlimit="10" stroke-width="4"/><path d="M305.039,81.663l-57.465,17.077-.403.159c.197.919.639,3.13.705,4.71.078,1.887-1.742,2.468-1.742,2.468,0,0-48.265,15.169-53.345,16.621s-6.605-1.887-6.605-1.887c-2.25-2.976-8.129-7.621-8.129-7.621l-1.285-.271.51,1.578,3.422,3.036s1.951,1.765,1.765,3.901.402,4.52.402,4.52c0,0,0,.929-1.951.65l-8.669-7.554s-.65-.774-.681-1.455.062-4.118.062-4.118l-3.833.958-3.044,1.071.056-9.075,133.418-31.001,6.811,6.234Z" fill="#dcddde" stroke-width="0"/><path d="M186.52,110.09l20.132-5.391s3.912,1.145,3.578,2.481c0,0-1.431,3.053-6.393,2.385,0,0-5.343.525-9.541,2.051,0,0-3.147,1.991-5.819.256s-1.957-1.783-1.957-1.783Z" fill="#fff" stroke-width="0"/><path d="M230.496,1.391c-19.374,2.954-38.351,5.847-56.389,8.596" fill="none" stroke="#231f20" stroke-linecap="round" stroke-linejoin="round" stroke-width=".5"/><line x1="295.4" y1="76.138" x2="297.261" y2="75.708" fill="none" stroke="#231f20" stroke-linecap="round" stroke-linejoin="round" stroke-width=".5"/><line x1="120.623" y1="116.516" x2="276.154" y2="80.584" fill="none" stroke="#231f20" stroke-linecap="round" stroke-linejoin="round" stroke-width=".5"/><path d="M121.114,127.166l16.865-3.392s3.994-1.198,5.858,1.065c0,0,1.731,2.929,6.257,2.13,4.527-.799,19.837-3.462,19.837-3.462l-.128-5.664-1.328-3.52-3.254,1.063-8.501-7.306" fill="none" stroke="#231f20" stroke-linecap="round" stroke-linejoin="round" stroke-width=".5"/><path d="M121.34,121.336l16.02-3.109s3.188-.996,4.682.299,2.192,1.893,2.192,1.893c0,0,1.395,1.893,5.18,1.195,3.785-.697,20.39-3.771,20.39-3.771" fill="none" stroke="#231f20" stroke-linecap="round" stroke-linejoin="round" stroke-width=".5"/><polyline points="120.533 118.154 136.351 114.438 137.962 115.545 120.771 119.107" fill="none" stroke="#231f20" stroke-linecap="round" stroke-linejoin="round" stroke-width=".5"/><path d="M143.365,113.645l10.273-2.394s.798-.798,2.095.299,5.486,4.588,5.486,4.588c0,0,.997.798-.1,1.097s-11.57,2.394-11.57,2.394c0,0-1.396.1-2.394-.698s-4.688-4.289-4.688-4.289c0,0-.199-.898.898-.997Z" fill="none" stroke="#231f20" stroke-linecap="round" stroke-linejoin="round" stroke-width=".5"/><line x1="164.964" y1="107.6" x2="165.246" y2="114.564" fill="none" stroke="#231f20" stroke-linecap="round" stroke-linejoin="round" stroke-width=".5"/><line x1="168.13" y1="110.695" x2="165.809" y2="114.704" fill="none" stroke="#231f20" stroke-dasharray="0 0 1.13 1.507" stroke-linecap="round" stroke-linejoin="round" stroke-width=".5"/><path d="M169.189,114.432l2.002-.683.596,4.824,9.355,8.3s-.563-4.854-.563-5.909-1.055-2.321-1.055-2.321l-4.502-4.15-1.548-1.759-7.386-4.572c-2.11-.985,1.407-2.251,1.407-2.251" fill="none" stroke="#231f20" stroke-dasharray="0 0 1.13 1.507" stroke-linecap="round" stroke-linejoin="round" stroke-width=".5"/><path d="M181.375,126.972l1.472-.448s-.384-4.607-.512-5.95-.64-1.983-.64-1.983l-4.415-4.095-1.152-2.687s-5.054-2.687-6.27-3.327.377-1.301.377-1.301l3.441-.875s1.108-.583,1.867.408,5.95,3.325,5.95,3.325l4.375,3.675s2.741,1.808,7.641.408,5.891-1.633,5.891-1.633l14.174-1.808,31.883-9.855s1.615-.809,1.3-2.776-.629-2.989-.629-2.989c0,0-.393-.865,1.652-1.495s52.471-15.733,52.471-15.733" fill="none" stroke="#231f20" stroke-dasharray="0 0 1.13 1.507" stroke-linecap="round" stroke-linejoin="round" stroke-width=".5"/><path d="M209.91,106.306c-2.175-2.111-8.445-2.047-8.445-2.047l-.384-4.223c7.422-.256,9.597,3.135,9.597,3.135,1.536,3.199-2.175,6.078-2.175,6.078l-9.533.896s-3.839,1.088-6.462,2.111c-2.623,1.024-4.031-.384-4.031-.384l-3.263-2.943s-4.415-2.431-5.758-3.263c-1.344-.832,1.088-1.088,1.088-1.088l8.829-1.983s-4.415,1.855-4.607,5.31" fill="none" stroke="#231f20" stroke-dasharray="0 0 1.13 1.507" stroke-linecap="round" stroke-linejoin="round" stroke-width=".5"/><path d="M187.005,109.505s1.408-1.727,2.943-2.239l-.576-4.67" fill="none" stroke="#231f20" stroke-linecap="round" stroke-linejoin="round" stroke-width=".5"/><line x1="189.902" y1="102.351" x2="299.262" y2="77.013" fill="none" stroke="#231f20" stroke-dasharray="0 0 1.13 1.507" stroke-linecap="round" stroke-linejoin="round" stroke-width=".5"/><path d="M177.799,113.172s5.879,4.645,8.129,7.621c0,0,1.524,3.339,6.605,1.887s53.345-16.621,53.345-16.621c0,0,1.82-.581,1.742-2.468-.084-2.041-.799-5.137-.799-5.137" fill="none" stroke="#231f20" stroke-dasharray="0 0 1.13 1.507" stroke-linecap="round" stroke-linejoin="round" stroke-width=".5"/><line x1="321.485" y1="76.681" x2="332.628" y2="73.37" fill="none" stroke="#231f20" stroke-linecap="round" stroke-linejoin="round" stroke-width=".5"/><line x1="247.318" y1="98.722" x2="304.783" y2="81.645" fill="none" stroke="#231f20" stroke-dasharray="0 0 1.13 1.507" stroke-linecap="round" stroke-linejoin="round" stroke-width=".5"/><line x1="187.748" y1="109.69" x2="206.292" y2="104.985" fill="none" stroke="#231f20" stroke-dasharray="0 0 1.13 1.507" stroke-linecap="round" stroke-linejoin="round" stroke-width=".5"/><path d="M87.665,78.397l90.271-17.338,7.731,4.127s1.773,1.719,5.21,1.128c3.438-.591,13.805-2.095,13.805-2.095l-.806-6.661" fill="none" stroke="#231f20" stroke-linecap="round" stroke-linejoin="round" stroke-width=".5"/><path d="M83.067,77.501l89.353-17.781,3.983-4.674,1.74-.151,7.036,4.388s1.967,1.589,5.296.984,11.879-1.665,11.879-1.665c0,0,1.74-.076,1.286-1.438l-2.951.151-8.625-5.296s-.151-1.665,2.421-1.967l-18.991,3.253-4.313,4.388-97.455,19.018" fill="none" stroke="#231f20" stroke-linecap="round" stroke-linejoin="round" stroke-width=".5"/><path d="M183.778,53.357l2.763-.412s1.47-.353,2.939.47,5.526,3.116,5.526,3.116c0,0,1.411.764.353,1.117s-5.115.941-5.115.941c0,0-.823.235-2.175-.529s-5.761-3.527-5.761-3.527c0,0-.705-.823,1.47-1.176Z" fill="none" stroke="#231f20" stroke-linecap="round" stroke-linejoin="round" stroke-width=".5"/><line x1="323.962" y1="30.211" x2="324.188" y2="61.435" fill="none" stroke="#231f20" stroke-linecap="round" stroke-linejoin="round" stroke-width=".5"/><path d="M312.51,79.623v5.558l-1.947.445" fill="none" stroke="#231f20" stroke-linecap="round" stroke-linejoin="round" stroke-width=".5"/><path d="M302.067,61.88v-6.903l1.947-.354,7.788,6.106s.708.619.708,1.858v8.586" fill="none" stroke="#231f20" stroke-linecap="round" stroke-linejoin="round" stroke-width=".5"/><path d="M302.067,55.066l7.788,6.106s.708.619.708,1.858v22.595l-7.787-6.374" fill="none" stroke="#231f20" stroke-linecap="round" stroke-linejoin="round" stroke-width=".5"/><polyline points="295.12 56.463 308.575 68.529 301.735 69.98 294.687 63.243" fill="none" stroke="#231f20" stroke-linecap="round" stroke-linejoin="round" stroke-width=".5"/><line x1="301.735" y1="69.98" x2="301.735" y2="79.065" fill="none" stroke="#231f20" stroke-linecap="round" stroke-linejoin="round" stroke-width=".5"/><path d="M308.575,68.529v1.609l-5.241,1.104v5.975l5.336-1.104s.061,1.604.061,1.42l-6.807,1.533-6.439-6.133" fill="none" stroke="#231f20" stroke-linecap="round" stroke-linejoin="round" stroke-width=".5"/><path d="M310.92,72.361l31.216,26.79,2.529,3.793s1.739,3.24-.079,3.398l-2.529-.553-31.295-27.343" fill="none" stroke="#231f20" stroke-linecap="round" stroke-linejoin="round" stroke-width=".5"/><path d="M311.044,70.318l32.435,27.885,2.529,3.793s1.031,4.048-.786,4.206" fill="none" stroke="#231f20" stroke-linecap="round" stroke-linejoin="round" stroke-width=".5"/><polyline points="294.433 76.594 288.15 70.087 287.403 48.321" fill="none" stroke="#231f20" stroke-linecap="round" stroke-linejoin="round" stroke-width=".5"/><line x1="277.305" y1="72.405" x2="288.15" y2="70.087" fill="none" stroke="#231f20" stroke-linecap="round" stroke-linejoin="round" stroke-width=".5"/><path d="M297.419,58.087l-.074-14.516s-.222-1.185,1.333-1.481,21.108-4.296,21.108-4.296c0,0,1.407-.296,1.555.667s.296,21.108.296,21.108" fill="none" stroke="#231f20" stroke-linecap="round" stroke-linejoin="round" stroke-width=".5"/><path d="M295.494,57.05l-.074-14.516s-.222-1.185,1.333-1.481,21.108-4.296,21.108-4.296l2.998.868" fill="none" stroke="#231f20" stroke-linecap="round" stroke-linejoin="round" stroke-width=".5"/><path d="M128.883,63.087c22.455-4.3,43.131-8.247,43.131-8.247" fill="none" stroke="#231f20" stroke-linecap="round" stroke-linejoin="round" stroke-width=".5"/><path d="M214.972,44.62l-3.194-33.216c-.639-4.152-4.631-3.194-4.631-3.194l-38.334,6.011" fill="none" stroke="#231f20" stroke-linecap="round" stroke-linejoin="round" stroke-width=".5"/><path d="M137.851,44.019l22.958-4.119s2.059-.103,2.47,2.059c.412,2.162,1.054,9.227,1.054,9.227,0,0,.309,2.265-1.75,2.573-.857.129-15.195,2.909-31.637,6.11" fill="none" stroke="#231f20" stroke-linecap="round" stroke-linejoin="round" stroke-width=".5"/><line x1="141.927" y1="43.409" x2="144.695" y2="57.248" fill="none" stroke="#231f20" stroke-linecap="round" stroke-linejoin="round" stroke-width=".5"/><path d="M242.716,2.433l-26.316,4.046s-3.028.822-2.498,4.926l1.125,16.35,1.92,1.721.689,11.265s-.098,3.447,3.152,3.447" fill="none" stroke="#231f20" stroke-linecap="round" stroke-linejoin="round" stroke-width=".5"/><path d="M224.725,16.519l11.546-1.801s1.165-.318,1.324.847,1.006,10.38,1.006,10.38c0,0,.371,1.483-1.218,1.801s-10.963,1.854-10.963,1.854c0,0-1.43.053-1.483-1.218s-.9-10.592-.9-10.592c0,0-.212-1.006.689-1.271Z" fill="none" stroke="#231f20" stroke-linecap="round" stroke-linejoin="round" stroke-width=".5"/><path d="M237.435,14.93l-2.31-2.185c-.311-.066-.602.013-.602.013l-11.546,1.801c-.9.265-.689,1.271-.689,1.271,0,0,.847,9.321.9,10.592.015.362.142.617.316.796l1.802,2.117" fill="none" stroke="#231f20" stroke-linecap="round" stroke-linejoin="round" stroke-width=".5"/><path d="M243.235,13.557l24.011-4.243s1.165-.318,1.324.847,1.006,10.38,1.006,10.38c0,0,.371,1.483-1.218,1.801s-23.429,4.296-23.429,4.296c0,0-1.43.053-1.483-1.218s-.9-10.592-.9-10.592c0,0-.212-1.006.689-1.271Z" fill="none" stroke="#231f20" stroke-linecap="round" stroke-linejoin="round" stroke-width=".5"/><path d="M268.411,9.526l-2.31-2.185c-.311-.066-.602.013-.602.013l-24.011,4.243c-.9.265-.689,1.271-.689,1.271,0,0,.847,9.321.9,10.592.015.362.142.617.316.796l1.802,2.117" fill="none" stroke="#231f20" stroke-linecap="round" stroke-linejoin="round" stroke-width=".5"/><line x1="256.518" y1="23.975" x2="255.711" y2="11.589" fill="none" stroke="#231f20" stroke-linecap="round" stroke-linejoin="round" stroke-width=".5"/><path d="M149.23,25.059l16.777-2.83s1.213-.067,1.482,1.28,1.078,8.422,1.078,8.422c0,0,.404,1.145-1.213,1.482-1.617.337-16.373,2.897-16.373,2.897,0,0-1.887.27-2.021-1.145s-1.28-8.692-1.28-8.692c0,0,0-1.348,1.55-1.415Z" fill="none" stroke="#231f20" stroke-linecap="round" stroke-linejoin="round" stroke-width=".5"/><path d="M179.466,20.68l21.11-3.549s1.213-.067,1.482,1.28c.27,1.348,1.078,8.422,1.078,8.422,0,0,.404,1.145-1.213,1.482s-20.706,3.617-20.706,3.617c0,0-1.887.27-2.021-1.145s-1.28-8.692-1.28-8.692c0,0,0-1.348,1.55-1.415Z" fill="none" stroke="#231f20" stroke-linecap="round" stroke-linejoin="round" stroke-width=".5"/><path d="M152.905,27.593l9.485-1.542s2.005,0,2.159,2.082-1.619,2.082-1.619,2.082l-9.408,1.697s-1.697.308-2.236-1.619,1.619-2.699,1.619-2.699Z" fill="none" stroke="#231f20" stroke-linecap="round" stroke-linejoin="round" stroke-width=".5"/><path d="M182.7,22.45s-1.768.337-1.516,1.684.602,3.799.602,3.799c0,0,.084,1.263,1.516,1.095s14.804-2.661,14.804-2.661c0,0,1.4-.458,1.316-1.805s-.464-3.498-.464-3.498c0,0-.084-1.347-1.853-1.095s-14.405,2.481-14.405,2.481Z" fill="none" stroke="#231f20" stroke-linecap="round" stroke-linejoin="round" stroke-width=".5"/><ellipse cx="172.879" cy="76.28" rx="2.31" ry="2.256" fill="none" stroke="#231f20" stroke-linecap="round" stroke-linejoin="round" stroke-width=".5"/><ellipse cx="184.966" cy="73.809" rx="2.31" ry="2.256" fill="none" stroke="#231f20" stroke-linecap="round" stroke-linejoin="round" stroke-width=".5"/><polygon points="196.769 75.26 199.505 73.071 202.995 74.097 203.474 77.997 200.258 80.392 197.247 79.092 196.769 75.26" fill="none" stroke="#231f20" stroke-linecap="round" stroke-linejoin="round" stroke-width=".5"/><polygon points="205.185 73.481 207.922 71.292 211.411 72.318 211.89 76.218 208.674 78.613 205.664 77.313 205.185 73.481" fill="none" stroke="#231f20" stroke-linecap="round" stroke-linejoin="round" stroke-width=".5"/><polygon points="213.806 71.565 216.543 69.376 220.033 70.402 220.512 74.302 217.296 76.697 214.285 75.397 213.806 71.565" fill="none" stroke="#231f20" stroke-linecap="round" stroke-linejoin="round" stroke-width=".5"/><polygon points="222.496 69.649 225.233 67.46 228.723 68.486 229.202 72.386 225.986 74.781 222.975 73.481 222.496 69.649" fill="none" stroke="#231f20" stroke-linecap="round" stroke-linejoin="round" stroke-width=".5"/><polygon points="230.844 67.939 233.581 65.749 237.07 66.776 237.549 70.676 234.333 73.071 231.323 71.771 230.844 67.939" fill="none" stroke="#231f20" stroke-linecap="round" stroke-linejoin="round" stroke-width=".5"/><polygon points="239.055 66.023 241.792 63.833 245.281 64.86 245.76 68.76 242.544 71.155 239.534 69.855 239.055 66.023" fill="none" stroke="#231f20" stroke-linecap="round" stroke-linejoin="round" stroke-width=".5"/><polygon points="247.197 64.312 249.934 62.123 253.424 63.149 253.903 67.049 250.687 69.444 247.676 68.144 247.197 64.312" fill="none" stroke="#231f20" stroke-linecap="round" stroke-linejoin="round" stroke-width=".5"/><polygon points="255.08 62.55 257.817 60.36 261.307 61.387 261.786 65.287 258.57 67.682 255.559 66.381 255.08 62.55" fill="none" stroke="#231f20" stroke-linecap="round" stroke-linejoin="round" stroke-width=".5"/><polyline points="269.702 63.535 266.486 65.93 263.475 64.63 262.996 60.798 265.733 58.608 269.223 59.635" fill="none" stroke="#231f20" stroke-linecap="round" stroke-linejoin="round" stroke-width=".5"/><polygon points="260.142 68.389 262.879 66.2 266.368 67.226 266.847 71.126 263.631 73.521 260.621 72.221 260.142 68.389" fill="none" stroke="#231f20" stroke-linecap="round" stroke-linejoin="round" stroke-width=".5"/><polygon points="201.9 81.076 204.637 78.887 208.127 79.913 208.606 83.813 205.39 86.208 202.379 84.908 201.9 81.076" fill="none" stroke="#231f20" stroke-linecap="round" stroke-linejoin="round" stroke-width=".5"/><polygon points="207.035 87.094 209.772 84.904 213.262 85.931 213.741 89.831 210.525 92.226 207.514 90.925 207.035 87.094" fill="none" stroke="#231f20" stroke-linecap="round" stroke-linejoin="round" stroke-width=".5"/><polygon points="215.379 85.088 218.116 82.898 221.606 83.925 222.085 87.825 218.869 90.22 215.858 88.92 215.379 85.088" fill="none" stroke="#231f20" stroke-linecap="round" stroke-linejoin="round" stroke-width=".5"/><polygon points="224.285 83.002 227.022 80.812 230.512 81.839 230.991 85.739 227.775 88.134 224.764 86.834 224.285 83.002" fill="none" stroke="#231f20" stroke-linecap="round" stroke-linejoin="round" stroke-width=".5"/><polygon points="232.71 81.237 235.447 79.047 238.936 80.074 239.415 83.974 236.199 86.369 233.189 85.068 232.71 81.237" fill="none" stroke="#231f20" stroke-linecap="round" stroke-linejoin="round" stroke-width=".5"/><polygon points="241.134 79.231 243.871 77.041 247.361 78.068 247.84 81.968 244.624 84.363 241.613 83.063 241.134 79.231" fill="none" stroke="#231f20" stroke-linecap="round" stroke-linejoin="round" stroke-width=".5"/><polygon points="249.238 77.546 251.975 75.356 255.464 76.383 255.943 80.283 252.727 82.678 249.717 81.378 249.238 77.546" fill="none" stroke="#231f20" stroke-linecap="round" stroke-linejoin="round" stroke-width=".5"/><polygon points="257.502 75.781 260.239 73.591 263.728 74.618 264.207 78.518 260.991 80.913 257.981 79.613 257.502 75.781" fill="none" stroke="#231f20" stroke-linecap="round" stroke-linejoin="round" stroke-width=".5"/><polygon points="210.316 79.297 213.053 77.108 216.543 78.134 217.022 82.034 213.806 84.429 210.795 83.129 210.316 79.297" fill="none" stroke="#231f20" stroke-linecap="round" stroke-linejoin="round" stroke-width=".5"/><polygon points="218.938 77.381 221.675 75.192 225.164 76.218 225.643 80.118 222.428 82.513 219.417 81.213 218.938 77.381" fill="none" stroke="#231f20" stroke-linecap="round" stroke-linejoin="round" stroke-width=".5"/><polygon points="227.628 75.465 230.365 73.276 233.854 74.302 234.333 78.202 231.117 80.597 228.107 79.297 227.628 75.465" fill="none" stroke="#231f20" stroke-linecap="round" stroke-linejoin="round" stroke-width=".5"/><polygon points="235.975 73.755 238.712 71.565 242.202 72.592 242.681 76.492 239.465 78.887 236.454 77.587 235.975 73.755" fill="none" stroke="#231f20" stroke-linecap="round" stroke-linejoin="round" stroke-width=".5"/><polygon points="244.186 71.839 246.923 69.649 250.413 70.676 250.892 74.576 247.676 76.971 244.665 75.671 244.186 71.839" fill="none" stroke="#231f20" stroke-linecap="round" stroke-linejoin="round" stroke-width=".5"/><polygon points="252.329 70.128 255.066 67.939 258.555 68.965 259.034 72.865 255.818 75.26 252.808 73.96 252.329 70.128" fill="none" stroke="#231f20" stroke-linecap="round" stroke-linejoin="round" stroke-width=".5"/><polygon points="122.69 80.968 125.999 78.321 130.217 79.561 130.796 84.276 126.909 87.172 123.269 85.6 122.69 80.968" fill="none" stroke="#231f20" stroke-linecap="round" stroke-linejoin="round" stroke-width=".5"/><polygon points="132.574 78.928 135.882 76.281 140.101 77.522 140.68 82.237 136.792 85.132 133.153 83.56 132.574 78.928" fill="none" stroke="#231f20" stroke-linecap="round" stroke-linejoin="round" stroke-width=".5"/><polygon points="142.144 76.653 145.453 74.006 149.671 75.247 150.25 79.962 146.362 82.857 142.723 81.286 142.144 76.653" fill="none" stroke="#231f20" stroke-linecap="round" stroke-linejoin="round" stroke-width=".5"/><polygon points="118.856 90.113 122.165 87.466 126.383 88.706 126.963 93.421 123.075 96.317 119.435 94.745 118.856 90.113" fill="none" stroke="#231f20" stroke-linecap="round" stroke-linejoin="round" stroke-width=".5"/><polygon points="128.7 88.045 132.008 85.398 136.227 86.638 136.806 91.353 132.918 94.249 129.279 92.677 128.7 88.045" fill="none" stroke="#231f20" stroke-linecap="round" stroke-linejoin="round" stroke-width=".5"/><polygon points="138.23 85.914 141.539 83.267 145.758 84.507 146.337 89.223 142.449 92.118 138.809 90.546 138.23 85.914" fill="none" stroke="#231f20" stroke-linecap="round" stroke-linejoin="round" stroke-width=".5"/><polygon points="155.907 87.105 152.019 90 148.379 88.428 147.8 83.796 151.109 81.149 155.328 82.39 155.907 87.105" fill="none" stroke="#231f20" stroke-linecap="round" stroke-linejoin="round" stroke-width=".5"/><polygon points="144.349 92.974 147.658 90.327 151.876 91.567 152.455 96.282 148.568 99.178 144.928 97.606 144.349 92.974" fill="none" stroke="#231f20" stroke-linecap="round" stroke-linejoin="round" stroke-width=".5"/><polygon points="121.37 106.08 124.679 103.433 128.898 104.674 129.477 109.389 125.589 112.284 121.949 110.713 121.37 106.08" fill="none" stroke="#231f20" stroke-linecap="round" stroke-linejoin="round" stroke-width=".5"/><polygon points="131.167 104.043 134.476 101.396 138.694 102.637 139.273 107.352 135.386 110.247 131.746 108.676 131.167 104.043" fill="none" stroke="#231f20" stroke-linecap="round" stroke-linejoin="round" stroke-width=".5"/><polygon points="141.158 101.909 144.466 99.262 148.685 100.503 149.264 105.218 145.376 108.114 141.737 106.542 141.158 101.909" fill="none" stroke="#231f20" stroke-linecap="round" stroke-linejoin="round" stroke-width=".5"/><polygon points="125.06 97.144 128.369 94.497 132.588 95.738 133.167 100.453 129.279 103.348 125.639 101.776 125.06 97.144" fill="none" stroke="#231f20" stroke-linecap="round" stroke-linejoin="round" stroke-width=".5"/><polygon points="134.904 95.076 138.213 92.429 142.431 93.67 143.01 98.385 139.122 101.28 135.483 99.708 134.904 95.076" fill="none" stroke="#231f20" stroke-linecap="round" stroke-linejoin="round" stroke-width=".5"/><path d="M216.274,46.887l-2.658.502s-2.859.552-.853,1.103c2.006.552,4.514,1.003,4.514,1.003,0,0,4.363,1.404,5.316,2.558s3.26.953,4.263.652,6.67-1.454,6.67-1.454l12.688-.802s3.009.301,2.808-1.655c-.201-1.956-1.304-6.52-1.304-6.52,0,0-.351-1.454-2.808-.953s-28.636,5.567-28.636,5.567Z" fill="none" stroke="#231f20" stroke-linecap="round" stroke-linejoin="round" stroke-width=".5"/><path d="M218.38,49.757s-.1-1.766,3.912-3.057l.251,4.651,10.933-1.895s4.965-.56,8.175.818" fill="none" stroke="#231f20" stroke-linecap="round" stroke-linejoin="round" stroke-width=".5"/><path d="M242.002,50.36c3.059-.904,1.454-2.842,1.454-2.842-2.006-2.498-10.582-2.713-10.582-2.713l.552,4.306" fill="none" stroke="#231f20" stroke-linecap="round" stroke-linejoin="round" stroke-width=".5"/><polyline points="205.341 50.679 210.043 51.99 212.587 54.534 217.521 58.002 217.752 66.559 215.593 66.945" fill="none" stroke="#231f20" stroke-linecap="round" stroke-linejoin="round" stroke-width=".5"/><path d="M217.906,60.084l3.7,2.081s3.084,1.156,6.552.385c3.469-.771,22.51-5.704,22.51-5.704,0,0,1.85-.771,1.927-2.081s-.137-5.043-.137-5.043" fill="none" stroke="#231f20" stroke-linecap="round" stroke-linejoin="round" stroke-width=".5"/><path d="M312.68,29.139l-2.691-2.213-111.661,21.677.677,5.088,1.643,1.45,4.543-.58,1.257.967.193,4.64,8.796,6.67-.29-8.603-6.863-4.253s-1.063-2.32-6.863-2.513c0,0-1.547-1.16.967-1.353s5.22-.677,5.22-.677l7.733,1.74,5.123,2.61s3.093,1.45,7.25.483c4.156-.967,6.38-1.547,6.38-1.547l12.953-.677,3.577-.677s2.03-.29,1.837-2.513-1.257-6.283-1.257-6.283c0,0-.87-.87,1.643-1.45,2.513-.58,59.834-11.986,59.834-11.986l-.097,4.93-59.931,11.793" fill="none" stroke="#231f20" stroke-linecap="round" stroke-linejoin="round" stroke-width=".5"/><line x1="312.719" y1="28.918" x2="321.165" y2="27.302" fill="none" stroke="#231f20" stroke-linecap="round" stroke-linejoin="round" stroke-width=".5"/><line x1="313.393" y1="31.686" x2="324.855" y2="29.395" fill="none" stroke="#231f20" stroke-linecap="round" stroke-linejoin="round" stroke-width=".5"/><line x1="227.01" y1="54.693" x2="228.159" y2="62.551" fill="none" stroke="#231f20" stroke-linecap="round" stroke-linejoin="round" stroke-width=".5"/><polygon points="230.06 56.437 230.642 59.415 233.184 57.308 230.06 56.437" fill="#231f20" stroke-width="0"/><circle cx="220.85" cy="97.018" r="94.104" fill="none" stroke-width="0"/><path d="M230.046,127.523l11.178,6.641-23.497,9.12,3.16-4.017c-20.182-1.945-27.425-12.602-27.425-12.602l12.236-2.947s6.928,6.274,21.691,7.213l2.657-3.408Z" fill="#231f20" stroke="#fff" stroke-miterlimit="10" stroke-width=".83"/><polyline points="166.034 129.634 140.363 134.728 139.384 124.001 165.051 118.913 164.708 115.212 174.78 123.703 166.37 133.339 166.034 129.634" fill="#000" stroke="#fff" stroke-linecap="round" stroke-linejoin="round"/><path d="M277.91,50.365s-1.898.03-1.895,1.426l1.434,27.454s-.083,1.833,1.987,1.364c2.069-.469,14.053-3.625,14.053-3.625,0,0,1.121-.192,1.029-3.157-.092-2.964-.825-24.672-.825-24.672,0,0,.081-2.444-1.815-1.89s-13.968,3.101-13.968,3.101Z" fill="none" stroke="#231f20" stroke-linecap="round" stroke-linejoin="round" stroke-width=".5"/><path d="M293.345,47.59l-3.775-3.488c-.264-.348-.697-.562-1.408-.355-1.897.554-13.968,3.101-13.968,3.101,0,0-1.898.03-1.895,1.426l1.434,27.454s-.022.482.236.888l3.74,3.722" fill="none" stroke="#231f20" stroke-linecap="round" stroke-linejoin="round" stroke-width=".5"/><path d="M286.087,78.97l-49.775,67.633s-2.66,3.166,1.647,5.193l3.8,1.9,4.686,5.573,9.879.633,7.473,2.786,1.773-2.28,16.338.507s2.28.253,2.28-2.28-.38-6.459-.38-6.459l12.285-25.584-.127-5.319s.253-1.267-2.913-2.026-10.259-2.786-10.259-2.786l23.391-34.023-8.267-6.461-11.83,2.994Z" fill="#fff" stroke-width="0"/><path d="M285.852,79.058l-49.813,67.846s-1.916,2.448.851,4.257,5.428,2.874,5.428,2.874c0,0,1.615.873,3.735.117" fill="none" stroke="#231f20" stroke-linecap="round" stroke-linejoin="round" stroke-width=".5"/><polyline points="256.29 159.264 256.29 154.945 263.723 157.47 263.723 162.48" fill="none" stroke="#231f20" stroke-linecap="round" stroke-linejoin="round" stroke-width=".5"/><polyline points="265.107 159.937 265.078 154.796 256.29 154.736" fill="none" stroke="#231f20" stroke-linecap="round" stroke-linejoin="round" stroke-width=".5"/><line x1="263.852" y1="157.097" x2="264.838" y2="154.885" fill="none" stroke="#231f20" stroke-linecap="round" stroke-linejoin="round" stroke-width=".5"/><path d="M304.223,80.461c-5.834,8.87-21.489,32.614-22.663,33.787-1.445,1.445.377,2.073.377,2.073,0,0,9.752,2.518,12.139,3.146s1.822,2.261,1.822,2.261c0,0-11.513,22.989-12.518,24.999s-4.271,1.884-4.271,1.884l-10.741.063s-13.065,2.01-14.824,2.827.188,1.382.188,1.382l13.128-2.198,16.497.076.829.737" fill="none" stroke="#231f20" stroke-linecap="round" stroke-linejoin="round" stroke-width=".5"/><path d="M246.572,154.459l6.101-.054s8.692-1.512,10.96-1.944,4.319-.54,4.319-.54l15.441.054.594.81s.162,5.615.216,6.749-1.188,1.296-1.188,1.296l-13.119-.378-4.914-.193-.916,2.341-7.735-2.748-9.567-.712-.712-4.987,55.586-75.555" fill="none" stroke="#231f20" stroke-linecap="round" stroke-linejoin="round" stroke-width=".5"/><line x1="282.879" y1="116.463" x2="305.96" y2="81.771" fill="none" stroke="#231f20" stroke-linecap="round" stroke-linejoin="round" stroke-width=".5"/><polyline points="296.013 121.091 296.013 126.488 283.986 152.785" fill="none" stroke="#231f20" stroke-linecap="round" stroke-linejoin="round" stroke-width=".5"/><path d="M285.157,138.626c-.331.771-5.594,8.042-5.594,8.042l-9.753.055-14.877,2.259s-2.149.606-.937-.992l10.661-12.118" fill="none" stroke="#231f20" stroke-linecap="round" stroke-linejoin="round" stroke-width=".5"/><path d="M285.107,138.481s-.11-2.865-6.777-4.133c-6.667-1.267-13.555,1.543-13.555,1.543l.165,4.463s9.698-4.739,18.844.496" fill="none" stroke="#231f20" stroke-linecap="round" stroke-linejoin="round" stroke-width=".5"/><path d="M257.082,145.014s.496,2.204,2.7,2.865" fill="none" stroke="#231f20" stroke-linecap="round" stroke-linejoin="round" stroke-width=".5"/><line x1="265.065" y1="140.258" x2="259.341" y2="147.273" fill="none" stroke="#231f20" stroke-linecap="round" stroke-linejoin="round" stroke-width=".5"/><line x1="270.44" y1="152.146" x2="270.44" y2="160.267" fill="none" stroke="#231f20" stroke-linecap="round" stroke-linejoin="round" stroke-width=".5"/><line x1="272.512" y1="152.395" x2="272.512" y2="160.516" fill="none" stroke="#231f20" stroke-linecap="round" stroke-linejoin="round" stroke-width=".5"/><line x1="274.584" y1="152.643" x2="274.584" y2="160.765" fill="none" stroke="#231f20" stroke-linecap="round" stroke-linejoin="round" stroke-width=".5"/><line x1="276.656" y1="152.395" x2="276.656" y2="160.516" fill="none" stroke="#231f20" stroke-linecap="round" stroke-linejoin="round" stroke-width=".5"/><line x1="278.727" y1="152.478" x2="278.727" y2="160.599" fill="none" stroke="#231f20" stroke-linecap="round" stroke-linejoin="round" stroke-width=".5"/><line x1="280.799" y1="152.643" x2="280.799" y2="160.765" fill="none" stroke="#231f20" stroke-linecap="round" stroke-linejoin="round" stroke-width=".5"/><line x1="246.765" y1="159.139" x2="241.426" y2="153.868" fill="none" stroke="#231f20" stroke-linecap="round" stroke-linejoin="round" stroke-width=".5"/></g><polyline points="141.238 243.333 112.084 235.628 111.924 232.495 122.289 233.761 112.124 221.012 111.932 218.045 130.477 217.662 140.911 230.567 151.074 225.873 151.096 228.707 141.238 243.333" fill="#000" stroke="#fff" stroke-linecap="round" stroke-linejoin="round" stroke-width=".5"/><polyline points="83.373 222.098 112.585 226.959 112.527 229.803 102.322 231.67 112.269 241.555 112.487 244.419 94.134 247.769 83.7 234.865 73.515 236.725 73.535 233.783 83.373 222.098" fill="#000" stroke="#fff" stroke-linecap="round" stroke-linejoin="round" stroke-width=".5"/><polyline points="141.238 240.339 151.096 225.713 140.911 227.573 130.477 214.668 112.124 218.019 122.289 230.768 112.084 232.634 141.238 240.339 141.238 243.333" fill="#000" stroke="#fff" stroke-linecap="round" stroke-linejoin="round" stroke-width=".5"/><polyline points="83.373 219.105 112.527 226.81 102.322 228.677 112.487 241.425 94.134 244.776 83.7 231.871 73.515 233.731 83.373 219.105" fill="#000" stroke="#fff" stroke-linecap="round" stroke-linejoin="round" stroke-width=".5"/><line x1="83.7" y1="231.871" x2="83.7" y2="234.865" fill="#000" stroke="#fff" stroke-linecap="round" stroke-linejoin="round" stroke-width=".5"/><line x1="94.134" y1="244.776" x2="94.134" y2="247.769" fill="#000" stroke="#fff" stroke-linecap="round" stroke-linejoin="round" stroke-width=".5"/><circle cx="220.443" cy="97.635" r="94.104" fill="none" stroke="#fff" stroke-miterlimit="10" stroke-width="3"/><circle cx="220.443" cy="97.635" r="94.104" fill="none" stroke="#231f20" stroke-miterlimit="10" stroke-width=".75"/><line x1="204.047" y1="157.272" x2="171.535" y2="278.275" fill="#fff" stroke-width="0"/><line x1="204.047" y1="157.272" x2="171.535" y2="278.275" fill="none" stroke="#fff" stroke-linecap="round" stroke-linejoin="round" stroke-width="3"/><line x1="204.047" y1="157.272" x2="171.535" y2="278.275" fill="none" stroke="#000" stroke-linecap="round" stroke-linejoin="round" stroke-width=".75"/></svg>