<?xml version="1.0" encoding="UTF-8"?><svg id="a" xmlns="http://www.w3.org/2000/svg" width="5.625in" height="2in" viewBox="0 0 405 144"><rect x="4.173" y="55.052" width="396" height="82.759" fill="none" stroke="#ccc" stroke-linecap="round" stroke-linejoin="round" stroke-width="1.5"/><rect x="8.199" y="59.156" width="387.949" height="74.551" fill="#e6e6e6" stroke-width="0"/><rect x="14.917" y="97.731" width="180.967" height="33.173" fill="#ccc" stroke-width="0"/><path d="M72.443,126.676h28.281c.403,0,.755-.302.755-.755v-25.614c0-.453-.352-.755-.755-.755h-28.281c-.403,0-.755.302-.755.755v25.614c0,.453.352.755.755.755" fill="#e6e6e6" fill-rule="evenodd" stroke-width="0"/><path d="M91.213,100.962c0-.201-.151-.302-.302-.302s-.302.151-.302.302l.201,1.862c0,.101.05.101.101.101s.101-.05.101-.101l.201-1.862M91.263,103.629c0-.201-.151-.352-.352-.352s-.352.151-.352.352c0,.151.151.302.352.302s.352-.151.352-.302Z" fill="#262626" fill-rule="evenodd" stroke-width="0"/><path d="M84.268,101.969c-.201-.805-1.057-1.258-1.862-1.057-.855.252-1.308,1.107-1.057,1.912.252.805,1.107,1.258,1.912,1.057.805-.252,1.258-1.107,1.006-1.912M84.067,102.27c.101.654-.403,1.308-1.107,1.359-.503.101-1.057-.201-1.258-.705l.855-.855.352,1.359,1.157-1.157ZM81.551,102.572c-.05-.704.403-1.359,1.107-1.409.554-.101,1.057.201,1.308.705l-.855.855-.352-1.359-1.208,1.208Z" fill="#262626" fill-rule="evenodd" stroke-width="0"/><circle cx="82.886" cy="106.805" r="1.694" fill="#262626" stroke-width="0"/><circle cx="90.963" cy="106.805" r="1.694" fill="#262626" stroke-width="0"/><path d="M155.373,124.965h12.782c.554,0,1.006-.453,1.006-.956v-23.198c0-.503-.453-.956-1.006-.956h-12.782c-.503,0-.956.453-.956.956v23.198c0,.503.453.956.956.956Z" fill="#595a5a" stroke-width="0"/><path d="M156.379,121.191h10.819c.403,0,.755-.352.755-.755v-16.053c0-.403-.352-.755-.755-.755h-10.819c-.453,0-.755.352-.755.755v16.053c0,.403.302.755.755.755Z" fill="#d9d9d9" stroke-width="0"/><path d="M166.343,108.41v-2.365c0-.252-.201-.453-.453-.453h-8.202c-.252,0-.453.201-.453.453v2.365h9.108Z" fill="#595a5a" stroke-width="0"/><path d="M166.343,108.41h-9.108v10.165c0,.252.201.453.453.453h8.202c.252,0,.453-.201.453-.453v-10.165Z" fill="#6a6a6a" stroke-width="0"/><path d="M161.763,112.385c.151,0,.302-.101.302-.252v-2.164c0-.151-.151-.252-.302-.252s-.252.101-.252.252v2.164c0,.151.101.252.252.252M162.77,116.109c0-.554-.453-.956-1.006-.956-.503,0-.956.403-.956.956s.453.956.956.956c.554,0,1.006-.403,1.006-.956ZM163.323,116.109c0-.855-.705-1.51-1.56-1.51-.805,0-1.51.654-1.51,1.51s.705,1.51,1.51,1.51c.855,0,1.56-.654,1.56-1.51Z" fill="#fff" fill-rule="evenodd" stroke-width="0"/><rect x="172.583" y="99.603" width="19.625" height="26.067" rx="1.359" ry="1.359" fill="#595a5a" stroke-width="0"/><path d="M174.545,107.353v10.568c0,.554.252,1.107.704,1.56l4.227,4.026c.403.403.956.604,1.51.604h7.095c1.208,0,2.164-.956,2.164-2.164v-18.619c0-1.208-.956-2.164-2.164-2.164h-7.095c-.554,0-1.107.201-1.51.604l-4.227,4.026c-.453.453-.704,1.006-.704,1.56Z" fill="#292929" stroke-width="0"/><path d="M182.546,119.48h4.328v-1.308h-4.328v1.308ZM177.917,113.291h4.328v-1.308h-4.328v1.308ZM182.546,107.101h4.328v-1.258h-4.328v1.258Z" fill="#b3b3b3" fill-rule="evenodd" stroke-width="0"/><rect x="133.353" y="126.376" width="62.149" height="4.527" fill="#595a5a" stroke-width="0"/><rect x="85.158" y="124.112" width="4.527" height="6.791" fill="#595a5a" stroke-width="0"/><rect x="15.929" y="126.376" width="46.75" height="4.527" fill="#595a5a" stroke-width="0"/><path d="M108.216,126.376c-.948,0-1.843-.105-2.738-.316l-6.423-1.579c-.895-.263-1.79-.368-2.738-.368h-6.844c-.263,0-.474.211-.474.474v5.896c0,.211.211.421.474.421h43.853v-4.527h-25.112Z" fill="#6a6a6a" stroke-width="0"/><path d="M92.633,130.219h38.22v-3.159h-22.637c-1,0-1.948-.105-2.895-.368l-6.423-1.579c-.842-.211-1.685-.316-2.58-.316h-3.685v5.422" fill="#d66927" fill-rule="evenodd" stroke-width="0"/><path d="M78.577,126.376h-15.951v4.527h22.795c.211,0,.421-.211.421-.421v-5.896c0-.263-.211-.474-.421-.474h-3.159c-.263,0-.474.105-.684.263l-2.316,1.79c-.211.158-.474.211-.684.211Z" fill="#6a6a6a" stroke-width="0"/><rect x="12.56" y="127.85" width="6.791" height="3.053" fill="#595a5a" stroke-width="0"/><rect x="209.568" y="97.731" width="180.967" height="33.173" fill="#ccc" stroke-width="0"/><path d="M267.094,126.676h28.281c.403,0,.755-.302.755-.755v-25.614c0-.453-.352-.755-.755-.755h-28.281c-.403,0-.755.302-.755.755v25.614c0,.453.352.755.755.755" fill="#e6e6e6" fill-rule="evenodd" stroke-width="0"/><path d="M285.864,100.962c0-.201-.151-.302-.302-.302s-.302.151-.302.302l.201,1.862c0,.101.05.101.101.101s.101-.05.101-.101l.201-1.862M285.914,103.629c0-.201-.151-.352-.352-.352s-.352.151-.352.352c0,.151.151.302.352.302s.352-.151.352-.302Z" fill="#262626" fill-rule="evenodd" stroke-width="0"/><path d="M278.919,101.969c-.201-.805-1.057-1.258-1.862-1.057-.855.252-1.308,1.107-1.057,1.912.252.805,1.107,1.258,1.912,1.057.805-.252,1.258-1.107,1.006-1.912M278.718,102.27c.101.654-.403,1.308-1.107,1.359-.503.101-1.057-.201-1.258-.705l.855-.855.352,1.359,1.157-1.157ZM276.202,102.572c-.05-.704.403-1.359,1.107-1.409.554-.101,1.057.201,1.308.705l-.855.855-.352-1.359-1.208,1.208Z" fill="#262626" fill-rule="evenodd" stroke-width="0"/><circle cx="277.537" cy="106.805" r="1.694" fill="#262626" stroke-width="0"/><circle cx="285.614" cy="106.805" r="1.694" fill="#262626" stroke-width="0"/><path d="M350.024,124.965h12.782c.554,0,1.006-.453,1.006-.956v-23.198c0-.503-.453-.956-1.006-.956h-12.782c-.503,0-.956.453-.956.956v23.198c0,.503.453.956.956.956Z" fill="#595a5a" stroke-width="0"/><path d="M351.03,121.191h10.819c.403,0,.755-.352.755-.755v-16.053c0-.403-.352-.755-.755-.755h-10.819c-.453,0-.755.352-.755.755v16.053c0,.403.302.755.755.755Z" fill="#d9d9d9" stroke-width="0"/><path d="M360.994,108.41v-2.365c0-.252-.201-.453-.453-.453h-8.202c-.252,0-.453.201-.453.453v2.365h9.108Z" fill="#595a5a" stroke-width="0"/><path d="M360.994,108.41h-9.108v10.165c0,.252.201.453.453.453h8.202c.252,0,.453-.201.453-.453v-10.165Z" fill="#6a6a6a" stroke-width="0"/><path d="M356.415,112.385c.151,0,.302-.101.302-.252v-2.164c0-.151-.151-.252-.302-.252s-.252.101-.252.252v2.164c0,.151.101.252.252.252M357.421,116.109c0-.554-.453-.956-1.006-.956-.503,0-.956.403-.956.956s.453.956.956.956c.554,0,1.006-.403,1.006-.956ZM357.975,116.109c0-.855-.705-1.51-1.56-1.51-.805,0-1.51.654-1.51,1.51s.705,1.51,1.51,1.51c.855,0,1.56-.654,1.56-1.51Z" fill="#fff" fill-rule="evenodd" stroke-width="0"/><rect x="367.234" y="99.603" width="19.625" height="26.067" rx="1.359" ry="1.359" fill="#595a5a" stroke-width="0"/><path d="M369.196,107.353v10.568c0,.554.252,1.107.704,1.56l4.227,4.026c.403.403.956.604,1.51.604h7.095c1.208,0,2.164-.956,2.164-2.164v-18.619c0-1.208-.956-2.164-2.164-2.164h-7.095c-.554,0-1.107.201-1.51.604l-4.227,4.026c-.453.453-.704,1.006-.704,1.56Z" fill="#292929" stroke-width="0"/><path d="M377.197,119.48h4.328v-1.308h-4.328v1.308ZM372.568,113.291h4.328v-1.308h-4.328v1.308ZM377.197,107.101h4.328v-1.258h-4.328v1.258Z" fill="#b3b3b3" fill-rule="evenodd" stroke-width="0"/><rect x="329.543" y="126.48" width="60.722" height="4.424" fill="#595a5a" stroke-width="0"/><rect x="282.454" y="124.268" width="4.424" height="6.635" fill="#595a5a" stroke-width="0"/><rect x="214.816" y="126.48" width="45.677" height="4.424" fill="#595a5a" stroke-width="0"/><path d="M304.984,126.48c-.926,0-1.8-.103-2.675-.309l-6.275-1.543c-.874-.257-1.749-.36-2.675-.36h-6.687c-.257,0-.463.206-.463.463v5.761c0,.206.206.411.463.411h42.846v-4.424h-24.535Z" fill="#6a6a6a" stroke-width="0"/><path d="M289.758,130.235h37.343v-3.086h-22.118c-.977,0-1.903-.103-2.829-.36l-6.275-1.543c-.823-.206-1.646-.309-2.52-.309h-3.601v5.298" fill="#d66927" fill-rule="evenodd" stroke-width="0"/><path d="M276.025,126.48h-15.585v4.424h22.272c.206,0,.412-.206.412-.411v-5.761c0-.257-.206-.463-.412-.463h-3.086c-.257,0-.463.103-.669.257l-2.263,1.749c-.206.154-.463.206-.669.206Z" fill="#6a6a6a" stroke-width="0"/><rect x="211.524" y="127.92" width="6.635" height="2.983" fill="#595a5a" stroke-width="0"/><path d="M201.892,107.868h4.126v-4.982h-4.126l-1.912,2.466,1.912,2.516ZM204.106,123.468l1.912-2.516-1.912-2.516h-4.126v5.032h4.126Z" fill="#333" fill-rule="evenodd" stroke-width="0"/><path d="M203.049,120.952c0-.705-.604-1.308-1.359-1.308s-1.359.604-1.359,1.308c0,.755.604,1.359,1.359,1.359s1.359-.604,1.359-1.359M202.798,121.153c-.101.604-.654,1.006-1.258.906-.503-.05-.855-.403-.956-.855l-.05-.05.956-.554v1.258l1.258-.755.05.05ZM200.584,120.801c.05-.604.654-1.006,1.258-.956.453.101.855.453.906.906l-.956.554v-1.258l-1.258.755h.05ZM204.005,105.352c0-.705-.604-1.308-1.359-1.308s-1.359.604-1.359,1.308c0,.755.604,1.359,1.359,1.359s1.359-.604,1.359-1.359ZM203.754,105.553c-.05.604-.654,1.006-1.258.906-.453-.05-.855-.403-.906-.855l-.05-.05.956-.554v1.258l1.258-.755v.05ZM201.54,105.201c.101-.604.654-1.006,1.258-.906.503.05.855.403.956.855l-.956.554v-1.258l-1.258.755Z" fill="#fff" fill-rule="evenodd" stroke-width="0"/><path d="M205.382,106.457h-.266v-1.689c-.063.061-.147.122-.251.183s-.196.106-.279.137v-.256c.148-.07.278-.154.39-.254.11-.099.189-.195.235-.288h.171v2.168Z" fill="#fff" stroke-width="0"/><path d="M204.77,121.805v.255h-1.427c-.003-.063.008-.125.03-.185.036-.097.095-.192.175-.287.08-.094.195-.203.347-.327.234-.192.394-.345.476-.457.083-.112.124-.219.124-.318,0-.105-.037-.194-.112-.267s-.174-.108-.294-.108c-.128,0-.23.039-.307.115s-.115.183-.116.318l-.272-.028c.019-.203.089-.358.211-.465.121-.106.285-.159.49-.159.207,0,.371.057.492.172.12.115.181.258.181.428,0,.086-.018.171-.053.255-.035.083-.094.171-.176.264-.082.092-.219.219-.409.38-.159.133-.262.224-.307.271s-.082.096-.111.144h1.059Z" fill="#fff" stroke-width="0"/><rect x="14.917" y="62.085" width="180.967" height="33.173" fill="#e6e6e6" stroke-width="0"/><polyline points="201.892 72.982 206.018 72.982 206.018 68.001 201.892 68.001 199.98 70.466 201.892 72.982" fill="#333" fill-rule="evenodd" stroke-width="0"/><polygon points="204.106 88.582 206.018 86.066 204.106 83.6 199.98 83.6 199.98 88.582 204.106 88.582" fill="#333" fill-rule="evenodd" stroke-width="0"/><path d="M205.348,71.824h-.569l-.227-.589h-1.036l-.214.589h-.555l1.01-2.592h.553l1.038,2.592ZM204.384,70.798l-.357-.962-.35.962h.707Z" fill="#fff" stroke-width="0"/><path d="M201.101,84.833h1.035c.205,0,.358.009.459.026.101.017.19.053.271.106.079.055.146.127.198.217.054.09.08.191.08.303,0,.122-.033.233-.099.334-.064.102-.153.178-.266.229.158.046.279.124.364.235.085.11.127.24.127.391,0,.117-.027.232-.082.344s-.13.2-.225.267-.212.107-.351.123c-.087.01-.298.016-.631.018h-.882v-2.592ZM201.624,85.265v.6h.343c.204,0,.331-.003.381-.009.089-.011.159-.042.211-.093.051-.052.077-.119.077-.203,0-.08-.022-.145-.066-.195-.044-.05-.11-.08-.197-.091-.052-.006-.201-.009-.447-.009h-.301ZM201.624,86.295v.693h.484c.188,0,.309-.006.359-.016.077-.015.141-.049.189-.104s.073-.128.073-.221c0-.077-.019-.144-.057-.197-.037-.055-.092-.094-.163-.119-.071-.024-.226-.037-.464-.037h-.423Z" fill="#fff" stroke-width="0"/><rect x="209.568" y="62.085" width="180.967" height="33.173" fill="#e6e6e6" stroke-width="0"/><rect x="114.259" y="62.289" width="81.218" height="26.993" fill="#999" stroke-width="0"/><rect x="154.868" y="62.289" width="29.621" height="20.902" fill="#2762ac" stroke-width="0"/><rect x="114.214" y="62.289" width="40.415" height="20.902" fill="#f5f6f6" stroke-width="0"/><rect x="15.23" y="62.312" width="95.46" height="30.579" fill="#999" stroke-width="0"/><path d="M87.625,76.373h15.745c.39,0,.634-.244.634-.634v-7.361c0-.39-.244-.682-.634-.682h-15.745c-.341,0-.634.292-.634.682v7.361c0,.39.292.634.634.634Z" fill="#f5f6f6" fill-rule="evenodd" stroke-width="0"/><rect x="67.591" y="67.088" width="12.869" height="8.336" rx=".634" ry=".634" fill="#f5f6f6" stroke-width="0"/><rect x="23.347" y="63.633" width="17.11" height="12.041" rx=".634" ry=".634" fill="#f5f6f6" stroke-width="0"/><rect x="43.954" y="63.633" width="17.11" height="12.041" rx=".634" ry=".634" fill="#f5f6f6" stroke-width="0"/><rect x="16.048" y="76.299" width="64.176" height="14.858" fill="#2762ac" stroke-width="0"/><rect x="23.189" y="80.228" width="12.566" height="8.149" fill="#231f20" stroke="#2762ac" stroke-miterlimit="10" stroke-width=".393"/><rect x="36.202" y="80.228" width="12.566" height="8.149" fill="#231f20" stroke="#2762ac" stroke-miterlimit="10" stroke-width=".393"/><rect x="49.215" y="80.228" width="12.566" height="8.149" fill="#231f20" stroke="#2762ac" stroke-miterlimit="10" stroke-width=".393"/><rect x="62.228" y="80.228" width="12.566" height="8.149" fill="#231f20" stroke="#2762ac" stroke-miterlimit="10" stroke-width=".393"/><circle cx="26.842" cy="78.139" r=".854" fill="#262626" stroke-width="0"/><circle cx="32.284" cy="78.139" r=".854" fill="#262626" stroke-width="0"/><circle cx="39.814" cy="78.139" r=".854" fill="#262626" stroke-width="0"/><circle cx="45.256" cy="78.139" r=".854" fill="#262626" stroke-width="0"/><circle cx="52.787" cy="78.139" r=".854" fill="#262626" stroke-width="0"/><circle cx="58.229" cy="78.139" r=".854" fill="#262626" stroke-width="0"/><circle cx="65.759" cy="78.139" r=".854" fill="#262626" stroke-width="0"/><circle cx="71.202" cy="78.139" r=".854" fill="#262626" stroke-width="0"/><polygon points="26.313 71.351 26.313 73.934 37.428 73.934 37.428 71.351 37.184 71.351 37.184 69.596 37.428 69.596 37.428 67.061 34.99 67.061 34.99 65.452 33.918 65.452 33.918 64.672 29.774 64.672 29.774 65.452 28.75 65.452 28.75 67.061 26.313 67.061 26.313 69.596 26.508 69.596 26.508 71.351 26.313 71.351" fill="#a25eb5" stroke-width="0"/><polygon points="46.885 71.351 46.885 73.934 57.999 73.934 57.999 71.351 57.755 71.351 57.755 69.596 57.999 69.596 57.999 67.061 55.562 67.061 55.562 65.452 54.489 65.452 54.489 64.672 50.346 64.672 50.346 65.452 49.322 65.452 49.322 67.061 46.885 67.061 46.885 69.596 47.08 69.596 47.08 71.351 46.885 71.351" fill="#262626" stroke-width="0"/><path d="M71.065,73.197h6.045c.829,0,1.511-.682,1.511-1.511v-.487c0-.829-.682-1.462-1.511-1.462h-6.045c-.829,0-1.462.634-1.462,1.462v.487c0,.829.634,1.511,1.462,1.511Z" fill="#1a1a1a" fill-rule="evenodd" stroke-width="0"/><path d="M101.025,69.568h-10.822c-.146,0-.292.098-.292.244v4.144c0,.146.146.244.292.244h10.822c.146,0,.292-.097.292-.244v-4.144c0-.146-.146-.244-.292-.244Z" fill="#262626" stroke-width="0"/><polygon points="19 84.459 19.62 84.459 19.62 86.412 19.899 86.412 19.899 85.668 20.458 85.668 20.458 86.195 21.512 86.195 21.512 84.8 20.458 84.8 20.458 85.296 19.899 85.296 19.899 83.311 20.458 83.311 20.458 83.776 21.512 83.776 21.512 82.412 20.458 82.412 20.458 82.939 19.899 82.939 19.899 82.257 19.62 82.257 19.62 84.087 19 84.087 18.969 83.528 17.884 83.528 17.884 84.986 18.969 84.986 19 84.459" fill="#fff" fill-rule="evenodd" stroke-width="0"/><path d="M107.441,69.908v3.266l-.731-.731v-.634c.195-.097.244-.292.195-.487-.098-.146-.292-.244-.487-.195-.146.097-.244.292-.195.487.049.098.146.146.195.195v.78l1.024.975v.341c-.292.049-.487.341-.39.634.049.292.341.487.634.39.292-.049.487-.341.39-.634-.049-.195-.195-.341-.39-.39v-1.267l.975-.975v-.634h.244v-.731h-.731v.731h.244v.487l-.731.731v-2.34h.244l-.39-.731-.341.731h.244Z" fill="#f2f2f2" fill-rule="evenodd" stroke-width="0"/><path d="M20.954,69.61h-2.389c-.195-.536-.731-.78-1.267-.634-.097.049-.195.097-.292.195v.146h.536l.341.634-.341.585h-.536v.146c.439.341,1.024.292,1.365-.146.097-.049.146-.195.195-.292h2.389c.146.487.682.682,1.121.536.097-.049.195-.097.244-.146v-.146h-.487l-.292-.536.292-.585h.487v-.097c-.39-.341-.926-.292-1.219.097-.097.049-.146.146-.146.244Z" fill="#f2f2f2" fill-rule="evenodd" stroke-width="0"/><path d="M119.646,78.895h9.36c.097,0,.195-.097.195-.195v-9.36c0-.097-.097-.244-.195-.244h-9.36c-.146,0-.244.146-.244.244v9.36c0,.097.098.195.244.195" fill="#262626" fill-rule="evenodd" stroke-width="0"/><path d="M132.741,78.895h9.36c.097,0,.195-.097.195-.195v-9.36c0-.097-.097-.244-.195-.244h-9.36c-.146,0-.244.146-.244.244v9.36c0,.097.098.195.244.195" fill="#262626" fill-rule="evenodd" stroke-width="0"/><path d="M143.359,78.895h9.36c.097,0,.195-.097.195-.195v-9.36c0-.097-.097-.244-.195-.244h-9.36c-.146,0-.244.146-.244.244v9.36c0,.097.098.195.244.195" fill="#262626" fill-rule="evenodd" stroke-width="0"/><rect x="156.684" y="68.948" width="12.566" height="8.149" fill="#231f20" stroke="#2762ac" stroke-miterlimit="10" stroke-width=".393"/><rect x="169.691" y="68.948" width="12.566" height="8.149" fill="#231f20" stroke="#2762ac" stroke-miterlimit="10" stroke-width=".393"/><circle cx="122.215" cy="65.35" r="1.106" fill="#262626" stroke-width="0"/><circle cx="126.311" cy="65.35" r="1.106" fill="#262626" stroke-width="0"/><circle cx="135.675" cy="65.35" r="1.106" fill="#262626" stroke-width="0"/><circle cx="139.772" cy="65.35" r="1.106" fill="#262626" stroke-width="0"/><circle cx="145.478" cy="65.35" r="1.106" fill="#262626" stroke-width="0"/><circle cx="149.575" cy="65.35" r="1.106" fill="#262626" stroke-width="0"/><circle cx="160.207" cy="65.35" r="1.106" fill="#262626" stroke-width="0"/><circle cx="166.498" cy="65.35" r="1.106" fill="#262626" stroke-width="0"/><circle cx="173.033" cy="65.35" r="1.106" fill="#262626" stroke-width="0"/><circle cx="179.324" cy="65.35" r="1.106" fill="#262626" stroke-width="0"/><path d="M106.837,89.07v3.722H19.849v1.349h86.988v1.117h88.657v-4.42h-80.168v-2.233h-8.06c-.238,0-.429.186-.429.465Z" fill="#4d4e4e" stroke-width="0"/><path d="M111.94,90.838h-19.172c-.191,0-.429.093-.572.233l-2.671,2.605c-.191.14-.382.233-.62.233H24.38c-.191,0-.429-.093-.572-.233l-2.671-2.605c-.191-.14-.382-.233-.62-.233h-4.531v1.396h-3.386v3.024h99.34v-4.42Z" fill="#4d4e4e" stroke-width="0"/><path d="M125.77,88.605h-13.83v6.653h28.853v-4.42h-3.052c-.572,0-1.145-.093-1.717-.186l-8.584-1.861c-.525-.093-1.097-.186-1.669-.186Z" fill="#6a6a6a" stroke-width="0"/><path d="M137.884,91.536h-3.1c-.906,0-1.812-.093-2.718-.279l-5.961-1.349c-.763-.186-1.574-.279-2.385-.279h-3.481v4.606h17.646v-2.698" fill="#d66927" fill-rule="evenodd" stroke-width="0"/><rect x="66.65" y="69.982" width=".159" height="1.591" fill="#fff" stroke-width="0"/><path d="M66.173,70.778c0,.345-.292.637-.637.637s-.637-.292-.637-.637.292-.637.637-.637.637.292.637.637Z" fill="none" stroke="#fff" stroke-miterlimit="10" stroke-width=".168"/><rect x="64.263" y="69.982" width=".186" height="1.591" fill="#fff" stroke-width="0"/><path d="M63.786,70.778c0,.345-.265.637-.637.637-.345,0-.637-.292-.637-.637s.292-.637.637-.637c.371,0,.637.292.637.637Z" fill="none" stroke="#fff" stroke-miterlimit="10" stroke-width=".168"/><rect x="61.876" y="69.982" width=".186" height="1.591" fill="#fff" stroke-width="0"/><rect x="309.322" y="62.289" width="81.218" height="26.993" fill="#999" stroke-width="0"/><rect x="349.931" y="62.289" width="29.621" height="20.902" fill="#2762ac" stroke-width="0"/><rect x="309.277" y="62.289" width="40.415" height="20.902" fill="#f5f6f6" stroke-width="0"/><rect x="210.293" y="62.312" width="95.46" height="30.579" fill="#999" stroke-width="0"/><path d="M282.689,76.373h15.745c.39,0,.634-.244.634-.634v-7.361c0-.39-.244-.682-.634-.682h-15.745c-.341,0-.634.292-.634.682v7.361c0,.39.292.634.634.634Z" fill="#f5f6f6" fill-rule="evenodd" stroke-width="0"/><rect x="262.654" y="67.088" width="12.869" height="8.336" rx=".634" ry=".634" fill="#f5f6f6" stroke-width="0"/><rect x="218.411" y="63.633" width="17.11" height="12.041" rx=".634" ry=".634" fill="#f5f6f6" stroke-width="0"/><rect x="239.017" y="63.633" width="17.11" height="12.041" rx=".634" ry=".634" fill="#f5f6f6" stroke-width="0"/><rect x="211.111" y="76.299" width="64.176" height="14.858" fill="#2762ac" stroke-width="0"/><rect x="218.252" y="80.228" width="12.566" height="8.149" fill="#231f20" stroke="#2762ac" stroke-miterlimit="10" stroke-width=".393"/><rect x="231.265" y="80.228" width="12.566" height="8.149" fill="#231f20" stroke="#2762ac" stroke-miterlimit="10" stroke-width=".393"/><rect x="244.278" y="80.228" width="12.566" height="8.149" fill="#231f20" stroke="#2762ac" stroke-miterlimit="10" stroke-width=".393"/><rect x="257.291" y="80.228" width="12.566" height="8.149" fill="#231f20" stroke="#2762ac" stroke-miterlimit="10" stroke-width=".393"/><circle cx="227.347" cy="78.139" r=".854" fill="#262626" stroke-width="0"/><circle cx="234.878" cy="78.139" r=".854" fill="#262626" stroke-width="0"/><circle cx="240.32" cy="78.139" r=".854" fill="#262626" stroke-width="0"/><circle cx="247.85" cy="78.139" r=".854" fill="#262626" stroke-width="0"/><circle cx="253.292" cy="78.139" r=".854" fill="#262626" stroke-width="0"/><circle cx="260.823" cy="78.139" r=".854" fill="#262626" stroke-width="0"/><circle cx="266.265" cy="78.139" r=".854" fill="#262626" stroke-width="0"/><polygon points="221.376 71.351 221.376 73.934 232.491 73.934 232.491 71.351 232.247 71.351 232.247 69.596 232.491 69.596 232.491 67.061 230.053 67.061 230.053 65.452 228.981 65.452 228.981 64.672 224.837 64.672 224.837 65.452 223.814 65.452 223.814 67.061 221.376 67.061 221.376 69.596 221.571 69.596 221.571 71.351 221.376 71.351" fill="#a25eb5" stroke-width="0"/><polygon points="241.948 71.351 241.948 73.934 253.062 73.934 253.062 71.351 252.819 71.351 252.819 69.596 253.062 69.596 253.062 67.061 250.625 67.061 250.625 65.452 249.552 65.452 249.552 64.672 245.409 64.672 245.409 65.452 244.385 65.452 244.385 67.061 241.948 67.061 241.948 69.596 242.143 69.596 242.143 71.351 241.948 71.351" fill="#262626" stroke-width="0"/><path d="M266.129,73.197h6.045c.829,0,1.511-.682,1.511-1.511v-.487c0-.829-.682-1.462-1.511-1.462h-6.045c-.829,0-1.462.634-1.462,1.462v.487c0,.829.634,1.511,1.462,1.511Z" fill="#1a1a1a" fill-rule="evenodd" stroke-width="0"/><path d="M296.088,69.568h-10.822c-.146,0-.292.098-.292.244v4.144c0,.146.146.244.292.244h10.822c.146,0,.292-.097.292-.244v-4.144c0-.146-.146-.244-.292-.244Z" fill="#262626" stroke-width="0"/><path d="M302.505,69.908v3.266l-.731-.731v-.634c.195-.097.244-.292.195-.487-.098-.146-.292-.244-.487-.195-.146.097-.244.292-.195.487.049.098.146.146.195.195v.78l1.024.975v.341c-.292.049-.487.341-.39.634.049.292.341.487.634.39.292-.049.487-.341.39-.634-.049-.195-.195-.341-.39-.39v-1.267l.975-.975v-.634h.244v-.731h-.731v.731h.244v.487l-.731.731v-2.34h.244l-.39-.731-.341.731h.244Z" fill="#f2f2f2" fill-rule="evenodd" stroke-width="0"/><path d="M314.709,78.895h9.36c.097,0,.195-.097.195-.195v-9.36c0-.097-.097-.244-.195-.244h-9.36c-.146,0-.244.146-.244.244v9.36c0,.097.098.195.244.195" fill="#262626" fill-rule="evenodd" stroke-width="0"/><path d="M327.804,78.895h9.36c.097,0,.195-.097.195-.195v-9.36c0-.097-.097-.244-.195-.244h-9.36c-.146,0-.244.146-.244.244v9.36c0,.097.098.195.244.195" fill="#262626" fill-rule="evenodd" stroke-width="0"/><path d="M338.422,78.895h9.36c.097,0,.195-.097.195-.195v-9.36c0-.097-.097-.244-.195-.244h-9.36c-.146,0-.244.146-.244.244v9.36c0,.097.098.195.244.195" fill="#262626" fill-rule="evenodd" stroke-width="0"/><rect x="351.748" y="68.948" width="12.566" height="8.149" fill="#231f20" stroke="#2762ac" stroke-miterlimit="10" stroke-width=".393"/><rect x="364.754" y="68.948" width="12.566" height="8.149" fill="#231f20" stroke="#2762ac" stroke-miterlimit="10" stroke-width=".393"/><circle cx="317.278" cy="65.35" r="1.106" fill="#262626" stroke-width="0"/><circle cx="321.375" cy="65.35" r="1.106" fill="#262626" stroke-width="0"/><circle cx="330.739" cy="65.35" r="1.106" fill="#262626" stroke-width="0"/><circle cx="334.835" cy="65.35" r="1.106" fill="#262626" stroke-width="0"/><circle cx="340.541" cy="65.35" r="1.106" fill="#262626" stroke-width="0"/><circle cx="344.638" cy="65.35" r="1.106" fill="#262626" stroke-width="0"/><circle cx="355.27" cy="65.35" r="1.106" fill="#262626" stroke-width="0"/><circle cx="361.561" cy="65.35" r="1.106" fill="#262626" stroke-width="0"/><circle cx="368.096" cy="65.35" r="1.106" fill="#262626" stroke-width="0"/><circle cx="374.388" cy="65.35" r="1.106" fill="#262626" stroke-width="0"/><path d="M301.9,89.07v3.722h-86.988v1.349h86.988v1.117h88.657v-4.42h-80.168v-2.233h-8.06c-.238,0-.429.186-.429.465Z" fill="#4d4e4e" stroke-width="0"/><path d="M307.003,90.838h-19.172c-.191,0-.429.093-.572.233l-2.671,2.605c-.191.14-.382.233-.62.233h-64.525c-.191,0-.429-.093-.572-.233l-2.671-2.605c-.191-.14-.382-.233-.62-.233h-4.531v1.396h-3.386v3.024h99.34v-4.42Z" fill="#4d4e4e" stroke-width="0"/><path d="M320.833,88.605h-13.83v6.653h28.853v-4.42h-3.052c-.572,0-1.145-.093-1.717-.186l-8.584-1.861c-.525-.093-1.097-.186-1.669-.186Z" fill="#6a6a6a" stroke-width="0"/><path d="M332.947,91.536h-3.1c-.906,0-1.812-.093-2.718-.279l-5.961-1.349c-.763-.186-1.574-.279-2.385-.279h-3.481v4.606h17.646v-2.698" fill="#d66927" fill-rule="evenodd" stroke-width="0"/><rect x="261.714" y="69.982" width=".159" height="1.591" fill="#fff" stroke-width="0"/><path d="M261.236,70.778c0,.345-.292.637-.637.637s-.637-.292-.637-.637.292-.637.637-.637.637.292.637.637Z" fill="none" stroke="#fff" stroke-miterlimit="10" stroke-width=".168"/><rect x="259.326" y="69.982" width=".186" height="1.591" fill="#fff" stroke-width="0"/><path d="M258.849,70.778c0,.345-.265.637-.637.637-.345,0-.637-.292-.637-.637s.292-.637.637-.637c.371,0,.637.292.637.637Z" fill="none" stroke="#fff" stroke-miterlimit="10" stroke-width=".168"/><rect x="256.939" y="69.982" width=".186" height="1.591" fill="#fff" stroke-width="0"/><path d="M215.357,69.61h-2.389c-.195-.536-.731-.78-1.267-.634-.097.049-.195.097-.292.195v.146h.536l.341.634-.341.585h-.536v.146c.439.341,1.024.292,1.365-.146.097-.049.146-.195.195-.292h2.389c.146.487.682.682,1.121.536.097-.049.195-.097.244-.146v-.146h-.487l-.292-.536.292-.585h.487v-.097c-.39-.341-.926-.292-1.219.097-.097.049-.146.146-.146.244Z" fill="#f2f2f2" fill-rule="evenodd" stroke-width="0"/><polygon points="214.004 84.459 214.625 84.459 214.625 86.412 214.904 86.412 214.904 85.668 215.462 85.668 215.462 86.195 216.516 86.195 216.516 84.8 215.462 84.8 215.462 85.296 214.904 85.296 214.904 83.311 215.462 83.311 215.462 83.776 216.516 83.776 216.516 82.412 215.462 82.412 215.462 82.939 214.904 82.939 214.904 82.257 214.625 82.257 214.625 84.087 214.004 84.087 213.973 83.528 212.888 83.528 212.888 84.986 213.973 84.986 214.004 84.459" fill="#fff" fill-rule="evenodd" stroke-width="0"/><line x1="31.911" y1="71.233" x2="31.911" y2="32.374" fill="none" stroke="#a25eb5" stroke-linecap="round" stroke-linejoin="round" stroke-width="2"/><circle cx="31.911" cy="29.874" r="2.661" fill="#a25eb5" stroke-width="0"/><circle cx="43.206" cy="29.874" r="2.661" fill="#a25eb5" stroke-width="0"/><polyline points="226.911 71.467 226.911 47.513 43.062 47.513 43.062 30.551" fill="none" stroke="#a25eb5" stroke-linecap="round" stroke-linejoin="round" stroke-width="2"/><path d="M26.808,21.16h22.479V6.657c0-.176-.145-.313-.324-.313h-21.832c-.178,0-.322.137-.322.313v14.503Z" fill="#a25eb5" stroke-width="0"/><path d="M34.728,16.576l2.948-2.416c1.1-.911,1.53-1.391,1.53-2.125,0-.746-.493-1.151-1.189-1.151-.683,0-1.151.379-1.809,1.189l-1.366-1.101c.873-1.189,1.72-1.834,3.301-1.834,1.834,0,3.049,1.075,3.049,2.732v.025c0,1.48-.759,2.214-2.328,3.428l-1.442,1.113h3.858v1.683h-6.553v-1.543Z" fill="#fff" stroke-width="0"/><path d="M54.904,7.989v-1.089h4.826v1.089h-1.766v4.801h-1.295v-4.801h-1.765Z" fill="#a25eb5" stroke-width="0"/><path d="M59.392,9.734c.104-.278.253-.514.445-.709.193-.195.424-.347.693-.454.269-.107.572-.161.907-.161s.64.054.912.161c.272.107.505.258.697.454s.341.432.445.709.157.587.157.928-.052.649-.157.924c-.104.275-.253.51-.445.706s-.425.345-.697.45c-.272.104-.576.157-.912.157s-.638-.053-.907-.157c-.27-.104-.5-.254-.693-.45-.192-.195-.341-.43-.445-.706-.104-.275-.157-.583-.157-.924s.052-.65.157-.928ZM60.456,11.161c.033.162.089.308.169.438.08.129.186.232.318.309.132.077.297.116.495.116s.364-.039.499-.116c.135-.077.242-.18.322-.309.08-.129.136-.275.169-.438.033-.162.049-.329.049-.499s-.017-.338-.049-.503c-.033-.165-.089-.311-.169-.437-.08-.126-.187-.229-.322-.31-.135-.08-.301-.12-.499-.12s-.363.04-.495.12c-.132.08-.238.183-.318.31s-.136.272-.169.437c-.033.165-.05.333-.05.503s.017.337.05.499Z" fill="#a25eb5" stroke-width="0"/><path d="M67.839,8.525v.577h.017c.154-.22.339-.39.557-.511s.466-.182.747-.182c.27,0,.516.052.739.157.223.104.392.289.507.553.126-.187.298-.352.516-.495s.474-.215.771-.215c.226,0,.435.028.627.083.192.055.357.143.495.264.138.121.245.279.322.474.077.195.116.431.116.706v2.854h-1.171v-2.417c0-.143-.006-.277-.017-.404-.011-.126-.042-.237-.091-.33-.049-.094-.123-.168-.219-.223-.096-.055-.227-.083-.392-.083s-.299.032-.4.095c-.102.063-.182.146-.239.248-.058.102-.096.217-.115.346-.02.129-.029.26-.029.392v2.376h-1.172v-2.393c0-.126-.003-.251-.008-.375-.005-.124-.029-.238-.07-.342-.042-.104-.11-.188-.207-.251-.096-.063-.238-.095-.425-.095-.055,0-.128.012-.219.037-.09.024-.179.071-.264.14-.085.069-.158.168-.219.297-.061.129-.091.298-.091.507v2.475h-1.171v-4.265h1.105Z" fill="#a25eb5" stroke-width="0"/><path d="M74.126,9.837c.017-.275.085-.503.206-.685.121-.182.275-.327.462-.438.187-.11.397-.188.631-.235s.469-.07.706-.07c.214,0,.432.015.652.045.22.03.42.089.602.177.182.088.33.21.445.367.116.157.173.365.173.623v2.219c0,.192.011.377.033.553.022.176.061.308.115.396h-1.188c-.022-.066-.04-.133-.054-.202s-.023-.139-.029-.21c-.187.193-.407.327-.66.404-.253.077-.512.116-.776.116-.203,0-.393-.025-.569-.074-.176-.05-.33-.126-.462-.231-.132-.104-.235-.236-.309-.396-.074-.159-.111-.349-.111-.569,0-.242.042-.441.128-.598.085-.157.195-.282.33-.375.135-.093.289-.164.462-.21.173-.046.348-.084.523-.111.176-.027.35-.049.52-.066s.322-.042.454-.074c.132-.033.236-.081.313-.145.077-.063.113-.155.107-.276,0-.126-.021-.227-.062-.301-.041-.074-.096-.132-.165-.173-.069-.042-.148-.069-.239-.083s-.188-.021-.293-.021c-.231,0-.412.05-.544.148-.132.099-.209.264-.231.495h-1.171ZM76.832,10.703c-.049.044-.111.079-.186.104-.074.024-.154.045-.239.062-.085.017-.175.03-.268.042-.094.011-.187.024-.281.041-.088.017-.175.039-.26.066-.085.028-.16.065-.223.111-.063.047-.114.106-.153.178-.039.071-.058.162-.058.272,0,.104.019.193.058.264s.091.128.157.169c.066.042.143.07.231.087s.179.024.272.024c.231,0,.41-.038.536-.115s.22-.169.281-.276c.06-.107.097-.216.111-.326.014-.11.021-.198.021-.264v-.438Z" fill="#a25eb5" stroke-width="0"/><path d="M80.024,8.525v.594h.025c.148-.248.341-.427.578-.54.236-.113.479-.169.726-.169.313,0,.57.043.771.128.201.085.359.204.475.355.115.151.196.335.243.553s.07.458.07.722v2.624h-1.171v-2.409c0-.352-.055-.614-.165-.788-.11-.173-.305-.26-.586-.26-.319,0-.55.095-.693.284-.143.19-.214.502-.214.937v2.236h-1.172v-4.265h1.114Z" fill="#a25eb5" stroke-width="0"/><path d="M83.753,9.837c.017-.275.085-.503.206-.685.121-.182.275-.327.462-.438.187-.11.397-.188.631-.235s.469-.07.706-.07c.214,0,.432.015.652.045.22.03.42.089.602.177.182.088.33.21.445.367.116.157.173.365.173.623v2.219c0,.192.011.377.033.553.022.176.061.308.115.396h-1.188c-.022-.066-.04-.133-.054-.202s-.023-.139-.029-.21c-.187.193-.407.327-.66.404-.253.077-.512.116-.776.116-.203,0-.393-.025-.569-.074-.176-.05-.33-.126-.462-.231-.132-.104-.235-.236-.309-.396-.074-.159-.111-.349-.111-.569,0-.242.042-.441.128-.598.085-.157.195-.282.33-.375.135-.093.289-.164.462-.21.173-.046.348-.084.523-.111.176-.027.35-.049.52-.066s.322-.042.454-.074c.132-.033.236-.081.313-.145.077-.063.113-.155.107-.276,0-.126-.021-.227-.062-.301-.041-.074-.096-.132-.165-.173-.069-.042-.148-.069-.239-.083s-.188-.021-.293-.021c-.231,0-.412.05-.544.148-.132.099-.209.264-.231.495h-1.171ZM86.459,10.703c-.049.044-.111.079-.186.104-.074.024-.154.045-.239.062-.085.017-.175.03-.268.042-.094.011-.187.024-.281.041-.088.017-.175.039-.26.066-.085.028-.16.065-.223.111-.063.047-.114.106-.153.178-.039.071-.058.162-.058.272,0,.104.019.193.058.264s.091.128.157.169c.066.042.143.07.231.087s.179.024.272.024c.231,0,.41-.038.536-.115s.22-.169.281-.276c.06-.107.097-.216.111-.326.014-.11.021-.198.021-.264v-.438Z" fill="#a25eb5" stroke-width="0"/><path d="M92.568,13.104c-.047.22-.147.425-.301.615-.154.189-.376.351-.668.482-.292.132-.682.198-1.171.198-.209,0-.422-.026-.64-.079s-.415-.133-.594-.243c-.179-.11-.328-.252-.446-.425-.118-.173-.186-.381-.202-.623h1.164c.055.22.162.373.322.458.159.085.343.128.553.128.33,0,.57-.099.722-.297.151-.198.224-.448.219-.75v-.561h-.017c-.126.226-.307.392-.541.499s-.48.161-.738.161c-.319,0-.594-.057-.825-.169-.231-.113-.42-.267-.569-.462s-.257-.423-.326-.685-.103-.538-.103-.829c0-.275.04-.541.12-.796s.197-.481.351-.676.345-.351.573-.466c.229-.116.491-.173.788-.173.28,0,.526.052.738.157s.389.281.532.528h.017v-.569h1.114v3.993c0,.171-.023.366-.07.586ZM90.964,11.685c.126-.066.231-.154.313-.264.083-.11.145-.235.186-.375.041-.14.062-.287.062-.441,0-.176-.017-.343-.05-.5-.033-.157-.088-.295-.165-.417-.077-.121-.179-.217-.305-.289-.126-.072-.286-.107-.479-.107-.165,0-.307.033-.425.099s-.217.155-.297.268-.138.242-.173.388c-.036.146-.054.298-.054.458,0,.154.015.307.045.458.03.151.083.287.157.408s.172.22.293.297c.121.077.272.116.454.116.165,0,.311-.033.438-.099Z" fill="#a25eb5" stroke-width="0"/><path d="M94.833,11.768c.176.17.429.256.759.256.236,0,.44-.059.61-.178.17-.118.275-.243.313-.375h1.031c-.165.511-.418.877-.759,1.097-.341.22-.753.33-1.237.33-.336,0-.638-.054-.908-.161-.27-.107-.498-.26-.685-.458-.187-.198-.332-.434-.433-.709-.102-.275-.153-.577-.153-.907,0-.319.052-.616.157-.891s.253-.513.445-.713c.193-.201.422-.359.689-.475s.562-.173.887-.173c.363,0,.679.07.949.21.269.14.491.329.664.565.173.237.298.506.375.809.077.303.104.619.083.949h-3.077c.017.38.113.655.289.825ZM96.157,9.523c-.14-.154-.354-.231-.639-.231-.187,0-.342.032-.466.095-.124.063-.223.142-.297.235-.074.094-.126.192-.157.297s-.048.198-.054.281h1.906c-.055-.297-.152-.522-.293-.677Z" fill="#a25eb5" stroke-width="0"/><path d="M99.453,8.525v.577h.017c.154-.22.339-.39.557-.511s.466-.182.747-.182c.27,0,.516.052.739.157.223.104.392.289.507.553.126-.187.298-.352.516-.495s.474-.215.771-.215c.226,0,.435.028.627.083.192.055.357.143.495.264.138.121.245.279.322.474.077.195.116.431.116.706v2.854h-1.171v-2.417c0-.143-.006-.277-.017-.404-.011-.126-.042-.237-.091-.33-.049-.094-.123-.168-.219-.223-.096-.055-.227-.083-.392-.083s-.299.032-.4.095c-.102.063-.182.146-.239.248-.058.102-.096.217-.115.346-.02.129-.029.26-.029.392v2.376h-1.172v-2.393c0-.126-.003-.251-.008-.375-.005-.124-.029-.238-.07-.342-.042-.104-.11-.188-.207-.251-.096-.063-.238-.095-.425-.095-.055,0-.128.012-.219.037-.09.024-.179.071-.264.14-.085.069-.158.168-.219.297-.061.129-.091.298-.091.507v2.475h-1.171v-4.265h1.105Z" fill="#a25eb5" stroke-width="0"/><path d="M107.043,11.768c.176.17.429.256.759.256.236,0,.44-.059.61-.178.17-.118.275-.243.313-.375h1.031c-.165.511-.418.877-.759,1.097-.341.22-.753.33-1.237.33-.336,0-.638-.054-.908-.161-.27-.107-.498-.26-.685-.458-.187-.198-.332-.434-.433-.709-.102-.275-.153-.577-.153-.907,0-.319.052-.616.157-.891s.253-.513.445-.713c.193-.201.422-.359.689-.475s.562-.173.887-.173c.363,0,.679.07.949.21.269.14.491.329.664.565.173.237.298.506.375.809.077.303.104.619.083.949h-3.077c.017.38.113.655.289.825ZM108.367,9.523c-.14-.154-.354-.231-.639-.231-.187,0-.342.032-.466.095-.124.063-.223.142-.297.235-.074.094-.126.192-.157.297s-.048.198-.054.281h1.906c-.055-.297-.152-.522-.293-.677Z" fill="#a25eb5" stroke-width="0"/><path d="M111.638,8.525v.594h.025c.148-.248.341-.427.578-.54.236-.113.479-.169.726-.169.313,0,.57.043.771.128.201.085.359.204.475.355.115.151.196.335.243.553s.07.458.07.722v2.624h-1.171v-2.409c0-.352-.055-.614-.165-.788-.11-.173-.305-.26-.586-.26-.319,0-.55.095-.693.284-.143.19-.214.502-.214.937v2.236h-1.172v-4.265h1.114Z" fill="#a25eb5" stroke-width="0"/><path d="M117.76,8.525v.784h-.858v2.112c0,.198.033.33.099.396.066.066.198.099.396.099.066,0,.129-.003.19-.008s.118-.014.173-.025v.908c-.099.017-.209.027-.33.033-.121.005-.239.008-.355.008-.181,0-.353-.012-.516-.037-.162-.024-.305-.073-.429-.144-.124-.071-.222-.173-.293-.305-.071-.132-.107-.306-.107-.52v-2.516h-.709v-.784h.709v-1.279h1.172v1.279h.858Z" fill="#a25eb5" stroke-width="0"/><path d="M56.355,17.368v.594h.025c.148-.248.341-.427.578-.54.236-.113.479-.169.726-.169.313,0,.57.043.771.128.201.085.359.204.475.355.115.151.196.335.243.553s.07.458.07.722v2.624h-1.171v-2.409c0-.352-.055-.614-.165-.788-.11-.173-.305-.26-.586-.26-.319,0-.55.095-.693.284-.143.19-.214.502-.214.937v2.236h-1.172v-4.265h1.114Z" fill="#a25eb5" stroke-width="0"/><path d="M61.388,20.61c.176.17.429.256.759.256.236,0,.44-.059.61-.178.17-.118.275-.243.313-.375h1.031c-.165.511-.418.877-.759,1.097-.341.22-.753.33-1.237.33-.336,0-.638-.054-.908-.161-.27-.107-.498-.26-.685-.458-.187-.198-.332-.434-.433-.709-.102-.275-.153-.577-.153-.907,0-.319.052-.616.157-.891s.253-.513.445-.713c.193-.201.422-.359.689-.475s.562-.173.887-.173c.363,0,.679.07.949.21.269.14.491.329.664.565.173.237.298.506.375.809.077.303.104.619.083.949h-3.077c.017.38.113.655.289.825ZM62.712,18.366c-.14-.154-.354-.231-.639-.231-.187,0-.342.032-.466.095-.124.063-.223.142-.297.235-.074.094-.126.192-.157.297s-.048.198-.054.281h1.906c-.055-.297-.152-.522-.293-.677Z" fill="#a25eb5" stroke-width="0"/><path d="M67.212,17.368v.784h-.858v2.112c0,.198.033.33.099.396.066.066.198.099.396.099.066,0,.129-.003.19-.008s.118-.014.173-.025v.908c-.099.017-.209.027-.33.033-.121.005-.239.008-.355.008-.181,0-.353-.012-.516-.037-.162-.024-.305-.073-.429-.144-.124-.071-.222-.173-.293-.305-.071-.132-.107-.306-.107-.52v-2.516h-.709v-.784h.709v-1.279h1.172v1.279h.858Z" fill="#a25eb5" stroke-width="0"/><path d="M71.444,21.633l-.759-2.863h-.017l-.726,2.863h-1.213l-1.353-4.265h1.238l.784,2.896h.017l.709-2.896h1.138l.726,2.887h.017l.784-2.887h1.205l-1.345,4.265h-1.205Z" fill="#a25eb5" stroke-width="0"/><path d="M74.514,18.577c.104-.278.253-.514.445-.709.193-.195.424-.347.693-.454.269-.107.572-.161.907-.161s.64.054.912.161c.272.107.505.258.697.454s.341.432.445.709.157.587.157.928-.052.649-.157.924c-.104.275-.253.51-.445.706s-.425.345-.697.45c-.272.104-.576.157-.912.157s-.638-.053-.907-.157c-.27-.104-.5-.254-.693-.45-.192-.195-.341-.43-.445-.706-.104-.275-.157-.583-.157-.924s.052-.65.157-.928ZM75.578,20.004c.033.162.089.308.169.438.08.129.186.232.318.309.132.077.297.116.495.116s.364-.039.499-.116c.135-.077.242-.18.322-.309.08-.129.136-.275.169-.438.033-.162.049-.329.049-.499s-.017-.338-.049-.503c-.033-.165-.089-.311-.169-.437-.08-.126-.187-.229-.322-.31-.135-.08-.301-.12-.499-.12s-.363.04-.495.12c-.132.08-.238.183-.318.31s-.136.272-.169.437c-.033.165-.05.333-.05.503s.017.337.05.499Z" fill="#a25eb5" stroke-width="0"/><path d="M80.643,17.368v.792h.017c.055-.132.129-.254.223-.367.094-.113.201-.209.322-.289.121-.08.25-.142.388-.186.138-.044.281-.066.429-.066.077,0,.162.014.256.042v1.089c-.055-.011-.121-.021-.198-.029s-.151-.013-.223-.013c-.214,0-.396.036-.544.107-.148.072-.268.169-.359.293s-.155.268-.194.433-.058.344-.058.536v1.922h-1.172v-4.265h1.114Z" fill="#a25eb5" stroke-width="0"/><path d="M84.017,15.743v3.16l1.477-1.534h1.386l-1.609,1.567,1.791,2.698h-1.419l-1.171-1.906-.454.438v1.468h-1.171v-5.891h1.171Z" fill="#a25eb5" stroke-width="0"/><path d="M90.753,20.573c.052.091.12.165.202.223s.178.101.285.128c.107.027.219.041.334.041.083,0,.169-.009.26-.029.091-.019.173-.049.248-.091.074-.041.136-.096.186-.165.049-.069.074-.156.074-.26,0-.176-.117-.308-.351-.396-.234-.088-.56-.176-.978-.264-.171-.039-.337-.084-.5-.136-.162-.052-.307-.121-.433-.207-.126-.085-.228-.192-.305-.322-.077-.129-.115-.287-.115-.474,0-.275.054-.5.161-.677.107-.176.249-.314.425-.417.176-.102.374-.173.594-.214.22-.042.445-.062.676-.062s.455.022.672.066c.217.044.411.119.582.223.17.104.312.243.425.417.112.173.18.392.202.656h-1.114c-.017-.226-.102-.378-.256-.458-.154-.08-.335-.12-.544-.12-.066,0-.138.004-.215.013-.077.008-.147.026-.21.054-.063.027-.117.067-.161.12s-.066.122-.066.21c0,.104.039.19.116.256.077.066.177.12.301.161.124.041.266.078.425.111.16.033.322.069.487.107.17.039.337.085.499.141.163.055.307.127.433.218s.229.204.306.338c.077.135.115.301.115.499,0,.281-.056.516-.169.706-.113.189-.26.342-.441.458-.182.115-.389.196-.623.243s-.472.07-.713.07c-.248,0-.49-.025-.726-.074-.237-.05-.447-.132-.631-.248-.184-.116-.335-.268-.454-.458s-.183-.428-.194-.714h1.114c0,.127.026.235.078.326Z" fill="#a25eb5" stroke-width="0"/><path d="M97.869,21.633l-.759-2.863h-.017l-.726,2.863h-1.213l-1.353-4.265h1.238l.784,2.896h.017l.709-2.896h1.138l.726,2.887h.017l.784-2.887h1.205l-1.345,4.265h-1.205Z" fill="#a25eb5" stroke-width="0"/><path d="M100.946,16.708v-.965h1.171v.965h-1.171ZM102.118,17.368v4.265h-1.171v-4.265h1.171Z" fill="#a25eb5" stroke-width="0"/><path d="M105.385,17.368v.784h-.858v2.112c0,.198.033.33.099.396.066.066.198.099.396.099.066,0,.129-.003.19-.008s.118-.014.173-.025v.908c-.099.017-.209.027-.33.033-.121.005-.239.008-.355.008-.181,0-.353-.012-.516-.037-.162-.024-.305-.073-.429-.144-.124-.071-.222-.173-.293-.305-.071-.132-.107-.306-.107-.52v-2.516h-.709v-.784h.709v-1.279h1.172v1.279h.858Z" fill="#a25eb5" stroke-width="0"/><path d="M107.983,18.135c-.187,0-.344.042-.47.128-.127.085-.23.195-.31.33s-.136.283-.169.445c-.033.163-.05.323-.05.483,0,.154.017.311.05.47.033.16.086.304.161.433s.175.235.301.317.28.124.462.124c.28,0,.496-.079.647-.235s.246-.367.285-.631h1.13c-.077.566-.297.998-.66,1.295-.363.297-.828.446-1.394.446-.319,0-.612-.054-.879-.161-.267-.107-.494-.257-.68-.45-.188-.192-.333-.422-.438-.688-.104-.267-.157-.56-.157-.879,0-.33.048-.637.145-.92s.238-.528.425-.734c.187-.206.415-.367.685-.482s.578-.173.924-.173c.253,0,.496.033.73.099s.442.167.627.301c.184.135.334.302.45.503.115.201.182.439.198.714h-1.146c-.077-.49-.366-.734-.866-.734Z" fill="#a25eb5" stroke-width="0"/><path d="M111.853,15.743v2.219h.024c.148-.248.338-.427.569-.54s.457-.169.677-.169c.313,0,.57.043.771.128.201.085.359.204.475.355.115.151.196.335.243.553s.07.458.07.722v2.624h-1.171v-2.409c0-.352-.055-.614-.165-.788-.11-.173-.305-.26-.586-.26-.319,0-.55.095-.693.284-.143.19-.214.502-.214.937v2.236h-1.172v-5.891h1.172Z" fill="#a25eb5" stroke-width="0"/><path d="M116.827,20.61c.176.17.429.256.759.256.236,0,.44-.059.61-.178.17-.118.275-.243.313-.375h1.031c-.165.511-.418.877-.759,1.097-.341.22-.753.33-1.237.33-.336,0-.638-.054-.908-.161-.27-.107-.498-.26-.685-.458-.187-.198-.332-.434-.433-.709-.102-.275-.153-.577-.153-.907,0-.319.052-.616.157-.891s.253-.513.445-.713c.193-.201.422-.359.689-.475s.562-.173.887-.173c.363,0,.679.07.949.21.269.14.491.329.664.565.173.237.298.506.375.809.077.303.104.619.083.949h-3.077c.017.38.113.655.289.825ZM118.151,18.366c-.14-.154-.354-.231-.639-.231-.187,0-.342.032-.466.095-.124.063-.223.142-.297.235-.074.094-.126.192-.157.297s-.048.198-.054.281h1.906c-.055-.297-.152-.522-.293-.677Z" fill="#a25eb5" stroke-width="0"/><path d="M121.294,20.573c.052.091.12.165.202.223s.178.101.285.128c.107.027.219.041.334.041.083,0,.169-.009.26-.029.091-.019.173-.049.248-.091.074-.041.136-.096.186-.165.049-.069.074-.156.074-.26,0-.176-.117-.308-.351-.396-.234-.088-.56-.176-.978-.264-.171-.039-.337-.084-.5-.136-.162-.052-.307-.121-.433-.207-.126-.085-.228-.192-.305-.322-.077-.129-.115-.287-.115-.474,0-.275.054-.5.161-.677.107-.176.249-.314.425-.417.176-.102.374-.173.594-.214.22-.042.445-.062.676-.062s.455.022.672.066c.217.044.411.119.582.223.17.104.312.243.425.417.112.173.18.392.202.656h-1.114c-.017-.226-.102-.378-.256-.458-.154-.08-.335-.12-.544-.12-.066,0-.138.004-.215.013-.077.008-.147.026-.21.054-.063.027-.117.067-.161.12s-.066.122-.066.21c0,.104.039.19.116.256.077.066.177.12.301.161.124.041.266.078.425.111.16.033.322.069.487.107.17.039.337.085.499.141.163.055.307.127.433.218s.229.204.306.338c.077.135.115.301.115.499,0,.281-.056.516-.169.706-.113.189-.26.342-.441.458-.182.115-.389.196-.623.243s-.472.07-.713.07c-.248,0-.49-.025-.726-.074-.237-.05-.447-.132-.631-.248-.184-.116-.335-.268-.454-.458s-.183-.428-.194-.714h1.114c0,.127.026.235.078.326Z" fill="#a25eb5" stroke-width="0"/></svg>