<?xml version="1.0" encoding="UTF-8"?><svg id="a" xmlns="http://www.w3.org/2000/svg" width="3.1in" height=".9in" viewBox="0 0 223.2 64.8"><rect x="113.986" y="2.227" width="104.241" height="60.874" fill="#fff" stroke-width="0"/><rect x="113.985" y="2.227" width="104.241" height="60.874" fill="none" stroke="#939598" stroke-width="2.453"/><rect x="165.961" y="2.227" width="52.265" height="13.103" fill="#939598" stroke="gray" stroke-width="2.113"/><rect x="165.961" y="2.227" width="52.265" height="13.103" fill="none" stroke="#939598" stroke-width="2.453"/><rect x="113.985" y="2.227" width="51.976" height="13.103" fill="#fff" stroke-width="0"/><rect x="113.985" y="2.227" width="51.976" height="13.103" fill="none" stroke="#939598" stroke-width="2.453"/><path d="M170.654,6.898v3.18h1.902v.722h-2.76v-3.902h.858Z" fill="#fff" stroke-width="0"/><path d="M173.894,6.898v3.902h-.858v-3.902h.858Z" fill="#fff" stroke-width="0"/><path d="M177.392,6.898v.721h-1.886v.902h1.634v.667h-1.634v1.612h-.858v-3.902h2.744Z" fill="#fff" stroke-width="0"/><path d="M177.583,7.619v-.721h3.197v.721h-1.169v3.181h-.858v-3.181h-1.169Z" fill="#fff" stroke-width="0"/><path d="M182.087,6.898v3.902h-.858v-3.902h.858Z" fill="#fff" stroke-width="0"/><path d="M183.694,6.898l1.628,2.618h.011v-2.618h.803v3.902h-.858l-1.623-2.612h-.011v2.612h-.803v-3.902h.853Z" fill="#fff" stroke-width="0"/><path d="M189.203,10.77c-.186.079-.374.118-.563.118-.299,0-.567-.053-.806-.156-.238-.104-.44-.247-.604-.429-.164-.182-.289-.396-.377-.642-.087-.246-.131-.511-.131-.796,0-.291.044-.562.131-.811.088-.25.213-.467.377-.653.164-.186.365-.332.604-.437.239-.106.507-.158.806-.158.2,0,.394.03.582.089.188.061.357.149.509.265.151.117.276.261.374.432.098.172.158.369.18.59h-.82c-.051-.218-.149-.383-.295-.492s-.323-.164-.53-.164c-.193,0-.357.038-.492.112s-.244.175-.328.3-.145.268-.183.429c-.038.16-.057.326-.057.497,0,.164.019.323.057.479s.099.294.183.418.193.223.328.298.299.112.492.112c.284,0,.504-.071.659-.216.155-.144.245-.352.271-.626h-.864v-.64h1.639v2.11h-.546l-.087-.443c-.153.196-.323.334-.508.412Z" fill="#fff" stroke-width="0"/><path d="M193.416,6.898v1.497h1.58v-1.497h.858v3.902h-.858v-1.683h-1.58v1.683h-.858v-3.902h.858Z" fill="#fff" stroke-width="0"/><path d="M198.554,6.898l1.459,3.902h-.891l-.295-.869h-1.459l-.306.869h-.864l1.476-3.902h.88ZM198.603,9.292l-.492-1.433h-.011l-.509,1.433h1.011Z" fill="#fff" stroke-width="0"/><path d="M202.194,7.619h-1.929v-.721h3.071v.677l-2.093,2.503h2.148v.722h-3.29v-.677l2.093-2.504Z" fill="#fff" stroke-width="0"/><path d="M205.839,6.898l1.459,3.902h-.891l-.295-.869h-1.459l-.306.869h-.864l1.476-3.902h.88ZM205.888,9.292l-.492-1.433h-.011l-.509,1.433h1.011Z" fill="#fff" stroke-width="0"/><path d="M209.742,6.898c.175,0,.332.028.472.085.14.057.261.134.361.232s.177.212.229.342c.053.13.08.268.08.418,0,.23-.048.429-.145.596-.097.167-.254.295-.473.383v.011c.105.03.193.074.262.134s.126.131.17.213c.044.082.076.172.096.27.02.099.034.197.041.296.003.062.007.135.011.218s.01.17.019.257c.009.088.024.171.044.249.02.079.05.144.09.199h-.858c-.048-.124-.077-.272-.087-.443-.011-.172-.028-.336-.049-.492-.029-.204-.091-.354-.186-.448-.095-.095-.25-.142-.465-.142h-.858v1.525h-.858v-3.902h2.104ZM209.436,8.663c.197,0,.344-.044.443-.131.098-.087.147-.229.147-.426,0-.19-.049-.327-.147-.413-.099-.085-.246-.128-.443-.128h-.94v1.098h.94Z" fill="#fff" stroke-width="0"/><path d="M213.267,6.898c.251,0,.485.04.702.12.217.08.405.2.563.361.158.16.282.36.371.601.089.241.134.523.134.847,0,.284-.036.546-.109.786-.073.241-.183.448-.33.623-.148.175-.332.313-.552.413s-.48.15-.779.15h-1.683v-3.902h1.683ZM213.206,10.079c.124,0,.244-.02.361-.06s.22-.107.312-.199.164-.214.218-.364c.055-.149.082-.331.082-.546,0-.197-.019-.374-.057-.533-.038-.159-.101-.295-.188-.407-.087-.113-.203-.199-.347-.26-.144-.06-.321-.09-.533-.09h-.612v2.46h.765Z" fill="#fff" stroke-width="0"/><path d="M135.329,7.622c-.221-.154-.484-.232-.788-.232-.26,0-.482.048-.667.146-.184.098-.337.228-.456.392-.119.164-.208.352-.264.563-.057.211-.085.43-.085.658,0,.247.028.481.085.703.057.221.145.414.264.578.12.164.273.295.46.392.186.098.41.146.669.146.19,0,.36-.031.508-.094.148-.062.276-.15.383-.262.107-.112.192-.244.252-.398s.097-.321.11-.499h.578c-.057.548-.245.974-.566,1.278-.32.304-.759.456-1.314.456-.337,0-.631-.058-.883-.174s-.461-.274-.627-.478c-.166-.203-.291-.442-.374-.718-.083-.276-.124-.572-.124-.889s.044-.613.134-.892c.089-.277.22-.52.392-.727.172-.208.387-.37.645-.49.257-.12.553-.18.885-.18.227,0,.442.03.645.091s.383.15.542.268c.158.118.29.265.395.442s.174.38.207.612h-.578c-.065-.309-.208-.539-.429-.694Z" fill="#231f20" stroke-width="0"/><path d="M138.868,7.007l1.698,4.345h-.639l-.475-1.309h-1.838l-.487,1.309h-.59l1.692-4.345h.639ZM139.27,9.557l-.724-2.026h-.012l-.736,2.026h1.473Z" fill="#231f20" stroke-width="0"/><path d="M143.968,11.033c-.296.277-.718.417-1.266.417-.56,0-.997-.133-1.311-.399s-.472-.689-.472-1.269v-2.775h.578v2.775c0,.39.103.685.31.886s.505.301.894.301c.369,0,.65-.1.843-.301.193-.201.289-.496.289-.886v-2.775h.578v2.775c0,.557-.148.973-.444,1.251Z" fill="#231f20" stroke-width="0"/><path d="M144.826,7.493v-.487h3.475v.487h-1.448v3.859h-.578v-3.859h-1.448Z" fill="#231f20" stroke-width="0"/><path d="M149.335,7.007v4.345h-.578v-4.345h.578Z" fill="#231f20" stroke-width="0"/><path d="M150.147,8.324c.087-.274.218-.516.392-.727s.392-.379.651-.505c.259-.126.562-.189.907-.189s.647.063.907.189c.259.126.477.294.651.505s.305.453.393.727c.087.274.131.559.131.855s-.044.581-.131.855c-.087.274-.218.516-.393.727s-.392.378-.651.502c-.26.123-.562.186-.907.186s-.647-.062-.907-.186c-.26-.124-.477-.291-.651-.502s-.305-.453-.392-.727c-.087-.273-.131-.559-.131-.855s.044-.581.131-.855ZM150.68,9.827c.057.213.146.405.268.575.122.17.278.307.468.41.191.103.418.155.682.155s.491-.052.681-.155c.191-.103.347-.241.469-.41.122-.171.211-.362.268-.575.057-.213.085-.429.085-.648s-.028-.435-.085-.649c-.057-.213-.146-.405-.268-.575-.122-.171-.278-.308-.469-.411-.19-.103-.418-.155-.681-.155s-.491.052-.682.155c-.19.103-.347.241-.468.411-.122.17-.211.362-.268.575-.057.213-.085.429-.085.649s.028.435.085.648Z" fill="#231f20" stroke-width="0"/><path d="M155.409,7.007l2.288,3.524h.012v-3.524h.548v4.345h-.633l-2.27-3.487h-.012v3.487h-.548v-4.345h.614Z" fill="#231f20" stroke-width="0"/><path d="M120.668,13.383c-.444,0-.804-.359-.804-.803,0-.187.098-.343.169-.493l3.781-7.582c.147-.19.377-.312.634-.312.258,0,.488.122.635.312l3.781,7.582c.087.15.169.306.169.493,0,.445-.36.803-.803.803h-7.561Z" fill="#f79320" fill-rule="evenodd" stroke-width="0"/><path d="M125.018,11.618c0,.314-.254.568-.569.568s-.568-.254-.568-.568.253-.571.568-.571.569.256.569.571" fill="#fff" fill-rule="evenodd" stroke-width="0"/><path d="M124.449,6.861c-.292,0-.528.239-.528.53l.176,2.847c0,.193.158.353.352.353s.352-.159.352-.353l.178-2.847c0-.292-.237-.53-.53-.53" fill="#fff" fill-rule="evenodd" stroke-width="0"/><path d="M120.52,52.207l1.271-1.121c.535-.48.73-.751.73-1.101,0-.411-.325-.671-.706-.671-.4,0-.66.21-.94.601l-.29-.21c.314-.471.646-.746,1.261-.746.631,0,1.086.42,1.086.991v.01c0,.51-.271.826-.886,1.361l-.936.831h1.856v.36h-2.447v-.305Z" fill="#231f20" stroke-width="0"/><path d="M125.461,51.681h-1.847l-.101-.286,1.982-2.412h.345v2.367h.546v.331h-.546v.831h-.38v-.831ZM125.461,51.351v-1.807l-1.472,1.807h1.472Z" fill="#231f20" stroke-width="0"/><path d="M126.991,50.77v-.01c0-.981.585-1.812,1.486-1.812s1.472.821,1.472,1.802v.01c0,.98-.581,1.812-1.481,1.812-.906,0-1.477-.821-1.477-1.802ZM129.538,50.77v-.01c0-.766-.42-1.452-1.07-1.452-.656,0-1.066.67-1.066,1.441v.01c0,.766.421,1.451,1.076,1.451s1.061-.676,1.061-1.441Z" fill="#231f20" stroke-width="0"/><path d="M132.27,48.858h.385v3.654h-.385v-3.654Z" fill="#231f20" stroke-width="0"/><path d="M133.96,52.016v.496h-.385v-3.654h.385v1.587c.211-.311.516-.576.991-.576.621,0,1.236.491,1.236,1.341v.01c0,.846-.61,1.347-1.236,1.347-.48,0-.791-.26-.991-.551ZM135.792,51.226v-.01c0-.61-.42-1.001-.911-1.001-.48,0-.936.405-.936.996v.01c0,.601.455,1.001.936,1.001.501,0,.911-.37.911-.996Z" fill="#231f20" stroke-width="0"/><path d="M136.705,52.181l.195-.275c.28.21.591.33.896.33.31,0,.535-.16.535-.41v-.01c0-.26-.306-.36-.646-.455-.405-.115-.856-.255-.856-.731v-.01c0-.445.371-.74.881-.74.315,0,.666.11.932.285l-.176.29c-.24-.155-.516-.25-.766-.25-.305,0-.5.16-.5.375v.01c0,.245.32.34.665.445.4.12.831.275.831.741v.01c0,.49-.405.776-.921.776-.37,0-.78-.146-1.071-.381Z" fill="#231f20" stroke-width="0"/><path d="M139.384,51.986h.461v.525h-.461v-.525Z" fill="#231f20" stroke-width="0"/><path d="M142.109,51.075c0-.921.496-1.642,1.387-2.142l.165.255c-.761.485-1.161,1.086-1.161,1.887s.4,1.401,1.161,1.887l-.165.255c-.891-.5-1.387-1.221-1.387-2.142Z" fill="#231f20" stroke-width="0"/><path d="M144.86,49.394l-.66.206-.095-.32.855-.295h.29v3.528h-.391v-3.118Z" fill="#231f20" stroke-width="0"/><path d="M146.084,50.77v-.01c0-.981.585-1.812,1.486-1.812s1.472.821,1.472,1.802v.01c0,.98-.581,1.812-1.481,1.812-.906,0-1.477-.821-1.477-1.802ZM148.631,50.77v-.01c0-.766-.42-1.452-1.07-1.452-.656,0-1.066.67-1.066,1.441v.01c0,.766.421,1.451,1.076,1.451s1.061-.676,1.061-1.441Z" fill="#231f20" stroke-width="0"/><path d="M151.897,50.75v-.07c-.22.34-.54.555-.991.555-.721,0-1.221-.456-1.221-1.086v-.01c0-.666.516-1.191,1.261-1.191.4,0,.696.135.921.36.266.265.436.656.436,1.356v.01c0,1.111-.59,1.897-1.456,1.897-.456,0-.786-.185-1.081-.431l.23-.305c.285.25.55.375.86.375.676,0,1.041-.706,1.041-1.461ZM151.822,50.104v-.01c0-.445-.365-.796-.891-.796s-.841.386-.841.821v.01c0,.445.351.766.86.766.536,0,.871-.39.871-.791Z" fill="#231f20" stroke-width="0"/><path d="M154.58,48.858h.385v2.522l1.396-1.456h.48l-1.086,1.111,1.121,1.477h-.46l-.927-1.206-.525.53v.676h-.385v-3.654Z" fill="#231f20" stroke-width="0"/><path d="M157.419,52.962l.175-.301c.296.215.626.331.996.331.571,0,.941-.315.941-.921v-.305c-.226.3-.541.545-1.017.545-.62,0-1.216-.465-1.216-1.211v-.01c0-.756.601-1.221,1.216-1.221.486,0,.801.24,1.012.521v-.465h.385v2.137c0,.4-.12.706-.33.916-.23.23-.575.346-.986.346-.43,0-.83-.12-1.176-.36ZM159.542,51.095v-.01c0-.531-.46-.876-.951-.876s-.896.34-.896.871v.01c0,.521.415.881.896.881.491,0,.951-.355.951-.876Z" fill="#231f20" stroke-width="0"/><path d="M160.644,52.962c.761-.486,1.161-1.086,1.161-1.887s-.4-1.401-1.161-1.887l.165-.255c.891.5,1.387,1.221,1.387,2.142s-.496,1.642-1.387,2.142l-.165-.255Z" fill="#231f20" stroke-width="0"/><path d="M120.675,54.513h2.011v.292h-1.694v1h1.515v.288h-1.515v1.219h-.316v-2.798Z" fill="#231f20" stroke-width="0"/><path d="M123.215,56.528v-1.283h.309v1.208c0,.384.207.624.571.624.352,0,.619-.26.619-.647v-1.184h.305v2.067h-.305v-.36c-.14.224-.352.404-.707.404-.5,0-.792-.336-.792-.828Z" fill="#231f20" stroke-width="0"/><path d="M125.74,54.393h.308v2.918h-.308v-2.918Z" fill="#231f20" stroke-width="0"/><path d="M126.792,54.393h.308v2.918h-.308v-2.918Z" fill="#231f20" stroke-width="0"/><path d="M129.362,55.245h.328l-.867,2.135c-.176.428-.376.584-.688.584-.172,0-.3-.036-.44-.104l.104-.244c.1.052.191.076.323.076.185,0,.3-.096.424-.388l-.939-2.059h.34l.752,1.723.663-1.723Z" fill="#231f20" stroke-width="0"/><path d="M130.095,55.948h1.111v.324h-1.111v-.324Z" fill="#231f20" stroke-width="0"/><path d="M131.811,55.245h.308v.416c.168-.248.412-.46.792-.46.495,0,.987.392.987,1.071v.008c0,.675-.487,1.075-.987,1.075-.384,0-.632-.208-.792-.44v1.036h-.308v-2.707ZM133.583,56.284v-.008c0-.487-.336-.799-.728-.799-.384,0-.748.324-.748.795v.008c0,.479.364.799.748.799.399,0,.728-.296.728-.795Z" fill="#231f20" stroke-width="0"/><path d="M134.339,56.288v-.008c0-.584.456-1.08,1.079-1.08s1.076.488,1.076,1.071v.008c0,.583-.46,1.079-1.084,1.079-.619,0-1.071-.488-1.071-1.071ZM136.178,56.288v-.008c0-.444-.332-.808-.768-.808-.447,0-.756.364-.756.799v.008c0,.443.328.803.764.803.448,0,.76-.36.76-.795Z" fill="#231f20" stroke-width="0"/><path d="M137.051,55.245h.308v.416c.168-.248.412-.46.792-.46.495,0,.987.392.987,1.071v.008c0,.675-.487,1.075-.987,1.075-.384,0-.632-.208-.792-.44v1.036h-.308v-2.707ZM138.823,56.284v-.008c0-.487-.336-.799-.728-.799-.384,0-.748.324-.748.795v.008c0,.479.364.799.748.799.399,0,.728-.296.728-.795Z" fill="#231f20" stroke-width="0"/><path d="M139.675,56.528v-1.283h.309v1.208c0,.384.207.624.571.624.352,0,.619-.26.619-.647v-1.184h.305v2.067h-.305v-.36c-.14.224-.352.404-.707.404-.5,0-.792-.336-.792-.828Z" fill="#231f20" stroke-width="0"/><path d="M142.2,54.393h.308v2.918h-.308v-2.918Z" fill="#231f20" stroke-width="0"/><path d="M143.067,56.712v-.008c0-.436.36-.667.884-.667.264,0,.452.036.636.088v-.072c0-.372-.228-.563-.615-.563-.244,0-.437.063-.628.152l-.092-.252c.228-.104.451-.172.751-.172.292,0,.516.076.668.228.14.14.212.34.212.604v1.263h-.296v-.312c-.144.188-.384.356-.747.356-.385,0-.772-.22-.772-.644ZM144.59,56.552v-.2c-.151-.044-.355-.088-.607-.088-.388,0-.604.168-.604.428v.008c0,.26.239.412.52.412.38,0,.691-.232.691-.56Z" fill="#231f20" stroke-width="0"/><path d="M145.647,56.764v-1.247h-.288v-.272h.288v-.624h.308v.624h.655v.272h-.655v1.207c0,.252.14.344.348.344.104,0,.191-.02.3-.072v.264c-.108.056-.224.088-.372.088-.332,0-.583-.164-.583-.584Z" fill="#231f20" stroke-width="0"/><path d="M147.027,56.284v-.008c0-.596.42-1.075.991-1.075.612,0,.964.488.964,1.091,0,.04,0,.064-.004.1h-1.64c.044.448.36.7.728.7.284,0,.484-.116.652-.292l.191.172c-.208.232-.46.388-.852.388-.567,0-1.031-.436-1.031-1.075ZM148.67,56.164c-.032-.375-.248-.704-.66-.704-.359,0-.632.3-.672.704h1.332Z" fill="#231f20" stroke-width="0"/><path d="M149.403,56.284v-.008c0-.675.492-1.075.987-1.075.384,0,.632.208.792.44v-1.248h.308v2.918h-.308v-.416c-.168.248-.412.459-.792.459-.495,0-.987-.392-.987-1.071ZM151.194,56.28v-.008c0-.476-.363-.795-.747-.795-.4,0-.728.296-.728.795v.008c0,.488.336.799.728.799.384,0,.747-.324.747-.799Z" fill="#231f20" stroke-width="0"/><path d="M153.25,56.288v-.008c0-.584.456-1.08,1.06-1.08.392,0,.636.164.827.368l-.203.216c-.164-.172-.349-.312-.628-.312-.42,0-.74.355-.74.799v.008c0,.448.328.803.76.803.264,0,.468-.132.632-.308l.196.184c-.208.232-.456.4-.844.4-.604,0-1.06-.492-1.06-1.071Z" fill="#231f20" stroke-width="0"/><path d="M155.663,54.393h.308v1.211c.136-.224.353-.404.708-.404.5,0,.791.336.791.828v1.283h-.308v-1.208c0-.384-.208-.624-.571-.624-.356,0-.62.26-.62.648v1.183h-.308v-2.918Z" fill="#231f20" stroke-width="0"/><path d="M157.97,56.712v-.008c0-.436.36-.667.884-.667.264,0,.452.036.636.088v-.072c0-.372-.228-.563-.615-.563-.244,0-.437.063-.628.152l-.092-.252c.228-.104.451-.172.751-.172.292,0,.516.076.668.228.14.14.212.34.212.604v1.263h-.296v-.312c-.144.188-.384.356-.748.356-.383,0-.771-.22-.771-.644ZM159.494,56.552v-.2c-.151-.044-.355-.088-.607-.088-.388,0-.604.168-.604.428v.008c0,.26.239.412.52.412.38,0,.691-.232.691-.56Z" fill="#231f20" stroke-width="0"/><path d="M160.271,57.048l.156-.22c.224.168.472.264.715.264.248,0,.428-.128.428-.328v-.008c0-.208-.243-.288-.516-.364-.323-.092-.684-.204-.684-.584v-.008c0-.356.296-.592.704-.592.252,0,.531.088.743.228l-.14.232c-.191-.124-.412-.2-.611-.2-.244,0-.4.128-.4.3v.008c0,.196.256.272.532.356.319.096.663.22.663.591v.008c0,.392-.323.62-.735.62-.296,0-.624-.116-.855-.304Z" fill="#231f20" stroke-width="0"/><path d="M162.263,57.048l.156-.22c.224.168.472.264.715.264.248,0,.428-.128.428-.328v-.008c0-.208-.243-.288-.516-.364-.323-.092-.684-.204-.684-.584v-.008c0-.356.296-.592.704-.592.252,0,.531.088.743.228l-.14.232c-.191-.124-.412-.2-.611-.2-.244,0-.4.128-.4.3v.008c0,.196.256.272.532.356.319.096.663.22.663.591v.008c0,.392-.323.62-.735.62-.296,0-.624-.116-.855-.304Z" fill="#231f20" stroke-width="0"/><path d="M164.435,54.453h.352v.34h-.352v-.34ZM164.456,55.245h.308v2.067h-.308v-2.067Z" fill="#231f20" stroke-width="0"/><path d="M165.307,57.048l.156-.22c.224.168.472.264.715.264.248,0,.429-.128.429-.328v-.008c0-.208-.244-.288-.517-.364-.323-.092-.684-.204-.684-.584v-.008c0-.356.296-.592.704-.592.252,0,.531.088.743.228l-.14.232c-.191-.124-.412-.2-.611-.2-.244,0-.4.128-.4.3v.008c0,.196.256.272.532.356.319.096.663.22.663.591v.008c0,.392-.323.62-.735.62-.296,0-.624-.116-.855-.304Z" fill="#231f20" stroke-width="0"/><path d="M177.435,25.938c0,1.348,1.093,2.44,2.44,2.44s2.44-1.092,2.44-2.44-1.091-2.441-2.44-2.441-2.44,1.093-2.44,2.441Z" fill="#231f20" stroke-width="0"/><path d="M180.409,29.775l-2.492-1.728s-1.221-.457-1.627.866l-3.406,6.812s-.152,1.271,1.118,2.39l4.678,5.389s.66.66.1,2.032l-1.829,4.118s-.763,1.373.101,2.288l.966.56s.914,0,1.373-.916l2.542-6.355s.51-2.187-.508-3.355l-3.356-3.814s-.558-.966-.152-1.78l1.423-2.235.534-.103s-.228,1.627.788,2.237l4.575,3.762s.763.052,1.016-.356l.409-.508s.303-.864-.409-1.525l-3.939-3.507-1.905-4.272Z" fill="#231f20" stroke-width="0"/><path d="M200.108,25.911c0,1.348-1.093,2.441-2.44,2.441s-2.44-1.093-2.44-2.441,1.091-2.44,2.44-2.44,2.44,1.092,2.44,2.44Z" fill="#231f20" stroke-width="0"/><path d="M195.61,28.962h3.458s1.371.306,1.421,1.474c.052,1.17,0,3.712,0,3.712l.023,5.389s-.479.482-.886.699c0,0-.356.165-.458.622l-.356,5.592.052,5.135s-.305,1.22-1.195,1.271h-.549s-.9-.407-1.103-1.678v-7.473s-1.373-1.627-1.831-2.797c-.457-1.17-.457-7.219-.457-7.219,0,0-.051-.661-.61-.203l-3.153,4.422s-.597.268-.94.153c0,0-.725-.533-.496-1.449l5.416-6.94s.813-.927,1.664-.711Z" fill="#231f20" stroke-width="0"/><polygon points="190.532 45.996 201.383 44.222 201.383 35.553 190.532 33.779 179.684 35.553 179.684 44.222 190.532 45.996" fill="#fff" stroke-width="0"/><line x1="190.532" y1="37.326" x2="190.532" y2="45.996" fill="none" stroke="#231f20" stroke-width=".799"/><line x1="201.383" y1="35.553" x2="201.383" y2="44.222" fill="none" stroke="#231f20" stroke-width=".799"/><polyline points="179.684 35.553 190.532 37.326 201.383 35.553 190.532 33.779 179.684 35.553 179.684 44.222" fill="none" stroke="#231f20" stroke-linecap="round" stroke-linejoin="round" stroke-width=".799"/><line x1="179.684" y1="44.222" x2="190.532" y2="45.996" fill="none" stroke="#231f20" stroke-width=".799"/><line x1="201.383" y1="44.222" x2="190.532" y2="45.996" fill="none" stroke="#231f20" stroke-width=".799"/><path d="M205.192,25.938c0,1.348-1.091,2.44-2.44,2.44s-2.44-1.092-2.44-2.44,1.09-2.441,2.44-2.441,2.44,1.093,2.44,2.441Z" fill="#231f20" stroke-width="0"/><path d="M202.218,29.775l2.492-1.728s1.22-.457,1.627.866l3.405,6.812s.153,1.271-1.118,2.39l-4.679,5.389s-.658.66-.1,2.032l1.83,4.118s.763,1.373-.101,2.288l-.966.56s-.916,0-1.373-.916l-2.543-6.355s-.509-2.187.508-3.355l3.355-3.814s.559-.966.153-1.78l-1.424-2.235-.533-.103s.228,1.627-.788,2.237l-4.576,3.762s-.763.052-1.016-.356l-.408-.508s-.303-.864.408-1.525l3.94-3.507,1.905-4.272Z" fill="#231f20" stroke-width="0"/><path d="M183.094,25.911c0,1.348,1.092,2.441,2.44,2.441s2.44-1.093,2.44-2.441-1.091-2.44-2.44-2.44-2.44,1.092-2.44,2.44Z" fill="#231f20" stroke-width="0"/><path d="M187.592,28.962h-3.457s-1.373.306-1.423,1.474c-.051,1.17,0,3.712,0,3.712l-.023,5.389s.48.482.886.699c0,0,.356.165.458.622l.356,5.592-.05,5.135s.303,1.22,1.193,1.271h.548s.902-.407,1.105-1.678v-7.473s1.371-1.627,1.83-2.797c.457-1.17.457-7.219.457-7.219,0,0,.052-.661.61-.203l3.153,4.422s.597.268.941.153c0,0,.722-.533.494-1.449l-5.414-6.94s-.814-.927-1.666-.711Z" fill="#231f20" stroke-width="0"/><rect x="2.227" y="2.227" width="104.241" height="60.874" fill="none" stroke="#939598" stroke-width="2.453"/><rect x="54.203" y="2.227" width="52.265" height="13.103" fill="#939598" stroke="gray" stroke-width="2.113"/><rect x="54.203" y="2.227" width="52.265" height="13.103" fill="none" stroke="#939598" stroke-width="2.453"/><rect x="2.227" y="2.227" width="51.976" height="13.103" fill="#fff" stroke-width="0"/><rect x="2.227" y="2.227" width="51.976" height="13.103" fill="none" stroke="#939598" stroke-width="2.453"/><path d="M58.895,6.899v3.18h1.902v.722h-2.76v-3.902h.858Z" fill="#fff" stroke-width="0"/><path d="M62.136,6.899v3.902h-.858v-3.902h.858Z" fill="#fff" stroke-width="0"/><path d="M65.634,6.899v.721h-1.886v.902h1.634v.667h-1.634v1.612h-.858v-3.902h2.744Z" fill="#fff" stroke-width="0"/><path d="M65.825,7.619v-.721h3.197v.721h-1.169v3.181h-.858v-3.181h-1.169Z" fill="#fff" stroke-width="0"/><path d="M70.328,6.899v3.902h-.858v-3.902h.858Z" fill="#fff" stroke-width="0"/><path d="M71.935,6.899l1.628,2.618h.011v-2.618h.803v3.902h-.858l-1.623-2.612h-.011v2.612h-.803v-3.902h.853Z" fill="#fff" stroke-width="0"/><path d="M77.444,10.77c-.186.079-.374.118-.563.118-.299,0-.567-.053-.806-.156-.238-.104-.44-.247-.604-.429-.164-.182-.289-.396-.377-.642-.087-.246-.131-.511-.131-.796,0-.291.044-.562.131-.811.088-.25.213-.467.377-.653.164-.186.365-.332.604-.437.239-.106.507-.158.806-.158.2,0,.394.03.582.089.188.061.357.149.509.265.151.117.276.261.374.432.098.172.158.369.18.59h-.82c-.051-.218-.149-.383-.295-.492s-.323-.164-.53-.164c-.193,0-.357.038-.492.112s-.244.175-.328.3-.145.268-.183.429c-.038.16-.057.326-.057.497,0,.164.019.323.057.479s.099.294.183.418.193.223.328.298.299.112.492.112c.284,0,.504-.071.659-.216.155-.144.245-.352.271-.626h-.864v-.64h1.639v2.11h-.546l-.087-.443c-.153.196-.323.334-.508.412Z" fill="#fff" stroke-width="0"/><path d="M81.658,6.899v1.497h1.58v-1.497h.858v3.902h-.858v-1.683h-1.58v1.683h-.858v-3.902h.858Z" fill="#fff" stroke-width="0"/><path d="M86.796,6.899l1.459,3.902h-.891l-.295-.869h-1.459l-.306.869h-.864l1.476-3.902h.88ZM86.844,9.292l-.492-1.433h-.011l-.509,1.433h1.011Z" fill="#fff" stroke-width="0"/><path d="M90.435,7.619h-1.929v-.721h3.071v.677l-2.093,2.503h2.148v.722h-3.29v-.677l2.093-2.504Z" fill="#fff" stroke-width="0"/><path d="M94.081,6.899l1.459,3.902h-.891l-.295-.869h-1.459l-.306.869h-.864l1.476-3.902h.88ZM94.13,9.292l-.492-1.433h-.011l-.509,1.433h1.011Z" fill="#fff" stroke-width="0"/><path d="M97.983,6.899c.175,0,.332.028.472.085.14.057.261.134.361.232s.177.212.229.342c.053.13.08.268.08.418,0,.23-.048.429-.145.596-.097.167-.254.295-.473.383v.011c.105.03.193.074.262.134s.126.131.17.213c.044.082.076.172.096.27.02.099.034.197.041.296.003.062.007.135.011.218s.01.17.019.257c.009.088.024.171.044.249.02.079.05.144.09.199h-.858c-.048-.124-.077-.272-.087-.443-.011-.172-.028-.336-.049-.492-.029-.204-.091-.354-.186-.448-.095-.095-.25-.142-.465-.142h-.858v1.525h-.858v-3.902h2.104ZM97.677,8.664c.197,0,.344-.044.443-.131.098-.087.147-.229.147-.426,0-.19-.049-.327-.147-.413-.099-.085-.246-.128-.443-.128h-.94v1.098h.94Z" fill="#fff" stroke-width="0"/><path d="M101.508,6.899c.251,0,.485.04.702.12.217.08.405.2.563.361.158.16.282.36.371.601.089.241.134.523.134.847,0,.284-.036.546-.109.786-.073.241-.183.448-.33.623-.148.175-.332.313-.552.413s-.48.15-.779.15h-1.683v-3.902h1.683ZM101.448,10.079c.124,0,.244-.02.361-.06s.22-.107.312-.199.164-.214.218-.364c.055-.149.082-.331.082-.546,0-.197-.019-.374-.057-.533-.038-.159-.101-.295-.188-.407-.087-.113-.203-.199-.347-.26-.144-.06-.321-.09-.533-.09h-.612v2.46h.765Z" fill="#fff" stroke-width="0"/><path d="M23.57,7.622c-.221-.154-.484-.232-.788-.232-.26,0-.482.048-.667.146-.184.098-.337.228-.456.392-.119.164-.208.352-.264.563-.057.211-.085.43-.085.658,0,.247.028.481.085.703.057.221.145.414.264.578.12.164.273.295.46.392.186.098.41.146.669.146.19,0,.36-.031.508-.094.148-.062.276-.15.383-.262.107-.112.192-.244.252-.398s.097-.321.11-.499h.578c-.057.548-.245.974-.566,1.278-.32.304-.759.456-1.314.456-.337,0-.631-.058-.883-.174s-.461-.274-.627-.478c-.166-.203-.291-.442-.374-.718-.083-.276-.124-.572-.124-.889s.044-.613.134-.892c.089-.277.22-.52.392-.727.172-.208.387-.37.645-.49.257-.12.553-.18.885-.18.227,0,.442.03.645.091s.383.15.542.268c.158.118.29.265.395.442s.174.38.207.612h-.578c-.065-.309-.208-.539-.429-.694Z" fill="#231f20" stroke-width="0"/><path d="M27.109,7.007l1.698,4.345h-.639l-.475-1.309h-1.838l-.487,1.309h-.59l1.692-4.345h.639ZM27.511,9.557l-.724-2.026h-.012l-.736,2.026h1.473Z" fill="#231f20" stroke-width="0"/><path d="M32.209,11.033c-.296.277-.718.417-1.266.417-.56,0-.997-.133-1.311-.399s-.472-.689-.472-1.269v-2.775h.578v2.775c0,.39.103.685.31.886s.505.301.894.301c.369,0,.65-.1.843-.301.193-.201.289-.496.289-.886v-2.775h.578v2.775c0,.557-.148.973-.444,1.251Z" fill="#231f20" stroke-width="0"/><path d="M33.067,7.494v-.487h3.475v.487h-1.448v3.859h-.578v-3.859h-1.448Z" fill="#231f20" stroke-width="0"/><path d="M37.577,7.007v4.345h-.578v-4.345h.578Z" fill="#231f20" stroke-width="0"/><path d="M38.389,8.325c.087-.274.218-.516.392-.727s.392-.379.651-.505c.259-.126.562-.189.907-.189s.647.063.907.189c.259.126.477.294.651.505s.305.453.393.727c.087.274.131.559.131.855s-.044.581-.131.855c-.087.274-.218.516-.393.727s-.392.378-.651.502c-.26.123-.562.186-.907.186s-.647-.062-.907-.186c-.26-.124-.477-.291-.651-.502s-.305-.453-.392-.727c-.087-.273-.131-.559-.131-.855s.044-.581.131-.855ZM38.921,9.828c.057.213.146.405.268.575.122.17.278.307.468.41.191.103.418.155.682.155s.491-.052.681-.155c.191-.103.347-.241.469-.41.122-.171.211-.362.268-.575.057-.213.085-.429.085-.648s-.028-.435-.085-.649c-.057-.213-.146-.405-.268-.575-.122-.171-.278-.308-.469-.411-.19-.103-.418-.155-.681-.155s-.491.052-.682.155c-.19.103-.347.241-.468.411-.122.17-.211.362-.268.575-.057.213-.085.429-.085.649s.028.435.085.648Z" fill="#231f20" stroke-width="0"/><path d="M43.65,7.007l2.288,3.524h.012v-3.524h.548v4.345h-.633l-2.27-3.487h-.012v3.487h-.548v-4.345h.614Z" fill="#231f20" stroke-width="0"/><path d="M8.91,13.383c-.444,0-.804-.359-.804-.803,0-.187.098-.343.169-.493l3.781-7.582c.147-.19.377-.312.634-.312.258,0,.488.122.635.312l3.781,7.582c.087.15.169.306.169.493,0,.445-.36.803-.803.803h-7.561Z" fill="#f79320" fill-rule="evenodd" stroke-width="0"/><path d="M13.259,11.618c0,.314-.254.568-.569.568s-.568-.254-.568-.568.253-.571.568-.571.569.256.569.571" fill="#fff" fill-rule="evenodd" stroke-width="0"/><path d="M12.69,6.861c-.292,0-.528.239-.528.53l.176,2.847c0,.193.158.353.352.353s.352-.159.352-.353l.178-2.847c0-.292-.237-.53-.53-.53" fill="#fff" fill-rule="evenodd" stroke-width="0"/><path d="M11.048,50.75v-.07c-.22.341-.54.556-.991.556-.721,0-1.221-.455-1.221-1.086v-.01c0-.666.516-1.191,1.261-1.191.4,0,.696.135.921.36.266.265.436.656.436,1.356v.01c0,1.111-.591,1.897-1.456,1.897-.455,0-.786-.185-1.081-.43l.23-.306c.285.25.55.375.86.375.676,0,1.041-.706,1.041-1.461ZM10.973,50.104v-.01c0-.445-.365-.795-.891-.795s-.841.385-.841.82v.01c0,.445.351.766.861.766.535,0,.87-.39.87-.791Z" fill="#231f20" stroke-width="0"/><path d="M12.091,50.77v-.01c0-.98.585-1.812,1.486-1.812s1.472.821,1.472,1.802v.01c0,.981-.581,1.812-1.481,1.812-.906,0-1.477-.821-1.477-1.802ZM14.638,50.77v-.01c0-.766-.42-1.451-1.07-1.451-.656,0-1.066.671-1.066,1.441v.01c0,.766.42,1.452,1.076,1.452s1.061-.676,1.061-1.441Z" fill="#231f20" stroke-width="0"/><path d="M17.372,48.858h.385v3.653h-.385v-3.653Z" fill="#231f20" stroke-width="0"/><path d="M19.061,52.016v.496h-.385v-3.653h.385v1.586c.211-.311.516-.576.991-.576.621,0,1.236.49,1.236,1.341v.01c0,.846-.61,1.346-1.236,1.346-.48,0-.791-.26-.991-.551ZM20.893,51.225v-.01c0-.61-.42-1.001-.911-1.001-.48,0-.936.406-.936.996v.01c0,.601.455,1.001.936,1.001.501,0,.911-.371.911-.996Z" fill="#231f20" stroke-width="0"/><path d="M21.805,52.181l.195-.275c.28.21.591.33.896.33.31,0,.535-.16.535-.41v-.01c0-.26-.306-.36-.646-.456-.405-.115-.855-.255-.855-.73v-.01c0-.446.37-.741.881-.741.314,0,.665.11.931.286l-.176.29c-.24-.155-.515-.25-.766-.25-.305,0-.5.16-.5.375v.01c0,.245.32.34.665.445.4.12.831.275.831.741v.01c0,.49-.405.775-.921.775-.37,0-.78-.145-1.071-.38Z" fill="#231f20" stroke-width="0"/><path d="M24.486,51.986h.461v.525h-.461v-.525Z" fill="#231f20" stroke-width="0"/><path d="M27.21,51.075c0-.921.496-1.642,1.387-2.142l.165.255c-.761.485-1.161,1.086-1.161,1.887s.4,1.401,1.161,1.887l-.165.255c-.891-.5-1.387-1.221-1.387-2.142Z" fill="#231f20" stroke-width="0"/><path d="M31.228,51.68h-1.847l-.101-.285,1.982-2.412h.346v2.367h.545v.33h-.545v.831h-.381v-.831ZM31.228,51.35v-1.807l-1.472,1.807h1.472Z" fill="#231f20" stroke-width="0"/><path d="M33.335,49.393l-.66.205-.096-.32.856-.295h.29v3.528h-.391v-3.118Z" fill="#231f20" stroke-width="0"/><path d="M36.206,48.858h.385v2.522l1.396-1.457h.48l-1.086,1.111,1.121,1.477h-.46l-.926-1.206-.526.53v.676h-.385v-3.653Z" fill="#231f20" stroke-width="0"/><path d="M39.045,52.961l.175-.3c.296.215.626.33.996.33.57,0,.941-.315.941-.921v-.305c-.226.3-.541.545-1.017.545-.62,0-1.216-.465-1.216-1.211v-.01c0-.756.601-1.221,1.216-1.221.485,0,.801.24,1.012.521v-.465h.385v2.137c0,.4-.12.706-.33.916-.23.23-.575.345-.986.345-.43,0-.83-.12-1.176-.36ZM41.167,51.095v-.01c0-.531-.461-.876-.951-.876s-.896.34-.896.871v.01c0,.521.415.881.896.881.49,0,.951-.355.951-.876Z" fill="#231f20" stroke-width="0"/><path d="M42.27,52.961c.761-.485,1.161-1.086,1.161-1.887s-.4-1.401-1.161-1.887l.165-.255c.891.5,1.387,1.221,1.387,2.142s-.496,1.642-1.387,2.142l-.165-.255Z" fill="#231f20" stroke-width="0"/><path d="M8.917,54.513h2.023v.288h-1.707v.956h1.526v.288h-1.526v.979h1.727v.288h-2.043v-2.798Z" fill="#231f20" stroke-width="0"/><path d="M11.544,55.244h.308v.348c.136-.204.32-.392.668-.392.336,0,.552.18.663.412.148-.228.368-.412.729-.412.476,0,.768.32.768.832v1.279h-.309v-1.208c0-.399-.199-.624-.535-.624-.312,0-.572.232-.572.64v1.191h-.304v-1.215c0-.388-.204-.616-.531-.616s-.576.272-.576.652v1.179h-.308v-2.067Z" fill="#231f20" stroke-width="0"/><path d="M15.336,55.244h.308v.416c.168-.248.412-.46.792-.46.495,0,.987.392.987,1.071v.008c0,.675-.487,1.075-.987,1.075-.384,0-.632-.208-.792-.44v1.036h-.308v-2.707ZM17.108,56.284v-.008c0-.487-.336-.799-.728-.799-.384,0-.748.324-.748.795v.008c0,.479.364.799.748.799.399,0,.728-.296.728-.795Z" fill="#231f20" stroke-width="0"/><path d="M18.101,56.763v-1.247h-.288v-.272h.288v-.624h.308v.624h.655v.272h-.655v1.207c0,.252.14.344.348.344.104,0,.191-.02.3-.072v.264c-.108.056-.224.088-.372.088-.331,0-.583-.164-.583-.584Z" fill="#231f20" stroke-width="0"/><path d="M21.156,55.244h.328l-.867,2.135c-.176.428-.376.584-.688.584-.172,0-.3-.036-.44-.104l.104-.244c.1.052.191.076.323.076.185,0,.3-.096.424-.388l-.939-2.059h.34l.752,1.723.663-1.723Z" fill="#231f20" stroke-width="0"/><path d="M23.044,56.288v-.008c0-.584.456-1.08,1.06-1.08.392,0,.636.164.827.368l-.203.216c-.164-.172-.349-.312-.628-.312-.42,0-.74.355-.74.799v.008c0,.448.328.803.76.803.264,0,.468-.132.632-.308l.196.184c-.208.231-.456.399-.844.399-.604,0-1.06-.492-1.06-1.071Z" fill="#231f20" stroke-width="0"/><path d="M25.457,54.393h.308v1.211c.136-.224.353-.404.708-.404.5,0,.791.336.791.828v1.283h-.308v-1.208c0-.384-.208-.624-.571-.624-.356,0-.62.26-.62.647v1.184h-.308v-2.918Z" fill="#231f20" stroke-width="0"/><path d="M27.764,56.711v-.008c0-.436.36-.668.884-.668.264,0,.452.036.636.088v-.072c0-.372-.228-.564-.615-.564-.244,0-.437.064-.628.152l-.092-.252c.228-.104.451-.172.751-.172.292,0,.516.076.668.228.14.14.212.34.212.604v1.263h-.296v-.312c-.144.188-.384.356-.747.356-.385,0-.772-.22-.772-.644ZM29.288,56.551v-.2c-.151-.044-.355-.088-.607-.088-.388,0-.604.168-.604.428v.008c0,.26.239.412.52.412.38,0,.691-.232.691-.56Z" fill="#231f20" stroke-width="0"/><path d="M30.065,57.047l.156-.22c.224.168.472.264.715.264.248,0,.429-.128.429-.328v-.008c0-.208-.244-.288-.517-.364-.323-.092-.684-.204-.684-.583v-.008c0-.356.296-.592.704-.592.252,0,.531.088.743.228l-.14.232c-.191-.124-.412-.2-.611-.2-.244,0-.4.128-.4.3v.008c0,.196.256.272.532.356.319.096.663.22.663.591v.008c0,.392-.323.62-.735.62-.296,0-.624-.116-.855-.304Z" fill="#231f20" stroke-width="0"/><path d="M32.056,57.047l.156-.22c.224.168.472.264.715.264.248,0,.428-.128.428-.328v-.008c0-.208-.243-.288-.516-.364-.323-.092-.684-.204-.684-.583v-.008c0-.356.296-.592.704-.592.252,0,.531.088.743.228l-.14.232c-.191-.124-.412-.2-.611-.2-.244,0-.4.128-.4.3v.008c0,.196.256.272.532.356.319.096.663.22.663.591v.008c0,.392-.323.62-.735.62-.296,0-.624-.116-.855-.304Z" fill="#231f20" stroke-width="0"/><path d="M34.228,54.453h.352v.34h-.352v-.34ZM34.249,55.244h.308v2.067h-.308v-2.067Z" fill="#231f20" stroke-width="0"/><path d="M35.1,57.047l.156-.22c.224.168.472.264.715.264.248,0,.429-.128.429-.328v-.008c0-.208-.244-.288-.517-.364-.323-.092-.684-.204-.684-.583v-.008c0-.356.296-.592.704-.592.252,0,.531.088.743.228l-.14.232c-.191-.124-.412-.2-.611-.2-.244,0-.4.128-.4.3v.008c0,.196.256.272.532.356.319.096.663.22.663.591v.008c0,.392-.323.62-.735.62-.296,0-.624-.116-.855-.304Z" fill="#231f20" stroke-width="0"/><polyline points="32.498 46.523 48.433 37.337 48.433 27.098" fill="none" stroke="#231f20" stroke-linejoin="round" stroke-width=".519"/><polyline points="18.376 27.326 34.307 20.84 48.423 27.098 32.498 35.479" fill="none" stroke="#231f20" stroke-linejoin="round" stroke-width=".519"/><polygon points="18.376 27.328 32.496 35.482 32.496 46.52 18.376 38.362 18.376 27.328" fill="#fff" stroke-width="0"/><polygon points="18.376 27.328 32.496 35.482 32.496 46.52 18.376 38.362 18.376 27.328" fill="none" stroke="#231f20" stroke-linejoin="round" stroke-width=".519"/><line x1="18.504" y1="32.965" x2="32.461" y2="41.091" fill="none" stroke="#231f20" stroke-linejoin="round" stroke-width=".519"/><line x1="22.894" y1="40.968" x2="22.894" y2="29.948" fill="none" stroke="#231f20" stroke-linejoin="round" stroke-width=".519"/><line x1="27.434" y1="43.586" x2="27.434" y2="32.595" fill="none" stroke="#231f20" stroke-linejoin="round" stroke-width=".519"/><polyline points="142.217 46.523 158.152 37.337 158.152 27.098" fill="none" stroke="#231f20" stroke-linejoin="round" stroke-width=".519"/><polyline points="128.095 27.326 144.026 20.84 158.143 27.098 142.217 35.479" fill="none" stroke="#231f20" stroke-linejoin="round" stroke-width=".519"/><polygon points="128.096 27.328 142.215 35.482 142.215 46.52 128.096 38.362 128.096 27.328" fill="#fff" stroke-width="0"/><polygon points="128.096 27.328 142.215 35.482 142.215 46.52 128.096 38.362 128.096 27.328" fill="none" stroke="#231f20" stroke-linejoin="round" stroke-width=".519"/><line x1="128.224" y1="32.965" x2="142.181" y2="41.091" fill="none" stroke="#231f20" stroke-linejoin="round" stroke-width=".519"/><line x1="132.613" y1="40.968" x2="132.613" y2="29.948" fill="none" stroke="#231f20" stroke-linejoin="round" stroke-width=".519"/><line x1="137.153" y1="43.586" x2="137.153" y2="32.595" fill="none" stroke="#231f20" stroke-linejoin="round" stroke-width=".519"/><rect x="73.027" y="35.569" width="14.921" height="6.424" fill="#fff" stroke-width="0"/><path d="M72.843,42.755v-7.947h15.45v7.947h-15.45Z" fill="none" fill-rule="evenodd" stroke="#221f1f" stroke-linecap="round" stroke-linejoin="round"/><path d="M72.118,26.566c0,1.277-1.035,2.31-2.313,2.31s-2.311-1.033-2.311-2.31,1.035-2.312,2.311-2.312,2.313,1.035,2.313,2.312Z" fill="#221f1f" fill-rule="evenodd" stroke-width="0"/><path d="M65.926,29.483c.529-.925,1.833-1.4,2.592-.836l1.974,1.344,1.774,4.308,3.45,3.247c.451.452.451,1.182,0,1.632-.45.452-1.182.452-1.635,0l-4.351-3.61-.508-1.775-1.52,3.297,3.804,4.816c.546.69.398,1.682.252,2.032l-2.623,6.601c-.291.701-1.1,1.034-1.802.741-.702-.293-1.036-1.098-.742-1.801l2.077-5.395c.147-.395-.073-.979-.35-1.288l-4.674-5.45c-.694-.694-.772-1.798-.278-2.788l2.559-5.074" fill="#221f1f" fill-rule="evenodd" stroke-width="0"/><path d="M88.858,26.566c0,1.277,1.035,2.31,2.311,2.31s2.312-1.033,2.312-2.31-1.036-2.312-2.312-2.312-2.311,1.035-2.311,2.312Z" fill="#221f1f" fill-rule="evenodd" stroke-width="0"/><path d="M95.05,29.483c-.529-.925-1.833-1.4-2.593-.836l-1.974,1.344-1.774,4.308-3.451,3.247c-.45.452-.45,1.182,0,1.632.452.452,1.184.452,1.635,0l4.353-3.61.507-1.775,1.521,3.297-3.803,4.816c-.546.69-.399,1.682-.255,2.032l2.624,6.601c.292.701,1.1,1.034,1.803.741.702-.293,1.034-1.098.742-1.801l-2.075-5.395c-.15-.395.071-.979.345-1.288l4.677-5.45c.694-.694.773-1.798.279-2.788l-2.559-5.074" fill="#221f1f" fill-rule="evenodd" stroke-width="0"/></svg>