<?xml version="1.0" encoding="UTF-8"?><svg id="a" xmlns="http://www.w3.org/2000/svg" width="4.75in" height="1.5in" viewBox="0 0 342 108"><polygon points="255.299 63.585 269.766 61.221 269.766 49.661 255.299 47.296 240.834 49.661 240.834 61.221 255.299 63.585" fill="#fff" stroke-width="0"/><line x1="255.299" y1="52.026" x2="255.299" y2="63.585" fill="none" stroke="#231f20" stroke-width="1.065"/><rect x="173.607" y="6.227" width="161.998" height="94.603" fill="#fff" stroke-width="0"/><rect x="173.606" y="6.227" width="161.999" height="94.603" fill="none" stroke="#939598" stroke-width="3.813"/><rect x="254.381" y="6.227" width="81.225" height="20.362" fill="#939598" stroke="gray" stroke-width="3.283"/><rect x="254.381" y="6.227" width="81.225" height="20.362" fill="none" stroke="#939598" stroke-width="3.813"/><rect x="173.606" y="6.227" width="80.775" height="20.362" fill="#fff" stroke-width="0"/><rect x="173.606" y="6.227" width="80.775" height="20.362" fill="none" stroke="#939598" stroke-width="3.813"/><path d="M261.673,13.487v4.943h2.956v1.121h-4.289v-6.064h1.333Z" fill="#fff" stroke-width="0"/><path d="M266.71,13.487v6.064h-1.333v-6.064h1.333Z" fill="#fff" stroke-width="0"/><path d="M272.146,13.487v1.12h-2.931v1.402h2.54v1.036h-2.54v2.506h-1.333v-6.064h4.264Z" fill="#fff" stroke-width="0"/><path d="M272.443,14.607v-1.12h4.969v1.12h-1.817v4.944h-1.334v-4.944h-1.817Z" fill="#fff" stroke-width="0"/><path d="M279.441,13.487v6.064h-1.333v-6.064h1.333Z" fill="#fff" stroke-width="0"/><path d="M281.939,13.487l2.531,4.069h.017v-4.069h1.248v6.064h-1.333l-2.522-4.06h-.017v4.06h-1.248v-6.064h1.325Z" fill="#fff" stroke-width="0"/><path d="M290.5,19.504c-.289.122-.581.184-.875.184-.464,0-.882-.082-1.253-.242-.371-.162-.683-.384-.938-.667-.255-.283-.45-.615-.586-.998-.136-.383-.203-.794-.203-1.236,0-.453.068-.873.203-1.261.137-.388.332-.726.586-1.016.255-.288.568-.515.938-.679.371-.165.788-.246,1.253-.246.311,0,.613.046.905.139.292.094.555.231.79.412.235.181.429.406.582.671.152.267.246.573.28.917h-1.274c-.08-.339-.232-.595-.459-.764s-.501-.255-.824-.255c-.3,0-.555.059-.764.175s-.38.272-.51.467-.225.417-.285.667c-.059.249-.089.507-.089.772,0,.255.03.503.089.744s.154.457.285.649.3.347.51.463.464.174.764.174c.442,0,.783-.111,1.024-.336.24-.223.381-.547.42-.972h-1.342v-.994h2.548v3.279h-.849l-.136-.688c-.238.305-.501.519-.79.64Z" fill="#fff" stroke-width="0"/><path d="M297.049,13.487v2.327h2.455v-2.327h1.333v6.064h-1.333v-2.615h-2.455v2.615h-1.333v-6.064h1.333Z" fill="#fff" stroke-width="0"/><path d="M305.033,13.487l2.268,6.064h-1.385l-.459-1.351h-2.268l-.475,1.351h-1.342l2.293-6.064h1.368ZM305.109,17.207l-.764-2.226h-.017l-.79,2.226h1.571Z" fill="#fff" stroke-width="0"/><path d="M310.689,14.607h-2.998v-1.12h4.773v1.053l-3.253,3.89h3.338v1.121h-5.114v-1.053l3.253-3.891Z" fill="#fff" stroke-width="0"/><path d="M316.355,13.487l2.268,6.064h-1.385l-.459-1.351h-2.268l-.475,1.351h-1.342l2.293-6.064h1.368ZM316.431,17.207l-.764-2.226h-.017l-.79,2.226h1.571Z" fill="#fff" stroke-width="0"/><path d="M322.419,13.487c.272,0,.517.043.734.131.218.088.405.208.561.361s.275.329.357.531c.082.202.124.417.124.649,0,.357-.075.666-.225.926-.151.26-.395.458-.735.595v.017c.164.046.3.115.408.208s.195.204.263.332c.068.128.117.268.149.42.031.153.052.306.064.459.005.096.011.209.017.339s.016.264.03.399c.014.137.037.265.068.387.031.122.078.225.14.31h-1.333c-.074-.193-.119-.422-.136-.688-.017-.267-.043-.522-.077-.764-.045-.318-.142-.55-.289-.697-.147-.148-.388-.221-.722-.221h-1.333v2.369h-1.333v-6.064h3.27ZM321.944,16.23c.306,0,.535-.068.688-.204.152-.135.229-.356.229-.662,0-.295-.077-.508-.229-.642-.153-.133-.383-.199-.688-.199h-1.461v1.707h1.461Z" fill="#fff" stroke-width="0"/><path d="M327.897,13.487c.39,0,.754.063,1.091.186.337.125.629.311.875.561.246.249.439.56.577.934.139.374.208.813.208,1.317,0,.441-.056.848-.17,1.222-.113.374-.285.697-.514.968-.23.272-.515.486-.858.642s-.746.233-1.21.233h-2.616v-6.064h2.616ZM327.804,18.429c.193,0,.38-.031.561-.093s.343-.166.484-.31.255-.333.339-.565c.085-.232.128-.514.128-.848,0-.306-.03-.582-.089-.828-.059-.248-.157-.458-.293-.633-.136-.176-.316-.31-.54-.404-.223-.093-.499-.14-.828-.14h-.951v3.822h1.189Z" fill="#fff" stroke-width="0"/><path d="M206.776,14.611c-.344-.24-.752-.36-1.225-.36-.404,0-.749.075-1.036.227-.286.152-.523.355-.709.61-.186.255-.323.547-.411.875-.089.328-.133.669-.133,1.022,0,.384.044.748.133,1.092.088.343.225.643.411.898.186.255.424.458.714.61.29.152.637.227,1.04.227.296,0,.559-.048.79-.147.23-.097.429-.233.596-.407.166-.174.298-.379.392-.619s.151-.499.17-.776h.898c-.088.851-.381,1.513-.88,1.986-.498.472-1.179.709-2.043.709-.523,0-.98-.091-1.372-.27s-.716-.426-.974-.743c-.258-.315-.452-.686-.582-1.115-.129-.429-.193-.889-.193-1.382s.069-.953.208-1.386c.138-.431.342-.808.61-1.129.268-.323.602-.575,1.003-.762.4-.186.859-.279,1.376-.279.353,0,.687.047,1.002.142s.596.233.842.416c.246.184.45.412.614.686s.271.591.322.951h-.899c-.101-.48-.323-.838-.667-1.078Z" fill="#231f20" stroke-width="0"/><path d="M212.276,13.655l2.639,6.753h-.993l-.737-2.034h-2.857l-.757,2.034h-.917l2.63-6.753h.993ZM212.9,17.618l-1.125-3.149h-.019l-1.144,3.149h2.289Z" fill="#231f20" stroke-width="0"/><path d="M220.201,19.912c-.461.431-1.116.648-1.967.648-.87,0-1.55-.207-2.038-.62s-.733-1.07-.733-1.972v-4.312h.899v4.312c0,.606.161,1.064.482,1.377s.785.468,1.39.468c.573,0,1.01-.156,1.31-.468.299-.313.449-.771.449-1.377v-4.312h.898v4.312c0,.865-.23,1.512-.69,1.944Z" fill="#231f20" stroke-width="0"/><path d="M221.535,14.412v-.757h5.4v.757h-2.251v5.996h-.899v-5.996h-2.251Z" fill="#231f20" stroke-width="0"/><path d="M228.543,13.655v6.753h-.898v-6.753h.898Z" fill="#231f20" stroke-width="0"/><path d="M229.805,15.703c.136-.426.339-.803.61-1.13s.609-.589,1.012-.785c.403-.195.873-.293,1.409-.293s1.005.098,1.409.293c.403.195.741.457,1.012.785s.475.704.61,1.13c.135.426.203.869.203,1.329s-.068.903-.203,1.328c-.136.426-.339.803-.61,1.13s-.609.588-1.012.781c-.404.191-.873.288-1.409.288s-1.006-.097-1.409-.288c-.404-.193-.741-.453-1.012-.781s-.474-.704-.61-1.13c-.136-.425-.203-.869-.203-1.328s.068-.903.203-1.329ZM230.633,18.039c.089.332.227.629.417.894.189.264.432.477.728.638.297.161.649.241,1.06.241s.763-.08,1.059-.241c.297-.161.539-.374.729-.638.189-.265.328-.563.416-.894.089-.33.133-.667.133-1.007s-.044-.676-.133-1.008c-.088-.33-.227-.629-.416-.893-.189-.265-.432-.478-.729-.639-.296-.161-.649-.241-1.059-.241s-.763.08-1.06.241c-.296.161-.539.374-.728.639-.189.264-.328.563-.417.893-.088.332-.132.667-.132,1.008s.044.676.132,1.007Z" fill="#231f20" stroke-width="0"/><path d="M237.982,13.655l3.556,5.476h.018v-5.476h.852v6.753h-.984l-3.528-5.42h-.019v5.42h-.851v-6.753h.955Z" fill="#231f20" stroke-width="0"/><path d="M183.992,23.564c-.69,0-1.25-.558-1.25-1.248,0-.291.152-.533.263-.766l5.876-11.784c.229-.296.587-.485.985-.485.401,0,.759.189.987.485l5.876,11.784c.135.233.262.475.262.766,0,.691-.559,1.248-1.248,1.248h-11.751Z" fill="#f79320" fill-rule="evenodd" stroke-width="0"/><path d="M190.752,20.822c0,.487-.395.882-.885.882s-.882-.395-.882-.882.394-.887.882-.887.885.398.885.887" fill="#fff" fill-rule="evenodd" stroke-width="0"/><path d="M189.867,13.429c-.455,0-.821.371-.821.824l.274,4.424c0,.301.245.548.547.548s.547-.247.547-.548l.276-4.424c0-.453-.368-.824-.823-.824" fill="#fff" fill-rule="evenodd" stroke-width="0"/><path d="M183.762,83.902l1.974-1.74c.831-.746,1.134-1.165,1.134-1.709,0-.637-.505-1.041-1.096-1.041-.621,0-1.024.326-1.46.932l-.45-.326c.489-.73,1.002-1.157,1.957-1.157.979,0,1.686.652,1.686,1.538v.016c0,.792-.42,1.281-1.375,2.112l-1.452,1.29h2.882v.559h-3.799v-.474Z" fill="#231f20" stroke-width="0"/><path d="M191.438,83.086h-2.865l-.155-.443,3.075-3.744h.536v3.674h.847v.513h-.847v1.289h-.591v-1.289ZM191.438,82.574v-2.804l-2.283,2.804h2.283Z" fill="#231f20" stroke-width="0"/><path d="M193.816,81.673v-.016c0-1.522.909-2.812,2.307-2.812s2.283,1.273,2.283,2.796v.016c0,1.522-.9,2.812-2.299,2.812s-2.291-1.274-2.291-2.796ZM197.77,81.673v-.016c0-1.188-.652-2.252-1.662-2.252-1.018,0-1.654,1.041-1.654,2.237v.016c0,1.188.652,2.252,1.67,2.252s1.646-1.049,1.646-2.237Z" fill="#231f20" stroke-width="0"/><path d="M202.022,78.706h.598v5.67h-.598v-5.67Z" fill="#231f20" stroke-width="0"/><path d="M204.647,83.606v.769h-.598v-5.67h.598v2.462c.326-.481.801-.893,1.538-.893.963,0,1.918.761,1.918,2.081v.016c0,1.312-.947,2.089-1.918,2.089-.745,0-1.228-.404-1.538-.854ZM207.49,82.379v-.016c0-.947-.652-1.553-1.413-1.553-.746,0-1.452.629-1.452,1.545v.016c0,.932.706,1.553,1.452,1.553.776,0,1.413-.575,1.413-1.545Z" fill="#231f20" stroke-width="0"/><path d="M208.914,83.863l.303-.427c.436.326.917.513,1.391.513.481,0,.831-.249.831-.637v-.016c0-.404-.474-.559-1.002-.707-.629-.179-1.328-.396-1.328-1.134v-.016c0-.691.574-1.149,1.367-1.149.489,0,1.032.171,1.444.443l-.272.451c-.372-.241-.8-.389-1.188-.389-.474,0-.777.249-.777.583v.016c0,.38.497.528,1.033.691.621.186,1.289.427,1.289,1.149v.016c0,.761-.629,1.204-1.429,1.204-.575,0-1.212-.225-1.662-.59Z" fill="#231f20" stroke-width="0"/><path d="M213.079,83.56h.715v.815h-.715v-.815Z" fill="#231f20" stroke-width="0"/><path d="M217.313,82.146c0-1.429.769-2.547,2.151-3.324l.256.396c-1.181.753-1.802,1.686-1.802,2.928s.621,2.175,1.802,2.928l-.256.396c-1.383-.777-2.151-1.895-2.151-3.324Z" fill="#231f20" stroke-width="0"/><path d="M221.587,79.537l-1.025.319-.147-.497,1.328-.458h.45v5.476h-.605v-4.839Z" fill="#231f20" stroke-width="0"/><path d="M223.491,81.673v-.016c0-1.522.909-2.812,2.307-2.812s2.283,1.273,2.283,2.796v.016c0,1.522-.9,2.812-2.299,2.812s-2.291-1.274-2.291-2.796ZM227.444,81.673v-.016c0-1.188-.652-2.252-1.662-2.252-1.018,0-1.654,1.041-1.654,2.237v.016c0,1.188.652,2.252,1.67,2.252s1.646-1.049,1.646-2.237Z" fill="#231f20" stroke-width="0"/><path d="M232.519,81.642v-.109c-.342.528-.839.862-1.537.862-1.119,0-1.896-.707-1.896-1.686v-.016c0-1.033.8-1.848,1.957-1.848.621,0,1.08.209,1.43.559.411.412.676,1.018.676,2.105v.015c0,1.725-.917,2.944-2.261,2.944-.707,0-1.219-.288-1.678-.668l.357-.474c.442.388.854.583,1.336.583,1.049,0,1.615-1.095,1.615-2.268ZM232.402,80.64v-.016c0-.691-.567-1.235-1.383-1.235s-1.305.598-1.305,1.274v.016c0,.691.544,1.188,1.336,1.188.831,0,1.352-.605,1.352-1.227Z" fill="#231f20" stroke-width="0"/><path d="M236.692,78.706h.598v3.915l2.167-2.26h.746l-1.686,1.725,1.739,2.291h-.714l-1.438-1.872-.815.823v1.048h-.598v-5.67Z" fill="#231f20" stroke-width="0"/><path d="M241.105,85.075l.272-.466c.458.334.971.513,1.545.513.886,0,1.46-.489,1.46-1.429v-.474c-.349.466-.838.847-1.576.847-.963,0-1.888-.723-1.888-1.88v-.015c0-1.173.933-1.895,1.888-1.895.753,0,1.242.373,1.569.808v-.723h.598v3.316c0,.622-.187,1.095-.513,1.421-.357.357-.894.536-1.53.536-.668,0-1.289-.187-1.825-.559ZM244.398,82.178v-.016c0-.823-.714-1.359-1.476-1.359s-1.39.528-1.39,1.352v.016c0,.808.645,1.367,1.39,1.367.762,0,1.476-.551,1.476-1.359Z" fill="#231f20" stroke-width="0"/><path d="M246.118,85.075c1.181-.753,1.802-1.686,1.802-2.928s-.621-2.175-1.802-2.928l.257-.396c1.382.777,2.151,1.895,2.151,3.324s-.77,2.547-2.151,3.324l-.257-.396Z" fill="#231f20" stroke-width="0"/><path d="M184.004,87.488h3.124v.453h-2.633v1.553h2.354v.447h-2.354v1.894h-.491v-4.347Z" fill="#231f20" stroke-width="0"/><path d="M187.951,90.618v-1.994h.479v1.875c0,.596.323.969.888.969.547,0,.963-.404.963-1.006v-1.838h.472v3.21h-.472v-.559c-.218.348-.547.627-1.1.627-.775,0-1.229-.521-1.229-1.285Z" fill="#231f20" stroke-width="0"/><path d="M191.874,87.301h.479v4.533h-.479v-4.533Z" fill="#231f20" stroke-width="0"/><path d="M193.508,87.301h.479v4.533h-.479v-4.533Z" fill="#231f20" stroke-width="0"/><path d="M197.503,88.624h.509l-1.348,3.316c-.272.665-.583.907-1.067.907-.268,0-.466-.056-.684-.162l.161-.378c.155.081.299.118.504.118.285,0,.466-.149.658-.602l-1.46-3.198h.528l1.167,2.676,1.031-2.676Z" fill="#231f20" stroke-width="0"/><path d="M198.643,89.717h1.727v.503h-1.727v-.503Z" fill="#231f20" stroke-width="0"/><path d="M201.31,88.624h.479v.646c.261-.385.64-.714,1.229-.714.77,0,1.533.608,1.533,1.664v.013c0,1.049-.757,1.67-1.533,1.67-.597,0-.981-.323-1.229-.683v1.608h-.479v-4.204ZM204.061,90.239v-.012c0-.758-.521-1.242-1.13-1.242-.597,0-1.161.503-1.161,1.236v.013c0,.745.564,1.241,1.161,1.241.621,0,1.13-.459,1.13-1.235Z" fill="#231f20" stroke-width="0"/><path d="M205.238,90.245v-.012c0-.907.708-1.677,1.677-1.677.963,0,1.671.757,1.671,1.664v.013c0,.906-.714,1.676-1.683,1.676-.963,0-1.665-.758-1.665-1.664ZM208.096,90.245v-.012c0-.689-.516-1.255-1.192-1.255-.696,0-1.174.565-1.174,1.242v.013c0,.688.509,1.248,1.186,1.248.696,0,1.181-.559,1.181-1.235Z" fill="#231f20" stroke-width="0"/><path d="M209.453,88.624h.479v.646c.261-.385.64-.714,1.229-.714.77,0,1.534.608,1.534,1.664v.013c0,1.049-.758,1.67-1.534,1.67-.597,0-.981-.323-1.229-.683v1.608h-.479v-4.204ZM212.204,90.239v-.012c0-.758-.521-1.242-1.13-1.242-.597,0-1.162.503-1.162,1.236v.013c0,.745.565,1.241,1.162,1.241.621,0,1.13-.459,1.13-1.235Z" fill="#231f20" stroke-width="0"/><path d="M213.531,90.618v-1.994h.479v1.875c0,.596.322.969.888.969.547,0,.963-.404.963-1.006v-1.838h.472v3.21h-.472v-.559c-.218.348-.547.627-1.1.627-.776,0-1.229-.521-1.229-1.285Z" fill="#231f20" stroke-width="0"/><path d="M217.453,87.301h.479v4.533h-.479v-4.533Z" fill="#231f20" stroke-width="0"/><path d="M218.803,90.903v-.012c0-.677.559-1.037,1.372-1.037.41,0,.702.056.987.137v-.112c0-.578-.354-.876-.956-.876-.379,0-.677.1-.975.236l-.144-.392c.354-.161.702-.267,1.168-.267.453,0,.801.118,1.037.354.218.217.329.528.329.938v1.962h-.46v-.484c-.223.292-.596.553-1.161.553-.596,0-1.198-.342-1.198-1ZM221.169,90.654v-.31c-.236-.068-.553-.136-.944-.136-.603,0-.938.261-.938.664v.012c0,.404.372.64.808.64.59,0,1.074-.36,1.074-.87Z" fill="#231f20" stroke-width="0"/><path d="M222.812,90.984v-1.938h-.447v-.422h.447v-.969h.478v.969h1.019v.422h-1.019v1.875c0,.392.218.534.541.534.161,0,.298-.031.466-.112v.41c-.168.087-.349.136-.578.136-.516,0-.906-.254-.906-.906Z" fill="#231f20" stroke-width="0"/><path d="M224.956,90.239v-.012c0-.925.652-1.67,1.541-1.67.95,0,1.496.757,1.496,1.695,0,.062,0,.099-.006.155h-2.547c.068.695.56,1.086,1.131,1.086.44,0,.751-.18,1.012-.453l.299.267c-.323.36-.715.603-1.323.603-.882,0-1.603-.677-1.603-1.67ZM227.509,90.053c-.05-.584-.385-1.093-1.024-1.093-.56,0-.981.466-1.044,1.093h2.068Z" fill="#231f20" stroke-width="0"/><path d="M228.649,90.239v-.012c0-1.05.764-1.67,1.534-1.67.596,0,.981.323,1.229.683v-1.938h.479v4.533h-.479v-.646c-.261.385-.64.714-1.229.714-.771,0-1.534-.609-1.534-1.664ZM231.432,90.233v-.013c0-.739-.565-1.236-1.161-1.236-.621,0-1.13.459-1.13,1.236v.013c0,.757.521,1.241,1.13,1.241.596,0,1.161-.503,1.161-1.241Z" fill="#231f20" stroke-width="0"/><path d="M234.629,90.245v-.012c0-.907.708-1.677,1.646-1.677.608,0,.987.254,1.285.571l-.316.335c-.255-.267-.541-.484-.976-.484-.651,0-1.148.553-1.148,1.242v.013c0,.695.509,1.248,1.18,1.248.41,0,.727-.205.981-.478l.304.286c-.322.36-.708.621-1.31.621-.938,0-1.646-.764-1.646-1.664Z" fill="#231f20" stroke-width="0"/><path d="M238.377,87.301h.479v1.882c.211-.348.546-.627,1.099-.627.776,0,1.229.521,1.229,1.285v1.993h-.478v-1.875c0-.596-.323-.969-.889-.969-.553,0-.962.404-.962,1.006v1.838h-.479v-4.533Z" fill="#231f20" stroke-width="0"/><path d="M241.965,90.903v-.012c0-.677.559-1.037,1.372-1.037.41,0,.702.056.987.137v-.112c0-.578-.354-.876-.956-.876-.379,0-.677.1-.975.236l-.144-.392c.354-.161.702-.267,1.168-.267.453,0,.801.118,1.037.354.218.217.329.528.329.938v1.962h-.46v-.484c-.223.292-.596.553-1.161.553-.596,0-1.198-.342-1.198-1ZM244.331,90.654v-.31c-.236-.068-.553-.136-.944-.136-.603,0-.938.261-.938.664v.012c0,.404.372.64.808.64.59,0,1.074-.36,1.074-.87Z" fill="#231f20" stroke-width="0"/><path d="M245.538,91.425l.242-.342c.349.261.733.41,1.112.41.385,0,.664-.199.664-.509v-.013c0-.323-.379-.447-.801-.564-.503-.143-1.062-.317-1.062-.907v-.013c0-.553.46-.919,1.094-.919.391,0,.825.137,1.155.354l-.218.36c-.298-.193-.64-.311-.95-.311-.379,0-.621.199-.621.466v.012c0,.304.397.422.826.553.497.149,1.03.341,1.03.918v.013c0,.608-.503.962-1.143.962-.459,0-.969-.18-1.329-.472Z" fill="#231f20" stroke-width="0"/><path d="M248.634,91.425l.242-.342c.349.261.733.41,1.112.41.385,0,.664-.199.664-.509v-.013c0-.323-.379-.447-.801-.564-.503-.143-1.062-.317-1.062-.907v-.013c0-.553.46-.919,1.094-.919.391,0,.825.137,1.155.354l-.218.36c-.298-.193-.64-.311-.95-.311-.379,0-.621.199-.621.466v.012c0,.304.397.422.826.553.497.149,1.03.341,1.03.918v.013c0,.608-.503.962-1.143.962-.459,0-.969-.18-1.329-.472Z" fill="#231f20" stroke-width="0"/><path d="M252.01,87.395h.546v.528h-.546v-.528ZM252.04,88.624h.479v3.21h-.479v-3.21Z" fill="#231f20" stroke-width="0"/><path d="M253.364,91.425l.242-.342c.349.261.733.41,1.112.41.385,0,.664-.199.664-.509v-.013c0-.323-.379-.447-.801-.564-.503-.143-1.062-.317-1.062-.907v-.013c0-.553.46-.919,1.094-.919.391,0,.825.137,1.155.354l-.218.36c-.298-.193-.64-.311-.95-.311-.379,0-.621.199-.621.466v.012c0,.304.397.422.826.553.497.149,1.03.341,1.03.918v.013c0,.608-.503.962-1.143.962-.459,0-.969-.18-1.329-.472Z" fill="#231f20" stroke-width="0"/><path d="M272.212,43.075c0,2.094,1.699,3.791,3.793,3.791s3.791-1.697,3.791-3.791-1.696-3.794-3.791-3.794-3.793,1.699-3.793,3.794Z" fill="#231f20" stroke-width="0"/><path d="M276.834,49.039l-3.872-2.686s-1.897-.71-2.528,1.345l-5.293,10.586s-.236,1.976,1.738,3.714l7.27,8.375s1.025,1.025.155,3.159l-2.842,6.4s-1.187,2.133.158,3.556l1.501.87s1.42,0,2.133-1.423l3.95-9.876s.793-3.398-.789-5.214l-5.216-5.927s-.868-1.501-.236-2.766l2.212-3.474.83-.16s-.355,2.528,1.224,3.476l7.11,5.847s1.185.08,1.579-.553l.635-.79s.47-1.343-.635-2.371l-6.122-5.449-2.961-6.64Z" fill="#231f20" stroke-width="0"/><path d="M307.448,43.034c0,2.094-1.699,3.794-3.791,3.794s-3.793-1.699-3.793-3.794,1.696-3.791,3.793-3.791,3.791,1.697,3.791,3.791Z" fill="#231f20" stroke-width="0"/><path d="M300.457,47.776h5.374s2.131.475,2.208,2.291c.08,1.818,0,5.769,0,5.769l.036,8.375s-.744.749-1.377,1.086c0,0-.554.257-.711.967l-.554,8.69.08,7.98s-.474,1.896-1.857,1.976h-.853s-1.399-.633-1.714-2.608v-11.614s-2.133-2.528-2.846-4.346c-.71-1.818-.71-11.219-.71-11.219,0,0-.079-1.028-.948-.315l-4.9,6.872s-.927.417-1.461.238c0,0-1.127-.829-.771-2.252l8.417-10.785s1.263-1.44,2.586-1.105Z" fill="#231f20" stroke-width="0"/><line x1="309.429" y1="58.018" x2="309.429" y2="71.491" fill="none" stroke="#231f20" stroke-width="1.241"/><polyline points="275.707 58.018 292.567 60.774 309.429 58.018 292.567 55.261 275.707 58.018 275.707 71.491" fill="none" stroke="#231f20" stroke-linecap="round" stroke-linejoin="round" stroke-width="1.241"/><line x1="275.707" y1="71.491" x2="292.567" y2="74.247" fill="none" stroke="#231f20" stroke-width="1.241"/><line x1="309.429" y1="71.491" x2="292.567" y2="74.247" fill="none" stroke="#231f20" stroke-width="1.241"/><path d="M315.349,43.075c0,2.094-1.696,3.791-3.791,3.791s-3.791-1.697-3.791-3.791,1.694-3.794,3.791-3.794,3.791,1.699,3.791,3.794Z" fill="#231f20" stroke-width="0"/><path d="M310.727,49.039l3.872-2.686s1.896-.71,2.528,1.345l5.292,10.586s.238,1.976-1.737,3.714l-7.271,8.375s-1.023,1.025-.155,3.159l2.844,6.4s1.185,2.133-.158,3.556l-1.501.87s-1.423,0-2.133-1.423l-3.951-9.876s-.791-3.398.79-5.214l5.214-5.927s.869-1.501.238-2.766l-2.213-3.474-.829-.16s.354,2.528-1.224,3.476l-7.111,5.847s-1.185.08-1.579-.553l-.634-.79s-.472-1.343.634-2.371l6.123-5.449,2.961-6.64Z" fill="#231f20" stroke-width="0"/><path d="M281.006,43.034c0,2.094,1.697,3.794,3.791,3.794s3.791-1.699,3.791-3.794-1.696-3.791-3.791-3.791-3.791,1.697-3.791,3.791Z" fill="#231f20" stroke-width="0"/><path d="M287.997,47.776h-5.372s-2.133.475-2.212,2.291c-.08,1.818,0,5.769,0,5.769l-.035,8.375s.747.749,1.377,1.086c0,0,.554.257.711.967l.554,8.69-.078,7.98s.472,1.896,1.855,1.976h.852s1.401-.633,1.717-2.608v-11.614s2.131-2.528,2.843-4.346c.71-1.818.71-11.219.71-11.219,0,0,.08-1.028.948-.315l4.9,6.872s.928.417,1.463.238c0,0,1.122-.829.768-2.252l-8.414-10.785s-1.265-1.44-2.589-1.105Z" fill="#231f20" stroke-width="0"/><polyline points="217.48 75.066 242.245 60.791 242.245 44.879" fill="none" stroke="#231f20" stroke-linejoin="round" stroke-width=".807"/><polyline points="195.534 45.233 220.292 35.153 242.231 44.879 217.48 57.904" fill="none" stroke="#231f20" stroke-linejoin="round" stroke-width=".807"/><polygon points="195.535 45.235 217.478 57.909 217.478 75.061 195.535 62.383 195.535 45.235" fill="#fff" stroke-width="0"/><polygon points="195.535 45.235 217.478 57.909 217.478 75.061 195.535 62.383 195.535 45.235" fill="none" stroke="#231f20" stroke-linejoin="round" stroke-width=".807"/><line x1="195.734" y1="53.996" x2="217.424" y2="66.624" fill="none" stroke="#231f20" stroke-linejoin="round" stroke-width=".807"/><line x1="202.555" y1="66.434" x2="202.555" y2="49.308" fill="none" stroke="#231f20" stroke-linejoin="round" stroke-width=".807"/><line x1="209.611" y1="70.502" x2="209.611" y2="53.422" fill="none" stroke="#231f20" stroke-linejoin="round" stroke-width=".807"/><rect x="5.227" y="6.227" width="161.998" height="94.603" fill="none" stroke="#939598" stroke-width="3.813"/><rect x="86.001" y="6.227" width="81.224" height="20.362" fill="#939598" stroke="gray" stroke-width="3.283"/><rect x="86.001" y="6.227" width="81.224" height="20.362" fill="none" stroke="#939598" stroke-width="3.813"/><rect x="5.226" y="6.227" width="80.774" height="20.362" fill="#fff" stroke-width="0"/><rect x="5.226" y="6.227" width="80.774" height="20.362" fill="none" stroke="#939598" stroke-width="3.813"/><path d="M93.293,13.487v4.943h2.956v1.121h-4.289v-6.064h1.333Z" fill="#fff" stroke-width="0"/><path d="M98.329,13.487v6.064h-1.333v-6.064h1.333Z" fill="#fff" stroke-width="0"/><path d="M103.766,13.487v1.12h-2.931v1.402h2.54v1.036h-2.54v2.506h-1.333v-6.064h4.264Z" fill="#fff" stroke-width="0"/><path d="M104.062,14.607v-1.12h4.969v1.12h-1.817v4.944h-1.334v-4.944h-1.817Z" fill="#fff" stroke-width="0"/><path d="M111.061,13.487v6.064h-1.333v-6.064h1.333Z" fill="#fff" stroke-width="0"/><path d="M113.558,13.487l2.531,4.069h.017v-4.069h1.248v6.064h-1.333l-2.522-4.06h-.017v4.06h-1.248v-6.064h1.325Z" fill="#fff" stroke-width="0"/><path d="M122.12,19.504c-.289.122-.581.184-.875.184-.464,0-.882-.082-1.253-.242-.371-.162-.683-.384-.938-.667-.255-.283-.45-.615-.586-.998-.136-.383-.203-.794-.203-1.236,0-.453.068-.873.203-1.261.137-.388.332-.726.586-1.016.255-.288.568-.515.938-.679.371-.165.788-.246,1.253-.246.311,0,.613.046.905.139.292.094.555.231.79.412.235.181.429.406.582.671.152.267.246.573.28.917h-1.274c-.08-.339-.232-.595-.459-.764s-.501-.255-.824-.255c-.3,0-.555.059-.764.175s-.38.272-.51.467-.225.417-.285.667c-.059.249-.089.507-.089.772,0,.255.03.503.089.744s.154.457.285.649.3.347.51.463.464.174.764.174c.442,0,.783-.111,1.024-.336.24-.223.381-.547.42-.972h-1.342v-.994h2.548v3.279h-.849l-.136-.688c-.238.305-.501.519-.79.64Z" fill="#fff" stroke-width="0"/><path d="M128.668,13.487v2.327h2.455v-2.327h1.333v6.064h-1.333v-2.615h-2.455v2.615h-1.333v-6.064h1.333Z" fill="#fff" stroke-width="0"/><path d="M136.652,13.487l2.268,6.064h-1.385l-.459-1.351h-2.268l-.475,1.351h-1.342l2.293-6.064h1.368ZM136.728,17.207l-.764-2.226h-.017l-.79,2.226h1.571Z" fill="#fff" stroke-width="0"/><path d="M142.309,14.607h-2.998v-1.12h4.773v1.053l-3.253,3.89h3.338v1.121h-5.114v-1.053l3.253-3.891Z" fill="#fff" stroke-width="0"/><path d="M147.974,13.487l2.268,6.064h-1.385l-.459-1.351h-2.268l-.475,1.351h-1.342l2.293-6.064h1.368ZM148.05,17.207l-.764-2.226h-.017l-.79,2.226h1.571Z" fill="#fff" stroke-width="0"/><path d="M154.039,13.487c.272,0,.517.043.734.131.218.088.405.208.561.361s.275.329.357.531c.082.202.124.417.124.649,0,.357-.075.666-.225.926-.151.26-.395.458-.735.595v.017c.164.046.3.115.408.208s.195.204.263.332c.068.128.117.268.149.42.031.153.052.306.064.459.005.096.011.209.017.339s.016.264.03.399c.014.137.037.265.068.387.031.122.078.225.14.31h-1.333c-.074-.193-.119-.422-.136-.688-.017-.267-.043-.522-.077-.764-.045-.318-.142-.55-.289-.697-.147-.148-.388-.221-.722-.221h-1.333v2.369h-1.333v-6.064h3.27ZM153.563,16.23c.306,0,.535-.068.688-.204.152-.135.229-.356.229-.662,0-.295-.077-.508-.229-.642-.153-.133-.383-.199-.688-.199h-1.461v1.707h1.461Z" fill="#fff" stroke-width="0"/><path d="M159.516,13.487c.39,0,.754.063,1.091.186.337.125.629.311.875.561.246.249.439.56.577.934.139.374.208.813.208,1.317,0,.441-.056.848-.17,1.222-.113.374-.285.697-.514.968-.23.272-.515.486-.858.642s-.746.233-1.21.233h-2.616v-6.064h2.616ZM159.423,18.43c.193,0,.38-.031.561-.093s.343-.166.484-.31.255-.333.339-.565c.085-.232.128-.514.128-.848,0-.306-.03-.582-.089-.828-.059-.248-.157-.458-.293-.633-.136-.176-.316-.31-.54-.404-.223-.093-.499-.14-.828-.14h-.951v3.822h1.189Z" fill="#fff" stroke-width="0"/><path d="M38.396,14.611c-.344-.24-.752-.36-1.225-.36-.404,0-.749.075-1.036.227-.286.152-.523.355-.709.61-.186.255-.323.547-.411.875-.089.328-.133.669-.133,1.022,0,.384.044.748.133,1.092.088.343.225.643.411.898.186.255.424.458.714.61.29.152.637.227,1.04.227.296,0,.559-.048.79-.147.23-.097.429-.233.596-.407.166-.174.298-.379.392-.619s.151-.499.17-.776h.898c-.088.851-.381,1.513-.88,1.986-.498.472-1.179.709-2.043.709-.523,0-.98-.091-1.372-.27s-.716-.426-.974-.743c-.258-.315-.452-.686-.582-1.115-.129-.429-.193-.889-.193-1.382s.069-.953.208-1.386c.138-.431.342-.808.61-1.129.268-.323.602-.575,1.003-.762.4-.186.859-.279,1.376-.279.353,0,.687.047,1.002.142s.596.233.842.416c.246.184.45.412.614.686s.271.591.322.95h-.899c-.101-.48-.323-.838-.667-1.078Z" fill="#231f20" stroke-width="0"/><path d="M43.896,13.656l2.639,6.753h-.993l-.737-2.034h-2.857l-.757,2.034h-.917l2.63-6.753h.993ZM44.52,17.618l-1.125-3.149h-.019l-1.144,3.149h2.289Z" fill="#231f20" stroke-width="0"/><path d="M51.821,19.912c-.461.431-1.116.648-1.967.648-.87,0-1.55-.207-2.038-.62s-.733-1.07-.733-1.972v-4.312h.899v4.312c0,.606.161,1.064.482,1.377s.785.468,1.39.468c.573,0,1.01-.156,1.31-.468.299-.313.449-.771.449-1.377v-4.312h.898v4.312c0,.865-.23,1.512-.69,1.944Z" fill="#231f20" stroke-width="0"/><path d="M53.155,14.412v-.757h5.4v.757h-2.251v5.996h-.899v-5.996h-2.251Z" fill="#231f20" stroke-width="0"/><path d="M60.163,13.656v6.753h-.898v-6.753h.898Z" fill="#231f20" stroke-width="0"/><path d="M61.425,15.703c.136-.426.339-.803.61-1.13s.609-.589,1.012-.785c.403-.195.873-.293,1.409-.293s1.005.098,1.409.293c.403.195.741.457,1.012.785s.475.704.61,1.13c.135.426.203.869.203,1.329s-.068.903-.203,1.328c-.136.426-.339.803-.61,1.13s-.609.588-1.012.781c-.404.191-.873.288-1.409.288s-1.006-.097-1.409-.288c-.404-.193-.741-.453-1.012-.781s-.474-.704-.61-1.13c-.136-.425-.203-.869-.203-1.328s.068-.903.203-1.329ZM62.252,18.039c.089.332.227.629.417.894.189.264.432.477.728.638.297.161.649.241,1.06.241s.763-.08,1.059-.241c.297-.161.539-.374.729-.638.189-.265.328-.563.416-.894.089-.33.133-.667.133-1.007s-.044-.676-.133-1.008c-.088-.33-.227-.629-.416-.893-.189-.265-.432-.478-.729-.639-.296-.161-.649-.241-1.059-.241s-.763.08-1.06.241c-.296.161-.539.374-.728.639-.189.264-.328.563-.417.893-.088.332-.132.667-.132,1.008s.044.676.132,1.007Z" fill="#231f20" stroke-width="0"/><path d="M69.602,13.656l3.556,5.476h.018v-5.476h.852v6.753h-.984l-3.528-5.42h-.019v5.42h-.851v-6.753h.955Z" fill="#231f20" stroke-width="0"/><path d="M15.612,23.564c-.69,0-1.25-.558-1.25-1.248,0-.291.152-.533.263-.766l5.876-11.784c.229-.296.587-.485.985-.485.401,0,.759.189.987.485l5.876,11.784c.135.233.262.475.262.766,0,.691-.559,1.248-1.248,1.248h-11.751Z" fill="#f79320" fill-rule="evenodd" stroke-width="0"/><path d="M22.372,20.822c0,.487-.395.882-.885.882s-.882-.395-.882-.882.394-.887.882-.887.885.398.885.887" fill="#fff" fill-rule="evenodd" stroke-width="0"/><path d="M21.487,13.429c-.455,0-.821.371-.821.824l.274,4.424c0,.301.245.548.547.548s.547-.247.547-.548l.276-4.424c0-.453-.368-.824-.823-.824" fill="#fff" fill-rule="evenodd" stroke-width="0"/><path d="M18.931,81.639v-.109c-.342.528-.839.862-1.538.862-1.118,0-1.895-.707-1.895-1.686v-.016c0-1.033.8-1.848,1.957-1.848.622,0,1.08.209,1.429.559.412.412.676,1.018.676,2.105v.015c0,1.725-.917,2.944-2.26,2.944-.707,0-1.219-.288-1.677-.668l.357-.474c.443.388.854.583,1.336.583,1.049,0,1.616-1.095,1.616-2.268ZM18.814,80.637v-.016c0-.691-.567-1.235-1.382-1.235s-1.305.598-1.305,1.274v.016c0,.691.544,1.188,1.336,1.188.831,0,1.352-.605,1.352-1.227Z" fill="#231f20" stroke-width="0"/><path d="M20.556,81.67v-.016c0-1.522.909-2.812,2.307-2.812s2.284,1.273,2.284,2.796v.016c0,1.522-.901,2.812-2.299,2.812-1.406,0-2.292-1.274-2.292-2.796ZM24.509,81.67v-.016c0-1.188-.652-2.252-1.662-2.252-1.018,0-1.655,1.041-1.655,2.237v.016c0,1.188.653,2.252,1.67,2.252s1.646-1.049,1.646-2.237Z" fill="#231f20" stroke-width="0"/><path d="M28.761,78.703h.598v5.67h-.598v-5.67Z" fill="#231f20" stroke-width="0"/><path d="M31.387,83.604v.769h-.598v-5.67h.598v2.462c.326-.481.8-.893,1.538-.893.963,0,1.918.761,1.918,2.081v.016c0,1.312-.948,2.089-1.918,2.089-.746,0-1.227-.404-1.538-.854ZM34.229,82.376v-.016c0-.947-.652-1.553-1.414-1.553-.746,0-1.452.629-1.452,1.545v.016c0,.932.707,1.553,1.452,1.553.777,0,1.414-.575,1.414-1.545Z" fill="#231f20" stroke-width="0"/><path d="M35.654,83.86l.303-.427c.435.326.917.513,1.391.513.481,0,.831-.249.831-.637v-.016c0-.404-.474-.559-1.002-.707-.629-.179-1.328-.396-1.328-1.134v-.016c0-.691.575-1.149,1.367-1.149.489,0,1.033.171,1.445.443l-.272.451c-.373-.241-.8-.389-1.188-.389-.474,0-.776.249-.776.583v.016c0,.38.497.528,1.033.691.622.186,1.29.427,1.29,1.149v.016c0,.761-.629,1.204-1.429,1.204-.575,0-1.211-.225-1.662-.59Z" fill="#231f20" stroke-width="0"/><path d="M39.818,83.557h.714v.815h-.714v-.815Z" fill="#231f20" stroke-width="0"/><path d="M44.053,82.144c0-1.429.769-2.547,2.151-3.324l.256.396c-1.181.753-1.802,1.686-1.802,2.928s.622,2.175,1.802,2.928l-.256.396c-1.383-.777-2.151-1.895-2.151-3.324Z" fill="#231f20" stroke-width="0"/><path d="M50.292,83.083h-2.866l-.155-.443,3.076-3.744h.536v3.674h.847v.513h-.847v1.289h-.59v-1.289ZM50.292,82.571v-2.804l-2.284,2.804h2.284Z" fill="#231f20" stroke-width="0"/><path d="M53.571,79.534l-1.025.319-.148-.497,1.328-.458h.451v5.476h-.606v-4.839Z" fill="#231f20" stroke-width="0"/><path d="M58.031,78.703h.598v3.915l2.167-2.26h.746l-1.686,1.725,1.74,2.291h-.714l-1.437-1.872-.815.823v1.048h-.598v-5.67Z" fill="#231f20" stroke-width="0"/><path d="M62.445,85.072l.271-.466c.458.334.971.513,1.546.513.885,0,1.46-.489,1.46-1.429v-.474c-.35.466-.839.847-1.577.847-.963,0-1.887-.723-1.887-1.88v-.015c0-1.173.932-1.895,1.887-1.895.753,0,1.243.373,1.569.808v-.723h.598v3.316c0,.622-.187,1.095-.513,1.421-.357.357-.893.536-1.53.536-.667,0-1.289-.187-1.825-.559ZM65.738,82.175v-.016c0-.823-.715-1.359-1.476-1.359s-1.391.528-1.391,1.352v.016c0,.808.645,1.367,1.391,1.367.761,0,1.476-.551,1.476-1.359Z" fill="#231f20" stroke-width="0"/><path d="M67.457,85.072c1.18-.753,1.802-1.686,1.802-2.928s-.622-2.175-1.802-2.928l.256-.396c1.382.777,2.151,1.895,2.151,3.324s-.769,2.547-2.151,3.324l-.256-.396Z" fill="#231f20" stroke-width="0"/><path d="M15.623,87.485h3.143v.447h-2.652v1.484h2.372v.447h-2.372v1.521h2.683v.447h-3.173v-4.347Z" fill="#231f20" stroke-width="0"/><path d="M19.708,88.621h.478v.541c.211-.317.497-.608,1.037-.608.522,0,.857.279,1.031.64.23-.354.572-.64,1.13-.64.739,0,1.192.497,1.192,1.292v1.987h-.478v-1.875c0-.621-.311-.969-.832-.969-.484,0-.888.36-.888.994v1.85h-.472v-1.888c0-.602-.316-.956-.826-.956s-.895.422-.895,1.012v1.832h-.478v-3.21Z" fill="#231f20" stroke-width="0"/><path d="M25.601,88.621h.478v.646c.261-.385.64-.714,1.229-.714.771,0,1.534.608,1.534,1.664v.013c0,1.049-.758,1.67-1.534,1.67-.596,0-.981-.323-1.229-.683v1.608h-.478v-4.204ZM28.352,90.236v-.012c0-.758-.521-1.242-1.13-1.242-.596,0-1.161.503-1.161,1.236v.013c0,.745.565,1.241,1.161,1.241.621,0,1.13-.459,1.13-1.235Z" fill="#231f20" stroke-width="0"/><path d="M29.896,90.981v-1.938h-.447v-.422h.447v-.969h.479v.969h1.018v.422h-1.018v1.875c0,.392.217.534.54.534.162,0,.298-.031.466-.112v.41c-.167.087-.348.136-.578.136-.516,0-.907-.254-.907-.906Z" fill="#231f20" stroke-width="0"/><path d="M34.643,88.621h.509l-1.348,3.316c-.273.665-.584.907-1.068.907-.267,0-.466-.056-.683-.162l.162-.378c.155.081.298.118.503.118.286,0,.466-.149.658-.602l-1.459-3.198h.528l1.167,2.676,1.031-2.676Z" fill="#231f20" stroke-width="0"/><path d="M37.579,90.242v-.012c0-.907.708-1.677,1.646-1.677.609,0,.988.254,1.286.571l-.317.335c-.254-.267-.54-.484-.975-.484-.652,0-1.149.553-1.149,1.242v.013c0,.695.509,1.248,1.18,1.248.41,0,.727-.205.981-.478l.304.286c-.323.36-.708.621-1.311.621-.938,0-1.646-.764-1.646-1.664Z" fill="#231f20" stroke-width="0"/><path d="M41.327,87.298h.478v1.882c.211-.348.546-.627,1.099-.627.776,0,1.23.521,1.23,1.285v1.993h-.479v-1.875c0-.596-.323-.969-.888-.969-.553,0-.963.404-.963,1.006v1.838h-.478v-4.533Z" fill="#231f20" stroke-width="0"/><path d="M44.915,90.9v-.012c0-.677.559-1.037,1.373-1.037.41,0,.702.056.987.137v-.112c0-.578-.354-.876-.957-.876-.379,0-.677.1-.975.236l-.143-.392c.354-.161.702-.267,1.167-.267.453,0,.801.118,1.037.354.217.217.329.528.329.938v1.962h-.459v-.484c-.224.292-.596.553-1.162.553-.596,0-1.198-.342-1.198-1ZM47.281,90.651v-.31c-.236-.068-.553-.136-.944-.136-.602,0-.938.261-.938.664v.012c0,.404.373.64.807.64.59,0,1.075-.36,1.075-.87Z" fill="#231f20" stroke-width="0"/><path d="M48.489,91.422l.242-.342c.348.261.733.41,1.112.41.385,0,.665-.199.665-.509v-.013c0-.322-.379-.447-.801-.564-.503-.143-1.062-.317-1.062-.907v-.013c0-.553.459-.919,1.093-.919.392,0,.826.137,1.155.354l-.217.36c-.298-.193-.64-.311-.95-.311-.379,0-.621.199-.621.466v.012c0,.304.397.422.826.553.497.149,1.031.341,1.031.918v.013c0,.608-.503.962-1.143.962-.459,0-.969-.18-1.329-.472Z" fill="#231f20" stroke-width="0"/><path d="M51.584,91.422l.242-.342c.348.261.733.41,1.112.41.385,0,.665-.199.665-.509v-.013c0-.322-.379-.447-.801-.564-.503-.143-1.062-.317-1.062-.907v-.013c0-.553.459-.919,1.093-.919.392,0,.826.137,1.155.354l-.217.36c-.298-.193-.64-.311-.95-.311-.379,0-.621.199-.621.466v.012c0,.304.397.422.826.553.497.149,1.031.341,1.031.918v.013c0,.608-.503.962-1.143.962-.459,0-.969-.18-1.329-.472Z" fill="#231f20" stroke-width="0"/><path d="M54.959,87.392h.546v.528h-.546v-.528ZM54.99,88.621h.478v3.21h-.478v-3.21Z" fill="#231f20" stroke-width="0"/><path d="M56.315,91.422l.242-.342c.348.261.733.41,1.112.41.385,0,.665-.199.665-.509v-.013c0-.322-.379-.447-.801-.564-.503-.143-1.062-.317-1.062-.907v-.013c0-.553.459-.919,1.093-.919.392,0,.826.137,1.155.354l-.217.36c-.298-.193-.64-.311-.95-.311-.379,0-.621.199-.621.466v.012c0,.304.397.422.826.553.497.149,1.031.341,1.031.918v.013c0,.608-.503.962-1.143.962-.459,0-.969-.18-1.329-.472Z" fill="#231f20" stroke-width="0"/><polyline points="52.269 75.066 77.034 60.791 77.034 44.879" fill="none" stroke="#231f20" stroke-linejoin="round" stroke-width=".807"/><polyline points="30.323 45.233 55.081 35.153 77.019 44.879 52.269 57.903" fill="none" stroke="#231f20" stroke-linejoin="round" stroke-width=".807"/><polygon points="30.324 45.235 52.267 57.908 52.267 75.061 30.324 62.383 30.324 45.235" fill="#fff" stroke-width="0"/><polygon points="30.324 45.235 52.267 57.908 52.267 75.061 30.324 62.383 30.324 45.235" fill="none" stroke="#231f20" stroke-linejoin="round" stroke-width=".807"/><line x1="30.523" y1="53.996" x2="52.213" y2="66.624" fill="none" stroke="#231f20" stroke-linejoin="round" stroke-width=".807"/><line x1="37.344" y1="66.434" x2="37.344" y2="49.308" fill="none" stroke="#231f20" stroke-linejoin="round" stroke-width=".807"/><line x1="44.4" y1="70.501" x2="44.4" y2="53.421" fill="none" stroke="#231f20" stroke-linejoin="round" stroke-width=".807"/><rect x="115.255" y="58.043" width="23.188" height="9.983" fill="#fff" stroke-width="0"/><path d="M114.968,69.21v-12.35h24.01v12.35h-24.01Z" fill="none" fill-rule="evenodd" stroke="#221f1f" stroke-linecap="round" stroke-linejoin="round" stroke-width="1.554"/><path d="M113.843,44.052c0,1.985-1.609,3.59-3.595,3.59s-3.591-1.605-3.591-3.59,1.608-3.593,3.591-3.593,3.595,1.609,3.595,3.593Z" fill="#221f1f" fill-rule="evenodd" stroke-width="0"/><path d="M104.22,48.585c.822-1.438,2.849-2.175,4.028-1.299l3.068,2.089,2.756,6.696,5.362,5.046c.701.702.701,1.837,0,2.536-.7.703-1.836.703-2.54,0l-6.762-5.61-.789-2.758-2.362,5.124,5.912,7.484c.848,1.073.618,2.614.392,3.158l-4.076,10.258c-.453,1.089-1.709,1.607-2.801,1.152-1.091-.455-1.609-1.706-1.153-2.799l3.227-8.385c.229-.614-.114-1.522-.544-2.002l-7.264-8.47c-1.079-1.079-1.2-2.794-.431-4.333l3.977-7.886" fill="#221f1f" fill-rule="evenodd" stroke-width="0"/><path d="M139.858,44.052c0,1.985,1.608,3.59,3.591,3.59s3.593-1.605,3.593-3.59-1.61-3.593-3.593-3.593-3.591,1.609-3.591,3.593Z" fill="#221f1f" fill-rule="evenodd" stroke-width="0"/><path d="M149.481,48.585c-.822-1.438-2.849-2.175-4.03-1.299l-3.068,2.089-2.757,6.696-5.363,5.046c-.7.702-.7,1.837,0,2.536.702.703,1.84.703,2.54,0l6.765-5.61.788-2.758,2.364,5.124-5.91,7.484c-.848,1.073-.62,2.614-.396,3.158l4.078,10.258c.454,1.089,1.709,1.607,2.802,1.152,1.091-.455,1.607-1.706,1.153-2.799l-3.225-8.385c-.233-.614.11-1.522.537-2.002l7.268-8.47c1.079-1.079,1.202-2.794.434-4.333l-3.978-7.886" fill="#221f1f" fill-rule="evenodd" stroke-width="0"/></svg>