<?xml version="1.0" encoding="UTF-8"?><svg xmlns="http://www.w3.org/2000/svg" width="5.4in" height="2.125in" viewBox="0 0 388.8 153"><g id="a"><path d="M80.637,53.984L5.681,46.446s-1.73-.509-.122-1.277L204.713,4.231l173.557,7.35-60.135,66.285-146.537-14.736c-1.09-.212.38-.853.38-.853,0,0,8.527-3.027,9.414-3.56s-.778-.64-.778-.64l-28.637-2.709s-9.228,3.549-10.825,4.141-3.219.236-3.219.236l-26.65-2.68s-1.663-.552-.097-.999,10.961-3.042,10.961-3.042c0,0,.761-.537-.85-.582s-26.11-2.406-26.11-2.406l-12.616,3.803s-.539.478-1.933.145Z" fill="none" stroke="#231f20" stroke-linecap="round" stroke-linejoin="round" stroke-width=".5"/><path d="M190.871,131.252l101.446,16.56,1.035-.776,19.593,3.298s1.035.453,1.229-1.423l3.96-71.045" fill="none" stroke="#231f20" stroke-linecap="round" stroke-linejoin="round" stroke-width=".5"/><polyline points="5.405 46.492 9.488 100.54 10.148 101.139 21.466 102.923 21.946 103.677 27.341 104.558" fill="none" stroke="#231f20" stroke-linecap="round" stroke-linejoin="round" stroke-width=".5"/><path d="M313.996,150.233l61.116-103.796,3.158-34.856,7.163.38s1.4-.042,1.103,1.612l-3.607,33.395s.127,1.273-2.801.806l-.127-.594-4.498-.509" fill="none" stroke="#231f20" stroke-linecap="round" stroke-linejoin="round" stroke-width=".5"/><ellipse cx="379.839" cy="39.186" rx="2.837" ry="2.429" fill="none" stroke="#231f20" stroke-linecap="round" stroke-linejoin="round" stroke-width=".478"/><path d="M380.913,19.234l2.315.095s1.046.159.983,1.522-1.292,1.426-1.292,1.426l-2.26-.094s-1.237-.159-1.078-1.395c0,0-.127-1.459,1.332-1.554Z" fill="none" stroke="#231f20" stroke-linecap="round" stroke-linejoin="round" stroke-width=".478"/><line x1="311.185" y1="77.216" x2="306.331" y2="147.436" fill="none" stroke="#231f20" stroke-linecap="round" stroke-linejoin="round" stroke-width=".478"/><line x1="32.166" y1="102.793" x2="15.605" y2="100.154" fill="none" stroke="#231f20" stroke-linecap="round" stroke-linejoin="round" stroke-width=".478"/><line x1="314.174" y1="148.911" x2="193.123" y2="129.115" fill="none" stroke="#231f20" stroke-linecap="round" stroke-linejoin="round" stroke-width=".478"/><path d="M288.953,75.331l-4.186,66.603s-.11.993.883,1.103,17.708,2.924,17.708,2.924l1.931-2.151" fill="none" stroke="#231f20" stroke-linecap="round" stroke-linejoin="round" stroke-width=".478"/><path d="M267.45,72.952l-3.523,64.854s-.643,1.928.964,2.089,16.872,2.571,16.872,2.571l2.33-1.607" fill="none" stroke="#231f20" stroke-linecap="round" stroke-linejoin="round" stroke-width=".478"/><path d="M247.253,71.176l-3.018,64.216s-.269,1.076,1.13,1.238,15.122,2.368,15.122,2.368c0,0,.916.252,1.507-.269.771-.68,1.642-1.609,1.642-1.609" fill="none" stroke="#231f20" stroke-linecap="round" stroke-linejoin="round" stroke-width=".478"/><path d="M226.68,68.854l-1.977,63.698s-.565.765,1.029,1.021,16.007,2.551,16.007,2.551l2.093-1.791" fill="none" stroke="#231f20" stroke-linecap="round" stroke-linejoin="round" stroke-width=".478"/><path d="M306.076,143.521s-.638-.446-.574-1.977l3.398-49.746-.989.942-3.109-.236-2.884,41.617,1.957,2.472.041,5.004s-.148,1.59.878,1.836l1.282.086Z" fill="none" stroke="#231f20" stroke-linecap="round" stroke-linejoin="round" stroke-width=".478"/><polyline points="307.837 147.679 310.75 110.319 315.72 110.975" fill="none" stroke="#231f20" stroke-linecap="round" stroke-linejoin="round" stroke-width=".474"/><polyline points="305.05 92.429 303.68 89.09 303.766 86.779 304.881 86.114 308.646 86.394 307.661 86.993 307.619 89.219 308.603 91.83" fill="none" stroke="#231f20" stroke-linecap="round" stroke-linejoin="round" stroke-width=".478"/><polyline points="304.751 86.222 304.836 78.431 307.405 77.19" fill="none" stroke="#231f20" stroke-linecap="round" stroke-linejoin="round" stroke-width=".478"/><path d="M308.774,86.394l.086-7.277c.257-.128,2.312-1.327,2.312-1.327" fill="none" stroke="#231f20" stroke-linecap="round" stroke-linejoin="round" stroke-width=".478"/><line x1="305.504" y1="78.808" x2="308.329" y2="79.022" fill="none" stroke="#231f20" stroke-linecap="round" stroke-linejoin="round" stroke-width=".478"/><line x1="303.68" y1="89.09" x2="307.476" y2="89.357" fill="none" stroke="#231f20" stroke-linecap="round" stroke-linejoin="round" stroke-width=".478"/><line x1="303.783" y1="86.838" x2="307.578" y2="87.104" fill="none" stroke="#231f20" stroke-linecap="round" stroke-linejoin="round" stroke-width=".478"/><path d="M284.388,140.207s-.638-.446-.574-1.977l2.856-49.04-.989.942-3.109-.236-2.342,40.912,1.957,2.472.041,5.004s-.148,1.59.878,1.836l1.282.086Z" fill="none" stroke="#231f20" stroke-linecap="round" stroke-linejoin="round" stroke-width=".478"/><polyline points="282.819 89.82 281.45 86.481 281.535 84.17 282.651 83.505 286.415 83.785 285.431 84.384 285.388 86.61 286.372 89.221" fill="none" stroke="#231f20" stroke-linecap="round" stroke-linejoin="round" stroke-width=".478"/><polyline points="282.52 83.613 282.616 76.189 285.174 74.581" fill="none" stroke="#231f20" stroke-linecap="round" stroke-linejoin="round" stroke-width=".478"/><path d="M286.544,83.785l.382-6.829c.257-.128,2.016-1.775,2.016-1.775" fill="none" stroke="#231f20" stroke-linecap="round" stroke-linejoin="round" stroke-width=".478"/><line x1="283.284" y1="76.566" x2="286.394" y2="76.861" fill="none" stroke="#231f20" stroke-linecap="round" stroke-linejoin="round" stroke-width=".478"/><line x1="281.45" y1="86.481" x2="285.245" y2="86.748" fill="none" stroke="#231f20" stroke-linecap="round" stroke-linejoin="round" stroke-width=".478"/><line x1="281.552" y1="84.229" x2="285.347" y2="84.495" fill="none" stroke="#231f20" stroke-linecap="round" stroke-linejoin="round" stroke-width=".478"/><path d="M263.726,136.806s-.638-.446-.574-1.977l2.278-48.184-.989.942-3.109-.236-1.765,40.056,1.957,2.472.041,5.004s-.148,1.59.878,1.836l1.282.086Z" fill="none" stroke="#231f20" stroke-linecap="round" stroke-linejoin="round" stroke-width=".478"/><polyline points="261.58 87.276 260.211 83.937 260.296 81.625 261.412 80.961 265.176 81.24 264.192 81.839 264.149 84.065 265.134 86.677" fill="none" stroke="#231f20" stroke-linecap="round" stroke-linejoin="round" stroke-width=".478"/><polyline points="261.281 81.069 261.377 73.879 263.554 72.492" fill="none" stroke="#231f20" stroke-linecap="round" stroke-linejoin="round" stroke-width=".478"/><path d="M265.305,81.24l.382-6.595c.257-.128,1.781-1.52,1.781-1.52" fill="none" stroke="#231f20" stroke-linecap="round" stroke-linejoin="round" stroke-width=".478"/><line x1="262.045" y1="74.256" x2="265.155" y2="74.551" fill="none" stroke="#231f20" stroke-linecap="round" stroke-linejoin="round" stroke-width=".478"/><line x1="260.211" y1="83.937" x2="264.006" y2="84.203" fill="none" stroke="#231f20" stroke-linecap="round" stroke-linejoin="round" stroke-width=".478"/><line x1="260.313" y1="81.684" x2="264.108" y2="81.951" fill="none" stroke="#231f20" stroke-linecap="round" stroke-linejoin="round" stroke-width=".478"/><path d="M243.753,133.725s-.638-.446-.574-1.977l1.858-47.399-.989.942-3.109-.236-1.344,39.271,1.957,2.472.041,5.004s-.148,1.59.878,1.836l1.282.086Z" fill="none" stroke="#231f20" stroke-linecap="round" stroke-linejoin="round" stroke-width=".478"/><polyline points="241.187 84.98 239.817 81.641 239.903 79.329 241.018 78.665 244.783 78.944 243.798 79.543 243.756 81.769 244.74 84.381" fill="none" stroke="#231f20" stroke-linecap="round" stroke-linejoin="round" stroke-width=".478"/><polyline points="240.887 78.773 240.984 71.911 243.239 70.455" fill="none" stroke="#231f20" stroke-linecap="round" stroke-linejoin="round" stroke-width=".478"/><polyline points="244.911 78.944 245.134 72.594 247.334 70.883" fill="none" stroke="#231f20" stroke-linecap="round" stroke-linejoin="round" stroke-width=".478"/><line x1="241.651" y1="72.287" x2="244.37" y2="72.533" fill="none" stroke="#231f20" stroke-linecap="round" stroke-linejoin="round" stroke-width=".478"/><line x1="239.817" y1="81.641" x2="243.612" y2="81.907" fill="none" stroke="#231f20" stroke-linecap="round" stroke-linejoin="round" stroke-width=".478"/><line x1="239.92" y1="79.388" x2="243.715" y2="79.655" fill="none" stroke="#231f20" stroke-linecap="round" stroke-linejoin="round" stroke-width=".478"/><path d="M216.131,129.378s-.638-.446-.574-1.977l.268-45.818-.989.942-3.109-.236.117,38.241,1.957,2.472.17,4.452s-.148,1.59.878,1.836l1.282.086Z" fill="none" stroke="#231f20" stroke-linecap="round" stroke-linejoin="round" stroke-width=".478"/><polyline points="211.975 82.215 210.605 78.876 210.69 76.564 211.806 75.9 215.57 76.179 214.586 76.778 214.543 79.004 215.528 81.616" fill="none" stroke="#231f20" stroke-linecap="round" stroke-linejoin="round" stroke-width=".478"/><polyline points="211.675 76.008 211.771 69.146 214.026 67.69" fill="none" stroke="#231f20" stroke-linecap="round" stroke-linejoin="round" stroke-width=".478"/><polyline points="215.699 76.179 215.921 69.829 218.122 68.117" fill="none" stroke="#231f20" stroke-linecap="round" stroke-linejoin="round" stroke-width=".478"/><line x1="212.439" y1="69.522" x2="215.157" y2="69.768" fill="none" stroke="#231f20" stroke-linecap="round" stroke-linejoin="round" stroke-width=".478"/><line x1="210.605" y1="78.876" x2="214.4" y2="79.142" fill="none" stroke="#231f20" stroke-linecap="round" stroke-linejoin="round" stroke-width=".478"/><line x1="210.707" y1="76.623" x2="214.502" y2="76.889" fill="none" stroke="#231f20" stroke-linecap="round" stroke-linejoin="round" stroke-width=".478"/><path d="M218.262,68.024l-1.912,63.236s2.811,2.5,8.354,1.293" fill="none" stroke="#231f20" stroke-linecap="round" stroke-linejoin="round" stroke-width=".478"/><path d="M196.857,65.981l-1.203,62.136s.169.377,1.545.574,15.657,2.541,15.657,2.541c0,0,.825.314,1.611-.393s1.663-1.461,1.663-1.461" fill="none" stroke="#231f20" stroke-linecap="round" stroke-linejoin="round" stroke-width=".478"/><polyline points="7.337 70.801 10.919 71.134 13.262 101.515" fill="none" stroke="#231f20" stroke-linecap="round" stroke-linejoin="round" stroke-width=".5"/><line x1="12.053" y1="47.253" x2="15.578" y2="102.093" fill="none" stroke="#231f20" stroke-linecap="round" stroke-linejoin="round" stroke-width=".478"/><path d="M109.791,58.183c-.229-1.961-3.227-1.833-3.191-1.904l-21.807-2.165s-1.974.159-1.974,1.869l-.032,9.254" fill="none" stroke="#231f20" stroke-linecap="round" stroke-linejoin="round" stroke-width=".5"/><line x1="80.984" y1="54.254" x2="81.176" y2="73.468" fill="none" stroke="#231f20" stroke-linecap="round" stroke-linejoin="round" stroke-width=".5"/><line x1="52.291" y1="51.165" x2="53.583" y2="94.253" fill="none" stroke="#231f20" stroke-linecap="round" stroke-linejoin="round" stroke-width=".5"/><line x1="38.427" y1="49.942" x2="40.941" y2="99.351" fill="none" stroke="#231f20" stroke-linecap="round" stroke-linejoin="round" stroke-width=".5"/><path d="M25.106,48.514l3.398,51.244s-.272,1.155.884,1.427,4.078.612,4.078.612" fill="none" stroke="#231f20" stroke-linecap="round" stroke-linejoin="round" stroke-width=".5"/><path d="M28.504,99.758s-3.67.204-3.466-5.777l-1.495-1.835-2.175-32.821,2.515.272,2.175,33.025s.204,5.233,2.243,6.117" fill="none" stroke="#231f20" stroke-linecap="round" stroke-linejoin="round" stroke-width=".5"/><path d="M82.793,83.628l-29.424,11.448-25.811,10.042,1.895,29.015s-.065,1.046,1.503,1.242,54.763,10.848,54.763,10.848c0,0,1.372.588,2.483,0s20.977-11.894,20.977-11.894l60.187,10.848s1.242.523,1.438-.719l.327-31.368s-.131-.85-2.157-.98l-115.277-16.534" fill="none" stroke="#231f20" stroke-linecap="round" stroke-linejoin="round" stroke-width=".478"/><polyline points="108.592 103.354 99.922 107.498 86.308 114.006 27.558 105.118" fill="none" stroke="#231f20" stroke-linecap="round" stroke-linejoin="round" stroke-width=".478"/><line x1="34.158" y1="102.896" x2="91.143" y2="111.849" fill="none" stroke="#231f20" stroke-linecap="round" stroke-linejoin="round" stroke-width=".478"/><polyline points="99.629 107.705 110.081 109.198 108.543 109.897" fill="none" stroke="#231f20" stroke-linecap="round" stroke-linejoin="round" stroke-width=".478"/><path d="M119.963,105.314l-9.672,5.097,42.673,6.274s2.549.131,5.881-.915,11.306-3.267,11.306-3.267" fill="none" stroke="#231f20" stroke-linecap="round" stroke-linejoin="round" stroke-width=".478"/><path d="M170.87,123.024l-13.266,4.771s-3.333,1.046-7.777.196l-51.234-8.169s-.457.457-.588-1.372c0,0-.523-7.188-.065-9.672l.915-.261,9.688,1.381-.754.377s-1.319,4.271.069,10.591" fill="none" stroke="#231f20" stroke-linecap="round" stroke-linejoin="round" stroke-width=".478"/><line x1="109.263" y1="134.276" x2="108.952" y2="121.637" fill="none" stroke="#231f20" stroke-linecap="round" stroke-linejoin="round" stroke-width=".478"/><line x1="87.326" y1="146.352" x2="86.308" y2="114.006" fill="none" stroke="#231f20" stroke-linecap="round" stroke-linejoin="round" stroke-width=".478"/><line x1="171.132" y1="113.091" x2="196.014" y2="97.352" fill="none" stroke="#231f20" stroke-linecap="round" stroke-linejoin="round" stroke-width=".478"/><line x1="171.147" y1="145.594" x2="194.386" y2="128.362" fill="none" stroke="#231f20" stroke-linecap="round" stroke-linejoin="round" stroke-width=".478"/><line x1="194.727" y1="98.271" x2="194.522" y2="129.112" fill="none" stroke="#231f20" stroke-linecap="round" stroke-linejoin="round" stroke-width=".478"/><path d="M82.662,76.606l-2.291-.299-.285,4.458s-.379,2.164,1.47,2.418c2.24.309,20.96,2.798,20.96,2.798,0,0,2.513.379,2.703-1.375l.474-4.79-2.75-.237-.379,3.177s-.142,1.138-1.28.854l-18.21-2.324s-.711-.047-.664-1.138l.252-3.542Z" fill="none" stroke="#231f20" stroke-linecap="round" stroke-linejoin="round" stroke-width=".478"/><polyline points="82.662 76.606 84.789 76.547 84.553 81.244" fill="none" stroke="#231f20" stroke-linecap="round" stroke-linejoin="round" stroke-width=".478"/><path d="M105.694,79.816l2.081-.315-.325,4.904s-.059.886-1.625,1.359l-2.127.443" fill="none" stroke="#231f20" stroke-linecap="round" stroke-linejoin="round" stroke-width=".478"/><path d="M142.067,88.751l.156-5.16-2.326.332-.098,3.645c-.076.878.496,1.26.496,1.26l21.262,2.558c1.87-.038,1.718-1.069,1.718-1.069l.229-3.321,2.558.115-.153,4.657c-.344,2.405-2.558,2.29-2.558,2.29,0,0-21.186-2.825-23.285-3.016s-2.405-2.138-2.405-2.138l.066-5.314,1.771.278" fill="none" stroke="#231f20" stroke-linecap="round" stroke-linejoin="round" stroke-width=".478"/><path d="M166.111,87.137l2.53-.18.035,3.567s.106,2.414-1.349,3.124l-3.55.515" fill="none" stroke="#231f20" stroke-linecap="round" stroke-linejoin="round" stroke-width=".478"/><line x1="129.888" y1="59.181" x2="130.68" y2="89.188" fill="none" stroke="#231f20" stroke-linecap="round" stroke-linejoin="round" stroke-width=".478"/><path d="M170.823,64.406c-.055-1.828-2.492-2.215-2.492-2.215l-25.033-2.326s-2.714,0-2.714,2.215v9.581" fill="none" stroke="#231f20" stroke-linecap="round" stroke-linejoin="round" stroke-width=".478"/><line x1="139.032" y1="59.975" x2="139.032" y2="80.191" fill="none" stroke="#231f20" stroke-linecap="round" stroke-linejoin="round" stroke-width=".478"/><polyline points="138.967 83.121 138.895 80.793 139.862 80.041 139.862 78.179" fill="none" stroke="#231f20" stroke-linecap="round" stroke-linejoin="round" stroke-width=".478"/><path d="M85.954,60.612l4.544-4.594,4.947.454s-.808,1.111-.757,2.474c0,0-5.2.101-6.613,3.988,0,0-1.212-2.272-2.12-2.322Z" fill="none" stroke="#231f20" stroke-linecap="round" stroke-linejoin="round" stroke-width=".478"/><path d="M124.17,68.841l-.05-8.027c-.05-.959-.808-1.06-.808-1.06l-15.044-1.262c-.959-.05-.757,1.515-.757,1.515l.505,20.547s0,.909,1.313,1.111,2.827.252,2.827.252" fill="none" stroke="#231f20" stroke-linecap="round" stroke-linejoin="round" stroke-width=".478"/><path d="M96.051,59.047s0-2.07.808-2.524l4.745.505,4.846,6.26-2.777,1.464s-1.969-4.594-7.623-5.705Z" fill="none" stroke="#231f20" stroke-linecap="round" stroke-linejoin="round" stroke-width=".478"/><path d="M88.832,63.792s1.262-3.382,5.957-3.483l.05,2.221c-.352-.034-3.01.145-4.342,2.676l-1.666-1.414Z" fill="none" stroke="#231f20" stroke-linecap="round" stroke-linejoin="round" stroke-width=".478"/><polyline points="120.485 68.083 120.384 62.328 113.215 61.722 109.883 65.408 110.136 75.656 111.903 77.978" fill="none" stroke="#231f20" stroke-linecap="round" stroke-linejoin="round" stroke-width=".478"/><path d="M96.051,60.41s4.19.757,6.512,4.796l-1.565,1.161s-1.464-2.928-4.897-3.685l-.05-2.272Z" fill="none" stroke="#231f20" stroke-linecap="round" stroke-linejoin="round" stroke-width=".478"/><path d="M113.215,70.961l6.765-2.625s2.221-.707,2.676.454l.353,11.409s-.05,1.161-1.01,1.666l-6.714,2.777s-2.12.555-2.878-.505l-.404-11.561s-.151-.959,1.212-1.615Z" fill="none" stroke="#231f20" stroke-linecap="round" stroke-linejoin="round" stroke-width=".478"/><path d="M114.881,83.784l-.303-9.844s-.353-1.918.959-2.272,6.361-2.373,6.361-2.373" fill="none" stroke="#231f20" stroke-linecap="round" stroke-linejoin="round" stroke-width=".478"/><path d="M120.838,71.264s-2.373,6.109.404,9.087" fill="none" stroke="#231f20" stroke-linecap="round" stroke-linejoin="round" stroke-width=".478"/><path d="M118.971,72.122s-2.373,6.109.404,9.087" fill="none" stroke="#231f20" stroke-linecap="round" stroke-linejoin="round" stroke-width=".478"/><path d="M116.951,72.879s-2.373,6.109.404,9.087" fill="none" stroke="#231f20" stroke-linecap="round" stroke-linejoin="round" stroke-width=".478"/><polyline points="123.161 80.654 127.199 81.108 130.43 79.997" fill="none" stroke="#231f20" stroke-linecap="round" stroke-linejoin="round" stroke-width=".478"/><polyline points="122.706 69.295 127.25 69.749 130.127 68.639" fill="none" stroke="#231f20" stroke-linecap="round" stroke-linejoin="round" stroke-width=".478"/><line x1="127.149" y1="70.254" x2="127.25" y2="80.25" fill="none" stroke="#231f20" stroke-linecap="round" stroke-linejoin="round" stroke-width=".478"/><line x1="107.41" y1="86.055" x2="138.962" y2="90.851" fill="none" stroke="#231f20" stroke-linecap="round" stroke-linejoin="round" stroke-width=".478"/><path d="M84.894,73.939c0,.757.959,1.363.959,1.363,1.06-1.111,4.291-2.827,4.291-2.827-1.262-3.281-.454-6.209-.454-6.209l-2.777-2.322c-.404-1.363-1.969-2.019-1.969-2.019,0,0-1.313,1.01-1.161,3.079" fill="none" stroke="#231f20" stroke-linecap="round" stroke-linejoin="round" stroke-width=".478"/><path d="M118.917,83.233l3.484.354s1.772,0,2.185-1.004v-1.713" fill="none" stroke="#231f20" stroke-linecap="round" stroke-linejoin="round" stroke-width=".478"/><path d="M182.896,91.142c1.142.148,1.88.244,1.88.244,0,0,2.224-.389,2.224-2.446" fill="none" stroke="#231f20" stroke-linecap="round" stroke-linejoin="round" stroke-width=".478"/><path d="M187.223,76.225v-8.701c0-1.333-1.489-1.176-1.489-1.176l-15.286-1.411c-2.016.044-1.725,2.195-1.725,2.195l-.069,21.587s.445.778,1.89.889c.565.043,2.865.325,5.457.652" fill="none" stroke="#231f20" stroke-linecap="round" stroke-linejoin="round" stroke-width=".478"/><path d="M176.326,91.72v-11.785s-.056-1.001,1.279-1.612,6.449-3.28,6.449-3.28c0,0,2.279-.278,2.279,1.112l-.056,12.341s.334.778-.445,1.167-5.948,3.224-5.948,3.224c0,0-3.002.945-3.558-1.167Z" fill="none" stroke="#231f20" stroke-linecap="round" stroke-linejoin="round" stroke-width=".478"/><path d="M179.328,91.887v-10.229s-.304-1.665,1.056-2.39c1.668-.889,4.67-2.39,4.67-2.39" fill="none" stroke="#231f20" stroke-linecap="round" stroke-linejoin="round" stroke-width=".478"/><path d="M184.943,78.378s-2.446,7.171.111,9.784" fill="none" stroke="#231f20" stroke-linecap="round" stroke-linejoin="round" stroke-width=".478"/><path d="M183.386,79.212s-2.446,7.171.111,9.784" fill="none" stroke="#231f20" stroke-linecap="round" stroke-linejoin="round" stroke-width=".478"/><path d="M181.774,80.101s-2.446,7.171.111,9.784" fill="none" stroke="#231f20" stroke-linecap="round" stroke-linejoin="round" stroke-width=".478"/><polyline points="186.277 88.496 190.78 88.829 193.837 87.495" fill="none" stroke="#231f20" stroke-linecap="round" stroke-linejoin="round" stroke-width=".478"/><polyline points="194.226 65.592 193.893 93.277 196.172 93.555" fill="none" stroke="#231f20" stroke-linecap="round" stroke-linejoin="round" stroke-width=".478"/><path d="M183.386,75.154l-.056-3.725s0-2.224-1.668-2.557l-6.393-.5-3.502,3.058v11.563l4.225,5.003" fill="none" stroke="#231f20" stroke-linecap="round" stroke-linejoin="round" stroke-width=".478"/><polyline points="186.444 76.544 191.169 77.099 194.06 75.432" fill="none" stroke="#231f20" stroke-linecap="round" stroke-linejoin="round" stroke-width=".478"/><line x1="190.947" y1="87.773" x2="190.947" y2="77.822" fill="none" stroke="#231f20" stroke-linecap="round" stroke-linejoin="round" stroke-width=".478"/><path d="M193.162,75.543l.119-7.894s.167-1.946-2.502-2.446" fill="none" stroke="#231f20" stroke-linecap="round" stroke-linejoin="round" stroke-width=".478"/><polyline points="168.321 93.555 192.837 97.057 192.969 88.329" fill="none" stroke="#231f20" stroke-linecap="round" stroke-linejoin="round" stroke-width=".478"/><path d="M81.682,70.785c-.976-6.11,3.182-5.771,3.182-5.771v1.315" fill="none" stroke="#231f20" stroke-linecap="round" stroke-linejoin="round" stroke-width=".478"/><path d="M82.403,70.87s-.509-3.904,1.909-4.413c0,0,2.249-.552,1.358,4.752l-.679.636v1.4l-.849.891v2.079" fill="none" stroke="#231f20" stroke-linecap="round" stroke-linejoin="round" stroke-width=".478"/><polyline points="81.257 76.174 81.257 73.84 81.894 73.034 81.851 71.464 82.7 71.506 82.7 73.501 82.063 74.264 82.063 76.513" fill="none" stroke="#231f20" stroke-linecap="round" stroke-linejoin="round" stroke-width=".478"/><ellipse cx="84.058" cy="69.257" rx="1.528" ry=".679" transform="translate(9.771 148.905) rotate(-86.481)" fill="none" stroke="#231f20" stroke-linecap="round" stroke-linejoin="round" stroke-width=".478"/><ellipse cx="106.429" cy="71.509" rx="1.528" ry=".679" transform="translate(28.521 173.348) rotate(-86.481)" fill="none" stroke="#231f20" stroke-linecap="round" stroke-linejoin="round" stroke-width=".478"/><line x1="82.12" y1="74.378" x2="84.199" y2="74.251" fill="none" stroke="#231f20" stroke-linecap="round" stroke-linejoin="round" stroke-width=".478"/><line x1="82.81" y1="73.469" x2="84.797" y2="73.355" fill="none" stroke="#231f20" stroke-linecap="round" stroke-linejoin="round" stroke-width=".478"/><path d="M107.404,64.363l-5.875,3.161s1.34,2.508.241,6.356l1.924,1.615" fill="none" stroke="#231f20" stroke-linecap="round" stroke-linejoin="round" stroke-width=".478"/><path d="M107.473,67.558s-2.577.79-2.68,4.295c0,0-.309,3.161,2.921,3.264" fill="none" stroke="#231f20" stroke-linecap="round" stroke-linejoin="round" stroke-width=".478"/><path d="M104.381,73.64l-.996-.034s-.206-4.089,2.405-5.257" fill="none" stroke="#231f20" stroke-linecap="round" stroke-linejoin="round" stroke-width=".478"/><polyline points="103.757 73.891 103.816 76.498 104.112 76.913 104.112 79.284" fill="none" stroke="#231f20" stroke-linecap="round" stroke-linejoin="round" stroke-width=".478"/><polyline points="104.438 73.98 104.438 75.965 105.031 76.558 105.031 79.639" fill="none" stroke="#231f20" stroke-linecap="round" stroke-linejoin="round" stroke-width=".478"/><polyline points="106.631 74.987 106.631 75.847 107.046 76.647 107.046 79.491" fill="none" stroke="#231f20" stroke-linecap="round" stroke-linejoin="round" stroke-width=".478"/><path d="M90.618,73.746s1.852,2.704,4.816,3.778v2.26s-3.075-.778-6.26-4.964l1.445-1.074Z" fill="none" stroke="#231f20" stroke-linecap="round" stroke-linejoin="round" stroke-width=".478"/><path d="M96.738,77.672s2.14.148,4.4-2.519l1.667,1.334s-.704,2.889-5.956,3.408l-.111-2.223Z" fill="none" stroke="#231f20" stroke-linecap="round" stroke-linejoin="round" stroke-width=".478"/><polyline points="21.282 59.637 20.308 57.088 20.384 55.329 21.197 54.828 23.925 55.058 23.208 55.51 23.163 57.205 23.862 59.198" fill="none" stroke="#231f20" stroke-linecap="round" stroke-linejoin="round" stroke-width=".355"/><polyline points="21.101 54.909 21.211 49.685 23.586 48.554" fill="none" stroke="#231f20" stroke-linecap="round" stroke-linejoin="round" stroke-width=".355"/><line x1="21.693" y1="49.975" x2="23.663" y2="50.175" fill="none" stroke="#231f20" stroke-linecap="round" stroke-linejoin="round" stroke-width=".355"/><line x1="20.308" y1="57.088" x2="23.059" y2="57.309" fill="none" stroke="#231f20" stroke-linecap="round" stroke-linejoin="round" stroke-width=".355"/><line x1="20.396" y1="55.373" x2="23.146" y2="55.594" fill="none" stroke="#231f20" stroke-linecap="round" stroke-linejoin="round" stroke-width=".355"/><polyline points="25.117 49.559 24.075 50.086 23.925 55.058" fill="none" stroke="#231f20" stroke-linecap="round" stroke-linejoin="round" stroke-width=".355"/><line x1="23.883" y1="59.597" x2="25.811" y2="58.453" fill="none" stroke="#231f20" stroke-linecap="round" stroke-linejoin="round" stroke-width=".355"/><path d="M39.786,100.054c-.935-.657-1.891-2.093-1.785-5.226l-1.495-1.835-2.175-32.821,2.515.272,2.175,33.025s.204,5.233,2.243,6.117" fill="none" stroke="#231f20" stroke-linecap="round" stroke-linejoin="round" stroke-width=".5"/><polyline points="34.245 60.483 33.271 57.934 33.347 56.175 34.16 55.674 36.888 55.905 36.171 56.356 36.126 58.051 36.825 60.044" fill="none" stroke="#231f20" stroke-linecap="round" stroke-linejoin="round" stroke-width=".355"/><polyline points="34.064 55.756 34.174 50.532 36.549 49.4" fill="none" stroke="#231f20" stroke-linecap="round" stroke-linejoin="round" stroke-width=".355"/><line x1="34.656" y1="50.821" x2="36.626" y2="51.021" fill="none" stroke="#231f20" stroke-linecap="round" stroke-linejoin="round" stroke-width=".355"/><line x1="33.271" y1="57.934" x2="36.022" y2="58.155" fill="none" stroke="#231f20" stroke-linecap="round" stroke-linejoin="round" stroke-width=".355"/><line x1="33.359" y1="56.22" x2="36.109" y2="56.441" fill="none" stroke="#231f20" stroke-linecap="round" stroke-linejoin="round" stroke-width=".355"/><polyline points="38.08 50.406 37.039 50.932 36.888 55.905" fill="none" stroke="#231f20" stroke-linecap="round" stroke-linejoin="round" stroke-width=".355"/><line x1="36.846" y1="60.444" x2="38.774" y2="59.299" fill="none" stroke="#231f20" stroke-linecap="round" stroke-linejoin="round" stroke-width=".355"/><polyline points="50.901 95.783 49.932 94.593 48.238 61.772 50.753 62.043 52.446 95.068" fill="none" stroke="#231f20" stroke-linecap="round" stroke-linejoin="round" stroke-width=".5"/><polyline points="48.152 62.083 47.178 59.534 47.254 57.775 48.067 57.274 50.795 57.504 50.078 57.956 50.033 59.651 50.732 61.644" fill="none" stroke="#231f20" stroke-linecap="round" stroke-linejoin="round" stroke-width=".355"/><polyline points="47.971 57.356 48.081 52.131 50.456 51" fill="none" stroke="#231f20" stroke-linecap="round" stroke-linejoin="round" stroke-width=".355"/><line x1="48.563" y1="52.421" x2="50.533" y2="52.621" fill="none" stroke="#231f20" stroke-linecap="round" stroke-linejoin="round" stroke-width=".355"/><line x1="47.178" y1="59.534" x2="49.929" y2="59.755" fill="none" stroke="#231f20" stroke-linecap="round" stroke-linejoin="round" stroke-width=".355"/><line x1="47.266" y1="57.82" x2="50.016" y2="58.04" fill="none" stroke="#231f20" stroke-linecap="round" stroke-linejoin="round" stroke-width=".355"/><polyline points="51.987 52.005 50.945 52.532 50.795 57.504" fill="none" stroke="#231f20" stroke-linecap="round" stroke-linejoin="round" stroke-width=".355"/><line x1="50.753" y1="62.043" x2="52.681" y2="60.899" fill="none" stroke="#231f20" stroke-linecap="round" stroke-linejoin="round" stroke-width=".355"/><polyline points="77.199 85.351 76.525 65.286 79.039 65.558 79.668 84.401" fill="none" stroke="#231f20" stroke-linecap="round" stroke-linejoin="round" stroke-width=".5"/><polyline points="76.439 65.598 75.465 63.049 75.541 61.289 76.353 60.788 79.082 61.019 78.364 61.47 78.32 63.165 79.019 65.158" fill="none" stroke="#231f20" stroke-linecap="round" stroke-linejoin="round" stroke-width=".355"/><polyline points="76.258 60.87 76.368 55.646 78.743 54.515" fill="none" stroke="#231f20" stroke-linecap="round" stroke-linejoin="round" stroke-width=".355"/><line x1="76.85" y1="55.936" x2="78.82" y2="56.135" fill="none" stroke="#231f20" stroke-linecap="round" stroke-linejoin="round" stroke-width=".355"/><line x1="75.465" y1="63.049" x2="78.215" y2="63.27" fill="none" stroke="#231f20" stroke-linecap="round" stroke-linejoin="round" stroke-width=".355"/><line x1="75.552" y1="61.334" x2="78.303" y2="61.555" fill="none" stroke="#231f20" stroke-linecap="round" stroke-linejoin="round" stroke-width=".355"/><polyline points="80.274 55.52 79.232 56.047 79.082 61.019" fill="none" stroke="#231f20" stroke-linecap="round" stroke-linejoin="round" stroke-width=".355"/><line x1="79.039" y1="65.558" x2="80.968" y2="64.413" fill="none" stroke="#231f20" stroke-linecap="round" stroke-linejoin="round" stroke-width=".355"/><path d="M96.6,82.908c-.658-.464-1.161-1.857-1.161-1.857-4.566-.851-7.274-5.765-7.274-5.765l-1.509,1.045,4.605,5.881" fill="none" stroke="#231f20" stroke-linecap="round" stroke-linejoin="round" stroke-width=".478"/><path d="M104.029,77.22c-3.328,4.759-7.313,3.985-7.313,3.985l1.393,1.973" fill="none" stroke="#231f20" stroke-linecap="round" stroke-linejoin="round" stroke-width=".478"/><line x1="84.902" y1="54.065" x2="97.913" y2="50.34" fill="none" stroke="#231f20" stroke-linecap="round" stroke-linejoin="round" stroke-width=".478"/><polygon points="15.135 71.297 19.668 71.823 19.076 62.16 14.573 61.659 15.135 71.297" fill="none" stroke="#231f20" stroke-linecap="round" stroke-linejoin="round" stroke-width=".5"/><polyline points="19.668 71.823 20.759 71.551 20.166 61.571 15.663 61.07 14.573 61.659" fill="none" stroke="#231f20" stroke-linecap="round" stroke-linejoin="round" stroke-width=".5"/><line x1="19.054" y1="62.138" x2="20.144" y2="61.681" fill="none" stroke="#231f20" stroke-linecap="round" stroke-linejoin="round" stroke-width=".5"/><polygon points="16.297 88.337 20.83 88.863 20.237 79.199 15.734 78.699 16.297 88.337" fill="none" stroke="#231f20" stroke-linecap="round" stroke-linejoin="round" stroke-width=".5"/><polyline points="20.83 88.863 21.921 88.591 21.328 78.61 16.825 78.11 15.734 78.699" fill="none" stroke="#231f20" stroke-linecap="round" stroke-linejoin="round" stroke-width=".5"/><line x1="20.215" y1="79.177" x2="21.306" y2="78.721" fill="none" stroke="#231f20" stroke-linecap="round" stroke-linejoin="round" stroke-width=".5"/><polygon points="28.108 73.039 32.642 73.566 32.049 63.902 27.546 63.402 28.108 73.039" fill="none" stroke="#231f20" stroke-linecap="round" stroke-linejoin="round" stroke-width=".5"/><polyline points="32.642 73.566 33.732 73.294 33.139 63.313 28.637 62.813 27.546 63.402" fill="none" stroke="#231f20" stroke-linecap="round" stroke-linejoin="round" stroke-width=".5"/><line x1="32.027" y1="63.88" x2="33.117" y2="63.423" fill="none" stroke="#231f20" stroke-linecap="round" stroke-linejoin="round" stroke-width=".5"/><polygon points="29.27 90.079 33.804 90.606 33.211 80.942 28.708 80.442 29.27 90.079" fill="none" stroke="#231f20" stroke-linecap="round" stroke-linejoin="round" stroke-width=".5"/><polyline points="33.804 90.606 34.894 90.333 34.301 80.353 29.798 79.853 28.708 80.442" fill="none" stroke="#231f20" stroke-linecap="round" stroke-linejoin="round" stroke-width=".5"/><line x1="33.189" y1="80.92" x2="34.279" y2="80.463" fill="none" stroke="#231f20" stroke-linecap="round" stroke-linejoin="round" stroke-width=".5"/><polygon points="41.571 74.8 46.105 75.326 45.512 65.663 41.009 65.162 41.571 74.8" fill="none" stroke="#231f20" stroke-linecap="round" stroke-linejoin="round" stroke-width=".5"/><polyline points="46.105 75.326 47.195 75.054 46.602 65.074 42.099 64.573 41.009 65.162" fill="none" stroke="#231f20" stroke-linecap="round" stroke-linejoin="round" stroke-width=".5"/><line x1="45.49" y1="65.641" x2="46.58" y2="65.184" fill="none" stroke="#231f20" stroke-linecap="round" stroke-linejoin="round" stroke-width=".5"/><polygon points="42.604 91.84 47.138 92.366 46.545 82.702 42.042 82.202 42.604 91.84" fill="none" stroke="#231f20" stroke-linecap="round" stroke-linejoin="round" stroke-width=".5"/><polyline points="47.138 92.366 48.228 92.094 47.635 82.114 43.132 81.613 42.042 82.202" fill="none" stroke="#231f20" stroke-linecap="round" stroke-linejoin="round" stroke-width=".5"/><line x1="46.523" y1="82.68" x2="47.613" y2="82.224" fill="none" stroke="#231f20" stroke-linecap="round" stroke-linejoin="round" stroke-width=".5"/><polygon points="228.965 86.512 236.465 87.427 236.19 99.592 228.873 98.685 228.965 86.512" fill="none" stroke="#231f20" stroke-linecap="round" stroke-linejoin="round" stroke-width=".5"/><polyline points="228.965 86.512 229.816 85.742 237.164 86.619 236.465 87.427" fill="none" stroke="#231f20" stroke-linecap="round" stroke-linejoin="round" stroke-width=".5"/><polyline points="236.19 99.592 237.039 98.518 237.164 86.619" fill="none" stroke="#231f20" stroke-linecap="round" stroke-linejoin="round" stroke-width=".5"/><polygon points="228.183 107.579 235.683 108.494 235.409 120.658 228.092 119.752 228.183 107.579" fill="none" stroke="#231f20" stroke-linecap="round" stroke-linejoin="round" stroke-width=".5"/><polyline points="228.183 107.579 229.034 106.809 236.382 107.686 235.683 108.494" fill="none" stroke="#231f20" stroke-linecap="round" stroke-linejoin="round" stroke-width=".5"/><polyline points="235.409 120.658 236.257 119.585 236.382 107.686" fill="none" stroke="#231f20" stroke-linecap="round" stroke-linejoin="round" stroke-width=".5"/><polygon points="248.93 88.943 256.43 89.857 256.155 102.022 248.838 101.116 248.93 88.943" fill="none" stroke="#231f20" stroke-linecap="round" stroke-linejoin="round" stroke-width=".5"/><polyline points="248.93 88.943 249.781 88.173 257.129 89.05 256.43 89.857" fill="none" stroke="#231f20" stroke-linecap="round" stroke-linejoin="round" stroke-width=".5"/><polyline points="256.155 102.022 257.004 100.949 257.129 89.05" fill="none" stroke="#231f20" stroke-linecap="round" stroke-linejoin="round" stroke-width=".5"/><polygon points="247.959 110.123 255.459 111.037 255.185 123.202 247.868 122.296 247.959 110.123" fill="none" stroke="#231f20" stroke-linecap="round" stroke-linejoin="round" stroke-width=".5"/><polyline points="247.959 110.123 248.81 109.353 256.158 110.229 255.459 111.037" fill="none" stroke="#231f20" stroke-linecap="round" stroke-linejoin="round" stroke-width=".5"/><polyline points="255.185 123.202 256.033 122.129 256.158 110.229" fill="none" stroke="#231f20" stroke-linecap="round" stroke-linejoin="round" stroke-width=".5"/><polygon points="269.255 91.535 276.813 92.457 276.537 104.717 269.162 103.803 269.255 91.535" fill="none" stroke="#231f20" stroke-linecap="round" stroke-linejoin="round" stroke-width=".504"/><polyline points="269.255 91.535 270.112 90.759 277.518 91.643 276.813 92.457" fill="none" stroke="#231f20" stroke-linecap="round" stroke-linejoin="round" stroke-width=".504"/><polyline points="276.537 104.717 277.392 103.635 277.518 91.643" fill="none" stroke="#231f20" stroke-linecap="round" stroke-linejoin="round" stroke-width=".504"/><polygon points="268.06 112.898 275.618 113.82 275.342 126.08 267.968 125.166 268.06 112.898" fill="none" stroke="#231f20" stroke-linecap="round" stroke-linejoin="round" stroke-width=".504"/><polyline points="268.06 112.898 268.917 112.122 276.323 113.006 275.618 113.82" fill="none" stroke="#231f20" stroke-linecap="round" stroke-linejoin="round" stroke-width=".504"/><polyline points="275.342 126.08 276.197 124.998 276.323 113.006" fill="none" stroke="#231f20" stroke-linecap="round" stroke-linejoin="round" stroke-width=".504"/><line x1="142.882" y1="59.777" x2="154.178" y2="55.736" fill="none" stroke="#231f20" stroke-linecap="round" stroke-linejoin="round" stroke-width=".504"/><path d="M144.175,67.107l4.887-5.024,5.846.457s-.411,1.507-.639,2.694c0,0-4.978-.365-7.946,4.293,0,0-1.187-2.375-2.146-2.42Z" fill="none" stroke="#231f20" stroke-linecap="round" stroke-linejoin="round" stroke-width=".504"/><path d="M155.547,65.097l.594-2.512,5.937.594,5.343,6.713-3.151,1.507s-2.694-5.024-8.723-6.302Z" fill="none" stroke="#231f20" stroke-linecap="round" stroke-linejoin="round" stroke-width=".504"/><path d="M147.281,70.121s1.827-3.288,7.033-3.471l.046,2.42s-3.105.046-5.069,2.74l-2.009-1.69Z" fill="none" stroke="#231f20" stroke-linecap="round" stroke-linejoin="round" stroke-width=".504"/><path d="M155.547,69.07l-.046-2.466s5.161,1.142,7.444,5.572l-1.644.868s-1.644-2.786-5.754-3.973Z" fill="none" stroke="#231f20" stroke-linecap="round" stroke-linejoin="round" stroke-width=".504"/><path d="M168.562,70.943l-7.079,3.745s1.279,3.379.183,6.302l2.512,1.918" fill="none" stroke="#231f20" stroke-linecap="round" stroke-linejoin="round" stroke-width=".504"/><path d="M147.372,81.949l1.918-1.005s1.324,2.603,5.024,3.928l.091,2.329s-4.019-.913-7.033-5.252Z" fill="none" stroke="#231f20" stroke-linecap="round" stroke-linejoin="round" stroke-width=".504"/><path d="M155.547,85.146s2.42.365,5.389-2.877l2.009,1.644s-1.827,3.425-6.987,3.516l-.411-2.283Z" fill="none" stroke="#231f20" stroke-linecap="round" stroke-linejoin="round" stroke-width=".504"/><path d="M142.44,81.218l.913,1.187,5.161-2.831c-1.187-3.699-.046-6.531-.046-6.531l-3.471-2.831s-.776-1.827-2.146-2.009c0,0-1.416.639-1.142,3.014" fill="none" stroke="#231f20" stroke-linecap="round" stroke-linejoin="round" stroke-width=".504"/><path d="M155.09,90.58c-.411-.594-.731-1.872-.731-1.872-6.211-1.781-8.22-6.257-8.22-6.257l-2.009,1.233,5.206,6.12" fill="none" stroke="#231f20" stroke-linecap="round" stroke-linejoin="round" stroke-width=".504"/><path d="M164.087,84.643s-3.516,4.658-8.494,4.247c0,0,.32,1.05.685,1.781" fill="none" stroke="#231f20" stroke-linecap="round" stroke-linejoin="round" stroke-width=".504"/><path d="M139.862,83.479v-2.328l.824-.68.107-2.256.026-2.948c0-2.078,1.606-2.078,1.606-2.078,0,0,1.259.409,1.196,2.865,0,0-.031,1.795-.93,2.483v2.113l-.895.752-.072,1.934" fill="none" stroke="#231f20" stroke-linecap="round" stroke-linejoin="round" stroke-width=".478"/><ellipse cx="142.267" cy="75.928" rx=".535" ry="1.354" fill="none" stroke="#231f20" stroke-linecap="round" stroke-linejoin="round" stroke-width=".478"/><path d="M139.843,78.006c-1.574-5.226,1.385-6.675,1.385-6.675h1.543v1.858" fill="none" stroke="#231f20" stroke-linecap="round" stroke-linejoin="round" stroke-width=".504"/><path d="M166.029,75.871s-1.711.254-1.456,5.225v5.779" fill="none" stroke="#231f20" stroke-linecap="round" stroke-linejoin="round" stroke-width=".504"/><polyline points="165.751 87.014 165.751 84.702 166.052 84.424 166.052 83.546 165.428 82.875 165.455 79.971" fill="none" stroke="#231f20" stroke-linecap="round" stroke-linejoin="round" stroke-width=".504"/><path d="M168.548,74.461s-3.142-.7-2.972,5.413c0,0,.267,3.517,2.959,2.644" fill="none" stroke="#231f20" stroke-linecap="round" stroke-linejoin="round" stroke-width=".504"/><ellipse cx="167.54" cy="78.624" rx="1.523" ry=".431" transform="translate(80.99 242.211) rotate(-87.258)" fill="none" stroke="#231f20" stroke-linecap="round" stroke-linejoin="round" stroke-width=".437"/><polyline points="167.623 87.05 167.623 84.973 167.75 84.503 167.75 83.618 167.28 83.221 167.28 82.661" fill="none" stroke="#231f20" stroke-linecap="round" stroke-linejoin="round" stroke-width=".504"/><ellipse cx="144.038" cy="63.22" rx="2.425" ry="2.586" fill="none" stroke="#231f20" stroke-linecap="round" stroke-linejoin="round" stroke-width=".504"/><path d="M161.346,91.225c-.169-.353-.264-.752-.264-1.175,0-1.428,1.086-2.586,2.425-2.586" fill="none" stroke="#231f20" stroke-linecap="round" stroke-linejoin="round" stroke-width=".504"/><ellipse cx="189.929" cy="71.961" rx="1.907" ry="2.126" fill="none" stroke="#231f20" stroke-linecap="round" stroke-linejoin="round" stroke-width=".405"/><ellipse cx="189.929" cy="71.961" rx=".954" ry="1.063" fill="none" stroke="#231f20" stroke-linecap="round" stroke-linejoin="round" stroke-width=".203"/><ellipse cx="127" cy="65.251" rx="1.907" ry="2.126" fill="none" stroke="#231f20" stroke-linecap="round" stroke-linejoin="round" stroke-width=".405"/><ellipse cx="127" cy="65.251" rx=".954" ry="1.063" fill="none" stroke="#231f20" stroke-linecap="round" stroke-linejoin="round" stroke-width=".203"/><path d="M142.215,86.467c.435-.69,1.175-1.145,2.013-1.145,1.339,0,2.425,1.158,2.425,2.586,0,.601-.192,1.154-.514,1.593" fill="none" stroke="#231f20" stroke-linecap="round" stroke-linejoin="round" stroke-width=".504"/><path d="M168.501,67.595c-.445.409-1.029.656-1.668.656" fill="none" stroke="#231f20" stroke-linecap="round" stroke-linejoin="round" stroke-width=".521"/><path d="M164.302,65.606c0-1.461,1.133-2.645,2.53-2.645,1.163,0,2.143.82,2.439,1.938" fill="none" stroke="#231f20" stroke-linecap="round" stroke-linejoin="round" stroke-width=".521"/><ellipse cx="85.861" cy="57.342" rx="2.315" ry="2.463" fill="none" stroke="#231f20" stroke-linecap="round" stroke-linejoin="round" stroke-width=".48"/><path d="M84.799,78.787c.419-.446.998-.721,1.637-.721,1.279,0,2.315,1.103,2.315,2.463,0,.505-.143.975-.388,1.366" fill="none" stroke="#231f20" stroke-linecap="round" stroke-linejoin="round" stroke-width=".48"/><path d="M107.349,61.326c-.385.304-.862.484-1.378.484-.241,0-.473-.039-.692-.112" fill="none" stroke="#231f20" stroke-linecap="round" stroke-linejoin="round" stroke-width=".48"/><path d="M103.656,59.347c0-1.36,1.036-2.463,2.315-2.463.878,0,1.641.52,2.034,1.286" fill="none" stroke="#231f20" stroke-linecap="round" stroke-linejoin="round" stroke-width=".48"/><line x1="371.673" y1="18.42" x2="181.24" y2="8.864" fill="none" stroke="#231f20" stroke-linecap="round" stroke-linejoin="round" stroke-width=".5"/><path d="M226.079,76.746l-1.979-.197c-.344-.039-.615-.372-.604-.741l.054-1.737c.011-.368.302-.638.645-.599l1.979.197" fill="none" stroke="#231f20" stroke-linecap="round" stroke-linejoin="round" stroke-width=".5"/><path d="M225.942,81.142l-1.979-.197c-.344-.039-.615-.372-.604-.741l.054-1.737c.011-.368.302-.638.645-.599l1.979.197" fill="none" stroke="#231f20" stroke-linecap="round" stroke-linejoin="round" stroke-width=".5"/><path d="M225.806,85.537l-1.979-.197c-.344-.039-.615-.372-.604-.741l.054-1.737c.011-.368.302-.638.645-.599l1.979.197" fill="none" stroke="#231f20" stroke-linecap="round" stroke-linejoin="round" stroke-width=".5"/><path d="M225.67,89.933l-1.979-.197c-.344-.039-.615-.372-.604-.741l.054-1.737c.011-.368.302-.638.645-.599l1.979.197" fill="none" stroke="#231f20" stroke-linecap="round" stroke-linejoin="round" stroke-width=".5"/><path d="M225.533,94.328l-1.979-.197c-.344-.039-.615-.372-.604-.741l.054-1.737c.011-.368.302-.638.645-.599l1.979.197" fill="none" stroke="#231f20" stroke-linecap="round" stroke-linejoin="round" stroke-width=".5"/><path d="M225.397,98.724l-1.979-.197c-.344-.039-.615-.372-.604-.741l.054-1.737c.011-.368.302-.638.645-.599l1.979.197" fill="none" stroke="#231f20" stroke-linecap="round" stroke-linejoin="round" stroke-width=".5"/><path d="M225.261,103.119l-1.979-.197c-.344-.039-.615-.372-.604-.741l.054-1.737c.011-.368.302-.638.645-.599l1.979.197" fill="none" stroke="#231f20" stroke-linecap="round" stroke-linejoin="round" stroke-width=".5"/><path d="M225.125,107.515l-1.979-.197c-.344-.039-.615-.372-.604-.741l.054-1.737c.011-.368.302-.638.645-.599l1.979.197" fill="none" stroke="#231f20" stroke-linecap="round" stroke-linejoin="round" stroke-width=".5"/><path d="M224.988,111.91l-1.979-.197c-.344-.039-.615-.372-.604-.741l.054-1.737c.011-.368.302-.638.645-.599l1.979.197" fill="none" stroke="#231f20" stroke-linecap="round" stroke-linejoin="round" stroke-width=".5"/><path d="M224.852,116.306l-1.979-.197c-.344-.039-.615-.372-.604-.741l.054-1.737c.011-.368.302-.638.645-.599l1.979.197" fill="none" stroke="#231f20" stroke-linecap="round" stroke-linejoin="round" stroke-width=".5"/><path d="M224.716,120.701l-1.979-.197c-.344-.039-.615-.372-.604-.741l.054-1.737c.011-.368.302-.638.645-.599l1.979.197" fill="none" stroke="#231f20" stroke-linecap="round" stroke-linejoin="round" stroke-width=".5"/><path d="M224.579,125.097l-1.979-.197c-.344-.039-.615-.372-.604-.741l.054-1.737c.011-.368.302-.638.645-.599l1.979.197" fill="none" stroke="#231f20" stroke-linecap="round" stroke-linejoin="round" stroke-width=".5"/><path d="M224.443,129.492l-1.979-.197c-.344-.039-.615-.372-.604-.741l.054-1.737c.011-.368.302-.638.645-.599l1.979.197" fill="none" stroke="#231f20" stroke-linecap="round" stroke-linejoin="round" stroke-width=".5"/><path d="M216.938,125.588l1.979.197c.344.039.615.372.604.741l-.054,1.737c-.011.368-.302.638-.645.599l-1.979-.197" fill="none" stroke="#231f20" stroke-linecap="round" stroke-linejoin="round" stroke-width=".5"/><path d="M217.074,121.193l1.979.197c.344.039.615.372.604.741l-.054,1.737c-.011.368-.302.638-.645.599l-1.979-.197" fill="none" stroke="#231f20" stroke-linecap="round" stroke-linejoin="round" stroke-width=".5"/><path d="M217.211,116.797l1.979.197c.344.039.615.372.604.741l-.054,1.737c-.011.368-.302.638-.645.599l-1.979-.197" fill="none" stroke="#231f20" stroke-linecap="round" stroke-linejoin="round" stroke-width=".5"/><path d="M217.347,112.402l1.979.197c.344.039.615.372.604.741l-.054,1.737c-.011.368-.302.638-.645.599l-1.979-.197" fill="none" stroke="#231f20" stroke-linecap="round" stroke-linejoin="round" stroke-width=".5"/><path d="M217.483,108.006l1.979.197c.344.039.615.372.604.741l-.054,1.737c-.011.368-.302.638-.645.599l-1.979-.197" fill="none" stroke="#231f20" stroke-linecap="round" stroke-linejoin="round" stroke-width=".5"/><path d="M217.62,103.611l1.979.197c.344.039.615.372.604.741l-.054,1.737c-.011.368-.302.638-.645.599l-1.979-.197" fill="none" stroke="#231f20" stroke-linecap="round" stroke-linejoin="round" stroke-width=".5"/><path d="M217.756,99.215l1.979.197c.344.039.615.372.604.741l-.054,1.737c-.011.368-.302.638-.645.599l-1.979-.197" fill="none" stroke="#231f20" stroke-linecap="round" stroke-linejoin="round" stroke-width=".5"/><path d="M217.892,94.82l1.979.197c.344.039.615.372.604.741l-.054,1.737c-.011.368-.302.638-.645.599l-1.979-.197" fill="none" stroke="#231f20" stroke-linecap="round" stroke-linejoin="round" stroke-width=".5"/><path d="M218.029,90.424l1.979.197c.344.039.615.372.604.741l-.054,1.737c-.011.368-.302.638-.645.599l-1.979-.197" fill="none" stroke="#231f20" stroke-linecap="round" stroke-linejoin="round" stroke-width=".5"/><path d="M218.165,86.029l1.979.197c.344.039.615.372.604.741l-.054,1.737c-.011.368-.302.638-.645.599l-1.979-.197" fill="none" stroke="#231f20" stroke-linecap="round" stroke-linejoin="round" stroke-width=".5"/><path d="M218.301,81.633l1.979.197c.344.039.615.372.604.741l-.054,1.737c-.011.368-.302.638-.645.599l-1.979-.197" fill="none" stroke="#231f20" stroke-linecap="round" stroke-linejoin="round" stroke-width=".5"/><path d="M218.437,77.238l1.979.197c.344.039.615.372.604.741l-.054,1.737c-.011.368-.302.638-.645.599l-1.979-.197" fill="none" stroke="#231f20" stroke-linecap="round" stroke-linejoin="round" stroke-width=".5"/><path d="M218.574,72.842l1.979.197c.344.039.615.372.604.741l-.054,1.737c-.011.368-.302.638-.645.599l-1.979-.197" fill="none" stroke="#231f20" stroke-linecap="round" stroke-linejoin="round" stroke-width=".5"/><polygon points="210.254 99.097 200.485 97.795 200.413 110.82 210.181 112.267 210.254 99.097" fill="none" stroke="#231f20" stroke-linecap="round" stroke-linejoin="round" stroke-width=".5"/><path d="M209.213,107.352l-.899-.035v.97l-1.305-.087v2.118l-4.675-.728v-9.479c.217,0,4.675.656,4.675.656v2.271l1.305.16v1.153l.951.045-.052,2.956Z" fill="none" stroke="#231f20" stroke-linecap="round" stroke-linejoin="round" stroke-width=".5"/><polygon points="210.254 114.355 200.485 113.053 200.413 126.077 210.181 127.524 210.254 114.355" fill="none" stroke="#231f20" stroke-linecap="round" stroke-linejoin="round" stroke-width=".5"/><path d="M209.213,122.609l-.899-.035v.97l-1.305-.087v2.118l-4.675-.728v-9.479c.217,0,4.675.656,4.675.656v2.271l1.305.16v1.153l.951.045-.052,2.956Z" fill="none" stroke="#231f20" stroke-linecap="round" stroke-linejoin="round" stroke-width=".5"/><path d="M210.834,81.83l-8.358-.787s-.836.098-1.082.492v3.441s.393.737,1.032.737,8.948.934,8.948.934" fill="none" stroke="#231f20" stroke-linecap="round" stroke-linejoin="round" stroke-width=".5"/><polyline points="202.549 81.761 202.549 84.612 211.059 85.591" fill="none" stroke="#231f20" stroke-linecap="round" stroke-linejoin="round" stroke-width=".5"/><path d="M203.603,95.671l-1.257-.161c-.356-.046-.648-.402-.648-.793v-6.458c0-.39.292-.673.648-.627l1.257.161c.356.046.648.402.648.793v6.458c0,.39-.292.673-.648.627Z" fill="none" stroke="#231f20" stroke-linecap="round" stroke-linejoin="round" stroke-width=".523"/><line x1="202.976" y1="82.981" x2="211.073" y2="83.832" fill="none" stroke="#231f20" stroke-linecap="round" stroke-linejoin="round" stroke-width=".523"/><path d="M134.046,126.5c1.101.883,1.925,1.989,2.697,3.145,1.51,1.735,3.324,3.303,4.372,5.372-1.845-1.434-3.061-3.462-4.496-5.268-.935-.954-2.119-2.069-2.573-3.249h0Z" fill="#231f20"/><path d="M143.308,133.024c-.884-.637-1.487-1.493-2.039-2.399-1.145-1.32-2.596-2.481-3.272-4.128,1.48,1.029,2.33,2.631,3.398,4.025.72.704,1.673,1.574,1.914,2.502h0Z" fill="#231f20"/><path d="M136.642,134.161c.655-1.029,1.553-1.797,2.505-2.519,1.378-1.41,2.57-3.111,4.315-4.084-1.056,1.72-2.745,2.86-4.202,4.2-.737.87-1.618,1.993-2.618,2.403h0Z" fill="#231f20"/><path d="M134.009,131.003c.281-.714.814-1.175,1.407-1.596.764-.897,1.341-2.078,2.49-2.547-.445,1.186-1.514,1.828-2.371,2.658-.376.621-.798,1.187-1.489,1.519-.021.012-.047-.012-.037-.034h0Z" fill="#231f20"/><path d="M133.925,131.606c.487.099.702.432.878.825.529.443,1.204.682,1.357,1.48.006.021-.015.041-.036.035-.793-.177-1.011-.859-1.437-1.402-.388-.188-.715-.414-.798-.903-.005-.021.015-.04.036-.035h0Z" fill="#231f20"/><path d="M141.642,134.96c-.022-.404.212-.549.508-.666.072-.06.112-.148.141-.246.111-.396.34-.689.818-.765.02-.003.038.013.038.033.002.691-.486.746-.875,1.085-.076.309-.189.561-.592.592-.02.002-.037-.013-.038-.033h0Z" fill="#231f20"/><path d="M32.839,107.334c4.14,4.561,7.534,9.705,11.478,14.421,3.931,4.724,7.744,9.541,11.302,14.559.019.024-.02.055-.039.031-4.035-4.642-7.816-9.485-11.478-14.421-3.582-4.934-8.044-9.558-11.263-14.59h0Z" fill="#231f20"/><path d="M30.001,108.753c3.83,4.188,6.912,8.958,10.545,13.301,3.62,4.351,7.122,8.795,10.369,13.438.018.024-.02.055-.039.031-3.725-4.269-7.194-8.739-10.545-13.301-3.27-4.56-7.421-8.812-10.329-13.469h0Z" fill="#231f20"/><path d="M30.598,114.504c3.01,3.195,5.268,6.965,8.08,10.314,2.778,3.368,5.553,6.822,7.896,10.485-2.939-3.216-5.569-6.767-8.113-10.318-2.449-3.563-5.776-6.823-7.863-10.481h0Z" fill="#231f20"/><path d="M31.345,120.927c2.108,1.918,3.476,4.427,5.39,6.503,1.879,2.094,3.759,4.28,5.208,6.678-2.034-1.945-3.773-4.22-5.421-6.506-1.558-2.297-3.976-4.272-5.177-6.674h0Z" fill="#231f20"/><path d="M31.719,126.305c.923.727,1.56,1.666,2.145,2.654,1.204,1.462,2.717,2.771,3.445,4.55-1.546-1.177-2.448-2.917-3.573-4.45-.756-.791-1.747-1.752-2.017-2.754h0Z" fill="#231f20"/><path d="M37.768,108.081c4.14,4.561,7.534,9.705,11.478,14.421,3.931,4.724,7.744,9.541,11.302,14.559.019.024-.02.055-.039.031-4.035-4.642-7.816-9.485-11.478-14.421-3.582-4.934-8.044-9.558-11.263-14.59h0Z" fill="#231f20"/><path d="M42.773,109.276c4.14,4.561,7.534,9.705,11.478,14.421,3.931,4.724,7.744,9.541,11.302,14.559.019.024-.02.055-.039.031-4.035-4.642-7.816-9.485-11.478-14.421-3.582-4.934-8.044-9.558-11.263-14.59h0Z" fill="#231f20"/><path d="M47.329,109.799c4.14,4.561,7.534,9.705,11.478,14.421,3.931,4.724,7.744,9.541,11.302,14.559.019.024-.02.055-.039.031-4.035-4.642-7.816-9.485-11.478-14.421-3.582-4.934-8.044-9.558-11.263-14.59h0Z" fill="#231f20"/><path d="M59.203,53.517c3.246,3.399,5.747,7.382,8.797,10.936,3.016,3.574,6.03,7.235,8.616,11.11-3.176-3.42-6.045-7.179-8.83-10.94-2.689-3.773-6.254-7.233-8.583-11.106h0Z" fill="#231f20"/><path d="M63.375,54.092c2.585,2.534,4.428,5.656,6.819,8.346,2.356,2.71,4.711,5.508,6.637,8.52-2.513-2.557-4.726-5.451-6.851-8.349-2.032-2.911-4.932-5.503-6.605-8.517h0Z" fill="#231f20"/><path d="M67.62,54.453c1.341,1.327,2.395,2.862,3.394,4.444,1.897,2.458,4.106,4.762,5.527,7.53-2.25-2.169-3.837-4.912-5.657-7.433-1.169-1.39-2.591-2.953-3.264-4.541h0Z" fill="#231f20"/><path d="M71.648,55.028c.727.468,1.168,1.148,1.558,1.88.879,1.03,2.066,1.913,2.466,3.26-1.215-.753-1.794-2.051-2.593-3.159-.565-.53-1.344-1.233-1.431-1.98h0Z" fill="#231f20"/><path d="M56.254,54.884c3.773,4.058,6.802,8.701,10.38,12.914,3.565,4.222,7.012,8.537,10.205,13.053.018.023-.02.055-.039.031-3.669-4.139-7.083-8.48-10.38-12.914-3.216-4.433-7.31-8.552-10.165-13.084h0Z" fill="#231f20"/><path d="M56.326,59.344c3.798,4.119,6.85,8.821,10.452,13.095,3.589,4.282,7.06,8.657,10.276,13.233.018.024-.02.055-.039.031-3.693-4.2-7.132-8.601-10.452-13.094-3.24-4.492-7.359-8.673-10.237-13.264h0Z" fill="#231f20"/><path d="M56.685,64.739c3.246,3.399,5.747,7.382,8.797,10.936,3.016,3.574,6.03,7.235,8.616,11.11-3.176-3.42-6.045-7.179-8.83-10.94-2.689-3.773-6.254-7.233-8.583-11.106h0Z" fill="#231f20"/><path d="M56.541,69.487c2.812,2.796,4.884,6.183,7.502,9.137,2.583,2.973,5.166,6.035,7.321,9.312-2.741-2.819-5.181-5.978-7.534-9.14-2.26-3.176-5.388-6.029-7.289-9.309h0Z" fill="#231f20"/><path d="M57.045,74.379c2.309,2.173,3.877,4.936,5.991,7.267,2.08,2.349,4.159,4.789,5.81,7.441-2.236-2.198-4.174-4.73-6.023-7.27-1.757-2.552-4.378-4.782-5.778-7.438h0Z" fill="#231f20"/><path d="M57.261,79.271c1.3,1.185,2.319,2.587,3.285,4.038,1.836,2.231,3.98,4.301,5.349,6.857-2.18-1.934-3.715-4.458-5.476-6.756-1.131-1.253-2.517-2.672-3.158-4.139h0Z" fill="#231f20"/><path d="M57.908,84.666c.868.627,1.454,1.47,1.99,2.365,1.118,1.3,2.541,2.444,3.188,4.07-1.453-1.012-2.274-2.593-3.314-3.968-.704-.693-1.64-1.553-1.864-2.467h0Z" fill="#231f20"/><path d="M58.123,89.341c.521.159.763.544.963.987.575.533,1.307.871,1.493,1.745.006.021-.017.042-.037.033-.849-.278-1.108-1.041-1.577-1.67-.419-.246-.776-.527-.879-1.062-.006-.021.017-.041.037-.033h0Z" fill="#231f20"/><path d="M52.258,110.247c4.14,4.561,7.534,9.705,11.478,14.421,3.931,4.724,7.744,9.541,11.302,14.559.019.024-.02.055-.039.031-4.035-4.642-7.816-9.485-11.478-14.421-3.582-4.934-8.044-9.558-11.263-14.59h0Z" fill="#231f20"/><path d="M57.038,110.919c4.23,4.763,7.708,10.103,11.74,15.019,4.019,4.924,7.92,9.941,11.563,15.156.018.024-.021.055-.04.031-4.124-4.844-7.992-9.885-11.74-15.019-3.668-5.131-8.219-9.96-11.523-15.186h0Z" fill="#231f20"/><path d="M61.893,111.965c3.367,3.526,5.991,7.639,9.162,11.321,3.138,3.702,6.273,7.49,8.981,11.495-3.297-3.547-6.288-7.435-9.195-11.324-2.811-3.902-6.498-7.488-8.948-11.491h0Z" fill="#231f20"/><path d="M66.524,112.189c3.029,3.063,5.319,6.718,8.154,9.938,2.801,3.241,5.6,6.568,7.973,10.113-2.959-3.086-5.615-6.512-8.186-9.942-2.476-3.443-5.824-6.564-7.94-10.11h0Z" fill="#231f20"/><path d="M71.976,113.234c2.497,2.457,4.248,5.497,6.548,8.109,2.266,2.631,4.531,5.352,6.366,8.283-2.424-2.48-4.547-5.294-6.581-8.113-1.941-2.831-4.752-5.348-6.334-8.279h0Z" fill="#231f20"/><path d="M76.756,113.981c1.172,1.013,2.063,2.243,2.901,3.522,1.623,1.945,3.553,3.728,4.709,5.998-1.964-1.648-3.288-3.883-4.835-5.897-1.004-1.081-2.258-2.326-2.774-3.623h0Z" fill="#231f20"/><path d="M32.054,130.561c2.829-3.719,6.353-6.795,9.366-10.346,3.039-3.52,6.163-7.051,9.566-10.193-2.861,3.653-6.106,7.058-9.364,10.379-3.286,3.229-6.126,7.272-9.567,10.16h0Z" fill="#231f20"/><path d="M36.909,131.233c2.829-3.719,6.353-6.795,9.366-10.346,3.039-3.52,6.163-7.051,9.566-10.193-2.861,3.653-6.106,7.058-9.364,10.379-3.286,3.229-6.126,7.272-9.567,10.16h0Z" fill="#231f20"/><path d="M41.764,132.129c2.829-3.719,6.353-6.795,9.366-10.346,3.039-3.52,6.163-7.051,9.566-10.193-2.861,3.653-6.106,7.058-9.364,10.379-3.286,3.229-6.126,7.272-9.567,10.16h0Z" fill="#231f20"/><path d="M46.917,132.802c2.829-3.719,6.353-6.795,9.366-10.346,3.039-3.52,6.163-7.051,9.566-10.193-2.861,3.653-6.106,7.058-9.364,10.379-3.286,3.229-6.126,7.272-9.567,10.16h0Z" fill="#231f20"/><path d="M51.996,133.623c2.829-3.719,6.353-6.795,9.366-10.346,3.039-3.52,6.163-7.051,9.566-10.193-2.861,3.653-6.106,7.058-9.364,10.379-3.286,3.229-6.126,7.272-9.567,10.16h0Z" fill="#231f20"/><path d="M57.224,134.52c2.829-3.719,6.353-6.795,9.366-10.346,3.039-3.52,6.163-7.051,9.566-10.193-2.861,3.653-6.106,7.058-9.364,10.379-3.286,3.229-6.126,7.272-9.567,10.16h0Z" fill="#231f20"/><path d="M62.751,134.893c2.829-3.719,6.353-6.795,9.366-10.346,3.039-3.52,6.163-7.051,9.566-10.193-2.861,3.653-6.106,7.058-9.364,10.379-3.286,3.229-6.126,7.272-9.567,10.16h0Z" fill="#231f20"/><path d="M64.693,138.553c2.829-3.719,6.353-6.795,9.366-10.346,3.039-3.52,6.163-7.051,9.566-10.193-2.861,3.653-6.106,7.058-9.364,10.379-3.286,3.229-6.126,7.272-9.567,10.16h0Z" fill="#231f20"/><path d="M69.548,140.046c2.183-2.999,5.058-5.351,7.424-8.18,2.391-2.798,4.87-5.608,7.624-8.026-2.217,2.931-4.811,5.615-7.423,8.212-2.638,2.507-4.832,5.826-7.625,7.994h0Z" fill="#231f20"/><path d="M74.627,140.644c1.387-2.129,3.464-3.607,5.034-5.566,1.593-1.926,3.28-3.867,5.233-5.41-1.425,2.059-3.217,3.873-5.033,5.597-1.84,1.638-3.239,4.079-5.235,5.379h0Z" fill="#231f20"/><path d="M31.68,124.885c2.08-2.945,4.859-5.252,7.125-8.03,2.29-2.747,4.669-5.507,7.326-7.878-2.115,2.878-4.609,5.513-7.123,8.062-2.541,2.459-4.628,5.725-7.328,7.846h0Z" fill="#231f20"/><path d="M31.008,119.507c1.396-2.187,3.489-3.732,5.071-5.752,1.604-1.987,3.302-3.99,5.272-5.599-1.435,2.117-3.239,3.995-5.069,5.783-1.855,1.702-3.259,4.201-5.273,5.568h0Z" fill="#231f20"/><path d="M30.187,114.055c.6-1.06,1.455-1.874,2.368-2.643,1.301-1.478,2.401-3.237,4.091-4.298-.964,1.771-2.589,2.995-3.972,4.408-.69.906-1.51,2.073-2.487,2.533h0Z" fill="#231f20"/><path d="M82.117,138.802l-1.006-.14c-.348-.048-.632-.386-.631-.751l.004-.958c.001-.364.287-.623.636-.575l1.006.14c.348.048.632.386.631.751l-.004.958c-.001.364-.287.623-.636.575Z" fill="none" stroke="#231f20" stroke-linecap="round" stroke-linejoin="round" stroke-width=".5"/><path d="M65.759,54.698c-.853,1.391-1.968,2.544-3.141,3.652-1.731,2.038-3.251,4.35-5.383,5.985,1.38-2.324,3.45-4.117,5.262-6.092.949-1.237,2.017-2.751,3.263-3.545h0Z" fill="#231f20"/><path d="M70.147,54.841c-1.728,2.751-4.18,4.891-6.101,7.481-1.946,2.561-3.98,5.139-6.308,7.338,1.767-2.684,3.92-5.142,6.098-7.513,2.208-2.284,3.931-5.353,6.311-7.306h0Z" fill="#231f20"/><path d="M61.73,53.978c-.366.859-.995,1.479-1.684,2.06-.919,1.154-1.632,2.582-2.956,3.329.58-1.431,1.823-2.344,2.833-3.434.459-.711,1.043-1.671,1.807-1.954h0Z" fill="#231f20"/><path d="M74.392,55.273c-2.402,3.508-5.523,6.401-8.116,9.748-2.619,3.317-5.323,6.649-8.322,9.604,2.437-3.443,5.265-6.654,8.113-9.781,2.878-3.037,5.277-6.868,8.324-9.571h0Z" fill="#231f20"/><path d="M75.327,59.446c-2.55,3.585-5.81,6.544-8.548,9.965-2.764,3.391-5.614,6.795-8.752,9.818,2.584-3.519,5.556-6.801,8.546-9.998,3.02-3.106,5.571-7.015,8.755-9.785h0Z" fill="#231f20"/><path d="M75.039,65.273c-2.49,3.513-5.69,6.4-8.369,9.749-2.704,3.319-5.494,6.652-8.572,9.602,2.524-3.447,5.436-6.657,8.366-9.782,2.959-3.035,5.451-6.871,8.575-9.569h0Z" fill="#231f20"/><path d="M76.405,69.158c-2.661,3.636-6.025,6.64-8.873,10.11-2.873,3.44-5.832,6.893-9.075,9.961,2.694-3.571,5.774-6.899,8.871-10.143,3.125-3.153,5.791-7.113,9.077-9.928h0Z" fill="#231f20"/><path d="M76.909,73.689c-2.359,3.346-5.426,6.064-7.973,9.246-2.572,3.151-5.231,6.316-8.176,9.098,2.393-3.28,5.173-6.322,7.971-9.279,2.827-2.867,5.188-6.535,8.179-9.065h0Z" fill="#231f20"/><path d="M76.837,79.229c-.853,1.391-1.968,2.544-3.141,3.652-1.731,2.038-3.251,4.35-5.383,5.985,1.38-2.324,3.45-4.117,5.262-6.092.949-1.237,2.017-2.751,3.263-3.545h0Z" fill="#231f20"/><path d="M291.378,77.127c1.856,1.917,3.332,4.103,4.734,6.35,2.646,3.513,5.703,6.829,7.72,10.745-3.114-3.139-5.348-7.024-7.892-10.619-1.629-1.997-3.59-4.226-4.563-6.476h0Z" fill="#231f20"/><path d="M296.826,78.091c1.037.778,1.682,1.83,2.265,2.941,1.271,1.619,2.967,3.045,3.599,5.062-1.736-1.258-2.598-3.228-3.77-4.936-.891-.883-1.707-1.809-2.147-3.028-.012-.03.027-.061.053-.039h0Z" fill="#231f20"/><path d="M290.998,83.494c1.76,1.791,3.139,3.851,4.445,5.972,2.485,3.303,5.382,6.41,7.237,10.113-2.954-2.93-5.026-6.602-7.409-9.988-1.533-1.871-3.396-3.973-4.273-6.097h0Z" fill="#231f20"/><path d="M289.882,87.467c1.816,1.919,3.249,4.102,4.607,6.345,2.575,3.511,5.564,6.829,7.505,10.733-3.048-3.142-5.207-7.019-7.679-10.61-1.588-1.996-3.505-4.227-4.434-6.468h0Z" fill="#231f20"/><path d="M288.96,93.268c1.835,1.873,3.291,4.018,4.674,6.223,2.612,3.442,5.635,6.686,7.619,10.533-3.079-3.066-5.28-6.881-7.791-10.406-1.608-1.955-3.549-4.139-4.502-6.349h0Z" fill="#231f20"/><path d="M288.865,99.549c1.835,1.873,3.291,4.018,4.674,6.223,2.612,3.442,5.635,6.686,7.619,10.533-3.079-3.066-5.28-6.881-7.791-10.406-1.608-1.955-3.549-4.139-4.502-6.349h0Z" fill="#231f20"/><path d="M288.579,106.021c1.835,1.873,3.291,4.018,4.674,6.223,2.612,3.442,5.635,6.686,7.619,10.533-3.079-3.066-5.28-6.881-7.791-10.406-1.608-1.955-3.549-4.139-4.502-6.349h0Z" fill="#231f20"/><path d="M299.924,79.003c-1.046,1.789-2.442,3.269-3.913,4.692-2.156,2.619-4.028,5.593-6.718,7.689,1.69-2.987,4.294-5.29,6.557-7.827,1.175-1.588,2.502-3.542,4.075-4.554h0Z" fill="#231f20"/><path d="M303.091,81.798c-1.525,2.299-3.397,4.287-5.343,6.215-2.951,3.465-5.619,7.288-9.099,10.227,2.482-3.84,5.886-6.984,8.939-10.368,1.653-2.095,3.459-4.566,5.503-6.075h0Z" fill="#231f20"/><path d="M295.397,78.31c-.272.888-.896,1.452-1.593,1.971-.859,1.136-1.434,2.467-2.804,3.157-.026.016-.062-.013-.05-.043.474-1.46,1.7-2.231,2.692-3.253.407-.768.869-1.471,1.705-1.875.027-.015.061.014.05.043h0Z" fill="#231f20"/><path d="M302.549,88.312c-1.416,2.229-3.182,4.151-5.024,6.015-2.773,3.353-5.259,7.062-8.569,9.897,2.3-3.722,5.53-6.761,8.407-10.034,1.547-2.027,3.241-4.43,5.186-5.877h0Z" fill="#231f20"/><path d="M304.087,92.745c-1.601,2.44-3.553,4.573-5.581,6.649-3.083,3.705-5.878,7.765-9.497,10.952,2.608-4.075,6.15-7.465,9.335-11.09,1.733-2.237,3.613-4.855,5.742-6.51h0Z" fill="#231f20"/><path d="M302.367,100.887c-1.437,2.228-3.223,4.147-5.084,6.007-2.807,3.349-5.328,7.055-8.668,9.882,2.336-3.721,5.598-6.753,8.507-10.021,1.567-2.025,3.284-4.426,5.245-5.868h0Z" fill="#231f20"/><path d="M302.082,106.693c-1.437,2.228-3.223,4.147-5.084,6.007-2.807,3.349-5.328,7.055-8.668,9.882,2.336-3.721,5.598-6.753,8.507-10.021,1.567-2.025,3.284-4.426,5.245-5.868h0Z" fill="#231f20"/><path d="M301.416,112.88c-1.437,2.228-3.223,4.147-5.084,6.007-2.807,3.349-5.328,7.055-8.668,9.882,2.336-3.721,5.598-6.753,8.507-10.021,1.567-2.025,3.284-4.426,5.245-5.868h0Z" fill="#231f20"/><path d="M287.818,110.875c1.835,1.873,3.291,4.018,4.674,6.223,2.612,3.442,5.635,6.686,7.619,10.533-3.079-3.066-5.28-6.881-7.791-10.406-1.608-1.955-3.549-4.139-4.502-6.349h0Z" fill="#231f20"/><path d="M287.723,117.157c1.835,1.873,3.291,4.018,4.674,6.223,2.612,3.442,5.635,6.686,7.619,10.533-3.079-3.066-5.28-6.881-7.79-10.406-1.608-1.955-3.549-4.139-4.502-6.349h0Z" fill="#231f20"/><path d="M287.437,123.629c1.835,1.873,3.291,4.018,4.674,6.223,2.612,3.442,5.635,6.686,7.619,10.533-3.079-3.066-5.28-6.881-7.791-10.406-1.608-1.955-3.549-4.139-4.502-6.349h0Z" fill="#231f20"/><path d="M287.342,129.72c1.604,1.502,2.832,3.28,3.988,5.12,2.231,2.829,4.87,5.456,6.478,8.697-2.69-2.45-4.517-5.653-6.647-8.568-1.38-1.585-3.087-3.396-3.819-5.249h0Z" fill="#231f20"/><path d="M286.675,134.383c1.139.84,1.898,1.968,2.595,3.156,1.453,1.738,3.325,3.267,4.156,5.426-1.908-1.359-2.964-3.466-4.322-5.294-.917-.928-2.145-2.075-2.428-3.288h0Z" fill="#231f20"/><path d="M301.225,118.495c-1.437,2.228-3.223,4.147-5.084,6.007-2.807,3.349-5.328,7.055-8.668,9.882,2.336-3.721,5.598-6.753,8.507-10.021,1.567-2.025,3.284-4.426,5.245-5.868h0Z" fill="#231f20"/><path d="M301.32,130.107c-1.149,1.754-2.631,3.182-4.186,4.55-2.308,2.541-4.35,5.451-7.167,7.443,1.86-2.931,4.601-5.135,7.012-7.589,1.267-1.547,2.704-3.452,4.341-4.404h0Z" fill="#231f20"/><path d="M300.94,124.301c-1.437,2.228-3.223,4.147-5.084,6.007-2.807,3.349-5.328,7.055-8.668,9.882,2.336-3.721,5.598-6.753,8.507-10.021,1.567-2.025,3.284-4.426,5.245-5.868h0Z" fill="#231f20"/><path d="M300.464,136.007c-.478,1.147-1.313,1.978-2.22,2.762-1.216,1.543-2.146,3.455-3.898,4.47.758-1.91,2.409-3.138,3.735-4.606.614-1.03,1.287-1.997,2.333-2.668.026-.019.065.012.05.042h0Z" fill="#231f20"/><ellipse cx="270.389" cy="84.918" rx=".985" ry="1.071" fill="#1a1a1a"/><ellipse cx="270.144" cy="88.046" rx=".985" ry="1.071" fill="#1a1a1a"/><ellipse cx="268.181" cy="127.399" rx=".985" ry="1.071" fill="#1a1a1a"/><ellipse cx="267.936" cy="130.526" rx=".985" ry="1.071" fill="#1a1a1a"/><ellipse cx="247.952" cy="124.528" rx=".985" ry="1.071" fill="#1a1a1a"/><ellipse cx="247.707" cy="127.656" rx=".985" ry="1.071" fill="#1a1a1a"/><ellipse cx="249.757" cy="82.824" rx=".985" ry="1.071" fill="#1a1a1a"/><ellipse cx="249.512" cy="85.952" rx=".985" ry="1.071" fill="#1a1a1a"/><ellipse cx="229.938" cy="80.364" rx=".985" ry="1.071" fill="#1a1a1a"/><ellipse cx="229.693" cy="83.492" rx=".985" ry="1.071" fill="#1a1a1a"/><ellipse cx="200.912" cy="74.2" rx=".985" ry="1.071" fill="#1a1a1a"/><ellipse cx="200.986" cy="71.336" rx=".985" ry="1.071" fill="#1a1a1a"/><ellipse cx="200.853" cy="77.068" rx=".985" ry="1.071" fill="#1a1a1a"/><ellipse cx="228.434" cy="121.779" rx=".985" ry="1.071" fill="#1a1a1a"/><ellipse cx="228.189" cy="124.906" rx=".985" ry="1.071" fill="#1a1a1a"/><ellipse cx="40.892" cy="59.576" rx=".783" ry=".916" transform="translate(-5.137 3.873) rotate(-5.103)" fill="#1a1a1a"/><ellipse cx="40.935" cy="62.257" rx=".783" ry=".916" transform="translate(-5.375 3.888) rotate(-5.103)" fill="#1a1a1a"/><ellipse cx="42.914" cy="93.757" rx=".783" ry=".916" transform="translate(-8.169 4.189) rotate(-5.103)" fill="#1a1a1a"/><ellipse cx="42.958" cy="96.438" rx=".783" ry=".916" transform="translate(-8.407 4.203) rotate(-5.103)" fill="#1a1a1a"/><ellipse cx="29.947" cy="92.05" rx=".752" ry=".879" transform="translate(-8.069 3.028) rotate(-5.103)" fill="#1a1a1a"/><ellipse cx="29.989" cy="94.624" rx=".752" ry=".879" transform="translate(-8.297 3.042) rotate(-5.103)" fill="#1a1a1a"/><ellipse cx="27.824" cy="58.121" rx=".752" ry=".879" transform="translate(-5.059 2.705) rotate(-5.103)" fill="#1a1a1a"/><ellipse cx="27.865" cy="60.695" rx=".752" ry=".879" transform="translate(-5.288 2.719) rotate(-5.103)" fill="#1a1a1a"/><ellipse cx="15.045" cy="56.582" rx=".752" ry=".879" transform="translate(-6.341 2.08) rotate(-6.534)" fill="#1a1a1a"/><ellipse cx="15.151" cy="59.154" rx=".752" ry=".879" transform="translate(-6.633 2.108) rotate(-6.534)" fill="#1a1a1a"/><ellipse cx="17.146" cy="90.151" rx=".752" ry=".879" transform="translate(-10.148 2.537) rotate(-6.534)" fill="#1a1a1a"/><ellipse cx="17.252" cy="92.723" rx=".752" ry=".879" transform="translate(-10.44 2.566) rotate(-6.534)" fill="#1a1a1a"/></g><g id="b"><polygon points="150.687 109.456 140.273 115.131 145.773 116 124.56 119.569 122.108 112.488 127.924 113.381 138.555 107.585 150.687 109.456" fill="#221f20"/><polygon points="122.108 112.488 124.56 119.569 145.773 116 140.273 115.131 150.687 109.456 138.555 107.585 127.924 113.381 122.108 112.488" fill="none" stroke="#fff" stroke-linecap="round" stroke-linejoin="round" stroke-width="2.25"/><polygon points="150.687 109.456 140.273 115.131 145.773 116 124.56 119.569 122.108 112.488 127.924 113.381 138.555 107.585 150.687 109.456" fill="#221f20"/><polygon points="139.393 106.878 149.806 101.204 144.307 100.335 165.52 96.766 167.972 103.846 162.156 102.954 151.525 108.749 139.393 106.878" fill="#221f20"/><polygon points="167.972 103.846 165.52 96.766 144.307 100.335 149.806 101.204 139.393 106.878 151.525 108.749 162.156 102.954 167.972 103.846" fill="none" stroke="#fff" stroke-linecap="round" stroke-linejoin="round" stroke-width="2.25"/><polygon points="139.393 106.878 149.806 101.204 144.307 100.335 165.52 96.766 167.972 103.846 162.156 102.954 151.525 108.749 139.393 106.878" fill="#221f20"/><polygon points="73.759 125.282 85.174 120.598 80.526 119.932 100.881 116.897 100.605 122.615 95.634 121.948 84.028 126.715 73.759 125.282" fill="#221f20"/><polygon points="100.605 122.615 100.881 116.897 80.526 119.932 85.174 120.598 73.759 125.282 84.028 126.715 95.634 121.948 100.605 122.615" fill="none" stroke="#fff" stroke-linecap="round" stroke-linejoin="round" stroke-width="3"/><polygon points="73.759 125.282 85.174 120.598 80.526 119.932 100.881 116.897 100.605 122.615 95.634 121.948 84.028 126.715 73.759 125.282" fill="#221f20"/><path d="M87.083,105.977c0,7.593-6.246,13.745-13.95,13.745s-13.953-6.152-13.953-13.745,6.246-13.755,13.953-13.755,13.95,6.159,13.95,13.755" fill="#211f1f" stroke="#fff" stroke-miterlimit="10" stroke-width="1.5"/><rect x="59.132" y="97.982" width="27.228" height="24.791" fill="none"/><path d="M74.73,113.018h-1.846v-11.762c-.444.424-1.027.848-1.749,1.271s-1.369.742-1.943.954v-1.784c1.032-.485,1.935-1.073,2.707-1.764s1.319-1.36,1.641-2.01h1.189v15.094Z" fill="#fff"/></g></svg>