<?xml version="1.0" encoding="UTF-8"?><svg xmlns="http://www.w3.org/2000/svg" width="5.9in" height="2.257in" xmlns:xlink="http://www.w3.org/1999/xlink" viewBox="0 0 424.8 162.524"><defs><clipPath id="b"><polygon points="118.834 82.18 120.222 144.181 148.689 140.501 146.675 80.513 118.834 82.18" fill="none"/></clipPath><clipPath id="d"><circle cx="380.162" cy="53.638" r="40.25" fill="none"/></clipPath></defs><g id="a"><path d="M317.921,116.292l18.327-9.703s3.019-1.725,6.145.216,3.234,3.665,3.234,3.665l4.205,13.153-1.078,1.294,1.509,4.528-5.067,2.803s1.402,1.186,2.156,1.402l.323,1.186s-2.372,1.402-4.097.647l-2.587-2.587-1.078.108v-1.509l.862-.216-.755-1.509-23.287,10.457s-2.372.539-3.45-.108l2.587-.431,2.048-23.394ZM344.306,121.313c.504-1.485.691-3.263.464-5.135-.57-4.682-3.642-8.725-6.597-7.8-2.66.832-4.013,4.49-3.443,9.172.57,4.682,3.955,7.361,5.678,7.322.547-.012.883.212,1.352-.069,0,0,.336-2.811,1.102-3.712l1.082-.18.364.402Z" fill="#d0cfce"/><path d="M269.506,72.045l16.105-.863,33.312,7.296.75.585-2.924,59.844-.455.975-14.815,1.884-1.105-.78-32.423-13.19-.065-12.541,2.274-.26s1.494.065,1.559-2.599-.13-7.342-.13-7.342l-.325-.65-2.664-2.599.065-6.303,3.119.975s1.689.65,1.884-1.3.065-11.046.065-11.046c0,0-.65-.975-1.365-1.17s-3.119-1.04-3.119-1.04l.255-9.876Z" fill="#d0cfce" stroke="#fff" stroke-miterlimit="10"/><path d="M353.632,70.279l.711.032.156-5.122L35.986,82.172s-1.121.047-1.028,1.308.234,5.543.234,5.543L12.815,49.577l-.103-3.507,182.067-4.945,159.66,23.995" fill="none" stroke="#231f20" stroke-linecap="round" stroke-linejoin="round" stroke-width=".5"/><polyline points="13.666 45.877 10.717 41.633 174.525 38.228 193.067 41.103" fill="none" stroke="#231f20" stroke-linecap="round" stroke-linejoin="round" stroke-width=".5"/><polyline points="10.717 41.633 10.717 44.563 12.557 47.344" fill="none" stroke="#231f20" stroke-linecap="round" stroke-linejoin="round" stroke-width=".5"/><line x1="35.019" y1="82.533" x2="12.712" y2="46.07" fill="none" stroke="#231f20" stroke-linecap="round" stroke-linejoin="round" stroke-width=".5"/><polyline points="353.285 73.57 353.717 66.357 48.105 83.476 37.228 84.085 41.226 156.068" fill="none" stroke="#231f20" stroke-linecap="round" stroke-linejoin="round" stroke-width=".5"/><line x1="350.408" y1="121.623" x2="353.095" y2="76.747" fill="none" stroke="#231f20" stroke-linecap="round" stroke-linejoin="round" stroke-width=".5"/><line x1="338.236" y1="122.986" x2="341.203" y2="122.654" fill="none" stroke="#231f20" stroke-linecap="round" stroke-linejoin="round" stroke-width=".5"/><line x1="229.789" y1="135.079" x2="273.76" y2="130.21" fill="none" stroke="#231f20" stroke-linecap="round" stroke-linejoin="round" stroke-width=".5"/><polyline points="155.669 143.439 40.643 156.325 12.636 73.585 10.717 44.563" fill="none" stroke="#231f20" stroke-linecap="round" stroke-linejoin="round" stroke-width=".5"/><line x1="229.872" y1="133.351" x2="270.942" y2="128.995" fill="none" stroke="#231f20" stroke-linecap="round" stroke-linejoin="round" stroke-width=".5"/><line x1="348.302" y1="114.296" x2="350.076" y2="78.73" fill="none" stroke="#231f20" stroke-linecap="round" stroke-linejoin="round" stroke-width=".5"/><line x1="346.199" y1="109.827" x2="347.947" y2="76.248" fill="none" stroke="#231f20" stroke-linecap="round" stroke-linejoin="round" stroke-width=".5"/><polygon points="349.16 78.316 349.206 75.843 347.237 75.751 347.283 74.148 346.412 73.461 346.55 70.438 347.512 70.484 347.649 68.561 350.26 68.927 350.031 75.293 352 73.873 352 75.614 349.897 77.454 349.802 78.362 349.16 78.316" fill="none" stroke="#231f20" stroke-linecap="round" stroke-linejoin="round" stroke-width=".5"/><polyline points="352.253 73.761 352.458 68.79 350.26 68.927" fill="none" stroke="#231f20" stroke-linecap="round" stroke-linejoin="round" stroke-width=".5"/><polyline points="352 73.873 354.247 73.873 354.247 75.536 352.036 75.536" fill="none" stroke="#231f20" stroke-linecap="round" stroke-linejoin="round" stroke-width=".5"/><polyline points="354.253 75.507 351.946 77.504 351.915 78.352 349.802 78.362" fill="none" stroke="#231f20" stroke-linecap="round" stroke-linejoin="round" stroke-width=".5"/><line x1="351.946" y1="77.504" x2="349.897" y2="77.454" fill="none" stroke="#231f20" stroke-linecap="round" stroke-linejoin="round" stroke-width=".5"/><polyline points="347.649 68.561 349.745 68.354 352.458 68.79" fill="none" stroke="#231f20" stroke-linecap="round" stroke-linejoin="round" stroke-width=".5"/><polygon points="350.744 69.984 351.881 69.905 351.405 71.095 350.744 69.984" fill="#231f20"/><line x1="335.489" y1="106.891" x2="336.949" y2="79.519" fill="none" stroke="#231f20" stroke-linecap="round" stroke-linejoin="round" stroke-width=".5"/><line x1="333.443" y1="107.808" x2="334.819" y2="77.037" fill="none" stroke="#231f20" stroke-linecap="round" stroke-linejoin="round" stroke-width=".5"/><polygon points="336.033 79.105 336.079 76.632 334.11 76.54 334.155 74.937 333.285 74.25 333.423 71.227 334.384 71.273 334.522 69.35 337.132 69.716 336.903 76.082 338.873 74.662 338.873 76.403 336.77 78.243 336.674 79.15 336.033 79.105" fill="none" stroke="#231f20" stroke-linecap="round" stroke-linejoin="round" stroke-width=".5"/><polyline points="339.126 74.55 339.331 69.579 337.132 69.716" fill="none" stroke="#231f20" stroke-linecap="round" stroke-linejoin="round" stroke-width=".5"/><polyline points="338.873 74.662 341.119 74.662 341.119 76.325 338.909 76.325" fill="none" stroke="#231f20" stroke-linecap="round" stroke-linejoin="round" stroke-width=".5"/><polyline points="341.126 76.296 338.818 78.293 338.788 79.141 336.674 79.15" fill="none" stroke="#231f20" stroke-linecap="round" stroke-linejoin="round" stroke-width=".5"/><line x1="338.818" y1="78.293" x2="336.77" y2="78.243" fill="none" stroke="#231f20" stroke-linecap="round" stroke-linejoin="round" stroke-width=".5"/><polyline points="334.522 69.35 336.618 69.143 339.331 69.579" fill="none" stroke="#231f20" stroke-linecap="round" stroke-linejoin="round" stroke-width=".5"/><polygon points="337.617 70.773 338.754 70.694 338.278 71.884 337.617 70.773" fill="#231f20"/><line x1="321.704" y1="114.051" x2="323.123" y2="80.411" fill="none" stroke="#231f20" stroke-linecap="round" stroke-linejoin="round" stroke-width=".5"/><line x1="319.37" y1="115.215" x2="320.994" y2="77.929" fill="none" stroke="#231f20" stroke-linecap="round" stroke-linejoin="round" stroke-width=".5"/><polygon points="322.207 79.997 322.253 77.524 320.284 77.432 320.33 75.829 319.459 75.142 319.597 72.119 320.559 72.165 320.696 70.242 323.307 70.608 323.078 76.974 325.047 75.554 325.047 77.295 322.944 79.135 322.849 80.042 322.207 79.997" fill="none" stroke="#231f20" stroke-linecap="round" stroke-linejoin="round" stroke-width=".5"/><polyline points="325.3 75.442 325.505 70.471 323.307 70.608" fill="none" stroke="#231f20" stroke-linecap="round" stroke-linejoin="round" stroke-width=".5"/><polyline points="325.047 75.554 327.294 75.554 327.294 77.217 325.083 77.217" fill="none" stroke="#231f20" stroke-linecap="round" stroke-linejoin="round" stroke-width=".5"/><polyline points="327.3 77.188 324.993 79.185 324.962 80.033 322.849 80.042" fill="none" stroke="#231f20" stroke-linecap="round" stroke-linejoin="round" stroke-width=".5"/><line x1="324.993" y1="79.185" x2="322.944" y2="79.135" fill="none" stroke="#231f20" stroke-linecap="round" stroke-linejoin="round" stroke-width=".5"/><polyline points="320.696 70.242 322.792 70.035 325.505 70.471" fill="none" stroke="#231f20" stroke-linecap="round" stroke-linejoin="round" stroke-width=".5"/><polygon points="323.791 71.665 324.928 71.586 324.452 72.776 323.791 71.665" fill="#231f20"/><polyline points="305.728 74.234 305.771 72.833 306.733 72.879 306.87 70.955 309.481 71.322 309.304 75.072" fill="none" stroke="#231f20" stroke-linecap="round" stroke-linejoin="round" stroke-width=".5"/><polyline points="311.474 75.83 311.679 71.184 309.481 71.322" fill="none" stroke="#231f20" stroke-linecap="round" stroke-linejoin="round" stroke-width=".5"/><polyline points="306.87 70.955 308.966 70.749 311.679 71.184" fill="none" stroke="#231f20" stroke-linecap="round" stroke-linejoin="round" stroke-width=".5"/><polygon points="309.965 72.379 311.102 72.299 310.626 73.489 309.965 72.379" fill="#231f20"/><polyline points="286.405 71.388 348.218 67.985 348.218 68.416" fill="none" stroke="#231f20" stroke-linecap="round" stroke-linejoin="round" stroke-width=".5"/><line x1="293.348" y1="72.806" x2="293.348" y2="71.168" fill="none" stroke="#231f20" stroke-linecap="round" stroke-linejoin="round" stroke-width=".5"/><line x1="285.567" y1="71.221" x2="319.125" y2="78.473" fill="none" stroke="#231f20" stroke-linecap="round" stroke-linejoin="round" stroke-width=".5"/><line x1="269.21" y1="81.543" x2="269.359" y2="72.223" fill="none" stroke="#231f20" stroke-linecap="round" stroke-linejoin="round" stroke-width=".5"/><path d="M317.745,116.231l19.032-9.826s4.448-1.81,7.809,4.086l4.389,13.273.957-.138-4.344-13.343s-2.967-4.964-7.156-4.24" fill="none" stroke="#231f20" stroke-linecap="round" stroke-linejoin="round" stroke-width=".5"/><path d="M340.796,131.309l-.617-1.597s-20.777,9.274-23.095,10.344-3.567.178-3.567.178" fill="none" stroke="#231f20" stroke-linecap="round" stroke-linejoin="round" stroke-width=".5"/><path d="M339.961,131.635l.073,1.379.871-.29,2.359,2.54s.907.689,1.597-.508l-.435-.944h-.835s-1.379-1.198-1.379-1.706l5.371-2.431-1.415-4.826-1.706.798-.689-2.504.798-.218s-1.633-1.415-1.633-1.923c0,0-1.234,1.161-1.052,5.77l-1.633.762.871,1.996,1.633-.653.689,1.379-3.484,1.379Z" fill="none" stroke="#231f20" stroke-linecap="round" stroke-linejoin="round" stroke-width=".5"/><path d="M345.281,125.167l-.71-2.241,1.002-.089c-.259,0-1.586-1.877-1.586-1.877l-1.049.043" fill="none" stroke="#231f20" stroke-linecap="round" stroke-linejoin="round" stroke-width=".5"/><polyline points="346.167 124.849 348.873 124.876 350.395 129.375 347.546 129.472" fill="none" stroke="#231f20" stroke-linecap="round" stroke-linejoin="round" stroke-width=".5"/><polyline points="342.211 132.107 345.119 131.997 350.395 129.375" fill="none" stroke="#231f20" stroke-linecap="round" stroke-linejoin="round" stroke-width=".5"/><path d="M345.378,132.256s.809,1.327,2.072,1.489l.194.939s-.68,1.295-3.625.906" fill="none" stroke="#231f20" stroke-linecap="round" stroke-linejoin="round" stroke-width=".5"/><path d="M341.763,124.814c-.469.281-.98.464-1.523.53-3.074.374-6.027-3.118-6.597-7.8-.57-4.682,1.46-8.781,4.534-9.155s6.027,3.118,6.597,7.8c.228,1.872.04,3.65-.464,5.135" fill="none" stroke="#231f20" stroke-linecap="round" stroke-linejoin="round" stroke-width=".5"/><path d="M341.25,124.899c-3.074.374-6.027-3.118-6.597-7.8-.455-3.74.749-7.108,2.818-8.502" fill="none" stroke="#231f20" stroke-linecap="round" stroke-linejoin="round" stroke-width=".5"/><line x1="347.372" y1="124.806" x2="348.975" y2="123.763" fill="none" stroke="#231f20" stroke-linecap="round" stroke-linejoin="round" stroke-width=".5"/><line x1="349.932" y1="123.625" x2="348.524" y2="124.683" fill="none" stroke="#231f20" stroke-linecap="round" stroke-linejoin="round" stroke-width=".5"/><polyline points="300.521 141.121 267.853 127.658 267.853 115.194" fill="none" stroke="#231f20" stroke-linecap="round" stroke-linejoin="round" stroke-width=".5"/><line x1="303.038" y1="79.836" x2="269.466" y2="72.184" fill="none" stroke="#231f20" stroke-linecap="round" stroke-linejoin="round" stroke-width=".5"/><polygon points="314.596 96.551 306.685 96.909 306.792 92.176 314.82 91.796 314.596 96.551" fill="none" stroke="#231f20" stroke-linecap="round" stroke-linejoin="round" stroke-width=".5"/><polygon points="313.617 121.586 305.406 122.348 305.914 109.565 314.125 109.142 313.617 121.586" fill="none" stroke="#231f20" stroke-linecap="round" stroke-linejoin="round" stroke-width=".5"/><polyline points="313.725 116.837 312.869 116.895 312.869 118.021 311.738 118.105 311.676 120.317 307.146 120.787 307.479 111.05 311.871 110.851 311.871 113.204 313.069 113.137 313.069 114.202 313.735 114.202" fill="none" stroke="#231f20" stroke-linecap="round" stroke-linejoin="round" stroke-width=".5"/><line x1="311.738" y1="118.105" x2="307.581" y2="117.025" fill="none" stroke="#231f20" stroke-linecap="round" stroke-linejoin="round" stroke-width=".5"/><line x1="312.82" y1="116.888" x2="307.437" y2="115.453" fill="none" stroke="#231f20" stroke-linecap="round" stroke-linejoin="round" stroke-width=".5"/><line x1="311.738" y1="120.049" x2="307.581" y2="118.97" fill="none" stroke="#231f20" stroke-linecap="round" stroke-linejoin="round" stroke-width=".5"/><polygon points="312.864 136.54 304.598 137.633 305.095 124.917 313.362 124.16 312.864 136.54" fill="none" stroke="#231f20" stroke-linecap="round" stroke-linejoin="round" stroke-width=".5"/><polyline points="312.968 131.819 312.106 131.912 312.108 133.03 310.969 133.16 310.909 135.359 306.348 136.012 306.672 126.328 311.094 125.95 311.097 128.287 312.303 128.172 312.304 129.229 312.974 129.202" fill="none" stroke="#231f20" stroke-linecap="round" stroke-linejoin="round" stroke-width=".5"/><line x1="310.969" y1="133.16" x2="306.782" y2="132.258" fill="none" stroke="#231f20" stroke-linecap="round" stroke-linejoin="round" stroke-width=".5"/><line x1="312.056" y1="131.907" x2="306.635" y2="130.702" fill="none" stroke="#231f20" stroke-linecap="round" stroke-linejoin="round" stroke-width=".5"/><line x1="310.971" y1="135.091" x2="306.784" y2="134.189" fill="none" stroke="#231f20" stroke-linecap="round" stroke-linejoin="round" stroke-width=".5"/><polyline points="306.914 92.313 313.256 94.132 313.256 95.41 306.865 95.754" fill="none" stroke="#231f20" stroke-linecap="round" stroke-linejoin="round" stroke-width=".5"/><line x1="306.816" y1="94.329" x2="313.256" y2="94.132" fill="none" stroke="#231f20" stroke-linecap="round" stroke-linejoin="round" stroke-width=".5"/><polygon points="227.375 105.963 232.172 108.055 269.878 104.877 267.694 102.727 227.375 105.963" fill="none" stroke="#231f20" stroke-linecap="round" stroke-linejoin="round" stroke-width=".5"/><line x1="267.539" y1="105.05" x2="267.539" y2="102.959" fill="none" stroke="#231f20" stroke-linecap="round" stroke-linejoin="round" stroke-width=".5"/><path d="M214.38,106.133l6.139,2.727,9.533-.835,1.88.865s35.853-3.205,38.257-3.205c2.102,0,1.111-1.14,1.111-1.14l-3.166-2.906-53.753,4.495v1.189" fill="none" stroke="#231f20" stroke-linecap="round" stroke-linejoin="round" stroke-width=".5"/><polyline points="222.403 109.893 231.609 109.066 231.609 118.562 229.86 118.741" fill="none" stroke="#231f20" stroke-linecap="round" stroke-linejoin="round" stroke-width=".5"/><line x1="222.403" y1="109.893" x2="221.333" y2="109.466" fill="none" stroke="#231f20" stroke-linecap="round" stroke-linejoin="round" stroke-width=".5"/><path d="M232.091,118.536l38.172-3.649s1.263-.07,1.333-2.316l-.047-7.438" fill="none" stroke="#231f20" stroke-linecap="round" stroke-linejoin="round" stroke-width=".5"/><path d="M223.797,111.757l-11.689-5.286-59.11,4.714,11.853,7.64s.982.584.982,2.07l.121,29.99-12.837-10.31-.12-29.36" fill="none" stroke="#231f20" stroke-linecap="round" stroke-linejoin="round" stroke-width=".5"/><line x1="229.908" y1="132.078" x2="268.303" y2="127.936" fill="none" stroke="#231f20" stroke-linecap="round" stroke-linejoin="round" stroke-width=".5"/><path d="M149.966,139.409s2.337-.516,2.404-4.223" fill="none" stroke="#231f20" stroke-linecap="round" stroke-linejoin="round" stroke-width=".5"/><line x1="151.706" y1="92.375" x2="152.513" y2="141.213" fill="none" stroke="#231f20" stroke-linecap="round" stroke-linejoin="round" stroke-width=".5"/><path d="M148.146,90.678h-.809l.539,1.213.607,38.554,2.292,1.955s.472,4.92-.741,6.066" fill="none" stroke="#231f20" stroke-linecap="round" stroke-linejoin="round" stroke-width=".5"/><path d="M147.976,88.841l-.501-.401v-1.955l-.902-1.955v-2.456h.902c0,.15-.05-2.055-.05-2.055l.204.099,1.45.703v7.619l.899-1.711h3.198v2.035l-.872,2.118v1.059h-3.344v-.976l1.142-2.243-.062-1.994" fill="none" stroke="#231f20" stroke-linecap="round" stroke-linejoin="round" stroke-width=".5"/><polyline points="148.377 91.648 148.377 86.586 147.976 86.235" fill="none" stroke="#231f20" stroke-linecap="round" stroke-linejoin="round" stroke-width=".5"/><polyline points="147.629 79.869 150.031 79.869 151.835 80.665 151.835 86.435" fill="none" stroke="#231f20" stroke-linecap="round" stroke-linejoin="round" stroke-width=".5"/><line x1="149.079" y1="80.822" x2="151.835" y2="80.822" fill="none" stroke="#231f20" stroke-linecap="round" stroke-linejoin="round" stroke-width=".5"/><line x1="150.102" y1="88.723" x2="153.176" y2="88.723" fill="none" stroke="#231f20" stroke-linecap="round" stroke-linejoin="round" stroke-width=".5"/><line x1="148.96" y1="90.966" x2="152.304" y2="90.966" fill="none" stroke="#231f20" stroke-linecap="round" stroke-linejoin="round" stroke-width=".5"/><line x1="112.896" y1="94.879" x2="113.702" y2="145.56" fill="none" stroke="#231f20" stroke-linecap="round" stroke-linejoin="round" stroke-width=".5"/><path d="M109.335,93.182h-.809l.539,1.213,1.019,39.887,2.292,1.955s.59,4.963-.623,6.109" fill="none" stroke="#231f20" stroke-linecap="round" stroke-linejoin="round" stroke-width=".5"/><path d="M109.165,91.345l-.501-.401v-1.955l-.902-1.955v-2.456h.902c0,.15-.05-2.055-.05-2.055l.204.099,1.45.703v7.619l.899-1.711h3.198v2.035l-.872,2.118v1.059h-3.344v-.976l1.142-2.243-.062-1.994" fill="none" stroke="#231f20" stroke-linecap="round" stroke-linejoin="round" stroke-width=".5"/><polyline points="109.566 94.152 109.566 89.09 109.165 88.739" fill="none" stroke="#231f20" stroke-linecap="round" stroke-linejoin="round" stroke-width=".5"/><polyline points="108.818 82.373 111.22 82.373 113.025 83.169 113.025 88.939" fill="none" stroke="#231f20" stroke-linecap="round" stroke-linejoin="round" stroke-width=".5"/><line x1="110.268" y1="83.326" x2="113.025" y2="83.326" fill="none" stroke="#231f20" stroke-linecap="round" stroke-linejoin="round" stroke-width=".5"/><line x1="111.292" y1="91.227" x2="114.365" y2="91.227" fill="none" stroke="#231f20" stroke-linecap="round" stroke-linejoin="round" stroke-width=".5"/><line x1="110.15" y1="93.469" x2="113.493" y2="93.469" fill="none" stroke="#231f20" stroke-linecap="round" stroke-linejoin="round" stroke-width=".5"/><line x1="92.246" y1="96.547" x2="93.916" y2="147.79" fill="none" stroke="#231f20" stroke-linecap="round" stroke-linejoin="round" stroke-width=".5"/><path d="M88.735,94.913l-.791.023.549,1.225,1.289,39.406,2.275,1.934s.962,5.406-.204,6.612" fill="none" stroke="#231f20" stroke-linecap="round" stroke-linejoin="round" stroke-width=".5"/><path d="M88.536,93.039l-.497-.396-.035-1.999-.917-1.973-.044-2.511.882-.025c.003.154-.086-2.1-.086-2.1l.201.095,1.43.678.138,7.79.848-1.775,3.126-.09.037,2.081-.814,2.191.019,1.083-3.268.094-.018-.998,1.076-2.326-.097-2.037" fill="none" stroke="#231f20" stroke-linecap="round" stroke-linejoin="round" stroke-width=".5"/><polyline points="88.979 95.898 88.887 90.721 88.489 90.374" fill="none" stroke="#231f20" stroke-linecap="round" stroke-linejoin="round" stroke-width=".5"/><polyline points="88.035 83.874 90.383 83.807 92.161 84.569 92.265 90.47" fill="none" stroke="#231f20" stroke-linecap="round" stroke-linejoin="round" stroke-width=".5"/><line x1="89.469" y1="84.807" x2="92.164" y2="84.73" fill="none" stroke="#231f20" stroke-linecap="round" stroke-linejoin="round" stroke-width=".5"/><line x1="90.612" y1="92.858" x2="93.617" y2="92.771" fill="none" stroke="#231f20" stroke-linecap="round" stroke-linejoin="round" stroke-width=".5"/><line x1="89.536" y1="95.183" x2="92.805" y2="95.089" fill="none" stroke="#231f20" stroke-linecap="round" stroke-linejoin="round" stroke-width=".5"/><polyline points="71.053 97.454 73.127 148.138 74.531 149.741" fill="none" stroke="#231f20" stroke-linecap="round" stroke-linejoin="round" stroke-width=".5"/><polyline points="67.538 95.818 66.75 95.841 67.308 97.069 68.916 138.246 71.2 140.184 71.2 150.145" fill="none" stroke="#231f20" stroke-linecap="round" stroke-linejoin="round" stroke-width=".5"/><path d="M67.324,93.939l-.499-.397-.052-2.004-.931-1.978-.065-2.518.879-.026c.004.154-.103-2.106-.103-2.106l.202.096,1.432.679.201,7.812.831-1.781,3.117-.093.054,2.087-.794,2.197.028,1.086-3.258.098-.026-1.001,1.054-2.333-.113-2.042" fill="none" stroke="#231f20" stroke-linecap="round" stroke-linejoin="round" stroke-width=".5"/><polyline points="67.789 96.805 67.656 91.615 67.256 91.267" fill="none" stroke="#231f20" stroke-linecap="round" stroke-linejoin="round" stroke-width=".5"/><polyline points="66.749 84.75 69.09 84.68 70.87 85.443 71.022 91.36" fill="none" stroke="#231f20" stroke-linecap="round" stroke-linejoin="round" stroke-width=".5"/><line x1="68.188" y1="85.684" x2="70.874" y2="85.604" fill="none" stroke="#231f20" stroke-linecap="round" stroke-linejoin="round" stroke-width=".5"/><line x1="69.393" y1="93.756" x2="72.389" y2="93.666" fill="none" stroke="#231f20" stroke-linecap="round" stroke-linejoin="round" stroke-width=".5"/><line x1="68.339" y1="96.089" x2="71.598" y2="95.991" fill="none" stroke="#231f20" stroke-linecap="round" stroke-linejoin="round" stroke-width=".5"/><line x1="111.67" y1="136.154" x2="111.836" y2="145.962" fill="none" stroke="#231f20" stroke-linecap="round" stroke-linejoin="round" stroke-width=".5"/><line x1="91.555" y1="137.276" x2="91.721" y2="148.081" fill="none" stroke="#231f20" stroke-linecap="round" stroke-linejoin="round" stroke-width=".5"/><polyline points="107.814 80.273 109.629 81.906 90.119 82.877 88.371 81.207" fill="none" stroke="#231f20" stroke-linecap="round" stroke-linejoin="round" stroke-width=".5"/><polyline points="146.632 78.098 148.401 79.454 110.847 81.535 109.145 80.143" fill="none" stroke="#231f20" stroke-linecap="round" stroke-linejoin="round" stroke-width=".5"/><polyline points="67.988 82.538 69.408 84.017 88.936 83.02 87.345 81.396" fill="none" stroke="#231f20" stroke-linecap="round" stroke-linejoin="round" stroke-width=".5"/><polyline points="66.664 82.658 68.146 84.138 48.93 85.172 48.118 83.488 51.936 151.15" fill="none" stroke="#231f20" stroke-linecap="round" stroke-linejoin="round" stroke-width=".5"/><line x1="149.813" y1="131.723" x2="149.813" y2="141.691" fill="none" stroke="#231f20" stroke-linecap="round" stroke-linejoin="round" stroke-width=".5"/><line x1="35.192" y1="89.023" x2="39.241" y2="152.322" fill="none" stroke="#231f20" stroke-linecap="round" stroke-linejoin="round" stroke-width=".5"/><line x1="217.442" y1="74.144" x2="217.442" y2="104.899" fill="none" stroke="#231f20" stroke-linecap="round" stroke-linejoin="round" stroke-width=".5"/><line x1="208.687" y1="100.945" x2="208.687" y2="105.712" fill="none" stroke="#231f20" stroke-linecap="round" stroke-linejoin="round" stroke-width=".5"/><line x1="208.687" y1="74.957" x2="208.687" y2="86.343" fill="none" stroke="#231f20" stroke-linecap="round" stroke-linejoin="round" stroke-width=".5"/><path d="M157.019,110.763c-2.816-.343-3.299-2.608-3.299-2.608l-.195-26.856s-.343-3.777,4.808-3.984" fill="none" stroke="#231f20" stroke-linecap="round" stroke-linejoin="round" stroke-width=".5"/><path d="M186.904,77.246s-.962-1.305-3.434-1.305" fill="none" stroke="#231f20" stroke-linecap="round" stroke-linejoin="round" stroke-width=".5"/><path d="M157.509,84.321l5.563-5.563,5.563-.549s1.03.824.962,2.404l-.481.549s-4.876.343-8.448,5.907l-2.198-.893s-1.168-1.099-.962-1.854Z" fill="none" stroke="#231f20" stroke-linecap="round" stroke-linejoin="round" stroke-width=".5"/><path d="M170.833,80.887s-.137-2.266-.618-2.679l5.907-.206,5.975,5.22s-1.58,2.473-2.473,2.541c0,0-2.953-4.739-8.791-4.876Z" fill="none" stroke="#231f20" stroke-linecap="round" stroke-linejoin="round" stroke-width=".5"/><path d="M187.248,102.452s14.011-.962,14.972-1.099.893-.893.893-.893l.206-22.596c0-1.099-1.099-1.099-1.099-1.099l-16.038.807s-.715-.191-.715.811v11.825" fill="none" stroke="#231f20" stroke-linecap="round" stroke-linejoin="round" stroke-width=".5"/><path d="M154.899,89.678s-.412-2.404,1.305-3.365l1.992,1.03,1.923.687,3.091,1.717s-1.374,3.915.275,7.074c0,0-3.915,3.091-5.151,3.091" fill="none" stroke="#231f20" stroke-linecap="round" stroke-linejoin="round" stroke-width=".5"/><path d="M161.698,87.48l2.404,1.236s1.58-3.022,5.288-3.777l.069-2.541s-3.777-.618-7.761,5.082Z" fill="none" stroke="#231f20" stroke-linecap="round" stroke-linejoin="round" stroke-width=".5"/><path d="M170.902,84.939s3.434,0,5.769,2.885l1.992-1.374s-3.091-4.19-7.761-4.258v2.747Z" fill="none" stroke="#231f20" stroke-linecap="round" stroke-linejoin="round" stroke-width=".5"/><path d="M164.102,98.057l-2.06,1.648s2.198,3.915,7.761,3.846l-.137-2.679s-2.679.137-5.563-2.816Z" fill="none" stroke="#231f20" stroke-linecap="round" stroke-linejoin="round" stroke-width=".5"/><path d="M170.902,100.873l.275,2.473s5.014-.275,7.624-5.22l-2.06-1.03s-2.129,3.297-5.838,3.777Z" fill="none" stroke="#231f20" stroke-linecap="round" stroke-linejoin="round" stroke-width=".5"/><path d="M183.381,98.163l-.108.415-.486.486-.918-.756-.918-.378c-.918-.432-3.458-2.107-3.458-2.107,1.783-3.35-.108-6.862-.108-6.862,0,0,3.08-1.081,4.214-3.512,0,0,1.243-.54,1.513-1.027,0,0,.973.054,1.027,1.135v2.269" fill="none" stroke="#231f20" stroke-linecap="round" stroke-linejoin="round" stroke-width=".5"/><path d="M188.513,84.801l3.836-4.43,6.429-.486s1.837.378,1.837,3.296-.108,12.805-.108,12.805c0,0-.108,2.377-1.837,2.701s-6.429.702-6.429.702l-3.836-3.674.108-10.914Z" fill="none" stroke="#231f20" stroke-linecap="round" stroke-linejoin="round" stroke-width=".5"/><path d="M189.864,97.011l3.404-.162s2.107-.648,2.215-2.755l.054-13.885" fill="none" stroke="#231f20" stroke-linecap="round" stroke-linejoin="round" stroke-width=".5"/><path d="M177.6,105.439c2.972-2.647,4.484-5.403,4.484-5.403-.702-.864-2.377-1.135-2.377-1.135-3.458,5.403-8.644,5.835-8.644,5.835,0,0,.486.594-.324,1.351" fill="none" stroke="#231f20" stroke-linecap="round" stroke-linejoin="round" stroke-width=".5"/><path d="M169.496,105.98c.648-.702-.054-1.243-.054-1.243-5.133.27-8.644-4.484-8.644-4.484l-2.377.918" fill="none" stroke="#231f20" stroke-linecap="round" stroke-linejoin="round" stroke-width=".5"/><path d="M156.961,101.874l2.323-.054.27,3.782s.27,1.405,1.729,1.297,23.124-1.945,23.124-1.945c0,0,.756.162.702-1.189s-.216-3.674-.216-3.674l1.945-.054.378,4.268s.54,2.323-1.513,3.026l-26.149,2.161s-2.161-.216-2.377-2.539l-.216-5.079Z" fill="none" stroke="#231f20" stroke-linecap="round" stroke-linejoin="round" stroke-width=".5"/><path d="M156.961,101.874l-1.621.648.054,4.268s.378,3.35,4.16,2.701" fill="none" stroke="#231f20" stroke-linecap="round" stroke-linejoin="round" stroke-width=".5"/><polyline points="183.165 104.791 182.948 100.577 184.893 100.091" fill="none" stroke="#231f20" stroke-linecap="round" stroke-linejoin="round" stroke-width=".5"/><path d="M155.07,90.204v7.456s2.053,1.081,2.269-2.593c0,0,.324-4.863-2.269-4.863Z" fill="none" stroke="#231f20" stroke-linecap="round" stroke-linejoin="round" stroke-width=".5"/><path d="M156.916,90.906c2.266-.259,1.776,5.062,1.776,5.062l-1.167.076v2.125l-.361.882v2.726" fill="none" stroke="#231f20" stroke-linecap="round" stroke-linejoin="round" stroke-width=".5"/><polyline points="158.487 96.245 158.487 98.169 158.126 99.051 158.126 101.776" fill="none" stroke="#231f20" stroke-linecap="round" stroke-linejoin="round" stroke-width=".5"/><polyline points="156.403 97.608 156.403 98.409 156.042 99.291 156.042 102.017" fill="none" stroke="#231f20" stroke-linecap="round" stroke-linejoin="round" stroke-width=".5"/><path d="M182.879,97.327l1.56-.167-.167-2.423.446-.529v-3.231s-.557-1.671-1.699-1.504c0,0-.975.111-1.058,1.922v2.757l.696.863.223,2.312Z" fill="none" stroke="#231f20" stroke-linecap="round" stroke-linejoin="round" stroke-width=".5"/><path d="M184.633,97.077l.14-.065.612-.286-.167-2.128.446-.529v-3.231s-.557-1.671-1.699-1.504l-.947.139" fill="none" stroke="#231f20" stroke-linecap="round" stroke-linejoin="round" stroke-width=".5"/><polyline points="183.494 97.324 183.494 98.887 183.993 99.519 183.993 100.118" fill="none" stroke="#231f20" stroke-linecap="round" stroke-linejoin="round" stroke-width=".5"/><polyline points="184.425 97.058 184.425 98.621 184.924 99.253 184.924 99.852" fill="none" stroke="#231f20" stroke-linecap="round" stroke-linejoin="round" stroke-width=".5"/><polyline points="185.323 96.792 185.323 98.355 185.822 98.987 185.822 99.586" fill="none" stroke="#231f20" stroke-linecap="round" stroke-linejoin="round" stroke-width=".5"/><ellipse cx="183.315" cy="92.374" rx=".51" ry="1.391" fill="none" stroke="#231f20" stroke-linecap="round" stroke-linejoin="round" stroke-width=".5"/><ellipse cx="156.075" cy="93.956" rx=".51" ry="1.391" fill="none" stroke="#231f20" stroke-linecap="round" stroke-linejoin="round" stroke-width=".5"/><ellipse cx="182.384" cy="79.316" rx="2.435" ry="2.345" transform="translate(31.596 208.999) rotate(-64.2)" fill="none" stroke="#231f20" stroke-linecap="round" stroke-linejoin="round" stroke-width=".5"/><line x1="182.51" y1="77.763" x2="182.51" y2="80.767" fill="none" stroke="#231f20" stroke-linecap="round" stroke-linejoin="round" stroke-width=".5"/><line x1="181.223" y1="79.432" x2="183.702" y2="79.241" fill="none" stroke="#231f20" stroke-linecap="round" stroke-linejoin="round" stroke-width=".5"/><ellipse cx="156.958" cy="80.767" rx="2.244" ry="2.116" transform="translate(38.474 211.613) rotate(-75.068)" fill="none" stroke="#231f20" stroke-linecap="round" stroke-linejoin="round" stroke-width=".5"/><line x1="157.072" y1="79.331" x2="157.072" y2="82.109" fill="none" stroke="#231f20" stroke-linecap="round" stroke-linejoin="round" stroke-width=".5"/><line x1="155.914" y1="80.875" x2="158.144" y2="80.698" fill="none" stroke="#231f20" stroke-linecap="round" stroke-linejoin="round" stroke-width=".5"/><path d="M183.167,89.224v-1.482s1.688.124,2.017,1.935" fill="none" stroke="#231f20" stroke-linecap="round" stroke-linejoin="round" stroke-width=".5"/><path d="M188.519,87.698l2.606,1.249s1.458.865-.309,1.441l-2.253-1.009" fill="none" stroke="#231f20" stroke-linecap="round" stroke-linejoin="round" stroke-width=".5"/><path d="M188.563,86.545l4.329,2.066s1.458.865-.309,1.441l-1.634.336" fill="none" stroke="#231f20" stroke-linecap="round" stroke-linejoin="round" stroke-width=".5"/><path d="M192.848,95.158l1.634-.336c1.767-.576.309-1.441.309-1.441l-2.606-1.27-2.429.177,3.269,1.43s1.458.865-.309,1.441l-3.004-1.369v-1.06" fill="none" stroke="#231f20" stroke-linecap="round" stroke-linejoin="round" stroke-width=".5"/><path d="M191.102,81.863l1.878.9s1.458.865-.309,1.441l-2.253-1.009" fill="none" stroke="#231f20" stroke-linecap="round" stroke-linejoin="round" stroke-width=".5"/><path d="M191.791,81.016l2.956,1.41s1.458.865-.309,1.441l-1.634.336" fill="none" stroke="#231f20" stroke-linecap="round" stroke-linejoin="round" stroke-width=".5"/><path d="M206.694,84.471l.18-8.08s-.283-.921-2.126-.85l-18.776.992" fill="none" stroke="#231f20" stroke-linecap="round" stroke-linejoin="round" stroke-width=".5"/><polyline points="187.035 106.504 206.236 105.016 206.345 100.577" fill="none" stroke="#231f20" stroke-linecap="round" stroke-linejoin="round" stroke-width=".5"/><path d="M203.294,98.492l6.071,2.76s1.962.797,2.576-.797v-11.591s.368-1.288-1.472-1.84l-5.397-1.901s-1.472-.184-1.717.613" fill="none" stroke="#231f20" stroke-linecap="round" stroke-linejoin="round" stroke-width=".5"/><path d="M204.03,86.779l4.354,1.717s.981-.061.981,1.41v10.119" fill="none" stroke="#231f20" stroke-linecap="round" stroke-linejoin="round" stroke-width=".5"/><line x1="204.398" y1="89.722" x2="204.398" y2="95.303" fill="none" stroke="#231f20" stroke-linecap="round" stroke-linejoin="round" stroke-width=".5"/><line x1="205.318" y1="90.152" x2="205.318" y2="95.732" fill="none" stroke="#231f20" stroke-linecap="round" stroke-linejoin="round" stroke-width=".5"/><line x1="206.238" y1="90.581" x2="206.238" y2="96.161" fill="none" stroke="#231f20" stroke-linecap="round" stroke-linejoin="round" stroke-width=".5"/><ellipse cx="204.939" cy="82.011" rx="1.004" ry=".77" transform="translate(105.613 279.14) rotate(-85.068)" fill="none" stroke="#231f20" stroke-linecap="round" stroke-linejoin="round" stroke-width=".5"/><path d="M221.568,103.864c-2.555-.331-2.85-2.38-2.85-2.38l.198-24.158s-.283-3.412,4.397-3.56" fill="none" stroke="#231f20" stroke-linecap="round" stroke-linejoin="round" stroke-width=".5"/><path d="M222.512,80.622l5.095-4.98,5.057-.454s.929.752.855,2.177l-.441.492s-4.432.273-7.717,5.268l-1.989-.822s-1.052-1.001-.859-1.681Z" fill="none" stroke="#231f20" stroke-linecap="round" stroke-linejoin="round" stroke-width=".5"/><path d="M234.639,77.623s-.108-2.047-.541-2.422l5.366-.142,5.387,4.757s-1.453,2.22-2.265,2.275c0,0-2.646-4.3-7.948-4.468Z" fill="none" stroke="#231f20" stroke-linecap="round" stroke-linejoin="round" stroke-width=".5"/><path d="M249.384,97.213s12.733-.762,13.607-.879.818-.799.818-.799l.358-20.395c.008-.992-.99-1-.99-1l-14.573.607s-.648-.178-.656.726-.09,10.674-.09,10.674" fill="none" stroke="#231f20" stroke-linecap="round" stroke-linejoin="round" stroke-width=".5"/><path d="M220.101,85.438s-.356-2.173,1.211-3.028l1.801.945,1.741.634,2.794,1.573s-1.277,3.523.196,6.388c0,0-3.579,2.76-4.702,2.751" fill="none" stroke="#231f20" stroke-linecap="round" stroke-linejoin="round" stroke-width=".5"/><path d="M226.293,83.506l2.174,1.134s1.458-2.716,4.832-3.37l.082-2.293s-3.426-.586-7.087,4.529Z" fill="none" stroke="#231f20" stroke-linecap="round" stroke-linejoin="round" stroke-width=".5"/><path d="M234.671,81.281s3.119.026,5.218,2.647l1.819-1.225s-2.775-3.805-7.017-3.902l-.021,2.48Z" fill="none" stroke="#231f20" stroke-linecap="round" stroke-linejoin="round" stroke-width=".5"/><path d="M228.396,93.071l-1.884,1.472s1.966,3.55,7.02,3.53l-.104-2.419s-2.434.104-5.031-2.584Z" fill="none" stroke="#231f20" stroke-linecap="round" stroke-linejoin="round" stroke-width=".5"/><path d="M234.55,95.664l.231,2.234s4.556-.21,6.964-4.654l-1.864-.945s-1.959,2.96-5.331,3.366Z" fill="none" stroke="#231f20" stroke-linecap="round" stroke-linejoin="round" stroke-width=".5"/><path d="M245.904,93.312l-.101.374-.445.435-.828-.69-.831-.348c-.831-.397-3.125-1.928-3.125-1.928,1.645-3.01-.046-6.194-.046-6.194,0,0,2.805-.952,3.854-3.138,0,0,1.133-.478,1.382-.915,0,0,.883.056.924,1.032l-.017,2.048" fill="none" stroke="#231f20" stroke-linecap="round" stroke-linejoin="round" stroke-width=".5"/><path d="M250.667,81.289l3.518-3.97,5.843-.391s1.666.355,1.643,2.989c-.022,2.633-.195,11.557-.195,11.557,0,0-.116,2.145-1.689,2.425s-5.845.586-5.845.586l-3.456-3.345.181-9.85Z" fill="none" stroke="#231f20" stroke-linecap="round" stroke-linejoin="round" stroke-width=".5"/><path d="M251.802,92.321l3.093-.121s1.919-.569,2.033-2.471l.154-12.533" fill="none" stroke="#231f20" stroke-linecap="round" stroke-linejoin="round" stroke-width=".5"/><path d="M240.599,99.837c2.719-2.367,4.114-4.843,4.114-4.843-.631-.786-2.15-1.042-2.15-1.042-3.181,4.851-7.895,5.202-7.895,5.202,0,0,.437.54-.305,1.217" fill="none" stroke="#231f20" stroke-linecap="round" stroke-linejoin="round" stroke-width=".5"/><path d="M233.234,100.263c.594-.629-.04-1.122-.04-1.122-4.664.205-7.817-4.113-7.817-4.113l-2.166.811" fill="none" stroke="#231f20" stroke-linecap="round" stroke-linejoin="round" stroke-width=".5"/><path d="M221.881,96.462l2.11-.031.217,3.416s.235,1.27,1.56,1.183,21.017-1.582,21.017-1.582c0,0,.686.152.647-1.068s-.168-3.318-.168-3.318l1.767-.034.311,3.856s.473,2.101-1.397,2.72l-23.766,1.754s-1.961-.211-2.14-2.31l-.158-4.586Z" fill="none" stroke="#231f20" stroke-linecap="round" stroke-linejoin="round" stroke-width=".5"/><path d="M221.881,96.462l-1.477.573.017,3.853s.318,3.026,3.758,2.47" fill="none" stroke="#231f20" stroke-linecap="round" stroke-linejoin="round" stroke-width=".5"/><polyline points="245.658 99.293 245.494 95.488 247.264 95.063" fill="none" stroke="#231f20" stroke-linecap="round" stroke-linejoin="round" stroke-width=".5"/><path d="M220.252,85.914l-.056,6.73s1.856.991,2.081-2.324c0,0,.331-4.387-2.024-4.406Z" fill="none" stroke="#231f20" stroke-linecap="round" stroke-linejoin="round" stroke-width=".5"/><path d="M221.923,86.562c2.06-.216,1.575,4.583,1.575,4.583l-1.06.06-.016,1.918-.334.793-.021,2.46" fill="none" stroke="#231f20" stroke-linecap="round" stroke-linejoin="round" stroke-width=".5"/><polyline points="223.31 91.393 223.295 93.13 222.961 93.923 222.94 96.384" fill="none" stroke="#231f20" stroke-linecap="round" stroke-linejoin="round" stroke-width=".5"/><polyline points="221.406 92.607 221.4 93.331 221.066 94.124 221.045 96.585" fill="none" stroke="#231f20" stroke-linecap="round" stroke-linejoin="round" stroke-width=".5"/><path d="M245.455,92.554l1.418-.139-.133-2.188.409-.474.024-2.916s-.493-1.513-1.532-1.37c0,0-.886.093-.976,1.727l-.021,2.489.626.785.185,2.088Z" fill="none" stroke="#231f20" stroke-linecap="round" stroke-linejoin="round" stroke-width=".5"/><path d="M247.051,92.341l.127-.058.558-.253-.136-1.922.409-.474.024-2.916s-.493-1.513-1.532-1.37l-.861.119" fill="none" stroke="#231f20" stroke-linecap="round" stroke-linejoin="round" stroke-width=".5"/><polyline points="246.014 92.556 246.002 93.967 246.45 94.541 246.445 95.081" fill="none" stroke="#231f20" stroke-linecap="round" stroke-linejoin="round" stroke-width=".5"/><polyline points="246.861 92.323 246.849 93.734 247.298 94.308 247.293 94.848" fill="none" stroke="#231f20" stroke-linecap="round" stroke-linejoin="round" stroke-width=".5"/><polyline points="247.679 92.089 247.667 93.5 248.115 94.074 248.111 94.615" fill="none" stroke="#231f20" stroke-linecap="round" stroke-linejoin="round" stroke-width=".5"/><ellipse cx="245.889" cy="88.086" rx="1.255" ry=".463" transform="translate(155.739 333.225) rotate(-89.518)" fill="none" stroke="#231f20" stroke-linecap="round" stroke-linejoin="round" stroke-width=".5"/><ellipse cx="221.136" cy="89.309" rx="1.255" ry=".463" transform="translate(129.971 309.687) rotate(-89.518)" fill="none" stroke="#231f20" stroke-linecap="round" stroke-linejoin="round" stroke-width=".5"/><ellipse cx="244.748" cy="75.651" rx="2.201" ry="2.127" transform="translate(55.609 248.426) rotate(-59.587)" fill="none" stroke="#231f20" stroke-linecap="round" stroke-linejoin="round" stroke-width=".5"/><line x1="244.874" y1="74.251" x2="244.852" y2="76.963" fill="none" stroke="#231f20" stroke-linecap="round" stroke-linejoin="round" stroke-width=".5"/><ellipse cx="222.285" cy="76.869" rx="2.027" ry="1.921" transform="translate(83.46 266.729) rotate(-72.902)" fill="none" stroke="#231f20" stroke-linecap="round" stroke-linejoin="round" stroke-width=".5"/><line x1="222.399" y1="75.574" x2="222.378" y2="78.081" fill="none" stroke="#231f20" stroke-linecap="round" stroke-linejoin="round" stroke-width=".5"/><line x1="221.336" y1="76.958" x2="223.362" y2="76.816" fill="none" stroke="#231f20" stroke-linecap="round" stroke-linejoin="round" stroke-width=".5"/><path d="M245.778,85.242l.011-1.338s1.532.124,1.817,1.762" fill="none" stroke="#231f20" stroke-linecap="round" stroke-linejoin="round" stroke-width=".5"/><path d="M250.651,83.904l2.358,1.147s1.317.791-.292,1.298l-2.038-.928" fill="none" stroke="#231f20" stroke-linecap="round" stroke-linejoin="round" stroke-width=".5"/><path d="M250.699,82.864l3.916,1.897s1.317.791-.292,1.298l-1.487.291" fill="none" stroke="#231f20" stroke-linecap="round" stroke-linejoin="round" stroke-width=".5"/><path d="M254.526,90.671l1.487-.291c1.609-.507.292-1.298.292-1.298l-2.357-1.166-2.208.141,2.958,1.315s1.317.791-.292,1.298l-2.718-1.259.008-.957" fill="none" stroke="#231f20" stroke-linecap="round" stroke-linejoin="round" stroke-width=".5"/><path d="M253.041,78.657l1.699.827s1.317.791-.292,1.298l-2.038-.928" fill="none" stroke="#231f20" stroke-linecap="round" stroke-linejoin="round" stroke-width=".5"/><path d="M253.673,77.898l2.674,1.295s1.317.791-.292,1.298l-1.487.291" fill="none" stroke="#231f20" stroke-linecap="round" stroke-linejoin="round" stroke-width=".5"/><path d="M267.182,81.128l.225-7.292s-.25-.834-1.924-.783l-17.061.754" fill="none" stroke="#231f20" stroke-linecap="round" stroke-linejoin="round" stroke-width=".5"/><polyline points="249.16 100.868 266.611 99.67 266.743 95.664" fill="none" stroke="#231f20" stroke-linecap="round" stroke-linejoin="round" stroke-width=".5"/><path d="M263.988,93.759l7.31,2.565s1.776.734,2.345-.7l.088-11.035s.344-1.16-1.323-1.672l-6.704-1.785s-1.335-.177-1.564.541" fill="none" stroke="#231f20" stroke-linecap="round" stroke-linejoin="round" stroke-width=".5"/><path d="M265.2,82.903l5.232,1.483s.892-.048.88,1.281l-.077,9.134" fill="none" stroke="#231f20" stroke-linecap="round" stroke-linejoin="round" stroke-width=".5"/><line x1="265.648" y1="85.591" x2="265.602" y2="91.057" fill="none" stroke="#231f20" stroke-linecap="round" stroke-linejoin="round" stroke-width=".5"/><line x1="266.48" y1="85.901" x2="266.434" y2="91.367" fill="none" stroke="#231f20" stroke-linecap="round" stroke-linejoin="round" stroke-width=".5"/><line x1="267.312" y1="86.212" x2="267.266" y2="91.677" fill="none" stroke="#231f20" stroke-linecap="round" stroke-linejoin="round" stroke-width=".5"/><ellipse cx="265.607" cy="78.894" rx=".906" ry=".7" transform="translate(161.434 335.642) rotate(-84.459)" fill="none" stroke="#231f20" stroke-linecap="round" stroke-linejoin="round" stroke-width=".5"/><path d="M244.635,72.548s3.554-.184,3.969,2.199" fill="none" stroke="#231f20" stroke-linecap="round" stroke-linejoin="round" stroke-width=".5"/><line x1="243.65" y1="75.701" x2="246.113" y2="75.603" fill="none" stroke="#231f20" stroke-linecap="round" stroke-linejoin="round" stroke-width=".5"/><line x1="268.654" y1="95.793" x2="268.654" y2="101.775" fill="none" stroke="#231f20" stroke-linecap="round" stroke-linejoin="round" stroke-width=".5"/><ellipse cx="306.597" cy="89.054" rx=".751" ry=".921" fill="#231f20"/><ellipse cx="306.597" cy="86.211" rx=".751" ry=".921" fill="#231f20"/><ellipse cx="306.597" cy="83.369" rx=".751" ry=".921" fill="#231f20"/><path d="M307.715,106.921h0c-.643-.058-1.152-.659-1.131-1.335l.161-5.104c.021-.676.565-1.181,1.208-1.123h0c.643.058,1.152.659,1.131,1.335l-.161,5.104c-.021.676-.565,1.181-1.208,1.123Z" fill="none" stroke="#231f20" stroke-miterlimit="10" stroke-width=".5"/><ellipse cx="116.017" cy="93.428" rx=".887" ry=".961" fill="#231f20"/><ellipse cx="96.331" cy="95.839" rx=".878" ry=".95" transform="translate(-3.657 3.821) rotate(-2.23)" fill="#231f20"/><ellipse cx="96.204" cy="92.567" rx=".878" ry=".95" transform="translate(-3.529 3.814) rotate(-2.23)" fill="#231f20"/><ellipse cx="97.927" cy="140.279" rx=".878" ry=".95" transform="translate(-9.552 7.177) rotate(-4.002)" fill="#231f20"/><ellipse cx="97.861" cy="137.021" rx=".878" ry=".95" transform="translate(-9.325 7.165) rotate(-4.002)" fill="#231f20"/><polygon points="149.851 81.862 150.99 81.827 150.468 82.998 149.851 81.862" fill="#231f20"/><polygon points="111.121 84.671 112.26 84.637 111.738 85.807 111.121 84.671" fill="#231f20"/><polygon points="90.361 85.934 91.5 85.899 90.978 87.07 90.361 85.934" fill="#231f20"/><polygon points="69.042 86.734 70.181 86.699 69.659 87.87 69.042 86.734" fill="#231f20"/><polyline points="153.527 141.506 47.799 152.948 45.36 115.273 39.264 115.639" fill="none" stroke="#231f20" stroke-linecap="round" stroke-linejoin="round" stroke-width=".5"/><g clip-path="url(#b)"><path d="M147.428,117.578c-7.189-6.461-14.94-13.897-21.886-20.698-2.399-2.335-4.875-4.588-7.31-6.884-.052-.049-.054-.131-.007-.184l8.137-9.18c.09-.102.249-.108.346-.013,7.015,6.637,14.341,13.564,21.106,20.38-7.148-6.408-14.458-13.367-21.44-20.03,0,0,.346-.013.346-.013l-8.301,9.032s-.007-.183-.007-.183c2.419,2.313,4.797,4.67,7.252,6.945,7.091,6.589,15.169,14.008,21.763,20.828h0Z" fill="#231f20"/><path d="M147.309,123.161c-9.835-8.762-19.538-18.616-29.195-27.583,4.275-5.204,9.386-10.224,14.005-15.301.099-.104.264-.109.368-.01,2.572,2.436,5.118,4.899,7.654,7.372,2.472,2.466,5.297,5.003,7.561,7.471-5.237-4.772-10.428-9.595-15.572-14.467,0,0,.367-.011.367-.011-4.687,5.023-9.443,9.981-14.198,14.941,0,0-.005-.184-.005-.184,2.418,2.314,4.798,4.668,7.253,6.944,7.092,6.587,15.167,14.011,21.763,20.828h0Z" fill="#231f20"/><path d="M147.37,128.566c-7.535-6.468-14.608-13.436-21.901-20.166,0,0-7.359-6.658-7.359-6.658-.085-.077-.09-.21-.009-.293,3.287-3.539,6.603-7.05,9.945-10.537,2.987-2.955,7.217-7.616,10.179-10.315-2.789,3.098-6.93,7.559-9.814,10.662-3.31,3.517-6.646,7.01-10.011,10.474l-.009-.292,7.21,6.82c7.204,6.749,14.984,13.327,21.771,20.306h0Z" fill="#231f20"/><path d="M147.764,134.77c-7.484-6.522-14.688-13.349-21.891-20.177,0,0-7.333-6.687-7.333-6.687-.061-.056-.064-.152-.009-.213,8.194-9.201,16.589-18.634,25.083-27.359-8.11,9.346-16.416,18.517-24.858,27.563,0,0-.009-.213-.009-.213l7.236,6.791c7.294,6.651,14.944,13.371,21.781,20.295h0Z" fill="#231f20"/><path d="M148.245,140.973c-7.277-6.427-15.185-13.78-22.258-20.513-2.43-2.325-4.919-4.588-7.405-6.854-.048-.043-.05-.119-.008-.167,6.857-7.796,13.704-15.602,20.718-23.258,0,0,7.018-7.653,7.018-7.653l.006.141c-.007-.019-2.758-2.676-2.708-2.713.044-.054,2.814,2.567,2.848,2.566.04.037.041.101.006.141l-6.844,7.809c-6.783,7.553-14.134,16.102-20.874,22.959,9.581,9.069,20.299,18.302,29.501,27.541h0Z" fill="#231f20"/><path d="M144.268,142.739c-8.765-7.566-16.992-15.714-25.542-23.515,4.24-5.297,9.146-10.482,13.673-15.68,4.604-5.068,9.322-10.44,14.007-15.235-4.483,5.244-9.023,10.437-13.617,15.583-4.53,4.919-9.511,10.814-13.913,15.171,8.368,7.918,17.415,15.555,25.393,23.676h0Z" fill="#231f20"/><path d="M147.523,92.739c-8.968,10.915-19.009,21.713-28.186,32.501,0,0-.011-.205-.011-.205,3.225,2.93,11.455,10.419,14.532,13.293,0,0,4.798,4.48,4.798,4.48,0,0-.328.019-.328.019,3.278-3.689,6.483-7.52,9.822-11.117-3.047,3.853-6.333,7.608-9.476,11.414-.08.096-.222.108-.317.029-.008.005-4.841-4.445-4.85-4.445-3.069-2.811-11.246-10.505-14.381-13.456-.058-.053-.062-.145-.011-.205,9.453-10.488,18.825-22.183,28.407-32.307h0Z" fill="#231f20"/><path d="M134.933,141.076c1.749-2.6,4.198-4.562,6.133-6.995,1.959-2.401,4.008-4.817,6.335-6.844-1.785,2.531-3.947,4.823-6.131,7.027-2.211,2.116-3.965,5.032-6.337,6.812h0Z" fill="#231f20"/><path d="M147.567,98.613c-4.588,5.536-9.467,10.809-14.363,16.068-4.798,5.347-9.434,10.839-14.28,16.144,0,0-.017-.359-.017-.359,3.319,3.102,6.606,6.238,9.846,9.424.023.02-.012.058-.034.037-3.427-2.983-6.81-6.016-10.16-9.084-.102-.095-.109-.256-.017-.36,4.76-5.381,9.729-10.575,14.535-15.914,4.71-5.357,9.499-11.049,14.489-15.956h0Z" fill="#231f20"/><path d="M127.946,144.659c-3.135-2.694-6.205-5.46-9.229-8.277-.087-.08-.091-.216-.014-.304,2.412-2.648,4.924-5.205,7.295-7.889,6.856-7.77,14.502-16.653,21.678-23.855-6.661,7.912-14.457,16.361-21.55,23.97-2.428,2.633-4.714,5.394-7.102,8.064,0,0-.014-.304-.014-.304,2.97,2.798,6.25,5.709,8.935,8.595h0Z" fill="#231f20"/><path d="M122.248,145.004c-1.19-1.01-2.369-2.031-3.531-3.07-.068-.061-.075-.165-.015-.234,2.339-2.71,4.718-5.384,7.196-7.97,7.241-7.921,14.024-16.254,21.555-23.915-2.046,2.71-4.67,5.486-6.952,8.18-4.698,5.398-9.759,10.469-14.415,15.903-2.297,2.745-4.692,5.402-7.127,8.023l-.011-.238c1.051,1.084,2.445,2.24,3.301,3.319h0Z" fill="#231f20"/><path d="M147.543,112.167c-5.171-4.345-9.807-9.254-14.742-13.848-5.007-4.517-9.967-9.085-14.741-13.849-.068-.061-.07-.17-.002-.232,1.009-.909,2.012-1.913,3.051-2.75-.869,1.019-1.891,1.993-2.826,2.98,0,0-.002-.232-.002-.232,5.023,4.501,9.859,9.199,14.648,13.947,4.791,4.671,10.229,9.096,14.613,13.984h0Z" fill="#231f20"/><path d="M120.937,81.167c4.761,3.92,8.867,8.525,13.456,12.626,4.578,4.112,9.052,8.332,13.302,12.788.022.021-.012.057-.034.036-4.669-4.016-9.114-8.266-13.456-12.626-4.262-4.37-9.35-8.305-13.268-12.824h0Z" fill="#231f20"/><path d="M147.453,116.037c-3.992,5.013-8.682,9.384-12.859,14.228-4.187,4.833-8.486,9.564-13.024,14.077-.02.022-.058-.011-.037-.034,4.09-4.922,8.419-9.626,12.859-14.228,4.452-4.522,8.453-9.863,13.061-14.043h0Z" fill="#231f20"/><path d="M130.569,139.598c2.485-3.325,5.662-6.004,8.331-9.16,2.694-3.125,5.474-6.261,8.531-9.007-2.518,3.259-5.416,6.268-8.33,9.193-2.941,2.834-5.437,6.481-8.532,8.974h0Z" fill="#231f20"/><path d="M126.799,143.668c.035-.452.318-.642.663-.799.351-.486.489-1.102,1.215-1.229.02-.005.04.013.037.034-.072.734-.675.918-1.133,1.306-.13.356-.298.654-.745.722-.02.004-.039-.014-.037-.034h0Z" fill="#231f20"/><path d="M143.335,142.69c.439-.886,1.132-1.523,1.883-2.117,1.03-1.187,1.864-2.655,3.283-3.42-.7,1.477-2.047,2.41-3.164,3.53-.527.733-1.187,1.715-2.002,2.007h0Z" fill="#231f20"/></g><polygon points="305.062 145.055 316.689 149.599 311.808 150.216 332.885 153.223 332.886 147.74 327.715 148.371 315.845 143.73 305.062 145.055" fill="#221f20"/><polygon points="332.886 147.74 332.885 153.223 311.808 150.216 316.689 149.599 305.062 145.055 315.845 143.73 327.715 148.371 332.886 147.74" fill="none" stroke="#fff" stroke-linecap="round" stroke-linejoin="round" stroke-width="4"/><polygon points="305.062 145.055 316.689 149.599 311.808 150.216 332.885 153.223 332.886 147.74 327.715 148.371 315.845 143.73 305.062 145.055" fill="#221f20"/><polygon points="316.698 138.915 319.639 78.914 319.125 78.473 303.403 79.557 302.874 80.091 300.521 141.121 301.183 141.562 316.257 139.651 316.698 138.915" fill="none" stroke="#231f20" stroke-linecap="round" stroke-linejoin="round" stroke-width=".5"/><polyline points="313.88 77.38 298.144 78.189 297.63 78.998 295.277 138.851" fill="none" stroke="#231f20" stroke-linecap="round" stroke-linejoin="round" stroke-width=".5"/><polyline points="12.358 71.775 12.105 73.049 8.754 73.093 8.267 73.885 5.555 73.937 3.499 42.008 4.143 41.456 6.377 41.4 6.467 42.089 9.777 42.029 9.831 41.368 10.257 41.325 10.678 42.004" fill="none" stroke="#231f20" stroke-linecap="round" stroke-linejoin="round" stroke-width=".5"/><ellipse cx="7.505" cy="49.486" rx="1.547" ry="1.925" transform="translate(-42.057 56.468) rotate(-89.395)" fill="none" stroke="#231f20" stroke-linecap="round" stroke-linejoin="round" stroke-width=".5"/><ellipse cx="8.693" cy="66.17" rx="2.026" ry="2.266" transform="translate(-57.565 74.164) rotate(-89.395)" fill="none" stroke="#231f20" stroke-linecap="round" stroke-linejoin="round" stroke-width=".5"/><path d="M102.45,145.914l-.887.073c-.166.014-.303-.112-.303-.28v-.897c0-.168.136-.316.302-.33l.887-.073c.166-.014.303.112.303.28v.897c0,.168-.136.316-.302.33Z" fill="#231f20"/><path d="M82.882,147.981l-.887.073c-.166.014-.303-.112-.303-.28v-.897c0-.168.136-.316.302-.33l.887-.073c.166-.014.303.112.303.28v.897c0,.168-.136.316-.302.33Z" fill="#231f20"/><path d="M61.178,150.283l-.887.073c-.166.014-.303-.112-.303-.28v-.897c0-.168.136-.316.302-.33l.887-.073c.166-.014.303.112.303.28v.897c0,.168-.136.316-.302.33Z" fill="#231f20"/><path d="M340.173,120.816l-.887.073c-.166.014-.303-.112-.303-.28v-.897c0-.168.136-.316.302-.33l.887-.073c.166-.014.303.112.303.28v.897c0,.168-.136.316-.302.33Z" fill="#231f20"/><path d="M114.803,91.689l.115,3.458,3.706-.198-.216-6.533-3.706.198.009.26s.241.009.241.261l.009,2.191-.158.364Z" fill="#231f20"/><ellipse cx="116.733" cy="93.567" rx=".852" ry=".832" transform="translate(-20.418 153.327) rotate(-62.258)" fill="#fff"/><path d="M117.758,89.72l-.006-.19-.247.013c-.035-.073-.096-.129-.17-.16l-.008-.255-.188.01.007.221-.269.014-.007-.221-.188.01.007.221-.265.014-.007-.221-.188.01.007.221-.262.014-.007-.221-.188.01.008.248c-.077.038-.137.104-.168.184l-.247.013.006.19.218-.012.009.269-.218.012.006.19.218-.012.009.269-.218.012.006.19.218-.012.009.269-.218.012.006.19.25-.013c.036.072.096.128.171.158l.008.253.188-.01-.007-.221.269-.014.007.221.188-.01-.007-.221.265-.014.007.221.188-.01-.007-.221.262-.014.007.221.188-.01-.008-.251c.074-.037.131-.101.163-.178l.25-.013-.006-.19-.218.012-.009-.269.218-.012-.006-.19-.218.012-.009-.269.218-.012-.006-.19-.218.012-.009-.269.218-.012ZM116.554,90.791l-.152.008-.395-.588.02.608-.136.007-.027-.827.151-.008.393.589-.018-.61.136-.007.027.827ZM117.062,90.764l-.16.009-.299-.813.149-.008.226.644.19-.666.145-.008-.252.842Z" fill="#fff" stroke="#231f20" stroke-miterlimit="10" stroke-width=".02"/><polygon points="134.289 142.387 129.517 142.974 129.505 140.488 134.278 140.02 134.289 142.387" fill="#231f20"/><path d="M130.818,142.345c-.042.004-.076-.006-.103-.03-.026-.024-.039-.057-.04-.1,0-.041.013-.077.039-.107.026-.03.06-.048.102-.052s.076.006.102.032c.026.026.039.059.039.1,0,.043-.012.078-.038.107-.025.029-.059.046-.101.05ZM130.781,141.833c0-.023-.003-.06-.009-.113-.006-.053-.012-.11-.019-.172-.007-.061-.013-.12-.019-.177s-.01-.102-.011-.133c-.004-.063-.008-.121-.013-.173s-.007-.093-.007-.122c0-.053.01-.092.031-.116.021-.025.046-.039.076-.041.031-.003.056.006.077.027.02.02.031.057.031.11,0,.029-.001.07-.004.122-.003.052-.007.111-.012.177-.001.032-.004.077-.01.135s-.011.119-.017.181c-.006.062-.012.121-.017.175-.005.054-.007.092-.007.115l-.069.007Z" fill="#fff" stroke="#fff" stroke-miterlimit="10" stroke-width=".05"/><path d="M133.312,142.025l-.846.088c-.159.016-.288-.101-.289-.261v-.855c0-.16.13-.304.288-.321l.846-.088c.159-.016.288.101.289.261v.855c0,.16-.13.304-.288.321Z" fill="#fff"/><polygon points="331.871 95.951 327.041 96.311 327.487 87.041 332.329 86.745 331.871 95.951" fill="none" stroke="#231f20" stroke-linecap="round" stroke-linejoin="round" stroke-width=".5"/><polyline points="327.046 96.254 326.157 95.743 326.602 86.473 331.445 86.176 332.335 86.724" fill="none" stroke="#231f20" stroke-linecap="round" stroke-linejoin="round" stroke-width=".5"/><line x1="327.487" y1="87.041" x2="326.602" y2="86.473" fill="none" stroke="#231f20" stroke-linecap="round" stroke-linejoin="round" stroke-width=".5"/><polyline points="326.892 111.303 327.135 103.591 331.977 103.295 331.822 108.796" fill="none" stroke="#231f20" stroke-linecap="round" stroke-linejoin="round" stroke-width=".5"/><polyline points="325.957 111.856 326.25 103.023 331.093 102.726 331.983 103.274" fill="none" stroke="#231f20" stroke-linecap="round" stroke-linejoin="round" stroke-width=".5"/><line x1="327.135" y1="103.591" x2="326.25" y2="103.023" fill="none" stroke="#231f20" stroke-linecap="round" stroke-linejoin="round" stroke-width=".5"/><path d="M162.635,117.559v6.878s0,1.376-.963.688l-8.666-5.86" fill="none" stroke="#231f20" stroke-linecap="round" stroke-linejoin="round" stroke-width=".5"/><path d="M164.851,118.825s-.077-.292-.064-.639c.017-.476.201-1.057.98-1.13,1.346-.126,60.04-5.217,60.04-5.217l3.282,1.599s.631.084.673,1.557l-.463,27.643-61.004,7.573s-1.262.168-1.304-1.262l-.14-29.211s-.77-1.821-1.968-1.629" fill="none" stroke="#231f20" stroke-linecap="round" stroke-linejoin="round" stroke-width=".5"/><polyline points="165.955 150.886 166.424 151.261 229.282 143.815 229.299 142.638" fill="none" stroke="#231f20" stroke-linecap="round" stroke-linejoin="round" stroke-width=".5"/><line x1="167.87" y1="119.096" x2="227.611" y2="113.866" fill="none" stroke="#231f20" stroke-linecap="round" stroke-linejoin="round" stroke-width=".5"/><path d="M168.763,134.331c1.92-2.798,4.542-4.961,6.649-7.592,2.131-2.601,4.351-5.215,6.851-7.442-1.956,2.731-4.291,5.221-6.647,7.624-2.383,2.315-4.309,5.432-6.853,7.409h0Z" fill="#231f20"/><path d="M168.655,128.732c.744-1.278,1.752-2.318,2.817-3.315,1.551-1.851,2.889-3.976,4.843-5.424-1.2,2.135-3.088,3.742-4.721,5.53-.84,1.125-1.8,2.524-2.939,3.209h0Z" fill="#231f20"/><path d="M168.311,122.993c.133-.549.513-.838.954-1.091.511-.644.816-1.431,1.698-1.715.021-.009.044.013.036.034-.235.897-1.002,1.246-1.617,1.792-.227.454-.495.851-1.035,1.014-.021.008-.043-.013-.036-.034h0Z" fill="#231f20"/><path d="M168.829,140.449c2.78-3.859,6.272-7.094,9.24-10.788,2.995-3.665,6.075-7.344,9.444-10.642-2.814,3.794-6.017,7.349-9.238,10.822-3.251,3.381-6.032,7.564-9.447,10.609h0Z" fill="#231f20"/><path d="M169.032,146.189c3.663-4.789,8.032-8.947,11.882-13.57,3.861-4.612,7.834-9.124,12.05-13.422.02-.022.058.01.037.033-3.762,4.7-7.766,9.185-11.882,13.57-4.13,4.306-7.797,9.422-12.087,13.388h0Z" fill="#231f20"/><path d="M172.305,148.506c4.118-5.336,8.944-10.044,13.25-15.215,4.316-5.16,8.745-10.221,13.418-15.068.02-.023.058.01.038.033-4.217,5.248-8.677,10.281-13.25,15.215-4.586,4.854-8.707,10.519-13.455,15.034h0Z" fill="#231f20"/><path d="M178.315,147.17c4.119-5.278,8.944-9.923,13.25-15.035,4.317-5.101,8.746-10.101,13.417-14.886.02-.022.058.01.037.033-4.218,5.189-8.677,10.162-13.25,15.035-4.585,4.793-8.709,10.399-13.454,14.853h0Z" fill="#231f20"/><path d="M184.049,146.497c3.929-5.272,8.576-9.927,12.696-15.036,4.13-5.099,8.375-10.1,12.866-14.891.019-.023.058.009.038.032-4.029,5.185-8.305,10.16-12.696,15.036-4.405,4.797-8.332,10.398-12.904,14.859h0Z" fill="#231f20"/><path d="M189.735,145.635c3.916-5.188,8.547-9.753,12.652-14.778,4.116-5.014,8.346-9.929,12.821-14.631.02-.022.058.009.038.033-4.016,5.1-8.277,9.988-12.652,14.778-4.389,4.71-8.306,10.226-12.859,14.598h0Z" fill="#231f20"/><path d="M195.245,145.017c3.818-5.169,8.356-9.722,12.364-14.73,4.019-4.997,8.154-9.896,12.535-14.585.019-.023.058.009.038.032-3.918,5.082-8.084,9.955-12.364,14.73-4.295,4.695-8.11,10.193-12.573,14.552h0Z" fill="#231f20"/><path d="M200.779,144.151c3.821-5.145,8.36-9.673,12.37-14.656,4.022-4.972,8.158-9.847,12.54-14.511.019-.023.058.009.038.032-3.921,5.058-8.088,9.906-12.37,14.656-4.296,4.671-8.115,10.144-12.579,14.479h0Z" fill="#231f20"/><path d="M206.091,143.576c3.331-4.696,7.389-8.786,10.912-13.323,3.534-4.527,7.184-8.957,11.084-13.18.019-.023.058.008.038.032-3.432,4.611-7.114,9.015-10.912,13.323-3.813,4.229-7.138,9.253-11.123,13.148h0Z" fill="#231f20"/><path d="M211.169,143.097c2.06-3.131,4.842-5.65,7.093-8.621,2.277-2.941,4.642-5.898,7.3-8.478-2.097,3.066-4.583,5.902-7.09,8.654-2.538,2.663-4.593,6.115-7.303,8.445h0Z" fill="#231f20"/><path d="M216.483,142.459c1.602-2.609,3.93-4.608,5.725-7.057,1.82-2.419,3.73-4.856,5.932-6.914-1.642,2.542-3.669,4.859-5.722,7.089-2.083,2.143-3.679,5.069-5.935,6.882h0Z" fill="#231f20"/><path d="M221.231,141.779c.034-.507.341-.781.713-1.025.374-.608.526-1.33,1.307-1.618.02-.009.043.009.04.03-.073.829-.73,1.165-1.218,1.686-.138.423-.321.791-.802.957-.02.008-.043-.009-.04-.03h0Z" fill="#231f20"/><line x1="243.885" y1="128.165" x2="245.933" y2="125.545" fill="#231f20"/><path d="M243.865,128.15c.04-.507.35-.777.724-1.017.381-.603.541-1.325,1.324-1.604.02-.009.043.009.039.031-.082.828-.742,1.157-1.236,1.673-.142.421-.33.788-.812.948-.02.008-.042-.01-.039-.031h0Z" fill="#231f20"/><line x1="237.526" y1="121.659" x2="239.716" y2="119.316" fill="#231f20"/><path d="M237.508,121.642c.074-.491.396-.722.78-.917.416-.55.621-1.236,1.41-1.427.02-.007.042.013.036.034-.138.8-.807,1.051-1.328,1.503-.169.396-.378.734-.862.841-.02.006-.041-.013-.036-.034h0Z" fill="#231f20"/><path d="M168.728,123.724c4.209,3.249,7.777,7.196,11.817,10.63,4.029,3.444,7.957,7,11.667,10.795.022.02-.011.057-.034.037-4.119-3.347-8.019-6.933-11.817-10.63-3.719-3.709-8.254-6.967-11.633-10.832h0Z" fill="#231f20"/><path d="M171.419,120.307c4.692,3.7,8.742,8.098,13.265,11.983,4.512,3.895,8.922,7.902,13.114,12.148.022.02-.011.058-.034.037-4.601-3.798-8.984-7.835-13.265-11.983-4.201-4.16-9.22-7.87-13.08-12.185h0Z" fill="#231f20"/><path d="M177.051,119.893c4.618,3.625,8.596,7.948,13.046,11.759,4.439,3.821,8.776,7.753,12.895,11.924.022.02-.011.058-.034.037-4.528-3.723-8.838-7.685-13.046-11.759-4.128-4.085-9.074-7.72-12.861-11.961h0Z" fill="#231f20"/><path d="M182.83,119.227c4.588,3.647,8.532,7.987,12.951,11.818,4.408,3.841,8.713,7.792,12.799,11.982.022.02-.011.057-.034.037-4.498-3.744-8.775-7.725-12.951-11.818-4.096-4.103-9.011-7.761-12.765-12.019h0Z" fill="#231f20"/><path d="M188.463,119.015c4.526,3.572,8.408,7.84,12.765,11.596,4.346,3.767,8.589,7.645,12.613,11.761.022.02-.011.057-.034.037-4.435-3.669-8.651-7.577-12.765-11.596-4.034-4.03-8.887-7.613-12.579-11.798h0Z" fill="#231f20"/><path d="M193.893,118.604c4.45,3.468,8.26,7.633,12.542,11.286,4.271,3.663,8.44,7.437,12.391,11.451.022.02-.011.057-.034.037-4.36-3.565-8.502-7.37-12.542-11.286-3.961-3.928-8.738-7.404-12.358-11.488h0Z" fill="#231f20"/><path d="M199.336,117.536c4.209,3.249,7.777,7.196,11.817,10.63,4.029,3.444,7.957,7,11.667,10.795.022.02-.011.057-.034.037-4.119-3.347-8.019-6.933-11.817-10.63-3.719-3.709-8.254-6.967-11.633-10.832h0Z" fill="#231f20"/><path d="M204.389,117.164c3.566,2.629,6.494,5.958,9.893,8.772,3.368,2.84,6.749,5.766,9.743,8.974-3.5-2.662-6.755-5.708-9.926-8.771-3.08-3.091-6.969-5.726-9.71-8.976h0Z" fill="#231f20"/><path d="M209.977,116.615c2.907,2.029,5.178,4.759,7.918,6.974,2.709,2.24,5.433,4.568,7.767,7.176-2.84-2.064-5.438-4.508-7.95-6.972-2.423-2.491-5.65-4.527-7.735-7.178h0Z" fill="#231f20"/><path d="M215.675,116.146c2.382,1.609,4.117,3.91,6.33,5.703,2.181,1.816,4.376,3.723,6.176,5.902-2.313-1.646-4.382-3.662-6.362-5.701-1.893-2.064-4.59-3.683-6.144-5.903h0Z" fill="#231f20"/><path d="M220.774,115.548c1.109.631,1.973,1.519,2.794,2.464,1.562,1.355,3.402,2.505,4.551,4.254-1.852-1.014-3.163-2.697-4.66-4.134-.955-.722-2.174-1.572-2.685-2.584h0Z" fill="#231f20"/><line x1="237.307" y1="126.342" x2="243.902" y2="119.043" fill="#231f20"/><path d="M237.289,126.325c.619-1.102,1.496-1.96,2.431-2.775,1.336-1.551,2.468-3.38,4.199-4.519-.995,1.84-2.659,3.141-4.078,4.628-.711.948-1.548,2.161-2.552,2.666h0Z" fill="#231f20"/><line x1="239.673" y1="128.607" x2="246.066" y2="121.006" fill="#231f20"/><path d="M239.654,128.591c.587-1.132,1.441-2.03,2.354-2.886,1.293-1.613,2.372-3.496,4.074-4.711-.941,1.889-2.572,3.264-3.95,4.815-.685.982-1.486,2.233-2.478,2.782h0Z" fill="#231f20"/><line x1="237.66" y1="122.063" x2="243.499" y2="128.154" fill="#231f20"/><path d="M237.678,122.045c.934.571,1.606,1.38,2.23,2.245,1.25,1.233,2.792,2.284,3.601,3.881-1.561-.917-2.539-2.455-3.717-3.769-.775-.65-1.798-1.447-2.113-2.357h0Z" fill="#231f20"/><line x1="240.126" y1="119.596" x2="245.814" y2="125.284" fill="#231f20"/><path d="M240.144,119.579c.911.516,1.565,1.277,2.173,2.093,1.218,1.148,2.724,2.11,3.507,3.63-1.522-.827-2.474-2.284-3.622-3.516-.755-.598-1.757-1.34-2.058-2.208h0Z" fill="#231f20"/><path d="M226.199,115c.402-.019.543.215.654.512.059.072.146.113.243.143.392.114.68.345.748.821.003.02-.013.038-.033.037-.688-.004-.735-.49-1.066-.881-.306-.078-.555-.193-.58-.595-.002-.02.014-.037.033-.037h0Z" fill="#231f20"/><path d="M169.135,129.507c3.249,2.415,5.851,5.522,8.93,8.121,3.048,2.624,6.108,5.334,8.777,8.321-3.182-2.448-6.115-5.276-8.963-8.12-2.757-2.871-6.328-5.297-8.744-8.322h0Z" fill="#231f20"/><path d="M168.46,135.099c2.388,1.564,4.137,3.828,6.357,5.578,2.189,1.773,4.393,3.638,6.206,5.779-2.319-1.602-4.398-3.577-6.389-5.576-1.904-2.025-4.606-3.595-6.174-5.781h0Z" fill="#231f20"/><path d="M168.867,140.925c1.043.602,1.837,1.456,2.585,2.368,1.447,1.301,3.176,2.404,4.2,4.09-1.742-.967-2.932-2.59-4.312-3.973-.888-.69-2.035-1.513-2.474-2.486h0Z" fill="#231f20"/><path d="M168.978,146.705c.487.061.717.374.914.75.548.398,1.227.584,1.422,1.361.007.02-.012.042-.033.037-.793-.116-1.046-.772-1.497-1.278-.393-.157-.729-.355-.838-.833-.006-.02.013-.041.033-.037h0Z" fill="#231f20"/><ellipse cx="164.135" cy="126.779" rx=".596" ry="2.012" transform="translate(-5.314 7.195) rotate(-2.471)" fill="none" stroke="#231f20" stroke-linecap="round" stroke-linejoin="round" stroke-width=".5"/><ellipse cx="159.741" cy="119.81" rx=".734" ry="2.485" transform="translate(-5.017 6.999) rotate(-2.471)" fill="none" stroke="#231f20" stroke-linecap="round" stroke-linejoin="round" stroke-width=".5"/><ellipse cx="164.328" cy="145.886" rx=".596" ry="2.012" transform="translate(-6.407 7.554) rotate(-2.583)" fill="none" stroke="#231f20" stroke-linecap="round" stroke-linejoin="round" stroke-width=".5"/><path d="M225.707,137.533l-.424.022c-.36.018-.656-.255-.657-.607l-.002-.65c0-.352.293-.656.654-.674l.424-.022c.36-.018.656.255.657.607l.002.65c0,.352-.293.656-.654.674Z" fill="#231f20"/><line x1="244.28" y1="119.058" x2="245.909" y2="120.552" fill="#231f20"/><path d="M244.297,119.04c.403-.014.541.221.649.519.058.073.145.115.241.146.391.118.677.352.739.829.003.02-.014.038-.034.037-.688-.012-.73-.498-1.056-.892-.306-.082-.553-.199-.573-.601-.002-.02.014-.037.034-.037h0Z" fill="#231f20"/><line x1="237.219" y1="126.854" x2="239.078" y2="128.605" fill="#231f20"/><path d="M237.236,126.836c.433.02.6.287.736.616.46.335,1.022.421,1.123,1.135.004.02-.014.039-.034.036-.72-.059-.837-.614-1.2-1.053-.336-.115-.613-.267-.659-.697-.003-.02.014-.038.034-.036h0Z" fill="#231f20"/><polygon points="105.523 112 97.879 112.629 97.5 99.39 105.188 98.798 105.523 112" fill="none" stroke="#231f20" stroke-linecap="round" stroke-linejoin="round" stroke-width=".53"/><polyline points="97.88 112.644 96.703 111.869 96.323 98.631 103.714 98.067 105.195 98.768" fill="none" stroke="#231f20" stroke-linecap="round" stroke-linejoin="round" stroke-width=".53"/><line x1="97.494" y1="99.305" x2="96.471" y2="98.711" fill="none" stroke="#231f20" stroke-linecap="round" stroke-linejoin="round" stroke-width=".5"/><polygon points="106.343 133.511 98.7 134.144 98.32 120.906 106.009 120.314 106.343 133.511" fill="none" stroke="#231f20" stroke-linecap="round" stroke-linejoin="round" stroke-width=".53"/><polyline points="98.7 134.159 97.523 133.384 97.143 120.146 104.534 119.582 106.016 120.283" fill="none" stroke="#231f20" stroke-linecap="round" stroke-linejoin="round" stroke-width=".53"/><line x1="98.314" y1="120.82" x2="97.291" y2="120.226" fill="none" stroke="#231f20" stroke-linecap="round" stroke-linejoin="round" stroke-width=".5"/><ellipse cx="75.65" cy="97.16" rx=".877" ry=".951" transform="translate(-7.453 6.292) rotate(-4.54)" fill="#231f20"/><ellipse cx="75.502" cy="93.887" rx=".877" ry=".951" transform="translate(-7.194 6.27) rotate(-4.54)" fill="#231f20"/><ellipse cx="77.512" cy="141.6" rx=".877" ry=".951" transform="translate(-15.041 9.34) rotate(-6.287)" fill="#231f20"/><ellipse cx="77.427" cy="138.342" rx=".877" ry=".951" transform="translate(-14.685 9.311) rotate(-6.287)" fill="#231f20"/><polygon points="84.938 113.321 77.298 113.95 76.839 100.711 84.525 100.119 84.938 113.321" fill="none" stroke="#231f20" stroke-linecap="round" stroke-linejoin="round" stroke-width=".53"/><polyline points="77.299 113.965 76.117 113.19 75.658 99.951 83.045 99.388 84.531 100.089" fill="none" stroke="#231f20" stroke-linecap="round" stroke-linejoin="round" stroke-width=".53"/><line x1="76.833" y1="100.625" x2="75.806" y2="100.032" fill="none" stroke="#231f20" stroke-linecap="round" stroke-linejoin="round" stroke-width=".5"/><polygon points="85.887 134.831 78.248 135.465 77.789 122.226 85.474 121.634 85.887 134.831" fill="none" stroke="#231f20" stroke-linecap="round" stroke-linejoin="round" stroke-width=".53"/><polyline points="78.249 135.48 77.067 134.705 76.608 121.467 83.995 120.903 85.481 121.604" fill="none" stroke="#231f20" stroke-linecap="round" stroke-linejoin="round" stroke-width=".53"/><line x1="77.783" y1="122.141" x2="76.756" y2="121.547" fill="none" stroke="#231f20" stroke-linecap="round" stroke-linejoin="round" stroke-width=".5"/><ellipse cx="53.916" cy="98.617" rx=".879" ry=".948" transform="translate(-11.736 7.391) rotate(-7.075)" fill="#231f20"/><ellipse cx="53.749" cy="95.355" rx=".879" ry=".948" transform="translate(-11.335 7.346) rotate(-7.075)" fill="#231f20"/><ellipse cx="56.051" cy="142.922" rx=".879" ry=".949" transform="translate(-21.463 10.408) rotate(-8.911)" fill="#231f20"/><ellipse cx="55.946" cy="139.674" rx=".879" ry=".949" transform="translate(-20.961 10.353) rotate(-8.911)" fill="#231f20"/><polygon points="63.33 114.723 55.671 115.355 55.131 102.157 62.836 101.561 63.33 114.723" fill="none" stroke="#231f20" stroke-linecap="round" stroke-linejoin="round" stroke-width=".53"/><polyline points="55.672 115.37 54.482 114.599 53.941 101.4 61.348 100.833 62.842 101.53" fill="none" stroke="#231f20" stroke-linecap="round" stroke-linejoin="round" stroke-width=".53"/><line x1="55.124" y1="102.071" x2="54.09" y2="101.48" fill="none" stroke="#231f20" stroke-linecap="round" stroke-linejoin="round" stroke-width=".5"/><polygon points="64.411 136.168 56.753 136.805 56.213 123.607 63.918 123.011 64.411 136.168" fill="none" stroke="#231f20" stroke-linecap="round" stroke-linejoin="round" stroke-width=".53"/><polyline points="56.754 136.82 55.564 136.048 55.023 122.85 62.43 122.282 63.924 122.98" fill="none" stroke="#231f20" stroke-linecap="round" stroke-linejoin="round" stroke-width=".53"/><line x1="56.206" y1="123.521" x2="55.172" y2="122.93" fill="none" stroke="#231f20" stroke-linecap="round" stroke-linejoin="round" stroke-width=".5"/><path d="M341.503,77.31c.85.544,1.489,1.286,2.087,2.073,1.169,1.14,2.576,2.126,3.385,3.57-1.424-.875-2.37-2.271-3.48-3.477-.72-.611-1.649-1.34-1.992-2.166h0Z" fill="#231f20"/><path d="M338.852,69.522c1.197.887,2.185,1.973,3.132,3.105,1.748,1.714,3.734,3.269,5.128,5.291-2.004-1.44-3.531-3.421-5.223-5.197-1.065-.956-2.353-2.026-3.036-3.199h0Z" fill="#231f20"/><path d="M346.051,101.766c-.68-.366-1.148-.929-1.577-1.539-.885-.842-2.01-1.535-2.532-2.68,1.137.583,1.801,1.674,2.627,2.586.552.431,1.301.983,1.481,1.632h0Z" fill="#231f20"/><path d="M345.863,106.252c-.829-.499-1.45-1.2-2.032-1.947-1.137-1.07-2.512-1.982-3.294-3.361,1.388.801,2.307,2.13,3.388,3.266.7.568,1.61,1.251,1.938,2.042h0Z" fill="#231f20"/><path d="M339.657,72.649c.168-.508.539-.807.959-1.072.516-.626.866-1.373,1.688-1.701.017-.008.038.01.03.028-.29.836-1.02,1.22-1.621,1.765-.244.432-.526.816-1.026,1.008-.017.008-.037-.011-.03-.028h0Z" fill="#231f20"/><path d="M341.628,107.158c-.775-.446-1.341-1.092-1.869-1.785-1.047-.98-2.331-1.804-3.022-3.093,1.297.713,2.126,1.95,3.116,2.998.647.514,1.5,1.144,1.775,1.88h0Z" fill="#231f20"/><path d="M341.799,73.897c.357-.712.92-1.22,1.531-1.69.838-.948,1.516-2.129,2.67-2.726-.568,1.19-1.664,1.926-2.573,2.818-.427.587-.968,1.376-1.628,1.599h0Z" fill="#231f20"/><path d="M337.982,82.204c.81-1.193,1.827-2.184,2.891-3.136,1.595-1.75,3.022-3.732,4.937-5.139-1.312,1.996-3.181,3.534-4.84,5.231-.884,1.063-1.874,2.354-2.988,3.044h0Z" fill="#231f20"/><path d="M347.565,76.525c-.726,1.128-1.663,2.057-2.646,2.948-1.459,1.645-2.747,3.521-4.53,4.826,1.174-1.887,2.908-3.325,4.431-4.917.802-1,1.707-2.226,2.744-2.857h0Z" fill="#231f20"/><path d="M347.315,81.157c-.825,1.206-1.858,2.209-2.937,3.174-1.621,1.771-3.074,3.775-5.014,5.202,1.338-2.018,3.233-3.577,4.917-5.294.9-1.076,1.905-2.379,3.034-3.082h0Z" fill="#231f20"/><path d="M341.058,91.716c.564-.926,1.333-1.649,2.15-2.333,1.183-1.304,2.202-2.842,3.702-3.798-.906,1.549-2.356,2.641-3.605,3.89-.636.798-1.381,1.813-2.247,2.241h0Z" fill="#231f20"/><path d="M336.526,100.406c1.083-1.483,2.374-2.764,3.712-4.007,2.051-2.234,3.933-4.699,6.305-6.591-1.765,2.481-4.095,4.502-6.208,6.683-1.158,1.352-2.421,2.938-3.809,3.915h0Z" fill="#231f20"/><path d="M346.359,92.27c-1.419-1.112-2.63-2.425-3.8-3.783-2.119-2.091-4.476-4.022-6.242-6.421,2.376,1.814,4.273,4.176,6.337,6.327,1.286,1.183,2.802,2.478,3.705,3.877h0Z" fill="#231f20"/><path d="M339.198,79.834c1.097.797,1.984,1.792,2.83,2.833,1.581,1.563,3.401,2.969,4.625,4.837-1.838-1.292-3.196-3.118-4.72-4.743-.965-.865-2.151-1.846-2.735-2.926h0Z" fill="#231f20"/><path d="M346.482,95.857c-.878,1.243-1.961,2.283-3.091,3.283-1.706,1.832-3.247,3.898-5.27,5.384,1.425-2.081,3.404-3.698,5.173-5.476.951-1.113,2.01-2.454,3.187-3.191h0Z" fill="#231f20"/><path d="M340.267,106.427c.579-.923,1.361-1.64,2.19-2.318,1.205-1.296,2.25-2.828,3.768-3.773-.931,1.545-2.401,2.626-3.672,3.866-.65.794-1.411,1.804-2.286,2.225h0Z" fill="#231f20"/><path d="M342.652,69.208c.579.261.945.718,1.273,1.223.717.666,1.674,1.187,2.024,2.155-.966-.413-1.462-1.321-2.12-2.061-.501-.335-.954-.706-1.207-1.288-.009-.017.012-.038.029-.029h0Z" fill="#231f20"/><path d="M343.538,113.95c-.68-.366-1.148-.929-1.577-1.539-.885-.842-2.01-1.535-2.532-2.68,1.137.583,1.801,1.674,2.627,2.586.552.431,1.301.983,1.481,1.632h0Z" fill="#231f20"/><path d="M343.35,118.435c-.992-.71-1.77-1.616-2.508-2.566-1.402-1.415-3.045-2.676-4.085-4.391,1.662,1.148,2.838,2.822,4.182,4.299.859.776,1.935,1.672,2.411,2.658h0Z" fill="#231f20"/><path d="M339.114,119.341c-.609-.322-.998-.835-1.349-1.393-.759-.761-1.763-1.383-2.147-2.434,1.018.513,1.547,1.512,2.245,2.343.481.382,1.146.894,1.25,1.484h0Z" fill="#231f20"/><path d="M340.208,111.583c-.402.795-1.016,1.392-1.679,1.953-.92,1.093-1.672,2.415-2.92,3.169.641-1.329,1.829-2.218,2.82-3.258.477-.671,1.06-1.553,1.779-1.864h0Z" fill="#231f20"/><path d="M337.754,118.611c.404-.773,1.015-1.344,1.674-1.878.918-1.052,1.672-2.335,2.91-3.04-.643,1.292-1.824,2.134-2.812,3.131-.476.647-1.061,1.503-1.772,1.787h0Z" fill="#231f20"/><path d="M341.218,100.66s1.644-14.323-16.152-19.761" fill="none" stroke="#fff" stroke-linecap="round" stroke-linejoin="round" stroke-width="9"/><path d="M341.395,97.833c-1.011-5.226-4.653-13.644-17.37-17.471" fill="none" stroke="#000" stroke-dasharray="2 3" stroke-linecap="round" stroke-linejoin="round" stroke-width="1.25"/><polygon points="344.316 96.628 341.745 102.305 338.113 97.24 344.316 96.628"/></g><g id="c"><circle cx="380.162" cy="53.638" r="40.25" fill="#fff"/><path d="M376.323,92.457l.923-24.552-2-.308v-2.462l3.078.462v-6.309h-2.616v-6.309l-2.462-4.463.154-10.002h2l.462-7.694,6.771.154,10.156.308-.462,18.312,4.616.154.923,1.231.308,5.848-5.848,8.463-.154,3.078-5.078.769-.769,21.936s-7.386,1.231-10.002,1.385Z" fill="#d0cfce"/><g clip-path="url(#d)"><polyline points="392.317 49.7 392.714 31.151 382.909 31.151 375.887 30.753 375.887 38.836 373.502 38.703 373.237 48.508 375.754 53.145 375.622 59.24 378.404 59.505 378.537 50.893 380.524 51.158 380.429 68.472 382.247 68.775 382.247 65.07 388.077 57.385 388.209 51.423 387.149 49.965 385.162 55.663 382.247 57.65 382.909 31.151" fill="none" stroke="#231f20" stroke-linecap="round" stroke-linejoin="round" stroke-width=".5"/><polyline points="387.149 49.965 397.086 49.833 398.146 51.29 398.279 56.325 392.184 64.805 392.184 68.648 382.324 68.773" fill="none" stroke="#231f20" stroke-linecap="round" stroke-linejoin="round" stroke-width=".5"/><line x1="382.247" y1="65.07" x2="391.963" y2="64.974" fill="none" stroke="#231f20" stroke-linecap="round" stroke-linejoin="round" stroke-width=".5"/><line x1="380.488" y1="56.566" x2="378.659" y2="56.363" fill="none" stroke="#231f20" stroke-linecap="round" stroke-linejoin="round" stroke-width=".5"/><polyline points="378.404 59.505 378.404 65.421 375.361 65.01 375.361 67.431 376.183 67.568" fill="none" stroke="#231f20" stroke-linecap="round" stroke-linejoin="round" stroke-width=".5"/><path d="M380.23,68.403l-2.697-.545-2.864,120.167,5.614,5.425s.252,11.418-4.353,15.392v1.325s6.182-.568,7.128-9.841c0,0,.767-9.222,1.035-20.039l3.19-111.57" fill="none" stroke="#231f20" stroke-linecap="round" stroke-linejoin="round" stroke-width=".5"/><polygon points="384.229 34.99 391.598 34.99 387.913 42.768 384.229 34.99" fill="#231f20"/><path d="M380.265,30.618s.091-1.367-4.649-1.276-52.05.182-52.05.182c0,0-3.464-.82-3.464,4.375l-.091,94.072" fill="none" stroke="#231f20" stroke-miterlimit="10" stroke-width=".5"/><path d="M352.294,32.062c2.812,2.197,5.085,4.88,7.268,7.659,3.983,4.216,8.867,8.146,11.821,13.036-4.638-3.689-8.163-8.417-12.058-12.815-2.495-2.388-5.425-4.924-7.03-7.879h0Z" fill="#231f20"/><path d="M341.554,39.385c3.586,3.072,6.645,6.618,9.602,10.268,5.282,5.664,11.461,11.046,15.71,17.383-5.936-5.144-10.761-11.314-15.949-17.163-3.275-3.258-6.982-6.666-9.364-10.487h0Z" fill="#231f20"/><path d="M350.099,31.639c-.608,1.619-1.761,2.758-3.026,3.824-1.054,1.237-1.719,2.795-2.827,3.99-.727.805-1.508,1.565-2.447,2.194l-.077-.064c1.035-2.643,3.25-4.319,5.101-6.326.813-1.44,1.721-2.784,3.198-3.681,0,0,.077.064.077.064h0Z" fill="#231f20"/><path d="M366.452,31.885c-3.664,4.902-7.885,9.292-12.184,13.621-4.085,4.516-7.829,9.344-11.993,13.794,0,0-.004-.713-.004-.713,2.607,2.888,5.166,5.815,7.583,8.868,0,0-.073.068-.073.068-2.982-2.746-5.825-5.629-8.612-8.568,2.128-2.401,4.334-4.732,6.548-7.056,2.121-2.188,4.302-4.323,6.315-6.609,3.904-4.591,7.875-9.658,12.422-13.406h0Z" fill="#231f20"/><path d="M351,67.334c2.226-3.253,4.98-6.008,7.835-8.68,4.319-4.764,8.28-10.406,13.352-14.197-3.743,5.377-8.607,9.725-13.114,14.416-2.443,2.952-4.996,6.353-8.074,8.461h0Z" fill="#231f20"/><path d="M359.871,95.545c2.143,1.495,3.742,3.47,5.253,5.543,1.709,1.886,3.782,3.436,5.443,5.367,1.118,1.277,2.174,2.611,3.091,4.073l-.074.068c-3.521-2.514-5.923-6.063-8.699-9.289-1.94-1.678-3.776-3.435-5.088-5.695,0,0,.074-.068.074-.068h0Z" fill="#231f20"/><path d="M350.234,102.115c3.265,2.714,5.99,5.913,8.624,9.205,4.736,5.076,10.377,9.865,14.08,15.612-5.395-4.552-9.671-10.137-14.319-15.393-2.947-2.905-6.333-5.955-8.386-9.425h0Z" fill="#231f20"/><path d="M357.902,95.172c-.502,1.491-1.548,2.501-2.706,3.439-.947,1.108-1.506,2.538-2.507,3.604-.656.719-1.365,1.394-2.234,1.937l-.077-.064c.858-2.428,2.893-3.889,4.568-5.684.707-1.312,1.507-2.527,2.879-3.296,0,0,.077.064.077.064h0Z" fill="#231f20"/><path d="M372.575,95.393c-2.335,3.42-5.202,6.347-8.171,9.192-4.507,5.048-8.646,10.971-13.914,15.052,3.925-5.656,8.98-10.293,13.674-15.27,2.555-3.121,5.214-6.693,8.411-8.975h0Z" fill="#231f20"/><path d="M363.427,122.532c.842-1.71,2.197-2.908,3.659-4.025,1.262-1.301,2.157-2.948,3.471-4.203.864-.846,1.779-1.643,2.844-2.3l.073.069c-1.423,2.797-3.96,4.549-6.152,6.657-1.035,1.519-2.159,2.938-3.821,3.871,0,0-.073-.069-.073-.069h0Z" fill="#231f20"/><ellipse cx="334.94" cy="43.885" rx="2.931" ry="3.017" fill="#231f20"/><ellipse cx="334.94" cy="53.021" rx="2.931" ry="3.017" fill="#231f20"/><ellipse cx="334.94" cy="62.158" rx="2.931" ry="3.017" fill="#231f20"/><polygon points="335.092 74.049 335.092 85.337 335.092 89.686 366.062 88.468 366.062 72.83 335.092 74.049" fill="none" stroke="#231f20" stroke-miterlimit="10" stroke-width=".5"/><polygon points="361.747 84.341 337.554 85.156 337.554 81.532 361.747 80.988 361.747 84.341" fill="none" stroke="#231f20" stroke-miterlimit="10" stroke-width=".5"/><line x1="337.373" y1="81.441" x2="335.289" y2="80.173" fill="none" stroke="#231f20" stroke-miterlimit="10" stroke-width=".5"/><line x1="337.373" y1="85.066" x2="335.289" y2="83.797" fill="none" stroke="#231f20" stroke-miterlimit="10" stroke-width=".5"/><line x1="361.476" y1="80.716" x2="347.226" y2="73.665" fill="none" stroke="#231f20" stroke-miterlimit="10" stroke-width=".5"/><path d="M342.51,120.377l-3.454.203c-1.478.087-2.646-1.093-2.596-2.623l.622-19.112c.05-1.53,1.299-2.853,2.777-2.94l3.454-.203c1.478-.087,2.646,1.093,2.596,2.623l-.622,19.112c-.05,1.53-1.299,2.853-2.777,2.94Z" fill="none" stroke="#231f20" stroke-miterlimit="10" stroke-width=".5"/><line x1="307.53" y1="23.671" x2="410.677" y2="24.395" fill="none" stroke="#231f20" stroke-miterlimit="10" stroke-width=".5"/><line x1="307.53" y1="17.876" x2="402.968" y2="18.546" fill="none" stroke="#231f20" stroke-miterlimit="10" stroke-width=".5"/><line x1="402.938" y1="110.175" x2="405.78" y2="28.709" fill="none" stroke="#231f20" stroke-miterlimit="10" stroke-width=".5"/><line x1="413.718" y1="27.453" x2="228.752" y2="27.202" fill="none" stroke="#231f20" stroke-miterlimit="10" stroke-width=".5"/><polyline points="369.153 31.778 341.814 31.993 341.814 67.943 369.271 67.047" fill="none"/><polyline points="372.291 93.653 350.166 94.472 349.863 127.231" fill="none"/><line x1="315.725" y1="29.451" x2="322.593" y2="29.451" fill="none" stroke="#231f20" stroke-miterlimit="10" stroke-width=".5"/></g><circle cx="380.162" cy="53.638" r="40.25" fill="none" stroke="#fff" stroke-miterlimit="10" stroke-width="4"/><circle cx="380.162" cy="53.638" r="40.25" fill="none" stroke="#231f20" stroke-miterlimit="10"/><polygon points="384.785 29.004 374.945 19.655 379.958 19.689 380.167 2.216 390.047 2.3 389.838 19.774 394.85 19.818 384.785 29.004" fill="#2c2a26" stroke="#fff" stroke-linecap="round" stroke-linejoin="round"/><path d="M368.239,18.338c0,7.593-6.246,13.745-13.95,13.745s-13.953-6.152-13.953-13.745,6.246-13.755,13.953-13.755,13.95,6.159,13.95,13.755" fill="#211f1f" stroke="#fff" stroke-miterlimit="10" stroke-width="1.5"/><rect x="340.288" y="10.344" width="27.228" height="24.791" fill="none"/><path d="M355.887,25.379h-1.846v-11.761c-.444.424-1.027.848-1.749,1.271-.721.424-1.368.742-1.942.954v-1.784c1.032-.485,1.935-1.073,2.707-1.764s1.319-1.36,1.641-2.01h1.189v15.094Z" fill="#fff"/></g></svg>