<?xml version="1.0" encoding="UTF-8"?><svg id="a" xmlns="http://www.w3.org/2000/svg" width="2.8in" height=".7in" viewBox="0 0 201.6 50.4"><rect x="1.531" y="1.531" width="198" height="47.913" rx="13.374" ry="13.374" fill="none" stroke="#231f20" stroke-miterlimit="10" stroke-width="1.061"/><path d="M8.302,19.087c.665.409,1.636.75,2.659.75,1.517,0,2.403-.801,2.403-1.96,0-1.074-.613-1.688-2.165-2.284-1.875-.665-3.034-1.636-3.034-3.255,0-1.79,1.483-3.119,3.715-3.119,1.176,0,2.028.273,2.54.562l-.409,1.21c-.375-.204-1.142-.545-2.182-.545-1.568,0-2.165.938-2.165,1.722,0,1.074.699,1.602,2.284,2.216,1.943.75,2.932,1.688,2.932,3.375,0,1.772-1.312,3.307-4.022,3.307-1.108,0-2.318-.324-2.932-.733l.375-1.244Z" fill="#231f20" stroke-width="0"/><path d="M16.707,19.087c.665.409,1.636.75,2.659.75,1.517,0,2.403-.801,2.403-1.96,0-1.074-.613-1.688-2.165-2.284-1.875-.665-3.034-1.636-3.034-3.255,0-1.79,1.483-3.119,3.715-3.119,1.176,0,2.028.273,2.54.562l-.409,1.21c-.375-.204-1.142-.545-2.182-.545-1.568,0-2.165.938-2.165,1.722,0,1.074.699,1.602,2.284,2.216,1.943.75,2.932,1.688,2.932,3.375,0,1.772-1.312,3.307-4.022,3.307-1.108,0-2.318-.324-2.932-.733l.375-1.244Z" fill="#231f20" stroke-width="0"/><path d="M25.316,20.894v-11.488h1.619l3.682,5.812c.852,1.347,1.517,2.557,2.062,3.733l.034-.017c-.136-1.534-.17-2.932-.17-4.721v-4.807h1.397v11.488h-1.5l-3.647-5.829c-.801-1.278-1.568-2.591-2.147-3.835l-.051.017c.085,1.449.119,2.829.119,4.738v4.909h-1.397Z" fill="#231f20" stroke-width="0"/><path d="M36.125,14.008c0-.631.426-1.074,1.022-1.074s.989.443,1.006,1.074c0,.597-.392,1.057-1.022,1.057-.597,0-1.006-.46-1.006-1.057ZM36.125,20.024c0-.631.426-1.074,1.022-1.074s.989.443,1.006,1.074c0,.596-.392,1.057-1.022,1.057-.597,0-1.006-.46-1.006-1.057Z" fill="#231f20" stroke-width="0"/><path d="M57.195,20.894l-1.466-2.54c-.596-.972-.971-1.602-1.329-2.267h-.034c-.324.665-.648,1.278-1.244,2.284l-1.381,2.522h-1.704l3.511-5.812-3.375-5.676h1.721l1.517,2.693c.426.75.75,1.33,1.057,1.943h.051c.324-.682.614-1.21,1.04-1.943l1.568-2.693h1.704l-3.494,5.59,3.58,5.897h-1.722Z" fill="#231f20" stroke-width="0"/><path d="M66.674,20.894l-1.466-2.54c-.596-.972-.971-1.602-1.329-2.267h-.034c-.324.665-.648,1.278-1.244,2.284l-1.381,2.522h-1.704l3.511-5.812-3.375-5.676h1.721l1.517,2.693c.426.75.75,1.33,1.057,1.943h.051c.324-.682.614-1.21,1.04-1.943l1.568-2.693h1.704l-3.494,5.59,3.579,5.897h-1.722Z" fill="#231f20" stroke-width="0"/><path d="M72.762,20.894v-4.875l-3.63-6.613h1.687l1.62,3.17c.443.869.784,1.568,1.142,2.369h.034c.324-.75.716-1.5,1.159-2.369l1.653-3.17h1.687l-3.852,6.596v4.892h-1.5Z" fill="#231f20" stroke-width="0"/><path d="M82.036,20.894v-4.875l-3.63-6.613h1.688l1.619,3.17c.443.869.784,1.568,1.142,2.369h.034c.324-.75.716-1.5,1.159-2.369l1.653-3.17h1.687l-3.852,6.596v4.892h-1.5Z" fill="#231f20" stroke-width="0"/><path d="M91.31,20.894v-4.875l-3.63-6.613h1.688l1.619,3.17c.443.869.784,1.568,1.142,2.369h.034c.324-.75.716-1.5,1.159-2.369l1.653-3.17h1.687l-3.852,6.596v4.892h-1.5Z" fill="#231f20" stroke-width="0"/><path d="M100.584,20.894v-4.875l-3.63-6.613h1.687l1.62,3.17c.443.869.784,1.568,1.142,2.369h.034c.324-.75.716-1.5,1.159-2.369l1.653-3.17h1.687l-3.852,6.596v4.892h-1.5Z" fill="#231f20" stroke-width="0"/><path d="M109.858,20.894v-4.875l-3.63-6.613h1.687l1.62,3.17c.443.869.784,1.568,1.142,2.369h.034c.324-.75.716-1.5,1.159-2.369l1.653-3.17h1.687l-3.852,6.596v4.892h-1.5Z" fill="#231f20" stroke-width="0"/><path d="M119.132,20.894v-4.875l-3.63-6.613h1.688l1.619,3.17c.443.869.784,1.568,1.142,2.369h.034c.324-.75.716-1.5,1.159-2.369l1.653-3.17h1.687l-3.852,6.596v4.892h-1.5Z" fill="#231f20" stroke-width="0"/><path d="M128.406,20.894v-4.875l-3.63-6.613h1.687l1.62,3.17c.443.869.784,1.568,1.142,2.369h.034c.324-.75.716-1.5,1.159-2.369l1.653-3.17h1.687l-3.852,6.596v4.892h-1.5Z" fill="#231f20" stroke-width="0"/><path d="M137.681,20.894v-4.875l-3.63-6.613h1.687l1.62,3.17c.443.869.784,1.568,1.142,2.369h.034c.324-.75.716-1.5,1.159-2.369l1.653-3.17h1.687l-3.852,6.596v4.892h-1.5Z" fill="#231f20" stroke-width="0"/><path d="M146.955,20.894v-4.875l-3.63-6.613h1.688l1.619,3.17c.443.869.784,1.568,1.142,2.369h.034c.324-.75.716-1.5,1.159-2.369l1.653-3.17h1.688l-3.852,6.596v4.892h-1.5Z" fill="#231f20" stroke-width="0"/><path d="M156.229,20.894v-4.875l-3.63-6.613h1.688l1.619,3.17c.443.869.784,1.568,1.142,2.369h.034c.324-.75.716-1.5,1.159-2.369l1.653-3.17h1.688l-3.853,6.596v4.892h-1.5Z" fill="#231f20" stroke-width="0"/><line x1="25.851" y1="25.451" x2="25.851" y2="45.618" fill="none" stroke="#010101" stroke-miterlimit="10" stroke-width="1.571"/><path d="M28.144,25.451v20.167M32.731,25.451v20.167" fill="none" stroke="#010101" stroke-miterlimit="10" stroke-width=".785"/><line x1="35.942" y1="25.451" x2="35.942" y2="45.618" fill="none" stroke="#010101" stroke-miterlimit="10" stroke-width="1.571"/><line x1="40.071" y1="25.451" x2="40.071" y2="45.618" fill="none" stroke="#010101" stroke-miterlimit="10" stroke-width="2.356"/><path d="M43.74,25.451v20.167M45.575,25.451v20.167" fill="none" stroke="#010101" stroke-miterlimit="10" stroke-width=".785"/><line x1="49.245" y1="25.451" x2="49.245" y2="45.618" fill="none" stroke="#010101" stroke-miterlimit="10" stroke-width="2.356"/><path d="M53.373,25.451v20.167M56.125,25.451v20.167" fill="none" stroke="#010101" stroke-miterlimit="10" stroke-width="1.571"/><line x1="59.336" y1="25.451" x2="59.336" y2="45.618" fill="none" stroke="#010101" stroke-miterlimit="10" stroke-width="2.356"/><path d="M63.006,25.451v20.167M65.758,25.451v20.167" fill="none" stroke="#010101" stroke-miterlimit="10" stroke-width=".785"/><line x1="68.969" y1="25.451" x2="68.969" y2="45.618" fill="none" stroke="#010101" stroke-miterlimit="10" stroke-width="1.571"/><line x1="72.18" y1="25.451" x2="72.18" y2="45.618" fill="none" stroke="#010101" stroke-miterlimit="10" stroke-width="2.356"/><line x1="75.849" y1="25.451" x2="75.849" y2="45.618" fill="none" stroke="#010101" stroke-miterlimit="10" stroke-width=".785"/><line x1="79.519" y1="25.451" x2="79.519" y2="45.618" fill="none" stroke="#010101" stroke-miterlimit="10" stroke-width="2.356"/><path d="M83.647,25.451v20.167M86.399,25.451v20.167" fill="none" stroke="#010101" stroke-miterlimit="10" stroke-width="1.571"/><line x1="89.61" y1="25.451" x2="89.61" y2="45.618" fill="none" stroke="#010101" stroke-miterlimit="10" stroke-width=".785"/><line x1="92.362" y1="25.451" x2="92.362" y2="45.618" fill="none" stroke="#010101" stroke-miterlimit="10" stroke-width="2.356"/><line x1="96.032" y1="25.451" x2="96.032" y2="45.618" fill="none" stroke="#010101" stroke-miterlimit="10" stroke-width=".785"/><line x1="99.702" y1="25.451" x2="99.702" y2="45.618" fill="none" stroke="#010101" stroke-miterlimit="10" stroke-width="2.356"/><line x1="102.913" y1="25.451" x2="102.913" y2="45.618" fill="none" stroke="#010101" stroke-miterlimit="10" stroke-width="1.571"/><line x1="107.041" y1="25.451" x2="107.041" y2="45.618" fill="none" stroke="#010101" stroke-miterlimit="10" stroke-width="2.356"/><line x1="109.793" y1="25.451" x2="109.793" y2="45.618" fill="none" stroke="#010101" stroke-miterlimit="10" stroke-width=".785"/><line x1="113.004" y1="25.451" x2="113.004" y2="45.618" fill="none" stroke="#010101" stroke-miterlimit="10" stroke-width="1.571"/><line x1="116.215" y1="25.451" x2="116.215" y2="45.618" fill="none" stroke="#010101" stroke-miterlimit="10" stroke-width=".785"/><line x1="119.884" y1="25.451" x2="119.884" y2="45.618" fill="none" stroke="#010101" stroke-miterlimit="10" stroke-width="2.356"/><line x1="123.095" y1="25.451" x2="123.095" y2="45.618" fill="none" stroke="#010101" stroke-miterlimit="10" stroke-width="1.571"/><path d="M126.306,25.451v20.167M128.141,25.451v20.167" fill="none" stroke="#010101" stroke-miterlimit="10" stroke-width=".785"/><line x1="131.352" y1="25.451" x2="131.352" y2="45.618" fill="none" stroke="#010101" stroke-miterlimit="10" stroke-width="1.571"/><path d="M136.398,25.451v20.167M138.232,25.451v20.167" fill="none" stroke="#010101" stroke-miterlimit="10" stroke-width=".785"/><line x1="142.361" y1="25.451" x2="142.361" y2="45.618" fill="none" stroke="#010101" stroke-miterlimit="10" stroke-width="1.571"/><line x1="146.489" y1="25.451" x2="146.489" y2="45.618" fill="none" stroke="#010101" stroke-miterlimit="10" stroke-width=".785"/><line x1="150.159" y1="25.451" x2="150.159" y2="45.618" fill="none" stroke="#010101" stroke-miterlimit="10" stroke-width="2.356"/><line x1="153.37" y1="25.451" x2="153.37" y2="45.618" fill="none" stroke="#010101" stroke-miterlimit="10" stroke-width="1.571"/><line x1="156.58" y1="25.451" x2="156.58" y2="45.618" fill="none" stroke="#010101" stroke-miterlimit="10" stroke-width=".785"/><line x1="158.874" y1="25.451" x2="158.874" y2="45.618" fill="none" stroke="#010101" stroke-miterlimit="10" stroke-width="1.571"/><line x1="162.085" y1="25.451" x2="162.085" y2="45.618" fill="none" stroke="#010101" stroke-miterlimit="10" stroke-width="2.356"/><line x1="167.131" y1="25.451" x2="167.131" y2="45.618" fill="none" stroke="#010101" stroke-miterlimit="10" stroke-width="1.571"/><line x1="172.176" y1="25.451" x2="172.176" y2="45.618" fill="none" stroke="#010101" stroke-miterlimit="10" stroke-width="2.356"/><line x1="174.928" y1="25.451" x2="174.928" y2="45.618" fill="none" stroke="#010101" stroke-miterlimit="10" stroke-width=".785"/><line x1="177.222" y1="25.451" x2="177.222" y2="45.618" fill="none" stroke="#010101" stroke-miterlimit="10" stroke-width="1.571"/></svg>