<?xml version="1.0" encoding="utf-8"?>
<!-- Generator: Adobe Illustrator 28.3.0, SVG Export Plug-In . SVG Version: 6.00 Build 0)  -->
<svg version="1.1" id="Layer_1" xmlns="http://www.w3.org/2000/svg" xmlns:xlink="http://www.w3.org/1999/xlink" x="0px" y="0px"
	 width="293.2661px" height="157.8113px" viewBox="0 0 293.2661 157.8113" enable-background="new 0 0 293.2661 157.8113"
	 xml:space="preserve">
<g>
	<g>
		<g>
			<g>
				<g>
					<g>
						<g>
							<rect x="20.7628" y="81.704" fill="#D9D9D9" width="251.2429" height="49.0388"/>
						</g>
					</g>
				</g>
			</g>
		</g>
	</g>
	<g>
		<path fill="#231F20" d="M33.2832,118.3547c-0.085-0.1357-0.1904-0.2549-0.3174-0.3574c-0.1265-0.103-0.27-0.1826-0.4302-0.2402
			c-0.1602-0.0571-0.3276-0.0859-0.5024-0.0859c-0.3203,0-0.5918,0.062-0.8154,0.1855c-0.2231,0.124-0.4043,0.29-0.5435,0.498
			c-0.1387,0.2085-0.2397,0.4453-0.3032,0.7109c-0.0635,0.2661-0.0952,0.5405-0.0952,0.8242c0,0.272,0.0317,0.5361,0.0952,0.793
			c0.0635,0.2563,0.1646,0.4873,0.3032,0.6929c0.1392,0.2051,0.3203,0.3696,0.5435,0.4937
			c0.2236,0.1235,0.4951,0.1855,0.8154,0.1855c0.4346,0,0.7744-0.1328,1.019-0.3984c0.2441-0.2656,0.3936-0.6162,0.4482-1.0508
			h1.3765c-0.0361,0.4048-0.1299,0.77-0.2808,1.0957c-0.1509,0.3262-0.3501,0.604-0.5977,0.8335s-0.5376,0.4048-0.8696,0.5254
			s-0.6973,0.1812-1.0957,0.1812c-0.4951,0-0.9404-0.0859-1.3359-0.2583c-0.3955-0.1719-0.7295-0.4087-1.001-0.7109
			c-0.2715-0.3018-0.48-0.6567-0.625-1.0645c-0.145-0.4072-0.2173-0.8467-0.2173-1.3179c0-0.4829,0.0723-0.9312,0.2173-1.3447
			s0.3535-0.7744,0.625-1.0825c0.2715-0.3076,0.6055-0.5493,1.001-0.7246c0.3955-0.1748,0.8408-0.2627,1.3359-0.2627
			c0.356,0,0.6929,0.0518,1.0098,0.1543s0.6006,0.252,0.8516,0.4482c0.2505,0.1963,0.457,0.439,0.6201,0.729
			s0.2656,0.6221,0.3081,0.9966h-1.377C33.4219,118.6404,33.3677,118.491,33.2832,118.3547z"/>
		<path fill="#231F20" d="M35.7373,119.7405c0.1147-0.3047,0.2778-0.5645,0.4893-0.7788s0.4648-0.3804,0.7607-0.498
			s0.6279-0.1768,0.9966-0.1768c0.3682,0,0.7017,0.0591,1.0005,0.1768s0.5542,0.2837,0.7656,0.498
			c0.2109,0.2144,0.374,0.4741,0.4888,0.7788c0.1147,0.3052,0.1724,0.645,0.1724,1.019c0,0.3745-0.0576,0.7129-0.1724,1.0146
			s-0.2778,0.5601-0.4888,0.7744c-0.2114,0.2144-0.4668,0.3789-0.7656,0.4937c-0.2988,0.1143-0.6323,0.1719-1.0005,0.1719
			c-0.3687,0-0.7007-0.0576-0.9966-0.1719c-0.2959-0.1147-0.5493-0.2793-0.7607-0.4937s-0.3745-0.4727-0.4893-0.7744
			s-0.1719-0.6401-0.1719-1.0146C35.5654,120.3855,35.6226,120.0456,35.7373,119.7405z M36.9058,121.3074
			c0.0361,0.1782,0.0981,0.3384,0.1855,0.4805c0.0879,0.1416,0.2041,0.2549,0.3491,0.3394c0.1445,0.085,0.3257,0.127,0.5435,0.127
			c0.2173,0,0.3999-0.042,0.5479-0.127c0.1479-0.0845,0.2656-0.1978,0.353-0.3394c0.0874-0.1421,0.1494-0.3022,0.186-0.4805
			c0.0361-0.1777,0.0542-0.3604,0.0542-0.5479c0-0.187-0.0181-0.3711-0.0542-0.5522c-0.0366-0.1812-0.0986-0.3413-0.186-0.48
			c-0.0874-0.1392-0.2051-0.2524-0.353-0.3398s-0.3306-0.1313-0.5479-0.1313c-0.2178,0-0.3989,0.0439-0.5435,0.1313
			c-0.145,0.0874-0.2612,0.2007-0.3491,0.3398c-0.0874,0.1387-0.1494,0.2988-0.1855,0.48s-0.0542,0.3652-0.0542,0.5522
			C36.8516,120.947,36.8696,121.1296,36.9058,121.3074z"/>
		<path fill="#231F20" d="M42.4673,118.4138v0.6519h0.0273c0.1626-0.2715,0.374-0.4692,0.6338-0.5933
			c0.2598-0.1235,0.5254-0.1855,0.7969-0.1855c0.3442,0,0.6265,0.0469,0.8472,0.1406c0.2202,0.0938,0.394,0.2231,0.5205,0.3892
			c0.127,0.1665,0.2158,0.3687,0.2676,0.6069c0.0508,0.2388,0.0767,0.5029,0.0767,0.7925v2.8804h-1.2861v-2.6445
			c0-0.3867-0.0605-0.6748-0.1812-0.8652c-0.1206-0.1899-0.335-0.2852-0.6431-0.2852c-0.3501,0-0.604,0.104-0.7607,0.3125
			c-0.1572,0.208-0.2354,0.5508-0.2354,1.0278v2.4546h-1.2861v-4.6826H42.4673z"/>
		<path fill="#231F20" d="M49.1875,118.4138v0.8604h-0.9419v2.3188c0,0.2173,0.0361,0.3623,0.1084,0.4346
			c0.0728,0.0728,0.2173,0.1089,0.4351,0.1089c0.0723,0,0.1416-0.0029,0.208-0.0093c0.0664-0.0059,0.1299-0.0151,0.1904-0.0269
			v0.9961c-0.1089,0.0181-0.2295,0.0303-0.3623,0.0361s-0.2627,0.0093-0.3896,0.0093c-0.1992,0-0.3882-0.0137-0.5659-0.041
			c-0.1782-0.0269-0.3354-0.0796-0.4712-0.1582s-0.2432-0.1904-0.3213-0.3354c-0.0786-0.1445-0.1177-0.335-0.1177-0.5703v-2.7627
			h-0.7793v-0.8604h0.7793V117.01h1.2861v1.4038H49.1875z"/>
		<path fill="#231F20" d="M51.0264,118.4138v0.8696h0.0181c0.0601-0.145,0.1416-0.2793,0.2446-0.4033
			c0.1025-0.1235,0.2202-0.2295,0.353-0.3169s0.2749-0.1553,0.4258-0.2036s0.3081-0.0728,0.4712-0.0728
			c0.0845,0,0.1777,0.0151,0.2808,0.0454v1.1953c-0.0605-0.0117-0.1328-0.0225-0.2178-0.0312
			c-0.0845-0.0093-0.166-0.0137-0.2441-0.0137c-0.2358,0-0.4351,0.0391-0.5981,0.1177s-0.2939,0.1855-0.394,0.3213
			c-0.0996,0.1362-0.1704,0.2944-0.2124,0.4756c-0.0425,0.1812-0.0635,0.3774-0.0635,0.5889v2.1104h-1.2861v-4.6826H51.0264z"/>
		<path fill="#231F20" d="M53.1909,119.7405c0.1147-0.3047,0.2778-0.5645,0.4893-0.7788s0.4648-0.3804,0.7607-0.498
			s0.6279-0.1768,0.9966-0.1768c0.3682,0,0.7017,0.0591,1.0005,0.1768s0.5542,0.2837,0.7656,0.498
			c0.2109,0.2144,0.374,0.4741,0.4888,0.7788c0.1147,0.3052,0.1724,0.645,0.1724,1.019c0,0.3745-0.0576,0.7129-0.1724,1.0146
			s-0.2778,0.5601-0.4888,0.7744c-0.2114,0.2144-0.4668,0.3789-0.7656,0.4937c-0.2988,0.1143-0.6323,0.1719-1.0005,0.1719
			c-0.3687,0-0.7007-0.0576-0.9966-0.1719c-0.2959-0.1147-0.5493-0.2793-0.7607-0.4937s-0.3745-0.4727-0.4893-0.7744
			s-0.1719-0.6401-0.1719-1.0146C53.019,120.3855,53.0762,120.0456,53.1909,119.7405z M54.3594,121.3074
			c0.0361,0.1782,0.0981,0.3384,0.1855,0.4805c0.0879,0.1416,0.2041,0.2549,0.3491,0.3394c0.1445,0.085,0.3257,0.127,0.5435,0.127
			c0.2173,0,0.3999-0.042,0.5479-0.127c0.1479-0.0845,0.2656-0.1978,0.353-0.3394c0.0874-0.1421,0.1494-0.3022,0.186-0.4805
			c0.0361-0.1777,0.0542-0.3604,0.0542-0.5479c0-0.187-0.0181-0.3711-0.0542-0.5522c-0.0366-0.1812-0.0986-0.3413-0.186-0.48
			c-0.0874-0.1392-0.2051-0.2524-0.353-0.3398s-0.3306-0.1313-0.5479-0.1313c-0.2178,0-0.3989,0.0439-0.5435,0.1313
			c-0.145,0.0874-0.2612,0.2007-0.3491,0.3398c-0.0874,0.1387-0.1494,0.2988-0.1855,0.48s-0.0542,0.3652-0.0542,0.5522
			C54.3052,120.947,54.3232,121.1296,54.3594,121.3074z"/>
		<path fill="#231F20" d="M60.02,116.6296v6.4668h-1.2861v-6.4668H60.02z"/>
		<path fill="#231F20" d="M62.3569,116.6296v6.4668h-1.2861v-6.4668H62.3569z"/>
		<path fill="#231F20" d="M64.7476,121.9734c0.1934,0.187,0.4712,0.2808,0.8335,0.2808c0.2593,0,0.4829-0.0649,0.6699-0.1948
			c0.1875-0.1299,0.3022-0.2671,0.3442-0.4121h1.1323c-0.1812,0.5615-0.459,0.9634-0.8335,1.2046
			c-0.374,0.2417-0.8271,0.3623-1.3584,0.3623c-0.3682,0-0.7007-0.0586-0.9961-0.1768c-0.2959-0.1177-0.5469-0.2852-0.7519-0.5024
			c-0.2056-0.2173-0.3638-0.4771-0.4756-0.7788c-0.1118-0.3022-0.1675-0.6343-0.1675-0.9966c0-0.3501,0.0571-0.6763,0.1719-0.978
			s0.2778-0.563,0.4893-0.7837c0.2114-0.2202,0.4634-0.394,0.7563-0.5205c0.293-0.127,0.6172-0.1904,0.9736-0.1904
			c0.3984,0,0.7456,0.0771,1.0415,0.231c0.2959,0.1543,0.5391,0.3608,0.729,0.6206c0.1904,0.2598,0.3276,0.5557,0.4121,0.8877
			s0.1147,0.6792,0.0908,1.0415h-3.3784C64.4487,121.4841,64.5542,121.7864,64.7476,121.9734z M66.2012,119.5095
			c-0.1538-0.1689-0.3877-0.2534-0.7017-0.2534c-0.2056,0-0.376,0.0347-0.5117,0.104c-0.1357,0.0698-0.2446,0.1558-0.3262,0.2583
			s-0.1392,0.2114-0.1719,0.3262c-0.0337,0.1147-0.0532,0.2173-0.0591,0.3076h2.0923
			C66.4624,119.9265,66.3555,119.6789,66.2012,119.5095z"/>
		<path fill="#231F20" d="M69.793,118.4138v0.8696h0.0181c0.0601-0.145,0.1416-0.2793,0.2446-0.4033
			c0.1025-0.1235,0.2202-0.2295,0.353-0.3169s0.2749-0.1553,0.4258-0.2036s0.3081-0.0728,0.4712-0.0728
			c0.0845,0,0.1777,0.0151,0.2808,0.0454v1.1953c-0.0605-0.0117-0.1328-0.0225-0.2178-0.0312
			c-0.0845-0.0093-0.166-0.0137-0.2441-0.0137c-0.2358,0-0.4351,0.0391-0.5981,0.1177s-0.2939,0.1855-0.394,0.3213
			c-0.0996,0.1362-0.1704,0.2944-0.2124,0.4756c-0.0425,0.1812-0.0635,0.3774-0.0635,0.5889v2.1104h-1.2861v-4.6826H69.793z"/>
		<path fill="#231F20" d="M77.7905,116.6296c0.3076,0,0.5884,0.0269,0.8423,0.0815c0.2534,0.0542,0.4707,0.1431,0.6519,0.2671
			c0.1812,0.1235,0.3218,0.2881,0.4214,0.4937c0.0996,0.2051,0.1494,0.459,0.1494,0.7607c0,0.3262-0.0742,0.5977-0.2222,0.8149
			c-0.1479,0.2178-0.3667,0.3955-0.6562,0.5347c0.3984,0.1147,0.6958,0.3154,0.8921,0.6021
			c0.1958,0.2871,0.2944,0.6328,0.2944,1.0371c0,0.3262-0.0635,0.6084-0.1904,0.8472c-0.127,0.2383-0.2974,0.4331-0.5117,0.584
			s-0.459,0.2627-0.7339,0.335c-0.2744,0.0728-0.5566,0.1089-0.8467,0.1089h-3.1338v-6.4668H77.7905z M77.6094,119.2468
			c0.2534,0,0.4619-0.0601,0.6245-0.1812c0.1631-0.1206,0.2446-0.3169,0.2446-0.5884c0-0.1509-0.0269-0.2749-0.0815-0.3716
			c-0.0542-0.0962-0.1265-0.1719-0.2173-0.2266c-0.0903-0.0542-0.1948-0.0918-0.3125-0.1128
			c-0.1177-0.0215-0.2397-0.0317-0.3667-0.0317h-1.3315v1.5122H77.6094z M77.6909,121.9914c0.1387,0,0.2715-0.0137,0.3984-0.041
			c0.1265-0.0269,0.2383-0.0723,0.335-0.1357s0.1733-0.1494,0.231-0.2578c0.0571-0.1089,0.0859-0.2476,0.0859-0.417
			c0-0.332-0.0938-0.5688-0.2808-0.7109c-0.187-0.1416-0.4346-0.2129-0.7427-0.2129h-1.5488v1.7754H77.6909z"/>
	</g>
	<g>
		<g>
			<g>
				<g>
					<g>
						<g>
							<rect x="20.7628" y="28.3832" fill="#D9D9D9" width="251.2429" height="48.2482"/>
						</g>
					</g>
				</g>
			</g>
		</g>
	</g>
	<rect x="148.0354" y="29.8926" fill="#26A9E0" width="42.6706" height="23.8494"/>
	<g>
		<path fill="#FFFFFF" d="M158.9043,38.1409c0.4043,0,0.7485,0.0586,1.0327,0.1763c0.2837,0.1177,0.5146,0.2734,0.6929,0.4668
			c0.1777,0.1934,0.3076,0.4136,0.3892,0.6611s0.1226,0.5039,0.1226,0.7695c0,0.2598-0.041,0.5151-0.1226,0.7656
			s-0.2114,0.4727-0.3892,0.6655c-0.1782,0.1934-0.4092,0.3486-0.6929,0.4668c-0.2842,0.1177-0.6284,0.1763-1.0327,0.1763h-1.4946
			v2.3188h-1.4219v-6.4668H158.9043z M158.5146,41.1838c0.1631,0,0.3203-0.0117,0.4712-0.0361
			c0.1509-0.0239,0.2837-0.0708,0.3984-0.1401s0.2065-0.168,0.2764-0.2944c0.0693-0.127,0.104-0.293,0.104-0.4985
			c0-0.2051-0.0347-0.3711-0.104-0.498c-0.0698-0.1265-0.1616-0.2246-0.2764-0.2944c-0.1147-0.0693-0.2476-0.1162-0.3984-0.1401
			s-0.3081-0.0361-0.4712-0.0361h-1.105v1.938H158.5146z"/>
		<path fill="#FFFFFF" d="M163.1157,43.0134c0.0781,0.1514,0.1826,0.2734,0.3125,0.3672c0.1299,0.0933,0.2822,0.1626,0.4575,0.208
			c0.1748,0.0454,0.356,0.0679,0.5435,0.0679c0.1265,0,0.2622-0.0103,0.4072-0.0317c0.145-0.021,0.2808-0.0615,0.4077-0.1221
			s0.2324-0.1436,0.3169-0.249s0.127-0.2402,0.127-0.4033c0-0.1748-0.0562-0.3169-0.1675-0.4253
			c-0.1118-0.1089-0.2583-0.1997-0.4395-0.272s-0.3862-0.1357-0.6157-0.1899c-0.2295-0.0547-0.4619-0.1147-0.6978-0.1812
			c-0.2412-0.0605-0.4771-0.1348-0.7061-0.2222c-0.23-0.0874-0.4351-0.2007-0.6162-0.3398c-0.1812-0.1387-0.3276-0.312-0.439-0.5205
			c-0.1118-0.2085-0.168-0.4604-0.168-0.7563c0-0.332,0.0713-0.6206,0.2129-0.8647c0.1421-0.2446,0.3276-0.4487,0.5571-0.6118
			c0.2295-0.1626,0.4893-0.2837,0.7788-0.3623c0.29-0.0781,0.5801-0.1177,0.8696-0.1177c0.3384,0,0.6626,0.0381,0.9736,0.1133
			c0.311,0.0757,0.5874,0.1978,0.8286,0.3667c0.2417,0.1694,0.4336,0.3853,0.5752,0.6479c0.1421,0.2627,0.2129,0.5811,0.2129,0.9556
			h-1.3765c-0.0122-0.1934-0.0532-0.3535-0.1226-0.48c-0.0693-0.127-0.1616-0.2266-0.2759-0.2993
			c-0.1147-0.0723-0.2461-0.1235-0.394-0.1538c-0.1484-0.0303-0.3096-0.0454-0.4849-0.0454c-0.1147,0-0.2295,0.0122-0.3442,0.0366
			c-0.1147,0.0239-0.2188,0.0664-0.3125,0.1265c-0.0933,0.0605-0.1704,0.1357-0.231,0.2266
			c-0.0601,0.0903-0.0903,0.2056-0.0903,0.3442c0,0.127,0.0239,0.2295,0.0723,0.3081c0.0483,0.0781,0.1436,0.1509,0.2856,0.2173
			c0.1416,0.0664,0.3379,0.1328,0.5884,0.1992s0.5781,0.1509,0.9829,0.2534c0.1206,0.0244,0.2881,0.0679,0.5024,0.1313
			s0.4272,0.1646,0.6387,0.3037c0.2114,0.1387,0.394,0.3242,0.5479,0.5566c0.1543,0.2329,0.231,0.5303,0.231,0.8926
			c0,0.2959-0.0571,0.5703-0.1719,0.8242c-0.1147,0.2534-0.2852,0.4722-0.5117,0.6562c-0.2266,0.1846-0.5073,0.3276-0.8423,0.4302
			c-0.335,0.103-0.7231,0.1543-1.1641,0.1543c-0.3564,0-0.7017-0.0439-1.0371-0.1313c-0.335-0.0874-0.6309-0.2251-0.8877-0.4121
			c-0.2563-0.187-0.4604-0.4258-0.6113-0.7158c-0.1509-0.2896-0.2231-0.6338-0.2173-1.0322h1.377
			C162.998,42.6785,163.0371,42.8625,163.1157,43.0134z"/>
		<path fill="#FFFFFF" d="M172.6621,44.114c-0.4888,0.4258-1.165,0.6387-2.0288,0.6387c-0.8755,0-1.5532-0.2114-2.0332-0.6343
			c-0.48-0.4224-0.7202-1.0747-0.7202-1.9561v-4.0215h1.4224v4.0215c0,0.1748,0.0146,0.3472,0.0449,0.5161
			s0.0938,0.3184,0.1904,0.4482c0.0962,0.1299,0.231,0.2354,0.4028,0.3169c0.1724,0.0815,0.4033,0.1226,0.6929,0.1226
			c0.5073,0,0.8574-0.1133,1.0508-0.3398s0.29-0.5811,0.29-1.064v-4.0215h1.4219v4.0215
			C173.396,43.0378,173.1514,43.6882,172.6621,44.114z"/>
		<path fill="#FFFFFF" d="M176.0679,39.6941c0.0967-0.311,0.2412-0.5825,0.4346-0.8154c0.1934-0.2319,0.4365-0.4131,0.7295-0.5435
			c0.2925-0.1294,0.6294-0.1943,1.0098-0.1943c0.2896,0,0.5659,0.0449,0.8286,0.1357c0.2627,0.0903,0.4937,0.2202,0.6929,0.3896
			c0.1992,0.1689,0.3579,0.3774,0.4756,0.6245c0.1177,0.248,0.1768,0.5254,0.1768,0.8335c0,0.3203-0.0513,0.5947-0.1543,0.8242
			c-0.1025,0.2295-0.2383,0.4331-0.4072,0.6113c-0.1694,0.1782-0.3608,0.3398-0.5752,0.4844
			c-0.2144,0.145-0.4302,0.2886-0.6475,0.4307c-0.2178,0.1416-0.4292,0.2939-0.6343,0.457s-0.3862,0.3535-0.5435,0.5708h2.998v1.105
			h-4.6553c0-0.3682,0.0527-0.6885,0.1582-0.96c0.1055-0.272,0.249-0.5146,0.4302-0.729s0.394-0.4121,0.6387-0.5933
			s0.5024-0.3657,0.7744-0.5527c0.1387-0.0967,0.2866-0.1948,0.4438-0.2944c0.1567-0.0996,0.3003-0.2095,0.4302-0.3306
			c0.1299-0.1206,0.2383-0.2563,0.3262-0.4077c0.0874-0.1509,0.1313-0.3228,0.1313-0.5161c0-0.3081-0.0894-0.5479-0.2671-0.7202
			c-0.1782-0.1719-0.4062-0.2578-0.6841-0.2578c-0.187,0-0.3457,0.0439-0.4756,0.1313s-0.2339,0.2021-0.3125,0.3442
			c-0.0786,0.1416-0.1343,0.2988-0.1675,0.4707c-0.0332,0.1724-0.0498,0.3428-0.0498,0.5117h-1.2319
			C175.9287,40.3415,175.9712,40.0051,176.0679,39.6941z"/>
	</g>
	<g>
		<path fill="#231F20" d="M32.208,66.6267c-0.085-0.1357-0.1904-0.2549-0.3174-0.3574c-0.1265-0.103-0.27-0.1826-0.4302-0.2402
			c-0.1602-0.0571-0.3276-0.0859-0.5024-0.0859c-0.3203,0-0.5918,0.062-0.8154,0.1855c-0.2231,0.124-0.4043,0.29-0.5435,0.498
			c-0.1387,0.2085-0.2397,0.4453-0.3032,0.7109c-0.0635,0.2661-0.0952,0.5405-0.0952,0.8242c0,0.272,0.0317,0.5361,0.0952,0.793
			c0.0635,0.2563,0.1646,0.4873,0.3032,0.6929c0.1392,0.2051,0.3203,0.3696,0.5435,0.4937
			c0.2236,0.1235,0.4951,0.1855,0.8154,0.1855c0.4346,0,0.7744-0.1328,1.019-0.3984c0.2441-0.2656,0.3936-0.6162,0.4482-1.0508
			h1.3765c-0.0361,0.4048-0.1299,0.77-0.2808,1.0957c-0.1509,0.3262-0.3501,0.604-0.5977,0.8335s-0.5376,0.4048-0.8696,0.5254
			c-0.332,0.1206-0.6973,0.1812-1.0957,0.1812c-0.4951,0-0.9404-0.0859-1.3359-0.2583c-0.3955-0.1719-0.7295-0.4087-1.001-0.7109
			c-0.2715-0.3018-0.48-0.6567-0.625-1.0645c-0.145-0.4072-0.2173-0.8467-0.2173-1.3179c0-0.4829,0.0723-0.9312,0.2173-1.3447
			s0.3535-0.7744,0.625-1.0825c0.2715-0.3076,0.6055-0.5493,1.001-0.7246c0.3955-0.1748,0.8408-0.2627,1.3359-0.2627
			c0.356,0,0.6929,0.0518,1.0098,0.1543c0.3169,0.1025,0.6006,0.252,0.8516,0.4482c0.2505,0.1963,0.457,0.439,0.6201,0.729
			s0.2656,0.6221,0.3081,0.9966h-1.377C32.3467,66.9123,32.2925,66.7629,32.208,66.6267z"/>
		<path fill="#231F20" d="M34.6621,68.0124c0.1147-0.3047,0.2778-0.5645,0.4893-0.7788s0.4648-0.3804,0.7607-0.498
			s0.6279-0.1768,0.9966-0.1768c0.3682,0,0.7017,0.0591,1.0005,0.1768s0.5542,0.2837,0.7656,0.498
			c0.2109,0.2144,0.374,0.4741,0.4888,0.7788c0.1147,0.3052,0.1724,0.645,0.1724,1.019c0,0.3745-0.0576,0.7129-0.1724,1.0146
			s-0.2778,0.5601-0.4888,0.7744c-0.2114,0.2144-0.4668,0.3789-0.7656,0.4937c-0.2988,0.1143-0.6323,0.1719-1.0005,0.1719
			c-0.3687,0-0.7007-0.0576-0.9966-0.1719c-0.2959-0.1147-0.5493-0.2793-0.7607-0.4937s-0.3745-0.4727-0.4893-0.7744
			s-0.1719-0.6401-0.1719-1.0146C34.4902,68.6575,34.5474,68.3176,34.6621,68.0124z M35.8306,69.5793
			c0.0361,0.1782,0.0981,0.3384,0.1855,0.4805c0.0879,0.1416,0.2041,0.2549,0.3491,0.3394c0.1445,0.085,0.3257,0.127,0.5435,0.127
			c0.2173,0,0.3999-0.042,0.5479-0.127c0.1479-0.0845,0.2656-0.1978,0.353-0.3394c0.0874-0.1421,0.1494-0.3022,0.186-0.4805
			c0.0361-0.1777,0.0542-0.3604,0.0542-0.5479c0-0.187-0.0181-0.3711-0.0542-0.5522c-0.0366-0.1812-0.0986-0.3413-0.186-0.48
			c-0.0874-0.1392-0.2051-0.2524-0.353-0.3398s-0.3306-0.1313-0.5479-0.1313c-0.2178,0-0.3989,0.0439-0.5435,0.1313
			c-0.145,0.0874-0.2612,0.2007-0.3491,0.3398c-0.0874,0.1387-0.1494,0.2988-0.1855,0.48s-0.0542,0.3652-0.0542,0.5522
			C35.7764,69.219,35.7944,69.4016,35.8306,69.5793z"/>
		<path fill="#231F20" d="M41.3921,66.6858v0.6519h0.0273c0.1626-0.2715,0.374-0.4692,0.6338-0.5933
			c0.2598-0.1235,0.5254-0.1855,0.7969-0.1855c0.3442,0,0.6265,0.0469,0.8472,0.1406c0.2202,0.0938,0.394,0.2231,0.5205,0.3892
			c0.127,0.1665,0.2158,0.3687,0.2676,0.6069c0.0508,0.2388,0.0767,0.5029,0.0767,0.7925v2.8804h-1.2861v-2.6445
			c0-0.3867-0.0605-0.6748-0.1812-0.8652c-0.1206-0.1899-0.335-0.2852-0.6431-0.2852c-0.3501,0-0.604,0.104-0.7607,0.3125
			c-0.1572,0.208-0.2354,0.5508-0.2354,1.0278v2.4546h-1.2861v-4.6826H41.3921z"/>
		<path fill="#231F20" d="M48.1123,66.6858v0.8604h-0.9419v2.3188c0,0.2173,0.0361,0.3623,0.1084,0.4346
			c0.0728,0.0728,0.2173,0.1089,0.4351,0.1089c0.0723,0,0.1416-0.0029,0.208-0.0093c0.0664-0.0059,0.1299-0.0151,0.1904-0.0269
			v0.9961c-0.1089,0.0181-0.2295,0.0303-0.3623,0.0361s-0.2627,0.0093-0.3896,0.0093c-0.1992,0-0.3882-0.0137-0.5659-0.041
			c-0.1782-0.0269-0.3354-0.0796-0.4712-0.1582s-0.2432-0.1904-0.3213-0.3354c-0.0786-0.1445-0.1177-0.335-0.1177-0.5703v-2.7627
			H45.105v-0.8604h0.7793V65.282h1.2861v1.4038H48.1123z"/>
		<path fill="#231F20" d="M49.9512,66.6858v0.8696h0.0181c0.0601-0.145,0.1416-0.2793,0.2446-0.4033
			c0.1025-0.1235,0.2202-0.2295,0.353-0.3169s0.2749-0.1553,0.4258-0.2036s0.3081-0.0728,0.4712-0.0728
			c0.0845,0,0.1777,0.0151,0.2808,0.0454v1.1953c-0.0605-0.0117-0.1328-0.0225-0.2178-0.0312
			c-0.0845-0.0093-0.166-0.0137-0.2441-0.0137c-0.2358,0-0.4351,0.0391-0.5981,0.1177s-0.2939,0.1855-0.394,0.3213
			c-0.0996,0.1362-0.1704,0.2944-0.2124,0.4756c-0.0425,0.1812-0.0635,0.3774-0.0635,0.5889v2.1104h-1.2861v-4.6826H49.9512z"/>
		<path fill="#231F20" d="M52.1157,68.0124c0.1147-0.3047,0.2778-0.5645,0.4893-0.7788s0.4648-0.3804,0.7607-0.498
			s0.6279-0.1768,0.9966-0.1768c0.3682,0,0.7017,0.0591,1.0005,0.1768s0.5542,0.2837,0.7656,0.498
			c0.2109,0.2144,0.374,0.4741,0.4888,0.7788c0.1147,0.3052,0.1724,0.645,0.1724,1.019c0,0.3745-0.0576,0.7129-0.1724,1.0146
			s-0.2778,0.5601-0.4888,0.7744c-0.2114,0.2144-0.4668,0.3789-0.7656,0.4937c-0.2988,0.1143-0.6323,0.1719-1.0005,0.1719
			c-0.3687,0-0.7007-0.0576-0.9966-0.1719c-0.2959-0.1147-0.5493-0.2793-0.7607-0.4937s-0.3745-0.4727-0.4893-0.7744
			s-0.1719-0.6401-0.1719-1.0146C51.9439,68.6575,52.001,68.3176,52.1157,68.0124z M53.2842,69.5793
			c0.0361,0.1782,0.0981,0.3384,0.1855,0.4805c0.0879,0.1416,0.2041,0.2549,0.3491,0.3394c0.1445,0.085,0.3257,0.127,0.5435,0.127
			c0.2173,0,0.3999-0.042,0.5479-0.127c0.1479-0.0845,0.2656-0.1978,0.353-0.3394c0.0874-0.1421,0.1494-0.3022,0.186-0.4805
			c0.0361-0.1777,0.0542-0.3604,0.0542-0.5479c0-0.187-0.0181-0.3711-0.0542-0.5522c-0.0366-0.1812-0.0986-0.3413-0.186-0.48
			c-0.0874-0.1392-0.2051-0.2524-0.353-0.3398s-0.3306-0.1313-0.5479-0.1313c-0.2178,0-0.3989,0.0439-0.5435,0.1313
			c-0.145,0.0874-0.2612,0.2007-0.3491,0.3398c-0.0874,0.1387-0.1494,0.2988-0.1855,0.48S53.23,68.8445,53.23,69.0315
			C53.23,69.219,53.2481,69.4016,53.2842,69.5793z"/>
		<path fill="#231F20" d="M58.9448,64.9016v6.4668h-1.2861v-6.4668H58.9448z"/>
		<path fill="#231F20" d="M61.2817,64.9016v6.4668h-1.2861v-6.4668H61.2817z"/>
		<path fill="#231F20" d="M63.6724,70.2453c0.1934,0.187,0.4712,0.2808,0.8335,0.2808c0.2593,0,0.4829-0.0649,0.6699-0.1948
			c0.1875-0.1299,0.3022-0.2671,0.3442-0.4121h1.1323c-0.1812,0.5615-0.459,0.9634-0.8335,1.2046
			c-0.374,0.2417-0.8271,0.3623-1.3584,0.3623c-0.3682,0-0.7007-0.0586-0.9961-0.1768c-0.2959-0.1177-0.5469-0.2852-0.752-0.5024
			c-0.2056-0.2173-0.3638-0.4771-0.4756-0.7788c-0.1118-0.3022-0.1675-0.6343-0.1675-0.9966c0-0.3501,0.0571-0.6763,0.1719-0.978
			s0.2778-0.563,0.4893-0.7837c0.2114-0.2202,0.4634-0.394,0.7563-0.5205c0.293-0.127,0.6172-0.1904,0.9736-0.1904
			c0.3984,0,0.7456,0.0771,1.0415,0.231c0.2959,0.1543,0.5391,0.3608,0.729,0.6206c0.1904,0.2598,0.3276,0.5557,0.4121,0.8877
			s0.1147,0.6792,0.0908,1.0415h-3.3784C63.3735,69.7561,63.479,70.0583,63.6724,70.2453z M65.126,67.7815
			c-0.1538-0.1689-0.3877-0.2534-0.7017-0.2534c-0.2056,0-0.376,0.0347-0.5117,0.104c-0.1357,0.0698-0.2446,0.1558-0.3262,0.2583
			s-0.1392,0.2114-0.1719,0.3262c-0.0337,0.1147-0.0532,0.2173-0.0591,0.3076h2.0923
			C65.3872,68.1985,65.2803,67.9509,65.126,67.7815z"/>
		<path fill="#231F20" d="M68.7178,66.6858v0.8696h0.0181c0.0601-0.145,0.1416-0.2793,0.2446-0.4033
			c0.1025-0.1235,0.2202-0.2295,0.353-0.3169s0.2749-0.1553,0.4258-0.2036s0.3081-0.0728,0.4712-0.0728
			c0.0845,0,0.1777,0.0151,0.2808,0.0454v1.1953c-0.0605-0.0117-0.1328-0.0225-0.2178-0.0312
			c-0.0845-0.0093-0.166-0.0137-0.2441-0.0137c-0.2358,0-0.4351,0.0391-0.5981,0.1177s-0.2939,0.1855-0.394,0.3213
			c-0.0996,0.1362-0.1704,0.2944-0.2124,0.4756c-0.0425,0.1812-0.0635,0.3774-0.0635,0.5889v2.1104h-1.2861v-4.6826H68.7178z"/>
		<path fill="#231F20" d="M76.8965,64.9016l2.418,6.4668h-1.4761l-0.4893-1.4399h-2.4185l-0.5068,1.4399h-1.4312l2.4453-6.4668
			H76.8965z M76.9775,68.8684l-0.8149-2.373h-0.0181l-0.8423,2.373H76.9775z"/>
	</g>
	<g>
		<polyline fill="none" stroke="#FFFFFF" stroke-width="5.266" stroke-miterlimit="10" points="102.4465,41.4213 10.0605,41.4213 
			10.0605,11.5762 21.1197,11.5762 		"/>
		<polyline fill="none" stroke="#1E4A93" stroke-width="2.633" stroke-miterlimit="10" points="102.4465,41.4213 10.0605,41.4213 
			10.0605,11.5762 21.1197,11.5762 		"/>
	</g>
	<g>
		<polyline fill="none" stroke="#FFFFFF" stroke-width="5.266" stroke-miterlimit="10" points="102.4465,94.8919 2.633,95.7703 
			2.633,6.1446 21.1197,6.1446 		"/>
		<polyline fill="none" stroke="#1E4A93" stroke-width="2.633" stroke-miterlimit="10" points="102.4465,94.8919 2.633,95.7703 
			2.633,6.1446 21.1197,6.1446 		"/>
	</g>
	<g>
		<polyline fill="none" stroke="#FFFFFF" stroke-width="5.266" stroke-miterlimit="10" points="191.015,93.9704 282.983,93.9704 
			282.983,146.2846 271.7964,146.2846 		"/>
		<polyline fill="none" stroke="#26A9E0" stroke-width="2.633" stroke-miterlimit="10" points="191.015,93.9704 282.983,93.9704 
			282.983,146.2846 271.7964,146.2846 		"/>
	</g>
	<g>
		<polyline fill="none" stroke="#FFFFFF" stroke-width="5.266" stroke-miterlimit="10" points="271.7964,151.2141 290.633,151.2141 
			290.633,41.4236 190.8269,41.4236 		"/>
		<polyline fill="none" stroke="#26A9E0" stroke-width="2.633" stroke-miterlimit="10" points="271.7964,151.2141 290.633,151.2141 
			290.633,41.4236 190.8269,41.4236 		"/>
	</g>
	<g>
		<rect x="20.7954" fill="#1E4A93" width="122.3093" height="17.5549"/>
		<g>
			<path fill="#FFFFFF" d="M30.8936,5.6877c0.3921,0,0.7256,0.0571,1.0005,0.1714c0.2749,0.1138,0.499,0.2646,0.6714,0.4517
				c0.1729,0.1875,0.2983,0.4009,0.3774,0.6406c0.0791,0.2402,0.1187,0.4888,0.1187,0.7461c0,0.252-0.0396,0.499-0.1187,0.7417
				s-0.2046,0.458-0.3774,0.645c-0.1724,0.1875-0.3965,0.3379-0.6714,0.4521c-0.2749,0.1143-0.6084,0.1709-1.0005,0.1709h-1.4482
				v2.2471h-1.3779V5.6877H30.8936z M30.5161,8.6369c0.1582,0,0.3101-0.0117,0.4565-0.0352
				c0.146-0.0234,0.2749-0.0688,0.3862-0.1362c0.1108-0.0674,0.2002-0.1626,0.2676-0.2852c0.0674-0.123,0.1011-0.2837,0.1011-0.4829
				c0-0.1987-0.0337-0.3599-0.1011-0.4824c-0.0674-0.123-0.1567-0.2183-0.2676-0.2856c-0.1113-0.0669-0.2402-0.1123-0.3862-0.1357
				c-0.1465-0.0234-0.2983-0.0352-0.4565-0.0352h-1.0708v1.8784H30.5161z"/>
			<path fill="#FFFFFF" d="M33.8164,8.7024c0.1108-0.2954,0.269-0.5469,0.4736-0.7544c0.2051-0.208,0.4507-0.3687,0.7373-0.4829
				s0.6084-0.1714,0.9653-0.1714s0.6802,0.0571,0.9702,0.1714c0.2896,0.1143,0.5366,0.2749,0.7412,0.4829
				c0.2051,0.2075,0.3628,0.459,0.4741,0.7544c0.1113,0.2959,0.167,0.625,0.167,0.9878s-0.0557,0.6904-0.167,0.9829
				s-0.269,0.5425-0.4741,0.7505c-0.2046,0.2075-0.4517,0.3672-0.7412,0.478c-0.29,0.1113-0.6133,0.167-0.9702,0.167
				s-0.6787-0.0557-0.9653-0.167c-0.2866-0.1108-0.5322-0.2705-0.7373-0.478c-0.2046-0.208-0.3628-0.458-0.4736-0.7505
				c-0.1113-0.2925-0.167-0.6201-0.167-0.9829S33.7051,8.9983,33.8164,8.7024z M34.9482,10.2209
				c0.0352,0.1729,0.0952,0.3276,0.1802,0.4653c0.0845,0.1372,0.1973,0.2471,0.3379,0.3291
				c0.1401,0.082,0.3159,0.1226,0.5264,0.1226c0.2109,0,0.3877-0.0405,0.5312-0.1226c0.1431-0.082,0.2573-0.1919,0.3423-0.3291
				c0.0845-0.1377,0.1445-0.2925,0.1797-0.4653c0.0352-0.1724,0.0527-0.3496,0.0527-0.5308c0-0.1816-0.0176-0.3599-0.0527-0.5356
				c-0.0352-0.1753-0.0952-0.3306-0.1797-0.4653c-0.085-0.1343-0.1992-0.2441-0.3423-0.3291
				c-0.1436-0.0845-0.3203-0.127-0.5312-0.127c-0.2104,0-0.3862,0.0425-0.5264,0.127c-0.1406,0.085-0.2534,0.1948-0.3379,0.3291
				c-0.085,0.1348-0.145,0.29-0.1802,0.4653c-0.0352,0.1758-0.0527,0.354-0.0527,0.5356
				C34.8955,9.8713,34.9131,10.0486,34.9482,10.2209z"/>
			<path fill="#FFFFFF" d="M43.0576,11.9543l-0.8071-3.0454h-0.0176l-0.7725,3.0454h-1.29L38.731,7.4167h1.3164l0.834,3.0806h0.0176
				l0.7544-3.0806h1.2114l0.7725,3.0718h0.0176l0.8335-3.0718H45.77l-1.4307,4.5376H43.0576z"/>
			<path fill="#FFFFFF" d="M47.6309,10.866c0.187,0.1816,0.4561,0.272,0.8071,0.272c0.252,0,0.4683-0.0625,0.6499-0.1885
				c0.1812-0.126,0.2925-0.2588,0.3335-0.3994h1.0972c-0.1758,0.5439-0.4448,0.9336-0.8076,1.1675s-0.8018,0.3511-1.3164,0.3511
				c-0.3569,0-0.6792-0.0571-0.9658-0.1714s-0.5293-0.2764-0.7285-0.4868c-0.1987-0.2109-0.3525-0.4624-0.4604-0.7549
				c-0.1084-0.2925-0.1626-0.6147-0.1626-0.9653c0-0.3394,0.0557-0.6553,0.167-0.9482c0.1108-0.2925,0.269-0.5454,0.4736-0.7593
				c0.2051-0.2134,0.4492-0.3813,0.7329-0.5044s0.5981-0.1846,0.9438-0.1846c0.3862,0,0.7222,0.0747,1.0093,0.2241
				c0.2866,0.1489,0.522,0.3496,0.7065,0.6011c0.1841,0.2515,0.3174,0.5386,0.3994,0.8604
				c0.0815,0.3218,0.1108,0.6582,0.0874,1.0093h-3.2734C47.3413,10.3918,47.4434,10.6848,47.6309,10.866z M49.0396,8.4787
				c-0.1494-0.1636-0.376-0.2456-0.6802-0.2456c-0.1992,0-0.3643,0.0337-0.4961,0.1006c-0.1313,0.0674-0.2368,0.1509-0.3159,0.2505
				s-0.1348,0.2046-0.1665,0.3159c-0.0322,0.1113-0.0518,0.2104-0.0571,0.2983h2.0273C49.2925,8.8826,49.1885,8.6428,49.0396,8.4787
				z"/>
			<path fill="#FFFFFF" d="M52.519,7.4167v0.8428h0.0176c0.0586-0.1406,0.1377-0.271,0.2373-0.3906
				c0.0991-0.1201,0.2134-0.2227,0.3423-0.3071c0.1284-0.085,0.2661-0.1509,0.4121-0.1978
				c0.1465-0.0469,0.2983-0.0703,0.4565-0.0703c0.082,0,0.1724,0.0146,0.272,0.0439v1.1587
				c-0.0586-0.0117-0.1284-0.022-0.2104-0.0308s-0.1611-0.0132-0.2368-0.0132c-0.2285,0-0.4214,0.0381-0.5796,0.1143
				c-0.1577,0.0762-0.2852,0.1797-0.3818,0.3115c-0.0962,0.1313-0.165,0.2852-0.2061,0.4609
				c-0.041,0.1753-0.0615,0.3657-0.0615,0.5703v2.0449h-1.2461V7.4167H52.519z"/>
			<path fill="#FFFFFF" d="M58.2373,10.8264c0.0552,0.0967,0.127,0.1758,0.2148,0.2373c0.0879,0.061,0.1885,0.1064,0.3027,0.1357
				s0.2324,0.0439,0.3555,0.0439c0.0879,0,0.1802-0.0103,0.2764-0.0308c0.0967-0.0205,0.1846-0.0527,0.2637-0.0967
				c0.0786-0.0435,0.1445-0.1021,0.1973-0.1753s0.0791-0.1655,0.0791-0.2764c0-0.1875-0.1245-0.3276-0.373-0.4214
				c-0.249-0.0938-0.5957-0.187-1.04-0.2808c-0.1816-0.041-0.3584-0.0894-0.5312-0.145c-0.1724-0.0557-0.3262-0.1284-0.4604-0.2192
				c-0.1348-0.0908-0.2432-0.2051-0.3247-0.3423c-0.082-0.1377-0.123-0.3057-0.123-0.5049c0-0.2925,0.0571-0.5322,0.1709-0.7197
				c0.1143-0.187,0.2651-0.335,0.4521-0.4429c0.1875-0.1084,0.3979-0.1846,0.6318-0.2285s0.4741-0.0659,0.7197-0.0659
				c0.2461,0,0.4844,0.0234,0.7153,0.0703s0.4375,0.126,0.6187,0.2373c0.1816,0.1108,0.332,0.2588,0.4521,0.4429
				c0.1201,0.1846,0.1919,0.417,0.2153,0.6978h-1.1851c-0.0176-0.2397-0.1084-0.4023-0.272-0.4868
				c-0.1641-0.085-0.3569-0.1274-0.5796-0.1274c-0.0698,0-0.146,0.0044-0.228,0.0132S58.6289,8.1687,58.562,8.198
				c-0.0674,0.0293-0.1245,0.0718-0.1714,0.127c-0.0469,0.0557-0.0703,0.1304-0.0703,0.2241c0,0.1113,0.041,0.2017,0.123,0.272
				s0.1885,0.1274,0.3203,0.1714c0.1318,0.0435,0.2822,0.083,0.4521,0.1182c0.1694,0.0352,0.3423,0.0732,0.5176,0.1143
				c0.1816,0.041,0.3584,0.0908,0.5312,0.1489c0.1724,0.0586,0.3262,0.1362,0.4604,0.2329
				c0.1348,0.0962,0.2432,0.2163,0.3252,0.3599c0.0815,0.1431,0.1226,0.3203,0.1226,0.5308c0,0.2983-0.0601,0.5488-0.1797,0.7505
				c-0.1201,0.2017-0.2769,0.3643-0.4697,0.4873c-0.1929,0.1226-0.4141,0.209-0.6626,0.2588
				c-0.249,0.0498-0.502,0.0747-0.7593,0.0747c-0.2632,0-0.521-0.0264-0.7725-0.0791s-0.4751-0.1406-0.6714-0.2632
				c-0.1958-0.123-0.3569-0.2856-0.4824-0.4873c-0.126-0.2017-0.1948-0.4551-0.2065-0.7593h1.1851
				C58.1538,10.6145,58.1816,10.7302,58.2373,10.8264z"/>
			<path fill="#FFFFFF" d="M61.9277,8.7024c0.1108-0.2954,0.269-0.5469,0.4736-0.7544c0.2051-0.208,0.4507-0.3687,0.7373-0.4829
				s0.6084-0.1714,0.9653-0.1714c0.3569,0,0.6802,0.0571,0.9702,0.1714c0.2896,0.1143,0.5366,0.2749,0.7412,0.4829
				c0.2051,0.2075,0.3628,0.459,0.4741,0.7544c0.1113,0.2959,0.167,0.625,0.167,0.9878s-0.0557,0.6904-0.167,0.9829
				s-0.269,0.5425-0.4741,0.7505c-0.2046,0.2075-0.4517,0.3672-0.7412,0.478c-0.29,0.1113-0.6133,0.167-0.9702,0.167
				c-0.3569,0-0.6787-0.0557-0.9653-0.167c-0.2866-0.1108-0.5322-0.2705-0.7373-0.478c-0.2046-0.208-0.3628-0.458-0.4736-0.7505
				c-0.1113-0.2925-0.167-0.6201-0.167-0.9829S61.8164,8.9983,61.9277,8.7024z M63.0596,10.2209
				c0.0352,0.1729,0.0952,0.3276,0.1802,0.4653c0.0845,0.1372,0.1973,0.2471,0.3379,0.3291
				c0.1401,0.082,0.3159,0.1226,0.5264,0.1226c0.2109,0,0.3877-0.0405,0.5312-0.1226c0.1431-0.082,0.2573-0.1919,0.3423-0.3291
				c0.0845-0.1377,0.1445-0.2925,0.1797-0.4653c0.0352-0.1724,0.0527-0.3496,0.0527-0.5308c0-0.1816-0.0176-0.3599-0.0527-0.5356
				c-0.0352-0.1753-0.0952-0.3306-0.1797-0.4653c-0.085-0.1343-0.1992-0.2441-0.3423-0.3291
				c-0.1436-0.0845-0.3203-0.127-0.5312-0.127c-0.2104,0-0.3862,0.0425-0.5264,0.127c-0.1406,0.085-0.2534,0.1948-0.3379,0.3291
				c-0.085,0.1348-0.145,0.29-0.1802,0.4653c-0.0352,0.1758-0.0527,0.354-0.0527,0.5356
				C63.0068,9.8713,63.0244,10.0486,63.0596,10.2209z"/>
			<path fill="#FFFFFF" d="M70.3359,11.9543v-0.6318h-0.0264c-0.1582,0.2632-0.3628,0.4536-0.6143,0.5703
				c-0.252,0.1172-0.5093,0.1758-0.7725,0.1758c-0.3335,0-0.6069-0.0439-0.8208-0.1318c-0.2134-0.0879-0.3818-0.2119-0.5044-0.373
				c-0.123-0.1606-0.2095-0.3569-0.2593-0.5879s-0.0742-0.4873-0.0742-0.7681v-2.791h1.2461v2.563
				c0,0.3745,0.0586,0.6538,0.1758,0.8379c0.1167,0.1846,0.3247,0.2764,0.623,0.2764c0.3394,0,0.585-0.1006,0.7373-0.3027
				c0.1519-0.2017,0.228-0.5337,0.228-0.9961V7.4167h1.2461v4.5376H70.3359z"/>
			<path fill="#FFFFFF" d="M73.6533,7.4167v0.8428h0.0176c0.0586-0.1406,0.1377-0.271,0.2373-0.3906
				c0.0991-0.1201,0.2134-0.2227,0.3423-0.3071c0.1284-0.085,0.2661-0.1509,0.4121-0.1978
				c0.1465-0.0469,0.2983-0.0703,0.4565-0.0703c0.082,0,0.1724,0.0146,0.272,0.0439v1.1587
				c-0.0586-0.0117-0.1284-0.022-0.2104-0.0308s-0.1611-0.0132-0.2368-0.0132c-0.2285,0-0.4214,0.0381-0.5796,0.1143
				c-0.1577,0.0762-0.2852,0.1797-0.3818,0.3115c-0.0962,0.1313-0.165,0.2852-0.2061,0.4609
				c-0.041,0.1753-0.0615,0.3657-0.0615,0.5703v2.0449h-1.2461V7.4167H73.6533z"/>
			<path fill="#FFFFFF" d="M77.8921,8.2331c-0.1987,0-0.3657,0.0454-0.5,0.1357c-0.1348,0.0908-0.2446,0.208-0.3291,0.3511
				c-0.085,0.1436-0.145,0.3018-0.1802,0.4741c-0.0352,0.1729-0.0527,0.3438-0.0527,0.5132c0,0.1641,0.0176,0.3311,0.0527,0.5005
				c0.0352,0.1699,0.0923,0.3232,0.1714,0.4609c0.0791,0.1372,0.1855,0.25,0.3203,0.3379c0.1343,0.0874,0.2983,0.1313,0.4912,0.1313
				c0.2988,0,0.5283-0.083,0.6895-0.25c0.1606-0.1665,0.2617-0.3906,0.3027-0.6714h1.2021c-0.082,0.6025-0.3159,1.062-0.7021,1.3779
				s-0.8804,0.4741-1.4834,0.4741c-0.3394,0-0.6509-0.0571-0.9346-0.1714s-0.5254-0.2734-0.7241-0.478
				c-0.1987-0.2051-0.354-0.4492-0.4648-0.7329c-0.1113-0.2837-0.167-0.5957-0.167-0.9351c0-0.3511,0.0513-0.6772,0.1538-0.9785
				c0.1021-0.3013,0.2529-0.5615,0.4517-0.7812c0.1992-0.2192,0.4419-0.3901,0.7285-0.5132s0.6143-0.1846,0.9829-0.1846
				c0.269,0,0.5283,0.0352,0.7769,0.1055s0.4712,0.1772,0.667,0.3203c0.1963,0.1436,0.3555,0.3218,0.4785,0.5356
				c0.123,0.2134,0.1929,0.4663,0.2104,0.7588H78.814C78.7319,8.4934,78.4248,8.2331,77.8921,8.2331z"/>
			<path fill="#FFFFFF" d="M82.0967,10.866c0.187,0.1816,0.4561,0.272,0.8071,0.272c0.252,0,0.4683-0.0625,0.6499-0.1885
				c0.1812-0.126,0.2925-0.2588,0.3335-0.3994h1.0972c-0.1758,0.5439-0.4448,0.9336-0.8076,1.1675s-0.8018,0.3511-1.3164,0.3511
				c-0.3569,0-0.6792-0.0571-0.9658-0.1714s-0.5293-0.2764-0.7285-0.4868c-0.1987-0.2109-0.3525-0.4624-0.4604-0.7549
				c-0.1084-0.2925-0.1626-0.6147-0.1626-0.9653c0-0.3394,0.0557-0.6553,0.167-0.9482c0.1108-0.2925,0.269-0.5454,0.4736-0.7593
				c0.2051-0.2134,0.4492-0.3813,0.7329-0.5044s0.5981-0.1846,0.9438-0.1846c0.3862,0,0.7222,0.0747,1.0093,0.2241
				c0.2866,0.1489,0.522,0.3496,0.7065,0.6011c0.1841,0.2515,0.3174,0.5386,0.3994,0.8604
				c0.0815,0.3218,0.1108,0.6582,0.0874,1.0093h-3.2734C81.8071,10.3918,81.9092,10.6848,82.0967,10.866z M83.5054,8.4787
				c-0.1494-0.1636-0.376-0.2456-0.6802-0.2456c-0.1992,0-0.3643,0.0337-0.4961,0.1006c-0.1313,0.0674-0.2368,0.1509-0.3159,0.2505
				s-0.1348,0.2046-0.1665,0.3159c-0.0322,0.1113-0.0518,0.2104-0.0571,0.2983h2.0273C83.7583,8.8826,83.6543,8.6428,83.5054,8.4787
				z"/>
			<path fill="#FFFFFF" d="M88.2666,8.7024c0.1108-0.2954,0.269-0.5469,0.4736-0.7544c0.2051-0.208,0.4507-0.3687,0.7373-0.4829
				s0.6084-0.1714,0.9653-0.1714s0.6802,0.0571,0.9702,0.1714c0.2896,0.1143,0.5366,0.2749,0.7412,0.4829
				c0.2051,0.2075,0.3628,0.459,0.4741,0.7544c0.1113,0.2959,0.167,0.625,0.167,0.9878s-0.0557,0.6904-0.167,0.9829
				s-0.269,0.5425-0.4741,0.7505c-0.2046,0.2075-0.4517,0.3672-0.7412,0.478c-0.29,0.1113-0.6133,0.167-0.9702,0.167
				s-0.6787-0.0557-0.9653-0.167c-0.2866-0.1108-0.5322-0.2705-0.7373-0.478c-0.2046-0.208-0.3628-0.458-0.4736-0.7505
				c-0.1113-0.2925-0.167-0.6201-0.167-0.9829S88.1553,8.9983,88.2666,8.7024z M89.3984,10.2209
				c0.0352,0.1729,0.0952,0.3276,0.1802,0.4653c0.0845,0.1372,0.1973,0.2471,0.3379,0.3291
				c0.1401,0.082,0.3159,0.1226,0.5264,0.1226c0.2109,0,0.3877-0.0405,0.5312-0.1226c0.1431-0.082,0.2573-0.1919,0.3423-0.3291
				c0.0845-0.1377,0.1445-0.2925,0.1797-0.4653c0.0352-0.1724,0.0527-0.3496,0.0527-0.5308c0-0.1816-0.0176-0.3599-0.0527-0.5356
				c-0.0352-0.1753-0.0952-0.3306-0.1797-0.4653c-0.085-0.1343-0.1992-0.2441-0.3423-0.3291
				c-0.1436-0.0845-0.3203-0.127-0.5312-0.127c-0.2104,0-0.3862,0.0425-0.5264,0.127c-0.1406,0.085-0.2534,0.1948-0.3379,0.3291
				c-0.085,0.1348-0.145,0.29-0.1802,0.4653c-0.0352,0.1758-0.0527,0.354-0.0527,0.5356
				C89.3457,9.8713,89.3633,10.0486,89.3984,10.2209z"/>
			<path fill="#FFFFFF" d="M94.7871,7.4167v0.6318h0.0264c0.1582-0.2632,0.3628-0.4546,0.6143-0.5747s0.5093-0.1802,0.7725-0.1802
				c0.3335,0,0.6069,0.0454,0.8208,0.1362c0.2134,0.0908,0.3818,0.2163,0.5044,0.3774c0.123,0.1611,0.2095,0.3569,0.2593,0.5879
				c0.0493,0.2314,0.0742,0.4873,0.0742,0.7681v2.791h-1.2461v-2.563c0-0.374-0.0586-0.6538-0.1758-0.8379
				c-0.1167-0.1846-0.3247-0.2764-0.623-0.2764c-0.3394,0-0.585,0.1006-0.7373,0.3027c-0.1519,0.2017-0.228,0.5337-0.228,0.9961
				v2.3784h-1.2461V7.4167H94.7871z"/>
			<path fill="#FFFFFF" d="M103.4146,8.2331c-0.1987,0-0.3657,0.0454-0.5,0.1357c-0.1348,0.0908-0.2446,0.208-0.3291,0.3511
				c-0.085,0.1436-0.145,0.3018-0.1802,0.4741c-0.0352,0.1729-0.0527,0.3438-0.0527,0.5132c0,0.1641,0.0176,0.3311,0.0527,0.5005
				c0.0352,0.1699,0.0923,0.3232,0.1714,0.4609c0.0791,0.1372,0.1855,0.25,0.3203,0.3379c0.1343,0.0874,0.2983,0.1313,0.4912,0.1313
				c0.2988,0,0.5283-0.083,0.6895-0.25c0.1606-0.1665,0.2617-0.3906,0.3027-0.6714h1.2021c-0.082,0.6025-0.3159,1.062-0.7021,1.3779
				S104,12.0686,103.397,12.0686c-0.3394,0-0.6509-0.0571-0.9346-0.1714s-0.5254-0.2734-0.7241-0.478
				c-0.1987-0.2051-0.354-0.4492-0.4648-0.7329c-0.1113-0.2837-0.167-0.5957-0.167-0.9351c0-0.3511,0.0513-0.6772,0.1538-0.9785
				c0.1021-0.3013,0.2529-0.5615,0.4517-0.7812c0.1992-0.2192,0.4419-0.3901,0.7285-0.5132s0.6143-0.1846,0.9829-0.1846
				c0.269,0,0.5283,0.0352,0.7769,0.1055s0.4712,0.1772,0.667,0.3203c0.1963,0.1436,0.3555,0.3218,0.4785,0.5356
				c0.123,0.2134,0.1929,0.4663,0.2104,0.7588h-1.2197C104.2544,8.4934,103.9473,8.2331,103.4146,8.2331z"/>
			<path fill="#FFFFFF" d="M106.3198,6.7146V5.6877h1.2461v1.0269H106.3198z M107.5659,7.4167v4.5376h-1.2461V7.4167H107.5659z"/>
			<path fill="#FFFFFF" d="M109.7339,7.4167v0.8428h0.0176c0.0586-0.1406,0.1377-0.271,0.2373-0.3906
				c0.0991-0.1201,0.2134-0.2227,0.3423-0.3071c0.1284-0.085,0.2661-0.1509,0.4121-0.1978
				c0.1465-0.0469,0.2983-0.0703,0.4565-0.0703c0.082,0,0.1724,0.0146,0.272,0.0439v1.1587
				c-0.0586-0.0117-0.1284-0.022-0.2104-0.0308s-0.1611-0.0132-0.2368-0.0132c-0.2285,0-0.4214,0.0381-0.5796,0.1143
				c-0.1577,0.0762-0.2852,0.1797-0.3818,0.3115c-0.0962,0.1313-0.165,0.2852-0.2061,0.4609
				c-0.041,0.1753-0.0615,0.3657-0.0615,0.5703v2.0449h-1.2461V7.4167H109.7339z"/>
			<path fill="#FFFFFF" d="M113.9731,8.2331c-0.1987,0-0.3657,0.0454-0.5,0.1357c-0.1348,0.0908-0.2446,0.208-0.3291,0.3511
				c-0.085,0.1436-0.145,0.3018-0.1802,0.4741c-0.0352,0.1729-0.0527,0.3438-0.0527,0.5132c0,0.1641,0.0176,0.3311,0.0527,0.5005
				c0.0352,0.1699,0.0923,0.3232,0.1714,0.4609c0.0791,0.1372,0.1855,0.25,0.3203,0.3379c0.1343,0.0874,0.2983,0.1313,0.4912,0.1313
				c0.2988,0,0.5283-0.083,0.6895-0.25c0.1606-0.1665,0.2617-0.3906,0.3027-0.6714h1.2021c-0.082,0.6025-0.3159,1.062-0.7021,1.3779
				s-0.8804,0.4741-1.4834,0.4741c-0.3394,0-0.6509-0.0571-0.9346-0.1714s-0.5254-0.2734-0.7241-0.478
				c-0.1987-0.2051-0.354-0.4492-0.4648-0.7329c-0.1113-0.2837-0.167-0.5957-0.167-0.9351c0-0.3511,0.0513-0.6772,0.1538-0.9785
				c0.1021-0.3013,0.2529-0.5615,0.4517-0.7812c0.1992-0.2192,0.4419-0.3901,0.7285-0.5132s0.6143-0.1846,0.9829-0.1846
				c0.269,0,0.5283,0.0352,0.7769,0.1055s0.4712,0.1772,0.667,0.3203c0.1963,0.1436,0.3555,0.3218,0.4785,0.5356
				c0.123,0.2134,0.1929,0.4663,0.2104,0.7588h-1.2197C114.813,8.4934,114.5059,8.2331,113.9731,8.2331z"/>
			<path fill="#FFFFFF" d="M119.915,11.9543v-0.6318h-0.0264c-0.1582,0.2632-0.3628,0.4536-0.6143,0.5703
				c-0.252,0.1172-0.5093,0.1758-0.7725,0.1758c-0.3335,0-0.6069-0.0439-0.8208-0.1318c-0.2134-0.0879-0.3818-0.2119-0.5044-0.373
				c-0.123-0.1606-0.2095-0.3569-0.2593-0.5879s-0.0742-0.4873-0.0742-0.7681v-2.791h1.2461v2.563
				c0,0.3745,0.0586,0.6538,0.1758,0.8379c0.1167,0.1846,0.3247,0.2764,0.623,0.2764c0.3394,0,0.585-0.1006,0.7373-0.3027
				c0.1519-0.2017,0.228-0.5337,0.228-0.9961V7.4167h1.2461v4.5376H119.915z"/>
			<path fill="#FFFFFF" d="M122.083,6.7146V5.6877h1.2461v1.0269H122.083z M123.3291,7.4167v4.5376h-1.2461V7.4167H123.3291z"/>
			<path fill="#FFFFFF" d="M126.8042,7.4167v0.834h-0.9126v2.2466c0,0.2109,0.0352,0.3511,0.1055,0.4214
				s0.2104,0.1055,0.4214,0.1055c0.0698,0,0.1372-0.0029,0.2017-0.0088s0.126-0.0146,0.1841-0.0264v0.9653
				c-0.105,0.0176-0.2222,0.0293-0.3511,0.0352c-0.1284,0.0059-0.2544,0.0088-0.377,0.0088c-0.1934,0-0.3765-0.0132-0.5488-0.0396
				s-0.3247-0.0776-0.4565-0.1538c-0.1313-0.0757-0.2354-0.1841-0.3115-0.3247c-0.0762-0.1401-0.1138-0.3247-0.1138-0.5527V8.2507
				h-0.7549v-0.834h0.7549V6.0564h1.2461v1.3604H126.8042z"/>
			<path fill="#FFFFFF" d="M133.0972,5.6877l2.3438,6.2666h-1.4307l-0.4741-1.3955h-2.3433l-0.4917,1.3955h-1.3867l2.3696-6.2666
				H133.0972z M133.1763,9.532l-0.79-2.2993h-0.0176l-0.8159,2.2993H133.1763z"/>
		</g>
	</g>
	<g>
		<rect x="149.7496" y="140.2564" fill="#26A9E0" width="122.3093" height="17.5549"/>
		<g>
			<path fill="#FFFFFF" d="M159.8477,145.9451c0.3921,0,0.7256,0.0566,1.0005,0.1709s0.499,0.2646,0.6714,0.4521
				c0.1729,0.1875,0.2983,0.4014,0.3774,0.6406c0.0791,0.2402,0.1187,0.4893,0.1187,0.7461c0,0.252-0.0396,0.499-0.1187,0.7422
				c-0.0791,0.2422-0.2046,0.457-0.3774,0.6445c-0.1724,0.1875-0.3965,0.3379-0.6714,0.4521s-0.6084,0.1709-1.0005,0.1709h-1.4482
				v2.2471h-1.3779v-6.2666H159.8477z M159.4702,148.8943c0.1582,0,0.3101-0.0117,0.4565-0.0352
				c0.146-0.0234,0.2749-0.0693,0.3862-0.1357c0.1108-0.0674,0.2002-0.1631,0.2676-0.2861
				c0.0674-0.1221,0.1011-0.2832,0.1011-0.4824s-0.0337-0.3594-0.1011-0.4824s-0.1567-0.2178-0.2676-0.2852
				c-0.1113-0.0674-0.2402-0.1133-0.3862-0.1367c-0.1465-0.0225-0.2983-0.0352-0.4565-0.0352h-1.0708v1.8789H159.4702z"/>
			<path fill="#FFFFFF" d="M162.7705,148.9597c0.1108-0.2949,0.269-0.5469,0.4736-0.7549c0.2051-0.207,0.4507-0.3682,0.7373-0.4824
				s0.6084-0.1709,0.9653-0.1709s0.6802,0.0566,0.9702,0.1709c0.2896,0.1143,0.5366,0.2754,0.7412,0.4824
				c0.2051,0.208,0.3628,0.46,0.4741,0.7549c0.1113,0.2959,0.167,0.625,0.167,0.9873c0,0.3633-0.0557,0.6904-0.167,0.9834
				s-0.269,0.543-0.4741,0.75c-0.2046,0.208-0.4517,0.3672-0.7412,0.4785c-0.29,0.1113-0.6133,0.167-0.9702,0.167
				s-0.6787-0.0557-0.9653-0.167s-0.5322-0.2705-0.7373-0.4785c-0.2046-0.207-0.3628-0.457-0.4736-0.75
				c-0.1113-0.293-0.167-0.6201-0.167-0.9834C162.6035,149.5847,162.6592,149.2556,162.7705,148.9597z M163.9023,150.4783
				c0.0352,0.1729,0.0952,0.3281,0.1802,0.4648c0.0845,0.1377,0.1973,0.248,0.3379,0.3291c0.1401,0.082,0.3159,0.123,0.5264,0.123
				c0.2109,0,0.3877-0.041,0.5312-0.123c0.1431-0.0811,0.2573-0.1914,0.3423-0.3291c0.0845-0.1367,0.1445-0.292,0.1797-0.4648
				s0.0527-0.3496,0.0527-0.5312c0-0.1807-0.0176-0.3594-0.0527-0.5352s-0.0952-0.3301-0.1797-0.4648
				c-0.085-0.1348-0.1992-0.2441-0.3423-0.3291c-0.1436-0.085-0.3203-0.1279-0.5312-0.1279c-0.2104,0-0.3862,0.043-0.5264,0.1279
				c-0.1406,0.085-0.2534,0.1943-0.3379,0.3291c-0.085,0.1348-0.145,0.2891-0.1802,0.4648s-0.0527,0.3545-0.0527,0.5352
				C163.8496,150.1286,163.8672,150.3054,163.9023,150.4783z"/>
			<path fill="#FFFFFF" d="M172.0117,152.2117l-0.8071-3.0459h-0.0176l-0.7725,3.0459h-1.29l-1.4395-4.5371h1.3164l0.834,3.0801
				h0.0176l0.7544-3.0801h1.2114l0.7725,3.0713h0.0176l0.8335-3.0713h1.2817l-1.4307,4.5371H172.0117z"/>
			<path fill="#FFFFFF" d="M176.585,151.1238c0.187,0.1807,0.4561,0.2715,0.8071,0.2715c0.252,0,0.4683-0.0625,0.6499-0.1885
				c0.1812-0.126,0.2925-0.2588,0.3335-0.3994h1.0972c-0.1758,0.5439-0.4448,0.9336-0.8076,1.167
				c-0.3628,0.2344-0.8018,0.3516-1.3164,0.3516c-0.3569,0-0.6792-0.0576-0.9658-0.1709c-0.2866-0.1143-0.5293-0.2773-0.7285-0.4873
				c-0.1987-0.2109-0.3525-0.4619-0.4604-0.7549c-0.1084-0.293-0.1626-0.6143-0.1626-0.9658c0-0.3389,0.0557-0.6553,0.167-0.9473
				c0.1108-0.293,0.269-0.5459,0.4736-0.7598c0.2051-0.2129,0.4492-0.3818,0.7329-0.5049c0.2837-0.1221,0.5981-0.1836,0.9438-0.1836
				c0.3862,0,0.7222,0.0742,1.0093,0.2236c0.2866,0.1494,0.522,0.3496,0.7065,0.6016c0.1841,0.251,0.3174,0.5381,0.3994,0.8594
				c0.0815,0.3223,0.1108,0.6582,0.0874,1.0098h-3.2734C176.2954,150.6492,176.3975,150.9421,176.585,151.1238z M177.9937,148.7361
				c-0.1494-0.1641-0.376-0.2461-0.6802-0.2461c-0.1992,0-0.3643,0.0342-0.4961,0.1016c-0.1313,0.0674-0.2368,0.1504-0.3159,0.25
				s-0.1348,0.2051-0.1665,0.3154c-0.0322,0.1113-0.0518,0.2109-0.0571,0.2988h2.0273
				C178.2466,149.1394,178.1426,148.9001,177.9937,148.7361z"/>
			<path fill="#FFFFFF" d="M181.4731,147.6745v0.8418h0.0176c0.0586-0.1396,0.1377-0.2705,0.2373-0.3906
				c0.0991-0.1191,0.2134-0.2217,0.3423-0.3066c0.1284-0.085,0.2661-0.1504,0.4121-0.1973
				c0.1465-0.0469,0.2983-0.0703,0.4565-0.0703c0.082,0,0.1724,0.0146,0.272,0.0439v1.1582
				c-0.0586-0.0117-0.1284-0.0225-0.2104-0.0303c-0.082-0.0088-0.1611-0.0137-0.2368-0.0137c-0.2285,0-0.4214,0.0381-0.5796,0.1143
				c-0.1577,0.0762-0.2852,0.1797-0.3818,0.3115c-0.0962,0.1318-0.165,0.2852-0.2061,0.4609s-0.0615,0.3652-0.0615,0.5703v2.0449
				h-1.2461v-4.5371H181.4731z"/>
			<path fill="#FFFFFF" d="M187.1914,151.0837c0.0552,0.0967,0.127,0.1758,0.2148,0.2373s0.1885,0.1064,0.3027,0.1357
				s0.2324,0.0439,0.3555,0.0439c0.0879,0,0.1802-0.0098,0.2764-0.0303c0.0967-0.0205,0.1846-0.0527,0.2637-0.0967
				c0.0786-0.0439,0.1445-0.1025,0.1973-0.1758s0.0791-0.165,0.0791-0.2764c0-0.1875-0.1245-0.3281-0.373-0.4219
				c-0.249-0.0928-0.5957-0.1865-1.04-0.2803c-0.1816-0.041-0.3584-0.0889-0.5312-0.1445
				c-0.1724-0.0557-0.3262-0.1289-0.4604-0.2197c-0.1348-0.0908-0.2432-0.2051-0.3247-0.3428
				c-0.082-0.1367-0.123-0.3057-0.123-0.5039c0-0.293,0.0571-0.5332,0.1709-0.7197c0.1143-0.1875,0.2651-0.335,0.4521-0.4434
				c0.1875-0.1084,0.3979-0.1846,0.6318-0.2285s0.4741-0.0654,0.7197-0.0654c0.2461,0,0.4844,0.0234,0.7153,0.0703
				s0.4375,0.126,0.6187,0.2363c0.1816,0.1113,0.332,0.2588,0.4521,0.4434s0.1919,0.417,0.2153,0.6982h-1.1851
				c-0.0176-0.2402-0.1084-0.4023-0.272-0.4873c-0.1641-0.085-0.3569-0.1279-0.5796-0.1279c-0.0698,0-0.146,0.0049-0.228,0.0137
				s-0.1567,0.0273-0.2236,0.0566c-0.0674,0.0293-0.1245,0.0723-0.1714,0.1279s-0.0703,0.1299-0.0703,0.2236
				c0,0.1113,0.041,0.2021,0.123,0.2725c0.082,0.0693,0.1885,0.127,0.3203,0.1709s0.2822,0.083,0.4521,0.1182
				c0.1694,0.0352,0.3423,0.0732,0.5176,0.1143c0.1816,0.041,0.3584,0.0908,0.5312,0.1494
				c0.1724,0.0586,0.3262,0.1357,0.4604,0.2324c0.1348,0.0967,0.2432,0.2168,0.3252,0.3594
				c0.0815,0.1436,0.1226,0.3203,0.1226,0.5312c0,0.2988-0.0601,0.5488-0.1797,0.751c-0.1201,0.2012-0.2769,0.3633-0.4697,0.4863
				s-0.4141,0.21-0.6626,0.2588c-0.249,0.0498-0.502,0.0752-0.7593,0.0752c-0.2632,0-0.521-0.0264-0.7725-0.0791
				s-0.4751-0.1406-0.6714-0.2637c-0.1958-0.1221-0.3569-0.2852-0.4824-0.4863c-0.126-0.2021-0.1948-0.4551-0.2065-0.7598h1.1851
				C187.1079,150.8718,187.1357,150.987,187.1914,151.0837z"/>
			<path fill="#FFFFFF" d="M190.8818,148.9597c0.1108-0.2949,0.269-0.5469,0.4736-0.7549c0.2051-0.207,0.4507-0.3682,0.7373-0.4824
				s0.6084-0.1709,0.9653-0.1709s0.6802,0.0566,0.9702,0.1709c0.2896,0.1143,0.5366,0.2754,0.7412,0.4824
				c0.2051,0.208,0.3628,0.46,0.4741,0.7549c0.1113,0.2959,0.167,0.625,0.167,0.9873c0,0.3633-0.0557,0.6904-0.167,0.9834
				s-0.269,0.543-0.4741,0.75c-0.2046,0.208-0.4517,0.3672-0.7412,0.4785c-0.29,0.1113-0.6133,0.167-0.9702,0.167
				s-0.6787-0.0557-0.9653-0.167s-0.5322-0.2705-0.7373-0.4785c-0.2046-0.207-0.3628-0.457-0.4736-0.75
				c-0.1113-0.293-0.167-0.6201-0.167-0.9834C190.7148,149.5847,190.7705,149.2556,190.8818,148.9597z M192.0137,150.4783
				c0.0352,0.1729,0.0952,0.3281,0.1802,0.4648c0.0845,0.1377,0.1973,0.248,0.3379,0.3291c0.1401,0.082,0.3159,0.123,0.5264,0.123
				c0.2109,0,0.3877-0.041,0.5312-0.123c0.1431-0.0811,0.2573-0.1914,0.3423-0.3291c0.0845-0.1367,0.1445-0.292,0.1797-0.4648
				s0.0527-0.3496,0.0527-0.5312c0-0.1807-0.0176-0.3594-0.0527-0.5352s-0.0952-0.3301-0.1797-0.4648
				c-0.085-0.1348-0.1992-0.2441-0.3423-0.3291c-0.1436-0.085-0.3203-0.1279-0.5312-0.1279c-0.2104,0-0.3862,0.043-0.5264,0.1279
				c-0.1406,0.085-0.2534,0.1943-0.3379,0.3291c-0.085,0.1348-0.145,0.2891-0.1802,0.4648s-0.0527,0.3545-0.0527,0.5352
				C191.9609,150.1286,191.9785,150.3054,192.0137,150.4783z"/>
			<path fill="#FFFFFF" d="M199.29,152.2117v-0.6318h-0.0264c-0.1582,0.2637-0.3628,0.4531-0.6143,0.5703
				c-0.252,0.1172-0.5093,0.1758-0.7725,0.1758c-0.3335,0-0.6069-0.0439-0.8208-0.1318c-0.2134-0.0879-0.3818-0.2119-0.5044-0.373
				c-0.123-0.1611-0.2095-0.3564-0.2593-0.5879s-0.0742-0.4873-0.0742-0.7676v-2.791h1.2461v2.5625
				c0,0.374,0.0586,0.6533,0.1758,0.8379c0.1167,0.1846,0.3247,0.2764,0.623,0.2764c0.3394,0,0.585-0.1006,0.7373-0.3027
				c0.1519-0.2021,0.228-0.5342,0.228-0.9961v-2.3779h1.2461v4.5371H199.29z"/>
			<path fill="#FFFFFF" d="M202.6074,147.6745v0.8418h0.0176c0.0586-0.1396,0.1377-0.2705,0.2373-0.3906
				c0.0991-0.1191,0.2134-0.2217,0.3423-0.3066c0.1284-0.085,0.2661-0.1504,0.4121-0.1973
				c0.1465-0.0469,0.2983-0.0703,0.4565-0.0703c0.082,0,0.1724,0.0146,0.272,0.0439v1.1582
				c-0.0586-0.0117-0.1284-0.0225-0.2104-0.0303c-0.082-0.0088-0.1611-0.0137-0.2368-0.0137c-0.2285,0-0.4214,0.0381-0.5796,0.1143
				c-0.1577,0.0762-0.2852,0.1797-0.3818,0.3115c-0.0962,0.1318-0.165,0.2852-0.2061,0.4609s-0.0615,0.3652-0.0615,0.5703v2.0449
				h-1.2461v-4.5371H202.6074z"/>
			<path fill="#FFFFFF" d="M206.8462,148.49c-0.1987,0-0.3657,0.0459-0.5,0.1367c-0.1348,0.0908-0.2446,0.207-0.3291,0.3506
				c-0.085,0.1436-0.145,0.3018-0.1802,0.4736c-0.0352,0.1729-0.0527,0.3447-0.0527,0.5137c0,0.1641,0.0176,0.3311,0.0527,0.501
				c0.0352,0.1689,0.0923,0.3232,0.1714,0.46c0.0791,0.1377,0.1855,0.25,0.3203,0.3379c0.1343,0.0879,0.2983,0.1318,0.4912,0.1318
				c0.2988,0,0.5283-0.083,0.6895-0.25c0.1606-0.167,0.2617-0.3906,0.3027-0.6719h1.2021c-0.082,0.6035-0.3159,1.0625-0.7021,1.3789
				c-0.3862,0.3154-0.8804,0.4736-1.4834,0.4736c-0.3394,0-0.6509-0.0576-0.9346-0.1709c-0.2837-0.1143-0.5254-0.2734-0.7241-0.4785
				s-0.354-0.4492-0.4648-0.7334c-0.1113-0.2832-0.167-0.5947-0.167-0.9346c0-0.3506,0.0513-0.6768,0.1538-0.9785
				c0.1021-0.3008,0.2529-0.5615,0.4517-0.7812c0.1992-0.2188,0.4419-0.3906,0.7285-0.5137
				c0.2866-0.1221,0.6143-0.1836,0.9829-0.1836c0.269,0,0.5283,0.0352,0.7769,0.1055c0.2485,0.0693,0.4712,0.1768,0.667,0.3203
				c0.1963,0.1426,0.3555,0.3213,0.4785,0.5352s0.1929,0.4668,0.2104,0.7588h-1.2197
				C207.686,148.7507,207.3789,148.49,206.8462,148.49z"/>
			<path fill="#FFFFFF" d="M211.0508,151.1238c0.187,0.1807,0.4561,0.2715,0.8071,0.2715c0.252,0,0.4683-0.0625,0.6499-0.1885
				c0.1812-0.126,0.2925-0.2588,0.3335-0.3994h1.0972c-0.1758,0.5439-0.4448,0.9336-0.8076,1.167
				c-0.3628,0.2344-0.8018,0.3516-1.3164,0.3516c-0.3569,0-0.6792-0.0576-0.9658-0.1709c-0.2866-0.1143-0.5293-0.2773-0.7285-0.4873
				c-0.1987-0.2109-0.3525-0.4619-0.4604-0.7549c-0.1084-0.293-0.1626-0.6143-0.1626-0.9658c0-0.3389,0.0557-0.6553,0.167-0.9473
				c0.1108-0.293,0.269-0.5459,0.4736-0.7598c0.2051-0.2129,0.4492-0.3818,0.7329-0.5049c0.2837-0.1221,0.5981-0.1836,0.9438-0.1836
				c0.3862,0,0.7222,0.0742,1.0093,0.2236c0.2866,0.1494,0.522,0.3496,0.7065,0.6016c0.1841,0.251,0.3174,0.5381,0.3994,0.8594
				c0.0815,0.3223,0.1108,0.6582,0.0874,1.0098h-3.2734C210.7612,150.6492,210.8633,150.9421,211.0508,151.1238z M212.4595,148.7361
				c-0.1494-0.1641-0.376-0.2461-0.6802-0.2461c-0.1992,0-0.3643,0.0342-0.4961,0.1016c-0.1313,0.0674-0.2368,0.1504-0.3159,0.25
				s-0.1348,0.2051-0.1665,0.3154c-0.0322,0.1113-0.0518,0.2109-0.0571,0.2988h2.0273
				C212.7124,149.1394,212.6084,148.9001,212.4595,148.7361z"/>
			<path fill="#FFFFFF" d="M217.2207,148.9597c0.1108-0.2949,0.269-0.5469,0.4736-0.7549c0.2051-0.207,0.4507-0.3682,0.7373-0.4824
				s0.6084-0.1709,0.9653-0.1709s0.6802,0.0566,0.9702,0.1709c0.2896,0.1143,0.5366,0.2754,0.7412,0.4824
				c0.2051,0.208,0.3628,0.46,0.4741,0.7549c0.1113,0.2959,0.167,0.625,0.167,0.9873c0,0.3633-0.0557,0.6904-0.167,0.9834
				s-0.269,0.543-0.4741,0.75c-0.2046,0.208-0.4517,0.3672-0.7412,0.4785c-0.29,0.1113-0.6133,0.167-0.9702,0.167
				s-0.6787-0.0557-0.9653-0.167s-0.5322-0.2705-0.7373-0.4785c-0.2046-0.207-0.3628-0.457-0.4736-0.75
				c-0.1113-0.293-0.167-0.6201-0.167-0.9834C217.0537,149.5847,217.1094,149.2556,217.2207,148.9597z M218.3525,150.4783
				c0.0352,0.1729,0.0952,0.3281,0.1802,0.4648c0.0845,0.1377,0.1973,0.248,0.3379,0.3291c0.1401,0.082,0.3159,0.123,0.5264,0.123
				c0.2109,0,0.3877-0.041,0.5312-0.123c0.1431-0.0811,0.2573-0.1914,0.3423-0.3291c0.0845-0.1367,0.1445-0.292,0.1797-0.4648
				s0.0527-0.3496,0.0527-0.5312c0-0.1807-0.0176-0.3594-0.0527-0.5352s-0.0952-0.3301-0.1797-0.4648
				c-0.085-0.1348-0.1992-0.2441-0.3423-0.3291c-0.1436-0.085-0.3203-0.1279-0.5312-0.1279c-0.2104,0-0.3862,0.043-0.5264,0.1279
				c-0.1406,0.085-0.2534,0.1943-0.3379,0.3291c-0.085,0.1348-0.145,0.2891-0.1802,0.4648s-0.0527,0.3545-0.0527,0.5352
				C218.2998,150.1286,218.3174,150.3054,218.3525,150.4783z"/>
			<path fill="#FFFFFF" d="M223.7412,147.6745v0.6318h0.0264c0.1582-0.2637,0.3628-0.4551,0.6143-0.5752
				s0.5093-0.1797,0.7725-0.1797c0.3335,0,0.6069,0.0449,0.8208,0.1357c0.2134,0.0908,0.3818,0.2168,0.5044,0.377
				c0.123,0.1611,0.2095,0.3574,0.2593,0.5889c0.0493,0.2305,0.0742,0.4863,0.0742,0.7676v2.791h-1.2461v-2.5625
				c0-0.375-0.0586-0.6543-0.1758-0.8389c-0.1167-0.1836-0.3247-0.2764-0.623-0.2764c-0.3394,0-0.585,0.1016-0.7373,0.3027
				c-0.1519,0.2021-0.228,0.5342-0.228,0.9961v2.3789h-1.2461v-4.5371H223.7412z"/>
			<path fill="#FFFFFF" d="M232.3687,148.49c-0.1987,0-0.3657,0.0459-0.5,0.1367c-0.1348,0.0908-0.2446,0.207-0.3291,0.3506
				c-0.085,0.1436-0.145,0.3018-0.1802,0.4736c-0.0352,0.1729-0.0527,0.3447-0.0527,0.5137c0,0.1641,0.0176,0.3311,0.0527,0.501
				c0.0352,0.1689,0.0923,0.3232,0.1714,0.46c0.0791,0.1377,0.1855,0.25,0.3203,0.3379c0.1343,0.0879,0.2983,0.1318,0.4912,0.1318
				c0.2988,0,0.5283-0.083,0.6895-0.25c0.1606-0.167,0.2617-0.3906,0.3027-0.6719h1.2021c-0.082,0.6035-0.3159,1.0625-0.7021,1.3789
				c-0.3862,0.3154-0.8804,0.4736-1.4834,0.4736c-0.3394,0-0.6509-0.0576-0.9346-0.1709c-0.2837-0.1143-0.5254-0.2734-0.7241-0.4785
				s-0.354-0.4492-0.4648-0.7334c-0.1113-0.2832-0.167-0.5947-0.167-0.9346c0-0.3506,0.0513-0.6768,0.1538-0.9785
				c0.1021-0.3008,0.2529-0.5615,0.4517-0.7812c0.1992-0.2188,0.4419-0.3906,0.7285-0.5137
				c0.2866-0.1221,0.6143-0.1836,0.9829-0.1836c0.269,0,0.5283,0.0352,0.7769,0.1055c0.2485,0.0693,0.4712,0.1768,0.667,0.3203
				c0.1963,0.1426,0.3555,0.3213,0.4785,0.5352s0.1929,0.4668,0.2104,0.7588h-1.2197
				C233.2085,148.7507,232.9014,148.49,232.3687,148.49z"/>
			<path fill="#FFFFFF" d="M235.2739,146.9724v-1.0273h1.2461v1.0273H235.2739z M236.52,147.6745v4.5371h-1.2461v-4.5371H236.52z"/>
			<path fill="#FFFFFF" d="M238.688,147.6745v0.8418h0.0176c0.0586-0.1396,0.1377-0.2705,0.2373-0.3906
				c0.0991-0.1191,0.2134-0.2217,0.3423-0.3066c0.1284-0.085,0.2661-0.1504,0.4121-0.1973
				c0.1465-0.0469,0.2983-0.0703,0.4565-0.0703c0.082,0,0.1724,0.0146,0.272,0.0439v1.1582
				c-0.0586-0.0117-0.1284-0.0225-0.2104-0.0303c-0.082-0.0088-0.1611-0.0137-0.2368-0.0137c-0.2285,0-0.4214,0.0381-0.5796,0.1143
				c-0.1577,0.0762-0.2852,0.1797-0.3818,0.3115c-0.0962,0.1318-0.165,0.2852-0.2061,0.4609s-0.0615,0.3652-0.0615,0.5703v2.0449
				h-1.2461v-4.5371H238.688z"/>
			<path fill="#FFFFFF" d="M242.9268,148.49c-0.1992,0-0.3652,0.0459-0.5,0.1367s-0.2441,0.207-0.3281,0.3506
				c-0.0859,0.1436-0.1445,0.3018-0.1797,0.4736c-0.0352,0.1729-0.0527,0.3447-0.0527,0.5137c0,0.1641,0.0176,0.3311,0.0527,0.501
				c0.0352,0.1689,0.0918,0.3232,0.1699,0.46c0.0801,0.1377,0.1855,0.25,0.3203,0.3379s0.2988,0.1318,0.4922,0.1318
				c0.2988,0,0.5273-0.083,0.6895-0.25c0.1602-0.167,0.2617-0.3906,0.3027-0.6719h1.2012c-0.082,0.6035-0.3145,1.0625-0.7012,1.3789
				c-0.3867,0.3154-0.8809,0.4736-1.4844,0.4736c-0.3379,0-0.6504-0.0576-0.9336-0.1709c-0.2852-0.1143-0.5254-0.2734-0.7246-0.4785
				s-0.354-0.4492-0.4648-0.7334c-0.1113-0.2832-0.167-0.5947-0.167-0.9346c0-0.3506,0.0513-0.6768,0.1538-0.9785
				c0.1021-0.3008,0.2534-0.5615,0.4517-0.7812c0.1982-0.2188,0.4424-0.3906,0.7295-0.5137
				c0.2852-0.1221,0.6133-0.1836,0.9824-0.1836c0.2695,0,0.5273,0.0352,0.7773,0.1055c0.248,0.0693,0.4707,0.1768,0.666,0.3203
				c0.1953,0.1426,0.3555,0.3213,0.4785,0.5352s0.1934,0.4668,0.2109,0.7588h-1.2207
				C243.7666,148.7507,243.46,148.49,242.9268,148.49z"/>
			<path fill="#FFFFFF" d="M248.8691,152.2117v-0.6318h-0.0264c-0.1582,0.2637-0.3633,0.4531-0.6143,0.5703
				c-0.252,0.1172-0.5088,0.1758-0.7725,0.1758c-0.334,0-0.6074-0.0439-0.8203-0.1318c-0.2139-0.0879-0.3818-0.2119-0.5049-0.373
				s-0.209-0.3564-0.2588-0.5879s-0.0752-0.4873-0.0752-0.7676v-2.791h1.2471v2.5625c0,0.374,0.0576,0.6533,0.1748,0.8379
				s0.3252,0.2764,0.623,0.2764c0.3398,0,0.585-0.1006,0.7373-0.3027s0.2285-0.5342,0.2285-0.9961v-2.3779h1.2466v4.5371H248.8691z"
				/>
			<path fill="#FFFFFF" d="M251.0366,146.9724v-1.0273h1.2461v1.0273H251.0366z M252.2827,147.6745v4.5371h-1.2461v-4.5371H252.2827
				z"/>
			<path fill="#FFFFFF" d="M255.7593,147.6745v0.833h-0.9131v2.2471c0,0.2109,0.0352,0.3516,0.1055,0.4209
				c0.0703,0.0703,0.2109,0.1055,0.4209,0.1055c0.0703,0,0.1377-0.0029,0.2021-0.0088s0.126-0.0146,0.1846-0.0264v0.9658
				c-0.1055,0.0176-0.2227,0.0293-0.3516,0.0352s-0.2539,0.0088-0.377,0.0088c-0.1934,0-0.376-0.0137-0.5488-0.04
				c-0.1729-0.0254-0.3242-0.0771-0.4561-0.1533s-0.2363-0.1846-0.3115-0.3242c-0.0762-0.1406-0.1143-0.3252-0.1143-0.5537v-2.6768
				h-0.7549v-0.833h0.7549v-1.3613h1.2461v1.3613H255.7593z"/>
			<path fill="#FFFFFF" d="M261.8765,145.9451c0.2979,0,0.5703,0.0264,0.8164,0.0791c0.2451,0.0527,0.4561,0.1387,0.6318,0.2588
				s0.3115,0.2793,0.4082,0.4785s0.1445,0.4443,0.1445,0.7373c0,0.3154-0.0713,0.5791-0.2148,0.79
				c-0.1436,0.21-0.3555,0.3828-0.6367,0.5176c0.3867,0.1113,0.6748,0.3057,0.8643,0.584c0.1904,0.2773,0.2861,0.6123,0.2861,1.0049
				c0,0.3154-0.0615,0.5889-0.1846,0.8203s-0.2881,0.4199-0.4961,0.5664c-0.208,0.1455-0.4443,0.2539-0.7109,0.3242
				s-0.54,0.1055-0.8203,0.1055h-3.0371v-6.2666H261.8765z M261.7007,148.4812c0.2461,0,0.4482-0.0576,0.6055-0.1748
				c0.1582-0.1172,0.2373-0.3076,0.2373-0.5713c0-0.1455-0.0264-0.2656-0.0791-0.3594s-0.123-0.167-0.2109-0.2197
				s-0.1885-0.0889-0.3027-0.1094s-0.2324-0.0312-0.3555-0.0312h-1.29v1.4658H261.7007z M261.7798,151.1413
				c0.1348,0,0.2637-0.0137,0.3857-0.04c0.123-0.0264,0.2314-0.0703,0.3252-0.1318s0.168-0.1445,0.2236-0.25
				s0.084-0.2393,0.084-0.4033c0-0.3223-0.0908-0.5518-0.2725-0.6895c-0.1816-0.1367-0.4209-0.2061-0.7197-0.2061h-1.501v1.7207
				H261.7798z"/>
		</g>
	</g>
	<rect x="102.2328" y="83.1255" fill="#1E4A93" width="42.6706" height="23.8494"/>
	<rect x="148.0354" y="83.1255" fill="#26A9E0" width="42.6706" height="23.8494"/>
	<g>
		<path fill="#FFFFFF" d="M114.834,91.3728c0.4043,0,0.7485,0.0586,1.0327,0.1763c0.2837,0.1177,0.5146,0.2734,0.6929,0.4668
			c0.1777,0.1934,0.3076,0.4136,0.3892,0.6611s0.1226,0.5039,0.1226,0.7695c0,0.2598-0.041,0.5151-0.1226,0.7656
			s-0.2114,0.4727-0.3892,0.6655c-0.1782,0.1934-0.4092,0.3486-0.6929,0.4668c-0.2842,0.1177-0.6284,0.1763-1.0327,0.1763h-1.4946
			v2.3188h-1.4219v-6.4668H114.834z M114.4443,94.4158c0.1631,0,0.3203-0.0117,0.4712-0.0361
			c0.1509-0.0239,0.2837-0.0708,0.3984-0.1401s0.2065-0.168,0.2764-0.2944c0.0693-0.127,0.104-0.293,0.104-0.4985
			c0-0.2051-0.0347-0.3711-0.104-0.498c-0.0698-0.1265-0.1616-0.2246-0.2764-0.2944c-0.1147-0.0693-0.2476-0.1162-0.3984-0.1401
			s-0.3081-0.0361-0.4712-0.0361h-1.105v1.938H114.4443z"/>
		<path fill="#FFFFFF" d="M119.0454,96.2453c0.0781,0.1514,0.1826,0.2734,0.3125,0.3672c0.1299,0.0933,0.2822,0.1626,0.4575,0.208
			c0.1748,0.0454,0.356,0.0679,0.5435,0.0679c0.1265,0,0.2622-0.0103,0.4072-0.0317c0.145-0.021,0.2808-0.0615,0.4077-0.1221
			s0.2324-0.1436,0.3169-0.249s0.127-0.2402,0.127-0.4033c0-0.1748-0.0562-0.3169-0.1675-0.4253
			c-0.1118-0.1089-0.2583-0.1997-0.4395-0.272s-0.3862-0.1357-0.6157-0.1899c-0.2295-0.0547-0.4619-0.1147-0.6978-0.1812
			c-0.2412-0.0605-0.4771-0.1348-0.7061-0.2222c-0.23-0.0874-0.4351-0.2007-0.6162-0.3398c-0.1812-0.1387-0.3276-0.312-0.439-0.5205
			c-0.1118-0.2085-0.168-0.4604-0.168-0.7563c0-0.332,0.0713-0.6206,0.2129-0.8647c0.1421-0.2446,0.3276-0.4487,0.5571-0.6118
			c0.2295-0.1626,0.4893-0.2837,0.7788-0.3623c0.29-0.0781,0.5801-0.1177,0.8696-0.1177c0.3384,0,0.6626,0.0381,0.9736,0.1133
			c0.311,0.0757,0.5874,0.1978,0.8286,0.3667c0.2417,0.1694,0.4336,0.3853,0.5752,0.6479c0.1421,0.2627,0.2129,0.5811,0.2129,0.9556
			h-1.3765c-0.0122-0.1934-0.0532-0.3535-0.1226-0.48c-0.0693-0.127-0.1616-0.2266-0.2759-0.2993
			c-0.1147-0.0723-0.2461-0.1235-0.394-0.1538c-0.1484-0.0303-0.3096-0.0454-0.4849-0.0454c-0.1147,0-0.2295,0.0122-0.3442,0.0366
			c-0.1147,0.0239-0.2188,0.0664-0.3125,0.1265c-0.0933,0.0605-0.1704,0.1357-0.231,0.2266
			c-0.0601,0.0903-0.0903,0.2056-0.0903,0.3442c0,0.127,0.0239,0.2295,0.0723,0.3081c0.0483,0.0781,0.1436,0.1509,0.2856,0.2173
			c0.1416,0.0664,0.3379,0.1328,0.5884,0.1992s0.5781,0.1509,0.9829,0.2534c0.1206,0.0244,0.2881,0.0679,0.5024,0.1313
			s0.4272,0.1646,0.6387,0.3037c0.2114,0.1387,0.394,0.3242,0.5479,0.5566c0.1543,0.2329,0.231,0.5303,0.231,0.8926
			c0,0.2959-0.0571,0.5703-0.1719,0.8242c-0.1147,0.2534-0.2852,0.4722-0.5117,0.6562c-0.2266,0.1846-0.5073,0.3276-0.8423,0.4302
			c-0.335,0.103-0.7231,0.1543-1.1641,0.1543c-0.3564,0-0.7017-0.0439-1.0371-0.1313c-0.335-0.0874-0.6309-0.2251-0.8877-0.4121
			c-0.2563-0.187-0.4604-0.4258-0.6113-0.7158c-0.1509-0.2896-0.2231-0.6338-0.2173-1.0322h1.377
			C118.9277,95.9104,118.9668,96.0945,119.0454,96.2453z"/>
		<path fill="#FFFFFF" d="M128.5918,97.3459c-0.4888,0.4258-1.165,0.6387-2.0288,0.6387c-0.8755,0-1.5532-0.2114-2.0332-0.6343
			c-0.48-0.4224-0.7202-1.0747-0.7202-1.9561v-4.0215h1.4224v4.0215c0,0.1748,0.0146,0.3472,0.0449,0.5161
			s0.0938,0.3184,0.1904,0.4482c0.0962,0.1299,0.231,0.2354,0.4028,0.3169c0.1724,0.0815,0.4033,0.1226,0.6929,0.1226
			c0.5073,0,0.8574-0.1133,1.0508-0.3398s0.29-0.5811,0.29-1.064v-4.0215h1.4219v4.0215
			C129.3257,96.2698,129.0811,96.9202,128.5918,97.3459z"/>
		<path fill="#FFFFFF" d="M133.7998,97.8396v-4.1118h-1.5938v-0.9692c0.2231,0.0059,0.439-0.0107,0.6475-0.0498
			c0.2085-0.0396,0.3955-0.1089,0.5615-0.2085s0.3066-0.231,0.4214-0.394c0.1143-0.1631,0.1899-0.3652,0.2261-0.6069h1.0234v6.3403
			H133.7998z"/>
	</g>
	<g>
		<path fill="#FFFFFF" d="M158.9043,91.3728c0.4043,0,0.7485,0.0586,1.0327,0.1763c0.2837,0.1177,0.5146,0.2734,0.6929,0.4668
			c0.1777,0.1934,0.3076,0.4136,0.3892,0.6611s0.1226,0.5039,0.1226,0.7695c0,0.2598-0.041,0.5151-0.1226,0.7656
			s-0.2114,0.4727-0.3892,0.6655c-0.1782,0.1934-0.4092,0.3486-0.6929,0.4668c-0.2842,0.1177-0.6284,0.1763-1.0327,0.1763h-1.4946
			v2.3188h-1.4219v-6.4668H158.9043z M158.5146,94.4158c0.1631,0,0.3203-0.0117,0.4712-0.0361
			c0.1509-0.0239,0.2837-0.0708,0.3984-0.1401s0.2065-0.168,0.2764-0.2944c0.0693-0.127,0.104-0.293,0.104-0.4985
			c0-0.2051-0.0347-0.3711-0.104-0.498c-0.0698-0.1265-0.1616-0.2246-0.2764-0.2944c-0.1147-0.0693-0.2476-0.1162-0.3984-0.1401
			s-0.3081-0.0361-0.4712-0.0361h-1.105v1.938H158.5146z"/>
		<path fill="#FFFFFF" d="M163.1157,96.2453c0.0781,0.1514,0.1826,0.2734,0.3125,0.3672c0.1299,0.0933,0.2822,0.1626,0.4575,0.208
			c0.1748,0.0454,0.356,0.0679,0.5435,0.0679c0.1265,0,0.2622-0.0103,0.4072-0.0317c0.145-0.021,0.2808-0.0615,0.4077-0.1221
			s0.2324-0.1436,0.3169-0.249s0.127-0.2402,0.127-0.4033c0-0.1748-0.0562-0.3169-0.1675-0.4253
			c-0.1118-0.1089-0.2583-0.1997-0.4395-0.272s-0.3862-0.1357-0.6157-0.1899c-0.2295-0.0547-0.4619-0.1147-0.6978-0.1812
			c-0.2412-0.0605-0.4771-0.1348-0.7061-0.2222c-0.23-0.0874-0.4351-0.2007-0.6162-0.3398c-0.1812-0.1387-0.3276-0.312-0.439-0.5205
			c-0.1118-0.2085-0.168-0.4604-0.168-0.7563c0-0.332,0.0713-0.6206,0.2129-0.8647c0.1421-0.2446,0.3276-0.4487,0.5571-0.6118
			c0.2295-0.1626,0.4893-0.2837,0.7788-0.3623c0.29-0.0781,0.5801-0.1177,0.8696-0.1177c0.3384,0,0.6626,0.0381,0.9736,0.1133
			c0.311,0.0757,0.5874,0.1978,0.8286,0.3667c0.2417,0.1694,0.4336,0.3853,0.5752,0.6479c0.1421,0.2627,0.2129,0.5811,0.2129,0.9556
			h-1.3765c-0.0122-0.1934-0.0532-0.3535-0.1226-0.48c-0.0693-0.127-0.1616-0.2266-0.2759-0.2993
			c-0.1147-0.0723-0.2461-0.1235-0.394-0.1538c-0.1484-0.0303-0.3096-0.0454-0.4849-0.0454c-0.1147,0-0.2295,0.0122-0.3442,0.0366
			c-0.1147,0.0239-0.2188,0.0664-0.3125,0.1265c-0.0933,0.0605-0.1704,0.1357-0.231,0.2266
			c-0.0601,0.0903-0.0903,0.2056-0.0903,0.3442c0,0.127,0.0239,0.2295,0.0723,0.3081c0.0483,0.0781,0.1436,0.1509,0.2856,0.2173
			c0.1416,0.0664,0.3379,0.1328,0.5884,0.1992s0.5781,0.1509,0.9829,0.2534c0.1206,0.0244,0.2881,0.0679,0.5024,0.1313
			s0.4272,0.1646,0.6387,0.3037c0.2114,0.1387,0.394,0.3242,0.5479,0.5566c0.1543,0.2329,0.231,0.5303,0.231,0.8926
			c0,0.2959-0.0571,0.5703-0.1719,0.8242c-0.1147,0.2534-0.2852,0.4722-0.5117,0.6562c-0.2266,0.1846-0.5073,0.3276-0.8423,0.4302
			c-0.335,0.103-0.7231,0.1543-1.1641,0.1543c-0.3564,0-0.7017-0.0439-1.0371-0.1313c-0.335-0.0874-0.6309-0.2251-0.8877-0.4121
			c-0.2563-0.187-0.4604-0.4258-0.6113-0.7158c-0.1509-0.2896-0.2231-0.6338-0.2173-1.0322h1.377
			C162.998,95.9104,163.0371,96.0945,163.1157,96.2453z"/>
		<path fill="#FFFFFF" d="M172.6621,97.3459c-0.4888,0.4258-1.165,0.6387-2.0288,0.6387c-0.8755,0-1.5532-0.2114-2.0332-0.6343
			c-0.48-0.4224-0.7202-1.0747-0.7202-1.9561v-4.0215h1.4224v4.0215c0,0.1748,0.0146,0.3472,0.0449,0.5161
			s0.0938,0.3184,0.1904,0.4482c0.0962,0.1299,0.231,0.2354,0.4028,0.3169c0.1724,0.0815,0.4033,0.1226,0.6929,0.1226
			c0.5073,0,0.8574-0.1133,1.0508-0.3398s0.29-0.5811,0.29-1.064v-4.0215h1.4219v4.0215
			C173.396,96.2698,173.1514,96.9202,172.6621,97.3459z"/>
		<path fill="#FFFFFF" d="M176.0679,92.926c0.0967-0.311,0.2412-0.5825,0.4346-0.8154c0.1934-0.2319,0.4365-0.4131,0.7295-0.5435
			c0.2925-0.1294,0.6294-0.1943,1.0098-0.1943c0.2896,0,0.5659,0.0449,0.8286,0.1357c0.2627,0.0903,0.4937,0.2202,0.6929,0.3896
			c0.1992,0.1689,0.3579,0.3774,0.4756,0.6245c0.1177,0.248,0.1768,0.5254,0.1768,0.8335c0,0.3203-0.0513,0.5947-0.1543,0.8242
			c-0.1025,0.2295-0.2383,0.4331-0.4072,0.6113c-0.1694,0.1782-0.3608,0.3398-0.5752,0.4844
			c-0.2144,0.145-0.4302,0.2886-0.6475,0.4307c-0.2178,0.1416-0.4292,0.2939-0.6343,0.457s-0.3862,0.3535-0.5435,0.5708h2.998v1.105
			h-4.6553c0-0.3682,0.0527-0.6885,0.1582-0.96c0.1055-0.272,0.249-0.5146,0.4302-0.729s0.394-0.4121,0.6387-0.5933
			s0.5024-0.3657,0.7744-0.5527c0.1387-0.0967,0.2866-0.1948,0.4438-0.2944c0.1567-0.0996,0.3003-0.2095,0.4302-0.3306
			c0.1299-0.1206,0.2383-0.2563,0.3262-0.4077c0.0874-0.1509,0.1313-0.3228,0.1313-0.5161c0-0.3081-0.0894-0.5479-0.2671-0.7202
			c-0.1782-0.1719-0.4062-0.2578-0.6841-0.2578c-0.187,0-0.3457,0.0439-0.4756,0.1313s-0.2339,0.2021-0.3125,0.3442
			c-0.0786,0.1416-0.1343,0.2988-0.1675,0.4707c-0.0332,0.1724-0.0498,0.3428-0.0498,0.5117h-1.2319
			C175.9287,93.5735,175.9712,93.237,176.0679,92.926z"/>
	</g>
	<rect x="102.2328" y="29.8926" fill="#1E4A93" width="42.6706" height="23.8494"/>
	<g>
		<path fill="#FFFFFF" d="M114.834,38.1409c0.4043,0,0.7485,0.0586,1.0327,0.1763c0.2837,0.1177,0.5146,0.2734,0.6929,0.4668
			c0.1777,0.1934,0.3076,0.4136,0.3892,0.6611s0.1226,0.5039,0.1226,0.7695c0,0.2598-0.041,0.5151-0.1226,0.7656
			s-0.2114,0.4727-0.3892,0.6655c-0.1782,0.1934-0.4092,0.3486-0.6929,0.4668c-0.2842,0.1177-0.6284,0.1763-1.0327,0.1763h-1.4946
			v2.3188h-1.4219v-6.4668H114.834z M114.4443,41.1838c0.1631,0,0.3203-0.0117,0.4712-0.0361
			c0.1509-0.0239,0.2837-0.0708,0.3984-0.1401s0.2065-0.168,0.2764-0.2944c0.0693-0.127,0.104-0.293,0.104-0.4985
			c0-0.2051-0.0347-0.3711-0.104-0.498c-0.0698-0.1265-0.1616-0.2246-0.2764-0.2944c-0.1147-0.0693-0.2476-0.1162-0.3984-0.1401
			s-0.3081-0.0361-0.4712-0.0361h-1.105v1.938H114.4443z"/>
		<path fill="#FFFFFF" d="M119.0454,43.0134c0.0781,0.1514,0.1826,0.2734,0.3125,0.3672c0.1299,0.0933,0.2822,0.1626,0.4575,0.208
			c0.1748,0.0454,0.356,0.0679,0.5435,0.0679c0.1265,0,0.2622-0.0103,0.4072-0.0317c0.145-0.021,0.2808-0.0615,0.4077-0.1221
			s0.2324-0.1436,0.3169-0.249s0.127-0.2402,0.127-0.4033c0-0.1748-0.0562-0.3169-0.1675-0.4253
			c-0.1118-0.1089-0.2583-0.1997-0.4395-0.272s-0.3862-0.1357-0.6157-0.1899c-0.2295-0.0547-0.4619-0.1147-0.6978-0.1812
			c-0.2412-0.0605-0.4771-0.1348-0.7061-0.2222c-0.23-0.0874-0.4351-0.2007-0.6162-0.3398c-0.1812-0.1387-0.3276-0.312-0.439-0.5205
			c-0.1118-0.2085-0.168-0.4604-0.168-0.7563c0-0.332,0.0713-0.6206,0.2129-0.8647c0.1421-0.2446,0.3276-0.4487,0.5571-0.6118
			c0.2295-0.1626,0.4893-0.2837,0.7788-0.3623c0.29-0.0781,0.5801-0.1177,0.8696-0.1177c0.3384,0,0.6626,0.0381,0.9736,0.1133
			c0.311,0.0757,0.5874,0.1978,0.8286,0.3667c0.2417,0.1694,0.4336,0.3853,0.5752,0.6479c0.1421,0.2627,0.2129,0.5811,0.2129,0.9556
			h-1.3765c-0.0122-0.1934-0.0532-0.3535-0.1226-0.48c-0.0693-0.127-0.1616-0.2266-0.2759-0.2993
			c-0.1147-0.0723-0.2461-0.1235-0.394-0.1538c-0.1484-0.0303-0.3096-0.0454-0.4849-0.0454c-0.1147,0-0.2295,0.0122-0.3442,0.0366
			c-0.1147,0.0239-0.2188,0.0664-0.3125,0.1265c-0.0933,0.0605-0.1704,0.1357-0.231,0.2266
			c-0.0601,0.0903-0.0903,0.2056-0.0903,0.3442c0,0.127,0.0239,0.2295,0.0723,0.3081c0.0483,0.0781,0.1436,0.1509,0.2856,0.2173
			c0.1416,0.0664,0.3379,0.1328,0.5884,0.1992s0.5781,0.1509,0.9829,0.2534c0.1206,0.0244,0.2881,0.0679,0.5024,0.1313
			s0.4272,0.1646,0.6387,0.3037c0.2114,0.1387,0.394,0.3242,0.5479,0.5566c0.1543,0.2329,0.231,0.5303,0.231,0.8926
			c0,0.2959-0.0571,0.5703-0.1719,0.8242c-0.1147,0.2534-0.2852,0.4722-0.5117,0.6562c-0.2266,0.1846-0.5073,0.3276-0.8423,0.4302
			c-0.335,0.103-0.7231,0.1543-1.1641,0.1543c-0.3564,0-0.7017-0.0439-1.0371-0.1313c-0.335-0.0874-0.6309-0.2251-0.8877-0.4121
			c-0.2563-0.187-0.4604-0.4258-0.6113-0.7158c-0.1509-0.2896-0.2231-0.6338-0.2173-1.0322h1.377
			C118.9277,42.6785,118.9668,42.8625,119.0454,43.0134z"/>
		<path fill="#FFFFFF" d="M128.5918,44.114c-0.4888,0.4258-1.165,0.6387-2.0288,0.6387c-0.8755,0-1.5532-0.2114-2.0332-0.6343
			c-0.48-0.4224-0.7202-1.0747-0.7202-1.9561v-4.0215h1.4224v4.0215c0,0.1748,0.0146,0.3472,0.0449,0.5161
			s0.0938,0.3184,0.1904,0.4482c0.0962,0.1299,0.231,0.2354,0.4028,0.3169c0.1724,0.0815,0.4033,0.1226,0.6929,0.1226
			c0.5073,0,0.8574-0.1133,1.0508-0.3398s0.29-0.5811,0.29-1.064v-4.0215h1.4219v4.0215
			C129.3257,43.0378,129.0811,43.6882,128.5918,44.114z"/>
		<path fill="#FFFFFF" d="M133.7998,44.6077v-4.1118h-1.5938v-0.9692c0.2231,0.0059,0.439-0.0107,0.6475-0.0498
			c0.2085-0.0396,0.3955-0.1089,0.5615-0.2085s0.3066-0.231,0.4214-0.394c0.1143-0.1631,0.1899-0.3652,0.2261-0.6069h1.0234v6.3403
			H133.7998z"/>
	</g>
</g>
</svg>
