<?xml version="1.0" encoding="UTF-8"?><svg xmlns="http://www.w3.org/2000/svg" width="5.1in" height="4in" xmlns:xlink="http://www.w3.org/1999/xlink" viewBox="0 0 367.2 288"><defs><clipPath id="b"><polygon points="79.852 143.605 80.009 149.5 82.013 150.797 84.489 163.294 98.763 163.278 116.816 155.254 122.75 158.346 131.49 152.251 110.151 141.208 79.852 143.605" fill="none"/></clipPath><clipPath id="d"><circle cx="54.223" cy="52.034" r="49.709" fill="none"/></clipPath><clipPath id="e"><circle cx="216.44" cy="43.051" r="26.376" fill="none"/></clipPath></defs><g id="a"><path d="M250.156,47.672l2.257.685,1.872-.685s1.304.067,1.22.468l.067,1.053.585.234-4.527,32.573-.507.156-.351,1.834-.624,1.053-48.255,21.348-.322-.241.04-2.373-1.287.523-.04,2.011-.322.885-66.522,28.033-.885-.161-1.166-.362.161-9.813.684-.282v-3.338l-.845-.483.121-4.866.764-.402.08-3.459-.845-.362v-18.219s.08-1.207.965-1.528l-.08-1.488" fill="#d1d3d4"/><path d="M121.353,187.926l4.705,3.038s2.058-.735,1.568-4.019l3.234-1.372,1.323,1.029.049,2.401,2.548-1.078.686.441.784.588.098,2.989,38.421-20.044-.245,2.548-6.518,3.43v3.185s.245.686,1.176.98l3.479,1.813-42.685,23.621-6.861-4.362,1.078-1.764.049-.98h-.49l-8.723-5.734,3.626-3.234,2.058-3.185.637-.294Z" fill="#d1d3d4"/><polygon points="240.476 127.383 240.6 125.891 243.004 124.648 245.076 122.369 250.753 124.275 250.339 129.082 248.598 130.657 240.476 127.383" fill="#d1d3d4"/><path d="M165.188,246.198l-.872-1.349.061-3.686c0-.823.548-.883.548-.883,0,0,7.464-4.6,8.286-5.209s.701-1.158.701-1.158l.122-2.528c-.03-.701-.67-.518-.67-.518l-3.808,2.011.061-3.077c-.061-.823.883-1.523.883-1.523l173.75-104.684.98,1.811-.144.953-.433.404-.087,2.34,4.045-2.398s.52-.462.722-1.3.462-1.994.462-1.994c0,0-.173-.433-.722-.26l-1.387.838.636-2.687s-.08-.329.813-.915l13.611-7.663.547.519-10.336,39.088-196.435,133.689" fill="none" stroke="#231f20" stroke-linecap="round" stroke-linejoin="round" stroke-width=".5"/><path d="M153.761,257.122l3.522-.503,6.612-4.168s.862-.719,1.15-2.372.144-3.881.144-3.881l189.137-118.831s3.553-7.968,3.768-11.844l-85.535-28.32-30.422,13.466s-1.074.477-1.166,1.458l-1.226,8.738" fill="none" stroke="#231f20" stroke-miterlimit="10" stroke-width=".5"/><path d="M273.051,86.914c.915-.732,6.224-2.288,6.224-2.288l81.412,26.389s-.504.336-.504,1.251l1.464.732" fill="none" stroke="#231f20" stroke-linecap="round" stroke-linejoin="round" stroke-width=".5"/><path d="M8.508,179.932l-.58-2.609c-.507.507-1.739.507-1.739.507l-2.898-19.202c.072-1.304,1.594-2.101,1.594-2.101l5-1.811c1.884-.652,1.232-3.043,1.232-3.043l-.652-8.499s-.676-1.535.86-2.027l6.94-2.457s.921-.43.86-1.167l-.369-1.904s-.184-.614-.921-.369l-2.334.86s-1.106.614-1.351-.491l-.307-2.273s-.841-1.265.08-1.449l143.437-51.863,2.137.359" fill="none" stroke="#231f20" stroke-miterlimit="10" stroke-width=".5"/><path d="M30.065,166.055l-20.128,8.703,2.854,2.283s1.15.872-.396,1.586l-5.272,2.22-.04.634,5.827,4.321h1.506l6.263-2.458s1.11-.357,1.586.436c0,0,.198.436-.436.753l-5.906,2.616-.159.674,12.407,9.355,1.546.079,6.302-3.013s1.031-.159,1.427.277-.159.595-.159.595l-6.302,3.092-.159.793,6.62,4.915h1.546l6.184-2.814s1.586-.515,2.101.793c0,0,.079.555-.793.991s-5.629,2.656-5.629,2.656l.079.753,13.675,10.306,1.823.04,5.629-2.933,1.625-.04,15.38,11.138s.555.515.119.832-6.104,3.33-6.104,3.33l-.198.793,7.809,5.985,1.744-.04,6.421-3.29s1.348-.515,2.061.436c0,0,.634.595-.555,1.268s-5.866,3.25-5.866,3.25v.872l16.291,12.248h1.863l6.501-3.686s1.308-.396,2.022.555l-.079.674-6.54,4.003-.119.991,8.72,6.54,1.942.159,6.025-3.766s1.665-.634,2.854.555-1.15,2.14-1.15,2.14l-4.994,3.131-.119.991,18.987,14.032,1.704.079,6.659-4.202s.991-.079,1.704.436l5.113,3.647,1.11.04" fill="none" stroke="#231f20" stroke-linecap="round" stroke-linejoin="round" stroke-width=".5"/><path d="M117.755,262.899l-.043,1.733,18.987,14.032,1.704.079,6.659-4.202s.991-.079,1.704.436l5.113,3.647,1.11.04" fill="none" stroke="#231f20" stroke-linecap="round" stroke-linejoin="round" stroke-width=".5"/><path d="M104.426,253.035l.008,1.847,8.72,6.54,1.942.159,6.025-3.766s1.404-.89,2.594.299" fill="none" stroke="#231f20" stroke-linecap="round" stroke-linejoin="round" stroke-width=".5"/><path d="M84.519,238.309l-.023,1.787,16.291,12.248h1.863l6.501-3.686s.325-.098.739-.079" fill="none" stroke="#231f20" stroke-linecap="round" stroke-linejoin="round" stroke-width=".5"/><path d="M72.866,229.815l.016,1.799,7.809,5.985,1.744-.04,6.421-3.29s.598-.229,1.209-.1" fill="none" stroke="#231f20" stroke-linecap="round" stroke-linejoin="round" stroke-width=".5"/><polyline points="40.93 206.327 40.934 208.148 54.609 218.454 56.432 218.493 62.061 215.56 63.686 215.52 78.393 226.058" fill="none" stroke="#231f20" stroke-linecap="round" stroke-linejoin="round" stroke-width=".5"/><path d="M30.87,199.052l-.044,1.802,6.62,4.915h1.546l6.184-2.814s.463-.151.97-.082" fill="none" stroke="#231f20" stroke-linecap="round" stroke-linejoin="round" stroke-width=".5"/><polyline points="15.776 187.919 15.763 189.676 28.17 199.031 29.716 199.11 30.939 198.283" fill="none" stroke="#231f20" stroke-linecap="round" stroke-linejoin="round" stroke-width=".5"/><polyline points="7.074 181.46 7.082 183.334 12.909 187.655 14.415 187.655 16.022 187.084" fill="none" stroke="#231f20" stroke-linecap="round" stroke-linejoin="round" stroke-width=".5"/><line x1="47.363" y1="159.164" x2="42.992" y2="161.049" fill="none" stroke="#231f20" stroke-linecap="round" stroke-linejoin="round" stroke-width=".5"/><path d="M153.761,257.122l-.839,27.643s1.643,1.001,3.624-.319" fill="none" stroke="#231f20" stroke-linecap="round" stroke-linejoin="round" stroke-width=".5"/><path d="M154.428,285.339l1.064.758s.7.292,1.283-.058" fill="none" stroke="#231f20" stroke-linecap="round" stroke-linejoin="round" stroke-width=".5"/><line x1="141.908" y1="276.419" x2="152.558" y2="284.007" fill="none" stroke="#231f20" stroke-linecap="round" stroke-linejoin="round" stroke-width=".5"/><line x1="101.75" y1="168.135" x2="102.768" y2="200.431" fill="none" stroke="#231f20" stroke-linecap="round" stroke-linejoin="round" stroke-width=".5"/><polyline points="95.673 204.513 95.821 211.837 159.022 253.742" fill="none" stroke="#231f20" stroke-linecap="round" stroke-linejoin="round" stroke-width=".5"/><line x1="121.943" y1="158.348" x2="122.301" y2="188.499" fill="none" stroke="#231f20" stroke-linecap="round" stroke-linejoin="round" stroke-width=".5"/><line x1="52.985" y1="162.321" x2="54.881" y2="161.478" fill="none" stroke="#231f20" stroke-linecap="round" stroke-linejoin="round" stroke-width=".5"/><polygon points="30.828 169.549 29.848 160.292 31.758 161.565 32.64 170.871 30.828 169.549" fill="none" stroke="#231f20" stroke-linecap="round" stroke-linejoin="round" stroke-width=".5"/><polyline points="31.807 161.321 42.435 157.011 43.219 166.365 32.64 170.871" fill="none" stroke="#231f20" stroke-linecap="round" stroke-linejoin="round" stroke-width=".5"/><polyline points="29.848 160.292 40.703 155.95 42.435 157.011" fill="none" stroke="#231f20" stroke-linecap="round" stroke-linejoin="round" stroke-width=".5"/><path d="M272.558,87.203l.717,1.552-29.424,13.389-1.142-.569s-.831.037-.831.702l-1.109,9.937s.651.651.325,2.556l-.962,10.562" fill="none" stroke="#231f20" stroke-miterlimit="10" stroke-width=".5"/><line x1="215.459" y1="100.545" x2="239.443" y2="109.381" fill="none" stroke="#231f20" stroke-miterlimit="10" stroke-width=".5"/><line x1="79.678" y1="145.807" x2="98.351" y2="138.12" fill="none" stroke="#231f20" stroke-linecap="round" stroke-linejoin="round" stroke-width=".5"/><line x1="47.464" y1="158.759" x2="49.273" y2="158.043" fill="none" stroke="#231f20" stroke-linecap="round" stroke-linejoin="round" stroke-width=".5"/><polyline points="67.001 167.35 53.912 173.089 48.475 169.549 47.464 158.759 52.985 162.321 53.912 172.731" fill="none" stroke="#231f20" stroke-linecap="round" stroke-linejoin="round" stroke-width=".5"/><polyline points="71.731 154.404 81.259 150.403 81.687 160.909 70.338 165.886" fill="none" stroke="#231f20" stroke-linecap="round" stroke-linejoin="round" stroke-width=".5"/><line x1="54.881" y1="161.478" x2="65.938" y2="156.836" fill="none" stroke="#231f20" stroke-linecap="round" stroke-linejoin="round" stroke-width=".5"/><line x1="79.775" y1="149.777" x2="81.259" y2="150.403" fill="none" stroke="#231f20" stroke-linecap="round" stroke-linejoin="round" stroke-width=".5"/><line x1="79.653" y1="142.987" x2="79.711" y2="150.846" fill="none" stroke="#231f20" stroke-linecap="round" stroke-linejoin="round" stroke-width=".5"/><polygon points="65.772 150.249 69.627 148.735 71.449 149.728 67.522 151.242 65.772 150.249" fill="none" stroke="#231f20" stroke-linecap="round" stroke-linejoin="round" stroke-width=".5"/><polyline points="71.449 149.728 71.472 150.722 67.546 152.283 67.522 151.242" fill="none" stroke="#231f20" stroke-linecap="round" stroke-linejoin="round" stroke-width=".5"/><polyline points="65.772 150.249 65.961 154.033 65.748 154.483 65.251 154.388 65.299 155.334 65.937 155.453 66.576 162.147 67.286 162.714 67.38 167.09 68.539 167.871 68.397 162.904 67.688 162.549 67.096 152.496 67.546 152.283" fill="none" stroke="#231f20" stroke-linecap="round" stroke-linejoin="round" stroke-width=".5"/><polyline points="71.472 150.722 71.77 161.286 69.925 162.65 70.045 167.141 68.539 167.871" fill="none" stroke="#231f20" stroke-linecap="round" stroke-linejoin="round" stroke-width=".5"/><path d="M102.468,167.616c1.689-.707,18.525-8.372,18.525-8.372,0,0,1.402-.947.227-1.591l-3.637-1.97s-.606-.568-2.084.038l-19.017,8.713s-.682.492.114,1.25l2.841,1.629s1.402.985,3.031.303Z" fill="none" stroke="#231f20" stroke-linecap="round" stroke-linejoin="round" stroke-width=".5"/><line x1="96.141" y1="164.888" x2="97.088" y2="203.643" fill="none" stroke="#231f20" stroke-linecap="round" stroke-linejoin="round" stroke-width=".5"/><ellipse cx="98.461" cy="172.817" rx="1.152" ry="1.918" transform="translate(-66.165 61.2) rotate(-26.191)" fill="none" stroke="#231f20" stroke-linecap="round" stroke-linejoin="round" stroke-width=".477"/><polyline points="250.228 131.585 272.132 120.351 318.007 137.508" fill="none" stroke="#231f20" stroke-miterlimit="10" stroke-width=".5"/><line x1="276.68" y1="89.023" x2="273.237" y2="112.924" fill="none" stroke="#231f20" stroke-miterlimit="10" stroke-width=".5"/><path d="M344.171,123.553l-1.448-.186-173.144,104.344s-1.333.698-1.206,1.968l.063,2.602,1.119.597" fill="none" stroke="#231f20" stroke-linecap="round" stroke-linejoin="round" stroke-width=".5"/><path d="M172.869,231.068v2.145s.088.94-.735,1.411l-7.935,4.82s-.852.353-.882,1.587l-.088,3.703.852,1.587-.118,3.115s-.206,1.293-.882,1.881l-5.996,3.791-3.409.558.083,1.454" fill="none" stroke="#231f20" stroke-linecap="round" stroke-linejoin="round" stroke-width=".5"/><polyline points="117.185 192.354 117.1 163.396 120.5 161.851 121.032 187.791" fill="none" stroke="#231f20" stroke-linecap="round" stroke-linejoin="round" stroke-width=".5"/><polyline points="163.964 249.437 95.673 204.513 112.23 196.214 123.238 203.133" fill="none" stroke="#231f20" stroke-linecap="round" stroke-linejoin="round" stroke-width=".5"/><polyline points="172.732 183.703 129.894 207.438 123.253 203.153 124.127 201.344 124.106 200.405" fill="none" stroke="#231f20" stroke-linecap="round" stroke-linejoin="round" stroke-width=".5"/><path d="M168.391,181.46l-32.129,16.86-.072-9.407-.723-.663-2.847,1.337s.555,2.885-1.538,4.043c0,0-1.251.604-1.165,1.639l-.024,12.168" fill="none" stroke="#231f20" stroke-linecap="round" stroke-linejoin="round" stroke-width=".5"/><line x1="136.342" y1="191.995" x2="174.789" y2="171.87" fill="none" stroke="#231f20" stroke-linecap="round" stroke-linejoin="round" stroke-width=".5"/><polyline points="136.406 194.375 168.075 177.752 174.509 174.374" fill="none" stroke="#231f20" stroke-linecap="round" stroke-linejoin="round" stroke-width=".5"/><line x1="136.356" y1="196.084" x2="167.813" y2="179.601" fill="none" stroke="#231f20" stroke-linecap="round" stroke-linejoin="round" stroke-width=".5"/><path d="M238.366,168.494l-14.138-6.723-13.07,7.1s-2.325,1.257-2.388,3.896l-2.639,25.825" fill="none" stroke="#231f20" stroke-linecap="round" stroke-linejoin="round" stroke-width=".5"/><path d="M210.719,168.934l-26.768-13.321,11.876-5.969.566-.88-11.814-5.323,32.017-15.499,12.105,5.317,11.653-5.883,27.039,10.974-11.54,6.222,14.146,5.701-30.776,17.83s-2.3.956-2.74,4.538l-2.442,15.769" fill="none" stroke="#231f20" stroke-linecap="round" stroke-linejoin="round" stroke-width=".5"/><path d="M186.491,156.864s-2.226.445-2.449,4.62l-1.614,24.323" fill="none" stroke="#231f20" stroke-linecap="round" stroke-linejoin="round" stroke-width=".5"/><path d="M189.051,158.144s-2.226.445-2.449,4.62l-1.614,24.323" fill="none" stroke="#231f20" stroke-linecap="round" stroke-linejoin="round" stroke-width=".5"/><path d="M191.612,159.48s-2.226.445-2.449,4.62l-1.614,24.323" fill="none" stroke="#231f20" stroke-linecap="round" stroke-linejoin="round" stroke-width=".5"/><path d="M194.283,160.816s-2.226.445-2.449,4.62l-1.614,24.323" fill="none" stroke="#231f20" stroke-linecap="round" stroke-linejoin="round" stroke-width=".5"/><path d="M197.011,162.096s-2.226.445-2.449,4.62l-1.614,24.323" fill="none" stroke="#231f20" stroke-linecap="round" stroke-linejoin="round" stroke-width=".5"/><path d="M199.515,163.543s-2.226.445-2.449,4.62l-1.614,24.323" fill="none" stroke="#231f20" stroke-linecap="round" stroke-linejoin="round" stroke-width=".5"/><path d="M202.354,164.935s-2.226.445-2.449,4.62l-1.614,24.323" fill="none" stroke="#231f20" stroke-linecap="round" stroke-linejoin="round" stroke-width=".5"/><path d="M205.248,166.215s-2.226.445-2.449,4.62l-1.614,24.323" fill="none" stroke="#231f20" stroke-linecap="round" stroke-linejoin="round" stroke-width=".5"/><path d="M208.143,167.606s-2.226.445-2.449,4.62l-1.614,24.323" fill="none" stroke="#231f20" stroke-linecap="round" stroke-linejoin="round" stroke-width=".5"/><path d="M226.947,163.141s-2.226.445-2.449,4.62l-.724,7.695" fill="none" stroke="#231f20" stroke-linecap="round" stroke-linejoin="round" stroke-width=".5"/><path d="M229.748,164.434s-2.226.445-2.449,4.62l-.724,7.695" fill="none" stroke="#231f20" stroke-linecap="round" stroke-linejoin="round" stroke-width=".5"/><path d="M232.721,165.77s-2.226.445-2.449,4.62l-3.061,22.287" fill="none" stroke="#231f20" stroke-linecap="round" stroke-linejoin="round" stroke-width=".5"/><path d="M235.695,167.235s-2.226.445-2.449,4.62l-2.801,18.936" fill="none" stroke="#231f20" stroke-linecap="round" stroke-linejoin="round" stroke-width=".5"/><path d="M266.764,148.742l1.173-8.857s.274-1.334-.546-1.535" fill="none" stroke="#231f20" stroke-linecap="round" stroke-linejoin="round" stroke-width=".5"/><path d="M268.27,167.582l2.198-15.836s.274-1.334-.546-1.535" fill="none" stroke="#231f20" stroke-linecap="round" stroke-linejoin="round" stroke-width=".5"/><path d="M184.578,143.44s-1.858.822-2.192,4.097l-.414,8.175" fill="none" stroke="#231f20" stroke-linecap="round" stroke-linejoin="round" stroke-width=".5"/><path d="M186.386,144.286c-.496.326-1.664,1.318-1.929,3.914l-.334,7.272" fill="none" stroke="#231f20" stroke-linecap="round" stroke-linejoin="round" stroke-width=".5"/><path d="M188.918,145.394c-.558.423-1.59,1.509-1.831,3.869l-.201,4.775" fill="none" stroke="#231f20" stroke-linecap="round" stroke-linejoin="round" stroke-width=".5"/><path d="M191.465,146.579c-.568.451-1.543,1.542-1.776,3.826l-.069,2.332" fill="none" stroke="#231f20" stroke-linecap="round" stroke-linejoin="round" stroke-width=".5"/><path d="M194.098,147.777c-.512.315-1.571,1.254-1.821,3.712" fill="none" stroke="#231f20" stroke-linecap="round" stroke-linejoin="round" stroke-width=".5"/><path d="M209.648,203.457l-40.776-21.587s-1.056-.62-.798-1.3v-2.818c-.258.679.798,1.3.798,1.3l43.114,23.086" fill="none" stroke="#231f20" stroke-linecap="round" stroke-linejoin="round" stroke-width=".5"/><line x1="132.62" y1="189.588" x2="131.637" y2="189.364" fill="none" stroke="#231f20" stroke-linecap="round" stroke-linejoin="round" stroke-width=".5"/><polygon points="137.96 92.889 256.124 49.405 250.132 47.629 132.4 90.461 137.96 92.889" fill="none" stroke="#231f20" stroke-linecap="round" stroke-linejoin="round" stroke-width=".5"/><polyline points="137.96 92.889 137.726 130.075 251.574 81.917 256.124 49.405" fill="none" stroke="#231f20" stroke-linecap="round" stroke-linejoin="round" stroke-width=".5"/><polygon points="132.682 125.482 132.626 135.134 131.412 134.667 131.423 124.956 132.682 125.482" fill="none" stroke="#231f20" stroke-linecap="round" stroke-linejoin="round" stroke-width=".5"/><polygon points="132.704 121.408 132.733 116.541 131.429 115.876 131.428 120.8 132.704 121.408" fill="none" stroke="#231f20" stroke-linecap="round" stroke-linejoin="round" stroke-width=".5"/><path d="M134.307,91.432l-1.774.514s-1.074.42-1.074,1.821l-.02,17.929,1.319.467.102-17.93s0-1.447.84-1.587l2.008-.654.195,37.273,1.823.81" fill="none" stroke="#231f20" stroke-linecap="round" stroke-linejoin="round" stroke-width=".5"/><path d="M132.682,125.482s2.259-.385,2.34-2.047v-1.864s-.081-.608-.831-.588l-1.486.424" fill="none" stroke="#231f20" stroke-linecap="round" stroke-linejoin="round" stroke-width=".5"/><path d="M131.423,124.956s2.139-.689,2.322-1.662v-2.087" fill="none" stroke="#231f20" stroke-linecap="round" stroke-linejoin="round" stroke-width=".5"/><path d="M131.429,115.876s2.189-.701,2.297-1.596v-2.273" fill="none" stroke="#231f20" stroke-linecap="round" stroke-linejoin="round" stroke-width=".5"/><path d="M132.733,116.541s2.239-.532,2.323-1.935v-2.358s-.475-.776-2.299-.086" fill="none" stroke="#231f20" stroke-linecap="round" stroke-linejoin="round" stroke-width=".5"/><polyline points="132.626 135.134 133.509 135.182 200.015 107.104 200.309 106.26 200.346 104.241 201.52 103.764 201.557 106.15 201.851 106.333 250.225 84.898 250.923 83.981 251.113 82.183" fill="none" stroke="#231f20" stroke-linecap="round" stroke-linejoin="round" stroke-width=".5"/><line x1="132.316" y1="115.251" x2="132.369" y2="112.123" fill="none" stroke="#231f20" stroke-linecap="round" stroke-linejoin="round" stroke-width=".5"/><line x1="132.156" y1="124.63" x2="132.21" y2="121.433" fill="none" stroke="#231f20" stroke-linecap="round" stroke-linejoin="round" stroke-width=".5"/><path d="M252.528,48.275l1.692-.564s1.03-.074,1.349.392v1.03" fill="none" stroke="#231f20" stroke-linecap="round" stroke-linejoin="round" stroke-width=".5"/><line x1="253.999" y1="48.766" x2="255.569" y2="48.104" fill="none" stroke="#231f20" stroke-linecap="round" stroke-linejoin="round" stroke-width=".5"/><path d="M115.079,194.758l3.427-3.27,2.088-3.152s.411-.439.713-.37l5.146,3.248-2.591,3.847-3.298,3.141-5.485-3.445Z" fill="none" stroke="#231f20" stroke-linecap="round" stroke-linejoin="round" stroke-width=".5"/><path d="M122.548,188.802s-.408.076-.637.509l-1.936,2.802,2.776,1.63,1.656-2.471s.458-.713.764-.866" fill="none" stroke="#231f20" stroke-linecap="round" stroke-linejoin="round" stroke-width=".5"/><polyline points="120.511 192.419 121.147 191.859 123.058 189.159" fill="none" stroke="#231f20" stroke-linecap="round" stroke-linejoin="round" stroke-width=".5"/><polyline points="126.452 191.215 128.687 192.736 126.523 196.304 129.128 197.987" fill="none" stroke="#231f20" stroke-linecap="round" stroke-linejoin="round" stroke-width=".5"/><path d="M120.564,198.202l3.113,2.19,2.084.281,1.884,1.122,1.684-2.525-.24-4.989s.134-.447.76-.76l1.236-.828s.944-.783.552-3.329l3.085-1.46.745.346" fill="none" stroke="#231f20" stroke-linecap="round" stroke-linejoin="round" stroke-width=".5"/><path d="M132.178,188.804l-.017-2.257-.723-.663-2.847,1.337s.555,2.885-1.538,4.043" fill="none" stroke="#231f20" stroke-linecap="round" stroke-linejoin="round" stroke-width=".5"/><path d="M126.223,190.885l.832-.557s.944-.783.552-3.329l3.085-1.46.745.346" fill="none" stroke="#231f20" stroke-linecap="round" stroke-linejoin="round" stroke-width=".5"/><polyline points="125.761 200.673 125.761 201.714 128.776 203.346 128.776 200.143" fill="none" stroke="#231f20" stroke-linecap="round" stroke-linejoin="round" stroke-width=".5"/><line x1="214.945" y1="194.327" x2="206.922" y2="199.036" fill="none" stroke="#231f20" stroke-linecap="round" stroke-linejoin="round" stroke-width=".547"/><path d="M216.938,185.402s.691,1.356,4.243,1.883c0,0,3.391.363,4.643-1.736" fill="none" stroke="#231f20" stroke-linecap="round" stroke-linejoin="round" stroke-width=".547"/><path d="M214.177,195.235s-1.626,2.4.903,4.077" fill="none" stroke="#231f20" stroke-linecap="round" stroke-linejoin="round" stroke-width=".547"/><ellipse cx="221.616" cy="178.544" rx="3.251" ry="6.368" transform="translate(14.128 373.328) rotate(-82.048)" fill="none" stroke="#231f20" stroke-linecap="round" stroke-linejoin="round" stroke-width=".547"/><path d="M216.707,178.468c1.159-.824,3.172-1.207,5.375-.899,1.985.277,3.668,1.051,4.631,2.014" fill="none" stroke="#231f20" stroke-linecap="round" stroke-linejoin="round" stroke-width=".531"/><ellipse cx="221.714" cy="178.397" rx="2.716" ry="5.32" transform="translate(14.358 373.298) rotate(-82.048)" fill="none" stroke="#231f20" stroke-linecap="round" stroke-linejoin="round" stroke-width=".457"/><path d="M215.309,177.663l-.662,4.691c-.248,1.778,2.374,3.614,5.857,4.101.637.089,1.258.127,1.85.118,0,0,3.752-.579,4.762-1.992l.727-4.885" fill="none" stroke="#231f20" stroke-linecap="round" stroke-linejoin="round" stroke-width=".547"/><path d="M215.106,184.009s-.929,3.794,6.142,4.645c0,0,5.424.489,5.262-3.387" fill="none" stroke="#231f20" stroke-linecap="round" stroke-linejoin="round" stroke-width=".547"/><path d="M215.132,185.505s-2.348,4.122,5.807,5.615c0,0,6.056.363,4.885-3.674" fill="none" stroke="#231f20" stroke-linecap="round" stroke-linejoin="round" stroke-width=".547"/><path d="M216.345,186.873s.31,2.452,4.826,2.916c0,0,3.2.322,3.927-1.696" fill="none" stroke="#231f20" stroke-linecap="round" stroke-linejoin="round" stroke-width=".547"/><path d="M215.029,187.88s-1.574,1.548,1.213,4.181c0,0,1.523,1.419,4.181,1.626,0,0,6.088.503,5.079-3.655" fill="none" stroke="#231f20" stroke-linecap="round" stroke-linejoin="round" stroke-width=".547"/><path d="M216.087,189.247s.077,2.245,4.361,3.071c0,0,4.205.377,4.003-1.723" fill="none" stroke="#231f20" stroke-linecap="round" stroke-linejoin="round" stroke-width=".547"/><path d="M214.719,190.228s-1.755,2.116,1.626,4.568c0,0,2.013,1.265,3.845,1.368" fill="none" stroke="#231f20" stroke-linecap="round" stroke-linejoin="round" stroke-width=".547"/><path d="M215.622,191.544s.155,2.477,4.645,3.252c0,0,2.206.281,4.184-.647" fill="none" stroke="#231f20" stroke-linecap="round" stroke-linejoin="round" stroke-width=".547"/><path d="M214.461,192.835s-1.961,2.503,2.632,5.187" fill="none" stroke="#231f20" stroke-linecap="round" stroke-linejoin="round" stroke-width=".547"/><path d="M215.467,194.125s-.361,1.806,3.226,2.994" fill="none" stroke="#231f20" stroke-linecap="round" stroke-linejoin="round" stroke-width=".547"/><path d="M215.158,196.731s-.387.594,1.136,1.832" fill="none" stroke="#231f20" stroke-linecap="round" stroke-linejoin="round" stroke-width=".547"/><line x1="219.487" y1="178.984" x2="223.146" y2="180.804" fill="none" stroke="#231f20" stroke-linecap="round" stroke-linejoin="round" stroke-width=".531"/><path d="M270.308,153.256c2.046.731,3.385,1.993,3.213,3.225-.173,1.239-1.824,2.089-4.011,2.224" fill="none" stroke="#231f20" stroke-linecap="round" stroke-linejoin="round" stroke-width=".499"/><path d="M270.06,155.237c.984.347,1.802.833,2.357,1.388" fill="none" stroke="#231f20" stroke-linecap="round" stroke-linejoin="round" stroke-width=".484"/><path d="M270.279,153.635c1.539.622,2.519,1.613,2.384,2.581s-1.361,1.658-3.023,1.831" fill="none" stroke="#231f20" stroke-linecap="round" stroke-linejoin="round" stroke-width=".417"/><path d="M268.94,162.91c.985-.201,3.142-.742,3.845-1.725l.663-4.457" fill="none" stroke="#231f20" stroke-linecap="round" stroke-linejoin="round" stroke-width=".499"/><line x1="220.328" y1="180.706" x2="223.028" y2="179.024" fill="none" stroke="#231f20" stroke-linecap="round" stroke-linejoin="round" stroke-width=".531"/><path d="M183.961,162.154c-.568.013-1.163-.015-1.773-.088-3.491-.421-6.142-2.176-5.923-3.921s3.227-2.817,6.718-2.396c.721.087,1.406.231,2.038.42" fill="none" stroke="#231f20" stroke-linecap="round" stroke-linejoin="round" stroke-width=".541"/><path d="M177.677,158.91c1.145-.825,3.152-1.232,5.36-.965.61.074,1.193.193,1.735.351" fill="none" stroke="#231f20" stroke-linecap="round" stroke-linejoin="round" stroke-width=".525"/><path d="M183.982,161.47c-.52.02-1.069-.001-1.632-.069-2.916-.352-5.132-1.818-4.948-3.276s2.696-2.354,5.613-2.002c1.161.14,2.21.457,3.042.879" fill="none" stroke="#231f20" stroke-linecap="round" stroke-linejoin="round" stroke-width=".452"/><path d="M183.454,166.754c-.592.018-1.213-.009-1.851-.086-3.491-.421-6.142-2.176-5.923-3.921l.586-4.602" fill="none" stroke="#231f20" stroke-linecap="round" stroke-linejoin="round" stroke-width=".541"/><line x1="180.464" y1="159.372" x2="183.999" y2="161.016" fill="none" stroke="#231f20" stroke-linecap="round" stroke-linejoin="round" stroke-width=".525"/><line x1="180.945" y1="160.614" x2="183.617" y2="159.324" fill="none" stroke="#231f20" stroke-linecap="round" stroke-linejoin="round" stroke-width=".525"/><path d="M176.338,164.508s-.13,3.685,7.214,3.892" fill="none" stroke="#231f20" stroke-linecap="round" stroke-linejoin="round" stroke-width=".525"/><path d="M183.396,170.606s-8.278.467-6.98-5.216" fill="none" stroke="#231f20" stroke-linecap="round" stroke-linejoin="round" stroke-width=".525"/><path d="M177.532,166.688s.052,2.777,5.942,2.725" fill="none" stroke="#231f20" stroke-linecap="round" stroke-linejoin="round" stroke-width=".525"/><path d="M176.468,167.882s-1.479,2.958,2.102,4.385c0,0,2.024,1.012,4.671.701" fill="none" stroke="#231f20" stroke-linecap="round" stroke-linejoin="round" stroke-width=".525"/><path d="M177.298,169.023s.208,2.958,5.994,2.88" fill="none" stroke="#231f20" stroke-linecap="round" stroke-linejoin="round" stroke-width=".525"/><path d="M176.312,170.503s-.379.95-.076,2.027c.393,1.395,1.932,3.003,6.926,3.033" fill="none" stroke="#231f20" stroke-linecap="round" stroke-linejoin="round" stroke-width=".525"/><path d="M177.22,171.489s0,2.699,5.89,2.906" fill="none" stroke="#231f20" stroke-linecap="round" stroke-linejoin="round" stroke-width=".525"/><path d="M182.955,177.95s-3.84.493-5.916-1.687-.802-3.733-.802-3.733" fill="none" stroke="#231f20" stroke-linecap="round" stroke-linejoin="round" stroke-width=".525"/><path d="M177.117,174.084s.649,2.906,5.916,2.725" fill="none" stroke="#231f20" stroke-linecap="round" stroke-linejoin="round" stroke-width=".525"/><path d="M176.105,175.147s-1.505,2.309,1.661,4.411c0,0,2.335,1.09,5.06.649" fill="none" stroke="#231f20" stroke-linecap="round" stroke-linejoin="round" stroke-width=".525"/><path d="M182.903,179.092s-5.475.285-6.046-3.01" fill="none" stroke="#231f20" stroke-linecap="round" stroke-linejoin="round" stroke-width=".525"/><polygon points="240.534 125.954 242.889 124.632 244.375 123.029 244.996 122.36 250.739 124.301 248.425 126.821 245.905 128.267 244.335 127.689 246.607 126.45 243.922 125.334 242.063 126.615 240.534 125.954" fill="none" stroke="#231f20" stroke-linecap="round" stroke-linejoin="round" stroke-width=".525"/><line x1="249.582" y1="124.921" x2="244.665" y2="123.145" fill="none" stroke="#231f20" stroke-linecap="round" stroke-linejoin="round" stroke-width=".525"/><line x1="248.797" y1="125.623" x2="244.17" y2="123.888" fill="none" stroke="#231f20" stroke-linecap="round" stroke-linejoin="round" stroke-width=".525"/><polyline points="250.739 124.301 250.367 128.97 248.549 130.705" fill="none" stroke="#231f20" stroke-linecap="round" stroke-linejoin="round" stroke-width=".525"/><line x1="240.534" y1="125.954" x2="240.534" y2="127.317" fill="none" stroke="#231f20" stroke-linecap="round" stroke-linejoin="round" stroke-width=".525"/><line x1="242.063" y1="126.615" x2="242.063" y2="128.143" fill="none" stroke="#231f20" stroke-linecap="round" stroke-linejoin="round" stroke-width=".525"/><line x1="244.335" y1="127.689" x2="244.459" y2="129.052" fill="none" stroke="#231f20" stroke-linecap="round" stroke-linejoin="round" stroke-width=".525"/><line x1="245.905" y1="128.267" x2="245.946" y2="129.672" fill="none" stroke="#231f20" stroke-linecap="round" stroke-linejoin="round" stroke-width=".525"/><line x1="212.311" y1="125.07" x2="230.394" y2="132.449" fill="none" stroke="#231f20" stroke-linecap="round" stroke-linejoin="round" stroke-width=".525"/><path d="M210.024,102.414s2.494,3.949,2.494,8.73l-.416,18.915" fill="none" stroke="#231f20" stroke-linecap="round" stroke-linejoin="round" stroke-width=".525"/><path d="M133.624,135.327c1.448,2.395,2.606,5.381,2.893,8.99,0,0,1.093,12.937.352,22.263l46.93-22.826" fill="none" stroke="#231f20" stroke-linecap="round" stroke-linejoin="round" stroke-width=".525"/><line x1="122.452" y1="159.329" x2="136.602" y2="167.078" fill="none" stroke="#231f20" stroke-linecap="round" stroke-linejoin="round" stroke-width=".525"/><path d="M130.838,131.657c-2.473-2.649-4.808-3.911-4.808-3.911,0,0-12.04-5.437-16.571-7.768s-6.214-1.295-6.214-1.295c-5.696,2.978-4.661,27.575-4.661,27.575l.842.461" fill="none" stroke="#231f20" stroke-linecap="round" stroke-linejoin="round" stroke-width=".525"/><path d="M102.652,144.136c-1.057-1.628-2.05-4.172-1.577-7.688l32.248,16.69v4.243s-.226,2.999-3.791,2.546l-5.501-3.001" fill="none" stroke="#231f20" stroke-linecap="round" stroke-linejoin="round" stroke-width=".525"/><line x1="103.823" y1="118.468" x2="131.401" y2="107.878" fill="none" stroke="#231f20" stroke-linecap="round" stroke-linejoin="round" stroke-width=".525"/><path d="M279.909,90.491c3.365,4.734,6.112,9.815,8.735,14.974,4.809,8.268,10.56,16.456,14.214,25.155-5.564-7.906-9.818-16.567-14.494-24.994-3.02-4.849-6.432-9.934-8.455-15.135h0Z" fill="#231f20"/><path d="M286.234,92.089c3.473,4.917,6.328,10.182,9.06,15.523,4.989,8.573,10.921,17.066,14.755,26.071-5.744-8.211-10.178-17.178-15.035-25.909-3.128-5.032-6.649-10.3-8.779-15.685h0Z" fill="#231f20"/><path d="M292.758,93.953c3.524,4.982,6.431,10.313,9.215,15.722,5.075,8.684,11.092,17.284,15.013,26.402-5.829-8.32-10.35-17.398-15.293-26.24-3.179-5.098-6.752-10.431-8.934-15.884h0Z" fill="#231f20"/><path d="M299.683,96.284c3.117,4.451,5.611,9.241,7.982,14.106,4.391,7.785,9.725,15.504,12.955,23.704-5.15-7.434-8.981-15.604-13.238-23.547-2.771-4.561-5.93-9.364-7.699-14.264h0Z" fill="#231f20"/><path d="M306.607,98.614c2.765,3.857,4.905,8.048,6.922,12.316,3.804,6.79,8.547,13.521,11.187,20.719-4.563-6.441-7.803-13.615-11.471-20.563-2.419-3.963-5.221-8.175-6.638-12.472h0Z" fill="#231f20"/><path d="M313.665,101.935c2.503,3.164,4.375,6.685,6.139,10.28,3.365,5.662,7.673,11.238,9.887,17.334-4.12-5.29-6.927-11.351-10.166-17.17-2.152-3.282-4.701-6.801-5.859-10.443h0Z" fill="#231f20"/><path d="M321.121,103.475c2.093,2.752,3.539,5.833,4.874,8.984,2.666,4.939,6.274,9.837,7.772,15.159-3.434-4.6-5.525-9.915-8.058-15.008-1.738-2.853-3.857-5.965-4.588-9.135h0Z" fill="#231f20"/><path d="M327.496,105.82c1.85,2.105,3.062,4.558,4.167,7.085,1.34,2.389,3.109,4.533,4.392,6.957.868,1.608,1.663,3.257,2.293,5,0,0-.087.05-.087.05-3.03-3.52-4.736-7.799-6.88-11.845-1.611-2.238-3.104-4.532-3.972-7.196,0,0,.087-.049.087-.049h0Z" fill="#231f20"/><path d="M335.083,108.524c1.459,1.381,2.281,3.113,2.999,4.922.95,1.669,2.328,3.088,3.222,4.792.608,1.128,1.145,2.297,1.517,3.562l-.086.05c-2.374-2.309-3.436-5.39-4.933-8.241-1.221-1.516-2.323-3.085-2.805-5.035,0,0,.086-.05.086-.05h0Z" fill="#231f20"/><path d="M343.1,111.091c1.156.825,1.676,2.002,2.093,3.263.647,1.117,1.725,1.974,2.315,3.129.405.762.749,1.559.918,2.463l-.086.052c-1.863-1.373-2.428-3.538-3.425-5.477-.918-.959-1.715-1.971-1.901-3.378,0,0,.086-.051.086-.051h0Z" fill="#231f20"/><path d="M351.242,113.622c.802.21.84.635.871,1.267.221.447.871.599,1.094,1.136.132.317.205.67.099,1.126l-.086.05c-.45-.132-.721-.367-.933-.638-.358-.457-.172-1.095-.453-1.511-.534-.335-.888-.58-.677-1.38,0,0,.086-.05.086-.05h0Z" fill="#231f20"/><path d="M277.978,96.749c2.806,3.708,4.995,7.766,7.062,11.903,3.881,6.561,8.699,13.042,11.426,20.038-4.631-6.195-7.958-13.153-11.706-19.875-2.462-3.823-5.314-7.885-6.783-12.066h0Z" fill="#231f20"/><path d="M277.113,103.807c2.082,2.503,3.528,5.357,4.866,8.283,2.661,4.551,6.259,9.032,7.764,14.003-3.416-4.187-5.512-9.132-8.045-13.842-1.731-2.616-3.848-5.479-4.585-8.444h0Z" fill="#231f20"/><path d="M280.973,119.916c.8.15.844.553.893,1.162.226.415.866.509,1.11,1.02.096.176.317.934.044,1.134-.447-.096-.721-.305-.937-.551-.372-.433-.198-1.049-.488-1.426-.537-.289-.89-.494-.705-1.285,0,0,.084-.055.084-.055h0Z" fill="#231f20"/><path d="M278.641,95.6c.507-.994,1.377-1.354,2.337-1.617.81-.489,1.348-1.403,2.198-1.836.557-.3,1.152-.541,1.857-.607,0,0,.054.084.054.084-.719,1.173-1.793,1.843-3.076,2.219-.313.096-.613.212-.859.413-.646.756-1.342,1.392-2.457,1.428,0,0-.054-.084-.054-.084h0Z" fill="#231f20"/><path d="M275.147,102.383c1.584-1.626,3.532-2.623,5.559-3.516,1.882-1.123,3.506-2.669,5.424-3.737,1.27-.724,2.584-1.377,3.996-1.868l.052.085c-2.651,2.654-6.098,4.01-9.304,5.796-1.724,1.391-3.504,2.664-5.676,3.325,0,0-.052-.085-.052-.085h0Z" fill="#231f20"/><path d="M278.908,107.916c2.212-1.977,4.784-3.325,7.433-4.565,2.506-1.473,4.759-3.371,7.3-4.788,1.686-.957,3.415-1.842,5.241-2.564,0,0,.051.086.051.086-3.699,3.243-8.184,5.178-12.426,7.544-2.349,1.741-4.757,3.366-7.547,4.373,0,0-.051-.086-.051-.086h0Z" fill="#231f20"/><path d="M280.44,113.242c2.933-2.347,6.221-4.06,9.581-5.665,5.273-3.102,10.467-7.147,16.168-9.096-4.905,3.858-10.575,6.4-16.006,9.376-3.049,1.995-6.339,4.384-9.743,5.384h0Z" fill="#231f20"/><path d="M280.84,119.101c3.78-2.785,7.903-4.948,12.103-6.988,6.673-3.84,13.275-8.618,20.369-11.3-6.315,4.595-13.377,7.876-20.209,11.582-3.891,2.439-8.026,5.265-12.263,6.706h0Z" fill="#231f20"/><path d="M283.769,123.561c4.324-3.052,8.988-5.482,13.727-7.787,7.574-4.284,15.083-9.508,23.072-12.631-7.222,5.042-15.183,8.765-22.915,12.914-4.434,2.706-9.111,5.8-13.885,7.505h0Z" fill="#231f20"/><path d="M290.228,126.024c4.439-3.039,9.209-5.451,14.053-7.738,7.755-4.257,15.455-9.456,23.611-12.547-7.412,5.02-15.546,8.711-23.457,12.831-4.544,2.691-9.336,5.767-14.207,7.453h0Z" fill="#231f20"/><path d="M297.485,128.687c4.455-3.055,9.241-5.484,14.103-7.788,7.783-4.284,15.509-9.511,23.695-12.63-7.439,5.047-15.601,8.766-23.54,12.915-4.56,2.708-9.368,5.801-14.257,7.503h0Z" fill="#231f20"/><path d="M304.469,131.606c4.562-3.018,9.447-5.404,14.404-7.664,7.949-4.216,15.857-9.376,24.191-12.42-7.617,4.984-15.938,8.63-24.041,12.707-4.663,2.668-9.578,5.719-14.554,7.377h0Z" fill="#231f20"/><path d="M310.668,134.013c4.725-3.045,9.766-5.455,14.879-7.739,8.213-4.258,16.393-9.461,24.98-12.544-7.888,5.029-16.467,8.714-24.832,12.833-4.822,2.695-9.901,5.769-15.026,7.451h0Z" fill="#231f20"/><path d="M345.287,122.829c.12-.783.387-.643.87-.598.313-.11.315-.66.747-.826.155-.059.718-.106.893.18-.052.394-.203.607-.386.758-.377.271-.832-.03-1.1.173-.088.083-.114.28-.187.39-.116.187-.674.211-.837-.077h0Z" fill="#231f20"/><path d="M274.818,119.742s-.156-5.365,3.984-6.589l1.615.781s-3.75,1.042-3.984,6.328l-1.615-.521Z" fill="none" stroke="#231f20" stroke-linecap="round" stroke-linejoin="round" stroke-width=".5"/><path d="M280.417,113.934l-.26,1.745c-2.865.651-2.682,4.089-2.682,4.089l-1.042.495" fill="none" stroke="#231f20" stroke-linecap="round" stroke-linejoin="round" stroke-width=".5"/><polyline points="275.157 117.033 273.985 116.461 273.152 115.054 274.298 114.273 275.131 115.757 275.652 115.992" fill="none" stroke="#231f20" stroke-linecap="round" stroke-linejoin="round" stroke-width=".5"/><polyline points="274.844 118.622 272.761 117.867 273.152 115.054" fill="none" stroke="#231f20" stroke-linecap="round" stroke-linejoin="round" stroke-width=".5"/><polygon points="268.23 114.299 271.615 112.58 274.272 113.57 270.808 115.445 270.079 121.278 267.318 120.367 268.23 114.299" fill="none" stroke="#231f20" stroke-linecap="round" stroke-linejoin="round" stroke-width=".5"/><line x1="270.574" y1="115.315" x2="268.516" y2="114.481" fill="none" stroke="#231f20" stroke-linecap="round" stroke-linejoin="round" stroke-width=".5"/><line x1="274.205" y1="114.078" x2="274.272" y2="113.57" fill="none" stroke="#231f20" stroke-linecap="round" stroke-linejoin="round" stroke-width=".5"/><polyline points="272.132 120.351 273.464 119.716 273.637 118.402" fill="none" stroke="#231f20" stroke-linecap="round" stroke-linejoin="round" stroke-width=".5"/><polyline points="48.182 149.451 73.575 139.292 79.653 142.987 70.534 146.921 69.318 146.755 64.011 148.8 64.449 149.234 54.586 153.28 48.182 149.451 49.133 151.55 49.402 158.064 54.881 161.478 54.586 153.28" fill="none" stroke="#231f20" stroke-linecap="round" stroke-linejoin="round" stroke-width=".5"/><path d="M74.617,142.389s-2.366-7.421-5.642-1.998" fill="none" stroke="#6d6e71" stroke-linecap="round" stroke-linejoin="round"/><path d="M72.519,143.226s-2.366-7.421-5.642-1.998" fill="none" stroke="#6d6e71" stroke-linecap="round" stroke-linejoin="round"/><path d="M70.346,144.063s-2.366-7.421-5.642-1.998" fill="none" stroke="#6d6e71" stroke-linecap="round" stroke-linejoin="round"/><path d="M68.173,144.9s-2.366-7.421-5.642-1.998" fill="none" stroke="#6d6e71" stroke-linecap="round" stroke-linejoin="round"/><path d="M65.85,145.888s-2.366-7.421-5.642-1.998" fill="none" stroke="#6d6e71" stroke-linecap="round" stroke-linejoin="round"/><path d="M63.379,147.027s-2.366-7.421-5.642-1.998" fill="none" stroke="#6d6e71" stroke-linecap="round" stroke-linejoin="round"/><path d="M60.532,148.243s-2.366-7.421-5.642-1.998" fill="none" stroke="#6d6e71" stroke-linecap="round" stroke-linejoin="round"/><path d="M57.835,149.309s-2.366-7.421-5.642-1.998" fill="none" stroke="#6d6e71" stroke-linecap="round" stroke-linejoin="round"/><path d="M55.212,150.373s-2.366-7.421-5.642-1.998" fill="none" stroke="#6d6e71" stroke-linecap="round" stroke-linejoin="round"/><g clip-path="url(#b)"><path d="M110.952,142.434l-8.652,4.082s-8.744,5.038-11.65,4.796-8.51-7.582-10.811-6.128" fill="none" stroke="#6d6e71" stroke-linecap="round" stroke-linejoin="round"/><path d="M113.653,143.488l-8.652,4.082s-8.744,5.038-11.65,4.796-11.211-6.778-13.512-5.325" fill="none" stroke="#6d6e71" stroke-linecap="round" stroke-linejoin="round"/><path d="M116.156,144.674l-8.652,4.082s-8.744,5.038-11.65,4.796-13.472-6.106-15.773-4.653" fill="none" stroke="#6d6e71" stroke-linecap="round" stroke-linejoin="round"/><path d="M118.461,146.123l-8.652,4.082s-8.744,5.038-11.65,4.796-14.566-6.425-16.867-4.971" fill="none" stroke="#6d6e71" stroke-linecap="round" stroke-linejoin="round"/><path d="M120.965,147.44l-8.652,4.082s-8.744,5.038-11.65,4.796-17.311-10.973-19.612-9.519" fill="none" stroke="#6d6e71" stroke-linecap="round" stroke-linejoin="round"/><path d="M123.534,148.692l-8.652,4.082s-8.744,5.038-11.65,4.796-19.557-11.497-21.858-10.044" fill="none" stroke="#6d6e71" stroke-linecap="round" stroke-linejoin="round"/><path d="M126.103,149.943l-8.652,4.082s-8.744,5.038-11.65,4.796-21.561-13.476-23.862-12.022" fill="none" stroke="#6d6e71" stroke-linecap="round" stroke-linejoin="round"/><path d="M128.869,151.261l-8.652,4.082s-8.744,5.038-11.65,4.796-24.408-14.309-26.709-12.855" fill="none" stroke="#6d6e71" stroke-linecap="round" stroke-linejoin="round"/></g><path d="M36.002,157.852l-1.324-11.851s-.504-3.782,3.215-5.232,93.421-35.805,93.421-35.805" fill="none" stroke="#231f20" stroke-miterlimit="10" stroke-width=".5"/><line x1="132.4" y1="90.461" x2="132.4" y2="91.945" fill="none" stroke="#231f20" stroke-linecap="round" stroke-linejoin="round" stroke-width=".5"/><line x1="294.796" y1="134.284" x2="312.634" y2="141.162" fill="none" stroke="#231f20" stroke-miterlimit="10" stroke-width=".5"/><path d="M316.68,135.783c1.651-1.501,3.624-2.351,5.67-3.093,1.916-.98,3.602-2.399,5.55-3.322,1.291-.628,2.621-1.182,4.038-1.567l.046.089c-2.758,2.446-6.227,3.545-9.484,5.088-1.775,1.258-3.599,2.394-5.774,2.894,0,0-.046-.089-.046-.089h0Z" fill="#231f20"/><path d="M271.655,162.231s.722,2.268-2.886,2.294" fill="none" stroke="#231f20" stroke-linecap="round" stroke-linejoin="round" stroke-width=".499"/><path d="M270.34,162.617s-.052.696-1.443.773" fill="none" stroke="#231f20" stroke-linecap="round" stroke-linejoin="round" stroke-width=".499"/><path d="M270.211,164.318s.283,1.289-1.546,1.237" fill="none" stroke="#231f20" stroke-linecap="round" stroke-linejoin="round" stroke-width=".499"/><path d="M271.139,164.035s1.005,2.68-2.706,2.757" fill="none" stroke="#231f20" stroke-linecap="round" stroke-linejoin="round" stroke-width=".499"/><line x1="200.133" y1="133.996" x2="201.361" y2="107.77" fill="none" stroke="#fff" stroke-linecap="round" stroke-linejoin="round" stroke-width="2.039"/><line x1="200.133" y1="133.996" x2="201.361" y2="107.77" fill="none" stroke="#010101" stroke-dasharray=".68 1.088" stroke-linecap="round" stroke-linejoin="round" stroke-width=".68"/><polygon points="229.232 126.016 335.595 74.285 338.158 74.824 339.575 74.15 340.991 74.554 341.126 75.701 342.138 76.106 334.044 109.964 332.358 110.773 332.425 112.19 288.383 137.617 286.966 137.078 286.899 138.427 226.196 172.083 224.038 171.273 229.232 126.016" fill="#d1d3d4"/><polygon points="229.198 126.044 335.476 74.215 341.855 76.037 236.716 129.233 229.198 126.044" fill="none" stroke="#000" stroke-linecap="round" stroke-linejoin="round" stroke-width=".5"/><polyline points="236.471 129.102 231.732 167.466 228.968 166.169 233.65 128.03" fill="none" stroke="#000" stroke-linecap="round" stroke-linejoin="round" stroke-width=".5"/><line x1="229.198" y1="126.044" x2="225.018" y2="161.994" fill="none" stroke="#000" stroke-linecap="round" stroke-linejoin="round" stroke-width=".5"/><path d="M231.775,127.031l-1.614.807s-.854.237-.949,2.089l-1.828,18.251,1.305.593,1.031-.406s.711-.065.646.905l-.194,1.777s-.132,1.408-2.053,1.996" fill="none" stroke="#000" stroke-linecap="round" stroke-linejoin="round" stroke-width=".5"/><polygon points="226.767 152.522 228.12 153.044 227.479 158.076 226.15 157.553 226.767 152.522" fill="none" stroke="#000" stroke-linecap="round" stroke-linejoin="round" stroke-width=".5"/><polygon points="226.909 162.3 225.272 161.612 224.014 171.082 225.936 172.055 226.909 162.3" fill="none" stroke="#000" stroke-linecap="round" stroke-linejoin="round" stroke-width=".5"/><path d="M226.292,172.031l60.451-33.631.166-1.566s.119-.712.641-.902c0,0,.641-.285.688.071l-.119,1.709,44.193-25.585.142-1.377" fill="none" stroke="#000" stroke-linecap="round" stroke-linejoin="round" stroke-width=".5"/><polyline points="231.732 167.466 334.021 109.848 341.855 76.037" fill="none" stroke="#000" stroke-linecap="round" stroke-linejoin="round" stroke-width=".5"/><path d="M226.789,152.457s1.543-.507,1.769-1.638l.132-2.048" fill="none" stroke="#000" stroke-linecap="round" stroke-linejoin="round" stroke-width=".5"/><path d="M227.479,158.076l1.253-.419s.56.035.56.77-.175,1.541-.175,1.541c0,0-.07.98-.455,1.366l-1.753.967" fill="none" stroke="#000" stroke-linecap="round" stroke-linejoin="round" stroke-width=".5"/><path d="M225.272,161.612l1.745-.874s.49-.35.56-.91l.245-1.786" fill="none" stroke="#000" stroke-linecap="round" stroke-linejoin="round" stroke-width=".5"/><polyline points="338.065 74.837 339.37 74.196 340.89 74.647 340.913 75.716" fill="none" stroke="#000" stroke-linecap="round" stroke-linejoin="round" stroke-width=".5"/><line x1="339.465" y1="75.336" x2="340.89" y2="74.647" fill="none" stroke="#000" stroke-linecap="round" stroke-linejoin="round" stroke-width=".5"/></g><g id="c"><circle cx="54.223" cy="52.034" r="49.709" fill="#fff"/><path d="M54.147,42.822l-6.028.993s2.269,7.447-1.56,8.085c0,0-4.894,1.206-4.894,1.631l-1.206-1.986,7.021-3.901-2.837-4.042,1.206-.355-1.418-2.199-4.681-7.092s-.78-.851-1.915-.213l-7.73,4.468-.567-.709-2.34,1.489-.567-.851-2.624,1.135-.284-.638-2.553,1.489-.355-.922-2.057,1.135,2.34,6.95,7.234,10.993.78-.284,7.73,6.737,8.298,11.915.638,7.163,3.333,8.44,2.837-.496v-.922l41.772-9.503s6.383-7.73,9.007-18.227l-36.24,7.872-3.333-20.354-.851-2.624-.709-.142-.709-1.631-1.489-.284-4.752.851-.496-3.972Z" fill="#d1d3d4" stroke="#241f20" stroke-miterlimit="10" stroke-width=".5"/><circle cx="54.223" cy="52.034" r="49.709" fill="none" stroke="#fff" stroke-miterlimit="10" stroke-width="3"/><circle cx="54.223" cy="52.034" r="49.709" fill="none" stroke="#241f20" stroke-miterlimit="10"/><g clip-path="url(#d)"><path d="M363.096,21.109L51.819,90.664l.138.963-3.026.688-4.743-30.373c-.178-2.393,2.353-2.155,2.353-2.155,7.85.138,5.003-8.875,5.003-8.875l8.941-1.651,2.751,1.651,3.164,20.083s-.115,3.379,2.663,2.593c3.29-.93,213.538-44.774,213.538-44.774" fill="none" stroke="#241f20" stroke-miterlimit="10" stroke-width=".5"/><polyline points="63.236 50.911 62.377 48.218 60.016 46.987 50.568 48.878 51.544 50.911" fill="none" stroke="#241f20" stroke-miterlimit="10" stroke-width=".5"/><path d="M61.705,47.661l-.621-1.346-1.346-.466-4.918.828-1.553-9.992,4.918-.984s1.657-.777,1.294-3.21-.569-3.779-.569-3.779c0,0-.466-1.45-1.708-1.398s-5.125.725-5.125.725l-5.744-39.11s-.514-1.927,1.799-2.313,5.654-.642,5.654-.642" fill="none" stroke="#241f20" stroke-linecap="round" stroke-linejoin="round" stroke-width=".5"/><path d="M51.707,26.566l-5.744-39.11s-.514-1.927,1.799-2.313,5.457-.63,5.457-.63" fill="none" stroke="#241f20" stroke-linecap="round" stroke-linejoin="round" stroke-width=".5"/><path d="M53.286,36.672l-.388-1.46,4.918-.984s1.657-.777,1.294-3.21" fill="none" stroke="#241f20" stroke-linecap="round" stroke-linejoin="round" stroke-width=".5"/><polyline points="67.662 70.523 55.583 -11.328 52.885 -16.211 285.002 -45.901" fill="none" stroke="#241f20" stroke-linecap="round" stroke-linejoin="round" stroke-width=".5"/><path d="M54.101,42.84l-5.775,1.076.566,4.813s.753,2.308-3.493,3.554c0,0-3.827.579-3.698,1.486" fill="none" stroke="#241f20" stroke-miterlimit="10" stroke-width=".5"/><path d="M47.378,47.589l-19.074,10.652-7.37-10.652s-.46-.481.335-.92,1.464-.837,1.464-.837l.481.92,2.552-1.464.46.899,2.405-1.464.46.858,2.517-1.613.453,1.069,8.462-4.627s1.311-1.006,2.017.002,4.838,7.177,4.838,7.177Z" fill="none" stroke="#241f20" stroke-linecap="round" stroke-linejoin="round" stroke-width=".5"/><path d="M41.545,36.754l-1.009-1.379s-.922-.478-1.864.027-7.397,4.035-7.397,4.035l1.21,3.262,7.465-4.035s1.345-.672,2.152.336,2.656,4.573,2.656,4.573l.841-.437-.945-1.969s-4.132-6.168-4.838-7.177-2.017-.002-2.017-.002l-7.722,4.325-.607-.899-2.363,1.443-.46-.858-2.405,1.464-.46-.899-2.552,1.464-.481-.92-1.931,1.207,1.929,6.988" fill="none" stroke="#241f20" stroke-linecap="round" stroke-linejoin="round" stroke-width=".5"/><path d="M41.981,37.438s-.975-.774-4.104.902c-2.304,1.234-4.693,2.444-4.693,2.444,0,0-1.017-.443-1.908-1.347" fill="none" stroke="#241f20" stroke-linecap="round" stroke-linejoin="round" stroke-width=".5"/><line x1="31.608" y1="43.968" x2="29.423" y2="37.451" fill="none" stroke="#241f20" stroke-linecap="round" stroke-linejoin="round" stroke-width=".5"/><line x1="28.745" y1="44.909" x2="26.636" y2="38.016" fill="none" stroke="#241f20" stroke-linecap="round" stroke-linejoin="round" stroke-width=".5"/><line x1="25.882" y1="45.399" x2="23.76" y2="38.652" fill="none" stroke="#241f20" stroke-linecap="round" stroke-linejoin="round" stroke-width=".5"/><line x1="22.784" y1="45.901" x2="20.662" y2="39.154" fill="none" stroke="#241f20" stroke-linecap="round" stroke-linejoin="round" stroke-width=".5"/><line x1="40.333" y1="51.574" x2="44.947" y2="58.722" fill="none" stroke="#241f20" stroke-linecap="round" stroke-linejoin="round" stroke-width=".5"/><path d="M51.687,51.891s1.042,5.572-2.307,6.107c-1.905.305-3.121.588-3.121.588,0,0-3.102.317-2.072,3.476" fill="none" stroke="#241f20" stroke-linecap="round" stroke-linejoin="round" stroke-width=".5"/><polyline points="28.773 58.024 36.716 64.676 41.676 71.516 46.533 78.67" fill="none" stroke="#241f20" stroke-linecap="round" stroke-linejoin="round" stroke-width=".5"/><polyline points="48.93 92.315 45.906 83.683 45.018 76.529" fill="none" stroke="#241f20" stroke-linecap="round" stroke-linejoin="round" stroke-width=".5"/><polyline points="48.326 43.916 49.097 45.872 54.431 44.792" fill="none" stroke="#241f20" stroke-linecap="round" stroke-linejoin="round" stroke-width=".5"/><line x1="50.54" y1="57.464" x2="49.097" y2="45.872" fill="none" stroke="#241f20" stroke-linecap="round" stroke-linejoin="round" stroke-width=".5"/><line x1="43.732" y1="60.257" x2="38.66" y2="52.594" fill="none" stroke="#241f20" stroke-linecap="round" stroke-linejoin="round" stroke-width=".5"/><line x1="45.276" y1="69.408" x2="41.676" y2="71.516" fill="none" stroke="#241f20" stroke-linecap="round" stroke-linejoin="round" stroke-width=".5"/><line x1="44.945" y1="66.817" x2="40.314" y2="69.463" fill="none" stroke="#241f20" stroke-linecap="round" stroke-linejoin="round" stroke-width=".5"/><line x1="237.663" y1="35.357" x2="66.4" y2="70.994" fill="none" stroke="#241f20" stroke-miterlimit="10" stroke-width=".5"/></g><path d="M46.53,24.668s-10.194-5.097-17.829,3.322" fill="none" stroke="#2d2a26" stroke-linecap="round" stroke-linejoin="round" stroke-width="4"/><polygon points="26.391 21.23 30.076 26.509 36.433 27.521 23.956 36.278 26.391 21.23" fill="#2d2a26"/><polygon points="159.194 178.856 167.892 166.18 163.524 168.068 163.573 151.232 154.959 154.954 154.911 171.792 150.545 173.68 159.194 178.856" fill="#2d2a26" stroke="#fff" stroke-linecap="round" stroke-linejoin="round"/><polygon points="159.264 125.593 150.566 138.269 154.934 136.381 154.886 153.217 163.499 149.495 163.547 132.657 167.913 130.769 159.264 125.593" fill="#2d2a26" stroke="#fff" stroke-linecap="round" stroke-linejoin="round"/><line x1="57.499" y1="95.977" x2="115.27" y2="189.125" fill="none" stroke="#fff" stroke-linecap="round" stroke-linejoin="round" stroke-width="4"/><line x1="57.499" y1="95.977" x2="115.27" y2="189.125" fill="none" stroke="#241f20" stroke-linecap="round" stroke-linejoin="round" stroke-width=".75"/><polygon points="288.208 152.849 296.782 141.332 292.9 143.307 294.532 128.979 286.877 132.871 285.244 147.2 281.363 149.174 288.208 152.849" fill="#2d2a26" stroke="#fff" stroke-linecap="round" stroke-linejoin="round" stroke-width=".845"/><polygon points="293.303 107.529 284.729 119.046 288.612 117.072 286.979 131.4 294.634 127.507 296.267 113.178 300.148 111.204 293.303 107.529" fill="#2d2a26" stroke="#fff" stroke-linecap="round" stroke-linejoin="round" stroke-width=".845"/><path d="M105.676,27.662c0,7.593-6.246,13.745-13.95,13.745s-13.953-6.152-13.953-13.745,6.246-13.755,13.953-13.755,13.95,6.159,13.95,13.755" fill="#221f1f" stroke="#fff" stroke-miterlimit="10" stroke-width="1.5"/><rect x="77.725" y="19.668" width="27.228" height="24.791" fill="none"/><path d="M93.323,34.704h-1.846v-11.761c-.444.424-1.027.848-1.749,1.271s-1.369.742-1.943.954v-1.784c1.032-.485,1.935-1.073,2.707-1.764s1.319-1.36,1.641-2.01h1.189v15.094Z" fill="#fff"/><circle cx="216.44" cy="43.051" r="26.376" fill="#fff"/><path d="M201.059,64.577l40.83-15.388s1.399-2.361.787-7.082l-46.164,17.399s.874,2.186,4.546,5.071Z" fill="#d1d3d4"/><path d="M190.278,45.026l29.326-9.567.625-.812v-1.812l.687-.375.25,1.874.375.437,17.244-5.873s-9.809-16.056-28.927-11.246c0,0-20.262,5.636-19.58,27.373Z" fill="#d1d3d4"/><g clip-path="url(#e)"><polygon points="166.445 24.593 169.157 26.052 258.524 1.025 255.5 -.226 166.445 24.593" fill="#fff" stroke="#010101" stroke-linecap="round" stroke-linejoin="round" stroke-width=".68"/><polyline points="169.157 26.052 172.254 48.693 258.502 19.995 258.524 1.025" fill="none" stroke="#010101" stroke-linecap="round" stroke-linejoin="round" stroke-width=".68"/><polyline points="172.254 48.693 171.284 48.193 168.109 25.502" fill="none" stroke="#010101" stroke-linecap="round" stroke-linejoin="round" stroke-width=".68"/><path d="M167.551,25.309l-1.556.453s-.368-.085-.255.736c.052.379.74,5.675,1.466,11.269l1.169-.274s.529-.176.605.303.202,1.614.202,1.614c0,0,.202.303-.479.504l-1.206.276c.144,1.109.286,2.176.422,3.224l1.502-.476c.288-.16.412.36.412.36,0,0,.099.886.131,1.301s-.288.479-.288.479l-1.455.513c.424,3.268.73,5.634.73,5.634l.637.463,50.263-16.362.429-.632v-1.715" fill="none" stroke="#010101" stroke-linecap="round" stroke-linejoin="round" stroke-width=".68"/><polyline points="221.086 32.465 221.086 34.334 221.46 34.819 258.337 22.153 258.337 20.248" fill="none" stroke="#010101" stroke-linecap="round" stroke-linejoin="round" stroke-width=".68"/><path d="M174.303,69.833l-.562-5.062-.995-1.082-2.293.735v1.211s.173.433-.173.995-1.428.822-1.428.822l1.255,8.782,90.983-34.626.206-7.826-.669.195s-.558.084-.558-.641-.028-.948-.028-.948l-1.869.697v6.135l-82.86,31.207s-.884.275-1.01-.597Z" fill="none" stroke="#010101" stroke-linecap="round" stroke-linejoin="round" stroke-width=".68"/><polyline points="174.005 67.942 255.211 37.892 258.173 39.222" fill="none" stroke="#010101" stroke-linecap="round" stroke-linejoin="round" stroke-width=".68"/><polyline points="172.746 63.69 172.482 60.746 169.872 61.65 167.061 61.65 164.841 59.592 167.681 59.508 169.846 58.898 170.75 59.437 168.533 60.124 169.353 60.765 171.512 60.016 172.379 60.63" fill="none" stroke="#010101" stroke-linecap="round" stroke-linejoin="round" stroke-width=".68"/><polyline points="167.061 61.65 167.512 65.199 168.781 67.645 166.833 66.331" fill="none" stroke="#010101" stroke-linecap="round" stroke-linejoin="round" stroke-width=".68"/><polyline points="164.841 59.592 165.112 62.844 167.376 64.837" fill="none" stroke="#010101" stroke-linecap="round" stroke-linejoin="round" stroke-width=".68"/><polyline points="165.112 62.979 166.833 66.331 167.648 74.484 170.107 76.235" fill="none" stroke="#010101" stroke-linecap="round" stroke-linejoin="round" stroke-width=".68"/><line x1="174.471" y1="69.28" x2="256.279" y2="38.618" fill="none" stroke="#010101" stroke-linecap="round" stroke-linejoin="round" stroke-width=".34"/><line x1="219.854" y1="51.512" x2="221.284" y2="52.406" fill="none" stroke="#010101" stroke-linecap="round" stroke-linejoin="round" stroke-width="2"/><polyline points="255.866 31.72 255.799 29.182 257.884 28.268 259.137 27.079 262.074 28.247 260.405 29.716 258.453 30.592 258.503 32.853 256.325 31.794 255.265 32.285 255.265 37.625" fill="none" stroke="#010101" stroke-linecap="round" stroke-linejoin="round" stroke-width=".68"/><polyline points="262.107 28.247 262.107 31.585 261.296 33.784" fill="none" stroke="#010101" stroke-linecap="round" stroke-linejoin="round" stroke-width=".68"/><polyline points="255.799 29.182 256.751 29.718 258.609 28.881 259.476 29.294 257.61 30.147 258.342 30.481" fill="none" stroke="#010101" stroke-linecap="round" stroke-linejoin="round" stroke-width=".68"/><line x1="255.265" y1="32.285" x2="258.077" y2="33.718" fill="none" stroke="#010101" stroke-linecap="round" stroke-linejoin="round" stroke-width=".68"/><line x1="220.315" y1="49.622" x2="220.731" y2="36.268" fill="none" stroke="#fff" stroke-linecap="round" stroke-linejoin="round" stroke-width="2.039"/><line x1="220.315" y1="49.622" x2="220.731" y2="36.268" fill="none" stroke="#010101" stroke-dasharray=".68 1.088" stroke-linecap="round" stroke-linejoin="round" stroke-width=".68"/></g><circle cx="216.44" cy="43.051" r="26.376" fill="none" stroke="#fff" stroke-miterlimit="10" stroke-width="3"/><circle cx="216.44" cy="43.051" r="26.376" fill="none" stroke="#231f20" stroke-miterlimit="10"/><line x1="221.783" y1="58.735" x2="204.191" y2="98.513" fill="none" stroke="#fff" stroke-linecap="round" stroke-linejoin="round" stroke-width="4"/><line x1="221.783" y1="58.735" x2="204.191" y2="98.513" fill="none" stroke="#241f20" stroke-linecap="round" stroke-linejoin="round" stroke-width=".75"/></g></svg>