<?xml version="1.0" encoding="UTF-8"?><svg id="a" xmlns="http://www.w3.org/2000/svg" width="4.75in" height="3.25in" viewBox="0 0 342 234"><path d="M120.154,149.717l.16,3.324,1.722.24,2.203-5.287s.721-3.164-1.642-3.204l-.32,1.081s-1.122.801-1.081,2.924c0,0-.521-.16-1.041.921Z" fill="#d2d3d4" stroke-width="0"/><polyline points="113.102 76.629 99.865 73.927 99.059 75.228 96.743 74.774 95.971 75.001" fill="none" stroke="#231f20" stroke-linecap="round" stroke-linejoin="round" stroke-width=".5"/><line x1="137.51" y1="81.612" x2="118.651" y2="77.762" fill="none" stroke="#231f20" stroke-linecap="round" stroke-linejoin="round" stroke-width=".5"/><line x1="143.599" y1="82.855" x2="140.45" y2="82.213" fill="none" stroke="#231f20" stroke-linecap="round" stroke-linejoin="round" stroke-width=".5"/><line x1="169.548" y1="88.153" x2="144.886" y2="83.118" fill="none" stroke="#231f20" stroke-linecap="round" stroke-linejoin="round" stroke-width=".5"/><line x1="196.058" y1="93.565" x2="171.508" y2="88.553" fill="none" stroke="#231f20" stroke-linecap="round" stroke-linejoin="round" stroke-width=".5"/><line x1="204.723" y1="95.334" x2="197.457" y2="93.851" fill="none" stroke="#231f20" stroke-linecap="round" stroke-linejoin="round" stroke-width=".5"/><polyline points="207.941 105.242 208.874 97.663 209.76 96.363 207.498 95.901" fill="none" stroke="#231f20" stroke-linecap="round" stroke-linejoin="round" stroke-width=".5"/><polyline points="93.833 78.88 93.193 79.839 80.429 114.345 80.448 116.717 80.48 118.695 80.338 119.283 77.153 128.074 76.958 123.082" fill="none" stroke="#231f20" stroke-linecap="round" stroke-linejoin="round" stroke-width=".5"/><polyline points="80.462 113.06 80.819 109.934 93.863 76.074" fill="none" stroke="#231f20" stroke-linecap="round" stroke-linejoin="round" stroke-width=".5"/><line x1="75.047" y1="129.828" x2="76.749" y2="130.12" fill="none" stroke="#231f20" stroke-linecap="round" stroke-linejoin="round" stroke-width=".5"/><polyline points="79.488 149.287 79.196 147.149 84 134.735 191.215 156.655 171.334 211.529 171.334 213.959" fill="none" stroke="#231f20" stroke-linecap="round" stroke-linejoin="round" stroke-width=".5"/><path d="M215.982,107.111l.069-3.071s-.365-.706-1.037-.537l-.227-9.387-2.22,5.63-.051,1.108-12.112,32.779s-1.06,2.952-.984,5.602.64,3.201.111,4.337-3.448,8.337-3.448,8.337l-.228-3.795s-.116-.218-.303-.327c-.264-.155-.668-.092-1.08,1.115l-3.112,7.929" fill="none" stroke="#231f20" stroke-linecap="round" stroke-linejoin="round" stroke-width=".5"/><polyline points="215.844 104.295 213.701 109.84 213.649 107.911 214.356 106.033 214.373 105.292 215.097 103.465" fill="none" stroke="#231f20" stroke-linecap="round" stroke-linejoin="round" stroke-width=".5"/><polyline points="212.59 99.1 211.767 98.945 210.698 101.46 210.409 103.267" fill="none" stroke="#231f20" stroke-linecap="round" stroke-linejoin="round" stroke-width=".5"/><line x1="211.394" y1="103.596" x2="210.373" y2="103.34" fill="none" stroke="#231f20" stroke-linecap="round" stroke-linejoin="round" stroke-width=".5"/><line x1="173.259" y1="222.952" x2="215.923" y2="106.87" fill="none" stroke="#231f20" stroke-linecap="round" stroke-linejoin="round" stroke-width=".5"/><polygon points="172.105 217.698 172.773 215.317 172.773 214.272 169.891 213.646 165.755 222.126 165.379 229.102 168.846 229.896 170.016 227.682 170.183 223.087 171.52 219.619 172.105 217.698" fill="none" stroke="#231f20" stroke-linecap="round" stroke-linejoin="round" stroke-width=".5"/><line x1="166.419" y1="223.824" x2="168.615" y2="224.26" fill="none" stroke="#231f20" stroke-linecap="round" stroke-linejoin="round" stroke-width=".5"/><line x1="166.388" y1="224.588" x2="168.584" y2="225.024" fill="none" stroke="#231f20" stroke-linecap="round" stroke-linejoin="round" stroke-width=".5"/><line x1="166.357" y1="225.351" x2="168.553" y2="225.787" fill="none" stroke="#231f20" stroke-linecap="round" stroke-linejoin="round" stroke-width=".5"/><line x1="166.326" y1="226.114" x2="168.522" y2="226.55" fill="none" stroke="#231f20" stroke-linecap="round" stroke-linejoin="round" stroke-width=".5"/><line x1="166.295" y1="226.877" x2="168.491" y2="227.313" fill="none" stroke="#231f20" stroke-linecap="round" stroke-linejoin="round" stroke-width=".5"/><line x1="166.263" y1="227.641" x2="168.46" y2="228.077" fill="none" stroke="#231f20" stroke-linecap="round" stroke-linejoin="round" stroke-width=".5"/><line x1="166.232" y1="228.404" x2="168.429" y2="228.84" fill="none" stroke="#231f20" stroke-linecap="round" stroke-linejoin="round" stroke-width=".5"/><path d="M172.105,217.698s.796-.051.884,1.379.286,6.382.286,6.382l-2.223,5.854-1.959-.418-.022-1.276" fill="none" stroke="#231f20" stroke-linecap="round" stroke-linejoin="round" stroke-width=".5"/><g id="b"><path d="M154.947,169.416c-.232.062-.473.097-.714.104s-.484-.013-.719-.061c-.294-.06-.582-.165-.841-.318-.121-.072-.236-.154-.342-.247-.1-.088-.192-.186-.271-.293-.076-.102-.14-.212-.19-.329-.048-.112-.083-.231-.102-.351-.019-.119-.022-.241-.009-.361.013-.122.041-.241.083-.356.044-.119.103-.232.173-.338.074-.111.16-.213.256-.306.101-.098.211-.186.329-.263.123-.081.254-.151.389-.21.284-.124.588-.2.898-.231.314-.031.633-.016.941.047.208.043.413.107.607.196.183.083.356.188.512.315.145.118.275.255.379.41.098.145.173.305.217.474.043.163.056.335.039.503-.018.171-.067.339-.142.494-.079.165-.187.315-.312.448-.135.143-.292.266-.459.368-.044.027-.088.052-.134.076-.041.022-.083.043-.126.062-.13.06-.265.11-.403.15-.02.006-.039.011-.059.016Z" fill="none" stroke="#231f20" stroke-linecap="round" stroke-linejoin="round" stroke-width=".5"/></g><g id="c"><path d="M149.721,171.123c.325-.271.717-.448.818-.499.1-.05.204-.093.311-.128.372-.115.761-.182,1.152-.201s.787.01,1.171.089c.37.076.731.197,1.068.369.313.16.605.364.853.611.068.071.131.148.188.229.059.085.111.175.156.268.018.038.031.079.036.121.006.043.005.088,0,.131v2.112" fill="none" stroke="#231f20" stroke-linecap="round" stroke-linejoin="round" stroke-width=".5"/></g><path d="M154.899,164.226c.025-.059.047-.119.067-.18.024-.072.045-.145.064-.219.041-.158.06-.228.099-.391,0,0,.2.043.237.051l3.178.65c.089.018.176.045.26.081.079.034.156.076.225.127.066.047.126.102.177.165.048.059.127.189.127.189l-3.35,9.075c-.039.106-.108.201-.19.28-.048.046-.1.086-.155.122-.06.039-.123.072-.188.1-.14.06-.291.097-.444.112-.156.015-.315.007-.467-.024l-.296-.075-4.666-1.143h0s-.025-.009-.025-.009l-.038-.035-.024-.053-.015-.077-.006-.069h0s.045-1.812.045-1.812" fill="none" stroke="#231f20" stroke-linecap="round" stroke-linejoin="round" stroke-width=".5"/><g id="d"><path d="M158.42,167.021l-.063-1.184s-.045-.304-.045-.304h0s-.008-.036-.008-.036l-.056-.117-.098-.097-.131-.068-.084-.024s-5.726-1.171-5.726-1.171c-.028-.006-.056.01-.065.036h0s-2.59,6.98-2.59,6.98" fill="none" stroke="#231f20" stroke-linecap="round" stroke-linejoin="round" stroke-width=".5"/></g><g id="e"><path d="M81.356,154.628c-.232.062-.473.097-.714.104s-.484-.013-.719-.061c-.294-.06-.582-.165-.841-.318-.121-.072-.236-.154-.342-.247-.1-.088-.192-.186-.271-.293-.076-.102-.14-.212-.19-.329-.048-.112-.083-.231-.102-.351-.019-.119-.022-.241-.009-.361.013-.122.041-.241.083-.356.044-.119.103-.232.173-.338.074-.111.16-.213.256-.306.101-.098.211-.186.329-.263.123-.081.254-.151.389-.21.284-.124.588-.2.898-.231.314-.031.633-.016.941.047.208.043.413.107.607.196.183.083.356.188.512.315.145.118.275.255.379.41.098.145.173.305.217.474.043.163.056.335.039.503-.018.171-.067.339-.142.494-.079.165-.187.315-.312.448-.135.143-.292.266-.459.368-.044.027-.088.052-.134.076-.041.022-.083.043-.126.062-.13.06-.265.11-.403.15-.02.006-.039.011-.059.016Z" fill="none" stroke="#231f20" stroke-linecap="round" stroke-linejoin="round" stroke-width=".5"/></g><g id="f"><path d="M76.129,156.335c.325-.271.717-.448.818-.499.1-.05.204-.093.311-.128.372-.115.761-.182,1.152-.201s.787.01,1.171.089c.37.076.731.197,1.068.369.313.16.605.364.853.611.068.071.131.148.188.229.059.085.111.175.156.268.018.038.031.079.036.121.006.043.005.088,0,.131v2.112" fill="none" stroke="#231f20" stroke-linecap="round" stroke-linejoin="round" stroke-width=".5"/></g><path d="M81.308,149.438c.025-.059.047-.119.067-.18.024-.072.045-.145.064-.219.041-.158.06-.228.099-.391,0,0,.2.043.237.051l3.178.65c.089.018.176.045.26.081.079.034.156.076.225.127.066.047.126.102.177.165.048.059.127.189.127.189l-3.35,9.075c-.039.106-.108.201-.19.28-.048.046-.1.086-.155.122-.06.039-.123.072-.188.1-.14.06-.291.097-.444.112-.156.015-.315.007-.467-.024l-.296-.075-4.666-1.143h0s-.025-.009-.025-.009l-.038-.035-.024-.053-.015-.077-.006-.069h0s.045-1.812.045-1.812" fill="none" stroke="#231f20" stroke-linecap="round" stroke-linejoin="round" stroke-width=".5"/><g id="g"><path d="M84.829,152.232l-.063-1.184-.045-.304h0s-.008-.036-.008-.036l-.056-.117-.098-.097-.131-.068-.084-.024-5.726-1.171c-.028-.006-.056.01-.065.036h0s-2.59,6.98-2.59,6.98l-11.228,30.386-2.41-.511s-.887-.114-1.288.859" fill="none" stroke="#231f20" stroke-linecap="round" stroke-linejoin="round" stroke-width=".5"/></g><path d="M116.317,147.108l.365,2.293-.142.638c.284,1.064,1.511.114,1.511.114l-.164-8.41-.806-.169-10.28,28.8s-.153,1.264-2.012,1.469c-2.072.228-3.402.818-3.402.818l-2.07,5.91,2.589,2.138s.735.672.326,1.74c-.425,1.113-5.051,13.487-5.051,13.487,0,0-.993,3.176-5.665,2.675" fill="none" stroke="#231f20" stroke-linecap="round" stroke-linejoin="round" stroke-width=".5"/><polygon points="92.822 138.409 104.421 140.812 99.98 152.778 88.537 150.322 92.822 138.409" fill="none" stroke="#231f20" stroke-linecap="round" stroke-linejoin="round" stroke-width=".5"/><polyline points="157.348 149.975 153.03 161.585 153.45 164.074" fill="none" stroke="#231f20" stroke-linecap="round" stroke-linejoin="round" stroke-width=".5"/><polyline points="134.486 201.267 138.403 202.043 149.959 169.943" fill="none" stroke="#231f20" stroke-linecap="round" stroke-linejoin="round" stroke-width=".5"/><path d="M135.211,201.447l-1.219,3.454s-1.164,2.108,2.065,3.016" fill="none" stroke="#231f20" stroke-linecap="round" stroke-linejoin="round" stroke-width=".5"/><polyline points="169.397 214.635 100.46 200.524 53.213 190.854" fill="none" stroke="#231f20" stroke-linecap="round" stroke-linejoin="round" stroke-width=".5"/><path d="M52.696,189.642l-.066-2.59,11.821-31.478,1.063-.398,1.395-3.652.996.199,2.191-6.043-1.992-.398,7.882-21.727.698.161.204-.487.958-2.286s.886-.994.929.951l.089,1.399" fill="none" stroke="#231f20" stroke-linecap="round" stroke-linejoin="round" stroke-width=".5"/><path d="M65.41,155.526l-2.404,6.485-.056,4.976,6.933,1.454.224-.503s1.156-.093,1.707-.699l-5.406-.858.036-1.854,4.435.654" fill="none" stroke="#231f20" stroke-linecap="round" stroke-linejoin="round" stroke-width=".5"/><line x1="55.652" y1="185.441" x2="62.954" y2="165.404" fill="none" stroke="#231f20" stroke-linecap="round" stroke-linejoin="round" stroke-width=".5"/><path d="M61.107,186.675l-6.235-1.299s-.909,1.429.162,1.721,4.838,1.007,4.838,1.007c0,0,.877.455,1.234-1.429Z" fill="none" stroke="#231f20" stroke-linecap="round" stroke-linejoin="round" stroke-width=".5"/><path d="M53.39,189.921l-.881,2.569-.073,2.569-1.395,3.45-.037,4.734-1.064,2.312-3.707-.734.697-7.193,2.312-4.477,1.692-3.821,7.584,1.631s.973.401,1.316-.658,1.202-3.32,1.202-3.32" fill="none" stroke="#231f20" stroke-linecap="round" stroke-linejoin="round" stroke-width=".5"/><polyline points="51.253 198.39 52.56 198.702 54.327 194.946" fill="none" stroke="#231f20" stroke-linecap="round" stroke-linejoin="round" stroke-width=".5"/><polyline points="52.498 195.34 52.56 206.95 50.537 206.608 50.475 204.554" fill="none" stroke="#231f20" stroke-linecap="round" stroke-linejoin="round" stroke-width=".5"/><polyline points="52.713 206.746 54.327 202.29 54.373 191.104" fill="none" stroke="#231f20" stroke-linecap="round" stroke-linejoin="round" stroke-width=".5"/><polyline points="54.535 194.574 95.755 203.154 96.884 203.82 97.013 211.71" fill="none" stroke="#231f20" stroke-linecap="round" stroke-linejoin="round" stroke-width=".5"/><path d="M60.123,189.479s-.441,2.325,2.365,3.247" fill="none" stroke="#231f20" stroke-linecap="round" stroke-linejoin="round" stroke-width=".5"/><path d="M99.382,200.305s-3.081-.998-2.163-3.445" fill="none" stroke="#231f20" stroke-linecap="round" stroke-linejoin="round" stroke-width=".5"/><polyline points="109.668 162.149 109.852 165.083 114.85 152.336 114.988 150.41 116.317 147.108 115.209 146.884" fill="none" stroke="#231f20" stroke-linecap="round" stroke-linejoin="round" stroke-width=".5"/><line x1="112.286" y1="155.028" x2="112.434" y2="158.289" fill="none" stroke="#231f20" stroke-linecap="round" stroke-linejoin="round" stroke-width=".5"/><g id="h"><path d="M90.401,190.582c.173-.091.335-.21.469-.353.063-.067.119-.139.168-.217.047-.074.086-.153.117-.235l9.376-25.401c.033-.089.055-.183.065-.278.01-.094.007-.188-.007-.281-.015-.094-.042-.187-.079-.274-.039-.091-.089-.177-.148-.256-.062-.084-.134-.16-.212-.229-.082-.073-.172-.137-.267-.192-.202-.119-.427-.201-.656-.248l-14.747-3.016c-.24-.049-.489-.061-.734-.037-.241.024-.479.084-.7.18-.106.046-.207.101-.304.164-.092.06-.178.129-.256.205-.074.073-.142.152-.199.239-.055.082-.101.171-.135.263l-9.376,25.401c-.027.073-.047.149-.058.226-.011.076-.015.153-.011.229s.017.153.038.227c.021.076.049.149.085.219.075.148.179.28.301.393.133.123.287.222.449.299.039.018.079.036.119.052.123.049.252.087.382.114l14.747,3.016c.267.055.544.063.816.027.265-.036.524-.114.759-.238" fill="none" stroke="#231f20" stroke-linecap="round" stroke-linejoin="round" stroke-width=".5"/></g><g id="i"><path d="M164.025,205.597c.173-.091.335-.21.469-.353.063-.067.119-.139.168-.217.047-.074.086-.153.117-.235l9.376-25.401c.033-.089.055-.183.065-.278.01-.094.007-.188-.007-.281-.015-.094-.042-.187-.079-.274-.039-.091-.089-.177-.148-.256-.062-.084-.134-.16-.212-.229-.082-.073-.172-.137-.267-.192-.202-.119-.427-.201-.656-.248l-14.747-3.016c-.24-.049-.489-.061-.734-.037-.241.024-.479.084-.7.18-.106.046-.207.101-.304.164-.092.06-.178.129-.256.205-.074.073-.142.152-.199.239-.055.082-.101.171-.135.263l-9.376,25.401c-.027.073-.047.149-.058.226-.011.076-.015.153-.011.229s.017.153.038.227c.021.076.049.149.085.219.075.148.179.28.301.393.133.123.287.222.449.299.039.018.079.036.119.052.123.049.252.087.382.114l14.747,3.016c.267.055.544.063.816.027.265-.036.524-.114.759-.238" fill="none" stroke="#231f20" stroke-linecap="round" stroke-linejoin="round" stroke-width=".5"/></g><path d="M190.789,157.089l-3.192-.658s-.721-.219-1.159.94-1.015,2.838-1.015,2.838c0,0-.533,1.065.345,2.225,0,0,.971,1.003.564,2.131s-.627,1.379-.627,1.379c0,0-.313.815,1.065,1.128l-6.611,18.236s-.282.846-1.943,1.097-2.413.501-2.413.501c0,0-.595,0-1.159,1.253s-1.598,4.167-1.598,4.167c0,0-.564.94.313,1.661s2.099,1.535,2.099,1.535c0,0,.815.533.219,1.849s-1.911,4.857-1.911,4.857c0,0-1.039-.279-1.48.294s-.617,1.763-.617,1.763c0,0-.265.838.97,1.234l-2.601,6.304s-1.328,2.682-4.414,2.021" fill="none" stroke="#231f20" stroke-linecap="round" stroke-linejoin="round" stroke-width=".5"/><line x1="166.968" y1="214.164" x2="167.185" y2="219.055" fill="none" stroke="#231f20" stroke-linecap="round" stroke-linejoin="round" stroke-width=".5"/><path d="M138.14,208.277l.087,3.852s.173,1.299,1.515,1.688" fill="none" stroke="#231f20" stroke-linecap="round" stroke-linejoin="round" stroke-width=".5"/><path d="M138.737,208.334l.143,3.848s1.14.057.998.57-.314.998-.314.998l-.029,1.226,25.884,5.302.2-1.34s.029-1.34,1.397-1.112" fill="none" stroke="#231f20" stroke-linecap="round" stroke-linejoin="round" stroke-width=".5"/><path d="M102.025,200.957l.103,3.776s1.098.069.995.652-.309.892-.309.892l.034,1.167,25.847,5.286.103-1.304s0-1.407,1.545-1.064" fill="none" stroke="#231f20" stroke-linecap="round" stroke-linejoin="round" stroke-width=".5"/><path d="M101.27,200.854v3.741s-.24,1.064,1.545,1.682l25.984,5.149c2.094.755,1.476-1.854,1.476-1.854l-.103-2.918" fill="none" stroke="#231f20" stroke-linecap="round" stroke-linejoin="round" stroke-width=".5"/><path d="M54.135,202.87s-.58,1.625,1.48,2.031,8.53,1.712,8.53,1.712c0,0,.928.609,1.596-1.625l-.087-8.036" fill="none" stroke="#231f20" stroke-linecap="round" stroke-linejoin="round" stroke-width=".5"/><polyline points="65.605 197.764 72.471 199.191 72.527 204.844" fill="none" stroke="#231f20" stroke-linecap="round" stroke-linejoin="round" stroke-width=".5"/><line x1="65.914" y1="205.004" x2="70.822" y2="206.017" fill="none" stroke="#231f20" stroke-linecap="round" stroke-linejoin="round" stroke-width=".5"/><line x1="65.862" y1="204.18" x2="71.17" y2="205.262" fill="none" stroke="#231f20" stroke-linecap="round" stroke-linejoin="round" stroke-width=".5"/><polyline points="72.518 204.824 73.675 205.069 73.901 202.814 74.108 202.015 74.468 202.093 74.546 204.927 74.233 205.544 74.285 206.731 73.946 207.695 72.642 207.408" fill="none" stroke="#231f20" stroke-linecap="round" stroke-linejoin="round" stroke-width=".5"/><path d="M72.579,207.929l-.08-3.126-1.03-.207-1.598,4.09.139,2.967s.697.657,1.055.1l1.513-3.823Z" fill="none" stroke="#231f20" stroke-linecap="round" stroke-linejoin="round" stroke-width=".5"/><path d="M71.469,204.596l-.137-3.854s-.068-.707-.775-.798-2.304-.479-2.304-.479l-1.551.798.068,2.668,1.414,1.574" fill="none" stroke="#231f20" stroke-linecap="round" stroke-linejoin="round" stroke-width=".5"/><polyline points="86.104 207.919 85.523 208.723 85.439 210.053 76.517 208.197 76.545 206.673 76.905 205.924" fill="none" stroke="#231f20" stroke-linecap="round" stroke-linejoin="round" stroke-width=".5"/><path d="M75.824,199.136l.194,6.65-.471.72-.055,1.635s.194.942,1.136,1.108,8.978,1.773,8.978,1.773c0,0,1.053.111,1.469-1.635l-.083-6.484,1.053-1.385" fill="none" stroke="#231f20" stroke-linecap="round" stroke-linejoin="round" stroke-width=".5"/><line x1="76.683" y1="207.227" x2="85.412" y2="208.945" fill="none" stroke="#231f20" stroke-linecap="round" stroke-linejoin="round" stroke-width=".5"/><line x1="74.285" y1="206.731" x2="75.417" y2="206.952" fill="none" stroke="#231f20" stroke-linecap="round" stroke-linejoin="round" stroke-width=".5"/><polyline points="87.424 202.275 93.784 203.534 93.824 208.894 95.044 209.062 95.303 206.778 95.739 206.302 95.779 209.241 95.561 209.955 95.57 211.365 165.406 225.851" fill="none" stroke="#231f20" stroke-linecap="round" stroke-linejoin="round" stroke-width=".5"/><line x1="87.069" y1="208.506" x2="92.471" y2="209.589" fill="none" stroke="#231f20" stroke-linecap="round" stroke-linejoin="round" stroke-width=".5"/><line x1="87.079" y1="209.362" x2="92.17" y2="210.381" fill="none" stroke="#231f20" stroke-linecap="round" stroke-linejoin="round" stroke-width=".5"/><path d="M89.945,208.91l-1.885-1.621-.057-2.677,1.508-.792s1.49.377,2.244.434.886.716.886.716l.113,3.978-1.602,4.106.139,3.058c.894.516,1.112,0,1.112,0l1.509-3.912-.118-3.276s-.22-.02-.895-.1" fill="none" stroke="#231f20" stroke-linecap="round" stroke-linejoin="round" stroke-width=".5"/><polyline points="93.873 211.782 95.164 212.04 95.521 211.127" fill="none" stroke="#231f20" stroke-linecap="round" stroke-linejoin="round" stroke-width=".5"/><polygon points="112.396 211.817 120.288 213.512 120.38 215.652 112.488 213.956 112.396 211.817" fill="none" stroke="#231f20" stroke-linecap="round" stroke-linejoin="round" stroke-width=".5"/><line x1="116.328" y1="212.86" x2="116.389" y2="214.664" fill="none" stroke="#231f20" stroke-linecap="round" stroke-linejoin="round" stroke-width=".5"/><polygon points="121.683 213.804 132.152 216.008 132.243 218.086 121.774 215.883 121.683 213.804" fill="none" stroke="#231f20" stroke-linecap="round" stroke-linejoin="round" stroke-width=".5"/><line x1="127.013" y1="215.033" x2="127.074" y2="216.785" fill="none" stroke="#231f20" stroke-linecap="round" stroke-linejoin="round" stroke-width=".5"/><polygon points="133.922 213.391 137.418 214.09 137.514 216.092 133.922 215.393 133.922 213.391" fill="none" stroke="#231f20" stroke-linecap="round" stroke-linejoin="round" stroke-width=".5"/><polygon points="133.922 216.197 137.418 216.896 137.514 218.898 133.922 218.199 133.922 216.197" fill="none" stroke="#231f20" stroke-linecap="round" stroke-linejoin="round" stroke-width=".5"/><line x1="188.202" y1="159.605" x2="189.956" y2="159.973" fill="none" stroke="#231f20" stroke-linecap="round" stroke-linejoin="round" stroke-width=".5"/><g id="j"><path d="M186.44,162.261l-.404-.946c-.013-.03-.02-.063-.021-.096s.005-.066.016-.097l.794-2.152c.016-.044.044-.083.077-.116.037-.037.082-.065.129-.085.051-.022.106-.036.162-.042.057-.006.114-.003.17.008l.553.113c.041.008.081.022.119.04.035.017.069.039.098.065.027.024.05.053.068.085.016.03.027.063.031.096.004.03.002.061-.005.091-.002.01-.005.02-.009.03l-.292.791c-.002.006-.003.013-.002.02.001.007.004.013.008.019.009.013.025.02.04.023l.055.011c.044.009.088.025.127.048.036.021.068.048.092.081.022.03.038.065.044.102.006.036.001.074-.011.108l-.682,1.847c-.016.044-.044.083-.077.116-.037.037-.082.065-.129.085-.051.022-.106.036-.162.042-.057.006-.114.003-.17-.008l-.322-.066c-.065-.013-.129-.039-.184-.078-.048-.035-.089-.082-.113-.136" fill="none" stroke="#231f20" stroke-linecap="round" stroke-linejoin="round" stroke-width=".5"/></g><ellipse cx="188.133" cy="157.736" rx=".84" ry=".504" fill="none" stroke="#231f20" stroke-linecap="round" stroke-linejoin="round" stroke-width=".5"/><path d="M63.086,161.851l3.01.719,3.545.498.002.93c.477.079,1.51,1.152,1.51,1.152l.926-2.222" fill="none" stroke="#231f20" stroke-linecap="round" stroke-linejoin="round" stroke-width=".5"/><path d="M69.842,162.725l4.212-10.531s-.556-2.623,1.868-4.53l-.079-.795,2.861-7.272-5.444-1.152,1.391-3.537,1.113.199.358-.119,3.656.755-1.351,3.576" fill="none" stroke="#231f20" stroke-linecap="round" stroke-linejoin="round" stroke-width=".5"/><polyline points="70.588 138.442 71.497 138.624 71.97 137.897 73.933 132.698 80.331 133.698 81.785 134.171 81.894 135.443 81.385 135.225 79.776 135.742" fill="none" stroke="#231f20" stroke-linecap="round" stroke-linejoin="round" stroke-width=".5"/><path d="M78.513,139.842s2.29.727,2.218,3.272" fill="none" stroke="#231f20" stroke-linecap="round" stroke-linejoin="round" stroke-width=".5"/><path d="M79.64,136.061s2.363,1.091,2.545,3.345" fill="none" stroke="#231f20" stroke-linecap="round" stroke-linejoin="round" stroke-width=".5"/><polyline points="80.331 141.587 77.786 148.785 77.314 148.64 74.551 156.383 74.587 157.401 72.261 163.327" fill="none" stroke="#231f20" stroke-linecap="round" stroke-linejoin="round" stroke-width=".5"/><path d="M70.225,161.509s2.363.909,2.363,3.381" fill="none" stroke="#231f20" stroke-linecap="round" stroke-linejoin="round" stroke-width=".5"/><polyline points="68.103 145.281 68.202 146.876 66.665 151.095 66.907 151.524" fill="none" stroke="#231f20" stroke-linecap="round" stroke-linejoin="round" stroke-width=".5"/><polyline points="64.45 155.574 65.881 151.969 66.634 152.03" fill="none" stroke="#231f20" stroke-linecap="round" stroke-linejoin="round" stroke-width=".5"/><polyline points="76.93 131.387 74.77 131.012 74.806 129.863 75.485 127.826 77.681 128.206" fill="none" stroke="#231f20" stroke-linecap="round" stroke-linejoin="round" stroke-width=".5"/><path d="M82.857,132.656v.145s.191,1.655.191,1.655c0,0-.114.739-1.108.71l.057-.426.811-1.962" fill="none" stroke="#231f20" stroke-linecap="round" stroke-linejoin="round" stroke-width=".5"/><polyline points="80.598 135.56 81.17 136.195 82.177 136.447 82.186 137.094 81.815 137.934" fill="none" stroke="#231f20" stroke-linecap="round" stroke-linejoin="round" stroke-width=".5"/><line x1="47.535" y1="199.478" x2="49.522" y2="199.884" fill="none" stroke="#231f20" stroke-linecap="round" stroke-linejoin="round" stroke-width=".5"/><line x1="47.535" y1="200.278" x2="49.522" y2="200.684" fill="none" stroke="#231f20" stroke-linecap="round" stroke-linejoin="round" stroke-width=".5"/><line x1="47.476" y1="201.019" x2="49.464" y2="201.426" fill="none" stroke="#231f20" stroke-linecap="round" stroke-linejoin="round" stroke-width=".5"/><line x1="47.418" y1="201.761" x2="49.405" y2="202.167" fill="none" stroke="#231f20" stroke-linecap="round" stroke-linejoin="round" stroke-width=".5"/><line x1="47.34" y1="202.522" x2="49.327" y2="202.928" fill="none" stroke="#231f20" stroke-linecap="round" stroke-linejoin="round" stroke-width=".5"/><line x1="47.262" y1="203.244" x2="49.249" y2="203.65" fill="none" stroke="#231f20" stroke-linecap="round" stroke-linejoin="round" stroke-width=".5"/><line x1="47.203" y1="203.966" x2="49.19" y2="204.372" fill="none" stroke="#231f20" stroke-linecap="round" stroke-linejoin="round" stroke-width=".5"/><path d="M62.757,197.49c-3.205-2.08-5.851-.754-5.851-.754l1.88,1.159s2.402-.448,3.377,1.414l.834-1.132-.241-.687Z" fill="none" stroke="#231f20" stroke-linecap="round" stroke-linejoin="round" stroke-width=".5"/><path d="M56.316,200.881l-.661-.504c-.464-2.46.856-3.051.856-3.051l1.501.898s-1.455.276-1.137,1.631c0,0-.578.45-.559,1.026Z" fill="none" stroke="#231f20" stroke-linecap="round" stroke-linejoin="round" stroke-width=".5"/><polyline points="55.343 201.217 55.266 202.493 55.208 203.914 64.173 205.771 64.202 203.18 64.833 202.374" fill="none" stroke="#231f20" stroke-linecap="round" stroke-linejoin="round" stroke-width=".5"/><path d="M62.706,202.845s-2.459.952-5.662-1.06c0,0-.3-.486.343-1.341,0,0,1.2,1.347,3.129,1.371,0,0,.507.704,2.191,1.03Z" fill="none" stroke="#231f20" stroke-linecap="round" stroke-linejoin="round" stroke-width=".5"/><line x1="55.268" y1="202.716" x2="63.987" y2="204.569" fill="none" stroke="#231f20" stroke-linecap="round" stroke-linejoin="round" stroke-width=".5"/><path d="M61.529,201.591s1.14-.136,1.08-1.596l.658-.764.338-.533s.871,1.91-.232,3.504c0,0-1.417-.136-1.844-.611Z" fill="none" stroke="#231f20" stroke-linecap="round" stroke-linejoin="round" stroke-width=".5"/><path d="M84.314,202.139c-3.072-1.994-5.608-.722-5.608-.722l1.802,1.111s2.303-.429,3.237,1.356l.8-1.086-.231-.659Z" fill="none" stroke="#231f20" stroke-linecap="round" stroke-linejoin="round" stroke-width=".5"/><path d="M78.14,205.389l-.633-.483c-.445-2.358.82-2.925.82-2.925l1.439.861s-1.395.265-1.09,1.563c0,0-.554.432-.535.984Z" fill="none" stroke="#231f20" stroke-linecap="round" stroke-linejoin="round" stroke-width=".5"/><path d="M84.265,207.272s-2.357.912-5.428-1.016c0,0-.288-.466.329-1.286,0,0,1.15,1.291,3,1.314,0,0,.486.675,2.1.987Z" fill="none" stroke="#231f20" stroke-linecap="round" stroke-linejoin="round" stroke-width=".5"/><path d="M83.136,206.07s1.092-.13,1.035-1.53l.631-.733.324-.511s.835,1.831-.222,3.359c0,0-1.358-.131-1.768-.586Z" fill="none" stroke="#231f20" stroke-linecap="round" stroke-linejoin="round" stroke-width=".5"/><path d="M64.577,193.198s-.274,1.503,1.248,1.741" fill="none" stroke="#231f20" stroke-linecap="round" stroke-linejoin="round" stroke-width=".5"/><path d="M93.419,199.098s.402,1.566-1.365,1.265" fill="none" stroke="#231f20" stroke-linecap="round" stroke-linejoin="round" stroke-width=".5"/><polyline points="92.395 198.817 91.893 200.182 91.873 201.528 65.791 196.127 65.831 194.962 66.43 193.592" fill="none" stroke="#231f20" stroke-linecap="round" stroke-linejoin="round" stroke-width=".5"/><polygon points="142.391 216.99 144.007 217.336 144.076 219.806 142.43 219.451 142.391 216.99" fill="none" stroke="#231f20" stroke-linecap="round" stroke-linejoin="round" stroke-width=".5"/><polygon points="148.132 219.586 152.031 220.389 155.973 221.201 155.973 222.972 148.132 221.357 148.132 219.586" fill="none" stroke="#231f20" stroke-linecap="round" stroke-linejoin="round" stroke-width=".5"/><line x1="152.066" y1="222.113" x2="152.031" y2="220.389" fill="none" stroke="#231f20" stroke-linecap="round" stroke-linejoin="round" stroke-width=".5"/><polygon points="157.051 221.404 160.95 222.207 164.892 223.019 164.892 224.79 157.051 223.175 157.051 221.404" fill="none" stroke="#231f20" stroke-linecap="round" stroke-linejoin="round" stroke-width=".5"/><line x1="160.985" y1="223.93" x2="160.95" y2="222.207" fill="none" stroke="#231f20" stroke-linecap="round" stroke-linejoin="round" stroke-width=".5"/><g id="k"><path d="M139.013,218.504c0-.01.003-.021.007-.031.003-.009.007-.017.012-.024.011-.016.025-.029.041-.039.044-.027.099-.035.151-.032.02.001.04.004.06.008l1.802.369c.054.011.107.032.154.063.042.027.08.061.104.104.013.023.022.049.023.076l.004.168-.006.034c-.007.018-.02.034-.036.046-.006.004-.012.008-.019.011l-.207.102c-.027.013-.057.019-.087.019-.011,0-.022,0-.034-.001-.012-.001-.025-.003-.037-.005l-1.492-.305c-.012-.003-.025-.006-.037-.01-.03-.01-.06-.023-.086-.041-.013-.008-.025-.017-.036-.027l-.213-.188c-.013-.011-.025-.024-.035-.038-.009-.012-.017-.026-.022-.04-.005-.013-.008-.026-.008-.039l-.004-.168v-.012Z" fill="none" stroke="#231f20" stroke-linecap="round" stroke-linejoin="round" stroke-width=".5"/></g><polyline points="208.032 103.488 206.919 103.873 100.336 82.153" fill="none" stroke="#231f20" stroke-linecap="round" stroke-linejoin="round" stroke-width=".5"/><polyline points="116.824 78.014 113.96 78.701 113.96 79.503 110.866 82.483 111.038 79.56 114.189 75.493 117.168 74.576" fill="none" stroke="#231f20" stroke-linecap="round" stroke-linejoin="round" stroke-width=".5"/><path d="M141.636,72.877l-1.549,11.791-3.25,4.081s-.794.529-.68-.68.491-3.779.491-3.779l4.497-11.413h.491Z" fill="none" stroke="#231f20" stroke-linecap="round" stroke-linejoin="round" stroke-width=".5"/><path d="M120.305,65.763l-.815,1.086-2.127,6.924-.679,5.249s.226.679.86-.045,4.525-5.657,4.525-5.657l8.221-64.189-.532-.887-2.041,2.751-.266,3.372-3.017,4.792-1.154,10.916,1.952-2.13-2.683,20.533h.74l-.542,4.439-.888.444-1.554,12.402Z" fill="none" stroke="#231f20" stroke-linecap="round" stroke-linejoin="round" stroke-width=".5"/><polygon points="143.986 83.878 146.986 80.437 147.339 76.995 146.545 75.583 144.427 72.936 144.074 70.73 145.133 63.14 145.486 54.492 142.309 75.142 143.898 80.437 143.986 83.878" fill="none" stroke="#231f20" stroke-linecap="round" stroke-linejoin="round" stroke-width=".5"/><polygon points="170.056 84.11 169.422 90.693 174.577 84.666 182.905 20.979 179.812 30.814 179.018 38.031 178.463 38.903 177.67 44.693 177.142 45.471 175.132 63.49 174.498 64.204 172.912 76.814 172.356 77.607 170.056 84.11" fill="none" stroke="#231f20" stroke-linecap="round" stroke-linejoin="round" stroke-width=".5"/><polyline points="169.233 89.871 168.301 91.336 168.123 94.353 171.318 91.114 171.508 88.553" fill="none" stroke="#231f20" stroke-linecap="round" stroke-linejoin="round" stroke-width=".5"/><polyline points="197.311 78.54 196.781 81.919 197.245 83.973 198.769 85.63" fill="none" stroke="#231f20" stroke-linecap="round" stroke-linejoin="round" stroke-width=".5"/><polyline points="199.697 79.003 198.305 91.063 199.527 89.59 200.889 87.949 201.022 86.557 200.492 85.099 200.823 84.437 200.104 82.042 200.436 79.126" fill="none" stroke="#231f20" stroke-linecap="round" stroke-linejoin="round" stroke-width=".5"/><polyline points="199.511 91.041 196.343 94.72 196.496 91.347 194.861 85.931 195.627 81.639 195.934 80.923 200.839 43.57 198.898 45.717 199.562 39.227 200.941 37.336 202.066 28.088 204.876 24.409 130.291 9.132" fill="none" stroke="#231f20" stroke-linecap="round" stroke-linejoin="round" stroke-width=".5"/><path d="M222.153,27.925l-16.235-3.338-.051.961-3.035,9.458-.708,7.182-.556,2.175,12.846,2.681s2.377-1.315,0-4.248l-9.963-2.023.506-.759,1.72-12.644,1.696-2.136" fill="none" stroke="#231f20" stroke-linecap="round" stroke-linejoin="round" stroke-width=".5"/><line x1="220.425" y1="49.834" x2="214.788" y2="94.116" fill="none" stroke="#231f20" stroke-linecap="round" stroke-linejoin="round" stroke-width=".5"/><polyline points="211.777 102.602 209.717 95.418 212.446 73.122 213.045 72.324 214.775 59.745 214.309 59.412 217.214 37.724 217.733 37.751 219.86 31.559 223.352 26.84 221.986 37.573 219.555 40.669 218.047 52.351 220.986 48.251 222.147 37.922" fill="none" stroke="#231f20" stroke-linecap="round" stroke-linejoin="round" stroke-width=".5"/><polyline points="216.679 26.958 214.895 29.272 213.375 42.292" fill="none" stroke="#231f20" stroke-linecap="round" stroke-linejoin="round" stroke-width=".5"/><polyline points="217.437 27.205 217.344 28.236 214.719 37.187 215.563 37.32 214.953 39.296 214.415 42.795" fill="none" stroke="#231f20" stroke-linecap="round" stroke-linejoin="round" stroke-width=".5"/><line x1="200.267" y1="49.737" x2="215.113" y2="52.947" fill="none" stroke="#231f20" stroke-linecap="round" stroke-linejoin="round" stroke-width=".5"/><line x1="198.983" y1="60.41" x2="214.07" y2="63.46" fill="none" stroke="#231f20" stroke-linecap="round" stroke-linejoin="round" stroke-width=".5"/><polyline points="211.3 81.287 208.177 80.643 196.374 78.21" fill="none" stroke="#231f20" stroke-linecap="round" stroke-linejoin="round" stroke-width=".5"/><polyline points="208.177 80.643 206.726 92.638 209.263 90.101 209.429 88.646 208.39 84.364 208.764 80.829" fill="none" stroke="#231f20" stroke-linecap="round" stroke-linejoin="round" stroke-width=".5"/><polyline points="201.197 87.025 207.059 88.272 203.608 99.124 203.317 102.533 207.225 98.043 208.14 91.265" fill="none" stroke="#231f20" stroke-linecap="round" stroke-linejoin="round" stroke-width=".5"/><line x1="174.687" y1="84.209" x2="195.511" y2="88.431" fill="none" stroke="#231f20" stroke-linecap="round" stroke-linejoin="round" stroke-width=".5"/><line x1="175.689" y1="76.838" x2="195.934" y2="80.923" fill="none" stroke="#231f20" stroke-linecap="round" stroke-linejoin="round" stroke-width=".5"/><line x1="176.548" y1="69.324" x2="196.656" y2="73.618" fill="none" stroke="#231f20" stroke-linecap="round" stroke-linejoin="round" stroke-width=".5"/><line x1="177.764" y1="61.023" x2="197.945" y2="65.317" fill="none" stroke="#231f20" stroke-linecap="round" stroke-linejoin="round" stroke-width=".5"/><line x1="178.838" y1="52.722" x2="199.018" y2="57.015" fill="none" stroke="#231f20" stroke-linecap="round" stroke-linejoin="round" stroke-width=".5"/><line x1="179.84" y1="44.063" x2="200.234" y2="48.5" fill="none" stroke="#231f20" stroke-linecap="round" stroke-linejoin="round" stroke-width=".5"/><line x1="181.056" y1="35.404" x2="199.562" y2="39.227" fill="none" stroke="#231f20" stroke-linecap="round" stroke-linejoin="round" stroke-width=".5"/><polyline points="162.308 15.751 160.484 18.183 158.862 31.626 174.805 35.071 176.021 34.328 176.696 29.194 179.466 20.277 179.534 19.331" fill="none" stroke="#231f20" stroke-linecap="round" stroke-linejoin="round" stroke-width=".5"/><line x1="182.905" y1="20.979" x2="179.466" y2="20.277" fill="none" stroke="#231f20" stroke-linecap="round" stroke-linejoin="round" stroke-width=".5"/><polyline points="161.294 16.696 152.58 14.873 149.743 24.397 148.756 32.296 145.622 57.363" fill="none" stroke="#231f20" stroke-linecap="round" stroke-linejoin="round" stroke-width=".5"/><line x1="178.453" y1="38.313" x2="148.756" y2="32.296" fill="none" stroke="#231f20" stroke-linecap="round" stroke-linejoin="round" stroke-width=".5"/><line x1="147.919" y1="38.989" x2="177.102" y2="45.001" fill="none" stroke="#231f20" stroke-linecap="round" stroke-linejoin="round" stroke-width=".5"/><line x1="175.953" y1="55.674" x2="146.5" y2="49.595" fill="none" stroke="#231f20" stroke-linecap="round" stroke-linejoin="round" stroke-width=".5"/><line x1="145.133" y1="63.14" x2="173.498" y2="69.214" fill="none" stroke="#231f20" stroke-linecap="round" stroke-linejoin="round" stroke-width=".5"/><line x1="128.417" y1="24.934" x2="148.854" y2="29.142" fill="none" stroke="#231f20" stroke-linecap="round" stroke-linejoin="round" stroke-width=".5"/><line x1="127.415" y1="33.449" x2="147.752" y2="37.757" fill="none" stroke="#231f20" stroke-linecap="round" stroke-linejoin="round" stroke-width=".5"/><line x1="126.212" y1="41.865" x2="146.85" y2="46.273" fill="none" stroke="#231f20" stroke-linecap="round" stroke-linejoin="round" stroke-width=".5"/><line x1="124.71" y1="50.28" x2="145.486" y2="54.492" fill="none" stroke="#231f20" stroke-linecap="round" stroke-linejoin="round" stroke-width=".5"/><line x1="124.101" y1="58.738" x2="144.071" y2="62.873" fill="none" stroke="#231f20" stroke-linecap="round" stroke-linejoin="round" stroke-width=".5"/><line x1="123.122" y1="65.811" x2="143.037" y2="70.11" fill="none" stroke="#231f20" stroke-linecap="round" stroke-linejoin="round" stroke-width=".5"/><line x1="141.07" y1="77.655" x2="142.82" y2="78.054" fill="none" stroke="#231f20" stroke-linecap="round" stroke-linejoin="round" stroke-width=".5"/><line x1="122.07" y1="73.32" x2="139.257" y2="77.242" fill="none" stroke="#231f20" stroke-linecap="round" stroke-linejoin="round" stroke-width=".5"/><line x1="144.452" y1="71.307" x2="153.213" y2="73.103" fill="none" stroke="#231f20" stroke-linecap="round" stroke-linejoin="round" stroke-width=".5"/><line x1="154.897" y1="77.468" x2="169.21" y2="80.394" fill="none" stroke="#231f20" stroke-linecap="round" stroke-linejoin="round" stroke-width=".5"/><line x1="147.118" y1="75.878" x2="152.67" y2="77.013" fill="none" stroke="#231f20" stroke-linecap="round" stroke-linejoin="round" stroke-width=".5"/><polyline points="171.142 80.136 170.482 76.675 170.922 71.732 170.153 72.556 168.725 84.86 169.988 83.651" fill="none" stroke="#231f20" stroke-linecap="round" stroke-linejoin="round" stroke-width=".5"/><polyline points="153.619 69.59 152.191 81.29 154.773 78.653 154.388 75.961 154.828 75.412 153.894 72.281 154.224 69.425 153.29 69.095 153.949 68.326 157.08 68.985 157.519 68.436 159.716 68.93 159.716 69.535 165.209 70.633 165.539 70.139 167.736 70.578 167.626 71.237 170.428 71.842" fill="none" stroke="#231f20" stroke-linecap="round" stroke-linejoin="round" stroke-width=".5"/><line x1="120.245" y1="62.721" x2="106.873" y2="59.842" fill="none" stroke="#231f20" stroke-linecap="round" stroke-linejoin="round" stroke-width=".5"/><line x1="122.567" y1="44.984" x2="99.351" y2="40.248" fill="none" stroke="#231f20" stroke-linecap="round" stroke-linejoin="round" stroke-width=".5"/><line x1="124.146" y1="34.305" x2="100.837" y2="29.569" fill="none" stroke="#231f20" stroke-linecap="round" stroke-linejoin="round" stroke-width=".5"/><line x1="123.774" y1="24.555" x2="101.766" y2="20.283" fill="none" stroke="#231f20" stroke-linecap="round" stroke-linejoin="round" stroke-width=".5"/><polyline points="103.159 13.69 102.323 16.568 97.68 53.992" fill="none" stroke="#231f20" stroke-linecap="round" stroke-linejoin="round" stroke-width=".5"/><path d="M106.647,62.522l.942-5.654s1.068-.942-1.194-1.382-8.105-1.508-8.105-1.508c0,0-1.445-.126-1.571,1.257s-.434,3.773-.434,3.773l.129.027,9.715,2.016.65,1.95,13.525,2.763" fill="none" stroke="#231f20" stroke-linecap="round" stroke-linejoin="round" stroke-width=".5"/><polyline points="96.416 59.033 98.165 66.04 97.223 71.757 95.904 74.71 95.213 79.359 94.459 79.297" fill="none" stroke="#231f20" stroke-linecap="round" stroke-linejoin="round" stroke-width=".5"/><path d="M79.27,133.547l13.2-36.122,1.061.088,3.803-10.436-.973-.442.884-2.476,2.476.442s.177-2.034.884-2.83l-1.519-.344-1.299,1.263-3.141-.565-.503-.754.377-3.016-1.948-7.288,7.162-53.528,4.021-5.529,2.262.377,1.131-1.319,5.026,1.068" fill="none" stroke="#231f20" stroke-linecap="round" stroke-linejoin="round" stroke-width=".5"/><path d="M115.964,4.742l.085,2.394-2.735,9.061-.94,1.111s-.769-.085-.513-1.881.855-6.497.855-6.497l3.248-4.189Z" fill="none" stroke="#231f20" stroke-linecap="round" stroke-linejoin="round" stroke-width=".5"/><line x1="221.473" y1="26.51" x2="222.88" y2="26.805" fill="none" stroke="#231f20" stroke-linecap="round" stroke-linejoin="round" stroke-width=".5"/><line x1="195.775" y1="21.211" x2="218.623" y2="25.927" fill="none" stroke="#231f20" stroke-linecap="round" stroke-linejoin="round" stroke-width=".5"/><line x1="184.757" y1="18.951" x2="191.438" y2="20.316" fill="none" stroke="#231f20" stroke-linecap="round" stroke-linejoin="round" stroke-width=".5"/><line x1="159.021" y1="13.625" x2="181.64" y2="18.294" fill="none" stroke="#231f20" stroke-linecap="round" stroke-linejoin="round" stroke-width=".5"/><line x1="115.973" y1="4.741" x2="154.627" y2="12.718" fill="none" stroke="#231f20" stroke-linecap="round" stroke-linejoin="round" stroke-width=".5"/><polyline points="103.757 12.01 103.982 9.815 104.755 9.454 105.116 7.083 105.735 6.773 107.024 6.979 107.333 9.299 107.15 11.067" fill="none" stroke="#231f20" stroke-linecap="round" stroke-linejoin="round" stroke-width=".5"/><polygon points="144.089 10.279 145.171 9.454 146.615 9.763 147.44 10.846 147.233 11.825 143.986 11.103 144.089 10.279" fill="none" stroke="#231f20" stroke-linecap="round" stroke-linejoin="round" stroke-width=".5"/><polygon points="155.585 11.619 158.626 12.289 158.987 13.475 158.523 14.145 154.76 13.372 154.76 12.805 155.585 11.619" fill="none" stroke="#231f20" stroke-linecap="round" stroke-linejoin="round" stroke-width=".5"/><polygon points="181.894 18.084 182.994 17.305 184.002 17.442 184.69 18.359 184.535 19.369 181.825 18.817 181.894 18.084" fill="none" stroke="#231f20" stroke-linecap="round" stroke-linejoin="round" stroke-width=".5"/><polygon points="191.578 20.328 192.479 19.211 195.327 19.823 195.723 20.869 195.399 21.806 191.686 21.049 191.578 20.328" fill="none" stroke="#231f20" stroke-linecap="round" stroke-linejoin="round" stroke-width=".5"/><polygon points="218.661 26.404 218.816 25.528 219.846 24.807 220.876 24.987 221.52 25.94 221.314 26.97 218.661 26.404" fill="none" stroke="#231f20" stroke-linecap="round" stroke-linejoin="round" stroke-width=".5"/><line x1="98.165" y1="66.04" x2="118.382" y2="70.057" fill="none" stroke="#231f20" stroke-linecap="round" stroke-linejoin="round" stroke-width=".5"/><path d="M97.699,70.158l2.129.406s.912,0,.71,1.115-1.45,9.747-1.45,9.747" fill="none" stroke="#231f20" stroke-linecap="round" stroke-linejoin="round" stroke-width=".5"/><polyline points="87.988 118.715 86.462 118.454 80.775 133.859" fill="none" stroke="#231f20" stroke-linecap="round" stroke-linejoin="round" stroke-width=".5"/><polyline points="86.836 135.237 92.694 119.52 90.444 119.135" fill="none" stroke="#231f20" stroke-linecap="round" stroke-linejoin="round" stroke-width=".5"/><polyline points="101.734 82.713 100.714 85.617 100.727 88.843 109.793 90.621 111.165 86.424 111.413 84.445" fill="none" stroke="#231f20" stroke-linecap="round" stroke-linejoin="round" stroke-width=".5"/><polyline points="101.037 85.617 109.592 87.433 110.762 84.366" fill="none" stroke="#231f20" stroke-linecap="round" stroke-linejoin="round" stroke-width=".5"/><line x1="109.793" y1="90.621" x2="109.592" y2="87.433" fill="none" stroke="#231f20" stroke-linecap="round" stroke-linejoin="round" stroke-width=".5"/><line x1="190.783" y1="101.88" x2="210.476" y2="105.955" fill="none" stroke="#231f20" stroke-linecap="round" stroke-linejoin="round" stroke-width=".5"/><line x1="132.907" y1="90.115" x2="156.927" y2="94.989" fill="none" stroke="#231f20" stroke-linecap="round" stroke-linejoin="round" stroke-width=".5"/><path d="M111.327,86.707s.847.565,1.009-.767l10.876,2.207" fill="none" stroke="#231f20" stroke-linecap="round" stroke-linejoin="round" stroke-width=".5"/><polyline points="181.542 98.732 180.816 100.306 180.775 103.226 189.29 105.027" fill="none" stroke="#231f20" stroke-linecap="round" stroke-linejoin="round" stroke-width=".5"/><polyline points="189.895 100.346 189.129 102.081 189.29 105.027 191.106 100.629" fill="none" stroke="#231f20" stroke-linecap="round" stroke-linejoin="round" stroke-width=".5"/><line x1="180.816" y1="100.306" x2="189.129" y2="102.081" fill="none" stroke="#231f20" stroke-linecap="round" stroke-linejoin="round" stroke-width=".5"/><polyline points="157.441 93.816 156.3 97.018 159.134 97.57 160.348 94.442" fill="none" stroke="#231f20" stroke-linecap="round" stroke-linejoin="round" stroke-width=".5"/><polyline points="156.305 97.048 156.3 99.995 159.134 100.547 159.136 97.567" fill="none" stroke="#231f20" stroke-linecap="round" stroke-linejoin="round" stroke-width=".5"/><line x1="161.107" y1="95.838" x2="180.937" y2="99.862" fill="none" stroke="#231f20" stroke-linecap="round" stroke-linejoin="round" stroke-width=".5"/><line x1="159.165" y1="100.528" x2="161.331" y2="94.78" fill="none" stroke="#231f20" stroke-linecap="round" stroke-linejoin="round" stroke-width=".5"/><polyline points="123.647 86.916 123.113 88.383 122.974 88.766 122.906 92.434 131.285 94.116 133.371 88.867" fill="none" stroke="#231f20" stroke-linecap="round" stroke-linejoin="round" stroke-width=".5"/><polyline points="131.992 88.598 131.319 90.213 123.243 88.531" fill="none" stroke="#231f20" stroke-linecap="round" stroke-linejoin="round" stroke-width=".5"/><line x1="131.42" y1="93.645" x2="131.319" y2="90.213" fill="none" stroke="#231f20" stroke-linecap="round" stroke-linejoin="round" stroke-width=".5"/><polyline points="186.019 149.412 185.315 150.869 185.265 151.724 184.762 153.332 185.667 153.533 185.533 154.157" fill="none" stroke="#231f20" stroke-linecap="round" stroke-linejoin="round" stroke-width=".5"/><polyline points="188.34 154.77 188.183 154.035 187.448 153.824 187.973 152.302 187.92 151.356 188.655 150.254 188.503 146.822 198.7 120.256 199.083 120.117 199.497 119.758 201.576 120.185 201.633 121.318" fill="none" stroke="#231f20" stroke-linecap="round" stroke-linejoin="round" stroke-width=".5"/><polyline points="204.912 120.871 202.647 120.405 201.941 121.058 200.996 121.793 200.891 122.791 200.996 125.836 192.016 150.726 191.229 150.464 190.493 151.882 190.546 152.722 189.968 154.35 190.861 154.56 191.018 155.347" fill="none" stroke="#231f20" stroke-linecap="round" stroke-linejoin="round" stroke-width=".5"/><polyline points="185.533 154.157 187.539 154.589 187.766 154.039" fill="none" stroke="#231f20" stroke-linecap="round" stroke-linejoin="round" stroke-width=".5"/><polyline points="188.444 154.801 190.274 155.183 190.448 154.541" fill="none" stroke="#231f20" stroke-linecap="round" stroke-linejoin="round" stroke-width=".5"/><line x1="191.754" y1="155.505" x2="191.096" y2="155.362" fill="none" stroke="#231f20" stroke-linecap="round" stroke-linejoin="round" stroke-width=".5"/><polyline points="194.382 118.772 194.132 119.081 193.376 119.488 183.434 146.649 183.426 149.208 182.731 150.389 182.777 151.27 182.221 152.846 183.055 153.078 183.054 153.683 184.851 154.044 185.095 153.423" fill="none" stroke="#231f20" stroke-linecap="round" stroke-linejoin="round" stroke-width=".5"/><polyline points="193.459 118.517 192.055 118.228 191.395 118.861 190.742 121.323 190.993 123.986 181.697 148.709 180.843 148.457 180.14 149.864 180.19 150.618 179.637 152.327 180.542 152.528 180.542 153.08 182.244 153.495 182.528 152.937" fill="none" stroke="#231f20" stroke-linecap="round" stroke-linejoin="round" stroke-width=".5"/><polyline points="196.521 120.588 196.369 119.115 194.252 118.68" fill="none" stroke="#231f20" stroke-linecap="round" stroke-linejoin="round" stroke-width=".5"/><polyline points="102.505 99.822 167.44 113.169 167.373 114.455 166.609 114.663 166.54 115.635 166.748 117.926" fill="none" stroke="#231f20" stroke-linecap="round" stroke-linejoin="round" stroke-width=".5"/><polyline points="199.051 119.612 197.373 119.288 197.076 119.829 196.697 120.208 196.048 122.128 195.858 124.509 186.336 149.209" fill="none" stroke="#231f20" stroke-linecap="round" stroke-linejoin="round" stroke-width=".5"/><path d="M195.552,147.786l.91-2.329s.645-1.176.835.228.228,2.58.228,2.58" fill="none" stroke="#231f20" stroke-linecap="round" stroke-linejoin="round" stroke-width=".5"/><line x1="197.323" y1="146.209" x2="199.431" y2="140.872" fill="none" stroke="#231f20" stroke-linecap="round" stroke-linejoin="round" stroke-width=".5"/><polygon points="164.196 117.455 168.1 118.283 169.284 115.148 182.712 117.928 181.647 121.005 185.493 121.833 183.067 128.636 179.163 127.689 178.039 130.765 182.002 131.594 179.518 138.338 175.436 137.45 174.253 140.704 160.883 137.923 162.066 134.788 157.984 134.019 160.706 127.216 164.492 127.985 165.616 124.968 161.593 124.14 164.196 117.455" fill="none" stroke="#231f20" stroke-linecap="round" stroke-linejoin="round" stroke-width=".5"/><line x1="182.712" y1="117.928" x2="182.855" y2="121.189" fill="none" stroke="#231f20" stroke-linecap="round" stroke-linejoin="round" stroke-width=".5"/><line x1="185.493" y1="121.833" x2="185.771" y2="131.742" fill="none" stroke="#231f20" stroke-linecap="round" stroke-linejoin="round" stroke-width=".5"/><polyline points="183.067 128.636 183.341 137.852 182.23 137.644" fill="none" stroke="#231f20" stroke-linecap="round" stroke-linejoin="round" stroke-width=".5"/><line x1="182.002" y1="131.594" x2="182.23" y2="141.045" fill="none" stroke="#231f20" stroke-linecap="round" stroke-linejoin="round" stroke-width=".5"/><polyline points="175.436 137.45 175.843 147.016 179.731 147.78 179.518 138.338" fill="none" stroke="#231f20" stroke-linecap="round" stroke-linejoin="round" stroke-width=".5"/><polyline points="174.253 140.704 174.594 150.14 175.843 147.016" fill="none" stroke="#231f20" stroke-linecap="round" stroke-linejoin="round" stroke-width=".5"/><polyline points="160.883 137.923 161.125 147.433 157.098 146.53 158.278 143.336 157.984 134.019" fill="none" stroke="#231f20" stroke-linecap="round" stroke-linejoin="round" stroke-width=".5"/><line x1="161.009" y1="143.897" x2="158.278" y2="143.336" fill="none" stroke="#231f20" stroke-linecap="round" stroke-linejoin="round" stroke-width=".5"/><polyline points="174.594 150.14 178.547 150.886 179.731 147.78" fill="none" stroke="#231f20" stroke-linecap="round" stroke-linejoin="round" stroke-width=".5"/><polyline points="185.777 128.374 186.553 128.529 186.811 129.408 178.638 151.912 157.137 147.436 157.098 146.53" fill="none" stroke="#231f20" stroke-linecap="round" stroke-linejoin="round" stroke-width=".5"/><line x1="200.996" y1="125.836" x2="203.026" y2="126.206" fill="none" stroke="#231f20" stroke-linecap="round" stroke-linejoin="round" stroke-width=".5"/><polyline points="129.616 142.835 127.922 142.467 127.775 141.73 126.928 141.546 127.591 139.889 127.517 139.005 128.217 137.642 129.101 137.826 138.419 112.67 138.345 110.276 139.008 108.251 139.671 107.551" fill="none" stroke="#231f20" stroke-linecap="round" stroke-linejoin="round" stroke-width=".5"/><polyline points="134.694 143.851 132.999 143.482 132.852 142.746 132.005 142.561 132.668 140.904 132.594 140.02 133.294 138.657 134.178 138.841 143.496 113.686 143.423 111.292 144.086 109.266 144.749 108.566" fill="none" stroke="#231f20" stroke-linecap="round" stroke-linejoin="round" stroke-width=".5"/><polyline points="140.08 144.874 138.386 144.506 138.238 143.769 137.391 143.585 138.054 141.928 137.98 141.044 138.68 139.681 139.564 139.865 148.486 114.71 148.412 112.316 149.075 110.29 149.738 109.59" fill="none" stroke="#231f20" stroke-linecap="round" stroke-linejoin="round" stroke-width=".5"/><polyline points="137.425 144.456 135.73 144.087 135.583 143.351 134.736 143.167 135.295 141.718 135.21 140.699 135.931 139.681 136.1 136.383 146.197 108.85" fill="none" stroke="#231f20" stroke-linecap="round" stroke-linejoin="round" stroke-width=".5"/><polyline points="142.641 145.434 140.947 145.065 140.8 144.329 139.953 144.145 140.511 142.696 140.427 141.678 141.148 140.659 141.317 137.361 151.337 109.961" fill="none" stroke="#231f20" stroke-linecap="round" stroke-linejoin="round" stroke-width=".5"/><polyline points="145.297 145.983 143.602 145.615 143.455 144.878 142.608 144.694 143.271 143.036 143.197 142.152 143.897 140.79 144.781 140.974 153.703 115.818 153.629 113.424 154.292 111.398 154.955 110.699" fill="none" stroke="#231f20" stroke-linecap="round" stroke-linejoin="round" stroke-width=".5"/><polyline points="147.858 146.542 146.164 146.174 146.016 145.437 145.169 145.253 145.728 143.804 145.643 142.786 146.364 141.768 146.533 138.469 156.63 110.936" fill="none" stroke="#231f20" stroke-linecap="round" stroke-linejoin="round" stroke-width=".5"/><polyline points="150.318 147.157 148.623 146.788 148.476 146.052 147.629 145.868 148.292 144.21 148.218 143.326 148.918 141.963 149.802 142.148 158.724 116.992 158.65 114.598 159.313 112.572 159.976 111.872" fill="none" stroke="#231f20" stroke-linecap="round" stroke-linejoin="round" stroke-width=".5"/><polyline points="157.837 135.309 155.019 143.256 154.135 143.072 153.435 144.435 153.508 145.319 152.846 146.976 153.693 147.16 153.84 147.897 155.534 148.265 158.215 141.327" fill="none" stroke="#231f20" stroke-linecap="round" stroke-linejoin="round" stroke-width=".5"/><line x1="161.822" y1="124.073" x2="160.519" y2="127.748" fill="none" stroke="#231f20" stroke-linecap="round" stroke-linejoin="round" stroke-width=".5"/><polyline points="165.192 112.981 164.53 113.681 163.867 115.706 163.94 118.1" fill="none" stroke="#231f20" stroke-linecap="round" stroke-linejoin="round" stroke-width=".5"/><polyline points="152.879 147.716 151.185 147.348 151.037 146.611 150.19 146.427 150.749 144.978 150.664 143.96 151.385 142.942 151.554 139.643 161.651 112.11" fill="none" stroke="#231f20" stroke-linecap="round" stroke-linejoin="round" stroke-width=".5"/><polyline points="141.13 108.036 130.928 135.991 130.758 138.526 130.132 139.778 130.169 140.588 129.543 142.062 130.39 142.246 130.537 142.982 132.231 143.351" fill="none" stroke="#231f20" stroke-linecap="round" stroke-linejoin="round" stroke-width=".5"/><polyline points="92.642 135.312 90.948 134.943 90.8 134.207 89.953 134.023 90.616 132.365 90.543 131.481 91.242 130.119 92.126 130.303 101.445 105.147 101.371 102.753 102.034 100.727 102.697 100.027" fill="none" stroke="#231f20" stroke-linecap="round" stroke-linejoin="round" stroke-width=".5"/><polyline points="104.156 100.513 93.953 128.467 93.784 131.002 93.158 132.255 93.194 133.065 92.568 134.538 93.415 134.722 93.563 135.459 95.257 135.827" fill="none" stroke="#231f20" stroke-linecap="round" stroke-linejoin="round" stroke-width=".5"/><polyline points="97.79 136.513 96.096 136.145 95.949 135.408 95.101 135.224 95.764 133.566 95.691 132.682 96.391 131.32 97.274 131.504 106.593 106.348 106.519 103.954 107.182 101.928 107.845 101.229" fill="none" stroke="#231f20" stroke-linecap="round" stroke-linejoin="round" stroke-width=".5"/><polyline points="112.489 102.1 111.826 102.8 111.163 104.826 111.347 106.786 102.331 132.435 101.566 132.191 100.866 133.554 100.94 134.438 100.277 136.095 101.124 136.279 101.271 137.016 102.965 137.384 105.625 130.316" fill="none" stroke="#231f20" stroke-linecap="round" stroke-linejoin="round" stroke-width=".5"/><polyline points="115.111 102.398 114.448 103.098 113.785 105.124 113.91 107.203" fill="none" stroke="#231f20" stroke-linecap="round" stroke-linejoin="round" stroke-width=".5"/><polyline points="109.304 101.714 99.102 129.669 98.932 132.204 98.306 133.456 98.343 134.266 97.716 135.739 98.564 135.924 98.711 136.66 100.405 137.029" fill="none" stroke="#231f20" stroke-linecap="round" stroke-linejoin="round" stroke-width=".5"/><polyline points="111.347 106.786 115.28 107.561 116.592 104.343 130.001 107.203 128.987 110.302 132.861 111.137 130.537 117.871 126.425 116.977 125.412 119.897 129.226 120.791 126.902 127.645 122.789 126.751 121.657 129.79 108.188 127.049 109.38 124.069 105.685 123.294 105.745 132.532 104.434 135.809 104.434 136.703 125.888 141.054 134.172 118.407 133.636 117.633" fill="none" stroke="#231f20" stroke-linecap="round" stroke-linejoin="round" stroke-width=".5"/><polyline points="108.069 116.56 111.705 117.275 112.897 114.176 109.202 113.401 109.44 116.5" fill="none" stroke="#231f20" stroke-linecap="round" stroke-linejoin="round" stroke-width=".5"/><line x1="130.001" y1="107.203" x2="130.299" y2="110.6" fill="none" stroke="#231f20" stroke-linecap="round" stroke-linejoin="round" stroke-width=".5"/><line x1="132.861" y1="111.137" x2="133.219" y2="120.791" fill="none" stroke="#231f20" stroke-linecap="round" stroke-linejoin="round" stroke-width=".5"/><polyline points="130.537 117.871 130.775 127.347 129.726 127.136" fill="none" stroke="#231f20" stroke-linecap="round" stroke-linejoin="round" stroke-width=".5"/><line x1="129.226" y1="120.791" x2="129.583" y2="130.744" fill="none" stroke="#231f20" stroke-linecap="round" stroke-linejoin="round" stroke-width=".5"/><line x1="126.902" y1="127.645" x2="127.14" y2="137.418" fill="none" stroke="#231f20" stroke-linecap="round" stroke-linejoin="round" stroke-width=".5"/><polyline points="122.909 126.81 123.266 136.167 122.015 139.385 121.657 129.79" fill="none" stroke="#231f20" stroke-linecap="round" stroke-linejoin="round" stroke-width=".5"/><line x1="123.266" y1="136.167" x2="127.14" y2="137.001" fill="none" stroke="#231f20" stroke-linecap="round" stroke-linejoin="round" stroke-width=".5"/><line x1="122.015" y1="139.385" x2="126.177" y2="140.281" fill="none" stroke="#231f20" stroke-linecap="round" stroke-linejoin="round" stroke-width=".5"/><polyline points="104.434 135.809 108.463 136.559 108.188 127.049" fill="none" stroke="#231f20" stroke-linecap="round" stroke-linejoin="round" stroke-width=".5"/><line x1="105.706" y1="132.596" x2="108.36" y2="133.148" fill="none" stroke="#231f20" stroke-linecap="round" stroke-linejoin="round" stroke-width=".5"/><path d="M88.534,116.641s.358-1.134,1.617-.995c0,0,1.202.166.947,1.507l-.42,1.259s-.343,1.394-1.637,1.042c0,0-1.067-.017-.974-1.182l.466-1.631Z" fill="none" stroke="#231f20" stroke-linecap="round" stroke-linejoin="round" stroke-width=".5"/><path d="M85.706,120.403l.059-2.274s-.095-.634.761-.507,1.574.27,1.574.27" fill="none" stroke="#231f20" stroke-linecap="round" stroke-linejoin="round" stroke-width=".5"/><path d="M90.952,118.434l1.845.293s.539-.015.539.568-.045,2.679-.045,2.679l-1.28-.256" fill="none" stroke="#231f20" stroke-linecap="round" stroke-linejoin="round" stroke-width=".5"/><polyline points="91.189 117.153 91.659 117.217 91.625 118.434" fill="none" stroke="#231f20" stroke-linecap="round" stroke-linejoin="round" stroke-width=".5"/><line x1="88.988" y1="117.499" x2="90.224" y2="117.738" fill="none" stroke="#231f20" stroke-linecap="round" stroke-linejoin="round" stroke-width=".5"/><line x1="89.161" y1="116.848" x2="90.397" y2="117.087" fill="none" stroke="#231f20" stroke-linecap="round" stroke-linejoin="round" stroke-width=".5"/><ellipse cx="77.636" cy="129.849" rx="1.756" ry=".597" transform="translate(-65.048 180.14) rotate(-78.541)" fill="none" stroke="#231f20" stroke-linecap="round" stroke-linejoin="round" stroke-width=".5"/><circle cx="199.076" cy="97.096" r=".889" fill="none" stroke="#231f20" stroke-linecap="round" stroke-linejoin="round" stroke-width=".5"/><circle cx="167.564" cy="90.806" r=".889" fill="none" stroke="#231f20" stroke-linecap="round" stroke-linejoin="round" stroke-width=".5"/><path d="M136.497,85.342c-.491,0-.889-.398-.889-.889s.398-.889.889-.889c.123,0,.24.025.346.07" fill="none" stroke="#231f20" stroke-linecap="round" stroke-linejoin="round" stroke-width=".5"/><line x1="69.241" y1="145.441" x2="71.7" y2="138.385" fill="none" stroke="#231f20" stroke-linecap="round" stroke-linejoin="round" stroke-width=".5"/><polyline points="117.178 150.962 117.178 154.79 116.611 155.996 116.611 156.775 112.428 165.922 112.02 162.523 110.709 165.529 110.453 163.866" fill="none" stroke="#231f20" stroke-linecap="round" stroke-linejoin="round" stroke-width=".5"/><path d="M121.95,153.284l-1.687-.303v-2.824s-.022-1.557.973-1.406c0,0,.67.022.67,1.384l.043,3.148Z" fill="none" stroke="#231f20" stroke-linecap="round" stroke-linejoin="round" stroke-width=".4"/><path d="M121.193,148.579s.281-3.568,1.925-2.833" fill="none" stroke="#231f20" stroke-linecap="round" stroke-linejoin="round" stroke-width=".4"/><ellipse cx="122.695" cy="148.164" rx="2.465" ry=".613" transform="translate(-45.067 242.305) rotate(-79.671)" fill="#d2d3d4" stroke="#231f20" stroke-miterlimit="10" stroke-width=".4"/><path d="M122.055,153.252l2.012-5.171v-.542c.339-2.415-.903-2.505-.903-2.505-.7-.158-1.261.231-1.261.231l.194-.708,1.609.342s.844.719.396,3.088" fill="#231f20" stroke="#231f20" stroke-linecap="round" stroke-linejoin="round" stroke-width=".522"/><path d="M120.052,156.075s1.281.5,1,1.656l-5.123,14.213s-.25,1.531-2.343,1.25c0,0-1.905-.469-1.406-1.937s4.717-11.964,4.717-11.964l2.249.469,1.238-3.289.114,2.465.477.375.102.386-.193,1.295.25.114-1.922,5.413" fill="none" stroke="#231f20" stroke-linecap="round" stroke-linejoin="round" stroke-width=".4"/><polygon points="118.027 166.36 125.906 168.058 125.906 170.204 118.027 168.506 118.027 166.36" fill="none" stroke="#231f20" stroke-linecap="round" stroke-linejoin="round" stroke-width=".4"/><polyline points="125.938 167.769 128.596 160.755 128.834 162.316 125.906 170.204" fill="none" stroke="#231f20" stroke-linecap="round" stroke-linejoin="round" stroke-width=".4"/><line x1="120.974" y1="162.106" x2="127.442" y2="163.46" fill="none" stroke="#231f20" stroke-linecap="round" stroke-linejoin="round" stroke-width=".4"/><polyline points="123.263 160.808 127.556 161.667 127.556 162.544 121.432 161.285 121.432 160.408 122.275 160.581" fill="none" stroke="#231f20" stroke-linecap="round" stroke-linejoin="round" stroke-width=".4"/><polyline points="127.556 161.667 128.014 160.446 121.851 159.186 121.432 160.408" fill="none" stroke="#231f20" stroke-linecap="round" stroke-linejoin="round" stroke-width=".4"/><ellipse cx="122.939" cy="160.293" rx=".668" ry=".439" fill="#fff" stroke="#231f20" stroke-linecap="round" stroke-linejoin="round" stroke-width=".38"/><path d="M124.678,159.949l-.09-3.177.496-.451.518.383.135,3.447s.045.519-.563.518c-.51,0-.496-.721-.496-.721Z" fill="#fff" stroke="#231f20" stroke-linecap="round" stroke-linejoin="round" stroke-width=".38"/><path d="M113.433,170.752l-.112-4.745.617-1.47.645,1.369.168,5.149s.056.775-.701.774c-.635,0-.617-1.077-.617-1.077Z" fill="#fff" stroke="#231f20" stroke-linecap="round" stroke-linejoin="round" stroke-width=".518"/><path d="M118.52,155.703l.004-3.491.617-1.47.645,1.369.052,3.594s.056.775-.701.774c-.635,0-.617-.777-.617-.777Z" fill="#fff" stroke="#231f20" stroke-linecap="round" stroke-linejoin="round" stroke-width=".518"/><path d="M118.62,156.593l-1.458-.3.343.429-.515,1.544s-.021.515-1.008.15" fill="#fff" stroke="#231f20" stroke-linecap="round" stroke-linejoin="round" stroke-width=".518"/><polyline points="114.76 168.881 116.969 163.091 117.004 160.929 117.24 160.479 119.071 160.818 119.054 159.765" fill="#fff" stroke="#231f20" stroke-linecap="round" stroke-linejoin="round" stroke-width=".518"/><line x1="118.781" y1="163.525" x2="117.171" y2="163.195" fill="#fff" stroke="#231f20" stroke-linecap="round" stroke-linejoin="round" stroke-width=".518"/><line x1="119.832" y1="160.624" x2="119.191" y2="160.484" fill="#fff" stroke="#231f20" stroke-linecap="round" stroke-linejoin="round" stroke-width=".518"/><line x1="115.161" y1="163.322" x2="113.96" y2="163.051" fill="#fff" stroke="#231f20" stroke-linecap="round" stroke-linejoin="round" stroke-width=".518"/><line x1="116.026" y1="161.12" x2="114.845" y2="160.869" fill="#fff" stroke="#231f20" stroke-linecap="round" stroke-linejoin="round" stroke-width=".518"/><line x1="97.409" y1="196.738" x2="134.089" y2="204.216" fill="none" stroke="#231f20" stroke-linecap="round" stroke-linejoin="round" stroke-width=".5"/><path d="M99.231,190.812l.921.149s.505.089.297.683-.624,1.723-.624,1.723c0,0-.178.416-.802.327l-.624-.089" fill="none" stroke="#231f20" stroke-linecap="round" stroke-linejoin="round" stroke-width=".5"/><polyline points="98.755 193.782 98.785 196.931 99.914 193.931 99.897 193.262" fill="none" stroke="#231f20" stroke-linecap="round" stroke-linejoin="round" stroke-width=".5"/><polyline points="126.815 202.763 127.238 201.704 134.648 203.257" fill="none" stroke="#231f20" stroke-linecap="round" stroke-linejoin="round" stroke-width=".5"/><polyline points="103.123 205.385 103.879 205.515 104.232 204.951 106.138 205.303 106.984 205.021 127.873 209.467 129.144 210.243" fill="none" stroke="#231f20" stroke-linecap="round" stroke-linejoin="round" stroke-width=".5"/><line x1="115.414" y1="206.809" x2="116.514" y2="203.924" fill="none" stroke="#231f20" stroke-linecap="round" stroke-linejoin="round" stroke-width=".5"/><line x1="123.2" y1="208.504" x2="124.3" y2="205.527" fill="none" stroke="#231f20" stroke-linecap="round" stroke-linejoin="round" stroke-width=".5"/><line x1="124.391" y1="208.733" x2="125.674" y2="205.801" fill="none" stroke="#231f20" stroke-linecap="round" stroke-linejoin="round" stroke-width=".5"/><polyline points="114.773 206.58 114.727 204.565 102.728 202.092 102.774 204.748" fill="none" stroke="#231f20" stroke-linecap="round" stroke-linejoin="round" stroke-width=".5"/><path d="M24.725,76.656l4.741-12.233,32.887,6.93-20.084,54.38s-.47,3.289-5.638,2.349-28.071-5.638-28.071-5.638c0,0-4.253-.836-2.936-3.993,1.133-2.717,1.403-2.508,1.403-2.508l3.061.629,11.69-31.567" fill="none" stroke="#231f20" stroke-linecap="round" stroke-linejoin="round" stroke-width=".5"/><path d="M27.473,90.926l-9.267,24.803s-.545,1.545,1.545,1.999,14.537,2.907,14.537,2.907c0,0,1.454.545,2.271-1.272s9.267-24.985,9.267-24.985c0,0,1.181-1.635-1.817-2.18s-14.264-2.816-14.264-2.816c0,0-1.999-.091-2.271,1.545Z" fill="none" stroke="#231f20" stroke-linecap="round" stroke-linejoin="round" stroke-width=".5"/><path d="M51.992,99.272s-.299,1.709-1.709,2.008-3.034.598-3.034.598c0,0-.812-.085-1.196,1.111s-1.624,4.529-1.624,4.529c0,0-.342.855.214,1.239s2.222,1.709,2.222,1.709c0,0,.812.427.513,1.367" fill="none" stroke="#231f20" stroke-linecap="round" stroke-linejoin="round" stroke-width=".5"/><path d="M22.735,78.503l5.578,1.208s.782-.107.497.782-2.593,7.887-2.593,7.887c0,0,.604-2.949-2.736-3.624s-3.624,2.345-3.624,2.345l.071-1.599,2.807-6.999Z" fill="none" stroke="#231f20" stroke-linecap="round" stroke-linejoin="round" stroke-width=".5"/><path d="M19.858,87.1s.036.888.959.853l5.649,1.172s3.517-9.45,3.517-9.912-1.03-.711-1.03-.711l-3.268-.639-.355.995" fill="none" stroke="#231f20" stroke-linecap="round" stroke-linejoin="round" stroke-width=".5"/><ellipse cx="24.742" cy="82.215" rx="2.327" ry="1.865" fill="none" stroke="#231f20" stroke-linecap="round" stroke-linejoin="round" stroke-width=".5"/><polyline points="23.162 78.574 23.872 76.585 24.618 76.727 24.76 78.787" fill="none" stroke="#231f20" stroke-linecap="round" stroke-linejoin="round" stroke-width=".5"/><path d="M7.765,122.211s.132,1.453,1.409.352l.044,4.756.528.044.881-2.026-.044-2.466" fill="none" stroke="#231f20" stroke-linecap="round" stroke-linejoin="round" stroke-width=".5"/><line x1="10.627" y1="125.338" x2="38.897" y2="131.106" fill="none" stroke="#231f20" stroke-linecap="round" stroke-linejoin="round" stroke-width=".5"/><path d="M9.923,127.011l1.189.22s.705-.132.572.528-.352.749-.352.749l.044,1.233,26.024,5.328-.132-1.189.616-1.277.793.088" fill="none" stroke="#231f20" stroke-linecap="round" stroke-linejoin="round" stroke-width=".5"/><path d="M38.853,128.2l.264,5.02s.088,1.057,1.849.396l-.176-5.812" fill="none" stroke="#231f20" stroke-linecap="round" stroke-linejoin="round" stroke-width=".5"/><line x1="13.842" y1="123.576" x2="13.93" y2="126.086" fill="none" stroke="#231f20" stroke-linecap="round" stroke-linejoin="round" stroke-width=".5"/><path d="M42.464,125.205l.176,8.719-1.277.661s-1.233.44-1.233-.705" fill="none" stroke="#231f20" stroke-linecap="round" stroke-linejoin="round" stroke-width=".5"/><polyline points="42.816 132.999 43.52 131.37 43.476 128.684 44.841 125.382 44.665 119.877 43.036 119.481 44.005 117.059 45.194 117.323" fill="none" stroke="#231f20" stroke-linecap="round" stroke-linejoin="round" stroke-width=".5"/><polyline points="43.52 131.37 54.689 101.992 55.501 101.089 60.102 88.729 60.012 86.834 61.546 83.225 61.275 74.654" fill="none" stroke="#231f20" stroke-linecap="round" stroke-linejoin="round" stroke-width=".5"/><polyline points="62.352 71.352 62.594 79.452 61.605 82.418" fill="none" stroke="#231f20" stroke-linecap="round" stroke-linejoin="round" stroke-width=".5"/><path d="M58.181,82.027c-1.554-.278-.694-1.693-.694-1.693,0,0,1.027-1.027.056-2.415s-.805-2.276-.805-2.276l1.138-3.192s.416-1.083,1.277-1.055,1.221.305,1.221.305c0,0,.833.583.472,1.527s-.638,1.693-.638,1.693l.749.139" fill="none" stroke="#231f20" stroke-linecap="round" stroke-linejoin="round" stroke-width=".5"/><ellipse cx="59.444" cy="72.881" rx=".736" ry=".541" fill="none" stroke="#231f20" stroke-linecap="round" stroke-linejoin="round" stroke-width=".5"/><path d="M292.025,175.903c6.224,3.08,14.922-1.805,19.427-10.91,4.505-9.105,3.111-18.983-3.113-22.062l-1.516-1.348s-6.216-4.645-16.189,4.235c0,0-8.265,7.65-7.514,17.008,0,0-.068,3.757.82,6.557l1.025.546.615,2.186s3.055,3.017,5.854,3.901l.591-.114Z" fill="#d2d3d4" stroke-width="0"/><polygon points="277.211 167.78 282.943 171.184 283.122 189.545 284.734 193.396 284.555 211.13 277.121 206.741 277.211 167.78" fill="none" stroke="#231f20" stroke-linecap="round" stroke-linejoin="round" stroke-width=".5"/><path d="M284.555,211.13l3.672-1.523-.09-1.791,26.78-11.196.179,1.881,3.762-1.612-.179-39.05s-5.016,1.791-3.762,7.165c0,0,4.837,8.24-2.239,19.704l.09,6.18-22.033,9.404-.09-5.822-4.568-6.001-2.956,1.075,1.497-1.878" fill="none" stroke="#231f20" stroke-linecap="round" stroke-linejoin="round" stroke-width=".5"/><line x1="284.734" y1="193.396" x2="288.585" y2="191.873" fill="none" stroke="#231f20" stroke-linecap="round" stroke-linejoin="round" stroke-width=".5"/><path d="M277.211,167.78s1.523-.806,2.777-.358l4.766,2.617" fill="none" stroke="#231f20" stroke-linecap="round" stroke-linejoin="round" stroke-width=".5"/><path d="M282.943,171.184s.922-1.76,1.913-1.111c0,0,1.196,1.299.068,5.297,0,0-1.215,7.827-.304,12.296l1.458.803" fill="none" stroke="#231f20" stroke-linecap="round" stroke-linejoin="round" stroke-width=".5"/><line x1="318.679" y1="157.839" x2="314.416" y2="155.162" fill="none" stroke="#231f20" stroke-linecap="round" stroke-linejoin="round" stroke-width=".5"/><polyline points="312.678 184.708 310.571 183.525 310.63 189.753 312.768 190.888" fill="none" stroke="#231f20" stroke-linecap="round" stroke-linejoin="round" stroke-width=".5"/><polyline points="290.764 198.15 292.673 197.339 292.558 194.504 289.606 192.999" fill="none" stroke="#231f20" stroke-linecap="round" stroke-linejoin="round" stroke-width=".5"/><line x1="312.464" y1="163.747" x2="315.046" y2="165.377" fill="none" stroke="#231f20" stroke-linecap="round" stroke-linejoin="round" stroke-width=".5"/><path d="M309.347,143.335l-2.6-1.841c-2.523-1.166-5.768-1.738-9.403-.18-7.839,3.359-12.153,11.806-12.153,11.806,0,0-4.179,8.326-1.251,16.454" fill="none" stroke="#231f20" stroke-linecap="round" stroke-linejoin="round" stroke-width=".5"/><polygon points="294.568 197.179 296.587 180.209 296.852 178.965 297.629 177.799 301.03 176.439 300.642 178.091 306.228 192.417 294.568 197.179" fill="#fff" stroke="#231f20" stroke-linecap="round" stroke-linejoin="round" stroke-width=".464"/><line x1="296.999" y1="179.153" x2="300.598" y2="177.724" fill="none" stroke="#231f20" stroke-linecap="round" stroke-linejoin="round" stroke-width=".464"/><line x1="291.668" y1="193.859" x2="304.651" y2="188.41" fill="none" stroke="#231f20" stroke-linecap="round" stroke-linejoin="round" stroke-width=".464"/><line x1="315.097" y1="198.501" x2="313.443" y2="197.418" fill="#fff" stroke="#231f20" stroke-linecap="round" stroke-linejoin="round" stroke-width=".464"/><ellipse cx="300.319" cy="159.348" rx="18.394" ry="12.574" transform="translate(24.316 357.856) rotate(-63.675)" fill="none" stroke="#231f20" stroke-linecap="round" stroke-linejoin="round" stroke-width=".464"/><line x1="300.666" y1="143.976" x2="300.312" y2="157.409" fill="#fff" stroke="#231f20" stroke-linecap="round" stroke-linejoin="round" stroke-width=".75"/><line x1="294.446" y1="153.158" x2="306.305" y2="148.679" fill="#fff" stroke="#231f20" stroke-linecap="round" stroke-linejoin="round" stroke-width=".75"/><path d="M285.607,172.077s3.884,4.441,9.872,4.707" fill="none" stroke="#231f20" stroke-linecap="round" stroke-linejoin="round" stroke-width=".5"/><polyline points="295.894 186.193 294.326 186.89 293.498 178.788 298.856 176.523" fill="none" stroke="#231f20" stroke-linecap="round" stroke-linejoin="round" stroke-width=".464"/><polyline points="291.799 193.206 286.877 181.793 286.746 175.347 285.222 174.432" fill="none" stroke="#231f20" stroke-linecap="round" stroke-linejoin="round" stroke-width=".464"/><line x1="284.917" y1="176.392" x2="288.663" y2="174.824" fill="none" stroke="#231f20" stroke-linecap="round" stroke-linejoin="round" stroke-width=".464"/><line x1="285.134" y1="174.606" x2="287.269" y2="173.735" fill="none" stroke="#231f20" stroke-linecap="round" stroke-linejoin="round" stroke-width=".464"/><polyline points="304.606 173.561 304.562 174.345 302.21 182.011" fill="none" stroke="#231f20" stroke-linecap="round" stroke-linejoin="round" stroke-width=".464"/><path d="M302.776,183.623s5.184-5.162,5.881-13.808" fill="none" stroke="#231f20" stroke-linecap="round" stroke-linejoin="round" stroke-width=".464"/><path d="M311.009,166.264l.653.392s1.742,10.541-7.405,20.473" fill="none" stroke="#231f20" stroke-linecap="round" stroke-linejoin="round" stroke-width=".464"/><path d="M310.571,183.525s-2.211,3.665-3.936,5.421l.04,2.421,3.955-1.614" fill="none" stroke="#231f20" stroke-linecap="round" stroke-linejoin="round" stroke-width=".5"/><line x1="304.344" y1="187.478" x2="306.635" y2="188.946" fill="none" stroke="#231f20" stroke-linecap="round" stroke-linejoin="round" stroke-width=".5"/><polyline points="24.683 133.989 25.466 155.125 121.231 171.825 121.492 186.699" fill="none" stroke="#fff" stroke-linecap="round" stroke-linejoin="round" stroke-width="2"/><line x1="24.683" y1="133.989" x2="24.721" y2="135.016" fill="none" stroke="#231f20" stroke-linecap="round" stroke-linejoin="round" stroke-width=".5"/><line x1="24.799" y1="137.137" x2="25.388" y2="153.038" fill="none" stroke="#231f20" stroke-dasharray="0 0 2.122 2.122" stroke-linecap="round" stroke-linejoin="round" stroke-width=".5"/><polyline points="25.427 154.098 25.466 155.125 26.478 155.302" fill="none" stroke="#231f20" stroke-linecap="round" stroke-linejoin="round" stroke-width=".5"/><line x1="28.473" y1="155.65" x2="119.221" y2="171.475" fill="none" stroke="#231f20" stroke-dasharray="0 0 2.025 2.025" stroke-linecap="round" stroke-linejoin="round" stroke-width=".5"/><polyline points="120.218 171.649 121.231 171.825 121.249 172.853" fill="none" stroke="#231f20" stroke-linecap="round" stroke-linejoin="round" stroke-width=".5"/><line x1="121.281" y1="174.684" x2="121.457" y2="184.756" fill="none" stroke="#231f20" stroke-dasharray="0 0 1.831 1.831" stroke-linecap="round" stroke-linejoin="round" stroke-width=".5"/><line x1="121.473" y1="185.671" x2="121.492" y2="186.699" fill="none" stroke="#231f20" stroke-linecap="round" stroke-linejoin="round" stroke-width=".5"/><polyline points="220.626 128.563 126.098 148.007 214.658 139.536" fill="#fff" stroke="#231f20" stroke-miterlimit="10" stroke-width=".5"/><path d="M54.944,46.467c0,7.593-6.246,13.745-13.95,13.745s-13.953-6.152-13.953-13.745,6.246-13.755,13.953-13.755,13.95,6.159,13.95,13.755" fill="#231f20" stroke="#fff" stroke-miterlimit="10" stroke-width="1.5"/><path d="M42.591,53.509h-1.846v-11.762c-.444.424-1.027.848-1.749,1.271s-1.369.742-1.943.954v-1.784c1.032-.485,1.935-1.073,2.707-1.764s1.319-1.36,1.641-2.01h1.189v15.094Z" fill="#fff" stroke-width="0"/><polygon points="41.463 60.962 54.038 74.332 47.761 73.22 47.973 94.28 35.596 92.091 35.384 71.03 29.108 69.92 41.463 60.962" fill="#231f20" stroke="#fff" stroke-linecap="round" stroke-linejoin="round"/><polygon points="76.073 123.173 77.102 121.433 80.262 131.343 76.073 123.173" fill="#fff" stroke-width="0"/><path d="M239.668,175.009c6.224,3.08,14.922-1.805,19.427-10.91,3.747-7.572,3.413-15.679-.385-19.965,0,0-1.387-2.346-4.383-3.544,0,0-5.393-3.521-13.707,2.547,0,0-5.019,3.97-7.565,9.138,0,0-.113,3.091-.709,4.283,0,0-1.009,9.401-.183,12.152l1.422.871,3.393,4.586,2.692.842Z" fill="#d2d3d4" stroke-width="0"/><polygon points="224.673 148.874 230.406 152.277 230.585 170.638 232.197 174.489 232.018 192.223 224.584 187.834 224.673 148.874" fill="none" stroke="#231f20" stroke-linecap="round" stroke-linejoin="round" stroke-width=".5"/><path d="M232.018,192.223l3.672-1.523-.09-1.791,26.78-11.196.179,1.881,3.762-1.612-.179-39.05s-5.016,1.791-3.762,7.165c0,0,4.837,8.24-2.239,19.704l.09,6.18-22.033,9.404-.09-5.822-4.568-6.001-2.956,1.075,1.497-1.878" fill="none" stroke="#231f20" stroke-linecap="round" stroke-linejoin="round" stroke-width=".5"/><line x1="232.197" y1="174.489" x2="236.048" y2="172.967" fill="none" stroke="#231f20" stroke-linecap="round" stroke-linejoin="round" stroke-width=".5"/><path d="M224.673,148.874s1.523-.806,2.777-.358l4.766,2.617" fill="none" stroke="#231f20" stroke-linecap="round" stroke-linejoin="round" stroke-width=".5"/><path d="M230.406,152.277s.922-1.76,1.913-1.111c0,0,1.196,1.299.068,5.297,0,0-1.215,7.827-.304,12.296l1.458.803" fill="none" stroke="#231f20" stroke-linecap="round" stroke-linejoin="round" stroke-width=".5"/><path d="M266.142,138.932l-7.11-4.464s-4.701,1.94-4.253,6.343" fill="none" stroke="#231f20" stroke-linecap="round" stroke-linejoin="round" stroke-width=".5"/><polyline points="260.141 165.801 258.034 164.619 258.093 170.846 260.231 171.981" fill="none" stroke="#231f20" stroke-linecap="round" stroke-linejoin="round" stroke-width=".5"/><polyline points="254.098 170.039 254.139 172.461 258.093 170.846" fill="none" stroke="#231f20" stroke-linecap="round" stroke-linejoin="round" stroke-width=".5"/><polyline points="238.227 179.243 240.136 178.433 240.021 175.597 237.069 174.092" fill="none" stroke="#231f20" stroke-linecap="round" stroke-linejoin="round" stroke-width=".5"/><path d="M232.902,152.274s4.314-8.447,12.153-11.806c8.507-3.646,14.872,4.372,14.872,4.372l2.581,1.63" fill="none" stroke="#231f20" stroke-linecap="round" stroke-linejoin="round" stroke-width=".5"/><ellipse cx="248.011" cy="158.744" rx="18.394" ry="12.574" transform="translate(-4.254 310.636) rotate(-63.675)" fill="none" stroke="#231f20" stroke-linecap="round" stroke-linejoin="round" stroke-width=".464"/><polygon points="242.031 178.272 245.653 161.247 245.917 160.004 246.695 158.838 250.096 157.477 249.707 159.129 253.691 173.511 242.031 178.272" fill="#fff" stroke="#231f20" stroke-linecap="round" stroke-linejoin="round" stroke-width=".464"/><line x1="245.943" y1="160.334" x2="249.542" y2="158.905" fill="none" stroke="#231f20" stroke-linecap="round" stroke-linejoin="round" stroke-width=".464"/><line x1="243.19" y1="173.725" x2="252.506" y2="169.808" fill="none" stroke="#231f20" stroke-linecap="round" stroke-linejoin="round" stroke-width=".464"/><line x1="262.559" y1="179.594" x2="260.906" y2="178.512" fill="#fff" stroke="#231f20" stroke-linecap="round" stroke-linejoin="round" stroke-width=".464"/><line x1="248.357" y1="143.372" x2="248.003" y2="156.806" fill="#fff" stroke="#231f20" stroke-linecap="round" stroke-linejoin="round" stroke-width=".75"/><line x1="242.138" y1="152.554" x2="253.997" y2="148.075" fill="#fff" stroke="#231f20" stroke-linecap="round" stroke-linejoin="round" stroke-width=".75"/><polygon points="243.231 128.871 236.496 129.738 230.429 133.205 230.162 134.872 239.497 132.771 243.364 129.871 243.231 128.871" fill="#231f20" stroke-width="0"/><path d="M242.322,130.541c-2.296,2.87-2.915,4.807-2.856,6.633l-12.988,4.702s-1.845-8.519,10.143-12.881l3.998-1.47,6.455-2.35c8.797-2.949,13.975,2.957,13.975,2.957l6.763-2.461-5.141,13.847-22.456-3.744,7.651-2.783s-7.733-6.137-16.922.372" fill="#231f20" stroke="#fff" stroke-linecap="round" stroke-linejoin="round" stroke-width=".5"/><polygon points="297.257 111.365 287.342 125.994 292.191 123.396 291.651 141.249 301.213 136.126 301.754 118.27 306.601 115.672 297.257 111.365" fill="#231f20" stroke="#fff" stroke-linecap="round" stroke-linejoin="round" stroke-width=".75"/><circle cx="274.25" cy="162.735" r="63.455" fill="none" stroke="#231f20" stroke-miterlimit="10" stroke-width=".691"/><path d="M267.902,107.918c0,7.593-6.246,13.745-13.95,13.745s-13.953-6.152-13.953-13.745,6.246-13.755,13.953-13.755,13.95,6.159,13.95,13.755" fill="#231f20" stroke="#fff" stroke-miterlimit="10" stroke-width="1.5"/><path d="M258.897,112.585v1.774h-9.937c-.014-.444.059-.872.216-1.282.253-.677.657-1.343,1.215-2,.557-.656,1.362-1.415,2.415-2.276,1.634-1.34,2.737-2.401,3.312-3.184s.861-1.523.861-2.22c0-.731-.262-1.348-.784-1.851-.523-.502-1.205-.753-2.046-.753-.889,0-1.6.267-2.133.8s-.803,1.271-.81,2.215l-1.897-.195c.13-1.415.619-2.493,1.467-3.235.848-.741,1.985-1.112,3.414-1.112,1.442,0,2.584.4,3.425,1.2s1.262,1.791,1.262,2.974c0,.602-.123,1.193-.369,1.774s-.655,1.193-1.226,1.835c-.571.643-1.52,1.524-2.846,2.646-1.107.93-1.818,1.561-2.133,1.892s-.574.665-.779,1h7.373Z" fill="#fff" stroke-width="0"/><path d="M333.158,127.711c0,7.593-6.246,13.745-13.95,13.745s-13.953-6.152-13.953-13.745,6.246-13.755,13.953-13.755,13.95,6.159,13.95,13.755" fill="#231f20" stroke="#fff" stroke-miterlimit="10" stroke-width="1.5"/><path d="M314.463,130.184l1.846-.246c.212,1.046.572,1.799,1.082,2.261.509.461,1.129.692,1.861.692.867,0,1.601-.301,2.199-.902.598-.602.896-1.347.896-2.235,0-.848-.276-1.546-.83-2.097-.554-.55-1.258-.825-2.112-.825-.349,0-.782.068-1.302.205l.205-1.62c.123.014.222.021.297.021.786,0,1.494-.205,2.123-.615s.943-1.042.943-1.897c0-.677-.229-1.237-.688-1.682s-1.049-.667-1.773-.667c-.719,0-1.316.226-1.795.677s-.786,1.128-.923,2.03l-1.846-.328c.226-1.237.738-2.196,1.538-2.876s1.795-1.021,2.984-1.021c.82,0,1.575.176,2.266.528s1.219.832,1.584,1.44.549,1.254.549,1.938c0,.649-.174,1.241-.523,1.774-.348.533-.864.957-1.548,1.271.889.205,1.579.631,2.071,1.276.492.646.738,1.455.738,2.425,0,1.312-.479,2.425-1.436,3.337-.957.913-2.167,1.369-3.63,1.369-1.319,0-2.415-.393-3.286-1.179-.872-.786-1.369-1.805-1.492-3.056Z" fill="#fff" stroke-width="0"/><polygon points="174.135 104.267 173.119 104.034 171.55 108.711 172.625 108.943 174.135 104.267" fill="none" stroke="#231f20" stroke-linecap="round" stroke-linejoin="round" stroke-width=".5"/><polyline points="171.55 108.914 171.608 110.308 172.734 110.555 172.654 109.001" fill="none" stroke="#231f20" stroke-linecap="round" stroke-linejoin="round" stroke-width=".5"/><path d="M204.868,111.263s-1.135.077-1.368.903c0,0-.335.852.852.723,0,0,1.187,0,1.548-.877,0,0,.155-.929-1.032-.748Z" fill="none" stroke="#231f20" stroke-linecap="round" stroke-linejoin="round" stroke-width=".5"/><path d="M201.722,114.738l.075,2.133s1.004.427,1.205-.276l.427-.954-.025-1.686" fill="none" stroke="#231f20" stroke-linecap="round" stroke-linejoin="round" stroke-width=".5"/><polyline points="203.604 115.767 205.035 116.018 205.938 113.533 205.888 112.128" fill="none" stroke="#231f20" stroke-linecap="round" stroke-linejoin="round" stroke-width=".5"/><polyline points="204.533 112.981 204.558 115.164 205.261 115.29" fill="none" stroke="#231f20" stroke-linecap="round" stroke-linejoin="round" stroke-width=".5"/><path d="M204.633,111.111c.108-.888-.173-.953-.173-.953l-.714-.13-.123,1.505" fill="none" stroke="#231f20" stroke-linecap="round" stroke-linejoin="round" stroke-width=".5"/><path d="M203.694,112.925l-.654,2.042s-.099.694-1.209.278" fill="none" stroke="#231f20" stroke-linecap="round" stroke-linejoin="round" stroke-width=".5"/><path d="M137.294,99.284c-1.14-.534-.675-1.443-.675-1.443.442-.885,1.629-.279,1.629-.279,0,0,1.304.349.954,1.536,0,0-.07,1.047-1.909.186Z" fill="none" stroke="#231f20" stroke-linecap="round" stroke-linejoin="round" stroke-width=".5"/><polyline points="139.378 98.149 139.741 97.205 141.101 97.454 140.999 99.06 139.408 104.012" fill="none" stroke="#231f20" stroke-linecap="round" stroke-linejoin="round" stroke-width=".5"/><polyline points="139.472 99.123 139.927 99.23 139.438 100.418 138.577 100.231 137.972 102.117 139.348 102.375" fill="none" stroke="#231f20" stroke-linecap="round" stroke-linejoin="round" stroke-width=".5"/><polyline points="138.808 100.423 136.987 100.085 137.003 101.358 136.6 101.277 136.584 102.003 137.793 102.228" fill="none" stroke="#231f20" stroke-linecap="round" stroke-linejoin="round" stroke-width=".5"/><path d="M138.373,100.681l-.371,1.064s-.338.516,1.358.703l.048,1.563-1.052-.107s-.435-.016-.435-.435-.032-1.434-.032-1.434" fill="none" stroke="#231f20" stroke-linecap="round" stroke-linejoin="round" stroke-width=".5"/><polygon points="168.17 108.152 169.459 108.512 169.459 109.866 168.17 109.507 168.17 108.152" fill="none" stroke="#231f20" stroke-linecap="round" stroke-linejoin="round" stroke-width=".5"/><polyline points="168.203 108.055 169.933 103.354 171.157 103.664 169.459 108.512" fill="none" stroke="#231f20" stroke-linecap="round" stroke-linejoin="round" stroke-width=".5"/><polyline points="169.459 109.866 171.108 105.149 171.173 103.729" fill="none" stroke="#231f20" stroke-linecap="round" stroke-linejoin="round" stroke-width=".5"/><polyline points="174.135 104.267 174.298 105.861 172.826 110.462" fill="none" stroke="#231f20" stroke-linecap="round" stroke-linejoin="round" stroke-width=".5"/></svg>