<?xml version="1.0" encoding="UTF-8"?><svg xmlns="http://www.w3.org/2000/svg" width="238.11" height="220.34" xmlns:xlink="http://www.w3.org/1999/xlink" viewBox="0 0 238.11 220.34"><defs><clipPath id="c"><circle cx="53.86" cy="52.2" r="42.17" fill="none" stroke-width="0"/></clipPath><clipPath id="d"><circle cx="117.99" cy="188.62" r="29.73" fill="none" stroke-width="0"/></clipPath></defs><g id="a"><line x1="220.32" y1="17.6" x2="69.41" y2="17.6" fill="#fff" stroke="#231f20" stroke-linecap="round" stroke-linejoin="round"/><line x1="217.95" y1="191.79" x2="70.15" y2="191.79" fill="#fff" stroke="#231f20" stroke-linecap="round" stroke-linejoin="round" stroke-width=".5"/><path d="m200.69,35.57l1.64,6.16v5.66l.64-.17v4.89l-.98.59v1.56l2.44-.98v-2.93l1.56-7.04c1.86-6.75,0-7.24,0-7.24-.78.68-.39,4.2-.39,4.2l-.78,3.72v-22.88l-2.35,2.54v6.7l-1.04.89v-.55h-.7" fill="none" stroke="#231f20" stroke-linecap="round" stroke-linejoin="round" stroke-width=".5"/><polyline points="204.83 21.12 214.31 21.12 214.31 35.74" fill="none" stroke="#231f20" stroke-linecap="round" stroke-linejoin="round" stroke-width=".5"/><path d="m206,36.08h9.72s.59.11.52,1.74.37,2.6-.3,4.83l-2.15,7.8v2.9l-9.35-.05" fill="none" stroke="#231f20" stroke-linecap="round" stroke-linejoin="round" stroke-width=".5"/><polyline points="201.99 54.27 211.66 54.36 213.79 53.34" fill="none" stroke="#231f20" stroke-linecap="round" stroke-linejoin="round" stroke-width=".5"/><polygon points="206.67 24.49 212.94 24.49 209.96 31.22 206.67 24.49" fill="#231f20" stroke-width="0"/><polygon points="95.88 24.49 102.15 24.49 99.17 31.22 95.88 24.49" fill="#231f20" stroke-width="0"/><path d="m202.97,54.37l-2.41,106.43,5.04,4.38s.99,4.43-1.75,16.76l.66.93s2.96-.11,3.51-3.07c0,0,1.32-6.58,1.53-14.58l2.52-111.03" fill="none" stroke="#231f20" stroke-miterlimit="10" stroke-width=".5"/><path d="m94.72,35.47l-.25-14.61,9.15-.08.59,22.25-.84-3.53s.59-3.69-.76-4.11h-9.32s-.92,1.26-.08,6.63l1.6,8.14v2.94h9.4v-3.11l-1.6-8.06s-.5-2.1,0-5.46l.17-.93" fill="none" stroke="#231f20" stroke-linecap="round" stroke-linejoin="round" stroke-width=".5"/><polyline points="103.62 20.78 105.86 22.89 105.86 23.68 107.32 25.28" fill="none" stroke="#231f20" stroke-miterlimit="10" stroke-width=".5"/><polyline points="94.8 53.1 96.28 54.34 105.09 54.41 104.2 53.1" fill="none" stroke="#231f20" stroke-linecap="round" stroke-linejoin="round" stroke-width=".5"/><path d="m96.2,53.96l1.14,105.72,5.51,5.84s-.08,11.76,1.54,15.89l1.38,1.22h2.76v-.89s-1.14-.24-1.46-2.92-.57-14.76-.65-20.92-1.32-103.56-1.32-103.56" fill="none" stroke="#231f20" stroke-linecap="round" stroke-linejoin="round" stroke-width=".5"/><path d="m203.8,21.97h-94.15c-2.16-.08-2.24,2-2.24,2v2.56l1.51,160.3s-.44,2.41,1.85,2.35,90.89-.02,90.89-.02c0,0,2.09,0,2.22-2.03l.26-22.8" fill="none" stroke="#231f20" stroke-linecap="round" stroke-linejoin="round" stroke-width=".5"/><path d="m70.14,189.48c17.32.09,31.08.16,31.08.16,0,0,2.09,0,2.22-2.03l.26-8.52" fill="none" stroke="#231f20" stroke-linecap="round" stroke-linejoin="round" stroke-width=".5"/><line x1="93.98" y1="21.97" x2="69.97" y2="21.97" fill="none" stroke="#231f20" stroke-linecap="round" stroke-linejoin="round" stroke-width=".5"/><polyline points="105.95 52.12 105.2 51.27 105.17 47.06 105.95 46.43" fill="none" stroke="#231f20" stroke-linecap="round" stroke-linejoin="round" stroke-width=".5"/><path d="m123.78,107.53c8.92-9.21,19.1-19.23,28.34-28.23,15.74-15.69,31.29-31.56,47.37-46.91.02-.02.06.01.04.04-15.47,15.96-31.46,31.39-47.27,47.01-9.08,9.11-19.22,19.47-28.48,28.09h0Z" fill="#231f20" stroke-width="0"/><path d="m123.78,92.7c8.12-8.41,17.41-17.54,25.84-25.75,14.35-14.31,28.52-28.81,43.2-42.78.02-.02.06.01.04.04-14.08,14.58-28.68,28.64-43.1,42.88-8.27,8.31-17.53,17.79-25.98,25.61h0Z" fill="#231f20" stroke-width="0"/><path d="m123.66,76.87c6.49-6.83,13.23-13.41,20.01-19.95,11.09-11.11,22.03-22.37,33.47-33.13.02-.02.06.01.04.04-10.84,11.36-22.19,22.21-33.38,33.22-6.59,6.66-13.29,13.63-20.13,19.83h0Z" fill="#231f20" stroke-width="0"/><path d="m124.08,61.09c5.91-6.48,12.49-12.29,18.58-18.6,6.1-6.3,12.32-12.48,18.74-18.44.02-.02.06.01.04.04-6.01,6.38-12.24,12.55-18.58,18.6-6.35,5.97-12.29,12.78-18.77,18.4h0Z" fill="#231f20" stroke-width="0"/><path d="m124.11,45.31c3.27-3.86,7.2-7.04,10.65-10.72,3.45-3.67,7.02-7.23,10.8-10.57.02-.02.06.01.04.04-3.36,3.76-6.95,7.3-10.65,10.72-3.7,3.35-7,7.53-10.84,10.53h0Z" fill="#231f20" stroke-width="0"/><path d="m123.85,29.63c.5-.89,1.25-1.53,2.05-2.12,1.13-1.19,2.07-2.66,3.57-3.42-.81,1.49-2.24,2.41-3.45,3.53-.59.74-1.31,1.72-2.17,2h0Z" fill="#231f20" stroke-width="0"/><path d="m123.78,122.6c8.92-9.21,19.1-19.23,28.34-28.23,15.74-15.69,31.29-31.56,47.37-46.91.02-.02.06.01.04.04-15.47,15.96-31.46,31.39-47.27,47.01-9.08,9.11-19.22,19.47-28.48,28.09h0Z" fill="#231f20" stroke-width="0"/><path d="m123.78,137.68c8.92-9.21,19.1-19.23,28.34-28.23,15.74-15.69,31.29-31.56,47.37-46.91.02-.02.06.01.04.04-15.47,15.96-31.46,31.39-47.27,47.01-9.08,9.11-19.22,19.47-28.48,28.09h0Z" fill="#231f20" stroke-width="0"/><path d="m123.78,152.75c8.92-9.21,19.1-19.23,28.34-28.23,15.74-15.69,31.29-31.56,47.37-46.91.02-.02.06.01.04.04-15.47,15.96-31.46,31.39-47.27,47.01-9.08,9.11-19.22,19.47-28.48,28.09h0Z" fill="#231f20" stroke-width="0"/><path d="m123.78,167.53c8.92-9.21,19.1-19.23,28.34-28.23,15.74-15.69,31.29-31.56,47.37-46.91.02-.02.06.01.04.04-15.47,15.96-31.46,31.39-47.27,47.01-9.08,9.11-19.22,19.47-28.48,28.09h0Z" fill="#231f20" stroke-width="0"/><path d="m123.78,181.72c8.92-9.21,19.1-19.23,28.34-28.23,15.74-15.69,31.29-31.56,47.37-46.91.02-.02.06.01.04.04-15.47,15.96-31.46,31.39-47.27,47.01-9.08,9.11-19.22,19.47-28.48,28.09h0Z" fill="#231f20" stroke-width="0"/><path d="m133.22,187.43c10.76-11.25,22.12-21.9,33.06-32.97,10.92-11.09,21.97-22.05,33.22-32.81.02-.02.06.01.04.04-10.84,11.17-21.89,22.13-33.06,32.97-11.15,10.78-21.97,22.34-33.25,32.77h0Z" fill="#231f20" stroke-width="0"/><path d="m148.36,187.24c6.19-6.54,12.65-12.83,19.13-19.07,10.6-10.62,21.05-21.4,32-31.67.02-.02.06.01.04.04-10.35,10.87-21.21,21.24-31.92,31.76-6.3,6.37-12.7,13.05-19.25,18.95h0Z" fill="#231f20" stroke-width="0"/><path d="m170.02,180.18c4.6-5.19,9.88-9.7,14.66-14.7,4.79-5,9.69-9.89,14.81-14.55.02-.02.06.01.04.04-4.7,5.09-9.62,9.95-14.66,14.7-5.04,4.67-9.67,10.19-14.85,14.51h0Z" fill="#231f20" stroke-width="0"/><path d="m176.9,188.09c3.46-4.05,7.58-7.42,11.22-11.29,3.64-3.86,7.4-7.61,11.37-11.13.02-.02.06.01.04.04-3.55,3.95-7.33,7.67-11.22,11.29-3.89,3.54-7.38,7.91-11.41,11.1h0Z" fill="#231f20" stroke-width="0"/><path d="m191.12,188.46c1.64-2.24,3.94-3.81,5.76-5.87,1.84-2.03,3.77-4.07,5.95-5.71-1.67,2.17-3.71,4.08-5.76,5.9-2.07,1.73-3.74,4.29-5.95,5.68h0Z" fill="#231f20" stroke-width="0"/><path d="m202.42,28.12h-.93s-.93-.19-.93,1.11v15.4s.12,1.61,1.61,1.67" fill="none" stroke="#231f20" stroke-linecap="round" stroke-linejoin="round" stroke-width=".5"/><path d="m123.5,30.76c9.42,9.23,19.67,19.76,28.88,29.31,16.05,16.28,32.29,32.37,48.01,48.98.02.02-.01.06-.04.03-16.32-16.01-32.12-32.54-48.11-48.89-9.32-9.39-19.91-19.88-28.75-29.44h0Z" fill="#231f20" stroke-width="0"/><path d="m131.43,23.34c8.5,8.3,17.73,17.78,26.02,26.39,14.46,14.65,29.11,29.13,43.23,44.12.02.02-.01.06-.04.03-14.73-14.39-28.94-29.3-43.33-44.02-8.4-8.45-17.97-17.9-25.88-26.53h0Z" fill="#231f20" stroke-width="0"/><path d="m147.06,23.41c6.93,6.66,13.6,13.57,20.23,20.52,11.27,11.37,22.69,22.59,33.61,34.31.02.02-.01.06-.04.03-11.52-11.12-22.53-22.75-33.69-34.22-6.75-6.76-13.82-13.63-20.11-20.64h0Z" fill="#231f20" stroke-width="0"/><path d="m163.16,23.93c6.25,5.74,11.83,12.15,17.9,18.07,6.07,5.92,12.01,11.97,17.74,18.22.02.02-.01.06-.04.04-6.15-5.84-12.09-11.89-17.9-18.07-5.74-6.18-12.32-11.95-17.7-18.26h0Z" fill="#231f20" stroke-width="0"/><path d="m179.14,24.31c3.63,3.07,6.57,6.8,10.02,10.04,3.42,3.27,6.84,6.62,9.86,10.24-3.56-3.1-6.85-6.57-10.05-10.05-3.11-3.5-7.06-6.6-9.83-10.24h0Z" fill="#231f20" stroke-width="0"/><path d="m69.95,29.59c3.47,2.69,6.41,5.89,9.27,9.19,5.17,5.08,10.92,9.77,15.23,15.59-5.78-4.4-10.43-10.14-15.46-15.36-3.14-2.87-6.84-6.01-9.04-9.41h0Z" fill="#231f20" stroke-width="0"/><path d="m68.77,48.42c3.71-4.48,8.1-8.31,11.98-12.62,3.9-4.3,7.91-8.49,12.15-12.46.02-.02.06.01.04.03-3.8,4.39-7.84,8.56-11.98,12.62-4.15,3.98-7.88,8.79-12.18,12.43h0Z" fill="#231f20" stroke-width="0"/><path d="m71.79,61.06c2.18-3.08,4.87-5.64,7.66-8.13,4.23-4.53,8.07-9.64,13.06-13.33-3.54,5.13-8.44,9.15-12.82,13.55-2.36,2.75-4.98,6.07-7.9,7.9h0Z" fill="#231f20" stroke-width="0"/><path d="m78.89,116.52c2.48-3.21,5.64-5.75,8.3-8.79,2.68-3,5.45-6.01,8.49-8.63-2.51,3.14-5.4,6.02-8.3,8.82-2.93,2.71-5.42,6.23-8.49,8.6h0Z" fill="#231f20" stroke-width="0"/><path d="m88.31,91.16c.46-.86,1.16-1.47,1.92-2.04,1.05-1.14,1.92-2.57,3.34-3.28-.73,1.44-2.09,2.32-3.23,3.39-.54.71-1.22,1.66-2.04,1.92h0Z" fill="#231f20" stroke-width="0"/><path d="m71.16,108.62c1.52-2.17,3.7-3.66,5.4-5.65,1.72-1.96,3.52-3.93,5.59-5.49-1.55,2.09-3.46,3.94-5.4,5.69-1.95,1.66-3.49,4.14-5.59,5.46h0Z" fill="#231f20" stroke-width="0"/><path d="m71.95,168.33c3.42-4.1,7.51-7.54,11.11-11.47,3.61-3.92,7.32-7.73,11.27-11.31.02-.02.06.01.04.04-3.51,4.01-7.26,7.79-11.11,11.47-3.86,3.6-7.3,8.03-11.3,11.28h0Z" fill="#231f20" stroke-width="0"/><path d="m89.23,135.99c.72-1.14,1.69-2.02,2.72-2.85,1.5-1.59,2.8-3.47,4.68-4.64-1.17,1.9-2.98,3.23-4.56,4.75-.81.98-1.75,2.22-2.84,2.74h0Z" fill="#231f20" stroke-width="0"/><path d="m96.17,189.04c.52-1.34,1.55-2.16,2.68-2.89.94-.92,1.51-2.2,2.5-3.07.65-.59,1.34-1.14,2.19-1.54.04-.02.09.03.07.07-.89,2.17-2.87,3.29-4.52,4.76-.71,1.14-1.51,2.18-2.84,2.73-.04.02-.09-.03-.07-.07h0Z" fill="#231f20" stroke-width="0"/><path d="m73.54,181.8c3.42-4.1,7.51-7.54,11.11-11.47,3.61-3.92,7.32-7.73,11.27-11.31.02-.02.06.01.04.04-3.51,4.01-7.26,7.79-11.11,11.47-3.86,3.6-7.3,8.03-11.3,11.28h0Z" fill="#231f20" stroke-width="0"/><path d="m80.67,189.73c3.42-4.1,7.51-7.54,11.11-11.47,3.61-3.92,7.32-7.73,11.27-11.31.02-.02.06.01.04.04-3.51,4.01-7.26,7.79-11.11,11.47-3.86,3.6-7.3,8.03-11.3,11.28h0Z" fill="#231f20" stroke-width="0"/><path d="m194.29,24.02c.72.33,1.17.9,1.58,1.53.89.84,2.08,1.5,2.52,2.7-1.2-.53-1.82-1.66-2.64-2.58-.62-.42-1.19-.89-1.5-1.61-.01-.02.01-.05.04-.03h0Z" fill="#231f20" stroke-width="0"/><path d="m123.5,46.36c9.42,9.23,19.67,19.76,28.88,29.31,16.05,16.28,32.29,32.37,48.01,48.98.02.02-.01.06-.04.03-16.32-16.01-32.12-32.54-48.11-48.89-9.32-9.39-19.91-19.88-28.75-29.44h0Z" fill="#231f20" stroke-width="0"/><path d="m123.5,61.33c9.42,9.23,19.67,19.76,28.88,29.31,16.05,16.28,32.29,32.37,48.01,48.98.02.02-.01.06-.04.03-16.32-16.01-32.12-32.54-48.11-48.89-9.32-9.39-19.91-19.88-28.75-29.44h0Z" fill="#231f20" stroke-width="0"/><path d="m123.5,76.3c9.42,9.23,19.67,19.76,28.88,29.31,16.05,16.28,32.29,32.37,48.01,48.98.02.02-.01.06-.04.03-16.32-16.01-32.12-32.54-48.11-48.89-9.32-9.39-19.91-19.88-28.75-29.44h0Z" fill="#231f20" stroke-width="0"/><path d="m124.9,93.57c9.54,9.17,19.93,19.63,29.27,29.12,16.27,16.17,32.72,32.16,48.65,48.66.02.02-.01.06-.04.04-16.53-15.9-32.55-32.33-48.74-48.57-9.44-9.33-20.17-19.75-29.13-29.25h0Z" fill="#231f20" stroke-width="0"/><path d="m125.29,108.54c9.45,9.14,19.73,19.56,28.98,29.02,16.11,16.12,32.4,32.05,48.17,48.5.02.02-.01.06-.04.04-16.38-15.85-32.23-32.22-48.26-48.41-9.35-9.3-19.98-19.69-28.84-29.16h0Z" fill="#231f20" stroke-width="0"/><path d="m125.41,123.79c10.9,10.39,21.21,21.37,31.93,31.93,10.74,10.55,21.36,21.21,31.77,32.09.02.02-.01.06-.04.04-10.82-10.46-21.44-21.14-31.93-31.93-10.44-10.77-21.65-21.21-31.74-32.12h0Z" fill="#231f20" stroke-width="0"/><path d="m126.1,139.48c5.26,4.89,10.26,10.04,15.23,15.22,8.49,8.43,17.13,16.71,25.27,25.49.02.02-.01.06-.04.04-8.74-8.18-16.97-16.87-25.36-25.4-5.09-4.99-10.49-10.1-15.11-15.34h0Z" fill="#231f20" stroke-width="0"/><path d="m125.41,153.66c4.84,4.25,9.02,9.17,13.68,13.59,4.66,4.44,9.2,8.98,13.52,13.75.02.02-.01.06-.04.04-4.75-4.34-9.27-8.91-13.68-13.59-4.33-4.69-9.5-8.96-13.49-13.79h0Z" fill="#231f20" stroke-width="0"/><path d="m125.21,168.03c2.72,1.93,4.92,4.37,7.03,6.91,3.93,3.81,8.44,7.25,11.5,11.79-4.53-3.14-7.94-7.61-11.73-11.57-2.53-2.12-4.95-4.34-6.87-7.07-.03-.04.03-.11.07-.07h0Z" fill="#231f20" stroke-width="0"/><path d="m123.07,180.12c1.31.51,2.08,1.51,2.77,2.62.88.92,2.12,1.48,2.95,2.44.57.63,1.08,1.32,1.45,2.14.02.04-.03.09-.07.07-2.11-.86-3.15-2.81-4.56-4.43-1.11-.7-2.11-1.47-2.61-2.78-.02-.04.03-.09.07-.07h0Z" fill="#231f20" stroke-width="0"/><line x1="237.61" y1="14.17" x2="69.41" y2="14.17" fill="#fff" stroke="#231f20" stroke-linecap="round" stroke-linejoin="round"/><line x1="237.61" y1="195.51" x2="69.41" y2="195.51" fill="#fff" stroke="#231f20" stroke-linecap="round" stroke-linejoin="round"/><path d="m237.49,20.13h-12.62s-5.53-.36-5.35,6.78v73.3s-.42,6.57,3.57,6.78h14.45" fill="none" stroke="#231f20" stroke-linecap="round" stroke-linejoin="round" stroke-width=".5"/><path d="m69.95,44.77c3.47,2.69,6.41,5.89,9.27,9.19,5.17,5.08,10.92,9.77,15.23,15.59-5.78-4.4-10.43-10.14-15.46-15.36-3.14-2.87-6.84-6.01-9.04-9.41h0Z" fill="#231f20" stroke-width="0"/><path d="m78.59,98.24c2.95,2.36,5.23,5.38,8.01,7.91,2.74,2.56,5.5,5.2,7.85,8.1-2.88-2.39-5.51-5.14-8.04-7.91-2.44-2.79-5.72-5.17-7.81-8.1h0Z" fill="#231f20" stroke-width="0"/><path d="m88.09,123.28c1,.61,1.73,1.46,2.42,2.36,1.36,1.3,3,2.41,3.92,4.08-1.66-.97-2.75-2.58-4.04-3.96-.84-.69-1.93-1.52-2.31-2.48h0Z" fill="#231f20" stroke-width="0"/><path d="m69.93,104.98c2.3,1.7,3.92,4.06,6.04,5.93,2.09,1.9,4.19,3.88,5.88,6.12-2.23-1.73-4.2-3.82-6.08-5.93-1.79-2.13-4.4-3.85-5.85-6.12h0Z" fill="#231f20" stroke-width="0"/><path d="m73.8,151.64c5.01,4.46,9.35,9.58,14.19,14.22,4.82,4.65,9.54,9.4,14.03,14.38.02.02-.01.06-.04.04-4.92-4.55-9.61-9.33-14.19-14.22-4.5-4.89-9.84-9.38-13.99-14.41h0Z" fill="#231f20" stroke-width="0"/><path d="m72.69,164.62c4.4,3.81,8.12,8.29,12.34,12.27,4.21,4,8.31,8.1,12.18,12.43.02.02-.01.06-.04.04-4.3-3.9-8.37-8.04-12.34-12.27-3.88-4.25-8.61-8.08-12.14-12.47h0Z" fill="#231f20" stroke-width="0"/><path d="m87.66,151.55c2.23,1.62,3.78,3.91,5.82,5.71,2.02,1.82,4.04,3.74,5.66,5.9-2.15-1.66-4.05-3.67-5.86-5.71-1.72-2.06-4.26-3.7-5.63-5.9h0Z" fill="#231f20" stroke-width="0"/><path d="m88.07,137.56c1.26.87,2.26,1.99,3.22,3.16,1.8,1.74,3.88,3.3,5.25,5.41-2.11-1.41-3.64-3.48-5.37-5.3-1.1-.96-2.47-2.05-3.1-3.28h0Z" fill="#231f20" stroke-width="0"/><path d="m87.63,92.67c1.26.87,2.26,1.99,3.22,3.16,1.8,1.74,3.88,3.3,5.25,5.41-2.11-1.41-3.64-3.48-5.37-5.3-1.1-.96-2.47-2.05-3.1-3.28h0Z" fill="#231f20" stroke-width="0"/><path d="m86.98,76.98c1.26.87,2.26,1.99,3.22,3.16,1.8,1.74,3.88,3.3,5.25,5.41-2.11-1.41-3.64-3.48-5.37-5.3-1.1-.96-2.47-2.05-3.1-3.28h0Z" fill="#231f20" stroke-width="0"/><path d="m79.84,23.85c1.84,1.05,3.16,2.61,4.39,4.26,2.46,2.34,5.51,4.32,7.08,7.39-3.06-1.69-5-4.65-7.31-7.16-1.65-1.24-3.19-2.57-4.23-4.42-.03-.04.03-.1.07-.07h0Z" fill="#231f20" stroke-width="0"/><path d="m88.36,121.73c.72-1.14,1.69-2.02,2.72-2.85,1.5-1.59,2.8-3.47,4.68-4.64-1.17,1.9-2.98,3.23-4.56,4.75-.81.98-1.75,2.22-2.84,2.74h0Z" fill="#231f20" stroke-width="0"/><path d="m88.16,76.13c.52-1.34,1.55-2.16,2.68-2.89.94-.92,1.51-2.2,2.5-3.07.65-.59,1.34-1.14,2.19-1.54.04-.02.09.03.07.07-.89,2.17-2.87,3.29-4.52,4.76-.71,1.14-1.51,2.18-2.84,2.73-.04.02-.09-.03-.07-.07h0Z" fill="#231f20" stroke-width="0"/><path d="m87.47,60.99c.52-1.34,1.55-2.16,2.68-2.89.94-.92,1.51-2.2,2.5-3.07.65-.59,1.34-1.14,2.19-1.54.04-.02.09.03.07.07-.89,2.17-2.87,3.29-4.52,4.76-.71,1.14-1.51,2.18-2.84,2.73-.04.02-.09-.03-.07-.07h0Z" fill="#231f20" stroke-width="0"/><path d="m70.42,30.9c.52-1.34,1.55-2.16,2.68-2.89.94-.92,1.51-2.2,2.5-3.07.65-.59,1.34-1.14,2.19-1.54.04-.02.09.03.07.07-.89,2.17-2.87,3.29-4.52,4.76-.71,1.14-1.51,2.18-2.84,2.73-.04.02-.09-.03-.07-.07h0Z" fill="#231f20" stroke-width="0"/><path d="m70.16,118.01h14.32s2.52-.32,2.52,2.09v29.02s.15,1.84-2.37,1.84h-14.17" fill="none" stroke="#231f20" stroke-linecap="round" stroke-linejoin="round" stroke-width=".5"/><path d="m70.23,119.95h12.23s2.52-.29,2.52,1.85v25.6s.15,1.62-2.37,1.62h-12.09" fill="none" stroke="#231f20" stroke-linecap="round" stroke-linejoin="round" stroke-width=".5"/><polyline points="81.23 120.7 81.23 132.99 84.26 132.99" fill="none" stroke="#231f20" stroke-linecap="round" stroke-linejoin="round" stroke-width=".5"/><line x1="70.37" y1="143.5" x2="81.23" y2="132.99" fill="none" stroke="#231f20" stroke-linecap="round" stroke-linejoin="round" stroke-width=".5"/><path d="m70.16,63.14h14.32s2.52-.32,2.52,2.09v29.02s.15,1.84-2.37,1.84h-14.17" fill="none" stroke="#231f20" stroke-linecap="round" stroke-linejoin="round" stroke-width=".5"/><path d="m70.23,65.09h12.23s2.52-.29,2.52,1.85v25.6s.15,1.62-2.37,1.62h-12.09" fill="none" stroke="#231f20" stroke-linecap="round" stroke-linejoin="round" stroke-width=".5"/><polyline points="81.23 65.83 81.23 78.12 84.26 78.12" fill="none" stroke="#231f20" stroke-linecap="round" stroke-linejoin="round"/><line x1="70.37" y1="88.63" x2="81.23" y2="78.12" fill="none" stroke="#231f20" stroke-linecap="round" stroke-linejoin="round"/><path d="m237.51,110.53h-21.77s-.03.69,4.27,1.49c4.3.8,17.42,3.5,17.42,3.5" fill="none" stroke="#231f20" stroke-linecap="round" stroke-linejoin="round" stroke-width=".5"/><path d="m215.69,110.59v26.85s-.14.99,1.35,1.49,20.47,6.73,20.47,6.73" fill="none" stroke="#231f20" stroke-linecap="round" stroke-linejoin="round" stroke-width=".5"/><polyline points="237.44 113.99 222.49 111.44 237.37 111.44" fill="none" stroke="#231f20" stroke-linecap="round" stroke-linejoin="round" stroke-width=".5"/><path d="m209.76,172c2.13-1.88,2.01-5.14,2.01-5.14l2.11-113.48" fill="none" stroke="#231f20" stroke-linecap="round" stroke-linejoin="round" stroke-width=".5"/><path d="m210.84,190.13l.09-13.81s.41-3.52-1.71-4.42" fill="none" stroke="#231f20" stroke-linecap="round" stroke-linejoin="round" stroke-width=".5"/><path d="m214.82,104.03l-1.33,72.07s0,2.42,1.61,2.42l1.88.13v11.29" fill="none" stroke="#231f20" stroke-linecap="round" stroke-linejoin="round" stroke-width=".5"/><path d="m221.96,140.76l-.97,37.69-1.58,3.16v8.47h-5.11s-1.61-.13-1.61-2.55v-6.03l1.48-.94.94-2.03" fill="none" stroke="#231f20" stroke-linecap="round" stroke-linejoin="round" stroke-width=".5"/><polyline points="216.32 178.66 216.32 180.95 214.92 182.27 216.86 185.6" fill="none" stroke="#231f20" stroke-linecap="round" stroke-linejoin="round" stroke-width=".5"/><polyline points="217.94 191.76 219.14 192.36 237.5 192.36" fill="none" stroke="#231f20" stroke-linecap="round" stroke-linejoin="round" stroke-width=".5"/><path d="m220.88,178.83l1.49,2.03s.89,1.08,2.22,1.08,12.83.06,12.83.06" fill="none" stroke="#231f20" stroke-linecap="round" stroke-linejoin="round" stroke-width=".5"/><polyline points="222.32 180.79 223.01 156.08 224.54 155.39 221.74 152.59" fill="none" stroke="#231f20" stroke-linecap="round" stroke-linejoin="round" stroke-width=".5"/><path d="m237.51,182.55h-16.57s-1.23.05-1.54-.95" fill="none" stroke="#231f20" stroke-linecap="round" stroke-linejoin="round" stroke-width=".5"/><path d="m237.51,187.87h-16.57s-1.23.05-1.54-.95" fill="none" stroke="#231f20" stroke-linecap="round" stroke-linejoin="round" stroke-width=".5"/><rect x="224.46" y="183.92" width="2.56" height="2.56" rx=".72" ry=".72" fill="#231f20" stroke-width="0"/><rect x="229.32" y="172.76" width="2.56" height="2.56" rx=".72" ry=".72" fill="#231f20" stroke-width="0"/><rect x="228.51" y="171.94" width="4.19" height="4.19" rx=".72" ry=".72" fill="none" stroke="#231f20" stroke-miterlimit="10" stroke-width=".5"/><path d="m237.45,152.09h-11.53s-1.17-.39-1.17,1.47v6.55l3.08,3.67" fill="none" stroke="#231f20" stroke-linecap="round" stroke-linejoin="round" stroke-width=".5"/><polyline points="237.53 154.91 227.97 154.91 227.97 163.76 237.53 163.76" fill="none" stroke="#231f20" stroke-linecap="round" stroke-linejoin="round" stroke-width=".5"/><line x1="227.97" y1="154.91" x2="225.23" y2="152.27" fill="none" stroke="#231f20" stroke-linecap="round" stroke-linejoin="round" stroke-width=".5"/><path d="m223.3,141.16v4.93s-.32,2.24,1.86,2.43h12.22" fill="none" stroke="#231f20" stroke-linecap="round" stroke-linejoin="round" stroke-width=".5"/><polygon points="230.12 162.17 230.12 156.59 236.11 159.24 230.12 162.17" fill="#231f20" stroke-width="0"/><circle cx="229.46" cy="29.76" r="6.31" fill="none" stroke="#231f20" stroke-miterlimit="10" stroke-width=".5"/><line x1="229.35" y1="26.02" x2="229.35" y2="33.5" fill="none" stroke="#231f20" stroke-linecap="round" stroke-linejoin="round" stroke-width=".5"/><line x1="225.5" y1="29.76" x2="233.41" y2="29.76" fill="none" stroke="#231f20" stroke-linecap="round" stroke-linejoin="round" stroke-width=".5"/><line x1="222.04" y1="106.74" x2="213.05" y2="102.91" fill="none" stroke="#231f20" stroke-linecap="round" stroke-linejoin="round" stroke-width=".5"/><line x1="214.73" y1="24.79" x2="222.02" y2="20.89" fill="none" stroke="#231f20" stroke-linecap="round" stroke-linejoin="round" stroke-width=".5"/><path d="m229.74,106.46c-7.49-2.04-8.32-8.01-8.32-8.01l.34-20.66,4-2.89,8.67-.16v17.64s-.08,4.02,2.98,4.09" fill="none" stroke="#231f20" stroke-linecap="round" stroke-linejoin="round" stroke-width=".5"/><path d="m225.76,74.9v20.79s.08,4.4,5.16,6.89c3.12,1.53,6.53.53,6.53.53" fill="none" stroke="#231f20" stroke-linecap="round" stroke-linejoin="round" stroke-width=".5"/><path d="m223.13,74.54l-.14-25.48,4.52-1.65s1.15.72,1.15,2.37v16.72l-2.08,5.53-3.44,2.51Z" fill="none" stroke="#231f20" stroke-linecap="round" stroke-linejoin="round" stroke-width=".5"/><polyline points="230.1 70.11 229.3 72.25 225.85 74.76 223.14 74.73" fill="none" stroke="#231f20" stroke-linecap="round" stroke-linejoin="round" stroke-width=".5"/><path d="m227.6,47.44l2.63.19s1.15.72,1.15,2.37v2.95" fill="none" stroke="#231f20" stroke-linecap="round" stroke-linejoin="round" stroke-width=".5"/><path d="m237.42,51.25l-5.18,1.56c-1.52.44-1.77,3.33-1.77,3.33l-.28,13.21s.51,1.78,1.66,2.08l5.52-.43" fill="none" stroke="#231f20" stroke-linecap="round" stroke-linejoin="round" stroke-width=".5"/><path d="m222.98,49.07s.95-3.35,3-5.13c0,0,1.43-.89,2.76.09l3.57,2.32,5.17,2.32" fill="none" stroke="#231f20" stroke-linecap="round" stroke-linejoin="round" stroke-width=".5"/><path d="m237.49,44.83l-3.74-1.6s-4.37-1.78-2.76-4.1l3.48-3.3,1.78-.53,1.25-1.6" fill="none" stroke="#231f20" stroke-linecap="round" stroke-linejoin="round" stroke-width=".5"/><line x1="228.57" y1="72.87" x2="228.57" y2="74.77" fill="none" stroke="#231f20" stroke-linecap="round" stroke-linejoin="round" stroke-width=".5"/><line x1="231.42" y1="71.45" x2="231.42" y2="74.53" fill="none" stroke="#231f20" stroke-linecap="round" stroke-linejoin="round" stroke-width=".5"/><rect x="109.98" y="37.81" width="12.22" height="21.28" fill="#231f20" stroke-width="0"/><circle cx="116.13" cy="54.27" r="2.76" fill="#fff" stroke-width="0"/><path d="m119.92,41.94v-.62h-.82c-.11-.24-.3-.44-.54-.55v-.83h-.62v.72h-.89v-.72h-.62v.72h-.87v-.72h-.62v.72h-.86v-.72h-.62v.81c-.26.11-.46.32-.57.57h-.82v.62h.72v.87h-.72v.62h.72v.87h-.72v.62h.72v.87h-.72v.62h.82c.11.24.3.43.54.54v.82h.62v-.72h.89v.72h.62v-.72h.87v.72h.62v-.72h.86v.72h.62v-.82c.25-.11.44-.31.55-.55h.82v-.62h-.72v-.87h.72v-.62h-.72v-.87h.72v-.62h-.72v-.87h.72Zm-4.08,3.27h-.5l-1.24-1.98v1.98h-.45v-2.7h.5l1.23,1.99v-1.99h.46v2.7Zm1.68,0h-.53l-.9-2.7h.49l.68,2.13.7-2.13h.48l-.92,2.7Z" fill="#fff" stroke-width="0"/><rect x="155.93" y="181.08" width="12.9" height="6.47" fill="#231f20" stroke-width="0"/><rect x="163.11" y="182.38" width="3.87" height="3.87" rx=".72" ry=".72" fill="#fff" stroke-width="0"/><path d="m159.45,186.24c-.11,0-.21-.03-.28-.1-.07-.07-.11-.16-.11-.27s.04-.2.11-.27c.07-.07.16-.11.28-.11s.21.04.27.11c.07.07.1.16.1.27s-.03.2-.1.27c-.07.07-.16.1-.27.1Zm-.09-1.15c0-.06,0-.16-.02-.3-.02-.14-.03-.29-.05-.45-.02-.16-.03-.32-.05-.47s-.03-.27-.03-.35c-.01-.17-.02-.32-.03-.45s-.02-.24-.02-.32c0-.14.03-.24.09-.29.06-.06.13-.09.2-.09s.15.03.21.09c.06.06.08.16.08.29,0,.08,0,.18-.01.32,0,.14-.02.29-.03.46,0,.08-.01.2-.03.35s-.03.31-.05.47c-.02.16-.03.31-.05.45-.01.14-.02.24-.02.3h-.19Z" fill="#fff" stroke-width="0"/><circle cx="109.78" cy="48.49" r="22.5" fill="none" stroke="#fff" stroke-miterlimit="10" stroke-width="4"/><circle cx="109.78" cy="48.49" r="22.5" fill="none" stroke="#231f20" stroke-dasharray="0 3" stroke-linecap="round" stroke-miterlimit="10"/><circle cx="159.98" cy="183.27" r="15.86" fill="none" stroke="#fff" stroke-miterlimit="10" stroke-width="4"/><circle cx="159.98" cy="183.27" r="15.86" transform="translate(-37.83 41.66) rotate(-13.28)" fill="none" stroke="#231f20" stroke-dasharray="0 0 2.93 2.93" stroke-linecap="round" stroke-miterlimit="10"/></g><g id="b"><g clip-path="url(#c)"><circle cx="53.86" cy="52.2" r="42.17" fill="#fff" stroke-width="0"/><polygon points="27.81 7.21 39.57 7.21 33.98 19.83 27.81 7.21" fill="#231f20" stroke-width="0"/><path d="m25.63,27.79l-.47-27.38,17.15-.16,1.1,41.71-1.57-6.61s1.1-6.92-1.42-7.71h-17.47s-1.73,2.36-.16,12.43l2.99,15.27v5.51h17.63v-5.82l-2.99-15.11s-.94-3.93,0-10.23l.31-1.74" fill="none" stroke="#231f20" stroke-linecap="round" stroke-linejoin="round" stroke-width=".5"/><polyline points="42.32 .25 46.52 4.21 46.52 5.7 49.26 8.69" fill="none" stroke="#231f20" stroke-miterlimit="10" stroke-width=".5"/><polyline points="25.79 60.84 28.57 62.44 45.07 62.57 43.42 60.84" fill="none" stroke="#231f20" stroke-linecap="round" stroke-linejoin="round" stroke-width=".5"/><path d="m45.68,110.68c-.35-27.67-.61-48.12-.61-48.12" fill="none" stroke="#231f20" stroke-linecap="round" stroke-linejoin="round" stroke-width=".5"/><line x1="28.4" y1="62.44" x2="28.82" y2="101.44" fill="none" stroke="#231f20" stroke-linecap="round" stroke-linejoin="round" stroke-width=".5"/><path d="m230.09,2.48H53.63c-4.05-.15-4.21,3.75-4.21,3.75v4.81l.88,93.37" fill="none" stroke="#231f20" stroke-linecap="round" stroke-linejoin="round" stroke-width=".5"/><polygon points="45.22 49.51 46.69 48.34 46.69 59 45.28 57.4 45.22 49.51" fill="none" stroke="#231f20" stroke-linecap="round" stroke-linejoin="round" stroke-width=".5"/><path d="m80.67,75.81c8.35-9.08,17.21-17.63,26.14-26.12,14.49-14.55,28.61-29.47,43.8-43.3.04-.04.11.03.07.07-13.95,15.09-28.98,29.09-43.63,43.48-8.55,8.72-17.33,18.08-26.39,25.88h0Z" fill="#231f20" stroke-width="0"/><path d="m80.73,46.24c4.64-5.38,9.76-10.26,15-15.04,8.28-8.42,16.21-17.18,25.21-24.86.04-.04.11.03.07.07-7.75,8.94-16.57,16.81-25.05,25.02-4.81,5.06-9.89,10.69-15.23,14.81h0Z" fill="#231f20" stroke-width="0"/><path d="m80.23,16.85c.92-1.7,2.33-2.88,3.85-3.98,1.32-1.28,2.29-2.92,3.66-4.16.9-.83,1.86-1.62,2.96-2.25.04-.03.1.03.07.07-1.54,2.79-4.17,4.5-6.46,6.57-1.1,1.51-2.29,2.91-4,3.82-.04.02-.1-.03-.07-.07h0Z" fill="#231f20" stroke-width="0"/><path d="m0,37.78c3.54,2.78,6.57,6.04,9.5,9.42,5.3,5.21,11.18,10.03,15.62,15.98-5.91-4.53-10.69-10.4-15.85-15.75-3.22-2.95-6.99-6.17-9.27-9.65h0Z" fill="#231f20" stroke-width="0"/><path d="m3.48,54.19c1.84-2.72,4.19-4.93,6.64-7.06,3.66-3.94,6.93-8.46,11.35-11.55-2.98,4.53-7.3,7.97-11.12,11.78-2.03,2.53-4.15,4.97-6.8,6.91-.04.03-.11-.02-.07-.07h0Z" fill="#231f20" stroke-width="0"/><path d="m79.58,48.21c3.33,2.58,6.13,5.67,8.85,8.85,4.93,4.89,10.45,9.4,14.52,15.03-5.55-4.22-9.96-9.77-14.76-14.8-3-2.76-6.56-5.79-8.62-9.08h0Z" fill="#231f20" stroke-width="0"/><path d="m79.58,76.26c1.88,1.11,3.23,2.72,4.5,4.42,2.52,2.43,5.64,4.5,7.27,7.65-3.12-1.78-5.12-4.83-7.5-7.42-1.68-1.3-3.27-2.68-4.34-4.58-.03-.04.03-.1.07-.07h0Z" fill="#231f20" stroke-width="0"/><path d="m12.08,75.66c1.33-2.16,3.16-3.79,5.1-5.35,2.8-2.99,5.23-6.57,8.78-8.69-2.13,3.59-5.58,6.06-8.54,8.92-1.52,1.96-3.12,3.83-5.26,5.19-.04.03-.1-.03-.07-.07h0Z" fill="#231f20" stroke-width="0"/><rect x="54.25" y="32.17" width="22.91" height="39.89" fill="#231f20" stroke-width="0"/><circle cx="65.77" cy="63.03" r="5.17" fill="#fff" stroke-width="0"/><path d="m72.88,39.92v-1.16h-1.53c-.2-.46-.56-.82-1.01-1.03v-1.56h-1.16v1.35h-1.66v-1.35h-1.16v1.35h-1.64v-1.35h-1.16v1.35h-1.62v-1.35h-1.16v1.52c-.48.21-.86.59-1.08,1.07h-1.53v1.16h1.35v1.64h-1.35v1.16h1.35v1.64h-1.35v1.16h1.35v1.64h-1.35v1.16h1.54c.21.45.57.81,1.02,1.02v1.54h1.16v-1.35h1.66v1.35h1.16v-1.35h1.64v1.35h1.16v-1.35h1.62v1.35h1.16v-1.53c.46-.2.83-.57,1.04-1.03h1.54v-1.16h-1.35v-1.64h1.35v-1.16h-1.35v-1.64h1.35v-1.16h-1.35v-1.64h1.35Zm-7.65,6.13h-.94l-2.32-3.71v3.71h-.84v-5.05h.93l2.31,3.72.02-3.72h.84v5.05Zm3.14,0h-.99l-1.68-5.05h.92l1.27,4,1.31-4h.9l-1.73,5.05Z" fill="#fff" stroke="#231f20" stroke-miterlimit="10" stroke-width=".12"/></g><circle cx="53.86" cy="52.2" r="42.17" fill="none" stroke="#fff" stroke-miterlimit="10" stroke-width="4"/><circle cx="53.86" cy="52.2" r="42.17" fill="none" stroke="#231f20" stroke-miterlimit="10"/><g clip-path="url(#d)"><circle cx="117.99" cy="188.62" r="29.73" fill="#fff" stroke-width="0"/><line x1="152.88" y1="203.94" x2="78.91" y2="203.94" fill="#fff" stroke="#231f20" stroke-linecap="round" stroke-linejoin="round" stroke-width=".5"/><path d="m91.96,195.41c6.46-7.2,13.44-13.88,20.48-20.5,11.35-11.42,22.31-23.22,34.36-33.93.04-.04.11.03.07.07-10.8,11.97-22.68,22.85-34.19,34.11-6.66,6.85-13.55,14.33-20.72,20.25h0Z" fill="#231f20" stroke-width="0"/><path d="m132.57,182.16c2.33-3.1,5.16-5.69,8.09-8.18,4.47-4.56,8.55-9.71,13.76-13.42-3.79,5.18-8.92,9.22-13.53,13.65-2.51,2.77-5.28,6.11-8.31,7.95h0Z" fill="#231f20" stroke-width="0"/><path d="m93.19,149.04c4.52,3.75,8.53,8,12.44,12.35,6.93,6.83,14.44,13.28,20.52,20.86-7.55-6.15-13.95-13.65-20.75-20.63-4.19-3.93-8.96-8.12-12.21-12.58h0Z" fill="#231f20" stroke-width="0"/><path d="m78.46,162.11c3.09,2.3,5.66,5.11,8.14,8.02,4.54,4.43,9.66,8.48,13.34,13.65-5.15-3.76-9.17-8.84-13.57-13.42-2.76-2.48-6.08-5.23-7.91-8.25h0Z" fill="#231f20" stroke-width="0"/><line x1="147.04" y1="210.9" x2="87.35" y2="210.9" fill="#fff" stroke="#231f20" stroke-linecap="round" stroke-linejoin="round"/><rect x="106.15" y="183.85" width="24.17" height="12.13" fill="#231f20" stroke-width="0"/><rect x="119.62" y="186.29" width="7.25" height="7.25" rx=".72" ry=".72" fill="#fff" stroke-width="0"/><path d="m112.76,193.54c-.21,0-.39-.07-.52-.19-.13-.13-.2-.3-.2-.51s.07-.37.2-.51c.13-.14.31-.2.52-.2s.38.07.51.2c.13.14.19.3.19.51s-.07.38-.19.51c-.13.13-.3.19-.51.19Zm-.18-2.51c0-.11-.01-.3-.04-.56-.03-.26-.06-.54-.09-.85-.03-.3-.06-.59-.09-.87s-.05-.5-.05-.65c-.02-.31-.04-.59-.06-.85s-.03-.46-.03-.6c0-.26.05-.44.16-.55.11-.11.23-.17.38-.17s.28.06.39.17c.1.11.15.29.15.55,0,.14,0,.34-.02.59-.02.25-.04.54-.06.86,0,.15-.02.37-.05.65s-.06.57-.09.87c-.03.3-.06.58-.09.85-.03.26-.04.45-.04.56h-.35Z" fill="#fff" stroke="#fff" stroke-miterlimit="10" stroke-width=".25"/></g><circle cx="117.99" cy="188.62" r="29.73" fill="none" stroke="#fff" stroke-miterlimit="10" stroke-width="4"/><circle cx="117.99" cy="188.62" r="29.73" fill="none" stroke="#231f20" stroke-miterlimit="10"/></g><g id="e"><path d="m31.12,27.21c0,7.59-6.25,13.75-13.95,13.75s-13.95-6.15-13.95-13.75,6.25-13.75,13.95-13.75,13.95,6.16,13.95,13.75" fill="#211f1f" stroke="#fff" stroke-miterlimit="10" stroke-width="1.5"/><path d="m18.77,34.25h-1.85v-11.76c-.44.42-1.03.85-1.75,1.27-.72.42-1.37.74-1.94.95v-1.78c1.03-.49,1.93-1.07,2.71-1.76s1.32-1.36,1.64-2.01h1.19v15.09Z" fill="#fff" stroke-width="0"/><path d="m102.45,172.57c0,7.59-6.25,13.75-13.95,13.75s-13.95-6.15-13.95-13.75,6.25-13.75,13.95-13.75,13.95,6.16,13.95,13.75" fill="#211f1f" stroke="#fff" stroke-miterlimit="10" stroke-width="1.5"/><path d="m93.34,177.84v1.77h-9.94c-.01-.44.06-.87.22-1.28.25-.68.66-1.34,1.22-2,.56-.66,1.36-1.42,2.41-2.28,1.63-1.34,2.74-2.4,3.31-3.18s.86-1.52.86-2.22c0-.73-.26-1.35-.78-1.85-.52-.5-1.21-.75-2.05-.75-.89,0-1.6.27-2.13.8s-.8,1.27-.81,2.21l-1.9-.19c.13-1.42.62-2.49,1.47-3.24.85-.74,1.99-1.11,3.41-1.11s2.58.4,3.42,1.2,1.26,1.79,1.26,2.97c0,.6-.12,1.19-.37,1.77s-.65,1.19-1.23,1.84c-.57.64-1.52,1.52-2.85,2.65-1.11.93-1.82,1.56-2.13,1.89s-.57.67-.78,1h7.37Z" fill="#fff" stroke-width="0"/></g></svg>