<?xml version="1.0" encoding="UTF-8"?><svg xmlns="http://www.w3.org/2000/svg" width="5in" height="2.5in" xmlns:xlink="http://www.w3.org/1999/xlink" viewBox="0 0 360 180"><defs><clipPath id="b"><polygon points="118.692 102.666 120.08 164.667 148.547 160.988 146.533 101 118.692 102.666" fill="none"/></clipPath><clipPath id="c"><polygon points="118.702 102.741 120.091 164.056 148.557 161.062 146.543 101.074 118.702 102.741" fill="none"/></clipPath><clipPath id="e"><circle cx="256.838" cy="45.387" r="40.651" fill="none"/></clipPath></defs><g id="a"><path d="M353.49,90.766l.711.032.156-5.122L35.844,102.659s-1.121.047-1.028,1.308.234,5.543.234,5.543l-22.376-39.446-.103-3.507,182.067-4.945,159.66,23.995" fill="none" stroke="#231f20" stroke-linecap="round" stroke-linejoin="round" stroke-width=".5"/><polyline points="13.524 66.364 10.575 62.119 174.383 58.715 192.925 61.59" fill="none" stroke="#231f20" stroke-linecap="round" stroke-linejoin="round" stroke-width=".5"/><polyline points="10.575 62.119 10.575 65.05 12.416 67.831" fill="none" stroke="#231f20" stroke-linecap="round" stroke-linejoin="round" stroke-width=".5"/><line x1="34.877" y1="103.02" x2="12.57" y2="66.556" fill="none" stroke="#231f20" stroke-linecap="round" stroke-linejoin="round" stroke-width=".5"/><polyline points="353.143 94.057 353.575 86.844 47.963 103.963 37.086 104.572 41.085 176.554" fill="none" stroke="#231f20" stroke-linecap="round" stroke-linejoin="round" stroke-width=".5"/><line x1="350.266" y1="142.11" x2="352.953" y2="97.234" fill="none" stroke="#231f20" stroke-linecap="round" stroke-linejoin="round" stroke-width=".5"/><line x1="229.648" y1="155.566" x2="273.618" y2="150.696" fill="none" stroke="#231f20" stroke-linecap="round" stroke-linejoin="round" stroke-width=".5"/><polyline points="155.527 163.926 40.502 176.812 12.494 94.072 10.575 65.05" fill="none" stroke="#231f20" stroke-linecap="round" stroke-linejoin="round" stroke-width=".5"/><line x1="229.73" y1="153.838" x2="270.801" y2="149.482" fill="none" stroke="#231f20" stroke-linecap="round" stroke-linejoin="round" stroke-width=".5"/><polygon points="350.602 90.471 351.739 90.391 351.263 91.582 350.602 90.471" fill="#231f20"/><polygon points="337.475 91.26 338.612 91.18 338.136 92.37 337.475 91.26" fill="#231f20"/><line x1="269.068" y1="102.029" x2="269.218" y2="92.71" fill="none" stroke="#231f20" stroke-linecap="round" stroke-linejoin="round" stroke-width=".5"/><line x1="267.711" y1="148.145" x2="267.711" y2="135.681" fill="none" stroke="#231f20" stroke-linecap="round" stroke-linejoin="round" stroke-width=".5"/><polygon points="227.233 126.45 232.031 128.541 269.736 125.364 267.552 123.214 227.233 126.45" fill="none" stroke="#231f20" stroke-linecap="round" stroke-linejoin="round" stroke-width=".5"/><line x1="267.397" y1="125.537" x2="267.397" y2="123.446" fill="none" stroke="#231f20" stroke-linecap="round" stroke-linejoin="round" stroke-width=".5"/><path d="M214.238,126.62l6.139,2.727,9.533-.835,1.88.865s35.853-3.205,38.257-3.205c2.102,0,1.111-1.14,1.111-1.14l-3.166-2.906-53.753,4.495v1.189" fill="none" stroke="#231f20" stroke-linecap="round" stroke-linejoin="round" stroke-width=".5"/><polyline points="222.261 130.38 231.468 129.553 231.468 139.049 229.718 139.227" fill="none" stroke="#231f20" stroke-linecap="round" stroke-linejoin="round" stroke-width=".5"/><line x1="222.261" y1="130.38" x2="221.191" y2="129.953" fill="none" stroke="#231f20" stroke-linecap="round" stroke-linejoin="round" stroke-width=".5"/><path d="M231.949,139.023l38.172-3.649s1.263-.07,1.333-2.316l-.047-7.438" fill="none" stroke="#231f20" stroke-linecap="round" stroke-linejoin="round" stroke-width=".5"/><path d="M223.655,132.243l-11.689-5.286-59.11,4.714,11.853,7.64s.982.584.982,2.07l.121,29.99-12.837-10.31-.12-29.36" fill="none" stroke="#231f20" stroke-linecap="round" stroke-linejoin="round" stroke-width=".5"/><line x1="151.565" y1="112.862" x2="152.371" y2="161.699" fill="none" stroke="#231f20" stroke-linecap="round" stroke-linejoin="round" stroke-width=".5"/><line x1="112.754" y1="115.366" x2="113.56" y2="166.046" fill="none" stroke="#231f20" stroke-linecap="round" stroke-linejoin="round" stroke-width=".5"/><path d="M109.193,113.669h-.809l.539,1.213,1.019,39.887,2.292,1.955s.59,4.963-.623,6.109" fill="none" stroke="#231f20" stroke-linecap="round" stroke-linejoin="round" stroke-width=".5"/><path d="M109.023,111.832l-.501-.401v-1.955l-.902-1.955v-2.456h.902c0,.15-.05-2.055-.05-2.055l.204.099,1.45.703v7.619l.899-1.711h3.198v2.035l-.872,2.118v1.059h-3.344v-.976l1.142-2.243-.062-1.994" fill="none" stroke="#231f20" stroke-linecap="round" stroke-linejoin="round" stroke-width=".5"/><polyline points="109.424 114.639 109.424 109.576 109.023 109.225" fill="none" stroke="#231f20" stroke-linecap="round" stroke-linejoin="round" stroke-width=".5"/><polyline points="108.676 102.86 111.078 102.86 112.883 103.655 112.883 109.426" fill="none" stroke="#231f20" stroke-linecap="round" stroke-linejoin="round" stroke-width=".5"/><line x1="110.126" y1="103.812" x2="112.883" y2="103.812" fill="none" stroke="#231f20" stroke-linecap="round" stroke-linejoin="round" stroke-width=".5"/><line x1="111.15" y1="111.713" x2="114.223" y2="111.713" fill="none" stroke="#231f20" stroke-linecap="round" stroke-linejoin="round" stroke-width=".5"/><line x1="110.008" y1="113.956" x2="113.351" y2="113.956" fill="none" stroke="#231f20" stroke-linecap="round" stroke-linejoin="round" stroke-width=".5"/><line x1="92.104" y1="117.034" x2="93.774" y2="168.277" fill="none" stroke="#231f20" stroke-linecap="round" stroke-linejoin="round" stroke-width=".5"/><path d="M88.594,115.399l-.791.023.549,1.225,1.289,39.406,2.275,1.934s.962,5.406-.204,6.612" fill="none" stroke="#231f20" stroke-linecap="round" stroke-linejoin="round" stroke-width=".5"/><path d="M88.394,113.526l-.497-.396-.035-1.999-.917-1.973-.044-2.511.882-.025c.003.154-.086-2.1-.086-2.1l.201.095,1.43.678.138,7.79.848-1.775,3.126-.09.037,2.081-.814,2.191.019,1.083-3.268.094-.018-.998,1.076-2.326-.097-2.037" fill="none" stroke="#231f20" stroke-linecap="round" stroke-linejoin="round" stroke-width=".5"/><polyline points="88.837 116.384 88.745 111.208 88.347 110.86" fill="none" stroke="#231f20" stroke-linecap="round" stroke-linejoin="round" stroke-width=".5"/><polyline points="87.893 104.361 90.241 104.293 92.019 105.056 92.123 110.957" fill="none" stroke="#231f20" stroke-linecap="round" stroke-linejoin="round" stroke-width=".5"/><line x1="89.327" y1="105.294" x2="92.022" y2="105.216" fill="none" stroke="#231f20" stroke-linecap="round" stroke-linejoin="round" stroke-width=".5"/><line x1="90.47" y1="113.344" x2="93.475" y2="113.258" fill="none" stroke="#231f20" stroke-linecap="round" stroke-linejoin="round" stroke-width=".5"/><line x1="89.395" y1="115.67" x2="92.663" y2="115.576" fill="none" stroke="#231f20" stroke-linecap="round" stroke-linejoin="round" stroke-width=".5"/><polyline points="70.911 117.94 72.985 168.625 74.389 170.228" fill="none" stroke="#231f20" stroke-linecap="round" stroke-linejoin="round" stroke-width=".5"/><polyline points="67.397 116.304 66.608 116.328 67.166 117.556 68.774 158.733 71.058 160.67 71.058 170.632" fill="none" stroke="#231f20" stroke-linecap="round" stroke-linejoin="round" stroke-width=".5"/><path d="M67.182,114.426l-.499-.397-.052-2.004-.931-1.978-.065-2.518.879-.026c.004.154-.103-2.106-.103-2.106l.202.096,1.432.679.201,7.812.831-1.781,3.117-.093.054,2.087-.794,2.197.028,1.086-3.258.098-.026-1.001,1.054-2.333-.113-2.042" fill="none" stroke="#231f20" stroke-linecap="round" stroke-linejoin="round" stroke-width=".5"/><polyline points="67.647 117.292 67.514 112.101 67.114 111.753" fill="none" stroke="#231f20" stroke-linecap="round" stroke-linejoin="round" stroke-width=".5"/><polyline points="66.607 105.237 68.949 105.167 70.728 105.93 70.88 111.846" fill="none" stroke="#231f20" stroke-linecap="round" stroke-linejoin="round" stroke-width=".5"/><line x1="68.046" y1="106.171" x2="70.732" y2="106.091" fill="none" stroke="#231f20" stroke-linecap="round" stroke-linejoin="round" stroke-width=".5"/><line x1="69.252" y1="114.242" x2="72.247" y2="114.153" fill="none" stroke="#231f20" stroke-linecap="round" stroke-linejoin="round" stroke-width=".5"/><line x1="68.198" y1="116.575" x2="71.456" y2="116.478" fill="none" stroke="#231f20" stroke-linecap="round" stroke-linejoin="round" stroke-width=".5"/><line x1="111.528" y1="156.64" x2="111.694" y2="166.448" fill="none" stroke="#231f20" stroke-linecap="round" stroke-linejoin="round" stroke-width=".5"/><line x1="91.413" y1="157.762" x2="91.579" y2="168.568" fill="none" stroke="#231f20" stroke-linecap="round" stroke-linejoin="round" stroke-width=".5"/><polyline points="107.672 100.76 109.487 102.393 89.977 103.364 88.229 101.693" fill="none" stroke="#231f20" stroke-linecap="round" stroke-linejoin="round" stroke-width=".5"/><polyline points="146.49 98.585 148.259 99.941 110.705 102.022 109.003 100.629" fill="none" stroke="#231f20" stroke-linecap="round" stroke-linejoin="round" stroke-width=".5"/><polyline points="67.847 103.024 69.266 104.503 88.794 103.506 87.203 101.883" fill="none" stroke="#231f20" stroke-linecap="round" stroke-linejoin="round" stroke-width=".5"/><polyline points="66.522 103.145 68.004 104.625 48.788 105.659 47.977 103.975 51.794 171.636" fill="none" stroke="#231f20" stroke-linecap="round" stroke-linejoin="round" stroke-width=".5"/><line x1="35.05" y1="109.51" x2="39.099" y2="172.809" fill="none" stroke="#231f20" stroke-linecap="round" stroke-linejoin="round" stroke-width=".5"/><line x1="217.3" y1="94.631" x2="217.3" y2="125.386" fill="none" stroke="#231f20" stroke-linecap="round" stroke-linejoin="round" stroke-width=".5"/><line x1="208.545" y1="121.431" x2="208.545" y2="126.198" fill="none" stroke="#231f20" stroke-linecap="round" stroke-linejoin="round" stroke-width=".5"/><line x1="208.545" y1="95.443" x2="208.545" y2="106.829" fill="none" stroke="#231f20" stroke-linecap="round" stroke-linejoin="round" stroke-width=".5"/><path d="M186.763,97.733s-.962-1.305-3.434-1.305" fill="none" stroke="#231f20" stroke-linecap="round" stroke-linejoin="round" stroke-width=".5"/><path d="M221.426,124.351c-2.555-.331-2.85-2.38-2.85-2.38l.198-24.158s-.283-3.412,4.397-3.56" fill="none" stroke="#231f20" stroke-linecap="round" stroke-linejoin="round" stroke-width=".5"/><path d="M222.37,101.109l5.095-4.98,5.057-.454s.929.752.855,2.177l-.441.492s-4.432.273-7.717,5.268l-1.989-.822s-1.052-1.001-.859-1.681Z" fill="none" stroke="#231f20" stroke-linecap="round" stroke-linejoin="round" stroke-width=".5"/><path d="M234.497,98.11s-.108-2.047-.541-2.422l5.366-.142,5.387,4.757s-1.453,2.22-2.265,2.275c0,0-2.646-4.3-7.948-4.468Z" fill="none" stroke="#231f20" stroke-linecap="round" stroke-linejoin="round" stroke-width=".5"/><path d="M249.242,117.7s12.733-.762,13.607-.879.818-.799.818-.799l.358-20.395c.008-.992-.99-1-.99-1l-14.573.607s-.648-.178-.656.726-.09,10.674-.09,10.674" fill="none" stroke="#231f20" stroke-linecap="round" stroke-linejoin="round" stroke-width=".5"/><path d="M219.959,105.925s-.356-2.173,1.211-3.028l1.801.945,1.741.634,2.794,1.573s-1.277,3.523.196,6.388c0,0-3.579,2.76-4.702,2.751" fill="none" stroke="#231f20" stroke-linecap="round" stroke-linejoin="round" stroke-width=".5"/><path d="M226.151,103.992l2.174,1.134s1.458-2.716,4.832-3.37l.082-2.293s-3.426-.586-7.087,4.529Z" fill="none" stroke="#231f20" stroke-linecap="round" stroke-linejoin="round" stroke-width=".5"/><path d="M234.529,101.768s3.119.026,5.218,2.647l1.819-1.225s-2.775-3.805-7.017-3.902l-.021,2.48Z" fill="none" stroke="#231f20" stroke-linecap="round" stroke-linejoin="round" stroke-width=".5"/><path d="M228.254,113.558l-1.884,1.472s1.966,3.55,7.02,3.53l-.104-2.419s-2.434.104-5.031-2.584Z" fill="none" stroke="#231f20" stroke-linecap="round" stroke-linejoin="round" stroke-width=".5"/><path d="M234.408,116.151l.231,2.234s4.556-.21,6.964-4.654l-1.864-.945s-1.959,2.96-5.331,3.366Z" fill="none" stroke="#231f20" stroke-linecap="round" stroke-linejoin="round" stroke-width=".5"/><path d="M245.763,113.799l-.101.374-.445.435-.828-.69-.831-.348c-.831-.397-3.125-1.928-3.125-1.928,1.645-3.01-.046-6.194-.046-6.194,0,0,2.805-.952,3.854-3.138,0,0,1.133-.478,1.382-.915,0,0,.883.056.924,1.032l-.017,2.048" fill="none" stroke="#231f20" stroke-linecap="round" stroke-linejoin="round" stroke-width=".5"/><path d="M250.525,101.776l3.518-3.97,5.843-.391s1.666.355,1.643,2.989-.195,11.557-.195,11.557c0,0-.116,2.145-1.689,2.425s-5.845.586-5.845.586l-3.456-3.345.181-9.85Z" fill="none" stroke="#231f20" stroke-linecap="round" stroke-linejoin="round" stroke-width=".5"/><path d="M251.66,112.808l3.093-.121s1.919-.569,2.033-2.471l.154-12.533" fill="none" stroke="#231f20" stroke-linecap="round" stroke-linejoin="round" stroke-width=".5"/><path d="M240.457,120.323c2.719-2.367,4.114-4.843,4.114-4.843-.631-.786-2.15-1.042-2.15-1.042-3.181,4.851-7.895,5.202-7.895,5.202,0,0,.437.54-.305,1.217" fill="none" stroke="#231f20" stroke-linecap="round" stroke-linejoin="round" stroke-width=".5"/><path d="M233.092,120.75c.594-.629-.04-1.122-.04-1.122-4.664.205-7.817-4.113-7.817-4.113l-2.166.811" fill="none" stroke="#231f20" stroke-linecap="round" stroke-linejoin="round" stroke-width=".5"/><path d="M221.739,116.949l2.11-.031.217,3.416s.235,1.27,1.56,1.183,21.017-1.582,21.017-1.582c0,0,.686.152.647-1.068s-.168-3.318-.168-3.318l1.767-.034.311,3.856s.473,2.101-1.397,2.72l-23.766,1.754s-1.961-.211-2.14-2.31l-.158-4.586Z" fill="none" stroke="#231f20" stroke-linecap="round" stroke-linejoin="round" stroke-width=".5"/><path d="M221.739,116.949l-1.477.573.017,3.853s.318,3.026,3.758,2.47" fill="none" stroke="#231f20" stroke-linecap="round" stroke-linejoin="round" stroke-width=".5"/><polyline points="245.516 119.78 245.352 115.974 247.122 115.55" fill="none" stroke="#231f20" stroke-linecap="round" stroke-linejoin="round" stroke-width=".5"/><path d="M220.11,106.401l-.056,6.73s1.856.991,2.081-2.324c0,0,.331-4.387-2.024-4.406Z" fill="none" stroke="#231f20" stroke-linecap="round" stroke-linejoin="round" stroke-width=".5"/><path d="M221.781,107.049c2.06-.216,1.575,4.583,1.575,4.583l-1.06.06-.016,1.918-.334.793-.021,2.46" fill="none" stroke="#231f20" stroke-linecap="round" stroke-linejoin="round" stroke-width=".5"/><polyline points="223.168 111.88 223.153 113.616 222.819 114.41 222.798 116.87" fill="none" stroke="#231f20" stroke-linecap="round" stroke-linejoin="round" stroke-width=".5"/><polyline points="221.264 113.094 221.258 113.818 220.924 114.611 220.903 117.072" fill="none" stroke="#231f20" stroke-linecap="round" stroke-linejoin="round" stroke-width=".5"/><path d="M245.313,113.041l1.418-.139-.133-2.188.409-.474.024-2.916s-.493-1.513-1.532-1.37c0,0-.886.093-.976,1.727l-.021,2.489.626.785.185,2.088Z" fill="none" stroke="#231f20" stroke-linecap="round" stroke-linejoin="round" stroke-width=".5"/><path d="M246.909,112.828l.127-.058.558-.253-.136-1.922.409-.474.024-2.916s-.493-1.513-1.532-1.37l-.861.119" fill="none" stroke="#231f20" stroke-linecap="round" stroke-linejoin="round" stroke-width=".5"/><polyline points="245.872 113.043 245.86 114.453 246.308 115.027 246.303 115.568" fill="none" stroke="#231f20" stroke-linecap="round" stroke-linejoin="round" stroke-width=".5"/><polyline points="246.719 112.809 246.707 114.22 247.156 114.794 247.151 115.335" fill="none" stroke="#231f20" stroke-linecap="round" stroke-linejoin="round" stroke-width=".5"/><polyline points="247.537 112.576 247.525 113.987 247.973 114.561 247.969 115.101" fill="none" stroke="#231f20" stroke-linecap="round" stroke-linejoin="round" stroke-width=".5"/><ellipse cx="245.747" cy="108.572" rx="1.255" ry=".463" transform="translate(135.112 353.397) rotate(-89.518)" fill="none" stroke="#231f20" stroke-linecap="round" stroke-linejoin="round" stroke-width=".5"/><ellipse cx="220.994" cy="109.796" rx="1.255" ry=".463" transform="translate(109.344 329.859) rotate(-89.518)" fill="none" stroke="#231f20" stroke-linecap="round" stroke-linejoin="round" stroke-width=".5"/><ellipse cx="244.606" cy="96.138" rx="2.201" ry="2.127" transform="translate(37.871 258.419) rotate(-59.587)" fill="none" stroke="#231f20" stroke-linecap="round" stroke-linejoin="round" stroke-width=".5"/><line x1="244.733" y1="94.738" x2="244.71" y2="97.449" fill="none" stroke="#231f20" stroke-linecap="round" stroke-linejoin="round" stroke-width=".5"/><ellipse cx="222.143" cy="97.355" rx="2.027" ry="1.921" transform="translate(63.778 281.057) rotate(-72.902)" fill="none" stroke="#231f20" stroke-linecap="round" stroke-linejoin="round" stroke-width=".5"/><line x1="222.257" y1="96.06" x2="222.236" y2="98.568" fill="none" stroke="#231f20" stroke-linecap="round" stroke-linejoin="round" stroke-width=".5"/><line x1="221.194" y1="97.445" x2="223.22" y2="97.302" fill="none" stroke="#231f20" stroke-linecap="round" stroke-linejoin="round" stroke-width=".5"/><path d="M245.636,105.729l.011-1.338s1.532.124,1.817,1.762" fill="none" stroke="#231f20" stroke-linecap="round" stroke-linejoin="round" stroke-width=".5"/><path d="M250.509,104.391l2.358,1.147s1.317.791-.292,1.298l-2.038-.928" fill="none" stroke="#231f20" stroke-linecap="round" stroke-linejoin="round" stroke-width=".5"/><path d="M250.557,103.351l3.916,1.897s1.317.791-.292,1.298l-1.487.291" fill="none" stroke="#231f20" stroke-linecap="round" stroke-linejoin="round" stroke-width=".5"/><path d="M254.384,111.158l1.487-.291c1.609-.507.292-1.298.292-1.298l-2.357-1.166-2.208.141,2.958,1.315s1.317.791-.292,1.298l-2.718-1.259.008-.957" fill="none" stroke="#231f20" stroke-linecap="round" stroke-linejoin="round" stroke-width=".5"/><path d="M252.899,99.143l1.699.827s1.317.791-.292,1.298l-2.038-.928" fill="none" stroke="#231f20" stroke-linecap="round" stroke-linejoin="round" stroke-width=".5"/><path d="M253.531,98.384l2.674,1.295s1.317.791-.292,1.298l-1.487.291" fill="none" stroke="#231f20" stroke-linecap="round" stroke-linejoin="round" stroke-width=".5"/><path d="M267.04,101.615l.225-7.292s-.25-1.485-1.924-1.435l-17.606.932" fill="none" stroke="#231f20" stroke-linecap="round" stroke-linejoin="round" stroke-width=".5"/><polyline points="249.018 121.355 266.469 120.156 266.601 116.15" fill="none" stroke="#231f20" stroke-linecap="round" stroke-linejoin="round" stroke-width=".5"/><path d="M263.847,114.245l7.31,2.565s1.776.734,2.345-.7l.088-11.035s.344-1.16-1.323-1.672l-6.704-1.785s-1.335-.177-1.564.541" fill="none" stroke="#231f20" stroke-linecap="round" stroke-linejoin="round" stroke-width=".5"/><path d="M265.058,103.39l5.232,1.483s.892-.048.88,1.281l-.077,9.134" fill="none" stroke="#231f20" stroke-linecap="round" stroke-linejoin="round" stroke-width=".5"/><line x1="265.506" y1="106.078" x2="265.46" y2="111.544" fill="none" stroke="#231f20" stroke-linecap="round" stroke-linejoin="round" stroke-width=".5"/><line x1="266.338" y1="106.388" x2="266.292" y2="111.854" fill="none" stroke="#231f20" stroke-linecap="round" stroke-linejoin="round" stroke-width=".5"/><line x1="267.17" y1="106.698" x2="267.124" y2="112.164" fill="none" stroke="#231f20" stroke-linecap="round" stroke-linejoin="round" stroke-width=".5"/><ellipse cx="265.465" cy="99.381" rx=".906" ry=".7" transform="translate(140.914 354.009) rotate(-84.459)" fill="none" stroke="#231f20" stroke-linecap="round" stroke-linejoin="round" stroke-width=".5"/><path d="M244.494,93.035s3.554-.184,3.969,2.199" fill="none" stroke="#231f20" stroke-linecap="round" stroke-linejoin="round" stroke-width=".5"/><line x1="243.508" y1="96.188" x2="245.971" y2="96.089" fill="none" stroke="#231f20" stroke-linecap="round" stroke-linejoin="round" stroke-width=".5"/><line x1="268.512" y1="116.28" x2="268.512" y2="122.261" fill="none" stroke="#231f20" stroke-linecap="round" stroke-linejoin="round" stroke-width=".5"/><ellipse cx="115.875" cy="113.915" rx=".887" ry=".961" fill="#231f20"/><ellipse cx="96.189" cy="116.326" rx=".878" ry=".95" transform="translate(-4.454 3.831) rotate(-2.23)" fill="#231f20"/><ellipse cx="96.062" cy="113.053" rx=".878" ry=".95" transform="translate(-4.327 3.824) rotate(-2.23)" fill="#231f20"/><ellipse cx="97.785" cy="160.766" rx=".878" ry=".95" transform="translate(-10.982 7.217) rotate(-4.002)" fill="#231f20"/><ellipse cx="97.719" cy="157.508" rx=".878" ry=".95" transform="translate(-10.755 7.205) rotate(-4.002)" fill="#231f20"/><polygon points="110.979 105.158 112.118 105.123 111.596 106.294 110.979 105.158" fill="#231f20"/><polygon points="90.219 106.42 91.358 106.386 90.836 107.556 90.219 106.42" fill="#231f20"/><polygon points="68.9 107.221 70.04 107.186 69.517 108.356 68.9 107.221" fill="#231f20"/><polyline points="153.385 161.993 47.657 173.434 45.218 135.76 39.122 136.126" fill="none" stroke="#231f20" stroke-linecap="round" stroke-linejoin="round" stroke-width=".5"/><g clip-path="url(#b)"><path d="M147.286,138.065c-7.189-6.461-14.94-13.897-21.886-20.698-2.399-2.335-4.875-4.588-7.31-6.884-.052-.049-.054-.131-.007-.184l8.137-9.18c.09-.102.249-.108.346-.013,7.015,6.637,14.341,13.564,21.106,20.38-7.148-6.408-14.458-13.367-21.44-20.03,0,0,.346-.013.346-.013l-8.301,9.032s-.007-.183-.007-.183c2.419,2.313,4.797,4.67,7.252,6.945,7.091,6.589,15.169,14.008,21.763,20.828h0Z" fill="#231f20"/><path d="M147.168,143.647c-9.835-8.762-19.538-18.616-29.195-27.583,4.275-5.204,9.386-10.224,14.005-15.301.099-.104.264-.109.368-.01,2.572,2.436,5.118,4.899,7.654,7.372,2.472,2.466,5.297,5.003,7.561,7.471-5.237-4.772-10.428-9.595-15.572-14.467,0,0,.367-.011.367-.011-4.687,5.023-9.443,9.981-14.198,14.941,0,0-.005-.184-.005-.184,2.418,2.314,4.798,4.668,7.253,6.944,7.092,6.587,15.167,14.011,21.763,20.828h0Z" fill="#231f20"/><path d="M147.228,149.053c-7.535-6.468-14.608-13.436-21.901-20.166,0,0-7.359-6.658-7.359-6.658-.085-.077-.09-.21-.009-.293,3.287-3.539,6.603-7.05,9.945-10.537,2.987-2.955,7.217-7.616,10.179-10.315-2.789,3.098-6.93,7.559-9.814,10.662-3.31,3.517-6.646,7.01-10.011,10.474l-.009-.292,7.21,6.82c7.204,6.749,14.984,13.327,21.771,20.306h0Z" fill="#231f20"/><path d="M147.622,155.256c-7.484-6.522-14.688-13.349-21.891-20.177,0,0-7.333-6.687-7.333-6.687-.061-.056-.064-.152-.009-.213,8.194-9.201,16.589-18.634,25.083-27.359-8.11,9.346-16.416,18.517-24.858,27.563,0,0-.009-.213-.009-.213l7.236,6.791c7.294,6.651,14.944,13.371,21.781,20.295h0Z" fill="#231f20"/><path d="M148.103,161.46c-7.277-6.427-15.185-13.78-22.258-20.513-2.43-2.325-4.919-4.588-7.405-6.854-.048-.043-.05-.119-.008-.167,6.857-7.796,13.704-15.602,20.718-23.258,0,0,7.018-7.653,7.018-7.653l.006.141c-.007-.019-2.758-2.676-2.708-2.713.044-.054,2.814,2.567,2.848,2.566.04.037.041.101.006.141l-6.844,7.809c-6.783,7.553-14.134,16.102-20.874,22.959,9.581,9.069,20.299,18.302,29.501,27.541h0Z" fill="#231f20"/><path d="M144.126,163.225c-8.765-7.566-16.992-15.714-25.542-23.515,4.24-5.297,9.146-10.482,13.673-15.68,4.604-5.068,9.322-10.44,14.007-15.235-4.483,5.244-9.023,10.437-13.617,15.583-4.53,4.919-9.511,10.814-13.913,15.171,8.368,7.918,17.415,15.555,25.393,23.676h0Z" fill="#231f20"/><path d="M147.382,113.226c-8.968,10.915-19.009,21.713-28.186,32.501,0,0-.011-.205-.011-.205,3.225,2.93,11.455,10.419,14.532,13.293,0,0,4.798,4.48,4.798,4.48,0,0-.328.019-.328.019,3.278-3.689,6.483-7.52,9.822-11.117-3.047,3.853-6.333,7.608-9.476,11.414-.08.096-.222.108-.317.029-.008.005-4.841-4.445-4.85-4.445-3.069-2.811-11.246-10.505-14.381-13.456-.058-.053-.062-.145-.011-.205,9.453-10.488,18.825-22.183,28.407-32.307h0Z" fill="#231f20"/><path d="M134.791,161.563c1.749-2.6,4.198-4.562,6.133-6.995,1.959-2.401,4.008-4.817,6.335-6.844-1.785,2.531-3.947,4.823-6.131,7.027-2.211,2.116-3.965,5.032-6.337,6.812h0Z" fill="#231f20"/><path d="M147.425,119.099c-4.588,5.536-9.467,10.809-14.363,16.068-4.798,5.347-9.434,10.839-14.28,16.144,0,0-.017-.359-.017-.359,3.319,3.102,6.606,6.238,9.846,9.424.023.02-.012.058-.034.037-3.427-2.983-6.81-6.016-10.16-9.084-.102-.095-.109-.256-.017-.36,4.76-5.381,9.729-10.575,14.535-15.914,4.71-5.357,9.499-11.049,14.489-15.956h0Z" fill="#231f20"/><path d="M127.804,165.146c-3.135-2.694-6.205-5.46-9.229-8.277-.087-.08-.091-.216-.014-.304,2.412-2.648,4.924-5.205,7.295-7.889,6.856-7.77,14.502-16.653,21.678-23.855-6.661,7.912-14.457,16.361-21.55,23.97-2.428,2.633-4.714,5.394-7.102,8.064,0,0-.014-.304-.014-.304,2.97,2.798,6.25,5.709,8.935,8.595h0Z" fill="#231f20"/><path d="M122.107,165.49c-1.19-1.01-2.369-2.031-3.531-3.07-.068-.061-.075-.165-.015-.234,2.339-2.71,4.718-5.384,7.196-7.97,7.241-7.921,14.024-16.254,21.555-23.915-2.046,2.71-4.67,5.486-6.952,8.18-4.698,5.398-9.759,10.469-14.415,15.903-2.297,2.745-4.692,5.402-7.127,8.023l-.011-.238c1.051,1.084,2.445,2.24,3.301,3.319h0Z" fill="#231f20"/><path d="M147.401,132.653c-5.171-4.345-9.807-9.254-14.742-13.848-5.007-4.517-9.967-9.085-14.741-13.849-.068-.061-.07-.17-.002-.232,1.009-.909,2.012-1.913,3.051-2.75-.869,1.019-1.891,1.993-2.826,2.98,0,0-.002-.232-.002-.232,5.023,4.501,9.859,9.199,14.648,13.947,4.791,4.671,10.229,9.096,14.613,13.984h0Z" fill="#231f20"/><path d="M120.795,101.654c4.761,3.92,8.867,8.525,13.456,12.626,4.578,4.112,9.052,8.332,13.302,12.788.022.021-.012.057-.034.036-4.669-4.016-9.114-8.266-13.456-12.626-4.262-4.37-9.35-8.305-13.268-12.824h0Z" fill="#231f20"/><path d="M147.311,136.524c-3.992,5.013-8.682,9.384-12.859,14.228-4.187,4.833-8.486,9.564-13.024,14.077-.02.022-.058-.011-.037-.034,4.09-4.922,8.419-9.626,12.859-14.228,4.452-4.522,8.453-9.863,13.061-14.043h0Z" fill="#231f20"/><path d="M130.427,160.084c2.485-3.325,5.662-6.004,8.331-9.16,2.694-3.125,5.474-6.261,8.531-9.007-2.518,3.259-5.416,6.268-8.33,9.193-2.941,2.834-5.437,6.481-8.532,8.974h0Z" fill="#231f20"/><path d="M126.657,164.155c.035-.452.318-.642.663-.799.351-.486.489-1.102,1.215-1.229.02-.005.04.013.037.034-.072.734-.675.918-1.133,1.306-.13.356-.298.654-.745.722-.02.004-.039-.014-.037-.034h0Z" fill="#231f20"/><path d="M143.193,163.177c.439-.886,1.132-1.523,1.883-2.117,1.03-1.187,1.864-2.655,3.283-3.42-.7,1.477-2.047,2.41-3.164,3.53-.527.733-1.187,1.715-2.002,2.007h0Z" fill="#231f20"/></g><polyline points="12.216 92.262 11.963 93.535 8.612 93.58 8.126 94.372 5.413 94.423 3.357 62.495 4.001 61.943 6.235 61.887 6.325 62.576 9.635 62.516 9.689 61.855 10.115 61.812 10.536 62.491" fill="none" stroke="#231f20" stroke-linecap="round" stroke-linejoin="round" stroke-width=".5"/><ellipse cx="7.364" cy="69.972" rx="1.547" ry="1.925" transform="translate(-62.683 76.596) rotate(-89.395)" fill="none" stroke="#231f20" stroke-linecap="round" stroke-linejoin="round" stroke-width=".5"/><ellipse cx="8.551" cy="86.657" rx="2.026" ry="2.266" transform="translate(-78.191 94.292) rotate(-89.395)" fill="none" stroke="#231f20" stroke-linecap="round" stroke-linejoin="round" stroke-width=".5"/><path d="M102.308,166.401l-.887.073c-.166.014-.303-.112-.303-.28v-.897c0-.168.136-.316.302-.33l.887-.073c.166-.014.303.112.303.28v.897c0,.168-.136.316-.302.33Z" fill="#231f20"/><path d="M82.74,168.468l-.887.073c-.166.014-.303-.112-.303-.28v-.897c0-.168.136-.316.302-.33l.887-.073c.166-.014.303.112.303.28v.897c0,.168-.136.316-.302.33Z" fill="#231f20"/><path d="M61.036,170.77l-.887.073c-.166.014-.303-.112-.303-.28v-.897c0-.168.136-.316.302-.33l.887-.073c.166-.014.303.112.303.28v.897c0,.168-.136.316-.302.33Z" fill="#231f20"/><path d="M114.661,112.175l.115,3.458,3.706-.198-.216-6.533-3.706.198.009.26s.241.009.241.261l.009,2.191-.158.364Z" fill="#231f20"/><ellipse cx="116.591" cy="114.054" rx=".852" ry=".832" transform="translate(-38.625 164.152) rotate(-62.258)" fill="#fff"/><path d="M117.616,110.207l-.006-.19-.247.013c-.035-.073-.096-.129-.17-.16l-.008-.255-.188.01.007.221-.269.014-.007-.221-.188.01.007.221-.265.014-.007-.221-.188.01.007.221-.262.014-.007-.221-.188.01.008.248c-.077.038-.137.104-.168.184l-.247.013.006.19.218-.012.009.269-.218.012.006.19.218-.012.009.269-.218.012.006.19.218-.012.009.269-.218.012.006.19.25-.013c.036.072.096.128.171.158l.008.253.188-.01-.007-.221.269-.014.007.221.188-.01-.007-.221.265-.014.007.221.188-.01-.007-.221.262-.014.007.221.188-.01-.008-.251c.074-.037.131-.101.163-.178l.25-.013-.006-.19-.218.012-.009-.269.218-.012-.006-.19-.218.012-.009-.269.218-.012-.006-.19-.218.012-.009-.269.218-.012ZM116.412,111.277l-.152.008-.395-.588.02.608-.136.007-.027-.827.151-.008.393.589-.018-.61.136-.007.027.827ZM116.92,111.25l-.16.009-.299-.813.149-.008.226.644.19-.666.145-.008-.252.842Z" fill="#fff" stroke="#231f20" stroke-miterlimit="10" stroke-width=".02"/><polygon points="134.147 162.874 129.375 163.461 129.363 160.974 134.136 160.507 134.147 162.874" fill="#231f20"/><path d="M130.676,162.832c-.042.004-.076-.006-.103-.03-.026-.024-.039-.057-.04-.1,0-.041.013-.077.039-.107.026-.03.06-.048.102-.052s.076.006.102.032c.026.026.039.059.039.1,0,.043-.012.078-.038.107-.025.029-.059.046-.101.05ZM130.639,162.32c0-.023-.003-.06-.009-.113-.006-.053-.012-.11-.019-.172-.007-.061-.013-.12-.019-.177s-.01-.102-.011-.133c-.004-.063-.008-.121-.013-.173s-.007-.093-.007-.122c0-.053.01-.092.031-.116.021-.025.046-.039.076-.041.031-.003.056.006.077.027.02.02.031.057.031.11,0,.029-.001.07-.004.122-.003.052-.007.111-.012.177-.001.032-.004.077-.01.135s-.011.119-.017.181c-.006.062-.012.121-.017.175-.005.054-.007.092-.007.115l-.069.007Z" fill="#fff" stroke="#fff" stroke-miterlimit="10" stroke-width=".05"/><path d="M133.171,162.511l-.846.088c-.159.016-.288-.101-.289-.261v-.855c0-.16.13-.304.288-.321l.846-.088c.159-.016.288.101.289.261v.855c0,.16-.13.304-.288.321Z" fill="#fff"/><path d="M162.493,138.046v6.878s0,1.376-.963.688l-8.666-5.86" fill="none" stroke="#231f20" stroke-linecap="round" stroke-linejoin="round" stroke-width=".5"/><path d="M164.709,139.312s-.077-.292-.064-.639c.017-.476.201-1.057.98-1.13,1.346-.126,60.04-5.217,60.04-5.217l3.282,1.599s.631.084.673,1.557l-.463,27.643-61.004,7.573s-1.262.168-1.304-1.262l-.14-29.211s-.77-1.821-1.968-1.629" fill="none" stroke="#231f20" stroke-linecap="round" stroke-linejoin="round" stroke-width=".5"/><polyline points="165.813 171.373 166.282 171.747 229.14 164.301 229.157 163.124" fill="none" stroke="#231f20" stroke-linecap="round" stroke-linejoin="round" stroke-width=".5"/><line x1="167.728" y1="139.583" x2="227.47" y2="134.353" fill="none" stroke="#231f20" stroke-linecap="round" stroke-linejoin="round" stroke-width=".5"/><path d="M168.621,154.818c1.92-2.798,4.542-4.961,6.649-7.592,2.131-2.601,4.351-5.215,6.851-7.442-1.956,2.731-4.291,5.221-6.647,7.624-2.383,2.315-4.309,5.432-6.853,7.409h0Z" fill="#231f20"/><path d="M168.513,149.218c.744-1.278,1.752-2.318,2.817-3.315,1.551-1.851,2.889-3.976,4.843-5.424-1.2,2.135-3.088,3.742-4.721,5.53-.84,1.125-1.8,2.524-2.939,3.209h0Z" fill="#231f20"/><path d="M168.169,143.479c.133-.549.513-.838.954-1.091.511-.644.816-1.431,1.698-1.715.021-.009.044.013.036.034-.235.897-1.002,1.246-1.617,1.792-.227.454-.495.851-1.035,1.014-.021.008-.043-.013-.036-.034h0Z" fill="#231f20"/><path d="M168.687,160.936c2.78-3.859,6.272-7.094,9.24-10.788,2.995-3.665,6.075-7.344,9.444-10.642-2.814,3.794-6.017,7.349-9.238,10.822-3.251,3.381-6.032,7.564-9.447,10.609h0Z" fill="#231f20"/><path d="M168.891,166.675c3.663-4.789,8.032-8.947,11.882-13.57,3.861-4.612,7.834-9.124,12.05-13.422.02-.022.058.01.037.033-3.762,4.7-7.766,9.185-11.882,13.57-4.13,4.306-7.797,9.422-12.087,13.388h0Z" fill="#231f20"/><path d="M172.163,168.993c4.118-5.336,8.944-10.044,13.25-15.215,4.316-5.16,8.745-10.221,13.418-15.068.02-.023.058.01.038.033-4.217,5.248-8.677,10.281-13.25,15.215-4.586,4.854-8.707,10.519-13.455,15.034h0Z" fill="#231f20"/><path d="M178.173,167.657c4.119-5.278,8.944-9.923,13.25-15.035,4.317-5.101,8.746-10.101,13.417-14.886.02-.022.058.01.037.033-4.218,5.189-8.677,10.162-13.25,15.035-4.585,4.793-8.709,10.399-13.454,14.853h0Z" fill="#231f20"/><path d="M183.907,166.984c3.929-5.272,8.576-9.927,12.696-15.036,4.13-5.099,8.375-10.1,12.866-14.891.019-.023.058.009.038.032-4.029,5.185-8.305,10.16-12.696,15.036-4.405,4.797-8.332,10.398-12.904,14.859h0Z" fill="#231f20"/><path d="M189.593,166.122c3.916-5.188,8.547-9.753,12.652-14.778,4.116-5.014,8.346-9.929,12.821-14.631.02-.022.058.009.038.033-4.016,5.1-8.277,9.988-12.652,14.778-4.389,4.71-8.306,10.226-12.859,14.598h0Z" fill="#231f20"/><path d="M195.103,165.503c3.818-5.169,8.356-9.722,12.364-14.73,4.019-4.997,8.154-9.896,12.535-14.585.019-.023.058.009.038.032-3.918,5.082-8.084,9.955-12.364,14.73-4.295,4.695-8.11,10.193-12.573,14.552h0Z" fill="#231f20"/><path d="M200.637,164.638c3.821-5.145,8.36-9.673,12.37-14.656,4.022-4.972,8.158-9.847,12.54-14.511.019-.023.058.009.038.032-3.921,5.058-8.088,9.906-12.37,14.656-4.296,4.671-8.115,10.144-12.579,14.479h0Z" fill="#231f20"/><path d="M205.949,164.063c3.331-4.696,7.389-8.786,10.912-13.323,3.534-4.527,7.184-8.957,11.084-13.18.019-.023.058.008.038.032-3.432,4.611-7.114,9.015-10.912,13.323-3.813,4.229-7.138,9.253-11.123,13.148h0Z" fill="#231f20"/><path d="M211.027,163.584c2.06-3.131,4.842-5.65,7.093-8.621,2.277-2.941,4.642-5.898,7.3-8.478-2.097,3.066-4.583,5.902-7.09,8.654-2.538,2.663-4.593,6.115-7.303,8.445h0Z" fill="#231f20"/><path d="M216.341,162.946c1.602-2.609,3.93-4.608,5.725-7.057,1.82-2.419,3.73-4.856,5.932-6.914-1.642,2.542-3.669,4.859-5.722,7.089-2.083,2.143-3.679,5.069-5.935,6.882h0Z" fill="#231f20"/><path d="M221.089,162.266c.034-.507.341-.781.713-1.025.374-.608.526-1.33,1.307-1.618.02-.009.043.009.04.03-.073.829-.73,1.165-1.218,1.686-.138.423-.321.791-.802.957-.02.008-.043-.009-.04-.03h0Z" fill="#231f20"/><line x1="243.743" y1="148.652" x2="245.791" y2="146.031" fill="#231f20"/><path d="M243.723,148.637c.04-.507.35-.777.724-1.017.381-.603.541-1.325,1.324-1.604.02-.009.043.009.039.031-.082.828-.742,1.157-1.236,1.673-.142.421-.33.788-.812.948-.02.008-.042-.01-.039-.031h0Z" fill="#231f20"/><line x1="237.384" y1="142.146" x2="239.574" y2="139.802" fill="#231f20"/><path d="M237.366,142.129c.074-.491.396-.722.78-.917.416-.55.621-1.236,1.41-1.427.02-.007.042.013.036.034-.138.8-.807,1.051-1.328,1.503-.169.396-.378.734-.862.841-.02.006-.041-.013-.036-.034h0Z" fill="#231f20"/><path d="M168.586,144.211c4.209,3.249,7.777,7.196,11.817,10.63,4.029,3.444,7.957,7,11.667,10.795.022.02-.011.057-.034.037-4.119-3.347-8.019-6.933-11.817-10.63-3.719-3.709-8.254-6.967-11.633-10.832h0Z" fill="#231f20"/><path d="M171.277,140.793c4.692,3.7,8.742,8.098,13.265,11.983,4.512,3.895,8.922,7.902,13.114,12.148.022.02-.011.058-.034.037-4.601-3.798-8.984-7.835-13.265-11.983-4.201-4.16-9.22-7.87-13.08-12.185h0Z" fill="#231f20"/><path d="M176.909,140.38c4.618,3.625,8.596,7.948,13.046,11.759,4.439,3.821,8.776,7.753,12.895,11.924.022.02-.011.058-.034.037-4.528-3.723-8.838-7.685-13.046-11.759-4.128-4.085-9.074-7.72-12.861-11.961h0Z" fill="#231f20"/><path d="M182.688,139.714c4.588,3.647,8.532,7.987,12.951,11.818,4.408,3.841,8.713,7.792,12.799,11.982.022.02-.011.057-.034.037-4.498-3.744-8.775-7.725-12.951-11.818-4.096-4.103-9.011-7.761-12.765-12.019h0Z" fill="#231f20"/><path d="M188.321,139.502c4.526,3.572,8.408,7.84,12.765,11.596,4.346,3.767,8.589,7.645,12.613,11.761.022.02-.011.057-.034.037-4.435-3.669-8.651-7.577-12.765-11.596-4.034-4.03-8.887-7.613-12.579-11.798h0Z" fill="#231f20"/><path d="M193.751,139.091c4.45,3.468,8.26,7.633,12.542,11.286,4.271,3.663,8.44,7.437,12.391,11.451.022.02-.011.057-.034.037-4.36-3.565-8.502-7.37-12.542-11.286-3.961-3.928-8.738-7.404-12.358-11.488h0Z" fill="#231f20"/><path d="M199.194,138.023c4.209,3.249,7.777,7.196,11.817,10.63,4.029,3.444,7.957,7,11.667,10.795.022.02-.011.057-.034.037-4.119-3.347-8.019-6.933-11.817-10.63-3.719-3.709-8.254-6.967-11.633-10.832h0Z" fill="#231f20"/><path d="M204.247,137.651c3.566,2.629,6.494,5.958,9.893,8.772,3.368,2.84,6.749,5.766,9.743,8.974-3.5-2.662-6.755-5.708-9.926-8.771-3.08-3.091-6.969-5.726-9.71-8.976h0Z" fill="#231f20"/><path d="M209.835,137.102c2.907,2.029,5.178,4.759,7.918,6.974,2.709,2.24,5.433,4.568,7.767,7.176-2.84-2.064-5.438-4.508-7.95-6.972-2.423-2.491-5.65-4.527-7.735-7.178h0Z" fill="#231f20"/><path d="M215.533,136.633c2.382,1.609,4.117,3.91,6.33,5.703,2.181,1.816,4.376,3.723,6.176,5.902-2.313-1.646-4.382-3.662-6.362-5.701-1.893-2.064-4.59-3.683-6.144-5.903h0Z" fill="#231f20"/><path d="M220.632,136.034c1.109.631,1.973,1.519,2.794,2.464,1.562,1.355,3.402,2.505,4.551,4.254-1.852-1.014-3.163-2.697-4.66-4.134-.955-.722-2.174-1.572-2.685-2.584h0Z" fill="#231f20"/><line x1="237.165" y1="146.828" x2="243.76" y2="139.529" fill="#231f20"/><path d="M237.147,146.811c.619-1.102,1.496-1.96,2.431-2.775,1.336-1.551,2.468-3.38,4.199-4.519-.995,1.84-2.659,3.141-4.078,4.628-.711.948-1.548,2.161-2.552,2.666h0Z" fill="#231f20"/><line x1="239.531" y1="149.093" x2="245.924" y2="141.492" fill="#231f20"/><path d="M239.512,149.077c.587-1.132,1.441-2.03,2.354-2.886,1.293-1.613,2.372-3.496,4.074-4.711-.941,1.889-2.572,3.264-3.95,4.815-.685.982-1.486,2.233-2.478,2.782h0Z" fill="#231f20"/><line x1="237.518" y1="142.549" x2="243.357" y2="148.64" fill="#231f20"/><path d="M237.536,142.532c.934.571,1.606,1.38,2.23,2.245,1.25,1.233,2.792,2.284,3.601,3.881-1.561-.917-2.539-2.455-3.717-3.769-.775-.65-1.798-1.447-2.113-2.357h0Z" fill="#231f20"/><line x1="239.984" y1="140.083" x2="245.673" y2="145.771" fill="#231f20"/><path d="M240.002,140.065c.911.516,1.565,1.277,2.173,2.093,1.218,1.148,2.724,2.11,3.507,3.63-1.522-.827-2.474-2.284-3.622-3.516-.755-.598-1.757-1.34-2.058-2.208h0Z" fill="#231f20"/><path d="M226.058,135.487c.402-.019.543.215.654.512.059.072.146.113.243.143.392.114.68.345.748.821.003.02-.013.038-.033.037-.688-.004-.735-.49-1.066-.881-.306-.078-.555-.193-.58-.595-.002-.02.014-.037.033-.037h0Z" fill="#231f20"/><path d="M168.993,149.994c3.249,2.415,5.851,5.522,8.93,8.121,3.048,2.624,6.108,5.334,8.777,8.321-3.182-2.448-6.115-5.276-8.963-8.12-2.757-2.871-6.328-5.297-8.744-8.322h0Z" fill="#231f20"/><path d="M168.318,155.586c2.388,1.564,4.137,3.828,6.357,5.578,2.189,1.773,4.393,3.638,6.206,5.779-2.319-1.602-4.398-3.577-6.389-5.576-1.904-2.025-4.606-3.595-6.174-5.781h0Z" fill="#231f20"/><path d="M168.725,161.412c1.043.602,1.837,1.456,2.585,2.368,1.447,1.301,3.176,2.404,4.2,4.09-1.742-.967-2.932-2.59-4.312-3.973-.888-.69-2.035-1.513-2.474-2.486h0Z" fill="#231f20"/><path d="M168.836,167.192c.487.061.717.374.914.75.548.398,1.227.584,1.422,1.361.007.02-.012.042-.033.037-.793-.116-1.046-.772-1.497-1.278-.393-.157-.729-.355-.838-.833-.006-.02.013-.041.033-.037h0Z" fill="#231f20"/><ellipse cx="163.993" cy="147.266" rx=".596" ry="2.012" transform="translate(-6.197 7.208) rotate(-2.471)" fill="none" stroke="#231f20" stroke-linecap="round" stroke-linejoin="round" stroke-width=".5"/><ellipse cx="159.599" cy="140.297" rx=".734" ry="2.485" transform="translate(-5.901 7.012) rotate(-2.471)" fill="none" stroke="#231f20" stroke-linecap="round" stroke-linejoin="round" stroke-width=".5"/><ellipse cx="164.186" cy="166.372" rx=".596" ry="2.012" transform="translate(-7.331 7.568) rotate(-2.583)" fill="none" stroke="#231f20" stroke-linecap="round" stroke-linejoin="round" stroke-width=".5"/><path d="M225.565,158.02l-.424.022c-.36.018-.656-.255-.657-.607l-.002-.65c0-.352.293-.656.654-.674l.424-.022c.36-.018.656.255.657.607l.002.65c0,.352-.293.656-.654.674Z" fill="#231f20"/><line x1="244.138" y1="139.545" x2="245.767" y2="141.038" fill="#231f20"/><path d="M244.155,139.526c.403-.014.541.221.649.519.058.073.145.115.241.146.391.118.677.352.739.829.003.02-.014.038-.034.037-.688-.012-.73-.498-1.056-.892-.306-.082-.553-.199-.573-.601-.002-.02.014-.037.034-.037h0Z" fill="#231f20"/><line x1="237.077" y1="147.341" x2="238.936" y2="149.092" fill="#231f20"/><path d="M237.094,147.323c.433.02.6.287.736.616.46.335,1.022.421,1.123,1.135.004.02-.014.039-.034.036-.72-.059-.837-.614-1.2-1.053-.336-.115-.613-.267-.659-.697-.003-.02.014-.038.034-.036h0Z" fill="#231f20"/><polygon points="105.381 132.487 97.737 133.116 97.358 119.877 105.047 119.285 105.381 132.487" fill="none" stroke="#231f20" stroke-linecap="round" stroke-linejoin="round" stroke-width=".53"/><polyline points="97.738 133.131 96.561 132.356 96.181 119.117 103.572 118.554 105.054 119.254" fill="none" stroke="#231f20" stroke-linecap="round" stroke-linejoin="round" stroke-width=".53"/><line x1="97.352" y1="119.791" x2="96.329" y2="119.198" fill="none" stroke="#231f20" stroke-linecap="round" stroke-linejoin="round" stroke-width=".5"/><polygon points="106.201 153.997 98.558 154.631 98.178 141.392 105.867 140.8 106.201 153.997" fill="none" stroke="#231f20" stroke-linecap="round" stroke-linejoin="round" stroke-width=".53"/><polyline points="98.558 154.646 97.381 153.871 97.002 140.633 104.392 140.069 105.874 140.77" fill="none" stroke="#231f20" stroke-linecap="round" stroke-linejoin="round" stroke-width=".53"/><line x1="98.172" y1="141.307" x2="97.149" y2="140.713" fill="none" stroke="#231f20" stroke-linecap="round" stroke-linejoin="round" stroke-width=".5"/><ellipse cx="75.508" cy="117.647" rx=".877" ry=".951" transform="translate(-9.075 6.345) rotate(-4.54)" fill="#231f20"/><ellipse cx="75.361" cy="114.374" rx=".877" ry=".951" transform="translate(-8.816 6.323) rotate(-4.54)" fill="#231f20"/><ellipse cx="77.37" cy="162.087" rx=".877" ry=".951" transform="translate(-17.285 9.448) rotate(-6.287)" fill="#231f20"/><ellipse cx="77.285" cy="158.828" rx=".877" ry=".951" transform="translate(-16.929 9.419) rotate(-6.287)" fill="#231f20"/><polygon points="84.796 133.808 77.156 134.436 76.697 121.198 84.383 120.606 84.796 133.808" fill="none" stroke="#231f20" stroke-linecap="round" stroke-linejoin="round" stroke-width=".53"/><polyline points="77.157 134.452 75.975 133.677 75.516 120.438 82.904 119.874 84.389 120.575" fill="none" stroke="#231f20" stroke-linecap="round" stroke-linejoin="round" stroke-width=".53"/><line x1="76.691" y1="121.112" x2="75.664" y2="120.518" fill="none" stroke="#231f20" stroke-linecap="round" stroke-linejoin="round" stroke-width=".5"/><polygon points="85.746 155.318 78.106 155.952 77.647 142.713 85.332 142.121 85.746 155.318" fill="none" stroke="#231f20" stroke-linecap="round" stroke-linejoin="round" stroke-width=".53"/><polyline points="78.107 155.967 76.925 155.192 76.466 141.953 83.853 141.39 85.339 142.09" fill="none" stroke="#231f20" stroke-linecap="round" stroke-linejoin="round" stroke-width=".53"/><line x1="77.641" y1="142.627" x2="76.614" y2="142.034" fill="none" stroke="#231f20" stroke-linecap="round" stroke-linejoin="round" stroke-width=".5"/><ellipse cx="53.774" cy="119.104" rx=".879" ry=".948" transform="translate(-14.26 7.53) rotate(-7.075)" fill="#231f20"/><ellipse cx="53.607" cy="115.841" rx=".879" ry=".948" transform="translate(-13.86 7.485) rotate(-7.075)" fill="#231f20"/><ellipse cx="55.909" cy="163.409" rx=".879" ry=".949" transform="translate(-24.639 10.633) rotate(-8.911)" fill="#231f20"/><ellipse cx="55.805" cy="160.161" rx=".879" ry=".949" transform="translate(-24.137 10.578) rotate(-8.911)" fill="#231f20"/><polygon points="63.188 135.209 55.529 135.842 54.989 122.643 62.694 122.047 63.188 135.209" fill="none" stroke="#231f20" stroke-linecap="round" stroke-linejoin="round" stroke-width=".53"/><polyline points="55.53 135.857 54.34 135.085 53.8 121.887 61.206 121.319 62.7 122.017" fill="none" stroke="#231f20" stroke-linecap="round" stroke-linejoin="round" stroke-width=".53"/><line x1="54.982" y1="122.558" x2="53.948" y2="121.967" fill="none" stroke="#231f20" stroke-linecap="round" stroke-linejoin="round" stroke-width=".5"/><polygon points="64.27 156.654 56.611 157.292 56.071 144.093 63.776 143.497 64.27 156.654" fill="none" stroke="#231f20" stroke-linecap="round" stroke-linejoin="round" stroke-width=".53"/><polyline points="56.612 157.307 55.422 156.535 54.881 143.337 62.288 142.769 63.782 143.467" fill="none" stroke="#231f20" stroke-linecap="round" stroke-linejoin="round" stroke-width=".53"/><line x1="56.064" y1="144.008" x2="55.03" y2="143.417" fill="none" stroke="#231f20" stroke-linecap="round" stroke-linejoin="round" stroke-width=".5"/><path d="M341.361,97.797c.85.544,1.489,1.286,2.087,2.073,1.169,1.14,2.576,2.126,3.385,3.57-1.424-.875-2.37-2.271-3.48-3.477-.72-.611-1.649-1.34-1.992-2.166h0Z" fill="#231f20"/><path d="M338.71,90.009c1.197.887,2.185,1.973,3.132,3.105,1.748,1.714,3.734,3.269,5.128,5.291-2.004-1.44-3.531-3.421-5.223-5.197-1.065-.956-2.353-2.026-3.036-3.199h0Z" fill="#231f20"/><path d="M345.909,122.252c-1.213-1.043-2.205-2.274-3.153-3.547-1.761-1.96-3.768-3.775-5.156-6.021,2.034,1.701,3.556,3.915,5.257,5.933,1.076,1.105,2.371,2.337,3.052,3.634h0Z" fill="#231f20"/><path d="M345.72,126.737c-1.182-1.033-2.142-2.251-3.057-3.51-1.708-1.94-3.664-3.738-4.996-5.959,1.983,1.684,3.45,3.876,5.098,5.872,1.045,1.093,2.307,2.316,2.956,3.597h0Z" fill="#231f20"/><path d="M339.515,93.136c.168-.508.539-.807.959-1.072.516-.626.866-1.373,1.688-1.701.017-.008.038.01.03.028-.29.836-1.02,1.22-1.621,1.765-.244.432-.526.816-1.026,1.008-.017.008-.037-.011-.03-.028h0Z" fill="#231f20"/><path d="M344.671,129.968c-1.068-.907-1.913-1.997-2.714-3.13-1.517-1.729-3.284-3.316-4.424-5.324,1.793,1.475,3.069,3.452,4.526,5.238.932.966,2.077,2.063,2.613,3.216h0Z" fill="#231f20"/><path d="M341.657,94.384c.357-.712.92-1.22,1.531-1.69.838-.948,1.516-2.129,2.67-2.726-.568,1.19-1.664,1.926-2.573,2.818-.427.587-.968,1.376-1.628,1.599h0Z" fill="#231f20"/><path d="M337.84,102.691c.81-1.193,1.827-2.184,2.891-3.136,1.595-1.75,3.022-3.732,4.937-5.139-1.312,1.996-3.181,3.534-4.84,5.231-.884,1.063-1.874,2.354-2.988,3.044h0Z" fill="#231f20"/><path d="M347.423,97.012c-1.025,1.429-2.26,2.658-3.54,3.847-1.956,2.145-3.742,4.521-6.019,6.326,1.669-2.391,3.903-4.325,5.921-6.417,1.101-1.299,2.306-2.831,3.637-3.756h0Z" fill="#231f20"/><path d="M347.173,101.643c-1.056,1.417-2.317,2.631-3.624,3.805-2.003,2.122-3.839,4.477-6.157,6.253,1.72-2.372,3.997-4.278,6.061-6.346,1.129-1.286,2.366-2.804,3.72-3.712h0Z" fill="#231f20"/><path d="M337.459,115.786c.996-1.374,2.198-2.545,3.446-3.677,1.904-2.051,3.64-4.334,5.862-6.04-1.62,2.299-3.8,4.136-5.766,6.132-1.07,1.243-2.246,2.717-3.543,3.584h0Z" fill="#231f20"/><path d="M337.19,120.1c.982-1.383,2.173-2.566,3.409-3.709,1.883-2.069,3.597-4.368,5.801-6.096-1.597,2.314-3.758,4.172-5.704,6.187-1.057,1.253-2.218,2.739-3.507,3.618h0Z" fill="#231f20"/><path d="M346.217,112.756c-1.219-.953-2.226-2.102-3.191-3.295-1.781-1.82-3.804-3.485-5.225-5.605,2.043,1.55,3.598,3.633,5.322,5.513,1.086,1.02,2.394,2.158,3.094,3.387h0Z" fill="#231f20"/><path d="M346.491,118.106c-1.283-1.087-2.349-2.364-3.371-3.685-1.881-2.037-4.008-3.925-5.521-6.252,2.151,1.773,3.798,4.068,5.621,6.163,1.147,1.151,2.516,2.425,3.271,3.774h0Z" fill="#231f20"/><path d="M339.056,100.321c1.097.797,1.984,1.792,2.83,2.833,1.581,1.563,3.401,2.969,4.625,4.837-1.838-1.292-3.196-3.118-4.72-4.743-.965-.865-2.151-1.846-2.735-2.926h0Z" fill="#231f20"/><path d="M346.071,115.13c-.878,1.243-1.961,2.283-3.091,3.283-1.706,1.832-3.247,3.898-5.27,5.384,1.425-2.081,3.404-3.698,5.173-5.476.951-1.113,2.01-2.453,3.187-3.191h0Z" fill="#231f20"/><path d="M337.055,128.39c.954-1.301,2.113-2.398,3.317-3.454,1.832-1.927,3.499-4.088,5.645-5.667-1.552,2.179-3.656,3.888-5.549,5.76-1.027,1.17-2.163,2.569-3.412,3.36h0Z" fill="#231f20"/><path d="M342.808,90.59c.579.261.945.718,1.273,1.223.717.666,1.674,1.187,2.024,2.155-.966-.413-1.462-1.321-2.12-2.061-.501-.335-.954-.706-1.207-1.288-.009-.017.012-.038.029-.029h0Z" fill="#231f20"/><path d="M345.869,123.488c-.878,1.243-1.961,2.283-3.091,3.283-1.706,1.832-3.247,3.898-5.27,5.384,1.425-2.081,3.404-3.698,5.173-5.476.951-1.113,2.01-2.454,3.187-3.191h0Z" fill="#231f20"/><path d="M344.671,133.877c-1.069-.907-1.913-1.997-2.714-3.13-1.517-1.729-3.284-3.316-4.424-5.324,1.793,1.475,3.069,3.452,4.526,5.238.932.966,2.077,2.063,2.613,3.216h0Z" fill="#231f20"/><path d="M343.907,136.764c-1.036-.751-1.861-1.699-2.644-2.692-1.477-1.485-3.195-2.815-4.312-4.601,1.737,1.217,2.989,2.962,4.409,4.508.904.818,2.026,1.754,2.547,2.784h0Z" fill="#231f20"/><path d="M340.792,136.997c-.609-.322-.998-.835-1.349-1.393-.759-.761-1.763-1.383-2.147-2.434,1.018.513,1.547,1.512,2.245,2.343.481.382,1.146.894,1.25,1.484h0Z" fill="#231f20"/><path d="M344.835,128.15c-1.01,1.296-2.218,2.382-3.47,3.426-1.917,1.912-3.677,4.063-5.898,5.618,1.644-2.171,3.828-3.858,5.805-5.714,1.078-1.163,2.272-2.552,3.563-3.33h0Z" fill="#231f20"/><path d="M338.404,137.624c.653-.928,1.5-1.641,2.391-2.313,1.317-1.294,2.484-2.83,4.099-3.76-1.054,1.555-2.627,2.622-4.007,3.857-.718.796-1.556,1.804-2.483,2.216h0Z" fill="#231f20"/><ellipse cx="297.88" cy="101.639" rx=".785" ry=".708" transform="translate(105.961 351.1) rotate(-71.268)" fill="#231f20"/><ellipse cx="297.944" cy="98.963" rx=".785" ry=".708" transform="translate(108.54 349.343) rotate(-71.268)" fill="#231f20"/><ellipse cx="296.902" cy="137.987" rx=".784" ry=".709" transform="translate(75.394 379.079) rotate(-72.351)" fill="#231f20"/><ellipse cx="297.016" cy="135.322" rx=".784" ry=".709" transform="translate(78.013 377.331) rotate(-72.351)" fill="#231f20"/><polygon points="304.54 114.851 298.281 115.371 298.65 104.543 304.944 104.053 304.54 114.851" fill="none" stroke="#231f20" stroke-linecap="round" stroke-linejoin="round" stroke-width=".433"/><polyline points="298.281 115.384 297.361 114.751 297.73 103.923 303.78 103.456 304.951 104.028" fill="none" stroke="#231f20" stroke-linecap="round" stroke-linejoin="round" stroke-width=".433"/><line x1="298.65" y1="104.473" x2="297.847" y2="103.988" fill="none" stroke="#231f20" stroke-linecap="round" stroke-linejoin="round" stroke-width=".408"/><polygon points="304.105 132.444 297.846 132.968 298.216 122.141 304.51 121.651 304.105 132.444" fill="none" stroke="#231f20" stroke-linecap="round" stroke-linejoin="round" stroke-width=".433"/><polyline points="297.846 132.981 296.927 132.348 297.296 121.52 303.346 121.053 304.517 121.626" fill="none" stroke="#231f20" stroke-linecap="round" stroke-linejoin="round" stroke-width=".433"/><line x1="298.215" y1="122.07" x2="297.412" y2="121.586" fill="none" stroke="#231f20" stroke-linecap="round" stroke-linejoin="round" stroke-width=".408"/><ellipse cx="312.679" cy="100.864" rx=".778" ry=".702" transform="translate(116.742 364.589) rotate(-71.268)" fill="#231f20"/><ellipse cx="311.329" cy="136.745" rx=".777" ry=".703" transform="translate(86.631 391.962) rotate(-72.351)" fill="#231f20"/><ellipse cx="311.442" cy="134.103" rx=".777" ry=".703" transform="translate(89.227 390.229) rotate(-72.351)" fill="#231f20"/><polygon points="318.899 113.816 312.696 114.331 313.062 103.6 319.3 103.114 318.899 113.816" fill="none" stroke="#231f20" stroke-linecap="round" stroke-linejoin="round" stroke-width=".429"/><polyline points="312.696 114.343 311.784 113.716 312.15 102.985 318.146 102.522 319.307 103.089" fill="none" stroke="#231f20" stroke-linecap="round" stroke-linejoin="round" stroke-width=".429"/><line x1="313.061" y1="103.53" x2="312.265" y2="103.05" fill="none" stroke="#231f20" stroke-linecap="round" stroke-linejoin="round" stroke-width=".404"/><polygon points="318.468 131.251 312.265 131.771 312.631 121.04 318.869 120.554 318.468 131.251" fill="none" stroke="#231f20" stroke-linecap="round" stroke-linejoin="round" stroke-width=".429"/><polyline points="312.265 131.783 311.354 131.156 311.72 120.425 317.716 119.962 318.876 120.529" fill="none" stroke="#231f20" stroke-linecap="round" stroke-linejoin="round" stroke-width=".429"/><line x1="312.631" y1="120.97" x2="311.835" y2="120.49" fill="none" stroke="#231f20" stroke-linecap="round" stroke-linejoin="round" stroke-width=".404"/><ellipse cx="325.695" cy="99.968" rx=".768" ry=".693" transform="translate(126.427 376.306) rotate(-71.268)" fill="#231f20"/><ellipse cx="324.737" cy="135.556" rx=".767" ry=".694" transform="translate(97.107 403.91) rotate(-72.351)" fill="#231f20"/><ellipse cx="324.848" cy="132.946" rx=".767" ry=".694" transform="translate(99.671 402.198) rotate(-72.351)" fill="#231f20"/><polygon points="332.215 112.904 326.087 113.413 326.449 102.811 332.611 102.331 332.215 112.904" fill="none" stroke="#231f20" stroke-linecap="round" stroke-linejoin="round" stroke-width=".424"/><polyline points="326.087 113.425 325.187 112.805 325.548 102.203 331.472 101.747 332.618 102.307" fill="none" stroke="#231f20" stroke-linecap="round" stroke-linejoin="round" stroke-width=".424"/><line x1="326.448" y1="102.742" x2="325.662" y2="102.268" fill="none" stroke="#231f20" stroke-linecap="round" stroke-linejoin="round" stroke-width=".4"/><polygon points="331.79 130.129 325.662 130.642 326.023 120.04 332.186 119.561 331.79 130.129" fill="none" stroke="#231f20" stroke-linecap="round" stroke-linejoin="round" stroke-width=".424"/><polyline points="325.661 130.654 324.761 130.034 325.123 119.433 331.046 118.976 332.193 119.536" fill="none" stroke="#231f20" stroke-linecap="round" stroke-linejoin="round" stroke-width=".424"/><line x1="326.023" y1="119.972" x2="325.236" y2="119.497" fill="none" stroke="#231f20" stroke-linecap="round" stroke-linejoin="round" stroke-width=".4"/><line x1="269.341" y1="135.953" x2="269.106" y2="148.036" fill="none" stroke="#231f20" stroke-linecap="round" stroke-linejoin="round" stroke-width=".5"/><line x1="269.715" y1="116.718" x2="269.593" y2="123.012" fill="none" stroke="#231f20" stroke-linecap="round" stroke-linejoin="round" stroke-width=".5"/><polyline points="348.226 88.942 348.226 88.51 270.181 92.749 269.99 102.375" fill="none" stroke="#231f20" stroke-linecap="round" stroke-linejoin="round" stroke-width=".5"/><line x1="229.378" y1="152.714" x2="345.9" y2="139.748" fill="none" stroke="#231f20" stroke-linecap="round" stroke-linejoin="round" stroke-width=".5"/><line x1="293.574" y1="91.94" x2="291.549" y2="145.713" fill="none" stroke="#231f20" stroke-linecap="round" stroke-linejoin="round" stroke-width=".5"/><polygon points="281.851 108.365 274.783 108.745 274.786 104.264 281.958 104.091 281.851 108.365" fill="none" stroke="#231f20" stroke-linecap="round" stroke-linejoin="round" stroke-width=".5"/><polygon points="281.464 130.868 274.136 131.613 274.341 120.123 281.676 119.682 281.464 130.868" fill="none" stroke="#231f20" stroke-linecap="round" stroke-linejoin="round" stroke-width=".5"/><polyline points="281.469 126.6 280.704 126.658 280.726 127.67 279.716 127.754 279.704 129.742 275.662 130.198 275.769 121.446 279.693 121.234 279.739 123.349 280.809 123.28 280.83 124.237 281.425 124.232" fill="none" stroke="#231f20" stroke-linecap="round" stroke-linejoin="round" stroke-width=".5"/><line x1="279.716" y1="127.754" x2="275.978" y2="126.814" fill="none" stroke="#231f20" stroke-linecap="round" stroke-linejoin="round" stroke-width=".5"/><line x1="280.66" y1="126.653" x2="275.818" y2="125.402" fill="none" stroke="#231f20" stroke-linecap="round" stroke-linejoin="round" stroke-width=".5"/><line x1="279.754" y1="129.501" x2="276.016" y2="128.562" fill="none" stroke="#231f20" stroke-linecap="round" stroke-linejoin="round" stroke-width=".5"/><polygon points="281.084 144.311 273.713 145.354 273.909 133.924 281.286 133.183 281.084 144.311" fill="none" stroke="#231f20" stroke-linecap="round" stroke-linejoin="round" stroke-width=".5"/><polyline points="281.084 140.069 280.315 140.158 280.338 141.163 279.322 141.288 279.312 143.265 275.246 143.884 275.347 135.18 279.294 134.808 279.342 136.908 280.418 136.796 280.44 137.746 281.039 137.716" fill="none" stroke="#231f20" stroke-linecap="round" stroke-linejoin="round" stroke-width=".5"/><line x1="279.322" y1="141.288" x2="275.561" y2="140.508" fill="none" stroke="#231f20" stroke-linecap="round" stroke-linejoin="round" stroke-width=".5"/><line x1="280.271" y1="140.154" x2="275.399" y2="139.111" fill="none" stroke="#231f20" stroke-linecap="round" stroke-linejoin="round" stroke-width=".5"/><line x1="279.362" y1="143.023" x2="275.6" y2="142.243" fill="none" stroke="#231f20" stroke-linecap="round" stroke-linejoin="round" stroke-width=".5"/><polyline points="274.899 104.387 280.605 106.201 280.63 107.35 274.922 107.706" fill="none" stroke="#231f20" stroke-linecap="round" stroke-linejoin="round" stroke-width=".5"/><line x1="274.85" y1="106.425" x2="280.605" y2="106.201" fill="none" stroke="#231f20" stroke-linecap="round" stroke-linejoin="round" stroke-width=".5"/><ellipse cx="274.565" cy="101.684" rx=".671" ry=".828" transform="translate(-3.144 8.931) rotate(-1.853)" fill="#231f20"/><ellipse cx="274.548" cy="99.129" rx=".671" ry=".828" transform="translate(-3.062 8.929) rotate(-1.853)" fill="#231f20"/><ellipse cx="274.532" cy="96.574" rx=".671" ry=".828" transform="translate(-2.979 8.927) rotate(-1.853)" fill="#231f20"/><path d="M275.9,117.734h0c-.576-.048-1.043-.584-1.037-1.191l.044-4.588c.006-.607.482-1.065,1.058-1.018h0c.576.048,1.043.584,1.037,1.191l-.044,4.588c-.006.607-.482,1.065-1.058,1.018Z" fill="none" stroke="#231f20" stroke-miterlimit="10" stroke-width=".5"/><path d="M288.232,103.302l-1.007,37.656s.118,1.549-2.22,3.392" fill="none" stroke="#231f20" stroke-linecap="round" stroke-linejoin="round" stroke-width=".5"/><line x1="284.954" y1="146.155" x2="286.05" y2="100.719" fill="none" stroke="#231f20" stroke-linecap="round" stroke-linejoin="round" stroke-width=".5"/><polygon points="287.308 102.882 287.3 100.265 285.329 100.208 285.34 98.512 284.456 97.803 284.528 94.603 285.49 94.632 285.586 92.594 288.204 92.929 288.112 99.667 290.051 98.125 290.088 99.966 288.026 101.955 287.95 102.917 287.308 102.882" fill="none" stroke="#231f20" stroke-linecap="round" stroke-linejoin="round" stroke-width=".5"/><polyline points="290.301 98.001 290.399 92.739 288.204 92.929" fill="none" stroke="#231f20" stroke-linecap="round" stroke-linejoin="round" stroke-width=".5"/><polyline points="290.051 98.125 292.297 98.079 292.333 99.838 290.123 99.883" fill="none" stroke="#231f20" stroke-linecap="round" stroke-linejoin="round" stroke-width=".5"/><polyline points="292.339 99.808 290.075 101.967 290.063 102.864 287.95 102.917" fill="none" stroke="#231f20" stroke-linecap="round" stroke-linejoin="round" stroke-width=".5"/><line x1="290.075" y1="101.967" x2="288.026" y2="101.955" fill="none" stroke="#231f20" stroke-linecap="round" stroke-linejoin="round" stroke-width=".5"/><polyline points="285.586 92.594 287.678 92.333 290.399 92.739" fill="none" stroke="#231f20" stroke-linecap="round" stroke-linejoin="round" stroke-width=".5"/><polygon points="288.711 94.037 289.847 93.93 289.396 95.198 288.711 94.037" fill="#231f20"/><line x1="295.219" y1="91.694" x2="293.152" y2="145.688" fill="none" stroke="#231f20" stroke-linecap="round" stroke-linejoin="round" stroke-width=".5"/><path d="M323.155,100.944l-1.071,33.953s.095,3.875-2.552,6.144" fill="none" stroke="#231f20" stroke-linecap="round" stroke-linejoin="round" stroke-width=".5"/><line x1="319.431" y1="142.694" x2="321.026" y2="98.462" fill="none" stroke="#231f20" stroke-linecap="round" stroke-linejoin="round" stroke-width=".5"/><polygon points="322.239 100.53 322.285 98.057 320.316 97.965 320.362 96.362 319.492 95.675 319.629 92.653 320.591 92.699 320.728 90.775 323.339 91.141 323.11 97.507 325.079 96.088 325.079 97.828 322.976 99.668 322.881 100.576 322.239 100.53" fill="none" stroke="#231f20" stroke-linecap="round" stroke-linejoin="round" stroke-width=".5"/><polyline points="325.332 95.975 325.537 91.004 323.339 91.141" fill="none" stroke="#231f20" stroke-linecap="round" stroke-linejoin="round" stroke-width=".5"/><polyline points="325.079 96.088 327.326 96.088 327.326 97.75 325.115 97.75" fill="none" stroke="#231f20" stroke-linecap="round" stroke-linejoin="round" stroke-width=".5"/><polyline points="327.332 97.722 325.025 99.718 324.994 100.566 322.881 100.576" fill="none" stroke="#231f20" stroke-linecap="round" stroke-linejoin="round" stroke-width=".5"/><line x1="325.025" y1="99.718" x2="322.976" y2="99.668" fill="none" stroke="#231f20" stroke-linecap="round" stroke-linejoin="round" stroke-width=".5"/><polyline points="320.728 90.775 322.824 90.569 325.537 91.004" fill="none" stroke="#231f20" stroke-linecap="round" stroke-linejoin="round" stroke-width=".5"/><polygon points="323.823 92.198 324.96 92.119 324.484 93.309 323.823 92.198" fill="#231f20"/><path d="M309.462,101.547l-1.071,33.953s.095,3.875-2.552,6.144" fill="none" stroke="#231f20" stroke-linecap="round" stroke-linejoin="round" stroke-width=".5"/><line x1="305.745" y1="143.582" x2="307.333" y2="99.065" fill="none" stroke="#231f20" stroke-linecap="round" stroke-linejoin="round" stroke-width=".5"/><polygon points="308.547 101.133 308.593 98.66 306.623 98.568 306.669 96.965 305.799 96.278 305.936 93.256 306.898 93.301 307.036 91.378 309.646 91.744 309.417 98.11 311.386 96.69 311.386 98.431 309.284 100.271 309.188 101.179 308.547 101.133" fill="none" stroke="#231f20" stroke-linecap="round" stroke-linejoin="round" stroke-width=".5"/><polyline points="311.64 96.578 311.844 91.607 309.646 91.744" fill="none" stroke="#231f20" stroke-linecap="round" stroke-linejoin="round" stroke-width=".5"/><polyline points="311.386 96.69 313.633 96.69 313.633 98.353 311.423 98.353" fill="none" stroke="#231f20" stroke-linecap="round" stroke-linejoin="round" stroke-width=".5"/><polyline points="313.64 98.324 311.332 100.321 311.302 101.169 309.188 101.179" fill="none" stroke="#231f20" stroke-linecap="round" stroke-linejoin="round" stroke-width=".5"/><line x1="311.332" y1="100.321" x2="309.284" y2="100.271" fill="none" stroke="#231f20" stroke-linecap="round" stroke-linejoin="round" stroke-width=".5"/><polyline points="307.036 91.378 309.132 91.172 311.844 91.607" fill="none" stroke="#231f20" stroke-linecap="round" stroke-linejoin="round" stroke-width=".5"/><polygon points="310.131 92.801 311.268 92.722 310.792 93.912 310.131 92.801" fill="#231f20"/><path d="M350.049,99.315l-1.774,35.566s.086,1.466-2.288,3.162" fill="none" stroke="#231f20" stroke-linecap="round" stroke-linejoin="round" stroke-width=".5"/><line x1="345.9" y1="139.748" x2="347.92" y2="96.833" fill="none" stroke="#231f20" stroke-linecap="round" stroke-linejoin="round" stroke-width=".5"/><polygon points="349.134 98.901 349.18 96.428 347.21 96.336 347.256 94.733 346.386 94.046 346.523 91.023 347.485 91.069 347.623 89.146 350.233 89.512 350.004 95.878 351.973 94.458 351.973 96.199 349.871 98.039 349.775 98.947 349.134 98.901" fill="none" stroke="#231f20" stroke-linecap="round" stroke-linejoin="round" stroke-width=".5"/><polyline points="352.227 94.346 352.431 89.375 350.233 89.512" fill="none" stroke="#231f20" stroke-linecap="round" stroke-linejoin="round" stroke-width=".5"/><polyline points="351.973 94.458 354.22 94.458 354.22 96.121 352.01 96.121" fill="none" stroke="#231f20" stroke-linecap="round" stroke-linejoin="round" stroke-width=".5"/><polyline points="354.227 96.092 351.919 98.089 351.889 98.937 349.775 98.947" fill="none" stroke="#231f20" stroke-linecap="round" stroke-linejoin="round" stroke-width=".5"/><line x1="351.919" y1="98.089" x2="349.871" y2="98.039" fill="none" stroke="#231f20" stroke-linecap="round" stroke-linejoin="round" stroke-width=".5"/><polyline points="347.623 89.146 349.719 88.939 352.431 89.375" fill="none" stroke="#231f20" stroke-linecap="round" stroke-linejoin="round" stroke-width=".5"/><path d="M336.922,100.104l-1.475,33.403s.047,3.474-2.647,6.333" fill="none" stroke="#231f20" stroke-linecap="round" stroke-linejoin="round" stroke-width=".5"/><line x1="332.659" y1="141.069" x2="334.793" y2="97.622" fill="none" stroke="#231f20" stroke-linecap="round" stroke-linejoin="round" stroke-width=".5"/><polygon points="336.007 99.69 336.053 97.217 334.083 97.125 334.129 95.522 333.259 94.835 333.396 91.812 334.358 91.858 334.495 89.935 337.106 90.301 336.877 96.667 338.846 95.247 338.846 96.988 336.744 98.828 336.648 99.735 336.007 99.69" fill="none" stroke="#231f20" stroke-linecap="round" stroke-linejoin="round" stroke-width=".5"/><polyline points="339.099 95.135 339.304 90.164 337.106 90.301" fill="none" stroke="#231f20" stroke-linecap="round" stroke-linejoin="round" stroke-width=".5"/><polyline points="338.846 95.247 341.093 95.247 341.093 96.91 338.883 96.91" fill="none" stroke="#231f20" stroke-linecap="round" stroke-linejoin="round" stroke-width=".5"/><polyline points="341.099 96.881 338.792 98.878 338.762 99.726 336.648 99.735" fill="none" stroke="#231f20" stroke-linecap="round" stroke-linejoin="round" stroke-width=".5"/><line x1="338.792" y1="98.878" x2="336.744" y2="98.828" fill="none" stroke="#231f20" stroke-linecap="round" stroke-linejoin="round" stroke-width=".5"/><polyline points="334.495 89.935 336.592 89.728 339.304 90.164" fill="none" stroke="#231f20" stroke-linecap="round" stroke-linejoin="round" stroke-width=".5"/><polygon points="337.59 91.358 338.728 91.279 338.252 92.469 337.59 91.358" fill="#231f20"/><path d="M313.621,142.165l-.887.073c-.166.014-.303-.112-.303-.28v-.897c0-.168.136-.316.302-.33l.887-.073c.166-.014.303.112.303.28v.897c0,.168-.136.316-.302.33Z" fill="#231f20"/><path d="M299.67,143.56l-.887.073c-.166.014-.303-.112-.303-.28v-.897c0-.168.136-.316.302-.33l.887-.073c.166-.014.303.112.303.28v.897c0,.168-.136.316-.302.33Z" fill="#231f20"/><path d="M326.808,140.78l-.887.073c-.166.014-.303-.112-.303-.28v-.897c0-.168.136-.316.302-.33l.887-.073c.166-.014.303.112.303.28v.897c0,.168-.136.316-.302.33Z" fill="#231f20"/><path d="M340.393,139.32l-.887.073c-.166.014-.303-.112-.303-.28v-.897c0-.168.136-.316.302-.33l.887-.073c.166-.014.303.112.303.28v.897c0,.168-.136.316-.302.33Z" fill="#231f20"/><polyline points="229.565 155.651 273.628 150.77 350.276 142.184" fill="none" stroke="#231f20" stroke-linecap="round" stroke-linejoin="round" stroke-width=".5"/><line x1="229.616" y1="153.846" x2="350.159" y2="140.886" fill="none" stroke="#231f20" stroke-linecap="round" stroke-linejoin="round" stroke-width=".5"/><polyline points="156.037 143.184 156.128 146.028 156.207 158.402 156.227 161.385" fill="none" stroke="#231f20" stroke-linecap="round" stroke-linejoin="round" stroke-width=".5"/><line x1="151.575" y1="112.936" x2="152.381" y2="161.774" fill="none" stroke="#231f20" stroke-linecap="round" stroke-linejoin="round" stroke-width=".5"/><line x1="112.764" y1="115.44" x2="113.571" y2="166.121" fill="none" stroke="#231f20" stroke-linecap="round" stroke-linejoin="round" stroke-width=".5"/><path d="M109.204,113.743h-.809l.539,1.213,1.019,39.887,2.292,1.955s.59,4.963-.623,6.109" fill="none" stroke="#231f20" stroke-linecap="round" stroke-linejoin="round" stroke-width=".5"/><path d="M109.034,111.906l-.501-.401v-1.955l-.902-1.955v-2.456h.902c0,.15-.05-2.055-.05-2.055l.204.099,1.45.703v7.619l.899-1.711h3.198v2.035l-.872,2.118v1.059h-3.344v-.976l1.142-2.243-.062-1.994" fill="none" stroke="#231f20" stroke-linecap="round" stroke-linejoin="round" stroke-width=".5"/><polyline points="109.435 114.713 109.435 109.65 109.034 109.3" fill="none" stroke="#231f20" stroke-linecap="round" stroke-linejoin="round" stroke-width=".5"/><polyline points="108.686 102.934 111.089 102.934 112.893 103.73 112.893 109.5" fill="none" stroke="#231f20" stroke-linecap="round" stroke-linejoin="round" stroke-width=".5"/><line x1="110.136" y1="103.886" x2="112.893" y2="103.886" fill="none" stroke="#231f20" stroke-linecap="round" stroke-linejoin="round" stroke-width=".5"/><line x1="111.16" y1="111.787" x2="114.234" y2="111.787" fill="none" stroke="#231f20" stroke-linecap="round" stroke-linejoin="round" stroke-width=".5"/><line x1="110.018" y1="114.03" x2="113.361" y2="114.03" fill="none" stroke="#231f20" stroke-linecap="round" stroke-linejoin="round" stroke-width=".5"/><line x1="111.538" y1="156.714" x2="111.705" y2="166.523" fill="none" stroke="#231f20" stroke-linecap="round" stroke-linejoin="round" stroke-width=".5"/><polyline points="146.5 98.659 148.269 100.015 110.715 102.096 109.013 100.703" fill="none" stroke="#231f20" stroke-linecap="round" stroke-linejoin="round" stroke-width=".5"/><ellipse cx="115.885" cy="113.989" rx=".887" ry=".961" fill="#231f20"/><polygon points="110.989 105.232 112.129 105.197 111.606 106.368 110.989 105.232" fill="#231f20"/><g clip-path="url(#c)"><path d="M147.296,138.139c-7.189-6.461-14.94-13.897-21.886-20.698-2.399-2.335-4.875-4.588-7.31-6.884-.052-.049-.054-.131-.007-.184l8.137-9.18c.09-.102.249-.108.346-.013,7.015,6.637,14.341,13.564,21.106,20.38-7.148-6.408-14.458-13.367-21.44-20.03,0,0,.346-.013.346-.013l-8.301,9.032-.007-.183c2.419,2.313,4.797,4.67,7.252,6.945,7.091,6.589,15.169,14.008,21.763,20.828h0Z" fill="#231f20"/><path d="M147.178,143.722c-9.835-8.762-19.538-18.616-29.195-27.583,4.275-5.204,9.386-10.224,14.005-15.301.099-.104.264-.109.368-.01,2.572,2.436,5.118,4.899,7.654,7.372,2.472,2.466,5.297,5.003,7.561,7.471-5.237-4.772-10.428-9.595-15.572-14.467,0,0,.367-.011.367-.011-4.687,5.023-9.443,9.981-14.198,14.941l-.005-.184c2.418,2.314,4.798,4.668,7.253,6.944,7.092,6.587,15.167,14.011,21.763,20.828h0Z" fill="#231f20"/><path d="M147.238,149.127c-7.535-6.468-14.608-13.436-21.901-20.166,0,0-7.359-6.658-7.359-6.658-.085-.077-.09-.21-.009-.293,3.287-3.539,6.603-7.05,9.945-10.538,2.987-2.955,7.217-7.616,10.179-10.315-2.789,3.098-6.93,7.559-9.814,10.662-3.31,3.517-6.646,7.01-10.012,10.474l-.009-.292,7.21,6.82c7.204,6.749,14.984,13.327,21.771,20.306h0Z" fill="#231f20"/><path d="M147.632,155.331c-7.484-6.522-14.688-13.349-21.891-20.177,0,0-7.333-6.687-7.333-6.687-.061-.056-.064-.152-.009-.213,8.194-9.201,16.589-18.634,25.083-27.359-8.11,9.346-16.416,18.517-24.858,27.563,0,0-.009-.213-.009-.213l7.236,6.791c7.294,6.651,14.944,13.371,21.781,20.295h0Z" fill="#231f20"/><path d="M148.113,161.534c-7.277-6.427-15.185-13.78-22.258-20.513-2.43-2.325-4.919-4.588-7.405-6.854-.048-.043-.05-.119-.008-.167,6.857-7.796,13.704-15.602,20.718-23.258l7.018-7.653.006.141c-.007-.019-2.758-2.676-2.708-2.713.042-.057,2.816,2.569,2.848,2.566.04.037.041.101.006.141l-6.844,7.809c-6.783,7.553-14.134,16.102-20.874,22.959,9.581,9.069,20.299,18.302,29.501,27.541h0Z" fill="#231f20"/><path d="M144.136,163.299c-8.765-7.566-16.992-15.714-25.542-23.515,4.24-5.297,9.146-10.482,13.673-15.68,4.604-5.068,9.322-10.44,14.007-15.235-4.483,5.244-9.023,10.437-13.617,15.583-4.53,4.919-9.511,10.814-13.913,15.171,8.368,7.918,17.415,15.555,25.393,23.676h0Z" fill="#231f20"/><path d="M147.392,113.3c-8.968,10.915-19.009,21.713-28.186,32.501,0,0-.011-.205-.011-.205,3.225,2.93,11.455,10.419,14.532,13.293,0,0,4.798,4.48,4.798,4.48l-.328.019c3.278-3.689,6.483-7.52,9.822-11.117-3.047,3.853-6.333,7.608-9.476,11.414-.08.096-.222.108-.317.029-.008.005-4.841-4.445-4.85-4.445-3.069-2.811-11.246-10.505-14.381-13.456-.058-.053-.062-.145-.011-.205,9.453-10.488,18.825-22.183,28.407-32.307h0Z" fill="#231f20"/><path d="M134.801,161.637c1.749-2.6,4.198-4.562,6.133-6.995,1.959-2.401,4.008-4.817,6.335-6.844-1.785,2.531-3.947,4.823-6.131,7.027-2.211,2.116-3.965,5.032-6.337,6.812h0Z" fill="#231f20"/><path d="M147.435,119.174c-4.588,5.536-9.467,10.809-14.363,16.068-4.798,5.347-9.434,10.839-14.28,16.144,0,0-.017-.359-.017-.359,3.319,3.102,6.606,6.238,9.846,9.424.023.02-.012.058-.034.037-3.427-2.983-6.81-6.016-10.16-9.084-.102-.095-.109-.256-.017-.36,4.76-5.381,9.729-10.575,14.535-15.914,4.71-5.357,9.499-11.049,14.489-15.956h0Z" fill="#231f20"/><path d="M127.814,165.22c-3.135-2.694-6.205-5.46-9.229-8.277-.087-.08-.091-.216-.014-.304,2.412-2.648,4.924-5.205,7.295-7.889,6.856-7.77,14.502-16.653,21.678-23.855-6.661,7.912-14.457,16.361-21.55,23.97-2.428,2.633-4.714,5.394-7.102,8.064l-.014-.304c2.97,2.798,6.25,5.709,8.935,8.595h0Z" fill="#231f20"/><path d="M122.117,165.565c-1.19-1.01-2.369-2.031-3.531-3.07-.068-.061-.075-.165-.015-.234,2.339-2.71,4.718-5.384,7.196-7.97,7.241-7.921,14.024-16.254,21.555-23.915-2.046,2.71-4.67,5.486-6.952,8.18-4.698,5.398-9.759,10.469-14.415,15.903-2.297,2.745-4.692,5.402-7.127,8.023l-.011-.238c1.051,1.084,2.445,2.24,3.301,3.319h0Z" fill="#231f20"/><path d="M147.411,132.727c-5.171-4.345-9.807-9.254-14.742-13.848-5.007-4.517-9.967-9.085-14.741-13.849-.068-.061-.07-.17-.002-.232,1.009-.909,2.012-1.913,3.051-2.75-.869,1.019-1.891,1.993-2.826,2.98,0,0-.002-.232-.002-.232,5.023,4.501,9.859,9.199,14.648,13.947,4.791,4.671,10.229,9.096,14.613,13.984h0Z" fill="#231f20"/><path d="M120.805,101.728c4.761,3.92,8.867,8.525,13.456,12.626,4.578,4.112,9.052,8.332,13.302,12.788.022.021-.012.057-.034.036-4.669-4.016-9.114-8.266-13.456-12.626-4.262-4.37-9.35-8.305-13.268-12.824h0Z" fill="#231f20"/><path d="M147.321,136.598c-3.992,5.013-8.682,9.384-12.859,14.228-4.187,4.833-8.486,9.564-13.024,14.077-.02.022-.058-.011-.037-.034,4.09-4.922,8.419-9.626,12.859-14.228,4.452-4.522,8.453-9.863,13.061-14.043h0Z" fill="#231f20"/><path d="M130.437,160.158c2.485-3.325,5.662-6.004,8.331-9.16,2.694-3.125,5.474-6.261,8.531-9.007-2.518,3.259-5.416,6.268-8.33,9.193-2.941,2.834-5.437,6.481-8.532,8.974h0Z" fill="#231f20"/><path d="M126.667,164.229c.035-.452.318-.642.663-.799.351-.486.489-1.102,1.215-1.229.02-.005.04.013.037.034-.072.734-.675.918-1.133,1.306-.13.356-.298.654-.745.722-.02.004-.039-.014-.037-.034h0Z" fill="#231f20"/><path d="M143.204,163.251c.439-.886,1.132-1.523,1.883-2.117,1.03-1.187,1.864-2.655,3.283-3.42-.7,1.477-2.047,2.41-3.164,3.53-.527.733-1.187,1.715-2.002,2.007h0Z" fill="#231f20"/></g><path d="M114.671,112.249l.115,3.458,3.706-.198-.216-6.533-3.706.198.009.26s.241.009.241.261l.009,2.191-.158.364Z" fill="#231f20"/><ellipse cx="116.601" cy="114.128" rx=".852" ry=".832" transform="translate(-38.685 164.2) rotate(-62.258)" fill="#fff"/><path d="M117.626,110.281l-.006-.19-.247.013c-.035-.073-.096-.129-.17-.16l-.008-.255-.188.01.007.221-.269.014-.007-.221-.188.01.007.221-.265.014-.007-.221-.188.01.007.221-.262.014-.007-.221-.188.01.008.248c-.077.038-.137.104-.168.184l-.247.013.006.19.218-.012.009.269-.218.012.006.19.218-.012.009.269-.218.012.006.19.218-.012.009.269-.218.012.006.19.25-.013c.036.072.096.128.171.158l.008.253.188-.01-.007-.221.269-.014.007.221.188-.01-.007-.221.265-.014.007.221.188-.01-.007-.221.262-.014.007.221.188-.01-.008-.251c.074-.037.131-.101.163-.178l.25-.013-.006-.19-.218.012-.009-.269.218-.012-.006-.19-.218.012-.009-.269.218-.012-.006-.19-.218.012-.009-.269.218-.012ZM116.422,111.351l-.152.008-.395-.588.02.608-.136.007-.027-.827.151-.008.393.589-.018-.61.136-.007.027.827ZM116.931,111.324l-.16.009-.299-.813.149-.008.226.644.19-.666.145-.008-.252.842Z" fill="#fff" stroke="#231f20" stroke-miterlimit="10" stroke-width=".02"/><polygon points="134.157 162.948 129.385 163.535 129.373 161.048 134.146 160.581 134.157 162.948" fill="#231f20"/><path d="M130.686,162.906c-.042.004-.076-.006-.103-.03-.026-.024-.039-.057-.04-.1,0-.041.013-.077.039-.107.026-.03.06-.048.102-.052s.076.006.102.032c.026.026.039.059.039.1,0,.043-.012.078-.038.107-.025.029-.059.046-.101.05ZM130.649,162.394c0-.023-.003-.06-.009-.113-.006-.053-.012-.11-.019-.172-.007-.061-.013-.12-.019-.177s-.01-.102-.011-.133c-.004-.063-.008-.121-.013-.173s-.007-.093-.007-.122c0-.053.01-.092.031-.116.021-.025.046-.039.076-.041.031-.003.056.006.077.027.02.02.031.057.031.11,0,.029-.001.07-.004.122-.003.052-.007.111-.012.177-.001.032-.004.077-.01.135s-.011.119-.017.181c-.006.062-.012.121-.017.175-.005.054-.007.092-.007.115l-.069.007Z" fill="#fff" stroke="#fff" stroke-miterlimit="10" stroke-width=".05"/><path d="M133.181,162.585l-.846.088c-.159.016-.288-.101-.289-.261v-.855c0-.16.13-.304.288-.321l.846-.088c.159-.016.288.101.289.261v.855c0,.16-.13.304-.288.321Z" fill="#fff"/><line x1="165.551" y1="153.732" x2="165.632" y2="151.64" fill="none" stroke="#231f20" stroke-linecap="round" stroke-linejoin="round" stroke-width=".392"/><line x1="166.085" y1="154.224" x2="165.501" y2="153.691" fill="none" stroke="#231f20" stroke-linecap="round" stroke-linejoin="round" stroke-width=".392"/><line x1="112.65" y1="115.427" x2="113.456" y2="166.108" fill="none" stroke="#231f20" stroke-linecap="round" stroke-linejoin="round" stroke-width=".5"/><path d="M109.089,113.73h-.809l.539,1.213,1.019,39.887,2.292,1.955s.59,4.963-.623,6.109" fill="none" stroke="#231f20" stroke-linecap="round" stroke-linejoin="round" stroke-width=".5"/><path d="M108.919,111.893l-.501-.401v-1.955l-.902-1.955v-2.456h.902c0,.15-.05-2.055-.05-2.055l.204.099,1.45.703v7.619l.899-1.711h3.198v2.035l-.872,2.118v1.059h-3.344v-.976l1.142-2.243-.062-1.994" fill="none" stroke="#231f20" stroke-linecap="round" stroke-linejoin="round" stroke-width=".5"/><polyline points="109.32 114.7 109.32 109.638 108.919 109.287" fill="none" stroke="#231f20" stroke-linecap="round" stroke-linejoin="round" stroke-width=".5"/><polyline points="108.572 102.921 110.974 102.921 112.778 103.717 112.778 109.487" fill="none" stroke="#231f20" stroke-linecap="round" stroke-linejoin="round" stroke-width=".5"/><line x1="110.022" y1="103.873" x2="112.778" y2="103.873" fill="none" stroke="#231f20" stroke-linecap="round" stroke-linejoin="round" stroke-width=".5"/><line x1="111.045" y1="111.774" x2="114.119" y2="111.774" fill="none" stroke="#231f20" stroke-linecap="round" stroke-linejoin="round" stroke-width=".5"/><line x1="109.903" y1="114.017" x2="113.247" y2="114.017" fill="none" stroke="#231f20" stroke-linecap="round" stroke-linejoin="round" stroke-width=".5"/><line x1="111.424" y1="156.702" x2="111.59" y2="166.51" fill="none" stroke="#231f20" stroke-linecap="round" stroke-linejoin="round" stroke-width=".5"/><polygon points="110.875 105.219 112.014 105.184 111.492 106.355 110.875 105.219" fill="#231f20"/><path d="M150.62,98.231l54.551-3.026,24.521,7.915-.078,11.174,4.889,1.785s2.108-.095,1.98,2.779l.025,11.877s-.025,1.399-2.289,1.272l-2.57-1.057-2.212-.969.151,5.545-24.239,2.518-.73.199-29.727,3.185s-2.787-.664-3.185-1.593l-.995,1.062-18.779-11.612-.332-16.722.664-.066-.133-.929.995-2.389v-1.991h-1.261l-.199-5.972-1.031-.622-.018-2.364Z" fill="#d0cfce"/><line x1="151.202" y1="98.538" x2="171.205" y2="106.815" fill="none" stroke="#231f20" stroke-linecap="round" stroke-linejoin="round" stroke-width=".5"/><path d="M207.072,104.918c-.517-1.035-2.414-1.121-2.414-1.121,0,0-29.314,1.724-31.297,1.897s-1.638,2.414-1.638,2.414v31.211s.172,2.414,4.656,1.897,27.849-2.931,27.849-2.931c0,0,2.328-.172,2.5-1.638v-3.363" fill="none" stroke="#231f20" stroke-linecap="round" stroke-linejoin="round" stroke-width=".5"/><polyline points="204.769 95.19 229.573 103.062 206.616 104.104" fill="none" stroke="#231f20" stroke-linecap="round" stroke-linejoin="round" stroke-width=".5"/><polyline points="229.573 130.598 229.573 135.523 205.499 138.024" fill="none" stroke="#231f20" stroke-linecap="round" stroke-linejoin="round" stroke-width=".5"/><line x1="229.573" y1="103.062" x2="229.573" y2="113.667" fill="none" stroke="#231f20" stroke-linecap="round" stroke-linejoin="round" stroke-width=".5"/><polyline points="171.866 140.122 170.635 140.815 152.368 129.54" fill="none" stroke="#231f20" stroke-linecap="round" stroke-linejoin="round" stroke-width=".5"/><path d="M171.558,110.35s-.462,1.923-2.154,1l-1.846-.769-.769-.077-3.462,13.924s-.615,1.923-2.231,1l-1.154-.385v9.232" fill="none" stroke="#231f20" stroke-linecap="round" stroke-linejoin="round" stroke-width=".5"/><path d="M176.091,113.077l6.172-6.172,6.172-.61s1.143.914,1.067,2.667l-.533.61s-5.41.381-9.372,6.553l-2.438-.991s-1.295-1.219-1.067-2.057Z" fill="none" stroke="#231f20" stroke-linecap="round" stroke-linejoin="round" stroke-width=".5"/><path d="M190.873,109.267s-.152-2.514-.686-2.972l6.553-.229,6.629,5.791s-1.752,2.743-2.743,2.819c0,0-3.276-5.257-9.753-5.41Z" fill="none" stroke="#231f20" stroke-linecap="round" stroke-linejoin="round" stroke-width=".5"/><path d="M206.24,120.273v-14.217c0-1.111.793-.899.793-.899l17.793-.895s1.219,0,1.219,1.219l-.229,25.068s.076.838-.991.991-16.611,1.219-16.611,1.219c0,0-2.106.582-2.147-1.279v-1.659" fill="none" stroke="#231f20" stroke-linecap="round" stroke-linejoin="round" stroke-width=".5"/><path d="M173.196,119.02s-.457-2.667,1.448-3.734l2.21,1.143,2.133.762,3.429,1.905s-.83,2.366-.53,5.015" fill="none" stroke="#231f20" stroke-linecap="round" stroke-linejoin="round" stroke-width=".5"/><path d="M180.739,116.582l2.667,1.372s1.752-3.353,5.867-4.191l.076-2.819s-4.191-.686-8.61,5.638Z" fill="none" stroke="#231f20" stroke-linecap="round" stroke-linejoin="round" stroke-width=".5"/><path d="M190.949,113.762s3.81,0,6.4,3.2l2.21-1.524s-3.429-4.648-8.61-4.724v3.048Z" fill="none" stroke="#231f20" stroke-linecap="round" stroke-linejoin="round" stroke-width=".5"/><path d="M182.481,131.77c1.316,1.224,3.646,2.686,7.249,2.641l-.152-2.972s-.352.018-.945-.092" fill="none" stroke="#231f20" stroke-linecap="round" stroke-linejoin="round" stroke-width=".5"/><path d="M192.608,131.038c-.516.185-1.069.325-1.659.402l.305,2.743s3.893-.213,6.86-3.495" fill="none" stroke="#231f20" stroke-linecap="round" stroke-linejoin="round" stroke-width=".5"/><path d="M198.692,123.048c.244-2.664-.936-4.855-.936-4.855,0,0,3.417-1.199,4.675-3.896,0,0,1.379-.599,1.678-1.139,0,0,1.079.06,1.139,1.259v2.517" fill="none" stroke="#231f20" stroke-linecap="round" stroke-linejoin="round" stroke-width=".5"/><path d="M209.549,120.344l.071-7.168,4.256-4.915,7.133-.539s2.038.42,2.038,3.656-.12,14.205-.12,14.205c0,0-.12,2.637-2.038,2.997s-7.133.779-7.133.779l-.997-.954" fill="none" stroke="#231f20" stroke-linecap="round" stroke-linejoin="round" stroke-width=".5"/><path d="M212.841,126.64l2.053-.098s2.338-.719,2.457-3.057l.06-15.404" fill="none" stroke="#231f20" stroke-linecap="round" stroke-linejoin="round" stroke-width=".5"/><path d="M199.978,130.314c-3.793,4.991-8.85,5.413-8.85,5.413,0,0,.539.659-.36,1.498,0,0-.446.742.119,1.227l5.774-.525,6.622-7.914" fill="none" stroke="#231f20" stroke-linecap="round" stroke-linejoin="round" stroke-width=".5"/><path d="M180.503,131.642c1.4,1.49,4.623,4.306,8.827,4.085,0,0,.779.599.06,1.379,0,0-.804.701-.319,1.306l-7.107.848-5.653-5.694c-.969-1.171.162-1.534.162-1.534l2.04-1.185" fill="none" stroke="#231f20" stroke-linecap="round" stroke-linejoin="round" stroke-width=".5"/><path d="M173.386,119.603v8.272s2.278,1.199,2.517-2.877c0,0,.36-5.394-2.517-5.394Z" fill="none" stroke="#231f20" stroke-linecap="round" stroke-linejoin="round" stroke-width=".5"/><ellipse cx="174.501" cy="123.767" rx=".566" ry="1.543" fill="none" stroke="#231f20" stroke-linecap="round" stroke-linejoin="round" stroke-width=".5"/><ellipse cx="202.902" cy="107.235" rx="2.93" ry="2.823" transform="translate(18.047 243.24) rotate(-64.2)" fill="none" stroke="#231f20" stroke-linecap="round" stroke-linejoin="round" stroke-width=".5"/><line x1="203.054" y1="105.367" x2="203.054" y2="108.982" fill="none" stroke="#231f20" stroke-linecap="round" stroke-linejoin="round" stroke-width=".5"/><line x1="201.504" y1="107.376" x2="204.488" y2="107.146" fill="none" stroke="#231f20" stroke-linecap="round" stroke-linejoin="round" stroke-width=".5"/><ellipse cx="203.305" cy="135.006" rx="2.93" ry="2.823" transform="translate(-6.728 259.287) rotate(-64.2)" fill="none" stroke="#231f20" stroke-linecap="round" stroke-linejoin="round" stroke-width=".5"/><line x1="203.457" y1="133.138" x2="203.457" y2="136.753" fill="none" stroke="#231f20" stroke-linecap="round" stroke-linejoin="round" stroke-width=".5"/><line x1="201.908" y1="135.147" x2="204.892" y2="134.917" fill="none" stroke="#231f20" stroke-linecap="round" stroke-linejoin="round" stroke-width=".5"/><ellipse cx="175.615" cy="137.671" rx="2.93" ry="2.823" transform="translate(-24.765 235.862) rotate(-64.2)" fill="none" stroke="#231f20" stroke-linecap="round" stroke-linejoin="round" stroke-width=".5"/><line x1="175.767" y1="135.802" x2="175.767" y2="139.418" fill="none" stroke="#231f20" stroke-linecap="round" stroke-linejoin="round" stroke-width=".5"/><line x1="174.218" y1="137.811" x2="177.202" y2="137.581" fill="none" stroke="#231f20" stroke-linecap="round" stroke-linejoin="round" stroke-width=".5"/><ellipse cx="175.292" cy="108.931" rx="2.93" ry="2.823" transform="translate(.927 219.34) rotate(-64.2)" fill="none" stroke="#231f20" stroke-linecap="round" stroke-linejoin="round" stroke-width=".5"/><line x1="175.444" y1="107.062" x2="175.444" y2="110.678" fill="none" stroke="#231f20" stroke-linecap="round" stroke-linejoin="round" stroke-width=".5"/><line x1="173.895" y1="109.071" x2="176.879" y2="108.841" fill="none" stroke="#231f20" stroke-linecap="round" stroke-linejoin="round" stroke-width=".5"/><path d="M204.187,118.404v-1.737s1.872.137,2.238,2.147" fill="none" stroke="#231f20" stroke-linecap="round" stroke-linejoin="round" stroke-width=".5"/><path d="M209.627,116.39l2.891,1.386s1.617.959-.343,1.599l-2.499-1.119" fill="none" stroke="#231f20" stroke-linecap="round" stroke-linejoin="round" stroke-width=".5"/><path d="M209.676,115.111l4.802,2.292s1.617.959-.343,1.599l-1.813.373" fill="none" stroke="#231f20" stroke-linecap="round" stroke-linejoin="round" stroke-width=".5"/><path d="M212.866,122.298l1.758.769s1.617.959-.343,1.599l-1.216-.554" fill="none" stroke="#231f20" stroke-linecap="round" stroke-linejoin="round" stroke-width=".5"/><path d="M214.429,124.666l1.813-.373c1.96-.64.343-1.599.343-1.599l-2.891-1.409-2.039.148" fill="none" stroke="#231f20" stroke-linecap="round" stroke-linejoin="round" stroke-width=".5"/><path d="M212.492,109.916l2.084.999s1.617.959-.343,1.599l-2.499-1.119" fill="none" stroke="#231f20" stroke-linecap="round" stroke-linejoin="round" stroke-width=".5"/><path d="M213.257,108.977l3.279,1.565s1.617.959-.343,1.599l-1.813.373" fill="none" stroke="#231f20" stroke-linecap="round" stroke-linejoin="round" stroke-width=".5"/><path d="M226.016,128.335l7.606,3.525s2.177.884,2.857-.884v-12.859s.408-1.429-1.633-2.041l-6.599-2.244s-1.633-.204-1.905.68" fill="none" stroke="#231f20" stroke-linecap="round" stroke-linejoin="round" stroke-width=".5"/><path d="M227.702,115.804l4.83,1.905s1.089-.068,1.089,1.565v11.226" fill="none" stroke="#231f20" stroke-linecap="round" stroke-linejoin="round" stroke-width=".5"/><line x1="228.111" y1="119.069" x2="228.111" y2="125.26" fill="none" stroke="#231f20" stroke-linecap="round" stroke-linejoin="round" stroke-width=".5"/><line x1="229.131" y1="119.545" x2="229.131" y2="125.737" fill="none" stroke="#231f20" stroke-linecap="round" stroke-linejoin="round" stroke-width=".5"/><line x1="230.152" y1="120.022" x2="230.152" y2="126.213" fill="none" stroke="#231f20" stroke-linecap="round" stroke-linejoin="round" stroke-width=".5"/><path d="M181.812,125.653c-2.049.205-3.406-.735-3.406-.735l-2.049-1.844,2.8-.137,2.117,1.434,28.203-2.049-2.341-1.725,3.025-.187,2.136,1.456s1.019.825,0,1.359c0,0-28.435,2.222-30.484,2.427Z" fill="none" stroke="#231f20" stroke-linecap="round" stroke-linejoin="round" stroke-width=".5"/><path d="M176.046,126.152l.553,1.309-.029,1.745,1.942,1.641s1.505.922,3.252.825,29.125-2.33,29.125-2.33c0,0,1.602-.194,1.796-1.553l.146-5.048" fill="none" stroke="#231f20" stroke-linecap="round" stroke-linejoin="round" stroke-width=".5"/><path d="M173.386,127.875s-.508.442-.952.321v1.898s1.696.848,2.019,1.534l2.867-1.656" fill="none" stroke="#231f20" stroke-linecap="round" stroke-linejoin="round" stroke-width=".5"/><path d="M174.665,120.003s1.857-.323,2.26.969c0,0,.727,1.615,1.211,2.018" fill="none" stroke="#231f20" stroke-linecap="round" stroke-linejoin="round" stroke-width=".5"/><path d="M203.001,122.748s-.727-1.372-.081-3.148,1.938-.969,1.938-.969l.081.969,1.197.918,1.001.081" fill="none" stroke="#231f20" stroke-linecap="round" stroke-linejoin="round" stroke-width=".5"/><path d="M158.188,133.463c-2.068-.506-3.921-.958-3.921-.958l-1.036-.813" fill="none" stroke="#231f20" stroke-linecap="round" stroke-linejoin="round" stroke-width=".5"/><line x1="206.283" y1="111.06" x2="206.283" y2="116.641" fill="none" stroke="#231f20" stroke-linecap="round" stroke-linejoin="round" stroke-width=".5"/><ellipse cx="221.181" cy="109.789" rx="1.255" ry=".463" transform="translate(109.537 330.039) rotate(-89.518)" fill="none" stroke="#231f20" stroke-linecap="round" stroke-linejoin="round" stroke-width=".5"/><path d="M149.871,159.923s2.337-.516,2.404-4.223" fill="none" stroke="#231f20" stroke-linecap="round" stroke-linejoin="round" stroke-width=".5"/><line x1="151.612" y1="112.889" x2="152.418" y2="161.727" fill="none" stroke="#231f20" stroke-linecap="round" stroke-linejoin="round" stroke-width=".5"/><path d="M148.051,111.192h-.809l.539,1.213.607,38.554,2.292,1.955s.472,4.92-.741,6.066" fill="none" stroke="#231f20" stroke-linecap="round" stroke-linejoin="round" stroke-width=".5"/><path d="M147.881,109.355l-.501-.401v-1.955l-.902-1.955v-2.456h.902c0,.15-.05-2.055-.05-2.055l.204.099,1.45.703v7.619l.899-1.711h3.198v2.035l-.872,2.118v1.059h-3.344v-.976l1.142-2.243-.062-1.994" fill="none" stroke="#231f20" stroke-linecap="round" stroke-linejoin="round" stroke-width=".5"/><polyline points="148.282 112.162 148.282 107.1 147.881 106.749" fill="none" stroke="#231f20" stroke-linecap="round" stroke-linejoin="round" stroke-width=".5"/><polyline points="147.534 100.384 149.936 100.384 151.741 101.179 151.741 106.95" fill="none" stroke="#231f20" stroke-linecap="round" stroke-linejoin="round" stroke-width=".5"/><line x1="148.984" y1="101.336" x2="151.741" y2="101.336" fill="none" stroke="#231f20" stroke-linecap="round" stroke-linejoin="round" stroke-width=".5"/><line x1="150.008" y1="109.237" x2="153.081" y2="109.237" fill="none" stroke="#231f20" stroke-linecap="round" stroke-linejoin="round" stroke-width=".5"/><line x1="148.865" y1="111.48" x2="152.209" y2="111.48" fill="none" stroke="#231f20" stroke-linecap="round" stroke-linejoin="round" stroke-width=".5"/><line x1="149.718" y1="152.237" x2="149.718" y2="162.205" fill="none" stroke="#231f20" stroke-linecap="round" stroke-linejoin="round" stroke-width=".5"/><polygon points="149.756 102.376 150.896 102.341 150.374 103.512 149.756 102.376" fill="#231f20"/></g><g id="d"><polygon points="161.609 90.403 174.492 95.231 167.009 95.607 191.216 100.112 198.98 94.255 191.093 94.622 178.072 89.627 161.609 90.403" fill="#221f20"/><polygon points="198.98 94.255 191.216 100.112 167.009 95.607 174.492 95.231 161.609 90.403 178.072 89.627 191.093 94.622 198.98 94.255" fill="none" stroke="#fff" stroke-linecap="round" stroke-linejoin="round" stroke-width="4"/><polygon points="176.174 88.215 163.291 83.387 170.775 83.011 146.567 78.506 138.803 84.362 146.69 83.996 159.712 88.991 176.174 88.215" fill="#221f20"/><polygon points="138.803 84.362 146.567 78.506 170.775 83.011 163.291 83.387 176.174 88.215 159.712 88.991 146.69 83.996 138.803 84.362" fill="none" stroke="#fff" stroke-linecap="round" stroke-linejoin="round" stroke-width="3"/><polygon points="161.609 90.403 174.492 95.231 167.009 95.607 191.216 100.112 198.98 94.255 191.093 94.622 178.072 89.627 161.609 90.403" fill="#221f20"/><polygon points="176.615 88.642 163.733 83.814 171.216 83.438 147.221 79.338 139.245 84.789 147.131 84.423 160.153 89.418 176.615 88.642" fill="#221f20"/><ellipse cx="253.416" cy="94.913" rx="1.381" ry="1.152" transform="translate(-13.75 51.897) rotate(-11.386)" fill="#231f20"/><path d="M336.292,88.124c-.082-.349.087-.416.331-.477.053-.04.073-.106.082-.183.031-.311.181-.52.583-.516.019,0,.035.014.038.032.094.629-.289.52-.579.772-.02.25-.059.428-.416.405-.019,0-.034-.015-.038-.032h0Z" fill="#231f20"/><g clip-path="url(#e)"><circle cx="256.838" cy="45.387" r="40.651" fill="#fff" stroke="#231f20" stroke-miterlimit="10"/><path d="M257.663,40.262v-2.757s.712-2.017,3.771-1.698l11.456,3.891s2.098.853,1.832,3.027v20.757s-1.206,3.225-6.344.655-10.904-4.951-10.904-4.951l.188-18.925Z" fill="#ced0d1"/><path d="M227.252,21.42c-.835-1.67-3.897-1.809-3.897-1.809,0,0-47.321,2.784-50.522,3.062s-2.644,3.897-2.644,3.897v50.383s.278,3.897,7.516,3.062,44.955-4.732,44.955-4.732c0,0,3.758-.278,4.036-2.644v-5.428" fill="none" stroke="#231f20" stroke-linecap="round" stroke-linejoin="round" stroke-width=".5"/><polyline points="223.535 5.715 263.574 18.423 226.517 20.105" fill="none" stroke="#231f20" stroke-linecap="round" stroke-linejoin="round" stroke-width=".5"/><polyline points="263.574 62.874 263.574 70.824 224.713 74.861" fill="none" stroke="#231f20" stroke-linecap="round" stroke-linejoin="round" stroke-width=".5"/><line x1="263.574" y1="18.423" x2="263.574" y2="35.542" fill="none" stroke="#231f20" stroke-linecap="round" stroke-linejoin="round" stroke-width=".5"/><path d="M201.103,28.439s-.246-4.059-1.107-4.797l10.578-.369,10.701,9.348s-2.829,4.428-4.428,4.551c0,0-5.289-8.487-15.744-8.733Z" fill="none" stroke="#231f20" stroke-linecap="round" stroke-linejoin="round" stroke-width=".5"/><path d="M225.91,46.206v-22.951c0-1.793,1.281-1.452,1.281-1.452l28.723-1.445s1.968,0,1.968,1.968l-.369,40.467s.123,1.353-1.599,1.599-26.814,1.968-26.814,1.968c0,0-3.4.94-3.466-2.064v-2.678" fill="none" stroke="#231f20" stroke-linecap="round" stroke-linejoin="round" stroke-width=".5"/><path d="M213.724,50.685c.395-4.3-1.51-7.837-1.51-7.837,0,0,5.515-1.935,7.547-6.289,0,0,2.225-.968,2.709-1.838,0,0,1.742.097,1.838,2.032v4.064" fill="none" stroke="#231f20" stroke-linecap="round" stroke-linejoin="round" stroke-width=".5"/><path d="M231.251,46.32l.115-11.571,6.87-7.934,11.514-.871s3.29.677,3.29,5.902-.194,22.931-.194,22.931c0,0-.194,4.257-3.29,4.838s-11.514,1.258-11.514,1.258l-1.609-1.541" fill="none" stroke="#231f20" stroke-linecap="round" stroke-linejoin="round" stroke-width=".5"/><path d="M236.566,56.483l3.315-.158s3.774-1.161,3.967-4.935l.097-24.866" fill="none" stroke="#231f20" stroke-linecap="round" stroke-linejoin="round" stroke-width=".5"/><path d="M215.801,62.414c-6.123,8.058-14.287,8.738-14.287,8.738,0,0,.871,1.064-.581,2.419,0,0-.72,1.198.192,1.98l9.321-.847,10.69-12.776" fill="none" stroke="#231f20" stroke-linecap="round" stroke-linejoin="round" stroke-width=".5"/><ellipse cx="220.52" cy="25.16" rx="4.731" ry="4.556" transform="translate(101.891 212.748) rotate(-64.2)" fill="none" stroke="#231f20" stroke-linecap="round" stroke-linejoin="round" stroke-width=".5"/><line x1="220.766" y1="22.144" x2="220.766" y2="27.98" fill="none" stroke="#231f20" stroke-linecap="round" stroke-linejoin="round" stroke-width=".5"/><line x1="218.264" y1="25.386" x2="223.082" y2="25.016" fill="none" stroke="#231f20" stroke-linecap="round" stroke-linejoin="round" stroke-width=".5"/><ellipse cx="221.172" cy="69.99" rx="4.731" ry="4.556" transform="translate(61.898 238.653) rotate(-64.2)" fill="none" stroke="#231f20" stroke-linecap="round" stroke-linejoin="round" stroke-width=".5"/><line x1="221.417" y1="66.973" x2="221.417" y2="72.81" fill="none" stroke="#231f20" stroke-linecap="round" stroke-linejoin="round" stroke-width=".5"/><line x1="218.916" y1="70.216" x2="223.733" y2="69.845" fill="none" stroke="#231f20" stroke-linecap="round" stroke-linejoin="round" stroke-width=".5"/><path d="M222.595,43.189v-2.804s3.023.221,3.612,3.465" fill="none" stroke="#231f20" stroke-linecap="round" stroke-linejoin="round" stroke-width=".5"/><path d="M231.376,39.937l4.667,2.237s2.61,1.548-.554,2.581l-4.034-1.807" fill="none" stroke="#231f20" stroke-linecap="round" stroke-linejoin="round" stroke-width=".5"/><path d="M231.455,37.873l7.752,3.699s2.61,1.548-.554,2.581l-2.927.602" fill="none" stroke="#231f20" stroke-linecap="round" stroke-linejoin="round" stroke-width=".5"/><path d="M236.606,49.475l2.839,1.242s2.61,1.548-.554,2.581l-1.962-.895" fill="none" stroke="#231f20" stroke-linecap="round" stroke-linejoin="round" stroke-width=".5"/><path d="M239.128,53.298l2.927-.602c3.164-1.032.554-2.581.554-2.581l-4.667-2.275-3.292.239" fill="none" stroke="#231f20" stroke-linecap="round" stroke-linejoin="round" stroke-width=".5"/><path d="M236.002,29.487l3.364,1.612s2.61,1.548-.554,2.581l-4.034-1.807" fill="none" stroke="#231f20" stroke-linecap="round" stroke-linejoin="round" stroke-width=".5"/><path d="M237.236,27.971l5.294,2.526s2.61,1.548-.554,2.581l-2.927.602" fill="none" stroke="#231f20" stroke-linecap="round" stroke-linejoin="round" stroke-width=".5"/><path d="M257.832,59.219l12.278,5.691s3.514,1.428,4.613-1.428v-20.757s.659-2.306-2.636-3.295l-10.653-3.623s-2.636-.329-3.075,1.098" fill="none" stroke="#231f20" stroke-linecap="round" stroke-linejoin="round" stroke-width=".5"/><path d="M260.555,38.991l7.798,3.075s1.757-.11,1.757,2.526v18.121" fill="none" stroke="#231f20" stroke-linecap="round" stroke-linejoin="round" stroke-width=".5"/><line x1="261.214" y1="44.263" x2="261.214" y2="54.257" fill="none" stroke="#231f20" stroke-linecap="round" stroke-linejoin="round" stroke-width=".5"/><line x1="262.861" y1="45.032" x2="262.861" y2="55.026" fill="none" stroke="#231f20" stroke-linecap="round" stroke-linejoin="round" stroke-width=".5"/><line x1="264.509" y1="45.8" x2="264.509" y2="55.794" fill="none" stroke="#231f20" stroke-linecap="round" stroke-linejoin="round" stroke-width=".5"/><path d="M186.477,54.891c-3.307.331-5.499-1.187-5.499-1.187l-3.307-2.976,4.52-.22,3.417,2.315,45.526-3.307-3.779-2.785,4.882-.302,3.448,2.351s1.646,1.332,0,2.194c0,0-45.901,3.587-49.208,3.918Z" fill="none" stroke="#231f20" stroke-linecap="round" stroke-linejoin="round" stroke-width=".5"/><path d="M177.169,55.696l.892,2.113-.047,2.818,3.134,2.648s2.429,1.489,5.25,1.332,47.014-3.761,47.014-3.761c0,0,2.586-.313,2.899-2.507l.235-8.149" fill="none" stroke="#231f20" stroke-linecap="round" stroke-linejoin="round" stroke-width=".5"/><path d="M220.68,50.201s-1.173-2.215-.13-5.082c1.043-2.867,3.128-1.564,3.128-1.564l.13,1.564,1.932,1.481,1.615.131" fill="none" stroke="#231f20" stroke-linecap="round" stroke-linejoin="round" stroke-width=".5"/><polyline points="249.114 72.392 249.114 76.678 250.094 76.524" fill="none" stroke="#231f20" stroke-linecap="round" stroke-linejoin="round" stroke-width=".5"/><polyline points="266.935 63.326 266.935 76.504 251.805 78.045" fill="none" stroke="#231f20" stroke-linecap="round" stroke-linejoin="round" stroke-width=".5"/><path d="M250.22,72.168l-.026,5.06,1.48.759c-.111-2.288-.171-4.25-.193-5.931" fill="none" stroke="#231f20" stroke-linecap="round" stroke-linejoin="round" stroke-width=".5"/><line x1="267.712" y1="76.461" x2="290.016" y2="74.329" fill="none" stroke="#231f20" stroke-linecap="round" stroke-linejoin="round" stroke-width=".5"/><path d="M247.759,72.474c-.028,2.019-.074,2.912-.426,5.66l-15.748,1.704" fill="none" stroke="#231f20" stroke-linecap="round" stroke-linejoin="round" stroke-width=".5"/><polygon points="262.451 95.038 277.333 93.614 277.67 82.337 262.451 83.793 262.451 95.038" fill="none" stroke="#231f20" stroke-linecap="round" stroke-linejoin="round" stroke-width=".5"/><polyline points="262.451 95.038 260.554 94.182 260.554 82.98 276.898 81.416 277.67 82.337" fill="none" stroke="#231f20" stroke-linecap="round" stroke-linejoin="round" stroke-width=".5"/><line x1="262.451" y1="83.793" x2="260.554" y2="82.98" fill="none" stroke="#231f20" stroke-linecap="round" stroke-linejoin="round" stroke-width=".5"/><line x1="244.065" y1="4.801" x2="244.065" y2="12.262" fill="none" stroke="#231f20" stroke-linecap="round" stroke-linejoin="round" stroke-width=".5"/><line x1="225.979" y1="31.334" x2="225.979" y2="40.343" fill="none" stroke="#231f20" stroke-linecap="round" stroke-linejoin="round" stroke-width=".5"/></g><line x1="256.689" y1="88.503" x2="239.194" y2="117.221" fill="#221f20"/><line x1="256.689" y1="88.503" x2="239.194" y2="117.221" fill="none" stroke="#fff" stroke-linecap="round" stroke-linejoin="round" stroke-width="4"/><line x1="256.689" y1="88.503" x2="239.194" y2="117.221" fill="none" stroke="#231f20" stroke-linecap="round" stroke-linejoin="round"/><circle cx="256.838" cy="45.387" r="40.651" fill="none" stroke="#fff" stroke-miterlimit="10" stroke-width="4"/><circle cx="256.838" cy="45.387" r="40.651" fill="none" stroke="#231f20" stroke-miterlimit="10"/><polygon points="287.896 59.779 277.927 49.337 288.411 37.32 288.249 42.843 303.555 41.78 303.197 53.32 288.12 54.53 287.896 59.779" fill="#221f20"/><polygon points="288.411 37.32 277.927 49.337 287.896 59.779 288.12 54.53 303.197 53.32 303.555 41.78 288.249 42.843 288.411 37.32" fill="none" stroke="#fff" stroke-linecap="round" stroke-linejoin="round" stroke-width="4"/><polygon points="287.896 59.779 277.927 49.337 288.411 37.32 288.249 42.843 303.555 41.78 303.197 53.32 288.12 54.53 287.896 59.779" fill="#221f20"/><path d="M294.994,19.849c0,7.593-6.246,13.745-13.95,13.745s-13.953-6.152-13.953-13.745,6.246-13.755,13.953-13.755,13.95,6.159,13.95,13.755" fill="#211f1f" stroke="#fff" stroke-miterlimit="10" stroke-width="1.5"/><rect x="267.043" y="11.855" width="27.228" height="24.791" fill="none"/><path d="M282.64,26.89h-1.846v-11.761c-.444.424-1.027.848-1.749,1.271-.721.424-1.368.742-1.942.954v-1.784c1.032-.485,1.935-1.073,2.707-1.764s1.319-1.36,1.641-2.01h1.189v15.094Z" fill="#fff"/></g></svg>