<?xml version="1.0" encoding="UTF-8"?><svg id="a" xmlns="http://www.w3.org/2000/svg" width="4.625in" height="2.125in" xmlns:xlink="http://www.w3.org/1999/xlink" viewBox="0 0 333 153"><defs><clipPath id="b"><rect x="4.311" y="3.25" width="323.988" height="92.971" fill="none" stroke-width="0"/></clipPath><clipPath id="c"><circle cx="88.207" cy="120.918" r="28.947" fill="none" stroke-width="0"/></clipPath></defs><g clip-path="url(#b)"><rect x="3.25" y="3.25" width="362.787" height="92.971" fill="#e6e6e6" stroke="#231f20" stroke-miterlimit="10" stroke-width=".5"/><rect x="136.253" y="18.948" width="42.43" height="28.415" fill="#333" stroke-width="0"/><path d="M177.204,21.133c0-.514-.386-1.029-1.029-1.029h-37.287c-.643,0-1.157.514-1.157,1.029v24.043c0,.514.514,1.029,1.157,1.029h37.287c.643,0,1.029-.514,1.029-1.029v-24.043Z" fill="#e6e6e6" stroke-width="0"/><polygon points="165.31 39.391 171.353 39.391 171.353 32.962 170.839 32.962 170.839 28.591 171.353 28.591 171.353 22.162 143.581 22.162 143.581 28.591 144.096 28.591 144.096 32.962 143.581 32.962 143.581 39.391 149.624 39.391 149.624 42.734 152.196 42.734 152.196 44.148 162.61 44.148 162.61 42.734 165.31 42.734 165.31 39.391" fill="#333" stroke-width="0"/><path d="M162.996,30.777h.643v-8.1h-.643v8.1ZM160.553,30.777h.771v-8.1h-.771v8.1ZM158.239,30.777h.771v-8.1h-.771v8.1ZM155.924,30.777h.643v-8.1h-.643v8.1ZM153.61,30.777h.643v-8.1h-.643v8.1ZM151.296,30.777h.643v-8.1h-.643v8.1ZM148.981,30.777h.643v-8.1h-.643v8.1ZM165.31,30.777h.643v-8.1h-.643v8.1Z" fill="#e6a835" fill-rule="evenodd" stroke-width="0"/><rect x="194.244" y="53.004" width="39.472" height="31.886" fill="#333" stroke-width="0"/><path d="M196.301,83.733h35.358c.514,0,.9-.386.9-.9v-27.901c0-.386-.386-.771-.9-.771h-35.358c-.514,0-.9.386-.9.771v27.901c0,.514.386.9.9.9Z" fill="#e6e6e6" stroke-width="0"/><polygon points="206.137 61.525 200.094 61.525 200.094 67.954 200.608 67.954 200.608 72.326 200.094 72.326 200.094 78.754 227.866 78.754 227.866 72.326 227.352 72.326 227.352 67.954 227.866 67.954 227.866 61.525 221.823 61.525 221.823 58.183 219.251 58.183 219.251 56.768 208.837 56.768 208.837 58.183 206.137 58.183 206.137 61.525" fill="#333" stroke-width="0"/><path d="M208.451,70.14h-.643s0,8.1,0,8.1h.643s0-8.1,0-8.1ZM210.894,70.14h-.771s0,8.1,0,8.1h.771s0-8.1,0-8.1ZM213.208,70.14h-.771s0,8.1,0,8.1h.771s0-8.1,0-8.1ZM215.523,70.14h-.643s0,8.1,0,8.1h.643s0-8.1,0-8.1ZM217.837,70.14h-.643s0,8.1,0,8.1h.643s0-8.1,0-8.1ZM220.151,70.14h-.643s0,8.1,0,8.1h.643s0-8.1,0-8.1ZM222.466,70.14h-.643s0,8.1,0,8.1h.643s0-8.1,0-8.1ZM206.137,70.14h-.643s0,8.1,0,8.1h.643s0-8.1,0-8.1Z" fill="#e6a835" fill-rule="evenodd" stroke-width="0"/><path d="M320.524,76.823v5.914c0,.257.129.514.257.771l.643.514c.386.386.9.386,1.286,0l3.6-3.472c.386-.386.386-1.029,0-1.414l-3.6-3.6c-.386-.386-.9-.386-1.286,0l-.643.643c-.129.129-.257.386-.257.643M320.782,72.066l.643.514c.386.386.9.386,1.286,0l3.6-3.472c.386-.386.386-1.029,0-1.414l-3.6-3.471c-.386-.386-.9-.386-1.286,0l-.643.514c-.129.129-.257.386-.257.643v5.914c0,.257.129.514.257.771ZM320.782,60.623l.643.514c.386.386.9.386,1.286,0l3.6-3.471c.386-.386.386-1.029,0-1.414l-3.6-3.471c-.386-.386-.9-.386-1.286,0l-.643.514c-.129.257-.257.386-.257.771v5.914c0,.257.129.514.257.643ZM320.782,49.179l.643.514c.386.386.9.386,1.286,0l3.6-3.471c.386-.386.386-1.029,0-1.414l-3.6-3.471c-.386-.386-.9-.386-1.286,0l-.643.514c-.129.257-.257.514-.257.771v5.914c0,.257.129.514.257.643ZM293.395,92.123l.643-.643c.386-.386.386-1.029,0-1.414l-3.6-3.6c-.386-.386-1.029-.386-1.414,0l-3.471,3.6c-.386.386-.386,1.029,0,1.414l.643.643c.129.129.386.257.643.257h5.786c.257,0,.514-.129.771-.257ZM284.009,88.523l3.472-3.6c.386-.386.386-.9,0-1.286l-3.472-3.6c-.386-.386-1.029-.386-1.414,0l-3.471,3.6c-.386.386-.386.9,0,1.286l3.471,3.6c.386.386,1.029.386,1.414,0ZM297.51,80.552l-.643-.514c-.386-.386-.9-.386-1.286,0l-3.6,3.6c-.386.386-.386.9,0,1.286l3.6,3.6c.386.386.9.386,1.286,0l.643-.514c.129-.257.257-.514.257-.771v-5.914c0-.257-.129-.514-.257-.771ZM187.064,82.094l3.6-3.6c.386-.386.386-1.029,0-1.414l-3.6-3.471c-.386-.386-1.029-.386-1.414,0l-3.471,3.471c-.386.386-.386,1.029,0,1.414l3.471,3.6c.386.386,1.029.386,1.414,0ZM176.907,85.823h6.043c.257,0,.514-.129.643-.257l.514-.643c.386-.386.386-.9,0-1.286l-3.471-3.6c-.386-.386-1.029-.386-1.414,0l-3.471,3.6c-.386.386-.386.9,0,1.286l.514.643c.129.129.386.257.643.257ZM174.207,82.094l3.471-3.6c.386-.386.386-1.029,0-1.414l-3.471-3.471c-.386-.386-1.029-.386-1.414,0l-3.6,3.471c-.386.386-.386,1.029,0,1.414l3.6,3.6c.386.386,1.029.386,1.414,0ZM161.221,82.094l3.471-3.6c.386-.386.386-1.029,0-1.414l-3.471-3.471c-.386-.386-1.029-.386-1.414,0l-3.471,3.471c-.386.386-.386,1.029,0,1.414l3.471,3.6c.386.386,1.029.386,1.414,0ZM148.364,82.094l3.471-3.6c.386-.386.386-1.029,0-1.414l-3.471-3.471c-.386-.386-1.029-.386-1.414,0l-3.6,3.471c-.386.386-.386,1.029,0,1.414l3.6,3.6c.386.386,1.029.386,1.414,0ZM135.378,82.094l3.472-3.6c.386-.386.386-1.029,0-1.414l-3.472-3.471c-.386-.386-1.029-.386-1.414,0l-3.471,3.471c-.386.386-.386,1.029,0,1.414l3.471,3.6c.386.386,1.029.386,1.414,0ZM131.906,85.566l.514-.643c.386-.386.386-.9,0-1.286l-3.472-3.6c-.386-.386-1.029-.386-1.414,0l-3.6,3.6c-.386.386-.386.9,0,1.286l.643.643c.129.129.386.257.643.257h5.914c.386,0,.514-.129.771-.257ZM122.52,82.094l3.472-3.6c.386-.386.386-1.029,0-1.414l-3.472-3.471c-.386-.386-1.029-.386-1.414,0l-3.6,3.471c-.386.386-.386,1.029,0,1.414l3.6,3.6c.386.386,1.029.386,1.414,0ZM105.806,79.394h6.043c.257,0,.514-.129.643-.386l.514-.514c.386-.386.386-1.029,0-1.414l-3.472-3.471c-.386-.386-1.029-.386-1.414,0l-3.471,3.471c-.386.386-.386,1.029,0,1.414l.514.514c.129.257.386.386.643.386ZM99.634,79.009l.514-.514c.386-.386.386-1.029,0-1.414l-3.6-3.471c-.257-.386-.9-.386-1.286,0l-3.6,3.471c-.386.386-.386,1.029,0,1.414l.643.514c.129.257.386.386.643.386h5.914c.257,0,.514-.129.771-.386ZM79.962,79.394h6.043c.257,0,.514-.129.643-.386l.514-.514c.386-.386.386-1.029,0-1.414l-3.471-3.471c-.386-.386-1.029-.386-1.414,0l-3.471,3.471c-.386.386-.386,1.029,0,1.414l.514.514c.129.257.386.386.643.386ZM73.791,79.009l.514-.514c.386-.386.386-1.029,0-1.414l-3.6-3.471c-.386-.386-.9-.386-1.286,0l-3.6,3.471c-.386.386-.386,1.029,0,1.414l.514.514c.257.257.514.386.771.386h5.914c.257,0,.514-.129.771-.386ZM60.805,79.009l.514-.514c.386-.386.386-1.029,0-1.414l-3.471-3.471c-.386-.386-1.029-.386-1.414,0l-3.471,3.471c-.386.386-.386,1.029,0,1.414l.514.514c.129.257.386.386.643.386h6.043c.257,0,.514-.129.643-.386ZM115.963,88.523l3.6-3.6c.386-.386.386-.9,0-1.286l-3.6-3.6c-.386-.386-1.029-.386-1.414,0l-3.471,3.6c-.386.386-.386.9,0,1.286l3.471,3.6c.386.386,1.029.386,1.414,0ZM290.438,82.094l3.6-3.6c.386-.386.386-1.029,0-1.414l-3.6-3.471c-.386-.386-1.029-.386-1.414,0l-3.471,3.471c-.386.386-.386,1.029,0,1.414l3.471,3.6c.386.386,1.029.386,1.414,0ZM275.523,81.452l.643.643c.386.386,1.029.386,1.414,0l3.472-3.6c.386-.386.386-1.029,0-1.414l-3.472-3.471c-.386-.386-1.029-.386-1.414,0l-.643.643c-.129.129-.257.386-.257.643v5.914c0,.257.129.514.257.643ZM236.437,75.023v5.657c0,.257,0,.514.257.643l.643.771c.386.386,1.029.386,1.414,0l3.6-3.6c.386-.386.386-1.029,0-1.414l-3.6-3.471c-.386-.386-1.029-.386-1.414,0l-.643.643c-.257.257-.257.514-.257.771ZM309.853,23.979l3.471-3.6c.386-.386.386-1.029,0-1.414l-3.471-3.471c-.386-.386-1.029-.386-1.414,0l-3.471,3.471c-.386.386-.386,1.029,0,1.414l3.471,3.6c.386.386,1.029.386,1.414,0ZM245.18,23.979l3.6-3.6c.386-.386.386-1.029,0-1.414l-3.6-3.471c-.386-.386-.9-.386-1.286,0l-3.6,3.471c-.386.386-.386,1.029,0,1.414l3.6,3.6c.386.386.9.386,1.286,0ZM219.337,23.979l3.6-3.6c.386-.386.386-1.029,0-1.414l-3.6-3.471c-.386-.386-.9-.386-1.286,0l-3.6,3.471c-.386.386-.386,1.029,0,1.414l3.6,3.6c.386.386.9.386,1.286,0ZM193.493,23.979l3.6-3.6c.386-.386.386-1.029,0-1.414l-3.6-3.471c-.386-.386-1.029-.386-1.414,0l-3.471,3.471c-.386.386-.386,1.029,0,1.414l3.471,3.6c.386.386,1.029.386,1.414,0ZM128.949,23.979l3.472-3.6c.386-.386.386-1.029,0-1.414l-3.472-3.471c-.386-.386-1.029-.386-1.414,0l-3.6,3.471c-.386.386-.386,1.029,0,1.414l3.6,3.6c.386.386,1.029.386,1.414,0ZM64.276,23.979l3.6-3.6c.386-.386.386-1.029,0-1.414l-3.6-3.471c-.386-.386-1.029-.386-1.414,0l-3.471,3.471c-.386.386-.386,1.029,0,1.414l3.471,3.6c.386.386,1.029.386,1.414,0ZM296.867,23.979l3.6-3.6c.386-.386.386-1.029,0-1.414l-3.6-3.471c-.386-.386-.9-.386-1.286,0l-3.6,3.471c-.386.386-.386,1.029,0,1.414l3.6,3.6c.386.386.9.386,1.286,0ZM232.323,23.979l3.471-3.6c.386-.386.386-1.029,0-1.414l-3.471-3.471c-.386-.386-1.029-.386-1.414,0l-3.471,3.471c-.386.386-.386,1.029,0,1.414l3.471,3.6c.386.386,1.029.386,1.414,0ZM206.479,23.979l3.471-3.6c.386-.386.386-1.029,0-1.414l-3.471-3.471c-.386-.386-1.029-.386-1.414,0l-3.471,3.471c-.386.386-.386,1.029,0,1.414l3.471,3.6c.386.386,1.029.386,1.414,0ZM115.963,23.979l3.6-3.6c.386-.386.386-1.029,0-1.414l-3.6-3.471c-.386-.386-1.029-.386-1.414,0l-3.471,3.471c-.386.386-.386,1.029,0,1.414l3.471,3.6c.386.386,1.029.386,1.414,0ZM103.105,23.979l3.472-3.6c.386-.386.386-1.029,0-1.414l-3.472-3.471c-.386-.386-1.029-.386-1.414,0l-3.6,3.471c-.386.386-.386,1.029,0,1.414l3.6,3.6c.386.386,1.029.386,1.414,0ZM90.119,23.979l3.6-3.6c.386-.386.386-1.029,0-1.414l-3.6-3.471c-.386-.386-1.029-.386-1.414,0l-3.471,3.471c-.386.386-.386,1.029,0,1.414l3.471,3.6c.386.386,1.029.386,1.414,0ZM77.262,23.979l3.471-3.6c.386-.386.386-1.029,0-1.414l-3.471-3.471c-.386-.386-1.029-.386-1.414,0l-3.6,3.471c-.386.386-.386,1.029,0,1.414l3.6,3.6c.386.386,1.029.386,1.414,0ZM51.419,23.979l3.471-3.6c.386-.386.386-1.029,0-1.414l-3.471-3.471c-.386-.386-1.029-.386-1.414,0l-3.6,3.471c-.386.386-.386,1.029,0,1.414l3.6,3.6c.386.386,1.029.386,1.414,0ZM38.433,23.979l3.6-3.6c.386-.386.386-1.029,0-1.414l-3.6-3.471c-.386-.386-1.029-.386-1.414,0l-3.472,3.471c-.386.386-.386,1.029,0,1.414l3.472,3.6c.386.386,1.029.386,1.414,0ZM221.522,11.893l-.643.643c-.386.386-.386,1.029,0,1.414l3.6,3.471c.386.386,1.029.386,1.414,0l3.471-3.471c.386-.386.386-1.029,0-1.414l-.643-.643c-.129-.129-.386-.257-.643-.257h-5.786c-.257,0-.514.129-.771.257ZM208.665,11.893l-.643.643c-.386.386-.386,1.029,0,1.414l3.471,3.471c.386.386,1.029.386,1.414,0l3.6-3.471c.386-.386.386-1.029,0-1.414l-.643-.643c-.257-.129-.514-.257-.771-.257h-5.786c-.257,0-.514.129-.643.257ZM195.679,11.893l-.643.643c-.386.386-.386,1.029,0,1.414l3.6,3.471c.386.386,1.029.386,1.414,0l3.471-3.471c.386-.386.386-1.029,0-1.414l-.643-.643c-.129-.129-.386-.257-.643-.257h-5.786c-.257,0-.514.129-.771.257ZM182.821,11.893l-.643.643c-.386.386-.386,1.029,0,1.414l3.471,3.471c.386.386,1.029.386,1.414,0l3.6-3.471c.386-.386.386-1.029,0-1.414l-.643-.643c-.257-.129-.514-.257-.771-.257h-5.786c-.257,0-.514.129-.643.257ZM169.835,11.893l-.643.643c-.386.386-.386,1.029,0,1.414l3.6,3.471c.386.386,1.029.386,1.414,0l3.471-3.471c.386-.386.386-1.029,0-1.414l-.643-.643c-.129-.129-.386-.257-.643-.257h-5.786c-.257,0-.514.129-.771.257ZM143.992,11.893l-.643.643c-.386.386-.386,1.029,0,1.414l3.6,3.471c.386.386,1.029.386,1.414,0l3.471-3.471c.386-.386.386-1.029,0-1.414l-.643-.643c-.129-.129-.386-.257-.643-.257h-5.786c-.257,0-.514.129-.771.257ZM131.135,11.893l-.643.643c-.386.386-.386,1.029,0,1.414l3.471,3.471c.386.386,1.029.386,1.414,0l3.472-3.471c.386-.386.386-1.029,0-1.414l-.514-.643c-.257-.129-.514-.257-.771-.257h-5.786c-.257,0-.514.129-.643.257ZM118.149,11.893l-.643.643c-.386.386-.386,1.029,0,1.414l3.6,3.471c.386.386,1.029.386,1.414,0l3.472-3.471c.386-.386.386-1.029,0-1.414l-.643-.643c-.129-.129-.386-.257-.643-.257h-5.786c-.386,0-.514.129-.771.257ZM105.291,11.893l-.643.643c-.386.386-.386,1.029,0,1.414l3.471,3.471c.386.386,1.029.386,1.414,0l3.472-3.471c.386-.386.386-1.029,0-1.414l-.514-.643c-.257-.129-.514-.257-.771-.257h-5.786c-.257,0-.514.129-.643.257ZM79.448,11.893l-.643.643c-.386.386-.386,1.029,0,1.414l3.471,3.471c.386.386,1.029.386,1.414,0l3.471-3.471c.386-.386.386-1.029,0-1.414l-.514-.643c-.257-.129-.514-.257-.771-.257h-5.786c-.257,0-.514.129-.643.257ZM312.039,11.893l-.643.643c-.386.386-.386,1.029,0,1.414l3.471,3.471c.386.386,1.029.386,1.414,0l3.6-3.471c.386-.386.386-1.029,0-1.414l-.643-.643c-.257-.129-.514-.257-.771-.257h-5.786c-.257,0-.514.129-.643.257ZM299.053,11.893l-.643.643c-.386.386-.386,1.029,0,1.414l3.6,3.471c.386.386,1.029.386,1.414,0l3.471-3.471c.386-.386.386-1.029,0-1.414l-.643-.643c-.129-.129-.386-.257-.643-.257h-5.786c-.257,0-.514.129-.771.257ZM286.195,11.893l-.643.643c-.386.386-.386,1.029,0,1.414l3.471,3.471c.386.386,1.029.386,1.414,0l3.6-3.471c.386-.386.386-1.029,0-1.414l-.643-.643c-.257-.129-.514-.257-.771-.257h-5.786c-.257,0-.514.129-.643.257ZM247.366,11.893l-.643.643c-.386.386-.386,1.029,0,1.414l3.6,3.471c.386.386,1.029.386,1.414,0l3.472-3.471c.386-.386.386-1.029,0-1.414l-.643-.643c-.129-.129-.386-.257-.643-.257h-5.786c-.257,0-.514.129-.771.257ZM234.508,11.893l-.643.643c-.386.386-.386,1.029,0,1.414l3.471,3.471c.386.386,1.029.386,1.414,0l3.6-3.471c.386-.386.386-1.029,0-1.414l-.643-.643c-.257-.129-.514-.257-.771-.257h-5.786c-.257,0-.514.129-.643.257ZM156.978,11.893l-.643.643c-.386.386-.386,1.029,0,1.414l3.471,3.471c.386.386,1.029.386,1.414,0l3.471-3.471c.386-.386.386-1.029,0-1.414l-.514-.643c-.257-.129-.514-.257-.771-.257h-5.786c-.257,0-.514.129-.643.257ZM92.305,11.893l-.643.643c-.386.386-.386,1.029,0,1.414l3.6,3.471c.386.386,1.029.386,1.286,0l3.6-3.471c.386-.386.386-1.029,0-1.414l-.643-.643c-.129-.129-.386-.257-.643-.257h-5.914c-.257,0-.386.129-.643.257ZM66.462,11.893l-.643.643c-.386.386-.386,1.029,0,1.414l3.6,3.471c.386.386.9.386,1.286,0l3.6-3.471c.386-.386.386-1.029,0-1.414l-.643-.643c-.129-.129-.386-.257-.643-.257h-5.914c-.257,0-.514.129-.643.257ZM53.604,11.893l-.643.643c-.386.386-.386,1.029,0,1.414l3.471,3.471c.386.386,1.029.386,1.414,0l3.471-3.471c.386-.386.386-1.029,0-1.414l-.514-.643c-.257-.129-.514-.257-.771-.257h-5.786c-.257,0-.514.129-.643.257ZM40.618,11.893l-.643.643c-.386.386-.386,1.029,0,1.414l3.6,3.471c.386.386.9.386,1.286,0l3.6-3.471c.386-.386.386-1.029,0-1.414l-.643-.643c-.129-.129-.386-.257-.643-.257h-5.914c-.257,0-.514.129-.643.257ZM34.19,11.636h-5.786c-.257,0-.514.129-.643.257l-.643.643c-.386.386-.386,1.029,0,1.414l3.472,3.471c.386.386,1.029.386,1.414,0l3.471-3.471c.386-.386.386-1.029,0-1.414l-.514-.643c-.257-.129-.514-.257-.771-.257ZM297.51,67.694l-.643-.514c-.386-.386-.9-.386-1.286,0l-3.6,3.471c-.386.386-.386,1.029,0,1.414l3.6,3.471c.386.386.9.386,1.286,0l.643-.514c.129-.129.257-.386.257-.643v-6.043c0-.257-.129-.514-.257-.643ZM245.18,75.537l3.6-3.471c.386-.386.386-1.029,0-1.414l-3.6-3.471c-.386-.386-.9-.386-1.286,0l-3.6,3.471c-.386.386-.386,1.029,0,1.414l3.6,3.471c.386.386.9.386,1.286,0ZM180.636,75.537l3.471-3.471c.386-.386.386-1.029,0-1.414l-3.471-3.471c-.386-.386-1.029-.386-1.414,0l-3.471,3.471c-.386.386-.386,1.029,0,1.414l3.471,3.471c.386.386,1.029.386,1.414,0ZM141.806,75.537l3.6-3.471c.386-.386.386-1.029,0-1.414l-3.6-3.471c-.386-.386-1.029-.386-1.414,0l-3.471,3.471c-.386.386-.386,1.029,0,1.414l3.471,3.471c.386.386,1.029.386,1.414,0ZM115.963,75.537l3.6-3.471c.386-.386.386-1.029,0-1.414l-3.6-3.471c-.386-.386-1.029-.386-1.414,0l-3.471,3.471c-.386.386-.386,1.029,0,1.414l3.471,3.471c.386.386,1.029.386,1.414,0ZM284.009,75.537l3.472-3.471c.386-.386.386-1.029,0-1.414l-3.472-3.471c-.386-.386-1.029-.386-1.414,0l-3.471,3.471c-.386.386-.386,1.029,0,1.414l3.471,3.471c.386.386,1.029.386,1.414,0ZM167.65,75.537l3.6-3.471c.386-.386.386-1.029,0-1.414l-3.6-3.471c-.386-.386-1.029-.386-1.414,0l-3.471,3.471c-.386.386-.386,1.029,0,1.414l3.471,3.471c.386.386,1.029.386,1.414,0ZM154.792,75.537l3.471-3.471c.386-.386.386-1.029,0-1.414l-3.471-3.471c-.386-.386-1.029-.386-1.414,0l-3.471,3.471c-.386.386-.386,1.029,0,1.414l3.471,3.471c.386.386,1.029.386,1.414,0ZM128.949,75.537l3.472-3.471c.386-.386.386-1.029,0-1.414l-3.472-3.471c-.386-.386-1.029-.386-1.414,0l-3.6,3.471c-.386.386-.386,1.029,0,1.414l3.6,3.471c.386.386,1.029.386,1.414,0ZM103.105,75.537l3.472-3.471c.386-.386.386-1.029,0-1.414l-3.472-3.471c-.386-.386-1.029-.386-1.414,0l-3.6,3.471c-.386.386-.386,1.029,0,1.414l3.6,3.471c.386.386,1.029.386,1.414,0ZM90.119,75.537l3.6-3.471c.386-.386.386-1.029,0-1.414l-3.6-3.471c-.386-.386-1.029-.386-1.414,0l-3.471,3.471c-.386.386-.386,1.029,0,1.414l3.471,3.471c.386.386,1.029.386,1.414,0ZM77.262,75.537l3.471-3.471c.386-.386.386-1.029,0-1.414l-3.471-3.471c-.386-.386-1.029-.386-1.414,0l-3.6,3.471c-.386.386-.386,1.029,0,1.414l3.6,3.471c.386.386,1.029.386,1.414,0ZM57.847,69.108l3.471-3.471c.386-.386.386-1.029,0-1.414l-3.471-3.6c-.386-.386-1.029-.386-1.414,0l-3.471,3.6c-.386.386-.386,1.029,0,1.414l3.471,3.471c.386.386,1.029.386,1.414,0ZM64.276,75.537l3.6-3.471c.386-.386.386-1.029,0-1.414l-3.6-3.471c-.386-.386-1.029-.386-1.414,0l-3.471,3.471c-.386.386-.386,1.029,0,1.414l3.471,3.471c.386.386,1.029.386,1.414,0ZM267.423,72.966h5.914c.257,0,.386-.129.643-.257l.643-.643c.386-.386.386-1.029,0-1.414l-3.6-3.471c-.386-.386-.9-.386-1.286,0l-3.6,3.471c-.386.386-.386,1.029,0,1.414l.643.643c.129.129.386.257.643.257ZM260.995,72.709l.643-.643c.386-.386.386-1.029,0-1.414l-3.472-3.471c-.386-.386-1.029-.386-1.414,0l-3.471,3.471c-.386.386-.386,1.029,0,1.414l.643.643c.129.129.386.257.643.257h5.786c.257,0,.514-.129.643-.257ZM148.364,69.108l3.471-3.471c.386-.386.386-1.029,0-1.414l-3.471-3.6c-.386-.386-1.029-.386-1.414,0l-3.6,3.6c-.386.386-.386,1.029,0,1.414l3.6,3.471c.386.386,1.029.386,1.414,0ZM109.534,69.108l3.472-3.471c.386-.386.386-1.029,0-1.414l-3.472-3.6c-.386-.386-1.029-.386-1.414,0l-3.471,3.6c-.386.386-.386,1.029,0,1.414l3.471,3.471c.386.386,1.029.386,1.414,0ZM96.548,69.108l3.6-3.471c.386-.386.386-1.029,0-1.414l-3.6-3.6c-.257-.386-.9-.386-1.286,0l-3.6,3.6c-.386.386-.386,1.029,0,1.414l3.6,3.471c.386.386,1.029.386,1.286,0ZM70.705,69.108l3.6-3.471c.386-.386.386-1.029,0-1.414l-3.6-3.6c-.386-.386-.9-.386-1.286,0l-3.6,3.6c-.386.386-.386,1.029,0,1.414l3.6,3.471c.386.386.9.386,1.286,0ZM83.691,69.108l3.471-3.471c.386-.386.386-1.029,0-1.414l-3.471-3.6c-.386-.386-1.029-.386-1.414,0l-3.471,3.6c-.386.386-.386,1.029,0,1.414l3.471,3.471c.386.386,1.029.386,1.414,0ZM174.207,69.108l3.471-3.471c.386-.386.386-1.029,0-1.414l-3.471-3.6c-.386-.386-1.029-.386-1.414,0l-3.6,3.6c-.386.386-.386,1.029,0,1.414l3.6,3.471c.386.386,1.029.386,1.414,0ZM161.221,69.108l3.471-3.471c.386-.386.386-1.029,0-1.414l-3.471-3.6c-.386-.386-1.029-.386-1.414,0l-3.471,3.6c-.386.386-.386,1.029,0,1.414l3.471,3.471c.386.386,1.029.386,1.414,0ZM135.378,69.108l3.472-3.471c.386-.386.386-1.029,0-1.414l-3.472-3.6c-.386-.386-1.029-.386-1.414,0l-3.471,3.6c-.386.386-.386,1.029,0,1.414l3.471,3.471c.386.386,1.029.386,1.414,0ZM122.52,69.108l3.472-3.471c.386-.386.386-1.029,0-1.414l-3.472-3.6c-.386-.386-1.029-.386-1.414,0l-3.6,3.6c-.386.386-.386,1.029,0,1.414l3.6,3.471c.386.386,1.029.386,1.414,0ZM290.438,69.108l3.6-3.471c.386-.386.386-1.029,0-1.414l-3.6-3.6c-.386-.386-1.029-.386-1.414,0l-3.471,3.6c-.386.386-.386,1.029,0,1.414l3.471,3.471c.386.386,1.029.386,1.414,0ZM277.581,69.108l3.472-3.471c.386-.386.386-1.029,0-1.414l-3.472-3.6c-.386-.386-1.029-.386-1.414,0l-3.6,3.6c-.386.386-.386,1.029,0,1.414l3.6,3.471c.386.386,1.029.386,1.414,0ZM264.595,69.108l3.6-3.471c.386-.386.386-1.029,0-1.414l-3.6-3.6c-.386-.386-1.029-.386-1.414,0l-3.471,3.6c-.386.386-.386,1.029,0,1.414l3.471,3.471c.386.386,1.029.386,1.414,0ZM251.737,69.108l3.472-3.471c.386-.386.386-1.029,0-1.414l-3.472-3.6c-.386-.386-1.029-.386-1.414,0l-3.6,3.6c-.386.386-.386,1.029,0,1.414l3.6,3.471c.386.386,1.029.386,1.414,0ZM236.437,62.037v5.657c0,.257,0,.514.257.771l.643.643c.386.386,1.029.386,1.414,0l3.6-3.471c.386-.386.386-1.029,0-1.414l-3.6-3.6c-.386-.386-1.029-.386-1.414,0l-.643.771c-.257.129-.257.386-.257.643ZM187.064,69.108l3.6-3.471c.386-.386.386-1.029,0-1.414l-3.6-3.6c-.386-.386-1.029-.386-1.414,0l-3.471,3.6c-.386.386-.386,1.029,0,1.414l3.471,3.471c.386.386,1.029.386,1.414,0ZM297.767,61.394v-5.914c0-.257-.129-.514-.257-.643l-.643-.643c-.386-.386-.9-.386-1.286,0l-3.6,3.6c-.386.386-.386,1.029,0,1.414l3.6,3.471c.386.386.9.386,1.286,0l.643-.514c.129-.257.257-.514.257-.771ZM150.421,57.151l-.514.643c-.386.386-.386,1.029,0,1.414l3.471,3.471c.386.386,1.029.386,1.414,0l3.471-3.471c.386-.386.386-1.029,0-1.414l-.514-.643c-.129-.129-.386-.257-.643-.257h-6.043c-.257,0-.514.129-.643.257ZM137.435,57.151l-.514.643c-.386.386-.386,1.029,0,1.414l3.471,3.471c.386.386,1.029.386,1.414,0l3.6-3.471c.386-.386.386-1.029,0-1.414l-.643-.643c-.129-.129-.386-.257-.643-.257h-5.914c-.257,0-.514.129-.771.257ZM124.577,57.151l-.643.643c-.386.386-.386,1.029,0,1.414l3.6,3.471c.386.386,1.029.386,1.414,0l3.472-3.471c.386-.386.386-1.029,0-1.414l-.514-.643c-.257-.129-.386-.257-.771-.257h-5.914c-.257,0-.514.129-.643.257ZM111.591,57.151l-.514.643c-.386.386-.386,1.029,0,1.414l3.471,3.471c.386.386,1.029.386,1.414,0l3.6-3.471c.386-.386.386-1.029,0-1.414l-.643-.643c-.129-.129-.386-.257-.643-.257h-5.914c-.257,0-.514.129-.771.257ZM98.734,57.151l-.643.643c-.386.386-.386,1.029,0,1.414l3.6,3.471c.386.386,1.029.386,1.414,0l3.472-3.471c.386-.386.386-1.029,0-1.414l-.514-.643c-.257-.129-.386-.257-.771-.257h-5.914c-.257,0-.514.129-.643.257ZM85.748,57.151l-.514.643c-.386.386-.386,1.029,0,1.414l3.471,3.471c.386.386,1.029.386,1.414,0l3.6-3.471c.386-.386.386-1.029,0-1.414l-.643-.643c-.129-.129-.386-.257-.643-.257h-5.914c-.257,0-.514.129-.771.257ZM72.891,57.151l-.643.643c-.386.386-.386,1.029,0,1.414l3.6,3.471c.386.386,1.029.386,1.414,0l3.471-3.471c.386-.386.386-1.029,0-1.414l-.514-.643c-.257-.129-.514-.257-.771-.257h-5.914c-.257,0-.514.129-.643.257ZM64.276,62.68l3.6-3.471c.386-.386.386-1.029,0-1.414l-3.6-3.6c-.386-.386-1.029-.386-1.414,0l-3.471,3.6c-.386.386-.386,1.029,0,1.414l3.471,3.471c.386.386,1.029.386,1.414,0ZM284.009,62.68l3.472-3.471c.386-.386.386-1.029,0-1.414l-3.472-3.6c-.386-.386-1.029-.386-1.414,0l-3.471,3.6c-.386.386-.386,1.029,0,1.414l3.471,3.471c.386.386,1.029.386,1.414,0ZM271.023,62.68l3.6-3.471c.386-.386.386-1.029,0-1.414l-3.6-3.6c-.386-.386-.9-.386-1.286,0l-3.6,3.6c-.386.386-.386,1.029,0,1.414l3.6,3.471c.386.386.9.386,1.286,0ZM258.166,62.68l3.472-3.471c.386-.386.386-1.029,0-1.414l-3.472-3.6c-.386-.386-1.029-.386-1.414,0l-3.471,3.6c-.386.386-.386,1.029,0,1.414l3.471,3.471c.386.386,1.029.386,1.414,0ZM245.18,62.68l3.6-3.471c.386-.386.386-1.029,0-1.414l-3.6-3.6c-.386-.386-.9-.386-1.286,0l-3.6,3.6c-.386.386-.386,1.029,0,1.414l3.6,3.471c.386.386.9.386,1.286,0ZM176.264,57.151l-.514.643c-.386.386-.386,1.029,0,1.414l3.471,3.471c.386.386,1.029.386,1.414,0l3.471-3.471c.386-.386.386-1.029,0-1.414l-.514-.643c-.129-.129-.386-.257-.643-.257h-6.043c-.257,0-.514.129-.643.257ZM163.278,57.151l-.514.643c-.386.386-.386,1.029,0,1.414l3.471,3.471c.386.386,1.029.386,1.414,0l3.6-3.471c.386-.386.386-1.029,0-1.414l-.643-.643c-.129-.129-.386-.257-.643-.257h-5.914c-.257,0-.514.129-.771.257ZM290.438,56.251l3.6-3.6c.386-.386.386-1.029,0-1.414l-3.6-3.471c-.386-.386-1.029-.386-1.414,0l-3.471,3.471c-.386.386-.386,1.029,0,1.414l3.471,3.6c.386.386,1.029.386,1.414,0ZM277.581,56.251l3.472-3.6c.386-.386.386-1.029,0-1.414l-3.472-3.471c-.386-.386-1.029-.386-1.414,0l-3.6,3.471c-.386.386-.386,1.029,0,1.414l3.6,3.6c.386.386,1.029.386,1.414,0ZM264.595,56.251l3.6-3.6c.386-.386.386-1.029,0-1.414l-3.6-3.471c-.386-.386-1.029-.386-1.414,0l-3.471,3.471c-.386.386-.386,1.029,0,1.414l3.471,3.6c.386.386,1.029.386,1.414,0ZM251.737,56.251l3.472-3.6c.386-.386.386-1.029,0-1.414l-3.472-3.471c-.386-.386-1.029-.386-1.414,0l-3.6,3.471c-.386.386-.386,1.029,0,1.414l3.6,3.6c.386.386,1.029.386,1.414,0ZM236.694,55.48l.643.771c.386.386,1.029.386,1.414,0l3.6-3.6c.386-.386.386-1.029,0-1.414l-3.6-3.471c-.386-.386-1.029-.386-1.414,0l-.643.643c-.257.257-.257.514-.257.771v5.657c0,.257,0,.514.257.643ZM187.064,56.251l3.6-3.6c.386-.386.386-1.029,0-1.414l-3.6-3.471c-.386-.386-1.029-.386-1.414,0l-3.471,3.471c-.386.386-.386,1.029,0,1.414l3.471,3.6c.386.386,1.029.386,1.414,0ZM299.695,53.551h5.914c.257,0,.514-.129.771-.257l.514-.643c.386-.386.386-1.029,0-1.414l-3.471-3.471c-.386-.386-1.029-.386-1.414,0l-3.6,3.471c-.386.386-.386,1.029,0,1.414l.643.643c.129.129.386.257.643.257ZM258.166,49.694l3.472-3.471c.386-.386.386-1.029,0-1.414l-3.472-3.471c-.386-.386-1.029-.386-1.414,0l-3.471,3.471c-.386.386-.386,1.029,0,1.414l3.471,3.471c.386.386,1.029.386,1.414,0ZM245.18,49.694l3.6-3.471c.386-.386.386-1.029,0-1.414l-3.6-3.471c-.386-.386-.9-.386-1.286,0l-3.6,3.471c-.386.386-.386,1.029,0,1.414l3.6,3.471c.386.386.9.386,1.286,0ZM232.323,49.694l3.471-3.471c.386-.386.386-1.029,0-1.414l-3.471-3.471c-.386-.386-1.029-.386-1.414,0l-3.471,3.471c-.386.386-.386,1.029,0,1.414l3.471,3.471c.386.386,1.029.386,1.414,0ZM219.337,49.694l3.6-3.471c.386-.386.386-1.029,0-1.414l-3.6-3.471c-.386-.386-.9-.386-1.286,0l-3.6,3.471c-.386.386-.386,1.029,0,1.414l3.6,3.471c.386.386.9.386,1.286,0ZM310.367,41.851l-.514-.514c-.386-.386-1.029-.386-1.414,0l-3.471,3.471c-.386.386-.386,1.029,0,1.414l3.471,3.471c.386.386,1.029.386,1.414,0l.514-.514c.257-.129.257-.386.257-.643v-6.043c0-.257,0-.386-.257-.643ZM296.867,49.694l3.6-3.471c.386-.386.386-1.029,0-1.414l-3.6-3.471c-.386-.386-.9-.386-1.286,0l-3.6,3.471c-.386.386-.386,1.029,0,1.414l3.6,3.471c.386.386.9.386,1.286,0ZM284.009,49.694l3.472-3.471c.386-.386.386-1.029,0-1.414l-3.472-3.471c-.386-.386-1.029-.386-1.414,0l-3.471,3.471c-.386.386-.386,1.029,0,1.414l3.471,3.471c.386.386,1.029.386,1.414,0ZM271.023,49.694l3.6-3.471c.386-.386.386-1.029,0-1.414l-3.6-3.471c-.386-.386-.9-.386-1.286,0l-3.6,3.471c-.386.386-.386,1.029,0,1.414l3.6,3.471c.386.386.9.386,1.286,0ZM206.479,49.694l3.471-3.471c.386-.386.386-1.029,0-1.414l-3.471-3.471c-.386-.386-1.029-.386-1.414,0l-3.471,3.471c-.386.386-.386,1.029,0,1.414l3.471,3.471c.386.386,1.029.386,1.414,0ZM193.493,49.694l3.6-3.471c.386-.386.386-1.029,0-1.414l-3.6-3.471c-.386-.386-1.029-.386-1.414,0l-3.471,3.471c-.386.386-.386,1.029,0,1.414l3.471,3.471c.386.386,1.029.386,1.414,0ZM70.705,43.265l3.6-3.471c.386-.386.386-1.029,0-1.414l-3.6-3.471c-.386-.386-.9-.386-1.286,0l-3.6,3.471c-.386.386-.386,1.029,0,1.414l3.6,3.471c.386.386.9.386,1.286,0ZM57.847,43.265l3.471-3.471c.386-.386.386-1.029,0-1.414l-3.471-3.471c-.386-.386-1.029-.386-1.414,0l-3.471,3.471c-.386.386-.386,1.029,0,1.414l3.471,3.471c.386.386,1.029.386,1.414,0ZM44.861,43.265l3.6-3.471c.386-.386.386-1.029,0-1.414l-3.6-3.471c-.386-.386-.9-.386-1.286,0l-3.6,3.471c-.386.386-.386,1.029,0,1.414l3.6,3.471c.386.386.9.386,1.286,0ZM28.275,40.565h6.043c.257,0,.514,0,.643-.257l.514-.514c.386-.386.386-1.029,0-1.414l-3.471-3.471c-.386-.386-1.029-.386-1.414,0l-3.472,3.471c-.386.386-.386,1.029,0,1.414l.514.514c.129.257.386.257.643.257ZM70.705,30.408l3.6-3.6c.386-.386.386-.9,0-1.286l-3.6-3.6c-.386-.386-.9-.386-1.286,0l-3.6,3.6c-.386.386-.386.9,0,1.286l3.6,3.6c.386.386.9.386,1.286,0ZM64.276,36.836l3.6-3.471c.386-.386.386-1.029,0-1.414l-3.6-3.6c-.386-.386-1.029-.386-1.414,0l-3.471,3.6c-.386.386-.386,1.029,0,1.414l3.471,3.471c.386.386,1.029.386,1.414,0ZM57.847,30.408l3.471-3.6c.386-.386.386-.9,0-1.286l-3.471-3.6c-.386-.386-1.029-.386-1.414,0l-3.471,3.6c-.386.386-.386.9,0,1.286l3.471,3.6c.386.386,1.029.386,1.414,0ZM51.419,36.836l3.471-3.471c.386-.386.386-1.029,0-1.414l-3.471-3.6c-.386-.386-1.029-.386-1.414,0l-3.6,3.6c-.386.386-.386,1.029,0,1.414l3.6,3.471c.386.386,1.029.386,1.414,0ZM44.861,30.408l3.6-3.6c.386-.386.386-.9,0-1.286l-3.6-3.6c-.386-.386-.9-.386-1.286,0l-3.6,3.6c-.386.386-.386.9,0,1.286l3.6,3.6c.386.386.9.386,1.286,0ZM38.433,36.836l3.6-3.471c.386-.386.386-1.029,0-1.414l-3.6-3.6c-.386-.386-1.029-.386-1.414,0l-3.472,3.6c-.386.386-.386,1.029,0,1.414l3.472,3.471c.386.386,1.029.386,1.414,0ZM32.004,30.408l3.471-3.6c.386-.386.386-.9,0-1.286l-3.471-3.6c-.386-.386-1.029-.386-1.414,0l-3.472,3.6c-.386.386-.386.9,0,1.286l3.472,3.6c.386.386,1.029.386,1.414,0ZM70.705,56.251l3.6-3.6c.386-.386.386-1.029,0-1.414l-3.6-3.471c-.386-.386-.9-.386-1.286,0l-3.6,3.471c-.386.386-.386,1.029,0,1.414l3.6,3.6c.386.386.9.386,1.286,0ZM64.276,49.694l3.6-3.471c.386-.386.386-1.029,0-1.414l-3.6-3.471c-.386-.386-1.029-.386-1.414,0l-3.471,3.471c-.386.386-.386,1.029,0,1.414l3.471,3.471c.386.386,1.029.386,1.414,0ZM57.847,56.251l3.471-3.6c.386-.386.386-1.029,0-1.414l-3.471-3.471c-.386-.386-1.029-.386-1.414,0l-3.471,3.471c-.386.386-.386,1.029,0,1.414l3.471,3.6c.386.386,1.029.386,1.414,0ZM51.419,49.694l3.471-3.471c.386-.386.386-1.029,0-1.414l-3.471-3.471c-.386-.386-1.029-.386-1.414,0l-3.6,3.471c-.386.386-.386,1.029,0,1.414l3.6,3.471c.386.386,1.029.386,1.414,0ZM41.261,53.551h5.914c.257,0,.514-.129.643-.257l.643-.643c.386-.386.386-1.029,0-1.414l-3.6-3.471c-.386-.386-.9-.386-1.286,0l-3.6,3.471c-.386.386-.386,1.029,0,1.414l.643.643c.129.129.386.257.643.257ZM312.681,40.565h5.914c.257,0,.514,0,.643-.257l.643-.514c.386-.386.386-1.029,0-1.414l-3.6-3.471c-.386-.386-1.029-.386-1.414,0l-3.471,3.471c-.386.386-.386,1.029,0,1.414l.514.514c.257.257.514.257.771.257ZM303.424,43.265l3.471-3.471c.386-.386.386-1.029,0-1.414l-3.471-3.471c-.386-.386-1.029-.386-1.414,0l-3.6,3.471c-.386.386-.386,1.029,0,1.414l3.6,3.471c.386.386,1.029.386,1.414,0ZM290.438,43.265l3.6-3.471c.386-.386.386-1.029,0-1.414l-3.6-3.471c-.386-.386-1.029-.386-1.414,0l-3.471,3.471c-.386.386-.386,1.029,0,1.414l3.471,3.471c.386.386,1.029.386,1.414,0ZM277.581,43.265l3.472-3.471c.386-.386.386-1.029,0-1.414l-3.472-3.471c-.386-.386-1.029-.386-1.414,0l-3.6,3.471c-.386.386-.386,1.029,0,1.414l3.6,3.471c.386.386,1.029.386,1.414,0ZM264.595,43.265l3.6-3.471c.386-.386.386-1.029,0-1.414l-3.6-3.471c-.386-.386-1.029-.386-1.414,0l-3.471,3.471c-.386.386-.386,1.029,0,1.414l3.471,3.471c.386.386,1.029.386,1.414,0ZM238.751,43.265l3.6-3.471c.386-.386.386-1.029,0-1.414l-3.6-3.471c-.386-.386-1.029-.386-1.414,0l-3.471,3.471c-.386.386-.386,1.029,0,1.414l3.471,3.471c.386.386,1.029.386,1.414,0ZM212.908,43.265l3.6-3.471c.386-.386.386-1.029,0-1.414l-3.6-3.471c-.386-.386-1.029-.386-1.414,0l-3.471,3.471c-.386.386-.386,1.029,0,1.414l3.471,3.471c.386.386,1.029.386,1.414,0ZM200.05,43.265l3.471-3.471c.386-.386.386-1.029,0-1.414l-3.471-3.471c-.386-.386-1.029-.386-1.414,0l-3.6,3.471c-.386.386-.386,1.029,0,1.414l3.6,3.471c.386.386,1.029.386,1.414,0ZM251.737,43.265l3.472-3.471c.386-.386.386-1.029,0-1.414l-3.472-3.471c-.386-.386-1.029-.386-1.414,0l-3.6,3.471c-.386.386-.386,1.029,0,1.414l3.6,3.471c.386.386,1.029.386,1.414,0ZM225.894,43.265l3.471-3.471c.386-.386.386-1.029,0-1.414l-3.471-3.471c-.386-.386-1.029-.386-1.414,0l-3.6,3.471c-.386.386-.386,1.029,0,1.414l3.6,3.471c.386.386,1.029.386,1.414,0ZM187.064,43.265l3.6-3.471c.386-.386.386-1.029,0-1.414l-3.6-3.471c-.386-.386-1.029-.386-1.414,0l-3.471,3.471c-.386.386-.386,1.029,0,1.414l3.471,3.471c.386.386,1.029.386,1.414,0ZM128.949,36.836l3.472-3.471c.386-.386.386-1.029,0-1.414l-3.472-3.6c-.386-.386-1.029-.386-1.414,0l-3.6,3.6c-.386.386-.386,1.029,0,1.414l3.6,3.471c.386.386,1.029.386,1.414,0ZM122.52,30.408l3.472-3.6c.386-.386.386-.9,0-1.286l-3.472-3.6c-.386-.386-1.029-.386-1.414,0l-3.6,3.6c-.386.386-.386.9,0,1.286l3.6,3.6c.386.386,1.029.386,1.414,0ZM125.349,47.122h5.786c.257,0,.514,0,.643-.257l.643-.643c.386-.386.386-1.029,0-1.414l-3.472-3.471c-.386-.386-1.029-.386-1.414,0l-3.6,3.471c-.386.386-.386,1.029,0,1.414l.771.643c.129.257.386.257.643.257ZM122.52,43.265l3.472-3.471c.386-.386.386-1.029,0-1.414l-3.472-3.471c-.386-.386-1.029-.386-1.414,0l-3.6,3.471c-.386.386-.386,1.029,0,1.414l3.6,3.471c.386.386,1.029.386,1.414,0ZM309.853,36.836l3.471-3.471c.386-.386.386-1.029,0-1.414l-3.471-3.6c-.386-.386-1.029-.386-1.414,0l-3.471,3.6c-.386.386-.386,1.029,0,1.414l3.471,3.471c.386.386,1.029.386,1.414,0ZM296.867,36.836l3.6-3.471c.386-.386.386-1.029,0-1.414l-3.6-3.6c-.386-.386-.9-.386-1.286,0l-3.6,3.6c-.386.386-.386,1.029,0,1.414l3.6,3.471c.386.386.9.386,1.286,0ZM284.009,36.836l3.472-3.471c.386-.386.386-1.029,0-1.414l-3.472-3.6c-.386-.386-1.029-.386-1.414,0l-3.471,3.6c-.386.386-.386,1.029,0,1.414l3.471,3.471c.386.386,1.029.386,1.414,0ZM258.166,36.836l3.472-3.471c.386-.386.386-1.029,0-1.414l-3.472-3.6c-.386-.386-1.029-.386-1.414,0l-3.471,3.6c-.386.386-.386,1.029,0,1.414l3.471,3.471c.386.386,1.029.386,1.414,0ZM245.18,36.836l3.6-3.471c.386-.386.386-1.029,0-1.414l-3.6-3.6c-.386-.386-.9-.386-1.286,0l-3.6,3.6c-.386.386-.386,1.029,0,1.414l3.6,3.471c.386.386.9.386,1.286,0ZM232.323,36.836l3.471-3.471c.386-.386.386-1.029,0-1.414l-3.471-3.6c-.386-.386-1.029-.386-1.414,0l-3.471,3.6c-.386.386-.386,1.029,0,1.414l3.471,3.471c.386.386,1.029.386,1.414,0ZM219.337,36.836l3.6-3.471c.386-.386.386-1.029,0-1.414l-3.6-3.6c-.386-.386-.9-.386-1.286,0l-3.6,3.6c-.386.386-.386,1.029,0,1.414l3.6,3.471c.386.386.9.386,1.286,0ZM206.479,36.836l3.471-3.471c.386-.386.386-1.029,0-1.414l-3.471-3.6c-.386-.386-1.029-.386-1.414,0l-3.471,3.6c-.386.386-.386,1.029,0,1.414l3.471,3.471c.386.386,1.029.386,1.414,0ZM193.493,36.836l3.6-3.471c.386-.386.386-1.029,0-1.414l-3.6-3.6c-.386-.386-1.029-.386-1.414,0l-3.471,3.6c-.386.386-.386,1.029,0,1.414l3.471,3.471c.386.386,1.029.386,1.414,0ZM303.424,30.408l3.471-3.6c.386-.386.386-.9,0-1.286l-3.471-3.6c-.386-.386-1.029-.386-1.414,0l-3.6,3.6c-.386.386-.386.9,0,1.286l3.6,3.6c.386.386,1.029.386,1.414,0ZM290.438,30.408l3.6-3.6c.386-.386.386-.9,0-1.286l-3.6-3.6c-.386-.386-1.029-.386-1.414,0l-3.471,3.6c-.386.386-.386.9,0,1.286l3.471,3.6c.386.386,1.029.386,1.414,0ZM251.737,30.408l3.472-3.6c.386-.386.386-.9,0-1.286l-3.472-3.6c-.386-.386-1.029-.386-1.414,0l-3.6,3.6c-.386.386-.386.9,0,1.286l3.6,3.6c.386.386,1.029.386,1.414,0ZM238.751,30.408l3.6-3.6c.386-.386.386-.9,0-1.286l-3.6-3.6c-.386-.386-1.029-.386-1.414,0l-3.471,3.6c-.386.386-.386.9,0,1.286l3.471,3.6c.386.386,1.029.386,1.414,0ZM225.894,30.408l3.471-3.6c.386-.386.386-.9,0-1.286l-3.471-3.6c-.386-.386-1.029-.386-1.414,0l-3.6,3.6c-.386.386-.386.9,0,1.286l3.6,3.6c.386.386,1.029.386,1.414,0ZM212.908,30.408l3.6-3.6c.386-.386.386-.9,0-1.286l-3.6-3.6c-.386-.386-1.029-.386-1.414,0l-3.471,3.6c-.386.386-.386.9,0,1.286l3.471,3.6c.386.386,1.029.386,1.414,0ZM200.05,30.408l3.471-3.6c.386-.386.386-.9,0-1.286l-3.471-3.6c-.386-.386-1.029-.386-1.414,0l-3.6,3.6c-.386.386-.386.9,0,1.286l3.6,3.6c.386.386,1.029.386,1.414,0ZM187.064,30.408l3.6-3.6c.386-.386.386-.9,0-1.286l-3.6-3.6c-.386-.386-1.029-.386-1.414,0l-3.471,3.6c-.386.386-.386.9,0,1.286l3.471,3.6c.386.386,1.029.386,1.414,0Z" fill="#333" fill-rule="evenodd" stroke-width="0"/><path d="M280.42,18.915h.129c.129,0,.257-.129.257-.386v-.129c-.129-.257-.257-.386-.386-.386h-.129v-.386h.129c.129-.129.257-.257.129-.386v-.257c0-.129-.257-.257-.386-.257h-.129c0-.129,0-.257-.129-.386l.129-.129c.129,0,.257-.129.257-.386l-.129-.129c0-.129-.257-.257-.386-.257h-.129c0-.129-.129-.257-.129-.386h.129c.129-.129.129-.257.129-.514l-.129-.129c0-.129-.257-.257-.386-.129h-.129c0-.129-.129-.257-.129-.386l.129-.129c.129,0,.129-.257,0-.386l-.129-.129c0-.257-.257-.257-.386-.257l-.129.129c0-.129-.129-.257-.257-.386l.129-.129c.129,0,.129-.257,0-.386l-.129-.129c0-.129-.257-.257-.386-.129l-.129.129c0-.129-.129-.257-.257-.386l.129-.129c.129-.129.129-.257,0-.386l-.129-.257c-.129-.129-.386-.129-.386,0l-.129.129-.386-.386.129-.129c.129-.129,0-.257-.129-.386l-.129-.129c-.129-.129-.257-.129-.386,0l-.129.129c-.129-.129-.257-.257-.386-.386l.129-.129c.129,0,0-.257-.129-.386l-.129-.129c-.129,0-.386,0-.386.129h-.129c-.129,0-.257-.129-.386-.257v-.129c.129,0,0-.257-.129-.257l-.129-.129c-.129-.129-.386-.129-.386,0l-.129.129c-.129,0-.257-.129-.386-.129v-.257c.129-.129,0-.257-.129-.257l-.257-.129c-.129-.129-.257,0-.386.129v.129c-.129-.129-.386-.129-.514-.257l.129-.129c0-.129-.129-.257-.257-.257l-.257-.129c-.129,0-.257,0-.386.129v.129c-.129,0-.257,0-.514-.129l.129-.129c0-.129-.129-.257-.257-.257h-.257c-.129-.129-.386,0-.386.129v.129h-.514v-.257c.129-.129,0-.257-.257-.257h-.129c-.257,0-.386.129-.386.257v.129h-.514v-.129c0-.257-.129-.257-.257-.257h-.257c-.129,0-.386,0-.386.257v.129h-.386v-.129c0-.129-.257-.257-.386-.257h-.257c-.129,0-.257.129-.257.257v.257h-.386l-.129-.129c0-.129-.129-.257-.386-.129h-.129c-.257,0-.257.129-.257.257v.129c-.129.129-.257.129-.514.129v-.129c0-.129-.257-.129-.386-.129l-.129.129c-.257,0-.386.129-.257.257v.129c-.129.129-.257.129-.386.257l-.129-.129c0-.129-.257-.257-.386-.129l-.129.129c-.257,0-.257.129-.257.257l.129.257c-.129,0-.257.129-.514.129v-.129c-.129-.129-.257-.129-.386,0l-.257.129c-.129,0-.129.257-.129.257l.129.129c-.129.129-.257.257-.386.257h-.129c-.129-.129-.257-.129-.386-.129l-.257.129c-.129.129-.129.386,0,.386v.129c-.129.129-.257.257-.386.386v-.129c-.129-.129-.386-.129-.514,0l-.129.129c-.129.129-.129.257,0,.386v.129c0,.129-.129.257-.257.386l-.129-.129c-.129-.129-.257-.129-.386,0l-.129.257c-.129.129-.129.257,0,.386v.129c0,.129-.129.257-.257.386l-.129-.129c-.129-.129-.257,0-.386.129l-.129.129c-.129.129-.129.386,0,.386l.129.129c0,.129-.129.257-.257.386l-.129-.129c-.129,0-.257,0-.386.257l-.129.129c0,.129,0,.386.129.386l.129.129c-.129.129-.129.257-.257.386h-.129c-.129-.129-.257,0-.386.129v.129c-.129.257-.129.386,0,.514h.257c-.129.129-.129.257-.257.386h-.129c-.129,0-.257.129-.386.257v.129c-.129.257,0,.386.129.386l.129.129c0,.129-.129.257-.129.386h-.129c-.129,0-.257.129-.257.257l-.129.257c0,.129.129.257.257.386h.129c0,.129-.129.257-.129.386h-.129c-.129,0-.257.129-.257.386v.129c0,.257,0,.386.129.386h.257c-.129.129-.129.257-.129.514h-.129c-.129,0-.257.129-.257.257v.257c0,.129.129.257.257.257h.129c0,.257,0,.386.129.514h-.257c-.129,0-.129.129-.129.386v.129c0,.257.129.386.257.386h.129c0,.129.129.257.129.386h-.129c-.129.129-.257.257-.257.386l.129.257c0,.129.129.257.257.257h.129c0,.129.129.257.129.386l-.129.129c-.129,0-.257.129-.129.386v.129c.129.129.257.257.386.257h.129c.129.129.129.257.257.386h-.257c-.129.129-.129.257,0,.514v.129c.129.129.257.257.386.129h.129c.129.129.129.257.257.386l-.129.129c-.129,0-.129.257-.129.386l.129.129c.129.257.257.257.386.257l.129-.129c.129.129.257.257.257.386l-.129.129c-.129,0-.129.257,0,.386l.129.129c.129.129.257.257.386.129l.129-.129c.129.129.257.257.257.386v.129c-.129.129-.129.257,0,.386l.129.257c.129.129.257.129.386,0l.129-.129c.129.129.257.257.257.386v.129c-.129.129-.129.257,0,.386l.129.129c.129.129.386.129.514,0v-.129l.386.386v.129c-.129,0-.129.257,0,.386l.257.129c.129,0,.257,0,.386-.129l.129-.129c.129.129.257.257.386.257l-.129.257s0,.257.129.257l.257.129c.129.129.257.129.386,0v-.129c.257,0,.386.129.514.129l-.129.257c0,.129,0,.257.257.257l.129.129c.129.129.386,0,.386-.129l.129-.129c.129.129.257.129.386.129v.257c-.129.129,0,.257.257.257l.129.129c.129,0,.386,0,.386-.129v-.129h.514v.257c0,.129,0,.257.257.257h.129c.257.129.386,0,.386-.129l.129-.129h.386v.257c0,.129.129.257.257.257h.257c.129,0,.386-.129.386-.257v-.129h.386v.129c0,.257.257.257.386.257h.257c.129,0,.257,0,.257-.257v-.129h.514v.129c0,.129.129.257.386.257h.129c.257,0,.386-.129.257-.257v-.257h.514v.129c0,.129.257.257.386.129h.257c.129,0,.257-.129.257-.257l-.129-.257h.514v.129c.129.129.257.129.386.129l.257-.129c.129,0,.257-.129.257-.257l-.129-.257c.129,0,.386,0,.514-.129v.129c.129.129.257.257.386.129l.257-.129c.129,0,.257-.129.129-.257v-.257c.129,0,.257-.129.386-.129l.129.129c0,.129.257.129.386,0l.129-.129c.129,0,.257-.257.129-.257v-.257c.129,0,.257-.129.386-.257l.129.129c0,.129.257.129.386.129l.129-.129c.129-.129.257-.386.129-.386l-.129-.129.386-.386.129.129c.129.129.257.129.386,0l.129-.129c.129-.129.257-.257.129-.386l-.129-.129.386-.386.129.129c0,.129.257.129.386,0l.129-.257c.129-.129.129-.257,0-.386l-.129-.129c.129-.129.257-.257.257-.386l.129.129c.129.129.386,0,.386-.129l.129-.129c.129-.129.129-.386,0-.386l-.129-.129c.129-.129.257-.257.257-.386l.129.129c.129,0,.386,0,.386-.257l.129-.129c.129-.129.129-.386,0-.386l-.129-.129c0-.129.129-.257.129-.386h.129c.129.129.386,0,.386-.129l.129-.129c0-.257,0-.386-.129-.514h-.129c0-.129.129-.257.129-.386h.129c.129,0,.386-.129.386-.257l.129-.129c0-.257-.129-.386-.257-.386l-.129-.129c.129-.129.129-.257.129-.386h.129c.129,0,.386-.129.386-.257v-.257c.129-.129,0-.257-.129-.386h-.129v-.386h.129c.129,0,.257-.129.386-.386v-.129c0-.257-.129-.386-.257-.386h-.129v-.514h.129c.129,0,.257-.129.257-.257v-.257c0-.129-.129-.257-.257-.257h-.129v-.514Z" fill="#4782d1" stroke-width="0"/><path d="M278.492,19.815c0-5.914-4.757-10.672-10.672-10.672s-10.8,4.757-10.8,10.672,4.886,10.672,10.8,10.672,10.672-4.757,10.672-10.672" fill="#6697d9" fill-rule="evenodd" stroke-width="0"/><path d="M275.277,19.815c0-4.114-3.343-7.586-7.457-7.586-4.243,0-7.586,3.471-7.586,7.586s3.343,7.586,7.586,7.586c4.114,0,7.457-3.471,7.457-7.586Z" fill="#ddd" stroke-width="0"/><path d="M270.134,20.715h1.286c.257,0,.386-.257.386-.514v-.771c0-.257-.129-.514-.386-.514h-1.286c-.771,0-1.543-.643-1.543-1.414v-1.286c0-.257-.129-.514-.386-.514h-.9c-.129,0-.386.257-.386.514v1.286c0,.771-.643,1.414-1.543,1.414h-1.286c-.129,0-.386.257-.386.514v.771c0,.257.257.514.386.514h1.286c.9,0,1.543.643,1.543,1.414v1.286c0,.257.257.514.386.514h.9c.257,0,.386-.257.386-.514v-1.286c0-.771.771-1.414,1.543-1.414Z" fill="#a2a2a2" stroke-width="0"/><path d="M24.371,70.345l.078-.078c.078-.078.078-.233-.078-.388l-.078-.078c-.233-.078-.388-.078-.466,0l-.078.078-.233-.233.078-.078c0-.155,0-.311-.155-.311l-.155-.155c-.078-.078-.311,0-.388.078l-.078.078c-.078-.078-.155-.155-.311-.155v-.155c.078-.078.078-.233-.078-.388h-.155c-.078-.078-.311,0-.388.078l-.078.078c-.078-.078-.233-.078-.311-.155l.078-.078c0-.155-.078-.233-.233-.388h-.155c-.078-.078-.311,0-.311.155l-.078.078c-.078-.078-.233-.078-.311-.155v-.155c.078-.078-.078-.233-.233-.233h-.155c-.155-.155-.311,0-.388.078v.155c-.078-.078-.233-.078-.388-.078v-.155c.078-.078-.078-.233-.233-.233h-.155c-.078-.078-.311,0-.311.155v.155c-.078-.078-.233-.078-.388-.078v-.155c0-.155-.078-.233-.233-.233l-.233-.078c-.155,0-.311.155-.233.233v.155h-.466v-.155c0-.155-.155-.155-.311-.155h-.155c-.155,0-.233.078-.233.233v.155c-.155,0-.311,0-.466,0v-.155c.078-.078-.155-.155-.311-.155h-.155c-.078.078-.233.233-.155.311l-.078.078c-.078.078-.233.078-.388.078l-.078-.078c.078-.078-.155-.155-.233-.078h-.155c-.155,0-.311.155-.233.233v.155c-.078.078-.233.078-.311.155l-.155-.155c0-.155-.155-.155-.233-.078l-.233.078c-.155,0-.155.155-.155.311l.078.078c-.155,0-.311.155-.466.155v-.155c-.078-.078-.233-.078-.311,0l-.233.078c-.078.078-.155.155-.155.311l.078.078c-.078.078-.155.155-.388.233v-.155c-.078-.078-.233-.078-.311,0l-.155.155c-.155,0-.233.233-.155.311l.078.078-.311.311-.155-.155c0-.155-.155-.155-.311,0l-.078.078c-.155.155-.155.311-.078.388l.078.078-.311.311-.078-.078c-.155-.155-.233-.078-.311,0l-.155.155c-.078.078-.233.233-.078.388l.078.078-.233.233-.078-.078c-.078-.078-.311,0-.388.078l-.155.155c-.078.078-.078.233,0,.311l.155.155-.233.233h-.155c-.078-.078-.233-.078-.311.155l-.078.078c-.155.155-.078.233,0,.311l.078.078c0,.155-.078.233-.233.388l-.078-.078c-.078-.078-.233.078-.311.155v.155c-.155.155-.155.311,0,.311l.078.078c0,.155-.078.233-.078.388h-.155c-.078-.078-.311,0-.311.155v.155c-.155.155-.078.233,0,.311l.233.078c-.078.078-.078.233-.233.388l-.078-.078c-.155,0-.233.078-.233.233l-.078.233c-.078.078.078.233.078.233h.155c0,.155,0,.311-.078.388l-.078.078c-.155,0-.233.078-.311.155l-.078.233c0,.155.155.311.233.233l.078.078c0,.155,0,.311,0,.466l-.078-.078c-.155,0-.311.155-.311.311v.155c0,.155.078.233.233.233l.078.078c.078.078.078.233.078.388h-.155c-.155,0-.233.078-.233.233l.078.233c0,.155.078.233.233.233l.078.078c.078.078.078.233.078.388h-.155c-.155,0-.155.155-.155.311v.155c0,.155.155.311.233.233h.155c.078.078.078.233.078.388h-.155c-.078.078-.155.155-.078.388v.155c.078.078.233.233.311.155h.155c0,.155.078.233.078.388l-.078.078c-.155,0-.155.155-.155.311l.078.078c.078.233.155.311.311.311l.155-.155c0,.155.078.233.078.388l-.078.078c-.078.078-.078.233-.078.388l.078.078c.078.233.233.233.311.155h.155c.078.078.078.233.155.311l-.078.078c-.078.078-.078.233,0,.311l.078.233c.078.078.233.078.388.078l.078-.078c.078.078.078.233.155.311l-.078.078c-.078.078-.078.233.078.388l.078.078c.155.155.233.233.311.155l.155-.155c0,.155.078.233.233.388l-.078.078c-.078.078-.078.233,0,.311l.155.155c.078.078.233.078.311,0l.078-.078c.155.155.233.233.388.233l-.155.155c-.078.078,0,.155.155.311l.078.078c.155.155.311.155.388.078l.078-.078c.078.078.233.078.311.155l-.078.078c0,.155,0,.311.078.388l.233.078c.078.078.233.078.311,0l.078-.078c.078.078.233.078.311.155v.155c-.078.078-.078.233.155.311l.078.078c.155,0,.311,0,.388-.078l.078-.078c.155,0,.233.078.388.078l-.155.155c0,.155.078.233.311.311l.078.078c.155,0,.311,0,.311-.155l.078-.078c.155,0,.233.078.388.078v.155c-.078.078.078.233.155.311h.155c.233.078.311,0,.388-.078v-.155c.155,0,.311,0,.388.078v.155c-.078.078.078.233.233.233h.155c.155,0,.311,0,.311-.155v-.155c.155,0,.311,0,.388.078l.078.078c0,.155.078.233.233.233l.233.078c.155,0,.233-.078.233-.233v-.155c.155,0,.311,0,.388.078l.078.078c0,.155.078.233.233.233h.155c.155,0,.311-.155.311-.311l-.078-.078h.466l.078.078c-.078.078.078.233.233.233l.233-.078c.078-.078.155-.155.155-.311v-.155c.155,0,.311,0,.388-.078l.078.233s.155.155.233.078l.233-.078c.155,0,.233-.078.233-.233l-.078-.078c.155-.155.311-.155.388-.233l.078.233c.078.078.155.155.311,0h.155c.155,0,.233-.233.155-.311v-.155c.155,0,.233-.078.311-.155l.155.155c0,.155.155.155.311,0h.155c.078-.078.233-.233.155-.311l-.078-.078.311-.311.155.155c.078.078.155.155.311,0l.078-.078c.233-.078.233-.233.155-.311v-.155l.233-.233.155.155c.078.078.233.078.311,0l.155-.155c.078-.078.155-.311.078-.388l-.078-.078.233-.233.078.078c.155.155.311,0,.388-.078l.155-.155c.078-.078.155-.155,0-.311l-.078-.078.311-.311.078.078c.078.078.233.078.388-.078l.078-.078c.155-.155.155-.311,0-.311l-.155-.155.311-.311.078.078c.078.078.311,0,.311-.155l.155-.155c.078-.078.078-.233,0-.311l-.233-.078.311-.311.078.078c.155,0,.233-.078.311-.155l.078-.233c.078-.078.078-.233,0-.311l-.233-.078c.078-.078.233-.233.233-.388l.078.078c.155,0,.311,0,.311-.155l.078-.233c.078-.078.078-.233-.078-.233l-.155-.155c.078-.078.078-.233.155-.311h.155c.078.078.233-.078.233-.233v-.155c.078-.078,0-.311-.078-.233l-.155-.155c.078-.078.078-.233.078-.388h.155c.078.078.233-.078.311-.155v-.155c0-.155-.078-.388-.155-.311h-.155v-.466h.155c.155,0,.233-.078.233-.233v-.155c0-.155,0-.311-.155-.311h-.155v-.466h.155c.078.078.233-.078.233-.233l-.078-.233c0-.155-.078-.233-.233-.233h-.155c0-.155,0-.311-.078-.388h.155c.155,0,.233-.233.155-.311v-.155c0-.155-.155-.311-.233-.233h-.155c0-.155,0-.311-.078-.388h.155c.078-.078.233-.233.078-.388v-.155c0-.155-.155-.311-.233-.233h-.155c-.078-.078-.078-.233-.155-.311l.078-.078c.155,0,.233-.233.155-.311v-.155c-.155-.155-.233-.233-.388-.233l-.078.078c-.078-.078-.078-.233-.155-.311l.078-.078c.078-.078.155-.311.078-.388v-.155c-.155-.155-.311-.155-.388-.078h-.155c0-.155-.078-.233-.155-.311l.078-.078c.078-.078.155-.311.078-.388l-.155-.155c0-.155-.155-.155-.311-.155l-.078.078-.233-.233.078-.078c.078-.078.078-.233,0-.466l-.078-.078c-.155-.155-.311-.155-.388-.078l-.078.078-.311-.311.078-.078c.078-.078.078-.233,0-.311l-.155-.155c-.078-.078-.233-.078-.311,0l-.078.078-.311-.311Z" fill="#4782d1" stroke-width="0"/><path d="M23.75,72.053c-3.572-3.572-9.318-3.572-12.89,0s-3.649,9.395-.078,12.967,9.395,3.494,12.967-.078,3.572-9.318,0-12.89" fill="#6697d9" fill-rule="evenodd" stroke-width="0"/><path d="M22.212,73.591c-2.705-2.705-7.186-2.79-9.891-.085-2.79,2.79-2.705,7.27,0,9.976,2.705,2.705,7.186,2.79,9.976,0,2.705-2.705,2.621-7.186-.085-9.891Z" fill="#ddd" stroke-width="0"/><path d="M19.422,77.565l.845-.845c.169-.169.085-.423-.085-.592l-.507-.507c-.169-.169-.423-.254-.592-.085l-.845.845c-.507.507-1.437.592-1.944.085l-.845-.845c-.169-.169-.423-.254-.592-.085l-.592.592c-.085.085-.085.423.085.592l.845.845c.507.507.507,1.353-.085,1.944l-.845.845c-.085.085-.085.423.085.592l.507.507c.169.169.507.169.592.085l.845-.845c.592-.592,1.437-.592,1.944-.085l.845.845c.169.169.507.169.592.085l.592-.592c.169-.169.085-.423-.085-.592l-.845-.845c-.507-.507-.423-1.437.085-1.944Z" fill="#a2a2a2" stroke-width="0"/><rect x="79.879" y="30.142" width="30.986" height="13.629" fill="#333" stroke-width="0"/><path d="M81.941,43.394h27.002c.896,0,1.536-.735,1.536-1.592v-9.799c0-.857-.64-1.47-1.536-1.47h-27.002c-.896,0-1.664.612-1.664,1.47v9.799c0,.857.768,1.592,1.664,1.592Z" fill="#e6e6e6" stroke-width="0"/><path d="M81.941,42.537h27.002c.384,0,.64-.367.64-.735v-9.799c0-.367-.256-.612-.64-.612h-27.002c-.384,0-.768.245-.768.612v9.799c0,.367.384.735.768.735Z" fill="#333" fill-rule="evenodd" stroke-width="0"/><rect x="86.179" y="36.956" width="2.314" height="1.157" fill="#e6a835" stroke-width="0"/><rect x="91.126" y="36.956" width="2.314" height="1.157" fill="#e6a835" stroke-width="0"/><rect x="96.465" y="36.956" width="2.314" height="1.157" fill="#e6a835" stroke-width="0"/><rect x="102.251" y="36.956" width="2.186" height="1.157" fill="#e6a835" stroke-width="0"/><path d="M106.622,32.842h-22.629c-.771,0-1.286.514-1.286,1.286v2.829h25.329v-2.829c0-.771-.643-1.286-1.414-1.286Z" fill="#285ea6" stroke-width="0"/><path d="M298.647,55.683v37.287c0,.643.514,1.157,1.157,1.157h19.029c.643,0,1.157-.514,1.157-1.157v-50.144c0-.643-.514-1.157-1.157-1.157h-6.557c-.643,0-1.157.514-1.157,1.157v10.543c0,.643-.514,1.157-1.157,1.157h-10.157c-.643,0-1.157.514-1.157,1.157M121.086,94.384h152.232c.643,0,1.157-.514,1.157-1.157v-5.657c0-.643-.514-1.157-1.157-1.157H121.086c-.643,0-1.157.514-1.157,1.157v5.657c0,.643.514,1.157,1.157,1.157ZM80.971,55.94h97.202c.643,0,1.157-.514,1.157-1.157v-5.4c0-.643-.514-1.157-1.157-1.157h-97.202c-.643,0-1.157.514-1.157,1.157v5.4c0,.643.514,1.157,1.157,1.157ZM51.399,55.683v37.287c0,.643-.514,1.157-1.157,1.157h-19.929c-.643,0-1.157-.514-1.157-1.157v-50.144c0-.643.514-1.157,1.157-1.157h7.586c.643,0,1.157.514,1.157,1.157v10.543c0,.643.514,1.157,1.157,1.157h10.029c.643,0,1.157.514,1.157,1.157Z" fill="#666" fill-rule="evenodd" stroke-width="0"/><path d="M246.4,90.379c0,.9-.771,1.8-1.672,1.8-1.029,0-1.8-.9-1.8-1.8,0-1.029.771-1.8,1.8-1.8.9,0,1.672.771,1.672,1.8M247.3,90.379c0-1.414-1.157-2.572-2.572-2.572s-2.571,1.157-2.571,2.572,1.157,2.571,2.571,2.571,2.572-1.157,2.572-2.571ZM247.685,92.437h.771v-4.5h-.771v4.5ZM240.871,92.437h.9v-4.5h-.9v4.5ZM239.714,90.379c0,.9-.771,1.8-1.8,1.8-.9,0-1.671-.9-1.671-1.8,0-1.029.771-1.8,1.671-1.8,1.029,0,1.8.771,1.8,1.8ZM240.485,90.379c0-1.414-1.157-2.572-2.572-2.572s-2.571,1.157-2.571,2.572,1.157,2.571,2.571,2.571,2.572-1.157,2.572-2.571ZM234.185,92.437h.771v-4.5h-.771v4.5ZM125.668,88.194h-.771v-.771h-.386v.771h-.643v-.771h-.386v.771h-.771v-.771h-.386v.771c-.129,0-.386.129-.386.257h-.643v.386h.643v.771h-.643v.386h.643v.771h-.643v.386h.643v.643h-.643v.386h.643c0,.257.257.386.386.386v.643h.386v-.643h.771v.643h.386v-.643h.643v.643h.386v-.643h.771v.643h.386v-.643c.129,0,.257-.129.257-.386h.771v-.386h-.771v-.643h.771v-.386h-.771v-.771h.771v-.386h-.771v-.771h.771v-.386h-.771c0-.129-.129-.257-.257-.257v-.771h-.386v.771ZM185.455,89.994l-.514,1.8-.386-4.372h-.643l-.771,2.7h-1.543v.514h2.057l.386-1.671.514,4.243h.514l.771-2.7h1.543v-.514h-1.929ZM142.126,90.379c0-1.671-1.286-2.957-2.957-2.957-1.543,0-2.829,1.286-2.829,2.957,0,1.543,1.286,2.829,2.829,2.829,1.671,0,2.957-1.286,2.957-2.829ZM141.354,90.379c0,1.157-.9,2.186-2.186,2.186-1.157,0-2.186-1.029-2.186-2.186,0-1.286,1.029-2.186,2.186-2.186,1.286,0,2.186.9,2.186,2.186ZM138.269,90.251s.804,1.747.916,1.859l1.013-1.859c.257-.514,0-1.157-.514-1.414-.514-.257-1.153-.127-1.414.514-.112.275-.135.636,0,.9ZM168.226,88.194l.386,3.343c.129,0,.129.129.257.129v-.129l.514-3.343c.129-.386-.129-.643-.514-.771-.257,0-.643.257-.643.514v.257ZM169.384,92.694c0-.257-.257-.514-.643-.514-.257,0-.514.257-.514.514s.257.514.514.514c.386,0,.643-.257.643-.514ZM153.826,52.836h7.586c.514,1.029,1.671,1.543,2.7,1.029.129,0,.386-.129.514-.257v-.257h-.771q-.129,0-.129-.129l-.9-1.029c-.129,0-.129-.129,0-.257l.9-1.029s0-.129.129-.129h.771s.129,0,.129-.129v-.129c-.9-.771-2.186-.643-2.957.129-.129.129-.257.386-.386.643h-7.586c-.386-1.029-1.671-1.543-2.7-1.157-.129.129-.257.129-.386.257s-.129.257,0,.257c0,0,0,.129.129.129h.771l.9,1.157v.129l-.9,1.157h-.9c-.129,0-.129.129-.129.129v.129c.771.771,2.057.771,2.829-.129.257-.129.257-.257.386-.514ZM94.039,52.321c.257,0,.386,0,.514.257l1.286,1.286c.386.386.9.643,1.543.643h.9v.514h1.414v-1.543h-1.414v.514h-.9c-.386,0-.9-.129-1.157-.386l-1.157-1.286h5.786v.514l1.286-.771-1.286-.771v.514h-7.972l1.286-1.286c.257-.386.643-.514,1.029-.514h1.157c.129.386.643.643,1.029.514.386-.129.514-.643.386-1.029-.129-.386-.514-.514-.9-.386-.257,0-.386.257-.514.386h-1.157c-.514,0-1.029.257-1.414.643l-1.286,1.414c-.257.129-.386.257-.643.257h-.514c-.129-.643-.9-1.157-1.543-1.029s-1.029.771-.9,1.543c.129.643.771,1.029,1.414.9.514,0,.9-.386,1.029-.9h2.7ZM40.295,86.779l-.643,3.729q0,.129-.129.129s-.129,0-.129-.129l-.514-3.729c0-.386.257-.771.643-.771.257-.129.643.129.771.514v.257ZM38.881,91.794c0-.386.386-.643.643-.643.386,0,.643.257.643.643s-.257.643-.643.643c-.257,0-.643-.257-.643-.643ZM51.352,84.594h-22.243v-.514h22.243v.514ZM51.352,73.022h-22.243v-.514h22.243v.514ZM308.758,86.779l.514,3.729c0,.129.129.129.129.129q.129,0,.129-.129l.643-3.729c0-.386-.257-.771-.643-.771-.386-.129-.771.129-.771.514v.257ZM310.044,91.794c0-.386-.257-.643-.643-.643-.257,0-.643.257-.643.643s.386.643.643.643c.386,0,.643-.257.643-.643ZM298.601,84.594h21.343v-.514h-21.343v.514ZM298.601,73.022h21.343v-.514h-21.343v.514Z" fill="#fff" fill-rule="evenodd" stroke-width="0"/><path d="M174.912,92.179h3.857c.514,0,1.029-.386,1.029-1.029v-1.157c0-.514-.514-1.029-1.029-1.029h-3.857c-.514,0-.9.514-.9,1.029v1.157c0,.643.386,1.029.9,1.029M159.869,92.179h3.857c.514,0,.9-.386.9-1.029v-1.157c0-.514-.386-1.029-.9-1.029h-3.857c-.514,0-1.029.514-1.029,1.029v1.157c0,.643.514,1.029,1.029,1.029ZM144.826,92.179h3.729c.643,0,1.029-.386,1.029-1.029v-1.157c0-.514-.386-1.029-1.029-1.029h-3.729c-.643,0-1.029.514-1.029,1.029v1.157c0,.643.386,1.029,1.029,1.029ZM129.654,92.179h3.857c.514,0,1.029-.386,1.029-1.029v-1.157c0-.514-.514-1.029-1.029-1.029h-3.857c-.514,0-.9.514-.9,1.029v1.157c0,.643.386,1.029.9,1.029ZM36.399,66.979c0-1.736,1.389-3.124,3.124-3.124s3.124,1.389,3.124,3.124-1.389,3.124-3.124,3.124-3.124-1.389-3.124-3.124ZM36.399,78.551c0-1.736,1.389-3.124,3.124-3.124s3.124,1.389,3.124,3.124-1.389,3.124-3.124,3.124-3.124-1.389-3.124-3.124ZM306.277,66.979c0-1.736,1.389-3.124,3.124-3.124s3.124,1.389,3.124,3.124-1.389,3.124-3.124,3.124-3.124-1.389-3.124-3.124ZM306.277,78.551c0-1.736,1.389-3.124,3.124-3.124s3.124,1.389,3.124,3.124-1.389,3.124-3.124,3.124-3.124-1.389-3.124-3.124Z" fill="#e6e6e6" fill-rule="evenodd" stroke-width="0"/><path d="M122.466,91.219v-1.919h.26l1.008,1.507v-1.507h.243v1.919h-.26l-1.008-1.508v1.508h-.243Z" fill="#000" stroke-width="0"/><path d="M124.953,91.219l-.744-1.919h.275l.499,1.394c.04.112.074.216.101.314.03-.105.064-.209.103-.314l.518-1.394h.259l-.751,1.919h-.26Z" fill="#000" stroke-width="0"/><circle cx="139.234" cy="89.79" r=".466" fill="#333" stroke-width="0"/><path d="M35.359,81.289v.905h-5.07c-.007-.227.03-.444.11-.654.129-.345.336-.685.62-1.02s.695-.723,1.232-1.162c.833-.684,1.397-1.225,1.69-1.624s.439-.777.439-1.133c0-.373-.133-.688-.4-.944-.267-.256-.615-.385-1.043-.385-.454,0-.816.137-1.088.408-.272.272-.41.649-.413,1.13l-.968-.099c.066-.723.315-1.272.748-1.651.432-.378,1.013-.567,1.742-.567.736,0,1.318.204,1.747.612.429.408.644.914.644,1.518,0,.307-.062.608-.188.904-.126.297-.334.609-.625.937-.291.328-.775.778-1.452,1.35-.565.475-.928.797-1.088.966-.16.169-.293.339-.397.51h3.762Z" fill="#fff" stroke-width="0"/><path d="M33.957,50.783h-.941v-6.001c-.227.216-.524.433-.892.649-.368.216-.699.378-.992.487v-.911c.527-.248.987-.547,1.381-.9.394-.352.673-.694.837-1.025h.607v7.701Z" fill="#fff" stroke-width="0"/><path d="M317.042,82.188v-1.836h-3.328v-.863l3.5-4.971h.77v4.971h1.036v.863h-1.036v1.836h-.941ZM317.042,79.489v-3.458l-2.401,3.458h2.401Z" fill="#fff" stroke-width="0"/><path d="M314.028,49.231l.941-.125c.108.534.292.918.552,1.154s.576.353.95.353c.442,0,.816-.153,1.122-.46.305-.307.457-.687.457-1.141,0-.432-.141-.789-.423-1.07-.283-.281-.643-.421-1.078-.421-.178,0-.399.035-.664.104l.104-.827c.062.007.113.011.151.011.401,0,.762-.105,1.083-.314.321-.209.481-.532.481-.968,0-.346-.117-.631-.351-.858-.233-.227-.535-.34-.905-.34-.366,0-.671.115-.915.345-.244.23-.401.576-.472,1.036l-.941-.167c.115-.631.377-1.121.785-1.468.408-.347.915-.521,1.522-.521.418,0,.804.09,1.156.27.352.18.621.425.808.735.187.311.28.64.28.989,0,.332-.089.633-.267.905s-.441.488-.79.649c.453.104.806.322,1.057.651s.377.742.377,1.237c0,.669-.244,1.237-.732,1.703-.488.466-1.106.699-1.853.699-.673,0-1.231-.201-1.677-.602-.444-.401-.698-.92-.761-1.559Z" fill="#fff" stroke-width="0"/><path d="M252.531,84.506h15.043c1.8,0,3.214-1.414,3.214-3.086v-1.929c0-1.8-1.414-3.214-3.214-3.214h-15.043c-1.8,0-3.214,1.414-3.214,3.214v1.929c0,1.671,1.414,3.086,3.214,3.086" fill="#333" fill-rule="evenodd" stroke-width="0"/><path d="M252.659,83.991h14.657c1.671,0,2.957-1.286,2.957-2.829v-1.543c0-1.543-1.286-2.829-2.957-2.829h-14.657c-1.543,0-2.829,1.286-2.829,2.829v1.543c0,1.543,1.286,2.829,2.829,2.829Z" fill="#ececec" stroke-width="0"/><path d="M252.659,83.349h14.657c1.286,0,2.186-1.029,2.186-2.186v-1.543c0-1.157-.9-2.057-2.186-2.057h-14.657c-1.157,0-2.186.9-2.186,2.057v1.543c0,1.157,1.029,2.186,2.186,2.186Z" fill="#333" stroke-width="0"/><rect x="252.402" y="79.62" width="15.3" height="1.672" fill="#e6e6e6" stroke-width="0"/><rect x="324.645" y="56.855" width="28.581" height="33.899" rx=".72" ry=".72" fill="#666" stroke-width="0"/><path d="M328.828,23.501c0-3.294-2.823-5.999-6.117-5.999-3.411,0-6.117,2.705-6.117,5.999,0,3.411,2.705,6.117,6.117,6.117,3.294,0,6.117-2.705,6.117-6.117" fill="#a2a2a2" fill-rule="evenodd" stroke-width="0"/><path d="M320.241,22.089l.471.47c.471.588.471,1.412,0,2l-.471.47c-.235.235-.235.47,0,.706l.235.235c.235.235.588.235.706,0l.471-.353c.588-.588,1.529-.588,2.117,0l.353.353c.235.235.588.235.706,0l.353-.235c.118-.235.118-.47,0-.706l-.471-.47c-.588-.588-.588-1.412,0-2l.471-.47c.118-.235.118-.47,0-.706l-.353-.235c-.235-.235-.471-.235-.706,0l-.353.353c-.588.588-1.529.588-2.117,0l-.471-.353c-.118-.235-.471-.235-.706,0l-.235.235c-.235.235-.235.47,0,.706Z" fill="#e6e6e6" stroke-width="0"/><rect x="324.645" y="15.555" width="28.581" height="33.899" rx=".72" ry=".72" fill="#666" stroke-width="0"/><path d="M4.205,16.05h15.247s9.648-1.026,9.648,15.088,0,10.366,0,10.366c0,0-1.54,8.314-9.751,8.314H4.205" fill="#e6e6e6" fill-rule="evenodd" stroke="#a7a9ac" stroke-miterlimit="10" stroke-width=".536"/><path d="M24.371,28.506l.078-.078c.078-.078.078-.233-.078-.388l-.078-.078c-.233-.078-.388-.078-.466,0l-.078.078-.233-.233.078-.078c0-.155,0-.311-.155-.311l-.155-.155c-.078-.078-.311,0-.388.078l-.078.078c-.078-.078-.155-.155-.311-.155v-.155c.078-.078.078-.233-.078-.388h-.155c-.078-.078-.311,0-.388.078l-.078.078c-.078-.078-.233-.078-.311-.155l.078-.078c0-.155-.078-.233-.233-.388h-.155c-.078-.078-.311,0-.311.155l-.078.078c-.078-.078-.233-.078-.311-.155v-.155c.078-.078-.078-.233-.233-.233h-.155c-.155-.155-.311,0-.388.078v.155c-.078-.078-.233-.078-.388-.078v-.155c.078-.078-.078-.233-.233-.233h-.155c-.078-.078-.311,0-.311.155v.155c-.078-.078-.233-.078-.388-.078v-.155c0-.155-.078-.233-.233-.233l-.233-.078c-.155,0-.311.155-.233.233v.155h-.466v-.155c0-.155-.155-.155-.311-.155h-.155c-.155,0-.233.078-.233.233v.155c-.155,0-.311,0-.466,0v-.155c.078-.078-.155-.155-.311-.155h-.155c-.078.078-.233.233-.155.311l-.078.078c-.078.078-.233.078-.388.078l-.078-.078c.078-.078-.155-.155-.233-.078h-.155c-.155,0-.311.155-.233.233v.155c-.078.078-.233.078-.311.155l-.155-.155c0-.155-.155-.155-.233-.078l-.233.078c-.155,0-.155.155-.155.311l.078.078c-.155,0-.311.155-.466.155v-.155c-.078-.078-.233-.078-.311,0l-.233.078c-.078.078-.155.155-.155.311l.078.078c-.078.078-.155.155-.388.233v-.155c-.078-.078-.233-.078-.311,0l-.155.155c-.155,0-.233.233-.155.311l.078.078-.311.311-.155-.155c0-.155-.155-.155-.311,0l-.078.078c-.155.155-.155.311-.078.388l.078.078-.311.311-.078-.078c-.155-.155-.233-.078-.311,0l-.155.155c-.078.078-.233.233-.078.388l.078.078-.233.233-.078-.078c-.078-.078-.311,0-.388.078l-.155.155c-.078.078-.078.233,0,.311l.155.155-.233.233h-.155c-.078-.078-.233-.078-.311.155l-.078.078c-.155.155-.078.233,0,.311l.078.078c0,.155-.078.233-.233.388l-.078-.078c-.078-.078-.233.078-.311.155v.155c-.155.155-.155.311,0,.311l.078.078c0,.155-.078.233-.078.388h-.155c-.078-.078-.311,0-.311.155v.155c-.155.155-.078.233,0,.311l.233.078c-.078.078-.078.233-.233.388l-.078-.078c-.155,0-.233.078-.233.233l-.078.233c-.078.078.078.233.078.233h.155c0,.155,0,.311-.078.388l-.078.078c-.155,0-.233.078-.311.155l-.078.233c0,.155.155.311.233.233l.078.078c0,.155,0,.311,0,.466l-.078-.078c-.155,0-.311.155-.311.311v.155c0,.155.078.233.233.233l.078.078c.078.078.078.233.078.388h-.155c-.155,0-.233.078-.233.233l.078.233c0,.155.078.233.233.233l.078.078c.078.078.078.233.078.388h-.155c-.155,0-.155.155-.155.311v.155c0,.155.155.311.233.233h.155c.078.078.078.233.078.388h-.155c-.078.078-.155.155-.078.388v.155c.078.078.233.233.311.155h.155c0,.155.078.233.078.388l-.078.078c-.155,0-.155.155-.155.311l.078.078c.078.233.155.311.311.311l.155-.155c0,.155.078.233.078.388l-.078.078c-.078.078-.078.233-.078.388l.078.078c.078.233.233.233.311.155h.155c.078.078.078.233.155.311l-.078.078c-.078.078-.078.233,0,.311l.078.233c.078.078.233.078.388.078l.078-.078c.078.078.078.233.155.311l-.078.078c-.078.078-.078.233.078.388l.078.078c.155.155.233.233.311.155l.155-.155c0,.155.078.233.233.388l-.078.078c-.078.078-.078.233,0,.311l.155.155c.078.078.233.078.311,0l.078-.078c.155.155.233.233.388.233l-.155.155c-.078.078,0,.155.155.311l.078.078c.155.155.311.155.388.078l.078-.078c.078.078.233.078.311.155l-.078.078c0,.155,0,.311.078.388l.233.078c.078.078.233.078.311,0l.078-.078c.078.078.233.078.311.155v.155c-.078.078-.078.233.155.311l.078.078c.155,0,.311,0,.388-.078l.078-.078c.155,0,.233.078.388.078l-.155.155c0,.155.078.233.311.311l.078.078c.155,0,.311,0,.311-.155l.078-.078c.155,0,.233.078.388.078v.155c-.078.078.078.233.155.311h.155c.233.078.311,0,.388-.078v-.155c.155,0,.311,0,.388.078v.155c-.078.078.078.233.233.233h.155c.155,0,.311,0,.311-.155v-.155c.155,0,.311,0,.388.078l.078.078c0,.155.078.233.233.233l.233.078c.155,0,.233-.078.233-.233v-.155c.155,0,.311,0,.388.078l.078.078c0,.155.078.233.233.233h.155c.155,0,.311-.155.311-.311l-.078-.078h.466l.078.078c-.078.078.078.233.233.233l.233-.078c.078-.078.155-.155.155-.311v-.155c.155,0,.311,0,.388-.078l.078.233s.155.155.233.078l.233-.078c.155,0,.233-.078.233-.233l-.078-.078c.155-.155.311-.155.388-.233l.078.233c.078.078.155.155.311,0h.155c.155,0,.233-.233.155-.311v-.155c.155,0,.233-.078.311-.155l.155.155c0,.155.155.155.311,0h.155c.078-.078.233-.233.155-.311l-.078-.078.311-.311.155.155c.078.078.155.155.311,0l.078-.078c.233-.078.233-.233.155-.311v-.155l.233-.233.155.155c.078.078.233.078.311,0l.155-.155c.078-.078.155-.311.078-.388l-.078-.078.233-.233.078.078c.155.155.311,0,.388-.078l.155-.155c.078-.078.155-.155,0-.311l-.078-.078.311-.311.078.078c.078.078.233.078.388-.078l.078-.078c.155-.155.155-.311,0-.311l-.155-.155.311-.311.078.078c.078.078.311,0,.311-.155l.155-.155c.078-.078.078-.233,0-.311l-.233-.078.311-.311.078.078c.155,0,.233-.078.311-.155l.078-.233c.078-.078.078-.233,0-.311l-.233-.078c.078-.078.233-.233.233-.388l.078.078c.155,0,.311,0,.311-.155l.078-.233c.078-.078.078-.233-.078-.233l-.155-.155c.078-.078.078-.233.155-.311h.155c.078.078.233-.078.233-.233v-.155c.078-.078,0-.311-.078-.233l-.155-.155c.078-.078.078-.233.078-.388h.155c.078.078.233-.078.311-.155v-.155c0-.155-.078-.388-.155-.311h-.155v-.466h.155c.155,0,.233-.078.233-.233v-.155c0-.155,0-.311-.155-.311h-.155v-.466h.155c.078.078.233-.078.233-.233l-.078-.233c0-.155-.078-.233-.233-.233h-.155c0-.155,0-.311-.078-.388h.155c.155,0,.233-.233.155-.311v-.155c0-.155-.155-.311-.233-.233h-.155c0-.155,0-.311-.078-.388h.155c.078-.078.233-.233.078-.388v-.155c0-.155-.155-.311-.233-.233h-.155c-.078-.078-.078-.233-.155-.311l.078-.078c.155,0,.233-.233.155-.311v-.155c-.155-.155-.233-.233-.388-.233l-.078.078c-.078-.078-.078-.233-.155-.311l.078-.078c.078-.078.155-.311.078-.388v-.155c-.155-.155-.311-.155-.388-.078h-.155c0-.155-.078-.233-.155-.311l.078-.078c.078-.078.155-.311.078-.388l-.155-.155c0-.155-.155-.155-.311-.155l-.078.078-.233-.233.078-.078c.078-.078.078-.233,0-.466l-.078-.078c-.155-.155-.311-.155-.388-.078l-.078.078-.311-.311.078-.078c.078-.078.078-.233,0-.311l-.155-.155c-.078-.078-.233-.078-.311,0l-.078.078-.311-.311Z" fill="#a2a2a2" stroke-width="0"/><path d="M22.212,31.752c-2.705-2.705-7.186-2.79-9.891-.085-2.79,2.79-2.705,7.27,0,9.976,2.705,2.705,7.186,2.79,9.976,0,2.705-2.705,2.621-7.186-.085-9.891Z" fill="#ddd" stroke-width="0"/><path d="M19.422,35.725l.845-.845c.169-.169.085-.423-.085-.592l-.507-.507c-.169-.169-.423-.254-.592-.085l-.845.845c-.507.507-1.437.592-1.944.085l-.845-.845c-.169-.169-.423-.254-.592-.085l-.592.592c-.085.085-.085.423.085.592l.845.845c.507.507.507,1.353-.085,1.944l-.845.845c-.085.085-.085.423.085.592l.507.507c.169.169.507.169.592.085l.845-.845c.592-.592,1.437-.592,1.944-.085l.845.845c.169.169.507.169.592.085l.592-.592c.169-.169.085-.423-.085-.592l-.845-.845c-.507-.507-.423-1.437.085-1.944Z" fill="#a2a2a2" stroke-width="0"/><path d="M4.171,57.684h15.282s9.648-1.026,9.648,15.088,0,10.366,0,10.366c0,0-1.54,8.314-9.751,8.314H4.171" fill="#e6e6e6" fill-rule="evenodd" stroke="#a7a9ac" stroke-miterlimit="10" stroke-width=".536"/><path d="M24.371,70.14l.078-.078c.078-.078.078-.233-.078-.388l-.078-.078c-.233-.078-.388-.078-.466,0l-.078.078-.233-.233.078-.078c0-.155,0-.311-.155-.311l-.155-.155c-.078-.078-.311,0-.388.078l-.078.078c-.078-.078-.155-.155-.311-.155v-.155c.078-.078.078-.233-.078-.388h-.155c-.078-.078-.311,0-.388.078l-.078.078c-.078-.078-.233-.078-.311-.155l.078-.078c0-.155-.078-.233-.233-.388h-.155c-.078-.078-.311,0-.311.155l-.078.078c-.078-.078-.233-.078-.311-.155v-.155c.078-.078-.078-.233-.233-.233h-.155c-.155-.155-.311,0-.388.078v.155c-.078-.078-.233-.078-.388-.078v-.155c.078-.078-.078-.233-.233-.233h-.155c-.078-.078-.311,0-.311.155v.155c-.078-.078-.233-.078-.388-.078v-.155c0-.155-.078-.233-.233-.233l-.233-.078c-.155,0-.311.155-.233.233v.155h-.466v-.155c0-.155-.155-.155-.311-.155h-.155c-.155,0-.233.078-.233.233v.155c-.155,0-.311,0-.466,0v-.155c.078-.078-.155-.155-.311-.155h-.155c-.078.078-.233.233-.155.311l-.078.078c-.078.078-.233.078-.388.078l-.078-.078c.078-.078-.155-.155-.233-.078h-.155c-.155,0-.311.155-.233.233v.155c-.078.078-.233.078-.311.155l-.155-.155c0-.155-.155-.155-.233-.078l-.233.078c-.155,0-.155.155-.155.311l.078.078c-.155,0-.311.155-.466.155v-.155c-.078-.078-.233-.078-.311,0l-.233.078c-.078.078-.155.155-.155.311l.078.078c-.078.078-.155.155-.388.233v-.155c-.078-.078-.233-.078-.311,0l-.155.155c-.155,0-.233.233-.155.311l.078.078-.311.311-.155-.155c0-.155-.155-.155-.311,0l-.078.078c-.155.155-.155.311-.078.388l.078.078-.311.311-.078-.078c-.155-.155-.233-.078-.311,0l-.155.155c-.078.078-.233.233-.078.388l.078.078-.233.233-.078-.078c-.078-.078-.311,0-.388.078l-.155.155c-.078.078-.078.233,0,.311l.155.155-.233.233h-.155c-.078-.078-.233-.078-.311.155l-.078.078c-.155.155-.078.233,0,.311l.078.078c0,.155-.078.233-.233.388l-.078-.078c-.078-.078-.233.078-.311.155v.155c-.155.155-.155.311,0,.311l.078.078c0,.155-.078.233-.078.388h-.155c-.078-.078-.311,0-.311.155v.155c-.155.155-.078.233,0,.311l.233.078c-.078.078-.078.233-.233.388l-.078-.078c-.155,0-.233.078-.233.233l-.078.233c-.078.078.078.233.078.233h.155c0,.155,0,.311-.078.388l-.078.078c-.155,0-.233.078-.311.155l-.078.233c0,.155.155.311.233.233l.078.078c0,.155,0,.311,0,.466l-.078-.078c-.155,0-.311.155-.311.311v.155c0,.155.078.233.233.233l.078.078c.078.078.078.233.078.388h-.155c-.155,0-.233.078-.233.233l.078.233c0,.155.078.233.233.233l.078.078c.078.078.078.233.078.388h-.155c-.155,0-.155.155-.155.311v.155c0,.155.155.311.233.233h.155c.078.078.078.233.078.388h-.155c-.078.078-.155.155-.078.388v.155c.078.078.233.233.311.155h.155c0,.155.078.233.078.388l-.078.078c-.155,0-.155.155-.155.311l.078.078c.078.233.155.311.311.311l.155-.155c0,.155.078.233.078.388l-.078.078c-.078.078-.078.233-.078.388l.078.078c.078.233.233.233.311.155h.155c.078.078.078.233.155.311l-.078.078c-.078.078-.078.233,0,.311l.078.233c.078.078.233.078.388.078l.078-.078c.078.078.078.233.155.311l-.078.078c-.078.078-.078.233.078.388l.078.078c.155.155.233.233.311.155l.155-.155c0,.155.078.233.233.388l-.078.078c-.078.078-.078.233,0,.311l.155.155c.078.078.233.078.311,0l.078-.078c.155.155.233.233.388.233l-.155.155c-.078.078,0,.155.155.311l.078.078c.155.155.311.155.388.078l.078-.078c.078.078.233.078.311.155l-.078.078c0,.155,0,.311.078.388l.233.078c.078.078.233.078.311,0l.078-.078c.078.078.233.078.311.155v.155c-.078.078-.078.233.155.311l.078.078c.155,0,.311,0,.388-.078l.078-.078c.155,0,.233.078.388.078l-.155.155c0,.155.078.233.311.311l.078.078c.155,0,.311,0,.311-.155l.078-.078c.155,0,.233.078.388.078v.155c-.078.078.078.233.155.311h.155c.233.078.311,0,.388-.078v-.155c.155,0,.311,0,.388.078v.155c-.078.078.078.233.233.233h.155c.155,0,.311,0,.311-.155v-.155c.155,0,.311,0,.388.078l.078.078c0,.155.078.233.233.233l.233.078c.155,0,.233-.078.233-.233v-.155c.155,0,.311,0,.388.078l.078.078c0,.155.078.233.233.233h.155c.155,0,.311-.155.311-.311l-.078-.078h.466l.078.078c-.078.078.078.233.233.233l.233-.078c.078-.078.155-.155.155-.311v-.155c.155,0,.311,0,.388-.078l.078.233s.155.155.233.078l.233-.078c.155,0,.233-.078.233-.233l-.078-.078c.155-.155.311-.155.388-.233l.078.233c.078.078.155.155.311,0h.155c.155,0,.233-.233.155-.311v-.155c.155,0,.233-.078.311-.155l.155.155c0,.155.155.155.311,0h.155c.078-.078.233-.233.155-.311l-.078-.078.311-.311.155.155c.078.078.155.155.311,0l.078-.078c.233-.078.233-.233.155-.311v-.155l.233-.233.155.155c.078.078.233.078.311,0l.155-.155c.078-.078.155-.311.078-.388l-.078-.078.233-.233.078.078c.155.155.311,0,.388-.078l.155-.155c.078-.078.155-.155,0-.311l-.078-.078.311-.311.078.078c.078.078.233.078.388-.078l.078-.078c.155-.155.155-.311,0-.311l-.155-.155.311-.311.078.078c.078.078.311,0,.311-.155l.155-.155c.078-.078.078-.233,0-.311l-.233-.078.311-.311.078.078c.155,0,.233-.078.311-.155l.078-.233c.078-.078.078-.233,0-.311l-.233-.078c.078-.078.233-.233.233-.388l.078.078c.155,0,.311,0,.311-.155l.078-.233c.078-.078.078-.233-.078-.233l-.155-.155c.078-.078.078-.233.155-.311h.155c.078.078.233-.078.233-.233v-.155c.078-.078,0-.311-.078-.233l-.155-.155c.078-.078.078-.233.078-.388h.155c.078.078.233-.078.311-.155v-.155c0-.155-.078-.388-.155-.311h-.155v-.466h.155c.155,0,.233-.078.233-.233v-.155c0-.155,0-.311-.155-.311h-.155v-.466h.155c.078.078.233-.078.233-.233l-.078-.233c0-.155-.078-.233-.233-.233h-.155c0-.155,0-.311-.078-.388h.155c.155,0,.233-.233.155-.311v-.155c0-.155-.155-.311-.233-.233h-.155c0-.155,0-.311-.078-.388h.155c.078-.078.233-.233.078-.388v-.155c0-.155-.155-.311-.233-.233h-.155c-.078-.078-.078-.233-.155-.311l.078-.078c.155,0,.233-.233.155-.311v-.155c-.155-.155-.233-.233-.388-.233l-.078.078c-.078-.078-.078-.233-.155-.311l.078-.078c.078-.078.155-.311.078-.388v-.155c-.155-.155-.311-.155-.388-.078h-.155c0-.155-.078-.233-.155-.311l.078-.078c.078-.078.155-.311.078-.388l-.155-.155c0-.155-.155-.155-.311-.155l-.078.078-.233-.233.078-.078c.078-.078.078-.233,0-.466l-.078-.078c-.155-.155-.311-.155-.388-.078l-.078.078-.311-.311.078-.078c.078-.078.078-.233,0-.311l-.155-.155c-.078-.078-.233-.078-.311,0l-.078.078-.311-.311Z" fill="#a2a2a2" stroke-width="0"/><path d="M22.212,73.386c-2.705-2.705-7.186-2.79-9.891-.085-2.79,2.79-2.705,7.27,0,9.976,2.705,2.705,7.186,2.79,9.976,0,2.705-2.705,2.621-7.186-.085-9.891Z" fill="#ddd" stroke-width="0"/><path d="M19.422,77.359l.845-.845c.169-.169.085-.423-.085-.592l-.507-.507c-.169-.169-.423-.254-.592-.085l-.845.845c-.507.507-1.437.592-1.944.085l-.845-.845c-.169-.169-.423-.254-.592-.085l-.592.592c-.085.085-.085.423.085.592l.845.845c.507.507.507,1.353-.085,1.944l-.845.845c-.085.085-.085.423.085.592l.507.507c.169.169.507.169.592.085l.845-.845c.592-.592,1.437-.592,1.944-.085l.845.845c.169.169.507.169.592.085l.592-.592c.169-.169.085-.423-.085-.592l-.845-.845c-.507-.507-.423-1.437.085-1.944Z" fill="#a2a2a2" stroke-width="0"/></g><path d="M83.667,92.329l37.183-9.994s-8.102,8.213.046,15.028c7.285,6.094,13.256-.731,13.256-.731l-19.659,36.992s6.863-14.076-2.792-29.663-28.035-11.633-28.035-11.633Z" fill="#fff" opacity=".8" stroke-width="0"/><line x1="85.841" y1="91.976" x2="87.775" y2="91.467" fill="none" stroke="#fff" stroke-linecap="round" stroke-linejoin="round" stroke-width="2.5"/><line x1="91.87" y1="90.389" x2="114.387" y2="84.464" fill="none" stroke="#fff" stroke-dasharray="0 0 4.234 4.234" stroke-linecap="round" stroke-linejoin="round" stroke-width="2.5"/><line x1="116.434" y1="83.925" x2="118.369" y2="83.416" fill="none" stroke="#fff" stroke-linecap="round" stroke-linejoin="round" stroke-width="2.5"/><line x1="85.841" y1="91.976" x2="87.775" y2="91.467" fill="none" stroke="#231f20" stroke-linecap="round" stroke-linejoin="round"/><line x1="91.87" y1="90.389" x2="114.387" y2="84.464" fill="none" stroke="#231f20" stroke-dasharray="0 0 4.234 4.234" stroke-linecap="round" stroke-linejoin="round"/><line x1="116.434" y1="83.925" x2="118.369" y2="83.416" fill="none" stroke="#231f20" stroke-linecap="round" stroke-linejoin="round"/><line x1="113.447" y1="136.059" x2="133.776" y2="97.112" fill="none" stroke="#fff" stroke-dasharray="0 4" stroke-linecap="round" stroke-linejoin="round" stroke-width="2"/><line x1="113.447" y1="136.059" x2="133.776" y2="97.112" fill="none" stroke="#231f20" stroke-dasharray="0 4" stroke-linecap="round" stroke-linejoin="round"/><g clip-path="url(#c)"><rect x="33.622" y="36.967" width="154.679" height="102.301" fill="#e6e6e6" stroke="#231f20" stroke-miterlimit="10" stroke-width=".5"/><path d="M152.458,96.721l10.456-10.843c1.162-1.162,1.162-3.098,0-4.26l-10.456-10.456c-1.162-1.162-3.098-1.162-4.26,0l-10.843,10.456c-1.162,1.162-1.162,3.098,0,4.26l10.843,10.843c1.162,1.162,3.098,1.162,4.26,0ZM113.345,96.721l10.456-10.843c1.162-1.162,1.162-3.098,0-4.26l-10.456-10.456c-1.162-1.162-3.098-1.162-4.26,0l-10.456,10.456c-1.162,1.162-1.162,3.098,0,4.26l10.456,10.843c1.162,1.162,3.098,1.162,4.26,0ZM102.889,107.177l1.549-1.936c1.162-1.162,1.162-2.711,0-3.873l-10.456-10.843c-1.162-1.162-3.098-1.162-4.26,0l-10.843,10.843c-1.162,1.162-1.162,2.711,0,3.873l1.936,1.936c.387.387,1.162.774,1.936.774h17.814c1.162,0,1.549-.387,2.323-.774ZM74.619,96.721l10.456-10.843c1.162-1.162,1.162-3.098,0-4.26l-10.456-10.456c-1.162-1.162-3.098-1.162-4.26,0l-10.843,10.456c-1.162,1.162-1.162,3.098,0,4.26l10.843,10.843c1.162,1.162,3.098,1.162,4.26,0ZM54.869,116.084l10.843-10.843c1.162-1.162,1.162-2.711,0-3.873l-10.843-10.843c-1.162-1.162-3.098-1.162-4.26,0l-10.456,10.843c-1.162,1.162-1.162,2.711,0,3.873l10.456,10.843c1.162,1.162,3.098,1.162,4.26,0ZM132.708,76.97l10.843-10.456c1.162-1.162,1.162-3.098,0-4.26l-10.843-10.456c-1.162-1.162-3.098-1.162-4.26,0l-10.456,10.456c-1.162,1.162-1.162,3.098,0,4.26l10.456,10.456c1.162,1.162,3.098,1.162,4.26,0ZM54.869,76.97l10.843-10.456c1.162-1.162,1.162-3.098,0-4.26l-10.843-10.456c-1.162-1.162-3.098-1.162-4.26,0l-10.456,10.456c-1.162,1.162-1.162,3.098,0,4.26l10.456,10.456c1.162,1.162,3.098,1.162,4.26,0ZM93.982,76.97l10.456-10.456c1.162-1.162,1.162-3.098,0-4.26l-10.456-10.456c-1.162-1.162-3.098-1.162-4.26,0l-10.843,10.456c-1.162,1.162-1.162,3.098,0,4.26l10.843,10.456c1.162,1.162,3.098,1.162,4.26,0Z" fill="#333" fill-rule="evenodd" stroke-width="0"/><path d="M70.299,133.736h103.24c1.936,0,3.485-1.549,3.485-3.485v-17.039c0-1.936-1.549-3.485-3.485-3.485h-103.24c-1.936,0-3.485,1.549-3.485,3.485v17.039c0,1.936,1.549,3.485,3.485,3.485Z" fill="#666" fill-rule="evenodd" stroke-width="0"/><path d="M84.101,115.091h-2.323v-2.323h-1.162v2.323h-1.936v-2.323h-1.162v2.323h-2.324v-2.323h-1.162v2.323c-.387,0-1.162.387-1.162.775h-1.936v1.162h1.936v2.323h-1.936v1.162h1.936v2.323h-1.936v1.162h1.936v1.936h-1.936v1.162h1.936c0,.774.774,1.162,1.162,1.162v1.936h1.162v-1.936h2.324v1.936h1.162v-1.936h1.936v1.936h1.162v-1.936h2.323v1.936h1.162v-1.936c.387,0,.774-.387.774-1.162h2.323v-1.162h-2.323v-1.936h2.323v-1.162h-2.323v-2.323h2.323v-1.162h-2.323v-2.323h2.323v-1.162h-2.323c0-.387-.387-.775-.774-.775v-2.323h-1.162v2.323ZM133.67,121.675c0-5.034-3.873-8.907-8.907-8.907-4.647,0-8.52,3.873-8.52,8.907,0,4.647,3.873,8.52,8.52,8.52,5.034,0,8.907-3.873,8.907-8.52ZM131.347,121.675c0,3.485-2.711,6.583-6.583,6.583-3.485,0-6.583-3.098-6.583-6.583,0-3.873,3.098-6.584,6.583-6.584,3.873,0,6.583,2.711,6.583,6.584ZM122.053,121.287s2.422,5.262,2.759,5.599l3.05-5.599c.774-1.549,0-3.485-1.549-4.26-1.549-.774-3.473-.382-4.26,1.549-.337.827-.407,1.915,0,2.711Z" fill="#fff" fill-rule="evenodd" stroke-width="0"/><path d="M141.803,127.096h11.23c1.936,0,3.098-1.162,3.098-3.098v-3.485c0-1.549-1.162-3.098-3.098-3.098h-11.23c-1.936,0-3.098,1.549-3.098,3.098v3.485c0,1.936,1.162,3.098,3.098,3.098ZM96.106,127.096h11.618c1.549,0,3.098-1.162,3.098-3.098v-3.485c0-1.549-1.549-3.098-3.098-3.098h-11.618c-1.549,0-2.711,1.549-2.711,3.098v3.485c0,1.936,1.162,3.098,2.711,3.098Z" fill="#e6e6e6" fill-rule="evenodd" stroke-width="0"/><path d="M74.179,124.426v-5.78h.784l3.037,4.538v-4.538h.732v5.78h-.784l-3.036-4.542v4.542h-.733Z" fill="#000" stroke="#231f20" stroke-linecap="round" stroke-linejoin="round" stroke-width=".376"/><path d="M81.948,124.426l-2.24-5.78h.827l1.503,4.199c.121.336.222.652.304.946.089-.315.193-.631.311-.946l1.561-4.199h.781l-2.263,5.78h-.784Z" fill="#000" stroke="#231f20" stroke-linecap="round" stroke-linejoin="round" stroke-width=".376"/><circle cx="124.96" cy="119.899" r="1.403" fill="#333" stroke-width="0"/></g><circle cx="88.207" cy="120.918" r="28.947" fill="none" stroke="#fff" stroke-miterlimit="10" stroke-width="2.771"/><circle cx="88.207" cy="120.918" r="28.947" fill="none" stroke="#231f20" stroke-miterlimit="10" stroke-width=".924"/><circle cx="127.014" cy="89.961" r="9.692" fill="none" stroke="#fff" stroke-miterlimit="10" stroke-width="1.863"/><circle cx="127.014" cy="89.961" r="9.692" fill="none" stroke="#231f20" stroke-miterlimit="10" stroke-width=".931"/><path d="M55.666,114.809c0,7.593-6.246,13.745-13.95,13.745s-13.953-6.152-13.953-13.745,6.246-13.755,13.953-13.755,13.95,6.159,13.95,13.755" fill="#221f1f" stroke="#fff" stroke-miterlimit="10" stroke-width="1.5"/><path d="M43.313,121.85h-1.846v-11.761c-.444.424-1.027.848-1.749,1.271s-1.369.741-1.943.953v-1.784c1.032-.485,1.935-1.073,2.707-1.764s1.319-1.36,1.641-2.01h1.189v15.094Z" fill="#fff" stroke-width="0"/></svg>