<?xml version="1.0" encoding="UTF-8"?><svg xmlns="http://www.w3.org/2000/svg" width="5.1in" height="3.85in" xmlns:xlink="http://www.w3.org/1999/xlink" viewBox="0 0 367.2 277.2"><defs><clipPath id="b"><polygon points="75.94 110.284 82.859 114.441 84.155 117.287 88.062 126.674 102.069 126.659 115.941 125.769 125.607 121.82 134.183 115.838 113.244 105.002 91.599 102.629 75.94 110.284" fill="none"/></clipPath><clipPath id="d"><circle cx="53.407" cy="48.945" r="44.157" fill="none"/></clipPath></defs><g id="a"><path d="M101.492,110.235s.437-19.231,1.53-22.946c0,0,.546-4.644,4.152-5.791l76.979-26.989s2.185-.929,4.972,0,18.466,6.228,18.466,6.228c0,0,6.665,2.404,8.468,12.784l-.328,22.782-75.989,33.085-38.25-19.153Z" fill="#d1d3d4"/><polygon points="51.523 121.028 52.614 123.209 52.775 129.549 54.795 130.68 55.118 137.303 58.752 139.646 70.383 135.002 70.464 138.232 71.595 138.919 73.13 138.394 72.928 133.992 74.26 133.103 74.543 133.184 82.014 130.236 81.732 123.047 82.54 122.845 82.459 114.607 76.522 110.851 51.523 121.028" fill="#d1d3d4"/><polygon points="52.104 148.688 53.106 159.159 58.617 162.666 71.794 156.704 73.046 157.054 74.298 156.603 74.449 155.752 85.922 150.642 85.27 140.321 79.008 137.365 52.104 148.688" fill="#d1d3d4"/><path d="M167.743,234.402l-.856-1.324.06-3.617c0-.807.538-.867.538-.867,0,0,7.324-4.514,8.131-5.112s.688-1.136.688-1.136l.12-2.481c-.03-.688-.658-.508-.658-.508l-3.737,1.973.06-3.019c-.06-.807.867-1.495.867-1.495l170.494-102.723.962,1.777-.142.936-.425.397-.085,2.296,3.969-2.353s.51-.454.709-1.276.454-1.956.454-1.956c0,0-.17-.425-.709-.255l-1.361.822.624-2.637s-.078-.322.797-.898l13.356-7.519.537.51-10.143,38.356-192.755,131.184" fill="none" stroke="#000" stroke-linecap="round" stroke-linejoin="round" stroke-width=".5"/><path d="M156.53,245.122l3.456-.494,6.488-4.09s.846-.705,1.128-2.327.141-3.808.141-3.808l185.593-116.605s3.487-7.818,3.698-11.622l-83.932-27.79-29.852,13.214s-1.054.468-1.144,1.431l-1.203,8.574" fill="none" stroke="#000" stroke-linecap="round" stroke-linejoin="round" stroke-width=".5"/><path d="M273.585,78.102c.898-.718,6.107-2.245,6.107-2.245l79.886,25.895s-.494.329-.494,1.228l1.437.718" fill="none" stroke="#000" stroke-linecap="round" stroke-linejoin="round" stroke-width=".5"/><path d="M13.999,169.378l-.569-2.56c-.498.498-1.706.498-1.706.498l-2.844-18.842c.071-1.28,1.564-2.062,1.564-2.062l4.906-1.778c1.849-.64,1.209-2.986,1.209-2.986l-.64-8.339s-.663-1.507.844-1.989l6.81-2.411s.904-.422.844-1.145l-.362-1.868s-.181-.603-.904-.362l-2.29.844s-1.085.603-1.326-.482l-.301-2.23s-.825-1.241.079-1.422l82.241-29.736" fill="none" stroke="#000" stroke-linecap="round" stroke-linejoin="round" stroke-width=".5"/><path d="M35.152,155.76l-19.751,8.54,2.8,2.24s1.128.856-.389,1.556l-5.173,2.178-.039.622,5.718,4.24h1.478l6.146-2.412s1.089-.35,1.556.428c0,0,.194.428-.428.739l-5.795,2.567-.156.661,12.174,9.179,1.517.078,6.184-2.956s1.011-.156,1.4.272-.156.583-.156.583l-6.184,3.034-.156.778,6.496,4.823h1.517l6.068-2.762s1.556-.506,2.061.778c0,0,.078.545-.778.972s-5.523,2.606-5.523,2.606l.078.739,13.419,10.113,1.789.039,5.523-2.878,1.595-.039,15.092,10.93s.545.506.117.817-5.99,3.267-5.99,3.267l-.194.778,7.662,5.873,1.711-.039,6.301-3.228s1.322-.506,2.023.428c0,0,.622.583-.545,1.245s-5.757,3.189-5.757,3.189v.856l15.986,12.019h1.828l6.379-3.617s1.284-.389,1.984.545l-.078.661-6.418,3.928-.117.972,8.557,6.418,1.906.156,5.912-3.695s1.634-.622,2.8.545-1.128,2.1-1.128,2.1l-4.901,3.073-.117.972,18.631,13.769,1.673.078,6.534-4.123s.972-.078,1.673.428l5.018,3.578,1.089.039" fill="none" stroke="#000" stroke-linecap="round" stroke-linejoin="round" stroke-width=".5"/><path d="M121.2,250.79l-.042,1.701,18.631,13.769,1.673.078,6.534-4.123s.972-.078,1.673.428l5.018,3.578,1.089.039" fill="none" stroke="#000" stroke-linecap="round" stroke-linejoin="round" stroke-width=".5"/><path d="M108.12,241.111l.007,1.812,8.557,6.418,1.906.156,5.912-3.695s1.378-.873,2.545.294" fill="none" stroke="#000" stroke-linecap="round" stroke-linejoin="round" stroke-width=".5"/><path d="M88.585,226.661l-.022,1.753,15.986,12.019h1.828l6.379-3.617s.319-.097.725-.078" fill="none" stroke="#000" stroke-linecap="round" stroke-linejoin="round" stroke-width=".5"/><path d="M77.151,218.326l.016,1.765,7.662,5.873,1.711-.039,6.301-3.228s.587-.224,1.186-.098" fill="none" stroke="#000" stroke-linecap="round" stroke-linejoin="round" stroke-width=".5"/><polyline points="45.814 195.279 45.817 197.065 59.236 207.178 61.025 207.216 66.548 204.338 68.143 204.299 82.574 214.639" fill="none" stroke="#000" stroke-linecap="round" stroke-linejoin="round" stroke-width=".5"/><path d="M35.942,188.139l-.044,1.769,6.496,4.823h1.517l6.068-2.762s.454-.148.952-.081" fill="none" stroke="#000" stroke-linecap="round" stroke-linejoin="round" stroke-width=".5"/><polyline points="21.13 177.215 21.118 178.939 33.293 188.119 34.809 188.196 36.009 187.385" fill="none" stroke="#000" stroke-linecap="round" stroke-linejoin="round" stroke-width=".5"/><polyline points="12.591 170.877 12.6 172.716 18.318 176.956 19.796 176.956 21.372 176.396" fill="none" stroke="#000" stroke-linecap="round" stroke-linejoin="round" stroke-width=".5"/><line x1="52.126" y1="148.999" x2="47.837" y2="150.849" fill="none" stroke="#000" stroke-linecap="round" stroke-linejoin="round" stroke-width=".5"/><path d="M156.53,245.122l-.823,27.125s1.612.983,3.556-.313" fill="none" stroke="#000" stroke-linecap="round" stroke-linejoin="round" stroke-width=".5"/><path d="M157.185,272.81l1.044.744s.686.286,1.259-.057" fill="none" stroke="#000" stroke-linecap="round" stroke-linejoin="round" stroke-width=".5"/><line x1="144.899" y1="264.057" x2="155.35" y2="271.503" fill="none" stroke="#000" stroke-linecap="round" stroke-linejoin="round" stroke-width=".5"/><line x1="105.494" y1="157.802" x2="106.493" y2="189.493" fill="none" stroke="#000" stroke-linecap="round" stroke-linejoin="round" stroke-width=".5"/><polyline points="99.531 193.499 99.676 200.685 161.693 241.805" fill="none" stroke="#000" stroke-linecap="round" stroke-linejoin="round" stroke-width=".5"/><line x1="125.308" y1="148.198" x2="125.828" y2="190.73" fill="none" stroke="#000" stroke-linecap="round" stroke-linejoin="round" stroke-width=".5"/><line x1="57.642" y1="152.097" x2="59.504" y2="151.269" fill="none" stroke="#000" stroke-linecap="round" stroke-linejoin="round" stroke-width=".5"/><polygon points="35.901 159.189 34.939 150.106 36.814 151.355 37.679 160.486 35.901 159.189" fill="none" stroke="#000" stroke-linecap="round" stroke-linejoin="round" stroke-width=".5"/><polyline points="36.862 151.115 47.291 146.886 48.059 156.065 37.679 160.486" fill="none" stroke="#000" stroke-linecap="round" stroke-linejoin="round" stroke-width=".5"/><polyline points="34.939 150.106 45.591 145.845 47.291 146.886" fill="none" stroke="#000" stroke-linecap="round" stroke-linejoin="round" stroke-width=".5"/><path d="M273.102,78.386l.703,1.523-28.873,13.139-1.121-.558s-.816.036-.816.689l-1.07,8.741" fill="none" stroke="#000" stroke-linecap="round" stroke-linejoin="round" stroke-width=".5"/><line x1="217.072" y1="91.478" x2="240.607" y2="100.149" fill="none" stroke="#000" stroke-linecap="round" stroke-linejoin="round" stroke-width=".5"/><line x1="79.935" y1="137.425" x2="113.234" y2="123.785" fill="none" stroke="#000" stroke-linecap="round" stroke-linejoin="round" stroke-width=".5"/><polyline points="52.225 148.602 79.16 137.43 85.387 140.402" fill="none" stroke="#000" stroke-linecap="round" stroke-linejoin="round" stroke-width=".5"/><polyline points="74.671 155.595 85.807 150.711 85.387 140.402 72.708 145.692 73.747 146.157 74.315 156.63 73.031 157.218 71.801 156.63 58.552 162.663 53.217 159.189 52.225 148.602 57.642 152.097 58.552 162.312" fill="none" stroke="#000" stroke-linecap="round" stroke-linejoin="round" stroke-width=".5"/><polyline points="59.504 151.269 71.203 146.348 72.352 146.731 73.031 157.218" fill="none" stroke="#000" stroke-linecap="round" stroke-linejoin="round" stroke-width=".5"/><line x1="68.575" y1="128.512" x2="58.187" y2="132.76" fill="none" stroke="#000" stroke-linecap="round" stroke-linejoin="round" stroke-width=".5"/><polyline points="82.48 114.741 82.537 122.801 74.967 125.897" fill="none" stroke="#000" stroke-linecap="round" stroke-linejoin="round" stroke-width=".5"/><polygon points="68.874 121.741 72.657 120.256 74.444 121.231 70.591 122.716 68.874 121.741" fill="none" stroke="#000" stroke-linecap="round" stroke-linejoin="round" stroke-width=".5"/><polyline points="74.444 121.231 74.467 122.206 70.614 123.738 70.591 122.716" fill="none" stroke="#000" stroke-linecap="round" stroke-linejoin="round" stroke-width=".5"/><polyline points="68.874 121.741 69.059 125.455 68.85 125.896 68.363 125.803 68.409 126.732 69.036 126.848 69.099 133.417 70.359 133.974 70.452 138.268 71.589 139.034 71.45 134.159 70.754 133.811 70.614 123.738" fill="none" stroke="#000" stroke-linecap="round" stroke-linejoin="round" stroke-width=".5"/><polyline points="74.47 122.205 74.761 132.572 72.951 133.91 73.069 138.317 71.592 139.033" fill="none" stroke="#000" stroke-linecap="round" stroke-linejoin="round" stroke-width=".5"/><path d="M106.198,157.292c1.657-.694,18.178-8.215,18.178-8.215,0,0,1.375-.929.223-1.561l-3.569-1.933s-.595-.558-2.045.037l-18.661,8.55s-.669.483.112,1.227l2.788,1.598s1.375.967,2.974.297Z" fill="none" stroke="#000" stroke-linecap="round" stroke-linejoin="round" stroke-width=".5"/><line x1="99.99" y1="154.616" x2="100.92" y2="192.644" fill="none" stroke="#000" stroke-linecap="round" stroke-linejoin="round" stroke-width=".5"/><ellipse cx="102.267" cy="162.396" rx="1.131" ry="1.882" transform="translate(-61.175 61.809) rotate(-26.191)" fill="none" stroke="#000" stroke-linecap="round" stroke-linejoin="round" stroke-width=".477"/><polyline points="251.19 121.937 272.684 110.913 311.518 125.493" fill="none" stroke="#000" stroke-linecap="round" stroke-linejoin="round" stroke-width=".5"/><line x1="277.147" y1="80.172" x2="273.768" y2="103.625" fill="none" stroke="#000" stroke-linecap="round" stroke-linejoin="round" stroke-width=".5"/><polygon points="224.052 176.936 322.909 118.854 328.808 120.912 230.061 180.075 224.052 176.936" fill="none" stroke="#000" stroke-linecap="round" stroke-linejoin="round" stroke-width=".5"/><path d="M223.106,185.399l.161-4.547s.211-1.107,1.002-1.476l2.109-1.213" fill="none" stroke="#000" stroke-linecap="round" stroke-linejoin="round" stroke-width=".5"/><path d="M224.924,184.282l.084-2.376c-.105-1.055.791-1.634.791-1.634l2.214-1.265-.105,3.391" fill="none" stroke="#000" stroke-linecap="round" stroke-linejoin="round" stroke-width=".5"/><line x1="223.973" y1="176.946" x2="223.923" y2="179.63" fill="none" stroke="#000" stroke-linecap="round" stroke-linejoin="round" stroke-width=".5"/><line x1="230.061" y1="180.075" x2="230.061" y2="181.147" fill="none" stroke="#000" stroke-linecap="round" stroke-linejoin="round" stroke-width=".5"/><polyline points="325.287 119.587 326.541 118.863 327.767 119.281 326.624 120.061" fill="none" stroke="#000" stroke-linecap="round" stroke-linejoin="round" stroke-width=".5"/><line x1="327.776" y1="120.517" x2="327.776" y2="119.301" fill="none" stroke="#000" stroke-linecap="round" stroke-linejoin="round" stroke-width=".5"/><path d="M343.373,114.055l-1.421-.183-169.9,102.389s-1.308.685-1.183,1.931l.062,2.553,1.098.585" fill="none" stroke="#000" stroke-linecap="round" stroke-linejoin="round" stroke-width=".5"/><path d="M175.281,219.556v2.105s.087.923-.721,1.384l-7.787,4.73s-.836.346-.865,1.557l-.087,3.634.836,1.557-.115,3.057s-.202,1.269-.865,1.846l-5.883,3.72-3.345.548.081,1.427" fill="none" stroke="#000" stroke-linecap="round" stroke-linejoin="round" stroke-width=".5"/><polyline points="120.718 185.19 120.557 153.152 123.893 151.636 124.429 189.869" fill="none" stroke="#000" stroke-linecap="round" stroke-linejoin="round" stroke-width=".5"/><polyline points="166.542 237.58 99.531 193.499 115.777 185.354 126.58 192.144" fill="none" stroke="#000" stroke-linecap="round" stroke-linejoin="round" stroke-width=".5"/><polyline points="175.146 173.078 133.111 196.368 126.594 192.164" fill="none" stroke="#000" stroke-linecap="round" stroke-linejoin="round" stroke-width=".5"/><path d="M170.886,170.877l-31.527,16.544-.071-9.231-.709-.65-2.793,1.312s.545,2.831-1.509,3.967c0,0-1.227.593-1.143,1.608l-.023,11.94" fill="none" stroke="#000" stroke-linecap="round" stroke-linejoin="round" stroke-width=".5"/><path d="M239.55,158.154l-13.873-6.597-12.825,6.967s-2.281,1.233-2.343,3.823l-2.59,25.341" fill="none" stroke="#000" stroke-linecap="round" stroke-linejoin="round" stroke-width=".5"/><path d="M212.421,158.585l-26.266-13.072,11.653-5.858.555-.863-11.592-5.224,31.417-15.209,11.878,5.218,11.434-5.773,26.532,10.768-11.323,6.106,14.543,5.995-30.862,17.096s-2.257.938-2.689,4.453l-.863,7.029" fill="none" stroke="#000" stroke-linecap="round" stroke-linejoin="round" stroke-width=".5"/><path d="M188.647,146.742s-2.185.437-2.403,4.533l-1.584,23.868" fill="none" stroke="#000" stroke-linecap="round" stroke-linejoin="round" stroke-width=".5"/><path d="M191.16,147.998s-2.185.437-2.403,4.533l-1.584,23.868" fill="none" stroke="#000" stroke-linecap="round" stroke-linejoin="round" stroke-width=".5"/><path d="M193.672,149.309s-2.185.437-2.403,4.533l-1.584,23.868" fill="none" stroke="#000" stroke-linecap="round" stroke-linejoin="round" stroke-width=".5"/><path d="M196.294,150.62s-2.185.437-2.403,4.533l-1.584,23.868" fill="none" stroke="#000" stroke-linecap="round" stroke-linejoin="round" stroke-width=".5"/><path d="M198.97,151.876s-2.185.437-2.403,4.533l-1.584,23.868" fill="none" stroke="#000" stroke-linecap="round" stroke-linejoin="round" stroke-width=".5"/><path d="M201.428,153.296s-2.185.437-2.403,4.533l-1.584,23.868" fill="none" stroke="#000" stroke-linecap="round" stroke-linejoin="round" stroke-width=".5"/><path d="M204.213,154.661s-2.185.437-2.403,4.533l-1.584,23.868" fill="none" stroke="#000" stroke-linecap="round" stroke-linejoin="round" stroke-width=".5"/><path d="M207.053,155.917s-2.185.437-2.403,4.533l-1.584,23.868" fill="none" stroke="#000" stroke-linecap="round" stroke-linejoin="round" stroke-width=".5"/><path d="M209.893,157.283s-2.185.437-2.403,4.533l-1.584,23.868" fill="none" stroke="#000" stroke-linecap="round" stroke-linejoin="round" stroke-width=".5"/><path d="M228.345,152.902s-2.185.437-2.403,4.533l-.711,7.551" fill="none" stroke="#000" stroke-linecap="round" stroke-linejoin="round" stroke-width=".5"/><path d="M231.094,154.17s-2.185.437-2.403,4.533l-.711,7.551" fill="none" stroke="#000" stroke-linecap="round" stroke-linejoin="round" stroke-width=".5"/><path d="M234.011,155.481s-2.185.437-2.403,4.533l-1.514,13.09" fill="none" stroke="#000" stroke-linecap="round" stroke-linejoin="round" stroke-width=".5"/><path d="M236.929,156.919s-2.185.437-2.403,4.533l-1.134,9.834" fill="none" stroke="#000" stroke-linecap="round" stroke-linejoin="round" stroke-width=".5"/><path d="M267.416,138.772l1.151-8.691s.269-1.309-.535-1.507" fill="none" stroke="#000" stroke-linecap="round" stroke-linejoin="round" stroke-width=".5"/><path d="M270.353,149.676l1.359-7.555s.269-1.309-.535-1.507" fill="none" stroke="#000" stroke-linecap="round" stroke-linejoin="round" stroke-width=".5"/><path d="M186.77,133.569s-1.823.806-2.151,4.02l-.406,8.022" fill="none" stroke="#000" stroke-linecap="round" stroke-linejoin="round" stroke-width=".5"/><path d="M188.545,134.4c-.486.32-1.633,1.294-1.893,3.841l-.328,7.136" fill="none" stroke="#000" stroke-linecap="round" stroke-linejoin="round" stroke-width=".5"/><path d="M191.029,135.487c-.548.415-1.56,1.48-1.797,3.796l-.198,4.686" fill="none" stroke="#000" stroke-linecap="round" stroke-linejoin="round" stroke-width=".5"/><path d="M193.528,136.65c-.558.443-1.514,1.513-1.742,3.754l-.067,2.288" fill="none" stroke="#000" stroke-linecap="round" stroke-linejoin="round" stroke-width=".5"/><path d="M196.112,137.825c-.503.309-1.541,1.23-1.787,3.642" fill="none" stroke="#000" stroke-linecap="round" stroke-linejoin="round" stroke-width=".5"/><path d="M211.371,192.462l-40.012-21.183s-1.036-.609-.783-1.275v-2.766c-.253.666.783,1.275.783,1.275l42.306,22.654" fill="none" stroke="#000" stroke-linecap="round" stroke-linejoin="round" stroke-width=".5"/><polyline points="135.786 178.853 135.193 178.415 138.025 177.024 138.579 177.54" fill="none" stroke="#000" stroke-linecap="round" stroke-linejoin="round" stroke-width=".5"/><line x1="216.568" y1="183.503" x2="208.696" y2="188.124" fill="none" stroke="#000" stroke-linecap="round" stroke-linejoin="round" stroke-width=".547"/><path d="M219.713,175.023s.854,1.396,4.34,1.913" fill="none" stroke="#000" stroke-linecap="round" stroke-linejoin="round" stroke-width=".547"/><path d="M217.003,184.671s-1.595,2.355.886,4.001" fill="none" stroke="#000" stroke-linecap="round" stroke-linejoin="round" stroke-width=".547"/><ellipse cx="224.302" cy="168.293" rx="3.19" ry="6.249" transform="translate(26.595 367.156) rotate(-82.048)" fill="none" stroke="#000" stroke-linecap="round" stroke-linejoin="round" stroke-width=".547"/><path d="M219.486,168.219c1.137-.809,3.113-1.184,5.274-.882,1.947.272,3.599,1.032,4.545,1.976" fill="none" stroke="#000" stroke-linecap="round" stroke-linejoin="round" stroke-width=".531"/><ellipse cx="224.399" cy="168.149" rx="2.665" ry="5.221" transform="translate(26.821 367.127) rotate(-82.048)" fill="none" stroke="#000" stroke-linecap="round" stroke-linejoin="round" stroke-width=".457"/><path d="M225.027,176.171c-.581.008-1.19-.029-1.815-.116-3.418-.477-5.991-2.279-5.747-4.024l.649-4.603" fill="none" stroke="#000" stroke-linecap="round" stroke-linejoin="round" stroke-width=".547"/><path d="M217.915,173.655s-.912,3.723,6.027,4.558" fill="none" stroke="#000" stroke-linecap="round" stroke-linejoin="round" stroke-width=".547"/><path d="M217.94,175.124s-1.975,3.874,5.318,5.546" fill="none" stroke="#000" stroke-linecap="round" stroke-linejoin="round" stroke-width=".547"/><path d="M219.13,176.466s.304,2.406,4.735,2.862" fill="none" stroke="#000" stroke-linecap="round" stroke-linejoin="round" stroke-width=".547"/><path d="M217.839,177.454s-1.545,1.519,1.19,4.102c0,0,1.494,1.393,4.102,1.595" fill="none" stroke="#000" stroke-linecap="round" stroke-linejoin="round" stroke-width=".547"/><path d="M218.877,178.796s.076,2.203,4.28,3.013" fill="none" stroke="#000" stroke-linecap="round" stroke-linejoin="round" stroke-width=".547"/><path d="M217.535,179.758s-1.722,2.077,1.595,4.482c0,0,1.975,1.241,3.773,1.342" fill="none" stroke="#000" stroke-linecap="round" stroke-linejoin="round" stroke-width=".547"/><path d="M218.421,181.05s.152,2.431,4.558,3.191" fill="none" stroke="#000" stroke-linecap="round" stroke-linejoin="round" stroke-width=".547"/><path d="M217.282,182.316s-1.925,2.456,2.583,5.09" fill="none" stroke="#000" stroke-linecap="round" stroke-linejoin="round" stroke-width=".547"/><path d="M218.269,183.582s-.355,1.773,3.165,2.938" fill="none" stroke="#000" stroke-linecap="round" stroke-linejoin="round" stroke-width=".547"/><path d="M217.965,186.14s-.38.582,1.114,1.798" fill="none" stroke="#000" stroke-linecap="round" stroke-linejoin="round" stroke-width=".547"/><line x1="222.213" y1="168.725" x2="225.803" y2="170.511" fill="none" stroke="#000" stroke-linecap="round" stroke-linejoin="round" stroke-width=".531"/><line x1="223.039" y1="170.415" x2="225.688" y2="168.764" fill="none" stroke="#000" stroke-linecap="round" stroke-linejoin="round" stroke-width=".531"/><path d="M186.165,151.933c-.557.013-1.141-.014-1.74-.087-3.425-.413-6.027-2.136-5.812-3.847s3.167-2.764,6.592-2.351c.708.085,1.38.227,2,.412" fill="none" stroke="#000" stroke-linecap="round" stroke-linejoin="round" stroke-width=".541"/><path d="M179.998,148.75c1.124-.81,3.093-1.209,5.259-.947.599.072,1.17.19,1.703.344" fill="none" stroke="#000" stroke-linecap="round" stroke-linejoin="round" stroke-width=".525"/><path d="M186.185,151.261c-.51.02-1.048-.001-1.602-.068-2.862-.345-5.036-1.784-4.856-3.214s2.646-2.309,5.507-1.964c1.139.137,2.169.448,2.985.862" fill="none" stroke="#000" stroke-linecap="round" stroke-linejoin="round" stroke-width=".452"/><path d="M185.667,156.446c-.58.017-1.191-.009-1.817-.085-3.425-.413-6.027-2.136-5.812-3.847l.575-4.516" fill="none" stroke="#000" stroke-linecap="round" stroke-linejoin="round" stroke-width=".541"/><line x1="182.733" y1="149.203" x2="186.202" y2="150.816" fill="none" stroke="#000" stroke-linecap="round" stroke-linejoin="round" stroke-width=".525"/><line x1="183.205" y1="150.422" x2="185.827" y2="149.156" fill="none" stroke="#000" stroke-linecap="round" stroke-linejoin="round" stroke-width=".525"/><path d="M178.685,154.243s-.127,3.616,7.079,3.819" fill="none" stroke="#000" stroke-linecap="round" stroke-linejoin="round" stroke-width=".525"/><path d="M185.611,160.227s-8.123.458-6.849-5.118" fill="none" stroke="#000" stroke-linecap="round" stroke-linejoin="round" stroke-width=".525"/><path d="M179.856,156.382s.051,2.725,5.831,2.674" fill="none" stroke="#000" stroke-linecap="round" stroke-linejoin="round" stroke-width=".525"/><path d="M178.812,157.553s-1.451,2.903,2.062,4.303c0,0,1.986.993,4.583.687" fill="none" stroke="#000" stroke-linecap="round" stroke-linejoin="round" stroke-width=".525"/><path d="M179.627,158.674s.204,2.903,5.882,2.826" fill="none" stroke="#000" stroke-linecap="round" stroke-linejoin="round" stroke-width=".525"/><path d="M178.659,160.125s-.372.933-.074,1.989c.386,1.369,1.896,2.947,6.796,2.976" fill="none" stroke="#000" stroke-linecap="round" stroke-linejoin="round" stroke-width=".525"/><path d="M179.55,161.093s0,2.648,5.78,2.852" fill="none" stroke="#000" stroke-linecap="round" stroke-linejoin="round" stroke-width=".525"/><path d="M185.178,167.433s-3.768.484-5.805-1.655-.787-3.663-.787-3.663" fill="none" stroke="#000" stroke-linecap="round" stroke-linejoin="round" stroke-width=".525"/><path d="M179.449,163.639s.637,2.852,5.805,2.674" fill="none" stroke="#000" stroke-linecap="round" stroke-linejoin="round" stroke-width=".525"/><path d="M178.456,164.683s-1.477,2.266,1.63,4.329c0,0,2.292,1.069,4.965.637" fill="none" stroke="#000" stroke-linecap="round" stroke-linejoin="round" stroke-width=".525"/><path d="M185.127,168.553s-5.373.28-5.933-2.954" fill="none" stroke="#000" stroke-linecap="round" stroke-linejoin="round" stroke-width=".525"/><polyline points="246.5 117.518 247.637 116.897 246.564 116.451" fill="none" stroke="#000" stroke-linecap="round" stroke-linejoin="round" stroke-width=".525"/><polyline points="247.075 113.228 251.691 114.789 249.421 117.262 246.948 118.681 246.446 118.496" fill="none" stroke="#000" stroke-linecap="round" stroke-linejoin="round" stroke-width=".525"/><line x1="250.556" y1="115.397" x2="246.874" y2="114.067" fill="none" stroke="#000" stroke-linecap="round" stroke-linejoin="round" stroke-width=".525"/><line x1="249.786" y1="116.087" x2="246.784" y2="114.961" fill="none" stroke="#000" stroke-linecap="round" stroke-linejoin="round" stroke-width=".525"/><polyline points="251.691 114.789 251.326 119.37 249.542 121.073" fill="none" stroke="#000" stroke-linecap="round" stroke-linejoin="round" stroke-width=".525"/><line x1="246.948" y1="118.681" x2="246.988" y2="120.059" fill="none" stroke="#000" stroke-linecap="round" stroke-linejoin="round" stroke-width=".525"/><path d="M139.74,129.439l-38.123-19.226s-.629-20.956,2.437-26.024c0,0,2.065-4.505,7.57-2.19s18.269,8.071,18.269,8.071c0,0,7.758,4.129,8.884,14.14s.963,25.229.963,25.229Z" fill="none" stroke="#000" stroke-linecap="round" stroke-linejoin="round" stroke-width=".554"/><path d="M105.985,108.78c-1.037-1.598-2.799-4.87-1.648-8.45l32.259,15.367v4.164s-.222,3.356-3.72,2.912l-8.197-3.806" fill="none" stroke="#000" stroke-linecap="round" stroke-linejoin="round" stroke-width=".525"/><path d="M280.316,81.612c3.311,4.64,6.004,9.628,8.574,14.692,4.791,8.142,10.231,16.062,14.006,24.703-5.557-7.644-9.667-16.294-14.287-24.541-2.951-4.726-6.384-9.858-8.293-14.854h0Z"/><path d="M286.522,83.18c3.417,4.82,6.216,9.987,8.892,15.231,4.967,8.442,10.585,16.66,14.537,25.601-5.734-7.942-10.021-16.893-14.818-25.44-3.057-4.906-6.597-10.218-8.611-15.393h0Z"/><path d="M292.925,85.009c3.229,4.493,5.84,9.334,8.329,14.251,4.655,7.897,9.959,15.572,13.598,23.968-5.42-7.399-9.395-15.803-13.879-23.806-2.869-4.579-6.22-9.564-8.048-14.413h0Z"/><path d="M299.719,87.296c2.902,3.904,5.186,8.157,7.349,12.487,4.11,6.917,8.87,13.613,11.964,21.028-4.872-6.419-8.306-13.841-12.244-20.866-2.544-3.991-5.563-8.385-7.068-12.649h0Z"/><path d="M306.513,89.582c2.581,3.338,4.53,7.032,6.369,10.797,3.562,5.979,7.786,11.736,10.33,18.211-4.328-5.481-7.213-11.964-10.61-18.048-2.215-3.429-4.911-7.254-6.088-10.959h0Z"/><path d="M313.569,91.934c2.465,3.099,4.3,6.556,6.025,10.086,3.371,5.584,7.403,10.943,9.758,17.027-4.133-5.083-6.831-11.172-10.038-16.863-2.101-3.191-4.68-6.776-5.746-10.249h0Z"/><path d="M320.755,94.351c2.221,2.675,3.81,5.706,5.29,8.812,2.963,4.875,6.588,9.53,8.532,14.903-3.721-4.377-6.015-9.754-8.812-14.74-1.984-2.811-3.851-5.68-5.097-8.925-.022-.049.053-.097.086-.05h0Z"/><path d="M328.203,96.704c1.824,2.061,3.011,4.469,4.091,6.951,2.299,3.84,5.262,7.477,6.527,11.798-3.056-3.357-4.683-7.683-6.809-11.638-1.586-2.193-3.053-4.442-3.896-7.062-.019-.049.053-.093.087-.049h0Z"/><path d="M335.388,99.12c1.874,2.007,3.12,4.378,4.261,6.826,2.393,3.77,5.445,7.319,6.816,11.597-3.137-3.267-4.871-7.54-7.094-11.43-1.639-2.146-3.161-4.351-4.069-6.942-.02-.048.05-.095.085-.052h0Z"/><path d="M343.163,101.733c1.144.804,1.651,1.96,2.056,3.201.634,1.097,1.701,1.933,2.278,3.067.396.748.733,1.531.893,2.421.009.046-.049.083-.086.052-1.842-1.338-2.386-3.468-3.362-5.373-.906-.938-1.69-1.929-1.864-3.316-.008-.045.049-.081.086-.051h0Z"/><path d="M350.872,104.216c.798.202.83.619.856,1.242.215.438.859.58,1.08,1.111.088.143.281,1.049.006,1.161-.447-.125-.718-.357-.926-.622-.355-.453-.162-1.08-.439-1.486-.529-.327-.878-.563-.663-1.355.01-.037.049-.06.086-.05h0Z"/><path d="M278.421,87.753c2.763,3.634,4.908,7.616,6.932,11.679,3.879,6.467,8.407,12.713,11.27,19.681-4.638-5.968-7.843-12.941-11.55-19.518-2.405-3.72-5.284-7.843-6.652-11.842h0Z"/><path d="M277.572,94.678c2.052,2.451,3.469,5.253,4.776,8.127,2.678,4.495,6.02,8.779,7.673,13.759-3.439-4.007-5.444-8.993-7.954-13.598-1.814-2.585-3.51-5.227-4.582-8.238-.021-.05.053-.095.087-.05h0Z"/><path d="M281.36,110.486c.795.142.834.538.878,1.139.22.407.853.49,1.095.998.092.128.305,1.01.034,1.119-.444-.091-.715-.294-.927-.536-.367-.426-.188-1.034-.473-1.403-.532-.281-.88-.478-.69-1.262.009-.037.046-.061.084-.055h0Z"/><path d="M279.07,86.625c.492-.984,1.347-1.335,2.292-1.589.795-.479,1.318-1.384,2.153-1.808.547-.293,1.132-.528,1.827-.588.044-.005.077.047.054.084-.699,1.16-1.752,1.818-3.016,2.181-.308.093-.603.206-.844.404-.631.747-1.312,1.373-2.412,1.4-.043.004-.076-.046-.054-.084h0Z"/><path d="M277.503,93.746c1.549-1.605,3.462-2.58,5.454-3.452,3.006-1.945,5.8-4.548,9.31-5.466-2.51,2.679-6.009,3.972-9.142,5.743-1.689,1.369-3.434,2.621-5.57,3.261-.048.017-.091-.05-.052-.085h0Z"/><path d="M279.332,98.711c2.165-1.949,4.691-3.269,7.292-4.481,4.029-2.516,7.839-5.691,12.372-7.184-3.529,3.265-8.06,5.117-12.206,7.462-2.303,1.713-4.664,3.31-7.407,4.289-.048.02-.095-.051-.051-.086h0Z"/><path d="M280.835,103.937c2.873-2.312,6.101-3.991,9.4-5.56,5.203-3.113,10.187-6.888,15.883-8.981-4.708,3.876-10.41,6.315-15.721,9.262-3.008,2.075-6.075,4.032-9.513,5.366-.05.022-.097-.053-.05-.087h0Z"/><path d="M281.228,109.685c3.705-2.742,7.751-4.861,11.876-6.859,6.577-3.839,12.94-8.329,20.006-11.146-6.087,4.604-13.162,7.762-19.846,11.428-3.787,2.383-7.983,5.235-12.035,6.577h0Z"/><path d="M284.103,114.062c4.238-3.004,8.815-5.386,13.469-7.643,7.462-4.274,14.713-9.202,22.66-12.453-6.975,5.045-14.935,8.634-22.502,12.735-4.319,2.644-9.05,5.761-13.627,7.36h0Z"/><path d="M290.44,116.479c4.351-2.991,9.032-5.355,13.788-7.595,7.64-4.248,15.077-9.151,23.189-12.37-7.163,5.025-15.292,8.58-23.035,12.654-4.427,2.63-9.272,5.728-13.943,7.31h0Z"/><path d="M297.561,119.092c4.366-3.007,9.065-5.388,13.837-7.644,7.668-4.275,15.13-9.205,23.271-12.451-7.189,5.052-15.346,8.635-23.116,12.736-4.443,2.646-9.304,5.761-13.992,7.359h0Z"/><path d="M304.029,121.379c4.472-2.971,9.266-5.309,14.133-7.522,7.832-4.207,15.469-9.073,23.759-12.245-7.365,4.992-15.677,8.5-23.609,12.532-4.543,2.608-9.511,5.679-14.283,7.235h0Z"/><path d="M310.497,124.318c4.632-2.997,9.58-5.36,14.599-7.596,8.092-4.249,15.994-9.158,24.534-12.367-7.631,5.038-16.197,8.582-24.386,12.655-4.7,2.634-9.828,5.728-14.747,7.308h0Z"/><path d="M344.468,113.343c.113-.783.381-.635.853-.589.308-.106.304-.653.73-.816.121-.06.763-.089.882.186-.048.392-.195.602-.375.752-.372.268-.821-.036-1.083.163-.086.082-.11.278-.181.387-.118.211-.749.163-.826-.083h0Z"/><path d="M275.32,110.315s-.153-5.264,3.91-6.465l1.584.767s-3.68,1.022-3.91,6.21l-1.584-.511Z" fill="none" stroke="#000" stroke-linecap="round" stroke-linejoin="round" stroke-width=".5"/><path d="M280.814,104.617l-.256,1.712c-2.811.639-2.632,4.012-2.632,4.012l-1.022.486" fill="none" stroke="#000" stroke-linecap="round" stroke-linejoin="round" stroke-width=".5"/><polyline points="275.652 107.658 274.502 107.095 273.684 105.716 274.809 104.949 275.626 106.405 276.138 106.635" fill="none" stroke="#000" stroke-linecap="round" stroke-linejoin="round" stroke-width=".5"/><polyline points="275.345 109.216 273.301 108.475 273.684 105.716" fill="none" stroke="#000" stroke-linecap="round" stroke-linejoin="round" stroke-width=".5"/><polygon points="268.855 104.974 272.177 103.288 274.783 104.259 271.385 106.099 270.669 111.823 267.96 110.929 268.855 104.974" fill="none" stroke="#000" stroke-linecap="round" stroke-linejoin="round" stroke-width=".5"/><line x1="271.155" y1="105.971" x2="269.136" y2="105.153" fill="none" stroke="#000" stroke-linecap="round" stroke-linejoin="round" stroke-width=".5"/><line x1="274.718" y1="104.758" x2="274.783" y2="104.259" fill="none" stroke="#000" stroke-linecap="round" stroke-linejoin="round" stroke-width=".5"/><polyline points="272.684 110.913 273.991 110.29 274.16 109.001" fill="none" stroke="#000" stroke-linecap="round" stroke-linejoin="round" stroke-width=".5"/><polyline points="51.613 120.959 76.53 110.99 82.494 114.615 73.547 118.476 72.353 118.313 67.146 120.32 67.576 120.746 57.898 124.716 51.613 120.959 52.547 123.019 52.811 129.41 58.187 132.76 57.898 124.716" fill="none" stroke="#000" stroke-linecap="round" stroke-linejoin="round" stroke-width=".5"/><path d="M77.553,114.029s-2.322-7.282-5.536-1.96" fill="none" stroke="#6d6e71" stroke-linecap="round" stroke-linejoin="round"/><path d="M75.494,114.85s-2.322-7.282-5.536-1.96" fill="none" stroke="#6d6e71" stroke-linecap="round" stroke-linejoin="round"/><path d="M73.362,115.671s-2.322-7.282-5.536-1.96" fill="none" stroke="#6d6e71" stroke-linecap="round" stroke-linejoin="round"/><path d="M71.23,116.493s-2.322-7.282-5.536-1.96" fill="none" stroke="#6d6e71" stroke-linecap="round" stroke-linejoin="round"/><path d="M68.951,117.463s-2.322-7.282-5.536-1.96" fill="none" stroke="#6d6e71" stroke-linecap="round" stroke-linejoin="round"/><path d="M66.525,118.58s-2.322-7.282-5.536-1.96" fill="none" stroke="#6d6e71" stroke-linecap="round" stroke-linejoin="round"/><path d="M63.732,119.774s-2.322-7.282-5.536-1.96" fill="none" stroke="#6d6e71" stroke-linecap="round" stroke-linejoin="round"/><path d="M61.085,120.819s-2.322-7.282-5.536-1.96" fill="none" stroke="#6d6e71" stroke-linecap="round" stroke-linejoin="round"/><path d="M58.512,121.864s-2.322-7.282-5.536-1.96" fill="none" stroke="#6d6e71" stroke-linecap="round" stroke-linejoin="round"/><g clip-path="url(#b)"><path d="M114.03,106.206l-8.49,4.005s-8.58,4.943-11.432,4.706-14.338-5.127-16.595-3.701" fill="none" stroke="#6d6e71" stroke-linecap="round" stroke-linejoin="round"/><path d="M116.68,107.24l-8.49,4.005s-8.58,4.943-11.432,4.706-12.524-3.726-14.782-2.3" fill="none" stroke="#6d6e71" stroke-linecap="round" stroke-linejoin="round"/><path d="M119.136,108.403l-8.49,4.005s-8.58,4.943-11.432,4.706-16.243-5.386-18.501-3.96" fill="none" stroke="#6d6e71" stroke-linecap="round" stroke-linejoin="round"/><path d="M121.398,109.825l-8.49,4.005s-8.58,4.943-11.432,4.706-16.657-6.131-18.914-4.705" fill="none" stroke="#6d6e71" stroke-linecap="round" stroke-linejoin="round"/><path d="M123.855,111.118l-8.49,4.005s-8.58,4.943-11.432,4.706-21.322-8.551-23.58-7.125" fill="none" stroke="#6d6e71" stroke-linecap="round" stroke-linejoin="round"/><path d="M126.375,112.346l-8.49,4.005s-8.58,4.943-11.432,4.706-22.626-9.238-24.883-7.812" fill="none" stroke="#6d6e71" stroke-linecap="round" stroke-linejoin="round"/><path d="M128.896,113.574l-8.49,4.005s-8.58,4.943-11.432,4.706-28.257-11.954-30.515-10.528" fill="none" stroke="#6d6e71" stroke-linecap="round" stroke-linejoin="round"/><path d="M131.611,114.867l-8.49,4.005s-8.58,4.943-11.432,4.706-29.89-12.661-32.148-11.235" fill="none" stroke="#6d6e71" stroke-linecap="round" stroke-linejoin="round"/></g><path d="M82.836,115.607c4.036-1.546,10.202-3.909,18.286-7.006" fill="none" stroke="#000" stroke-linecap="round" stroke-linejoin="round" stroke-width=".5"/><path d="M40.978,147.711l-1.299-11.629s-.495-3.711,3.155-5.134c.667-.26,4.151-1.598,9.402-3.612" fill="none" stroke="#000" stroke-linecap="round" stroke-linejoin="round" stroke-width=".5"/><line x1="71.203" y1="146.348" x2="71.801" y2="156.63" fill="none" stroke="#000" stroke-linecap="round" stroke-linejoin="round" stroke-width=".5"/><line x1="72.352" y1="146.731" x2="73.747" y2="146.157" fill="none" stroke="#000" stroke-linecap="round" stroke-linejoin="round" stroke-width=".5"/><polyline points="74.38 133.251 82.031 130.122 81.752 123.142" fill="none" stroke="#000" stroke-linecap="round" stroke-linejoin="round" stroke-width=".5"/><polyline points="58.159 133.193 58.648 139.685 69.828 135.112" fill="none" stroke="#000" stroke-linecap="round" stroke-linejoin="round" stroke-width=".5"/><polyline points="54.712 130.593 55.048 137.091 58.648 139.685" fill="none" stroke="#000" stroke-linecap="round" stroke-linejoin="round" stroke-width=".5"/><line x1="61.119" y1="131.63" x2="61.577" y2="138.403" fill="none" stroke="#000" stroke-linecap="round" stroke-linejoin="round" stroke-width=".5"/><line x1="55.993" y1="131.539" x2="56.207" y2="137.732" fill="none" stroke="#000" stroke-linecap="round" stroke-linejoin="round" stroke-width=".5"/><line x1="56.756" y1="131.966" x2="56.97" y2="138.159" fill="none" stroke="#000" stroke-linecap="round" stroke-linejoin="round" stroke-width=".5"/><line x1="64.2" y1="130.41" x2="64.658" y2="137.183" fill="none" stroke="#000" stroke-linecap="round" stroke-linejoin="round" stroke-width=".5"/><line x1="67.221" y1="129.22" x2="67.678" y2="135.993" fill="none" stroke="#000" stroke-linecap="round" stroke-linejoin="round" stroke-width=".5"/><line x1="76.313" y1="125.406" x2="76.679" y2="132.179" fill="none" stroke="#000" stroke-linecap="round" stroke-linejoin="round" stroke-width=".5"/><line x1="79.211" y1="124.4" x2="79.516" y2="131.142" fill="none" stroke="#000" stroke-linecap="round" stroke-linejoin="round" stroke-width=".5"/><path d="M106.681,81.632l77.574-27.17s2.375-.817,5.122.148,17.445,5.864,17.445,5.864c0,0,7.646,1.93,9.279,12.991l-.371,22.864-75.99,33.108" fill="none" stroke="#000" stroke-linecap="round" stroke-linejoin="round" stroke-width=".554"/><polyline points="218.614 117.681 247.861 103.581 242.816 101.622 134.666 152.73 140.127 155.519 185.97 133.419" fill="none" stroke="#000" stroke-linecap="round" stroke-linejoin="round" stroke-width=".5"/><path d="M170.576,167.238s-.501-.471,1.203-1.378l6.419-3.336" fill="none" stroke="#000" stroke-linecap="round" stroke-linejoin="round" stroke-width=".5"/><line x1="140.127" y1="155.519" x2="140.001" y2="179.565" fill="none" stroke="#000" stroke-linecap="round" stroke-linejoin="round" stroke-width=".5"/><path d="M137.76,171.819l.117-17.343-1.754.74s-.779.078-.701,2.066l.117,14.42" fill="none" stroke="#000" stroke-linecap="round" stroke-linejoin="round" stroke-width=".5"/><path d="M136.63,153.814l-1.481.507s-1.169.351-1.091,1.832l.156,13.718" fill="none" stroke="#000" stroke-linecap="round" stroke-linejoin="round" stroke-width=".5"/><polygon points="133.005 169.675 130.745 170.884 126.886 171.312 132.343 174.625 135.85 174.313 138.656 172.871 137.097 171.975 134.525 173.417 132.07 171.78 134.408 170.572 133.005 169.675" fill="none" stroke="#000" stroke-linecap="round" stroke-linejoin="round" stroke-width=".5"/><polyline points="126.886 171.312 127.003 176.768 132.187 179.925 132.343 174.625" fill="none" stroke="#000" stroke-linecap="round" stroke-linejoin="round" stroke-width=".5"/><path d="M127.705,173.027v3.235l3.702,2.221v-2.884s-1.52-1.949-3.702-2.572Z" fill="none" stroke="#000" stroke-linecap="round" stroke-linejoin="round" stroke-width=".5"/><path d="M134.976,178.565v.867s.225,2.086-.61,2.568c0,0-1.541.835-1.637,1.156" fill="none" stroke="#000" stroke-linecap="round" stroke-linejoin="round" stroke-width=".5"/><path d="M128.106,179.657s-.481.642-.449,1.22v11.748" fill="none" stroke="#000" stroke-linecap="round" stroke-linejoin="round" stroke-width=".5"/><path d="M127.785,177.41v1.316s.802.802.835,2.568v2.536l.706,1.509v4.686l2.343,1.412.096-3.788.802-.481" fill="none" stroke="#000" stroke-linecap="round" stroke-linejoin="round" stroke-width=".5"/><polyline points="131.798 179.689 132.568 182.77 132.568 185.82 131.91 186.478 131.91 187.649" fill="none" stroke="#000" stroke-linecap="round" stroke-linejoin="round" stroke-width=".5"/><line x1="133.884" y1="171.022" x2="136.035" y2="172.274" fill="none" stroke="#000" stroke-linecap="round" stroke-linejoin="round" stroke-width=".5"/><polyline points="138.656 172.871 138.924 176.575 138.025 177.024" fill="none" stroke="#000" stroke-linecap="round" stroke-linejoin="round" stroke-width=".5"/><polyline points="128.395 184.728 128.395 185.916 129.134 185.563" fill="none" stroke="#000" stroke-linecap="round" stroke-linejoin="round" stroke-width=".5"/><line x1="117.064" y1="186.044" x2="120.659" y2="184.311" fill="none" stroke="#000" stroke-linecap="round" stroke-linejoin="round" stroke-width=".5"/><line x1="247.861" y1="103.581" x2="246.114" y2="119.407" fill="none" stroke="#000" stroke-linecap="round" stroke-linejoin="round" stroke-width=".5"/><line x1="193.089" y1="106.551" x2="213.686" y2="115.345" fill="none" stroke="#000" stroke-linecap="round" stroke-linejoin="round" stroke-width=".525"/></g><g id="c"><line x1="64.92" y1="110.105" x2="53.34" y2="83.761" fill="none" stroke="#fff" stroke-linecap="round" stroke-linejoin="round" stroke-width="3"/><line x1="64.92" y1="110.105" x2="53.34" y2="83.761" fill="none" stroke="#221f20" stroke-linecap="round" stroke-linejoin="round"/><circle cx="53.407" cy="48.945" r="44.157" fill="#fff"/><polygon points="26.19 38.276 27.493 53.122 28.117 55.898 25.49 59.86 26.51 71.687 28.173 78.506 81.266 69.101 82.512 58.958 78.093 53.859 80.359 53.462 81.642 41.657 82.232 41.449 82.423 39.851 77.595 34.727 61.741 34.299 26.19 38.276" fill="#bdbec0"/><g clip-path="url(#d)"><polyline points="77.892 53.764 82.423 58.996 81.318 69.219 28.142 78.509 27.941 77.608 27.775 76.864 27.567 75.926 27.367 75.033 27.135 73.992 27.038 73.559 26.833 72.638 26.793 72.458 26.749 72.262 26.454 70.937 26.392 70.554 26.301 69.419 25.75 63.883 25.618 62.562 25.582 62.207 25.45 60.889 25.429 60.673 25.366 60.039 26.976 57.339 27.388 56.821 27.802 56.301" fill="none" stroke="#221f20" stroke-linecap="round" stroke-linejoin="round" stroke-width=".383"/><polyline points="61.367 59.257 61.845 59.189 62.287 59.125 67.701 58.343 69.314 58.11 71.141 57.847 72.585 57.638 73.463 57.511 78.269 56.817 79.409 56.653 80.094 56.554" fill="none" stroke="#221f20" stroke-linecap="round" stroke-linejoin="round" stroke-width=".383"/><polyline points="28.142 78.509 28.054 77.59 27.981 76.831 27.7 73.903 27.366 70.434 27.056 67.208 27.921 66.143 29.627 64.047 29.671 63.993 29.818 63.813 31.081 63.63 36.472 62.852 37.44 62.712 41.768 62.087 42.743 61.947 43.694 61.809 48.908 61.056 49.231 61.01 49.844 60.921 52.084 60.597" fill="none" stroke="#221f20" stroke-linecap="round" stroke-linejoin="round" stroke-width=".383"/><polyline points="27.263 73.972 27.193 73.535 26.96 72.618 26.942 72.436 26.922 72.235 26.74 70.385 26.558 68.546 26.423 67.95 26.087 64.558 25.991 63.849 25.947 63.679 25.765 62.069 25.713 61.941 25.682 61.752 25.736 61.725 25.718 61.535 25.669 61.324 25.53 60.736 25.495 60.59 28.084 57.351" fill="none" stroke="#221f20" stroke-linecap="round" stroke-linejoin="round" stroke-width=".383"/><line x1="25.839" y1="62.047" x2="28.718" y2="61.641" fill="none" stroke="#221f20" stroke-linecap="round" stroke-linejoin="round" stroke-width=".383"/><line x1="52.219" y1="59.803" x2="52.213" y2="56.923" fill="none" stroke="#221f20" stroke-linecap="round" stroke-linejoin="round" stroke-width=".383"/><line x1="25.495" y1="60.59" x2="28.337" y2="60.194" fill="none" stroke="#221f20" stroke-linecap="round" stroke-linejoin="round" stroke-width=".383"/><line x1="26.42" y1="64.51" x2="28.545" y2="64.203" fill="none" stroke="#221f20" stroke-linecap="round" stroke-linejoin="round" stroke-width=".383"/><polyline points="28.904 63.76 28.718 61.641 28.337 60.194 28.084 57.351" fill="none" stroke="#221f20" stroke-linecap="round" stroke-linejoin="round" stroke-width=".383"/><polyline points="25.864 63.867 25.835 63.696 25.715 62.598 25.654 62.095 25.607 61.737 25.615 61.589" fill="none" stroke="#221f20" stroke-linecap="round" stroke-linejoin="round" stroke-width=".383"/><line x1="26.843" y1="66.302" x2="26.42" y2="64.51" fill="none" stroke="#221f20" stroke-linecap="round" stroke-linejoin="round" stroke-width=".383"/><polyline points="27.056 67.208 26.843 66.302 28.207 64.621 28.545 64.203 28.904 63.76 29.58 62.927 28.465 58.773 28.084 57.351 27.802 56.301" fill="none" stroke="#221f20" stroke-linecap="round" stroke-linejoin="round" stroke-width=".383"/><polyline points="25.864 63.867 25.835 63.696 25.723 62.452 25.665 62.094 25.69 61.944 25.682 61.752 25.678 61.727 25.716 61.574" fill="none" stroke="#221f20" stroke-linecap="round" stroke-linejoin="round" stroke-width=".383"/><polyline points="26.017 63.845 26 63.672 25.839 62.047 25.76 61.735 25.716 61.574" fill="none" stroke="#221f20" stroke-linecap="round" stroke-linejoin="round" stroke-width=".383"/><polyline points="27.263 73.972 27.193 73.535 27.128 72.592 27.091 72.209 26.963 70.495 26.902 69.867 26.81 68.507 26.75 67.9 26.621 66.575 26.42 64.51" fill="none" stroke="#221f20" stroke-linecap="round" stroke-linejoin="round" stroke-width=".383"/><line x1="28.501" y1="46.329" x2="50.725" y2="43.637" fill="none" stroke="#221f20" stroke-linecap="round" stroke-linejoin="round" stroke-width=".383"/><line x1="62.126" y1="42.257" x2="82.433" y2="39.797" fill="none" stroke="#221f20" stroke-linecap="round" stroke-linejoin="round" stroke-width=".383"/><polyline points="29.539 60.519 28.495 48.195 28.45 47.667" fill="none" stroke="#221f20" stroke-linecap="round" stroke-linejoin="round" stroke-width=".383"/><line x1="50.329" y1="42.933" x2="61.647" y2="41.573" fill="none" stroke="#221f20" stroke-linecap="round" stroke-linejoin="round" stroke-width=".383"/><line x1="53.783" y1="49.256" x2="62.283" y2="48.157" fill="none" stroke="#221f20" stroke-linecap="round" stroke-linejoin="round" stroke-width=".383"/><line x1="53.775" y1="51.263" x2="62.216" y2="50.149" fill="none" stroke="#221f20" stroke-linecap="round" stroke-linejoin="round" stroke-width=".383"/><line x1="61.458" y1="51.059" x2="53.164" y2="52.163" fill="none" stroke="#221f20" stroke-linecap="round" stroke-linejoin="round" stroke-width=".383"/><line x1="60.92" y1="68.397" x2="53.135" y2="69.618" fill="none" stroke="#221f20" stroke-linecap="round" stroke-linejoin="round" stroke-width=".383"/><polyline points="29.539 60.519 27.522 53.161 26.425 40.917 26.313 40.544 26.278 40.397 26.24 40.185 26.206 39.939 26.18 39.697 26.055 38.306" fill="none" stroke="#221f20" stroke-linecap="round" stroke-linejoin="round" stroke-width=".383"/><polyline points="55.23 47.232 58.207 46.854 58.803 46.779" fill="none" stroke="#221f20" stroke-linecap="round" stroke-linejoin="round" stroke-width=".383"/><polyline points="60.578 45.57 62.283 48.157 62.216 50.149 61.458 51.059 61.302 56.073 61.032 64.823 60.92 68.397" fill="none" stroke="#221f20" stroke-linecap="round" stroke-linejoin="round" stroke-width=".383"/><line x1="52.296" y1="46.609" x2="54.686" y2="46.309" fill="none" stroke="#221f20" stroke-linecap="round" stroke-linejoin="round" stroke-width=".383"/><line x1="58.226" y1="45.865" x2="60.578" y2="45.57" fill="none" stroke="#221f20" stroke-linecap="round" stroke-linejoin="round" stroke-width=".383"/><polyline points="61.647 41.573 61.584 43.595 61.858 43.995 61.937 44.062 62.068 44.046 81.568 41.637 82.075 41.574 82.172 41.538 82.247 41.41 82.29 41.207 82.433 39.797 75.75 32.828 26.055 38.306" fill="none" stroke="#221f20" stroke-linecap="round" stroke-linejoin="round" stroke-width=".383"/><polyline points="61.647 41.573 62.126 42.257 62.085 43.534 62.079 43.694 62.056 43.9 62.006 44.03 61.937 44.062" fill="none" stroke="#221f20" stroke-linecap="round" stroke-linejoin="round" stroke-width=".383"/><polyline points="50.329 42.933 50.725 43.637 50.735 45.091 50.724 45.299 50.689 45.427 50.635 45.459 28.635 48.178 28.61 48.063 28.626 47.812 28.612 47.647 28.501 46.329 26.836 40.871 26.248 38.938 26.055 38.306" fill="none" stroke="#221f20" stroke-linecap="round" stroke-linejoin="round" stroke-width=".383"/><polyline points="81.57 41.612 81.568 41.637 80.406 53.399" fill="none" stroke="#221f20" stroke-linecap="round" stroke-linejoin="round" stroke-width=".383"/><polyline points="53.135 69.618 53.161 54.114 53.161 54.087 53.164 52.163 53.775 51.263 53.783 49.256 52.296 46.609" fill="none" stroke="#221f20" stroke-linecap="round" stroke-linejoin="round" stroke-width=".383"/><polyline points="52.201 57.347 49.93 57.665 48.759 57.829 48.695 57.838 43.714 58.535 43.001 58.635 42.514 58.703 42.459 58.71 37.393 59.42 36.835 59.498 36.453 59.552 36.116 59.598 30.964 60.319 30.565 60.375 30.292 60.413 29.926 60.465 29.539 60.519" fill="none" stroke="#221f20" stroke-linecap="round" stroke-linejoin="round" stroke-width=".383"/><polyline points="80.406 53.399 78.376 53.683 73.787 54.325 72.631 54.487 67.969 55.14 66.793 55.304 62.055 55.967 61.302 56.073" fill="none" stroke="#221f20" stroke-linecap="round" stroke-linejoin="round" stroke-width=".383"/><polyline points="52.296 46.609 52.217 65.904 52.413 66.955 52.512 67.484 52.755 68.784 53.135 69.618" fill="none" stroke="#221f20" stroke-linecap="round" stroke-linejoin="round" stroke-width=".383"/><polyline points="56.802 52.242 71.137 56.21 67.265 56.897 74.788 62.86 67.822 64.095 60.144 58.057 56.279 58.742 56.802 52.242" fill="#010101" stroke="#fff" stroke-linecap="round" stroke-linejoin="round" stroke-width=".767"/><path d="M70.462,34.127s-6.363-17.533,17.766-22.627" fill="none" stroke="#fff" stroke-linecap="round" stroke-linejoin="round" stroke-width="6.646"/><path d="M70.462,34.127s-6.363-17.533,17.766-22.627" fill="none" stroke="#a7a9ac" stroke-linecap="round" stroke-linejoin="round" stroke-width="4.984"/><path d="M64.589,34.576s-6.363-17.533,17.766-22.627" fill="none" stroke="#fff" stroke-linecap="round" stroke-linejoin="round" stroke-width="6.646"/><path d="M64.589,34.576s-6.363-17.533,17.766-22.627" fill="none" stroke="#a7a9ac" stroke-linecap="round" stroke-linejoin="round" stroke-width="4.984"/><path d="M58.072,35.652s-6.363-17.533,17.766-22.627c24.128-5.094,46.928-7.355,46.943-20.294" fill="none" stroke="#fff" stroke-linecap="round" stroke-linejoin="round" stroke-width="6.646"/><path d="M58.072,35.652s-6.363-17.533,17.766-22.627" fill="none" stroke="#a7a9ac" stroke-linecap="round" stroke-linejoin="round" stroke-width="4.984"/><path d="M52.226,36.343s-6.363-17.533,17.766-22.627c24.128-5.094,52.276-7.004,52.291-19.943" fill="none" stroke="#fff" stroke-linecap="round" stroke-linejoin="round" stroke-width="6.646"/><path d="M52.226,36.343s-6.363-17.533,17.766-22.627c24.128-5.094,52.276-7.004,52.291-19.943" fill="none" stroke="#d2d3d4" stroke-linecap="round" stroke-linejoin="round" stroke-width="4.984"/><path d="M46.381,37.033s-6.363-17.533,17.766-22.627" fill="none" stroke="#fff" stroke-linecap="round" stroke-linejoin="round" stroke-width="6.646"/><path d="M46.381,37.033s-6.363-17.533,17.766-22.627c24.128-5.094,59.416-6.695,58.066-19.564" fill="none" stroke="#a7a9ac" stroke-linecap="round" stroke-linejoin="round" stroke-width="4.984"/><path d="M40.307,37.924s-6.363-17.533,17.766-22.627c24.128-5.094,73.048-10.327,63.628-19.198" fill="none" stroke="#fff" stroke-linecap="round" stroke-linejoin="round" stroke-width="6.646"/><path d="M40.307,37.924s-6.363-17.533,17.766-22.627c24.128-5.094,73.048-10.327,63.628-19.198" fill="none" stroke="#a7a9ac" stroke-linecap="round" stroke-linejoin="round" stroke-width="4.984"/><path d="M34.247,38.6s-6.363-17.533,17.766-22.627c24.128-5.094,71.101-5.767,71.115-18.707" fill="none" stroke="#fff" stroke-linecap="round" stroke-linejoin="round" stroke-width="6.646"/><path d="M34.247,38.6s-6.363-17.533,17.766-22.627c24.128-5.094,71.101-5.767,71.115-18.707" fill="none" stroke="#a7a9ac" stroke-linecap="round" stroke-linejoin="round" stroke-width="4.984"/><polyline points="60.674 18.826 60.549 38.644 49.74 39.906 49.868 20.091 46.138 20.532 55.594 9.547 64.407 18.392 60.674 18.826" fill="#010101" stroke="#fff" stroke-linecap="round" stroke-linejoin="round" stroke-width=".959"/></g><circle cx="53.407" cy="48.945" r="44.157" fill="none" stroke="#fff" stroke-miterlimit="10" stroke-width="4"/><circle cx="53.407" cy="48.945" r="44.157" fill="none" stroke="#221f20" stroke-miterlimit="10"/><path d="M83.496,73.604c0,4.509-3.709,8.162-8.284,8.162s-8.286-3.654-8.286-8.162,3.709-8.168,8.286-8.168,8.284,3.658,8.284,8.168" fill="#211f1f" stroke="#fff" stroke-miterlimit="10" stroke-width="1.089"/><path d="M76.688,75.693c-.406.345-.797.589-1.173.731s-.778.213-1.209.213c-.711,0-1.257-.173-1.638-.521s-.572-.791-.572-1.33c0-.317.072-.606.216-.868s.333-.472.566-.63c.234-.158.496-.278.788-.359.215-.056.54-.112.974-.164.886-.105,1.536-.231,1.955-.377.004-.151.006-.246.006-.287,0-.446-.103-.761-.311-.944-.28-.248-.697-.371-1.248-.371-.515,0-.896.09-1.142.271-.245.182-.427.5-.545.959l-1.072-.146c.097-.459.258-.829.481-1.11.223-.283.545-.5.968-.652.422-.153.911-.228,1.467-.228.552,0,1.001.065,1.346.195s.599.293.761.491c.163.196.276.446.341.746.037.187.055.524.055,1.011v1.461c0,1.019.024,1.663.07,1.933s.139.528.277.776h-1.145c-.114-.227-.187-.494-.219-.798h.002ZM76.596,73.245c-.398.162-.994.3-1.79.414-.451.065-.769.138-.956.22-.187.081-.331.2-.433.357s-.152.33-.152.521c0,.292.11.536.332.731s.545.292.971.292c.423,0,.798-.092,1.127-.277.329-.185.57-.437.725-.758.118-.248.177-.613.177-1.097v-.401h0Z" fill="#fff"/><line x1="80.884" y1="50.229" x2="97.45" y2="47.866" fill="none" stroke="#221f20" stroke-miterlimit="10" stroke-width=".454"/><line x1="16.106" y1="71.614" x2="26.299" y2="70.219" fill="none" stroke="#221f20" stroke-miterlimit="10" stroke-width=".454"/><polygon points="30.263 39.125 49.198 36.801 49.267 40.151 31.084 42.338 30.263 39.125" fill="#bdbec0"/><polygon points="61.535 35.708 76.918 34.577 79.091 37.791 62.356 38.92 61.535 35.708" fill="#bdbec0"/><path d="M80.347,29.554c0,4.509-3.709,8.162-8.284,8.162s-8.286-3.654-8.286-8.162,3.709-8.168,8.286-8.168,8.284,3.658,8.284,8.168" fill="#211f1f" stroke="#fff" stroke-miterlimit="10" stroke-width="1.089"/><path d="M70.977,33.477h-1.016v-8.927h1.096v3.185c.463-.581,1.053-.87,1.772-.87.397,0,.774.08,1.129.24s.648.386.877.675c.229.29.409.64.539,1.051.13.41.195.848.195,1.315,0,1.108-.274,1.964-.822,2.57-.548.604-1.206.907-1.973.907-.763,0-1.362-.319-1.797-.956v.81h0ZM70.965,30.195c0,.775.105,1.336.316,1.681.345.563.812.846,1.401.846.478,0,.893-.208,1.242-.624.349-.416.523-1.037.523-1.86,0-.844-.168-1.467-.502-1.869-.335-.401-.74-.603-1.214-.603-.479,0-.893.209-1.242.625-.349.416-.524,1.018-.524,1.806h0Z" fill="#fff"/><polyline points="166.2 45.312 166.086 68.077 154.07 72.195 154.187 49.433 150.04 50.86 160.54 35.923 170.35 43.892 166.2 45.312" fill="#010101" stroke="#fff" stroke-linecap="round" stroke-linejoin="round" stroke-width="1.083"/><path d="M31.078,19.612c0,7.593-6.246,13.745-13.95,13.745S3.176,27.205,3.176,19.612s6.246-13.755,13.953-13.755,13.95,6.159,13.95,13.755" fill="#221f1f" stroke="#fff" stroke-miterlimit="10" stroke-width="1.5"/><rect x="3.127" y="11.618" width="27.228" height="24.791" fill="none"/><path d="M18.725,26.653h-1.846v-11.761c-.444.424-1.027.848-1.749,1.271s-1.369.742-1.943.954v-1.784c1.032-.485,1.935-1.073,2.707-1.764s1.319-1.36,1.641-2.01h1.189v15.094Z" fill="#fff"/></g></svg>