<?xml version="1.0" encoding="UTF-8"?><svg xmlns="http://www.w3.org/2000/svg" width="5.5in" height="3.75in" xmlns:xlink="http://www.w3.org/1999/xlink" viewBox="0 0 396 270"><defs><clipPath id="c"><circle cx="60.468" cy="61.382" r="57.765" fill="none"/></clipPath></defs><g id="a"><path d="M132.608,157.602l-8.594,4.319s-3.196.302-6.089-4.362c0,0-3.412-6.133-.302-7.86l7.733-3.096s.538-2.877-1.672-3.711l-26.897-15.804s-2.294-.542-6.047.417l-21.976,8.924s-1.126-.417-1.334-1.71l-24.294-15.733.559,4.563-6.119,1.846-1.371.844-.897-.686-1.213-7.015s-.422-3.27,2.479-3.745l172.482-63.138,1.424-.633,19.886-3.007s1.635.053,3.112.527,47.578,15.613,47.578,15.613l-.369.316,13.345,4.589,8.09-3.762,1.934.829s2.671-2.118,6.815-2.671l80.301,26.153-.184,1.381,1.658.829-3.776,2.21s-1.934,10.038-3.776,11.972l-187.822,118.038v-1.365l-5.914,3.943s-3.226,1.649-4.588.358l.247-10.841s.301-1.657,3.313-1.657l1.355-.602-50.603-32.531,23.344-11.597s1.176-1.125,1.176-1.738c0,0-.665-1.687-2.761-2.352l-26.842-15.594s-.971-.237-.851,1.1l.263,6.878-.525.908-2.275-1.348ZM263.691,69.578c1.346.414,2.225.311,2.225.311l3.364-1.449s-35.918-12.732-36.694-12.939-1.346-.155-1.346-.155l-5.227.828,37.678,13.405Z" fill="#d1d3d4"/><path d="M188.8,263.347l194.963-132.687,10.259-38.795-.543-.515-201.736,122.478s-.896.629-2.178.736-2.458.641-2.672,1.603v11.007s1.71,1.175,4.809-.748,5.557-3.42,5.557-3.42" fill="none" stroke="#000" stroke-miterlimit="10" stroke-width=".5"/><path d="M191.742,213.827l-50.613-32.441,23.164-11.55s3.361-2.816.818-5.269l-67.311-38.697s-2.089-1.726-7.267-.182l-23.073,9.084-31.975-20.62,173.593-62.497h1.453l67.766,24.345,23.709-10.628,1.964.65,84.893,28.108c-.214,3.847-3.74,11.755-3.74,11.755l-187.719,117.94s.143,2.211-.143,3.852-1.141,2.354-1.141,2.354l-6.562,4.137-3.495.499" fill="none" stroke="#000" stroke-miterlimit="10" stroke-width=".5"/><path d="M304.457,65.734c.908-.727,6.177-2.271,6.177-2.271l80.801,26.192s-.5.333-.5,1.242l1.453.727" fill="none" stroke="#000" stroke-linecap="round" stroke-linejoin="round" stroke-width=".5"/><path d="M209.48,51.486l20.392-3.432s1.593-.228,3.716.455,47.473,15.698,47.473,15.698l-2.678,1.218s-.751.375,0,.657,10.983,3.943,10.983,3.943c0,0,.626.313.626.657" fill="none" stroke="#000" stroke-linecap="round" stroke-linejoin="round" stroke-width=".5"/><path d="M266.581,69.843l11.99-5.356-45.726-15.33s-.915-.288-2.877.118l-15.728,2.447,50.854,18.095s1.001.168,1.487.027Z" fill="none" stroke="#000" stroke-linecap="round" stroke-linejoin="round" stroke-width=".5"/><line x1="281.228" y1="64.55" x2="293.558" y2="68.859" fill="none" stroke="#000" stroke-linecap="round" stroke-linejoin="round" stroke-width=".5"/><path d="M227.038,56.012l4.01-.67s.685-.171,1.541.114,36.47,12.899,36.47,12.899" fill="none" stroke="#000" stroke-linecap="round" stroke-linejoin="round" stroke-width=".5"/><path d="M35.354,115.193s-1.654,1.007-1.294,3.236l1.223,7.192.863.647,1.294-.863,5.753-1.726" fill="none" stroke="#000" stroke-linecap="round" stroke-linejoin="round" stroke-width=".5"/><path d="M43.336,119.652l1.151,10.356s.647,2.373-1.223,3.02l-4.962,1.798s-1.51.791-1.582,2.086l2.877,19.058s1.223,0,1.726-.503l.575,2.589" fill="none" stroke="#000" stroke-linecap="round" stroke-linejoin="round" stroke-width=".5"/><path d="M125.317,146.348s.478-2.392-1.356-3.349l-27.114-15.79s-2.871-.877-6.061.319l-22.159,8.921s-1.061-.289-1.169-1.677" fill="none" stroke="#000" stroke-linecap="round" stroke-linejoin="round" stroke-width=".5"/><path d="M117.786,149.662l9.785-4.067s4.594.48,6.008,7.83c0,0,.473,3.113-1.064,4.242l2.332,1.278.543-.894-.256-7.156c0-1.214.958-.834.958-.834l25.155,14.694c3.549,1.93,4.234,3.051,4.234,3.051" fill="none" stroke="#000" stroke-linecap="round" stroke-linejoin="round" stroke-width=".5"/><path d="M130.371,158.764s2.95-7.566-5.135-12.202" fill="none" stroke="#000" stroke-linecap="round" stroke-linejoin="round" stroke-width=".5"/><line x1="124.08" y1="161.907" x2="132.515" y2="157.668" fill="none" stroke="#000" stroke-linecap="round" stroke-linejoin="round" stroke-width=".5"/><path d="M124.4,161.545c-1.743,1.006-4.666-.794-6.528-4.02s-2.01-6.819-.267-7.826,4.716.955,6.578,4.182,1.96,6.657.217,7.664Z" fill="none" stroke="#000" stroke-linecap="round" stroke-linejoin="round" stroke-width=".5"/><path d="M122.622,159.229c-.986.57-2.689-.532-3.802-2.461s-1.247-4.05-.261-4.619,2.719.628,3.833,2.557,1.216,3.953.23,4.523Z" fill="none" stroke="#000" stroke-linecap="round" stroke-linejoin="round" stroke-width=".5"/><path d="M63.293,144.282l-19.977,8.638,2.832,2.266s1.141.866-.393,1.574l-5.232,2.203-.039.629,5.783,4.288h1.495l6.216-2.439s1.102-.354,1.574.433c0,0,.197.433-.433.747l-5.862,2.597-.157.669,12.314,9.285,1.534.079,6.255-2.99s1.023-.157,1.416.275-.157.59-.157.59l-6.255,3.069-.157.787,6.57,4.878h1.534l6.137-2.793s1.574-.511,2.085.787c0,0,.079.551-.787.984s-5.586,2.636-5.586,2.636l.079.747,13.573,10.229,1.81.039,5.586-2.911,1.613-.039,15.264,11.055s.551.511.118.826-6.059,3.305-6.059,3.305l-.197.787,7.75,5.941,1.731-.039,6.373-3.265s1.338-.511,2.046.433c0,0,.629.59-.551,1.259s-5.822,3.226-5.822,3.226v.866l16.169,12.156h1.849l6.452-3.659s1.298-.393,2.006.551l-.079.669-6.491,3.973-.118.984,8.655,6.491,1.928.157,5.98-3.737s1.652-.629,2.833.551-1.141,2.124-1.141,2.124l-4.957,3.108-.118.984,18.844,13.927,1.692.079,6.609-4.17s.984-.079,1.692.433l5.075,3.619,1.102.039" fill="none" stroke="#000" stroke-linecap="round" stroke-linejoin="round" stroke-width=".5"/><path d="M150.326,240.4l-.042,1.72,18.844,13.927,1.692.079,6.609-4.17s.984-.079,1.692.433l5.075,3.619,1.102.039" fill="none" stroke="#000" stroke-linecap="round" stroke-linejoin="round" stroke-width=".5"/><path d="M137.097,230.61l.008,1.833,8.655,6.491,1.928.157,5.98-3.737s1.394-.883,2.574.297" fill="none" stroke="#000" stroke-linecap="round" stroke-linejoin="round" stroke-width=".5"/><path d="M117.338,215.995l-.022,1.773,16.169,12.156h1.849l6.452-3.659s.322-.098.733-.079" fill="none" stroke="#000" stroke-linecap="round" stroke-linejoin="round" stroke-width=".5"/><path d="M105.773,207.564l.016,1.785,7.75,5.941,1.731-.039,6.373-3.265s.594-.227,1.199-.099" fill="none" stroke="#000" stroke-linecap="round" stroke-linejoin="round" stroke-width=".5"/><polyline points="74.077 184.253 74.08 186.059 87.653 196.288 89.463 196.327 95.049 193.416 96.662 193.377 111.259 203.835" fill="none" stroke="#000" stroke-linecap="round" stroke-linejoin="round" stroke-width=".5"/><path d="M64.092,177.032l-.044,1.789,6.57,4.878h1.534l6.137-2.793s.46-.149.963-.082" fill="none" stroke="#000" stroke-linecap="round" stroke-linejoin="round" stroke-width=".5"/><polyline points="49.111 165.982 49.098 167.726 61.412 177.011 62.947 177.089 64.16 176.268" fill="none" stroke="#000" stroke-linecap="round" stroke-linejoin="round" stroke-width=".5"/><polyline points="40.474 159.571 40.483 161.432 46.266 165.72 47.761 165.72 49.356 165.153" fill="none" stroke="#000" stroke-linecap="round" stroke-linejoin="round" stroke-width=".5"/><line x1="82.402" y1="136.019" x2="76.123" y2="138.734" fill="none" stroke="#000" stroke-linecap="round" stroke-linejoin="round" stroke-width=".5"/><path d="M186.061,234.666l-.832,27.436s1.63.994,3.597-.317" fill="none" stroke="#000" stroke-linecap="round" stroke-linejoin="round" stroke-width=".5"/><path d="M186.723,262.672l1.056.752s.694.289,1.273-.058" fill="none" stroke="#000" stroke-linecap="round" stroke-linejoin="round" stroke-width=".5"/><line x1="174.297" y1="253.819" x2="184.868" y2="261.35" fill="none" stroke="#000" stroke-linecap="round" stroke-linejoin="round" stroke-width=".5"/><line x1="129.084" y1="159.59" x2="129.856" y2="181.102" fill="none" stroke="#000" stroke-linecap="round" stroke-linejoin="round" stroke-width=".5"/><line x1="134.847" y1="158.946" x2="135.451" y2="178.401" fill="none" stroke="#000" stroke-linecap="round" stroke-linejoin="round" stroke-width=".5"/><line x1="193.858" y1="225.441" x2="197.26" y2="227.676" fill="none" stroke="#000" stroke-linecap="round" stroke-linejoin="round" stroke-width=".5"/><path d="M186.346,220.507l-57.937-38.055,15.724-8.2,3.185,1.693s1.155-1.395,2.454-1.876l-.241-15.972" fill="none" stroke="#000" stroke-linecap="round" stroke-linejoin="round" stroke-width=".5"/><polyline points="128.409 182.452 128.556 189.721 192.299 232.239" fill="none" stroke="#000" stroke-linecap="round" stroke-linejoin="round" stroke-width=".5"/><line x1="153.379" y1="160.31" x2="153.427" y2="175.176" fill="none" stroke="#000" stroke-linecap="round" stroke-linejoin="round" stroke-width=".5"/><line x1="154.726" y1="160.984" x2="154.871" y2="174.358" fill="none" stroke="#000" stroke-linecap="round" stroke-linejoin="round" stroke-width=".5"/><polyline points="114.486 137.627 114.528 139.175 86.961 151.264 81.565 147.75 80.561 137.041 86.041 140.576 86.961 150.908" fill="none" stroke="#000" stroke-linecap="round" stroke-linejoin="round" stroke-width=".5"/><polyline points="84.912 129.972 87.631 131.603 97.419 127.587" fill="none" stroke="#000" stroke-linecap="round" stroke-linejoin="round" stroke-width=".5"/><polyline points="82.109 130.997 82.485 136.351 87.924 139.739 87.631 131.603" fill="none" stroke="#000" stroke-linecap="round" stroke-linejoin="round" stroke-width=".5"/><line x1="86.041" y1="140.576" x2="87.924" y2="139.739" fill="none" stroke="#000" stroke-linecap="round" stroke-linejoin="round" stroke-width=".5"/><polygon points="64.05 147.749 63.078 138.562 64.974 139.826 65.849 149.062 64.05 147.749" fill="none" stroke="#000" stroke-linecap="round" stroke-linejoin="round" stroke-width=".5"/><polyline points="65.022 139.583 75.571 135.305 76.348 144.59 65.849 149.062" fill="none" stroke="#000" stroke-linecap="round" stroke-linejoin="round" stroke-width=".5"/><line x1="63.078" y1="138.562" x2="68.279" y2="136.278" fill="none" stroke="#000" stroke-linecap="round" stroke-linejoin="round" stroke-width=".5"/><line x1="75.571" y1="135.305" x2="73.966" y2="134.285" fill="none" stroke="#000" stroke-linecap="round" stroke-linejoin="round" stroke-width=".5"/><path d="M278.117,92.079l-4.307-1.661c-.206-.079-.229-.248-.051-.375l.76-.542c.178-.127.492-.166.698-.086l4.307,1.661c.206.079.229.248.051.375l-.76.542c-.178.127-.492.166-.698.086Z" fill="none" stroke="#000" stroke-linecap="round" stroke-linejoin="round" stroke-width=".5"/><path d="M288.228,95.979l-4.307-1.661c-.206-.079-.229-.248-.051-.375l.76-.542c.178-.127.492-.166.698-.086l4.307,1.661c.206.079.229.248.051.375l-.76.542c-.178.127-.492.166-.698.086Z" fill="none" stroke="#000" stroke-linecap="round" stroke-linejoin="round" stroke-width=".5"/><path d="M298.339,99.878l-4.307-1.661c-.206-.079-.229-.248-.051-.375l.76-.542c.178-.127.492-.166.698-.086l4.307,1.661c.206.079.229.248.051.375l-.76.542c-.178.127-.492.166-.698.086Z" fill="none" stroke="#000" stroke-linecap="round" stroke-linejoin="round" stroke-width=".5"/><path d="M308.449,103.778l-4.307-1.661c-.206-.079-.229-.248-.051-.375l.76-.542c.178-.127.492-.166.698-.086l4.307,1.661c.206.079.229.248.051.375l-.76.542c-.178.127-.492.166-.698.086Z" fill="none" stroke="#000" stroke-linecap="round" stroke-linejoin="round" stroke-width=".5"/><path d="M318.56,107.677l-4.307-1.661c-.206-.079-.229-.248-.051-.375l.76-.542c.178-.127.492-.166.698-.086l4.307,1.661c.206.079.229.248.051.375l-.76.542c-.178.127-.492.166-.698.086Z" fill="none" stroke="#000" stroke-linecap="round" stroke-linejoin="round" stroke-width=".5"/><path d="M328.671,111.577l-4.307-1.661c-.206-.079-.229-.248-.051-.375l.76-.542c.178-.127.492-.166.698-.086l4.307,1.661c.206.079.229.248.051.375l-.76.542c-.178.127-.492.166-.698.086Z" fill="none" stroke="#000" stroke-linecap="round" stroke-linejoin="round" stroke-width=".5"/><path d="M272.302,95.448l-4.307-1.661c-.206-.079-.229-.248-.051-.375l.76-.542c.178-.127.492-.166.698-.086l4.307,1.661c.206.079.229.248.051.375l-.76.542c-.178.127-.492.166-.698.086Z" fill="none" stroke="#000" stroke-linecap="round" stroke-linejoin="round" stroke-width=".5"/><path d="M282.413,99.348l-4.307-1.661c-.206-.079-.229-.248-.051-.375l.76-.542c.178-.127.492-.166.698-.086l4.307,1.661c.206.079.229.248.051.375l-.76.542c-.178.127-.492.166-.698.086Z" fill="none" stroke="#000" stroke-linecap="round" stroke-linejoin="round" stroke-width=".5"/><path d="M292.523,103.247l-4.307-1.661c-.206-.079-.229-.248-.051-.375l.76-.542c.178-.127.492-.166.698-.086l4.307,1.661c.206.079.229.248.051.375l-.76.542c-.178.127-.492.166-.698.086Z" fill="none" stroke="#000" stroke-linecap="round" stroke-linejoin="round" stroke-width=".5"/><path d="M302.634,107.147l-4.307-1.661c-.206-.079-.229-.248-.051-.375l.76-.542c.178-.127.492-.166.698-.086l4.307,1.661c.206.079.229.248.051.375l-.76.542c-.178.127-.492.166-.698.086Z" fill="none" stroke="#000" stroke-linecap="round" stroke-linejoin="round" stroke-width=".5"/><path d="M312.745,111.046l-4.307-1.661c-.206-.079-.229-.248-.051-.375l.76-.542c.178-.127.492-.166.698-.086l4.307,1.661c.206.079.229.248.051.375l-.76.542c-.178.127-.492.166-.698.086Z" fill="none" stroke="#000" stroke-linecap="round" stroke-linejoin="round" stroke-width=".5"/><path d="M322.855,114.946l-4.307-1.661c-.206-.079-.229-.248-.051-.375l.76-.542c.178-.127.492-.166.698-.086l4.307,1.661c.206.079.229.248.051.375l-.76.542c-.178.127-.492.166-.698.086Z" fill="none" stroke="#000" stroke-linecap="round" stroke-linejoin="round" stroke-width=".5"/><path d="M199.83,62.071l-3.41-1.316c-.163-.063-.174-.19-.025-.282l.638-.393c.149-.092.405-.116.568-.053l3.41,1.316c.163.063.174.19.025.282l-.638.393c-.149.092-.405.116-.568.053Z" fill="none" stroke="#000" stroke-linecap="round" stroke-linejoin="round" stroke-width=".5"/><path d="M207.834,65.161l-3.41-1.316c-.163-.063-.174-.19-.025-.282l.638-.393c.149-.092.405-.116.568-.053l3.41,1.316c.163.063.174.19.025.282l-.638.393c-.149.092-.405.116-.568.053Z" fill="none" stroke="#000" stroke-linecap="round" stroke-linejoin="round" stroke-width=".5"/><path d="M215.838,68.252l-3.41-1.316c-.163-.063-.174-.19-.025-.282l.638-.393c.149-.092.405-.116.568-.053l3.41,1.316c.163.063.174.19.025.282l-.638.393c-.149.092-.405.116-.568.053Z" fill="none" stroke="#000" stroke-linecap="round" stroke-linejoin="round" stroke-width=".5"/><path d="M223.843,71.342l-3.41-1.316c-.163-.063-.174-.19-.025-.282l.638-.393c.149-.092.405-.116.568-.053l3.41,1.316c.163.063.174.19.025.282l-.638.393c-.149.092-.405.116-.568.053Z" fill="none" stroke="#000" stroke-linecap="round" stroke-linejoin="round" stroke-width=".5"/><path d="M231.847,74.432l-3.41-1.316c-.163-.063-.174-.19-.025-.282l.638-.393c.149-.092.405-.116.568-.053l3.41,1.316c.163.063.174.19.025.282l-.638.393c-.149.092-.405.116-.568.053Z" fill="none" stroke="#000" stroke-linecap="round" stroke-linejoin="round" stroke-width=".5"/><path d="M239.851,77.522l-3.41-1.316c-.163-.063-.174-.19-.025-.282l.638-.393c.149-.092.405-.116.568-.053l3.41,1.316c.163.063.174.19.025.282l-.638.393c-.149.092-.405.116-.568.053Z" fill="none" stroke="#000" stroke-linecap="round" stroke-linejoin="round" stroke-width=".5"/><path d="M193.844,65.054l-3.374-1.294c-.161-.062-.177-.174-.035-.25l.607-.323c.142-.076.39-.087.551-.025l3.374,1.294c.161.062.177.174.035.25l-.607.323c-.142.076-.39.087-.551.025Z" fill="none" stroke="#000" stroke-linecap="round" stroke-linejoin="round" stroke-width=".5"/><path d="M201.765,68.092l-3.374-1.294c-.161-.062-.177-.174-.035-.25l.607-.323c.142-.076.39-.087.551-.025l3.374,1.294c.161.062.177.174.035.25l-.607.323c-.142.076-.39.087-.551.025Z" fill="none" stroke="#000" stroke-linecap="round" stroke-linejoin="round" stroke-width=".5"/><path d="M209.686,71.13l-3.374-1.294c-.161-.062-.177-.174-.035-.25l.607-.323c.142-.076.39-.087.551-.025l3.374,1.294c.161.062.177.174.035.25l-.607.323c-.142.076-.39.087-.551.025Z" fill="none" stroke="#000" stroke-linecap="round" stroke-linejoin="round" stroke-width=".5"/><path d="M217.607,74.168l-3.374-1.294c-.161-.062-.177-.174-.035-.25l.607-.323c.142-.076.39-.087.551-.025l3.374,1.294c.161.062.177.174.035.25l-.607.323c-.142.076-.39.087-.551.025Z" fill="none" stroke="#000" stroke-linecap="round" stroke-linejoin="round" stroke-width=".5"/><path d="M225.527,77.205l-3.374-1.294c-.161-.062-.177-.174-.035-.25l.607-.323c.142-.076.39-.087.551-.025l3.374,1.294c.161.062.177.174.035.25l-.607.323c-.142.076-.39.087-.551.025Z" fill="none" stroke="#000" stroke-linecap="round" stroke-linejoin="round" stroke-width=".5"/><path d="M233.448,80.243l-3.374-1.294c-.161-.062-.177-.174-.035-.25l.607-.323c.142-.076.39-.087.551-.025l3.374,1.294c.161.062.177.174.035.25l-.607.323c-.142.076-.39.087-.551.025Z" fill="none" stroke="#000" stroke-linecap="round" stroke-linejoin="round" stroke-width=".5"/><line x1="119.887" y1="149.679" x2="125.797" y2="147.19" fill="none" stroke="#000" stroke-linecap="round" stroke-linejoin="round" stroke-width=".5"/><line x1="120.888" y1="150.266" x2="126.798" y2="147.777" fill="none" stroke="#000" stroke-linecap="round" stroke-linejoin="round" stroke-width=".5"/><line x1="121.751" y1="150.991" x2="127.661" y2="148.502" fill="none" stroke="#000" stroke-linecap="round" stroke-linejoin="round" stroke-width=".5"/><line x1="122.546" y1="151.75" x2="128.455" y2="149.262" fill="none" stroke="#000" stroke-linecap="round" stroke-linejoin="round" stroke-width=".5"/><line x1="123.34" y1="152.579" x2="129.25" y2="150.091" fill="none" stroke="#000" stroke-linecap="round" stroke-linejoin="round" stroke-width=".5"/><line x1="123.927" y1="153.546" x2="129.837" y2="151.058" fill="none" stroke="#000" stroke-linecap="round" stroke-linejoin="round" stroke-width=".5"/><line x1="124.597" y1="154.57" x2="130.355" y2="152.163" fill="none" stroke="#000" stroke-linecap="round" stroke-linejoin="round" stroke-width=".5"/><line x1="125.081" y1="155.847" x2="130.7" y2="153.44" fill="none" stroke="#000" stroke-linecap="round" stroke-linejoin="round" stroke-width=".5"/><line x1="125.495" y1="157.229" x2="130.942" y2="154.787" fill="none" stroke="#000" stroke-linecap="round" stroke-linejoin="round" stroke-width=".5"/><line x1="125.633" y1="158.575" x2="130.907" y2="156.203" fill="none" stroke="#000" stroke-linecap="round" stroke-linejoin="round" stroke-width=".5"/><line x1="125.426" y1="160.026" x2="130.7" y2="157.584" fill="none" stroke="#000" stroke-linecap="round" stroke-linejoin="round" stroke-width=".5"/><line x1="120.427" y1="154.01" x2="120.557" y2="157.571" fill="none" stroke="#000" stroke-linecap="round" stroke-linejoin="round" stroke-width=".5"/><line x1="119.231" y1="154.972" x2="121.831" y2="156.584" fill="none" stroke="#000" stroke-linecap="round" stroke-linejoin="round" stroke-width=".5"/></g><g id="b"><circle cx="60.468" cy="61.382" r="57.765" fill="#fff"/><path d="M42.738,49.459l5.832-8.553,2.721-1.944s7.698-8.164,18.273-3.966c0,0,13.141,4.821,9.642,19.828,0,0-.7,3.421-1.011,4.277l-5.054,7.698s-7.62,12.441-23.56,6.065c0,0-14.852-7.931-6.843-23.405Z" fill="#d1d3d4"/><g clip-path="url(#c)"><ellipse cx="57.862" cy="58.51" rx="16.355" ry="17.603" transform="translate(-7.921 107.946) rotate(-82.244)" fill="none" stroke="#000" stroke-linecap="round" stroke-linejoin="round" stroke-width=".5"/><ellipse cx="57.475" cy="59.119" rx="9.172" ry="9.986" transform="translate(-18.743 90.571) rotate(-68.232)" fill="none" stroke="#000" stroke-miterlimit="10" stroke-width=".5"/><path d="M51.492,38.837c3.542-3.391,8.736-5.555,14.034-4.833,9.125,1.243,15.535,9.506,14.316,18.455-.104.761-.259,1.503-.463,2.222" fill="none" stroke="#000" stroke-linecap="round" stroke-linejoin="round" stroke-width=".5"/><path d="M42.691,49.849l5.833-8.771c3.995-3.721,9.945-5.523,16.064-4.32,9.695,1.906,16.143,10.636,14.401,19.498-.096.486-.214.963-.354,1.429-.129.43-.276.852-.441,1.264l-5.007,8.044" fill="none" stroke="#000" stroke-linecap="round" stroke-linejoin="round" stroke-width=".5"/><line x1="57.076" y1="53.725" x2="57.337" y2="64.857" fill="none" stroke="#000" stroke-miterlimit="10" stroke-width=".5"/><line x1="51.797" y1="59.108" x2="63.243" y2="60.153" fill="none" stroke="#000" stroke-miterlimit="10" stroke-width=".5"/><line x1="61.716" y1="36.375" x2="57.405" y2="41.901" fill="none" stroke="#000" stroke-linecap="round" stroke-linejoin="round" stroke-width=".5"/><line x1="59.638" y1="36.617" x2="55.327" y2="42.143" fill="none" stroke="#000" stroke-linecap="round" stroke-linejoin="round" stroke-width=".5"/><line x1="57.898" y1="36.713" x2="53.625" y2="42.429" fill="none" stroke="#000" stroke-linecap="round" stroke-linejoin="round" stroke-width=".5"/><line x1="55.868" y1="37.148" x2="51.654" y2="42.961" fill="none" stroke="#000" stroke-linecap="round" stroke-linejoin="round" stroke-width=".5"/><line x1="53.694" y1="37.873" x2="49.371" y2="43.93" fill="none" stroke="#000" stroke-linecap="round" stroke-linejoin="round" stroke-width=".5"/><line x1="51.519" y1="38.888" x2="46.618" y2="45.557" fill="none" stroke="#000" stroke-linecap="round" stroke-linejoin="round" stroke-width=".5"/><line x1="63.448" y1="36.704" x2="59.505" y2="41.901" fill="none" stroke="#000" stroke-linecap="round" stroke-linejoin="round" stroke-width=".5"/><line x1="65.356" y1="36.986" x2="61.133" y2="42.366" fill="none" stroke="#000" stroke-linecap="round" stroke-linejoin="round" stroke-width=".5"/><line x1="67.077" y1="37.549" x2="62.986" y2="42.785" fill="none" stroke="#000" stroke-linecap="round" stroke-linejoin="round" stroke-width=".5"/><line x1="68.735" y1="38.206" x2="64.793" y2="43.492" fill="none" stroke="#000" stroke-linecap="round" stroke-linejoin="round" stroke-width=".5"/><line x1="70.557" y1="38.972" x2="66.482" y2="44.337" fill="none" stroke="#000" stroke-linecap="round" stroke-linejoin="round" stroke-width=".5"/><line x1="72.103" y1="40.277" x2="68.203" y2="45.276" fill="none" stroke="#000" stroke-linecap="round" stroke-linejoin="round" stroke-width=".5"/><line x1="73.709" y1="41.396" x2="69.798" y2="46.527" fill="none" stroke="#000" stroke-linecap="round" stroke-linejoin="round" stroke-width=".5"/><line x1="74.835" y1="42.71" x2="70.956" y2="47.716" fill="none" stroke="#000" stroke-linecap="round" stroke-linejoin="round" stroke-width=".5"/><line x1="76.066" y1="43.901" x2="72.145" y2="48.967" fill="none" stroke="#000" stroke-linecap="round" stroke-linejoin="round" stroke-width=".5"/><line x1="77.081" y1="45.641" x2="73.239" y2="50.687" fill="none" stroke="#000" stroke-linecap="round" stroke-linejoin="round" stroke-width=".5"/><line x1="77.854" y1="47.187" x2="74.022" y2="52.158" fill="none" stroke="#000" stroke-linecap="round" stroke-linejoin="round" stroke-width=".5"/><line x1="78.536" y1="48.773" x2="74.647" y2="53.722" fill="none" stroke="#000" stroke-linecap="round" stroke-linejoin="round" stroke-width=".5"/><line x1="79.014" y1="50.57" x2="75.116" y2="55.536" fill="none" stroke="#000" stroke-linecap="round" stroke-linejoin="round" stroke-width=".5"/><line x1="79.207" y1="52.454" x2="75.408" y2="57.319" fill="none" stroke="#000" stroke-linecap="round" stroke-linejoin="round" stroke-width=".5"/><line x1="79.207" y1="54.532" x2="75.554" y2="59.384" fill="none" stroke="#000" stroke-linecap="round" stroke-linejoin="round" stroke-width=".5"/><line x1="78.869" y1="56.67" x2="75.127" y2="62.128" fill="none" stroke="#000" stroke-linecap="round" stroke-linejoin="round" stroke-width=".5"/><path d="M212.861,74.878l-1.22-26.464c0-8.248-13.024-9.117-13.024-9.117L-56.421,19.913s-10.284-.364-17.968,3.478l-36.495,21.342-62.558-5.95" fill="none" stroke="#000" stroke-linecap="round" stroke-linejoin="round" stroke-width=".5"/><path d="M212.358,79.27s-.412-5.353,4.117-5.353l91.201,8.029" fill="none" stroke="#000" stroke-linecap="round" stroke-linejoin="round" stroke-width=".5"/><path d="M-107.01,49.367l34.188-20.46s4.853-4.402,18.51-3.386,95.938,7.901,95.938,7.901c0,0,5.192,0,5.531,5.079l-.339,4.74" fill="none" stroke="#000" stroke-linecap="round" stroke-linejoin="round" stroke-width=".5"/><path d="M209.318,51.626c-1.035-4.311-13.106-6.208-13.106-6.208l-107.264-8.45c-5.863-.517-5.173,2.759-5.173,2.759l-.517,18.107c-.345,5.691-4.311,5.518-4.311,5.518l-2.932-.172-.517,58.805" fill="none" stroke="#000" stroke-linecap="round" stroke-linejoin="round" stroke-width=".5"/><line x1="56.7" y1="75.596" x2="55.665" y2="132.677" fill="none" stroke="#000" stroke-linecap="round" stroke-linejoin="round" stroke-width=".5"/><polyline points="72.91 127.158 83.947 104.395 87.569 104.912 117.23 39.209" fill="none" stroke="#000" stroke-linecap="round" stroke-linejoin="round" stroke-width=".5"/><polyline points="88.948 36.967 87.876 66.978 86.534 104.568" fill="none" stroke="#000" stroke-linecap="round" stroke-linejoin="round" stroke-width=".5"/><line x1="103.434" y1="38.175" x2="87.876" y2="66.978" fill="none" stroke="#000" stroke-linecap="round" stroke-linejoin="round" stroke-width=".5"/><polyline points="-57.795 25.965 -56.224 49.526 39.064 58.426" fill="none" stroke="#000" stroke-linecap="round" stroke-linejoin="round" stroke-width=".5"/><path d="M-50.388,25.973s-.846,16.077,12.269,19.038l65.998,5.923s15.858,2.84,13.746-17.512" fill="none" stroke="#000" stroke-linecap="round" stroke-linejoin="round" stroke-width=".5"/><polyline points="53.614 75 40.9 73.411 38.516 70.709 41.377 65.465" fill="none" stroke="#000" stroke-linecap="round" stroke-linejoin="round" stroke-width=".5"/><polyline points="56.156 92.64 42.331 91.369 38.993 89.144 38.516 70.709" fill="none" stroke="#000" stroke-linecap="round" stroke-linejoin="round" stroke-width=".5"/></g><circle cx="60.468" cy="61.382" r="57.765" fill="none" stroke="#fff" stroke-miterlimit="10" stroke-width="3"/><circle cx="60.468" cy="61.382" r="57.765" fill="none" stroke="#000" stroke-miterlimit="10"/><path d="M65.889,89.704c-2.111,0-3.942-1.572-4.213-3.721-.294-2.33,1.357-4.456,3.687-4.75,12.127-1.528,21.663-10.417,23.188-21.617.913-6.706-1.055-13.412-5.542-18.885-4.562-5.564-11.163-9.185-18.588-10.196-12.207-1.661-23.788,4.091-28.817,14.316-1.036,2.107-3.584,2.975-5.692,1.939-2.107-1.036-2.975-3.584-1.939-5.692,6.646-13.515,21.751-21.147,37.595-18.989,9.559,1.302,18.088,6,24.016,13.23,6.003,7.321,8.628,16.35,7.392,25.424-2.045,15.011-14.608,26.898-30.552,28.906-.18.023-.359.034-.537.034Z" fill="#ea0a8c" stroke="#fff" stroke-linecap="round" stroke-linejoin="round" stroke-width="3.8"/><polygon points="22.525 38.527 42.185 44.877 29.181 51.53 22.525 38.527" fill="#ea0a8c" stroke="#fff" stroke-linecap="round" stroke-linejoin="round" stroke-width="3.8"/><polygon points="67.352 95.653 67.202 74.993 56.95 85.398 67.352 95.653" fill="#ea0a8c" stroke="#fff" stroke-linecap="round" stroke-linejoin="round" stroke-width="3.8"/><path d="M31.787,42.98c5.652-11.499,18.926-18.603,33.208-16.658,17.558,2.391,29.991,17.554,27.769,33.868-1.836,13.477-13.099,23.523-26.861,25.26" fill="none" stroke="#000" stroke-linecap="round" stroke-linejoin="round" stroke-width="8.504"/><polygon points="22.554 38.512 42.2 44.906 29.181 51.53 22.554 38.512"/><polygon points="67.352 95.653 67.202 74.993 56.95 85.398 67.352 95.653"/><line x1="98.163" y1="107.718" x2="117.25" y2="147.638" fill="none" stroke="#fff" stroke-linecap="round" stroke-linejoin="round" stroke-width="1.425"/><line x1="98.163" y1="107.718" x2="117.25" y2="147.638" fill="none" stroke="#000" stroke-linecap="round" stroke-linejoin="round" stroke-width=".475"/><line x1="170.963" y1="187.297" x2="127.363" y2="210.705" fill="#fff" stroke="#fff" stroke-linecap="round" stroke-linejoin="round" stroke-width="2.85"/><polygon points="179.241 191.452 147.635 208.42 131.08 200.111 162.686 183.142 179.241 191.452" fill="#231f20" stroke="#fff" stroke-linecap="round" stroke-linejoin="round" stroke-width="2.85"/><polygon points="156.299 210.84 126.131 195.697 127.363 210.705 156.299 210.84" fill="#231f20" stroke="#fff" stroke-linecap="round" stroke-linejoin="round" stroke-width="2.85"/><line x1="172.616" y1="186.524" x2="216.216" y2="163.116" fill="#fff" stroke="#fff" stroke-linecap="round" stroke-linejoin="round" stroke-width="2.85"/><polygon points="164.338 182.369 195.944 165.401 212.5 173.71 180.893 190.679 164.338 182.369" fill="#231f20" stroke="#fff" stroke-linecap="round" stroke-linejoin="round" stroke-width="2.85"/><polygon points="187.28 162.982 217.448 178.124 216.216 163.116 187.28 162.982" fill="#231f20" stroke="#fff" stroke-linecap="round" stroke-linejoin="round" stroke-width="2.85"/><line x1="170.963" y1="187.297" x2="127.363" y2="210.705" fill="#fff"/><polygon points="179.241 191.452 147.635 208.42 131.08 200.111 162.686 183.142 179.241 191.452" fill="#231f20"/><polygon points="156.299 210.84 126.131 195.697 127.363 210.705 156.299 210.84" fill="#231f20"/><line x1="172.616" y1="186.524" x2="216.216" y2="163.116" fill="#fff"/><polygon points="164.338 182.369 195.944 165.401 212.5 173.71 180.893 190.679 164.338 182.369" fill="#231f20"/><polygon points="187.28 162.982 217.448 178.124 216.216 163.116 187.28 162.982" fill="#231f20"/><path d="M124.966,27.552c0,7.593-6.246,13.745-13.95,13.745s-13.953-6.152-13.953-13.745,6.246-13.755,13.953-13.755,13.95,6.159,13.95,13.755" fill="#221f1f" stroke="#fff" stroke-miterlimit="10" stroke-width="1.5"/><rect x="97.014" y="19.558" width="27.228" height="24.791" fill="none"/><path d="M112.612,34.593h-1.846v-11.761c-.444.424-1.027.848-1.749,1.271s-1.369.742-1.943.954v-1.784c1.032-.485,1.935-1.073,2.707-1.764s1.319-1.36,1.641-2.01h1.189v15.094Z" fill="#fff"/></g></svg>