<?xml version="1.0" encoding="UTF-8"?><svg id="a" xmlns="http://www.w3.org/2000/svg" width="2.75in" height="1.75in" viewBox="0 0 198 126"><rect x="39.152" y="7.584" width="36.206" height="6.049" fill="#929497" stroke-width="0"/><rect x="125.173" y="7.584" width="36.206" height="6.049" fill="#929497" stroke-width="0"/><rect x="39.152" width="36.206" height="6.049" fill="#929497" stroke-width="0"/><rect x="125.173" width="36.206" height="6.049" fill="#929497" stroke-width="0"/><rect x="39.152" y="15.308" width="36.206" height="6.049" fill="#929497" stroke-width="0"/><rect x="125.173" y="15.308" width="36.206" height="6.049" fill="#929497" stroke-width="0"/><rect x="39.152" y="23.032" width="36.206" height="6.049" fill="#929497" stroke-width="0"/><rect x="125.173" y="23.032" width="36.206" height="6.049" fill="#929497" stroke-width="0"/><rect x="39.152" y="30.756" width="36.206" height="6.049" fill="#929497" stroke-width="0"/><rect x="125.173" y="30.756" width="36.206" height="6.049" fill="#929497" stroke-width="0"/><rect x="39.152" y="53.928" width="36.206" height="6.049" fill="#929497" stroke-width="0"/><rect x="125.173" y="53.928" width="36.206" height="6.049" fill="#929497" stroke-width="0"/><rect x="125.173" y="38.48" width="36.206" height="13.773" fill="#929497" stroke-width="0"/><rect x="39.152" y="38.48" width="36.206" height="13.773" fill="#929497" stroke-width="0"/><rect x="39.152" y="61.652" width="36.206" height="6.049" fill="#929497" stroke-width="0"/><rect x="125.173" y="61.652" width="36.206" height="6.049" fill="#929497" stroke-width="0"/><rect x="39.152" y="69.376" width="36.206" height="6.049" fill="#929497" stroke-width="0"/><rect x="125.173" y="69.376" width="36.206" height="6.049" fill="#929497" stroke-width="0"/><rect x="39.152" y="77.1" width="36.206" height="6.049" fill="#929497" stroke-width="0"/><rect x="125.173" y="77.1" width="36.206" height="6.049" fill="#929497" stroke-width="0"/><rect x="39.152" y="84.824" width="36.206" height="6.049" fill="#929497" stroke-width="0"/><rect x="125.173" y="84.824" width="36.206" height="6.049" fill="#929497" stroke-width="0"/><rect x="37.064" y="93.188" width="30.647" height="12.894" fill="#1e4a93" stroke-width="0"/><rect x="68.458" y="93.188" width="30.647" height="12.894" fill="#26a9e0" stroke-width="0"/><rect x="131.995" y="93.188" width="30.647" height="12.894" fill="#26a9e0" stroke-width="0"/><rect x="100.413" y="93.188" width="30.647" height="12.894" fill="#1e4a93" stroke-width="0"/><rect x="78.549" width="21.041" height="90.873" fill="#1e4a93" stroke-width="0"/><path d="M90.072,39.011l2.473,6.614h-1.51l-.5-1.473h-2.474l-.519,1.473h-1.464l2.501-6.614h1.491ZM90.155,43.068l-.834-2.427h-.019l-.861,2.427h1.714Z" fill="#fff" stroke-width="0"/><path d="M43.311,96.758c.374,0,.691.055.953.163s.475.252.64.431.284.382.359.61.113.466.113.711c0,.239-.038.475-.113.706s-.195.437-.359.614c-.165.179-.377.322-.64.431-.262.109-.58.163-.953.163h-1.379v2.141h-1.313v-5.97h2.692ZM42.952,99.567c.15,0,.295-.012.435-.033.139-.022.262-.066.368-.13.105-.064.191-.155.255-.271.064-.117.096-.271.096-.46s-.032-.343-.096-.46-.149-.208-.255-.271c-.106-.064-.229-.107-.368-.13s-.284-.033-.435-.033h-1.02v1.789h1.02Z" fill="#fff" stroke-width="0"/><path d="M47.199,101.256c.072.14.168.252.289.339.12.086.26.15.422.192.162.042.329.062.501.062.117,0,.243-.01.376-.029s.259-.057.376-.113c.117-.055.214-.132.292-.229s.117-.222.117-.372c0-.161-.051-.293-.155-.393-.103-.101-.238-.185-.405-.251-.167-.067-.357-.126-.568-.176-.212-.05-.427-.105-.644-.167-.223-.056-.44-.124-.652-.205-.212-.081-.401-.186-.569-.313-.167-.128-.302-.288-.405-.48-.104-.192-.155-.425-.155-.698,0-.307.065-.573.196-.799s.302-.414.514-.564.452-.262.719-.334.535-.108.803-.108c.312,0,.611.034.898.104.287.069.542.183.765.338.223.156.4.355.531.598.131.243.196.537.196.883h-1.271c-.011-.179-.049-.326-.113-.443s-.149-.209-.255-.276c-.106-.066-.227-.114-.364-.142-.137-.028-.286-.042-.447-.042-.106,0-.212.012-.318.033-.106.022-.202.062-.289.117s-.157.126-.213.209c-.056.084-.083.189-.083.318,0,.116.022.212.067.284.044.072.132.139.263.2s.312.123.543.184c.231.062.534.14.907.234.111.022.266.062.464.121s.395.152.589.28c.195.128.364.3.506.515.142.214.213.488.213.823,0,.273-.053.526-.159.761-.106.234-.264.437-.473.606s-.468.302-.777.396c-.31.095-.668.143-1.075.143-.329,0-.648-.04-.957-.121-.31-.081-.583-.208-.819-.381-.237-.173-.425-.393-.564-.66-.14-.268-.207-.585-.201-.953h1.271c0,.2.036.371.108.51Z" fill="#fff" stroke-width="0"/><path d="M56.011,102.271c-.452.394-1.076.59-1.873.59-.809,0-1.434-.195-1.877-.585-.443-.391-.665-.992-.665-1.807v-3.712h1.312v3.712c0,.162.014.321.042.477.028.156.086.295.176.414.089.12.213.218.372.293.159.075.372.112.64.112.468,0,.791-.104.97-.313.178-.209.268-.536.268-.982v-3.712h1.312v3.712c0,.809-.226,1.409-.677,1.802Z" fill="#fff" stroke-width="0"/><path d="M61.655,102.728v-3.796h-1.472v-.895c.206.006.406-.01.598-.046.192-.036.365-.101.519-.192s.283-.213.389-.363c.106-.151.176-.338.209-.561h.945v5.853h-1.187Z" fill="#fff" stroke-width="0"/><path d="M74.752,96.758c.374,0,.691.055.953.163s.475.252.64.431.284.382.359.61.113.466.113.711c0,.239-.038.475-.113.706s-.195.437-.359.614c-.165.179-.377.322-.64.431-.262.109-.58.163-.953.163h-1.379v2.141h-1.313v-5.97h2.692ZM74.393,99.567c.15,0,.295-.012.435-.033.139-.022.262-.066.368-.13.105-.064.191-.155.255-.271.064-.117.096-.271.096-.46s-.032-.343-.096-.46-.149-.208-.255-.271c-.106-.064-.229-.107-.368-.13s-.284-.033-.435-.033h-1.02v1.789h1.02Z" fill="#fff" stroke-width="0"/><path d="M78.64,101.256c.072.14.168.252.289.339.12.086.26.15.422.192.162.042.329.062.501.062.117,0,.243-.01.376-.029s.259-.057.376-.113c.117-.055.214-.132.292-.229s.117-.222.117-.372c0-.161-.051-.293-.155-.393-.103-.101-.238-.185-.405-.251-.167-.067-.357-.126-.568-.176-.212-.05-.427-.105-.644-.167-.223-.056-.44-.124-.652-.205-.212-.081-.401-.186-.569-.313-.167-.128-.302-.288-.405-.48-.104-.192-.155-.425-.155-.698,0-.307.065-.573.196-.799s.302-.414.514-.564.452-.262.719-.334.535-.108.803-.108c.312,0,.611.034.898.104.287.069.542.183.765.338.223.156.4.355.531.598.131.243.196.537.196.883h-1.271c-.011-.179-.049-.326-.113-.443s-.149-.209-.255-.276c-.106-.066-.227-.114-.364-.142-.137-.028-.286-.042-.447-.042-.106,0-.212.012-.318.033-.106.022-.202.062-.289.117s-.157.126-.213.209c-.056.084-.083.189-.083.318,0,.116.022.212.067.284.044.072.132.139.263.2s.312.123.543.184c.231.062.534.14.907.234.111.022.266.062.464.121s.395.152.589.28c.195.128.364.3.506.515.142.214.213.488.213.823,0,.273-.053.526-.159.761-.106.234-.264.437-.473.606s-.468.302-.777.396c-.31.095-.668.143-1.075.143-.329,0-.648-.04-.957-.121-.31-.081-.583-.208-.819-.381-.237-.173-.425-.393-.564-.66-.14-.268-.207-.585-.201-.953h1.271c0,.2.036.371.108.51Z" fill="#fff" stroke-width="0"/><path d="M87.452,102.271c-.452.394-1.076.59-1.873.59-.809,0-1.434-.195-1.877-.585-.443-.391-.665-.992-.665-1.807v-3.712h1.312v3.712c0,.162.014.321.042.477.028.156.086.295.176.414.089.12.213.218.372.293.159.075.372.112.64.112.468,0,.791-.104.97-.313.178-.209.268-.536.268-.982v-3.712h1.312v3.712c0,.809-.226,1.409-.677,1.802Z" fill="#fff" stroke-width="0"/><path d="M91.432,98.191c.089-.287.223-.537.401-.752s.403-.382.673-.502c.27-.12.581-.18.932-.18.268,0,.522.042.765.126.242.083.456.203.639.359.184.156.331.348.439.576.109.229.163.485.163.77,0,.296-.047.549-.142.761s-.22.4-.376.564c-.156.164-.333.313-.531.447s-.397.267-.598.397-.396.271-.585.422-.356.326-.501.526h2.768v1.021h-4.297c0-.34.048-.636.146-.887.098-.25.23-.475.397-.673.167-.197.363-.38.589-.548.226-.167.464-.337.715-.51.128-.089.265-.18.41-.271s.277-.193.397-.305c.12-.112.22-.237.301-.377.081-.139.121-.298.121-.477,0-.284-.083-.506-.247-.664-.165-.159-.375-.238-.631-.238-.173,0-.319.04-.439.121-.12.081-.216.187-.289.317s-.124.276-.155.435c-.03.159-.046.316-.046.473h-1.137c-.011-.334.028-.646.117-.933Z" fill="#fff" stroke-width="0"/><path d="M106.79,96.758c.374,0,.691.055.953.163s.475.252.64.431.284.382.359.61.113.466.113.711c0,.239-.038.475-.113.706s-.195.437-.359.614c-.165.179-.377.322-.64.431-.262.109-.58.163-.953.163h-1.379v2.141h-1.313v-5.97h2.692ZM106.43,99.567c.15,0,.295-.012.435-.033.139-.022.262-.066.368-.13.105-.064.191-.155.255-.271.064-.117.096-.271.096-.46s-.032-.343-.096-.46-.149-.208-.255-.271c-.106-.064-.229-.107-.368-.13s-.284-.033-.435-.033h-1.02v1.789h1.02Z" fill="#fff" stroke-width="0"/><path d="M110.677,101.256c.072.14.168.252.289.339.12.086.26.15.422.192.162.042.329.062.501.062.117,0,.243-.01.376-.029s.259-.057.376-.113c.117-.055.214-.132.292-.229s.117-.222.117-.372c0-.161-.051-.293-.155-.393-.103-.101-.238-.185-.405-.251-.167-.067-.357-.126-.568-.176-.212-.05-.427-.105-.644-.167-.223-.056-.44-.124-.652-.205-.212-.081-.401-.186-.569-.313-.167-.128-.302-.288-.405-.48-.104-.192-.155-.425-.155-.698,0-.307.065-.573.196-.799s.302-.414.514-.564.452-.262.719-.334.535-.108.803-.108c.312,0,.611.034.898.104.287.069.542.183.765.338.223.156.4.355.531.598.131.243.196.537.196.883h-1.271c-.011-.179-.049-.326-.113-.443s-.149-.209-.255-.276c-.106-.066-.227-.114-.364-.142-.137-.028-.286-.042-.447-.042-.106,0-.212.012-.318.033-.106.022-.202.062-.289.117s-.157.126-.213.209c-.056.084-.083.189-.083.318,0,.116.022.212.067.284.044.072.132.139.263.2s.312.123.543.184c.231.062.534.14.907.234.111.022.266.062.464.121s.395.152.589.28c.195.128.364.3.506.515.142.214.213.488.213.823,0,.273-.053.526-.159.761-.106.234-.264.437-.473.606s-.468.302-.777.396c-.31.095-.668.143-1.075.143-.329,0-.648-.04-.957-.121-.31-.081-.583-.208-.819-.381-.237-.173-.425-.393-.564-.66-.14-.268-.207-.585-.201-.953h1.271c0,.2.036.371.108.51Z" fill="#fff" stroke-width="0"/><path d="M119.489,102.271c-.452.394-1.076.59-1.873.59-.809,0-1.434-.195-1.877-.585-.443-.391-.665-.992-.665-1.807v-3.712h1.312v3.712c0,.162.014.321.042.477.028.156.086.295.176.414.089.12.213.218.372.293.159.075.372.112.64.112.468,0,.791-.104.97-.313.178-.209.268-.536.268-.982v-3.712h1.312v3.712c0,.809-.226,1.409-.677,1.802Z" fill="#fff" stroke-width="0"/><path d="M125.359,99.241c.145-.012.279-.043.405-.097.125-.053.229-.129.31-.229.08-.101.121-.234.121-.401,0-.251-.084-.443-.251-.577s-.359-.2-.577-.2c-.301,0-.528.099-.682.297-.153.197-.227.447-.222.748h-1.128c.011-.301.065-.575.163-.823.097-.248.233-.462.409-.64.176-.179.386-.316.632-.414.245-.098.518-.146.819-.146.233,0,.468.035.702.104.233.07.444.175.631.313.187.14.339.31.456.51.117.201.175.433.175.694,0,.284-.067.535-.204.753-.137.217-.342.364-.615.442v.017c.323.073.577.229.762.469.184.239.275.526.275.861,0,.307-.06.579-.18.819-.12.239-.28.44-.48.602-.201.162-.433.284-.694.368-.262.083-.535.125-.819.125-.329,0-.628-.047-.898-.142s-.501-.232-.69-.414c-.189-.181-.336-.402-.438-.665-.104-.262-.152-.562-.146-.902h1.129c.006.156.03.305.075.447.045.142.108.265.192.367.083.104.188.186.313.247s.274.092.447.092c.268,0,.493-.082.677-.246.185-.165.276-.39.276-.674,0-.223-.043-.393-.13-.51-.086-.117-.196-.202-.33-.255s-.28-.084-.438-.092c-.159-.009-.312-.013-.456-.013v-.836c.128.011.265.011.41,0Z" fill="#fff" stroke-width="0"/><path d="M138.474,96.758c.373,0,.69.055.953.163.262.108.475.252.64.431.164.179.284.382.359.61s.112.466.112.711c0,.239-.037.475-.112.706s-.195.437-.359.614c-.165.179-.378.322-.64.431-.263.109-.58.163-.953.163h-1.38v2.141h-1.312v-5.97h2.692ZM138.114,99.567c.151,0,.296-.012.436-.033.139-.022.262-.066.367-.13.106-.064.191-.155.255-.271.064-.117.097-.271.097-.46s-.032-.343-.097-.46c-.063-.117-.148-.208-.255-.271-.105-.064-.229-.107-.367-.13-.14-.022-.284-.033-.436-.033h-1.02v1.789h1.02Z" fill="#fff" stroke-width="0"/><path d="M142.361,101.256c.072.14.169.252.288.339.12.086.261.15.423.192.161.042.329.062.502.062.116,0,.242-.01.376-.029s.259-.057.376-.113c.117-.055.215-.132.293-.229s.117-.222.117-.372c0-.161-.052-.293-.155-.393-.103-.101-.238-.185-.405-.251-.167-.067-.356-.126-.568-.176s-.427-.105-.644-.167c-.224-.056-.44-.124-.652-.205s-.401-.186-.568-.313c-.168-.128-.303-.288-.406-.48-.103-.192-.154-.425-.154-.698,0-.307.065-.573.196-.799s.303-.414.515-.564.451-.262.719-.334.535-.108.803-.108c.312,0,.611.034.898.104.287.069.542.183.765.338.223.156.4.355.531.598.131.243.195.537.195.883h-1.27c-.011-.179-.049-.326-.112-.443-.064-.117-.149-.209-.256-.276-.105-.066-.227-.114-.363-.142-.137-.028-.286-.042-.447-.042-.106,0-.212.012-.317.033-.106.022-.202.062-.289.117-.086.056-.157.126-.213.209-.056.084-.084.189-.084.318,0,.116.022.212.067.284.044.072.132.139.263.2.132.062.312.123.544.184.231.062.533.14.907.234.111.022.266.062.464.121s.394.152.589.28.363.3.506.515c.143.214.213.488.213.823,0,.273-.053.526-.158.761s-.264.437-.473.606-.468.302-.778.396c-.309.095-.667.143-1.074.143-.329,0-.647-.04-.957-.121s-.583-.208-.819-.381c-.237-.173-.425-.393-.564-.66s-.206-.585-.201-.953h1.271c0,.2.036.371.108.51Z" fill="#fff" stroke-width="0"/><path d="M151.174,102.271c-.451.394-1.076.59-1.873.59-.809,0-1.434-.195-1.877-.585-.443-.391-.664-.992-.664-1.807v-3.712h1.312v3.712c0,.162.014.321.041.477.029.156.086.295.176.414.09.12.213.218.373.293.158.075.371.112.639.112.469,0,.791-.104.971-.313.178-.209.268-.536.268-.982v-3.712h1.312v3.712c0,.809-.227,1.409-.678,1.802Z" fill="#fff" stroke-width="0"/><path d="M154.861,101.373v-1.087l2.541-3.411h1.062v3.52h.777v.979h-.777v1.354h-1.129v-1.354h-2.475ZM157.311,98.363l-1.514,2.031h1.539v-2.031h-.025Z" fill="#fff" stroke-width="0"/><rect x="100.738" width="21.041" height="90.873" fill="#26a9e0" stroke-width="0"/><path d="M111.617,39.011c.315,0,.602.028.861.083s.481.147.667.273c.185.126.329.295.431.505s.153.469.153.778c0,.333-.076.611-.227.834-.151.222-.375.404-.671.546.408.117.711.323.913.616.2.293.301.647.301,1.061,0,.333-.065.622-.194.866-.13.244-.304.443-.523.597-.219.155-.469.269-.75.343-.281.074-.57.111-.866.111h-3.205v-6.614h3.113ZM111.432,41.688c.259,0,.473-.062.639-.185.167-.124.25-.324.25-.603,0-.154-.028-.281-.083-.379-.056-.099-.13-.176-.223-.232-.092-.056-.199-.094-.319-.116-.121-.021-.246-.032-.375-.032h-1.361v1.547h1.473ZM111.515,44.495c.142,0,.278-.014.408-.042.129-.028.244-.074.343-.139.099-.064.177-.153.236-.264.059-.111.088-.253.088-.426,0-.339-.096-.582-.288-.727s-.444-.218-.759-.218h-1.584v1.815h1.556Z" fill="#fff" stroke-width="0"/><polyline points="52.42 106.406 52.42 113.838 32.675 113.838" fill="none" stroke="#1e4a93" stroke-miterlimit="10" stroke-width="1.843"/><polyline points="84.949 106.406 84.949 120.123 32.675 120.123" fill="none" stroke="#26a9e0" stroke-miterlimit="10" stroke-width="1.843"/><polyline points="149.6 106.406 149.6 113.838 166.193 113.838" fill="none" stroke="#26a9e0" stroke-miterlimit="10" stroke-width="1.843"/><polyline points="116.275 106.406 116.275 120.123 166.193 120.123" fill="none" stroke="#1e4a93" stroke-miterlimit="10" stroke-width="1.843"/><path d="M171.172,102.293c.088-.287.223-.537.4-.752s.402-.382.674-.502c.27-.12.58-.18.932-.18.268,0,.521.042.766.126.242.083.455.203.639.359s.33.348.439.576.162.485.162.77c0,.296-.047.549-.141.761-.096.212-.221.4-.377.564s-.334.313-.531.447-.396.267-.598.397-.396.271-.586.422-.355.326-.5.526h2.766v1.021h-4.297c0-.34.049-.636.146-.887.098-.25.23-.475.396-.673.168-.197.365-.38.59-.548.227-.167.465-.337.715-.51.129-.089.266-.18.41-.271s.277-.193.396-.305c.121-.112.221-.237.301-.377.082-.139.121-.298.121-.477,0-.284-.082-.506-.246-.664-.164-.159-.375-.238-.631-.238-.174,0-.318.04-.439.121-.119.081-.215.187-.287.317-.074.131-.125.276-.156.435-.029.159-.045.316-.045.473h-1.137c-.012-.334.027-.646.117-.933Z" fill="#6d6e70" stroke-width="0"/><path d="M176.973,102.507v.602h.025c.15-.251.346-.434.586-.548.238-.114.484-.171.736-.171.316,0,.578.043.781.13.203.086.363.206.48.359s.199.34.246.56c.047.221.072.464.072.731v2.659h-1.188v-2.441c0-.356-.057-.623-.168-.799-.111-.175-.309-.263-.594-.263-.322,0-.557.096-.701.288-.146.192-.219.509-.219.949v2.266h-1.188v-4.322h1.129Z" fill="#6d6e70" stroke-width="0"/><path d="M183.871,106.277c-.139.234-.322.402-.547.506-.227.103-.482.154-.766.154-.324,0-.607-.062-.854-.188-.244-.126-.447-.296-.605-.511-.158-.214-.279-.461-.359-.739-.082-.279-.121-.568-.121-.87,0-.289.039-.569.121-.84.08-.271.201-.509.359-.715s.357-.372.598-.498c.24-.125.518-.188.836-.188.256,0,.5.054.732.163.23.108.412.269.547.48h.018v-2.174h1.186v5.97h-1.127v-.552h-.018ZM183.82,104.141c-.033-.164-.09-.309-.17-.435-.082-.125-.186-.227-.314-.305s-.289-.117-.484-.117-.359.039-.494.117c-.133.078-.24.181-.322.31-.08.128-.139.274-.176.438-.035.164-.053.336-.053.515,0,.167.02.334.059.501.037.167.102.316.188.447s.195.237.326.318c.131.08.289.121.473.121.195,0,.357-.039.488-.117s.236-.183.314-.313.133-.28.166-.447.051-.34.051-.519-.018-.35-.051-.515Z" fill="#6d6e70" stroke-width="0"/><path d="M172.324,109.972v.552h.018c.145-.234.328-.404.551-.51.225-.106.469-.159.736-.159.34,0,.633.064.879.192.244.128.447.298.609.51s.281.459.359.74.117.575.117.882c0,.29-.039.568-.117.836s-.195.505-.355.711c-.158.206-.355.37-.594.493-.236.122-.514.184-.832.184-.268,0-.514-.054-.738-.163-.227-.108-.412-.269-.557-.48h-.018v2.049h-1.188v-5.836h1.129ZM173.867,113.399c.131-.078.236-.18.318-.306.08-.125.137-.271.172-.438.033-.167.049-.337.049-.51s-.018-.343-.055-.511c-.035-.167-.096-.315-.18-.447-.082-.131-.189-.236-.32-.317-.133-.081-.293-.121-.482-.121-.195,0-.357.04-.488.121s-.236.186-.318.313c-.08.128-.137.276-.17.443-.035.167-.051.34-.051.519,0,.173.018.343.055.51.035.167.094.313.176.438.08.126.188.228.32.306.135.078.297.117.486.117.195,0,.357-.039.488-.117Z" fill="#6d6e70" stroke-width="0"/><path d="M176.33,111.196c.105-.281.256-.521.451-.719.195-.198.43-.352.701-.46.273-.109.58-.163.92-.163s.648.054.924.163c.277.108.512.262.707.46.195.197.346.438.451.719s.16.595.16.94-.055.658-.16.937-.256.517-.451.715-.43.35-.707.456c-.275.105-.584.158-.924.158s-.646-.053-.92-.158c-.271-.106-.506-.258-.701-.456s-.346-.437-.451-.715-.16-.591-.16-.937.055-.659.16-.94ZM177.408,112.643c.033.165.09.312.172.443.08.131.188.235.322.313.133.078.301.117.5.117.201,0,.369-.039.506-.117s.246-.183.326-.313c.082-.131.139-.278.172-.443.033-.164.051-.333.051-.506s-.018-.343-.051-.51-.09-.315-.172-.443c-.08-.128-.189-.232-.326-.313s-.305-.121-.506-.121c-.199,0-.367.04-.5.121-.135.081-.242.186-.322.313-.082.128-.139.276-.172.443s-.051.337-.051.51.018.342.051.506Z" fill="#6d6e70" stroke-width="0"/><path d="M185.133,114.294l-.768-2.901h-.018l-.736,2.901h-1.229l-1.371-4.322h1.254l.795,2.935h.016l.719-2.935h1.154l.736,2.926h.016l.795-2.926h1.221l-1.363,4.322h-1.221Z" fill="#6d6e70" stroke-width="0"/><path d="M189.49,113.257c.178.173.434.26.768.26.24,0,.447-.06.619-.18.174-.12.279-.247.318-.381h1.045c-.168.519-.424.89-.77,1.112s-.764.334-1.254.334c-.34,0-.646-.054-.92-.163-.273-.108-.504-.263-.693-.464-.189-.2-.336-.44-.439-.719s-.154-.585-.154-.92c0-.323.053-.624.158-.903.105-.278.256-.52.451-.723s.428-.364.699-.48c.27-.117.57-.176.898-.176.367,0,.688.071.961.213.273.143.498.333.674.573.176.239.303.513.381.819s.105.627.082.961h-3.117c.016.385.113.664.293.836ZM190.832,110.983c-.143-.156-.359-.234-.648-.234-.189,0-.348.032-.473.096-.125.064-.227.144-.301.238-.076.095-.129.195-.158.302-.031.105-.049.2-.055.284h1.932c-.057-.302-.156-.529-.297-.686Z" fill="#6d6e70" stroke-width="0"/><path d="M194.146,109.972v.803h.016c.057-.134.131-.258.227-.372.094-.114.203-.212.326-.293s.254-.144.393-.188c.139-.044.285-.066.436-.066.078,0,.164.014.258.042v1.104c-.055-.012-.121-.021-.199-.029-.078-.009-.154-.013-.227-.013-.217,0-.4.036-.551.108-.15.073-.273.172-.365.297-.092.126-.156.271-.195.439-.039.167-.059.348-.059.543v1.948h-1.188v-4.322h1.129Z" fill="#6d6e70" stroke-width="0"/><path d="M172.195,120.685c.053.092.121.167.205.226s.18.102.289.13c.107.027.221.042.338.042.084,0,.172-.01.264-.029s.176-.051.25-.093c.076-.041.139-.097.188-.167.051-.069.076-.157.076-.264,0-.178-.119-.312-.355-.4-.236-.09-.566-.179-.99-.268-.174-.039-.342-.085-.506-.139-.164-.053-.311-.122-.439-.209-.129-.086-.23-.194-.309-.326-.078-.131-.117-.291-.117-.48,0-.278.055-.507.162-.686.109-.179.252-.319.432-.422.178-.104.379-.176.602-.218s.451-.062.686-.062.461.022.682.066c.221.045.416.12.59.226.172.106.316.247.43.423.115.176.184.397.205.664h-1.129c-.018-.228-.104-.383-.26-.464-.156-.08-.34-.121-.551-.121-.066,0-.141.004-.217.013-.078.009-.15.026-.215.055-.062.027-.117.068-.162.121s-.066.124-.066.213c0,.106.039.192.117.26.076.066.18.121.305.162.125.042.268.08.43.113s.326.07.494.108c.172.039.342.087.506.143s.311.13.439.222c.127.092.23.206.309.343s.117.305.117.506c0,.284-.057.522-.172.715-.113.192-.264.347-.447.464s-.395.199-.631.247c-.236.047-.479.07-.723.07-.252,0-.496-.024-.736-.075-.24-.05-.453-.134-.641-.251-.186-.116-.34-.271-.459-.464s-.186-.433-.197-.723h1.129c0,.128.027.238.08.33Z" fill="#6d6e70" stroke-width="0"/><path d="M175.711,118.661c.105-.281.256-.521.451-.719.195-.198.43-.352.701-.46.273-.109.58-.163.92-.163s.648.054.924.163c.277.108.512.262.707.46.195.197.346.438.451.719s.16.595.16.94-.055.658-.16.937-.256.517-.451.715-.43.35-.707.456c-.275.105-.584.158-.924.158s-.646-.053-.92-.158c-.271-.106-.506-.258-.701-.456s-.346-.437-.451-.715-.16-.591-.16-.937.055-.659.16-.94ZM176.789,120.107c.033.165.09.312.172.443.08.131.188.235.322.313.133.078.301.117.5.117.201,0,.369-.039.506-.117s.246-.183.326-.313c.082-.131.139-.278.172-.443.033-.164.051-.333.051-.506s-.018-.343-.051-.51-.09-.315-.172-.443c-.08-.128-.189-.232-.326-.313s-.305-.121-.506-.121c-.199,0-.367.04-.5.121-.135.081-.242.186-.322.313-.082.128-.139.276-.172.443s-.051.337-.051.51.018.342.051.506Z" fill="#6d6e70" stroke-width="0"/><path d="M183.721,121.759v-.602h-.025c-.15.25-.346.432-.586.543s-.484.167-.736.167c-.316,0-.578-.042-.781-.125-.203-.084-.363-.202-.48-.355s-.199-.34-.246-.561c-.047-.22-.072-.464-.072-.731v-2.658h1.188v2.441c0,.356.057.622.168.798s.309.264.594.264c.322,0,.557-.096.701-.288.146-.192.219-.509.219-.949v-2.266h1.188v4.322h-1.129Z" fill="#6d6e70" stroke-width="0"/><path d="M186.881,117.437v.803h.016c.057-.134.131-.258.227-.372.094-.114.203-.212.326-.293s.254-.144.393-.188c.139-.044.285-.066.436-.066.078,0,.164.014.258.042v1.104c-.055-.012-.121-.021-.199-.029-.078-.009-.154-.013-.227-.013-.217,0-.4.036-.551.108-.15.073-.273.172-.365.297-.092.126-.156.271-.195.439-.039.167-.059.348-.059.543v1.948h-1.188v-4.322h1.129Z" fill="#6d6e70" stroke-width="0"/><path d="M190.92,118.214c-.189,0-.35.043-.477.13-.129.086-.232.197-.314.334-.08.137-.137.287-.172.451-.033.165-.049.328-.049.489,0,.156.016.315.049.477.035.162.088.309.164.439.074.131.178.238.305.321.129.084.285.126.469.126.283,0,.502-.08.656-.238.152-.159.25-.372.289-.64h1.145c-.078.574-.301,1.012-.668,1.312-.369.301-.84.451-1.414.451-.322,0-.619-.054-.891-.163-.27-.108-.5-.26-.689-.455s-.338-.428-.443-.698-.158-.567-.158-.891c0-.334.049-.646.146-.933.098-.286.24-.534.43-.744.189-.209.422-.372.695-.488.271-.117.584-.176.936-.176.256,0,.504.033.74.101.236.066.449.168.635.305.188.137.34.307.457.51.115.204.184.445.199.724h-1.162c-.078-.496-.371-.744-.877-.744Z" fill="#6d6e70" stroke-width="0"/><path d="M194.924,120.722c.178.173.436.26.77.26.24,0,.445-.06.619-.18.172-.12.277-.247.316-.381h1.045c-.166.519-.422.89-.768,1.112s-.764.334-1.254.334c-.342,0-.648-.054-.92-.163-.273-.108-.506-.263-.695-.464-.189-.2-.336-.44-.438-.719-.104-.278-.156-.585-.156-.92,0-.323.053-.624.16-.903.105-.278.256-.52.451-.723s.428-.364.697-.48c.271-.117.57-.176.9-.176.367,0,.688.071.961.213.273.143.498.333.672.573.176.239.303.513.381.819s.105.627.084.961h-3.119c.018.385.115.664.293.836ZM196.266,118.448c-.143-.156-.357-.234-.648-.234-.189,0-.346.032-.471.096-.127.064-.227.144-.303.238-.074.095-.127.195-.158.302-.031.105-.049.2-.055.284h1.932c-.055-.302-.154-.529-.297-.686Z" fill="#6d6e70" stroke-width="0"/><path d="M17.265,106.829v-3.796h-1.472v-.895c.206.006.406-.01.598-.046.192-.036.365-.101.519-.192s.283-.213.389-.363c.106-.151.176-.338.209-.561h.945v5.853h-1.187Z" fill="#6d6e70" stroke-width="0"/><path d="M21.274,105.755c.053.092.121.167.205.226.084.059.18.102.289.13.109.027.222.042.339.042.083,0,.171-.01.263-.029s.176-.051.251-.093c.075-.041.138-.097.188-.167.05-.069.075-.157.075-.264,0-.178-.119-.312-.355-.4-.237-.09-.567-.179-.991-.268-.173-.039-.341-.085-.506-.139-.165-.053-.311-.122-.439-.209-.128-.086-.231-.194-.309-.326-.078-.131-.117-.291-.117-.48,0-.278.054-.507.163-.686s.252-.319.431-.422c.178-.104.379-.176.602-.218.223-.042.451-.062.686-.062s.461.022.681.066c.22.045.417.12.589.226.173.106.316.247.431.423s.183.397.205.664h-1.129c-.017-.228-.103-.383-.259-.464-.156-.08-.34-.121-.552-.121-.067,0-.139.004-.217.013s-.149.026-.213.055c-.064.027-.118.068-.163.121-.044.053-.066.124-.066.213,0,.106.039.192.117.26.078.066.18.121.305.162.125.042.269.08.431.113s.326.07.493.108c.173.039.341.087.506.143s.311.13.439.222.231.206.31.343.117.305.117.506c0,.284-.057.522-.171.715s-.263.347-.447.464c-.184.117-.394.199-.631.247-.237.047-.478.07-.724.07-.25,0-.496-.024-.735-.075-.24-.05-.453-.134-.64-.251-.187-.116-.34-.271-.46-.464-.12-.192-.186-.433-.196-.723h1.128c0,.128.026.238.08.33Z" fill="#6d6e70" stroke-width="0"/><path d="M27.139,102.507v.794h-.87v2.141c0,.2.033.334.1.401.067.066.201.1.401.1.067,0,.131-.002.192-.008.061-.006.12-.014.176-.025v.92c-.101.017-.212.027-.334.033-.123.006-.243.009-.36.009-.184,0-.358-.013-.522-.038-.165-.024-.309-.073-.435-.146-.125-.072-.225-.175-.297-.309-.073-.134-.109-.31-.109-.527v-2.55h-.719v-.794h.719v-1.296h1.188v1.296h.87Z" fill="#6d6e70" stroke-width="0"/><path d="M3.762,109.972v.552h.017c.145-.234.329-.404.552-.51.223-.106.468-.159.735-.159.34,0,.633.064.878.192.246.128.449.298.61.51s.282.459.36.74c.078.281.117.575.117.882,0,.29-.039.568-.117.836-.078.268-.197.505-.355.711s-.357.37-.594.493c-.237.122-.514.184-.832.184-.268,0-.514-.054-.74-.163-.226-.108-.411-.269-.556-.48h-.017v2.049h-1.187v-5.836h1.128ZM5.305,113.399c.131-.078.237-.18.318-.306.081-.125.138-.271.171-.438.034-.167.05-.337.05-.51s-.018-.343-.054-.511c-.037-.167-.096-.315-.18-.447-.083-.131-.191-.236-.322-.317s-.291-.121-.48-.121c-.195,0-.358.04-.489.121s-.237.186-.318.313c-.081.128-.138.276-.171.443-.033.167-.05.34-.05.519,0,.173.018.343.055.51.036.167.095.313.175.438.081.126.188.228.322.306s.295.117.485.117c.195,0,.358-.039.489-.117Z" fill="#6d6e70" stroke-width="0"/><path d="M7.767,111.196c.106-.281.256-.521.452-.719.195-.198.429-.352.702-.46.273-.109.58-.163.92-.163s.648.054.924.163c.276.108.511.262.707.46.195.197.345.438.451.719s.159.595.159.94-.053.658-.159.937-.256.517-.451.715c-.195.198-.431.35-.707.456-.276.105-.584.158-.924.158s-.647-.053-.92-.158c-.273-.106-.507-.258-.702-.456-.195-.198-.346-.437-.452-.715s-.159-.591-.159-.937.053-.659.159-.94ZM8.846,112.643c.033.165.09.312.171.443.081.131.188.235.322.313s.301.117.502.117.369-.039.505-.117c.137-.078.246-.183.326-.313.081-.131.138-.278.171-.443.034-.164.05-.333.05-.506s-.017-.343-.05-.51c-.033-.167-.09-.315-.171-.443-.081-.128-.189-.232-.326-.313-.136-.081-.305-.121-.505-.121s-.368.04-.502.121-.241.186-.322.313c-.081.128-.138.276-.171.443-.034.167-.05.337-.05.51s.017.342.05.506Z" fill="#6d6e70" stroke-width="0"/><path d="M16.571,114.294l-.769-2.901h-.017l-.736,2.901h-1.229l-1.371-4.322h1.254l.794,2.935h.017l.719-2.935h1.154l.736,2.926h.017l.794-2.926h1.221l-1.363,4.322h-1.221Z" fill="#6d6e70" stroke-width="0"/><path d="M20.927,113.257c.179.173.435.26.77.26.239,0,.446-.06.619-.18.172-.12.278-.247.317-.381h1.045c-.167.519-.424.89-.769,1.112-.346.223-.764.334-1.254.334-.34,0-.646-.054-.919-.163-.273-.108-.505-.263-.694-.464-.189-.2-.336-.44-.439-.719s-.154-.585-.154-.92c0-.323.053-.624.159-.903.106-.278.256-.52.452-.723.195-.203.427-.364.698-.48.271-.117.57-.176.899-.176.368,0,.688.071.961.213.273.143.498.333.673.573.175.239.302.513.38.819.078.307.105.627.083.961h-3.119c.017.385.114.664.292.836ZM22.269,110.983c-.143-.156-.358-.234-.648-.234-.19,0-.347.032-.473.096-.125.064-.226.144-.301.238s-.128.195-.159.302c-.031.105-.049.2-.054.284h1.931c-.056-.302-.154-.529-.296-.686Z" fill="#6d6e70" stroke-width="0"/><path d="M25.584,109.972v.803h.017c.056-.134.131-.258.226-.372s.203-.212.326-.293c.123-.081.253-.144.393-.188.14-.044.285-.066.435-.066.078,0,.164.014.259.042v1.104c-.056-.012-.123-.021-.201-.029-.078-.009-.153-.013-.226-.013-.217,0-.401.036-.552.108-.15.073-.271.172-.364.297-.092.126-.157.271-.196.439-.039.167-.059.348-.059.543v1.948h-1.187v-4.322h1.128Z" fill="#6d6e70" stroke-width="0"/><path d="M1.451,120.685c.053.092.121.167.205.226.084.059.18.102.289.13.109.027.222.042.339.042.083,0,.171-.01.263-.029s.176-.051.251-.093c.075-.041.138-.097.188-.167.05-.069.075-.157.075-.264,0-.178-.119-.312-.355-.4-.237-.09-.567-.179-.991-.268-.173-.039-.341-.085-.506-.139-.165-.053-.311-.122-.439-.209-.128-.086-.231-.194-.309-.326-.078-.131-.117-.291-.117-.48,0-.278.054-.507.163-.686s.252-.319.431-.422c.178-.104.379-.176.602-.218.223-.042.451-.062.686-.062s.461.022.681.066c.22.045.417.12.589.226.173.106.316.247.431.423s.183.397.205.664h-1.129c-.017-.228-.103-.383-.259-.464-.156-.08-.34-.121-.552-.121-.067,0-.139.004-.217.013s-.149.026-.213.055c-.064.027-.118.068-.163.121-.044.053-.066.124-.066.213,0,.106.039.192.117.26.078.066.18.121.305.162.125.042.269.08.431.113s.326.07.493.108c.173.039.341.087.506.143s.311.13.439.222.231.206.31.343.117.305.117.506c0,.284-.057.522-.171.715s-.263.347-.447.464c-.184.117-.394.199-.631.247-.237.047-.478.07-.724.07-.25,0-.496-.024-.735-.075-.24-.05-.453-.134-.64-.251-.187-.116-.34-.271-.46-.464-.12-.192-.186-.433-.196-.723h1.128c0,.128.026.238.08.33Z" fill="#6d6e70" stroke-width="0"/><path d="M4.966,118.661c.106-.281.256-.521.452-.719.195-.198.429-.352.702-.46.273-.109.58-.163.92-.163s.648.054.924.163c.276.108.511.262.707.46.195.197.345.438.451.719s.159.595.159.94-.053.658-.159.937-.256.517-.451.715c-.195.198-.431.35-.707.456-.276.105-.584.158-.924.158s-.647-.053-.92-.158c-.273-.106-.507-.258-.702-.456-.195-.198-.346-.437-.452-.715s-.159-.591-.159-.937.053-.659.159-.94ZM6.045,120.107c.033.165.09.312.171.443.081.131.188.235.322.313s.301.117.502.117.369-.039.505-.117c.137-.078.246-.183.326-.313.081-.131.138-.278.171-.443.034-.164.05-.333.05-.506s-.017-.343-.05-.51c-.033-.167-.09-.315-.171-.443-.081-.128-.189-.232-.326-.313-.136-.081-.305-.121-.505-.121s-.368.04-.502.121-.241.186-.322.313c-.081.128-.138.276-.171.443-.034.167-.05.337-.05.51s.017.342.05.506Z" fill="#6d6e70" stroke-width="0"/><path d="M12.976,121.759v-.602h-.025c-.15.25-.346.432-.585.543-.24.111-.485.167-.736.167-.318,0-.579-.042-.782-.125-.204-.084-.364-.202-.481-.355-.117-.153-.199-.34-.247-.561-.047-.22-.071-.464-.071-.731v-2.658h1.187v2.441c0,.356.056.622.167.798.111.176.309.264.593.264.323,0,.558-.096.703-.288.145-.192.217-.509.217-.949v-2.266h1.187v4.322h-1.128Z" fill="#6d6e70" stroke-width="0"/><path d="M16.136,117.437v.803h.017c.056-.134.131-.258.226-.372s.203-.212.326-.293c.123-.081.253-.144.393-.188.14-.044.285-.066.435-.066.078,0,.164.014.259.042v1.104c-.056-.012-.123-.021-.201-.029-.078-.009-.153-.013-.226-.013-.217,0-.401.036-.552.108-.15.073-.271.172-.364.297-.092.126-.157.271-.196.439-.039.167-.059.348-.059.543v1.948h-1.187v-4.322h1.128Z" fill="#6d6e70" stroke-width="0"/><path d="M20.174,118.214c-.189,0-.349.043-.477.13-.128.086-.233.197-.313.334-.081.137-.138.287-.171.451-.034.165-.05.328-.05.489,0,.156.017.315.05.477.033.162.088.309.163.439s.177.238.305.321c.128.084.284.126.468.126.284,0,.503-.08.656-.238.153-.159.25-.372.289-.64h1.145c-.078.574-.301,1.012-.668,1.312-.368.301-.839.451-1.413.451-.323,0-.62-.054-.891-.163-.271-.108-.5-.26-.689-.455-.19-.195-.337-.428-.443-.698s-.159-.567-.159-.891c0-.334.048-.646.146-.933.098-.286.241-.534.431-.744.189-.209.421-.372.694-.488.273-.117.585-.176.937-.176.256,0,.503.033.74.101.237.066.448.168.635.305.187.137.338.307.456.51.117.204.184.445.201.724h-1.162c-.078-.496-.371-.744-.878-.744Z" fill="#6d6e70" stroke-width="0"/><path d="M24.179,120.722c.179.173.435.26.77.26.239,0,.446-.06.619-.18.172-.12.278-.247.317-.381h1.045c-.167.519-.424.89-.769,1.112-.346.223-.764.334-1.254.334-.34,0-.646-.054-.919-.163-.273-.108-.505-.263-.694-.464-.189-.2-.336-.44-.439-.719s-.154-.585-.154-.92c0-.323.053-.624.159-.903.106-.278.256-.52.452-.723.195-.203.427-.364.698-.48.271-.117.57-.176.899-.176.368,0,.688.071.961.213.273.143.498.333.673.573.175.239.302.513.38.819.078.307.105.627.083.961h-3.119c.017.385.114.664.292.836ZM25.521,118.448c-.143-.156-.358-.234-.648-.234-.19,0-.347.032-.473.096-.125.064-.226.144-.301.238s-.128.195-.159.302c-.031.105-.049.2-.054.284h1.931c-.056-.302-.154-.529-.296-.686Z" fill="#6d6e70" stroke-width="0"/></svg>