<?xml version="1.0" encoding="UTF-8"?><svg id="b" xmlns="http://www.w3.org/2000/svg" width="4.662in" height="4.271in" xmlns:xlink="http://www.w3.org/1999/xlink" viewBox="0 0 335.691 307.493"><defs><clipPath id="c"><rect x="11.378" y="10.047" width="311.736" height="289.63" fill="none"/></clipPath></defs><g clip-path="url(#c)"><line x1="-98.681" y1="58.373" x2="568.808" y2="67.654" fill="none" stroke="#231f20" stroke-linecap="round" stroke-linejoin="round" stroke-width=".5"/><line x1="-98.681" y1="67.654" x2="568.808" y2="78.478" fill="none" stroke="#231f20" stroke-linecap="round" stroke-linejoin="round" stroke-width=".5"/><line x1="-69.29" y1="232.4" x2="567.262" y2="274.94" fill="none" stroke="#231f20" stroke-linecap="round" stroke-linejoin="round" stroke-width=".5"/><polygon points="195.493 83.179 168.526 82.702 168.091 75.895 195.058 76.372 195.493 83.179" fill="none" stroke="#231f20" stroke-linecap="round" stroke-linejoin="round" stroke-width=".5"/><path d="M168.526,82.702s.381,4.002,2.859,10.863" fill="none" stroke="#231f20" stroke-linecap="round" stroke-linejoin="round" stroke-width=".5"/><path d="M195.493,83.179s.095,5.05,3.526,11.149c0,0,.966.966.966,1.742s.31,14.902.31,14.902c0,0,.31,2.018-2.328,2.018" fill="none" stroke="#231f20" stroke-linecap="round" stroke-linejoin="round" stroke-width=".5"/><path d="M188.176,112.555h7.335c1.544,0,1.313-2.162,1.313-2.162l.077-6.409-.386-5.868c-.386-3.475-3.783-3.011-3.783-3.011l-21.851-.154s-2.008-.463-2.008,1.621,0,1.699,0,1.699" fill="none" stroke="#231f20" stroke-linecap="round" stroke-linejoin="round" stroke-width=".5"/><path d="M167.719,80.214l-2.484-4.191c-1.242-2.639-4.036-2.328-4.036-2.328l-24.795-.528-2.292,1.4" fill="none" stroke="#231f20" stroke-linecap="round" stroke-linejoin="round" stroke-width=".5"/><path d="M189.585,114.232l6.985.155s1.708-.31,1.708,2.639l3.826,116.473s.918,6.791,3.304,4.405" fill="none" stroke="#231f20" stroke-linecap="round" stroke-linejoin="round" stroke-width=".5"/><path d="M168.191,75.822l4.339-1.941,25.282.413s3.052-.139,3.746,2.081" fill="none" stroke="#231f20" stroke-linecap="round" stroke-linejoin="round" stroke-width=".5"/><polygon points="205.985 124.447 210.946 119.583 215.997 124.554 211.587 140.91 205.985 124.447" fill="none" stroke="#231f20" stroke-linecap="round" stroke-linejoin="round" stroke-width=".5"/><path d="M202.753,83.839s.699,8.571,2.354,12.248" fill="none" stroke="#231f20" stroke-linecap="round" stroke-linejoin="round" stroke-width=".5"/><polygon points="229.72 84.316 202.753 83.839 202.753 76.597 229.72 77.074 229.72 84.316" fill="none" stroke="#231f20" stroke-linecap="round" stroke-linejoin="round" stroke-width=".5"/><path d="M229.72,84.316s.095,5.05,3.526,11.149c0,0,.966.966.966,1.742s.31,14.902.31,14.902c0,0,.31,2.018-2.328,2.018" fill="none" stroke="#231f20" stroke-linecap="round" stroke-linejoin="round" stroke-width=".5"/><path d="M229.597,114.128c1.544,0,1.313-2.162,1.313-2.162l.217-6.845-.386-5.868c-.386-3.475-3.783-3.011-3.783-3.011l-21.851-.154s-2.008-.463-2.008,1.621,0,1.699,0,1.699c0,0,.238,3.994.119,5.182s-.713,7.129.119,9.03l26.26.508Z" fill="none" stroke="#231f20" stroke-linecap="round" stroke-linejoin="round" stroke-width=".5"/><path d="M239.634,239.04c-2.386,2.386-3.304-4.405-3.304-4.405l-4.114-115.461c0-2.949-1.708-2.639-1.708-2.639l-24.991-.363s-1.878-.144-1.733,3.178l4.477,114.475s0,5.633,3.178,5.633l25.42,1.444" fill="none" stroke="#231f20" stroke-linecap="round" stroke-linejoin="round" stroke-width=".5"/><path d="M202.753,76.597l3.738-1.78,25.388.277s3.212.197,3.905,2.417" fill="none" stroke="#231f20" stroke-linecap="round" stroke-linejoin="round" stroke-width=".5"/><polygon points="218.768 124.903 223.729 120.039 228.78 125.01 224.371 141.367 218.768 124.903" fill="none" stroke="#231f20" stroke-linecap="round" stroke-linejoin="round" stroke-width=".5"/><polygon points="207.553 159.624 212.514 154.877 217.566 159.729 213.156 175.694 207.553 159.624" fill="none" stroke="#231f20" stroke-linecap="round" stroke-linejoin="round" stroke-width=".5"/><polygon points="220.337 160.07 225.298 155.322 230.349 160.175 225.939 176.14 220.337 160.07" fill="none" stroke="#231f20" stroke-linecap="round" stroke-linejoin="round" stroke-width=".5"/><polygon points="224.861 185.372 219.9 190.12 214.849 185.267 219.258 169.302 224.861 185.372" fill="none" stroke="#231f20" stroke-linecap="round" stroke-linejoin="round" stroke-width=".5"/><polygon points="223.294 150.42 218.28 155.112 213.284 150.203 217.873 134.289 223.294 150.42" fill="none" stroke="#231f20" stroke-linecap="round" stroke-linejoin="round" stroke-width=".5"/><polygon points="208.828 194.066 213.768 189.397 218.797 194.169 214.406 209.869 208.828 194.066" fill="none" stroke="#231f20" stroke-linecap="round" stroke-linejoin="round" stroke-width=".5"/><polygon points="221.557 194.504 226.496 189.836 231.526 194.607 227.135 210.307 221.557 194.504" fill="none" stroke="#231f20" stroke-linecap="round" stroke-linejoin="round" stroke-width=".5"/><path d="M212.357,212.739l16.374.771s2.119.385,2.119,2.119l.193,15.411s.578,2.119-1.734,2.119l-16.759-.771s-1.734-.788-1.734-2.886-.572-14.682-.572-14.682c0,0,.794-2.637,2.113-2.081Z" fill="none" stroke="#231f20" stroke-linecap="round" stroke-linejoin="round" stroke-width=".5"/><polygon points="72.413 118.039 77.396 113.328 82.456 118.205 78.008 134.122 72.413 118.039" fill="none" stroke="#231f20" stroke-linecap="round" stroke-linejoin="round" stroke-width=".5"/><path d="M69.232,78.436s.689,8.359,2.343,11.954" fill="none" stroke="#231f20" stroke-linecap="round" stroke-linejoin="round" stroke-width=".5"/><polygon points="96.28 79.063 69.232 78.436 69.242 71.376 96.29 72.004 96.28 79.063" fill="none" stroke="#231f20" stroke-linecap="round" stroke-linejoin="round" stroke-width=".5"/><path d="M96.28,79.063s.088,4.924,3.52,10.889c0,0,.968.947.966,1.704s.289,14.529.289,14.529c0,0,.308,1.969-2.338,1.953" fill="none" stroke="#231f20" stroke-linecap="round" stroke-linejoin="round" stroke-width=".5"/><path d="M96.113,108.123c1.549.009,1.32-2.1,1.32-2.1l.228-6.671-.379-5.723c-.382-3.389-3.79-2.958-3.79-2.958l-21.917-.283s-2.013-.464-2.016,1.568-.003,1.656-.003,1.656c0,0,.233,3.895.112,5.052s-.726,6.945.106,8.803l26.339.654Z" fill="none" stroke="#231f20" stroke-linecap="round" stroke-linejoin="round" stroke-width=".5"/><path d="M105.995,229.949c-2.397,2.311-3.307-4.314-3.307-4.314l-3.955-112.576c.004-2.875-1.709-2.583-1.709-2.583l-25.066-.505s-1.883-.152-1.743,3.087l4.322,111.617s-.008,5.491,3.179,5.51l25.495,1.562" fill="none" stroke="#231f20" stroke-linecap="round" stroke-linejoin="round" stroke-width=".5"/><path d="M69.242,71.376l3.912-1.384,25.464.424s3.062-.117,3.754,2.051" fill="none" stroke="#231f20" stroke-linecap="round" stroke-linejoin="round" stroke-width=".5"/><polygon points="85.235 118.562 90.218 113.851 95.277 118.727 90.83 134.644 85.235 118.562" fill="none" stroke="#231f20" stroke-linecap="round" stroke-linejoin="round" stroke-width=".5"/><polygon points="73.935 152.34 78.918 147.742 83.977 152.503 79.53 168.039 73.935 152.34" fill="none" stroke="#231f20" stroke-linecap="round" stroke-linejoin="round" stroke-width=".5"/><polygon points="86.756 152.852 91.739 148.254 96.799 153.015 92.352 168.551 86.756 152.852" fill="none" stroke="#231f20" stroke-linecap="round" stroke-linejoin="round" stroke-width=".5"/><polygon points="91.256 177.544 86.273 182.142 81.214 177.381 85.661 161.845 91.256 177.544" fill="none" stroke="#231f20" stroke-linecap="round" stroke-linejoin="round" stroke-width=".5"/><polygon points="89.737 143.463 84.701 148.006 79.697 143.191 84.323 127.705 89.737 143.463" fill="none" stroke="#231f20" stroke-linecap="round" stroke-linejoin="round" stroke-width=".5"/><polygon points="75.163 185.922 80.124 181.401 85.162 186.082 80.734 201.36 75.163 185.922" fill="none" stroke="#231f20" stroke-linecap="round" stroke-linejoin="round" stroke-width=".5"/><polygon points="87.929 186.426 92.89 181.905 97.928 186.587 93.501 201.864 87.929 186.426" fill="none" stroke="#231f20" stroke-linecap="round" stroke-linejoin="round" stroke-width=".5"/><path d="M78.674,204.145l16.423.85s2.125.388,2.122,2.078l.17,15.024s.577,2.069-1.742,2.055l-16.809-.853s-1.738-.779-1.735-2.823-.552-14.315-.552-14.315c0,0,.8-2.566,2.123-2.016Z" fill="none" stroke="#231f20" stroke-linecap="round" stroke-linejoin="round" stroke-width=".5"/><polygon points="105.705 119.985 110.482 115.274 115.332 120.15 111.069 136.067 105.705 119.985" fill="none" stroke="#231f20" stroke-linecap="round" stroke-linejoin="round" stroke-width=".5"/><path d="M102.655,80.381s.66,8.359,2.247,11.954" fill="none" stroke="#231f20" stroke-linecap="round" stroke-linejoin="round" stroke-width=".5"/><polygon points="128.585 81.009 102.655 80.381 102.665 73.322 128.595 73.949 128.585 81.009" fill="none" stroke="#231f20" stroke-linecap="round" stroke-linejoin="round" stroke-width=".5"/><path d="M128.585,81.009s.084,4.924,3.374,10.889c0,0,.928.947.926,1.704s.277,14.529.277,14.529c0,0,.296,1.969-2.242,1.953" fill="none" stroke="#231f20" stroke-linecap="round" stroke-linejoin="round" stroke-width=".5"/><path d="M128.425,110.069c1.485.009,1.265-2.1,1.265-2.1l.219-6.671-.363-5.723c-.366-3.389-3.634-2.958-3.634-2.958l-21.011-.283s-1.93-.464-1.933,1.568-.002,1.656-.002,1.656c0,0,.223,3.895.107,5.052s-.696,6.945.101,8.803l25.25.654Z" fill="none" stroke="#231f20" stroke-linecap="round" stroke-linejoin="round" stroke-width=".5"/><path d="M137.899,231.895c-2.298,2.311-3.17-4.314-3.17-4.314l-3.792-112.576c.004-2.875-1.638-2.583-1.638-2.583l-24.03-.505s-1.805-.152-1.671,3.087l4.143,111.617s-.008,5.491,3.047,5.51l24.441,1.562" fill="none" stroke="#231f20" stroke-linecap="round" stroke-linejoin="round" stroke-width=".5"/><polygon points="117.997 120.507 122.774 115.796 127.624 120.672 123.36 136.59 117.997 120.507" fill="none" stroke="#231f20" stroke-linecap="round" stroke-linejoin="round" stroke-width=".5"/><polygon points="107.164 154.286 111.94 149.688 116.791 154.448 112.528 169.984 107.164 154.286" fill="none" stroke="#231f20" stroke-linecap="round" stroke-linejoin="round" stroke-width=".5"/><polygon points="119.455 154.797 124.232 150.2 129.083 154.96 124.82 170.496 119.455 154.797" fill="none" stroke="#231f20" stroke-linecap="round" stroke-linejoin="round" stroke-width=".5"/><polygon points="123.769 179.489 118.992 184.087 114.142 179.327 118.405 163.791 123.769 179.489" fill="none" stroke="#231f20" stroke-linecap="round" stroke-linejoin="round" stroke-width=".5"/><polygon points="122.313 145.409 117.485 149.952 112.687 145.137 117.122 129.651 122.313 145.409" fill="none" stroke="#231f20" stroke-linecap="round" stroke-linejoin="round" stroke-width=".5"/><polygon points="108.341 187.867 113.097 183.346 117.926 188.028 113.682 203.305 108.341 187.867" fill="none" stroke="#231f20" stroke-linecap="round" stroke-linejoin="round" stroke-width=".5"/><polygon points="120.579 188.371 125.336 183.85 130.165 188.532 125.921 203.81 120.579 188.371" fill="none" stroke="#231f20" stroke-linecap="round" stroke-linejoin="round" stroke-width=".5"/><path d="M111.707,206.091l15.744.85s2.037.388,2.035,2.078l.163,15.024s.553,2.069-1.67,2.055l-16.114-.853s-1.666-.779-1.663-2.823-.529-14.315-.529-14.315c0,0,.767-2.566,2.035-2.016Z" fill="none" stroke="#231f20" stroke-linecap="round" stroke-linejoin="round" stroke-width=".5"/><polygon points="137.453 121.146 142.179 116.41 147.047 121.295 142.912 137.277 137.453 121.146" fill="none" stroke="#231f20" stroke-linecap="round" stroke-linejoin="round" stroke-width=".5"/><path d="M134.13,81.406s.718,8.388,2.324,11.992" fill="none" stroke="#231f20" stroke-linecap="round" stroke-linejoin="round" stroke-width=".5"/><polygon points="159.972 82.145 134.13 81.562 134.089 74.934 159.931 75.517 159.972 82.145" fill="none" stroke="#231f20" stroke-linecap="round" stroke-linejoin="round" stroke-width=".5"/><path d="M159.972,81.99s.119,4.941,3.44,10.922c0,0,.931.949.935,1.708s.38,14.58.38,14.58c0,0,.309,1.976-2.22,1.964" fill="none" stroke="#231f20" stroke-linecap="round" stroke-linejoin="round" stroke-width=".5"/><path d="M160.02,111.154c1.48.007,1.246-2.109,1.246-2.109l.17-6.695-.403-5.742c-.389-3.401-3.642-2.962-3.642-2.962l-20.938-.246s-1.926-.462-1.915,1.578.009,1.662.009,1.662c0,0,.25,3.908.143,5.07s-.643,6.971.164,8.835l25.164.611Z" fill="none" stroke="#231f20" stroke-linecap="round" stroke-linejoin="round" stroke-width=".5"/><path d="M170.333,233.399c-2.273,2.324-3.19-4.324-3.19-4.324l-4.584-112.972c-.016-2.885-1.651-2.589-1.651-2.589l-23.948-.464s-1.8-.149-1.643,3.101l4.928,112.009s.031,5.511,3.076,5.524l24.365,1.524" fill="none" stroke="#231f20" stroke-linecap="round" stroke-linejoin="round" stroke-width=".5"/><polygon points="149.704 121.649 154.43 116.912 159.298 121.797 155.164 137.779 149.704 121.649" fill="none" stroke="#231f20" stroke-linecap="round" stroke-linejoin="round" stroke-width=".5"/><polygon points="139.152 155.567 143.878 150.945 148.745 155.713 144.609 171.313 139.152 155.567" fill="none" stroke="#231f20" stroke-linecap="round" stroke-linejoin="round" stroke-width=".5"/><polygon points="151.403 156.059 156.13 151.436 160.997 156.205 156.86 171.804 151.403 156.059" fill="none" stroke="#231f20" stroke-linecap="round" stroke-linejoin="round" stroke-width=".5"/><polygon points="155.878 180.832 151.151 185.454 146.284 180.686 150.421 165.086 155.878 180.832" fill="none" stroke="#231f20" stroke-linecap="round" stroke-linejoin="round" stroke-width=".5"/><polygon points="154.183 146.632 149.405 151.2 144.59 146.376 148.898 130.827 154.183 146.632" fill="none" stroke="#231f20" stroke-linecap="round" stroke-linejoin="round" stroke-width=".5"/><polygon points="140.565 189.267 145.272 184.721 150.117 189.411 145.998 204.751 140.565 189.267" fill="none" stroke="#231f20" stroke-linecap="round" stroke-linejoin="round" stroke-width=".5"/><polygon points="152.764 189.751 157.47 185.205 162.316 189.895 158.196 205.235 152.764 189.751" fill="none" stroke="#231f20" stroke-linecap="round" stroke-linejoin="round" stroke-width=".5"/><path d="M144.05,207.55l15.694.825s2.033.386,2.042,2.082l.27,15.077s.566,2.076-1.649,2.065l-16.063-.827s-1.666-.779-1.677-2.831-.63-14.366-.63-14.366c0,0,.746-2.577,2.013-2.027Z" fill="none" stroke="#231f20" stroke-linecap="round" stroke-linejoin="round" stroke-width=".5"/><polygon points="39.783 117.442 44.543 112.774 49.486 117.541 45.369 133.233 39.783 117.442" fill="none" stroke="#231f20" stroke-linecap="round" stroke-linejoin="round" stroke-width=".5"/><path d="M36.261,78.487s.76,8.222,2.399,11.749" fill="none" stroke="#231f20" stroke-linecap="round" stroke-linejoin="round" stroke-width=".5"/><polygon points="62.399 78.934 36.261 78.487 36.192 71.54 62.33 71.987 62.399 78.934" fill="none" stroke="#231f20" stroke-linecap="round" stroke-linejoin="round" stroke-width=".5"/><path d="M62.399,78.934s.141,4.845,3.524,10.694c0,0,.945.926.953,1.671s.444,14.296.444,14.296c0,0,.32,1.936-2.237,1.937" fill="none" stroke="#231f20" stroke-linecap="round" stroke-linejoin="round" stroke-width=".5"/><path d="M62.566,107.534c1.496,0,1.251-2.074,1.251-2.074l.145-6.566-.43-5.629c-.407-3.333-3.695-2.887-3.695-2.887l-21.177-.14s-1.95-.444-1.93,1.556.016,1.63.016,1.63c0,0,.269,3.832.165,4.971s-.623,6.839.202,8.663l25.453.477Z" fill="none" stroke="#231f20" stroke-linecap="round" stroke-linejoin="round" stroke-width=".5"/><path d="M73.489,227.361c-2.289,2.29-3.244-4.224-3.244-4.224l-5.093-110.762c-.028-2.829-1.68-2.531-1.68-2.531l-24.221-.339s-1.821-.138-1.649,3.049l5.436,109.816s.054,5.404,3.133,5.402l24.648,1.376" fill="none" stroke="#231f20" stroke-linecap="round" stroke-linejoin="round" stroke-width=".5"/><path d="M36.192,71.54l3.764-1.386,24.605.256s2.956-.134,3.65,1.995" fill="none" stroke="#231f20" stroke-linecap="round" stroke-linejoin="round" stroke-width=".5"/><polygon points="52.175 117.875 56.936 113.207 61.879 117.974 57.762 133.666 52.175 117.875" fill="none" stroke="#231f20" stroke-linecap="round" stroke-linejoin="round" stroke-width=".5"/><polygon points="41.64 151.188 46.402 146.632 51.343 151.284 47.223 166.602 41.64 151.188" fill="none" stroke="#231f20" stroke-linecap="round" stroke-linejoin="round" stroke-width=".5"/><polygon points="54.032 151.61 58.794 147.054 63.736 151.707 59.615 167.024 54.032 151.61" fill="none" stroke="#231f20" stroke-linecap="round" stroke-linejoin="round" stroke-width=".5"/><polygon points="58.658 175.882 53.896 180.438 48.955 175.785 53.075 160.468 58.658 175.882" fill="none" stroke="#231f20" stroke-linecap="round" stroke-linejoin="round" stroke-width=".5"/><polygon points="56.806 142.352 51.992 146.855 47.103 142.148 51.397 126.879 56.806 142.352" fill="none" stroke="#231f20" stroke-linecap="round" stroke-linejoin="round" stroke-width=".5"/><polygon points="43.205 184.228 47.947 179.747 52.867 184.323 48.762 199.386 43.205 184.228" fill="none" stroke="#231f20" stroke-linecap="round" stroke-linejoin="round" stroke-width=".5"/><polygon points="55.544 184.644 60.286 180.163 65.206 184.738 61.101 199.801 55.544 184.644" fill="none" stroke="#231f20" stroke-linecap="round" stroke-linejoin="round" stroke-width=".5"/><path d="M46.804,202.14l15.875.733s2.057.369,2.074,2.032l.334,14.784s.58,2.033-1.66,2.033l-16.249-.733s-1.688-.755-1.708-2.768-.695-14.085-.695-14.085c0,0,.744-2.53,2.028-1.997Z" fill="none" stroke="#231f20" stroke-linecap="round" stroke-linejoin="round" stroke-width=".5"/><polygon points="6.934 116.552 11.698 111.894 16.692 116.618 12.634 132.237 6.934 116.552" fill="none" stroke="#231f20" stroke-linecap="round" stroke-linejoin="round" stroke-width=".5"/><path d="M3.193,77.827s.806,8.173,2.473,11.675" fill="none" stroke="#231f20" stroke-linecap="round" stroke-linejoin="round" stroke-width=".5"/><polygon points="29.479 78.182 3.193 77.827 3.087 70.918 29.373 71.274 29.479 78.182" fill="none" stroke="#231f20" stroke-linecap="round" stroke-linejoin="round" stroke-width=".5"/><path d="M29.479,78.182s.166,4.817,3.598,10.623c0,0,.955.918.967,1.658s.52,14.215.52,14.215c0,0,.332,1.924-2.24,1.934" fill="none" stroke="#231f20" stroke-linecap="round" stroke-linejoin="round" stroke-width=".5"/><path d="M29.794,106.622c1.505-.006,1.248-2.067,1.248-2.067l.112-6.53-.462-5.596c-.427-3.313-3.731-2.859-3.731-2.859l-21.296-.067s-1.963-.435-1.933,1.554.025,1.62.025,1.62c0,0,.29,3.809.192,4.943s-.591,6.803.247,8.614l25.597.389Z" fill="none" stroke="#231f20" stroke-linecap="round" stroke-linejoin="round" stroke-width=".5"/><path d="M41.395,225.746c-2.29,2.285-3.284-4.19-3.284-4.19l-5.692-110.129c-.043-2.814-1.702-2.511-1.702-2.511l-24.358-.255s-1.832-.131-1.643,3.038l6.032,109.187s.082,5.373,3.179,5.362l24.792,1.285" fill="none" stroke="#231f20" stroke-linecap="round" stroke-linejoin="round" stroke-width=".5"/><path d="M3.087,70.918l3.778-1.391,24.744.172s2.972-.144,3.68,1.971" fill="none" stroke="#231f20" stroke-linecap="round" stroke-linejoin="round" stroke-width=".5"/><polygon points="19.398 116.941 24.162 112.283 29.156 117.006 25.098 132.626 19.398 116.941" fill="none" stroke="#231f20" stroke-linecap="round" stroke-linejoin="round" stroke-width=".5"/><polygon points="8.976 150.104 13.741 145.557 18.734 150.167 14.669 165.413 8.976 150.104" fill="none" stroke="#231f20" stroke-linecap="round" stroke-linejoin="round" stroke-width=".5"/><polygon points="21.44 150.482 26.205 145.935 31.198 150.546 27.133 165.792 21.44 150.482" fill="none" stroke="#231f20" stroke-linecap="round" stroke-linejoin="round" stroke-width=".5"/><polygon points="26.217 174.603 21.452 179.15 16.459 174.54 20.523 159.294 26.217 174.603" fill="none" stroke="#231f20" stroke-linecap="round" stroke-linejoin="round" stroke-width=".5"/><polygon points="24.181 141.266 19.363 145.76 14.423 141.096 18.662 125.898 24.181 141.266" fill="none" stroke="#231f20" stroke-linecap="round" stroke-linejoin="round" stroke-width=".5"/><polygon points="10.72 182.955 15.466 178.483 20.436 183.017 16.386 198.01 10.72 182.955" fill="none" stroke="#231f20" stroke-linecap="round" stroke-linejoin="round" stroke-width=".5"/><polygon points="23.13 183.327 27.876 178.855 32.846 183.388 28.797 198.381 23.13 183.327" fill="none" stroke="#231f20" stroke-linecap="round" stroke-linejoin="round" stroke-width=".5"/><path d="M14.431,200.755l15.968.675s2.071.36,2.096,2.014l.412,14.701s.594,2.019-1.659,2.028l-16.343-.674s-1.701-.746-1.732-2.746-.771-14.004-.771-14.004c0,0,.735-2.519,2.029-1.993Z" fill="none" stroke="#231f20" stroke-linecap="round" stroke-linejoin="round" stroke-width=".5"/><polygon points="241.219 125.181 246.18 120.317 251.231 125.288 246.821 141.644 241.219 125.181" fill="none" stroke="#231f20" stroke-linecap="round" stroke-linejoin="round" stroke-width=".5"/><path d="M237.987,84.573s.699,8.571,2.354,12.248" fill="none" stroke="#231f20" stroke-linecap="round" stroke-linejoin="round" stroke-width=".5"/><polygon points="264.954 85.05 237.987 84.573 237.987 77.331 264.954 77.808 264.954 85.05" fill="none" stroke="#231f20" stroke-linecap="round" stroke-linejoin="round" stroke-width=".5"/><path d="M264.954,85.05s.095,5.05,3.526,11.149c0,0,.966.966.966,1.742s.31,14.902.31,14.902c0,0,.31,2.018-2.328,2.018" fill="none" stroke="#231f20" stroke-linecap="round" stroke-linejoin="round" stroke-width=".5"/><path d="M264.832,114.862c1.544,0,1.313-2.162,1.313-2.162l.217-6.845-.386-5.868c-.386-3.475-3.783-3.011-3.783-3.011l-21.851-.154s-2.008-.463-2.008,1.621,0,1.699,0,1.699c0,0,.238,3.994.119,5.182s-.713,7.129.119,9.03l26.26.508Z" fill="none" stroke="#231f20" stroke-linecap="round" stroke-linejoin="round" stroke-width=".5"/><path d="M274.868,239.774c-2.386,2.386-3.304-4.405-3.304-4.405l-4.114-115.461c0-2.949-1.708-2.639-1.708-2.639l-24.991-.363s-1.878-.144-1.733,3.178l4.477,114.475s0,5.633,3.178,5.633l25.42,1.444" fill="none" stroke="#231f20" stroke-linecap="round" stroke-linejoin="round" stroke-width=".5"/><path d="M237.987,77.331l4.32-1.717,24.961.471s3.052-.139,3.746,2.081" fill="none" stroke="#231f20" stroke-linecap="round" stroke-linejoin="round" stroke-width=".5"/><polygon points="254.003 125.637 258.963 120.773 264.015 125.744 259.605 142.101 254.003 125.637" fill="none" stroke="#231f20" stroke-linecap="round" stroke-linejoin="round" stroke-width=".5"/><polygon points="242.788 160.358 247.748 155.611 252.8 160.463 248.39 176.428 242.788 160.358" fill="none" stroke="#231f20" stroke-linecap="round" stroke-linejoin="round" stroke-width=".5"/><polygon points="255.571 160.804 260.532 156.057 265.583 160.909 261.173 176.874 255.571 160.804" fill="none" stroke="#231f20" stroke-linecap="round" stroke-linejoin="round" stroke-width=".5"/><polygon points="260.095 186.106 255.134 190.854 250.083 186.001 254.493 170.036 260.095 186.106" fill="none" stroke="#231f20" stroke-linecap="round" stroke-linejoin="round" stroke-width=".5"/><polygon points="258.528 151.154 253.515 155.846 248.518 150.937 253.107 135.023 258.528 151.154" fill="none" stroke="#231f20" stroke-linecap="round" stroke-linejoin="round" stroke-width=".5"/><polygon points="244.062 194.8 249.002 190.131 254.031 194.903 249.641 210.603 244.062 194.8" fill="none" stroke="#231f20" stroke-linecap="round" stroke-linejoin="round" stroke-width=".5"/><polygon points="256.791 195.238 261.731 190.57 266.76 195.341 262.369 211.041 256.791 195.238" fill="none" stroke="#231f20" stroke-linecap="round" stroke-linejoin="round" stroke-width=".5"/><path d="M247.591,213.473l16.374.771s2.119.385,2.119,2.119l.193,15.411s.578,2.119-1.734,2.119l-16.759-.771s-1.734-.788-1.734-2.886-.572-14.682-.572-14.682c0,0,.794-2.637,2.113-2.081Z" fill="none" stroke="#231f20" stroke-linecap="round" stroke-linejoin="round" stroke-width=".5"/><polygon points="277.144 126.417 282.275 121.504 287.383 126.53 282.678 143.056 277.144 126.417" fill="none" stroke="#231f20" stroke-linecap="round" stroke-linejoin="round" stroke-width=".5"/><path d="M274.319,85.38s.613,8.661,2.263,12.378" fill="none" stroke="#231f20" stroke-linecap="round" stroke-linejoin="round" stroke-width=".5"/><polygon points="301.897 85.874 274.319 85.38 274.405 78.062 301.983 78.555 301.897 85.874" fill="none" stroke="#231f20" stroke-linecap="round" stroke-linejoin="round" stroke-width=".5"/><path d="M301.897,85.874s.038,5.104,3.474,11.268c0,0,.977.976.967,1.761s.141,15.059.141,15.059c0,0,.294,2.039-2.406,2.038" fill="none" stroke="#231f20" stroke-linecap="round" stroke-linejoin="round" stroke-width=".5"/><path d="M301.418,116c1.58,0,1.368-2.184,1.368-2.184l.304-6.917-.325-5.93c-.354-3.511-3.834-3.045-3.834-3.045l-22.348-.166s-2.048-.469-2.073,1.638-.02,1.717-.02,1.717c0,0,.196,4.036.06,5.237s-.814,7.204.014,9.125l26.854.526Z" fill="none" stroke="#231f20" stroke-linecap="round" stroke-linejoin="round" stroke-width=".5"/><path d="M310.202,242.233c-2.469,2.41-3.327-4.453-3.327-4.453l-2.838-116.679c.035-2.98-1.715-2.668-1.715-2.668l-25.557-.379s-1.919-.147-1.81,3.21l3.222,115.683s-.067,5.692,3.183,5.694l25.984,1.471" fill="none" stroke="#231f20" stroke-linecap="round" stroke-linejoin="round" stroke-width=".5"/><path d="M274.405,78.062l4.004-1.457,25.965.292s3.123-.139,3.807,2.105" fill="none" stroke="#231f20" stroke-linecap="round" stroke-linejoin="round" stroke-width=".5"/><polygon points="290.214 126.884 295.346 121.971 300.453 126.997 295.749 143.523 290.214 126.884" fill="none" stroke="#231f20" stroke-linecap="round" stroke-linejoin="round" stroke-width=".5"/><polygon points="278.331 161.966 283.461 157.17 288.57 162.076 283.87 178.207 278.331 161.966" fill="none" stroke="#231f20" stroke-linecap="round" stroke-linejoin="round" stroke-width=".5"/><polygon points="291.401 162.422 296.531 157.627 301.641 162.532 296.941 178.663 291.401 162.422" fill="none" stroke="#231f20" stroke-linecap="round" stroke-linejoin="round" stroke-width=".5"/><polygon points="295.728 187.993 290.597 192.788 285.488 187.882 290.188 171.751 295.728 187.993" fill="none" stroke="#231f20" stroke-linecap="round" stroke-linejoin="round" stroke-width=".5"/><polygon points="294.54 152.672 289.356 157.411 284.304 152.448 289.186 136.368 294.54 152.672" fill="none" stroke="#231f20" stroke-linecap="round" stroke-linejoin="round" stroke-width=".5"/><polygon points="279.226 196.771 284.334 192.055 289.422 196.879 284.744 212.742 279.226 196.771" fill="none" stroke="#231f20" stroke-linecap="round" stroke-linejoin="round" stroke-width=".5"/><polygon points="292.24 197.219 297.348 192.504 302.436 197.328 297.758 213.191 292.24 197.219" fill="none" stroke="#231f20" stroke-linecap="round" stroke-linejoin="round" stroke-width=".5"/><path d="M282.614,215.642l16.739.786s2.163.39,2.142,2.142l.014,15.573s.566,2.142-1.798,2.141l-17.133-.786s-1.764-.797-1.739-2.917-.411-14.837-.411-14.837c0,0,.844-2.665,2.186-2.102Z" fill="none" stroke="#231f20" stroke-linecap="round" stroke-linejoin="round" stroke-width=".5"/><polygon points="313.635 127.325 318.789 122.359 323.874 127.44 319.095 144.146 313.635 127.325" fill="none" stroke="#231f20" stroke-linecap="round" stroke-linejoin="round" stroke-width=".5"/><path d="M310.996,85.842s.574,8.755,2.207,12.513" fill="none" stroke="#231f20" stroke-linecap="round" stroke-linejoin="round" stroke-width=".5"/><polygon points="338.571 86.342 310.996 85.842 311.115 78.445 338.69 78.944 338.571 86.342" fill="none" stroke="#231f20" stroke-linecap="round" stroke-linejoin="round" stroke-width=".5"/><path d="M337.957,116.795c1.58,0,1.378-2.208,1.378-2.208l.335-6.992-.299-5.995c-.338-3.549-3.82-3.078-3.82-3.078l-22.348-.168s-2.046-.474-2.08,1.655-.028,1.735-.028,1.735c0,0,.178,4.08.037,5.294s-.846,7.282-.027,9.224l26.851.531Z" fill="none" stroke="#231f20" stroke-linecap="round" stroke-linejoin="round" stroke-width=".5"/><path d="M346.172,244.401c-2.48,2.436-3.307-4.501-3.307-4.501l-2.312-117.948c.048-3.013-1.703-2.697-1.703-2.697l-25.556-.383s-1.918-.148-1.825,3.245l2.701,116.941s-.092,5.754,3.158,5.756l25.977,1.487" fill="none" stroke="#231f20" stroke-linecap="round" stroke-linejoin="round" stroke-width=".5"/><path d="M311.115,78.445l4.011-1.473,25.963.295s3.124-.14,3.797,2.128" fill="none" stroke="#231f20" stroke-linecap="round" stroke-linejoin="round" stroke-width=".5"/><polygon points="326.703 127.798 331.857 122.831 336.942 127.912 332.163 144.618 326.703 127.798" fill="none" stroke="#231f20" stroke-linecap="round" stroke-linejoin="round" stroke-width=".5"/><polygon points="314.662 163.261 319.814 158.414 324.901 163.373 320.129 179.679 314.662 163.261" fill="none" stroke="#231f20" stroke-linecap="round" stroke-linejoin="round" stroke-width=".5"/><polygon points="327.73 163.722 332.883 158.875 337.97 163.834 333.197 180.14 327.73 163.722" fill="none" stroke="#231f20" stroke-linecap="round" stroke-linejoin="round" stroke-width=".5"/><polygon points="331.942 189.571 326.79 194.418 321.703 189.459 326.476 173.153 331.942 189.571" fill="none" stroke="#231f20" stroke-linecap="round" stroke-linejoin="round" stroke-width=".5"/><polygon points="330.914 153.866 325.708 158.656 320.678 153.64 325.633 137.385 330.914 153.866" fill="none" stroke="#231f20" stroke-linecap="round" stroke-linejoin="round" stroke-width=".5"/><polygon points="315.401 198.444 320.53 193.678 325.596 198.554 320.847 214.59 315.401 198.444" fill="none" stroke="#231f20" stroke-linecap="round" stroke-linejoin="round" stroke-width=".5"/><polygon points="328.413 198.898 333.542 194.131 338.608 199.008 333.859 215.044 328.413 198.898" fill="none" stroke="#231f20" stroke-linecap="round" stroke-linejoin="round" stroke-width=".5"/><path d="M318.704,217.521l16.736.795s2.161.395,2.133,2.166l-.056,15.743s.556,2.165-1.808,2.164l-17.13-.795s-1.76-.806-1.726-2.949-.344-14.998-.344-14.998c0,0,.856-2.694,2.196-2.125Z" fill="none" stroke="#231f20" stroke-linecap="round" stroke-linejoin="round" stroke-width=".5"/><polygon points="175.055 157.517 179.782 152.895 184.649 157.663 180.512 173.263 175.055 157.517" fill="none" stroke="#231f20" stroke-linecap="round" stroke-linejoin="round" stroke-width=".5"/><polygon points="187.306 158.009 192.033 153.386 196.9 158.155 192.764 173.754 187.306 158.009" fill="none" stroke="#231f20" stroke-linecap="round" stroke-linejoin="round" stroke-width=".5"/><polygon points="191.782 182.782 187.055 187.404 182.188 182.636 186.324 167.036 191.782 182.782" fill="none" stroke="#231f20" stroke-linecap="round" stroke-linejoin="round" stroke-width=".5"/><polygon points="176.468 191.217 181.175 186.671 186.021 191.361 181.901 206.701 176.468 191.217" fill="none" stroke="#231f20" stroke-linecap="round" stroke-linejoin="round" stroke-width=".5"/><polygon points="188.667 191.701 193.374 187.155 198.22 191.845 194.1 207.185 188.667 191.701" fill="none" stroke="#231f20" stroke-linecap="round" stroke-linejoin="round" stroke-width=".5"/><line x1="172.793" y1="161.658" x2="174.069" y2="196.977" fill="none" stroke="#231f20" stroke-linecap="round" stroke-linejoin="round" stroke-width=".5"/><line x1="-69.29" y1="223.775" x2="568.712" y2="262.824" fill="none" stroke="#231f20" stroke-linecap="round" stroke-linejoin="round" stroke-width=".5"/><path d="M152.209,80.395l-2.951-.061c-.594-.012-1.08-.508-1.08-1.102v-1.291c0-.594.486-1.07,1.08-1.058l2.951.061c.594.012,1.08.508,1.08,1.103v1.291c0,.594-.486,1.07-1.08,1.057Z" fill="none" stroke="#231f20" stroke-linecap="round" stroke-linejoin="round" stroke-width=".5"/><path d="M143.276,80.209l-2.951-.061c-.594-.012-1.08-.508-1.08-1.102v-1.291c0-.594.486-1.07,1.08-1.058l2.951.061c.594.012,1.08.508,1.08,1.103v1.291c0,.594-.486,1.07-1.08,1.057Z" fill="none" stroke="#231f20" stroke-linecap="round" stroke-linejoin="round" stroke-width=".5"/><path d="M186.721,81.396l-2.951-.061c-.594-.012-1.08-.508-1.08-1.102v-1.291c0-.594.486-1.07,1.08-1.058l2.951.061c.594.012,1.08.508,1.08,1.103v1.291c0,.594-.486,1.07-1.08,1.057Z" fill="none" stroke="#231f20" stroke-linecap="round" stroke-linejoin="round" stroke-width=".5"/><path d="M177.789,81.21l-2.951-.061c-.594-.012-1.08-.508-1.08-1.102v-1.291c0-.594.486-1.07,1.08-1.058l2.951.061c.594.012,1.08.508,1.08,1.103v1.291c0,.594-.486,1.07-1.08,1.057Z" fill="none" stroke="#231f20" stroke-linecap="round" stroke-linejoin="round" stroke-width=".5"/><path d="M221.252,82.61l-2.951-.061c-.594-.012-1.08-.508-1.08-1.102v-1.291c0-.594.486-1.07,1.08-1.058l2.951.061c.594.012,1.08.509,1.08,1.103v1.291c0,.594-.486,1.07-1.08,1.057Z" fill="none" stroke="#231f20" stroke-linecap="round" stroke-linejoin="round" stroke-width=".5"/><path d="M212.32,82.424l-2.951-.061c-.594-.012-1.08-.508-1.08-1.102v-1.291c0-.594.486-1.07,1.08-1.058l2.951.061c.594.012,1.08.508,1.08,1.103v1.291c0,.594-.486,1.07-1.08,1.057Z" fill="none" stroke="#231f20" stroke-linecap="round" stroke-linejoin="round" stroke-width=".5"/><path d="M256.819,83.089l-2.951-.061c-.594-.012-1.08-.508-1.08-1.102v-1.291c0-.594.486-1.07,1.08-1.058l2.951.061c.594.012,1.08.508,1.08,1.103v1.291c0,.594-.486,1.07-1.08,1.057Z" fill="none" stroke="#231f20" stroke-linecap="round" stroke-linejoin="round" stroke-width=".5"/><path d="M247.887,82.903l-2.951-.061c-.594-.012-1.08-.508-1.08-1.102v-1.291c0-.594.486-1.07,1.08-1.058l2.951.061c.594.012,1.08.508,1.08,1.103v1.291c0,.594-.486,1.07-1.08,1.057Z" fill="none" stroke="#231f20" stroke-linecap="round" stroke-linejoin="round" stroke-width=".5"/><path d="M293.52,83.859l-2.951-.061c-.594-.012-1.08-.508-1.08-1.102v-1.291c0-.594.486-1.07,1.08-1.057l2.951.061c.594.012,1.08.508,1.08,1.103v1.291c0,.594-.486,1.07-1.08,1.057Z" fill="none" stroke="#231f20" stroke-linecap="round" stroke-linejoin="round" stroke-width=".5"/><path d="M284.588,83.673l-2.951-.061c-.594-.012-1.08-.509-1.08-1.102v-1.291c0-.594.486-1.07,1.08-1.058l2.951.061c.594.012,1.08.508,1.08,1.103v1.291c0,.594-.486,1.07-1.08,1.057Z" fill="none" stroke="#231f20" stroke-linecap="round" stroke-linejoin="round" stroke-width=".5"/><path d="M329.921,84.286l-2.951-.061c-.594-.012-1.08-.508-1.08-1.102v-1.291c0-.594.486-1.07,1.08-1.058l2.951.061c.594.012,1.08.508,1.08,1.103v1.291c0,.594-.486,1.07-1.08,1.057Z" fill="none" stroke="#231f20" stroke-linecap="round" stroke-linejoin="round" stroke-width=".5"/><path d="M320.989,84.1l-2.951-.061c-.594-.012-1.08-.508-1.08-1.102v-1.291c0-.594.486-1.07,1.08-1.057l2.951.061c.594.012,1.08.509,1.08,1.102v1.291c0,.594-.486,1.07-1.08,1.057Z" fill="none" stroke="#231f20" stroke-linecap="round" stroke-linejoin="round" stroke-width=".5"/><path d="M-109.357,39.868S-44.247,95.305,25.699,97.537c0,0,32.369,5.581,53.204,17.859,20.835,12.278,33.485,17.487,41.298,23.44s51.344,31.625,67.714,19.719,8.185-29.393,8.185-29.393c0,0-9.301-20.091-40.182-36.462-30.881-16.371-56.181-33.857-56.181-33.857,0,0-14.138-6.697-3.349-28.648,0,0,6.325-9.673,15.998-16.743s10.79-14.51,13.022-16.743,26.788-18.603,30.881-26.416" fill="#fff"/><path d="M-109.357,39.868S-44.247,95.305,25.699,97.537c0,0,32.369,5.581,53.204,17.859,20.835,12.278,33.485,17.487,41.298,23.44s51.344,31.625,67.714,19.719,8.185-29.393,8.185-29.393c0,0-9.301-20.091-40.182-36.462-30.881-16.371-56.181-33.857-56.181-33.857,0,0-14.138-6.697-3.349-28.648,0,0,6.325-9.673,15.998-16.743s10.79-14.51,13.022-16.743,26.788-18.603,30.881-26.416" fill="none" stroke="#fff" stroke-linecap="round" stroke-linejoin="round" stroke-width="3"/><path d="M-109.357,39.868S-44.247,95.305,25.699,97.537c0,0,32.369,5.581,53.204,17.859,20.835,12.278,33.485,17.487,41.298,23.44s51.344,31.625,67.714,19.719,8.185-29.393,8.185-29.393c0,0-9.301-20.091-40.182-36.462-30.881-16.371-56.181-33.857-56.181-33.857,0,0-14.138-6.697-3.349-28.648,0,0,6.325-9.673,15.998-16.743s10.79-14.51,13.022-16.743,26.788-18.603,30.881-26.416" fill="none" stroke="#231f20" stroke-linecap="round" stroke-linejoin="round" stroke-width=".5"/><path d="M145.502,100.514s-15.998,15.626-18.603,30.881" fill="none" stroke="#231f20" stroke-linecap="round" stroke-linejoin="round" stroke-width=".5"/><path d="M154.059,109.443s-.744,9.673-12.278,18.975" fill="none" stroke="#231f20" stroke-linecap="round" stroke-linejoin="round" stroke-width=".5"/><path d="M128.015,93.445s-9.673,7.813-13.022,21.579" fill="none" stroke="#231f20" stroke-linecap="round" stroke-linejoin="round" stroke-width=".5"/><path d="M176.382,161.903c-10.79-3.721-15.626-13.394-15.626-13.394,11.162-11.534,14.882-24.556,14.882-24.556,0,0,8.929,2.976,17.487,4.093l2.976,1.116" fill="none" stroke="#231f20" stroke-linecap="round" stroke-linejoin="round" stroke-width=".5"/><path d="M-128.642,219.615s34.616,14.424,61.3,10.096,59.136-7.933,111.061-8.654c0,0,22.137-.952,48.775-10.514,0,0,20.832-5.464,27.662-6.489s10.928-1.708,28.686-3.757c9.679-1.117,13.778-1.625,17.163-2.243.282-.052.56-.104.835-.157,2.48-.482,4.723-1.383,8.981-2.039,13.701-2.112,21.515,5.123,21.515,5.123,0,0,14.343,12.977-2.049,32.784s-48.835,20.49-48.835,20.49c0,0-14.343,2.732-30.735,11.27s-32.101,11.44-33.126,36.199c0,0-2.049,8.025,5.464,16.563s10.245,21.515,17.075,25.613,14.685,28.003,20.49,32.443" fill="#fff"/><path d="M-128.642,219.615s34.616,14.424,61.3,10.096,59.136-7.933,111.061-8.654c0,0,22.137-.952,48.775-10.514,0,0,20.832-5.464,27.662-6.489s10.928-1.708,28.686-3.757c9.679-1.117,13.778-1.625,17.163-2.243.282-.052.56-.104.835-.157,2.48-.482,4.723-1.383,8.981-2.039,13.701-2.112,21.515,5.123,21.515,5.123,0,0,14.343,12.977-2.049,32.784s-48.835,20.49-48.835,20.49c0,0-14.343,2.732-30.735,11.27s-32.101,11.44-33.126,36.199c0,0-2.049,8.025,5.464,16.563s10.245,21.515,17.075,25.613,14.685,28.003,20.49,32.443" fill="none" stroke="#fff" stroke-linecap="round" stroke-linejoin="round" stroke-width="3"/><path d="M-128.642,219.615s34.616,14.424,61.3,10.096,59.136-7.933,111.061-8.654c0,0,22.137-.952,48.775-10.514,0,0,20.832-5.464,27.662-6.489s10.928-1.708,28.686-3.757c9.679-1.117,13.778-1.625,17.163-2.243.282-.052.56-.104.835-.157,2.48-.482,4.723-1.383,8.981-2.039,13.701-2.112,21.515,5.123,21.515,5.123,0,0,14.343,12.977-2.049,32.784s-48.835,20.49-48.835,20.49c0,0-14.343,2.732-30.735,11.27s-32.101,11.44-33.126,36.199c0,0-2.049,8.025,5.464,16.563s10.245,21.515,17.075,25.613,14.685,28.003,20.49,32.443" fill="none" stroke="#231f20" stroke-linecap="round" stroke-linejoin="round" stroke-width=".5"/><path d="M199.929,204.36c6.489,12.123-1.569,16.94-1.569,16.94-10.605,6.934-21.173,2.391-21.173,2.391-2.732-5.806-14.002-17.417-14.002-17.417,0,0-1.228-5.142,3.655-8.377" fill="none" stroke="#231f20" stroke-linecap="round" stroke-linejoin="round" stroke-width=".5"/><path d="M141.557,207.242s6.411,7.693,6.731,17.309" fill="none" stroke="#231f20" stroke-linecap="round" stroke-linejoin="round" stroke-width=".5"/><path d="M153.417,216.217s6.731,8.655,4.167,19.233" fill="none" stroke="#231f20" stroke-linecap="round" stroke-linejoin="round" stroke-width=".5"/><path d="M134.505,214.294s0,6.09,3.205,17.63" fill="none" stroke="#231f20" stroke-linecap="round" stroke-linejoin="round" stroke-width=".5"/><path d="M76.798,303.85s0-7.437-6.941-16.361" fill="none" stroke="#231f20" stroke-linecap="round" stroke-linejoin="round" stroke-width=".5"/><path d="M88.696,48.526s-5.454-16.361-13.386-19.831" fill="none" stroke="#231f20" stroke-linecap="round" stroke-linejoin="round" stroke-width=".5"/><path d="M79.772,26.712s7.932.992,18.839-7.437" fill="none" stroke="#231f20" stroke-linecap="round" stroke-linejoin="round" stroke-width=".5"/><path d="M64.899,284.019s11.403,2.479,20.823-3.966" fill="none" stroke="#231f20" stroke-linecap="round" stroke-linejoin="round" stroke-width=".5"/></g></svg>