<?xml version="1.0" encoding="UTF-8"?><svg xmlns="http://www.w3.org/2000/svg" width="5.125in" height="4.031in" xmlns:xlink="http://www.w3.org/1999/xlink" viewBox="0 0 369 290.265"><defs><clipPath id="b"><rect x="49.142" y="13.637" width="277.528" height="227.355" fill="none"/></clipPath></defs><g id="a"><g clip-path="url(#b)"><polygon points="224.204 186.248 223.86 182.122 231.769 182.638 239.505 184.701 238.474 186.764 237.614 186.764 236.368 188.397 231.941 187.28 224.204 186.248" fill="#bcbec0"/><polygon points="277.847 81.401 276.41 82.152 275.041 81.283 275.109 79.663 276.546 78.912 277.915 79.781 277.847 81.401" fill="none" stroke="#231f20" stroke-miterlimit="10" stroke-width=".5"/><polygon points="277.894 89.157 276.457 89.908 275.088 89.039 275.156 87.419 276.593 86.668 277.962 87.537 277.894 89.157" fill="none" stroke="#231f20" stroke-miterlimit="10" stroke-width=".5"/><polygon points="277.941 96.913 276.504 97.664 275.135 96.795 275.203 95.175 276.64 94.424 278.009 95.293 277.941 96.913" fill="none" stroke="#231f20" stroke-miterlimit="10" stroke-width=".5"/><polygon points="277.988 104.669 276.551 105.42 275.182 104.551 275.25 102.931 276.687 102.18 278.056 103.049 277.988 104.669" fill="none" stroke="#231f20" stroke-miterlimit="10" stroke-width=".5"/><polygon points="278.035 112.425 276.598 113.176 275.229 112.307 275.297 110.687 276.734 109.936 278.103 110.805 278.035 112.425" fill="none" stroke="#231f20" stroke-miterlimit="10" stroke-width=".5"/><polygon points="278.082 120.181 276.645 120.932 275.276 120.063 275.344 118.443 276.781 117.692 278.15 118.561 278.082 120.181" fill="none" stroke="#231f20" stroke-miterlimit="10" stroke-width=".5"/><polygon points="278.128 127.937 276.691 128.688 275.322 127.819 275.391 126.199 276.828 125.448 278.197 126.317 278.128 127.937" fill="none" stroke="#231f20" stroke-miterlimit="10" stroke-width=".5"/><polygon points="278.175 135.693 276.738 136.444 275.369 135.575 275.437 133.955 276.874 133.204 278.243 134.073 278.175 135.693" fill="none" stroke="#231f20" stroke-miterlimit="10" stroke-width=".5"/><polygon points="278.222 143.449 276.785 144.2 275.416 143.331 275.484 141.711 276.921 140.96 278.29 141.829 278.222 143.449" fill="none" stroke="#231f20" stroke-miterlimit="10" stroke-width=".5"/><polygon points="278.269 151.205 276.832 151.956 275.463 151.087 275.531 149.467 276.968 148.716 278.337 149.585 278.269 151.205" fill="none" stroke="#231f20" stroke-miterlimit="10" stroke-width=".5"/><polygon points="278.644 213.253 277.207 214.004 275.838 213.135 275.906 211.515 277.343 210.764 278.712 211.633 278.644 213.253" fill="none" stroke="#231f20" stroke-miterlimit="10" stroke-width=".5"/><polygon points="278.691 221.009 277.254 221.76 275.885 220.891 275.953 219.271 277.39 218.52 278.759 219.389 278.691 221.009" fill="none" stroke="#231f20" stroke-miterlimit="10" stroke-width=".5"/><polygon points="278.737 228.765 277.3 229.516 275.932 228.647 276 227.027 277.437 226.276 278.806 227.145 278.737 228.765" fill="none" stroke="#231f20" stroke-miterlimit="10" stroke-width=".5"/><polygon points="278.784 236.521 277.347 237.272 275.978 236.403 276.046 234.783 277.483 234.032 278.852 234.901 278.784 236.521" fill="none" stroke="#231f20" stroke-miterlimit="10" stroke-width=".5"/><polygon points="279.807 85.148 278.37 85.899 277.001 85.03 277.069 83.41 278.506 82.659 279.875 83.528 279.807 85.148" fill="none" stroke="#231f20" stroke-miterlimit="10" stroke-width=".5"/><polygon points="279.854 92.904 278.416 93.655 277.048 92.786 277.116 91.166 278.553 90.415 279.922 91.284 279.854 92.904" fill="none" stroke="#231f20" stroke-miterlimit="10" stroke-width=".5"/><polygon points="279.9 100.66 278.463 101.411 277.094 100.542 277.162 98.922 278.6 98.171 279.968 99.04 279.9 100.66" fill="none" stroke="#231f20" stroke-miterlimit="10" stroke-width=".5"/><polygon points="279.947 108.416 278.51 109.167 277.141 108.298 277.209 106.678 278.646 105.927 280.015 106.796 279.947 108.416" fill="none" stroke="#231f20" stroke-miterlimit="10" stroke-width=".5"/><polygon points="279.994 116.172 278.557 116.923 277.188 116.054 277.256 114.434 278.693 113.683 280.062 114.552 279.994 116.172" fill="none" stroke="#231f20" stroke-miterlimit="10" stroke-width=".5"/><polygon points="280.041 123.928 278.604 124.679 277.235 123.81 277.303 122.19 278.74 121.439 280.109 122.308 280.041 123.928" fill="none" stroke="#231f20" stroke-miterlimit="10" stroke-width=".5"/><polygon points="280.088 131.684 278.651 132.435 277.282 131.566 277.35 129.946 278.787 129.195 280.156 130.064 280.088 131.684" fill="none" stroke="#231f20" stroke-miterlimit="10" stroke-width=".5"/><polygon points="280.135 139.44 278.698 140.191 277.329 139.322 277.397 137.702 278.834 136.951 280.203 137.819 280.135 139.44" fill="none" stroke="#231f20" stroke-miterlimit="10" stroke-width=".5"/><polygon points="280.181 147.196 278.744 147.947 277.375 147.078 277.444 145.458 278.881 144.707 280.25 145.575 280.181 147.196" fill="none" stroke="#231f20" stroke-miterlimit="10" stroke-width=".5"/><polygon points="280.603 216.999 279.166 217.751 277.797 216.882 277.865 215.262 279.302 214.51 280.671 215.379 280.603 216.999" fill="none" stroke="#231f20" stroke-miterlimit="10" stroke-width=".5"/><polygon points="280.65 224.755 279.213 225.507 277.844 224.638 277.912 223.018 279.349 222.266 280.718 223.135 280.65 224.755" fill="none" stroke="#231f20" stroke-miterlimit="10" stroke-width=".5"/><polygon points="280.697 232.511 279.26 233.263 277.891 232.394 277.959 230.774 279.396 230.022 280.765 230.891 280.697 232.511" fill="none" stroke="#231f20" stroke-miterlimit="10" stroke-width=".5"/><polygon points="280.744 240.267 279.307 241.019 277.938 240.15 278.006 238.53 279.443 237.778 280.812 238.647 280.744 240.267" fill="none" stroke="#231f20" stroke-miterlimit="10" stroke-width=".5"/><polygon points="281.996 81.376 280.558 82.127 279.19 81.258 279.258 79.638 280.695 78.887 282.064 79.756 281.996 81.376" fill="none" stroke="#231f20" stroke-miterlimit="10" stroke-width=".5"/><polygon points="282.042 89.132 280.605 89.883 279.236 89.014 279.304 87.394 280.741 86.643 282.11 87.512 282.042 89.132" fill="none" stroke="#231f20" stroke-miterlimit="10" stroke-width=".5"/><polygon points="282.089 96.888 280.652 97.639 279.283 96.77 279.351 95.15 280.788 94.399 282.157 95.268 282.089 96.888" fill="none" stroke="#231f20" stroke-miterlimit="10" stroke-width=".5"/><polygon points="282.136 104.644 280.699 105.395 279.33 104.526 279.398 102.906 280.835 102.155 282.204 103.024 282.136 104.644" fill="none" stroke="#231f20" stroke-miterlimit="10" stroke-width=".5"/><polygon points="282.183 112.4 280.746 113.151 279.377 112.282 279.445 110.662 280.882 109.911 282.251 110.78 282.183 112.4" fill="none" stroke="#231f20" stroke-miterlimit="10" stroke-width=".5"/><polygon points="282.23 120.156 280.793 120.907 279.424 120.038 279.492 118.418 280.929 117.667 282.298 118.536 282.23 120.156" fill="none" stroke="#231f20" stroke-miterlimit="10" stroke-width=".5"/><polygon points="282.277 127.912 280.84 128.663 279.471 127.794 279.539 126.174 280.976 125.423 282.345 126.292 282.277 127.912" fill="none" stroke="#231f20" stroke-miterlimit="10" stroke-width=".5"/><polygon points="282.323 135.668 280.886 136.419 279.517 135.55 279.586 133.93 281.023 133.179 282.392 134.048 282.323 135.668" fill="none" stroke="#231f20" stroke-miterlimit="10" stroke-width=".5"/><polygon points="282.37 143.424 280.933 144.175 279.564 143.306 279.632 141.686 281.069 140.935 282.438 141.804 282.37 143.424" fill="none" stroke="#231f20" stroke-miterlimit="10" stroke-width=".5"/><polygon points="282.417 151.18 280.98 151.931 279.611 151.062 279.679 149.442 281.116 148.691 282.485 149.56 282.417 151.18" fill="none" stroke="#231f20" stroke-miterlimit="10" stroke-width=".5"/><polygon points="283.955 85.123 282.518 85.874 281.149 85.005 281.217 83.385 282.654 82.633 284.023 83.502 283.955 85.123" fill="none" stroke="#231f20" stroke-miterlimit="10" stroke-width=".5"/><polygon points="284.002 92.879 282.565 93.63 281.196 92.761 281.264 91.141 282.701 90.389 284.07 91.258 284.002 92.879" fill="none" stroke="#231f20" stroke-miterlimit="10" stroke-width=".5"/><polygon points="284.049 100.634 282.612 101.386 281.243 100.517 281.311 98.897 282.748 98.145 284.117 99.014 284.049 100.634" fill="none" stroke="#231f20" stroke-miterlimit="10" stroke-width=".5"/><polygon points="284.095 108.39 282.658 109.142 281.289 108.273 281.358 106.653 282.795 105.901 284.163 106.77 284.095 108.39" fill="none" stroke="#231f20" stroke-miterlimit="10" stroke-width=".5"/><polygon points="284.142 116.146 282.705 116.898 281.336 116.029 281.404 114.409 282.841 113.657 284.21 114.526 284.142 116.146" fill="none" stroke="#231f20" stroke-miterlimit="10" stroke-width=".5"/><polygon points="284.189 123.902 282.752 124.654 281.383 123.785 281.451 122.165 282.888 121.413 284.257 122.282 284.189 123.902" fill="none" stroke="#231f20" stroke-miterlimit="10" stroke-width=".5"/><polygon points="284.236 131.658 282.799 132.41 281.43 131.541 281.498 129.921 282.935 129.169 284.304 130.038 284.236 131.658" fill="none" stroke="#231f20" stroke-miterlimit="10" stroke-width=".5"/><polygon points="284.283 139.414 282.846 140.166 281.477 139.297 281.545 137.677 282.982 136.925 284.351 137.794 284.283 139.414" fill="none" stroke="#231f20" stroke-miterlimit="10" stroke-width=".5"/><polygon points="284.33 147.17 282.893 147.922 281.524 147.053 281.592 145.433 283.029 144.681 284.398 145.55 284.33 147.17" fill="none" stroke="#231f20" stroke-miterlimit="10" stroke-width=".5"/><polygon points="286.188 81.738 284.751 82.489 283.382 81.62 283.45 80 284.887 79.249 286.256 80.118 286.188 81.738" fill="none" stroke="#231f20" stroke-miterlimit="10" stroke-width=".5"/><polygon points="310.553 99.224 309.116 99.975 307.747 99.106 307.815 97.486 309.253 96.735 310.621 97.604 310.553 99.224" fill="none" stroke="#231f20" stroke-miterlimit="10" stroke-width=".5"/><polygon points="310.6 106.98 309.163 107.731 307.794 106.862 307.862 105.242 309.299 104.491 310.668 105.36 310.6 106.98" fill="none" stroke="#231f20" stroke-miterlimit="10" stroke-width=".5"/><polygon points="310.647 114.736 309.21 115.487 307.841 114.618 307.909 112.998 309.346 112.247 310.715 113.116 310.647 114.736" fill="none" stroke="#231f20" stroke-miterlimit="10" stroke-width=".5"/><polygon points="310.694 122.492 309.257 123.243 307.888 122.374 307.956 120.754 309.393 120.003 310.762 120.872 310.694 122.492" fill="none" stroke="#231f20" stroke-miterlimit="10" stroke-width=".5"/><polygon points="310.741 130.248 309.304 130.999 307.935 130.13 308.003 128.51 309.44 127.759 310.809 128.628 310.741 130.248" fill="none" stroke="#231f20" stroke-miterlimit="10" stroke-width=".5"/><polygon points="310.788 138.004 309.351 138.755 307.982 137.886 308.05 136.266 309.487 135.515 310.856 136.384 310.788 138.004" fill="none" stroke="#231f20" stroke-miterlimit="10" stroke-width=".5"/><polygon points="310.834 145.76 309.397 146.511 308.029 145.642 308.097 144.022 309.534 143.271 310.903 144.14 310.834 145.76" fill="none" stroke="#231f20" stroke-miterlimit="10" stroke-width=".5"/><polygon points="310.881 153.516 309.444 154.267 308.075 153.398 308.143 151.778 309.58 151.027 310.949 151.896 310.881 153.516" fill="none" stroke="#231f20" stroke-miterlimit="10" stroke-width=".5"/><polygon points="310.928 161.272 309.491 162.023 308.122 161.154 308.19 159.534 309.627 158.783 310.996 159.652 310.928 161.272" fill="none" stroke="#231f20" stroke-miterlimit="10" stroke-width=".5"/><polygon points="310.975 169.028 309.538 169.779 308.169 168.91 308.237 167.29 309.674 166.539 311.043 167.408 310.975 169.028" fill="none" stroke="#231f20" stroke-miterlimit="10" stroke-width=".5"/><polygon points="311.022 176.784 309.585 177.535 308.216 176.666 308.284 175.046 309.721 174.295 311.09 175.164 311.022 176.784" fill="none" stroke="#231f20" stroke-miterlimit="10" stroke-width=".5"/><polygon points="311.069 184.54 309.632 185.291 308.263 184.422 308.331 182.802 309.768 182.051 311.137 182.92 311.069 184.54" fill="none" stroke="#231f20" stroke-miterlimit="10" stroke-width=".5"/><polygon points="311.116 192.296 309.679 193.047 308.31 192.178 308.378 190.558 309.815 189.807 311.184 190.676 311.116 192.296" fill="none" stroke="#231f20" stroke-miterlimit="10" stroke-width=".5"/><polygon points="311.162 200.052 309.725 200.803 308.356 199.934 308.425 198.314 309.862 197.563 311.231 198.432 311.162 200.052" fill="none" stroke="#231f20" stroke-miterlimit="10" stroke-width=".5"/><polygon points="311.209 207.808 309.772 208.559 308.403 207.69 308.471 206.07 309.908 205.319 311.277 206.188 311.209 207.808" fill="none" stroke="#231f20" stroke-miterlimit="10" stroke-width=".5"/><polygon points="311.256 215.564 309.819 216.315 308.45 215.446 308.518 213.826 309.955 213.075 311.324 213.944 311.256 215.564" fill="none" stroke="#231f20" stroke-miterlimit="10" stroke-width=".5"/><polygon points="311.303 223.32 309.866 224.071 308.497 223.202 308.565 221.582 310.002 220.831 311.371 221.7 311.303 223.32" fill="none" stroke="#231f20" stroke-miterlimit="10" stroke-width=".5"/><polygon points="311.35 231.076 309.913 231.827 308.544 230.958 308.612 229.338 310.049 228.587 311.418 229.456 311.35 231.076" fill="none" stroke="#231f20" stroke-miterlimit="10" stroke-width=".5"/><polygon points="311.397 238.832 309.96 239.583 308.591 238.714 308.659 237.094 310.096 236.343 311.465 237.212 311.397 238.832" fill="none" stroke="#231f20" stroke-miterlimit="10" stroke-width=".5"/><polygon points="312.962 96.485 311.525 97.236 310.156 96.367 310.224 94.747 311.661 93.996 313.03 94.865 312.962 96.485" fill="none" stroke="#231f20" stroke-miterlimit="10" stroke-width=".5"/><polygon points="313.009 104.241 311.572 104.992 310.203 104.123 310.271 102.503 311.708 101.752 313.077 102.621 313.009 104.241" fill="none" stroke="#231f20" stroke-miterlimit="10" stroke-width=".5"/><polygon points="313.056 111.997 311.619 112.748 310.25 111.879 310.318 110.259 311.755 109.508 313.124 110.377 313.056 111.997" fill="none" stroke="#231f20" stroke-miterlimit="10" stroke-width=".5"/><polygon points="313.103 119.753 311.666 120.504 310.297 119.635 310.365 118.015 311.802 117.264 313.171 118.133 313.103 119.753" fill="none" stroke="#231f20" stroke-miterlimit="10" stroke-width=".5"/><polygon points="313.15 127.509 311.712 128.26 310.344 127.391 310.412 125.771 311.849 125.02 313.218 125.889 313.15 127.509" fill="none" stroke="#231f20" stroke-miterlimit="10" stroke-width=".5"/><polygon points="313.196 135.265 311.759 136.016 310.39 135.147 310.458 133.527 311.895 132.776 313.264 133.645 313.196 135.265" fill="none" stroke="#231f20" stroke-miterlimit="10" stroke-width=".5"/><polygon points="313.243 143.021 311.806 143.772 310.437 142.903 310.505 141.283 311.942 140.532 313.311 141.401 313.243 143.021" fill="none" stroke="#231f20" stroke-miterlimit="10" stroke-width=".5"/><polygon points="313.29 150.777 311.853 151.528 310.484 150.659 310.552 149.039 311.989 148.288 313.358 149.157 313.29 150.777" fill="none" stroke="#231f20" stroke-miterlimit="10" stroke-width=".5"/><polygon points="313.337 158.533 311.9 159.284 310.531 158.415 310.599 156.795 312.036 156.044 313.405 156.913 313.337 158.533" fill="none" stroke="#231f20" stroke-miterlimit="10" stroke-width=".5"/><polygon points="313.384 166.289 311.947 167.04 310.578 166.171 310.646 164.551 312.083 163.8 313.452 164.669 313.384 166.289" fill="none" stroke="#231f20" stroke-miterlimit="10" stroke-width=".5"/><polygon points="313.431 174.045 311.994 174.796 310.625 173.927 310.693 172.307 312.13 171.556 313.499 172.425 313.431 174.045" fill="none" stroke="#231f20" stroke-miterlimit="10" stroke-width=".5"/><polygon points="313.477 181.801 312.04 182.552 310.671 181.683 310.74 180.063 312.177 179.312 313.546 180.181 313.477 181.801" fill="none" stroke="#231f20" stroke-miterlimit="10" stroke-width=".5"/><polygon points="313.524 189.557 312.087 190.308 310.718 189.439 310.786 187.819 312.223 187.068 313.592 187.937 313.524 189.557" fill="none" stroke="#231f20" stroke-miterlimit="10" stroke-width=".5"/><polygon points="313.571 197.313 312.134 198.064 310.765 197.195 310.833 195.575 312.27 194.824 313.639 195.693 313.571 197.313" fill="none" stroke="#231f20" stroke-miterlimit="10" stroke-width=".5"/><polygon points="313.618 205.069 312.181 205.82 310.812 204.951 310.88 203.331 312.317 202.58 313.686 203.449 313.618 205.069" fill="none" stroke="#231f20" stroke-miterlimit="10" stroke-width=".5"/><polygon points="313.665 212.825 312.228 213.576 310.859 212.707 310.927 211.087 312.364 210.336 313.733 211.205 313.665 212.825" fill="none" stroke="#231f20" stroke-miterlimit="10" stroke-width=".5"/><polygon points="313.712 220.581 312.275 221.332 310.906 220.463 310.974 218.843 312.411 218.092 313.78 218.961 313.712 220.581" fill="none" stroke="#231f20" stroke-miterlimit="10" stroke-width=".5"/><polygon points="313.759 228.337 312.322 229.088 310.953 228.219 311.021 226.599 312.458 225.848 313.827 226.717 313.759 228.337" fill="none" stroke="#231f20" stroke-miterlimit="10" stroke-width=".5"/><polygon points="313.805 236.093 312.368 236.844 310.999 235.975 311.068 234.355 312.505 233.604 313.874 234.473 313.805 236.093" fill="none" stroke="#231f20" stroke-miterlimit="10" stroke-width=".5"/><polygon points="314.921 100.232 313.484 100.983 312.115 100.114 312.184 98.494 313.621 97.743 314.99 98.612 314.921 100.232" fill="none" stroke="#231f20" stroke-miterlimit="10" stroke-width=".5"/><polygon points="314.968 107.988 313.531 108.739 312.162 107.87 312.23 106.25 313.667 105.499 315.036 106.368 314.968 107.988" fill="none" stroke="#231f20" stroke-miterlimit="10" stroke-width=".5"/><polygon points="315.015 115.744 313.578 116.495 312.209 115.626 312.277 114.006 313.714 113.255 315.083 114.124 315.015 115.744" fill="none" stroke="#231f20" stroke-miterlimit="10" stroke-width=".5"/><polygon points="315.062 123.5 313.625 124.251 312.256 123.382 312.324 121.762 313.761 121.011 315.13 121.88 315.062 123.5" fill="none" stroke="#231f20" stroke-miterlimit="10" stroke-width=".5"/><polygon points="315.109 131.256 313.672 132.007 312.303 131.138 312.371 129.518 313.808 128.767 315.177 129.636 315.109 131.256" fill="none" stroke="#231f20" stroke-miterlimit="10" stroke-width=".5"/><polygon points="315.156 139.012 313.719 139.763 312.35 138.894 312.418 137.274 313.855 136.523 315.224 137.392 315.156 139.012" fill="none" stroke="#231f20" stroke-miterlimit="10" stroke-width=".5"/><polygon points="315.203 146.768 313.766 147.519 312.397 146.65 312.465 145.03 313.902 144.279 315.271 145.148 315.203 146.768" fill="none" stroke="#231f20" stroke-miterlimit="10" stroke-width=".5"/><polygon points="315.249 154.524 313.812 155.275 312.443 154.406 312.512 152.786 313.949 152.035 315.318 152.904 315.249 154.524" fill="none" stroke="#231f20" stroke-miterlimit="10" stroke-width=".5"/><polygon points="315.296 162.28 313.859 163.031 312.49 162.162 312.558 160.542 313.995 159.791 315.364 160.66 315.296 162.28" fill="none" stroke="#231f20" stroke-miterlimit="10" stroke-width=".5"/><polygon points="315.343 170.036 313.906 170.787 312.537 169.918 312.605 168.298 314.042 167.547 315.411 168.416 315.343 170.036" fill="none" stroke="#231f20" stroke-miterlimit="10" stroke-width=".5"/><polygon points="315.39 177.792 313.953 178.543 312.584 177.674 312.652 176.054 314.089 175.303 315.458 176.172 315.39 177.792" fill="none" stroke="#231f20" stroke-miterlimit="10" stroke-width=".5"/><polygon points="315.437 185.548 314 186.299 312.631 185.43 312.699 183.81 314.136 183.059 315.505 183.928 315.437 185.548" fill="none" stroke="#231f20" stroke-miterlimit="10" stroke-width=".5"/><polygon points="315.484 193.304 314.047 194.055 312.678 193.186 312.746 191.566 314.183 190.815 315.552 191.684 315.484 193.304" fill="none" stroke="#231f20" stroke-miterlimit="10" stroke-width=".5"/><polygon points="315.531 201.06 314.093 201.811 312.725 200.942 312.793 199.322 314.23 198.571 315.599 199.44 315.531 201.06" fill="none" stroke="#231f20" stroke-miterlimit="10" stroke-width=".5"/><polygon points="315.577 208.816 314.14 209.567 312.771 208.698 312.839 207.078 314.277 206.327 315.645 207.196 315.577 208.816" fill="none" stroke="#231f20" stroke-miterlimit="10" stroke-width=".5"/><polygon points="315.624 216.572 314.187 217.323 312.818 216.454 312.886 214.834 314.323 214.083 315.692 214.952 315.624 216.572" fill="none" stroke="#231f20" stroke-miterlimit="10" stroke-width=".5"/><polygon points="315.671 224.328 314.234 225.079 312.865 224.21 312.933 222.59 314.37 221.839 315.739 222.708 315.671 224.328" fill="none" stroke="#231f20" stroke-miterlimit="10" stroke-width=".5"/><polygon points="315.718 232.084 314.281 232.835 312.912 231.966 312.98 230.346 314.417 229.595 315.786 230.464 315.718 232.084" fill="none" stroke="#231f20" stroke-miterlimit="10" stroke-width=".5"/><polygon points="315.765 239.84 314.328 240.591 312.959 239.722 313.027 238.102 314.464 237.351 315.833 238.22 315.765 239.84" fill="none" stroke="#231f20" stroke-miterlimit="10" stroke-width=".5"/><line x1="98.549" y1="193.641" x2="98.426" y2="242.94" fill="none" stroke="#231f20" stroke-miterlimit="10" stroke-width=".5"/><line x1="98.958" y1="29.626" x2="98.67" y2="145.417" fill="none" stroke="#231f20" stroke-miterlimit="10" stroke-width=".5"/><polyline points="330.845 64.463 98.958 29.626 130.965 9.224" fill="none" stroke="#231f20" stroke-linecap="round" stroke-linejoin="round" stroke-width=".5"/><line x1="244.663" y1="51.289" x2="244.815" y2="246.204" fill="none" stroke="#231f20" stroke-miterlimit="10" stroke-width=".5"/><line x1="105.534" y1="242.768" x2="105.405" y2="225.876" fill="none" stroke="#231f20" stroke-linecap="round" stroke-linejoin="round" stroke-width=".5"/><polyline points="229.047 240.148 230.995 240.447 233.316 239.415" fill="none" stroke="#231f20" stroke-linecap="round" stroke-linejoin="round" stroke-width=".5"/><line x1="121.781" y1="223.684" x2="204.968" y2="236.452" fill="none" stroke="#231f20" stroke-linecap="round" stroke-linejoin="round" stroke-width=".5"/><line x1="231.382" y1="238.642" x2="233.703" y2="237.481" fill="none" stroke="#231f20" stroke-linecap="round" stroke-linejoin="round" stroke-width=".5"/><line x1="124.231" y1="222.395" x2="205.6" y2="234.732" fill="none" stroke="#231f20" stroke-linecap="round" stroke-linejoin="round" stroke-width=".5"/><line x1="106.308" y1="194.156" x2="105.921" y2="214.271" fill="none" stroke="#231f20" stroke-linecap="round" stroke-linejoin="round" stroke-width=".5"/><line x1="233.316" y1="189.901" x2="229.755" y2="189.381" fill="none" stroke="#231f20" stroke-linecap="round" stroke-linejoin="round" stroke-width=".5"/><line x1="204.695" y1="151.962" x2="123.457" y2="140.001" fill="none" stroke="#231f20" stroke-linecap="round" stroke-linejoin="round" stroke-width=".5"/><line x1="234.09" y1="156.29" x2="230.601" y2="155.777" fill="none" stroke="#231f20" stroke-linecap="round" stroke-linejoin="round" stroke-width=".5"/><line x1="204.302" y1="129.242" x2="117.957" y2="116.619" fill="none" stroke="#231f20" stroke-linecap="round" stroke-linejoin="round" stroke-width=".5"/><line x1="234.09" y1="133.597" x2="225.399" y2="132.326" fill="none" stroke="#231f20" stroke-linecap="round" stroke-linejoin="round" stroke-width=".5"/><line x1="204.058" y1="102.386" x2="118.822" y2="89.925" fill="none" stroke="#231f20" stroke-linecap="round" stroke-linejoin="round" stroke-width=".5"/><line x1="234.09" y1="106.777" x2="226.097" y2="105.608" fill="none" stroke="#231f20" stroke-linecap="round" stroke-linejoin="round" stroke-width=".5"/><line x1="204.011" y1="75.044" x2="121.325" y2="62.956" fill="none" stroke="#231f20" stroke-linecap="round" stroke-linejoin="round" stroke-width=".5"/><line x1="234.09" y1="79.441" x2="228.696" y2="78.652" fill="none" stroke="#231f20" stroke-linecap="round" stroke-linejoin="round" stroke-width=".5"/><line x1="230.256" y1="128.759" x2="234.133" y2="129.428" fill="none" stroke="#231f20" stroke-linecap="round" stroke-linejoin="round" stroke-width=".5"/><line x1="123.294" y1="113.122" x2="205.476" y2="125.137" fill="none" stroke="#231f20" stroke-linecap="round" stroke-linejoin="round" stroke-width=".5"/><line x1="205.964" y1="98.168" x2="123.133" y2="86.058" fill="none" stroke="#231f20" stroke-linecap="round" stroke-linejoin="round" stroke-width=".5"/><line x1="234.863" y1="102.393" x2="230.07" y2="101.692" fill="none" stroke="#231f20" stroke-linecap="round" stroke-linejoin="round" stroke-width=".5"/><polyline points="230.207 76.663 232.156 76.948 234.283 75.465" fill="none" stroke="#231f20" stroke-linecap="round" stroke-linejoin="round" stroke-width=".5"/><line x1="123.844" y1="61.088" x2="205.596" y2="73.059" fill="none" stroke="#231f20" stroke-linecap="round" stroke-linejoin="round" stroke-width=".5"/><polyline points="106.179 54.383 106.179 34.01 107.597 33.624 107.726 31.56" fill="none" stroke="#231f20" stroke-linecap="round" stroke-linejoin="round" stroke-width=".5"/><line x1="106.214" y1="79.999" x2="106.192" y2="65.386" fill="none" stroke="#231f20" stroke-linecap="round" stroke-linejoin="round" stroke-width=".5"/><line x1="106.253" y1="106.304" x2="106.23" y2="90.832" fill="none" stroke="#231f20" stroke-linecap="round" stroke-linejoin="round" stroke-width=".5"/><line x1="106.292" y1="133.123" x2="106.269" y2="117.65" fill="none" stroke="#231f20" stroke-linecap="round" stroke-linejoin="round" stroke-width=".5"/><path d="M105.148,54.383l16.634,2.45,1.547,1.032v4.126l-5.673,2.708s-4.384,1.547-11.089.516l-.462-.071-6.243-.96s-2.708-1.032-2.837-3.352v-2.063s.387-1.032,2.321-1.934,5.802-2.45,5.802-2.45ZM102.483,56.446c-3.438,1.289-.946,2.837-.946,2.837,0,0,4.642.516,7.221,1.117s7.135-.172,7.135-.172c2.665-1.289-.43-2.493-.43-2.493l-9.026-1.375c-1.719-.344-3.954.086-3.954.086Z" fill="#bcbec0" stroke="#231f20" stroke-linecap="round" stroke-linejoin="round" stroke-width=".5"/><path d="M123.028,58.251l-5.587,2.837s-4.04,1.461-7.737.86-9.8-1.461-9.8-1.461c0,0-3.352-1.547-.559-3.653" fill="none" stroke="#231f20" stroke-linecap="round" stroke-linejoin="round" stroke-width=".5"/><path d="M211.654,70.372l17.407,2.579,1.032.774.129,3.868-5.545,3.224s-4.255,1.032-8.123.516-8.768-1.418-8.768-1.418c0,0-4.384-.129-3.481-5.416,0,0,.774-1.16,2.063-1.805s5.287-2.321,5.287-2.321ZM208.301,72.779c-2.665,1.375.86,2.321.86,2.321,0,0,2.321.258,6.619,1.117s6.877-.602,6.877-.602c2.493-1.117-.258-2.063-.258-2.063l-10.057-1.547c-1.891-.258-4.04.774-4.04.774Z" fill="#bcbec0" stroke="#231f20" stroke-linecap="round" stroke-linejoin="round" stroke-width=".5"/><path d="M229.706,74.326l-4.9,2.407s-4.728,1.719-9.112.86c-4.384-.86-9.37-1.547-9.37-1.547,0,0-2.321-.946-1.203-2.493" fill="none" stroke="#231f20" stroke-linecap="round" stroke-linejoin="round" stroke-width=".5"/><path d="M105.148,80l16.634,2.45,1.547,1.032v4.126l-5.673,2.708s-4.384,1.547-11.089.516l-.462-.071-6.243-.96s-2.708-1.032-2.837-3.352v-2.063s.387-1.032,2.321-1.934,5.802-2.45,5.802-2.45ZM102.483,82.063c-3.438,1.289-.946,2.837-.946,2.837,0,0,4.642.516,7.221,1.117s7.135-.172,7.135-.172c2.665-1.289-.43-2.493-.43-2.493l-9.026-1.375c-1.719-.344-3.954.086-3.954.086Z" fill="#bcbec0" stroke="#231f20" stroke-linecap="round" stroke-linejoin="round" stroke-width=".5"/><path d="M123.028,83.868l-5.587,2.837s-4.04,1.461-7.737.86-9.8-1.461-9.8-1.461c0,0-3.352-1.547-.559-3.653" fill="none" stroke="#231f20" stroke-linecap="round" stroke-linejoin="round" stroke-width=".5"/><path d="M211.654,95.989l17.407,2.579,1.032.774.129,3.868-5.545,3.224s-4.255,1.032-8.123.516-8.768-1.418-8.768-1.418c0,0-4.384-.129-3.481-5.416,0,0,.774-1.16,2.063-1.805s5.287-2.321,5.287-2.321ZM208.301,98.395c-2.665,1.375.86,2.321.86,2.321,0,0,2.321.258,6.619,1.117,4.298.86,6.877-.602,6.877-.602,2.493-1.117-.258-2.063-.258-2.063l-10.057-1.547c-1.891-.258-4.04.774-4.04.774Z" fill="#bcbec0" stroke="#231f20" stroke-linecap="round" stroke-linejoin="round" stroke-width=".5"/><path d="M229.706,99.943l-4.9,2.407s-4.728,1.719-9.112.86c-4.384-.86-9.37-1.547-9.37-1.547,0,0-2.321-.946-1.203-2.493" fill="none" stroke="#231f20" stroke-linecap="round" stroke-linejoin="round" stroke-width=".5"/><path d="M105.148,106.476l16.634,2.45,1.547,1.032v4.126l-5.673,2.708s-4.384,1.547-11.089.516l-.462-.071-6.243-.96s-2.708-1.032-2.837-3.352v-2.063s.387-1.032,2.321-1.934,5.802-2.45,5.802-2.45ZM102.483,108.539c-3.438,1.289-.946,2.837-.946,2.837,0,0,4.642.516,7.221,1.117s7.135-.172,7.135-.172c2.665-1.289-.43-2.493-.43-2.493l-9.026-1.375c-1.719-.344-3.954.086-3.954.086Z" fill="#bcbec0" stroke="#231f20" stroke-linecap="round" stroke-linejoin="round" stroke-width=".5"/><path d="M123.028,110.344l-5.587,2.837s-4.04,1.461-7.737.86-9.8-1.461-9.8-1.461c0,0-3.352-1.547-.559-3.653" fill="none" stroke="#231f20" stroke-linecap="round" stroke-linejoin="round" stroke-width=".5"/><path d="M211.654,122.465l17.407,2.579,1.032.774.129,3.868-5.545,3.224s-4.255,1.032-8.123.516-8.768-1.418-8.768-1.418c0,0-4.384-.129-3.481-5.416,0,0,.774-1.16,2.063-1.805s5.287-2.321,5.287-2.321ZM208.301,124.872c-2.665,1.375.86,2.321.86,2.321,0,0,2.321.258,6.619,1.117s6.877-.602,6.877-.602c2.493-1.117-.258-2.063-.258-2.063l-10.057-1.547c-1.891-.258-4.04.774-4.04.774Z" fill="#bcbec0" stroke="#231f20" stroke-linecap="round" stroke-linejoin="round" stroke-width=".5"/><path d="M229.706,126.419l-4.9,2.407s-4.728,1.719-9.112.86-9.37-1.547-9.37-1.547c0,0-2.321-.946-1.203-2.493" fill="none" stroke="#231f20" stroke-linecap="round" stroke-linejoin="round" stroke-width=".5"/><path d="M211.654,149.457l17.407,2.579,1.032.774.129,3.868-5.545,3.224s-4.255,1.032-8.123.516-8.768-1.418-8.768-1.418c0,0-4.384-.129-3.481-5.416,0,0,.774-1.16,2.063-1.805s5.287-2.321,5.287-2.321ZM208.301,151.863c-2.665,1.375.86,2.321.86,2.321,0,0,2.321.258,6.619,1.117s6.877-.602,6.877-.602c2.493-1.117-.258-2.063-.258-2.063l-10.057-1.547c-1.891-.258-4.04.774-4.04.774Z" fill="#bcbec0" stroke="#231f20" stroke-linecap="round" stroke-linejoin="round" stroke-width=".5"/><path d="M229.706,153.411l-4.9,2.407s-4.728,1.719-9.112.86-9.37-1.547-9.37-1.547c0,0-2.321-.946-1.203-2.493" fill="none" stroke="#231f20" stroke-linecap="round" stroke-linejoin="round" stroke-width=".5"/><line x1="232.327" y1="187.537" x2="193.258" y2="206.019" fill="none" stroke="#231f20" stroke-linecap="round" stroke-linejoin="round" stroke-width=".5"/><line x1="107.082" y1="142.107" x2="66.508" y2="162.738" fill="none" stroke="#231f20" stroke-linecap="round" stroke-linejoin="round" stroke-width=".5"/><polyline points="189.817 205.692 193.258 206.191 193.516 181.305 66.508 162.738 66.069 184.018" fill="none" stroke="#231f20" stroke-linecap="round" stroke-linejoin="round" stroke-width=".5"/><line x1="83.077" y1="190.228" x2="165.393" y2="202.154" fill="none" stroke="#231f20" stroke-linecap="round" stroke-linejoin="round" stroke-width=".5"/><path d="M64.574,184.185l16.634,2.45,1.547,1.032v4.126l-5.673,2.708s-4.384,1.547-11.089.516l-.462-.071-6.243-.96s-2.708-1.032-2.837-3.352v-2.063s.387-1.032,2.321-1.934,5.802-2.45,5.802-2.45ZM61.909,186.248c-3.438,1.289-.946,2.837-.946,2.837,0,0,4.642.516,7.221,1.117s7.135-.172,7.135-.172c2.665-1.289-.43-2.493-.43-2.493l-9.026-1.375c-1.719-.344-3.954.086-3.954.086Z" fill="#bcbec0" stroke="#231f20" stroke-linecap="round" stroke-linejoin="round" stroke-width=".5"/><path d="M82.454,188.053l-5.587,2.837s-4.04,1.461-7.737.86-9.8-1.461-9.8-1.461c0,0-3.352-1.547-.559-3.653" fill="none" stroke="#231f20" stroke-linecap="round" stroke-linejoin="round" stroke-width=".5"/><path d="M171.08,200.174l17.407,2.579,1.032.774.129,3.868-5.545,3.224s-4.255,1.032-8.123.516-8.768-1.418-8.768-1.418c0,0-4.384-.129-3.481-5.416,0,0,.774-1.16,2.063-1.805s5.287-2.321,5.287-2.321ZM167.727,202.581c-2.665,1.375.86,2.321.86,2.321,0,0,2.321.258,6.619,1.117s6.877-.602,6.877-.602c2.493-1.117-.258-2.063-.258-2.063l-10.057-1.547c-1.891-.258-4.04.774-4.04.774Z" fill="#bcbec0" stroke="#231f20" stroke-linecap="round" stroke-linejoin="round" stroke-width=".5"/><path d="M189.132,204.128l-4.9,2.407s-4.728,1.719-9.112.86c-4.384-.86-9.37-1.547-9.37-1.547,0,0-2.321-.946-1.203-2.493" fill="none" stroke="#231f20" stroke-linecap="round" stroke-linejoin="round" stroke-width=".5"/><path d="M231.597,56.016l1.977-2.149,6.619.86s1.547.172,1.547,1.547-.086,12.722-.086,12.722c0,0,.43,1.633-.946,1.977l-7.565-1.117s-.946-.172-.946-1.117v-1.461" fill="#bcbec0" stroke="#231f20" stroke-linecap="round" stroke-linejoin="round" stroke-width=".5"/><polyline points="240.451 70.544 240.365 68.825 239.333 67.965" fill="none" stroke="#231f20" stroke-linecap="round" stroke-linejoin="round" stroke-width=".5"/><path d="M232.714,70.028l-.086,1.633s-.516,1.289,1.805,1.633,7.393.946,7.393.946l2.665-1.547" fill="none" stroke="#231f20" stroke-linecap="round" stroke-linejoin="round" stroke-width=".5"/><path d="M236.239,73.896v1.633s-.086,1.891,1.289,2.235,4.642.602,4.642.602v-4.212" fill="none" stroke="#231f20" stroke-linecap="round" stroke-linejoin="round" stroke-width=".5"/><path d="M232.113,94.269c-.258,2.063.688,2.665.688,2.665l7.651,1.032c.86-.172,1.203-.602,1.203-.602,0,0-.086-10.143,0-12.894s-1.805-2.751-1.805-2.751l-5.759-.86-2.579,2.493" fill="#bcbec0" stroke="#231f20" stroke-linecap="round" stroke-linejoin="round" stroke-width=".5"/><polyline points="239.161 94.957 240.365 95.473 240.537 97.536" fill="none" stroke="#231f20" stroke-linecap="round" stroke-linejoin="round" stroke-width=".5"/><path d="M232.714,97.106l-.086,1.633s-.516,1.289,1.805,1.633,7.393.946,7.393.946l2.665-1.547" fill="none" stroke="#231f20" stroke-linecap="round" stroke-linejoin="round" stroke-width=".5"/><path d="M236.239,100.974v1.633s-.086,1.891,1.289,2.235,4.642.602,4.642.602v-4.212" fill="none" stroke="#231f20" stroke-linecap="round" stroke-linejoin="round" stroke-width=".5"/><path d="M231.941,121.433c-.258,2.063.688,2.665.688,2.665l7.651,1.032c.86-.172,1.203-.602,1.203-.602,0,0-.086-10.143,0-12.894.086-2.751-1.805-2.751-1.805-2.751l-5.759-.86-2.493,2.149" fill="#bcbec0" stroke="#231f20" stroke-linecap="round" stroke-linejoin="round" stroke-width=".5"/><path d="M232.542,110.086l4.814.688s2.149.344,2.063,1.547-.172,8.252-.172,8.252c0,0,.602,1.461-1.375,1.547l-4.986-.602s-1.891-.086-1.891-2.149l.086-7.994s0-1.289,1.461-1.289Z" fill="#bcbec0" stroke="#231f20" stroke-linecap="round" stroke-linejoin="round" stroke-width=".5"/><polyline points="238.989 122.121 240.193 122.637 240.365 124.7" fill="none" stroke="#231f20" stroke-linecap="round" stroke-linejoin="round" stroke-width=".5"/><path d="M232.542,124.27l-.086,1.633s-.516,1.289,1.805,1.633,7.393.946,7.393.946l2.665-1.547" fill="none" stroke="#231f20" stroke-linecap="round" stroke-linejoin="round" stroke-width=".5"/><path d="M236.067,128.138v1.633s-.086,1.891,1.289,2.235,4.642.602,4.642.602v-4.212" fill="none" stroke="#231f20" stroke-linecap="round" stroke-linejoin="round" stroke-width=".5"/><path d="M231.941,148.511c-.258,2.063.688,2.665.688,2.665l7.651,1.032c.86-.172,1.203-.602,1.203-.602,0,0-.086-10.143,0-12.894.086-2.751-1.805-2.751-1.805-2.751l-5.759-.86-2.493,2.149" fill="#bcbec0" stroke="#231f20" stroke-linecap="round" stroke-linejoin="round" stroke-width=".5"/><path d="M232.542,137.164l4.814.688s2.106-.043,2.063,1.547c-.033,1.206-.172,8.252-.172,8.252,0,0,.258,1.547-1.375,1.547l-4.986-.602s-1.891-.086-1.891-2.149l.086-7.994s0-1.289,1.461-1.289Z" fill="#bcbec0" stroke="#231f20" stroke-linecap="round" stroke-linejoin="round" stroke-width=".5"/><polyline points="238.989 149.199 240.193 149.714 240.365 151.777" fill="none" stroke="#231f20" stroke-linecap="round" stroke-linejoin="round" stroke-width=".5"/><path d="M232.542,151.348l-.086,1.633s-.516,1.289,1.805,1.633,7.393.946,7.393.946l2.665-1.547" fill="none" stroke="#231f20" stroke-linecap="round" stroke-linejoin="round" stroke-width=".5"/><path d="M236.067,155.216v1.633s-.086,1.891,1.289,2.235,4.642.602,4.642.602v-4.212" fill="none" stroke="#231f20" stroke-linecap="round" stroke-linejoin="round" stroke-width=".5"/><path d="M231.511,222.137c-.258,2.063.688,2.665.688,2.665l7.651,1.032c.86-.172,1.203-.602,1.203-.602,0,0-.086-17.837,0-20.588.086-2.751-1.805-2.751-1.805-2.751l-5.759-.86-2.45,2.321" fill="#bcbec0" stroke="#231f20" stroke-linecap="round" stroke-linejoin="round" stroke-width=".5"/><path d="M232.113,203.096l4.814.688s.989.086,1.504.344c.398.199.592.743.559,1.203-.086,1.203-.172,15.946-.172,15.946,0,0,.215,1.805-1.375,1.547l-4.986-.602s-1.891-.086-1.891-2.149l.086-15.688s0-1.289,1.461-1.289Z" fill="#bcbec0" stroke="#231f20" stroke-linecap="round" stroke-linejoin="round" stroke-width=".5"/><polyline points="238.56 222.825 239.763 223.34 239.935 225.403" fill="none" stroke="#231f20" stroke-linecap="round" stroke-linejoin="round" stroke-width=".5"/><path d="M232.113,224.845l-.086,4.556s-.516,1.289,1.805,1.633c2.321.344,7.393.946,7.393.946l2.665-1.547" fill="none" stroke="#231f20" stroke-linecap="round" stroke-linejoin="round" stroke-width=".5"/><path d="M235.637,231.636v1.633s-.086,1.891,1.289,2.235,4.642.602,4.642.602v-4.212" fill="none" stroke="#231f20" stroke-linecap="round" stroke-linejoin="round" stroke-width=".5"/><line x1="244.663" y1="80.601" x2="234.519" y2="79.484" fill="none" stroke="#231f20" stroke-linecap="round" stroke-linejoin="round" stroke-width=".5"/><polyline points="244.921 61.088 256.787 62.873 256.719 58.509 257.364 58.187 261.877 58.896 262.521 59.219 262.411 63.719 334.399 74.548" fill="none" stroke="#231f20" stroke-linecap="round" stroke-linejoin="round" stroke-width=".5"/><line x1="320.481" y1="72.951" x2="319.627" y2="246.2" fill="none" stroke="#231f20" stroke-linecap="round" stroke-linejoin="round" stroke-width=".5"/><line x1="233.703" y1="238.126" x2="244.663" y2="239.544" fill="none" stroke="#231f20" stroke-linecap="round" stroke-linejoin="round" stroke-width=".5"/><line x1="234.09" y1="189.901" x2="244.792" y2="191.32" fill="none" stroke="#231f20" stroke-linecap="round" stroke-linejoin="round" stroke-width=".5"/><line x1="234.605" y1="160.374" x2="244.663" y2="161.921" fill="none" stroke="#231f20" stroke-linecap="round" stroke-linejoin="round" stroke-width=".5"/><line x1="234.734" y1="133.812" x2="244.663" y2="135.23" fill="none" stroke="#231f20" stroke-linecap="round" stroke-linejoin="round" stroke-width=".5"/><line x1="234.863" y1="106.734" x2="244.405" y2="108.023" fill="none" stroke="#231f20" stroke-linecap="round" stroke-linejoin="round" stroke-width=".5"/><line x1="233.695" y1="231.163" x2="233.647" y2="242.124" fill="none" stroke="#231f20" stroke-linecap="round" stroke-linejoin="round" stroke-width=".5"/><line x1="233.832" y1="187.795" x2="233.826" y2="200.925" fill="none" stroke="#231f20" stroke-linecap="round" stroke-linejoin="round" stroke-width=".5"/><line x1="234.011" y1="168.368" x2="234.004" y2="173.87" fill="none" stroke="#231f20" stroke-linecap="round" stroke-linejoin="round" stroke-width=".5"/><line x1="234.028" y1="154.635" x2="234.015" y2="164.585" fill="none" stroke="#231f20" stroke-linecap="round" stroke-linejoin="round" stroke-width=".5"/><line x1="234.145" y1="127.557" x2="234.112" y2="135.166" fill="none" stroke="#231f20" stroke-linecap="round" stroke-linejoin="round" stroke-width=".5"/><line x1="234.264" y1="100.352" x2="234.23" y2="108.023" fill="none" stroke="#231f20" stroke-linecap="round" stroke-linejoin="round" stroke-width=".5"/><line x1="234.381" y1="73.273" x2="234.348" y2="80.881" fill="none" stroke="#231f20" stroke-linecap="round" stroke-linejoin="round" stroke-width=".5"/><line x1="234.477" y1="50.257" x2="234.466" y2="53.868" fill="none" stroke="#231f20" stroke-linecap="round" stroke-linejoin="round" stroke-width=".5"/><path d="M241.182,181.262l.427-6.315.28-4.135.453-6.7-4.32-.129-3.739,1.805s-.451,1.225.193,1.741c0,0,2.321.193,2.514,2.45,0,0,.322,3.095-.838,3.739l-1.032,1.16-1.354-.129-.516.774s-.838,3.352-5.029,3.288l-1.934-.193-.645,1.16" fill="#fefefe" stroke="#231f20" stroke-linecap="round" stroke-linejoin="round" stroke-width=".5"/><polyline points="241.246 176.234 238.796 175.911 235.121 174.88" fill="#fefefe" stroke="#231f20" stroke-linecap="round" stroke-linejoin="round" stroke-width=".5"/><path d="M223.731,181.735l.43-1.891,8.446,1.096.709.451,1.676.129s.709-1.418,1.741-1.032,5.416,1.354,5.416,1.354l-.516,2.708-.58.58-.903-.258" fill="#bcbec0" stroke="#231f20" stroke-linecap="round" stroke-linejoin="round" stroke-width=".5"/><path d="M242.084,165.402l-1.547,1.16s-.404.087-.693.328c-.322.269-.502.73.178,1.477,0,0,1.676.645,1.676,3.095" fill="#fefefe" stroke="#231f20" stroke-linecap="round" stroke-linejoin="round" stroke-width=".5"/><line x1="234.219" y1="166.047" x2="239.843" y2="166.891" fill="#fefefe" stroke="#231f20" stroke-linecap="round" stroke-linejoin="round" stroke-width=".5"/><polyline points="241.889 170.813 244.405 169.915 244.276 173.397 241.826 174.428" fill="#fefefe" stroke="#231f20" stroke-linecap="round" stroke-linejoin="round" stroke-width=".5"/><line x1="232.156" y1="172.666" x2="233.144" y2="171.506" fill="#fefefe" stroke="#231f20" stroke-linecap="round" stroke-linejoin="round" stroke-width=".5"/><polyline points="230.05 172.709 232.027 171.334 233.316 171.334 233.703 173.139 232.413 175.46 230.866 174.944" fill="#fefefe" stroke="#231f20" stroke-linecap="round" stroke-linejoin="round" stroke-width=".5"/><path d="M228.091,179.006s1.225-.516,1.16-2.514l-.903-1.032,1.547-2.643,1.999.064-1.741,2.579.58.903s-.903,2.321.645,3.288" fill="#fefefe" stroke="#231f20" stroke-linecap="round" stroke-linejoin="round" stroke-width=".5"/><polyline points="228.803 180.037 228.481 178.039 232.865 178.554 232.22 180.553" fill="#fefefe" stroke="#231f20" stroke-linecap="round" stroke-linejoin="round" stroke-width=".5"/><path d="M239.892,184.873l-1.418,1.934-1.032.129-1.032,1.547-2.708-.645s-.645-.387-3.352-.645-6.189-1.032-6.189-1.032l-.387-4.255,7.479.903s1.547.258,2.966.645,5.673,1.418,5.673,1.418Z" fill="none" stroke="#231f20" stroke-linecap="round" stroke-linejoin="round" stroke-width=".5"/><line x1="234.09" y1="160.675" x2="193.516" y2="181.305" fill="none" stroke="#231f20" stroke-linecap="round" stroke-linejoin="round" stroke-width=".5"/><path d="M105.148,133.468l16.634,2.45,1.547,1.032v4.126l-5.673,2.708s-4.384,1.547-11.089.516l-.462-.071-6.243-.96s-2.708-1.032-2.837-3.352v-2.063s.387-1.032,2.321-1.934,5.802-2.45,5.802-2.45ZM102.483,135.531c-3.438,1.289-.946,2.837-.946,2.837,0,0,4.642.516,7.221,1.117s7.135-.172,7.135-.172c2.665-1.289-.43-2.493-.43-2.493l-9.026-1.375c-1.719-.344-3.954.086-3.954.086Z" fill="#bcbec0" stroke="#231f20" stroke-linecap="round" stroke-linejoin="round" stroke-width=".5"/><path d="M123.028,137.336l-5.587,2.837s-4.04,1.461-7.737.86-9.8-1.461-9.8-1.461c0,0-3.352-1.547-.559-3.653" fill="none" stroke="#231f20" stroke-linecap="round" stroke-linejoin="round" stroke-width=".5"/><path d="M212.728,231.249l16.634,2.45,1.547,1.032v4.126l-5.673,2.708s-4.384,1.547-11.089.516l-.462-.071-6.243-.96s-2.708-1.032-2.837-3.352v-2.063s.387-1.032,2.321-1.934,5.802-2.45,5.802-2.45ZM210.063,233.312c-3.438,1.289-.946,2.837-.946,2.837,0,0,4.642.516,7.221,1.117s7.135-.172,7.135-.172c2.665-1.289-.43-2.493-.43-2.493l-9.026-1.375c-1.719-.344-3.954.086-3.954.086Z" fill="#bcbec0" stroke="#231f20" stroke-linecap="round" stroke-linejoin="round" stroke-width=".5"/><path d="M230.608,235.117l-5.587,2.837s-4.04,1.461-7.737.86-9.8-1.461-9.8-1.461c0,0-3.352-1.547-.559-3.653" fill="none" stroke="#231f20" stroke-linecap="round" stroke-linejoin="round" stroke-width=".5"/><path d="M105.792,215.088l16.634,2.45,1.547,1.032v4.126l-5.673,2.708s-4.384,1.547-11.089.516l-.462-.071-6.243-.96s-2.708-1.032-2.837-3.352v-2.063s.387-1.032,2.321-1.934,5.802-2.45,5.802-2.45ZM103.127,217.151c-3.438,1.289-.946,2.837-.946,2.837,0,0,4.642.516,7.221,1.117s7.135-.172,7.135-.172c2.665-1.289-.43-2.493-.43-2.493l-9.026-1.375c-1.719-.344-3.954.086-3.954.086Z" fill="#bcbec0" stroke="#231f20" stroke-linecap="round" stroke-linejoin="round" stroke-width=".5"/><path d="M123.672,218.956l-5.587,2.837s-4.04,1.461-7.737.86c-3.696-.602-9.8-1.461-9.8-1.461,0,0-3.352-1.547-.559-3.653" fill="none" stroke="#231f20" stroke-linecap="round" stroke-linejoin="round" stroke-width=".5"/><path d="M245.866,247.529V70.028s-.688-3.438,2.751-2.751c2.089.418,26.527,4.01,45.379,6.764" fill="none" stroke="#231f20" stroke-miterlimit="10" stroke-width=".5"/><path d="M308.793,76.199c4.436.646,7.218,1.05,7.218,1.05,0,0,2.407.344,2.407,5.158,0,2.577-.197,87.328-.38,165.538" fill="none" stroke="#231f20" stroke-miterlimit="10" stroke-width=".5"/><polygon points="254.119 79.14 259.792 80 259.792 95.129 254.291 94.269 254.119 79.14" fill="none" stroke="#231f20" stroke-miterlimit="10" stroke-width=".5"/><polygon points="256.01 106.648 263.403 107.507 263.231 121.605 256.01 120.573 255.945 117.5 254.291 117.35 254.291 115.48 252.915 115.244 253.109 111.182 254.463 111.182 254.699 109.57 255.945 109.635 256.01 106.648" fill="none" stroke="#231f20" stroke-linecap="round" stroke-linejoin="round" stroke-width=".5"/><polygon points="252.013 103.639 265.809 105.444 265.809 123.84 251.884 121.949 252.013 103.639" fill="none" stroke="#231f20" stroke-linecap="round" stroke-linejoin="round" stroke-width=".5"/><polygon points="252.657 131.62 265.616 133.489 265.358 150.896 252.335 149.22 252.657 131.62" fill="none" stroke="#231f20" stroke-miterlimit="10" stroke-width=".5"/><polyline points="252.593 141.613 253.753 141.741 253.818 144.449 255.365 144.643 255.365 147.673 262.779 148.382 262.715 134.908 255.687 134.069 255.687 136.648 253.753 136.648 253.624 138.453 252.657 138.453" fill="none" stroke="#231f20" stroke-linecap="round" stroke-linejoin="round" stroke-width=".5"/><polygon points="252.399 157.709 254.634 157.709 254.634 166.305 252.228 166.133 252.399 157.709" fill="none" stroke="#231f20" stroke-linecap="round" stroke-linejoin="round" stroke-width=".5"/><path d="M246.382,194.328l23.21,3.438s1.547.172,1.547-3.61.172-123.441.172-123.441" fill="none" stroke="#231f20" stroke-linecap="round" stroke-linejoin="round" stroke-width=".5"/><path d="M251.024,62.636s-2.751-.172-2.751,1.032l-.172,2.751,46.591,6.533s2.579-.344-1.719,2.579" fill="none" stroke="#231f20" stroke-linecap="round" stroke-linejoin="round" stroke-width=".5"/><path d="M249.477,63.323s-2.235,1.203,1.032,1.547,45.044,6.705,45.044,6.705c0,0,5.845.516-4.126,4.986,0,0-4.47.172-4.126,7.049h-1.375l-1.032,71.52v109.07s21.829-1.209,21.829-1.209c.28-78.068.662-173.851.865-176.286.344-4.126-1.891-3.782-1.891-3.782-3.954,2.579-6.533,1.547-6.533,1.547-.516-3.782,1.719-5.158,1.719-5.158l9.456-4.126c5.502-2.579,2.063-3.438,2.063-3.438" fill="#fff" stroke="#231f20" stroke-linecap="round" stroke-linejoin="round" stroke-width=".5"/><path d="M299.678,157.709s-15.989-.688-15.129-4.642c0,0-10.143.516-9.284,11.003l.172,33.353s-.516,4.298,3.61,10.315c0,0,2.063,5.502,1.375,11.347-.27,2.294-.434,15.922-.533,31.634-.154,24.323,19.97-1.323,19.97-1.323l.507-88.592s.516-2.579-.688-3.095Z" fill="#fff" stroke="#231f20" stroke-linecap="round" stroke-linejoin="round" stroke-width=".5"/><path d="M278.188,175.159l-.086-6.533s1.203-6.275,6.963-5.673c0,0,6.533,1.032,6.791,8.768.258,7.737-.172,23.639-.172,23.639,0,0-1.719,3.954-8.768,3.868,0,0-5.158.86-6.619-7.651l1.461-11.089s.516-3.61.43-5.33Z" fill="none" stroke="#231f20" stroke-linecap="round" stroke-linejoin="round" stroke-width=".5"/><path d="M281.197,176.019l5.931.602s1.203-.43,1.289-2.149-.172-4.04-.172-4.04c0,0-.602-5.244-6.017-4.126,0,0-2.579.774-2.407,4.642s.086,4.47.086,4.47c0,0-.086.688,1.289.602Z" fill="none" stroke="#231f20" stroke-linecap="round" stroke-linejoin="round" stroke-width=".5"/><path d="M278.532,168.626s1.891-4.986,5.931-4.04,5.158,4.556,5.158,4.986.172,8.596.172,8.596l-1.977,10.917-.086,1.461s-.086,7.994-4.47,8.51" fill="none" stroke="#231f20" stroke-linecap="round" stroke-linejoin="round" stroke-width=".5"/><line x1="278.36" y1="185.646" x2="286.698" y2="186.764" fill="none" stroke="#231f20" stroke-linecap="round" stroke-linejoin="round"/><line x1="278.704" y1="182.81" x2="287.386" y2="184.271" fill="none" stroke="#231f20" stroke-linecap="round" stroke-linejoin="round"/><line x1="279.219" y1="180.489" x2="287.816" y2="181.692" fill="none" stroke="#231f20" stroke-linecap="round" stroke-linejoin="round"/><line x1="279.477" y1="177.652" x2="288.417" y2="178.855" fill="none" stroke="#231f20" stroke-linecap="round" stroke-linejoin="round"/><path d="M276.813,195.016s0,7.049,5.072,9.37c0,0,6.447,2.493,9.456-3.009,0,0,.516-4.9.344-6.017" fill="none" stroke="#231f20" stroke-linecap="round" stroke-linejoin="round" stroke-width=".5"/><polygon points="252.081 201.163 250.644 201.914 249.275 201.045 249.343 199.425 250.78 198.674 252.149 199.543 252.081 201.163" fill="none" stroke="#231f20" stroke-miterlimit="10" stroke-width=".5"/><polygon points="252.128 208.919 250.691 209.67 249.322 208.801 249.39 207.181 250.827 206.43 252.196 207.299 252.128 208.919" fill="none" stroke="#231f20" stroke-miterlimit="10" stroke-width=".5"/><polygon points="252.175 216.675 250.738 217.426 249.369 216.557 249.437 214.937 250.874 214.186 252.243 215.055 252.175 216.675" fill="none" stroke="#231f20" stroke-miterlimit="10" stroke-width=".5"/><polygon points="252.222 224.431 250.785 225.182 249.416 224.313 249.484 222.693 250.921 221.942 252.29 222.811 252.222 224.431" fill="none" stroke="#231f20" stroke-miterlimit="10" stroke-width=".5"/><polygon points="252.269 232.187 250.832 232.938 249.463 232.069 249.531 230.449 250.968 229.698 252.337 230.567 252.269 232.187" fill="none" stroke="#231f20" stroke-miterlimit="10" stroke-width=".5"/><polygon points="252.315 239.943 250.878 240.694 249.51 239.825 249.578 238.205 251.015 237.454 252.384 238.323 252.315 239.943" fill="none" stroke="#231f20" stroke-miterlimit="10" stroke-width=".5"/><polygon points="254.041 204.91 252.604 205.661 251.235 204.792 251.303 203.172 252.74 202.421 254.109 203.29 254.041 204.91" fill="none" stroke="#231f20" stroke-miterlimit="10" stroke-width=".5"/><polygon points="254.087 212.666 252.65 213.417 251.281 212.548 251.35 210.928 252.787 210.177 254.156 211.046 254.087 212.666" fill="none" stroke="#231f20" stroke-miterlimit="10" stroke-width=".5"/><polygon points="254.134 220.422 252.697 221.173 251.328 220.304 251.396 218.684 252.833 217.933 254.202 218.802 254.134 220.422" fill="none" stroke="#231f20" stroke-miterlimit="10" stroke-width=".5"/><polygon points="254.181 228.178 252.744 228.929 251.375 228.06 251.443 226.44 252.88 225.689 254.249 226.558 254.181 228.178" fill="none" stroke="#231f20" stroke-miterlimit="10" stroke-width=".5"/><polygon points="254.228 235.934 252.791 236.685 251.422 235.816 251.49 234.196 252.927 233.445 254.296 234.314 254.228 235.934" fill="none" stroke="#231f20" stroke-miterlimit="10" stroke-width=".5"/><polygon points="256.229 201.138 254.792 201.889 253.423 201.02 253.492 199.4 254.929 198.649 256.298 199.518 256.229 201.138" fill="none" stroke="#231f20" stroke-miterlimit="10" stroke-width=".5"/><polygon points="256.276 208.894 254.839 209.645 253.47 208.776 253.538 207.156 254.975 206.405 256.344 207.274 256.276 208.894" fill="none" stroke="#231f20" stroke-miterlimit="10" stroke-width=".5"/><polygon points="256.323 216.65 254.886 217.401 253.517 216.532 253.585 214.912 255.022 214.161 256.391 215.03 256.323 216.65" fill="none" stroke="#231f20" stroke-miterlimit="10" stroke-width=".5"/><polygon points="256.37 224.406 254.933 225.157 253.564 224.288 253.632 222.668 255.069 221.917 256.438 222.786 256.37 224.406" fill="none" stroke="#231f20" stroke-miterlimit="10" stroke-width=".5"/><polygon points="256.417 232.162 254.98 232.913 253.611 232.044 253.679 230.424 255.116 229.673 256.485 230.542 256.417 232.162" fill="none" stroke="#231f20" stroke-miterlimit="10" stroke-width=".5"/><polygon points="256.464 239.918 255.027 240.669 253.658 239.8 253.726 238.18 255.163 237.429 256.532 238.298 256.464 239.918" fill="none" stroke="#231f20" stroke-miterlimit="10" stroke-width=".5"/><polygon points="258.189 204.885 256.752 205.636 255.383 204.767 255.451 203.147 256.888 202.396 258.257 203.265 258.189 204.885" fill="none" stroke="#231f20" stroke-miterlimit="10" stroke-width=".5"/><polygon points="258.236 212.641 256.799 213.392 255.43 212.523 255.498 210.903 256.935 210.152 258.304 211.021 258.236 212.641" fill="none" stroke="#231f20" stroke-miterlimit="10" stroke-width=".5"/><polygon points="258.282 220.397 256.845 221.148 255.477 220.279 255.545 218.659 256.982 217.908 258.351 218.777 258.282 220.397" fill="none" stroke="#231f20" stroke-miterlimit="10" stroke-width=".5"/><polygon points="258.329 228.153 256.892 228.904 255.523 228.035 255.591 226.415 257.028 225.664 258.397 226.533 258.329 228.153" fill="none" stroke="#231f20" stroke-miterlimit="10" stroke-width=".5"/><polygon points="258.376 235.909 256.939 236.66 255.57 235.791 255.638 234.171 257.075 233.42 258.444 234.289 258.376 235.909" fill="none" stroke="#231f20" stroke-miterlimit="10" stroke-width=".5"/><polygon points="260.598 202.146 259.16 202.897 257.792 202.028 257.86 200.408 259.297 199.657 260.666 200.526 260.598 202.146" fill="none" stroke="#231f20" stroke-miterlimit="10" stroke-width=".5"/><polygon points="260.644 209.902 259.207 210.653 257.838 209.784 257.906 208.164 259.343 207.413 260.712 208.282 260.644 209.902" fill="none" stroke="#231f20" stroke-miterlimit="10" stroke-width=".5"/><polygon points="260.691 217.658 259.254 218.409 257.885 217.54 257.953 215.92 259.39 215.169 260.759 216.038 260.691 217.658" fill="none" stroke="#231f20" stroke-miterlimit="10" stroke-width=".5"/><polygon points="260.738 225.414 259.301 226.165 257.932 225.296 258 223.676 259.437 222.925 260.806 223.794 260.738 225.414" fill="none" stroke="#231f20" stroke-miterlimit="10" stroke-width=".5"/><polygon points="260.785 233.17 259.348 233.921 257.979 233.052 258.047 231.432 259.484 230.681 260.853 231.55 260.785 233.17" fill="none" stroke="#231f20" stroke-miterlimit="10" stroke-width=".5"/><polygon points="260.832 240.926 259.395 241.677 258.026 240.808 258.094 239.188 259.531 238.437 260.9 239.306 260.832 240.926" fill="none" stroke="#231f20" stroke-miterlimit="10" stroke-width=".5"/><polygon points="262.557 205.893 261.12 206.644 259.751 205.775 259.819 204.155 261.256 203.404 262.625 204.273 262.557 205.893" fill="none" stroke="#231f20" stroke-miterlimit="10" stroke-width=".5"/><polygon points="262.604 213.649 261.167 214.4 259.798 213.531 259.866 211.911 261.303 211.16 262.672 212.029 262.604 213.649" fill="none" stroke="#231f20" stroke-miterlimit="10" stroke-width=".5"/><polygon points="262.651 221.405 261.214 222.156 259.845 221.287 259.913 219.667 261.35 218.916 262.719 219.785 262.651 221.405" fill="none" stroke="#231f20" stroke-miterlimit="10" stroke-width=".5"/><polygon points="262.697 229.161 261.26 229.912 259.891 229.043 259.96 227.423 261.397 226.672 262.766 227.541 262.697 229.161" fill="none" stroke="#231f20" stroke-miterlimit="10" stroke-width=".5"/><polygon points="262.744 236.917 261.307 237.668 259.938 236.799 260.006 235.179 261.443 234.428 262.812 235.297 262.744 236.917" fill="none" stroke="#231f20" stroke-miterlimit="10" stroke-width=".5"/><polygon points="264.966 203.154 263.529 203.906 262.16 203.037 262.228 201.417 263.665 200.665 265.034 201.534 264.966 203.154" fill="none" stroke="#231f20" stroke-miterlimit="10" stroke-width=".5"/><polygon points="265.012 210.91 263.575 211.662 262.206 210.793 262.275 209.172 263.712 208.421 265.081 209.29 265.012 210.91" fill="none" stroke="#231f20" stroke-miterlimit="10" stroke-width=".5"/><polygon points="265.059 218.666 263.622 219.418 262.253 218.549 262.321 216.928 263.758 216.177 265.127 217.046 265.059 218.666" fill="none" stroke="#231f20" stroke-miterlimit="10" stroke-width=".5"/><polygon points="265.106 226.422 263.669 227.173 262.3 226.305 262.368 224.684 263.805 223.933 265.174 224.802 265.106 226.422" fill="none" stroke="#231f20" stroke-miterlimit="10" stroke-width=".5"/><polygon points="265.153 234.178 263.716 234.929 262.347 234.061 262.415 232.44 263.852 231.689 265.221 232.558 265.153 234.178" fill="none" stroke="#231f20" stroke-miterlimit="10" stroke-width=".5"/><polygon points="265.2 241.934 263.763 242.685 262.394 241.817 262.462 240.196 263.899 239.445 265.268 240.314 265.2 241.934" fill="none" stroke="#231f20" stroke-miterlimit="10" stroke-width=".5"/><polygon points="266.925 206.901 265.488 207.652 264.119 206.783 264.187 205.163 265.624 204.412 266.993 205.281 266.925 206.901" fill="none" stroke="#231f20" stroke-miterlimit="10" stroke-width=".5"/><polygon points="266.972 214.657 265.535 215.408 264.166 214.539 264.234 212.919 265.671 212.168 267.04 213.037 266.972 214.657" fill="none" stroke="#231f20" stroke-miterlimit="10" stroke-width=".5"/><polygon points="267.019 222.413 265.582 223.164 264.213 222.295 264.281 220.675 265.718 219.924 267.087 220.793 267.019 222.413" fill="none" stroke="#231f20" stroke-miterlimit="10" stroke-width=".5"/><polygon points="267.066 230.169 265.628 230.92 264.26 230.051 264.328 228.431 265.765 227.68 267.134 228.549 267.066 230.169" fill="none" stroke="#231f20" stroke-miterlimit="10" stroke-width=".5"/><polygon points="267.112 237.925 265.675 238.676 264.306 237.807 264.374 236.187 265.811 235.436 267.18 236.305 267.112 237.925" fill="none" stroke="#231f20" stroke-miterlimit="10" stroke-width=".5"/><polygon points="269.334 204.163 267.897 204.914 266.528 204.045 266.596 202.425 268.033 201.674 269.402 202.543 269.334 204.163" fill="none" stroke="#231f20" stroke-miterlimit="10" stroke-width=".5"/><polygon points="269.381 211.919 267.943 212.67 266.575 211.801 266.643 210.181 268.08 209.43 269.449 210.299 269.381 211.919" fill="none" stroke="#231f20" stroke-miterlimit="10" stroke-width=".5"/><polygon points="269.427 219.675 267.99 220.426 266.621 219.557 266.689 217.937 268.127 217.186 269.495 218.055 269.427 219.675" fill="none" stroke="#231f20" stroke-miterlimit="10" stroke-width=".5"/><polygon points="269.474 227.431 268.037 228.182 266.668 227.313 266.736 225.693 268.173 224.942 269.542 225.811 269.474 227.431" fill="none" stroke="#231f20" stroke-miterlimit="10" stroke-width=".5"/><polygon points="269.521 235.187 268.084 235.938 266.715 235.069 266.783 233.449 268.22 232.698 269.589 233.567 269.521 235.187" fill="none" stroke="#231f20" stroke-miterlimit="10" stroke-width=".5"/><polygon points="269.568 242.943 268.131 243.694 266.762 242.825 266.83 241.205 268.267 240.454 269.636 241.323 269.568 242.943" fill="none" stroke="#231f20" stroke-miterlimit="10" stroke-width=".5"/><polygon points="271.293 207.909 269.856 208.66 268.487 207.791 268.555 206.171 269.992 205.42 271.361 206.289 271.293 207.909" fill="none" stroke="#231f20" stroke-miterlimit="10" stroke-width=".5"/><polygon points="271.34 215.665 269.903 216.416 268.534 215.547 268.602 213.927 270.039 213.176 271.408 214.045 271.34 215.665" fill="none" stroke="#231f20" stroke-miterlimit="10" stroke-width=".5"/><polygon points="271.387 223.421 269.95 224.172 268.581 223.303 268.649 221.683 270.086 220.932 271.455 221.801 271.387 223.421" fill="none" stroke="#231f20" stroke-miterlimit="10" stroke-width=".5"/><polygon points="271.434 231.177 269.997 231.928 268.628 231.059 268.696 229.439 270.133 228.688 271.502 229.557 271.434 231.177" fill="none" stroke="#231f20" stroke-miterlimit="10" stroke-width=".5"/><polygon points="271.48 238.933 270.043 239.684 268.674 238.815 268.743 237.195 270.18 236.444 271.549 237.313 271.48 238.933" fill="none" stroke="#231f20" stroke-miterlimit="10" stroke-width=".5"/><polygon points="273.702 205.171 272.265 205.922 270.896 205.053 270.964 203.433 272.401 202.682 273.77 203.551 273.702 205.171" fill="none" stroke="#231f20" stroke-miterlimit="10" stroke-width=".5"/><polygon points="273.749 212.927 272.312 213.678 270.943 212.809 271.011 211.189 272.448 210.438 273.817 211.307 273.749 212.927" fill="none" stroke="#231f20" stroke-miterlimit="10" stroke-width=".5"/><polygon points="273.795 220.683 272.358 221.434 270.989 220.565 271.058 218.945 272.495 218.194 273.864 219.063 273.795 220.683" fill="none" stroke="#231f20" stroke-miterlimit="10" stroke-width=".5"/><polygon points="273.842 228.439 272.405 229.19 271.036 228.321 271.104 226.701 272.541 225.95 273.91 226.819 273.842 228.439" fill="none" stroke="#231f20" stroke-miterlimit="10" stroke-width=".5"/><polygon points="273.889 236.195 272.452 236.946 271.083 236.077 271.151 234.457 272.588 233.706 273.957 234.575 273.889 236.195" fill="none" stroke="#231f20" stroke-miterlimit="10" stroke-width=".5"/><polygon points="275.661 208.918 274.224 209.669 272.855 208.8 272.923 207.18 274.36 206.429 275.729 207.297 275.661 208.918" fill="none" stroke="#231f20" stroke-miterlimit="10" stroke-width=".5"/><polygon points="275.708 216.674 274.271 217.425 272.902 216.556 272.97 214.936 274.407 214.184 275.776 215.053 275.708 216.674" fill="none" stroke="#231f20" stroke-miterlimit="10" stroke-width=".5"/><polygon points="275.755 224.43 274.318 225.181 272.949 224.312 273.017 222.692 274.454 221.94 275.823 222.809 275.755 224.43" fill="none" stroke="#231f20" stroke-miterlimit="10" stroke-width=".5"/><polygon points="275.802 232.185 274.365 232.937 272.996 232.068 273.064 230.448 274.501 229.696 275.87 230.565 275.802 232.185" fill="none" stroke="#231f20" stroke-miterlimit="10" stroke-width=".5"/><polygon points="275.849 239.941 274.411 240.693 273.043 239.824 273.111 238.204 274.548 237.452 275.917 238.321 275.849 239.941" fill="none" stroke="#231f20" stroke-miterlimit="10" stroke-width=".5"/><path d="M233.336,119.114l-.332.932-.666-.07,1.23-3.283.824.087,1.053,3.524-.693-.073-.292-.998-1.124-.119ZM234.362,118.752l-.253-.868c-.063-.214-.113-.453-.16-.655h-.011c-.059.19-.117.422-.187.617l-.298.809.908.096Z" fill="#231f20"/><path d="M235.944,119.713c.129.09.446.25.771.284.493.052.7-.194.702-.452.012-.389-.361-.595-.756-.637l-.299-.032.013-.454.288.031c.301.032.682-.06.691-.388.006-.222-.162-.428-.534-.467-.278-.029-.56.058-.704.134l-.135-.465c.198-.111.58-.192.99-.148.703.074,1.055.486,1.043.915-.01.344-.229.604-.653.701v.01c.413.115.74.454.728.898-.017.555-.512.943-1.357.854-.415-.044-.77-.193-.949-.329l.161-.454Z" fill="#231f20"/><polygon points="232.972 111.634 237.012 112.149 235.035 114.47 232.972 111.634" fill="#231f20"/><path d="M233.337,146.277l-.333.932-.666-.07,1.231-3.283.824.087,1.052,3.525-.693-.074-.292-.999-1.123-.119ZM234.363,145.915l-.254-.867c-.062-.214-.113-.453-.16-.655h-.011c-.058.19-.117.422-.187.618l-.297.809.908.096Z" fill="#231f20"/><path d="M237.218,147.656l.023-.834-1.544-.163.012-.403,1.451-1.897.762.08-.058,1.979.44.046-.014.469-.44-.047-.023.834-.609-.064ZM237.255,146.353l.026-.895c.005-.186.016-.377.036-.567l-.021-.002c-.111.196-.205.353-.315.522l-.65.833-.005.009.929.099Z" fill="#231f20"/><polygon points="232.972 138.797 237.012 139.313 235.035 141.634 232.972 138.797" fill="#231f20"/><path d="M232.819,219.86l-.332.932-.666-.07,1.231-3.283.824.087,1.052,3.524-.693-.073-.292-.998-1.124-.119ZM233.847,219.499l-.254-.868c-.062-.213-.113-.452-.16-.654h-.011c-.058.19-.117.422-.187.617l-.297.81.908.096Z" fill="#231f20"/><path d="M237.438,218.465c-.094-.01-.198-.021-.331-.019-.717.005-1.075.392-1.172.838h.016c.173-.168.434-.272.775-.236.588.062,1.033.515,1.015,1.181-.019.626-.512,1.121-1.236,1.044-.83-.088-1.269-.742-1.245-1.549.018-.631.269-1.121.635-1.412.323-.25.738-.368,1.228-.356.142,0,.247.011.325.024l-.009.485ZM237.084,220.195c.011-.378-.197-.673-.575-.713-.241-.026-.46.093-.565.279-.028.048-.045.107-.048.192-.003.435.203.812.617.855.336.036.56-.22.571-.614Z" fill="#231f20"/><polygon points="232.542 204.816 236.583 205.331 234.605 207.652 232.542 204.816" fill="#231f20"/><path d="M233.23,56.016s-1.805-.688-1.977,1.117l.086,7.822s-.086,1.891,1.289,2.149,6.017.86,6.017.86c0,0,.602.086.602-1.032s.258-9.284.258-9.284c0,0-.344-.688-1.891-.946s-4.384-.688-4.384-.688Z" fill="#bcbec0" stroke="#231f20" stroke-linecap="round" stroke-linejoin="round" stroke-width=".5"/><line x1="239.333" y1="57.134" x2="241.31" y2="55.157" fill="none" stroke="#231f20" stroke-linecap="round" stroke-linejoin="round" stroke-width=".5"/><path d="M234.11,65.045l-.334.932-.666-.07,1.232-3.283.824.087,1.051,3.525-.693-.074-.291-.998-1.123-.119ZM235.136,64.682l-.254-.868c-.062-.214-.113-.453-.16-.655h-.011c-.058.19-.117.422-.187.617l-.297.81.908.096Z" fill="#231f20"/><path d="M237.659,63.658h-.011s-.633.235-.633.235l-.098-.481.841-.306.541.057-.095,3.281-.624-.066.078-2.721Z" fill="#231f20"/><polygon points="233.058 57.478 237.098 57.994 235.121 60.315 233.058 57.478" fill="#231f20"/><path d="M232.714,82.922l4.814.688s2.149.344,2.063,1.547-.172,8.252-.172,8.252c0,0,.602,1.461-1.375,1.547l-4.986-.602s-1.891-.086-1.891-2.149l.086-7.994s0-1.289,1.461-1.289Z" fill="#bcbec0" stroke="#231f20" stroke-linecap="round" stroke-linejoin="round" stroke-width=".5"/><line x1="239.161" y1="84.212" x2="241.053" y2="82.407" fill="none" stroke="#231f20" stroke-linecap="round" stroke-linejoin="round" stroke-width=".5"/><path d="M233.423,92.037l-.332.932-.666-.071,1.23-3.283.824.087,1.053,3.524-.693-.073-.292-.999-1.124-.119ZM234.449,91.674l-.253-.867c-.063-.214-.113-.453-.16-.655h-.011c-.059.19-.117.422-.187.617l-.298.809.908.096Z" fill="#231f20"/><path d="M235.881,93.264l.011-.379.415-.315c.824-.632,1.213-.986,1.231-1.419.009-.293-.147-.567-.595-.615-.299-.032-.561.087-.737.195l-.177-.459c.253-.166.63-.273,1.061-.227.756.08,1.111.578,1.096,1.113-.017.576-.461.995-1.069,1.462l-.307.216v.01l1.402.148-.015.515-2.316-.245Z" fill="#231f20"/><polygon points="233.058 84.384 237.098 84.9 235.121 87.22 233.058 84.384" fill="#231f20"/><line x1="239.075" y1="111.419" x2="240.795" y2="109.699" fill="#bcbec0" stroke="#231f20" stroke-linecap="round" stroke-linejoin="round" stroke-width=".5"/><line x1="238.989" y1="138.453" x2="240.795" y2="136.476" fill="#bcbec0" stroke="#231f20" stroke-linecap="round" stroke-linejoin="round" stroke-width=".5"/><line x1="240.451" y1="202.495" x2="238.517" y2="204.3" fill="#bcbec0" stroke="#231f20" stroke-linecap="round" stroke-linejoin="round" stroke-width=".5"/></g></g><g id="c"><polygon points="237.614 170.087 255.156 70.894 255.156 33.752 365.593 33.752 365.593 134.253 255.156 134.253 255.156 117.135 237.614 170.087" fill="#fff" fill-rule="evenodd" stroke="#231f20" stroke-linecap="round" stroke-linejoin="round"/><path d="M286.522,26.585c0,6.682-5.417,12.099-12.097,12.099s-12.099-5.417-12.099-12.099,5.417-12.097,12.099-12.097,12.097,5.417,12.097,12.097Z" fill="#231f20" fill-rule="evenodd"/><path d="M276.158,32.49h-1.595v-10.163c-.384.366-.888.732-1.511,1.099s-1.184.641-1.68.824v-1.542c.893-.419,1.672-.927,2.34-1.524.667-.597,1.14-1.176,1.417-1.737h1.028v13.043Z" fill="#fff"/><path d="M343.16,69.566c0,6.682-5.417,12.099-12.097,12.099s-12.099-5.417-12.099-12.099,5.417-12.097,12.099-12.097,12.097,5.417,12.097,12.097Z" fill="#231f20" fill-rule="evenodd"/><path d="M335.172,73.938v1.533h-8.586c-.013-.384.05-.753.186-1.107.219-.585.568-1.161,1.05-1.728s1.177-1.223,2.087-1.967c1.412-1.158,2.366-2.075,2.862-2.751s.744-1.316.744-1.918c0-.632-.226-1.165-.678-1.599-.452-.435-1.041-.651-1.768-.651-.769,0-1.383.23-1.844.691-.46.461-.693,1.099-.699,1.914l-1.64-.168c.112-1.223.534-2.154,1.268-2.795.732-.641,1.716-.961,2.95-.961,1.246,0,2.232.346,2.959,1.037.727.691,1.09,1.548,1.09,2.57,0,.52-.105,1.031-.318,1.533-.213.502-.565,1.031-1.059,1.586-.494.556-1.313,1.317-2.459,2.286-.957.804-1.571,1.349-1.844,1.635-.271.287-.496.575-.673.864h6.371Z" fill="#fff"/><polyline points="270.532 62.256 269.961 42.005 263.843 40.947 264.133 60.83 260.523 59.799 267.678 67.326 273.675 63.538 270.532 62.256" fill="#010101"/><path d="M327.887,98.361c-2.867,1.534-9.406,1.794-11.865,11.201-.37,1.406.063,4.38.063,4.38l2.99,2.856-8.058,5.698-7.458-16.466,3.005,2.217,1.142.593s9.648-10.697,20.362-11.243"/><line x1="356.454" y1="71.485" x2="356.501" y2="131.912" fill="none" stroke="#231f20" stroke-miterlimit="10" stroke-width=".5"/><line x1="339.584" y1="121.15" x2="356.526" y2="123.395" fill="none" stroke="#231f20" stroke-linecap="round" stroke-linejoin="round" stroke-width=".5"/><line x1="340.401" y1="74.406" x2="356.322" y2="76.855" fill="none" stroke="#231f20" stroke-linecap="round" stroke-linejoin="round" stroke-width=".5"/><line x1="339.176" y1="117.816" x2="339.171" y2="129.201" fill="none" stroke="#231f20" stroke-linecap="round" stroke-linejoin="round" stroke-width=".5"/><line x1="339.459" y1="87.062" x2="339.448" y2="95.771" fill="none" stroke="#231f20" stroke-linecap="round" stroke-linejoin="round" stroke-width=".5"/><line x1="339.486" y1="68.321" x2="339.466" y2="81.073" fill="none" stroke="#231f20" stroke-linecap="round" stroke-linejoin="round" stroke-width=".5"/><path d="M350.811,107.474l.676-9.997.443-6.545.718-10.606-6.838-.204-5.92,2.858s-.714,1.939.306,2.756c0,0,3.674.306,3.98,3.878,0,0,.51,4.899-1.327,5.92l-1.633,1.837-2.143-.204-.816,1.225s-1.327,5.307-7.961,5.205l-3.062-.306-1.021,1.837" fill="#fefefe" stroke="#231f20" stroke-linecap="round" stroke-linejoin="round" stroke-width=".5"/><polyline points="350.913 99.513 347.035 99.003 341.217 97.37" fill="#fefefe" stroke="#231f20" stroke-linecap="round" stroke-linejoin="round" stroke-width=".5"/><path d="M322.932,108.41l.934-3.182,13.37,1.735,1.123.714,2.654.204s1.123-2.245,2.756-1.633,8.573,2.143,8.573,2.143l-.816,4.287-.919.919-1.429-.408" fill="#bcbec0" stroke="#231f20" stroke-linecap="round" stroke-linejoin="round" stroke-width=".5"/><path d="M352.24,82.367l-2.449,1.837s-.64.137-1.098.519c-.51.426-.794,1.155.281,2.338,0,0,2.654,1.021,2.654,4.899" fill="#fefefe" stroke="#231f20" stroke-linecap="round" stroke-linejoin="round" stroke-width=".5"/><line x1="339.788" y1="83.387" x2="348.693" y2="84.723" fill="#fefefe" stroke="#231f20" stroke-linecap="round" stroke-linejoin="round" stroke-width=".5"/><polyline points="351.93 90.931 355.914 89.511 355.71 95.022 351.831 96.655" fill="#fefefe" stroke="#231f20" stroke-linecap="round" stroke-linejoin="round" stroke-width=".5"/><line x1="336.522" y1="93.866" x2="338.087" y2="92.028" fill="#fefefe" stroke="#231f20" stroke-linecap="round" stroke-linejoin="round" stroke-width=".5"/><polyline points="333.188 93.934 336.318 91.756 338.359 91.756 338.972 94.614 336.93 98.288 334.481 97.472" fill="#fefefe" stroke="#231f20" stroke-linecap="round" stroke-linejoin="round" stroke-width=".5"/><path d="M330.088,103.902s1.939-.816,1.837-3.98l-1.429-1.633,2.449-4.185,3.164.102-2.756,4.082.919,1.429s-1.429,3.674,1.021,5.205" fill="#fefefe" stroke="#231f20" stroke-linecap="round" stroke-linejoin="round" stroke-width=".5"/><polyline points="331.215 105.535 330.705 102.371 337.645 103.187 336.624 106.351" fill="#fefefe" stroke="#231f20" stroke-linecap="round" stroke-linejoin="round" stroke-width=".5"/><path d="M348.77,113.189l-2.245,3.062-1.633.204-1.633,2.449-4.287-1.021s-1.021-.612-5.307-1.021-9.798-1.633-9.798-1.633l-.612-6.736,11.839,1.429s2.449.408,4.695,1.021,8.981,2.245,8.981,2.245Z" fill="#bcbec0" stroke="#231f20" stroke-linecap="round" stroke-linejoin="round" stroke-width=".5"/><line x1="358.227" y1="131.293" x2="358.227" y2="72.724" fill="none" stroke="#231f20" stroke-miterlimit="10" stroke-width=".5"/><line x1="303.448" y1="39.749" x2="303.5" y2="101.776" fill="none" stroke="#231f20" stroke-miterlimit="10" stroke-width=".5"/><path d="M278.208,72.342c-.509,4.073,1.358,5.261,1.358,5.261l15.104,2.036c1.697-.339,2.376-1.188,2.376-1.188,0,0-.17-20.025,0-25.456.17-5.431-3.564-5.431-3.564-5.431l-11.37-1.697-4.181,4.26" fill="#bcbec0" stroke="#231f20" stroke-linecap="round" stroke-linejoin="round" stroke-width=".5"/><path d="M279.396,49.941l9.504,1.358s4.243.679,4.073,3.055-.339,16.292-.339,16.292c0,0,1.188,2.885-2.715,3.055l-9.843-1.188s-3.734-.17-3.734-4.243l.17-15.783s0-2.546,2.885-2.546Z" fill="#bcbec0" stroke="#231f20" stroke-linecap="round" stroke-linejoin="round" stroke-width=".5"/><polyline points="292.124 73.7 294.5 74.718 294.839 78.791" fill="#bcbec0" stroke="#231f20" stroke-linecap="round" stroke-linejoin="round" stroke-width=".5"/><path d="M279.396,77.943l-.17,3.224s-1.018,2.546,3.564,3.224c4.582.679,14.595,1.867,14.595,1.867l5.261-3.055" fill="none" stroke="#231f20" stroke-linecap="round" stroke-linejoin="round" stroke-width=".5"/><path d="M286.354,85.579v3.224s-.17,3.734,2.546,4.412,9.164,1.188,9.164,1.188v-8.316" fill="none" stroke="#231f20" stroke-linecap="round" stroke-linejoin="round" stroke-width=".5"/><line x1="283.469" y1="95.762" x2="303.324" y2="98.817" fill="none" stroke="#231f20" stroke-linecap="round" stroke-linejoin="round" stroke-width=".5"/><line x1="283.723" y1="43.323" x2="303.324" y2="46.123" fill="none" stroke="#231f20" stroke-linecap="round" stroke-linejoin="round" stroke-width=".5"/><line x1="282.328" y1="84.433" x2="282.304" y2="101.022" fill="none" stroke="#231f20" stroke-linecap="round" stroke-linejoin="round" stroke-width=".5"/><line x1="282.561" y1="38" x2="282.495" y2="45.996" fill="none" stroke="#231f20" stroke-linecap="round" stroke-linejoin="round" stroke-width=".5"/><line x1="305.7" y1="99.701" x2="305.7" y2="40.567" fill="none" stroke="#231f20" stroke-miterlimit="10" stroke-width=".5"/><path d="M280.941,67.995l-.657,1.839-1.319-.14,2.437-6.476,1.63.172,2.078,6.953-1.369-.145-.577-1.97-2.222-.235ZM282.971,67.281l-.502-1.712c-.123-.422-.225-.893-.317-1.292l-.021-.002c-.114.378-.232.834-.368,1.22l-.588,1.597,1.796.19Z" fill="#231f20"/><path d="M290.235,65.412l-2.594-.274-.235,1.274c.156-.003.291,0,.488.021.592.063,1.18.255,1.628.592.5.363.858.95.835,1.737-.035,1.235-1.134,2.127-2.795,1.952-.777-.082-1.427-.34-1.774-.567l.287-.899c.285.18.862.431,1.474.496.748.079,1.476-.254,1.498-1.03.021-.737-.536-1.286-1.885-1.428-.374-.04-.654-.049-.926-.039l.542-3.219,3.486.369-.029,1.016Z" fill="#231f20"/><polygon points="280.244 53.166 288.22 54.184 284.317 58.766 280.244 53.166" fill="#231f20"/><line x1="292.372" y1="52.578" x2="295.724" y2="48.839" fill="#bcbec0" stroke="#231f20" stroke-linecap="round" stroke-linejoin="round" stroke-width=".5"/><path d="M286.522,26.585c0,6.682-5.417,12.099-12.097,12.099s-12.099-5.417-12.099-12.099,5.417-12.097,12.099-12.097,12.097,5.417,12.097,12.097Z" fill="#231f20" fill-rule="evenodd"/><path d="M276.158,32.49h-1.595v-10.163c-.384.366-.888.732-1.511,1.099s-1.184.641-1.68.824v-1.542c.893-.419,1.672-.927,2.34-1.524.667-.597,1.14-1.176,1.417-1.737h1.028v13.043Z" fill="#fff"/><path d="M343.16,69.566c0,6.682-5.417,12.099-12.097,12.099s-12.099-5.417-12.099-12.099,5.417-12.097,12.099-12.097,12.097,5.417,12.097,12.097Z" fill="#231f20" fill-rule="evenodd"/><path d="M335.172,73.938v1.533h-8.586c-.013-.384.05-.753.186-1.107.219-.585.568-1.161,1.05-1.728s1.177-1.223,2.087-1.967c1.412-1.158,2.366-2.075,2.862-2.751s.744-1.316.744-1.918c0-.632-.226-1.165-.678-1.599-.452-.435-1.041-.651-1.768-.651-.769,0-1.383.23-1.844.691-.46.461-.693,1.099-.699,1.914l-1.64-.168c.112-1.223.534-2.154,1.268-2.795.732-.641,1.716-.961,2.95-.961,1.246,0,2.232.346,2.959,1.037.727.691,1.09,1.548,1.09,2.57,0,.52-.105,1.031-.318,1.533-.213.502-.565,1.031-1.059,1.586-.494.556-1.313,1.317-2.459,2.286-.957.804-1.571,1.349-1.844,1.635-.271.287-.496.575-.673.864h6.371Z" fill="#fff"/><polyline points="270.532 62.256 269.961 42.005 263.843 40.947 264.133 60.83 260.523 59.799 267.678 67.326 273.675 63.538 270.532 62.256" fill="#010101"/><path d="M327.887,98.361c-2.867,1.534-9.406,1.794-11.865,11.201-.37,1.406.063,4.38.063,4.38l2.99,2.856-8.058,5.698-7.458-16.466,3.005,2.217,1.142.593s9.648-10.697,20.362-11.243"/></g><g id="d"><path d="M194.977,223.211l-10.487-13.926-13.41,12.378-16.848,3.267-2.579,2.407-12.207,9.8-11.003,13.926-4.298,4.47s6.017,39.714,71.348,23.21l8.424-14.27,5.158-21.834-14.098-19.427Z" fill="#fff"/><path d="M155.124,223.757s1.974-2.207,4.827-4.451,4.124-6.335,5.344-8.043c1.22-1.708,5.558-9.087,5.558-9.087,0,0,3.38-8.01,12.007-2.329,0,0,4.992,5.372,2.035,12.382,0,0-.551,1.628-.855,4.176s-2.373,7.346-3.47,9.515-.314,14.294-.314,14.294" fill="#fff" stroke="#231f20" stroke-linecap="round" stroke-linejoin="round" stroke-width=".5"/><path d="M180.691,208.049s3.677.372,2.277-4.483c0,0-2.444-5.069-8.68-3.299,0,0-4.062,1.779-1.989,5.467,0,0,4.395-1.276,7.892,1.832l.499.483Z" fill="#fff" stroke="#231f20" stroke-linecap="round" stroke-linejoin="round" stroke-width=".5"/><path d="M168.693,208.477s2.012-1.329,5.476-.185,4.798,2.069,6.805,1.828" fill="#fff" stroke="#231f20" stroke-linecap="round" stroke-linejoin="round" stroke-width=".5"/><path d="M169.476,211.03s4.166,3.028,10.269,2.972" fill="#fff" stroke="#231f20" stroke-linecap="round" stroke-linejoin="round" stroke-width=".5"/><path d="M185.624,211.144s8.453,10.432,9.392,12.219" fill="#fff" stroke="#231f20" stroke-linecap="round" stroke-linejoin="round" stroke-width=".5"/><path d="M199.602,244.896c-.104-1.617,2.386-3.863,2.386-3.863-.636-1.145-2.442-8.621-2.442-8.621,0,0-6.994-12.599-6.51-14.965s1.352-9.441,9.277-5.643c7.925,3.797,13.869,14.441,13.869,14.441,0,0,2.651,5.474,3.565,6.676s6.336,10.144,3.248,15.313-11.559,17.504-11.559,17.504c0,0-4.389,9.399-15.301,13.113" fill="#fff" stroke="#231f20" stroke-linecap="round" stroke-linejoin="round" stroke-width=".5"/><path d="M214.201,226.708s-11.007-.077-14.13,6.681" fill="#fff" stroke="#231f20" stroke-linecap="round" stroke-linejoin="round" stroke-width=".5"/><path d="M217.939,238.206s-9.213-2.465-15.952,2.827" fill="#fff" stroke="#231f20" stroke-linecap="round" stroke-linejoin="round" stroke-width=".5"/><path d="M196.129,236.353s-4.214,1.458-5.749,1.869-4.717,1.79-4.834,3.072c-.146,1.601-2.762-5.641-2.559-7.34s-2.825-3.914-2.825-3.914" fill="#fff" stroke="#231f20" stroke-linecap="round" stroke-linejoin="round" stroke-width=".5"/><path d="M199.232,240.324s-8.773-1.07-13.079,2.255" fill="#fff" stroke="#231f20" stroke-linecap="round" stroke-linejoin="round" stroke-width=".5"/><path d="M180.654,238.263s4.692,4.006,8.282,4.886,12.892,8.584,12.664,9.698" fill="#fff" stroke="#231f20" stroke-linecap="round" stroke-linejoin="round" stroke-width=".5"/><path d="M195.027,245.99s8.998.681,11.804,2.56" fill="#fff" stroke="#231f20" stroke-linecap="round" stroke-linejoin="round" stroke-width=".5"/><path d="M209.435,245.748s-9.687-2.272-13.544.274" fill="#fff" stroke="#231f20" stroke-linecap="round" stroke-linejoin="round" stroke-width=".5"/><path d="M157.029,224.726s-3.499-2.746-5.641,2.762" fill="#fff" stroke="#231f20" stroke-linecap="round" stroke-linejoin="round" stroke-width=".5"/><path d="M152.833,228.219s-2.863-1.601-4.85.313-1.905,2.221-3.971,3.103-6.312,3.204-6.682,5.014-3.496,2.91-4.142,3.939-7.439,12.256-9.29,14.923" fill="#fff" stroke="#231f20" stroke-linecap="round" stroke-linejoin="round" stroke-width=".5"/><path d="M190.65,221.309s-3.24,1.658-5.945,2.119" fill="#fff" stroke="#231f20" stroke-linecap="round" stroke-linejoin="round" stroke-width=".5"/><path d="M42.254,196.073l17.001-3.858,2.243,18.111,10.753,13.376.414,3.503,2.99,15.365-.594,17.738.394,6.189s-30.244,26.433-69.461-28.362l2.785-16.335,10.164-20,23.31-5.727Z" fill="#fff"/><path d="M72.328,222.229s-.082-2.96-.81-6.516.943-7.5,1.115-9.592,1.626-10.527,1.626-10.527c0,0,2.594-8.298-7.662-9.533,0,0-7.281.877-9.55,8.138,0,0-.631,1.598-2.045,3.74s-2.933,7.141-3.496,9.505c-.564,2.364-8.992,11.116-8.992,11.116" fill="#fff" stroke="#231f20" stroke-linecap="round" stroke-linejoin="round" stroke-width=".5"/><path d="M62.953,193.724s-3.047-2.091,1.157-4.893c0,0,5.139-2.291,8.757,3.087,0,0,1.952,3.982-2.012,5.458,0,0-2.531-3.813-7.209-3.698l-.693.046Z" fill="#fff" stroke="#231f20" stroke-linecap="round" stroke-linejoin="round" stroke-width=".5"/><path d="M71.838,201.799s-.678-2.314-4.062-3.678-4.999-1.519-6.376-3" fill="#fff" stroke="#231f20" stroke-linecap="round" stroke-linejoin="round" stroke-width=".5"/><path d="M69.591,203.243s-5.137-.379-9.759-4.364" fill="#fff" stroke="#231f20" stroke-linecap="round" stroke-linejoin="round" stroke-width=".5"/><path d="M57.189,192.9s-13.191,2.505-15.063,3.263" fill="#fff" stroke="#231f20" stroke-linecap="round" stroke-linejoin="round" stroke-width=".5"/><path d="M24.718,209.641c1.124-1.167.673-4.49.673-4.49,1.225-.464,7.432-5.005,7.432-5.005,0,0,13.477-5.101,14.635-7.221s5.065-8.08-3.437-10.3c-8.503-2.22-19.915,2.067-19.915,2.067,0,0-5.559,2.467-7.033,2.794s-11.389,3.652-12.37,9.593-2.481,20.829-2.481,20.829c0,0-2.72,10.01,3.213,19.893" fill="#fff" stroke="#231f20" stroke-linecap="round" stroke-linejoin="round" stroke-width=".5"/><path d="M25.319,186.327s8.453,7.05,6.473,14.226" fill="#fff" stroke="#231f20" stroke-linecap="round" stroke-linejoin="round" stroke-width=".5"/><path d="M15.039,192.69s8.626,4.068,10.353,12.461" fill="#fff" stroke="#231f20" stroke-linecap="round" stroke-linejoin="round" stroke-width=".5"/><path d="M32.887,205.362s2.276,3.835,3.182,5.14,2.445,4.414,1.707,5.467c-.922,1.317,5.752-2.523,6.694-3.951s4.684-1.163,4.684-1.163" fill="#fff" stroke="#231f20" stroke-linecap="round" stroke-linejoin="round" stroke-width=".5"/><path d="M27.953,206.389s7.389,4.849,8.529,10.169" fill="#fff" stroke="#231f20" stroke-linecap="round" stroke-linejoin="round" stroke-width=".5"/><path d="M43.468,216.814s-6.169.028-9.479-1.619c-3.31-1.647-15.386-1.773-15.932-.775" fill="#fff" stroke="#231f20" stroke-linecap="round" stroke-linejoin="round" stroke-width=".5"/><path d="M27.504,213.431s-7.309-5.291-10.665-5.669" fill="#fff" stroke="#231f20" stroke-linecap="round" stroke-linejoin="round" stroke-width=".5"/><path d="M16.661,203.94s8.863,4.522,10.163,8.957" fill="#fff" stroke="#231f20" stroke-linecap="round" stroke-linejoin="round" stroke-width=".5"/><path d="M70.248,221.739s4.445.163,2.523,5.752" fill="#fff" stroke="#231f20" stroke-linecap="round" stroke-linejoin="round" stroke-width=".5"/><path d="M71.195,227.115s3.22.627,3.501,3.371.02,2.926,1.027,4.934,2.749,6.523,1.863,8.144.789,4.48.618,5.682-2.236,14.161-2.546,17.393" fill="#fff" stroke="#231f20" stroke-linecap="round" stroke-linejoin="round" stroke-width=".5"/><path d="M46.786,197.415s1.403,3.358,3.17,5.458" fill="#fff" stroke="#231f20" stroke-linecap="round" stroke-linejoin="round" stroke-width=".5"/><polygon points="153.522 176.976 120.279 182.95 115.773 172.964 124.99 173.831 136.328 167.804 157.215 170.017 145.317 176.115 153.522 176.976" fill="#fff" stroke="#fff"/><polygon points="151.012 176.852 123.341 181.825 119.59 173.502 127.25 174.223 137.541 168.775 154.119 170.539 143.08 176.016 151.012 176.852" fill="#010101"/><polygon points="142.087 160.258 175.353 154.281 179.863 164.269 170.649 163.411 159.28 169.43 138.421 167.211 150.294 161.127 142.087 160.258" fill="#fff" stroke="#fff"/><polygon points="144.593 160.384 172.298 155.411 176.117 163.787 168.381 163.013 158.067 168.469 142.356 166.789 152.531 161.231 144.593 160.384" fill="#010101"/></g></svg>