<?xml version="1.0" encoding="UTF-8"?><svg id="a" xmlns="http://www.w3.org/2000/svg" width="4in" height="2.4in" xmlns:xlink="http://www.w3.org/1999/xlink" viewBox="0 0 288 172.8"><defs><clipPath id="b"><path d="M286.177,99.008c0,26.139-21.189,47.335-47.334,47.335s-47.334-21.196-47.334-47.335,21.192-47.338,47.334-47.338,47.334,21.193,47.334,47.338Z" fill="none" stroke="#231f20" stroke-width=".5"/></clipPath></defs><path d="M131.985,149.565h1.126v2.664h3.058v-2.664h1.126v6.409h-1.126v-2.701h-3.058v2.701h-1.126v-6.409Z" fill="#231f20" stroke-width="0"/><path d="M138.491,154.582v-.019c0-1.043.824-1.556,2.005-1.556.541,0,.925.083,1.3.202v-.119c0-.687-.421-1.053-1.199-1.053-.541,0-.943.119-1.383.302l-.302-.87c.54-.238,1.062-.394,1.831-.394.723,0,1.263.192,1.602.54.357.348.522.861.522,1.492v2.866h-1.081v-.604c-.33.394-.833.705-1.575.705-.906,0-1.721-.521-1.721-1.492ZM141.814,154.234v-.33c-.284-.109-.659-.192-1.099-.192-.714,0-1.135.302-1.135.806v.018c0,.467.412.732.943.732.732,0,1.291-.421,1.291-1.034Z" fill="#231f20" stroke-width="0"/><path d="M144.188,151.14h1.117v.742c.311-.449.76-.842,1.511-.842,1.089,0,1.721.732,1.721,1.849v3.085h-1.107v-2.747c0-.75-.375-1.181-1.035-1.181-.641,0-1.089.449-1.089,1.199v2.729h-1.117v-4.834Z" fill="#231f20" stroke-width="0"/><path d="M149.631,153.566v-.019c0-1.602,1.089-2.508,2.243-2.508.796,0,1.3.394,1.647.852v-2.601h1.108v6.684h-1.108v-.806c-.357.503-.86.906-1.647.906-1.136,0-2.243-.906-2.243-2.508ZM153.54,153.566v-.019c0-.934-.659-1.547-1.401-1.547-.76,0-1.392.595-1.392,1.547v.019c0,.934.641,1.547,1.392,1.547.742,0,1.401-.623,1.401-1.547Z" fill="#231f20" stroke-width="0"/><path d="M156.08,149.29h1.117v6.684h-1.117v-6.684Z" fill="#231f20" stroke-width="0"/><path d="M158.38,153.575v-.019c0-1.382.979-2.518,2.362-2.518,1.538,0,2.316,1.208,2.316,2.6,0,.101-.009.201-.019.311h-3.552c.119.788.677,1.227,1.392,1.227.54,0,.925-.202,1.309-.577l.65.577c-.458.549-1.09.906-1.978.906-1.401,0-2.481-1.016-2.481-2.508ZM161.96,153.218c-.073-.714-.495-1.272-1.227-1.272-.677,0-1.154.522-1.254,1.272h2.481Z" fill="#231f20" stroke-width="0"/><path d="M163.785,155.342l.494-.75c.531.394,1.09.595,1.584.595.476,0,.751-.202.751-.522v-.019c0-.375-.513-.503-1.081-.677-.714-.202-1.511-.495-1.511-1.41v-.018c0-.925.76-1.483,1.721-1.483.604,0,1.264.21,1.776.549l-.439.788c-.467-.284-.961-.458-1.364-.458-.43,0-.678.21-.678.476v.019c0,.357.522.503,1.09.687.705.22,1.501.54,1.501,1.41v.018c0,1.016-.788,1.52-1.794,1.52-.687,0-1.447-.238-2.051-.724Z" fill="#231f20" stroke-width="0"/><path d="M171.188,154.582v-.019c0-1.043.824-1.556,2.005-1.556.54,0,.925.083,1.3.202v-.119c0-.687-.421-1.053-1.2-1.053-.54,0-.943.119-1.382.302l-.302-.87c.541-.238,1.062-.394,1.831-.394.724,0,1.264.192,1.603.54.357.348.521.861.521,1.492v2.866h-1.08v-.604c-.33.394-.833.705-1.575.705-.906,0-1.721-.521-1.721-1.492ZM174.511,154.234v-.33c-.284-.109-.659-.192-1.099-.192-.714,0-1.135.302-1.135.806v.018c0,.467.412.732.943.732.732,0,1.291-.421,1.291-1.034Z" fill="#231f20" stroke-width="0"/><path d="M176.885,151.14h1.117v.742c.311-.449.76-.842,1.51-.842,1.09,0,1.722.732,1.722,1.849v3.085h-1.108v-2.747c0-.75-.375-1.181-1.035-1.181-.641,0-1.089.449-1.089,1.199v2.729h-1.117v-4.834Z" fill="#231f20" stroke-width="0"/><path d="M182.328,153.566v-.019c0-1.602,1.089-2.508,2.243-2.508.797,0,1.3.394,1.648.852v-2.601h1.107v6.684h-1.107v-.806c-.357.503-.861.906-1.648.906-1.135,0-2.243-.906-2.243-2.508ZM186.237,153.566v-.019c0-.934-.659-1.547-1.401-1.547-.76,0-1.392.595-1.392,1.547v.019c0,.934.641,1.547,1.392,1.547.742,0,1.401-.623,1.401-1.547Z" fill="#231f20" stroke-width="0"/><path d="M191.205,153.584v-.018c0-1.374,1.062-2.527,2.518-2.527.906,0,1.474.339,1.932.833l-.696.742c-.339-.348-.696-.604-1.245-.604-.806,0-1.401.696-1.401,1.538v.019c0,.86.595,1.547,1.446,1.547.522,0,.897-.238,1.254-.595l.668.659c-.476.531-1.035.906-1.978.906-1.438,0-2.5-1.126-2.5-2.5Z" fill="#231f20" stroke-width="0"/><path d="M196.372,154.582v-.019c0-1.043.824-1.556,2.005-1.556.54,0,.925.083,1.3.202v-.119c0-.687-.421-1.053-1.2-1.053-.54,0-.943.119-1.382.302l-.302-.87c.541-.238,1.062-.394,1.831-.394.724,0,1.264.192,1.603.54.357.348.521.861.521,1.492v2.866h-1.08v-.604c-.33.394-.833.705-1.575.705-.906,0-1.721-.521-1.721-1.492ZM199.695,154.234v-.33c-.284-.109-.659-.192-1.099-.192-.714,0-1.135.302-1.135.806v.018c0,.467.412.732.943.732.732,0,1.291-.421,1.291-1.034Z" fill="#231f20" stroke-width="0"/><path d="M203.188,155.223v.751h-1.117v-6.684h1.117v2.655c.357-.503.86-.906,1.648-.906,1.135,0,2.243.897,2.243,2.508v.019c0,1.602-1.099,2.508-2.243,2.508-.806,0-1.309-.403-1.648-.852ZM205.952,153.566v-.019c0-.934-.641-1.547-1.382-1.547-.75,0-1.41.623-1.41,1.547v.019c0,.924.659,1.547,1.41,1.547.76,0,1.382-.595,1.382-1.547Z" fill="#231f20" stroke-width="0"/><path d="M208.281,149.29h1.117v6.684h-1.117v-6.684Z" fill="#231f20" stroke-width="0"/><path d="M210.581,153.575v-.019c0-1.382.979-2.518,2.362-2.518,1.538,0,2.316,1.208,2.316,2.6,0,.101-.009.201-.019.311h-3.552c.119.788.677,1.227,1.392,1.227.54,0,.925-.202,1.309-.577l.65.577c-.458.549-1.09.906-1.978.906-1.401,0-2.481-1.016-2.481-2.508ZM214.161,153.218c-.073-.714-.495-1.272-1.227-1.272-.677,0-1.154.522-1.254,1.272h2.481Z" fill="#231f20" stroke-width="0"/><path d="M131.848,161.14h1.117v.732c.311-.43.732-.833,1.474-.833.695,0,1.19.339,1.446.852.385-.513.897-.852,1.63-.852,1.053,0,1.693.668,1.693,1.849v3.085h-1.107v-2.747c0-.769-.357-1.181-.98-1.181-.604,0-1.035.421-1.035,1.199v2.729h-1.107v-2.756c0-.75-.366-1.172-.979-1.172s-1.035.458-1.035,1.199v2.729h-1.117v-4.834Z" fill="#231f20" stroke-width="0"/><path d="M140.222,164.582v-.019c0-1.043.824-1.556,2.005-1.556.541,0,.925.083,1.3.202v-.119c0-.687-.421-1.053-1.199-1.053-.541,0-.943.119-1.383.302l-.302-.87c.54-.238,1.062-.394,1.831-.394.723,0,1.263.192,1.602.54.357.348.522.861.522,1.492v2.866h-1.081v-.604c-.33.394-.833.705-1.575.705-.906,0-1.721-.521-1.721-1.492ZM143.545,164.234v-.33c-.284-.109-.659-.192-1.099-.192-.714,0-1.135.302-1.135.806v.018c0,.467.412.732.943.732.732,0,1.291-.421,1.291-1.034Z" fill="#231f20" stroke-width="0"/><path d="M145.92,161.14h1.117v.742c.311-.449.76-.842,1.511-.842,1.089,0,1.721.732,1.721,1.849v3.085h-1.107v-2.747c0-.75-.375-1.181-1.035-1.181-.641,0-1.089.449-1.089,1.199v2.729h-1.117v-4.834Z" fill="#231f20" stroke-width="0"/><path d="M151.28,164.582v-.019c0-1.043.824-1.556,2.005-1.556.541,0,.925.083,1.3.202v-.119c0-.687-.421-1.053-1.199-1.053-.541,0-.943.119-1.383.302l-.302-.87c.54-.238,1.062-.394,1.831-.394.723,0,1.263.192,1.602.54.357.348.522.861.522,1.492v2.866h-1.081v-.604c-.33.394-.833.705-1.575.705-.906,0-1.721-.521-1.721-1.492ZM154.603,164.234v-.33c-.284-.109-.659-.192-1.099-.192-.714,0-1.135.302-1.135.806v.018c0,.467.412.732.943.732.732,0,1.291-.421,1.291-1.034Z" fill="#231f20" stroke-width="0"/><path d="M156.978,166.88l.412-.833c.522.32,1.062.503,1.721.503.989,0,1.529-.503,1.529-1.474v-.366c-.403.513-.906.879-1.703.879-1.145,0-2.197-.842-2.197-2.261v-.018c0-1.428,1.071-2.271,2.197-2.271.814,0,1.318.375,1.693.824v-.723h1.108v3.845c0,.815-.21,1.419-.613,1.822-.439.439-1.117.65-1.987.65-.796,0-1.538-.202-2.161-.577ZM160.649,163.318v-.018c0-.788-.65-1.318-1.419-1.318s-1.374.522-1.374,1.318v.018c0,.788.614,1.328,1.374,1.328.769,0,1.419-.54,1.419-1.328Z" fill="#231f20" stroke-width="0"/><path d="M162.869,163.575v-.019c0-1.382.98-2.518,2.362-2.518,1.538,0,2.316,1.208,2.316,2.6,0,.101-.009.201-.018.311h-3.552c.119.788.678,1.227,1.392,1.227.54,0,.925-.202,1.309-.577l.65.577c-.458.549-1.089.906-1.978.906-1.4,0-2.481-1.016-2.481-2.508ZM166.448,163.218c-.073-.714-.494-1.272-1.227-1.272-.678,0-1.153.522-1.254,1.272h2.481Z" fill="#231f20" stroke-width="0"/><path d="M168.659,161.14h1.117v.732c.311-.43.732-.833,1.474-.833.695,0,1.19.339,1.446.852.385-.513.897-.852,1.63-.852,1.053,0,1.693.668,1.693,1.849v3.085h-1.107v-2.747c0-.769-.357-1.181-.98-1.181-.604,0-1.035.421-1.035,1.199v2.729h-1.107v-2.756c0-.75-.366-1.172-.979-1.172s-1.035.458-1.035,1.199v2.729h-1.117v-4.834Z" fill="#231f20" stroke-width="0"/><path d="M177.097,163.575v-.019c0-1.382.979-2.518,2.362-2.518,1.538,0,2.316,1.208,2.316,2.6,0,.101-.009.201-.019.311h-3.552c.119.788.677,1.227,1.392,1.227.54,0,.925-.202,1.309-.577l.65.577c-.458.549-1.09.906-1.978.906-1.401,0-2.481-1.016-2.481-2.508ZM180.677,163.218c-.073-.714-.495-1.272-1.227-1.272-.677,0-1.154.522-1.254,1.272h2.481Z" fill="#231f20" stroke-width="0"/><path d="M182.886,161.14h1.117v.742c.311-.449.76-.842,1.51-.842,1.09,0,1.722.732,1.722,1.849v3.085h-1.108v-2.747c0-.75-.375-1.181-1.035-1.181-.641,0-1.089.449-1.089,1.199v2.729h-1.117v-4.834Z" fill="#231f20" stroke-width="0"/><path d="M188.805,164.637v-2.545h-.613v-.952h.613v-1.328h1.107v1.328h1.3v.952h-1.3v2.371c0,.431.22.604.595.604.248,0,.467-.055.687-.165v.906c-.275.156-.577.248-.998.248-.815,0-1.392-.357-1.392-1.419Z" fill="#231f20" stroke-width="0"/><path d="M194.842,163.566v-.019c0-1.602,1.089-2.508,2.243-2.508.797,0,1.3.394,1.648.852v-2.601h1.107v6.684h-1.107v-.806c-.357.503-.861.906-1.648.906-1.135,0-2.243-.906-2.243-2.508ZM198.751,163.566v-.019c0-.934-.659-1.547-1.401-1.547-.76,0-1.392.595-1.392,1.547v.019c0,.934.641,1.547,1.392,1.547.742,0,1.401-.623,1.401-1.547Z" fill="#231f20" stroke-width="0"/><path d="M200.971,163.575v-.019c0-1.382.98-2.518,2.362-2.518,1.538,0,2.316,1.208,2.316,2.6,0,.101-.009.201-.018.311h-3.552c.119.788.678,1.227,1.392,1.227.54,0,.925-.202,1.309-.577l.65.577c-.458.549-1.089.906-1.978.906-1.4,0-2.481-1.016-2.481-2.508ZM204.551,163.218c-.073-.714-.494-1.272-1.227-1.272-.678,0-1.153.522-1.254,1.272h2.481Z" fill="#231f20" stroke-width="0"/><path d="M206.083,161.14h1.19l1.3,3.552,1.31-3.552h1.163l-1.978,4.871h-.998l-1.987-4.871Z" fill="#231f20" stroke-width="0"/><path d="M212.011,159.345h1.19v1.053h-1.19v-1.053ZM212.047,161.14h1.117v4.834h-1.117v-4.834Z" fill="#231f20" stroke-width="0"/><path d="M214.347,163.584v-.018c0-1.374,1.062-2.527,2.518-2.527.907,0,1.474.339,1.932.833l-.696.742c-.339-.348-.696-.604-1.245-.604-.806,0-1.401.696-1.401,1.538v.019c0,.86.595,1.547,1.447,1.547.521,0,.897-.238,1.254-.595l.668.659c-.476.531-1.035.906-1.978.906-1.438,0-2.5-1.126-2.5-2.5Z" fill="#231f20" stroke-width="0"/><path d="M219.44,163.575v-.019c0-1.382.979-2.518,2.362-2.518,1.538,0,2.316,1.208,2.316,2.6,0,.101-.009.201-.019.311h-3.552c.119.788.677,1.227,1.392,1.227.54,0,.925-.202,1.309-.577l.65.577c-.458.549-1.09.906-1.978.906-1.401,0-2.481-1.016-2.481-2.508ZM223.021,163.218c-.073-.714-.495-1.272-1.227-1.272-.677,0-1.154.522-1.254,1.272h2.481Z" fill="#231f20" stroke-width="0"/><polygon points="38.962 41.815 116.277 86.559 116.277 147.246 38.767 102.34 38.962 41.815" fill="#d1d3d4" stroke-width="0"/><polygon points="203.045 36.79 203.142 63.577 203.247 92.546 118.812 145.642 116.311 86.426 203.045 36.79" fill="#fff" stroke-width="0"/><polygon points="39.407 41.894 125.12 1.295 203.042 36.563 115.478 86.426 39.407 41.894" fill="#fff" stroke-width="0"/><polyline points="124.842 1.283 202.97 36.376 202.97 63.805" fill="none" stroke="#231f20" stroke-linecap="round" stroke-linejoin="round" stroke-width=".5"/><line x1="202.907" y1="36.379" x2="115.969" y2="86.494" fill="none" stroke="#231f20" stroke-linecap="round" stroke-linejoin="round" stroke-width=".5"/><line x1="190.978" y1="99.961" x2="115.969" y2="146.781" fill="none" stroke="#231f20" stroke-linecap="round" stroke-linejoin="round" stroke-width=".5"/><line x1="38.878" y1="41.981" x2="124.803" y2="1.286" fill="none" stroke="#231f20" stroke-linecap="round" stroke-linejoin="round" stroke-width=".5"/><path d="M117.873,96.895c0,.243-.302.268-.678.051-.377-.215-.676-.593-.676-.836,0-.24.299-.266.676-.051.376.215.678.588.678.836" fill="#fff" stroke-width="0"/><path d="M117.873,112.323c0,.243-.302.271-.678.056-.377-.215-.676-.59-.676-.838,0-.24.299-.266.676-.047.376.21.678.583.678.829" fill="#fff" stroke-width="0"/><path d="M117.873,127.756c0,.245-.302.268-.678.054-.377-.215-.676-.588-.676-.831,0-.25.299-.273.676-.054.376.212.678.586.678.831" fill="#fff" stroke-width="0"/><path d="M117.873,143.187c0,.247-.302.273-.678.054-.377-.215-.676-.59-.676-.833,0-.247.299-.268.676-.056.376.215.678.59.678.836" fill="#fff" stroke-width="0"/><line x1="113.112" y1="145.066" x2="113.112" y2="84.958" fill="none" stroke="#231f20" stroke-linecap="round" stroke-linejoin="round" stroke-width=".5"/><polygon points="38.885 41.988 115.96 86.52 115.96 146.765 38.885 102.235 38.885 41.988" fill="none" stroke="#231f20" stroke-linecap="round" stroke-linejoin="round" stroke-width=".5"/><line x1="41.606" y1="47.195" x2="52.404" y2="53.492" fill="none" stroke="#231f20" stroke-linecap="round" stroke-linejoin="round" stroke-width=".5"/><line x1="53.937" y1="54.54" x2="88.213" y2="74.102" fill="none" stroke="#231f20" stroke-linecap="round" stroke-linejoin="round" stroke-width=".5"/><line x1="91.194" y1="75.82" x2="112.873" y2="88.34" fill="none" stroke="#231f20" stroke-linecap="round" stroke-linejoin="round" stroke-width=".5"/><line x1="53.896" y1="107.72" x2="88.325" y2="127.366" fill="none" stroke="#231f20" stroke-linecap="round" stroke-linejoin="round" stroke-width=".5"/><line x1="91.252" y1="128.93" x2="112.963" y2="141.467" fill="none" stroke="#231f20" stroke-linecap="round" stroke-linejoin="round" stroke-width=".5"/><line x1="41.672" y1="43.745" x2="41.672" y2="103.867" fill="none" stroke="#231f20" stroke-linecap="round" stroke-linejoin="round" stroke-width=".5"/><line x1="52.422" y1="110.125" x2="52.422" y2="49.968" fill="none" stroke="#231f20" stroke-linecap="round" stroke-linejoin="round" stroke-width=".5"/><line x1="53.87" y1="110.874" x2="53.87" y2="50.635" fill="none" stroke="#231f20" stroke-linecap="round" stroke-linejoin="round" stroke-width=".5"/><line x1="88.328" y1="130.751" x2="88.328" y2="70.751" fill="none" stroke="#231f20" stroke-linecap="round" stroke-linejoin="round" stroke-width=".5"/><line x1="91.174" y1="72.305" x2="91.174" y2="132.45" fill="none" stroke="#231f20" stroke-linecap="round" stroke-linejoin="round" stroke-width=".5"/><path d="M114.914,105.587c.146.082.26.285.26.451" fill="#fff" stroke-width="0"/><path d="M114.914,136.778c.146.082.26.285.26.453" fill="#fff" stroke-width="0"/><line x1="41.544" y1="100.823" x2="52.466" y2="107.191" fill="none" stroke="#231f20" stroke-linecap="round" stroke-linejoin="round" stroke-width=".5"/><path d="M1.084,59.938l-.027-2.393c.141-1.332,2.464-2.12,2.464-2.12l10.138-3.076c.949-.031,1.754,1.983,1.754,1.983l.144,4.394c.875.921,1.697.261,1.697.261l7.137-2.205c2.247-.039,2.915,2.932,2.915,2.932,0,0,.629,38.613.777,43.147.148,4.534-2.548,5.995-2.548,5.995l-7.418,2.354c-2.503.926-1.478,3.215-1.304,5.32s-1.686,3.327-1.686,3.327l-11.914,3.662-1.31-1.329-.02-1.557s1.142-.472,1.339.709l.401.145,8.891-2.903s.823-.264.81-1.847-1.159-1.545-1.159-1.545l-8.975,2.748-.241,1.116s-.192.755-1.079.588l-.06-4.588s.874-.464,1.13.082-.131.836.814.686c.945-.15,9.799-2.973,9.799-2.973,0,0,.707-.181.676-1.13s-.006-1.385-.006-1.385c0,0,.093-.795-1.128-.596s-9.412,2.683-9.412,2.683c0,0-.744.262-.806.778s-.039,1.228-.474,1.243-.607-.109-.607-.109l-.055-4.778s-.011-.247.623-.238c0,0,.443-.074.534.299l.086.828s-.301.082.642-.133,10.865-3.443,10.865-3.443c0,0,.932-.558.902-1.481l-.034-1.054s-.266-.862-1.392-.614c-1.127.248-11.079,3.371-11.079,3.371,0,0-.417.172-.452.701s.033,1.002-.281,1.091-.433-.118-.433-.118l-.054-4.551s.035-.252.46-.186.456.223.495.617.199.442.883.367,10.754-3.624,10.754-3.624c0,0,.911-.373.884-1.216s-.012-1.161-.012-1.161c0,0-.424-.857-1.187-.779s-10.966,3.578-10.966,3.578c0,0-.419.093-.351.566s-.044,1.083-.387,1.068c0,0-.592.176-.598-.35l-.05-4.578s.419-.448.988.009c0,0,.159.021.181.707s1.505.03,1.505.03l10.053-3.258s.759-.183.755-1.107-.047-1.45-.047-1.45c0,0-.135-.893-1.155-.622s-10.61,3.171-10.61,3.171c0,0-.577.098-.593.415s.038,1.16-.064,1.269-.94.321-1.038-.153l-.167-14.639s-.04-.684.541-.676.596.482.596.482c0,0,.101.683.652.586s10.937-3.683,10.937-3.683c0,0,.758-.236.785-1.002s-.082-1.686-.082-1.686c0,0-.391-.647-1.095-.386s-10.214,3.184-10.214,3.184c0,0-1.1.247-1.221.595s.037,1.133-.277,1.223-.669.152-.673-.453l-.02-3.444s-.032-.539.414-.606.766.028.839.632.977.021.977.021l10.369-3.295s.706-.208.712-.815-.036-1.899-.036-1.899c0,0-.006-1.003-.921-.735-.915.267-11.026,3.369-11.026,3.369,0,0-.473.068-.512.492s.086,1.026-.357,1.173-.494-.077-.494-.077l-.045-4.074s-.015-.66.541-.626.599.561.599.561c0,0-.119.4.669.295s10.608-3.25,10.608-3.25c0,0,1.021-.245,1.021-1.063s-.055-1.687-.055-1.687c0,0-.23-.573-1.198-.33s-10.871,3.285-10.871,3.285c0,0-.442.199-.432.516s-.012.779-.262.879c-.573.23-.674-.453-.674-.453l-.027-3.63s.123-.359.526-.27c0,0,.373-.061.445.517s1.322.062,1.322.062l9.528-3.188s.919-.136.921-.901-.19-1.789-.19-1.789c0,0-.26-.677-1.202-.435s-9.724,2.825-9.724,2.825c0,0-.707.181-.698.445l.028.87s.004.449-.484.544-.5-.299-.5-.299l-.037-3.827s.07-.477.574-.388.443.645.443.645c0,0-.147.348.588.219s9.541-2.793,9.541-2.793c0,0,.655-.153.63-.918s-.187-1.683-.187-1.683c0,0-.21-.785-1.152-.543s-8.79,2.346-8.79,2.346c0,0-.624.284-.644.47s.107.841.032.975.026.685-1.056.747Z" fill="#d1d3d4" stroke="#231f20" stroke-miterlimit="10" stroke-width=".5"/><path d="M4.218,86.436s-.034-1.028,1.335-1.548c1.368-.52,2.198-.586,2.198-.586,0,0,.762.292.802,1.518s-.017,5.542-.017,5.542c0,0-.08,1.19-1.651,1.558-1.482.347-2.37.157-2.465-.315s-.202-6.168-.202-6.168Z" fill="#fff" stroke="#231f20" stroke-miterlimit="10" stroke-width=".5"/><rect x="20.521" y="99.021" width="1.543" height="3.521" rx=".244" ry=".244" transform="translate(45.867 200.813) rotate(178.127)" fill="#fff" stroke="#231f20" stroke-miterlimit="10" stroke-width=".5"/><rect x="20.156" y="87.87" width="1.543" height="3.521" rx=".244" ry=".244" transform="translate(44.774 178.529) rotate(178.127)" fill="#fff" stroke="#231f20" stroke-miterlimit="10" stroke-width=".5"/><rect x="19.793" y="76.759" width="1.543" height="3.521" rx=".244" ry=".244" transform="translate(43.684 156.325) rotate(178.127)" fill="#fff" stroke="#231f20" stroke-miterlimit="10" stroke-width=".5"/><rect x="19.403" y="64.817" width="1.543" height="3.521" rx=".244" ry=".244" transform="translate(42.513 132.461) rotate(178.127)" fill="#fff" stroke="#231f20" stroke-miterlimit="10" stroke-width=".5"/><path d="M72.354,104.807l-.008-2.393c.152-1.331,2.482-2.1,2.482-2.1l10.164-2.991c.949-.023,1.737,1.997,1.737,1.997l.107,4.395c.867.929,1.695.275,1.695.275l7.155-2.145c2.247-.02,2.89,2.956,2.89,2.956,0,0,.307,38.617.418,43.152s-2.598,5.973-2.598,5.973l-7.437,2.292c-2.511.905-1.505,3.203-1.348,5.309s-1.713,3.313-1.713,3.313l-11.944,3.562-1.299-1.34-.007-1.557s1.145-.462,1.333.72l.399.149,8.914-2.829s.825-.258.826-1.841-1.146-1.555-1.146-1.555l-8.997,2.673-.25,1.114s-.198.754-1.084.579l-.022-4.588s.878-.457,1.129.091-.138.834.808.693c.946-.142,9.823-2.891,9.823-2.891,0,0,.708-.176.685-1.125s.006-1.385.006-1.385c0,0,.099-.794-1.123-.606-1.222.188-9.434,2.604-9.434,2.604,0,0-.746.256-.812.772s-.049,1.228-.484,1.239-.606-.114-.606-.114l-.015-4.779s-.009-.247.625-.232c0,0,.444-.07.532.304l.08.829s-.301.08.643-.128,10.894-3.352,10.894-3.352c0,0,.936-.55.914-1.473l-.026-1.055s-.259-.864-1.387-.626c-1.129.239-11.107,3.278-11.107,3.278,0,0-.418.168-.458.697s.024,1.002-.29,1.089-.432-.121-.432-.121l-.016-4.551s.037-.251.461-.182.454.226.49.621.195.444.88.374,10.784-3.534,10.784-3.534c0,0,.915-.365.894-1.209s-.002-1.161-.002-1.161c0,0-.417-.86-1.18-.789s-10.996,3.487-10.996,3.487c0,0-.42.089-.356.563s-.053,1.083-.396,1.065c0,0-.593.171-.595-.355l-.012-4.579s.422-.444.988.017c0,0,.159.023.176.708s1.505.042,1.505.042l10.08-3.174s.761-.177.765-1.1-.035-1.45-.035-1.45c0,0-.127-.894-1.15-.632-1.023.262-10.636,3.082-10.636,3.082,0,0-.578.093-.597.41s.028,1.16-.075,1.268-.942.313-1.037-.162l-.045-14.64s-.034-.684.547-.672.592.487.592.487c0,0,.096.684.648.591s10.967-3.591,10.967-3.591c0,0,.76-.23.794-.996s-.067-1.687-.067-1.687c0,0-.385-.65-1.091-.396s-10.24,3.099-10.24,3.099c0,0-1.102.238-1.225.584s.027,1.133-.287,1.22-.671.146-.669-.459l.008-3.444s-.028-.539.419-.603.766.034.833.639.977.029.977.029l10.396-3.208s.707-.202.719-.809-.02-1.899-.02-1.899c0,0,.002-1.003-.915-.743-.917.26-11.054,3.277-11.054,3.277,0,0-.473.064-.516.487s.078,1.027-.367,1.17-.493-.081-.493-.081l-.011-4.074s-.009-.661.546-.621.594.566.594.566c0,0-.122.399.667.3s10.634-3.161,10.634-3.161c0,0,1.023-.236,1.03-1.054s-.041-1.688-.041-1.688c0,0-.225-.575-1.196-.34s-10.898,3.194-10.898,3.194c0,0-.444.195-.436.512s-.018.779-.269.877c-.575.225-.67-.459-.67-.459l.003-3.63s.126-.358.528-.265c0,0,.374-.058.441.521s1.321.073,1.321.073l9.554-3.108s.92-.128.928-.893-.176-1.79-.176-1.79c0,0-.254-.679-1.198-.445s-9.748,2.744-9.748,2.744c0,0-.708.176-.702.439l.021.87s0,.449-.488.54-.498-.303-.498-.303l-.005-3.827s.074-.476.578-.383.438.648.438.648c0,0-.15.347.586.224s9.564-2.713,9.564-2.713c0,0,.656-.148.637-.913s-.173-1.684-.173-1.684c0,0-.204-.787-1.148-.552s-8.809,2.272-8.809,2.272c0,0-.626.279-.648.464s.1.842.024.976.021.686-1.062.738Z" fill="#d1d3d4" stroke="#231f20" stroke-miterlimit="10" stroke-width=".5"/><path d="M75.267,131.33s-.025-1.028,1.348-1.537,2.202-.568,2.202-.568c0,0,.759.298.789,1.524s-.063,5.542-.063,5.542c0,0-.09,1.189-1.664,1.544-1.485.335-2.371.137-2.462-.336s-.15-6.17-.15-6.17Z" fill="#fff" stroke="#231f20" stroke-miterlimit="10" stroke-width=".5"/><rect x="91.45" y="144.056" width="1.543" height="3.521" rx=".244" ry=".244" transform="translate(187.966 289.344) rotate(178.605)" fill="#fff" stroke="#231f20" stroke-miterlimit="10" stroke-width=".5"/><rect x="91.178" y="132.903" width="1.543" height="3.521" rx=".244" ry=".244" transform="translate(187.151 267.047) rotate(178.605)" fill="#fff" stroke="#231f20" stroke-miterlimit="10" stroke-width=".5"/><rect x="90.908" y="121.789" width="1.543" height="3.521" rx=".244" ry=".244" transform="translate(186.339 244.829) rotate(178.605)" fill="#fff" stroke="#231f20" stroke-miterlimit="10" stroke-width=".5"/><rect x="90.617" y="109.844" width="1.543" height="3.521" rx=".244" ry=".244" transform="translate(185.467 220.951) rotate(178.605)" fill="#fff" stroke="#231f20" stroke-miterlimit="10" stroke-width=".5"/><path d="M38.759,47.543l-1.317-.763s-1.063-.355-1.063.923v51.703c0,1.396.816,1.78.816,1.78l1.564.903" fill="#fff" stroke-width="0"/><path d="M38.759,47.543l-1.317-.763s-1.063-.355-1.063.923v51.703c0,1.396.816,1.78.816,1.78l1.564.903" fill="none" stroke="#231f20" stroke-linecap="round" stroke-linejoin="round" stroke-width=".5"/><path d="M36.947,96.855c0-.25.304-.27.677-.052.375.219.679.592.679.836,0,.242-.304.27-.679.054-.374-.219-.677-.591-.677-.838" fill="#fff" stroke-width="0"/><path d="M36.947,96.855c0-.25.304-.27.677-.052.375.219.679.592.679.836,0,.242-.304.27-.679.054-.374-.219-.677-.591-.677-.838Z" fill="none" stroke="#231f20" stroke-linecap="round" stroke-linejoin="round" stroke-width=".5"/><path d="M36.947,81.374c0-.246.304-.273.677-.054.375.215.679.588.679.834,0,.248-.304.271-.679.054-.374-.217-.677-.586-.677-.834" fill="#fff" stroke-width="0"/><path d="M36.947,81.374c0-.246.304-.273.677-.054.375.215.679.588.679.834,0,.248-.304.271-.679.054-.374-.217-.677-.586-.677-.834Z" fill="none" stroke="#231f20" stroke-linecap="round" stroke-linejoin="round" stroke-width=".5"/><path d="M36.947,65.892c0-.25.304-.273.677-.054.375.213.679.59.679.836,0,.244-.304.268-.679.053-.374-.219-.677-.592-.677-.834" fill="#fff" stroke-width="0"/><path d="M36.947,65.892c0-.25.304-.273.677-.054.375.213.679.59.679.836,0,.244-.304.268-.679.053-.374-.219-.677-.592-.677-.834Z" fill="none" stroke="#231f20" stroke-linecap="round" stroke-linejoin="round" stroke-width=".5"/><path d="M36.947,50.408c0-.246.304-.271.677-.054.375.215.679.59.679.836s-.304.275-.679.054c-.374-.213-.677-.59-.677-.836" fill="#fff" stroke-width="0"/><path d="M36.947,50.408c0-.246.304-.271.677-.054.375.215.679.59.679.836s-.304.275-.679.054c-.374-.213-.677-.59-.677-.836Z" fill="none" stroke="#231f20" stroke-linecap="round" stroke-linejoin="round" stroke-width=".5"/><path d="M36.097,60.504l1.66-.971c.086-.047.137-.152.137-.298,0-.298-.206-.655-.461-.799-.126-.074-.237-.08-.322-.033l-1.658.964c.083-.043.196-.034.322.04.255.145.461.505.461.798,0,.147-.053.253-.138.3" fill="#fff" stroke-width="0"/><path d="M36.097,60.504l1.66-.971c.086-.047.137-.152.137-.298,0-.298-.206-.655-.461-.799-.126-.074-.237-.08-.322-.033l-1.658.964c.083-.043.196-.034.322.04.255.145.461.505.461.798,0,.147-.053.253-.138.3Z" fill="none" stroke="#231f20" stroke-linecap="round" stroke-linejoin="round" stroke-width=".5"/><path d="M35.228,59.952c.145.089.261.291.261.454" fill="#fff" stroke-width="0"/><path d="M35.228,59.952c.145.089.261.291.261.454" fill="none" stroke="#231f20" stroke-linecap="round" stroke-linejoin="round" stroke-width=".5"/><polyline points="35.408 59.406 35.185 59.91 34.734 60.08" fill="none" stroke="#231f20" stroke-linecap="round" stroke-linejoin="round" stroke-width=".5"/><path d="M35.21,60.569c0,.174-.12.248-.27.159-.154-.089-.274-.3-.274-.474s.12-.246.274-.157c.149.087.27.298.27.472" fill="#fff" stroke-width="0"/><path d="M35.21,60.569c0,.174-.12.248-.27.159-.154-.089-.274-.3-.274-.474s.12-.246.274-.157c.149.087.27.298.27.472Z" fill="none" stroke="#231f20" stroke-linecap="round" stroke-linejoin="round" stroke-width=".5"/><polyline points="35.21 60.656 35.48 60.469 36.042 60.525" fill="none" stroke="#231f20" stroke-linecap="round" stroke-linejoin="round" stroke-width=".5"/><path d="M36.097,91.797l1.66-.971c.086-.047.137-.154.137-.298,0-.297-.206-.655-.461-.798-.126-.074-.237-.083-.322-.036l-1.658.97c.083-.045.196-.04.322.036.255.147.461.503.461.798,0,.148-.053.251-.138.3" fill="#fff" stroke-width="0"/><path d="M36.097,91.797l1.66-.971c.086-.047.137-.154.137-.298,0-.297-.206-.655-.461-.798-.126-.074-.237-.083-.322-.036l-1.658.97c.083-.045.196-.04.322.036.255.147.461.503.461.798,0,.148-.053.251-.138.3Z" fill="none" stroke="#231f20" stroke-linecap="round" stroke-linejoin="round" stroke-width=".5"/><path d="M35.228,91.249c.145.081.261.286.261.452" fill="#fff" stroke-width="0"/><path d="M35.228,91.249c.145.081.261.286.261.452" fill="none" stroke="#231f20" stroke-linecap="round" stroke-linejoin="round" stroke-width=".5"/><polyline points="35.408 90.699 35.185 91.202 34.734 91.374" fill="none" stroke="#231f20" stroke-linecap="round" stroke-linejoin="round" stroke-width=".5"/><path d="M35.21,91.864c0,.174-.12.242-.27.155-.154-.089-.274-.3-.274-.472,0-.174.12-.242.274-.156.149.087.27.297.27.472" fill="#fff" stroke-width="0"/><path d="M35.21,91.864c0,.174-.12.242-.27.155-.154-.089-.274-.3-.274-.472,0-.174.12-.242.274-.156.149.087.27.297.27.472Z" fill="none" stroke="#231f20" stroke-linecap="round" stroke-linejoin="round" stroke-width=".5"/><polyline points="35.21 91.949 35.48 91.763 36.042 91.824" fill="none" stroke="#231f20" stroke-linecap="round" stroke-linejoin="round" stroke-width=".5"/><path d="M116.113,146.07l3.247-1.816s.619-.242.619-1.632v-22.128c0-.957,1.13-1.42,1.13-1.42l.35-.195s.614-.342.614-1.196v-11.586c0-.959-.706-.762-.706-.762l-.364.06s-1.024.355-1.024-.441v-13.831c0-1.035-.808-.506-.808-.506l-3.027,1.688" fill="none" stroke="#231f20" stroke-linecap="round" stroke-linejoin="round" stroke-width=".5"/><path d="M116.172,146.821l1.351.792s1.065.355,1.065-.923v-51.757c0-1.395-.816-1.78-.816-1.78l-1.569-.906" fill="none" stroke="#231f20" stroke-linecap="round" stroke-linejoin="round" stroke-width=".5"/><path d="M118.02,96.751c0,.242-.302.27-.678.052-.374-.215-.677-.593-.677-.843,0-.242.302-.264.677-.047.376.212.678.586.678.838Z" fill="none" stroke="#231f20" stroke-linecap="round" stroke-linejoin="round" stroke-width=".5"/><path d="M118.02,112.235c0,.242-.302.266-.678.051-.374-.219-.677-.59-.677-.836s.302-.27.677-.054c.376.215.678.592.678.839Z" fill="none" stroke="#231f20" stroke-linecap="round" stroke-linejoin="round" stroke-width=".5"/><path d="M118.02,127.723c0,.244-.302.27-.678.06-.374-.224-.677-.593-.677-.841s.302-.27.677-.054c.376.219.678.591.678.836Z" fill="none" stroke="#231f20" stroke-linecap="round" stroke-linejoin="round" stroke-width=".5"/><path d="M118.02,143.218c0,.244-.302.271-.678.054-.374-.217-.677-.595-.677-.839,0-.242.302-.268.677-.051.376.215.678.59.678.836Z" fill="none" stroke="#231f20" stroke-linecap="round" stroke-linejoin="round" stroke-width=".5"/><path d="M115.923,106.02l1.661-.973c.086-.043.138-.145.138-.298,0-.291-.207-.649-.46-.798-.126-.074-.242-.078-.322-.038l-1.661.973c.086-.042.2-.038.325.038.254.145.458.499.458.798,0,.148-.053.25-.138.298Z" fill="#fff" stroke="#231f20" stroke-linecap="round" stroke-linejoin="round" stroke-width=".5"/><path d="M115.055,105.472c.145.083.262.284.262.452" fill="none" stroke="#231f20" stroke-linecap="round" stroke-linejoin="round" stroke-width=".5"/><polyline points="115.236 104.924 115.014 105.423 114.563 105.599" fill="none" stroke="#231f20" stroke-linecap="round" stroke-linejoin="round" stroke-width=".5"/><path d="M115.039,106.083c0,.175-.123.246-.274.161-.15-.089-.273-.3-.273-.474,0-.172.123-.244.273-.156.151.087.274.295.274.469Z" fill="none" stroke="#231f20" stroke-linecap="round" stroke-linejoin="round" stroke-width=".5"/><polyline points="115.039 106.17 115.308 105.986 115.868 106.045" fill="none" stroke="#231f20" stroke-linecap="round" stroke-linejoin="round" stroke-width=".5"/><path d="M115.923,137.331l1.661-.973c.086-.047.138-.147.138-.3,0-.293-.207-.651-.46-.798-.126-.076-.242-.08-.322-.038l-1.661.973c.086-.043.2-.034.325.036.254.145.458.501.458.798,0,.15-.053.253-.138.302Z" fill="#fff" stroke="#231f20" stroke-linecap="round" stroke-linejoin="round" stroke-width=".5"/><path d="M115.055,136.782c.145.081.262.284.262.45" fill="none" stroke="#231f20" stroke-linecap="round" stroke-linejoin="round" stroke-width=".5"/><polyline points="115.236 136.232 115.014 136.733 114.563 136.906" fill="none" stroke="#231f20" stroke-linecap="round" stroke-linejoin="round" stroke-width=".5"/><path d="M115.039,137.395c0,.177-.123.251-.274.157-.15-.083-.273-.295-.273-.472,0-.166.123-.242.273-.154.151.089.274.3.274.469Z" fill="none" stroke="#231f20" stroke-linecap="round" stroke-linejoin="round" stroke-width=".5"/><polyline points="115.039 137.483 115.308 137.297 115.868 137.353" fill="none" stroke="#231f20" stroke-linecap="round" stroke-linejoin="round" stroke-width=".5"/><line x1="24.391" y1="56.783" x2="38.759" y2="51.496" fill="none" stroke="#231f20" stroke-dasharray="0 0 1.2 1.2" stroke-linecap="round" stroke-linejoin="round" stroke-width=".5"/><line x1="24.391" y1="109.494" x2="38.759" y2="104.207" fill="none" stroke="#231f20" stroke-dasharray="0 0 1.2 1.2" stroke-linecap="round" stroke-linejoin="round" stroke-width=".5"/><line x1="98.307" y1="101.76" x2="116.311" y2="94.565" fill="none" stroke="#231f20" stroke-dasharray="0 0 1.2 1.2" stroke-linecap="round" stroke-linejoin="round" stroke-width=".5"/><line x1="98.998" y1="152.979" x2="115.466" y2="146.578" fill="none" stroke="#231f20" stroke-dasharray="0 0 1.2 1.2" stroke-linecap="round" stroke-linejoin="round" stroke-width=".5"/><path d="M187.851,85.141c0,.394-.43.698-.43.698l-7,4.038s-.37.254-.37-.259v-1.085l-6.986,3.984s-.616.364-.616-.39v-14.623c0-1.029.775-1.274.775-1.274l19.995-11.544s.836-.42.836.296v14.581c0,.875-.674,1.218-.674,1.218l-5.501,3.233s-.028.535-.028,1.127Z" fill="none" stroke="#6d6e71" stroke-linecap="round" stroke-linejoin="round" stroke-width=".5"/><path d="M172.894,83.183v-2.612c0-.679.56-.894.56-.894l2.978-1.718s.443-.32.443.411v2.514" fill="none" stroke="#6d6e71" stroke-linecap="round" stroke-linejoin="round" stroke-width=".5"/><path d="M189.704,73.452v-2.61c0-.679.557-.899.557-.899l2.977-1.716s.446-.32.446.411v2.514" fill="none" stroke="#6d6e71" stroke-linecap="round" stroke-linejoin="round" stroke-width=".5"/><path d="M193.602,71.043c.034-.021.084-.019.142.012.112.065.202.222.202.352,0,.065-.017.107-.058.133l-3.87,2.236c.034-.026.057-.07.057-.135,0-.126-.085-.285-.199-.348-.06-.037-.109-.04-.147-.019" fill="none" stroke="#6d6e71" stroke-linecap="round" stroke-linejoin="round" stroke-width=".5"/><path d="M190.075,73.641c0,.131-.085.184-.199.121-.116-.068-.207-.226-.207-.355,0-.131.091-.184.207-.114.114.063.199.222.199.348Z" fill="none" stroke="#6d6e71" stroke-linecap="round" stroke-linejoin="round" stroke-width=".5"/><polyline points="191.039 72.488 191.039 71.44 192.431 70.677 192.431 71.724" fill="none" stroke="#6d6e71" stroke-linecap="round" stroke-linejoin="round" stroke-width=".5"/><path d="M187.119,71.475v1.984c0,2.883-1.525,3.592-1.525,3.592l-4.306,2.519s-1.72.612-1.72-1.706v-2.15l7.552-4.239Z" fill="none" stroke="#6d6e71" stroke-linecap="round" stroke-linejoin="round" stroke-width=".5"/><path d="M176.827,80.739c.03-.021.084-.016.142.014.112.063.205.224.205.352,0,.063-.022.11-.063.133l-3.869,2.236c.037-.026.06-.068.06-.133,0-.133-.09-.289-.2-.35-.062-.035-.109-.04-.148-.014" fill="none" stroke="#6d6e71" stroke-linecap="round" stroke-linejoin="round" stroke-width=".5"/><path d="M173.302,83.341c0,.128-.09.182-.2.117-.112-.068-.209-.224-.209-.355,0-.126.097-.177.209-.112.11.061.2.217.2.35" fill="#fff" stroke-width="0"/><path d="M173.302,83.341c0,.128-.09.182-.2.117-.112-.068-.209-.224-.209-.355,0-.126.097-.177.209-.112.11.061.2.217.2.35Z" fill="none" stroke="#6d6e71" stroke-linecap="round" stroke-linejoin="round" stroke-width=".5"/><polyline points="174.195 82.221 174.195 81.173 175.591 80.403 175.591 81.453" fill="none" stroke="#6d6e71" stroke-linecap="round" stroke-linejoin="round" stroke-width=".5"/><line x1="177.318" y1="86.581" x2="177.619" y2="85.99" fill="#fff" stroke-width="0"/><line x1="177.318" y1="86.581" x2="177.619" y2="85.99" fill="none" stroke="#58595b" stroke-linecap="round" stroke-linejoin="round" stroke-width=".5"/><line x1="177.318" y1="86.581" x2="177.918" y2="86.233" fill="none" stroke="#6d6e71" stroke-linecap="round" stroke-linejoin="round" stroke-width=".5"/><polyline points="195.194 76.598 190.317 73.762 194.074 71.584 201.067 75.59 180.239 87.48 173.445 83.591 177.33 81.362 182.214 84.133" fill="#fff" stroke-width="0"/><line x1="177.33" y1="81.362" x2="182.214" y2="84.133" fill="none" stroke="#6d6e71" stroke-linecap="round" stroke-linejoin="round" stroke-width=".5"/><polyline points="194.074 71.584 201.067 75.59 180.239 87.48 173.445 83.591" fill="none" stroke="#6d6e71" stroke-linecap="round" stroke-linejoin="round" stroke-width=".5"/><line x1="195.194" y1="76.598" x2="190.317" y2="73.762" fill="none" stroke="#6d6e71" stroke-linecap="round" stroke-linejoin="round" stroke-width=".5"/><path d="M179.603,84.224l-.338-.252s.65-1.501,1.074-1.986c.43-.478.852-.649.852-.649l2.553-1.449s.706.145.651.628l-1.475,2.663,7.197-4.113,1.783-3.17s.284-.824,1.162-1.249l2.384-1.475s.764-.056.561.626l-.649,1.218-1.328.934-1.053,1.986-10.767,6.148-.679-.509" fill="#fff" stroke-width="0"/><path d="M179.295,83.719l-.406.236s-.132.196.202.404c.33.201.61.082.61.082l1.483-.859" fill="none" stroke="#6d6e71" stroke-linecap="round" stroke-linejoin="round" stroke-width=".5"/><path d="M179.614,84.263s.641-1.193.811-1.491c.403-.684.946-.976.946-.976l2.701-1.531s.479-.168.163.551c-.068.159-1.3,2.42-1.365,2.547-.363.714-.037.511-.037.511l7.637-4.472s.189-.138.591-.931c.141-.278,1.102-2.035,1.319-2.465.408-.789.927-1.013.927-1.013l2.517-1.494s.368-.166.224.217c-.05.135-.713,1.356-.713,1.356l-1.281.787-1.116,2.026" fill="none" stroke="#6d6e71" stroke-linecap="round" stroke-linejoin="round" stroke-width=".5"/><polyline points="195.175 76.619 194.93 77.532 183.474 84.147 182.225 84.147" fill="#f1f2f2" stroke-width="0"/><polyline points="195.175 76.619 194.93 77.532 183.474 84.147 182.225 84.147" fill="none" stroke="#6d6e71" stroke-linecap="round" stroke-linejoin="round" stroke-width=".5"/><path d="M147.932,110.129c0,.394-.431.698-.431.698l-7,4.038s-.373.257-.373-.257c0-.518.004-1.088.004-1.088l-6.982,3.982s-.623.371-.623-.387v-14.616c0-1.034.778-1.279.778-1.279l19.992-11.547s.839-.416.839.299v14.583c0,.871-.674,1.216-.674,1.216l-5.505,3.233s-.023.537-.023,1.125Z" fill="none" stroke="#231f20" stroke-linecap="round" stroke-linejoin="round" stroke-width=".5"/><path d="M132.976,108.173v-2.61c0-.684.561-.899.561-.899l2.97-1.718s.448-.322.448.413v2.514" fill="none" stroke="#231f20" stroke-linecap="round" stroke-linejoin="round" stroke-width=".5"/><path d="M149.786,98.442v-2.61c0-.679.557-.901.557-.901l2.975-1.711s.448-.324.448.411v2.509" fill="none" stroke="#231f20" stroke-linecap="round" stroke-linejoin="round" stroke-width=".5"/><path d="M153.821,96.047c.116.063.205.222.205.35,0,.065-.021.11-.056.131l-3.869,2.234c.033-.021.06-.068.06-.131,0-.128-.092-.289-.207-.352-.056-.03-.109-.035-.146-.014" fill="none" stroke="#231f20" stroke-linecap="round" stroke-linejoin="round" stroke-width=".5"/><path d="M150.161,98.631c0,.131-.092.184-.207.119s-.205-.224-.205-.35c0-.135.091-.187.205-.121.114.063.207.224.207.352" fill="#fff" stroke-width="0"/><path d="M150.161,98.631c0,.131-.092.184-.207.119s-.205-.224-.205-.35c0-.135.091-.187.205-.121.114.063.207.224.207.352Z" fill="none" stroke="#231f20" stroke-linecap="round" stroke-linejoin="round" stroke-width=".5"/><polyline points="151.119 97.485 151.119 96.43 152.515 95.665 152.515 96.712" fill="none" stroke="#231f20" stroke-linecap="round" stroke-linejoin="round" stroke-width=".5"/><path d="M147.203,96.467v1.984c0,2.88-1.531,3.592-1.531,3.592l-4.302,2.512s-1.726.621-1.726-1.697v-2.157l7.559-4.234Z" fill="none" stroke="#231f20" stroke-linecap="round" stroke-linejoin="round" stroke-width=".5"/><path d="M136.902,105.731c.037-.023.091-.021.147.012.115.063.202.222.202.352,0,.065-.022.112-.056.135l-3.87,2.229c.034-.019.056-.068.056-.131,0-.128-.09-.289-.205-.352-.055-.03-.105-.035-.14-.014" fill="none" stroke="#231f20" stroke-linecap="round" stroke-linejoin="round" stroke-width=".5"/><path d="M133.381,108.329c0,.131-.09.182-.205.119-.111-.063-.199-.226-.199-.35,0-.135.089-.184.199-.121.116.063.205.224.205.352" fill="#fff" stroke-width="0"/><path d="M133.381,108.329c0,.131-.09.182-.205.119-.111-.063-.199-.226-.199-.35,0-.135.089-.184.199-.121.116.063.205.224.205.352Z" fill="none" stroke="#231f20" stroke-linecap="round" stroke-linejoin="round" stroke-width=".5"/><polyline points="134.272 107.211 134.272 106.161 135.673 105.393 135.673 106.446" fill="none" stroke="#231f20" stroke-linecap="round" stroke-linejoin="round" stroke-width=".5"/><line x1="137.395" y1="111.567" x2="137.699" y2="110.976" fill="#fff" stroke-width="0"/><line x1="137.395" y1="111.567" x2="137.699" y2="110.976" fill="none" stroke="#231f20" stroke-linecap="round" stroke-linejoin="round" stroke-width=".5"/><line x1="137.395" y1="111.567" x2="138" y2="111.224" fill="none" stroke="#231f20" stroke-linecap="round" stroke-linejoin="round" stroke-width=".5"/><polyline points="155.276 101.588 150.397 98.75 154.151 96.575 161.146 100.578 140.321 112.472 133.525 108.579 137.412 106.352 142.296 109.123" fill="#fff" stroke-width="0"/><line x1="137.412" y1="106.352" x2="142.296" y2="109.123" fill="none" stroke="#231f20" stroke-linecap="round" stroke-linejoin="round" stroke-width=".5"/><polyline points="154.151 96.575 161.146 100.578 140.321 112.472 133.525 108.579" fill="none" stroke="#231f20" stroke-linecap="round" stroke-linejoin="round" stroke-width=".5"/><line x1="155.276" y1="101.588" x2="150.397" y2="98.75" fill="none" stroke="#231f20" stroke-linecap="round" stroke-linejoin="round" stroke-width=".5"/><path d="M154.331,101.014l1.484-.861s.127-.243-.142-.432c-.334-.243-.67-.049-.67-.049l-1.483.857" fill="none" stroke="#231f20" stroke-linecap="round" stroke-linejoin="round" stroke-width=".5"/><path d="M139.683,109.216l-.338-.257s.65-1.501,1.076-1.982c.426-.486.848-.654.848-.654l2.551-1.445s.71.142.653.625l-1.475,2.663,7.195-4.11,1.789-3.174s.281-.817,1.16-1.246l2.381-1.473s.768-.058.565.621l-.649,1.221-1.332.934-1.046,1.984-10.768,6.148-.682-.509.14-.341-2.069.994Z" fill="#fff" stroke-width="0"/><path d="M139.375,108.712l-.404.236s-.134.191.199.401c.329.205.609.079.609.079l1.487-.854" fill="none" stroke="#231f20" stroke-linecap="round" stroke-linejoin="round" stroke-width=".5"/><path d="M139.696,109.254s.638-1.195.809-1.494c.405-.684.946-.973.946-.973l2.696-1.526s.486-.175.17.546c-.067.159-1.306,2.423-1.368,2.544-.367.714-.037.511-.037.511l7.637-4.472s.189-.133.591-.927c.14-.278,1.104-2.042,1.319-2.465.404-.794.924-1.013.924-1.013l2.52-1.496s.37-.166.226.219c-.05.133-.719,1.359-.719,1.359l-1.279.784-1.112,2.019" fill="none" stroke="#231f20" stroke-linecap="round" stroke-linejoin="round" stroke-width=".5"/><polyline points="142.309 109.135 143.554 109.135 155.009 102.517 155.252 101.612" fill="none" stroke="#231f20" stroke-linecap="round" stroke-linejoin="round" stroke-width=".5"/><path d="M207.891,78.097c0,12.473-10.111,22.589-22.588,22.589s-22.587-10.116-22.587-22.589,10.114-22.587,22.587-22.587,22.588,10.114,22.588,22.587Z" fill="none" stroke="#6d6e71" stroke-miterlimit="10" stroke-width=".5"/><line x1="183.017" y1="55.664" x2="238.842" y2="51.67" fill="none" stroke="#231f20" stroke-dasharray="0 0 1.2 1.2" stroke-linecap="round" stroke-linejoin="round" stroke-width=".5"/><line x1="172.058" y1="96.646" x2="201.141" y2="128.578" fill="none" stroke="#231f20" stroke-dasharray="0 0 1.2 1.2" stroke-linecap="round" stroke-linejoin="round" stroke-width=".5"/><g clip-path="url(#b)"><polygon points="-27.73 36.813 134.288 130.574 134.288 257.752 -28.144 163.646 -27.73 36.813" fill="#d1d3d4" stroke-width="0"/><polygon points="296.185 6.31 316.912 143.451 139.975 254.72 114.435 110.329 296.185 6.31" fill="#fff" stroke-width="0"/><polyline points="152.613 -47.798 316.334 25.743 316.334 143.213" fill="none" stroke="#231f20" stroke-linecap="round" stroke-linejoin="round" stroke-width=".5"/><line x1="316.312" y1="143.241" x2="134.015" y2="257.108" fill="none" stroke="#231f20" stroke-linecap="round" stroke-linejoin="round" stroke-width=".5"/><line x1="-27.535" y1="37.483" x2="152.529" y2="-47.79" fill="none" stroke="#231f20" stroke-linecap="round" stroke-linejoin="round" stroke-width=".5"/><line x1="222.108" y1="116.782" x2="222.736" y2="115.545" fill="#fff" stroke-width="0"/><path d="M134.022,255.523l6.781-3.781s1.285-.502,1.285-3.412v-46.182c0-1.993,2.363-2.955,2.363-2.955l.731-.413s1.285-.707,1.285-2.497v-24.198c0-2-1.483-1.585-1.483-1.585l-.752.131s-2.144.735-2.144-.927v-28.887c0-2.161-1.677-1.064-1.677-1.064l-6.324,3.527" fill="none" stroke="#231f20" stroke-linecap="round" stroke-linejoin="round" stroke-width=".5"/><path d="M134.148,257.098l2.82,1.662s2.221.738,2.221-1.935v-108.05c0-2.92-1.705-3.718-1.705-3.718l-3.276-1.886" fill="#fff" stroke-width="0"/><path d="M134.148,257.098l2.82,1.662s2.221.738,2.221-1.935v-108.05c0-2.92-1.705-3.718-1.705-3.718l-3.276-1.886" fill="none" stroke="#231f20" stroke-linecap="round" stroke-linejoin="round" stroke-width=".5"/><path d="M138.003,152.568c0,.509-.635.563-1.419.105-.787-.448-1.414-1.235-1.414-1.746s.628-.563,1.414-.114c.784.457,1.419,1.239,1.419,1.755" fill="#fff" stroke-width="0"/><path d="M138.003,152.568c0,.509-.635.563-1.419.105-.787-.448-1.414-1.235-1.414-1.746s.628-.563,1.414-.114c.784.457,1.419,1.239,1.419,1.755Z" fill="none" stroke="#231f20" stroke-linecap="round" stroke-linejoin="round" stroke-width=".5"/><line x1="24.189" y1="131.47" x2="-21.623" y2="105.027" fill="none" stroke="#231f20" stroke-linecap="round" stroke-linejoin="round" stroke-width=".5"/><line x1="24.182" y1="130.145" x2="-21.644" y2="103.681" fill="none" stroke="#231f20" stroke-linecap="round" stroke-linejoin="round" stroke-width=".5"/><line x1="128.027" y1="253.513" x2="128.027" y2="127.554" fill="none" stroke="#231f20" stroke-linecap="round" stroke-linejoin="round" stroke-width=".5"/><polygon points="-27.52 37.509 133.996 130.821 133.996 257.075 -27.52 163.758 -27.52 37.509" fill="none" stroke="#231f20" stroke-linecap="round" stroke-linejoin="round" stroke-width=".5"/><line x1="-21.818" y1="48.414" x2="23.892" y2="74.808" fill="none" stroke="#231f20" stroke-linecap="round" stroke-linejoin="round" stroke-width=".5"/><line x1="30.191" y1="78.44" x2="75.846" y2="104.803" fill="none" stroke="#231f20" stroke-linecap="round" stroke-linejoin="round" stroke-width=".5"/><line x1="-21.818" y1="112.767" x2="23.789" y2="139.105" fill="none" stroke="#231f20" stroke-linecap="round" stroke-linejoin="round" stroke-width=".5"/><line x1="82.095" y1="108.405" x2="127.528" y2="134.64" fill="none" stroke="#231f20" stroke-linecap="round" stroke-linejoin="round" stroke-width=".5"/><line x1="29.912" y1="142.634" x2="75.887" y2="169.178" fill="none" stroke="#231f20" stroke-linecap="round" stroke-linejoin="round" stroke-width=".5"/><line x1="82.027" y1="172.725" x2="127.528" y2="198.996" fill="none" stroke="#231f20" stroke-linecap="round" stroke-linejoin="round" stroke-width=".5"/><line x1="24.15" y1="193.578" x2="24.15" y2="67.511" fill="none" stroke="#231f20" stroke-linecap="round" stroke-linejoin="round" stroke-width=".5"/><line x1="30.114" y1="70.777" x2="30.114" y2="197.009" fill="none" stroke="#231f20" stroke-linecap="round" stroke-linejoin="round" stroke-width=".5"/><line x1="76.094" y1="223.513" x2="76.094" y2="97.775" fill="none" stroke="#231f20" stroke-linecap="round" stroke-linejoin="round" stroke-width=".5"/><line x1="82.054" y1="101.041" x2="82.054" y2="227.08" fill="none" stroke="#231f20" stroke-linecap="round" stroke-linejoin="round" stroke-width=".5"/><path d="M133.619,171.927l3.478-2.024c.171-.103.28-.315.28-.633,0-.612-.435-1.354-.96-1.667-.265-.154-.504-.166-.676-.075l-3.466,2.035c.173-.1.408-.077.679.07.529.303.958,1.05.958,1.667,0,.315-.105.523-.293.626" fill="#fff" stroke-width="0"/><path d="M133.619,171.927l3.478-2.024c.171-.103.28-.315.28-.633,0-.612-.435-1.354-.96-1.667-.265-.154-.504-.166-.676-.075l-3.466,2.035c.173-.1.408-.077.679.07.529.303.958,1.05.958,1.667,0,.315-.105.523-.293.626Z" fill="none" stroke="#231f20" stroke-linecap="round" stroke-linejoin="round" stroke-width=".5"/><path d="M131.806,170.781c.302.173.547.6.547.945" fill="#fff" stroke-width="0"/><path d="M131.806,170.781c.302.173.547.6.547.945" fill="none" stroke="#231f20" stroke-linecap="round" stroke-linejoin="round" stroke-width=".5"/><polyline points="132.188 169.635 131.719 170.685 130.78 171.043" fill="none" stroke="#231f20" stroke-linecap="round" stroke-linejoin="round" stroke-width=".5"/><path d="M131.769,172.067c0,.366-.253.511-.57.329-.314-.177-.563-.623-.563-.985s.249-.511.563-.331c.316.189.57.63.57.987" fill="#fff" stroke-width="0"/><path d="M131.769,172.067c0,.366-.253.511-.57.329-.314-.177-.563-.623-.563-.985s.249-.511.563-.331c.316.189.57.63.57.987Z" fill="none" stroke="#231f20" stroke-linecap="round" stroke-linejoin="round" stroke-width=".5"/><polyline points="131.769 172.245 132.332 171.859 133.501 171.983" fill="none" stroke="#231f20" stroke-linecap="round" stroke-linejoin="round" stroke-width=".5"/><line x1="76.079" y1="161.438" x2="30.108" y2="134.899" fill="none" stroke="#231f20" stroke-linecap="round" stroke-linejoin="round" stroke-width=".5"/><line x1="76.079" y1="160.103" x2="30.095" y2="133.552" fill="none" stroke="#231f20" stroke-linecap="round" stroke-linejoin="round" stroke-width=".5"/><line x1="127.871" y1="191.338" x2="82.039" y2="164.883" fill="none" stroke="#231f20" stroke-linecap="round" stroke-linejoin="round" stroke-width=".5"/><line x1="127.871" y1="190.007" x2="82.067" y2="163.559" fill="none" stroke="#231f20" stroke-linecap="round" stroke-linejoin="round" stroke-width=".5"/><path d="M175.564,153.525c0,.831-.906,1.457-.906,1.457l-14.668,8.468s-.784.541-.784-.539.007-2.278.007-2.278l-14.635,8.342s-1.298.78-1.298-.805v-30.635c0-2.161,1.627-2.675,1.627-2.675l41.897-24.202s1.758-.868,1.758.628v30.56c0,1.823-1.412,2.551-1.412,2.551l-11.544,6.767s-.042,1.13-.042,2.362Z" fill="none" stroke="#231f20" stroke-linecap="round" stroke-linejoin="round" stroke-width=".5"/><path d="M144.221,143.96c0-1.435,1.176-1.881,1.176-1.881l6.224-3.604s.943-.675.943.864v5.268l-8.343,4.822v-5.469Z" fill="none" stroke="#231f20" stroke-linecap="round" stroke-linejoin="round" stroke-width=".5"/><path d="M179.448,123.565c0-1.428,1.167-1.879,1.167-1.879l6.233-3.595s.937-.677.937.859v5.266l-8.337,4.82v-5.471Z" fill="none" stroke="#231f20" stroke-linecap="round" stroke-linejoin="round" stroke-width=".5"/><path d="M179.495,128.667l8.11-4.687c.08-.047.19-.04.301.035.239.133.43.467.43.738,0,.133-.047.231-.124.268l-8.103,4.685c.071-.047.121-.138.121-.275,0-.275-.188-.604-.43-.735-.117-.068-.23-.072-.306-.028" fill="#fff" stroke-width="0"/><path d="M179.495,128.667l8.11-4.687c.08-.047.19-.04.301.035.239.133.43.467.43.738,0,.133-.047.231-.124.268l-8.103,4.685c.071-.047.121-.138.121-.275,0-.275-.188-.604-.43-.735-.117-.068-.23-.072-.306-.028Z" fill="none" stroke="#231f20" stroke-linecap="round" stroke-linejoin="round" stroke-width=".5"/><path d="M180.23,129.43c0,.275-.188.385-.43.254-.233-.145-.433-.474-.433-.74,0-.278.2-.385.433-.25.242.131.43.46.43.735" fill="#fff" stroke-width="0"/><path d="M180.23,129.43c0,.275-.188.385-.43.254-.233-.145-.433-.474-.433-.74,0-.278.2-.385.433-.25.242.131.43.46.43.735Z" fill="none" stroke="#231f20" stroke-linecap="round" stroke-linejoin="round" stroke-width=".5"/><polyline points="182.242 127.022 182.242 124.823 185.165 123.212 185.165 125.413" fill="none" stroke="#231f20" stroke-linecap="round" stroke-linejoin="round" stroke-width=".5"/><polyline points="182.242 126.968 183.484 127.689 183.484 128.226" fill="none" stroke="#231f20" stroke-linecap="round" stroke-linejoin="round" stroke-width=".5"/><polyline points="185.218 125.334 186.463 126.048 186.463 126.515" fill="none" stroke="#231f20" stroke-linecap="round" stroke-linejoin="round" stroke-width=".5"/><path d="M174.026,124.895v4.162c0,6.036-3.2,7.525-3.2,7.525l-9.014,5.266s-3.616,1.298-3.616-3.564v-4.516l15.83-8.872Z" fill="none" stroke="#231f20" stroke-linecap="round" stroke-linejoin="round" stroke-width=".5"/><path d="M144.345,148.99l8.105-4.682c.078-.049.184-.044.308.021.234.142.424.474.424.747,0,.135-.05.229-.121.275l-8.11,4.68c.075-.037.122-.145.122-.28,0-.264-.191-.602-.433-.735-.119-.065-.221-.072-.295-.026" fill="#fff" stroke-width="0"/><path d="M144.345,148.99l8.105-4.682c.078-.049.184-.044.308.021.234.142.424.474.424.747,0,.135-.05.229-.121.275l-8.11,4.68c.075-.037.122-.145.122-.28,0-.264-.191-.602-.433-.735-.119-.065-.221-.072-.295-.026Z" fill="none" stroke="#231f20" stroke-linecap="round" stroke-linejoin="round" stroke-width=".5"/><path d="M145.074,149.751c0,.28-.191.385-.433.252-.233-.133-.42-.469-.42-.735,0-.278.187-.387.42-.252.242.133.433.471.433.735" fill="#fff" stroke-width="0"/><path d="M145.074,149.751c0,.28-.191.385-.433.252-.233-.133-.42-.469-.42-.735,0-.278.187-.387.42-.252.242.133.433.471.433.735Z" fill="none" stroke="#231f20" stroke-linecap="round" stroke-linejoin="round" stroke-width=".5"/><polyline points="146.935 147.414 146.935 145.211 149.873 143.598 149.873 145.806" fill="none" stroke="#231f20" stroke-linecap="round" stroke-linejoin="round" stroke-width=".5"/><line x1="146.935" y1="147.356" x2="148.18" y2="148.077" fill="none" stroke="#231f20" stroke-linecap="round" stroke-linejoin="round" stroke-width=".5"/><line x1="149.916" y1="145.72" x2="151.167" y2="146.441" fill="none" stroke="#231f20" stroke-linecap="round" stroke-linejoin="round" stroke-width=".5"/><line x1="153.481" y1="156.541" x2="154.118" y2="155.306" fill="#fff" stroke-width="0"/><line x1="153.481" y1="156.541" x2="154.118" y2="155.306" fill="none" stroke="#231f20" stroke-linecap="round" stroke-linejoin="round" stroke-width=".5"/><line x1="153.481" y1="156.541" x2="154.746" y2="155.813" fill="none" stroke="#231f20" stroke-linecap="round" stroke-linejoin="round" stroke-width=".5"/><polyline points="190.953 135.627 180.727 129.685 188.596 125.122 203.253 133.51 159.612 158.434 145.37 150.281 153.518 145.61 163.752 151.42" fill="#f1f2f2" stroke-width="0"/><polyline points="190.953 135.627 180.727 129.685 188.596 125.122 203.253 133.51 159.612 158.434 145.37 150.281 153.518 145.61 163.752 151.42" fill="none" stroke="#231f20" stroke-linecap="round" stroke-linejoin="round" stroke-width=".5"/><path d="M188.97,134.425l3.11-1.8s.265-.518-.301-.91c-.694-.504-1.397-.103-1.397-.103l-3.107,1.8" fill="none" stroke="#231f20" stroke-linecap="round" stroke-linejoin="round" stroke-width=".5"/><path d="M158.28,151.614l-.714-.537s1.365-3.151,2.252-4.159c.894-1.011,1.781-1.365,1.781-1.365l5.347-3.027s1.49.299,1.369,1.307l-3.086,5.581,15.077-8.611,3.745-6.652s.588-1.716,2.429-2.612l4.987-3.086s1.609-.119,1.192,1.302l-1.368,2.556-2.785,1.963-2.199,4.152-22.561,12.884-1.427-1.064.291-.712-4.33,2.08Z" fill="#f1f2f2" stroke-width="0"/><path d="M157.634,150.556l-.85.495s-.279.402.414.84c.693.425,1.281.166,1.281.166l3.114-1.793" fill="none" stroke="#231f20" stroke-linecap="round" stroke-linejoin="round" stroke-width=".5"/><path d="M162.241,149.721l-3.938,1.975s1.333-2.502,1.695-3.137c.848-1.426,1.984-2.04,1.984-2.04l5.65-3.2s1.014-.366.355,1.146c-.14.338-2.732,5.077-2.865,5.333-.766,1.501-.075,1.069-.075,1.069l16-9.369s.396-.275,1.238-1.944c.299-.584,2.314-4.278,2.759-5.158.857-1.667,1.939-2.131,1.939-2.131l5.282-3.135s.774-.341.475.462c-.109.278-1.502,2.843-1.502,2.843l-2.681,1.648-2.333,4.234" fill="none" stroke="#231f20" stroke-linecap="round" stroke-linejoin="round" stroke-width=".5"/><path d="M158.336,151.7l-.78-.698s1.337-2.495,1.706-3.128c.835-1.433,1.97-2.04,1.97-2.04l5.658-3.2s.9-.387,1.3.777" fill="none" stroke="#231f20" stroke-linecap="round" stroke-linejoin="round" stroke-width=".5"/><line x1="161.506" y1="150.288" x2="162.241" y2="149.721" fill="none" stroke="#231f20" stroke-linecap="round" stroke-linejoin="round" stroke-width=".5"/><polyline points="190.905 135.674 190.395 137.576 166.384 151.448 163.777 151.448" fill="#f1f2f2" stroke-width="0"/><polyline points="190.905 135.674 190.395 137.576 166.384 151.448 163.777 151.448" fill="none" stroke="#231f20" stroke-linecap="round" stroke-linejoin="round" stroke-width=".5"/><line x1="190.839" y1="135.793" x2="163.846" y2="151.387" fill="none" stroke="#231f20" stroke-linecap="round" stroke-linejoin="round" stroke-width=".5"/><path d="M165.25,149.634l15.05-8.818s.405-.287,1.242-1.956c.299-.576,2.299-4.274,2.766-5.151.817-1.578,1.941-2.129,1.941-2.129l5.275-3.132s1.148-.259,1.288.747" fill="none" stroke="#231f20" stroke-linecap="round" stroke-linejoin="round" stroke-width=".5"/><line x1="160.962" y1="146.012" x2="161.84" y2="146.518" fill="none" stroke="#231f20" stroke-linecap="round" stroke-linejoin="round" stroke-width=".5"/><line x1="159.591" y1="147.69" x2="160.308" y2="148.105" fill="none" stroke="#231f20" stroke-linecap="round" stroke-linejoin="round" stroke-width=".5"/><line x1="186.133" y1="131.715" x2="186.842" y2="132.122" fill="none" stroke="#231f20" stroke-linecap="round" stroke-linejoin="round" stroke-width=".5"/><line x1="184.522" y1="133.37" x2="185.243" y2="133.786" fill="none" stroke="#231f20" stroke-linecap="round" stroke-linejoin="round" stroke-width=".5"/></g><path d="M286.177,99.008c0,26.139-21.189,47.335-47.334,47.335s-47.334-21.196-47.334-47.335,21.192-47.338,47.334-47.338,47.334,21.193,47.334,47.338Z" fill="none" stroke="#231f20" stroke-width=".5"/><path d="M247.107,114.023c0,.931-1.026,1.646-1.026,1.646l-16.59,9.577s-.886.607-.886-.614v-2.57l-16.558,9.437s-1.457.873-1.457-.91v-34.666c0-2.442,1.83-3.025,1.83-3.025l47.405-27.37s1.987-.992,1.987.7v34.57c0,2.068-1.602,2.89-1.602,2.89l-13.052,7.658s-.052,1.274-.052,2.677Z" fill="none" stroke="#231f20" stroke-linecap="round" stroke-linejoin="round" stroke-width=".5"/><path d="M245.365,81.63v4.703c0,6.827-3.618,8.508-3.618,8.508l-10.206,5.968s-4.084,1.461-4.084-4.031v-5.114l17.907-10.034Z" fill="none" stroke="#231f20" stroke-linecap="round" stroke-linejoin="round" stroke-width=".5"/><path d="M250.906,100.604v-22.435l3.956-2.273v-3.77c0-1.342-1.461-.495-1.461-.495l-4.359,2.558s-2.564,1.069-2.564,5.093v7.159c0,7.602-4.033,9.476-4.033,9.476l-11.367,6.65s-4.55,1.431-4.55-4.495v-7.607c0-3.912-3.064-1.781-3.064-1.781l-4.187,2.371s-1.323.642-1.323,2.43v3.735" fill="none" stroke="#231f20" stroke-dasharray="0 0 .75 1" stroke-width=".5"/><line x1="217.954" y1="97.22" x2="221.828" y2="94.984" fill="none" stroke="#231f20" stroke-dasharray="0 0 .75 1" stroke-width=".5"/><path d="M211.643,103.193c0-1.618,1.332-2.129,1.332-2.129l7.051-4.071s1.055-.763,1.055.98v5.954l-9.438,5.452v-6.188Z" fill="none" stroke="#231f20" stroke-linecap="round" stroke-linejoin="round" stroke-width=".5"/><path d="M251.487,80.125c0-1.613,1.335-2.126,1.335-2.126l7.05-4.073s1.055-.761,1.055.978v5.959l-9.44,5.448v-6.185Z" fill="none" stroke="#231f20" stroke-linecap="round" stroke-linejoin="round" stroke-width=".5"/><path d="M251.553,85.895l9.175-5.298c.089-.051.209-.047.343.033.271.154.482.53.482.836,0,.152-.05.261-.137.313l-9.176,5.294c.086-.051.14-.156.14-.31,0-.306-.215-.679-.482-.836-.134-.077-.256-.084-.345-.03" fill="#f1f2f2" stroke-width="0"/><path d="M251.553,85.895l9.175-5.298c.089-.051.209-.047.343.033.271.154.482.53.482.836,0,.152-.05.261-.137.313l-9.176,5.294c.086-.051.14-.156.14-.31,0-.306-.215-.679-.482-.836-.134-.077-.256-.084-.345-.03Z" fill="none" stroke="#231f20" stroke-linecap="round" stroke-linejoin="round" stroke-width=".5"/><path d="M252.38,86.761c0,.308-.215.437-.482.278-.268-.152-.486-.527-.486-.836,0-.306.217-.429.486-.278.267.156.482.53.482.836" fill="#fff" stroke-width="0"/><path d="M252.38,86.761c0,.308-.215.437-.482.278-.268-.152-.486-.527-.486-.836,0-.306.217-.429.486-.278.267.156.482.53.482.836Z" fill="none" stroke="#231f20" stroke-linecap="round" stroke-linejoin="round" stroke-width=".5"/><polyline points="254.657 84.03 254.657 81.542 257.969 79.723 257.969 82.214" fill="none" stroke="#231f20" stroke-linecap="round" stroke-linejoin="round" stroke-width=".5"/><polyline points="254.654 83.969 256.066 84.786 256.066 85.388" fill="none" stroke="#231f20" stroke-linecap="round" stroke-linejoin="round" stroke-width=".5"/><polyline points="258.028 82.125 259.437 82.937 259.437 83.456" fill="none" stroke="#231f20" stroke-linecap="round" stroke-linejoin="round" stroke-width=".5"/><path d="M211.783,108.886l9.173-5.296c.087-.051.211-.042.345.033.267.154.482.53.482.833,0,.154-.049.261-.135.317l-9.178,5.291c.084-.049.14-.159.14-.31,0-.308-.218-.684-.483-.838-.135-.075-.257-.082-.344-.03" fill="#f1f2f2" stroke-width="0"/><path d="M211.783,108.886l9.173-5.296c.087-.051.211-.042.345.033.267.154.482.53.482.833,0,.154-.049.261-.135.317l-9.178,5.291c.084-.049.14-.159.14-.31,0-.308-.218-.684-.483-.838-.135-.075-.257-.082-.344-.03Z" fill="none" stroke="#231f20" stroke-linecap="round" stroke-linejoin="round" stroke-width=".5"/><path d="M212.611,109.754c0,.306-.218.434-.483.278-.266-.154-.484-.527-.484-.836,0-.306.218-.432.484-.28.265.154.483.53.483.838" fill="#fff" stroke-width="0"/><path d="M212.611,109.754c0,.306-.218.434-.483.278-.266-.154-.484-.527-.484-.836,0-.306.218-.432.484-.28.265.154.483.53.483.838Z" fill="none" stroke="#231f20" stroke-linecap="round" stroke-linejoin="round" stroke-width=".5"/><polyline points="214.725 107.1 214.725 104.61 218.039 102.791 218.039 105.282" fill="none" stroke="#231f20" stroke-linecap="round" stroke-linejoin="round" stroke-width=".5"/><polyline points="216.131 108.459 216.131 107.852 214.723 107.039" fill="none" stroke="#231f20" stroke-linecap="round" stroke-linejoin="round" stroke-width=".5"/><polyline points="218.094 105.193 219.503 106.005 219.503 106.524" fill="none" stroke="#231f20" stroke-linecap="round" stroke-linejoin="round" stroke-width=".5"/><polyline points="278.213 91.252 278.213 91.956 228.837 120.148 212.723 110.928 212.723 110.218" fill="#fff" stroke-width="0"/><polyline points="278.213 91.252 278.213 92.394 228.837 120.585 212.723 111.305 212.723 110.218" fill="none" stroke="#231f20" stroke-linecap="round" stroke-linejoin="round" stroke-width=".5"/><polyline points="264.359 93.646 252.786 86.917 261.696 81.759 278.278 91.252 228.905 119.443 212.788 110.218 222.008 104.946 233.585 111.509" fill="#fff" stroke-width="0"/><polyline points="261.696 81.759 278.278 91.252 228.905 119.443 212.788 110.218 222.008 104.946 233.585 111.509" fill="none" stroke="#231f20" stroke-linecap="round" stroke-linejoin="round" stroke-width=".5"/><line x1="264.359" y1="93.646" x2="252.786" y2="86.917" fill="none" stroke="#231f20" stroke-linecap="round" stroke-linejoin="round" stroke-width=".5"/><path d="M262.116,92.281l3.517-2.028s.308-.584-.329-1.039c-.796-.56-1.595-.107-1.595-.107l-3.515,2.033" fill="none" stroke="#231f20" stroke-linecap="round" stroke-linejoin="round" stroke-width=".5"/><path d="M227.395,111.724l-.808-.604s1.545-3.555,2.553-4.701c1.011-1.141,2.018-1.543,2.018-1.543l6.044-3.426s1.677.331,1.55,1.477l-3.496,6.314,17.065-9.74,4.23-7.523s.675-1.951,2.755-2.955l5.64-3.494s1.816-.138,1.343,1.477l-1.543,2.887-3.16,2.22-2.482,4.698-25.529,14.576-1.61-1.204.335-.808-4.905,2.348Z" fill="#d1d3d4" stroke-width="0"/><path d="M226.664,110.531l-.964.555s-.314.46.479.957c.775.483,1.447.189,1.447.189l3.514-2.033" fill="none" stroke="#231f20" stroke-linecap="round" stroke-linejoin="round" stroke-width=".5"/><path d="M231.877,109.591l-4.457,2.227s1.511-2.831,1.925-3.541c.956-1.622,2.234-2.313,2.234-2.313l6.401-3.62s1.139-.406.399,1.302c-.161.378-3.091,5.742-3.239,6.034-.865,1.694-.093,1.211-.093,1.211l18.104-10.604s.448-.322,1.403-2.203c.333-.661,2.613-4.834,3.125-5.835.965-1.881,2.193-2.409,2.193-2.409l5.973-3.538s.874-.394.532.514c-.118.315-1.698,3.212-1.698,3.212l-3.03,1.87-2.645,4.797" fill="none" stroke="#231f20" stroke-linecap="round" stroke-linejoin="round" stroke-width=".5"/><path d="M227.46,111.824l-.879-.78s1.508-2.834,1.924-3.543c.956-1.622,2.234-2.313,2.234-2.313l6.398-3.623s1.015-.439,1.469.887" fill="none" stroke="#231f20" stroke-linecap="round" stroke-linejoin="round" stroke-width=".5"/><line x1="231.048" y1="110.235" x2="231.877" y2="109.591" fill="none" stroke="#231f20" stroke-linecap="round" stroke-linejoin="round" stroke-width=".5"/><polyline points="264.227 93.838 233.691 111.467 236.566 111.539 263.727 95.854 264.31 93.693" fill="#d1d3d4" stroke-width="0"/><polyline points="264.227 93.838 233.691 111.467 236.566 111.539 263.727 95.854 264.31 93.693" fill="none" stroke="#231f20" stroke-linecap="round" stroke-linejoin="round" stroke-width=".5"/><path d="M235.282,109.486l17.026-9.971s.455-.324,1.406-2.208c.333-.658,2.607-4.834,3.127-5.835.929-1.783,2.193-2.406,2.193-2.406l5.972-3.543s1.294-.294,1.457.84" fill="none" stroke="#231f20" stroke-linecap="round" stroke-linejoin="round" stroke-width=".5"/><line x1="230.429" y1="105.384" x2="231.427" y2="105.963" fill="none" stroke="#231f20" stroke-linecap="round" stroke-linejoin="round" stroke-width=".5"/><line x1="228.876" y1="107.289" x2="229.688" y2="107.756" fill="none" stroke="#231f20" stroke-linecap="round" stroke-linejoin="round" stroke-width=".5"/><line x1="258.905" y1="89.214" x2="259.717" y2="89.688" fill="none" stroke="#231f20" stroke-linecap="round" stroke-linejoin="round" stroke-width=".5"/><line x1="257.089" y1="91.097" x2="257.901" y2="91.567" fill="none" stroke="#231f20" stroke-linecap="round" stroke-linejoin="round" stroke-width=".5"/><line x1="228.837" y1="120.148" x2="228.837" y2="119.41" fill="none" stroke="#231f20" stroke-linecap="round" stroke-linejoin="round" stroke-width=".5"/><path d="M260.328,108.041l-5.235-1.972-1.978,6.694,1.33-.763c.463,1.853.773,3.086.773,4.85,0,3.207-1.029,3.258-2.461,4.918,4.115-.324,7.09-1.377,7.09-7.233,0-1.858-.286-3.805-.803-5.756l1.285-.738Z" fill="#231f20" stroke-width="0"/><path d="M260.328,108.041l-5.235-1.972-1.978,6.694,1.33-.763c.463,1.853.773,3.086.773,4.85,0,3.207-1.029,3.258-2.461,4.918,4.115-.324,7.09-1.377,7.09-7.233,0-1.858-.286-3.805-.803-5.756l1.285-.738Z" fill="none" stroke="#fff" stroke-width=".5"/><path d="M248.305,119.877c-.732-.422-1.442-.915-2.137-1.468l-3.571,2.061c.622.488,1.266.922,1.92,1.298,3.878,2.243,7.291,1.916,9.285-.404-1.624.131-3.498-.331-5.497-1.487" fill="#231f20" stroke-width="0"/></svg>