<?xml version="1.0" encoding="UTF-8"?><svg id="a" xmlns="http://www.w3.org/2000/svg" width="5.625in" height="1.75in" viewBox="0 0 405 126"><rect x="4.171" y="37.853" width="396" height="82.759" fill="none" stroke="#ccc" stroke-linecap="round" stroke-linejoin="round" stroke-width="1.5"/><rect x="8.196" y="41.957" width="387.949" height="74.551" fill="#e6e6e6" stroke-width="0"/><rect x="14.915" y="80.532" width="180.967" height="33.173" fill="#ccc" stroke-width="0"/><path d="M72.441,109.477h28.281c.403,0,.755-.302.755-.755v-25.614c0-.453-.352-.755-.755-.755h-28.281c-.403,0-.755.302-.755.755v25.614c0,.453.352.755.755.755" fill="#e6e6e6" fill-rule="evenodd" stroke-width="0"/><path d="M91.211,83.763c0-.201-.151-.302-.302-.302s-.302.151-.302.302l.201,1.862c0,.101.05.101.101.101s.101-.05.101-.101l.201-1.862M91.261,86.43c0-.201-.151-.352-.352-.352s-.352.151-.352.352c0,.151.151.302.352.302s.352-.151.352-.302Z" fill="#262626" fill-rule="evenodd" stroke-width="0"/><path d="M84.266,84.77c-.201-.805-1.057-1.258-1.862-1.057-.855.252-1.308,1.107-1.057,1.912.252.805,1.107,1.258,1.912,1.057.805-.252,1.258-1.107,1.006-1.912M84.065,85.071c.101.654-.403,1.308-1.107,1.359-.503.101-1.057-.201-1.258-.705l.855-.855.352,1.359,1.157-1.157ZM81.549,85.373c-.05-.704.403-1.359,1.107-1.409.554-.101,1.057.201,1.308.705l-.855.855-.352-1.359-1.208,1.208Z" fill="#262626" fill-rule="evenodd" stroke-width="0"/><circle cx="82.884" cy="89.606" r="1.694" fill="#262626" stroke-width="0"/><circle cx="90.961" cy="89.606" r="1.694" fill="#262626" stroke-width="0"/><path d="M155.371,107.766h12.782c.554,0,1.006-.453,1.006-.956v-23.198c0-.503-.453-.956-1.006-.956h-12.782c-.503,0-.956.453-.956.956v23.198c0,.503.453.956.956.956Z" fill="#595a5a" stroke-width="0"/><path d="M156.377,103.992h10.819c.403,0,.755-.352.755-.755v-16.053c0-.403-.352-.755-.755-.755h-10.819c-.453,0-.755.352-.755.755v16.053c0,.403.302.755.755.755Z" fill="#d9d9d9" stroke-width="0"/><path d="M166.341,91.211v-2.365c0-.252-.201-.453-.453-.453h-8.202c-.252,0-.453.201-.453.453v2.365h9.108Z" fill="#595a5a" stroke-width="0"/><path d="M166.341,91.211h-9.108v10.165c0,.252.201.453.453.453h8.202c.252,0,.453-.201.453-.453v-10.165Z" fill="#6a6a6a" stroke-width="0"/><path d="M161.761,95.186c.151,0,.302-.101.302-.252v-2.164c0-.151-.151-.252-.302-.252s-.252.101-.252.252v2.164c0,.151.101.252.252.252M162.768,98.91c0-.554-.453-.956-1.006-.956-.503,0-.956.403-.956.956s.453.956.956.956c.554,0,1.006-.403,1.006-.956ZM163.321,98.91c0-.855-.705-1.51-1.56-1.51-.805,0-1.51.654-1.51,1.51s.705,1.51,1.51,1.51c.855,0,1.56-.654,1.56-1.51Z" fill="#fff" fill-rule="evenodd" stroke-width="0"/><rect x="172.581" y="82.404" width="19.625" height="26.067" rx="1.359" ry="1.359" fill="#595a5a" stroke-width="0"/><path d="M174.543,90.154v10.568c0,.554.252,1.107.704,1.56l4.227,4.026c.403.403.956.604,1.51.604h7.095c1.208,0,2.164-.956,2.164-2.164v-18.619c0-1.208-.956-2.164-2.164-2.164h-7.095c-.554,0-1.107.201-1.51.604l-4.227,4.026c-.453.453-.704,1.006-.704,1.56Z" fill="#292929" stroke-width="0"/><path d="M182.544,102.281h4.328v-1.308h-4.328v1.308ZM177.915,96.092h4.328v-1.308h-4.328v1.308ZM182.544,89.902h4.328v-1.258h-4.328v1.258Z" fill="#b3b3b3" fill-rule="evenodd" stroke-width="0"/><rect x="133.35" y="109.177" width="62.149" height="4.527" fill="#595a5a" stroke-width="0"/><rect x="85.156" y="106.913" width="4.527" height="6.791" fill="#595a5a" stroke-width="0"/><rect x="15.927" y="109.177" width="46.75" height="4.527" fill="#595a5a" stroke-width="0"/><path d="M108.214,109.177c-.948,0-1.843-.105-2.738-.316l-6.423-1.579c-.895-.263-1.79-.368-2.738-.368h-6.844c-.263,0-.474.211-.474.474v5.896c0,.211.211.421.474.421h43.853v-4.527h-25.112Z" fill="#6a6a6a" stroke-width="0"/><path d="M92.631,113.02h38.22v-3.159h-22.637c-1,0-1.948-.105-2.895-.368l-6.423-1.579c-.842-.211-1.685-.316-2.58-.316h-3.685v5.422" fill="#d66927" fill-rule="evenodd" stroke-width="0"/><path d="M78.575,109.177h-15.951v4.527h22.795c.211,0,.421-.211.421-.421v-5.896c0-.263-.211-.474-.421-.474h-3.159c-.263,0-.474.105-.684.263l-2.316,1.79c-.211.158-.474.211-.684.211Z" fill="#6a6a6a" stroke-width="0"/><rect x="12.558" y="110.651" width="6.791" height="3.053" fill="#595a5a" stroke-width="0"/><rect x="209.566" y="80.532" width="180.967" height="33.173" fill="#ccc" stroke-width="0"/><path d="M267.092,109.477h28.281c.403,0,.755-.302.755-.755v-25.614c0-.453-.352-.755-.755-.755h-28.281c-.403,0-.755.302-.755.755v25.614c0,.453.352.755.755.755" fill="#e6e6e6" fill-rule="evenodd" stroke-width="0"/><path d="M285.862,83.763c0-.201-.151-.302-.302-.302s-.302.151-.302.302l.201,1.862c0,.101.05.101.101.101s.101-.05.101-.101l.201-1.862M285.912,86.43c0-.201-.151-.352-.352-.352s-.352.151-.352.352c0,.151.151.302.352.302s.352-.151.352-.302Z" fill="#262626" fill-rule="evenodd" stroke-width="0"/><path d="M278.917,84.77c-.201-.805-1.057-1.258-1.862-1.057-.855.252-1.308,1.107-1.057,1.912.252.805,1.107,1.258,1.912,1.057.805-.252,1.258-1.107,1.006-1.912M278.716,85.071c.101.654-.403,1.308-1.107,1.359-.503.101-1.057-.201-1.258-.705l.855-.855.352,1.359,1.157-1.157ZM276.2,85.373c-.05-.704.403-1.359,1.107-1.409.554-.101,1.057.201,1.308.705l-.855.855-.352-1.359-1.208,1.208Z" fill="#262626" fill-rule="evenodd" stroke-width="0"/><circle cx="277.535" cy="89.606" r="1.694" fill="#262626" stroke-width="0"/><circle cx="285.612" cy="89.606" r="1.694" fill="#262626" stroke-width="0"/><path d="M350.022,107.766h12.782c.554,0,1.006-.453,1.006-.956v-23.198c0-.503-.453-.956-1.006-.956h-12.782c-.503,0-.956.453-.956.956v23.198c0,.503.453.956.956.956Z" fill="#595a5a" stroke-width="0"/><path d="M351.028,103.992h10.819c.403,0,.755-.352.755-.755v-16.053c0-.403-.352-.755-.755-.755h-10.819c-.453,0-.755.352-.755.755v16.053c0,.403.302.755.755.755Z" fill="#d9d9d9" stroke-width="0"/><path d="M360.992,91.211v-2.365c0-.252-.201-.453-.453-.453h-8.202c-.252,0-.453.201-.453.453v2.365h9.108Z" fill="#595a5a" stroke-width="0"/><path d="M360.992,91.211h-9.108v10.165c0,.252.201.453.453.453h8.202c.252,0,.453-.201.453-.453v-10.165Z" fill="#6a6a6a" stroke-width="0"/><path d="M356.413,95.186c.151,0,.302-.101.302-.252v-2.164c0-.151-.151-.252-.302-.252s-.252.101-.252.252v2.164c0,.151.101.252.252.252M357.419,98.91c0-.554-.453-.956-1.006-.956-.503,0-.956.403-.956.956s.453.956.956.956c.554,0,1.006-.403,1.006-.956ZM357.972,98.91c0-.855-.705-1.51-1.56-1.51-.805,0-1.51.654-1.51,1.51s.705,1.51,1.51,1.51c.855,0,1.56-.654,1.56-1.51Z" fill="#fff" fill-rule="evenodd" stroke-width="0"/><rect x="367.232" y="82.404" width="19.625" height="26.067" rx="1.359" ry="1.359" fill="#595a5a" stroke-width="0"/><path d="M369.194,90.154v10.568c0,.554.252,1.107.704,1.56l4.227,4.026c.403.403.956.604,1.51.604h7.095c1.208,0,2.164-.956,2.164-2.164v-18.619c0-1.208-.956-2.164-2.164-2.164h-7.095c-.554,0-1.107.201-1.51.604l-4.227,4.026c-.453.453-.704,1.006-.704,1.56Z" fill="#292929" stroke-width="0"/><path d="M377.195,102.281h4.328v-1.308h-4.328v1.308ZM372.566,96.092h4.328v-1.308h-4.328v1.308ZM377.195,89.902h4.328v-1.258h-4.328v1.258Z" fill="#b3b3b3" fill-rule="evenodd" stroke-width="0"/><rect x="329.541" y="109.281" width="60.722" height="4.424" fill="#595a5a" stroke-width="0"/><rect x="282.452" y="107.069" width="4.424" height="6.635" fill="#595a5a" stroke-width="0"/><rect x="214.814" y="109.281" width="45.677" height="4.424" fill="#595a5a" stroke-width="0"/><path d="M304.981,109.281c-.926,0-1.8-.103-2.675-.309l-6.275-1.543c-.874-.257-1.749-.36-2.675-.36h-6.687c-.257,0-.463.206-.463.463v5.761c0,.206.206.411.463.411h42.846v-4.424h-24.535Z" fill="#6a6a6a" stroke-width="0"/><path d="M289.756,113.036h37.343v-3.086h-22.118c-.977,0-1.903-.103-2.829-.36l-6.275-1.543c-.823-.206-1.646-.309-2.52-.309h-3.601v5.298" fill="#d66927" fill-rule="evenodd" stroke-width="0"/><path d="M276.023,109.281h-15.585v4.424h22.272c.206,0,.412-.206.412-.411v-5.761c0-.257-.206-.463-.412-.463h-3.086c-.257,0-.463.103-.669.257l-2.263,1.749c-.206.154-.463.206-.669.206Z" fill="#6a6a6a" stroke-width="0"/><rect x="211.522" y="110.721" width="6.635" height="2.983" fill="#595a5a" stroke-width="0"/><path d="M201.89,90.669h4.126v-4.982h-4.126l-1.912,2.466,1.912,2.516ZM204.104,106.269l1.912-2.516-1.912-2.516h-4.126v5.032h4.126Z" fill="#333" fill-rule="evenodd" stroke-width="0"/><path d="M203.047,103.753c0-.705-.604-1.308-1.359-1.308s-1.359.604-1.359,1.308c0,.755.604,1.359,1.359,1.359s1.359-.604,1.359-1.359M202.796,103.954c-.101.604-.654,1.006-1.258.906-.503-.05-.855-.403-.956-.855l-.05-.05.956-.554v1.258l1.258-.755.05.05ZM200.582,103.602c.05-.604.654-1.006,1.258-.956.453.101.855.453.906.906l-.956.554v-1.258l-1.258.755h.05ZM204.003,88.153c0-.705-.604-1.308-1.359-1.308s-1.359.604-1.359,1.308c0,.755.604,1.359,1.359,1.359s1.359-.604,1.359-1.359ZM203.752,88.354c-.05.604-.654,1.006-1.258.906-.453-.05-.855-.403-.906-.855l-.05-.05.956-.554v1.258l1.258-.755v.05ZM201.538,88.002c.101-.604.654-1.006,1.258-.906.503.05.855.403.956.855l-.956.554v-1.258l-1.258.755Z" fill="#fff" fill-rule="evenodd" stroke-width="0"/><path d="M205.38,89.257h-.266v-1.689c-.063.061-.147.122-.251.183s-.196.106-.279.137v-.256c.148-.07.278-.154.39-.254.11-.099.189-.195.235-.288h.171v2.168Z" fill="#fff" stroke-width="0"/><path d="M204.768,104.606v.255h-1.427c-.003-.063.008-.125.03-.185.036-.097.095-.192.175-.287.08-.094.195-.203.347-.327.234-.192.394-.345.476-.457.083-.112.124-.219.124-.318,0-.105-.037-.194-.112-.267s-.174-.108-.294-.108c-.128,0-.23.039-.307.115s-.115.183-.116.318l-.272-.028c.019-.203.089-.358.211-.465.121-.106.285-.159.49-.159.207,0,.371.057.492.172.12.115.181.258.181.428,0,.086-.018.171-.053.255-.035.083-.094.171-.176.264-.082.092-.219.219-.409.38-.159.133-.262.224-.307.271s-.082.096-.111.144h1.059Z" fill="#fff" stroke-width="0"/><rect x="14.915" y="44.886" width="180.967" height="33.173" fill="#e6e6e6" stroke-width="0"/><polyline points="201.89 55.783 206.016 55.783 206.016 50.802 201.89 50.802 199.978 53.267 201.89 55.783" fill="#333" fill-rule="evenodd" stroke-width="0"/><polygon points="204.104 71.383 206.016 68.867 204.104 66.401 199.978 66.401 199.978 71.383 204.104 71.383" fill="#333" fill-rule="evenodd" stroke-width="0"/><path d="M205.346,54.625h-.569l-.227-.589h-1.036l-.214.589h-.555l1.01-2.592h.553l1.038,2.592ZM204.382,53.599l-.357-.962-.35.962h.707Z" fill="#fff" stroke-width="0"/><path d="M201.099,67.634h1.035c.205,0,.358.009.459.026.101.017.19.053.271.106.079.055.146.127.198.217.054.09.08.191.08.303,0,.122-.033.233-.099.334-.064.102-.153.178-.266.229.158.046.279.124.364.235.085.11.127.24.127.391,0,.117-.027.232-.082.344s-.13.2-.225.267-.212.107-.351.123c-.087.01-.298.016-.631.018h-.882v-2.592ZM201.622,68.066v.6h.343c.204,0,.331-.003.381-.009.089-.011.159-.042.211-.093.051-.052.077-.119.077-.203,0-.08-.022-.145-.066-.195-.044-.05-.11-.08-.197-.091-.052-.006-.201-.009-.447-.009h-.301ZM201.622,69.096v.693h.484c.188,0,.309-.006.359-.016.077-.015.141-.049.189-.104s.073-.128.073-.221c0-.077-.019-.144-.057-.197-.037-.055-.092-.094-.163-.119-.071-.024-.226-.037-.464-.037h-.423Z" fill="#fff" stroke-width="0"/><rect x="209.566" y="44.886" width="180.967" height="33.173" fill="#e6e6e6" stroke-width="0"/><rect x="114.257" y="45.09" width="81.218" height="26.993" fill="#999" stroke-width="0"/><rect x="154.866" y="45.09" width="29.621" height="20.902" fill="#2762ac" stroke-width="0"/><rect x="114.212" y="45.09" width="40.415" height="20.902" fill="#f5f6f6" stroke-width="0"/><rect x="15.228" y="45.113" width="95.46" height="30.579" fill="#999" stroke-width="0"/><path d="M87.623,59.174h15.745c.39,0,.634-.244.634-.634v-7.361c0-.39-.244-.682-.634-.682h-15.745c-.341,0-.634.292-.634.682v7.361c0,.39.292.634.634.634Z" fill="#f5f6f6" fill-rule="evenodd" stroke-width="0"/><rect x="67.589" y="49.889" width="12.869" height="8.336" rx=".634" ry=".634" fill="#f5f6f6" stroke-width="0"/><rect x="23.345" y="46.434" width="17.11" height="12.041" rx=".634" ry=".634" fill="#f5f6f6" stroke-width="0"/><rect x="43.952" y="46.434" width="17.11" height="12.041" rx=".634" ry=".634" fill="#f5f6f6" stroke-width="0"/><rect x="16.046" y="59.1" width="64.176" height="14.858" fill="#2762ac" stroke-width="0"/><rect x="23.187" y="63.029" width="12.566" height="8.149" fill="#231f20" stroke="#2762ac" stroke-miterlimit="10" stroke-width=".393"/><rect x="36.2" y="63.029" width="12.566" height="8.149" fill="#231f20" stroke="#2762ac" stroke-miterlimit="10" stroke-width=".393"/><rect x="49.213" y="63.029" width="12.566" height="8.149" fill="#231f20" stroke="#2762ac" stroke-miterlimit="10" stroke-width=".393"/><rect x="62.226" y="63.029" width="12.566" height="8.149" fill="#231f20" stroke="#2762ac" stroke-miterlimit="10" stroke-width=".393"/><circle cx="26.84" cy="60.94" r=".854" fill="#262626" stroke-width="0"/><circle cx="32.282" cy="60.94" r=".854" fill="#262626" stroke-width="0"/><circle cx="39.812" cy="60.94" r=".854" fill="#262626" stroke-width="0"/><circle cx="45.254" cy="60.94" r=".854" fill="#262626" stroke-width="0"/><circle cx="52.785" cy="60.94" r=".854" fill="#262626" stroke-width="0"/><circle cx="58.227" cy="60.94" r=".854" fill="#262626" stroke-width="0"/><circle cx="65.757" cy="60.94" r=".854" fill="#262626" stroke-width="0"/><circle cx="71.2" cy="60.94" r=".854" fill="#262626" stroke-width="0"/><polygon points="26.311 54.152 26.311 56.735 37.425 56.735 37.425 54.152 37.182 54.152 37.182 52.397 37.425 52.397 37.425 49.862 34.988 49.862 34.988 48.253 33.916 48.253 33.916 47.473 29.772 47.473 29.772 48.253 28.748 48.253 28.748 49.862 26.311 49.862 26.311 52.397 26.506 52.397 26.506 54.152 26.311 54.152" fill="#262626" stroke-width="0"/><polygon points="46.883 54.152 46.883 56.735 57.997 56.735 57.997 54.152 57.753 54.152 57.753 52.397 57.997 52.397 57.997 49.862 55.56 49.862 55.56 48.253 54.487 48.253 54.487 47.473 50.344 47.473 50.344 48.253 49.32 48.253 49.32 49.862 46.883 49.862 46.883 52.397 47.077 52.397 47.077 54.152 46.883 54.152" fill="#262626" stroke-width="0"/><path d="M71.063,55.998h6.045c.829,0,1.511-.682,1.511-1.511v-.487c0-.829-.682-1.462-1.511-1.462h-6.045c-.829,0-1.462.634-1.462,1.462v.487c0,.829.634,1.511,1.462,1.511Z" fill="#1a1a1a" fill-rule="evenodd" stroke-width="0"/><path d="M101.023,52.369h-10.822c-.146,0-.292.098-.292.244v4.144c0,.146.146.244.292.244h10.822c.146,0,.292-.097.292-.244v-4.144c0-.146-.146-.244-.292-.244Z" fill="#262626" stroke-width="0"/><polygon points="18.998 67.26 19.618 67.26 19.618 69.213 19.897 69.213 19.897 68.469 20.456 68.469 20.456 68.996 21.51 68.996 21.51 67.601 20.456 67.601 20.456 68.097 19.897 68.097 19.897 66.112 20.456 66.112 20.456 66.577 21.51 66.577 21.51 65.213 20.456 65.213 20.456 65.74 19.897 65.74 19.897 65.058 19.618 65.058 19.618 66.888 18.998 66.888 18.967 66.329 17.882 66.329 17.882 67.787 18.967 67.787 18.998 67.26" fill="#fff" fill-rule="evenodd" stroke-width="0"/><path d="M107.439,52.709v3.266l-.731-.731v-.634c.195-.097.244-.292.195-.487-.098-.146-.292-.244-.487-.195-.146.097-.244.292-.195.487.049.098.146.146.195.195v.78l1.024.975v.341c-.292.049-.487.341-.39.634.049.292.341.487.634.39.292-.049.487-.341.39-.634-.049-.195-.195-.341-.39-.39v-1.267l.975-.975v-.634h.244v-.731h-.731v.731h.244v.487l-.731.731v-2.34h.244l-.39-.731-.341.731h.244Z" fill="#f2f2f2" fill-rule="evenodd" stroke-width="0"/><path d="M20.952,52.411h-2.389c-.195-.536-.731-.78-1.267-.634-.097.049-.195.097-.292.195v.146h.536l.341.634-.341.585h-.536v.146c.439.341,1.024.292,1.365-.146.097-.049.146-.195.195-.292h2.389c.146.487.682.682,1.121.536.097-.049.195-.097.244-.146v-.146h-.487l-.292-.536.292-.585h.487v-.097c-.39-.341-.926-.292-1.219.097-.097.049-.146.146-.146.244Z" fill="#f2f2f2" fill-rule="evenodd" stroke-width="0"/><path d="M119.644,61.696h9.36c.097,0,.195-.097.195-.195v-9.36c0-.097-.097-.244-.195-.244h-9.36c-.146,0-.244.146-.244.244v9.36c0,.097.098.195.244.195" fill="#262626" fill-rule="evenodd" stroke-width="0"/><path d="M132.739,61.696h9.36c.097,0,.195-.097.195-.195v-9.36c0-.097-.097-.244-.195-.244h-9.36c-.146,0-.244.146-.244.244v9.36c0,.097.098.195.244.195" fill="#262626" fill-rule="evenodd" stroke-width="0"/><path d="M143.357,61.696h9.36c.097,0,.195-.097.195-.195v-9.36c0-.097-.097-.244-.195-.244h-9.36c-.146,0-.244.146-.244.244v9.36c0,.097.098.195.244.195" fill="#262626" fill-rule="evenodd" stroke-width="0"/><rect x="156.682" y="51.749" width="12.566" height="8.149" fill="#638c1c" stroke="#2762ac" stroke-miterlimit="10" stroke-width=".393"/><rect x="169.689" y="51.749" width="12.566" height="8.149" fill="#638c1c" stroke="#2762ac" stroke-miterlimit="10" stroke-width=".393"/><circle cx="122.213" cy="48.151" r="1.106" fill="#262626" stroke-width="0"/><circle cx="126.309" cy="48.151" r="1.106" fill="#262626" stroke-width="0"/><circle cx="135.673" cy="48.151" r="1.106" fill="#262626" stroke-width="0"/><circle cx="139.77" cy="48.151" r="1.106" fill="#262626" stroke-width="0"/><circle cx="145.476" cy="48.151" r="1.106" fill="#262626" stroke-width="0"/><circle cx="149.573" cy="48.151" r="1.106" fill="#262626" stroke-width="0"/><circle cx="160.205" cy="48.151" r="1.106" fill="#262626" stroke-width="0"/><circle cx="166.496" cy="48.151" r="1.106" fill="#262626" stroke-width="0"/><circle cx="173.031" cy="48.151" r="1.106" fill="#262626" stroke-width="0"/><circle cx="179.322" cy="48.151" r="1.106" fill="#262626" stroke-width="0"/><path d="M106.835,71.871v3.722H19.847v1.349h86.988v1.117h88.657v-4.42h-80.168v-2.233h-8.06c-.238,0-.429.186-.429.465Z" fill="#4d4e4e" stroke-width="0"/><path d="M111.938,73.639h-19.172c-.191,0-.429.093-.572.233l-2.671,2.605c-.191.14-.382.233-.62.233H24.378c-.191,0-.429-.093-.572-.233l-2.671-2.605c-.191-.14-.382-.233-.62-.233h-4.531v1.396h-3.386v3.024h99.34v-4.42Z" fill="#4d4e4e" stroke-width="0"/><path d="M125.768,71.406h-13.83v6.653h28.853v-4.42h-3.052c-.572,0-1.145-.093-1.717-.186l-8.584-1.861c-.525-.093-1.097-.186-1.669-.186Z" fill="#6a6a6a" stroke-width="0"/><path d="M137.882,74.337h-3.1c-.906,0-1.812-.093-2.718-.279l-5.961-1.349c-.763-.186-1.574-.279-2.385-.279h-3.481v4.606h17.646v-2.698" fill="#d66927" fill-rule="evenodd" stroke-width="0"/><rect x="66.648" y="52.783" width=".159" height="1.591" fill="#fff" stroke-width="0"/><path d="M66.171,53.579c0,.345-.292.637-.637.637s-.637-.292-.637-.637.292-.637.637-.637.637.292.637.637Z" fill="none" stroke="#fff" stroke-miterlimit="10" stroke-width=".168"/><rect x="64.261" y="52.783" width=".186" height="1.591" fill="#fff" stroke-width="0"/><path d="M63.784,53.579c0,.345-.265.637-.637.637-.345,0-.637-.292-.637-.637s.292-.637.637-.637c.371,0,.637.292.637.637Z" fill="none" stroke="#fff" stroke-miterlimit="10" stroke-width=".168"/><rect x="61.874" y="52.783" width=".186" height="1.591" fill="#fff" stroke-width="0"/><rect x="309.32" y="45.09" width="81.218" height="26.993" fill="#999" stroke-width="0"/><rect x="349.929" y="45.09" width="29.621" height="20.902" fill="#2762ac" stroke-width="0"/><rect x="309.275" y="45.09" width="40.415" height="20.902" fill="#f5f6f6" stroke-width="0"/><rect x="210.291" y="45.113" width="95.46" height="30.579" fill="#999" stroke-width="0"/><path d="M282.686,59.174h15.745c.39,0,.634-.244.634-.634v-7.361c0-.39-.244-.682-.634-.682h-15.745c-.341,0-.634.292-.634.682v7.361c0,.39.292.634.634.634Z" fill="#f5f6f6" fill-rule="evenodd" stroke-width="0"/><rect x="262.652" y="49.889" width="12.869" height="8.336" rx=".634" ry=".634" fill="#f5f6f6" stroke-width="0"/><rect x="218.409" y="46.434" width="17.11" height="12.041" rx=".634" ry=".634" fill="#f5f6f6" stroke-width="0"/><rect x="239.015" y="46.434" width="17.11" height="12.041" rx=".634" ry=".634" fill="#f5f6f6" stroke-width="0"/><rect x="211.109" y="59.1" width="64.176" height="14.858" fill="#2762ac" stroke-width="0"/><rect x="218.25" y="63.029" width="12.566" height="8.149" fill="#231f20" stroke="#2762ac" stroke-miterlimit="10" stroke-width=".393"/><rect x="231.263" y="63.029" width="12.566" height="8.149" fill="#231f20" stroke="#2762ac" stroke-miterlimit="10" stroke-width=".393"/><rect x="244.276" y="63.029" width="12.566" height="8.149" fill="#231f20" stroke="#2762ac" stroke-miterlimit="10" stroke-width=".393"/><rect x="257.289" y="63.029" width="12.566" height="8.149" fill="#231f20" stroke="#2762ac" stroke-miterlimit="10" stroke-width=".393"/><circle cx="227.345" cy="60.94" r=".854" fill="#262626" stroke-width="0"/><circle cx="234.876" cy="60.94" r=".854" fill="#262626" stroke-width="0"/><circle cx="240.318" cy="60.94" r=".854" fill="#262626" stroke-width="0"/><circle cx="247.848" cy="60.94" r=".854" fill="#262626" stroke-width="0"/><circle cx="253.29" cy="60.94" r=".854" fill="#262626" stroke-width="0"/><circle cx="260.821" cy="60.94" r=".854" fill="#262626" stroke-width="0"/><circle cx="266.263" cy="60.94" r=".854" fill="#262626" stroke-width="0"/><polygon points="221.374 54.152 221.374 56.735 232.489 56.735 232.489 54.152 232.245 54.152 232.245 52.397 232.489 52.397 232.489 49.862 230.051 49.862 230.051 48.253 228.979 48.253 228.979 47.473 224.835 47.473 224.835 48.253 223.812 48.253 223.812 49.862 221.374 49.862 221.374 52.397 221.569 52.397 221.569 54.152 221.374 54.152" fill="#262626" stroke-width="0"/><polygon points="241.946 54.152 241.946 56.735 253.06 56.735 253.06 54.152 252.816 54.152 252.816 52.397 253.06 52.397 253.06 49.862 250.623 49.862 250.623 48.253 249.55 48.253 249.55 47.473 245.407 47.473 245.407 48.253 244.383 48.253 244.383 49.862 241.946 49.862 241.946 52.397 242.141 52.397 242.141 54.152 241.946 54.152" fill="#262626" stroke-width="0"/><path d="M266.127,55.998h6.045c.829,0,1.511-.682,1.511-1.511v-.487c0-.829-.682-1.462-1.511-1.462h-6.045c-.829,0-1.462.634-1.462,1.462v.487c0,.829.634,1.511,1.462,1.511Z" fill="#1a1a1a" fill-rule="evenodd" stroke-width="0"/><path d="M296.086,52.369h-10.822c-.146,0-.292.098-.292.244v4.144c0,.146.146.244.292.244h10.822c.146,0,.292-.097.292-.244v-4.144c0-.146-.146-.244-.292-.244Z" fill="#262626" stroke-width="0"/><path d="M302.503,52.709v3.266l-.731-.731v-.634c.195-.097.244-.292.195-.487-.098-.146-.292-.244-.487-.195-.146.097-.244.292-.195.487.049.098.146.146.195.195v.78l1.024.975v.341c-.292.049-.487.341-.39.634.049.292.341.487.634.39.292-.049.487-.341.39-.634-.049-.195-.195-.341-.39-.39v-1.267l.975-.975v-.634h.244v-.731h-.731v.731h.244v.487l-.731.731v-2.34h.244l-.39-.731-.341.731h.244Z" fill="#f2f2f2" fill-rule="evenodd" stroke-width="0"/><path d="M314.707,61.696h9.36c.097,0,.195-.097.195-.195v-9.36c0-.097-.097-.244-.195-.244h-9.36c-.146,0-.244.146-.244.244v9.36c0,.097.098.195.244.195" fill="#262626" fill-rule="evenodd" stroke-width="0"/><path d="M327.802,61.696h9.36c.097,0,.195-.097.195-.195v-9.36c0-.097-.097-.244-.195-.244h-9.36c-.146,0-.244.146-.244.244v9.36c0,.097.098.195.244.195" fill="#262626" fill-rule="evenodd" stroke-width="0"/><path d="M338.42,61.696h9.36c.097,0,.195-.097.195-.195v-9.36c0-.097-.097-.244-.195-.244h-9.36c-.146,0-.244.146-.244.244v9.36c0,.097.098.195.244.195" fill="#262626" fill-rule="evenodd" stroke-width="0"/><rect x="351.746" y="51.749" width="12.566" height="8.149" fill="#638c1c" stroke="#2762ac" stroke-miterlimit="10" stroke-width=".393"/><rect x="364.752" y="51.749" width="12.566" height="8.149" fill="#638c1c" stroke="#2762ac" stroke-miterlimit="10" stroke-width=".393"/><circle cx="317.276" cy="48.151" r="1.106" fill="#262626" stroke-width="0"/><circle cx="321.373" cy="48.151" r="1.106" fill="#262626" stroke-width="0"/><circle cx="330.736" cy="48.151" r="1.106" fill="#262626" stroke-width="0"/><circle cx="334.833" cy="48.151" r="1.106" fill="#262626" stroke-width="0"/><circle cx="340.539" cy="48.151" r="1.106" fill="#262626" stroke-width="0"/><circle cx="344.636" cy="48.151" r="1.106" fill="#262626" stroke-width="0"/><circle cx="355.268" cy="48.151" r="1.106" fill="#262626" stroke-width="0"/><circle cx="361.559" cy="48.151" r="1.106" fill="#262626" stroke-width="0"/><circle cx="368.094" cy="48.151" r="1.106" fill="#262626" stroke-width="0"/><circle cx="374.386" cy="48.151" r="1.106" fill="#262626" stroke-width="0"/><path d="M301.898,71.871v3.722h-86.988v1.349h86.988v1.117h88.657v-4.42h-80.168v-2.233h-8.06c-.238,0-.429.186-.429.465Z" fill="#4d4e4e" stroke-width="0"/><path d="M307.001,73.639h-19.172c-.191,0-.429.093-.572.233l-2.671,2.605c-.191.14-.382.233-.62.233h-64.525c-.191,0-.429-.093-.572-.233l-2.671-2.605c-.191-.14-.382-.233-.62-.233h-4.531v1.396h-3.386v3.024h99.34v-4.42Z" fill="#4d4e4e" stroke-width="0"/><path d="M320.831,71.406h-13.83v6.653h28.853v-4.42h-3.052c-.572,0-1.145-.093-1.717-.186l-8.584-1.861c-.525-.093-1.097-.186-1.669-.186Z" fill="#6a6a6a" stroke-width="0"/><path d="M332.945,74.337h-3.1c-.906,0-1.812-.093-2.718-.279l-5.961-1.349c-.763-.186-1.574-.279-2.385-.279h-3.481v4.606h17.646v-2.698" fill="#d66927" fill-rule="evenodd" stroke-width="0"/><rect x="261.712" y="52.783" width=".159" height="1.591" fill="#fff" stroke-width="0"/><path d="M261.234,53.579c0,.345-.292.637-.637.637s-.637-.292-.637-.637.292-.637.637-.637.637.292.637.637Z" fill="none" stroke="#fff" stroke-miterlimit="10" stroke-width=".168"/><rect x="259.324" y="52.783" width=".186" height="1.591" fill="#fff" stroke-width="0"/><path d="M258.847,53.579c0,.345-.265.637-.637.637-.345,0-.637-.292-.637-.637s.292-.637.637-.637c.371,0,.637.292.637.637Z" fill="none" stroke="#fff" stroke-miterlimit="10" stroke-width=".168"/><rect x="256.937" y="52.783" width=".186" height="1.591" fill="#fff" stroke-width="0"/><path d="M215.355,52.411h-2.389c-.195-.536-.731-.78-1.267-.634-.097.049-.195.097-.292.195v.146h.536l.341.634-.341.585h-.536v.146c.439.341,1.024.292,1.365-.146.097-.049.146-.195.195-.292h2.389c.146.487.682.682,1.121.536.097-.049.195-.097.244-.146v-.146h-.487l-.292-.536.292-.585h.487v-.097c-.39-.341-.926-.292-1.219.097-.097.049-.146.146-.146.244Z" fill="#f2f2f2" fill-rule="evenodd" stroke-width="0"/><polygon points="214.002 67.26 214.623 67.26 214.623 69.213 214.902 69.213 214.902 68.469 215.46 68.469 215.46 68.996 216.514 68.996 216.514 67.601 215.46 67.601 215.46 68.097 214.902 68.097 214.902 66.112 215.46 66.112 215.46 66.577 216.514 66.577 216.514 65.213 215.46 65.213 215.46 65.74 214.902 65.74 214.902 65.058 214.623 65.058 214.623 66.888 214.002 66.888 213.971 66.329 212.886 66.329 212.886 67.787 213.971 67.787 214.002 67.26" fill="#fff" fill-rule="evenodd" stroke-width="0"/><polyline points="357.921 56.051 357.921 10.692 332.893 10.692" fill="none" stroke="#638c1c" stroke-linecap="round" stroke-linejoin="round" stroke-width="2"/><polyline points="163.042 56.051 163.042 10.692 237.094 10.692" fill="none" stroke="#638c1c" stroke-linecap="round" stroke-linejoin="round" stroke-width="2"/><circle cx="238.524" cy="10.48" r="2.661" fill="#638c1c" stroke-width="0"/><circle cx="238.524" cy="17.973" r="2.661" fill="#638c1c" stroke-width="0"/><circle cx="332.032" cy="10.48" r="2.661" fill="#638c1c" stroke-width="0"/><circle cx="332.032" cy="17.973" r="2.661" fill="#638c1c" stroke-width="0"/><polyline points="370.768 56.051 370.768 17.857 332.032 17.857" fill="none" stroke="#638c1c" stroke-linecap="round" stroke-linejoin="round" stroke-width="2"/><polyline points="175.888 56.051 175.888 17.857 238.524 17.857" fill="none" stroke="#638c1c" stroke-linecap="round" stroke-linejoin="round" stroke-width="2"/><path d="M246.623,21.279h22.478V6.775c0-.176-.145-.311-.324-.311h-21.832c-.178,0-.321.135-.321.311v14.503Z" fill="#638c1c" stroke-width="0"/><path d="M257.445,11.294l-1.544.38-.404-1.594,2.542-.759h1.329v8.918h-1.923v-6.945Z" fill="#fff" stroke-width="0"/><path d="M159.46,57.014c.117.113.286.17.506.17.158,0,.294-.039.407-.118s.184-.162.209-.25h.688c-.11.341-.278.585-.506.731s-.502.22-.825.22c-.224,0-.425-.035-.604-.107-.18-.071-.332-.173-.457-.305-.124-.132-.221-.29-.288-.474-.068-.183-.103-.385-.103-.604,0-.213.035-.411.104-.594.07-.184.169-.342.297-.476.129-.134.282-.239.46-.316s.375-.116.591-.116c.242,0,.453.047.633.141s.327.219.442.377c.116.157.199.337.25.539.052.201.07.412.056.632h-2.052c.011.254.075.437.192.551ZM160.343,55.518c-.094-.103-.235-.154-.426-.154-.125,0-.229.021-.312.063-.082.042-.148.095-.197.156-.05.062-.085.129-.104.198-.021.069-.032.132-.036.188h1.271c-.037-.198-.102-.349-.195-.451Z" fill="#fff" stroke-width="0"/><path d="M161.713,54.811c.075-.255.177-.459.305-.613.129-.154.278-.264.448-.33.171-.065.352-.099.542-.099.194,0,.377.033.547.099.171.066.321.176.451.33.131.154.233.358.309.613s.112.569.112.943c0,.385-.037.707-.112.965-.075.259-.178.465-.309.619-.13.154-.28.264-.451.33-.17.065-.353.099-.547.099-.19,0-.371-.033-.542-.099-.17-.066-.319-.176-.448-.33-.128-.154-.229-.36-.305-.619-.075-.258-.113-.58-.113-.965,0-.374.038-.688.113-.943ZM162.392,56.153c.008.156.03.307.069.451.038.145.1.269.184.371.085.103.206.154.363.154.161,0,.285-.052.371-.154s.148-.227.188-.371c.038-.145.062-.295.068-.451.008-.155.011-.288.011-.398,0-.066,0-.146-.002-.239-.002-.094-.01-.189-.022-.289-.013-.099-.031-.197-.055-.294-.024-.098-.06-.185-.107-.262-.048-.076-.108-.139-.182-.187s-.163-.071-.27-.071-.195.023-.267.071-.13.11-.176.187c-.046.077-.082.164-.107.262-.025.097-.044.195-.055.294-.012.1-.018.195-.02.289s-.003.173-.003.239c0,.11.004.243.011.398Z" fill="#fff" stroke-width="0"/><path d="M164.806,55.727c.012-.184.058-.336.138-.457.081-.121.184-.218.309-.291.124-.073.265-.126.42-.157.156-.031.312-.047.471-.047.143,0,.288.011.435.03.146.021.28.06.401.118.121.06.22.141.297.245s.115.243.115.415v1.479c0,.129.008.252.022.369s.04.205.077.264h-.792c-.015-.044-.027-.089-.036-.135s-.016-.093-.02-.141c-.124.129-.271.219-.439.27-.169.052-.341.077-.518.077-.135,0-.262-.017-.379-.049-.117-.033-.22-.085-.309-.154-.088-.069-.156-.158-.206-.265-.049-.105-.074-.232-.074-.379,0-.161.028-.294.086-.398.057-.104.13-.188.22-.251.09-.062.192-.108.308-.14s.232-.057.35-.074c.117-.019.232-.033.347-.044.113-.012.214-.028.302-.05.089-.022.158-.054.209-.097.052-.042.075-.104.072-.184,0-.085-.014-.151-.042-.201-.027-.05-.063-.088-.109-.115s-.1-.046-.16-.055c-.061-.01-.125-.015-.195-.015-.153,0-.274.033-.362.1-.088.065-.14.176-.154.33h-.781ZM166.611,56.304c-.033.029-.074.053-.124.069-.05.016-.103.029-.159.041-.058.011-.117.02-.179.027-.062.007-.125.017-.188.027-.059.011-.116.025-.173.044-.058.019-.106.043-.148.074-.043.031-.076.07-.103.118-.025.048-.038.108-.038.182,0,.069.013.129.038.176.026.048.061.086.104.113s.096.047.154.058.119.017.182.017c.154,0,.273-.025.357-.077s.146-.112.188-.185c.04-.071.064-.144.074-.217.009-.073.014-.132.014-.176v-.292Z" fill="#fff" stroke-width="0"/><path d="M172.266,57.014c.117.113.286.17.506.17.158,0,.294-.039.407-.118s.184-.162.209-.25h.688c-.11.341-.278.585-.506.731s-.502.22-.825.22c-.224,0-.425-.035-.604-.107-.18-.071-.332-.173-.457-.305-.124-.132-.221-.29-.288-.474-.068-.183-.103-.385-.103-.604,0-.213.035-.411.104-.594.07-.184.169-.342.297-.476.129-.134.282-.239.46-.316s.375-.116.591-.116c.242,0,.453.047.633.141s.327.219.442.377c.116.157.199.337.25.539.052.201.07.412.056.632h-2.052c.011.254.075.437.192.551ZM173.149,55.518c-.094-.103-.235-.154-.426-.154-.125,0-.229.021-.312.063-.082.042-.148.095-.197.156-.05.062-.085.129-.104.198-.021.069-.032.132-.036.188h1.271c-.037-.198-.102-.349-.195-.451Z" fill="#fff" stroke-width="0"/><path d="M174.519,54.811c.075-.255.177-.459.305-.613.129-.154.278-.264.448-.33.171-.065.352-.099.542-.099.194,0,.377.033.547.099.171.066.321.176.451.33.131.154.233.358.309.613s.112.569.112.943c0,.385-.037.707-.112.965-.075.259-.178.465-.309.619-.13.154-.28.264-.451.33-.17.065-.353.099-.547.099-.19,0-.371-.033-.542-.099-.17-.066-.319-.176-.448-.33-.128-.154-.229-.36-.305-.619-.075-.258-.113-.58-.113-.965,0-.374.038-.688.113-.943ZM175.198,56.153c.008.156.03.307.069.451.038.145.1.269.184.371.085.103.206.154.363.154.161,0,.285-.052.371-.154s.148-.227.188-.371c.038-.145.062-.295.068-.451.008-.155.011-.288.011-.398,0-.066,0-.146-.002-.239-.002-.094-.01-.189-.022-.289-.013-.099-.031-.197-.055-.294-.024-.098-.06-.185-.107-.262-.048-.076-.108-.139-.182-.187s-.163-.071-.27-.071-.195.023-.267.071-.13.11-.176.187c-.046.077-.082.164-.107.262-.025.097-.044.195-.055.294-.012.1-.018.195-.02.289s-.003.173-.003.239c0,.11.004.243.011.398Z" fill="#fff" stroke-width="0"/><path d="M178.426,53.769v1.43h.011c.096-.146.225-.254.388-.321.163-.068.333-.103.509-.103.144,0,.284.03.424.089.139.059.265.148.377.269.111.121.202.276.271.465.07.189.104.414.104.674s-.034.485-.104.674c-.069.189-.16.344-.271.465-.112.121-.238.211-.377.27-.14.059-.28.088-.424.088-.209,0-.396-.033-.561-.099-.165-.066-.29-.178-.374-.336h-.012v.363h-.742v-3.927h.781ZM179.691,55.93c-.025-.11-.065-.207-.121-.291-.055-.085-.123-.151-.206-.201-.082-.05-.183-.074-.3-.074-.113,0-.213.024-.297.074s-.154.116-.209.201c-.055.084-.096.181-.121.291s-.038.226-.038.347c0,.117.013.23.038.341s.066.207.121.292c.055.084.125.151.209.2.084.05.184.074.297.074.117,0,.218-.024.3-.074.083-.049.151-.116.206-.2.056-.085.096-.182.121-.292s.039-.224.039-.341c0-.121-.014-.236-.039-.347Z" fill="#fff" stroke-width="0"/><path d="M354.628,57.014c.117.113.286.17.506.17.158,0,.294-.039.407-.118s.184-.162.209-.25h.688c-.11.341-.278.585-.506.731s-.502.22-.825.22c-.224,0-.425-.035-.604-.107-.18-.071-.332-.173-.457-.305-.124-.132-.221-.29-.288-.474-.068-.183-.103-.385-.103-.604,0-.213.035-.411.104-.594.07-.184.169-.342.297-.476.129-.134.282-.239.46-.316s.375-.116.591-.116c.242,0,.453.047.633.141s.327.219.442.377c.116.157.199.337.25.539.052.201.07.412.056.632h-2.052c.011.254.075.437.192.551ZM355.511,55.518c-.094-.103-.235-.154-.426-.154-.125,0-.229.021-.312.063-.082.042-.148.095-.197.156-.05.062-.085.129-.104.198-.021.069-.032.132-.036.188h1.271c-.037-.198-.102-.349-.195-.451Z" fill="#fff" stroke-width="0"/><path d="M356.881,54.811c.075-.255.177-.459.305-.613.129-.154.278-.264.448-.33.171-.065.352-.099.542-.099.194,0,.377.033.547.099.171.066.321.176.451.33.131.154.233.358.309.613s.112.569.112.943c0,.385-.037.707-.112.965-.075.259-.178.465-.309.619-.13.154-.28.264-.451.33-.17.065-.353.099-.547.099-.19,0-.371-.033-.542-.099-.17-.066-.319-.176-.448-.33-.128-.154-.229-.36-.305-.619-.075-.258-.113-.58-.113-.965,0-.374.038-.688.113-.943ZM357.56,56.153c.008.156.03.307.069.451.038.145.1.269.184.371.085.103.206.154.363.154.161,0,.285-.052.371-.154s.148-.227.188-.371c.038-.145.062-.295.068-.451.008-.155.011-.288.011-.398,0-.066,0-.146-.002-.239-.002-.094-.01-.189-.022-.289-.013-.099-.031-.197-.055-.294-.024-.098-.06-.185-.107-.262-.048-.076-.108-.139-.182-.187s-.163-.071-.27-.071-.195.023-.267.071-.13.11-.176.187c-.046.077-.082.164-.107.262-.025.097-.044.195-.055.294-.012.1-.018.195-.02.289s-.003.173-.003.239c0,.11.004.243.011.398Z" fill="#fff" stroke-width="0"/><path d="M359.974,55.727c.012-.184.058-.336.138-.457.081-.121.184-.218.309-.291.124-.073.265-.126.42-.157.156-.031.312-.047.471-.047.143,0,.288.011.435.03.146.021.28.06.401.118.121.06.22.141.297.245s.115.243.115.415v1.479c0,.129.008.252.022.369s.04.205.077.264h-.792c-.015-.044-.027-.089-.036-.135s-.016-.093-.02-.141c-.124.129-.271.219-.439.27-.169.052-.341.077-.518.077-.135,0-.262-.017-.379-.049-.117-.033-.22-.085-.309-.154-.088-.069-.156-.158-.206-.265-.049-.105-.074-.232-.074-.379,0-.161.028-.294.086-.398.057-.104.13-.188.22-.251.09-.062.192-.108.308-.14s.232-.057.35-.074c.117-.019.232-.033.347-.044.113-.012.214-.028.302-.05.089-.022.158-.054.209-.097.052-.042.075-.104.072-.184,0-.085-.014-.151-.042-.201-.027-.05-.063-.088-.109-.115s-.1-.046-.16-.055c-.061-.01-.125-.015-.195-.015-.153,0-.274.033-.362.1-.088.065-.14.176-.154.33h-.781ZM361.778,56.304c-.033.029-.074.053-.124.069-.05.016-.103.029-.159.041-.058.011-.117.02-.179.027-.062.007-.125.017-.188.027-.059.011-.116.025-.173.044-.058.019-.106.043-.148.074-.043.031-.076.07-.103.118-.025.048-.038.108-.038.182,0,.069.013.129.038.176.026.048.061.086.104.113s.096.047.154.058.119.017.182.017c.154,0,.273-.025.357-.077s.146-.112.188-.185c.04-.071.064-.144.074-.217.009-.073.014-.132.014-.176v-.292Z" fill="#fff" stroke-width="0"/><path d="M367.435,57.014c.117.113.286.17.506.17.158,0,.294-.039.407-.118s.184-.162.209-.25h.688c-.11.341-.278.585-.506.731s-.502.22-.825.22c-.224,0-.425-.035-.604-.107-.18-.071-.332-.173-.457-.305-.124-.132-.221-.29-.288-.474-.068-.183-.103-.385-.103-.604,0-.213.035-.411.104-.594.07-.184.169-.342.297-.476.129-.134.282-.239.46-.316s.375-.116.591-.116c.242,0,.453.047.633.141s.327.219.442.377c.116.157.199.337.25.539.052.201.07.412.056.632h-2.052c.011.254.075.437.192.551ZM368.317,55.518c-.094-.103-.235-.154-.426-.154-.125,0-.229.021-.312.063-.082.042-.148.095-.197.156-.05.062-.085.129-.104.198-.021.069-.032.132-.036.188h1.271c-.037-.198-.102-.349-.195-.451Z" fill="#fff" stroke-width="0"/><path d="M369.688,54.811c.075-.255.177-.459.305-.613.129-.154.278-.264.448-.33.171-.065.352-.099.542-.099.194,0,.377.033.547.099.171.066.321.176.451.33.131.154.233.358.309.613s.112.569.112.943c0,.385-.037.707-.112.965-.075.259-.178.465-.309.619-.13.154-.28.264-.451.33-.17.065-.353.099-.547.099-.19,0-.371-.033-.542-.099-.17-.066-.319-.176-.448-.33-.128-.154-.229-.36-.305-.619-.075-.258-.113-.58-.113-.965,0-.374.038-.688.113-.943ZM370.366,56.153c.008.156.03.307.069.451.038.145.1.269.184.371.085.103.206.154.363.154.161,0,.285-.052.371-.154s.148-.227.188-.371c.038-.145.062-.295.068-.451.008-.155.011-.288.011-.398,0-.066,0-.146-.002-.239-.002-.094-.01-.189-.022-.289-.013-.099-.031-.197-.055-.294-.024-.098-.06-.185-.107-.262-.048-.076-.108-.139-.182-.187s-.163-.071-.27-.071-.195.023-.267.071-.13.11-.176.187c-.046.077-.082.164-.107.262-.025.097-.044.195-.055.294-.012.1-.018.195-.02.289s-.003.173-.003.239c0,.11.004.243.011.398Z" fill="#fff" stroke-width="0"/><path d="M373.595,53.769v1.43h.011c.096-.146.225-.254.388-.321.163-.068.333-.103.509-.103.144,0,.284.03.424.089.139.059.265.148.377.269.111.121.202.276.271.465.07.189.104.414.104.674s-.034.485-.104.674c-.069.189-.16.344-.271.465-.112.121-.238.211-.377.27-.14.059-.28.088-.424.088-.209,0-.396-.033-.561-.099-.165-.066-.29-.178-.374-.336h-.012v.363h-.742v-3.927h.781ZM374.859,55.93c-.025-.11-.065-.207-.121-.291-.055-.085-.123-.151-.206-.201-.082-.05-.183-.074-.3-.074-.113,0-.213.024-.297.074s-.154.116-.209.201c-.055.084-.096.181-.121.291s-.038.226-.038.347c0,.117.013.23.038.341s.066.207.121.292c.055.084.125.151.209.2.084.05.184.074.297.074.117,0,.218-.024.3-.074.083-.049.151-.116.206-.2.056-.085.096-.182.121-.292s.039-.224.039-.341c0-.121-.014-.236-.039-.347Z" fill="#fff" stroke-width="0"/><path d="M273.939,7.317v-1.089h4.826v1.089h-1.766v4.801h-1.295v-4.801h-1.766Z" fill="#638c1c" stroke-width="0"/><path d="M278.428,9.062c.104-.278.253-.514.445-.709s.423-.347.692-.454c.27-.107.572-.161.908-.161s.639.054.911.161c.272.107.505.258.697.454s.341.432.445.709.157.587.157.928-.053.649-.157.924c-.104.275-.253.51-.445.706s-.425.345-.697.45c-.272.104-.576.157-.911.157s-.639-.053-.908-.157c-.27-.104-.5-.254-.692-.45s-.342-.43-.445-.706c-.105-.275-.157-.583-.157-.924s.052-.65.157-.928ZM279.491,10.489c.033.162.09.308.17.438.079.129.186.232.317.309.132.077.297.116.495.116s.364-.039.499-.116c.135-.077.242-.18.321-.309.08-.129.137-.275.169-.438.033-.162.05-.329.05-.499s-.017-.338-.05-.503c-.032-.165-.089-.311-.169-.437-.079-.126-.187-.229-.321-.31-.135-.08-.302-.12-.499-.12s-.363.04-.495.12c-.132.08-.238.183-.317.31-.08.126-.137.272-.17.437-.032.165-.049.333-.049.503s.017.337.049.499Z" fill="#638c1c" stroke-width="0"/><path d="M287.774,8.621c-.188,0-.344.042-.471.128-.126.085-.229.195-.309.33-.08.135-.137.283-.17.445-.032.163-.049.323-.049.483,0,.154.017.311.049.47.033.16.087.304.161.433s.175.235.301.317c.127.083.281.124.463.124.28,0,.496-.079.647-.235s.246-.367.284-.631h1.131c-.077.566-.298.998-.66,1.295-.363.297-.828.446-1.395.446-.319,0-.612-.054-.879-.161-.267-.107-.493-.257-.681-.45-.187-.192-.333-.422-.437-.688-.105-.267-.157-.56-.157-.879,0-.33.048-.637.145-.92.096-.283.237-.528.425-.734.187-.206.415-.367.685-.482s.577-.173.924-.173c.253,0,.496.033.73.099.233.066.442.167.627.301s.334.302.449.503c.116.201.182.439.198.714h-1.146c-.077-.49-.366-.734-.866-.734Z" fill="#638c1c" stroke-width="0"/><path d="M291.677,6.228v5.891h-1.172v-5.891h1.172Z" fill="#638c1c" stroke-width="0"/><path d="M295.488,12.119v-.594h-.024c-.148.248-.342.427-.578.537s-.479.165-.726.165c-.313,0-.571-.042-.771-.124-.201-.083-.359-.199-.475-.351s-.196-.335-.243-.553-.07-.458-.07-.722v-2.624h1.172v2.409c0,.352.055.615.165.788.109.173.305.26.586.26.318,0,.55-.095.692-.285.144-.189.215-.501.215-.936v-2.236h1.171v4.265h-1.113Z" fill="#638c1c" stroke-width="0"/><path d="M298.479,11.059c.052.091.119.165.202.223.082.058.177.101.284.128s.219.041.334.041c.083,0,.169-.009.26-.029.091-.019.174-.049.248-.091.074-.041.136-.096.186-.165.05-.069.074-.156.074-.26,0-.176-.117-.308-.351-.396-.234-.088-.56-.176-.978-.264-.171-.039-.337-.084-.499-.136s-.307-.121-.434-.207c-.126-.085-.229-.192-.305-.322-.077-.129-.116-.287-.116-.474,0-.275.054-.5.161-.677.107-.176.249-.314.425-.417.176-.102.374-.173.594-.214.221-.042.446-.062.677-.062s.455.022.673.066c.217.044.411.119.581.223.171.104.312.243.425.417.113.173.181.392.202.656h-1.113c-.017-.226-.102-.378-.256-.458-.154-.08-.336-.12-.545-.12-.065,0-.137.004-.214.013s-.147.026-.211.054c-.063.027-.116.067-.16.12-.045.052-.066.122-.066.21,0,.104.038.19.115.256s.178.12.302.161c.123.041.265.078.425.111.159.033.321.069.486.107.171.039.337.085.499.141.162.055.307.127.434.218.126.091.228.204.305.338s.116.301.116.499c0,.281-.057.516-.17.706-.112.189-.26.342-.441.458-.181.115-.389.196-.622.243-.234.047-.472.07-.714.07-.248,0-.489-.025-.727-.074-.236-.05-.446-.132-.631-.248-.185-.116-.335-.268-.453-.458-.119-.19-.184-.428-.194-.714h1.113c0,.127.026.235.079.326Z" fill="#638c1c" stroke-width="0"/><path d="M304.266,7.854v.784h-.857v2.112c0,.198.033.33.099.396.066.066.198.099.396.099.065,0,.129-.003.189-.008s.118-.014.173-.025v.908c-.099.017-.209.027-.329.033-.121.005-.239.008-.355.008-.182,0-.354-.012-.516-.037-.162-.024-.305-.073-.429-.144s-.222-.173-.293-.305c-.071-.132-.107-.306-.107-.52v-2.516h-.709v-.784h.709v-1.279h1.172v1.279h.857Z" fill="#638c1c" stroke-width="0"/><path d="M306.08,11.096c.176.17.43.256.76.256.236,0,.439-.059.61-.178.17-.118.274-.243.313-.375h1.031c-.165.511-.418.877-.76,1.097-.341.22-.753.33-1.237.33-.335,0-.638-.054-.907-.161-.27-.107-.498-.26-.685-.458-.188-.198-.332-.434-.434-.709-.102-.275-.152-.577-.152-.907,0-.319.052-.616.157-.891.104-.275.252-.513.445-.713.192-.201.422-.359.688-.475s.562-.173.887-.173c.363,0,.68.07.949.21s.49.329.664.565c.173.237.298.506.375.809.077.303.104.619.083.949h-3.077c.017.38.112.655.288.825ZM307.404,8.852c-.14-.154-.354-.231-.64-.231-.187,0-.342.032-.466.095-.124.063-.223.142-.297.235-.074.094-.127.192-.156.297-.031.104-.049.198-.054.281h1.905c-.055-.297-.152-.522-.293-.677Z" fill="#638c1c" stroke-width="0"/><path d="M310.676,7.854v.792h.017c.055-.132.129-.254.223-.367.093-.113.2-.209.321-.289.121-.08.25-.142.388-.186.138-.044.28-.066.429-.066.077,0,.163.014.256.042v1.089c-.055-.011-.121-.021-.197-.029-.077-.008-.151-.013-.223-.013-.215,0-.396.036-.545.107-.148.072-.269.169-.359.293-.09.124-.155.268-.193.433-.039.165-.058.344-.058.536v1.922h-1.172v-4.265h1.114Z" fill="#638c1c" stroke-width="0"/><path d="M274.311,15.787v-.965h1.172v.965h-1.172ZM275.482,16.447v4.265h-1.172v-4.265h1.172Z" fill="#638c1c" stroke-width="0"/><path d="M277.521,16.447v.594h.024c.148-.248.341-.427.577-.54s.479-.169.727-.169c.313,0,.57.043.771.128.2.085.358.204.474.355.116.151.197.335.244.553.046.217.069.458.069.722v2.624h-1.171v-2.409c0-.352-.056-.614-.165-.788-.11-.173-.306-.26-.586-.26-.319,0-.55.095-.693.284-.143.19-.214.502-.214.937v2.236h-1.172v-4.265h1.114Z" fill="#638c1c" stroke-width="0"/><path d="M283.641,16.447v.784h-.857v2.112c0,.198.033.33.099.396.066.066.198.099.396.099.065,0,.129-.003.189-.008s.118-.014.173-.025v.908c-.099.017-.209.027-.329.033-.121.005-.239.008-.355.008-.182,0-.354-.012-.516-.037-.162-.024-.305-.073-.429-.144s-.222-.173-.293-.305c-.071-.132-.107-.306-.107-.52v-2.516h-.709v-.784h.709v-1.279h1.172v1.279h.857Z" fill="#638c1c" stroke-width="0"/><path d="M285.456,19.689c.176.17.43.256.76.256.236,0,.439-.059.61-.178.17-.118.274-.243.313-.375h1.031c-.165.511-.418.877-.76,1.097-.341.22-.753.33-1.237.33-.335,0-.638-.054-.907-.161-.27-.107-.498-.26-.685-.458-.188-.198-.332-.434-.434-.709-.102-.275-.152-.577-.152-.907,0-.319.052-.616.157-.891.104-.275.252-.513.445-.713.192-.201.422-.359.688-.475s.562-.173.887-.173c.363,0,.68.07.949.21s.49.329.664.565c.173.237.298.506.375.809.077.303.104.619.083.949h-3.077c.017.38.112.655.288.825ZM286.78,17.445c-.14-.154-.354-.231-.64-.231-.187,0-.342.032-.466.095-.124.063-.223.142-.297.235-.074.094-.127.192-.156.297-.031.104-.049.198-.054.281h1.905c-.055-.297-.152-.522-.293-.677Z" fill="#638c1c" stroke-width="0"/><path d="M290.052,16.447v.792h.017c.055-.132.129-.254.223-.367.093-.113.2-.209.321-.289.121-.08.25-.142.388-.186.138-.044.28-.066.429-.066.077,0,.163.014.256.042v1.089c-.055-.011-.121-.021-.197-.029-.077-.008-.151-.013-.223-.013-.215,0-.396.036-.545.107-.148.072-.269.169-.359.293-.09.124-.155.268-.193.433-.039.165-.058.344-.058.536v1.922h-1.172v-4.265h1.114Z" fill="#638c1c" stroke-width="0"/><path d="M294.036,17.214c-.188,0-.344.042-.471.128-.126.085-.229.195-.309.33-.08.135-.137.283-.17.445-.032.163-.049.323-.049.483,0,.154.017.311.049.47.033.16.087.304.161.433s.175.235.301.317c.127.083.281.124.463.124.28,0,.496-.079.647-.235s.246-.367.284-.631h1.131c-.077.566-.298.998-.66,1.295-.363.297-.828.446-1.395.446-.319,0-.612-.054-.879-.161-.267-.107-.493-.257-.681-.45-.187-.192-.333-.422-.437-.688-.105-.267-.157-.56-.157-.879,0-.33.048-.637.145-.92.096-.283.237-.528.425-.734.187-.206.415-.367.685-.482s.577-.173.924-.173c.253,0,.496.033.73.099.233.066.442.167.627.301s.334.302.449.503c.116.201.182.439.198.714h-1.146c-.077-.49-.366-.734-.866-.734Z" fill="#638c1c" stroke-width="0"/><path d="M296.759,17.656c.104-.278.253-.514.445-.709s.423-.347.692-.454c.27-.107.572-.161.908-.161s.639.054.911.161c.272.107.505.258.697.454s.341.432.445.709.157.587.157.928-.053.649-.157.924c-.104.275-.253.51-.445.706s-.425.345-.697.45c-.272.104-.576.157-.911.157s-.639-.053-.908-.157c-.27-.104-.5-.254-.692-.45s-.342-.43-.445-.706c-.105-.275-.157-.583-.157-.924s.052-.65.157-.928ZM297.822,19.083c.033.162.09.308.17.438.079.129.186.232.317.309.132.077.297.116.495.116s.364-.039.499-.116c.135-.077.242-.18.321-.309.08-.129.137-.275.169-.438.033-.162.05-.329.05-.499s-.017-.338-.05-.503c-.032-.165-.089-.311-.169-.437-.079-.126-.187-.229-.321-.31-.135-.08-.302-.12-.499-.12s-.363.04-.495.12c-.132.08-.238.183-.317.31-.08.126-.137.272-.17.437-.032.165-.049.333-.049.503s.017.337.049.499Z" fill="#638c1c" stroke-width="0"/><path d="M302.889,16.447v.594h.024c.148-.248.341-.427.577-.54s.479-.169.727-.169c.313,0,.57.043.771.128.2.085.358.204.474.355.116.151.197.335.244.553.046.217.069.458.069.722v2.624h-1.171v-2.409c0-.352-.056-.614-.165-.788-.11-.173-.306-.26-.586-.26-.319,0-.55.095-.693.284-.143.19-.214.502-.214.937v2.236h-1.172v-4.265h1.114Z" fill="#638c1c" stroke-width="0"/><path d="M307.78,16.447v.594h.024c.148-.248.341-.427.577-.54s.479-.169.727-.169c.313,0,.57.043.771.128.2.085.358.204.474.355.116.151.197.335.244.553.046.217.069.458.069.722v2.624h-1.171v-2.409c0-.352-.056-.614-.165-.788-.11-.173-.306-.26-.586-.26-.319,0-.55.095-.693.284-.143.19-.214.502-.214.937v2.236h-1.172v-4.265h1.114Z" fill="#638c1c" stroke-width="0"/><path d="M312.812,19.689c.176.17.43.256.76.256.236,0,.439-.059.61-.178.17-.118.274-.243.313-.375h1.031c-.165.511-.418.877-.76,1.097-.341.22-.753.33-1.237.33-.335,0-.638-.054-.907-.161-.27-.107-.498-.26-.685-.458-.188-.198-.332-.434-.434-.709-.102-.275-.152-.577-.152-.907,0-.319.052-.616.157-.891.104-.275.252-.513.445-.713.192-.201.422-.359.688-.475s.562-.173.887-.173c.363,0,.68.07.949.21s.49.329.664.565c.173.237.298.506.375.809.077.303.104.619.083.949h-3.077c.017.38.112.655.288.825ZM314.137,17.445c-.14-.154-.354-.231-.64-.231-.187,0-.342.032-.466.095-.124.063-.223.142-.297.235-.074.094-.127.192-.156.297-.031.104-.049.198-.054.281h1.905c-.055-.297-.152-.522-.293-.677Z" fill="#638c1c" stroke-width="0"/><path d="M318.332,17.214c-.188,0-.344.042-.471.128-.126.085-.229.195-.309.33-.08.135-.137.283-.17.445-.032.163-.049.323-.049.483,0,.154.017.311.049.47.033.16.087.304.161.433s.175.235.301.317c.127.083.281.124.463.124.28,0,.496-.079.647-.235s.246-.367.284-.631h1.131c-.077.566-.298.998-.66,1.295-.363.297-.828.446-1.395.446-.319,0-.612-.054-.879-.161-.267-.107-.493-.257-.681-.45-.187-.192-.333-.422-.437-.688-.105-.267-.157-.56-.157-.879,0-.33.048-.637.145-.92.096-.283.237-.528.425-.734.187-.206.415-.367.685-.482s.577-.173.924-.173c.253,0,.496.033.73.099.233.066.442.167.627.301s.334.302.449.503c.116.201.182.439.198.714h-1.146c-.077-.49-.366-.734-.866-.734Z" fill="#638c1c" stroke-width="0"/><path d="M323.372,16.447v.784h-.857v2.112c0,.198.033.33.099.396.066.066.198.099.396.099.065,0,.129-.003.189-.008s.118-.014.173-.025v.908c-.099.017-.209.027-.329.033-.121.005-.239.008-.355.008-.182,0-.354-.012-.516-.037-.162-.024-.305-.073-.429-.144s-.222-.173-.293-.305c-.071-.132-.107-.306-.107-.52v-2.516h-.709v-.784h.709v-1.279h1.172v1.279h.857Z" fill="#638c1c" stroke-width="0"/><path d="M275.264,28.246c.052.091.119.165.202.223.082.058.177.101.284.128s.219.041.334.041c.083,0,.169-.009.26-.029.091-.019.174-.049.248-.091.074-.041.136-.096.186-.165.05-.069.074-.156.074-.26,0-.176-.117-.308-.351-.396-.234-.088-.56-.176-.978-.264-.171-.039-.337-.084-.499-.136s-.307-.121-.434-.207c-.126-.085-.229-.192-.305-.322-.077-.129-.116-.287-.116-.474,0-.275.054-.5.161-.677.107-.176.249-.314.425-.417.176-.102.374-.173.594-.214.221-.042.446-.062.677-.062s.455.022.673.066c.217.044.411.119.581.223.171.104.312.243.425.417.113.173.181.392.202.656h-1.113c-.017-.226-.102-.378-.256-.458-.154-.08-.336-.12-.545-.12-.065,0-.137.004-.214.013s-.147.026-.211.054c-.063.027-.116.067-.16.12-.045.052-.066.122-.066.21,0,.104.038.19.115.256s.178.12.302.161c.123.041.265.078.425.111.159.033.321.069.486.107.171.039.337.085.499.141.162.055.307.127.434.218.126.091.228.204.305.338s.116.301.116.499c0,.281-.057.516-.17.706-.112.189-.26.342-.441.458-.181.115-.389.196-.622.243-.234.047-.472.07-.714.07-.248,0-.489-.025-.727-.074-.236-.05-.446-.132-.631-.248-.185-.116-.335-.268-.453-.458-.119-.19-.184-.428-.194-.714h1.113c0,.127.026.235.079.326Z" fill="#638c1c" stroke-width="0"/><path d="M282.379,29.306l-.76-2.863h-.017l-.726,2.863h-1.213l-1.353-4.265h1.237l.783,2.896h.017l.71-2.896h1.139l.726,2.887h.017l.784-2.887h1.204l-1.345,4.265h-1.204Z" fill="#638c1c" stroke-width="0"/><path d="M285.456,24.381v-.965h1.172v.965h-1.172ZM286.628,25.041v4.265h-1.172v-4.265h1.172Z" fill="#638c1c" stroke-width="0"/><path d="M289.895,25.041v.784h-.857v2.112c0,.198.033.33.099.396.066.066.198.099.396.099.065,0,.129-.003.189-.008s.118-.014.173-.025v.908c-.099.017-.209.027-.329.033-.121.005-.239.008-.355.008-.182,0-.354-.012-.516-.037-.162-.024-.305-.073-.429-.144s-.222-.173-.293-.305c-.071-.132-.107-.306-.107-.52v-2.516h-.709v-.784h.709v-1.279h1.172v1.279h.857Z" fill="#638c1c" stroke-width="0"/><path d="M292.493,25.808c-.188,0-.344.042-.471.128-.126.085-.229.195-.309.33-.08.135-.137.283-.17.445-.032.163-.049.323-.049.483,0,.154.017.311.049.47.033.16.087.304.161.433s.175.235.301.317c.127.083.281.124.463.124.28,0,.496-.079.647-.235s.246-.367.284-.631h1.131c-.077.566-.298.998-.66,1.295-.363.297-.828.446-1.395.446-.319,0-.612-.054-.879-.161-.267-.107-.493-.257-.681-.45-.187-.192-.333-.422-.437-.688-.105-.267-.157-.56-.157-.879,0-.33.048-.637.145-.92.096-.283.237-.528.425-.734.187-.206.415-.367.685-.482s.577-.173.924-.173c.253,0,.496.033.73.099.233.066.442.167.627.301s.334.302.449.503c.116.201.182.439.198.714h-1.146c-.077-.49-.366-.734-.866-.734Z" fill="#638c1c" stroke-width="0"/><path d="M296.362,23.416v2.219h.024c.148-.248.339-.427.569-.54.231-.113.456-.169.677-.169.313,0,.57.043.771.128.2.085.358.204.474.355.116.151.197.335.244.553.046.217.069.458.069.722v2.624h-1.171v-2.409c0-.352-.056-.614-.165-.788-.11-.173-.306-.26-.586-.26-.319,0-.55.095-.693.284-.143.19-.214.502-.214.937v2.236h-1.172v-5.891h1.172Z" fill="#638c1c" stroke-width="0"/><path d="M301.337,28.283c.176.17.43.256.76.256.236,0,.439-.059.61-.178.17-.118.274-.243.313-.375h1.031c-.165.511-.418.877-.76,1.097-.341.22-.753.33-1.237.33-.335,0-.638-.054-.907-.161-.27-.107-.498-.26-.685-.458-.188-.198-.332-.434-.434-.709-.102-.275-.152-.577-.152-.907,0-.319.052-.616.157-.891.104-.275.252-.513.445-.713.192-.201.422-.359.688-.475s.562-.173.887-.173c.363,0,.68.07.949.21s.49.329.664.565c.173.237.298.506.375.809.077.303.104.619.083.949h-3.077c.017.38.112.655.288.825ZM302.661,26.039c-.14-.154-.354-.231-.64-.231-.187,0-.342.032-.466.095-.124.063-.223.142-.297.235-.074.094-.127.192-.156.297-.031.104-.049.198-.054.281h1.905c-.055-.297-.152-.522-.293-.677Z" fill="#638c1c" stroke-width="0"/><path d="M305.805,28.246c.052.091.119.165.202.223.082.058.177.101.284.128s.219.041.334.041c.083,0,.169-.009.26-.029.091-.019.174-.049.248-.091.074-.041.136-.096.186-.165.05-.069.074-.156.074-.26,0-.176-.117-.308-.351-.396-.234-.088-.56-.176-.978-.264-.171-.039-.337-.084-.499-.136s-.307-.121-.434-.207c-.126-.085-.229-.192-.305-.322-.077-.129-.116-.287-.116-.474,0-.275.054-.5.161-.677.107-.176.249-.314.425-.417.176-.102.374-.173.594-.214.221-.042.446-.062.677-.062s.455.022.673.066c.217.044.411.119.581.223.171.104.312.243.425.417.113.173.181.392.202.656h-1.113c-.017-.226-.102-.378-.256-.458-.154-.08-.336-.12-.545-.12-.065,0-.137.004-.214.013s-.147.026-.211.054c-.063.027-.116.067-.16.12-.045.052-.066.122-.066.21,0,.104.038.19.115.256s.178.12.302.161c.123.041.265.078.425.111.159.033.321.069.486.107.171.039.337.085.499.141.162.055.307.127.434.218.126.091.228.204.305.338s.116.301.116.499c0,.281-.057.516-.17.706-.112.189-.26.342-.441.458-.181.115-.389.196-.622.243-.234.047-.472.07-.714.07-.248,0-.489-.025-.727-.074-.236-.05-.446-.132-.631-.248-.185-.116-.335-.268-.453-.458-.119-.19-.184-.428-.194-.714h1.113c0,.127.026.235.079.326Z" fill="#638c1c" stroke-width="0"/></svg>