<?xml version="1.0" encoding="UTF-8"?><svg xmlns="http://www.w3.org/2000/svg" width="5.5in" height="3in" xmlns:xlink="http://www.w3.org/1999/xlink" viewBox="0 0 396 216"><defs><clipPath id="b"><polygon points="61.475 61.396 66.663 61.562 66.718 68.958 63.351 70.669 60.978 66.75 61.475 61.396" fill="none" stroke-width="0"/></clipPath><clipPath id="c"><polygon points="135.515 63.638 140.704 63.803 140.759 71.2 137.392 72.911 135.018 68.992 135.515 63.638" fill="none" stroke-width="0"/></clipPath><clipPath id="d"><polygon points="152.25 64.192 157.439 64.358 157.494 71.754 154.127 73.465 151.754 69.546 152.25 64.192" fill="none" stroke-width="0"/></clipPath><clipPath id="e"><polygon points="239.843 66.92 245.031 67.086 245.086 74.482 241.719 76.193 239.346 72.274 239.843 66.92" fill="none" stroke-width="0"/></clipPath><clipPath id="f"><polygon points="259.038 67.541 264.227 67.706 264.282 75.102 260.915 76.814 258.541 72.895 259.038 67.541" fill="none" stroke-width="0"/></clipPath><clipPath id="g"><polygon points="363.422 70.667 368.59 71.159 368.18 78.544 364.713 80.04 362.59 75.98 363.422 70.667" fill="none" stroke-width="0"/></clipPath></defs><g id="a"><path d="M18.448,84.669l.325,1.515,3.486,8.388-3.814,2.861h-9.058l-4.529-21.216,7.923-6.216,1.934-1,5.134-4.067,4.401-2.334,6.001.333,1.067,2.667-1.467,5.201-2.867-.6-.067,3.467s-.133,1.934-1.134,2.734c-1,.8-6.268,5.134-6.268,5.134" fill="#d0cfcd" fill-rule="evenodd" stroke-width="0"/><polygon points="387.675 86.445 385.587 82.53 385.978 74.831 375.669 74.309 375.017 82.139 372.016 86.575 369.145 121.939 383.89 122.591 387.675 86.445" fill="#d0cfcd" fill-rule="evenodd" stroke-width="0"/><polygon points="53.812 124.854 52.287 137.056 59.659 137.692 63.854 137.311 63.727 125.108 61.82 124.981 61.947 121.549 53.812 124.854" fill="#d0cfcd" fill-rule="evenodd" stroke-width="0"/><polygon points="368.147 143.539 366.24 168.579 378.57 169.85 381.112 144.556 377.044 144.174 376.79 146.208 374.756 147.479 370.181 146.844 369.799 145.827 369.672 143.539 368.147 143.539" fill="#d0cfcd" fill-rule="evenodd" stroke-width="0"/><polyline points="53.915 124.876 52.385 137.275 60.038 138.04 62.334 121.967" fill="none" stroke="#231f20" stroke-linecap="round" stroke-linejoin="round" stroke-width=".5"/><path d="M64.061,125.688l.872,41.469,9.549,1.091.942-.857.6.942s1.657.822,3.597.086c1.291-.49,2.484-1.028,2.484-1.028" fill="none" stroke="#231f20" stroke-linecap="round" stroke-linejoin="round" stroke-width=".5"/><line x1="60.038" y1="138.04" x2="64.149" y2="137.55" fill="none" stroke="#231f20" stroke-linecap="round" stroke-linejoin="round" stroke-width=".5"/><path d="M159.838,135.923c1.49-.274,3.178-1.22,3.121-4.106v-5.356" fill="none" stroke="#231f20" stroke-linecap="round" stroke-linejoin="round" stroke-width=".5"/><path d="M101.655,130.543c.345.247.742.472,1.199.665" fill="none" stroke="#231f20" stroke-linecap="round" stroke-linejoin="round" stroke-width=".5"/><path d="M99.441,121.567v3.535s-.277,1.706.522,3.41" fill="none" stroke="#231f20" stroke-linecap="round" stroke-linejoin="round" stroke-width=".5"/><path d="M161.103,126.153c0,1.746.01,3.097.01,3.097,0,0-.159,1.106-2.063,1.051s-46.825-3.589-46.825-3.589" fill="none" stroke="#231f20" stroke-linecap="round" stroke-linejoin="round" stroke-width=".5"/><path d="M160.734,135.532l-.075-1.559-1.334.228.067,2.536s.267,1.275-1.334,1.162-54.888-4.438-54.888-4.438v-3.335l1.801-.214,54.287,4.22" fill="none" stroke="#231f20" stroke-linecap="round" stroke-linejoin="round" stroke-width=".5"/><polygon points="170.981 157.156 171.243 173.814 259.987 183.878 260.771 168.978 207.707 163.097 207.707 160.875 170.981 157.156" fill="none" stroke="#231f20" stroke-linecap="round" stroke-linejoin="round" stroke-width=".5"/><polygon points="207.884 167.289 227.869 169.726 227.747 176.55 208.006 174.356 207.884 167.289" fill="none" stroke="#231f20" stroke-linecap="round" stroke-linejoin="round" stroke-width=".5"/><polygon points="230.875 170.155 230.794 176.944 257.772 180.113 258.033 173.21 230.875 170.155" fill="none" stroke="#231f20" stroke-linecap="round" stroke-linejoin="round" stroke-width=".5"/><path d="M191.82,139.521l55.737,4.733s2.348.072,2.348,1.794v5.637s-.157,1.091-2.035,1.033-55.737-5.104-55.737-5.104c0,0-1.566-.205-1.566-1.77s-.157-4.512-.157-4.512c0,0,0-1.698,1.409-1.812Z" fill="none" stroke="#231f20" stroke-linecap="round" stroke-linejoin="round" stroke-width=".5"/><path d="M250.211,133.535c0,1.722-.127,3.939-.127,3.939,0,0-.157,1.091-2.035,1.033s-55.956-4.208-55.956-4.208c0,0-1.566-.205-1.566-1.77s-.049-4.016-.049-4.016" fill="none" stroke="#231f20" stroke-linecap="round" stroke-linejoin="round" stroke-width=".5"/><path d="M181.504,127.695v21.544s.223,2.8,2.346,3.2" fill="none" stroke="#231f20" stroke-linecap="round" stroke-linejoin="round" stroke-width=".5"/><path d="M249.873,158.384s3.351-.232,3.351-3.36.223-21.256.223-21.256" fill="none" stroke="#231f20" stroke-linecap="round" stroke-linejoin="round" stroke-width=".5"/><path d="M250.437,156.905l-.928.224v2.531l-1.097,1.232s-61.411-5.604-62.845-5.733-1.518-1.228-1.518-1.228l-.084-2.702,1.856-.196,63.014,5.654" fill="none" stroke="#231f20" stroke-linecap="round" stroke-linejoin="round" stroke-width=".5"/><polyline points="185.989 128.045 185.989 149.604 183.965 151.229" fill="none" stroke="#231f20" stroke-linecap="round" stroke-linejoin="round" stroke-width=".5"/><line x1="253.136" y1="155.638" x2="185.989" y2="149.604" fill="none" stroke="#231f20" stroke-linecap="round" stroke-linejoin="round" stroke-width=".5"/><polygon points="273.157 182.415 261.13 181.045 261.985 161.867 274.011 163.238 273.157 182.415" fill="none" stroke="#231f20" stroke-linecap="round" stroke-linejoin="round" stroke-width=".5"/><polyline points="266.207 162.542 266.205 163.609 265.31 163.635 265.18 164.949 263.069 164.737 262.807 169.435 271.955 170.5 272.281 165.741 270.106 165.464 270.171 164.274 269.212 164.172 269.213 162.79" fill="none" stroke="#231f20" stroke-linecap="round" stroke-linejoin="round" stroke-width=".5"/><polyline points="265.447 181.407 265.448 180.696 264.672 180.562 264.621 179.189 262.602 178.903 262.867 174.087 271.668 175.005 271.559 179.879 269.592 179.697 269.487 180.912 268.503 180.922 268.346 181.78" fill="none" stroke="#231f20" stroke-linecap="round" stroke-linejoin="round" stroke-width=".5"/><polygon points="274.46 185.195 275.059 166.688 358.506 175.652 357.139 195.092 274.46 185.195" fill="none" stroke="#231f20" stroke-linecap="round" stroke-linejoin="round" stroke-width=".5"/><polygon points="289.867 183.073 285.233 182.537 285.52 172.354 290.154 172.89 289.867 183.073" fill="none" stroke="#231f20" stroke-linecap="round" stroke-linejoin="round" stroke-width=".5"/><path d="M276.617,179.714l5.134.556s1.535.534-.057,2.543l-.708.268-3.836-.446-.945-.866s-1.24-1.292.411-2.056Z" fill="none" stroke="#231f20" stroke-linecap="round" stroke-linejoin="round" stroke-width=".5"/><polygon points="352.168 192.459 301.21 186.711 302.013 172.861 352.971 178.609 352.168 192.459" fill="none" stroke="#231f20" stroke-linecap="round" stroke-linejoin="round" stroke-width=".5"/><path d="M286.666,147.837l63.765,6.04s1.865.086,1.855,2.043-.285,6.063-.285,6.063c0,0-.18,1.237-2.261,1.141s-63.224-6.324-63.224-6.324c0,0-1.733-.258-1.724-2.037s.303-4.89.303-4.89c0,0,.01-1.93,1.572-2.036Z" fill="none" stroke="#231f20" stroke-linecap="round" stroke-linejoin="round" stroke-width=".5"/><path d="M352.376,142.019c-.01,1.957-.376,5.017-.376,5.017,0,0-.18,1.237-2.261,1.141s-63.153-5.314-63.153-5.314c0,0-1.733-.258-1.724-2.037s.158-4.419.158-4.419" fill="none" stroke="#231f20" stroke-linecap="round" stroke-linejoin="round" stroke-width=".5"/><path d="M277.588,135.866l-1.153,21.79s.171,2.581,2.251,2.945" fill="none" stroke="#231f20" stroke-linecap="round" stroke-linejoin="round" stroke-width=".5"/><path d="M359.517,142.779l-2.098,23.231s-.201,2.956-4.026,3.257" fill="none" stroke="#231f20" stroke-linecap="round" stroke-linejoin="round" stroke-width=".5"/><polygon points="279.371 164.463 278.522 162.886 278.752 159.823 280.468 159.243 354.502 166.732 353.103 168.095 353.09 170.729 352.439 172.346 279.371 164.463" fill="none" stroke="#231f20" stroke-linecap="round" stroke-linejoin="round" stroke-width=".5"/><line x1="279.712" y1="160.526" x2="352.139" y2="168.16" fill="none" stroke="#231f20" stroke-linecap="round" stroke-linejoin="round" stroke-width=".5"/><line x1="354.502" y1="166.732" x2="354.598" y2="168.823" fill="none" stroke="#231f20" stroke-linecap="round" stroke-linejoin="round" stroke-width=".5"/><polyline points="62.087 125.23 66.415 126.017 71.585 125.342 73.046 121.408 74.282 121.464 74.676 123.431 77.065 121.559 77.416 156.098" fill="none" stroke="#231f20" stroke-linecap="round" stroke-linejoin="round" stroke-width=".5"/><polyline points="62.2 123.993 65.178 124.331 65.916 120.28" fill="none" stroke="#231f20" stroke-linecap="round" stroke-linejoin="round" stroke-width=".5"/><polyline points="76.74 128.932 73.261 130.091 73.577 137.682 71.574 138.209 72.628 165.619" fill="none" stroke="#231f20" stroke-linecap="round" stroke-linejoin="round" stroke-width=".5"/><polyline points="365.479 197.645 365.343 201.476 370.542 202.16 371.363 196.14 370.131 196.276 369.858 200.655" fill="none" stroke="#231f20" stroke-linecap="round" stroke-linejoin="round" stroke-width=".5"/><line x1="370.707" y1="195.826" x2="372.868" y2="169.46" fill="none" stroke="#231f20" stroke-linecap="round" stroke-linejoin="round" stroke-width=".5"/><polyline points="378.06 136.179 380.94 136.486 380.529 142.096 381.624 142.096" fill="none" stroke="#231f20" stroke-linecap="round" stroke-linejoin="round" stroke-width=".5"/><polygon points="388.934 43.423 205.463 41.146 61.23 53.798 389.944 62.867 388.934 43.423" fill="none" stroke="#231f20" stroke-linecap="round" stroke-linejoin="round" stroke-width=".5"/><path d="M134.915,82.504c1.648-.351,3.515-1.452,3.452-4.642v-13.828" fill="none" stroke="#231f20" stroke-linecap="round" stroke-linejoin="round" stroke-width=".5"/><path d="M68.107,62.017v10.465s-.784,4.854,3.775,6.644" fill="none" stroke="#231f20" stroke-linecap="round" stroke-linejoin="round" stroke-width=".5"/><path d="M81.896,65.248l51.796,1.58s2.634,0,2.634,1.931v6.323s-.176,1.229-2.283,1.229-51.796-2.46-51.796-2.46c0,0-1.756-.176-1.756-1.931s-.176-4.592-.176-4.592c0,0,0-1.905,1.58-2.08Z" fill="none" stroke="#231f20" stroke-linecap="round" stroke-linejoin="round" stroke-width=".5"/><path d="M171.779,84.232l62.511,3.381s2.634,0,2.634,1.931v6.323s-.176,1.229-2.283,1.229-62.511-3.797-62.511-3.797c0,0-1.756-.176-1.756-1.931s-.176-5.055-.176-5.055c0,0,0-1.905,1.58-2.08Z" fill="none" stroke="#231f20" stroke-linecap="round" stroke-linejoin="round" stroke-width=".5"/><path d="M171.855,68.175l62.779,2.032s2.634,0,2.634,1.931-.142,7.784-.142,7.784c0,0-.176,1.229-2.283,1.229s-62.758-2.786-62.758-2.786c0,0-1.756-.176-1.756-1.931s-.055-6.178-.055-6.178c0,0,0-1.905,1.58-2.08Z" fill="none" stroke="#231f20" stroke-linecap="round" stroke-linejoin="round" stroke-width=".5"/><path d="M278.043,89.3l74.658,3.524s2.183,0,2.183,2.233-.298,6.932-.298,6.932c0,0-.203,1.421-2.639,1.421s-74.026-3.877-74.026-3.877c0,0-2.03-.203-2.03-2.233s.326-5.595.326-5.595c0,0,0-2.202,1.827-2.405Z" fill="none" stroke="#231f20" stroke-linecap="round" stroke-linejoin="round" stroke-width=".5"/><path d="M279.284,71.812l73.528,2.628s2.183,0,2.183,2.233-.498,8.264-.498,8.264c0,0-.203,1.421-2.639,1.421s-73.937-2.728-73.937-2.728c0,0-2.03-.203-2.03-2.233s.326-7.18.326-7.18c0,0-.069-2.405,3.068-2.405Z" fill="none" stroke="#231f20" stroke-linecap="round" stroke-linejoin="round" stroke-width=".5"/><line x1="73.38" y1="62.628" x2="73.38" y2="77.445" fill="none" stroke="#231f20" stroke-linecap="round" stroke-linejoin="round" stroke-width=".5"/><path d="M135.906,82.043l-.083-1.722-1.475.295.074,2.803s.295,1.402-1.475,1.328-60.714-3.138-60.714-3.138v-3.689l1.992-.295,60.05,2.917" fill="none" stroke="#231f20" stroke-linecap="round" stroke-linejoin="round" stroke-width=".5"/><g clip-path="url(#b)"><line x1="64.083" y1="61.636" x2="64.083" y2="67.288" fill="none" stroke="#231f20" stroke-linecap="round" stroke-linejoin="round" stroke-width="2"/></g><g clip-path="url(#c)"><line x1="138.124" y1="63.877" x2="138.124" y2="69.529" fill="none" stroke="#231f20" stroke-linecap="round" stroke-linejoin="round" stroke-width="2"/></g><g clip-path="url(#d)"><line x1="154.859" y1="64.432" x2="154.859" y2="70.084" fill="none" stroke="#231f20" stroke-linecap="round" stroke-linejoin="round" stroke-width="2"/></g><g clip-path="url(#e)"><line x1="242.451" y1="67.16" x2="242.451" y2="72.812" fill="none" stroke="#231f20" stroke-linecap="round" stroke-linejoin="round" stroke-width="2"/></g><g clip-path="url(#f)"><line x1="261.646" y1="67.78" x2="261.646" y2="73.432" fill="none" stroke="#231f20" stroke-linecap="round" stroke-linejoin="round" stroke-width="2"/></g><g clip-path="url(#g)"><line x1="366.01" y1="71.071" x2="365.655" y2="76.711" fill="none" stroke="#231f20" stroke-linecap="round" stroke-linejoin="round" stroke-width="2"/></g><line x1="61.23" y1="53.798" x2="61.23" y2="56.171" fill="none" stroke="#231f20" stroke-linecap="round" stroke-linejoin="round" stroke-width=".5"/><path d="M160.209,65.041v30.446s.251,3.132,2.631,3.508" fill="none" stroke="#231f20" stroke-linecap="round" stroke-linejoin="round" stroke-width=".5"/><path d="M236.888,103.381s3.759-.376,3.759-3.884.251-32.175.251-32.175" fill="none" stroke="#231f20" stroke-linecap="round" stroke-linejoin="round" stroke-width=".5"/><path d="M237.521,101.702l-1.041.284v2.838l-1.23,1.419s-68.875-4.163-70.484-4.257-1.703-1.325-1.703-1.325l-.095-3.027,2.081-.284,70.673,4.163" fill="none" stroke="#231f20" stroke-linecap="round" stroke-linejoin="round" stroke-width=".5"/><polyline points="165.24 65.372 165.24 95.742 162.969 97.634" fill="none" stroke="#231f20" stroke-linecap="round" stroke-linejoin="round" stroke-width=".5"/><line x1="240.549" y1="100.188" x2="165.24" y2="95.742" fill="none" stroke="#231f20" stroke-linecap="round" stroke-linejoin="round" stroke-width=".5"/><polyline points="34.75 104.031 33.767 86.271 37.167 86.604" fill="none" stroke="#231f20" stroke-linecap="round" stroke-linejoin="round" stroke-width=".5"/><path d="M76.634,55.031l-33.496,2.95-1.215,1.562-3.124.521s-1.909-.347-1.736,5.38c.174,5.727,1.213,20.747,1.213,20.747l-1.039.426,1.736,32.454-3.327-.326" fill="none" stroke="#231f20" stroke-linecap="round" stroke-linejoin="round" stroke-width=".5"/><line x1="39.745" y1="119.052" x2="50.247" y2="116.342" fill="none" stroke="#231f20" stroke-linecap="round" stroke-linejoin="round" stroke-width=".5"/><line x1="41.792" y1="60.702" x2="373.744" y2="71.057" fill="none" stroke="#231f20" stroke-linecap="round" stroke-linejoin="round" stroke-width=".5"/><path d="M28.117,83.845l6.167-7.152s.399-.666-.399-2.796c-.799-2.131-3.063-6.525-3.063-6.525" fill="none" stroke="#231f20" stroke-linecap="round" stroke-linejoin="round" stroke-width=".5"/><path d="M25.091,77.022l2.586,5.172s1.21,2.806-1.431,2.476l9.134,20.964s.385.495.385,2.421.44,10.784.44,10.784l-1.21-.11-.385-11.06-9.794-22.779s-.44-.935.165-1.541,1.21-.99.825-1.871-1.871-3.576-1.871-3.576" fill="none" stroke="#231f20" stroke-linecap="round" stroke-linejoin="round" stroke-width=".5"/><path d="M18.815,85.242c-1.163-2.108,1.599-4.435,1.599-4.435l5.671-4.725s.8-.218.8-2.254-.073-8.578-.073-8.578" fill="none" stroke="#231f20" stroke-linecap="round" stroke-linejoin="round" stroke-width=".5"/><path d="M27.394,70.339l2.472.436,1.381-5.089-1.018-2.763-5.089,2.399-3.926,3.562-1.89,2.399-5.525,4.507s-1.163.145-.727,2.835,3.78,18.465,3.78,18.465c0,0,.336.672.894.828.263.074.575.033.924-.247,1.09-.872,3.199-2.617,3.199-2.617,0,0,.582-.582-.073-2.036-.654-1.454-6.906-17.084-6.906-17.084" fill="none" stroke="#231f20" stroke-linecap="round" stroke-linejoin="round" stroke-width=".5"/><path d="M17.746,97.92l-8.091-.174s-.654.509-1.09-2.036-3.635-18.538-3.635-18.538c0,0-.363-.8.945-1.963,1.309-1.163,6.688-5.234,6.688-5.234l2.181-1.09,5.016-3.926,4.289-2.254,6.179.218" fill="none" stroke="#231f20" stroke-linecap="round" stroke-linejoin="round" stroke-width=".5"/><polyline points="33.767 86.271 36.386 85.199 33.198 78.186" fill="none" stroke="#231f20" stroke-linecap="round" stroke-linejoin="round" stroke-width=".5"/><line x1="36.398" y1="85.244" x2="38.181" y2="85.406" fill="none" stroke="#231f20" stroke-linecap="round" stroke-linejoin="round" stroke-width=".5"/><polyline points="45.887 61.181 45.887 86.82 45.887 108.363" fill="none" stroke="#231f20" stroke-linecap="round" stroke-linejoin="round" stroke-width=".5"/><polyline points="45.887 86.82 144.569 91.351 146.423 92.873 146.423 124.833 369.451 143.479" fill="none" stroke="#231f20" stroke-linecap="round" stroke-linejoin="round" stroke-width=".5"/><polyline points="371.913 122.097 369.768 146.044 370.268 147.117 374.772 147.474 376.916 146.33 378.06 136.179 376.916 135.107 377.202 131.176 378.418 129.817 378.99 122.74" fill="none" stroke="#231f20" stroke-linecap="round" stroke-linejoin="round" stroke-width=".5"/><polygon points="375.797 74.237 386.184 74.738 385.808 82.622 387.56 86.501 383.931 122.792 369.165 121.916 372.043 86.376 374.796 81.871 375.797 74.237" fill="none" stroke="#231f20" stroke-linecap="round" stroke-linejoin="round" stroke-width=".5"/><polyline points="372.543 84.749 373.67 71.984 374.546 69.732 379.937 69.843 379.746 74.279" fill="none" stroke="#231f20" stroke-linecap="round" stroke-linejoin="round" stroke-width=".5"/><polyline points="381.313 74.087 382.038 65.78 381.796 62.715" fill="none" stroke="#231f20" stroke-linecap="round" stroke-linejoin="round" stroke-width=".5"/><line x1="389.944" y1="62.867" x2="387.462" y2="86.113" fill="none" stroke="#231f20" stroke-linecap="round" stroke-linejoin="round" stroke-width=".5"/><path d="M267.304,67.69l-1.177,33.352s.215,2.936,2.652,3.241" fill="none" stroke="#231f20" stroke-linecap="round" stroke-linejoin="round" stroke-width=".5"/><path d="M363.787,70.836l-2.837,35.461s-.218,3.382-4.692,3.928" fill="none" stroke="#231f20" stroke-linecap="round" stroke-linejoin="round" stroke-width=".5"/><polygon points="269.604 108.652 268.601 106.899 268.852 103.391 270.856 102.64 357.54 107.274 355.911 108.903 355.911 111.909 355.16 113.788 269.604 108.652" fill="none" stroke="#231f20" stroke-linecap="round" stroke-linejoin="round" stroke-width=".5"/><line x1="269.979" y1="104.143" x2="354.784" y2="109.028" fill="none" stroke="#231f20" stroke-linecap="round" stroke-linejoin="round" stroke-width=".5"/><line x1="357.54" y1="107.274" x2="357.665" y2="109.654" fill="none" stroke="#231f20" stroke-linecap="round" stroke-linejoin="round" stroke-width=".5"/><polygon points="264.062 133.287 264.774 111.756 361.43 118.342 359.828 141.162 264.062 133.287" fill="none" stroke="#231f20" stroke-linecap="round" stroke-linejoin="round" stroke-width=".5"/><polyline points="248.575 133.116 249.465 114.96 188.944 110.866 188.766 108.373 146.223 105.525" fill="none" stroke="#231f20" stroke-linecap="round" stroke-linejoin="round" stroke-width=".5"/><path d="M50.493,100.09l-1.682-.266-.934-.129s-1.81,1.191-.57,4.554l-.266,1.682-.797,2.478.974.266,1.947.177v-1.947l.885-2.301s1.859-2.744.443-4.514Z" fill="none" stroke="#231f20" stroke-linecap="round" stroke-linejoin="round" stroke-width=".5"/><path d="M54.306,116.84l-7.737-.852s-1.761-.352-1.56-3.875l.876-3.64,1.711.302-.574,3.489.604,1.057,6.284.813" fill="none" stroke="#231f20" stroke-linecap="round" stroke-linejoin="round" stroke-width=".5"/><polyline points="49.204 108.902 50.444 109.496 50.092 112.163 51.148 113.673" fill="none" stroke="#231f20" stroke-linecap="round" stroke-linejoin="round" stroke-width=".5"/><path d="M52.768,110.848c-.508-5.46,1.009-7.037,1.009-7.037-1.06-5.3,2.827-7.986,2.827-7.986l-2.756-1.767-3.322-.071s-2.227,3.193-1.714,5.837" fill="none" stroke="#231f20" stroke-linecap="round" stroke-linejoin="round" stroke-width=".5"/><path d="M49.465,106.214c.675,2.73,1.416,4.222,2.039,5.036" fill="none" stroke="#231f20" stroke-linecap="round" stroke-linejoin="round" stroke-width=".5"/><path d="M53.079,91.002l-.398,1.856h1.945l3.978,2.519s4.376-.707,6.895,4.42l1.68-4.42-.221-3.845s-6.276-5.613-13.879-.53Z" fill="none" stroke="#231f20" stroke-linecap="round" stroke-linejoin="round" stroke-width=".5"/><path d="M56.685,108.5s1.293-4.841,6.559-5.268" fill="none" stroke="#231f20" stroke-linecap="round" stroke-linejoin="round" stroke-width=".5"/><path d="M63.744,118.11c1.445,1.008,3.199.793,4.139.71" fill="none" stroke="#231f20" stroke-linecap="round" stroke-linejoin="round" stroke-width=".5"/><path d="M64.35,105.192s-5.485,3.081-4.774,6.924" fill="none" stroke="#231f20" stroke-linecap="round" stroke-linejoin="round" stroke-width=".5"/><path d="M60.559,120.083l-15.826,6.003s.873,1.419,4.693.327,16.49-6.134,16.49-6.134l5.157-2.188c1.279-.919,2.281-2.213,2.852-3.726,0,0,.755-3.082.271-4.991-.884-3.491-4.003-6.061-7.7-6.061l-3.159,1.451,1.012-3.701,2.491-.712-.214,2.42" fill="none" stroke="#231f20" stroke-linecap="round" stroke-linejoin="round" stroke-width=".5"/><polygon points="55.956 112.297 50.618 111.816 54.797 110.331 60.136 110.812 58.215 111.494 55.956 112.297" fill="none" stroke="#231f20" stroke-linecap="round" stroke-linejoin="round" stroke-width=".5"/><polygon points="55.956 121.011 50.618 120.53 54.797 119.045 60.136 119.526 55.956 121.011" fill="none" stroke="#231f20" stroke-linecap="round" stroke-linejoin="round" stroke-width=".5"/><path d="M53.036,112.25s2.299,2.94.748,7.11" fill="none" stroke="#231f20" stroke-linecap="round" stroke-linejoin="round" stroke-width=".5"/><path d="M55.48,112.706v1.029l1.318-.129,1.659,5.106c1.329,1.113,3.029,1.78,4.881,1.78,4.254,0,7.702-3.521,7.702-7.864s-3.448-7.864-7.702-7.864c-3.378,0-6.248,2.22-7.287,5.309" fill="none" stroke="#231f20" stroke-linecap="round" stroke-linejoin="round" stroke-width=".5"/><path d="M60.086,112.216s1.853-.48,2.402,1.373l1.235,5.079-3.039,1.364" fill="none" stroke="#231f20" stroke-linecap="round" stroke-linejoin="round" stroke-width=".5"/><path d="M66.841,100.352l1.611-3.123-.114-3.086s3.201,1.886,3.544,6.573" fill="none" stroke="#231f20" stroke-linecap="round" stroke-linejoin="round" stroke-width=".5"/><line x1="137.545" y1="124.136" x2="146.423" y2="124.833" fill="none" stroke="#231f20" stroke-linecap="round" stroke-linejoin="round" stroke-width=".5"/><line x1="83.963" y1="120.278" x2="103.45" y2="121.793" fill="none" stroke="#231f20" stroke-linecap="round" stroke-linejoin="round" stroke-width=".5"/><line x1="68.833" y1="119.146" x2="76.972" y2="119.743" fill="none" stroke="#231f20" stroke-linecap="round" stroke-linejoin="round" stroke-width=".5"/><line x1="46.156" y1="117.523" x2="53.838" y2="118.047" fill="none" stroke="#231f20" stroke-linecap="round" stroke-linejoin="round" stroke-width=".5"/><path d="M77.202,120.555l-.466-10.166s-.543-1.552.931-1.94,6.674-1.707,6.674-1.707c0,0,1.798-.609,2.018.854.281,1.867.388,9.778.388,9.778,0,0,.078,2.018-1.164,2.406s-6.208,1.862-6.208,1.862c0,0-1.94.698-2.173-1.086Z" fill="none" stroke="#231f20" stroke-linecap="round" stroke-linejoin="round" stroke-width=".5"/><polyline points="86.592 119.313 90.162 119.313 91.636 118.848 92.645 114.813 93.421 114.813" fill="none" stroke="#231f20" stroke-linecap="round" stroke-linejoin="round" stroke-width=".5"/><polyline points="87.601 107.596 87.213 91.765 72.624 91.144 71.848 91.765 71.848 105.268" fill="none" stroke="#231f20" stroke-linecap="round" stroke-linejoin="round" stroke-width=".5"/><path d="M84.574,106.509s-.233-10.321-.233-11.485-1.474-1.319-1.474-1.319c0,0-3.802-.233-4.656-.233s-1.242.388-1.242.388l-2.716,3.182.31,10.243,2.095,1.785" fill="none" stroke="#231f20" stroke-linecap="round" stroke-linejoin="round" stroke-width=".5"/><line x1="89.55" y1="108.338" x2="90.089" y2="118.822" fill="none" stroke="#231f20" stroke-linecap="round" stroke-linejoin="round" stroke-width=".5"/><polyline points="87.873 102.467 88.412 101.808 92.485 102.108 92.179 102.629 91.17 102.784 90.006 107.984 86.98 107.828" fill="none" stroke="#231f20" stroke-linecap="round" stroke-linejoin="round" stroke-width=".5"/><polyline points="93.744 119.84 92.785 90.726 73.555 89.887 72.656 88.868 48.274 87.91 47.016 88.749 47.196 100.191" fill="none" stroke="#231f20" stroke-linecap="round" stroke-linejoin="round" stroke-width=".5"/><line x1="70.893" y1="118.137" x2="76.924" y2="115.899" fill="none" stroke="#231f20" stroke-linecap="round" stroke-linejoin="round" stroke-width=".5"/><line x1="74.003" y1="114.23" x2="76.68" y2="113.326" fill="none" stroke="#231f20" stroke-linecap="round" stroke-linejoin="round" stroke-width=".5"/><path d="M54.16,110.406c-.914-2.043.108-4.732.108-4.732,0,0,.86,2.796,2.312,3.28" fill="none" stroke="#231f20" stroke-linecap="round" stroke-linejoin="round" stroke-width=".5"/><ellipse cx="90.208" cy="97.565" rx="1.931" ry="2.347" transform="translate(-7.232 7.222) rotate(-4.408)" fill="none" stroke="#231f20" stroke-linecap="round" stroke-linejoin="round" stroke-width=".5"/><ellipse cx="69.399" cy="91.779" rx="1.613" ry="1.961" transform="translate(-6.849 5.605) rotate(-4.408)" fill="none" stroke="#231f20" stroke-linecap="round" stroke-linejoin="round" stroke-width=".5"/><line x1="69.426" y1="90.597" x2="69.426" y2="92.893" fill="none" stroke="#231f20" stroke-linecap="round" stroke-linejoin="round" stroke-width=".5"/><line x1="68.465" y1="91.745" x2="70.334" y2="91.745" fill="none" stroke="#231f20" stroke-linecap="round" stroke-linejoin="round" stroke-width=".5"/><ellipse cx="49.637" cy="91.107" rx="1.613" ry="1.961" transform="translate(-6.855 4.084) rotate(-4.408)" fill="none" stroke="#231f20" stroke-linecap="round" stroke-linejoin="round" stroke-width=".5"/><line x1="49.663" y1="89.924" x2="49.663" y2="92.22" fill="none" stroke="#231f20" stroke-linecap="round" stroke-linejoin="round" stroke-width=".5"/><line x1="48.702" y1="91.072" x2="50.571" y2="91.072" fill="none" stroke="#231f20" stroke-linecap="round" stroke-linejoin="round" stroke-width=".5"/><path d="M85.856,108.377l-6.042,1.627s-.988,0-.93,1.162.49,10.475.49,10.475" fill="none" stroke="#231f20" stroke-linecap="round" stroke-linejoin="round" stroke-width=".5"/><path d="M81.208,110.992s-1.743,4.532.465,8.25" fill="none" stroke="#231f20" stroke-linecap="round" stroke-linejoin="round" stroke-width=".5"/><path d="M82.951,110.527s-1.743,4.532.465,8.25" fill="none" stroke="#231f20" stroke-linecap="round" stroke-linejoin="round" stroke-width=".5"/><path d="M84.694,110.062s-1.743,4.532.465,8.25" fill="none" stroke="#231f20" stroke-linecap="round" stroke-linejoin="round" stroke-width=".5"/><ellipse cx="49.242" cy="102.021" rx=".606" ry=".768" fill="none" stroke="#231f20" stroke-linecap="round" stroke-linejoin="round" stroke-width=".5"/><line x1="86.501" y1="119.293" x2="94.478" y2="119.913" fill="none" stroke="#231f20" stroke-linecap="round" stroke-linejoin="round" stroke-width=".5"/><line x1="94.601" y1="89.343" x2="94.601" y2="112.302" fill="none" stroke="#231f20" stroke-linecap="round" stroke-linejoin="round" stroke-width=".5"/><path d="M99.51,103.486l-1.792-.283-.996-.137s-1.929,1.269-.608,4.854l-.283,1.792-.849,2.641,1.038.283,2.075.189v-2.075l.943-2.452s1.981-2.924.472-4.811Z" fill="none" stroke="#231f20" stroke-linecap="round" stroke-linejoin="round" stroke-width=".5"/><path d="M103.473,121.007l-8.145-.579s-1.877-.375-1.662-4.129l.933-3.88,1.823.322-.612,3.719.704,1.309,6.498.33" fill="none" stroke="#231f20" stroke-linecap="round" stroke-linejoin="round" stroke-width=".5"/><polyline points="98.136 112.876 99.457 113.51 99.082 116.352 100.16 117.754" fill="none" stroke="#231f20" stroke-linecap="round" stroke-linejoin="round" stroke-width=".5"/><path d="M101.934,114.951c-.541-5.819,1.075-7.5,1.075-7.5-1.13-5.649,3.013-8.511,3.013-8.511l-2.937-1.883-3.54-.075s-2.373,3.403-1.827,6.221" fill="none" stroke="#231f20" stroke-linecap="round" stroke-linejoin="round" stroke-width=".5"/><path d="M98.415,110.012c.719,2.909,1.509,4.499,2.173,5.367" fill="none" stroke="#231f20" stroke-linecap="round" stroke-linejoin="round" stroke-width=".5"/><path d="M102.266,93.8l-.424,1.978h2.073l4.239,2.685s4.663-.754,7.348,4.711l1.79-4.711-.236-4.098s-6.689-5.982-14.791-.565Z" fill="none" stroke="#231f20" stroke-linecap="round" stroke-linejoin="round" stroke-width=".5"/><path d="M106.108,112.449s1.378-5.159,6.99-5.614" fill="none" stroke="#231f20" stroke-linecap="round" stroke-linejoin="round" stroke-width=".5"/><path d="M113.631,122.69c1.54,1.074,3.41.845,4.411.756" fill="none" stroke="#231f20" stroke-linecap="round" stroke-linejoin="round" stroke-width=".5"/><path d="M114.278,108.923s-5.846,3.283-5.087,7.379" fill="none" stroke="#231f20" stroke-linecap="round" stroke-linejoin="round" stroke-width=".5"/><path d="M110.237,124.793l-16.867,6.398s.931,1.512,5.002.349,17.574-6.537,17.574-6.537l5.496-2.332c1.363-.98,2.431-2.359,3.04-3.971,0,0,.805-3.285.289-5.319-.942-3.72-4.267-6.46-8.206-6.46l-3.366,1.547,1.079-3.944,2.655-.758-.228,2.579" fill="none" stroke="#231f20" stroke-linecap="round" stroke-linejoin="round" stroke-width=".5"/><polygon points="105.332 116.495 99.643 115.982 104.097 114.399 109.786 114.912 107.739 115.639 105.332 116.495" fill="none" stroke="#231f20" stroke-linecap="round" stroke-linejoin="round" stroke-width=".5"/><polygon points="105.332 125.782 99.643 125.269 104.097 123.686 109.786 124.199 105.332 125.782" fill="none" stroke="#231f20" stroke-linecap="round" stroke-linejoin="round" stroke-width=".5"/><path d="M102.219,116.445s2.45,3.134.798,7.578" fill="none" stroke="#231f20" stroke-linecap="round" stroke-linejoin="round" stroke-width=".5"/><path d="M104.824,116.931v1.097l1.405-.137,1.768,5.442c1.416,1.186,3.228,1.898,5.202,1.898,4.533,0,8.208-3.752,8.208-8.381s-3.675-8.381-8.208-8.381c-3.6,0-6.658,2.366-7.765,5.658" fill="none" stroke="#231f20" stroke-linecap="round" stroke-linejoin="round" stroke-width=".5"/><path d="M109.733,116.408s1.975-.512,2.56,1.463l1.317,5.413-3.239,1.454" fill="none" stroke="#231f20" stroke-linecap="round" stroke-linejoin="round" stroke-width=".5"/><path d="M116.932,103.765l1.717-3.328-.122-3.289s3.411,2.01,3.777,7.005" fill="none" stroke="#231f20" stroke-linecap="round" stroke-linejoin="round" stroke-width=".5"/><line x1="119.982" y1="123.287" x2="127.739" y2="123.614" fill="none" stroke="#231f20" stroke-linecap="round" stroke-linejoin="round" stroke-width=".5"/><path d="M127.974,125.296l-.496-10.834s-.579-1.654.992-2.068,7.112-1.819,7.112-1.819c0,0,1.819-1.075,2.15.91s.414,10.42.414,10.42c0,0,.083,2.15-1.241,2.564s-6.616,1.985-6.616,1.985c0,0-2.068.744-2.316-1.158Z" fill="none" stroke="#231f20" stroke-linecap="round" stroke-linejoin="round" stroke-width=".5"/><polyline points="137.981 123.972 141.785 123.972 143.357 123.476 144.432 119.176 145.259 119.176" fill="none" stroke="#231f20" stroke-linecap="round" stroke-linejoin="round" stroke-width=".5"/><polyline points="139.056 111.485 138.643 94.613 123.095 93.952 122.268 94.613 122.268 109.003" fill="none" stroke="#231f20" stroke-linecap="round" stroke-linejoin="round" stroke-width=".5"/><path d="M135.831,110.327s-.248-10.999-.248-12.24-1.571-1.406-1.571-1.406c0,0-4.052-.248-4.962-.248s-1.323.414-1.323.414l-2.895,3.391.331,10.917,2.233,1.902" fill="none" stroke="#231f20" stroke-linecap="round" stroke-linejoin="round" stroke-width=".5"/><line x1="141.319" y1="111.93" x2="141.715" y2="123.832" fill="none" stroke="#231f20" stroke-linecap="round" stroke-linejoin="round" stroke-width=".5"/><polyline points="139.079 106.208 139.92 105.317 144.262 105.636 143.935 106.192 142.86 106.357 141.62 111.898 137.819 111.618" fill="none" stroke="#231f20" stroke-linecap="round" stroke-linejoin="round" stroke-width=".5"/><polyline points="145.603 124.534 144.581 93.506 124.087 92.612 123.129 91.527 97.145 90.505 95.804 91.399 95.995 103.593" fill="none" stroke="#231f20" stroke-linecap="round" stroke-linejoin="round" stroke-width=".5"/><line x1="121.25" y1="122.719" x2="127.677" y2="120.334" fill="none" stroke="#231f20" stroke-linecap="round" stroke-linejoin="round" stroke-width=".5"/><line x1="124.565" y1="118.555" x2="127.418" y2="117.591" fill="none" stroke="#231f20" stroke-linecap="round" stroke-linejoin="round" stroke-width=".5"/><path d="M103.417,114.48c-.974-2.177.115-5.043.115-5.043,0,0,.917,2.98,2.464,3.495" fill="none" stroke="#231f20" stroke-linecap="round" stroke-linejoin="round" stroke-width=".5"/><ellipse cx="141.835" cy="100.795" rx="2.058" ry="2.502" transform="translate(-7.327 11.199) rotate(-4.408)" fill="none" stroke="#231f20" stroke-linecap="round" stroke-linejoin="round" stroke-width=".5"/><ellipse cx="119.659" cy="94.629" rx="1.719" ry="2.09" transform="translate(-6.919 9.477) rotate(-4.408)" fill="none" stroke="#231f20" stroke-linecap="round" stroke-linejoin="round" stroke-width=".5"/><line x1="119.687" y1="93.368" x2="119.687" y2="95.816" fill="none" stroke="#231f20" stroke-linecap="round" stroke-linejoin="round" stroke-width=".5"/><line x1="118.663" y1="94.592" x2="120.655" y2="94.592" fill="none" stroke="#231f20" stroke-linecap="round" stroke-linejoin="round" stroke-width=".5"/><ellipse cx="98.597" cy="93.912" rx="1.719" ry="2.09" transform="translate(-6.926 7.856) rotate(-4.408)" fill="none" stroke="#231f20" stroke-linecap="round" stroke-linejoin="round" stroke-width=".5"/><line x1="98.625" y1="92.652" x2="98.625" y2="95.099" fill="none" stroke="#231f20" stroke-linecap="round" stroke-linejoin="round" stroke-width=".5"/><line x1="97.601" y1="93.875" x2="99.593" y2="93.875" fill="none" stroke="#231f20" stroke-linecap="round" stroke-linejoin="round" stroke-width=".5"/><path d="M137.197,112.318l-6.439,1.734s-1.053,0-.991,1.238.523,11.164.523,11.164" fill="none" stroke="#231f20" stroke-linecap="round" stroke-linejoin="round" stroke-width=".5"/><path d="M132.244,115.104s-1.857,4.829.495,8.792" fill="none" stroke="#231f20" stroke-linecap="round" stroke-linejoin="round" stroke-width=".5"/><path d="M134.101,114.609s-1.857,4.829.495,8.792" fill="none" stroke="#231f20" stroke-linecap="round" stroke-linejoin="round" stroke-width=".5"/><path d="M135.959,114.113s-1.857,4.829.495,8.792" fill="none" stroke="#231f20" stroke-linecap="round" stroke-linejoin="round" stroke-width=".5"/><ellipse cx="98.176" cy="105.544" rx=".646" ry=".818" fill="none" stroke="#231f20" stroke-linecap="round" stroke-linejoin="round" stroke-width=".5"/><polygon points="211.258 125.084 189.049 123.583 189.049 115.78 211.258 117.281 211.258 125.084" fill="none" stroke="#231f20" stroke-linecap="round" stroke-linejoin="round" stroke-width=".5"/><polygon points="245.621 127.785 214.709 125.684 214.709 118.031 245.621 120.132 245.621 127.785" fill="none" stroke="#231f20" stroke-linecap="round" stroke-linejoin="round" stroke-width=".5"/><polygon points="262.863 128.598 249.973 127.638 250.865 106.657 263.754 107.617 262.863 128.598" fill="none" stroke="#231f20" stroke-linecap="round" stroke-linejoin="round" stroke-width=".5"/><polyline points="255.39 107.206 255.39 108.371 254.43 108.44 254.293 109.88 252.03 109.743 251.756 114.885 261.56 115.639 261.903 110.428 259.572 110.223 259.641 108.92 258.612 108.851 258.612 107.343" fill="none" stroke="#231f20" stroke-linecap="round" stroke-linejoin="round" stroke-width=".5"/><polyline points="254.6 127.841 254.6 127.064 253.768 126.953 253.713 125.455 251.549 125.233 251.826 119.962 261.259 120.572 261.148 125.899 259.039 125.788 258.928 127.119 257.874 127.175 257.707 128.118" fill="none" stroke="#231f20" stroke-linecap="round" stroke-linejoin="round" stroke-width=".5"/><polygon points="281.912 130.008 276.545 129.598 276.886 117.827 282.254 118.237 281.912 130.008" fill="none" stroke="#231f20" stroke-linecap="round" stroke-linejoin="round" stroke-width=".5"/><path d="M266.566,126.727l5.947.41s1.777.547-.068,2.939l-.82.342-4.443-.342-1.094-.957s-1.435-1.435.478-2.392Z" fill="none" stroke="#231f20" stroke-linecap="round" stroke-linejoin="round" stroke-width=".5"/><polygon points="354.072 138.035 295.048 133.697 295.991 117.668 355.015 122.006 354.072 138.035" fill="none" stroke="#231f20" stroke-linecap="round" stroke-linejoin="round" stroke-width=".5"/><line x1="80.597" y1="101.655" x2="84.381" y2="100.57" fill="none" stroke="#231f20" stroke-linecap="round" stroke-linejoin="round" stroke-width=".5"/><rect x="77.991" y="101.601" width="2.866" height="1.434" rx=".581" ry=".581" fill="none" stroke="#231f20" stroke-linecap="round" stroke-linejoin="round" stroke-width=".5"/><line x1="78.462" y1="101.612" x2="84.342" y2="99.937" fill="none" stroke="#231f20" stroke-linecap="round" stroke-linejoin="round" stroke-width=".5"/><line x1="80.437" y1="103.013" x2="84.147" y2="101.988" fill="none" stroke="#231f20" stroke-linecap="round" stroke-linejoin="round" stroke-width=".5"/><line x1="131.71" y1="105.231" x2="135.494" y2="104.146" fill="none" stroke="#231f20" stroke-linecap="round" stroke-linejoin="round" stroke-width=".5"/><rect x="129.104" y="105.177" width="2.866" height="1.434" rx=".581" ry=".581" fill="none" stroke="#231f20" stroke-linecap="round" stroke-linejoin="round" stroke-width=".5"/><line x1="129.575" y1="105.187" x2="135.455" y2="103.512" fill="none" stroke="#231f20" stroke-linecap="round" stroke-linejoin="round" stroke-width=".5"/><line x1="131.55" y1="106.588" x2="135.26" y2="105.563" fill="none" stroke="#231f20" stroke-linecap="round" stroke-linejoin="round" stroke-width=".5"/><line x1="133.826" y1="99.943" x2="135.623" y2="99.428" fill="none" stroke="#231f20" stroke-linecap="round" stroke-linejoin="round" stroke-width=".5"/><rect x="131.22" y="99.889" width="2.866" height="1.434" rx=".581" ry=".581" fill="none" stroke="#231f20" stroke-linecap="round" stroke-linejoin="round" stroke-width=".5"/><line x1="131.691" y1="99.899" x2="135.515" y2="98.81" fill="none" stroke="#231f20" stroke-linecap="round" stroke-linejoin="round" stroke-width=".5"/><line x1="133.666" y1="101.3" x2="135.485" y2="100.798" fill="none" stroke="#231f20" stroke-linecap="round" stroke-linejoin="round" stroke-width=".5"/><line x1="133.826" y1="110.344" x2="135.742" y2="109.795" fill="none" stroke="#231f20" stroke-linecap="round" stroke-linejoin="round" stroke-width=".5"/><path d="M134.087,110.872c0-.32-.262-.581-.581-.581h-1.704c-.32,0-.581.262-.581.581v.271l-.034.513" fill="none" stroke="#231f20" stroke-linecap="round" stroke-linejoin="round" stroke-width=".5"/><line x1="131.691" y1="110.301" x2="135.771" y2="109.138" fill="none" stroke="#231f20" stroke-linecap="round" stroke-linejoin="round" stroke-width=".5"/><line x1="82.47" y1="96.584" x2="84.312" y2="96.056" fill="none" stroke="#231f20" stroke-linecap="round" stroke-linejoin="round" stroke-width=".5"/><rect x="79.864" y="96.53" width="2.866" height="1.434" rx=".581" ry=".581" fill="none" stroke="#231f20" stroke-linecap="round" stroke-linejoin="round" stroke-width=".5"/><line x1="80.334" y1="96.54" x2="84.335" y2="95.401" fill="none" stroke="#231f20" stroke-linecap="round" stroke-linejoin="round" stroke-width=".5"/><line x1="82.309" y1="97.941" x2="84.362" y2="97.375" fill="none" stroke="#231f20" stroke-linecap="round" stroke-linejoin="round" stroke-width=".5"/><line x1="82.47" y1="106.579" x2="84.516" y2="105.992" fill="none" stroke="#231f20" stroke-linecap="round" stroke-linejoin="round" stroke-width=".5"/><path d="M82.73,107.106c0-.32-.262-.581-.581-.581h-1.704c-.32,0-.581.262-.581.581v.271l.033.514" fill="none" stroke="#231f20" stroke-linecap="round" stroke-linejoin="round" stroke-width=".5"/><line x1="80.334" y1="106.535" x2="84.479" y2="105.355" fill="none" stroke="#231f20" stroke-linecap="round" stroke-linejoin="round" stroke-width=".5"/><path d="M66.196,105.583l-1,2.866-2.333,1.533,3.132,1.666s2.333,1.266,3.865-3.465" fill="none" stroke="#231f20" stroke-linecap="round" stroke-linejoin="round" stroke-width=".5"/><path d="M59.865,110.382l1.599.333s2.732,2.799,6.331,1.999" fill="none" stroke="#231f20" stroke-linecap="round" stroke-linejoin="round" stroke-width=".5"/><polyline points="63.13 114.886 67.529 115.219 67.995 111.448 68.862 111.048 70.528 111.181" fill="none" stroke="#231f20" stroke-linecap="round" stroke-linejoin="round" stroke-width=".5"/><line x1="63.53" y1="117.379" x2="69.128" y2="117.779" fill="none" stroke="#231f20" stroke-linecap="round" stroke-linejoin="round" stroke-width=".5"/><polyline points="112.705 118.725 117.561 118.887 118.451 114.435 121.015 114.44" fill="none" stroke="#231f20" stroke-linecap="round" stroke-linejoin="round" stroke-width=".5"/><line x1="113.426" y1="121.599" x2="119.485" y2="121.875" fill="none" stroke="#231f20" stroke-linecap="round" stroke-linejoin="round" stroke-width=".5"/><line x1="119.053" y1="114.434" x2="119.328" y2="111.372" fill="none" stroke="#231f20" stroke-linecap="round" stroke-linejoin="round" stroke-width=".5"/><path d="M109.492,114.302h1.195l4.214,2.264s1.572.629,3.019.063" fill="none" stroke="#231f20" stroke-linecap="round" stroke-linejoin="round" stroke-width=".5"/><path d="M119.304,111.914c-.265,1.513-1.974,3.836-3.587,3.503l-3.081-1.681s3.746-3.249,3.243-4.758" fill="none" stroke="#231f20" stroke-linecap="round" stroke-linejoin="round" stroke-width=".5"/><line x1="67.277" y1="167.246" x2="81.695" y2="163.423" fill="none" stroke="#231f20" stroke-linecap="round" stroke-linejoin="round" stroke-width=".5"/><path d="M81.956,148.142l-1.555-.31-.864-.155s-1.676,1.056-.537,4.264l-.249,1.573-.742,2.303.9.285,1.801.236.004-1.832.823-2.133s1.725-2.515.419-4.231Z" fill="none" stroke="#231f20" stroke-linecap="round" stroke-linejoin="round" stroke-width=".5"/><path d="M85.448,164.036l-7.154-1.078s-1.628-.394-1.435-3.701l.818-3.394,1.582.345-.538,3.262.556,1.016,5.81.989" fill="none" stroke="#231f20" stroke-linecap="round" stroke-linejoin="round" stroke-width=".5"/><polyline points="80.745 156.386 81.891 156.989 81.559 159.486 82.534 160.944" fill="none" stroke="#231f20" stroke-linecap="round" stroke-linejoin="round" stroke-width=".5"/><path d="M84.037,158.345c-.458-5.155.948-6.585.948-6.585-.969-5.024,2.631-7.412,2.631-7.412l-2.545-1.761-3.072-.185s-2.066,2.925-1.597,5.43" fill="none" stroke="#231f20" stroke-linecap="round" stroke-linejoin="round" stroke-width=".5"/><path d="M80.993,153.867c.618,2.592,1.301,4.022,1.875,4.81" fill="none" stroke="#231f20" stroke-linecap="round" stroke-linejoin="round" stroke-width=".5"/><path d="M84.367,139.684l-.372,1.732,1.799.069,3.674,2.512s4.048-.509,6.368,4.404l1.563-4.098-.196-3.626s-5.793-5.505-12.835-.994Z" fill="none" stroke="#231f20" stroke-linecap="round" stroke-linejoin="round" stroke-width=".5"/><path d="M87.665,156.275s1.205-4.508,6.077-4.722" fill="none" stroke="#231f20" stroke-linecap="round" stroke-linejoin="round" stroke-width=".5"/><path d="M94.174,165.568c1.334.999,2.957.86,3.827.815" fill="none" stroke="#231f20" stroke-linecap="round" stroke-linejoin="round" stroke-width=".5"/><path d="M94.761,153.436s-5.079,2.703-4.429,6.344" fill="none" stroke="#231f20" stroke-linecap="round" stroke-linejoin="round" stroke-width=".5"/><path d="M91.224,167.311l-14.65,5.083s.805,1.366,4.34.475,15.264-5.183,15.264-5.183l4.774-1.875c1.185-.819,2.114-2.001,2.646-3.404,0,0,.705-2.873.261-4.686-.811-3.316-3.69-5.845-7.109-5.977l-2.924,1.253.944-3.446,2.305-.581-.202,2.269" fill="none" stroke="#231f20" stroke-linecap="round" stroke-linejoin="round" stroke-width=".5"/><polygon points="86.983 159.821 82.047 159.178 85.915 157.93 90.852 158.573 89.074 159.146 86.983 159.821" fill="none" stroke="#231f20" stroke-linecap="round" stroke-linejoin="round" stroke-width=".5"/><polygon points="86.965 168.019 82.029 167.376 85.897 166.128 90.834 166.771 86.965 168.019" fill="none" stroke="#231f20" stroke-linecap="round" stroke-linejoin="round" stroke-width=".5"/><path d="M84.282,159.673s2.12,2.848.678,6.716" fill="none" stroke="#231f20" stroke-linecap="round" stroke-linejoin="round" stroke-width=".5"/><path d="M86.542,160.189l-.002.968,1.22-.074,1.524,4.863c1.227,1.094,2.797,1.783,4.511,1.849,3.934.152,7.131-3.038,7.14-7.124s-3.173-7.522-7.107-7.674c-3.124-.121-5.783,1.866-6.75,4.735" fill="none" stroke="#231f20" stroke-linecap="round" stroke-linejoin="round" stroke-width=".5"/><path d="M90.803,159.892s1.715-.386,2.219,1.377l1.132,4.822-2.814,1.175" fill="none" stroke="#231f20" stroke-linecap="round" stroke-linejoin="round" stroke-width=".5"/><path d="M97.075,148.972l1.497-2.88-.099-2.908s2.956,1.889,3.264,6.31" fill="none" stroke="#231f20" stroke-linecap="round" stroke-linejoin="round" stroke-width=".5"/><line x1="162.416" y1="173.87" x2="369.718" y2="198.007" fill="none" stroke="#231f20" stroke-linecap="round" stroke-linejoin="round" stroke-width=".5"/><line x1="112.869" y1="168.329" x2="130.889" y2="170.45" fill="none" stroke="#231f20" stroke-linecap="round" stroke-linejoin="round" stroke-width=".5"/><line x1="98.878" y1="166.724" x2="106.404" y2="167.576" fill="none" stroke="#231f20" stroke-linecap="round" stroke-linejoin="round" stroke-width=".5"/><line x1="77.909" y1="164.388" x2="85.012" y2="165.156" fill="none" stroke="#231f20" stroke-linecap="round" stroke-linejoin="round" stroke-width=".5"/><path d="M106.615,168.348l-.41-9.58s-.499-1.48.865-1.792,6.176-1.368,6.176-1.368c0,0,1.664-.509,1.864.875.256,1.767.339,9.213.339,9.213,0,0,.068,1.901-1.082,2.222s-5.745,1.531-5.745,1.531c0,0-1.796.588-2.007-1.1Z" fill="none" stroke="#231f20" stroke-linecap="round" stroke-linejoin="round" stroke-width=".5"/><polyline points="115.302 167.515 118.604 167.642 119.968 167.257 120.91 163.497 121.627 163.524" fill="none" stroke="#231f20" stroke-linecap="round" stroke-linejoin="round" stroke-width=".5"/><polyline points="116.259 156.527 115.933 141.62 102.442 140.515 101.723 141.072 101.695 153.775" fill="none" stroke="#231f20" stroke-linecap="round" stroke-linejoin="round" stroke-width=".5"/><path d="M113.463,155.397s-.194-9.718-.192-10.813-1.361-1.294-1.361-1.294c0,0-3.516-.355-4.306-.385s-1.149.321-1.149.321l-2.519,2.896.266,9.648,1.934,1.754" fill="none" stroke="#231f20" stroke-linecap="round" stroke-linejoin="round" stroke-width=".5"/><line x1="118.061" y1="157.295" x2="118.538" y2="167.178" fill="none" stroke="#231f20" stroke-linecap="round" stroke-linejoin="round" stroke-width=".5"/><polyline points="116.522 151.712 117.022 151.111 120.789 151.539 120.504 152.018 119.571 152.128 118.483 156.978 115.685 156.724" fill="none" stroke="#231f20" stroke-linecap="round" stroke-linejoin="round" stroke-width=".5"/><polyline points="121.915 168.266 121.089 140.841 103.306 139.366 102.477 138.375 79.928 136.604 78.763 137.348 78.906 148.119" fill="none" stroke="#231f20" stroke-linecap="round" stroke-linejoin="round" stroke-width=".5"/><line x1="100.786" y1="165.848" x2="106.368" y2="163.958" fill="none" stroke="#231f20" stroke-linecap="round" stroke-linejoin="round" stroke-width=".5"/><line x1="103.67" y1="162.284" x2="106.148" y2="161.529" fill="none" stroke="#231f20" stroke-linecap="round" stroke-linejoin="round" stroke-width=".5"/><path d="M85.325,157.978c-.841-1.955.109-4.448.109-4.448,0,0,.79,2.661,2.132,3.168" fill="none" stroke="#231f20" stroke-linecap="round" stroke-linejoin="round" stroke-width=".5"/><ellipse cx="118.692" cy="147.184" rx="1.779" ry="2.217" transform="translate(-18.617 17.195) rotate(-7.685)" fill="none" stroke="#231f20" stroke-linecap="round" stroke-linejoin="round" stroke-width=".5"/><ellipse cx="99.459" cy="140.998" rx="1.486" ry="1.851" transform="translate(-17.963 14.568) rotate(-7.685)" fill="none" stroke="#231f20" stroke-linecap="round" stroke-linejoin="round" stroke-width=".5"/><line x1="99.486" y1="139.886" x2="99.481" y2="142.046" fill="none" stroke="#231f20" stroke-linecap="round" stroke-linejoin="round" stroke-width=".5"/><line x1="98.594" y1="140.932" x2="100.323" y2="140.999" fill="none" stroke="#231f20" stroke-linecap="round" stroke-linejoin="round" stroke-width=".5"/><ellipse cx="81.182" cy="139.66" rx="1.486" ry="1.851" transform="translate(-17.948 12.111) rotate(-7.685)" fill="none" stroke="#231f20" stroke-linecap="round" stroke-linejoin="round" stroke-width=".5"/><line x1="81.209" y1="138.548" x2="81.205" y2="140.709" fill="none" stroke="#231f20" stroke-linecap="round" stroke-linejoin="round" stroke-width=".5"/><line x1="80.318" y1="139.594" x2="82.047" y2="139.661" fill="none" stroke="#231f20" stroke-linecap="round" stroke-linejoin="round" stroke-width=".5"/><path d="M114.644,157.2l-5.591,1.315s-.913-.035-.862,1.06c.051,1.095.432,9.873.432,9.873" fill="none" stroke="#231f20" stroke-linecap="round" stroke-linejoin="round" stroke-width=".5"/><path d="M110.34,159.494s-1.621,4.201.413,7.778" fill="none" stroke="#231f20" stroke-linecap="round" stroke-linejoin="round" stroke-width=".5"/><path d="M111.953,159.119s-1.621,4.201.413,7.778" fill="none" stroke="#231f20" stroke-linecap="round" stroke-linejoin="round" stroke-width=".5"/><path d="M113.566,158.744s-1.621,4.201.413,7.778" fill="none" stroke="#231f20" stroke-linecap="round" stroke-linejoin="round" stroke-width=".5"/><ellipse cx="80.794" cy="149.914" rx=".56" ry=".723" transform="translate(-7.768 4.454) rotate(-3.013)" fill="none" stroke="#231f20" stroke-linecap="round" stroke-linejoin="round" stroke-width=".5"/><line x1="115.218" y1="167.493" x2="122.594" y2="168.36" fill="none" stroke="#231f20" stroke-linecap="round" stroke-linejoin="round" stroke-width=".5"/><line x1="122.772" y1="139.605" x2="122.724" y2="161.205" fill="none" stroke="#231f20" stroke-linecap="round" stroke-linejoin="round" stroke-width=".5"/><path d="M127.282,153.085l-1.657-.33-.92-.165s-1.786,1.125-.572,4.545l-.265,1.676-.791,2.454.959.303,1.919.252.004-1.952.877-2.274s1.838-2.68.446-4.509Z" fill="none" stroke="#231f20" stroke-linecap="round" stroke-linejoin="round" stroke-width=".5"/><path d="M130.911,169.711l-7.532-.835s-1.735-.42-1.529-3.944l.871-3.617,1.686.368-.573,3.477.649,1.256,6.009.542" fill="none" stroke="#231f20" stroke-linecap="round" stroke-linejoin="round" stroke-width=".5"/><polyline points="125.992 161.871 127.213 162.514 126.86 165.175 127.854 166.532" fill="none" stroke="#231f20" stroke-linecap="round" stroke-linejoin="round" stroke-width=".5"/><path d="M129.5,163.958c-.489-5.493,1.01-7.017,1.01-7.017-1.033-5.355,2.804-7.9,2.804-7.9l-2.713-1.876-3.274-.197s-2.202,3.117-1.702,5.787" fill="none" stroke="#231f20" stroke-linecap="round" stroke-linejoin="round" stroke-width=".5"/><path d="M126.256,159.187c.659,2.763,1.386,4.287,1.999,5.127" fill="none" stroke="#231f20" stroke-linecap="round" stroke-linejoin="round" stroke-width=".5"/><path d="M129.851,144.072l-.396,1.846,1.917.074,3.915,2.677s4.315-.543,6.786,4.694l1.665-4.368-.209-3.864s-6.174-5.867-13.678-1.059Z" fill="none" stroke="#231f20" stroke-linecap="round" stroke-linejoin="round" stroke-width=".5"/><path d="M133.366,161.753s1.285-4.805,6.477-5.032" fill="none" stroke="#231f20" stroke-linecap="round" stroke-linejoin="round" stroke-width=".5"/><path d="M140.303,171.657c1.422,1.065,3.152.917,4.078.869" fill="none" stroke="#231f20" stroke-linecap="round" stroke-linejoin="round" stroke-width=".5"/><path d="M140.929,158.727s-5.413,2.88-4.72,6.761" fill="none" stroke="#231f20" stroke-linecap="round" stroke-linejoin="round" stroke-width=".5"/><path d="M137.159,173.514l-15.612,5.417s.858,1.456,4.625.507c3.768-.949,16.267-5.523,16.267-5.523l5.088-1.998c1.263-.873,2.253-2.132,2.82-3.627,0,0,.751-3.062.279-4.994-.864-3.534-3.933-6.229-7.576-6.37l-3.116,1.335,1.006-3.672,2.457-.619-.216,2.418" fill="none" stroke="#231f20" stroke-linecap="round" stroke-linejoin="round" stroke-width=".5"/><polygon points="132.64 165.532 127.379 164.846 131.502 163.516 136.763 164.202 134.868 164.813 132.64 165.532" fill="none" stroke="#231f20" stroke-linecap="round" stroke-linejoin="round" stroke-width=".5"/><polygon points="132.621 174.269 127.36 173.584 131.483 172.254 136.743 172.939 132.621 174.269" fill="none" stroke="#231f20" stroke-linecap="round" stroke-linejoin="round" stroke-width=".5"/><path d="M129.761,165.374s2.259,3.036.722,7.158" fill="none" stroke="#231f20" stroke-linecap="round" stroke-linejoin="round" stroke-width=".5"/><path d="M132.169,165.924l-.002,1.032,1.3-.079,1.624,5.183c1.307,1.166,2.981,1.9,4.807,1.971,4.193.162,7.599-3.237,7.609-7.592s-3.382-8.016-7.574-8.178c-3.329-.128-6.163,1.988-7.194,5.046" fill="none" stroke="#231f20" stroke-linecap="round" stroke-linejoin="round" stroke-width=".5"/><path d="M136.711,165.607s1.828-.411,2.365,1.468l1.206,5.139-2.998,1.252" fill="none" stroke="#231f20" stroke-linecap="round" stroke-linejoin="round" stroke-width=".5"/><path d="M143.395,153.97l1.595-3.07-.106-3.099s3.151,2.013,3.478,6.725" fill="none" stroke="#231f20" stroke-linecap="round" stroke-linejoin="round" stroke-width=".5"/><line x1="146.175" y1="172.445" x2="153.348" y2="173.03" fill="none" stroke="#231f20" stroke-linecap="round" stroke-linejoin="round" stroke-width=".5"/><path d="M153.562,174.619l-.437-10.21s-.532-1.577.922-1.91,6.582-1.458,6.582-1.458c0,0,1.685-.947,1.987.933s.361,9.818.361,9.818c0,0,.072,2.026-1.153,2.368s-6.123,1.631-6.123,1.631c0,0-1.914.626-2.139-1.172Z" fill="none" stroke="#231f20" stroke-linecap="round" stroke-linejoin="round" stroke-width=".5"/><polyline points="162.82 173.732 166.338 173.867 167.793 173.457 168.796 169.449 169.561 169.479" fill="none" stroke="#231f20" stroke-linecap="round" stroke-linejoin="round" stroke-width=".5"/><polyline points="163.84 162.021 163.493 146.135 149.115 144.957 148.348 145.55 148.319 159.088" fill="none" stroke="#231f20" stroke-linecap="round" stroke-linejoin="round" stroke-width=".5"/><path d="M160.86,160.817s-.207-10.357-.204-11.524-1.45-1.379-1.45-1.379c0,0-3.747-.378-4.589-.41s-1.225.342-1.225.342l-2.684,3.087.283,10.282,2.061,1.869" fill="none" stroke="#231f20" stroke-linecap="round" stroke-linejoin="round" stroke-width=".5"/><line x1="165.933" y1="162.521" x2="166.274" y2="173.733" fill="none" stroke="#231f20" stroke-linecap="round" stroke-linejoin="round" stroke-width=".5"/><polyline points="163.872 157.058 164.652 156.25 168.667 156.705 168.364 157.216 167.369 157.333 166.21 162.502 162.696 162.103" fill="none" stroke="#231f20" stroke-linecap="round" stroke-linejoin="round" stroke-width=".5"/><polyline points="169.868 174.532 168.987 145.304 150.035 143.732 149.152 142.677 125.122 140.789 123.88 141.582 124.032 153.061" fill="none" stroke="#231f20" stroke-linecap="round" stroke-linejoin="round" stroke-width=".5"/><line x1="147.349" y1="171.955" x2="153.298" y2="169.941" fill="none" stroke="#231f20" stroke-linecap="round" stroke-linejoin="round" stroke-width=".5"/><line x1="150.423" y1="168.157" x2="153.064" y2="167.352" fill="none" stroke="#231f20" stroke-linecap="round" stroke-linejoin="round" stroke-width=".5"/><path d="M130.873,163.568c-.896-2.083.116-4.74.116-4.74,0,0,.842,2.836,2.272,3.376" fill="none" stroke="#231f20" stroke-linecap="round" stroke-linejoin="round" stroke-width=".5"/><ellipse cx="166.432" cy="152.064" rx="1.896" ry="2.362" transform="translate(-18.841 23.624) rotate(-7.685)" fill="none" stroke="#231f20" stroke-linecap="round" stroke-linejoin="round" stroke-width=".5"/><ellipse cx="145.935" cy="145.472" rx="1.584" ry="1.973" transform="translate(-18.144 20.823) rotate(-7.685)" fill="none" stroke="#231f20" stroke-linecap="round" stroke-linejoin="round" stroke-width=".5"/><line x1="145.964" y1="144.287" x2="145.959" y2="146.589" fill="none" stroke="#231f20" stroke-linecap="round" stroke-linejoin="round" stroke-width=".5"/><line x1="145.014" y1="145.401" x2="146.856" y2="145.473" fill="none" stroke="#231f20" stroke-linecap="round" stroke-linejoin="round" stroke-width=".5"/><ellipse cx="126.458" cy="144.046" rx="1.584" ry="1.973" transform="translate(-18.128 18.206) rotate(-7.685)" fill="none" stroke="#231f20" stroke-linecap="round" stroke-linejoin="round" stroke-width=".5"/><line x1="126.487" y1="142.861" x2="126.482" y2="145.164" fill="none" stroke="#231f20" stroke-linecap="round" stroke-linejoin="round" stroke-width=".5"/><line x1="125.537" y1="143.976" x2="127.379" y2="144.047" fill="none" stroke="#231f20" stroke-linecap="round" stroke-linejoin="round" stroke-width=".5"/><path d="M162.119,162.739l-5.959,1.401s-.973-.038-.919,1.13.46,10.521.46,10.521" fill="none" stroke="#231f20" stroke-linecap="round" stroke-linejoin="round" stroke-width=".5"/><path d="M157.532,165.183s-1.728,4.477.44,8.289" fill="none" stroke="#231f20" stroke-linecap="round" stroke-linejoin="round" stroke-width=".5"/><path d="M159.251,164.784s-1.728,4.477.44,8.289" fill="none" stroke="#231f20" stroke-linecap="round" stroke-linejoin="round" stroke-width=".5"/><path d="M160.97,164.384s-1.728,4.477.44,8.289" fill="none" stroke="#231f20" stroke-linecap="round" stroke-linejoin="round" stroke-width=".5"/><ellipse cx="126.044" cy="154.974" rx=".597" ry=".771" transform="translate(-7.972 6.84) rotate(-3.013)" fill="none" stroke="#231f20" stroke-linecap="round" stroke-linejoin="round" stroke-width=".5"/><line x1="109.795" y1="150.689" x2="113.296" y2="149.803" fill="none" stroke="#231f20" stroke-linecap="round" stroke-linejoin="round" stroke-width=".5"/><path d="M109.495,151.975l-1.575-.061c-.296-.011-.537-.267-.537-.568v-.255c.001-.301.244-.538.539-.526l1.575.061c.296.011.537.267.537.568v.255c-.001.301-.244.538-.539.526Z" fill="none" stroke="#231f20" stroke-linecap="round" stroke-linejoin="round" stroke-width=".5"/><line x1="107.82" y1="150.571" x2="113.262" y2="149.206" fill="none" stroke="#231f20" stroke-linecap="round" stroke-linejoin="round" stroke-width=".5"/><line x1="109.643" y1="151.96" x2="113.077" y2="151.128" fill="none" stroke="#231f20" stroke-linecap="round" stroke-linejoin="round" stroke-width=".5"/><line x1="157.059" y1="155.876" x2="160.561" y2="154.99" fill="none" stroke="#231f20" stroke-linecap="round" stroke-linejoin="round" stroke-width=".5"/><path d="M156.759,157.162l-1.575-.061c-.296-.011-.537-.267-.537-.568v-.255c.001-.301.244-.538.539-.526l1.575.061c.296.011.537.267.537.568v.255c-.001.301-.244.538-.539.526Z" fill="none" stroke="#231f20" stroke-linecap="round" stroke-linejoin="round" stroke-width=".5"/><line x1="155.084" y1="155.759" x2="160.526" y2="154.393" fill="none" stroke="#231f20" stroke-linecap="round" stroke-linejoin="round" stroke-width=".5"/><line x1="156.908" y1="157.147" x2="160.341" y2="156.315" fill="none" stroke="#231f20" stroke-linecap="round" stroke-linejoin="round" stroke-width=".5"/><line x1="159.027" y1="150.977" x2="160.69" y2="150.556" fill="none" stroke="#231f20" stroke-linecap="round" stroke-linejoin="round" stroke-width=".5"/><path d="M158.727,152.263l-1.575-.061c-.296-.011-.537-.267-.537-.568v-.255c.001-.301.244-.538.539-.526l1.575.061c.296.011.537.267.537.568v.255c-.001.301-.244.538-.539.526Z" fill="none" stroke="#231f20" stroke-linecap="round" stroke-linejoin="round" stroke-width=".5"/><line x1="157.053" y1="150.859" x2="160.591" y2="149.971" fill="none" stroke="#231f20" stroke-linecap="round" stroke-linejoin="round" stroke-width=".5"/><line x1="158.876" y1="152.248" x2="160.559" y2="151.84" fill="none" stroke="#231f20" stroke-linecap="round" stroke-linejoin="round" stroke-width=".5"/><line x1="159.006" y1="160.762" x2="160.779" y2="160.314" fill="none" stroke="#231f20" stroke-linecap="round" stroke-linejoin="round" stroke-width=".5"/><path d="M159.245,161.267c0-.301-.241-.556-.537-.568l-1.575-.061c-.296-.011-.538.225-.539.526v.255s-.033.481-.033.481" fill="none" stroke="#231f20" stroke-linecap="round" stroke-linejoin="round" stroke-width=".5"/><line x1="157.031" y1="160.645" x2="160.807" y2="159.697" fill="none" stroke="#231f20" stroke-linecap="round" stroke-linejoin="round" stroke-width=".5"/><line x1="111.537" y1="145.985" x2="113.242" y2="145.553" fill="none" stroke="#231f20" stroke-linecap="round" stroke-linejoin="round" stroke-width=".5"/><path d="M111.237,147.271l-1.575-.061c-.296-.011-.537-.267-.537-.568v-.255c.001-.301.244-.538.539-.526l1.575.061c.296.011.537.267.537.568v.255c-.001.301-.244.538-.539.526Z" fill="none" stroke="#231f20" stroke-linecap="round" stroke-linejoin="round" stroke-width=".5"/><line x1="109.562" y1="145.867" x2="113.264" y2="144.938" fill="none" stroke="#231f20" stroke-linecap="round" stroke-linejoin="round" stroke-width=".5"/><line x1="111.386" y1="147.256" x2="113.285" y2="146.796" fill="none" stroke="#231f20" stroke-linecap="round" stroke-linejoin="round" stroke-width=".5"/><line x1="111.516" y1="155.388" x2="113.41" y2="154.909" fill="none" stroke="#231f20" stroke-linecap="round" stroke-linejoin="round" stroke-width=".5"/><path d="M111.756,155.893c0-.301-.241-.556-.537-.568l-1.575-.061c-.296-.011-.538.225-.539.526v.255s.029.485.029.485" fill="none" stroke="#231f20" stroke-linecap="round" stroke-linejoin="round" stroke-width=".5"/><line x1="109.541" y1="155.27" x2="113.377" y2="154.308" fill="none" stroke="#231f20" stroke-linecap="round" stroke-linejoin="round" stroke-width=".5"/><path d="M96.467,153.87l-.93,2.66-2.16,1.359,2.893,1.679s2.155,1.274,3.582-3.122" fill="none" stroke="#231f20" stroke-linecap="round" stroke-linejoin="round" stroke-width=".5"/><path d="M90.602,158.159l1.479.371s2.521,2.731,5.851,2.107" fill="none" stroke="#231f20" stroke-linecap="round" stroke-linejoin="round" stroke-width=".5"/><polyline points="93.613 162.513 97.68 162.983 98.119 159.452 98.922 159.107 100.462 159.291" fill="none" stroke="#231f20" stroke-linecap="round" stroke-linejoin="round" stroke-width=".5"/><line x1="93.978" y1="164.873" x2="99.154" y2="165.449" fill="none" stroke="#231f20" stroke-linecap="round" stroke-linejoin="round" stroke-width=".5"/><polyline points="139.454 167.893 143.945 168.219 144.778 164.063 147.148 164.158" fill="none" stroke="#231f20" stroke-linecap="round" stroke-linejoin="round" stroke-width=".5"/><line x1="140.115" y1="170.623" x2="145.718" y2="171.098" fill="none" stroke="#231f20" stroke-linecap="round" stroke-linejoin="round" stroke-width=".5"/><line x1="145.334" y1="164.082" x2="145.595" y2="161.212" fill="none" stroke="#231f20" stroke-linecap="round" stroke-linejoin="round" stroke-width=".5"/><path d="M136.492,163.618l1.105.043,3.893,2.28s1.453.648,2.792.167" fill="none" stroke="#231f20" stroke-linecap="round" stroke-linejoin="round" stroke-width=".5"/><path d="M145.572,161.721c-.249,1.414-1.834,3.538-3.324,3.168l-2.846-1.691s3.471-2.923,3.009-4.361" fill="none" stroke="#231f20" stroke-linecap="round" stroke-linejoin="round" stroke-width=".5"/><polyline points="368.126 144.154 366.25 168.55 378.834 169.764 381.152 144.375 377.399 144.154" fill="none" stroke="#231f20" stroke-linecap="round" stroke-linejoin="round" stroke-width=".5"/><line x1="107.219" y1="169.363" x2="95.553" y2="167.974" fill="none" stroke="#231f20" stroke-linecap="round" stroke-linejoin="round" stroke-width=".5"/><line x1="130.624" y1="172.151" x2="108.432" y2="169.529" fill="none" stroke="#231f20" stroke-linecap="round" stroke-linejoin="round" stroke-width=".5"/><line x1="153.59" y1="174.886" x2="143.187" y2="173.647" fill="none" stroke="#231f20" stroke-linecap="round" stroke-linejoin="round" stroke-width=".5"/><path d="M377.641,132.196l4.872.271,1.014-9.497-7.232,83.222-8.389-.993s-4.199,1.054-5.811-2.572c0,0-3.425,2.216-6.044-.604s-8.462-4.029-8.462-4.029l-189.746-22.6" fill="none" stroke="#231f20" stroke-linecap="round" stroke-linejoin="round" stroke-width=".5"/><line x1="65.205" y1="126.668" x2="66.103" y2="167.031" fill="none" stroke="#231f20" stroke-linecap="round" stroke-linejoin="round" stroke-width=".5"/></g><g id="h"><path d="M35.779,19.002c0,7.593-6.246,13.745-13.95,13.745s-13.953-6.152-13.953-13.745,6.246-13.755,13.953-13.755,13.95,6.159,13.95,13.755" fill="#231f20" stroke="#fff" stroke-miterlimit="10" stroke-width="1.5"/><path d="M23.425,26.044h-1.846v-11.761c-.444.424-1.027.848-1.749,1.271s-1.369.742-1.943.954v-1.784c1.032-.485,1.935-1.073,2.707-1.764s1.319-1.36,1.641-2.01h1.189v15.094Z" fill="#fff" stroke-width="0"/><polygon points="11.003 46.568 21.408 62.172 32.603 46.568 27.447 46.378 27.503 34.502 15.553 34.502 15.702 46.568 11.003 46.568" fill="#fff" stroke="#fff"/><polygon points="12.303 46.794 20.974 59.797 30.387 46.713 26.007 46.635 26.053 35.877 17.054 35.877 16.844 46.794 12.303 46.794" fill="#000" stroke-width="0"/><path d="M393.808,19.002c0,7.593-6.246,13.745-13.95,13.745s-13.953-6.152-13.953-13.745,6.246-13.755,13.953-13.755,13.95,6.159,13.95,13.755" fill="#231f20" stroke="#fff" stroke-miterlimit="10" stroke-width="1.5"/><path d="M381.454,26.044h-1.846v-11.761c-.444.424-1.027.848-1.748,1.271-.722.424-1.369.742-1.943.954v-1.784c1.032-.485,1.935-1.073,2.707-1.764s1.319-1.36,1.641-2.01h1.189v15.094Z" fill="#fff" stroke-width="0"/><polygon points="369.032 46.568 379.437 62.172 390.632 46.568 385.476 46.378 385.532 34.502 373.582 34.502 373.731 46.568 369.032 46.568" fill="#fff" stroke="#fff"/><polygon points="370.332 46.794 379.003 59.797 388.416 46.713 384.036 46.635 384.082 35.877 375.083 35.877 374.873 46.794 370.332 46.794" fill="#000" stroke-width="0"/><path d="M201.329,52.923c0,7.593-6.246,13.745-13.95,13.745s-13.953-6.152-13.953-13.745,6.246-13.755,13.953-13.755,13.95,6.159,13.95,13.755" fill="#231f20" stroke="#fff" stroke-miterlimit="10" stroke-width="1.5"/><path d="M192.394,58.19v1.774h-9.937c-.014-.444.059-.872.216-1.282.253-.677.657-1.343,1.215-2,.557-.656,1.362-1.415,2.415-2.276,1.634-1.34,2.737-2.401,3.312-3.184s.861-1.523.861-2.22c0-.731-.262-1.348-.784-1.851-.523-.502-1.205-.753-2.046-.753-.889,0-1.6.267-2.133.8s-.803,1.271-.81,2.215l-1.897-.195c.13-1.415.619-2.493,1.467-3.235.848-.741,1.985-1.112,3.414-1.112,1.442,0,2.584.4,3.425,1.2s1.262,1.791,1.262,2.974c0,.602-.123,1.193-.369,1.774s-.655,1.193-1.226,1.835c-.571.643-1.52,1.524-2.846,2.646-1.107.93-1.818,1.561-2.133,1.892s-.574.665-.779,1h7.373Z" fill="#fff" stroke-width="0"/><polyline points="149.1 95.454 184.179 85.178 174.505 84.423 193.186 71.321 175.786 69.961 157.106 83.059 147.445 82.307 149.1 95.454" fill="#000" stroke="#fff"/><polyline points="149.1 95.454 184.179 85.178 174.505 84.423 193.186 71.321 175.786 69.961 157.106 83.059 147.445 82.307 149.1 95.454" fill="#000" stroke="#fff"/></g></svg>