<?xml version="1.0" encoding="UTF-8"?><svg id="a" xmlns="http://www.w3.org/2000/svg" width="4.75in" height="3.25in" xmlns:xlink="http://www.w3.org/1999/xlink" viewBox="0 0 342 234"><defs><clipPath id="b"><rect x="11.988" y="3.805" width="322.955" height="232.206" fill="none" stroke-width="0"/></clipPath></defs><path d="M52.827,79.076l49.91-21.428,55.233,5.856,49.287,5.613-3.511,2.614,1.592,66.619-28.421,25.238s-2.16,2.615-8.299,1.364-24.442-3.865-24.442-3.865l-5.912,4.32s-2.046,2.501-5.684,2.046c0,0-4.201-.591-3.802-5.043l-.4-4.566-9.531-1.655s-2.683,1.256-4.166-.171c0,0-1.963,2.622-3.775,3.025l-6.845,1.611-52.877-8.593s-4.998-1.663-5.081-7.744l.333-6.081-13.227-1.715-2.817-12.737s-.922-2.809,2.288-4.367l6.232-3.871,2.927.047.991.425,3.493-2.03,1.888-.142,1.983-1.322s.905-3.94,2.712-5.408l-2.484-24.954s-.495-2.221,2.406-3.087Z" fill="#d2d3d4" stroke-width="0"/><path d="M129.317,131.804l18.312-11.978s6.058-.826,6.058,2.891l1.515,24.645s.688,4.819-2.203,6.884l-15.696,11.841s-7,3.937-8.526-3.676l-1.801-22.759s-1.239-7.435,2.341-7.848Z" fill="#8ab9e3" stroke-width="0"/><g clip-path="url(#b)"><path d="M36.783,206.681l-1.295.078-2.536-.321-.925-.896-5.763-34.762c-.359-3.288,3.527-2.65,3.527-2.65l9.33-5.661.151-.046.117.031,6.659,1.626.123.031.108.071.084.057.147.26,5.898,33.943s.437,1.235-.566,1.955-15.058,6.284-15.058,6.284Z" fill="none" stroke="#231f20" stroke-linecap="round" stroke-linejoin="round" stroke-width=".5"/><path d="M32.084,133.336l-7.211,1.583-3.25-.273-1.007-1.14-6.053-39.442,13.137-5.157.163-.02.119.04,6.981,1.371s.394.081.485.461l3.913,24.488" fill="none" stroke="#231f20" stroke-linecap="round" stroke-linejoin="round" stroke-width=".5"/><path d="M83.632,64.496l-42.907,18.678s-2.133.95-2.579,3.091" fill="none" stroke="#231f20" stroke-linecap="round" stroke-linejoin="round" stroke-width=".5"/><path d="M30.446,88.893l.823-.73c2.999-1.899,6.642-1.492,6.642-1.492l1.607-.454,9.866-4.58.109-.043.179-.046.093.018.785.086" fill="none" stroke="#231f20" stroke-linecap="round" stroke-linejoin="round" stroke-width=".5"/><path d="M53.285,153.676l-2.513,1.534s-2.647,1.642-2.87,4.011" fill="none" stroke="#231f20" stroke-linecap="round" stroke-linejoin="round" stroke-width=".5"/><path d="M53.126,199.696l4.441.651,3.375.474,5.507-3.908s3.983,7.29-2.367,10.909c0,0-2.527.888-4.097-.956" fill="none" stroke="#231f20" stroke-linecap="round" stroke-linejoin="round" stroke-width=".5"/><ellipse cx="55.488" cy="205.314" rx="2.633" ry="3.303" transform="translate(-147.75 142.648) rotate(-57.74)" fill="none" stroke="#231f20" stroke-linecap="round" stroke-linejoin="round" stroke-width=".5"/><line x1="58.142" y1="207.617" x2="64.834" y2="202.7" fill="none" stroke="#231f20" stroke-linecap="round" stroke-linejoin="round" stroke-width=".5"/><line x1="52.908" y1="203.188" x2="57.254" y2="200.31" fill="none" stroke="#231f20" stroke-linecap="round" stroke-linejoin="round" stroke-width=".5"/><line x1="64.769" y1="207.657" x2="94.414" y2="186.176" fill="none" stroke="#231f20" stroke-linecap="round" stroke-linejoin="round" stroke-width=".5"/><path d="M105.782,135c.171.593.481,1.336,1.001,1.602l-.302,5.418-.012.205" fill="none" stroke="#fff" stroke-linecap="round" stroke-linejoin="round" stroke-width="2"/><path d="M105.782,135c.171.593.481,1.336,1.001,1.602l-.302,5.418-.012.205" fill="none" stroke="#231f20" stroke-dasharray="0 1.366" stroke-linecap="round" stroke-linejoin="round"/><path d="M108.427,142.519l.04-.71.277-4.919s.026-1.934-1.182-2.426l.113-1.379" fill="none" stroke="#fff" stroke-linecap="round" stroke-linejoin="round" stroke-width="2"/><path d="M108.427,142.519l.04-.71.277-4.919s.026-1.934-1.182-2.426l.113-1.379" fill="none" stroke="#231f20" stroke-dasharray="0 1.366" stroke-linecap="round" stroke-linejoin="round"/><polyline points="103.873 175.912 98.776 177.661 97.158 177.349" fill="none" stroke="#231f20" stroke-linecap="round" stroke-linejoin="round" stroke-width=".5"/><path d="M98.348,160.704l-.203.631-.182,1.479-.186,4.184.889.968-.139,3.099s-.869.595-1.162,1.641l-.193,4.342-.002.035v.004l-.012.262" fill="none" stroke="#231f20" stroke-linecap="round" stroke-linejoin="round" stroke-width=".5"/><path d="M98.984,173.013l.715-.236h.004s4.382-1.448,4.382-1.448c0,0,1.101-.489,1.155-1.621l.143-3.06.982-1.818.179-3.826" fill="none" stroke="#231f20" stroke-linecap="round" stroke-linejoin="round" stroke-width=".5"/><polyline points="154.142 185.488 149.617 187.439 147.885 187.105" fill="none" stroke="#231f20" stroke-linecap="round" stroke-linejoin="round" stroke-width=".5"/><line x1="153.401" y1="178.67" x2="148.859" y2="180.522" fill="none" stroke="#231f20" stroke-linecap="round" stroke-linejoin="round" stroke-width=".5"/><polyline points="153.401 178.67 153.815 179.099 154.24 179.731 154.435 180.616 154.431 180.76 154.153 185.313 154.142 185.488" fill="none" stroke="#231f20" stroke-linecap="round" stroke-linejoin="round" stroke-width=".5"/><path d="M147.885,187.105l.284-4.79c-.685-.555-1.042-2.119-1.042-2.119l.188-3.194-.768-.972.253-4.313s.705-6.673,4.222-7.252" fill="none" stroke="#231f20" stroke-linecap="round" stroke-linejoin="round" stroke-width=".5"/><path d="M98.776,177.661l.039-.876.169-3.772.427-.264.458-.456.27-.782.011-.141.141-3.102-.885-.968.246-4.887s.122-.62.391-1.465" fill="none" stroke="#231f20" stroke-linecap="round" stroke-linejoin="round" stroke-width=".5"/><path d="M147.249,186.983c-1.556.63-1.649,1.64-1.649,1.64l-.428,7.064-.552,1.161-44.544-8.236s-1.967-.513-1.882-2.823.257-5.731.257-5.731" fill="none" stroke="#231f20" stroke-linecap="round" stroke-linejoin="round" stroke-width=".5"/><polyline points="148.542 172.035 148.286 176.352 149.049 177.325 148.859 180.522 149.279 180.957 149.627 181.434 149.84 181.976 149.903 182.644 149.683 186.337 149.617 187.439" fill="none" stroke="#231f20" stroke-linecap="round" stroke-linejoin="round" stroke-width=".5"/><path d="M154.153,185.313l.654.124s1.177.126,1.312,1.728l-.551,8.9s.164,2.672-2.703,4.099l-4.938,2.357c-1.622.663-2.763.32-2.763.32l-45.459-9.231c-5.23-1.35-5.149-7.032-5.149-7.032l.35-7.608s-.027-1.23,1.692-1.727l.573-.193" fill="none" stroke="#231f20" stroke-linecap="round" stroke-linejoin="round" stroke-width=".5"/><path d="M103.881,175.743l.687.13s1.38-.246,1.279,1.518l-.295,6.754s-.277,1.753,1.287,1.968l38.057,7.477" fill="none" stroke="#231f20" stroke-linecap="round" stroke-linejoin="round" stroke-width=".5"/><path d="M167.915,95.912l2.35.272s1.786.484,1.85,2.104l.573,17.618-3.818.749-9.832-1.327" fill="none" stroke="#231f20" stroke-linecap="round" stroke-linejoin="round" stroke-width=".5"/><path d="M154.44,94.356c.807-.947,2.662-.696,2.662-.696l8.853,1.021s3.059,1.364,2.712,6.338" fill="none" stroke="#231f20" stroke-linecap="round" stroke-linejoin="round" stroke-width=".5"/><path d="M144.532,160.979l26.077,4.229s3.085,1.126,6.648-2.042,29.697-26.133,29.697-26.133" fill="none" stroke="#231f20" stroke-linecap="round" stroke-linejoin="round" stroke-width=".5"/><path d="M52.751,105.677s-1.879-20.478-2.227-23.257c-.371-2.961,2.945-3.547,2.945-3.547l60.625,7.008s4.084.498,4.645,3.04" fill="none" stroke="#231f20" stroke-linecap="round" stroke-linejoin="round" stroke-width=".5"/><line x1="156.42" y1="151.404" x2="139.954" y2="164.425" fill="none" stroke="#231f20" stroke-linecap="round" stroke-linejoin="round" stroke-width=".5"/><path d="M153.596,122.031l.14.623.048.214.023.109,1.282,27.972.013.281-.013.103-.232,1.073-.049.111-.373.6-17.552,13.356c-1.936,1.455-5.212.652-5.212.652-2.723-.797-2.897-3.709-2.897-3.709l-1.764-27.356s-.305-2.541,1.796-4.135l18.251-11.871.47-.229.011-.006.247-.086.968-.113.256-.053,1.891.237,1.119.361.909.709.63.969.126.198,11.498,1.573,8.536-6.24,1.382,28.316-7.854,6.301c-.924.704-2.28.36-2.28.36l-9.794-1.392-.08-.011-.115-.016" fill="none" stroke="#231f20" stroke-linecap="round" stroke-linejoin="round" stroke-width=".5"/><polyline points="126.567 139.421 122.805 135.174 122.525 134.785 122.324 134.326 122.235 133.851 120.636 109.565 120.659 109.114 120.799 108.684 121.046 108.331 128.049 101.107 128.373 100.862 128.782 100.72 129.23 100.709 136.032 101.535 142.89 102.367 144.439 102.859 144.793 102.972 146.308 104.075 147.493 105.59 147.64 105.928 148.143 107.077 148.415 108.631" fill="none" stroke="#231f20" stroke-linecap="round" stroke-linejoin="round" stroke-width=".5"/><polyline points="148.415 108.631 148.441 109.171 148.574 111.956 148.615 112.797 148.783 116.303 148.932 119.435" fill="none" stroke="#231f20" stroke-linecap="round" stroke-linejoin="round" stroke-width=".5"/><polyline points="157.434 151.203 157.517 153.1 157.512 153.333 157.377 153.872 157.076 154.307" fill="none" stroke="#231f20" stroke-linecap="round" stroke-linejoin="round" stroke-width=".5"/><path d="M156.037,121.149l-.103-4.521-.767-17.672-.089-.536-.216-.514-.323-.451-.412-.363-.913-.355-33.634-3.946-3.658-.43-1.577-.185-.69.077-.556.381-.281.471-.116.573.003.245.139,1.98.269,3.834.005.078,3.681,46.7s-.033,1.82,1.846,2.081l9.041,1.367" fill="none" stroke="#231f20" stroke-linecap="round" stroke-linejoin="round" stroke-width=".5"/><path d="M153.053,154.289l2.744.398s.636.191,1.279-.38l3.014-2.533" fill="none" stroke="#231f20" stroke-linecap="round" stroke-linejoin="round" stroke-width=".5"/><path d="M113.654,92.255l3.54-1.785,38.219,4.717c1.659.356,1.935,2.198,1.935,2.198l1.17,24.013" fill="none" stroke="#231f20" stroke-linecap="round" stroke-linejoin="round" stroke-width=".5"/><path d="M151.146,127.494s-4.511,14.979,1.685,22.841" fill="none" stroke="#231f20" stroke-linecap="round" stroke-linejoin="round" stroke-width=".5"/><path d="M144.064,131.97s-5.227,17.142,1.478,23.316" fill="none" stroke="#231f20" stroke-linecap="round" stroke-linejoin="round" stroke-width=".5"/><path d="M139.101,135.593s-5.543,11.301,1.689,23.877" fill="none" stroke="#231f20" stroke-linecap="round" stroke-linejoin="round" stroke-width=".5"/><line x1="67.591" y1="199.593" x2="94.31" y2="179.988" fill="none" stroke="#231f20" stroke-linecap="round" stroke-linejoin="round" stroke-width=".5"/><path d="M185.747,202.169l19.891,3.847s1.349.205,1.315-1.031l-.463-14.177" fill="none" stroke="#231f20" stroke-linecap="round" stroke-linejoin="round" stroke-width=".5"/><path d="M153.096,162.256c-3.203,2.783-3.899,8.307-3.899,8.307l.36,5.141s1.405,4.293,5.374,1.72l.828-.627" fill="none" stroke="#231f20" stroke-linecap="round" stroke-linejoin="round" stroke-width=".5"/><line x1="156.942" y1="196.376" x2="168.571" y2="198.715" fill="none" stroke="#231f20" stroke-linecap="round" stroke-linejoin="round" stroke-width=".5"/><line x1="169.441" y1="170.222" x2="169.456" y2="170.209" fill="none" stroke="#231f20" stroke-linecap="round" stroke-linejoin="round" stroke-width=".5"/><line x1="168.729" y1="169.941" x2="168.727" y2="169.943" fill="none" stroke="#231f20" stroke-linecap="round" stroke-linejoin="round" stroke-width=".5"/><polyline points="184.517 162.506 175.515 170.175 174.604 170.994 172.01 170.681 169.441 170.222 168.84 170.115 168.729 169.947 168.729 169.941 168.552 166.986 169.876 165.753" fill="none" stroke="#231f20" stroke-linecap="round" stroke-linejoin="round" stroke-width=".5"/><path d="M160.837,163.601l.972,15.389s-.041.712.493,1.112l5.864,6.489" fill="none" stroke="#231f20" stroke-linecap="round" stroke-linejoin="round" stroke-width=".5"/><polyline points="168.796 169.373 171.967 169.937 174.439 168.025 184.771 159.274" fill="none" stroke="#231f20" stroke-linecap="round" stroke-linejoin="round" stroke-width=".5"/><path d="M154.892,162.634l1.805,26.838s.26,1.482,1.606,1.793l10.238,1.984" fill="none" stroke="#231f20" stroke-linecap="round" stroke-linejoin="round" stroke-width=".5"/><line x1="228.321" y1="149.294" x2="539.129" y2="196.873" fill="none" stroke="#231f20" stroke-linecap="round" stroke-linejoin="round" stroke-width=".5"/><path d="M193.007,165.417l8.267,1.287s2.236.068,2.846-.61l2.456-.608.5,23.098-5.599,6.309c-.684.746-1.855.395-1.855.395l-7.972-1.524-.091-.017-.094-.018" fill="none" stroke="#231f20" stroke-linecap="round" stroke-linejoin="round" stroke-width=".5"/><path d="M190.804,171.686l.756,22.061.014.308-.01.113-.19.882-.346.55-5.908,6.113-3.744,3.874-3.438,3.556-1.022,1.058c-2.038,1.539-4.247.579-4.247.579-2.369-.961-2.353-3.08-2.353-3.08l-1.355-21.718s-.121-1.974,1.453-3.567l13.858-12.753s4.173-1.478,5.414,1.671l9.233,1.417,6.221-6.052" fill="none" stroke="#231f20" stroke-linecap="round" stroke-linejoin="round" stroke-width=".5"/><path d="M178.65,184.971s-4.258,16.3,1.825,18.733" fill="none" stroke="#231f20" stroke-linecap="round" stroke-linejoin="round" stroke-width=".5"/><path d="M182.969,180.957s-4.927,17.517,1.46,18.794" fill="none" stroke="#231f20" stroke-linecap="round" stroke-linejoin="round" stroke-width=".5"/><path d="M186.983,177.186s-4.622,18.368,1.216,18.49" fill="none" stroke="#231f20" stroke-linecap="round" stroke-linejoin="round" stroke-width=".5"/><polyline points="81.743 63.463 80.775 55.441 537.805 104.093" fill="none" stroke="#231f20" stroke-linecap="round" stroke-linejoin="round" stroke-width=".5"/><polyline points="80.868 55.155 263.982 -18.109 539.443 -.893" fill="none" stroke="#231f20" stroke-linecap="round" stroke-linejoin="round" stroke-width=".5"/><polyline points="539.183 110.166 203.47 71.216 207.742 68.958" fill="none" stroke="#231f20" stroke-linecap="round" stroke-linejoin="round" stroke-width=".5"/><path d="M151.58,122.444l-16.582,10.843s-2.114,1.162-1.995,5.301c.125,4.337,1.995,24.578,1.995,24.578" fill="none" stroke="#231f20" stroke-linecap="round" stroke-linejoin="round" stroke-width=".5"/><path d="M188.826,172.192l-12.646,11.695s-1.936,1.207-1.855,4.73c.087,3.806,1.309,19.154,1.309,19.154" fill="none" stroke="#231f20" stroke-linecap="round" stroke-linejoin="round" stroke-width=".5"/><path d="M227.573,171.884l.061,17.792c.02.621-.631.495-.631.495l-16.007-3.321c-.503-.253-.645-.723-.645-.723l-.313-17.6s.033-1.206.945-1.043,15.058,2.444,15.058,2.444c0,0,1.662.391,1.532,1.956Z" fill="none" stroke="#231f20" stroke-linecap="round" stroke-linejoin="round" stroke-width=".5"/><path d="M225.204,129.048l.222,18.074c.02.621-.631.495-.631.495l-15.285-2.576c-.503-.253-.645-.723-.645-.723l-.805-17.942s.08-1.126.945-1.043c.923.089,14.667,1.759,14.667,1.759,0,0,1.662.391,1.532,1.956Z" fill="none" stroke="#231f20" stroke-linecap="round" stroke-linejoin="round" stroke-width=".5"/><path d="M228.027,199.375l.061,17.792c.02.621-.631.495-.631.495l-16.007-3.321c-.503-.253-.645-.723-.645-.723l-.313-17.6s.033-1.206.945-1.043,15.058,2.444,15.058,2.444c0,0,1.662.391,1.532,1.956Z" fill="none" stroke="#231f20" stroke-linecap="round" stroke-linejoin="round" stroke-width=".5"/><path d="M230.719,182.919l1.488-.518.848-.6,2.511-3.918c.529-.92.519-2.125.519-2.125l-.083-10.906s.239-1.741-.644-1.407c0,0-4.055,2.529-5.009,3.817l-.931,1.136" fill="none" stroke="#231f20" stroke-linecap="round" stroke-linejoin="round" stroke-width=".5"/><path d="M230.108,188.904l7.383-11.594-.051-15.412s-.005-1.871-1.409-2.126-4.882-.67-4.882-.67c0,0-.798-.128-1.372.287s-5.712,3.829-5.712,3.829c0,0-2.457,2.712-14.295,1.978l-1.202,1.276.378,20.315s.026,1.323,1.561,1.762l17.111,3.24s2.04.269,2.237-2.206l-.138-19.656s-.122-1.954-1.621-2.117l3.618-3.52s3.911-3.031,5.019-3.618" fill="none" stroke="#231f20" stroke-linecap="round" stroke-linejoin="round" stroke-width=".5"/><path d="M225.99,115.609l-.347-20.134c.022-.583-.646-.727-.646-.727l-16.192-1.972c-.397-.027-.462.365-.462.365l.466,20.039s.139.459.629.705l15.937,2.206s.636.122.616-.483Z" fill="none" stroke="#231f20" stroke-linecap="round" stroke-linejoin="round" stroke-width=".5"/><polyline points="229.564 195.654 231.808 193.319 235.938 190.465" fill="none" stroke="#231f20" stroke-linecap="round" stroke-linejoin="round" stroke-width=".5"/><path d="M230.472,211.071l1.451-.505.827-.585,2.449-3.821c.516-.897.506-2.072.506-2.072l-.119-12.353" fill="none" stroke="#231f20" stroke-linecap="round" stroke-linejoin="round" stroke-width=".5"/><path d="M232.356,186.713l4.152.867s.767.14.768.895l.144,16.988-2.519,4.126-3.616,5.557" fill="none" stroke="#231f20" stroke-linecap="round" stroke-linejoin="round" stroke-width=".5"/><path d="M228.492,195.94s1.293.539,1.291,1.659l.291,19.925c-.192,2.414-2.181,2.151-2.181,2.151l-16.802-3.341c-1.497-.428-1.522-1.718-1.522-1.718l-.006-.032-.588-19.294s.384-2.263,2.246-1.952l1.989.234,9.372-.921,1.208-.686" fill="none" stroke="#231f20" stroke-linecap="round" stroke-linejoin="round" stroke-width=".5"/><path d="M34.473,90.965l-1.896.517-12.524,2.866s-2.327.431-1.983,2.715,6.346,37.225,6.346,37.225" fill="none" stroke="#231f20" stroke-linecap="round" stroke-linejoin="round" stroke-width=".5"/><line x1="32.332" y1="96.671" x2="35.545" y2="117.306" fill="none" stroke="#231f20" stroke-linecap="round" stroke-linejoin="round" stroke-width=".5"/><line x1="29.911" y1="100.727" x2="32.738" y2="119.075" fill="none" stroke="#231f20" stroke-linecap="round" stroke-linejoin="round" stroke-width=".5"/><line x1="27.425" y1="104.718" x2="30.107" y2="121.727" fill="none" stroke="#231f20" stroke-linecap="round" stroke-linejoin="round" stroke-width=".5"/><line x1="25.266" y1="108.774" x2="26.836" y2="119.176" fill="none" stroke="#231f20" stroke-linecap="round" stroke-linejoin="round" stroke-width=".5"/><line x1="22.976" y1="112.241" x2="23.696" y2="116.69" fill="none" stroke="#231f20" stroke-linecap="round" stroke-linejoin="round" stroke-width=".5"/><path d="M50.817,86.606l-5.886,2.693s-3.324.162-2.919,3.405c.224,1.793,1.786,12.728,3.138,22.15" fill="none" stroke="#231f20" stroke-linecap="round" stroke-linejoin="round" stroke-width=".5"/><path d="M66.136,156.094l-10.463,6.801s-3.662.174-2.965,4.011,5.196,33.223,5.196,33.223" fill="none" stroke="#231f20" stroke-linecap="round" stroke-linejoin="round" stroke-width=".5"/><line x1="94.199" y1="169.785" x2="93.119" y2="159.929" fill="none" stroke="#231f20" stroke-linecap="round" stroke-linejoin="round" stroke-width=".5"/><path d="M68.099,125.981l3.325-2.029c-3.54-9.269-1.428-14.881-1.428-14.881l-7.7-5.864-1.056-2.711-3.912-2.837-2.173,1.702s-.124,3.342.31,4.855l2.103.356-.178.527" fill="none" stroke="#231f20" stroke-linecap="round" stroke-linejoin="round" stroke-width=".5"/><path d="M57.723,107.843l-.333-2.744s-4.285-.694-7.576,7.377" fill="none" stroke="#231f20" stroke-linecap="round" stroke-linejoin="round" stroke-width=".5"/><path d="M63.994,101.36s5.629-9.828,17.149-10.041c0,0,.526-3.579,1.368-5.128,0,0-.368-1.122-1.894-1.335s-11.362-1.175-11.362-1.175l-9.784,11.537s4.892,2.777,4.524,6.142Z" fill="none" stroke="#231f20" stroke-linecap="round" stroke-linejoin="round" stroke-width=".5"/><path d="M110.154,100.641l1.175,1.323s-.55,2.297-6.786,4.035c0,0-6.842-12.33-20.056-14.585,0,0-.668-3.417,1.166-5.775l12.166,1.117,4.198,4.726" fill="none" stroke="#231f20" stroke-linecap="round" stroke-linejoin="round" stroke-width=".5"/><path d="M70.995,106.635l-4.234-3.09s.14-3.503,5.816-6.785c5.704-3.299,8.528-2.434,8.62-2.22l.949,6.031s-6.408-.386-11.151,6.063Z" fill="none" stroke="#231f20" stroke-linecap="round" stroke-linejoin="round" stroke-width=".5"/><path d="M84.797,94.754s12.488,3.674,16.85,13.077c0,0-2.08,1.567-4.362,1.908,0,0-3.811-6.964-12.241-8.984,0,0-1.184-3.483-.246-6.001Z" fill="none" stroke="#231f20" stroke-linecap="round" stroke-linejoin="round" stroke-width=".5"/><path d="M101.165,124.531c.324-3.297.28-8.107-2.041-11.248,0,0,2.868-2.589,7.968-4.789,5.099-2.201,6.311-3.689,6.311-3.689" fill="none" stroke="#231f20" stroke-linecap="round" stroke-linejoin="round" stroke-width=".5"/><polyline points="148.574 111.956 143.305 111.32 131.138 119.043 131.28 121.467 134.195 121.81 137.358 120.138 148.615 112.797" fill="none" stroke="#231f20" stroke-linecap="round" stroke-linejoin="round" stroke-width=".5"/><polyline points="148.355 116.792 137.943 123.824 134.422 123.14 134.195 121.81" fill="none" stroke="#231f20" stroke-linecap="round" stroke-linejoin="round" stroke-width=".5"/><polyline points="131.28 121.467 131.479 122.692 134.422 123.14" fill="none" stroke="#231f20" stroke-linecap="round" stroke-linejoin="round" stroke-width=".5"/><polyline points="144.135 103.184 140.277 105.372 140.549 107.696 143.454 108.288 147.64 105.928" fill="none" stroke="#231f20" stroke-linecap="round" stroke-linejoin="round" stroke-width=".5"/><path d="M115.225,156.354s-1.961,6.774,1.604,12.568l-8.913,3.833s-2.139-.874-2.573-2.442" fill="none" stroke="#231f20" stroke-linecap="round" stroke-linejoin="round" stroke-width=".5"/><path d="M109.371,175.032s.571-1.61,3.427-1.298c0,0,4.829,9.086,16.303,12.513,0,0,.727,2.44,2.129,2.96l-10.644-1.661-11.215-12.513Z" fill="none" stroke="#231f20" stroke-linecap="round" stroke-linejoin="round" stroke-width=".5"/><path d="M146.858,181.107c-5.607,7.009-15.005,5.556-15.005,5.556,0,0,1.921,2.492,1.921,3.323,0,0,5.607,2.44,11.319,2.077" fill="none" stroke="#231f20" stroke-linecap="round" stroke-linejoin="round" stroke-width=".5"/><path d="M141.888,162.765c.814,2.222,2.102,6.412.626,11.239l4.45,3.108" fill="none" stroke="#231f20" stroke-linecap="round" stroke-linejoin="round" stroke-width=".5"/><line x1="103.873" y1="175.912" x2="103.906" y2="171.611" fill="none" stroke="#231f20" stroke-linecap="round" stroke-linejoin="round" stroke-width=".5"/><line x1="52.493" y1="164.036" x2="47.326" y2="162.989" fill="none" stroke="#231f20" stroke-linecap="round" stroke-linejoin="round" stroke-width=".5"/><line x1="41.321" y1="90.231" x2="35.805" y2="89.184" fill="none" stroke="#231f20" stroke-linecap="round" stroke-linejoin="round" stroke-width=".5"/><ellipse cx="153.351" cy="171.188" rx="3.474" ry="1.85" transform="translate(-32.863 305.896) rotate(-84.028)" fill="none" stroke="#231f20" stroke-linecap="round" stroke-linejoin="round" stroke-width=".5"/><path d="M131.242,179.818s6.106.273,9.704-4.007l4.389,2.971s-3.775,6.487-13.356,5.506c0,0-.968-2.78-.736-4.47Z" fill="none" stroke="#231f20" stroke-linecap="round" stroke-linejoin="round" stroke-width=".5"/><path d="M114.893,172.818s6.506,9.759,14.222,10.931c0,0-.34-2.648-.189-4.199,0,0-4.615-1.816-10.856-8.019l-3.177,1.286Z" fill="none" stroke="#231f20" stroke-linecap="round" stroke-linejoin="round" stroke-width=".5"/><path d="M104.771,161.488c-.011.252-.041.515-.092.784-.28,1.494-1.084,2.597-1.797,2.463s-1.062-1.453-.782-2.947c.035-.187.078-.367.128-.54" fill="none" stroke="#231f20" stroke-linecap="round" stroke-linejoin="round" stroke-width=".5"/><line x1="200.087" y1="172.951" x2="200.484" y2="193.503" fill="none" stroke="#231f20" stroke-linecap="round" stroke-linejoin="round" stroke-width=".5"/><line x1="165.774" y1="149.817" x2="164.723" y2="125.72" fill="none" stroke="#231f20" stroke-linecap="round" stroke-linejoin="round" stroke-width=".5"/><path d="M207.732,91.04l18.395,2.273.27.088.23.184.156.253.058.283.368,23.058c-.068.701-.679.602-.679.602l-18.085-2.511c-.712-.078-.708-1.231-.708-1.231l-.669-22.371s.041-.674.665-.629Z" fill="none" stroke="#231f20" stroke-linecap="round" stroke-linejoin="round" stroke-width=".5"/><path d="M229.012,111.401l.067,4.597s-1.004,1.409-2.147,1.694" fill="none" stroke="#231f20" stroke-linecap="round" stroke-linejoin="round" stroke-width=".5"/><path d="M228.484,92.767l.007-.006,1.608-1.263.439-.254,4.154-1.534.202.129.173.991.135,13.358s.151,1.539-.548,2.16l-2.655,3.41-2.81,1.184" fill="none" stroke="#231f20" stroke-linecap="round" stroke-linejoin="round" stroke-width=".5"/><path d="M229.012,111.401l-.261-17.849-1.016-1.646,2.609-2.728,6.476-2.093-.756-.614-6.101-.723-6.74,2.317-2.244,1.104-10.285.756-2.193-.171s-1.161.411-1.345,1.289" fill="none" stroke="#231f20" stroke-linecap="round" stroke-linejoin="round" stroke-width=".5"/><path d="M236.821,87.085l.357,19.393s-6.497,8.114-8.052,9.462" fill="none" stroke="#231f20" stroke-linecap="round" stroke-linejoin="round" stroke-width=".5"/><path d="M207.469,123.661l18.162,2.008.267.084.227.179.154.247.057.278.367,22.2c-.067.691-.67.601-.67.601l-17.489-3.037c-.703-.068-.7-1.204-.7-1.204l-1.031-20.728s.04-.664.656-.628Z" fill="none" stroke="#231f20" stroke-linecap="round" stroke-linejoin="round" stroke-width=".5"/><path d="M228.483,143.445l.067,4.024s-.887,1.626-2.014,1.921" fill="none" stroke="#231f20" stroke-linecap="round" stroke-linejoin="round" stroke-width=".5"/><path d="M227.959,125.101l.007-.006,1.588-1.264.434-.256,5.7-3.046.2.124.171.974.135,11.58s.15,1.514-.54,2.134l-2.621,3.391-4.16,3.776" fill="none" stroke="#231f20" stroke-linecap="round" stroke-linejoin="round" stroke-width=".5"/><path d="M226.256,118.296l-2.742,1.524-2.964,1.832-10.154.873-2.165-.141s-1.146.419-1.327,1.287" fill="none" stroke="#231f20" stroke-linecap="round" stroke-linejoin="round" stroke-width=".5"/><polyline points="228.483 143.445 228.223 125.871 227.219 124.263 229.795 121.544 237.073 117.276 236.327 116.681 230.304 116.045 229.419 116.537" fill="none" stroke="#231f20" stroke-linecap="round" stroke-linejoin="round" stroke-width=".5"/><path d="M237.429,117.328l.324,17.394s-3.032,5.779-8.993,12.397" fill="none" stroke="#231f20" stroke-linecap="round" stroke-linejoin="round" stroke-width=".5"/><line x1="234.587" y1="211.593" x2="359.9" y2="236.235" fill="none" stroke="#231f20" stroke-linecap="round" stroke-linejoin="round" stroke-width=".5"/><line x1="236.052" y1="208.988" x2="359.9" y2="233.342" fill="none" stroke="#231f20" stroke-linecap="round" stroke-linejoin="round" stroke-width=".5"/><polyline points="371.884 118.028 373.636 96.705 227.399 79.995 227.444 86.139" fill="none" stroke="#231f20" stroke-linecap="round" stroke-linejoin="round" stroke-width=".5"/><line x1="234.555" y1="110.431" x2="369.544" y2="127.794" fill="none" stroke="#231f20" stroke-linecap="round" stroke-linejoin="round" stroke-width=".5"/><path d="M232.642,112.683l133.356,17.35s4.026.704,4.345,3.869l2.92.438" fill="none" stroke="#231f20" stroke-linecap="round" stroke-linejoin="round" stroke-width=".5"/><path d="M382.033,204.156c1.913-1.251,2.06-3.237,2.06-3.237l.687-11.006c.438-4.18-1.641-6.46-4.54-7.76l-13.343-2.16-2.089-1.305,1.647-2.59-139.543-22.04.25,6.164" fill="none" stroke="#231f20" stroke-linecap="round" stroke-linejoin="round" stroke-width=".5"/><polyline points="236.241 183.008 241.136 181.69 361.258 203.342" fill="none" stroke="#231f20" stroke-linecap="round" stroke-linejoin="round" stroke-width=".5"/><line x1="234.191" y1="184.018" x2="361.845" y2="206.653" fill="none" stroke="#231f20" stroke-linecap="round" stroke-linejoin="round" stroke-width=".5"/><path d="M108.73,145.362l-.6,8.403s-.12,2.74-1.859,4.811" fill="none" stroke="#fff" stroke-linecap="round" stroke-linejoin="round" stroke-width="2"/><path d="M108.73,145.362l-.6,8.403s-.12,2.74-1.859,4.811" fill="none" stroke="#231f20" stroke-dasharray="0 2" stroke-linecap="round" stroke-linejoin="round"/><path d="M149.795,189.344l-.414,7.5s-.052,2.483-1.345,4.034" fill="none" stroke="#231f20" stroke-linecap="round" stroke-linejoin="round" stroke-width=".5"/><path d="M50.078,109.435l-2.058-14.333s-.533-1.066.914-1.752l2.704-1.269" fill="none" stroke="#231f20" stroke-linecap="round" stroke-linejoin="round" stroke-width=".5"/><path d="M59.284,166.593l6.849-4.435s1.219-.558,1.371.558,3.609,24.069,3.609,24.069c0,0,.305,1.325-.686,1.953s-6.774,5.134-6.774,5.134c0,0-1.295.488-1.447-.488l-3.837-25.185s-.533-.977.914-1.604Z" fill="none" stroke="#231f20" stroke-linecap="round" stroke-linejoin="round" stroke-width=".5"/><ellipse cx="80.108" cy="165.96" rx="4.152" ry="2.307" transform="translate(-99.986 205.026) rotate(-76.473)" fill="none" stroke="#231f20" stroke-linecap="round" stroke-linejoin="round" stroke-width=".5"/><path d="M46.51,164.5l-1.939.946-12.415,3.707s-2.236.059-1.942,2.118,5.649,33.951,5.649,33.951c0,0,.588.941,1.294,1" fill="none" stroke="#231f20" stroke-linecap="round" stroke-linejoin="round" stroke-width=".5"/><line x1="43.747" y1="170.506" x2="47.925" y2="197.455" fill="none" stroke="#231f20" stroke-linecap="round" stroke-linejoin="round" stroke-width=".5"/><line x1="41.394" y1="174.566" x2="44.865" y2="195.513" fill="none" stroke="#231f20" stroke-linecap="round" stroke-linejoin="round" stroke-width=".5"/><line x1="39.158" y1="178.39" x2="41.629" y2="193.689" fill="none" stroke="#231f20" stroke-linecap="round" stroke-linejoin="round" stroke-width=".5"/><line x1="36.922" y1="182.215" x2="38.452" y2="191.747" fill="none" stroke="#231f20" stroke-linecap="round" stroke-linejoin="round" stroke-width=".5"/><line x1="34.921" y1="185.981" x2="35.451" y2="189.688" fill="none" stroke="#231f20" stroke-linecap="round" stroke-linejoin="round" stroke-width=".5"/><path d="M92.673,57.192l-3.222,1.39s-1.642-1.516-3.095-.884c0,0-2.653.316-2.653,2.527l.695,5.243" fill="none" stroke="#231f20" stroke-linecap="round" stroke-linejoin="round" stroke-width=".5"/><line x1="364.896" y1="159.564" x2="236.109" y2="139.161" fill="none" stroke="#231f20" stroke-linecap="round" stroke-linejoin="round" stroke-width=".5"/><path d="M41.26,162.359s.767-2.359,6.987-2.919l9.935-5.69,8.373,1.15s1.881,0,2.323,2.434,3.651,24.175,3.651,24.175c0,0,.83,6.03,5.311,2.987s5.643-3.983,5.643-3.983l1.438.332,10.511-7.634s-1.992-3.043-9.239-2.821l-8.077,6.03s-2.987-.664-5.809.664" fill="none" stroke="#231f20" stroke-linecap="round" stroke-linejoin="round" stroke-width=".5"/><line x1="203.719" y1="71.67" x2="205.446" y2="137.95" fill="none" stroke="#231f20" stroke-linecap="round" stroke-linejoin="round" stroke-width=".5"/><path d="M166.308,94.737s4.801.402,7.767-2.127l29.906-18.784" fill="none" stroke="#231f20" stroke-linecap="round" stroke-linejoin="round" stroke-width=".5"/><path d="M114.444,156.403s2.598,1.189,5.25-.741c1.376-1.001,2.484-2.905,2.677-6.377" fill="none" stroke="#231f20" stroke-linecap="round" stroke-linejoin="round" stroke-width=".5"/><line x1="128.322" y1="157.857" x2="119.301" y2="156.322" fill="none" stroke="#231f20" stroke-linecap="round" stroke-linejoin="round" stroke-width=".5"/><line x1="52.682" y1="79.022" x2="102.507" y2="57.891" fill="none" stroke="#231f20" stroke-linecap="round" stroke-linejoin="round" stroke-width=".5"/><path d="M56.868,78.969l31.526-13.499s1.393-.697,4.964-.348,43.805,5.138,43.805,5.138c0,0,4.376.325,6.706,3.658l-26.637,16.178" fill="none" stroke="#231f20" stroke-linecap="round" stroke-linejoin="round" stroke-width=".5"/><path d="M88.941,67.676l11.417,1.408-7.837,3.805-11.01,5.345-14.886-1.775,19.242-8.038s6.055,4.098,7.731,3.819" fill="none" stroke="#231f20" stroke-linecap="round" stroke-linejoin="round" stroke-width=".5"/><path d="M139.418,75.913c-.683-2.458-6.009-3.551-6.009-3.551l-16.525-1.775-17.891,9.287,17.208,1.912s3.551,1.229,5.326,3.824" fill="none" stroke="#231f20" stroke-linecap="round" stroke-linejoin="round" stroke-width=".5"/><path d="M88.941,67.676s-4.192-1.025-6.148,1.677" fill="none" stroke="#231f20" stroke-linecap="round" stroke-linejoin="round" stroke-width=".5"/><path d="M66.626,76.459s-1.773-.603-3.597.006" fill="none" stroke="#231f20" stroke-linecap="round" stroke-linejoin="round" stroke-width=".5"/><path d="M116.884,70.587s8.536,2.959,11.893,6.125,5.18,2.59,5.18,2.59" fill="none" stroke="#231f20" stroke-linecap="round" stroke-linejoin="round" stroke-width=".5"/><polyline points="171.27 119.252 171.117 116.255 170.354 101.319" fill="none" stroke="#231f20" stroke-linecap="round" stroke-linejoin="round" stroke-width=".5"/><line x1="173.759" y1="165.009" x2="172.728" y2="147.774" fill="none" stroke="#231f20" stroke-linecap="round" stroke-linejoin="round" stroke-width=".5"/><line x1="232.69" y1="143.085" x2="365.186" y2="163.324" fill="none" stroke="#231f20" stroke-linecap="round" stroke-linejoin="round" stroke-width=".5"/><path d="M228.575,170.613c.024-1.787-1.969-1.949-1.969-1.949l-15.059-2.36s-1.225-.169-1.754-.106" fill="none" stroke="#231f20" stroke-linecap="round" stroke-linejoin="round" stroke-width=".5"/><line x1="190.602" y1="152.627" x2="191.07" y2="171.176" fill="none" stroke="#231f20" stroke-linecap="round" stroke-linejoin="round" stroke-width=".5"/><line x1="192.635" y1="149.713" x2="193.103" y2="171.38" fill="none" stroke="#231f20" stroke-linecap="round" stroke-linejoin="round" stroke-width=".5"/><path d="M194.972,147.799l4.54.745s1.83,1.423,1.83,2.236v2.846s1.355.068,1.897-.474" fill="none" stroke="#231f20" stroke-linecap="round" stroke-linejoin="round" stroke-width=".5"/><path d="M205.136,165.62l-.271-13.484c.276.027-.384-2.066-1.83-2.372-1.093-.231-2.643-.407-2.643-.407" fill="none" stroke="#231f20" stroke-linecap="round" stroke-linejoin="round" stroke-width=".5"/><line x1="203.684" y1="140.042" x2="207.547" y2="140.498" fill="none" stroke="#231f20" stroke-linecap="round" stroke-linejoin="round" stroke-width=".5"/><path d="M207.678,143.248l-2.313,2.226.087,3.23s2.008.306,1.528,4.495l.524,15.94" fill="none" stroke="#231f20" stroke-linecap="round" stroke-linejoin="round" stroke-width=".5"/><line x1="185.003" y1="168.854" x2="184.715" y2="156.749" fill="none" stroke="#231f20" stroke-linecap="round" stroke-linejoin="round" stroke-width=".5"/><ellipse cx="57.375" cy="86.569" rx="5.335" ry="5.915" transform="translate(-22.755 20.498) rotate(-16.958)" fill="none" stroke="#231f20" stroke-linecap="round" stroke-linejoin="round" stroke-width=".5"/><line x1="56.226" y1="83.401" x2="56.413" y2="89.862" fill="none" stroke="#231f20" stroke-linecap="round" stroke-linejoin="round" stroke-width=".5"/><line x1="54.072" y1="86.304" x2="58.473" y2="86.959" fill="none" stroke="#231f20" stroke-linecap="round" stroke-linejoin="round" stroke-width=".5"/><path d="M112.842,98.258c-.614.593-1.365,1.046-2.228,1.302-3.111.926-6.486-1.053-7.537-4.419s.618-6.846,3.729-7.772,6.486,1.053,7.537,4.419" fill="none" stroke="#231f20" stroke-linecap="round" stroke-linejoin="round" stroke-width=".5"/><line x1="107.441" y1="90.051" x2="107.647" y2="97.012" fill="none" stroke="#231f20" stroke-linecap="round" stroke-linejoin="round" stroke-width=".5"/><line x1="105.063" y1="93.178" x2="109.921" y2="93.884" fill="none" stroke="#231f20" stroke-linecap="round" stroke-linejoin="round" stroke-width=".5"/><path d="M113.797,134.115l-.196,7.232s2.247-.311,2.242,2.04l-.61,10.432c-.548,4.052-4.425,5.3-4.425,5.3l-5.705,1.491-1.474-.005h-.261s-51.268-8.301-51.268-8.301c-6.435-1.232-5.818-7.997-5.818-7.997l.222-5.35" fill="none" stroke="#fff" stroke-linecap="round" stroke-linejoin="round" stroke-width="2"/><path d="M113.797,134.115l-.196,7.232s2.247-.311,2.242,2.04l-.61,10.432c-.548,4.052-4.425,5.3-4.425,5.3l-5.705,1.491-1.474-.005h-.261s-51.268-8.301-51.268-8.301c-6.435-1.232-5.818-7.997-5.818-7.997l.222-5.35" fill="none" stroke="#231f20" stroke-dasharray="0 2" stroke-linecap="round" stroke-linejoin="round"/><path d="M58.892,141.143l-.063,1.531s-.054,1.93,1.381,2.155l42.167,5.953" fill="none" stroke="#fff" stroke-linecap="round" stroke-linejoin="round" stroke-width="2"/><path d="M58.892,141.143l-.063,1.531s-.054,1.93,1.381,2.155l42.167,5.953" fill="none" stroke="#231f20" stroke-dasharray="0 2" stroke-linecap="round" stroke-linejoin="round"/><path d="M50.65,139.486c-.09,1.294-.15,2.847-.073,4.238.145,2.64,2.388,2.771,2.388,2.771l49.575,7.149c.793-.229.901-2.04.901-2.04l.44-7.621s.171-1.357,1.383-1.677l1.229-.144,1.937.39,5.215-1.137" fill="none" stroke="#fff" stroke-linecap="round" stroke-linejoin="round" stroke-width="2"/><path d="M50.65,139.486c-.09,1.294-.15,2.847-.073,4.238.145,2.64,2.388,2.771,2.388,2.771l49.575,7.149c.793-.229.901-2.04.901-2.04l.44-7.621s.171-1.357,1.383-1.677l1.229-.144,1.937.39,5.215-1.137" fill="none" stroke="#231f20" stroke-dasharray="0 2" stroke-linecap="round" stroke-linejoin="round"/><path d="M52.67,123.605l.844-1.103,1.492.649c1.038-.389,4.542-2.92,4.542-2.92,0,0,2.595-2.66,1.622-7.981s-6.229-4.218-6.229-4.218l-3.893,2.271-.714,2.141-2.076,1.298-1.947.324-3.309,1.882" fill="none" stroke="#231f20" stroke-miterlimit="10" stroke-width=".5"/><ellipse cx="56.726" cy="115.981" rx="1.584" ry="2.342" fill="none" stroke="#231f20" stroke-miterlimit="10" stroke-width=".5"/><path d="M39.006,115.452l-6.992,4.322s-2.373,1.487-1.735,4.108l2.019,9.385s.744,2.692,3.506,3.046,51.946,8.968,51.946,8.968c0,0,5.427,1.206,9.647-1.809,4.221-3.015,6.977-5.168,6.977-5.168l-1.12-10.767s-.083-2.234-2.399-2.565l-1.655-.207s-1.438-.275-2.193.331l-4.947,3.431s-1.983,1.262-5.274.721-49.987-8.023-49.987-8.023c0,0-.901-.901.18-1.623l4.823-3.065" fill="none" stroke="#231f20" stroke-miterlimit="10" stroke-width=".5"/><path d="M38.95,115.491s2.806-.035,3.121.1,2.028.766,2.389,2.524.811,4.147.811,4.147" fill="none" stroke="#231f20" stroke-miterlimit="10" stroke-width=".5"/><path d="M32.973,124.427l52.74,8.755s4.795.73,8.964-1.876,5.837-3.752,5.837-3.752" fill="none" stroke="#231f20" stroke-miterlimit="10" stroke-width=".5"/><line x1="47.199" y1="116.205" x2="48.711" y2="123.04" fill="none" stroke="#231f20" stroke-miterlimit="10" stroke-width=".5"/><path d="M44.006,116.877l3.081-1.793s1.625-.112,2.633-.728,2.297-1.232,2.297-1.232l.728-2.241s2.857-2.493,5.378-2.465" fill="none" stroke="#231f20" stroke-miterlimit="10" stroke-width=".5"/><path d="M110.325,116.171s-1.48.273-4.244,2.531l-.662,2.414-2.648,1.986.234.701-1.402,1.246" fill="none" stroke="#231f20" stroke-miterlimit="10" stroke-width=".5"/><path d="M102.694,126.022l2.803-1.947-.039-1.129,1.908-1.48s-.039-2.375,1.557-3.076" fill="none" stroke="#231f20" stroke-miterlimit="10" stroke-width=".5"/><line x1="105.419" y1="121.116" x2="107.366" y2="121.466" fill="none" stroke="#231f20" stroke-miterlimit="10" stroke-width=".5"/><line x1="103.005" y1="123.802" x2="105.497" y2="124.075" fill="none" stroke="#231f20" stroke-miterlimit="10" stroke-width=".5"/><path d="M104.096,135.638l2.433-1.945s.441-.314.247-1.443-1.253-8.145-1.253-8.145" fill="none" stroke="#231f20" stroke-miterlimit="10" stroke-width=".5"/><line x1="107.023" y1="132.326" x2="108.523" y2="131.149" fill="none" stroke="#231f20" stroke-miterlimit="10" stroke-width=".5"/><path d="M113.736,113.692s-5.835,1.911-6.197,10.845l.568,5.113s1.394,3.615,4.39,3.563,2.944-.878,2.944-.878" fill="none" stroke="#231f20" stroke-miterlimit="10" stroke-width=".5"/><ellipse cx="112.371" cy="124.485" rx="4.054" ry="2.143" transform="translate(-21.335 225.711) rotate(-85.056)" fill="none" stroke="#231f20" stroke-miterlimit="10" stroke-width=".5"/></g><path d="M63.972,143.779l4.45.916-8.346-9.9-7.516,6.911,3.073.504-.014.128c-.007,4.435,1.628,10.061,4.526,12.83,5.064,4.838,12.391,6.766,17.944,6.264,1.385,0,2.29-.076,2.423-.088l.341-7.94c-2.832.254-9.87.725-13.888-3.115-1.536-1.467-2.898-4.028-2.988-6.432l-.006-.078Z" fill="#231f20" stroke="#fff" stroke-linecap="round" stroke-linejoin="round"/><polyline points="32.386 142.574 53.452 130.774 37.395 127.854 16.34 139.653 9.902 138.644 14.273 147.068 38.835 143.581 32.919 142.574" fill="#010101" stroke="#fff" stroke-linecap="round" stroke-linejoin="round"/><path d="M103.319,175.507c0,7.593-6.246,13.745-13.95,13.745s-13.953-6.152-13.953-13.745,6.246-13.755,13.953-13.755,13.95,6.159,13.95,13.755" fill="#211e1f" stroke="#fff" stroke-miterlimit="10" stroke-width="1.5"/><path d="M90.966,182.549h-1.846v-11.761c-.444.424-1.027.848-1.749,1.271s-1.369.741-1.943.953v-1.784c1.032-.485,1.935-1.073,2.707-1.764s1.319-1.36,1.641-2.01h1.189v15.094Z" fill="#fff" stroke-width="0"/><path d="M28.956,113.92c0,7.593-6.246,13.745-13.95,13.745s-13.953-6.152-13.953-13.745,6.246-13.755,13.953-13.755,13.95,6.159,13.95,13.755" fill="#211e1f" stroke="#fff" stroke-miterlimit="10" stroke-width="1.5"/><path d="M9.661,116.993l1.846-.246c.212,1.046.572,1.799,1.082,2.261.509.461,1.129.692,1.861.692.868,0,1.601-.301,2.2-.902.598-.602.897-1.347.897-2.235,0-.848-.277-1.547-.831-2.098-.554-.55-1.258-.825-2.112-.825-.349,0-.783.068-1.302.205l.205-1.62c.123.014.222.021.297.021.786,0,1.494-.205,2.123-.615s.943-1.042.943-1.896c0-.677-.229-1.237-.687-1.682s-1.049-.667-1.774-.667c-.718,0-1.316.226-1.794.677s-.786,1.128-.923,2.03l-1.846-.328c.226-1.237.738-2.195,1.538-2.876.8-.68,1.794-1.021,2.984-1.021.82,0,1.576.177,2.266.528.69.353,1.218.832,1.584,1.44s.549,1.255.549,1.938c0,.649-.174,1.24-.523,1.773s-.865.957-1.548,1.271c.889.205,1.579.631,2.071,1.276.492.646.738,1.455.738,2.426,0,1.312-.479,2.425-1.436,3.337-.957.913-2.167,1.369-3.63,1.369-1.319,0-2.415-.393-3.286-1.179-.872-.786-1.369-1.805-1.492-3.056Z" fill="#fff" stroke-width="0"/><path d="M224.243,93.851c0,7.593-6.246,13.745-13.95,13.745s-13.953-6.152-13.953-13.745,6.246-13.755,13.953-13.755,13.95,6.159,13.95,13.755" fill="#211e1f" stroke="#fff" stroke-miterlimit="10" stroke-width="1.5"/><path d="M214.88,98.591v1.774h-9.936c-.014-.444.058-.872.215-1.282.253-.677.658-1.343,1.215-1.999.557-.656,1.362-1.415,2.415-2.276,1.634-1.34,2.738-2.401,3.312-3.184.574-.783.861-1.523.861-2.221,0-.731-.262-1.348-.784-1.851-.523-.502-1.205-.754-2.046-.754-.889,0-1.6.267-2.133.8s-.803,1.271-.81,2.215l-1.897-.194c.13-1.415.619-2.493,1.466-3.235.848-.741,1.986-1.112,3.415-1.112,1.442,0,2.584.399,3.425,1.199s1.261,1.791,1.261,2.974c0,.602-.123,1.193-.369,1.774s-.655,1.192-1.225,1.835c-.571.643-1.52,1.524-2.846,2.646-1.107.93-1.818,1.561-2.133,1.893-.314.331-.574.664-.779.999h7.373Z" fill="#fff" stroke-width="0"/><polyline points="158.258 137.477 158.183 132.234 147.132 143.056 158.571 157.896 158.489 151.716 181.02 155.016 180.794 141.477 158.258 138.182" fill="#010101" stroke="#fff" stroke-linecap="round" stroke-linejoin="round" stroke-width="1.257"/><line x1="174.141" y1="133.955" x2="196.983" y2="106.388" fill="none" stroke="#fff" stroke-linecap="round" stroke-linejoin="round" stroke-width="4"/><line x1="174.141" y1="133.955" x2="196.983" y2="106.388" fill="none" stroke="#010101" stroke-linecap="round" stroke-linejoin="round"/></svg>