<?xml version="1.0" encoding="UTF-8"?><svg id="a" xmlns="http://www.w3.org/2000/svg" width="4.1in" height="1.2in" viewBox="0 0 295.2 86.4"><polyline points="32.386 70.158 20.117 70.158 20.117 43.096 33.351 43.096" fill="none" stroke="#fff" stroke-miterlimit="10" stroke-width="4.844"/><polyline points="32.386 70.158 20.117 70.158 20.117 43.096 33.351 43.096" fill="none" stroke="#1e4a92" stroke-miterlimit="10" stroke-width="2.422"/><rect x="3.587" y="61.808" width="110.894" height="16.148" fill="#1e4a92" stroke-width="0"/><path d="M12.876,67.04c.36,0,.667.053.92.158s.459.244.618.416c.159.172.274.369.347.589s.109.45.109.687c0,.231-.036.459-.109.682s-.188.421-.347.593c-.159.172-.365.311-.618.416s-.56.157-.92.157h-1.332v2.067h-1.268v-5.765h2.6ZM12.529,69.753c.146,0,.285-.011.42-.032.134-.021.253-.063.355-.125.103-.062.185-.149.247-.262.062-.113.093-.261.093-.444s-.031-.331-.093-.444c-.062-.113-.144-.2-.247-.262-.102-.062-.221-.104-.355-.125-.135-.021-.274-.033-.42-.033h-.985v1.728h.985Z" fill="#fff" stroke-width="0"/><path d="M15.564,69.813c.103-.272.248-.503.436-.694s.415-.339.678-.444c.264-.105.56-.158.888-.158s.626.053.892.158c.267.104.494.253.682.444s.334.422.436.694.153.575.153.908-.051.635-.153.904-.248.5-.436.69-.416.338-.682.44c-.266.102-.564.153-.892.153s-.625-.051-.888-.153-.49-.249-.678-.44-.333-.421-.436-.69c-.102-.269-.153-.57-.153-.904s.051-.636.153-.908ZM16.605,71.21c.033.159.087.302.166.428s.182.228.311.303.291.113.484.113.356-.038.488-.113.237-.176.315-.303.133-.269.166-.428c.032-.159.048-.321.048-.488s-.016-.331-.048-.493c-.032-.161-.087-.304-.166-.428-.078-.124-.183-.225-.315-.303s-.294-.117-.488-.117-.355.039-.484.117-.233.179-.311.303c-.078.124-.133.267-.166.428-.032.162-.048.326-.048.493s.016.33.048.488Z" fill="#fff" stroke-width="0"/><path d="M24.066,72.805l-.743-2.802h-.016l-.711,2.802h-1.187l-1.324-4.174h1.211l.767,2.833h.016l.694-2.833h1.114l.71,2.826h.016l.767-2.826h1.179l-1.316,4.174h-1.179Z" fill="#fff" stroke-width="0"/><path d="M28.272,71.804c.172.167.42.25.743.25.231,0,.431-.058.598-.173.167-.116.269-.238.307-.368h1.009c-.162.501-.409.859-.743,1.074-.334.215-.737.323-1.211.323-.329,0-.625-.053-.888-.157-.264-.105-.487-.254-.67-.448-.183-.194-.324-.425-.424-.694s-.149-.565-.149-.888c0-.312.051-.603.153-.872.102-.269.248-.501.436-.698.188-.196.413-.351.674-.464.261-.113.55-.169.868-.169.355,0,.665.069.928.206s.48.322.65.553c.169.231.292.496.368.792.075.296.102.605.081.928h-3.012c.016.372.11.641.283.808ZM29.568,69.607c-.137-.15-.346-.226-.625-.226-.183,0-.335.031-.457.093-.121.062-.218.139-.291.23-.073.091-.124.188-.153.291-.03.102-.047.194-.053.274h1.865c-.054-.291-.149-.511-.287-.662Z" fill="#fff" stroke-width="0"/><path d="M32.769,68.631v.775h.016c.054-.129.126-.249.218-.359.091-.11.196-.205.314-.283.119-.078.245-.138.38-.182.134-.043.274-.064.419-.064.076,0,.159.014.25.041v1.065c-.054-.011-.119-.02-.194-.028-.075-.008-.148-.012-.218-.012-.21,0-.388.035-.533.105-.145.07-.262.166-.351.287s-.152.262-.189.424c-.038.161-.057.336-.057.524v1.881h-1.146v-4.174h1.09Z" fill="#fff" stroke-width="0"/><path d="M38.029,71.767c.051.089.117.162.198.218.081.056.173.098.278.125s.214.041.327.041c.081,0,.166-.009.254-.028s.169-.048.242-.089.133-.094.182-.162c.048-.067.073-.152.073-.254,0-.172-.115-.301-.343-.387-.229-.086-.548-.172-.957-.258-.167-.038-.33-.082-.489-.133s-.3-.119-.424-.202c-.124-.083-.223-.188-.299-.314-.075-.126-.113-.281-.113-.464,0-.269.052-.49.157-.662s.244-.308.416-.408.366-.169.581-.21.436-.061.662-.061.445.021.658.064c.212.043.402.116.569.218.167.102.306.238.416.408s.176.383.198.642h-1.09c-.016-.221-.1-.37-.25-.448-.15-.078-.328-.117-.533-.117-.064,0-.135.004-.21.012-.075.008-.144.025-.206.052-.062.027-.115.066-.158.117s-.064.12-.064.206c0,.102.038.186.113.25.076.064.174.117.295.158.121.04.26.077.416.109.156.032.315.067.477.105.167.038.33.083.488.137s.3.125.424.214c.124.089.224.199.299.331s.113.294.113.488c0,.274-.056.505-.166.69-.11.186-.254.335-.432.448-.178.113-.381.192-.609.238-.229.046-.462.069-.699.069-.242,0-.479-.024-.71-.073s-.437-.129-.618-.242c-.18-.113-.328-.262-.444-.448-.116-.186-.179-.418-.189-.698h1.09c0,.124.025.23.077.319Z" fill="#fff" stroke-width="0"/><path d="M41.423,69.813c.103-.272.248-.503.436-.694s.415-.339.678-.444c.264-.105.56-.158.888-.158s.626.053.892.158c.267.104.494.253.682.444s.334.422.436.694.153.575.153.908-.051.635-.153.904-.248.5-.436.69-.416.338-.682.44c-.266.102-.564.153-.892.153s-.625-.051-.888-.153-.49-.249-.678-.44-.333-.421-.436-.69c-.102-.269-.153-.57-.153-.904s.051-.636.153-.908ZM42.465,71.21c.033.159.087.302.166.428s.182.228.311.303.291.113.484.113.356-.038.488-.113.237-.176.315-.303.133-.269.166-.428c.032-.159.048-.321.048-.488s-.016-.331-.048-.493c-.032-.161-.087-.304-.166-.428-.078-.124-.183-.225-.315-.303s-.294-.117-.488-.117-.355.039-.484.117-.233.179-.311.303c-.078.124-.133.267-.166.428-.032.162-.048.326-.048.493s.016.33.048.488Z" fill="#fff" stroke-width="0"/><path d="M49.158,72.805v-.581h-.024c-.145.242-.333.417-.565.524-.231.108-.468.162-.71.162-.307,0-.559-.041-.755-.121-.197-.081-.351-.195-.464-.343-.113-.148-.192-.328-.238-.541-.045-.212-.068-.448-.068-.706v-2.567h1.146v2.357c0,.344.054.602.161.771.108.169.299.254.573.254.312,0,.539-.093.678-.279.14-.186.21-.491.21-.917v-2.188h1.146v4.174h-1.09Z" fill="#fff" stroke-width="0"/><path d="M52.21,68.631v.775h.016c.054-.129.126-.249.218-.359.091-.11.196-.205.314-.283.119-.078.245-.138.38-.182.134-.043.274-.064.419-.064.076,0,.159.014.25.041v1.065c-.054-.011-.119-.02-.194-.028-.075-.008-.148-.012-.218-.012-.21,0-.388.035-.533.105-.145.07-.262.166-.351.287s-.152.262-.189.424c-.038.161-.057.336-.057.524v1.881h-1.146v-4.174h1.09Z" fill="#fff" stroke-width="0"/><path d="M56.109,69.381c-.183,0-.336.042-.46.125-.124.083-.225.191-.303.323s-.133.277-.166.436c-.032.159-.048.316-.048.472,0,.151.016.304.048.46.033.156.085.297.158.424s.171.23.294.311c.124.081.275.121.452.121.275,0,.486-.077.634-.23s.241-.359.279-.618h1.106c-.075.555-.291.977-.646,1.268-.355.291-.81.436-1.364.436-.312,0-.599-.053-.86-.157-.261-.105-.483-.252-.666-.44-.183-.188-.326-.413-.428-.674-.102-.261-.153-.548-.153-.86,0-.323.047-.623.142-.9.094-.277.232-.517.416-.718.183-.202.406-.359.67-.473.264-.113.565-.169.904-.169.248,0,.486.032.715.097.229.064.433.163.613.294.181.132.327.296.44.493.113.196.177.429.193.698h-1.122c-.075-.479-.358-.719-.848-.719Z" fill="#fff" stroke-width="0"/><path d="M59.977,71.804c.172.167.42.25.743.25.231,0,.431-.058.598-.173.167-.116.269-.238.307-.368h1.009c-.162.501-.409.859-.743,1.074-.334.215-.737.323-1.211.323-.329,0-.625-.053-.888-.157-.264-.105-.487-.254-.67-.448-.183-.194-.324-.425-.424-.694s-.149-.565-.149-.888c0-.312.051-.603.153-.872.102-.269.248-.501.436-.698.188-.196.413-.351.674-.464.261-.113.55-.169.868-.169.355,0,.665.069.928.206s.48.322.65.553c.169.231.292.496.368.792.075.296.102.605.081.928h-3.012c.016.372.11.641.283.808ZM61.272,69.607c-.137-.15-.346-.226-.625-.226-.183,0-.335.031-.457.093-.121.062-.218.139-.291.23-.073.091-.124.188-.153.291-.03.102-.047.194-.053.274h1.865c-.054-.291-.149-.511-.287-.662Z" fill="#fff" stroke-width="0"/><path d="M65.652,69.813c.103-.272.248-.503.436-.694s.415-.339.678-.444c.264-.105.56-.158.888-.158s.626.053.892.158c.267.104.494.253.682.444s.334.422.436.694.153.575.153.908-.051.635-.153.904-.248.5-.436.69-.416.338-.682.44c-.266.102-.564.153-.892.153s-.625-.051-.888-.153-.49-.249-.678-.44-.333-.421-.436-.69c-.102-.269-.153-.57-.153-.904s.051-.636.153-.908ZM66.693,71.21c.033.159.087.302.166.428s.182.228.311.303.291.113.484.113.356-.038.488-.113.237-.176.315-.303.133-.269.166-.428c.032-.159.048-.321.048-.488s-.016-.331-.048-.493c-.032-.161-.087-.304-.166-.428-.078-.124-.183-.225-.315-.303s-.294-.117-.488-.117-.355.039-.484.117-.233.179-.311.303c-.078.124-.133.267-.166.428-.032.162-.048.326-.048.493s.016.33.048.488Z" fill="#fff" stroke-width="0"/><path d="M71.651,68.631v.581h.024c.145-.242.333-.418.565-.529s.468-.166.71-.166c.307,0,.559.042.755.125.196.083.351.199.464.347.113.148.192.329.238.541.045.213.068.448.068.707v2.567h-1.146v-2.357c0-.344-.054-.602-.161-.771-.108-.169-.299-.254-.573-.254-.312,0-.539.093-.678.278-.14.186-.21.491-.21.917v2.188h-1.146v-4.174h1.09Z" fill="#fff" stroke-width="0"/><path d="M79.587,69.381c-.183,0-.336.042-.46.125-.124.083-.225.191-.303.323s-.133.277-.166.436c-.032.159-.048.316-.048.472,0,.151.016.304.048.46.033.156.085.297.158.424s.171.23.294.311c.124.081.275.121.452.121.275,0,.486-.077.634-.23s.241-.359.279-.618h1.106c-.075.555-.291.977-.646,1.268-.355.291-.81.436-1.364.436-.312,0-.599-.053-.86-.157-.261-.105-.483-.252-.666-.44-.183-.188-.326-.413-.428-.674-.102-.261-.153-.548-.153-.86,0-.323.047-.623.142-.9.094-.277.232-.517.416-.718.183-.202.406-.359.67-.473.264-.113.565-.169.904-.169.248,0,.486.032.715.097.229.064.433.163.613.294.181.132.327.296.44.493.113.196.177.429.193.698h-1.122c-.075-.479-.358-.719-.848-.719Z" fill="#fff" stroke-width="0"/><path d="M82.259,67.985v-.945h1.146v.945h-1.146ZM83.406,68.631v4.174h-1.146v-4.174h1.146Z" fill="#fff" stroke-width="0"/><path d="M85.4,68.631v.775h.016c.054-.129.126-.249.218-.359.091-.11.196-.205.314-.283.119-.078.245-.138.38-.182.134-.043.274-.064.419-.064.076,0,.159.014.25.041v1.065c-.054-.011-.119-.02-.194-.028-.075-.008-.148-.012-.218-.012-.21,0-.388.035-.533.105-.145.07-.262.166-.351.287s-.152.262-.189.424c-.038.161-.057.336-.057.524v1.881h-1.146v-4.174h1.09Z" fill="#fff" stroke-width="0"/><path d="M89.299,69.381c-.183,0-.336.042-.46.125-.124.083-.225.191-.303.323s-.133.277-.166.436c-.032.159-.048.316-.048.472,0,.151.016.304.048.46.033.156.085.297.158.424s.171.23.294.311c.124.081.275.121.452.121.275,0,.486-.077.634-.23s.241-.359.279-.618h1.106c-.075.555-.291.977-.646,1.268-.355.291-.81.436-1.364.436-.312,0-.599-.053-.86-.157-.261-.105-.483-.252-.666-.44-.183-.188-.326-.413-.428-.674-.102-.261-.153-.548-.153-.86,0-.323.047-.623.142-.9.094-.277.232-.517.416-.718.183-.202.406-.359.67-.473.264-.113.565-.169.904-.169.248,0,.486.032.715.097.229.064.433.163.613.294.181.132.327.296.44.493.113.196.177.429.193.698h-1.122c-.075-.479-.358-.719-.848-.719Z" fill="#fff" stroke-width="0"/><path d="M94.765,72.805v-.581h-.024c-.145.242-.333.417-.565.524-.231.108-.468.162-.71.162-.307,0-.559-.041-.755-.121-.197-.081-.351-.195-.464-.343-.113-.148-.192-.328-.238-.541-.045-.212-.068-.448-.068-.706v-2.567h1.146v2.357c0,.344.054.602.161.771.108.169.299.254.573.254.312,0,.539-.093.678-.279.14-.186.21-.491.21-.917v-2.188h1.146v4.174h-1.09Z" fill="#fff" stroke-width="0"/><path d="M96.759,67.985v-.945h1.146v.945h-1.146ZM97.905,68.631v4.174h-1.146v-4.174h1.146Z" fill="#fff" stroke-width="0"/><path d="M101.103,68.631v.767h-.84v2.067c0,.194.032.323.097.388.064.064.193.097.387.097.064,0,.126-.002.186-.008.06-.005.116-.014.17-.024v.888c-.097.016-.205.027-.323.032-.118.005-.234.008-.347.008-.177,0-.346-.012-.504-.037-.159-.024-.299-.071-.42-.141s-.217-.169-.287-.299c-.07-.129-.105-.299-.105-.509v-2.462h-.694v-.767h.694v-1.251h1.146v1.251h.84Z" fill="#fff" stroke-width="0"/><path d="M106.891,67.04l2.156,5.765h-1.316l-.436-1.284h-2.156l-.452,1.284h-1.275l2.18-5.765h1.3ZM106.964,70.576l-.727-2.115h-.016l-.751,2.115h1.494Z" fill="#fff" stroke-width="0"/><polyline points="263.248 69.463 275.517 69.463 275.517 43.209 262.283 43.209" fill="none" stroke="#fff" stroke-miterlimit="10" stroke-width="4.844"/><polyline points="263.248 69.463 275.517 69.463 275.517 43.209 262.283 43.209" fill="none" stroke="#26a7df" stroke-miterlimit="10" stroke-width="2.422"/><rect x="180.693" y="61.808" width="110.894" height="16.148" fill="#26a7df" stroke-width="0"/><path d="M189.982,67.04c.36,0,.667.053.92.158s.459.244.618.416c.159.172.274.369.347.589s.109.45.109.687c0,.231-.036.459-.109.682s-.188.421-.347.593c-.159.172-.365.311-.618.416s-.56.157-.92.157h-1.332v2.067h-1.268v-5.765h2.6ZM189.635,69.753c.146,0,.285-.011.42-.032.134-.021.253-.063.355-.125.103-.062.185-.149.247-.262.062-.113.093-.261.093-.444s-.031-.331-.093-.444c-.062-.113-.144-.2-.247-.262-.102-.062-.221-.104-.355-.125-.135-.021-.274-.033-.42-.033h-.985v1.728h.985Z" fill="#fff" stroke-width="0"/><path d="M192.67,69.813c.103-.272.248-.503.436-.694s.415-.339.678-.444c.264-.105.56-.158.888-.158s.626.053.892.158c.267.104.494.253.682.444s.334.422.436.694.153.575.153.908-.051.635-.153.904-.248.5-.436.69-.416.338-.682.44c-.266.102-.564.153-.892.153s-.625-.051-.888-.153-.49-.249-.678-.44-.333-.421-.436-.69c-.102-.269-.153-.57-.153-.904s.051-.636.153-.908ZM193.711,71.21c.033.159.087.302.166.428s.182.228.311.303.291.113.484.113.356-.038.488-.113.237-.176.315-.303.133-.269.166-.428c.032-.159.048-.321.048-.488s-.016-.331-.048-.493c-.032-.161-.087-.304-.166-.428-.078-.124-.183-.225-.315-.303s-.294-.117-.488-.117-.355.039-.484.117-.233.179-.311.303c-.078.124-.133.267-.166.428-.032.162-.048.326-.048.493s.016.33.048.488Z" fill="#fff" stroke-width="0"/><path d="M201.172,72.805l-.743-2.802h-.016l-.711,2.802h-1.187l-1.324-4.174h1.211l.767,2.833h.016l.694-2.833h1.114l.71,2.826h.016l.767-2.826h1.179l-1.316,4.174h-1.179Z" fill="#fff" stroke-width="0"/><path d="M205.378,71.804c.172.167.42.25.743.25.231,0,.431-.058.598-.173.167-.116.269-.238.307-.368h1.009c-.162.501-.409.859-.743,1.074-.334.215-.737.323-1.211.323-.329,0-.625-.053-.888-.157-.264-.105-.487-.254-.67-.448-.183-.194-.324-.425-.424-.694s-.149-.565-.149-.888c0-.312.051-.603.153-.872.102-.269.248-.501.436-.698.188-.196.413-.351.674-.464.261-.113.55-.169.868-.169.355,0,.665.069.928.206s.48.322.65.553c.169.231.292.496.368.792.075.296.102.605.081.928h-3.012c.016.372.11.641.283.808ZM206.674,69.607c-.137-.15-.346-.226-.625-.226-.183,0-.335.031-.457.093-.121.062-.218.139-.291.23-.073.091-.124.188-.153.291-.03.102-.047.194-.053.274h1.865c-.054-.291-.149-.511-.287-.662Z" fill="#fff" stroke-width="0"/><path d="M209.875,68.631v.775h.016c.054-.129.126-.249.218-.359.091-.11.196-.205.314-.283.119-.078.245-.138.38-.182.134-.043.274-.064.419-.064.076,0,.159.014.25.041v1.065c-.054-.011-.119-.02-.194-.028-.075-.008-.148-.012-.218-.012-.21,0-.388.035-.533.105-.145.07-.262.166-.351.287s-.152.262-.189.424c-.038.161-.057.336-.057.524v1.881h-1.146v-4.174h1.09Z" fill="#fff" stroke-width="0"/><path d="M215.135,71.767c.051.089.117.162.198.218.081.056.173.098.278.125s.214.041.327.041c.081,0,.166-.009.254-.028s.169-.048.242-.089.133-.094.182-.162c.048-.067.073-.152.073-.254,0-.172-.115-.301-.343-.387-.229-.086-.548-.172-.957-.258-.167-.038-.33-.082-.489-.133s-.3-.119-.424-.202c-.124-.083-.223-.188-.299-.314-.075-.126-.113-.281-.113-.464,0-.269.052-.49.157-.662s.244-.308.416-.408.366-.169.581-.21.436-.061.662-.061.445.021.658.064c.212.043.402.116.569.218.167.102.306.238.416.408s.176.383.198.642h-1.09c-.016-.221-.1-.37-.25-.448-.15-.078-.328-.117-.533-.117-.064,0-.135.004-.21.012-.075.008-.144.025-.206.052-.062.027-.115.066-.158.117s-.064.12-.064.206c0,.102.038.186.113.25.076.064.174.117.295.158.121.04.26.077.416.109.156.032.315.067.477.105.167.038.33.083.488.137s.3.125.424.214c.124.089.224.199.299.331s.113.294.113.488c0,.274-.056.505-.166.69-.11.186-.254.335-.432.448-.178.113-.381.192-.609.238-.229.046-.462.069-.699.069-.242,0-.479-.024-.71-.073s-.437-.129-.618-.242c-.18-.113-.328-.262-.444-.448-.116-.186-.179-.418-.189-.698h1.09c0,.124.025.23.077.319Z" fill="#fff" stroke-width="0"/><path d="M218.529,69.813c.103-.272.248-.503.436-.694s.415-.339.678-.444c.264-.105.56-.158.888-.158s.626.053.892.158c.267.104.494.253.682.444s.334.422.436.694.153.575.153.908-.051.635-.153.904-.248.5-.436.69-.416.338-.682.44c-.266.102-.564.153-.892.153s-.625-.051-.888-.153-.49-.249-.678-.44-.333-.421-.436-.69c-.102-.269-.153-.57-.153-.904s.051-.636.153-.908ZM219.571,71.21c.033.159.087.302.166.428s.182.228.311.303.291.113.484.113.356-.038.488-.113.237-.176.315-.303.133-.269.166-.428c.032-.159.048-.321.048-.488s-.016-.331-.048-.493c-.032-.161-.087-.304-.166-.428-.078-.124-.183-.225-.315-.303s-.294-.117-.488-.117-.355.039-.484.117-.233.179-.311.303c-.078.124-.133.267-.166.428-.032.162-.048.326-.048.493s.016.33.048.488Z" fill="#fff" stroke-width="0"/><path d="M226.264,72.805v-.581h-.024c-.145.242-.333.417-.565.524-.231.108-.468.162-.71.162-.307,0-.559-.041-.755-.121-.197-.081-.351-.195-.464-.343-.113-.148-.192-.328-.238-.541-.045-.212-.068-.448-.068-.706v-2.567h1.146v2.357c0,.344.054.602.161.771.108.169.299.254.573.254.312,0,.539-.093.678-.279.14-.186.21-.491.21-.917v-2.188h1.146v4.174h-1.09Z" fill="#fff" stroke-width="0"/><path d="M229.316,68.631v.775h.016c.054-.129.126-.249.218-.359.091-.11.196-.205.314-.283.119-.078.245-.138.38-.182.134-.043.274-.064.419-.064.076,0,.159.014.25.041v1.065c-.054-.011-.119-.02-.194-.028-.075-.008-.148-.012-.218-.012-.21,0-.388.035-.533.105-.145.07-.262.166-.351.287s-.152.262-.189.424c-.038.161-.057.336-.057.524v1.881h-1.146v-4.174h1.09Z" fill="#fff" stroke-width="0"/><path d="M233.215,69.381c-.183,0-.336.042-.46.125-.124.083-.225.191-.303.323s-.133.277-.166.436c-.032.159-.048.316-.048.472,0,.151.016.304.048.46.033.156.085.297.158.424s.171.23.294.311c.124.081.275.121.452.121.275,0,.486-.077.634-.23s.241-.359.279-.618h1.106c-.075.555-.291.977-.646,1.268-.355.291-.81.436-1.364.436-.312,0-.599-.053-.86-.157-.261-.105-.483-.252-.666-.44-.183-.188-.326-.413-.428-.674-.102-.261-.153-.548-.153-.86,0-.323.047-.623.142-.9.094-.277.232-.517.416-.718.183-.202.406-.359.67-.473.264-.113.565-.169.904-.169.248,0,.486.032.715.097.229.064.433.163.613.294.181.132.327.296.44.493.113.196.177.429.193.698h-1.122c-.075-.479-.358-.719-.848-.719Z" fill="#fff" stroke-width="0"/><path d="M237.083,71.804c.172.167.42.25.743.25.231,0,.431-.058.598-.173.167-.116.269-.238.307-.368h1.009c-.162.501-.409.859-.743,1.074-.334.215-.737.323-1.211.323-.329,0-.625-.053-.888-.157-.264-.105-.487-.254-.67-.448-.183-.194-.324-.425-.424-.694s-.149-.565-.149-.888c0-.312.051-.603.153-.872.102-.269.248-.501.436-.698.188-.196.413-.351.674-.464.261-.113.55-.169.868-.169.355,0,.665.069.928.206s.48.322.65.553c.169.231.292.496.368.792.075.296.102.605.081.928h-3.012c.016.372.11.641.283.808ZM238.378,69.607c-.137-.15-.346-.226-.625-.226-.183,0-.335.031-.457.093-.121.062-.218.139-.291.23-.073.091-.124.188-.153.291-.03.102-.047.194-.053.274h1.865c-.054-.291-.149-.511-.287-.662Z" fill="#fff" stroke-width="0"/><path d="M242.758,69.813c.103-.272.248-.503.436-.694s.415-.339.678-.444c.264-.105.56-.158.888-.158s.626.053.892.158c.267.104.494.253.682.444s.334.422.436.694.153.575.153.908-.051.635-.153.904-.248.5-.436.69-.416.338-.682.44c-.266.102-.564.153-.892.153s-.625-.051-.888-.153-.49-.249-.678-.44-.333-.421-.436-.69c-.102-.269-.153-.57-.153-.904s.051-.636.153-.908ZM243.799,71.21c.033.159.087.302.166.428s.182.228.311.303.291.113.484.113.356-.038.488-.113.237-.176.315-.303.133-.269.166-.428c.032-.159.048-.321.048-.488s-.016-.331-.048-.493c-.032-.161-.087-.304-.166-.428-.078-.124-.183-.225-.315-.303s-.294-.117-.488-.117-.355.039-.484.117-.233.179-.311.303c-.078.124-.133.267-.166.428-.032.162-.048.326-.048.493s.016.33.048.488Z" fill="#fff" stroke-width="0"/><path d="M248.757,68.631v.581h.024c.145-.242.333-.418.565-.529s.468-.166.71-.166c.307,0,.559.042.755.125.196.083.351.199.464.347.113.148.192.329.238.541.045.213.068.448.068.707v2.567h-1.146v-2.357c0-.344-.054-.602-.161-.771-.108-.169-.299-.254-.573-.254-.312,0-.539.093-.678.278-.14.186-.21.491-.21.917v2.188h-1.146v-4.174h1.09Z" fill="#fff" stroke-width="0"/><path d="M256.693,69.381c-.184,0-.337.042-.461.125-.123.083-.225.191-.303.323s-.133.277-.165.436-.049.316-.049.472c0,.151.017.304.049.46.032.156.085.297.157.424.073.126.171.23.295.311.124.081.274.121.452.121.274,0,.485-.077.634-.23.147-.153.241-.359.278-.618h1.106c-.075.555-.291.977-.646,1.268-.354.291-.81.436-1.364.436-.312,0-.599-.053-.859-.157-.262-.105-.483-.252-.666-.44-.184-.188-.326-.413-.429-.674-.102-.261-.153-.548-.153-.86,0-.323.048-.623.142-.9.094-.277.232-.517.416-.718.183-.202.406-.359.67-.473.264-.113.565-.169.904-.169.247,0,.485.032.715.097.229.064.433.163.613.294s.327.296.44.493c.112.196.177.429.193.698h-1.122c-.075-.479-.358-.719-.848-.719Z" fill="#fff" stroke-width="0"/><path d="M259.365,67.985v-.945h1.146v.945h-1.146ZM260.512,68.631v4.174h-1.146v-4.174h1.146Z" fill="#fff" stroke-width="0"/><path d="M262.506,68.631v.775h.017c.054-.129.126-.249.218-.359s.196-.205.314-.283c.119-.078.245-.138.38-.182.135-.043.274-.064.42-.064.075,0,.158.014.25.041v1.065c-.054-.011-.118-.02-.193-.028-.075-.008-.148-.012-.218-.012-.21,0-.388.035-.533.105-.146.07-.263.166-.352.287s-.151.262-.189.424c-.038.161-.057.336-.057.524v1.881h-1.146v-4.174h1.09Z" fill="#fff" stroke-width="0"/><path d="M266.405,69.381c-.183,0-.336.042-.46.125s-.225.191-.303.323-.133.277-.166.436c-.032.159-.048.316-.048.472,0,.151.016.304.048.46.033.156.085.297.158.424.072.126.171.23.294.311.124.081.275.121.452.121.275,0,.486-.077.634-.23.148-.153.241-.359.279-.618h1.105c-.075.555-.29.977-.646,1.268s-.811.436-1.364.436c-.312,0-.6-.053-.86-.157-.261-.105-.483-.252-.666-.44-.183-.188-.325-.413-.428-.674s-.153-.548-.153-.86c0-.323.047-.623.142-.9.094-.277.232-.517.415-.718.184-.202.406-.359.671-.473.264-.113.564-.169.903-.169.248,0,.486.032.715.097.229.064.434.163.613.294.181.132.327.296.44.493.113.196.178.429.193.698h-1.122c-.075-.479-.357-.719-.848-.719Z" fill="#fff" stroke-width="0"/><path d="M271.871,72.805v-.581h-.024c-.145.242-.333.417-.564.524-.231.108-.469.162-.711.162-.307,0-.559-.041-.755-.121s-.351-.195-.464-.343c-.113-.148-.192-.328-.238-.541-.046-.212-.068-.448-.068-.706v-2.567h1.146v2.357c0,.344.054.602.161.771s.299.254.573.254c.312,0,.538-.093.678-.279.141-.186.21-.491.21-.917v-2.188h1.146v4.174h-1.09Z" fill="#fff" stroke-width="0"/><path d="M273.865,67.985v-.945h1.146v.945h-1.146ZM275.012,68.631v4.174h-1.146v-4.174h1.146Z" fill="#fff" stroke-width="0"/><path d="M278.209,68.631v.767h-.84v2.067c0,.194.032.323.097.388s.193.097.388.097c.064,0,.126-.002.186-.008s.115-.014.17-.024v.888c-.098.016-.205.027-.323.032s-.234.008-.348.008c-.177,0-.346-.012-.504-.037-.159-.024-.299-.071-.42-.141s-.217-.169-.287-.299c-.069-.129-.104-.299-.104-.509v-2.462h-.694v-.767h.694v-1.251h1.146v1.251h.84Z" fill="#fff" stroke-width="0"/><path d="M283.836,67.04c.274,0,.524.024.751.073.226.048.42.128.581.238s.287.257.376.44.133.409.133.678c0,.291-.065.533-.198.727-.132.194-.326.353-.585.477.355.102.62.281.796.537.175.256.262.564.262.924,0,.291-.057.542-.169.755-.113.213-.266.386-.457.521-.19.134-.409.234-.653.299-.245.064-.497.097-.755.097h-2.794v-5.765h2.713ZM283.675,69.374c.226,0,.411-.054.557-.162.146-.107.218-.283.218-.525,0-.134-.023-.245-.072-.331-.049-.086-.113-.153-.193-.202-.081-.048-.174-.082-.279-.101-.104-.019-.214-.028-.327-.028h-1.187v1.349h1.284ZM283.747,71.82c.124,0,.242-.012.355-.037.113-.024.213-.064.299-.121.086-.056.154-.133.206-.23.051-.097.076-.221.076-.371,0-.296-.083-.507-.25-.634s-.388-.19-.662-.19h-1.381v1.583h1.356Z" fill="#fff" stroke-width="0"/><rect x="148.579" y="7.396" width="113.993" height="22.459" fill="#d9d9d9" stroke-width="0"/><rect x="31.117" y="7.396" width="114.839" height="22.459" fill="#d9d9d9" stroke-width="0"/><rect x="148.579" y="32.024" width="113.993" height="22.459" fill="#26a7df" stroke-width="0"/><rect x="31.117" y="32.024" width="114.839" height="22.459" fill="#1e4a92" stroke-width="0"/><path d="M235.491,39.432c.372,0,.688.054.95.162.261.108.474.251.637.429.164.178.284.381.358.608.075.228.112.464.112.708,0,.239-.037.474-.112.704-.075.23-.194.435-.358.612-.164.178-.376.321-.637.429s-.578.163-.95.163h-1.375v2.133h-1.308v-5.949h2.683ZM235.133,42.231c.15,0,.294-.011.433-.033.139-.022.261-.065.367-.129.105-.063.19-.154.254-.271.063-.117.096-.27.096-.458s-.032-.341-.096-.458c-.064-.117-.149-.207-.254-.271-.105-.063-.228-.107-.367-.129-.139-.022-.283-.034-.433-.034h-1.017v1.783h1.017Z" fill="#fff" stroke-width="0"/><path d="M239.365,43.914c.072.139.168.251.288.337.119.086.259.15.42.191.161.042.328.062.5.062.117,0,.242-.009.375-.029s.258-.057.375-.113c.117-.055.214-.132.292-.229s.117-.221.117-.371c0-.161-.051-.292-.154-.392-.103-.1-.237-.184-.404-.25-.167-.067-.355-.125-.567-.175-.211-.05-.425-.105-.641-.167-.223-.055-.439-.124-.65-.204-.211-.081-.4-.185-.567-.312-.167-.127-.301-.287-.404-.479-.103-.191-.154-.423-.154-.696,0-.305.065-.57.196-.795s.301-.413.512-.562c.211-.15.45-.261.717-.333.267-.072.533-.108.8-.108.311,0,.609.035.896.104s.54.182.763.337c.222.156.398.354.529.596s.196.535.196.879h-1.267c-.011-.178-.048-.325-.112-.441s-.148-.208-.254-.275c-.106-.067-.227-.114-.363-.142-.136-.028-.285-.042-.445-.042-.106,0-.211.011-.317.034-.105.022-.201.061-.288.117-.086.055-.157.125-.212.208-.056.083-.083.189-.083.317,0,.116.022.211.066.283s.132.139.263.2c.13.062.311.123.542.184s.532.139.904.233c.111.022.265.062.462.121.197.058.393.151.587.279.194.128.362.299.504.513.142.214.213.487.213.821,0,.272-.053.525-.159.758-.105.233-.262.435-.471.604-.208.17-.466.302-.775.396-.308.094-.665.142-1.07.142-.328,0-.646-.041-.954-.121-.308-.081-.581-.207-.816-.379-.236-.172-.424-.392-.562-.658s-.206-.583-.2-.95h1.266c0,.2.036.37.108.508Z" fill="#fff" stroke-width="0"/><path d="M248.147,44.926c-.45.392-1.072.587-1.867.587-.805,0-1.429-.194-1.87-.583-.442-.389-.663-.989-.663-1.8v-3.699h1.308v3.699c0,.161.014.319.042.475.028.155.086.293.175.412.089.12.212.217.371.292.158.075.371.113.637.113.467,0,.789-.104.967-.312.178-.208.267-.535.267-.979v-3.699h1.308v3.699c0,.805-.225,1.404-.675,1.795Z" fill="#fff" stroke-width="0"/><path d="M251.279,40.86c.089-.286.222-.536.4-.75.178-.213.401-.38.671-.5.27-.12.579-.179.929-.179.267,0,.521.042.763.125.241.083.454.203.637.358.184.156.329.347.438.575.108.228.163.483.163.767,0,.294-.048.547-.142.758-.095.211-.22.399-.375.562-.156.164-.332.312-.529.446s-.396.265-.596.396c-.2.13-.395.271-.583.42-.189.15-.356.325-.5.525h2.758v1.017h-4.283c0-.339.049-.633.146-.883s.229-.473.396-.67c.167-.197.363-.379.587-.546.225-.167.462-.336.712-.508.128-.089.264-.179.409-.271.145-.092.276-.193.396-.304.119-.111.22-.236.3-.375.081-.139.121-.297.121-.475,0-.283-.082-.504-.246-.662-.163-.158-.373-.238-.629-.238-.172,0-.318.041-.438.121s-.215.186-.288.316c-.072.131-.124.275-.154.434-.031.158-.046.315-.046.471h-1.133c-.011-.333.028-.643.117-.929Z" fill="#fff" stroke-width="0"/><path d="M212.154,18.362c-.078-.125-.175-.234-.292-.329-.117-.094-.249-.168-.396-.221-.147-.053-.302-.079-.462-.079-.294,0-.544.057-.75.171s-.372.267-.5.458c-.128.192-.221.41-.279.654-.059.245-.088.497-.088.758,0,.25.029.493.088.729.058.236.151.448.279.637s.294.34.5.454.456.171.75.171c.4,0,.712-.122.937-.367.225-.245.363-.566.413-.966h1.267c-.034.372-.12.708-.258,1.008-.139.3-.322.556-.55.767-.228.211-.494.372-.8.483-.305.111-.642.167-1.008.167-.456,0-.865-.079-1.229-.237s-.671-.376-.921-.654c-.25-.277-.441-.604-.575-.979s-.2-.779-.2-1.212c0-.444.067-.857.2-1.237s.325-.712.575-.996c.25-.284.557-.505.921-.667s.773-.242,1.229-.242c.328,0,.637.047.929.142.292.094.553.232.783.412.23.181.421.404.571.671s.244.572.283.917h-1.266c-.022-.15-.072-.288-.15-.413Z" fill="#221f1f" stroke-width="0"/><path d="M214.413,19.637c.105-.28.255-.52.45-.716.194-.197.428-.35.7-.458.272-.108.578-.163.917-.163s.646.054.921.163.509.261.704.458c.194.197.344.436.45.716.105.281.158.593.158.938s-.053.655-.158.933-.255.515-.45.712c-.195.197-.429.349-.704.454s-.582.158-.921.158-.644-.053-.917-.158c-.272-.105-.505-.257-.7-.454s-.344-.435-.45-.712c-.106-.278-.159-.589-.159-.933s.053-.657.159-.938ZM215.487,21.078c.033.164.09.311.171.441.08.131.188.235.321.312.133.078.3.117.5.117s.368-.039.504-.117c.136-.078.244-.182.325-.312.081-.13.138-.277.171-.441.033-.164.05-.332.05-.504s-.017-.342-.05-.508-.09-.314-.171-.442c-.081-.127-.189-.231-.325-.312-.136-.081-.304-.121-.504-.121s-.366.041-.5.121-.241.185-.321.312c-.081.128-.138.275-.171.442s-.05.336-.05.508.017.34.05.504Z" fill="#221f1f" stroke-width="0"/><path d="M220.603,18.416v.6h.025c.15-.25.344-.432.583-.546.239-.114.483-.171.733-.171.317,0,.576.043.779.129.203.086.362.206.479.358s.198.339.246.558.071.462.071.729v2.649h-1.183v-2.433c0-.355-.056-.621-.167-.795-.111-.175-.308-.263-.592-.263-.322,0-.555.096-.7.288-.145.192-.217.507-.217.946v2.258h-1.183v-4.308h1.125Z" fill="#221f1f" stroke-width="0"/><path d="M226.785,18.416v.792h-.866v2.133c0,.2.033.333.1.4.066.066.2.1.4.1.066,0,.13-.002.191-.008.061-.005.12-.014.175-.025v.917c-.1.017-.211.028-.333.033s-.242.008-.358.008c-.183,0-.357-.012-.521-.037-.164-.025-.309-.074-.434-.146s-.224-.175-.295-.308c-.072-.133-.108-.309-.108-.525v-2.542h-.717v-.792h.717v-1.292h1.183v1.292h.866Z" fill="#221f1f" stroke-width="0"/><path d="M228.476,18.416v.8h.017c.056-.133.13-.257.225-.371.094-.114.203-.211.325-.292s.253-.143.392-.188.283-.067.434-.067c.078,0,.164.014.258.042v1.1c-.056-.011-.123-.021-.2-.029s-.153-.012-.225-.012c-.216,0-.4.036-.55.108s-.271.17-.362.295-.157.271-.196.438c-.039.167-.059.347-.059.542v1.941h-1.183v-4.308h1.125Z" fill="#221f1f" stroke-width="0"/><path d="M230.467,19.637c.105-.28.255-.52.45-.716.194-.197.428-.35.7-.458.272-.108.578-.163.917-.163s.646.054.921.163.509.261.704.458c.194.197.344.436.45.716.105.281.158.593.158.938s-.053.655-.158.933-.255.515-.45.712c-.195.197-.429.349-.704.454s-.582.158-.921.158-.644-.053-.917-.158c-.272-.105-.505-.257-.7-.454s-.344-.435-.45-.712c-.106-.278-.159-.589-.159-.933s.053-.657.159-.938ZM231.542,21.078c.033.164.09.311.171.441.08.131.188.235.321.312.133.078.3.117.5.117s.368-.039.504-.117c.136-.078.244-.182.325-.312.081-.13.138-.277.171-.441.033-.164.05-.332.05-.504s-.017-.342-.05-.508-.09-.314-.171-.442c-.081-.127-.189-.231-.325-.312-.136-.081-.304-.121-.504-.121s-.366.041-.5.121-.241.185-.321.312c-.081.128-.138.275-.171.442s-.05.336-.05.508.017.34.05.504Z" fill="#221f1f" stroke-width="0"/><path d="M236.75,16.775v5.949h-1.183v-5.949h1.183Z" fill="#221f1f" stroke-width="0"/><path d="M238.899,16.775v5.949h-1.183v-5.949h1.183Z" fill="#221f1f" stroke-width="0"/><path d="M241.099,21.69c.178.172.433.258.767.258.239,0,.444-.06.617-.179.172-.119.277-.246.316-.379h1.042c-.167.517-.422.886-.767,1.108s-.761.333-1.25.333c-.339,0-.645-.054-.917-.163-.272-.108-.503-.262-.692-.462-.189-.2-.334-.438-.437-.716-.103-.278-.154-.583-.154-.917,0-.322.053-.622.158-.9s.255-.518.45-.721c.195-.203.426-.362.696-.479s.568-.175.896-.175c.366,0,.686.071.958.212.272.142.496.332.67.571.175.239.301.511.379.817.078.305.105.625.083.958h-3.107c.017.383.114.661.292.833ZM242.436,19.424c-.142-.155-.357-.233-.646-.233-.189,0-.346.032-.471.096-.125.064-.225.143-.3.238-.075.094-.128.194-.158.3-.031.105-.049.2-.054.283h1.924c-.055-.3-.154-.527-.295-.683Z" fill="#221f1f" stroke-width="0"/><path d="M245.739,18.416v.8h.017c.056-.133.13-.257.225-.371.094-.114.203-.211.325-.292s.253-.143.392-.188.283-.067.434-.067c.078,0,.164.014.258.042v1.1c-.056-.011-.123-.021-.2-.029s-.153-.012-.225-.012c-.216,0-.4.036-.55.108s-.271.17-.362.295-.157.271-.196.438c-.039.167-.059.347-.059.542v1.941h-1.183v-4.308h1.125Z" fill="#221f1f" stroke-width="0"/><path d="M253.097,16.775c.283,0,.541.025.774.075.233.05.434.132.6.246.167.114.296.265.388.454s.138.422.138.7c0,.3-.068.55-.204.75-.137.2-.338.364-.604.491.367.106.641.291.821.554.18.264.271.582.271.954,0,.3-.059.56-.175.779-.117.22-.273.399-.471.538s-.423.242-.675.308c-.253.067-.513.1-.779.1h-2.883v-5.949h2.8ZM252.929,19.183c.234,0,.425-.056.576-.167.149-.111.225-.292.225-.542,0-.139-.025-.253-.075-.342s-.116-.158-.2-.208c-.083-.05-.179-.085-.287-.104s-.221-.029-.337-.029h-1.225v1.392h1.325ZM253.005,21.707c.128,0,.25-.012.366-.038.117-.025.22-.066.309-.125.089-.059.159-.138.212-.238s.079-.228.079-.383c0-.305-.086-.523-.258-.654s-.4-.196-.684-.196h-1.425v1.633h1.4Z" fill="#221f1f" stroke-width="0"/><path d="M45.087,18.362c-.078-.125-.175-.234-.292-.329-.117-.094-.249-.168-.396-.221-.147-.053-.302-.079-.462-.079-.294,0-.544.057-.75.171s-.372.267-.5.458c-.128.192-.221.41-.279.654-.059.245-.088.497-.088.758,0,.25.029.493.088.729.058.236.151.448.279.637s.294.34.5.454.456.171.75.171c.4,0,.712-.122.937-.367.225-.245.363-.566.413-.966h1.267c-.034.372-.12.708-.258,1.008-.139.3-.322.556-.55.767-.228.211-.494.372-.8.483-.305.111-.642.167-1.008.167-.456,0-.865-.079-1.229-.237s-.671-.376-.921-.654c-.25-.277-.441-.604-.575-.979s-.2-.779-.2-1.212c0-.444.067-.857.2-1.237s.325-.712.575-.996c.25-.284.557-.505.921-.667s.773-.242,1.229-.242c.328,0,.637.047.929.142.292.094.553.232.783.412.23.181.421.404.571.671s.244.572.283.917h-1.266c-.022-.15-.072-.288-.15-.413Z" fill="#221f1f" stroke-width="0"/><path d="M47.346,19.637c.105-.28.255-.52.45-.716.194-.197.428-.35.7-.458.272-.108.578-.163.917-.163s.646.054.921.163.509.261.704.458c.194.197.344.436.45.716.105.281.158.593.158.938s-.053.655-.158.933-.255.515-.45.712c-.195.197-.429.349-.704.454s-.582.158-.921.158-.644-.053-.917-.158c-.272-.105-.505-.257-.7-.454s-.344-.435-.45-.712c-.106-.278-.159-.589-.159-.933s.053-.657.159-.938ZM48.42,21.078c.033.164.09.311.171.441.08.131.188.235.321.312.133.078.3.117.5.117s.368-.039.504-.117c.136-.078.244-.182.325-.312.081-.13.138-.277.171-.441.033-.164.05-.332.05-.504s-.017-.342-.05-.508-.09-.314-.171-.442c-.081-.127-.189-.231-.325-.312-.136-.081-.304-.121-.504-.121s-.366.041-.5.121-.241.185-.321.312c-.081.128-.138.275-.171.442s-.05.336-.05.508.017.34.05.504Z" fill="#221f1f" stroke-width="0"/><path d="M53.536,18.416v.6h.025c.15-.25.344-.432.583-.546.239-.114.483-.171.733-.171.317,0,.576.043.779.129.203.086.362.206.479.358s.198.339.246.558.071.462.071.729v2.649h-1.183v-2.433c0-.355-.056-.621-.167-.795-.111-.175-.308-.263-.592-.263-.322,0-.555.096-.7.288-.145.192-.217.507-.217.946v2.258h-1.183v-4.308h1.125Z" fill="#221f1f" stroke-width="0"/><path d="M59.718,18.416v.792h-.866v2.133c0,.2.033.333.1.4.066.066.2.1.4.1.066,0,.13-.002.191-.008.061-.005.12-.014.175-.025v.917c-.1.017-.211.028-.333.033s-.242.008-.358.008c-.183,0-.357-.012-.521-.037-.164-.025-.309-.074-.434-.146s-.224-.175-.295-.308c-.072-.133-.108-.309-.108-.525v-2.542h-.717v-.792h.717v-1.292h1.183v1.292h.866Z" fill="#221f1f" stroke-width="0"/><path d="M61.409,18.416v.8h.017c.056-.133.13-.257.225-.371.094-.114.203-.211.325-.292s.253-.143.392-.188.283-.067.434-.067c.078,0,.164.014.258.042v1.1c-.056-.011-.123-.021-.2-.029s-.153-.012-.225-.012c-.216,0-.4.036-.55.108s-.271.17-.362.295-.157.271-.196.438c-.039.167-.059.347-.059.542v1.941h-1.183v-4.308h1.125Z" fill="#221f1f" stroke-width="0"/><path d="M63.4,19.637c.105-.28.255-.52.45-.716.194-.197.428-.35.7-.458.272-.108.578-.163.917-.163s.646.054.921.163.509.261.704.458c.194.197.344.436.45.716.105.281.158.593.158.938s-.053.655-.158.933-.255.515-.45.712c-.195.197-.429.349-.704.454s-.582.158-.921.158-.644-.053-.917-.158c-.272-.105-.505-.257-.7-.454s-.344-.435-.45-.712c-.106-.278-.159-.589-.159-.933s.053-.657.159-.938ZM64.475,21.078c.033.164.09.311.171.441.08.131.188.235.321.312.133.078.3.117.5.117s.368-.039.504-.117c.136-.078.244-.182.325-.312.081-.13.138-.277.171-.441.033-.164.05-.332.05-.504s-.017-.342-.05-.508-.09-.314-.171-.442c-.081-.127-.189-.231-.325-.312-.136-.081-.304-.121-.504-.121s-.366.041-.5.121-.241.185-.321.312c-.081.128-.138.275-.171.442s-.05.336-.05.508.017.34.05.504Z" fill="#221f1f" stroke-width="0"/><path d="M69.683,16.775v5.949h-1.183v-5.949h1.183Z" fill="#221f1f" stroke-width="0"/><path d="M71.832,16.775v5.949h-1.183v-5.949h1.183Z" fill="#221f1f" stroke-width="0"/><path d="M74.032,21.69c.178.172.433.258.767.258.239,0,.444-.06.617-.179.172-.119.277-.246.316-.379h1.042c-.167.517-.422.886-.767,1.108s-.761.333-1.25.333c-.339,0-.645-.054-.917-.163-.272-.108-.503-.262-.692-.462-.189-.2-.334-.438-.437-.716-.103-.278-.154-.583-.154-.917,0-.322.053-.622.158-.9s.255-.518.45-.721c.195-.203.426-.362.696-.479s.568-.175.896-.175c.366,0,.686.071.958.212.272.142.496.332.67.571.175.239.301.511.379.817.078.305.105.625.083.958h-3.107c.017.383.114.661.292.833ZM75.369,19.424c-.142-.155-.357-.233-.646-.233-.189,0-.346.032-.471.096-.125.064-.225.143-.3.238-.075.094-.128.194-.158.3-.031.105-.049.2-.054.283h1.924c-.055-.3-.154-.527-.295-.683Z" fill="#221f1f" stroke-width="0"/><path d="M78.672,18.416v.8h.017c.056-.133.13-.257.225-.371.094-.114.203-.211.325-.292s.253-.143.392-.188.283-.067.434-.067c.078,0,.164.014.258.042v1.1c-.056-.011-.123-.021-.2-.029s-.153-.012-.225-.012c-.216,0-.4.036-.55.108s-.271.17-.362.295-.157.271-.196.438c-.039.167-.059.347-.059.542v1.941h-1.183v-4.308h1.125Z" fill="#221f1f" stroke-width="0"/><path d="M86.196,16.775l2.225,5.949h-1.358l-.45-1.325h-2.225l-.466,1.325h-1.316l2.25-5.949h1.341ZM86.271,20.424l-.75-2.183h-.017l-.775,2.183h1.542Z" fill="#221f1f" stroke-width="0"/><path d="M43.955,39.781c.372,0,.688.054.95.162.261.108.474.251.637.429.164.178.284.381.358.608.075.228.112.464.112.708,0,.239-.037.474-.112.704-.075.23-.194.435-.358.612-.164.178-.376.321-.637.429s-.578.163-.95.163h-1.375v2.133h-1.308v-5.949h2.683ZM43.596,42.58c.15,0,.294-.011.433-.033.139-.022.261-.065.367-.129.105-.063.19-.154.254-.271.063-.117.096-.27.096-.458s-.032-.341-.096-.458c-.064-.117-.149-.207-.254-.271-.105-.063-.228-.107-.367-.129-.139-.022-.283-.034-.433-.034h-1.017v1.783h1.017Z" fill="#fff" stroke-width="0"/><path d="M47.829,44.263c.072.139.168.251.288.337.119.086.259.15.42.191.161.042.328.062.5.062.117,0,.242-.009.375-.029s.258-.057.375-.113c.117-.055.214-.132.292-.229s.117-.221.117-.371c0-.161-.051-.292-.154-.392-.103-.1-.237-.184-.404-.25-.167-.067-.355-.125-.567-.175-.211-.05-.425-.105-.641-.167-.223-.055-.439-.124-.65-.204-.211-.081-.4-.185-.567-.312-.167-.127-.301-.287-.404-.479-.103-.191-.154-.423-.154-.696,0-.305.065-.57.196-.795s.301-.413.512-.562c.211-.15.45-.261.717-.333.267-.072.533-.108.8-.108.311,0,.609.035.896.104s.54.182.763.337c.222.156.398.354.529.596s.196.535.196.879h-1.267c-.011-.178-.048-.325-.112-.441s-.148-.208-.254-.275c-.106-.067-.227-.114-.363-.142-.136-.028-.285-.042-.445-.042-.106,0-.211.011-.317.034-.105.022-.201.061-.288.117-.086.055-.157.125-.212.208-.056.083-.083.189-.083.317,0,.116.022.211.066.283s.132.139.263.2c.13.062.311.123.542.184s.532.139.904.233c.111.022.265.062.462.121.197.058.393.151.587.279.194.128.362.299.504.513.142.214.213.487.213.821,0,.272-.053.525-.159.758-.105.233-.262.435-.471.604-.208.17-.466.302-.775.396-.308.094-.665.142-1.07.142-.328,0-.646-.041-.954-.121-.308-.081-.581-.207-.816-.379-.236-.172-.424-.392-.562-.658s-.206-.583-.2-.95h1.266c0,.2.036.37.108.508Z" fill="#fff" stroke-width="0"/><path d="M56.61,45.275c-.45.392-1.072.587-1.867.587-.805,0-1.429-.194-1.87-.583-.442-.389-.663-.989-.663-1.8v-3.699h1.308v3.699c0,.161.014.319.042.475.028.155.086.293.175.412.089.12.212.217.371.292.158.075.371.113.637.113.467,0,.789-.104.967-.312.178-.208.267-.535.267-.979v-3.699h1.308v3.699c0,.805-.225,1.404-.675,1.795Z" fill="#fff" stroke-width="0"/><path d="M61.401,45.729v-3.783h-1.466v-.892c.205.006.404-.009.596-.045.191-.036.364-.1.517-.192.152-.092.282-.212.387-.362s.175-.336.208-.558h.941v5.832h-1.183Z" fill="#fff" stroke-width="0"/></svg>