<?xml version="1.0" encoding="UTF-8"?><svg xmlns="http://www.w3.org/2000/svg" width="3.686in" height="3.657in" viewBox="0 0 265.402 263.282"><g id="a"><path d="M154.583,78.586l-.228-14.187c6.881.366,6.588-2.024,6.687-3.684,0,0-.785-8.689-.911-13.694-.146-5.778-4.628-5.509-4.628-5.509l-1.163-2.084,4.113-13.417-.051-10.148-.867-1.326-16.115-1.363-26.791-.343-13.739,2.748c-1.374-1.889-4.122-1.546-4.122-1.546l-11.483,2.094-1.347,2.497-9.397.066c-8.587-.172-8.083,2.497-8.083,2.497l.033,5.717-2.531.17s-.224,64.646,1.02,170.348l.07.383,4.327,2.815,2.189-1.182s8.269,5.103,11.826,7.321c5.983,3.732,5.983,6.434,5.983,6.434l3.732,5.855,9.136,2.509,2.574,2.059,3.86-.515-.257,3.989,5.662,3.474s-.258.878.772,1.737,3.539-.836,3.539-.836l1.218,1.535s4.682,2.095,5.951,2.069,30.136-3.314,30.136-3.314c0,0,4.823-.065,5.485-5.933l28.724-134.629s.521-1.751-.473-3.312-2.319-3.123-2.319-3.123c0,0-.804-.899-2.413-.757l-7.95.284s.189-2.697-1.893-2.839l-7.092-2.588s-.677-.686-13.183-.272Z" fill="#cfd1d2"/><polyline points="63.938 16.731 64.939 203.13 74.482 201.579" fill="none" stroke="#231f20" stroke-miterlimit="10" stroke-width=".5"/><line x1="170.44" y1="182.703" x2="265.425" y2="164.259" fill="#fff" stroke="#231f20" stroke-miterlimit="10" stroke-width=".5"/><path d="M128.341,65.131c.274-.014.566.032.879.024,4.314-.102,28.173-.92,28.173-.92,0,0,4.226.697,3.61-5.434-.616-6.131-.704-8.072-.792-10.934s-.528-6.233-4.578-6.233l-27.293.409s-.281.006-.704.101c0,0-4.79-.938-4.661,4.888s1.036,10.099.906,11.782,1.295,6.474,4.46,6.317Z" fill="none" stroke="#231f20" stroke-linecap="round" stroke-linejoin="round" stroke-width=".5"/><line x1="157.187" y1="50.583" x2="126.212" y2="51.045" fill="none" stroke="#231f20" stroke-linecap="round" stroke-linejoin="round" stroke-width=".5"/><line x1="157.194" y1="47.887" x2="126.471" y2="48.197" fill="none" stroke="#231f20" stroke-linecap="round" stroke-linejoin="round" stroke-width=".5"/><line x1="156.942" y1="45.037" x2="126.471" y2="45.348" fill="none" stroke="#231f20" stroke-linecap="round" stroke-linejoin="round" stroke-width=".5"/><path d="M119.278,45.965c-.119-6.669,5.409-6.697,5.409-6.697l29.63.056s4.101-12.208,4.101-13.715v-4.113s0-5.484,0-5.484c0-2.193-3.737-1.924-3.737-1.924l-30.743-.04s-2.055.073-2.827,1.065v3.801s-.642,4.68-4.633,10.164l1.806,11.944s1.899,10.805,1.896,16.543l2.458,166.833s.417,5.679-2.409,8.27" fill="none" stroke="#231f20" stroke-linecap="round" stroke-linejoin="round" stroke-width=".5"/><rect x="143.316" y="16.388" width="6.229" height="4.284" rx=".813" ry=".813" transform="translate(292.861 37.059) rotate(180)" fill="none" stroke="#231f20" stroke-linecap="round" stroke-linejoin="round" stroke-width=".5"/><rect x="132.489" y="16.388" width="6.229" height="4.284" rx=".813" ry=".813" transform="translate(271.207 37.059) rotate(180)" fill="none" stroke="#231f20" stroke-linecap="round" stroke-linejoin="round" stroke-width=".5"/><path d="M169.752,38.648s1.125-6.751,1.125-8.207v-3.971s0-5.295,0-5.295c0-2.118-2.813-1.858-2.813-1.858l-8.252-.014" fill="none" stroke="#231f20" stroke-linecap="round" stroke-linejoin="round" stroke-width=".5"/><path d="M162.291,55.724c3.993-.127,7.197-.231,7.197-.231,0,0,3.307.516,2.824-4.023s-.551-5.975-.62-8.093c-.069-2.118-.413-4.614-3.582-4.614l-11.167.158" fill="none" stroke="#231f20" stroke-linecap="round" stroke-linejoin="round" stroke-width=".5"/><line x1="169.629" y1="46.825" x2="162.676" y2="46.888" fill="none" stroke="#231f20" stroke-linecap="round" stroke-linejoin="round" stroke-width=".5"/><line x1="169.534" y1="44.829" x2="162.679" y2="44.891" fill="none" stroke="#231f20" stroke-linecap="round" stroke-linejoin="round" stroke-width=".5"/><line x1="169.438" y1="42.624" x2="162.551" y2="42.686" fill="none" stroke="#231f20" stroke-linecap="round" stroke-linejoin="round" stroke-width=".5"/><path d="M154.332,65.238c.047,1.656.123,6.06.22,12.344" fill="none" stroke="#231f20" stroke-linecap="round" stroke-linejoin="round" stroke-width=".5"/><path d="M152.134,78.936l-.131-6.878-1.775-.334c-.052-3.088-.094-5.277-.124-6.338" fill="none" stroke="#231f20" stroke-linecap="round" stroke-linejoin="round" stroke-width=".5"/><path d="M172.518,80.453c-.287-10.974-.479-18.332-.479-18.332,0,0,.773-4.385-3.22-4.385-1.328,0-4.079.078-7.162.183" fill="none" stroke="#231f20" stroke-linecap="round" stroke-linejoin="round" stroke-width=".5"/><path d="M172.813,181.498s2.319-.707,2.19-5.799c-.025-.982-.15-5.809-.337-12.962" fill="none" stroke="#231f20" stroke-linecap="round" stroke-linejoin="round" stroke-width=".5"/><polyline points="166.17 78.632 169.206 67.071 164.568 61.979 159.931 67.354 163.631 78.424" fill="none" stroke="#231f20" stroke-linecap="round" stroke-linejoin="round" stroke-width=".5"/><polyline points="155.718 71.972 156.968 67.213 155.648 65.763" fill="none" stroke="#231f20" stroke-linecap="round" stroke-linejoin="round" stroke-width=".5"/><rect x="159.194" y="21.274" width="4.681" height="3.426" rx=".785" ry=".785" transform="translate(323.068 45.975) rotate(180)" fill="none" stroke="#231f20" stroke-linecap="round" stroke-linejoin="round" stroke-width=".5"/><path d="M202.241,38.156s1.041-6.47,1.041-7.864v-3.805s0-5.074,0-5.074c0-2.029-2.604-1.78-2.604-1.78l-21.421-.037s-1.432.068-1.97.985v3.517s-.447,4.33-3.228,9.404l1.694,14.586s.611,6.052.675,9.676" fill="none" stroke="#231f20" stroke-linecap="round" stroke-linejoin="round" stroke-width=".5"/><path d="M200.721,38.267l-19.766.29s-3.252.072-3.379,3.914l.638,10.437s.255,2.115,3.379,2.043,20.403-.652,20.403-.652c0,0,3.061.494,2.614-3.855-.446-4.349-.51-5.726-.574-7.755s-.383-4.421-3.316-4.421Z" fill="none" stroke="#231f20" stroke-linecap="round" stroke-linejoin="round" stroke-width=".5"/><line x1="202.128" y1="45.992" x2="180.611" y2="46.194" fill="none" stroke="#231f20" stroke-linecap="round" stroke-linejoin="round" stroke-width=".5"/><line x1="202.039" y1="44.08" x2="180.523" y2="44.281" fill="none" stroke="#231f20" stroke-linecap="round" stroke-linejoin="round" stroke-width=".5"/><line x1="201.951" y1="41.966" x2="180.434" y2="42.167" fill="none" stroke="#231f20" stroke-linecap="round" stroke-linejoin="round" stroke-width=".5"/><path d="M180.091,137.068c.501,21.104.898,38.381.898,38.381,0,0-.238,3.931,2.862,4.202" fill="none" stroke="#231f20" stroke-linecap="round" stroke-linejoin="round" stroke-width=".5"/><path d="M178.793,84.102c-.317-12.265-.569-21.153-.666-22.504-.358-5.015,3.935-4.473,3.935-4.473,0,0,15.619-.678,19.316-.678s2.981,4.202,2.981,4.202c0,0,2.198,78.377,2.999,110.213,0,0,.194,3.744-2.195,4.971" fill="none" stroke="#231f20" stroke-linecap="round" stroke-linejoin="round" stroke-width=".5"/><polygon points="201.736 65.393 197.443 60.514 193.151 65.664 197.92 80.438 201.736 65.393" fill="none" stroke="#231f20" stroke-linecap="round" stroke-linejoin="round" stroke-width=".5"/><polygon points="190.409 65.529 186.116 60.649 181.824 65.8 186.593 80.573 190.409 65.529" fill="none" stroke="#231f20" stroke-linecap="round" stroke-linejoin="round" stroke-width=".5"/><polygon points="202.809 99.277 198.516 94.398 194.224 99.548 198.993 114.322 202.809 99.277" fill="none" stroke="#231f20" stroke-linecap="round" stroke-linejoin="round" stroke-width=".5"/><polyline points="185.888 110.366 187.428 115.135 191.243 100.09 188.712 97.213" fill="none" stroke="#231f20" stroke-linecap="round" stroke-linejoin="round" stroke-width=".5"/><polygon points="203.441 132.796 199.149 128.186 194.856 133.052 199.626 147.009 203.441 132.796" fill="none" stroke="#231f20" stroke-linecap="round" stroke-linejoin="round" stroke-width=".5"/><polygon points="191.876 133.879 187.583 129 183.291 134.15 188.06 148.923 191.876 133.879" fill="none" stroke="#231f20" stroke-linecap="round" stroke-linejoin="round" stroke-width=".5"/><polygon points="189.091 124.845 193.384 129.725 197.676 124.574 192.907 109.801 189.091 124.845" fill="none" stroke="#231f20" stroke-linecap="round" stroke-linejoin="round" stroke-width=".5"/><polyline points="190.424 92.95 192.578 95.399 196.87 90.248 192.101 75.475 189.335 86.383" fill="none" stroke="#231f20" stroke-linecap="round" stroke-linejoin="round" stroke-width=".5"/><rect x="192.469" y="21.508" width="4.332" height="3.283" rx=".752" ry=".752" transform="translate(389.27 46.3) rotate(-180)" fill="none" stroke="#231f20" stroke-linecap="round" stroke-linejoin="round" stroke-width=".5"/><rect x="184.939" y="21.508" width="4.332" height="3.283" rx=".752" ry=".752" transform="translate(374.21 46.3) rotate(-180)" fill="none" stroke="#231f20" stroke-linecap="round" stroke-linejoin="round" stroke-width=".5"/><path d="M230.666,37.556s.943-6.207.943-7.545c0-.811,0-3.651,0-3.651v-4.868c0-1.947-2.357-1.708-2.357-1.708l-19.393-.035s-1.296.065-1.784.945v3.374s-.405,4.154-2.923,9.022l1.534,13.994s.553,5.806.611,9.283" fill="none" stroke="#231f20" stroke-linecap="round" stroke-linejoin="round" stroke-width=".5"/><path d="M229.291,37.662l-17.895.278s-2.944.07-3.059,3.755l.577,10.014s.231,2.029,3.059,1.96,18.472-.626,18.472-.626c0,0,2.771.474,2.367-3.698-.404-4.172-.462-5.494-.52-7.441s-.346-4.242-3.002-4.242Z" fill="none" stroke="#231f20" stroke-linecap="round" stroke-linejoin="round" stroke-width=".5"/><line x1="230.564" y1="45.074" x2="211.084" y2="45.267" fill="none" stroke="#231f20" stroke-linecap="round" stroke-linejoin="round" stroke-width=".5"/><line x1="230.484" y1="43.239" x2="211.004" y2="43.433" fill="none" stroke="#231f20" stroke-linecap="round" stroke-linejoin="round" stroke-width=".5"/><line x1="230.404" y1="41.211" x2="210.924" y2="41.405" fill="none" stroke="#231f20" stroke-linecap="round" stroke-linejoin="round" stroke-width=".5"/><path d="M233.231,170.182s1.943-.65,1.835-5.332c-.108-4.681-2.483-105.714-2.483-105.714,0,0,.648-4.031-2.699-4.031s-17.487.65-17.487.65c0,0-3.886-.52-3.562,4.291.232,3.444,1.459,78.337,2.138,109.249,0,0,.322,4.882,4.31,4.723" fill="none" stroke="#231f20" stroke-linecap="round" stroke-linejoin="round" stroke-width=".5"/><polygon points="230.209 63.688 226.323 59.007 222.437 63.948 226.755 78.122 230.209 63.688" fill="none" stroke="#231f20" stroke-linecap="round" stroke-linejoin="round" stroke-width=".5"/><polygon points="219.954 63.818 216.068 59.137 212.182 64.078 216.5 78.252 219.954 63.818" fill="none" stroke="#231f20" stroke-linecap="round" stroke-linejoin="round" stroke-width=".5"/><polygon points="231.18 96.197 227.294 91.516 223.408 96.457 227.726 110.632 231.18 96.197" fill="none" stroke="#231f20" stroke-linecap="round" stroke-linejoin="round" stroke-width=".5"/><polygon points="220.71 96.978 216.824 92.296 212.938 97.238 217.255 111.412 220.71 96.978" fill="none" stroke="#231f20" stroke-linecap="round" stroke-linejoin="round" stroke-width=".5"/><polygon points="231.753 128.356 227.867 123.934 223.981 128.602 228.299 141.993 231.753 128.356" fill="none" stroke="#231f20" stroke-linecap="round" stroke-linejoin="round" stroke-width=".5"/><polygon points="221.282 129.395 217.396 124.714 213.51 129.655 217.828 143.83 221.282 129.395" fill="none" stroke="#231f20" stroke-linecap="round" stroke-linejoin="round" stroke-width=".5"/><polygon points="218.761 120.728 222.647 125.41 226.534 120.468 222.216 106.294 218.761 120.728" fill="none" stroke="#231f20" stroke-linecap="round" stroke-linejoin="round" stroke-width=".5"/><polygon points="218.032 87.795 221.918 92.476 225.804 87.535 221.486 73.361 218.032 87.795" fill="none" stroke="#231f20" stroke-linecap="round" stroke-linejoin="round" stroke-width=".5"/><rect x="221.819" y="21.584" width="3.922" height="3.15" rx=".721" ry=".721" transform="translate(447.561 46.317) rotate(-180)" fill="none" stroke="#231f20" stroke-linecap="round" stroke-linejoin="round" stroke-width=".5"/><rect x="215.002" y="21.584" width="3.922" height="3.15" rx=".721" ry=".721" transform="translate(433.926 46.317) rotate(-180)" fill="none" stroke="#231f20" stroke-linecap="round" stroke-linejoin="round" stroke-width=".5"/><path d="M258.618,36.927s.909-6.015.909-7.312c0-.786,0-3.538,0-3.538v-4.717c0-1.887-2.273-1.655-2.273-1.655l-18.7-.034s-1.25.063-1.72.916v3.27s-.39,4.026-2.818,8.743l1.479,13.562s.534,5.627.589,8.996" fill="none" stroke="#231f20" stroke-linecap="round" stroke-linejoin="round" stroke-width=".5"/><path d="M257.292,37.03l-17.255.27s-2.839.067-2.95,3.639l.557,9.704s.223,1.967,2.95,1.899c2.727-.067,17.811-.607,17.811-.607,0,0,2.672.459,2.282-3.584s-.445-5.324-.501-7.211-.334-4.111-2.894-4.111Z" fill="none" stroke="#231f20" stroke-linecap="round" stroke-linejoin="round" stroke-width=".5"/><line x1="258.52" y1="44.213" x2="239.736" y2="44.4" fill="none" stroke="#231f20" stroke-linecap="round" stroke-linejoin="round" stroke-width=".5"/><line x1="258.442" y1="42.435" x2="239.659" y2="42.622" fill="none" stroke="#231f20" stroke-linecap="round" stroke-linejoin="round" stroke-width=".5"/><line x1="258.365" y1="40.469" x2="239.582" y2="40.657" fill="none" stroke="#231f20" stroke-linecap="round" stroke-linejoin="round" stroke-width=".5"/><path d="M261.091,164.199s1.874-.63,1.769-5.167c-.104-4.537-2.394-101.192-2.394-101.192,0,0,.625-3.907-2.602-3.907s-16.862.63-16.862.63c0,0-3.747-.504-3.435,4.159.312,4.663,2.498,105.855,2.498,105.855,0,0-.208,3.655,2.498,3.907" fill="none" stroke="#231f20" stroke-linecap="round" stroke-linejoin="round" stroke-width=".5"/><polygon points="258.177 62.251 254.43 57.714 250.683 62.503 254.846 76.239 258.177 62.251" fill="none" stroke="#231f20" stroke-linecap="round" stroke-linejoin="round" stroke-width=".5"/><polygon points="248.289 62.377 244.542 57.84 240.795 62.629 244.958 76.365 248.289 62.377" fill="none" stroke="#231f20" stroke-linecap="round" stroke-linejoin="round" stroke-width=".5"/><polygon points="259.114 93.755 255.367 89.219 251.62 94.007 255.783 107.743 259.114 93.755" fill="none" stroke="#231f20" stroke-linecap="round" stroke-linejoin="round" stroke-width=".5"/><polygon points="249.018 94.512 245.271 89.975 241.524 94.764 245.687 108.499 249.018 94.512" fill="none" stroke="#231f20" stroke-linecap="round" stroke-linejoin="round" stroke-width=".5"/><polygon points="259.666 124.92 255.919 120.634 252.172 125.158 256.335 138.135 259.666 124.92" fill="none" stroke="#231f20" stroke-linecap="round" stroke-linejoin="round" stroke-width=".5"/><polygon points="249.57 125.927 245.823 121.39 242.076 126.179 246.239 139.915 249.57 125.927" fill="none" stroke="#231f20" stroke-linecap="round" stroke-linejoin="round" stroke-width=".5"/><polygon points="247.139 117.528 250.886 122.065 254.633 117.276 250.47 103.54 247.139 117.528" fill="none" stroke="#231f20" stroke-linecap="round" stroke-linejoin="round" stroke-width=".5"/><polygon points="246.436 85.613 250.183 90.149 253.93 85.361 249.767 71.625 246.436 85.613" fill="none" stroke="#231f20" stroke-linecap="round" stroke-linejoin="round" stroke-width=".5"/><rect x="250.087" y="21.448" width="3.782" height="3.053" rx=".699" ry=".699" transform="translate(503.957 45.949) rotate(-180)" fill="none" stroke="#231f20" stroke-linecap="round" stroke-linejoin="round" stroke-width=".5"/><rect x="243.514" y="21.448" width="3.782" height="3.053" rx=".699" ry=".699" transform="translate(490.81 45.949) rotate(-180)" fill="none" stroke="#231f20" stroke-linecap="round" stroke-linejoin="round" stroke-width=".5"/><path d="M259.927,143.53s-.163-1.974-1.033-1.974-14.401,2.369-14.401,2.369c0,0-1.196.066-1.141,1.974.054,1.908.435,14.08.435,14.08,0,0,.054,2.105,1.359,1.908,1.304-.197,14.075-2.763,14.075-2.763,0,0,1.033-.461,1.033-1.908s-.326-13.685-.326-13.685Z" fill="none" stroke="#231f20" stroke-linecap="round" stroke-linejoin="round" stroke-width=".5"/><path d="M202.405,152.99s-.173-2.096-1.096-2.096-15.289,2.515-15.289,2.515c0,0-1.269.07-1.212,2.096.058,2.026.462,14.948.462,14.948,0,0,.058,2.235,1.442,2.026,1.385-.21,14.942-2.934,14.942-2.934,0,0,1.096-.489,1.096-2.026s-.346-14.529-.346-14.529Z" fill="none" stroke="#231f20" stroke-linecap="round" stroke-linejoin="round" stroke-width=".531"/><path d="M72.302,18.926s-6.126.204-5.955,2.602.171,5.397.171,5.397l-1.884.074" fill="none" stroke="#231f20" stroke-linecap="round" stroke-linejoin="round" stroke-width=".5"/><line x1="85.623" y1="209.929" x2="55.71" y2="215.689" fill="none" stroke="#231f20" stroke-linecap="round" stroke-linejoin="round" stroke-width=".5"/><line x1="169.89" y1="193.579" x2="265.31" y2="174.041" fill="none" stroke="#231f20" stroke-linecap="round" stroke-linejoin="round" stroke-width=".5"/><line x1="161.39" y1="16.571" x2="259.18" y2="16.719" fill="none" stroke="#231f20" stroke-linecap="round" stroke-linejoin="round" stroke-width=".5"/><line x1="55.52" y1="16.48" x2="83.218" y2="16.215" fill="none" stroke="#231f20" stroke-linecap="round" stroke-linejoin="round" stroke-width=".5"/><line x1="55.218" y1="9.521" x2="259.18" y2="10.095" fill="none" stroke="#231f20" stroke-linecap="round" stroke-linejoin="round" stroke-width=".5"/><line x1="182.955" y1="179.547" x2="175.354" y2="175.353" fill="none" stroke="#231f20" stroke-linecap="round" stroke-linejoin="round" stroke-width=".5"/><line x1="241.983" y1="168.859" x2="235.181" y2="166.308" fill="none" stroke="#231f20" stroke-linecap="round" stroke-linejoin="round" stroke-width=".5"/><line x1="213.644" y1="174.152" x2="207.487" y2="171.766" fill="none" stroke="#231f20" stroke-linecap="round" stroke-linejoin="round" stroke-width=".5"/><path d="M126.44,206.861c-.325-.654-.629-1.31-.918-1.946-1.608-3.537.322-4.02.322-4.02-.482-2.251-3.216-6.753-3.216-6.753l6.519-.855" fill="none" stroke="#231f20" stroke-linecap="round" stroke-linejoin="round" stroke-width=".5"/><line x1="134.688" y1="142.923" x2="133.902" y2="66.097" fill="none" stroke="#231f20" stroke-linecap="round" stroke-linejoin="round" stroke-width=".5"/><line x1="134.984" y1="163.935" x2="134.821" y2="150.817" fill="none" stroke="#231f20" stroke-linecap="round" stroke-linejoin="round" stroke-width=".5"/><path d="M141.055,133.105c-.046-3.232-.099-6.136-.099-6.136,0,0-.336-1.68,2.015-1.344" fill="none" stroke="#231f20" stroke-linecap="round" stroke-linejoin="round" stroke-width=".5"/><path d="M144.557,115.74l-.776-.276s-3.023-.733-3.023-4.595c0-3.863-.168-12.261-.168-12.261,0,0-.336-1.668,2.015-1.411,1.315.144,3.685.702,5.518,1.166" fill="none" stroke="#231f20" stroke-linecap="round" stroke-linejoin="round" stroke-width=".5"/><path d="M150.02,90.555l-6.046-1.929s-3.023-.733-3.023-4.595c0-3.863-.168-12.261-.168-12.261,0,0-.336-1.668,2.015-1.411s8.071,1.617,8.071,1.617" fill="none" stroke="#231f20" stroke-linecap="round" stroke-linejoin="round" stroke-width=".5"/><path d="M138.342,147.227c-4.645.104-11.538.507-15.713,1.913" fill="none" stroke="#231f20" stroke-linecap="round" stroke-linejoin="round" stroke-width=".5"/><path d="M122.422,144.391c1.79-.619,10.944-1.032,10.944-1.032,1.192.439,3.341,1.278,5.328,2.062" fill="none" stroke="#231f20" stroke-linecap="round" stroke-linejoin="round" stroke-width=".5"/><path d="M137.829,149.707c-4.28.065-10.26.394-14.994,1.567" fill="none" stroke="#231f20" stroke-linecap="round" stroke-linejoin="round" stroke-width=".5"/><path d="M132.573,174.505c-3.307-.694-6.691,2.089-7.557,6.217-.866,4.128,1.112,8.036,4.42,8.731" fill="none" stroke="#231f20" stroke-linecap="round" stroke-linejoin="round" stroke-width=".5"/><path d="M133.139,174.437l-7.305-3.7s-2.207.845-2.442,2.258" fill="none" stroke="#231f20" stroke-linecap="round" stroke-linejoin="round" stroke-width=".5"/><ellipse cx="129.084" cy="115.065" rx="2.72" ry="3.133" fill="none" stroke="#231f20" stroke-linecap="round" stroke-linejoin="round" stroke-width=".5"/><ellipse cx="129.339" cy="131.907" rx="2.72" ry="3.133" fill="none" stroke="#231f20" stroke-linecap="round" stroke-linejoin="round" stroke-width=".5"/><ellipse cx="124.826" cy="107.467" rx="2.72" ry="3.133" fill="none" stroke="#231f20" stroke-linecap="round" stroke-linejoin="round" stroke-width=".5"/><ellipse cx="125.209" cy="124.053" rx="2.72" ry="3.133" fill="none" stroke="#231f20" stroke-linecap="round" stroke-linejoin="round" stroke-width=".5"/><path d="M134.513,126.209c-.202.055-.412.084-.628.084-1.502,0-2.72-1.403-2.72-3.133,0-1.731,1.218-3.133,2.72-3.133.188,0,.371.022.548.064" fill="none" stroke="#231f20" stroke-linecap="round" stroke-linejoin="round" stroke-width=".5"/><ellipse cx="125.464" cy="140.767" rx="2.72" ry="3.133" fill="none" stroke="#231f20" stroke-linecap="round" stroke-linejoin="round" stroke-width=".5"/><path d="M123.046,160.288c.413-1.125,1.379-1.914,2.506-1.914,1.502,0,2.72,1.403,2.72,3.133,0,1.731-1.218,3.133-2.72,3.133-1.126,0-2.093-.789-2.506-1.914" fill="none" stroke="#231f20" stroke-linecap="round" stroke-linejoin="round" stroke-width=".5"/><path d="M131.042,150.256c.42.551.674,1.274.674,2.065,0,1.731-1.218,3.133-2.72,3.133s-2.72-1.403-2.72-3.133c0-.509.105-.99.293-1.415" fill="none" stroke="#231f20" stroke-linecap="round" stroke-linejoin="round" stroke-width=".5"/><path d="M121.889,129.475c1.239.292,2.171,1.556,2.171,3.07,0,1.436-.838,2.646-1.981,3.016" fill="none" stroke="#231f20" stroke-linecap="round" stroke-linejoin="round" stroke-width=".5"/><path d="M120.958,112.57c1.502,0,2.72,1.403,2.72,3.133,0,1.731-1.218,3.133-2.72,3.133" fill="none" stroke="#231f20" stroke-linecap="round" stroke-linejoin="round" stroke-width=".5"/><path d="M133.891,109.636c-.256.092-.529.142-.812.142-1.502,0-2.72-1.403-2.72-3.133s1.218-3.133,2.72-3.133c.371,0,.724.086,1.047.24" fill="none" stroke="#231f20" stroke-linecap="round" stroke-linejoin="round" stroke-width=".5"/><path d="M134.462,142.426c-.186.046-.379.071-.577.071-1.502,0-2.72-1.403-2.72-3.133,0-1.731,1.218-3.133,2.72-3.133.188,0,.371.022.548.064" fill="none" stroke="#231f20" stroke-linecap="round" stroke-linejoin="round" stroke-width=".5"/><path d="M134.725,162.503c-.265.099-.547.152-.84.152-1.502,0-2.72-1.403-2.72-3.133s1.218-3.133,2.72-3.133c.245,0,.482.037.708.107" fill="none" stroke="#231f20" stroke-linecap="round" stroke-linejoin="round" stroke-width=".5"/><path d="M134.1,92.922s-8.421-1.148-10.972.383" fill="none" stroke="#231f20" stroke-linecap="round" stroke-linejoin="round" stroke-width=".5"/><path d="M134.1,95.729s-8.421-1.148-10.972.383" fill="none" stroke="#231f20" stroke-linecap="round" stroke-linejoin="round" stroke-width=".5"/><polyline points="120.576 91.646 122.362 92.284 122.617 101.725 120.831 103.129" fill="none" stroke="#231f20" stroke-linecap="round" stroke-linejoin="round" stroke-width=".5"/><line x1="128.782" y1="189.509" x2="123.745" y2="186.301" fill="none" stroke="#231f20" stroke-linecap="round" stroke-linejoin="round" stroke-width=".5"/><path d="M103.566,205.531l3.606.902,6.723-2.498-2.567-182.116-.715-1.191.616-4.862c.357-3.215,5.999-2.991,5.999-2.991l24.317.376,15.668,1.253" fill="none" stroke="#231f20" stroke-linecap="round" stroke-linejoin="round" stroke-width=".5"/><path d="M118.932,63.08l-2.04,2.947s3.4,155.722,2.833,161.842-4.987,4.42-4.987,4.42l-.769-1.637-5.585-3.614s1.862-7.337-2.738-9.856" fill="none" stroke="#231f20" stroke-linecap="round" stroke-linejoin="round" stroke-width=".5"/><polyline points="109.958 22.677 98.677 25.309 102.362 221.672 104.771 223.533 108.385 223.095" fill="none" stroke="#231f20" stroke-linecap="round" stroke-linejoin="round" stroke-width=".5"/><polyline points="102.034 200.536 104.114 201.741 113.751 202.398" fill="none" stroke="#231f20" stroke-linecap="round" stroke-linejoin="round" stroke-width=".5"/><path d="M113.313,188.49l-4.818-.438s-.986.329-1.095-1.971,0-10.294,0-10.294c0,0,.219-1.095,1.533-1.095s4.38.329,4.38.329" fill="none" stroke="#231f20" stroke-linecap="round" stroke-linejoin="round" stroke-width=".5"/><path d="M112.437,160.127l-4.818-.438s-.986.329-1.095-1.971,0-10.294,0-10.294c0,0,.219-1.095,1.533-1.095s4.38.329,4.38.329" fill="none" stroke="#231f20" stroke-linecap="round" stroke-linejoin="round" stroke-width=".5"/><path d="M111.89,131.325l-4.818-.438s-.986.329-1.095-1.971,0-10.294,0-10.294c0,0,.219-1.095,1.533-1.095s4.38.329,4.38.329" fill="none" stroke="#231f20" stroke-linecap="round" stroke-linejoin="round" stroke-width=".5"/><path d="M111.671,102.633l-4.818-.438s-.986.329-1.095-1.971,0-10.294,0-10.294c0,0,.219-1.095,1.533-1.095s4.38.329,4.38.329" fill="none" stroke="#231f20" stroke-linecap="round" stroke-linejoin="round" stroke-width=".5"/><path d="M111.085,73.912l-4.823-.408s-.982.351-1.115-2.038-.106-10.702-.106-10.702c0,0,.208-1.141,1.522-1.154s4.384.298,4.384.298" fill="none" stroke="#231f20" stroke-linecap="round" stroke-linejoin="round" stroke-width=".5"/><path d="M101.889,191.372s.826,1.755,6.194,2.22c0,0,2.777,1.277.413,2.736-2.276,1.405-6.521-1.419-6.4-1.29" fill="none" stroke="#231f20" stroke-linecap="round" stroke-linejoin="round" stroke-width=".5"/><path d="M101.032,163.504s.925,1.705,6.311,1.861c0,0,2.845,1.115.569,2.707-2.192,1.533-6.592-1.042-6.464-.921" fill="none" stroke="#231f20" stroke-linecap="round" stroke-linejoin="round" stroke-width=".5"/><path d="M101.032,135.719s.925,1.705,6.311,1.861c0,0,2.845,1.115.569,2.707-2.192,1.533-6.592-1.042-6.464-.921" fill="none" stroke="#231f20" stroke-linecap="round" stroke-linejoin="round" stroke-width=".5"/><path d="M99.849,106.908s1.047,1.633,6.43,1.396c0,0,2.919.905.765,2.659-2.074,1.689-6.65-.56-6.514-.448" fill="none" stroke="#231f20" stroke-linecap="round" stroke-linejoin="round" stroke-width=".5"/><path d="M99.059,78.573s1.109,1.591,6.479,1.147c0,0,2.952.792.867,2.627-2.008,1.767-6.667-.303-6.526-.197" fill="none" stroke="#231f20" stroke-linecap="round" stroke-linejoin="round" stroke-width=".5"/><path d="M99.509,49.312s1.109,1.591,6.479,1.147c0,0,2.952.792.867,2.627-2.008,1.767-6.667-.303-6.526-.197" fill="none" stroke="#231f20" stroke-linecap="round" stroke-linejoin="round" stroke-width=".5"/><line x1="111.264" y1="44.752" x2="99.388" y2="44.674" fill="none" stroke="#231f20" stroke-linecap="round" stroke-linejoin="round" stroke-width=".5"/><path d="M111.689,13.437l-10.549,1.934s-1.934-1.934-4.219-1.231-4.395,2.11-3.868,4.923l8.966-.352" fill="none" stroke="#231f20" stroke-linecap="round" stroke-linejoin="round" stroke-width=".5"/><polyline points="95.163 20.294 98.151 220.366 102.362 221.672" fill="none" stroke="#231f20" stroke-linecap="round" stroke-linejoin="round" stroke-width=".5"/><path d="M101.763,188.671s-3.446.481-4.088-.882" fill="none" stroke="#231f20" stroke-linecap="round" stroke-linejoin="round" stroke-width=".5"/><path d="M96.921,14.14l-11.622,2.051s-.828,1.212-1.344,2.569c-.328.862-.53,1.782-.315,2.488l-12.643,1.501s-1.422-4.03,3.003-4.03l9.245-.079" fill="none" stroke="#231f20" stroke-linecap="round" stroke-linejoin="round" stroke-width=".5"/><path d="M76.47,36.169s1.32-.584,1.521,1.621l.199,15.963-6.329.352s-1.603.1-1.503-1.603-.1-14.128-.1-14.128c0,0-.2-1.603,1.703-1.703s4.509-.501,4.509-.501Z" fill="none" stroke="#231f20" stroke-linecap="round" stroke-linejoin="round" stroke-width=".5"/><path d="M76.47,63.506s1.32-.471,1.521,1.751l.199,15.98-6.329-.189s-1.603-.037-1.503-1.731-.1-14.137-.1-14.137c0,0-.2-1.62,1.703-1.558s4.509-.116,4.509-.116Z" fill="none" stroke="#231f20" stroke-linecap="round" stroke-linejoin="round" stroke-width=".5"/><path d="M77.089,91.718s1.298-.396,1.482,1.782l.109,15.608-6.207-.49s-1.572-.113-1.465-1.763-.022-13.803-.022-13.803c0,0-.188-1.591,1.679-1.438s4.424.104,4.424.104Z" fill="none" stroke="#231f20" stroke-linecap="round" stroke-linejoin="round" stroke-width=".5"/><path d="M77.531,119.512s1.139-.211,1.356,1.917l.484,15.091-5.507-1.292s-1.395-.317-1.341-1.896c.054-1.579-.362-13.337-.362-13.337,0,0-.206-1.562,1.451-1.168s3.919.684,3.919.684Z" fill="none" stroke="#231f20" stroke-linecap="round" stroke-linejoin="round" stroke-width=".5"/><path d="M78.566,146.738s1.115-.045,1.322,2.161l.427,15.487-5.386-2.145s-1.364-.533-1.306-2.137c.058-1.605-.314-13.676-.314-13.676,0,0-.197-1.626,1.424-.976s3.833,1.286,3.833,1.286Z" fill="none" stroke="#231f20" stroke-linecap="round" stroke-linejoin="round" stroke-width=".5"/><path d="M78.838,173.288s.967-.041,1.154,2.166l.426,15.487-4.679-2.164s-1.185-.537-1.141-2.142-.321-13.676-.321-13.676c0,0-.176-1.627,1.231-.97s3.33,1.3,3.33,1.3Z" fill="none" stroke="#231f20" stroke-linecap="round" stroke-linejoin="round" stroke-width=".5"/><path d="M98.151,220.366l-5.224-1.366s-2.511-3.296-3.924-6.75-5.651-5.337-5.651-5.337l-11.773-7.534-2.198,1.256-4.263-2.794" fill="none" stroke="#231f20" stroke-linecap="round" stroke-linejoin="round" stroke-width=".5"/><path d="M232.103,147.556s-.169-2.049-1.072-2.049-14.95,2.459-14.95,2.459c0,0-1.241.068-1.185,2.049.056,1.981.451,14.617.451,14.617,0,0,.056,2.186,1.41,1.981,1.354-.205,14.611-2.869,14.611-2.869,0,0,1.072-.478,1.072-1.981s-.338-14.207-.338-14.207Z" fill="none" stroke="#231f20" stroke-linecap="round" stroke-linejoin="round" stroke-width=".519"/><path d="M141.99,215.11l-.274.983-5.86.531c.06-.245.169-.486.326-.723.254-.389.596-.779,1.026-1.173s1.022-.857,1.777-1.392c1.171-.83,1.987-1.478,2.446-1.942.459-.464.743-.891.851-1.277.113-.406.055-.734-.176-.984-.23-.25-.594-.354-1.09-.309-.524.048-.985.234-1.381.557-.397.324-.671.748-.821,1.272l-1.089-.007c.296-.791.751-1.415,1.366-1.872.615-.456,1.344-.723,2.186-.799.851-.077,1.463.083,1.834.483.372.398.467.925.284,1.581-.093.334-.257.668-.492,1.004-.235.335-.571.696-1.007,1.083-.436.387-1.132.927-2.088,1.619-.797.575-1.314.963-1.55,1.163-.237.201-.442.4-.615.597l4.348-.394Z"/><path d="M145.58,215.742l2.052-7.351-2.921.265.275-.984,7.028-.637-.275.984-2.933.266-2.052,7.351-1.173.106Z"/><path d="M150.842,215.265l2.326-8.335,3.327-.302c.677-.061,1.197-.026,1.559.105.362.132.61.362.744.692.134.33.147.686.041,1.069-.099.356-.296.701-.589,1.034-.293.334-.675.616-1.144.846.495.1.837.314,1.026.644s.216.738.08,1.223c-.109.39-.298.761-.567,1.112-.269.352-.558.63-.867.836-.309.205-.671.372-1.086.5-.415.129-.905.218-1.469.269l-3.381.307ZM153.364,210.326l1.917-.174c.52-.047.902-.113,1.146-.198.322-.11.585-.269.79-.476.205-.207.349-.457.43-.748.077-.277.075-.514-.008-.712-.082-.197-.244-.323-.484-.377-.241-.054-.68-.051-1.316.006l-1.772.161-.703,2.518ZM152.29,214.176l2.208-.2c.379-.034.649-.072.809-.113.283-.07.53-.166.741-.289.211-.122.403-.29.577-.504.173-.213.297-.452.371-.717.087-.311.078-.573-.028-.788s-.295-.353-.57-.419c-.274-.065-.694-.072-1.258-.021l-2.05.186-.8,2.865Z"/><path d="M134.271,226.292l1.226-4.391,3.202-.29-.207.743-2.259.205-.29,1.039,1.95-.177-.207.743-1.95.177-.521,1.866-.943.086Z"/><path d="M138.276,225.928l1.216-4.356.943-.086-1.009,3.616,2.345-.213-.207.74-3.288.298Z"/><path d="M146.45,225.187l-1.026.093-.13-.96-1.867.169-.664,1.032-1.001.091,3.045-4.556.997-.09.645,4.222ZM145.198,223.608l-.189-1.572-1.086,1.687,1.274-.116Z"/><path d="M147.11,223.734l.941-.167c-.026.285.027.487.158.608.131.12.34.167.627.141.304-.028.549-.108.737-.244.188-.134.304-.283.349-.444.029-.104.021-.19-.023-.256-.045-.067-.14-.12-.287-.159-.1-.026-.334-.068-.701-.123-.473-.072-.787-.185-.943-.338-.219-.216-.281-.497-.184-.845.062-.223.188-.439.377-.646s.425-.373.707-.498c.282-.124.603-.204.962-.236.587-.053.994.028,1.223.243.229.215.295.523.197.925l-.954.124c.022-.221-.019-.376-.124-.463-.105-.087-.29-.118-.556-.094-.274.025-.504.098-.688.217-.119.077-.194.172-.226.287-.029.104-.007.189.066.253.093.083.354.155.785.215.43.06.74.134.93.224.19.089.32.222.392.399.072.178.068.405-.009.683-.07.251-.21.494-.42.727-.21.233-.466.416-.768.548-.302.131-.655.215-1.061.252-.591.054-1.008-.034-1.253-.261s-.329-.585-.254-1.071Z"/><path d="M151.306,224.747l1.226-4.391.943-.086-.482,1.728,1.848-.168.482-1.728.943-.086-1.226,4.391-.943.086.536-1.92-1.848.168-.536,1.92-.943.086Z"/><polyline points="118.656 231.456 119.874 232.99 123.246 234.394" fill="none" stroke="#231f20" stroke-linecap="round" stroke-linejoin="round" stroke-width=".5"/><line x1="132.275" y1="220.395" x2="160.315" y2="217.603" fill="none" stroke="#231f20" stroke-miterlimit="10" stroke-width=".5"/><path d="M164.301,84.175s-.063-2.599,1.521-2.599h9.192s1.965-.254,1.585,2.409" fill="none" stroke="#231f20" stroke-miterlimit="10" stroke-width=".5"/><path d="M154.285,84.682l30.492-.634s1.585-.19,2.662,1.014,2.029,2.789,2.029,2.789c0,0,.824,1.712.38,3.487s-28.662,134.572-28.662,134.572c0,0,.158,4.887-5.045,5.675s-29.479,3.468-29.479,3.468c0,0-5.202.315-5.045-3.626l28.533-143.454s1.015-3.274,4.133-3.292Z" fill="none" stroke="#231f20" stroke-miterlimit="10" stroke-width=".5"/><path d="M126.663,235.054c-1.48-1.209-1.267-3.566-1.267-3.566,0,0,28.872-136.228,29.424-139.599s3.616-2.819,3.616-2.819l27.643-.306s3.678-.306,3.616,3.432" fill="none" stroke="#231f20" stroke-miterlimit="10" stroke-width=".5"/><path d="M175.661,81.65l-5.35-1.963s-3.927-1.08-6.578-.196c0,0-1.227.196-1.129.687s2.602,1.473,2.602,1.473" fill="none" stroke="#231f20" stroke-miterlimit="10" stroke-width=".5"/><polyline points="162.604 80.178 162.26 82.387 164.322 83.859" fill="none" stroke="#231f20" stroke-linecap="round" stroke-linejoin="round" stroke-width=".5"/><path d="M155.731,98.143l7.455-6.035,5.68,6.627-8.402,18.105s-1.42,2.84-2.958.71l-1.775-19.407Z" fill="none" stroke="#231f20" stroke-linecap="round" stroke-linejoin="round" stroke-width=".5"/><path d="M171.824,98.143l8.283-6.627,5.798,7.337-8.047,17.04s-2.13,3.195-3.668,1.065l-2.367-18.815Z" fill="none" stroke="#231f20" stroke-linecap="round" stroke-linejoin="round" stroke-width=".5"/><path d="M157.506,130.329l5.325,6.627,8.283-6.153-2.248-17.987s-1.183-2.958-2.603-.237-8.757,17.75-8.757,17.75Z" fill="none" stroke="#231f20" stroke-linecap="round" stroke-linejoin="round" stroke-width=".5"/><path d="M146.856,141.69l7.455-6.035,5.68,6.153-8.165,17.395s-1.183,2.248-2.84.71l-2.13-18.223Z" fill="none" stroke="#231f20" stroke-linecap="round" stroke-linejoin="round" stroke-width=".5"/><path d="M163.541,141.69l6.982-6.39,5.798,6.035-8.047,17.04s-1.538,2.485-2.485.947l-2.248-17.632Z" fill="none" stroke="#231f20" stroke-linecap="round" stroke-linejoin="round" stroke-width=".5"/><path d="M148.929,172.171l5.2,6.553,7.593-6.033-1.664-17.994s-.936-1.56-1.872.104-9.257,17.37-9.257,17.37Z" fill="none" stroke="#231f20" stroke-linecap="round" stroke-linejoin="round" stroke-width=".5"/><path d="M138.424,184.444l7.385-7.073,5.617,5.409-7.905,17.162s-1.456,2.496-2.496.312l-2.6-15.81Z" fill="none" stroke="#231f20" stroke-linecap="round" stroke-linejoin="round" stroke-width=".5"/><path d="M155.17,182.052l7.281-5.929,5.096,5.305-8.217,17.578s-1.144,2.08-2.184-.104l-1.976-16.85Z" fill="none" stroke="#231f20" stroke-linecap="round" stroke-linejoin="round" stroke-width=".5"/><path d="M137.452,204.848l23.706-1.991s1.81-.422,1.508,1.568-4.102,19.846-4.102,19.846c0,0-.483,1.87-2.292,1.991s-24.068,2.473-24.068,2.473c0,0-1.87-.241-1.448-2.232s3.861-19.725,3.861-19.725c0,0,.422-1.568,2.835-1.93Z" fill="none" stroke="#231f20" stroke-linecap="round" stroke-linejoin="round" stroke-width=".5"/><path d="M156.21,84.375c1.351-.351-1.289-1.192-3.815-1.178-1.14.006-1.705-4.413,2.44-4.654s6.337-.061,8.74-.001,4.326.3,5.948.901" fill="none" stroke="#231f20" stroke-linecap="round" stroke-linejoin="round" stroke-width=".5"/><path d="M162.18,82.424s-5.019-3.153-9.996-2.749" fill="none" stroke="#231f20" stroke-miterlimit="10" stroke-width=".5"/><path d="M55.022,164.448v61.185s-25.685,4.697-28.804,5.161-2.385,4.618-2.385,4.618c0,0-3.853,1.081-9.357,1.759s-6.054-4.225-6.054-4.225v-87.707l6.922-.961s-.113,4.288,2.927,4.015,2.477-4.726,2.477-4.726v-36.252s.113-2.712-2.815-2.449-2.462,4.218-2.462,4.218l-7.05.578-.383-98.481c0-6.421,6.421-6.632,6.421-6.632l8.443.09s.863.077.863,1.07v3.708s-.596,1.841,2.715,1.544,18.697-.001,18.697-.001c0,0,2.119.008,2.119-1.78v-3.046s-.064-.982,1.059-1.083l6.527-.064.138,69.594" fill="none" stroke="#231f20" stroke-linecap="round" stroke-linejoin="round" stroke-width=".5"/><path d="M24.745,10.962c3.311-.298,18.697-.001,18.697-.001,0,0,2.119.008,2.119-1.78v-3.046s-.064-.982,1.059-1.083l1.357.023" fill="none" stroke="#231f20" stroke-linecap="round" stroke-linejoin="round" stroke-width=".5"/><path d="M8.445,109.624l-1.733-.727-.409-98.186c0-6.421,7.299-6.115,7.299-6.115" fill="none" stroke="#231f20" stroke-linecap="round" stroke-linejoin="round" stroke-width=".5"/><path d="M17.415,148.062c2.043-.97,1.597-4.495,1.597-4.495v-36.252s.072-1.726-1.386-2.291" fill="none" stroke="#231f20" stroke-linecap="round" stroke-linejoin="round" stroke-width=".5"/><path d="M13.07,237.242c-6.333,0-6.385-3.7-6.385-3.7v-89.317l6.922-.961,1.736,1.015" fill="none" stroke="#231f20" stroke-linecap="round" stroke-linejoin="round" stroke-width=".5"/><path d="M35.703,70.139l-7.252.653c-5.097.459-9.268-3.336-9.268-8.434v-.573c0-5.097,4.171-9.643,9.268-10.102l7.252-.653c5.097-.459,9.268,3.336,9.268,8.434v.573c0,5.097-4.171,9.643-9.268,10.102Z" fill="none" stroke="#231f20" stroke-linecap="round" stroke-linejoin="round" stroke-width=".5"/><path d="M42.553,166.829c3.363,2.604,5.487,6.684,5.487,11.445,0,8.759-7.189,16.506-16.057,17.304-8.868.798-16.057-5.655-16.057-14.414,0-7.524,4.942-14.155,12.059-16.423" fill="none" stroke="#231f20" stroke-linecap="round" stroke-linejoin="round" stroke-width=".5"/><path d="M49.234,40.092c-1.527,2.19-3.803,3.697-6.344,3.925-4.597.414-8.324-3.51-8.324-8.764s3.727-9.849,8.324-10.262c1.925-.173,3.698.414,5.109,1.542l.94,1.054" fill="none" stroke="#231f20" stroke-linecap="round" stroke-linejoin="round" stroke-width=".5"/><path d="M42.889,24.991l-11.078.129c-4.597.414-7.53,5.47-7.53,10.724s3.364,8.738,7.961,8.324l10.647-.15" fill="none" stroke="#231f20" stroke-linecap="round" stroke-linejoin="round" stroke-width=".5"/><path d="M53.408,32.68c.494,3.347-1.469,6.66-4.385,7.398s-5.681-1.377-6.175-4.724,1.469-6.66,4.385-7.398,5.681,1.377,6.175,4.724Z" fill="#fff" stroke="#231f20" stroke-linecap="round" stroke-linejoin="round" stroke-width=".47"/><path d="M53.538,215.847c0,3.384-2.682,6.368-5.991,6.666s-5.991-2.204-5.991-5.587,2.682-6.368,5.991-6.666,5.991,2.204,5.991,5.587Z" fill="none" stroke="#231f20" stroke-linecap="round" stroke-linejoin="round" stroke-width=".5"/><path d="M45.795,222.772c-1.095.569-2.299.938-3.563,1.052-5.056.455-9.155-3.34-9.155-8.476s4.099-9.669,9.155-10.124c3.758-.338,6.987,1.671,8.397,4.834" fill="none" stroke="#231f20" stroke-linecap="round" stroke-linejoin="round" stroke-width=".5"/><path d="M44.601,205.313l-11.467-3.517c-5.056.455-9.155,4.988-9.155,10.124,0,2.605,1.054,4.865,2.753,6.4l12.006,5.008" fill="none" stroke="#231f20" stroke-linecap="round" stroke-linejoin="round" stroke-width=".5"/><path d="M29.891,76.433l41.242-2.281,2.032,2.17-.072,80.354-2.01,2.803-9.882,1.249s-2.693,1.084-2.693,3.104l-17.507,2.586-.337-2.326-10.268,1.261-3.367-2.559-.337-83.043,3.198-3.318Z" fill="#fff" stroke="#231f20" stroke-miterlimit="10" stroke-width=".5"/><polyline points="30.396 165.353 29.062 165.353 25.696 162.794 25.359 79.751 28.327 76.569 29.891 76.433" fill="none" stroke="#231f20" stroke-miterlimit="10" stroke-width=".5"/><polyline points="39.331 164.092 39.667 166.067 41.001 166.418" fill="none" stroke="#231f20" stroke-miterlimit="10" stroke-width=".5"/><path d="M40.501,84.211c0,1.726-1.267,3.239-2.831,3.38s-2.831-1.145-2.831-2.871,1.267-3.239,2.831-3.38,2.831,1.145,2.831,2.871Z" fill="none" stroke="#231f20" stroke-linecap="round" stroke-linejoin="round" stroke-width=".5"/><path d="M40.501,100.958c0,1.726-1.267,3.239-2.831,3.38s-2.831-1.145-2.831-2.871,1.267-3.239,2.831-3.38,2.831,1.145,2.831,2.871Z" fill="none" stroke="#231f20" stroke-linecap="round" stroke-linejoin="round" stroke-width=".5"/><path d="M64.988,85.073c0,1.34-.983,2.514-2.197,2.623s-2.197-.888-2.197-2.228.983-2.514,2.197-2.623,2.197.888,2.197,2.228Z" fill="none" stroke="#231f20" stroke-linecap="round" stroke-linejoin="round" stroke-width=".5"/><path d="M40.501,117.47c0,1.726-1.267,3.239-2.831,3.38s-2.831-1.145-2.831-2.871,1.267-3.239,2.831-3.38,2.831,1.145,2.831,2.871Z" fill="none" stroke="#231f20" stroke-linecap="round" stroke-linejoin="round" stroke-width=".5"/><polyline points="67.995 131.008 67.995 128.06 30.726 132.475 30.608 160.556 67.995 155.186 67.995 152.945" fill="none" stroke="#231f20" stroke-linecap="round" stroke-linejoin="round" stroke-width=".5"/><polygon points="69.882 152.421 32.849 157.641 32.849 135.351 69.882 130.956 69.882 152.421" fill="none" stroke="#231f20" stroke-linecap="round" stroke-linejoin="round" stroke-width=".5"/><line x1="51.837" y1="133.052" x2="51.837" y2="154.871" fill="none" stroke="#231f20" stroke-linecap="round" stroke-linejoin="round" stroke-width=".5"/><line x1="6.686" y1="144.225" x2="8.422" y2="145.239" fill="none" stroke="#231f20" stroke-linecap="round" stroke-linejoin="round" stroke-width=".5"/></g><g id="b"><path d="M117.549,74.07c0,7.593-6.246,13.745-13.95,13.745-7.707,0-13.953-6.152-13.953-13.745,0-7.596,6.246-13.755,13.953-13.755,7.704,0,13.95,6.159,13.95,13.755" fill="#211f1f" stroke="#fff" stroke-miterlimit="10" stroke-width="1.5"/><rect x="90.345" y="66.076" width="27.228" height="24.791" fill="none"/><path d="M108.691,79.337v1.774h-9.936c-.014-.444.058-.872.215-1.282.253-.677.658-1.343,1.215-2,.557-.656,1.362-1.415,2.415-2.276,1.634-1.34,2.738-2.401,3.312-3.184s.861-1.523.861-2.22c0-.731-.262-1.348-.784-1.851-.523-.502-1.205-.753-2.046-.753-.889,0-1.6.267-2.133.8s-.803,1.271-.81,2.215l-1.897-.195c.13-1.415.619-2.493,1.466-3.235.848-.741,1.986-1.112,3.415-1.112,1.442,0,2.584.4,3.425,1.2s1.261,1.791,1.261,2.974c0,.602-.123,1.193-.369,1.774s-.655,1.193-1.225,1.835c-.571.643-1.52,1.524-2.846,2.646-1.107.93-1.818,1.561-2.133,1.892s-.574.665-.779,1h7.373Z" fill="#fff"/><path d="M198.092,228.987c0,7.593-6.246,13.745-13.95,13.745-7.707,0-13.953-6.152-13.953-13.745,0-7.596,6.246-13.755,13.953-13.755,7.704,0,13.95,6.159,13.95,13.755" fill="#211f1f" stroke="#fff" stroke-miterlimit="10" stroke-width="1.5"/><rect x="170.888" y="220.993" width="27.228" height="24.791" fill="none"/><path d="M179.544,232.06l1.846-.246c.212,1.046.572,1.8,1.082,2.262.509.461,1.129.691,1.861.691.868,0,1.601-.301,2.2-.902.598-.602.897-1.347.897-2.235,0-.848-.277-1.546-.831-2.097-.554-.55-1.258-.825-2.112-.825-.349,0-.783.068-1.302.205l.205-1.62c.123.014.222.021.297.021.786,0,1.494-.205,2.123-.615s.943-1.043.943-1.897c0-.677-.229-1.237-.687-1.682s-1.049-.666-1.774-.666c-.718,0-1.316.226-1.794.677s-.786,1.128-.923,2.03l-1.846-.328c.226-1.237.738-2.196,1.538-2.876.8-.681,1.794-1.021,2.984-1.021.82,0,1.576.176,2.266.528.69.352,1.218.832,1.584,1.44s.549,1.254.549,1.938c0,.649-.174,1.241-.523,1.774s-.865.957-1.548,1.271c.889.205,1.579.631,2.071,1.276.492.646.738,1.454.738,2.425,0,1.312-.479,2.426-1.436,3.338-.957.913-2.167,1.369-3.63,1.369-1.319,0-2.415-.394-3.286-1.18-.872-.786-1.369-1.805-1.492-3.056Z" fill="#fff"/><path d="M220.081,30.74c0,7.593-6.246,13.745-13.95,13.745-7.707,0-13.953-6.152-13.953-13.745s6.246-13.755,13.953-13.755c7.704,0,13.95,6.159,13.95,13.755" fill="#211f1f" stroke="#fff" stroke-miterlimit="10" stroke-width="1.5"/><rect x="192.13" y="22.746" width="27.228" height="24.791" fill="none"/><path d="M207.728,37.782h-1.846v-11.761c-.444.424-1.027.848-1.749,1.271s-1.369.742-1.943.954v-1.784c1.032-.485,1.935-1.073,2.707-1.764s1.319-1.36,1.641-2.01h1.189v15.094Z" fill="#fff"/><polyline points="186.66 249.401 157.927 237.147 134.375 240.344 165.335 254.818 157.967 256.687 190.837 258.088 194.023 247.527 186.66 249.401"/><polyline points="170.631 59.029 195.237 59.103 194.235 40.891 169.634 40.824 169.319 32.854 154.868 49.846 170.945 67.588 170.609 60.49" stroke="#fff" stroke-linecap="round" stroke-linejoin="round" stroke-width="2"/><path d="M122.082,81.791c7.138,3.292,9.621,9.981,9.621,9.981l-4.628,5.067,19.12-1.655.895-20.581-5.099,6.108s-7.477-9.548-20.1-12.958l.192,14.038Z" stroke="#fff" stroke-linecap="round" stroke-linejoin="round" stroke-width="1.505"/></g></svg>