<?xml version="1.0" encoding="UTF-8"?><svg id="a" xmlns="http://www.w3.org/2000/svg" width="6.323in" height="2.571in" xmlns:xlink="http://www.w3.org/1999/xlink" viewBox="0 0 455.287 185.132"><defs><clipPath id="b"><circle cx="111.002" cy="70.854" r="28.232" fill="none" stroke-width="0"/></clipPath></defs><rect x="4.896" y="17.94" width="396" height="82.759" fill="none" stroke="#ccc" stroke-linecap="round" stroke-linejoin="round" stroke-width="1.5"/><rect x="8.921" y="22.045" width="387.949" height="74.551" fill="#e6e6e6" stroke-width="0"/><rect x="15.64" y="60.619" width="180.967" height="33.173" fill="#ccc" stroke-width="0"/><path d="M73.166,89.564h28.281c.403,0,.755-.302.755-.755v-25.614c0-.453-.352-.755-.755-.755h-28.281c-.403,0-.755.302-.755.755v25.614c0,.453.352.755.755.755" fill="#e6e6e6" fill-rule="evenodd" stroke-width="0"/><path d="M91.935,63.85c0-.201-.151-.302-.302-.302s-.302.151-.302.302l.201,1.862c0,.101.05.101.101.101s.101-.05.101-.101l.201-1.862M91.986,66.517c0-.201-.151-.352-.352-.352s-.352.151-.352.352c0,.151.151.302.352.302s.352-.151.352-.302Z" fill="#262626" fill-rule="evenodd" stroke-width="0"/><path d="M84.991,64.857c-.201-.805-1.057-1.258-1.862-1.057-.855.252-1.308,1.107-1.057,1.912.252.805,1.107,1.258,1.912,1.057.805-.252,1.258-1.107,1.006-1.912M84.79,65.159c.101.654-.403,1.308-1.107,1.359-.503.101-1.057-.201-1.258-.705l.855-.855.352,1.359,1.157-1.157ZM82.274,65.46c-.05-.704.403-1.359,1.107-1.409.554-.101,1.057.201,1.308.705l-.855.855-.352-1.359-1.208,1.208Z" fill="#262626" fill-rule="evenodd" stroke-width="0"/><circle cx="83.609" cy="69.693" r="1.694" fill="#262626" stroke-width="0"/><circle cx="91.686" cy="69.693" r="1.694" fill="#262626" stroke-width="0"/><path d="M156.095,87.854h12.782c.554,0,1.006-.453,1.006-.956v-23.198c0-.503-.453-.956-1.006-.956h-12.782c-.503,0-.956.453-.956.956v23.198c0,.503.453.956.956.956Z" fill="#595a5a" stroke-width="0"/><path d="M157.102,84.079h10.819c.403,0,.755-.352.755-.755v-16.053c0-.403-.352-.755-.755-.755h-10.819c-.453,0-.755.352-.755.755v16.053c0,.403.302.755.755.755Z" fill="#d9d9d9" stroke-width="0"/><path d="M167.065,71.298v-2.365c0-.252-.201-.453-.453-.453h-8.202c-.252,0-.453.201-.453.453v2.365h9.108Z" fill="#595a5a" stroke-width="0"/><path d="M167.065,71.298h-9.108v10.165c0,.252.201.453.453.453h8.202c.252,0,.453-.201.453-.453v-10.165Z" fill="#6a6a6a" stroke-width="0"/><path d="M162.486,75.273c.151,0,.302-.101.302-.252v-2.164c0-.151-.151-.252-.302-.252s-.252.101-.252.252v2.164c0,.151.101.252.252.252M163.493,78.997c0-.554-.453-.956-1.006-.956-.503,0-.956.403-.956.956s.453.956.956.956c.554,0,1.006-.403,1.006-.956ZM164.046,78.997c0-.855-.705-1.51-1.56-1.51-.805,0-1.51.654-1.51,1.51s.705,1.51,1.51,1.51c.855,0,1.56-.654,1.56-1.51Z" fill="#fff" fill-rule="evenodd" stroke-width="0"/><rect x="173.305" y="62.491" width="19.625" height="26.067" rx="1.359" ry="1.359" fill="#595a5a" stroke-width="0"/><path d="M175.268,70.241v10.568c0,.554.252,1.107.704,1.56l4.227,4.026c.403.403.956.604,1.51.604h7.095c1.208,0,2.164-.956,2.164-2.164v-18.619c0-1.208-.956-2.164-2.164-2.164h-7.095c-.554,0-1.107.201-1.51.604l-4.227,4.026c-.453.453-.704,1.006-.704,1.56Z" fill="#808184" stroke-width="0"/><rect x="128.744" y="89.464" width="59.406" height="4.328" fill="#595a5a" stroke-width="0"/><rect x="82.676" y="87.3" width="4.328" height="6.491" fill="#595a5a" stroke-width="0"/><rect x="16.503" y="89.464" width="44.687" height="4.328" fill="#595a5a" stroke-width="0"/><path d="M104.717,89.464c-.906,0-1.761-.101-2.617-.302l-6.139-1.51c-.855-.252-1.711-.352-2.617-.352h-6.542c-.252,0-.453.201-.453.453v5.636c0,.201.201.403.453.403h41.918v-4.328h-24.003Z" fill="#6a6a6a" stroke-width="0"/><path d="M89.822,93.137h36.533v-3.019h-21.638c-.956,0-1.862-.101-2.768-.352l-6.139-1.51c-.805-.201-1.61-.302-2.466-.302h-3.522v5.183" fill="#d66927" fill-rule="evenodd" stroke-width="0"/><path d="M76.386,89.464h-15.247v4.328h21.789c.201,0,.403-.201.403-.403v-5.636c0-.252-.201-.453-.403-.453h-3.019c-.252,0-.453.101-.654.252l-2.214,1.711c-.201.151-.453.201-.654.201Z" fill="#6a6a6a" stroke-width="0"/><rect x="13.283" y="90.873" width="6.491" height="2.919" fill="#595a5a" stroke-width="0"/><rect x="210.291" y="60.619" width="180.967" height="33.173" fill="#ccc" stroke-width="0"/><path d="M267.817,89.564h28.281c.403,0,.755-.302.755-.755v-25.614c0-.453-.352-.755-.755-.755h-28.281c-.403,0-.755.302-.755.755v25.614c0,.453.352.755.755.755" fill="#e6e6e6" fill-rule="evenodd" stroke-width="0"/><path d="M286.587,63.85c0-.201-.151-.302-.302-.302s-.302.151-.302.302l.201,1.862c0,.101.05.101.101.101s.101-.05.101-.101l.201-1.862M286.637,66.517c0-.201-.151-.352-.352-.352s-.352.151-.352.352c0,.151.151.302.352.302s.352-.151.352-.302Z" fill="#262626" fill-rule="evenodd" stroke-width="0"/><path d="M279.642,64.857c-.201-.805-1.057-1.258-1.862-1.057-.855.252-1.308,1.107-1.057,1.912.252.805,1.107,1.258,1.912,1.057.805-.252,1.258-1.107,1.006-1.912M279.441,65.159c.101.654-.403,1.308-1.107,1.359-.503.101-1.057-.201-1.258-.705l.855-.855.352,1.359,1.157-1.157ZM276.925,65.46c-.05-.704.403-1.359,1.107-1.409.554-.101,1.057.201,1.308.705l-.855.855-.352-1.359-1.208,1.208Z" fill="#262626" fill-rule="evenodd" stroke-width="0"/><circle cx="278.26" cy="69.693" r="1.694" fill="#262626" stroke-width="0"/><circle cx="286.337" cy="69.693" r="1.694" fill="#262626" stroke-width="0"/><path d="M350.746,87.854h12.782c.554,0,1.006-.453,1.006-.956v-23.198c0-.503-.453-.956-1.006-.956h-12.782c-.503,0-.956.453-.956.956v23.198c0,.503.453.956.956.956Z" fill="#595a5a" stroke-width="0"/><path d="M351.753,84.079h10.819c.403,0,.755-.352.755-.755v-16.053c0-.403-.352-.755-.755-.755h-10.819c-.453,0-.755.352-.755.755v16.053c0,.403.302.755.755.755Z" fill="#d9d9d9" stroke-width="0"/><path d="M361.717,71.298v-2.365c0-.252-.201-.453-.453-.453h-8.202c-.252,0-.453.201-.453.453v2.365h9.108Z" fill="#595a5a" stroke-width="0"/><path d="M361.717,71.298h-9.108v10.165c0,.252.201.453.453.453h8.202c.252,0,.453-.201.453-.453v-10.165Z" fill="#6a6a6a" stroke-width="0"/><path d="M357.137,75.273c.151,0,.302-.101.302-.252v-2.164c0-.151-.151-.252-.302-.252s-.252.101-.252.252v2.164c0,.151.101.252.252.252M358.144,78.997c0-.554-.453-.956-1.006-.956-.503,0-.956.403-.956.956s.453.956.956.956c.554,0,1.006-.403,1.006-.956ZM358.697,78.997c0-.855-.705-1.51-1.56-1.51-.805,0-1.51.654-1.51,1.51s.705,1.51,1.51,1.51c.855,0,1.56-.654,1.56-1.51Z" fill="#fff" fill-rule="evenodd" stroke-width="0"/><rect x="367.956" y="62.491" width="19.625" height="26.067" rx="1.359" ry="1.359" fill="#595a5a" stroke-width="0"/><path d="M369.919,70.241v10.568c0,.554.252,1.107.704,1.56l4.227,4.026c.403.403.956.604,1.51.604h7.095c1.208,0,2.164-.956,2.164-2.164v-18.619c0-1.208-.956-2.164-2.164-2.164h-7.095c-.554,0-1.107.201-1.51.604l-4.227,4.026c-.453.453-.704,1.006-.704,1.56Z" fill="#808184" stroke-width="0"/><rect x="323.395" y="89.464" width="59.406" height="4.328" fill="#595a5a" stroke-width="0"/><rect x="277.327" y="87.3" width="4.328" height="6.491" fill="#595a5a" stroke-width="0"/><rect x="211.155" y="89.464" width="44.687" height="4.328" fill="#595a5a" stroke-width="0"/><path d="M299.368,89.464c-.906,0-1.761-.101-2.617-.302l-6.139-1.51c-.855-.252-1.711-.352-2.617-.352h-6.542c-.252,0-.453.201-.453.453v5.636c0,.201.201.403.453.403h41.918v-4.328h-24.003Z" fill="#6a6a6a" stroke-width="0"/><path d="M284.473,93.137h36.533v-3.019h-21.638c-.956,0-1.862-.101-2.768-.352l-6.139-1.51c-.805-.201-1.61-.302-2.466-.302h-3.522v5.183" fill="#d66927" fill-rule="evenodd" stroke-width="0"/><path d="M271.037,89.464h-15.247v4.328h21.789c.201,0,.403-.201.403-.403v-5.636c0-.252-.201-.453-.403-.453h-3.019c-.252,0-.453.101-.654.252l-2.214,1.711c-.201.151-.453.201-.654.201Z" fill="#6a6a6a" stroke-width="0"/><rect x="207.934" y="90.873" width="6.491" height="2.919" fill="#595a5a" stroke-width="0"/><path d="M202.615,70.756h4.126v-4.982h-4.126l-1.912,2.466,1.912,2.516ZM204.829,86.356l1.912-2.516-1.912-2.516h-4.126v5.032h4.126Z" fill="#333" fill-rule="evenodd" stroke-width="0"/><path d="M203.772,83.84c0-.705-.604-1.308-1.359-1.308s-1.359.604-1.359,1.308c0,.755.604,1.359,1.359,1.359s1.359-.604,1.359-1.359M203.521,84.041c-.101.604-.654,1.006-1.258.906-.503-.05-.855-.403-.956-.855l-.05-.05.956-.554v1.258l1.258-.755.05.05ZM201.306,83.689c.05-.604.654-1.006,1.258-.956.453.101.855.453.906.906l-.956.554v-1.258l-1.258.755h.05ZM204.728,68.24c0-.705-.604-1.308-1.359-1.308s-1.359.604-1.359,1.308c0,.755.604,1.359,1.359,1.359s1.359-.604,1.359-1.359ZM204.477,68.441c-.05.604-.654,1.006-1.258.906-.453-.05-.855-.403-.906-.855l-.05-.05.956-.554v1.258l1.258-.755v.05ZM202.262,68.089c.101-.604.654-1.006,1.258-.906.503.05.855.403.956.855l-.956.554v-1.258l-1.258.755Z" fill="#fff" fill-rule="evenodd" stroke-width="0"/><path d="M206.104,69.344h-.265v-1.69c-.064.061-.147.122-.251.183s-.196.107-.279.137v-.256c.148-.07.278-.154.389-.253.111-.099.19-.196.236-.289h.171v2.168Z" fill="#fff" stroke-width="0"/><path d="M205.492,84.691v.255h-1.427c-.002-.064.008-.125.031-.184.037-.097.095-.193.175-.287.08-.094.196-.203.347-.327.235-.193.394-.345.476-.457.083-.112.124-.219.124-.319,0-.105-.038-.194-.113-.266-.074-.072-.173-.108-.294-.108-.127,0-.229.038-.306.115-.077.076-.115.183-.117.318l-.272-.028c.019-.203.089-.358.211-.465s.285-.16.49-.16c.207,0,.371.058.492.172.121.115.181.257.181.427,0,.086-.018.171-.053.255-.035.084-.094.171-.176.264-.082.092-.219.219-.409.38-.159.134-.261.224-.306.272-.045.048-.083.096-.112.144h1.059Z" fill="#fff" stroke-width="0"/><rect x="15.64" y="24.973" width="180.967" height="33.173" fill="#e6e6e6" stroke-width="0"/><polyline points="202.615 35.871 206.741 35.871 206.741 30.889 202.615 30.889 200.703 33.355 202.615 35.871" fill="#333" fill-rule="evenodd" stroke-width="0"/><polygon points="204.829 51.47 206.741 48.954 204.829 46.488 200.703 46.488 200.703 51.47 204.829 51.47" fill="#333" fill-rule="evenodd" stroke-width="0"/><path d="M206.07,34.711h-.569l-.226-.589h-1.036l-.214.589h-.555l1.009-2.591h.553l1.038,2.591ZM205.107,33.686l-.357-.962-.35.962h.707Z" fill="#fff" stroke-width="0"/><path d="M201.823,47.721h1.036c.205,0,.358.008.458.025.101.017.191.053.271.107.079.054.146.127.199.216.053.09.08.191.08.303,0,.121-.033.232-.098.334-.065.102-.154.178-.266.228.158.046.279.124.364.235.084.11.127.241.127.391,0,.118-.028.232-.083.344-.054.111-.13.2-.224.267-.095.066-.212.107-.351.123-.087.01-.298.015-.631.018h-.882v-2.591ZM202.346,48.152v.599h.343c.204,0,.331-.003.381-.009.089-.011.16-.042.211-.093.051-.051.077-.119.077-.203,0-.08-.022-.145-.066-.195-.045-.05-.11-.081-.197-.091-.052-.006-.201-.009-.447-.009h-.301ZM202.346,49.183v.693h.485c.188,0,.308-.005.358-.016.078-.014.141-.049.19-.104s.074-.128.074-.22c0-.077-.019-.143-.057-.198-.038-.054-.092-.094-.163-.118-.071-.025-.226-.037-.464-.037h-.423Z" fill="#fff" stroke-width="0"/><rect x="210.291" y="24.973" width="180.967" height="33.173" fill="#e6e6e6" stroke-width="0"/><rect x="114.981" y="25.177" width="81.218" height="26.993" fill="#999" stroke-width="0"/><rect x="155.591" y="25.177" width="29.621" height="20.902" fill="#2762ac" stroke-width="0"/><rect x="114.937" y="25.177" width="40.415" height="20.902" fill="#f5f6f6" stroke-width="0"/><rect x="15.953" y="25.2" width="95.46" height="30.579" fill="#999" stroke-width="0"/><path d="M88.348,39.261h15.745c.39,0,.634-.244.634-.634v-7.361c0-.39-.244-.682-.634-.682h-15.745c-.341,0-.634.292-.634.682v7.361c0,.39.292.634.634.634Z" fill="#f5f6f6" fill-rule="evenodd" stroke-width="0"/><rect x="68.313" y="29.976" width="12.869" height="8.336" rx=".634" ry=".634" fill="#f5f6f6" stroke-width="0"/><rect x="24.07" y="26.522" width="17.11" height="12.041" rx=".634" ry=".634" fill="#f5f6f6" stroke-width="0"/><rect x="44.677" y="26.522" width="17.11" height="12.041" rx=".634" ry=".634" fill="#f5f6f6" stroke-width="0"/><rect x="16.771" y="39.187" width="64.176" height="14.858" fill="#2762ac" stroke-width="0"/><rect x="23.912" y="43.116" width="12.566" height="8.149" fill="#ffba90" stroke="#2762ac" stroke-miterlimit="10" stroke-width=".393"/><rect x="36.925" y="43.116" width="12.566" height="8.149" fill="#ffba90" stroke="#2762ac" stroke-miterlimit="10" stroke-width=".393"/><rect x="49.938" y="43.116" width="12.566" height="8.149" fill="#ffba90" stroke="#2762ac" stroke-miterlimit="10" stroke-width=".393"/><rect x="62.951" y="43.116" width="12.566" height="8.149" fill="#ffba90" stroke="#2762ac" stroke-miterlimit="10" stroke-width=".393"/><circle cx="27.565" cy="41.027" r=".854" fill="#262626" stroke-width="0"/><circle cx="33.007" cy="41.027" r=".854" fill="#262626" stroke-width="0"/><circle cx="40.537" cy="41.027" r=".854" fill="#262626" stroke-width="0"/><circle cx="45.979" cy="41.027" r=".854" fill="#262626" stroke-width="0"/><circle cx="53.51" cy="41.027" r=".854" fill="#262626" stroke-width="0"/><circle cx="58.952" cy="41.027" r=".854" fill="#262626" stroke-width="0"/><circle cx="66.482" cy="41.027" r=".854" fill="#262626" stroke-width="0"/><circle cx="71.924" cy="41.027" r=".854" fill="#262626" stroke-width="0"/><polygon points="27.036 34.239 27.036 36.822 38.15 36.822 38.15 34.239 37.907 34.239 37.907 32.484 38.15 32.484 38.15 29.949 35.713 29.949 35.713 28.34 34.64 28.34 34.64 27.56 30.497 27.56 30.497 28.34 29.473 28.34 29.473 29.949 27.036 29.949 27.036 32.484 27.231 32.484 27.231 34.239 27.036 34.239" fill="#d1acd9" stroke-width="0"/><polygon points="47.607 34.239 47.607 36.822 58.722 36.822 58.722 34.239 58.478 34.239 58.478 32.484 58.722 32.484 58.722 29.949 56.284 29.949 56.284 28.34 55.212 28.34 55.212 27.56 51.068 27.56 51.068 28.34 50.045 28.34 50.045 29.949 47.607 29.949 47.607 32.484 47.802 32.484 47.802 34.239 47.607 34.239" fill="#262626" stroke-width="0"/><path d="M71.788,36.085h6.045c.829,0,1.511-.682,1.511-1.511v-.487c0-.829-.682-1.462-1.511-1.462h-6.045c-.829,0-1.462.634-1.462,1.462v.487c0,.829.634,1.511,1.462,1.511Z" fill="#006938" fill-rule="evenodd" stroke="#fff" stroke-miterlimit="10" stroke-width=".205"/><path d="M101.747,32.457h-10.822c-.146,0-.292.098-.292.244v4.144c0,.146.146.244.292.244h10.822c.146,0,.292-.097.292-.244v-4.144c0-.146-.146-.244-.292-.244Z" fill="#262626" stroke-width="0"/><polygon points="19.723 47.347 20.343 47.347 20.343 49.3 20.622 49.3 20.622 48.556 21.18 48.556 21.18 49.083 22.235 49.083 22.235 47.688 21.18 47.688 21.18 48.184 20.622 48.184 20.622 46.199 21.18 46.199 21.18 46.665 22.235 46.665 22.235 45.3 21.18 45.3 21.18 45.827 20.622 45.827 20.622 45.145 20.343 45.145 20.343 46.975 19.723 46.975 19.692 46.417 18.607 46.417 18.607 47.874 19.692 47.874 19.723 47.347" fill="#fff" fill-rule="evenodd" stroke-width="0"/><path d="M108.164,32.796v3.266l-.731-.731v-.634c.195-.097.244-.292.195-.487-.098-.146-.292-.244-.487-.195-.146.097-.244.292-.195.487.049.098.146.146.195.195v.78l1.024.975v.341c-.292.049-.487.341-.39.634.049.292.341.487.634.39.292-.049.487-.341.39-.634-.049-.195-.195-.341-.39-.39v-1.267l.975-.975v-.634h.244v-.731h-.731v.731h.244v.487l-.731.731v-2.34h.244l-.39-.731-.341.731h.244Z" fill="#f2f2f2" fill-rule="evenodd" stroke-width="0"/><path d="M21.677,32.498h-2.389c-.195-.536-.731-.78-1.267-.634-.097.049-.195.097-.292.195v.146h.536l.341.634-.341.585h-.536v.146c.439.341,1.024.292,1.365-.146.097-.049.146-.195.195-.292h2.389c.146.487.682.682,1.121.536.097-.049.195-.097.244-.146v-.146h-.487l-.292-.536.292-.585h.487v-.097c-.39-.341-.926-.292-1.219.097-.097.049-.146.146-.146.244Z" fill="#f2f2f2" fill-rule="evenodd" stroke-width="0"/><path d="M120.368,41.783h9.36c.097,0,.195-.097.195-.195v-9.36c0-.097-.097-.244-.195-.244h-9.36c-.146,0-.244.146-.244.244v9.36c0,.097.098.195.244.195" fill="#7da9dc" fill-rule="evenodd" stroke-width="0"/><path d="M133.464,41.783h9.36c.097,0,.195-.097.195-.195v-9.36c0-.097-.097-.244-.195-.244h-9.36c-.146,0-.244.146-.244.244v9.36c0,.097.098.195.244.195" fill="#7da9dc" fill-rule="evenodd" stroke-width="0"/><path d="M144.081,41.783h9.36c.097,0,.195-.097.195-.195v-9.36c0-.097-.097-.244-.195-.244h-9.36c-.146,0-.244.146-.244.244v9.36c0,.097.098.195.244.195" fill="#262626" fill-rule="evenodd" stroke-width="0"/><rect x="157.407" y="31.836" width="12.566" height="8.149" fill="#b2d28e" stroke="#2762ac" stroke-miterlimit="10" stroke-width=".393"/><rect x="170.414" y="31.836" width="12.566" height="8.149" fill="#b2d28e" stroke="#2762ac" stroke-miterlimit="10" stroke-width=".393"/><circle cx="122.937" cy="28.238" r="1.106" fill="#262626" stroke-width="0"/><circle cx="127.034" cy="28.238" r="1.106" fill="#262626" stroke-width="0"/><circle cx="136.398" cy="28.238" r="1.106" fill="#262626" stroke-width="0"/><circle cx="140.495" cy="28.238" r="1.106" fill="#262626" stroke-width="0"/><circle cx="146.201" cy="28.238" r="1.106" fill="#262626" stroke-width="0"/><circle cx="150.297" cy="28.238" r="1.106" fill="#262626" stroke-width="0"/><circle cx="160.929" cy="28.238" r="1.106" fill="#262626" stroke-width="0"/><circle cx="167.221" cy="28.238" r="1.106" fill="#262626" stroke-width="0"/><circle cx="173.756" cy="28.238" r="1.106" fill="#262626" stroke-width="0"/><circle cx="180.047" cy="28.238" r="1.106" fill="#262626" stroke-width="0"/><path d="M107.56,51.958v3.722H20.572v1.349h86.988v1.117h88.657v-4.42h-80.168v-2.233h-8.06c-.238,0-.429.186-.429.465Z" fill="#4d4e4e" stroke-width="0"/><path d="M112.663,53.726h-19.172c-.191,0-.429.093-.572.233l-2.671,2.605c-.191.14-.382.233-.62.233H25.103c-.191,0-.429-.093-.572-.233l-2.671-2.605c-.191-.14-.382-.233-.62-.233h-4.531v1.396h-3.386v3.024h99.34v-4.42Z" fill="#4d4e4e" stroke-width="0"/><path d="M126.493,51.493h-13.83v6.653h28.853v-4.42h-3.052c-.572,0-1.145-.093-1.717-.186l-8.584-1.861c-.525-.093-1.097-.186-1.669-.186Z" fill="#6a6a6a" stroke-width="0"/><path d="M138.606,54.424h-3.1c-.906,0-1.812-.093-2.718-.279l-5.961-1.349c-.763-.186-1.574-.279-2.385-.279h-3.481v4.606h17.646v-2.698" fill="#d66927" fill-rule="evenodd" stroke-width="0"/><rect x="67.373" y="32.871" width=".159" height="1.591" fill="#fff" stroke-width="0"/><path d="M66.896,33.666c0,.345-.292.637-.637.637s-.637-.292-.637-.637.292-.637.637-.637.637.292.637.637Z" fill="none" stroke="#fff" stroke-miterlimit="10" stroke-width=".168"/><rect x="64.986" y="32.871" width=".186" height="1.591" fill="#fff" stroke-width="0"/><path d="M64.508,33.666c0,.345-.265.637-.637.637-.345,0-.637-.292-.637-.637s.292-.637.637-.637c.371,0,.637.292.637.637Z" fill="none" stroke="#fff" stroke-miterlimit="10" stroke-width=".168"/><rect x="62.599" y="32.871" width=".186" height="1.591" fill="#fff" stroke-width="0"/><rect x="310.045" y="25.177" width="81.218" height="26.993" fill="#999" stroke-width="0"/><rect x="350.654" y="25.177" width="29.621" height="20.902" fill="#2762ac" stroke-width="0"/><rect x="310" y="25.177" width="40.415" height="20.902" fill="#f5f6f6" stroke-width="0"/><rect x="211.016" y="25.2" width="95.46" height="30.579" fill="#999" stroke-width="0"/><path d="M283.411,39.261h15.745c.39,0,.634-.244.634-.634v-7.361c0-.39-.244-.682-.634-.682h-15.745c-.341,0-.634.292-.634.682v7.361c0,.39.292.634.634.634Z" fill="#f5f6f6" fill-rule="evenodd" stroke-width="0"/><rect x="263.377" y="29.976" width="12.869" height="8.336" rx=".634" ry=".634" fill="#f5f6f6" stroke-width="0"/><rect x="219.133" y="26.522" width="17.11" height="12.041" rx=".634" ry=".634" fill="#f5f6f6" stroke-width="0"/><rect x="239.74" y="26.522" width="17.11" height="12.041" rx=".634" ry=".634" fill="#f5f6f6" stroke-width="0"/><rect x="211.834" y="39.187" width="64.176" height="14.858" fill="#2762ac" stroke-width="0"/><rect x="218.975" y="43.116" width="12.566" height="8.149" fill="#ffba90" stroke="#2762ac" stroke-miterlimit="10" stroke-width=".393"/><rect x="231.988" y="43.116" width="12.566" height="8.149" fill="#ffba90" stroke="#2762ac" stroke-miterlimit="10" stroke-width=".393"/><rect x="245.001" y="43.116" width="12.566" height="8.149" fill="#ffba90" stroke="#2762ac" stroke-miterlimit="10" stroke-width=".393"/><rect x="258.014" y="43.116" width="12.566" height="8.149" fill="#ffba90" stroke="#2762ac" stroke-miterlimit="10" stroke-width=".393"/><circle cx="228.07" cy="41.027" r=".854" fill="#262626" stroke-width="0"/><circle cx="235.6" cy="41.027" r=".854" fill="#262626" stroke-width="0"/><circle cx="241.042" cy="41.027" r=".854" fill="#262626" stroke-width="0"/><circle cx="248.573" cy="41.027" r=".854" fill="#262626" stroke-width="0"/><circle cx="254.015" cy="41.027" r=".854" fill="#262626" stroke-width="0"/><circle cx="261.545" cy="41.027" r=".854" fill="#262626" stroke-width="0"/><circle cx="266.988" cy="41.027" r=".854" fill="#262626" stroke-width="0"/><polygon points="222.099 34.239 222.099 36.822 233.213 36.822 233.213 34.239 232.97 34.239 232.97 32.484 233.213 32.484 233.213 29.949 230.776 29.949 230.776 28.34 229.704 28.34 229.704 27.56 225.56 27.56 225.56 28.34 224.536 28.34 224.536 29.949 222.099 29.949 222.099 32.484 222.294 32.484 222.294 34.239 222.099 34.239" fill="#d1acd9" stroke-width="0"/><polygon points="242.671 34.239 242.671 36.822 253.785 36.822 253.785 34.239 253.541 34.239 253.541 32.484 253.785 32.484 253.785 29.949 251.348 29.949 251.348 28.34 250.275 28.34 250.275 27.56 246.132 27.56 246.132 28.34 245.108 28.34 245.108 29.949 242.671 29.949 242.671 32.484 242.866 32.484 242.866 34.239 242.671 34.239" fill="#262626" stroke-width="0"/><path d="M266.851,36.085h6.045c.829,0,1.511-.682,1.511-1.511v-.487c0-.829-.682-1.462-1.511-1.462h-6.045c-.829,0-1.462.634-1.462,1.462v.487c0,.829.634,1.511,1.462,1.511Z" fill="#1a1a1a" fill-rule="evenodd" stroke-width="0"/><path d="M296.811,32.457h-10.822c-.146,0-.292.098-.292.244v4.144c0,.146.146.244.292.244h10.822c.146,0,.292-.097.292-.244v-4.144c0-.146-.146-.244-.292-.244Z" fill="#262626" stroke-width="0"/><path d="M303.227,32.796v3.266l-.731-.731v-.634c.195-.097.244-.292.195-.487-.098-.146-.292-.244-.487-.195-.146.097-.244.292-.195.487.049.098.146.146.195.195v.78l1.024.975v.341c-.292.049-.487.341-.39.634.049.292.341.487.634.39.292-.049.487-.341.39-.634-.049-.195-.195-.341-.39-.39v-1.267l.975-.975v-.634h.244v-.731h-.731v.731h.244v.487l-.731.731v-2.34h.244l-.39-.731-.341.731h.244Z" fill="#f2f2f2" fill-rule="evenodd" stroke-width="0"/><path d="M315.432,41.783h9.36c.097,0,.195-.097.195-.195v-9.36c0-.097-.097-.244-.195-.244h-9.36c-.146,0-.244.146-.244.244v9.36c0,.097.098.195.244.195" fill="#a6d5dd" fill-rule="evenodd" stroke-width="0"/><path d="M328.527,41.783h9.36c.097,0,.195-.097.195-.195v-9.36c0-.097-.097-.244-.195-.244h-9.36c-.146,0-.244.146-.244.244v9.36c0,.097.098.195.244.195" fill="#a6d5dd" fill-rule="evenodd" stroke-width="0"/><path d="M339.145,41.783h9.36c.097,0,.195-.097.195-.195v-9.36c0-.097-.097-.244-.195-.244h-9.36c-.146,0-.244.146-.244.244v9.36c0,.097.098.195.244.195" fill="#262626" fill-rule="evenodd" stroke-width="0"/><rect x="352.47" y="31.836" width="12.566" height="8.149" fill="#b2d28e" stroke="#2762ac" stroke-miterlimit="10" stroke-width=".393"/><rect x="365.477" y="31.836" width="12.566" height="8.149" fill="#b2d28e" stroke="#2762ac" stroke-miterlimit="10" stroke-width=".393"/><circle cx="318.001" cy="28.238" r="1.106" fill="#262626" stroke-width="0"/><circle cx="322.097" cy="28.238" r="1.106" fill="#262626" stroke-width="0"/><circle cx="331.461" cy="28.238" r="1.106" fill="#262626" stroke-width="0"/><circle cx="335.558" cy="28.238" r="1.106" fill="#262626" stroke-width="0"/><circle cx="341.264" cy="28.238" r="1.106" fill="#262626" stroke-width="0"/><circle cx="345.361" cy="28.238" r="1.106" fill="#262626" stroke-width="0"/><circle cx="355.993" cy="28.238" r="1.106" fill="#262626" stroke-width="0"/><circle cx="362.284" cy="28.238" r="1.106" fill="#262626" stroke-width="0"/><circle cx="368.819" cy="28.238" r="1.106" fill="#262626" stroke-width="0"/><circle cx="375.11" cy="28.238" r="1.106" fill="#262626" stroke-width="0"/><path d="M302.623,51.958v3.722h-86.988v1.349h86.988v1.117h88.657v-4.42h-80.168v-2.233h-8.06c-.238,0-.429.186-.429.465Z" fill="#4d4e4e" stroke-width="0"/><path d="M307.726,53.726h-19.172c-.191,0-.429.093-.572.233l-2.671,2.605c-.191.14-.382.233-.62.233h-64.525c-.191,0-.429-.093-.572-.233l-2.671-2.605c-.191-.14-.382-.233-.62-.233h-4.531v1.396h-3.386v3.024h99.34v-4.42Z" fill="#4d4e4e" stroke-width="0"/><path d="M321.556,51.493h-13.83v6.653h28.853v-4.42h-3.052c-.572,0-1.145-.093-1.717-.186l-8.584-1.861c-.525-.093-1.097-.186-1.669-.186Z" fill="#6a6a6a" stroke-width="0"/><path d="M333.67,54.424h-3.1c-.906,0-1.812-.093-2.718-.279l-5.961-1.349c-.763-.186-1.574-.279-2.385-.279h-3.481v4.606h17.646v-2.698" fill="#d66927" fill-rule="evenodd" stroke-width="0"/><rect x="262.436" y="32.871" width=".159" height="1.591" fill="#fff" stroke-width="0"/><path d="M261.959,33.666c0,.345-.292.637-.637.637s-.637-.292-.637-.637.292-.637.637-.637.637.292.637.637Z" fill="none" stroke="#fff" stroke-miterlimit="10" stroke-width=".168"/><rect x="260.049" y="32.871" width=".186" height="1.591" fill="#fff" stroke-width="0"/><path d="M259.572,33.666c0,.345-.265.637-.637.637-.345,0-.637-.292-.637-.637s.292-.637.637-.637c.371,0,.637.292.637.637Z" fill="none" stroke="#fff" stroke-miterlimit="10" stroke-width=".168"/><rect x="257.662" y="32.871" width=".186" height="1.591" fill="#fff" stroke-width="0"/><path d="M216.08,32.498h-2.389c-.195-.536-.731-.78-1.267-.634-.097.049-.195.097-.292.195v.146h.536l.341.634-.341.585h-.536v.146c.439.341,1.024.292,1.365-.146.097-.049.146-.195.195-.292h2.389c.146.487.682.682,1.121.536.097-.049.195-.097.244-.146v-.146h-.487l-.292-.536.292-.585h.487v-.097c-.39-.341-.926-.292-1.219.097-.097.049-.146.146-.146.244Z" fill="#f2f2f2" fill-rule="evenodd" stroke-width="0"/><polygon points="214.727 47.347 215.347 47.347 215.347 49.3 215.626 49.3 215.626 48.556 216.185 48.556 216.185 49.083 217.239 49.083 217.239 47.688 216.185 47.688 216.185 48.184 215.626 48.184 215.626 46.199 216.185 46.199 216.185 46.665 217.239 46.665 217.239 45.3 216.185 45.3 216.185 45.827 215.626 45.827 215.626 45.145 215.347 45.145 215.347 46.975 214.727 46.975 214.696 46.417 213.611 46.417 213.611 47.874 214.696 47.874 214.727 47.347" fill="#fff" fill-rule="evenodd" stroke-width="0"/><path d="M125.221,46.012l-39.678,37.372-16.427-34.762s25.058-.548,11.093-22.747l45.012,20.138Z" fill="#fff" opacity=".8" stroke-width="0"/><circle cx="71.066" cy="35.278" r="12.715" fill="none" stroke="#fff" stroke-linecap="round" stroke-linejoin="round" stroke-width="2.701"/><circle cx="71.066" cy="35.278" r="12.715" fill="none" stroke="#005cb9" stroke-linecap="round" stroke-linejoin="round" stroke-width="1.098"/><g clip-path="url(#b)"><rect x="-28.4" y="42.449" width="851.234" height="163.578" fill="#e6e6e6" stroke-width="0"/><rect x="-13.658" y="127.088" width="397.075" height="72.787" fill="#ccc" stroke-width="0"/><path d="M112.564,190.6h62.053c.883,0,1.656-.662,1.656-1.656v-56.201c0-.994-.773-1.656-1.656-1.656h-62.053c-.883,0-1.656.663-1.656,1.656v56.201c0,.994.773,1.656,1.656,1.656" fill="#e6e6e6" fill-rule="evenodd" stroke-width="0"/><path d="M153.749,134.178c0-.442-.331-.663-.662-.663s-.662.331-.662.663l.442,4.085c0,.221.11.221.221.221s.221-.11.221-.221l.442-4.085M153.859,140.03c0-.442-.331-.773-.773-.773s-.773.331-.773.773c0,.331.331.663.773.663s.773-.331.773-.663Z" fill="#262626" fill-rule="evenodd" stroke-width="0"/><path d="M138.512,136.387c-.442-1.767-2.319-2.76-4.085-2.319-1.877.552-2.871,2.429-2.319,4.196.552,1.767,2.429,2.76,4.196,2.319,1.767-.552,2.76-2.429,2.208-4.196M138.07,137.049c.221,1.435-.883,2.871-2.429,2.981-1.104.221-2.319-.442-2.76-1.546l1.877-1.877.773,2.981,2.54-2.54ZM132.549,137.711c-.11-1.546.883-2.981,2.429-3.092,1.215-.221,2.319.442,2.871,1.546l-1.877,1.877-.773-2.981-2.65,2.65Z" fill="#262626" fill-rule="evenodd" stroke-width="0"/><circle cx="135.478" cy="146.998" r="3.716" fill="#262626" stroke-width="0"/><circle cx="153.202" cy="146.998" r="3.716" fill="#262626" stroke-width="0"/><path d="M294.528,186.846h28.045c1.215,0,2.208-.994,2.208-2.098v-50.901c0-1.104-.994-2.098-2.208-2.098h-28.045c-1.104,0-2.098.994-2.098,2.098v50.901c0,1.104.994,2.098,2.098,2.098Z" fill="#595a5a" stroke-width="0"/><path d="M296.736,178.565h23.739c.883,0,1.656-.773,1.656-1.656v-35.222c0-.883-.773-1.656-1.656-1.656h-23.739c-.994,0-1.656.773-1.656,1.656v35.222c0,.883.662,1.656,1.656,1.656Z" fill="#d9d9d9" stroke-width="0"/><path d="M318.598,150.52v-5.189c0-.552-.442-.994-.994-.994h-17.998c-.552,0-.994.442-.994.994v5.189h19.985Z" fill="#595a5a" stroke-width="0"/><path d="M318.598,150.52h-19.985v22.304c0,.552.442.994.994.994h17.998c.552,0,.994-.442.994-.994v-22.304Z" fill="#6a6a6a" stroke-width="0"/><path d="M308.551,159.242c.331,0,.662-.221.662-.552v-4.748c0-.331-.331-.552-.662-.552s-.552.221-.552.552v4.748c0,.331.221.552.552.552M310.759,167.413c0-1.214-.994-2.098-2.208-2.098-1.104,0-2.098.883-2.098,2.098s.994,2.098,2.098,2.098c1.215,0,2.208-.883,2.208-2.098ZM311.973,167.413c0-1.877-1.546-3.312-3.423-3.312-1.767,0-3.312,1.435-3.312,3.312s1.546,3.312,3.312,3.312c1.877,0,3.423-1.435,3.423-3.312Z" fill="#fff" fill-rule="evenodd" stroke-width="0"/><rect x="332.29" y="131.197" width="43.062" height="57.195" rx="2.981" ry="2.981" fill="#595a5a" stroke-width="0"/><path d="M336.596,148.201v23.187c0,1.215.552,2.429,1.546,3.423l9.275,8.833c.883.883,2.098,1.325,3.312,1.325h15.569c2.65,0,4.748-2.098,4.748-4.748v-40.853c0-2.65-2.098-4.748-4.748-4.748h-15.569c-1.215,0-2.429.442-3.312,1.325l-9.275,8.833c-.994.994-1.546,2.208-1.546,3.423Z" fill="#808184" stroke-width="0"/><rect x="413.443" y="127.088" width="397.075" height="72.787" fill="#ccc" stroke-width="0"/><path d="M396.6,149.331h9.054v-10.931h-9.054l-4.196,5.41,4.196,5.521ZM401.458,183.56l4.196-5.521-4.196-5.521h-9.054v11.041h9.054Z" fill="#333" fill-rule="evenodd" stroke-width="0"/><path d="M399.14,178.039c0-1.546-1.325-2.871-2.981-2.871s-2.981,1.325-2.981,2.871c0,1.656,1.325,2.981,2.981,2.981s2.981-1.325,2.981-2.981M398.588,178.481c-.221,1.325-1.435,2.208-2.76,1.987-1.104-.11-1.877-.883-2.098-1.877l-.11-.11,2.098-1.214v2.76l2.76-1.656.11.11ZM393.729,177.708c.11-1.325,1.435-2.208,2.76-2.098.994.221,1.877.994,1.987,1.987l-2.098,1.215v-2.76l-2.76,1.656h.11ZM401.237,143.81c0-1.546-1.325-2.871-2.981-2.871s-2.981,1.325-2.981,2.871c0,1.656,1.325,2.981,2.981,2.981s2.981-1.325,2.981-2.981ZM400.685,144.252c-.11,1.325-1.435,2.208-2.76,1.987-.994-.11-1.877-.883-1.987-1.877l-.11-.11,2.098-1.215v2.76l2.76-1.656v.11ZM395.827,143.479c.221-1.325,1.435-2.208,2.76-1.987,1.104.11,1.877.883,2.098,1.877l-2.098,1.214v-2.76l-2.76,1.656Z" fill="#fff" fill-rule="evenodd" stroke-width="0"/><path d="M404.257,146.233h-.583v-3.707c-.14.134-.323.267-.551.401s-.431.234-.613.301v-.562c.325-.153.609-.338.854-.556.244-.218.416-.429.517-.634h.375v4.758Z" fill="#fff" stroke-width="0"/><path d="M402.913,179.907v.559h-3.131c-.005-.14.019-.274.067-.404.081-.213.209-.423.384-.631.175-.206.429-.446.761-.717.515-.423.864-.757,1.044-1.003.182-.247.271-.48.271-.7,0-.231-.082-.425-.247-.584-.163-.158-.379-.237-.645-.237-.279,0-.503.084-.672.253-.168.168-.253.401-.256.698l-.598-.061c.042-.446.195-.785.463-1.019s.626-.351,1.076-.351c.455,0,.815.126,1.079.378.266.253.397.565.397.938,0,.189-.039.376-.116.559-.077.184-.205.376-.386.578-.18.203-.48.481-.897.834-.349.293-.572.492-.672.596-.099.105-.182.21-.246.316h2.323Z" fill="#fff" stroke-width="0"/><rect x="-13.658" y="48.875" width="397.075" height="72.787" fill="#e6e6e6" stroke-width="0"/><polyline points="396.6 72.786 405.654 72.786 405.654 61.855 396.6 61.855 392.404 67.265 396.6 72.786" fill="#333" fill-rule="evenodd" stroke-width="0"/><polygon points="401.458 107.014 405.654 101.494 401.458 96.083 392.404 96.083 392.404 107.014 401.458 107.014" fill="#333" fill-rule="evenodd" stroke-width="0"/><path d="M404.183,70.241h-1.249l-.497-1.291h-2.273l-.47,1.291h-1.217l2.214-5.686h1.214l2.278,5.686ZM402.068,67.992l-.783-2.11-.768,2.11h1.551Z" fill="#fff" stroke-width="0"/><path d="M394.864,98.788h2.273c.45,0,.785.019,1.005.056.222.038.419.116.594.235.173.119.32.278.436.475.116.198.175.42.175.666,0,.266-.072.51-.216.732-.143.223-.338.39-.584.501.347.101.613.273.8.516.185.242.279.529.279.857,0,.258-.061.51-.182.754-.12.244-.285.439-.492.586-.209.146-.465.236-.769.269-.192.021-.653.034-1.386.039h-1.934v-5.686ZM396.01,99.734v1.315h.753c.448,0,.726-.007.835-.019.195-.024.35-.092.463-.204.113-.113.168-.261.168-.444,0-.176-.049-.318-.145-.428-.098-.109-.241-.177-.433-.2-.114-.013-.441-.019-.982-.019h-.66ZM396.01,101.995v1.52h1.064c.412,0,.675-.012.786-.035.172-.031.31-.107.418-.227s.162-.281.162-.483c0-.17-.042-.315-.125-.434-.082-.119-.202-.205-.359-.259-.157-.055-.497-.082-1.019-.082h-.928Z" fill="#fff" stroke-width="0"/><rect x="413.443" y="48.875" width="397.075" height="72.787" fill="#e6e6e6" stroke-width="0"/><rect x="204.316" y="49.321" width="178.208" height="59.228" fill="#999" stroke-width="0"/><rect x="293.42" y="49.321" width="64.994" height="45.862" fill="#2762ac" stroke-width="0"/><rect x="204.218" y="49.321" width="88.678" height="45.862" fill="#f5f6f6" stroke-width="0"/><rect x="-12.972" y="49.373" width="209.457" height="67.096" fill="#999" stroke-width="0"/><path d="M145.877,80.226h34.549c.856,0,1.391-.535,1.391-1.39v-16.151c0-.856-.535-1.497-1.391-1.497h-34.549c-.749,0-1.391.642-1.391,1.497v16.151c0,.856.642,1.39,1.391,1.39Z" fill="#f5f6f6" fill-rule="evenodd" stroke-width="0"/><rect x="101.918" y="59.851" width="28.238" height="18.29" rx="1.391" ry="1.391" fill="#f5f6f6" stroke-width="0"/><path d="M6.23,52.272h34.763c.767,0,1.391.623,1.391,1.391v23.638c0,.767-.623,1.39-1.39,1.39H6.23c-.767,0-1.391-.623-1.391-1.391v-23.638c0-.767.623-1.39,1.39-1.39Z" fill="#f5f6f6" stroke-width="0"/><path d="M51.445,52.272h34.763c.767,0,1.391.623,1.391,1.391v23.638c0,.767-.623,1.39-1.39,1.39h-34.763c-.767,0-1.391-.623-1.391-1.391v-23.638c0-.767.623-1.39,1.39-1.39Z" fill="#f5f6f6" stroke-width="0"/><rect x="-11.177" y="80.064" width="140.814" height="32.601" fill="#2762ac" stroke-width="0"/><rect x="4.492" y="88.685" width="27.572" height="17.881" fill="#ffba90" stroke="#2762ac" stroke-miterlimit="10" stroke-width=".862"/><rect x="33.045" y="88.685" width="27.572" height="17.881" fill="#ffba90" stroke="#2762ac" stroke-miterlimit="10" stroke-width=".862"/><rect x="61.598" y="88.685" width="27.572" height="17.881" fill="#ffba90" stroke="#2762ac" stroke-miterlimit="10" stroke-width=".862"/><rect x="90.151" y="88.685" width="27.572" height="17.881" fill="#ffba90" stroke="#2762ac" stroke-miterlimit="10" stroke-width=".862"/><circle cx="12.507" cy="84.1" r="1.874" fill="#262626" stroke-width="0"/><circle cx="24.448" cy="84.1" r="1.874" fill="#262626" stroke-width="0"/><circle cx="40.971" cy="84.1" r="1.874" fill="#262626" stroke-width="0"/><circle cx="52.912" cy="84.1" r="1.874" fill="#262626" stroke-width="0"/><circle cx="69.435" cy="84.1" r="1.874" fill="#262626" stroke-width="0"/><circle cx="81.377" cy="84.1" r="1.874" fill="#262626" stroke-width="0"/><circle cx="97.9" cy="84.1" r="1.874" fill="#262626" stroke-width="0"/><circle cx="109.841" cy="84.1" r="1.874" fill="#262626" stroke-width="0"/><polygon points="11.347 69.205 11.347 74.874 35.734 74.874 35.734 69.205 35.199 69.205 35.199 65.354 35.734 65.354 35.734 59.792 30.386 59.792 30.386 56.263 28.033 56.263 28.033 54.551 18.941 54.551 18.941 56.263 16.695 56.263 16.695 59.792 11.347 59.792 11.347 65.354 11.775 65.354 11.775 69.205 11.347 69.205" fill="#d1acd9" stroke-width="0"/><polygon points="56.485 69.205 56.485 74.874 80.872 74.874 80.872 69.205 80.337 69.205 80.337 65.354 80.872 65.354 80.872 59.792 75.524 59.792 75.524 56.263 73.171 56.263 73.171 54.551 64.079 54.551 64.079 56.263 61.833 56.263 61.833 59.792 56.485 59.792 56.485 65.354 56.912 65.354 56.912 69.205 56.485 69.205" fill="#262626" stroke-width="0"/><path d="M109.542,73.257h13.263c1.818,0,3.316-1.497,3.316-3.316v-1.07c0-1.818-1.497-3.209-3.316-3.209h-13.263c-1.818,0-3.209,1.39-3.209,3.209v1.07c0,1.818,1.391,3.316,3.209,3.316Z" fill="#006938" fill-rule="evenodd" stroke="#fff" stroke-miterlimit="10" stroke-width=".45"/><path d="M175.278,65.295h-23.745c-.321,0-.642.214-.642.535v9.092c0,.321.321.535.642.535h23.745c.321,0,.642-.214.642-.535v-9.092c0-.321-.321-.535-.642-.535Z" fill="#262626" stroke-width="0"/><polygon points="-4.699 97.967 -3.338 97.967 -3.338 102.253 -2.726 102.253 -2.726 100.62 -1.501 100.62 -1.501 101.777 .812 101.777 .812 98.715 -1.501 98.715 -1.501 99.804 -2.726 99.804 -2.726 95.449 -1.501 95.449 -1.501 96.47 .812 96.47 .812 93.476 -1.501 93.476 -1.501 94.633 -2.726 94.633 -2.726 93.136 -3.338 93.136 -3.338 97.15 -4.699 97.15 -4.767 95.926 -7.148 95.926 -7.148 99.123 -4.767 99.123 -4.699 97.967" fill="#fff" fill-rule="evenodd" stroke-width="0"/><path d="M189.358,66.039v7.166l-1.604-1.604v-1.39c.428-.214.535-.642.428-1.07-.214-.321-.642-.535-1.07-.428-.321.214-.535.642-.428,1.07.107.214.321.321.428.428v1.711l2.246,2.139v.749c-.642.107-1.07.749-.856,1.391.107.642.749,1.07,1.391.856.642-.107,1.07-.749.856-1.39-.107-.428-.428-.749-.856-.856v-2.781l2.139-2.139v-1.39h.535v-1.604h-1.604v1.604h.535v1.07l-1.604,1.604v-5.134h.535l-.856-1.604-.749,1.604h.535Z" fill="#f2f2f2" fill-rule="evenodd" stroke-width="0"/><path d="M-.411,65.386h-5.241c-.428-1.177-1.604-1.711-2.781-1.39-.214.107-.428.214-.642.428v.321h1.177l.749,1.39-.749,1.284h-1.177v.321c.963.749,2.246.642,2.995-.321.214-.107.321-.428.428-.642H-.411c.321,1.07,1.497,1.497,2.46,1.177.214-.107.428-.214.535-.321v-.321h-1.07l-.642-1.177.642-1.284h1.07v-.214c-.856-.749-2.032-.642-2.674.214-.214.107-.321.321-.321.535Z" fill="#f2f2f2" fill-rule="evenodd" stroke-width="0"/><path d="M216.136,85.76h20.537c.214,0,.428-.214.428-.428v-20.537c0-.214-.214-.535-.428-.535h-20.537c-.321,0-.535.321-.535.535v20.537c0,.214.214.428.535.428" fill="#7da9dc" fill-rule="evenodd" stroke-width="0"/><path d="M244.87,85.76h20.537c.214,0,.428-.214.428-.428v-20.537c0-.214-.214-.535-.428-.535h-20.537c-.321,0-.535.321-.535.535v20.537c0,.214.214.428.535.428" fill="#7da9dc" fill-rule="evenodd" stroke-width="0"/><path d="M268.167,85.76h20.537c.214,0,.428-.214.428-.428v-20.537c0-.214-.214-.535-.428-.535h-20.537c-.321,0-.535.321-.535.535v20.537c0,.214.214.428.535.428" fill="#262626" fill-rule="evenodd" stroke-width="0"/><rect x="297.406" y="63.934" width="27.572" height="17.881" fill="#b2d28e" stroke="#2762ac" stroke-miterlimit="10" stroke-width=".862"/><rect x="325.945" y="63.934" width="27.572" height="17.881" fill="#b2d28e" stroke="#2762ac" stroke-miterlimit="10" stroke-width=".862"/><circle cx="221.773" cy="56.038" r="2.427" fill="#262626" stroke-width="0"/><circle cx="230.762" cy="56.038" r="2.427" fill="#262626" stroke-width="0"/><circle cx="251.308" cy="56.038" r="2.427" fill="#262626" stroke-width="0"/><circle cx="260.297" cy="56.038" r="2.427" fill="#262626" stroke-width="0"/><circle cx="272.817" cy="56.038" r="2.427" fill="#262626" stroke-width="0"/><circle cx="281.806" cy="56.038" r="2.427" fill="#262626" stroke-width="0"/><circle cx="305.135" cy="56.038" r="2.427" fill="#262626" stroke-width="0"/><circle cx="318.939" cy="56.038" r="2.427" fill="#262626" stroke-width="0"/><circle cx="333.278" cy="56.038" r="2.427" fill="#262626" stroke-width="0"/><circle cx="347.083" cy="56.038" r="2.427" fill="#262626" stroke-width="0"/><path d="M188.032,108.084v8.167H-2.836v2.961h190.868v2.45h194.53v-9.698h-175.904v-4.9h-17.685c-.523,0-.942.408-.942,1.021Z" fill="#4d4e4e" stroke-width="0"/><path d="M199.228,111.964h-42.066c-.419,0-.942.204-1.256.51l-5.86,5.717c-.419.306-.837.51-1.36.51H7.105c-.419,0-.942-.204-1.256-.51L-.011,112.474c-.419-.306-.837-.51-1.36-.51h-9.941v3.063h-7.43v6.636h217.97v-9.698Z" fill="#4d4e4e" stroke-width="0"/><path d="M229.575,107.064h-30.346v14.598h63.309v-9.698h-6.697c-1.256,0-2.511-.204-3.767-.408l-18.836-4.083c-1.151-.204-2.407-.408-3.662-.408Z" fill="#6a6a6a" stroke-width="0"/><path d="M256.154,113.495h-6.802c-1.988,0-3.976-.204-5.965-.612l-13.08-2.96c-1.674-.408-3.453-.613-5.232-.613h-7.639v10.106h38.718v-5.921" fill="#d66927" fill-rule="evenodd" stroke-width="0"/><rect x="99.854" y="66.203" width=".349" height="3.492" fill="#fff" stroke-width="0"/><path d="M98.807,67.949c0,.757-.64,1.397-1.397,1.397s-1.397-.64-1.397-1.397.64-1.397,1.397-1.397,1.397.64,1.397,1.397Z" fill="none" stroke="#fff" stroke-miterlimit="10" stroke-width=".369"/><rect x="94.617" y="66.203" width=".407" height="3.492" fill="#fff" stroke-width="0"/><path d="M93.569,67.949c0,.757-.582,1.397-1.397,1.397-.757,0-1.397-.64-1.397-1.397s.64-1.397,1.397-1.397c.815,0,1.397.64,1.397,1.397Z" fill="none" stroke="#fff" stroke-miterlimit="10" stroke-width=".369"/><rect x="89.379" y="66.203" width=".407" height="3.492" fill="#fff" stroke-width="0"/><rect x="415.033" y="49.373" width="209.457" height="67.096" fill="#999" stroke-width="0"/><path d="M434.236,52.272h34.763c.767,0,1.391.623,1.391,1.391v23.638c0,.767-.623,1.39-1.39,1.39h-34.763c-.767,0-1.39-.623-1.39-1.39v-23.638c0-.767.623-1.39,1.39-1.39Z" fill="#f5f6f6" stroke-width="0"/><rect x="416.828" y="80.064" width="140.814" height="32.601" fill="#2762ac" stroke-width="0"/><rect x="432.497" y="88.685" width="27.572" height="17.881" fill="#ffba90" stroke="#2762ac" stroke-miterlimit="10" stroke-width=".862"/><circle cx="452.453" cy="84.1" r="1.874" fill="#262626" stroke-width="0"/><polygon points="439.352 69.205 439.352 74.874 463.739 74.874 463.739 69.205 463.205 69.205 463.205 65.354 463.739 65.354 463.739 59.792 458.391 59.792 458.391 56.263 456.038 56.263 456.038 54.551 446.947 54.551 446.947 56.263 444.7 56.263 444.7 59.792 439.352 59.792 439.352 65.354 439.78 65.354 439.78 69.205 439.352 69.205" fill="#d1acd9" stroke-width="0"/><path d="M616.037,108.084v8.167h-190.868v2.961h190.868v2.45h194.53v-9.698h-175.904v-4.9h-17.685c-.523,0-.942.408-.942,1.021Z" fill="#4d4e4e" stroke-width="0"/><path d="M627.234,111.964h-42.066c-.419,0-.942.204-1.256.51l-5.86,5.717c-.419.306-.837.51-1.36.51h-141.581c-.419,0-.942-.204-1.256-.51l-5.86-5.717c-.419-.306-.837-.51-1.36-.51h-9.941v3.063h-7.43v6.636h217.97v-9.698Z" fill="#4d4e4e" stroke-width="0"/><path d="M426.145,65.386h-5.241c-.428-1.177-1.604-1.711-2.781-1.39-.214.107-.428.214-.642.428v.321h1.177l.749,1.39-.749,1.284h-1.177v.321c.963.749,2.246.642,2.995-.321.214-.107.321-.428.428-.642h5.241c.321,1.07,1.497,1.497,2.46,1.177.214-.107.428-.214.535-.321v-.321h-1.07l-.642-1.177.642-1.284h1.07v-.214c-.856-.749-2.032-.642-2.674.214-.214.107-.321.321-.321.535Z" fill="#f2f2f2" fill-rule="evenodd" stroke-width="0"/><polygon points="423.177 97.967 424.538 97.967 424.538 102.253 425.15 102.253 425.15 100.62 426.375 100.62 426.375 101.777 428.688 101.777 428.688 98.715 426.375 98.715 426.375 99.804 425.15 99.804 425.15 95.449 426.375 95.449 426.375 96.47 428.688 96.47 428.688 93.476 426.375 93.476 426.375 94.633 425.15 94.633 425.15 93.136 424.538 93.136 424.538 97.15 423.177 97.15 423.109 95.926 420.728 95.926 420.728 99.123 423.109 99.123 423.177 97.967" fill="#fff" fill-rule="evenodd" stroke-width="0"/></g><circle cx="111.025" cy="70.714" r="28.309" fill="none" stroke="#fff" stroke-miterlimit="10" stroke-width="3"/><line x1="322.596" y1="160.185" x2="238.583" y2="160.185" fill="none" stroke="#fff" stroke-linecap="round" stroke-linejoin="round" stroke-width="4.07"/><line x1="322.596" y1="160.185" x2="238.583" y2="160.185" fill="none" stroke="#a25eb5" stroke-miterlimit="10" stroke-width="1.716"/><path d="M347.735,171.87l1.449,4.259h.017l1.371-4.259h1.917v6.193h-1.275v-4.39h-.018l-1.518,4.39h-1.05l-1.518-4.346h-.018v4.346h-1.275v-6.193h1.917Z" fill="#231f20" stroke-width="0"/><path d="M353.504,174.957c.018-.289.09-.529.217-.72.127-.191.289-.344.486-.46.196-.115.417-.198.663-.247s.493-.074.742-.074c.226,0,.453.017.685.048.231.032.442.095.634.187.19.093.347.222.468.386.122.165.183.384.183.655v2.334c0,.202.012.396.034.581.023.185.064.323.122.416h-1.249c-.023-.069-.042-.141-.057-.213s-.024-.146-.03-.221c-.196.202-.428.344-.694.425-.266.081-.537.121-.815.121-.214,0-.413-.025-.599-.077-.185-.053-.347-.134-.485-.243-.139-.11-.247-.249-.325-.417-.078-.167-.117-.367-.117-.598,0-.255.045-.465.135-.629.089-.165.205-.297.347-.396.142-.098.304-.172.485-.221.183-.049.366-.088.551-.117.186-.029.367-.052.547-.069s.338-.043.478-.078c.139-.035.248-.085.329-.151s.118-.164.113-.291c0-.133-.022-.238-.065-.316s-.102-.139-.174-.183c-.072-.043-.156-.072-.251-.087-.096-.014-.198-.021-.309-.021-.242,0-.434.052-.572.156s-.22.277-.243.521h-1.231ZM356.349,175.869c-.053.046-.117.082-.195.108-.078.025-.162.048-.252.064-.09.018-.184.032-.282.044-.098.012-.196.025-.295.043-.092.018-.184.041-.272.069-.09.029-.168.068-.234.117-.066.05-.12.111-.16.187-.041.075-.062.171-.062.286,0,.11.021.203.062.278.04.075.095.134.164.178.069.043.15.073.243.091s.188.026.286.026c.243,0,.431-.041.563-.122.134-.081.231-.178.295-.29.064-.113.104-.228.117-.343.015-.116.022-.208.022-.278v-.459Z" fill="#231f20" stroke-width="0"/><path d="M359.706,173.579v.624h.026c.156-.26.358-.449.606-.568.249-.118.504-.178.764-.178.33,0,.6.045.812.135.211.09.377.214.498.373.122.159.207.353.256.581.05.229.074.481.074.759v2.759h-1.231v-2.533c0-.37-.059-.646-.174-.828-.116-.183-.321-.273-.616-.273-.335,0-.578.1-.729.3-.15.199-.226.527-.226.984v2.351h-1.231v-4.484h1.171Z" fill="#231f20" stroke-width="0"/><path d="M363.627,174.957c.018-.289.09-.529.217-.72.127-.191.289-.344.486-.46.196-.115.417-.198.663-.247s.493-.074.742-.074c.226,0,.453.017.685.048.231.032.442.095.634.187.19.093.347.222.468.386.122.165.183.384.183.655v2.334c0,.202.012.396.034.581.023.185.064.323.122.416h-1.249c-.023-.069-.042-.141-.057-.213s-.024-.146-.03-.221c-.196.202-.428.344-.694.425-.266.081-.537.121-.815.121-.214,0-.413-.025-.599-.077-.185-.053-.347-.134-.485-.243-.139-.11-.247-.249-.325-.417-.078-.167-.117-.367-.117-.598,0-.255.045-.465.135-.629.089-.165.205-.297.347-.396.142-.098.304-.172.485-.221.183-.049.366-.088.551-.117.186-.029.367-.052.547-.069s.338-.043.478-.078c.139-.035.248-.085.329-.151s.118-.164.113-.291c0-.133-.022-.238-.065-.316s-.102-.139-.174-.183c-.072-.043-.156-.072-.251-.087-.096-.014-.198-.021-.309-.021-.242,0-.434.052-.572.156s-.22.277-.243.521h-1.231ZM366.472,175.869c-.053.046-.117.082-.195.108-.078.025-.162.048-.252.064-.09.018-.184.032-.282.044-.098.012-.196.025-.295.043-.092.018-.184.041-.272.069-.09.029-.168.068-.234.117-.066.05-.12.111-.16.187-.041.075-.062.171-.062.286,0,.11.021.203.062.278.04.075.095.134.164.178.069.043.15.073.243.091s.188.026.286.026c.243,0,.431-.041.563-.122.134-.081.231-.178.295-.29.064-.113.104-.228.117-.343.015-.116.022-.208.022-.278v-.459Z" fill="#231f20" stroke-width="0"/><path d="M372.895,178.393c-.049.23-.154.446-.316.646-.162.2-.396.369-.703.508s-.717.208-1.231.208c-.22,0-.444-.027-.672-.082-.229-.056-.438-.141-.625-.256-.188-.116-.344-.265-.469-.447-.124-.182-.194-.4-.212-.654h1.223c.058.23.171.392.339.481.167.089.361.134.581.134.347,0,.6-.104.759-.312.159-.208.235-.471.229-.789v-.59h-.017c-.134.237-.323.412-.568.525-.246.112-.505.169-.776.169-.336,0-.625-.06-.867-.178-.243-.119-.442-.28-.599-.486-.156-.205-.271-.445-.343-.72s-.108-.565-.108-.872c0-.289.042-.568.126-.837.083-.269.206-.506.368-.711s.363-.369.603-.49c.24-.121.517-.183.829-.183.295,0,.554.056.776.165.223.11.409.295.56.556h.017v-.599h1.172v4.198c0,.179-.025.385-.074.616ZM371.208,176.901c.134-.069.243-.162.33-.278.087-.115.151-.247.195-.395.043-.147.064-.302.064-.464,0-.185-.017-.36-.052-.524-.034-.165-.093-.312-.174-.438s-.188-.229-.32-.304-.301-.112-.503-.112c-.174,0-.323.034-.447.104s-.229.164-.312.282-.145.255-.182.408c-.038.153-.057.313-.057.481,0,.161.016.322.048.481.031.158.087.302.165.429.078.128.181.231.308.312s.286.121.478.121c.173,0,.326-.034.459-.104Z" fill="#231f20" stroke-width="0"/><path d="M375.276,176.988c.186.179.451.269.798.269.249,0,.463-.062.643-.187.179-.124.289-.256.329-.395h1.084c-.173.538-.439.922-.798,1.153s-.792.347-1.301.347c-.353,0-.671-.056-.954-.169-.283-.112-.523-.273-.72-.481-.197-.208-.349-.456-.456-.746-.106-.289-.16-.606-.16-.954,0-.335.055-.647.165-.937.109-.289.266-.539.468-.75s.444-.378.725-.499.591-.183.933-.183c.382,0,.714.074.997.222s.517.346.698.594c.183.249.314.532.396.851.08.318.109.65.086.997h-3.235c.018.399.118.688.304.868ZM376.669,174.627c-.147-.161-.372-.242-.673-.242-.196,0-.359.033-.49.1-.13.066-.233.148-.312.247s-.134.202-.165.312c-.032.109-.051.208-.057.295h2.004c-.058-.312-.16-.55-.308-.712Z" fill="#231f20" stroke-width="0"/><path d="M380.133,173.579v.606h.018c.162-.23.357-.41.586-.537.228-.127.489-.191.784-.191.284,0,.543.056.776.165.234.11.412.304.534.581.133-.196.313-.37.542-.521s.499-.226.811-.226c.237,0,.457.029.659.087.203.058.376.15.521.277.145.128.258.294.339.499s.121.453.121.742v3.001h-1.231v-2.542c0-.15-.006-.292-.018-.425s-.043-.248-.096-.347c-.052-.099-.128-.177-.229-.234s-.238-.087-.412-.087-.313.033-.421.1c-.106.066-.19.153-.251.261-.061.106-.102.229-.122.364-.02.136-.03.273-.03.412v2.498h-1.231v-2.516c0-.133-.003-.265-.009-.395s-.03-.25-.073-.36c-.044-.109-.116-.198-.218-.265-.101-.066-.25-.1-.446-.1-.058,0-.135.014-.229.039-.096.026-.188.075-.278.147s-.166.177-.229.312-.096.313-.096.533v2.603h-1.231v-4.484h1.162Z" fill="#231f20" stroke-width="0"/><path d="M388.114,176.988c.186.179.451.269.798.269.249,0,.463-.062.643-.187.179-.124.289-.256.329-.395h1.084c-.173.538-.439.922-.798,1.153s-.792.347-1.301.347c-.353,0-.671-.056-.954-.169-.283-.112-.523-.273-.72-.481-.197-.208-.349-.456-.456-.746-.106-.289-.16-.606-.16-.954,0-.335.055-.647.165-.937.109-.289.266-.539.468-.75s.444-.378.725-.499.591-.183.933-.183c.382,0,.714.074.997.222s.517.346.698.594c.183.249.314.532.396.851.08.318.109.65.086.997h-3.235c.018.399.118.688.304.868ZM389.507,174.627c-.147-.161-.372-.242-.673-.242-.196,0-.359.033-.49.1-.13.066-.233.148-.312.247s-.134.202-.165.312c-.032.109-.051.208-.057.295h2.004c-.058-.312-.16-.55-.308-.712Z" fill="#231f20" stroke-width="0"/><path d="M392.946,173.579v.624h.025c.156-.26.358-.449.607-.568.249-.118.503-.178.764-.178.329,0,.6.045.811.135s.378.214.499.373.207.353.256.581.073.481.073.759v2.759h-1.231v-2.533c0-.37-.058-.646-.174-.828-.115-.183-.32-.273-.615-.273-.336,0-.578.1-.729.3-.15.199-.226.527-.226.984v2.351h-1.232v-4.484h1.172Z" fill="#231f20" stroke-width="0"/><path d="M399.382,173.579v.824h-.902v2.22c0,.209.034.348.104.417s.209.104.417.104c.069,0,.136-.002.199-.008s.124-.015.183-.026v.954c-.104.018-.221.029-.348.035-.127.005-.251.008-.373.008-.19,0-.371-.013-.542-.039-.171-.025-.321-.076-.451-.151s-.232-.183-.308-.321-.113-.32-.113-.546v-2.646h-.745v-.824h.745v-1.345h1.232v1.345h.902Z" fill="#231f20" stroke-width="0"/><path d="M403.42,176.949c.056.095.126.173.213.233.087.062.187.106.299.135.113.029.23.044.352.044.087,0,.178-.011.273-.031.096-.02.183-.052.26-.095.078-.044.144-.102.195-.174.053-.072.078-.163.078-.273,0-.185-.123-.323-.368-.416-.246-.093-.589-.186-1.028-.277-.179-.041-.354-.089-.524-.144-.171-.055-.322-.127-.456-.217-.133-.09-.239-.202-.32-.338s-.122-.303-.122-.499c0-.289.057-.526.17-.712.112-.185.262-.33.446-.438.186-.107.394-.183.625-.226.23-.043.468-.065.711-.065s.479.023.707.069c.229.047.433.125.611.234.18.11.328.256.447.438.118.182.189.412.212.689h-1.171c-.018-.237-.107-.397-.269-.481-.162-.084-.354-.126-.573-.126-.069,0-.145.005-.225.014-.081.008-.155.027-.222.056-.066.029-.123.071-.169.126-.047.055-.069.129-.069.222,0,.109.04.199.121.269s.187.126.316.169c.131.044.279.083.447.117.167.035.338.072.512.113.179.04.354.089.524.147.171.058.322.134.456.229.133.096.239.214.32.355s.122.316.122.524c0,.295-.06.543-.178.742-.119.199-.273.36-.465.481-.19.121-.409.207-.654.256-.246.049-.496.073-.751.073-.26,0-.515-.025-.763-.077-.249-.053-.471-.14-.664-.261s-.353-.282-.477-.481c-.125-.199-.192-.449-.204-.75h1.171c0,.133.027.247.082.343Z" fill="#231f20" stroke-width="0"/><path d="M410.077,178.063v-.625h-.025c-.156.261-.359.448-.607.564-.249.115-.503.173-.764.173-.329,0-.6-.043-.811-.13-.212-.087-.378-.209-.499-.368s-.207-.353-.256-.581-.074-.481-.074-.76v-2.758h1.232v2.532c0,.37.058.646.173.829.116.182.321.273.616.273.335,0,.578-.101.729-.3s.226-.527.226-.984v-2.351h1.231v4.484h-1.171Z" fill="#231f20" stroke-width="0"/><path d="M413.417,171.87v2.255h.018c.15-.23.354-.4.611-.507.258-.107.525-.161.803-.161.226,0,.448.047.668.139.22.093.418.234.594.426.177.19.319.435.43.732.109.298.165.652.165,1.062s-.056.766-.165,1.063c-.11.298-.253.542-.43.732-.176.191-.374.333-.594.425-.22.093-.442.139-.668.139-.33,0-.625-.052-.885-.155-.261-.104-.457-.281-.59-.529h-.018v.572h-1.171v-6.193h1.231ZM415.412,175.279c-.04-.174-.104-.327-.19-.46s-.195-.238-.325-.316c-.131-.078-.288-.117-.473-.117-.18,0-.336.039-.469.117s-.243.184-.33.316c-.086.133-.15.286-.19.46-.04.173-.061.355-.061.546,0,.186.021.364.061.538s.104.327.19.46c.087.133.197.238.33.316s.289.117.469.117c.185,0,.342-.039.473-.117.13-.078.238-.184.325-.316s.15-.286.19-.46c.041-.174.061-.353.061-.538,0-.19-.02-.373-.061-.546Z" fill="#231f20" stroke-width="0"/><path d="M418.656,173.579v.624h.026c.156-.26.358-.449.606-.568.249-.118.504-.178.764-.178.33,0,.6.045.812.135.211.09.377.214.498.373.122.159.207.353.256.581.05.229.074.481.074.759v2.759h-1.231v-2.533c0-.37-.059-.646-.174-.828-.116-.183-.321-.273-.616-.273-.335,0-.578.1-.729.3-.15.199-.226.527-.226.984v2.351h-1.231v-4.484h1.171Z" fill="#231f20" stroke-width="0"/><path d="M423.948,176.988c.185.179.45.269.798.269.248,0,.462-.062.642-.187s.289-.256.33-.395h1.084c-.174.538-.439.922-.798,1.153s-.793.347-1.302.347c-.353,0-.671-.056-.954-.169-.283-.112-.523-.273-.72-.481s-.349-.456-.455-.746c-.107-.289-.161-.606-.161-.954,0-.335.056-.647.165-.937.11-.289.266-.539.469-.75.202-.211.443-.378.724-.499.281-.121.592-.183.933-.183.382,0,.715.074.998.222s.516.346.698.594c.182.249.313.532.395.851s.109.65.087.997h-3.235c.017.399.118.688.304.868ZM425.34,174.627c-.147-.161-.371-.242-.672-.242-.197,0-.36.033-.49.1s-.234.148-.312.247-.133.202-.165.312c-.031.109-.05.208-.056.295h2.004c-.059-.312-.161-.55-.309-.712Z" fill="#231f20" stroke-width="0"/><path d="M430.072,173.579v.824h-.902v2.22c0,.209.034.348.104.417s.209.104.417.104c.069,0,.136-.002.199-.008s.124-.015.183-.026v.954c-.104.018-.221.029-.348.035-.127.005-.251.008-.373.008-.19,0-.371-.013-.542-.039-.171-.025-.321-.076-.451-.151s-.232-.183-.308-.321-.113-.32-.113-.546v-2.646h-.745v-.824h.745v-1.345h1.232v1.345h.902Z" fill="#231f20" stroke-width="0"/><path d="M12.072,6.604v1.145h-2.993v1.432h2.594v1.059h-2.594v2.559h-1.362v-6.193h4.354Z" fill="#231f20" stroke-width="0"/><path d="M15.472,6.604l2.316,6.193h-1.414l-.469-1.379h-2.316l-.486,1.379h-1.371l2.342-6.193h1.396ZM15.55,10.403l-.781-2.272h-.017l-.807,2.272h1.604Z" fill="#231f20" stroke-width="0"/><path d="M19.367,11.271c.075.145.175.262.299.351.124.09.27.156.438.2.167.043.341.064.521.064.121,0,.251-.01.39-.03.139-.02.269-.059.39-.117.122-.058.223-.137.304-.238.081-.101.122-.229.122-.386,0-.168-.054-.304-.161-.408-.107-.104-.247-.19-.42-.26-.174-.069-.37-.13-.59-.183-.22-.052-.442-.109-.668-.173-.231-.058-.457-.129-.677-.213s-.417-.192-.59-.325-.314-.3-.421-.499-.16-.44-.16-.725c0-.317.068-.594.204-.828s.314-.43.534-.585c.22-.156.468-.272.746-.348.277-.075.555-.112.833-.112.324,0,.635.036.933.108s.562.189.793.352c.231.161.415.368.551.62.136.251.204.557.204.915h-1.318c-.012-.186-.051-.339-.117-.46-.067-.121-.155-.217-.265-.286s-.236-.118-.377-.147-.296-.044-.464-.044c-.11,0-.22.012-.33.035-.11.023-.21.063-.299.121-.09.059-.164.131-.221.217-.058.087-.087.197-.087.33,0,.121.023.22.069.295s.137.145.273.208c.136.063.324.127.564.191.24.063.553.145.941.242.116.023.276.065.481.126.205.061.409.158.611.291.203.133.377.311.525.533s.221.508.221.854c0,.283-.055.546-.165.789s-.273.453-.49.629c-.217.177-.486.313-.807.412s-.693.147-1.115.147c-.341,0-.672-.042-.993-.126-.321-.083-.604-.215-.85-.395-.246-.179-.441-.407-.585-.686-.145-.277-.214-.606-.208-.988h1.319c0,.208.038.385.113.529Z" fill="#231f20" stroke-width="0"/><path d="M23.799,8.091c.092-.298.231-.558.417-.78s.417-.396.698-.521c.28-.124.603-.187.967-.187.277,0,.542.043.793.13s.473.211.664.373.343.361.456.599.169.503.169.798c0,.307-.049.569-.147.789-.098.221-.229.415-.39.586-.162.171-.346.325-.551.464-.206.139-.412.276-.62.412-.208.136-.411.282-.607.438s-.37.338-.521.546h2.871v1.059h-4.458c0-.353.051-.659.152-.92.101-.26.239-.492.412-.698.173-.205.377-.395.611-.567.234-.174.481-.351.742-.529.133-.093.275-.187.425-.282s.288-.201.412-.316c.124-.116.228-.246.312-.391s.126-.31.126-.494c0-.295-.085-.525-.256-.689-.171-.165-.389-.248-.655-.248-.179,0-.331.043-.455.126-.125.084-.224.194-.299.33s-.129.286-.161.451c-.032.164-.048.328-.048.49h-1.18c-.012-.348.029-.67.122-.968Z" fill="#231f20" stroke-width="0"/><path d="M28.736,7.54c.122-.208.279-.382.473-.521s.412-.243.655-.312c.243-.069.489-.104.737-.104.376,0,.694.058.955.173.26.116.47.257.629.421.159.165.273.342.342.529.069.188.104.357.104.508,0,.301-.074.563-.221.789s-.369.388-.664.485v.018c.364.081.645.253.841.517.196.263.295.585.295.967,0,.324-.065.604-.195.842-.13.237-.302.434-.516.59s-.457.273-.729.352c-.272.078-.55.116-.833.116-.295,0-.58-.036-.854-.108-.274-.072-.521-.187-.737-.342-.217-.156-.39-.354-.521-.59-.13-.237-.195-.521-.195-.851,0-.388.1-.711.299-.972.199-.26.481-.434.846-.521v-.018c-.295-.08-.518-.233-.668-.459s-.226-.489-.226-.79c0-.271.061-.512.182-.72ZM29.62,11.383c.058.127.134.235.23.325.095.09.209.159.343.208.133.05.271.074.416.074.15,0,.288-.024.412-.074.125-.049.234-.118.33-.208.096-.09.169-.198.221-.325.052-.127.078-.266.078-.416,0-.145-.027-.276-.083-.395-.055-.119-.13-.222-.226-.309-.095-.087-.205-.153-.33-.199-.124-.046-.259-.069-.403-.069-.301,0-.555.082-.763.247s-.312.403-.312.716c0,.156.029.298.087.425ZM29.95,8.967c.185.137.402.204.65.204.26,0,.478-.067.651-.204.173-.136.26-.334.26-.594,0-.081-.012-.169-.035-.265-.023-.096-.068-.187-.135-.273s-.159-.159-.277-.217-.273-.087-.464-.087c-.121,0-.238.02-.351.057-.113.038-.212.091-.299.16s-.155.156-.204.261c-.049.104-.074.226-.074.364,0,.26.092.458.277.594Z" fill="#231f20" stroke-width="0"/><path d="M33.363,8.247c.119-.401.279-.725.481-.967.203-.243.438-.417.707-.521.269-.104.554-.156.854-.156.307,0,.594.052.863.156.269.104.506.277.711.521.206.242.367.565.486.967.119.402.178.897.178,1.487,0,.607-.059,1.115-.178,1.522-.119.408-.28.733-.486.977-.205.242-.442.416-.711.521-.269.104-.557.155-.863.155-.301,0-.585-.052-.854-.155-.269-.104-.504-.278-.707-.521-.202-.243-.363-.568-.481-.977-.119-.407-.178-.915-.178-1.522,0-.59.059-1.085.178-1.487ZM34.434,10.364c.012.246.048.483.108.712.061.229.158.424.291.585.133.162.324.243.573.243.254,0,.45-.081.585-.243.136-.161.234-.356.295-.585s.097-.466.108-.712c.012-.245.018-.455.018-.629,0-.104-.001-.229-.004-.377s-.015-.299-.035-.455c-.021-.156-.049-.312-.087-.465-.038-.152-.094-.29-.169-.411-.075-.122-.171-.22-.287-.295s-.257-.113-.425-.113-.308.038-.421.113-.205.173-.277.295c-.072.121-.129.259-.169.411-.041.153-.069.309-.086.465-.018.156-.028.308-.03.455-.003.147-.004.273-.004.377,0,.174.005.384.017.629Z" fill="#231f20" stroke-width="0"/><path d="M38.186,8.247c.119-.401.279-.725.481-.967.203-.243.438-.417.707-.521.269-.104.554-.156.854-.156.307,0,.594.052.863.156.269.104.506.277.711.521.206.242.367.565.486.967.119.402.178.897.178,1.487,0,.607-.059,1.115-.178,1.522-.119.408-.28.733-.486.977-.205.242-.442.416-.711.521-.269.104-.557.155-.863.155-.301,0-.585-.052-.854-.155-.269-.104-.504-.278-.707-.521-.202-.243-.363-.568-.481-.977-.119-.407-.178-.915-.178-1.522,0-.59.059-1.085.178-1.487ZM39.257,10.364c.012.246.048.483.108.712.061.229.158.424.291.585.133.162.324.243.573.243.254,0,.45-.081.585-.243.136-.161.234-.356.295-.585s.097-.466.108-.712c.012-.245.018-.455.018-.629,0-.104-.001-.229-.004-.377s-.015-.299-.035-.455c-.021-.156-.049-.312-.087-.465-.038-.152-.094-.29-.169-.411-.075-.122-.171-.22-.287-.295s-.257-.113-.425-.113-.308.038-.421.113-.205.173-.277.295c-.072.121-.129.259-.169.411-.041.153-.069.309-.086.465-.018.156-.028.308-.03.455-.003.147-.004.273-.004.377,0,.174.005.384.017.629Z" fill="#231f20" stroke-width="0"/><path d="M46.566,11.683c.055.095.126.173.213.233.086.062.186.106.299.135.113.029.23.044.352.044.087,0,.178-.011.273-.031.095-.02.182-.052.26-.095.078-.044.144-.102.195-.174.052-.072.078-.163.078-.273,0-.185-.123-.323-.369-.416s-.588-.186-1.028-.277c-.179-.041-.354-.089-.525-.144s-.322-.127-.456-.217c-.133-.09-.24-.202-.321-.338s-.122-.303-.122-.499c0-.289.057-.526.169-.712.113-.185.262-.33.447-.438s.393-.183.625-.226c.231-.043.468-.065.711-.065s.478.023.707.069c.229.047.433.125.612.234.179.11.328.256.447.438.118.182.189.412.212.689h-1.171c-.018-.237-.107-.397-.269-.481-.162-.084-.353-.126-.573-.126-.069,0-.145.005-.225.014-.081.008-.155.027-.221.056-.067.029-.123.071-.169.126s-.069.129-.069.222c0,.109.041.199.122.269.081.069.187.126.316.169.13.044.279.083.447.117.167.035.338.072.512.113.179.04.354.089.525.147.17.058.322.134.456.229.133.096.24.214.321.355s.122.316.122.524c0,.295-.06.543-.178.742-.119.199-.273.36-.464.481s-.409.207-.655.256c-.246.049-.496.073-.75.073-.26,0-.515-.025-.763-.077-.249-.053-.47-.14-.664-.261-.194-.121-.353-.282-.477-.481-.125-.199-.192-.449-.204-.75h1.171c0,.133.028.247.083.343Z" fill="#231f20" stroke-width="0"/><path d="M51.843,14.133c-.237.156-.566.234-.989.234-.127,0-.253-.005-.377-.014-.124-.008-.25-.019-.377-.03v-1.015c.115.012.234.023.355.035.122.011.243.014.364.008.162-.017.282-.081.36-.19.078-.109.117-.231.117-.364,0-.099-.017-.19-.052-.277l-1.57-4.207h1.31l1.015,3.07h.018l.98-3.07h1.275l-1.874,5.039c-.133.365-.318.625-.555.781Z" fill="#231f20" stroke-width="0"/><path d="M55.725,11.683c.055.095.126.173.213.233.086.062.186.106.299.135.113.029.23.044.352.044.087,0,.178-.011.273-.031.095-.02.182-.052.26-.095.078-.044.144-.102.195-.174.052-.072.078-.163.078-.273,0-.185-.123-.323-.369-.416s-.588-.186-1.028-.277c-.179-.041-.354-.089-.525-.144s-.322-.127-.456-.217c-.133-.09-.24-.202-.321-.338s-.122-.303-.122-.499c0-.289.057-.526.169-.712.113-.185.262-.33.447-.438s.393-.183.625-.226c.231-.043.468-.065.711-.065s.478.023.707.069c.229.047.433.125.612.234.179.11.328.256.447.438.118.182.189.412.212.689h-1.171c-.018-.237-.107-.397-.269-.481-.162-.084-.353-.126-.573-.126-.069,0-.145.005-.225.014-.081.008-.155.027-.221.056-.067.029-.123.071-.169.126s-.069.129-.069.222c0,.109.041.199.122.269.081.069.187.126.316.169.13.044.279.083.447.117.167.035.338.072.512.113.179.04.354.089.525.147.17.058.322.134.456.229.133.096.24.214.321.355s.122.316.122.524c0,.295-.06.543-.178.742-.119.199-.273.36-.464.481s-.409.207-.655.256c-.246.049-.496.073-.75.073-.26,0-.515-.025-.763-.077-.249-.053-.47-.14-.664-.261-.194-.121-.353-.282-.477-.481-.125-.199-.192-.449-.204-.75h1.171c0,.133.028.247.083.343Z" fill="#231f20" stroke-width="0"/><path d="M61.811,8.313v.824h-.902v2.22c0,.209.035.348.104.417s.208.104.417.104c.069,0,.136-.002.2-.008.063-.006.124-.015.182-.026v.954c-.104.018-.22.029-.347.035-.127.005-.251.008-.373.008-.191,0-.372-.013-.542-.039-.171-.025-.321-.076-.451-.151s-.233-.183-.308-.321-.113-.32-.113-.546v-2.646h-.746v-.824h.746v-1.345h1.232v1.345h.902Z" fill="#231f20" stroke-width="0"/><path d="M63.719,11.722c.185.179.451.269.798.269.249,0,.462-.062.642-.187.179-.124.289-.256.33-.395h1.084c-.173.538-.439.922-.798,1.153s-.792.347-1.301.347c-.353,0-.671-.056-.954-.169-.283-.112-.523-.273-.72-.481-.197-.208-.349-.456-.456-.746-.107-.289-.161-.606-.161-.954,0-.335.055-.647.165-.937s.266-.539.468-.75c.202-.211.444-.378.724-.499.281-.121.591-.183.933-.183.382,0,.714.074.998.222s.516.346.698.594c.182.249.314.532.395.851.081.318.109.65.086.997h-3.235c.017.399.118.688.304.868ZM65.111,9.362c-.147-.161-.372-.242-.672-.242-.197,0-.36.033-.49.1-.13.066-.234.148-.312.247s-.133.202-.165.312c-.032.109-.05.208-.056.295h2.004c-.058-.312-.161-.55-.308-.712Z" fill="#231f20" stroke-width="0"/><path d="M68.576,8.313v.606h.017c.162-.23.357-.41.586-.537.228-.127.49-.191.785-.191.284,0,.542.056.776.165.234.11.412.304.534.581.133-.196.313-.37.542-.521s.499-.226.811-.226c.237,0,.457.029.659.087.203.058.376.15.521.277.145.128.257.294.338.499s.122.453.122.742v3.001h-1.232v-2.542c0-.15-.006-.292-.017-.425-.012-.133-.043-.248-.096-.347-.052-.099-.128-.177-.229-.234-.102-.058-.239-.087-.412-.087s-.314.033-.421.1-.191.153-.251.261c-.061.106-.101.229-.122.364-.02.136-.03.273-.03.412v2.498h-1.232v-2.516c0-.133-.003-.265-.008-.395-.006-.13-.031-.25-.074-.36-.043-.109-.116-.198-.217-.265s-.25-.1-.446-.1c-.058,0-.135.014-.23.039-.096.026-.188.075-.278.147s-.166.177-.23.312c-.063.136-.095.313-.095.533v2.603h-1.232v-4.484h1.163Z" fill="#231f20" stroke-width="0"/><polygon points="451.705 152.058 320.974 152.058 328.016 146.007 445.102 146.007 451.705 152.058 451.705 152.058 451.705 152.058" fill="#58595b" fill-rule="evenodd" stroke-width="0"/><polygon points="320.974 154.043 451.705 154.043 451.705 166.347 320.974 166.347 320.974 154.043 320.974 154.043" fill="#58595b" fill-rule="evenodd" stroke-width="0"/><path d="M414.587,163.951h-4.293v-2.679h4.293v2.679h0ZM414.587,159.336h-4.293v-2.677h4.293v2.677h0ZM419.606,163.951h-4.294v-2.679h4.294v2.679h0ZM419.606,159.336h-4.294v-2.677h4.294v2.677h0ZM424.624,163.951h-4.293v-2.679h4.293v2.679h0ZM424.624,159.336h-4.293v-2.677h4.293v2.677h0ZM429.642,163.951h-4.293v-2.679h4.293v2.679h0ZM429.642,159.336h-4.293v-2.677h4.293v2.677h0ZM409.569,159.336h-4.293v-2.677h4.293v2.677h0ZM404.553,163.951h-4.294v-2.679h4.294v2.679h0ZM404.553,159.336h-4.294v-2.677h4.294v2.677h0ZM409.569,163.951h-4.293v-2.679h4.293v2.679h0Z" fill="#fff" fill-rule="evenodd" stroke-width="0"/><path d="M381.134,163.951h-4.293v-2.679h4.293v2.679h0ZM381.134,159.336h-4.293v-2.677h4.293v2.677h0ZM386.152,163.951h-4.294v-2.679h4.294v2.679h0ZM386.152,159.336h-4.294v-2.677h4.294v2.677h0ZM391.171,163.951h-4.294v-2.679h4.294v2.679h0ZM391.171,159.336h-4.294v-2.677h4.294v2.677h0ZM396.189,163.951h-4.294v-2.679h4.294v2.679h0ZM396.189,159.336h-4.294v-2.677h4.294v2.677h0ZM376.117,159.336h-4.294v-2.677h4.294v2.677h0ZM371.099,163.951h-4.293v-2.679h4.293v2.679h0ZM371.099,159.336h-4.293v-2.677h4.293v2.677h0ZM376.117,163.951h-4.294v-2.679h4.294v2.679h0Z" fill="#fff" fill-rule="evenodd" stroke-width="0"/><path d="M336.293,163.722h-11.271v-3.539h11.271v3.539h0ZM350.597,163.722h-11.27v-3.539h11.27v3.539h0Z" fill="#fff" fill-rule="evenodd" stroke-width="0"/><circle cx="110.821" cy="70.671" r="28.298" fill="none" stroke="#005cb9" stroke-linecap="round" stroke-linejoin="round" stroke-width=".929"/><polyline points="116.21 72.999 116.21 160.185 144.607 160.185" fill="none" stroke="#fff" stroke-miterlimit="10" stroke-width="3.5"/><polyline points="116.21 72.999 116.21 160.185 144.607 160.185" fill="none" stroke="#006938" stroke-miterlimit="10" stroke-width="1.716"/><path d="M105.473,130.363h20.077v-12.953c0-.156-.129-.28-.289-.28h-19.501c-.16,0-.287.124-.287.28v12.953Z" fill="#006938" stroke="#fff" stroke-miterlimit="10" stroke-width=".566"/><path d="M115.175,121.659l-1.253.308-.329-1.294,2.064-.616h1.078v7.24h-1.561v-5.638Z" fill="#fff" stroke-width="0"/><path d="M266.944,166.6h20.077v-12.953c0-.156-.129-.28-.289-.28h-19.501c-.16,0-.287.124-.287.28v12.953Z" fill="#a25eb5" stroke="#fff" stroke-miterlimit="10" stroke-width=".686"/><path d="M274.289,162.281l2.393-1.961c.894-.74,1.243-1.13,1.243-1.726,0-.605-.401-.935-.966-.935-.555,0-.935.309-1.469.966l-1.108-.894c.708-.966,1.396-1.489,2.68-1.489,1.489,0,2.476.873,2.476,2.218v.021c0,1.202-.616,1.798-1.89,2.783l-1.171.903h3.132v1.366h-5.319v-1.253Z" fill="#fff" stroke-width="0"/><path d="M242.443,116.857c0-3.822-3.096-6.919-6.917-6.919h-84.162c-3.821,0-6.915,3.096-6.915,6.919v54.044h97.994v-54.044ZM234.695,168.188h-82.504v-49.405h82.504v49.405ZM134.369,174.789v.311c0,4.604,3.737,8.339,8.34,8.339h101.473c4.604,0,8.34-3.735,8.34-8.339v-.311h-118.152Z" fill="#fff" stroke="#fff" stroke-miterlimit="10" stroke-width="4.571"/><rect x="152.191" y="118.784" width="82.504" height="49.405" fill="#fff" stroke-width="0"/><rect x="153.56" y="120.94" width="79.703" height="44.764" fill="#fff" stroke-width="0"/><path d="M242.443,116.857c0-3.822-3.096-6.919-6.917-6.919h-84.162c-3.821,0-6.915,3.096-6.915,6.919v54.044h97.994v-54.044ZM193.445,112.392c1.342,0,2.433,1.089,2.433,2.433s-1.091,2.433-2.433,2.433-2.435-1.089-2.435-2.433,1.089-2.433,2.435-2.433ZM234.695,168.188h-82.504v-49.405h82.504v49.405ZM134.369,174.789v.311c0,4.604,3.737,8.339,8.34,8.339h101.473c4.604,0,8.34-3.735,8.34-8.339v-.311h-118.152Z" fill="#58595b" stroke-width="0"/><rect x="152.191" y="118.784" width="82.504" height="49.405" fill="#fff" stroke-width="0"/><rect x="153.56" y="120.94" width="79.703" height="44.764" fill="#e6e7e8" stroke-width="0"/><path d="M186.176,140.891c-.081-.13-.182-.244-.304-.343-.121-.099-.259-.175-.412-.229-.153-.056-.313-.083-.481-.083-.307,0-.566.06-.78.178-.214.119-.388.278-.521.478s-.229.427-.291.681c-.061.255-.091.518-.091.79,0,.26.03.513.091.759.062.246.158.467.291.663.133.197.307.354.521.473.214.119.474.179.78.179.417,0,.742-.128.977-.382.233-.255.377-.59.429-1.007h1.318c-.034.388-.124.737-.269,1.05s-.335.578-.572.798-.515.388-.833.503c-.318.116-.668.174-1.05.174-.474,0-.9-.082-1.279-.247s-.698-.392-.958-.681c-.261-.289-.46-.629-.599-1.02s-.208-.812-.208-1.262c0-.463.069-.893.208-1.289.139-.396.338-.741.599-1.036.26-.295.579-.526.958-.694.379-.167.806-.251,1.279-.251.342,0,.664.049.968.147s.575.241.815.43c.239.188.438.42.594.698.156.277.255.596.295.954h-1.318c-.023-.156-.075-.3-.156-.43Z" fill="#231f20" stroke-width="0"/><path d="M189.768,139.239v6.193h-1.232v-6.193h1.232Z" fill="#231f20" stroke-width="0"/><path d="M190.774,140.253v-1.015h1.232v1.015h-1.232ZM192.007,140.948v4.484h-1.232v-4.484h1.232Z" fill="#231f20" stroke-width="0"/><path d="M194.296,144.357c.185.179.451.269.798.269.249,0,.463-.062.642-.187.18-.124.289-.256.33-.395h1.084c-.173.538-.439.922-.798,1.153s-.792.347-1.301.347c-.354,0-.671-.056-.954-.169-.284-.112-.523-.273-.721-.481-.196-.208-.349-.456-.455-.746-.107-.289-.16-.606-.16-.954,0-.335.055-.647.164-.937.11-.289.267-.539.469-.75s.443-.378.725-.499c.28-.121.591-.183.933-.183.381,0,.714.074.997.222s.517.346.698.594c.183.249.313.532.395.851s.11.65.087.997h-3.235c.018.399.118.688.304.868ZM195.687,141.996c-.147-.161-.371-.242-.672-.242-.196,0-.36.033-.49.1s-.234.148-.312.247-.133.202-.164.312c-.032.109-.051.208-.057.295h2.004c-.058-.312-.161-.55-.309-.712Z" fill="#231f20" stroke-width="0"/><path d="M199.128,140.948v.624h.025c.156-.26.359-.449.607-.568.249-.118.503-.178.764-.178.329,0,.6.045.811.135.212.09.378.214.499.373.122.159.207.353.256.581s.074.481.074.759v2.759h-1.232v-2.533c0-.37-.058-.646-.173-.828-.116-.183-.321-.273-.616-.273-.335,0-.578.1-.729.3-.15.199-.226.527-.226.984v2.351h-1.231v-4.484h1.171Z" fill="#231f20" stroke-width="0"/><path d="M205.563,140.948v.824h-.901v2.22c0,.209.034.348.104.417s.208.104.416.104c.07,0,.137-.002.2-.008s.124-.015.182-.026v.954c-.104.018-.22.029-.347.035-.127.005-.252.008-.373.008-.19,0-.371-.013-.542-.039-.171-.025-.321-.076-.451-.151s-.232-.183-.308-.321-.113-.32-.113-.546v-2.646h-.746v-.824h.746v-1.345h1.232v1.345h.901Z" fill="#231f20" stroke-width="0"/><path d="M242.443,116.857c0-3.822-3.096-6.919-6.917-6.919h-84.162c-3.821,0-6.915,3.096-6.915,6.919v54.044h97.994v-54.044ZM193.445,111.725c1.342,0,2.433,1.089,2.433,2.433s-1.091,2.433-2.433,2.433-2.435-1.089-2.435-2.433,1.089-2.433,2.435-2.433ZM234.695,168.188h-82.504v-49.405h82.504v49.405ZM134.369,174.789v.311c0,4.604,3.737,8.339,8.34,8.339h101.473c4.604,0,8.34-3.735,8.34-8.339v-.311h-118.152Z" fill="#58595b" stroke-width="0"/></svg>