<?xml version="1.0" encoding="utf-8"?>
<!-- Generator: Adobe Illustrator 28.3.0, SVG Export Plug-In . SVG Version: 6.00 Build 0)  -->
<svg version="1.1" xmlns="http://www.w3.org/2000/svg" xmlns:xlink="http://www.w3.org/1999/xlink" x="0px" y="0px"
	 width="361.2745px" height="267.5725px" viewBox="0 0 361.2745 267.5725" enable-background="new 0 0 361.2745 267.5725"
	 xml:space="preserve">
<g id="Layer_1">
	
		<line fill="none" stroke="#1670B8" stroke-width="2.3914" stroke-miterlimit="10" x1="146.176" y1="33.2934" x2="254.001" y2="33.2934"/>
	<path fill="none" stroke="#BBBDBF" stroke-width="2.3914" stroke-miterlimit="10" d="M144.7815,33.3821"/>
	<polyline fill="none" stroke="#FFFFFF" stroke-width="5.9784" stroke-miterlimit="10" points="144.7815,244.807 198.0553,244.807 
		198.0553,56.3587 254.001,56.3587 	"/>
	<polyline fill="none" stroke="#F5A800" stroke-width="2.3914" stroke-miterlimit="10" stroke-dasharray="2.3065" points="
		144.7815,244.807 198.0553,244.807 198.0553,56.3587 254.001,56.3587 	"/>
	<polyline fill="none" stroke="#FFFFFF" stroke-width="3.5871" stroke-miterlimit="10" points="144.7815,168.3223 
		221.4187,168.3223 221.4187,85.5981 254.001,85.5981 	"/>
	<polyline fill="none" stroke="#F5A800" stroke-width="2.3914" stroke-miterlimit="10" points="144.7815,168.2915 
		221.4187,168.2915 221.4187,85.5981 254.001,85.5981 	"/>
	<polyline fill="none" stroke="#FFFFFF" stroke-width="5.9784" stroke-miterlimit="10" points="144.7815,92.052 180.6373,92.052 
		180.6373,173.1088 254.001,173.1088 	"/>
	<polyline fill="none" stroke="#1670B8" stroke-width="2.3914" stroke-miterlimit="10" points="144.7815,92.052 180.6373,92.052 
		180.6373,173.1088 254.001,173.1088 	"/>
	
		<line fill="none" stroke="#FFFFFF" stroke-width="5.9784" stroke-miterlimit="10" x1="144.7815" y1="107.9799" x2="254.001" y2="107.9799"/>
	
		<line fill="none" stroke="#1670B8" stroke-width="2.3914" stroke-miterlimit="10" stroke-dasharray="2.3065" x1="144.7815" y1="107.9799" x2="254.001" y2="107.9799"/>
	<polyline fill="none" stroke="#FFFFFF" stroke-width="5.9784" stroke-miterlimit="10" points="144.7815,229.1409 
		173.6384,229.1409 173.6384,222.4136 254.001,222.4136 	"/>
	<polyline fill="none" stroke="#F5A800" stroke-width="2.3914" stroke-miterlimit="10" points="144.7815,229.1409 
		173.6384,229.1409 173.6384,222.4136 254.001,222.4136 	"/>
	<polyline fill="none" stroke="#FFFFFF" stroke-width="5.9784" stroke-miterlimit="10" points="144.7815,50.9732 210.1147,50.9732 
		210.1147,244.4788 254.001,244.4788 	"/>
	<polyline fill="none" stroke="#1670B8" stroke-width="2.3914" stroke-miterlimit="10" stroke-dasharray="2.3065" points="
		144.7815,50.6907 210.1147,50.6907 210.1147,244.4788 254.001,244.4788 	"/>
	<polyline fill="none" stroke="#FFFFFF" stroke-width="5.9784" stroke-miterlimit="10" points="145.1767,186.9506 
		237.9303,186.9506 237.9303,193.1741 254.001,193.1741 	"/>
	<polyline fill="none" stroke="#F5A800" stroke-width="2.3914" stroke-miterlimit="10" stroke-dasharray="2.3065" points="
		145.1767,186.9506 237.9303,186.9506 237.9303,193.1741 254.001,193.1741 	"/>
	
		<rect x="0.6373" y="18.8906" fill="#FFFFFF" stroke="#231F20" stroke-width="1.2745" stroke-miterlimit="10" width="144.1442" height="104.1757"/>
	<g>
		<path fill="#231F20" d="M37.1392,70.9722l1.042,0.2632c-0.2183,0.856-0.6113,1.5083-1.1787,1.9575
			c-0.5679,0.4497-1.2617,0.6743-2.0815,0.6743c-0.8486,0-1.5386-0.1729-2.0708-0.5181c-0.5312-0.3457-0.936-0.8462-1.2139-1.5015
			c-0.2773-0.6553-0.416-1.3589-0.416-2.1108c0-0.8198,0.1567-1.5352,0.4697-2.1455c0.3135-0.6108,0.7593-1.0742,1.3379-1.3916
			c0.5781-0.3164,1.2144-0.4751,1.9092-0.4751c0.7876,0,1.4502,0.2007,1.9873,0.6016s0.9111,0.9648,1.1226,1.6919l-1.0259,0.2417
			c-0.1826-0.5728-0.4478-0.9902-0.7949-1.2515s-0.7842-0.3921-1.3105-0.3921c-0.605,0-1.1108,0.145-1.5176,0.4351
			c-0.4062,0.29-0.6919,0.6797-0.8564,1.168c-0.1646,0.4893-0.2471,0.9932-0.2471,1.5122c0,0.6694,0.0977,1.2544,0.293,1.7534
			c0.1948,0.5,0.4985,0.873,0.9102,1.1201s0.8574,0.3706,1.3374,0.3706c0.5835,0,1.0776-0.1685,1.4824-0.5049
			S36.9962,71.6348,37.1392,70.9722z"/>
		<path fill="#231F20" d="M38.9815,70.8809c0-1.0562,0.2935-1.8389,0.8809-2.3472c0.4907-0.4224,1.0884-0.6338,1.7939-0.6338
			c0.7842,0,1.4253,0.2568,1.9229,0.7705c0.4976,0.5142,0.7466,1.2241,0.7466,2.1299c0,0.7339-0.1099,1.3115-0.3306,1.7324
			c-0.2197,0.4204-0.5405,0.7471-0.9609,0.98c-0.4209,0.2329-0.8804,0.3491-1.3779,0.3491c-0.7983,0-1.4438-0.2559-1.9365-0.7681
			C39.2276,72.5816,38.9815,71.8443,38.9815,70.8809z M39.9752,70.8809c0,0.7305,0.1592,1.2773,0.478,1.6411
			c0.3188,0.3633,0.7197,0.5449,1.2031,0.5449c0.48,0,0.8789-0.1826,1.1978-0.5479s0.478-0.9219,0.478-1.6704
			c0-0.7056-0.1602-1.2397-0.4805-1.603c-0.3208-0.3638-0.7192-0.5454-1.1953-0.5454c-0.4834,0-0.8843,0.1807-1.2031,0.5425
			S39.9752,70.1504,39.9752,70.8809z"/>
		<path fill="#231F20" d="M45.459,73.7329v-5.7041h0.8701v0.811c0.4189-0.6265,1.0239-0.9399,1.8154-0.9399
			c0.3438,0,0.6597,0.0615,0.9478,0.1855c0.2886,0.123,0.5044,0.2852,0.6475,0.4858s0.2437,0.4385,0.3008,0.7144
			c0.0356,0.1792,0.0537,0.4922,0.0537,0.9399v3.5073h-0.9668v-3.4697c0-0.394-0.0376-0.6885-0.1128-0.8838
			c-0.0752-0.1948-0.2085-0.3506-0.3999-0.4668c-0.1919-0.1167-0.4165-0.1748-0.6743-0.1748c-0.4116,0-0.7671,0.1309-1.0659,0.3921
			c-0.2993,0.2612-0.4487,0.7573-0.4487,1.4878v3.1152H45.459z"/>
		<path fill="#231F20" d="M53.6876,72.8682l0.1396,0.854c-0.272,0.0571-0.5156,0.0859-0.7305,0.0859
			c-0.3511,0-0.623-0.0557-0.8164-0.1665s-0.3296-0.2568-0.4082-0.438c-0.0786-0.1807-0.1182-0.561-0.1182-1.1411v-3.2817h-0.709
			v-0.752h0.709v-1.4126l0.9614-0.5801v1.9927h0.9722v0.752h-0.9722v3.3354c0,0.2759,0.0171,0.4531,0.0513,0.5317
			c0.0337,0.0786,0.0894,0.1416,0.166,0.188c0.0771,0.0464,0.1875,0.0698,0.3306,0.0698
			C53.3707,72.9058,53.5123,72.8931,53.6876,72.8682z"/>
		<path fill="#231F20" d="M54.6221,73.7329v-5.7041h0.8701v0.8647c0.2222-0.4048,0.4272-0.6714,0.6147-0.8003
			c0.1885-0.1289,0.395-0.1934,0.6206-0.1934c0.3257,0,0.6572,0.104,0.9937,0.3115l-0.333,0.897
			c-0.2363-0.1396-0.4727-0.2095-0.709-0.2095c-0.2114,0-0.4009,0.0635-0.5693,0.1904c-0.1685,0.1274-0.2881,0.3037-0.3599,0.5293
			c-0.1074,0.3438-0.1611,0.7197-0.1611,1.1279v2.9863H54.6221z"/>
		<path fill="#231F20" d="M57.9361,70.8809c0-1.0562,0.2935-1.8389,0.8809-2.3472c0.4907-0.4224,1.0884-0.6338,1.7939-0.6338
			c0.7842,0,1.4253,0.2568,1.9229,0.7705c0.4976,0.5142,0.7466,1.2241,0.7466,2.1299c0,0.7339-0.1099,1.3115-0.3306,1.7324
			c-0.2197,0.4204-0.5405,0.7471-0.9609,0.98c-0.4209,0.2329-0.8804,0.3491-1.3779,0.3491c-0.7983,0-1.4438-0.2559-1.9365-0.7681
			C58.1822,72.5816,57.9361,71.8443,57.9361,70.8809z M58.9297,70.8809c0,0.7305,0.1592,1.2773,0.478,1.6411
			c0.3188,0.3633,0.7197,0.5449,1.2031,0.5449c0.48,0,0.8789-0.1826,1.1978-0.5479s0.478-0.9219,0.478-1.6704
			c0-0.7056-0.1602-1.2397-0.4805-1.603c-0.3208-0.3638-0.7192-0.5454-1.1953-0.5454c-0.4834,0-0.8843,0.1807-1.2031,0.5425
			S58.9297,70.1504,58.9297,70.8809z"/>
		<path fill="#231F20" d="M64.3922,73.7329v-7.874h0.9668v7.874H64.3922z"/>
		<path fill="#231F20" d="M66.836,73.7329v-7.874h0.9668v7.874H66.836z"/>
		<path fill="#231F20" d="M73.2061,71.896l0.999,0.1235c-0.1577,0.5835-0.4492,1.0366-0.8755,1.3589s-0.9702,0.4834-1.6328,0.4834
			c-0.8345,0-1.4956-0.2568-1.9849-0.7705c-0.4883-0.5142-0.7329-1.2349-0.7329-2.1621c0-0.9595,0.2471-1.7046,0.7412-2.2344
			s1.1353-0.7949,1.9229-0.7949c0.7627,0,1.3857,0.2598,1.8691,0.7788s0.7251,1.2495,0.7251,2.1914
			c0,0.0571-0.002,0.1431-0.0054,0.2578h-4.2539c0.0356,0.6265,0.2129,1.1064,0.5317,1.4395s0.7163,0.4995,1.1924,0.4995
			c0.3545,0,0.6572-0.0933,0.9077-0.2793S73.0591,72.3042,73.2061,71.896z M70.0318,70.333h3.1851
			c-0.043-0.48-0.1646-0.8398-0.3652-1.0796c-0.3081-0.3726-0.707-0.5586-1.1978-0.5586c-0.4438,0-0.8174,0.1484-1.1196,0.4458
			C70.2315,69.438,70.064,69.8355,70.0318,70.333z"/>
		<path fill="#231F20" d="M75.4083,73.7329v-5.7041h0.8701v0.8647c0.2222-0.4048,0.4272-0.6714,0.6147-0.8003
			c0.1885-0.1289,0.395-0.1934,0.6206-0.1934c0.3257,0,0.6572,0.104,0.9937,0.3115l-0.333,0.897
			c-0.2363-0.1396-0.4727-0.2095-0.709-0.2095c-0.2114,0-0.4009,0.0635-0.5693,0.1904c-0.1685,0.1274-0.2881,0.3037-0.3599,0.5293
			c-0.1074,0.3438-0.1611,0.7197-0.1611,1.1279v2.9863H75.4083z"/>
		<path fill="#231F20" d="M80.7901,73.7329l3.0239-7.874h1.1226l3.2227,7.874h-1.187l-0.9185-2.3848h-3.2925l-0.8647,2.3848H80.7901
			z M83.0621,70.4995h2.6694l-0.8218-2.1807c-0.2505-0.6626-0.437-1.2065-0.5586-1.6328c-0.1001,0.5049-0.2417,1.0063-0.4243,1.5039
			L83.0621,70.4995z"/>
	</g>
	<g>
		
			<rect x="0.6373" y="155.3724" fill="#FFFFFF" stroke="#231F20" stroke-width="1.2745" stroke-miterlimit="10" width="144.1442" height="104.1757"/>
	</g>
	<g>
		<path fill="#231F20" d="M36.5328,210.814l1.042,0.2627c-0.2183,0.8564-0.6113,1.5088-1.1787,1.958
			c-0.5679,0.4492-1.2617,0.6748-2.0815,0.6748c-0.8486,0-1.5386-0.1729-2.0708-0.5186c-0.5312-0.3457-0.936-0.8467-1.2139-1.501
			c-0.2773-0.6562-0.416-1.3594-0.416-2.1113c0-0.8203,0.1567-1.5352,0.4697-2.1455c0.3135-0.6104,0.7593-1.0742,1.3379-1.3916
			c0.5781-0.3164,1.2144-0.4746,1.9092-0.4746c0.7876,0,1.4502,0.2002,1.9873,0.6016c0.5371,0.4004,0.9111,0.9648,1.1226,1.6914
			l-1.0259,0.2422c-0.1826-0.5732-0.4478-0.9902-0.7949-1.252s-0.7842-0.3926-1.3105-0.3926c-0.605,0-1.1108,0.1455-1.5176,0.4355
			c-0.4062,0.29-0.6919,0.6797-0.8564,1.168c-0.1646,0.4893-0.2471,0.9932-0.2471,1.5117c0,0.6699,0.0977,1.2549,0.293,1.7539
			c0.1948,0.5,0.4985,0.873,0.9102,1.1201s0.8574,0.3701,1.3374,0.3701c0.5835,0,1.0776-0.168,1.4824-0.5039
			C36.1158,211.9761,36.3897,211.4761,36.5328,210.814z"/>
		<path fill="#231F20" d="M38.3751,210.7232c0-1.0566,0.2935-1.8389,0.8809-2.3477c0.4907-0.4229,1.0884-0.6338,1.7939-0.6338
			c0.7842,0,1.4253,0.2568,1.9229,0.7705s0.7466,1.2236,0.7466,2.1299c0,0.7344-0.1099,1.3115-0.3306,1.7324
			c-0.2197,0.4209-0.5405,0.7471-0.9609,0.9795c-0.4209,0.2334-0.8804,0.3496-1.3779,0.3496c-0.7983,0-1.4438-0.2559-1.9365-0.7676
			C38.6212,212.4234,38.3751,211.6861,38.3751,210.7232z M39.3687,210.7232c0,0.7305,0.1592,1.2773,0.478,1.6406
			s0.7197,0.5449,1.2031,0.5449c0.48,0,0.8789-0.1826,1.1978-0.5479s0.478-0.9219,0.478-1.6709
			c0-0.7051-0.1602-1.2393-0.4805-1.6025c-0.3208-0.3633-0.7192-0.5459-1.1953-0.5459c-0.4834,0-0.8843,0.1816-1.2031,0.543
			S39.3687,209.9927,39.3687,210.7232z"/>
		<path fill="#231F20" d="M44.8526,213.5747v-5.7041h0.8701v0.8115c0.4189-0.627,1.0239-0.9404,1.8154-0.9404
			c0.3438,0,0.6597,0.0615,0.9478,0.1855c0.2886,0.123,0.5044,0.2852,0.6475,0.4854c0.1431,0.2012,0.2437,0.4395,0.3008,0.7148
			c0.0356,0.1787,0.0537,0.4922,0.0537,0.9395v3.5078h-0.9668v-3.4697c0-0.3936-0.0376-0.6885-0.1128-0.8838
			s-0.2085-0.3506-0.3999-0.4668c-0.1919-0.1162-0.4165-0.1748-0.6743-0.1748c-0.4116,0-0.7671,0.1309-1.0659,0.3916
			c-0.2993,0.2617-0.4487,0.7578-0.4487,1.4883v3.1152H44.8526z"/>
		<path fill="#231F20" d="M53.0811,212.7095l0.1396,0.8545c-0.272,0.0576-0.5156,0.0859-0.7305,0.0859
			c-0.3511,0-0.623-0.0557-0.8164-0.167c-0.1934-0.1104-0.3296-0.2568-0.4082-0.4375s-0.1182-0.5605-0.1182-1.1406v-3.2822h-0.709
			v-0.752h0.709v-1.4131l0.9614-0.5801v1.9932h0.9722v0.752h-0.9722v3.335c0,0.2764,0.0171,0.4531,0.0513,0.5322
			c0.0337,0.0791,0.0894,0.1416,0.166,0.1885c0.0771,0.0459,0.1875,0.0693,0.3306,0.0693
			C52.7642,212.7476,52.9058,212.7349,53.0811,212.7095z"/>
		<path fill="#231F20" d="M54.0157,213.5747v-5.7041h0.8701v0.8643c0.2222-0.4043,0.4272-0.6709,0.6147-0.7998
			c0.1885-0.1289,0.395-0.1934,0.6206-0.1934c0.3257,0,0.6572,0.1035,0.9937,0.3115l-0.333,0.8965
			c-0.2363-0.1387-0.4727-0.209-0.709-0.209c-0.2114,0-0.4009,0.0635-0.5693,0.1904s-0.2881,0.3037-0.3599,0.5293
			c-0.1074,0.3438-0.1611,0.7197-0.1611,1.1279v2.9863H54.0157z"/>
		<path fill="#231F20" d="M57.3297,210.7232c0-1.0566,0.2935-1.8389,0.8809-2.3477c0.4907-0.4229,1.0884-0.6338,1.7939-0.6338
			c0.7842,0,1.4253,0.2568,1.9229,0.7705s0.7466,1.2236,0.7466,2.1299c0,0.7344-0.1099,1.3115-0.3306,1.7324
			c-0.2197,0.4209-0.5405,0.7471-0.9609,0.9795c-0.4209,0.2334-0.8804,0.3496-1.3779,0.3496c-0.7983,0-1.4438-0.2559-1.9365-0.7676
			C57.5757,212.4234,57.3297,211.6861,57.3297,210.7232z M58.3233,210.7232c0,0.7305,0.1592,1.2773,0.478,1.6406
			s0.7197,0.5449,1.2031,0.5449c0.48,0,0.8789-0.1826,1.1978-0.5479s0.478-0.9219,0.478-1.6709
			c0-0.7051-0.1602-1.2393-0.4805-1.6025c-0.3208-0.3633-0.7192-0.5459-1.1953-0.5459c-0.4834,0-0.8843,0.1816-1.2031,0.543
			S58.3233,209.9927,58.3233,210.7232z"/>
		<path fill="#231F20" d="M63.7857,213.5747v-7.874h0.9668v7.874H63.7857z"/>
		<path fill="#231F20" d="M66.2296,213.5747v-7.874h0.9668v7.874H66.2296z"/>
		<path fill="#231F20" d="M72.5997,211.7378l0.999,0.124c-0.1577,0.583-0.4492,1.0361-0.8755,1.3584s-0.9702,0.4834-1.6328,0.4834
			c-0.8345,0-1.4956-0.2568-1.9849-0.7705c-0.4883-0.5137-0.7329-1.2344-0.7329-2.1621c0-0.96,0.2471-1.7041,0.7412-2.2344
			s1.1353-0.7949,1.9229-0.7949c0.7627,0,1.3857,0.2598,1.8691,0.7783c0.4834,0.5195,0.7251,1.25,0.7251,2.1914
			c0,0.0576-0.002,0.1436-0.0054,0.2578h-4.2539c0.0356,0.627,0.2129,1.1074,0.5317,1.4395c0.3188,0.334,0.7163,0.5,1.1924,0.5
			c0.3545,0,0.6572-0.0928,0.9077-0.2793S72.4527,212.146,72.5997,211.7378z M69.4254,210.1743h3.1851
			c-0.043-0.4795-0.1646-0.8389-0.3652-1.0791c-0.3081-0.3721-0.707-0.5586-1.1978-0.5586c-0.4438,0-0.8174,0.1484-1.1196,0.4463
			C69.6251,209.2798,69.4576,209.6773,69.4254,210.1743z"/>
		<path fill="#231F20" d="M74.8018,213.5747v-5.7041h0.8701v0.8643c0.2222-0.4043,0.4272-0.6709,0.6147-0.7998
			c0.1885-0.1289,0.395-0.1934,0.6206-0.1934c0.3257,0,0.6572,0.1035,0.9937,0.3115l-0.333,0.8965
			c-0.2363-0.1387-0.4727-0.209-0.709-0.209c-0.2114,0-0.4009,0.0635-0.5693,0.1904s-0.2881,0.3037-0.3599,0.5293
			c-0.1074,0.3438-0.1611,0.7197-0.1611,1.1279v2.9863H74.8018z"/>
		<path fill="#231F20" d="M81.6124,213.5747v-7.874h2.9541c0.6016,0,1.084,0.0801,1.4473,0.2393
			c0.3638,0.1592,0.6484,0.4043,0.8545,0.7354c0.2056,0.3311,0.3086,0.6777,0.3086,1.04c0,0.3359-0.0913,0.6533-0.2739,0.9502
			s-0.4585,0.5371-0.8271,0.7197c0.4761,0.1396,0.8423,0.3779,1.0981,0.7148c0.2563,0.3359,0.3843,0.7334,0.3843,1.1914
			c0,0.3691-0.0776,0.7119-0.2339,1.0293c-0.1553,0.3164-0.3481,0.5605-0.5771,0.7324s-0.5166,0.3018-0.8623,0.3896
			c-0.3452,0.0879-0.7686,0.1318-1.27,0.1318H81.6124z M82.6544,209.0093h1.7026c0.4619,0,0.793-0.0303,0.9937-0.0908
			c0.2651-0.0791,0.4648-0.21,0.5986-0.3926c0.1348-0.1826,0.2017-0.4121,0.2017-0.6875c0-0.2617-0.0625-0.4912-0.188-0.6904
			c-0.1255-0.1982-0.3042-0.335-0.5371-0.4082s-0.6318-0.1104-1.1978-0.1104h-1.5737V209.0093z M82.6544,212.6451h1.9604
			c0.3364,0,0.5728-0.0117,0.709-0.0371c0.2397-0.043,0.4404-0.1143,0.6016-0.2148s0.2935-0.2461,0.3975-0.4375
			s0.1558-0.4131,0.1558-0.6641c0-0.293-0.0752-0.5479-0.2256-0.7646s-0.3589-0.3691-0.626-0.457
			c-0.2666-0.0879-0.6504-0.1318-1.1519-0.1318h-1.8208V212.6451z"/>
	</g>
	<g>
		
			<rect x="254.001" y="155.706" fill="#FFFFFF" stroke="#231F20" stroke-width="1.2745" stroke-miterlimit="10" width="106.6362" height="104.1757"/>
		<g>
			<g>
				<g>
					
						<rect x="254.001" y="164.9947" fill="#FFFFFF" stroke="#231F20" stroke-width="1.3045" stroke-miterlimit="10" width="33.4165" height="12.2283"/>
					<g>
						<path fill="#231F20" d="M266.6451,172.9751l0.999,0.124c-0.1572,0.583-0.4492,1.0361-0.875,1.3584
							c-0.4268,0.3223-0.9707,0.4834-1.6328,0.4834c-0.835,0-1.4961-0.2568-1.9854-0.7705
							c-0.4883-0.5137-0.7334-1.2344-0.7334-2.1621c0-0.96,0.248-1.7041,0.7422-2.2344s1.1348-0.7949,1.9219-0.7949
							c0.7637,0,1.3867,0.2598,1.8691,0.7783c0.4844,0.5195,0.7256,1.25,0.7256,2.1914c0,0.0576-0.002,0.1436-0.0049,0.2578h-4.2539
							c0.0352,0.627,0.2129,1.1074,0.5312,1.4395c0.3184,0.334,0.7158,0.5,1.1924,0.5c0.3545,0,0.6572-0.0928,0.9072-0.2793
							C266.2994,173.6802,266.4986,173.3833,266.6451,172.9751z M263.4703,171.4117h3.1855
							c-0.043-0.4795-0.165-0.8389-0.3652-1.0791c-0.3076-0.3721-0.707-0.5586-1.1973-0.5586c-0.4443,0-0.8174,0.1484-1.1201,0.4463
							C263.6705,170.5171,263.5035,170.9146,263.4703,171.4117z"/>
						<path fill="#231F20" d="M268.5904,170.9292c0-0.9316,0.0957-1.6807,0.2871-2.248s0.4756-1.0059,0.8535-1.3135
							s0.8535-0.4619,1.4258-0.4619c0.4229,0,0.7939,0.085,1.1123,0.2549s0.582,0.416,0.79,0.7363
							c0.207,0.3203,0.3701,0.7109,0.4883,1.1709s0.1777,1.0801,0.1777,1.8613c0,0.9238-0.0957,1.6689-0.2852,2.2363
							s-0.4736,1.0068-0.8516,1.3164s-0.8545,0.4648-1.4316,0.4648c-0.7588,0-1.3545-0.2725-1.7881-0.8164
							C268.8492,173.4742,268.5904,172.4077,268.5904,170.9292z M269.5836,170.9292c0,1.292,0.1514,2.1523,0.4541,2.5801
							s0.6758,0.6426,1.1191,0.6426c0.4443,0,0.8174-0.2148,1.1201-0.6445s0.4541-1.2891,0.4541-2.5781
							c0-1.2969-0.1514-2.1582-0.4541-2.584s-0.6787-0.6387-1.1299-0.6387c-0.4443,0-0.7988,0.1875-1.0645,0.5635
							C269.7505,168.7495,269.5836,169.6363,269.5836,170.9292z"/>
						<path fill="#231F20" d="M278.6978,174.1089c-0.3584,0.3037-0.7031,0.5186-1.0342,0.6445
							c-0.3311,0.125-0.6865,0.1875-1.0654,0.1875c-0.627,0-1.1084-0.1533-1.4453-0.459c-0.3369-0.3066-0.5049-0.6973-0.5049-1.1738
							c0-0.2793,0.0635-0.5342,0.1904-0.7656c0.127-0.2305,0.2939-0.416,0.5-0.5557s0.4375-0.2451,0.6953-0.3174
							c0.1895-0.0498,0.4766-0.0977,0.8594-0.1445c0.7803-0.0928,1.3555-0.2041,1.7246-0.333
							c0.0029-0.1328,0.0049-0.2168,0.0049-0.2529c0-0.3936-0.0908-0.6709-0.2744-0.832c-0.2461-0.2188-0.6133-0.3281-1.1006-0.3281
							c-0.4551,0-0.79,0.0801-1.0068,0.2393s-0.377,0.4414-0.4805,0.8467l-0.9453-0.1289c0.0859-0.4053,0.2266-0.7314,0.4238-0.9805
							s0.4814-0.4404,0.8535-0.5752c0.373-0.1338,0.8047-0.2012,1.2949-0.2012c0.4873,0,0.8828,0.0576,1.1875,0.1719
							c0.3037,0.1143,0.5273,0.2588,0.6709,0.4326s0.2432,0.3926,0.3008,0.6582c0.0322,0.1641,0.0479,0.4609,0.0479,0.8906v1.2891
							c0,0.8994,0.0215,1.4678,0.0625,1.7061s0.1221,0.4658,0.2441,0.6846h-1.0098
							C278.7906,174.6118,278.7261,174.3765,278.6978,174.1089z M278.6177,171.9488c-0.3516,0.1436-0.8779,0.2656-1.5801,0.3652
							c-0.3965,0.0576-0.6777,0.1221-0.8428,0.1934c-0.165,0.0723-0.292,0.1768-0.3818,0.3145
							c-0.0889,0.1377-0.1338,0.291-0.1338,0.459c0,0.2578,0.0977,0.4727,0.293,0.6445s0.4805,0.2578,0.8564,0.2578
							c0.3721,0,0.7031-0.0811,0.9941-0.2441c0.2891-0.1631,0.5029-0.3857,0.6387-0.668c0.1035-0.2188,0.1562-0.541,0.1562-0.9668
							V171.9488z"/>
					</g>
				</g>
			</g>
			<g>
				<g>
					
						<rect x="254.001" y="187.0599" fill="#FFFFFF" stroke="#231F20" stroke-width="1.3045" stroke-miterlimit="10" width="33.4165" height="12.2283"/>
					<g>
						<path fill="#231F20" d="M266.6451,195.0406l0.999,0.124c-0.1572,0.583-0.4492,1.0361-0.875,1.3584
							c-0.4268,0.3223-0.9707,0.4834-1.6328,0.4834c-0.835,0-1.4961-0.2568-1.9854-0.7705
							c-0.4883-0.5137-0.7334-1.2344-0.7334-2.1621c0-0.96,0.248-1.7041,0.7422-2.2344s1.1348-0.7949,1.9219-0.7949
							c0.7637,0,1.3867,0.2598,1.8691,0.7783c0.4844,0.5195,0.7256,1.25,0.7256,2.1914c0,0.0576-0.002,0.1436-0.0049,0.2578h-4.2539
							c0.0352,0.627,0.2129,1.1074,0.5312,1.4395c0.3184,0.334,0.7158,0.5,1.1924,0.5c0.3545,0,0.6572-0.0928,0.9072-0.2793
							C266.2994,195.7456,266.4986,195.4488,266.6451,195.0406z M263.4703,193.4771h3.1855
							c-0.043-0.4795-0.165-0.8389-0.3652-1.0791c-0.3076-0.3721-0.707-0.5586-1.1973-0.5586c-0.4443,0-0.8174,0.1484-1.1201,0.4463
							C263.6705,192.5826,263.5035,192.98,263.4703,193.4771z"/>
						<path fill="#231F20" d="M268.5904,192.9947c0-0.9316,0.0957-1.6807,0.2871-2.248s0.4756-1.0059,0.8535-1.3135
							s0.8535-0.4619,1.4258-0.4619c0.4229,0,0.7939,0.085,1.1123,0.2549s0.582,0.416,0.79,0.7363
							c0.207,0.3203,0.3701,0.7109,0.4883,1.1709s0.1777,1.0801,0.1777,1.8613c0,0.9238-0.0957,1.6689-0.2852,2.2363
							s-0.4736,1.0068-0.8516,1.3164s-0.8545,0.4648-1.4316,0.4648c-0.7588,0-1.3545-0.2725-1.7881-0.8164
							C268.8492,195.5396,268.5904,194.4732,268.5904,192.9947z M269.5836,192.9947c0,1.292,0.1514,2.1523,0.4541,2.5801
							s0.6758,0.6426,1.1191,0.6426c0.4443,0,0.8174-0.2148,1.1201-0.6445s0.4541-1.2891,0.4541-2.5781
							c0-1.2969-0.1514-2.1582-0.4541-2.584s-0.6787-0.6387-1.1299-0.6387c-0.4443,0-0.7988,0.1875-1.0645,0.5635
							C269.7505,190.815,269.5836,191.7017,269.5836,192.9947z"/>
						<path fill="#231F20" d="M275.8677,196.8775h-0.8975v-7.874h0.9668v2.8096c0.4082-0.5127,0.9287-0.7686,1.5635-0.7686
							c0.3506,0,0.6826,0.0703,0.9961,0.2119s0.5713,0.3408,0.7734,0.5967s0.3604,0.5645,0.4746,0.9268
							c0.1152,0.3613,0.1719,0.748,0.1719,1.1602c0,0.9766-0.2412,1.7324-0.7246,2.2656c-0.4834,0.5342-1.0635,0.8008-1.7402,0.8008
							c-0.6729,0-1.2012-0.2812-1.584-0.8438V196.8775z M275.856,193.9829c0,0.6836,0.0938,1.1777,0.2793,1.4824
							c0.3047,0.4971,0.7168,0.7461,1.2363,0.7461c0.4219,0,0.7871-0.1836,1.0957-0.5508c0.3076-0.3672,0.4609-0.9141,0.4609-1.6406
							c0-0.7451-0.1475-1.2949-0.4424-1.6484c-0.2959-0.3555-0.6533-0.5322-1.0713-0.5322c-0.4229,0-0.7881,0.1836-1.0957,0.5508
							C276.0103,192.7574,275.856,193.2876,275.856,193.9829z"/>
					</g>
				</g>
			</g>
			<g>
				<g>
					
						<rect x="254.001" y="216.2994" fill="#FFFFFF" stroke="#231F20" stroke-width="1.3045" stroke-miterlimit="10" width="33.4165" height="12.2283"/>
					<g>
						<path fill="#231F20" d="M266.6451,224.2798l0.999,0.124c-0.1572,0.583-0.4492,1.0361-0.875,1.3584
							c-0.4268,0.3223-0.9707,0.4834-1.6328,0.4834c-0.835,0-1.4961-0.2568-1.9854-0.7705
							c-0.4883-0.5137-0.7334-1.2344-0.7334-2.1621c0-0.96,0.248-1.7041,0.7422-2.2344s1.1348-0.7949,1.9219-0.7949
							c0.7637,0,1.3867,0.2598,1.8691,0.7783c0.4844,0.5195,0.7256,1.25,0.7256,2.1914c0,0.0576-0.002,0.1436-0.0049,0.2578h-4.2539
							c0.0352,0.627,0.2129,1.1074,0.5312,1.4395c0.3184,0.334,0.7158,0.5,1.1924,0.5c0.3545,0,0.6572-0.0928,0.9072-0.2793
							C266.2994,224.9849,266.4986,224.688,266.6451,224.2798z M263.4703,222.7163h3.1855c-0.043-0.4795-0.165-0.8389-0.3652-1.0791
							c-0.3076-0.3721-0.707-0.5586-1.1973-0.5586c-0.4443,0-0.8174,0.1484-1.1201,0.4463
							C263.6705,221.8218,263.5035,222.2193,263.4703,222.7163z"/>
						<path fill="#231F20" d="M268.5904,222.2339c0-0.9316,0.0957-1.6807,0.2871-2.248s0.4756-1.0059,0.8535-1.3135
							s0.8535-0.4619,1.4258-0.4619c0.4229,0,0.7939,0.085,1.1123,0.2549s0.582,0.416,0.79,0.7363
							c0.207,0.3203,0.3701,0.7109,0.4883,1.1709s0.1777,1.0801,0.1777,1.8613c0,0.9238-0.0957,1.6689-0.2852,2.2363
							s-0.4736,1.0068-0.8516,1.3164s-0.8545,0.4648-1.4316,0.4648c-0.7588,0-1.3545-0.2725-1.7881-0.8164
							C268.8492,224.7788,268.5904,223.7124,268.5904,222.2339z M269.5836,222.2339c0,1.292,0.1514,2.1523,0.4541,2.5801
							s0.6758,0.6426,1.1191,0.6426c0.4443,0,0.8174-0.2148,1.1201-0.6445s0.4541-1.2891,0.4541-2.5781
							c0-1.2969-0.1514-2.1582-0.4541-2.584s-0.6787-0.6387-1.1299-0.6387c-0.4443,0-0.7988,0.1875-1.0645,0.5635
							C269.7505,220.0542,269.5836,220.9409,269.5836,222.2339z"/>
						<path fill="#231F20" d="M278.6978,225.4136c-0.3584,0.3037-0.7031,0.5186-1.0342,0.6445
							c-0.3311,0.125-0.6865,0.1875-1.0654,0.1875c-0.627,0-1.1084-0.1533-1.4453-0.459c-0.3369-0.3066-0.5049-0.6973-0.5049-1.1738
							c0-0.2793,0.0635-0.5342,0.1904-0.7656c0.127-0.2305,0.2939-0.416,0.5-0.5557s0.4375-0.2451,0.6953-0.3174
							c0.1895-0.0498,0.4766-0.0977,0.8594-0.1445c0.7803-0.0928,1.3555-0.2041,1.7246-0.333
							c0.0029-0.1328,0.0049-0.2168,0.0049-0.2529c0-0.3936-0.0908-0.6709-0.2744-0.832c-0.2461-0.2188-0.6133-0.3281-1.1006-0.3281
							c-0.4551,0-0.79,0.0801-1.0068,0.2393s-0.377,0.4414-0.4805,0.8467l-0.9453-0.1289c0.0859-0.4053,0.2266-0.7314,0.4238-0.9805
							s0.4814-0.4404,0.8535-0.5752c0.373-0.1338,0.8047-0.2012,1.2949-0.2012c0.4873,0,0.8828,0.0576,1.1875,0.1719
							c0.3037,0.1143,0.5273,0.2588,0.6709,0.4326s0.2432,0.3926,0.3008,0.6582c0.0322,0.1641,0.0479,0.4609,0.0479,0.8906v1.2891
							c0,0.8994,0.0215,1.4678,0.0625,1.7061s0.1221,0.4658,0.2441,0.6846h-1.0098
							C278.7906,225.9165,278.7261,225.6812,278.6978,225.4136z M278.6177,223.2534c-0.3516,0.1436-0.8779,0.2656-1.5801,0.3652
							c-0.3965,0.0576-0.6777,0.1221-0.8428,0.1934c-0.165,0.0723-0.292,0.1768-0.3818,0.3145
							c-0.0889,0.1377-0.1338,0.291-0.1338,0.459c0,0.2578,0.0977,0.4727,0.293,0.6445s0.4805,0.2578,0.8564,0.2578
							c0.3721,0,0.7031-0.0811,0.9941-0.2441c0.2891-0.1631,0.5029-0.3857,0.6387-0.668c0.1035-0.2188,0.1562-0.541,0.1562-0.9668
							V223.2534z"/>
					</g>
				</g>
			</g>
			<g>
				<g>
					
						<rect x="254.001" y="238.3647" fill="#FFFFFF" stroke="#231F20" stroke-width="1.3045" stroke-miterlimit="10" width="33.4165" height="12.2283"/>
					<g>
						<path fill="#231F20" d="M266.6451,246.3452l0.999,0.124c-0.1572,0.583-0.4492,1.0361-0.875,1.3584
							c-0.4268,0.3223-0.9707,0.4834-1.6328,0.4834c-0.835,0-1.4961-0.2568-1.9854-0.7705
							c-0.4883-0.5137-0.7334-1.2344-0.7334-2.1621c0-0.96,0.248-1.7041,0.7422-2.2344s1.1348-0.7949,1.9219-0.7949
							c0.7637,0,1.3867,0.2598,1.8691,0.7783c0.4844,0.5195,0.7256,1.25,0.7256,2.1914c0,0.0576-0.002,0.1436-0.0049,0.2578h-4.2539
							c0.0352,0.627,0.2129,1.1074,0.5312,1.4395c0.3184,0.334,0.7158,0.5,1.1924,0.5c0.3545,0,0.6572-0.0928,0.9072-0.2793
							C266.2994,247.0503,266.4986,246.7534,266.6451,246.3452z M263.4703,244.7818h3.1855
							c-0.043-0.4795-0.165-0.8389-0.3652-1.0791c-0.3076-0.3721-0.707-0.5586-1.1973-0.5586c-0.4443,0-0.8174,0.1484-1.1201,0.4463
							C263.6705,243.8872,263.5035,244.2847,263.4703,244.7818z"/>
						<path fill="#231F20" d="M268.5904,244.2993c0-0.9316,0.0957-1.6807,0.2871-2.248s0.4756-1.0059,0.8535-1.3135
							s0.8535-0.4619,1.4258-0.4619c0.4229,0,0.7939,0.085,1.1123,0.2549s0.582,0.416,0.79,0.7363
							c0.207,0.3203,0.3701,0.7109,0.4883,1.1709s0.1777,1.0801,0.1777,1.8613c0,0.9238-0.0957,1.6689-0.2852,2.2363
							s-0.4736,1.0068-0.8516,1.3164s-0.8545,0.4648-1.4316,0.4648c-0.7588,0-1.3545-0.2725-1.7881-0.8164
							C268.8492,246.8443,268.5904,245.7779,268.5904,244.2993z M269.5836,244.2993c0,1.292,0.1514,2.1523,0.4541,2.5801
							s0.6758,0.6426,1.1191,0.6426c0.4443,0,0.8174-0.2148,1.1201-0.6445s0.4541-1.2891,0.4541-2.5781
							c0-1.2969-0.1514-2.1582-0.4541-2.584s-0.6787-0.6387-1.1299-0.6387c-0.4443,0-0.7988,0.1875-1.0645,0.5635
							C269.7505,242.1197,269.5836,243.0064,269.5836,244.2993z"/>
						<path fill="#231F20" d="M275.8677,248.1822h-0.8975v-7.874h0.9668v2.8096c0.4082-0.5127,0.9287-0.7686,1.5635-0.7686
							c0.3506,0,0.6826,0.0703,0.9961,0.2119s0.5713,0.3408,0.7734,0.5967s0.3604,0.5645,0.4746,0.9268
							c0.1152,0.3613,0.1719,0.748,0.1719,1.1602c0,0.9766-0.2412,1.7324-0.7246,2.2656c-0.4834,0.5342-1.0635,0.8008-1.7402,0.8008
							c-0.6729,0-1.2012-0.2812-1.584-0.8438V248.1822z M275.856,245.2876c0,0.6836,0.0938,1.1777,0.2793,1.4824
							c0.3047,0.4971,0.7168,0.7461,1.2363,0.7461c0.4219,0,0.7871-0.1836,1.0957-0.5508c0.3076-0.3672,0.4609-0.9141,0.4609-1.6406
							c0-0.7451-0.1475-1.2949-0.4424-1.6484c-0.2959-0.3555-0.6533-0.5322-1.0713-0.5322c-0.4229,0-0.7881,0.1836-1.0957,0.5508
							C276.0103,244.062,275.856,244.5923,275.856,245.2876z"/>
					</g>
				</g>
			</g>
		</g>
		
			<line fill="#FFFFFF" stroke="#231F20" stroke-width="1.3045" stroke-miterlimit="10" x1="254.001" y1="207.7938" x2="360.6373" y2="207.7938"/>
	</g>
	<g>
		<path fill="#231F20" d="M290.692,146.939l0.9824-0.0859c0.0469,0.3936,0.1553,0.7168,0.3252,0.9688
			c0.1699,0.2529,0.4346,0.457,0.792,0.6123c0.3584,0.1562,0.7617,0.2334,1.209,0.2334c0.3975,0,0.748-0.0586,1.0527-0.1768
			s0.5312-0.2803,0.6797-0.4863s0.2227-0.4307,0.2227-0.6738c0-0.2471-0.0713-0.4629-0.2148-0.6475s-0.3799-0.3389-0.709-0.4648
			c-0.2109-0.082-0.6787-0.21-1.4023-0.3838c-0.7227-0.1738-1.2295-0.3369-1.5195-0.4912c-0.376-0.1973-0.6562-0.4414-0.8408-0.7334
			s-0.2764-0.6182-0.2764-0.9795c0-0.3984,0.1133-0.7695,0.3379-1.1152c0.2266-0.3457,0.5557-0.6074,0.9883-0.7871
			c0.4336-0.1787,0.915-0.2676,1.4453-0.2676c0.584,0,1.0986,0.0938,1.5439,0.2812c0.4463,0.1885,0.7891,0.4648,1.0283,0.8301
			c0.2402,0.3652,0.3691,0.7793,0.3867,1.2402l-0.998,0.0762c-0.0547-0.498-0.2363-0.874-0.5459-1.1289
			c-0.3096-0.2539-0.7666-0.3809-1.3721-0.3809c-0.6299,0-1.0898,0.1152-1.3779,0.3467c-0.2881,0.2305-0.4326,0.5088-0.4326,0.835
			c0,0.2832,0.1025,0.5156,0.3066,0.6982c0.2002,0.1826,0.7246,0.3701,1.5713,0.5615s1.4277,0.3584,1.7432,0.502
			c0.458,0.2109,0.7959,0.4785,1.0146,0.8027s0.3271,0.6973,0.3271,1.1201c0,0.4189-0.1191,0.8135-0.3594,1.1846
			c-0.2402,0.3701-0.585,0.6582-1.0342,0.8643s-0.9551,0.3096-1.5166,0.3096c-0.7129,0-1.3105-0.1045-1.792-0.3125
			c-0.4814-0.207-0.8594-0.5195-1.1328-0.9365C290.8502,147.937,290.7066,147.4644,290.692,146.939z"/>
		<path fill="#231F20" d="M298.2593,149.4683v-7.874h0.9668v2.8252c0.4512-0.5225,1.0215-0.7842,1.709-0.7842
			c0.4219,0,0.7891,0.083,1.1006,0.25c0.3115,0.166,0.5342,0.3965,0.6689,0.6904c0.1338,0.293,0.2012,0.7188,0.2012,1.2773v3.6152
			h-0.9668v-3.6152c0-0.4824-0.1045-0.835-0.3145-1.0547c-0.209-0.2207-0.5059-0.3301-0.8887-0.3301
			c-0.2861,0-0.5557,0.0742-0.8086,0.2227c-0.252,0.1484-0.4316,0.3496-0.5391,0.6035c-0.1074,0.2549-0.1621,0.6055-0.1621,1.0527
			v3.1211H298.2593z"/>
		<path fill="#231F20" d="M308.2828,147.6314l0.999,0.124c-0.1572,0.583-0.4492,1.0361-0.875,1.3584
			c-0.4268,0.3223-0.9707,0.4834-1.6328,0.4834c-0.835,0-1.4961-0.2568-1.9854-0.7705c-0.4883-0.5137-0.7334-1.2344-0.7334-2.1621
			c0-0.96,0.248-1.7041,0.7422-2.2344s1.1348-0.7949,1.9219-0.7949c0.7637,0,1.3867,0.2598,1.8691,0.7783
			c0.4844,0.5195,0.7256,1.25,0.7256,2.1914c0,0.0576-0.002,0.1436-0.0049,0.2578h-4.2539c0.0352,0.627,0.2129,1.1074,0.5312,1.4395
			c0.3184,0.334,0.7158,0.5,1.1924,0.5c0.3545,0,0.6572-0.0928,0.9072-0.2793
			C307.9371,148.3365,308.1363,148.0396,308.2828,147.6314z M305.108,146.0679h3.1855c-0.043-0.4795-0.165-0.8389-0.3652-1.0791
			c-0.3076-0.3721-0.707-0.5586-1.1973-0.5586c-0.4443,0-0.8174,0.1484-1.1201,0.4463
			C305.3082,145.1734,305.1412,145.5708,305.108,146.0679z"/>
		<path fill="#231F20" d="M310.4732,149.4683v-7.874h0.9668v7.874H310.4732z"/>
		<path fill="#231F20" d="M313.1695,149.4683v-4.9521h-0.8545v-0.752h0.8545v-0.6064c0-0.3838,0.0342-0.668,0.1025-0.8545
			c0.0928-0.251,0.2568-0.4541,0.4912-0.6094c0.2344-0.1562,0.5625-0.2334,0.9854-0.2334c0.2725,0,0.5732,0.0312,0.9023,0.0957
			l-0.1445,0.8438c-0.2012-0.0361-0.3906-0.0537-0.5703-0.0537c-0.293,0-0.501,0.0625-0.623,0.1885
			c-0.1211,0.125-0.1816,0.3594-0.1816,0.7031v0.5264h1.1113v0.752h-1.1113v4.9521H313.1695z"/>
		<path fill="#231F20" d="M323.8638,148.5386v0.9297h-5.2041c-0.0068-0.2324,0.0303-0.457,0.1123-0.6719
			c0.1328-0.3535,0.3447-0.7031,0.6367-1.0469s0.7139-0.7412,1.2656-1.1924c0.8555-0.7021,1.4336-1.2578,1.7344-1.668
			s0.4512-0.7979,0.4512-1.1631c0-0.3828-0.1367-0.7061-0.4111-0.9688c-0.2734-0.2637-0.6309-0.3945-1.0713-0.3945
			c-0.4658,0-0.8379,0.1387-1.1172,0.418s-0.4209,0.666-0.4238,1.1602l-0.9941-0.1016c0.0684-0.7412,0.3242-1.3057,0.7676-1.6943
			c0.4443-0.3887,1.041-0.583,1.7891-0.583c0.7559,0,1.3535,0.209,1.7939,0.6289c0.4404,0.418,0.6611,0.9375,0.6611,1.5566
			c0,0.3154-0.0645,0.625-0.1934,0.9297s-0.3438,0.625-0.6426,0.9609c-0.2988,0.3369-0.7959,0.7988-1.4902,1.3867
			c-0.5801,0.4863-0.9521,0.8164-1.1172,0.9902s-0.3008,0.3486-0.4082,0.5234H323.8638z"/>
	</g>
	<g>
		<path fill="#231F20" d="M307.2007,185.0044v-7.874h1.0684l4.1367,6.1826v-6.1826h0.998v7.874h-1.0684l-4.1357-6.1875v6.1875
			H307.2007z"/>
		<path fill="#231F20" d="M314.8013,182.4751l0.9824-0.0859c0.0469,0.3936,0.1553,0.7168,0.3252,0.9688
			c0.1699,0.2529,0.4346,0.457,0.792,0.6123c0.3584,0.1562,0.7617,0.2334,1.209,0.2334c0.3975,0,0.748-0.0586,1.0527-0.1768
			s0.5312-0.2803,0.6797-0.4863s0.2227-0.4307,0.2227-0.6738c0-0.2471-0.0713-0.4629-0.2148-0.6475s-0.3799-0.3389-0.709-0.4648
			c-0.2109-0.082-0.6787-0.21-1.4023-0.3838c-0.7227-0.1738-1.2295-0.3369-1.5195-0.4912c-0.376-0.1973-0.6562-0.4414-0.8408-0.7334
			s-0.2764-0.6182-0.2764-0.9795c0-0.3984,0.1133-0.7695,0.3379-1.1152c0.2266-0.3457,0.5557-0.6074,0.9883-0.7871
			c0.4336-0.1787,0.915-0.2676,1.4453-0.2676c0.584,0,1.0986,0.0938,1.5439,0.2812c0.4463,0.1885,0.7891,0.4648,1.0283,0.8301
			c0.2402,0.3652,0.3691,0.7793,0.3867,1.2402l-0.998,0.0762c-0.0547-0.498-0.2363-0.874-0.5459-1.1289
			c-0.3096-0.2539-0.7666-0.3809-1.3721-0.3809c-0.6299,0-1.0898,0.1152-1.3779,0.3467c-0.2881,0.2305-0.4326,0.5088-0.4326,0.835
			c0,0.2832,0.1025,0.5156,0.3066,0.6982c0.2002,0.1826,0.7246,0.3701,1.5713,0.5615s1.4277,0.3584,1.7432,0.502
			c0.458,0.2109,0.7959,0.4785,1.0146,0.8027s0.3271,0.6973,0.3271,1.1201c0,0.4189-0.1191,0.8135-0.3594,1.1846
			c-0.2402,0.3701-0.585,0.6582-1.0342,0.8643s-0.9551,0.3096-1.5166,0.3096c-0.7129,0-1.3105-0.1045-1.792-0.3125
			c-0.4814-0.207-0.8594-0.5195-1.1328-0.9365C314.9595,183.4732,314.816,183.0005,314.8013,182.4751z"/>
		<path fill="#231F20" d="M322.4595,185.0044v-7.874h1.5684l1.8633,5.5752c0.1719,0.5195,0.2979,0.9082,0.377,1.166
			c0.0889-0.2871,0.2285-0.708,0.418-1.2627l1.8857-5.4785h1.4014v7.874h-1.0039v-6.5898l-2.2881,6.5898h-0.9404l-2.2773-6.7031
			v6.7031H322.4595z"/>
		<path fill="#231F20" d="M333.2408,185.0044l3.0234-7.874h1.123l3.2227,7.874h-1.1875l-0.918-2.3848h-3.293l-0.8652,2.3848
			H333.2408z M335.5123,181.771h2.6699l-0.8223-2.1807c-0.251-0.6621-0.4365-1.207-0.5586-1.6328
			c-0.1006,0.5049-0.2422,1.0059-0.4238,1.5039L335.5123,181.771z"/>
	</g>
	<g>
		<path fill="#231F20" d="M306.5943,237.2417v-7.874h1.0684l4.1367,6.1826v-6.1826h0.998v7.874h-1.0684l-4.1357-6.1875v6.1875
			H306.5943z"/>
		<path fill="#231F20" d="M314.1939,234.7124l0.9824-0.0859c0.0469,0.3936,0.1553,0.7168,0.3252,0.9688
			c0.1699,0.2529,0.4346,0.457,0.792,0.6123c0.3584,0.1562,0.7617,0.2334,1.209,0.2334c0.3975,0,0.748-0.0586,1.0527-0.1768
			s0.5312-0.2803,0.6797-0.4863s0.2227-0.4307,0.2227-0.6738c0-0.2471-0.0713-0.4629-0.2148-0.6475s-0.3799-0.3389-0.709-0.4648
			c-0.2109-0.082-0.6787-0.21-1.4023-0.3838c-0.7227-0.1738-1.2295-0.3369-1.5195-0.4912c-0.376-0.1973-0.6562-0.4414-0.8408-0.7334
			s-0.2764-0.6182-0.2764-0.9795c0-0.3984,0.1133-0.7695,0.3379-1.1152c0.2266-0.3457,0.5557-0.6074,0.9883-0.7871
			c0.4336-0.1787,0.915-0.2676,1.4453-0.2676c0.584,0,1.0986,0.0938,1.5439,0.2812c0.4463,0.1885,0.7891,0.4648,1.0283,0.8301
			c0.2402,0.3652,0.3691,0.7793,0.3867,1.2402l-0.998,0.0762c-0.0547-0.498-0.2363-0.874-0.5459-1.1289
			c-0.3096-0.2539-0.7666-0.3809-1.3721-0.3809c-0.6299,0-1.0898,0.1152-1.3779,0.3467c-0.2881,0.2305-0.4326,0.5088-0.4326,0.835
			c0,0.2832,0.1025,0.5156,0.3066,0.6982c0.2002,0.1826,0.7246,0.3701,1.5713,0.5615s1.4277,0.3584,1.7432,0.502
			c0.458,0.2109,0.7959,0.4785,1.0146,0.8027s0.3271,0.6973,0.3271,1.1201c0,0.4189-0.1191,0.8135-0.3594,1.1846
			c-0.2402,0.3701-0.585,0.6582-1.0342,0.8643s-0.9551,0.3096-1.5166,0.3096c-0.7129,0-1.3105-0.1045-1.792-0.3125
			c-0.4814-0.207-0.8594-0.5195-1.1328-0.9365C314.3521,235.7105,314.2086,235.2378,314.1939,234.7124z"/>
		<path fill="#231F20" d="M321.8541,237.2417v-7.874h1.5684l1.8633,5.5752c0.1719,0.5195,0.2979,0.9082,0.377,1.166
			c0.0889-0.2871,0.2285-0.708,0.418-1.2627l1.8857-5.4785h1.4014v7.874h-1.0039v-6.5898l-2.2881,6.5898h-0.9404l-2.2773-6.7031
			v6.7031H321.8541z"/>
		<path fill="#231F20" d="M334.0621,237.2417v-7.874h2.9541c0.6016,0,1.084,0.0801,1.4473,0.2393s0.6484,0.4043,0.8545,0.7354
			s0.3086,0.6777,0.3086,1.04c0,0.3359-0.0908,0.6533-0.2744,0.9502c-0.1816,0.2969-0.458,0.5371-0.8262,0.7197
			c0.4756,0.1396,0.8418,0.3779,1.0977,0.7148c0.2559,0.3359,0.3848,0.7334,0.3848,1.1914c0,0.3691-0.0781,0.7119-0.2344,1.0293
			c-0.1553,0.3164-0.3477,0.5605-0.5771,0.7324s-0.5166,0.3018-0.8623,0.3896s-0.7686,0.1318-1.2695,0.1318H334.0621z
			 M335.1041,232.6763h1.7031c0.4609,0,0.793-0.0303,0.9932-0.0908c0.2646-0.0791,0.4648-0.21,0.5986-0.3926
			c0.1348-0.1826,0.2012-0.4121,0.2012-0.6875c0-0.2617-0.0625-0.4912-0.1875-0.6904c-0.125-0.1982-0.3047-0.335-0.5371-0.4082
			s-0.6318-0.1104-1.1973-0.1104h-1.5742V232.6763z M335.1041,236.312h1.9609c0.3359,0,0.5723-0.0117,0.709-0.0371
			c0.2393-0.043,0.4395-0.1143,0.6016-0.2148c0.1602-0.1006,0.293-0.2461,0.3965-0.4375c0.1045-0.1914,0.1562-0.4131,0.1562-0.6641
			c0-0.293-0.0752-0.5479-0.2256-0.7646s-0.3594-0.3691-0.626-0.457s-0.6504-0.1318-1.1523-0.1318h-1.8203V236.312z"/>
	</g>
	<g>
		
			<rect x="254.001" y="18.8906" fill="#FFFFFF" stroke="#231F20" stroke-width="1.2745" stroke-miterlimit="10" width="106.6362" height="104.1757"/>
		<g>
			<g>
				<g>
					
						<rect x="254.001" y="28.1792" fill="#FFFFFF" stroke="#231F20" stroke-width="1.3045" stroke-miterlimit="10" width="33.4165" height="12.2283"/>
					<g>
						<path fill="#231F20" d="M266.6451,36.1592l0.999,0.1235c-0.1572,0.5835-0.4492,1.0366-0.875,1.3589
							c-0.4268,0.3223-0.9707,0.4834-1.6328,0.4834c-0.835,0-1.4961-0.2568-1.9854-0.7705
							c-0.4883-0.5142-0.7334-1.2349-0.7334-2.1621c0-0.9595,0.248-1.7046,0.7422-2.2344s1.1348-0.7949,1.9219-0.7949
							c0.7637,0,1.3867,0.2598,1.8691,0.7788c0.4844,0.519,0.7256,1.2495,0.7256,2.1914c0,0.0571-0.002,0.1431-0.0049,0.2578
							h-4.2539c0.0352,0.6265,0.2129,1.1064,0.5312,1.4395s0.7158,0.4995,1.1924,0.4995c0.3545,0,0.6572-0.0933,0.9072-0.2793
							C266.2994,36.8648,266.4986,36.5674,266.6451,36.1592z M263.4703,34.5962h3.1855c-0.043-0.48-0.165-0.8398-0.3652-1.0796
							c-0.3076-0.3726-0.707-0.5586-1.1973-0.5586c-0.4443,0-0.8174,0.1484-1.1201,0.4458S263.5035,34.0987,263.4703,34.5962z"/>
						<path fill="#231F20" d="M268.5904,34.1128c0-0.9312,0.0957-1.6802,0.2871-2.2476c0.1914-0.5679,0.4756-1.0054,0.8535-1.3135
							s0.8535-0.4619,1.4258-0.4619c0.4229,0,0.7939,0.085,1.1123,0.2549c0.3184,0.1704,0.582,0.4155,0.79,0.7363
							c0.207,0.3203,0.3701,0.7104,0.4883,1.1709c0.1182,0.46,0.1777,1.0801,0.1777,1.8608c0,0.9238-0.0957,1.6694-0.2852,2.2368
							c-0.1895,0.5679-0.4736,1.0063-0.8516,1.3164c-0.3779,0.3096-0.8545,0.4644-1.4316,0.4644
							c-0.7588,0-1.3545-0.272-1.7881-0.8164C268.8492,36.6587,268.5904,35.5918,268.5904,34.1128z M269.5836,34.1128
							c0,1.2925,0.1514,2.1528,0.4541,2.5806c0.3027,0.4282,0.6758,0.6421,1.1191,0.6421c0.4443,0,0.8174-0.2148,1.1201-0.6445
							s0.4541-1.2891,0.4541-2.5781c0-1.2964-0.1514-2.1572-0.4541-2.5835s-0.6787-0.6392-1.1299-0.6392
							c-0.4443,0-0.7988,0.188-1.0645,0.564C269.7505,31.9341,269.5836,32.8203,269.5836,34.1128z"/>
						<path fill="#231F20" d="M278.6978,37.2925c-0.3584,0.3042-0.7031,0.519-1.0342,0.6445s-0.6865,0.188-1.0654,0.188
							c-0.627,0-1.1084-0.1533-1.4453-0.459c-0.3369-0.3066-0.5049-0.6978-0.5049-1.1738c0-0.2793,0.0635-0.5342,0.1904-0.7656
							c0.127-0.2305,0.2939-0.416,0.5-0.5557s0.4375-0.2451,0.6953-0.3169c0.1895-0.0503,0.4766-0.0986,0.8594-0.145
							c0.7803-0.0933,1.3555-0.2041,1.7246-0.333c0.0029-0.1323,0.0049-0.2168,0.0049-0.2524c0-0.394-0.0908-0.6714-0.2744-0.8325
							c-0.2461-0.2183-0.6133-0.3276-1.1006-0.3276c-0.4551,0-0.79,0.0796-1.0068,0.2388c-0.2168,0.1597-0.377,0.4414-0.4805,0.8462
							l-0.9453-0.1289c0.0859-0.4048,0.2266-0.7314,0.4238-0.98c0.1973-0.249,0.4814-0.4404,0.8535-0.5752
							c0.373-0.1338,0.8047-0.2012,1.2949-0.2012c0.4873,0,0.8828,0.0571,1.1875,0.1719c0.3037,0.1147,0.5273,0.2588,0.6709,0.4326
							c0.1436,0.1733,0.2432,0.3926,0.3008,0.6577c0.0322,0.1646,0.0479,0.4619,0.0479,0.8916v1.2891
							c0,0.8989,0.0215,1.4673,0.0625,1.7056c0.041,0.2378,0.1221,0.4663,0.2441,0.6846h-1.0098
							C278.7906,37.7954,278.7261,37.5611,278.6978,37.2925z M278.6177,35.1333c-0.3516,0.1431-0.8779,0.2651-1.5801,0.3652
							c-0.3965,0.0571-0.6777,0.1216-0.8428,0.1934s-0.292,0.1763-0.3818,0.314c-0.0889,0.1382-0.1338,0.291-0.1338,0.4595
							c0,0.2578,0.0977,0.4727,0.293,0.6445s0.4805,0.2578,0.8564,0.2578c0.3721,0,0.7031-0.0815,0.9941-0.2446
							c0.2891-0.1626,0.5029-0.3857,0.6387-0.6685c0.1035-0.2183,0.1562-0.5405,0.1562-0.9668V35.1333z"/>
					</g>
				</g>
			</g>
			<g>
				<g>
					
						<rect x="254.001" y="50.2445" fill="#FFFFFF" stroke="#231F20" stroke-width="1.3045" stroke-miterlimit="10" width="33.4165" height="12.2283"/>
					<g>
						<path fill="#231F20" d="M266.6451,58.2246l0.999,0.1235c-0.1572,0.5835-0.4492,1.0366-0.875,1.3589
							c-0.4268,0.3223-0.9707,0.4834-1.6328,0.4834c-0.835,0-1.4961-0.2568-1.9854-0.7705
							c-0.4883-0.5142-0.7334-1.2349-0.7334-2.1621c0-0.9595,0.248-1.7046,0.7422-2.2344s1.1348-0.7949,1.9219-0.7949
							c0.7637,0,1.3867,0.2598,1.8691,0.7788c0.4844,0.519,0.7256,1.2495,0.7256,2.1914c0,0.0571-0.002,0.1431-0.0049,0.2578
							h-4.2539c0.0352,0.6265,0.2129,1.1064,0.5312,1.4395s0.7158,0.4995,1.1924,0.4995c0.3545,0,0.6572-0.0933,0.9072-0.2793
							C266.2994,58.9302,266.4986,58.6328,266.6451,58.2246z M263.4703,56.6616h3.1855c-0.043-0.48-0.165-0.8398-0.3652-1.0796
							c-0.3076-0.3726-0.707-0.5586-1.1973-0.5586c-0.4443,0-0.8174,0.1484-1.1201,0.4458S263.5035,56.1641,263.4703,56.6616z"/>
						<path fill="#231F20" d="M268.5904,56.1782c0-0.9312,0.0957-1.6802,0.2871-2.2476c0.1914-0.5679,0.4756-1.0054,0.8535-1.3135
							s0.8535-0.4619,1.4258-0.4619c0.4229,0,0.7939,0.085,1.1123,0.2549c0.3184,0.1704,0.582,0.4155,0.79,0.7363
							c0.207,0.3203,0.3701,0.7104,0.4883,1.1709c0.1182,0.46,0.1777,1.0801,0.1777,1.8608c0,0.9238-0.0957,1.6694-0.2852,2.2368
							c-0.1895,0.5679-0.4736,1.0063-0.8516,1.3164c-0.3779,0.3096-0.8545,0.4644-1.4316,0.4644
							c-0.7588,0-1.3545-0.272-1.7881-0.8164C268.8492,58.7241,268.5904,57.6572,268.5904,56.1782z M269.5836,56.1782
							c0,1.2925,0.1514,2.1528,0.4541,2.5806c0.3027,0.4282,0.6758,0.6421,1.1191,0.6421c0.4443,0,0.8174-0.2148,1.1201-0.6445
							s0.4541-1.2891,0.4541-2.5781c0-1.2964-0.1514-2.1572-0.4541-2.5835s-0.6787-0.6392-1.1299-0.6392
							c-0.4443,0-0.7988,0.188-1.0645,0.564C269.7505,53.9995,269.5836,54.8858,269.5836,56.1782z"/>
						<path fill="#231F20" d="M275.8677,60.0615h-0.8975v-7.874h0.9668v2.8091c0.4082-0.5122,0.9287-0.7681,1.5635-0.7681
							c0.3506,0,0.6826,0.0708,0.9961,0.2119c0.3135,0.1416,0.5713,0.3403,0.7734,0.5967c0.2021,0.2559,0.3604,0.5645,0.4746,0.9263
							c0.1152,0.3618,0.1719,0.7485,0.1719,1.1602c0,0.9775-0.2412,1.7329-0.7246,2.2666s-1.0635,0.8003-1.7402,0.8003
							c-0.6729,0-1.2012-0.2812-1.584-0.8433V60.0615z M275.856,57.1665c0,0.6841,0.0938,1.1782,0.2793,1.4824
							c0.3047,0.4976,0.7168,0.7466,1.2363,0.7466c0.4219,0,0.7871-0.1836,1.0957-0.5508c0.3076-0.3667,0.4609-0.9136,0.4609-1.6406
							c0-0.7446-0.1475-1.2944-0.4424-1.6489c-0.2959-0.3545-0.6533-0.5317-1.0713-0.5317c-0.4229,0-0.7881,0.1836-1.0957,0.5508
							C276.0103,55.9409,275.856,56.4717,275.856,57.1665z"/>
					</g>
				</g>
			</g>
			<g>
				<g>
					
						<rect x="254.001" y="79.484" fill="#FFFFFF" stroke="#231F20" stroke-width="1.3045" stroke-miterlimit="10" width="33.4165" height="12.2283"/>
					<g>
						<path fill="#231F20" d="M266.6451,87.4649l0.999,0.1235c-0.1572,0.5835-0.4492,1.0366-0.875,1.3589
							c-0.4268,0.3223-0.9707,0.4834-1.6328,0.4834c-0.835,0-1.4961-0.2568-1.9854-0.7705
							c-0.4883-0.5142-0.7334-1.2349-0.7334-2.1621c0-0.9595,0.248-1.7046,0.7422-2.2344s1.1348-0.7949,1.9219-0.7949
							c0.7637,0,1.3867,0.2598,1.8691,0.7788c0.4844,0.519,0.7256,1.2495,0.7256,2.1914c0,0.0571-0.002,0.1431-0.0049,0.2578
							h-4.2539c0.0352,0.6265,0.2129,1.1064,0.5312,1.4395s0.7158,0.4995,1.1924,0.4995c0.3545,0,0.6572-0.0933,0.9072-0.2793
							C266.2994,88.1704,266.4986,87.8731,266.6451,87.4649z M263.4703,85.9019h3.1855c-0.043-0.48-0.165-0.8398-0.3652-1.0796
							c-0.3076-0.3726-0.707-0.5586-1.1973-0.5586c-0.4443,0-0.8174,0.1484-1.1201,0.4458S263.5035,85.4043,263.4703,85.9019z"/>
						<path fill="#231F20" d="M268.5904,85.4185c0-0.9312,0.0957-1.6802,0.2871-2.2476c0.1914-0.5679,0.4756-1.0054,0.8535-1.3135
							s0.8535-0.4619,1.4258-0.4619c0.4229,0,0.7939,0.085,1.1123,0.2549c0.3184,0.1704,0.582,0.4155,0.79,0.7363
							c0.207,0.3203,0.3701,0.7104,0.4883,1.1709c0.1182,0.46,0.1777,1.0801,0.1777,1.8608c0,0.9238-0.0957,1.6694-0.2852,2.2368
							c-0.1895,0.5679-0.4736,1.0063-0.8516,1.3164c-0.3779,0.3096-0.8545,0.4644-1.4316,0.4644
							c-0.7588,0-1.3545-0.272-1.7881-0.8164C268.8492,87.9644,268.5904,86.8975,268.5904,85.4185z M269.5836,85.4185
							c0,1.2925,0.1514,2.1528,0.4541,2.5806c0.3027,0.4282,0.6758,0.6421,1.1191,0.6421c0.4443,0,0.8174-0.2148,1.1201-0.6445
							s0.4541-1.2891,0.4541-2.5781c0-1.2964-0.1514-2.1572-0.4541-2.5835s-0.6787-0.6392-1.1299-0.6392
							c-0.4443,0-0.7988,0.188-1.0645,0.564C269.7505,83.2398,269.5836,84.126,269.5836,85.4185z"/>
						<path fill="#231F20" d="M278.6978,88.5982c-0.3584,0.3042-0.7031,0.519-1.0342,0.6445s-0.6865,0.188-1.0654,0.188
							c-0.627,0-1.1084-0.1533-1.4453-0.459c-0.3369-0.3066-0.5049-0.6978-0.5049-1.1738c0-0.2793,0.0635-0.5342,0.1904-0.7656
							c0.127-0.2305,0.2939-0.416,0.5-0.5557s0.4375-0.2451,0.6953-0.3169c0.1895-0.0503,0.4766-0.0986,0.8594-0.145
							c0.7803-0.0933,1.3555-0.2041,1.7246-0.333c0.0029-0.1323,0.0049-0.2168,0.0049-0.2524c0-0.394-0.0908-0.6714-0.2744-0.8325
							c-0.2461-0.2183-0.6133-0.3276-1.1006-0.3276c-0.4551,0-0.79,0.0796-1.0068,0.2388c-0.2168,0.1597-0.377,0.4414-0.4805,0.8462
							l-0.9453-0.1289c0.0859-0.4048,0.2266-0.7314,0.4238-0.98c0.1973-0.249,0.4814-0.4404,0.8535-0.5752
							c0.373-0.1338,0.8047-0.2012,1.2949-0.2012c0.4873,0,0.8828,0.0571,1.1875,0.1719c0.3037,0.1147,0.5273,0.2588,0.6709,0.4326
							c0.1436,0.1733,0.2432,0.3926,0.3008,0.6577c0.0322,0.1646,0.0479,0.4619,0.0479,0.8916v1.2891
							c0,0.8989,0.0215,1.4673,0.0625,1.7056c0.041,0.2378,0.1221,0.4663,0.2441,0.6846h-1.0098
							C278.7906,89.1011,278.7261,88.8667,278.6978,88.5982z M278.6177,86.439c-0.3516,0.1431-0.8779,0.2651-1.5801,0.3652
							c-0.3965,0.0571-0.6777,0.1216-0.8428,0.1934s-0.292,0.1763-0.3818,0.314c-0.0889,0.1382-0.1338,0.291-0.1338,0.4595
							c0,0.2578,0.0977,0.4727,0.293,0.6445s0.4805,0.2578,0.8564,0.2578c0.3721,0,0.7031-0.0815,0.9941-0.2446
							c0.2891-0.1626,0.5029-0.3857,0.6387-0.6685c0.1035-0.2183,0.1562-0.5405,0.1562-0.9668V86.439z"/>
					</g>
				</g>
			</g>
			<g>
				<g>
					
						<rect x="254.001" y="101.5492" fill="#FFFFFF" stroke="#231F20" stroke-width="1.3045" stroke-miterlimit="10" width="33.4165" height="12.2283"/>
					<g>
						<path fill="#231F20" d="M266.6451,109.5293l0.999,0.1235c-0.1572,0.5835-0.4492,1.0366-0.875,1.3589
							c-0.4268,0.3223-0.9707,0.4834-1.6328,0.4834c-0.835,0-1.4961-0.2568-1.9854-0.7705
							c-0.4883-0.5142-0.7334-1.2349-0.7334-2.1621c0-0.9595,0.248-1.7046,0.7422-2.2344s1.1348-0.7949,1.9219-0.7949
							c0.7637,0,1.3867,0.2598,1.8691,0.7788c0.4844,0.519,0.7256,1.2495,0.7256,2.1914c0,0.0571-0.002,0.1431-0.0049,0.2578
							h-4.2539c0.0352,0.6265,0.2129,1.1064,0.5312,1.4395s0.7158,0.4995,1.1924,0.4995c0.3545,0,0.6572-0.0933,0.9072-0.2793
							C266.2994,110.2349,266.4986,109.9375,266.6451,109.5293z M263.4703,107.9663h3.1855c-0.043-0.48-0.165-0.8398-0.3652-1.0796
							c-0.3076-0.3726-0.707-0.5586-1.1973-0.5586c-0.4443,0-0.8174,0.1484-1.1201,0.4458S263.5035,107.4688,263.4703,107.9663z"/>
						<path fill="#231F20" d="M268.5904,107.4829c0-0.9312,0.0957-1.6802,0.2871-2.2476c0.1914-0.5679,0.4756-1.0054,0.8535-1.3135
							s0.8535-0.4619,1.4258-0.4619c0.4229,0,0.7939,0.085,1.1123,0.2549c0.3184,0.1704,0.582,0.4155,0.79,0.7363
							c0.207,0.3203,0.3701,0.7104,0.4883,1.1709c0.1182,0.46,0.1777,1.0801,0.1777,1.8608c0,0.9238-0.0957,1.6694-0.2852,2.2368
							c-0.1895,0.5679-0.4736,1.0063-0.8516,1.3164c-0.3779,0.3096-0.8545,0.4644-1.4316,0.4644
							c-0.7588,0-1.3545-0.272-1.7881-0.8164C268.8492,110.0288,268.5904,108.9619,268.5904,107.4829z M269.5836,107.4829
							c0,1.2925,0.1514,2.1528,0.4541,2.5806c0.3027,0.4282,0.6758,0.6421,1.1191,0.6421c0.4443,0,0.8174-0.2148,1.1201-0.6445
							s0.4541-1.2891,0.4541-2.5781c0-1.2964-0.1514-2.1572-0.4541-2.5835s-0.6787-0.6392-1.1299-0.6392
							c-0.4443,0-0.7988,0.188-1.0645,0.564C269.7505,105.3042,269.5836,106.1905,269.5836,107.4829z"/>
						<path fill="#231F20" d="M275.8677,111.3662h-0.8975v-7.874h0.9668v2.8091c0.4082-0.5122,0.9287-0.7681,1.5635-0.7681
							c0.3506,0,0.6826,0.0708,0.9961,0.2119c0.3135,0.1416,0.5713,0.3403,0.7734,0.5967c0.2021,0.2559,0.3604,0.5645,0.4746,0.9263
							c0.1152,0.3618,0.1719,0.7485,0.1719,1.1602c0,0.9775-0.2412,1.7329-0.7246,2.2666s-1.0635,0.8003-1.7402,0.8003
							c-0.6729,0-1.2012-0.2812-1.584-0.8433V111.3662z M275.856,108.4712c0,0.6841,0.0938,1.1782,0.2793,1.4824
							c0.3047,0.4976,0.7168,0.7466,1.2363,0.7466c0.4219,0,0.7871-0.1836,1.0957-0.5508c0.3076-0.3667,0.4609-0.9136,0.4609-1.6406
							c0-0.7446-0.1475-1.2944-0.4424-1.6489c-0.2959-0.3545-0.6533-0.5317-1.0713-0.5317c-0.4229,0-0.7881,0.1836-1.0957,0.5508
							C276.0103,107.2456,275.856,107.7764,275.856,108.4712z"/>
					</g>
				</g>
			</g>
		</g>
		
			<line fill="#FFFFFF" stroke="#231F20" stroke-width="1.3045" stroke-miterlimit="10" x1="254.001" y1="70.9784" x2="360.6373" y2="70.9784"/>
	</g>
	<g>
		<path fill="#231F20" d="M290.692,10.124l0.9824-0.0859c0.0469,0.394,0.1553,0.7173,0.3252,0.9692
			c0.1699,0.2529,0.4346,0.457,0.792,0.6123c0.3584,0.1562,0.7617,0.2339,1.209,0.2339c0.3975,0,0.748-0.0591,1.0527-0.1772
			s0.5312-0.2803,0.6797-0.4863c0.1484-0.2056,0.2227-0.4302,0.2227-0.6738c0-0.2471-0.0713-0.4629-0.2148-0.6475
			c-0.1436-0.1841-0.3799-0.3389-0.709-0.4644c-0.2109-0.0825-0.6787-0.2104-1.4023-0.3843
			c-0.7227-0.1733-1.2295-0.3374-1.5195-0.4912c-0.376-0.1968-0.6562-0.4414-0.8408-0.7334
			c-0.1846-0.2915-0.2764-0.6182-0.2764-0.98c0-0.3975,0.1133-0.769,0.3379-1.1147c0.2266-0.3452,0.5557-0.6074,0.9883-0.7866
			c0.4336-0.1792,0.915-0.2686,1.4453-0.2686c0.584,0,1.0986,0.0942,1.5439,0.2817c0.4463,0.1885,0.7891,0.4648,1.0283,0.8301
			c0.2402,0.3652,0.3691,0.7788,0.3867,1.2407l-0.998,0.0752c-0.0547-0.4976-0.2363-0.8735-0.5459-1.1279
			s-0.7666-0.3813-1.3721-0.3813c-0.6299,0-1.0898,0.1152-1.3779,0.3467c-0.2881,0.2305-0.4326,0.5093-0.4326,0.835
			c0,0.2827,0.1025,0.5156,0.3066,0.6982c0.2002,0.1826,0.7246,0.3696,1.5713,0.5615c0.8467,0.1914,1.4277,0.3589,1.7432,0.502
			c0.458,0.2114,0.7959,0.479,1.0146,0.8027c0.2188,0.3242,0.3271,0.6978,0.3271,1.1201c0,0.4189-0.1191,0.8135-0.3594,1.1846
			c-0.2402,0.3701-0.585,0.6587-1.0342,0.8643c-0.4492,0.2061-0.9551,0.3091-1.5166,0.3091c-0.7129,0-1.3105-0.104-1.792-0.3115
			s-0.8594-0.52-1.1328-0.937C290.8502,11.1221,290.7066,10.6504,290.692,10.124z"/>
		<path fill="#231F20" d="M298.2593,12.6538v-7.874h0.9668V7.605c0.4512-0.5229,1.0215-0.7842,1.709-0.7842
			c0.4219,0,0.7891,0.083,1.1006,0.25c0.3115,0.166,0.5342,0.3965,0.6689,0.6899c0.1338,0.2935,0.2012,0.7197,0.2012,1.2783v3.6147
			h-0.9668V9.0391c0-0.4834-0.1045-0.8354-0.3145-1.0552c-0.209-0.2207-0.5059-0.3306-0.8887-0.3306
			c-0.2861,0-0.5557,0.0742-0.8086,0.2231c-0.252,0.1484-0.4316,0.3496-0.5391,0.604s-0.1621,0.605-0.1621,1.0527v3.1206H298.2593z"
			/>
		<path fill="#231F20" d="M308.2828,10.8169l0.999,0.1235c-0.1572,0.5835-0.4492,1.0366-0.875,1.3589
			c-0.4268,0.3223-0.9707,0.4834-1.6328,0.4834c-0.835,0-1.4961-0.2568-1.9854-0.7705c-0.4883-0.5142-0.7334-1.2349-0.7334-2.1621
			c0-0.9595,0.248-1.7046,0.7422-2.2344s1.1348-0.7949,1.9219-0.7949c0.7637,0,1.3867,0.2598,1.8691,0.7788
			c0.4844,0.519,0.7256,1.2495,0.7256,2.1914c0,0.0571-0.002,0.1431-0.0049,0.2578h-4.2539
			c0.0352,0.6265,0.2129,1.1064,0.5312,1.4395s0.7158,0.4995,1.1924,0.4995c0.3545,0,0.6572-0.0933,0.9072-0.2793
			C307.9371,11.5225,308.1363,11.2251,308.2828,10.8169z M305.108,9.2539h3.1855c-0.043-0.48-0.165-0.8398-0.3652-1.0796
			c-0.3076-0.3726-0.707-0.5586-1.1973-0.5586c-0.4443,0-0.8174,0.1484-1.1201,0.4458
			C305.3082,8.3589,305.1412,8.7564,305.108,9.2539z"/>
		<path fill="#231F20" d="M310.4732,12.6538v-7.874h0.9668v7.874H310.4732z"/>
		<path fill="#231F20" d="M313.1695,12.6538V7.7017h-0.8545v-0.752h0.8545V6.3428c0-0.3833,0.0342-0.668,0.1025-0.854
			c0.0928-0.2505,0.2568-0.4541,0.4912-0.6094c0.2344-0.1562,0.5625-0.2339,0.9854-0.2339c0.2725,0,0.5732,0.0322,0.9023,0.0967
			l-0.1445,0.8433c-0.2012-0.0356-0.3906-0.0537-0.5703-0.0537c-0.293,0-0.501,0.0625-0.623,0.188
			c-0.1211,0.1255-0.1816,0.3599-0.1816,0.7036v0.5264h1.1113v0.752h-1.1113v4.9521H313.1695z"/>
		<path fill="#231F20" d="M322.4244,12.6538h-0.9668V6.4932c-0.2324,0.2222-0.5371,0.4438-0.915,0.666s-0.7178,0.3887-1.0186,0.4995
			V6.7241c0.541-0.2544,1.0137-0.562,1.418-0.9238c0.4053-0.3618,0.6914-0.7124,0.8594-1.0527h0.623V12.6538z"/>
	</g>
	<g>
		<path fill="#231F20" d="M307.2007,48.189v-7.874h1.0684l4.1367,6.1821V40.315h0.998v7.874h-1.0684l-4.1357-6.1875v6.1875H307.2007
			z"/>
		<path fill="#231F20" d="M314.8013,45.6592l0.9824-0.0859c0.0469,0.394,0.1553,0.7173,0.3252,0.9692
			c0.1699,0.2529,0.4346,0.457,0.792,0.6123c0.3584,0.1562,0.7617,0.2339,1.209,0.2339c0.3975,0,0.748-0.0591,1.0527-0.1772
			s0.5312-0.2803,0.6797-0.4863c0.1484-0.2056,0.2227-0.4302,0.2227-0.6738c0-0.2471-0.0713-0.4629-0.2148-0.6475
			c-0.1436-0.1841-0.3799-0.3389-0.709-0.4644c-0.2109-0.0825-0.6787-0.2104-1.4023-0.3843
			c-0.7227-0.1733-1.2295-0.3374-1.5195-0.4912c-0.376-0.1968-0.6562-0.4414-0.8408-0.7334
			c-0.1846-0.2915-0.2764-0.6182-0.2764-0.98c0-0.3975,0.1133-0.769,0.3379-1.1147c0.2266-0.3452,0.5557-0.6074,0.9883-0.7866
			c0.4336-0.1792,0.915-0.2686,1.4453-0.2686c0.584,0,1.0986,0.0942,1.5439,0.2817c0.4463,0.1885,0.7891,0.4648,1.0283,0.8301
			c0.2402,0.3652,0.3691,0.7788,0.3867,1.2407l-0.998,0.0752c-0.0547-0.4976-0.2363-0.8735-0.5459-1.1279
			s-0.7666-0.3813-1.3721-0.3813c-0.6299,0-1.0898,0.1152-1.3779,0.3467c-0.2881,0.2305-0.4326,0.5093-0.4326,0.835
			c0,0.2827,0.1025,0.5156,0.3066,0.6982c0.2002,0.1826,0.7246,0.3696,1.5713,0.5615c0.8467,0.1914,1.4277,0.3589,1.7432,0.502
			c0.458,0.2114,0.7959,0.479,1.0146,0.8027c0.2188,0.3242,0.3271,0.6978,0.3271,1.1201c0,0.4189-0.1191,0.8135-0.3594,1.1846
			c-0.2402,0.3701-0.585,0.6587-1.0342,0.8643c-0.4492,0.2061-0.9551,0.3091-1.5166,0.3091c-0.7129,0-1.3105-0.104-1.792-0.3115
			s-0.8594-0.52-1.1328-0.937C314.9595,46.6572,314.816,46.1856,314.8013,45.6592z"/>
		<path fill="#231F20" d="M322.4595,48.189v-7.874h1.5684l1.8633,5.5752c0.1719,0.519,0.2979,0.9077,0.377,1.1655
			c0.0889-0.2866,0.2285-0.707,0.418-1.2622l1.8857-5.4785h1.4014v7.874h-1.0039v-6.5903l-2.2881,6.5903h-0.9404l-2.2773-6.7031
			v6.7031H322.4595z"/>
		<path fill="#231F20" d="M333.2408,48.189l3.0234-7.874h1.123l3.2227,7.874h-1.1875l-0.918-2.3848h-3.293l-0.8652,2.3848H333.2408z
			 M335.5123,44.9556h2.6699l-0.8223-2.1807c-0.251-0.6626-0.4365-1.2065-0.5586-1.6328c-0.1006,0.5049-0.2422,1.0063-0.4238,1.5039
			L335.5123,44.9556z"/>
	</g>
	<g>
		<path fill="#231F20" d="M306.5943,100.4263v-7.874h1.0684l4.1367,6.1821v-6.1821h0.998v7.874h-1.0684l-4.1357-6.1875v6.1875
			H306.5943z"/>
		<path fill="#231F20" d="M314.1939,97.8965l0.9824-0.0859c0.0469,0.394,0.1553,0.7173,0.3252,0.9692
			c0.1699,0.2529,0.4346,0.457,0.792,0.6123c0.3584,0.1562,0.7617,0.2339,1.209,0.2339c0.3975,0,0.748-0.0591,1.0527-0.1772
			s0.5312-0.2803,0.6797-0.4863c0.1484-0.2056,0.2227-0.4302,0.2227-0.6738c0-0.2471-0.0713-0.4629-0.2148-0.6475
			c-0.1436-0.1841-0.3799-0.3389-0.709-0.4644c-0.2109-0.0825-0.6787-0.2104-1.4023-0.3843
			c-0.7227-0.1733-1.2295-0.3374-1.5195-0.4912c-0.376-0.1968-0.6562-0.4414-0.8408-0.7334
			c-0.1846-0.2915-0.2764-0.6182-0.2764-0.98c0-0.3975,0.1133-0.769,0.3379-1.1147c0.2266-0.3452,0.5557-0.6074,0.9883-0.7866
			c0.4336-0.1792,0.915-0.2686,1.4453-0.2686c0.584,0,1.0986,0.0942,1.5439,0.2817c0.4463,0.1885,0.7891,0.4648,1.0283,0.8301
			c0.2402,0.3652,0.3691,0.7788,0.3867,1.2407l-0.998,0.0752c-0.0547-0.4976-0.2363-0.8735-0.5459-1.1279
			s-0.7666-0.3813-1.3721-0.3813c-0.6299,0-1.0898,0.1152-1.3779,0.3467c-0.2881,0.2305-0.4326,0.5093-0.4326,0.835
			c0,0.2827,0.1025,0.5156,0.3066,0.6982c0.2002,0.1826,0.7246,0.3696,1.5713,0.5615c0.8467,0.1914,1.4277,0.3589,1.7432,0.502
			c0.458,0.2114,0.7959,0.479,1.0146,0.8027c0.2188,0.3242,0.3271,0.6978,0.3271,1.1201c0,0.4189-0.1191,0.8135-0.3594,1.1846
			c-0.2402,0.3701-0.585,0.6587-1.0342,0.8643c-0.4492,0.2061-0.9551,0.3091-1.5166,0.3091c-0.7129,0-1.3105-0.104-1.792-0.3115
			s-0.8594-0.52-1.1328-0.937C314.3521,98.8946,314.2086,98.4229,314.1939,97.8965z"/>
		<path fill="#231F20" d="M321.8541,100.4263v-7.874h1.5684l1.8633,5.5752c0.1719,0.519,0.2979,0.9077,0.377,1.1655
			c0.0889-0.2866,0.2285-0.707,0.418-1.2622l1.8857-5.4785h1.4014v7.874h-1.0039V93.836l-2.2881,6.5903h-0.9404l-2.2773-6.7031
			v6.7031H321.8541z"/>
		<path fill="#231F20" d="M334.0621,100.4263v-7.874h2.9541c0.6016,0,1.084,0.0796,1.4473,0.2393
			c0.3633,0.1592,0.6484,0.4043,0.8545,0.7354c0.2061,0.3315,0.3086,0.6777,0.3086,1.0396c0,0.3364-0.0908,0.6533-0.2744,0.9507
			c-0.1816,0.2974-0.458,0.5371-0.8262,0.7197c0.4756,0.1396,0.8418,0.3779,1.0977,0.7144s0.3848,0.7339,0.3848,1.1924
			c0,0.3687-0.0781,0.7114-0.2344,1.0288c-0.1553,0.3164-0.3477,0.561-0.5771,0.7329s-0.5166,0.3018-0.8623,0.3892
			c-0.3457,0.0879-0.7686,0.1318-1.2695,0.1318H334.0621z M335.1041,95.8609h1.7031c0.4609,0,0.793-0.0303,0.9932-0.0913
			c0.2646-0.0786,0.4648-0.2095,0.5986-0.3921c0.1348-0.1826,0.2012-0.4116,0.2012-0.6875c0-0.2612-0.0625-0.4912-0.1875-0.6904
			c-0.125-0.1982-0.3047-0.3345-0.5371-0.4082c-0.2324-0.0732-0.6318-0.1099-1.1973-0.1099h-1.5742V95.8609z M335.1041,99.4971
			h1.9609c0.3359,0,0.5723-0.0127,0.709-0.0376c0.2393-0.043,0.4395-0.1147,0.6016-0.2148c0.1602-0.1001,0.293-0.2461,0.3965-0.4375
			c0.1045-0.1919,0.1562-0.4131,0.1562-0.6636c0-0.2935-0.0752-0.5488-0.2256-0.7651c-0.1504-0.2168-0.3594-0.3691-0.626-0.457
			c-0.2666-0.0874-0.6504-0.1313-1.1523-0.1313h-1.8203V99.4971z"/>
	</g>
</g>
<g id="Layer_2">
	<g>
		<g>
			<g>
				<g>
					<path fill="#231F20" d="M106.0172,54.1294l-0.0703-0.7236c0.3232-0.0347,0.5869-0.1143,0.7939-0.2397
						c0.2061-0.125,0.373-0.3193,0.501-0.583c0.127-0.2637,0.1914-0.5605,0.1914-0.8901c0-0.2925-0.0488-0.5508-0.1455-0.7749
						s-0.2295-0.3911-0.3975-0.5005c-0.1689-0.1094-0.3525-0.1641-0.5518-0.1641c-0.2021,0-0.3789,0.0527-0.5293,0.1582
						c-0.1514,0.1055-0.2773,0.2793-0.3799,0.522c-0.0674,0.1558-0.1729,0.4995-0.3145,1.0322
						c-0.1426,0.5327-0.2764,0.9058-0.4023,1.1191c-0.1611,0.2769-0.3613,0.4834-0.5996,0.6191
						c-0.2393,0.1357-0.5059,0.2036-0.8027,0.2036c-0.3242,0-0.6289-0.083-0.9111-0.249c-0.2832-0.166-0.4971-0.4087-0.6436-0.7275
						c-0.1465-0.3193-0.2207-0.6738-0.2207-1.064c0-0.4302,0.0771-0.8091,0.2314-1.1372c0.1533-0.3281,0.3799-0.5806,0.6787-0.7573
						s0.6367-0.2715,1.0156-0.2847l0.0605,0.7354c-0.4062,0.0396-0.7139,0.1733-0.9219,0.4014s-0.3125,0.5649-0.3125,1.0107
						c0,0.4639,0.0947,0.8022,0.2832,1.0142c0.1895,0.2124,0.417,0.3188,0.6836,0.3188c0.2314,0,0.4219-0.0752,0.5713-0.2256
						c0.1494-0.1479,0.3027-0.5332,0.459-1.1567c0.1572-0.6235,0.2939-1.0518,0.4111-1.2837
						c0.1729-0.3374,0.3916-0.5864,0.6572-0.7476c0.2646-0.1606,0.5703-0.2412,0.916-0.2412c0.3428,0,0.666,0.0884,0.9688,0.2651
						c0.3037,0.1768,0.5391,0.4302,0.708,0.7612c0.168,0.3311,0.252,0.7036,0.252,1.1172c0,0.5249-0.085,0.9644-0.2539,1.3193
						c-0.1699,0.3545-0.4258,0.6328-0.7676,0.8345C106.8345,54.0127,106.4488,54.1187,106.0172,54.1294z"/>
					<path fill="#231F20" d="M108.0875,48.5723h-6.4424v-0.7119h6.4424V48.5723z"/>
					<path fill="#231F20" d="M105.7535,47.022c-0.8633,0-1.5039-0.2163-1.9199-0.6484c-0.3457-0.3613-0.5186-0.8018-0.5186-1.3213
						c0-0.5771,0.21-1.0493,0.6309-1.4155c0.4199-0.3667,1.001-0.5498,1.7422-0.5498c0.6006,0,1.0732,0.0811,1.417,0.2432
						c0.3447,0.1621,0.6123,0.3979,0.8027,0.708c0.1895,0.3096,0.2852,0.6479,0.2852,1.0142c0,0.5884-0.209,1.0635-0.6289,1.4258
						C107.1461,46.8408,106.5425,47.022,105.7535,47.022z M105.7535,46.2906c0.5977,0,1.0459-0.1177,1.3428-0.3521
						c0.2979-0.2349,0.4463-0.5303,0.4463-0.8862c0-0.353-0.1494-0.647-0.4482-0.8818c-0.2988-0.2344-0.7539-0.3521-1.3662-0.3521
						c-0.5771,0-1.0146,0.1182-1.3125,0.354c-0.2969,0.2358-0.4453,0.5293-0.4453,0.8799c0,0.356,0.1475,0.6514,0.4434,0.8862
						C104.7095,46.1729,105.1558,46.2906,105.7535,46.2906z"/>
					<path fill="#231F20" d="M107.3804,40.6978l0.6982-0.1025c0.0469,0.2002,0.0703,0.3794,0.0703,0.5376
						c0,0.2583-0.0459,0.459-0.1357,0.6011c-0.0908,0.1426-0.2109,0.2427-0.3584,0.3008c-0.1484,0.0581-0.46,0.0869-0.9346,0.0869
						h-2.6846v0.522h-0.6152v-0.522h-1.1553l-0.4746-0.708h1.6299v-0.7158h0.6152v0.7158h2.7295
						c0.2256,0,0.3701-0.0122,0.4346-0.0376c0.0645-0.0249,0.1162-0.0659,0.1533-0.1226c0.0391-0.0566,0.0576-0.1377,0.0576-0.2432
						C107.4107,40.9312,107.4009,40.8272,107.3804,40.6978z"/>
					<path fill="#231F20" d="M108.0875,35.2676v0.7119h-5.041c0.1826,0.1714,0.3643,0.396,0.5449,0.6743
						c0.1826,0.2783,0.3184,0.5278,0.4092,0.7495h-0.7646c-0.208-0.3984-0.46-0.7461-0.7559-1.0444
						c-0.2959-0.2979-0.583-0.5088-0.8613-0.6328v-0.4585H108.0875z"/>
					<path fill="#231F20" d="M108.0875,31.3643v0.7119h-5.041c0.1826,0.1714,0.3643,0.396,0.5449,0.6743
						c0.1826,0.2783,0.3184,0.5278,0.4092,0.7495h-0.7646c-0.208-0.3984-0.46-0.7461-0.7559-1.0444
						c-0.2959-0.2979-0.583-0.5088-0.8613-0.6328v-0.4585H108.0875z"/>
				</g>
			</g>
		</g>
		<g>
			<g>
				<path fill="#231F20" d="M129.3072,37.0288c-0.3579,0.3042-0.7026,0.519-1.0342,0.6445c-0.3311,0.1255-0.6865,0.188-1.0659,0.188
					c-0.6265,0-1.1084-0.1533-1.4448-0.459c-0.3364-0.3066-0.5049-0.6978-0.5049-1.1738c0-0.2793,0.0635-0.5342,0.1904-0.7656
					c0.1274-0.2305,0.2939-0.416,0.5-0.5557c0.2056-0.1396,0.4375-0.2451,0.6953-0.3169c0.1899-0.0503,0.4761-0.0986,0.8594-0.145
					c0.7808-0.0933,1.3555-0.2041,1.7241-0.333c0.0034-0.1323,0.0054-0.2168,0.0054-0.2524c0-0.394-0.0913-0.6714-0.2739-0.8325
					c-0.2471-0.2183-0.6143-0.3276-1.1011-0.3276c-0.4546,0-0.7905,0.0796-1.0068,0.2388c-0.2168,0.1597-0.377,0.4414-0.481,0.8462
					l-0.9453-0.1289c0.0859-0.4048,0.2275-0.7314,0.4243-0.98c0.1968-0.249,0.4814-0.4404,0.854-0.5752
					c0.3726-0.1338,0.8037-0.2012,1.2944-0.2012c0.4868,0,0.8828,0.0571,1.187,0.1719c0.3042,0.1147,0.5283,0.2588,0.6714,0.4326
					c0.1431,0.1733,0.2437,0.3926,0.3008,0.6577c0.0322,0.1646,0.0483,0.4619,0.0483,0.8916v1.2891
					c0,0.8989,0.0205,1.4673,0.062,1.7056c0.041,0.2378,0.1226,0.4663,0.2441,0.6846h-1.0098
					C129.4005,37.5318,129.336,37.2974,129.3072,37.0288z M129.2266,34.8697c-0.3511,0.1431-0.8774,0.2651-1.5791,0.3652
					c-0.3975,0.0571-0.6787,0.1216-0.8433,0.1934s-0.292,0.1763-0.3813,0.314c-0.0894,0.1382-0.1343,0.291-0.1343,0.4595
					c0,0.2578,0.0977,0.4727,0.293,0.6445c0.1948,0.1719,0.4805,0.2578,0.8564,0.2578c0.3726,0,0.7036-0.0815,0.9937-0.2446
					c0.29-0.1626,0.5029-0.3857,0.6392-0.6685c0.104-0.2183,0.1558-0.5405,0.1558-0.9668V34.8697z"/>
			</g>
		</g>
		<g>
			<g>
				<path fill="#231F20" d="M126.4766,54.5547h-0.897v-7.874h0.9668v2.8091c0.4082-0.5122,0.9292-0.7681,1.563-0.7681
					c0.3511,0,0.6831,0.0708,0.9966,0.2119c0.313,0.1416,0.5708,0.3403,0.7734,0.5967c0.2021,0.2559,0.3604,0.5645,0.4751,0.9263
					s0.1719,0.7485,0.1719,1.1602c0,0.9775-0.2417,1.7329-0.7251,2.2666s-1.0635,0.8003-1.7402,0.8003
					c-0.6733,0-1.2012-0.2812-1.5845-0.8433V54.5547z M126.4659,51.6597c0,0.6841,0.0933,1.1782,0.2793,1.4824
					c0.3042,0.4976,0.7163,0.7466,1.2354,0.7466c0.4224,0,0.7876-0.1836,1.0957-0.5508c0.3081-0.3667,0.4619-0.9136,0.4619-1.6406
					c0-0.7446-0.1479-1.2944-0.4429-1.6489c-0.2959-0.3545-0.6528-0.5317-1.0718-0.5317c-0.4224,0-0.7876,0.1836-1.0957,0.5508
					C126.6197,50.4341,126.4659,50.9649,126.4659,51.6597z"/>
			</g>
		</g>
		
			<line fill="none" stroke="#231F20" stroke-width="1.4842" stroke-miterlimit="10" x1="112.287" y1="26.914" x2="112.287" y2="58.3885"/>
		<g>
			<polyline fill="none" stroke="#231F20" stroke-width="1.4842" stroke-miterlimit="10" points="144.8226,58.6164 97.4386,58.6164 
				97.4386,26.5175 144.8226,26.5175 			"/>
			
				<line fill="none" stroke="#231F20" stroke-width="1.4842" stroke-miterlimit="10" x1="144.3859" y1="42.5669" x2="112.287" y2="42.5669"/>
		</g>
	</g>
	<g>
		<g>
			<g>
				<g>
					<path fill="#231F20" d="M106.0172,109.8511l-0.0703-0.7236c0.3232-0.0347,0.5869-0.1143,0.7939-0.2397
						c0.2061-0.125,0.373-0.3193,0.501-0.583c0.127-0.2637,0.1914-0.5605,0.1914-0.8901c0-0.2925-0.0488-0.5508-0.1455-0.7749
						s-0.2295-0.3911-0.3975-0.5005c-0.1689-0.1094-0.3525-0.1641-0.5518-0.1641c-0.2021,0-0.3789,0.0527-0.5293,0.1582
						c-0.1514,0.1055-0.2773,0.2793-0.3799,0.522c-0.0674,0.1558-0.1729,0.4995-0.3145,1.0322
						c-0.1426,0.5327-0.2764,0.9058-0.4023,1.1191c-0.1611,0.2769-0.3613,0.4834-0.5996,0.6191
						c-0.2393,0.1357-0.5059,0.2036-0.8027,0.2036c-0.3242,0-0.6289-0.083-0.9111-0.249c-0.2832-0.166-0.4971-0.4087-0.6436-0.7275
						c-0.1465-0.3193-0.2207-0.6738-0.2207-1.064c0-0.4302,0.0771-0.8091,0.2314-1.1372c0.1533-0.3281,0.3799-0.5806,0.6787-0.7573
						s0.6367-0.2715,1.0156-0.2847l0.0605,0.7354c-0.4062,0.0396-0.7139,0.1733-0.9219,0.4014s-0.3125,0.5649-0.3125,1.0107
						c0,0.4639,0.0947,0.8022,0.2832,1.0142c0.1895,0.2124,0.417,0.3188,0.6836,0.3188c0.2314,0,0.4219-0.0752,0.5713-0.2256
						c0.1494-0.1479,0.3027-0.5332,0.459-1.1567c0.1572-0.6235,0.2939-1.0518,0.4111-1.2837
						c0.1729-0.3374,0.3916-0.5864,0.6572-0.7476c0.2646-0.1606,0.5703-0.2412,0.916-0.2412c0.3428,0,0.666,0.0884,0.9688,0.2651
						c0.3037,0.1768,0.5391,0.4302,0.708,0.7612c0.168,0.3311,0.252,0.7036,0.252,1.1172c0,0.5249-0.085,0.9644-0.2539,1.3193
						c-0.1699,0.3545-0.4258,0.6328-0.7676,0.8345C106.8345,109.7344,106.4488,109.8404,106.0172,109.8511z"/>
					<path fill="#231F20" d="M108.0875,104.294h-6.4424v-0.7119h6.4424V104.294z"/>
					<path fill="#231F20" d="M105.7535,102.7437c-0.8633,0-1.5039-0.2163-1.9199-0.6484c-0.3457-0.3613-0.5186-0.8018-0.5186-1.3213
						c0-0.5771,0.21-1.0493,0.6309-1.4155c0.4199-0.3667,1.001-0.5498,1.7422-0.5498c0.6006,0,1.0732,0.0811,1.417,0.2432
						c0.3447,0.1621,0.6123,0.3979,0.8027,0.708c0.1895,0.3096,0.2852,0.6479,0.2852,1.0142c0,0.5884-0.209,1.0635-0.6289,1.4258
						C107.1461,102.5625,106.5425,102.7437,105.7535,102.7437z M105.7535,102.0122c0.5977,0,1.0459-0.1177,1.3428-0.3521
						c0.2979-0.2349,0.4463-0.5303,0.4463-0.8862c0-0.353-0.1494-0.647-0.4482-0.8818c-0.2988-0.2344-0.7539-0.3521-1.3662-0.3521
						c-0.5771,0-1.0146,0.1182-1.3125,0.354c-0.2969,0.2358-0.4453,0.5293-0.4453,0.8799c0,0.356,0.1475,0.6514,0.4434,0.8862
						C104.7095,101.8946,105.1558,102.0122,105.7535,102.0122z"/>
					<path fill="#231F20" d="M107.3804,96.4195l0.6982-0.1025c0.0469,0.2002,0.0703,0.3794,0.0703,0.5376
						c0,0.2583-0.0459,0.459-0.1357,0.6011c-0.0908,0.1426-0.2109,0.2427-0.3584,0.3008c-0.1484,0.0581-0.46,0.0869-0.9346,0.0869
						h-2.6846v0.522h-0.6152v-0.522h-1.1553l-0.4746-0.708h1.6299v-0.7158h0.6152v0.7158h2.7295
						c0.2256,0,0.3701-0.0122,0.4346-0.0376c0.0645-0.0249,0.1162-0.0659,0.1533-0.1226c0.0391-0.0566,0.0576-0.1377,0.0576-0.2432
						C107.4107,96.6529,107.4009,96.5489,107.3804,96.4195z"/>
					<path fill="#231F20" d="M104.5933,92.5752c-0.1191,0.2954-0.291,0.5142-0.5137,0.6562
						c-0.2227,0.1426-0.4893,0.2139-0.7998,0.2139c-0.4688,0-0.8623-0.1519-1.1826-0.4551c-0.3184-0.3032-0.4785-0.7065-0.4785-1.21
						c0-0.5063,0.1631-0.9136,0.4902-1.2222c0.3262-0.3086,0.7246-0.4629,1.1934-0.4629c0.2988,0,0.5586,0.0708,0.7793,0.2114
						c0.2217,0.1411,0.3926,0.3555,0.5117,0.6431c0.1299-0.356,0.3379-0.627,0.625-0.813s0.6299-0.2788,1.0273-0.2788
						c0.5518,0,1.0146,0.1753,1.3887,0.5259c0.376,0.3511,0.5625,0.8125,0.5625,1.3843c0,0.5723-0.1875,1.0337-0.5645,1.3843
						c-0.376,0.3511-0.8457,0.5264-1.4082,0.5264c-0.4189,0-0.7695-0.0957-1.0527-0.2871
						C104.8892,93.2007,104.6968,92.9282,104.5933,92.5752z M103.2535,92.7173c0.3047,0,0.5537-0.0879,0.7471-0.2646
						s0.29-0.4062,0.29-0.6885c0-0.2739-0.0957-0.499-0.2881-0.6743c-0.1914-0.1753-0.4268-0.2627-0.7051-0.2627
						c-0.29,0-0.5342,0.0903-0.7314,0.2705c-0.1982,0.1807-0.2969,0.4058-0.2969,0.6748c0,0.2715,0.0967,0.4966,0.29,0.6763
						C102.7525,92.628,102.9839,92.7173,103.2535,92.7173z M106.2281,92.9468c0.2266,0,0.4443-0.0479,0.6553-0.144
						c0.2109-0.0967,0.374-0.2393,0.4902-0.4292c0.1152-0.1899,0.1729-0.3945,0.1729-0.6133c0-0.3398-0.1211-0.6206-0.3643-0.8423
						s-0.5518-0.332-0.9268-0.332c-0.3809,0-0.6963,0.1138-0.9453,0.3418s-0.373,0.5137-0.373,0.8564
						c0,0.335,0.123,0.6123,0.3691,0.8325S105.8589,92.9468,106.2281,92.9468z"/>
				</g>
			</g>
		</g>
		<g>
			<g>
				<path fill="#231F20" d="M129.3072,93.7505c-0.3579,0.3042-0.7026,0.519-1.0342,0.6445c-0.3311,0.1255-0.6865,0.188-1.0659,0.188
					c-0.6265,0-1.1084-0.1533-1.4448-0.459c-0.3364-0.3066-0.5049-0.6978-0.5049-1.1738c0-0.2793,0.0635-0.5342,0.1904-0.7656
					c0.1274-0.2305,0.2939-0.416,0.5-0.5557c0.2056-0.1396,0.4375-0.2451,0.6953-0.3169c0.1899-0.0503,0.4761-0.0986,0.8594-0.145
					c0.7808-0.0933,1.3555-0.2041,1.7241-0.333c0.0034-0.1323,0.0054-0.2168,0.0054-0.2524c0-0.394-0.0913-0.6714-0.2739-0.8325
					c-0.2471-0.2183-0.6143-0.3276-1.1011-0.3276c-0.4546,0-0.7905,0.0796-1.0068,0.2388c-0.2168,0.1597-0.377,0.4414-0.481,0.8462
					l-0.9453-0.1289c0.0859-0.4048,0.2275-0.7314,0.4243-0.98c0.1968-0.249,0.4814-0.4404,0.854-0.5752
					c0.3726-0.1338,0.8037-0.2012,1.2944-0.2012c0.4868,0,0.8828,0.0571,1.187,0.1719s0.5283,0.2588,0.6714,0.4326
					c0.1431,0.1733,0.2437,0.3926,0.3008,0.6577c0.0322,0.1646,0.0483,0.4619,0.0483,0.8916v1.2891
					c0,0.8989,0.0205,1.4673,0.062,1.7056c0.041,0.2378,0.1226,0.4663,0.2441,0.6846h-1.0098
					C129.4005,94.2534,129.336,94.0191,129.3072,93.7505z M129.2266,91.5913c-0.3511,0.1431-0.8774,0.2651-1.5791,0.3652
					c-0.3975,0.0571-0.6787,0.1216-0.8433,0.1934s-0.292,0.1763-0.3813,0.314c-0.0894,0.1382-0.1343,0.291-0.1343,0.4595
					c0,0.2578,0.0977,0.4727,0.293,0.6445c0.1948,0.1719,0.4805,0.2578,0.8564,0.2578c0.3726,0,0.7036-0.0815,0.9937-0.2446
					c0.29-0.1626,0.5029-0.3857,0.6392-0.6685c0.104-0.2183,0.1558-0.5405,0.1558-0.9668V91.5913z"/>
			</g>
		</g>
		<g>
			<g>
				<path fill="#231F20" d="M126.4766,111.2764h-0.897v-7.874h0.9668v2.8091c0.4082-0.5122,0.9292-0.7681,1.563-0.7681
					c0.3511,0,0.6831,0.0708,0.9966,0.2119c0.313,0.1416,0.5708,0.3403,0.7734,0.5967c0.2021,0.2559,0.3604,0.5645,0.4751,0.9263
					s0.1719,0.7485,0.1719,1.1602c0,0.9775-0.2417,1.7329-0.7251,2.2666s-1.0635,0.8003-1.7402,0.8003
					c-0.6733,0-1.2012-0.2812-1.5845-0.8433V111.2764z M126.4659,108.3814c0,0.6841,0.0933,1.1782,0.2793,1.4824
					c0.3042,0.4976,0.7163,0.7466,1.2354,0.7466c0.4224,0,0.7876-0.1836,1.0957-0.5508c0.3081-0.3667,0.4619-0.9136,0.4619-1.6406
					c0-0.7446-0.1479-1.2944-0.4429-1.6489c-0.2959-0.3545-0.6528-0.5317-1.0718-0.5317c-0.4224,0-0.7876,0.1836-1.0957,0.5508
					C126.6197,107.1558,126.4659,107.6865,126.4659,108.3814z"/>
			</g>
		</g>
		
			<line fill="none" stroke="#231F20" stroke-width="1.4842" stroke-miterlimit="10" x1="112.287" y1="83.6356" x2="112.287" y2="115.1102"/>
		<g>
			<polyline fill="none" stroke="#231F20" stroke-width="1.4842" stroke-miterlimit="10" points="144.8226,115.338 97.4386,115.338 
				97.4386,83.2391 144.8226,83.2391 			"/>
			
				<line fill="none" stroke="#231F20" stroke-width="1.4842" stroke-miterlimit="10" x1="144.3859" y1="99.2886" x2="112.287" y2="99.2886"/>
		</g>
	</g>
	<g>
		<g>
			<g>
				<g>
					<path fill="#231F20" d="M106.0172,189.937l-0.0703-0.7236c0.3232-0.0342,0.5869-0.1143,0.7939-0.2393
						c0.2061-0.125,0.373-0.3203,0.501-0.584c0.127-0.2637,0.1914-0.5605,0.1914-0.8896c0-0.292-0.0488-0.5508-0.1455-0.7744
						c-0.0967-0.2246-0.2295-0.3916-0.3975-0.501c-0.1689-0.1094-0.3525-0.1641-0.5518-0.1641
						c-0.2021,0-0.3789,0.0527-0.5293,0.1582c-0.1514,0.1055-0.2773,0.2793-0.3799,0.5225
						c-0.0674,0.1553-0.1729,0.499-0.3145,1.0312c-0.1426,0.5332-0.2764,0.9062-0.4023,1.1191
						c-0.1611,0.2773-0.3613,0.4844-0.5996,0.6191c-0.2393,0.1367-0.5059,0.2041-0.8027,0.2041c-0.3242,0-0.6289-0.083-0.9111-0.249
						c-0.2832-0.166-0.4971-0.4082-0.6436-0.7275s-0.2207-0.6738-0.2207-1.0635c0-0.4307,0.0771-0.8096,0.2314-1.1377
						c0.1533-0.3281,0.3799-0.5811,0.6787-0.7568c0.2988-0.1777,0.6367-0.2715,1.0156-0.2852l0.0605,0.7354
						c-0.4062,0.04-0.7139,0.1729-0.9219,0.4014s-0.3125,0.5645-0.3125,1.0107c0,0.4639,0.0947,0.8018,0.2832,1.0146
						c0.1895,0.2119,0.417,0.3184,0.6836,0.3184c0.2314,0,0.4219-0.0752,0.5713-0.2256c0.1494-0.1475,0.3027-0.5332,0.459-1.1572
						c0.1572-0.623,0.2939-1.0508,0.4111-1.2832c0.1729-0.3379,0.3916-0.5859,0.6572-0.748
						c0.2646-0.1602,0.5703-0.2402,0.916-0.2402c0.3428,0,0.666,0.0879,0.9688,0.2646c0.3037,0.1768,0.5391,0.4307,0.708,0.7607
						c0.168,0.332,0.252,0.7041,0.252,1.1172c0,0.5254-0.085,0.9648-0.2539,1.3203c-0.1699,0.3535-0.4258,0.6328-0.7676,0.834
						C106.8345,189.8199,106.4488,189.9263,106.0172,189.937z"/>
					<path fill="#231F20" d="M108.0875,184.3804h-6.4424v-0.7129h6.4424V184.3804z"/>
					<path fill="#231F20" d="M105.7535,182.8296c-0.8633,0-1.5039-0.2168-1.9199-0.6484c-0.3457-0.3613-0.5186-0.8018-0.5186-1.3213
						c0-0.5771,0.21-1.0498,0.6309-1.415c0.4199-0.3672,1.001-0.5508,1.7422-0.5508c0.6006,0,1.0732,0.082,1.417,0.2441
						c0.3447,0.1621,0.6123,0.3975,0.8027,0.707c0.1895,0.3105,0.2852,0.6484,0.2852,1.0146c0,0.5889-0.209,1.0635-0.6289,1.4258
						C107.1461,182.648,106.5425,182.8296,105.7535,182.8296z M105.7535,182.0982c0.5977,0,1.0459-0.1182,1.3428-0.3525
						c0.2979-0.2344,0.4463-0.5293,0.4463-0.8857c0-0.3525-0.1494-0.6475-0.4482-0.8818s-0.7539-0.3516-1.3662-0.3516
						c-0.5771,0-1.0146,0.1172-1.3125,0.3535c-0.2969,0.2363-0.4453,0.5293-0.4453,0.8799c0,0.3564,0.1475,0.6514,0.4434,0.8857
						S105.1558,182.0982,105.7535,182.0982z"/>
					<path fill="#231F20" d="M107.3804,176.5054l0.6982-0.1025c0.0469,0.2002,0.0703,0.3799,0.0703,0.5381
						c0,0.2578-0.0459,0.459-0.1357,0.6006c-0.0908,0.1426-0.2109,0.2432-0.3584,0.3008c-0.1484,0.0576-0.46,0.0869-0.9346,0.0869
						h-2.6846v0.5215h-0.6152v-0.5215h-1.1553l-0.4746-0.708h1.6299v-0.7158h0.6152v0.7158h2.7295
						c0.2256,0,0.3701-0.0127,0.4346-0.0381c0.0645-0.0244,0.1162-0.0654,0.1533-0.1221c0.0391-0.0566,0.0576-0.1377,0.0576-0.2432
						C107.4107,176.7388,107.4009,176.6343,107.3804,176.5054z"/>
					<path fill="#231F20" d="M108.0875,171.0757v0.7109h-5.041c0.1826,0.1719,0.3643,0.3965,0.5449,0.6748
						c0.1826,0.2783,0.3184,0.5283,0.4092,0.749h-0.7646c-0.208-0.3984-0.46-0.7461-0.7559-1.0439s-0.583-0.5088-0.8613-0.6328
						v-0.458H108.0875z"/>
					<path fill="#231F20" d="M108.0875,167.1714v0.7129h-5.041c0.1826,0.1709,0.3643,0.3955,0.5449,0.6738
						c0.1826,0.2783,0.3184,0.5273,0.4092,0.75h-0.7646c-0.208-0.3984-0.46-0.7461-0.7559-1.0449
						c-0.2959-0.2979-0.583-0.5088-0.8613-0.6328v-0.459H108.0875z"/>
				</g>
			</g>
		</g>
		<g>
			<g>
				<path fill="#231F20" d="M129.3072,172.8365c-0.3579,0.3047-0.7026,0.5195-1.0342,0.6445
					c-0.3311,0.126-0.6865,0.1885-1.0659,0.1885c-0.6265,0-1.1084-0.1533-1.4448-0.459c-0.3364-0.3066-0.5049-0.6982-0.5049-1.1738
					c0-0.2793,0.0635-0.5342,0.1904-0.7656c0.1274-0.2305,0.2939-0.416,0.5-0.5557c0.2056-0.1396,0.4375-0.2451,0.6953-0.3174
					c0.1899-0.0498,0.4761-0.0986,0.8594-0.1445c0.7808-0.0938,1.3555-0.2041,1.7241-0.333
					c0.0034-0.1328,0.0054-0.2168,0.0054-0.2529c0-0.3936-0.0913-0.6709-0.2739-0.832c-0.2471-0.2188-0.6143-0.3281-1.1011-0.3281
					c-0.4546,0-0.7905,0.0801-1.0068,0.2393c-0.2168,0.1592-0.377,0.4414-0.481,0.8457l-0.9453-0.1289
					c0.0859-0.4043,0.2275-0.7314,0.4243-0.9795c0.1968-0.249,0.4814-0.4404,0.854-0.5752
					c0.3726-0.1338,0.8037-0.2012,1.2944-0.2012c0.4868,0,0.8828,0.0566,1.187,0.1719c0.3042,0.1143,0.5283,0.2588,0.6714,0.4326
					c0.1431,0.1729,0.2437,0.3926,0.3008,0.6572c0.0322,0.165,0.0483,0.4619,0.0483,0.8916v1.2891
					c0,0.8994,0.0205,1.4678,0.062,1.7061c0.041,0.2373,0.1226,0.4658,0.2441,0.6846h-1.0098
					C129.4005,173.3394,129.336,173.105,129.3072,172.8365z M129.2266,170.6773c-0.3511,0.1436-0.8774,0.2656-1.5791,0.3652
					c-0.3975,0.0576-0.6787,0.1221-0.8433,0.1934c-0.1646,0.0723-0.292,0.1768-0.3813,0.3145s-0.1343,0.291-0.1343,0.459
					c0,0.2578,0.0977,0.4727,0.293,0.6445c0.1948,0.1719,0.4805,0.2578,0.8564,0.2578c0.3726,0,0.7036-0.0811,0.9937-0.2441
					s0.5029-0.3857,0.6392-0.6689c0.104-0.2178,0.1558-0.54,0.1558-0.9668V170.6773z"/>
			</g>
		</g>
		<g>
			<g>
				<path fill="#231F20" d="M126.4766,190.3628h-0.897v-7.874h0.9668v2.8086c0.4082-0.5117,0.9292-0.7676,1.563-0.7676
					c0.3511,0,0.6831,0.0703,0.9966,0.2119c0.313,0.1416,0.5708,0.3398,0.7734,0.5967c0.2021,0.2559,0.3604,0.5645,0.4751,0.9258
					c0.1147,0.3623,0.1719,0.749,0.1719,1.1602c0,0.9775-0.2417,1.7334-0.7251,2.2666c-0.4834,0.5342-1.0635,0.8008-1.7402,0.8008
					c-0.6733,0-1.2012-0.2812-1.5845-0.8438V190.3628z M126.4659,187.4673c0,0.6846,0.0933,1.1787,0.2793,1.4824
					c0.3042,0.498,0.7163,0.7471,1.2354,0.7471c0.4224,0,0.7876-0.1836,1.0957-0.5508s0.4619-0.9141,0.4619-1.6406
					c0-0.7451-0.1479-1.2949-0.4429-1.6494c-0.2959-0.3545-0.6528-0.5312-1.0718-0.5312c-0.4224,0-0.7876,0.1836-1.0957,0.5508
					C126.6197,186.2417,126.4659,186.773,126.4659,187.4673z"/>
			</g>
		</g>
		
			<line fill="none" stroke="#231F20" stroke-width="1.4842" stroke-miterlimit="10" x1="112.287" y1="162.722" x2="112.287" y2="194.1965"/>
		<g>
			<polyline fill="none" stroke="#231F20" stroke-width="1.4842" stroke-miterlimit="10" points="144.8226,194.4243 
				97.4386,194.4243 97.4386,162.3255 144.8226,162.3255 			"/>
			
				<line fill="none" stroke="#231F20" stroke-width="1.4842" stroke-miterlimit="10" x1="144.3859" y1="178.3749" x2="112.287" y2="178.3749"/>
		</g>
	</g>
	<g>
		<g>
			<g>
				<g>
					<path fill="#231F20" d="M106.0172,246.687l-0.0703-0.7236c0.3232-0.0342,0.5869-0.1143,0.7939-0.2393
						c0.2061-0.125,0.373-0.3203,0.501-0.584c0.127-0.2637,0.1914-0.5605,0.1914-0.8896c0-0.292-0.0488-0.5508-0.1455-0.7744
						c-0.0967-0.2246-0.2295-0.3916-0.3975-0.501c-0.1689-0.1094-0.3525-0.1641-0.5518-0.1641
						c-0.2021,0-0.3789,0.0527-0.5293,0.1582c-0.1514,0.1055-0.2773,0.2793-0.3799,0.5225
						c-0.0674,0.1553-0.1729,0.499-0.3145,1.0312c-0.1426,0.5332-0.2764,0.9062-0.4023,1.1191
						c-0.1611,0.2773-0.3613,0.4844-0.5996,0.6191c-0.2393,0.1367-0.5059,0.2041-0.8027,0.2041c-0.3242,0-0.6289-0.083-0.9111-0.249
						c-0.2832-0.166-0.4971-0.4082-0.6436-0.7275s-0.2207-0.6738-0.2207-1.0635c0-0.4307,0.0771-0.8096,0.2314-1.1377
						c0.1533-0.3281,0.3799-0.5811,0.6787-0.7568c0.2988-0.1777,0.6367-0.2715,1.0156-0.2852l0.0605,0.7354
						c-0.4062,0.04-0.7139,0.1729-0.9219,0.4014s-0.3125,0.5645-0.3125,1.0107c0,0.4639,0.0947,0.8018,0.2832,1.0146
						c0.1895,0.2119,0.417,0.3184,0.6836,0.3184c0.2314,0,0.4219-0.0752,0.5713-0.2256c0.1494-0.1475,0.3027-0.5332,0.459-1.1572
						c0.1572-0.623,0.2939-1.0508,0.4111-1.2832c0.1729-0.3379,0.3916-0.5859,0.6572-0.748
						c0.2646-0.1602,0.5703-0.2402,0.916-0.2402c0.3428,0,0.666,0.0879,0.9688,0.2646c0.3037,0.1768,0.5391,0.4307,0.708,0.7607
						c0.168,0.332,0.252,0.7041,0.252,1.1172c0,0.5254-0.085,0.9648-0.2539,1.3203c-0.1699,0.3535-0.4258,0.6328-0.7676,0.834
						C106.8345,246.5699,106.4488,246.6763,106.0172,246.687z"/>
					<path fill="#231F20" d="M108.0875,241.1304h-6.4424v-0.7129h6.4424V241.1304z"/>
					<path fill="#231F20" d="M105.7535,239.5796c-0.8633,0-1.5039-0.2168-1.9199-0.6484c-0.3457-0.3613-0.5186-0.8018-0.5186-1.3213
						c0-0.5771,0.21-1.0498,0.6309-1.415c0.4199-0.3672,1.001-0.5508,1.7422-0.5508c0.6006,0,1.0732,0.082,1.417,0.2441
						c0.3447,0.1621,0.6123,0.3975,0.8027,0.707c0.1895,0.3105,0.2852,0.6484,0.2852,1.0146c0,0.5889-0.209,1.0635-0.6289,1.4258
						C107.1461,239.398,106.5425,239.5796,105.7535,239.5796z M105.7535,238.8482c0.5977,0,1.0459-0.1182,1.3428-0.3525
						c0.2979-0.2344,0.4463-0.5293,0.4463-0.8857c0-0.3525-0.1494-0.6475-0.4482-0.8818s-0.7539-0.3516-1.3662-0.3516
						c-0.5771,0-1.0146,0.1172-1.3125,0.3535c-0.2969,0.2363-0.4453,0.5293-0.4453,0.8799c0,0.3564,0.1475,0.6514,0.4434,0.8857
						S105.1558,238.8482,105.7535,238.8482z"/>
					<path fill="#231F20" d="M107.3804,233.2554l0.6982-0.1025c0.0469,0.2002,0.0703,0.3799,0.0703,0.5381
						c0,0.2578-0.0459,0.459-0.1357,0.6006c-0.0908,0.1426-0.2109,0.2432-0.3584,0.3008c-0.1484,0.0576-0.46,0.0869-0.9346,0.0869
						h-2.6846v0.5215h-0.6152v-0.5215h-1.1553l-0.4746-0.708h1.6299v-0.7158h0.6152v0.7158h2.7295
						c0.2256,0,0.3701-0.0127,0.4346-0.0381c0.0645-0.0244,0.1162-0.0654,0.1533-0.1221c0.0391-0.0566,0.0576-0.1377,0.0576-0.2432
						C107.4107,233.4888,107.4009,233.3843,107.3804,233.2554z"/>
					<path fill="#231F20" d="M104.5933,229.4117c-0.1191,0.2949-0.291,0.5137-0.5137,0.6562s-0.4893,0.2129-0.7998,0.2129
						c-0.4688,0-0.8623-0.1514-1.1826-0.4551c-0.3184-0.3027-0.4785-0.7061-0.4785-1.209c0-0.5068,0.1631-0.9141,0.4902-1.2227
						c0.3262-0.3086,0.7246-0.4629,1.1934-0.4629c0.2988,0,0.5586,0.0703,0.7793,0.2109c0.2217,0.1416,0.3926,0.3555,0.5117,0.6436
						c0.1299-0.3564,0.3379-0.627,0.625-0.8135c0.2871-0.1855,0.6299-0.2783,1.0273-0.2783c0.5518,0,1.0146,0.1748,1.3887,0.5264
						c0.376,0.3506,0.5625,0.8125,0.5625,1.3838c0,0.5723-0.1875,1.0342-0.5645,1.3838c-0.376,0.3516-0.8457,0.5273-1.4082,0.5273
						c-0.4189,0-0.7695-0.0957-1.0527-0.2871C104.8892,230.0367,104.6968,229.7642,104.5933,229.4117z M103.2535,229.5533
						c0.3047,0,0.5537-0.0879,0.7471-0.2646s0.29-0.4062,0.29-0.6885c0-0.2744-0.0957-0.499-0.2881-0.6748
						c-0.1914-0.1748-0.4268-0.2617-0.7051-0.2617c-0.29,0-0.5342,0.0898-0.7314,0.2695c-0.1982,0.1816-0.2969,0.4062-0.2969,0.6758
						c0,0.2715,0.0967,0.4961,0.29,0.6758S102.9839,229.5533,103.2535,229.5533z M106.2281,229.7827
						c0.2266,0,0.4443-0.0479,0.6553-0.1445c0.2109-0.0957,0.374-0.2383,0.4902-0.4287c0.1152-0.1904,0.1729-0.3945,0.1729-0.6133
						c0-0.3398-0.1211-0.6201-0.3643-0.8428c-0.2432-0.2207-0.5518-0.332-0.9268-0.332c-0.3809,0-0.6963,0.1143-0.9453,0.3418
						c-0.249,0.2285-0.373,0.5137-0.373,0.8574c0,0.334,0.123,0.6113,0.3691,0.832S105.8589,229.7827,106.2281,229.7827z"/>
				</g>
			</g>
		</g>
		<g>
			<g>
				<path fill="#231F20" d="M129.3072,230.5855c-0.3579,0.3047-0.7026,0.5195-1.0342,0.6445
					c-0.3311,0.126-0.6865,0.1885-1.0659,0.1885c-0.6265,0-1.1084-0.1533-1.4448-0.459c-0.3364-0.3066-0.5049-0.6982-0.5049-1.1738
					c0-0.2793,0.0635-0.5342,0.1904-0.7656c0.1274-0.2305,0.2939-0.416,0.5-0.5557c0.2056-0.1396,0.4375-0.2451,0.6953-0.3174
					c0.1899-0.0498,0.4761-0.0986,0.8594-0.1445c0.7808-0.0938,1.3555-0.2041,1.7241-0.333
					c0.0034-0.1328,0.0054-0.2168,0.0054-0.2529c0-0.3936-0.0913-0.6709-0.2739-0.832c-0.2471-0.2188-0.6143-0.3281-1.1011-0.3281
					c-0.4546,0-0.7905,0.0801-1.0068,0.2393c-0.2168,0.1592-0.377,0.4414-0.481,0.8457l-0.9453-0.1289
					c0.0859-0.4043,0.2275-0.7314,0.4243-0.9795c0.1968-0.249,0.4814-0.4404,0.854-0.5752
					c0.3726-0.1338,0.8037-0.2012,1.2944-0.2012c0.4868,0,0.8828,0.0566,1.187,0.1719c0.3042,0.1143,0.5283,0.2588,0.6714,0.4326
					c0.1431,0.1729,0.2437,0.3926,0.3008,0.6572c0.0322,0.165,0.0483,0.4619,0.0483,0.8916v1.2891
					c0,0.8994,0.0205,1.4678,0.062,1.7061c0.041,0.2373,0.1226,0.4658,0.2441,0.6846h-1.0098
					C129.4005,231.0884,129.336,230.854,129.3072,230.5855z M129.2266,228.4263c-0.3511,0.1436-0.8774,0.2656-1.5791,0.3652
					c-0.3975,0.0576-0.6787,0.1221-0.8433,0.1934c-0.1646,0.0723-0.292,0.1768-0.3813,0.3145s-0.1343,0.291-0.1343,0.459
					c0,0.2578,0.0977,0.4727,0.293,0.6445c0.1948,0.1719,0.4805,0.2578,0.8564,0.2578c0.3726,0,0.7036-0.0811,0.9937-0.2441
					s0.5029-0.3857,0.6392-0.6689c0.104-0.2178,0.1558-0.54,0.1558-0.9668V228.4263z"/>
			</g>
		</g>
		<g>
			<g>
				<path fill="#231F20" d="M126.4766,248.1118h-0.897v-7.874h0.9668v2.8086c0.4082-0.5117,0.9292-0.7676,1.563-0.7676
					c0.3511,0,0.6831,0.0703,0.9966,0.2119c0.313,0.1416,0.5708,0.3398,0.7734,0.5967c0.2021,0.2559,0.3604,0.5645,0.4751,0.9258
					c0.1147,0.3623,0.1719,0.749,0.1719,1.1602c0,0.9775-0.2417,1.7334-0.7251,2.2666c-0.4834,0.5342-1.0635,0.8008-1.7402,0.8008
					c-0.6733,0-1.2012-0.2812-1.5845-0.8438V248.1118z M126.4659,245.2163c0,0.6846,0.0933,1.1787,0.2793,1.4824
					c0.3042,0.498,0.7163,0.7471,1.2354,0.7471c0.4224,0,0.7876-0.1836,1.0957-0.5508s0.4619-0.9141,0.4619-1.6406
					c0-0.7451-0.1479-1.2949-0.4429-1.6494c-0.2959-0.3545-0.6528-0.5312-1.0718-0.5312c-0.4224,0-0.7876,0.1836-1.0957,0.5508
					C126.6197,243.9908,126.4659,244.522,126.4659,245.2163z"/>
			</g>
		</g>
		
			<line fill="none" stroke="#231F20" stroke-width="1.4842" stroke-miterlimit="10" x1="112.287" y1="220.4711" x2="112.287" y2="251.9456"/>
		<g>
			<polyline fill="none" stroke="#231F20" stroke-width="1.4842" stroke-miterlimit="10" points="144.8226,252.1734 
				97.4386,252.1734 97.4386,220.0746 144.8226,220.0746 			"/>
			
				<line fill="none" stroke="#231F20" stroke-width="1.4842" stroke-miterlimit="10" x1="144.3859" y1="236.124" x2="112.287" y2="236.124"/>
		</g>
	</g>
	<g>
	</g>
	<g>
	</g>
	<g>
	</g>
	<g>
	</g>
	<g>
	</g>
	<g>
	</g>
</g>
</svg>
