<?xml version="1.0" encoding="UTF-8"?><svg xmlns="http://www.w3.org/2000/svg" width="5.9in" height="2.25in" xmlns:xlink="http://www.w3.org/1999/xlink" viewBox="0 0 424.8 162"><defs><clipPath id="b"><polygon points="118.8338 82.1798 120.2224 144.1806 148.6886 140.5008 146.6751 80.5134 118.8338 82.1798" fill="none" stroke-width="0"/></clipPath><clipPath id="d"><circle cx="380.1622" cy="53.6378" r="40.2504" fill="none" stroke-width="0"/></clipPath></defs><g id="a"><path d="M317.9209,116.2925l18.3274-9.7027s3.0186-1.7249,6.1451.2156,3.2342,3.6655,3.2342,3.6655l4.2045,13.1526-1.0781,1.2937,1.5093,4.5279-5.067,2.803s1.4015,1.1859,2.1562,1.4015l.3234,1.1859s-2.3718,1.4015-4.0967.6468l-2.5874-2.5874-1.0781.1078v-1.5093l.8625-.2156-.7547-1.5093-23.2865,10.4574s-2.3718.539-3.4499-.1078l2.5874-.4312,2.0484-23.3944ZM344.3058,121.3133c.5037-1.4845.6913-3.2629.4636-5.1345-.5698-4.682-3.6419-8.7246-6.5971-7.8003-2.6603.8321-4.0132,4.4904-3.4434,9.1724.5698,4.682,3.9548,7.3614,5.6777,7.3223.5469-.0124.8825.2119,1.3519-.0694,0,0,.336-2.8106,1.1021-3.7119l1.0815-.1803.3638.4016Z" fill="#d0cfce" stroke-width="0"/><path d="M269.5064,72.0447l16.1054-.8629,33.3119,7.2956.7499.5848-2.924,59.8436-.4548.9747-14.8147,1.8843-1.1046-.7797-32.4234-13.1903-.065-12.5405,2.2742-.2599s1.4945.065,1.5594-2.5991-.13-7.3424-.13-7.3424l-.3249-.6498-2.664-2.5991.065-6.3027,3.1189.9747s1.6894.6498,1.8843-1.2995.065-11.046.065-11.046c0,0-.6498-.9747-1.3645-1.1696s-3.1189-1.0396-3.1189-1.0396l.2548-9.8765Z" fill="#d0cfce" stroke="#fff" stroke-miterlimit="10"/><path d="M353.6324,70.279l.7105.0323.1562-5.1217L35.9859,82.172s-1.1214.0467-1.028,1.3083.2336,5.5426.2336,5.5426L12.8152,49.5768l-.1031-3.507,182.0675-4.9451,159.6602,23.9954" fill="none" stroke="#231f20" stroke-linecap="round" stroke-linejoin="round" stroke-width=".5"/><polyline points="13.6663 45.8773 10.7168 41.6328 174.5246 38.2281 193.0672 41.1029" fill="none" stroke="#231f20" stroke-linecap="round" stroke-linejoin="round" stroke-width=".5"/><polyline points="10.7168 41.6328 10.7168 44.5632 12.5574 47.3443" fill="none" stroke="#231f20" stroke-linecap="round" stroke-linejoin="round" stroke-width=".5"/><line x1="35.0186" y1="82.533" x2="12.712" y2="46.0698" fill="none" stroke="#231f20" stroke-linecap="round" stroke-linejoin="round" stroke-width=".5"/><polyline points="353.2851 73.5703 353.7169 66.3572 48.1048 83.4759 37.2284 84.0851 41.2265 156.0676" fill="none" stroke="#231f20" stroke-linecap="round" stroke-linejoin="round" stroke-width=".5"/><line x1="350.4081" y1="121.6229" x2="353.0949" y2="76.747" fill="none" stroke="#231f20" stroke-linecap="round" stroke-linejoin="round" stroke-width=".5"/><line x1="338.2365" y1="122.9865" x2="341.2031" y2="122.6541" fill="none" stroke="#231f20" stroke-linecap="round" stroke-linejoin="round" stroke-width=".5"/><line x1="185.794" y1="139.9521" x2="273.76" y2="130.2096" fill="none" stroke="#231f20" stroke-linecap="round" stroke-linejoin="round" stroke-width=".5"/><polyline points="178.407 140.8917 40.6435 156.3249 12.6356 73.585 10.7168 44.5632" fill="none" stroke="#231f20" stroke-linecap="round" stroke-linejoin="round" stroke-width=".5"/><line x1="185.7448" y1="138.0318" x2="270.9424" y2="128.9952" fill="none" stroke="#231f20" stroke-linecap="round" stroke-linejoin="round" stroke-width=".5"/><line x1="348.3021" y1="114.2962" x2="350.0758" y2="78.73" fill="none" stroke="#231f20" stroke-linecap="round" stroke-linejoin="round" stroke-width=".5"/><line x1="346.1992" y1="109.8273" x2="347.9466" y2="76.2479" fill="none" stroke="#231f20" stroke-linecap="round" stroke-linejoin="round" stroke-width=".5"/><polygon points="349.1603 78.3158 349.2061 75.8427 347.2368 75.7511 347.2826 74.1481 346.4124 73.4611 346.5498 70.4384 347.5116 70.4842 347.649 68.5607 350.2595 68.9271 350.0305 75.2931 351.9998 73.8733 351.9998 75.6137 349.8973 77.454 349.8015 78.3616 349.1603 78.3158" fill="none" stroke="#231f20" stroke-linecap="round" stroke-linejoin="round" stroke-width=".5"/><polyline points="352.253 73.7607 352.4578 68.7897 350.2595 68.9271" fill="none" stroke="#231f20" stroke-linecap="round" stroke-linejoin="round" stroke-width=".5"/><polyline points="351.9998 73.8733 354.2465 73.8733 354.2465 75.5361 352.0363 75.5361" fill="none" stroke="#231f20" stroke-linecap="round" stroke-linejoin="round" stroke-width=".5"/><polyline points="354.2531 75.5073 351.9455 77.504 351.9152 78.3518 349.8015 78.3616" fill="none" stroke="#231f20" stroke-linecap="round" stroke-linejoin="round" stroke-width=".5"/><line x1="351.9455" y1="77.504" x2="349.8973" y2="77.454" fill="none" stroke="#231f20" stroke-linecap="round" stroke-linejoin="round" stroke-width=".5"/><polyline points="347.649 68.5607 349.7452 68.3544 352.4578 68.7897" fill="none" stroke="#231f20" stroke-linecap="round" stroke-linejoin="round" stroke-width=".5"/><polygon points="350.744 69.9841 351.8812 69.9048 351.4052 71.0949 350.744 69.9841" fill="#231f20" stroke-width="0"/><line x1="335.535" y1="104.807" x2="336.9486" y2="79.5189" fill="none" stroke="#231f20" stroke-linecap="round" stroke-linejoin="round" stroke-width=".5"/><line x1="333.3061" y1="106.1072" x2="334.8195" y2="77.0368" fill="none" stroke="#231f20" stroke-linecap="round" stroke-linejoin="round" stroke-width=".5"/><polygon points="336.0332 79.1047 336.079 76.6316 334.1097 76.54 334.1555 74.937 333.2853 74.2501 333.4227 71.2274 334.3845 71.2732 334.5218 69.3496 337.1324 69.716 336.9034 76.082 338.8727 74.6622 338.8727 76.4026 336.7701 78.243 336.6744 79.1505 336.0332 79.1047" fill="none" stroke="#231f20" stroke-linecap="round" stroke-linejoin="round" stroke-width=".5"/><polyline points="339.1259 74.5496 339.3307 69.5786 337.1324 69.716" fill="none" stroke="#231f20" stroke-linecap="round" stroke-linejoin="round" stroke-width=".5"/><polyline points="338.8727 74.6622 341.1194 74.6622 341.1194 76.325 338.9092 76.325" fill="none" stroke="#231f20" stroke-linecap="round" stroke-linejoin="round" stroke-width=".5"/><polyline points="341.126 76.2962 338.8184 78.2929 338.7881 79.1407 336.6744 79.1505" fill="none" stroke="#231f20" stroke-linecap="round" stroke-linejoin="round" stroke-width=".5"/><line x1="338.8184" y1="78.2929" x2="336.7701" y2="78.243" fill="none" stroke="#231f20" stroke-linecap="round" stroke-linejoin="round" stroke-width=".5"/><polyline points="334.5218 69.3496 336.6181 69.1433 339.3307 69.5786" fill="none" stroke="#231f20" stroke-linecap="round" stroke-linejoin="round" stroke-width=".5"/><polygon points="337.6169 70.7731 338.754 70.6937 338.278 71.8838 337.6169 70.7731" fill="#231f20" stroke-width="0"/><line x1="321.7037" y1="112.0509" x2="323.1228" y2="80.4109" fill="none" stroke="#231f20" stroke-linecap="round" stroke-linejoin="round" stroke-width=".5"/><line x1="319.1605" y1="113.1653" x2="320.9936" y2="77.9288" fill="none" stroke="#231f20" stroke-linecap="round" stroke-linejoin="round" stroke-width=".5"/><polygon points="322.2074 79.9967 322.2532 77.5236 320.2838 77.432 320.3296 75.829 319.4595 75.142 319.5969 72.1193 320.5586 72.1651 320.696 70.2416 323.3065 70.608 323.0775 76.974 325.0469 75.5542 325.0469 77.2946 322.9443 79.1349 322.8485 80.0425 322.2074 79.9967" fill="none" stroke="#231f20" stroke-linecap="round" stroke-linejoin="round" stroke-width=".5"/><polyline points="325.3 75.4416 325.5048 70.4706 323.3065 70.608" fill="none" stroke="#231f20" stroke-linecap="round" stroke-linejoin="round" stroke-width=".5"/><polyline points="325.0469 75.5542 327.2935 75.5542 327.2935 77.217 325.0834 77.217" fill="none" stroke="#231f20" stroke-linecap="round" stroke-linejoin="round" stroke-width=".5"/><polyline points="327.3002 77.1882 324.9925 79.1849 324.9623 80.0327 322.8485 80.0425" fill="none" stroke="#231f20" stroke-linecap="round" stroke-linejoin="round" stroke-width=".5"/><line x1="324.9925" y1="79.1849" x2="322.9443" y2="79.1349" fill="none" stroke="#231f20" stroke-linecap="round" stroke-linejoin="round" stroke-width=".5"/><polyline points="320.696 70.2416 322.7922 70.0353 325.5048 70.4706" fill="none" stroke="#231f20" stroke-linecap="round" stroke-linejoin="round" stroke-width=".5"/><polygon points="323.791 71.665 324.9282 71.5857 324.4522 72.7758 323.791 71.665" fill="#231f20" stroke-width="0"/><polyline points="305.7285 74.2345 305.771 72.8329 306.7328 72.8787 306.8702 70.9552 309.4807 71.3216 309.3041 75.0725" fill="none" stroke="#231f20" stroke-linecap="round" stroke-linejoin="round" stroke-width=".5"/><polyline points="311.4742 75.8304 311.679 71.1842 309.4807 71.3216" fill="none" stroke="#231f20" stroke-linecap="round" stroke-linejoin="round" stroke-width=".5"/><polyline points="306.8702 70.9552 308.9664 70.7489 311.679 71.1842" fill="none" stroke="#231f20" stroke-linecap="round" stroke-linejoin="round" stroke-width=".5"/><polygon points="309.9652 72.3786 311.1024 72.2993 310.6264 73.4893 309.9652 72.3786" fill="#231f20" stroke-width="0"/><polyline points="286.4049 71.3876 348.2179 67.9845 348.2179 68.4162" fill="none" stroke="#231f20" stroke-linecap="round" stroke-linejoin="round" stroke-width=".5"/><line x1="293.3482" y1="72.8059" x2="293.3482" y2="71.1677" fill="none" stroke="#231f20" stroke-linecap="round" stroke-linejoin="round" stroke-width=".5"/><polygon points="344.571 94.0377 339.7482 94.4746 340.3802 82.1734 345.2175 81.9825 344.571 94.0377" fill="none" stroke="#231f20" stroke-linecap="round" stroke-linejoin="round" stroke-width=".5"/><polyline points="339.7515 94.417 338.8546 93.9199 339.4867 81.6187 344.3239 81.4278 345.2231 81.9614" fill="none" stroke="#231f20" stroke-linecap="round" stroke-linejoin="round" stroke-width=".5"/><line x1="340.3802" y1="82.1734" x2="339.4867" y2="81.6187" fill="none" stroke="#231f20" stroke-linecap="round" stroke-linejoin="round" stroke-width=".5"/><polyline points="339.486 104.748 339.714 96.6479 344.5288 96.2281 344.1305 107.1122" fill="none" stroke="#231f20" stroke-linecap="round" stroke-linejoin="round" stroke-width=".5"/><polyline points="338.5671 105.0266 338.8205 96.0931 343.6352 95.6734 344.5343 96.2069" fill="none" stroke="#231f20" stroke-linecap="round" stroke-linejoin="round" stroke-width=".5"/><line x1="339.714" y1="96.6479" x2="338.8205" y2="96.0931" fill="none" stroke="#231f20" stroke-linecap="round" stroke-linejoin="round" stroke-width=".5"/><line x1="285.5665" y1="71.2209" x2="319.1246" y2="78.473" fill="none" stroke="#231f20" stroke-linecap="round" stroke-linejoin="round" stroke-width=".5"/><line x1="269.2102" y1="81.5427" x2="269.3595" y2="72.2234" fill="none" stroke="#231f20" stroke-linecap="round" stroke-linejoin="round" stroke-width=".5"/><path d="M317.7449,116.2308l19.0318-9.8262s4.4477-1.8101,7.8093,4.0856l4.3892,13.2727.9565-.1376-4.3442-13.343s-2.9667-4.9638-7.1558-4.2398" fill="none" stroke="#231f20" stroke-linecap="round" stroke-linejoin="round" stroke-width=".5"/><path d="M340.7961,131.3089l-.6169-1.5967s-20.7767,9.2737-23.0951,10.3437-3.5668.1783-3.5668.1783" fill="none" stroke="#231f20" stroke-linecap="round" stroke-linejoin="round" stroke-width=".5"/><path d="M339.9615,131.6355l.0726,1.379.8709-.2903,2.3588,2.5403s.9072.6895,1.5967-.5081l-.4355-.9435h-.8347s-1.379-1.1976-1.379-1.7056l5.3708-2.4314-1.4153-4.8265-1.7056.7984-.6895-2.504.7984-.2177s-1.633-1.4153-1.633-1.9233c0,0-1.2338,1.1613-1.0524,5.77l-1.633.7621.8709,1.9959,1.633-.6532.6895,1.379-3.4838,1.379Z" fill="none" stroke="#231f20" stroke-linecap="round" stroke-linejoin="round" stroke-width=".5"/><path d="M345.2806,125.1672l-.7103-2.2412,1.0016-.0893c-.2589,0-1.586-1.8773-1.586-1.8773l-1.0486.0432" fill="none" stroke="#231f20" stroke-linecap="round" stroke-linejoin="round" stroke-width=".5"/><polyline points="346.167 124.8493 348.8733 124.8759 350.3946 129.3749 347.5463 129.472" fill="none" stroke="#231f20" stroke-linecap="round" stroke-linejoin="round" stroke-width=".5"/><polyline points="342.2114 132.1072 345.1187 131.9967 350.3946 129.3749" fill="none" stroke="#231f20" stroke-linecap="round" stroke-linejoin="round" stroke-width=".5"/><path d="M345.3777,132.2556s.8092,1.3271,2.0715,1.4889l.1942.9387s-.6797,1.2947-3.6251.9063" fill="none" stroke="#231f20" stroke-linecap="round" stroke-linejoin="round" stroke-width=".5"/><path d="M341.7634,124.8136c-.4693.2813-.9798.4637-1.5229.5297-3.0737.374-6.0273-3.1183-6.5971-7.8003-.5698-4.682,1.4601-8.7807,4.5338-9.1548s6.0273,3.1183,6.5971,7.8003c.2278,1.8716.0401,3.65-.4636,5.1345" fill="none" stroke="#231f20" stroke-linecap="round" stroke-linejoin="round" stroke-width=".5"/><path d="M341.25,124.8992c-3.0737.374-6.0273-3.1183-6.5971-7.8003-.4551-3.74.7486-7.1079,2.818-8.5023" fill="none" stroke="#231f20" stroke-linecap="round" stroke-linejoin="round" stroke-width=".5"/><line x1="347.3721" y1="124.8063" x2="348.9751" y2="123.7629" fill="none" stroke="#231f20" stroke-linecap="round" stroke-linejoin="round" stroke-width=".5"/><line x1="349.9317" y1="123.6253" x2="348.5239" y2="124.6829" fill="none" stroke="#231f20" stroke-linecap="round" stroke-linejoin="round" stroke-width=".5"/><polyline points="300.5213 141.1212 267.8531 127.6579 267.8531 115.1945" fill="none" stroke="#231f20" stroke-linecap="round" stroke-linejoin="round" stroke-width=".5"/><line x1="303.0379" y1="79.8359" x2="269.4655" y2="72.1835" fill="none" stroke="#231f20" stroke-linecap="round" stroke-linejoin="round" stroke-width=".5"/><polygon points="314.5965 96.5512 306.6847 96.9087 306.7916 92.176 314.82 91.796 314.5965 96.5512" fill="none" stroke="#231f20" stroke-linecap="round" stroke-linejoin="round" stroke-width=".5"/><polygon points="313.6169 121.5859 305.4056 122.3478 305.9135 109.5653 314.1248 109.142 313.6169 121.5859" fill="none" stroke="#231f20" stroke-linecap="round" stroke-linejoin="round" stroke-width=".5"/><polyline points="313.7255 116.8371 312.8694 116.8946 312.8694 118.021 311.738 118.1048 311.6758 120.317 307.1458 120.7872 307.4786 111.0502 311.8711 110.8506 311.8711 113.2038 313.069 113.1372 313.069 114.2021 313.7346 114.2021" fill="none" stroke="#231f20" stroke-linecap="round" stroke-linejoin="round" stroke-width=".5"/><line x1="311.738" y1="118.1048" x2="307.5809" y2="117.0254" fill="none" stroke="#231f20" stroke-linecap="round" stroke-linejoin="round" stroke-width=".5"/><line x1="312.8197" y1="116.888" x2="307.437" y2="115.4526" fill="none" stroke="#231f20" stroke-linecap="round" stroke-linejoin="round" stroke-width=".5"/><line x1="311.738" y1="120.0494" x2="307.5809" y2="118.97" fill="none" stroke="#231f20" stroke-linecap="round" stroke-linejoin="round" stroke-width=".5"/><polygon points="312.8643 136.5403 304.5979 137.6328 305.0948 124.9167 313.3616 124.1604 312.8643 136.5403" fill="none" stroke="#231f20" stroke-linecap="round" stroke-linejoin="round" stroke-width=".5"/><polyline points="312.9682 131.8194 312.1064 131.9115 312.1076 133.0302 310.9686 133.1598 310.9085 135.3594 306.3482 136.0117 306.6722 126.3275 311.0944 125.9495 311.0971 128.2867 312.3031 128.1716 312.3043 129.2292 312.9744 129.202" fill="none" stroke="#231f20" stroke-linecap="round" stroke-linejoin="round" stroke-width=".5"/><line x1="310.9686" y1="133.1598" x2="306.782" y2="132.2578" fill="none" stroke="#231f20" stroke-linecap="round" stroke-linejoin="round" stroke-width=".5"/><line x1="312.0564" y1="131.907" x2="306.6354" y2="130.7016" fill="none" stroke="#231f20" stroke-linecap="round" stroke-linejoin="round" stroke-width=".5"/><line x1="310.9708" y1="135.0911" x2="306.7842" y2="134.1891" fill="none" stroke="#231f20" stroke-linecap="round" stroke-linejoin="round" stroke-width=".5"/><polyline points="306.9145 92.3134 313.256 94.1323 313.256 95.4104 306.8653 95.7545" fill="none" stroke="#231f20" stroke-linecap="round" stroke-linejoin="round" stroke-width=".5"/><line x1="306.8162" y1="94.3289" x2="313.256" y2="94.1323" fill="none" stroke="#231f20" stroke-linecap="round" stroke-linejoin="round" stroke-width=".5"/><polygon points="227.3752 105.9634 232.1724 108.0548 269.8784 104.8769 267.6941 102.7272 227.3752 105.9634" fill="none" stroke="#231f20" stroke-linecap="round" stroke-linejoin="round" stroke-width=".5"/><line x1="267.5392" y1="105.0499" x2="267.5392" y2="102.9594" fill="none" stroke="#231f20" stroke-linecap="round" stroke-linejoin="round" stroke-width=".5"/><path d="M214.3795,106.133l6.1395,2.7272,9.5326-.8349,1.8798.8648s35.8526-3.2054,38.2568-3.2054c2.1024,0,1.1108-1.1404,1.1108-1.1404l-3.1665-2.9064-53.753,4.4952v1.189" fill="none" stroke="#231f20" stroke-linecap="round" stroke-linejoin="round" stroke-width=".5"/><line x1="220.5697" y1="109.118" x2="220.5697" y2="118.6705" fill="none" stroke="#231f20" stroke-linecap="round" stroke-linejoin="round" stroke-width=".5"/><path d="M221.239,119.0113l.9168.4699c-.3902-8.0207.2467-9.5877.2467-9.5877l9.2068-.8275v9.4965l-9.3726.9552" fill="none" stroke="#231f20" stroke-linecap="round" stroke-linejoin="round" stroke-width=".5"/><line x1="222.4026" y1="109.8935" x2="221.333" y2="109.466" fill="none" stroke="#231f20" stroke-linecap="round" stroke-linejoin="round" stroke-width=".5"/><path d="M232.0909,118.5364l38.1719-3.6488s1.263-.0702,1.3332-2.3156l-.0471-7.4384" fill="none" stroke="#231f20" stroke-linecap="round" stroke-linejoin="round" stroke-width=".5"/><path d="M153.1861,111.2118l58.922-4.7408,5.7197,2.5311-9.8332.8806,1.541.9173-41.041,3.6753s-3.5528.1838-5.0229-.1838-9.2495-2.2664-9.2495-2.2664l-1.036-.8133Z" fill="none" stroke="#231f20" stroke-linecap="round" stroke-linejoin="round" stroke-width=".5"/><path d="M207.2007,110.9044l-5.8713-2.6425-44.3836,3.4886,8.4193,2.0099s2.7844.5484,5.1279.4963" fill="none" stroke="#231f20" stroke-linecap="round" stroke-linejoin="round" stroke-width=".5"/><line x1="201.2418" y1="108.2619" x2="201.3082" y2="111.3891" fill="none" stroke="#231f20" stroke-linecap="round" stroke-linejoin="round" stroke-width=".5"/><path d="M209.5355,110.7999v10.0716l-41.0712,3.8932s-3.47.3385-5.4166-.3385-9.0559-2.7929-9.0559-2.7929l-.5924-.6771-.2134-9.7444" fill="none" stroke="#231f20" stroke-linecap="round" stroke-linejoin="round" stroke-width=".5"/><path d="M209.3468,110.5442l9.8649-.91s1.1285,3.1306.2548,9.9377l-9.7557,1.0557" fill="none" stroke="#231f20" stroke-linecap="round" stroke-linejoin="round" stroke-width=".5"/><line x1="218.0104" y1="109.7177" x2="216.9548" y2="109.2445" fill="none" stroke="#231f20" stroke-linecap="round" stroke-linejoin="round" stroke-width=".5"/><line x1="211.8596" y1="135.1756" x2="211.8596" y2="120.5271" fill="none" stroke="#231f20" stroke-linecap="round" stroke-linejoin="round" stroke-width=".5"/><line x1="213.8571" y1="134.994" x2="213.8571" y2="120.3455" fill="none" stroke="#231f20" stroke-linecap="round" stroke-linejoin="round" stroke-width=".5"/><polyline points="255.279 119.7358 254.9535 126.7329 243.33 127.8487 243.3285 120.8829" fill="none" stroke="#231f20" stroke-linecap="round" stroke-linejoin="round" stroke-width=".5"/><polyline points="229.0825 122.8235 229.0825 129.2082 240.8281 127.9465 241.0366 120.9606" fill="none" stroke="#231f20" stroke-linecap="round" stroke-linejoin="round" stroke-width=".5"/><polyline points="243.33 127.8487 242.1597 127.5399 242.1805 120.6586" fill="none" stroke="#231f20" stroke-linecap="round" stroke-linejoin="round" stroke-width=".5"/><polyline points="229.0825 129.2082 227.9075 128.6781 227.9075 123.3087" fill="none" stroke="#231f20" stroke-linecap="round" stroke-linejoin="round" stroke-width=".5"/><polyline points="210.5127 120.6398 210.4116 132.1675 156.3393 137.8409" fill="none" stroke="#231f20" stroke-linecap="round" stroke-linejoin="round" stroke-width=".5"/><polyline points="156.1689 122.6231 156.2601 125.4673 156.3393 137.8409 156.3583 140.8238" fill="none" stroke="#231f20" stroke-linecap="round" stroke-linejoin="round" stroke-width=".5"/><line x1="165.1464" y1="124.8911" x2="156.2601" y2="125.4673" fill="none" stroke="#231f20" stroke-linecap="round" stroke-linejoin="round" stroke-width=".5"/><polyline points="164.763 130.2988 158.9237 130.7979 157.0272 129.5502 157.0272 126.2562 166.8093 125.5575 167.3084 125.8569 169.5044 125.7072 169.5044 129.5502 168.4563 129.7498" fill="none" stroke="#231f20" stroke-linecap="round" stroke-linejoin="round" stroke-width=".5"/><line x1="158.9237" y1="130.7979" x2="158.9237" y2="127.5039" fill="none" stroke="#231f20" stroke-linecap="round" stroke-linejoin="round" stroke-width=".5"/><polyline points="157.0272 126.2562 158.9237 127.5039 166.0108 126.9549 165.0625 127.6037 165.0625 131.0474 166.9091 131.1472 168.4563 129.7498 168.4563 126.7553 167.0588 127.8533 165.1623 127.8034" fill="none" stroke="#231f20" stroke-linecap="round" stroke-linejoin="round" stroke-width=".5"/><line x1="168.4563" y1="126.7553" x2="169.4045" y2="126.6056" fill="none" stroke="#231f20" stroke-linecap="round" stroke-linejoin="round" stroke-width=".5"/><path d="M178.0857,135.7015l6.7459,1.7699s.711.326-.0146.7291l-4.8547.5762c-.0733.0049-.1469-.0022-.2179-.0212l-8.0274-2.2479" fill="none" stroke="#231f20" stroke-linecap="round" stroke-linejoin="round" stroke-width=".5"/><path d="M172.4906,138.4979l7.2508,2.1161c.073.0203.1489.0281.2245.023l4.8511-.576.3882-.2918.0155-1.7484" fill="none" stroke="#231f20" stroke-linecap="round" stroke-linejoin="round" stroke-width=".5"/><path d="M172.1075,137.6086l-.015,2.0976-.3981.6414-2.2339.0221v-.8184l-1.7731-.5258v-2.1572l1.7731.5258v.8184l2.2339-.0221.3981-.6414-2.7205-.8626" fill="none" stroke="#231f20" stroke-linecap="round" stroke-linejoin="round" stroke-width=".5"/><line x1="179.7278" y1="138.7522" x2="179.7278" y2="140.6447" fill="none" stroke="#231f20" stroke-linecap="round" stroke-linejoin="round" stroke-width=".5"/><line x1="171.2219" y1="138.3897" x2="171.2219" y2="140.2822" fill="none" stroke="#231f20" stroke-linecap="round" stroke-linejoin="round" stroke-width=".5"/><line x1="169.5583" y1="138.2481" x2="169.5583" y2="140.1406" fill="none" stroke="#231f20" stroke-linecap="round" stroke-linejoin="round" stroke-width=".5"/><line x1="205.9094" y1="134.6663" x2="268.3035" y2="127.9361" fill="none" stroke="#231f20" stroke-linecap="round" stroke-linejoin="round" stroke-width=".5"/><path d="M211.5771,134.059l-2.4428-1.7062s-2.8042,2.2434-5.1177,2.7341l-19.91,2.0331" fill="none" stroke="#231f20" stroke-linecap="round" stroke-linejoin="round" stroke-width=".5"/><path d="M149.9657,139.4093s2.3369-.5163,2.4043-4.2234" fill="none" stroke="#231f20" stroke-linecap="round" stroke-linejoin="round" stroke-width=".5"/><line x1="151.7065" y1="92.3752" x2="152.5129" y2="141.2127" fill="none" stroke="#231f20" stroke-linecap="round" stroke-linejoin="round" stroke-width=".5"/><path d="M148.1459,90.6782h-.8088l.5392,1.2132.6066,38.5536,2.2916,1.9546s.4718,4.9203-.7414,6.0661" fill="none" stroke="#231f20" stroke-linecap="round" stroke-linejoin="round" stroke-width=".5"/><path d="M147.9759,88.8412l-.5012-.401v-1.9548l-.9022-1.9548v-2.456h.9022c0,.1504-.0501-2.055-.0501-2.055l.2041.099,1.4499.703v7.6186l.899-1.7113h3.1982v2.0352l-.8722,2.1183v1.0591h-3.3435v-.9761l1.1422-2.2429-.0623-1.9937" fill="none" stroke="#231f20" stroke-linecap="round" stroke-linejoin="round" stroke-width=".5"/><polyline points="148.3769 91.6481 148.3769 86.5857 147.9759 86.2349" fill="none" stroke="#231f20" stroke-linecap="round" stroke-linejoin="round" stroke-width=".5"/><polyline points="147.6287 79.8694 150.0309 79.8694 151.8353 80.6649 151.8353 86.4354" fill="none" stroke="#231f20" stroke-linecap="round" stroke-linejoin="round" stroke-width=".5"/><line x1="149.0786" y1="80.8217" x2="151.8353" y2="80.8217" fill="none" stroke="#231f20" stroke-linecap="round" stroke-linejoin="round" stroke-width=".5"/><line x1="150.1022" y1="88.7227" x2="153.1758" y2="88.7227" fill="none" stroke="#231f20" stroke-linecap="round" stroke-linejoin="round" stroke-width=".5"/><line x1="148.96" y1="90.9655" x2="152.3036" y2="90.9655" fill="none" stroke="#231f20" stroke-linecap="round" stroke-linejoin="round" stroke-width=".5"/><line x1="112.8959" y1="94.8791" x2="113.7023" y2="145.5598" fill="none" stroke="#231f20" stroke-linecap="round" stroke-linejoin="round" stroke-width=".5"/><path d="M109.3354,93.1821h-.8088l.5392,1.2132,1.0191,39.8869,2.2916,1.9546s.5898,4.9635-.6234,6.1093" fill="none" stroke="#231f20" stroke-linecap="round" stroke-linejoin="round" stroke-width=".5"/><path d="M109.1654,91.3451l-.5012-.401v-1.9548l-.9022-1.9548v-2.456h.9022c0,.1504-.0501-2.055-.0501-2.055l.2041.099,1.4499.703v7.6186l.899-1.7113h3.1982v2.0352l-.8722,2.1183v1.0591h-3.3435v-.9761l1.1422-2.2429-.0623-1.9937" fill="none" stroke="#231f20" stroke-linecap="round" stroke-linejoin="round" stroke-width=".5"/><polyline points="109.5664 94.152 109.5664 89.0896 109.1654 88.7388" fill="none" stroke="#231f20" stroke-linecap="round" stroke-linejoin="round" stroke-width=".5"/><polyline points="108.8181 82.3733 111.2204 82.3733 113.0248 83.1688 113.0248 88.9393" fill="none" stroke="#231f20" stroke-linecap="round" stroke-linejoin="round" stroke-width=".5"/><line x1="110.2681" y1="83.3256" x2="113.0248" y2="83.3256" fill="none" stroke="#231f20" stroke-linecap="round" stroke-linejoin="round" stroke-width=".5"/><line x1="111.2917" y1="91.2266" x2="114.3653" y2="91.2266" fill="none" stroke="#231f20" stroke-linecap="round" stroke-linejoin="round" stroke-width=".5"/><line x1="110.1495" y1="93.4695" x2="113.4931" y2="93.4695" fill="none" stroke="#231f20" stroke-linecap="round" stroke-linejoin="round" stroke-width=".5"/><line x1="92.2463" y1="96.5474" x2="93.916" y2="147.79" fill="none" stroke="#231f20" stroke-linecap="round" stroke-linejoin="round" stroke-width=".5"/><path d="M88.7355,94.9125l-.7906.0228.5489,1.2254,1.2888,39.4063,2.2752,1.9341s.9616,5.4056-.2036,6.6115" fill="none" stroke="#231f20" stroke-linecap="round" stroke-linejoin="round" stroke-width=".5"/><path d="M88.5361,93.0389l-.4972-.3959-.0353-1.9989-.9171-1.9734-.0443-2.5114.8818-.0254c.0027.1538-.0861-2.1-.0861-2.1l.2013.0954,1.4299.678.1375,7.7904.8479-1.7752,3.126-.0902.0367,2.0811-.8143,2.1907.0191,1.083-3.2681.0943-.0176-.9981,1.076-2.3257-.0969-2.0369" fill="none" stroke="#231f20" stroke-linecap="round" stroke-linejoin="round" stroke-width=".5"/><polyline points="88.9787 95.8978 88.8874 90.7213 88.4891 90.3738" fill="none" stroke="#231f20" stroke-linecap="round" stroke-linejoin="round" stroke-width=".5"/><polyline points="88.0348 83.8745 90.3829 83.8067 92.1609 84.5693 92.265 90.47" fill="none" stroke="#231f20" stroke-linecap="round" stroke-linejoin="round" stroke-width=".5"/><line x1="89.4692" y1="84.8074" x2="92.1637" y2="84.7296" fill="none" stroke="#231f20" stroke-linecap="round" stroke-linejoin="round" stroke-width=".5"/><line x1="90.6124" y1="92.8577" x2="93.6166" y2="92.7711" fill="none" stroke="#231f20" stroke-linecap="round" stroke-linejoin="round" stroke-width=".5"/><line x1="89.5364" y1="95.1834" x2="92.8045" y2="95.0891" fill="none" stroke="#231f20" stroke-linecap="round" stroke-linejoin="round" stroke-width=".5"/><polyline points="71.0531 97.4538 73.1268 148.1384 74.5308 149.7414" fill="none" stroke="#231f20" stroke-linecap="round" stroke-linejoin="round" stroke-width=".5"/><polyline points="67.5385 95.8176 66.7503 95.8412 67.3077 97.0694 68.9155 138.2463 71.2004 140.1836 71.2004 150.145" fill="none" stroke="#231f20" stroke-linecap="round" stroke-linejoin="round" stroke-width=".5"/><path d="M67.3244,93.9391l-.499-.3965-.0515-2.0043-.9308-1.978-.0648-2.5182.8792-.0263c.004.1542-.103-2.1056-.103-2.1056l.2015.0955,1.4315.6785.2009,7.8116.831-1.7808,3.1168-.0933.0537,2.0868-.7942,2.1974.0279,1.086-3.2584.0975-.0257-1.0008,1.054-2.333-.1133-2.0424" fill="none" stroke="#231f20" stroke-linecap="round" stroke-linejoin="round" stroke-width=".5"/><polyline points="67.7892 96.8054 67.6557 91.6148 67.2556 91.2667" fill="none" stroke="#231f20" stroke-linecap="round" stroke-linejoin="round" stroke-width=".5"/><polyline points="66.7494 84.7501 69.0905 84.68 70.8699 85.4431 71.0221 91.3597" fill="none" stroke="#231f20" stroke-linecap="round" stroke-linejoin="round" stroke-width=".5"/><line x1="68.1875" y1="85.6842" x2="70.874" y2="85.6038" fill="none" stroke="#231f20" stroke-linecap="round" stroke-linejoin="round" stroke-width=".5"/><line x1="69.3934" y1="93.7555" x2="72.3888" y2="93.6659" fill="none" stroke="#231f20" stroke-linecap="round" stroke-linejoin="round" stroke-width=".5"/><line x1="68.3395" y1="96.0885" x2="71.5979" y2="95.991" fill="none" stroke="#231f20" stroke-linecap="round" stroke-linejoin="round" stroke-width=".5"/><polygon points="65.2284 117.0818 57.4088 117.9027 56.7516 103.0132 64.6233 102.5121 65.2284 117.0818" fill="none" stroke="#231f20" stroke-linecap="round" stroke-linejoin="round" stroke-width=".5"/><polyline points="57.4077 117.8274 56.1915 117.2023 55.5343 102.3129 63.1008 101.8362 64.6299 102.4843" fill="none" stroke="#231f20" stroke-linecap="round" stroke-linejoin="round" stroke-width=".5"/><line x1="56.7516" y1="103.0132" x2="55.5343" y2="102.3129" fill="none" stroke="#231f20" stroke-linecap="round" stroke-linejoin="round" stroke-width=".5"/><polygon points="65.8922 134.639 58.2694 135.445 57.6005 120.2222 65.2697 119.5398 65.8922 134.639" fill="none" stroke="#231f20" stroke-linecap="round" stroke-linejoin="round" stroke-width=".5"/><polyline points="58.2682 135.3706 57.0817 134.7516 56.4128 119.5288 63.7845 118.8704 65.2762 119.5123" fill="none" stroke="#231f20" stroke-linecap="round" stroke-linejoin="round" stroke-width=".5"/><line x1="57.6005" y1="120.2222" x2="56.4128" y2="119.5288" fill="none" stroke="#231f20" stroke-linecap="round" stroke-linejoin="round" stroke-width=".5"/><line x1="111.67" y1="136.1537" x2="111.8363" y2="145.9618" fill="none" stroke="#231f20" stroke-linecap="round" stroke-linejoin="round" stroke-width=".5"/><line x1="91.5551" y1="137.2758" x2="91.7214" y2="148.0813" fill="none" stroke="#231f20" stroke-linecap="round" stroke-linejoin="round" stroke-width=".5"/><polyline points="107.8144 80.2729 109.629 81.906 90.1191 82.8768 88.3713 81.2068" fill="none" stroke="#231f20" stroke-linecap="round" stroke-linejoin="round" stroke-width=".5"/><polyline points="146.6322 78.0983 148.4006 79.4539 110.8467 81.5351 109.1451 80.1426" fill="none" stroke="#231f20" stroke-linecap="round" stroke-linejoin="round" stroke-width=".5"/><polyline points="67.9884 82.5376 69.4082 84.0165 88.9356 83.0196 87.345 81.3961" fill="none" stroke="#231f20" stroke-linecap="round" stroke-linejoin="round" stroke-width=".5"/><polyline points="66.6643 82.6579 68.1457 84.1383 48.9301 85.1723 48.1185 83.488 51.9362 151.1498" fill="none" stroke="#231f20" stroke-linecap="round" stroke-linejoin="round" stroke-width=".5"/><line x1="149.8126" y1="131.7226" x2="149.8126" y2="141.6909" fill="none" stroke="#231f20" stroke-linecap="round" stroke-linejoin="round" stroke-width=".5"/><line x1="35.1916" y1="89.0229" x2="39.2408" y2="152.3222" fill="none" stroke="#231f20" stroke-linecap="round" stroke-linejoin="round" stroke-width=".5"/><line x1="217.4418" y1="74.1443" x2="217.4418" y2="104.8992" fill="none" stroke="#231f20" stroke-linecap="round" stroke-linejoin="round" stroke-width=".5"/><line x1="208.6868" y1="100.9447" x2="208.6868" y2="105.7115" fill="none" stroke="#231f20" stroke-linecap="round" stroke-linejoin="round" stroke-width=".5"/><line x1="208.6868" y1="74.9566" x2="208.6868" y2="86.3427" fill="none" stroke="#231f20" stroke-linecap="round" stroke-linejoin="round" stroke-width=".5"/><path d="M157.019,110.7631c-2.8159-.3434-3.2989-2.6085-3.2989-2.6085l-.1947-26.8559s-.3434-3.7775,4.8077-3.9835" fill="none" stroke="#231f20" stroke-linecap="round" stroke-linejoin="round" stroke-width=".5"/><path d="M186.9044,77.2465s-.9615-1.3049-3.4341-1.3049" fill="none" stroke="#231f20" stroke-linecap="round" stroke-linejoin="round" stroke-width=".5"/><path d="M157.5089,84.3207l5.5632-5.5632,5.5632-.5494s1.0302.8242.9615,2.4038l-.4808.5494s-4.8764.3434-8.4478,5.9066l-2.1978-.8929s-1.1676-1.0989-.9615-1.8544Z" fill="none" stroke="#231f20" stroke-linecap="round" stroke-linejoin="round" stroke-width=".5"/><path d="M170.833,80.8866s-.1374-2.2665-.6181-2.6786l5.9066-.206,5.9753,5.2198s-1.5797,2.4725-2.4725,2.5412c0,0-2.9533-4.739-8.7912-4.8764Z" fill="none" stroke="#231f20" stroke-linecap="round" stroke-linejoin="round" stroke-width=".5"/><path d="M187.2478,102.4525s14.011-.9615,14.9725-1.0989.8929-.8929.8929-.8929l.206-22.5961c0-1.0989-1.0989-1.0989-1.0989-1.0989l-16.0385.8067s-.7152-.1907-.7152.8106v11.8248" fill="none" stroke="#231f20" stroke-linecap="round" stroke-linejoin="round" stroke-width=".5"/><path d="M154.899,89.6778s-.4121-2.4038,1.3049-3.3654l1.9918,1.0302,1.9231.6868,3.0907,1.717s-1.3736,3.9148.2747,7.0742c0,0-3.9148,3.0907-5.1511,3.0907" fill="none" stroke="#231f20" stroke-linecap="round" stroke-linejoin="round" stroke-width=".5"/><path d="M161.6985,87.48l2.4038,1.2363s1.5797-3.022,5.2884-3.7775l.0687-2.5412s-3.7775-.6181-7.761,5.0824Z" fill="none" stroke="#231f20" stroke-linecap="round" stroke-linejoin="round" stroke-width=".5"/><path d="M170.9017,84.9388s3.4341,0,5.7692,2.8846l1.9918-1.3736s-3.0907-4.1896-7.761-4.2582v2.7472Z" fill="none" stroke="#231f20" stroke-linecap="round" stroke-linejoin="round" stroke-width=".5"/><path d="M164.1023,98.0569l-2.0604,1.6483s2.1978,3.9148,7.761,3.8461l-.1374-2.6786s-2.6786.1374-5.5632-2.8159Z" fill="none" stroke="#231f20" stroke-linecap="round" stroke-linejoin="round" stroke-width=".5"/><path d="M170.9017,100.8728l.2747,2.4725s5.0137-.2747,7.6236-5.2198l-2.0604-1.0302s-2.1291,3.2967-5.8379,3.7775Z" fill="none" stroke="#231f20" stroke-linecap="round" stroke-linejoin="round" stroke-width=".5"/><path d="M183.3807,98.163l-.1081.4149-.4863.4863-.9185-.7564-.9185-.3782c-.9185-.4322-3.4578-2.1071-3.4578-2.1071,1.7829-3.3497-.1081-6.8615-.1081-6.8615,0,0,3.0796-1.0806,4.2142-3.5118,0,0,1.2426-.5403,1.5128-1.0265,0,0,.9725.054,1.0265,1.1346v2.2692" fill="none" stroke="#231f20" stroke-linecap="round" stroke-linejoin="round" stroke-width=".5"/><path d="M188.5134,84.8008l3.836-4.4303,6.4293-.4863s1.8369.3782,1.8369,3.2957-.1081,12.8046-.1081,12.8046c0,0-.1081,2.3772-1.8369,2.7014s-6.4293.7024-6.4293.7024l-3.836-3.6739.1081-10.9136Z" fill="none" stroke="#231f20" stroke-linecap="round" stroke-linejoin="round" stroke-width=".5"/><path d="M189.8641,97.0111l3.4038-.1621s2.1071-.6483,2.2151-2.7554l.054-13.8852" fill="none" stroke="#231f20" stroke-linecap="round" stroke-linejoin="round" stroke-width=".5"/><path d="M177.5997,105.4394c2.9715-2.6474,4.4843-5.4028,4.4843-5.4028-.7024-.8644-2.3772-1.1346-2.3772-1.1346-3.4578,5.4028-8.6445,5.835-8.6445,5.835,0,0,.4863.5943-.3242,1.3507" fill="none" stroke="#231f20" stroke-linecap="round" stroke-linejoin="round" stroke-width=".5"/><path d="M169.4955,105.9797c.6483-.7024-.054-1.2426-.054-1.2426-5.1326.2701-8.6445-4.4843-8.6445-4.4843l-2.3772.9185" fill="none" stroke="#231f20" stroke-linecap="round" stroke-linejoin="round" stroke-width=".5"/><path d="M156.9611,101.8736l2.3232-.054.2701,3.782s.2701,1.4047,1.7289,1.2967,23.1239-1.945,23.1239-1.945c0,0,.7564.1621.7024-1.1886s-.2161-3.6739-.2161-3.6739l1.945-.054.3782,4.2682s.5403,2.3232-1.5128,3.0256l-26.1495,2.1611s-2.1611-.2161-2.3772-2.5393l-.2161-5.0786Z" fill="none" stroke="#231f20" stroke-linecap="round" stroke-linejoin="round" stroke-width=".5"/><path d="M156.9611,101.8736l-1.6208.6483.054,4.2682s.3782,3.3497,4.1601,2.7014" fill="none" stroke="#231f20" stroke-linecap="round" stroke-linejoin="round" stroke-width=".5"/><polyline points="183.1646 104.7911 182.9485 100.5769 184.8935 100.0907" fill="none" stroke="#231f20" stroke-linecap="round" stroke-linejoin="round" stroke-width=".5"/><path d="M155.0701,90.2036v7.4558s2.0531,1.0806,2.2692-2.5933c0,0,.3242-4.8625-2.2692-4.8625Z" fill="none" stroke="#231f20" stroke-linecap="round" stroke-linejoin="round" stroke-width=".5"/><path d="M156.9159,90.9059c2.2655-.2585,1.776,5.0624,1.776,5.0624l-1.1669.0758v2.1246l-.3608.8819v2.7258" fill="none" stroke="#231f20" stroke-linecap="round" stroke-linejoin="round" stroke-width=".5"/><polyline points="158.487 96.2446 158.487 98.1687 158.1263 99.0506 158.1263 101.7764" fill="none" stroke="#231f20" stroke-linecap="round" stroke-linejoin="round" stroke-width=".5"/><polyline points="156.4026 97.6075 156.4026 98.4092 156.0418 99.2911 156.0418 102.017" fill="none" stroke="#231f20" stroke-linecap="round" stroke-linejoin="round" stroke-width=".5"/><path d="M182.8788,97.3274l1.5597-.1671-.1671-2.4231.4456-.5292v-3.2308s-.557-1.6711-1.699-1.504c0,0-.9748.1114-1.0584,1.9218v2.7573l.6963.8634.2228,2.3117Z" fill="none" stroke="#231f20" stroke-linecap="round" stroke-linejoin="round" stroke-width=".5"/><path d="M184.6335,97.0768l.1398-.0652.6122-.2857-.1671-2.1278.4456-.5292v-3.2308s-.557-1.6711-1.699-1.504l-.947.1393" fill="none" stroke="#231f20" stroke-linecap="round" stroke-linejoin="round" stroke-width=".5"/><polyline points="183.4937 97.3244 183.4937 98.8873 183.9926 99.5192 183.9926 100.1178" fill="none" stroke="#231f20" stroke-linecap="round" stroke-linejoin="round" stroke-width=".5"/><polyline points="184.4249 97.0583 184.4249 98.6213 184.9237 99.2531 184.9237 99.8517" fill="none" stroke="#231f20" stroke-linecap="round" stroke-linejoin="round" stroke-width=".5"/><polyline points="185.3228 96.7923 185.3228 98.3553 185.8216 98.9871 185.8216 99.5857" fill="none" stroke="#231f20" stroke-linecap="round" stroke-linejoin="round" stroke-width=".5"/><ellipse cx="183.3149" cy="92.3737" rx=".5099" ry="1.3906" fill="none" stroke="#231f20" stroke-linecap="round" stroke-linejoin="round" stroke-width=".5"/><ellipse cx="156.0749" cy="93.9564" rx=".5099" ry="1.3906" fill="none" stroke="#231f20" stroke-linecap="round" stroke-linejoin="round" stroke-width=".5"/><ellipse cx="182.384" cy="79.3156" rx="2.4347" ry="2.3451" transform="translate(31.5958 208.9991) rotate(-64.2001)" fill="none" stroke="#231f20" stroke-linecap="round" stroke-linejoin="round" stroke-width=".5"/><line x1="182.5104" y1="77.7632" x2="182.5104" y2="80.7671" fill="none" stroke="#231f20" stroke-linecap="round" stroke-linejoin="round" stroke-width=".5"/><line x1="181.2231" y1="79.432" x2="183.7025" y2="79.2413" fill="none" stroke="#231f20" stroke-linecap="round" stroke-linejoin="round" stroke-width=".5"/><ellipse cx="156.9584" cy="80.767" rx="2.2445" ry="2.1159" transform="translate(38.4739 211.6129) rotate(-75.0676)" fill="none" stroke="#231f20" stroke-linecap="round" stroke-linejoin="round" stroke-width=".5"/><line x1="157.0721" y1="79.3313" x2="157.0721" y2="82.1093" fill="none" stroke="#231f20" stroke-linecap="round" stroke-linejoin="round" stroke-width=".5"/><line x1="155.9143" y1="80.8747" x2="158.1442" y2="80.6983" fill="none" stroke="#231f20" stroke-linecap="round" stroke-linejoin="round" stroke-width=".5"/><path d="M183.1668,89.2244v-1.482s1.6878.1235,2.0172,1.9348" fill="none" stroke="#231f20" stroke-linecap="round" stroke-linejoin="round" stroke-width=".5"/><path d="M188.519,87.6979l2.6061,1.249s1.4577.8647-.3092,1.4411l-2.2527-1.0088" fill="none" stroke="#231f20" stroke-linecap="round" stroke-linejoin="round" stroke-width=".5"/><path d="M188.5631,86.545l4.3288,2.0656s1.4577.8647-.3092,1.4411l-1.6343.3363" fill="none" stroke="#231f20" stroke-linecap="round" stroke-linejoin="round" stroke-width=".5"/><path d="M192.8478,95.1585l1.6343-.3363c1.7669-.5764.3092-1.4411.3092-1.4411l-2.6061-1.2705-2.4294.1767,3.2687,1.4301s1.4577.8647-.3092,1.4411l-3.0037-1.3693v-1.0601" fill="none" stroke="#231f20" stroke-linecap="round" stroke-linejoin="round" stroke-width=".5"/><path d="M191.1021,81.8627l1.8782.9001s1.4577.8647-.3092,1.4411l-2.2527-1.0088" fill="none" stroke="#231f20" stroke-linecap="round" stroke-linejoin="round" stroke-width=".5"/><path d="M191.7913,81.0161l2.9559,1.4105s1.4577.8647-.3092,1.4411l-1.6343.3363" fill="none" stroke="#231f20" stroke-linecap="round" stroke-linejoin="round" stroke-width=".5"/><path d="M206.6939,84.4707l.18-8.0795s-.2834-.9211-2.1256-.8502l-18.776.9919" fill="none" stroke="#231f20" stroke-linecap="round" stroke-linejoin="round" stroke-width=".5"/><polyline points="187.035 106.5036 206.2362 105.0157 206.345 100.5768" fill="none" stroke="#231f20" stroke-linecap="round" stroke-linejoin="round" stroke-width=".5"/><path d="M203.2944,98.4918l6.0712,2.7596s1.9624.7972,2.5757-.7972v-11.5905s.368-1.2878-1.4718-1.8398l-5.3966-1.9011s-1.4718-.184-1.7171.6133" fill="none" stroke="#231f20" stroke-linecap="round" stroke-linejoin="round" stroke-width=".5"/><path d="M204.0303,86.7786l4.3541,1.7171s.9812-.0613.9812,1.4105v10.1187" fill="none" stroke="#231f20" stroke-linecap="round" stroke-linejoin="round" stroke-width=".5"/><line x1="204.3983" y1="89.7222" x2="204.3983" y2="95.3028" fill="none" stroke="#231f20" stroke-linecap="round" stroke-linejoin="round" stroke-width=".5"/><line x1="205.3182" y1="90.1515" x2="205.3182" y2="95.7321" fill="none" stroke="#231f20" stroke-linecap="round" stroke-linejoin="round" stroke-width=".5"/><line x1="206.238" y1="90.5808" x2="206.238" y2="96.1614" fill="none" stroke="#231f20" stroke-linecap="round" stroke-linejoin="round" stroke-width=".5"/><ellipse cx="204.9391" cy="82.0106" rx="1.004" ry=".7705" transform="translate(105.6126 279.14) rotate(-85.0679)" fill="none" stroke="#231f20" stroke-linecap="round" stroke-linejoin="round" stroke-width=".5"/><path d="M169.5044,125.7072l35.5069-3.252s1.9909-.1414,3.053-1.4923v1.2818c-.824,1.5565-5.0357,1.648-5.0357,1.648l-1.7396,1.9227-31.3128,3.0214" fill="none" stroke="#231f20" stroke-linecap="round" stroke-linejoin="round" stroke-width=".5"/><polyline points="229.3965 118.8068 229.3417 122.5475 228.2936 122.7471" fill="none" stroke="#231f20" stroke-linecap="round" stroke-linejoin="round" stroke-width=".5"/><polyline points="224.6004 123.2961 218.761 123.7952 216.8645 122.5475 216.932 119.8226" fill="none" stroke="#231f20" stroke-linecap="round" stroke-linejoin="round" stroke-width=".5"/><line x1="218.761" y1="123.7952" x2="218.761" y2="120.5013" fill="none" stroke="#231f20" stroke-linecap="round" stroke-linejoin="round" stroke-width=".5"/><polyline points="216.932 119.8226 218.761 120.5013 225.8481 119.9523 224.8998 120.6011 224.8998 124.0448 226.7464 124.1446 228.2936 122.7471 228.2936 119.7526 226.8961 120.8506 224.9996 120.8007" fill="none" stroke="#231f20" stroke-linecap="round" stroke-linejoin="round" stroke-width=".5"/><path d="M267.9016,115.2421c-.824,1.5565-5.0357,1.648-5.0357,1.648l-1.7396,1.9227-31.3128,3.0214" fill="none" stroke="#231f20" stroke-linecap="round" stroke-linejoin="round" stroke-width=".5"/><path d="M221.5679,103.8643c-2.5549-.3312-2.8497-2.3796-2.8497-2.3796l.1982-24.1578s-.2833-3.4123,4.3967-3.5595" fill="none" stroke="#231f20" stroke-linecap="round" stroke-linejoin="round" stroke-width=".5"/><path d="M222.5115,80.6224l5.0948-4.9797,5.0569-.4541s.9294.7517.8551,2.1771l-.4408.4923s-4.4315.2733-7.7174,5.268l-1.9894-.8225s-1.0521-1.0007-.8593-1.6811Z" fill="none" stroke="#231f20" stroke-linecap="round" stroke-linejoin="round" stroke-width=".5"/><path d="M234.6391,77.623s-.1076-2.0469-.5411-2.4225l5.3662-.1415,5.3874,4.7566s-1.4534,2.2199-2.2649,2.2752c0,0-2.6464-4.2999-7.9476-4.4678Z" fill="none" stroke="#231f20" stroke-linecap="round" stroke-linejoin="round" stroke-width=".5"/><path d="M249.3843,97.213s12.7326-.7624,13.6069-.8792.8177-.7992.8177-.7992l.3583-20.3948c.0083-.9919-.9897-1.0002-.9897-1.0002l-14.5729.6075s-.6481-.1775-.6557.7263-.0896,10.6737-.0896,10.6737" fill="none" stroke="#231f20" stroke-linecap="round" stroke-linejoin="round" stroke-width=".5"/><path d="M220.1006,85.4384s-.3561-2.1729,1.2107-3.0279l1.8012.9449,1.7414.6344,2.794,1.5731s-1.2772,3.5234.1959,6.3876c0,0-3.579,2.7603-4.7018,2.751" fill="none" stroke="#231f20" stroke-linecap="round" stroke-linejoin="round" stroke-width=".5"/><path d="M226.2927,83.5057l2.1739,1.134s1.4576-2.7159,4.8318-3.3699l.0816-2.2933s-3.4262-.5864-7.0873,4.5292Z" fill="none" stroke="#231f20" stroke-linecap="round" stroke-linejoin="round" stroke-width=".5"/><path d="M234.6708,81.2812s3.1189.0259,5.218,2.6472l1.8194-1.2249s-2.7753-3.805-7.0166-3.9021l-.0208,2.4798Z" fill="none" stroke="#231f20" stroke-linecap="round" stroke-linejoin="round" stroke-width=".5"/><path d="M228.3959,93.0711l-1.8839,1.4724s1.9665,3.5503,7.0197,3.5301l-.1045-2.4188s-2.4338.1038-5.0314-2.5837Z" fill="none" stroke="#231f20" stroke-linecap="round" stroke-linejoin="round" stroke-width=".5"/><path d="M234.5501,95.664l.2308,2.2339s4.5557-.2102,6.9636-4.6542l-1.8636-.9454s-1.9587,2.9597-5.3308,3.3658Z" fill="none" stroke="#231f20" stroke-linecap="round" stroke-linejoin="round" stroke-width=".5"/><path d="M245.9045,93.312l-.1013.3737-.4453.4353-.8285-.6897-.8313-.3483c-.8309-.3971-3.1245-1.928-3.1245-1.928,1.6447-3.0102-.0462-6.1944-.0462-6.1944,0,0,2.8052-.9522,3.8541-3.1382,0,0,1.1327-.4783,1.3817-.9152,0,0,.8829.0561.9237,1.0319l-.0172,2.0483" fill="none" stroke="#231f20" stroke-linecap="round" stroke-linejoin="round" stroke-width=".5"/><path d="M250.6674,81.2892l3.5175-3.9701,5.843-.3905s1.6655.3552,1.6434,2.9887c-.0221,2.6335-.1951,11.5573-.1951,11.5573,0,0-.1161,2.145-1.6889,2.4246s-5.8447.5856-5.8447.5856l-3.4562-3.3451.1808-9.8504Z" fill="none" stroke="#231f20" stroke-linecap="round" stroke-linejoin="round" stroke-width=".5"/><path d="M251.8017,92.321l3.0927-.1207s1.9187-.5694,2.0328-2.4705l.1543-12.533" fill="none" stroke="#231f20" stroke-linecap="round" stroke-linejoin="round" stroke-width=".5"/><path d="M240.5989,99.8365c2.7189-2.3673,4.1138-4.8431,4.1138-4.8431-.6314-.7856-2.1505-1.042-2.1505-1.042-3.1814,4.8508-7.8954,5.2019-7.8954,5.2019,0,0,.4371.5401-.3047,1.2168" fill="none" stroke="#231f20" stroke-linecap="round" stroke-linejoin="round" stroke-width=".5"/><path d="M233.2342,100.2632c.5942-.6291-.0397-1.1221-.0397-1.1221-4.6637.2052-7.8173-4.1128-7.8173-4.1128l-2.166.8112" fill="none" stroke="#231f20" stroke-linecap="round" stroke-linejoin="round" stroke-width=".5"/><path d="M221.881,96.4624l2.1104-.0313.2167,3.4158s.2347,1.27,1.5604,1.1835,21.0168-1.5816,21.0168-1.5816c0,0,.6858.152.6469-1.0676s-.1685-3.3179-.1685-3.3179l1.7669-.0341.3112,3.8555s.4731,2.1011-1.3969,2.7196l-23.7664,1.7539s-1.9612-.2113-2.1399-2.31l-.1578-4.5858Z" fill="none" stroke="#231f20" stroke-linecap="round" stroke-linejoin="round" stroke-width=".5"/><path d="M221.881,96.4624l-1.477.573.0167,3.8531s.3181,3.0265,3.7579,2.4697" fill="none" stroke="#231f20" stroke-linecap="round" stroke-linejoin="round" stroke-width=".5"/><polyline points="245.658 99.2932 245.4936 95.4877 247.2639 95.0634" fill="none" stroke="#231f20" stroke-linecap="round" stroke-linejoin="round" stroke-width=".5"/><path d="M220.252,85.9143l-.0565,6.73s1.8565.9908,2.0806-2.3238c0,0,.3313-4.3867-2.0241-4.4062Z" fill="none" stroke="#231f20" stroke-linecap="round" stroke-linejoin="round" stroke-width=".5"/><path d="M221.923,86.5622c2.0596-.2163,1.5747,4.583,1.5747,4.583l-1.0604.0596-.0161,1.9177-.3343.7933-.0206,2.4605" fill="none" stroke="#231f20" stroke-linecap="round" stroke-linejoin="round" stroke-width=".5"/><polyline points="223.3096 91.3929 223.295 93.1297 222.9607 93.9231 222.94 96.3835" fill="none" stroke="#231f20" stroke-linecap="round" stroke-linejoin="round" stroke-width=".5"/><polyline points="221.4061 92.6075 221.4 93.3311 221.0656 94.1245 221.045 96.5849" fill="none" stroke="#231f20" stroke-linecap="round" stroke-linejoin="round" stroke-width=".5"/><path d="M245.455,92.554l1.4179-.1391-.1334-2.1885.4087-.4743.0245-2.9163s-.4933-1.5126-1.5317-1.3704c0,0-.8862.0932-.9758,1.7267l-.0209,2.4889.6259.7846.1849,2.0883Z" fill="none" stroke="#231f20" stroke-linecap="round" stroke-linejoin="round" stroke-width=".5"/><path d="M247.0505,92.3409l.1274-.0578.5582-.2533-.1357-1.9219.4087-.4743.0245-2.9163s-.4933-1.5126-1.5317-1.3704l-.8611.1186" fill="none" stroke="#231f20" stroke-linecap="round" stroke-linejoin="round" stroke-width=".5"/><polyline points="246.0135 92.5559 246.0017 93.9667 246.4499 94.5407 246.4454 95.0811" fill="none" stroke="#231f20" stroke-linecap="round" stroke-linejoin="round" stroke-width=".5"/><polyline points="246.8612 92.3227 246.8494 93.7335 247.2976 94.3076 247.2931 94.8479" fill="none" stroke="#231f20" stroke-linecap="round" stroke-linejoin="round" stroke-width=".5"/><polyline points="247.6787 92.0893 247.6669 93.5002 248.1151 94.0742 248.1106 94.6146" fill="none" stroke="#231f20" stroke-linecap="round" stroke-linejoin="round" stroke-width=".5"/><ellipse cx="245.8885" cy="88.0857" rx="1.2553" ry=".4631" transform="translate(155.7385 333.225) rotate(-89.5183)" fill="none" stroke="#231f20" stroke-linecap="round" stroke-linejoin="round" stroke-width=".5"/><ellipse cx="221.1361" cy="89.3093" rx="1.2553" ry=".4631" transform="translate(129.9707 309.6868) rotate(-89.5183)" fill="none" stroke="#231f20" stroke-linecap="round" stroke-linejoin="round" stroke-width=".5"/><ellipse cx="244.7479" cy="75.6514" rx="2.2008" ry="2.127" transform="translate(55.6086 248.4258) rotate(-59.5873)" fill="none" stroke="#231f20" stroke-linecap="round" stroke-linejoin="round" stroke-width=".5"/><line x1="244.8745" y1="74.2511" x2="244.8517" y2="76.9626" fill="none" stroke="#231f20" stroke-linecap="round" stroke-linejoin="round" stroke-width=".5"/><ellipse cx="222.2848" cy="76.8687" rx="2.027" ry="1.9209" transform="translate(83.4595 266.7288) rotate(-72.9018)" fill="none" stroke="#231f20" stroke-linecap="round" stroke-linejoin="round" stroke-width=".5"/><line x1="222.399" y1="75.5736" x2="222.3779" y2="78.0812" fill="none" stroke="#231f20" stroke-linecap="round" stroke-linejoin="round" stroke-width=".5"/><line x1="221.3357" y1="76.958" x2="223.3623" y2="76.8156" fill="none" stroke="#231f20" stroke-linecap="round" stroke-linejoin="round" stroke-width=".5"/><path d="M245.7779,85.242l.0112-1.3377s1.532.1242,1.8174,1.7617" fill="none" stroke="#231f20" stroke-linecap="round" stroke-linejoin="round" stroke-width=".5"/><path d="M250.6505,83.9044l2.3575,1.147s1.3174.7915-.2917,1.2985l-2.0384-.9275" fill="none" stroke="#231f20" stroke-linecap="round" stroke-linejoin="round" stroke-width=".5"/><path d="M250.6994,82.864l3.916,1.8971s1.3174.7915-.2917,1.2985l-1.4869.2912" fill="none" stroke="#231f20" stroke-linecap="round" stroke-linejoin="round" stroke-width=".5"/><path d="M254.5256,90.6712l1.4869-.2912c1.6091-.507.2917-1.2985.2917-1.2985l-2.3574-1.1664-2.2078.1412,2.9579,1.3154s1.3174.7915-.2917,1.2985l-2.7177-1.2586.008-.9569" fill="none" stroke="#231f20" stroke-linecap="round" stroke-linejoin="round" stroke-width=".5"/><path d="M253.0408,78.6567l1.6991.8266s1.3174.7915-.2917,1.2985l-2.0384-.9275" fill="none" stroke="#231f20" stroke-linecap="round" stroke-linejoin="round" stroke-width=".5"/><path d="M253.6732,77.8977l2.674,1.2954s1.3174.7915-.2917,1.2985l-1.4869.2912" fill="none" stroke="#231f20" stroke-linecap="round" stroke-linejoin="round" stroke-width=".5"/><path d="M267.1822,81.1281l.2247-7.2916s-.2504-.8336-1.9241-.7835l-17.0606.754" fill="none" stroke="#231f20" stroke-linecap="round" stroke-linejoin="round" stroke-width=".5"/><polyline points="249.1603 100.8682 266.6108 99.6697 266.7433 95.6637" fill="none" stroke="#231f20" stroke-linecap="round" stroke-linejoin="round" stroke-width=".5"/><path d="M263.9884,93.7587l7.3097,2.5649s1.7763.7344,2.3454-.7002l.0878-11.0347s.3439-1.1597-1.3228-1.6717l-6.7035-1.7849s-1.3354-.1771-1.5642.5406" fill="none" stroke="#231f20" stroke-linecap="round" stroke-linejoin="round" stroke-width=".5"/><path d="M265.2001,82.9034l5.2325,1.4827s.8916-.048.8805,1.2806l-.0766,9.1336" fill="none" stroke="#231f20" stroke-linecap="round" stroke-linejoin="round" stroke-width=".5"/><line x1="265.6476" y1="85.5913" x2="265.6018" y2="91.057" fill="none" stroke="#231f20" stroke-linecap="round" stroke-linejoin="round" stroke-width=".5"/><line x1="266.4796" y1="85.9014" x2="266.4337" y2="91.3672" fill="none" stroke="#231f20" stroke-linecap="round" stroke-linejoin="round" stroke-width=".5"/><line x1="267.3115" y1="86.2116" x2="267.2657" y2="91.6773" fill="none" stroke="#231f20" stroke-linecap="round" stroke-linejoin="round" stroke-width=".5"/><ellipse cx="265.6071" cy="78.8943" rx=".9063" ry=".6998" transform="translate(161.4336 335.6419) rotate(-84.4587)" fill="none" stroke="#231f20" stroke-linecap="round" stroke-linejoin="round" stroke-width=".5"/><path d="M244.6354,72.5481s3.5537-.1839,3.9692,2.1989" fill="none" stroke="#231f20" stroke-linecap="round" stroke-linejoin="round" stroke-width=".5"/><line x1="243.6501" y1="75.7011" x2="246.1134" y2="75.6026" fill="none" stroke="#231f20" stroke-linecap="round" stroke-linejoin="round" stroke-width=".5"/><line x1="268.6537" y1="95.7933" x2="268.6537" y2="101.7746" fill="none" stroke="#231f20" stroke-linecap="round" stroke-linejoin="round" stroke-width=".5"/><polygon points="85.4075 115.6222 77.7611 116.5151 77.4756 104.7322 85.1653 103.914 85.4075 115.6222" fill="none" stroke="#231f20" stroke-linecap="round" stroke-linejoin="round" stroke-width=".5"/><polyline points="77.7617 116.5141 76.5905 115.847 76.3051 104.0642 83.6965 103.2734 85.1724 103.8868" fill="none" stroke="#231f20" stroke-linecap="round" stroke-linejoin="round" stroke-width=".5"/><line x1="77.4156" y1="104.6716" x2="76.3811" y2="104.0714" fill="none" stroke="#231f20" stroke-linecap="round" stroke-linejoin="round" stroke-width=".5"/><polygon points="86.0795 142.2616 78.6254 143.1375 78.3365 131.4866 85.833 130.6833 86.0795 142.2616" fill="none" stroke="#231f20" stroke-linecap="round" stroke-linejoin="round" stroke-width=".5"/><polyline points="78.606 143.1241 77.4835 142.476 77.1947 130.8251 84.4004 130.0485 85.84 130.6564" fill="none" stroke="#231f20" stroke-linecap="round" stroke-linejoin="round" stroke-width=".5"/><line x1="78.3365" y1="131.4866" x2="77.1947" y2="130.8251" fill="none" stroke="#231f20" stroke-linecap="round" stroke-linejoin="round" stroke-width=".5"/><polygon points="85.6767 128.9393 78.2225 129.8152 77.9337 118.1643 85.2425 117.4083 85.6767 128.9393" fill="none" stroke="#231f20" stroke-linecap="round" stroke-linejoin="round" stroke-width=".5"/><polyline points="78.219 129.8114 77.0807 129.1537 76.7918 117.5028 83.8099 116.7736 85.2494 117.3814" fill="none" stroke="#231f20" stroke-linecap="round" stroke-linejoin="round" stroke-width=".5"/><line x1="77.9337" y1="118.1643" x2="76.7918" y2="117.5028" fill="none" stroke="#231f20" stroke-linecap="round" stroke-linejoin="round" stroke-width=".5"/><polygon points="85.0263 102.1369 77.3798 103.0297 77.0944 91.2469 84.7841 90.6651 85.0263 102.1369" fill="none" stroke="#231f20" stroke-linecap="round" stroke-linejoin="round" stroke-width=".5"/><polyline points="77.3805 103.0433 76.2093 102.3617 75.9238 90.5788 83.3152 90.0245 84.7912 90.6379" fill="none" stroke="#231f20" stroke-linecap="round" stroke-linejoin="round" stroke-width=".5"/><line x1="77.0344" y1="91.1863" x2="75.8638" y2="90.5183" fill="none" stroke="#231f20" stroke-linecap="round" stroke-linejoin="round" stroke-width=".5"/><ellipse cx="233.6883" cy="130.17" rx=".8557" ry=".7134" transform="translate(-21.0988 48.6961) rotate(-11.386)" fill="#231f20" stroke-width="0"/><ellipse cx="236.3383" cy="129.8939" rx=".8557" ry=".7134" transform="translate(-20.9921 49.2139) rotate(-11.386)" fill="#231f20" stroke-width="0"/><ellipse cx="247.5555" cy="128.7685" rx=".8557" ry=".7134" transform="translate(-20.5492 51.4062) rotate(-11.386)" fill="#231f20" stroke-width="0"/><ellipse cx="250.2055" cy="128.4924" rx=".8557" ry=".7134" transform="translate(-20.4425 51.9239) rotate(-11.386)" fill="#231f20" stroke-width="0"/><ellipse cx="306.5971" cy="89.0535" rx=".751" ry=".9212" fill="#231f20" stroke-width="0"/><ellipse cx="306.5971" cy="86.2111" rx=".751" ry=".9212" fill="#231f20" stroke-width="0"/><ellipse cx="306.5971" cy="83.3686" rx=".751" ry=".9212" fill="#231f20" stroke-width="0"/><path d="M307.7148,106.9214h0c-.6432-.0582-1.152-.6588-1.1308-1.3347l.1607-5.1042c.0213-.6758.565-1.1811,1.2082-1.1229h0c.6432.0582,1.152.6588,1.1308,1.3347l-.1607,5.1042c-.0213.6758-.565,1.1811-1.2082,1.1229Z" fill="none" stroke="#231f20" stroke-miterlimit="10" stroke-width=".5"/><ellipse cx="116.0167" cy="93.4284" rx=".8872" ry=".9609" fill="#231f20" stroke-width="0"/><ellipse cx="74.3751" cy="112.3097" rx=".8872" ry=".9609" fill="#231f20" stroke-width="0"/><ellipse cx="74.3751" cy="108.9989" rx=".8872" ry=".9609" fill="#231f20" stroke-width="0"/><ellipse cx="73.9637" cy="99.2807" rx=".8872" ry=".9609" fill="#231f20" stroke-width="0"/><ellipse cx="73.9637" cy="95.9699" rx=".8872" ry=".9609" fill="#231f20" stroke-width="0"/><ellipse cx="74.7865" cy="125.7288" rx=".8872" ry=".9609" fill="#231f20" stroke-width="0"/><ellipse cx="74.7865" cy="122.418" rx=".8872" ry=".9609" fill="#231f20" stroke-width="0"/><ellipse cx="75.1979" cy="138.4835" rx=".8872" ry=".9609" fill="#231f20" stroke-width="0"/><ellipse cx="75.1979" cy="135.1727" rx=".8872" ry=".9609" fill="#231f20" stroke-width="0"/><polygon points="106.4188 113.8314 98.8553 114.7145 98.573 103.0595 106.1792 102.2502 106.4188 113.8314" fill="none" stroke="#231f20" stroke-linecap="round" stroke-linejoin="round" stroke-width=".4946"/><polyline points="98.856 114.7136 97.6975 114.0537 97.4152 102.3988 104.7263 101.6166 106.1863 102.2233" fill="none" stroke="#231f20" stroke-linecap="round" stroke-linejoin="round" stroke-width=".4946"/><line x1="98.5137" y1="102.9996" x2="97.4904" y2="102.4059" fill="none" stroke="#231f20" stroke-linecap="round" stroke-linejoin="round" stroke-width=".4946"/><polygon points="107.0835 140.1815 99.7103 141.048 99.4245 129.5236 106.8397 128.7289 107.0835 140.1815" fill="none" stroke="#231f20" stroke-linecap="round" stroke-linejoin="round" stroke-width=".4946"/><polyline points="99.6911 141.0347 98.5808 140.3936 98.2951 128.8692 105.4226 128.101 106.8465 128.7023" fill="none" stroke="#231f20" stroke-linecap="round" stroke-linejoin="round" stroke-width=".4946"/><line x1="99.4245" y1="129.5236" x2="98.2951" y2="128.8692" fill="none" stroke="#231f20" stroke-linecap="round" stroke-linejoin="round" stroke-width=".4946"/><polygon points="106.685 127.0039 99.3118 127.8703 99.0261 116.3459 106.2556 115.5981 106.685 127.0039" fill="none" stroke="#231f20" stroke-linecap="round" stroke-linejoin="round" stroke-width=".4946"/><polyline points="99.3083 127.8665 98.1823 127.2159 97.8966 115.6915 104.8385 114.9702 106.2624 115.5715" fill="none" stroke="#231f20" stroke-linecap="round" stroke-linejoin="round" stroke-width=".4946"/><line x1="99.0261" y1="116.3459" x2="97.8966" y2="115.6915" fill="none" stroke="#231f20" stroke-linecap="round" stroke-linejoin="round" stroke-width=".4946"/><polygon points="106.0417 100.4924 98.4782 101.3756 98.1959 89.7206 105.8021 89.1452 106.0417 100.4924" fill="none" stroke="#231f20" stroke-linecap="round" stroke-linejoin="round" stroke-width=".4946"/><polyline points="98.4789 101.389 97.3204 100.7148 97.0381 89.0598 104.3492 88.5115 105.8092 89.1182" fill="none" stroke="#231f20" stroke-linecap="round" stroke-linejoin="round" stroke-width=".4946"/><line x1="98.1366" y1="89.6607" x2="96.9787" y2="88.9999" fill="none" stroke="#231f20" stroke-linecap="round" stroke-linejoin="round" stroke-width=".4946"/><ellipse cx="95.5061" cy="110.5548" rx=".8776" ry=".9504" fill="#231f20" stroke-width="0"/><ellipse cx="95.5061" cy="107.28" rx=".8776" ry=".9504" fill="#231f20" stroke-width="0"/><ellipse cx="95.0992" cy="97.6672" rx=".8776" ry=".9504" fill="#231f20" stroke-width="0"/><ellipse cx="95.0992" cy="94.3924" rx=".8776" ry=".9504" fill="#231f20" stroke-width="0"/><ellipse cx="95.913" cy="123.8282" rx=".8776" ry=".9504" fill="#231f20" stroke-width="0"/><ellipse cx="95.913" cy="120.5534" rx=".8776" ry=".9504" fill="#231f20" stroke-width="0"/><ellipse cx="96.32" cy="136.4445" rx=".8776" ry=".9504" fill="#231f20" stroke-width="0"/><ellipse cx="96.32" cy="133.1696" rx=".8776" ry=".9504" fill="#231f20" stroke-width="0"/><ellipse cx="53.5403" cy="112.1657" rx=".8822" ry=".9663" transform="translate(-25.7489 16.453) rotate(-14.122)" fill="#231f20" stroke-width="0"/><ellipse cx="53.3488" cy="108.2529" rx=".8822" ry=".9663" transform="translate(-24.8 16.288) rotate(-14.122)" fill="#231f20" stroke-width="0"/><ellipse cx="54.2889" cy="129.6104" rx=".8822" ry=".9663" transform="translate(-29.9826 17.1628) rotate(-14.122)" fill="#231f20" stroke-width="0"/><ellipse cx="54.0973" cy="125.6976" rx=".8822" ry=".9663" transform="translate(-29.0337 16.9978) rotate(-14.122)" fill="#231f20" stroke-width="0"/><polygon points="149.851 81.8621 150.9904 81.8273 150.4682 82.9978 149.851 81.8621" fill="#231f20" stroke-width="0"/><polygon points="111.121 84.6713 112.2604 84.6366 111.7382 85.8071 111.121 84.6713" fill="#231f20" stroke-width="0"/><polygon points="90.3608 85.9338 91.5002 85.899 90.9779 87.0695 90.3608 85.9338" fill="#231f20" stroke-width="0"/><polygon points="69.0421 86.734 70.1815 86.6993 69.6592 87.8698 69.0421 86.734" fill="#231f20" stroke-width="0"/><polyline points="169.1855 139.8114 47.7985 152.9475 45.3601 115.2734 39.264 115.6392" fill="none" stroke="#231f20" stroke-linecap="round" stroke-linejoin="round" stroke-width=".5"/><polyline points="205.0564 123.7293 209.0261 127.7712 205.5617 131.5244 162.2557 135.9271 161.2483 135.106 161.2329 134.397 161.1537 130.7551" fill="none" stroke-width="0"/><g clip-path="url(#b)"><path d="M147.428,117.5784c-7.1892-6.461-14.9403-13.8968-21.8863-20.6978-2.3988-2.3345-4.8749-4.5877-7.3095-6.8844-.0516-.0487-.0538-.1308-.0071-.1836l8.1368-9.1803c.0901-.1021.2485-.1081.3462-.0133,7.0151,6.6367,14.3409,13.5645,21.1064,20.3804-7.1481-6.4076-14.4582-13.367-21.4395-20.0296,0,0,.3459-.0133.3459-.0133l-8.3005,9.0325-.0071-.1833c2.4191,2.3131,4.7968,4.6699,7.2517,6.9453,7.0914,6.5895,15.1688,14.0085,21.763,20.8276h0Z" fill="#231f20" stroke-width="0"/><path d="M147.3095,123.1607c-9.8347-8.7616-19.538-18.6158-29.1951-27.583,4.2752-5.2041,9.3857-10.2241,14.0047-15.3014.0987-.1045.2636-.1092.3679-.0104,2.5721,2.4356,5.1182,4.8985,7.6544,7.372,2.4716,2.4657,5.2966,5.0027,7.5607,7.4706-5.2374-4.7722-10.428-9.5948-15.5722-14.4666,0,0,.3674-.0106.3674-.0106-4.6868,5.0234-9.4434,9.9813-14.1981,14.941l-.0053-.1837c2.4182,2.3141,4.7982,4.6684,7.2529,6.9441,7.0924,6.5875,15.1671,14.011,21.7626,20.8281h0Z" fill="#231f20" stroke-width="0"/><path d="M147.37,128.5663c-7.5347-6.4679-14.6078-13.4356-21.901-20.1656,0,0-7.3591-6.6584-7.3591-6.6584-.0853-.077-.0896-.2103-.0095-.2927,3.2866-3.5394,6.603-7.0505,9.9447-10.5375,2.9871-2.9548,7.2171-7.6158,10.1786-10.3152-2.7893,3.0977-6.9303,7.5591-9.8136,10.6619-3.3103,3.5169-6.646,7.0096-10.0115,10.4741l-.0095-.2924,7.2097,6.8198c7.2038,6.7492,14.9836,13.3272,21.7711,20.3061h0Z" fill="#231f20" stroke-width="0"/><path d="M147.7635,134.7697c-7.4839-6.5222-14.6884-13.3489-21.8909-20.1766,0,0-7.3326-6.687-7.3326-6.687-.0609-.0556-.0638-.1519-.0093-.2134,8.1937-9.2006,16.5895-18.6344,25.083-27.3593-8.11,9.3459-16.4163,18.5167-24.8585,27.5632,0,0-.0093-.2131-.0093-.2131l7.2362,6.7912c7.2937,6.6514,14.9438,13.3711,21.7813,20.295h0Z" fill="#231f20" stroke-width="0"/><path d="M148.2446,140.9733c-7.277-6.4268-15.1846-13.7797-22.2584-20.5133-2.4305-2.3253-4.9192-4.5878-7.4046-6.8538-.0476-.0434-.0501-.1185-.0077-.1667,6.8574-7.7964,13.7042-15.6023,20.7181-23.2584l7.0178-7.6526.0057.1411c-.0074-.0192-2.7579-2.6765-2.7085-2.7128.0444-.0544,2.8136,2.5667,2.8482,2.5658.04.0365.0411.1008.0056.1414l-6.8437,7.8087c-6.7831,7.5526-14.1339,16.1019-20.8737,22.9595,9.5813,9.0689,20.2986,18.3015,29.5011,27.5414h0Z" fill="#231f20" stroke-width="0"/><path d="M144.268,142.7385c-8.765-7.566-16.9923-15.7139-25.5419-23.5148,4.24-5.2967,9.146-10.4817,13.6729-15.6802,4.6042-5.0678,9.322-10.4403,14.0068-15.2345-4.4826,5.2439-9.0229,10.4374-13.6171,15.5829-4.5296,4.9187-9.5112,10.8144-13.9134,15.171,8.3684,7.9183,17.4153,15.5555,25.3927,23.6757h0Z" fill="#231f20" stroke-width="0"/><path d="M147.5235,92.7391c-8.9675,10.915-19.0093,21.7131-28.1857,32.5008,0,0-.0109-.2045-.0109-.2045,3.2246,2.9298,11.4547,10.4187,14.532,13.2926,0,0,4.7981,4.4805,4.7981,4.4805l-.3279.019c3.2777-3.6889,6.4828-7.5196,9.8225-11.1173-3.047,3.8531-6.3328,7.6085-9.4761,11.414-.0797.0955-.2218.1084-.3173.0287-.0085.0048-4.8408-4.4454-4.8504-4.4454-3.0695-2.8111-11.2461-10.5045-14.3807-13.4561-.0585-.0534-.0621-.1451-.011-.2048,9.4533-10.4882,18.8248-22.1829,28.4074-32.3074h0Z" fill="#231f20" stroke-width="0"/><path d="M134.9326,141.0765c1.7486-2.5995,4.1983-4.5621,6.1332-6.9948,1.9589-2.4014,4.0077-4.8175,6.335-6.8439-1.7852,2.5314-3.9471,4.8227-6.1314,7.0268-2.2108,2.116-3.9653,5.0324-6.3368,6.8119h0Z" fill="#231f20" stroke-width="0"/><path d="M147.5667,98.6128c-4.5884,5.5356-9.4666,10.8094-14.3635,16.0682-4.7981,5.3465-9.4345,10.8386-14.2796,16.1436,0,0-.0165-.3593-.0165-.3593,3.3192,3.1017,6.6057,6.2385,9.8458,9.4239.023.0202-.0115.0584-.034.0367-3.4274-2.983-6.8099-6.0161-10.1599-9.0844-.1024-.0954-.1089-.2555-.0165-.3596,4.7603-5.3812,9.7289-10.5747,14.5354-15.9136,4.7104-5.3567,9.4991-11.0492,14.4888-15.9556h0Z" fill="#231f20" stroke-width="0"/><path d="M127.9456,144.6594c-3.1351-2.6941-6.2049-5.4605-9.229-8.2773-.0868-.0795-.0912-.2162-.0137-.3041,2.4118-2.6477,4.924-5.2047,7.2952-7.889,6.856-7.7697,14.5017-16.653,21.6777-23.8546-6.661,7.9119-14.4571,16.3612-21.5499,23.9699-2.4277,2.6333-4.7144,5.3939-7.1016,8.0637l-.0137-.3038c2.9702,2.7982,6.2496,5.7092,8.935,8.5952h0Z" fill="#231f20" stroke-width="0"/><path d="M122.2484,145.0038c-1.1897-1.0096-2.3687-2.0307-3.5313-3.0696-.068-.0608-.0746-.1647-.0152-.2335,2.3394-2.7097,4.7184-5.384,7.1964-7.9696,7.2414-7.9209,14.0242-16.2543,21.5548-23.9147-2.0458,2.7097-4.67,5.4857-6.952,8.1802-4.6978,5.3978-9.7594,10.4688-14.4149,15.9028-2.2965,2.7454-4.6921,5.402-7.1271,8.0233l-.0112-.2379c1.0513,1.0841,2.4452,2.2398,3.3005,3.319h0Z" fill="#231f20" stroke-width="0"/><path d="M147.5429,112.1666c-5.1711-4.345-9.8067-9.2539-14.7417-13.8481-5.0069-4.5173-9.9667-9.0845-14.7406-13.8493-.0676-.0613-.0697-.1701-.0018-.2323,1.0091-.9093,2.0123-1.9129,3.0508-2.7495-.869,1.0187-1.8905,1.9928-2.8259,2.98,0,0-.0018-.2321-.0018-.2321,5.023,4.5013,9.8592,9.1992,14.6483,13.9468,4.7913,4.6712,10.2291,9.0958,14.6127,13.9845h0Z" fill="#231f20" stroke-width="0"/><path d="M120.9367,81.1674c4.7608,3.9199,8.8675,8.5246,13.4562,12.626,4.5777,4.1115,9.0515,8.3323,13.3022,12.7881.0215.0206-.0118.0575-.0344.0363-4.6688-4.0156-9.1144-8.2661-13.4562-12.6259-4.2619-4.3699-9.3502-8.3054-13.2677-12.8244h0Z" fill="#231f20" stroke-width="0"/><path d="M147.4528,116.0373c-3.9922,5.0125-8.6817,9.3841-12.8586,14.228-4.1873,4.8331-8.4859,9.5645-13.0236,14.0772-.0202.0219-.0578-.0107-.0369-.0337,4.0897-4.9224,8.4185-9.626,12.8585-14.2281,4.4517-4.5221,8.4533-9.8628,13.0605-14.0433h0Z" fill="#231f20" stroke-width="0"/><path d="M130.5685,139.5977c2.4851-3.3254,5.6623-6.0044,8.3311-9.1601,2.6935-3.125,5.4738-6.2613,8.5306-9.007-2.5179,3.2585-5.4158,6.2682-8.3297,9.193-2.9406,2.8336-5.4368,6.4812-8.532,8.9742h0Z" fill="#231f20" stroke-width="0"/><path d="M126.7987,143.6682c.0345-.4516.3179-.6417.6633-.7986.3514-.486.4895-1.1019,1.2151-1.2294.0201-.0052.0403.0133.0366.0339-.072.7335-.6749.9178-1.1329,1.3056-.1298.3561-.298.6538-.7454.7225-.0201.0044-.0394-.0136-.0366-.034h0Z" fill="#231f20" stroke-width="0"/><path d="M143.3353,142.69c.4387-.8859,1.1316-1.523,1.8826-2.1173,1.0305-1.1866,1.8643-2.6546,3.283-3.4201-.7,1.4772-2.047,2.4099-3.1641,3.5301-.5265.7334-1.1873,1.7151-2.0015,2.0073h0Z" fill="#231f20" stroke-width="0"/></g><polygon points="305.0619 145.0548 316.6895 149.599 311.8084 150.2156 332.8852 153.2226 332.8857 147.74 327.7152 148.3713 315.8447 143.7303 305.0619 145.0548" fill="#221f20" stroke-width="0"/><polygon points="332.8857 147.74 332.8852 153.2226 311.8084 150.2156 316.6895 149.599 305.0619 145.0548 315.8447 143.7303 327.7152 148.3713 332.8857 147.74" fill="none" stroke="#fff" stroke-linecap="round" stroke-linejoin="round" stroke-width="4"/><polygon points="305.0619 145.0548 316.6895 149.599 311.8084 150.2156 332.8852 153.2226 332.8857 147.74 327.7152 148.3713 315.8447 143.7303 305.0619 145.0548" fill="#221f20" stroke-width="0"/><polygon points="316.6981 138.9153 319.6393 78.9142 319.1246 78.473 303.4032 79.5569 302.8743 80.0907 300.5213 141.1212 301.1831 141.5624 316.2569 139.6506 316.6981 138.9153" fill="none" stroke="#231f20" stroke-linecap="round" stroke-linejoin="round" stroke-width=".5"/><polyline points="313.8799 77.3803 298.1444 78.1892 297.6296 78.998 295.2767 138.851" fill="none" stroke="#231f20" stroke-linecap="round" stroke-linejoin="round" stroke-width=".5"/><polyline points="12.3579 71.775 12.1051 73.0486 8.7544 73.093 8.2674 73.8855 5.5548 73.9366 3.4991 42.0079 4.1431 41.4563 6.3772 41.4002 6.4666 42.089 9.777 42.0294 9.8313 41.3681 10.2573 41.3253 10.6782 42.004" fill="none" stroke="#231f20" stroke-linecap="round" stroke-linejoin="round" stroke-width=".5"/><ellipse cx="7.5054" cy="49.4855" rx="1.5474" ry="1.9248" transform="translate(-42.0567 56.4677) rotate(-89.3947)" fill="none" stroke="#231f20" stroke-linecap="round" stroke-linejoin="round" stroke-width=".5"/><ellipse cx="8.6932" cy="66.1701" rx="2.0259" ry="2.2657" transform="translate(-57.565 74.1638) rotate(-89.3947)" fill="none" stroke="#231f20" stroke-linecap="round" stroke-linejoin="round" stroke-width=".5"/><path d="M102.4496,145.9143l-.8874.0732c-.1664.0137-.3026-.1124-.3027-.2803l-.0002-.8974c0-.1679.1361-.3165.3025-.3302l.8874-.0732c.1664-.0137.3026.1124.3027.2803l.0002.8974c0,.1679-.1361.3165-.3025.3302Z" fill="#231f20" stroke-width="0"/><path d="M82.882,147.9811l-.8874.0732c-.1664.0137-.3026-.1124-.3027-.2803l-.0002-.8974c0-.1679.1361-.3165.3025-.3302l.8874-.0732c.1664-.0137.3026.1124.3027.2803l.0002.8974c0,.1679-.1361.3165-.3025.3302Z" fill="#231f20" stroke-width="0"/><path d="M61.1784,150.2828l-.8874.0732c-.1664.0137-.3026-.1124-.3027-.2803l-.0002-.8974c0-.1679.1361-.3165.3025-.3302l.8874-.0732c.1664-.0137.3026.1124.3027.2803l.0002.8974c0,.1679-.1361.3165-.3025.3302Z" fill="#231f20" stroke-width="0"/><path d="M266.6253,122.263l-.8874.0732c-.1664.0137-.3026-.1124-.3027-.2803l-.0002-.8974c0-.1679.1361-.3165.3025-.3302l.8874-.0732c.1664-.0137.3026.1124.3027.2803l.0002.8974c0,.1679-.1361.3165-.3025.3302Z" fill="#231f20" stroke-width="0"/><path d="M209.1195,127.1404l-.8874.0732c-.1664.0137-.3026-.1124-.3027-.2803l-.0002-.8974c0-.1679.1361-.3165.3025-.3302l.8874-.0732c.1664-.0137.3026.1124.3027.2803l.0002.8974c0,.1679-.1361.3165-.3025.3302Z" fill="#231f20" stroke-width="0"/><path d="M340.1733,120.8165l-.8874.0732c-.1664.0137-.3026-.1124-.3027-.2803l-.0002-.8974c0-.1679.1361-.3165.3025-.3302l.8874-.0732c.1664-.0137.3026.1124.3027.2803l.0002.8974c0,.1679-.1361.3165-.3025.3302Z" fill="#231f20" stroke-width="0"/><path d="M114.8027,91.6885l.1153,3.4576,3.7059-.1976-.2162-6.5333-3.7059.1976.0086.2604s.2408.0091.2408.2608l.0093,2.191-.1579.3636Z" fill="#231f20" stroke-width="0"/><ellipse cx="116.7328" cy="93.5674" rx=".8515" ry=".832" transform="translate(-20.4175 153.3269) rotate(-62.2578)" fill="#fff" stroke-width="0"/><path d="M117.7578,89.7201l-.0063-.1898-.2474.0132c-.035-.0728-.0957-.1287-.1695-.1595l-.0084-.2552-.1875.01.0073.221-.2687.0143-.0073-.221-.1875.01.0073.221-.2653.0141-.0073-.221-.1875.01.0073.221-.262.014-.0073-.221-.1875.01.0082.2483c-.0767.0378-.1366.1042-.1682.1844l-.2474.0132.0063.1898.2183-.0116.0089.2685-.2183.0116.0063.1898.2183-.0116.0089.2686-.2183.0116.0063.1898.2183-.0116.0089.2685-.2183.0116.0063.1898.2497-.0133c.0359.0723.0963.1284.1706.1583l.0084.2529.1875-.01-.0073-.221.2687-.0143.0073.221.1875-.01-.0073-.221.2653-.0141.0073.221.1875-.01-.0073-.221.262-.014.0073.221.1875-.01-.0083-.2507c.0737-.0375.1312-.1012.1627-.1783l.2497-.0133-.0063-.1898-.2183.0116-.0089-.2685.2183-.0116-.0063-.1898-.2183.0116-.0089-.2686.2183-.0116-.0063-.1898-.2183.0116-.0089-.2685.2183-.0116ZM116.5538,90.7907l-.1517.0081-.3951-.5882.0201.6082-.1362.0073-.0274-.8273.1508-.008.3934.5895-.0176-.6095.1362-.0073.0274.8273ZM117.0624,90.7635l-.1595.0085-.2993-.8128.1487-.0079.2263.6438.1904-.666.1452-.0077-.2518.8422Z" fill="#fff" stroke="#231f20" stroke-miterlimit="10" stroke-width=".0204"/><polygon points="134.289 142.3871 129.5166 142.9739 129.5051 140.4875 134.2775 140.0199 134.289 142.3871" fill="#231f20" stroke-width="0"/><path d="M130.818,142.3451c-.0422.0041-.0764-.0059-.1028-.0297-.0264-.0241-.0395-.0572-.0397-.0997-.0002-.0411.0126-.0767.0387-.1074.0261-.0304.0602-.0476.1024-.0518.0421-.0041.076.0065.1017.0318.0257.0256.0387.0587.0389.0998.0002.0426-.0125.0781-.0379.1073-.0254.0289-.0592.0455-.1013.0497ZM130.7811,141.8331c-.0001-.0227-.0032-.0604-.0091-.1135-.006-.0533-.0123-.1104-.019-.1716-.0067-.0609-.013-.1202-.019-.1772s-.0098-.1015-.0113-.1332c-.0041-.0635-.0085-.1209-.0132-.173s-.0071-.0927-.0073-.1219c-.0002-.0531.0101-.0918.0312-.1163.0209-.0248.0462-.0386.0755-.0415.0306-.003.0562.0058.0768.0265.0205.0204.0309.0572.0311.1102.0001.0292-.0012.0699-.0042.1219-.0029.0522-.0069.1111-.0116.1766-.0011.0319-.0044.0771-.0099.1352s-.0113.1186-.0173.1808c-.0061.0625-.0116.1206-.0165.1751-.0048.0541-.0072.0924-.0071.1151l-.069.0068Z" fill="#fff" stroke="#fff" stroke-miterlimit="10" stroke-width=".0503"/><path d="M133.3124,142.0246l-.8459.0876c-.1586.0164-.2885-.1011-.2885-.2611l-.0002-.8554c0-.16.1297-.3044.2884-.3208l.8459-.0876c.1586-.0164.2885.1011.2885.2611l.0002.8554c0,.16-.1297.3044-.2884.3208Z" fill="#fff" stroke-width="0"/><polyline points="185.1592 127.4276 185.2944 131.7589 176.4231 132.6781 176.347 128.2481" fill="none" stroke="#231f20" stroke-linecap="round" stroke-linejoin="round" stroke-width=".392"/><line x1="175.8392" y1="131.8993" x2="175.7629" y2="128.2891" fill="none" stroke="#231f20" stroke-linecap="round" stroke-linejoin="round" stroke-width=".392"/><line x1="176.3734" y1="132.6377" x2="175.85" y2="131.917" fill="none" stroke="#231f20" stroke-linecap="round" stroke-linejoin="round" stroke-width=".392"/><polyline points="205.2178 123.7354 205.3537 129.5011 196.5813 130.4156 196.5737 126.3199" fill="none" stroke="#231f20" stroke-linecap="round" stroke-linejoin="round" stroke-width=".392"/><line x1="196.0044" y1="129.766" x2="195.9994" y2="126.3199" fill="none" stroke="#231f20" stroke-linecap="round" stroke-linejoin="round" stroke-width=".392"/><line x1="196.5813" y1="130.3814" x2="196.0044" y2="129.6934" fill="none" stroke="#231f20" stroke-linecap="round" stroke-linejoin="round" stroke-width=".392"/><polyline points="195.1819 126.361 195.3178 130.6065 186.5454 131.5209 186.4894 127.2635" fill="none" stroke="#231f20" stroke-linecap="round" stroke-linejoin="round" stroke-width=".392"/><line x1="185.9684" y1="130.8737" x2="185.9122" y2="127.3045" fill="none" stroke="#231f20" stroke-linecap="round" stroke-linejoin="round" stroke-width=".392"/><line x1="186.5454" y1="131.407" x2="185.9684" y2="130.7988" fill="none" stroke="#231f20" stroke-linecap="round" stroke-linejoin="round" stroke-width=".392"/><polyline points="175.0503 128.3291 175.1375 132.8559 166.2662 133.7752 166.3037 131.1621" fill="none" stroke="#231f20" stroke-linecap="round" stroke-linejoin="round" stroke-width=".392"/><line x1="165.6824" y1="133.1711" x2="165.7641" y2="131.0788" fill="none" stroke="#231f20" stroke-linecap="round" stroke-linejoin="round" stroke-width=".392"/><line x1="166.2165" y1="133.6634" x2="165.6327" y2="133.13" fill="none" stroke="#231f20" stroke-linecap="round" stroke-linejoin="round" stroke-width=".392"/><path d="M181.1763,134.0739c.0343-.4036.3853-.7557.784-.7865s.694.2714.6597.6749-.3853.7557-.784.7865-.694-.2714-.6597-.6749Z" fill="#231f20" stroke-width="0"/><path d="M178.6893,134.2661c.0343-.4036.3853-.7557.784-.7865s.694.2714.6597.6749-.3853.7557-.784.7865-.694-.2714-.6597-.6749Z" fill="#231f20" stroke-width="0"/><path d="M171.3601,135.1693c.0343-.4036.3853-.7557.784-.7865s.694.2714.6597.6749-.3853.7557-.784.7865-.694-.2714-.6597-.6749Z" fill="#231f20" stroke-width="0"/><path d="M168.873,135.3616c.0343-.4036.3853-.7557.784-.7865s.694.2714.6597.6749-.3853.7557-.784.7865-.694-.2714-.6597-.6749Z" fill="#231f20" stroke-width="0"/><path d="M191.2856,132.9558c.0343-.4036.3853-.7557.784-.7865s.694.2714.6597.6749-.3853.7557-.784.7865-.694-.2714-.6597-.6749Z" fill="#231f20" stroke-width="0"/><path d="M188.7985,133.1481c.0343-.4036.3853-.7557.784-.7865s.694.2714.6597.6749-.3853.7557-.784.7865-.694-.2714-.6597-.6749Z" fill="#231f20" stroke-width="0"/><path d="M200.8958,131.8764c.0343-.4036.3853-.7557.784-.7865s.694.2714.6597.6749-.3853.7557-.784.7865-.694-.2714-.6597-.6749Z" fill="#231f20" stroke-width="0"/><path d="M198.4087,132.0686c.0343-.4036.3853-.7557.784-.7865s.694.2714.6597.6749-.3853.7557-.784.7865-.694-.2714-.6597-.6749Z" fill="#231f20" stroke-width="0"/><polygon points="331.8707 95.9509 327.0415 96.3114 327.4867 87.0415 332.3293 86.7449 331.8707 95.9509" fill="none" stroke="#231f20" stroke-linecap="round" stroke-linejoin="round" stroke-width=".5"/><polyline points="327.0458 96.2539 326.1568 95.7427 326.602 86.4727 331.4446 86.1761 332.3352 86.7239" fill="none" stroke="#231f20" stroke-linecap="round" stroke-linejoin="round" stroke-width=".5"/><line x1="327.4867" y1="87.0415" x2="326.602" y2="86.4727" fill="none" stroke="#231f20" stroke-linecap="round" stroke-linejoin="round" stroke-width=".5"/><polyline points="330.4368 109.6788 326.6894 110.1488 327.1346 97.8023 331.9772 97.5057 331.5375 109.0991" fill="none" stroke="#231f20" stroke-linecap="round" stroke-linejoin="round" stroke-width=".5"/><polyline points="326.6937 110.1483 325.8048 109.6371 326.25 97.2335 331.0926 96.9369 331.9831 97.4846" fill="none" stroke="#231f20" stroke-linecap="round" stroke-linejoin="round" stroke-width=".5"/><line x1="327.1346" y1="97.8023" x2="326.25" y2="97.2335" fill="none" stroke="#231f20" stroke-linecap="round" stroke-linejoin="round" stroke-width=".5"/><ellipse cx="324.4808" cy="92.9996" rx=".7962" ry=".7352" transform="translate(215.1166 412.3366) rotate(-87.0879)" fill="#231f20" stroke-width="0"/><ellipse cx="324.6201" cy="90.2597" rx=".7962" ry=".7352" transform="translate(217.9852 409.8751) rotate(-87.0879)" fill="#231f20" stroke-width="0"/><ellipse cx="324.2276" cy="105.4055" rx=".7962" ry=".7352" transform="translate(202.4863 423.8594) rotate(-87.0879)" fill="#231f20" stroke-width="0"/><ellipse cx="324.367" cy="102.6656" rx=".7962" ry=".7352" transform="translate(205.3549 421.398) rotate(-87.0879)" fill="#231f20" stroke-width="0"/><path d="M341.4018,101.2383s1.6445-14.3231-16.1517-19.7609" fill="none" stroke="#fff" stroke-linecap="round" stroke-linejoin="round" stroke-width="9"/><path d="M341.5791,98.4115c-1.0113-5.2256-4.6528-13.644-17.3705-17.4705" fill="none" stroke="#000" stroke-dasharray="0 0 2 3" stroke-linecap="round" stroke-linejoin="round" stroke-width="1.25"/><polygon points="344.4999 97.2058 341.929 102.883 338.2972 97.8184 344.4999 97.2058" fill="#000" stroke-width="0"/></g><g id="c"><g clip-path="url(#d)"><circle cx="380.1622" cy="53.6378" r="40.2504" fill="#fff" stroke="#231f20" stroke-miterlimit="10"/><path d="M376.3229,92.4573l.9233-24.5516-2.0005-.3078v-2.4621l3.0776.4616v-6.3091h-2.616v-6.3091l-2.4621-4.4626.1539-10.0023h2.0005l.4616-7.6941,6.7708.1539,10.1562.3078-.4616,18.3119,4.6165.1539.9233,1.2311.3078,5.8475-5.8475,8.4635-.1539,3.0776-5.0781.7694-.7694,21.9356s-7.3863,1.2311-10.0023,1.3849Z" fill="#d0cfce" stroke-width="0"/><polyline points="392.3165 49.7005 392.714 31.1507 382.9091 31.1507 375.8867 30.7532 375.8867 38.8356 373.5018 38.7031 373.2368 48.508 375.7542 53.1454 375.6217 59.2404 378.4042 59.5054 378.5367 50.893 380.5242 51.158 380.4288 68.4725 382.2467 68.7746 382.2467 65.0703 388.0766 57.3854 388.2091 51.423 387.1491 49.9655 385.1616 55.6629 382.2467 57.6504 382.9091 31.1507" fill="none" stroke="#231f20" stroke-linecap="round" stroke-linejoin="round" stroke-width=".5"/><polyline points="387.1491 49.9655 397.0865 49.833 398.1465 51.2905 398.279 56.3254 392.184 64.8053 392.184 68.6478 382.3239 68.7725" fill="none" stroke="#231f20" stroke-linecap="round" stroke-linejoin="round" stroke-width=".5"/><line x1="382.2467" y1="65.0703" x2="391.9629" y2="64.9739" fill="none" stroke="#231f20" stroke-linecap="round" stroke-linejoin="round" stroke-width=".5"/><line x1="380.4884" y1="56.5659" x2="378.6592" y2="56.3627" fill="none" stroke="#231f20" stroke-linecap="round" stroke-linejoin="round" stroke-width=".5"/><polyline points="378.4042 59.5054 378.4042 65.4209 375.361 65.0097 375.361 67.4313 376.1834 67.5683" fill="none" stroke="#231f20" stroke-linecap="round" stroke-linejoin="round" stroke-width=".5"/><line x1="386.3139" y1="102.6375" x2="387.2836" y2="68.7182" fill="none" stroke="#231f20" stroke-linecap="round" stroke-linejoin="round" stroke-width=".5"/><polyline points="380.2296 68.4029 377.5327 67.8584 376.673 103.9373" fill="none" stroke="#231f20" stroke-linecap="round" stroke-linejoin="round" stroke-width=".5"/><polygon points="384.229 34.99 391.5977 34.99 387.9133 42.7681 384.229 34.99" fill="#231f20" stroke-width="0"/><path d="M380.265,30.6178s.0912-1.3673-4.6489-1.2762c-3.284.0632-27.0011.1263-41.2623.1591" fill="none" stroke="#231f20" stroke-miterlimit="10" stroke-width=".5"/><path d="M352.2938,32.0616c2.8117,2.197,5.0846,4.8801,7.2676,7.6585,3.9835,4.2158,8.8667,8.1464,11.8207,13.0356-4.6376-3.6891-8.1626-8.4168-12.058-12.8151-2.4951-2.3875-5.4255-4.9245-7.0303-7.879h0Z" fill="#231f20" stroke-width="0"/><path d="M341.5538,39.3846c3.5865,3.0721,6.6452,6.6183,9.6021,10.2677,5.2817,5.6636,11.4613,11.0461,15.7103,17.3828-5.936-5.1444-10.7615-11.3144-15.9486-17.1634-3.2753-3.2581-6.982-6.666-9.3638-10.487h0Z" fill="#231f20" stroke-width="0"/><path d="M350.0988,31.6394c-.6084,1.6185-1.7609,2.7582-3.026,3.8245-1.0535,1.2367-1.7187,2.795-2.8265,3.9899-.7269.8047-1.5075,1.5649-2.4467,2.1936l-.077-.0638c1.0355-2.6434,3.2502-4.3188,5.1009-6.3264.8135-1.4403,1.7207-2.7845,3.1984-3.6815,0,0,.0769.0638.0769.0638h0Z" fill="#231f20" stroke-width="0"/><path d="M366.4518,31.8851c-3.6642,4.9024-7.8855,9.2922-12.1842,13.6211-4.0848,4.5163-7.8286,9.3439-11.9931,13.7941,0,0-.0044-.7132-.0044-.7132,2.6069,2.8879,5.1664,5.8149,7.5829,8.8684,0,0-.0733.0681-.0733.0681-2.9821-2.7458-5.8246-5.6291-8.6121-8.5676,2.128-2.4013,4.334-4.7325,6.5481-7.0556,2.1214-2.1881,4.302-4.3225,6.3147-6.609,3.904-4.5906,7.8752-9.658,12.4215-13.4062h0Z" fill="#231f20" stroke-width="0"/><path d="M350.9999,67.3336c2.2264-3.2532,4.9802-6.0081,7.8354-8.6802,4.3191-4.7643,8.28-10.4058,13.3524-14.1971-3.7425,5.3768-8.6074,9.7252-13.1141,14.4164-2.4425,2.9522-4.9957,6.3527-8.0738,8.4609h0Z" fill="#231f20" stroke-width="0"/><polygon points="335.0917 74.0487 335.0917 85.3374 335.0917 89.6861 366.0618 88.4676 366.0618 72.8302 335.0917 74.0487" fill="none" stroke="#231f20" stroke-miterlimit="10" stroke-width=".5"/><polygon points="361.7474 84.3407 337.5541 85.1562 337.5541 81.5317 361.7474 80.9881 361.7474 84.3407" fill="none" stroke="#231f20" stroke-miterlimit="10" stroke-width=".5"/><line x1="337.3729" y1="81.4411" x2="335.2888" y2="80.1726" fill="none" stroke="#231f20" stroke-miterlimit="10" stroke-width=".5"/><line x1="337.3729" y1="85.0656" x2="335.2888" y2="83.797" fill="none" stroke="#231f20" stroke-miterlimit="10" stroke-width=".5"/><line x1="361.4755" y1="80.7162" x2="347.2258" y2="73.6652" fill="none" stroke="#231f20" stroke-miterlimit="10" stroke-width=".5"/><line x1="340.3949" y1="23.9013" x2="410.6769" y2="24.3945" fill="none" stroke="#231f20" stroke-miterlimit="10" stroke-width=".5"/><line x1="341.6902" y1="18.1162" x2="402.9681" y2="18.5462" fill="none" stroke="#231f20" stroke-miterlimit="10" stroke-width=".5"/><line x1="403.4736" y1="94.8259" x2="405.78" y2="28.7091" fill="none" stroke="#231f20" stroke-miterlimit="10" stroke-width=".5"/><line x1="413.7179" y1="27.4532" x2="340.393" y2="27.3537" fill="none" stroke="#231f20" stroke-miterlimit="10" stroke-width=".5"/><polyline points="369.1529 31.7778 341.8137 31.9931 341.8137 67.943 369.2706 67.0472" fill="none" stroke-width="0"/></g><circle cx="380.1622" cy="53.6378" r="40.2504" fill="none" stroke="#fff" stroke-miterlimit="10" stroke-width="4"/><circle cx="380.1622" cy="53.6378" r="40.2504" fill="none" stroke="#231f20" stroke-miterlimit="10"/><polygon points="384.7855 28.2327 374.945 18.8838 379.9583 18.9176 380.1673 1.4446 390.0474 1.5284 389.8384 19.0027 394.8504 19.0469 384.7855 28.2327" fill="#2c2a26" stroke="#fff" stroke-linecap="round" stroke-linejoin="round"/><path d="M368.2394,17.5665c0,7.593-6.2455,13.7452-13.9499,13.7452s-13.9526-6.1522-13.9526-13.7452,6.2455-13.7547,13.9526-13.7547,13.9499,6.159,13.9499,13.7547" fill="#211f1f" stroke="#fff" stroke-miterlimit="10" stroke-width="1.5"/><path d="M355.8867,24.6079h-1.8457v-11.7612c-.4443.4238-1.0273.8477-1.749,1.2715-.7207.4238-1.3682.7417-1.9424.9536v-1.7842c1.0322-.4854,1.9346-1.0732,2.707-1.7637s1.3193-1.3604,1.6406-2.0098h1.1895v15.0938Z" fill="#fff" stroke-width="0"/></g></svg>