<?xml version="1.0" encoding="UTF-8"?><svg xmlns="http://www.w3.org/2000/svg" width="4.125in" height="3.634in" xmlns:xlink="http://www.w3.org/1999/xlink" viewBox="0 0 297 261.676"><defs><clipPath id="c"><rect x="2.299" y="26.816" width="284.113" height="225.397" fill="none"/></clipPath><clipPath id="g"><rect x="2.299" y="26.816" width="284.113" height="225.397" fill="none"/></clipPath></defs><g id="a"><g clip-path="url(#c)"><polyline points="287.526 208.007 117.44 208.007 117.44 39.94 287.526 39.94" fill="#e6e6e6"/><rect x="119.807" y="47.194" width="168.037" height="154.088" fill="#231f20"/><path d="M91.451,88.25c-3.383,0-6.137-2.754-6.137-6.137s2.754-6.137,6.137-6.137h7.396c3.383,0,6.137,2.754,6.137,6.137s-2.754,6.137-6.137,6.137h-7.396Z" fill="#ddd" fill-rule="evenodd"/><path d="M106.008,208.007h11.094V43.086h-4.485v-.944c0-.787-.629-1.495-1.416-1.495h-3.698c-.866,0-1.495.708-1.495,1.495v4.17h-16.681v-4.17c0-.787-.708-1.495-1.495-1.495h-7.396c-.629,0-1.18.551-1.18,1.259v164.843c0,.708.551,1.259,1.18,1.259h8.891v-3.698h16.681v3.698Z" fill="#e6e6e6"/><path d="M108.919,167.879c0,6.767-5.508,12.275-12.275,12.275s-12.275-5.508-12.275-12.275,5.508-12.275,12.275-12.275,12.275,5.508,12.275,12.275Z" fill="#fff"/><path d="M91.451,88.25c-3.383,0-6.137-2.754-6.137-6.137s2.754-6.137,6.137-6.137h7.396c3.383,0,6.137,2.754,6.137,6.137s-2.754,6.137-6.137,6.137h-7.396Z" fill="#fff"/><path d="M93.812,64.173c0-2.282,1.967-4.249,4.328-4.249s4.249,1.967,4.249,4.249c0,2.361-1.888,4.328-4.249,4.328s-4.328-1.967-4.328-4.328Z" fill="#231f20"/><path d="M93.812,191.09c0-2.361,1.967-4.249,4.328-4.249s4.249,1.888,4.249,4.249-1.888,4.249-4.249,4.249-4.328-1.888-4.328-4.249Z" fill="#231f20"/><path d="M96.015,91.162v.079c-.079,0-.079-.079-.079-.079" fill="none" stroke="#8c8c8c" stroke-linecap="round" stroke-linejoin="round"/><path d="M87.753,91.162q0,.079-.079.079v-.079" fill="none" stroke="#8c8c8c" stroke-linecap="round" stroke-linejoin="round"/><path d="M87.36,148.601h25.966c.315,0,.629-.315.629-.708v-17.783c0-.315-.315-.629-.629-.629h-25.966c-.393,0-.629.315-.629.629v17.783c0,.393.236.708.629.708" fill="#747474" fill-rule="evenodd"/><path d="M87.36,148.601h25.966c.315,0,.629-.315.629-.708v-17.783c0-.315-.315-.629-.629-.629h-25.966c-.393,0-.629.315-.629.629v17.783c0,.393.236.708.629.708Z" fill="none" stroke="#272626" stroke-linecap="round" stroke-linejoin="round"/><path d="M115.686,127.75v-35.408c0-.551-.472-.866-1.102-.866h-28.011c-.629,0-1.102.315-1.102.866v35.408c0,.472.472.865,1.102.865h28.011c.629,0,1.102-.393,1.102-.865" fill="#4e4f4f" fill-rule="evenodd"/><path d="M115.686,127.75v-35.408c0-.551-.472-.866-1.102-.866h-28.011c-.629,0-1.102.315-1.102.866v35.408c0,.472.472.865,1.102.865h28.011c.629,0,1.102-.393,1.102-.865Z" fill="none" stroke="#606060" stroke-linecap="round" stroke-linejoin="round"/><path d="M104.67,95.585c-.551-1.652-2.361-2.518-4.013-1.967s-2.597,2.439-1.967,4.092c.551,1.652,2.361,2.518,4.013,1.967,1.416-.472,2.282-1.81,2.124-3.226,0-.315,0-.551-.157-.866M99.477,97.867l1.574-1.81.944,2.675,2.124-2.439c.236,1.338-.708,2.597-2.124,2.833-1.023.157-1.967-.393-2.518-1.259ZM103.883,95.506l-1.574,1.731-.944-2.675-2.124,2.439c-.236-1.338.708-2.597,2.046-2.833,1.102-.157,2.046.393,2.597,1.338ZM101.916,105.42c0-.315-.236-.629-.629-.629-.315.079-.629.315-.629.629v.079l.315,3.934c0,.157.236.315.393.236.157,0,.236-.079.315-.236l.236-4.013ZM101.995,110.692c0-.393-.315-.629-.708-.629-.315,0-.629.236-.629.629s.315.708.629.708c.393,0,.708-.315.708-.708ZM104.906,119.584c0-1.81-1.495-3.226-3.226-3.226-1.81,0-3.226,1.416-3.226,3.226s1.416,3.226,3.226,3.226c1.731,0,3.226-1.416,3.226-3.226ZM104.513,119.584c0,1.574-1.259,2.911-2.833,2.911-1.652,0-2.911-1.338-2.911-2.911s1.259-2.833,2.911-2.833c1.574,0,2.833,1.259,2.833,2.833ZM100.5,119.505l1.023,1.967c0,.079.157.157.236.079v-.079l1.023-1.967c.393-.629.157-1.416-.551-1.731-.629-.393-1.416-.157-1.731.551-.236.393-.236.787,0,1.18ZM102.231,118.875c0,.393-.236.629-.551.629s-.629-.236-.629-.629c0-.315.315-.551.629-.551s.551.236.551.551Z" fill="#fff" fill-rule="evenodd"/><path d="M95.15,96.765c0-1.731-1.416-3.147-3.147-3.147-1.81,0-3.226,1.416-3.226,3.147,0,1.81,1.416,3.226,3.226,3.226,1.731,0,3.147-1.416,3.147-3.226Z" fill="#231f20"/><path d="M95.15,107.938c0-1.731-1.416-3.226-3.147-3.226-1.81,0-3.226,1.495-3.226,3.226s1.416,3.226,3.226,3.226c1.731,0,3.147-1.495,3.147-3.226Z" fill="#231f20"/><path d="M95.15,119.111c0-1.731-1.416-3.226-3.147-3.226-1.81,0-3.226,1.495-3.226,3.226s1.416,3.147,3.226,3.147c1.731,0,3.147-1.416,3.147-3.147Z" fill="#231f20"/><line x1="90.429" y1="138.765" x2="90.35" y2="138.765" fill="none" stroke="#333" stroke-linecap="round" stroke-linejoin="round" stroke-width=".079"/><line x1="100.504" y1="148.022" x2="100.504" y2="129.857" fill="none" stroke="#4e4f4f" stroke-miterlimit="10" stroke-width=".472"/><path d="M91.107,137.579l-.799.799-.768-.799v-3.549l.768-.783.799.783v3.549ZM91.107,142.941l-.799.783-.768-.783v-3.549l.768-.799.799.799v3.549ZM95.685,133.123l-.783.799h-3.672l-.815-.799.799-.783h3.687l.783.783ZM95.685,143.847l-.783.783h-3.672l-.815-.783.799-.799h3.687l.783.799ZM96.591,137.579l-.799.799-.783-.799v-3.549l.783-.783.799.783v3.549ZM96.591,142.941l-.799.783-.783-.783v-3.549l.783-.799.799.799v3.549Z" fill="#99ca3c"/><path d="M105.553,137.579l-.799.799-.768-.799v-3.549l.768-.783.799.783v3.549ZM105.553,142.941l-.799.783-.768-.783v-3.549l.768-.799.799.799v3.549ZM110.131,133.123l-.783.799h-3.672l-.815-.799.799-.783h3.687l.783.783ZM110.131,143.847l-.783.783h-3.672l-.815-.783.799-.799h3.687l.783.799ZM111.037,137.579l-.799.799-.783-.799v-3.549l.783-.783.799.783v3.549ZM111.037,142.941l-.799.783-.783-.783v-3.549l.783-.799.799.799v3.549Z" fill="#99ca3c"/><path d="M109.499,97.604c0-.944.708-1.731,1.731-1.731.944,0,1.652.787,1.652,1.731s-.708,1.731-1.652,1.731c-1.023,0-1.731-.787-1.731-1.731Z" fill="#e6e6e6"/><rect x="125.71" y="50.399" width="28.363" height="148.297" rx=".72" ry=".72" fill="#497dc0" stroke="#231f20" stroke-miterlimit="10"/><path d="M132.375,91.451l-3.308,3.308c-.457.457-.251.77,0,1.654l3.308,12.17c.457.457,1.197.457,1.654,0l3.308-12.17c.233-.62.327-1.292,0-1.654l-3.308-3.308c-.457-.457-1.197-.457-1.654,0Z" fill="#231f20" stroke="#231f20" stroke-linecap="round" stroke-linejoin="round"/><path d="M145.813,91.451l-3.308,3.308c-.457.457-.251.77,0,1.654l3.308,12.17c.457.457,1.197.457,1.654,0l3.308-12.17c.233-.62.327-1.292,0-1.654l-3.308-3.308c-.457-.457-1.197-.457-1.654,0Z" fill="#231f20" stroke="#231f20" stroke-linecap="round" stroke-linejoin="round"/><path d="M140.689,119.987l3.308-3.308c.457-.457.251-.77,0-1.654l-3.308-12.17c-.457-.457-1.197-.457-1.654,0l-3.308,12.17c-.233.62-.327,1.292,0,1.654l3.308,3.308c.457.457,1.197.457,1.654,0Z" fill="#231f20" stroke="#231f20" stroke-linecap="round" stroke-linejoin="round"/><path d="M132.375,122.77l-3.308,3.308c-.457.457-.251.77,0,1.654l3.308,12.17c.457.457,1.197.457,1.654,0l3.308-12.17c.233-.62.327-1.292,0-1.654l-3.308-3.308c-.457-.457-1.197-.457-1.654,0Z" fill="#231f20" stroke="#231f20" stroke-linecap="round" stroke-linejoin="round"/><path d="M145.813,122.77l-3.308,3.308c-.457.457-.251.77,0,1.654l3.308,12.17c.457.457,1.197.457,1.654,0l3.308-12.17c.233-.62.327-1.292,0-1.654l-3.308-3.308c-.457-.457-1.197-.457-1.654,0Z" fill="#231f20" stroke="#231f20" stroke-linecap="round" stroke-linejoin="round"/><path d="M140.689,151.305l3.308-3.308c.457-.457.251-.77,0-1.654l-3.308-12.17c-.457-.457-1.197-.457-1.654,0l-3.308,12.17c-.233.62-.327,1.292,0,1.654l3.308,3.308c.457.457,1.197.457,1.654,0Z" fill="#231f20" stroke="#231f20" stroke-linecap="round" stroke-linejoin="round"/><path d="M132.375,154.088l-3.308,3.308c-.457.457-.251.77,0,1.654l3.308,12.17c.457.457,1.197.457,1.654,0l3.308-12.17c.233-.62.327-1.292,0-1.654l-3.308-3.308c-.457-.457-1.197-.457-1.654,0Z" fill="#231f20" stroke="#231f20" stroke-linecap="round" stroke-linejoin="round"/><path d="M145.813,154.088l-3.308,3.308c-.457.457-.251.77,0,1.654l3.308,12.17c.457.457,1.197.457,1.654,0l3.308-12.17c.233-.62.327-1.292,0-1.654l-3.308-3.308c-.457-.457-1.197-.457-1.654,0Z" fill="#231f20" stroke="#231f20" stroke-linecap="round" stroke-linejoin="round"/><rect x="125.715" y="67.253" width="28.353" height="15.781" rx="2" ry="2" fill="#4e4f4f"/><line x1="127.617" y1="71.762" x2="152.165" y2="71.762" fill="none" stroke="#6d6e71" stroke-linecap="round" stroke-linejoin="round" stroke-width="2"/><rect x="130.308" y="176.11" width="19.166" height="17.604" rx=".72" ry=".72" fill="#4e4f4f"/><rect x="133.073" y="51.889" width="4.745" height="2.782" rx=".72" ry=".72" fill="#4e4f4f"/><rect x="141.964" y="51.889" width="4.745" height="2.782" rx=".72" ry=".72" fill="#4e4f4f"/><line x1="126.155" y1="56.668" x2="153.627" y2="56.668" fill="#497dc0" opacity=".9" stroke="#231f20" stroke-linecap="round" stroke-linejoin="round"/><rect x="161.136" y="50.399" width="28.363" height="148.297" rx=".72" ry=".72" fill="#497dc0" stroke="#231f20" stroke-miterlimit="10"/><path d="M167.801,91.451l-3.308,3.308c-.457.457-.251.77,0,1.654l3.308,12.17c.457.457,1.197.457,1.654,0l3.308-12.17c.233-.62.327-1.292,0-1.654l-3.308-3.308c-.457-.457-1.197-.457-1.654,0Z" fill="#231f20" stroke="#231f20" stroke-linecap="round" stroke-linejoin="round"/><path d="M181.239,91.451l-3.308,3.308c-.457.457-.251.77,0,1.654l3.308,12.17c.457.457,1.197.457,1.654,0l3.308-12.17c.233-.62.327-1.292,0-1.654l-3.308-3.308c-.457-.457-1.197-.457-1.654,0Z" fill="#231f20" stroke="#231f20" stroke-linecap="round" stroke-linejoin="round"/><path d="M176.115,119.987l3.308-3.308c.457-.457.251-.77,0-1.654l-3.308-12.17c-.457-.457-1.197-.457-1.654,0l-3.308,12.17c-.233.62-.327,1.292,0,1.654l3.308,3.308c.457.457,1.197.457,1.654,0Z" fill="#231f20" stroke="#231f20" stroke-linecap="round" stroke-linejoin="round"/><path d="M167.801,122.77l-3.308,3.308c-.457.457-.251.77,0,1.654l3.308,12.17c.457.457,1.197.457,1.654,0l3.308-12.17c.233-.62.327-1.292,0-1.654l-3.308-3.308c-.457-.457-1.197-.457-1.654,0Z" fill="#231f20" stroke="#231f20" stroke-linecap="round" stroke-linejoin="round"/><path d="M181.239,122.77l-3.308,3.308c-.457.457-.251.77,0,1.654l3.308,12.17c.457.457,1.197.457,1.654,0l3.308-12.17c.233-.62.327-1.292,0-1.654l-3.308-3.308c-.457-.457-1.197-.457-1.654,0Z" fill="#231f20" stroke="#231f20" stroke-linecap="round" stroke-linejoin="round"/><path d="M176.115,151.305l3.308-3.308c.457-.457.251-.77,0-1.654l-3.308-12.17c-.457-.457-1.197-.457-1.654,0l-3.308,12.17c-.233.62-.327,1.292,0,1.654l3.308,3.308c.457.457,1.197.457,1.654,0Z" fill="#231f20" stroke="#231f20" stroke-linecap="round" stroke-linejoin="round"/><path d="M167.801,154.088l-3.308,3.308c-.457.457-.251.77,0,1.654l3.308,12.17c.457.457,1.197.457,1.654,0l3.308-12.17c.233-.62.327-1.292,0-1.654l-3.308-3.308c-.457-.457-1.197-.457-1.654,0Z" fill="#231f20" stroke="#231f20" stroke-linecap="round" stroke-linejoin="round"/><path d="M181.239,154.088l-3.308,3.308c-.457.457-.251.77,0,1.654l3.308,12.17c.457.457,1.197.457,1.654,0l3.308-12.17c.233-.62.327-1.292,0-1.654l-3.308-3.308c-.457-.457-1.197-.457-1.654,0Z" fill="#231f20" stroke="#231f20" stroke-linecap="round" stroke-linejoin="round"/><rect x="161.141" y="67.253" width="28.353" height="15.781" rx="2" ry="2" fill="#4e4f4f"/><line x1="163.043" y1="71.762" x2="187.592" y2="71.762" fill="none" stroke="#6d6e71" stroke-linecap="round" stroke-linejoin="round" stroke-width="2"/><rect x="165.734" y="176.11" width="19.166" height="17.604" rx=".72" ry=".72" fill="#4e4f4f"/><rect x="168.5" y="51.889" width="4.745" height="2.782" rx=".72" ry=".72" fill="#4e4f4f"/><rect x="177.39" y="51.889" width="4.745" height="2.782" rx=".72" ry=".72" fill="#4e4f4f"/><line x1="161.582" y1="56.668" x2="189.054" y2="56.668" fill="#497dc0" opacity=".9" stroke="#231f20" stroke-linecap="round" stroke-linejoin="round"/><rect x="196.562" y="50.399" width="28.363" height="148.297" rx=".72" ry=".72" fill="#497dc0" stroke="#231f20" stroke-miterlimit="10"/><path d="M203.228,91.451l-3.308,3.308c-.457.457-.251.77,0,1.654l3.308,12.17c.457.457,1.197.457,1.654,0l3.308-12.17c.233-.62.327-1.292,0-1.654l-3.308-3.308c-.457-.457-1.197-.457-1.654,0Z" fill="#231f20" stroke="#231f20" stroke-linecap="round" stroke-linejoin="round"/><path d="M216.665,91.451l-3.308,3.308c-.457.457-.251.77,0,1.654l3.308,12.17c.457.457,1.197.457,1.654,0l3.308-12.17c.233-.62.327-1.292,0-1.654l-3.308-3.308c-.457-.457-1.197-.457-1.654,0Z" fill="#231f20" stroke="#231f20" stroke-linecap="round" stroke-linejoin="round"/><path d="M211.541,119.987l3.308-3.308c.457-.457.251-.77,0-1.654l-3.308-12.17c-.457-.457-1.197-.457-1.654,0l-3.308,12.17c-.233.62-.327,1.292,0,1.654l3.308,3.308c.457.457,1.197.457,1.654,0Z" fill="#231f20" stroke="#231f20" stroke-linecap="round" stroke-linejoin="round"/><path d="M203.228,122.77l-3.308,3.308c-.457.457-.251.77,0,1.654l3.308,12.17c.457.457,1.197.457,1.654,0l3.308-12.17c.233-.62.327-1.292,0-1.654l-3.308-3.308c-.457-.457-1.197-.457-1.654,0Z" fill="#231f20" stroke="#231f20" stroke-linecap="round" stroke-linejoin="round"/><path d="M216.665,122.77l-3.308,3.308c-.457.457-.251.77,0,1.654l3.308,12.17c.457.457,1.197.457,1.654,0l3.308-12.17c.233-.62.327-1.292,0-1.654l-3.308-3.308c-.457-.457-1.197-.457-1.654,0Z" fill="#231f20" stroke="#231f20" stroke-linecap="round" stroke-linejoin="round"/><path d="M211.541,151.305l3.308-3.308c.457-.457.251-.77,0-1.654l-3.308-12.17c-.457-.457-1.197-.457-1.654,0l-3.308,12.17c-.233.62-.327,1.292,0,1.654l3.308,3.308c.457.457,1.197.457,1.654,0Z" fill="#231f20" stroke="#231f20" stroke-linecap="round" stroke-linejoin="round"/><path d="M203.228,154.088l-3.308,3.308c-.457.457-.251.77,0,1.654l3.308,12.17c.457.457,1.197.457,1.654,0l3.308-12.17c.233-.62.327-1.292,0-1.654l-3.308-3.308c-.457-.457-1.197-.457-1.654,0Z" fill="#231f20" stroke="#231f20" stroke-linecap="round" stroke-linejoin="round"/><path d="M216.665,154.088l-3.308,3.308c-.457.457-.251.77,0,1.654l3.308,12.17c.457.457,1.197.457,1.654,0l3.308-12.17c.233-.62.327-1.292,0-1.654l-3.308-3.308c-.457-.457-1.197-.457-1.654,0Z" fill="#231f20" stroke="#231f20" stroke-linecap="round" stroke-linejoin="round"/><rect x="196.567" y="67.253" width="28.353" height="15.781" rx="2" ry="2" fill="#4e4f4f"/><line x1="198.47" y1="71.762" x2="223.018" y2="71.762" fill="none" stroke="#6d6e71" stroke-linecap="round" stroke-linejoin="round" stroke-width="2"/><rect x="201.161" y="176.11" width="19.166" height="17.604" rx=".72" ry=".72" fill="#4e4f4f"/><rect x="203.926" y="51.889" width="4.745" height="2.782" rx=".72" ry=".72" fill="#4e4f4f"/><rect x="212.817" y="51.889" width="4.745" height="2.782" rx=".72" ry=".72" fill="#4e4f4f"/><line x1="197.008" y1="56.668" x2="224.48" y2="56.668" fill="#497dc0" opacity=".9" stroke="#231f20" stroke-linecap="round" stroke-linejoin="round"/><rect x="231.989" y="50.399" width="28.363" height="148.297" rx=".72" ry=".72" fill="#497dc0" stroke="#231f20" stroke-miterlimit="10"/><path d="M238.654,91.451l-3.308,3.308c-.457.457-.251.77,0,1.654l3.308,12.17c.457.457,1.197.457,1.654,0l3.308-12.17c.233-.62.327-1.292,0-1.654l-3.308-3.308c-.457-.457-1.197-.457-1.654,0Z" fill="#231f20" stroke="#231f20" stroke-linecap="round" stroke-linejoin="round"/><path d="M252.092,91.451l-3.308,3.308c-.457.457-.251.77,0,1.654l3.308,12.17c.457.457,1.197.457,1.654,0l3.308-12.17c.233-.62.327-1.292,0-1.654l-3.308-3.308c-.457-.457-1.197-.457-1.654,0Z" fill="#231f20" stroke="#231f20" stroke-linecap="round" stroke-linejoin="round"/><path d="M246.968,119.987l3.308-3.308c.457-.457.251-.77,0-1.654l-3.308-12.17c-.457-.457-1.197-.457-1.654,0l-3.308,12.17c-.233.62-.327,1.292,0,1.654l3.308,3.308c.457.457,1.197.457,1.654,0Z" fill="#231f20" stroke="#231f20" stroke-linecap="round" stroke-linejoin="round"/><path d="M238.654,122.77l-3.308,3.308c-.457.457-.251.77,0,1.654l3.308,12.17c.457.457,1.197.457,1.654,0l3.308-12.17c.233-.62.327-1.292,0-1.654l-3.308-3.308c-.457-.457-1.197-.457-1.654,0Z" fill="#231f20" stroke="#231f20" stroke-linecap="round" stroke-linejoin="round"/><path d="M252.092,122.77l-3.308,3.308c-.457.457-.251.77,0,1.654l3.308,12.17c.457.457,1.197.457,1.654,0l3.308-12.17c.233-.62.327-1.292,0-1.654l-3.308-3.308c-.457-.457-1.197-.457-1.654,0Z" fill="#231f20" stroke="#231f20" stroke-linecap="round" stroke-linejoin="round"/><path d="M246.968,151.305l3.308-3.308c.457-.457.251-.77,0-1.654l-3.308-12.17c-.457-.457-1.197-.457-1.654,0l-3.308,12.17c-.233.62-.327,1.292,0,1.654l3.308,3.308c.457.457,1.197.457,1.654,0Z" fill="#231f20" stroke="#231f20" stroke-linecap="round" stroke-linejoin="round"/><path d="M238.654,154.088l-3.308,3.308c-.457.457-.251.77,0,1.654l3.308,12.17c.457.457,1.197.457,1.654,0l3.308-12.17c.233-.62.327-1.292,0-1.654l-3.308-3.308c-.457-.457-1.197-.457-1.654,0Z" fill="#231f20" stroke="#231f20" stroke-linecap="round" stroke-linejoin="round"/><path d="M252.092,154.088l-3.308,3.308c-.457.457-.251.77,0,1.654l3.308,12.17c.457.457,1.197.457,1.654,0l3.308-12.17c.233-.62.327-1.292,0-1.654l-3.308-3.308c-.457-.457-1.197-.457-1.654,0Z" fill="#231f20" stroke="#231f20" stroke-linecap="round" stroke-linejoin="round"/><rect x="231.994" y="67.253" width="28.353" height="15.781" rx="2" ry="2" fill="#4e4f4f"/><line x1="233.896" y1="71.762" x2="258.444" y2="71.762" fill="none" stroke="#6d6e71" stroke-linecap="round" stroke-linejoin="round" stroke-width="2"/><rect x="236.587" y="176.11" width="19.166" height="17.604" rx=".72" ry=".72" fill="#4e4f4f"/><rect x="239.352" y="51.889" width="4.745" height="2.782" rx=".72" ry=".72" fill="#4e4f4f"/><rect x="248.243" y="51.889" width="4.745" height="2.782" rx=".72" ry=".72" fill="#4e4f4f"/><line x1="232.434" y1="56.668" x2="259.906" y2="56.668" fill="#497dc0" opacity=".9" stroke="#231f20" stroke-linecap="round" stroke-linejoin="round"/><rect x="267.415" y="50.399" width="28.363" height="148.297" rx=".72" ry=".72" fill="#497dc0" stroke="#231f20" stroke-miterlimit="10"/><path d="M274.08,91.451l-3.308,3.308c-.457.457-.251.77,0,1.654l3.308,12.17c.457.457,1.197.457,1.654,0l3.308-12.17c.233-.62.327-1.292,0-1.654l-3.308-3.308c-.457-.457-1.197-.457-1.654,0Z" fill="#231f20" stroke="#231f20" stroke-linecap="round" stroke-linejoin="round"/><path d="M287.518,91.451l-3.308,3.308c-.457.457-.251.77,0,1.654l3.308,12.17c.457.457,1.197.457,1.654,0l3.308-12.17c.233-.62.327-1.292,0-1.654l-3.308-3.308c-.457-.457-1.197-.457-1.654,0Z" fill="#231f20" stroke="#231f20" stroke-linecap="round" stroke-linejoin="round"/><path d="M282.394,119.987l3.308-3.308c.457-.457.251-.77,0-1.654l-3.308-12.17c-.457-.457-1.197-.457-1.654,0l-3.308,12.17c-.233.62-.327,1.292,0,1.654l3.308,3.308c.457.457,1.197.457,1.654,0Z" fill="#231f20" stroke="#231f20" stroke-linecap="round" stroke-linejoin="round"/><path d="M274.08,122.77l-3.308,3.308c-.457.457-.251.77,0,1.654l3.308,12.17c.457.457,1.197.457,1.654,0l3.308-12.17c.233-.62.327-1.292,0-1.654l-3.308-3.308c-.457-.457-1.197-.457-1.654,0Z" fill="#231f20" stroke="#231f20" stroke-linecap="round" stroke-linejoin="round"/><path d="M287.518,122.77l-3.308,3.308c-.457.457-.251.77,0,1.654l3.308,12.17c.457.457,1.197.457,1.654,0l3.308-12.17c.233-.62.327-1.292,0-1.654l-3.308-3.308c-.457-.457-1.197-.457-1.654,0Z" fill="#231f20" stroke="#231f20" stroke-linecap="round" stroke-linejoin="round"/><path d="M282.394,151.305l3.308-3.308c.457-.457.251-.77,0-1.654l-3.308-12.17c-.457-.457-1.197-.457-1.654,0l-3.308,12.17c-.233.62-.327,1.292,0,1.654l3.308,3.308c.457.457,1.197.457,1.654,0Z" fill="#231f20" stroke="#231f20" stroke-linecap="round" stroke-linejoin="round"/><path d="M274.08,154.088l-3.308,3.308c-.457.457-.251.77,0,1.654l3.308,12.17c.457.457,1.197.457,1.654,0l3.308-12.17c.233-.62.327-1.292,0-1.654l-3.308-3.308c-.457-.457-1.197-.457-1.654,0Z" fill="#231f20" stroke="#231f20" stroke-linecap="round" stroke-linejoin="round"/><path d="M287.518,154.088l-3.308,3.308c-.457.457-.251.77,0,1.654l3.308,12.17c.457.457,1.197.457,1.654,0l3.308-12.17c.233-.62.327-1.292,0-1.654l-3.308-3.308c-.457-.457-1.197-.457-1.654,0Z" fill="#231f20" stroke="#231f20" stroke-linecap="round" stroke-linejoin="round"/><rect x="267.42" y="67.253" width="28.353" height="15.781" rx="2" ry="2" fill="#4e4f4f"/><line x1="269.322" y1="71.762" x2="293.871" y2="71.762" fill="none" stroke="#6d6e71" stroke-linecap="round" stroke-linejoin="round" stroke-width="2"/><rect x="272.013" y="176.11" width="19.166" height="17.604" rx=".72" ry=".72" fill="#4e4f4f"/><rect x="274.779" y="51.889" width="4.745" height="2.782" rx=".72" ry=".72" fill="#4e4f4f"/><rect x="283.669" y="51.889" width="4.745" height="2.782" rx=".72" ry=".72" fill="#4e4f4f"/><line x1="267.861" y1="56.668" x2="295.332" y2="56.668" fill="#497dc0" opacity=".9" stroke="#231f20" stroke-linecap="round" stroke-linejoin="round"/></g></g><g id="d"><g id="f"><g clip-path="url(#g)"><path d="M120.376,211.419h-45.262V36.564h45.262s9.009,77.982,0,174.855Z" fill="none" stroke="#fff" stroke-linecap="round" stroke-linejoin="round" stroke-width="3.9"/><path d="M120.514,209.924c-.045.498-.091.996-.138,1.495h-1.5" fill="none" stroke="#b3b3b3" stroke-linecap="round" stroke-linejoin="round" stroke-width="1.5"/><line x1="116.058" y1="211.419" x2="78.022" y2="211.419" fill="none" stroke="#b3b3b3" stroke-dasharray="2.817 2.817" stroke-linecap="round" stroke-linejoin="round" stroke-width="1.5"/><polyline points="76.613 211.419 75.113 211.419 75.113 209.919" fill="none" stroke="#b3b3b3" stroke-linecap="round" stroke-linejoin="round" stroke-width="1.5"/><line x1="75.113" y1="206.904" x2="75.113" y2="39.572" fill="none" stroke="#b3b3b3" stroke-dasharray="3.015 3.015" stroke-linecap="round" stroke-linejoin="round" stroke-width="1.5"/><polyline points="75.113 38.064 75.113 36.564 76.613 36.564" fill="none" stroke="#b3b3b3" stroke-linecap="round" stroke-linejoin="round" stroke-width="1.5"/><line x1="79.431" y1="36.564" x2="117.467" y2="36.564" fill="none" stroke="#b3b3b3" stroke-dasharray="2.817 2.817" stroke-linecap="round" stroke-linejoin="round" stroke-width="1.5"/><path d="M118.876,36.564h1.5s.058.506.161,1.487" fill="none" stroke="#b3b3b3" stroke-linecap="round" stroke-linejoin="round" stroke-width="1.5"/><path d="M120.838,41.052c1.7,17.668,7.143,85.491-.187,167.359" fill="none" stroke="#b3b3b3" stroke-dasharray="3.019 3.019" stroke-linecap="round" stroke-linejoin="round" stroke-width="1.5"/><path d="M54.445,223.122h-1.998V48.267h1.998s9.009,77.982,0,174.855Z" fill="#272626"/><path d="M53.12,223.122l-2.998,1.807-40.94-1.807L4.913,50.026l4.269-1.759h43.938s.293,2.534.72,7.255c1.943,21.472,6.665,88.188-.72,167.6Z" fill="#404040"/><path d="M50.17,224.832h-1.931V49.977h1.931s9.009,77.982,0,174.855Z" fill="#272626"/><path d="M48.846,224.832H4.908V49.977h43.938s9.009,77.982,0,174.855Z" fill="#4e4f4f"/><polygon points="44.985 155.83 18.785 155.83 18.785 140.11 31.667 140.11 44.985 140.11 44.985 155.83" fill="#fff"/><circle cx="23.813" cy="105.171" r="3.447" fill="#fff"/><circle cx="23.813" cy="117.03" r="3.447" fill="#fff"/><circle cx="23.813" cy="128.889" r="3.447" fill="#fff"/><path d="M34.383,113.916c0-.454-.34-.681-.681-.681s-.681.34-.681.681l.454,4.197c0,.227.113.227.227.227s.227-.113.227-.227l.454-4.197M34.496,119.929c0-.454-.34-.794-.794-.794s-.794.34-.794.794c0,.34.34.681.794.681s.794-.34.794-.681Z" fill="#fff" fill-rule="evenodd"/><line x1="32.129" y1="157.666" x2="32.129" y2="137.352" fill="none" stroke="#4e4f4f" stroke-miterlimit="10" stroke-width=".487"/><path d="M36.992,104.09c-.454-1.815-2.382-2.836-4.197-2.382-1.929.567-2.95,2.496-2.382,4.311.567,1.815,2.496,2.836,4.311,2.382,1.815-.567,2.836-2.496,2.269-4.311M36.538,104.77c.227,1.475-.908,2.95-2.496,3.063-1.134.227-2.382-.454-2.836-1.588l1.929-1.929.794,3.063,2.609-2.609ZM30.866,105.451c-.113-1.588.908-3.063,2.496-3.176,1.248-.227,2.382.454,2.95,1.588l-1.929,1.929-.794-3.063-2.723,2.723Z" fill="#fff" fill-rule="evenodd"/><path d="M37.212,128.771c0-1.894-1.56-3.454-3.565-3.454-1.894,0-3.454,1.56-3.454,3.454,0,2.005,1.56,3.565,3.454,3.565,2.005,0,3.565-1.56,3.565-3.565ZM36.321,128.771c0,1.56-1.226,2.674-2.674,2.674s-2.674-1.114-2.674-2.674c0-1.448,1.226-2.563,2.674-2.563s2.674,1.114,2.674,2.563ZM34.204,128.102c0,.334-.223.557-.557.557s-.557-.223-.557-.557.223-.557.557-.557.557.223.557.557ZM32.533,128.771l1.003,2.005s.111.111.223,0l1.114-2.005c.334-.668,0-1.448-.557-1.783-.668-.334-1.448-.111-1.783.557-.223.334-.223.78,0,1.226Z" fill="#fff" fill-rule="evenodd"/><line x1="20.236" y1="31.55" x2="28.238" y2="45.213" fill="none" stroke="#231f20" stroke-linecap="round" stroke-linejoin="round" stroke-width=".975"/></g><polygon points="83.43 57.21 69.513 64.313 69.365 69.091 58.522 65.325 68.55 51.245 68.358 57.424 83.685 48.997 83.43 57.21" fill="#fff" stroke="#fff" stroke-linecap="round" stroke-linejoin="round" stroke-width="2.925"/><polygon points="83.43 57.21 69.513 64.313 69.365 69.091 58.522 65.325 68.55 51.245 68.358 57.424 83.685 48.997 83.43 57.21" fill="#ee7623"/><path d="M91.451,88.25c-3.383,0-6.137-2.754-6.137-6.137s2.754-6.137,6.137-6.137h7.396c3.383,0,6.137,2.754,6.137,6.137s-2.754,6.137-6.137,6.137h-7.396Z" fill="#ddd" fill-rule="evenodd"/><path d="M106.008,208.007h11.094V43.086h-4.485v-.944c0-.787-.629-1.495-1.416-1.495h-3.698c-.866,0-1.495.708-1.495,1.495v4.17h-16.681v-4.17c0-.787-.708-1.495-1.495-1.495h-7.396c-.629,0-1.18.551-1.18,1.259v164.843c0,.708.551,1.259,1.18,1.259h8.891v-3.698h16.681v3.698Z" fill="#e6e6e6"/><path d="M108.919,167.879c0,6.767-5.508,12.275-12.275,12.275s-12.275-5.508-12.275-12.275,5.508-12.275,12.275-12.275,12.275,5.508,12.275,12.275Z" fill="#fff"/><path d="M91.451,88.25c-3.383,0-6.137-2.754-6.137-6.137s2.754-6.137,6.137-6.137h7.396c3.383,0,6.137,2.754,6.137,6.137s-2.754,6.137-6.137,6.137h-7.396Z" fill="#fff"/><path d="M93.812,64.173c0-2.282,1.967-4.249,4.328-4.249s4.249,1.967,4.249,4.249c0,2.361-1.888,4.328-4.249,4.328s-4.328-1.967-4.328-4.328Z" fill="#231f20"/><path d="M93.812,191.09c0-2.361,1.967-4.249,4.328-4.249s4.249,1.888,4.249,4.249-1.888,4.249-4.249,4.249-4.328-1.888-4.328-4.249Z" fill="#231f20"/><path d="M96.015,91.162v.079c-.079,0-.079-.079-.079-.079" fill="none" stroke="#8c8c8c" stroke-linecap="round" stroke-linejoin="round"/><path d="M87.753,91.162q0,.079-.079.079v-.079" fill="none" stroke="#8c8c8c" stroke-linecap="round" stroke-linejoin="round"/><path d="M87.36,148.601h25.966c.315,0,.629-.315.629-.708v-17.783c0-.315-.315-.629-.629-.629h-25.966c-.393,0-.629.315-.629.629v17.783c0,.393.236.708.629.708" fill="#747474" fill-rule="evenodd"/><path d="M87.36,148.601h25.966c.315,0,.629-.315.629-.708v-17.783c0-.315-.315-.629-.629-.629h-25.966c-.393,0-.629.315-.629.629v17.783c0,.393.236.708.629.708Z" fill="none" stroke="#272626" stroke-linecap="round" stroke-linejoin="round"/><path d="M115.686,127.75v-35.408c0-.551-.472-.866-1.102-.866h-28.011c-.629,0-1.102.315-1.102.866v35.408c0,.472.472.865,1.102.865h28.011c.629,0,1.102-.393,1.102-.865" fill="#4e4f4f" fill-rule="evenodd"/><path d="M115.686,127.75v-35.408c0-.551-.472-.866-1.102-.866h-28.011c-.629,0-1.102.315-1.102.866v35.408c0,.472.472.865,1.102.865h28.011c.629,0,1.102-.393,1.102-.865Z" fill="none" stroke="#606060" stroke-linecap="round" stroke-linejoin="round"/><path d="M104.67,95.585c-.551-1.652-2.361-2.518-4.013-1.967s-2.597,2.439-1.967,4.092c.551,1.652,2.361,2.518,4.013,1.967,1.416-.472,2.282-1.81,2.124-3.226,0-.315,0-.551-.157-.866M99.477,97.867l1.574-1.81.944,2.675,2.124-2.439c.236,1.338-.708,2.597-2.124,2.833-1.023.157-1.967-.393-2.518-1.259ZM103.883,95.506l-1.574,1.731-.944-2.675-2.124,2.439c-.236-1.338.708-2.597,2.046-2.833,1.102-.157,2.046.393,2.597,1.338ZM101.916,105.42c0-.315-.236-.629-.629-.629-.315.079-.629.315-.629.629v.079l.315,3.934c0,.157.236.315.393.236.157,0,.236-.079.315-.236l.236-4.013ZM101.995,110.692c0-.393-.315-.629-.708-.629-.315,0-.629.236-.629.629s.315.708.629.708c.393,0,.708-.315.708-.708ZM104.906,119.584c0-1.81-1.495-3.226-3.226-3.226-1.81,0-3.226,1.416-3.226,3.226s1.416,3.226,3.226,3.226c1.731,0,3.226-1.416,3.226-3.226ZM104.513,119.584c0,1.574-1.259,2.911-2.833,2.911-1.652,0-2.911-1.338-2.911-2.911s1.259-2.833,2.911-2.833c1.574,0,2.833,1.259,2.833,2.833ZM100.5,119.505l1.023,1.967c0,.079.157.157.236.079v-.079l1.023-1.967c.393-.629.157-1.416-.551-1.731-.629-.393-1.416-.157-1.731.551-.236.393-.236.787,0,1.18ZM102.231,118.875c0,.393-.236.629-.551.629s-.629-.236-.629-.629c0-.315.315-.551.629-.551s.551.236.551.551Z" fill="#fff" fill-rule="evenodd"/><path d="M95.15,96.765c0-1.731-1.416-3.147-3.147-3.147-1.81,0-3.226,1.416-3.226,3.147,0,1.81,1.416,3.226,3.226,3.226,1.731,0,3.147-1.416,3.147-3.226Z" fill="#231f20"/><path d="M95.15,107.938c0-1.731-1.416-3.226-3.147-3.226-1.81,0-3.226,1.495-3.226,3.226s1.416,3.226,3.226,3.226c1.731,0,3.147-1.495,3.147-3.226Z" fill="#231f20"/><path d="M95.15,119.111c0-1.731-1.416-3.226-3.147-3.226-1.81,0-3.226,1.495-3.226,3.226s1.416,3.147,3.226,3.147c1.731,0,3.147-1.416,3.147-3.147Z" fill="#231f20"/><line x1="90.429" y1="138.765" x2="90.35" y2="138.765" fill="none" stroke="#333" stroke-linecap="round" stroke-linejoin="round" stroke-width=".079"/><line x1="100.504" y1="148.022" x2="100.504" y2="129.857" fill="none" stroke="#4e4f4f" stroke-miterlimit="10" stroke-width=".472"/><path d="M91.107,137.579l-.799.799-.768-.799v-3.549l.768-.783.799.783v3.549ZM91.107,142.941l-.799.783-.768-.783v-3.549l.768-.799.799.799v3.549ZM95.685,133.123l-.783.799h-3.672l-.815-.799.799-.783h3.687l.783.783ZM95.685,143.847l-.783.783h-3.672l-.815-.783.799-.799h3.687l.783.799ZM96.591,137.579l-.799.799-.783-.799v-3.549l.783-.783.799.783v3.549ZM96.591,142.941l-.799.783-.783-.783v-3.549l.783-.799.799.799v3.549Z" fill="#99ca3c"/><path d="M105.553,137.579l-.799.799-.768-.799v-3.549l.768-.783.799.783v3.549ZM105.553,142.941l-.799.783-.768-.783v-3.549l.768-.799.799.799v3.549ZM110.131,133.123l-.783.799h-3.672l-.815-.799.799-.783h3.687l.783.783ZM110.131,143.847l-.783.783h-3.672l-.815-.783.799-.799h3.687l.783.799ZM111.037,137.579l-.799.799-.783-.799v-3.549l.783-.783.799.783v3.549ZM111.037,142.941l-.799.783-.783-.783v-3.549l.783-.799.799.799v3.549Z" fill="#99ca3c"/><path d="M109.499,97.604c0-.944.708-1.731,1.731-1.731.944,0,1.652.787,1.652,1.731s-.708,1.731-1.652,1.731c-1.023,0-1.731-.787-1.731-1.731Z" fill="#e6e6e6"/><line x1="97.962" y1="208.853" x2="106.994" y2="230.762" fill="none" stroke="#fff" stroke-linecap="round" stroke-linejoin="round" stroke-width="2.925"/><line x1="97.962" y1="208.853" x2="106.994" y2="230.762" fill="none" stroke="#231f20" stroke-linecap="round" stroke-linejoin="round" stroke-width=".975"/><line x1="104.088" y1="151.029" x2="143.962" y2="231.6" fill="none" stroke="#fff" stroke-linecap="round" stroke-linejoin="round" stroke-width="2.925"/><line x1="104.088" y1="151.029" x2="143.962" y2="231.6" fill="none" stroke="#231f20" stroke-linecap="round" stroke-linejoin="round" stroke-width=".975"/><line x1="113.885" y1="103.038" x2="172.335" y2="216.886" fill="none" stroke="#fff" stroke-linecap="round" stroke-linejoin="round" stroke-width="2.925"/><line x1="113.951" y1="103.076" x2="172.335" y2="216.886" fill="none" stroke="#231f20" stroke-linecap="round" stroke-linejoin="round" stroke-width=".975"/><circle cx="14.168" cy="14.653" r="13.104" fill="#010101"/><g isolation="isolate"><path d="M10.77,11.381v-1.321c1.245-.121,2.113-.324,2.604-.608s.859-.956,1.102-2.016h1.36v13.655h-1.839v-9.71h-3.227Z" fill="#fff"/></g><circle cx="111.005" cy="247.404" r="13.104" fill="#010101"/><g isolation="isolate"><path d="M107.075,250.759c.425-.874,1.253-1.669,2.485-2.384l1.838-1.063c.824-.479,1.401-.888,1.733-1.227.523-.531.785-1.139.785-1.823,0-.799-.239-1.434-.718-1.904-.479-.47-1.117-.705-1.915-.705-1.181,0-1.999.448-2.452,1.345-.243.48-.376,1.146-.402,1.997h-1.752c.019-1.193.239-2.167.661-2.921.747-1.327,2.065-1.991,3.955-1.991,1.57,0,2.718.425,3.442,1.273.725.85,1.087,1.794,1.087,2.835,0,1.098-.386,2.036-1.159,2.815-.447.453-1.248,1.002-2.404,1.646l-1.312.728c-.625.345-1.117.674-1.475.986-.638.556-1.041,1.172-1.207,1.849h7.489v1.628h-9.414c.064-1.181.308-2.209.732-3.084Z" fill="#fff"/></g><circle cx="150.556" cy="247.562" r="13.104" fill="#010101"/><g isolation="isolate"><path d="M146.847,253.039c-.731-.891-1.097-1.975-1.097-3.252h1.8c.077.888.243,1.532.498,1.935.447.722,1.254,1.082,2.423,1.082.906,0,1.634-.242,2.183-.728s.824-1.11.824-1.877c0-.944-.289-1.605-.867-1.982-.578-.376-1.381-.564-2.408-.564-.115,0-.232,0-.35.005-.118.003-.238.008-.359.014v-1.522c.179.02.329.032.45.038.121.007.252.01.393.01.645,0,1.175-.102,1.59-.307.728-.357,1.091-.995,1.091-1.915,0-.683-.243-1.21-.728-1.58-.485-.37-1.05-.556-1.695-.556-1.149,0-1.944.384-2.385,1.149-.243.422-.38,1.021-.412,1.801h-1.705c0-1.021.204-1.89.613-2.605.702-1.276,1.938-1.915,3.706-1.915,1.398,0,2.48.312,3.246.934.766.623,1.149,1.524,1.149,2.706,0,.842-.227,1.525-.68,2.049-.281.325-.645.581-1.091.766.721.198,1.285.58,1.69,1.145.405.565.608,1.257.608,2.073,0,1.309-.431,2.375-1.293,3.198-.862.824-2.084,1.235-3.667,1.235-1.622,0-2.798-.445-3.529-1.335Z" fill="#fff"/></g><circle cx="183.289" cy="230.306" r="13.104" fill="#010101"/><g isolation="isolate"><path d="M183.707,236.744v-3.352h-6.014v-1.686l6.282-8.714h1.456v8.896h2.021v1.504h-2.021v3.352h-1.724ZM183.678,231.889v-6.229l-4.396,6.229h4.396Z" fill="#fff"/></g></g></g></svg>