<?xml version="1.0" encoding="UTF-8"?><svg xmlns="http://www.w3.org/2000/svg" width="5.125in" height="1.75in" xmlns:xlink="http://www.w3.org/1999/xlink" viewBox="0 0 369 126"><defs><clipPath id="b"><path d="M367.898,26.598v87.798H53.105V26.598s-3.75-6.362,10.773-2.604c14.523,3.758,59.355,13.067,120.105-.587,81.174-18.245,183.915,3.191,183.915,3.191Z" fill="none" stroke-width="0"/></clipPath><clipPath id="d"><circle cx="47.86" cy="53.431" r="39.522" fill="none" stroke-width="0"/></clipPath></defs><g id="a"><path d="M91.346,115.239h2.52c.405,0,.736.059.992.176.256.117.453.264.592.44.139.176.233.368.284.576.05.208.076.399.076.575,0,.177-.025.367-.076.572-.051.205-.146.396-.284.572s-.336.321-.592.436c-.256.115-.587.172-.992.172h-1.52v2.192h-1v-5.712ZM92.346,117.943h1.464c.112,0,.227-.017.344-.048.117-.032.225-.084.324-.156.099-.072.178-.168.24-.288.061-.12.092-.271.092-.452,0-.187-.026-.341-.08-.464-.054-.123-.125-.22-.216-.292s-.195-.121-.312-.148c-.117-.026-.243-.04-.376-.04h-1.48v1.889Z" fill="#231f20" stroke-width="0"/><path d="M97.338,119.046c0,.219.037.405.112.561.075.154.179.281.312.38s.287.171.46.216c.173.046.361.068.564.068.219,0,.405-.025.56-.076s.28-.116.376-.196.166-.172.208-.275c.042-.104.064-.21.064-.316,0-.219-.049-.38-.148-.484-.099-.104-.207-.177-.324-.22-.203-.074-.439-.146-.708-.212-.27-.066-.602-.153-.996-.26-.246-.064-.45-.148-.612-.252-.163-.104-.292-.221-.388-.349-.096-.128-.164-.264-.204-.407-.04-.145-.06-.291-.06-.44,0-.288.06-.537.18-.748.12-.211.278-.385.476-.524.197-.139.421-.241.672-.308.25-.066.504-.1.76-.1.299,0,.58.038.844.115.264.078.496.193.696.349.2.154.359.345.476.572.117.227.176.489.176.787h-1c-.026-.367-.152-.628-.376-.779-.224-.152-.509-.229-.856-.229-.117,0-.237.013-.36.036-.123.024-.235.064-.336.12-.102.056-.186.132-.252.228-.067.097-.1.217-.1.36,0,.203.062.361.188.477.125.114.289.201.492.26.021.005.105.027.252.067.146.04.311.084.492.133.182.048.359.095.532.14s.297.079.372.1c.187.059.349.139.488.24s.255.218.348.348c.093.131.163.271.208.421.045.148.068.298.068.447,0,.32-.065.594-.196.82-.131.227-.303.412-.516.556-.213.145-.456.25-.728.316s-.549.1-.832.1c-.325,0-.632-.04-.92-.12s-.539-.202-.752-.367c-.213-.166-.384-.378-.512-.637s-.195-.563-.2-.916h1Z" fill="#231f20" stroke-width="0"/><path d="M101.802,115.239h1v3.328c0,.191.009.387.028.584.019.197.072.375.16.532s.221.286.4.388.431.152.756.152.577-.051.756-.152.312-.23.4-.388.141-.335.16-.532c.019-.197.028-.393.028-.584v-3.328h1v3.656c0,.367-.056.688-.168.96-.112.271-.271.5-.476.684-.205.185-.452.321-.74.412s-.608.136-.96.136-.672-.045-.96-.136c-.288-.091-.535-.228-.74-.412-.206-.184-.364-.412-.476-.684-.112-.272-.168-.593-.168-.96v-3.656Z" fill="#231f20" stroke-width="0"/><path d="M109.681,116.279c.192,0,.379-.017.56-.048.181-.032.345-.086.492-.16.146-.075.272-.171.376-.288s.172-.262.204-.432h.744v5.6h-1v-3.952h-1.376v-.72Z" fill="#231f20" stroke-width="0"/><path d="M161.974,115.239h2.52c.405,0,.736.059.992.176.256.117.453.264.592.44.139.176.233.368.284.576.05.208.076.399.076.575,0,.177-.025.367-.076.572-.051.205-.146.396-.284.572s-.336.321-.592.436c-.256.115-.587.172-.992.172h-1.52v2.192h-1v-5.712ZM162.974,117.943h1.464c.112,0,.227-.017.344-.048.117-.032.225-.084.324-.156.099-.072.178-.168.24-.288.061-.12.092-.271.092-.452,0-.187-.026-.341-.08-.464-.054-.123-.125-.22-.216-.292s-.195-.121-.312-.148c-.117-.026-.243-.04-.376-.04h-1.48v1.889Z" fill="#231f20" stroke-width="0"/><path d="M167.967,119.046c0,.219.037.405.112.561.075.154.179.281.312.38s.287.171.46.216c.173.046.361.068.564.068.219,0,.405-.025.56-.076s.28-.116.376-.196.166-.172.208-.275c.042-.104.064-.21.064-.316,0-.219-.049-.38-.148-.484-.099-.104-.207-.177-.324-.22-.203-.074-.439-.146-.708-.212-.27-.066-.602-.153-.996-.26-.246-.064-.45-.148-.612-.252-.163-.104-.292-.221-.388-.349-.096-.128-.164-.264-.204-.407-.04-.145-.06-.291-.06-.44,0-.288.06-.537.18-.748.12-.211.278-.385.476-.524.197-.139.421-.241.672-.308.25-.066.504-.1.76-.1.299,0,.58.038.844.115.264.078.496.193.696.349.2.154.359.345.476.572.117.227.176.489.176.787h-1c-.026-.367-.152-.628-.376-.779-.224-.152-.509-.229-.856-.229-.117,0-.237.013-.36.036-.123.024-.235.064-.336.12-.102.056-.186.132-.252.228-.067.097-.1.217-.1.36,0,.203.062.361.188.477.125.114.289.201.492.26.021.005.105.027.252.067.146.04.311.084.492.133.182.048.359.095.532.14s.297.079.372.1c.187.059.349.139.488.24s.255.218.348.348c.093.131.163.271.208.421.045.148.068.298.068.447,0,.32-.065.594-.196.82-.131.227-.303.412-.516.556-.213.145-.456.25-.728.316s-.549.1-.832.1c-.325,0-.632-.04-.92-.12s-.539-.202-.752-.367c-.213-.166-.384-.378-.512-.637s-.195-.563-.2-.916h1Z" fill="#231f20" stroke-width="0"/><path d="M172.43,115.239h1v3.328c0,.191.009.387.028.584.019.197.072.375.16.532s.221.286.4.388.431.152.756.152.577-.051.756-.152.312-.23.4-.388.141-.335.16-.532c.019-.197.028-.393.028-.584v-3.328h1v3.656c0,.367-.056.688-.168.96-.112.271-.271.5-.476.684-.205.185-.452.321-.74.412s-.608.136-.96.136-.672-.045-.96-.136c-.288-.091-.535-.228-.74-.412-.206-.184-.364-.412-.476-.684-.112-.272-.168-.593-.168-.96v-3.656Z" fill="#231f20" stroke-width="0"/><path d="M184.022,120.951h-3.823c.005-.464.117-.869.336-1.216s.517-.648.896-.904c.182-.133.371-.263.568-.388s.378-.26.544-.404c.165-.144.301-.3.408-.468.106-.168.162-.361.168-.58,0-.102-.013-.209-.036-.324-.024-.114-.071-.221-.141-.319s-.165-.182-.288-.248c-.122-.067-.282-.101-.479-.101-.182,0-.332.036-.452.108-.12.071-.216.171-.288.296s-.125.273-.16.444c-.035.17-.055.354-.06.552h-.912c0-.31.041-.597.124-.86s.207-.492.372-.684c.165-.192.367-.343.604-.452.236-.109.513-.164.827-.164.342,0,.627.056.856.168s.414.253.556.424.241.356.3.556c.059.2.088.392.088.572,0,.225-.034.427-.104.608s-.163.348-.28.5c-.117.151-.251.292-.399.42-.149.128-.305.248-.464.36-.16.111-.32.219-.48.319-.16.102-.308.203-.444.304-.136.102-.254.207-.355.316s-.171.226-.208.348h2.728v.816Z" fill="#231f20" stroke-width="0"/><path d="M237.4,115.239h2.52c.405,0,.736.059.992.176s.453.264.592.44c.139.176.233.368.284.576s.076.399.076.575c0,.177-.025.367-.076.572s-.146.396-.284.572-.336.321-.592.436c-.256.115-.587.172-.992.172h-1.52v2.192h-1v-5.712ZM238.4,117.943h1.464c.111,0,.227-.017.344-.048.117-.032.226-.084.324-.156s.179-.168.24-.288c.061-.12.092-.271.092-.452,0-.187-.027-.341-.08-.464-.054-.123-.126-.22-.216-.292-.091-.072-.195-.121-.312-.148-.117-.026-.242-.04-.376-.04h-1.479v1.889Z" fill="#231f20" stroke-width="0"/><path d="M243.391,119.046c0,.219.037.405.112.561.074.154.179.281.312.38.133.099.286.171.46.216.173.046.36.068.563.068.219,0,.405-.025.561-.076.154-.051.279-.116.376-.196.096-.08.165-.172.208-.275.042-.104.063-.21.063-.316,0-.219-.049-.38-.147-.484-.1-.104-.207-.177-.324-.22-.203-.074-.439-.146-.708-.212-.27-.066-.602-.153-.996-.26-.245-.064-.449-.148-.612-.252-.162-.104-.292-.221-.388-.349s-.164-.264-.204-.407c-.04-.145-.06-.291-.06-.44,0-.288.06-.537.18-.748s.278-.385.476-.524c.197-.139.422-.241.672-.308.251-.066.504-.1.761-.1.298,0,.58.038.844.115.264.078.496.193.696.349.199.154.358.345.476.572.117.227.176.489.176.787h-1c-.026-.367-.151-.628-.376-.779-.224-.152-.509-.229-.855-.229-.118,0-.237.013-.36.036-.123.024-.234.064-.336.12s-.186.132-.252.228c-.066.097-.1.217-.1.36,0,.203.062.361.188.477.125.114.289.201.492.26.021.005.105.027.252.067s.311.084.492.133c.181.048.358.095.531.14.174.045.298.079.372.1.187.059.35.139.488.24s.255.218.348.348c.094.131.163.271.208.421.046.148.068.298.068.447,0,.32-.065.594-.196.82s-.303.412-.516.556c-.214.145-.456.25-.728.316-.272.066-.55.1-.832.1-.326,0-.633-.04-.921-.12-.287-.08-.538-.202-.752-.367-.213-.166-.384-.378-.512-.637s-.194-.563-.2-.916h1Z" fill="#231f20" stroke-width="0"/><path d="M247.855,115.239h1v3.328c0,.191.01.387.028.584s.071.375.16.532c.088.157.221.286.399.388s.431.152.756.152.577-.051.756-.152.312-.23.4-.388.142-.335.16-.532.028-.393.028-.584v-3.328h1v3.656c0,.367-.057.688-.168.96-.112.271-.271.5-.477.684-.205.185-.452.321-.74.412s-.607.136-.96.136-.672-.045-.96-.136-.534-.228-.739-.412c-.206-.184-.364-.412-.477-.684-.112-.272-.168-.593-.168-.96v-3.656Z" fill="#231f20" stroke-width="0"/><path d="M257.135,117.67c.149.006.299-.005.448-.031.148-.027.282-.073.399-.141.117-.066.212-.158.284-.275.072-.118.108-.262.108-.433,0-.24-.082-.432-.244-.576-.163-.144-.372-.216-.628-.216-.16,0-.299.032-.416.096-.118.064-.215.151-.292.261-.078.109-.135.231-.173.368-.037.136-.053.275-.048.42h-.912c.011-.272.062-.524.152-.757.091-.231.215-.433.372-.604s.348-.304.572-.4c.224-.096.477-.144.76-.144.219,0,.434.032.644.096.211.064.4.157.568.28s.303.278.404.468c.101.189.151.407.151.652,0,.282-.063.529-.191.74-.128.21-.328.363-.601.46v.016c.32.064.569.223.748.476.179.254.269.562.269.925,0,.267-.054.505-.16.716s-.251.39-.432.536c-.182.146-.393.26-.633.34-.239.08-.493.12-.76.12-.325,0-.609-.047-.852-.141-.243-.093-.445-.225-.608-.396s-.286-.376-.372-.616c-.085-.24-.131-.507-.136-.8h.912c-.011.341.073.625.252.852s.446.34.804.34c.304,0,.559-.086.765-.26.205-.173.308-.42.308-.74,0-.218-.043-.392-.128-.52-.086-.128-.197-.226-.336-.292s-.295-.108-.468-.124c-.174-.016-.352-.021-.532-.016v-.681Z" fill="#231f20" stroke-width="0"/><path d="M309.218,115.239h2.52c.405,0,.736.059.992.176s.453.264.592.44c.139.176.233.368.284.576s.076.399.076.575c0,.177-.025.367-.076.572s-.146.396-.284.572-.336.321-.592.436c-.256.115-.587.172-.992.172h-1.52v2.192h-1v-5.712ZM310.218,117.943h1.464c.111,0,.227-.017.344-.048.117-.032.226-.084.324-.156s.179-.168.24-.288c.061-.12.092-.271.092-.452,0-.187-.027-.341-.08-.464-.054-.123-.126-.22-.216-.292-.091-.072-.195-.121-.312-.148-.117-.026-.242-.04-.376-.04h-1.479v1.889Z" fill="#231f20" stroke-width="0"/><path d="M315.209,119.046c0,.219.037.405.112.561.074.154.179.281.312.38.133.099.286.171.46.216.173.046.36.068.563.068.219,0,.405-.025.561-.076.154-.051.279-.116.376-.196.096-.08.165-.172.208-.275.042-.104.063-.21.063-.316,0-.219-.049-.38-.147-.484-.1-.104-.207-.177-.324-.22-.203-.074-.439-.146-.708-.212-.27-.066-.602-.153-.996-.26-.245-.064-.449-.148-.612-.252-.162-.104-.292-.221-.388-.349s-.164-.264-.204-.407c-.04-.145-.06-.291-.06-.44,0-.288.06-.537.18-.748s.278-.385.476-.524c.197-.139.422-.241.672-.308.251-.066.504-.1.761-.1.298,0,.58.038.844.115.264.078.496.193.696.349.199.154.358.345.476.572.117.227.176.489.176.787h-1c-.026-.367-.151-.628-.376-.779-.224-.152-.509-.229-.855-.229-.118,0-.237.013-.36.036-.123.024-.234.064-.336.12s-.186.132-.252.228c-.066.097-.1.217-.1.36,0,.203.062.361.188.477.125.114.289.201.492.26.021.005.105.027.252.067s.311.084.492.133c.181.048.358.095.531.14.174.045.298.079.372.1.187.059.35.139.488.24s.255.218.348.348c.094.131.163.271.208.421.046.148.068.298.068.447,0,.32-.065.594-.196.82s-.303.412-.516.556c-.214.145-.456.25-.728.316-.272.066-.55.1-.832.1-.326,0-.633-.04-.921-.12-.287-.08-.538-.202-.752-.367-.213-.166-.384-.378-.512-.637s-.194-.563-.2-.916h1Z" fill="#231f20" stroke-width="0"/><path d="M319.673,115.239h1v3.328c0,.191.01.387.028.584s.071.375.16.532c.088.157.221.286.399.388s.431.152.756.152.577-.051.756-.152.312-.23.4-.388.142-.335.16-.532.028-.393.028-.584v-3.328h1v3.656c0,.367-.057.688-.168.96-.112.271-.271.5-.477.684-.205.185-.452.321-.74.412s-.607.136-.96.136-.672-.045-.96-.136-.534-.228-.739-.412c-.206-.184-.364-.412-.477-.684-.112-.272-.168-.593-.168-.96v-3.656Z" fill="#231f20" stroke-width="0"/><path d="M331.305,119.622h-.72v1.328h-.864v-1.328h-2.399v-.904l2.399-3.367h.864v3.552h.72v.72ZM328.026,118.903h1.695v-2.464h-.016l-1.68,2.464Z" fill="#231f20" stroke-width="0"/><g clip-path="url(#b)"><rect x="66.179" y="13.809" width="288.59" height="62.731" fill="#fff" stroke-width="0"/><rect x="160.037" y="74.527" width="100.821" height="2.719" fill="#ccc" stroke-width="0"/><rect x="209.534" y="12.992" width="1.418" height="61.025" fill="#ccc" stroke-width="0"/><path d="M267.347,72.302h.411v-9.493h-.411v9.493ZM261.003,72.302h.411v-9.493h-.411v9.493ZM261.003,60.299h.685c0-.274.046-.548.183-.776l.228-.502c.183-.319.274-.685.274-1.095v-1.461h-.685v1.461c0,.274-.091.548-.183.822l-.274.456c-.137.365-.228.73-.228,1.095ZM267.758,60.299c0-.365-.091-.73-.228-1.095l-.228-.456c-.137-.274-.228-.548-.228-.822v-1.461h-.639v1.461c0,.411.091.776.228,1.095l.228.502c.137.228.183.502.183.776h.685ZM261.003,55.644h.411v-9.493h-.411v9.493ZM267.347,55.644h.411v-9.493h-.411v9.493ZM261.003,26.16h.685c0-.274.046-.502.183-.776l.228-.456c.183-.365.274-.73.274-1.095v-1.506h-.685v1.506c0,.274-.091.548-.183.776l-.274.502c-.137.32-.228.685-.228,1.05ZM267.758,26.16c0-.365-.091-.73-.228-1.05l-.228-.502c-.137-.228-.228-.502-.228-.776v-1.506h-.639v1.506c0,.365.091.73.228,1.095l.228.456c.137.228.183.502.183.776h.685ZM267.347,21.505h.411v-9.493h-.411v9.493ZM261.003,21.505h.411v-9.493h-.411v9.493ZM261.003,38.939h.411v-9.493h-.411v9.493ZM267.347,38.939h.411v-9.493h-.411v9.493ZM267.758,43.64c0-.411-.091-.776-.228-1.095l-.228-.502c-.137-.228-.228-.502-.228-.776v-1.46h-.639v1.46c0,.365.091.73.228,1.095l.228.456c.137.274.183.548.183.821h.685ZM261.003,43.64h.685c0-.274.046-.548.183-.821l.228-.456c.183-.365.274-.73.274-1.095v-1.46h-.685v1.46c0,.274-.091.548-.183.776l-.274.502c-.137.319-.228.685-.228,1.095Z" fill="#999" fill-rule="evenodd" stroke-width="0"/><path d="M261.003,62.809h.411v10.36h.958v2.008h4.062v-2.008h.913v-10.36h.411v-2.51h-6.755v2.51M261.003,46.15h.411v10.315h.958v2.054h4.062v-2.054h.913v-10.315h.411v-2.51h-6.755v2.51ZM261.003,29.446h.411v10.36h.958v2.008h4.062v-2.008h.913v-10.36h.411v-3.286h-6.755v3.286ZM261.003,12.011h.411v10.315h.958v2.054h4.062v-2.054h.913v-10.315h.411v-2.51h-6.755v2.51Z" fill="#ccc" fill-rule="evenodd" stroke-width="0"/><path d="M261.962,35.197h4.838c.274,0,.502-.228.502-.502v-7.439c0-.274-.228-.502-.502-.502h-4.838c-.274,0-.502.228-.502.502v7.439c0,.274.228.502.502.502M261.962,52.814h4.838c.274,0,.502-.228.502-.502v-7.439c0-.274-.228-.502-.502-.502h-4.838c-.274,0-.502.228-.502.502v7.439c0,.274.228.502.502.502ZM261.962,70.431h4.838c.274,0,.502-.228.502-.502v-7.439c0-.274-.228-.502-.502-.502h-4.838c-.274,0-.502.228-.502.502v7.439c0,.274.228.502.502.502ZM261.962,17.58h4.838c.274,0,.502-.228.502-.502v-7.439c0-.274-.228-.502-.502-.502h-4.838c-.274,0-.502.228-.502.502v7.439c0,.274.228.502.502.502Z" fill="#cb6c29" fill-rule="evenodd" stroke-width="0"/><path d="M261.962,16.028h4.838c.137,0,.274-.091.274-.228v-6.161c0-.137-.137-.274-.274-.274h-4.838c-.137,0-.228.137-.228.274v6.161c0,.137.091.228.228.228ZM261.962,33.645h4.838c.137,0,.274-.091.274-.228v-6.161c0-.137-.137-.274-.274-.274h-4.838c-.137,0-.228.137-.228.274v6.161c0,.137.091.228.228.228ZM261.962,51.262h4.838c.137,0,.274-.091.274-.228v-6.161c0-.137-.137-.274-.274-.274h-4.838c-.137,0-.228.137-.228.274v6.161c0,.137.091.228.228.228ZM261.962,68.879h4.838c.137,0,.274-.091.274-.274v-6.116c0-.137-.137-.274-.274-.274h-4.838c-.137,0-.228.137-.228.274v6.116c0,.183.091.274.228.274Z" fill="#333" fill-rule="evenodd" stroke-width="0"/><path d="M262.159,50.492v-1.928h.723c.147,0,.266.02.354.059s.159.099.209.18c.051.081.076.166.076.254,0,.083-.022.16-.067.233s-.112.131-.202.176c.116.034.206.092.269.175s.094.18.094.292c0,.09-.019.174-.057.251s-.085.138-.142.18c-.056.042-.126.074-.211.095s-.188.032-.311.032h-.735ZM262.414,49.374h.417c.113,0,.194-.007.243-.022.064-.019.113-.051.146-.096.033-.045.05-.101.05-.168,0-.064-.016-.12-.046-.169-.031-.048-.075-.082-.132-.1-.057-.018-.155-.027-.293-.027h-.386v.583ZM262.414,50.264h.48c.082,0,.14-.003.173-.009.059-.01.108-.028.147-.052.039-.025.072-.061.098-.107s.038-.101.038-.162c0-.072-.019-.134-.056-.188-.036-.053-.088-.09-.153-.112s-.159-.032-.281-.032h-.446v.663Z" fill="#fff" stroke-width="0"/><path d="M264.79,50.492h-.236v-1.508c-.057.055-.132.109-.225.163-.092.055-.175.095-.249.123v-.229c.133-.062.248-.138.348-.226.099-.088.169-.174.21-.258h.152v1.936Z" fill="#fff" stroke-width="0"/><path d="M265.362,49.541c0-.228.023-.411.07-.55.047-.139.117-.246.21-.321.092-.076.208-.113.349-.113.104,0,.194.021.272.062s.143.102.193.18.091.174.119.287c.029.113.044.265.044.456,0,.226-.023.409-.07.548-.046.139-.115.246-.208.322-.093.076-.209.114-.351.114-.186,0-.332-.066-.438-.2-.127-.16-.191-.421-.191-.784ZM265.606,49.541c0,.316.036.527.11.632.074.105.166.157.274.157s.2-.053.274-.158c.074-.105.11-.316.11-.631,0-.317-.036-.528-.11-.632s-.167-.156-.277-.156c-.108,0-.195.046-.26.138-.082.118-.122.334-.122.651Z" fill="#fff" stroke-width="0"/><path d="M262.935,32.877v-1.928h.723c.147,0,.266.02.354.059s.159.099.209.18c.051.081.076.166.076.254,0,.083-.022.16-.067.233s-.112.131-.202.176c.116.034.206.092.269.175s.094.18.094.292c0,.09-.019.174-.057.251s-.085.138-.142.18c-.056.042-.126.074-.211.095s-.188.032-.311.032h-.735ZM263.19,31.759h.417c.113,0,.194-.007.243-.022.064-.019.113-.051.146-.096.033-.045.05-.101.05-.168,0-.064-.016-.12-.046-.169-.031-.048-.075-.082-.132-.1-.057-.018-.155-.027-.293-.027h-.386v.583ZM263.19,32.649h.48c.082,0,.14-.003.173-.009.059-.01.108-.028.147-.052.039-.025.072-.061.098-.107s.038-.101.038-.162c0-.072-.019-.134-.056-.188-.036-.053-.088-.09-.153-.112s-.159-.032-.281-.032h-.446v.663Z" fill="#fff" stroke-width="0"/><path d="M264.667,32.431l.228-.021c.019.107.056.185.11.233.054.048.124.072.209.072.072,0,.137-.017.191-.05.055-.033.1-.078.135-.133s.064-.131.088-.226.035-.191.035-.289c0-.011,0-.026,0-.047-.047.075-.112.137-.194.184s-.17.07-.266.07c-.16,0-.295-.058-.405-.174s-.166-.268-.166-.458c0-.195.058-.353.173-.472.116-.12.26-.179.434-.179.125,0,.24.034.344.102.104.067.183.164.237.289.054.125.08.306.08.542,0,.247-.026.443-.08.588-.054.146-.133.257-.238.333s-.229.114-.372.114c-.15,0-.273-.042-.369-.125-.096-.083-.152-.201-.172-.353ZM265.636,31.58c0-.136-.036-.244-.108-.323-.072-.08-.159-.12-.261-.12-.105,0-.197.042-.275.128s-.116.197-.116.334c0,.123.036.223.11.299s.166.115.274.115c.109,0,.199-.039.271-.115.07-.077.105-.183.105-.319Z" fill="#fff" stroke-width="0"/><path d="M262.935,15.26v-1.928h.723c.147,0,.266.02.354.059s.159.099.209.18c.051.081.076.166.076.254,0,.083-.022.16-.067.233s-.112.131-.202.176c.116.034.206.092.269.175s.094.18.094.292c0,.09-.019.174-.057.251s-.085.138-.142.18c-.056.042-.126.074-.211.095s-.188.032-.311.032h-.735ZM263.19,14.142h.417c.113,0,.194-.007.243-.022.064-.019.113-.051.146-.096.033-.045.05-.101.05-.168,0-.064-.016-.12-.046-.169-.031-.048-.075-.082-.132-.1-.057-.018-.155-.027-.293-.027h-.386v.583ZM263.19,15.032h.48c.082,0,.14-.003.173-.009.059-.01.108-.028.147-.052.039-.025.072-.061.098-.107s.038-.101.038-.162c0-.072-.019-.134-.056-.188-.036-.053-.088-.09-.153-.112s-.159-.032-.281-.032h-.446v.663Z" fill="#fff" stroke-width="0"/><path d="M264.995,14.214c-.098-.036-.171-.087-.218-.154-.048-.066-.071-.146-.071-.239,0-.14.051-.258.151-.354.101-.096.235-.144.402-.144.168,0,.304.049.406.147.103.098.154.216.154.357,0,.089-.023.167-.07.233-.047.066-.118.117-.214.153.118.039.208.101.27.187.062.086.093.188.093.308,0,.165-.058.303-.175.416-.116.112-.27.168-.46.168s-.344-.056-.46-.169c-.117-.112-.175-.253-.175-.421,0-.125.031-.23.095-.315.063-.084.154-.142.271-.173ZM264.872,14.703c0,.067.016.133.048.196s.079.112.143.146c.063.035.131.052.204.052.113,0,.206-.037.28-.109.073-.073.11-.165.11-.277,0-.114-.038-.208-.114-.283-.075-.074-.171-.112-.284-.112-.111,0-.204.037-.277.11-.073.074-.109.166-.109.276ZM264.949,13.813c0,.091.029.166.088.224.059.058.135.086.229.086.092,0,.166-.028.225-.086.059-.057.087-.128.087-.211,0-.087-.029-.16-.09-.219-.06-.06-.135-.089-.224-.089-.091,0-.166.029-.226.087-.06.058-.089.127-.089.208Z" fill="#fff" stroke-width="0"/><path d="M262.159,68.113v-1.928h.723c.147,0,.266.02.354.059s.159.099.209.18c.051.081.076.166.076.254,0,.083-.022.16-.067.233s-.112.131-.202.176c.116.034.206.092.269.175s.094.18.094.292c0,.09-.019.174-.057.251s-.085.138-.142.18c-.056.042-.126.074-.211.095s-.188.032-.311.032h-.735ZM262.414,66.995h.417c.113,0,.194-.007.243-.022.064-.019.113-.051.146-.096.033-.045.05-.101.05-.168,0-.064-.016-.12-.046-.169-.031-.048-.075-.082-.132-.1-.057-.018-.155-.027-.293-.027h-.386v.583ZM262.414,67.886h.48c.082,0,.14-.003.173-.009.059-.01.108-.028.147-.052.039-.025.072-.061.098-.107s.038-.101.038-.162c0-.072-.019-.134-.056-.188-.036-.053-.088-.09-.153-.112s-.159-.032-.281-.032h-.446v.663Z" fill="#fff" stroke-width="0"/><path d="M264.79,68.113h-.236v-1.508c-.057.055-.132.109-.225.163-.092.055-.175.095-.249.123v-.229c.133-.062.248-.138.348-.226.099-.088.169-.174.21-.258h.152v1.936Z" fill="#fff" stroke-width="0"/><path d="M266.253,68.113h-.236v-1.508c-.057.055-.132.109-.225.163-.092.055-.175.095-.249.123v-.229c.133-.062.248-.138.348-.226.099-.088.169-.174.21-.258h.152v1.936Z" fill="#fff" stroke-width="0"/><path d="M264.381,64.543l1.05-1.78h-2.099l1.05,1.78M264.381,46.926l1.05-1.78h-2.099l1.05,1.78ZM264.381,29.355l1.05-1.826h-2.099l1.05,1.826ZM264.381,11.738l1.05-1.826h-2.099l1.05,1.826Z" fill="#fff" fill-rule="evenodd" stroke-width="0"/><path d="M159.27,72.302h.411v-9.493h-.411v9.493ZM152.926,72.302h.411v-9.493h-.411v9.493ZM152.926,60.299h.685c0-.274.046-.548.183-.776l.228-.502c.183-.319.274-.685.274-1.095v-1.461h-.685v1.461c0,.274-.091.548-.183.822l-.274.456c-.137.365-.228.73-.228,1.095ZM159.681,60.299c0-.365-.091-.73-.228-1.095l-.228-.456c-.137-.274-.228-.548-.228-.822v-1.461h-.639v1.461c0,.411.091.776.228,1.095l.228.502c.137.228.183.502.183.776h.685ZM152.926,55.644h.411v-9.493h-.411v9.493ZM159.27,55.644h.411v-9.493h-.411v9.493ZM152.926,38.939h.411v-9.493h-.411v9.493ZM159.27,38.939h.411v-9.493h-.411v9.493ZM159.681,43.64c0-.411-.091-.776-.228-1.095l-.228-.502c-.137-.228-.228-.502-.228-.776v-1.46h-.639v1.46c0,.365.091.73.228,1.095l.228.456c.137.274.183.548.183.821h.685ZM152.926,43.64h.685c0-.274.046-.548.183-.821l.228-.456c.183-.365.274-.73.274-1.095v-1.46h-.685v1.46c0,.274-.091.548-.183.776l-.274.502c-.137.319-.228.685-.228,1.095Z" fill="#999" fill-rule="evenodd" stroke-width="0"/><path d="M152.926,62.809h.411v10.36h.958v2.008h4.062v-2.008h.913v-10.36h.411v-2.51h-6.755v2.51M152.926,46.15h.411v10.315h.958v2.054h4.062v-2.054h.913v-10.315h.411v-2.51h-6.755v2.51ZM152.926,29.446h.411v10.36h.958v2.008h4.062v-2.008h.913v-10.36h.411v-3.286h-6.755v3.286Z" fill="#ccc" fill-rule="evenodd" stroke-width="0"/><path d="M153.885,35.197h4.838c.274,0,.502-.228.502-.502v-7.439c0-.274-.228-.502-.502-.502h-4.838c-.274,0-.502.228-.502.502v7.439c0,.274.228.502.502.502M153.885,52.814h4.838c.274,0,.502-.228.502-.502v-7.439c0-.274-.228-.502-.502-.502h-4.838c-.274,0-.502.228-.502.502v7.439c0,.274.228.502.502.502ZM153.885,70.431h4.838c.274,0,.502-.228.502-.502v-7.439c0-.274-.228-.502-.502-.502h-4.838c-.274,0-.502.228-.502.502v7.439c0,.274.228.502.502.502Z" fill="#cb6c29" fill-rule="evenodd" stroke-width="0"/><rect x="153.383" y="26.753" width="5.842" height="8.443" rx=".502" ry=".502" fill="none" stroke="#986732" stroke-linecap="round" stroke-linejoin="round" stroke-width="0"/><path d="M153.885,33.645h4.838c.137,0,.274-.091.274-.228v-6.161c0-.137-.137-.274-.274-.274h-4.838c-.137,0-.228.137-.228.274v6.161c0,.137.091.228.228.228ZM153.885,51.262h4.838c.137,0,.274-.091.274-.228v-6.161c0-.137-.137-.274-.274-.274h-4.838c-.137,0-.228.137-.228.274v6.161c0,.137.091.228.228.228ZM153.885,68.879h4.838c.137,0,.274-.091.274-.274v-6.116c0-.137-.137-.274-.274-.274h-4.838c-.137,0-.228.137-.228.274v6.116c0,.183.091.274.228.274Z" fill="#333" fill-rule="evenodd" stroke-width="0"/><path d="M153.881,50.492l.74-1.928h.275l.789,1.928h-.291l-.225-.584h-.806l-.211.584h-.271ZM154.437,49.701h.653l-.201-.534c-.061-.162-.107-.295-.137-.4-.024.124-.059.247-.104.368l-.211.565Z" fill="#fff" stroke-width="0"/><path d="M156.714,50.492h-.237v-1.508c-.057.055-.132.109-.224.163-.093.055-.176.095-.25.123v-.229c.133-.062.248-.138.347-.226s.169-.174.21-.258h.153v1.936Z" fill="#fff" stroke-width="0"/><path d="M157.284,49.541c0-.228.023-.411.07-.55.047-.139.117-.246.209-.321.092-.076.209-.113.349-.113.104,0,.194.021.272.062.078.042.143.102.193.18s.091.174.12.287c.029.113.043.265.043.456,0,.226-.023.409-.07.548-.046.139-.116.246-.208.322-.093.076-.209.114-.351.114-.186,0-.332-.066-.438-.2-.127-.16-.19-.421-.19-.784ZM157.528,49.541c0,.316.037.527.111.632.074.105.165.157.274.157s.2-.053.274-.158c.074-.105.111-.316.111-.631,0-.317-.037-.528-.111-.632-.074-.104-.166-.156-.276-.156-.109,0-.196.046-.261.138-.081.118-.122.334-.122.651Z" fill="#fff" stroke-width="0"/><path d="M154.656,32.877l.74-1.928h.275l.789,1.928h-.291l-.225-.584h-.806l-.211.584h-.271ZM155.212,32.085h.653l-.201-.534c-.061-.162-.107-.295-.137-.4-.024.124-.059.247-.104.368l-.211.565Z" fill="#fff" stroke-width="0"/><path d="M156.59,32.431l.227-.021c.02.107.056.185.111.233.054.048.124.072.209.072.073,0,.136-.017.191-.05.055-.033.1-.078.135-.133.035-.056.064-.131.088-.226s.036-.191.036-.289c0-.011,0-.026-.001-.047-.047.075-.112.137-.194.184s-.171.07-.266.07c-.16,0-.295-.058-.405-.174s-.166-.268-.166-.458c0-.195.058-.353.173-.472.115-.12.26-.179.433-.179.125,0,.24.034.344.102.104.067.183.164.237.289.054.125.081.306.081.542,0,.247-.027.443-.081.588-.053.146-.133.257-.238.333-.106.076-.229.114-.372.114-.151,0-.274-.042-.37-.125-.095-.083-.153-.201-.172-.353ZM157.559,31.58c0-.136-.036-.244-.108-.323-.072-.08-.159-.12-.261-.12-.105,0-.197.042-.274.128-.078.086-.117.197-.117.334,0,.123.037.223.111.299.074.077.165.115.274.115s.2-.039.27-.115c.071-.077.106-.183.106-.319Z" fill="#fff" stroke-width="0"/><path d="M153.881,68.113l.74-1.928h.275l.789,1.928h-.291l-.225-.584h-.806l-.211.584h-.271ZM154.437,67.322h.653l-.201-.534c-.061-.162-.107-.295-.137-.4-.024.124-.059.247-.104.368l-.211.565Z" fill="#fff" stroke-width="0"/><path d="M156.714,68.113h-.237v-1.508c-.057.055-.132.109-.224.163-.093.055-.176.095-.25.123v-.229c.133-.062.248-.138.347-.226s.169-.174.21-.258h.153v1.936Z" fill="#fff" stroke-width="0"/><path d="M158.176,68.113h-.237v-1.508c-.057.055-.132.109-.224.163-.093.055-.176.095-.25.123v-.229c.133-.062.248-.138.347-.226s.169-.174.21-.258h.153v1.936Z" fill="#fff" stroke-width="0"/><path d="M156.304,64.543l1.05-1.78h-2.099l1.05,1.78M156.304,46.926l1.05-1.78h-2.099l1.05,1.78ZM156.304,29.355l1.05-1.826h-2.099l1.05,1.826Z" fill="#fff" fill-rule="evenodd" stroke-width="0"/><rect x="66.843" y="60.326" width="85.405" height="15.725" rx="2.16" ry="2.16" fill="#ccc" stroke-width="0"/><rect x="67.078" y="72.431" width="13.277" height="3.377" rx="1.609" ry="1.609" fill="#59595c" stroke-width="0"/><rect x="138.679" y="72.431" width="13.277" height="3.377" rx="1.609" ry="1.609" fill="#59595c" stroke-width="0"/><rect x="268.443" y="10.194" width="85.405" height="15.725" rx="2.16" ry="2.16" fill="#ccc" stroke-width="0"/><rect x="291.048" y="14.321" width="6.961" height="10.884" fill="#235daa" stroke-width="0"/><circle cx="293.98" cy="16.794" r="1.066" fill="#231f20" stroke-width="0"/><circle cx="293.98" cy="20.161" r="1.066" fill="#231f20" stroke-width="0"/><rect x="324.122" y="14.321" width="7.179" height="10.884" fill="#235daa" stroke-width="0"/><rect x="331.006" y="23.443" width="14.008" height="1.762" fill="#235daa" stroke-width="0"/><rect x="344.737" y="14.321" width="7.579" height="10.884" fill="#235daa" stroke-width="0"/><circle cx="328.519" cy="20.161" r="1.066" fill="#231f20" stroke-width="0"/><path d="M298.205,22.713h25.877v-7.591c0-.186-.147-.335-.33-.335h-25.217c-.183,0-.33.149-.33.335v7.591" fill="#fff" fill-rule="evenodd" stroke-width="0"/><rect x="298.205" y="22.565" width="25.877" height="2.499" fill="#fff" stroke-width="0"/><path d="M298.608,21.746h12.242v-6.318c0-.074-.073-.149-.147-.149h-11.912c-.11,0-.183.074-.183.149v6.318Z" fill="#b1c38d" stroke-width="0"/><path d="M311.437,21.746h12.242v-6.318c0-.074-.073-.149-.147-.149h-11.949c-.073,0-.147.074-.147.149v6.318Z" fill="#ffba90" stroke-width="0"/><path d="M304.099,23.944v-.006c0-.334.264-.498.642-.498.173,0,.296.026.416.064v-.038c0-.22-.135-.337-.384-.337-.173,0-.302.038-.442.097l-.097-.278c.173-.076.34-.126.586-.126.231,0,.404.062.513.173.114.111.167.275.167.478v.917h-.346v-.193c-.105.126-.267.226-.504.226-.29,0-.551-.167-.551-.478ZM305.162,23.833v-.105c-.091-.035-.211-.062-.352-.062-.229,0-.363.097-.363.258v.006c0,.149.132.234.302.234.234,0,.413-.135.413-.331Z" fill="#000" stroke-width="0"/><path d="M317.198,24.149v.24h-.357v-2.139h.357v.85c.114-.161.275-.29.527-.29.363,0,.718.287.718.803v.006c0,.513-.352.803-.718.803-.258,0-.419-.129-.527-.272ZM318.082,23.619v-.006c0-.299-.205-.495-.442-.495-.24,0-.451.199-.451.495v.006c0,.296.211.495.451.495.243,0,.442-.19.442-.495Z" fill="#000" stroke-width="0"/><rect x="268.678" y="22.364" width="13.277" height="3.377" rx="1.609" ry="1.609" fill="#59595c" stroke-width="0"/><rect x="340.279" y="22.364" width="13.277" height="3.377" rx="1.609" ry="1.609" fill="#59595c" stroke-width="0"/><path d="M296.542,21.01c0-.091-.091-.183-.183-.183s-.183.091-.183.183.091.183.183.183.183-.091.183-.183Z" fill="#fff" fill-rule="evenodd" stroke-width="0"/><path d="M296.542,19.412c0-.091-.091-.183-.183-.183s-.183.091-.183.183l.091,1.278c.046,0,.046.046.091.046s.091-.046.091-.046l.091-1.278Z" fill="#fff" fill-rule="evenodd" stroke-width="0"/><path d="M326.433,21.01c0-.091-.091-.183-.183-.183s-.183.091-.183.183.091.183.183.183.183-.091.183-.183Z" fill="#231f20" fill-rule="evenodd" stroke-width="0"/><path d="M326.433,19.412c0-.091-.091-.183-.183-.183s-.183.091-.183.183l.091,1.278c.046,0,.046.046.091.046s.091-.046.091-.046l.091-1.278Z" fill="#231f20" fill-rule="evenodd" stroke-width="0"/><rect x="66.843" y="60.326" width="85.405" height="15.725" rx="2.16" ry="2.16" fill="#ccc" stroke-width="0"/><rect x="67.078" y="72.431" width="13.277" height="3.377" rx="1.609" ry="1.609" fill="#59595c" stroke-width="0"/><rect x="138.679" y="72.431" width="13.277" height="3.377" rx="1.609" ry="1.609" fill="#59595c" stroke-width="0"/><rect x="268.443" y="60.326" width="85.405" height="15.725" rx="2.16" ry="2.16" fill="#ccc" stroke-width="0"/><rect x="268.678" y="72.431" width="13.277" height="3.377" rx="1.609" ry="1.609" fill="#59595c" stroke-width="0"/><rect x="340.279" y="72.431" width="13.277" height="3.377" rx="1.609" ry="1.609" fill="#59595c" stroke-width="0"/><rect x="211.443" y="11.138" width="49.478" height="62.888" fill="#262626" stroke-width="0"/><rect x="211.356" y="3.098" width="49.251" height="68.241" rx="3.6" ry="3.6" fill="#ccc" stroke-width="0"/><rect x="245.342" y="12.899" width="11.543" height="48.454" fill="#f1f1f1" stroke-width="0"/><rect x="247.038" y="60.051" width="8.063" height="12.671" fill="#f1f1f1" stroke-width="0"/><path d="M243.569,12.104v15.106c0,.456.365.867.822.867h11.182c.456,0,.867-.411.867-.867v-15.106h-12.871Z" fill="#59595c" stroke-width="0"/><rect x="159.96" y="11.138" width="49.478" height="62.888" fill="#262626" stroke-width="0"/><rect x="159.873" y="3.148" width="49.251" height="68.191" rx="3.6" ry="3.6" fill="#ccc" stroke-width="0"/><rect x="193.858" y="12.899" width="11.543" height="48.454" fill="#f1f1f1" stroke-width="0"/><rect x="195.555" y="60.051" width="8.063" height="12.671" fill="#f1f1f1" stroke-width="0"/><path d="M192.086,16.274v10.936c0,.456.365.867.822.867h11.182c.456,0,.867-.411.867-.867v-10.936h-12.871Z" fill="#59595c" stroke-width="0"/><rect x="285.175" y="78.185" width="70.85" height="30.011" fill="#59595c" stroke-width="0"/><rect x="285.592" y="79.047" width="69.963" height="28.488" rx="3.6" ry="3.6" fill="#ccc" stroke-width="0"/><path d="M353.562,80.472h-49.2c-.137,0-.274.091-.274.228v12.186c0,.183.137.274.274.274h4.975v-5.659c0-.867.685-1.552,1.552-1.552h40.574c1.141,0,2.099-.776,2.099-1.78v-3.697Z" fill="#999" stroke-width="0"/><rect x="302.08" y="81.293" width="2.008" height="11.045" fill="#d66927" stroke-width="0"/><path d="M298.246,93.023l3.834.137v-12.688l-3.834.137c-.228,0-.411.183-.411.411v11.547c0,.228.183.456.411.456Z" fill="#f58022" stroke-width="0"/><path d="M310.888,86.816h42.309c.685,0,1.232-.456,1.232-1.004v-5.112c0-.137-.137-.228-.274-.228h-.593v3.697c0,1.004-.958,1.78-2.099,1.78h-40.574c-.867,0-1.552.685-1.552,1.552v5.659h.593c.137,0,.274-.091.274-.274v-5.386c0-.365.319-.685.685-.685Z" fill="#59595c" stroke-width="0"/><rect x="286.973" y="80.482" width="8.518" height="12.917" rx="1.44" ry="1.44" fill="#59595c" stroke-width="0"/><circle cx="293.013" cy="84.357" r="1.012" fill="#231f20" stroke-width="0"/><circle cx="293.013" cy="89.663" r="1.012" fill="#231f20" stroke-width="0"/><path d="M289.627,90.492c0-.137-.046-.228-.183-.228-.091,0-.183.091-.183.228,0,.091.091.183.183.183.137,0,.183-.091.183-.183Z" fill="#fff" fill-rule="evenodd" stroke-width="0"/><path d="M289.672,88.849c-.046-.091-.091-.183-.228-.183-.091,0-.183.091-.183.228l.137,1.232c0,.046.046.091.091.046,0,0,.046,0,.046-.046l.137-1.278Z" fill="#fff" fill-rule="evenodd" stroke-width="0"/><path d="M290.626,84.374c0-.639-.502-1.141-1.141-1.141s-1.141.502-1.141,1.141.502,1.141,1.141,1.141,1.141-.502,1.141-1.141Z" fill="#fff" fill-rule="evenodd" stroke-width="0"/><path d="M288.572,84.511c-.046-.502.274-.958.776-1.05.456-.046.822.183,1.004.548l-.548.456q-.046.046-.046,0l-.319-.365c-.091-.091-.228-.091-.365,0l-.502.411Z" fill="#59595c" fill-rule="evenodd" stroke-width="0"/><path d="M290.397,84.283c.046.502-.274.958-.776,1.004-.411.046-.822-.183-.958-.548l.548-.456q.046-.046.046,0l.319.365c.091.091.274.091.365,0l.456-.365Z" fill="#59595c" fill-rule="evenodd" stroke-width="0"/><path d="M324.885,103.02h18.014c.592,0,1.073-.444,1.073-1.036v-13.095c0-.555-.481-1.036-1.073-1.036h-18.014c-.592,0-1.073.481-1.073,1.036v13.095c0,.592.481,1.036,1.073,1.036" fill="#999" fill-rule="evenodd" stroke-width="0"/><path d="M329.805,101.503h8.138c.481,0,.888-.185,1.221-.518l3.144-3.292c.296-.296.444-.703.444-1.147v-5.512c0-.925-.74-1.665-1.665-1.665h-14.389c-.925,0-1.702.74-1.702,1.665v5.512c0,.444.185.851.481,1.147l3.144,3.292c.296.333.74.518,1.184.518Z" fill="#231f20" stroke-width="0"/><path d="M344.825,102.262h9.558c.323,0,.605-.282.605-.605v-12.86c0-.322-.282-.605-.605-.605h-9.558c-.363,0-.605.282-.605.605v12.86c0,.322.242.605.605.605Z" fill="#999" stroke-width="0"/><path d="M345.982,98.271v1.895c0,.202.161.363.363.363h6.571c.202,0,.363-.161.363-.363v-1.895s-7.297,0-7.297,0Z" fill="#595a5a" stroke-width="0"/><path d="M345.982,98.271h7.297s0-8.143,0-8.143c0-.202-.161-.363-.363-.363h-6.571c-.202,0-.363.161-.363.363v8.143Z" fill="#6a6a6a" stroke-width="0"/><path d="M349.65,95.086c-.121,0-.242.081-.242.202v1.733c0,.121.121.202.242.202s.202-.081.202-.202v-1.733c0-.121-.081-.202-.202-.202M348.844,92.103c0,.443.363.766.806.766.403,0,.766-.322.766-.766,0-.443-.363-.766-.766-.766-.443,0-.806.322-.806.766ZM348.401,92.103c0,.685.564,1.209,1.25,1.209.645,0,1.209-.524,1.209-1.209,0-.685-.564-1.209-1.209-1.209-.685,0-1.25.524-1.25,1.209Z" fill="#fff" fill-rule="evenodd" stroke-width="0"/><rect x="213.06" y="78.185" width="70.85" height="30.011" fill="#59595c" stroke-width="0"/><rect x="213.477" y="79.047" width="69.963" height="28.488" rx="3.6" ry="3.6" fill="#ccc" stroke-width="0"/><path d="M281.447,80.472h-49.2c-.137,0-.274.091-.274.228v12.186c0,.183.137.274.274.274h4.975v-5.659c0-.867.685-1.552,1.552-1.552h40.574c1.141,0,2.099-.776,2.099-1.78v-3.697Z" fill="#999" stroke-width="0"/><rect x="229.965" y="81.293" width="2.008" height="11.045" fill="#d66927" stroke-width="0"/><path d="M226.131,93.023l3.834.137v-12.688l-3.834.137c-.228,0-.411.183-.411.411v11.547c0,.228.183.456.411.456Z" fill="#f58022" stroke-width="0"/><path d="M238.773,86.816h42.309c.685,0,1.232-.456,1.232-1.004v-5.112c0-.137-.137-.228-.274-.228h-.593v3.697c0,1.004-.958,1.78-2.099,1.78h-40.574c-.867,0-1.552.685-1.552,1.552v5.659h.593c.137,0,.274-.091.274-.274v-5.386c0-.365.319-.685.685-.685Z" fill="#59595c" stroke-width="0"/><rect x="214.858" y="80.482" width="8.518" height="12.917" rx="1.44" ry="1.44" fill="#59595c" stroke-width="0"/><circle cx="220.898" cy="84.357" r="1.012" fill="#231f20" stroke-width="0"/><circle cx="220.898" cy="89.663" r="1.012" fill="#231f20" stroke-width="0"/><path d="M217.512,90.492c0-.137-.046-.228-.183-.228-.091,0-.183.091-.183.228,0,.091.091.183.183.183.137,0,.183-.091.183-.183Z" fill="#fff" fill-rule="evenodd" stroke-width="0"/><path d="M217.557,88.849c-.046-.091-.091-.183-.228-.183-.091,0-.183.091-.183.228l.137,1.232c0,.046.046.091.091.046,0,0,.046,0,.046-.046l.137-1.278Z" fill="#fff" fill-rule="evenodd" stroke-width="0"/><path d="M218.51,84.374c0-.639-.502-1.141-1.141-1.141s-1.141.502-1.141,1.141.502,1.141,1.141,1.141,1.141-.502,1.141-1.141Z" fill="#fff" fill-rule="evenodd" stroke-width="0"/><path d="M216.457,84.511c-.046-.502.274-.958.776-1.05.456-.046.822.183,1.004.548l-.548.456q-.046.046-.046,0l-.319-.365c-.091-.091-.228-.091-.365,0l-.502.411Z" fill="#59595c" fill-rule="evenodd" stroke-width="0"/><path d="M218.282,84.283c.046.502-.274.958-.776,1.004-.411.046-.822-.183-.958-.548l.548-.456q.046-.046.046,0l.319.365c.091.091.274.091.365,0l.456-.365Z" fill="#59595c" fill-rule="evenodd" stroke-width="0"/><path d="M252.77,103.02h18.014c.592,0,1.073-.444,1.073-1.036v-13.095c0-.555-.481-1.036-1.073-1.036h-18.014c-.592,0-1.073.481-1.073,1.036v13.095c0,.592.481,1.036,1.073,1.036" fill="#999" fill-rule="evenodd" stroke-width="0"/><path d="M257.689,101.503h8.138c.481,0,.888-.185,1.221-.518l3.144-3.292c.296-.296.444-.703.444-1.147v-5.512c0-.925-.74-1.665-1.665-1.665h-14.389c-.925,0-1.702.74-1.702,1.665v5.512c0,.444.185.851.481,1.147l3.144,3.292c.296.333.74.518,1.184.518Z" fill="#231f20" stroke-width="0"/><path d="M272.71,102.262h9.558c.323,0,.605-.282.605-.605v-12.86c0-.322-.282-.605-.605-.605h-9.558c-.363,0-.605.282-.605.605v12.86c0,.322.242.605.605.605Z" fill="#999" stroke-width="0"/><path d="M273.867,98.271v1.895c0,.202.161.363.363.363h6.571c.202,0,.363-.161.363-.363v-1.895s-7.297,0-7.297,0Z" fill="#595a5a" stroke-width="0"/><path d="M273.867,98.271h7.297s0-8.143,0-8.143c0-.202-.161-.363-.363-.363h-6.571c-.202,0-.363.161-.363.363v8.143Z" fill="#6a6a6a" stroke-width="0"/><path d="M277.535,95.086c-.121,0-.242.081-.242.202v1.733c0,.121.121.202.242.202s.202-.081.202-.202v-1.733c0-.121-.081-.202-.202-.202M276.729,92.103c0,.443.363.766.806.766.403,0,.766-.322.766-.766,0-.443-.363-.766-.766-.766-.443,0-.806.322-.806.766ZM276.285,92.103c0,.685.564,1.209,1.25,1.209.645,0,1.209-.524,1.209-1.209,0-.685-.564-1.209-1.209-1.209-.685,0-1.25.524-1.25,1.209Z" fill="#fff" fill-rule="evenodd" stroke-width="0"/><rect x="137.586" y="78.185" width="70.85" height="30.011" fill="#59595c" stroke-width="0"/><rect x="138.003" y="79.047" width="69.963" height="28.488" rx="3.6" ry="3.6" fill="#ccc" stroke-width="0"/><path d="M205.973,80.472h-49.2c-.137,0-.274.091-.274.228v12.186c0,.183.137.274.274.274h4.975v-5.659c0-.867.685-1.552,1.552-1.552h40.574c1.141,0,2.099-.776,2.099-1.78v-3.697Z" fill="#999" stroke-width="0"/><rect x="154.491" y="81.293" width="2.008" height="11.045" fill="#d66927" stroke-width="0"/><path d="M150.657,93.023l3.834.137v-12.688l-3.834.137c-.228,0-.411.183-.411.411v11.547c0,.228.183.456.411.456Z" fill="#f58022" stroke-width="0"/><path d="M163.299,86.816h42.309c.685,0,1.232-.456,1.232-1.004v-5.112c0-.137-.137-.228-.274-.228h-.593v3.697c0,1.004-.958,1.78-2.099,1.78h-40.574c-.867,0-1.552.685-1.552,1.552v5.659h.593c.137,0,.274-.091.274-.274v-5.386c0-.365.319-.685.685-.685Z" fill="#59595c" stroke-width="0"/><rect x="139.384" y="80.482" width="8.518" height="12.917" rx="1.44" ry="1.44" fill="#59595c" stroke-width="0"/><circle cx="145.424" cy="84.357" r="1.012" fill="#231f20" stroke-width="0"/><circle cx="145.424" cy="89.663" r="1.012" fill="#231f20" stroke-width="0"/><path d="M142.038,90.492c0-.137-.046-.228-.183-.228-.091,0-.183.091-.183.228,0,.091.091.183.183.183.137,0,.183-.091.183-.183Z" fill="#fff" fill-rule="evenodd" stroke-width="0"/><path d="M142.083,88.849c-.046-.091-.091-.183-.228-.183-.091,0-.183.091-.183.228l.137,1.232c0,.046.046.091.091.046,0,0,.046,0,.046-.046l.137-1.278Z" fill="#fff" fill-rule="evenodd" stroke-width="0"/><path d="M143.036,84.374c0-.639-.502-1.141-1.141-1.141s-1.141.502-1.141,1.141.502,1.141,1.141,1.141,1.141-.502,1.141-1.141Z" fill="#fff" fill-rule="evenodd" stroke-width="0"/><path d="M140.983,84.511c-.046-.502.274-.958.776-1.05.456-.046.822.183,1.004.548l-.548.456q-.046.046-.046,0l-.319-.365c-.091-.091-.228-.091-.365,0l-.502.411Z" fill="#59595c" fill-rule="evenodd" stroke-width="0"/><path d="M142.808,84.283c.046.502-.274.958-.776,1.004-.411.046-.822-.183-.958-.548l.548-.456q.046-.046.046,0l.319.365c.091.091.274.091.365,0l.456-.365Z" fill="#59595c" fill-rule="evenodd" stroke-width="0"/><path d="M177.296,103.02h18.014c.592,0,1.073-.444,1.073-1.036v-13.095c0-.555-.481-1.036-1.073-1.036h-18.014c-.592,0-1.073.481-1.073,1.036v13.095c0,.592.481,1.036,1.073,1.036" fill="#999" fill-rule="evenodd" stroke-width="0"/><path d="M182.216,101.503h8.138c.481,0,.888-.185,1.221-.518l3.144-3.292c.296-.296.444-.703.444-1.147v-5.512c0-.925-.74-1.665-1.665-1.665h-14.389c-.925,0-1.702.74-1.702,1.665v5.512c0,.444.185.851.481,1.147l3.144,3.292c.296.333.74.518,1.184.518Z" fill="#231f20" stroke-width="0"/><path d="M197.236,102.262h9.558c.323,0,.605-.282.605-.605v-12.86c0-.322-.282-.605-.605-.605h-9.558c-.363,0-.605.282-.605.605v12.86c0,.322.242.605.605.605Z" fill="#999" stroke-width="0"/><path d="M198.393,98.271v1.895c0,.202.161.363.363.363h6.571c.202,0,.363-.161.363-.363v-1.895s-7.297,0-7.297,0Z" fill="#595a5a" stroke-width="0"/><path d="M198.393,98.271h7.297s0-8.143,0-8.143c0-.202-.161-.363-.363-.363h-6.571c-.202,0-.363.161-.363.363v8.143Z" fill="#6a6a6a" stroke-width="0"/><path d="M202.061,95.086c-.121,0-.242.081-.242.202v1.733c0,.121.121.202.242.202s.202-.081.202-.202v-1.733c0-.121-.081-.202-.202-.202M201.255,92.103c0,.443.363.766.806.766.403,0,.766-.322.766-.766,0-.443-.363-.766-.766-.766-.443,0-.806.322-.806.766ZM200.812,92.103c0,.685.564,1.209,1.25,1.209.645,0,1.209-.524,1.209-1.209,0-.685-.564-1.209-1.209-1.209-.685,0-1.25.524-1.25,1.209Z" fill="#fff" fill-rule="evenodd" stroke-width="0"/><rect x="64.878" y="78.185" width="70.85" height="30.011" fill="#59595c" stroke-width="0"/><rect x="65.295" y="79.047" width="69.963" height="28.488" rx="3.6" ry="3.6" fill="#ccc" stroke-width="0"/><path d="M133.265,80.472h-49.2c-.137,0-.274.091-.274.228v12.186c0,.183.137.274.274.274h4.975v-5.659c0-.867.685-1.552,1.552-1.552h40.574c1.141,0,2.099-.776,2.099-1.78v-3.697Z" fill="#999" stroke-width="0"/><rect x="81.783" y="81.293" width="2.008" height="11.045" fill="#d66927" stroke-width="0"/><path d="M77.949,93.023l3.834.137v-12.688l-3.834.137c-.228,0-.411.183-.411.411v11.547c0,.228.183.456.411.456Z" fill="#f58022" stroke-width="0"/><path d="M90.591,86.816h42.309c.685,0,1.232-.456,1.232-1.004v-5.112c0-.137-.137-.228-.274-.228h-.593v3.697c0,1.004-.958,1.78-2.099,1.78h-40.574c-.867,0-1.552.685-1.552,1.552v5.659h.593c.137,0,.274-.091.274-.274v-5.386c0-.365.319-.685.685-.685Z" fill="#59595c" stroke-width="0"/><rect x="66.676" y="80.482" width="8.518" height="12.917" rx="1.44" ry="1.44" fill="#59595c" stroke-width="0"/><circle cx="72.716" cy="84.357" r="1.012" fill="#999" stroke-width="0"/><circle cx="72.716" cy="89.663" r="1.012" fill="#231f20" stroke-width="0"/><path d="M69.33,90.492c0-.137-.046-.228-.183-.228-.091,0-.183.091-.183.228,0,.091.091.183.183.183.137,0,.183-.091.183-.183Z" fill="#fff" fill-rule="evenodd" stroke-width="0"/><path d="M69.376,88.849c-.046-.091-.091-.183-.228-.183-.091,0-.183.091-.183.228l.137,1.232c0,.046.046.091.091.046,0,0,.046,0,.046-.046l.137-1.278Z" fill="#fff" fill-rule="evenodd" stroke-width="0"/><path d="M70.329,84.374c0-.639-.502-1.141-1.141-1.141s-1.141.502-1.141,1.141.502,1.141,1.141,1.141,1.141-.502,1.141-1.141Z" fill="#fff" fill-rule="evenodd" stroke-width="0"/><path d="M68.275,84.511c-.046-.502.274-.958.776-1.05.456-.046.822.183,1.004.548l-.548.456q-.046.046-.046,0l-.319-.365c-.091-.091-.228-.091-.365,0l-.502.411Z" fill="#59595c" fill-rule="evenodd" stroke-width="0"/><path d="M70.1,84.283c.046.502-.274.958-.776,1.004-.411.046-.822-.183-.958-.548l.548-.456q.046-.046.046,0l.319.365c.091.091.274.091.365,0l.456-.365Z" fill="#59595c" fill-rule="evenodd" stroke-width="0"/><path d="M104.588,103.02h18.014c.592,0,1.073-.444,1.073-1.036v-13.095c0-.555-.481-1.036-1.073-1.036h-18.014c-.592,0-1.073.481-1.073,1.036v13.095c0,.592.481,1.036,1.073,1.036" fill="#999" fill-rule="evenodd" stroke-width="0"/><path d="M109.508,101.503h8.138c.481,0,.888-.185,1.221-.518l3.144-3.292c.296-.296.444-.703.444-1.147v-5.512c0-.925-.74-1.665-1.665-1.665h-14.389c-.925,0-1.702.74-1.702,1.665v5.512c0,.444.185.851.481,1.147l3.144,3.292c.296.333.74.518,1.184.518Z" fill="#231f20" stroke-width="0"/><path d="M124.528,102.262h9.558c.323,0,.605-.282.605-.605v-12.86c0-.322-.282-.605-.605-.605h-9.558c-.363,0-.605.282-.605.605v12.86c0,.322.242.605.605.605Z" fill="#999" stroke-width="0"/><path d="M125.685,98.271v1.895c0,.202.161.363.363.363h6.571c.202,0,.363-.161.363-.363v-1.895s-7.297,0-7.297,0Z" fill="#595a5a" stroke-width="0"/><path d="M125.685,98.271h7.297s0-8.143,0-8.143c0-.202-.161-.363-.363-.363h-6.571c-.202,0-.363.161-.363.363v8.143Z" fill="#6a6a6a" stroke-width="0"/><path d="M129.353,95.086c-.121,0-.242.081-.242.202v1.733c0,.121.121.202.242.202s.202-.081.202-.202v-1.733c0-.121-.081-.202-.202-.202M128.547,92.103c0,.443.363.766.806.766.403,0,.766-.322.766-.766,0-.443-.363-.766-.766-.766-.443,0-.806.322-.806.766ZM128.104,92.103c0,.685.564,1.209,1.25,1.209.645,0,1.209-.524,1.209-1.209,0-.685-.564-1.209-1.209-1.209-.685,0-1.25.524-1.25,1.209Z" fill="#fff" fill-rule="evenodd" stroke-width="0"/><rect x="209.169" y="78.772" width="3.334" height="29.135" fill="#333" stroke-width="0"/><rect x="62.516" y="15.424" width="296.129" height="95.492" fill="none" stroke="#ccc" stroke-linecap="round" stroke-linejoin="round" stroke-width=".879"/><rect x="64.786" y="17.996" width="1.067" height="58.944" fill="#ccc" stroke-width="0"/><rect x="355.344" y="17.996" width="1.067" height="58.944" fill="#ccc" stroke-width="0"/><rect x="66.843" y="27.083" width="85.405" height="15.725" rx="2.16" ry="2.16" fill="#ccc" stroke-width="0"/><rect x="83.157" y="39.251" width="19.889" height="2.31" fill="#fff" stroke-width="0"/><path d="M83.157,39.364h19.889v-7.446c0-.141-.113-.254-.254-.254h-19.382c-.141,0-.254.113-.254.254v7.446" fill="#fff" fill-rule="evenodd" stroke-width="0"/><path d="M83.466,38.631h9.409v-6.234c0-.056-.056-.113-.113-.113h-9.156c-.085,0-.141.056-.141.113v6.234Z" fill="#ffba90" stroke-width="0"/><path d="M93.327,38.631h9.409v-6.234c0-.056-.056-.113-.113-.113h-9.184c-.056,0-.113.056-.113.113v6.234Z" fill="#231f20" stroke-width="0"/><path d="M87.296,40.898v-.006c0-.334.264-.498.642-.498.173,0,.296.026.416.064v-.038c0-.22-.135-.337-.384-.337-.173,0-.302.038-.442.097l-.097-.278c.173-.076.34-.126.586-.126.231,0,.404.062.513.173.114.111.167.275.167.478v.917h-.346v-.193c-.105.126-.267.226-.504.226-.29,0-.551-.167-.551-.478ZM88.359,40.787v-.105c-.091-.035-.211-.062-.352-.062-.229,0-.363.097-.363.258v.006c0,.149.132.234.302.234.234,0,.413-.135.413-.331Z" fill="#000" stroke-width="0"/><path d="M97.29,41.103v.24h-.357v-2.139h.357v.85c.114-.161.275-.29.527-.29.363,0,.718.287.718.803v.006c0,.513-.352.803-.718.803-.258,0-.419-.129-.527-.272ZM98.175,40.573v-.006c0-.299-.205-.495-.442-.495-.24,0-.451.199-.451.495v.006c0,.296.211.495.451.495.243,0,.442-.19.442-.495Z" fill="#000" stroke-width="0"/><rect x="116.15" y="39.251" width="19.889" height="2.31" fill="#fff" stroke-width="0"/><path d="M116.15,39.364h19.889v-7.446c0-.141-.113-.254-.254-.254h-19.382c-.141,0-.254.113-.254.254v7.446" fill="#fff" fill-rule="evenodd" stroke-width="0"/><path d="M116.46,38.631h9.409v-6.234c0-.056-.056-.113-.113-.113h-9.156c-.085,0-.141.056-.141.113v6.234Z" fill="#ffba90" stroke-width="0"/><path d="M126.32,38.631h9.409v-6.234c0-.056-.056-.113-.113-.113h-9.184c-.056,0-.113.056-.113.113v6.234Z" fill="#231f20" stroke-width="0"/><path d="M120.31,40.579v-.006c0-.439.34-.809.806-.809.29,0,.472.108.618.267l-.223.237c-.108-.111-.223-.193-.398-.193-.258,0-.448.223-.448.492v.006c0,.275.19.495.463.495.167,0,.287-.076.401-.19l.214.211c-.152.17-.331.29-.633.29-.46,0-.8-.36-.8-.8Z" fill="#000" stroke-width="0"/><path d="M129.85,40.573v-.006c0-.513.349-.803.718-.803.255,0,.416.126.527.272v-.832h.354v2.139h-.354v-.258c-.114.161-.275.29-.527.29-.363,0-.718-.29-.718-.803ZM131.101,40.573v-.006c0-.299-.211-.495-.448-.495-.243,0-.445.19-.445.495v.006c0,.299.205.495.445.495.237,0,.448-.199.448-.495Z" fill="#000" stroke-width="0"/><rect x="75.973" y="31.175" width="6.961" height="10.884" fill="#235daa" stroke-width="0"/><rect x="103.057" y="31.774" width="13.084" height="10.286" fill="#235daa" stroke-width="0"/><rect x="136.217" y="31.241" width="14.47" height="10.819" fill="#235daa" stroke-width="0"/><rect x="67.078" y="39.189" width="13.277" height="3.377" rx="1.609" ry="1.609" fill="#59595c" stroke-width="0"/><rect x="138.679" y="39.189" width="13.277" height="3.377" rx="1.609" ry="1.609" fill="#59595c" stroke-width="0"/><circle cx="78.906" cy="33.649" r="1.066" fill="#231f20" stroke-width="0"/><circle cx="78.906" cy="37.016" r="1.066" fill="#231f20" stroke-width="0"/><circle cx="105.474" cy="33.649" r="1.066" fill="#231f20" stroke-width="0"/><circle cx="105.474" cy="37.016" r="1.066" fill="#231f20" stroke-width="0"/><circle cx="113.946" cy="33.649" r="1.066" fill="#231f20" stroke-width="0"/><circle cx="113.946" cy="37.016" r="1.066" fill="#231f20" stroke-width="0"/><circle cx="140.19" cy="33.649" r="1.066" fill="#231f20" stroke-width="0"/><circle cx="140.19" cy="37.016" r="1.066" fill="#231f20" stroke-width="0"/><circle cx="146.042" cy="37.016" r="1.066" fill="#231f20" stroke-width="0"/><path d="M146.924,32.076c.046,0,.046.046.046.091,0,0,0,.046-.046.046s-.046-.046-.046-.091h-.091c0,.091.046.137.137.137s.137-.046.137-.137c0-.046,0-.091-.091-.091l-.046-.046q-.046,0-.046-.046t.046-.046.046.046h.091c0-.091-.046-.091-.137-.091s-.137,0-.137.091.046.137.137.137M146.787,32.806h.091v-.091h.137v.091h.091l-.091-.411h-.137l-.091.411ZM146.924,32.486l.046.183h-.091l.046-.183ZM146.924,32.486,145.418,32.852v.137h-.548v-.32h.274v-.228h-.274v-.319h.548v.73ZM146.377,32.03c0-.046-.046-.046-.046-.046q-.046,0-.046.046s0,.046.046.046l.046-.046ZM146.194,32.076v-.046c-.046,0-.046.046-.046.046q0,.046.046.046v-.046ZM146.057,32.167q0-.046-.046-.046s-.046,0-.046.046l.046.046c.046,0,.046-.046.046-.046ZM145.92,32.213s0-.046-.046-.046l-.046.046c0,.046.046.046.046.046q.046,0,.046-.046ZM145.783,32.304q0-.046-.046-.046-.046,0-.046.046s0,.046.046.046.046-.046.046-.046ZM145.646,32.35l-.046-.046c-.046,0-.046.046-.046.046q0,.046.046.046s.046,0,.046-.046ZM146.605,32.532s0-.046-.046-.046l-.046.046c0,.046.046.046.046.046q.046,0,.046-.046ZM146.468,32.532l-.046-.046c-.046,0-.046.046-.046.046q0,.046.046.046s.046,0,.046-.046ZM146.285,32.532s0-.046-.046-.046l-.046.046c0,.046.046.046.046.046q.046,0,.046-.046ZM146.149,32.532l-.046-.046c-.046,0-.046.046-.046.046q0,.046.046.046s.046,0,.046-.046ZM145.966,32.532s0-.046-.046-.046l-.046.046c0,.046.046.046.046.046q.046,0,.046-.046ZM145.829,32.532l-.046-.046c-.046,0-.046.046-.046.046q0,.046.046.046s.046,0,.046-.046ZM145.646,32.532s0-.046-.046-.046l-.046.046c0,.046.046.046.046.046q.046,0,.046-.046ZM146.377,33.08c0-.046-.046-.046-.046-.046q-.046,0-.046.046s0,.046.046.046l.046-.046ZM146.194,32.989v-.046c-.046,0-.046.046-.046.046q0,.046.046.046v-.046ZM146.057,32.943q0-.046-.046-.046s-.046,0-.046.046l.046.046c.046,0,.046-.046.046-.046ZM145.92,32.852s0-.046-.046-.046l-.046.046c0,.046.046.046.046.046q.046,0,.046-.046ZM145.783,32.806q0-.046-.046-.046-.046,0-.046.046s0,.046.046.046.046-.046.046-.046ZM145.646,32.715h-.091q0,.046.046.046s.046,0,.046-.046ZM145.829,33.08l-.365-.274v-.091l.046-.046-.046-.046v-.046s.046,0,.046-.046q-.046,0-.046-.046l.046-.046-.046-.046v-.091l.365-.274v.046l.228-.274-.319.137h.046l-.319.228v-.137h-.685v.411h-.274v.228h.274v.411h.685v-.183l.319.228-.046.046.319.137-.228-.274v.046ZM146.924,33.171q.046.046.046.091,0,.046-.046.046-.046,0-.046-.046v-.046h-.091v.046c0,.046.046.091.137.091s.137,0,.137-.091,0-.091-.091-.137h-.046q-.046-.046-.046-.091s0-.046.046-.046.046.046.046.091h.091v-.046c0-.046-.046-.091-.137-.091s-.137.046-.137.137c0,.046.046.091.137.091ZM142.604,37.598c0-.091-.091-.183-.183-.183s-.183.091-.183.183c0,.137.091.228.183.228s.183-.091.183-.228ZM142.604,36.001c0-.091-.091-.183-.183-.183s-.183.091-.183.183v.046l.091,1.232c0,.046.046.046.091.046s.091,0,.091-.046l.091-1.278ZM148.415,37.598c0-.091-.091-.183-.183-.183s-.183.091-.183.183c0,.137.091.228.183.228s.183-.091.183-.228ZM148.415,36.001c0-.091-.091-.183-.183-.183s-.183.091-.183.183v.046l.091,1.232c0,.046.046.046.091.046s.091,0,.091-.046l.091-1.278ZM112.095,37.781c0-.091-.091-.183-.183-.183s-.183.091-.183.183.091.183.183.183.183-.091.183-.183ZM112.095,36.183c0-.091-.091-.183-.183-.183s-.183.091-.183.183l.091,1.278c.046,0,.046.046.091.046s.091-.046.091-.046l.091-1.278ZM107.849,37.781c0-.091-.091-.183-.183-.183s-.183.091-.183.183.091.183.183.183.183-.091.183-.183ZM107.849,36.183c0-.091-.091-.183-.183-.183s-.183.091-.183.183l.091,1.278c.046,0,.046.046.091.046s.091-.046.091-.046l.091-1.278ZM81.385,37.781c0-.091-.046-.183-.183-.183-.091,0-.183.091-.183.183s.091.183.183.183c.137,0,.183-.091.183-.183ZM81.385,36.183c0-.091-.091-.183-.183-.183s-.183.091-.183.183l.137,1.278.046.046c.046,0,.091-.046.091-.046l.091-1.278Z" fill="#fff" fill-rule="evenodd" stroke-width="0"/><rect x="268.443" y="27.083" width="85.405" height="15.725" rx="2.16" ry="2.16" fill="#ccc" stroke-width="0"/><rect x="284.757" y="39.251" width="19.889" height="2.31" fill="#fff" stroke-width="0"/><path d="M284.757,39.364h19.889v-7.446c0-.141-.113-.254-.254-.254h-19.382c-.141,0-.254.113-.254.254v7.446" fill="#fff" fill-rule="evenodd" stroke-width="0"/><path d="M285.067,38.631h9.409v-6.234c0-.056-.056-.113-.113-.113h-9.156c-.085,0-.141.056-.141.113v6.234Z" fill="#ffba90" stroke-width="0"/><path d="M294.927,38.631h9.409v-6.234c0-.056-.056-.113-.113-.113h-9.184c-.056,0-.113.056-.113.113v6.234Z" fill="#231f20" stroke-width="0"/><path d="M288.897,40.898v-.006c0-.334.264-.498.642-.498.173,0,.296.026.416.064v-.038c0-.22-.135-.337-.384-.337-.173,0-.302.038-.442.097l-.097-.278c.173-.076.34-.126.586-.126.231,0,.404.062.513.173.114.111.167.275.167.478v.917h-.346v-.193c-.105.126-.267.226-.504.226-.29,0-.551-.167-.551-.478ZM289.96,40.787v-.105c-.091-.035-.211-.062-.352-.062-.229,0-.363.097-.363.258v.006c0,.149.132.234.302.234.234,0,.413-.135.413-.331Z" fill="#000" stroke-width="0"/><path d="M298.89,41.103v.24h-.357v-2.139h.357v.85c.114-.161.275-.29.527-.29.363,0,.718.287.718.803v.006c0,.513-.352.803-.718.803-.258,0-.419-.129-.527-.272ZM299.775,40.573v-.006c0-.299-.205-.495-.442-.495-.24,0-.451.199-.451.495v.006c0,.296.211.495.451.495.243,0,.442-.19.442-.495Z" fill="#000" stroke-width="0"/><rect x="317.75" y="39.251" width="19.889" height="2.31" fill="#fff" stroke-width="0"/><path d="M317.75,39.364h19.889v-7.446c0-.141-.113-.254-.254-.254h-19.382c-.141,0-.254.113-.254.254v7.446" fill="#fff" fill-rule="evenodd" stroke-width="0"/><path d="M318.06,38.631h9.409v-6.234c0-.056-.056-.113-.113-.113h-9.156c-.085,0-.141.056-.141.113v6.234Z" fill="#ffba90" stroke-width="0"/><path d="M327.92,38.631h9.409v-6.234c0-.056-.056-.113-.113-.113h-9.184c-.056,0-.113.056-.113.113v6.234Z" fill="#231f20" stroke-width="0"/><path d="M321.909,40.579v-.006c0-.439.34-.809.806-.809.29,0,.472.108.618.267l-.223.237c-.108-.111-.223-.193-.398-.193-.258,0-.448.223-.448.492v.006c0,.275.19.495.463.495.167,0,.287-.076.401-.19l.214.211c-.152.17-.331.29-.633.29-.46,0-.8-.36-.8-.8Z" fill="#000" stroke-width="0"/><path d="M331.45,40.573v-.006c0-.513.349-.803.718-.803.255,0,.416.126.527.272v-.832h.354v2.139h-.354v-.258c-.114.161-.275.29-.527.29-.363,0-.718-.29-.718-.803ZM332.7,40.573v-.006c0-.299-.211-.495-.448-.495-.243,0-.445.19-.445.495v.006c0,.299.205.495.445.495.237,0,.448-.199.448-.495Z" fill="#000" stroke-width="0"/><rect x="277.573" y="31.175" width="6.961" height="10.884" fill="#235daa" stroke-width="0"/><rect x="304.658" y="31.774" width="13.084" height="10.286" fill="#235daa" stroke-width="0"/><rect x="337.817" y="31.241" width="14.47" height="10.819" fill="#235daa" stroke-width="0"/><rect x="268.678" y="39.189" width="13.277" height="3.377" rx="1.609" ry="1.609" fill="#59595c" stroke-width="0"/><rect x="340.279" y="39.189" width="13.277" height="3.377" rx="1.609" ry="1.609" fill="#59595c" stroke-width="0"/><circle cx="280.506" cy="33.649" r="1.066" fill="#231f20" stroke-width="0"/><circle cx="280.506" cy="37.016" r="1.066" fill="#231f20" stroke-width="0"/><circle cx="307.074" cy="33.649" r="1.066" fill="#231f20" stroke-width="0"/><circle cx="307.074" cy="37.016" r="1.066" fill="#231f20" stroke-width="0"/><circle cx="315.546" cy="33.649" r="1.066" fill="#231f20" stroke-width="0"/><circle cx="315.546" cy="37.016" r="1.066" fill="#231f20" stroke-width="0"/><circle cx="341.79" cy="33.649" r="1.066" fill="#231f20" stroke-width="0"/><circle cx="341.79" cy="37.016" r="1.066" fill="#231f20" stroke-width="0"/><circle cx="347.642" cy="37.016" r="1.066" fill="#231f20" stroke-width="0"/><path d="M348.525,32.076c.046,0,.046.046.046.091,0,0,0,.046-.046.046s-.046-.046-.046-.091h-.091c0,.091.046.137.137.137s.137-.046.137-.137c0-.046,0-.091-.091-.091l-.046-.046q-.046,0-.046-.046t.046-.046.046.046h.091c0-.091-.046-.091-.137-.091s-.137,0-.137.091.046.137.137.137M348.388,32.806h.091v-.091h.137v.091h.091l-.091-.411h-.137l-.091.411ZM348.525,32.486l.046.183h-.091l.046-.183ZM348.525,32.486,347.018,32.852v.137h-.548v-.32h.274v-.228h-.274v-.319h.548v.73ZM347.977,32.03c0-.046-.046-.046-.046-.046q-.046,0-.046.046s0,.046.046.046l.046-.046ZM347.794,32.076v-.046c-.046,0-.046.046-.046.046q0,.046.046.046v-.046ZM347.657,32.167q0-.046-.046-.046s-.046,0-.046.046l.046.046c.046,0,.046-.046.046-.046ZM347.521,32.213s0-.046-.046-.046l-.046.046c0,.046.046.046.046.046q.046,0,.046-.046ZM347.384,32.304q0-.046-.046-.046-.046,0-.046.046s0,.046.046.046.046-.046.046-.046ZM347.247,32.35l-.046-.046c-.046,0-.046.046-.046.046q0,.046.046.046s.046,0,.046-.046ZM348.205,32.532s0-.046-.046-.046l-.046.046c0,.046.046.046.046.046q.046,0,.046-.046ZM348.068,32.532l-.046-.046c-.046,0-.046.046-.046.046q0,.046.046.046s.046,0,.046-.046ZM347.886,32.532s0-.046-.046-.046l-.046.046c0,.046.046.046.046.046q.046,0,.046-.046ZM347.749,32.532l-.046-.046c-.046,0-.046.046-.046.046q0,.046.046.046s.046,0,.046-.046ZM347.566,32.532s0-.046-.046-.046l-.046.046c0,.046.046.046.046.046q.046,0,.046-.046ZM347.429,32.532l-.046-.046c-.046,0-.046.046-.046.046q0,.046.046.046s.046,0,.046-.046ZM347.247,32.532s0-.046-.046-.046l-.046.046c0,.046.046.046.046.046q.046,0,.046-.046ZM347.977,33.08c0-.046-.046-.046-.046-.046q-.046,0-.046.046s0,.046.046.046l.046-.046ZM347.794,32.989v-.046c-.046,0-.046.046-.046.046q0,.046.046.046v-.046ZM347.657,32.943q0-.046-.046-.046s-.046,0-.046.046l.046.046c.046,0,.046-.046.046-.046ZM347.521,32.852s0-.046-.046-.046l-.046.046c0,.046.046.046.046.046q.046,0,.046-.046ZM347.384,32.806q0-.046-.046-.046-.046,0-.046.046s0,.046.046.046.046-.046.046-.046ZM347.247,32.715h-.091q0,.046.046.046s.046,0,.046-.046ZM347.429,33.08l-.365-.274v-.091l.046-.046-.046-.046v-.046s.046,0,.046-.046q-.046,0-.046-.046l.046-.046-.046-.046v-.091l.365-.274v.046l.228-.274-.319.137h.046l-.319.228v-.137h-.685v.411h-.274v.228h.274v.411h.685v-.183l.319.228-.046.046.319.137-.228-.274v.046ZM348.525,33.171q.046.046.046.091,0,.046-.046.046-.046,0-.046-.046v-.046h-.091v.046c0,.046.046.091.137.091s.137,0,.137-.091,0-.091-.091-.137h-.046q-.046-.046-.046-.091s0-.046.046-.046.046.046.046.091h.091v-.046c0-.046-.046-.091-.137-.091s-.137.046-.137.137c0,.046.046.091.137.091ZM344.205,37.598c0-.091-.091-.183-.183-.183s-.183.091-.183.183c0,.137.091.228.183.228s.183-.091.183-.228ZM344.205,36.001c0-.091-.091-.183-.183-.183s-.183.091-.183.183v.046l.091,1.232c0,.046.046.046.091.046s.091,0,.091-.046l.091-1.278ZM350.015,37.598c0-.091-.091-.183-.183-.183s-.183.091-.183.183c0,.137.091.228.183.228s.183-.091.183-.228ZM350.015,36.001c0-.091-.091-.183-.183-.183s-.183.091-.183.183v.046l.091,1.232c0,.046.046.046.091.046s.091,0,.091-.046l.091-1.278ZM313.695,37.781c0-.091-.091-.183-.183-.183s-.183.091-.183.183.091.183.183.183.183-.091.183-.183ZM313.695,36.183c0-.091-.091-.183-.183-.183s-.183.091-.183.183l.091,1.278c.046,0,.046.046.091.046s.091-.046.091-.046l.091-1.278ZM309.45,37.781c0-.091-.091-.183-.183-.183s-.183.091-.183.183.091.183.183.183.183-.091.183-.183ZM309.45,36.183c0-.091-.091-.183-.183-.183s-.183.091-.183.183l.091,1.278c.046,0,.046.046.091.046s.091-.046.091-.046l.091-1.278ZM282.985,37.781c0-.091-.046-.183-.183-.183-.091,0-.183.091-.183.183s.091.183.183.183c.137,0,.183-.091.183-.183ZM282.985,36.183c0-.091-.091-.183-.183-.183s-.183.091-.183.183l.137,1.278.046.046c.046,0,.091-.046.091-.046l.091-1.278Z" fill="#fff" fill-rule="evenodd" stroke-width="0"/><rect x="66.843" y="43.524" width="85.405" height="15.725" rx="2.16" ry="2.16" fill="#ccc" stroke-width="0"/><rect x="89.447" y="47.651" width="6.961" height="10.884" fill="#235daa" stroke-width="0"/><circle cx="92.38" cy="50.124" r="1.066" fill="#231f20" stroke-width="0"/><circle cx="92.38" cy="53.491" r="1.066" fill="#231f20" stroke-width="0"/><rect x="122.521" y="47.651" width="7.179" height="10.884" fill="#235daa" stroke-width="0"/><rect x="129.406" y="56.773" width="14.008" height="1.762" fill="#235daa" stroke-width="0"/><rect x="143.137" y="47.651" width="7.579" height="10.884" fill="#235daa" stroke-width="0"/><circle cx="126.919" cy="50.124" r="1.066" fill="#231f20" stroke-width="0"/><circle cx="126.919" cy="53.491" r="1.066" fill="#231f20" stroke-width="0"/><circle cx="145.399" cy="53.173" r="1.066" fill="#231f20" stroke-width="0"/><path d="M96.605,56.043h25.877v-7.591c0-.186-.147-.335-.33-.335h-25.217c-.183,0-.33.149-.33.335v7.591" fill="#fff" fill-rule="evenodd" stroke-width="0"/><rect x="96.605" y="55.895" width="25.877" height="2.499" fill="#fff" stroke-width="0"/><path d="M97.008,55.076h12.242v-6.318c0-.074-.073-.149-.147-.149h-11.912c-.11,0-.183.074-.183.149v6.318Z" fill="#005cb9" stroke-width="0"/><path d="M109.837,55.076h12.242v-6.318c0-.074-.073-.149-.147-.149h-11.949c-.073,0-.147.074-.147.149v6.318Z" fill="#005cb9" stroke-width="0"/><path d="M102.497,57.273v-.006c0-.334.264-.498.642-.498.173,0,.296.026.416.064v-.038c0-.22-.135-.337-.384-.337-.173,0-.302.038-.442.097l-.097-.278c.173-.076.34-.126.586-.126.231,0,.404.062.513.173.114.111.167.275.167.478v.917h-.346v-.193c-.105.126-.267.226-.504.226-.29,0-.551-.167-.551-.478ZM103.56,57.162v-.105c-.091-.035-.211-.062-.352-.062-.229,0-.363.097-.363.258v.006c0,.149.132.234.302.234.234,0,.413-.135.413-.331Z" fill="#000" stroke-width="0"/><path d="M115.597,57.478v.24h-.357v-2.139h.357v.85c.114-.161.275-.29.527-.29.363,0,.718.287.718.803v.006c0,.513-.352.803-.718.803-.258,0-.419-.129-.527-.272ZM116.482,56.948v-.006c0-.299-.205-.495-.442-.495-.24,0-.451.199-.451.495v.006c0,.296.211.495.451.495.243,0,.442-.19.442-.495Z" fill="#000" stroke-width="0"/><polygon points="148.813 49.064 149.087 49.064 149.087 49.977 149.223 49.977 149.223 49.612 149.497 49.612 149.497 49.886 149.954 49.886 149.954 49.247 149.497 49.247 149.497 49.475 149.223 49.475 149.223 48.562 149.497 48.562 149.497 48.745 149.954 48.745 149.954 48.106 149.497 48.106 149.497 48.38 149.223 48.38 149.223 48.06 149.087 48.06 149.087 48.882 148.813 48.882 148.813 48.654 148.311 48.654 148.311 49.293 148.813 49.293 148.813 49.064" fill="#fff" fill-rule="evenodd" stroke-width="0"/><rect x="67.078" y="55.694" width="13.277" height="3.377" rx="1.609" ry="1.609" fill="#59595c" stroke-width="0"/><rect x="138.679" y="55.694" width="13.277" height="3.377" rx="1.609" ry="1.609" fill="#59595c" stroke-width="0"/><path d="M94.941,54.34c0-.091-.091-.183-.183-.183s-.183.091-.183.183.091.183.183.183.183-.091.183-.183Z" fill="#fff" fill-rule="evenodd" stroke-width="0"/><path d="M94.941,52.742c0-.091-.091-.183-.183-.183s-.183.091-.183.183l.091,1.278c.046,0,.046.046.091.046s.091-.046.091-.046l.091-1.278Z" fill="#fff" fill-rule="evenodd" stroke-width="0"/><path d="M124.833,54.34c0-.091-.091-.183-.183-.183s-.183.091-.183.183.091.183.183.183.183-.091.183-.183Z" fill="#fff" fill-rule="evenodd" stroke-width="0"/><path d="M124.833,52.742c0-.091-.091-.183-.183-.183s-.183.091-.183.183l.091,1.278c.046,0,.046.046.091.046s.091-.046.091-.046l.091-1.278Z" fill="#fff" fill-rule="evenodd" stroke-width="0"/><path d="M147.833,53.952c0-.091-.091-.183-.183-.183s-.183.091-.183.183.091.183.183.183.183-.091.183-.183Z" fill="#fff" fill-rule="evenodd" stroke-width="0"/><path d="M147.833,52.355c0-.091-.091-.183-.183-.183s-.183.091-.183.183l.091,1.278c.046,0,.046.046.091.046s.091-.046.091-.046l.091-1.278Z" fill="#fff" fill-rule="evenodd" stroke-width="0"/><rect x="268.443" y="43.524" width="85.405" height="15.725" rx="2.16" ry="2.16" fill="#ccc" stroke-width="0"/><rect x="291.048" y="47.651" width="6.961" height="10.884" fill="#235daa" stroke-width="0"/><circle cx="293.98" cy="50.124" r="1.066" fill="#231f20" stroke-width="0"/><circle cx="293.98" cy="53.491" r="1.066" fill="#231f20" stroke-width="0"/><rect x="324.122" y="47.651" width="7.179" height="10.884" fill="#235daa" stroke-width="0"/><rect x="331.006" y="56.773" width="14.008" height="1.762" fill="#235daa" stroke-width="0"/><rect x="344.737" y="47.651" width="7.579" height="10.884" fill="#235daa" stroke-width="0"/><circle cx="328.519" cy="50.124" r="1.066" fill="#231f20" stroke-width="0"/><circle cx="328.519" cy="53.491" r="1.066" fill="#231f20" stroke-width="0"/><circle cx="346.999" cy="53.173" r="1.066" fill="#231f20" stroke-width="0"/><path d="M298.205,56.043h25.877v-7.591c0-.186-.147-.335-.33-.335h-25.217c-.183,0-.33.149-.33.335v7.591" fill="#fff" fill-rule="evenodd" stroke-width="0"/><rect x="298.205" y="55.895" width="25.877" height="2.499" fill="#fff" stroke-width="0"/><path d="M298.608,55.076h12.242v-6.318c0-.074-.073-.149-.147-.149h-11.912c-.11,0-.183.074-.183.149v6.318Z" fill="#fdb913" stroke-width="0"/><path d="M311.437,55.076h12.242v-6.318c0-.074-.073-.149-.147-.149h-11.949c-.073,0-.147.074-.147.149v6.318Z" fill="#fdb913" stroke-width="0"/><path d="M304.099,57.273v-.006c0-.334.264-.498.642-.498.173,0,.296.026.416.064v-.038c0-.22-.135-.337-.384-.337-.173,0-.302.038-.442.097l-.097-.278c.173-.076.34-.126.586-.126.231,0,.404.062.513.173.114.111.167.275.167.478v.917h-.346v-.193c-.105.126-.267.226-.504.226-.29,0-.551-.167-.551-.478ZM305.162,57.162v-.105c-.091-.035-.211-.062-.352-.062-.229,0-.363.097-.363.258v.006c0,.149.132.234.302.234.234,0,.413-.135.413-.331Z" fill="#000" stroke-width="0"/><path d="M317.198,57.478v.24h-.357v-2.139h.357v.85c.114-.161.275-.29.527-.29.363,0,.718.287.718.803v.006c0,.513-.352.803-.718.803-.258,0-.419-.129-.527-.272ZM318.082,56.948v-.006c0-.299-.205-.495-.442-.495-.24,0-.451.199-.451.495v.006c0,.296.211.495.451.495.243,0,.442-.19.442-.495Z" fill="#000" stroke-width="0"/><polygon points="350.413 49.064 350.687 49.064 350.687 49.977 350.824 49.977 350.824 49.612 351.098 49.612 351.098 49.886 351.554 49.886 351.554 49.247 351.098 49.247 351.098 49.475 350.824 49.475 350.824 48.562 351.098 48.562 351.098 48.745 351.554 48.745 351.554 48.106 351.098 48.106 351.098 48.38 350.824 48.38 350.824 48.06 350.687 48.06 350.687 48.882 350.413 48.882 350.413 48.654 349.911 48.654 349.911 49.293 350.413 49.293 350.413 49.064" fill="#fff" fill-rule="evenodd" stroke-width="0"/><rect x="268.678" y="55.694" width="13.277" height="3.377" rx="1.609" ry="1.609" fill="#59595c" stroke-width="0"/><rect x="340.279" y="55.694" width="13.277" height="3.377" rx="1.609" ry="1.609" fill="#59595c" stroke-width="0"/><path d="M296.542,54.34c0-.091-.091-.183-.183-.183s-.183.091-.183.183.091.183.183.183.183-.091.183-.183Z" fill="#fff" fill-rule="evenodd" stroke-width="0"/><path d="M296.542,52.742c0-.091-.091-.183-.183-.183s-.183.091-.183.183l.091,1.278c.046,0,.046.046.091.046s.091-.046.091-.046l.091-1.278Z" fill="#fff" fill-rule="evenodd" stroke-width="0"/><path d="M326.433,54.34c0-.091-.091-.183-.183-.183s-.183.091-.183.183.091.183.183.183.183-.091.183-.183Z" fill="#fff" fill-rule="evenodd" stroke-width="0"/><path d="M326.433,52.742c0-.091-.091-.183-.183-.183s-.183.091-.183.183l.091,1.278c.046,0,.046.046.091.046s.091-.046.091-.046l.091-1.278Z" fill="#fff" fill-rule="evenodd" stroke-width="0"/><path d="M349.433,53.952c0-.091-.091-.183-.183-.183s-.183.091-.183.183.091.183.183.183.183-.091.183-.183Z" fill="#fff" fill-rule="evenodd" stroke-width="0"/><path d="M349.433,52.355c0-.091-.091-.183-.183-.183s-.183.091-.183.183l.091,1.278c.046,0,.046.046.091.046s.091-.046.091-.046l.091-1.278Z" fill="#fff" fill-rule="evenodd" stroke-width="0"/><rect x="162.493" y="32.882" width="8.049" height="10.07" fill="#999" stroke-width="0"/><rect x="162.493" y="17.722" width="8.049" height="15.136" fill="#235daa" stroke-width="0"/><rect x="162.571" y="42.849" width="31.11" height="25.281" fill="#999" stroke-width="0"/><rect x="175.895" y="42.849" width="14.515" height="25.281" fill="#235daa" stroke-width="0"/><circle cx="165.963" cy="30.137" r=".92" fill="#231f20" stroke-width="0"/><path d="M169.274,26.679c0-.137-.091-.228-.228-.228s-.274.091-.274.228.137.228.274.228.228-.091.228-.228Z" fill="#f1f1f1" fill-rule="evenodd" stroke-width="0"/><path d="M169.274,24.625c0-.137-.091-.228-.228-.228s-.274.091-.274.228l.183,1.597c0,.091.046.091.091.091s.091-.046.091-.091l.137-1.597Z" fill="#f1f1f1" fill-rule="evenodd" stroke-width="0"/><path d="M166.603,39.116h.456c.091,0,.183-.091.183-.183v-4.199c0-.091-.091-.183-.183-.183h-.456c-.046,0-.137,0-.137.046l-.411.411c-.046,0-.046.091-.046.137v3.377c0,.046,0,.137.046.137l.411.411c0,.046.091.046.137.046Z" fill="#231f20" stroke-width="0"/><rect x="165.232" y="44.388" width="9.149" height="11.795" rx=".34" ry=".34" fill="#fff" stroke-width="0"/><polyline points="169.844 53.877 169.844 54.331 171.697 54.331 171.697 52.554 172.869 52.554 172.869 51.798 173.436 51.798 173.436 48.736 172.869 48.736 172.869 48.018 171.697 48.018 171.697 46.241 169.844 46.241 169.844 46.657 168.559 46.657 168.559 46.241 166.706 46.241 166.706 54.331 168.559 54.331 168.559 53.877 169.844 53.877" fill="#231f20" stroke-width="0"/><path d="M188.52,54.822v-6.994c0-.113-.076-.189-.189-.189h-9.792c-.113,0-.189.076-.189.189v13.307c0,.113.076.227.189.227h9.792c.113,0,.189-.113.189-.227v-6.313Z" fill="#fff" stroke-width="0"/><polyline points="179.258 53.159 179.258 55.087 187.65 55.087 187.65 53.159 187.386 53.083 187.386 51.798 187.65 51.722 187.65 49.303 185.76 49.303 185.76 48.32 185.042 48.32 185.042 47.98 181.828 47.98 181.828 48.32 181.11 48.32 181.11 49.303 179.258 49.303 179.258 51.722 179.485 51.798 179.485 53.083 179.258 53.159" fill="#c69ad1" fill-rule="evenodd" stroke-width="0"/><rect x="179.139" y="56.86" width="8.809" height="3.742" fill="none" stroke="#262626" stroke-miterlimit="10" stroke-width=".082"/><path d="M179.595,60.42h7.896c.091,0,.228-.091.228-.183v-3.012c0-.091-.137-.183-.228-.183h-7.896c-.137,0-.228.091-.228.183v3.012c0,.091.091.183.228.183" fill="#231f20" fill-rule="evenodd" stroke-width="0"/><rect x="179.823" y="57.499" width="7.394" height="1.232" fill="#999" stroke-width="0"/><path d="M182.755,65.484c.076,0,.151.038.227.113l.491.491c.151.151.34.265.529.265h.34v.189h.567v-.567h-.567v.189h-.34c-.151,0-.302-.076-.378-.189l-.491-.491h2.193v.189l.491-.265-.491-.302v.189h-2.987l.454-.491c.113-.113.265-.151.416-.151h.454c.038.151.189.227.34.151.151-.038.227-.189.189-.34-.038-.151-.227-.227-.378-.189-.076.038-.113.113-.151.189h-.454c-.189,0-.416.076-.529.227l-.491.529c-.076.038-.151.076-.227.076h-.227c-.038-.265-.302-.416-.529-.378-.265.076-.454.302-.378.567.038.265.302.416.567.378.151-.038.302-.189.34-.378h1.021M182.112,45.144h2.76c.189.416.68.605,1.096.454.076-.038.151-.076.189-.113.038-.038.038-.076,0-.113h-.302l-.038-.038-.378-.454c-.038,0-.038-.038,0-.076l.378-.454.038-.038h.302c.038,0,.076,0,.076-.038s0-.038-.038-.076c-.302-.302-.832-.265-1.172.076-.038.038-.113.151-.151.227h-2.76c-.189-.416-.643-.605-1.096-.454-.038.038-.113.076-.151.113s-.038.076-.038.113h.34l.038.038.378.454v.076l-.378.454-.038.038h-.34q-.038,0-.038.038v.076c.34.302.87.265,1.172-.076.076-.076.113-.151.151-.227ZM166.007,41.893c0,.491-.378.907-.87.907s-.907-.416-.907-.907.416-.907.907-.907.87.416.87.907ZM166.234,41.893c0-.605-.491-1.134-1.096-1.134-.643,0-1.134.529-1.134,1.134s.491,1.134,1.134,1.134c.605,0,1.096-.529,1.096-1.134ZM169.561,42.914h.189v-2.041h-.189v2.041ZM166.536,42.914h.227v-2.041h-.227v2.041ZM163.512,42.914h.227v-2.041h-.227v2.041ZM169.031,41.893c0,.491-.378.907-.87.907s-.907-.416-.907-.907.416-.907.907-.907.87.416.87.907ZM169.258,41.893c0-.605-.491-1.134-1.096-1.134-.643,0-1.134.529-1.134,1.134s.491,1.134,1.134,1.134c.605,0,1.096-.529,1.096-1.134ZM170.355,30.136c0-.718-.605-1.323-1.323-1.323s-1.285.605-1.285,1.323.567,1.285,1.285,1.285,1.323-.567,1.323-1.285ZM170.014,30.136c0,.529-.416.983-.983.983-.529,0-.983-.454-.983-.983,0-.567.454-.983.983-.983.567,0,.983.416.983.983ZM169.258,29.871c0,.113-.113.227-.227.227s-.189-.113-.189-.227.076-.227.189-.227.227.113.227.227ZM168.616,30.098l.378.756s.038.038.076,0h.038l.378-.756c.113-.227.038-.529-.227-.643-.227-.151-.529-.038-.643.189-.076.151-.076.302,0,.454ZM169.296,26.658c0-.113-.113-.227-.265-.227-.113,0-.227.113-.227.227,0,.151.113.265.227.265.151,0,.265-.113.265-.265ZM169.296,24.616c0-.113-.113-.227-.265-.227s-.227.113-.227.265l.151,1.588c0,.038.038.076.113.076.038,0,.076-.038.076-.076l.151-1.626Z" fill="#fff" fill-rule="evenodd" stroke-width="0"/><rect x="213.748" y="32.882" width="8.049" height="10.07" fill="#999" stroke-width="0"/><rect x="213.748" y="17.722" width="8.049" height="15.136" fill="#235daa" stroke-width="0"/><rect x="213.826" y="42.849" width="31.11" height="25.281" fill="#999" stroke-width="0"/><rect x="227.15" y="42.849" width="14.515" height="25.281" fill="#235daa" stroke-width="0"/><circle cx="217.218" cy="21.348" r=".92" fill="#231f20" stroke-width="0"/><circle cx="217.218" cy="25.711" r=".92" fill="#231f20" stroke-width="0"/><circle cx="217.218" cy="30.137" r=".92" fill="#231f20" stroke-width="0"/><polygon points="220.438 22.434 220.757 21.293 221.35 21.293 221.35 21.156 220.666 21.156 220.438 21.932 220.255 20.015 220.164 20.015 219.799 21.156 219.205 21.156 219.205 21.293 219.936 21.293 220.164 20.563 220.346 22.434 220.438 22.434" fill="#f1f1f1" fill-rule="evenodd" stroke-width="0"/><path d="M220.529,26.679c0-.137-.091-.228-.228-.228s-.274.091-.274.228.137.228.274.228.228-.091.228-.228Z" fill="#f1f1f1" fill-rule="evenodd" stroke-width="0"/><path d="M220.529,24.625c0-.137-.091-.228-.228-.228s-.274.091-.274.228l.183,1.597c0,.091.046.091.091.091s.091-.046.091-.091l.137-1.597Z" fill="#f1f1f1" fill-rule="evenodd" stroke-width="0"/><path d="M217.858,39.116h.456c.091,0,.183-.091.183-.183v-4.199c0-.091-.091-.183-.183-.183h-.456c-.046,0-.137,0-.137.046l-.411.411c-.046,0-.046.091-.046.137v3.377c0,.046,0,.137.046.137l.411.411c0,.046.091.046.137.046Z" fill="#231f20" stroke-width="0"/><rect x="216.487" y="44.388" width="9.149" height="11.795" rx=".34" ry=".34" fill="#fff" stroke-width="0"/><polyline points="221.099 53.877 221.099 54.331 222.952 54.331 222.952 52.554 224.124 52.554 224.124 51.798 224.691 51.798 224.691 48.736 224.124 48.736 224.124 48.018 222.952 48.018 222.952 46.241 221.099 46.241 221.099 46.657 219.814 46.657 219.814 46.241 217.961 46.241 217.961 54.331 219.814 54.331 219.814 53.877 221.099 53.877" fill="#231f20" stroke-width="0"/><path d="M239.775,54.822v-6.994c0-.113-.076-.189-.189-.189h-9.792c-.113,0-.189.076-.189.189v13.307c0,.113.076.227.189.227h9.792c.113,0,.189-.113.189-.227v-6.313Z" fill="#fff" stroke-width="0"/><polyline points="230.513 53.159 230.513 55.087 238.905 55.087 238.905 53.159 238.641 53.083 238.641 51.798 238.905 51.722 238.905 49.303 237.015 49.303 237.015 48.32 236.297 48.32 236.297 47.98 233.083 47.98 233.083 48.32 232.365 48.32 232.365 49.303 230.513 49.303 230.513 51.722 230.739 51.798 230.739 53.083 230.513 53.159" fill="#c69ad1" fill-rule="evenodd" stroke-width="0"/><rect x="230.394" y="56.86" width="8.809" height="3.742" fill="none" stroke="#262626" stroke-miterlimit="10" stroke-width=".082"/><path d="M230.85,60.42h7.896c.091,0,.228-.091.228-.183v-3.012c0-.091-.137-.183-.228-.183h-7.896c-.137,0-.228.091-.228.183v3.012c0,.091.091.183.228.183" fill="#231f20" fill-rule="evenodd" stroke-width="0"/><rect x="231.078" y="57.499" width="7.394" height="1.232" fill="#999" stroke-width="0"/><path d="M234.01,65.484c.076,0,.151.038.227.113l.491.491c.151.151.34.265.529.265h.34v.189h.567v-.567h-.567v.189h-.34c-.151,0-.302-.076-.378-.189l-.491-.491h2.193v.189l.491-.265-.491-.302v.189h-2.987l.454-.491c.113-.113.265-.151.416-.151h.454c.038.151.189.227.34.151.151-.038.227-.189.189-.34-.038-.151-.227-.227-.378-.189-.076.038-.113.113-.151.189h-.454c-.189,0-.416.076-.529.227l-.491.529c-.076.038-.151.076-.227.076h-.227c-.038-.265-.302-.416-.529-.378-.265.076-.454.302-.378.567.038.265.302.416.567.378.151-.038.302-.189.34-.378h1.021M233.367,45.144h2.76c.189.416.68.605,1.096.454.076-.038.151-.076.189-.113.038-.038.038-.076,0-.113h-.302l-.038-.038-.378-.454c-.038,0-.038-.038,0-.076l.378-.454.038-.038h.302c.038,0,.076,0,.076-.038s0-.038-.038-.076c-.302-.302-.832-.265-1.172.076-.038.038-.113.151-.151.227h-2.76c-.189-.416-.643-.605-1.096-.454-.038.038-.113.076-.151.113s-.038.076-.038.113h.34l.038.038.378.454v.076l-.378.454-.038.038h-.34q-.038,0-.038.038v.076c.34.302.87.265,1.172-.076.076-.076.113-.151.151-.227ZM217.262,41.893c0,.491-.378.907-.87.907s-.907-.416-.907-.907.416-.907.907-.907.87.416.87.907ZM217.489,41.893c0-.605-.491-1.134-1.096-1.134-.643,0-1.134.529-1.134,1.134s.491,1.134,1.134,1.134c.605,0,1.096-.529,1.096-1.134ZM220.816,42.914h.189v-2.041h-.189v2.041ZM217.791,42.914h.227v-2.041h-.227v2.041ZM214.767,42.914h.227v-2.041h-.227v2.041ZM220.286,41.893c0,.491-.378.907-.87.907s-.907-.416-.907-.907.416-.907.907-.907.87.416.87.907ZM220.513,41.893c0-.605-.491-1.134-1.096-1.134-.643,0-1.134.529-1.134,1.134s.491,1.134,1.134,1.134c.605,0,1.096-.529,1.096-1.134ZM221.61,30.136c0-.718-.605-1.323-1.323-1.323s-1.285.605-1.285,1.323.567,1.285,1.285,1.285,1.323-.567,1.323-1.285ZM221.269,30.136c0,.529-.416.983-.983.983-.529,0-.983-.454-.983-.983,0-.567.454-.983.983-.983.567,0,.983.416.983.983ZM220.513,29.871c0,.113-.113.227-.227.227s-.189-.113-.189-.227.076-.227.189-.227.227.113.227.227ZM219.871,30.098l.378.756s.038.038.076,0h.038l.378-.756c.113-.227.038-.529-.227-.643-.227-.151-.529-.038-.643.189-.076.151-.076.302,0,.454ZM220.551,26.658c0-.113-.113-.227-.265-.227-.113,0-.227.113-.227.227,0,.151.113.265.227.265.151,0,.265-.113.265-.265ZM220.551,24.616c0-.113-.113-.227-.265-.227s-.227.113-.227.265l.151,1.588c0,.038.038.076.113.076.038,0,.076-.038.076-.076l.151-1.626ZM220.438,22.461l.34-1.134h.605v-.151h-.718l-.227.756-.189-1.89h-.113l-.302,1.134h-.605v.151h.718l.189-.756.189,1.89h.113Z" fill="#fff" fill-rule="evenodd" stroke-width="0"/></g><path d="M365.756,26.263s-102.414-19.916-183.915-3.191c-80.69,16.558-125.73-1.803-125.73-1.803" fill="none" stroke="#808184" stroke-linecap="round" stroke-linejoin="round" stroke-width="1.437"/><circle cx="201.871" cy="94.989" r="13.965" fill="none" stroke="#fff" stroke-miterlimit="10" stroke-width="3.282"/><circle cx="201.871" cy="94.989" r="13.965" fill="none" stroke="#005cb9" stroke-miterlimit="10" stroke-width="1.204"/><circle cx="277.495" cy="94.989" r="13.965" fill="none" stroke="#fff" stroke-miterlimit="10" stroke-width="3.282"/><circle cx="277.495" cy="94.989" r="13.965" fill="none" stroke="#005cb9" stroke-miterlimit="10" stroke-width="1.204"/><circle cx="349.682" cy="94.989" r="13.965" fill="none" stroke="#fff" stroke-miterlimit="10" stroke-width="3.282"/><circle cx="349.682" cy="94.989" r="13.965" fill="none" stroke="#005cb9" stroke-miterlimit="10" stroke-width="1.204"/><circle cx="129.469" cy="94.989" r="13.965" fill="none" stroke="#fff" stroke-miterlimit="10" stroke-width="3.282"/><circle cx="129.469" cy="94.989" r="13.965" fill="none" stroke="#005cb9" stroke-miterlimit="10" stroke-width="1.204"/></g><g id="c"><path d="M69.464,18.892l-23.781,75.908,75.207,13.512c3.523.952-12.961-9.173-4.5-20.458,11.727-15.639,21.086-3.584,22.998-3.405L69.464,18.892Z" fill="#fff" opacity=".8" stroke-width="0"/><g clip-path="url(#d)"><circle cx="47.42" cy="52.99" r="39.522" fill="#fff" stroke-width="0"/><rect x="70.832" y="5.871" width="49.755" height="84.934" fill="#59595c" stroke-width="0"/><rect x="72.014" y="8.312" width="47.246" height="80.625" rx="3.6" ry="3.6" fill="#ccc" stroke-width="0"/><rect x="75.922" y="12.371" width="24.107" height="36.558" rx="1.44" ry="1.44" fill="#59595c" stroke-width="0"/><path d="M83.432,40.702c0-.387-.129-.646-.517-.646-.258,0-.517.258-.517.646,0,.258.258.517.517.517.388,0,.517-.258.517-.517Z" fill="#fff" fill-rule="evenodd" stroke-width="0"/><path d="M83.561,36.052c-.129-.258-.258-.517-.646-.517-.258,0-.517.258-.517.646l.388,3.488c0,.129.129.258.258.129,0,0,.129,0,.129-.129l.388-3.617Z" fill="#fff" fill-rule="evenodd" stroke-width="0"/><rect x="3.967" y="5.871" width="61.607" height="84.934" fill="#59595c" stroke-width="0"/><rect x="1.671" y="8.312" width="62.576" height="80.625" rx="3.6" ry="3.6" fill="#ccc" stroke-width="0"/><path d="M1,27.844h51.663c3.229,0,5.942-2.196,5.942-5.038v-10.463H1v15.5Z" fill="#999" stroke-width="0"/><path d="M1.666,30.298h55.905c1.937,0,3.488-1.292,3.488-2.842v-14.467c0-.388-.387-.646-.775-.646h-1.679v10.463c0,2.842-2.713,5.038-5.942,5.038H1.666" fill="#59595c" stroke-width="0"/><path d="M4.273,76.157h24.154c1.675,0,3.036-1.256,3.036-2.931v-37.06c0-1.57-1.361-2.931-3.036-2.931H4.273c-1.675,0-3.036,1.361-3.036,2.931v37.06c0,1.675,1.361,2.931,3.036,2.931" fill="#999" fill-rule="evenodd" stroke-width="0"/><path d="M6.199,71.865h8.2c1.361,0,2.513-.523,3.455-1.466l8.899-9.317c.837-.838,1.256-1.989,1.256-3.245v-15.599c0-2.617-2.094-4.711-4.711-4.711H3.671c-2.617,0-.822,32.872-.822,32.872.838.942,2.094,1.466,3.35,1.466Z" fill="#262626" stroke-width="0"/><path d="M33.877,74.013h27.049c.913,0,1.711-.799,1.711-1.711v-36.395c0-.913-.799-1.711-1.711-1.711h-27.049c-1.027,0-1.711.799-1.711,1.711v36.395c0,.913.685,1.711,1.711,1.711Z" fill="#999" stroke-width="0"/><path d="M57.802,45.034v-5.362c0-.57-.456-1.027-1.027-1.027h-18.597c-.57,0-1.027.456-1.027,1.027v5.362s20.65,0,20.65,0Z" fill="#595a5a" stroke-width="0"/><path d="M57.802,45.034h-20.65s0,23.046,0,23.046c0,.57.456,1.027,1.027,1.027h18.597c.57,0,1.027-.456,1.027-1.027v-23.046Z" fill="#6a6a6a" stroke-width="0"/><path d="M47.534,59.502c-.342,0-.685.228-.685.57v4.906c0,.342.342.57.685.57s.57-.228.57-.57v-4.906c0-.342-.228-.57-.57-.57M45.252,51.059c0,1.255,1.027,2.168,2.282,2.168,1.141,0,2.168-.913,2.168-2.168,0-1.255-1.027-2.168-2.168-2.168-1.255,0-2.282.913-2.282,2.168ZM43.997,51.059c0,1.94,1.597,3.423,3.537,3.423,1.825,0,3.423-1.483,3.423-3.423s-1.597-3.423-3.423-3.423c-1.94,0-3.537,1.483-3.537,3.423Z" fill="#fff" fill-rule="evenodd" stroke-width="0"/><line x1="37.322" y1="56.91" x2="57.657" y2="56.91" fill="none" stroke="#404041" stroke-miterlimit="10" stroke-width=".514"/></g><circle cx="47.64" cy="53.651" r="39.742" fill="none" stroke-width="0"/><circle cx="47.64" cy="53.651" r="39.742" fill="none" stroke="#fff" stroke-miterlimit="10" stroke-width="4.818"/><circle cx="47.64" cy="53.651" r="39.742" fill="none" stroke="#005cb9" stroke-miterlimit="10" stroke-width="2.753"/><rect x="100.485" y="40.746" width="9.794" height="19.105" rx="1.366" ry="1.366" transform="translate(-11.194 57.027) rotate(-28.818)" fill="#005cb9" stroke="#fff" stroke-linecap="round" stroke-linejoin="round" stroke-width="1.229"/><path d="M72.469,60.878c-.762,2.688.157,4.698,3.412,5.181-.149,1.169-.07,2.268.8,3.219.883.966,1.99,1.225,3.031,1.208.356.9.515,1.79,1.001,2.433,1.048,1.384,2.803,1.618,4.558.727,2.267-1.151,4.521-2.327,6.761-3.53,1.036-.556,2.045-1.161,3.032-1.801,1.261-.818,2.536-1.629,3.727-2.543.762-.585,1.49-1.255,2.084-2.005.455-.576.945-1.021,1.58-1.364.313-.169.588-.317.839-.452.769-.415,1.052-1.377.631-2.143l-7.244-13.167c-.419-.762-1.376-1.039-2.138-.62-.219.121-.463.255-.742.408l-.128.07c-.508.279-1.128.256-1.614-.058-1.525-.987-2.958-1.93-4.422-2.823-1.784-1.088-7.394-.595-10.383,2.482-1.443,1.486,1.092,2.877-.597,4.049-.123.085-.25.165-.378.241-1.571.936-3.161,1.841-4.706,2.818-.685.434-14.151,8.792-14.151,8.792,0,0-2.487,1.658-1.135,3.848,0,0,.735,1.87,3.588.521s12.317-6.483,12.317-6.483c0,0,.829.22.277.993Z" fill="#005cb9" stroke="#fff" stroke-linecap="round" stroke-linejoin="round" stroke-width="1.229"/></g></svg>