<?xml version="1.0" encoding="UTF-8"?><svg xmlns="http://www.w3.org/2000/svg" width="6.75in" height="1.193in" viewBox="0 0 486.011 85.897"><g id="a"><path d="M484.001,73.867V2.864c0-1.582-1.282-2.864-2.864-2.864H11.461c-1.582,0-2.864,1.282-2.865,2.864v71.003h2.291v.572c0,1.424,1.154,2.578,2.578,2.578h465.667c1.424,0,2.579-1.153,2.579-2.578v-.572h2.29Z" fill="#ccc" fill-rule="evenodd"/><path d="M13.466,75.012h465.667c.316,0,.572-.256.572-.572v-8.59h2.005V2.864c0-.317-.256-.573-.573-.573H11.462c-.317,0-.573.256-.574.573v62.987h2.005v8.59c0,.316.256.572.573.572" fill="#1a1a1a" fill-rule="evenodd"/><path d="M479.826,0H12.772v4.009c0,.632-.516,1.145-1.152,1.145h-2.307v68.713h2.307c.636,0,1.152.512,1.152,1.145v4.581h467.054v-4.581c0-.633.516-1.145,1.152-1.145h2.306V5.154h-2.306c-.636,0-1.152-.513-1.152-1.145V0Z" fill="#e6e6e6" fill-rule="evenodd"/><path d="M256.914,46.308c.46,0,.905-.187,1.223-.505.318-.317.511-.764.508-1.227v-23.109c0-.461-.188-.904-.507-1.222s-.765-.509-1.227-.506h-47.958c-.46,0-.904.187-1.223.505-.318.317-.511.764-.508,1.227v23.109c0,.461.189.905.507,1.223.319.317.766.508,1.228.505h47.957Z" fill="#2e2e2e" fill-rule="evenodd"/><path d="M208.952,20.598h47.964c.48,0,.869.389.869.869v23.113c0,.48-.389.869-.869.869h-47.964c-.481,0-.872-.391-.872-.872v-23.107c0-.481.391-.872.872-.872Z" fill="#e6e6e6"/><path d="M256.913,21.01c.254,0,.459.205.459.458v23.113c0,.253-.205.457-.459.457h-23.773v-24.028h23.773ZM208.952,21.01c-.253,0-.458.205-.458.458v23.113c0,.253.205.457.458.457h23.774v-24.028h-23.774Z" fill="#2e2e2e" fill-rule="evenodd"/><path d="M235.275,41.983h19.961v-17.919h-19.961v17.919ZM210.629,41.983h19.961v-17.919h-19.961v17.919Z" fill="#404040" fill-rule="evenodd"/><path d="M235.746,39.596h19.02v-4.221h-19.02v4.221ZM235.746,30.672h19.02v-4.221h-19.02v4.221ZM211.101,39.596h19.02v-4.221h-19.02v4.221ZM211.101,30.672h19.02v-4.221h-19.02v4.221Z" fill="#595959" fill-rule="evenodd"/><path d="M236.425,38.806h17.663v-2.638h-17.663v2.638ZM211.778,38.806h17.663v-2.638h-17.663v2.638ZM236.425,29.88h17.663v-2.638h-17.663v2.638ZM211.778,29.88h17.663v-2.638h-17.663v2.638Z" fill="#4d4d4d" fill-rule="evenodd"/><path d="M251.734,40.435h.414v-5.9h-.414v5.9ZM250.063,40.435h.413v-5.9h-.413v5.9ZM248.392,40.435h.413v-5.9h-.413v5.9ZM246.72,40.435h.414v-5.9h-.414v5.9ZM245.05,40.435h.413v-5.9h-.413v5.9ZM243.378,40.435h.413v-5.9h-.413v5.9ZM241.707,40.435h.414v-5.9h-.414v5.9ZM240.036,40.435h.413v-5.9h-.413v5.9ZM238.365,40.435h.413v-5.9h-.413v5.9ZM251.734,31.511h.414v-5.9h-.414v5.9ZM250.063,31.511h.413v-5.9h-.413v5.9ZM248.392,31.511h.413v-5.9h-.413v5.9ZM246.72,31.511h.414v-5.9h-.414v5.9ZM245.05,31.511h.413v-5.9h-.413v5.9ZM243.378,31.511h.413v-5.9h-.413v5.9ZM241.707,31.511h.414v-5.9h-.414v5.9ZM240.036,31.511h.413v-5.9h-.413v5.9ZM238.365,31.511h.413v-5.9h-.413v5.9ZM227.088,40.435h.414v-5.9h-.414v5.9ZM225.416,40.435h.414v-5.9h-.414v5.9ZM223.746,40.435h.413v-5.9h-.413v5.9ZM222.074,40.435h.414v-5.9h-.414v5.9ZM220.404,40.435h.413v-5.9h-.413v5.9ZM218.732,40.435h.413v-5.9h-.413v5.9ZM217.061,40.435h.414v-5.9h-.414v5.9ZM215.39,40.435h.413v-5.9h-.413v5.9ZM213.719,40.435h.413v-5.9h-.413v5.9ZM227.088,31.511h.414v-5.9h-.414v5.9ZM225.416,31.511h.414v-5.9h-.414v5.9ZM223.746,31.511h.413v-5.9h-.413v5.9ZM222.074,31.511h.414v-5.9h-.414v5.9ZM220.404,31.511h.413v-5.9h-.413v5.9ZM218.732,31.511h.413v-5.9h-.413v5.9ZM217.061,31.511h.414v-5.9h-.414v5.9ZM215.39,31.511h.413v-5.9h-.413v5.9ZM213.719,31.511h.413v-5.9h-.413v5.9Z" fill="#d5c669" fill-rule="evenodd"/><path d="M236.816,38.27h16.881v-1.569h-16.881v1.569ZM236.816,29.345h16.881v-1.569h-16.881v1.569ZM212.169,38.27h16.881v-1.569h-16.881v1.569ZM212.169,29.345h16.881v-1.569h-16.881v1.569Z" fill="#404040" fill-rule="evenodd"/><path d="M237.798,45.449h14.917v-.412h-14.917v.412ZM213.152,45.449h14.917v-.412h-14.917v.412Z" fill="#bfbfbf" fill-rule="evenodd"/><path d="M241.054,45.449h8.404v-.882h-8.404v.882ZM216.408,45.449h8.404v-.882h-8.404v.882Z" fill="#d9d9d9" fill-rule="evenodd"/><path d="M366.085,46.308c.46,0,.905-.187,1.223-.505.318-.317.511-.764.508-1.227v-23.109c0-.461-.188-.904-.507-1.222s-.765-.509-1.227-.506h-47.958c-.46,0-.904.187-1.222.505-.319.317-.512.764-.509,1.227v23.109c0,.461.189.905.507,1.223.319.317.766.508,1.228.505h47.957Z" fill="#2e2e2e" fill-rule="evenodd"/><path d="M318.124,20.598h47.964c.48,0,.869.389.869.869v23.11c0,.481-.391.872-.872.872h-47.964c-.48,0-.869-.389-.869-.869v-23.11c0-.481.391-.872.872-.872Z" fill="#e6e6e6"/><path d="M366.085,21.01c.254,0,.459.205.459.458v23.113c0,.253-.205.457-.459.457h-23.774v-24.028h23.774ZM318.124,21.01c-.253,0-.458.205-.458.458v23.113c0,.253.205.457.458.457h23.774v-24.028h-23.774Z" fill="#2e2e2e" fill-rule="evenodd"/><path d="M344.447,41.983h19.961v-17.919h-19.961v17.919ZM319.801,41.983h19.961v-17.919h-19.961v17.919Z" fill="#404040" fill-rule="evenodd"/><path d="M344.918,39.596h19.02v-4.221h-19.02v4.221ZM344.918,30.672h19.02v-4.221h-19.02v4.221ZM320.271,39.596h19.02v-4.221h-19.02v4.221ZM320.271,30.672h19.02v-4.221h-19.02v4.221Z" fill="#595959" fill-rule="evenodd"/><path d="M344.918,39.596h19.02v-4.221h-19.02v4.221ZM320.271,39.596h19.02v-4.221h-19.02v4.221Z" fill="none" stroke="#666" stroke-linecap="round" stroke-linejoin="round" stroke-width=".011"/><path d="M345.596,38.806h17.663v-2.638h-17.663v2.638ZM320.95,38.806h17.663v-2.638h-17.663v2.638ZM345.596,29.88h17.663v-2.638h-17.663v2.638ZM320.95,29.88h17.663v-2.638h-17.663v2.638Z" fill="#4d4d4d" fill-rule="evenodd"/><path d="M345.596,38.806h17.663v-2.638h-17.663v2.638Z" fill="none" stroke="#666" stroke-linecap="round" stroke-linejoin="round" stroke-width=".011"/><path d="M360.905,40.435h.414v-5.9h-.414v5.9ZM359.235,40.435h.413v-5.9h-.413v5.9ZM357.563,40.435h.413v-5.9h-.413v5.9ZM355.892,40.435h.414v-5.9h-.414v5.9ZM354.221,40.435h.413v-5.9h-.413v5.9ZM352.55,40.435h.413v-5.9h-.413v5.9ZM350.878,40.435h.414v-5.9h-.414v5.9ZM349.208,40.435h.413v-5.9h-.413v5.9ZM347.536,40.435h.413v-5.9h-.413v5.9ZM360.905,31.511h.414v-5.9h-.414v5.9ZM359.235,31.511h.413v-5.9h-.413v5.9ZM357.563,31.511h.413v-5.9h-.413v5.9ZM355.892,31.511h.414v-5.9h-.414v5.9ZM354.221,31.511h.413v-5.9h-.413v5.9ZM352.55,31.511h.413v-5.9h-.413v5.9ZM350.878,31.511h.414v-5.9h-.414v5.9ZM349.208,31.511h.413v-5.9h-.413v5.9ZM347.536,31.511h.413v-5.9h-.413v5.9ZM336.26,40.435h.413v-5.9h-.413v5.9ZM334.588,40.435h.414v-5.9h-.414v5.9ZM332.918,40.435h.413v-5.9h-.413v5.9ZM331.246,40.435h.414v-5.9h-.414v5.9ZM329.576,40.435h.413v-5.9h-.413v5.9ZM327.904,40.435h.413v-5.9h-.413v5.9ZM326.233,40.435h.414v-5.9h-.414v5.9ZM324.562,40.435h.413v-5.9h-.413v5.9ZM322.891,40.435h.413v-5.9h-.413v5.9ZM336.26,31.511h.413v-5.9h-.413v5.9ZM334.588,31.511h.414v-5.9h-.414v5.9ZM332.918,31.511h.413v-5.9h-.413v5.9ZM331.246,31.511h.414v-5.9h-.414v5.9ZM329.576,31.511h.413v-5.9h-.413v5.9ZM327.904,31.511h.413v-5.9h-.413v5.9ZM326.233,31.511h.414v-5.9h-.414v5.9ZM324.562,31.511h.413v-5.9h-.413v5.9ZM322.891,31.511h.413v-5.9h-.413v5.9Z" fill="#d5c669" fill-rule="evenodd"/><path d="M345.986,38.27h16.881v-1.569h-16.881v1.569ZM345.986,29.345h16.881v-1.569h-16.881v1.569ZM321.341,38.27h16.881v-1.569h-16.881v1.569ZM321.341,29.345h16.881v-1.569h-16.881v1.569Z" fill="#404040" fill-rule="evenodd"/><path d="M346.969,45.449h14.917v-.412h-14.917v.412ZM322.323,45.449h14.917v-.412h-14.917v.412Z" fill="#bfbfbf" fill-rule="evenodd"/><path d="M350.226,45.449h8.404v-.882h-8.404v.882ZM325.579,45.449h8.404v-.882h-8.404v.882Z" fill="#d9d9d9" fill-rule="evenodd"/></g><g id="b"><path d="M18.311,72.598h460.453V1.584H18.311v71.014ZM193.456,39.225c-1.571,0-2.845-1.274-2.845-2.846s1.274-2.845,2.845-2.845,2.846,1.273,2.846,2.845-1.274,2.846-2.846,2.846M193.456,27.662c-1.571,0-2.845-1.273-2.845-2.845s1.274-2.846,2.845-2.846,2.846,1.274,2.846,2.846-1.274,2.845-2.846,2.845M260.145,45.65c0,1.257-1.019,2.276-2.276,2.276h-49.847c-1.257,0-2.276-1.018-2.276-2.276v-25.242c0-1.257,1.019-2.276,2.276-2.276h49.847c1.257,0,2.276,1.019,2.276,2.276v25.242ZM272.436,39.225c-1.572,0-2.845-1.274-2.845-2.846s1.273-2.845,2.845-2.845,2.844,1.273,2.844,2.845-1.273,2.846-2.844,2.846M272.436,27.662c-1.572,0-2.845-1.273-2.845-2.845s1.273-2.846,2.845-2.846,2.844,1.274,2.844,2.846-1.273,2.845-2.844,2.845M302.707,39.225c-1.571,0-2.844-1.274-2.844-2.846s1.273-2.845,2.844-2.845,2.845,1.273,2.845,2.845-1.273,2.846-2.845,2.846M302.707,27.662c-1.571,0-2.844-1.273-2.844-2.845s1.273-2.846,2.844-2.846,2.845,1.274,2.845,2.846-1.273,2.845-2.845,2.845M369.397,45.65c0,1.257-1.018,2.276-2.276,2.276h-49.846c-1.258,0-2.277-1.018-2.277-2.276v-25.242c0-1.257,1.019-2.276,2.277-2.276h49.846c1.257,0,2.276,1.019,2.276,2.276v25.242ZM381.689,39.225c-1.571,0-2.846-1.274-2.846-2.846s1.274-2.845,2.846-2.845,2.845,1.273,2.845,2.845-1.274,2.846-2.845,2.846M381.689,27.662c-1.571,0-2.846-1.273-2.846-2.845s1.274-2.846,2.846-2.846,2.845,1.274,2.845,2.846-1.274,2.845-2.845,2.845M419.108,39.225c-1.571,0-2.847-1.274-2.847-2.846s1.275-2.845,2.847-2.845,2.845,1.273,2.845,2.845-1.275,2.846-2.845,2.846M419.108,27.662c-1.571,0-2.847-1.273-2.847-2.845s1.275-2.846,2.847-2.846,2.845,1.274,2.845,2.846-1.275,2.845-2.845,2.845" fill="#2d2a26"/><rect x="112.295" y="1.583" width="41.572" height="71.014" fill="none"/><path d="M25.139,15.764V7.717h1.065v8.047h-1.065Z" fill="#d0cfcd"/><path d="M27.757,11.845c0-1.336.359-2.381,1.076-3.137s1.643-1.133,2.777-1.133c.743,0,1.413.178,2.009.532s1.051.85,1.364,1.485.469,1.355.469,2.16c0,.816-.165,1.546-.494,2.19s-.796,1.132-1.4,1.463-1.255.497-1.954.497c-.757,0-1.435-.183-2.031-.549s-1.048-.865-1.356-1.498-.461-1.303-.461-2.009ZM28.855,11.861c0,.97.261,1.734.782,2.292s1.175.837,1.962.837c.801,0,1.461-.282,1.979-.845s.777-1.363.777-2.399c0-.655-.111-1.227-.332-1.715s-.545-.867-.972-1.136-.905-.403-1.435-.403c-.754,0-1.402.259-1.946.777s-.815,1.382-.815,2.594Z" fill="#d0cfcd"/><path d="M36.792,15.764V7.717h1.603l1.905,5.698c.176.53.304.928.384,1.191.091-.293.234-.723.428-1.29l1.927-5.599h1.433v8.047h-1.026v-6.735l-2.338,6.735h-.961l-2.327-6.85v6.85h-1.026Z" fill="#d0cfcd"/><path d="M49.51,15.764h-.988v-6.296c-.238.227-.55.454-.936.681s-.733.397-1.04.51v-.955c.552-.26,1.035-.574,1.449-.944s.706-.728.878-1.076h.637v8.08Z" fill="#d0cfcd"/><path d="M57.232,14.814v.95h-5.319c-.007-.238.031-.467.115-.686.135-.362.352-.719.65-1.07s.729-.757,1.293-1.219c.875-.717,1.466-1.285,1.773-1.704s.461-.815.461-1.188c0-.392-.14-.722-.42-.991s-.645-.403-1.095-.403c-.476,0-.856.143-1.142.428s-.43.681-.434,1.186l-1.015-.104c.069-.757.331-1.335.785-1.732s1.063-.596,1.828-.596c.772,0,1.383.214,1.833.642s.675.959.675,1.592c0,.322-.066.639-.198.95s-.351.639-.656.983-.813.816-1.523,1.416c-.593.498-.974.835-1.142,1.013s-.307.356-.417.535h3.947Z" fill="#d0cfcd"/><path d="M64.434,12.943l1.065.269c-.223.875-.625,1.542-1.205,2.001s-1.289.689-2.127.689c-.867,0-1.573-.176-2.116-.53s-.957-.865-1.241-1.534-.425-1.389-.425-2.157c0-.838.16-1.569.48-2.193s.776-1.098,1.367-1.422,1.241-.486,1.951-.486c.805,0,1.482.205,2.031.615s.931.986,1.147,1.729l-1.048.247c-.187-.585-.458-1.012-.812-1.279s-.801-.401-1.339-.401c-.618,0-1.135.148-1.551.445s-.707.694-.875,1.194-.252,1.015-.252,1.545c0,.684.1,1.282.299,1.792s.51.892.93,1.144.876.379,1.367.379c.596,0,1.101-.172,1.515-.516s.694-.854.84-1.531Z" fill="#d0cfcd"/><path d="M428.055,25.655l.087,1.001h.3l.331-3.424h0c.01-.135.015-.25.015-.346,0-.621-.276-.752-.508-.752-.224,0-.492.139-.492.798,0,.16.037.59.111,1.282.094.845.151,1.367.156,1.44" fill="#fff"/><path d="M428.652,27.436c-.228-.239-.545-.216-.719-.015-.096.103-.144.234-.144.39,0,.155.062.286.182.378.096.071.202.106.318.106.119,0,.234-.038.346-.116.112-.092.169-.216.169-.368,0-.147-.051-.273-.153-.375" fill="#fff"/><path d="M428.224,39.258c-1.587,0-2.877-1.291-2.877-2.878s1.29-2.878,2.877-2.878,2.878,1.291,2.878,2.878-1.29,2.878-2.878,2.878M428.224,33.863c-1.388,0-2.516,1.129-2.516,2.516s1.128,2.517,2.516,2.517,2.518-1.13,2.518-2.517-1.13-2.516-2.518-2.516" fill="#fff"/><path d="M429.316,35.752c0-.604-.49-1.094-1.094-1.094s-1.093.49-1.093,1.094c0,.154.033.3.091.434l.004.007c.018.042.039.08.062.119l.936,1.79.938-1.791c.022-.038.043-.076.061-.117l.005-.008c.057-.133.09-.279.09-.434M428.216,36.275c-.321,0-.582-.26-.582-.583,0-.32.261-.581.582-.581s.583.261.583.581c0,.323-.262.583-.583.583" fill="#fff"/><path d="M172.521,50.736h229.254V1.583h-229.254v49.153ZM193.456,39.225c-1.571,0-2.845-1.274-2.845-2.846s1.273-2.845,2.845-2.845,2.845,1.273,2.845,2.845-1.273,2.846-2.845,2.846M193.456,27.662c-1.571,0-2.845-1.273-2.845-2.845s1.273-2.846,2.845-2.846,2.845,1.274,2.845,2.846-1.273,2.845-2.845,2.845M260.145,45.65c0,1.257-1.02,2.276-2.276,2.276h-49.847c-1.257,0-2.276-1.018-2.276-2.276v-25.242c0-1.257,1.019-2.276,2.276-2.276h49.847c1.256,0,2.276,1.019,2.276,2.276v25.242ZM272.436,39.225c-1.572,0-2.845-1.274-2.845-2.846s1.273-2.845,2.845-2.845,2.844,1.273,2.844,2.845-1.273,2.846-2.844,2.846M272.436,27.662c-1.572,0-2.845-1.273-2.845-2.845s1.273-2.846,2.845-2.846,2.844,1.274,2.844,2.846-1.273,2.845-2.844,2.845M302.707,39.225c-1.571,0-2.844-1.274-2.844-2.846s1.273-2.845,2.844-2.845,2.845,1.273,2.845,2.845-1.273,2.846-2.845,2.846M302.707,27.662c-1.571,0-2.844-1.273-2.844-2.845s1.273-2.846,2.844-2.846,2.845,1.274,2.845,2.846-1.273,2.845-2.845,2.845M369.397,45.65c0,1.257-1.017,2.276-2.276,2.276h-49.846c-1.257,0-2.277-1.018-2.277-2.276v-25.242c0-1.257,1.02-2.276,2.277-2.276h49.846c1.258,0,2.276,1.019,2.276,2.276v25.242ZM381.689,39.225c-1.571,0-2.847-1.274-2.847-2.846s1.275-2.845,2.847-2.845,2.845,1.273,2.845,2.845-1.275,2.846-2.845,2.846M381.689,27.662c-1.571,0-2.847-1.273-2.847-2.845s1.275-2.846,2.847-2.846,2.845,1.274,2.845,2.846-1.275,2.845-2.845,2.845" fill="#d0cfcd" fill-rule="evenodd"/><path d="M287.664,12.852l-2.285-1.603v-.748c.091-.008.174-.058.215-.146.06-.132.006-.288-.13-.351-.026-.013-.056-.018-.085-.02v-.177c.135-.013.239-.122.239-.26,0-.136-.104-.247-.239-.259v-.201c.029-.003.059-.009.088-.022.133-.061.188-.218.128-.351-.041-.087-.124-.137-.215-.146v-.579l2.267-1.588.083.339,1.314-1.54-1.92.675.28.199-2.024,1.42v-.984h-3.921v2.307h-1.733v1.453h1.733v2.343h3.921v-.866l2.06,1.443-.289.194,1.897.709-1.291-1.575-.092.334ZM285.077,12.311h-3.319v-2.042h1.665v-1.453h-1.665v-2.006h3.319v5.5Z" fill="#2d2a26" fill-rule="evenodd"/><path d="M286.338,8.659c.132-.061.189-.219.128-.351-.061-.132-.22-.189-.351-.128-.132.061-.189.22-.128.352.061.132.218.188.35.127" fill="#2d2a26" fill-rule="evenodd"/><path d="M286.581,9.546c0-.145-.117-.262-.263-.262-.145,0-.263.117-.263.262,0,.146.117.265.263.265.146,0,.263-.119.263-.265" fill="#2d2a26" fill-rule="evenodd"/><path d="M286.116,10.889c.131.061.287.005.351-.127.061-.132.004-.289-.128-.35-.132-.063-.289-.005-.349.127-.061.132-.005.291.127.35" fill="#2d2a26" fill-rule="evenodd"/><path d="M286.988,11.295c.132.063.289.006.351-.127.062-.13.005-.289-.127-.35-.132-.061-.29-.005-.351.127-.062.132-.006.289.127.35" fill="#2d2a26" fill-rule="evenodd"/><path d="M287.861,11.703c.132.061.289.005.349-.127.063-.132.006-.291-.128-.352-.131-.061-.287-.005-.351.128-.06.132-.003.289.129.35" fill="#2d2a26" fill-rule="evenodd"/><path d="M288.605,11.759c-.062.133-.004.288.127.351.133.062.29.005.351-.128.063-.132.006-.288-.127-.349-.133-.063-.289-.003-.351.127" fill="#2d2a26" fill-rule="evenodd"/><path d="M289.479,12.167c-.062.132-.004.288.126.35.133.063.288.004.352-.129.06-.13.004-.287-.127-.348-.132-.063-.291-.005-.351.127" fill="#2d2a26" fill-rule="evenodd"/><path d="M290.352,12.574c-.061.13-.005.287.127.35.131.059.288.002.35-.129.061-.132.005-.288-.127-.351-.131-.061-.29-.003-.35.13" fill="#2d2a26" fill-rule="evenodd"/><path d="M292.094,9.284c-.147,0-.263.117-.263.262,0,.146.116.265.263.265.145,0,.263-.119.263-.265,0-.145-.118-.262-.263-.262" fill="#2d2a26" fill-rule="evenodd"/><path d="M291.132,9.284c-.145,0-.265.117-.265.262,0,.146.12.265.265.265s.263-.119.263-.265c0-.145-.117-.262-.263-.262" fill="#2d2a26" fill-rule="evenodd"/><path d="M290.432,9.546c0-.145-.118-.262-.265-.262-.144,0-.263.117-.263.262,0,.146.12.265.263.265.147,0,.265-.119.265-.265" fill="#2d2a26" fill-rule="evenodd"/><path d="M289.207,9.284c-.147,0-.264.117-.264.262,0,.146.117.265.264.265.145,0,.263-.119.263-.265,0-.145-.118-.262-.263-.262" fill="#2d2a26" fill-rule="evenodd"/><path d="M288.505,9.546c0-.145-.116-.262-.261-.262-.147,0-.264.117-.264.262,0,.146.117.265.264.265.145,0,.261-.119.261-.265" fill="#2d2a26" fill-rule="evenodd"/><path d="M287.544,9.546c0-.145-.117-.262-.264-.262-.145,0-.263.117-.263.262,0,.146.118.265.263.265.147,0,.264-.119.264-.265" fill="#2d2a26" fill-rule="evenodd"/><path d="M287.212,8.252c.13-.063.188-.219.127-.351-.062-.132-.218-.19-.351-.128-.132.061-.189.218-.126.352.06.13.217.186.35.127" fill="#2d2a26" fill-rule="evenodd"/><path d="M288.083,7.845c.134-.061.19-.219.127-.35-.059-.132-.217-.19-.348-.128-.132.063-.19.218-.129.35.063.133.218.189.351.128" fill="#2d2a26" fill-rule="evenodd"/><path d="M288.732,6.96c-.131.061-.189.217-.127.35.062.132.218.191.35.127.133-.059.19-.218.128-.35-.062-.132-.218-.189-.351-.127" fill="#2d2a26" fill-rule="evenodd"/><path d="M289.829,7.031c.131-.061.187-.219.127-.351-.063-.132-.218-.189-.35-.128-.131.061-.189.218-.128.352.06.132.219.189.351.127" fill="#2d2a26" fill-rule="evenodd"/><path d="M290.479,6.146c-.132.061-.188.219-.127.351.06.132.219.189.349.128.132-.061.189-.218.128-.35-.063-.133-.219-.189-.35-.128" fill="#2d2a26" fill-rule="evenodd"/><path d="M294.242,7.837c.552,0,.877-.24.877-.775,0-.309-.099-.505-.483-.67l-.391-.173c-.218-.091-.264-.186-.264-.343,0-.148.06-.294.291-.294.196,0,.278.14.278.377h.487v-.072c0-.486-.328-.68-.782-.68-.484,0-.783.252-.783.746,0,.421.208.609.662.764.336.118.454.202.454.432,0,.214-.149.313-.307.313-.269,0-.337-.152-.337-.39v-.074h-.509v.102c0,.469.227.737.806.737" fill="#2d2a26" fill-rule="evenodd"/><path d="M294.007,10.59h.674l.116.536h.532l-.67-2.53h-.631l-.67,2.53h.532l.117-.536ZM294.341,9.035h.006l.244,1.137h-.495l.246-1.137Z" fill="#2d2a26" fill-rule="evenodd"/><path d="M294.637,13.069l-.391-.171c-.218-.092-.264-.188-.264-.345,0-.147.06-.293.291-.293.196,0,.278.138.278.375h.487v-.069c0-.486-.328-.681-.783-.681-.483,0-.782.251-.782.744,0,.422.208.61.662.765.336.118.454.202.454.433,0,.212-.149.312-.306.312-.269,0-.337-.152-.337-.389v-.075h-.509v.1c0,.471.227.74.806.74.552,0,.877-.242.877-.778,0-.308-.099-.502-.483-.668" fill="#2d2a26" fill-rule="evenodd"/><path d="M220.12,14.102h-.706v-4.497c-.169.163-.393.324-.668.487-.276.162-.524.283-.744.365v-.683c.395-.185.74-.409,1.035-.674.296-.265.505-.52.628-.768h.454v5.771Z" fill="#2d2a26"/><path d="M248.731,13.423v.678h-3.799c-.005-.17.022-.333.082-.491.097-.259.252-.513.465-.764.213-.251.521-.541.923-.87.625-.512,1.046-.918,1.266-1.216.219-.299.329-.583.329-.85,0-.28-.1-.515-.299-.708-.2-.191-.461-.287-.783-.287-.34,0-.611.102-.815.306-.204.204-.307.486-.31.846l-.725-.074c.05-.541.236-.954.56-1.237.324-.283.76-.426,1.306-.426.552,0,.988.153,1.31.459.321.305.482.684.482,1.137,0,.23-.047.456-.141.678-.094.222-.25.457-.468.702-.218.246-.581.583-1.088,1.012-.423.355-.695.597-.816.723-.12.127-.219.255-.298.382h2.819Z" fill="#2d2a26"/><path d="M326.168,12.482l.706-.094c.08.4.218.687.414.865.195.176.432.264.711.264.332,0,.613-.115.841-.345.229-.23.344-.515.344-.854,0-.324-.106-.591-.318-.802-.211-.21-.481-.316-.807-.316-.133,0-.3.026-.499.079l.079-.62c.047.006.085.008.114.008.3,0,.571-.078.811-.235.24-.157.361-.398.361-.725,0-.259-.088-.473-.263-.643-.175-.17-.401-.255-.678-.255-.275,0-.503.086-.687.259s-.301.431-.352.776l-.706-.125c.086-.473.282-.84.588-1.1.306-.26.687-.39,1.141-.39.314,0,.602.067.866.202.263.134.466.318.605.551.141.233.21.479.21.74,0,.249-.067.475-.2.678-.133.204-.331.366-.592.487.339.078.604.241.792.487.188.248.282.556.282.927,0,.502-.183.928-.548,1.276-.366.35-.829.524-1.388.524-.505,0-.923-.151-1.257-.451s-.523-.69-.57-1.168" fill="#2d2a26"/><path d="M356.323,14.102v-1.376h-2.493v-.647l2.622-3.725h.577v3.725h.776v.647h-.776v1.376h-.706ZM356.323,12.079v-2.592l-1.799,2.592h1.799Z" fill="#2d2a26"/><rect x="232.377" y="1.584" width="1.138" height="16.548" fill="#2d2a26"/><rect x="341.629" y="1.584" width="1.137" height="16.546" fill="#2d2a26"/><polygon points="277.595 34.876 276.931 34.876 276.931 38.262 279.21 38.262 279.21 37.646 277.595 37.646 277.595 34.876" fill="#2d2a26"/><polygon points="281.824 37.17 280.394 34.923 280.364 34.877 279.7 34.877 279.7 38.262 280.317 38.262 280.317 35.925 281.749 38.215 281.779 38.262 282.442 38.262 282.442 34.877 281.824 34.877 281.824 37.17" fill="#2d2a26"/><polygon points="285.92 34.876 285.024 34.876 283.551 36.266 283.551 34.876 282.934 34.876 282.934 38.262 283.551 38.262 283.551 37.053 283.982 36.693 285.028 38.218 285.059 38.262 285.913 38.262 284.415 36.281 285.92 34.876" fill="#2d2a26"/><polygon points="180.574 34.876 179.911 34.876 179.911 38.262 182.189 38.262 182.189 37.646 180.574 37.646 180.574 34.876" fill="#2d2a26"/><polygon points="184.805 37.17 183.373 34.923 183.343 34.877 182.681 34.877 182.681 38.262 183.297 38.262 183.297 35.925 184.728 38.215 184.758 38.262 185.422 38.262 185.422 34.877 184.805 34.877 184.805 37.17" fill="#2d2a26"/><polygon points="188.004 34.876 186.531 36.266 186.531 34.876 185.913 34.876 185.913 38.262 186.531 38.262 186.531 37.053 186.962 36.693 188.009 38.218 188.039 38.262 188.894 38.262 187.395 36.281 188.899 34.876 188.004 34.876" fill="#2d2a26"/><polygon points="289.825 34.876 289.164 34.876 289.164 38.262 291.441 38.262 291.441 37.646 289.825 37.646 289.825 34.876" fill="#2d2a26"/><polygon points="294.057 37.17 292.625 34.923 292.595 34.877 291.933 34.877 291.933 38.262 292.549 38.262 292.549 35.925 293.98 38.215 294.01 38.262 294.675 38.262 294.675 34.877 294.057 34.877 294.057 37.17" fill="#2d2a26"/><polygon points="297.257 34.876 295.783 36.266 295.783 34.876 295.166 34.876 295.166 38.262 295.783 38.262 295.783 37.053 296.214 36.693 297.261 38.218 297.291 38.262 298.146 38.262 296.647 36.281 298.152 34.876 297.257 34.876" fill="#2d2a26"/><polygon points="387.014 34.876 386.353 34.876 386.353 38.262 388.63 38.262 388.63 37.646 387.014 37.646 387.014 34.876" fill="#2d2a26"/><polygon points="391.245 37.17 389.814 34.923 389.784 34.877 389.122 34.877 389.122 38.262 389.738 38.262 389.738 35.925 391.169 38.215 391.199 38.262 391.864 38.262 391.864 34.877 391.245 34.877 391.245 37.17" fill="#2d2a26"/><polygon points="395.341 34.876 394.446 34.876 392.972 36.266 392.972 34.876 392.354 34.876 392.354 38.262 392.972 38.262 392.972 37.053 393.403 36.693 394.45 38.218 394.48 38.262 395.334 38.262 393.836 36.281 395.341 34.876" fill="#2d2a26"/><path d="M184.09,25.657l.087,1.001h.3l.331-3.424h0c.01-.135.015-.25.015-.346,0-.621-.276-.752-.508-.752-.224,0-.492.139-.492.798,0,.154.036.573.111,1.282.064.574.15,1.348.156,1.44" fill="#010101"/><path d="M184.687,27.437c-.224-.238-.544-.216-.719-.015-.096.103-.144.234-.144.39,0,.155.062.286.182.378.096.071.202.106.318.106.12,0,.234-.038.346-.116.112-.092.169-.216.169-.368,0-.148-.051-.274-.153-.375" fill="#010101"/><path d="M184.09,25.657l.087,1.001h.3l.331-3.424h0c.01-.135.015-.25.015-.346,0-.621-.276-.752-.508-.752-.224,0-.492.139-.492.798,0,.154.036.573.111,1.282.064.574.15,1.348.156,1.44" fill="#2d2a26"/><path d="M184.687,27.437c-.224-.238-.544-.216-.719-.015-.096.103-.144.234-.144.39,0,.155.062.286.182.378.096.071.202.106.318.106.12,0,.234-.038.346-.116.112-.092.169-.216.169-.368,0-.148-.051-.274-.153-.375" fill="#2d2a26"/><path d="M281.184,25.657l.087,1.001h.3l.331-3.424h0c.01-.135.015-.25.015-.346,0-.621-.276-.752-.508-.752-.224,0-.492.139-.492.798,0,.154.036.573.111,1.282.064.574.15,1.348.156,1.44" fill="#2d2a26"/><path d="M281.781,27.437c-.224-.238-.544-.216-.719-.015-.096.103-.144.234-.144.39,0,.155.062.286.182.378.096.071.202.106.318.106.12,0,.234-.038.346-.116.112-.092.169-.216.169-.368,0-.148-.051-.274-.153-.375" fill="#2d2a26"/><path d="M293.561,25.657l.087,1.001h.3l.331-3.424h0c.01-.135.015-.25.015-.346,0-.621-.276-.752-.508-.752-.224,0-.492.139-.492.798,0,.154.036.573.111,1.282.064.574.15,1.348.156,1.44" fill="#2d2a26"/><path d="M294.158,27.437c-.224-.238-.544-.216-.719-.015-.096.103-.144.234-.144.39,0,.155.062.286.182.378.096.071.202.106.318.106.12,0,.234-.038.346-.116.112-.092.169-.216.169-.368,0-.148-.051-.274-.153-.375" fill="#2d2a26"/><path d="M390.584,25.657l.087,1.001h.3l.331-3.424h0c.01-.135.015-.25.015-.346,0-.621-.276-.752-.508-.752-.224,0-.492.139-.492.798,0,.154.036.573.111,1.282.064.574.15,1.348.156,1.44" fill="#2d2a26"/><path d="M391.181,27.437c-.224-.238-.544-.216-.719-.015-.096.103-.144.234-.144.39,0,.155.062.286.182.378.096.071.202.106.318.106.12,0,.234-.038.346-.116.112-.092.169-.216.169-.368,0-.148-.051-.274-.153-.375" fill="#2d2a26"/><rect x="112.295" y="1.582" width="41.569" height="71.013" fill="#005cb9"/><polygon points="153.864 63.505 153.864 72.595 144.774 72.595 153.864 63.505" fill="#005cb9"/><polygon points="153.864 53.846 153.864 63.505 144.774 72.595 135.123 72.595 153.864 53.846" fill="#d0cfcd"/><polygon points="153.864 40.974 153.864 53.846 135.123 72.595 122.243 72.595 153.864 40.974" fill="#005cb9"/><polygon points="153.864 31.315 153.864 40.974 122.243 72.595 112.584 72.595 153.864 31.315" fill="#d0cfcd"/><polygon points="153.864 18.444 153.864 31.315 112.584 72.595 112.295 72.595 112.295 60.012 153.864 18.444" fill="#005cb9"/><polygon points="153.864 8.784 153.864 18.444 112.295 60.012 112.295 50.353 112.303 50.353 112.311 50.345 146.348 16.308 153.864 8.784" fill="#d0cfcd"/><polygon points="153.864 1.582 153.864 8.784 146.348 16.308 112.311 50.345 112.303 50.353 112.295 50.353 112.295 50.345 112.295 37.482 148.195 1.582 153.864 1.582" fill="#005cb9"/><polygon points="148.195 1.582 112.295 37.482 112.295 27.822 138.535 1.582 148.195 1.582" fill="#d0cfcd"/><polygon points="138.535 1.582 112.295 27.822 112.295 14.951 125.664 1.582 138.535 1.582" fill="#005cb9"/><polygon points="125.664 1.582 112.295 14.951 112.295 5.291 116.004 1.582 125.664 1.582" fill="#d0cfcd"/><polygon points="116.004 1.582 112.295 5.291 112.295 1.582 116.004 1.582" fill="#005cb9"/><path d="M193.462,27.67c-1.571,0-2.845-1.273-2.845-2.845s1.273-2.846,2.845-2.846,2.845,1.274,2.845,2.846-1.273,2.845-2.845,2.845" fill="#595959" fill-rule="evenodd"/><path d="M272.439,27.67c-1.571,0-2.845-1.273-2.845-2.845s1.273-2.846,2.845-2.846,2.845,1.274,2.845,2.846-1.273,2.845-2.845,2.845" fill="#595959" fill-rule="evenodd"/><path d="M302.704,27.67c-1.571,0-2.845-1.273-2.845-2.845s1.273-2.846,2.845-2.846,2.845,1.274,2.845,2.846-1.273,2.845-2.845,2.845" fill="#595959" fill-rule="evenodd"/><path d="M381.672,27.67c-1.571,0-2.845-1.273-2.845-2.845s1.273-2.846,2.845-2.846,2.845,1.274,2.845,2.846-1.273,2.845-2.845,2.845" fill="#595959" fill-rule="evenodd"/><path d="M419.106,27.67c-1.571,0-2.845-1.273-2.845-2.845s1.273-2.846,2.845-2.846,2.845,1.274,2.845,2.846-1.273,2.845-2.845,2.845" fill="#595959"/><path d="M193.462,39.235c-1.571,0-2.845-1.273-2.845-2.845s1.273-2.846,2.845-2.846,2.845,1.274,2.845,2.846-1.273,2.845-2.845,2.845" fill="#595959" fill-rule="evenodd"/><path d="M272.439,39.235c-1.571,0-2.845-1.273-2.845-2.845s1.273-2.846,2.845-2.846,2.845,1.274,2.845,2.846-1.273,2.845-2.845,2.845" fill="#595959" fill-rule="evenodd"/><path d="M302.704,39.235c-1.571,0-2.845-1.273-2.845-2.845s1.273-2.846,2.845-2.846,2.845,1.274,2.845,2.846-1.273,2.845-2.845,2.845" fill="#595959" fill-rule="evenodd"/><path d="M381.672,39.235c-1.571,0-2.845-1.273-2.845-2.845s1.273-2.846,2.845-2.846,2.845,1.274,2.845,2.846-1.273,2.845-2.845,2.845" fill="#595959" fill-rule="evenodd"/><path d="M419.106,39.235c-1.571,0-2.845-1.273-2.845-2.845s1.273-2.846,2.845-2.846,2.845,1.274,2.845,2.846-1.273,2.845-2.845,2.845" fill="#595959"/></g><g id="c"><rect x="462.522" y="79.592" width="23.484" height="4.009" fill="#d9d9d9"/><rect x="183.58" y="68.713" width="11.455" height="17.178" fill="#595959"/><rect x="309.304" y="74.439" width="153.218" height="11.452" fill="#595959"/><rect x="305.294" y="74.439" width="4.01" height="11.452" fill="#595959"/><rect x="305.294" y="74.439" width="4.01" height="11.452" fill="none" stroke="#404040" stroke-linecap="round" stroke-linejoin="round" stroke-width=".011"/><rect x="8.596" y="74.439" width="113.983" height="11.452" fill="#595959"/><rect x="122.579" y="74.439" width="4.01" height="11.452" fill="#595959"/><path d="M241.797,74.439c-2.335,0-4.663-.285-6.928-.85l-16.149-4.025c-2.267-.565-4.594-.851-6.928-.851h-17.329c-.633,0-1.146.513-1.146,1.145v14.888c0,.633.513,1.145,1.146,1.145h110.832v-11.452h-63.498Z" fill="#666" fill-rule="evenodd"/><path d="M202.482,84.174h96.513v-8.017h-57.199c-2.476,0-4.942-.303-7.344-.901l-16.15-4.026c-2.129-.531-4.317-.799-6.512-.799h-9.309v13.743Z" fill="#d86a27" fill-rule="evenodd"/><polygon points="215.874 77.188 210.92 74.936 210.91 79.67 215.874 77.188" fill="#404040" fill-rule="evenodd"/><path d="M166.855,74.439h-40.265v11.452h57.564c.633,0,1.145-.512,1.145-1.145h.001v-14.888c-.001-.632-.513-1.145-1.146-1.145h-7.904c-.631,0-1.246.209-1.746.594l-5.902,4.539c-.5.385-1.114.593-1.746.593" fill="#666" fill-rule="evenodd"/><rect x=".005" y="78.161" width="17.183" height="7.731" fill="#666"/><rect x="462.522" y="83.601" width="21.479" height="2.29" fill="#ccc"/></g></svg>