<?xml version="1.0" encoding="UTF-8"?><svg id="a" xmlns="http://www.w3.org/2000/svg" width="4.1in" height="2.25in" viewBox="0 0 295.2 162"><rect x="21.541" y="84.126" width="251.243" height="49.039" fill="#d9d9d9" stroke-width="0"/><path d="M34.062,120.777c-.085-.136-.19-.255-.317-.357-.126-.103-.27-.183-.43-.24-.16-.057-.328-.086-.502-.086-.32,0-.592.062-.815.186-.223.124-.404.29-.543.498-.139.208-.24.445-.303.711-.063.266-.095.541-.095.824,0,.272.032.536.095.793.063.256.165.487.303.693.139.205.32.37.543.494.224.124.495.186.815.186.435,0,.774-.133,1.019-.398.244-.266.394-.616.448-1.051h1.376c-.036.405-.13.77-.281,1.096-.151.326-.35.604-.598.833s-.538.405-.87.525-.697.181-1.096.181c-.495,0-.94-.086-1.336-.258-.396-.172-.729-.409-1.001-.711-.271-.302-.48-.657-.625-1.064-.145-.407-.217-.847-.217-1.318,0-.483.072-.931.217-1.345s.354-.774.625-1.083c.271-.308.605-.549,1.001-.725.396-.175.841-.263,1.336-.263.356,0,.693.052,1.01.154s.601.252.852.448c.25.196.457.439.62.729.163.29.266.622.308.997h-1.377c-.024-.163-.078-.312-.163-.449Z" fill="#221f1f" stroke-width="0"/><path d="M36.516,122.163c.115-.305.278-.564.489-.779s.465-.38.761-.498.628-.177.997-.177.702.059,1,.177.554.284.766.498c.211.214.374.474.489.779.115.305.172.645.172,1.019s-.058.713-.172,1.015-.278.56-.489.774c-.211.214-.467.379-.766.494-.299.114-.632.172-1,.172s-.701-.058-.997-.172c-.296-.115-.549-.279-.761-.494s-.375-.473-.489-.774-.172-.64-.172-1.015.057-.714.172-1.019ZM37.685,123.73c.036.178.098.338.186.48.088.142.204.255.349.339.145.085.326.127.543.127s.4-.042.548-.127c.148-.084.266-.198.353-.339.087-.142.149-.302.186-.48.036-.178.054-.36.054-.548s-.018-.371-.054-.552c-.037-.181-.099-.341-.186-.48-.087-.139-.205-.252-.353-.34s-.331-.131-.548-.131-.399.044-.543.131c-.145.087-.261.201-.349.34-.087.139-.149.299-.186.48s-.054.365-.054.552.018.37.054.548Z" fill="#221f1f" stroke-width="0"/><path d="M43.246,120.836v.652h.027c.163-.271.374-.469.634-.593.26-.124.525-.186.797-.186.344,0,.626.047.847.141.22.094.394.223.521.389.127.167.216.369.268.607.051.239.077.503.077.792v2.88h-1.286v-2.645c0-.387-.061-.675-.181-.865-.121-.19-.335-.285-.643-.285-.35,0-.604.104-.761.312-.157.208-.235.551-.235,1.028v2.455h-1.286v-4.683h1.223Z" fill="#221f1f" stroke-width="0"/><path d="M49.966,120.836v.86h-.942v2.319c0,.217.036.362.108.435.073.073.217.109.435.109.072,0,.142-.003.208-.009.066-.006.13-.015.19-.027v.996c-.109.018-.229.03-.362.036s-.263.009-.39.009c-.199,0-.388-.014-.566-.041-.178-.027-.335-.08-.471-.158s-.243-.19-.321-.335c-.079-.145-.118-.335-.118-.57v-2.763h-.779v-.86h.779v-1.404h1.286v1.404h.942Z" fill="#221f1f" stroke-width="0"/><path d="M51.805,120.836v.87h.018c.06-.145.142-.279.245-.403.103-.124.22-.229.353-.317s.275-.155.426-.204.308-.073.471-.073c.084,0,.178.015.281.045v1.195c-.061-.012-.133-.022-.218-.031-.084-.009-.166-.014-.244-.014-.236,0-.435.039-.598.118s-.294.186-.394.321c-.1.136-.17.294-.212.476-.042.181-.063.377-.063.589v2.11h-1.286v-4.683h1.223Z" fill="#221f1f" stroke-width="0"/><path d="M53.969,122.163c.115-.305.278-.564.489-.779s.465-.38.761-.498.628-.177.997-.177.702.059,1,.177.554.284.766.498c.211.214.374.474.489.779.115.305.172.645.172,1.019s-.058.713-.172,1.015-.278.56-.489.774c-.211.214-.467.379-.766.494-.299.114-.632.172-1,.172s-.701-.058-.997-.172c-.296-.115-.549-.279-.761-.494s-.375-.473-.489-.774-.172-.64-.172-1.015.057-.714.172-1.019ZM55.138,123.73c.036.178.098.338.186.48.088.142.204.255.349.339.145.085.326.127.543.127s.4-.042.548-.127c.148-.084.266-.198.353-.339.087-.142.149-.302.186-.48.036-.178.054-.36.054-.548s-.018-.371-.054-.552c-.037-.181-.099-.341-.186-.48-.087-.139-.205-.252-.353-.34s-.331-.131-.548-.131-.399.044-.543.131c-.145.087-.261.201-.349.34-.087.139-.149.299-.186.48s-.054.365-.054.552.018.37.054.548Z" fill="#221f1f" stroke-width="0"/><path d="M60.799,119.052v6.467h-1.286v-6.467h1.286Z" fill="#221f1f" stroke-width="0"/><path d="M63.136,119.052v6.467h-1.286v-6.467h1.286Z" fill="#221f1f" stroke-width="0"/><path d="M65.526,124.396c.193.187.471.281.833.281.259,0,.483-.065.67-.195.188-.13.302-.267.344-.412h1.132c-.181.562-.459.963-.833,1.205-.374.242-.827.362-1.358.362-.368,0-.701-.059-.996-.177-.296-.118-.547-.285-.752-.502-.206-.217-.364-.477-.476-.779-.112-.302-.167-.634-.167-.997,0-.35.057-.676.172-.978s.278-.563.489-.784c.211-.22.463-.394.756-.521.293-.127.617-.19.974-.19.398,0,.746.077,1.042.231.296.154.539.361.729.621.19.26.328.556.412.888s.115.679.091,1.042h-3.378c.018.417.124.719.317.906ZM66.98,121.932c-.154-.169-.388-.253-.702-.253-.206,0-.376.035-.512.104-.136.07-.245.156-.326.258s-.139.211-.172.326c-.034.115-.053.217-.059.308h2.092c-.061-.326-.167-.573-.322-.743Z" fill="#221f1f" stroke-width="0"/><path d="M70.572,120.836v.87h.018c.06-.145.142-.279.245-.403.103-.124.22-.229.353-.317s.275-.155.426-.204.308-.073.471-.073c.084,0,.178.015.281.045v1.195c-.061-.012-.133-.022-.218-.031-.084-.009-.166-.014-.244-.014-.236,0-.435.039-.598.118s-.294.186-.394.321c-.1.136-.17.294-.212.476-.042.181-.063.377-.063.589v2.11h-1.286v-4.683h1.223Z" fill="#221f1f" stroke-width="0"/><path d="M78.569,119.052c.308,0,.588.027.842.082.253.054.471.143.652.267.181.124.322.288.421.494.1.205.149.459.149.761,0,.326-.074.598-.222.815-.148.218-.367.396-.656.535.398.115.696.315.892.602.196.287.294.633.294,1.037,0,.326-.063.608-.19.847-.127.238-.297.433-.512.584s-.459.263-.734.335c-.274.073-.557.109-.847.109h-3.134v-6.467h3.043ZM78.388,121.669c.253,0,.462-.06.625-.181.163-.121.245-.317.245-.588,0-.151-.027-.275-.082-.372-.054-.096-.126-.172-.217-.227-.09-.054-.195-.092-.312-.113-.118-.021-.24-.032-.367-.032h-1.332v1.512h1.44ZM78.47,124.414c.139,0,.271-.014.398-.041.126-.027.238-.072.335-.136s.173-.149.231-.258c.057-.109.086-.248.086-.417,0-.332-.094-.569-.281-.711-.187-.142-.435-.213-.743-.213h-1.549v1.775h1.522Z" fill="#221f1f" stroke-width="0"/><rect x="21.541" y="30.805" width="251.243" height="48.248" fill="#d9d9d9" stroke-width="0"/><rect x="148.814" y="32.315" width="42.671" height="23.849" fill="#26a7df" stroke-width="0"/><path d="M159.683,40.563c.404,0,.749.059,1.033.176.284.118.515.273.693.467.178.193.308.414.389.661s.123.504.123.77c0,.26-.041.515-.123.766s-.211.473-.389.666c-.178.193-.409.349-.693.467-.284.118-.628.176-1.033.176h-1.495v2.319h-1.422v-6.467h2.917ZM159.293,43.606c.163,0,.32-.012.471-.036.151-.024.284-.071.398-.14s.207-.168.276-.294c.069-.127.104-.293.104-.499s-.035-.371-.104-.498c-.07-.126-.162-.225-.276-.294-.115-.069-.248-.116-.398-.14s-.308-.036-.471-.036h-1.105v1.938h1.105Z" fill="#fff" stroke-width="0"/><path d="M163.895,45.436c.078.151.183.273.312.367.13.093.282.163.458.208.175.045.356.068.543.068.126,0,.262-.01.407-.032.145-.021.281-.062.408-.122s.232-.144.317-.249.127-.24.127-.403c0-.175-.056-.317-.167-.425-.112-.109-.258-.2-.439-.272s-.386-.136-.616-.19c-.229-.055-.462-.115-.698-.181-.241-.061-.477-.135-.706-.222-.23-.087-.435-.201-.616-.34-.181-.139-.328-.312-.439-.521-.112-.208-.168-.46-.168-.756,0-.332.071-.621.213-.865.142-.245.328-.449.557-.612.229-.163.489-.284.779-.362.29-.078.58-.118.87-.118.338,0,.663.038.974.113.311.076.587.198.829.367.242.169.434.385.575.648.142.263.213.581.213.956h-1.376c-.012-.193-.053-.354-.123-.48-.069-.127-.162-.227-.276-.299-.115-.072-.246-.124-.394-.154-.148-.03-.31-.045-.485-.045-.115,0-.229.012-.344.037-.115.024-.219.066-.312.126-.093.061-.17.136-.231.227-.06.09-.09.206-.09.344,0,.127.024.229.072.308.048.078.144.151.286.217.142.066.338.133.588.199s.578.151.983.253c.121.024.288.068.502.131s.427.165.639.304c.211.139.394.324.548.557.154.233.231.53.231.893,0,.296-.057.57-.172.824-.115.253-.285.472-.512.656-.227.185-.507.328-.842.43-.335.103-.723.154-1.164.154-.356,0-.702-.044-1.037-.131-.335-.087-.631-.225-.888-.412-.256-.187-.46-.426-.611-.716-.151-.29-.223-.634-.217-1.032h1.377c0,.217.039.401.118.552Z" fill="#fff" stroke-width="0"/><path d="M173.441,46.537c-.489.426-1.165.639-2.029.639-.875,0-1.553-.211-2.033-.634-.48-.422-.72-1.075-.72-1.956v-4.021h1.422v4.021c0,.175.015.347.045.516s.094.318.19.448c.096.13.231.235.403.317.172.082.403.123.693.123.507,0,.857-.113,1.051-.34s.29-.581.29-1.064v-4.021h1.422v4.021c0,.875-.245,1.526-.734,1.952Z" fill="#fff" stroke-width="0"/><path d="M176.847,42.117c.097-.311.241-.583.435-.815.193-.232.437-.413.729-.543.292-.129.629-.194,1.01-.194.29,0,.566.045.829.136.263.09.494.22.693.39.199.169.358.377.476.625.118.248.177.525.177.833,0,.32-.051.595-.154.824-.103.229-.238.433-.407.611-.169.178-.361.34-.575.484-.214.145-.43.289-.647.431-.218.142-.429.294-.634.457s-.386.354-.543.571h2.998v1.105h-4.655c0-.368.053-.688.158-.96.105-.272.249-.515.43-.729s.394-.412.639-.593.502-.366.774-.553c.139-.097.287-.195.444-.294.157-.1.3-.209.43-.331.13-.121.238-.256.326-.408.087-.151.131-.323.131-.516,0-.308-.089-.548-.267-.72-.178-.172-.406-.258-.684-.258-.187,0-.346.044-.476.131s-.234.202-.312.344c-.079.142-.134.299-.167.471-.033.172-.05.343-.05.512h-1.232c-.012-.362.03-.699.127-1.01Z" fill="#fff" stroke-width="0"/><path d="M32.987,69.049c-.085-.136-.19-.255-.317-.357-.126-.103-.27-.183-.43-.24-.16-.057-.328-.086-.502-.086-.32,0-.592.062-.815.186-.223.124-.404.29-.543.498-.139.208-.24.445-.303.711-.063.266-.095.541-.095.824,0,.272.032.536.095.793.063.256.165.487.303.693.139.205.32.37.543.494.224.124.495.186.815.186.435,0,.774-.133,1.019-.398.244-.266.394-.616.448-1.051h1.376c-.036.405-.13.77-.281,1.096-.151.326-.35.604-.598.833s-.538.405-.87.525-.697.181-1.096.181c-.495,0-.94-.086-1.336-.258-.396-.172-.729-.409-1.001-.711-.271-.302-.48-.657-.625-1.064-.145-.407-.217-.847-.217-1.318,0-.483.072-.931.217-1.345s.354-.774.625-1.083c.271-.308.605-.549,1.001-.725.396-.175.841-.263,1.336-.263.356,0,.693.052,1.01.154s.601.252.852.448c.25.196.457.439.62.729.163.29.266.622.308.997h-1.377c-.024-.163-.078-.312-.163-.449Z" fill="#221f1f" stroke-width="0"/><path d="M35.441,70.435c.115-.305.278-.564.489-.779s.465-.38.761-.498.628-.177.997-.177.702.059,1,.177.554.284.766.498c.211.214.374.474.489.779.115.305.172.645.172,1.019s-.058.713-.172,1.015-.278.56-.489.774c-.211.214-.467.379-.766.494-.299.114-.632.172-1,.172s-.701-.058-.997-.172c-.296-.115-.549-.279-.761-.494s-.375-.473-.489-.774-.172-.64-.172-1.015.057-.714.172-1.019ZM36.609,72.002c.036.178.098.338.186.48.088.142.204.255.349.339.145.085.326.127.543.127s.4-.042.548-.127c.148-.084.266-.198.353-.339.087-.142.149-.302.186-.48.036-.178.054-.36.054-.548s-.018-.371-.054-.552c-.037-.181-.099-.341-.186-.48-.087-.139-.205-.252-.353-.34s-.331-.131-.548-.131-.399.044-.543.131c-.145.087-.261.201-.349.34-.087.139-.149.299-.186.48s-.054.365-.054.552.018.37.054.548Z" fill="#221f1f" stroke-width="0"/><path d="M42.171,69.108v.652h.027c.163-.271.374-.469.634-.593.26-.124.525-.186.797-.186.344,0,.626.047.847.141.22.094.394.223.521.389.127.167.216.369.268.607.051.239.077.503.077.792v2.88h-1.286v-2.645c0-.387-.061-.675-.181-.865-.121-.19-.335-.285-.643-.285-.35,0-.604.104-.761.312-.157.208-.235.551-.235,1.028v2.455h-1.286v-4.683h1.223Z" fill="#221f1f" stroke-width="0"/><path d="M48.891,69.108v.86h-.942v2.319c0,.217.036.362.108.435.073.073.217.109.435.109.072,0,.142-.003.208-.009.066-.006.13-.015.19-.027v.996c-.109.018-.229.03-.362.036s-.263.009-.39.009c-.199,0-.388-.014-.566-.041-.178-.027-.335-.08-.471-.158s-.243-.19-.321-.335c-.079-.145-.118-.335-.118-.57v-2.763h-.779v-.86h.779v-1.404h1.286v1.404h.942Z" fill="#221f1f" stroke-width="0"/><path d="M50.73,69.108v.87h.018c.06-.145.142-.279.245-.403.103-.124.22-.229.353-.317s.275-.155.426-.204.308-.073.471-.073c.084,0,.178.015.281.045v1.195c-.061-.012-.133-.022-.218-.031-.084-.009-.166-.014-.244-.014-.236,0-.435.039-.598.118s-.294.186-.394.321c-.1.136-.17.294-.212.476-.042.181-.063.377-.063.589v2.11h-1.286v-4.683h1.223Z" fill="#221f1f" stroke-width="0"/><path d="M52.894,70.435c.115-.305.278-.564.489-.779s.465-.38.761-.498.628-.177.997-.177.702.059,1,.177.554.284.766.498c.211.214.374.474.489.779.115.305.172.645.172,1.019s-.058.713-.172,1.015-.278.56-.489.774c-.211.214-.467.379-.766.494-.299.114-.632.172-1,.172s-.701-.058-.997-.172c-.296-.115-.549-.279-.761-.494s-.375-.473-.489-.774-.172-.64-.172-1.015.057-.714.172-1.019ZM54.062,72.002c.036.178.098.338.186.48.088.142.204.255.349.339.145.085.326.127.543.127s.4-.042.548-.127c.148-.084.266-.198.353-.339.087-.142.149-.302.186-.48.036-.178.054-.36.054-.548s-.018-.371-.054-.552c-.037-.181-.099-.341-.186-.48-.087-.139-.205-.252-.353-.34s-.331-.131-.548-.131-.399.044-.543.131c-.145.087-.261.201-.349.34-.087.139-.149.299-.186.48s-.054.365-.054.552.018.37.054.548Z" fill="#221f1f" stroke-width="0"/><path d="M59.724,67.324v6.467h-1.286v-6.467h1.286Z" fill="#221f1f" stroke-width="0"/><path d="M62.061,67.324v6.467h-1.286v-6.467h1.286Z" fill="#221f1f" stroke-width="0"/><path d="M64.451,72.668c.193.187.471.281.833.281.259,0,.483-.065.67-.195.188-.13.302-.267.344-.412h1.132c-.181.562-.459.963-.833,1.205-.374.242-.827.362-1.358.362-.368,0-.701-.059-.996-.177-.296-.118-.547-.285-.752-.502-.206-.217-.364-.477-.476-.779-.112-.302-.167-.634-.167-.997,0-.35.057-.676.172-.978s.278-.563.489-.784c.211-.22.463-.394.756-.521.293-.127.617-.19.974-.19.398,0,.746.077,1.042.231.296.154.539.361.729.621.19.26.328.556.412.888s.115.679.091,1.042h-3.378c.018.417.124.719.317.906ZM65.905,70.204c-.154-.169-.388-.253-.702-.253-.206,0-.376.035-.512.104-.136.07-.245.156-.326.258s-.139.211-.172.326c-.034.115-.053.217-.059.308h2.092c-.061-.326-.167-.573-.322-.743Z" fill="#221f1f" stroke-width="0"/><path d="M69.497,69.108v.87h.018c.06-.145.142-.279.245-.403.103-.124.22-.229.353-.317s.275-.155.426-.204.308-.073.471-.073c.084,0,.178.015.281.045v1.195c-.061-.012-.133-.022-.218-.031-.084-.009-.166-.014-.244-.014-.236,0-.435.039-.598.118s-.294.186-.394.321c-.1.136-.17.294-.212.476-.042.181-.063.377-.063.589v2.11h-1.286v-4.683h1.223Z" fill="#221f1f" stroke-width="0"/><path d="M77.675,67.324l2.418,6.467h-1.476l-.489-1.44h-2.418l-.507,1.44h-1.431l2.445-6.467h1.458ZM77.756,71.291l-.815-2.373h-.018l-.842,2.373h1.675Z" fill="#221f1f" stroke-width="0"/><polyline points="103.225 43.844 10.839 43.844 10.839 13.998 21.898 13.998" fill="none" stroke="#fff" stroke-miterlimit="10" stroke-width="5.266"/><polyline points="103.225 43.844 10.839 43.844 10.839 13.998 21.898 13.998" fill="none" stroke="#1e4a92" stroke-miterlimit="10" stroke-width="2.633"/><polyline points="103.225 97.314 3.412 98.193 3.412 8.567 21.898 8.567" fill="none" stroke="#fff" stroke-miterlimit="10" stroke-width="5.266"/><polyline points="103.225 97.314 3.412 98.193 3.412 8.567 21.898 8.567" fill="none" stroke="#1e4a92" stroke-miterlimit="10" stroke-width="2.633"/><polyline points="191.794 96.393 283.762 96.393 283.762 148.707 272.575 148.707" fill="none" stroke="#fff" stroke-miterlimit="10" stroke-width="5.266"/><polyline points="191.794 96.393 283.762 96.393 283.762 148.707 272.575 148.707" fill="none" stroke="#26a7df" stroke-miterlimit="10" stroke-width="2.633"/><polyline points="272.575 153.636 291.412 153.636 291.412 43.846 191.605 43.846" fill="none" stroke="#fff" stroke-miterlimit="10" stroke-width="5.266"/><polyline points="272.575 153.636 291.412 153.636 291.412 43.846 191.605 43.846" fill="none" stroke="#26a7df" stroke-miterlimit="10" stroke-width="2.633"/><rect x="21.574" y="2.422" width="122.309" height="17.555" fill="#1e4a92" stroke-width="0"/><path d="M31.672,8.11c.392,0,.726.057,1,.171.275.114.499.265.671.452.173.188.298.401.377.641.079.24.119.489.119.746,0,.252-.04.499-.119.742s-.205.458-.377.645c-.172.188-.396.338-.671.452s-.608.171-1,.171h-1.448v2.247h-1.378v-6.267h2.826ZM31.295,11.06c.158,0,.31-.012.457-.035.146-.023.275-.069.386-.136.111-.067.2-.163.268-.285.067-.123.101-.284.101-.483s-.034-.36-.101-.482c-.067-.123-.157-.218-.268-.286-.111-.067-.24-.112-.386-.136-.146-.023-.298-.035-.457-.035h-1.071v1.878h1.071Z" fill="#fff" stroke-width="0"/><path d="M34.595,11.125c.111-.295.269-.547.474-.754.205-.208.451-.369.737-.483s.608-.171.965-.171.68.057.97.171c.29.114.537.275.741.483.205.208.363.459.474.754.111.296.167.625.167.988s-.056.69-.167.983-.269.542-.474.75c-.205.208-.452.367-.741.478-.29.111-.613.167-.97.167s-.679-.056-.965-.167c-.287-.111-.532-.271-.737-.478-.205-.208-.363-.458-.474-.75-.111-.292-.167-.62-.167-.983s.056-.692.167-.988ZM35.727,12.644c.035.173.095.328.18.465.084.137.197.247.338.329.14.082.316.123.526.123s.388-.041.531-.123c.143-.082.257-.192.342-.329.084-.138.145-.292.18-.465.035-.172.053-.35.053-.531s-.018-.36-.053-.536c-.035-.175-.095-.331-.18-.465-.085-.134-.199-.244-.342-.329-.144-.084-.32-.127-.531-.127s-.386.042-.526.127c-.141.085-.253.195-.338.329-.085.135-.145.29-.18.465-.035.176-.053.354-.053.536s.018.358.053.531Z" fill="#fff" stroke-width="0"/><path d="M43.836,14.377l-.807-3.045h-.018l-.772,3.045h-1.29l-1.439-4.538h1.316l.834,3.081h.018l.754-3.081h1.211l.772,3.072h.018l.833-3.072h1.282l-1.431,4.538h-1.282Z" fill="#fff" stroke-width="0"/><path d="M48.41,13.289c.187.182.456.272.807.272.252,0,.468-.062.65-.188.181-.126.292-.259.333-.399h1.097c-.176.544-.445.934-.808,1.167s-.802.351-1.316.351c-.357,0-.679-.057-.966-.171s-.529-.276-.729-.487c-.199-.211-.353-.462-.46-.755-.108-.292-.163-.615-.163-.965,0-.339.056-.655.167-.948.111-.292.269-.545.474-.759.205-.213.449-.381.733-.504s.598-.185.944-.185c.386,0,.722.075,1.009.224.287.149.522.35.707.601.184.251.317.539.399.86.082.322.111.658.087,1.009h-3.273c.018.403.12.696.307.877ZM49.818,10.901c-.149-.164-.376-.246-.68-.246-.199,0-.364.034-.496.101-.131.067-.237.151-.316.25s-.135.205-.167.316c-.032.111-.052.21-.057.298h2.027c-.059-.316-.163-.556-.312-.72Z" fill="#fff" stroke-width="0"/><path d="M53.298,9.839v.843h.018c.059-.141.138-.271.237-.391.099-.12.213-.223.342-.307.128-.085.266-.151.412-.198.146-.047.298-.07.457-.07.082,0,.172.015.272.044v1.159c-.059-.012-.128-.022-.21-.031s-.161-.013-.237-.013c-.229,0-.421.038-.58.114-.158.076-.285.18-.382.312-.096.131-.165.285-.206.461-.041.175-.062.366-.062.57v2.045h-1.246v-4.538h1.185Z" fill="#fff" stroke-width="0"/><path d="M59.016,13.249c.055.097.127.176.215.237.088.061.188.106.303.136s.232.044.355.044c.088,0,.18-.01.276-.031.097-.021.185-.053.264-.097.079-.043.145-.102.197-.175s.079-.166.079-.276c0-.188-.125-.328-.373-.421-.249-.094-.596-.187-1.04-.281-.182-.041-.358-.089-.531-.145-.172-.056-.326-.128-.46-.219-.135-.091-.243-.205-.325-.342-.082-.138-.123-.306-.123-.505,0-.292.057-.532.171-.72.114-.187.265-.335.452-.443.188-.108.398-.185.632-.229.234-.044.474-.066.72-.066s.484.023.715.07.438.126.619.237c.182.111.332.259.452.443.12.185.192.417.215.698h-1.185c-.018-.24-.108-.402-.272-.487-.164-.085-.357-.127-.58-.127-.07,0-.146.004-.228.013s-.157.028-.224.057c-.067.029-.125.072-.171.127-.047.056-.07.13-.07.224,0,.111.041.202.123.272s.188.127.32.171c.132.043.282.083.452.118.169.035.342.073.518.114.182.041.358.091.531.149.172.059.326.136.46.233.135.096.243.216.325.36.082.143.123.32.123.531,0,.298-.06.549-.18.75-.12.202-.276.364-.47.487-.193.123-.414.209-.663.259-.249.05-.502.075-.759.075-.263,0-.521-.026-.772-.079s-.475-.141-.671-.263c-.196-.123-.357-.286-.482-.487-.126-.202-.195-.455-.207-.759h1.185c0,.135.028.25.083.347Z" fill="#fff" stroke-width="0"/><path d="M62.707,11.125c.111-.295.269-.547.474-.754.205-.208.451-.369.737-.483s.608-.171.965-.171.68.057.97.171c.29.114.537.275.741.483.205.208.363.459.474.754.111.296.167.625.167.988s-.056.69-.167.983-.269.542-.474.75c-.205.208-.452.367-.741.478-.29.111-.613.167-.97.167s-.679-.056-.965-.167c-.287-.111-.532-.271-.737-.478-.205-.208-.363-.458-.474-.75-.111-.292-.167-.62-.167-.983s.056-.692.167-.988ZM63.838,12.644c.035.173.095.328.18.465.084.137.197.247.338.329.14.082.316.123.526.123s.388-.041.531-.123c.143-.082.257-.192.342-.329.084-.138.145-.292.18-.465.035-.172.053-.35.053-.531s-.018-.36-.053-.536c-.035-.175-.095-.331-.18-.465-.085-.134-.199-.244-.342-.329-.144-.084-.32-.127-.531-.127s-.386.042-.526.127c-.141.085-.253.195-.338.329-.085.135-.145.29-.18.465-.035.176-.053.354-.053.536s.018.358.053.531Z" fill="#fff" stroke-width="0"/><path d="M71.115,14.377v-.632h-.026c-.158.263-.363.454-.614.57-.252.117-.509.176-.772.176-.333,0-.607-.044-.821-.132-.213-.088-.382-.212-.504-.373-.123-.161-.209-.357-.259-.588s-.074-.487-.074-.768v-2.791h1.246v2.563c0,.375.059.654.176.838.117.185.325.276.623.276.339,0,.585-.101.737-.303.152-.202.228-.534.228-.996v-2.378h1.246v4.538h-1.185Z" fill="#fff" stroke-width="0"/><path d="M74.432,9.839v.843h.018c.059-.141.138-.271.237-.391.099-.12.213-.223.342-.307.128-.085.266-.151.412-.198.146-.047.298-.07.457-.07.082,0,.172.015.272.044v1.159c-.059-.012-.128-.022-.21-.031s-.161-.013-.237-.013c-.229,0-.421.038-.58.114-.158.076-.285.18-.382.312-.096.131-.165.285-.206.461-.041.175-.062.366-.062.57v2.045h-1.246v-4.538h1.185Z" fill="#fff" stroke-width="0"/><path d="M78.671,10.656c-.199,0-.366.045-.5.136-.135.091-.245.208-.329.351-.085.144-.145.302-.18.474-.035.173-.053.344-.053.513,0,.164.018.331.053.5.035.17.092.323.171.461.079.137.186.25.32.338.134.087.298.131.491.131.299,0,.528-.083.689-.25.161-.167.262-.391.303-.671h1.202c-.082.603-.316,1.062-.702,1.378s-.88.474-1.483.474c-.339,0-.651-.057-.935-.171s-.525-.273-.724-.478c-.199-.205-.354-.449-.465-.733-.111-.284-.167-.596-.167-.935,0-.351.051-.677.154-.979.102-.301.253-.562.452-.781.199-.219.442-.39.729-.513s.614-.185.983-.185c.269,0,.528.035.777.105s.471.177.667.32c.196.144.355.322.479.536.123.213.193.466.21.759h-1.22c-.082-.521-.389-.781-.922-.781Z" fill="#fff" stroke-width="0"/><path d="M82.875,13.289c.187.182.456.272.807.272.252,0,.468-.062.65-.188.181-.126.292-.259.333-.399h1.097c-.176.544-.445.934-.808,1.167s-.802.351-1.316.351c-.357,0-.679-.057-.966-.171s-.529-.276-.729-.487c-.199-.211-.353-.462-.46-.755-.108-.292-.163-.615-.163-.965,0-.339.056-.655.167-.948.111-.292.269-.545.474-.759.205-.213.449-.381.733-.504s.598-.185.944-.185c.386,0,.722.075,1.009.224.287.149.522.35.707.601.184.251.317.539.399.86.082.322.111.658.087,1.009h-3.273c.018.403.12.696.307.877ZM84.284,10.901c-.149-.164-.376-.246-.68-.246-.199,0-.364.034-.496.101-.131.067-.237.151-.316.25s-.135.205-.167.316c-.032.111-.052.21-.057.298h2.027c-.059-.316-.163-.556-.312-.72Z" fill="#fff" stroke-width="0"/><path d="M89.045,11.125c.111-.295.269-.547.474-.754.205-.208.451-.369.737-.483s.608-.171.965-.171.68.057.97.171c.29.114.537.275.741.483.205.208.363.459.474.754.111.296.167.625.167.988s-.056.69-.167.983-.269.542-.474.75c-.205.208-.452.367-.741.478-.29.111-.613.167-.97.167s-.679-.056-.965-.167c-.287-.111-.532-.271-.737-.478-.205-.208-.363-.458-.474-.75-.111-.292-.167-.62-.167-.983s.056-.692.167-.988ZM90.177,12.644c.035.173.095.328.18.465.084.137.197.247.338.329.14.082.316.123.526.123s.388-.041.531-.123c.143-.082.257-.192.342-.329.084-.138.145-.292.18-.465.035-.172.053-.35.053-.531s-.018-.36-.053-.536c-.035-.175-.095-.331-.18-.465-.085-.134-.199-.244-.342-.329-.144-.084-.32-.127-.531-.127s-.386.042-.526.127c-.141.085-.253.195-.338.329-.085.135-.145.29-.18.465-.035.176-.053.354-.053.536s.018.358.053.531Z" fill="#fff" stroke-width="0"/><path d="M95.566,9.839v.632h.026c.158-.263.363-.455.614-.575s.509-.18.772-.18c.333,0,.607.045.821.136.213.091.382.216.504.377.123.161.209.357.259.588.049.231.074.487.074.768v2.791h-1.246v-2.563c0-.374-.059-.654-.176-.838-.117-.185-.325-.276-.623-.276-.339,0-.585.101-.737.303-.152.202-.228.534-.228.996v2.378h-1.246v-4.538h1.185Z" fill="#fff" stroke-width="0"/><path d="M104.193,10.656c-.199,0-.366.045-.5.136-.135.091-.245.208-.329.351-.085.144-.145.302-.18.474-.035.173-.053.344-.053.513,0,.164.018.331.053.5.035.17.092.323.171.461.079.137.186.25.32.338.134.087.298.131.491.131.299,0,.528-.083.689-.25.161-.167.262-.391.303-.671h1.202c-.082.603-.316,1.062-.702,1.378s-.88.474-1.483.474c-.339,0-.651-.057-.935-.171s-.525-.273-.724-.478c-.199-.205-.354-.449-.465-.733-.111-.284-.167-.596-.167-.935,0-.351.051-.677.154-.979.102-.301.253-.562.452-.781.199-.219.442-.39.729-.513s.614-.185.983-.185c.269,0,.528.035.777.105s.471.177.667.32c.196.144.355.322.479.536.123.213.193.466.21.759h-1.22c-.082-.521-.389-.781-.922-.781Z" fill="#fff" stroke-width="0"/><path d="M107.099,9.137v-1.027h1.246v1.027h-1.246ZM108.345,9.839v4.538h-1.246v-4.538h1.246Z" fill="#fff" stroke-width="0"/><path d="M110.513,9.839v.843h.018c.059-.141.138-.271.237-.391.099-.12.213-.223.342-.307.128-.085.266-.151.412-.198.146-.047.298-.07.457-.07.082,0,.172.015.272.044v1.159c-.059-.012-.128-.022-.21-.031s-.161-.013-.237-.013c-.229,0-.421.038-.58.114-.158.076-.285.18-.382.312-.096.131-.165.285-.206.461-.041.175-.062.366-.062.57v2.045h-1.246v-4.538h1.185Z" fill="#fff" stroke-width="0"/><path d="M114.752,10.656c-.199,0-.366.045-.5.136-.135.091-.245.208-.329.351-.085.144-.145.302-.18.474-.035.173-.053.344-.053.513,0,.164.018.331.053.5.035.17.092.323.171.461.079.137.186.25.32.338.134.087.298.131.491.131.299,0,.528-.083.689-.25.161-.167.262-.391.303-.671h1.202c-.082.603-.316,1.062-.702,1.378s-.88.474-1.483.474c-.339,0-.651-.057-.935-.171s-.525-.273-.724-.478c-.199-.205-.354-.449-.465-.733-.111-.284-.167-.596-.167-.935,0-.351.051-.677.154-.979.102-.301.253-.562.452-.781.199-.219.442-.39.729-.513s.614-.185.983-.185c.269,0,.528.035.777.105s.471.177.667.32c.196.144.355.322.479.536.123.213.193.466.21.759h-1.22c-.082-.521-.389-.781-.922-.781Z" fill="#fff" stroke-width="0"/><path d="M120.694,14.377v-.632h-.026c-.158.263-.363.454-.614.57-.252.117-.509.176-.772.176-.333,0-.607-.044-.821-.132-.213-.088-.382-.212-.504-.373-.123-.161-.209-.357-.259-.588s-.074-.487-.074-.768v-2.791h1.246v2.563c0,.375.059.654.176.838.117.185.325.276.623.276.339,0,.585-.101.737-.303.152-.202.228-.534.228-.996v-2.378h1.246v4.538h-1.185Z" fill="#fff" stroke-width="0"/><path d="M122.862,9.137v-1.027h1.246v1.027h-1.246ZM124.108,9.839v4.538h-1.246v-4.538h1.246Z" fill="#fff" stroke-width="0"/><path d="M127.583,9.839v.834h-.913v2.247c0,.211.035.351.105.421s.21.105.421.105c.07,0,.137-.003.202-.009s.126-.015.184-.026v.965c-.105.018-.222.029-.351.035-.128.006-.254.009-.377.009-.193,0-.376-.013-.549-.04s-.325-.078-.457-.154c-.131-.076-.235-.184-.312-.325-.076-.14-.114-.325-.114-.553v-2.677h-.755v-.834h.755v-1.36h1.246v1.36h.913Z" fill="#fff" stroke-width="0"/><path d="M133.876,8.11l2.344,6.267h-1.431l-.474-1.396h-2.343l-.492,1.396h-1.387l2.37-6.267h1.413ZM133.955,11.955l-.79-2.299h-.018l-.816,2.299h1.624Z" fill="#fff" stroke-width="0"/><rect x="150.528" y="142.679" width="122.309" height="17.555" fill="#26a7df" stroke-width="0"/><path d="M160.626,148.367c.392,0,.726.057,1,.171s.499.265.671.452c.173.188.298.401.377.641.079.24.119.489.119.746,0,.252-.04.499-.119.742-.079.242-.205.457-.377.645-.172.188-.396.338-.671.452s-.608.171-1,.171h-1.448v2.247h-1.378v-6.267h2.826ZM160.249,151.316c.158,0,.31-.012.457-.035.146-.023.275-.069.386-.136.111-.067.2-.163.268-.286.067-.122.101-.283.101-.482s-.034-.359-.101-.482-.157-.218-.268-.285c-.111-.067-.24-.113-.386-.137-.146-.022-.298-.035-.457-.035h-1.071v1.879h1.071Z" fill="#fff" stroke-width="0"/><path d="M163.549,151.382c.111-.295.269-.547.474-.755.205-.207.451-.368.737-.482s.608-.171.965-.171.68.057.97.171c.29.114.537.275.741.482.205.208.363.46.474.755.111.296.167.625.167.987s-.056.69-.167.983-.269.543-.474.75c-.205.208-.452.367-.741.479-.29.111-.613.167-.97.167s-.679-.056-.965-.167-.532-.271-.737-.479c-.205-.207-.363-.457-.474-.75-.111-.293-.167-.62-.167-.983s.056-.691.167-.987ZM164.681,152.9c.035.173.095.328.18.465.084.138.197.248.338.329.14.082.316.123.526.123s.388-.041.531-.123c.143-.081.257-.191.342-.329.084-.137.145-.292.18-.465s.053-.35.053-.531c0-.181-.018-.359-.053-.535s-.095-.33-.18-.465c-.085-.135-.199-.244-.342-.329-.144-.085-.32-.128-.531-.128s-.386.043-.526.128c-.141.085-.253.194-.338.329-.085.135-.145.289-.18.465s-.053.354-.053.535c0,.182.018.358.053.531Z" fill="#fff" stroke-width="0"/><path d="M172.791,154.634l-.807-3.046h-.018l-.772,3.046h-1.29l-1.439-4.537h1.316l.834,3.08h.018l.754-3.08h1.211l.772,3.071h.018l.833-3.071h1.282l-1.431,4.537h-1.282Z" fill="#fff" stroke-width="0"/><path d="M177.364,153.546c.187.181.456.271.807.271.252,0,.468-.062.65-.188.181-.126.292-.259.333-.399h1.097c-.176.544-.445.934-.808,1.167-.363.234-.802.352-1.316.352-.357,0-.679-.058-.966-.171-.287-.114-.529-.277-.729-.487-.199-.211-.353-.462-.46-.755-.108-.293-.163-.614-.163-.966,0-.339.056-.655.167-.947.111-.293.269-.546.474-.76.205-.213.449-.382.733-.505.284-.122.598-.184.944-.184.386,0,.722.074,1.009.224.287.149.522.35.707.602.184.251.317.538.399.859.082.322.111.658.087,1.01h-3.273c.018.403.12.696.307.878ZM178.772,151.158c-.149-.164-.376-.246-.68-.246-.199,0-.364.034-.496.102-.131.067-.237.15-.316.25s-.135.205-.167.315c-.032.111-.052.211-.057.299h2.027c-.059-.316-.163-.556-.312-.72Z" fill="#fff" stroke-width="0"/><path d="M182.252,150.097v.842h.018c.059-.14.138-.271.237-.391.099-.119.213-.222.342-.307.128-.085.266-.15.412-.197.146-.047.298-.07.457-.07.082,0,.172.015.272.044v1.158c-.059-.012-.128-.022-.21-.03-.082-.009-.161-.014-.237-.014-.229,0-.421.038-.58.114-.158.076-.285.18-.382.312-.096.132-.165.285-.206.461s-.062.365-.062.57v2.045h-1.246v-4.537h1.185Z" fill="#fff" stroke-width="0"/><path d="M187.97,153.506c.055.097.127.176.215.237s.188.106.303.136.232.044.355.044c.088,0,.18-.01.276-.03.097-.021.185-.053.264-.097.079-.044.145-.103.197-.176s.079-.165.079-.276c0-.188-.125-.328-.373-.422-.249-.093-.596-.187-1.04-.28-.182-.041-.358-.089-.531-.145-.172-.056-.326-.129-.46-.22-.135-.091-.243-.205-.325-.343-.082-.137-.123-.306-.123-.504,0-.293.057-.533.171-.72.114-.188.265-.335.452-.443.188-.108.398-.185.632-.229.234-.044.474-.065.72-.065s.484.023.715.07.438.126.619.236c.182.111.332.259.452.443s.192.417.215.698h-1.185c-.018-.24-.108-.402-.272-.487-.164-.085-.357-.128-.58-.128-.07,0-.146.005-.228.014s-.157.027-.224.057c-.067.029-.125.072-.171.128s-.07.13-.07.224c0,.111.041.202.123.272.082.069.188.127.32.171s.282.083.452.118c.169.035.342.073.518.114.182.041.358.091.531.149.172.059.326.136.46.232.135.097.243.217.325.359.082.144.123.32.123.531,0,.299-.06.549-.18.751-.12.201-.276.363-.47.486-.193.123-.414.21-.663.259-.249.05-.502.075-.759.075-.263,0-.521-.026-.772-.079s-.475-.141-.671-.264c-.196-.122-.357-.285-.482-.486-.126-.202-.195-.455-.207-.76h1.185c0,.135.028.25.083.347Z" fill="#fff" stroke-width="0"/><path d="M191.661,151.382c.111-.295.269-.547.474-.755.205-.207.451-.368.737-.482s.608-.171.965-.171.68.057.97.171c.29.114.537.275.741.482.205.208.363.46.474.755.111.296.167.625.167.987s-.056.69-.167.983-.269.543-.474.75c-.205.208-.452.367-.741.479-.29.111-.613.167-.97.167s-.679-.056-.965-.167-.532-.271-.737-.479c-.205-.207-.363-.457-.474-.75-.111-.293-.167-.62-.167-.983s.056-.691.167-.987ZM192.792,152.9c.035.173.095.328.18.465.084.138.197.248.338.329.14.082.316.123.526.123s.388-.041.531-.123c.143-.081.257-.191.342-.329.084-.137.145-.292.18-.465s.053-.35.053-.531c0-.181-.018-.359-.053-.535s-.095-.33-.18-.465c-.085-.135-.199-.244-.342-.329-.144-.085-.32-.128-.531-.128s-.386.043-.526.128c-.141.085-.253.194-.338.329-.085.135-.145.289-.18.465s-.053.354-.053.535c0,.182.018.358.053.531Z" fill="#fff" stroke-width="0"/><path d="M200.069,154.634v-.632h-.026c-.158.264-.363.453-.614.57-.252.117-.509.176-.772.176-.333,0-.607-.044-.821-.132-.213-.088-.382-.212-.504-.373-.123-.161-.209-.356-.259-.588s-.074-.487-.074-.768v-2.791h1.246v2.562c0,.374.059.653.176.838.117.185.325.276.623.276.339,0,.585-.101.737-.303.152-.202.228-.534.228-.996v-2.378h1.246v4.537h-1.185Z" fill="#fff" stroke-width="0"/><path d="M203.386,150.097v.842h.018c.059-.14.138-.271.237-.391.099-.119.213-.222.342-.307.128-.085.266-.15.412-.197.146-.047.298-.07.457-.07.082,0,.172.015.272.044v1.158c-.059-.012-.128-.022-.21-.03-.082-.009-.161-.014-.237-.014-.229,0-.421.038-.58.114-.158.076-.285.18-.382.312-.096.132-.165.285-.206.461s-.062.365-.062.57v2.045h-1.246v-4.537h1.185Z" fill="#fff" stroke-width="0"/><path d="M207.625,150.912c-.199,0-.366.046-.5.137-.135.091-.245.207-.329.351-.085.144-.145.302-.18.474-.035.173-.053.345-.053.514,0,.164.018.331.053.501.035.169.092.323.171.46.079.138.186.25.32.338.134.088.298.132.491.132.299,0,.528-.083.689-.25.161-.167.262-.391.303-.672h1.202c-.082.604-.316,1.062-.702,1.379-.386.315-.88.474-1.483.474-.339,0-.651-.058-.935-.171-.284-.114-.525-.273-.724-.479s-.354-.449-.465-.733c-.111-.283-.167-.595-.167-.935,0-.351.051-.677.154-.979.102-.301.253-.562.452-.781.199-.219.442-.391.729-.514.287-.122.614-.184.983-.184.269,0,.528.035.777.105.249.069.471.177.667.32.196.143.355.321.479.535s.193.467.21.759h-1.22c-.082-.521-.389-.781-.922-.781Z" fill="#fff" stroke-width="0"/><path d="M211.83,153.546c.187.181.456.271.807.271.252,0,.468-.062.65-.188.181-.126.292-.259.333-.399h1.097c-.176.544-.445.934-.808,1.167-.363.234-.802.352-1.316.352-.357,0-.679-.058-.966-.171-.287-.114-.529-.277-.729-.487-.199-.211-.353-.462-.46-.755-.108-.293-.163-.614-.163-.966,0-.339.056-.655.167-.947.111-.293.269-.546.474-.76.205-.213.449-.382.733-.505.284-.122.598-.184.944-.184.386,0,.722.074,1.009.224.287.149.522.35.707.602.184.251.317.538.399.859.082.322.111.658.087,1.01h-3.273c.018.403.12.696.307.878ZM213.238,151.158c-.149-.164-.376-.246-.68-.246-.199,0-.364.034-.496.102-.131.067-.237.15-.316.25s-.135.205-.167.315c-.032.111-.052.211-.057.299h2.027c-.059-.316-.163-.556-.312-.72Z" fill="#fff" stroke-width="0"/><path d="M218,151.382c.111-.295.269-.547.474-.755.205-.207.451-.368.737-.482s.608-.171.965-.171.68.057.97.171c.29.114.537.275.741.482.205.208.363.46.474.755.111.296.167.625.167.987s-.056.69-.167.983-.269.543-.474.75c-.205.208-.452.367-.741.479-.29.111-.613.167-.97.167s-.679-.056-.965-.167-.532-.271-.737-.479c-.205-.207-.363-.457-.474-.75-.111-.293-.167-.62-.167-.983s.056-.691.167-.987ZM219.131,152.9c.035.173.095.328.18.465.084.138.197.248.338.329.14.082.316.123.526.123s.388-.041.531-.123c.143-.081.257-.191.342-.329.084-.137.145-.292.18-.465s.053-.35.053-.531c0-.181-.018-.359-.053-.535s-.095-.33-.18-.465c-.085-.135-.199-.244-.342-.329-.144-.085-.32-.128-.531-.128s-.386.043-.526.128c-.141.085-.253.194-.338.329-.085.135-.145.289-.18.465s-.053.354-.053.535c0,.182.018.358.053.531Z" fill="#fff" stroke-width="0"/><path d="M224.52,150.097v.632h.026c.158-.264.363-.455.614-.575s.509-.18.772-.18c.333,0,.607.045.821.136.213.091.382.217.504.377.123.161.209.357.259.589.049.23.074.486.074.768v2.791h-1.246v-2.562c0-.375-.059-.654-.176-.839-.117-.184-.325-.276-.623-.276-.339,0-.585.102-.737.303-.152.202-.228.534-.228.996v2.379h-1.246v-4.537h1.185Z" fill="#fff" stroke-width="0"/><path d="M233.147,150.912c-.199,0-.366.046-.5.137-.135.091-.245.207-.329.351-.085.144-.145.302-.18.474-.035.173-.053.345-.053.514,0,.164.018.331.053.501.035.169.092.323.171.46.079.138.186.25.32.338.134.088.298.132.491.132.299,0,.528-.083.689-.25.161-.167.262-.391.303-.672h1.202c-.082.604-.316,1.062-.702,1.379-.386.315-.88.474-1.483.474-.339,0-.651-.058-.935-.171-.284-.114-.525-.273-.724-.479s-.354-.449-.465-.733c-.111-.283-.167-.595-.167-.935,0-.351.051-.677.154-.979.102-.301.253-.562.452-.781.199-.219.442-.391.729-.514.287-.122.614-.184.983-.184.269,0,.528.035.777.105.249.069.471.177.667.32.196.143.355.321.479.535s.193.467.21.759h-1.22c-.082-.521-.389-.781-.922-.781Z" fill="#fff" stroke-width="0"/><path d="M236.053,149.395v-1.027h1.246v1.027h-1.246ZM237.299,150.097v4.537h-1.246v-4.537h1.246Z" fill="#fff" stroke-width="0"/><path d="M239.467,150.097v.842h.018c.059-.14.138-.271.237-.391.099-.119.213-.222.342-.307.128-.085.266-.15.412-.197.146-.047.298-.07.457-.07.082,0,.172.015.272.044v1.158c-.059-.012-.128-.022-.21-.03-.082-.009-.161-.014-.237-.014-.229,0-.421.038-.58.114-.158.076-.285.18-.382.312-.096.132-.165.285-.206.461s-.062.365-.062.57v2.045h-1.246v-4.537h1.185Z" fill="#fff" stroke-width="0"/><path d="M243.706,150.912c-.199,0-.365.046-.5.137s-.244.207-.328.351c-.086.144-.145.302-.18.474-.035.173-.053.345-.053.514,0,.164.018.331.053.501.035.169.092.323.17.46.08.138.186.25.32.338s.299.132.492.132c.299,0,.527-.083.689-.25.16-.167.262-.391.303-.672h1.201c-.082.604-.314,1.062-.701,1.379-.387.315-.881.474-1.484.474-.338,0-.65-.058-.934-.171-.285-.114-.525-.273-.725-.479s-.354-.449-.465-.733c-.111-.283-.167-.595-.167-.935,0-.351.051-.677.154-.979.102-.301.253-.562.452-.781.198-.219.442-.391.729-.514.285-.122.613-.184.982-.184.27,0,.527.035.777.105.248.069.471.177.666.32.195.143.355.321.479.535s.193.467.211.759h-1.221c-.082-.521-.389-.781-.922-.781Z" fill="#fff" stroke-width="0"/><path d="M249.648,154.634v-.632h-.026c-.158.264-.363.453-.614.57-.252.117-.509.176-.772.176-.334,0-.607-.044-.82-.132-.214-.088-.382-.212-.505-.373s-.209-.356-.259-.588-.075-.487-.075-.768v-2.791h1.247v2.562c0,.374.058.653.175.838s.325.276.623.276c.34,0,.585-.101.737-.303s.229-.534.229-.996v-2.378h1.246v4.537h-1.185Z" fill="#fff" stroke-width="0"/><path d="M251.815,149.395v-1.027h1.247v1.027h-1.247ZM253.062,150.097v4.537h-1.247v-4.537h1.247Z" fill="#fff" stroke-width="0"/><path d="M256.538,150.097v.833h-.913v2.247c0,.211.035.352.105.421.07.07.211.105.421.105.07,0,.138-.003.202-.009s.126-.015.185-.026v.966c-.105.018-.223.029-.352.035s-.254.009-.377.009c-.193,0-.376-.014-.549-.04-.173-.025-.324-.077-.456-.153s-.236-.185-.312-.324c-.076-.141-.114-.325-.114-.554v-2.677h-.755v-.833h.755v-1.361h1.246v1.361h.913Z" fill="#fff" stroke-width="0"/><path d="M262.655,148.367c.298,0,.57.026.816.079.245.053.456.139.632.259s.312.279.408.479.145.444.145.737c0,.315-.071.579-.215.79-.144.21-.355.383-.637.518.387.111.675.306.864.584.19.277.286.612.286,1.005,0,.315-.062.589-.185.82s-.288.42-.496.566c-.208.146-.444.254-.711.324s-.54.105-.82.105h-3.037v-6.267h2.949ZM262.479,150.903c.246,0,.448-.058.605-.175.158-.117.237-.308.237-.571,0-.146-.026-.266-.079-.359s-.123-.167-.211-.22-.188-.089-.303-.109-.232-.031-.355-.031h-1.29v1.466h1.396ZM262.559,153.563c.135,0,.264-.014.386-.04.123-.026.231-.07.325-.132s.168-.145.224-.25.084-.239.084-.403c0-.322-.091-.552-.272-.689-.182-.137-.421-.206-.72-.206h-1.501v1.721h1.475Z" fill="#fff" stroke-width="0"/><rect x="103.011" y="85.548" width="42.671" height="23.849" fill="#1e4a92" stroke-width="0"/><rect x="148.814" y="85.548" width="42.671" height="23.849" fill="#26a7df" stroke-width="0"/><path d="M115.613,93.795c.404,0,.749.059,1.033.176.284.118.515.273.693.467.178.193.308.414.389.661s.123.504.123.77c0,.26-.041.515-.123.766s-.211.473-.389.666c-.178.193-.409.349-.693.467-.284.118-.628.176-1.033.176h-1.495v2.319h-1.422v-6.467h2.917ZM115.223,96.838c.163,0,.32-.012.471-.036.151-.024.284-.071.398-.14s.207-.168.276-.294c.069-.127.104-.293.104-.499s-.035-.371-.104-.498c-.07-.126-.162-.225-.276-.294-.115-.069-.248-.116-.398-.14s-.308-.036-.471-.036h-1.105v1.938h1.105Z" fill="#fff" stroke-width="0"/><path d="M119.824,98.668c.078.151.183.273.312.367.13.093.282.163.458.208.175.045.356.068.543.068.126,0,.262-.01.407-.032.145-.021.281-.062.408-.122s.232-.144.317-.249.127-.24.127-.403c0-.175-.056-.317-.167-.425-.112-.109-.258-.2-.439-.272s-.386-.136-.616-.19c-.229-.055-.462-.115-.698-.181-.241-.061-.477-.135-.706-.222-.23-.087-.435-.201-.616-.34-.181-.139-.328-.312-.439-.521-.112-.208-.168-.46-.168-.756,0-.332.071-.621.213-.865.142-.245.328-.449.557-.612.229-.163.489-.284.779-.362.29-.078.58-.118.87-.118.338,0,.663.038.974.113.311.076.587.198.829.367.242.169.434.385.575.648.142.263.213.581.213.956h-1.376c-.012-.193-.053-.354-.123-.48-.069-.127-.162-.227-.276-.299-.115-.072-.246-.124-.394-.154-.148-.03-.31-.045-.485-.045-.115,0-.229.012-.344.037-.115.024-.219.066-.312.126-.093.061-.17.136-.231.227-.06.09-.09.206-.09.344,0,.127.024.229.072.308.048.078.144.151.286.217.142.066.338.133.588.199s.578.151.983.253c.121.024.288.068.502.131s.427.165.639.304c.211.139.394.324.548.557.154.233.231.53.231.893,0,.296-.057.57-.172.824-.115.253-.285.472-.512.656-.227.185-.507.328-.842.43-.335.103-.723.154-1.164.154-.356,0-.702-.044-1.037-.131-.335-.087-.631-.225-.888-.412-.256-.187-.46-.426-.611-.716-.151-.29-.223-.634-.217-1.032h1.377c0,.217.039.401.118.552Z" fill="#fff" stroke-width="0"/><path d="M129.371,99.769c-.489.426-1.165.639-2.029.639-.875,0-1.553-.211-2.033-.634-.48-.422-.72-1.075-.72-1.956v-4.021h1.422v4.021c0,.175.015.347.045.516s.094.318.19.448c.096.13.231.235.403.317.172.082.403.123.693.123.507,0,.857-.113,1.051-.34s.29-.581.29-1.064v-4.021h1.422v4.021c0,.875-.245,1.526-.734,1.952Z" fill="#fff" stroke-width="0"/><path d="M134.579,100.262v-4.112h-1.594v-.969c.223.006.439-.011.647-.05.208-.04.396-.109.562-.208s.307-.231.421-.394c.114-.163.19-.365.226-.607h1.023v6.34h-1.286Z" fill="#fff" stroke-width="0"/><path d="M159.683,93.795c.404,0,.749.059,1.033.176.284.118.515.273.693.467.178.193.308.414.389.661s.123.504.123.77c0,.26-.041.515-.123.766s-.211.473-.389.666c-.178.193-.409.349-.693.467-.284.118-.628.176-1.033.176h-1.495v2.319h-1.422v-6.467h2.917ZM159.293,96.838c.163,0,.32-.012.471-.036.151-.024.284-.071.398-.14s.207-.168.276-.294c.069-.127.104-.293.104-.499s-.035-.371-.104-.498c-.07-.126-.162-.225-.276-.294-.115-.069-.248-.116-.398-.14s-.308-.036-.471-.036h-1.105v1.938h1.105Z" fill="#fff" stroke-width="0"/><path d="M163.895,98.668c.078.151.183.273.312.367.13.093.282.163.458.208.175.045.356.068.543.068.126,0,.262-.01.407-.032.145-.021.281-.062.408-.122s.232-.144.317-.249.127-.24.127-.403c0-.175-.056-.317-.167-.425-.112-.109-.258-.2-.439-.272s-.386-.136-.616-.19c-.229-.055-.462-.115-.698-.181-.241-.061-.477-.135-.706-.222-.23-.087-.435-.201-.616-.34-.181-.139-.328-.312-.439-.521-.112-.208-.168-.46-.168-.756,0-.332.071-.621.213-.865.142-.245.328-.449.557-.612.229-.163.489-.284.779-.362.29-.078.58-.118.87-.118.338,0,.663.038.974.113.311.076.587.198.829.367.242.169.434.385.575.648.142.263.213.581.213.956h-1.376c-.012-.193-.053-.354-.123-.48-.069-.127-.162-.227-.276-.299-.115-.072-.246-.124-.394-.154-.148-.03-.31-.045-.485-.045-.115,0-.229.012-.344.037-.115.024-.219.066-.312.126-.093.061-.17.136-.231.227-.06.09-.09.206-.09.344,0,.127.024.229.072.308.048.078.144.151.286.217.142.066.338.133.588.199s.578.151.983.253c.121.024.288.068.502.131s.427.165.639.304c.211.139.394.324.548.557.154.233.231.53.231.893,0,.296-.057.57-.172.824-.115.253-.285.472-.512.656-.227.185-.507.328-.842.43-.335.103-.723.154-1.164.154-.356,0-.702-.044-1.037-.131-.335-.087-.631-.225-.888-.412-.256-.187-.46-.426-.611-.716-.151-.29-.223-.634-.217-1.032h1.377c0,.217.039.401.118.552Z" fill="#fff" stroke-width="0"/><path d="M173.441,99.769c-.489.426-1.165.639-2.029.639-.875,0-1.553-.211-2.033-.634-.48-.422-.72-1.075-.72-1.956v-4.021h1.422v4.021c0,.175.015.347.045.516s.094.318.19.448c.096.13.231.235.403.317.172.082.403.123.693.123.507,0,.857-.113,1.051-.34s.29-.581.29-1.064v-4.021h1.422v4.021c0,.875-.245,1.526-.734,1.952Z" fill="#fff" stroke-width="0"/><path d="M176.847,95.349c.097-.311.241-.583.435-.815.193-.232.437-.413.729-.543.292-.129.629-.194,1.01-.194.29,0,.566.045.829.136.263.09.494.22.693.39.199.169.358.377.476.625.118.248.177.525.177.833,0,.32-.051.595-.154.824-.103.229-.238.433-.407.611-.169.178-.361.34-.575.484-.214.145-.43.289-.647.431-.218.142-.429.294-.634.457s-.386.354-.543.571h2.998v1.105h-4.655c0-.368.053-.688.158-.96.105-.272.249-.515.43-.729s.394-.412.639-.593.502-.366.774-.553c.139-.097.287-.195.444-.294.157-.1.3-.209.43-.331.13-.121.238-.256.326-.408.087-.151.131-.323.131-.516,0-.308-.089-.548-.267-.72-.178-.172-.406-.258-.684-.258-.187,0-.346.044-.476.131s-.234.202-.312.344c-.079.142-.134.299-.167.471-.033.172-.05.343-.05.512h-1.232c-.012-.362.03-.699.127-1.01Z" fill="#fff" stroke-width="0"/><rect x="103.011" y="32.315" width="42.671" height="23.849" fill="#1e4a92" stroke-width="0"/><path d="M115.613,40.563c.404,0,.749.059,1.033.176.284.118.515.273.693.467.178.193.308.414.389.661s.123.504.123.77c0,.26-.041.515-.123.766s-.211.473-.389.666c-.178.193-.409.349-.693.467-.284.118-.628.176-1.033.176h-1.495v2.319h-1.422v-6.467h2.917ZM115.223,43.606c.163,0,.32-.012.471-.036.151-.024.284-.071.398-.14s.207-.168.276-.294c.069-.127.104-.293.104-.499s-.035-.371-.104-.498c-.07-.126-.162-.225-.276-.294-.115-.069-.248-.116-.398-.14s-.308-.036-.471-.036h-1.105v1.938h1.105Z" fill="#fff" stroke-width="0"/><path d="M119.824,45.436c.078.151.183.273.312.367.13.093.282.163.458.208.175.045.356.068.543.068.126,0,.262-.01.407-.032.145-.021.281-.062.408-.122s.232-.144.317-.249.127-.24.127-.403c0-.175-.056-.317-.167-.425-.112-.109-.258-.2-.439-.272s-.386-.136-.616-.19c-.229-.055-.462-.115-.698-.181-.241-.061-.477-.135-.706-.222-.23-.087-.435-.201-.616-.34-.181-.139-.328-.312-.439-.521-.112-.208-.168-.46-.168-.756,0-.332.071-.621.213-.865.142-.245.328-.449.557-.612.229-.163.489-.284.779-.362.29-.078.58-.118.87-.118.338,0,.663.038.974.113.311.076.587.198.829.367.242.169.434.385.575.648.142.263.213.581.213.956h-1.376c-.012-.193-.053-.354-.123-.48-.069-.127-.162-.227-.276-.299-.115-.072-.246-.124-.394-.154-.148-.03-.31-.045-.485-.045-.115,0-.229.012-.344.037-.115.024-.219.066-.312.126-.093.061-.17.136-.231.227-.06.09-.09.206-.09.344,0,.127.024.229.072.308.048.078.144.151.286.217.142.066.338.133.588.199s.578.151.983.253c.121.024.288.068.502.131s.427.165.639.304c.211.139.394.324.548.557.154.233.231.53.231.893,0,.296-.057.57-.172.824-.115.253-.285.472-.512.656-.227.185-.507.328-.842.43-.335.103-.723.154-1.164.154-.356,0-.702-.044-1.037-.131-.335-.087-.631-.225-.888-.412-.256-.187-.46-.426-.611-.716-.151-.29-.223-.634-.217-1.032h1.377c0,.217.039.401.118.552Z" fill="#fff" stroke-width="0"/><path d="M129.371,46.537c-.489.426-1.165.639-2.029.639-.875,0-1.553-.211-2.033-.634-.48-.422-.72-1.075-.72-1.956v-4.021h1.422v4.021c0,.175.015.347.045.516s.094.318.19.448c.096.13.231.235.403.317.172.082.403.123.693.123.507,0,.857-.113,1.051-.34s.29-.581.29-1.064v-4.021h1.422v4.021c0,.875-.245,1.526-.734,1.952Z" fill="#fff" stroke-width="0"/><path d="M134.579,47.03v-4.112h-1.594v-.969c.223.006.439-.011.647-.05.208-.04.396-.109.562-.208s.307-.231.421-.394c.114-.163.19-.365.226-.607h1.023v6.34h-1.286Z" fill="#fff" stroke-width="0"/></svg>