<?xml version="1.0" encoding="UTF-8"?><svg id="a" xmlns="http://www.w3.org/2000/svg" width="2.3in" height="1.4in" viewBox="0 0 165.6 100.8"><rect x="1.679" y="2.075" width="162" height="94.606" fill="none" stroke="#939598" stroke-width="2.564"/><polygon points="163.679 2.075 80.826 2.075 80.826 24.502 137.618 24.502 163.679 24.502 163.679 2.075" fill="#939598" stroke="#939598" stroke-width="2.564"/><rect x="1.679" y="2.075" width="77.517" height="22.427" fill="none" stroke="#939598" stroke-width="2.564"/><path d="M86.111,10.521v5.238h3.132v1.188h-4.545v-6.426h1.413Z" fill="#fff" stroke-width="0"/><path d="M91.448,10.521v6.426h-1.413v-6.426h1.413Z" fill="#fff" stroke-width="0"/><path d="M97.208,10.521v1.188h-3.104v1.485h2.69v1.098h-2.69v2.655h-1.413v-6.426h4.518Z" fill="#fff" stroke-width="0"/><path d="M97.523,11.709v-1.188h5.265v1.188h-1.926v5.238h-1.413v-5.238h-1.926Z" fill="#fff" stroke-width="0"/><path d="M104.939,10.521v6.426h-1.413v-6.426h1.413Z" fill="#fff" stroke-width="0"/><path d="M107.584,10.521l2.682,4.311h.018v-4.311h1.323v6.426h-1.413l-2.673-4.302h-.018v4.302h-1.323v-6.426h1.404Z" fill="#fff" stroke-width="0"/><path d="M116.656,16.897c-.306.129-.615.193-.927.193-.492,0-.935-.085-1.327-.256-.394-.171-.725-.407-.995-.707-.27-.3-.477-.653-.621-1.058-.144-.405-.216-.841-.216-1.31,0-.48.072-.925.216-1.336.145-.411.352-.77.621-1.076.271-.306.602-.546.995-.72.393-.174.835-.261,1.327-.261.33,0,.649.05.959.148.309.099.588.245.837.437.248.192.454.429.616.711.162.282.261.606.297.972h-1.35c-.084-.36-.246-.63-.486-.81-.24-.18-.531-.27-.873-.27-.318,0-.588.062-.81.185-.223.123-.402.288-.54.495-.139.207-.239.442-.302.707-.063.264-.095.537-.095.819,0,.27.031.533.095.788.062.255.163.484.302.688.138.204.317.368.54.49.222.123.491.185.81.185.468,0,.829-.118,1.085-.355.255-.237.403-.581.445-1.03h-1.422v-1.053h2.699v3.474h-.899l-.145-.729c-.252.324-.53.551-.837.68Z" fill="#fff" stroke-width="0"/><path d="M123.595,10.521v2.466h2.601v-2.466h1.413v6.426h-1.413v-2.772h-2.601v2.772h-1.413v-6.426h1.413Z" fill="#fff" stroke-width="0"/><path d="M132.055,10.521l2.402,6.426h-1.467l-.485-1.431h-2.403l-.504,1.431h-1.422l2.43-6.426h1.449ZM132.136,14.463l-.811-2.358h-.018l-.837,2.358h1.665Z" fill="#fff" stroke-width="0"/><path d="M138.049,11.709h-3.178v-1.188h5.059v1.116l-3.447,4.122h3.537v1.188h-5.418v-1.116l3.447-4.122Z" fill="#fff" stroke-width="0"/><path d="M144.052,10.521l2.402,6.426h-1.467l-.485-1.431h-2.403l-.504,1.431h-1.422l2.43-6.426h1.449ZM144.133,14.463l-.811-2.358h-.018l-.837,2.358h1.665Z" fill="#fff" stroke-width="0"/><path d="M150.478,10.521c.288,0,.548.046.778.139.231.093.429.221.595.383.164.162.29.35.378.562.087.213.13.442.13.688,0,.378-.079.705-.238.981s-.419.486-.778.63v.018c.174.048.317.122.432.22.114.099.207.216.279.351.072.135.124.284.157.446.033.162.056.324.067.486.006.102.013.222.019.36.006.138.017.279.031.423.015.144.039.28.072.409.032.129.082.239.148.329h-1.413c-.078-.204-.126-.447-.145-.729-.018-.282-.045-.552-.081-.81-.048-.336-.149-.582-.306-.738-.156-.156-.411-.234-.765-.234h-1.413v2.511h-1.413v-6.426h3.465ZM149.974,13.428c.324,0,.567-.072.729-.216.162-.144.243-.378.243-.702,0-.312-.081-.539-.243-.68-.161-.141-.404-.211-.729-.211h-1.548v1.809h1.548Z" fill="#fff" stroke-width="0"/><path d="M156.283,10.521c.414,0,.8.066,1.157.198.356.132.666.33.927.594.261.264.465.594.612.99.146.396.22.861.22,1.395,0,.468-.06.9-.18,1.296s-.302.738-.544,1.026c-.243.288-.547.514-.909.679-.363.165-.791.248-1.283.248h-2.771v-6.426h2.771ZM156.184,15.759c.204,0,.402-.033.594-.099.192-.066.363-.175.514-.329.149-.153.27-.352.359-.598s.136-.546.136-.9c0-.324-.032-.617-.095-.878-.063-.261-.167-.484-.311-.67-.145-.186-.335-.329-.571-.427-.237-.099-.53-.148-.878-.148h-1.008v4.05h1.26Z" fill="#fff" stroke-width="0"/><path d="M31.116,11.529c-.093-.15-.21-.282-.35-.395s-.298-.202-.475-.265-.361-.095-.555-.095c-.354,0-.654.069-.9.205-.247.137-.447.32-.6.55-.154.23-.265.492-.335.785-.07.293-.105.597-.105.91,0,.3.035.592.105.875.07.284.181.539.335.765.153.227.353.408.6.545.246.137.546.205.9.205.48,0,.855-.146,1.125-.44s.435-.68.495-1.16h1.52c-.04.447-.143.85-.31,1.21-.167.36-.387.667-.66.92-.273.253-.593.447-.96.58s-.77.2-1.21.2c-.547,0-1.039-.095-1.475-.285s-.805-.452-1.105-.785c-.3-.333-.53-.725-.69-1.175-.16-.45-.24-.935-.24-1.455,0-.533.08-1.028.24-1.485.16-.457.39-.855.69-1.195.3-.34.668-.606,1.105-.8s.928-.29,1.475-.29c.393,0,.765.057,1.115.17.35.114.664.279.94.495.277.217.505.485.685.805.18.32.293.687.34,1.1h-1.52c-.027-.18-.087-.345-.18-.495Z" fill="#221f1f" stroke-width="0"/><path d="M37.416,9.624l2.67,7.14h-1.63l-.54-1.59h-2.67l-.56,1.59h-1.58l2.7-7.14h1.61ZM37.505,14.004l-.9-2.62h-.02l-.93,2.62h1.85Z" fill="#221f1f" stroke-width="0"/><path d="M45.866,16.219c-.54.47-1.287.705-2.24.705-.967,0-1.715-.233-2.245-.7-.53-.466-.795-1.187-.795-2.16v-4.44h1.57v4.44c0,.194.017.384.05.57.034.187.104.352.21.495.106.143.255.26.445.35.19.09.445.135.765.135.56,0,.946-.125,1.16-.375s.32-.642.32-1.175v-4.44h1.57v4.44c0,.967-.27,1.685-.81,2.155Z" fill="#221f1f" stroke-width="0"/><path d="M47.375,10.944v-1.32h5.85v1.32h-2.14v5.82h-1.57v-5.82h-2.14Z" fill="#221f1f" stroke-width="0"/><path d="M55.525,9.624v7.14h-1.57v-7.14h1.57Z" fill="#221f1f" stroke-width="0"/><path d="M56.746,11.739c.16-.457.39-.855.69-1.195.3-.34.668-.606,1.105-.8s.928-.29,1.475-.29c.553,0,1.046.097,1.48.29.433.193.8.46,1.1.8.3.34.53.739.69,1.195.16.457.24.952.24,1.485,0,.52-.08,1.005-.24,1.455-.16.45-.39.842-.69,1.175-.3.333-.667.595-1.1.785-.434.19-.927.285-1.48.285-.547,0-1.039-.095-1.475-.285s-.805-.452-1.105-.785c-.3-.333-.53-.725-.69-1.175-.16-.45-.24-.935-.24-1.455,0-.533.08-1.028.24-1.485ZM58.181,14.099c.07.284.181.539.335.765.153.227.353.408.6.545.246.137.546.205.9.205s.653-.068.9-.205.446-.318.6-.545c.153-.227.265-.481.335-.765.07-.283.105-.575.105-.875,0-.313-.035-.617-.105-.91-.07-.293-.182-.555-.335-.785-.154-.23-.354-.414-.6-.55-.247-.136-.547-.205-.9-.205s-.654.069-.9.205c-.247.137-.447.32-.6.55-.154.23-.265.492-.335.785-.07.293-.105.597-.105.91,0,.3.035.592.105.875Z" fill="#221f1f" stroke-width="0"/><path d="M66.065,9.624l2.98,4.79h.02v-4.79h1.47v7.14h-1.57l-2.97-4.78h-.02v4.78h-1.47v-7.14h1.56Z" fill="#221f1f" stroke-width="0"/><path d="M9.894,19.956c-.691,0-1.249-.559-1.249-1.247,0-.291.15-.535.262-.767l5.878-11.786c.227-.292.583-.48.984-.48s.759.188.986.48l5.876,11.786c.134.233.261.476.261.767,0,.689-.558,1.247-1.248,1.247h-11.75Z" fill="#f79320" fill-rule="evenodd" stroke-width="0"/><path d="M16.654,17.215c0,.489-.396.884-.885.884s-.884-.395-.884-.884.396-.885.884-.885.885.395.885.885Z" fill="#fff" fill-rule="evenodd" stroke-width="0"/><path d="M15.769,9.823c-.454,0-.821.368-.821.819l.271,4.427c0,.303.247.546.549.546.301,0,.545-.242.545-.546l.276-4.427c0-.451-.367-.819-.821-.819Z" fill="#fff" fill-rule="evenodd" stroke-width="0"/><path d="M14.215,84.319h-.791v-5.041c-.19.182-.44.363-.75.545s-.586.318-.833.409v-.765c.442-.208.829-.46,1.16-.757.331-.296.565-.583.703-.861h.51v6.47Z" fill="#231f20" stroke-width="0"/><path d="M16.151,82.631l.831-.07c.062.404.204.708.429.912.224.203.494.305.811.305.381,0,.703-.144.967-.431s.396-.668.396-1.143c0-.451-.127-.807-.38-1.067-.254-.261-.585-.392-.996-.392-.255,0-.485.058-.69.174-.205.115-.366.266-.483.45l-.743-.097.624-3.31h3.204v.756h-2.571l-.347,1.732c.387-.27.792-.404,1.217-.404.562,0,1.037.194,1.424.584s.58.891.58,1.503c0,.583-.17,1.087-.51,1.512-.413.522-.977.783-1.692.783-.586,0-1.064-.164-1.435-.493-.371-.328-.583-.763-.635-1.305Z" fill="#231f20" stroke-width="0"/><path d="M24.046,84.319h-.791v-5.041c-.19.182-.44.363-.75.545s-.586.318-.833.409v-.765c.442-.208.829-.46,1.16-.757.331-.296.565-.583.703-.861h.51v6.47Z" fill="#231f20" stroke-width="0"/><path d="M26.426,84.319v-.901h.901v.901h-.901Z" fill="#231f20" stroke-width="0"/><path d="M32.497,79.454l-.787.062c-.07-.311-.17-.536-.299-.677-.214-.226-.478-.339-.791-.339-.252,0-.473.07-.664.211-.249.182-.445.447-.589.796s-.218.846-.224,1.49c.19-.29.423-.506.699-.646s.564-.211.866-.211c.527,0,.976.194,1.347.582.371.389.556.891.556,1.506,0,.404-.087.78-.261,1.127-.175.348-.414.613-.719.798s-.65.277-1.037.277c-.659,0-1.197-.243-1.613-.728-.416-.485-.624-1.284-.624-2.397,0-1.245.23-2.151.69-2.717.401-.492.942-.738,1.622-.738.507,0,.922.143,1.246.427s.518.677.583,1.178ZM29.267,82.231c0,.272.058.533.174.782.115.249.277.439.485.569.208.131.426.195.655.195.334,0,.621-.135.861-.404s.36-.636.36-1.099c0-.445-.119-.796-.356-1.053-.237-.256-.536-.384-.896-.384-.357,0-.661.128-.91.384-.249.257-.374.593-.374,1.009Z" fill="#231f20" stroke-width="0"/><path d="M34.525,80.825c-.328-.12-.571-.291-.729-.514s-.237-.489-.237-.8c0-.469.168-.863.505-1.183s.785-.479,1.345-.479c.562,0,1.015.164,1.358.49.343.327.514.725.514,1.193,0,.299-.079.559-.235.78-.157.221-.395.392-.714.512.396.129.697.337.903.624.207.287.31.63.31,1.028,0,.551-.195,1.014-.584,1.389-.39.376-.902.563-1.538.563s-1.148-.188-1.538-.565c-.39-.376-.584-.846-.584-1.408,0-.419.106-.77.319-1.053.212-.283.515-.476.907-.578ZM34.112,82.459c0,.226.053.444.16.655s.266.374.477.49c.211.115.438.173.681.173.378,0,.69-.121.936-.364s.369-.553.369-.928c0-.381-.127-.695-.38-.944s-.57-.374-.951-.374c-.372,0-.681.123-.925.369-.245.246-.367.554-.367.923ZM34.367,79.485c0,.305.098.554.294.747s.451.29.765.29c.305,0,.554-.097.75-.288.194-.192.292-.427.292-.705,0-.291-.101-.534-.301-.732-.201-.197-.451-.297-.75-.297-.302,0-.552.097-.751.29s-.299.426-.299.695Z" fill="#231f20" stroke-width="0"/><path d="M40.836,84.319v-6.443h.791v6.443h-.791Z" fill="#231f20" stroke-width="0"/><path d="M43.492,84.319h-.734v-6.443h.791v2.299c.334-.419.76-.628,1.279-.628.287,0,.559.058.815.173.256.116.467.278.633.488.166.209.295.462.389.758s.141.612.141.949c0,.8-.198,1.418-.593,1.854-.396.438-.87.655-1.424.655-.551,0-.983-.229-1.296-.69v.585ZM43.483,81.95c0,.56.076.964.229,1.213.249.407.586.611,1.011.611.346,0,.645-.15.896-.45.252-.301.378-.748.378-1.343,0-.609-.121-1.06-.363-1.35-.241-.29-.534-.435-.876-.435-.346,0-.645.149-.896.45-.252.3-.378.734-.378,1.303Z" fill="#231f20" stroke-width="0"/><path d="M47.362,82.925l.782-.123c.044.313.166.554.367.721s.481.251.842.251c.363,0,.633-.074.809-.222.176-.148.264-.322.264-.521,0-.179-.078-.319-.233-.422-.108-.07-.378-.159-.809-.268-.58-.146-.982-.273-1.207-.38-.224-.107-.394-.256-.51-.444-.116-.189-.173-.397-.173-.626,0-.208.047-.401.143-.578.095-.178.225-.324.389-.441.123-.091.291-.168.503-.231.212-.062.44-.094.684-.094.366,0,.688.053.965.158.276.105.481.248.613.428.132.181.223.422.272.724l-.773.105c-.035-.24-.137-.428-.305-.562-.169-.135-.407-.202-.714-.202-.363,0-.623.06-.778.18s-.233.261-.233.422c0,.103.032.195.097.277.064.085.166.155.303.211.079.029.312.097.699.202.56.149.95.271,1.171.366.221.096.395.234.521.416s.189.407.189.677c0,.264-.077.512-.231.745-.153.232-.375.413-.666.54-.29.128-.618.191-.984.191-.606,0-1.069-.126-1.386-.378-.318-.252-.521-.626-.609-1.121Z" fill="#231f20" stroke-width="0"/><path d="M56.01,86.213c-.437-.551-.806-1.195-1.107-1.935-.302-.738-.453-1.503-.453-2.294,0-.697.113-1.365.338-2.004.264-.741.671-1.479,1.222-2.215h.567c-.354.609-.589,1.044-.703,1.305-.179.405-.319.827-.422,1.267-.126.548-.189,1.099-.189,1.652,0,1.409.438,2.817,1.314,4.224h-.567Z" fill="#231f20" stroke-width="0"/><path d="M61.291,79.454l-.787.062c-.07-.311-.17-.536-.299-.677-.214-.226-.478-.339-.791-.339-.252,0-.473.07-.664.211-.249.182-.445.447-.589.796s-.218.846-.224,1.49c.19-.29.423-.506.699-.646s.564-.211.866-.211c.527,0,.976.194,1.347.582.371.389.556.891.556,1.506,0,.404-.087.78-.261,1.127-.175.348-.414.613-.719.798s-.65.277-1.037.277c-.659,0-1.197-.243-1.613-.728-.416-.485-.624-1.284-.624-2.397,0-1.245.23-2.151.69-2.717.401-.492.942-.738,1.622-.738.507,0,.922.143,1.246.427s.518.677.583,1.178ZM58.061,82.231c0,.272.058.533.174.782.115.249.277.439.485.569.208.131.426.195.655.195.334,0,.621-.135.861-.404s.36-.636.36-1.099c0-.445-.119-.796-.356-1.053-.237-.256-.536-.384-.896-.384-.357,0-.661.128-.91.384-.249.257-.374.593-.374,1.009Z" fill="#231f20" stroke-width="0"/><path d="M63.319,80.825c-.328-.12-.571-.291-.729-.514s-.237-.489-.237-.8c0-.469.168-.863.505-1.183s.785-.479,1.345-.479c.562,0,1.015.164,1.358.49.343.327.514.725.514,1.193,0,.299-.079.559-.235.78-.157.221-.395.392-.714.512.396.129.697.337.903.624.207.287.31.63.31,1.028,0,.551-.195,1.014-.584,1.389-.39.376-.902.563-1.538.563s-1.148-.188-1.538-.565c-.39-.376-.584-.846-.584-1.408,0-.419.106-.77.319-1.053.212-.283.515-.476.907-.578ZM62.906,82.459c0,.226.053.444.16.655s.266.374.477.49c.211.115.438.173.681.173.378,0,.69-.121.936-.364s.369-.553.369-.928c0-.381-.127-.695-.38-.944s-.57-.374-.951-.374c-.372,0-.681.123-.925.369-.245.246-.367.554-.367.923ZM63.161,79.485c0,.305.098.554.294.747s.451.29.765.29c.305,0,.554-.097.75-.288.194-.192.292-.427.292-.705,0-.291-.101-.534-.301-.732-.201-.197-.451-.297-.75-.297-.302,0-.552.097-.751.29s-.299.426-.299.695Z" fill="#231f20" stroke-width="0"/><path d="M67.461,84.319v-.901h.901v.901h-.901Z" fill="#231f20" stroke-width="0"/><path d="M70.645,80.825c-.328-.12-.571-.291-.729-.514s-.237-.489-.237-.8c0-.469.168-.863.505-1.183s.785-.479,1.345-.479c.562,0,1.015.164,1.358.49.343.327.514.725.514,1.193,0,.299-.079.559-.235.78-.157.221-.395.392-.714.512.396.129.697.337.903.624.207.287.31.63.31,1.028,0,.551-.195,1.014-.584,1.389-.39.376-.902.563-1.538.563s-1.148-.188-1.538-.565c-.39-.376-.584-.846-.584-1.408,0-.419.106-.77.319-1.053.212-.283.515-.476.907-.578ZM70.231,82.459c0,.226.053.444.16.655s.266.374.477.49c.211.115.438.173.681.173.378,0,.69-.121.936-.364s.369-.553.369-.928c0-.381-.127-.695-.38-.944s-.57-.374-.951-.374c-.372,0-.681.123-.925.369-.245.246-.367.554-.367.923ZM70.486,79.485c0,.305.098.554.294.747s.451.29.765.29c.305,0,.554-.097.75-.288.194-.192.292-.427.292-.705,0-.291-.101-.534-.301-.732-.201-.197-.451-.297-.75-.297-.302,0-.552.097-.751.29s-.299.426-.299.695Z" fill="#231f20" stroke-width="0"/><path d="M76.978,84.319v-6.443h.791v3.675l1.872-1.898h1.025l-1.785,1.731,1.965,2.936h-.977l-1.542-2.387-.558.536v1.851h-.791Z" fill="#231f20" stroke-width="0"/><path d="M81.238,84.706l.769.114c.032.237.122.41.269.519.196.146.464.22.804.22.366,0,.649-.073.849-.22s.334-.352.404-.615c.041-.161.06-.499.058-1.016-.347.408-.777.611-1.293.611-.641,0-1.138-.231-1.489-.694s-.527-1.019-.527-1.666c0-.445.08-.856.241-1.232.161-.377.396-.667.701-.872.307-.205.666-.308,1.079-.308.551,0,1.005.223,1.362.668v-.562h.729v4.034c0,.727-.074,1.241-.222,1.545-.148.303-.383.543-.703.719-.321.176-.716.264-1.185.264-.557,0-1.007-.126-1.349-.376-.344-.251-.509-.628-.497-1.132ZM81.893,81.902c0,.612.121,1.059.364,1.34s.548.422.914.422c.363,0,.668-.14.914-.419.246-.28.369-.719.369-1.316,0-.571-.127-1.002-.38-1.292-.254-.29-.56-.436-.916-.436-.352,0-.65.143-.896.429-.246.285-.369.71-.369,1.272Z" fill="#231f20" stroke-width="0"/><path d="M86.816,86.213h-.566c.876-1.406,1.314-2.814,1.314-4.224,0-.551-.063-1.098-.189-1.64-.1-.439-.239-.861-.418-1.266-.113-.264-.35-.703-.707-1.318h.566c.551.735.959,1.474,1.223,2.215.225.639.338,1.307.338,2.004,0,.791-.151,1.556-.455,2.294-.303.739-.672,1.384-1.105,1.935Z" fill="#231f20" stroke-width="0"/><polyline points="47.919 73.558 72.637 59.099 72.637 47.417" fill="#fff" stroke="#221f1f" stroke-linecap="round" stroke-linejoin="round" stroke-width=".766"/><polyline points="25.926 49.012 50.688 36.135 72.624 47.417 47.873 61.684" fill="#fff" stroke="#221f1f" stroke-linecap="round" stroke-linejoin="round" stroke-width=".766"/><polygon points="47.87 73.534 47.87 61.689 25.929 49.016 25.896 60.582 47.87 73.534" fill="#fff" stroke="#221f1f" stroke-linecap="round" stroke-linejoin="round" stroke-width=".766"/><path d="M103.978,42.706c0,1.93,1.566,3.494,3.495,3.494s3.494-1.564,3.494-3.494-1.563-3.496-3.494-3.496-3.495,1.566-3.495,3.496Z" fill="#231f20" stroke-width="0"/><path d="M108.238,48.202l-3.569-2.475s-1.748-.655-2.33,1.24l-4.878,9.756s-.218,1.821,1.602,3.422l6.7,7.718s.945.945.143,2.911l-2.619,5.898s-1.093,1.966.145,3.277l1.383.802s1.309,0,1.966-1.311l3.64-9.101s.731-3.132-.727-4.805l-4.806-5.462s-.8-1.383-.218-2.549l2.038-3.201.765-.147s-.327,2.33,1.128,3.204l6.552,5.388s1.092.074,1.455-.509l.585-.728s.433-1.238-.585-2.185l-5.642-5.022-2.729-6.119Z" fill="#231f20" stroke-width="0"/><path d="M136.451,42.668c0,1.93-1.566,3.496-3.494,3.496s-3.495-1.566-3.495-3.496,1.563-3.494,3.495-3.494,3.494,1.564,3.494,3.494Z" fill="#231f20" stroke-width="0"/><path d="M130.008,47.038h4.953s1.964.438,2.035,2.111c.074,1.676,0,5.317,0,5.317l.034,7.718s-.686.69-1.269,1.001c0,0-.51.237-.656.891l-.51,8.009.074,7.354s-.437,1.747-1.711,1.821h-.786s-1.289-.583-1.579-2.404v-10.703s-1.966-2.33-2.623-4.006c-.654-1.675-.654-10.339-.654-10.339,0,0-.073-.947-.874-.29l-4.516,6.333s-.855.384-1.346.219c0,0-1.039-.764-.71-2.075l7.756-9.939s1.164-1.327,2.384-1.019Z" fill="#231f20" stroke-width="0"/><polygon points="122.736 71.433 138.276 68.893 138.276 56.476 122.736 53.936 107.199 56.476 107.199 68.893 122.736 71.433" fill="#fff" stroke-width="0"/><line x1="122.736" y1="59.017" x2="122.736" y2="71.433" fill="none" stroke="#231f20" stroke-width="1.144"/><line x1="107.199" y1="56.476" x2="107.199" y2="68.893" fill="none" stroke="#231f20" stroke-width="1.144"/><line x1="138.276" y1="56.476" x2="138.276" y2="68.893" fill="none" stroke="#231f20" stroke-width="1.144"/><line x1="107.199" y1="56.476" x2="122.736" y2="59.017" fill="none" stroke="#231f20" stroke-width="1.144"/><line x1="138.276" y1="56.476" x2="122.736" y2="59.017" fill="none" stroke="#231f20" stroke-width="1.144"/><line x1="107.199" y1="56.476" x2="122.736" y2="53.936" fill="none" stroke="#231f20" stroke-width="1.144"/><line x1="138.276" y1="56.476" x2="122.736" y2="53.936" fill="none" stroke="#231f20" stroke-width="1.144"/><line x1="107.199" y1="68.893" x2="122.736" y2="71.433" fill="none" stroke="#231f20" stroke-width="1.144"/><line x1="138.276" y1="68.893" x2="122.736" y2="71.433" fill="none" stroke="#231f20" stroke-width="1.144"/><path d="M143.732,42.706c0,1.93-1.563,3.494-3.494,3.494s-3.494-1.564-3.494-3.494,1.562-3.496,3.494-3.496,3.494,1.566,3.494,3.496Z" fill="#231f20" stroke-width="0"/><path d="M139.472,48.202l3.569-2.475s1.747-.655,2.33,1.24l4.877,9.756s.219,1.821-1.601,3.422l-6.701,7.718s-.943.945-.143,2.911l2.621,5.898s1.092,1.966-.145,3.277l-1.383.802s-1.311,0-1.966-1.311l-3.641-9.101s-.729-3.132.728-4.805l4.805-5.462s.801-1.383.219-2.549l-2.04-3.201-.764-.147s.326,2.33-1.128,3.204l-6.553,5.388s-1.092.074-1.455-.509l-.584-.728s-.435-1.238.584-2.185l5.643-5.022,2.729-6.119Z" fill="#231f20" stroke-width="0"/><path d="M112.083,42.668c0,1.93,1.564,3.496,3.494,3.496s3.494-1.566,3.494-3.496-1.563-3.494-3.494-3.494-3.494,1.564-3.494,3.494Z" fill="#231f20" stroke-width="0"/><path d="M118.525,47.038h-4.95s-1.966.438-2.039,2.111c-.074,1.676,0,5.317,0,5.317l-.032,7.718s.688.69,1.269,1.001c0,0,.51.237.656.891l.51,8.009-.071,7.354s.435,1.747,1.709,1.821h.785s1.291-.583,1.583-2.404v-10.703s1.964-2.33,2.62-4.006c.654-1.675.654-10.339.654-10.339,0,0,.074-.947.874-.29l4.516,6.333s.856.384,1.348.219c0,0,1.034-.764.708-2.075l-7.754-9.939s-1.166-1.327-2.386-1.019Z" fill="#231f20" stroke-width="0"/><line x1="25.948" y1="55.164" x2="47.702" y2="67.744" fill="#fff" stroke="#221f1f" stroke-linecap="round" stroke-linejoin="round" stroke-width=".766"/></svg>