<?xml version="1.0" encoding="UTF-8"?><svg id="a" xmlns="http://www.w3.org/2000/svg" width="3.1in" height="1.695in" viewBox="0 0 223.2 122.04"><path d="M18.501,119.787h93.765c6.427,0,11.7-5.273,11.7-11.7V14.487c0-6.592-5.273-11.7-11.7-11.7H18.501c-6.427,0-11.7,5.108-11.7,11.7v93.6c0,6.427,5.273,11.7,11.7,11.7" fill="#666" fill-rule="evenodd"/><path d="M10.262,65.572v4.779c1.977,12.03,7.91,23.07,16.808,31.475-.824-10.546.494-21.258,4.12-31.145.165-.659.165-1.318,0-1.977-1.318-6.097-.989-12.359.989-18.292.165-.824-.165-1.648-.989-1.813-.494-.165-.824-.165-1.318,0-7.415,4.449-14.007,10.217-19.61,16.973M22.621,25.528c-6.427,7.58-10.711,16.808-12.359,26.696v9.887c6.756-7.745,14.996-14.007,24.224-18.456.659-.33.989-.659,1.318-1.154,3.461-5.273,8.075-9.558,13.677-12.359.824-.33.989-1.318.659-1.977-.165-.494-.494-.659-.989-.824-8.569-2.142-17.632-2.801-26.531-1.813ZM61.017,6.248h-4.779c-12.03,1.977-23.07,7.91-31.475,16.808,10.546-.824,21.258.494,31.145,3.955.659.165,1.318.33,1.813.165,6.097-1.318,12.524-.989,18.456.824.824.33,1.648-.165,1.813-.824.165-.494.165-.989,0-1.318-4.449-7.415-10.217-14.172-16.973-19.61ZM101.061,18.442c-7.58-6.262-16.808-10.546-26.696-12.194h-9.887c7.745,6.756,14.007,14.996,18.456,24.224.33.494.659.989,1.154,1.318,5.273,3.296,9.558,8.075,12.359,13.677.494.659,1.318.989,2.142.659.33-.165.659-.659.659-.989,2.307-8.734,2.801-17.797,1.813-26.696ZM120.341,56.838v-4.614c-1.977-12.194-7.91-23.235-16.808-31.639.824,10.711-.494,21.258-3.955,31.31-.165.494-.165,1.154-.165,1.813,1.483,6.097,1.154,12.359-.824,18.292-.33.824.165,1.648.989,1.977.33.165.824,0,1.154-.165,7.415-4.449,14.172-10.217,19.61-16.973ZM108.146,96.881c6.427-7.58,10.546-16.808,12.194-26.531v-10.052c-6.756,7.745-14.996,14.007-24.224,18.456-.494.33-.989.659-1.318,1.318-3.296,5.273-8.075,9.393-13.677,12.359-.659.33-.989,1.154-.659,1.977.33.33.659.659.989.659,8.734,2.307,17.797,2.966,26.696,1.813ZM69.751,116.162h4.614c12.194-1.977,23.235-7.91,31.639-16.808-10.546.989-21.258-.494-31.31-3.955-.494-.165-1.154-.165-1.813,0-6.097,1.318-12.359.989-18.456-.989-.659-.165-1.483.165-1.813.989-.165.33,0,.824.165,1.153,4.449,7.58,10.217,14.172,16.973,19.61ZM29.542,103.967c7.745,6.427,16.973,10.546,26.696,12.194h10.052c-7.745-6.756-14.007-14.996-18.456-24.059-.33-.659-.824-1.154-1.318-1.483-5.273-3.296-9.558-8.075-12.359-13.513-.33-.824-1.318-1.154-1.977-.659-.33.165-.659.494-.824.824-2.142,8.734-2.801,17.797-1.813,26.696ZM117.704,8.39l6.262,6.097v93.6l-11.7,11.7h104.806V8.39h-99.368Z" fill="#1a1a1a" fill-rule="evenodd"/><path d="M219.708,116.821V8.39h-2.637v108.431c0,.165-.165.33-.33.33h-92.282v2.637h92.282c1.648,0,2.966-1.318,2.966-2.966M219.708,5.753h-95.248v2.637h95.248v-2.637Z" fill="#e6e6e6" fill-rule="evenodd"/><path d="M217.072,63.05V17.948h-2.966v-1.483h2.966v-4.449c0-1.977-1.648-3.625-3.79-3.625h-21.917c-1.154,0-2.142.989-2.142,2.142v2.637h-1.483v-7.415h-55.039v7.415h-1.483v-2.637c0-1.154-.989-2.142-2.307-2.142h-6.097v-1.154c0-2.472-1.977-4.449-4.449-4.449H12.404c-2.472,0-4.449,1.977-4.449,4.449v1.154h-3.955v108.761h2.966v.659c0,1.154.824,1.977,1.813,1.977h109.584c1.977,0,3.79-1.483,4.284-3.461h2.801v3.461h88.327v-4.449h3.296v-11.304h-18.621v-40.984h18.621ZM30.201,26.517c-.165.165-.494.33-.659.659-.165.165-.659.33-.989.33l-5.108-1.154c-.989-.33-1.648-1.318-1.318-2.307,0-.33.165-.494.33-.824l2.966-2.966c.659-.659,1.813-.659,2.637,0,0,.165.165.33.33.659l1.977,4.284c.165.494.165.989-.165,1.318ZM34.98,62.441l-21.423,1.813c-1.813.165-3.461-1.154-3.625-2.966v-30.815c0-1.813,1.483-3.296,3.296-3.296h.824l18.621,4.12c.494.165,1.154.494,1.648.989l8.569,8.569c.33.33.33.989,0,1.483-4.449,5.273-6.921,12.03-6.921,18.951,0,.659-.494.989-.989,1.154ZM44.868,38.711l-8.899-8.899c-.165-.165-.33-.494-.494-.824l-5.438-11.535c-.494-1.154-.165-2.472.824-3.296,1.977-1.318,3.955-2.637,5.932-3.79,1.318-.659,2.966-.33,3.625.989v.165l10.711,22.906c.33.494,0,1.154-.494,1.318-1.483.989-2.801,1.977-4.284,2.966-.33.494-.989.494-1.483,0ZM37.123,72.658l-23.4,11.041c-1.318.659-2.966,0-3.461-1.318-.165-.33-.33-.659-.33-.989v-10.711c0-1.813,1.318-3.296,3.131-3.296l22.082-1.977c.659-.165,1.154.33,1.318.824.165,1.813.659,3.461,1.318,5.108.165.494,0,1.154-.659,1.318ZM42.89,81.721l-17.962,17.797c-.989.989-2.637.989-3.625,0,0-.165-.165-.165-.165-.165-2.637-2.966-4.779-6.262-6.756-9.723-.659-1.154-.165-2.801.989-3.461,0,0,.165,0,.165-.165l22.906-10.547c.494-.33,1.154-.165,1.483.33.824,1.648,1.813,2.966,2.966,4.284.33.494.33,1.154,0,1.648ZM51.13,88.148l-10.546,22.576c-.33.659-.989.989-1.648.989h-1.977c-.494,0-.989-.165-1.318-.33-2.966-1.813-5.768-3.79-8.404-5.932-1.154-.989-1.318-2.637-.33-3.79h.165l17.797-17.962c.494-.33,1.154-.33,1.483,0,1.483,1.154,2.801,2.142,4.284,2.966.494.33.824.989.494,1.483ZM63.818,91.608v18.621c0,1.483-1.154,2.637-2.637,2.637h-14.172c-1.483,0-2.637-1.154-2.637-2.637,0-.33,0-.659.165-.989l9.393-19.939c.165-.494.824-.659,1.318-.494,2.472.824,4.944,1.483,7.58,1.648.659,0,.989.494.989,1.154ZM62.83,31.955c-2.637.33-5.108.824-7.58,1.648-.494.33-1.154,0-1.318-.494l-9.558-20.269c-.659-1.648,0-3.625,1.648-4.449.494-.165.989-.33,1.483-.33h13.018c1.813,0,3.296,1.483,3.296,3.461v19.445c0,.494-.33.989-.989.989ZM95.787,62.441c-.659-.165-.989-.494-.989-1.154,0-6.921-2.472-13.677-6.921-18.951-.494-.494-.33-1.154,0-1.483l8.569-8.569c.494-.494.989-.824,1.648-.989l18.621-4.12c1.813-.33,3.625.824,3.955,2.637v31.145c0,1.813-1.483,3.296-3.296,3.296h-.33l-21.258-1.813ZM85.735,38.711c-.33.494-.989.494-1.483,0-1.318-.989-2.801-1.977-4.284-2.966-.494-.165-.659-.824-.494-1.318l10.711-22.906c.659-1.318,2.142-1.813,3.461-1.318l.165.165c2.142,1.154,4.12,2.472,6.097,3.79.989.824,1.318,2.142.824,3.296l-5.438,11.535c-.165.33-.33.659-.659.824l-8.899,8.899ZM93.48,72.658c-.494-.165-.824-.824-.494-1.318.494-1.648.989-3.296,1.318-5.108,0-.494.659-.989,1.154-.824l22.246,1.977c1.648,0,2.966,1.483,2.966,3.296v10.711c0,1.318-1.154,2.472-2.472,2.472-.494,0-.824,0-1.154-.165l-23.565-11.041ZM87.877,81.721c-.33-.494-.494-1.154,0-1.648.989-1.318,2.142-2.637,2.966-4.284.33-.494.824-.659,1.483-.33l22.741,10.547c1.318.659,1.977,2.142,1.318,3.461q0,.165-.165.165c-1.813,3.461-4.12,6.756-6.756,9.723-.824,1.154-2.472,1.154-3.625.33q0-.165-.165-.165l-17.797-17.797ZM79.473,88.148c-.165-.494,0-1.154.494-1.483,1.483-.824,2.966-1.813,4.284-2.966.494-.33,1.154-.33,1.483,0l17.962,17.962c.989.989.989,2.637,0,3.625q-.165,0-.165.165c-2.637,2.142-5.438,4.12-8.404,5.932-.33.165-.824.33-1.318.33h-1.977c-.824,0-1.483-.33-1.813-.989l-10.546-22.576ZM66.784,91.608c0-.659.494-1.154.989-1.154,2.637-.165,5.273-.824,7.745-1.648.494-.165,1.154,0,1.318.494l9.228,19.939c.659,1.154,0,2.801-1.318,3.461-.33.165-.659.165-.989.165h-14.337c-1.483,0-2.637-1.154-2.637-2.637v-18.621ZM67.773,31.955c-.494,0-.989-.494-.989-.989V11.521c0-1.977,1.483-3.461,3.461-3.461h13.018c1.813,0,3.296,1.483,3.296,3.461,0,.494,0,.989-.33,1.318l-9.393,20.269c-.165.494-.824.824-1.318.494-2.472-.824-5.108-1.318-7.745-1.648ZM100.566,26.517c-.33-.33-.494-.824-.33-1.318l2.142-4.284c.33-.989,1.483-1.483,2.472-.989.165.165.33.165.494.33.989.989,1.977,1.977,2.801,2.966.659.824.659,1.977-.165,2.637-.165.165-.494.33-.824.494l-4.944,1.154c-.494,0-.824-.165-1.154-.33-.165-.33-.33-.494-.494-.659Z" fill="#e6e6e6" fill-rule="evenodd"/><path d="M9.932,60.134h2.637v-19.28h-2.637v19.28ZM118.199,60.134h2.472v-19.28h-2.472v19.28Z" fill="none" fill-rule="evenodd"/><rect x="118.199" y="40.853" width="2.472" height="19.28" fill="gray"/><rect x="9.932" y="40.853" width="2.637" height="19.28" fill="gray"/><path d="M112.266,57.003h2.142v-13.018h-2.142v13.018ZM16.194,57.003h2.307v-13.018h-2.307v13.018Z" fill="none" fill-rule="evenodd"/><rect x="16.194" y="43.984" width="2.307" height="13.018" fill="gray"/><rect x="112.266" y="43.984" width="2.142" height="13.018" fill="gray"/><path d="M93.151,61.287c0-15.49-12.359-27.849-27.849-27.849-15.325,0-27.849,12.359-27.849,27.849,0,15.325,12.524,27.849,27.849,27.849,15.49,0,27.849-12.524,27.849-27.849" fill="#e6e6e6" fill-rule="evenodd"/><path d="M27.07,14.487c0-4.779-3.79-8.569-8.569-8.569s-8.569,3.79-8.569,8.569c0,4.614,3.79,8.569,8.569,8.569s8.569-3.955,8.569-8.569M120.67,14.487c0-4.779-3.79-8.569-8.404-8.569-4.779,0-8.569,3.79-8.569,8.569,0,4.614,3.79,8.569,8.569,8.569,4.614,0,8.404-3.955,8.404-8.569ZM27.07,108.087c0-4.779-3.79-8.569-8.569-8.569s-8.569,3.79-8.569,8.569c0,4.614,3.79,8.569,8.569,8.569s8.569-3.955,8.569-8.569ZM120.67,108.087c0-4.779-3.79-8.569-8.404-8.569-4.779,0-8.569,3.79-8.569,8.569,0,4.614,3.79,8.569,8.569,8.569,4.614,0,8.404-3.955,8.404-8.569Z" fill="#bcbec0" fill-rule="evenodd"/><path d="M15.041,12.345l.659.659c.824.824.824,2.142,0,2.801l-.659.659c-.165.33-.165.659,0,.989l.494.33c.165.33.659.33.989,0l.494-.494c.824-.824,2.142-.824,2.966,0l.659.659c.165.165.659.165.824,0l.494-.494c.165-.33.165-.659,0-.989l-.659-.659c-.824-.659-.824-1.977,0-2.801l.659-.659c.165-.165.165-.659,0-.989l-.494-.33c-.165-.33-.659-.33-.989,0l-.494.659c-.824.659-2.142.659-2.966,0l-.659-.659c-.165-.33-.659-.33-.824,0l-.494.33c-.33.33-.33.824,0,.989M15.041,105.945l.659.659c.824.824.824,2.142,0,2.966l-.659.494c-.165.33-.165.659,0,.989l.494.33c.165.33.659.33.989,0l.494-.494c.824-.824,2.142-.824,2.966,0l.659.659c.165.165.659.165.824,0l.494-.494c.165-.165.165-.659,0-.989l-.659-.494c-.824-.824-.824-2.142,0-2.966l.659-.659c.165-.165.165-.659,0-.989l-.494-.33c-.165-.33-.659-.33-.989,0l-.494.659c-.824.659-2.142.659-2.966,0l-.659-.659c-.165-.33-.659-.33-.824,0l-.494.33c-.33.33-.33.824,0,.989ZM108.806,105.945l.494.659c.824.824.824,2.142,0,2.966l-.494.494c-.33.33-.33.659,0,.989l.33.33c.33.33.659.33.989,0l.659-.494c.824-.824,2.142-.824,2.801,0l.659.659c.33.165.659.165.989,0l.33-.494c.33-.165.33-.659,0-.989l-.494-.494c-.824-.824-.824-2.142,0-2.966l.494-.659c.33-.165.33-.659,0-.989l-.33-.33c-.33-.33-.659-.33-.989,0l-.659.659c-.659.659-1.977.659-2.801,0l-.659-.659c-.33-.33-.659-.33-.989,0l-.33.33c-.33.33-.33.824,0,.989ZM108.806,12.345l.494.659c.824.824.824,2.142,0,2.801l-.494.659c-.33.33-.33.659,0,.989l.33.33c.33.33.659.33.989,0l.659-.494c.824-.824,2.142-.824,2.801,0l.659.659c.33.165.659.165.989,0l.33-.494c.33-.33.33-.659,0-.989l-.494-.659c-.824-.659-.824-1.977,0-2.801l.494-.659c.33-.165.33-.659,0-.989l-.33-.33c-.33-.33-.659-.33-.989,0l-.659.659c-.659.659-1.977.659-2.801,0l-.659-.659c-.33-.33-.659-.33-.989,0l-.33.33c-.33.33-.33.824,0,.989Z"/><path d="M114.408,26.552h3.79v15.49l1.648,3.461c.33.659.494,1.318.494,2.142v9.723h-3.625v-9.723c0-.165-.165-.33-.165-.494l-1.648-3.625c-.33-.659-.494-1.318-.494-1.977v-14.996M16.194,26.552h-3.625v14.996c0,.165,0,.33-.165.494l-1.648,3.461c-.33.659-.494,1.318-.494,2.142v9.723h3.79v-9.723c0-.165,0-.33.165-.494l1.648-3.625c.165-.659.33-1.318.33-1.977v-14.996Z" fill="#ececec" fill-rule="evenodd"/><path d="M114.408,60.134h3.79v-19.28h-3.79v19.28ZM12.569,60.134h3.625v-19.28h-3.625v19.28Z" fill="none" fill-rule="evenodd"/><polyline points="16.194 60.134 16.194 40.853 12.569 40.853 12.569 60.134" fill="#ececec"/><polyline points="118.199 60.134 118.199 40.853 114.408 40.853 114.408 60.134" fill="#ececec"/><path d="M112.925,83.204v14.831c0,.989-.824,1.813-1.813,1.813H19.655c-.989,0-1.977-.824-1.977-1.813v-14.831c0-1.154-.824-1.977-1.813-1.977h-7.416c-.989,0-1.813.824-1.813,1.977v14.831c0,7.086,5.768,13.018,13.018,13.018h91.458c7.086,0,13.018-5.932,13.018-13.018v-14.831c0-1.154-.824-1.977-1.977-1.977h-7.416c-.989,0-1.813.824-1.813,1.977M213.282,25.693c0-4.614-3.79-8.404-8.569-8.404-4.614,0-8.569,3.79-8.569,8.404,0,4.779,3.955,8.569,8.569,8.569,4.779,0,8.569-3.79,8.569-8.569Z" fill="#595959" fill-rule="evenodd"/><path d="M48.676,63.077v1.315h-7.368c-.01-.329.043-.646.16-.95.187-.502.488-.996.901-1.482.413-.487,1.01-1.05,1.791-1.688,1.211-.994,2.03-1.781,2.456-2.361.426-.58.639-1.129.639-1.646,0-.542-.194-1-.582-1.373s-.894-.559-1.517-.559c-.659,0-1.186.197-1.582.593s-.596.943-.601,1.643l-1.407-.145c.096-1.049.458-1.849,1.087-2.399.628-.55,1.473-.825,2.532-.825,1.07,0,1.917.297,2.54.89.624.593.935,1.328.935,2.205,0,.446-.091.885-.273,1.315-.183.431-.486.885-.909,1.361-.423.477-1.127,1.13-2.11,1.961-.821.689-1.348,1.157-1.582,1.403-.233.246-.426.493-.578.741h5.467Z"/><path d="M49.988,58.895c0-1.318.135-2.378.407-3.182.271-.803.674-1.423,1.209-1.859.535-.436,1.208-.654,2.019-.654.598,0,1.123.121,1.574.361s.824.588,1.118,1.042c.294.454.525,1.006.692,1.658.167.651.251,1.53.251,2.635,0,1.308-.134,2.364-.403,3.167-.269.804-.67,1.424-1.206,1.862-.535.438-1.21.658-2.026.658-1.075,0-1.918-.386-2.532-1.156-.735-.928-1.103-2.438-1.103-4.532ZM51.395,58.895c0,1.831.214,3.048.642,3.654.429.605.957.908,1.585.908s1.157-.304,1.585-.912.643-1.825.643-3.65c0-1.835-.214-3.054-.643-3.657-.428-.604-.962-.905-1.601-.905-.628,0-1.13.266-1.505.798-.472.679-.707,1.934-.707,3.764Z"/><path d="M58.493,58.895c0-1.318.135-2.378.407-3.182.271-.803.674-1.423,1.209-1.859.535-.436,1.208-.654,2.019-.654.598,0,1.123.121,1.574.361s.824.588,1.118,1.042c.294.454.525,1.006.692,1.658.167.651.251,1.53.251,2.635,0,1.308-.134,2.364-.403,3.167-.269.804-.67,1.424-1.206,1.862-.535.438-1.21.658-2.026.658-1.075,0-1.918-.386-2.532-1.156-.735-.928-1.103-2.438-1.103-4.532ZM59.899,58.895c0,1.831.214,3.048.642,3.654.429.605.957.908,1.585.908s1.157-.304,1.585-.912.643-1.825.643-3.65c0-1.835-.214-3.054-.643-3.657-.428-.604-.962-.905-1.601-.905-.628,0-1.13.266-1.505.798-.472.679-.707,1.934-.707,3.764Z"/><path d="M66.998,58.895c0-1.318.135-2.378.407-3.182.271-.803.674-1.423,1.209-1.859.535-.436,1.208-.654,2.019-.654.598,0,1.123.121,1.574.361s.824.588,1.118,1.042c.294.454.525,1.006.692,1.658.167.651.251,1.53.251,2.635,0,1.308-.134,2.364-.403,3.167-.269.804-.67,1.424-1.206,1.862-.535.438-1.21.658-2.026.658-1.075,0-1.918-.386-2.532-1.156-.735-.928-1.103-2.438-1.103-4.532ZM68.405,58.895c0,1.831.214,3.048.642,3.654.429.605.957.908,1.585.908s1.157-.304,1.585-.912.643-1.825.643-3.65c0-1.835-.214-3.054-.643-3.657-.428-.604-.962-.905-1.601-.905-.628,0-1.13.266-1.505.798-.472.679-.707,1.934-.707,3.764Z"/><path d="M78.316,64.393l-2.958-11.147h1.513l1.696,7.307c.183.766.339,1.526.471,2.281.284-1.191.451-1.878.502-2.061l2.122-7.528h1.779l1.597,5.642c.4,1.4.689,2.715.867,3.947.142-.704.327-1.513.555-2.426l1.749-7.163h1.483l-3.057,11.147h-1.422l-2.35-8.494c-.197-.709-.314-1.146-.35-1.308-.117.512-.226.948-.327,1.308l-2.365,8.494h-1.505Z"/><path d="M43.869,69.87l.447-.042c.038.211.11.363.217.458s.244.142.411.142c.143,0,.268-.032.376-.098s.196-.153.265-.263c.069-.109.126-.257.173-.443.047-.187.07-.376.07-.568,0-.021,0-.052-.002-.094-.093.148-.22.269-.381.361-.161.092-.335.138-.523.138-.314,0-.579-.113-.796-.341s-.326-.527-.326-.899c0-.385.113-.694.34-.929s.511-.352.852-.352c.247,0,.472.066.676.199.205.133.359.322.465.567.106.246.159.602.159,1.066,0,.484-.053.87-.158,1.157s-.262.505-.469.655c-.208.149-.451.225-.73.225-.296,0-.539-.082-.726-.247-.188-.164-.301-.396-.339-.693ZM45.774,68.197c0-.268-.071-.479-.213-.637-.142-.156-.313-.234-.513-.234-.207,0-.387.084-.54.253s-.23.388-.23.656c0,.242.073.438.218.589.146.15.325.226.539.226.215,0,.393-.075.531-.226.139-.151.208-.36.208-.627Z"/><path d="M49.158,67.884l-.462.036c-.042-.183-.1-.315-.176-.397-.125-.133-.281-.199-.465-.199-.148,0-.278.041-.39.124-.146.106-.262.263-.347.468s-.128.497-.132.877c.112-.171.249-.298.411-.381.162-.082.332-.124.509-.124.311,0,.575.114.792.343.218.229.327.523.327.886,0,.237-.051.459-.154.663s-.244.36-.423.469c-.179.109-.382.163-.61.163-.388,0-.704-.143-.949-.428-.245-.285-.367-.755-.367-1.41,0-.732.135-1.265.406-1.598.236-.29.554-.435.954-.435.298,0,.542.084.733.251s.305.398.342.692ZM47.258,69.519c0,.16.034.313.102.46.068.146.163.258.286.335.122.076.25.114.385.114.196,0,.365-.079.507-.237.141-.159.212-.374.212-.646,0-.262-.07-.469-.209-.619s-.315-.227-.527-.227c-.21,0-.389.076-.535.227s-.22.349-.22.594Z"/><path d="M49.776,67.866c0-.271.068-.501.204-.69s.333-.284.592-.284c.238,0,.435.085.591.255.156.169.234.419.234.748,0,.32-.079.567-.237.74-.158.174-.352.261-.583.261-.229,0-.42-.086-.572-.257-.153-.17-.229-.428-.229-.772ZM50.585,67.212c-.115,0-.211.05-.288.15-.077.1-.115.283-.115.551,0,.242.039.414.117.513.077.1.173.148.287.148.117,0,.214-.05.291-.149.077-.101.115-.283.115-.549,0-.244-.039-.416-.117-.516-.078-.099-.174-.148-.29-.148ZM50.588,70.886l2.073-3.994h.377l-2.066,3.994h-.385ZM52.227,69.856c0-.272.068-.503.205-.691.136-.188.334-.283.594-.283.238,0,.435.085.591.255.156.17.234.419.234.748,0,.321-.079.568-.236.741s-.353.26-.585.26c-.229,0-.42-.086-.573-.257-.152-.172-.229-.429-.229-.772ZM53.039,69.203c-.117,0-.214.05-.291.149s-.115.283-.115.551c0,.241.039.412.116.512.078.101.173.15.287.15.119,0,.216-.05.293-.15.077-.1.115-.282.115-.548,0-.245-.039-.417-.116-.516-.078-.1-.174-.148-.29-.148Z"/><path d="M56.066,70.746v-3.79h2.74v.447h-2.239v1.161h2.097v.444h-2.097v1.29h2.327v.447h-2.828Z"/><path d="M59.613,70.746v-3.79h2.557v.447h-2.055v1.174h1.778v.447h-1.778v1.722h-.501Z"/><path d="M62.848,70.746v-3.79h2.557v.447h-2.055v1.174h1.778v.447h-1.778v1.722h-.501Z"/><path d="M66.141,70.746v-3.79h.501v3.79h-.501Z"/><path d="M70.231,69.417l.501.127c-.105.412-.294.726-.567.942-.273.216-.607.324-1.002.324-.408,0-.741-.083-.997-.249-.256-.167-.451-.407-.584-.723-.133-.315-.2-.654-.2-1.017,0-.395.075-.738.226-1.032s.366-.518.644-.67.584-.229.919-.229c.379,0,.698.097.957.289.258.193.438.465.541.814l-.494.116c-.088-.275-.215-.477-.382-.602-.167-.126-.377-.189-.631-.189-.292,0-.535.07-.73.21s-.333.327-.412.562c-.08.234-.119.478-.119.728,0,.322.047.604.141.844.094.24.24.42.438.539s.413.179.644.179c.281,0,.519-.081.714-.243s.327-.402.396-.722Z"/><path d="M71.436,70.746v-3.79h.501v3.79h-.501Z"/><path d="M72.832,70.746v-3.79h2.74v.447h-2.239v1.161h2.097v.444h-2.097v1.29h2.327v.447h-2.828Z"/><path d="M76.348,70.746v-3.79h.515l1.99,2.976v-2.976h.481v3.79h-.514l-1.991-2.979v2.979h-.481Z"/><path d="M82.88,69.417l.501.127c-.105.412-.294.726-.567.942-.273.216-.607.324-1.002.324-.408,0-.741-.083-.997-.249-.256-.167-.451-.407-.584-.723-.133-.315-.2-.654-.2-1.017,0-.395.075-.738.226-1.032s.366-.518.644-.67.584-.229.919-.229c.379,0,.698.097.957.289.258.193.438.465.541.814l-.494.116c-.088-.275-.215-.477-.382-.602-.167-.126-.377-.189-.631-.189-.292,0-.535.07-.73.21s-.333.327-.412.562c-.08.234-.119.478-.119.728,0,.322.047.604.141.844.094.24.24.42.438.539s.413.179.644.179c.281,0,.519-.081.714-.243s.327-.402.396-.722Z"/><path d="M85.067,70.746v-1.605l-1.46-2.185h.61l.747,1.143c.138.214.267.428.385.642.114-.198.252-.422.414-.67l.734-1.114h.584l-1.513,2.185v1.605h-.501Z"/><circle cx="204.779" cy="25.735" r="4.466" fill="silver"/><rect x="213.03" y="67.861" width="4.091" height="32.726" fill="none"/><polyline points="213.03 100.588 217.121 100.588 217.121 67.861 213.03 67.861" fill="none" stroke="gray" stroke-linecap="round" stroke-linejoin="round"/><rect x="196.295" y="67.19" width="20.826" height="32.726" fill="#ececec"/><path d="M126.566,14.867v80.143c0,2.603,2.045,4.649,4.649,4.649h58.201c2.417,0,4.649-2.045,4.649-4.649V14.867c0-2.603-2.231-4.649-4.649-4.649h-58.201c-2.603,0-4.649,2.046-4.649,4.649" fill="#535353" fill-rule="evenodd"/><path d="M133.26,36.808v36.259c0,2.045.93,3.905,2.417,5.392l14.504,13.946c1.302,1.302,3.161,2.045,5.206,2.045h24.359c4.091,0,7.438-3.347,7.438-7.438V22.862c0-4.091-3.347-7.438-7.438-7.438h-24.359c-2.045,0-3.905.744-5.206,2.046l-14.504,13.946c-1.488,1.488-2.417,3.347-2.417,5.392Z" fill="#292929" fill-rule="evenodd"/><path d="M133.26,36.808v36.259c0,2.045.93,3.905,2.417,5.392l14.504,13.946c1.302,1.302,3.161,2.045,5.206,2.045h24.359c4.091,0,7.438-3.347,7.438-7.438V22.862c0-4.091-3.347-7.438-7.438-7.438h-24.359c-2.045,0-3.905.744-5.206,2.046l-14.504,13.946c-1.488,1.488-2.417,3.347-2.417,5.392Z" fill="none" stroke="#333" stroke-linecap="round" stroke-linejoin="round" stroke-width=".124"/><polyline points="160.78 78.46 175.655 78.46 175.655 73.997 160.78 73.997 160.78 78.46" fill="#9a9a9a" fill-rule="evenodd"/><rect x="144.974" y="52.8" width="14.876" height="4.463" fill="#9a9a9a"/><rect x="160.78" y="31.416" width="14.876" height="4.463" fill="#9a9a9a"/><path d="M192.576,112.116h5.95c1.674,0,2.975-1.302,2.975-2.975v-49.833c0-1.488-1.302-2.975-2.975-2.975h-5.95c-1.673,0-2.975,1.488-2.975,2.975v49.833c0,1.674,1.302,2.975,2.975,2.975Z" fill="#eb8023" fill-rule="evenodd"/></svg>