<?xml version="1.0" encoding="UTF-8"?><svg id="a" xmlns="http://www.w3.org/2000/svg" width="5.625in" height="1.625in" viewBox="0 0 405 117"><rect x="4.462" y="30.636" width="396" height="82.759" fill="none" stroke="#ccc" stroke-linecap="round" stroke-linejoin="round" stroke-width="2"/><rect x="8.487" y="34.741" width="387.949" height="74.551" fill="#e6e6e6" stroke-width="0"/><rect x="15.205" y="73.315" width="180.967" height="33.173" fill="#ccc" stroke-width="0"/><path d="M72.731,102.261h28.281c.403,0,.755-.302.755-.755v-25.614c0-.453-.352-.755-.755-.755h-28.281c-.403,0-.755.302-.755.755v25.614c0,.453.352.755.755.755" fill="#e6e6e6" fill-rule="evenodd" stroke-width="0"/><path d="M91.501,76.546c0-.201-.151-.302-.302-.302s-.302.151-.302.302l.201,1.862c0,.101.05.101.101.101s.101-.05.101-.101l.201-1.862M91.551,79.213c0-.201-.151-.352-.352-.352s-.352.151-.352.352c0,.151.151.302.352.302s.352-.151.352-.302Z" fill="#262626" fill-rule="evenodd" stroke-width="0"/><path d="M84.557,77.553c-.201-.805-1.057-1.258-1.862-1.057-.855.252-1.308,1.107-1.057,1.912.252.805,1.107,1.258,1.912,1.057.805-.252,1.258-1.107,1.006-1.912M84.355,77.855c.101.654-.403,1.308-1.107,1.359-.503.101-1.057-.201-1.258-.705l.855-.855.352,1.359,1.157-1.157ZM81.839,78.157c-.05-.704.403-1.359,1.107-1.409.554-.101,1.057.201,1.308.705l-.855.855-.352-1.359-1.208,1.208Z" fill="#262626" fill-rule="evenodd" stroke-width="0"/><circle cx="83.174" cy="82.389" r="1.694" fill="#262626" stroke-width="0"/><circle cx="91.252" cy="82.389" r="1.694" fill="#262626" stroke-width="0"/><path d="M155.661,100.55h12.782c.554,0,1.006-.453,1.006-.956v-23.198c0-.503-.453-.956-1.006-.956h-12.782c-.503,0-.956.453-.956.956v23.198c0,.503.453.956.956.956Z" fill="#595a5a" stroke-width="0"/><path d="M156.667,96.776h10.819c.403,0,.755-.352.755-.755v-16.053c0-.403-.352-.755-.755-.755h-10.819c-.453,0-.755.352-.755.755v16.053c0,.403.302.755.755.755Z" fill="#d9d9d9" stroke-width="0"/><path d="M166.631,83.994v-2.365c0-.252-.201-.453-.453-.453h-8.202c-.252,0-.453.201-.453.453v2.365h9.108Z" fill="#595a5a" stroke-width="0"/><path d="M166.631,83.994h-9.108v10.165c0,.252.201.453.453.453h8.202c.252,0,.453-.201.453-.453v-10.165Z" fill="#6a6a6a" stroke-width="0"/><path d="M162.052,87.969c.151,0,.302-.101.302-.252v-2.164c0-.151-.151-.252-.302-.252s-.252.101-.252.252v2.164c0,.151.101.252.252.252M163.058,91.693c0-.554-.453-.956-1.006-.956-.503,0-.956.403-.956.956s.453.956.956.956c.554,0,1.006-.403,1.006-.956ZM163.612,91.693c0-.855-.705-1.51-1.56-1.51-.805,0-1.51.654-1.51,1.51s.705,1.51,1.51,1.51c.855,0,1.56-.654,1.56-1.51Z" fill="#fff" fill-rule="evenodd" stroke-width="0"/><rect x="172.871" y="75.188" width="19.625" height="26.067" rx="1.359" ry="1.359" fill="#595a5a" stroke-width="0"/><path d="M174.833,82.937v10.568c0,.554.252,1.107.704,1.56l4.227,4.026c.403.403.956.604,1.51.604h7.095c1.208,0,2.164-.956,2.164-2.164v-18.619c0-1.208-.956-2.164-2.164-2.164h-7.095c-.554,0-1.107.201-1.51.604l-4.227,4.026c-.453.453-.704,1.006-.704,1.56Z" fill="#292929" stroke-width="0"/><path d="M182.835,95.065h4.328v-1.308h-4.328v1.308ZM178.205,88.875h4.328v-1.308h-4.328v1.308ZM182.835,82.686h4.328v-1.258h-4.328v1.258Z" fill="#b3b3b3" fill-rule="evenodd" stroke-width="0"/><rect x="133.641" y="101.96" width="62.149" height="4.527" fill="#595a5a" stroke-width="0"/><rect x="85.446" y="99.697" width="4.527" height="6.791" fill="#595a5a" stroke-width="0"/><rect x="16.218" y="101.96" width="46.75" height="4.527" fill="#595a5a" stroke-width="0"/><path d="M108.505,101.96c-.948,0-1.843-.105-2.738-.316l-6.423-1.579c-.895-.263-1.79-.368-2.738-.368h-6.844c-.263,0-.474.211-.474.474v5.896c0,.211.211.421.474.421h43.853v-4.527h-25.112Z" fill="#6a6a6a" stroke-width="0"/><path d="M92.922,105.803h38.22v-3.159h-22.637c-1,0-1.948-.105-2.895-.368l-6.423-1.579c-.842-.211-1.685-.316-2.58-.316h-3.685v5.422" fill="#d66927" fill-rule="evenodd" stroke-width="0"/><path d="M78.865,101.96h-15.951v4.527h22.795c.211,0,.421-.211.421-.421v-5.896c0-.263-.211-.474-.421-.474h-3.159c-.263,0-.474.105-.684.263l-2.316,1.79c-.211.158-.474.211-.684.211Z" fill="#6a6a6a" stroke-width="0"/><rect x="12.849" y="103.434" width="6.791" height="3.053" fill="#595a5a" stroke-width="0"/><rect x="209.857" y="73.315" width="180.967" height="33.173" fill="#ccc" stroke-width="0"/><path d="M267.382,102.261h28.281c.403,0,.755-.302.755-.755v-25.614c0-.453-.352-.755-.755-.755h-28.281c-.403,0-.755.302-.755.755v25.614c0,.453.352.755.755.755" fill="#e6e6e6" fill-rule="evenodd" stroke-width="0"/><path d="M286.152,76.546c0-.201-.151-.302-.302-.302s-.302.151-.302.302l.201,1.862c0,.101.05.101.101.101s.101-.05.101-.101l.201-1.862M286.203,79.213c0-.201-.151-.352-.352-.352s-.352.151-.352.352c0,.151.151.302.352.302s.352-.151.352-.302Z" fill="#262626" fill-rule="evenodd" stroke-width="0"/><path d="M279.208,77.553c-.201-.805-1.057-1.258-1.862-1.057-.855.252-1.308,1.107-1.057,1.912.252.805,1.107,1.258,1.912,1.057.805-.252,1.258-1.107,1.006-1.912M279.007,77.855c.101.654-.403,1.308-1.107,1.359-.503.101-1.057-.201-1.258-.705l.855-.855.352,1.359,1.157-1.157ZM276.49,78.157c-.05-.704.403-1.359,1.107-1.409.554-.101,1.057.201,1.308.705l-.855.855-.352-1.359-1.208,1.208Z" fill="#262626" fill-rule="evenodd" stroke-width="0"/><circle cx="277.825" cy="82.389" r="1.694" fill="#262626" stroke-width="0"/><circle cx="285.903" cy="82.389" r="1.694" fill="#262626" stroke-width="0"/><path d="M350.312,100.55h12.782c.554,0,1.006-.453,1.006-.956v-23.198c0-.503-.453-.956-1.006-.956h-12.782c-.503,0-.956.453-.956.956v23.198c0,.503.453.956.956.956Z" fill="#595a5a" stroke-width="0"/><path d="M351.319,96.776h10.819c.403,0,.755-.352.755-.755v-16.053c0-.403-.352-.755-.755-.755h-10.819c-.453,0-.755.352-.755.755v16.053c0,.403.302.755.755.755Z" fill="#d9d9d9" stroke-width="0"/><path d="M361.282,83.994v-2.365c0-.252-.201-.453-.453-.453h-8.202c-.252,0-.453.201-.453.453v2.365h9.108Z" fill="#595a5a" stroke-width="0"/><path d="M361.282,83.994h-9.108v10.165c0,.252.201.453.453.453h8.202c.252,0,.453-.201.453-.453v-10.165Z" fill="#6a6a6a" stroke-width="0"/><path d="M356.703,87.969c.151,0,.302-.101.302-.252v-2.164c0-.151-.151-.252-.302-.252s-.252.101-.252.252v2.164c0,.151.101.252.252.252M357.709,91.693c0-.554-.453-.956-1.006-.956-.503,0-.956.403-.956.956s.453.956.956.956c.554,0,1.006-.403,1.006-.956ZM358.263,91.693c0-.855-.705-1.51-1.56-1.51-.805,0-1.51.654-1.51,1.51s.705,1.51,1.51,1.51c.855,0,1.56-.654,1.56-1.51Z" fill="#fff" fill-rule="evenodd" stroke-width="0"/><rect x="367.522" y="75.188" width="19.625" height="26.067" rx="1.359" ry="1.359" fill="#595a5a" stroke-width="0"/><path d="M369.485,82.937v10.568c0,.554.252,1.107.704,1.56l4.227,4.026c.403.403.956.604,1.51.604h7.095c1.208,0,2.164-.956,2.164-2.164v-18.619c0-1.208-.956-2.164-2.164-2.164h-7.095c-.554,0-1.107.201-1.51.604l-4.227,4.026c-.453.453-.704,1.006-.704,1.56Z" fill="#292929" stroke-width="0"/><path d="M377.486,95.065h4.328v-1.308h-4.328v1.308ZM372.856,88.875h4.328v-1.308h-4.328v1.308ZM377.486,82.686h4.328v-1.258h-4.328v1.258Z" fill="#b3b3b3" fill-rule="evenodd" stroke-width="0"/><rect x="329.831" y="102.064" width="60.722" height="4.424" fill="#595a5a" stroke-width="0"/><rect x="282.743" y="99.852" width="4.424" height="6.635" fill="#595a5a" stroke-width="0"/><rect x="215.104" y="102.064" width="45.677" height="4.424" fill="#595a5a" stroke-width="0"/><path d="M305.272,102.064c-.926,0-1.8-.103-2.675-.309l-6.275-1.543c-.874-.257-1.749-.36-2.675-.36h-6.687c-.257,0-.463.206-.463.463v5.761c0,.206.206.411.463.411h42.846v-4.424h-24.535Z" fill="#6a6a6a" stroke-width="0"/><path d="M290.047,105.819h37.343v-3.086h-22.118c-.977,0-1.903-.103-2.829-.36l-6.275-1.543c-.823-.206-1.646-.309-2.52-.309h-3.601v5.298" fill="#d66927" fill-rule="evenodd" stroke-width="0"/><path d="M276.313,102.064h-15.585v4.424h22.272c.206,0,.412-.206.412-.411v-5.761c0-.257-.206-.463-.412-.463h-3.086c-.257,0-.463.103-.669.257l-2.263,1.749c-.206.154-.463.206-.669.206Z" fill="#6a6a6a" stroke-width="0"/><rect x="211.812" y="103.504" width="6.635" height="2.983" fill="#595a5a" stroke-width="0"/><path d="M202.18,83.452h4.126v-4.982h-4.126l-1.912,2.466,1.912,2.516ZM204.395,99.052l1.912-2.516-1.912-2.516h-4.126v5.032h4.126Z" fill="#333" fill-rule="evenodd" stroke-width="0"/><path d="M203.338,96.536c0-.705-.604-1.308-1.359-1.308s-1.359.604-1.359,1.308c0,.755.604,1.359,1.359,1.359s1.359-.604,1.359-1.359M203.086,96.737c-.101.604-.654,1.006-1.258.906-.503-.05-.855-.403-.956-.855l-.05-.05.956-.554v1.258l1.258-.755.05.05ZM200.872,96.385c.05-.604.654-1.006,1.258-.956.453.101.855.453.906.906l-.956.554v-1.258l-1.258.755h.05ZM204.294,80.936c0-.705-.604-1.308-1.359-1.308s-1.359.604-1.359,1.308c0,.755.604,1.359,1.359,1.359s1.359-.604,1.359-1.359ZM204.042,81.137c-.05.604-.654,1.006-1.258.906-.453-.05-.855-.403-.906-.855l-.05-.05.956-.554v1.258l1.258-.755v.05ZM201.828,80.785c.101-.604.654-1.006,1.258-.906.503.05.855.403.956.855l-.956.554v-1.258l-1.258.755Z" fill="#fff" fill-rule="evenodd" stroke-width="0"/><path d="M205.671,82.042h-.266v-1.689c-.063.061-.147.122-.251.183s-.196.106-.279.137v-.256c.148-.07.278-.154.39-.254.11-.099.189-.195.235-.288h.171v2.168Z" fill="#fff" stroke-width="0"/><path d="M205.058,97.388v.255h-1.427c-.003-.063.008-.125.03-.185.036-.097.095-.192.175-.287.08-.094.195-.203.347-.327.234-.192.394-.345.476-.457.083-.112.124-.219.124-.318,0-.105-.037-.194-.112-.267s-.174-.108-.294-.108c-.128,0-.23.039-.307.115s-.115.183-.116.318l-.272-.028c.019-.203.089-.358.211-.465.121-.106.285-.159.49-.159.207,0,.371.057.492.172.12.115.181.258.181.428,0,.086-.018.171-.053.255-.035.083-.094.171-.176.264-.082.092-.219.219-.409.38-.159.133-.262.224-.307.271s-.082.096-.111.144h1.059Z" fill="#fff" stroke-width="0"/><rect x="15.205" y="37.669" width="180.967" height="33.173" fill="#e6e6e6" stroke-width="0"/><polyline points="202.18 48.567 206.307 48.567 206.307 43.585 202.18 43.585 200.268 46.051 202.18 48.567" fill="#333" fill-rule="evenodd" stroke-width="0"/><polygon points="204.395 64.166 206.307 61.65 204.395 59.185 200.268 59.185 200.268 64.166 204.395 64.166" fill="#333" fill-rule="evenodd" stroke-width="0"/><path d="M205.637,47.407h-.569l-.227-.589h-1.036l-.214.589h-.555l1.01-2.592h.553l1.038,2.592ZM204.673,46.381l-.357-.962-.35.962h.707Z" fill="#fff" stroke-width="0"/><path d="M201.39,60.418h1.035c.205,0,.358.009.459.026.101.017.19.053.271.106.079.055.146.127.198.217.054.09.08.191.08.303,0,.122-.033.233-.099.334-.064.102-.153.178-.266.229.158.046.279.124.364.235.085.11.127.24.127.391,0,.117-.027.232-.082.344s-.13.2-.225.267-.212.107-.351.123c-.087.01-.298.016-.631.018h-.882v-2.592ZM201.913,60.85v.6h.343c.204,0,.331-.003.381-.009.089-.011.159-.042.211-.093.051-.052.077-.119.077-.203,0-.08-.022-.145-.066-.195-.044-.05-.11-.08-.197-.091-.052-.006-.201-.009-.447-.009h-.301ZM201.913,61.88v.693h.484c.188,0,.309-.006.359-.016.077-.015.141-.049.189-.104s.073-.128.073-.221c0-.077-.019-.144-.057-.197-.037-.055-.092-.094-.163-.119-.071-.024-.226-.037-.464-.037h-.423Z" fill="#fff" stroke-width="0"/><rect x="209.857" y="37.669" width="180.967" height="33.173" fill="#e6e6e6" stroke-width="0"/><rect x="114.547" y="37.873" width="81.218" height="26.993" fill="#999" stroke-width="0"/><rect x="155.156" y="37.873" width="29.621" height="20.902" fill="#2762ac" stroke-width="0"/><rect x="114.503" y="37.873" width="40.415" height="20.902" fill="#f5f6f6" stroke-width="0"/><rect x="15.518" y="37.897" width="95.46" height="30.579" fill="#999" stroke-width="0"/><path d="M87.914,51.958h15.745c.39,0,.634-.244.634-.634v-7.361c0-.39-.244-.682-.634-.682h-15.745c-.341,0-.634.292-.634.682v7.361c0,.39.292.634.634.634Z" fill="#f5f6f6" fill-rule="evenodd" stroke-width="0"/><rect x="67.879" y="42.672" width="12.869" height="8.336" rx=".634" ry=".634" fill="#f5f6f6" stroke-width="0"/><rect x="23.636" y="39.218" width="17.11" height="12.041" rx=".634" ry=".634" fill="#f5f6f6" stroke-width="0"/><rect x="44.243" y="39.218" width="17.11" height="12.041" rx=".634" ry=".634" fill="#f5f6f6" stroke-width="0"/><rect x="16.336" y="51.884" width="64.176" height="14.858" fill="#2762ac" stroke-width="0"/><rect x="23.477" y="55.813" width="12.566" height="8.149" fill="#231f20" stroke="#2762ac" stroke-miterlimit="10" stroke-width=".393"/><rect x="36.49" y="55.813" width="12.566" height="8.149" fill="#231f20" stroke="#2762ac" stroke-miterlimit="10" stroke-width=".393"/><rect x="49.503" y="55.813" width="12.566" height="8.149" fill="#231f20" stroke="#2762ac" stroke-miterlimit="10" stroke-width=".393"/><rect x="62.516" y="55.813" width="12.566" height="8.149" fill="#231f20" stroke="#2762ac" stroke-miterlimit="10" stroke-width=".393"/><circle cx="27.13" cy="53.723" r=".854" fill="#262626" stroke-width="0"/><circle cx="32.572" cy="53.723" r=".854" fill="#262626" stroke-width="0"/><circle cx="40.103" cy="53.723" r=".854" fill="#262626" stroke-width="0"/><circle cx="45.545" cy="53.723" r=".854" fill="#262626" stroke-width="0"/><circle cx="53.075" cy="53.723" r=".854" fill="#262626" stroke-width="0"/><circle cx="58.517" cy="53.723" r=".854" fill="#262626" stroke-width="0"/><circle cx="66.048" cy="53.723" r=".854" fill="#262626" stroke-width="0"/><circle cx="71.49" cy="53.723" r=".854" fill="#262626" stroke-width="0"/><polygon points="26.601 46.935 26.601 49.518 37.716 49.518 37.716 46.935 37.472 46.935 37.472 45.18 37.716 45.18 37.716 42.645 35.279 42.645 35.279 41.036 34.206 41.036 34.206 40.256 30.063 40.256 30.063 41.036 29.039 41.036 29.039 42.645 26.601 42.645 26.601 45.18 26.796 45.18 26.796 46.935 26.601 46.935" fill="#262626" stroke-width="0"/><polygon points="47.173 46.935 47.173 49.518 58.287 49.518 58.287 46.935 58.044 46.935 58.044 45.18 58.287 45.18 58.287 42.645 55.85 42.645 55.85 41.036 54.778 41.036 54.778 40.256 50.634 40.256 50.634 41.036 49.61 41.036 49.61 42.645 47.173 42.645 47.173 45.18 47.368 45.18 47.368 46.935 47.173 46.935" fill="#262626" stroke-width="0"/><path d="M71.354,48.781h6.045c.829,0,1.511-.682,1.511-1.511v-.487c0-.829-.682-1.462-1.511-1.462h-6.045c-.829,0-1.462.634-1.462,1.462v.487c0,.829.634,1.511,1.462,1.511Z" fill="#1a1a1a" fill-rule="evenodd" stroke-width="0"/><path d="M101.313,45.153h-10.822c-.146,0-.292.098-.292.244v4.144c0,.146.146.244.292.244h10.822c.146,0,.292-.097.292-.244v-4.144c0-.146-.146-.244-.292-.244Z" fill="#262626" stroke-width="0"/><polygon points="19.289 60.043 19.909 60.043 19.909 61.997 20.188 61.997 20.188 61.252 20.746 61.252 20.746 61.779 21.8 61.779 21.8 60.384 20.746 60.384 20.746 60.88 20.188 60.88 20.188 58.896 20.746 58.896 20.746 59.361 21.8 59.361 21.8 57.996 20.746 57.996 20.746 58.524 20.188 58.524 20.188 57.841 19.909 57.841 19.909 59.671 19.289 59.671 19.258 59.113 18.172 59.113 18.172 60.57 19.258 60.57 19.289 60.043" fill="#fff" fill-rule="evenodd" stroke-width="0"/><path d="M107.73,45.492v3.266l-.731-.731v-.634c.195-.097.244-.292.195-.487-.098-.146-.292-.244-.487-.195-.146.097-.244.292-.195.487.049.098.146.146.195.195v.78l1.024.975v.341c-.292.049-.487.341-.39.634.049.292.341.487.634.39.292-.049.487-.341.39-.634-.049-.195-.195-.341-.39-.39v-1.267l.975-.975v-.634h.244v-.731h-.731v.731h.244v.487l-.731.731v-2.34h.244l-.39-.731-.341.731h.244Z" fill="#f2f2f2" fill-rule="evenodd" stroke-width="0"/><path d="M21.243,45.195h-2.389c-.195-.536-.731-.78-1.267-.634-.097.049-.195.097-.292.195v.146h.536l.341.634-.341.585h-.536v.146c.439.341,1.024.292,1.365-.146.097-.049.146-.195.195-.292h2.389c.146.487.682.682,1.121.536.097-.049.195-.097.244-.146v-.146h-.487l-.292-.536.292-.585h.487v-.097c-.39-.341-.926-.292-1.219.097-.097.049-.146.146-.146.244Z" fill="#f2f2f2" fill-rule="evenodd" stroke-width="0"/><path d="M119.934,54.48h9.36c.097,0,.195-.097.195-.195v-9.36c0-.097-.097-.244-.195-.244h-9.36c-.146,0-.244.146-.244.244v9.36c0,.097.098.195.244.195" fill="#262626" fill-rule="evenodd" stroke-width="0"/><path d="M133.029,54.48h9.36c.097,0,.195-.097.195-.195v-9.36c0-.097-.097-.244-.195-.244h-9.36c-.146,0-.244.146-.244.244v9.36c0,.097.098.195.244.195" fill="#262626" fill-rule="evenodd" stroke-width="0"/><path d="M143.647,54.48h9.36c.097,0,.195-.097.195-.195v-9.36c0-.097-.097-.244-.195-.244h-9.36c-.146,0-.244.146-.244.244v9.36c0,.097.098.195.244.195" fill="#262626" fill-rule="evenodd" stroke-width="0"/><rect x="156.973" y="44.532" width="12.566" height="8.149" fill="#638c1c" stroke="#2762ac" stroke-miterlimit="10" stroke-width=".393"/><rect x="169.98" y="44.532" width="12.566" height="8.149" fill="#638c1c" stroke="#2762ac" stroke-miterlimit="10" stroke-width=".393"/><circle cx="122.503" cy="40.934" r="1.106" fill="#262626" stroke-width="0"/><circle cx="126.6" cy="40.934" r="1.106" fill="#262626" stroke-width="0"/><circle cx="135.964" cy="40.934" r="1.106" fill="#262626" stroke-width="0"/><circle cx="140.06" cy="40.934" r="1.106" fill="#262626" stroke-width="0"/><circle cx="145.766" cy="40.934" r="1.106" fill="#262626" stroke-width="0"/><circle cx="149.863" cy="40.934" r="1.106" fill="#262626" stroke-width="0"/><circle cx="160.495" cy="40.934" r="1.106" fill="#262626" stroke-width="0"/><circle cx="166.786" cy="40.934" r="1.106" fill="#262626" stroke-width="0"/><circle cx="173.322" cy="40.934" r="1.106" fill="#262626" stroke-width="0"/><circle cx="179.613" cy="40.934" r="1.106" fill="#262626" stroke-width="0"/><path d="M107.125,64.654v3.722H20.138v1.349h86.988v1.117h88.657v-4.42h-80.168v-2.233h-8.06c-.238,0-.429.186-.429.465Z" fill="#4d4e4e" stroke-width="0"/><path d="M112.228,66.422h-19.172c-.191,0-.429.093-.572.233l-2.671,2.605c-.191.14-.382.233-.62.233H24.668c-.191,0-.429-.093-.572-.233l-2.671-2.605c-.191-.14-.382-.233-.62-.233h-4.531v1.396h-3.386v3.024h99.34v-4.42Z" fill="#4d4e4e" stroke-width="0"/><path d="M126.059,64.189h-13.83v6.653h28.853v-4.42h-3.052c-.572,0-1.145-.093-1.717-.186l-8.584-1.861c-.525-.093-1.097-.186-1.669-.186Z" fill="#6a6a6a" stroke-width="0"/><path d="M138.172,67.12h-3.1c-.906,0-1.812-.093-2.718-.279l-5.961-1.349c-.763-.186-1.574-.279-2.385-.279h-3.481v4.606h17.646v-2.698" fill="#d66927" fill-rule="evenodd" stroke-width="0"/><rect x="66.939" y="45.567" width=".159" height="1.591" fill="#fff" stroke-width="0"/><path d="M66.461,46.362c0,.345-.292.637-.637.637s-.637-.292-.637-.637.292-.637.637-.637.637.292.637.637Z" fill="none" stroke="#fff" stroke-miterlimit="10" stroke-width=".168"/><rect x="64.552" y="45.567" width=".186" height="1.591" fill="#fff" stroke-width="0"/><path d="M64.074,46.362c0,.345-.265.637-.637.637-.345,0-.637-.292-.637-.637s.292-.637.637-.637c.371,0,.637.292.637.637Z" fill="none" stroke="#fff" stroke-miterlimit="10" stroke-width=".168"/><rect x="62.164" y="45.567" width=".186" height="1.591" fill="#fff" stroke-width="0"/><rect x="309.61" y="37.873" width="81.218" height="26.993" fill="#999" stroke-width="0"/><rect x="350.219" y="37.873" width="29.621" height="20.902" fill="#2762ac" stroke-width="0"/><rect x="309.566" y="37.873" width="40.415" height="20.902" fill="#f5f6f6" stroke-width="0"/><rect x="210.581" y="37.897" width="95.46" height="30.579" fill="#999" stroke-width="0"/><path d="M282.977,51.958h15.745c.39,0,.634-.244.634-.634v-7.361c0-.39-.244-.682-.634-.682h-15.745c-.341,0-.634.292-.634.682v7.361c0,.39.292.634.634.634Z" fill="#f5f6f6" fill-rule="evenodd" stroke-width="0"/><rect x="262.942" y="42.672" width="12.869" height="8.336" rx=".634" ry=".634" fill="#f5f6f6" stroke-width="0"/><rect x="218.699" y="39.218" width="17.11" height="12.041" rx=".634" ry=".634" fill="#f5f6f6" stroke-width="0"/><rect x="239.306" y="39.218" width="17.11" height="12.041" rx=".634" ry=".634" fill="#f5f6f6" stroke-width="0"/><rect x="211.399" y="51.884" width="64.176" height="14.858" fill="#2762ac" stroke-width="0"/><rect x="218.54" y="55.813" width="12.566" height="8.149" fill="#231f20" stroke="#2762ac" stroke-miterlimit="10" stroke-width=".393"/><rect x="231.553" y="55.813" width="12.566" height="8.149" fill="#231f20" stroke="#2762ac" stroke-miterlimit="10" stroke-width=".393"/><rect x="244.566" y="55.813" width="12.566" height="8.149" fill="#231f20" stroke="#2762ac" stroke-miterlimit="10" stroke-width=".393"/><rect x="257.58" y="55.813" width="12.566" height="8.149" fill="#231f20" stroke="#2762ac" stroke-miterlimit="10" stroke-width=".393"/><circle cx="227.636" cy="53.723" r=".854" fill="#262626" stroke-width="0"/><circle cx="235.166" cy="53.723" r=".854" fill="#262626" stroke-width="0"/><circle cx="240.608" cy="53.723" r=".854" fill="#262626" stroke-width="0"/><circle cx="248.139" cy="53.723" r=".854" fill="#262626" stroke-width="0"/><circle cx="253.581" cy="53.723" r=".854" fill="#262626" stroke-width="0"/><circle cx="261.111" cy="53.723" r=".854" fill="#262626" stroke-width="0"/><circle cx="266.553" cy="53.723" r=".854" fill="#262626" stroke-width="0"/><polygon points="221.665 46.935 221.665 49.518 232.779 49.518 232.779 46.935 232.535 46.935 232.535 45.18 232.779 45.18 232.779 42.645 230.342 42.645 230.342 41.036 229.269 41.036 229.269 40.256 225.126 40.256 225.126 41.036 224.102 41.036 224.102 42.645 221.665 42.645 221.665 45.18 221.86 45.18 221.86 46.935 221.665 46.935" fill="#262626" stroke-width="0"/><polygon points="242.236 46.935 242.236 49.518 253.351 49.518 253.351 46.935 253.107 46.935 253.107 45.18 253.351 45.18 253.351 42.645 250.913 42.645 250.913 41.036 249.841 41.036 249.841 40.256 245.697 40.256 245.697 41.036 244.674 41.036 244.674 42.645 242.236 42.645 242.236 45.18 242.431 45.18 242.431 46.935 242.236 46.935" fill="#262626" stroke-width="0"/><path d="M266.417,48.781h6.045c.829,0,1.511-.682,1.511-1.511v-.487c0-.829-.682-1.462-1.511-1.462h-6.045c-.829,0-1.462.634-1.462,1.462v.487c0,.829.634,1.511,1.462,1.511Z" fill="#1a1a1a" fill-rule="evenodd" stroke-width="0"/><path d="M296.376,45.153h-10.822c-.146,0-.292.098-.292.244v4.144c0,.146.146.244.292.244h10.822c.146,0,.292-.097.292-.244v-4.144c0-.146-.146-.244-.292-.244Z" fill="#262626" stroke-width="0"/><path d="M302.793,45.492v3.266l-.731-.731v-.634c.195-.097.244-.292.195-.487-.098-.146-.292-.244-.487-.195-.146.097-.244.292-.195.487.049.098.146.146.195.195v.78l1.024.975v.341c-.292.049-.487.341-.39.634.049.292.341.487.634.39.292-.049.487-.341.39-.634-.049-.195-.195-.341-.39-.39v-1.267l.975-.975v-.634h.244v-.731h-.731v.731h.244v.487l-.731.731v-2.34h.244l-.39-.731-.341.731h.244Z" fill="#f2f2f2" fill-rule="evenodd" stroke-width="0"/><path d="M314.997,54.48h9.36c.097,0,.195-.097.195-.195v-9.36c0-.097-.097-.244-.195-.244h-9.36c-.146,0-.244.146-.244.244v9.36c0,.097.098.195.244.195" fill="#262626" fill-rule="evenodd" stroke-width="0"/><path d="M328.092,54.48h9.36c.097,0,.195-.097.195-.195v-9.36c0-.097-.097-.244-.195-.244h-9.36c-.146,0-.244.146-.244.244v9.36c0,.097.098.195.244.195" fill="#262626" fill-rule="evenodd" stroke-width="0"/><path d="M338.71,54.48h9.36c.097,0,.195-.097.195-.195v-9.36c0-.097-.097-.244-.195-.244h-9.36c-.146,0-.244.146-.244.244v9.36c0,.097.098.195.244.195" fill="#262626" fill-rule="evenodd" stroke-width="0"/><rect x="352.036" y="44.532" width="12.566" height="8.149" fill="#638c1c" stroke="#2762ac" stroke-miterlimit="10" stroke-width=".393"/><rect x="365.043" y="44.532" width="12.566" height="8.149" fill="#638c1c" stroke="#2762ac" stroke-miterlimit="10" stroke-width=".393"/><circle cx="317.566" cy="40.934" r="1.106" fill="#262626" stroke-width="0"/><circle cx="321.663" cy="40.934" r="1.106" fill="#262626" stroke-width="0"/><circle cx="331.027" cy="40.934" r="1.106" fill="#262626" stroke-width="0"/><circle cx="335.124" cy="40.934" r="1.106" fill="#262626" stroke-width="0"/><circle cx="340.83" cy="40.934" r="1.106" fill="#262626" stroke-width="0"/><circle cx="344.926" cy="40.934" r="1.106" fill="#262626" stroke-width="0"/><circle cx="355.558" cy="40.934" r="1.106" fill="#262626" stroke-width="0"/><circle cx="361.85" cy="40.934" r="1.106" fill="#262626" stroke-width="0"/><circle cx="368.385" cy="40.934" r="1.106" fill="#262626" stroke-width="0"/><circle cx="374.676" cy="40.934" r="1.106" fill="#262626" stroke-width="0"/><path d="M302.189,64.654v3.722h-86.988v1.349h86.988v1.117h88.657v-4.42h-80.168v-2.233h-8.06c-.238,0-.429.186-.429.465Z" fill="#4d4e4e" stroke-width="0"/><path d="M307.292,66.422h-19.172c-.191,0-.429.093-.572.233l-2.671,2.605c-.191.14-.382.233-.62.233h-64.525c-.191,0-.429-.093-.572-.233l-2.671-2.605c-.191-.14-.382-.233-.62-.233h-4.531v1.396h-3.386v3.024h99.34v-4.42Z" fill="#4d4e4e" stroke-width="0"/><path d="M321.122,64.189h-13.83v6.653h28.853v-4.42h-3.052c-.572,0-1.145-.093-1.717-.186l-8.584-1.861c-.525-.093-1.097-.186-1.669-.186Z" fill="#6a6a6a" stroke-width="0"/><path d="M333.235,67.12h-3.1c-.906,0-1.812-.093-2.718-.279l-5.961-1.349c-.763-.186-1.574-.279-2.385-.279h-3.481v4.606h17.646v-2.698" fill="#d66927" fill-rule="evenodd" stroke-width="0"/><rect x="262.002" y="45.567" width=".159" height="1.591" fill="#fff" stroke-width="0"/><path d="M261.524,46.362c0,.345-.292.637-.637.637s-.637-.292-.637-.637.292-.637.637-.637.637.292.637.637Z" fill="none" stroke="#fff" stroke-miterlimit="10" stroke-width=".168"/><rect x="259.615" y="45.567" width=".186" height="1.591" fill="#fff" stroke-width="0"/><path d="M259.137,46.362c0,.345-.265.637-.637.637-.345,0-.637-.292-.637-.637s.292-.637.637-.637c.371,0,.637.292.637.637Z" fill="none" stroke="#fff" stroke-miterlimit="10" stroke-width=".168"/><rect x="257.228" y="45.567" width=".186" height="1.591" fill="#fff" stroke-width="0"/><path d="M215.645,45.195h-2.389c-.195-.536-.731-.78-1.267-.634-.097.049-.195.097-.292.195v.146h.536l.341.634-.341.585h-.536v.146c.439.341,1.024.292,1.365-.146.097-.049.146-.195.195-.292h2.389c.146.487.682.682,1.121.536.097-.049.195-.097.244-.146v-.146h-.487l-.292-.536.292-.585h.487v-.097c-.39-.341-.926-.292-1.219.097-.097.049-.146.146-.146.244Z" fill="#f2f2f2" fill-rule="evenodd" stroke-width="0"/><polygon points="214.293 60.043 214.913 60.043 214.913 61.997 215.192 61.997 215.192 61.252 215.75 61.252 215.75 61.779 216.805 61.779 216.805 60.384 215.75 60.384 215.75 60.88 215.192 60.88 215.192 58.896 215.75 58.896 215.75 59.361 216.805 59.361 216.805 57.996 215.75 57.996 215.75 58.524 215.192 58.524 215.192 57.841 214.913 57.841 214.913 59.671 214.293 59.671 214.262 59.113 213.177 59.113 213.177 60.57 214.262 60.57 214.293 60.043" fill="#fff" fill-rule="evenodd" stroke-width="0"/><path d="M163.332,48.834V6.227s194.879-.809,194.879,0v42.607" fill="none" stroke="#638c1c" stroke-linecap="round" stroke-linejoin="round" stroke-width="2"/><path d="M176.179,48.834V13.393s193.25-1.629,194.879,0v35.441" fill="none" stroke="#638c1c" stroke-linecap="round" stroke-linejoin="round" stroke-width="2"/><path d="M262.754,16.814h22.478V2.311c0-.176-.145-.311-.324-.311h-21.832c-.178,0-.321.135-.321.311v14.503Z" fill="#638c1c" stroke-width="0"/><path d="M273.576,6.829l-1.544.38-.404-1.594,2.542-.759h1.329v8.918h-1.923v-6.945Z" fill="#fff" stroke-width="0"/><path d="M159.75,49.795c.117.113.286.17.506.17.158,0,.294-.039.407-.118s.184-.162.209-.25h.688c-.11.341-.278.585-.506.731s-.502.22-.825.22c-.224,0-.425-.035-.604-.107-.18-.071-.332-.173-.457-.305-.124-.132-.221-.29-.288-.474-.068-.183-.103-.385-.103-.604,0-.213.035-.411.104-.594.07-.184.169-.342.297-.476.129-.134.282-.239.46-.316s.375-.116.591-.116c.242,0,.453.047.633.141s.327.219.442.377c.116.157.199.337.25.539.052.201.07.412.056.632h-2.052c.011.254.075.437.192.551ZM160.632,48.299c-.094-.103-.235-.154-.426-.154-.125,0-.229.021-.312.063-.082.042-.148.095-.197.156-.05.062-.085.129-.104.198-.021.069-.032.132-.036.188h1.271c-.037-.198-.102-.349-.195-.451Z" fill="#fff" stroke-width="0"/><path d="M162.002,47.592c.075-.255.177-.459.305-.613.129-.154.278-.264.448-.33.171-.065.352-.099.542-.099.194,0,.377.033.547.099.171.066.321.176.451.33.131.154.233.358.309.613s.112.569.112.943c0,.385-.037.707-.112.965-.075.259-.178.465-.309.619-.13.154-.28.264-.451.33-.17.065-.353.099-.547.099-.19,0-.371-.033-.542-.099-.17-.066-.319-.176-.448-.33-.128-.154-.229-.36-.305-.619-.075-.258-.113-.58-.113-.965,0-.374.038-.688.113-.943ZM162.681,48.934c.008.156.03.307.069.451.038.145.1.269.184.371.085.103.206.154.363.154.161,0,.285-.052.371-.154s.148-.227.188-.371c.038-.145.062-.295.068-.451.008-.155.011-.288.011-.398,0-.066,0-.146-.002-.239-.002-.094-.01-.189-.022-.289-.013-.099-.031-.197-.055-.294-.024-.098-.06-.185-.107-.262-.048-.076-.108-.139-.182-.187s-.163-.071-.27-.071-.195.023-.267.071-.13.11-.176.187c-.046.077-.082.164-.107.262-.025.097-.044.195-.055.294-.012.1-.018.195-.02.289s-.003.173-.003.239c0,.11.004.243.011.398Z" fill="#fff" stroke-width="0"/><path d="M165.095,48.508c.012-.184.058-.336.138-.457.081-.121.184-.218.309-.291.124-.073.265-.126.42-.157.156-.031.312-.047.471-.047.143,0,.288.011.435.03.146.021.28.06.401.118.121.06.22.141.297.245s.115.243.115.415v1.479c0,.129.008.252.022.369s.04.205.077.264h-.792c-.015-.044-.027-.089-.036-.135s-.016-.093-.02-.141c-.124.129-.271.219-.439.27-.169.052-.341.077-.518.077-.135,0-.262-.017-.379-.049-.117-.033-.22-.085-.309-.154-.088-.069-.156-.158-.206-.265-.049-.105-.074-.232-.074-.379,0-.161.028-.294.086-.398.057-.104.13-.188.22-.251.09-.062.192-.108.308-.14s.232-.057.35-.074c.117-.019.232-.033.347-.044.113-.012.214-.028.302-.05.089-.022.158-.054.209-.097.052-.042.075-.104.072-.184,0-.085-.014-.151-.042-.201-.027-.05-.063-.088-.109-.115s-.1-.046-.16-.055c-.061-.01-.125-.015-.195-.015-.153,0-.274.033-.362.1-.088.065-.14.176-.154.33h-.781ZM166.9,49.085c-.033.029-.074.053-.124.069-.05.016-.103.029-.159.041-.058.011-.117.02-.179.027-.062.007-.125.017-.188.027-.059.011-.116.025-.173.044-.058.019-.106.043-.148.074-.043.031-.076.07-.103.118-.025.048-.038.108-.038.182,0,.069.013.129.038.176.026.048.061.086.104.113s.096.047.154.058.119.017.182.017c.154,0,.273-.025.357-.077s.146-.112.188-.185c.04-.071.064-.144.074-.217.009-.073.014-.132.014-.176v-.292Z" fill="#fff" stroke-width="0"/><path d="M172.556,49.795c.117.113.286.17.506.17.158,0,.294-.039.407-.118s.184-.162.209-.25h.688c-.11.341-.278.585-.506.731s-.502.22-.825.22c-.224,0-.425-.035-.604-.107-.18-.071-.332-.173-.457-.305-.124-.132-.221-.29-.288-.474-.068-.183-.103-.385-.103-.604,0-.213.035-.411.104-.594.07-.184.169-.342.297-.476.129-.134.282-.239.46-.316s.375-.116.591-.116c.242,0,.453.047.633.141s.327.219.442.377c.116.157.199.337.25.539.052.201.07.412.056.632h-2.052c.011.254.075.437.192.551ZM173.439,48.299c-.094-.103-.235-.154-.426-.154-.125,0-.229.021-.312.063-.082.042-.148.095-.197.156-.05.062-.085.129-.104.198-.021.069-.032.132-.036.188h1.271c-.037-.198-.102-.349-.195-.451Z" fill="#fff" stroke-width="0"/><path d="M174.809,47.592c.075-.255.177-.459.305-.613.129-.154.278-.264.448-.33.171-.065.352-.099.542-.099.194,0,.377.033.547.099.171.066.321.176.451.33.131.154.233.358.309.613s.112.569.112.943c0,.385-.037.707-.112.965-.075.259-.178.465-.309.619-.13.154-.28.264-.451.33-.17.065-.353.099-.547.099-.19,0-.371-.033-.542-.099-.17-.066-.319-.176-.448-.33-.128-.154-.229-.36-.305-.619-.075-.258-.113-.58-.113-.965,0-.374.038-.688.113-.943ZM175.488,48.934c.008.156.03.307.069.451.038.145.1.269.184.371.085.103.206.154.363.154.161,0,.285-.052.371-.154s.148-.227.188-.371c.038-.145.062-.295.068-.451.008-.155.011-.288.011-.398,0-.066,0-.146-.002-.239-.002-.094-.01-.189-.022-.289-.013-.099-.031-.197-.055-.294-.024-.098-.06-.185-.107-.262-.048-.076-.108-.139-.182-.187s-.163-.071-.27-.071-.195.023-.267.071-.13.11-.176.187c-.046.077-.082.164-.107.262-.025.097-.044.195-.055.294-.012.1-.018.195-.02.289s-.003.173-.003.239c0,.11.004.243.011.398Z" fill="#fff" stroke-width="0"/><path d="M178.716,46.55v1.43h.011c.096-.146.225-.254.388-.321.163-.068.333-.103.509-.103.144,0,.284.03.424.089.139.059.265.148.377.269.111.121.202.276.271.465.07.189.104.414.104.674s-.034.485-.104.674c-.069.189-.16.344-.271.465-.112.121-.238.211-.377.27-.14.059-.28.088-.424.088-.209,0-.396-.033-.561-.099-.165-.066-.29-.178-.374-.336h-.012v.363h-.742v-3.927h.781ZM179.981,48.711c-.025-.11-.065-.207-.121-.291-.055-.085-.123-.151-.206-.201-.082-.05-.183-.074-.3-.074-.113,0-.213.024-.297.074s-.154.116-.209.201c-.055.084-.096.181-.121.291s-.038.226-.038.347c0,.117.013.23.038.341s.066.207.121.292c.055.084.125.151.209.2.084.05.184.074.297.074.117,0,.218-.024.3-.074.083-.049.151-.116.206-.2.056-.085.096-.182.121-.292s.039-.224.039-.341c0-.121-.014-.236-.039-.347Z" fill="#fff" stroke-width="0"/><path d="M354.919,49.795c.117.113.286.17.506.17.158,0,.294-.039.407-.118s.184-.162.209-.25h.688c-.11.341-.278.585-.506.731s-.502.22-.825.22c-.224,0-.425-.035-.604-.107-.18-.071-.332-.173-.457-.305-.124-.132-.221-.29-.288-.474-.068-.183-.103-.385-.103-.604,0-.213.035-.411.104-.594.07-.184.169-.342.297-.476.129-.134.282-.239.46-.316s.375-.116.591-.116c.242,0,.453.047.633.141s.327.219.442.377c.116.157.199.337.25.539.052.201.07.412.056.632h-2.052c.011.254.075.437.192.551ZM355.802,48.299c-.094-.103-.235-.154-.426-.154-.125,0-.229.021-.312.063-.082.042-.148.095-.197.156-.05.062-.085.129-.104.198-.021.069-.032.132-.036.188h1.271c-.037-.198-.102-.349-.195-.451Z" fill="#fff" stroke-width="0"/><path d="M357.172,47.592c.075-.255.177-.459.305-.613.129-.154.278-.264.448-.33.171-.065.352-.099.542-.099.194,0,.377.033.547.099.171.066.321.176.451.33.131.154.233.358.309.613s.112.569.112.943c0,.385-.037.707-.112.965-.075.259-.178.465-.309.619-.13.154-.28.264-.451.33-.17.065-.353.099-.547.099-.19,0-.371-.033-.542-.099-.17-.066-.319-.176-.448-.33-.128-.154-.229-.36-.305-.619-.075-.258-.113-.58-.113-.965,0-.374.038-.688.113-.943ZM357.851,48.934c.008.156.03.307.069.451.038.145.1.269.184.371.085.103.206.154.363.154.161,0,.285-.052.371-.154s.148-.227.188-.371c.038-.145.062-.295.068-.451.008-.155.011-.288.011-.398,0-.066,0-.146-.002-.239-.002-.094-.01-.189-.022-.289-.013-.099-.031-.197-.055-.294-.024-.098-.06-.185-.107-.262-.048-.076-.108-.139-.182-.187s-.163-.071-.27-.071-.195.023-.267.071-.13.11-.176.187c-.046.077-.082.164-.107.262-.025.097-.044.195-.055.294-.012.1-.018.195-.02.289s-.003.173-.003.239c0,.11.004.243.011.398Z" fill="#fff" stroke-width="0"/><path d="M360.265,48.508c.012-.184.058-.336.138-.457.081-.121.184-.218.309-.291.124-.073.265-.126.42-.157.156-.031.312-.047.471-.047.143,0,.288.011.435.03.146.021.28.06.401.118.121.06.22.141.297.245s.115.243.115.415v1.479c0,.129.008.252.022.369s.04.205.077.264h-.792c-.015-.044-.027-.089-.036-.135s-.016-.093-.02-.141c-.124.129-.271.219-.439.27-.169.052-.341.077-.518.077-.135,0-.262-.017-.379-.049-.117-.033-.22-.085-.309-.154-.088-.069-.156-.158-.206-.265-.049-.105-.074-.232-.074-.379,0-.161.028-.294.086-.398.057-.104.13-.188.22-.251.09-.062.192-.108.308-.14s.232-.057.35-.074c.117-.019.232-.033.347-.044.113-.012.214-.028.302-.05.089-.022.158-.054.209-.097.052-.042.075-.104.072-.184,0-.085-.014-.151-.042-.201-.027-.05-.063-.088-.109-.115s-.1-.046-.16-.055c-.061-.01-.125-.015-.195-.015-.153,0-.274.033-.362.1-.088.065-.14.176-.154.33h-.781ZM362.069,49.085c-.033.029-.074.053-.124.069-.05.016-.103.029-.159.041-.058.011-.117.02-.179.027-.062.007-.125.017-.188.027-.059.011-.116.025-.173.044-.058.019-.106.043-.148.074-.043.031-.076.07-.103.118-.025.048-.038.108-.038.182,0,.069.013.129.038.176.026.048.061.086.104.113s.096.047.154.058.119.017.182.017c.154,0,.273-.025.357-.077s.146-.112.188-.185c.04-.071.064-.144.074-.217.009-.073.014-.132.014-.176v-.292Z" fill="#fff" stroke-width="0"/><path d="M367.724,49.795c.117.113.286.17.506.17.158,0,.294-.039.407-.118s.184-.162.209-.25h.688c-.11.341-.278.585-.506.731s-.502.22-.825.22c-.224,0-.425-.035-.604-.107-.18-.071-.332-.173-.457-.305-.124-.132-.221-.29-.288-.474-.068-.183-.103-.385-.103-.604,0-.213.035-.411.104-.594.07-.184.169-.342.297-.476.129-.134.282-.239.46-.316s.375-.116.591-.116c.242,0,.453.047.633.141s.327.219.442.377c.116.157.199.337.25.539.052.201.07.412.056.632h-2.052c.011.254.075.437.192.551ZM368.606,48.299c-.094-.103-.235-.154-.426-.154-.125,0-.229.021-.312.063-.082.042-.148.095-.197.156-.05.062-.085.129-.104.198-.021.069-.032.132-.036.188h1.271c-.037-.198-.102-.349-.195-.451Z" fill="#fff" stroke-width="0"/><path d="M369.977,47.592c.075-.255.177-.459.305-.613.129-.154.278-.264.448-.33.171-.065.352-.099.542-.099.194,0,.377.033.547.099.171.066.321.176.451.33.131.154.233.358.309.613s.112.569.112.943c0,.385-.037.707-.112.965-.075.259-.178.465-.309.619-.13.154-.28.264-.451.33-.17.065-.353.099-.547.099-.19,0-.371-.033-.542-.099-.17-.066-.319-.176-.448-.33-.128-.154-.229-.36-.305-.619-.075-.258-.113-.58-.113-.965,0-.374.038-.688.113-.943ZM370.655,48.934c.008.156.03.307.069.451.038.145.1.269.184.371.085.103.206.154.363.154.161,0,.285-.052.371-.154s.148-.227.188-.371c.038-.145.062-.295.068-.451.008-.155.011-.288.011-.398,0-.066,0-.146-.002-.239-.002-.094-.01-.189-.022-.289-.013-.099-.031-.197-.055-.294-.024-.098-.06-.185-.107-.262-.048-.076-.108-.139-.182-.187s-.163-.071-.27-.071-.195.023-.267.071-.13.11-.176.187c-.046.077-.082.164-.107.262-.025.097-.044.195-.055.294-.012.1-.018.195-.02.289s-.003.173-.003.239c0,.11.004.243.011.398Z" fill="#fff" stroke-width="0"/><path d="M373.884,46.55v1.43h.011c.096-.146.225-.254.388-.321.163-.068.333-.103.509-.103.144,0,.284.03.424.089.139.059.265.148.377.269.111.121.202.276.271.465.07.189.104.414.104.674s-.034.485-.104.674c-.069.189-.16.344-.271.465-.112.121-.238.211-.377.27-.14.059-.28.088-.424.088-.209,0-.396-.033-.561-.099-.165-.066-.29-.178-.374-.336h-.012v.363h-.742v-3.927h.781ZM375.148,48.711c-.025-.11-.065-.207-.121-.291-.055-.085-.123-.151-.206-.201-.082-.05-.183-.074-.3-.074-.113,0-.213.024-.297.074s-.154.116-.209.201c-.055.084-.096.181-.121.291s-.038.226-.038.347c0,.117.013.23.038.341s.066.207.121.292c.055.084.125.151.209.2.084.05.184.074.297.074.117,0,.218-.024.3-.074.083-.049.151-.116.206-.2.056-.085.096-.182.121-.292s.039-.224.039-.341c0-.121-.014-.236-.039-.347Z" fill="#fff" stroke-width="0"/></svg>