<?xml version="1.0" encoding="UTF-8"?><svg id="a" xmlns="http://www.w3.org/2000/svg" width="4.5in" height="2.875in" xmlns:xlink="http://www.w3.org/1999/xlink" viewBox="0 0 324 207"><defs><clipPath id="b"><rect x="9.319" y="5.066" width="306" height="198.066" fill="none"/></clipPath></defs><g clip-path="url(#b)"><polygon points="264.34 155.441 261.784 156.901 259.137 155.441 259.137 152.428 261.784 150.876 264.34 152.428 264.34 155.441" fill="none" stroke="#000" stroke-miterlimit="10" stroke-width=".395"/><polygon points="268.905 150.784 271.461 152.245 271.461 155.258 268.905 156.81 266.258 155.258 266.258 152.245 268.905 150.784" fill="none" stroke="#000" stroke-miterlimit="10" stroke-width=".395"/><polygon points="276.026 150.602 278.582 152.154 278.582 155.167 275.935 156.627 273.378 155.167 273.378 152.154 276.026 150.602" fill="none" stroke="#000" stroke-miterlimit="10" stroke-width=".395"/><polygon points="283.056 150.511 285.703 152.063 285.703 154.984 283.056 156.536 280.499 154.984 280.499 151.971 283.056 150.511" fill="none" stroke="#000" stroke-miterlimit="10" stroke-width=".395"/><polygon points="290.177 150.419 292.824 151.88 292.733 154.893 290.177 156.353 287.529 154.893 287.62 151.88 290.177 150.419" fill="none" stroke="#000" stroke-miterlimit="10" stroke-width=".395"/><polygon points="297.298 150.237 299.854 151.789 299.854 154.801 297.298 156.262 294.65 154.71 294.65 151.697 297.298 150.237" fill="none" stroke="#000" stroke-miterlimit="10" stroke-width=".395"/><polygon points="304.419 150.145 306.975 151.606 306.975 154.619 304.419 156.08 301.771 154.619 301.771 151.606 304.419 150.145" fill="none" stroke="#000" stroke-miterlimit="10" stroke-width=".395"/><polygon points="311.448 149.963 314.096 151.515 314.096 154.528 311.448 155.988 308.892 154.436 308.892 151.515 311.448 149.963" fill="none" stroke="#000" stroke-miterlimit="10" stroke-width=".395"/><polygon points="318.569 149.872 321.217 151.332 321.217 154.345 318.569 155.897 316.013 154.345 316.013 151.332 318.569 149.872" fill="none" stroke="#000" stroke-miterlimit="10" stroke-width=".395"/><polygon points="260.597 149.78 257.95 151.241 255.393 149.78 255.393 146.768 257.95 145.216 260.597 146.768 260.597 149.78" fill="none" stroke="#000" stroke-miterlimit="10" stroke-width=".395"/><polygon points="265.071 145.033 267.718 146.585 267.718 149.598 265.071 151.058 262.514 149.598 262.514 146.585 265.071 145.033" fill="none" stroke="#000" stroke-miterlimit="10" stroke-width=".395"/><polygon points="272.283 144.85 274.839 146.402 274.839 149.415 272.283 150.876 269.635 149.415 269.635 146.402 272.283 144.85" fill="none" stroke="#000" stroke-miterlimit="10" stroke-width=".395"/><polygon points="279.404 144.759 281.96 146.22 281.96 149.232 279.404 150.693 276.756 149.232 276.756 146.22 279.404 144.759" fill="none" stroke="#000" stroke-miterlimit="10" stroke-width=".395"/><polygon points="286.525 144.576 289.172 146.037 289.081 149.05 286.525 150.602 283.877 149.05 283.969 146.037 286.525 144.576" fill="none" stroke="#000" stroke-miterlimit="10" stroke-width=".395"/><polygon points="293.646 144.394 296.293 145.855 296.293 148.867 293.646 150.419 291.09 148.867 291.09 145.855 293.646 144.394" fill="none" stroke="#000" stroke-miterlimit="10" stroke-width=".395"/><polygon points="300.858 144.211 303.414 145.763 303.414 148.685 300.767 150.237 298.211 148.685 298.211 145.672 300.858 144.211" fill="none" stroke="#000" stroke-miterlimit="10" stroke-width=".395"/><polygon points="307.979 144.029 310.535 145.581 310.535 148.593 307.979 150.054 305.332 148.502 305.332 145.581 307.979 144.029" fill="none" stroke="#000" stroke-miterlimit="10" stroke-width=".395"/><polygon points="315.1 143.846 317.656 145.398 317.656 148.411 315.1 149.872 312.453 148.411 312.453 145.398 315.1 143.846" fill="none" stroke="#000" stroke-miterlimit="10" stroke-width=".395"/><path d="M322.679,177.099l-66.099.527c-3.013,0-5.569-2.465-5.569-5.569l.456-63.176c0-3.013,2.465-5.569,5.569-5.569h65.751" fill="none" stroke="#000" stroke-miterlimit="10" stroke-width=".395"/><line x1="316.196" y1="152.61" x2="308.618" y2="153.158" fill="none" stroke="#000" stroke-miterlimit="10" stroke-width=".789"/><path d="M274.931,142.477h-16.25c-1.826,0-3.287-1.461-3.287-3.287v-28.027c0-1.826,1.461-3.287,3.287-3.287h16.25c1.826,0,3.287,1.461,3.287,3.287v28.027c0,1.826-1.552,3.287-3.287,3.287Z" fill="none" stroke="#000" stroke-miterlimit="10" stroke-width=".395"/><polygon points="260.049 174.339 257.493 175.891 254.846 174.339 254.937 171.326 257.493 169.865 260.141 171.326 260.049 174.339" fill="none" stroke="#000" stroke-miterlimit="10" stroke-width=".395"/><polygon points="264.797 169.683 267.444 171.235 267.353 174.156 264.797 175.708 262.241 174.156 262.241 171.143 264.797 169.683" fill="none" stroke="#000" stroke-miterlimit="10" stroke-width=".395"/><polygon points="272.1 169.5 274.748 171.052 274.748 173.973 272.1 175.525 269.544 173.973 269.544 170.961 272.1 169.5" fill="none" stroke="#000" stroke-miterlimit="10" stroke-width=".395"/><polygon points="279.404 169.317 282.051 170.869 282.051 173.791 279.404 175.343 276.848 173.791 276.848 170.869 279.404 169.317" fill="none" stroke="#000" stroke-miterlimit="10" stroke-width=".395"/><polygon points="286.799 169.226 289.355 170.687 289.355 173.699 286.708 175.16 284.151 173.608 284.151 170.687 286.799 169.226" fill="none" stroke="#000" stroke-miterlimit="10" stroke-width=".395"/><polygon points="294.102 169.043 296.659 170.504 296.659 173.517 294.011 174.978 291.455 173.426 291.455 170.504 294.102 169.043" fill="none" stroke="#000" stroke-miterlimit="10" stroke-width=".395"/><polygon points="301.406 168.861 303.962 170.322 303.962 173.334 301.406 174.795 298.758 173.334 298.85 170.322 301.406 168.861" fill="none" stroke="#000" stroke-miterlimit="10" stroke-width=".395"/><polygon points="308.71 168.678 311.266 170.139 311.266 173.152 308.71 174.612 306.153 173.152 306.153 170.139 308.71 168.678" fill="none" stroke="#000" stroke-miterlimit="10" stroke-width=".395"/><polygon points="316.013 168.496 318.569 169.956 318.569 172.969 316.013 174.43 313.457 172.969 313.457 169.956 316.013 168.496" fill="none" stroke="#000" stroke-miterlimit="10" stroke-width=".395"/><polygon points="263.884 167.491 261.236 169.043 258.68 167.491 258.68 164.479 261.328 163.018 263.884 164.57 263.884 167.491" fill="none" stroke="#000" stroke-miterlimit="10" stroke-width=".395"/><polygon points="268.357 162.927 271.005 164.387 271.005 167.4 268.357 168.861 265.801 167.4 265.801 164.387 268.357 162.927" fill="none" stroke="#000" stroke-miterlimit="10" stroke-width=".395"/><polygon points="275.478 162.744 278.126 164.296 278.126 167.309 275.478 168.77 272.922 167.218 272.922 164.205 275.478 162.744" fill="none" stroke="#000" stroke-miterlimit="10" stroke-width=".395"/><polygon points="282.599 162.653 285.156 164.114 285.156 167.126 282.599 168.587 279.952 167.126 279.952 164.114 282.599 162.653" fill="none" stroke="#000" stroke-miterlimit="10" stroke-width=".395"/><polygon points="289.72 162.47 292.277 164.022 292.277 167.035 289.72 168.496 287.073 166.944 287.073 164.022 289.72 162.47" fill="none" stroke="#000" stroke-miterlimit="10" stroke-width=".395"/><polygon points="296.841 162.379 299.397 163.84 299.397 166.852 296.75 168.404 294.194 166.852 294.194 163.84 296.841 162.379" fill="none" stroke="#000" stroke-miterlimit="10" stroke-width=".395"/><polygon points="303.871 162.196 306.518 163.748 306.518 166.761 303.871 168.222 301.315 166.761 301.315 163.748 303.871 162.196" fill="none" stroke="#000" stroke-miterlimit="10" stroke-width=".395"/><polygon points="310.992 162.105 313.639 163.566 313.639 166.578 310.992 168.13 308.436 166.578 308.436 163.566 310.992 162.105" fill="none" stroke="#000" stroke-miterlimit="10" stroke-width=".395"/><polygon points="318.113 161.922 320.669 163.474 320.669 166.487 318.113 167.948 315.465 166.487 315.465 163.474 318.113 161.922" fill="none" stroke="#000" stroke-miterlimit="10" stroke-width=".395"/><polygon points="260.597 162.014 257.95 163.566 255.393 162.014 255.393 159.001 257.95 157.54 260.597 159.001 260.597 162.014" fill="none" stroke="#000" stroke-miterlimit="10" stroke-width=".395"/><polygon points="265.071 157.449 267.718 158.91 267.627 161.922 265.071 163.383 262.423 161.922 262.514 158.91 265.071 157.449" fill="none" stroke="#000" stroke-miterlimit="10" stroke-width=".395"/><polygon points="272.192 157.266 274.748 158.818 274.748 161.831 272.192 163.292 269.544 161.74 269.544 158.727 272.192 157.266" fill="none" stroke="#000" stroke-miterlimit="10" stroke-width=".395"/><polygon points="279.313 157.175 281.869 158.636 281.869 161.649 279.221 163.109 276.665 161.649 276.665 158.636 279.313 157.175" fill="none" stroke="#000" stroke-miterlimit="10" stroke-width=".395"/><polygon points="286.342 156.993 288.99 158.545 288.99 161.557 286.342 163.018 283.786 161.466 283.786 158.545 286.342 156.993" fill="none" stroke="#000" stroke-miterlimit="10" stroke-width=".395"/><polygon points="293.463 156.901 296.111 158.362 296.111 161.375 293.463 162.927 290.907 161.375 290.907 158.362 293.463 156.901" fill="none" stroke="#000" stroke-miterlimit="10" stroke-width=".395"/><polygon points="300.584 156.719 303.141 158.271 303.141 161.283 300.584 162.744 297.937 161.283 297.937 158.271 300.584 156.719" fill="none" stroke="#000" stroke-miterlimit="10" stroke-width=".395"/><polygon points="307.705 156.627 310.262 158.088 310.262 161.101 307.705 162.653 305.058 161.101 305.058 158.088 307.705 156.627" fill="none" stroke="#000" stroke-miterlimit="10" stroke-width=".395"/><polygon points="314.826 156.445 317.383 157.997 317.383 161.01 314.735 162.47 312.179 161.01 312.179 157.997 314.826 156.445" fill="none" stroke="#000" stroke-miterlimit="10" stroke-width=".395"/><polyline points="307.888 154.893 301.132 154.893 287.438 140.559 288.807 109.154 300.493 109.154 302.775 112.441 309.166 112.441" fill="#fff" stroke="#000" stroke-miterlimit="10" stroke-width=".395"/><path d="M295.107,115.362s-3.834,1.917-3.469,18.259,5.66,16.707,5.66,16.707" fill="none" stroke="#000" stroke-miterlimit="10" stroke-width=".395"/><polygon points="300.584 112.441 312.453 112.441 319.117 125.222 322.952 138.551 319.665 153.158 317.2 152.61 307.066 153.067 306.61 127.048 300.584 112.441" fill="#fff"/><path d="M325.417,118.74c-3.195-2.282-7.851-10.408-7.851-10.408l-10.955.274,8.49,12.873s3.469,5.569,3.013,17.985c0,0,.456,13.786-3.652,14.516h7.518" fill="#fff" stroke="#000" stroke-miterlimit="10" stroke-width=".395"/><path d="M289.355,110.067l12.507,11.503s4.839,6.299,3.195,17.711c0,0-.274,12.69-4.108,14.607" fill="none" stroke="#000" stroke-miterlimit="10" stroke-width=".395"/><path d="M302.775,112.441l5.843,8.673s1.187,2.465,1.461,4.839c.456,3.104,3.469,16.433-2.191,28.94" fill="none" stroke="#000" stroke-miterlimit="10" stroke-width=".395"/><path d="M297.754,117.827s-7.212,6.665-1.004,27.388c0,0,1.735,3.834,6.299,6.025" fill="none" stroke="#000" stroke-miterlimit="10" stroke-width=".395"/><ellipse cx="271.37" cy="118.192" rx="2.83" ry="2.739" fill="none" stroke="#000" stroke-miterlimit="10" stroke-width=".395"/><ellipse cx="271.37" cy="132.069" rx="2.83" ry="2.739" fill="none" stroke="#000" stroke-miterlimit="10" stroke-width=".789"/><path d="M192.948,86.057v5.386s1.187,2.648,2.83.274h5.021s1.369,2.008,2.556,0l.091-5.569" fill="#fff" stroke="#000" stroke-miterlimit="10" stroke-width=".395"/><path d="M207.829,79.848v4.565c0,.913-.73,1.643-1.643,1.643h-13.694c-.913,0-1.643-.73-1.643-1.643v-30.127c0-.913.73-1.643,1.643-1.643h13.694c.913,0,1.643.73,1.643,1.643v1.187" fill="#fff" stroke="#000" stroke-miterlimit="10" stroke-width=".395"/><path d="M209.381,76.562c-.548.365-1.187.913-1.552,1.826v1.187c0,.913-.73,1.643-1.643,1.643h-12.051c-.913,0-1.643-.73-1.643-1.643v-23.371c0-.913.73-1.643,1.643-1.643h12.051c.639,0,1.187.365,1.461.913" fill="#fff" stroke="#000" stroke-miterlimit="10" stroke-width=".395"/><path d="M207.19,57.207h-10.042c-1.826,0-3.287,1.461-3.287,3.287v12.781c0,1.826,1.461,3.287,3.287,3.287h10.042c1.826,0,3.287-1.461,3.287-3.287v-12.781c0-1.826-1.461-3.287-3.287-3.287Z" fill="#fff" stroke="#000" stroke-miterlimit="10" stroke-width=".395"/><line x1="192.765" y1="55.29" x2="195.23" y2="57.846" fill="none" stroke="#000" stroke-miterlimit="10" stroke-width=".395"/><path d="M195.504,76.562s-2.282.365-3.104,2.465" fill="#fff" stroke="#000" stroke-miterlimit="10" stroke-width=".395"/><path d="M205.82,58.759h-7.304c-1.826,0-3.287,1.461-3.287,3.287v9.586c0,1.826,1.461,3.287,3.287,3.287h7.304c1.826,0,3.287-1.461,3.287-3.287v-9.586c0-1.826-1.461-3.287-3.287-3.287Z"/><polygon points="199.978 61.224 204.36 61.224 202.169 65.424 199.978 61.224" fill="#fff" stroke="#fff" stroke-linecap="round" stroke-linejoin="round" stroke-width=".789"/><g isolation="isolate"><path d="M197.376,73.388v-4.442h1.667c.339,0,.611.045.816.135s.366.228.481.415c.116.187.175.382.175.586,0,.19-.052.369-.154.536-.104.168-.259.303-.467.406.269.079.475.213.619.403s.217.414.217.673c0,.208-.044.401-.132.58s-.196.316-.325.414c-.13.097-.292.17-.486.22-.195.049-.435.074-.717.074h-1.694ZM197.964,70.813h.961c.261,0,.447-.017.561-.051.149-.044.262-.118.338-.221.075-.103.113-.232.113-.388,0-.147-.035-.277-.105-.389-.071-.112-.172-.189-.304-.23-.131-.041-.356-.062-.676-.062h-.888v1.342ZM197.964,72.864h1.106c.189,0,.323-.007.399-.021.136-.024.249-.064.34-.121s.166-.139.225-.247.088-.233.088-.374c0-.166-.043-.31-.128-.432-.085-.122-.202-.208-.353-.257s-.367-.074-.65-.074h-1.027v1.527Z" fill="#fff"/><path d="M203.372,73.388h-.545v-3.476c-.132.125-.304.25-.517.376-.213.125-.404.219-.574.282v-.527c.305-.144.571-.317.8-.521s.39-.402.485-.594h.351v4.46Z" fill="#fff"/><path d="M206.364,73.388h-.545v-3.476c-.132.125-.304.25-.517.376-.213.125-.404.219-.574.282v-.527c.305-.144.571-.317.8-.521s.39-.402.485-.594h.351v4.46Z" fill="#fff"/></g><line x1="320.76" y1="185.476" x2="1.936" y2="188.783" fill="none" stroke="#000" stroke-miterlimit="10" stroke-width=".395"/><line x1="320.76" y1="99.933" x2="-3" y2="99.796" fill="none" stroke="#000" stroke-miterlimit="10" stroke-width=".395"/><line x1="320.76" y1="190.406" x2=".705" y2="193.658" fill="none" stroke="#000" stroke-miterlimit="10" stroke-width=".395"/><path d="M51.167,179.816l-6.025-.091c-1.826,0-3.287-1.552-3.195-3.378l1.278-71.119c0-1.826,1.552-3.287,3.378-3.195l6.025.091c1.826,0,3.287,1.552,3.195,3.378l-1.278,71.119c-.091,1.826-1.552,3.287-3.378,3.195Z" fill="none" stroke="#000" stroke-miterlimit="10" stroke-width=".395"/><line x1="320.76" y1="92.538" x2="249.368" y2="92.538" fill="none" stroke="#000" stroke-miterlimit="10" stroke-width=".395"/><path d="M209.107,84.413h29.853l5.295,1.461s2.739.73,3.469,2.008c.274.365.274.822.091,1.278-1.004,2.1-9.951,1.917-9.951,1.917h-10.408s-7.943,0-11.594-1.643-6.847-4.382-6.847-4.382v-.639h.091Z" fill="none" stroke="#000" stroke-miterlimit="10" stroke-width=".395"/><path d="M247.725,87.882l.183,7.212s.274,3.378-13.146,3.378c-13.512,0-15.611-.456-15.611-.456,0,0-2.921-.274-5.934-2.191s-4.2-3.652-4.2-3.652v-6.938" fill="none" stroke="#000" stroke-miterlimit="10" stroke-width=".395"/><path d="M214.95,87.243s-1.187-1.643,14.059-1.461c15.246.091,14.881,1.461,14.881,1.461,0,0,4.565,1.826-6.573,2.1-11.138.274-17.437-.365-19.902-.822-2.556-.456-2.465-1.278-2.465-1.278Z" fill="none" stroke="#000" stroke-miterlimit="10" stroke-width=".395"/><line x1="320.76" y1="48.626" x2="249.368" y2="48.626" fill="none" stroke="#000" stroke-miterlimit="10" stroke-width=".395"/><path d="M209.107,40.5h29.853l5.295,1.461s2.739.73,3.469,2.008c.274.365.274.822.091,1.278-1.004,2.1-9.951,1.917-9.951,1.917h-10.408s-7.943,0-11.594-1.643-6.847-4.382-6.847-4.382v-.639h.091Z" fill="none" stroke="#000" stroke-miterlimit="10" stroke-width=".395"/><path d="M247.725,44.061l.183,7.212s.274,3.378-13.146,3.378c-13.512,0-15.611-.456-15.611-.456,0,0-2.921-.274-5.934-2.191s-4.2-3.652-4.2-3.652v-6.938" fill="none" stroke="#000" stroke-miterlimit="10" stroke-width=".395"/><path d="M214.95,43.331s-1.187-1.643,14.059-1.461c15.246.091,14.881,1.461,14.881,1.461,0,0,4.565,1.826-6.573,2.1-11.138.274-17.437-.365-19.902-.822-2.556-.456-2.465-1.278-2.465-1.278Z" fill="none" stroke="#000" stroke-miterlimit="10" stroke-width=".395"/><path d="M320.76,6.63l-111.653-1.187s-1.369.639-1.187,2.648" fill="none" stroke="#000" stroke-miterlimit="10" stroke-width=".395"/><path d="M247.725-6.699l.183,7.212s.274,3.378-13.146,3.287c-13.512,0-15.611-.456-15.611-.456,0,0-2.921-.274-5.934-2.191" fill="none" stroke="#000" stroke-miterlimit="10" stroke-width=".395"/><path d="M210.476,50.36h-1.369s-1.369.639-1.187,2.648" fill="none" stroke="#000" stroke-miterlimit="10" stroke-width=".395"/><line x1="320.76" y1="52.095" x2="248.912" y2="50.999" fill="none" stroke="#000" stroke-miterlimit="10" stroke-width=".395"/><path d="M245.534,175.434h0c-.822,0-1.552-.73-1.552-1.552l.913-70.206c0-.822.73-1.552,1.552-1.552h0c.822,0,1.552.73,1.552,1.552l-.913,70.206c0,.822-.73,1.552-1.552,1.552Z" fill="none" stroke="#000" stroke-miterlimit="10" stroke-width=".395"/><polyline points="17.205 144.668 21.04 154.162 38.66 154.071 35.373 142.933" fill="none" stroke="#000" stroke-miterlimit="10" stroke-width=".395"/><path d="M1.634,103.863l33.009-.278c3.013,0,5.569,2.465,5.569,5.478l-1.278,61.807c0,3.013-2.465,5.569-5.478,5.569l-30.276.498" fill="none" stroke="#000" stroke-miterlimit="10" stroke-width=".395"/><path d="M26.7,106.78s-1.735-.913-1.278,7.669v4.291" fill="none" stroke="#000" stroke-miterlimit="10" stroke-width=".395"/><path d="M5.024,167.212l4.786-.086c.913,0,1.643-.73,1.643-1.643l-.274-28.667" fill="none" stroke="#000" stroke-miterlimit="10" stroke-width=".395"/><path d="M12.184,136.816l.183,24.741c0,.913.73,1.643,1.643,1.643l23.189-.639c.913,0,1.643-.73,1.643-1.643" fill="none" stroke="#000" stroke-miterlimit="10" stroke-width=".395"/><polygon points="8.715 166.944 11.18 168.313 11.18 171.235 8.715 172.695 6.25 171.235 6.25 168.404 8.715 166.944" fill="none" stroke="#000" stroke-miterlimit="10" stroke-width=".446"/><polygon points="16.019 166.67 18.484 168.13 18.484 170.961 16.019 172.421 13.554 170.961 13.554 168.13 16.019 166.67" fill="none" stroke="#000" stroke-miterlimit="10" stroke-width=".429"/><polygon points="23.322 166.487 25.787 167.857 25.787 170.778 23.322 172.147 20.857 170.778 20.857 167.948 23.322 166.487" fill="none" stroke="#000" stroke-miterlimit="10" stroke-width=".412"/><polygon points="33.091 170.504 30.626 171.965 28.161 170.504 28.161 167.674 30.626 166.213 33.091 167.674 33.091 170.504" fill="none" stroke="#000" stroke-miterlimit="10" stroke-width=".395"/><polygon points="8.715 112.988 11.271 114.54 11.363 117.462 8.715 119.014 6.159 117.553 6.067 114.54 8.715 112.988" fill="none" stroke="#000" stroke-miterlimit="10" stroke-width=".46"/><polygon points="15.745 112.897 18.301 114.358 18.392 117.371 15.745 118.923 13.188 117.371 13.097 114.358 15.745 112.897" fill="none" stroke="#000" stroke-miterlimit="10" stroke-width=".428"/><polygon points="25.422 117.188 22.774 118.74 20.218 117.279 20.127 114.267 22.774 112.715 25.331 114.267 25.422 117.188" fill="none" stroke="#000" stroke-miterlimit="10" stroke-width=".395"/><polygon points="5.428 106.598 7.985 108.059 8.076 111.071 5.428 112.623 2.872 111.163 2.781 108.15 5.428 106.598" fill="none" stroke="#000" stroke-miterlimit="10" stroke-width=".46"/><polygon points="12.458 106.507 15.014 107.967 15.106 110.98 12.458 112.441 9.902 110.98 9.811 107.967 12.458 106.507" fill="none" stroke="#000" stroke-miterlimit="10" stroke-width=".428"/><polygon points="22.135 110.797 19.488 112.349 16.932 110.889 16.84 107.876 19.488 106.324 22.044 107.785 22.135 110.797" fill="none" stroke="#000" stroke-miterlimit="10" stroke-width=".395"/><line x1="35.282" y1="142.659" x2="35.282" y2="135.903" fill="none" stroke="#000" stroke-miterlimit="10" stroke-width=".789"/><polyline points="17.114 136.634 17.297 158.453 35.464 158.271" fill="none" stroke="#000" stroke-miterlimit="10" stroke-width=".395"/><line x1="17.205" y1="143.116" x2="35.373" y2="142.933" fill="none" stroke="#000" stroke-miterlimit="10" stroke-width=".395"/><polyline points="21.04 154.162 19.397 156.901 17.297 158.453" fill="none" stroke="#000" stroke-miterlimit="10" stroke-width=".395"/><polyline points="38.66 153.98 37.016 156.719 34.917 158.271" fill="none" stroke="#000" stroke-miterlimit="10" stroke-width=".395"/><line x1="27.065" y1="145.855" x2="28.617" y2="152.063" fill="none" stroke="#000" stroke-miterlimit="10" stroke-width="2.368"/><path d="M-1.057,137.334l51.767-1.979s6.938.183,5.934-7.669c-1.004-7.851-1.278-9.86-6.756-13.055-5.478-3.195-13.238-7.943-13.238-7.943l-8.947.091,14.607,9.129s5.295,2.465-6.208,2.556c-4.478.036-20.274.555-37.897,1.177l.737,17.691Z" fill="#fff" stroke="#000" stroke-miterlimit="10" stroke-width=".395"/><path d="M28.617,136.634c0,1.278-1.004,2.282-2.282,2.282s-2.282-1.004-2.282-2.282" fill="none" stroke="#000" stroke-miterlimit="10" stroke-width=".789"/><path d="M51.331.303l-1.077,86.393c0,.913-.274,1.643-.548,1.643h-.274c-.274,0-.548-.73-.548-1.643L49.964.114" fill="none" stroke="#000" stroke-miterlimit="10" stroke-width=".395"/><path d="M2.874,81.127h8.215" fill="none" stroke="#000" stroke-miterlimit="10" stroke-width=".395"/><path d="M34.46,81.127h10.681c.913,0,1.643-.73,1.643-1.643L47.807.241" fill="none" stroke="#000" stroke-miterlimit="10" stroke-width=".395"/><path d="M10.275-1.405l1.179,87.097h18.168s4.93,1.278,4.93-9.221l1.552-17.437s-.913-6.391,3.104-7.395c4.017-.913,3.378-8.034,3.378-8.034l.739-44.211" fill="none" stroke="#000" stroke-miterlimit="10" stroke-width=".395"/><polygon points="8.167 66.976 5.611 68.437 3.055 66.885 3.055 63.872 5.702 62.411 8.259 63.963 8.167 66.976" fill="none" stroke="#000" stroke-miterlimit="10" stroke-width=".395"/><polygon points="8.167 53.647 5.611 55.108 3.055 53.556 3.055 50.634 5.702 49.173 8.259 50.725 8.167 53.647" fill="none" stroke="#000" stroke-miterlimit="10" stroke-width=".395"/><polygon points="8.167 41.322 5.611 42.783 3.055 41.231 3.055 38.218 5.702 36.757 8.259 38.309 8.167 41.322" fill="none" stroke="#000" stroke-miterlimit="10" stroke-width=".395"/><polygon points="8.167 28.45 5.611 29.91 3.055 28.358 3.055 25.346 5.702 23.885 8.259 25.437 8.167 28.45" fill="none" stroke="#000" stroke-miterlimit="10" stroke-width=".395"/><polygon points="8.441 15.121 5.885 16.581 3.237 15.029 3.329 12.016 5.976 10.556 8.532 12.108 8.441 15.121" fill="none" stroke="#000" stroke-miterlimit="10" stroke-width=".395"/><polygon points="8.715 2.248 6.067 3.709 3.511 2.157 3.603 -.856 6.159 -2.317 8.715 -.765 8.715 2.248" fill="none" stroke="#000" stroke-miterlimit="10" stroke-width=".395"/><path d="M53.013.236l-1.207,80.16c0,.913.73,1.643,1.643,1.643h100.424" fill="none" stroke="#000" stroke-miterlimit="10" stroke-width=".395"/><path d="M177.336,82.04h10.681c.913,0,1.643-.73,1.643-1.643L190.694.341" fill="none" stroke="#000" stroke-miterlimit="10" stroke-width=".395"/><path d="M153.163.375l1.168,86.229h18.168s4.93,1.278,4.93-9.221l1.552-17.529s-.913-6.391,3.104-7.395c4.017-.913,3.378-8.034,3.378-8.034l.739-44.208" fill="none" stroke="#000" stroke-miterlimit="10" stroke-width=".395"/><polygon points="63.309 74.371 60.662 75.832 58.105 74.28 58.197 71.267 60.753 69.806 63.309 71.358 63.309 74.371" fill="none" stroke="#000" stroke-miterlimit="10" stroke-width=".395"/><polygon points="68.331 69.806 70.887 71.358 70.795 74.371 68.239 75.832 65.683 74.28 65.683 71.267 68.331 69.806" fill="none" stroke="#000" stroke-miterlimit="10" stroke-width=".395"/><polygon points="75.908 69.806 78.464 71.358 78.373 74.371 75.725 75.832 73.169 74.28 73.26 71.267 75.908 69.806" fill="none" stroke="#000" stroke-miterlimit="10" stroke-width=".395"/><polygon points="83.394 69.806 85.95 71.358 85.95 74.371 83.303 75.832 80.747 74.28 80.838 71.267 83.394 69.806" fill="none" stroke="#000" stroke-miterlimit="10" stroke-width=".395"/><polygon points="90.972 69.806 93.528 71.358 93.528 74.371 90.88 75.832 88.324 74.28 88.324 71.267 90.972 69.806" fill="none" stroke="#000" stroke-miterlimit="10" stroke-width=".395"/><polygon points="98.549 69.806 101.105 71.358 101.014 74.371 98.458 75.832 95.902 74.28 95.902 71.267 98.549 69.806" fill="none" stroke="#000" stroke-miterlimit="10" stroke-width=".395"/><polygon points="106.127 69.806 108.683 71.358 108.591 74.371 105.944 75.832 103.388 74.28 103.479 71.267 106.127 69.806" fill="none" stroke="#000" stroke-miterlimit="10" stroke-width=".395"/><polygon points="113.613 69.806 116.169 71.358 116.169 74.371 113.521 75.832 110.965 74.28 111.056 71.267 113.613 69.806" fill="none" stroke="#000" stroke-miterlimit="10" stroke-width=".395"/><polygon points="121.19 69.806 123.746 71.358 123.746 74.371 121.099 75.832 118.543 74.28 118.543 71.267 121.19 69.806" fill="none" stroke="#000" stroke-miterlimit="10" stroke-width=".395"/><polygon points="128.768 69.806 131.324 71.358 131.233 74.371 128.676 75.832 126.12 74.28 126.12 71.267 128.768 69.806" fill="none" stroke="#000" stroke-miterlimit="10" stroke-width=".395"/><polygon points="136.254 69.806 138.901 71.358 138.81 74.371 136.163 75.832 133.606 74.28 133.698 71.267 136.254 69.806" fill="none" stroke="#000" stroke-miterlimit="10" stroke-width=".395"/><polygon points="146.388 74.371 143.74 75.832 141.184 74.28 141.275 71.267 143.831 69.806 146.388 71.358 146.388 74.371" fill="none" stroke="#000" stroke-miterlimit="10" stroke-width=".395"/><polygon points="66.596 67.889 63.948 69.35 61.392 67.798 61.483 64.785 64.04 63.415 66.596 64.876 66.596 67.889" fill="none" stroke="#000" stroke-miterlimit="10" stroke-width=".395"/><polygon points="71.617 63.415 74.173 64.876 74.173 67.889 71.526 69.35 68.97 67.798 68.97 64.785 71.617 63.415" fill="none" stroke="#000" stroke-miterlimit="10" stroke-width=".395"/><polygon points="79.195 63.415 81.751 64.876 81.66 67.889 79.103 69.35 76.547 67.798 76.547 64.785 79.195 63.415" fill="none" stroke="#000" stroke-miterlimit="10" stroke-width=".395"/><polygon points="86.681 63.415 89.328 64.876 89.237 67.889 86.589 69.35 84.033 67.798 84.124 64.785 86.681 63.415" fill="none" stroke="#000" stroke-miterlimit="10" stroke-width=".395"/><polygon points="94.258 63.415 96.814 64.876 96.814 67.889 94.167 69.35 91.611 67.798 91.702 64.785 94.258 63.415" fill="none" stroke="#000" stroke-miterlimit="10" stroke-width=".395"/><polygon points="101.836 63.415 104.392 64.876 104.301 67.889 101.744 69.35 99.188 67.798 99.188 64.785 101.836 63.415" fill="none" stroke="#000" stroke-miterlimit="10" stroke-width=".395"/><polygon points="109.413 63.415 111.969 64.876 111.878 67.889 109.322 69.35 106.674 67.798 106.766 64.785 109.413 63.415" fill="none" stroke="#000" stroke-miterlimit="10" stroke-width=".395"/><polygon points="116.899 63.415 119.547 64.876 119.456 67.889 116.808 69.35 114.252 67.798 114.343 64.785 116.899 63.415" fill="none" stroke="#000" stroke-miterlimit="10" stroke-width=".395"/><polygon points="124.477 63.415 127.033 64.876 127.033 67.889 124.385 69.35 121.829 67.798 121.921 64.785 124.477 63.415" fill="none" stroke="#000" stroke-miterlimit="10" stroke-width=".395"/><polygon points="132.054 63.415 134.61 64.876 134.519 67.889 131.963 69.35 129.407 67.798 129.407 64.785 132.054 63.415" fill="none" stroke="#000" stroke-miterlimit="10" stroke-width=".395"/><polygon points="139.632 63.415 142.188 64.876 142.097 67.889 139.449 69.35 136.893 67.798 136.984 64.785 139.632 63.415" fill="none" stroke="#000" stroke-miterlimit="10" stroke-width=".395"/><polygon points="149.674 67.889 147.027 69.35 144.47 67.798 144.562 64.785 147.118 63.415 149.674 64.876 149.674 67.889" fill="none" stroke="#000" stroke-miterlimit="10" stroke-width=".395"/><polygon points="63.309 61.042 60.662 62.502 58.105 60.95 58.197 57.938 60.753 56.477 63.309 58.029 63.309 61.042" fill="none" stroke="#000" stroke-miterlimit="10" stroke-width=".395"/><polygon points="68.331 56.477 70.887 58.029 70.795 61.042 68.239 62.502 65.683 60.95 65.683 57.938 68.331 56.477" fill="none" stroke="#000" stroke-miterlimit="10" stroke-width=".395"/><polygon points="75.908 56.477 78.464 58.029 78.373 61.042 75.725 62.502 73.169 60.95 73.26 57.938 75.908 56.477" fill="none" stroke="#000" stroke-miterlimit="10" stroke-width=".395"/><polygon points="83.394 56.477 85.95 58.029 85.95 61.042 83.303 62.502 80.747 60.95 80.838 57.938 83.394 56.477" fill="none" stroke="#000" stroke-miterlimit="10" stroke-width=".395"/><polygon points="90.972 56.477 93.528 58.029 93.528 61.042 90.88 62.502 88.324 60.95 88.324 57.938 90.972 56.477" fill="none" stroke="#000" stroke-miterlimit="10" stroke-width=".395"/><polygon points="98.549 56.477 101.105 58.029 101.014 61.042 98.458 62.502 95.902 60.95 95.902 57.938 98.549 56.477" fill="none" stroke="#000" stroke-miterlimit="10" stroke-width=".395"/><polygon points="106.127 56.477 108.683 58.029 108.591 61.042 105.944 62.502 103.388 60.95 103.479 57.938 106.127 56.477" fill="none" stroke="#000" stroke-miterlimit="10" stroke-width=".395"/><polygon points="113.613 56.477 116.169 58.029 116.169 61.042 113.521 62.502 110.965 60.95 111.056 57.938 113.613 56.477" fill="none" stroke="#000" stroke-miterlimit="10" stroke-width=".395"/><polygon points="121.19 56.477 123.746 58.029 123.746 61.042 121.099 62.502 118.543 60.95 118.543 57.938 121.19 56.477" fill="none" stroke="#000" stroke-miterlimit="10" stroke-width=".395"/><polygon points="128.768 56.477 131.324 58.029 131.233 61.042 128.676 62.502 126.12 60.95 126.12 57.938 128.768 56.477" fill="none" stroke="#000" stroke-miterlimit="10" stroke-width=".395"/><polygon points="136.254 56.477 138.901 58.029 138.81 61.042 136.163 62.502 133.606 60.95 133.698 57.938 136.254 56.477" fill="none" stroke="#000" stroke-miterlimit="10" stroke-width=".395"/><polygon points="146.388 61.042 143.74 62.502 141.184 60.95 141.275 57.938 143.831 56.477 146.388 58.029 146.388 61.042" fill="none" stroke="#000" stroke-miterlimit="10" stroke-width=".395"/><polygon points="66.596 54.56 63.948 56.021 61.392 54.469 61.483 51.547 64.04 50.086 66.596 51.638 66.596 54.56" fill="none" stroke="#000" stroke-miterlimit="10" stroke-width=".395"/><polygon points="71.617 50.086 74.173 51.638 74.173 54.56 71.526 56.021 68.97 54.469 68.97 51.547 71.617 50.086" fill="none" stroke="#000" stroke-miterlimit="10" stroke-width=".395"/><polygon points="79.195 50.086 81.751 51.638 81.66 54.56 79.103 56.021 76.547 54.469 76.547 51.547 79.195 50.086" fill="none" stroke="#000" stroke-miterlimit="10" stroke-width=".395"/><polygon points="86.681 50.086 89.328 51.638 89.237 54.56 86.589 56.021 84.033 54.469 84.124 51.547 86.681 50.086" fill="none" stroke="#000" stroke-miterlimit="10" stroke-width=".395"/><polygon points="94.258 50.086 96.814 51.638 96.814 54.56 94.167 56.021 91.611 54.469 91.702 51.547 94.258 50.086" fill="none" stroke="#000" stroke-miterlimit="10" stroke-width=".395"/><polygon points="101.836 50.086 104.392 51.638 104.301 54.56 101.744 56.021 99.188 54.469 99.188 51.547 101.836 50.086" fill="none" stroke="#000" stroke-miterlimit="10" stroke-width=".395"/><polygon points="109.413 50.086 111.969 51.638 111.878 54.56 109.322 56.021 106.674 54.469 106.766 51.547 109.413 50.086" fill="none" stroke="#000" stroke-miterlimit="10" stroke-width=".395"/><polygon points="116.899 50.086 119.547 51.638 119.456 54.56 116.808 56.021 114.252 54.469 114.343 51.547 116.899 50.086" fill="none" stroke="#000" stroke-miterlimit="10" stroke-width=".395"/><polygon points="124.477 50.086 127.033 51.638 127.033 54.56 124.385 56.021 121.829 54.469 121.921 51.547 124.477 50.086" fill="none" stroke="#000" stroke-miterlimit="10" stroke-width=".395"/><polygon points="132.054 50.086 134.61 51.638 134.519 54.56 131.963 56.021 129.407 54.469 129.407 51.547 132.054 50.086" fill="none" stroke="#000" stroke-miterlimit="10" stroke-width=".395"/><polygon points="139.632 50.086 142.188 51.638 142.097 54.56 139.449 56.021 136.893 54.469 136.984 51.547 139.632 50.086" fill="none" stroke="#000" stroke-miterlimit="10" stroke-width=".395"/><polygon points="149.674 54.56 147.027 56.021 144.47 54.469 144.562 51.547 147.118 50.086 149.674 51.638 149.674 54.56" fill="none" stroke="#000" stroke-miterlimit="10" stroke-width=".395"/><polygon points="62.853 48.169 60.205 49.63 57.649 48.078 57.649 45.156 60.297 43.696 62.853 45.248 62.853 48.169" fill="none" stroke="#000" stroke-miterlimit="10" stroke-width=".395"/><polygon points="67.874 43.696 70.43 45.248 70.339 48.261 67.783 49.721 65.226 48.169 65.226 45.156 67.874 43.696" fill="none" stroke="#000" stroke-miterlimit="10" stroke-width=".395"/><polygon points="75.451 43.787 78.008 45.248 77.916 48.261 75.269 49.721 72.713 48.169 72.804 45.156 75.451 43.787" fill="none" stroke="#000" stroke-miterlimit="10" stroke-width=".395"/><polygon points="82.938 43.787 85.494 45.339 85.494 48.352 82.846 49.813 80.29 48.261 80.381 45.248 82.938 43.787" fill="none" stroke="#000" stroke-miterlimit="10" stroke-width=".395"/><polygon points="90.515 43.878 93.071 45.339 93.071 48.352 90.424 49.813 87.868 48.261 87.868 45.248 90.515 43.878" fill="none" stroke="#000" stroke-miterlimit="10" stroke-width=".395"/><polygon points="98.093 43.878 100.649 45.43 100.558 48.443 98.001 49.813 95.445 48.352 95.445 45.339 98.093 43.878" fill="none" stroke="#000" stroke-miterlimit="10" stroke-width=".395"/><polygon points="105.67 43.878 108.226 45.43 108.135 48.443 105.487 49.904 102.931 48.352 103.023 45.339 105.67 43.878" fill="none" stroke="#000" stroke-miterlimit="10" stroke-width=".395"/><polygon points="113.156 43.97 115.712 45.522 115.712 48.534 113.065 49.904 110.509 48.443 110.6 45.43 113.156 43.97" fill="none" stroke="#000" stroke-miterlimit="10" stroke-width=".395"/><polygon points="120.734 43.97 123.29 45.522 123.199 48.534 120.642 49.995 118.086 48.443 118.086 45.43 120.734 43.97" fill="none" stroke="#000" stroke-miterlimit="10" stroke-width=".395"/><polygon points="128.311 44.061 130.867 45.613 130.776 48.534 128.22 49.995 125.572 48.443 125.664 45.522 128.311 44.061" fill="none" stroke="#000" stroke-miterlimit="10" stroke-width=".395"/><polygon points="135.797 44.061 138.445 45.613 138.354 48.626 135.706 50.086 133.15 48.534 133.241 45.522 135.797 44.061" fill="none" stroke="#000" stroke-miterlimit="10" stroke-width=".395"/><polygon points="145.931 48.626 143.283 50.086 140.727 48.534 140.819 45.613 143.375 44.152 145.931 45.704 145.931 48.626" fill="none" stroke="#000" stroke-miterlimit="10" stroke-width=".395"/><polygon points="66.596 41.779 63.948 43.239 61.392 41.687 61.483 38.675 64.04 37.214 66.596 38.766 66.596 41.779" fill="none" stroke="#000" stroke-miterlimit="10" stroke-width=".395"/><polygon points="71.617 37.305 74.173 38.857 74.173 41.779 71.526 43.239 68.97 41.687 68.97 38.766 71.617 37.305" fill="none" stroke="#000" stroke-miterlimit="10" stroke-width=".395"/><polygon points="79.195 37.305 81.751 38.857 81.66 41.87 79.103 43.331 76.547 41.779 76.547 38.766 79.195 37.305" fill="none" stroke="#000" stroke-miterlimit="10" stroke-width=".395"/><polygon points="86.681 37.396 89.328 38.857 89.237 41.87 86.589 43.331 84.033 41.779 84.124 38.766 86.681 37.396" fill="none" stroke="#000" stroke-miterlimit="10" stroke-width=".395"/><polygon points="94.258 37.396 96.814 38.948 96.814 41.961 94.167 43.331 91.611 41.87 91.702 38.857 94.258 37.396" fill="none" stroke="#000" stroke-miterlimit="10" stroke-width=".395"/><polygon points="101.836 37.396 104.392 38.948 104.301 41.961 101.744 43.422 99.188 41.87 99.188 38.857 101.836 37.396" fill="none" stroke="#000" stroke-miterlimit="10" stroke-width=".395"/><polygon points="109.413 37.488 111.969 39.04 111.878 42.052 109.322 43.422 106.674 41.961 106.766 38.948 109.413 37.488" fill="none" stroke="#000" stroke-miterlimit="10" stroke-width=".395"/><polygon points="116.899 37.488 119.547 39.04 119.456 42.052 116.808 43.513 114.252 41.961 114.343 38.948 116.899 37.488" fill="none" stroke="#000" stroke-miterlimit="10" stroke-width=".395"/><polygon points="124.477 37.579 127.033 39.131 127.033 42.052 124.385 43.513 121.829 41.961 121.921 39.04 124.477 37.579" fill="none" stroke="#000" stroke-miterlimit="10" stroke-width=".395"/><polygon points="132.054 37.579 134.61 39.131 134.519 42.144 131.963 43.604 129.407 42.052 129.407 39.04 132.054 37.579" fill="none" stroke="#000" stroke-miterlimit="10" stroke-width=".395"/><polygon points="139.632 37.67 142.188 39.222 142.097 42.144 139.449 43.604 136.893 42.052 136.984 39.131 139.632 37.67" fill="none" stroke="#000" stroke-miterlimit="10" stroke-width=".395"/><polygon points="149.674 42.235 147.027 43.696 144.47 42.144 144.562 39.131 147.118 37.67 149.674 39.222 149.674 42.235" fill="none" stroke="#000" stroke-miterlimit="10" stroke-width=".395"/><polygon points="62.853 35.388 60.205 36.849 57.649 35.297 57.649 32.284 60.297 30.823 62.853 32.375 62.853 35.388" fill="none" stroke="#000" stroke-miterlimit="10" stroke-width=".395"/><polygon points="67.874 30.915 70.43 32.375 70.43 35.388 67.783 36.849 65.226 35.297 65.318 32.284 67.874 30.915" fill="none" stroke="#000" stroke-miterlimit="10" stroke-width=".395"/><polygon points="75.451 30.915 78.099 32.467 78.008 35.479 75.36 36.849 72.804 35.388 72.895 32.375 75.451 30.915" fill="none" stroke="#000" stroke-miterlimit="10" stroke-width=".395"/><polygon points="83.12 30.915 85.677 32.467 85.585 35.479 83.029 36.94 80.381 35.388 80.473 32.375 83.12 30.915" fill="none" stroke="#000" stroke-miterlimit="10" stroke-width=".395"/><polygon points="90.698 31.006 93.254 32.558 93.163 35.479 90.606 36.94 88.05 35.479 88.05 32.467 90.698 31.006" fill="none" stroke="#000" stroke-miterlimit="10" stroke-width=".395"/><polygon points="98.275 31.006 100.831 32.558 100.831 35.571 98.184 37.031 95.628 35.479 95.628 32.467 98.275 31.006" fill="none" stroke="#000" stroke-miterlimit="10" stroke-width=".395"/><polygon points="105.853 31.097 108.409 32.649 108.409 35.571 105.761 37.031 103.205 35.479 103.296 32.558 105.853 31.097" fill="none" stroke="#000" stroke-miterlimit="10" stroke-width=".395"/><polygon points="113.43 31.097 116.078 32.649 115.986 35.662 113.339 37.123 110.783 35.571 110.874 32.558 113.43 31.097" fill="none" stroke="#000" stroke-miterlimit="10" stroke-width=".395"/><polygon points="121.099 31.188 123.655 32.74 123.564 35.662 121.008 37.123 118.36 35.571 118.451 32.649 121.099 31.188" fill="none" stroke="#000" stroke-miterlimit="10" stroke-width=".395"/><polygon points="128.676 31.188 131.233 32.74 131.141 35.753 128.585 37.214 126.029 35.662 126.029 32.649 128.676 31.188" fill="none" stroke="#000" stroke-miterlimit="10" stroke-width=".395"/><polygon points="136.254 31.28 138.81 32.832 138.81 35.753 136.163 37.214 133.606 35.662 133.606 32.74 136.254 31.28" fill="none" stroke="#000" stroke-miterlimit="10" stroke-width=".395"/><polygon points="146.388 35.844 143.74 37.305 141.184 35.753 141.275 32.74 143.831 31.28 146.388 32.832 146.388 35.844" fill="none" stroke="#000" stroke-miterlimit="10" stroke-width=".395"/><polygon points="66.596 28.45 63.948 29.91 61.392 28.358 61.483 25.346 64.04 23.885 66.596 25.437 66.596 28.45" fill="none" stroke="#000" stroke-miterlimit="10" stroke-width=".395"/><polygon points="71.617 23.976 74.173 25.528 74.173 28.541 71.526 30.002 68.97 28.45 68.97 25.437 71.617 23.976" fill="none" stroke="#000" stroke-miterlimit="10" stroke-width=".395"/><polygon points="79.195 24.067 81.751 25.619 81.66 28.632 79.103 30.093 76.547 28.541 76.547 25.528 79.195 24.067" fill="none" stroke="#000" stroke-miterlimit="10" stroke-width=".395"/><polygon points="86.681 24.159 89.328 25.711 89.237 28.723 86.589 30.184 84.033 28.632 84.124 25.619 86.681 24.159" fill="none" stroke="#000" stroke-miterlimit="10" stroke-width=".395"/><polygon points="94.258 24.25 96.814 25.802 96.814 28.815 94.167 30.275 91.611 28.723 91.702 25.711 94.258 24.25" fill="none" stroke="#000" stroke-miterlimit="10" stroke-width=".395"/><polygon points="101.836 24.341 104.392 25.893 104.301 28.906 101.744 30.367 99.188 28.815 99.188 25.802 101.836 24.341" fill="none" stroke="#000" stroke-miterlimit="10" stroke-width=".395"/><polygon points="109.413 24.433 111.969 25.985 111.878 28.997 109.322 30.367 106.674 28.906 106.766 25.893 109.413 24.433" fill="none" stroke="#000" stroke-miterlimit="10" stroke-width=".395"/><polygon points="116.899 24.524 119.547 26.076 119.456 29.089 116.808 30.458 114.252 28.997 114.343 25.985 116.899 24.524" fill="none" stroke="#000" stroke-miterlimit="10" stroke-width=".395"/><polygon points="124.477 24.615 127.033 26.167 127.033 29.089 124.385 30.549 121.829 28.997 121.921 26.076 124.477 24.615" fill="none" stroke="#000" stroke-miterlimit="10" stroke-width=".395"/><polygon points="132.054 24.706 134.61 26.258 134.519 29.18 131.963 30.641 129.407 29.089 129.407 26.167 132.054 24.706" fill="none" stroke="#000" stroke-miterlimit="10" stroke-width=".395"/><polygon points="139.632 24.798 142.188 26.35 142.097 29.271 139.449 30.732 136.893 29.18 136.984 26.258 139.632 24.798" fill="none" stroke="#000" stroke-miterlimit="10" stroke-width=".395"/><polygon points="149.674 29.362 147.027 30.823 144.47 29.271 144.562 26.258 147.118 24.889 149.674 26.35 149.674 29.362" fill="none" stroke="#000" stroke-miterlimit="10" stroke-width=".395"/><polygon points="63.035 22.059 60.479 23.428 57.923 21.968 57.923 18.955 60.57 17.494 63.127 19.046 63.035 22.059" fill="none" stroke="#000" stroke-miterlimit="10" stroke-width=".395"/><polygon points="68.148 17.494 70.704 19.046 70.613 22.059 68.057 23.52 65.5 21.968 65.5 18.955 68.148 17.494" fill="none" stroke="#000" stroke-miterlimit="10" stroke-width=".395"/><polygon points="75.725 17.585 78.282 19.137 78.282 22.059 75.634 23.52 73.078 21.968 73.169 19.046 75.725 17.585" fill="none" stroke="#000" stroke-miterlimit="10" stroke-width=".395"/><polygon points="83.303 17.585 85.859 19.137 85.859 22.15 83.212 23.611 80.655 22.059 80.747 19.046 83.303 17.585" fill="none" stroke="#000" stroke-miterlimit="10" stroke-width=".395"/><polygon points="90.972 17.677 93.528 19.229 93.437 22.15 90.789 23.611 88.233 22.059 88.324 19.137 90.972 17.677" fill="none" stroke="#000" stroke-miterlimit="10" stroke-width=".395"/><polygon points="98.549 17.677 101.105 19.229 101.014 22.242 98.458 23.702 95.902 22.15 95.902 19.137 98.549 17.677" fill="none" stroke="#000" stroke-miterlimit="10" stroke-width=".395"/><polygon points="106.127 17.768 108.683 19.32 108.591 22.242 106.035 23.702 103.479 22.15 103.479 19.229 106.127 17.768" fill="none" stroke="#000" stroke-miterlimit="10" stroke-width=".395"/><polygon points="113.704 17.768 116.26 19.32 116.26 22.333 113.613 23.794 111.056 22.242 111.148 19.229 113.704 17.768" fill="none" stroke="#000" stroke-miterlimit="10" stroke-width=".395"/><polygon points="121.281 17.859 123.838 19.32 123.838 22.333 121.19 23.794 118.634 22.242 118.725 19.32 121.281 17.859" fill="none" stroke="#000" stroke-miterlimit="10" stroke-width=".395"/><polygon points="128.95 17.859 131.506 19.411 131.415 22.424 128.768 23.885 126.211 22.333 126.303 19.32 128.95 17.859" fill="none" stroke="#000" stroke-miterlimit="10" stroke-width=".395"/><polygon points="136.528 17.951 139.084 19.411 138.993 22.424 136.436 23.885 133.88 22.333 133.88 19.32 136.528 17.951" fill="none" stroke="#000" stroke-miterlimit="10" stroke-width=".395"/><polygon points="146.57 22.515 144.014 23.885 141.458 22.424 141.458 19.411 144.105 17.951 146.661 19.503 146.57 22.515" fill="none" stroke="#000" stroke-miterlimit="10" stroke-width=".395"/><polygon points="66.778 15.121 64.222 16.581 61.666 15.029 61.666 12.016 64.314 10.556 66.87 12.108 66.778 15.121" fill="none" stroke="#000" stroke-miterlimit="10" stroke-width=".395"/><polygon points="71.891 10.647 74.447 12.199 74.356 15.212 71.8 16.673 69.243 15.121 69.243 12.108 71.891 10.647" fill="none" stroke="#000" stroke-miterlimit="10" stroke-width=".395"/><polygon points="79.377 10.738 82.025 12.29 81.933 15.303 79.286 16.764 76.73 15.212 76.821 12.199 79.377 10.738" fill="none" stroke="#000" stroke-miterlimit="10" stroke-width=".395"/><polygon points="86.955 10.83 89.511 12.382 89.511 15.394 86.863 16.855 84.307 15.303 84.398 12.29 86.955 10.83" fill="none" stroke="#000" stroke-miterlimit="10" stroke-width=".395"/><polygon points="94.532 10.921 97.088 12.473 96.997 15.486 94.441 16.946 91.885 15.394 91.885 12.382 94.532 10.921" fill="none" stroke="#000" stroke-miterlimit="10" stroke-width=".395"/><polygon points="102.11 11.012 104.666 12.564 104.575 15.577 102.018 16.946 99.371 15.486 99.462 12.473 102.11 11.012" fill="none" stroke="#000" stroke-miterlimit="10" stroke-width=".395"/><polygon points="109.596 11.104 112.152 12.656 112.152 15.577 109.504 17.038 106.948 15.577 107.039 12.564 109.596 11.104" fill="none" stroke="#000" stroke-miterlimit="10" stroke-width=".395"/><polygon points="117.173 11.195 119.729 12.747 119.729 15.668 117.082 17.129 114.526 15.577 114.617 12.656 117.173 11.195" fill="none" stroke="#000" stroke-miterlimit="10" stroke-width=".395"/><polygon points="124.751 11.286 127.307 12.838 127.216 15.76 124.659 17.22 122.103 15.668 122.103 12.747 124.751 11.286" fill="none" stroke="#000" stroke-miterlimit="10" stroke-width=".395"/><polygon points="132.328 11.377 134.884 12.929 134.793 15.851 132.146 17.312 129.589 15.76 129.681 12.838 132.328 11.377" fill="none" stroke="#000" stroke-miterlimit="10" stroke-width=".395"/><polygon points="139.814 11.469 142.371 12.929 142.371 15.942 139.723 17.403 137.167 15.851 137.258 12.838 139.814 11.469" fill="none" stroke="#000" stroke-miterlimit="10" stroke-width=".395"/><polygon points="149.948 16.033 147.3 17.494 144.744 15.942 144.744 12.929 147.392 11.469 149.948 13.021 149.948 16.033" fill="none" stroke="#000" stroke-miterlimit="10" stroke-width=".395"/><polygon points="62.853 8.639 60.205 10.099 57.649 8.547 57.74 5.626 60.297 4.165 62.944 5.717 62.853 8.639" fill="none" stroke="#000" stroke-miterlimit="10" stroke-width=".395"/><polygon points="67.965 4.256 70.522 5.808 70.43 8.73 67.874 10.191 65.226 8.639 65.318 5.717 67.965 4.256" fill="none" stroke="#000" stroke-miterlimit="10" stroke-width=".395"/><polygon points="75.543 4.348 78.099 5.9 78.008 8.821 75.451 10.282 72.895 8.73 72.895 5.808 75.543 4.348" fill="none" stroke="#000" stroke-miterlimit="10" stroke-width=".395"/><polygon points="83.12 4.439 85.677 5.9 85.677 8.912 83.029 10.373 80.473 8.821 80.473 5.808 83.12 4.439" fill="none" stroke="#000" stroke-miterlimit="10" stroke-width=".395"/><polygon points="90.698 4.53 93.254 5.991 93.254 9.004 90.606 10.464 88.05 8.912 88.141 5.9 90.698 4.53" fill="none" stroke="#000" stroke-miterlimit="10" stroke-width=".395"/><polygon points="98.275 4.53 100.831 6.082 100.831 9.095 98.184 10.556 95.628 9.004 95.719 5.991 98.275 4.53" fill="none" stroke="#000" stroke-miterlimit="10" stroke-width=".395"/><polygon points="105.944 4.622 108.5 6.174 108.409 9.186 105.761 10.647 103.205 9.095 103.296 6.082 105.944 4.622" fill="none" stroke="#000" stroke-miterlimit="10" stroke-width=".395"/><polygon points="113.521 4.713 116.078 6.265 115.986 9.278 113.43 10.738 110.874 9.186 110.874 6.174 113.521 4.713" fill="none" stroke="#000" stroke-miterlimit="10" stroke-width=".395"/><polygon points="121.099 4.804 123.655 6.356 123.655 9.369 121.008 10.83 118.451 9.278 118.451 6.265 121.099 4.804" fill="none" stroke="#000" stroke-miterlimit="10" stroke-width=".395"/><polygon points="128.676 4.895 131.233 6.448 131.233 9.46 128.585 10.921 126.029 9.369 126.12 6.356 128.676 4.895" fill="none" stroke="#000" stroke-miterlimit="10" stroke-width=".395"/><polygon points="136.254 4.987 138.81 6.539 138.81 9.552 136.163 11.012 133.606 9.46 133.698 6.448 136.254 4.987" fill="none" stroke="#000" stroke-miterlimit="10" stroke-width=".395"/><polygon points="146.388 9.643 143.74 11.012 141.184 9.552 141.275 6.539 143.923 5.078 146.479 6.63 146.388 9.643" fill="none" stroke="#000" stroke-miterlimit="10" stroke-width=".395"/><polygon points="66.596 2.248 64.04 3.709 61.392 2.157 61.483 -.856 64.131 -2.317 66.687 -.765 66.596 2.248" fill="none" stroke="#000" stroke-miterlimit="10" stroke-width=".395"/><polygon points="71.708 -2.225 74.265 -.673 74.173 2.339 71.617 3.8 69.061 2.248 69.061 -.765 71.708 -2.225" fill="none" stroke="#000" stroke-miterlimit="10" stroke-width=".395"/><polygon points="79.286 -2.134 81.842 -.582 81.842 2.431 79.195 3.891 76.638 2.339 76.638 -.673 79.286 -2.134" fill="none" stroke="#000" stroke-miterlimit="10" stroke-width=".395"/><polygon points="86.863 -2.043 89.42 -.491 89.42 2.522 86.772 3.983 84.216 2.431 84.307 -.582 86.863 -2.043" fill="none" stroke="#000" stroke-miterlimit="10" stroke-width=".395"/><polygon points="94.441 -1.952 97.088 -.4 96.997 2.613 94.35 3.983 91.793 2.522 91.885 -.491 94.441 -1.952" fill="none" stroke="#000" stroke-miterlimit="10" stroke-width=".395"/><polygon points="102.11 -1.86 104.666 -.308 104.575 2.704 101.927 4.074 99.371 2.613 99.462 -.4 102.11 -1.86" fill="none" stroke="#000" stroke-miterlimit="10" stroke-width=".395"/><polygon points="109.687 -1.769 112.243 -.217 112.152 2.704 109.596 4.165 107.039 2.613 107.039 -.308 109.687 -1.769" fill="none" stroke="#000" stroke-miterlimit="10" stroke-width=".395"/><polygon points="117.264 -1.678 119.821 -.126 119.821 2.796 117.173 4.256 114.617 2.704 114.617 -.217 117.264 -1.678" fill="none" stroke="#000" stroke-miterlimit="10" stroke-width=".395"/><polygon points="124.842 -1.586 127.398 -.034 127.398 2.887 124.751 4.348 122.194 2.796 122.286 -.126 124.842 -1.586" fill="none" stroke="#000" stroke-miterlimit="10" stroke-width=".395"/><polygon points="132.419 -1.495 134.976 -.034 134.976 2.978 132.328 4.439 129.772 2.887 129.863 -.126 132.419 -1.495" fill="none" stroke="#000" stroke-miterlimit="10" stroke-width=".395"/><polygon points="140.088 -1.404 142.644 .057 142.553 3.07 139.906 4.53 137.349 2.978 137.441 -.034 140.088 -1.404" fill="none" stroke="#000" stroke-miterlimit="10" stroke-width=".395"/><polygon points="150.131 3.161 147.574 4.622 145.018 3.07 145.018 .057 147.666 -1.404 150.222 .148 150.131 3.161" fill="none" stroke="#000" stroke-miterlimit="10" stroke-width=".395"/><polygon points="201.256 14.664 205.638 14.664 203.447 18.955 201.256 14.664" fill="#ec008c"/><g isolation="isolate"><path d="M193.189,23.676h1.689c.334,0,.584.014.748.042s.312.086.44.174c.13.088.238.207.325.354.086.147.129.312.129.494,0,.198-.053.38-.159.545-.107.166-.252.289-.435.372.258.075.456.203.594.383.139.181.208.393.208.637,0,.192-.045.379-.134.561-.09.182-.212.327-.366.436-.155.108-.346.175-.572.2-.143.016-.485.025-1.029.029h-1.438v-4.226ZM194.042,24.379v.978h.559c.333,0,.539-.005.62-.015.146-.017.261-.068.345-.151.083-.083.125-.193.125-.33,0-.13-.036-.237-.108-.318-.071-.082-.179-.131-.321-.148-.084-.01-.327-.015-.729-.015h-.489ZM194.042,26.06v1.13h.789c.308,0,.503-.009.586-.026.127-.023.229-.08.31-.169s.12-.209.12-.359c0-.127-.031-.234-.093-.323s-.15-.153-.267-.193c-.116-.04-.368-.061-.757-.061h-.688Z"/><path d="M199.343,27.902h-.81v-3.053c-.296.276-.645.481-1.047.614v-.735c.212-.069.441-.201.689-.394.248-.193.418-.418.51-.676h.657v4.244Z"/><path d="M201.923,23.658c.409,0,.729.146.96.438.275.346.412.919.412,1.721s-.138,1.375-.415,1.724c-.229.288-.548.433-.957.433s-.743-.158-.994-.475c-.252-.316-.378-.879-.378-1.69,0-.796.139-1.369.415-1.718.229-.289.548-.433.957-.433ZM201.923,24.33c-.098,0-.186.031-.263.094-.076.062-.136.174-.179.336-.056.209-.083.562-.083,1.058s.024.837.075,1.022c.05.186.112.309.188.371s.163.092.261.092.186-.031.263-.094c.076-.062.136-.174.179-.336.056-.208.083-.559.083-1.055s-.024-.836-.074-1.022c-.051-.185-.113-.309-.189-.372s-.163-.094-.261-.094Z"/></g><path d="M205.181,40.683h-10.408c-1.826,0-3.287-1.461-3.287-3.287V10.464c0-1.826,1.461-3.287,3.287-3.287h10.408c1.826,0,3.287,1.461,3.287,3.287v26.932c0,1.826-1.461,3.287-3.287,3.287Z" fill="#fff" stroke="#000" stroke-miterlimit="10" stroke-width=".395"/><path d="M205.181,35.753h-8.856c-1.826,0-3.287-1.461-3.287-3.287V12.382c0-1.826,1.461-3.287,3.287-3.287h8.856c1.826,0,3.287,1.461,3.287,3.287v20.085c0,1.826-1.461,3.287-3.287,3.287Z" fill="#fff" stroke="#000" stroke-miterlimit="10" stroke-width=".395"/><path d="M207.829,11.743h-10.042c-1.826,0-3.287,1.461-3.287,3.287v12.781c0,1.826,1.461,3.287,3.287,3.287h10.042c1.826,0,3.287-1.461,3.287-3.287v-12.781c0-1.735-1.552-3.287-3.287-3.287Z" fill="#fff" stroke="#000" stroke-miterlimit="10" stroke-width=".395"/><line x1="194.317" y1="9.825" x2="196.052" y2="12.108" fill="none" stroke="#000" stroke-miterlimit="10" stroke-width=".395"/><path d="M196.143,31.097s-2.282.365-3.104,2.465" fill="#fff" stroke="#000" stroke-miterlimit="10" stroke-width=".395"/><path d="M206.459,13.386h-7.304c-1.826,0-3.287,1.461-3.287,3.287v9.586c0,1.826,1.461,3.287,3.287,3.287h7.304c1.826,0,3.287-1.461,3.287-3.287v-9.586c0-1.826-1.461-3.287-3.287-3.287Z"/><polygon points="200.617 15.76 204.999 15.76 202.808 20.05 200.617 15.76" fill="#fff" stroke="#fff" stroke-linecap="round" stroke-linejoin="round" stroke-width=".789"/><g isolation="isolate"><path d="M198.001,27.967v-4.442h1.667c.339,0,.611.045.816.135s.366.228.481.415c.116.187.175.382.175.586,0,.19-.052.369-.154.536-.104.168-.259.303-.467.406.269.079.475.213.619.403s.217.414.217.673c0,.208-.044.401-.132.58s-.196.316-.325.414c-.13.097-.292.17-.486.22-.195.049-.435.074-.717.074h-1.694ZM198.589,25.392h.961c.261,0,.447-.017.561-.051.149-.044.262-.118.338-.221.075-.103.113-.232.113-.388,0-.147-.035-.277-.105-.389-.071-.112-.172-.189-.304-.23-.131-.041-.356-.062-.676-.062h-.888v1.342ZM198.589,27.443h1.106c.189,0,.323-.007.399-.021.136-.024.249-.064.34-.121s.166-.139.225-.247.088-.233.088-.374c0-.166-.043-.31-.128-.432-.085-.122-.202-.208-.353-.257s-.367-.074-.65-.074h-1.027v1.527Z" fill="#fff"/><path d="M203.997,27.967h-.545v-3.476c-.132.125-.304.25-.517.376-.213.125-.404.219-.574.282v-.527c.305-.144.571-.317.8-.521s.39-.402.485-.594h.351v4.46Z" fill="#fff"/><path d="M205.395,25.776c0-.525.054-.948.162-1.268.107-.32.269-.567.481-.741s.481-.261.805-.261c.238,0,.447.048.627.144.18.096.328.234.445.415.117.181.209.401.276.661.066.26.1.61.1,1.05,0,.521-.054.942-.16,1.262-.107.32-.268.568-.48.742-.213.175-.482.262-.808.262-.429,0-.765-.153-1.009-.46-.293-.37-.439-.972-.439-1.806ZM205.955,25.776c0,.729.085,1.215.256,1.456.171.242.381.362.632.362s.461-.122.632-.364.256-.727.256-1.455-.085-1.217-.256-1.458c-.171-.24-.384-.36-.638-.36-.251,0-.451.106-.601.318-.188.271-.281.771-.281,1.5Z" fill="#fff"/></g><line x1="206.733" y1="54.56" x2="209.563" y2="58.303" fill="none" stroke="#000" stroke-miterlimit="10" stroke-width=".395"/><path d="M186.192,99.933s1.826-9.038-1.278-10.499l-109.645-.639-76.414-.468" fill="none" stroke="#000" stroke-miterlimit="10" stroke-width=".395"/><path d="M84.946,88.795s4.2,4.2,1.278,10.955" fill="none" stroke="#000" stroke-miterlimit="10" stroke-width=".395"/><path d="M75.269,88.795s4.93,4.565,2.83,11.138" fill="none" stroke="#000" stroke-miterlimit="10" stroke-width=".395"/><path d="M194.135,41.322v5.386s1.187,2.648,2.83.274h5.021s1.369,2.008,2.556,0l.091-5.569" fill="#fff" stroke="#000" stroke-miterlimit="10" stroke-width=".395"/><polyline points="285.612 122.666 232.752 103.859 55.823 103.859 108.683 122.666" fill="#fff" stroke="#000" stroke-miterlimit="10" stroke-width=".395"/><polyline points="55.823 176.712 108.683 196.98 108.683 122.666" fill="#fff" stroke="#000" stroke-miterlimit="10" stroke-width=".395"/><path d="M282.234,195.428l-171.908,1.369c-3.013,0-5.569-2.465-5.569-5.569l.456-63.176c0-3.013,2.465-5.569,5.569-5.569h173.277c3.013,0,5.569,2.465,5.569,5.569l-1.826,61.715c0,3.195-2.465,5.66-5.569,5.66Z" fill="#fff" stroke="#000" stroke-miterlimit="10" stroke-width=".395"/><polyline points="266.258 163.474 270.001 173.152 287.62 173.152 284.425 162.014" fill="none" stroke="#000" stroke-miterlimit="10" stroke-width=".395"/><polygon points="118.177 174.612 115.53 176.164 112.974 174.612 112.974 171.6 115.53 170.139 118.177 171.6 118.177 174.612" fill="none" stroke="#000" stroke-miterlimit="10" stroke-width=".395"/><polygon points="122.651 169.956 125.298 171.508 125.298 174.521 122.651 175.982 120.095 174.521 120.095 171.508 122.651 169.956" fill="none" stroke="#000" stroke-miterlimit="10" stroke-width=".395"/><polygon points="129.772 169.865 132.419 171.326 132.328 174.339 129.772 175.891 127.124 174.339 127.216 171.326 129.772 169.865" fill="none" stroke="#000" stroke-miterlimit="10" stroke-width=".395"/><polygon points="136.893 169.683 139.449 171.235 139.449 174.247 136.893 175.708 134.245 174.247 134.245 171.235 136.893 169.683" fill="none" stroke="#000" stroke-miterlimit="10" stroke-width=".395"/><polygon points="144.014 169.591 146.57 171.052 146.57 174.065 143.923 175.617 141.366 174.065 141.366 171.052 144.014 169.591" fill="none" stroke="#000" stroke-miterlimit="10" stroke-width=".395"/><polygon points="151.044 169.409 153.691 170.961 153.691 173.973 151.044 175.434 148.487 173.973 148.487 170.961 151.044 169.409" fill="none" stroke="#000" stroke-miterlimit="10" stroke-width=".395"/><polygon points="158.165 169.317 160.812 170.869 160.812 173.791 158.165 175.343 155.608 173.791 155.608 170.778 158.165 169.317" fill="none" stroke="#000" stroke-miterlimit="10" stroke-width=".395"/><polygon points="165.286 169.226 167.842 170.687 167.842 173.699 165.286 175.16 162.638 173.699 162.638 170.687 165.286 169.226" fill="none" stroke="#000" stroke-miterlimit="10" stroke-width=".395"/><polygon points="172.407 169.043 174.963 170.595 174.963 173.608 172.407 175.069 169.759 173.517 169.759 170.595 172.407 169.043" fill="none" stroke="#000" stroke-miterlimit="10" stroke-width=".395"/><polygon points="179.528 168.952 182.084 170.413 182.084 173.426 179.436 174.978 176.88 173.426 176.88 170.413 179.528 168.952" fill="none" stroke="#000" stroke-miterlimit="10" stroke-width=".395"/><polygon points="186.557 168.77 189.205 170.322 189.205 173.334 186.557 174.795 184.001 173.334 184.001 170.322 186.557 168.77" fill="none" stroke="#000" stroke-miterlimit="10" stroke-width=".395"/><polygon points="193.678 168.678 196.326 170.139 196.326 173.152 193.678 174.704 191.122 173.152 191.122 170.139 193.678 168.678" fill="none" stroke="#000" stroke-miterlimit="10" stroke-width=".395"/><polygon points="203.355 173.06 200.799 174.521 198.152 173.06 198.152 170.048 200.799 168.496 203.355 170.048 203.355 173.06" fill="none" stroke="#000" stroke-miterlimit="10" stroke-width=".395"/><polygon points="114.343 168.952 111.787 170.413 109.139 168.952 109.139 165.939 111.787 164.479 114.343 165.939 114.343 168.952" fill="none" stroke="#000" stroke-miterlimit="10" stroke-width=".395"/><polygon points="118.908 164.296 121.555 165.757 121.464 168.77 118.908 170.322 116.26 168.77 116.352 165.757 118.908 164.296" fill="none" stroke="#000" stroke-miterlimit="10" stroke-width=".395"/><polygon points="126.029 164.114 128.676 165.574 128.676 168.587 126.029 170.139 123.473 168.587 123.473 165.574 126.029 164.114" fill="none" stroke="#000" stroke-miterlimit="10" stroke-width=".395"/><polygon points="133.15 163.931 135.797 165.483 135.797 168.404 133.15 169.956 130.594 168.404 130.594 165.392 133.15 163.931" fill="none" stroke="#000" stroke-miterlimit="10" stroke-width=".395"/><polygon points="140.362 163.748 142.918 165.3 142.918 168.313 140.362 169.774 137.715 168.222 137.715 165.3 140.362 163.748" fill="none" stroke="#000" stroke-miterlimit="10" stroke-width=".395"/><polygon points="147.483 163.566 150.039 165.118 150.039 168.13 147.483 169.591 144.836 168.13 144.836 165.118 147.483 163.566" fill="none" stroke="#000" stroke-miterlimit="10" stroke-width=".395"/><polygon points="154.604 163.383 157.252 164.935 157.16 167.948 154.604 169.409 151.956 167.948 152.048 164.935 154.604 163.383" fill="none" stroke="#000" stroke-miterlimit="10" stroke-width=".395"/><polygon points="161.725 163.292 164.373 164.753 164.373 167.765 161.725 169.226 159.169 167.765 159.169 164.753 161.725 163.292" fill="none" stroke="#000" stroke-miterlimit="10" stroke-width=".395"/><polygon points="168.937 163.109 171.494 164.57 171.494 167.583 168.846 169.043 166.29 167.583 166.29 164.57 168.937 163.109" fill="none" stroke="#000" stroke-miterlimit="10" stroke-width=".395"/><polygon points="176.058 162.927 178.615 164.387 178.615 167.4 176.058 168.952 173.411 167.4 173.411 164.387 176.058 162.927" fill="none" stroke="#000" stroke-miterlimit="10" stroke-width=".395"/><polygon points="183.179 162.744 185.736 164.205 185.736 167.218 183.179 168.77 180.532 167.218 180.532 164.205 183.179 162.744" fill="none" stroke="#000" stroke-miterlimit="10" stroke-width=".395"/><polygon points="190.3 162.562 192.948 164.114 192.948 167.126 190.3 168.587 187.744 167.035 187.744 164.022 190.3 162.562" fill="none" stroke="#000" stroke-miterlimit="10" stroke-width=".395"/><polygon points="200.069 166.944 197.421 168.404 194.865 166.852 194.865 163.931 197.421 162.379 200.069 163.931 200.069 166.944" fill="none" stroke="#000" stroke-miterlimit="10" stroke-width=".395"/><path d="M276.117,125.678s-1.735-.913-1.369,7.669v4.291" fill="none" stroke="#000" stroke-miterlimit="10" stroke-width=".395"/><line x1="170.033" y1="171.782" x2="162.455" y2="172.33" fill="none" stroke="#000" stroke-miterlimit="10" stroke-width=".789"/><path d="M128.676,161.649h-16.25c-1.826,0-3.287-1.461-3.287-3.287v-28.027c0-1.826,1.461-3.287,3.287-3.287h16.25c1.826,0,3.287,1.461,3.287,3.287v28.027c0,1.826-1.461,3.287-3.287,3.287Z" fill="none" stroke="#000" stroke-miterlimit="10" stroke-width=".395"/><path d="M206.186,157.266v27.571c0,.913.73,1.643,1.643,1.643l50.851-.456c.913,0,1.643-.73,1.643-1.643v-28.667" fill="none" stroke="#000" stroke-miterlimit="10" stroke-width=".395"/><path d="M261.328,155.623v24.741c0,.913.73,1.643,1.643,1.643l23.189-.456c.913,0,1.643-.73,1.643-1.643" fill="none" stroke="#000" stroke-miterlimit="10" stroke-width=".395"/><polygon points="113.887 193.602 111.239 195.062 108.683 193.602 108.683 190.589 111.33 189.037 113.887 190.589 113.887 193.602" fill="none" stroke="#000" stroke-miterlimit="10" stroke-width=".395"/><polygon points="118.634 188.854 121.19 190.406 121.19 193.419 118.634 194.88 115.986 193.419 115.986 190.406 118.634 188.854" fill="none" stroke="#000" stroke-miterlimit="10" stroke-width=".395"/><polygon points="125.937 188.763 128.494 190.224 128.494 193.237 125.937 194.697 123.29 193.237 123.29 190.224 125.937 188.763" fill="none" stroke="#000" stroke-miterlimit="10" stroke-width=".395"/><polygon points="133.241 188.581 135.797 190.041 135.797 193.054 133.241 194.515 130.685 193.054 130.685 190.041 133.241 188.581" fill="none" stroke="#000" stroke-miterlimit="10" stroke-width=".395"/><polygon points="140.545 188.398 143.101 189.859 143.101 192.871 140.545 194.332 137.988 192.871 137.988 189.859 140.545 188.398" fill="none" stroke="#000" stroke-miterlimit="10" stroke-width=".395"/><polygon points="147.848 188.215 150.404 189.676 150.404 192.689 147.848 194.149 145.292 192.689 145.292 189.676 147.848 188.215" fill="none" stroke="#000" stroke-miterlimit="10" stroke-width=".395"/><polygon points="155.152 188.033 157.708 189.585 157.708 192.506 155.152 193.967 152.596 192.506 152.596 189.493 155.152 188.033" fill="none" stroke="#000" stroke-miterlimit="10" stroke-width=".395"/><polygon points="162.455 187.85 165.012 189.402 165.012 192.324 162.455 193.784 159.899 192.324 159.899 189.402 162.455 187.85" fill="none" stroke="#000" stroke-miterlimit="10" stroke-width=".395"/><polygon points="169.85 187.759 172.407 189.22 172.315 192.141 169.759 193.602 167.203 192.141 167.294 189.22 169.85 187.759" fill="none" stroke="#000" stroke-miterlimit="10" stroke-width=".395"/><polygon points="177.154 187.576 179.71 189.037 179.619 191.958 177.063 193.419 174.598 191.958 174.598 189.037 177.154 187.576" fill="none" stroke="#000" stroke-miterlimit="10" stroke-width=".395"/><polygon points="184.457 187.394 187.014 188.854 187.014 191.776 184.457 193.237 181.901 191.776 181.901 188.854 184.457 187.394" fill="none" stroke="#000" stroke-miterlimit="10" stroke-width=".395"/><polygon points="191.761 187.211 194.317 188.672 194.317 191.593 191.761 193.054 189.205 191.593 189.205 188.672 191.761 187.211" fill="none" stroke="#000" stroke-miterlimit="10" stroke-width=".395"/><polygon points="199.065 187.029 201.621 188.489 201.621 191.502 199.065 192.871 196.508 191.411 196.508 188.489 199.065 187.029" fill="none" stroke="#000" stroke-miterlimit="10" stroke-width=".395"/><polygon points="206.368 186.937 208.924 188.398 208.924 191.319 206.368 192.689 203.812 191.228 203.812 188.307 206.368 186.937" fill="none" stroke="#000" stroke-miterlimit="10" stroke-width=".395"/><polygon points="213.672 186.755 216.228 188.215 216.228 191.137 213.672 192.597 211.115 191.045 211.207 188.215 213.672 186.755" fill="none" stroke="#000" stroke-miterlimit="10" stroke-width=".395"/><polygon points="220.975 186.572 223.532 188.033 223.532 190.954 220.975 192.415 218.51 190.954 218.51 188.033 220.975 186.572" fill="none" stroke="#000" stroke-miterlimit="10" stroke-width=".395"/><polygon points="228.279 186.389 230.835 187.85 230.835 190.772 228.279 192.232 225.814 190.772 225.814 187.85 228.279 186.389" fill="none" stroke="#000" stroke-miterlimit="10" stroke-width=".395"/><polygon points="235.674 186.207 238.139 187.668 238.139 190.589 235.582 192.05 233.118 190.589 233.118 187.668 235.674 186.207" fill="none" stroke="#000" stroke-miterlimit="10" stroke-width=".395"/><polygon points="242.977 186.024 245.442 187.485 245.442 190.406 242.977 191.867 240.421 190.406 240.421 187.485 242.977 186.024" fill="none" stroke="#000" stroke-miterlimit="10" stroke-width=".395"/><polygon points="250.281 185.933 252.746 187.302 252.746 190.224 250.281 191.685 247.725 190.224 247.725 187.302 250.281 185.933" fill="none" stroke="#000" stroke-miterlimit="10" stroke-width=".395"/><polygon points="257.585 185.75 260.049 187.211 260.049 190.041 257.585 191.502 255.12 190.041 255.12 187.12 257.585 185.75" fill="none" stroke="#000" stroke-miterlimit="10" stroke-width=".395"/><polygon points="264.888 185.568 267.353 187.029 267.353 189.859 264.888 191.319 262.423 189.859 262.423 187.029 264.888 185.568" fill="none" stroke="#000" stroke-miterlimit="10" stroke-width=".395"/><polygon points="272.192 185.385 274.657 186.846 274.657 189.676 272.192 191.137 269.727 189.676 269.727 186.846 272.192 185.385" fill="none" stroke="#000" stroke-miterlimit="10" stroke-width=".395"/><polygon points="281.96 189.493 279.495 190.954 277.03 189.493 277.03 186.663 279.495 185.203 281.96 186.663 281.96 189.493" fill="none" stroke="#000" stroke-miterlimit="10" stroke-width=".395"/><polygon points="190.392 137.182 187.744 138.642 185.188 137.09 185.188 134.078 187.744 132.617 190.392 134.169 190.392 137.182" fill="none" stroke="#000" stroke-miterlimit="10" stroke-width=".395"/><polygon points="194.774 132.526 197.421 134.078 197.421 137.09 194.774 138.551 192.217 137.09 192.217 134.078 194.774 132.526" fill="none" stroke="#000" stroke-miterlimit="10" stroke-width=".395"/><polygon points="201.803 132.434 204.451 133.986 204.451 136.999 201.803 138.46 199.156 136.999 199.247 133.986 201.803 132.434" fill="none" stroke="#000" stroke-miterlimit="10" stroke-width=".395"/><polygon points="208.833 132.343 211.481 133.895 211.389 136.908 208.833 138.368 206.186 136.908 206.277 133.895 208.833 132.343" fill="none" stroke="#000" stroke-miterlimit="10" stroke-width=".395"/><polygon points="215.863 132.343 218.51 133.804 218.419 136.816 215.863 138.277 213.215 136.816 213.307 133.804 215.863 132.343" fill="none" stroke="#000" stroke-miterlimit="10" stroke-width=".395"/><polygon points="222.893 132.252 225.54 133.712 225.449 136.725 222.893 138.277 220.245 136.725 220.336 133.712 222.893 132.252" fill="none" stroke="#000" stroke-miterlimit="10" stroke-width=".395"/><polygon points="229.922 132.16 232.57 133.621 232.478 136.634 229.922 138.186 227.275 136.634 227.366 133.621 229.922 132.16" fill="none" stroke="#000" stroke-miterlimit="10" stroke-width=".395"/><polygon points="236.952 132.069 239.599 133.621 239.508 136.543 236.952 138.095 234.304 136.543 234.396 133.53 236.952 132.069" fill="none" stroke="#000" stroke-miterlimit="10" stroke-width=".395"/><polygon points="243.982 131.978 246.629 133.53 246.538 136.543 243.982 138.003 241.334 136.451 241.425 133.438 243.982 131.978" fill="none" stroke="#000" stroke-miterlimit="10" stroke-width=".395"/><polygon points="251.011 131.886 253.568 133.438 253.568 136.451 251.011 137.912 248.364 136.451 248.364 133.438 251.011 131.886" fill="none" stroke="#000" stroke-miterlimit="10" stroke-width=".395"/><polygon points="258.041 131.795 260.597 133.347 260.597 136.36 258.041 137.821 255.393 136.36 255.393 133.347 258.041 131.795" fill="none" stroke="#000" stroke-miterlimit="10" stroke-width=".395"/><polygon points="265.071 131.704 267.627 133.256 267.627 136.269 265.071 137.729 262.423 136.269 262.423 133.256 265.071 131.704" fill="none" stroke="#000" stroke-miterlimit="10" stroke-width=".395"/><polygon points="274.657 136.177 272.1 137.638 269.453 136.177 269.453 133.165 272.1 131.704 274.657 133.165 274.657 136.177" fill="none" stroke="#000" stroke-miterlimit="10" stroke-width=".395"/><polygon points="187.105 130.7 184.549 132.16 181.901 130.7 181.901 127.687 184.549 126.226 187.105 127.687 187.105 130.7" fill="none" stroke="#000" stroke-miterlimit="10" stroke-width=".395"/><polygon points="191.578 126.135 194.135 127.596 194.135 130.608 191.578 132.16 188.931 130.608 188.931 127.596 191.578 126.135" fill="none" stroke="#000" stroke-miterlimit="10" stroke-width=".395"/><polygon points="198.608 126.044 201.164 127.504 201.164 130.517 198.608 132.069 195.961 130.517 195.961 127.504 198.608 126.044" fill="none" stroke="#000" stroke-miterlimit="10" stroke-width=".395"/><polygon points="205.638 125.952 208.194 127.413 208.194 130.426 205.638 131.978 202.99 130.426 202.99 127.413 205.638 125.952" fill="none" stroke="#000" stroke-miterlimit="10" stroke-width=".395"/><polygon points="212.667 125.861 215.224 127.413 215.224 130.426 212.667 131.886 210.02 130.334 210.02 127.322 212.667 125.861" fill="none" stroke="#000" stroke-miterlimit="10" stroke-width=".395"/><polygon points="219.697 125.77 222.253 127.322 222.253 130.334 219.697 131.795 217.05 130.243 217.05 127.322 219.697 125.77" fill="none" stroke="#000" stroke-miterlimit="10" stroke-width=".395"/><polygon points="226.727 125.678 229.283 127.23 229.283 130.243 226.727 131.704 224.079 130.243 224.079 127.23 226.727 125.678" fill="none" stroke="#000" stroke-miterlimit="10" stroke-width=".395"/><polygon points="233.757 125.587 236.313 127.139 236.313 130.152 233.665 131.613 231.109 130.152 231.109 127.139 233.757 125.587" fill="none" stroke="#000" stroke-miterlimit="10" stroke-width=".395"/><polygon points="240.786 125.587 243.343 127.048 243.343 130.061 240.695 131.521 238.139 130.061 238.139 127.048 240.786 125.587" fill="none" stroke="#000" stroke-miterlimit="10" stroke-width=".395"/><polygon points="247.816 125.496 250.372 126.957 250.372 129.969 247.725 131.521 245.168 129.969 245.168 126.957 247.816 125.496" fill="none" stroke="#000" stroke-miterlimit="10" stroke-width=".395"/><polygon points="254.846 125.405 257.402 126.865 257.402 129.878 254.754 131.43 252.198 129.878 252.198 126.865 254.846 125.405" fill="none" stroke="#000" stroke-miterlimit="10" stroke-width=".395"/><polygon points="261.875 125.313 264.432 126.774 264.432 129.787 261.784 131.339 259.228 129.787 259.228 126.774 261.875 125.313" fill="none" stroke="#000" stroke-miterlimit="10" stroke-width=".395"/><polygon points="271.461 129.787 268.814 131.247 266.258 129.695 266.258 126.683 268.905 125.222 271.461 126.774 271.461 129.787" fill="none" stroke="#000" stroke-miterlimit="10" stroke-width=".395"/><polygon points="117.721 186.755 115.073 188.215 112.517 186.755 112.517 183.742 115.073 182.19 117.721 183.742 117.721 186.755" fill="none" stroke="#000" stroke-miterlimit="10" stroke-width=".395"/><polygon points="122.194 182.099 124.751 183.559 124.751 186.572 122.194 188.124 119.547 186.572 119.547 183.559 122.194 182.099" fill="none" stroke="#000" stroke-miterlimit="10" stroke-width=".395"/><polygon points="129.315 181.916 131.872 183.468 131.872 186.481 129.315 187.941 126.668 186.481 126.668 183.468 129.315 181.916" fill="none" stroke="#000" stroke-miterlimit="10" stroke-width=".395"/><polygon points="136.436 181.825 138.993 183.377 138.993 186.298 136.345 187.85 133.789 186.298 133.789 183.285 136.436 181.825" fill="none" stroke="#000" stroke-miterlimit="10" stroke-width=".395"/><polygon points="143.466 181.733 146.114 183.194 146.114 186.207 143.466 187.668 140.91 186.207 140.91 183.194 143.466 181.733" fill="none" stroke="#000" stroke-miterlimit="10" stroke-width=".395"/><polygon points="150.587 181.551 153.235 183.103 153.235 186.116 150.587 187.576 148.031 186.024 148.031 183.103 150.587 181.551" fill="none" stroke="#000" stroke-miterlimit="10" stroke-width=".395"/><polygon points="157.708 181.46 160.264 182.92 160.264 185.933 157.708 187.485 155.061 185.933 155.061 182.92 157.708 181.46" fill="none" stroke="#000" stroke-miterlimit="10" stroke-width=".395"/><polygon points="164.829 181.277 167.385 182.829 167.385 185.842 164.829 187.302 162.182 185.842 162.182 182.829 164.829 181.277" fill="none" stroke="#000" stroke-miterlimit="10" stroke-width=".395"/><polygon points="171.95 181.186 174.506 182.646 174.506 185.659 171.859 187.211 169.302 185.659 169.302 182.646 171.95 181.186" fill="none" stroke="#000" stroke-miterlimit="10" stroke-width=".395"/><polygon points="178.98 181.003 181.627 182.555 181.627 185.568 178.98 187.029 176.423 185.568 176.423 182.555 178.98 181.003" fill="none" stroke="#000" stroke-miterlimit="10" stroke-width=".395"/><polygon points="186.101 180.912 188.748 182.372 188.657 185.385 186.101 186.937 183.453 185.385 183.544 182.372 186.101 180.912" fill="none" stroke="#000" stroke-miterlimit="10" stroke-width=".395"/><polygon points="193.222 180.729 195.778 182.281 195.778 185.294 193.222 186.755 190.574 185.294 190.574 182.281 193.222 180.729" fill="none" stroke="#000" stroke-miterlimit="10" stroke-width=".395"/><polygon points="202.899 185.111 200.343 186.663 197.695 185.111 197.695 182.099 200.343 180.638 202.899 182.19 202.899 185.111" fill="none" stroke="#000" stroke-miterlimit="10" stroke-width=".395"/><polygon points="114.343 181.277 111.787 182.738 109.139 181.277 109.139 178.264 111.787 176.712 114.343 178.264 114.343 181.277" fill="none" stroke="#000" stroke-miterlimit="10" stroke-width=".395"/><polygon points="118.908 176.621 121.464 178.082 121.464 181.094 118.816 182.646 116.26 181.094 116.26 178.082 118.908 176.621" fill="none" stroke="#000" stroke-miterlimit="10" stroke-width=".395"/><polygon points="125.937 176.438 128.585 177.99 128.585 181.003 125.937 182.464 123.381 181.003 123.381 177.99 125.937 176.438" fill="none" stroke="#000" stroke-miterlimit="10" stroke-width=".395"/><polygon points="133.058 176.347 135.706 177.899 135.706 180.82 133.058 182.372 130.502 180.82 130.502 177.808 133.058 176.347" fill="none" stroke="#000" stroke-miterlimit="10" stroke-width=".395"/><polygon points="140.179 176.256 142.736 177.716 142.736 180.729 140.179 182.19 137.532 180.729 137.532 177.716 140.179 176.256" fill="none" stroke="#000" stroke-miterlimit="10" stroke-width=".395"/><polygon points="147.3 176.073 149.857 177.625 149.857 180.638 147.3 182.099 144.653 180.547 144.653 177.534 147.3 176.073" fill="none" stroke="#000" stroke-miterlimit="10" stroke-width=".395"/><polygon points="154.421 175.982 156.978 177.443 156.978 180.455 154.33 181.916 151.774 180.455 151.774 177.443 154.421 175.982" fill="none" stroke="#000" stroke-miterlimit="10" stroke-width=".395"/><polygon points="161.451 175.799 164.099 177.351 164.099 180.364 161.451 181.825 158.895 180.364 158.895 177.351 161.451 175.799" fill="none" stroke="#000" stroke-miterlimit="10" stroke-width=".395"/><polygon points="168.572 175.708 171.22 177.169 171.22 180.181 168.572 181.733 166.016 180.181 166.016 177.169 168.572 175.708" fill="none" stroke="#000" stroke-miterlimit="10" stroke-width=".395"/><polygon points="175.693 175.525 178.249 177.077 178.249 180.09 175.693 181.551 173.046 180.09 173.046 177.077 175.693 175.525" fill="none" stroke="#000" stroke-miterlimit="10" stroke-width=".395"/><polygon points="182.814 175.434 185.37 176.895 185.37 179.908 182.814 181.46 180.167 179.908 180.167 176.895 182.814 175.434" fill="none" stroke="#000" stroke-miterlimit="10" stroke-width=".395"/><polygon points="189.935 175.251 192.491 176.803 192.491 179.816 189.844 181.277 187.288 179.816 187.288 176.803 189.935 175.251" fill="none" stroke="#000" stroke-miterlimit="10" stroke-width=".395"/><polygon points="199.612 179.634 196.965 181.186 194.409 179.634 194.409 176.621 196.965 175.16 199.612 176.621 199.612 179.634" fill="none" stroke="#000" stroke-miterlimit="10" stroke-width=".395"/><polyline points="212.667 157.084 212.667 171.508 221.249 179.725 247.086 179.725 256.124 171.052 256.124 155.806" fill="none" stroke="#000" stroke-miterlimit="10" stroke-width=".395"/><line x1="284.425" y1="161.649" x2="284.425" y2="154.984" fill="none" stroke="#000" stroke-miterlimit="10" stroke-width=".789"/><polyline points="266.258 155.532 266.258 177.351 284.425 177.351" fill="none" stroke="#000" stroke-miterlimit="10" stroke-width=".789"/><line x1="266.258" y1="162.014" x2="284.425" y2="162.014" fill="none" stroke="#000" stroke-miterlimit="10" stroke-width=".395"/><polyline points="270.001 173.152 268.357 175.799 266.258 177.351" fill="none" stroke="#000" stroke-miterlimit="10" stroke-width=".789"/><polyline points="287.62 173.06 286.068 175.799 283.877 177.26" fill="none" stroke="#000" stroke-miterlimit="10" stroke-width=".789"/><line x1="276.117" y1="164.753" x2="277.578" y2="171.052" fill="none" stroke="#000" stroke-miterlimit="10" stroke-width="2.368"/><path d="M237.591,172.056h0c-.73,0-1.278-.548-1.278-1.278v-5.113c0-.73.548-1.278,1.278-1.278h0c.73,0,1.278.548,1.278,1.278v5.113c0,.73-.639,1.278-1.278,1.278Z"/><line x1="237.591" y1="164.479" x2="228.735" y2="156.719" fill="none" stroke="#000" stroke-miterlimit="10" stroke-width=".789"/><line x1="236.313" y1="171.417" x2="227.457" y2="163.748" fill="none" stroke="#000" stroke-miterlimit="10" stroke-width=".395"/><path d="M246.629,162.653h0c-.73,0-1.278-.548-1.278-1.278v-5.113c0-.73.548-1.278,1.278-1.278h0c.73,0,1.278.548,1.278,1.278v5.113c0,.73-.548,1.278-1.278,1.278Z"/><line x1="246.629" y1="154.984" x2="237.865" y2="147.315" fill="none" stroke="#000" stroke-miterlimit="10" stroke-width=".789"/><line x1="245.351" y1="162.014" x2="236.587" y2="154.254" fill="none" stroke="#000" stroke-miterlimit="10" stroke-width=".789"/><path d="M223.075,162.653h0c-.73,0-1.278-.548-1.278-1.278v-5.113c0-.73.548-1.278,1.278-1.278h0c.73,0,1.278.548,1.278,1.278v5.113c0,.73-.639,1.278-1.278,1.278Z"/><line x1="223.075" y1="154.984" x2="214.22" y2="147.315" fill="none" stroke="#000" stroke-miterlimit="10" stroke-width=".789"/><line x1="221.797" y1="162.014" x2="213.033" y2="154.254" fill="none" stroke="#000" stroke-miterlimit="10" stroke-width=".395"/><polyline points="161.634 174.156 154.878 174.156 141.184 159.731 142.644 128.326 154.33 128.326 156.613 131.704 163.003 131.704" fill="#bcbec0" stroke="#000" stroke-linecap="round" stroke-linejoin="round" stroke-width=".395"/><path d="M148.852,134.625s-3.834,1.917-3.469,18.259,5.66,16.707,5.66,16.707" fill="none" stroke="#000" stroke-miterlimit="10" stroke-width=".395"/><polygon points="154.421 131.704 166.198 131.704 172.863 144.394 176.789 157.723 173.411 172.33 171.037 171.782 160.812 172.239 160.447 146.22 154.421 131.704" fill="#bcbec0"/><path d="M160.447,127.778l8.49,12.873s3.469,5.569,3.013,17.985c0,0,.456,13.786-3.652,14.516h13.786s2.282-1.826,2.739-9.677c.456-7.851,12.325-6.025,12.325-6.025l102.615-3.013s6.938.274,6.025-7.577c-.913-7.851-1.187-9.951-6.665-13.146-5.569-3.195-13.146-8.034-13.146-8.034h-8.947l14.516,9.221s5.295,2.556-6.208,2.556-97.685,2.556-97.685,2.556c0,0-5.295.274-8.49-2.1-3.195-2.282-7.851-10.408-7.851-10.408l-10.864.274Z" fill="#fff" stroke="#000" stroke-miterlimit="10" stroke-width=".395"/><path d="M143.192,129.33l12.507,11.503s4.839,6.299,3.195,17.711c0,0-.274,12.69-4.108,14.607" fill="none" stroke="#000" stroke-miterlimit="10" stroke-width=".395"/><path d="M156.613,131.704l5.843,8.673s1.187,2.465,1.461,4.839c.456,3.104,3.469,16.433-2.191,28.94" fill="none" stroke="#000" stroke-miterlimit="10" stroke-width=".395"/><path d="M151.5,136.999s-7.212,6.665-1.004,27.388c0,0,1.735,3.834,6.299,6.025" fill="none" stroke="#000" stroke-miterlimit="10" stroke-width=".395"/><polyline points="247.086 179.725 242.43 174.521 223.075 174.521 221.249 179.725" fill="none" stroke="#000" stroke-miterlimit="10" stroke-width=".395"/><polyline points="223.075 174.521 215.406 167.491 212.667 171.508" fill="none" stroke="#000" stroke-miterlimit="10" stroke-width=".395"/><line x1="215.406" y1="167.309" x2="215.406" y2="156.719" fill="none" stroke="#000" stroke-miterlimit="10" stroke-width=".395"/><polyline points="242.43 174.521 250.19 168.222 256.124 171.052" fill="none" stroke="#000" stroke-miterlimit="10" stroke-width=".395"/><line x1="250.19" y1="168.404" x2="250.19" y2="155.806" fill="none" stroke="#000" stroke-miterlimit="10" stroke-width=".789"/><ellipse cx="125.207" cy="137.364" rx="2.83" ry="2.739" fill="none" stroke="#000" stroke-miterlimit="10" stroke-width=".789"/><ellipse cx="125.207" cy="151.241" rx="2.83" ry="2.739" fill="none" stroke="#000" stroke-miterlimit="10" stroke-width=".789"/><path d="M277.761,155.623c0,1.278-1.004,2.282-2.282,2.282s-2.282-1.004-2.282-2.282" fill="none" stroke="#000" stroke-miterlimit="10" stroke-width=".395"/></g><path d="M98.094,155.433c0,7.593-6.246,13.745-13.95,13.745s-13.953-6.152-13.953-13.745,6.246-13.755,13.953-13.755,13.95,6.159,13.95,13.755" fill="#221f1f" stroke="#fff" stroke-miterlimit="10" stroke-width="1.5"/><rect x="70.048" y="147.775" width="27.228" height="47.133" fill="none"/><path d="M85.646,162.811h-1.846v-11.762c-.444.424-1.027.848-1.749,1.271s-1.369.742-1.943.954v-1.784c1.032-.485,1.935-1.073,2.707-1.764s1.319-1.36,1.641-2.01h1.189v15.094Z" fill="#fff"/><polygon points="150.552 151.897 126.789 139.976 126.71 147.476 100.578 148.028 100.42 161.686 126.552 161.134 126.394 168.713 150.552 151.897" fill="#231f20" stroke="#fff" stroke-linecap="round" stroke-linejoin="round" stroke-width="1.579"/><polygon points="262.901 170.352 301.822 177.3 307.111 165.616 296.296 166.642 283.032 159.616 258.559 162.142 272.532 169.326 262.901 170.352" fill="#fff" stroke="#fff" stroke-width=".789"/><polygon points="265.215 170.194 297.663 176.037 302.005 166.247 293.084 167.116 281.005 160.721 261.584 162.773 274.531 169.168 265.215 170.194" fill="#010101"/><polygon points="276.322 150.773 237.401 143.747 232.111 155.431 242.848 154.484 256.19 161.51 280.585 158.905 266.69 151.8 276.322 150.773" fill="#fff" stroke="#fff" stroke-width=".789"/><polygon points="272.794 150.931 240.347 145.089 235.847 154.879 244.926 154.01 257.005 160.405 275.399 158.431 263.478 151.879 272.794 150.931" fill="#010101"/></svg>