<?xml version="1.0" encoding="UTF-8"?><svg xmlns="http://www.w3.org/2000/svg" width="7.04in" height="3.809in" viewBox="0 0 506.868 274.235"><g id="a"><path d="M343.024,182.225s6.249,0,7.602-.833l.625-6.561,2.083-7.394,2.083-2.499,1.458-5.936,4.166.417s1.787.024,1.721-1.524l.329-4.247,83.74,9.882,2.263,13.712,2.396,3.328.957,6.291s.543.814.326,1.628l.868.651,8.681.922s5.263,1.79,4.34,5.371l-1.031,7.433.868,3.689s-.163,4.937-5.968,5.643c0,0-5.209,1.573-6.89-6.131l-96.483-13.212-.406,6.175s-.357,2.03-1.86,1.336l-12.889-1.85s-.983-.173-.983-2.081l.751-12.137s.192-1.43,1.252-2.073Z" fill="#d1d3d4"/><path d="M15.641,144.121l-.781.029-1.529-.226-.557-.549-3.462-20.881c-.215-1.973,2.127-1.538,2.127-1.538l5.628-3.263.091-.025.071.02,4.015,1.062.074.02.065.044.05.035.088.158,3.543,20.393s.263.745-.342,1.162-9.082,3.559-9.082,3.559Z" fill="none" stroke="#231f20" stroke-linecap="round" stroke-linejoin="round" stroke-width=".5"/><path d="M14.696,75.474l3.691,23.1-.063.567-2.305,1.111-7.716,1.51-1.959-.207-.607-.696-3.635-23.686,7.923-2.911.099-.01.072.026,4.209.914s.237.054.292.282Z" fill="none" stroke="#231f20" stroke-linecap="round" stroke-linejoin="round" stroke-width=".5"/><path d="M42.235,61.244l-24.355,9.761s-1.287.54-1.556,1.815" fill="none" stroke="#231f20" stroke-linecap="round" stroke-linejoin="round" stroke-width=".5"/><path d="M11.681,74.29l.497-.426c1.809-1.096,4.006-.804,4.006-.804l.969-.25,4.377-2.105.066-.024.108-.025.056.012,5.571.436s1.064.102,1.304,1.546l2.49,16.87.114.769s.519,2.001,1.663,1.808,4.54-2.164,4.54-2.164l.929.462,7.528-3.422" fill="none" stroke="#231f20" stroke-linecap="round" stroke-linejoin="round" stroke-width=".5"/><path d="M48.437,98.764l-.669.497.187,2.556-24.147,12.281s-1.354.659-1.444,1.768" fill="none" stroke="#231f20" stroke-linecap="round" stroke-linejoin="round" stroke-width=".5"/><polyline points="31.349 88.494 32.419 88.318 34.355 88.242 39.649 85.911 44.259 86.523" fill="none" stroke="#231f20" stroke-linecap="round" stroke-linejoin="round" stroke-width=".5"/><path d="M18.324,99.141l4.854.102,3.661-1.607s2.849,6.989-2.006,7.576c0,0-1.802.109-2.552-1.001" fill="none" stroke="#231f20" stroke-linecap="round" stroke-linejoin="round" stroke-width=".5"/><path d="M21.605,104.14c-.076.087-.161.163-.253.228-.647.451-1.772.157-2.529-.495-.865-.745-1.074-1.916-.467-2.615s1.801-.661,2.666.084,1.191,2.1.584,2.799Z" fill="none" stroke="#231f20" stroke-linecap="round" stroke-linejoin="round" stroke-width=".5"/><line x1="25.955" y1="102.053" x2="21.312" y2="104.442" fill="none" stroke="#231f20" stroke-linecap="round" stroke-linejoin="round" stroke-width=".5"/><line x1="21.625" y1="99.416" x2="18.434" y2="101.092" fill="none" stroke="#231f20" stroke-linecap="round" stroke-linejoin="round" stroke-width=".5"/><path d="M28.984,145.836c.946,1.124,2.47.627,2.47.627,3.83-2.081,1.369-6.678,1.369-6.678l-3.259,1.77-3.676-.574-.096,1.531-1.626-1.578" fill="none" stroke="#231f20" stroke-linecap="round" stroke-linejoin="round" stroke-width=".5"/><path d="M27.956,145.94c-.468.725-1.602.824-2.532.221s-1.417-1.719-.949-2.444,1.715-.786,2.645-.182,1.304,1.681.836,2.406Z" fill="none" stroke="#231f20" stroke-linecap="round" stroke-linejoin="round" stroke-width=".5"/><line x1="27.872" y1="146.261" x2="31.909" y2="143.408" fill="none" stroke="#231f20" stroke-linecap="round" stroke-linejoin="round" stroke-width=".5"/><line x1="31.868" y1="146.374" x2="50.266" y2="135.626" fill="none" stroke="#231f20" stroke-linecap="round" stroke-linejoin="round" stroke-width=".5"/><polyline points="47.033 85.782 47.145 85.769 50.326 85.391 50.592 85.218 50.821 85.005 50.976 84.725 51.053 84.338 51.14 82.382 51.771 81.344 51.882 78.899 51.8 77.679 51.506 76.745 51.032 76.052 50.526 75.709 49.963 75.62 48.942 75.463 48.641 75.485 47.6 75.994 46.917 76.938 46.481 78.209 46.365 79.139 46.252 81.817 46.828 82.563 46.743 84.546 46.475 84.722 46.188 85.02 46.02 85.524 46.013 85.613 45.89 88.504 45.887 88.582" fill="none" stroke="#231f20" stroke-linecap="round" stroke-linejoin="round" stroke-width=".5"/><path d="M78.847,78.558l-.937.548c-1.067,1.094-1.164,3.273-1.164,3.273l-.158,2.765.497.757-.117,2.047s.146,1.07.659,1.339l-.171,2.958-.007.112" fill="none" stroke="#231f20" stroke-linecap="round" stroke-linejoin="round" stroke-width=".5"/><polyline points="47.023 88.787 47.036 88.48 47.15 85.815 47.419 85.64 47.707 85.341 47.876 84.837 47.883 84.747 47.969 82.762 47.395 82.015 47.51 79.335 47.546 78.891 47.782 77.816 48.202 76.875 48.937 76.019 49.781 75.675 50.08 75.653" fill="none" stroke="#231f20" stroke-linecap="round" stroke-linejoin="round" stroke-width=".5"/><path d="M45.89,88.504l-.261.035-.402.053-.239.103-.233.144-.147.17-.104.239-.049.266-.228,4.629.19,1.491.657,1.356,1.027,1.012,1.376.585,28.832,3.133.146.004.824.021,3.19-.744s2.168-.506,2.476-2.714l.191-3.521c.004-1.285-1.253-1.143-1.253-1.143l.112-3.41s.034-.929-.568-.876l-2.241.249" fill="none" stroke="#231f20" stroke-linecap="round" stroke-linejoin="round" stroke-width=".5"/><polyline points="79.278 93.889 80.372 94.074 83.288 93.517" fill="none" stroke="#231f20" stroke-linecap="round" stroke-linejoin="round" stroke-width=".5"/><path d="M46.815,90.255s-.192,2.142-.193,3.846,1.334,1.544,1.334,1.544l27.638,2.783c.443-.115.504-1.104.504-1.104l.249-4.16s.096-.739.774-.899l.359-.065" fill="none" stroke="#231f20" stroke-linecap="round" stroke-linejoin="round" stroke-width=".5"/><polyline points="75.534 97.219 52.041 94.839 51.809 94.763 51.511 94.471 51.321 94.08 51.269 93.644 51.452 89.352 51.428 89.089 51.348 88.878 51.172 88.672 51.005 88.501 50.641 88.348 50.344 88.3 50.197 88.298 46.905 88.755 45.887 88.582" fill="none" stroke="#231f20" stroke-linecap="round" stroke-linejoin="round" stroke-width=".5"/><polyline points="55.92 127.353 52.846 128.331 51.871 128.123" fill="none" stroke="#231f20" stroke-linecap="round" stroke-linejoin="round" stroke-width=".5"/><path d="M52.57,126.468l.431-.132h.003s2.643-.808,2.643-.808c0,0,.664-.278.697-.955l.087-1.829.593-1.075.11-2.287c.073-2.174-1.155-2.802-1.155-2.802l-1.607-.092c-1.04.039-1.893,1.724-1.893,1.724l-.411,1.255-.11.883-.114,2.502.535.591-.085,1.853s-.524.345-.701.966l-.118,2.596v.021s-.001.002-.001.002l-.007.156" fill="none" stroke="#231f20" stroke-linecap="round" stroke-linejoin="round" stroke-width=".5"/><polyline points="86.264 132.538 83.535 133.645 82.49 133.423" fill="none" stroke="#231f20" stroke-linecap="round" stroke-linejoin="round" stroke-width=".5"/><line x1="85.477" y1="128.449" x2="82.738" y2="129.496" fill="none" stroke="#231f20" stroke-linecap="round" stroke-linejoin="round" stroke-width=".5"/><polyline points="85.82 128.449 86.069 128.71 86.325 129.094 86.442 129.627 86.439 129.713 86.27 132.434 86.264 132.538" fill="none" stroke="#231f20" stroke-linecap="round" stroke-linejoin="round" stroke-width=".5"/><path d="M82.148,133.423l.173-2.863c-.413-.341-.628-1.282-.628-1.282l.115-1.909-.463-.592.154-2.578s.427-3.984,2.549-4.284" fill="none" stroke="#231f20" stroke-linecap="round" stroke-linejoin="round" stroke-width=".5"/><path d="M52.442,129.246l.024-.524.104-2.255.258-.152.277-.267.163-.464.007-.084.086-1.855-.533-.591.15-2.922s.599-3.007,2.157-3.533" fill="none" stroke="#231f20" stroke-linecap="round" stroke-linejoin="round" stroke-width=".5"/><path d="M82.091,133.453c-.938.356-.995.959-.995.959l-.261,4.222-.333.688-26.876-3.073s-1.186-.334-1.134-1.715.157-3.426.157-3.426" fill="none" stroke="#231f20" stroke-linecap="round" stroke-linejoin="round" stroke-width=".5"/><polyline points="82.549 124.412 82.394 126.993 82.853 127.585 82.738 129.496 82.99 129.762 83.2 130.052 83.329 130.379 83.366 130.78 83.232 132.987 83.192 133.645" fill="none" stroke="#231f20" stroke-linecap="round" stroke-linejoin="round" stroke-width=".5"/><path d="M86.232,132.65l.394.083s.71.091.791,1.052l-.335,5.319s.098,1.602-1.631,2.417l-2.223.645c-.978.375-2.206.262-2.206.262l-27.621-3.193c-3.153-.878-3.102-4.278-3.102-4.278l.214-4.549s-.016-.737,1.021-1.011l.346-.108" fill="none" stroke="#231f20" stroke-linecap="round" stroke-linejoin="round" stroke-width=".5"/><path d="M55.925,128.598l.414.087s.832-.129.771.925l-.18,4.038s-.168,1.046.775,1.195l22.965,2.532" fill="none" stroke="#231f20" stroke-linecap="round" stroke-linejoin="round" stroke-width=".5"/><path d="M81.52,76.429c-2.69.689-3.387,5.051-3.387,5.051l.241,3.224s.592,1.498,2.022,2.028" fill="none" stroke="#231f20" stroke-linecap="round" stroke-linejoin="round" stroke-width=".5"/><polyline points="82.929 88.406 82.224 88.265 82.187 88.256" fill="none" stroke="#231f20" stroke-linecap="round" stroke-linejoin="round" stroke-width=".5"/><path d="M47.856,73.631s-1.043-11.216-1.237-12.74c-.207-1.623,1.648-1.902,1.648-1.902l32.738,2.853s2.283.323,2.596,1.719" fill="none" stroke="#231f20" stroke-linecap="round" stroke-linejoin="round" stroke-width=".5"/><path d="M103.635,93.361l.059.01.041.007,5.067.852s.702.198,1.18-.165l3.825-2.61" fill="none" stroke="#231f20" stroke-linecap="round" stroke-linejoin="round" stroke-width=".5"/><path d="M112.854,76.517l-4.322,3.148-5.819-.947-.064-.105-.318-.511-.46-.379-.566-.2-.957-.144-.129.025-.49.048-.125.042-.005.003-.238.114-9.892,5.125c-1.064.805-.91,2.13-.91,2.13l.884,14.241s.087,1.516,1.465,1.961c0,0,1.658.454,2.638-.28l9.539-5.905.189-.308.025-.057.118-.555.007-.053-.006-.146-.64-14.556-.012-.057-.024-.112-.07-.326" fill="none" stroke="#231f20" stroke-linecap="round" stroke-linejoin="round" stroke-width=".5"/><polyline points="88.745 90.889 85.676 87.482 85.523 87.267 85.412 87.015 85.363 86.754 84.49 73.501 84.503 73.256 84.58 73.024 84.716 72.834 88.579 68.984 88.757 68.854 88.982 68.782 89.23 68.781 92.978 69.315 96.757 69.852 97.611 70.139 97.806 70.205 98.64 70.825 99.293 71.665 99.374 71.85 99.65 72.483 99.8 73.333" fill="none" stroke="#231f20" stroke-linecap="round" stroke-linejoin="round" stroke-width=".5"/><polyline points="99.8 73.333 99.814 73.627 99.887 75.147 99.909 75.605 99.995 77.377" fill="none" stroke="#231f20" stroke-linecap="round" stroke-linejoin="round" stroke-width=".5"/><polyline points="89.158 95.92 84.242 95.325 83.776 95.122 83.563 94.931 83.393 94.698 83.278 94.437 83.226 94.168 80.68 68.711 80.677 68.669 80.53 66.577 80.454 65.496 80.453 65.363 80.517 65.052 80.672 64.799 80.979 64.598 81.359 64.565 82.228 64.685 84.244 64.964 101.46 66.567 101.963 66.772 102.19 66.974 102.368 67.224 102.487 67.506 102.536 67.799 103.008 78.741" fill="none" stroke="#231f20" stroke-linecap="round" stroke-linejoin="round" stroke-width=".5"/><polyline points="106.765 95.104 106.741 95.364 106.648 95.594 106.495 95.775 106.317 95.896 105.249 96.735 105.22 96.756 105.119 96.835 104.986 96.937 104.669 97.113 101.161 96.818 100.359 96.681" fill="none" stroke="#231f20" stroke-linecap="round" stroke-linejoin="round" stroke-width=".5"/><polyline points="104.251 70.614 104.295 71.664 104.296 71.701 104.472 75.966 104.483 76.219 104.578 78.523 104.605 78.764 104.591 78.82" fill="none" stroke="#231f20" stroke-linecap="round" stroke-linejoin="round" stroke-width=".5"/><line x1="104.233" y1="70.273" x2="104.237" y2="70.271" fill="none" stroke="#231f20" stroke-linecap="round" stroke-linejoin="round" stroke-width=".5"/><polyline points="104.249 70.568 104.251 70.614 104.247 70.617" fill="none" stroke="#231f20" stroke-linecap="round" stroke-linejoin="round" stroke-width=".5"/><polyline points="104.245 70.57 104.249 70.568 104.237 70.271 104.089 66.695 104.039 66.395 103.914 66.107 103.686 65.813 103.393 65.596 103.024 65.474 82.93 63.669 80.979 64.598" fill="none" stroke="#231f20" stroke-linecap="round" stroke-linejoin="round" stroke-width=".5"/><path d="M100.178,82.003s-2.437,7.929.901,12.194" fill="none" stroke="#231f20" stroke-linecap="round" stroke-linejoin="round" stroke-width=".5"/><path d="M97.45,83.628s-2.651,8.853.741,12.137" fill="none" stroke="#231f20" stroke-linecap="round" stroke-linejoin="round" stroke-width=".5"/><path d="M94.58,85.026s-2.809,5.812.847,12.432" fill="none" stroke="#231f20" stroke-linecap="round" stroke-linejoin="round" stroke-width=".5"/><line x1="27.432" y1="99.549" x2="44.288" y2="91.36" fill="none" stroke="#231f20" stroke-linecap="round" stroke-linejoin="round" stroke-width=".5"/><line x1="25.735" y1="105.079" x2="44.549" y2="96.179" fill="none" stroke="#231f20" stroke-linecap="round" stroke-linejoin="round" stroke-width=".5"/><line x1="33.5" y1="141.442" x2="50.41" y2="131.457" fill="none" stroke="#231f20" stroke-linecap="round" stroke-linejoin="round" stroke-width=".5"/><line x1="50.266" y1="85.525" x2="50.175" y2="88.234" fill="none" stroke="#231f20" stroke-linecap="round" stroke-linejoin="round" stroke-width=".5"/><path d="M86.133,118.083c-2.649,1.246-3.188,5.457-3.188,5.457l.215,3.082s.845,2.588,3.24,1.102l.499-.364" fill="none" stroke="#231f20" stroke-linecap="round" stroke-linejoin="round" stroke-width=".5"/><polyline points="84.314 112.398 84.12 112.106 83.377 111.348 82.45 110.4 82.163 110.108 77.816 105.378 77.58 105.201 77.315 105.108 71.162 104.08 71.02 104.077 70.961 104.076 70.785 104.131 70.641 104.25 70.556 104.418 70.562 104.479 70.554 104.541 70.022 106.139 69.937 106.548 69.964 106.742 70.061 106.935 70.202 107.101 70.388 107.24 70.602 107.329 71.951 107.814 73.231 108.275 75.753 109.692 78.195 111.652 79.034 112.597 80.261 113.977 80.45 114.169 80.683 114.302 80.953 114.36 81.199 114.317 81.418 114.136 81.59 114.046 81.616 114.035 81.671 114.012 81.752 114.008 83.327 113.378 83.394 113.36 83.456 113.348 83.959 113.094 84.294 112.905 84.365 112.71 84.314 112.398" fill="none" stroke="#231f20" stroke-linecap="round" stroke-linejoin="round" stroke-width=".5"/><polyline points="52.699 101.27 52.663 101.306 52.644 101.338 52.591 101.355 52.465 101.393 51.954 101.944 51.844 102.938 52.409 108.099 52.448 108.639 52.554 109.785 52.633 110.513 53.161 115.335" fill="none" stroke="#231f20" stroke-linecap="round" stroke-linejoin="round" stroke-width=".5"/><line x1="463.804" y1="189.951" x2="470.976" y2="190.865" fill="none" stroke="#231f20" stroke-linecap="round" stroke-linejoin="round" stroke-width=".5"/><path d="M465.724,201.746s.35-2.234.92-6.396-4.512-5.257-4.512-5.257l-8.498-1.095c-1.426-.359-1.76-1.449-1.76-1.449l-100.766-12.674-.405,6.667" fill="none" stroke="#231f20" stroke-linecap="round" stroke-linejoin="round" stroke-width=".5"/><line x1="131.055" y1="147.913" x2="350.071" y2="175.582" fill="none" stroke="#231f20" stroke-linecap="round" stroke-linejoin="round" stroke-width=".5"/><line x1="98.106" y1="143.75" x2="118.187" y2="146.287" fill="none" stroke="#231f20" stroke-linecap="round" stroke-linejoin="round" stroke-width=".5"/><line x1="84.619" y1="142.046" x2="93.928" y2="143.222" fill="none" stroke="#231f20" stroke-linecap="round" stroke-linejoin="round" stroke-width=".5"/><line x1="47.533" y1="137.361" x2="50.611" y2="137.75" fill="none" stroke="#231f20" stroke-linecap="round" stroke-linejoin="round" stroke-width=".5"/><line x1="44.121" y1="96.796" x2="44.645" y2="103.017" fill="none" stroke="#231f20" stroke-linecap="round" stroke-linejoin="round" stroke-width=".5"/><polyline points="40.671 54.936 173.095 4.593 462.625 18.32 494.87 92.061 40.615 55.106 41.13 61.236" fill="none" stroke="#231f20" stroke-linecap="round" stroke-linejoin="round" stroke-width=".5"/><line x1="350.113" y1="126.659" x2="207.382" y2="111.956" fill="none" stroke="#231f20" stroke-linecap="round" stroke-linejoin="round" stroke-width=".5"/><line x1="458.545" y1="137.828" x2="365.77" y2="128.272" fill="none" stroke="#231f20" stroke-linecap="round" stroke-linejoin="round" stroke-width=".5"/><polyline points="87.023 59.164 84.447 60.459 484.375 94.516 476.471 139.675 467.629 138.764" fill="none" stroke="#231f20" stroke-linecap="round" stroke-linejoin="round" stroke-width=".5"/><path d="M101.65,78.903l-9.183,4.541s-1.07.58-1.011,2.733c.062,2.256,1.002,12.799,1.002,12.799" fill="none" stroke="#231f20" stroke-linecap="round" stroke-linejoin="round" stroke-width=".5"/><path d="M14.108,75.584l-1.144.284-7.552,1.547s-1.403.227-1.196,1.598,3.812,22.363,3.812,22.363" fill="none" stroke="#231f20" stroke-linecap="round" stroke-linejoin="round" stroke-width=".5"/><line x1="12.815" y1="78.971" x2="15.604" y2="96.887" fill="none" stroke="#231f20" stroke-linecap="round" stroke-linejoin="round" stroke-width=".5"/><line x1="11.354" y1="81.366" x2="13.514" y2="95.392" fill="none" stroke="#231f20" stroke-linecap="round" stroke-linejoin="round" stroke-width=".5"/><line x1="9.853" y1="83.721" x2="11.464" y2="93.936" fill="none" stroke="#231f20" stroke-linecap="round" stroke-linejoin="round" stroke-width=".5"/><line x1="8.55" y1="86.119" x2="9.493" y2="92.366" fill="none" stroke="#231f20" stroke-linecap="round" stroke-linejoin="round" stroke-width=".5"/><line x1="7.168" y1="88.164" x2="7.6" y2="90.836" fill="none" stroke="#231f20" stroke-linecap="round" stroke-linejoin="round" stroke-width=".5"/><path d="M27.895,71.498l-7.481,3.23s-2.004.053-1.761,1.999,3.115,21.855,3.115,21.855" fill="none" stroke="#231f20" stroke-linecap="round" stroke-linejoin="round" stroke-width=".5"/><path d="M33.358,114.239l-7.126,4.073s-2.208.055-1.789,2.361,3.12,19.953,3.12,19.953" fill="none" stroke="#231f20" stroke-linecap="round" stroke-linejoin="round" stroke-width=".5"/><path d="M49.805,126.966l-2.888-21.901s1.204-.519,1.102-3.426" fill="none" stroke="#231f20" stroke-linecap="round" stroke-linejoin="round" stroke-width=".5"/><ellipse cx="49.797" cy="79.106" rx="1.767" ry="1.005" transform="translate(-33.115 122.269) rotate(-85.311)" fill="none" stroke="#231f20" stroke-linecap="round" stroke-linejoin="round" stroke-width=".5"/><path d="M51.098,85.478c.104.519,1.215,1.199,1.215,1.199l5.974-3.107c-1.976-5.11-.794-8.151-.794-8.151l-4.303-3.301-.589-1.495-2.186-1.599-1.216.904s-.071,1.825.172,2.658" fill="none" stroke="#231f20" stroke-linecap="round" stroke-linejoin="round" stroke-width=".5"/><path d="M43.24,76.999l2.967.031c1.843-4.37,4.238-3.938,4.238-3.938l.415,2.56" fill="none" stroke="#231f20" stroke-linecap="round" stroke-linejoin="round" stroke-width=".5"/><path d="M54.088,70.904s3.15-5.302,9.592-5.275c0,0,.295-1.949.766-2.786,0,0-.205-.618-1.058-.753s-6.352-.783-6.352-.783l-5.474,6.184s2.734,1.579,2.527,3.413Z" fill="none" stroke="#231f20" stroke-linecap="round" stroke-linejoin="round" stroke-width=".5"/><path d="M65.186,65.298s-.373-1.876.654-3.142l6.802.762,7.549,8.48s-.308,1.248-3.795,2.121c0,0-3.821-6.824-11.209-8.221Z" fill="none" stroke="#231f20" stroke-linecap="round" stroke-linejoin="round" stroke-width=".5"/><path d="M58.017,73.691l-2.444-1.68s.08-1.913,3.254-3.636c3.191-1.732,4.769-1.224,4.821-1.106l.528,3.308s-3.505-.353-6.159,3.114Z" fill="none" stroke="#231f20" stroke-linecap="round" stroke-linejoin="round" stroke-width=".5"/><path d="M66.195,67.279s6.265,1.89,8.701,7.083c0,0-1.164.831-2.44.989,0,0-1.761-3.503-6.713-5.14,0,0-1.386-3.42.452-2.932Z" fill="none" stroke="#231f20" stroke-linecap="round" stroke-linejoin="round" stroke-width=".5"/><path d="M76.635,86.673l-2.458-1.753s1.322-5.277-.815-8.155c0,0,1.605-1.379,4.457-2.519s3.53-1.938,3.53-1.938" fill="none" stroke="#231f20" stroke-linecap="round" stroke-linejoin="round" stroke-width=".5"/><path d="M57.666,85.927s.819-.986,2.096-1.029c0,0,2.743,3.933,6.86,5.22l.215,2.73s-4.876-.539-9.171-6.921Z" fill="none" stroke="#231f20" stroke-linecap="round" stroke-linejoin="round" stroke-width=".5"/><path d="M67.928,89.326s4.053.191,6.014-2.951l2.6,1.935s-1.557,4.458-8.244,3.907c0,0-.776-1.224-.37-2.892Z" fill="none" stroke="#231f20" stroke-linecap="round" stroke-linejoin="round" stroke-width=".5"/><path d="M61.372,95.975s-6.64-6.419-7.114-8.108l1.84-1.048s5.687,6.565,10.521,7.555c0,0,1.279,2.099,1.278,2.865" fill="none" stroke="#231f20" stroke-linecap="round" stroke-linejoin="round" stroke-width=".5"/><path d="M70.328,96.679s-.592-2.045-1.511-2.301c0,0,5.374-.261,8.55-4.724" fill="none" stroke="#231f20" stroke-linecap="round" stroke-linejoin="round" stroke-width=".5"/><polyline points="99.887 75.147 97.577 74.99 90.275 78.795 90.352 80.118 91.958 80.34 93.702 79.468 99.797 76.077" fill="none" stroke="#231f20" stroke-linecap="round" stroke-linejoin="round" stroke-width=".5"/><polyline points="90.352 80.118 90.461 80.787 92.414 81.014" fill="none" stroke="#231f20" stroke-linecap="round" stroke-linejoin="round" stroke-width=".5"/><polyline points="97.443 70.313 95.316 71.457 95.465 72.727 97.066 73.086 99.374 71.85" fill="none" stroke="#231f20" stroke-linecap="round" stroke-linejoin="round" stroke-width=".5"/><path d="M56.853,109.032l5.395-5.7,6.049.522.832.638s-.859,1.581-.626,2.955c0,0-5.875-.119-9.129,5.075,0,0-.285-1.349-.779-1.85l-1.741-1.639Z" fill="none" stroke="#231f20" stroke-linecap="round" stroke-linejoin="round" stroke-width=".5"/><path d="M60.773,112.949s2.298-4.103,7.751-3.873c0,0,.472.867.28,2.678,0,0-2.829-.032-5.64,3.107l-2.391-1.912Z" fill="none" stroke="#231f20" stroke-linecap="round" stroke-linejoin="round" stroke-width=".5"/><path d="M70.32,109.078s5.859.906,9.21,6.543l-2.085,1.18s-1.92-3.511-7.105-5.102l-.02-2.62Z" fill="none" stroke="#231f20" stroke-linecap="round" stroke-linejoin="round" stroke-width=".5"/><path d="M56.137,116.442l-.077-2.384-1.294-.53-.078-1.992,1.027-.886,2.257,1.461.662,1.598,3.867,3.048s-1.185,4.028.963,7.543l-5.376,2.174s-1.289-.552-1.55-1.496" fill="none" stroke="#231f20" stroke-linecap="round" stroke-linejoin="round" stroke-width=".5"/><path d="M66.382,135.759l-6.863-7.393s.345-.956,2.067-.731c0,0,3.056,4.865,9.973,7.069,0,0,.437,1.47,1.282,1.8" fill="none" stroke="#231f20" stroke-linecap="round" stroke-linejoin="round" stroke-width=".5"/><path d="M81.835,131.038c-3.384,4.12-8.707,3.785-8.707,3.785,0,0,1.192,1.353,1.192,1.85" fill="none" stroke="#231f20" stroke-linecap="round" stroke-linejoin="round" stroke-width=".5"/><path d="M86.038,114.189s-3.451,1.783-3.92,1.984-3.706,1.503-3.813,1.818,1.957,3.679.698,7.731l2.682,1.92" fill="none" stroke="#231f20" stroke-linecap="round" stroke-linejoin="round" stroke-width=".5"/><line x1="55.92" y1="127.353" x2="55.942" y2="124.78" fill="none" stroke="#231f20" stroke-linecap="round" stroke-linejoin="round" stroke-width=".5"/><line x1="24.219" y1="118.303" x2="19.464" y2="117.538" fill="none" stroke="#231f20" stroke-linecap="round" stroke-linejoin="round" stroke-width=".5"/><line x1="18.237" y1="75.237" x2="14.911" y2="74.536" fill="none" stroke="#231f20" stroke-linecap="round" stroke-linejoin="round" stroke-width=".5"/><ellipse cx="80.627" cy="82.286" rx=".95" ry="2.44" transform="translate(-.266 .262) rotate(-.186)" fill="none" stroke="#231f20" stroke-linecap="round" stroke-linejoin="round" stroke-width=".5"/><ellipse cx="85.449" cy="123.97" rx="2.075" ry="1.118" transform="translate(-46.276 196.898) rotate(-84.393)" fill="none" stroke="#231f20" stroke-linecap="round" stroke-linejoin="round" stroke-width=".5"/><path d="M72.42,130.057s3.681.245,5.852-2.268l2.645,1.837s-2.279,3.832-8.055,3.116c0,0-.582-1.677-.442-2.685Z" fill="none" stroke="#231f20" stroke-linecap="round" stroke-linejoin="round" stroke-width=".5"/><path d="M62.755,126.216s3.919,5.928,8.571,6.733c0,0-.204-1.589-.112-2.515,0,0-2.782-1.148-6.542-4.944l-1.916.727Z" fill="none" stroke="#231f20" stroke-linecap="round" stroke-linejoin="round" stroke-width=".5"/><ellipse cx="55.23" cy="119.954" rx="1.641" ry=".794" transform="translate(-72.763 152.465) rotate(-79.529)" fill="none" stroke="#231f20" stroke-linecap="round" stroke-linejoin="round" stroke-width=".5"/><line x1="109.313" y1="94.156" x2="108.585" y2="79.772" fill="none" stroke="#231f20" stroke-linecap="round" stroke-linejoin="round" stroke-width=".5"/><path d="M107.597,135.529l5.705.57s3.86-2.642,4.329-2.987" fill="none" stroke="#231f20" stroke-linecap="round" stroke-linejoin="round" stroke-width=".5"/><path d="M116.356,119.153l-4.241,2.984-5.255-.537-.062-.099-.312-.484-.451-.359-.555-.19-.939-.137-.127.024-.481.046-.123.04-.005.003-.233.108-9.705,6.047c-1.044.763-.893,2.019-.893,2.019l.867,13.499s.085,1.437,1.437,1.858c0,0,1.626.431,2.588-.266l9.359-6.786.186-.292.024-.054.115-.526.007-.051-.006-.139-.628-13.797-.011-.054-.024-.106-.069-.309" fill="none" stroke="#231f20" stroke-linecap="round" stroke-linejoin="round" stroke-width=".5"/><polyline points="93.155 132.028 90.145 128.799 89.994 128.595 89.886 128.355 89.837 128.109 88.981 115.546 88.994 115.314 89.069 115.094 89.203 114.914 92.992 111.264 93.167 111.141 93.389 111.073 93.631 111.072 97.309 111.578 101.016 112.087 101.854 112.36 102.045 112.422 102.864 113.009 103.504 113.805 103.584 113.981 103.855 114.581 104.002 115.387" fill="none" stroke="#231f20" stroke-linecap="round" stroke-linejoin="round" stroke-width=".5"/><polyline points="104.002 115.387 104.016 115.666 104.087 117.106 104.109 117.541 104.198 120.283" fill="none" stroke="#231f20" stroke-linecap="round" stroke-linejoin="round" stroke-width=".5"/><polyline points="93.56 136.796 88.738 136.232 88.28 136.041 88.071 135.859 87.905 135.638 87.791 135.391 87.74 135.136 85.243 111.006 85.24 110.966 85.095 108.983 85.021 107.958 85.019 107.832 85.082 107.538 85.235 107.298 85.536 107.107 85.909 107.076 86.761 107.19 88.739 107.454 105.631 108.973 106.125 109.167 106.347 109.36 106.522 109.596 106.639 109.864 106.687 110.141 107.096 119.278 107.178 121.109" fill="none" stroke="#231f20" stroke-linecap="round" stroke-linejoin="round" stroke-width=".5"/><polyline points="110.407 136.438 110.383 136.685 110.293 136.902 110.143 137.074 109.967 137.189 108.92 137.984 108.892 138.005 108.792 138.079 108.662 138.176 108.35 138.343 105.758 138.153" fill="none" stroke="#231f20" stroke-linecap="round" stroke-linejoin="round" stroke-width=".5"/><polyline points="108.369 112.809 108.412 113.805 108.413 113.84 108.586 117.883 108.597 118.122 108.69 120.306 108.716 120.535 108.702 120.587 108.715 120.874 108.719 120.969 108.72 121.005 108.731 121.046 108.728 121.182" fill="none" stroke="#231f20" stroke-linecap="round" stroke-linejoin="round" stroke-width=".5"/><line x1="108.352" y1="112.486" x2="108.356" y2="112.484" fill="none" stroke="#231f20" stroke-linecap="round" stroke-linejoin="round" stroke-width=".5"/><polyline points="108.367 112.765 108.369 112.809 108.365 112.812" fill="none" stroke="#231f20" stroke-linecap="round" stroke-linejoin="round" stroke-width=".5"/><polyline points="108.363 112.768 108.367 112.765 108.356 112.484 108.21 109.095 108.161 108.811 108.039 108.538 107.815 108.258 107.527 108.053 107.165 107.937 87.45 106.226 85.536 107.107" fill="none" stroke="#231f20" stroke-linecap="round" stroke-linejoin="round" stroke-width=".5"/><path d="M104.373,124.713s-2.391,7.516.884,11.559" fill="none" stroke="#231f20" stroke-linecap="round" stroke-linejoin="round" stroke-width=".5"/><path d="M101.696,126.552s-2.601,8.391.727,11.505" fill="none" stroke="#231f20" stroke-linecap="round" stroke-linejoin="round" stroke-width=".5"/><path d="M98.88,128.376s-2.756,5.509.831,11.784" fill="none" stroke="#231f20" stroke-linecap="round" stroke-linejoin="round" stroke-width=".5"/><path d="M105.818,121.775l-9.009,5.493s-1.05.55-.992,2.591c.061,2.139.983,12.132.983,12.132" fill="none" stroke="#231f20" stroke-linecap="round" stroke-linejoin="round" stroke-width=".5"/><polyline points="104.004 116.296 101.738 116.147 94.656 120.564 94.732 121.818 96.308 122.028 98.019 121.202 104.056 117.119" fill="none" stroke="#231f20" stroke-linecap="round" stroke-linejoin="round" stroke-width=".5"/><polyline points="94.732 121.818 94.84 122.453 96.235 122.657 96.755 122.668 98.188 122.824 104.037 118.831" fill="none" stroke="#231f20" stroke-linecap="round" stroke-linejoin="round" stroke-width=".5"/><polyline points="101.546 112.378 99.602 113.609 99.608 114.902 101.179 115.242 103.584 113.981" fill="none" stroke="#231f20" stroke-linecap="round" stroke-linejoin="round" stroke-width=".5"/><line x1="113.101" y1="135.999" x2="112.228" y2="122.173" fill="none" stroke="#231f20" stroke-linecap="round" stroke-linejoin="round" stroke-width=".5"/><path d="M202.452,76.204c1.018.062,5.567.72,5.567.72,0,0,4.974.81,4.658,5.196l.289,5.605s.482,4.205-4.293,4.293" fill="none" stroke="#231f20" stroke-linecap="round" stroke-linejoin="round" stroke-width=".5"/><polyline points="202.934 74.057 124.61 67.038 124.689 70.474" fill="none" stroke="#231f20" stroke-linecap="round" stroke-linejoin="round" stroke-width=".5"/><path d="M78.112,86.959l.494.757-.118,2.049.265.272.221.299.135.344.04.426-.156,2.685-.382,5.081s-.068,1.496-1.041,2.606" fill="none" stroke="#231f20" stroke-linecap="round" stroke-linejoin="round" stroke-width=".5"/><path d="M83.51,134.905l-.252,4.483s-.032,1.485-.812,2.396" fill="none" stroke="#231f20" stroke-linecap="round" stroke-linejoin="round" stroke-width=".5"/><ellipse cx="218.31" cy="99.791" rx="1.217" ry="1.422" transform="translate(117.401 317.587) rotate(-89.706)" fill="none" stroke="#231f20" stroke-linecap="round" stroke-linejoin="round" stroke-width=".5"/><ellipse cx="218.257" cy="104.957" rx="1.217" ry="1.422" transform="translate(112.183 322.673) rotate(-89.706)" fill="none" stroke="#231f20" stroke-linecap="round" stroke-linejoin="round" stroke-width=".5"/><path d="M21.8,77.299l4.502-1.997s.735-.348.826.383,2.24,16.643,2.24,16.643c0,0,.183.87-.414,1.267s-4.364,2.273-4.364,2.273c0,0-.781.302-.872-.338l-2.469-17.195s-.321-.645.552-1.036Z" fill="none" stroke="#231f20" stroke-linecap="round" stroke-linejoin="round" stroke-width=".5"/><path d="M28.41,120.813l4.131-2.563s.735-.318.826.352,2.213,15.239,2.213,15.239c0,0,.183.797-.414,1.16s-4.132,2.535-4.132,2.535c0,0-.781.275-.872-.312l-2.304-15.464s-.321-.592.552-.948Z" fill="none" stroke="#231f20" stroke-linecap="round" stroke-linejoin="round" stroke-width=".5"/><ellipse cx="40.65" cy="122.99" rx="2.474" ry="1.397" transform="translate(-88.394 134.241) rotate(-76.693)" fill="none" stroke="#231f20" stroke-linecap="round" stroke-linejoin="round" stroke-width=".5"/><ellipse cx="39.655" cy="112.102" rx="2.474" ry="1.397" transform="translate(-78.565 124.891) rotate(-76.693)" fill="none" stroke="#231f20" stroke-linecap="round" stroke-linejoin="round" stroke-width=".5"/><ellipse cx="34.872" cy="82.18" rx="2.474" ry="1.397" transform="translate(-53.128 97.201) rotate(-76.693)" fill="none" stroke="#231f20" stroke-linecap="round" stroke-linejoin="round" stroke-width=".5"/><ellipse cx="33.342" cy="70.779" rx="2.474" ry="1.397" transform="translate(-43.212 86.935) rotate(-76.693)" fill="none" stroke="#231f20" stroke-linecap="round" stroke-linejoin="round" stroke-width=".5"/><path d="M21.522,119.007l-1.169.54-7.487,2.052s-1.348.005-1.172,1.242,3.393,20.394,3.393,20.394c0,0,.354.571.78.616" fill="none" stroke="#231f20" stroke-linecap="round" stroke-linejoin="round" stroke-width=".5"/><line x1="19.854" y1="122.564" x2="22.363" y2="138.749" fill="none" stroke="#231f20" stroke-linecap="round" stroke-linejoin="round" stroke-width=".5"/><line x1="18.433" y1="124.963" x2="20.519" y2="137.545" fill="none" stroke="#231f20" stroke-linecap="round" stroke-linejoin="round" stroke-width=".5"/><line x1="17.084" y1="127.222" x2="18.568" y2="136.41" fill="none" stroke="#231f20" stroke-linecap="round" stroke-linejoin="round" stroke-width=".5"/><line x1="15.734" y1="129.481" x2="16.653" y2="135.206" fill="none" stroke="#231f20" stroke-linecap="round" stroke-linejoin="round" stroke-width=".5"/><line x1="14.526" y1="131.707" x2="14.844" y2="133.933" fill="none" stroke="#231f20" stroke-linecap="round" stroke-linejoin="round" stroke-width=".5"/><path d="M49.756,55.795l-4.586,1.824s-.292-.739-1.168-.38c0,0-1.6.153-1.601,1.477l.417,3.147-1.191,2.117,2.841,22.327" fill="none" stroke="#231f20" stroke-linecap="round" stroke-linejoin="round" stroke-width=".5"/><path d="M52.675,56.239l-2.728,1.332-3.68.127.063,1.269s-.56.529-.375,2.104l1.505,13.614" fill="none" stroke="#231f20" stroke-linecap="round" stroke-linejoin="round" stroke-width=".5"/><path d="M18.357,117.655s.463-1.401,4.214-1.653l4.993-2.493,6.048.567s1.134.025,1.4,1.488,2.192,15.498,2.192,15.498c0,0,.107,3.71,2.81,1.949,2.703-1.761,3.223-2.015,3.223-2.015l.725.484,6.648-3.788s-.828-1.607-5.198-1.571l-5.601,3.022s-.958-.475-2.659.282" fill="none" stroke="#231f20" stroke-linecap="round" stroke-linejoin="round" stroke-width=".5"/><line x1="83.528" y1="62.899" x2="87.188" y2="60.802" fill="none" stroke="#231f20" stroke-linecap="round" stroke-linejoin="round" stroke-width=".5"/><polygon points="223.67 112.382 223.554 94.941 218.111 94.44 218.129 88.554 213.335 88.22 213.704 111.454 223.67 112.382" fill="none" stroke="#231f20" stroke-linecap="round" stroke-linejoin="round" stroke-width=".5"/><ellipse cx="203.922" cy="89.427" rx="4.851" ry="5.102" transform="translate(15.964 208.814) rotate(-56.102)" fill="none" stroke="#231f20" stroke-linecap="round" stroke-linejoin="round" stroke-width=".5"/><path d="M200.856,85.349l4.762-3.072c.944-.214,1.975-.152,2.968.238,2.553,1.003,3.883,3.795,2.971,6.237-.101.269-.224.523-.368.76l-4.042,3.993" fill="none" stroke="#231f20" stroke-linecap="round" stroke-linejoin="round" stroke-width=".5"/><ellipse cx="203.84" cy="89.495" rx="2.885" ry="3.035" transform="translate(15.871 208.776) rotate(-56.102)" fill="none" stroke="#231f20" stroke-linecap="round" stroke-linejoin="round" stroke-width=".5"/><line x1="204.428" y1="87.89" x2="203.198" y2="91.043" fill="none" stroke="#231f20" stroke-linecap="round" stroke-linejoin="round" stroke-width=".5"/><line x1="202.059" y1="88.542" x2="205.695" y2="90.37" fill="none" stroke="#231f20" stroke-linecap="round" stroke-linejoin="round" stroke-width=".5"/><path d="M202.452,83.782v-8.937s.219-1.358.92-.482" fill="none" stroke="#231f20" stroke-linecap="round" stroke-linejoin="round" stroke-width=".5"/><path d="M112.937,73.421l10.818,1.194.16.049.138.105.096.145.039.163.656,13.332c-.026.406-.386.352-.386.352l-10.641-1.333c-.418-.041-.438-.707-.438-.707l-.819-12.932s.011-.39.377-.368Z" fill="none" stroke="#231f20" stroke-linecap="round" stroke-linejoin="round" stroke-width=".5"/><path d="M125.928,85.18l.051,2.588s-.537.915-1.224,1.067" fill="none" stroke="#231f20" stroke-linecap="round" stroke-linejoin="round" stroke-width=".5"/><path d="M125.567,74.687l.004-.003.965-.698.264-.139,2.497-.829.122.074.106.559.112,7.52s.095.868-.325,1.211l-1.59,1.897-1.434.563" fill="none" stroke="#231f20" stroke-linecap="round" stroke-linejoin="round" stroke-width=".5"/><path d="M125.928,85.18l-.362-10.447-1.347-1.348,2.215-1.107,4.139-.718-.456-.352-3.674-.458-4.052,1.248-1.348.603-6.19.34-1.321-.115s-.698.222-.806.714" fill="none" stroke="#231f20" stroke-linecap="round" stroke-linejoin="round" stroke-width=".5"/><path d="M126.643,88.611s-.791-.531-.377-.945c.845-.845,4.566-5.189,4.566-5.189l-.26-10.919" fill="none" stroke="#231f20" stroke-linecap="round" stroke-linejoin="round" stroke-width=".5"/><path d="M198.482,91.047c-1.318,1.938-4.031-.155-4.031-.155l-61.156-5.658s-2.17,1.55-3.643-.698" fill="none" stroke="#231f20" stroke-linecap="round" stroke-linejoin="round" stroke-width=".5"/><path d="M202.452,94.582c1.018.062,5.567.72,5.567.72,0,0,4.974.81,4.658,5.196l.289,5.605s.482,4.205-4.293,4.293" fill="none" stroke="#231f20" stroke-linecap="round" stroke-linejoin="round" stroke-width=".5"/><ellipse cx="204.358" cy="107.684" rx="4.851" ry="5.102" transform="translate(1.003 217.25) rotate(-56.102)" fill="none" stroke="#231f20" stroke-linecap="round" stroke-linejoin="round" stroke-width=".5"/><path d="M201.291,103.606l4.762-3.072c.944-.214,1.975-.152,2.968.238,2.553,1.003,3.883,3.795,2.971,6.237-.101.269-.224.523-.368.76l-4.042,3.993" fill="none" stroke="#231f20" stroke-linecap="round" stroke-linejoin="round" stroke-width=".5"/><ellipse cx="204.276" cy="107.752" rx="2.885" ry="3.035" transform="translate(.91 217.212) rotate(-56.102)" fill="none" stroke="#231f20" stroke-linecap="round" stroke-linejoin="round" stroke-width=".5"/><line x1="204.864" y1="106.147" x2="203.634" y2="109.301" fill="none" stroke="#231f20" stroke-linecap="round" stroke-linejoin="round" stroke-width=".5"/><line x1="202.495" y1="106.799" x2="206.13" y2="108.627" fill="none" stroke="#231f20" stroke-linecap="round" stroke-linejoin="round" stroke-width=".5"/><line x1="202.452" y1="102.16" x2="202.452" y2="94.929" fill="none" stroke="#231f20" stroke-linecap="round" stroke-linejoin="round" stroke-width=".5"/><path d="M114.258,91.304l10.818,1.194.16.049.138.105.096.145.039.163.656,13.332c-.026.406-.386.352-.386.352l-10.641-1.333c-.418-.041-.438-.707-.438-.707l-.819-12.932s.011-.39.377-.368Z" fill="none" stroke="#231f20" stroke-linecap="round" stroke-linejoin="round" stroke-width=".5"/><path d="M127.248,103.063l.051,2.588s-.537.915-1.224,1.067" fill="none" stroke="#231f20" stroke-linecap="round" stroke-linejoin="round" stroke-width=".5"/><path d="M126.887,92.57l.004-.003.965-.698.264-.139,2.497-.829.122.074.106.559.112,7.52s.095.868-.325,1.211l-1.59,1.897-1.434.563" fill="none" stroke="#231f20" stroke-linecap="round" stroke-linejoin="round" stroke-width=".5"/><path d="M127.248,103.063l-.362-10.447-1.347-1.348,2.215-1.107,4.139-.718-.456-.352-3.674-.458-4.052,1.248-1.348.603-6.19.34-1.321-.115s-.698.222-.806.714" fill="none" stroke="#231f20" stroke-linecap="round" stroke-linejoin="round" stroke-width=".5"/><path d="M131.893,89.442l.26,10.919s-3.633,4.443-4.566,5.189" fill="none" stroke="#231f20" stroke-linecap="round" stroke-linejoin="round" stroke-width=".5"/><line x1="199.043" y1="109.307" x2="130.751" y2="102.435" fill="none" stroke="#231f20" stroke-linecap="round" stroke-linejoin="round" stroke-width=".5"/><path d="M203.741,120.601c.989.068,5.405.757,5.405.757,0,0,4.829.843,4.522,5.22l.281,5.598s.468,4.202-4.168,4.257" fill="none" stroke="#231f20" stroke-linecap="round" stroke-linejoin="round" stroke-width=".5"/><polyline points="204.208 118.461 128.1 110.725 128.242 114.345" fill="none" stroke="#231f20" stroke-linecap="round" stroke-linejoin="round" stroke-width=".5"/><ellipse cx="219.137" cy="142.913" rx="1.215" ry="1.381" transform="translate(68.064 356.506) rotate(-87.839)" fill="none" stroke="#231f20" stroke-linecap="round" stroke-linejoin="round" stroke-width=".5"/><ellipse cx="219.085" cy="148.07" rx="1.215" ry="1.381" transform="translate(62.86 361.416) rotate(-87.839)" fill="none" stroke="#231f20" stroke-linecap="round" stroke-linejoin="round" stroke-width=".5"/><polygon points="224.34 155.313 224.228 138.987 218.944 138.449 218.961 132.573 214.306 132.207 214.664 154.318 224.34 155.313" fill="none" stroke="#231f20" stroke-linecap="round" stroke-linejoin="round" stroke-width=".5"/><path d="M209.762,135.716c-.906,2.508-3.698,3.69-6.236,2.639-2.537-1.051-3.86-3.936-2.953-6.445s3.698-3.69,6.236-2.639,3.86,3.936,2.953,6.445Z" fill="none" stroke="#231f20" stroke-linecap="round" stroke-linejoin="round" stroke-width=".5"/><path d="M202.191,129.721l4.624-3.034c.916-.207,1.918-.138,2.881.258,2.478,1.019,3.77,3.816,2.885,6.247-.098.268-.218.521-.357.756l-3.924,3.959" fill="none" stroke="#231f20" stroke-linecap="round" stroke-linejoin="round" stroke-width=".5"/><path d="M207.821,135.013c-.539,1.492-2.2,2.195-3.709,1.57s-2.296-2.341-1.757-3.833,2.2-2.195,3.709-1.57,2.296,2.341,1.757,3.833Z" fill="none" stroke="#231f20" stroke-linecap="round" stroke-linejoin="round" stroke-width=".5"/><line x1="205.659" y1="132.282" x2="204.465" y2="135.422" fill="none" stroke="#231f20" stroke-linecap="round" stroke-linejoin="round" stroke-width=".5"/><line x1="203.359" y1="132.917" x2="206.889" y2="134.767" fill="none" stroke="#231f20" stroke-linecap="round" stroke-linejoin="round" stroke-width=".5"/><path d="M203.741,128.167v-8.923s.213-1.354.893-.475" fill="none" stroke="#231f20" stroke-linecap="round" stroke-linejoin="round" stroke-width=".5"/><path d="M116.833,116.631l10.503,1.266.155.05.134.106.093.146.038.163.637,13.315c-.026.405-.375.349-.375.349l-10.331-1.404c-.406-.043-.426-.709-.426-.709l-.795-12.918s.011-.389.366-.365Z" fill="none" stroke="#231f20" stroke-linecap="round" stroke-linejoin="round" stroke-width=".5"/><path d="M129.445,128.461l.049,2.584s-.521.91-1.188,1.056" fill="none" stroke="#231f20" stroke-linecap="round" stroke-linejoin="round" stroke-width=".5"/><path d="M129.094,117.981l.004-.003.937-.69.256-.137,2.424-.81.118.075.103.559.109,7.509s.092.867-.315,1.207l-1.544,1.883-1.392.552" fill="none" stroke="#231f20" stroke-linecap="round" stroke-linejoin="round" stroke-width=".5"/><path d="M129.445,128.461l-.352-10.434-1.308-1.355,2.15-1.091,4.019-.689-.443-.355-3.567-.483-3.934,1.218-1.309.592-6.01.296-1.282-.124s-.678.217-.783.708" fill="none" stroke="#231f20" stroke-linecap="round" stroke-linejoin="round" stroke-width=".5"/><path d="M133.954,114.892l.252,10.904s-3.527,4.411-4.433,5.149" fill="none" stroke="#231f20" stroke-linecap="round" stroke-linejoin="round" stroke-width=".5"/><path d="M200.281,134.527c-2.268,1.731-4.297,0-4.297,0l-59.386-7.085s-2.107,1.533-3.537-.722" fill="none" stroke="#231f20" stroke-linecap="round" stroke-linejoin="round" stroke-width=".5"/><path d="M207.867,138.215c.741.112,1.278.196,1.278.196,0,0,4.829.843,4.522,5.22l.281,5.598s.468,4.202-4.168,4.257" fill="none" stroke="#231f20" stroke-linecap="round" stroke-linejoin="round" stroke-width=".5"/><ellipse cx="205.591" cy="151.47" rx="4.598" ry="4.936" transform="translate(-17.702 275.368) rotate(-65.406)" fill="none" stroke="#231f20" stroke-linecap="round" stroke-linejoin="round" stroke-width=".5"/><path d="M202.186,147.807l4.637-4.031c.916-.207,2.331-.293,3.295.104,2.478,1.019,3.77,3.816,2.885,6.247-.098.268-.218.521-.357.756l-3.924,3.959" fill="none" stroke="#231f20" stroke-linecap="round" stroke-linejoin="round" stroke-width=".5"/><ellipse cx="205.511" cy="151.533" rx="2.735" ry="2.936" transform="translate(-17.807 275.333) rotate(-65.406)" fill="none" stroke="#231f20" stroke-linecap="round" stroke-linejoin="round" stroke-width=".5"/><line x1="206.082" y1="150.021" x2="204.888" y2="152.992" fill="none" stroke="#231f20" stroke-linecap="round" stroke-linejoin="round" stroke-width=".5"/><line x1="203.782" y1="150.622" x2="207.312" y2="152.372" fill="none" stroke="#231f20" stroke-linecap="round" stroke-linejoin="round" stroke-width=".5"/><line x1="203.741" y1="145.687" x2="203.741" y2="138.467" fill="none" stroke="#231f20" stroke-linecap="round" stroke-linejoin="round" stroke-width=".5"/><path d="M117.942,133.655l10.543.931.156.045.135.1.094.14.038.159.646,13.069c-.026.399-.376.355-.376.355l-10.371-1.072c-.408-.03-.428-.685-.428-.685l-.804-12.673s.01-.383.368-.37Z" fill="none" stroke="#231f20" stroke-linecap="round" stroke-linejoin="round" stroke-width=".5"/><path d="M130.607,144.906l.051,2.539s-.523.91-1.192,1.074" fill="none" stroke="#231f20" stroke-linecap="round" stroke-linejoin="round" stroke-width=".5"/><path d="M130.25,134.616l.004-.003.94-.706.257-.143,2.433-.869.119.07.104.547.113,7.377s.093.85-.316,1.196l-1.549,1.897-1.397.584" fill="none" stroke="#231f20" stroke-linecap="round" stroke-linejoin="round" stroke-width=".5"/><path d="M130.607,144.906l-.358-10.245-1.314-1.293,2.158-1.136,4.034-.797-.445-.335-3.581-.368-3.948,1.315-1.314.621-6.033.471-1.287-.083s-.68.233-.786.719" fill="none" stroke="#231f20" stroke-linecap="round" stroke-linejoin="round" stroke-width=".5"/><path d="M135.127,131.435l.259,10.71s-3.538,4.441-4.447,5.194" fill="none" stroke="#231f20" stroke-linecap="round" stroke-linejoin="round" stroke-width=".5"/><line x1="24.855" y1="143.312" x2="27.862" y2="141.29" fill="none" stroke="#231f20" stroke-linecap="round" stroke-linejoin="round" stroke-width=".5"/><path d="M52.591,101.355s.354-.652,2.446-.456,31.076,3.464,31.076,3.464c0,0,2.062.253,2.255,1.765" fill="none" stroke="#231f20" stroke-linecap="round" stroke-linejoin="round" stroke-width=".5"/><line x1="98.019" y1="121.202" x2="98.188" y2="122.824" fill="none" stroke="#231f20" stroke-linecap="round" stroke-linejoin="round" stroke-width=".5"/><line x1="96.308" y1="122.028" x2="96.383" y2="122.69" fill="none" stroke="#231f20" stroke-linecap="round" stroke-linejoin="round" stroke-width=".5"/><line x1="90.235" y1="100.837" x2="82.092" y2="100.084" fill="none" stroke="#231f20" stroke-linecap="round" stroke-linejoin="round" stroke-width=".5"/><line x1="114.435" y1="103.075" x2="93.072" y2="101.1" fill="none" stroke="#231f20" stroke-linecap="round" stroke-linejoin="round" stroke-width=".5"/><path d="M90.868,101.585l-.927.618s-1.589,1.192,1.148,1.413,24.47,2.466,24.47,2.466" fill="none" stroke="#231f20" stroke-linecap="round" stroke-linejoin="round" stroke-width=".5"/><line x1="87.815" y1="105.074" x2="90.191" y2="103.609" fill="none" stroke="#231f20" stroke-linecap="round" stroke-linejoin="round" stroke-width=".5"/><path d="M116.414,105.537c-.82.426-.918,1.312-.918,1.312l360.526,38.659" fill="none" stroke="#231f20" stroke-linecap="round" stroke-linejoin="round" stroke-width=".5"/><line x1="135.246" y1="143.616" x2="199.961" y2="151.77" fill="none" stroke="#231f20" stroke-linecap="round" stroke-linejoin="round" stroke-width=".5"/><line x1="452.533" y1="186.235" x2="470.295" y2="188.484" fill="none" stroke="#231f20" stroke-linecap="round" stroke-linejoin="round" stroke-width=".5"/><line x1="209.169" y1="155.419" x2="350.676" y2="173.337" fill="none" stroke="#231f20" stroke-linecap="round" stroke-linejoin="round" stroke-width=".5"/><line x1="133.324" y1="145.816" x2="201.211" y2="154.412" fill="none" stroke="#231f20" stroke-linecap="round" stroke-linejoin="round" stroke-width=".5"/><line x1="101.625" y1="141.802" x2="118.392" y2="143.946" fill="none" stroke="#231f20" stroke-linecap="round" stroke-linejoin="round" stroke-width=".5"/><line x1="89.246" y1="140.235" x2="93.034" y2="140.714" fill="none" stroke="#231f20" stroke-linecap="round" stroke-linejoin="round" stroke-width=".5"/><line x1="108.866" y1="118.607" x2="115.655" y2="119.309" fill="none" stroke="#231f20" stroke-linecap="round" stroke-linejoin="round" stroke-width=".5"/><line x1="129.363" y1="103.92" x2="200.705" y2="111.268" fill="none" stroke="#231f20" stroke-linecap="round" stroke-linejoin="round" stroke-width=".5"/><line x1="114.863" y1="87.877" x2="114.878" y2="90.251" fill="none" stroke="#231f20" stroke-linecap="round" stroke-linejoin="round" stroke-width=".5"/><path d="M112.322,63.184s-.776.228-.73,1.141v1.187s1.415-.365,1.369,2.876h1.78l.026,4.199" fill="none" stroke="#231f20" stroke-linecap="round" stroke-linejoin="round" stroke-width=".5"/><line x1="119.208" y1="131.237" x2="119.29" y2="133.15" fill="none" stroke="#231f20" stroke-linecap="round" stroke-linejoin="round" stroke-width=".5"/><path d="M116.083,106.961s-.618-.009-.572.904v.781s1.415-.365,1.369,2.876l1.483.034.17,4.502" fill="none" stroke="#231f20" stroke-linecap="round" stroke-linejoin="round" stroke-width=".5"/><path d="M128.082,86.39l4.551.345s.138-.758.69-.758,66.676,6.481,66.676,6.481" fill="none" stroke="#231f20" stroke-linecap="round" stroke-linejoin="round" stroke-width=".5"/><path d="M132.28,128.615l3.528.392s-.078-.706,1.019-.784,63.817,7.762,63.817,7.762" fill="none" stroke="#231f20" stroke-linecap="round" stroke-linejoin="round" stroke-width=".5"/><ellipse cx="107.242" cy="72.907" rx="2.252" ry="2.577" transform="translate(-18.51 41.24) rotate(-20.075)" fill="none" stroke="#231f20" stroke-linecap="round" stroke-linejoin="round" stroke-width=".5"/><ellipse cx="107.242" cy="72.907" rx="1.436" ry="1.643" transform="translate(-18.51 41.24) rotate(-20.075)" fill="none" stroke="#231f20" stroke-linecap="round" stroke-linejoin="round" stroke-width=".5"/><ellipse cx="111.301" cy="115.532" rx="2.252" ry="2.577" transform="translate(-32.894 45.223) rotate(-20.075)" fill="none" stroke="#231f20" stroke-linecap="round" stroke-linejoin="round" stroke-width=".5"/><ellipse cx="111.301" cy="115.532" rx="1.436" ry="1.643" transform="translate(-32.894 45.223) rotate(-20.075)" fill="none" stroke="#231f20" stroke-linecap="round" stroke-linejoin="round" stroke-width=".5"/><line x1="104.483" y1="76.219" x2="112.191" y2="76.952" fill="none" stroke="#231f20" stroke-linecap="round" stroke-linejoin="round" stroke-width=".5"/><polyline points="111.591 76.538 111.002 65.395 102.12 64.685 101.238 65.269" fill="none" stroke="#231f20" stroke-linecap="round" stroke-linejoin="round" stroke-width=".5"/><line x1="112.99" y1="102.968" x2="112.452" y2="92.798" fill="none" stroke="#231f20" stroke-linecap="round" stroke-linejoin="round" stroke-width=".5"/><line x1="86.286" y1="61.562" x2="111.665" y2="63.723" fill="none" stroke="#231f20" stroke-linecap="round" stroke-linejoin="round" stroke-width=".5"/><path d="M113.056,108.081s1.494.081,2.503-.929" fill="none" stroke="#231f20" stroke-linecap="round" stroke-linejoin="round" stroke-width=".5"/><line x1="105.546" y1="107.758" x2="105.909" y2="107.354" fill="none" stroke="#231f20" stroke-linecap="round" stroke-linejoin="round" stroke-width=".5"/><polyline points="115.357 119.265 114.929 108.354 105.937 107.371" fill="none" stroke="#231f20" stroke-linecap="round" stroke-linejoin="round" stroke-width=".5"/><polyline points="116.39 134.106 116.712 141.285 116.021 141.235 116.113 143.587" fill="none" stroke="#231f20" stroke-linecap="round" stroke-linejoin="round" stroke-width=".5"/><line x1="49.122" y1="59.094" x2="55.72" y2="56.366" fill="none" stroke="#231f20" stroke-linecap="round" stroke-linejoin="round" stroke-width=".5"/><path d="M43.235,63.844l1.025-1.74-.28-3.2s-.571-.86,1.19-1.284" fill="none" stroke="#231f20" stroke-linecap="round" stroke-linejoin="round" stroke-width=".5"/><polyline points="46.17 62.648 42.472 64.169 42.591 65.57" fill="none" stroke="#231f20" stroke-linecap="round" stroke-linejoin="round" stroke-width=".5"/><polyline points="46.75 75.664 45.786 66.295 41.979 66.147" fill="none" stroke="#231f20" stroke-linecap="round" stroke-linejoin="round" stroke-width=".5"/><path d="M49.805,98.903l-.58.491v.491s.848,4.061-1.071,5.356" fill="none" stroke="#231f20" stroke-linecap="round" stroke-linejoin="round" stroke-width=".5"/><path d="M50.966,103.589l-3.303,1.964.089,1.026,1.517.089.045-.491s1.384-.402,1.741,1.026" fill="none" stroke="#231f20" stroke-linecap="round" stroke-linejoin="round" stroke-width=".5"/><polyline points="52.483 116.397 51.412 107.605 47.262 107.382" fill="none" stroke="#231f20" stroke-linecap="round" stroke-linejoin="round" stroke-width=".5"/><path d="M55.072,114.389s-3.66,1.026-3.436,5.266" fill="none" stroke="#231f20" stroke-linecap="round" stroke-linejoin="round" stroke-width=".5"/><path d="M55.92,114.389s-2.235.627-3.105,2.925" fill="none" stroke="#231f20" stroke-linecap="round" stroke-linejoin="round" stroke-width=".5"/><line x1="48.555" y1="117.419" x2="51.801" y2="117.68" fill="none" stroke="#231f20" stroke-linecap="round" stroke-linejoin="round" stroke-width=".5"/><path d="M50.38,73.522s-2.09.197-3.195,2.958" fill="none" stroke="#231f20" stroke-linecap="round" stroke-linejoin="round" stroke-width=".5"/><path d="M353.764,94.454l6.534-1.032s1.718.344,2.519-1.374l.229-.916,5.039.458-1.145,2.977,1.031.916" fill="none" stroke="#231f20" stroke-linecap="round" stroke-linejoin="round" stroke-width=".5"/><path d="M351.811,108.651l1.202-12.995s.075-1.502,2.103-1.352,11.493.826,11.493.826c0,0,1.577-.225,1.427,1.803s-1.127,13.296-1.127,13.296c0,0,.15,1.502-1.427,1.502s-12.394-1.127-12.394-1.127c0,0-1.352-.376-1.277-1.953Z" fill="none" stroke="#231f20" stroke-linecap="round" stroke-linejoin="round" stroke-width=".5"/><path d="M349.658,143.704c-.089-.535.591-.789.591-.789l6.006-.638s1.757-.03,2.512-1.696l.483-1.78,4.74.444-1.166,4.255s.771.441.771,1.332" fill="none" stroke="#231f20" stroke-linecap="round" stroke-linejoin="round" stroke-width=".5"/><path d="M348.529,156.383l1.013-12.302s.071-.917,1.979-.771,10.813.802,10.813.802c0,0,1.484-.219,1.343,1.749s-.943,12.053-.943,12.053c0,0,.141,1.457-1.343,1.457s-11.661-1.093-11.661-1.093c0,0-1.272-.364-1.201-1.895Z" fill="none" stroke="#231f20" stroke-linecap="round" stroke-linejoin="round" stroke-width=".5"/><path d="M352.188,114.782l6.493-1.006s1.707.335,2.503-1.34l.228-.893,5.007.447-1.138,2.903,1.024.893" fill="none" stroke="#231f20" stroke-linecap="round" stroke-linejoin="round" stroke-width=".5"/><path d="M350.247,128.624l1.194-12.67s.075-1.465,2.09-1.318,11.42.806,11.42.806c0,0,1.568-.22,1.418,1.758s-1.12,12.963-1.12,12.963c0,0,.149,1.465-1.418,1.465s-12.316-1.099-12.316-1.099c0,0-1.344-.366-1.269-1.904Z" fill="none" stroke="#231f20" stroke-linecap="round" stroke-linejoin="round" stroke-width=".5"/><path d="M355.116,94.304s.524-4.009,3.454-4.576h3.119l.189-2.363,97.357,8.369,1.603.138-.095,1.796" fill="none" stroke="#231f20" stroke-linecap="round" stroke-linejoin="round" stroke-width=".5"/><path d="M459.043,97.573l2.363.756,7.75.756s4.859-.063,4.859,5.041l-.798,5.68" fill="none" stroke="#231f20" stroke-linecap="round" stroke-linejoin="round" stroke-width=".5"/><line x1="457.881" y1="115.231" x2="367.172" y2="106.93" fill="none" stroke="#231f20" stroke-linecap="round" stroke-linejoin="round" stroke-width=".5"/><line x1="359.525" y1="111.751" x2="359.327" y2="113.83" fill="none" stroke="#231f20" stroke-linecap="round" stroke-linejoin="round" stroke-width=".5"/><line x1="361.595" y1="90.106" x2="361.331" y2="92.867" fill="none" stroke="#231f20" stroke-linecap="round" stroke-linejoin="round" stroke-width=".5"/><polyline points="488.397 91.628 489.453 94.065 487.991 100.319" fill="none" stroke="#231f20" stroke-linecap="round" stroke-linejoin="round" stroke-width=".5"/><line x1="483.984" y1="93.586" x2="489.453" y2="94.065" fill="none" stroke="#231f20" stroke-linecap="round" stroke-linejoin="round" stroke-width=".5"/><polyline points="485.428 95.46 488.621 102.879 488.434 104.57 486.367 104.476 486.367 103.537 483.55 103.349" fill="none" stroke="#231f20" stroke-linecap="round" stroke-linejoin="round" stroke-width=".5"/><path d="M482.906,104.862s.271.217,1.842.379,3.901.271,3.901.271l-2.222,13.005s-5.419-.433-5.798-.921" fill="none" stroke="#231f20" stroke-linecap="round" stroke-linejoin="round" stroke-width=".5"/><path d="M490.117,94.288l1.545.257s.601.601.601,1.802l-.944,4.033.172,2.231" fill="none" stroke="#231f20" stroke-linecap="round" stroke-linejoin="round" stroke-width=".5"/><line x1="494.87" y1="92.061" x2="493.995" y2="97.302" fill="none" stroke="#231f20" stroke-linecap="round" stroke-linejoin="round" stroke-width=".5"/><polyline points="492.12 97.259 494.893 98.252 495.596 98.831 495.513 99.452 493.734 99.452 500.811 116.088 500.893 118.82" fill="none" stroke="#231f20" stroke-linecap="round" stroke-linejoin="round" stroke-width=".5"/><path d="M498.286,117.744s.207-.497-.207-2.235-6.414-15.974-6.414-15.974" fill="none" stroke="#231f20" stroke-linecap="round" stroke-linejoin="round" stroke-width=".5"/><path d="M502.171,120.596l-.897-1.37-3.495-1.606-.992-3.306-8.292-.754s-.794-.112-.847.407" fill="none" stroke="#231f20" stroke-linecap="round" stroke-linejoin="round" stroke-width=".5"/><path d="M487.768,114.28l1.686,4.384s1.641.292,1.596,2.203l-5,27.809-1.63.396,4.535.561s.511-.073.706-1.169-.244-2.728,1.461-2.849" fill="none" stroke="#231f20" stroke-linecap="round" stroke-linejoin="round" stroke-width=".5"/><line x1="491.012" y1="118.861" x2="500.984" y2="119.577" fill="none" stroke="#231f20" stroke-linecap="round" stroke-linejoin="round" stroke-width=".5"/><polyline points="478.927 135.542 483.1 148.972 483.528 146.564 484.42 148.632 489.265 119.254" fill="none" stroke="#231f20" stroke-linecap="round" stroke-linejoin="round" stroke-width=".5"/><path d="M495.406,121.577l-4.976,28.358.535.535,5.779,4.387c1.177.428,1.231-.589,1.231-.589,0,0,4.548-25.629,4.815-27.288s-.375-1.819-.375-1.819c0,0-4.441-2.515-5.779-3.264s-.803-1.445-.803-1.445l6.902.375,1.445,3.424,1.508.488s.705.235.274,2.115l-5.091,27.962s0,.705-.392.822l-3.251-.587" fill="none" stroke="#231f20" stroke-linecap="round" stroke-linejoin="round" stroke-width=".5"/><polyline points="479.529 129.954 481.287 135.554 482.655 138.744 486.428 118.517" fill="none" stroke="#231f20" stroke-linecap="round" stroke-linejoin="round" stroke-width=".5"/><line x1="496.263" y1="125.852" x2="492.551" y2="147.794" fill="none" stroke="#231f20" stroke-linecap="round" stroke-linejoin="round" stroke-width=".5"/><line x1="497.304" y1="129.108" x2="494.374" y2="146.167" fill="none" stroke="#231f20" stroke-linecap="round" stroke-linejoin="round" stroke-width=".5"/><line x1="498.151" y1="132.298" x2="496.067" y2="144.799" fill="none" stroke="#231f20" stroke-linecap="round" stroke-linejoin="round" stroke-width=".5"/><line x1="499.128" y1="135.424" x2="497.76" y2="143.432" fill="none" stroke="#231f20" stroke-linecap="round" stroke-linejoin="round" stroke-width=".5"/><line x1="499.844" y1="138.679" x2="499.245" y2="141.944" fill="none" stroke="#231f20" stroke-linecap="round" stroke-linejoin="round" stroke-width=".5"/><path d="M490.047,102.713l2.126.12s1.364,1.284-.08,4.653l-2.539-.024.015-.029c.963-2.527.318-4.68.318-4.68l-.642.762-.08-3.37.682-4.333c.16-1.364-.361-1.284-.361-1.284" fill="none" stroke="#231f20" stroke-linecap="round" stroke-linejoin="round" stroke-width=".5"/><line x1="491.612" y1="107.607" x2="490.208" y2="113.504" fill="none" stroke="#231f20" stroke-linecap="round" stroke-linejoin="round" stroke-width=".5"/><line x1="489.715" y1="107.564" x2="488.433" y2="113.29" fill="none" stroke="#231f20" stroke-linecap="round" stroke-linejoin="round" stroke-width=".5"/><line x1="477.878" y1="137.3" x2="482.511" y2="152.381" fill="none" stroke="#231f20" stroke-linecap="round" stroke-linejoin="round" stroke-width=".5"/><path d="M483.007,149.047s-2.866,6.696,5.318,7.551" fill="none" stroke="#231f20" stroke-linecap="round" stroke-linejoin="round" stroke-width=".5"/><ellipse cx="489.465" cy="154.571" rx="3.092" ry="2.217" fill="none" stroke="#231f20" stroke-linecap="round" stroke-linejoin="round" stroke-width=".5"/><path d="M485.884,150.808c.388-.658,1.295-1.119,2.353-1.119,1.411,0,2.054.57,2.554,1.833l.408,1.195" fill="none" stroke="#231f20" stroke-linecap="round" stroke-linejoin="round" stroke-width=".5"/><path d="M486.326,155.133l-1.446-.971s.041-.826.268-1.074l1.404.599" fill="none" stroke="#231f20" stroke-linecap="round" stroke-linejoin="round" stroke-width=".5"/><path d="M486.78,153.419l-.785-2.478-1.156.083s-.413-.062-.413.351l.454,2.561" fill="none" stroke="#231f20" stroke-linecap="round" stroke-linejoin="round" stroke-width=".5"/><line x1="491.716" y1="151.568" x2="492.356" y2="153.793" fill="none" stroke="#231f20" stroke-linecap="round" stroke-linejoin="round" stroke-width=".5"/><polyline points="492.965 151.843 493.666 154.037 492.557 154.571" fill="none" stroke="#231f20" stroke-linecap="round" stroke-linejoin="round" stroke-width=".5"/><path d="M492.264,155.713s1.554-.03,1.402-1.676" fill="none" stroke="#231f20" stroke-linecap="round" stroke-linejoin="round" stroke-width=".5"/><path d="M494.764,153.336s-.366.914-1.067,1.554" fill="none" stroke="#231f20" stroke-linecap="round" stroke-linejoin="round" stroke-width=".5"/><polyline points="499.028 111.842 499.852 111.842 505.492 124.639" fill="none" stroke="#231f20" stroke-linecap="round" stroke-linejoin="round" stroke-width=".5"/><path d="M351.264,101.069l-1.637,24.335-10.531-.925,1.423-18.216,5.123.427s.854.142.925-.854.427-5.123.427-5.123l4.269.356Z" fill="none" stroke="#231f20" stroke-linecap="round" stroke-linejoin="round" stroke-width=".5"/><ellipse cx="345.109" cy="112.205" rx="1.459" ry="1.388" fill="none" stroke="#231f20" stroke-linecap="round" stroke-linejoin="round" stroke-width=".5"/><ellipse cx="344.683" cy="117.328" rx="1.459" ry="1.388" fill="none" stroke="#231f20" stroke-linecap="round" stroke-linejoin="round" stroke-width=".5"/><ellipse cx="341.965" cy="158.005" rx="1.459" ry="1.388" fill="none" stroke="#231f20" stroke-linecap="round" stroke-linejoin="round" stroke-width=".5"/><ellipse cx="341.538" cy="163.128" rx="1.459" ry="1.388" fill="none" stroke="#231f20" stroke-linecap="round" stroke-linejoin="round" stroke-width=".5"/><path d="M111.654,64.981l203.875,17.492s1.315,1.061,1.406,2.88,0,8.095,3.002,9.187" fill="none" stroke="#231f20" stroke-linecap="round" stroke-linejoin="round" stroke-width=".5"/><path d="M328.396,95.813s4.093.546,5.457-3.274,2.274-8.277,4.275-8.004l144.257,12.552s1.16.317,1.99-2.57l-1.696-3.393" fill="none" stroke="#231f20" stroke-linecap="round" stroke-linejoin="round" stroke-width=".5"/><ellipse cx="324.555" cy="91.948" rx="5.581" ry="5.252" fill="none" stroke="#231f20" stroke-linecap="round" stroke-linejoin="round" stroke-width=".5"/><path d="M319.561,89.477l1.52-3.068c.974-1.536,2.758-2.565,4.797-2.565,3.082,0,5.581,2.351,5.581,5.252l-1.461,4.417" fill="none" stroke="#231f20" stroke-linecap="round" stroke-linejoin="round" stroke-width=".5"/><ellipse cx="324.493" cy="92.095" rx="2.885" ry="3.035" transform="translate(67.076 310.071) rotate(-56.102)" fill="none" stroke="#231f20" stroke-linecap="round" stroke-linejoin="round" stroke-width=".5"/><line x1="325.081" y1="90.49" x2="323.851" y2="93.643" fill="none" stroke="#231f20" stroke-linecap="round" stroke-linejoin="round" stroke-width=".5"/><line x1="322.712" y1="91.142" x2="326.347" y2="92.97" fill="none" stroke="#231f20" stroke-linecap="round" stroke-linejoin="round" stroke-width=".5"/><ellipse cx="467.444" cy="113.69" rx="6.139" ry="5.533" fill="none" stroke="#231f20" stroke-linecap="round" stroke-linejoin="round" stroke-width=".5"/><path d="M461.33,114.39l-.741-5.182c.619-2.466,3.065-4.307,5.987-4.307,2.316,0,4.333,1.156,5.378,2.864l1.427,4.458" fill="none" stroke="#231f20" stroke-linecap="round" stroke-linejoin="round" stroke-width=".5"/><ellipse cx="467.512" cy="113.845" rx="3.311" ry="3.064" transform="translate(-12.014 153.634) rotate(-18.429)" fill="none" stroke="#231f20" stroke-linecap="round" stroke-linejoin="round" stroke-width=".5"/><line x1="466.866" y1="112.154" x2="468.219" y2="115.476" fill="none" stroke="#231f20" stroke-linecap="round" stroke-linejoin="round" stroke-width=".5"/><line x1="469.472" y1="112.841" x2="465.473" y2="114.767" fill="none" stroke="#231f20" stroke-linecap="round" stroke-linejoin="round" stroke-width=".5"/><ellipse cx="464.325" cy="134.315" rx="6.139" ry="5.533" fill="none" stroke="#231f20" stroke-linecap="round" stroke-linejoin="round" stroke-width=".5"/><path d="M458.21,135.016l-.741-5.182c.619-2.466,3.065-4.307,5.987-4.307,2.316,0,4.333,1.156,5.378,2.864l1.427,4.458" fill="none" stroke="#231f20" stroke-linecap="round" stroke-linejoin="round" stroke-width=".5"/><ellipse cx="464.393" cy="134.47" rx="3.311" ry="3.064" transform="translate(-18.694 153.705) rotate(-18.429)" fill="none" stroke="#231f20" stroke-linecap="round" stroke-linejoin="round" stroke-width=".5"/><line x1="463.746" y1="132.779" x2="465.099" y2="136.101" fill="none" stroke="#231f20" stroke-linecap="round" stroke-linejoin="round" stroke-width=".5"/><line x1="466.352" y1="133.467" x2="462.353" y2="135.392" fill="none" stroke="#231f20" stroke-linecap="round" stroke-linejoin="round" stroke-width=".5"/><ellipse cx="459.733" cy="163.489" rx="6.139" ry="5.533" fill="none" stroke="#231f20" stroke-linecap="round" stroke-linejoin="round" stroke-width=".5"/><path d="M453.619,164.189l-.741-5.182c.619-2.466,3.065-4.307,5.987-4.307,2.316,0,4.333,1.156,5.378,2.864l1.427,4.458" fill="none" stroke="#231f20" stroke-linecap="round" stroke-linejoin="round" stroke-width=".5"/><ellipse cx="459.802" cy="163.644" rx="3.311" ry="3.064" transform="translate(-28.152 153.75) rotate(-18.429)" fill="none" stroke="#231f20" stroke-linecap="round" stroke-linejoin="round" stroke-width=".5"/><line x1="459.155" y1="161.953" x2="460.508" y2="165.275" fill="none" stroke="#231f20" stroke-linecap="round" stroke-linejoin="round" stroke-width=".5"/><line x1="461.761" y1="162.64" x2="457.762" y2="164.566" fill="none" stroke="#231f20" stroke-linecap="round" stroke-linejoin="round" stroke-width=".5"/><ellipse cx="460.094" cy="206.646" rx="6.328" ry="5.533" fill="none" stroke="#231f20" stroke-linecap="round" stroke-linejoin="round" stroke-width=".5"/><path d="M453.789,207.249l-.81-6.713c.638-2.466,3.159-4.307,6.172-4.307,2.388,0,4.467,1.156,5.544,2.864l1.679,6.478" fill="none" stroke="#231f20" stroke-linecap="round" stroke-linejoin="round" stroke-width=".5"/><ellipse cx="460.164" cy="206.801" rx="3.406" ry="3.07" transform="translate(-35.338 111.957) rotate(-13.364)" fill="none" stroke="#231f20" stroke-linecap="round" stroke-linejoin="round" stroke-width=".5"/><line x1="459.498" y1="205.11" x2="460.892" y2="208.432" fill="none" stroke="#231f20" stroke-linecap="round" stroke-linejoin="round" stroke-width=".5"/><line x1="462.184" y1="205.798" x2="458.062" y2="207.723" fill="none" stroke="#231f20" stroke-linecap="round" stroke-linejoin="round" stroke-width=".5"/><path d="M115.62,107.976l197.618,21.865s1.218.609.929,3.428c-.186,1.812,0,8.095,3.002,9.187" fill="none" stroke="#231f20" stroke-linecap="round" stroke-linejoin="round" stroke-width=".5"/><ellipse cx="321.786" cy="139.863" rx="5.581" ry="5.252" fill="none" stroke="#231f20" stroke-linecap="round" stroke-linejoin="round" stroke-width=".5"/><path d="M316.792,137.393l1.52-3.068c.974-1.536,2.758-2.565,4.797-2.565,3.082,0,5.581,2.351,5.581,5.252l-1.461,4.417" fill="none" stroke="#231f20" stroke-linecap="round" stroke-linejoin="round" stroke-width=".5"/><ellipse cx="321.725" cy="140.011" rx="2.885" ry="3.035" transform="translate(26.08 328.966) rotate(-56.102)" fill="none" stroke="#231f20" stroke-linecap="round" stroke-linejoin="round" stroke-width=".5"/><line x1="322.313" y1="138.405" x2="321.083" y2="141.559" fill="none" stroke="#231f20" stroke-linecap="round" stroke-linejoin="round" stroke-width=".5"/><line x1="319.943" y1="139.058" x2="323.579" y2="140.886" fill="none" stroke="#231f20" stroke-linecap="round" stroke-linejoin="round" stroke-width=".5"/><path d="M117.546,72.613c-.178-.317-.279-.679-.279-1.064,0-1.241,1.049-2.247,2.342-2.247s2.342,1.006,2.342,2.247c0,.155-.016.307-.048.453" fill="none" stroke="#231f20" stroke-linecap="round" stroke-linejoin="round" stroke-width=".5"/><path d="M120.838,115.715c-.193-.344-.303-.737-.303-1.156,0-1.348,1.139-2.44,2.544-2.44s2.544,1.092,2.544,2.44c0,.168-.018.333-.052.492" fill="none" stroke="#231f20" stroke-linecap="round" stroke-linejoin="round" stroke-width=".5"/><path d="M474.868,141.016l1.379,4.545c-.981,1.025-.784,1.905-.784,1.905l-140.103-15.016c-2.001-.273-2.911,4.184-4.275,8.004s-5.457,3.274-5.457,3.274" fill="none" stroke="#231f20" stroke-linecap="round" stroke-linejoin="round" stroke-width=".5"/><polyline points="475.463 147.466 468.598 186.954 452.219 184.906" fill="none" stroke="#231f20" stroke-linecap="round" stroke-linejoin="round" stroke-width=".5"/><line x1="365.822" y1="126.495" x2="454.811" y2="135.374" fill="none" stroke="#231f20" stroke-linecap="round" stroke-linejoin="round" stroke-width=".5"/><path d="M367.509,108.228l88.755,8.442-.158,1.736,1.972.394,9.152,1.105s3.945,1.026,2.998,5.601l-.789,4.734" fill="none" stroke="#231f20" stroke-linecap="round" stroke-linejoin="round" stroke-width=".5"/><path d="M457.562,118.956l-2.293,16.349s1.11.37,2.663.518" fill="none" stroke="#231f20" stroke-linecap="round" stroke-linejoin="round" stroke-width=".5"/><polyline points="461.475 115.667 458.898 115.522 458.003 115.153 460.744 98.329" fill="none" stroke="#231f20" stroke-linecap="round" stroke-linejoin="round" stroke-width=".5"/><path d="M353.532,114.635s-.266-3.458,1.592-3.807" fill="none" stroke="#231f20" stroke-linecap="round" stroke-linejoin="round" stroke-width=".5"/><path d="M351.55,142.664s.126-5.584,2.645-5.626l4.324.084s.378-1.469.21-1.637l94.722,10.552-.196,1.276" fill="none" stroke="#231f20" stroke-linecap="round" stroke-linejoin="round" stroke-width=".5"/><path d="M451.952,146.286l-.158,1.145,1.935.395,7.938,1.027s4.858.829,3.949,5.727c-.908,4.897-.79,4.502-.79,4.502" fill="none" stroke="#231f20" stroke-linecap="round" stroke-linejoin="round" stroke-width=".5"/><line x1="451.124" y1="163.591" x2="453.571" y2="148.209" fill="none" stroke="#231f20" stroke-linecap="round" stroke-linejoin="round" stroke-width=".5"/><path d="M363.377,153.745l86.291,10.022s.927-.406,2.117.208l1.443.253" fill="none" stroke="#231f20" stroke-linecap="round" stroke-linejoin="round" stroke-width=".5"/><line x1="355.559" y1="159.331" x2="355.03" y2="165.108" fill="none" stroke="#231f20" stroke-linecap="round" stroke-linejoin="round" stroke-width=".5"/><line x1="357.558" y1="137.511" x2="357.18" y2="141.64" fill="none" stroke="#231f20" stroke-linecap="round" stroke-linejoin="round" stroke-width=".5"/><line x1="356.836" y1="159.473" x2="352.903" y2="175.009" fill="none" stroke="#231f20" stroke-linecap="round" stroke-linejoin="round" stroke-width=".5"/><polyline points="369.551 154.705 366.445 168.937 443.444 178.512 441.635 162.887" fill="none" stroke="#231f20" stroke-linecap="round" stroke-linejoin="round" stroke-width=".5"/><line x1="446.815" y1="163.407" x2="450.861" y2="185.761" fill="none" stroke="#231f20" stroke-linecap="round" stroke-linejoin="round" stroke-width=".5"/><line x1="353.53" y1="173.732" x2="450.153" y2="185.862" fill="none" stroke="#231f20" stroke-linecap="round" stroke-linejoin="round" stroke-width=".5"/><line x1="450.83" y1="205.526" x2="453.634" y2="188.998" fill="none" stroke="#231f20" stroke-linecap="round" stroke-linejoin="round" stroke-width=".5"/><path d="M357.499,185.003c0-.43.123-.984-.43-1.168s-.369-.922-.369-.922l1.414-4.981-5.206-.654-1.374,4.036c-1.414.984-7.687.984-7.687.984,0,0-1.348-.127-1.717,1.103" fill="none" stroke="#231f20" stroke-linecap="round" stroke-linejoin="round" stroke-width=".5"/><path d="M341.941,184.388s-.189-1.534,1.168-1.476c1.48.064,13.098,1.414,13.098,1.414,0,0,1.476-.123,1.353,1.537s-.922,13.221-.922,13.221c0,0-.123,1.537-1.23,1.476l-13.098-1.968s-1.414,0-1.291-1.537.922-12.668.922-12.668Z" fill="none" stroke="#231f20" stroke-linecap="round" stroke-linejoin="round" stroke-width=".5"/><polyline points="351.107 174.875 353.248 167.446 355.544 164.679" fill="none" stroke="#231f20" stroke-linecap="round" stroke-linejoin="round" stroke-width=".5"/><line x1="357.445" y1="192.949" x2="453.29" y2="206.092" fill="none" stroke="#231f20" stroke-linecap="round" stroke-linejoin="round" stroke-width=".5"/><polyline points="373.906 182.662 374.442 180.427 397.539 183.638 397.147 185.81 373.906 182.662 373.28 192.676 396.142 195.793 397.061 185.906" fill="none" stroke="#231f20" stroke-linecap="round" stroke-linejoin="round" stroke-width=".5"/><polyline points="429.721 190.144 429.453 187.64 407.308 184.773 406.894 187.055 429.721 190.144 428.022 200.068 405.839 197.15 406.905 187.186" fill="none" stroke="#231f20" stroke-linecap="round" stroke-linejoin="round" stroke-width=".5"/><polygon points="347.874 147.664 346.303 170.807 336.137 169.587 337.112 152.345 343.131 152.996 343.619 147.221 347.874 147.664" fill="none" stroke="#231f20" stroke-linecap="round" stroke-linejoin="round" stroke-width=".5"/><polygon points="268.101 93.343 265.042 93.068 265.118 85.636 278.314 86.773 278.314 94.26 275.219 93.982 275.22 95.529 268.097 94.846 268.101 93.343" fill="none" stroke="#231f20" stroke-linecap="round" stroke-linejoin="round" stroke-width=".5"/><polygon points="300.873 104.345 301.787 104.449 301.787 106.184 305.043 106.464 304.786 114.396 290.98 113.024 291.066 105.263 294.411 105.551 294.341 103.79 295.457 103.889 295.519 102.826 300.884 103.279 300.873 104.345" fill="none" stroke="#231f20" stroke-linecap="round" stroke-linejoin="round" stroke-width=".5"/><polygon points="289.534 101.492 289.262 114.709 306.651 116.652 307.077 103.006 289.534 101.492" fill="none" stroke="#231f20" stroke-linecap="round" stroke-linejoin="round" stroke-width=".5"/><polyline points="289.534 101.492 290.746 100.788 308.139 102.219 307.077 103.006" fill="none" stroke="#231f20" stroke-linecap="round" stroke-linejoin="round" stroke-width=".5"/><polyline points="306.651 116.652 307.789 114.651 308.139 102.219" fill="none" stroke="#231f20" stroke-linecap="round" stroke-linejoin="round" stroke-width=".5"/><polygon points="262.675 83.5 281.04 85.258 280.91 96.785 262.545 95.157 262.675 83.5" fill="none" stroke="#231f20" stroke-linecap="round" stroke-linejoin="round" stroke-width=".5"/><polyline points="281.04 85.258 282.29 84.051 263.737 82.404 262.675 83.5" fill="none" stroke="#231f20" stroke-linecap="round" stroke-linejoin="round" stroke-width=".5"/><polyline points="280.91 96.785 282.132 94.974 282.29 84.051" fill="none" stroke="#231f20" stroke-linecap="round" stroke-linejoin="round" stroke-width=".5"/><polygon points="236.318 85.187 250.366 86.327 250.279 92.455 236.241 91.073 236.318 85.187" fill="none" stroke="#231f20" stroke-linecap="round" stroke-linejoin="round" stroke-width=".5"/><polygon points="238.343 86.397 249.14 87.379 249.14 88.641 238.39 87.682 238.343 86.397" fill="none" stroke="#231f20" stroke-linecap="round" stroke-linejoin="round" stroke-width=".5"/><line x1="238.343" y1="86.397" x2="239.792" y2="85.509" fill="none" stroke="#231f20" stroke-linecap="round" stroke-linejoin="round" stroke-width=".5"/><line x1="249.14" y1="87.379" x2="250.366" y2="86.327" fill="none" stroke="#231f20" stroke-linecap="round" stroke-linejoin="round" stroke-width=".5"/><line x1="249.14" y1="88.641" x2="250.286" y2="87.636" fill="none" stroke="#231f20" stroke-linecap="round" stroke-linejoin="round" stroke-width=".5"/><path d="M323.484,118.33l-6.256-.611c-1.036-.101-1.883-1.021-1.882-2.044h0c0-1.023.848-1.777,1.884-1.676l6.256.611c1.036.101,1.883,1.021,1.882,2.044h0c0,1.023-.848,1.777-1.884,1.676Z" fill="none" stroke="#231f20" stroke-linecap="round" stroke-linejoin="round" stroke-width=".5"/><line x1="316.977" y1="115.323" x2="324.057" y2="116.025" fill="none" stroke="#231f20" stroke-linecap="round" stroke-linejoin="round"/><polygon points="267.233 138.378 264.241 138.063 264.375 130.756 277.283 132.065 277.223 139.427 274.196 139.109 274.185 140.63 267.218 139.855 267.233 138.378" fill="none" stroke="#231f20" stroke-linecap="round" stroke-linejoin="round" stroke-width=".5"/><polygon points="299.227 149.669 300.12 149.784 300.106 151.49 303.292 151.812 302.977 159.609 289.473 158.06 289.619 150.43 292.891 150.761 292.837 149.029 293.928 149.142 293.997 148.098 299.246 148.62 299.227 149.669" fill="none" stroke="#231f20" stroke-linecap="round" stroke-linejoin="round" stroke-width=".5"/><polygon points="288.149 146.7 287.778 159.693 304.784 161.854 305.31 148.442 288.149 146.7" fill="none" stroke="#231f20" stroke-linecap="round" stroke-linejoin="round" stroke-width=".5"/><polygon points="262 128.621 279.964 130.614 279.744 141.947 261.78 140.082 262 128.621" fill="none" stroke="#231f20" stroke-linecap="round" stroke-linejoin="round" stroke-width=".5"/><polyline points="279.964 130.614 281.197 129.445 263.048 127.559 262 128.621" fill="none" stroke="#231f20" stroke-linecap="round" stroke-linejoin="round" stroke-width=".5"/><polyline points="279.744 141.947 280.955 140.184 281.197 129.445" fill="none" stroke="#231f20" stroke-linecap="round" stroke-linejoin="round" stroke-width=".5"/><polygon points="236.185 129.9 249.928 131.224 249.795 137.248 236.063 135.687 236.185 129.9" fill="none" stroke="#231f20" stroke-linecap="round" stroke-linejoin="round" stroke-width=".5"/><polygon points="238.158 131.119 248.72 132.24 248.71 133.481 238.194 132.384 238.158 131.119" fill="none" stroke="#231f20" stroke-linecap="round" stroke-linejoin="round" stroke-width=".5"/><line x1="238.158" y1="131.119" x2="239.584" y2="130.267" fill="none" stroke="#231f20" stroke-linecap="round" stroke-linejoin="round" stroke-width=".5"/><line x1="248.72" y1="132.24" x2="249.928" y2="131.224" fill="none" stroke="#231f20" stroke-linecap="round" stroke-linejoin="round" stroke-width=".5"/><line x1="248.71" y1="133.481" x2="249.839" y2="132.509" fill="none" stroke="#231f20" stroke-linecap="round" stroke-linejoin="round" stroke-width=".5"/><path d="M321.25,163.746l-6.119-.691c-1.013-.114-1.835-1.031-1.826-2.037h0c.009-1.006.844-1.735,1.857-1.621l6.119.691c1.013.114,1.835,1.031,1.826,2.037h0c-.009,1.006-.844,1.735-1.857,1.621Z" fill="none" stroke="#231f20" stroke-linecap="round" stroke-linejoin="round" stroke-width=".5"/><line x1="314.904" y1="160.695" x2="321.828" y2="161.488" fill="none" stroke="#231f20" stroke-linecap="round" stroke-linejoin="round"/><ellipse cx="455.873" cy="176.938" rx="2.057" ry="1.593" fill="none" stroke="#231f20" stroke-linecap="round" stroke-linejoin="round" stroke-width=".5"/><polyline points="480.09 146.756 478.22 146.548 480.389 153.114 474.684 152.435" fill="none" stroke="#231f20" stroke-linecap="round" stroke-linejoin="round" stroke-width=".5"/><path d="M480.395,153.505s.429,1.054-1.444,1.015" fill="none" stroke="#231f20" stroke-linecap="round" stroke-linejoin="round" stroke-width=".5"/><path d="M474.422,154.364s.39.664,1.483.781,4.294.351,4.294.351c0,0,.468-.703-.586-.859" fill="none" stroke="#231f20" stroke-linecap="round" stroke-linejoin="round" stroke-width=".5"/><path d="M480.121,155.925l-1.796,11.711s-3.982-.234-5.153-.546c0,0-.781-.351-.781-1.015" fill="none" stroke="#231f20" stroke-linecap="round" stroke-linejoin="round" stroke-width=".5"/><path d="M484.896,156.097l3.656,12.15s.731,1.969.394,3.263" fill="none" stroke="#231f20" stroke-linecap="round" stroke-linejoin="round" stroke-width=".5"/><path d="M487.596,156.94l3.206,10.744s1.181,2.869.675,5.231" fill="none" stroke="#231f20" stroke-linecap="round" stroke-linejoin="round" stroke-width=".5"/><path d="M492.152,174.772c.113-.675-.169-1.463-.169-1.463,0,0-1.181-.563-2.194-1.181s-1.294-1.181-1.294-1.181l-.563-2.7c-.281-1.35-1.463-1.35-1.463-1.35l-6.694-.9s-1.125.056-1.013.9l1.463,5.569s.844-.056.9.45c0,0,.788.788.506,1.856l-4.444,26.1" fill="none" stroke="#231f20" stroke-linecap="round" stroke-linejoin="round" stroke-width=".5"/><line x1="482.027" y1="172.578" x2="491.308" y2="173.703" fill="none" stroke="#231f20" stroke-linecap="round" stroke-linejoin="round" stroke-width=".5"/><path d="M485.983,175.609l-4.558,25.842c-.077,1.043.348,1.197.348,1.197l5.756,5.253c.811,0,.811-.502.811-.502,0,0,4.326-24.49,4.558-25.803s-.927-1.893-.927-1.893l-5.717-4.172c-.309-.927.161-.928.161-.928l6.413.394s.264.148.457.689,1.197,3.747,1.197,3.747c0,0,1.352.773,1.468,1.506l-4.635,26.846s-.039.734-.657.888l-2.743-.502" fill="none" stroke="#231f20" stroke-linecap="round" stroke-linejoin="round" stroke-width=".5"/><path d="M481.116,201.528l-5.099-.657s-.657-.348-.579-1.082l4.674-26.962" fill="none" stroke="#231f20" stroke-linecap="round" stroke-linejoin="round" stroke-width=".5"/><path d="M470.915,183.643l2.999,14.322s1.519.528,1.524,1.825" fill="none" stroke="#231f20" stroke-linecap="round" stroke-linejoin="round" stroke-width=".5"/><path d="M478.565,207.329s-7.406-1.53-3.672-8.446" fill="none" stroke="#231f20" stroke-linecap="round" stroke-linejoin="round" stroke-width=".5"/><ellipse cx="480.656" cy="205.838" rx="2.683" ry="2.222" fill="none" stroke="#231f20" stroke-linecap="round" stroke-linejoin="round" stroke-width=".5"/><polyline points="476.827 201.061 478.125 205.114 477.346 204.856 476.405 204.045 475.935 201.726 476.973 201.693" fill="none" stroke="#231f20" stroke-linecap="round" stroke-linejoin="round" stroke-width=".5"/><polyline points="475.935 201.726 475.724 203.12 476.162 205.245 477.411 205.991 477.962 206.283" fill="none" stroke="#231f20" stroke-linecap="round" stroke-linejoin="round" stroke-width=".5"/><line x1="483.168" y1="205.036" x2="482.167" y2="203.012" fill="none" stroke="#231f20" stroke-linecap="round" stroke-linejoin="round" stroke-width=".5"/><polyline points="483.317 206.601 484.389 206.141 484.415 205.299 483.444 205.477" fill="none" stroke="#231f20" stroke-linecap="round" stroke-linejoin="round" stroke-width=".5"/><path d="M478.326,167.636l-2.144,11.44-1.685,8.993s-.245.599-.676-.078l-2.154-8.155s.616-.954,1.6-1.016,2.462.062,2.462.062" fill="none" stroke="#231f20" stroke-linecap="round" stroke-linejoin="round" stroke-width=".5"/><path d="M473.237,167.429s.213.936.128,1.83l-3.123,17.077,3.427,15.546" fill="none" stroke="#231f20" stroke-linecap="round" stroke-linejoin="round" stroke-width=".5"/><path d="M483.584,155.093s.633,1.728-.346,3.052c0,0-.691.979-.864,1.9s-1.037,5.874-1.037,5.874" fill="none" stroke="#231f20" stroke-linecap="round" stroke-linejoin="round" stroke-width=".5"/><polyline points="489.819 164.062 490.626 164.116 494.739 177.846 495.269 178.045 495.949 180.939" fill="none" stroke="#231f20" stroke-linecap="round" stroke-linejoin="round" stroke-width=".5"/><line x1="486.713" y1="179.903" x2="483.131" y2="200.465" fill="none" stroke="#231f20" stroke-linecap="round" stroke-linejoin="round" stroke-width=".5"/><line x1="487.575" y1="183.153" x2="484.723" y2="199.205" fill="none" stroke="#231f20" stroke-linecap="round" stroke-linejoin="round" stroke-width=".5"/><line x1="488.504" y1="186.337" x2="486.447" y2="198.011" fill="none" stroke="#231f20" stroke-linecap="round" stroke-linejoin="round" stroke-width=".5"/><line x1="489.432" y1="189.454" x2="487.973" y2="196.95" fill="none" stroke="#231f20" stroke-linecap="round" stroke-linejoin="round" stroke-width=".5"/><line x1="490.096" y1="192.705" x2="489.499" y2="195.557" fill="none" stroke="#231f20" stroke-linecap="round" stroke-linejoin="round" stroke-width=".5"/><path d="M451.033,164.951l-2.011,11.925,2.509,3.711.964,6.221s.569.394.394,1.621" fill="none" stroke="#231f20" stroke-linecap="round" stroke-linejoin="round" stroke-width=".5"/><polyline points="288.149 146.7 288.975 145.793 306.356 147.683 305.915 159.903 304.784 161.854" fill="none" stroke="#231f20" stroke-linecap="round" stroke-linejoin="round" stroke-width=".5"/><line x1="305.31" y1="148.442" x2="306.356" y2="147.683" fill="none" stroke="#231f20" stroke-linecap="round" stroke-linejoin="round" stroke-width=".5"/></g><g id="b"><polygon points="340.131 207.795 335.999 207.193 343.801 215.029 356.167 210.13 351.836 209.5 353.277 202.47 342.399 200.911 340.414 207.825 340.131 207.795"/><polygon points="454.986 228.263 450.501 227.687 461.586 235.282 472.393 230.498 467.691 229.894 466.427 223.062 454.629 221.571 455.289 228.292 454.986 228.263"/><polyline points="343.954 216.888 343.426 225.965 461.252 243.071 461.806 237.193" fill="none" stroke="#fff" stroke-linecap="round" stroke-linejoin="round" stroke-width="4"/><polyline points="343.954 216.888 343.426 225.965 461.252 243.071 461.806 237.193" fill="none" stroke="#000" stroke-linecap="round" stroke-linejoin="round"/><line x1="399.053" y1="245.273" x2="399.889" y2="234.549" fill="none" stroke="#000" stroke-linecap="round" stroke-linejoin="round"/><path d="M448.384,190.219c4.186-2.331,9.403-2.87,14.312-1.476,9.488,2.694,15.259,11.746,12.866,20.18-1.174,4.135-4.097,7.489-8.23,9.446-2.431,1.15-5.113,1.733-7.854,1.733-1.814,0-3.654-.255-5.465-.769-1.716-.487-3.347-1.193-4.849-2.095l2.08-3.456c1.195.719,2.497,1.281,3.87,1.671,3.609,1.025,7.334.767,10.493-.73,3.066-1.451,5.224-3.902,6.075-6.902,1.787-6.294-2.738-13.112-10.086-15.198-3.888-1.104-7.988-.695-11.248,1.119l-.04.031,1.834,3.295-8.923-1.499,3.433-8.363,1.69,3.035.044-.022Z" fill="#231f20" stroke="#fff" stroke-linecap="round" stroke-linejoin="round" stroke-width=".5"/><path d="M494.123,174.847c0,7.593-6.246,13.745-13.95,13.745s-13.953-6.152-13.953-13.745,6.246-13.755,13.953-13.755,13.95,6.159,13.95,13.755" fill="#211e1f" stroke="#fff" stroke-miterlimit="10" stroke-width="1.5"/><rect x="466.172" y="166.853" width="27.228" height="24.791" fill="none"/><path d="M481.77,181.889h-1.846v-11.761c-.444.424-1.027.848-1.748,1.271-.722.424-1.369.741-1.943.953v-1.784c1.032-.485,1.935-1.073,2.707-1.764s1.319-1.36,1.641-2.01h1.189v15.094Z" fill="#fff"/><path d="M411.342,256.985c0,7.593-6.246,13.745-13.95,13.745s-13.953-6.152-13.953-13.745,6.246-13.755,13.953-13.755,13.95,6.159,13.95,13.755" fill="#211e1f" stroke="#fff" stroke-miterlimit="10" stroke-width="1.5"/><rect x="383.861" y="248.991" width="26.758" height="24.791" fill="none"/><path d="M401.971,262.252v1.774h-9.937c-.014-.444.059-.872.216-1.282.253-.677.657-1.343,1.215-1.999.557-.656,1.362-1.415,2.415-2.276,1.634-1.34,2.737-2.401,3.312-3.184.574-.783.861-1.523.861-2.221,0-.731-.262-1.348-.784-1.851-.523-.502-1.205-.754-2.046-.754-.889,0-1.6.267-2.133.8s-.803,1.271-.81,2.215l-1.897-.194c.13-1.415.619-2.493,1.467-3.235.848-.741,1.985-1.112,3.414-1.112,1.442,0,2.584.399,3.425,1.199s1.262,1.791,1.262,2.974c0,.602-.123,1.193-.369,1.774s-.655,1.192-1.226,1.835c-.571.643-1.52,1.524-2.846,2.646-1.107.93-1.818,1.561-2.133,1.893-.314.331-.574.664-.779.999h7.373Z" fill="#fff"/><polyline points="348.183 188.767 348.199 188.146 346.331 187.857 346.293 189.427 348.16 189.716 348.175 189.095 348.835 189.197 348.768 191.899 349.135 191.956 349.15 191.335 349.846 191.443 349.83 192.064 351.661 192.347 351.701 190.74 349.87 190.457 349.855 191.078 349.159 190.97 349.251 187.209 349.947 187.317 349.931 187.937 351.762 188.221 351.802 186.614 349.971 186.331 349.955 186.988 349.259 186.88 349.275 186.223 348.909 186.166 348.843 188.869 348.183 188.767" fill="#231f20"/><path d="M347.927,196.399c-.167.114-.325.189-.479.224-.151.034-.313.038-.486.012-.283-.044-.501-.148-.65-.312-.149-.165-.222-.355-.216-.574.003-.129.035-.241.096-.339.06-.097.137-.17.232-.22s.202-.082.319-.098c.086-.009.218-.012.392-.006.355.013.618,0,.787-.031.003-.061.005-.1.005-.116.005-.181-.033-.314-.114-.401-.11-.117-.276-.193-.497-.228-.207-.032-.36-.019-.46.039s-.176.176-.228.354l-.429-.126c.045-.18.112-.319.205-.42s.224-.169.394-.204c.171-.035.368-.036.591-.002.221.035.399.089.536.162.138.074.237.156.301.246s.105.198.129.324c.013.077.018.215.013.412l-.015.593c-.01.413-.008.675.008.787.017.112.051.223.104.332l-.458-.071c-.044-.1-.07-.211-.079-.337ZM347.913,195.402c-.16.041-.401.06-.721.057-.181,0-.31.008-.385.03-.077.021-.135.061-.178.117-.042.057-.064.124-.066.201-.003.118.04.224.127.316s.215.152.386.179c.169.026.32.012.454-.042.133-.055.232-.142.297-.263.05-.093.077-.236.082-.434l.004-.162Z" fill="#231f20"/><path d="M349.91,197.031l-.407-.063.089-3.617.439.068-.031,1.29c.191-.206.431-.287.718-.242.159.024.31.08.45.167s.256.197.345.328c.088.132.157.285.205.459.047.175.069.356.064.545-.011.449-.129.78-.354.99-.225.212-.491.293-.799.245-.307-.047-.543-.213-.71-.498l-.009.328ZM349.938,195.701c-.008.313.028.547.11.7.132.25.316.393.552.43.192.029.36-.029.504-.176.145-.146.22-.388.228-.722.009-.342-.052-.604-.182-.788s-.29-.29-.48-.319c-.192-.03-.36.028-.504.176-.144.146-.22.38-.228.699Z" fill="#231f20"/></g></svg>