<?xml version="1.0" encoding="UTF-8"?><svg id="a" xmlns="http://www.w3.org/2000/svg" width="5.625in" height="1.75in" xmlns:xlink="http://www.w3.org/1999/xlink" viewBox="0 0 405 126"><defs><clipPath id="b"><circle cx="68.173" cy="49.58" r="45.257" fill="none" stroke-width="0"/></clipPath></defs><rect x="4.322" y="39.978" width="396" height="82.759" fill="none" stroke="#ccc" stroke-linecap="round" stroke-linejoin="round" stroke-width="1.5"/><rect x="8.348" y="44.082" width="387.949" height="74.551" fill="#e6e6e6" stroke-width="0"/><rect x="15.066" y="82.656" width="180.967" height="33.173" fill="#ccc" stroke-width="0"/><path d="M72.592,111.602h28.281c.403,0,.755-.302.755-.755v-25.614c0-.453-.352-.755-.755-.755h-28.281c-.403,0-.755.302-.755.755v25.614c0,.453.352.755.755.755" fill="#e6e6e6" fill-rule="evenodd" stroke-width="0"/><path d="M91.362,85.888c0-.201-.151-.302-.302-.302s-.302.151-.302.302l.201,1.862c0,.101.05.101.101.101s.101-.05.101-.101l.201-1.862M91.412,88.555c0-.201-.151-.352-.352-.352s-.352.151-.352.352c0,.151.151.302.352.302s.352-.151.352-.302Z" fill="#262626" fill-rule="evenodd" stroke-width="0"/><path d="M84.417,86.894c-.201-.805-1.057-1.258-1.862-1.057-.855.252-1.308,1.107-1.057,1.912.252.805,1.107,1.258,1.912,1.057.805-.252,1.258-1.107,1.006-1.912M84.216,87.196c.101.654-.403,1.308-1.107,1.359-.503.101-1.057-.201-1.258-.705l.855-.855.352,1.359,1.157-1.157ZM81.7,87.498c-.05-.704.403-1.359,1.107-1.409.554-.101,1.057.201,1.308.705l-.855.855-.352-1.359-1.208,1.208Z" fill="#262626" fill-rule="evenodd" stroke-width="0"/><circle cx="83.035" cy="91.73" r="1.694" fill="#262626" stroke-width="0"/><circle cx="91.112" cy="91.73" r="1.694" fill="#262626" stroke-width="0"/><path d="M155.522,109.891h12.782c.554,0,1.006-.453,1.006-.956v-23.198c0-.503-.453-.956-1.006-.956h-12.782c-.503,0-.956.453-.956.956v23.198c0,.503.453.956.956.956Z" fill="#595a5a" stroke-width="0"/><path d="M156.528,106.117h10.819c.403,0,.755-.352.755-.755v-16.053c0-.403-.352-.755-.755-.755h-10.819c-.453,0-.755.352-.755.755v16.053c0,.403.302.755.755.755Z" fill="#d9d9d9" stroke-width="0"/><path d="M166.492,93.335v-2.365c0-.252-.201-.453-.453-.453h-8.202c-.252,0-.453.201-.453.453v2.365h9.108Z" fill="#595a5a" stroke-width="0"/><path d="M166.492,93.335h-9.108v10.165c0,.252.201.453.453.453h8.202c.252,0,.453-.201.453-.453v-10.165Z" fill="#6a6a6a" stroke-width="0"/><path d="M161.912,97.311c.151,0,.302-.101.302-.252v-2.164c0-.151-.151-.252-.302-.252s-.252.101-.252.252v2.164c0,.151.101.252.252.252M162.919,101.034c0-.554-.453-.956-1.006-.956-.503,0-.956.403-.956.956s.453.956.956.956c.554,0,1.006-.403,1.006-.956ZM163.472,101.034c0-.855-.705-1.51-1.56-1.51-.805,0-1.51.654-1.51,1.51s.705,1.51,1.51,1.51c.855,0,1.56-.654,1.56-1.51Z" fill="#fff" fill-rule="evenodd" stroke-width="0"/><rect x="172.732" y="84.529" width="19.625" height="26.067" rx="1.359" ry="1.359" fill="#595a5a" stroke-width="0"/><path d="M174.694,92.278v10.568c0,.554.252,1.107.704,1.56l4.227,4.026c.403.403.956.604,1.51.604h7.095c1.208,0,2.164-.956,2.164-2.164v-18.619c0-1.208-.956-2.164-2.164-2.164h-7.095c-.554,0-1.107.201-1.51.604l-4.227,4.026c-.453.453-.704,1.006-.704,1.56Z" fill="#808184" stroke-width="0"/><rect x="128.17" y="111.501" width="59.406" height="4.328" fill="#595a5a" stroke-width="0"/><rect x="82.103" y="109.338" width="4.328" height="6.491" fill="#595a5a" stroke-width="0"/><rect x="15.93" y="111.501" width="44.687" height="4.328" fill="#595a5a" stroke-width="0"/><path d="M104.143,111.501c-.906,0-1.761-.101-2.617-.302l-6.139-1.51c-.855-.252-1.711-.352-2.617-.352h-6.542c-.252,0-.453.201-.453.453v5.636c0,.201.201.403.453.403h41.918v-4.328h-24.003Z" fill="#6a6a6a" stroke-width="0"/><path d="M89.248,115.175h36.533v-3.019h-21.638c-.956,0-1.862-.101-2.768-.352l-6.139-1.51c-.805-.201-1.61-.302-2.466-.302h-3.522v5.183" fill="#d66927" fill-rule="evenodd" stroke-width="0"/><path d="M75.812,111.501h-15.247v4.328h21.789c.201,0,.403-.201.403-.403v-5.636c0-.252-.201-.453-.403-.453h-3.019c-.252,0-.453.101-.654.252l-2.214,1.711c-.201.151-.453.201-.654.201Z" fill="#6a6a6a" stroke-width="0"/><rect x="12.709" y="112.91" width="6.491" height="2.919" fill="#595a5a" stroke-width="0"/><rect x="209.717" y="82.656" width="180.967" height="33.173" fill="#ccc" stroke-width="0"/><path d="M267.243,111.602h28.281c.403,0,.755-.302.755-.755v-25.614c0-.453-.352-.755-.755-.755h-28.281c-.403,0-.755.302-.755.755v25.614c0,.453.352.755.755.755" fill="#e6e6e6" fill-rule="evenodd" stroke-width="0"/><path d="M286.013,85.888c0-.201-.151-.302-.302-.302s-.302.151-.302.302l.201,1.862c0,.101.05.101.101.101s.101-.05.101-.101l.201-1.862M286.063,88.555c0-.201-.151-.352-.352-.352s-.352.151-.352.352c0,.151.151.302.352.302s.352-.151.352-.302Z" fill="#262626" fill-rule="evenodd" stroke-width="0"/><path d="M279.068,86.894c-.201-.805-1.057-1.258-1.862-1.057-.855.252-1.308,1.107-1.057,1.912.252.805,1.107,1.258,1.912,1.057.805-.252,1.258-1.107,1.006-1.912M278.867,87.196c.101.654-.403,1.308-1.107,1.359-.503.101-1.057-.201-1.258-.705l.855-.855.352,1.359,1.157-1.157ZM276.351,87.498c-.05-.704.403-1.359,1.107-1.409.554-.101,1.057.201,1.308.705l-.855.855-.352-1.359-1.208,1.208Z" fill="#262626" fill-rule="evenodd" stroke-width="0"/><circle cx="277.686" cy="91.73" r="1.694" fill="#262626" stroke-width="0"/><circle cx="285.763" cy="91.73" r="1.694" fill="#262626" stroke-width="0"/><path d="M350.173,109.891h12.782c.554,0,1.006-.453,1.006-.956v-23.198c0-.503-.453-.956-1.006-.956h-12.782c-.503,0-.956.453-.956.956v23.198c0,.503.453.956.956.956Z" fill="#595a5a" stroke-width="0"/><path d="M351.179,106.117h10.819c.403,0,.755-.352.755-.755v-16.053c0-.403-.352-.755-.755-.755h-10.819c-.453,0-.755.352-.755.755v16.053c0,.403.302.755.755.755Z" fill="#d9d9d9" stroke-width="0"/><path d="M361.143,93.335v-2.365c0-.252-.201-.453-.453-.453h-8.202c-.252,0-.453.201-.453.453v2.365h9.108Z" fill="#595a5a" stroke-width="0"/><path d="M361.143,93.335h-9.108v10.165c0,.252.201.453.453.453h8.202c.252,0,.453-.201.453-.453v-10.165Z" fill="#6a6a6a" stroke-width="0"/><path d="M356.564,97.311c.151,0,.302-.101.302-.252v-2.164c0-.151-.151-.252-.302-.252s-.252.101-.252.252v2.164c0,.151.101.252.252.252M357.57,101.034c0-.554-.453-.956-1.006-.956-.503,0-.956.403-.956.956s.453.956.956.956c.554,0,1.006-.403,1.006-.956ZM358.124,101.034c0-.855-.705-1.51-1.56-1.51-.805,0-1.51.654-1.51,1.51s.705,1.51,1.51,1.51c.855,0,1.56-.654,1.56-1.51Z" fill="#fff" fill-rule="evenodd" stroke-width="0"/><rect x="367.383" y="84.529" width="19.625" height="26.067" rx="1.359" ry="1.359" fill="#595a5a" stroke-width="0"/><path d="M369.345,92.278v10.568c0,.554.252,1.107.704,1.56l4.227,4.026c.403.403.956.604,1.51.604h7.095c1.208,0,2.164-.956,2.164-2.164v-18.619c0-1.208-.956-2.164-2.164-2.164h-7.095c-.554,0-1.107.201-1.51.604l-4.227,4.026c-.453.453-.704,1.006-.704,1.56Z" fill="#808184" stroke-width="0"/><rect x="322.821" y="111.501" width="59.406" height="4.328" fill="#595a5a" stroke-width="0"/><rect x="276.754" y="109.338" width="4.328" height="6.491" fill="#595a5a" stroke-width="0"/><rect x="210.581" y="111.501" width="44.687" height="4.328" fill="#595a5a" stroke-width="0"/><path d="M298.794,111.501c-.906,0-1.761-.101-2.617-.302l-6.139-1.51c-.855-.252-1.711-.352-2.617-.352h-6.542c-.252,0-.453.201-.453.453v5.636c0,.201.201.403.453.403h41.918v-4.328h-24.003Z" fill="#6a6a6a" stroke-width="0"/><path d="M283.899,115.175h36.533v-3.019h-21.638c-.956,0-1.862-.101-2.768-.352l-6.139-1.51c-.805-.201-1.61-.302-2.466-.302h-3.522v5.183" fill="#d66927" fill-rule="evenodd" stroke-width="0"/><path d="M270.463,111.501h-15.247v4.328h21.789c.201,0,.403-.201.403-.403v-5.636c0-.252-.201-.453-.403-.453h-3.019c-.252,0-.453.101-.654.252l-2.214,1.711c-.201.151-.453.201-.654.201Z" fill="#6a6a6a" stroke-width="0"/><rect x="207.36" y="112.91" width="6.491" height="2.919" fill="#595a5a" stroke-width="0"/><path d="M202.041,92.794h4.126v-4.982h-4.126l-1.912,2.466,1.912,2.516ZM204.255,108.393l1.912-2.516-1.912-2.516h-4.126v5.032h4.126Z" fill="#333" fill-rule="evenodd" stroke-width="0"/><path d="M203.198,105.877c0-.705-.604-1.308-1.359-1.308s-1.359.604-1.359,1.308c0,.755.604,1.359,1.359,1.359s1.359-.604,1.359-1.359M202.947,106.078c-.101.604-.654,1.006-1.258.906-.503-.05-.855-.403-.956-.855l-.05-.05.956-.554v1.258l1.258-.755.05.05ZM200.733,105.726c.05-.604.654-1.006,1.258-.956.453.101.855.453.906.906l-.956.554v-1.258l-1.258.755h.05ZM204.154,90.277c0-.705-.604-1.308-1.359-1.308s-1.359.604-1.359,1.308c0,.755.604,1.359,1.359,1.359s1.359-.604,1.359-1.359ZM203.903,90.479c-.05.604-.654,1.006-1.258.906-.453-.05-.855-.403-.906-.855l-.05-.05.956-.554v1.258l1.258-.755v.05ZM201.689,90.126c.101-.604.654-1.006,1.258-.906.503.05.855.403.956.855l-.956.554v-1.258l-1.258.755Z" fill="#fff" fill-rule="evenodd" stroke-width="0"/><path d="M205.531,91.381h-.266v-1.689c-.063.061-.147.122-.251.183s-.196.106-.279.137v-.256c.148-.07.278-.154.39-.254.11-.099.189-.195.235-.288h.171v2.168Z" fill="#fff" stroke-width="0"/><path d="M204.918,106.728v.255h-1.427c-.003-.063.008-.125.03-.185.036-.097.095-.192.175-.287.08-.094.195-.203.347-.327.234-.192.394-.345.476-.457.083-.112.124-.219.124-.318,0-.105-.037-.194-.112-.267s-.174-.108-.294-.108c-.128,0-.23.039-.307.115s-.115.183-.116.318l-.272-.028c.019-.203.089-.358.211-.465.121-.106.285-.159.49-.159.207,0,.371.057.492.172.12.115.181.258.181.428,0,.086-.018.171-.053.255-.035.083-.094.171-.176.264-.082.092-.219.219-.409.38-.159.133-.262.224-.307.271s-.082.096-.111.144h1.059Z" fill="#fff" stroke-width="0"/><rect x="15.066" y="47.011" width="180.967" height="33.173" fill="#e6e6e6" stroke-width="0"/><polyline points="202.041 57.908 206.167 57.908 206.167 52.926 202.041 52.926 200.129 55.392 202.041 57.908" fill="#333" fill-rule="evenodd" stroke-width="0"/><polygon points="204.255 73.508 206.167 70.992 204.255 68.526 200.129 68.526 200.129 73.508 204.255 73.508" fill="#333" fill-rule="evenodd" stroke-width="0"/><path d="M205.327,56.749h-.569l-.227-.589h-1.036l-.214.589h-.555l1.01-2.592h.553l1.038,2.592ZM204.363,55.723l-.357-.962-.35.962h.707Z" fill="#fff" stroke-width="0"/><path d="M201.419,69.758h1.035c.205,0,.358.009.459.026.101.017.19.053.271.106.079.055.146.127.198.217.054.09.08.191.08.303,0,.122-.033.233-.099.334-.064.102-.153.178-.266.229.158.046.279.124.364.235.085.11.127.24.127.391,0,.117-.027.232-.082.344s-.13.2-.225.267-.212.107-.351.123c-.087.01-.298.016-.631.018h-.882v-2.592ZM201.942,70.19v.6h.343c.204,0,.331-.003.381-.009.089-.011.159-.042.211-.093.051-.052.077-.119.077-.203,0-.08-.022-.145-.066-.195-.044-.05-.11-.08-.197-.091-.052-.006-.201-.009-.447-.009h-.301ZM201.942,71.22v.693h.484c.188,0,.309-.006.359-.016.077-.015.141-.049.189-.104s.073-.128.073-.221c0-.077-.019-.144-.057-.197-.037-.055-.092-.094-.163-.119-.071-.024-.226-.037-.464-.037h-.423Z" fill="#fff" stroke-width="0"/><rect x="209.717" y="47.011" width="180.967" height="33.173" fill="#e6e6e6" stroke-width="0"/><rect x="114.408" y="47.214" width="81.218" height="26.993" fill="#999" stroke-width="0"/><rect x="155.017" y="47.214" width="29.621" height="20.902" fill="#2762ac" stroke-width="0"/><rect x="114.363" y="47.214" width="40.415" height="20.902" fill="#f5f6f6" stroke-width="0"/><rect x="15.379" y="47.238" width="95.46" height="30.579" fill="#999" stroke-width="0"/><path d="M87.774,61.299h15.745c.39,0,.634-.244.634-.634v-7.361c0-.39-.244-.682-.634-.682h-15.745c-.341,0-.634.292-.634.682v7.361c0,.39.292.634.634.634Z" fill="#f5f6f6" fill-rule="evenodd" stroke-width="0"/><rect x="67.74" y="52.013" width="12.869" height="8.336" rx=".634" ry=".634" fill="#f5f6f6" stroke-width="0"/><rect x="23.496" y="48.559" width="17.11" height="12.041" rx=".634" ry=".634" fill="#f5f6f6" stroke-width="0"/><rect x="44.103" y="48.559" width="17.11" height="12.041" rx=".634" ry=".634" fill="#f5f6f6" stroke-width="0"/><rect x="16.197" y="61.225" width="64.176" height="14.858" fill="#2762ac" stroke-width="0"/><rect x="23.338" y="65.154" width="12.566" height="8.149" fill="#ffba90" stroke="#2762ac" stroke-miterlimit="10" stroke-width=".393"/><rect x="36.351" y="65.154" width="12.566" height="8.149" fill="#ee7623" stroke="#2762ac" stroke-miterlimit="10" stroke-width=".393"/><rect x="49.364" y="65.154" width="12.566" height="8.149" fill="#ee7623" stroke="#2762ac" stroke-miterlimit="10" stroke-width=".393"/><rect x="62.377" y="65.154" width="12.566" height="8.149" fill="#ee7623" stroke="#2762ac" stroke-miterlimit="10" stroke-width=".393"/><circle cx="26.991" cy="63.064" r=".854" fill="#262626" stroke-width="0"/><circle cx="32.433" cy="63.064" r=".854" fill="#262626" stroke-width="0"/><circle cx="39.963" cy="63.064" r=".854" fill="#262626" stroke-width="0"/><circle cx="45.406" cy="63.064" r=".854" fill="#262626" stroke-width="0"/><circle cx="52.936" cy="63.064" r=".854" fill="#262626" stroke-width="0"/><circle cx="58.378" cy="63.064" r=".854" fill="#262626" stroke-width="0"/><circle cx="65.908" cy="63.064" r=".854" fill="#262626" stroke-width="0"/><circle cx="71.351" cy="63.064" r=".854" fill="#262626" stroke-width="0"/><polygon points="26.462 56.276 26.462 58.86 37.577 58.86 37.577 56.276 37.333 56.276 37.333 54.521 37.577 54.521 37.577 51.986 35.139 51.986 35.139 50.378 34.067 50.378 34.067 49.598 29.923 49.598 29.923 50.378 28.899 50.378 28.899 51.986 26.462 51.986 26.462 54.521 26.657 54.521 26.657 56.276 26.462 56.276" fill="#a25eb5" stroke-width="0"/><polygon points="47.034 56.276 47.034 58.86 58.148 58.86 58.148 56.276 57.904 56.276 57.904 54.521 58.148 54.521 58.148 51.986 55.711 51.986 55.711 50.378 54.638 50.378 54.638 49.598 50.495 49.598 50.495 50.378 49.471 50.378 49.471 51.986 47.034 51.986 47.034 54.521 47.229 54.521 47.229 56.276 47.034 56.276" fill="#262626" stroke-width="0"/><path d="M71.214,58.123h6.045c.829,0,1.511-.682,1.511-1.511v-.487c0-.829-.682-1.462-1.511-1.462h-6.045c-.829,0-1.462.634-1.462,1.462v.487c0,.829.634,1.511,1.462,1.511Z" fill="#1a1a1a" fill-rule="evenodd" stroke-width="0"/><path d="M101.174,54.494h-10.822c-.146,0-.292.098-.292.244v4.144c0,.146.146.244.292.244h10.822c.146,0,.292-.097.292-.244v-4.144c0-.146-.146-.244-.292-.244Z" fill="#262626" stroke-width="0"/><polygon points="19.149 69.384 19.769 69.384 19.769 71.338 20.048 71.338 20.048 70.594 20.607 70.594 20.607 71.121 21.661 71.121 21.661 69.725 20.607 69.725 20.607 70.221 20.048 70.221 20.048 68.237 20.607 68.237 20.607 68.702 21.661 68.702 21.661 67.338 20.607 67.338 20.607 67.865 20.048 67.865 20.048 67.183 19.769 67.183 19.769 69.012 19.149 69.012 19.118 68.454 18.033 68.454 18.033 69.911 19.118 69.911 19.149 69.384" fill="#fff" fill-rule="evenodd" stroke-width="0"/><path d="M107.59,54.833v3.266l-.731-.731v-.634c.195-.097.244-.292.195-.487-.098-.146-.292-.244-.487-.195-.146.097-.244.292-.195.487.049.098.146.146.195.195v.78l1.024.975v.341c-.292.049-.487.341-.39.634.049.292.341.487.634.39.292-.049.487-.341.39-.634-.049-.195-.195-.341-.39-.39v-1.267l.975-.975v-.634h.244v-.731h-.731v.731h.244v.487l-.731.731v-2.34h.244l-.39-.731-.341.731h.244Z" fill="#f2f2f2" fill-rule="evenodd" stroke-width="0"/><path d="M21.103,54.536h-2.389c-.195-.536-.731-.78-1.267-.634-.097.049-.195.097-.292.195v.146h.536l.341.634-.341.585h-.536v.146c.439.341,1.024.292,1.365-.146.097-.049.146-.195.195-.292h2.389c.146.487.682.682,1.121.536.097-.049.195-.097.244-.146v-.146h-.487l-.292-.536.292-.585h.487v-.097c-.39-.341-.926-.292-1.219.097-.097.049-.146.146-.146.244Z" fill="#f2f2f2" fill-rule="evenodd" stroke-width="0"/><path d="M119.795,63.821h9.36c.097,0,.195-.097.195-.195v-9.36c0-.097-.097-.244-.195-.244h-9.36c-.146,0-.244.146-.244.244v9.36c0,.097.098.195.244.195" fill="#7da9dc" fill-rule="evenodd" stroke-width="0"/><path d="M132.89,63.821h9.36c.097,0,.195-.097.195-.195v-9.36c0-.097-.097-.244-.195-.244h-9.36c-.146,0-.244.146-.244.244v9.36c0,.097.098.195.244.195" fill="#7da9dc" fill-rule="evenodd" stroke-width="0"/><path d="M143.508,63.821h9.36c.097,0,.195-.097.195-.195v-9.36c0-.097-.097-.244-.195-.244h-9.36c-.146,0-.244.146-.244.244v9.36c0,.097.098.195.244.195" fill="#262626" fill-rule="evenodd" stroke-width="0"/><rect x="156.833" y="53.874" width="12.566" height="8.149" fill="#b1c38d" stroke="#2762ac" stroke-miterlimit="10" stroke-width=".393"/><rect x="169.84" y="53.874" width="12.566" height="8.149" fill="#b1c38d" stroke="#2762ac" stroke-miterlimit="10" stroke-width=".393"/><circle cx="122.364" cy="50.275" r="1.106" fill="#262626" stroke-width="0"/><circle cx="126.46" cy="50.275" r="1.106" fill="#262626" stroke-width="0"/><circle cx="135.824" cy="50.275" r="1.106" fill="#262626" stroke-width="0"/><circle cx="139.921" cy="50.275" r="1.106" fill="#262626" stroke-width="0"/><circle cx="145.627" cy="50.275" r="1.106" fill="#262626" stroke-width="0"/><circle cx="149.724" cy="50.275" r="1.106" fill="#262626" stroke-width="0"/><circle cx="160.356" cy="50.275" r="1.106" fill="#262626" stroke-width="0"/><circle cx="166.647" cy="50.275" r="1.106" fill="#262626" stroke-width="0"/><circle cx="173.182" cy="50.275" r="1.106" fill="#262626" stroke-width="0"/><circle cx="179.474" cy="50.275" r="1.106" fill="#262626" stroke-width="0"/><path d="M106.986,73.995v3.722H19.998v1.349h86.988v1.117h88.657v-4.42h-80.168v-2.233h-8.06c-.238,0-.429.186-.429.465Z" fill="#4d4e4e" stroke-width="0"/><path d="M112.089,75.763h-19.172c-.191,0-.429.093-.572.233l-2.671,2.605c-.191.14-.382.233-.62.233H24.529c-.191,0-.429-.093-.572-.233l-2.671-2.605c-.191-.14-.382-.233-.62-.233h-4.531v1.396h-3.386v3.024h99.34v-4.42Z" fill="#4d4e4e" stroke-width="0"/><path d="M125.919,73.53h-13.83v6.653h28.853v-4.42h-3.052c-.572,0-1.145-.093-1.717-.186l-8.584-1.861c-.525-.093-1.097-.186-1.669-.186Z" fill="#6a6a6a" stroke-width="0"/><path d="M138.033,76.461h-3.1c-.906,0-1.812-.093-2.718-.279l-5.961-1.349c-.763-.186-1.574-.279-2.385-.279h-3.481v4.606h17.646v-2.698" fill="#d66927" fill-rule="evenodd" stroke-width="0"/><rect x="66.799" y="54.908" width=".159" height="1.591" fill="#fff" stroke-width="0"/><path d="M66.322,55.704c0,.345-.292.637-.637.637s-.637-.292-.637-.637.292-.637.637-.637.637.292.637.637Z" fill="none" stroke="#fff" stroke-miterlimit="10" stroke-width=".168"/><rect x="64.412" y="54.908" width=".186" height="1.591" fill="#fff" stroke-width="0"/><path d="M63.935,55.704c0,.345-.265.637-.637.637-.345,0-.637-.292-.637-.637s.292-.637.637-.637c.371,0,.637.292.637.637Z" fill="none" stroke="#fff" stroke-miterlimit="10" stroke-width=".168"/><rect x="62.025" y="54.908" width=".186" height="1.591" fill="#fff" stroke-width="0"/><rect x="309.471" y="47.214" width="81.218" height="26.993" fill="#999" stroke-width="0"/><rect x="350.08" y="47.214" width="29.621" height="20.902" fill="#2762ac" stroke-width="0"/><rect x="309.426" y="47.214" width="40.415" height="20.902" fill="#f5f6f6" stroke-width="0"/><rect x="210.442" y="47.238" width="95.46" height="30.579" fill="#999" stroke-width="0"/><path d="M282.838,61.299h15.745c.39,0,.634-.244.634-.634v-7.361c0-.39-.244-.682-.634-.682h-15.745c-.341,0-.634.292-.634.682v7.361c0,.39.292.634.634.634Z" fill="#f5f6f6" fill-rule="evenodd" stroke-width="0"/><rect x="262.803" y="52.013" width="12.869" height="8.336" rx=".634" ry=".634" fill="#f5f6f6" stroke-width="0"/><rect x="218.56" y="48.559" width="17.11" height="12.041" rx=".634" ry=".634" fill="#f5f6f6" stroke-width="0"/><rect x="239.167" y="48.559" width="17.11" height="12.041" rx=".634" ry=".634" fill="#f5f6f6" stroke-width="0"/><rect x="211.26" y="61.225" width="64.176" height="14.858" fill="#2762ac" stroke-width="0"/><rect x="218.401" y="65.154" width="12.566" height="8.149" fill="#ffba90" stroke="#2762ac" stroke-miterlimit="10" stroke-width=".393"/><rect x="231.414" y="65.154" width="12.566" height="8.149" fill="#ffba90" stroke="#2762ac" stroke-miterlimit="10" stroke-width=".393"/><rect x="244.427" y="65.154" width="12.566" height="8.149" fill="#ffba90" stroke="#2762ac" stroke-miterlimit="10" stroke-width=".393"/><rect x="257.44" y="65.154" width="12.566" height="8.149" fill="#ffba90" stroke="#2762ac" stroke-miterlimit="10" stroke-width=".393"/><circle cx="227.496" cy="63.064" r=".854" fill="#262626" stroke-width="0"/><circle cx="235.027" cy="63.064" r=".854" fill="#262626" stroke-width="0"/><circle cx="240.469" cy="63.064" r=".854" fill="#262626" stroke-width="0"/><circle cx="247.999" cy="63.064" r=".854" fill="#262626" stroke-width="0"/><circle cx="253.441" cy="63.064" r=".854" fill="#262626" stroke-width="0"/><circle cx="260.972" cy="63.064" r=".854" fill="#262626" stroke-width="0"/><circle cx="266.414" cy="63.064" r=".854" fill="#262626" stroke-width="0"/><polygon points="221.525 56.276 221.525 58.86 232.64 58.86 232.64 56.276 232.396 56.276 232.396 54.521 232.64 54.521 232.64 51.986 230.202 51.986 230.202 50.378 229.13 50.378 229.13 49.598 224.986 49.598 224.986 50.378 223.963 50.378 223.963 51.986 221.525 51.986 221.525 54.521 221.72 54.521 221.72 56.276 221.525 56.276" fill="#d1acd9" stroke-width="0"/><polygon points="242.097 56.276 242.097 58.86 253.211 58.86 253.211 56.276 252.968 56.276 252.968 54.521 253.211 54.521 253.211 51.986 250.774 51.986 250.774 50.378 249.701 50.378 249.701 49.598 245.558 49.598 245.558 50.378 244.534 50.378 244.534 51.986 242.097 51.986 242.097 54.521 242.292 54.521 242.292 56.276 242.097 56.276" fill="#262626" stroke-width="0"/><path d="M266.278,58.123h6.045c.829,0,1.511-.682,1.511-1.511v-.487c0-.829-.682-1.462-1.511-1.462h-6.045c-.829,0-1.462.634-1.462,1.462v.487c0,.829.634,1.511,1.462,1.511Z" fill="#1a1a1a" fill-rule="evenodd" stroke-width="0"/><path d="M296.237,54.494h-10.822c-.146,0-.292.098-.292.244v4.144c0,.146.146.244.292.244h10.822c.146,0,.292-.097.292-.244v-4.144c0-.146-.146-.244-.292-.244Z" fill="#262626" stroke-width="0"/><path d="M302.654,54.833v3.266l-.731-.731v-.634c.195-.097.244-.292.195-.487-.098-.146-.292-.244-.487-.195-.146.097-.244.292-.195.487.049.098.146.146.195.195v.78l1.024.975v.341c-.292.049-.487.341-.39.634.049.292.341.487.634.39.292-.049.487-.341.39-.634-.049-.195-.195-.341-.39-.39v-1.267l.975-.975v-.634h.244v-.731h-.731v.731h.244v.487l-.731.731v-2.34h.244l-.39-.731-.341.731h.244Z" fill="#f2f2f2" fill-rule="evenodd" stroke-width="0"/><path d="M314.858,63.821h9.36c.097,0,.195-.097.195-.195v-9.36c0-.097-.097-.244-.195-.244h-9.36c-.146,0-.244.146-.244.244v9.36c0,.097.098.195.244.195" fill="#a6d5dd" fill-rule="evenodd" stroke-width="0"/><path d="M327.953,63.821h9.36c.097,0,.195-.097.195-.195v-9.36c0-.097-.097-.244-.195-.244h-9.36c-.146,0-.244.146-.244.244v9.36c0,.097.098.195.244.195" fill="#a6d5dd" fill-rule="evenodd" stroke-width="0"/><path d="M338.571,63.821h9.36c.097,0,.195-.097.195-.195v-9.36c0-.097-.097-.244-.195-.244h-9.36c-.146,0-.244.146-.244.244v9.36c0,.097.098.195.244.195" fill="#262626" fill-rule="evenodd" stroke-width="0"/><rect x="351.897" y="53.874" width="12.566" height="8.149" fill="#b1c38d" stroke="#2762ac" stroke-miterlimit="10" stroke-width=".393"/><rect x="364.903" y="53.874" width="12.566" height="8.149" fill="#b1c38d" stroke="#2762ac" stroke-miterlimit="10" stroke-width=".393"/><circle cx="317.427" cy="50.275" r="1.106" fill="#262626" stroke-width="0"/><circle cx="321.524" cy="50.275" r="1.106" fill="#262626" stroke-width="0"/><circle cx="330.888" cy="50.275" r="1.106" fill="#262626" stroke-width="0"/><circle cx="334.984" cy="50.275" r="1.106" fill="#262626" stroke-width="0"/><circle cx="340.69" cy="50.275" r="1.106" fill="#262626" stroke-width="0"/><circle cx="344.787" cy="50.275" r="1.106" fill="#262626" stroke-width="0"/><circle cx="355.419" cy="50.275" r="1.106" fill="#262626" stroke-width="0"/><circle cx="361.71" cy="50.275" r="1.106" fill="#262626" stroke-width="0"/><circle cx="368.245" cy="50.275" r="1.106" fill="#262626" stroke-width="0"/><circle cx="374.537" cy="50.275" r="1.106" fill="#262626" stroke-width="0"/><path d="M302.049,73.995v3.722h-86.988v1.349h86.988v1.117h88.657v-4.42h-80.168v-2.233h-8.06c-.238,0-.429.186-.429.465Z" fill="#4d4e4e" stroke-width="0"/><path d="M307.152,75.763h-19.172c-.191,0-.429.093-.572.233l-2.671,2.605c-.191.14-.382.233-.62.233h-64.525c-.191,0-.429-.093-.572-.233l-2.671-2.605c-.191-.14-.382-.233-.62-.233h-4.531v1.396h-3.386v3.024h99.34v-4.42Z" fill="#4d4e4e" stroke-width="0"/><path d="M320.982,73.53h-13.83v6.653h28.853v-4.42h-3.052c-.572,0-1.145-.093-1.717-.186l-8.584-1.861c-.525-.093-1.097-.186-1.669-.186Z" fill="#6a6a6a" stroke-width="0"/><path d="M333.096,76.461h-3.1c-.906,0-1.812-.093-2.718-.279l-5.961-1.349c-.763-.186-1.574-.279-2.385-.279h-3.481v4.606h17.646v-2.698" fill="#d66927" fill-rule="evenodd" stroke-width="0"/><rect x="261.863" y="54.908" width=".159" height="1.591" fill="#fff" stroke-width="0"/><path d="M261.385,55.704c0,.345-.292.637-.637.637s-.637-.292-.637-.637.292-.637.637-.637.637.292.637.637Z" fill="none" stroke="#fff" stroke-miterlimit="10" stroke-width=".168"/><rect x="259.475" y="54.908" width=".186" height="1.591" fill="#fff" stroke-width="0"/><path d="M258.998,55.704c0,.345-.265.637-.637.637-.345,0-.637-.292-.637-.637s.292-.637.637-.637c.371,0,.637.292.637.637Z" fill="none" stroke="#fff" stroke-miterlimit="10" stroke-width=".168"/><rect x="257.088" y="54.908" width=".186" height="1.591" fill="#fff" stroke-width="0"/><path d="M215.506,54.536h-2.389c-.195-.536-.731-.78-1.267-.634-.097.049-.195.097-.292.195v.146h.536l.341.634-.341.585h-.536v.146c.439.341,1.024.292,1.365-.146.097-.049.146-.195.195-.292h2.389c.146.487.682.682,1.121.536.097-.049.195-.097.244-.146v-.146h-.487l-.292-.536.292-.585h.487v-.097c-.39-.341-.926-.292-1.219.097-.097.049-.146.146-.146.244Z" fill="#f2f2f2" fill-rule="evenodd" stroke-width="0"/><polygon points="214.153 69.384 214.774 69.384 214.774 71.338 215.053 71.338 215.053 70.594 215.611 70.594 215.611 71.121 216.665 71.121 216.665 69.725 215.611 69.725 215.611 70.221 215.053 70.221 215.053 68.237 215.611 68.237 215.611 68.702 216.665 68.702 216.665 67.338 215.611 67.338 215.611 67.865 215.053 67.865 215.053 67.183 214.774 67.183 214.774 69.012 214.153 69.012 214.122 68.454 213.037 68.454 213.037 69.911 214.122 69.911 214.153 69.384" fill="#fff" fill-rule="evenodd" stroke-width="0"/><circle cx="356.525" cy="97.375" r="15.94" fill="none" stroke="#fff" stroke-miterlimit="10" stroke-width="3"/><circle cx="356.525" cy="97.375" r="15.94" fill="none" stroke="#005cb9" stroke-miterlimit="10"/><path d="M93.193,10.011l-27.145,86.645,85.844,15.424c4.021,1.087-13.617-11.254-4.18-22.818,13.394-16.413,23.113-4.625,25.295-4.42L93.193,10.011Z" fill="#fff" opacity=".8" stroke-width="0"/><circle cx="161.685" cy="97.375" r="15.94" fill="none" stroke="#fff" stroke-miterlimit="10" stroke-width="3"/><circle cx="161.685" cy="97.375" r="15.94" fill="none" stroke="#005cb9" stroke-miterlimit="10"/><g clip-path="url(#b)"><rect x="-367.187" y="-101.73" width="1101.476" height="211.666" fill="#e6e6e6" stroke-width="0"/><rect x="-348.112" y="7.791" width="513.806" height="94.185" fill="#ccc" stroke-width="0"/><path d="M50.674,85.116h36.29c1.572,0,2.858-1.286,2.858-2.714V16.537c0-1.429-1.286-2.715-2.858-2.715h-36.29c-1.429,0-2.715,1.286-2.715,2.715v65.865c0,1.429,1.286,2.714,2.715,2.714Z" fill="#595a5a" stroke-width="0"/><path d="M53.531,74.401h30.718c1.143,0,2.143-1,2.143-2.143V26.681c0-1.143-1-2.143-2.143-2.143h-30.718c-1.286,0-2.143,1-2.143,2.143v45.577c0,1.143.857,2.143,2.143,2.143Z" fill="#d9d9d9" stroke-width="0"/><path d="M81.82,38.111v-6.715c0-.714-.572-1.286-1.286-1.286h-23.289c-.714,0-1.286.571-1.286,1.286v6.715h25.86Z" fill="#595a5a" stroke-width="0"/><path d="M81.82,38.111h-25.86v28.861c0,.714.572,1.286,1.286,1.286h23.289c.714,0,1.286-.571,1.286-1.286v-28.861Z" fill="#6a6a6a" stroke-width="0"/><path d="M68.819,49.398c.429,0,.857-.286.857-.714v-6.143c0-.429-.429-.714-.857-.714s-.714.286-.714.714v6.143c0,.429.286.714.714.714M71.676,59.971c0-1.572-1.286-2.714-2.857-2.714-1.429,0-2.715,1.143-2.715,2.714s1.286,2.715,2.715,2.715c1.572,0,2.857-1.143,2.857-2.715ZM73.248,59.971c0-2.429-2-4.286-4.429-4.286-2.286,0-4.286,1.857-4.286,4.286s2,4.286,4.286,4.286c2.429,0,4.429-1.857,4.429-4.286Z" fill="#fff" fill-rule="evenodd" stroke-width="0"/><rect x="99.537" y="13.108" width="55.721" height="74.009" rx="3.858" ry="3.858" fill="#595a5a" stroke-width="0"/><path d="M105.109,35.11v30.004c0,1.572.714,3.143,2,4.429l12.001,11.43c1.143,1.143,2.715,1.715,4.286,1.715h20.145c3.429,0,6.144-2.715,6.144-6.144V23.681c0-3.429-2.715-6.144-6.144-6.144h-20.145c-1.572,0-3.143.571-4.286,1.714l-12.001,11.43c-1.286,1.286-2,2.858-2,4.429Z" fill="#808184" stroke-width="0"/><rect x="-26.983" y="89.688" width="168.668" height="12.287" fill="#595a5a" stroke-width="0"/><path d="M-87.13-16.799V-6.232h-246.978v3.831H-87.13V.769h251.717v-12.549H-63.028v-6.341h-22.883c-.677,0-1.219.528-1.219,1.321Z" fill="#4d4e4e" stroke-width="0"/><path d="M-33.374-18.12h-39.267V.77H9.278v-12.549H.612c-1.625,0-3.25-.264-4.875-.528l-24.373-5.284c-1.489-.264-3.114-.528-4.739-.528Z" fill="#6a6a6a" stroke-width="0"/></g><circle cx="68.28" cy="49.687" r="45.363" fill="none" stroke="#fff" stroke-miterlimit="10" stroke-width="5.5"/><circle cx="68.28" cy="49.687" r="45.363" fill="none" stroke="#005cb9" stroke-miterlimit="10" stroke-width="2"/><rect x="125.006" y="4.135" width="11.179" height="21.807" rx="1.559" ry="1.559" transform="translate(8.925 64.814) rotate(-28.818)" fill="#005cb9" stroke="#fff" stroke-linecap="round" stroke-linejoin="round" stroke-width="1.403"/><path d="M93.027,27.114c-.87,3.068.179,5.362,3.895,5.914-.17,1.335-.08,2.588.914,3.674,1.008,1.102,2.272,1.398,3.46,1.379.406,1.027.588,2.044,1.143,2.777,1.197,1.58,3.199,1.847,5.203.83,2.587-1.313,5.16-2.656,7.717-4.029,1.183-.635,2.335-1.325,3.46-2.056,1.439-.934,2.894-1.859,4.254-2.903.87-.668,1.701-1.432,2.378-2.289.52-.658,1.078-1.166,1.804-1.557.357-.192.671-.362.957-.516.878-.474,1.201-1.572.72-2.446l-8.269-15.03c-.478-.869-1.571-1.186-2.44-.707-.25.138-.528.291-.847.466l-.146.08c-.579.319-1.288.292-1.843-.067-1.741-1.126-3.376-2.203-5.047-3.222-2.036-1.242-8.44-.679-11.852,2.833-1.648,1.696,1.247,3.284-.681,4.621-.14.097-.285.188-.431.275-1.793,1.068-3.608,2.101-5.371,3.217-.782.495-16.153,10.036-16.153,10.036,0,0-2.839,1.892-1.296,4.393,0,0,.839,2.134,4.095.594s14.059-7.4,14.059-7.4c0,0,.946.251.316,1.133Z" fill="#005cb9" stroke="#fff" stroke-linecap="round" stroke-linejoin="round" stroke-width="1.403"/></svg>