<?xml version="1.0" encoding="UTF-8"?><svg id="a" xmlns="http://www.w3.org/2000/svg" width="156.51mm" height="157.262mm" viewBox="0 0 443.651 445.783"><path d="M161.802,22.583v-7.576h-2.83v-1.014h6.809v1.014h-2.842v7.576h-1.137Z" fill="#000" stroke-width="0"/><path d="M166.354,22.583v-6.223h.949v.943c.242-.441.466-.732.671-.873s.431-.211.677-.211c.355,0,.717.113,1.084.34l-.363.979c-.258-.152-.516-.229-.773-.229-.23,0-.438.069-.621.208s-.314.331-.393.577c-.117.375-.176.785-.176,1.23v3.258h-1.055Z" fill="#000" stroke-width="0"/><path d="M170.368,15.206v-1.213h1.055v1.213h-1.055ZM170.368,22.583v-6.223h1.055v6.223h-1.055Z" fill="#000" stroke-width="0"/><path d="M172.618,20.005v-1.061h3.24v1.061h-3.24Z" fill="#000" stroke-width="0"/><path d="M177.024,24.968v-8.607h.961v.809c.227-.316.482-.554.768-.712s.631-.237,1.037-.237c.531,0,1,.137,1.406.41s.713.659.92,1.157.311,1.044.311,1.638c0,.637-.114,1.21-.343,1.72s-.561.9-.996,1.172-.894.407-1.374.407c-.352,0-.667-.074-.946-.223s-.509-.336-.688-.562v3.029h-1.055ZM177.979,19.507c0,.801.162,1.393.486,1.775s.717.574,1.178.574c.469,0,.87-.198,1.204-.595s.501-1.011.501-1.843c0-.793-.163-1.387-.489-1.781s-.716-.592-1.169-.592c-.449,0-.847.21-1.192.63s-.519,1.03-.519,1.831Z" fill="#000" stroke-width="0"/><path d="M187.759,21.815c-.391.332-.767.566-1.128.703s-.749.205-1.163.205c-.684,0-1.209-.167-1.576-.501s-.551-.761-.551-1.28c0-.305.069-.583.208-.835s.32-.454.545-.606.478-.268.759-.346c.207-.055.52-.107.938-.158.852-.102,1.479-.223,1.881-.363.004-.145.006-.236.006-.275,0-.43-.1-.732-.299-.908-.27-.238-.67-.357-1.201-.357-.496,0-.862.087-1.099.261s-.411.481-.524.923l-1.031-.141c.094-.441.248-.798.463-1.069s.525-.48.932-.627.877-.22,1.412-.22c.531,0,.963.062,1.295.188s.576.282.732.472.266.429.328.718c.035.18.053.504.053.973v1.406c0,.98.022,1.601.067,1.86s.134.509.267.747h-1.102c-.109-.219-.18-.475-.211-.768ZM187.671,19.46c-.383.156-.957.289-1.723.398-.434.062-.74.133-.92.211s-.318.192-.416.343-.146.317-.146.501c0,.281.106.516.319.703s.524.281.935.281c.406,0,.768-.089,1.084-.267s.549-.421.697-.729c.113-.238.17-.59.17-1.055v-.387Z" fill="#000" stroke-width="0"/><path d="M192.675,21.64l.152.932c-.297.062-.562.094-.797.094-.383,0-.68-.061-.891-.182s-.359-.28-.445-.478-.129-.612-.129-1.245v-3.58h-.773v-.82h.773v-1.541l1.049-.633v2.174h1.061v.82h-1.061v3.639c0,.301.019.494.056.58s.098.154.182.205.204.076.36.076c.117,0,.271-.014.463-.041Z" fill="#000" stroke-width="0"/><path d="M193.706,22.583v-8.59h1.055v3.082c.492-.57,1.113-.855,1.863-.855.461,0,.861.091,1.201.272s.583.433.729.753.22.785.22,1.395v3.943h-1.055v-3.943c0-.527-.114-.911-.343-1.151s-.552-.36-.97-.36c-.312,0-.606.081-.882.243s-.472.382-.589.659-.176.66-.176,1.148v3.404h-1.055Z" fill="#000" stroke-width="0"/><path d="M203.884,22.583v-8.59h1.137v3.527h4.465v-3.527h1.137v8.59h-1.137v-4.049h-4.465v4.049h-1.137Z" fill="#000" stroke-width="0"/><path d="M211.571,22.583l3.299-8.59h1.225l3.516,8.59h-1.295l-1.002-2.602h-3.592l-.943,2.602h-1.207ZM214.05,19.056h2.912l-.896-2.379c-.273-.723-.477-1.316-.609-1.781-.109.551-.264,1.098-.463,1.641l-.943,2.52Z" fill="#000" stroke-width="0"/><path d="M227.116,20.304l1.037.135c-.113.715-.403,1.274-.87,1.679s-1.04.606-1.72.606c-.852,0-1.536-.278-2.054-.835s-.776-1.354-.776-2.394c0-.672.111-1.26.334-1.764s.562-.882,1.017-1.134.95-.378,1.485-.378c.676,0,1.229.171,1.658.513s.705.827.826,1.456l-1.025.158c-.098-.418-.271-.732-.519-.943s-.548-.316-.899-.316c-.531,0-.963.19-1.295.571s-.498.983-.498,1.808c0,.836.16,1.443.48,1.822s.738.568,1.254.568c.414,0,.76-.127,1.037-.381s.453-.645.527-1.172Z" fill="#000" stroke-width="0"/><path d="M228.663,19.472c0-1.152.32-2.006.961-2.561.535-.461,1.188-.691,1.957-.691.855,0,1.555.28,2.098.841s.814,1.335.814,2.323c0,.801-.12,1.431-.36,1.89s-.59.815-1.049,1.069-.96.381-1.503.381c-.871,0-1.575-.279-2.112-.838s-.806-1.363-.806-2.414ZM229.747,19.472c0,.797.174,1.394.521,1.79s.785.595,1.312.595c.523,0,.959-.199,1.307-.598s.521-1.006.521-1.822c0-.77-.175-1.353-.524-1.749s-.784-.595-1.304-.595c-.527,0-.965.197-1.312.592s-.521.99-.521,1.787Z" fill="#000" stroke-width="0"/><path d="M235.729,22.583v-6.223h.949v.885c.457-.684,1.117-1.025,1.98-1.025.375,0,.72.067,1.034.202s.55.312.706.53.266.479.328.779c.039.195.059.537.059,1.025v3.826h-1.055v-3.785c0-.43-.041-.751-.123-.964s-.228-.383-.437-.51-.454-.19-.735-.19c-.449,0-.837.143-1.163.428s-.489.826-.489,1.623v3.398h-1.055Z" fill="#000" stroke-width="0"/><path d="M242.403,22.583v-6.223h.949v.885c.457-.684,1.117-1.025,1.98-1.025.375,0,.72.067,1.034.202s.55.312.706.53.266.479.328.779c.039.195.059.537.059,1.025v3.826h-1.055v-3.785c0-.43-.041-.751-.123-.964s-.228-.383-.437-.51-.454-.19-.735-.19c-.449,0-.837.143-1.163.428s-.489.826-.489,1.623v3.398h-1.055Z" fill="#000" stroke-width="0"/><path d="M253.337,20.579l1.09.135c-.172.637-.49,1.131-.955,1.482s-1.059.527-1.781.527c-.91,0-1.632-.28-2.165-.841s-.8-1.347-.8-2.358c0-1.047.27-1.859.809-2.438s1.238-.867,2.098-.867c.832,0,1.512.283,2.039.85s.791,1.363.791,2.391c0,.062-.002.156-.006.281h-4.641c.039.684.232,1.207.58,1.57s.781.545,1.301.545c.387,0,.717-.102.99-.305s.49-.527.65-.973ZM249.874,18.874h3.475c-.047-.523-.18-.916-.398-1.178-.336-.406-.771-.609-1.307-.609-.484,0-.892.162-1.222.486s-.513.758-.548,1.301Z" fill="#000" stroke-width="0"/><path d="M259.812,20.304l1.037.135c-.113.715-.403,1.274-.87,1.679s-1.04.606-1.72.606c-.852,0-1.536-.278-2.054-.835s-.776-1.354-.776-2.394c0-.672.111-1.26.334-1.764s.562-.882,1.017-1.134.95-.378,1.485-.378c.676,0,1.229.171,1.658.513s.705.827.826,1.456l-1.025.158c-.098-.418-.271-.732-.519-.943s-.548-.316-.899-.316c-.531,0-.963.19-1.295.571s-.498.983-.498,1.808c0,.836.16,1.443.48,1.822s.738.568,1.254.568c.414,0,.76-.127,1.037-.381s.453-.645.527-1.172Z" fill="#000" stroke-width="0"/><path d="M264.054,21.64l.152.932c-.297.062-.562.094-.797.094-.383,0-.68-.061-.891-.182s-.359-.28-.445-.478-.129-.612-.129-1.245v-3.58h-.773v-.82h.773v-1.541l1.049-.633v2.174h1.061v.82h-1.061v3.639c0,.301.019.494.056.58s.098.154.182.205.204.076.36.076c.117,0,.271-.014.463-.041Z" fill="#000" stroke-width="0"/><path d="M265.091,15.206v-1.213h1.055v1.213h-1.055ZM265.091,22.583v-6.223h1.055v6.223h-1.055Z" fill="#000" stroke-width="0"/><path d="M269.479,22.583l-2.367-6.223h1.113l1.336,3.727c.145.402.277.82.398,1.254.094-.328.225-.723.393-1.184l1.383-3.797h1.084l-2.355,6.223h-.984Z" fill="#000" stroke-width="0"/><path d="M273.757,15.206v-1.213h1.055v1.213h-1.055ZM273.757,22.583v-6.223h1.055v6.223h-1.055Z" fill="#000" stroke-width="0"/><path d="M278.72,21.64l.152.932c-.297.062-.562.094-.797.094-.383,0-.68-.061-.891-.182s-.359-.28-.445-.478-.129-.612-.129-1.245v-3.58h-.773v-.82h.773v-1.541l1.049-.633v2.174h1.061v.82h-1.061v3.639c0,.301.019.494.056.58s.098.154.182.205.204.076.36.076c.117,0,.271-.014.463-.041Z" fill="#000" stroke-width="0"/><path d="M279.704,24.979l-.117-.99c.23.062.432.094.604.094.234,0,.422-.039.562-.117s.256-.188.346-.328c.066-.105.174-.367.322-.785.02-.059.051-.145.094-.258l-2.361-6.234h1.137l1.295,3.604c.168.457.318.938.451,1.441.121-.484.266-.957.434-1.418l1.33-3.627h1.055l-2.367,6.328c-.254.684-.451,1.154-.592,1.412-.188.348-.402.603-.645.765s-.531.243-.867.243c-.203,0-.43-.043-.68-.129Z" fill="#000" stroke-width="0"/><path d="M65.207,36.983v-8.59h1.137v8.59h-1.137Z" fill="#000" stroke-width="0"/><path d="M68.213,36.983v-6.223h.949v.885c.457-.684,1.117-1.025,1.98-1.025.375,0,.72.067,1.034.202s.55.312.706.53.266.479.328.779c.039.195.059.537.059,1.025v3.826h-1.055v-3.785c0-.43-.041-.751-.123-.964s-.228-.383-.437-.51-.454-.19-.735-.19c-.449,0-.837.143-1.163.428s-.489.826-.489,1.623v3.398h-1.055Z" fill="#000" stroke-width="0"/><path d="M77.189,36.04l.152.932c-.297.062-.562.094-.797.094-.383,0-.68-.061-.891-.182s-.359-.28-.445-.478-.129-.612-.129-1.245v-3.58h-.773v-.82h.773v-1.541l1.049-.633v2.174h1.061v.82h-1.061v3.639c0,.301.019.494.056.58s.098.154.182.205.204.076.36.076c.117,0,.271-.014.463-.041Z" fill="#000" stroke-width="0"/><path d="M82.48,34.979l1.09.135c-.172.637-.49,1.131-.955,1.482s-1.059.527-1.781.527c-.91,0-1.632-.28-2.165-.841s-.8-1.347-.8-2.358c0-1.047.27-1.859.809-2.438s1.238-.867,2.098-.867c.832,0,1.512.283,2.039.85s.791,1.363.791,2.391c0,.062-.002.156-.006.281h-4.641c.039.684.232,1.207.58,1.57s.781.545,1.301.545c.387,0,.717-.102.99-.305s.49-.527.65-.973ZM79.018,33.274h3.475c-.047-.523-.18-.916-.398-1.178-.336-.406-.771-.609-1.307-.609-.484,0-.892.162-1.222.486s-.513.758-.548,1.301Z" fill="#000" stroke-width="0"/><path d="M84.883,36.983v-6.223h.949v.943c.242-.441.466-.732.671-.873s.431-.211.677-.211c.355,0,.717.113,1.084.34l-.363.979c-.258-.152-.516-.229-.773-.229-.23,0-.438.069-.621.208s-.314.331-.393.577c-.117.375-.176.785-.176,1.23v3.258h-1.055Z" fill="#000" stroke-width="0"/><path d="M88.891,36.983v-6.223h.949v.885c.457-.684,1.117-1.025,1.98-1.025.375,0,.72.067,1.034.202s.55.312.706.53.266.479.328.779c.039.195.059.537.059,1.025v3.826h-1.055v-3.785c0-.43-.041-.751-.123-.964s-.228-.383-.437-.51-.454-.19-.735-.19c-.449,0-.837.143-1.163.428s-.489.826-.489,1.623v3.398h-1.055Z" fill="#000" stroke-width="0"/><path d="M99.625,36.215c-.391.332-.767.566-1.128.703s-.749.205-1.163.205c-.684,0-1.209-.167-1.576-.501s-.551-.761-.551-1.28c0-.305.069-.583.208-.835s.32-.454.545-.606.478-.268.759-.346c.207-.055.52-.107.938-.158.852-.102,1.479-.223,1.881-.363.004-.145.006-.236.006-.275,0-.43-.1-.732-.299-.908-.27-.238-.67-.357-1.201-.357-.496,0-.862.087-1.099.261s-.411.481-.524.923l-1.031-.141c.094-.441.248-.798.463-1.069s.525-.48.932-.627.877-.22,1.412-.22c.531,0,.963.062,1.295.188s.576.282.732.472.266.429.328.718c.035.18.053.504.053.973v1.406c0,.98.022,1.601.067,1.86s.134.509.267.747h-1.102c-.109-.219-.18-.475-.211-.768ZM99.537,33.86c-.383.156-.957.289-1.723.398-.434.062-.74.133-.92.211s-.318.192-.416.343-.146.317-.146.501c0,.281.106.516.319.703s.524.281.935.281c.406,0,.768-.089,1.084-.267s.549-.421.697-.729c.113-.238.17-.59.17-1.055v-.387Z" fill="#000" stroke-width="0"/><path d="M102.215,36.983v-8.59h1.055v8.59h-1.055Z" fill="#000" stroke-width="0"/><path d="M108.238,39.368v-8.607h.961v.809c.227-.316.482-.554.768-.712s.631-.237,1.037-.237c.531,0,1,.137,1.406.41s.713.659.92,1.157.311,1.044.311,1.638c0,.637-.114,1.21-.343,1.72s-.561.9-.996,1.172-.894.407-1.374.407c-.352,0-.667-.074-.946-.223s-.509-.336-.688-.562v3.029h-1.055ZM109.193,33.907c0,.801.162,1.393.486,1.775s.717.574,1.178.574c.469,0,.87-.198,1.204-.595s.501-1.011.501-1.843c0-.793-.163-1.387-.489-1.781s-.716-.592-1.169-.592c-.449,0-.847.21-1.192.63s-.519,1.03-.519,1.831Z" fill="#000" stroke-width="0"/><path d="M114.52,33.872c0-1.152.32-2.006.961-2.561.535-.461,1.188-.691,1.957-.691.855,0,1.555.28,2.098.841s.814,1.335.814,2.323c0,.801-.12,1.431-.36,1.89s-.59.815-1.049,1.069-.96.381-1.503.381c-.871,0-1.575-.279-2.112-.838s-.806-1.363-.806-2.414ZM115.604,33.872c0,.797.174,1.394.521,1.79s.785.595,1.312.595c.523,0,.959-.199,1.307-.598s.521-1.006.521-1.822c0-.77-.175-1.353-.524-1.749s-.784-.595-1.304-.595c-.527,0-.965.197-1.312.592s-.521.99-.521,1.787Z" fill="#000" stroke-width="0"/><path d="M121.574,36.983v-6.223h.949v.943c.242-.441.466-.732.671-.873s.431-.211.677-.211c.355,0,.717.113,1.084.34l-.363.979c-.258-.152-.516-.229-.773-.229-.23,0-.438.069-.621.208s-.314.331-.393.577c-.117.375-.176.785-.176,1.23v3.258h-1.055Z" fill="#000" stroke-width="0"/><path d="M127.885,36.04l.152.932c-.297.062-.562.094-.797.094-.383,0-.68-.061-.891-.182s-.359-.28-.445-.478-.129-.612-.129-1.245v-3.58h-.773v-.82h.773v-1.541l1.049-.633v2.174h1.061v.82h-1.061v3.639c0,.301.019.494.056.58s.098.154.182.205.204.076.36.076c.117,0,.271-.014.463-.041Z" fill="#000" stroke-width="0"/><path d="M128.494,35.125l1.043-.164c.059.418.222.738.489.961s.642.334,1.122.334c.484,0,.844-.099,1.078-.296s.352-.429.352-.694c0-.238-.104-.426-.311-.562-.145-.094-.504-.213-1.078-.357-.773-.195-1.31-.364-1.608-.507s-.525-.34-.68-.592-.231-.53-.231-.835c0-.277.063-.534.19-.771s.3-.433.519-.589c.164-.121.388-.224.671-.308s.587-.126.911-.126c.488,0,.917.07,1.286.211s.642.331.817.571.297.562.363.964l-1.031.141c-.047-.32-.183-.57-.407-.75s-.542-.27-.952-.27c-.484,0-.83.08-1.037.24s-.311.348-.311.562c0,.137.043.26.129.369.086.113.221.207.404.281.105.039.416.129.932.27.746.199,1.267.362,1.562.489s.526.312.694.554.252.543.252.902c0,.352-.103.683-.308.993s-.501.551-.888.721-.824.255-1.312.255c-.809,0-1.425-.168-1.849-.504s-.694-.834-.812-1.494Z" fill="#000" stroke-width="0"/><path d="M142.311,36.215c-.391.332-.767.566-1.128.703s-.749.205-1.163.205c-.684,0-1.209-.167-1.576-.501s-.551-.761-.551-1.28c0-.305.069-.583.208-.835s.32-.454.545-.606.478-.268.759-.346c.207-.055.52-.107.938-.158.852-.102,1.479-.223,1.881-.363.004-.145.006-.236.006-.275,0-.43-.1-.732-.299-.908-.27-.238-.67-.357-1.201-.357-.496,0-.862.087-1.099.261s-.411.481-.524.923l-1.031-.141c.094-.441.248-.798.463-1.069s.525-.48.932-.627.877-.22,1.412-.22c.531,0,.963.062,1.295.188s.576.282.732.472.266.429.328.718c.035.18.053.504.053.973v1.406c0,.98.022,1.601.067,1.86s.134.509.267.747h-1.102c-.109-.219-.18-.475-.211-.768ZM142.223,33.86c-.383.156-.957.289-1.723.398-.434.062-.74.133-.92.211s-.318.192-.416.343-.146.317-.146.501c0,.281.106.516.319.703s.524.281.935.281c.406,0,.768-.089,1.084-.267s.549-.421.697-.729c.113-.238.17-.59.17-1.055v-.387Z" fill="#000" stroke-width="0"/><path d="M144.924,36.983v-6.223h.949v.885c.457-.684,1.117-1.025,1.98-1.025.375,0,.72.067,1.034.202s.55.312.706.53.266.479.328.779c.039.195.059.537.059,1.025v3.826h-1.055v-3.785c0-.43-.041-.751-.123-.964s-.228-.383-.437-.51-.454-.19-.735-.19c-.449,0-.837.143-1.163.428s-.489.826-.489,1.623v3.398h-1.055Z" fill="#000" stroke-width="0"/><path d="M155.635,36.983v-.785c-.395.617-.975.926-1.74.926-.496,0-.952-.137-1.368-.41s-.738-.655-.967-1.146-.343-1.054-.343-1.69c0-.621.104-1.185.311-1.69s.518-.894.932-1.163.877-.404,1.389-.404c.375,0,.709.079,1.002.237s.531.364.715.618v-3.082h1.049v8.59h-.979ZM152.301,33.877c0,.797.168,1.393.504,1.787s.732.592,1.189.592c.461,0,.853-.188,1.175-.565s.483-.952.483-1.726c0-.852-.164-1.477-.492-1.875s-.732-.598-1.213-.598c-.469,0-.86.191-1.175.574s-.472.986-.472,1.811Z" fill="#000" stroke-width="0"/><path d="M161.184,35.125l1.043-.164c.059.418.222.738.489.961s.642.334,1.122.334c.484,0,.844-.099,1.078-.296s.352-.429.352-.694c0-.238-.104-.426-.311-.562-.145-.094-.504-.213-1.078-.357-.773-.195-1.31-.364-1.608-.507s-.525-.34-.68-.592-.231-.53-.231-.835c0-.277.063-.534.19-.771s.3-.433.519-.589c.164-.121.388-.224.671-.308s.587-.126.911-.126c.488,0,.917.07,1.286.211s.642.331.817.571.297.562.363.964l-1.031.141c-.047-.32-.183-.57-.407-.75s-.542-.27-.952-.27c-.484,0-.83.08-1.037.24s-.311.348-.311.562c0,.137.043.26.129.369.086.113.221.207.404.281.105.039.416.129.932.27.746.199,1.267.362,1.562.489s.526.312.694.554.252.543.252.902c0,.352-.103.683-.308.993s-.501.551-.888.721-.824.255-1.312.255c-.809,0-1.425-.168-1.849-.504s-.694-.834-.812-1.494Z" fill="#000" stroke-width="0"/><path d="M167.605,36.983v-8.59h1.055v3.082c.492-.57,1.113-.855,1.863-.855.461,0,.861.091,1.201.272s.583.433.729.753.22.785.22,1.395v3.943h-1.055v-3.943c0-.527-.114-.911-.343-1.151s-.552-.36-.97-.36c-.312,0-.606.081-.882.243s-.472.382-.589.659-.176.66-.176,1.148v3.404h-1.055Z" fill="#000" stroke-width="0"/><path d="M178.539,34.979l1.09.135c-.172.637-.49,1.131-.955,1.482s-1.059.527-1.781.527c-.91,0-1.632-.28-2.165-.841s-.8-1.347-.8-2.358c0-1.047.27-1.859.809-2.438s1.238-.867,2.098-.867c.832,0,1.512.283,2.039.85s.791,1.363.791,2.391c0,.062-.002.156-.006.281h-4.641c.039.684.232,1.207.58,1.57s.781.545,1.301.545c.387,0,.717-.102.99-.305s.49-.527.65-.973ZM175.076,33.274h3.475c-.047-.523-.18-.916-.398-1.178-.336-.406-.771-.609-1.307-.609-.484,0-.892.162-1.222.486s-.513.758-.548,1.301Z" fill="#000" stroke-width="0"/><path d="M180.93,36.983v-8.59h1.055v8.59h-1.055Z" fill="#000" stroke-width="0"/><path d="M183.871,36.983v-5.402h-.932v-.82h.932v-.662c0-.418.037-.729.111-.932.102-.273.28-.495.536-.665s.614-.255,1.075-.255c.297,0,.625.035.984.105l-.158.92c-.219-.039-.426-.059-.621-.059-.32,0-.547.068-.68.205s-.199.393-.199.768v.574h1.213v.82h-1.213v5.402h-1.049Z" fill="#000" stroke-width="0"/><path d="M192.303,39.508c-.582-.734-1.074-1.594-1.477-2.578s-.604-2.004-.604-3.059c0-.93.15-1.82.451-2.672.352-.988.895-1.973,1.629-2.953h.756c-.473.812-.785,1.393-.938,1.74-.238.539-.426,1.102-.562,1.688-.168.73-.252,1.465-.252,2.203,0,1.879.584,3.756,1.752,5.631h-.756Z" fill="#000" stroke-width="0"/><path d="M194.611,36.983v-8.59h1.137v8.59h-1.137Z" fill="#000" stroke-width="0"/><path d="M197.406,32.799c0-1.426.383-2.542,1.148-3.349s1.754-1.21,2.965-1.21c.793,0,1.508.189,2.145.568s1.122.907,1.456,1.585.501,1.446.501,2.306c0,.871-.176,1.65-.527,2.338s-.85,1.208-1.494,1.562-1.34.53-2.086.53c-.809,0-1.531-.195-2.168-.586s-1.119-.924-1.447-1.6-.492-1.391-.492-2.145ZM198.578,32.817c0,1.035.278,1.851.835,2.446s1.255.894,2.095.894c.855,0,1.56-.301,2.112-.902s.829-1.455.829-2.561c0-.699-.118-1.31-.354-1.831s-.582-.926-1.037-1.213-.966-.431-1.532-.431c-.805,0-1.497.276-2.077.829s-.87,1.476-.87,2.769Z" fill="#000" stroke-width="0"/><path d="M207.051,36.983v-8.59h1.711l2.033,6.082c.188.566.324.99.41,1.271.098-.312.25-.771.457-1.377l2.057-5.977h1.529v8.59h-1.096v-7.189l-2.496,7.189h-1.025l-2.484-7.312v7.312h-1.096Z" fill="#000" stroke-width="0"/><path d="M220.627,36.983h-1.055v-6.721c-.254.242-.587.484-.999.727s-.782.424-1.11.545v-1.02c.59-.277,1.105-.613,1.547-1.008s.754-.777.938-1.148h.68v8.625Z" fill="#000" stroke-width="0"/><path d="M228.871,35.969v1.014h-5.678c-.008-.254.033-.498.123-.732.145-.387.376-.768.694-1.143s.778-.809,1.38-1.301c.934-.766,1.564-1.372,1.893-1.819s.492-.87.492-1.269c0-.418-.149-.771-.448-1.058s-.688-.431-1.169-.431c-.508,0-.914.152-1.219.457s-.459.727-.463,1.266l-1.084-.111c.074-.809.354-1.425.838-1.849s1.135-.636,1.951-.636c.824,0,1.477.229,1.957.686s.721,1.023.721,1.699c0,.344-.07.682-.211,1.014s-.374.682-.7,1.049-.868.871-1.626,1.512c-.633.531-1.039.892-1.219,1.081s-.328.38-.445.571h4.213Z" fill="#000" stroke-width="0"/><path d="M234.449,33.614v-1.008l3.639-.006v3.188c-.559.445-1.135.78-1.729,1.005s-1.203.337-1.828.337c-.844,0-1.61-.181-2.3-.542s-1.21-.884-1.562-1.567-.527-1.447-.527-2.291c0-.836.175-1.616.524-2.341s.853-1.263,1.509-1.614,1.412-.527,2.268-.527c.621,0,1.183.101,1.685.302s.896.481,1.181.841.502.828.65,1.406l-1.025.281c-.129-.438-.289-.781-.48-1.031s-.465-.45-.82-.601-.75-.226-1.184-.226c-.52,0-.969.079-1.348.237s-.685.366-.917.624-.413.541-.542.85c-.219.531-.328,1.107-.328,1.729,0,.766.132,1.406.396,1.922s.647.898,1.151,1.148,1.039.375,1.605.375c.492,0,.973-.095,1.441-.284s.824-.392,1.066-.606v-1.6h-2.525Z" fill="#000" stroke-width="0"/><path d="M240.32,39.508h-.756c1.168-1.875,1.752-3.752,1.752-5.631,0-.734-.084-1.463-.252-2.186-.133-.586-.318-1.148-.557-1.688-.152-.352-.467-.938-.943-1.758h.756c.734.98,1.277,1.965,1.629,2.953.301.852.451,1.742.451,2.672,0,1.055-.202,2.074-.606,3.059s-.896,1.844-1.474,2.578Z" fill="#000" stroke-width="0"/><path d="M248.107,36.983l-1.904-6.223h1.09l.99,3.592.369,1.336c.016-.066.123-.494.322-1.283l.99-3.645h1.084l.932,3.609.311,1.189.357-1.201,1.066-3.598h1.025l-1.945,6.223h-1.096l-.99-3.727-.24-1.061-1.26,4.787h-1.102Z" fill="#000" stroke-width="0"/><path d="M255.631,29.606v-1.213h1.055v1.213h-1.055ZM255.631,36.983v-6.223h1.055v6.223h-1.055Z" fill="#000" stroke-width="0"/><path d="M260.594,36.04l.152.932c-.297.062-.562.094-.797.094-.383,0-.68-.061-.891-.182s-.359-.28-.445-.478-.129-.612-.129-1.245v-3.58h-.773v-.82h.773v-1.541l1.049-.633v2.174h1.061v.82h-1.061v3.639c0,.301.019.494.056.58s.098.154.182.205.204.076.36.076c.117,0,.271-.014.463-.041Z" fill="#000" stroke-width="0"/><path d="M261.625,36.983v-8.59h1.055v3.082c.492-.57,1.113-.855,1.863-.855.461,0,.861.091,1.201.272s.583.433.729.753.22.785.22,1.395v3.943h-1.055v-3.943c0-.527-.114-.911-.343-1.151s-.552-.36-.97-.36c-.312,0-.606.081-.882.243s-.472.382-.589.659-.176.66-.176,1.148v3.404h-1.055Z" fill="#000" stroke-width="0"/><path d="M273.936,36.04l.152.932c-.297.062-.562.094-.797.094-.383,0-.68-.061-.891-.182s-.359-.28-.445-.478-.129-.612-.129-1.245v-3.58h-.773v-.82h.773v-1.541l1.049-.633v2.174h1.061v.82h-1.061v3.639c0,.301.019.494.056.58s.098.154.182.205.204.076.36.076c.117,0,.271-.014.463-.041Z" fill="#000" stroke-width="0"/><path d="M276.115,36.983l-1.904-6.223h1.09l.99,3.592.369,1.336c.016-.066.123-.494.322-1.283l.99-3.645h1.084l.932,3.609.311,1.189.357-1.201,1.066-3.598h1.025l-1.945,6.223h-1.096l-.99-3.727-.24-1.061-1.26,4.787h-1.102Z" fill="#000" stroke-width="0"/><path d="M283.24,33.872c0-1.152.32-2.006.961-2.561.535-.461,1.188-.691,1.957-.691.855,0,1.555.28,2.098.841s.814,1.335.814,2.323c0,.801-.12,1.431-.36,1.89s-.59.815-1.049,1.069-.96.381-1.503.381c-.871,0-1.575-.279-2.112-.838s-.806-1.363-.806-2.414ZM284.324,33.872c0,.797.174,1.394.521,1.79s.785.595,1.312.595c.523,0,.959-.199,1.307-.598s.521-1.006.521-1.822c0-.77-.175-1.353-.524-1.749s-.784-.595-1.304-.595c-.527,0-.965.197-1.312.592s-.521.99-.521,1.787Z" fill="#000" stroke-width="0"/><path d="M297.9,34.979l1.09.135c-.172.637-.49,1.131-.955,1.482s-1.059.527-1.781.527c-.91,0-1.632-.28-2.165-.841s-.8-1.347-.8-2.358c0-1.047.27-1.859.809-2.438s1.238-.867,2.098-.867c.832,0,1.512.283,2.039.85s.791,1.363.791,2.391c0,.062-.002.156-.006.281h-4.641c.039.684.232,1.207.58,1.57s.781.545,1.301.545c.387,0,.717-.102.99-.305s.49-.527.65-.973ZM294.438,33.274h3.475c-.047-.523-.18-.916-.398-1.178-.336-.406-.771-.609-1.307-.609-.484,0-.892.162-1.222.486s-.513.758-.548,1.301Z" fill="#000" stroke-width="0"/><path d="M299.611,36.983l2.273-3.234-2.104-2.988h1.318l.955,1.459c.18.277.324.51.434.697.172-.258.33-.486.475-.686l1.049-1.471h1.26l-2.15,2.93,2.314,3.293h-1.295l-1.277-1.934-.34-.521-1.635,2.455h-1.277Z" fill="#000" stroke-width="0"/><path d="M308.617,36.04l.152.932c-.297.062-.562.094-.797.094-.383,0-.68-.061-.891-.182s-.359-.28-.445-.478-.129-.612-.129-1.245v-3.58h-.773v-.82h.773v-1.541l1.049-.633v2.174h1.061v.82h-1.061v3.639c0,.301.019.494.056.58s.098.154.182.205.204.076.36.076c.117,0,.271-.014.463-.041Z" fill="#000" stroke-width="0"/><path d="M313.908,34.979l1.09.135c-.172.637-.49,1.131-.955,1.482s-1.059.527-1.781.527c-.91,0-1.632-.28-2.165-.841s-.8-1.347-.8-2.358c0-1.047.27-1.859.809-2.438s1.238-.867,2.098-.867c.832,0,1.512.283,2.039.85s.791,1.363.791,2.391c0,.062-.002.156-.006.281h-4.641c.039.684.232,1.207.58,1.57s.781.545,1.301.545c.387,0,.717-.102.99-.305s.49-.527.65-.973ZM310.445,33.274h3.475c-.047-.523-.18-.916-.398-1.178-.336-.406-.771-.609-1.307-.609-.484,0-.892.162-1.222.486s-.513.758-.548,1.301Z" fill="#000" stroke-width="0"/><path d="M316.311,36.983v-6.223h.949v.943c.242-.441.466-.732.671-.873s.431-.211.677-.211c.355,0,.717.113,1.084.34l-.363.979c-.258-.152-.516-.229-.773-.229-.23,0-.438.069-.621.208s-.314.331-.393.577c-.117.375-.176.785-.176,1.23v3.258h-1.055Z" fill="#000" stroke-width="0"/><path d="M320.318,36.983v-6.223h.949v.885c.457-.684,1.117-1.025,1.98-1.025.375,0,.72.067,1.034.202s.55.312.706.53.266.479.328.779c.039.195.059.537.059,1.025v3.826h-1.055v-3.785c0-.43-.041-.751-.123-.964s-.228-.383-.437-.51-.454-.19-.735-.19c-.449,0-.837.143-1.163.428s-.489.826-.489,1.623v3.398h-1.055Z" fill="#000" stroke-width="0"/><path d="M331.053,36.215c-.391.332-.767.566-1.128.703s-.749.205-1.163.205c-.684,0-1.209-.167-1.576-.501s-.551-.761-.551-1.28c0-.305.069-.583.208-.835s.32-.454.545-.606.478-.268.759-.346c.207-.055.52-.107.938-.158.852-.102,1.479-.223,1.881-.363.004-.145.006-.236.006-.275,0-.43-.1-.732-.299-.908-.27-.238-.67-.357-1.201-.357-.496,0-.862.087-1.099.261s-.411.481-.524.923l-1.031-.141c.094-.441.248-.798.463-1.069s.525-.48.932-.627.877-.22,1.412-.22c.531,0,.963.062,1.295.188s.576.282.732.472.266.429.328.718c.035.18.053.504.053.973v1.406c0,.98.022,1.601.067,1.86s.134.509.267.747h-1.102c-.109-.219-.18-.475-.211-.768ZM330.965,33.86c-.383.156-.957.289-1.723.398-.434.062-.74.133-.92.211s-.318.192-.416.343-.146.317-.146.501c0,.281.106.516.319.703s.524.281.935.281c.406,0,.768-.089,1.084-.267s.549-.421.697-.729c.113-.238.17-.59.17-1.055v-.387Z" fill="#000" stroke-width="0"/><path d="M333.643,36.983v-8.59h1.055v8.59h-1.055Z" fill="#000" stroke-width="0"/><path d="M339.244,35.125l1.043-.164c.059.418.222.738.489.961s.642.334,1.122.334c.484,0,.844-.099,1.078-.296s.352-.429.352-.694c0-.238-.104-.426-.311-.562-.145-.094-.504-.213-1.078-.357-.773-.195-1.31-.364-1.608-.507s-.525-.34-.68-.592-.231-.53-.231-.835c0-.277.063-.534.19-.771s.3-.433.519-.589c.164-.121.388-.224.671-.308s.587-.126.911-.126c.488,0,.917.07,1.286.211s.642.331.817.571.297.562.363.964l-1.031.141c-.047-.32-.183-.57-.407-.75s-.542-.27-.952-.27c-.484,0-.83.08-1.037.24s-.311.348-.311.562c0,.137.043.26.129.369.086.113.221.207.404.281.105.039.416.129.932.27.746.199,1.267.362,1.562.489s.526.312.694.554.252.543.252.902c0,.352-.103.683-.308.993s-.501.551-.888.721-.824.255-1.312.255c-.809,0-1.425-.168-1.849-.504s-.694-.834-.812-1.494Z" fill="#000" stroke-width="0"/><path d="M345.666,36.983v-8.59h1.055v3.082c.492-.57,1.113-.855,1.863-.855.461,0,.861.091,1.201.272s.583.433.729.753.22.785.22,1.395v3.943h-1.055v-3.943c0-.527-.114-.911-.343-1.151s-.552-.36-.97-.36c-.312,0-.606.081-.882.243s-.472.382-.589.659-.176.66-.176,1.148v3.404h-1.055Z" fill="#000" stroke-width="0"/><path d="M356.6,34.979l1.09.135c-.172.637-.49,1.131-.955,1.482s-1.059.527-1.781.527c-.91,0-1.632-.28-2.165-.841s-.8-1.347-.8-2.358c0-1.047.27-1.859.809-2.438s1.238-.867,2.098-.867c.832,0,1.512.283,2.039.85s.791,1.363.791,2.391c0,.062-.002.156-.006.281h-4.641c.039.684.232,1.207.58,1.57s.781.545,1.301.545c.387,0,.717-.102.99-.305s.49-.527.65-.973ZM353.137,33.274h3.475c-.047-.523-.18-.916-.398-1.178-.336-.406-.771-.609-1.307-.609-.484,0-.892.162-1.222.486s-.513.758-.548,1.301Z" fill="#000" stroke-width="0"/><path d="M358.99,36.983v-8.59h1.055v8.59h-1.055Z" fill="#000" stroke-width="0"/><path d="M363.408,36.983l-2.367-6.223h1.113l1.336,3.727c.145.402.277.82.398,1.254.094-.328.225-.723.393-1.184l1.383-3.797h1.084l-2.355,6.223h-.984Z" fill="#000" stroke-width="0"/><path d="M371.939,34.979l1.09.135c-.172.637-.49,1.131-.955,1.482s-1.059.527-1.781.527c-.91,0-1.632-.28-2.165-.841s-.8-1.347-.8-2.358c0-1.047.27-1.859.809-2.438s1.238-.867,2.098-.867c.832,0,1.512.283,2.039.85s.791,1.363.791,2.391c0,.062-.002.156-.006.281h-4.641c.039.684.232,1.207.58,1.57s.781.545,1.301.545c.387,0,.717-.102.99-.305s.49-.527.65-.973ZM368.477,33.274h3.475c-.047-.523-.18-.916-.398-1.178-.336-.406-.771-.609-1.307-.609-.484,0-.892.162-1.222.486s-.513.758-.548,1.301Z" fill="#000" stroke-width="0"/><path d="M373.932,35.125l1.043-.164c.059.418.222.738.489.961s.642.334,1.122.334c.484,0,.844-.099,1.078-.296s.352-.429.352-.694c0-.238-.104-.426-.311-.562-.145-.094-.504-.213-1.078-.357-.773-.195-1.31-.364-1.608-.507s-.525-.34-.68-.592-.231-.53-.231-.835c0-.277.063-.534.19-.771s.3-.433.519-.589c.164-.121.388-.224.671-.308s.587-.126.911-.126c.488,0,.917.07,1.286.211s.642.331.817.571.297.562.363.964l-1.031.141c-.047-.32-.183-.57-.407-.75s-.542-.27-.952-.27c-.484,0-.83.08-1.037.24s-.311.348-.311.562c0,.137.043.26.129.369.086.113.221.207.404.281.105.039.416.129.932.27.746.199,1.267.362,1.562.489s.526.312.694.554.252.543.252.902c0,.352-.103.683-.308.993s-.501.551-.888.721-.824.255-1.312.255c-.809,0-1.425-.168-1.849-.504s-.694-.834-.812-1.494Z" fill="#000" stroke-width="0"/><rect x="59.169" y="90.492" width="163.397" height="130.5" fill="#fff" stroke="#000" stroke-miterlimit="10"/><rect x="74.735" y="135.587" width="130.156" height="40.122" fill="#fff" stroke="#000" stroke-miterlimit="10" stroke-width=".5"/><rect x="105.272" y="148.101" width="15.094" height="15.094" fill="#fff" stroke="#000" stroke-miterlimit="10" stroke-width=".5"/><rect x="120.366" y="148.101" width="15.094" height="15.094" fill="#fff" stroke="#000" stroke-miterlimit="10" stroke-width=".5"/><rect x="158.52" y="148.101" width="15.094" height="15.094" fill="#fff" stroke="#000" stroke-miterlimit="10" stroke-width=".5"/><rect x="173.614" y="148.101" width="15.094" height="15.094" fill="#fff" stroke="#000" stroke-miterlimit="10" stroke-width=".5"/><path d="M93.206,159.535h-1.572l-.625-1.626h-2.861l-.591,1.626h-1.533l2.788-7.158h1.528l2.866,7.158ZM90.545,156.703l-.986-2.656-.967,2.656h1.953Z" fill="#000" stroke-width="0"/><path d="M114.074,159.535h-1.372v-5.171c-.501.469-1.092.815-1.772,1.04v-1.245c.358-.117.747-.339,1.167-.666s.708-.709.864-1.146h1.113v7.188Z" fill="#000" stroke-width="0"/><path d="M130.191,158.261v1.274h-4.81c.052-.481.208-.938.469-1.369.26-.432.775-1.004,1.543-1.717.619-.576.998-.967,1.138-1.172.189-.283.283-.562.283-.84,0-.306-.082-.541-.247-.705-.165-.165-.392-.247-.681-.247-.287,0-.514.087-.684.259-.169.173-.267.459-.293.859l-1.367-.137c.082-.755.337-1.297.767-1.626.43-.328.967-.493,1.611-.493.707,0,1.261.19,1.665.571s.605.854.605,1.421c0,.322-.058.629-.173.921-.116.291-.299.597-.549.915-.166.212-.465.517-.898.913-.433.397-.707.661-.823.791-.116.131-.209.258-.281.381h2.725Z" fill="#000" stroke-width="0"/><path d="M163.713,157.636l1.328-.161c.042.339.156.598.342.776.186.18.41.269.674.269.283,0,.521-.107.715-.322.194-.215.291-.504.291-.869,0-.345-.093-.618-.278-.82-.186-.201-.412-.303-.679-.303-.176,0-.386.034-.63.103l.151-1.118c.371.01.654-.07.85-.241s.293-.398.293-.682c0-.24-.072-.433-.215-.576-.144-.143-.334-.215-.571-.215-.234,0-.435.082-.601.244-.166.163-.268.4-.303.713l-1.265-.215c.088-.433.221-.778.397-1.037.178-.259.425-.463.742-.61.317-.148.673-.223,1.067-.223.674,0,1.214.215,1.621.645.335.352.503.749.503,1.191,0,.629-.344,1.13-1.03,1.504.41.088.738.285.983.591.246.307.369.676.369,1.108,0,.629-.229,1.164-.688,1.606-.459.443-1.03.664-1.714.664-.648,0-1.186-.187-1.611-.559-.427-.373-.674-.86-.742-1.463Z" fill="#000" stroke-width="0"/><path d="M181.446,159.535v-1.44h-2.93v-1.201l3.105-4.546h1.152v4.541h.889v1.206h-.889v1.44h-1.328ZM181.446,156.889v-2.446l-1.646,2.446h1.646Z" fill="#000" stroke-width="0"/><rect x="139.813" y="105.398" width="31.07" height="15.094" fill="#fff" stroke="#000" stroke-miterlimit="10" stroke-width=".5"/><rect x="108.743" y="105.398" width="31.07" height="15.094" fill="#fff" stroke="#000" stroke-miterlimit="10" stroke-width=".5"/><path d="M121.188,109.36c.693,0,1.235.248,1.626.742.465.586.698,1.558.698,2.915s-.234,2.328-.703,2.92c-.387.488-.928.732-1.621.732s-1.258-.268-1.685-.803-.64-1.49-.64-2.864c0-1.348.234-2.318.703-2.91.387-.488.928-.732,1.621-.732ZM121.188,110.498c-.166,0-.314.053-.444.159s-.231.295-.303.569c-.094.355-.142.952-.142,1.792s.042,1.417.127,1.731.191.523.32.627.276.156.442.156.314-.053.444-.159.231-.295.303-.569c.094-.352.142-.947.142-1.787s-.042-1.417-.127-1.731-.191-.524-.32-.63-.276-.159-.442-.159Z" fill="#000" stroke-width="0"/><path d="M124.664,116.548v-7.158h1.372v2.578c.423-.482.924-.723,1.504-.723.631,0,1.154.229,1.567.686s.62,1.114.62,1.97c0,.885-.211,1.567-.632,2.046s-.934.718-1.536.718c-.296,0-.588-.074-.876-.222s-.536-.367-.745-.657v.762h-1.274ZM126.026,113.843c0,.537.084.934.254,1.191.238.365.553.547.947.547.303,0,.561-.129.774-.388s.32-.667.32-1.223c0-.592-.107-1.02-.322-1.282s-.49-.393-.825-.393c-.329,0-.602.128-.82.383s-.327.644-.327,1.165Z" fill="#000" stroke-width="0"/><path d="M152.53,109.36c.693,0,1.235.248,1.626.742.465.586.698,1.558.698,2.915s-.234,2.328-.703,2.92c-.388.488-.928.732-1.621.732-.697,0-1.259-.268-1.685-.803-.427-.536-.64-1.49-.64-2.864,0-1.348.234-2.318.703-2.91.387-.488.928-.732,1.621-.732ZM152.53,110.498c-.166,0-.314.053-.444.159-.131.106-.231.295-.303.569-.095.355-.142.952-.142,1.792s.042,1.417.127,1.731c.084.314.191.523.319.627.129.104.276.156.442.156s.313-.053.444-.159c.13-.106.23-.295.303-.569.094-.352.142-.947.142-1.787s-.043-1.417-.127-1.731c-.085-.314-.191-.524-.32-.63-.128-.106-.275-.159-.441-.159Z" fill="#000" stroke-width="0"/><path d="M160.587,112.896l-1.353.244c-.046-.27-.149-.474-.311-.61s-.37-.205-.627-.205c-.342,0-.614.118-.818.354-.203.236-.305.631-.305,1.184,0,.615.104,1.05.31,1.304.207.254.484.381.833.381.26,0,.474-.074.64-.222s.283-.403.352-.764l1.348.229c-.141.619-.409,1.085-.806,1.401-.397.316-.93.474-1.597.474-.759,0-1.363-.239-1.814-.718-.45-.479-.676-1.141-.676-1.987,0-.856.226-1.522.679-2,.452-.477,1.064-.715,1.836-.715.631,0,1.134.136,1.506.408.373.272.641.686.804,1.243Z" fill="#000" stroke-width="0"/><rect x="124.278" y="190.803" width="31.07" height="15.094" fill="#fff" stroke="#000" stroke-miterlimit="10" stroke-width=".5"/><rect x="93.208" y="190.803" width="31.07" height="15.094" fill="#fff" stroke="#000" stroke-miterlimit="10" stroke-width=".5"/><rect x="155.348" y="190.803" width="31.07" height="15.094" fill="#d0d3d4" stroke="#101820" stroke-miterlimit="10" stroke-width=".5"/><path d="M105.926,194.765c.693,0,1.235.248,1.626.742.465.586.698,1.558.698,2.915s-.234,2.328-.703,2.92c-.387.488-.928.732-1.621.732s-1.258-.268-1.685-.803c-.426-.536-.64-1.49-.64-2.864,0-1.348.234-2.317.703-2.91.387-.488.928-.732,1.621-.732ZM105.926,195.902c-.166,0-.314.053-.444.159-.13.105-.231.295-.303.568-.094.355-.142.952-.142,1.792s.042,1.417.127,1.731c.084.313.191.523.32.627.128.104.276.156.442.156s.314-.053.444-.158c.13-.106.231-.296.303-.569.094-.352.142-.947.142-1.787s-.042-1.417-.127-1.73c-.084-.314-.191-.524-.32-.63-.128-.106-.276-.159-.442-.159Z" fill="#000" stroke-width="0"/><path d="M110.487,198.349l-1.245-.225c.14-.501.381-.872.723-1.113.342-.24.85-.361,1.523-.361.612,0,1.068.072,1.367.218.299.145.51.328.632.552.122.223.183.632.183,1.228l-.015,1.602c0,.456.022.792.066,1.009.044.216.126.448.247.695h-1.357c-.036-.091-.08-.226-.132-.405-.023-.081-.039-.135-.049-.161-.234.229-.485.399-.752.513-.267.114-.552.171-.854.171-.534,0-.955-.145-1.262-.435-.308-.289-.461-.655-.461-1.099,0-.293.07-.554.21-.783s.336-.405.588-.527.616-.229,1.091-.32c.641-.12,1.085-.232,1.333-.337v-.137c0-.264-.065-.451-.195-.563s-.376-.169-.737-.169c-.244,0-.435.048-.571.145-.137.096-.248.265-.332.505ZM112.323,199.462c-.176.059-.454.129-.835.21-.381.082-.63.161-.747.239-.179.127-.269.288-.269.483,0,.192.072.358.215.498.143.141.326.21.547.21.248,0,.483-.081.708-.244.166-.123.275-.274.327-.454.036-.117.054-.34.054-.669v-.273Z" fill="#000" stroke-width="0"/><path d="M133.941,194.765c.693,0,1.235.248,1.626.742.465.586.698,1.558.698,2.915s-.234,2.328-.703,2.92c-.387.488-.928.732-1.621.732s-1.258-.268-1.685-.803c-.426-.536-.64-1.49-.64-2.864,0-1.348.234-2.317.703-2.91.387-.488.928-.732,1.621-.732ZM133.941,195.902c-.166,0-.314.053-.444.159-.13.105-.231.295-.303.568-.094.355-.142.952-.142,1.792s.042,1.417.127,1.731c.084.313.191.523.32.627.128.104.276.156.442.156s.314-.053.444-.158c.13-.106.231-.296.303-.569.094-.352.142-.947.142-1.787s-.042-1.417-.127-1.73c-.084-.314-.191-.524-.32-.63-.128-.106-.276-.159-.442-.159Z" fill="#000" stroke-width="0"/><path d="M137.418,201.952v-7.158h1.372v2.578c.423-.481.924-.723,1.504-.723.631,0,1.154.229,1.567.687.414.457.62,1.114.62,1.97,0,.886-.211,1.567-.632,2.046s-.934.718-1.536.718c-.296,0-.588-.074-.876-.222-.288-.148-.536-.367-.745-.657v.762h-1.274ZM138.78,199.247c0,.537.084.935.254,1.191.238.365.553.547.947.547.303,0,.561-.129.774-.388s.32-.667.32-1.224c0-.592-.107-1.02-.322-1.281-.215-.263-.49-.394-.825-.394-.329,0-.602.128-.82.384-.218.255-.327.644-.327,1.164Z" fill="#000" stroke-width="0"/><path d="M146.803,201.952h-1.372v-5.171c-.502.469-1.093.815-1.772,1.04v-1.245c.357-.117.747-.339,1.167-.666s.708-.709.864-1.146h1.113v7.188Z" fill="#000" stroke-width="0"/><path d="M165.011,194.765c.693,0,1.235.248,1.626.742.466.586.698,1.558.698,2.915s-.234,2.328-.703,2.92c-.387.488-.928.732-1.621.732s-1.258-.268-1.685-.803c-.426-.536-.64-1.49-.64-2.864,0-1.348.234-2.317.703-2.91.388-.488.928-.732,1.621-.732ZM165.011,195.902c-.166,0-.313.053-.444.159-.13.105-.23.295-.303.568-.094.355-.142.952-.142,1.792s.043,1.417.127,1.731c.085.313.191.523.32.627.128.104.275.156.441.156s.314-.053.444-.158c.131-.106.231-.296.303-.569.095-.352.142-.947.142-1.787s-.042-1.417-.127-1.73c-.084-.314-.191-.524-.319-.63-.129-.106-.276-.159-.442-.159Z" fill="#000" stroke-width="0"/><path d="M168.487,201.952v-7.158h1.372v2.578c.424-.481.925-.723,1.504-.723.632,0,1.154.229,1.567.687.414.457.62,1.114.62,1.97,0,.886-.211,1.567-.632,2.046-.422.479-.934.718-1.536.718-.296,0-.588-.074-.876-.222-.288-.148-.536-.367-.745-.657v.762h-1.274ZM169.85,199.247c0,.537.085.935.254,1.191.238.365.554.547.947.547.303,0,.561-.129.774-.388.213-.259.319-.667.319-1.224,0-.592-.107-1.02-.322-1.281-.215-.263-.489-.394-.825-.394-.328,0-.602.128-.82.384-.218.255-.327.644-.327,1.164Z" fill="#000" stroke-width="0"/><path d="M178.995,200.678v1.274h-4.81c.053-.481.209-.938.469-1.369.261-.432.775-1.004,1.543-1.717.619-.576.998-.967,1.138-1.172.189-.283.283-.562.283-.84,0-.306-.082-.541-.246-.705-.165-.165-.392-.247-.682-.247-.286,0-.514.087-.684.259-.169.173-.267.459-.293.859l-1.367-.137c.082-.755.337-1.297.767-1.626.43-.328.967-.493,1.611-.493.707,0,1.262.19,1.665.571.404.381.605.854.605,1.421,0,.322-.058.629-.173.921-.116.291-.299.597-.55.915-.166.212-.465.517-.898.913-.433.397-.707.661-.822.791-.116.131-.209.258-.281.381h2.725Z" fill="#000" stroke-width="0"/><rect x="221.825" y="90.492" width="163.397" height="130.5" fill="#fff" stroke="#000" stroke-miterlimit="10"/><rect x="238.132" y="135.587" width="130.156" height="40.122" fill="#fff" stroke="#000" stroke-miterlimit="10" stroke-width=".5"/><rect x="268.669" y="148.101" width="15.094" height="15.094" fill="#fff" stroke="#000" stroke-miterlimit="10" stroke-width=".5"/><rect x="283.764" y="148.101" width="15.094" height="15.094" fill="#fff" stroke="#000" stroke-miterlimit="10" stroke-width=".5"/><rect x="321.917" y="148.101" width="15.094" height="15.094" fill="#fff" stroke="#000" stroke-miterlimit="10" stroke-width=".5"/><rect x="337.012" y="148.101" width="15.094" height="15.094" fill="#fff" stroke="#000" stroke-miterlimit="10" stroke-width=".5"/><path d="M249.968,151.328h2.861c.566,0,.989.023,1.268.07.278.048.527.146.747.296.22.149.402.349.549.598s.22.528.22.838c0,.335-.09.643-.271.923-.181.279-.426.489-.735.63.437.127.771.343,1.006.649.234.306.352.665.352,1.079,0,.325-.075.642-.227.949s-.358.554-.62.737c-.263.185-.585.297-.97.34-.24.025-.821.042-1.743.049h-2.437v-7.158ZM251.413,152.52v1.655h.947c.563,0,.913-.009,1.05-.024.248-.029.442-.115.584-.257s.212-.328.212-.559c0-.222-.061-.401-.183-.54-.122-.138-.304-.222-.545-.251-.143-.017-.555-.024-1.235-.024h-.83ZM251.413,155.366v1.914h1.338c.521,0,.852-.015.991-.044.215-.039.39-.135.525-.286.135-.151.202-.354.202-.607,0-.215-.052-.397-.156-.547-.104-.15-.255-.259-.451-.327-.197-.068-.624-.103-1.282-.103h-1.167Z" fill="#000" stroke-width="0"/><path d="M277.472,159.535h-1.372v-5.171c-.502.469-1.093.815-1.772,1.04v-1.245c.357-.117.747-.339,1.167-.666s.708-.709.864-1.146h1.113v7.188Z" fill="#000" stroke-width="0"/><path d="M293.589,158.261v1.274h-4.81c.052-.481.208-.938.469-1.369.26-.432.774-1.004,1.543-1.717.618-.576.997-.967,1.138-1.172.188-.283.283-.562.283-.84,0-.306-.082-.541-.247-.705-.164-.165-.392-.247-.681-.247-.287,0-.515.087-.684.259-.17.173-.268.459-.293.859l-1.367-.137c.081-.755.337-1.297.767-1.626.43-.328.967-.493,1.611-.493.706,0,1.261.19,1.665.571.403.381.605.854.605,1.421,0,.322-.058.629-.174.921-.115.291-.299.597-.549.915-.166.212-.466.517-.898.913-.434.397-.707.661-.823.791-.115.131-.209.258-.28.381h2.725Z" fill="#000" stroke-width="0"/><path d="M327.11,157.636l1.328-.161c.042.339.156.598.342.776.186.18.41.269.674.269.283,0,.521-.107.715-.322.194-.215.291-.504.291-.869,0-.345-.093-.618-.278-.82-.186-.201-.412-.303-.679-.303-.176,0-.386.034-.63.103l.151-1.118c.371.01.654-.07.85-.241s.293-.398.293-.682c0-.24-.072-.433-.215-.576-.144-.143-.334-.215-.571-.215-.234,0-.435.082-.601.244-.166.163-.268.4-.303.713l-1.265-.215c.088-.433.221-.778.397-1.037.178-.259.425-.463.742-.61.317-.148.673-.223,1.067-.223.674,0,1.214.215,1.621.645.335.352.503.749.503,1.191,0,.629-.344,1.13-1.03,1.504.41.088.738.285.983.591.246.307.369.676.369,1.108,0,.629-.229,1.164-.688,1.606-.459.443-1.03.664-1.714.664-.648,0-1.186-.187-1.611-.559-.427-.373-.674-.86-.742-1.463Z" fill="#000" stroke-width="0"/><path d="M344.844,159.535v-1.44h-2.93v-1.201l3.105-4.546h1.152v4.541h.889v1.206h-.889v1.44h-1.328ZM344.844,156.889v-2.446l-1.646,2.446h1.646Z" fill="#000" stroke-width="0"/><rect x="303.21" y="105.398" width="31.07" height="15.094" fill="#fff" stroke="#000" stroke-miterlimit="10" stroke-width=".5"/><rect x="272.141" y="105.398" width="31.07" height="15.094" fill="#fff" stroke="#000" stroke-miterlimit="10" stroke-width=".5"/><path d="M284.585,109.36c.693,0,1.235.248,1.626.742.465.586.698,1.558.698,2.915s-.234,2.328-.703,2.92c-.388.488-.928.732-1.621.732-.697,0-1.259-.268-1.685-.803-.427-.536-.64-1.49-.64-2.864,0-1.348.234-2.318.703-2.91.387-.488.928-.732,1.621-.732ZM284.585,110.498c-.166,0-.314.053-.444.159-.131.106-.231.295-.303.569-.095.355-.142.952-.142,1.792s.042,1.417.127,1.731c.084.314.191.523.319.627.129.104.276.156.442.156s.313-.053.444-.159c.13-.106.23-.295.303-.569.094-.352.142-.947.142-1.787s-.043-1.417-.127-1.731c-.085-.314-.191-.524-.32-.63-.128-.106-.275-.159-.441-.159Z" fill="#000" stroke-width="0"/><path d="M288.062,116.548v-7.158h1.372v2.578c.423-.482.924-.723,1.504-.723.631,0,1.153.229,1.567.686.413.458.62,1.114.62,1.97,0,.885-.211,1.567-.633,2.046-.421.479-.934.718-1.535.718-.297,0-.589-.074-.877-.222s-.536-.367-.744-.657v.762h-1.274ZM289.424,113.843c0,.537.084.934.254,1.191.237.365.553.547.947.547.303,0,.561-.129.773-.388.214-.259.32-.667.32-1.223,0-.592-.107-1.02-.322-1.282s-.49-.393-.825-.393c-.329,0-.603.128-.82.383-.219.255-.327.644-.327,1.165Z" fill="#000" stroke-width="0"/><path d="M315.928,109.36c.693,0,1.235.248,1.626.742.466.586.698,1.558.698,2.915s-.234,2.328-.703,2.92c-.387.488-.928.732-1.621.732-.697,0-1.258-.268-1.685-.803s-.64-1.49-.64-2.864c0-1.348.234-2.318.703-2.91.387-.488.928-.732,1.621-.732ZM315.928,110.498c-.166,0-.314.053-.444.159s-.231.295-.303.569c-.095.355-.142.952-.142,1.792s.043,1.417.127,1.731.191.523.32.627c.128.104.275.156.441.156s.314-.053.444-.159.231-.295.303-.569c.095-.352.142-.947.142-1.787s-.043-1.417-.127-1.731-.191-.524-.32-.63c-.128-.106-.275-.159-.441-.159Z" fill="#000" stroke-width="0"/><path d="M323.984,112.896l-1.353.244c-.046-.27-.149-.474-.31-.61-.162-.137-.371-.205-.628-.205-.342,0-.614.118-.817.354-.204.236-.306.631-.306,1.184,0,.615.104,1.05.31,1.304.207.254.484.381.833.381.261,0,.474-.074.64-.222s.283-.403.352-.764l1.348.229c-.141.619-.408,1.085-.806,1.401s-.929.474-1.597.474c-.758,0-1.363-.239-1.814-.718-.45-.479-.676-1.141-.676-1.987,0-.856.227-1.522.679-2s1.064-.715,1.836-.715c.632,0,1.134.136,1.507.408.372.272.641.686.803,1.243Z" fill="#000" stroke-width="0"/><rect x="287.676" y="190.803" width="31.07" height="15.094" fill="#fff" stroke="#000" stroke-miterlimit="10" stroke-width=".5"/><rect x="256.606" y="190.803" width="31.07" height="15.094" fill="#fff" stroke="#000" stroke-miterlimit="10" stroke-width=".5"/><rect x="318.745" y="190.803" width="31.07" height="15.094" fill="#d0d3d4" stroke="#101820" stroke-miterlimit="10" stroke-width=".5"/><path d="M269.323,194.765c.693,0,1.235.248,1.626.742.466.586.698,1.558.698,2.915s-.234,2.328-.703,2.92c-.387.488-.928.732-1.621.732s-1.258-.268-1.685-.803c-.426-.536-.64-1.49-.64-2.864,0-1.348.234-2.317.703-2.91.388-.488.928-.732,1.621-.732ZM269.323,195.902c-.166,0-.313.053-.444.159-.13.105-.23.295-.303.568-.094.355-.142.952-.142,1.792s.043,1.417.127,1.731c.085.313.191.523.32.627.128.104.275.156.441.156s.314-.053.444-.158c.131-.106.231-.296.303-.569.095-.352.142-.947.142-1.787s-.042-1.417-.127-1.73c-.084-.314-.191-.524-.319-.63-.129-.106-.276-.159-.442-.159Z" fill="#000" stroke-width="0"/><path d="M273.884,198.349l-1.245-.225c.141-.501.381-.872.723-1.113.342-.24.85-.361,1.523-.361.612,0,1.068.072,1.367.218.3.145.511.328.633.552.122.223.183.632.183,1.228l-.015,1.602c0,.456.022.792.066,1.009.044.216.126.448.246.695h-1.357c-.035-.091-.079-.226-.132-.405-.022-.081-.039-.135-.049-.161-.234.229-.484.399-.752.513-.267.114-.552.171-.854.171-.533,0-.954-.145-1.262-.435-.308-.289-.462-.655-.462-1.099,0-.293.07-.554.21-.783.141-.229.336-.405.589-.527.252-.122.616-.229,1.091-.32.642-.12,1.086-.232,1.333-.337v-.137c0-.264-.064-.451-.195-.563-.13-.112-.376-.169-.737-.169-.244,0-.435.048-.571.145-.137.096-.247.265-.332.505ZM275.72,199.462c-.176.059-.454.129-.835.21-.381.082-.63.161-.747.239-.179.127-.269.288-.269.483,0,.192.072.358.215.498.144.141.326.21.547.21.248,0,.483-.081.708-.244.166-.123.275-.274.327-.454.036-.117.054-.34.054-.669v-.273Z" fill="#000" stroke-width="0"/><path d="M297.339,194.765c.693,0,1.235.248,1.626.742.465.586.698,1.558.698,2.915s-.234,2.328-.703,2.92c-.388.488-.928.732-1.621.732-.697,0-1.259-.268-1.685-.803-.427-.536-.64-1.49-.64-2.864,0-1.348.234-2.317.703-2.91.387-.488.928-.732,1.621-.732ZM297.339,195.902c-.166,0-.314.053-.444.159-.131.105-.231.295-.303.568-.095.355-.142.952-.142,1.792s.042,1.417.127,1.731c.084.313.191.523.319.627.129.104.276.156.442.156s.313-.053.444-.158c.13-.106.23-.296.303-.569.094-.352.142-.947.142-1.787s-.043-1.417-.127-1.73c-.085-.314-.191-.524-.32-.63-.128-.106-.275-.159-.441-.159Z" fill="#000" stroke-width="0"/><path d="M300.815,201.952v-7.158h1.372v2.578c.423-.481.924-.723,1.504-.723.631,0,1.153.229,1.567.687.413.457.62,1.114.62,1.97,0,.886-.211,1.567-.633,2.046-.421.479-.934.718-1.535.718-.297,0-.589-.074-.877-.222-.288-.148-.536-.367-.744-.657v.762h-1.274ZM302.178,199.247c0,.537.084.935.254,1.191.237.365.553.547.947.547.303,0,.561-.129.773-.388.214-.259.32-.667.32-1.224,0-.592-.107-1.02-.322-1.281-.215-.263-.49-.394-.825-.394-.329,0-.603.128-.82.384-.219.255-.327.644-.327,1.164Z" fill="#000" stroke-width="0"/><path d="M310.2,201.952h-1.372v-5.171c-.502.469-1.093.815-1.772,1.04v-1.245c.357-.117.747-.339,1.167-.666s.708-.709.864-1.146h1.113v7.188Z" fill="#000" stroke-width="0"/><path d="M328.408,194.765c.693,0,1.235.248,1.626.742.466.586.698,1.558.698,2.915s-.234,2.328-.703,2.92c-.387.488-.928.732-1.621.732s-1.258-.268-1.685-.803c-.426-.536-.64-1.49-.64-2.864,0-1.348.234-2.317.703-2.91.388-.488.928-.732,1.621-.732ZM328.408,195.902c-.166,0-.313.053-.444.159-.13.105-.23.295-.303.568-.094.355-.142.952-.142,1.792s.043,1.417.127,1.731c.085.313.191.523.32.627.128.104.275.156.441.156s.314-.053.444-.158c.131-.106.231-.296.303-.569.095-.352.142-.947.142-1.787s-.042-1.417-.127-1.73c-.084-.314-.191-.524-.319-.63-.129-.106-.276-.159-.442-.159Z" fill="#000" stroke-width="0"/><path d="M331.885,201.952v-7.158h1.372v2.578c.424-.481.925-.723,1.504-.723.632,0,1.154.229,1.567.687.414.457.62,1.114.62,1.97,0,.886-.211,1.567-.632,2.046-.422.479-.934.718-1.536.718-.296,0-.588-.074-.876-.222-.288-.148-.536-.367-.745-.657v.762h-1.274ZM333.247,199.247c0,.537.085.935.254,1.191.238.365.554.547.947.547.303,0,.561-.129.774-.388.213-.259.319-.667.319-1.224,0-.592-.107-1.02-.322-1.281-.215-.263-.489-.394-.825-.394-.328,0-.602.128-.82.384-.218.255-.327.644-.327,1.164Z" fill="#000" stroke-width="0"/><path d="M342.393,200.678v1.274h-4.81c.053-.481.209-.938.469-1.369.261-.432.775-1.004,1.543-1.717.619-.576.998-.967,1.138-1.172.189-.283.283-.562.283-.84,0-.306-.082-.541-.246-.705-.165-.165-.392-.247-.682-.247-.286,0-.514.087-.684.259-.169.173-.267.459-.293.859l-1.367-.137c.082-.755.337-1.297.767-1.626.43-.328.967-.493,1.611-.493.707,0,1.262.19,1.665.571.404.381.605.854.605,1.421,0,.322-.058.629-.173.921-.116.291-.299.597-.55.915-.166.212-.465.517-.898.913-.433.397-.707.661-.822.791-.116.131-.209.258-.281.381h2.725Z" fill="#000" stroke-width="0"/><path d="M118.164,59.594l1.042.263c-.218.856-.611,1.508-1.179,1.958-.568.45-1.262.674-2.082.674-.849,0-1.539-.173-2.071-.518-.531-.346-.936-.846-1.214-1.501-.277-.655-.416-1.359-.416-2.111,0-.82.157-1.535.47-2.146.313-.611.759-1.074,1.338-1.392.578-.316,1.214-.475,1.909-.475.788,0,1.45.201,1.987.602s.911.965,1.123,1.692l-1.026.242c-.183-.573-.448-.99-.795-1.251s-.784-.392-1.311-.392c-.605,0-1.111.145-1.518.435-.406.29-.692.68-.856,1.168-.165.489-.247.993-.247,1.512,0,.669.098,1.254.293,1.753.195.5.499.873.91,1.12s.857.371,1.337.371c.583,0,1.078-.168,1.482-.505s.679-.836.822-1.499Z" fill="#000" stroke-width="0"/><path d="M120.006,59.502c0-1.056.293-1.839.881-2.347.491-.422,1.088-.634,1.794-.634.784,0,1.425.257,1.923.771.498.514.747,1.224.747,2.13,0,.734-.11,1.312-.331,1.732-.22.42-.541.747-.961.98-.421.233-.88.349-1.378.349-.798,0-1.444-.256-1.937-.768-.492-.512-.738-1.25-.738-2.213ZM121,59.502c0,.73.159,1.277.478,1.641.319.363.72.545,1.203.545.48,0,.879-.183,1.198-.548s.478-.922.478-1.67c0-.706-.16-1.24-.48-1.603-.321-.364-.719-.545-1.195-.545-.483,0-.884.181-1.203.542s-.478.908-.478,1.638Z" fill="#000" stroke-width="0"/><path d="M126.484,62.354v-5.704h.87v.811c.419-.626,1.024-.94,1.815-.94.344,0,.66.062.948.186.289.123.504.285.647.486s.244.438.301.714c.036.179.054.492.054.94v3.507h-.967v-3.47c0-.394-.038-.688-.113-.884-.075-.195-.208-.351-.4-.467-.192-.117-.417-.175-.674-.175-.412,0-.767.131-1.066.392-.299.261-.449.757-.449,1.488v3.115h-.967Z" fill="#000" stroke-width="0"/><path d="M134.712,61.49l.14.854c-.272.057-.516.086-.73.086-.351,0-.623-.056-.816-.167s-.33-.257-.408-.438c-.079-.181-.118-.561-.118-1.141v-3.282h-.709v-.752h.709v-1.413l.961-.58v1.993h.972v.752h-.972v3.335c0,.276.017.453.051.532.034.079.089.142.166.188.077.046.188.07.331.07.107,0,.249-.013.424-.038Z" fill="#000" stroke-width="0"/><path d="M135.647,62.354v-5.704h.87v.865c.222-.405.427-.671.615-.8.188-.129.395-.193.621-.193.326,0,.657.104.994.312l-.333.897c-.236-.14-.473-.209-.709-.209-.211,0-.401.063-.569.19-.168.127-.288.304-.36.529-.107.344-.161.72-.161,1.128v2.986h-.967Z" fill="#000" stroke-width="0"/><path d="M138.961,59.502c0-1.056.293-1.839.881-2.347.491-.422,1.088-.634,1.794-.634.784,0,1.425.257,1.923.771.497.514.746,1.224.746,2.13,0,.734-.109,1.312-.33,1.732-.22.42-.541.747-.961.98-.421.233-.88.349-1.378.349-.798,0-1.444-.256-1.937-.768-.492-.512-.738-1.25-.738-2.213ZM139.955,59.502c0,.73.159,1.277.478,1.641.319.363.72.545,1.203.545.48,0,.879-.183,1.198-.548s.478-.922.478-1.67c0-.706-.16-1.24-.48-1.603-.321-.364-.719-.545-1.195-.545-.483,0-.884.181-1.203.542s-.478.908-.478,1.638Z" fill="#000" stroke-width="0"/><path d="M145.417,62.354v-7.874h.967v7.874h-.967Z" fill="#000" stroke-width="0"/><path d="M147.86,62.354v-7.874h.967v7.874h-.967Z" fill="#000" stroke-width="0"/><path d="M154.23,60.518l.999.124c-.157.583-.449,1.037-.875,1.359-.427.322-.971.483-1.633.483-.835,0-1.496-.257-1.985-.771-.488-.514-.732-1.235-.732-2.162,0-.959.247-1.705.741-2.234s1.135-.795,1.923-.795c.763,0,1.386.26,1.869.779s.725,1.25.725,2.191c0,.057-.002.143-.005.258h-4.254c.035.626.213,1.106.531,1.439.319.333.717.5,1.192.5.354,0,.657-.093.908-.279.25-.186.449-.483.596-.892ZM151.057,58.955h3.185c-.043-.48-.164-.84-.365-1.08-.308-.373-.707-.559-1.197-.559-.444,0-.817.148-1.12.446s-.47.695-.502,1.192Z" fill="#000" stroke-width="0"/><path d="M156.433,62.354v-5.704h.87v.865c.223-.405.428-.671.615-.8.188-.129.395-.193.62-.193.326,0,.657.104.994.312l-.333.897c-.236-.14-.473-.209-.709-.209-.212,0-.401.063-.569.19-.169.127-.288.304-.36.529-.107.344-.161.72-.161,1.128v2.986h-.967Z" fill="#000" stroke-width="0"/><path d="M166.536,62.354h-.967v-6.161c-.233.222-.538.444-.916.666s-.717.389-1.018.5v-.935c.54-.254,1.013-.562,1.418-.924.404-.362.69-.712.859-1.053h.623v7.906Z" fill="#000" stroke-width="0"/><path d="M120.369,77.259v-7.874h1.042v7.874h-1.042Z" fill="#000" stroke-width="0"/><path d="M122.931,73.424c0-1.307.351-2.33,1.053-3.069.702-.74,1.608-1.109,2.718-1.109.727,0,1.382.174,1.966.521s1.029.832,1.334,1.453c.307.622.459,1.326.459,2.114,0,.798-.161,1.513-.483,2.143s-.779,1.107-1.37,1.432c-.591.324-1.228.486-1.912.486-.741,0-1.404-.179-1.987-.537s-1.026-.847-1.327-1.466-.451-1.275-.451-1.966ZM124.005,73.44c0,.949.255,1.696.765,2.243.511.546,1.15.819,1.92.819.784,0,1.43-.276,1.936-.827.507-.551.76-1.334.76-2.347,0-.641-.108-1.2-.325-1.679-.217-.478-.534-.849-.951-1.111-.417-.264-.885-.395-1.404-.395-.738,0-1.372.253-1.904.76-.531.506-.797,1.353-.797,2.538Z" fill="#000" stroke-width="0"/><path d="M131.772,77.259v-7.874h1.568l1.864,5.575c.172.519.297.908.376,1.166.089-.287.229-.707.419-1.262l1.885-5.479h1.402v7.874h-1.004v-6.59l-2.288,6.59h-.94l-2.277-6.703v6.703h-1.004Z" fill="#000" stroke-width="0"/><path d="M144.217,77.259h-.967v-6.161c-.232.222-.538.444-.916.666-.378.222-.717.389-1.018.5v-.935c.541-.254,1.013-.562,1.418-.924.405-.362.691-.712.859-1.053h.623v7.906Z" fill="#000" stroke-width="0"/><path d="M151.774,76.33v.929h-5.205c-.007-.233.03-.457.113-.671.132-.354.345-.704.636-1.047.292-.344.714-.741,1.266-1.192.855-.702,1.434-1.258,1.734-1.668.301-.41.451-.797.451-1.163,0-.383-.137-.707-.411-.969-.273-.264-.631-.395-1.071-.395-.465,0-.838.14-1.117.419s-.421.666-.424,1.16l-.994-.102c.068-.741.324-1.306.769-1.694.443-.389,1.04-.583,1.788-.583.756,0,1.354.209,1.794.628s.661.938.661,1.558c0,.315-.064.625-.193.929s-.343.625-.643.961c-.299.336-.795.798-1.49,1.386-.58.487-.952.817-1.117.991-.164.174-.301.349-.408.524h3.862Z" fill="#000" stroke-width="0"/><path d="M156.888,74.171v-.924l3.335-.005v2.922c-.512.408-1.04.715-1.584.921-.545.206-1.104.309-1.676.309-.773,0-1.477-.166-2.108-.497-.632-.332-1.109-.811-1.432-1.437s-.483-1.327-.483-2.1c0-.766.16-1.481.481-2.146.32-.665.781-1.158,1.383-1.48s1.294-.483,2.078-.483c.569,0,1.084.092,1.545.277.46.184.82.441,1.082.771.261.33.46.759.596,1.289l-.939.258c-.118-.401-.266-.716-.44-.945-.176-.229-.427-.413-.752-.551-.326-.138-.688-.207-1.085-.207-.477,0-.889.073-1.235.217-.348.146-.628.336-.841.572s-.379.496-.497.779c-.2.487-.301,1.015-.301,1.584,0,.702.121,1.289.363,1.762.241.473.593.824,1.055,1.053s.953.344,1.472.344c.451,0,.892-.087,1.321-.261.43-.173.756-.359.978-.556v-1.466h-2.314Z" fill="#000" stroke-width="0"/><path d="M283.766,77.259v-7.874h1.042v7.874h-1.042Z" fill="#000" stroke-width="0"/><path d="M286.328,73.424c0-1.307.351-2.33,1.053-3.069.701-.74,1.607-1.109,2.718-1.109.727,0,1.382.174,1.966.521.583.347,1.028.832,1.334,1.453.307.622.46,1.326.46,2.114,0,.798-.161,1.513-.483,2.143s-.779,1.107-1.37,1.432c-.591.324-1.228.486-1.912.486-.741,0-1.403-.179-1.987-.537-.583-.358-1.025-.847-1.326-1.466s-.451-1.275-.451-1.966ZM287.402,73.44c0,.949.255,1.696.765,2.243.511.546,1.15.819,1.921.819.784,0,1.43-.276,1.936-.827.507-.551.761-1.334.761-2.347,0-.641-.108-1.2-.325-1.679-.217-.478-.533-.849-.951-1.111-.417-.264-.885-.395-1.404-.395-.737,0-1.372.253-1.904.76-.531.506-.797,1.353-.797,2.538Z" fill="#000" stroke-width="0"/><path d="M295.169,77.259v-7.874h1.568l1.863,5.575c.172.519.298.908.376,1.166.09-.287.229-.707.419-1.262l1.886-5.479h1.401v7.874h-1.004v-6.59l-2.288,6.59h-.94l-2.277-6.703v6.703h-1.004Z" fill="#000" stroke-width="0"/><path d="M307.613,77.259h-.967v-6.161c-.232.222-.538.444-.915.666-.378.222-.718.389-1.019.5v-.935c.541-.254,1.014-.562,1.418-.924.405-.362.691-.712.859-1.053h.623v7.906Z" fill="#000" stroke-width="0"/><path d="M315.171,76.33v.929h-5.205c-.007-.233.03-.457.113-.671.132-.354.345-.704.636-1.047.292-.344.714-.741,1.266-1.192.855-.702,1.434-1.258,1.734-1.668.301-.41.451-.797.451-1.163,0-.383-.137-.707-.411-.969-.273-.264-.631-.395-1.071-.395-.465,0-.838.14-1.117.419s-.421.666-.424,1.16l-.994-.102c.068-.741.324-1.306.769-1.694.443-.389,1.04-.583,1.788-.583.756,0,1.354.209,1.794.628s.661.938.661,1.558c0,.315-.064.625-.193.929s-.343.625-.643.961c-.299.336-.795.798-1.49,1.386-.58.487-.952.817-1.117.991-.164.174-.301.349-.408.524h3.862Z" fill="#000" stroke-width="0"/><path d="M320.284,74.171v-.924l3.335-.005v2.922c-.512.408-1.04.715-1.584.921-.545.206-1.104.309-1.676.309-.773,0-1.477-.166-2.108-.497-.632-.332-1.109-.811-1.432-1.437s-.483-1.327-.483-2.1c0-.766.16-1.481.481-2.146.32-.665.781-1.158,1.383-1.48s1.294-.483,2.078-.483c.569,0,1.084.092,1.545.277.46.184.82.441,1.082.771.261.33.46.759.596,1.289l-.939.258c-.118-.401-.266-.716-.44-.945-.176-.229-.427-.413-.752-.551-.326-.138-.688-.207-1.085-.207-.477,0-.889.073-1.235.217-.348.146-.628.336-.841.572s-.379.496-.497.779c-.2.487-.301,1.015-.301,1.584,0,.702.121,1.289.363,1.762.241.473.593.824,1.055,1.053s.953.344,1.472.344c.451,0,.892-.087,1.321-.261.43-.173.756-.359.978-.556v-1.466h-2.314Z" fill="#000" stroke-width="0"/><path d="M281.562,59.594l1.042.263c-.219.856-.611,1.508-1.179,1.958-.568.45-1.262.674-2.082.674-.849,0-1.538-.173-2.07-.518-.531-.346-.937-.846-1.214-1.501s-.416-1.359-.416-2.111c0-.82.156-1.535.47-2.146.313-.611.759-1.074,1.338-1.392.578-.316,1.214-.475,1.909-.475.787,0,1.45.201,1.987.602s.911.965,1.122,1.692l-1.025.242c-.183-.573-.448-.99-.795-1.251-.348-.261-.784-.392-1.311-.392-.605,0-1.111.145-1.518.435s-.692.68-.856,1.168c-.165.489-.247.993-.247,1.512,0,.669.098,1.254.293,1.753.194.5.498.873.91,1.12.411.247.857.371,1.337.371.584,0,1.078-.168,1.482-.505.405-.336.679-.836.822-1.499Z" fill="#000" stroke-width="0"/><path d="M283.403,59.502c0-1.056.294-1.839.881-2.347.491-.422,1.089-.634,1.794-.634.784,0,1.426.257,1.923.771.498.514.747,1.224.747,2.13,0,.734-.11,1.312-.331,1.732-.22.42-.54.747-.961.98s-.88.349-1.378.349c-.798,0-1.443-.256-1.937-.768-.492-.512-.738-1.25-.738-2.213ZM284.397,59.502c0,.73.159,1.277.478,1.641.319.363.72.545,1.203.545.48,0,.879-.183,1.198-.548.318-.365.478-.922.478-1.67,0-.706-.16-1.24-.48-1.603-.32-.364-.719-.545-1.195-.545-.483,0-.884.181-1.203.542-.318.362-.478.908-.478,1.638Z" fill="#000" stroke-width="0"/><path d="M289.881,62.354v-5.704h.87v.811c.419-.626,1.024-.94,1.815-.94.344,0,.66.062.948.186.288.123.504.285.647.486.143.201.243.438.301.714.035.179.054.492.054.94v3.507h-.967v-3.47c0-.394-.038-.688-.113-.884-.075-.195-.208-.351-.399-.467-.192-.117-.417-.175-.675-.175-.411,0-.767.131-1.065.392-.3.261-.449.757-.449,1.488v3.115h-.967Z" fill="#000" stroke-width="0"/><path d="M298.109,61.49l.14.854c-.271.057-.516.086-.73.086-.351,0-.623-.056-.816-.167s-.329-.257-.408-.438c-.078-.181-.118-.561-.118-1.141v-3.282h-.709v-.752h.709v-1.413l.962-.58v1.993h.972v.752h-.972v3.335c0,.276.017.453.051.532s.09.142.166.188c.077.046.188.07.331.07.107,0,.249-.013.424-.038Z" fill="#000" stroke-width="0"/><path d="M299.044,62.354v-5.704h.87v.865c.223-.405.428-.671.615-.8.188-.129.395-.193.62-.193.326,0,.657.104.994.312l-.333.897c-.236-.14-.473-.209-.709-.209-.212,0-.401.063-.569.19-.169.127-.288.304-.36.529-.107.344-.161.72-.161,1.128v2.986h-.967Z" fill="#000" stroke-width="0"/><path d="M302.358,59.502c0-1.056.293-1.839.881-2.347.49-.422,1.088-.634,1.794-.634.784,0,1.425.257,1.923.771.497.514.746,1.224.746,2.13,0,.734-.109,1.312-.33,1.732-.22.42-.541.747-.961.98-.421.233-.881.349-1.378.349-.799,0-1.444-.256-1.937-.768s-.738-1.25-.738-2.213ZM303.352,59.502c0,.73.159,1.277.479,1.641.318.363.72.545,1.203.545.479,0,.879-.183,1.197-.548.319-.365.479-.922.479-1.67,0-.706-.16-1.24-.48-1.603-.321-.364-.72-.545-1.195-.545-.483,0-.885.181-1.203.542-.319.362-.479.908-.479,1.638Z" fill="#000" stroke-width="0"/><path d="M308.814,62.354v-7.874h.967v7.874h-.967Z" fill="#000" stroke-width="0"/><path d="M311.258,62.354v-7.874h.967v7.874h-.967Z" fill="#000" stroke-width="0"/><path d="M317.628,60.518l.999.124c-.157.583-.449,1.037-.875,1.359-.427.322-.971.483-1.633.483-.835,0-1.496-.257-1.985-.771-.488-.514-.732-1.235-.732-2.162,0-.959.247-1.705.741-2.234s1.135-.795,1.923-.795c.763,0,1.386.26,1.869.779s.725,1.25.725,2.191c0,.057-.002.143-.005.258h-4.254c.035.626.213,1.106.531,1.439.319.333.717.5,1.192.5.354,0,.657-.093.908-.279.25-.186.449-.483.596-.892ZM314.454,58.955h3.185c-.043-.48-.164-.84-.365-1.08-.308-.373-.707-.559-1.197-.559-.444,0-.817.148-1.12.446s-.47.695-.502,1.192Z" fill="#000" stroke-width="0"/><path d="M319.83,62.354v-5.704h.87v.865c.223-.405.428-.671.615-.8.188-.129.395-.193.62-.193.326,0,.657.104.994.312l-.333.897c-.236-.14-.473-.209-.709-.209-.212,0-.401.063-.569.19-.169.127-.288.304-.36.529-.107.344-.161.72-.161,1.128v2.986h-.967Z" fill="#000" stroke-width="0"/><path d="M331.373,61.425v.929h-5.205c-.007-.233.03-.457.113-.671.132-.354.345-.704.636-1.047.292-.344.714-.741,1.266-1.192.855-.702,1.434-1.258,1.734-1.668.301-.41.451-.797.451-1.163,0-.383-.137-.707-.411-.969-.273-.264-.631-.395-1.071-.395-.465,0-.838.14-1.117.419s-.421.666-.424,1.16l-.994-.102c.068-.741.324-1.306.769-1.694.443-.389,1.04-.583,1.788-.583.756,0,1.354.209,1.794.628s.661.938.661,1.558c0,.315-.064.625-.193.929s-.343.625-.643.961c-.299.336-.795.798-1.49,1.386-.58.487-.952.817-1.117.991-.164.174-.301.349-.408.524h3.862Z" fill="#000" stroke-width="0"/><polyline points="318.841 105.398 318.841 94.642 132.677 94.642 132.997 148.101" fill="none" stroke="#fff" stroke-linecap="round" stroke-linejoin="round" stroke-width="6"/><polyline points="318.841 105.398 318.841 94.642 132.677 94.642 132.997 148.101" fill="none" stroke="#5094d2" stroke-linecap="round" stroke-linejoin="round" stroke-width="2"/><line x1="117.063" y1="120.493" x2="112.919" y2="148.101" fill="none" stroke="#fff" stroke-linecap="round" stroke-linejoin="round" stroke-width="6"/><line x1="117.063" y1="120.493" x2="112.919" y2="148.101" fill="none" stroke="#5094d2" stroke-linecap="round" stroke-linejoin="round" stroke-width="2"/><line x1="280.46" y1="120.493" x2="276.317" y2="148.101" fill="none" stroke="#fff" stroke-linecap="round" stroke-linejoin="round" stroke-width="6"/><line x1="280.46" y1="120.493" x2="276.317" y2="148.101" fill="none" stroke="#9124ff" stroke-linecap="round" stroke-linejoin="round" stroke-width="2"/><line x1="329.666" y1="162.94" x2="303.21" y2="190.803" fill="none" stroke="#fff" stroke-linecap="round" stroke-linejoin="round" stroke-width="6"/><line x1="329.666" y1="162.94" x2="303.21" y2="190.803" fill="none" stroke="#9124ff" stroke-linecap="round" stroke-linejoin="round" stroke-width="2"/><line x1="164.462" y1="162.94" x2="140.126" y2="190.803" fill="none" stroke="#fff" stroke-linecap="round" stroke-linejoin="round" stroke-width="6"/><line x1="164.462" y1="162.94" x2="140.126" y2="190.803" fill="none" stroke="#5094d2" stroke-linecap="round" stroke-linejoin="round" stroke-width="2"/><line x1="181.164" y1="162.94" x2="170.38" y2="189.532" fill="none" stroke="#fff" stroke-linecap="round" stroke-linejoin="round" stroke-width="5"/><line x1="181.164" y1="162.94" x2="170.38" y2="189.532" fill="none" stroke="#a2aaad" stroke-linecap="round" stroke-linejoin="round" stroke-width="2"/><line x1="343.949" y1="162.94" x2="334.058" y2="190.094" fill="none" stroke="#fff" stroke-linecap="round" stroke-linejoin="round" stroke-width="5"/><line x1="343.949" y1="162.94" x2="334.058" y2="190.094" fill="none" stroke="#a2aaad" stroke-linecap="round" stroke-linejoin="round" stroke-width="2"/><polyline points="166.067 105.398 166.067 101.167 296.856 101.167 296.856 148.101" fill="none" stroke="#fff" stroke-linecap="round" stroke-linejoin="round" stroke-width="6"/><polyline points="166.067 105.398 166.067 101.167 296.856 101.167 296.856 148.101" fill="none" stroke="#9124ff" stroke-linecap="round" stroke-linejoin="round" stroke-width="2"/><path d="M25.256,304.549v-7.874h5.312v.93h-4.27v2.438h3.695v.929h-3.695v3.577h-1.042Z" fill="#000" stroke-width="0"/><path d="M31.804,297.787v-1.112h.967v1.112h-.967ZM31.804,304.549v-5.704h.967v5.704h-.967Z" fill="#000" stroke-width="0"/><path d="M34.231,304.549v-5.704h.87v.865c.222-.405.427-.672.615-.801.188-.129.395-.193.621-.193.326,0,.657.104.994.312l-.333.897c-.236-.14-.473-.21-.709-.21-.211,0-.401.063-.569.19-.168.128-.288.304-.36.529-.107.344-.161.72-.161,1.128v2.986h-.967Z" fill="#000" stroke-width="0"/><path d="M37.519,302.847l.956-.15c.054.383.203.677.449.881.245.204.588.306,1.028.306.444,0,.773-.09.988-.271.215-.181.322-.393.322-.636,0-.219-.095-.391-.285-.516-.132-.086-.462-.195-.988-.328-.709-.179-1.201-.334-1.474-.465-.274-.13-.482-.312-.623-.542-.142-.231-.212-.486-.212-.766,0-.254.058-.489.174-.706.117-.217.275-.396.476-.54.15-.11.355-.205.615-.282.259-.076.538-.115.835-.115.448,0,.841.064,1.179.193.339.129.588.304.75.523.161.221.272.516.333.884l-.945.129c-.043-.293-.167-.522-.374-.688-.206-.164-.497-.247-.873-.247-.444,0-.761.073-.951.221-.19.146-.285.318-.285.516,0,.125.04.238.118.338.079.104.202.19.371.258.097.036.381.118.854.247.684.183,1.161.332,1.431.448.271.117.483.286.637.508.154.223.231.498.231.827,0,.322-.094.626-.282.91-.188.285-.459.505-.814.661-.354.155-.755.233-1.203.233-.741,0-1.306-.153-1.695-.462-.388-.308-.636-.765-.744-1.369Z" fill="#000" stroke-width="0"/><path d="M45.516,303.685l.14.854c-.272.058-.516.086-.73.086-.351,0-.623-.056-.816-.166-.193-.111-.33-.257-.408-.438-.079-.181-.118-.561-.118-1.141v-3.282h-.709v-.752h.709v-1.412l.961-.58v1.992h.972v.752h-.972v3.336c0,.275.017.453.051.531.034.079.089.142.166.188.077.046.188.069.331.069.107,0,.249-.013.424-.037Z" fill="#000" stroke-width="0"/><path d="M23.003,315.22l.983-.086c.046.394.155.717.325.969.17.253.435.457.792.612.358.156.761.234,1.208.234.397,0,.749-.06,1.053-.178s.531-.28.68-.486c.148-.205.223-.43.223-.674,0-.247-.072-.463-.215-.647-.143-.184-.379-.339-.709-.464-.211-.083-.679-.211-1.402-.385-.723-.173-1.23-.337-1.52-.491-.376-.196-.656-.441-.841-.733-.184-.291-.276-.618-.276-.979,0-.397.113-.77.338-1.115.226-.345.555-.607.988-.786.433-.18.915-.269,1.445-.269.583,0,1.099.094,1.544.281.446.188.789.465,1.029.83s.369.779.387,1.241l-.999.075c-.054-.498-.235-.874-.545-1.128-.31-.255-.767-.382-1.372-.382-.63,0-1.089.115-1.378.347-.288.23-.432.51-.432.835,0,.283.102.516.306.698.201.183.724.37,1.571.562.847.191,1.428.359,1.743.502.458.212.797.479,1.015.803.218.324.328.698.328,1.12,0,.419-.12.813-.36,1.185-.24.37-.584.659-1.034.864-.449.206-.955.31-1.517.31-.712,0-1.31-.104-1.792-.312-.481-.208-.859-.521-1.133-.938-.274-.417-.418-.889-.433-1.415Z" fill="#000" stroke-width="0"/><path d="M30.571,317.749v-7.874h.967v2.825c.451-.522,1.021-.784,1.708-.784.422,0,.79.083,1.101.25.312.166.534.396.669.69.134.293.201.72.201,1.278v3.614h-.967v-3.614c0-.483-.104-.836-.314-1.056-.209-.221-.505-.33-.889-.33-.287,0-.556.074-.809.223-.252.148-.432.35-.54.604-.107.254-.161.604-.161,1.053v3.12h-.967Z" fill="#000" stroke-width="0"/><path d="M40.594,315.912l.999.124c-.158.583-.449,1.036-.875,1.358s-.97.483-1.633.483c-.834,0-1.496-.257-1.985-.771-.488-.514-.733-1.234-.733-2.162,0-.959.247-1.704.741-2.234.494-.529,1.135-.795,1.923-.795.763,0,1.386.26,1.869.779.483.519.725,1.249.725,2.191,0,.057-.002.143-.005.258h-4.254c.036.626.213,1.106.532,1.439s.716.499,1.192.499c.354,0,.657-.093.908-.279.25-.186.449-.483.596-.892ZM37.419,314.35h3.185c-.043-.48-.165-.84-.365-1.08-.308-.372-.707-.559-1.198-.559-.444,0-.817.148-1.12.446-.303.297-.47.694-.502,1.192Z" fill="#000" stroke-width="0"/><path d="M42.785,317.749v-7.874h.967v7.874h-.967Z" fill="#000" stroke-width="0"/><path d="M45.481,317.749v-4.952h-.854v-.752h.854v-.606c0-.384.034-.668.102-.854.093-.25.257-.454.492-.609.234-.156.563-.233.985-.233.272,0,.573.032.902.097l-.145.843c-.201-.035-.39-.054-.569-.054-.293,0-.501.062-.623.188-.122.125-.183.359-.183.703v.526h1.112v.752h-1.112v4.952h-.961Z" fill="#000" stroke-width="0"/><path d="M125.794,276.028v-7.874h1.042v7.874h-1.042Z" fill="#000" stroke-width="0"/><path d="M128.356,272.193c0-1.308.351-2.33,1.053-3.069.702-.74,1.608-1.109,2.718-1.109.727,0,1.382.174,1.966.521.583.348,1.029.832,1.334,1.453.307.621.459,1.326.459,2.113,0,.799-.161,1.513-.483,2.144-.322.63-.779,1.107-1.37,1.432-.591.323-1.228.485-1.912.485-.741,0-1.404-.179-1.987-.537-.583-.357-1.026-.847-1.327-1.466-.301-.62-.451-1.275-.451-1.966ZM129.43,272.209c0,.949.255,1.696.765,2.243.511.546,1.15.818,1.92.818.784,0,1.43-.275,1.936-.827.507-.551.76-1.334.76-2.347,0-.642-.108-1.2-.325-1.679-.217-.478-.534-.849-.951-1.111-.417-.264-.885-.396-1.404-.396-.738,0-1.372.254-1.904.761-.531.506-.797,1.353-.797,2.537Z" fill="#000" stroke-width="0"/><path d="M137.197,276.028v-7.874h1.568l1.864,5.575c.172.519.297.907.376,1.165.089-.286.229-.707.419-1.262l1.886-5.479h1.401v7.874h-1.004v-6.591l-2.289,6.591h-.94l-2.277-6.703v6.703h-1.004Z" fill="#000" stroke-width="0"/><path d="M147.977,276.028l3.024-7.874h1.122l3.223,7.874h-1.187l-.919-2.385h-3.292l-.865,2.385h-1.106ZM150.249,272.795h2.669l-.821-2.181c-.251-.663-.438-1.207-.559-1.633-.101.505-.242,1.006-.425,1.504l-.864,2.31Z" fill="#000" stroke-width="0"/><path d="M288.898,276.028v-7.874h1.042v7.874h-1.042Z" fill="#000" stroke-width="0"/><path d="M291.46,272.193c0-1.308.352-2.33,1.053-3.069.702-.74,1.608-1.109,2.718-1.109.728,0,1.383.174,1.966.521.584.348,1.029.832,1.335,1.453.307.621.459,1.326.459,2.113,0,.799-.161,1.513-.483,2.144-.322.63-.778,1.107-1.369,1.432-.591.323-1.229.485-1.912.485-.741,0-1.404-.179-1.987-.537-.584-.357-1.026-.847-1.327-1.466-.301-.62-.451-1.275-.451-1.966ZM292.534,272.209c0,.949.256,1.696.766,2.243.511.546,1.15.818,1.92.818.784,0,1.43-.275,1.937-.827.507-.551.76-1.334.76-2.347,0-.642-.108-1.2-.324-1.679-.217-.478-.534-.849-.951-1.111-.417-.264-.886-.396-1.404-.396-.738,0-1.372.254-1.904.761-.531.506-.798,1.353-.798,2.537Z" fill="#000" stroke-width="0"/><path d="M300.301,276.028v-7.874h1.568l1.864,5.575c.172.519.297.907.376,1.165.089-.286.229-.707.419-1.262l1.885-5.479h1.402v7.874h-1.005v-6.591l-2.288,6.591h-.939l-2.277-6.703v6.703h-1.005Z" fill="#000" stroke-width="0"/><path d="M312.51,276.028v-7.874h2.954c.602,0,1.084.079,1.447.239.363.159.648.404.854.735.205.331.309.678.309,1.039,0,.337-.092.653-.274.951-.183.297-.458.537-.827.72.477.14.843.378,1.099.714.256.337.384.734.384,1.192,0,.369-.077.712-.233,1.029-.155.316-.349.561-.577.732-.229.172-.517.302-.862.39s-.769.132-1.271.132h-3.002ZM313.552,271.463h1.702c.462,0,.793-.03.994-.092.265-.078.465-.209.599-.392.135-.183.201-.412.201-.688,0-.262-.062-.491-.188-.69-.126-.198-.305-.335-.537-.408-.233-.073-.632-.11-1.198-.11h-1.573v2.38ZM313.552,275.099h1.96c.337,0,.573-.013.709-.037.24-.043.44-.115.602-.215.161-.101.294-.246.397-.438.104-.192.156-.413.156-.664,0-.293-.075-.549-.226-.765-.15-.217-.359-.369-.626-.457s-.65-.132-1.152-.132h-1.82v2.707Z" fill="#000" stroke-width="0"/><rect x="58.361" y="285.952" width="163.397" height="44.526" fill="#fff" stroke="#000" stroke-miterlimit="10"/><rect x="78.361" y="307.324" width="15.094" height="15.094" fill="#fff" stroke="#000" stroke-miterlimit="10" stroke-width=".5"/><rect x="93.455" y="307.324" width="15.094" height="15.094" fill="#fff" stroke="#000" stroke-miterlimit="10" stroke-width=".5"/><rect x="171.569" y="307.324" width="15.094" height="15.094" fill="#fff" stroke="#000" stroke-miterlimit="10" stroke-width=".5"/><rect x="186.664" y="307.324" width="15.094" height="15.094" fill="#fff" stroke="#000" stroke-miterlimit="10" stroke-width=".5"/><path d="M87.062,303.451h-1.372v-5.171c-.501.469-1.092.815-1.772,1.04v-1.245c.358-.117.747-.339,1.167-.666s.708-.709.864-1.146h1.113v7.188Z" fill="#000" stroke-width="0"/><path d="M103.28,302.177v1.274h-4.81c.052-.481.208-.938.469-1.369.26-.432.775-1.004,1.543-1.717.619-.576.998-.967,1.138-1.172.189-.283.283-.562.283-.84,0-.306-.082-.541-.247-.705-.165-.165-.392-.247-.681-.247-.287,0-.514.087-.684.259-.169.173-.267.459-.293.859l-1.367-.137c.082-.755.337-1.297.767-1.626.43-.328.967-.493,1.611-.493.707,0,1.261.19,1.665.571s.605.854.605,1.421c0,.322-.058.629-.173.921-.116.291-.299.597-.549.915-.166.212-.465.517-.898.913-.433.397-.707.661-.823.791-.116.131-.209.258-.281.381h2.725Z" fill="#000" stroke-width="0"/><path d="M176.712,301.552l1.328-.161c.042.339.156.598.342.776.186.18.41.269.674.269.283,0,.521-.107.715-.322.194-.215.291-.504.291-.869,0-.345-.093-.618-.278-.82-.186-.201-.412-.303-.679-.303-.176,0-.386.034-.63.103l.151-1.118c.371.01.654-.07.85-.241s.293-.398.293-.682c0-.24-.072-.433-.215-.576-.144-.143-.334-.215-.571-.215-.234,0-.435.082-.601.244-.166.163-.268.4-.303.713l-1.265-.215c.088-.433.221-.778.397-1.037.178-.259.425-.463.742-.61.317-.148.673-.223,1.067-.223.674,0,1.214.215,1.621.645.335.352.503.749.503,1.191,0,.629-.344,1.13-1.03,1.504.41.088.738.285.983.591.246.307.369.676.369,1.108,0,.629-.229,1.164-.688,1.606-.459.443-1.03.664-1.714.664-.648,0-1.186-.187-1.611-.559-.427-.373-.674-.86-.742-1.463Z" fill="#000" stroke-width="0"/><path d="M194.546,303.451v-1.44h-2.93v-1.201l3.105-4.546h1.152v4.541h.889v1.206h-.889v1.44h-1.328ZM194.546,300.805v-2.446l-1.646,2.446h1.646Z" fill="#000" stroke-width="0"/><rect x="221.758" y="285.952" width="163.397" height="44.526" fill="#fff" stroke="#000" stroke-miterlimit="10"/><rect x="241.758" y="307.324" width="15.094" height="15.094" fill="#fff" stroke="#000" stroke-miterlimit="10" stroke-width=".5"/><rect x="256.852" y="307.324" width="15.094" height="15.094" fill="#fff" stroke="#000" stroke-miterlimit="10" stroke-width=".5"/><rect x="334.967" y="307.324" width="15.094" height="15.094" fill="#fff" stroke="#000" stroke-miterlimit="10" stroke-width=".5"/><rect x="350.061" y="307.324" width="15.094" height="15.094" fill="#fff" stroke="#000" stroke-miterlimit="10" stroke-width=".5"/><path d="M250.46,303.451h-1.372v-5.171c-.502.469-1.093.815-1.772,1.04v-1.245c.357-.117.747-.339,1.167-.666s.708-.709.864-1.146h1.113v7.188Z" fill="#000" stroke-width="0"/><path d="M266.678,302.177v1.274h-4.81c.052-.481.208-.938.469-1.369.26-.432.774-1.004,1.543-1.717.618-.576.997-.967,1.138-1.172.188-.283.283-.562.283-.84,0-.306-.082-.541-.247-.705-.164-.165-.392-.247-.681-.247-.287,0-.515.087-.684.259-.17.173-.268.459-.293.859l-1.367-.137c.081-.755.337-1.297.767-1.626.43-.328.967-.493,1.611-.493.706,0,1.261.19,1.665.571.403.381.605.854.605,1.421,0,.322-.058.629-.174.921-.115.291-.299.597-.549.915-.166.212-.466.517-.898.913-.434.397-.707.661-.823.791-.115.131-.209.258-.28.381h2.725Z" fill="#000" stroke-width="0"/><path d="M340.109,301.552l1.328-.161c.042.339.156.598.342.776.186.18.41.269.674.269.283,0,.521-.107.715-.322.194-.215.291-.504.291-.869,0-.345-.093-.618-.278-.82-.186-.201-.412-.303-.679-.303-.176,0-.386.034-.63.103l.151-1.118c.371.01.654-.07.85-.241s.293-.398.293-.682c0-.24-.072-.433-.215-.576-.144-.143-.334-.215-.571-.215-.234,0-.435.082-.601.244-.166.163-.268.4-.303.713l-1.265-.215c.088-.433.221-.778.397-1.037.178-.259.425-.463.742-.61.317-.148.673-.223,1.067-.223.674,0,1.214.215,1.621.645.335.352.503.749.503,1.191,0,.629-.344,1.13-1.03,1.504.41.088.738.285.983.591.246.307.369.676.369,1.108,0,.629-.229,1.164-.688,1.606-.459.443-1.03.664-1.714.664-.648,0-1.186-.187-1.611-.559-.427-.373-.674-.86-.742-1.463Z" fill="#000" stroke-width="0"/><path d="M357.942,303.451v-1.44h-2.93v-1.201l3.105-4.546h1.152v4.541h.889v1.206h-.889v1.44h-1.328ZM357.942,300.805v-2.446l-1.646,2.446h1.646Z" fill="#000" stroke-width="0"/><rect x="58.361" y="375.004" width="163.397" height="44.526" fill="#fff" stroke="#000" stroke-miterlimit="10"/><rect x="78.361" y="396.376" width="15.094" height="15.094" fill="#fff" stroke="#000" stroke-miterlimit="10" stroke-width=".5"/><rect x="93.455" y="396.376" width="15.094" height="15.094" fill="#fff" stroke="#000" stroke-miterlimit="10" stroke-width=".5"/><rect x="171.569" y="396.376" width="15.094" height="15.094" fill="#fff" stroke="#000" stroke-miterlimit="10" stroke-width=".5"/><rect x="186.664" y="396.376" width="15.094" height="15.094" fill="#fff" stroke="#000" stroke-miterlimit="10" stroke-width=".5"/><path d="M87.062,392.503h-1.372v-5.171c-.501.469-1.092.815-1.772,1.04v-1.245c.358-.117.747-.339,1.167-.666s.708-.709.864-1.146h1.113v7.188Z" fill="#000" stroke-width="0"/><path d="M103.28,391.229v1.274h-4.81c.052-.482.208-.938.469-1.37.26-.431.775-1.003,1.543-1.716.619-.576.998-.967,1.138-1.172.189-.283.283-.563.283-.84,0-.307-.082-.541-.247-.706-.165-.164-.392-.246-.681-.246-.287,0-.514.086-.684.259-.169.172-.267.459-.293.859l-1.367-.137c.082-.756.337-1.298.767-1.626.43-.329.967-.493,1.611-.493.707,0,1.261.19,1.665.571s.605.854.605,1.421c0,.322-.058.629-.173.92-.116.292-.299.597-.549.916-.166.211-.465.516-.898.913-.433.396-.707.66-.823.791-.116.13-.209.257-.281.381h2.725Z" fill="#000" stroke-width="0"/><path d="M176.712,390.604l1.328-.161c.042.338.156.597.342.776.186.179.41.269.674.269.283,0,.521-.107.715-.322.194-.215.291-.505.291-.869,0-.346-.093-.619-.278-.82-.186-.202-.412-.303-.679-.303-.176,0-.386.034-.63.103l.151-1.118c.371.01.654-.071.85-.242s.293-.397.293-.681c0-.241-.072-.434-.215-.576-.144-.144-.334-.215-.571-.215-.234,0-.435.081-.601.244-.166.162-.268.4-.303.713l-1.265-.215c.088-.434.221-.779.397-1.038.178-.259.425-.462.742-.61.317-.147.673-.222,1.067-.222.674,0,1.214.215,1.621.645.335.352.503.748.503,1.191,0,.628-.344,1.129-1.03,1.504.41.088.738.284.983.591.246.306.369.675.369,1.108,0,.628-.229,1.163-.688,1.606-.459.442-1.03.664-1.714.664-.648,0-1.186-.187-1.611-.56-.427-.372-.674-.86-.742-1.462Z" fill="#000" stroke-width="0"/><path d="M194.546,392.504v-1.44h-2.93v-1.201l3.105-4.546h1.152v4.541h.889v1.206h-.889v1.44h-1.328ZM194.546,389.857v-2.446l-1.646,2.446h1.646Z" fill="#000" stroke-width="0"/><rect x="221.758" y="375.004" width="163.397" height="44.526" fill="#fff" stroke="#000" stroke-miterlimit="10"/><rect x="241.758" y="396.376" width="15.094" height="15.094" fill="#fff" stroke="#000" stroke-miterlimit="10" stroke-width=".5"/><rect x="256.852" y="396.376" width="15.094" height="15.094" fill="#fff" stroke="#000" stroke-miterlimit="10" stroke-width=".5"/><rect x="334.967" y="396.376" width="15.094" height="15.094" fill="#fff" stroke="#000" stroke-miterlimit="10" stroke-width=".5"/><rect x="350.061" y="396.376" width="15.094" height="15.094" fill="#fff" stroke="#000" stroke-miterlimit="10" stroke-width=".5"/><path d="M250.46,392.503h-1.372v-5.171c-.502.469-1.093.815-1.772,1.04v-1.245c.357-.117.747-.339,1.167-.666s.708-.709.864-1.146h1.113v7.188Z" fill="#000" stroke-width="0"/><path d="M266.678,391.229v1.274h-4.81c.052-.482.208-.938.469-1.37.26-.431.774-1.003,1.543-1.716.618-.576.997-.967,1.138-1.172.188-.283.283-.563.283-.84,0-.307-.082-.541-.247-.706-.164-.164-.392-.246-.681-.246-.287,0-.515.086-.684.259-.17.172-.268.459-.293.859l-1.367-.137c.081-.756.337-1.298.767-1.626.43-.329.967-.493,1.611-.493.706,0,1.261.19,1.665.571.403.381.605.854.605,1.421,0,.322-.058.629-.174.92-.115.292-.299.597-.549.916-.166.211-.466.516-.898.913-.434.396-.707.66-.823.791-.115.13-.209.257-.28.381h2.725Z" fill="#000" stroke-width="0"/><path d="M340.109,390.604l1.328-.161c.042.338.156.597.342.776.186.179.41.269.674.269.283,0,.521-.107.715-.322.194-.215.291-.505.291-.869,0-.346-.093-.619-.278-.82-.186-.202-.412-.303-.679-.303-.176,0-.386.034-.63.103l.151-1.118c.371.01.654-.071.85-.242s.293-.397.293-.681c0-.241-.072-.434-.215-.576-.144-.144-.334-.215-.571-.215-.234,0-.435.081-.601.244-.166.162-.268.4-.303.713l-1.265-.215c.088-.434.221-.779.397-1.038.178-.259.425-.462.742-.61.317-.147.673-.222,1.067-.222.674,0,1.214.215,1.621.645.335.352.503.748.503,1.191,0,.628-.344,1.129-1.03,1.504.41.088.738.284.983.591.246.306.369.675.369,1.108,0,.628-.229,1.163-.688,1.606-.459.442-1.03.664-1.714.664-.648,0-1.186-.187-1.611-.56-.427-.372-.674-.86-.742-1.462Z" fill="#000" stroke-width="0"/><path d="M357.942,392.504v-1.44h-2.93v-1.201l3.105-4.546h1.152v4.541h.889v1.206h-.889v1.44h-1.328ZM357.942,389.857v-2.446l-1.646,2.446h1.646Z" fill="#000" stroke-width="0"/><line x1="179.117" y1="314.871" x2="85.908" y2="403.923" fill="none" stroke="#fff" stroke-linecap="round" stroke-linejoin="round" stroke-width="6"/><line x1="179.117" y1="314.871" x2="85.908" y2="403.923" fill="none" stroke="#5094d2" stroke-linecap="round" stroke-linejoin="round" stroke-width="2"/><line x1="342.514" y1="314.871" x2="249.305" y2="403.923" fill="none" stroke="#fff" stroke-linecap="round" stroke-linejoin="round" stroke-width="6"/><line x1="342.514" y1="314.871" x2="249.305" y2="403.923" fill="none" stroke="#9124ff" stroke-linecap="round" stroke-linejoin="round" stroke-width="2"/><polyline points="140.127 206.79 140.127 239.586 10.488 239.586 10.488 433.498 178.902 433.498 178.902 403.923" fill="none" stroke="#fff" stroke-linecap="round" stroke-linejoin="round" stroke-width="6"/><polyline points="140.127 206.79 140.127 239.586 10.488 239.586 10.488 433.498 178.902 433.498 178.902 403.923" fill="none" stroke="#5094d2" stroke-linecap="round" stroke-linejoin="round" stroke-width="2"/><polyline points="108.743 206.79 108.743 258.928 243.456 258.928 243.456 314.871" fill="none" stroke="#fff" stroke-linecap="round" stroke-linejoin="round" stroke-width="6"/><line x1="108.743" y1="206.79" x2="108.743" y2="209.79" fill="none" stroke="#9124ff" stroke-linecap="round" stroke-linejoin="round" stroke-width="2"/><line x1="108.743" y1="216.381" x2="108.743" y2="252.632" fill="none" stroke="#9124ff" stroke-dasharray="0 0 6.591 6.591" stroke-linecap="round" stroke-linejoin="round" stroke-width="2"/><polyline points="108.743 255.928 108.743 258.928 111.743 258.928" fill="none" stroke="#9124ff" stroke-linecap="round" stroke-linejoin="round" stroke-width="2"/><line x1="117.872" y1="258.928" x2="237.391" y2="258.928" fill="none" stroke="#9124ff" stroke-dasharray="0 0 6.129 6.129" stroke-linecap="round" stroke-linejoin="round" stroke-width="2"/><polyline points="240.456 258.928 243.456 258.928 243.456 261.928" fill="none" stroke="#9124ff" stroke-linecap="round" stroke-linejoin="round" stroke-width="2"/><line x1="243.456" y1="267.477" x2="243.456" y2="309.096" fill="none" stroke="#9124ff" stroke-dasharray="0 0 5.549 5.549" stroke-linecap="round" stroke-linejoin="round" stroke-width="2"/><line x1="243.456" y1="311.871" x2="243.456" y2="314.871" fill="none" stroke="#9124ff" stroke-linecap="round" stroke-linejoin="round" stroke-width="2"/><polyline points="272.141 206.79 272.141 249.257 80.925 249.257 80.925 314.871" fill="none" stroke="#fff" stroke-linecap="round" stroke-linejoin="round" stroke-width="6"/><line x1="272.141" y1="206.79" x2="272.141" y2="209.79" fill="none" stroke="#5094d2" stroke-linecap="round" stroke-linejoin="round" stroke-width="2"/><line x1="272.141" y1="215" x2="272.141" y2="243.652" fill="none" stroke="#5094d2" stroke-dasharray="0 0 5.21 5.21" stroke-linecap="round" stroke-linejoin="round" stroke-width="2"/><polyline points="272.141 246.257 272.141 249.257 269.141 249.257" fill="none" stroke="#5094d2" stroke-linecap="round" stroke-linejoin="round" stroke-width="2"/><line x1="263.166" y1="249.257" x2="86.913" y2="249.257" fill="none" stroke="#5094d2" stroke-dasharray="0 0 5.975 5.975" stroke-linecap="round" stroke-linejoin="round" stroke-width="2"/><polyline points="83.925 249.257 80.925 249.257 80.925 252.257" fill="none" stroke="#5094d2" stroke-linecap="round" stroke-linejoin="round" stroke-width="2"/><line x1="80.925" y1="258.881" x2="80.925" y2="308.559" fill="none" stroke="#5094d2" stroke-dasharray="0 0 6.624 6.624" stroke-linecap="round" stroke-linejoin="round" stroke-width="2"/><line x1="80.925" y1="311.871" x2="80.925" y2="314.871" fill="none" stroke="#5094d2" stroke-linecap="round" stroke-linejoin="round" stroke-width="2"/><polyline points="303.21 205.897 303.21 239.586 433.163 239.586 433.163 433.498 342.632 432.609 342.632 403.923" fill="none" stroke="#fff" stroke-linecap="round" stroke-linejoin="round" stroke-width="6"/><polyline points="303.21 205.897 303.21 239.586 433.163 239.586 433.163 433.498 342.632 432.609 342.632 403.923" fill="none" stroke="#9124ff" stroke-linecap="round" stroke-linejoin="round" stroke-width="2"/></svg>