<?xml version="1.0" encoding="UTF-8"?><svg xmlns="http://www.w3.org/2000/svg" width="5in" height="3.33in" xmlns:xlink="http://www.w3.org/1999/xlink" viewBox="0 0 360 239.765"><defs><clipPath id="b"><rect x="-4.559" y="3.605" width="367.912" height="238.008" fill="none"/></clipPath><clipPath id="c"><polygon points="354.721 90.49 214.711 81.853 214.711 -40.428 354.721 -40.428 354.721 90.49" fill="none"/></clipPath><clipPath id="d"><polygon points="3.236 -42.204 57.48 -41.414 62.49 67.756 1.883 66.886 3.236 -42.204" fill="none"/></clipPath><clipPath id="e"><rect x="3.899" y="132.945" width="76.903" height="29.837" fill="none"/></clipPath></defs><g id="a"><g clip-path="url(#b)"><path d="M103.766-2.896l4.047,81.871s0,7.281,10.921,6.37,14.561-.455,20.477-2.275,20.022-6.37,20.022-6.37" fill="none" stroke="#231f20" stroke-miterlimit="10" stroke-width=".539"/><path d="M134.237-3.889l2.698,71.943s-.91,4.55,6.37,3.64,14.561-4.095,14.561-4.095" fill="none" stroke="#231f20" stroke-miterlimit="10" stroke-width=".539"/><line x1="146.871" y1="80.887" x2="354.896" y2="96.266" fill="none" stroke="#231f20" stroke-miterlimit="10" stroke-width=".539"/><line x1="268.047" y1="194.305" x2="353.883" y2="204.009" fill="none" stroke="#231f20" stroke-miterlimit="10" stroke-width=".539"/><line x1="-1.61" y1="163.817" x2="77.074" y2="172.713" fill="none" stroke="#231f20" stroke-miterlimit="10" stroke-width=".539"/><line x1="4.065" y1="70.329" x2="107.441" y2="77.971" fill="none" stroke="#231f20" stroke-miterlimit="10" stroke-width=".539"/><line x1="127.872" y1="85.397" x2="354.896" y2="102.181" fill="none" stroke="#231f20" stroke-miterlimit="10" stroke-width=".539"/><line x1="4.065" y1="76.244" x2="110.9" y2="84.143" fill="none" stroke="#231f20" stroke-miterlimit="10" stroke-width=".539"/><line x1="4.065" y1="82.16" x2="354.896" y2="108.097" fill="none" stroke="#231f20" stroke-miterlimit="10" stroke-width=".539"/><path d="M96.632-3.895l1.927,34.679s-1.989,7.16,6.762,6.364" fill="none" stroke="#231f20" stroke-miterlimit="10" stroke-width=".539"/><path d="M135.949,38.739l48.13,1.193s3.978.796,3.978-4.375c0-2.542-.192-21.045-.388-39.199" fill="none" stroke="#231f20" stroke-miterlimit="10" stroke-width=".539"/><path d="M136.5,59.292c26.855,1.196,55.137,2.517,55.137,2.517,0,0,11.535,1.193,11.535-14.717,0-8.063-.102-30.529-.203-50.729" fill="none" stroke="#231f20" stroke-miterlimit="10" stroke-width=".539"/><path d="M72.402-4.4l3.484,51.095s.398,10.342,15.513,10.74c2.846.075,8.174.277,14.948.555" fill="none" stroke="#231f20" stroke-miterlimit="10" stroke-width=".539"/><line x1="81.853" y1="51.865" x2="99.354" y2="37.148" fill="none" stroke="#231f20" stroke-miterlimit="10" stroke-width=".539"/><line x1="199.779" y1="57.175" x2="187.846" y2="40.469" fill="none" stroke="#231f20" stroke-miterlimit="10" stroke-width=".539"/><polyline points="352.787 164.177 10.331 131.002 10.263 88.25 355.28 114.245" fill="none" stroke="#231f20" stroke-miterlimit="10" stroke-width=".539"/><path d="M47.641,91.613l-23.026,2.345s-11.3,4.051-8.741,20.894c0,0,2.109,11.206,7.225,13.978l27.49,3.131s-8.918-8.368-7.426-16.256l153.444,16.541s8.508,2.452,13.613-12.522c0,0,1.021-4.084,5.445-6.126s19.398-8.848,19.398-8.848" fill="none" stroke="#231f20" stroke-miterlimit="10" stroke-width=".539"/><path d="M221.792,104.069l-12.592,6.806s-.34,2.382-11.231,2.042-138.171-11.571-138.171-11.571c0,0-11.231-1.702-4.765-3.744s18.718-4.424,18.718-4.424c0,0,8.168.681,7.147,8.508" fill="none" stroke="#231f20" stroke-miterlimit="10" stroke-width=".539"/><path d="M50.589,131.961s23.212,1.965,27.295-11.988" fill="none" stroke="#231f20" stroke-miterlimit="10" stroke-width=".539"/><path d="M28.656,129.023s-6.942-7.181-6.703-19.629c0,0,.47-11.315,8.618-12.926l27.289-4.309" fill="none" stroke="#231f20" stroke-miterlimit="10" stroke-width=".539"/><line x1="322.144" y1="197.458" x2="353.883" y2="201.082" fill="none" stroke="#231f20" stroke-linecap="round" stroke-linejoin="round" stroke-width=".539"/><line x1="271.425" y1="191.543" x2="320.83" y2="197.389" fill="none" stroke="#231f20" stroke-linecap="round" stroke-linejoin="round" stroke-width=".539"/><line x1="2.177" y1="161.007" x2="76.794" y2="169.47" fill="none" stroke="#231f20" stroke-linecap="round" stroke-linejoin="round" stroke-width=".539"/><polyline points="96.046 146.286 96.046 142.911 275.348 160.577 275.348 191.011" fill="none" stroke="#231f20" stroke-miterlimit="10" stroke-width=".539"/><polyline points="100.501 143.962 76.561 158.07 77.716 185.392 252.114 207.265 275.298 188.489" fill="none" stroke="#231f20" stroke-miterlimit="10" stroke-width=".539"/><polyline points="274.654 160.906 250.957 177.441 76.561 158.07" fill="none" stroke="#231f20" stroke-miterlimit="10" stroke-width=".539"/><line x1="251.546" y1="207.078" x2="250.957" y2="177.441" fill="none" stroke="#231f20" stroke-miterlimit="10" stroke-width=".539"/><g clip-path="url(#c)"><polygon points="207.111 -1.88 207.111 3.63 211.465 6.385 215.82 3.63 215.82 -1.88 211.465 -4.636 207.111 -1.88" fill="none" stroke="#231f20" stroke-miterlimit="10" stroke-width=".539"/><polygon points="230.849 -1.803 226.442 -4.592 222.034 -1.803 222.034 3.774 226.442 6.563 230.849 3.774 230.849 -1.803" fill="none" stroke="#231f20" stroke-miterlimit="10" stroke-width=".539"/><polygon points="245.878 -1.725 241.418 -4.548 236.957 -1.725 236.957 3.919 241.418 6.741 245.878 3.919 245.878 -1.725" fill="none" stroke="#231f20" stroke-miterlimit="10" stroke-width=".539"/><polygon points="260.908 -1.648 256.394 -4.503 251.881 -1.648 251.881 4.064 256.394 6.92 260.908 4.064 260.908 -1.648" fill="none" stroke="#231f20" stroke-miterlimit="10" stroke-width=".539"/><polygon points="275.937 -1.57 271.37 -4.459 266.804 -1.57 266.804 4.209 271.37 7.098 275.937 4.209 275.937 -1.57" fill="none" stroke="#231f20" stroke-miterlimit="10" stroke-width=".539"/><polygon points="290.967 -1.492 286.347 -4.415 281.727 -1.492 281.727 4.353 286.347 7.276 290.967 4.353 290.967 -1.492" fill="none" stroke="#231f20" stroke-miterlimit="10" stroke-width=".539"/><polygon points="305.996 -1.415 301.323 -4.371 296.65 -1.415 296.65 4.498 301.323 7.455 305.996 4.498 305.996 -1.415" fill="none" stroke="#231f20" stroke-miterlimit="10" stroke-width=".539"/><polygon points="321.025 -1.337 316.299 -4.327 311.574 -1.337 311.574 4.643 316.299 7.633 321.025 4.643 321.025 -1.337" fill="none" stroke="#231f20" stroke-miterlimit="10" stroke-width=".539"/><polygon points="336.055 -1.26 331.276 -4.283 326.497 -1.26 326.497 4.788 331.276 7.811 336.055 4.788 336.055 -1.26" fill="none" stroke="#231f20" stroke-miterlimit="10" stroke-width=".539"/><polygon points="341.42 -1.182 341.42 4.932 346.252 7.99 351.084 4.932 351.084 -1.182 346.252 -4.239 341.42 -1.182" fill="none" stroke="#231f20" stroke-miterlimit="10" stroke-width=".539"/><polygon points="214.839 10.393 214.839 15.903 219.193 18.658 223.548 15.903 223.548 10.393 219.193 7.638 214.839 10.393" fill="none" stroke="#231f20" stroke-miterlimit="10" stroke-width=".539"/><polygon points="238.529 10.622 234.121 7.834 229.714 10.622 229.714 16.2 234.121 18.988 238.529 16.2 238.529 10.622" fill="none" stroke="#231f20" stroke-miterlimit="10" stroke-width=".539"/><polygon points="253.51 10.851 249.05 8.029 244.589 10.851 244.589 16.496 249.05 19.318 253.51 16.496 253.51 10.851" fill="none" stroke="#231f20" stroke-miterlimit="10" stroke-width=".539"/><polygon points="268.492 11.081 263.978 8.225 259.464 11.081 259.464 16.792 263.978 19.648 268.492 16.792 268.492 11.081" fill="none" stroke="#231f20" stroke-miterlimit="10" stroke-width=".539"/><polygon points="283.473 11.31 278.906 8.42 274.34 11.31 274.34 17.088 278.906 19.978 283.473 17.088 283.473 11.31" fill="none" stroke="#231f20" stroke-miterlimit="10" stroke-width=".539"/><polygon points="298.455 11.539 293.835 8.616 289.215 11.539 289.215 17.385 293.835 20.308 298.455 17.385 298.455 11.539" fill="none" stroke="#231f20" stroke-miterlimit="10" stroke-width=".539"/><polygon points="313.436 11.768 308.763 8.811 304.09 11.768 304.09 17.681 308.763 20.637 313.436 17.681 313.436 11.768" fill="none" stroke="#231f20" stroke-miterlimit="10" stroke-width=".539"/><polygon points="328.417 11.997 323.691 9.007 318.966 11.997 318.966 17.977 323.691 20.967 328.417 17.977 328.417 11.997" fill="none" stroke="#231f20" stroke-miterlimit="10" stroke-width=".539"/><polygon points="343.399 12.226 338.62 9.203 333.841 12.226 333.841 18.273 338.62 21.297 343.399 18.273 343.399 12.226" fill="none" stroke="#231f20" stroke-miterlimit="10" stroke-width=".539"/><polygon points="348.716 12.455 348.716 18.57 353.548 21.627 358.38 18.57 358.38 12.455 353.548 9.398 348.716 12.455" fill="none" stroke="#231f20" stroke-miterlimit="10" stroke-width=".539"/><polygon points="207.111 22.667 207.111 28.177 211.465 30.932 215.82 28.177 215.82 22.667 211.465 19.912 207.111 22.667" fill="none" stroke="#231f20" stroke-miterlimit="10" stroke-width=".539"/><polygon points="231.033 22.976 226.625 20.187 222.217 22.976 222.217 28.553 226.625 31.342 231.033 28.553 231.033 22.976" fill="none" stroke="#231f20" stroke-miterlimit="10" stroke-width=".539"/><polygon points="246.245 23.285 241.785 20.463 237.324 23.285 237.324 28.929 241.785 31.752 246.245 28.929 246.245 23.285" fill="none" stroke="#231f20" stroke-miterlimit="10" stroke-width=".539"/><polygon points="261.458 23.594 256.945 20.738 252.431 23.594 252.431 29.305 256.945 32.161 261.458 29.305 261.458 23.594" fill="none" stroke="#231f20" stroke-miterlimit="10" stroke-width=".539"/><polygon points="276.671 23.903 272.104 21.013 267.538 23.903 267.538 29.682 272.104 32.571 276.671 29.682 276.671 23.903" fill="none" stroke="#231f20" stroke-miterlimit="10" stroke-width=".539"/><polygon points="291.884 24.212 287.264 21.289 282.644 24.212 282.644 30.058 287.264 32.981 291.884 30.058 291.884 24.212" fill="none" stroke="#231f20" stroke-miterlimit="10" stroke-width=".539"/><polygon points="307.097 24.521 302.424 21.564 297.751 24.521 297.751 30.434 302.424 33.39 307.097 30.434 307.097 24.521" fill="none" stroke="#231f20" stroke-miterlimit="10" stroke-width=".539"/><polygon points="322.309 24.83 317.584 21.84 312.858 24.83 312.858 30.81 317.584 33.8 322.309 30.81 322.309 24.83" fill="none" stroke="#231f20" stroke-miterlimit="10" stroke-width=".539"/><polygon points="337.522 25.139 332.743 22.115 327.964 25.139 327.964 31.186 332.743 34.21 337.522 31.186 337.522 25.139" fill="none" stroke="#231f20" stroke-miterlimit="10" stroke-width=".539"/><polygon points="343.071 25.448 343.071 31.562 347.903 34.62 352.735 31.562 352.735 25.448 347.903 22.391 343.071 25.448" fill="none" stroke="#231f20" stroke-miterlimit="10" stroke-width=".539"/><polygon points="214.839 34.94 214.839 40.451 219.193 43.206 223.548 40.451 223.548 34.94 219.193 32.185 214.839 34.94" fill="none" stroke="#231f20" stroke-miterlimit="10" stroke-width=".539"/><polygon points="238.529 35.422 234.121 32.633 229.714 35.422 229.714 40.999 234.121 43.788 238.529 40.999 238.529 35.422" fill="none" stroke="#231f20" stroke-miterlimit="10" stroke-width=".539"/><polygon points="253.51 35.904 249.05 33.081 244.589 35.904 244.589 41.548 249.05 44.37 253.51 41.548 253.51 35.904" fill="none" stroke="#231f20" stroke-miterlimit="10" stroke-width=".539"/><polygon points="268.492 36.385 263.978 33.53 259.464 36.385 259.464 42.097 263.978 44.953 268.492 42.097 268.492 36.385" fill="none" stroke="#231f20" stroke-miterlimit="10" stroke-width=".539"/><polygon points="283.473 36.867 278.906 33.978 274.34 36.867 274.34 42.646 278.906 45.535 283.473 42.646 283.473 36.867" fill="none" stroke="#231f20" stroke-miterlimit="10" stroke-width=".539"/><polygon points="298.455 37.349 293.835 34.426 289.215 37.349 289.215 43.195 293.835 46.118 298.455 43.195 298.455 37.349" fill="none" stroke="#231f20" stroke-miterlimit="10" stroke-width=".539"/><polygon points="313.436 37.83 308.763 34.874 304.09 37.83 304.09 43.743 308.763 46.7 313.436 43.743 313.436 37.83" fill="none" stroke="#231f20" stroke-miterlimit="10" stroke-width=".539"/><polygon points="328.417 38.312 323.691 35.322 318.966 38.312 318.966 44.292 323.691 47.282 328.417 44.292 328.417 38.312" fill="none" stroke="#231f20" stroke-miterlimit="10" stroke-width=".539"/><polygon points="343.399 38.794 338.62 35.77 333.841 38.794 333.841 44.841 338.62 47.865 343.399 44.841 343.399 38.794" fill="none" stroke="#231f20" stroke-miterlimit="10" stroke-width=".539"/><polygon points="348.716 39.275 348.716 45.39 353.548 48.447 358.38 45.39 358.38 39.275 353.548 36.218 348.716 39.275" fill="none" stroke="#231f20" stroke-miterlimit="10" stroke-width=".539"/><polygon points="207.111 47.214 207.111 52.724 211.465 55.479 215.82 52.724 215.82 47.214 211.465 44.459 207.111 47.214" fill="none" stroke="#231f20" stroke-miterlimit="10" stroke-width=".539"/><polygon points="230.801 47.797 226.394 45.008 221.986 47.797 221.986 53.374 226.394 56.163 230.801 53.374 230.801 47.797" fill="none" stroke="#231f20" stroke-miterlimit="10" stroke-width=".539"/><polygon points="245.782 48.379 241.322 45.557 236.861 48.379 236.861 54.024 241.322 56.846 245.782 54.024 245.782 48.379" fill="none" stroke="#231f20" stroke-miterlimit="10" stroke-width=".539"/><polygon points="260.764 48.962 256.25 46.106 251.737 48.962 251.737 54.674 256.25 57.529 260.764 54.674 260.764 48.962" fill="none" stroke="#231f20" stroke-miterlimit="10" stroke-width=".539"/><polygon points="275.745 49.545 271.179 46.655 266.612 49.545 266.612 55.323 271.179 58.213 275.745 55.323 275.745 49.545" fill="none" stroke="#231f20" stroke-miterlimit="10" stroke-width=".539"/><polygon points="290.727 50.127 286.107 47.204 281.487 50.127 281.487 55.973 286.107 58.896 290.727 55.973 290.727 50.127" fill="none" stroke="#231f20" stroke-miterlimit="10" stroke-width=".539"/><polygon points="305.708 50.71 301.035 47.754 296.363 50.71 296.363 56.623 301.035 59.58 305.708 56.623 305.708 50.71" fill="none" stroke="#231f20" stroke-miterlimit="10" stroke-width=".539"/><polygon points="320.689 51.293 315.964 48.303 311.238 51.293 311.238 57.273 315.964 60.263 320.689 57.273 320.689 51.293" fill="none" stroke="#231f20" stroke-miterlimit="10" stroke-width=".539"/><polygon points="335.671 51.875 330.892 48.852 326.113 51.875 326.113 57.923 330.892 60.946 335.671 57.923 335.671 51.875" fill="none" stroke="#231f20" stroke-miterlimit="10" stroke-width=".539"/><polygon points="340.988 52.458 340.988 58.573 345.82 61.63 350.652 58.573 350.652 52.458 345.82 49.401 340.988 52.458" fill="none" stroke="#231f20" stroke-miterlimit="10" stroke-width=".539"/><polygon points="214.839 59.488 214.839 64.998 219.193 67.753 223.548 64.998 223.548 59.488 219.193 56.732 214.839 59.488" fill="none" stroke="#231f20" stroke-miterlimit="10" stroke-width=".539"/><polygon points="238.529 60.182 234.121 57.393 229.714 60.182 229.714 65.759 234.121 68.548 238.529 65.759 238.529 60.182" fill="none" stroke="#231f20" stroke-miterlimit="10" stroke-width=".539"/><polygon points="253.51 60.877 249.05 58.054 244.589 60.877 244.589 66.521 249.05 69.343 253.51 66.521 253.51 60.877" fill="none" stroke="#231f20" stroke-miterlimit="10" stroke-width=".539"/><polygon points="268.492 61.571 263.978 58.715 259.464 61.571 259.464 67.283 263.978 70.139 268.492 67.283 268.492 61.571" fill="none" stroke="#231f20" stroke-miterlimit="10" stroke-width=".539"/><polygon points="283.473 62.266 278.906 59.376 274.34 62.266 274.34 68.044 278.906 70.934 283.473 68.044 283.473 62.266" fill="none" stroke="#231f20" stroke-miterlimit="10" stroke-width=".539"/><polygon points="298.455 62.96 293.835 60.037 289.215 62.96 289.215 68.806 293.835 71.729 298.455 68.806 298.455 62.96" fill="none" stroke="#231f20" stroke-miterlimit="10" stroke-width=".539"/><polygon points="313.436 63.655 308.763 60.698 304.09 63.655 304.09 69.568 308.763 72.524 313.436 69.568 313.436 63.655" fill="none" stroke="#231f20" stroke-miterlimit="10" stroke-width=".539"/><polygon points="328.417 64.349 323.691 61.359 318.966 64.349 318.966 70.329 323.691 73.319 328.417 70.329 328.417 64.349" fill="none" stroke="#231f20" stroke-miterlimit="10" stroke-width=".539"/><polygon points="343.399 65.044 338.62 62.02 333.841 65.044 333.841 71.091 338.62 74.115 343.399 71.091 343.399 65.044" fill="none" stroke="#231f20" stroke-miterlimit="10" stroke-width=".539"/><polygon points="348.716 65.738 348.716 71.853 353.548 74.91 358.38 71.853 358.38 65.738 353.548 62.681 348.716 65.738" fill="none" stroke="#231f20" stroke-miterlimit="10" stroke-width=".539"/><polygon points="207.111 71.761 207.111 77.271 211.465 80.027 215.82 77.271 215.82 71.761 211.465 69.006 207.111 71.761" fill="none" stroke="#231f20" stroke-miterlimit="10" stroke-width=".539"/><polygon points="230.801 72.546 226.394 69.757 221.986 72.546 221.986 78.123 226.394 80.912 230.801 78.123 230.801 72.546" fill="none" stroke="#231f20" stroke-miterlimit="10" stroke-width=".539"/><polygon points="245.782 73.331 241.322 70.508 236.861 73.331 236.861 78.975 241.322 81.797 245.782 78.975 245.782 73.331" fill="none" stroke="#231f20" stroke-miterlimit="10" stroke-width=".539"/><polygon points="260.764 74.115 256.25 71.26 251.737 74.115 251.737 79.827 256.25 82.683 260.764 79.827 260.764 74.115" fill="none" stroke="#231f20" stroke-miterlimit="10" stroke-width=".539"/><polygon points="275.745 74.9 271.179 72.011 266.612 74.9 266.612 80.679 271.179 83.568 275.745 80.679 275.745 74.9" fill="none" stroke="#231f20" stroke-miterlimit="10" stroke-width=".539"/><polygon points="290.727 75.685 286.107 72.762 281.487 75.685 281.487 81.531 286.107 84.454 290.727 81.531 290.727 75.685" fill="none" stroke="#231f20" stroke-miterlimit="10" stroke-width=".539"/><polygon points="305.708 76.47 301.035 73.513 296.363 76.47 296.363 82.383 301.035 85.339 305.708 82.383 305.708 76.47" fill="none" stroke="#231f20" stroke-miterlimit="10" stroke-width=".539"/><polygon points="320.689 77.254 315.964 74.264 311.238 77.254 311.238 83.234 315.964 86.224 320.689 83.234 320.689 77.254" fill="none" stroke="#231f20" stroke-miterlimit="10" stroke-width=".539"/><polygon points="335.671 78.039 330.892 75.015 326.113 78.039 326.113 84.086 330.892 87.11 335.671 84.086 335.671 78.039" fill="none" stroke="#231f20" stroke-miterlimit="10" stroke-width=".539"/><polygon points="340.988 78.824 340.988 84.938 345.82 87.995 350.652 84.938 350.652 78.824 345.82 75.767 340.988 78.824" fill="none" stroke="#231f20" stroke-miterlimit="10" stroke-width=".539"/></g><g clip-path="url(#d)"><polygon points="6.763 .922 2.706 -1.716 -1.416 .821 -1.48 5.996 2.577 8.634 6.699 6.097 6.763 .922" fill="none" stroke="#231f20" stroke-miterlimit="10" stroke-width=".539"/><polygon points="20.179 1.158 16.074 -1.511 11.905 1.055 11.84 6.291 15.944 8.96 20.114 6.393 20.179 1.158" fill="none" stroke="#231f20" stroke-miterlimit="10" stroke-width=".539"/><polygon points="33.595 1.394 29.443 -1.306 25.225 1.29 25.16 6.586 29.312 9.285 33.529 6.689 33.595 1.394" fill="none" stroke="#231f20" stroke-miterlimit="10" stroke-width=".539"/><polygon points="47.011 1.63 42.812 -1.1 38.546 1.525 38.48 6.88 42.679 9.611 46.944 6.985 47.011 1.63" fill="none" stroke="#231f20" stroke-miterlimit="10" stroke-width=".539"/><polygon points="60.427 1.866 56.18 -.895 51.867 1.76 51.8 7.175 56.046 9.936 60.359 7.281 60.427 1.866" fill="none" stroke="#231f20" stroke-miterlimit="10" stroke-width=".539"/><polygon points="65.188 1.994 65.12 7.47 69.413 10.262 73.775 7.577 73.842 2.102 69.549 -.69 65.188 1.994" fill="none" stroke="#231f20" stroke-miterlimit="10" stroke-width=".539"/><polygon points="13.122 12.064 9.017 9.395 4.848 11.961 4.783 17.197 8.887 19.866 13.057 17.299 13.122 12.064" fill="none" stroke="#231f20" stroke-miterlimit="10" stroke-width=".539"/><polygon points="26.538 12.3 22.386 9.6 18.168 12.196 18.103 17.491 22.255 20.191 26.472 17.595 26.538 12.3" fill="none" stroke="#231f20" stroke-miterlimit="10" stroke-width=".539"/><polygon points="39.954 12.536 35.755 9.805 31.489 12.431 31.423 17.786 35.622 20.517 39.887 17.891 39.954 12.536" fill="none" stroke="#231f20" stroke-miterlimit="10" stroke-width=".539"/><polygon points="53.37 12.772 49.123 10.011 44.81 12.665 44.743 18.081 48.989 20.842 53.302 18.187 53.37 12.772" fill="none" stroke="#231f20" stroke-miterlimit="10" stroke-width=".539"/><polygon points="58.131 12.9 58.063 18.376 62.356 21.168 66.717 18.483 66.785 13.008 62.492 10.216 58.131 12.9" fill="none" stroke="#231f20" stroke-miterlimit="10" stroke-width=".539"/><polygon points="6.491 22.906 2.433 20.267 -1.689 22.804 -1.753 27.979 2.305 30.618 6.426 28.081 6.491 22.906" fill="none" stroke="#231f20" stroke-miterlimit="10" stroke-width=".539"/><polygon points="19.906 23.141 15.802 20.473 11.632 23.039 11.567 28.274 15.672 30.943 19.842 28.377 19.906 23.141" fill="none" stroke="#231f20" stroke-miterlimit="10" stroke-width=".539"/><polygon points="33.322 23.377 29.17 20.678 24.953 23.274 24.887 28.569 29.039 31.269 33.257 28.673 33.322 23.377" fill="none" stroke="#231f20" stroke-miterlimit="10" stroke-width=".539"/><polygon points="46.738 23.613 42.539 20.883 38.274 23.508 38.207 28.864 42.406 31.594 46.672 28.969 46.738 23.613" fill="none" stroke="#231f20" stroke-miterlimit="10" stroke-width=".539"/><polygon points="60.154 23.849 55.908 21.088 51.594 23.743 51.527 29.159 55.773 31.92 60.087 29.265 60.154 23.849" fill="none" stroke="#231f20" stroke-miterlimit="10" stroke-width=".539"/><polygon points="64.915 23.978 64.847 29.454 69.141 32.245 73.502 29.561 73.57 24.085 69.276 21.294 64.915 23.978" fill="none" stroke="#231f20" stroke-miterlimit="10" stroke-width=".539"/><polygon points="12.849 34.563 8.745 31.895 4.575 34.461 4.51 39.696 8.615 42.365 12.784 39.799 12.849 34.563" fill="none" stroke="#231f20" stroke-miterlimit="10" stroke-width=".539"/><polygon points="26.265 34.903 22.113 32.203 17.896 34.799 17.83 40.094 21.982 42.794 26.2 40.198 26.265 34.903" fill="none" stroke="#231f20" stroke-miterlimit="10" stroke-width=".539"/><polygon points="39.681 35.242 35.482 32.512 31.217 35.137 31.15 40.492 35.349 43.223 39.615 40.597 39.681 35.242" fill="none" stroke="#231f20" stroke-miterlimit="10" stroke-width=".539"/><polygon points="53.097 35.581 48.851 32.82 44.537 35.475 44.47 40.89 48.716 43.651 53.03 40.997 53.097 35.581" fill="none" stroke="#231f20" stroke-miterlimit="10" stroke-width=".539"/><polygon points="57.858 35.813 57.79 41.288 62.084 44.08 66.445 41.396 66.513 35.92 62.219 33.128 57.858 35.813" fill="none" stroke="#231f20" stroke-miterlimit="10" stroke-width=".539"/><polygon points="6.218 45.688 2.16 43.05 -1.961 45.587 -2.026 50.762 2.032 53.4 6.154 50.864 6.218 45.688" fill="none" stroke="#231f20" stroke-miterlimit="10" stroke-width=".539"/><polygon points="19.634 46.124 15.529 43.455 11.359 46.022 11.294 51.257 15.399 53.926 19.569 51.36 19.634 46.124" fill="none" stroke="#231f20" stroke-miterlimit="10" stroke-width=".539"/><polygon points="33.05 46.56 28.898 43.86 24.68 46.456 24.614 51.752 28.766 54.451 32.984 51.855 33.05 46.56" fill="none" stroke="#231f20" stroke-miterlimit="10" stroke-width=".539"/><polygon points="46.465 46.996 42.266 44.265 38.001 46.891 37.935 52.246 42.134 54.977 46.399 52.351 46.465 46.996" fill="none" stroke="#231f20" stroke-miterlimit="10" stroke-width=".539"/><polygon points="59.881 47.431 55.635 44.671 51.322 47.325 51.255 52.741 55.501 55.502 59.814 52.847 59.881 47.431" fill="none" stroke="#231f20" stroke-miterlimit="10" stroke-width=".539"/><polygon points="64.643 47.76 64.575 53.236 68.868 56.027 73.229 53.343 73.297 47.867 69.004 45.076 64.643 47.76" fill="none" stroke="#231f20" stroke-miterlimit="10" stroke-width=".539"/><polygon points="12.577 57.294 8.472 54.625 4.302 57.191 4.237 62.426 8.342 65.095 12.512 62.529 12.577 57.294" fill="none" stroke="#231f20" stroke-miterlimit="10" stroke-width=".539"/><polygon points="25.993 57.782 21.841 55.082 17.623 57.678 17.557 62.974 21.709 65.673 25.927 63.077 25.993 57.782" fill="none" stroke="#231f20" stroke-miterlimit="10" stroke-width=".539"/><polygon points="39.408 58.27 35.209 55.54 30.944 58.165 30.878 63.521 35.077 66.251 39.342 63.626 39.408 58.27" fill="none" stroke="#231f20" stroke-miterlimit="10" stroke-width=".539"/><polygon points="52.824 58.759 48.578 55.998 44.265 58.653 44.198 64.068 48.444 66.829 52.757 64.175 52.824 58.759" fill="none" stroke="#231f20" stroke-miterlimit="10" stroke-width=".539"/><polygon points="57.586 59.14 57.518 64.616 61.811 67.407 66.172 64.723 66.24 59.247 61.947 56.456 57.586 59.14" fill="none" stroke="#231f20" stroke-miterlimit="10" stroke-width=".539"/></g><polygon points="347.124 132.638 347.124 135.689 349.812 137.215 352.5 135.689 352.5 132.638 349.812 131.112 347.124 132.638" fill="none" stroke="#231f20" stroke-miterlimit="10" stroke-width=".539"/><polygon points="341.527 130.427 338.839 131.953 338.839 135.004 341.527 136.53 344.215 135.004 344.215 131.953 341.527 130.427" fill="none" stroke="#231f20" stroke-miterlimit="10" stroke-width=".539"/><polygon points="333.242 129.742 330.554 131.268 330.554 134.319 333.242 135.845 335.929 134.319 335.929 131.268 333.242 129.742" fill="none" stroke="#231f20" stroke-miterlimit="10" stroke-width=".539"/><polygon points="324.956 129.057 322.268 130.583 322.268 133.635 324.956 135.16 327.644 133.635 327.644 130.583 324.956 129.057" fill="none" stroke="#231f20" stroke-miterlimit="10" stroke-width=".539"/><polygon points="316.671 128.372 313.983 129.898 313.983 132.95 316.671 134.476 319.359 132.95 319.359 129.898 316.671 128.372" fill="none" stroke="#231f20" stroke-miterlimit="10" stroke-width=".539"/><polygon points="308.386 127.687 305.698 129.213 305.698 132.265 308.386 133.791 311.074 132.265 311.074 129.213 308.386 127.687" fill="none" stroke="#231f20" stroke-miterlimit="10" stroke-width=".539"/><polygon points="300.1 127.002 297.412 128.528 297.412 131.58 300.1 133.106 302.788 131.58 302.788 128.528 300.1 127.002" fill="none" stroke="#231f20" stroke-miterlimit="10" stroke-width=".539"/><polygon points="291.815 126.317 289.127 127.843 289.127 130.895 291.815 132.421 294.503 130.895 294.503 127.843 291.815 126.317" fill="none" stroke="#231f20" stroke-miterlimit="10" stroke-width=".539"/><polygon points="283.53 125.633 280.842 127.158 280.842 130.21 283.53 131.736 286.218 130.21 286.218 127.158 283.53 125.633" fill="none" stroke="#231f20" stroke-miterlimit="10" stroke-width=".539"/><polygon points="275.244 124.948 272.557 126.474 272.557 129.525 275.244 131.051 277.932 129.525 277.932 126.474 275.244 124.948" fill="none" stroke="#231f20" stroke-miterlimit="10" stroke-width=".539"/><polygon points="266.959 124.263 264.271 125.789 264.271 128.84 266.959 130.366 269.647 128.84 269.647 125.789 266.959 124.263" fill="none" stroke="#231f20" stroke-miterlimit="10" stroke-width=".539"/><polygon points="258.674 123.578 255.986 125.104 255.986 128.155 258.674 129.681 261.362 128.155 261.362 125.104 258.674 123.578" fill="none" stroke="#231f20" stroke-miterlimit="10" stroke-width=".539"/><polygon points="250.389 122.893 247.701 124.419 247.701 127.47 250.389 128.996 253.076 127.47 253.076 124.419 250.389 122.893" fill="none" stroke="#231f20" stroke-miterlimit="10" stroke-width=".539"/><polygon points="242.103 122.208 239.415 123.734 239.415 126.786 242.103 128.311 244.791 126.786 244.791 123.734 242.103 122.208" fill="none" stroke="#231f20" stroke-miterlimit="10" stroke-width=".539"/><polygon points="233.818 121.523 231.13 123.049 231.13 126.101 233.818 127.627 236.506 126.101 236.506 123.049 233.818 121.523" fill="none" stroke="#231f20" stroke-miterlimit="10" stroke-width=".539"/><polygon points="222.845 122.364 222.845 125.416 225.533 126.942 228.221 125.416 228.221 122.364 225.533 120.838 222.845 122.364" fill="none" stroke="#231f20" stroke-miterlimit="10" stroke-width=".539"/><polygon points="341.704 139.291 341.704 142.343 344.392 143.869 347.08 142.343 347.08 139.291 344.392 137.765 341.704 139.291" fill="none" stroke="#231f20" stroke-miterlimit="10" stroke-width=".539"/><polygon points="336.107 137.069 333.419 138.595 333.419 141.646 336.107 143.172 338.795 141.646 338.795 138.595 336.107 137.069" fill="none" stroke="#231f20" stroke-miterlimit="10" stroke-width=".539"/><polygon points="327.822 136.372 325.134 137.898 325.134 140.95 327.822 142.475 330.51 140.95 330.51 137.898 327.822 136.372" fill="none" stroke="#231f20" stroke-miterlimit="10" stroke-width=".539"/><polygon points="319.536 135.676 316.849 137.201 316.849 140.253 319.536 141.779 322.224 140.253 322.224 137.201 319.536 135.676" fill="none" stroke="#231f20" stroke-miterlimit="10" stroke-width=".539"/><polygon points="311.251 134.979 308.563 136.505 308.563 139.556 311.251 141.082 313.939 139.556 313.939 136.505 311.251 134.979" fill="none" stroke="#231f20" stroke-miterlimit="10" stroke-width=".539"/><polygon points="302.966 134.282 300.278 135.808 300.278 138.86 302.966 140.386 305.654 138.86 305.654 135.808 302.966 134.282" fill="none" stroke="#231f20" stroke-miterlimit="10" stroke-width=".539"/><polygon points="294.681 133.586 291.993 135.112 291.993 138.163 294.681 139.689 297.368 138.163 297.368 135.112 294.681 133.586" fill="none" stroke="#231f20" stroke-miterlimit="10" stroke-width=".539"/><polygon points="286.395 132.889 283.707 134.415 283.707 137.467 286.395 138.992 289.083 137.467 289.083 134.415 286.395 132.889" fill="none" stroke="#231f20" stroke-miterlimit="10" stroke-width=".539"/><polygon points="278.11 132.193 275.422 133.718 275.422 136.77 278.11 138.296 280.798 136.77 280.798 133.718 278.11 132.193" fill="none" stroke="#231f20" stroke-miterlimit="10" stroke-width=".539"/><polygon points="269.825 131.496 267.137 133.022 267.137 136.073 269.825 137.599 272.513 136.073 272.513 133.022 269.825 131.496" fill="none" stroke="#231f20" stroke-miterlimit="10" stroke-width=".539"/><polygon points="261.539 130.799 258.852 132.325 258.852 135.377 261.539 136.903 264.227 135.377 264.227 132.325 261.539 130.799" fill="none" stroke="#231f20" stroke-miterlimit="10" stroke-width=".539"/><polygon points="253.254 130.103 250.566 131.629 250.566 134.68 253.254 136.206 255.942 134.68 255.942 131.629 253.254 130.103" fill="none" stroke="#231f20" stroke-miterlimit="10" stroke-width=".539"/><polygon points="244.969 129.406 242.281 130.932 242.281 133.984 244.969 135.509 247.657 133.984 247.657 130.932 244.969 129.406" fill="none" stroke="#231f20" stroke-miterlimit="10" stroke-width=".539"/><polygon points="236.684 128.709 233.996 130.235 233.996 133.287 236.684 134.813 239.371 133.287 239.371 130.235 236.684 128.709" fill="none" stroke="#231f20" stroke-miterlimit="10" stroke-width=".539"/><polygon points="228.398 128.013 225.71 129.539 225.71 132.59 228.398 134.116 231.086 132.59 231.086 129.539 228.398 128.013" fill="none" stroke="#231f20" stroke-miterlimit="10" stroke-width=".539"/><polygon points="217.425 128.842 217.425 131.894 220.113 133.42 222.801 131.894 222.801 128.842 220.113 127.316 217.425 128.842" fill="none" stroke="#231f20" stroke-miterlimit="10" stroke-width=".539"/><polygon points="336.379 145.598 336.379 148.649 339.067 150.175 341.754 148.649 341.754 145.598 339.067 144.072 336.379 145.598" fill="none" stroke="#231f20" stroke-miterlimit="10" stroke-width=".539"/><polygon points="330.778 143.384 328.09 144.909 328.09 147.961 330.778 149.487 333.466 147.961 333.466 144.909 330.778 143.384" fill="none" stroke="#231f20" stroke-miterlimit="10" stroke-width=".539"/><polygon points="322.489 142.695 319.801 144.221 319.801 147.273 322.489 148.799 325.177 147.273 325.177 144.221 322.489 142.695" fill="none" stroke="#231f20" stroke-miterlimit="10" stroke-width=".539"/><polygon points="314.2 142.007 311.513 143.533 311.513 146.584 314.2 148.11 316.888 146.584 316.888 143.533 314.2 142.007" fill="none" stroke="#231f20" stroke-miterlimit="10" stroke-width=".539"/><polygon points="305.912 141.319 303.224 142.844 303.224 145.896 305.912 147.422 308.6 145.896 308.6 142.844 305.912 141.319" fill="none" stroke="#231f20" stroke-miterlimit="10" stroke-width=".539"/><polygon points="297.623 140.63 294.935 142.156 294.935 145.208 297.623 146.734 300.311 145.208 300.311 142.156 297.623 140.63" fill="none" stroke="#231f20" stroke-miterlimit="10" stroke-width=".539"/><polygon points="289.334 139.942 286.647 141.468 286.647 144.519 289.334 146.045 292.022 144.519 292.022 141.468 289.334 139.942" fill="none" stroke="#231f20" stroke-miterlimit="10" stroke-width=".539"/><polygon points="281.046 139.254 278.358 140.779 278.358 143.831 281.046 145.357 283.734 143.831 283.734 140.779 281.046 139.254" fill="none" stroke="#231f20" stroke-miterlimit="10" stroke-width=".539"/><polygon points="272.757 138.565 270.069 140.091 270.069 143.143 272.757 144.669 275.445 143.143 275.445 140.091 272.757 138.565" fill="none" stroke="#231f20" stroke-miterlimit="10" stroke-width=".539"/><polygon points="264.468 137.877 261.78 139.403 261.78 142.455 264.468 143.98 267.156 142.455 267.156 139.403 264.468 137.877" fill="none" stroke="#231f20" stroke-miterlimit="10" stroke-width=".539"/><polygon points="256.18 137.189 253.492 138.715 253.492 141.766 256.18 143.292 258.867 141.766 258.867 138.715 256.18 137.189" fill="none" stroke="#231f20" stroke-miterlimit="10" stroke-width=".539"/><polygon points="247.891 136.5 245.203 138.026 245.203 141.078 247.891 142.604 250.579 141.078 250.579 138.026 247.891 136.5" fill="none" stroke="#231f20" stroke-miterlimit="10" stroke-width=".539"/><polygon points="239.602 135.812 236.914 137.338 236.914 140.39 239.602 141.915 242.29 140.39 242.29 137.338 239.602 135.812" fill="none" stroke="#231f20" stroke-miterlimit="10" stroke-width=".539"/><polygon points="231.313 135.124 228.626 136.65 228.626 139.701 231.313 141.227 234.001 139.701 234.001 136.65 231.313 135.124" fill="none" stroke="#231f20" stroke-miterlimit="10" stroke-width=".539"/><polygon points="223.025 134.436 220.337 135.961 220.337 139.013 223.025 140.539 225.713 139.013 225.713 135.961 223.025 134.436" fill="none" stroke="#231f20" stroke-miterlimit="10" stroke-width=".539"/><polygon points="212.048 135.273 212.048 138.325 214.736 139.851 217.424 138.325 217.424 135.273 214.736 133.747 212.048 135.273" fill="none" stroke="#231f20" stroke-miterlimit="10" stroke-width=".539"/><polygon points="342.002 153.972 342.002 157.023 344.69 158.549 347.378 157.023 347.378 153.972 344.69 152.446 342.002 153.972" fill="none" stroke="#231f20" stroke-miterlimit="10" stroke-width=".539"/><polygon points="336.342 151.698 333.655 153.224 333.655 156.276 336.342 157.802 339.03 156.276 339.03 153.224 336.342 151.698" fill="none" stroke="#231f20" stroke-miterlimit="10" stroke-width=".539"/><polygon points="327.994 150.951 325.307 152.477 325.307 155.528 327.994 157.054 330.682 155.528 330.682 152.477 327.994 150.951" fill="none" stroke="#231f20" stroke-miterlimit="10" stroke-width=".539"/><polygon points="319.647 150.203 316.959 151.729 316.959 154.781 319.647 156.307 322.334 154.781 322.334 151.729 319.647 150.203" fill="none" stroke="#231f20" stroke-miterlimit="10" stroke-width=".539"/><polygon points="311.299 149.456 308.611 150.982 308.611 154.033 311.299 155.559 313.986 154.033 313.986 150.982 311.299 149.456" fill="none" stroke="#231f20" stroke-miterlimit="10" stroke-width=".539"/><polygon points="302.951 148.708 300.263 150.234 300.263 153.286 302.951 154.812 305.639 153.286 305.639 150.234 302.951 148.708" fill="none" stroke="#231f20" stroke-miterlimit="10" stroke-width=".539"/><polygon points="294.603 147.961 291.915 149.486 291.915 152.538 294.603 154.064 297.291 152.538 297.291 149.486 294.603 147.961" fill="none" stroke="#231f20" stroke-miterlimit="10" stroke-width=".539"/><polygon points="286.255 147.213 283.567 148.739 283.567 151.791 286.255 153.316 288.943 151.791 288.943 148.739 286.255 147.213" fill="none" stroke="#231f20" stroke-miterlimit="10" stroke-width=".539"/><polygon points="277.907 146.466 275.219 147.991 275.219 151.043 277.907 152.569 280.595 151.043 280.595 147.991 277.907 146.466" fill="none" stroke="#231f20" stroke-miterlimit="10" stroke-width=".539"/><polygon points="269.559 145.718 266.871 147.244 266.871 150.295 269.559 151.821 272.247 150.295 272.247 147.244 269.559 145.718" fill="none" stroke="#231f20" stroke-miterlimit="10" stroke-width=".539"/><polygon points="261.211 144.97 258.523 146.496 258.523 149.548 261.211 151.074 263.899 149.548 263.899 146.496 261.211 144.97" fill="none" stroke="#231f20" stroke-miterlimit="10" stroke-width=".539"/><polygon points="252.863 144.223 250.175 145.749 250.175 148.8 252.863 150.326 255.551 148.8 255.551 145.749 252.863 144.223" fill="none" stroke="#231f20" stroke-miterlimit="10" stroke-width=".539"/><polygon points="244.515 143.475 241.827 145.001 241.827 148.053 244.515 149.579 247.203 148.053 247.203 145.001 244.515 143.475" fill="none" stroke="#231f20" stroke-miterlimit="10" stroke-width=".539"/><polygon points="236.167 142.728 233.479 144.254 233.479 147.305 236.167 148.831 238.855 147.305 238.855 144.254 236.167 142.728" fill="none" stroke="#231f20" stroke-miterlimit="10" stroke-width=".539"/><polygon points="227.819 141.98 225.131 143.506 225.131 146.558 227.819 148.084 230.507 146.558 230.507 143.506 227.819 141.98" fill="none" stroke="#231f20" stroke-miterlimit="10" stroke-width=".539"/><polygon points="216.783 142.759 216.783 145.81 219.471 147.336 222.159 145.81 222.159 142.759 219.471 141.233 216.783 142.759" fill="none" stroke="#231f20" stroke-miterlimit="10" stroke-width=".539"/><polygon points="208.636 142.388 208.636 145.439 211.324 146.965 214.012 145.439 214.012 142.388 211.324 140.862 208.636 142.388" fill="none" stroke="#231f20" stroke-miterlimit="10" stroke-width=".539"/><polygon points="202.976 140.114 200.288 141.64 200.288 144.692 202.976 146.218 205.664 144.692 205.664 141.64 202.976 140.114" fill="none" stroke="#231f20" stroke-miterlimit="10" stroke-width=".539"/><polygon points="194.628 139.367 191.94 140.892 191.94 143.944 194.628 145.47 197.316 143.944 197.316 140.892 194.628 139.367" fill="none" stroke="#231f20" stroke-miterlimit="10" stroke-width=".539"/><polygon points="186.28 138.619 183.592 140.145 183.592 143.197 186.28 144.722 188.968 143.197 188.968 140.145 186.28 138.619" fill="none" stroke="#231f20" stroke-miterlimit="10" stroke-width=".539"/><polygon points="177.932 137.872 175.244 139.397 175.244 142.449 177.932 143.975 180.62 142.449 180.62 139.397 177.932 137.872" fill="none" stroke="#231f20" stroke-miterlimit="10" stroke-width=".539"/><polygon points="169.584 137.124 166.896 138.65 166.896 141.701 169.584 143.227 172.272 141.701 172.272 138.65 169.584 137.124" fill="none" stroke="#231f20" stroke-miterlimit="10" stroke-width=".539"/><polygon points="161.236 136.376 158.548 137.902 158.548 140.954 161.236 142.48 163.924 140.954 163.924 137.902 161.236 136.376" fill="none" stroke="#231f20" stroke-miterlimit="10" stroke-width=".539"/><polygon points="152.888 135.629 150.2 137.155 150.2 140.206 152.888 141.732 155.576 140.206 155.576 137.155 152.888 135.629" fill="none" stroke="#231f20" stroke-miterlimit="10" stroke-width=".539"/><polygon points="144.54 134.881 141.852 136.407 141.852 139.459 144.54 140.985 147.228 139.459 147.228 136.407 144.54 134.881" fill="none" stroke="#231f20" stroke-miterlimit="10" stroke-width=".539"/><polygon points="136.192 134.134 133.504 135.66 133.504 138.711 136.192 140.237 138.88 138.711 138.88 135.66 136.192 134.134" fill="none" stroke="#231f20" stroke-miterlimit="10" stroke-width=".539"/><polygon points="127.844 133.386 125.157 134.912 125.157 137.964 127.844 139.49 130.532 137.964 130.532 134.912 127.844 133.386" fill="none" stroke="#231f20" stroke-miterlimit="10" stroke-width=".539"/><polygon points="119.496 132.639 116.809 134.165 116.809 137.216 119.496 138.742 122.184 137.216 122.184 134.165 119.496 132.639" fill="none" stroke="#231f20" stroke-miterlimit="10" stroke-width=".539"/><polygon points="111.149 131.891 108.461 133.417 108.461 136.469 111.149 137.994 113.836 136.469 113.836 133.417 111.149 131.891" fill="none" stroke="#231f20" stroke-miterlimit="10" stroke-width=".539"/><polygon points="102.801 131.144 100.113 132.669 100.113 135.721 102.801 137.247 105.488 135.721 105.488 132.669 102.801 131.144" fill="none" stroke="#231f20" stroke-miterlimit="10" stroke-width=".539"/><polygon points="94.453 130.396 91.765 131.922 91.765 134.974 94.453 136.499 97.141 134.974 97.141 131.922 94.453 130.396" fill="none" stroke="#231f20" stroke-miterlimit="10" stroke-width=".539"/><polygon points="83.417 131.174 83.417 134.226 86.105 135.752 88.793 134.226 88.793 131.174 86.105 129.648 83.417 131.174" fill="none" stroke="#231f20" stroke-miterlimit="10" stroke-width=".539"/><path d="M241.771,106.427l-23.085,12.348s-2.416,1.611-3.49,5.1-5.905,9.395-16.374,8.59" fill="none" stroke="#231f20" stroke-miterlimit="10" stroke-width=".539"/><g clip-path="url(#e)"><polygon points="2.64 147.462 -.799 145.226 -4.291 147.376 -4.346 151.762 -.907 153.998 2.586 151.848 2.64 147.462" fill="none" stroke="#231f20" stroke-miterlimit="10" stroke-width=".539"/><polygon points="14.122 148.682 10.643 146.42 7.109 148.595 7.054 153.032 10.533 155.294 14.067 153.119 14.122 148.682" fill="none" stroke="#231f20" stroke-miterlimit="10" stroke-width=".539"/><polygon points="25.604 149.902 22.084 147.614 18.509 149.814 18.454 154.302 21.973 156.591 25.548 154.39 25.604 149.902" fill="none" stroke="#231f20" stroke-miterlimit="10" stroke-width=".539"/><polygon points="37.086 151.122 33.526 148.807 29.91 151.033 29.853 155.573 33.413 157.887 37.029 155.662 37.086 151.122" fill="none" stroke="#231f20" stroke-miterlimit="10" stroke-width=".539"/><polygon points="48.567 152.341 44.967 150.001 41.31 152.251 41.253 156.843 44.853 159.184 48.51 156.933 48.567 152.341" fill="none" stroke="#231f20" stroke-miterlimit="10" stroke-width=".539"/><polygon points="60.049 153.561 56.409 151.194 52.711 153.47 52.653 158.113 56.294 160.481 59.992 158.204 60.049 153.561" fill="none" stroke="#231f20" stroke-miterlimit="10" stroke-width=".539"/><polygon points="64.111 154.689 64.053 159.384 67.734 161.777 71.473 159.476 71.531 154.781 67.85 152.388 64.111 154.689" fill="none" stroke="#231f20" stroke-miterlimit="10" stroke-width=".539"/><polygon points="9.005 138.041 5.567 135.805 2.074 137.955 2.019 142.341 5.458 144.576 8.951 142.427 9.005 138.041" fill="none" stroke="#231f20" stroke-miterlimit="10" stroke-width=".539"/><polygon points="20.507 139.202 17.029 136.94 13.495 139.115 13.44 143.552 16.919 145.814 20.452 143.639 20.507 139.202" fill="none" stroke="#231f20" stroke-miterlimit="10" stroke-width=".539"/><polygon points="32.01 140.363 28.491 138.075 24.916 140.275 24.86 144.764 28.379 147.052 31.954 144.852 32.01 140.363" fill="none" stroke="#231f20" stroke-miterlimit="10" stroke-width=".539"/><polygon points="43.512 141.524 39.953 139.21 36.337 141.435 36.28 145.975 39.84 148.29 43.456 146.064 43.512 141.524" fill="none" stroke="#231f20" stroke-miterlimit="10" stroke-width=".539"/><polygon points="55.015 142.685 51.415 140.345 47.757 142.595 47.7 147.187 51.301 149.528 54.958 147.277 55.015 142.685" fill="none" stroke="#231f20" stroke-miterlimit="10" stroke-width=".539"/><polygon points="66.517 143.847 62.877 141.479 59.178 143.756 59.121 148.399 62.761 150.766 66.459 148.49 66.517 143.847" fill="none" stroke="#231f20" stroke-miterlimit="10" stroke-width=".539"/><polygon points="70.599 144.916 70.541 149.61 74.222 152.004 77.961 149.702 78.019 145.008 74.339 142.614 70.599 144.916" fill="none" stroke="#231f20" stroke-miterlimit="10" stroke-width=".539"/></g><polygon points="314.707 167.842 281.996 165.049 278.945 167.716 278.93 185.673 282.792 190.371 313.824 194.021 314.707 167.842" fill="none" stroke="#231f20" stroke-linecap="round" stroke-linejoin="round" stroke-width=".539"/><polyline points="314.75 167.869 322.018 171.728 321.565 197.565 313.824 194.021" fill="none" stroke="#231f20" stroke-linecap="round" stroke-linejoin="round" stroke-width=".539"/><polyline points="315.04 167.634 316.77 165.86 284.059 163.067 281.008 165.913" fill="none" stroke="#231f20" stroke-linecap="round" stroke-linejoin="round" stroke-width=".539"/><polyline points="316.708 165.838 324.081 169.925 323.729 196.224 321.852 197.476" fill="none" stroke="#231f20" stroke-linecap="round" stroke-linejoin="round" stroke-width=".539"/><line x1="321.867" y1="171.889" x2="324.081" y2="169.925" fill="none" stroke="#231f20" stroke-linecap="round" stroke-linejoin="round" stroke-width=".539"/><polyline points="281.976 163.574 282.169 160.699 335.751 165.676 335.538 195.947 324.087 194.615" fill="none" stroke="#231f20" stroke-linecap="round" stroke-linejoin="round" stroke-width=".539"/><path d="M225.813,182.321c.355,1.714-.399,3.171-1.682,3.255s-2.612-1.238-2.967-2.952.399-3.171,1.682-3.255,2.612,1.238,2.967,2.952Z" fill="#231f20"/><path d="M286.301,186.11c.255,1.234-.287,2.283-1.211,2.343s-1.88-.891-2.135-2.125.287-2.283,1.211-2.343,1.88.891,2.135,2.125Z" fill="#231f20"/><path d="M206.162,179.9c.355,1.714-.399,3.171-1.682,3.255s-2.612-1.238-2.967-2.952.399-3.171,1.682-3.255,2.612,1.238,2.967,2.952Z" fill="#231f20"/><path d="M186.731,177.464c.355,1.714-.399,3.171-1.682,3.255s-2.612-1.238-2.967-2.952.399-3.171,1.682-3.255,2.612,1.238,2.967,2.952Z" fill="#231f20"/><path d="M143.918,171.131c.282,1.364-.317,2.523-1.339,2.59s-2.078-.985-2.361-2.349.317-2.523,1.339-2.59,2.078.985,2.361,2.349Z" fill="none" stroke="#231f20" stroke-linecap="round" stroke-linejoin="round" stroke-width=".539"/><path d="M107.372,167.065c.282,1.364-.317,2.523-1.339,2.59s-2.078-.985-2.361-2.349.317-2.523,1.339-2.59,2.078.985,2.361,2.349Z" fill="#231f20"/></g></g><g id="f"><polygon points="154.358 177.907 123.36 183.478 119.158 174.167 127.752 174.975 138.325 169.355 157.801 171.419 146.707 177.105 154.358 177.907" fill="#fff" stroke="#fff"/><polygon points="152.017 177.792 126.215 182.43 122.717 174.668 129.86 175.341 139.456 170.261 154.915 171.905 144.621 177.012 152.017 177.792" fill="#010101"/><polygon points="143.695 162.318 174.714 156.745 178.919 166.059 170.328 165.258 159.727 170.871 140.276 168.802 151.348 163.129 143.695 162.318" fill="#fff" stroke="#fff"/><polygon points="146.031 162.436 171.866 157.799 175.427 165.609 168.213 164.888 158.595 169.975 143.946 168.408 153.433 163.226 146.031 162.436" fill="#010101"/><polygon points="284.232 181.415 284.446 172.01 302.34 173.844 302.419 169.104 311.11 178.888 302.112 187.865 302.184 183.271 284.232 181.415" fill="#231f20"/><line x1="318.313" y1="208.178" x2="306.84" y2="189.404" fill="none" stroke="#fff" stroke-miterlimit="10" stroke-width="3"/><line x1="318.313" y1="208.178" x2="306.84" y2="189.404" fill="none" stroke="#231f20" stroke-linecap="round" stroke-linejoin="round" stroke-width=".5"/><path d="M342.92,220.813c0,7.593-6.246,13.745-13.95,13.745s-13.953-6.152-13.953-13.745,6.246-13.755,13.953-13.755,13.95,6.159,13.95,13.755" fill="#231f20" stroke="#fff" stroke-miterlimit="10" stroke-width="1.5"/><rect x="314.776" y="212.756" width="27.228" height="24.791" fill="none"/><path d="M330.375,227.792h-1.846v-11.761c-.444.424-1.027.848-1.749,1.271-.721.424-1.368.742-1.942.954v-1.784c1.032-.485,1.935-1.073,2.707-1.764s1.319-1.36,1.641-2.01h1.189v15.094Z" fill="#fff"/><path d="M151.531,147.384c0,7.593-6.246,13.745-13.95,13.745s-13.953-6.152-13.953-13.745,6.246-13.755,13.953-13.755,13.95,6.159,13.95,13.755" fill="#231f20" stroke="#fff" stroke-miterlimit="10" stroke-width="1.5"/><rect x="123.388" y="139.327" width="27.228" height="24.791" fill="none"/><path d="M141.734,152.589v1.774h-9.936c-.014-.444.058-.872.215-1.282.253-.677.658-1.343,1.215-2,.557-.656,1.362-1.415,2.415-2.276,1.634-1.34,2.738-2.401,3.312-3.184s.861-1.523.861-2.22c0-.731-.262-1.348-.784-1.851-.523-.502-1.205-.753-2.046-.753-.889,0-1.6.267-2.133.8s-.803,1.271-.81,2.215l-1.897-.195c.13-1.415.619-2.493,1.466-3.235.848-.741,1.986-1.112,3.415-1.112,1.442,0,2.584.4,3.425,1.2s1.261,1.791,1.261,2.974c0,.602-.123,1.193-.369,1.774s-.655,1.193-1.225,1.835c-.571.643-1.52,1.524-2.846,2.646-1.107.93-1.818,1.561-2.133,1.892s-.574.665-.779,1h7.373Z" fill="#fff"/></g></svg>