<?xml version="1.0" encoding="UTF-8"?><svg xmlns="http://www.w3.org/2000/svg" width="616.223" height="252.551" viewBox="0 0 616.223 252.551"><g id="a"><path d="M14.63,99.597l2.51.29,2.607-3.379,11.876,2.221-.097,53.009-1.545,2.124-16.125,8.304-5.504-.966v-50.788s-.097-3.09,1.448-4.635,4.828-6.18,4.828-6.18Z" fill="#ee7623" stroke-width="0"/><path d="M261.719,98.479l2.51.29,2.607-3.379,11.876,2.221-.097,53.009-1.545,2.124-4.481,2.937-11.206,5.891-5.802-1.107-.14-51.17s-.097-3.09,1.448-4.635,4.828-6.18,4.828-6.18Z" fill="#ee7623" stroke-width="0"/><path d="M402.891,98.564l2.51.29,2.607-3.379,11.876,2.221-.097,53.009-1.545,2.124-4.481,2.937-11.206,5.891-5.802-1.107-.14-51.17s-.097-3.09,1.448-4.635,4.828-6.18,4.828-6.18Z" fill="#ee7623" stroke-width="0"/><path d="M543.701,110l.023-12.381-11.876-2.221-2.607,3.379-2.51-.29s-3.283,4.635-4.828,6.18-1.448,4.635-1.448,4.635l.026,9.422s1.418-.943,2.14-2.12,5.545-7.483,5.545-7.483c0,0,.646-1.823,3.039-1.367l12.497,2.246Z" fill="#ee7623" stroke-width="0"/><path d="M111.338,99.597l2.51.29,2.607-3.379,11.876,2.221-.097,53.009-2.373,3.29-2.123,1.775-1.428-.077-11.309,5.79-5.941-1.316v-50.788s-.097-3.09,1.448-4.635,4.828-6.18,4.828-6.18Z" fill="#ee7623" stroke-width="0"/><path d="M417.528,183.966l52.255,8.853.184,16.353s-1.414,1.168-4.119.553l-54.837-9.898s-2.521-1.045-2.459-2.521l.184-4.611s.184,2.213,3.197,2.889,3.996.676,3.996.676c0,0,2.705-.184,2.275-2.275l-.738-.307.061-9.713ZM461.319,193.869c-2.393-1.368-5.236-.897-6.351,1.053s-.079,4.639,2.314,6.007,5.236.897,6.351-1.053.079-4.639-2.314-6.007Z" fill="#ee7623" stroke-width="0"/><path d="M276.367,183.939l52.255,8.853.184,16.353s-1.414,1.168-4.119.553l-54.837-9.898s-2.521-1.045-2.459-2.521l.184-4.611s.184,2.213,3.197,2.889c3.012.676,3.996.676,3.996.676,0,0,2.705-.184,2.275-2.275l-.738-.307.061-9.713ZM320.158,193.841c-2.393-1.368-5.236-.897-6.351,1.053s-.079,4.639,2.314,6.007,5.236.897,6.351-1.053.079-4.639-2.314-6.007Z" fill="#ee7623" stroke-width="0"/><path d="M146.935,156.47l52.255,8.853.184,16.353s-1.414,1.168-4.119.553l-54.837-9.898s-2.521-1.045-2.459-2.521l.184-4.611s.184,2.213,3.197,2.889,3.996.676,3.996.676c0,0,2.705-.184,2.275-2.275l-.738-.307.061-9.713ZM190.726,166.373c-2.393-1.368-5.236-.897-6.351,1.053s-.079,4.639,2.314,6.007,5.236.897,6.351-1.053.079-4.639-2.314-6.007Z" fill="#ee7623" stroke-width="0"/><path d="M511.843,126.643l17.312,3.447.114,48.33s.1,2.147.999,2.397l-4.594-.799s-1.598-.749-1.348-3.445l.15-2.347s-.849-1.947-1.897-2.147-9.087-1.598-9.087-1.598c0,0-1.698.3-1.548-2.946s-.1-40.893-.1-40.893ZM520.069,130.024c-2.537-1.107-5.382-.199-6.354,2.028s.296,4.931,2.833,6.039c2.537,1.107,5.382.199,6.354-2.028.972-2.228-.296-4.931-2.833-6.039Z" fill="#ee7623" stroke-width="0"/><polygon points="31.569 101.17 38.149 102.403 38.149 153.087 31.527 151.736 31.569 101.17" fill="#ee7623" stroke-width="0"/></g><g id="b"><line x1="206.43" y1="151.776" x2="206.765" y2="151.837" fill="none" stroke="#2d2a26" stroke-miterlimit="2" stroke-width="1.211"/><line x1="206.42" y1="151.775" x2="206.432" y2="151.775" fill="none" stroke="#2d2a26" stroke-miterlimit="2" stroke-width="1.211"/><polyline points="186.56 111.705 186.564 111.696 186.588 111.664 186.609 111.632 186.629 111.6 186.641 111.571 186.657 111.535 186.669 111.503 186.681 111.466 186.693 111.43 186.701 111.398 186.705 111.361 186.713 111.329 186.713 111.297 186.713 111.264" fill="none" stroke="#2d2a26" stroke-miterlimit="2" stroke-width="1.211"/><path d="M175.212,54.867c-1.505,1.08-3.435.687-3.435.687,0,0-4.122-.851-6.019-1.21s-1.668-1.08-1.668-1.08c.196-1.21,2.552-.981,2.552-.981,0,0-2.911-.883-2.388-2.486s1.767-1.276,1.767-1.276l6.498,1.203s2.976.322,2.9,3.38l.218,77.965-9.766,13.497" fill="none" stroke="#2d2a26" stroke-miterlimit="10" stroke-width=".6"/><line x1="175.301" y1="52.301" x2="192.852" y2="28.309" fill="none" stroke="#2d2a26" stroke-miterlimit="10" stroke-width=".6"/><path d="M185.517,105.697l1.148,1.428v4.429s-7.956,11.261-7.956,11.261c0,0-.991,1.982-2.973,1.982" fill="none" stroke="#2d2a26" stroke-linecap="round" stroke-linejoin="round" stroke-width=".6"/><path d="M164.032,53.286v25.408s.074.522,1.629.792c1.555.27,6.458,1.127,6.458,1.127,0,0,2.031.206,3.078-.778" fill="none" stroke="#2d2a26" stroke-miterlimit="10" stroke-width=".6"/><path d="M164.678,79.275s-1.059,1.589-.927,5.163v20.604" fill="none" stroke="#2d2a26" stroke-miterlimit="10" stroke-width=".6"/><path d="M192.17,100.238l-4.779,6.528v-3.88l-11.54,16.284-.462-.853-10.314,14.102s-.326.874-1.45.744c-1.124-.13-5.059-.908-5.059-.908,0,0-1.297-.476-1.124-1.6" fill="none" stroke="#2d2a26" stroke-linecap="round" stroke-linejoin="round" stroke-width=".6"/><path d="M173.224,80.667s.282,24.055.307,35.113" fill="none" stroke="#2d2a26" stroke-linecap="round" stroke-linejoin="round" stroke-width=".6"/><polyline points="128.211 151.827 128.211 98.7 116.269 96.472 113.844 99.988 111.48 99.503" fill="none" stroke="#2d2a26" stroke-linecap="round" stroke-linejoin="round" stroke-width=".6"/><path d="M137.894,156.422l-3.334,2.613s-1.362-3.837-5.136-4.235-5.649,2.058-5.649,2.058l-1.655-.265v2.505l1.192,2.251s4.237,7.48,10.459,3.244l1.059-1.522,2.78-1.38" fill="none" stroke="#2d2a26" stroke-linecap="round" stroke-linejoin="round" stroke-width=".6"/><line x1="121.975" y1="90.831" x2="117.559" y2="96.565" fill="none" stroke="#2d2a26" stroke-linecap="round" stroke-linejoin="round" stroke-width=".6"/><line x1="126.09" y1="154.676" x2="128.211" y2="151.827" fill="none" stroke="#2d2a26" stroke-linecap="round" stroke-linejoin="round" stroke-width=".6"/><path d="M125.376,81.585l-19.377,24.826s-1.066,1.024-1.066,4.819l.102,50.311,5.778,1.016,11.158-5.409" fill="none" stroke="#2d2a26" stroke-linecap="round" stroke-linejoin="round" stroke-width=".6"/><path d="M111.609,99.224l-5.609,7.186s-1.066,1.024-1.066,4.819l.102,50.311,5.778,1.016,11.158-5.409" fill="none" stroke="#2d2a26" stroke-linecap="round" stroke-linejoin="round" stroke-width=".6"/><path d="M128.211,98.7c-.618,2.349-2.695,3.253-2.695,3.253l-13.072,6.204s-2.65.723-2.229,4.217v50.07" fill="none" stroke="#2d2a26" stroke-linecap="round" stroke-linejoin="round" stroke-width=".6"/><line x1="105.277" y1="110.205" x2="109.975" y2="110.989" fill="none" stroke="#2d2a26" stroke-linecap="round" stroke-linejoin="round" stroke-width=".6"/><line x1="125.604" y1="108.763" x2="125.604" y2="150.81" fill="none" stroke="#2d2a26" stroke-linecap="round" stroke-linejoin="round" stroke-width=".75"/><line x1="122.795" y1="115.232" x2="122.795" y2="148.257" fill="none" stroke="#2d2a26" stroke-linecap="round" stroke-linejoin="round" stroke-width=".75"/><line x1="119.561" y1="121.786" x2="119.561" y2="144.426" fill="none" stroke="#2d2a26" stroke-linecap="round" stroke-linejoin="round" stroke-width=".75"/><line x1="115.816" y1="127.148" x2="115.816" y2="140.852" fill="none" stroke="#2d2a26" stroke-linecap="round" stroke-linejoin="round" stroke-width=".75"/><line x1="112.837" y1="132.851" x2="112.837" y2="137.362" fill="none" stroke="#2d2a26" stroke-linecap="round" stroke-linejoin="round" stroke-width=".75"/><path d="M128.434,142.277l30.903-43.108s1.667-.859,2.073,1.843.18,3.874.18,3.874" fill="none" stroke="#2d2a26" stroke-linecap="round" stroke-linejoin="round" stroke-width=".6"/><polyline points="167.377 104.641 167.377 100.749 171.634 101.533 171.634 83.831 172.119 80.612" fill="none" stroke="#2d2a26" stroke-linecap="round" stroke-linejoin="round" stroke-width=".6"/><line x1="167.308" y1="104.917" x2="170.029" y2="101.356" fill="none" stroke="#2d2a26" stroke-linecap="round" stroke-linejoin="round" stroke-width=".6"/><polyline points="167.742 106.181 171.992 106.843 173.067 105.207" fill="none" stroke="#2d2a26" stroke-linecap="round" stroke-linejoin="round" stroke-width=".6"/><line x1="157.852" y1="101.244" x2="161.378" y2="101.882" fill="none" stroke="#2d2a26" stroke-linecap="round" stroke-linejoin="round" stroke-width=".6"/><path d="M173.125,37.376l-2.558-9.261-4.596-.865s-3.785,1.514-3.406,7.218l.162,4.461s-.162,2.055-.865,3.758c-.554,1.343-1.838,5.191-1.838,5.191" fill="none" stroke="#2d2a26" stroke-linecap="round" stroke-linejoin="round" stroke-width=".6"/><path d="M169.869,28.043c-1.047.693-2.826,2.755-2.673,6.671l.162,4.461s-.162,2.055-.865,3.758c-.554,1.343-1.838,5.191-1.838,5.191" fill="none" stroke="#2d2a26" stroke-linecap="round" stroke-linejoin="round" stroke-width=".6"/><path d="M162.582,37.923l-32.797,44.832s-4.008,5.472-3.883,15.494" fill="none" stroke="#2d2a26" stroke-linecap="round" stroke-linejoin="round" stroke-width=".6"/><path d="M171.594,30.294l6.877,1.32-1.598,2.362s-1.25-.278-2.431,1.598-9.17,12.852-9.17,12.852" fill="none" stroke="#2d2a26" stroke-linecap="round" stroke-linejoin="round" stroke-width=".6"/><path d="M164.647,48.912l-6.498-1.053s-2.018.44-2.199,3.156l-.543,5.355,8.554,21.022" fill="none" stroke="#2d2a26" stroke-linecap="round" stroke-linejoin="round" stroke-width=".6"/><path d="M162.541,48.79s-2.018.44-2.199,3.156l-.543,5.355,4.022,9.884" fill="none" stroke="#2d2a26" stroke-linecap="round" stroke-linejoin="round" stroke-width=".6"/><path d="M128.344,144.529s5.316-2.883,11.623,1.982" fill="none" stroke="#2d2a26" stroke-linecap="round" stroke-linejoin="round" stroke-width=".6"/><path d="M128.435,150.15c.847-1.011,3.253-3.009,7.927-.846l2.343-1.081c-4.028-3.808-8.592-2.676-10.159-2.118" fill="none" stroke="#2d2a26" stroke-linecap="round" stroke-linejoin="round" stroke-width=".6"/><path d="M150.508,153.417v-5.103l-1.712-1.892-5.316-1.171-2.613.991-2.883,4.054-.09,20.092s.27,1.622,2.883,2.162,54.443,9.87,54.443,9.87c0,0,3.13,1.302,5.562-2.212,2.433-3.514,9.28-12.704,9.28-12.704v-12.794s-.45-2.523-2.072-2.703-58.474-10.271-58.474-10.271" fill="none" stroke="#2d2a26" stroke-linecap="round" stroke-linejoin="round" stroke-width=".6"/><polyline points="146.807 166.36 146.776 156.285 148.947 153.246 199.995 162.454 200.985 163.556 209.304 153.009" fill="none" stroke="#2d2a26" stroke-linecap="round" stroke-linejoin="round" stroke-width=".6"/><path d="M198.693,162.345c-.76,3.364-4.341,2.279-4.341,2.279l-47.359-8.231" fill="none" stroke="#2d2a26" stroke-linecap="round" stroke-linejoin="round" stroke-width=".6"/><line x1="199.236" y1="181.878" x2="199.236" y2="165.926" fill="none" stroke="#2d2a26" stroke-linecap="round" stroke-linejoin="round" stroke-width=".6"/><path d="M138.142,164.949l9.441,1.628s.527,2.713-2.589,2.202l-4.124-.76s-2.837-.248-2.728-3.07Z" fill="none" stroke="#2d2a26" stroke-linecap="round" stroke-linejoin="round" stroke-width=".6"/><line x1="156.722" y1="103.048" x2="156.722" y2="108.499" fill="none" stroke="#2d2a26" stroke-linecap="round" stroke-linejoin="round" stroke-width=".6"/><path d="M151.077,111.128s4.214-4.6,11.636-1.701c0,0,4.076,1.436,6.174,5.55l-22.434,30.633" fill="none" stroke="#2d2a26" stroke-linecap="round" stroke-linejoin="round" stroke-width=".6"/><path d="M154.804,142.719l3.546-4.583s1.254-2.551.995-5.751" fill="none" stroke="#2d2a26" stroke-linecap="round" stroke-linejoin="round" stroke-width=".6"/><path d="M161.333,143.886l3.546-4.583s1.513-4.886.303-6.659" fill="none" stroke="#2d2a26" stroke-linecap="round" stroke-linejoin="round" stroke-width=".6"/><ellipse cx="188.7" cy="169.998" rx="4.066" ry="4.991" transform="translate(-52.542 249.43) rotate(-60.24)" fill="none" stroke="#2d2a26" stroke-linecap="round" stroke-linejoin="round" stroke-width=".6"/><path d="M157.19,107.06s4.323-3.517,9.819-1.172,5.203,9.599,5.203,9.599" fill="none" stroke="#2d2a26" stroke-linecap="round" stroke-linejoin="round" stroke-width=".6"/><line x1="168.888" y1="114.977" x2="175.216" y2="116.22" fill="none" stroke="#2d2a26" stroke-linecap="round" stroke-linejoin="round" stroke-width=".6"/><line x1="171.992" y1="106.843" x2="171.992" y2="112.814" fill="none" stroke="#2d2a26" stroke-miterlimit="10" stroke-width=".6"/><path d="M121.724,97.444s.138-10.609,2.894-14.744l37.813-49.884" fill="none" stroke="#2d2a26" stroke-linecap="round" stroke-linejoin="round" stroke-width=".6"/><line x1="134.561" y1="159.035" x2="137.905" y2="159.797" fill="none" stroke="#2d2a26" stroke-linecap="round" stroke-linejoin="round" stroke-width=".6"/><line x1="134.561" y1="163.797" x2="137.801" y2="164.3" fill="none" stroke="#2d2a26" stroke-linecap="round" stroke-linejoin="round" stroke-width=".6"/><path d="M295.328,171.943l9.97-13.959.019-12.084c.118-2.831-2.477-2.713-2.477-2.713l-4.494-.834" fill="none" stroke="#2d2a26" stroke-linecap="round" stroke-linejoin="round" stroke-width=".6"/><line x1="325.884" y1="51.241" x2="343.435" y2="27.249" fill="none" stroke="#2d2a26" stroke-miterlimit="10" stroke-width=".6"/><path d="M314.385,124.858l2.366-3.272,9.483,1.649c1.982,0,2.973-1.982,2.973-1.982l7.956-11.261v-4.429s-1.148-1.428-1.148-1.428" fill="none" stroke="#2d2a26" stroke-linecap="round" stroke-linejoin="round" stroke-width=".6"/><path d="M325.781,78.774c-1.047.984-3.078.778-3.078.778,0,0-4.903-.857-6.458-1.127-1.555-.27-1.629-.792-1.629-.792l-.043-25.059s.355-1.495,2.534-1.293c0,0-2.771-.639-2.078-2.889.406-1.318,1.834-.869,1.834-.869l6.77,1.258c2.816.659,2.217,5.032,2.217,5.032l.434,63.637" fill="none" stroke="#2d2a26" stroke-linecap="round" stroke-linejoin="round" stroke-width=".6"/><path d="M321.628,127.615l-4.779,6.528v-3.88l-11.54,16.284-.462-.853-10.314,14.102s-.326.874-1.45.744c-1.124-.13-5.059-.908-5.059-.908,0,0-1.297-.476-1.124-1.6" fill="none" stroke="#2d2a26" stroke-linecap="round" stroke-linejoin="round" stroke-width=".6"/><path d="M323.807,79.607s.148,26.337.173,37.395l2.304.448,11.648-15.615.192,2.88" fill="none" stroke="#2d2a26" stroke-linecap="round" stroke-linejoin="round" stroke-width=".6"/><path d="M267.353,183.799l-3.334,2.613s-1.362-3.837-5.136-4.235c-3.773-.397-5.649,2.058-5.649,2.058l-1.655-.265v2.505l1.192,2.251s4.237,7.48,10.459,3.244l1.059-1.522,2.78-1.38" fill="none" stroke="#2d2a26" stroke-linecap="round" stroke-linejoin="round" stroke-width=".6"/><line x1="273.501" y1="88.251" x2="268.142" y2="95.504" fill="none" stroke="#2d2a26" stroke-linecap="round" stroke-linejoin="round" stroke-width=".6"/><path d="M278.947,150.241l-.152-52.601-11.942-2.229-2.425,3.516-2.657-.608-5.188,7.031s-1.066,1.024-1.066,4.819l.102,50.311,5.778,1.016,10.909-5.657,4.974-3.336,1.668-2.263Z" fill="none" stroke="#2d2a26" stroke-linecap="round" stroke-linejoin="round" stroke-width=".6"/><path d="M278.794,97.64c-.618,2.349-2.695,3.253-2.695,3.253l-13.072,6.204s-2.65.723-2.229,4.217v50.07" fill="none" stroke="#2d2a26" stroke-linecap="round" stroke-linejoin="round" stroke-width=".6"/><line x1="255.86" y1="109.145" x2="260.558" y2="109.928" fill="none" stroke="#2d2a26" stroke-linecap="round" stroke-linejoin="round" stroke-width=".6"/><line x1="276.187" y1="107.703" x2="276.187" y2="149.75" fill="none" stroke="#2d2a26" stroke-linecap="round" stroke-linejoin="round" stroke-width=".75"/><line x1="273.378" y1="114.172" x2="273.378" y2="147.196" fill="none" stroke="#2d2a26" stroke-linecap="round" stroke-linejoin="round" stroke-width=".75"/><line x1="270.144" y1="120.726" x2="270.144" y2="143.366" fill="none" stroke="#2d2a26" stroke-linecap="round" stroke-linejoin="round" stroke-width=".75"/><line x1="266.399" y1="126.088" x2="266.399" y2="139.791" fill="none" stroke="#2d2a26" stroke-linecap="round" stroke-linejoin="round" stroke-width=".75"/><line x1="263.42" y1="131.791" x2="263.42" y2="136.302" fill="none" stroke="#2d2a26" stroke-linecap="round" stroke-linejoin="round" stroke-width=".75"/><line x1="279.017" y1="141.217" x2="293.287" y2="121.134" fill="none" stroke="#2d2a26" stroke-linecap="round" stroke-linejoin="round" stroke-width=".6"/><path d="M319.166,29.4l-4.596-.865s-3.391,1.38-3.81,7.138" fill="none" stroke="#2d2a26" stroke-linecap="round" stroke-linejoin="round" stroke-width=".6"/><path d="M309.522,41.283l-29.154,41.178s-4.008,4.706-3.883,14.727" fill="none" stroke="#2d2a26" stroke-linecap="round" stroke-linejoin="round" stroke-width=".6"/><path d="M316.144,46.804s7.7-10.415,8.881-12.29,2.431-1.598,2.431-1.598l1.598-2.362-3.761-.742-3.757-.741-2.097,1.857v7.548l2.217.3" fill="none" stroke="#2d2a26" stroke-linecap="round" stroke-linejoin="round" stroke-width=".6"/><path d="M269.425,173.888c-6.307-4.865-11.945-2.071-11.945-2.071,0,0-5.24,1.37-4.526,9.111" fill="none" stroke="#2d2a26" stroke-linecap="round" stroke-linejoin="round" stroke-width=".6"/><path d="M253.806,179.825s-.239-7.571,8.715-7.076c0,0,3.558.306,5.822,2.672l-2.343,1.081c-6.037-2.793-8.289,1.351-8.289,1.351l-.648,1.467-1.727-.357-3.756,5.007" fill="none" stroke="#2d2a26" stroke-linecap="round" stroke-linejoin="round" stroke-width=".6"/><path d="M279.967,180.794v-5.103l-1.712-1.892-5.316-1.171-2.613.991-2.883,4.054-.09,20.092s.27,1.622,2.883,2.162c2.613.541,54.443,9.87,54.443,9.87,0,0,3.13,1.302,5.562-2.212s9.28-12.704,9.28-12.704v-12.794s-.45-2.523-2.072-2.703-58.474-10.271-58.474-10.271" fill="none" stroke="#2d2a26" stroke-linecap="round" stroke-linejoin="round" stroke-width=".6"/><polyline points="276.266 193.737 276.235 183.662 278.405 180.623 329.454 189.83 330.444 190.932 338.762 180.385" fill="none" stroke="#2d2a26" stroke-linecap="round" stroke-linejoin="round" stroke-width=".6"/><path d="M328.152,189.722c-.76,3.364-4.341,2.279-4.341,2.279l-47.359-8.231" fill="none" stroke="#2d2a26" stroke-linecap="round" stroke-linejoin="round" stroke-width=".6"/><line x1="328.694" y1="209.254" x2="328.694" y2="193.303" fill="none" stroke="#2d2a26" stroke-linecap="round" stroke-linejoin="round" stroke-width=".6"/><path d="M267.601,192.326l9.441,1.628s.527,2.713-2.589,2.202l-4.124-.76s-2.837-.248-2.728-3.07Z" fill="none" stroke="#2d2a26" stroke-linecap="round" stroke-linejoin="round" stroke-width=".6"/><path d="M280.536,138.504s4.214-4.6,11.636-1.701c0,0,4.076,1.436,6.174,5.55l-22.434,30.633" fill="none" stroke="#2d2a26" stroke-linecap="round" stroke-linejoin="round" stroke-width=".6"/><path d="M284.263,170.095l3.546-4.583s1.254-2.551.995-5.751" fill="none" stroke="#2d2a26" stroke-linecap="round" stroke-linejoin="round" stroke-width=".6"/><path d="M290.792,171.263l3.546-4.583s1.513-4.886.303-6.659" fill="none" stroke="#2d2a26" stroke-linecap="round" stroke-linejoin="round" stroke-width=".6"/><ellipse cx="318.159" cy="197.375" rx="4.066" ry="4.991" transform="translate(-11.108 375.603) rotate(-60.24)" fill="none" stroke="#2d2a26" stroke-linecap="round" stroke-linejoin="round" stroke-width=".6"/><path d="M272.307,96.383s.138-8.27,2.894-12.405l35.487-49.412" fill="none" stroke="#2d2a26" stroke-linecap="round" stroke-linejoin="round" stroke-width=".6"/><line x1="264.019" y1="186.412" x2="267.363" y2="187.174" fill="none" stroke="#2d2a26" stroke-linecap="round" stroke-linejoin="round" stroke-width=".6"/><line x1="264.019" y1="191.174" x2="267.26" y2="191.677" fill="none" stroke="#2d2a26" stroke-linecap="round" stroke-linejoin="round" stroke-width=".6"/><line x1="255.693" y1="172.591" x2="264.864" y2="160.205" fill="none" stroke="#2d2a26" stroke-linecap="round" stroke-linejoin="round" stroke-width=".6"/><path d="M304.197,142.893l10.025-13.622v-15.745s.234-9.551,3.807-10.22c0,0,.852.254.911,3.498v15.155" fill="none" stroke="#2d2a26" stroke-linecap="round" stroke-linejoin="round" stroke-width=".6"/><path d="M293.228,131.748v-18.045s-.413-6.133,2.418-9.848l18.969-26.223" fill="none" stroke="#2d2a26" stroke-linecap="round" stroke-linejoin="round" stroke-width=".6"/><line x1="316.668" y1="104.504" x2="316.752" y2="121.586" fill="none" stroke="#2d2a26" stroke-linecap="round" stroke-linejoin="round" stroke-width=".6"/><line x1="337.164" y1="106.074" x2="342.603" y2="98.955" fill="none" stroke="#2d2a26" stroke-linecap="round" stroke-linejoin="round" stroke-width=".6"/><polyline points="262.713 98.375 287.208 64.459 288.569 64.145" fill="none" stroke="#2d2a26" stroke-linecap="round" stroke-linejoin="round" stroke-width=".6"/><line x1="310.761" y1="35.672" x2="301.444" y2="95.13" fill="none" stroke="#2d2a26" stroke-linecap="round" stroke-linejoin="round" stroke-width=".6"/><path d="M319.166,29.4s-2.753,1.562-3.695,7.738l-7.432,49.095" fill="none" stroke="#2d2a26" stroke-linecap="round" stroke-linejoin="round" stroke-width=".6"/><line x1="322.315" y1="37.459" x2="325.293" y2="29.812" fill="none" stroke="#2d2a26" stroke-linecap="round" stroke-linejoin="round" stroke-width=".6"/><path d="M314.811,53.244l7.618,1.327s2.319.451,3.42-.757" fill="none" stroke="#2d2a26" stroke-linecap="round" stroke-linejoin="round" stroke-width=".6"/><path d="M323.51,85.207l-15.165,20.672s-1.864,2.118-1.694,5.93,2.542.678,2.542.678l14.487-20.079" fill="none" stroke="#2d2a26" stroke-linecap="round" stroke-linejoin="round" stroke-width=".6"/><path d="M286.168,135.8s2.72-6.237,10.235-2.626c6.912,3.322,5.091,9.324,5.091,9.324" fill="none" stroke="#2d2a26" stroke-linecap="round" stroke-linejoin="round" stroke-width=".6"/><path d="M301.483,129.093l2.049-2.821,2.863.457-.133,1.57-4.501,5.948-4.769-1.232-.054-4.715,4.545.794-.169-15.08c.085-4.49,1.779-7.879,1.779-7.879l19.61-26.582" fill="none" stroke="#2d2a26" stroke-linecap="round" stroke-linejoin="round" stroke-width=".6"/><line x1="301.6" y1="138.747" x2="301.386" y2="134.407" fill="none" stroke="#2d2a26" stroke-linecap="round" stroke-linejoin="round" stroke-width=".6"/><line x1="319.468" y1="121.855" x2="323.742" y2="116.115" fill="none" stroke="#2d2a26" stroke-linecap="round" stroke-linejoin="round" stroke-width=".6"/><line x1="590.742" y1="51.241" x2="608.292" y2="27.249" fill="none" stroke="#000" stroke-miterlimit="10" stroke-width=".6"/><path d="M579.242,124.858l2.366-3.272,9.483,1.649c1.982,0,2.973-1.982,2.973-1.982l7.956-11.261v-4.429s-1.148-1.428-1.148-1.428" fill="none" stroke="#000" stroke-linecap="round" stroke-linejoin="round" stroke-width=".6"/><path d="M590.638,78.774c-1.047.984-3.078.778-3.078.778,0,0-4.903-.857-6.458-1.127-1.555-.27-1.629-.792-1.629-.792l-.043-25.059s.355-1.495,2.534-1.293c0,0-2.771-.639-2.078-2.889.406-1.318,1.834-.869,1.834-.869l6.77,1.258c2.816.659,2.217,5.032,2.217,5.032l.434,63.637" fill="none" stroke="#000" stroke-linecap="round" stroke-linejoin="round" stroke-width=".6"/><path d="M588.664,79.607s.148,26.337.173,37.395l2.304.448,11.648-15.615.192,2.88" fill="none" stroke="#000" stroke-linecap="round" stroke-linejoin="round" stroke-width=".6"/><path d="M512.024,164.809l-3.54.843-2.192,2.866.084,5.395,2.697,3.035,26.048,4.805.169,2.95-3.363,4.364-2.78,1.38-1.059,1.522c-6.222,4.237-10.459-3.244-10.459-3.244l-1.192-2.251v-2.505l1.655.265s1.801-2.627,5.574-2.23c3.773.397,5.211,4.407,5.211,4.407" fill="none" stroke="#000" stroke-linecap="round" stroke-linejoin="round" stroke-width=".6"/><line x1="538.358" y1="88.251" x2="532.999" y2="95.504" fill="none" stroke="#000" stroke-linecap="round" stroke-linejoin="round" stroke-width=".6"/><path d="M543.687,110.095l-.036-12.455-11.942-2.229-2.425,3.516-2.657-.608-5.188,7.031s-1.066,1.024-1.066,4.819l-.008,8.164" fill="none" stroke="#2d2a26" stroke-linecap="round" stroke-linejoin="round" stroke-width=".6"/><path d="M543.651,97.64c-.618,2.349-2.695,3.253-2.695,3.253l-13.072,6.204s-2.65.723-2.229,4.217" fill="none" stroke="#2d2a26" stroke-linecap="round" stroke-linejoin="round" stroke-width=".6"/><line x1="520.717" y1="109.145" x2="525.415" y2="109.928" fill="none" stroke="#2d2a26" stroke-linecap="round" stroke-linejoin="round" stroke-width=".6"/><line x1="551.435" y1="130.442" x2="558.144" y2="121.134" fill="none" stroke="#000" stroke-linecap="round" stroke-linejoin="round" stroke-width=".6"/><path d="M584.023,29.4l-4.596-.865s-3.391,1.38-3.81,7.138" fill="none" stroke="#000" stroke-linecap="round" stroke-linejoin="round" stroke-width=".6"/><path d="M574.38,41.283l-29.154,41.178s-4.008,4.706-3.883,14.727" fill="none" stroke="#000" stroke-linecap="round" stroke-linejoin="round" stroke-width=".6"/><path d="M581.002,46.804s7.7-10.415,8.881-12.29,2.431-1.598,2.431-1.598l1.598-2.362-3.761-.742-3.757-.741-2.097,1.857v7.548l2.217.3" fill="none" stroke="#000" stroke-linecap="round" stroke-linejoin="round" stroke-width=".6"/><polyline points="516.437 183.97 519.377 180.192 521.138 181.878" fill="none" stroke="#000" stroke-linecap="round" stroke-linejoin="round" stroke-width=".6"/><path d="M537.164,96.383s.138-8.27,2.894-12.405l35.487-49.412" fill="none" stroke="#000" stroke-linecap="round" stroke-linejoin="round" stroke-width=".6"/><polyline points="528.876 186.412 531.332 186.175 534.617 181.668" fill="none" stroke="#000" stroke-linecap="round" stroke-linejoin="round" stroke-width=".6"/><path d="M583.796,121.959v-15.155c-.059-3.243-.911-3.498-.911-3.498-3.573.669-3.807,10.22-3.807,10.22v15.745l-12.363,16.927-1.81-.467" fill="none" stroke="#000" stroke-linecap="round" stroke-linejoin="round" stroke-width=".6"/><path d="M558.085,131.748v-18.045s-.413-6.133,2.418-9.848l18.969-26.223" fill="none" stroke="#000" stroke-linecap="round" stroke-linejoin="round" stroke-width=".6"/><line x1="581.525" y1="104.504" x2="581.609" y2="121.586" fill="none" stroke="#000" stroke-linecap="round" stroke-linejoin="round" stroke-width=".6"/><line x1="602.021" y1="106.074" x2="607.46" y2="98.955" fill="none" stroke="#000" stroke-linecap="round" stroke-linejoin="round" stroke-width=".6"/><polyline points="527.57 98.375 552.065 64.459 553.426 64.145" fill="none" stroke="#000" stroke-linecap="round" stroke-linejoin="round" stroke-width=".6"/><line x1="575.618" y1="35.672" x2="566.301" y2="95.13" fill="none" stroke="#000" stroke-linecap="round" stroke-linejoin="round" stroke-width=".6"/><path d="M584.023,29.4s-2.753,1.562-3.695,7.738l-7.432,49.095" fill="none" stroke="#000" stroke-linecap="round" stroke-linejoin="round" stroke-width=".6"/><line x1="587.172" y1="37.459" x2="590.15" y2="29.812" fill="none" stroke="#000" stroke-linecap="round" stroke-linejoin="round" stroke-width=".6"/><path d="M579.668,53.244l7.618,1.327s2.319.451,3.42-.757" fill="none" stroke="#000" stroke-linecap="round" stroke-linejoin="round" stroke-width=".6"/><path d="M588.367,85.207l-15.165,20.672s-1.864,2.118-1.694,5.93,2.542.678,2.542.678l14.487-20.079" fill="none" stroke="#000" stroke-linecap="round" stroke-linejoin="round" stroke-width=".6"/><path d="M561.831,132.425l-.036-4.126,4.545.794-.169-15.08c.085-4.49,1.779-7.879,1.779-7.879l19.61-26.582" fill="none" stroke="#000" stroke-linecap="round" stroke-linejoin="round" stroke-width=".6"/><polyline points="566.34 129.093 568.43 126.257 571.202 126.683 571.119 128.299 566.749 134.055 564.407 133.665" fill="none" stroke="#000" stroke-linecap="round" stroke-linejoin="round" stroke-width=".6"/><line x1="584.326" y1="121.855" x2="588.599" y2="116.115" fill="none" stroke="#000" stroke-linecap="round" stroke-linejoin="round" stroke-width=".6"/><path d="M562.796,133.589l-17.058,22.851-.032-21.885-.032-21.821c-.064-2.768-2.897-3.025-2.897-3.025,0,0-9.333-1.545-11.779-2.06-2.446-.515-2.897,1.352-2.897,1.352l-5.92,8.057s-.785,1.865-3.927,2.307c0,0-3.731.295-4.86,2.307,0,0-1.227,1.669-1.473,4.958l.133,41.825s-.253,1.771,1.349,2.023,9.106,1.518,9.106,1.518c0,0,1.686.337,1.771,1.939v2.951s-.506,2.192,1.349,3.035" fill="none" stroke="#000" stroke-linecap="round" stroke-linejoin="round" stroke-width=".6"/><path d="M546.125,133.911l2.06-2.703s-.257-1.416,4.377-.451,10.368,2.023,10.368,2.023c0,0,1.665-.106,1.63,2.516v11.693s.461,2.657-1.205,5.173c-1.665,2.516-25.185,34.513-25.185,34.513,0,0-2.614,4.948-9.536,4.465" fill="none" stroke="#000" stroke-linecap="round" stroke-linejoin="round" stroke-width=".6"/><path d="M530.519,180.932c-1.18-.253-1.265-2.192-1.265-2.192l-.084-49.069s.084-3.878,4.216-5.396l10.302-14.18" fill="none" stroke="#000" stroke-linecap="round" stroke-linejoin="round" stroke-width=".6"/><line x1="511.922" y1="126.629" x2="529.04" y2="129.888" fill="none" stroke="#000" stroke-linecap="round" stroke-linejoin="round" stroke-width=".6"/><ellipse cx="518.357" cy="134.085" rx="4.401" ry="5.012" transform="translate(188.104 555.518) rotate(-66.419)" fill="none" stroke="#000" stroke-linecap="round" stroke-linejoin="round" stroke-width=".6"/><polyline points="533.264 181.252 538.673 174.614 539.001 185.186" fill="none" stroke="#000" stroke-linecap="round" stroke-linejoin="round" stroke-width=".6"/><path d="M534.464,179.439l.111-53.099s-.003-1.834-1.19-2.064" fill="none" stroke="#000" stroke-linecap="round" stroke-linejoin="round" stroke-width=".6"/><line x1="566.157" y1="134.067" x2="566.116" y2="145.789" fill="none" stroke="#000" stroke-linecap="round" stroke-linejoin="round" stroke-width=".6"/><line x1="506.959" y1="167.669" x2="511.709" y2="168.635" fill="none" stroke="#000" stroke-linecap="round" stroke-linejoin="round" stroke-width=".6"/><line x1="521.704" y1="182.047" x2="521.704" y2="179.627" fill="none" stroke="#000" stroke-linecap="round" stroke-linejoin="round" stroke-width=".6"/><path d="M78.611,118.331V53.021c.241-2.976-2.735-3.298-2.735-3.298l-6.498-1.203s-1.243-.327-1.767,1.276,2.388,2.486,2.388,2.486c0,0-2.355-.229-2.552.981,0,0-.229.72,1.668,1.08s6.019,1.21,6.019,1.21c0,0,1.93.393,3.435-.687" fill="none" stroke="#2d2a26" stroke-miterlimit="10" stroke-width=".6"/><line x1="78.66" y1="52.301" x2="96.21" y2="28.309" fill="none" stroke="#2d2a26" stroke-miterlimit="10" stroke-width=".6"/><path d="M73.148,123.285l4.196.816s2.506.816,4.08-1.282c1.574-2.098,8.509-11.715,8.509-11.715v-4.429l-1.057-.977" fill="none" stroke="#2d2a26" stroke-linecap="round" stroke-linejoin="round" stroke-width=".6"/><path d="M67.391,53.286v25.408s.074.522,1.629.792c1.555.27,6.458,1.127,6.458,1.127,0,0,2.031.206,3.078-.778" fill="none" stroke="#2d2a26" stroke-miterlimit="10" stroke-width=".6"/><path d="M67.845,79.211s-1.059,1.589-.927,5.163v19.66" fill="none" stroke="#2d2a26" stroke-miterlimit="10" stroke-width=".6"/><path d="M76.583,80.667s.274,37.642.062,37.43l2.564.466,11.54-15.678v3.147l4.779-6.528" fill="none" stroke="#2d2a26" stroke-linecap="round" stroke-linejoin="round" stroke-width=".6"/><path d="M54.871,106.616l2.449-3.442s.463-.861,2.052-.463,12.312,2.317,12.312,2.317c0,0,1.853,0,1.787,2.449s0,11.981,0,11.981c0,0,.794,2.449-1.787,5.958l-24.426,33.495s-3.111,5.362-9.4,4.634" fill="none" stroke="#2d2a26" stroke-linecap="round" stroke-linejoin="round" stroke-width=".6"/><polyline points="31.57 151.827 31.57 98.7 19.628 96.472 17.203 99.988 14.839 99.503" fill="none" stroke="#2d2a26" stroke-linecap="round" stroke-linejoin="round" stroke-width=".6"/><path d="M25.48,156.594v2.052l1.192,2.251s4.237,7.48,10.459,3.244l1.059-1.522,2.78-.927,3.508-4.634v-2.979l-12.312-2.147" fill="none" stroke="#2d2a26" stroke-linecap="round" stroke-linejoin="round" stroke-width=".6"/><path d="M43.286,154.343l-3.045,4.237-1.853.53s-1.986-4.369-5.759-4.766-5.494,2.515-5.494,2.515l-1.655-.265" fill="none" stroke="#2d2a26" stroke-linecap="round" stroke-linejoin="round" stroke-width=".6"/><polyline points="42.558 153.35 47.788 146.797 47.788 158.182" fill="none" stroke="#2d2a26" stroke-linecap="round" stroke-linejoin="round" stroke-width=".6"/><path d="M71.684,105.027l-16.914,23.808v-42.723s.778-3.459-3.286-4.151l-11.848-2.162s-1.47-.432-2.854,1.73-6.227,9.167-6.227,9.167l-7.119,1.759-2.777,4.138" fill="none" stroke="#2d2a26" stroke-linecap="round" stroke-linejoin="round" stroke-width=".6"/><path d="M65.526,32.931L9.358,106.411s-1.066,1.024-1.066,4.819l.102,49.877,5.778,1.016,15.88-8.339,1.517-1.956" fill="none" stroke="#2d2a26" stroke-linecap="round" stroke-linejoin="round" stroke-width=".6"/><path d="M14.878,99.189l-5.52,7.222s-1.066,1.024-1.066,4.819l.102,49.877,5.778,1.016,15.88-8.339,1.517-1.956" fill="none" stroke="#2d2a26" stroke-linecap="round" stroke-linejoin="round" stroke-width=".6"/><line x1="43.507" y1="152.062" x2="43.507" y2="95.389" fill="none" stroke="#2d2a26" stroke-linecap="round" stroke-linejoin="round" stroke-width=".6"/><path d="M52.259,82.389l-10.111,14.274s-3.399.798-3.993,5.327v50.782" fill="none" stroke="#2d2a26" stroke-linecap="round" stroke-linejoin="round" stroke-width=".6"/><line x1="31.527" y1="101.082" x2="38.055" y2="102.315" fill="none" stroke="#2d2a26" stroke-linecap="round" stroke-linejoin="round" stroke-width=".6"/><path d="M31.57,98.7c-.618,2.349-2.695,3.253-2.695,3.253l-13.072,6.204s-2.65.723-2.229,4.217v49.636" fill="none" stroke="#2d2a26" stroke-linecap="round" stroke-linejoin="round" stroke-width=".6"/><line x1="8.635" y1="110.205" x2="13.334" y2="110.989" fill="none" stroke="#2d2a26" stroke-linecap="round" stroke-linejoin="round" stroke-width=".6"/><line x1="28.963" y1="108.763" x2="28.963" y2="150.81" fill="none" stroke="#2d2a26" stroke-linecap="round" stroke-linejoin="round" stroke-width=".75"/><line x1="26.154" y1="115.232" x2="26.154" y2="148.257" fill="none" stroke="#2d2a26" stroke-linecap="round" stroke-linejoin="round" stroke-width=".75"/><line x1="22.92" y1="121.786" x2="22.92" y2="144.426" fill="none" stroke="#2d2a26" stroke-linecap="round" stroke-linejoin="round" stroke-width=".75"/><line x1="19.175" y1="127.148" x2="19.175" y2="140.852" fill="none" stroke="#2d2a26" stroke-linecap="round" stroke-linejoin="round" stroke-width=".75"/><line x1="16.196" y1="132.851" x2="16.196" y2="137.362" fill="none" stroke="#2d2a26" stroke-linecap="round" stroke-linejoin="round" stroke-width=".75"/><path d="M59.926,102.884l2.77-3.716s1.554-1.216,1.959,1.486,0,2.973,0,2.973" fill="none" stroke="#2d2a26" stroke-linecap="round" stroke-linejoin="round" stroke-width=".6"/><polyline points="70.736 104.641 70.736 100.749 74.993 101.533 74.993 83.831 75.478 80.612" fill="none" stroke="#2d2a26" stroke-linecap="round" stroke-linejoin="round" stroke-width=".6"/><line x1="70.447" y1="104.77" x2="73.168" y2="101.21" fill="none" stroke="#2d2a26" stroke-linecap="round" stroke-linejoin="round" stroke-width=".6"/><polyline points="73.168 106.181 75.351 106.55 76.426 105.207" fill="none" stroke="#2d2a26" stroke-linecap="round" stroke-linejoin="round" stroke-width=".6"/><line x1="74.881" y1="106.685" x2="74.881" y2="118.608" fill="none" stroke="#2d2a26" stroke-linecap="round" stroke-linejoin="round" stroke-width=".6"/><polyline points="73.47 118.34 75.418 118.743 76.594 117.164" fill="none" stroke="#2d2a26" stroke-linecap="round" stroke-linejoin="round" stroke-width=".6"/><line x1="61.21" y1="101.244" x2="64.737" y2="101.882" fill="none" stroke="#2d2a26" stroke-linecap="round" stroke-linejoin="round" stroke-width=".6"/><path d="M76.484,37.376l-2.558-9.261-4.596-.865s-3.785,1.514-3.406,7.218l.162,4.461s-.162,2.055-.865,3.758c-.554,1.343-1.838,5.191-1.838,5.191" fill="none" stroke="#2d2a26" stroke-linecap="round" stroke-linejoin="round" stroke-width=".6"/><path d="M73.228,28.043c-1.047.693-2.826,2.755-2.673,6.671l.162,4.461s-.162,2.055-.865,3.758c-.554,1.343-1.838,5.191-1.838,5.191" fill="none" stroke="#2d2a26" stroke-linecap="round" stroke-linejoin="round" stroke-width=".6"/><path d="M65.941,37.923l-33.059,45.388s-3.196,4.384-3.014,7.397" fill="none" stroke="#2d2a26" stroke-linecap="round" stroke-linejoin="round" stroke-width=".6"/><path d="M74.952,30.294l6.877,1.32-1.598,2.362s-1.25-.278-2.431,1.598-9.17,12.852-9.17,12.852" fill="none" stroke="#2d2a26" stroke-linecap="round" stroke-linejoin="round" stroke-width=".6"/><path d="M68.006,48.912l-6.498-1.053s-2.018.44-2.199,3.156l-.543,5.355,8.554,21.022" fill="none" stroke="#2d2a26" stroke-linecap="round" stroke-linejoin="round" stroke-width=".6"/><path d="M65.9,48.79s-2.018.44-2.199,3.156l-.543,5.355,4.022,9.884" fill="none" stroke="#2d2a26" stroke-linecap="round" stroke-linejoin="round" stroke-width=".6"/><path d="M25.766,91.682s-.461-4.838,5.644-13.938" fill="none" stroke="#2d2a26" stroke-linecap="round" stroke-linejoin="round" stroke-width=".6"/><polygon points="24.411 130.242 39.302 145.549 39.48 137.773 70.842 138.136 70.842 122.269 39.886 122.234 40.064 114.387 24.411 130.242" fill="#000" stroke="#fff" stroke-linecap="round" stroke-linejoin="round" stroke-width="3.304"/><polygon points="24.411 130.242 39.302 145.549 39.48 137.773 70.842 138.136 70.842 122.269 39.886 122.234 40.064 114.387 24.411 130.242" fill="#000" stroke-width="0"/><path d="M139.627,95.293c18.765-.69,37.214,10.326,44.441,28.06,1.288,3.162,2.026,6.573,2.754,9.927.384,1.767,1.135,2.528,2.905,2.523,1.767-.005,3.535.141,5.303.221.071.191.143.381.214.572-3.61,3.695-7.218,7.39-10.83,11.083-.975.997-1.879,2.09-2.977,2.928-.441.337-1.672.407-1.941.09-4.245-5.015-8.393-10.112-12.554-15.199-.062-.075.002-.252.02-.734,1.471.05,2.95.066,4.425.158,3.527.22,3.743.012,2.718-3.447-3.75-12.648-12.072-20.527-24.959-23.345-3.238-.708-6.397-1.031-9.46-.952l-.058-11.884Z" fill="none" stroke="#fff" stroke-linecap="round" stroke-linejoin="round" stroke-width="3.304"/><path d="M139.627,95.293c18.765-.69,37.214,10.326,44.441,28.06,1.288,3.162,2.026,6.573,2.754,9.927.384,1.767,1.135,2.528,2.905,2.523,1.767-.005,3.535.141,5.303.221.071.191.143.381.214.572-3.61,3.695-7.218,7.39-10.83,11.083-.975.997-1.879,2.09-2.977,2.928-.441.337-1.672.407-1.941.09-4.245-5.015-8.393-10.112-12.554-15.199-.062-.075.002-.252.02-.734,1.471.05,2.95.066,4.425.158,3.527.22,3.743.012,2.718-3.447-3.75-12.648-12.072-20.527-24.959-23.345-3.238-.708-6.397-1.031-9.46-.952l-.058-11.884Z" fill="#000" stroke-width="0"/><line x1="488.956" y1="151.776" x2="489.291" y2="151.837" fill="none" stroke="#2d2a26" stroke-miterlimit="2" stroke-width="1.211"/><line x1="488.945" y1="151.775" x2="488.957" y2="151.775" fill="none" stroke="#2d2a26" stroke-miterlimit="2" stroke-width="1.211"/><polygon points="273.883 226.158 266.071 212.674 272.993 213.991 286.111 192.271 303.726 195.54 288.704 216.982 295.688 218.312 273.883 226.158" fill="#000" stroke="#fff" stroke-linecap="round" stroke-linejoin="round" stroke-width="3.304"/><polygon points="273.883 226.158 266.071 212.674 272.993 213.991 286.111 192.271 303.726 195.54 288.704 216.982 295.688 218.312 273.883 226.158" fill="#000" stroke-width="0"/><line x1="229.038" y1="5.24" x2="229.038" y2="246.578" fill="none" stroke="#000" stroke-miterlimit="10" stroke-width="1.2"/><line x1="368.913" y1="5.24" x2="368.913" y2="246.578" fill="none" stroke="#000" stroke-miterlimit="10" stroke-width="1.2"/><path d="M93.684,157.098c0,7.593-6.246,13.745-13.95,13.745s-13.953-6.152-13.953-13.745,6.246-13.755,13.953-13.755,13.95,6.159,13.95,13.755" fill="#221f1f" stroke="#fff" stroke-miterlimit="10" stroke-width="1.5"/><path d="M81.331,164.14h-1.846v-11.761c-.444.424-1.027.848-1.749,1.271s-1.369.742-1.943.954v-1.784c1.032-.485,1.935-1.073,2.707-1.764s1.319-1.36,1.641-2.01h1.189v15.094Z" fill="#fff" stroke-width="0"/><path d="M342.294,157.098c0,7.593-6.246,13.745-13.95,13.745s-13.953-6.152-13.953-13.745,6.246-13.755,13.953-13.755,13.95,6.159,13.95,13.755" fill="#221f1f" stroke="#fff" stroke-miterlimit="10" stroke-width="1.5"/><path d="M333.419,162.366v1.774h-9.936c-.014-.444.058-.872.215-1.282.253-.677.658-1.343,1.215-2,.557-.656,1.362-1.415,2.415-2.276,1.634-1.34,2.738-2.401,3.312-3.184s.861-1.523.861-2.22c0-.731-.262-1.348-.784-1.851-.523-.502-1.205-.753-2.046-.753-.889,0-1.6.267-2.133.8s-.803,1.271-.81,2.215l-1.897-.195c.13-1.415.619-2.493,1.466-3.235.848-.741,1.986-1.112,3.415-1.112,1.442,0,2.584.4,3.425,1.2s1.261,1.791,1.261,2.974c0,.602-.123,1.193-.369,1.774s-.655,1.193-1.225,1.835c-.571.643-1.52,1.524-2.846,2.646-1.107.93-1.818,1.561-2.133,1.892s-.574.665-.779,1h7.373Z" fill="#fff" stroke-width="0"/><path d="M436.485,171.943l9.97-13.959.019-12.084c.118-2.831-2.477-2.713-2.477-2.713l-4.494-.834" fill="none" stroke="#2d2a26" stroke-linecap="round" stroke-linejoin="round" stroke-width=".6"/><line x1="467.042" y1="51.241" x2="484.592" y2="27.249" fill="none" stroke="#2d2a26" stroke-miterlimit="10" stroke-width=".6"/><path d="M455.542,124.858l2.366-3.272,9.483,1.649c1.982,0,2.973-1.982,2.973-1.982l7.956-11.261v-4.429s-1.148-1.428-1.148-1.428" fill="none" stroke="#2d2a26" stroke-linecap="round" stroke-linejoin="round" stroke-width=".6"/><path d="M466.938,78.774c-1.047.984-3.078.778-3.078.778,0,0-4.903-.857-6.458-1.127-1.555-.27-1.629-.792-1.629-.792l-.043-25.059s.355-1.495,2.534-1.293c0,0-2.771-.639-2.078-2.889.406-1.318,1.834-.869,1.834-.869l6.77,1.258c2.816.659,2.217,5.032,2.217,5.032l.434,63.637" fill="none" stroke="#2d2a26" stroke-linecap="round" stroke-linejoin="round" stroke-width=".6"/><path d="M462.785,127.615l-4.779,6.528v-3.88l-11.54,16.284-.462-.853-10.314,14.102s-.326.874-1.45.744c-1.124-.13-5.059-.908-5.059-.908,0,0-1.297-.476-1.124-1.6" fill="none" stroke="#2d2a26" stroke-linecap="round" stroke-linejoin="round" stroke-width=".6"/><path d="M464.964,79.607s.148,26.337.173,37.395l2.304.448,11.648-15.615.192,2.88" fill="none" stroke="#2d2a26" stroke-linecap="round" stroke-linejoin="round" stroke-width=".6"/><path d="M408.51,183.799l-3.334,2.613s-1.362-3.837-5.136-4.235c-3.773-.397-5.649,2.058-5.649,2.058l-1.655-.265v2.505l1.192,2.251s4.237,7.48,10.459,3.244l1.059-1.522,2.78-1.38" fill="none" stroke="#2d2a26" stroke-linecap="round" stroke-linejoin="round" stroke-width=".6"/><line x1="414.658" y1="88.251" x2="409.299" y2="95.504" fill="none" stroke="#2d2a26" stroke-linecap="round" stroke-linejoin="round" stroke-width=".6"/><path d="M420.104,150.241l-.152-52.601-11.942-2.229-2.425,3.516-2.657-.608-5.188,7.031s-1.066,1.024-1.066,4.819l.102,50.311,5.778,1.016,10.909-5.657,4.974-3.336,1.668-2.263Z" fill="none" stroke="#2d2a26" stroke-linecap="round" stroke-linejoin="round" stroke-width=".6"/><path d="M419.951,97.64c-.618,2.349-2.695,3.253-2.695,3.253l-13.072,6.204s-2.65.723-2.229,4.217v50.07" fill="none" stroke="#2d2a26" stroke-linecap="round" stroke-linejoin="round" stroke-width=".6"/><line x1="397.017" y1="109.145" x2="401.715" y2="109.928" fill="none" stroke="#2d2a26" stroke-linecap="round" stroke-linejoin="round" stroke-width=".6"/><line x1="417.344" y1="107.703" x2="417.344" y2="149.75" fill="none" stroke="#2d2a26" stroke-linecap="round" stroke-linejoin="round" stroke-width=".75"/><line x1="414.535" y1="114.172" x2="414.535" y2="147.196" fill="none" stroke="#2d2a26" stroke-linecap="round" stroke-linejoin="round" stroke-width=".75"/><line x1="411.301" y1="120.726" x2="411.301" y2="143.366" fill="none" stroke="#2d2a26" stroke-linecap="round" stroke-linejoin="round" stroke-width=".75"/><line x1="407.556" y1="126.088" x2="407.556" y2="139.791" fill="none" stroke="#2d2a26" stroke-linecap="round" stroke-linejoin="round" stroke-width=".75"/><line x1="404.577" y1="131.791" x2="404.577" y2="136.302" fill="none" stroke="#2d2a26" stroke-linecap="round" stroke-linejoin="round" stroke-width=".75"/><line x1="420.174" y1="141.217" x2="434.444" y2="121.134" fill="none" stroke="#2d2a26" stroke-linecap="round" stroke-linejoin="round" stroke-width=".6"/><path d="M460.323,29.4l-4.596-.865s-3.391,1.38-3.81,7.138" fill="none" stroke="#2d2a26" stroke-linecap="round" stroke-linejoin="round" stroke-width=".6"/><path d="M450.68,41.283l-29.154,41.178s-4.008,4.706-3.883,14.727" fill="none" stroke="#2d2a26" stroke-linecap="round" stroke-linejoin="round" stroke-width=".6"/><path d="M457.302,46.804s7.7-10.415,8.881-12.29,2.431-1.598,2.431-1.598l1.598-2.362-3.761-.742-3.757-.741-2.097,1.857v7.548l2.217.3" fill="none" stroke="#2d2a26" stroke-linecap="round" stroke-linejoin="round" stroke-width=".6"/><path d="M410.582,173.888c-6.307-4.865-11.945-2.071-11.945-2.071,0,0-5.24,1.37-4.526,9.111" fill="none" stroke="#2d2a26" stroke-linecap="round" stroke-linejoin="round" stroke-width=".6"/><path d="M394.963,179.825s-.239-7.571,8.715-7.076c0,0,3.558.306,5.822,2.672l-2.343,1.081c-6.037-2.793-8.289,1.351-8.289,1.351l-.648,1.467-1.727-.357-3.756,5.007" fill="none" stroke="#2d2a26" stroke-linecap="round" stroke-linejoin="round" stroke-width=".6"/><path d="M421.124,180.794v-5.103l-1.712-1.892-5.316-1.171-2.613.991-2.883,4.054-.09,20.092s.27,1.622,2.883,2.162c2.613.541,54.443,9.87,54.443,9.87,0,0,3.13,1.302,5.562-2.212s9.28-12.704,9.28-12.704v-12.794s-.45-2.523-2.072-2.703-58.474-10.271-58.474-10.271" fill="none" stroke="#2d2a26" stroke-linecap="round" stroke-linejoin="round" stroke-width=".6"/><polyline points="417.423 193.737 417.392 183.662 419.562 180.623 470.611 189.83 471.601 190.932 479.919 180.385" fill="none" stroke="#2d2a26" stroke-linecap="round" stroke-linejoin="round" stroke-width=".6"/><path d="M469.309,189.722c-.76,3.364-4.341,2.279-4.341,2.279l-47.359-8.231" fill="none" stroke="#2d2a26" stroke-linecap="round" stroke-linejoin="round" stroke-width=".6"/><polyline points="469.851 209.254 469.851 192.941 465.848 192.142" fill="none" stroke="#2d2a26" stroke-linecap="round" stroke-linejoin="round" stroke-width=".6"/><path d="M408.758,192.326l9.441,1.628s.527,2.713-2.589,2.202l-4.124-.76s-2.837-.248-2.728-3.07Z" fill="none" stroke="#2d2a26" stroke-linecap="round" stroke-linejoin="round" stroke-width=".6"/><path d="M421.693,138.504s4.214-4.6,11.636-1.701c0,0,4.076,1.436,6.174,5.55l-22.434,30.633" fill="none" stroke="#2d2a26" stroke-linecap="round" stroke-linejoin="round" stroke-width=".6"/><path d="M425.42,170.095l3.546-4.583s1.254-2.551.995-5.751" fill="none" stroke="#2d2a26" stroke-linecap="round" stroke-linejoin="round" stroke-width=".6"/><path d="M431.949,171.263l3.546-4.583s1.513-4.886.303-6.659" fill="none" stroke="#2d2a26" stroke-linecap="round" stroke-linejoin="round" stroke-width=".6"/><ellipse cx="459.316" cy="197.375" rx="4.066" ry="4.991" transform="translate(59.983 498.143) rotate(-60.24)" fill="none" stroke="#2d2a26" stroke-linecap="round" stroke-linejoin="round" stroke-width=".6"/><path d="M413.464,96.383s.138-8.27,2.894-12.405l35.487-49.412" fill="none" stroke="#2d2a26" stroke-linecap="round" stroke-linejoin="round" stroke-width=".6"/><line x1="405.176" y1="186.412" x2="408.52" y2="187.174" fill="none" stroke="#2d2a26" stroke-linecap="round" stroke-linejoin="round" stroke-width=".6"/><line x1="405.176" y1="191.174" x2="408.417" y2="191.677" fill="none" stroke="#2d2a26" stroke-linecap="round" stroke-linejoin="round" stroke-width=".6"/><line x1="396.85" y1="172.591" x2="406.021" y2="160.205" fill="none" stroke="#2d2a26" stroke-linecap="round" stroke-linejoin="round" stroke-width=".6"/><path d="M445.354,142.893l10.025-13.622v-15.745s.234-9.551,3.807-10.22c0,0,.852.254.911,3.498v15.155" fill="none" stroke="#2d2a26" stroke-linecap="round" stroke-linejoin="round" stroke-width=".6"/><path d="M434.385,131.748v-18.045s-.413-6.133,2.418-9.848l18.969-26.223" fill="none" stroke="#2d2a26" stroke-linecap="round" stroke-linejoin="round" stroke-width=".6"/><line x1="457.825" y1="104.504" x2="457.909" y2="121.586" fill="none" stroke="#2d2a26" stroke-linecap="round" stroke-linejoin="round" stroke-width=".6"/><line x1="478.321" y1="106.074" x2="483.76" y2="98.955" fill="none" stroke="#2d2a26" stroke-linecap="round" stroke-linejoin="round" stroke-width=".6"/><polyline points="403.87 98.375 428.365 64.459 429.726 64.145" fill="none" stroke="#2d2a26" stroke-linecap="round" stroke-linejoin="round" stroke-width=".6"/><line x1="451.918" y1="35.672" x2="442.601" y2="95.13" fill="none" stroke="#2d2a26" stroke-linecap="round" stroke-linejoin="round" stroke-width=".6"/><path d="M460.323,29.4s-2.753,1.562-3.695,7.738l-7.432,49.095" fill="none" stroke="#2d2a26" stroke-linecap="round" stroke-linejoin="round" stroke-width=".6"/><line x1="463.472" y1="37.459" x2="466.45" y2="29.812" fill="none" stroke="#2d2a26" stroke-linecap="round" stroke-linejoin="round" stroke-width=".6"/><path d="M455.968,53.244l7.618,1.327s2.319.451,3.42-.757" fill="none" stroke="#2d2a26" stroke-linecap="round" stroke-linejoin="round" stroke-width=".6"/><path d="M464.667,85.207l-15.165,20.672s-1.864,2.118-1.694,5.93,2.542.678,2.542.678l14.487-20.079" fill="none" stroke="#2d2a26" stroke-linecap="round" stroke-linejoin="round" stroke-width=".6"/><path d="M427.325,135.8s2.72-6.237,10.235-2.626c6.912,3.322,5.091,9.324,5.091,9.324" fill="none" stroke="#2d2a26" stroke-linecap="round" stroke-linejoin="round" stroke-width=".6"/><path d="M442.64,129.093l2.049-2.821,2.863.457-.133,1.57-4.501,5.948-4.769-1.232-.054-4.715,4.545.794-.169-15.08c.085-4.49,1.779-7.879,1.779-7.879l19.61-26.582" fill="none" stroke="#2d2a26" stroke-linecap="round" stroke-linejoin="round" stroke-width=".6"/><line x1="442.757" y1="138.747" x2="442.543" y2="134.407" fill="none" stroke="#2d2a26" stroke-linecap="round" stroke-linejoin="round" stroke-width=".6"/><line x1="460.625" y1="121.855" x2="464.899" y2="116.115" fill="none" stroke="#2d2a26" stroke-linecap="round" stroke-linejoin="round" stroke-width=".6"/><path d="M489.522,157.098c0,7.593-6.246,13.745-13.95,13.745s-13.953-6.152-13.953-13.745,6.246-13.755,13.953-13.755,13.95,6.159,13.95,13.755" fill="#221f1f" stroke="#fff" stroke-miterlimit="10" stroke-width="1.5"/><path d="M470.958,160.172l1.846-.246c.212,1.046.572,1.799,1.082,2.261.509.461,1.129.692,1.861.692.868,0,1.601-.301,2.2-.902.598-.602.897-1.347.897-2.235,0-.848-.277-1.546-.831-2.097-.554-.55-1.258-.825-2.112-.825-.349,0-.783.068-1.302.205l.205-1.62c.123.014.222.021.297.021.786,0,1.494-.205,2.123-.615s.943-1.042.943-1.897c0-.677-.229-1.237-.687-1.682s-1.049-.667-1.774-.667c-.718,0-1.316.226-1.794.677s-.786,1.128-.923,2.03l-1.846-.328c.226-1.237.738-2.196,1.538-2.876s1.794-1.021,2.984-1.021c.82,0,1.576.176,2.266.528s1.218.832,1.584,1.44.549,1.254.549,1.938c0,.649-.174,1.241-.523,1.774s-.865.957-1.548,1.271c.889.205,1.579.631,2.071,1.276.492.646.738,1.455.738,2.425,0,1.312-.479,2.425-1.436,3.337-.957.913-2.167,1.369-3.63,1.369-1.319,0-2.415-.393-3.286-1.179-.872-.786-1.369-1.805-1.492-3.056Z" fill="#fff" stroke-width="0"/><path d="M459.377,180.62c2.325-17.357-9.539-36.677-25.353-44.977-2.819-1.48-5.92-2.471-8.967-3.448-1.606-.515-2.245-1.28-2.081-2.923.163-1.64.186-3.294.271-4.942-.171-.083-.341-.167-.512-.25-3.753,3.019-7.508,6.037-11.26,9.058-1.013.816-2.109,1.557-2.985,2.501-.352.379-.528,1.515-.257,1.793,4.274,4.391,8.634,8.699,12.982,13.018.064.064.234.021.683.048.086-1.37.204-2.745.251-4.121.112-3.294.325-3.476,3.444-2.213,11.404,4.616,17.97,13.049,19.43,25.264.367,3.07.382,6.03.034,8.867l14.321,2.326Z" fill="none" stroke="#fff" stroke-linecap="round" stroke-linejoin="round" stroke-width="3.304"/><path d="M458.377,180.62c2.325-17.357-8.539-36.677-24.353-44.977-2.819-1.48-5.92-2.471-8.967-3.448-1.606-.515-2.245-1.28-2.081-2.923.163-1.64.186-3.294.271-4.942-.171-.083-.341-.167-.512-.25-3.753,3.019-7.508,6.037-11.26,9.058-1.013.816-2.109,1.557-2.985,2.501-.352.379-.528,1.515-.257,1.793,4.274,4.391,8.634,8.699,12.982,13.018.064.064.234.021.683.048.086-1.37.204-2.745.251-4.121.112-3.294.325-3.476,3.444-2.213,11.404,4.616,17.97,13.049,19.43,25.264.367,3.07.382,6.03.034,8.867l13.321,2.326Z" fill="#000" stroke-width="0"/></g></svg>