<?xml version="1.0" encoding="UTF-8"?><svg id="a" xmlns="http://www.w3.org/2000/svg" width="5.5in" height="2.5in" viewBox="0 0 396 180"><path d="M335.53,54.815l.207,55.34-24.863,14.417-.948.55-59.865-4.121v-10.411l-6.941-1.085.089-55.899,7.286-.279v-11.062l58.78-3.904,24.719,12.462s1.802.907,1.536,3.993Z" fill="none" stroke="#231f20" stroke-miterlimit="10" stroke-width=".524"/><polyline points="309.926 125.121 334.436 121.65 358.946 109.287 335.737 110.154" fill="none" stroke="#231f20" stroke-miterlimit="10" stroke-width=".524"/><path d="M249.155,123.457l-.039-9.846-5.779-.854c-2.796.033-3.254-3.127-3.254-3.127,0,0,.422-49.787.217-55.653-.152-4.356,1.735-4.338,1.735-4.338l7.158-.434s.434-15.183.217-19.738,1.735-5.206,1.735-5.206l13.157-1.54s-1.797.663-1.797,2.368.201,16.547.201,16.547" fill="none" stroke="#231f20" stroke-linecap="round" stroke-linejoin="round" stroke-width=".524"/><path d="M250.76,136.476c-1.801-.313-1.566-2.897-1.566-2.897l-.003-.876" fill="none" stroke="#231f20" stroke-linecap="round" stroke-linejoin="round" stroke-width=".524"/><line x1="242.036" y1="49.639" x2="249.193" y2="49.205" fill="none" stroke="#fff" stroke-linecap="round" stroke-linejoin="round" stroke-width=".524"/><line x1="242.036" y1="49.639" x2="249.193" y2="49.205" fill="none" stroke="#231f20" stroke-dasharray="0 0 2.622 1.573" stroke-linecap="round" stroke-linejoin="round" stroke-width=".524"/><path d="M240.3,53.977c-.152-4.356,1.735-4.338,1.735-4.338" fill="none" stroke="#fff" stroke-linecap="round" stroke-linejoin="round" stroke-width=".524"/><path d="M240.3,53.977c-.152-4.356,1.735-4.338,1.735-4.338" fill="none" stroke="#231f20" stroke-dasharray="0 0 2.622 1.573" stroke-linecap="round" stroke-linejoin="round" stroke-width=".524"/><path d="M240.084,109.63s.422-49.787.217-55.653" fill="none" stroke="#fff" stroke-linecap="round" stroke-linejoin="round" stroke-width=".524"/><path d="M240.083,109.63s.004-.464.011-1.307" fill="none" stroke="#231f20" stroke-linecap="round" stroke-linejoin="round" stroke-width=".524"/><path d="M240.107,106.719c.078-9.758.318-41.225.23-50.627" fill="none" stroke="#231f20" stroke-dasharray="0 0 2.678 1.607" stroke-linecap="round" stroke-linejoin="round" stroke-width=".524"/><path d="M240.328,55.285c-.008-.553-.017-.994-.028-1.309" fill="none" stroke="#231f20" stroke-linecap="round" stroke-linejoin="round" stroke-width=".524"/><path d="M243.337,112.757c-2.796.033-3.254-3.127-3.254-3.127" fill="none" stroke="#fff" stroke-linecap="round" stroke-linejoin="round" stroke-width=".524"/><path d="M243.337,112.757c-2.796.033-3.254-3.127-3.254-3.127" fill="none" stroke="#231f20" stroke-dasharray="0 0 2.622 1.573" stroke-linecap="round" stroke-linejoin="round" stroke-width=".524"/><line x1="249.116" y1="113.611" x2="243.337" y2="112.757" fill="none" stroke="#fff" stroke-linecap="round" stroke-linejoin="round" stroke-width=".524"/><line x1="249.116" y1="113.611" x2="243.337" y2="112.757" fill="none" stroke="#231f20" stroke-dasharray="0 0 2.622 1.573" stroke-linecap="round" stroke-linejoin="round" stroke-width=".524"/><path d="M250.526,121.05l.078,13.781s-.013,3.38,1.409,3.84c1.118.362,12.451,1.25,12.451,1.25,0,0-1.879-1.253-1.879-3.132s-.157-14.878-.157-14.878" fill="none" stroke="#231f20" stroke-linecap="round" stroke-linejoin="round" stroke-width=".524"/><polyline points="264.766 122.071 264.891 139.968 274.843 139.842 279.642 138.966" fill="none" stroke="#231f20" stroke-linecap="round" stroke-linejoin="round" stroke-width=".524"/><line x1="274.843" y1="122.866" x2="274.843" y2="139.842" fill="none" stroke="#231f20" stroke-linecap="round" stroke-linejoin="round" stroke-width=".524"/><polyline points="265.414 41.135 264.812 22.682 274.841 22.883 283.867 24.287" fill="none" stroke="#231f20" stroke-miterlimit="10" stroke-width=".524"/><line x1="274.635" y1="22.995" x2="274.941" y2="40.533" fill="none" stroke="#231f20" stroke-miterlimit="10" stroke-width=".524"/><path d="M359,95.677c-.028,7.793-.055,13.61-.055,13.61" fill="none" stroke="#231f20" stroke-linecap="round" stroke-linejoin="round" stroke-width=".524"/><path d="M309.275,38.36l23.315,1.396,22.956,12.056s3.321,1.184,3.468,4.294c.044.926.058,5.513.055,11.635" fill="none" stroke="#231f20" stroke-linecap="round" stroke-linejoin="round" stroke-width=".524"/><line x1="339.006" y1="51.493" x2="355.498" y2="53.423" fill="none" stroke="#231f20" stroke-linecap="round" stroke-linejoin="round" stroke-width=".524"/><polyline points="191.447 98.877 177.069 98.789 177.157 65.772 191.89 65.949" fill="none" stroke="#231f20" stroke-linecap="round" stroke-linejoin="round" stroke-width=".524"/><path d="M191.979,102.871v-38.963s-.444-1.598,2.485-1.686,30.443-.444,30.443-.444c0,0,3.195-.089,3.461,3.018s.089,35.857.089,35.857c0,0,.621,4.349-4.438,4.171-5.059-.178-32.04-1.953-32.04-1.953Z" fill="none" stroke="#231f20" stroke-linecap="round" stroke-linejoin="round" stroke-width=".524"/><path d="M225.44,61.689c2.929-.089,4.97,0,4.97,0,0,0,3.195-.089,3.461,3.018s.089,35.857.089,35.857c0,0,.621,4.349-4.438,4.171-5.059-.178-4.526.355-4.526.355" fill="none" stroke="#231f20" stroke-linecap="round" stroke-linejoin="round" stroke-width=".524"/><polygon points="197.166 73.652 205.836 73.652 205.836 92.567 197.035 92.436 197.166 73.652" fill="none" stroke="#231f20" stroke-linecap="round" stroke-linejoin="round" stroke-width=".524"/><polyline points="205.573 74.9 198.677 74.9 197.166 73.652" fill="none" stroke="#231f20" stroke-linecap="round" stroke-linejoin="round" stroke-width=".524"/><polyline points="197.035 92.436 198.611 91.188 205.639 91.254" fill="none" stroke="#231f20" stroke-linecap="round" stroke-linejoin="round" stroke-width=".524"/><line x1="198.677" y1="74.9" x2="198.611" y2="91.188" fill="none" stroke="#231f20" stroke-linecap="round" stroke-linejoin="round" stroke-width=".524"/><polyline points="186.835 98.877 177.069 98.789 177.129 65.772 187.136 65.949" fill="#fff" stroke="#231f20" stroke-linecap="round" stroke-linejoin="round" stroke-width=".524"/><path d="M173.365,50.72l-6.382-.373c-1.063-.304-1.822,0-1.822,0,0,0-8.96,1.519-11.39,2.126s-1.974,3.037-1.974,3.037v48.902s-.152,4.708,3.341,5.012l10.935,2.126,1.068-1.084,5.561-.054" fill="none" stroke="#231f20" stroke-linecap="round" stroke-linejoin="round" stroke-width=".524"/><path d="M161.767,53.158l10.564-2.069s2.512-.813,2.881,2.29l.074,54.003s-.517,3.398-2.586,3.029l-11.598-2.29s-1.699-.739-1.625-3.841.296-48.167.296-48.167c0,0-.517-2.659,1.995-2.955Z" fill="none" stroke="#231f20" stroke-dasharray="0 0 2.608 1.565" stroke-linecap="round" stroke-linejoin="round" stroke-width=".524"/><ellipse cx="159.79" cy="42.268" rx="2.728" ry="4.157" fill="none" stroke="#231f20" stroke-linecap="round" stroke-linejoin="round" stroke-width=".524"/><ellipse cx="159.79" cy="118.401" rx="2.728" ry="4.157" fill="none" stroke="#231f20" stroke-linecap="round" stroke-linejoin="round" stroke-width=".524"/><path d="M188.73,62.332l-.249-21.387c-.166-2.652-2.563-2.735-2.563-2.735l-47.698-4.252s-1.075-2.899-5.598-3.114l-74.527-7.323s-8.963-.312-8.616,12.278h-3.446l.008,94.036,3.653-.124.067,2.986-3.945.245v4.523l12.905-1.386" fill="none" stroke="#231f20" stroke-linecap="round" stroke-linejoin="round" stroke-width=".524"/><path d="M151.367,126.086l33.92-3.653c2.922-.104,3.653-3.027,3.653-3.027v-16.367" fill="none" stroke="#231f20" stroke-linecap="round" stroke-linejoin="round" stroke-width=".524"/><path d="M51.417,25.674l-7.323-.646s-2.8,2.585-2.154,5.6l1.939.215v105.544" fill="none" stroke="#231f20" stroke-linecap="round" stroke-linejoin="round" stroke-width=".524"/><line x1=".145" y1="29.644" x2="44.094" y2="25.028" fill="none" stroke="#231f20" stroke-linecap="round" stroke-linejoin="round" stroke-width=".524"/><line x1="45.817" y1="137.464" x2="-.009" y2="132.264" fill="none" stroke="#231f20" stroke-linecap="round" stroke-linejoin="round" stroke-width=".524"/><ellipse cx="62.181" cy="34.187" rx="7.616" ry="7.823" transform="translate(-.496 67.455) rotate(-56.76)" fill="none" stroke="#231f20" stroke-linecap="round" stroke-linejoin="round" stroke-width=".524"/><line x1="63.159" y1="28.882" x2="63.159" y2="39.438" fill="none" stroke="#231f20" stroke-linecap="round" stroke-linejoin="round" stroke-width=".524"/><line x1="58.26" y1="33.527" x2="68.141" y2="34.54" fill="none" stroke="#231f20" stroke-linecap="round" stroke-linejoin="round" stroke-width=".524"/><ellipse cx="132.413" cy="39.76" rx="6.776" ry="6.961" transform="translate(26.577 128.714) rotate(-56.76)" fill="none" stroke="#231f20" stroke-linecap="round" stroke-linejoin="round" stroke-width=".524"/><line x1="133.283" y1="35.04" x2="133.283" y2="44.433" fill="none" stroke="#231f20" stroke-linecap="round" stroke-linejoin="round" stroke-width=".524"/><line x1="128.925" y1="39.173" x2="137.716" y2="40.075" fill="none" stroke="#231f20" stroke-linecap="round" stroke-linejoin="round" stroke-width=".524"/><path d="M111.309,59.213l11.498-14.372c-8.007-12.729-25.459-13.756-25.459-13.756-20.737.205-27.101,10.266-27.101,10.266l14.783,17.452" fill="none" stroke="#231f20" stroke-linecap="round" stroke-linejoin="round" stroke-width=".524"/><path d="M53.539,93.255c9.733-.411,9.321-14.393,9.321-14.393-.548-13.708-9.321-13.845-9.321-13.845v-2.056h2.742s3.153-13.434,9.595-16.724l15.216,15.353" fill="none" stroke="#231f20" stroke-linecap="round" stroke-linejoin="round" stroke-width=".524"/><path d="M114.813,63.372l10.966-13.982s5.209,6.306,7.539,16.038" fill="none" stroke="#231f20" stroke-linecap="round" stroke-linejoin="round" stroke-width=".524"/><path d="M114.676,94.763l10.829,13.845s5.467-7.619,7.386-15.57" fill="none" stroke="#231f20" stroke-linecap="round" stroke-linejoin="round" stroke-width=".524"/><path d="M80.202,95.792s-7.323,9.453-9.72,11.85" fill="none" stroke="#231f20" stroke-linecap="round" stroke-linejoin="round" stroke-width=".524"/><line x1="83.93" y1="100.452" x2="72.878" y2="112.568" fill="none" stroke="#231f20" stroke-linecap="round" stroke-linejoin="round" stroke-width=".524"/><path d="M111.757,99.12l9.72,12.383s1.864,3.062-9.986,10.386" fill="none" stroke="#231f20" stroke-linecap="round" stroke-linejoin="round" stroke-width=".524"/><path d="M72.745,118.826s6.391,5.725,8.255,5.858" fill="none" stroke="#231f20" stroke-linecap="round" stroke-linejoin="round" stroke-width=".524"/><ellipse cx="97.809" cy="79.5" rx="21.314" ry="24.796" fill="none" stroke="#231f20" stroke-linecap="round" stroke-linejoin="round" stroke-width=".524"/><path d="M134.038,67.122s13.449-3.256,10.901,15.573l-.566,2.69" fill="none" stroke="#231f20" stroke-linecap="round" stroke-linejoin="round" stroke-width=".524"/><path d="M145.93,102.656l-1.416-7.503-1.699-2.124-1.133-4.955.991-2.973s-.495-4.008-1.803-8.103c-1.817-5.689-6.691-3.648-6.691-3.648,0,0-5.804,3.398-3.681,10.901l.991,5.946,1.84,3.539.566,1.982,2.407,3.115,1.274,7.503" fill="none" stroke="#231f20" stroke-linecap="round" stroke-linejoin="round" stroke-width=".524"/><path d="M148.143,102.419l-1.416-7.503-1.699-2.124-1.133-4.955.991-2.973s-.495-4.008-1.803-8.103c-1.817-5.689-6.691-3.648-6.691-3.648" fill="none" stroke="#231f20" stroke-linecap="round" stroke-linejoin="round" stroke-width=".524"/><line x1="143.82" y1="105.254" x2="144.104" y2="106.534" fill="none" stroke="#231f20" stroke-linecap="round" stroke-linejoin="round" stroke-width=".524"/><line x1="144.505" y1="108.336" x2="146.44" y2="117.047" fill="none" stroke="#231f20" stroke-dasharray="0 0 3.077 1.846" stroke-linecap="round" stroke-linejoin="round" stroke-width=".524"/><path d="M146.641,117.948l.284,1.28s-.459.042-1.302.12" fill="none" stroke="#231f20" stroke-linecap="round" stroke-linejoin="round" stroke-width=".524"/><path d="M144.066,119.491c-12.845,1.183-64.698,5.947-67.01,5.947-2.639,0-3.571-2.639-3.571-2.639l-2.484-13.508c-1.515-1.604-3.54-1.265-4.992-.684" fill="none" stroke="#231f20" stroke-dasharray="0 0 2.61 1.566" stroke-linecap="round" stroke-linejoin="round" stroke-width=".524"/><path d="M65.292,108.931c-.683.345-1.122.67-1.122.67l.235,1.29" fill="none" stroke="#231f20" stroke-linecap="round" stroke-linejoin="round" stroke-width=".524"/><path d="M64.683,112.426l2.592,14.255c2.018,6.832,9.626,6.366,9.626,6.366l71.11-7.453c7.142,0,5.9-9.005,5.9-9.005l-3.571-12.421c-1.397-1.242-4.347.155-4.347.155l-6.521,1.397c-5.124,1.242-3.726,6.211-3.726,6.211l.912,5.698" fill="none" stroke="#231f20" stroke-dasharray="0 0 2.599 1.559" stroke-linecap="round" stroke-linejoin="round" stroke-width=".524"/><line x1="136.781" y1="118.399" x2="136.988" y2="119.693" fill="none" stroke="#231f20" stroke-linecap="round" stroke-linejoin="round" stroke-width=".524"/><line x1="65.257" y1="107.894" x2="64.022" y2="108.333" fill="none" stroke="#231f20" stroke-linecap="round" stroke-linejoin="round" stroke-width=".524"/><path d="M62.549,108.857l-6.453,2.297s-2.95.776-2.174,4.503c.776,3.726,1.553,12.576,1.553,12.576,0,0,1.397,11.024,10.403,10.558,9.005-.466,72.663-7.763,72.663-7.763l8.825-4.221" fill="none" stroke="#231f20" stroke-dasharray="0 0 2.605 1.563" stroke-linecap="round" stroke-linejoin="round" stroke-width=".524"/><line x1="148.071" y1="126.47" x2="149.254" y2="125.904" fill="none" stroke="#231f20" stroke-linecap="round" stroke-linejoin="round" stroke-width=".524"/><line x1="56.096" y1="111.154" x2="55.896" y2="109.858" fill="none" stroke="#231f20" stroke-linecap="round" stroke-linejoin="round" stroke-width=".524"/><path d="M55.673,108.415l-.943-6.108s-.762-3.703,2.287-5.01c1.847-.791,4.372-1.862,6.077-2.584" fill="none" stroke="#231f20" stroke-dasharray="0 0 2.433 1.46" stroke-linecap="round" stroke-linejoin="round" stroke-width=".524"/><path d="M63.763,94.43c.737-.312,1.205-.509,1.205-.509,0,0-.292.464-.644,1.14" fill="none" stroke="#231f20" stroke-linecap="round" stroke-linejoin="round" stroke-width=".524"/><path d="M63.573,96.71c-.262.691-.456,1.404-.456,2.003,0,1.178.529,4.43.914,6.639" fill="none" stroke="#231f20" stroke-dasharray="0 0 3.022 1.813" stroke-linecap="round" stroke-linejoin="round" stroke-width=".524"/><path d="M64.189,106.247c.139.78.235,1.289.235,1.289" fill="none" stroke="#231f20" stroke-linecap="round" stroke-linejoin="round" stroke-width=".524"/><path d="M67.909,107.862l-1.525-9.694s2.069-2.614,2.069-4.466-.327-3.812-.327-3.812l.871-3.485s-.545-8.604-3.485-13.07" fill="none" stroke="#231f20" stroke-linecap="round" stroke-linejoin="round" stroke-width=".524"/><polyline points="64.968 93.921 64.206 89.891 68.127 89.891" fill="none" stroke="#231f20" stroke-linecap="round" stroke-linejoin="round" stroke-width=".524"/><path d="M57.017,97.297l-.188-4.042c9.733-.411,9.321-14.393,9.321-14.393-.548-13.708-9.321-13.845-9.321-13.845" fill="none" stroke="#231f20" stroke-linecap="round" stroke-linejoin="round" stroke-width=".524"/><line x1="65.513" y1="86.405" x2="68.998" y2="86.405" fill="none" stroke="#231f20" stroke-linecap="round" stroke-linejoin="round" stroke-width=".524"/><line x1="53.641" y1="67.78" x2="53.641" y2="90.326" fill="none" stroke="#231f20" stroke-linecap="round" stroke-linejoin="round" stroke-width=".524"/><ellipse cx="58.106" cy="78.89" rx="2.178" ry="4.248" fill="none" stroke="#231f20" stroke-linecap="round" stroke-linejoin="round" stroke-width=".524"/><ellipse cx="136.126" cy="81.784" rx="2.31" ry="3.584" fill="none" stroke="#231f20" stroke-linecap="round" stroke-linejoin="round" stroke-width=".524"/><polygon points="291.897 51.719 297.825 47.595 305.299 51.461 305.226 61.494 298.083 65.637 291.897 61.513 291.897 51.719" fill="none" stroke="#231f20" stroke-linecap="round" stroke-linejoin="round" stroke-width=".524"/><ellipse cx="298.39" cy="106.51" rx="7.524" ry="8.145" fill="none" stroke="#231f20" stroke-linecap="round" stroke-linejoin="round" stroke-width=".524"/><path d="M272.405,105.346c-4.654,0-5.275-5.585-5.275-5.585l-.31-38.164s0-4.499,6.671-4.344" fill="none" stroke="#231f20" stroke-linecap="round" stroke-linejoin="round" stroke-width=".524"/><path d="M358.25,95.096c-1.46,3.501-3.478,5.666-5.707,5.666-4.457,0-8.07-8.661-8.07-19.345s3.613-19.345,8.07-19.345c2.207,0,4.206,2.123,5.663,5.563" fill="none" stroke="#231f20" stroke-linecap="round" stroke-linejoin="round" stroke-width=".471"/><path d="M356.659,94.235c-3.018,0-5.464-5.864-5.464-13.099s2.447-13.099,5.464-13.099" fill="none" stroke="#231f20" stroke-linecap="round" stroke-linejoin="round" stroke-width=".319"/><path d="M352.544,100.762h-3.433c-4.457,0-8.07-8.661-8.07-19.345s3.613-19.345,8.07-19.345h3.433" fill="none" stroke="#231f20" stroke-linecap="round" stroke-linejoin="round" stroke-width=".471"/><line x1="356.339" y1="68.21" x2="395.977" y2="67.464" fill="none" stroke="#231f20" stroke-linecap="round" stroke-linejoin="round" stroke-width=".371"/><line x1="356.858" y1="94.485" x2="395.865" y2="95.373" fill="none" stroke="#231f20" stroke-linecap="round" stroke-linejoin="round" stroke-width=".371"/><ellipse cx="166.29" cy="64.283" rx="3.334" ry="3.764" fill="none" stroke="#231f20" stroke-linecap="round" stroke-linejoin="round" stroke-width=".524"/><ellipse cx="167.499" cy="64.283" rx="1.271" ry="1.434" fill="none" stroke="#231f20" stroke-linecap="round" stroke-linejoin="round" stroke-width=".524"/><line x1="166.376" y1="60.384" x2="160.141" y2="60.663" fill="none" stroke="#231f20" stroke-linecap="round" stroke-linejoin="round" stroke-width=".524"/><line x1="165.911" y1="68.108" x2="160.002" y2="67.968" fill="none" stroke="#231f20" stroke-linecap="round" stroke-linejoin="round" stroke-width=".524"/><ellipse cx="166.29" cy="96.488" rx="3.334" ry="3.764" fill="none" stroke="#231f20" stroke-linecap="round" stroke-linejoin="round" stroke-width=".524"/><ellipse cx="167.499" cy="96.488" rx="1.271" ry="1.434" fill="none" stroke="#231f20" stroke-linecap="round" stroke-linejoin="round" stroke-width=".524"/><line x1="166.376" y1="92.588" x2="160.141" y2="92.868" fill="none" stroke="#231f20" stroke-linecap="round" stroke-linejoin="round" stroke-width=".524"/><line x1="165.911" y1="100.312" x2="160.002" y2="100.173" fill="none" stroke="#231f20" stroke-linecap="round" stroke-linejoin="round" stroke-width=".524"/><ellipse cx="167.457" cy="80.714" rx="3.196" ry="4.056" fill="none" stroke="#231f20" stroke-linecap="round" stroke-linejoin="round" stroke-width=".524"/><line x1="165.613" y1="101.364" x2="165.613" y2="108.494" fill="none" stroke="#231f20" stroke-linecap="round" stroke-linejoin="round" stroke-width=".524"/><line x1="165.613" y1="52.934" x2="165.613" y2="59.326" fill="none" stroke="#231f20" stroke-linecap="round" stroke-linejoin="round" stroke-width=".524"/><polygon points="161.68 74.322 172.497 70.266 172.743 91.162 161.434 86.614 161.68 74.322" fill="none" stroke="#231f20" stroke-linecap="round" stroke-linejoin="round" stroke-width=".524"/><polyline points="165.613 68.668 165.613 69.651 160.082 72.11" fill="none" stroke="#231f20" stroke-linecap="round" stroke-linejoin="round" stroke-width=".524"/><polyline points="172.545 90.988 165.368 91.039 165.613 91.9" fill="none" stroke="#231f20" stroke-linecap="round" stroke-linejoin="round" stroke-width=".524"/><polyline points="192.852 33.862 43.306 18.234 .16 23.57" fill="none" stroke="#231f20" stroke-linecap="round" stroke-linejoin="round" stroke-width=".524"/><polyline points="0 138.045 45.95 143.879 193.573 127.53" fill="none" stroke="#231f20" stroke-linecap="round" stroke-linejoin="round" stroke-width=".524"/><ellipse cx="182.305" cy="52.825" rx="4.864" ry="6.57" fill="none" stroke="#231f20" stroke-linecap="round" stroke-linejoin="round" stroke-width=".393"/><ellipse cx="182.305" cy="52.825" rx="2.308" ry="3.118" fill="none" stroke="#231f20" stroke-linecap="round" stroke-linejoin="round" stroke-width=".393"/><polygon points="335.115 92.968 298.186 93.413 306.84 81.202 298.207 68.665 335.115 68.867 335.115 58.702 352.245 81.036 335.115 103.37 335.115 92.968" fill="#231f20" stroke-width="0"/><path d="M335.639,60.247l15.945,20.789-15.945,20.789v-9.387l-36.429.439,8.27-11.67-8.27-12.011,36.429.199v-9.147M334.59,57.156v11.184l-35.375-.194-2.009-.011,1.139,1.655,7.855,11.408-7.847,11.072-1.191,1.68,2.059-.025,35.368-.427v11.417l1.881-2.453,15.945-20.789.49-.638-.49-.638-15.945-20.789-1.881-2.453h0Z" fill="#fff" stroke-width="0"/><path d="M67.249,99.476l-3.69-3.69.683-2.46-1.367-1.093s-1.824.701-3.737-.256l4.436-7.302.37-6.562-1.206-8.567s3.387.748,5.877,4.237l.82,3.963s3.417,1.777,1.777,3.963l2.323,2.187" fill="#fff" stroke-width="0"/><path d="M151.48,90.535l2.147-5.553c1.629-3.702,6.22-2.221,6.22-2.221,0,0,5.553,4.072,8.737,6.516s2.295,5.331,2.295,5.331c0,0-3.48,9.848-4.813,13.402s-4.294,3.036-4.294,3.036c0,0-63.232,4.294-72.043,4.961-8.811.666-14.364-4.517-14.364-4.517,0,0-4.813-4.517-6.96-6.59s-1.407-3.628-1.407-3.628l3.998-15.327c3.85-4.369,8.811-2.147,8.811-2.147,0,0,3.998,3.776,6.516,6.146s6.442,2.295,6.442,2.295l58.716-1.703Z" fill="none" stroke="#fff" stroke-linecap="round" stroke-linejoin="round" stroke-width="2.622"/><path d="M154.705,83.382l-3.248-2.548s-.191-.318-1.465-.701-2.866-.828-2.866-.828l-1.465-1.337-.828-3.439-5.35-3.503-2.866.318s-4.586.318-5.35,6.05c0,0-1.592,5.477,1.274,9.235l4.076,3.375s2.356-.191,2.739-.191l1.783.955,2.931,1.363,8.747-.282,1.964-8.394-.076-.075Z" fill="#fff" stroke-width="0"/><path d="M70.996,85.945l8.68,8.353s4.154,4.793,14.571,4.346" fill="none" stroke="#fff" stroke-linecap="round" stroke-linejoin="round" stroke-width="2.622"/><path d="M151.48,90.535l2.147-5.553c1.629-3.702,6.22-2.221,6.22-2.221,0,0,5.553,4.072,8.737,6.516s2.295,5.331,2.295,5.331c0,0-3.48,9.848-4.813,13.402s-4.294,3.036-4.294,3.036c0,0-63.232,4.294-72.043,4.961-8.811.666-14.364-4.517-14.364-4.517,0,0-4.813-4.517-6.96-6.59s-1.407-3.628-1.407-3.628l3.998-15.327c3.85-4.369,8.811-2.147,8.811-2.147,0,0,3.998,3.776,6.516,6.146s6.442,2.295,6.442,2.295l58.716-1.703Z" fill="#fff" stroke-width="0"/><path d="M62.739,69.546s3.387.748,5.877,4.237l.82,3.963s3.417,1.777,1.777,3.963l2.323,2.187" fill="none" stroke="#fff" stroke-linecap="round" stroke-linejoin="round" stroke-width="2.622"/><path d="M63.532,71.505c1.035.693,1.953,1.495,2.214,2.278l.82,3.963s3.417,1.777,1.777,3.963l3.417,3.143" fill="none" stroke="#fff" stroke-linecap="round" stroke-linejoin="round" stroke-width="2.622"/><path d="M67.249,99.476l-3.69-3.69.683-2.46-1.367-1.093s-1.093,1.23-3.007.273" fill="none" stroke="#fff" stroke-linecap="round" stroke-linejoin="round" stroke-width="2.622"/><line x1="65.746" y1="73.782" x2="68.616" y2="73.782" fill="none" stroke="#fff" stroke-linecap="round" stroke-linejoin="round" stroke-width="2.622"/><line x1="66.611" y1="77.796" x2="69.481" y2="77.796" fill="none" stroke="#fff" stroke-linecap="round" stroke-linejoin="round" stroke-width="2.622"/><line x1="68.439" y1="81.734" x2="71.309" y2="81.734" fill="none" stroke="#fff" stroke-linecap="round" stroke-linejoin="round" stroke-width="2.622"/><path d="M163.401,90.461l-70.637,1.777s-3.924.074-6.442-2.295-6.516-6.146-6.516-6.146c0,0-4.961-2.221-8.811,2.147l-3.998,15.327s-.74,1.555,1.407,3.628,6.96,6.59,6.96,6.59c0,0,5.553,5.183,14.364,4.517,8.811-.666,72.043-4.961,72.043-4.961,0,0,2.962.518,4.294-3.036s4.813-13.402,4.813-13.402c0,0,.889-2.888-2.295-5.331s-8.737-6.516-8.737-6.516c0,0-4.591-1.481-6.22,2.221l-2.147,5.553" fill="none" stroke="#fff" stroke-linecap="round" stroke-linejoin="round" stroke-width="2.622"/><path d="M154.705,83.382l-3.248-2.548s-.191-.318-1.465-.701-2.866-.828-2.866-.828l-1.465-1.337-.828-3.439-5.35-3.503-2.102.255,5.35,3.503.828,3.439,1.465,1.337s1.592.446,2.866.828,1.465.701,1.465.701l4.395,3.439" fill="none" stroke="#fff" stroke-linecap="round" stroke-linejoin="round" stroke-width="2.622"/><line x1="146.043" y1="90.643" x2="149.291" y2="81.281" fill="none" stroke="#fff" stroke-linecap="round" stroke-linejoin="round" stroke-width="2.622"/><path d="M136.617,71.345s-4.586.318-5.35,6.05c0,0-1.592,5.477,1.274,9.235l4.076,3.375s2.356-.191,2.739-.191l1.783.955" fill="none" stroke="#fff" stroke-linecap="round" stroke-linejoin="round" stroke-width="2.622"/><ellipse cx="136.713" cy="79.784" rx="2.388" ry="3.025" fill="none" stroke="#fff" stroke-linecap="round" stroke-linejoin="round" stroke-width="2.622"/><line x1="142.731" y1="74.784" x2="144.833" y2="74.53" fill="none" stroke="#fff" stroke-linecap="round" stroke-linejoin="round" stroke-width="2.622"/><line x1="143.559" y1="78.224" x2="145.661" y2="77.969" fill="none" stroke="#fff" stroke-linecap="round" stroke-linejoin="round" stroke-width="2.622"/><line x1="145.024" y1="79.561" x2="147.126" y2="79.306" fill="none" stroke="#fff" stroke-linecap="round" stroke-linejoin="round" stroke-width="2.622"/><line x1="147.062" y1="80.516" x2="143.814" y2="90.515" fill="none" stroke="#fff" stroke-linecap="round" stroke-linejoin="round" stroke-width="2.622"/><path d="M70.996,85.945l8.68,8.353s4.154,4.793,14.571,4.346c10.417-.447,71.895-2.684,71.895-2.684,0,0,3.579.064,4.857-2.365" fill="none" stroke="#fff" stroke-linecap="round" stroke-linejoin="round" stroke-width="2.622"/><path d="M62.739,69.546s3.387.748,5.877,4.237l.82,3.963s3.417,1.777,1.777,3.963l2.323,2.187" fill="none" stroke="#231f20" stroke-linecap="round" stroke-linejoin="round" stroke-width=".524"/><path d="M63.532,71.505c1.035.693,1.953,1.495,2.214,2.278l.82,3.963s3.417,1.777,1.777,3.963l3.417,3.143" fill="none" stroke="#231f20" stroke-linecap="round" stroke-linejoin="round" stroke-width=".524"/><path d="M67.249,99.476l-3.69-3.69.683-2.46-1.367-1.093s-1.093,1.23-3.007.273" fill="none" stroke="#231f20" stroke-linecap="round" stroke-linejoin="round" stroke-width=".524"/><line x1="65.746" y1="73.782" x2="68.616" y2="73.782" fill="none" stroke="#231f20" stroke-linecap="round" stroke-linejoin="round" stroke-width=".524"/><line x1="66.611" y1="77.796" x2="69.481" y2="77.796" fill="none" stroke="#231f20" stroke-linecap="round" stroke-linejoin="round" stroke-width=".524"/><line x1="68.439" y1="81.734" x2="71.309" y2="81.734" fill="none" stroke="#231f20" stroke-linecap="round" stroke-linejoin="round" stroke-width=".524"/><path d="M163.401,90.461l-70.637,1.777s-3.924.074-6.442-2.295-6.516-6.146-6.516-6.146c0,0-4.961-2.221-8.811,2.147l-3.998,15.327s-.74,1.555,1.407,3.628,6.96,6.59,6.96,6.59c0,0,5.553,5.183,14.364,4.517,8.811-.666,72.043-4.961,72.043-4.961,0,0,2.962.518,4.294-3.036s4.813-13.402,4.813-13.402c0,0,.889-2.888-2.295-5.331s-8.737-6.516-8.737-6.516c0,0-4.591-1.481-6.22,2.221l-2.147,5.553" fill="none" stroke="#231f20" stroke-linecap="round" stroke-linejoin="round" stroke-width=".524"/><path d="M154.705,83.382l-3.248-2.548s-.191-.318-1.465-.701-2.866-.828-2.866-.828l-1.465-1.337-.828-3.439-5.35-3.503-2.102.255,5.35,3.503.828,3.439,1.465,1.337s1.592.446,2.866.828,1.465.701,1.465.701l4.395,3.439" fill="none" stroke="#231f20" stroke-linecap="round" stroke-linejoin="round" stroke-width=".524"/><line x1="146.043" y1="90.643" x2="149.291" y2="81.281" fill="none" stroke="#231f20" stroke-linecap="round" stroke-linejoin="round" stroke-width=".524"/><path d="M136.617,71.345s-4.586.318-5.35,6.05c0,0-1.592,5.477,1.274,9.235l4.076,3.375s2.356-.191,2.739-.191l1.783.955" fill="none" stroke="#231f20" stroke-linecap="round" stroke-linejoin="round" stroke-width=".524"/><ellipse cx="136.713" cy="79.784" rx="2.388" ry="3.025" fill="none" stroke="#231f20" stroke-linecap="round" stroke-linejoin="round" stroke-width=".524"/><line x1="142.731" y1="74.784" x2="144.833" y2="74.53" fill="none" stroke="#231f20" stroke-linecap="round" stroke-linejoin="round" stroke-width=".524"/><line x1="143.559" y1="78.224" x2="145.661" y2="77.969" fill="none" stroke="#231f20" stroke-linecap="round" stroke-linejoin="round" stroke-width=".524"/><line x1="145.024" y1="79.561" x2="147.126" y2="79.306" fill="none" stroke="#231f20" stroke-linecap="round" stroke-linejoin="round" stroke-width=".524"/><line x1="147.062" y1="80.516" x2="143.814" y2="90.515" fill="none" stroke="#231f20" stroke-linecap="round" stroke-linejoin="round" stroke-width=".524"/><path d="M70.996,85.945l8.68,8.353s4.154,4.793,14.571,4.346c10.417-.447,71.895-2.684,71.895-2.684,0,0,3.579.064,4.857-2.365" fill="none" stroke="#231f20" stroke-linecap="round" stroke-linejoin="round" stroke-width=".524"/><path d="M140.398,113.617c-11.776,17.751-23.451,16.759-23.451,16.759l-24.219,1.827s12.654.704,24.43-17.047l-7.703.556,22.753-13.407,17.109,9.917-8.92,1.395Z" fill="#fff" stroke="#fff" stroke-linecap="round" stroke-linejoin="round" stroke-width="4.239"/><path d="M140.398,113.617c-11.776,17.751-23.86,17.476-23.86,17.476l-23.81,2.683s12.654-.87,24.43-18.621l-7.703.556,22.753-13.407,17.109,9.917-8.92,1.395Z" fill="#000" stroke-width="0"/><line x1="159.707" y1="42.243" x2="240.397" y2="35.359" fill="none" stroke="#fff" stroke-linecap="round" stroke-linejoin="round" stroke-width="2.098"/><line x1="159.707" y1="42.243" x2="161.014" y2="42.131" fill="none" stroke="#231f20" stroke-linecap="round" stroke-linejoin="round" stroke-width=".524"/><line x1="162.607" y1="41.996" x2="238.293" y2="35.539" fill="none" stroke="#231f20" stroke-dasharray="0 0 2.665 1.599" stroke-linecap="round" stroke-linejoin="round" stroke-width=".524"/><line x1="239.09" y1="35.471" x2="240.397" y2="35.359" fill="none" stroke="#231f20" stroke-linecap="round" stroke-linejoin="round" stroke-width=".524"/><line x1="159.707" y1="119.102" x2="241.252" y2="126.746" fill="none" stroke="#fff" stroke-dasharray="0 0 2.622 1.573" stroke-linecap="round" stroke-linejoin="round" stroke-width="2.622"/><line x1="159.707" y1="119.102" x2="161.013" y2="119.224" fill="none" stroke="#231f20" stroke-linecap="round" stroke-linejoin="round" stroke-width=".524"/><line x1="162.619" y1="119.374" x2="238.891" y2="126.486" fill="none" stroke="#231f20" stroke-dasharray="0 0 2.688 1.613" stroke-linecap="round" stroke-linejoin="round" stroke-width=".524"/><line x1="239.694" y1="126.561" x2="240.999" y2="126.683" fill="none" stroke="#231f20" stroke-linecap="round" stroke-linejoin="round" stroke-width=".524"/><path d="M198.334,102.427l15.965-8.807-2.895,6.79c.28.016.637.029,1.055.029,5.684,0,18.902-2.187,18.902-22.44v-.378h1.049v13.334c0,19.559-13.528,22.479-21.593,22.479-2.121,0-3.743-.208-4.462-.319l-4.13,8.663-3.892-19.352Z" fill="#000" stroke-width="0"/><path d="M231.886,77.622v13.334c0,19.308-13.604,21.955-21.067,21.955-2.821,0-4.765-.378-4.765-.378l-3.623,7.6-3.506-17.432,14.296-7.886-2.582,6.058s.689.092,1.821.092c5.147,0,19.426-1.899,19.426-22.965v-.378M232.935,77.622h-2.098v.378c0,19.78-12.852,21.916-18.377,21.916-.094,0-.185,0-.272-.002l1.998-4.687,1.193-2.8-2.665,1.47-14.296,7.886-.673.371.152.754,3.506,17.432.621,3.086,1.355-2.842,3.286-6.894c.853.116,2.325.27,4.155.27,3.832,0,9.361-.682,13.939-3.931,5.426-3.85,8.177-10.267,8.177-19.073v-13.334h0Z" fill="#fff" stroke-width="0"/><polygon points="136.904 134.344 70.685 141.6 96.707 143.446 162.902 136.042 136.904 134.344" fill="#231f20" stroke-width="0"/><polygon points="176.802 137.565 113.656 144.727 135.03 146.242 137.932 146.248 200.522 139.016 176.802 137.565" fill="#231f20" stroke-width="0"/><polygon points="216.286 140.972 155.152 148.156 242.848 150.308 216.286 140.972" fill="#231f20" stroke-width="0"/><circle cx="29.026" cy="162.3" r="11.3" fill="#010101" stroke="#fff" stroke-miterlimit="10" stroke-width=".81"/><g isolation="isolate"><path d="M25.624,167.005c-.63-.768-.945-1.702-.945-2.804h1.552c.066.766.209,1.321.43,1.668.385.623,1.082.934,2.089.934.782,0,1.41-.209,1.883-.628.474-.418.71-.958.71-1.618,0-.814-.249-1.385-.748-1.709-.498-.325-1.19-.487-2.077-.487-.099,0-.2,0-.301.004-.102.003-.206.007-.31.013v-1.313c.154.017.284.027.388.033s.218.008.339.008c.556,0,1.013-.088,1.371-.264.627-.309.941-.859.941-1.652,0-.589-.209-1.043-.627-1.362-.418-.319-.906-.479-1.462-.479-.991,0-1.676.33-2.056.99-.209.364-.328.882-.355,1.553h-1.47c0-.881.176-1.629.528-2.246.605-1.101,1.671-1.651,3.196-1.651,1.206,0,2.139.269,2.799.805.661.537.991,1.314.991,2.333,0,.727-.196,1.316-.586,1.768-.242.28-.556.501-.941.66.622.171,1.108.5,1.458.987s.524,1.083.524,1.788c0,1.128-.372,2.048-1.115,2.758s-1.798,1.065-3.163,1.065c-1.398,0-2.413-.384-3.043-1.152Z" fill="#fff" stroke-width="0"/></g><circle cx="213.269" cy="57.92" r="11.3" fill="#010101" stroke="#fff" stroke-miterlimit="10" stroke-width=".81"/><g isolation="isolate"><path d="M214.131,63.455v-2.891h-5.186v-1.453l5.417-7.515h1.255v7.672h1.743v1.296h-1.743v2.891h-1.486ZM214.107,59.268v-5.371l-3.791,5.371h3.791Z" fill="#fff" stroke-width="0"/></g><circle cx="376.301" cy="18.698" r="11.3" fill="#010101" stroke="#fff" stroke-miterlimit="10" stroke-width=".81"/><g isolation="isolate"><path d="M372.708,21.573c.366-.754,1.081-1.439,2.144-2.056l1.585-.917c.71-.413,1.209-.766,1.495-1.058.451-.458.677-.982.677-1.572,0-.689-.206-1.237-.619-1.643s-.964-.608-1.651-.608c-1.019,0-1.724.387-2.114,1.16-.209.414-.325.988-.347,1.723h-1.512c.017-1.03.207-1.869.57-2.52.644-1.145,1.78-1.717,3.41-1.717,1.354,0,2.344.366,2.969,1.098.625.732.938,1.547.938,2.444,0,.947-.333,1.757-.999,2.428-.386.392-1.076.864-2.073,1.421l-1.131.627c-.54.298-.964.581-1.271.851-.551.479-.897,1.011-1.041,1.594h6.458v1.404h-8.118c.056-1.019.266-1.904.632-2.659Z" fill="#fff" stroke-width="0"/></g><circle cx="321.715" cy="163.675" r="11.3" fill="#010101" stroke="#fff" stroke-miterlimit="10" stroke-width=".81"/><g isolation="isolate"><path d="M318.581,160.836v-1.14c1.073-.104,1.822-.279,2.246-.524s.74-.825.949-1.738h1.173v11.775h-1.586v-8.373h-2.782Z" fill="#fff" stroke-width="0"/></g><line x1="367.574" y1="29.153" x2="340.638" y2="48.055" fill="none" stroke="#fff" stroke-miterlimit="10" stroke-width="3"/><line x1="367.574" y1="29.153" x2="340.638" y2="48.055" fill="none" stroke="#231f20" stroke-miterlimit="10" stroke-width=".5"/><line x1="295.004" y1="137.658" x2="312.241" y2="153.439" fill="none" stroke="#fff" stroke-miterlimit="10" stroke-width="3"/><line x1="295.004" y1="137.658" x2="312.241" y2="153.439" fill="none" stroke="#231f20" stroke-miterlimit="10" stroke-width=".5"/><line x1="67.5" y1="135.478" x2="40.564" y2="154.38" fill="none" stroke="#fff" stroke-miterlimit="10" stroke-width="3"/><line x1="67.5" y1="135.478" x2="40.564" y2="154.38" fill="none" stroke="#231f20" stroke-miterlimit="10" stroke-width=".5"/><path d="M248.247,38.127c-1.103-.009-1.983-1.822-1.966-4.051s.926-4.028,2.029-4.02" fill="none" stroke="#231f20" stroke-linecap="round" stroke-linejoin="round" stroke-width=".524"/><path d="M246.023,38.324c-1.103-.009-1.983-1.822-1.966-4.051s.926-4.028,2.029-4.02" fill="none" stroke="#231f20" stroke-linecap="round" stroke-linejoin="round" stroke-width=".524"/><path d="M249.438,29.887l-5.577.565c-1.103-.009-2.011,1.791-2.029,4.02-.018,2.229.863,4.042,1.966,4.051l5.581-.367" fill="none" stroke="#231f20" stroke-linecap="round" stroke-linejoin="round" stroke-width=".524"/><ellipse cx="289.674" cy="31.909" rx="4.192" ry="7.65" transform="translate(-.868 9.219) rotate(-1.821)" fill="none" stroke="#231f20" stroke-linecap="round" stroke-linejoin="round" stroke-width=".642"/><path d="M289.331,24.263l-9.933.008c-2.314.074-4.081,3.557-3.947,7.78.134,4.223,2.119,7.587,4.433,7.513l9.989-.044" fill="none" stroke="#231f20" stroke-linecap="round" stroke-linejoin="round" stroke-width=".642"/><ellipse cx="290.019" cy="31.91" rx="2.482" ry="4.53" transform="translate(-.867 9.23) rotate(-1.821)" fill="none" stroke="#231f20" stroke-linecap="round" stroke-linejoin="round" stroke-width=".38"/><line x1="288.724" y1="28.244" x2="291.881" y2="35.18" fill="none" stroke="#231f20" stroke-linecap="round" stroke-linejoin="round" stroke-width=".38"/><line x1="288.411" y1="35.334" x2="291.897" y2="29.181" fill="none" stroke="#231f20" stroke-linecap="round" stroke-linejoin="round" stroke-width=".38"/><line x1="277.602" y1="25.435" x2="286.945" y2="25.435" fill="none" stroke="#231f20" stroke-linecap="round" stroke-linejoin="round" stroke-width=".38"/><line x1="276.846" y1="26.534" x2="286.189" y2="26.534" fill="none" stroke="#231f20" stroke-linecap="round" stroke-linejoin="round" stroke-width=".38"/><line x1="276.296" y1="27.633" x2="285.639" y2="27.633" fill="none" stroke="#231f20" stroke-linecap="round" stroke-linejoin="round" stroke-width=".38"/><line x1="276.022" y1="28.732" x2="285.365" y2="28.732" fill="none" stroke="#231f20" stroke-linecap="round" stroke-linejoin="round" stroke-width=".38"/><line x1="275.854" y1="29.831" x2="285.197" y2="29.831" fill="none" stroke="#231f20" stroke-linecap="round" stroke-linejoin="round" stroke-width=".38"/><line x1="275.815" y1="30.931" x2="285.158" y2="30.931" fill="none" stroke="#231f20" stroke-linecap="round" stroke-linejoin="round" stroke-width=".38"/><line x1="275.747" y1="32.03" x2="285.09" y2="32.03" fill="none" stroke="#231f20" stroke-linecap="round" stroke-linejoin="round" stroke-width=".38"/><line x1="275.815" y1="33.129" x2="285.158" y2="33.129" fill="none" stroke="#231f20" stroke-linecap="round" stroke-linejoin="round" stroke-width=".38"/><line x1="276.09" y1="34.228" x2="285.433" y2="34.228" fill="none" stroke="#231f20" stroke-linecap="round" stroke-linejoin="round" stroke-width=".38"/><line x1="276.228" y1="35.327" x2="285.571" y2="35.327" fill="none" stroke="#231f20" stroke-linecap="round" stroke-linejoin="round" stroke-width=".38"/><line x1="276.64" y1="36.427" x2="285.983" y2="36.427" fill="none" stroke="#231f20" stroke-linecap="round" stroke-linejoin="round" stroke-width=".38"/><line x1="277.121" y1="37.526" x2="286.464" y2="37.526" fill="none" stroke="#231f20" stroke-linecap="round" stroke-linejoin="round" stroke-width=".38"/><line x1="278.22" y1="38.625" x2="287.563" y2="38.625" fill="none" stroke="#231f20" stroke-linecap="round" stroke-linejoin="round" stroke-width=".38"/><path d="M249.824,132.102c-1.076-.188-1.689-2.147-1.368-4.375.26-1.811,1.057-3.243,1.923-3.616" fill="none" stroke="#231f20" stroke-linecap="round" stroke-linejoin="round" stroke-width=".524"/><path d="M247.624,131.939c-1.076-.188-1.689-2.147-1.368-4.375s1.453-3.884,2.529-3.696" fill="none" stroke="#231f20" stroke-linecap="round" stroke-linejoin="round" stroke-width=".524"/><path d="M245.425,131.776c-1.076-.188-1.689-2.147-1.368-4.375s1.453-3.884,2.529-3.696" fill="none" stroke="#231f20" stroke-linecap="round" stroke-linejoin="round" stroke-width=".524"/><path d="M250.604,132.307l-7.379-.694c-1.076-.188-1.689-2.147-1.368-4.375s1.453-3.884,2.529-3.696l6.155.487" fill="none" stroke="#231f20" stroke-linecap="round" stroke-linejoin="round" stroke-width=".524"/><ellipse cx="288.833" cy="131.772" rx="7.65" ry="4.192" transform="translate(142.929 413.73) rotate(-87.163)" fill="none" stroke="#231f20" stroke-linecap="round" stroke-linejoin="round" stroke-width=".642"/><path d="M289.112,124.122l-9.9-.799c-2.312-.115-4.356,3.214-4.565,7.433-.209,4.22,1.496,7.734,3.808,7.848l9.959.767" fill="none" stroke="#231f20" stroke-linecap="round" stroke-linejoin="round" stroke-width=".642"/><ellipse cx="289.177" cy="131.8" rx="4.53" ry="2.482" transform="translate(143.228 414.101) rotate(-87.163)" fill="none" stroke="#231f20" stroke-linecap="round" stroke-linejoin="round" stroke-width=".38"/><line x1="288.184" y1="128.041" x2="290.767" y2="135.21" fill="none" stroke="#231f20" stroke-linecap="round" stroke-linejoin="round" stroke-width=".38"/><line x1="287.296" y1="135.082" x2="291.27" y2="129.233" fill="none" stroke="#231f20" stroke-linecap="round" stroke-linejoin="round" stroke-width=".38"/><line x1="277.326" y1="124.338" x2="286.638" y2="125.097" fill="none" stroke="#231f20" stroke-linecap="round" stroke-linejoin="round" stroke-width=".38"/><line x1="276.484" y1="125.372" x2="285.796" y2="126.131" fill="none" stroke="#231f20" stroke-linecap="round" stroke-linejoin="round" stroke-width=".38"/><line x1="275.847" y1="126.423" x2="285.159" y2="127.182" fill="none" stroke="#231f20" stroke-linecap="round" stroke-linejoin="round" stroke-width=".38"/><line x1="275.484" y1="127.496" x2="284.796" y2="128.255" fill="none" stroke="#231f20" stroke-linecap="round" stroke-linejoin="round" stroke-width=".38"/><line x1="275.227" y1="128.578" x2="284.539" y2="129.337" fill="none" stroke="#231f20" stroke-linecap="round" stroke-linejoin="round" stroke-width=".38"/><line x1="275.1" y1="129.671" x2="284.412" y2="130.429" fill="none" stroke="#231f20" stroke-linecap="round" stroke-linejoin="round" stroke-width=".38"/><line x1="274.942" y1="130.761" x2="284.254" y2="131.519" fill="none" stroke="#231f20" stroke-linecap="round" stroke-linejoin="round" stroke-width=".38"/><line x1="274.921" y1="131.862" x2="284.233" y2="132.62" fill="none" stroke="#231f20" stroke-linecap="round" stroke-linejoin="round" stroke-width=".38"/><line x1="275.106" y1="132.98" x2="284.418" y2="133.738" fill="none" stroke="#231f20" stroke-linecap="round" stroke-linejoin="round" stroke-width=".38"/><line x1="275.153" y1="134.086" x2="284.466" y2="134.845" fill="none" stroke="#231f20" stroke-linecap="round" stroke-linejoin="round" stroke-width=".38"/><line x1="275.475" y1="135.215" x2="284.787" y2="135.974" fill="none" stroke="#231f20" stroke-linecap="round" stroke-linejoin="round" stroke-width=".38"/><line x1="275.865" y1="136.35" x2="285.177" y2="137.109" fill="none" stroke="#231f20" stroke-linecap="round" stroke-linejoin="round" stroke-width=".38"/><line x1="276.871" y1="137.535" x2="286.184" y2="138.293" fill="none" stroke="#231f20" stroke-linecap="round" stroke-linejoin="round" stroke-width=".38"/></svg>