<?xml version="1.0" encoding="UTF-8"?><svg id="a" xmlns="http://www.w3.org/2000/svg" width="4in" height="3.75in" xmlns:xlink="http://www.w3.org/1999/xlink" viewBox="0 0 288 270"><defs><clipPath id="b"><rect x="10.48" y="-1.527" width="270.927" height="250.357" fill="none" stroke-width="0"/></clipPath></defs><g clip-path="url(#b)"><path d="M88.661,198.694l-3.95-132.755s-1.03-2.92-4.465-2.748v-2.061s5.839.859,4.809-7.041l-.859-8.759s-1.03-3.091-2.576-3.091l1.889-9.617v-5.839s5.324.172,5.324.172l.172-5.667s.343-2.92,8.93-2.748l8.759.172,1.202-2.92,12.194-1.717s2.748-.343,4.122,1.546l13.739-2.748,26.791.343,14.941,1.03,1.374,1.546v9.789s-4.293,14.083-4.293,14.083l2.061,1.889s3.435.515,3.95,5.496,1.202,13.911,1.202,13.911c0,0-1.374,3.95-7.557,3.95l2.92,136.018,13.396-6.698-1.03-4.122,23.013-12.022,8.759-5.839s-1.717-8.072-7.557-13.567c0,0-1.374-3.607-1.202-6.011,0,0,7.728-4.637,14.083-2.748,0,0,7.385.515,11.85,7.041l5.152,15.113,4.122,3.263,10.133-1.374,2.233,4.809s-.687,5.667-6.698,8.587c-6.011,2.92-84.668,49.117-84.668,49.117l-27.307,7.557h-6.354s-3.435-2.748-3.607-5.324l9.274-5.667-1.889-1.374s-2.576,1.717-3.607.859-.687-2.061-.687-2.061l-5.667-3.091v-4.122s-3.778.515-3.778.515l-3.263-2.233-8.415-2.404-3.778-6.011s-2.404-3.607-5.839-6.011-11.85-7.728-11.85-7.728l-2.061,1.202-3.435-1.889Z" fill="#cfd1d2" stroke-width="0"/><line x1="95.627" y1="201.469" x2="11.197" y2="217.729" fill="#fff" stroke="#231f20" stroke-miterlimit="10" stroke-width=".5"/><line x1="203.933" y1="180.612" x2="178.669" y2="185.46" fill="#fff" stroke="#231f20" stroke-miterlimit="10" stroke-width=".5"/><line x1="279.806" y1="166" x2="249.873" y2="171.764" fill="#fff" stroke="#231f20" stroke-miterlimit="10" stroke-width=".5"/><path d="M81.972,41.698s1.396-7.627,1.396-9.272v-4.486s0-5.982,0-5.982c0-2.393-3.489-2.099-3.489-2.099l-28.709-.043s-1.919.08-2.64,1.161v4.146s-.599,5.105-4.326,11.087l2.271,17.197s.819,7.135.905,11.408" fill="none" stroke="#231f20" stroke-linecap="round" stroke-linejoin="round" stroke-width=".5"/><path d="M79.935,41.829l-26.49.342s-4.358.085-4.529,4.614l.855,12.305s.342,2.494,4.529,2.408,27.344-.769,27.344-.769c0,0,4.102.583,3.504-4.545s-.684-6.751-.769-9.143-.513-5.213-4.443-5.213Z" fill="none" stroke="#231f20" stroke-linecap="round" stroke-linejoin="round" stroke-width=".5"/><line x1="81.82" y1="50.937" x2="52.984" y2="51.174" fill="none" stroke="#231f20" stroke-linecap="round" stroke-linejoin="round" stroke-width=".5"/><line x1="81.702" y1="48.682" x2="52.865" y2="48.919" fill="none" stroke="#231f20" stroke-linecap="round" stroke-linejoin="round" stroke-width=".5"/><line x1="81.583" y1="46.19" x2="52.747" y2="46.427" fill="none" stroke="#231f20" stroke-linecap="round" stroke-linejoin="round" stroke-width=".5"/><path d="M85.769,203.082s2.876-.799,2.716-6.552c-.16-5.753-3.675-128.314-3.675-128.314,0,0,.959-4.954-3.995-4.954s-25.887.799-25.887.799c0,0-5.753-.639-5.273,5.273s3.835,134.226,3.835,134.226c0,0-.32,4.634,3.835,4.954" fill="none" stroke="#231f20" stroke-linecap="round" stroke-linejoin="round" stroke-width=".5"/><polygon points="81.295 73.81 75.542 68.057 69.79 74.129 76.181 91.547 81.295 73.81" fill="none" stroke="#231f20" stroke-linecap="round" stroke-linejoin="round" stroke-width=".5"/><polygon points="66.114 73.969 60.362 68.217 54.609 74.289 61.001 91.706 66.114 73.969" fill="none" stroke="#231f20" stroke-linecap="round" stroke-linejoin="round" stroke-width=".5"/><polygon points="82.733 113.758 76.98 108.005 71.228 114.078 77.619 131.495 82.733 113.758" fill="none" stroke="#231f20" stroke-linecap="round" stroke-linejoin="round" stroke-width=".5"/><polygon points="67.233 114.717 61.48 108.964 55.728 115.036 62.119 132.454 67.233 114.717" fill="none" stroke="#231f20" stroke-linecap="round" stroke-linejoin="round" stroke-width=".5"/><polygon points="83.58 153.275 77.828 147.841 72.075 153.577 78.467 170.032 83.58 153.275" fill="none" stroke="#231f20" stroke-linecap="round" stroke-linejoin="round" stroke-width=".5"/><polygon points="68.08 154.552 62.328 148.8 56.575 154.872 62.967 172.289 68.08 154.552" fill="none" stroke="#231f20" stroke-linecap="round" stroke-linejoin="round" stroke-width=".5"/><polygon points="64.349 143.902 70.101 149.655 75.854 143.582 69.462 126.165 64.349 143.902" fill="none" stroke="#231f20" stroke-linecap="round" stroke-linejoin="round" stroke-width=".5"/><polygon points="63.269 103.433 69.022 109.185 74.774 103.113 68.383 85.696 63.269 103.433" fill="none" stroke="#231f20" stroke-linecap="round" stroke-linejoin="round" stroke-width=".5"/><rect x="68.875" y="22.071" width="5.806" height="3.871" rx=".886" ry=".886" transform="translate(143.557 48.013) rotate(180)" fill="none" stroke="#231f20" stroke-linecap="round" stroke-linejoin="round" stroke-width=".5"/><rect x="58.783" y="22.071" width="5.806" height="3.871" rx=".886" ry=".886" transform="translate(123.373 48.013) rotate(180)" fill="none" stroke="#231f20" stroke-linecap="round" stroke-linejoin="round" stroke-width=".5"/><path d="M83.98,176.873s-.25-2.503-1.585-2.503-22.109,3.003-22.109,3.003c0,0-1.835.083-1.752,2.503s.667,17.854.667,17.854c0,0,.083,2.67,2.086,2.419,2.002-.25,21.608-3.504,21.608-3.504,0,0,1.585-.584,1.585-2.419,0-1.835-.501-17.353-.501-17.353Z" fill="none" stroke="#231f20" stroke-linecap="round" stroke-linejoin="round" stroke-width=".5"/><path d="M39.108,43.339s1.539-8.09,1.539-9.833v-4.758s0-6.344,0-6.344c0-2.538-3.847-2.226-3.847-2.226l-31.655-.046s-2.116.085-2.911,1.232v4.397s-.661,5.414-4.77,11.758L-.034,55.758s.903,7.567.998,12.099" fill="none" stroke="#231f20" stroke-linecap="round" stroke-linejoin="round" stroke-width=".5"/><path d="M36.863,43.477l-29.209.363s-4.805.091-4.994,4.894l.942,13.051s.377,2.645,4.994,2.554,30.151-.816,30.151-.816c0,0,4.523.618,3.863-4.82-.66-5.438-.754-7.16-.848-9.697-.094-2.538-.565-5.528-4.9-5.528Z" fill="none" stroke="#231f20" stroke-linecap="round" stroke-linejoin="round" stroke-width=".5"/><line x1="38.941" y1="53.137" x2="7.145" y2="53.389" fill="none" stroke="#231f20" stroke-linecap="round" stroke-linejoin="round" stroke-width=".5"/><line x1="38.81" y1="50.746" x2="7.014" y2="50.998" fill="none" stroke="#231f20" stroke-linecap="round" stroke-linejoin="round" stroke-width=".5"/><line x1="38.679" y1="48.103" x2="6.883" y2="48.355" fill="none" stroke="#231f20" stroke-linecap="round" stroke-linejoin="round" stroke-width=".5"/><path d="M11.932,217.476c-4.581-.339-4.229-5.254-4.229-5.254,0,0-3.7-133.301-4.229-139.572-.529-6.271,5.814-5.593,5.814-5.593,0,0,23.081-.847,28.543-.847,5.462,0,4.405,5.254,4.405,5.254,0,0,3.876,126.954,4.052,133.055,0,0,.25,5.507-2.503,6.687" fill="none" stroke="#231f20" stroke-linecap="round" stroke-linejoin="round" stroke-width=".5"/><polygon points="38.361 77.396 32.018 71.295 25.675 77.735 32.723 96.208 38.361 77.396" fill="none" stroke="#231f20" stroke-linecap="round" stroke-linejoin="round" stroke-width=".5"/><polygon points="21.623 77.565 15.28 71.464 8.937 77.904 15.985 96.377 21.623 77.565" fill="none" stroke="#231f20" stroke-linecap="round" stroke-linejoin="round" stroke-width=".5"/><polygon points="39.947 119.765 33.604 113.664 27.261 120.104 34.309 138.577 39.947 119.765" fill="none" stroke="#231f20" stroke-linecap="round" stroke-linejoin="round" stroke-width=".5"/><polygon points="22.856 120.782 16.513 114.681 10.17 121.121 17.218 139.594 22.856 120.782" fill="none" stroke="#231f20" stroke-linecap="round" stroke-linejoin="round" stroke-width=".5"/><polygon points="40.882 161.677 34.539 155.913 28.196 161.997 35.243 179.449 40.882 161.677" fill="none" stroke="#231f20" stroke-linecap="round" stroke-linejoin="round" stroke-width=".5"/><polygon points="23.791 163.031 17.448 156.93 11.105 163.37 18.153 181.843 23.791 163.031" fill="none" stroke="#231f20" stroke-linecap="round" stroke-linejoin="round" stroke-width=".5"/><polygon points="19.676 151.735 26.019 157.837 32.362 151.397 25.314 132.924 19.676 151.735" fill="none" stroke="#231f20" stroke-linecap="round" stroke-linejoin="round" stroke-width=".5"/><polygon points="18.486 108.814 24.829 114.915 31.172 108.475 24.124 90.002 18.486 108.814" fill="none" stroke="#231f20" stroke-linecap="round" stroke-linejoin="round" stroke-width=".5"/><rect x="24.667" y="22.522" width="6.402" height="4.105" rx=".923" ry=".923" transform="translate(55.736 49.15) rotate(-180)" fill="none" stroke="#231f20" stroke-linecap="round" stroke-linejoin="round" stroke-width=".5"/><rect x="13.54" y="22.522" width="6.402" height="4.105" rx=".923" ry=".923" transform="translate(33.481 49.15) rotate(-180)" fill="none" stroke="#231f20" stroke-linecap="round" stroke-linejoin="round" stroke-width=".5"/><path d="M41.323,186.704s-.276-2.655-1.748-2.655c-1.472,0-24.378,3.185-24.378,3.185,0,0-2.024.088-1.932,2.655.092,2.566.736,18.936.736,18.936,0,0,.092,2.832,2.3,2.566,2.208-.265,23.826-3.716,23.826-3.716,0,0,1.748-.619,1.748-2.566s-.552-18.405-.552-18.405Z" fill="none" stroke="#231f20" stroke-linecap="round" stroke-linejoin="round" stroke-width=".5"/><path d="M150.939,65.131c.274-.014.566.032.879.024,4.314-.102,28.173-.92,28.173-.92,0,0,4.226.697,3.61-5.434-.616-6.131-.704-8.072-.792-10.934s-.528-6.233-4.578-6.233l-27.293.409s-.281.006-.704.101c0,0-4.79-.938-4.661,4.888s1.036,10.099.906,11.782,1.295,6.474,4.46,6.317Z" fill="none" stroke="#231f20" stroke-linecap="round" stroke-linejoin="round" stroke-width=".5"/><line x1="179.785" y1="50.583" x2="148.81" y2="51.045" fill="none" stroke="#231f20" stroke-linecap="round" stroke-linejoin="round" stroke-width=".5"/><line x1="179.792" y1="47.887" x2="149.069" y2="48.197" fill="none" stroke="#231f20" stroke-linecap="round" stroke-linejoin="round" stroke-width=".5"/><line x1="179.54" y1="45.037" x2="149.069" y2="45.348" fill="none" stroke="#231f20" stroke-linecap="round" stroke-linejoin="round" stroke-width=".5"/><path d="M141.875,45.965c-.119-6.669,5.409-6.697,5.409-6.697l29.63.056s4.101-12.208,4.101-13.715v-4.113s0-5.484,0-5.484c0-2.193-3.737-1.924-3.737-1.924l-30.743-.04s-2.055.073-2.827,1.065v3.801s-.642,4.68-4.633,10.164l1.806,11.944s1.899,10.805,1.896,16.543l2.458,166.833s.417,5.679-2.409,8.27" fill="none" stroke="#231f20" stroke-linecap="round" stroke-linejoin="round" stroke-width=".5"/><rect x="165.914" y="16.388" width="6.229" height="4.284" rx=".813" ry=".813" transform="translate(338.057 37.059) rotate(180)" fill="none" stroke="#231f20" stroke-linecap="round" stroke-linejoin="round" stroke-width=".5"/><rect x="155.087" y="16.388" width="6.229" height="4.284" rx=".813" ry=".813" transform="translate(316.402 37.059) rotate(180)" fill="none" stroke="#231f20" stroke-linecap="round" stroke-linejoin="round" stroke-width=".5"/><path d="M192.349,38.648s1.125-6.751,1.125-8.207v-3.971s0-5.295,0-5.295c0-2.118-2.813-1.858-2.813-1.858l-8.252-.014" fill="none" stroke="#231f20" stroke-linecap="round" stroke-linejoin="round" stroke-width=".5"/><path d="M184.889,55.724c3.993-.127,7.197-.231,7.197-.231,0,0,3.307.516,2.824-4.023s-.551-5.975-.62-8.093c-.069-2.118-.413-4.614-3.582-4.614l-11.167.158" fill="none" stroke="#231f20" stroke-linecap="round" stroke-linejoin="round" stroke-width=".5"/><line x1="192.227" y1="46.825" x2="185.274" y2="46.888" fill="none" stroke="#231f20" stroke-linecap="round" stroke-linejoin="round" stroke-width=".5"/><line x1="192.131" y1="44.829" x2="185.276" y2="44.891" fill="none" stroke="#231f20" stroke-linecap="round" stroke-linejoin="round" stroke-width=".5"/><line x1="192.036" y1="42.624" x2="185.149" y2="42.686" fill="none" stroke="#231f20" stroke-linecap="round" stroke-linejoin="round" stroke-width=".5"/><path d="M176.93,65.238c.266,9.37,1.463,106.701,2.096,135.008" fill="none" stroke="#231f20" stroke-linecap="round" stroke-linejoin="round" stroke-width=".5"/><path d="M176.729,201.755l-.2-17.271-2.045-.737c-.053-3.152-.108-5.551-.165-9.092l1.767-.334v-17.751s-2.039-.696-2.039-.696c-.048-3.241-.097-5.587-.145-8.914l1.902-1.001-.267-17.084-1.897-1.141c-.048-3.415-.096-6.804-.143-10.135l1.728-.037-.078-18.243-1.877-.427c-.058-4.109-.114-4.68-.167-8.308l1.837-.742-.339-17.782-1.775-.334c-.052-3.088-.094-5.277-.124-6.338" fill="none" stroke="#231f20" stroke-linecap="round" stroke-linejoin="round" stroke-width=".5"/><path d="M195.41,181.498s2.319-.707,2.19-5.799c-.129-5.092-2.963-113.578-2.963-113.578,0,0,.773-4.385-3.22-4.385-1.328,0-4.079.078-7.162.183" fill="none" stroke="#231f20" stroke-linecap="round" stroke-linejoin="round" stroke-width=".5"/><polygon points="191.803 67.071 187.166 61.979 182.528 67.354 187.681 82.771 191.803 67.071" fill="none" stroke="#231f20" stroke-linecap="round" stroke-linejoin="round" stroke-width=".5"/><polyline points="178.316 71.972 179.566 67.213 178.245 65.763" fill="none" stroke="#231f20" stroke-linecap="round" stroke-linejoin="round" stroke-width=".5"/><polygon points="192.963 102.432 188.325 97.34 183.688 102.715 188.841 118.132 192.963 102.432" fill="none" stroke="#231f20" stroke-linecap="round" stroke-linejoin="round" stroke-width=".5"/><polyline points="179.061 108.638 180.467 103.281 178.923 101.584" fill="none" stroke="#231f20" stroke-linecap="round" stroke-linejoin="round" stroke-width=".5"/><polygon points="193.646 137.411 189.009 132.601 184.371 137.679 189.524 152.244 193.646 137.411" fill="none" stroke="#231f20" stroke-linecap="round" stroke-linejoin="round" stroke-width=".5"/><polyline points="178.927 147.011 181.151 138.541 179.344 136.558" fill="none" stroke="#231f20" stroke-linecap="round" stroke-linejoin="round" stroke-width=".5"/><polygon points="178.142 129.114 182.78 134.206 187.417 128.831 182.265 113.414 178.142 129.114" fill="none" stroke="#231f20" stroke-linecap="round" stroke-linejoin="round" stroke-width=".5"/><polyline points="179.05 95.245 181.909 98.384 186.547 93.01 181.394 77.592 178.796 87.49" fill="none" stroke="#231f20" stroke-linecap="round" stroke-linejoin="round" stroke-width=".5"/><rect x="181.791" y="21.274" width="4.681" height="3.426" rx=".785" ry=".785" transform="translate(368.263 45.975) rotate(180)" fill="none" stroke="#231f20" stroke-linecap="round" stroke-linejoin="round" stroke-width=".5"/><path d="M178.901,178.355c5.096-.897,14.194-2.555,14.194-2.555,0,0,1.278-.517,1.278-2.142,0-1.625-.404-15.36-.404-15.36,0,0-.202-2.215-1.278-2.215-.45,0-3.635.464-7.191,1.004" fill="none" stroke="#231f20" stroke-linecap="round" stroke-linejoin="round" stroke-width=".5"/><path d="M224.839,38.156s1.041-6.47,1.041-7.864v-3.805s0-5.074,0-5.074c0-2.029-2.604-1.78-2.604-1.78l-21.421-.037s-1.432.068-1.97.985v3.517s-.447,4.33-3.228,9.404l1.694,14.586s.611,6.052.675,9.676" fill="none" stroke="#231f20" stroke-linecap="round" stroke-linejoin="round" stroke-width=".5"/><path d="M223.319,38.267l-19.766.29s-3.252.072-3.379,3.914l.638,10.437s.255,2.115,3.379,2.043,20.403-.652,20.403-.652c0,0,3.061.494,2.614-3.855-.446-4.349-.51-5.726-.574-7.755s-.383-4.421-3.316-4.421Z" fill="none" stroke="#231f20" stroke-linecap="round" stroke-linejoin="round" stroke-width=".5"/><line x1="224.726" y1="45.992" x2="203.209" y2="46.194" fill="none" stroke="#231f20" stroke-linecap="round" stroke-linejoin="round" stroke-width=".5"/><line x1="224.637" y1="44.08" x2="203.12" y2="44.281" fill="none" stroke="#231f20" stroke-linecap="round" stroke-linejoin="round" stroke-width=".5"/><line x1="224.548" y1="41.966" x2="203.032" y2="42.167" fill="none" stroke="#231f20" stroke-linecap="round" stroke-linejoin="round" stroke-width=".5"/><path d="M229.152,147.723c-.802-31.835-2.196-87.074-2.196-87.074,0,0,.715-4.202-2.981-4.202s-19.316.678-19.316.678c0,0-4.292-.542-3.935,4.473.358,5.015,2.862,113.851,2.862,113.851,0,0-.238,3.931,2.862,4.202" fill="none" stroke="#231f20" stroke-linecap="round" stroke-linejoin="round" stroke-width=".5"/><polygon points="224.333 65.393 220.041 60.514 215.749 65.664 220.518 80.438 224.333 65.393" fill="none" stroke="#231f20" stroke-linecap="round" stroke-linejoin="round" stroke-width=".5"/><polygon points="213.006 65.529 208.714 60.649 204.422 65.8 209.191 80.573 213.006 65.529" fill="none" stroke="#231f20" stroke-linecap="round" stroke-linejoin="round" stroke-width=".5"/><polygon points="225.406 99.277 221.114 94.398 216.822 99.548 221.591 114.322 225.406 99.277" fill="none" stroke="#231f20" stroke-linecap="round" stroke-linejoin="round" stroke-width=".5"/><polygon points="213.841 100.09 209.549 95.211 205.256 100.362 210.025 115.135 213.841 100.09" fill="none" stroke="#231f20" stroke-linecap="round" stroke-linejoin="round" stroke-width=".5"/><polygon points="226.039 132.796 221.747 128.186 217.454 133.052 222.223 147.009 226.039 132.796" fill="none" stroke="#231f20" stroke-linecap="round" stroke-linejoin="round" stroke-width=".5"/><polygon points="214.473 133.879 210.181 129 205.889 134.15 210.658 148.923 214.473 133.879" fill="none" stroke="#231f20" stroke-linecap="round" stroke-linejoin="round" stroke-width=".5"/><polygon points="211.689 124.845 215.981 129.725 220.274 124.574 215.504 109.801 211.689 124.845" fill="none" stroke="#231f20" stroke-linecap="round" stroke-linejoin="round" stroke-width=".5"/><polygon points="210.883 90.519 215.176 95.399 219.468 90.248 214.699 75.475 210.883 90.519" fill="none" stroke="#231f20" stroke-linecap="round" stroke-linejoin="round" stroke-width=".5"/><rect x="215.066" y="21.508" width="4.332" height="3.283" rx=".752" ry=".752" transform="translate(434.465 46.3) rotate(-180)" fill="none" stroke="#231f20" stroke-linecap="round" stroke-linejoin="round" stroke-width=".5"/><rect x="207.536" y="21.508" width="4.332" height="3.283" rx=".752" ry=".752" transform="translate(419.405 46.3) rotate(-180)" fill="none" stroke="#231f20" stroke-linecap="round" stroke-linejoin="round" stroke-width=".5"/><path d="M215.041,152.2c-3.419.548-6.383,1.035-6.383,1.035,0,0-1.37.071-1.307,2.123s.498,15.144.498,15.144c0,0,.062,2.264,1.556,2.052" fill="none" stroke="#231f20" stroke-linecap="round" stroke-linejoin="round" stroke-width=".5"/><path d="M253.264,37.556s.943-6.207.943-7.545c0-.811,0-3.651,0-3.651v-4.868c0-1.947-2.357-1.708-2.357-1.708l-19.393-.035s-1.296.065-1.784.945v3.374s-.405,4.154-2.923,9.022l1.534,13.994s.553,5.806.611,9.283" fill="none" stroke="#231f20" stroke-linecap="round" stroke-linejoin="round" stroke-width=".5"/><path d="M251.888,37.662l-17.895.278s-2.944.07-3.059,3.755l.577,10.014s.231,2.029,3.059,1.96,18.472-.626,18.472-.626c0,0,2.771.474,2.367-3.698-.404-4.172-.462-5.494-.52-7.441s-.346-4.242-3.002-4.242Z" fill="none" stroke="#231f20" stroke-linecap="round" stroke-linejoin="round" stroke-width=".5"/><line x1="253.162" y1="45.074" x2="233.682" y2="45.267" fill="none" stroke="#231f20" stroke-linecap="round" stroke-linejoin="round" stroke-width=".5"/><line x1="253.082" y1="43.239" x2="233.602" y2="43.433" fill="none" stroke="#231f20" stroke-linecap="round" stroke-linejoin="round" stroke-width=".5"/><line x1="253.001" y1="41.211" x2="233.522" y2="41.405" fill="none" stroke="#231f20" stroke-linecap="round" stroke-linejoin="round" stroke-width=".5"/><path d="M255.829,170.182s1.943-.65,1.835-5.332c-.108-4.681-2.483-105.714-2.483-105.714,0,0,.648-4.031-2.699-4.031s-17.487.65-17.487.65c0,0-3.886-.52-3.562,4.291.232,3.444,1.459,58.325,2.138,89.237" fill="none" stroke="#231f20" stroke-linecap="round" stroke-linejoin="round" stroke-width=".5"/><polygon points="252.807 63.688 248.921 59.007 245.035 63.948 249.352 78.122 252.807 63.688" fill="none" stroke="#231f20" stroke-linecap="round" stroke-linejoin="round" stroke-width=".5"/><polygon points="242.552 63.818 238.666 59.137 234.78 64.078 239.098 78.252 242.552 63.818" fill="none" stroke="#231f20" stroke-linecap="round" stroke-linejoin="round" stroke-width=".5"/><polygon points="253.778 96.197 249.892 91.516 246.006 96.457 250.324 110.632 253.778 96.197" fill="none" stroke="#231f20" stroke-linecap="round" stroke-linejoin="round" stroke-width=".5"/><polygon points="243.307 96.978 239.421 92.296 235.535 97.238 239.853 111.412 243.307 96.978" fill="none" stroke="#231f20" stroke-linecap="round" stroke-linejoin="round" stroke-width=".5"/><polygon points="254.351 128.356 250.465 123.934 246.579 128.602 250.896 141.993 254.351 128.356" fill="none" stroke="#231f20" stroke-linecap="round" stroke-linejoin="round" stroke-width=".5"/><polygon points="243.88 129.395 239.994 124.714 236.108 129.655 240.426 143.83 243.88 129.395" fill="none" stroke="#231f20" stroke-linecap="round" stroke-linejoin="round" stroke-width=".5"/><polygon points="241.359 120.728 245.245 125.41 249.131 120.468 244.813 106.294 241.359 120.728" fill="none" stroke="#231f20" stroke-linecap="round" stroke-linejoin="round" stroke-width=".5"/><polygon points="240.63 87.795 244.516 92.476 248.402 87.535 244.084 73.361 240.63 87.795" fill="none" stroke="#231f20" stroke-linecap="round" stroke-linejoin="round" stroke-width=".5"/><rect x="244.417" y="21.584" width="3.922" height="3.15" rx=".721" ry=".721" transform="translate(492.756 46.317) rotate(-180)" fill="none" stroke="#231f20" stroke-linecap="round" stroke-linejoin="round" stroke-width=".5"/><rect x="237.6" y="21.584" width="3.922" height="3.15" rx=".721" ry=".721" transform="translate(479.122 46.317) rotate(-180)" fill="none" stroke="#231f20" stroke-linecap="round" stroke-linejoin="round" stroke-width=".5"/><path d="M246.545,165.109c3.673-.725,7.343-1.458,7.343-1.458,0,0,1.071-.475,1.071-1.969,0-1.494-.338-14.122-.338-14.122,0,0-.169-2.037-1.071-2.037s-14.935,2.444-14.935,2.444c0,0-1.24.068-1.184,2.037.014.506.051,1.709.098,3.219" fill="none" stroke="#231f20" stroke-linecap="round" stroke-linejoin="round" stroke-width=".5"/><path d="M281.216,36.927s.909-6.015.909-7.312c0-.786,0-3.538,0-3.538v-4.717c0-1.887-2.273-1.655-2.273-1.655l-18.7-.034s-1.25.063-1.72.916v3.27s-.39,4.026-2.818,8.743l1.479,13.562s.534,5.627.589,8.996" fill="none" stroke="#231f20" stroke-linecap="round" stroke-linejoin="round" stroke-width=".5"/><path d="M279.89,37.03l-17.255.27s-2.839.067-2.95,3.639l.557,9.704s.223,1.967,2.95,1.899c2.727-.067,17.811-.607,17.811-.607,0,0,2.672.459,2.282-3.584s-.445-5.324-.501-7.211-.334-4.111-2.894-4.111Z" fill="none" stroke="#231f20" stroke-linecap="round" stroke-linejoin="round" stroke-width=".5"/><line x1="281.117" y1="44.213" x2="262.334" y2="44.4" fill="none" stroke="#231f20" stroke-linecap="round" stroke-linejoin="round" stroke-width=".5"/><line x1="281.04" y1="42.435" x2="262.257" y2="42.622" fill="none" stroke="#231f20" stroke-linecap="round" stroke-linejoin="round" stroke-width=".5"/><line x1="280.963" y1="40.469" x2="262.18" y2="40.657" fill="none" stroke="#231f20" stroke-linecap="round" stroke-linejoin="round" stroke-width=".5"/><path d="M283.689,164.199s1.874-.63,1.769-5.167c-.104-4.537-2.394-101.192-2.394-101.192,0,0,.625-3.907-2.602-3.907s-16.862.63-16.862.63c0,0-3.747-.504-3.435,4.159.312,4.663,2.498,105.855,2.498,105.855,0,0-.208,3.655,2.498,3.907" fill="none" stroke="#231f20" stroke-linecap="round" stroke-linejoin="round" stroke-width=".5"/><polygon points="280.775 62.251 277.028 57.714 273.281 62.503 277.444 76.239 280.775 62.251" fill="none" stroke="#231f20" stroke-linecap="round" stroke-linejoin="round" stroke-width=".5"/><polygon points="270.887 62.377 267.14 57.84 263.393 62.629 267.556 76.365 270.887 62.377" fill="none" stroke="#231f20" stroke-linecap="round" stroke-linejoin="round" stroke-width=".5"/><polygon points="281.712 93.755 277.965 89.219 274.218 94.007 278.381 107.743 281.712 93.755" fill="none" stroke="#231f20" stroke-linecap="round" stroke-linejoin="round" stroke-width=".5"/><polygon points="271.615 94.512 267.868 89.975 264.121 94.764 268.285 108.499 271.615 94.512" fill="none" stroke="#231f20" stroke-linecap="round" stroke-linejoin="round" stroke-width=".5"/><polygon points="282.264 124.92 278.517 120.634 274.77 125.158 278.933 138.135 282.264 124.92" fill="none" stroke="#231f20" stroke-linecap="round" stroke-linejoin="round" stroke-width=".5"/><polygon points="272.168 125.927 268.421 121.39 264.673 126.179 268.837 139.915 272.168 125.927" fill="none" stroke="#231f20" stroke-linecap="round" stroke-linejoin="round" stroke-width=".5"/><polygon points="269.737 117.528 273.484 122.065 277.231 117.276 273.068 103.54 269.737 117.528" fill="none" stroke="#231f20" stroke-linecap="round" stroke-linejoin="round" stroke-width=".5"/><polygon points="269.034 85.613 272.781 90.149 276.528 85.361 272.364 71.625 269.034 85.613" fill="none" stroke="#231f20" stroke-linecap="round" stroke-linejoin="round" stroke-width=".5"/><rect x="272.685" y="21.448" width="3.782" height="3.053" rx=".699" ry=".699" transform="translate(549.152 45.949) rotate(-180)" fill="none" stroke="#231f20" stroke-linecap="round" stroke-linejoin="round" stroke-width=".5"/><rect x="266.112" y="21.448" width="3.782" height="3.053" rx=".699" ry=".699" transform="translate(536.006 45.949) rotate(-180)" fill="none" stroke="#231f20" stroke-linecap="round" stroke-linejoin="round" stroke-width=".5"/><path d="M282.524,143.53s-.163-1.974-1.033-1.974-14.401,2.369-14.401,2.369c0,0-1.196.066-1.141,1.974.054,1.908.435,14.08.435,14.08,0,0,.054,2.105,1.359,1.908,1.304-.197,14.075-2.763,14.075-2.763,0,0,1.033-.461,1.033-1.908s-.326-13.685-.326-13.685Z" fill="none" stroke="#231f20" stroke-linecap="round" stroke-linejoin="round" stroke-width=".5"/><path d="M94.899,18.926s-6.126.204-5.955,2.602.171,5.397.171,5.397l-4.487.074" fill="none" stroke="#231f20" stroke-linecap="round" stroke-linejoin="round" stroke-width=".5"/><line x1="107.064" y1="212.548" x2="11.044" y2="232.748" fill="none" stroke="#231f20" stroke-linecap="round" stroke-linejoin="round" stroke-width=".5"/><line x1="280.545" y1="176.054" x2="263.438" y2="179.653" fill="none" stroke="#231f20" stroke-linecap="round" stroke-linejoin="round" stroke-width=".5"/><line x1="183.987" y1="16.571" x2="281.777" y2="16.719" fill="none" stroke="#231f20" stroke-linecap="round" stroke-linejoin="round" stroke-width=".5"/><line x1="9.811" y1="16.308" x2="105.815" y2="16.215" fill="none" stroke="#231f20" stroke-linecap="round" stroke-linejoin="round" stroke-width=".5"/><line x1="9.811" y1="9.684" x2="281.777" y2="10.095" fill="none" stroke="#231f20" stroke-linecap="round" stroke-linejoin="round" stroke-width=".5"/><line x1="56.388" y1="208.475" x2="46.319" y2="201.806" fill="none" stroke="#231f20" stroke-linecap="round" stroke-linejoin="round" stroke-width=".5"/><line x1="205.553" y1="179.547" x2="197.951" y2="175.353" fill="none" stroke="#231f20" stroke-linecap="round" stroke-linejoin="round" stroke-width=".5"/><line x1="264.581" y1="168.859" x2="257.779" y2="166.308" fill="none" stroke="#231f20" stroke-linecap="round" stroke-linejoin="round" stroke-width=".5"/><path d="M245.812,171.05l-4.781-12.593s-2.916-9.366-16.827-8.996c0,0-12.249.991-8.569,5.948,0,0,9.337,5.437,12.146,24.604,0,0-6.439,1.287-11.75,5.018l-82.094,53.533c.144,2.87,3.301,5.31,3.301,5.31l83.052-52.192c4.69-2.247,7.079-2.633,7.079-2.633l31.431-7.176c3.648-1.601,3.203-3.617,3.203-3.617l-1.868-4.715-9.43,1.69" fill="none" stroke="#231f20" stroke-linecap="round" stroke-linejoin="round" stroke-width=".5"/><path d="M249.638,175.231s-5.605-4.893-6.761-6.85l-11.832,2.58s-1.157,1.779,5.516,7.918l11.832-2.491s1.157,0,1.246-1.157Z" fill="none" stroke="#231f20" stroke-linecap="round" stroke-linejoin="round" stroke-width=".5"/><path d="M225.779,180.798s-2.251-14.792-9.004-21.384c0,0-1.929-1.929-1.769-5.145" fill="none" stroke="#231f20" stroke-linecap="round" stroke-linejoin="round" stroke-width=".5"/><path d="M222.724,172.276l-8.522,6.431s-18.008,7.878-22.51,11.255c0,0,1.125,4.02,3.055,8.2" fill="none" stroke="#231f20" stroke-linecap="round" stroke-linejoin="round" stroke-width=".5"/><path d="M191.532,194.947l-22.028,10.933s-5.627,3.537-8.039,5.145" fill="none" stroke="#231f20" stroke-linecap="round" stroke-linejoin="round" stroke-width=".5"/><path d="M158.571,221.959s0-7.718-3.376-8.522-5.467-4.984-7.075-8.522.322-4.02.322-4.02c-.482-2.251-3.216-6.753-3.216-6.753l9.808-1.286c3.376,1.769,4.984,5.788,4.984,5.788l3.055.804s1.608.965,3.859,6.914" fill="none" stroke="#231f20" stroke-linecap="round" stroke-linejoin="round" stroke-width=".5"/><path d="M261.956,179.511s-.804,4.02-4.502,6.11-85.055,50.004-85.055,50.004c0,0-3.055,1.769-4.824,1.929s-24.279,6.271-24.279,6.271l-6.058.049" fill="none" stroke="#231f20" stroke-linecap="round" stroke-linejoin="round" stroke-width=".5"/><line x1="157.286" y1="142.923" x2="156.5" y2="66.097" fill="none" stroke="#231f20" stroke-linecap="round" stroke-linejoin="round" stroke-width=".5"/><line x1="157.729" y1="175.766" x2="157.419" y2="150.817" fill="none" stroke="#231f20" stroke-linecap="round" stroke-linejoin="round" stroke-width=".5"/><path d="M172.791,146.284l-6.046-2.351s-3.023,0-3.023-3.863c0-3.863-.168-13.1-.168-13.1,0,0-.336-1.68,2.015-1.344s8.071,2.107,8.071,2.107" fill="none" stroke="#231f20" stroke-linecap="round" stroke-linejoin="round" stroke-width=".5"/><path d="M173.631,174.332l-6.046-2.351s-3.023,0-3.023-3.863c0-3.863-.168-13.1-.168-13.1,0,0-.336-1.68,2.015-1.344,2.351.336,8.071,2.107,8.071,2.107" fill="none" stroke="#231f20" stroke-linecap="round" stroke-linejoin="round" stroke-width=".5"/><path d="M172.424,117.614l-6.046-2.15s-3.023-.733-3.023-4.595c0-3.863-.168-12.261-.168-12.261,0,0-.336-1.668,2.015-1.411,2.351.258,8.071,1.838,8.071,1.838" fill="none" stroke="#231f20" stroke-linecap="round" stroke-linejoin="round" stroke-width=".5"/><path d="M172.618,90.555l-6.046-1.929s-3.023-.733-3.023-4.595c0-3.863-.168-12.261-.168-12.261,0,0-.336-1.668,2.015-1.411s8.071,1.617,8.071,1.617" fill="none" stroke="#231f20" stroke-linecap="round" stroke-linejoin="round" stroke-width=".5"/><path d="M173.799,201.876l-6.046-2.351s-3.023,0-3.023-3.863c0-3.863-.168-13.1-.168-13.1,0,0-.336-1.68,2.015-1.344,2.351.336,8.071,2.107,8.071,2.107" fill="none" stroke="#231f20" stroke-linecap="round" stroke-linejoin="round" stroke-width=".5"/><path d="M145.02,144.391c1.79-.619,10.944-1.032,10.944-1.032,2.616.964,9.843,3.854,9.843,3.854,0,0-13.835-.344-20.58,1.927" fill="none" stroke="#231f20" stroke-linecap="round" stroke-linejoin="round" stroke-width=".5"/><path d="M165.807,147.213l.138,2.547s-12.183-.551-20.511,1.514" fill="none" stroke="#231f20" stroke-linecap="round" stroke-linejoin="round" stroke-width=".5"/><path d="M159.152,197.015s.456-4.364-1.385-8.451" fill="none" stroke="#231f20" stroke-linecap="round" stroke-linejoin="round" stroke-width=".5"/><ellipse cx="153.602" cy="181.979" rx="7.637" ry="6.119" transform="translate(-56.048 294.926) rotate(-78.147)" fill="none" stroke="#231f20" stroke-linecap="round" stroke-linejoin="round" stroke-width=".5"/><path d="M155.737,174.437l-7.305-3.7s-2.207.845-2.442,2.258" fill="none" stroke="#231f20" stroke-linecap="round" stroke-linejoin="round" stroke-width=".5"/><ellipse cx="151.681" cy="115.065" rx="2.72" ry="3.133" fill="none" stroke="#231f20" stroke-linecap="round" stroke-linejoin="round" stroke-width=".5"/><ellipse cx="151.937" cy="131.907" rx="2.72" ry="3.133" fill="none" stroke="#231f20" stroke-linecap="round" stroke-linejoin="round" stroke-width=".5"/><ellipse cx="147.424" cy="107.467" rx="2.72" ry="3.133" fill="none" stroke="#231f20" stroke-linecap="round" stroke-linejoin="round" stroke-width=".5"/><ellipse cx="147.807" cy="124.053" rx="2.72" ry="3.133" fill="none" stroke="#231f20" stroke-linecap="round" stroke-linejoin="round" stroke-width=".5"/><path d="M157.111,126.209c-.202.055-.412.084-.628.084-1.502,0-2.72-1.403-2.72-3.133,0-1.731,1.218-3.133,2.72-3.133.188,0,.371.022.548.064" fill="none" stroke="#231f20" stroke-linecap="round" stroke-linejoin="round" stroke-width=".5"/><ellipse cx="148.062" cy="140.767" rx="2.72" ry="3.133" fill="none" stroke="#231f20" stroke-linecap="round" stroke-linejoin="round" stroke-width=".5"/><path d="M145.643,160.288c.413-1.125,1.379-1.914,2.506-1.914,1.502,0,2.72,1.403,2.72,3.133,0,1.731-1.218,3.133-2.72,3.133-1.126,0-2.093-.789-2.506-1.914" fill="none" stroke="#231f20" stroke-linecap="round" stroke-linejoin="round" stroke-width=".5"/><path d="M153.639,150.256c.42.551.674,1.274.674,2.065,0,1.731-1.218,3.133-2.72,3.133s-2.72-1.403-2.72-3.133c0-.509.105-.99.293-1.415" fill="none" stroke="#231f20" stroke-linecap="round" stroke-linejoin="round" stroke-width=".5"/><path d="M144.487,129.475c1.239.292,2.171,1.556,2.171,3.07,0,1.436-.838,2.646-1.981,3.016" fill="none" stroke="#231f20" stroke-linecap="round" stroke-linejoin="round" stroke-width=".5"/><path d="M143.556,112.57c1.502,0,2.72,1.403,2.72,3.133,0,1.731-1.218,3.133-2.72,3.133" fill="none" stroke="#231f20" stroke-linecap="round" stroke-linejoin="round" stroke-width=".5"/><path d="M156.489,109.636c-.256.092-.529.142-.812.142-1.502,0-2.72-1.403-2.72-3.133s1.218-3.133,2.72-3.133c.371,0,.724.086,1.047.24" fill="none" stroke="#231f20" stroke-linecap="round" stroke-linejoin="round" stroke-width=".5"/><path d="M157.06,142.426c-.186.046-.379.071-.577.071-1.502,0-2.72-1.403-2.72-3.133,0-1.731,1.218-3.133,2.72-3.133.188,0,.371.022.548.064" fill="none" stroke="#231f20" stroke-linecap="round" stroke-linejoin="round" stroke-width=".5"/><path d="M157.323,162.503c-.265.099-.547.152-.84.152-1.502,0-2.72-1.403-2.72-3.133s1.218-3.133,2.72-3.133c.245,0,.482.037.708.107" fill="none" stroke="#231f20" stroke-linecap="round" stroke-linejoin="round" stroke-width=".5"/><path d="M156.697,92.922s-8.421-1.148-10.972.383" fill="none" stroke="#231f20" stroke-linecap="round" stroke-linejoin="round" stroke-width=".5"/><path d="M156.697,95.729s-8.421-1.148-10.972.383" fill="none" stroke="#231f20" stroke-linecap="round" stroke-linejoin="round" stroke-width=".5"/><polyline points="143.173 91.646 144.959 92.284 145.215 101.725 143.428 103.129" fill="none" stroke="#231f20" stroke-linecap="round" stroke-linejoin="round" stroke-width=".5"/><line x1="151.38" y1="189.509" x2="146.343" y2="186.301" fill="none" stroke="#231f20" stroke-linecap="round" stroke-linejoin="round" stroke-width=".5"/><path d="M126.163,205.531l3.606.902,6.723-2.498-2.567-182.116-.715-1.191.616-4.862c.357-3.215,5.999-2.991,5.999-2.991l24.317.376,15.668,1.253" fill="none" stroke="#231f20" stroke-linecap="round" stroke-linejoin="round" stroke-width=".5"/><path d="M141.53,63.08l-2.04,2.947s3.4,155.722,2.833,161.842-4.987,4.42-4.987,4.42l-.769-1.637-5.585-3.614s1.862-7.337-2.738-9.856" fill="none" stroke="#231f20" stroke-linecap="round" stroke-linejoin="round" stroke-width=".5"/><polyline points="132.556 22.677 121.275 25.309 124.96 221.672 127.369 223.533 130.983 223.095" fill="none" stroke="#231f20" stroke-linecap="round" stroke-linejoin="round" stroke-width=".5"/><polyline points="124.631 200.536 126.712 201.741 136.349 202.398" fill="none" stroke="#231f20" stroke-linecap="round" stroke-linejoin="round" stroke-width=".5"/><path d="M135.911,188.49l-4.818-.438s-.986.329-1.095-1.971,0-10.294,0-10.294c0,0,.219-1.095,1.533-1.095s4.38.329,4.38.329" fill="none" stroke="#231f20" stroke-linecap="round" stroke-linejoin="round" stroke-width=".5"/><path d="M135.035,160.127l-4.818-.438s-.986.329-1.095-1.971,0-10.294,0-10.294c0,0,.219-1.095,1.533-1.095s4.38.329,4.38.329" fill="none" stroke="#231f20" stroke-linecap="round" stroke-linejoin="round" stroke-width=".5"/><path d="M134.487,131.325l-4.818-.438s-.986.329-1.095-1.971,0-10.294,0-10.294c0,0,.219-1.095,1.533-1.095s4.38.329,4.38.329" fill="none" stroke="#231f20" stroke-linecap="round" stroke-linejoin="round" stroke-width=".5"/><path d="M134.268,102.633l-4.818-.438s-.986.329-1.095-1.971,0-10.294,0-10.294c0,0,.219-1.095,1.533-1.095s4.38.329,4.38.329" fill="none" stroke="#231f20" stroke-linecap="round" stroke-linejoin="round" stroke-width=".5"/><path d="M133.682,73.912l-4.823-.408s-.982.351-1.115-2.038-.106-10.702-.106-10.702c0,0,.208-1.141,1.522-1.154s4.384.298,4.384.298" fill="none" stroke="#231f20" stroke-linecap="round" stroke-linejoin="round" stroke-width=".5"/><path d="M124.486,191.372s.826,1.755,6.194,2.22c0,0,2.777,1.277.413,2.736-2.276,1.405-6.521-1.419-6.4-1.29" fill="none" stroke="#231f20" stroke-linecap="round" stroke-linejoin="round" stroke-width=".5"/><path d="M123.629,163.504s.925,1.705,6.311,1.861c0,0,2.845,1.115.569,2.707-2.192,1.533-6.592-1.042-6.464-.921" fill="none" stroke="#231f20" stroke-linecap="round" stroke-linejoin="round" stroke-width=".5"/><path d="M123.629,135.719s.925,1.705,6.311,1.861c0,0,2.845,1.115.569,2.707-2.192,1.533-6.592-1.042-6.464-.921" fill="none" stroke="#231f20" stroke-linecap="round" stroke-linejoin="round" stroke-width=".5"/><path d="M122.447,106.908s1.047,1.633,6.43,1.396c0,0,2.919.905.765,2.659-2.074,1.689-6.65-.56-6.514-.448" fill="none" stroke="#231f20" stroke-linecap="round" stroke-linejoin="round" stroke-width=".5"/><path d="M121.657,78.573s1.109,1.591,6.479,1.147c0,0,2.952.792.867,2.627-2.008,1.767-6.667-.303-6.526-.197" fill="none" stroke="#231f20" stroke-linecap="round" stroke-linejoin="round" stroke-width=".5"/><path d="M122.107,49.312s1.109,1.591,6.479,1.147c0,0,2.952.792.867,2.627-2.008,1.767-6.667-.303-6.526-.197" fill="none" stroke="#231f20" stroke-linecap="round" stroke-linejoin="round" stroke-width=".5"/><line x1="133.861" y1="44.752" x2="121.986" y2="44.674" fill="none" stroke="#231f20" stroke-linecap="round" stroke-linejoin="round" stroke-width=".5"/><path d="M134.286,13.437l-10.549,1.934s-1.934-1.934-4.219-1.231-4.395,2.11-3.868,4.923l8.966-.352" fill="none" stroke="#231f20" stroke-linecap="round" stroke-linejoin="round" stroke-width=".5"/><polyline points="117.76 20.294 120.749 220.366 124.96 221.672" fill="none" stroke="#231f20" stroke-linecap="round" stroke-linejoin="round" stroke-width=".5"/><path d="M124.361,188.671s-3.446.481-4.088-.882" fill="none" stroke="#231f20" stroke-linecap="round" stroke-linejoin="round" stroke-width=".5"/><path d="M119.518,14.14l-11.622,2.051s-.828,1.212-1.344,2.569c-.328.862-.53,1.782-.315,2.488l-12.643,1.501s-1.422-4.03,3.003-4.03l9.245-.079" fill="none" stroke="#231f20" stroke-linecap="round" stroke-linejoin="round" stroke-width=".5"/><path d="M99.068,36.169s1.32-.584,1.521,1.621l.199,15.963-6.329.352s-1.603.1-1.503-1.603-.1-14.128-.1-14.128c0,0-.2-1.603,1.703-1.703s4.509-.501,4.509-.501Z" fill="none" stroke="#231f20" stroke-linecap="round" stroke-linejoin="round" stroke-width=".5"/><path d="M99.068,63.506s1.32-.471,1.521,1.751l.199,15.98-6.329-.189s-1.603-.037-1.503-1.731-.1-14.137-.1-14.137c0,0-.2-1.62,1.703-1.558s4.509-.116,4.509-.116Z" fill="none" stroke="#231f20" stroke-linecap="round" stroke-linejoin="round" stroke-width=".5"/><path d="M99.687,91.718s1.298-.396,1.482,1.782l.109,15.608-6.207-.49s-1.572-.113-1.465-1.763-.022-13.803-.022-13.803c0,0-.188-1.591,1.679-1.438s4.424.104,4.424.104Z" fill="none" stroke="#231f20" stroke-linecap="round" stroke-linejoin="round" stroke-width=".5"/><path d="M100.129,119.512s1.139-.211,1.356,1.917l.484,15.091-5.507-1.292s-1.395-.317-1.341-1.896c.054-1.579-.362-13.337-.362-13.337,0,0-.206-1.562,1.451-1.168s3.919.684,3.919.684Z" fill="none" stroke="#231f20" stroke-linecap="round" stroke-linejoin="round" stroke-width=".5"/><path d="M101.163,146.738s1.115-.045,1.322,2.161l.427,15.487-5.386-2.145s-1.364-.533-1.306-2.137c.058-1.605-.314-13.676-.314-13.676,0,0-.197-1.626,1.424-.976s3.833,1.286,3.833,1.286Z" fill="none" stroke="#231f20" stroke-linecap="round" stroke-linejoin="round" stroke-width=".5"/><path d="M101.436,173.288s.967-.041,1.154,2.166l.426,15.487-4.679-2.164s-1.185-.537-1.141-2.142-.321-13.676-.321-13.676c0,0-.176-1.627,1.231-.97s3.33,1.3,3.33,1.3Z" fill="none" stroke="#231f20" stroke-linecap="round" stroke-linejoin="round" stroke-width=".5"/><path d="M120.749,220.366l-5.224-1.366s-2.511-3.296-3.924-6.75-5.651-5.337-5.651-5.337l-11.773-7.534-2.198,1.256-3.296-2.198" fill="none" stroke="#231f20" stroke-linecap="round" stroke-linejoin="round" stroke-width=".5"/><polygon points="248.121 188.971 247.262 187.374 237.916 190.713 230.959 197.09 248.121 188.971" fill="none" stroke="#231f20" stroke-linecap="round" stroke-linejoin="round" stroke-width=".5"/><polygon points="231.163 192.107 230.303 190.51 220.958 193.849 214.001 200.226 231.163 192.107" fill="none" stroke="#231f20" stroke-linecap="round" stroke-linejoin="round" stroke-width=".5"/><polygon points="214.811 209.022 213.951 207.425 204.606 210.764 197.649 217.141 214.811 209.022" fill="none" stroke="#231f20" stroke-linecap="round" stroke-linejoin="round" stroke-width=".5"/><polygon points="206.674 207.142 205.815 205.545 196.469 208.884 189.512 215.261 206.674 207.142" fill="none" stroke="#231f20" stroke-linecap="round" stroke-linejoin="round" stroke-width=".5"/><polygon points="186.24 225.925 185.152 224.461 176.048 227.66 169.782 233.635 186.24 225.925" fill="none" stroke="#231f20" stroke-linecap="round" stroke-linejoin="round" stroke-width=".5"/><polygon points="171.884 229.046 171.025 227.449 161.679 230.788 154.722 237.165 171.884 229.046" fill="none" stroke="#231f20" stroke-linecap="round" stroke-linejoin="round" stroke-width=".5"/><polygon points="178.921 222.808 179.781 224.405 189.126 221.066 196.083 214.689 178.921 222.808" fill="none" stroke="#231f20" stroke-linecap="round" stroke-linejoin="round" stroke-width=".5"/><polygon points="211.943 204.285 212.803 205.883 222.148 202.544 229.105 196.166 211.943 204.285" fill="none" stroke="#231f20" stroke-linecap="round" stroke-linejoin="round" stroke-width=".5"/></g><path d="M151.681,136.015c0,7.593-6.246,13.745-13.95,13.745-7.707,0-13.953-6.152-13.953-13.745,0-7.596,6.246-13.755,13.953-13.755,7.704,0,13.95,6.159,13.95,13.755" fill="#211f1f" stroke="#fff" stroke-miterlimit="10" stroke-width="1.5"/><path d="M142.822,141.283v1.774h-9.936c-.014-.444.058-.872.215-1.282.253-.677.658-1.343,1.215-2,.557-.656,1.362-1.415,2.415-2.276,1.634-1.34,2.738-2.401,3.312-3.184s.861-1.523.861-2.22c0-.731-.262-1.348-.784-1.851-.523-.502-1.205-.753-2.046-.753-.889,0-1.6.267-2.133.8s-.803,1.271-.81,2.215l-1.897-.195c.13-1.415.619-2.493,1.466-3.235.848-.741,1.986-1.112,3.415-1.112,1.442,0,2.584.4,3.425,1.2s1.261,1.791,1.261,2.974c0,.602-.123,1.193-.369,1.774s-.655,1.193-1.225,1.835c-.571.643-1.52,1.524-2.846,2.646-1.107.93-1.818,1.561-2.133,1.892s-.574.665-.779,1h7.373Z" fill="#fff" stroke-width="0"/><path d="M227.166,235.139c0,7.593-6.246,13.745-13.95,13.745-7.707,0-13.953-6.152-13.953-13.745,0-7.596,6.246-13.755,13.953-13.755,7.704,0,13.95,6.159,13.95,13.755" fill="#211f1f" stroke="#fff" stroke-miterlimit="10" stroke-width="1.5"/><path d="M208.618,238.212l1.846-.246c.212,1.046.572,1.8,1.082,2.262.509.461,1.129.691,1.861.691.868,0,1.601-.301,2.2-.902.598-.602.897-1.347.897-2.235,0-.848-.277-1.546-.831-2.097-.554-.55-1.258-.825-2.112-.825-.349,0-.783.068-1.302.205l.205-1.62c.123.014.222.021.297.021.786,0,1.494-.205,2.123-.615s.943-1.043.943-1.897c0-.677-.229-1.237-.687-1.682s-1.049-.666-1.774-.666c-.718,0-1.316.226-1.794.677s-.786,1.128-.923,2.03l-1.846-.328c.226-1.237.738-2.196,1.538-2.876.8-.681,1.794-1.021,2.984-1.021.82,0,1.576.176,2.266.528.69.352,1.218.832,1.584,1.44s.549,1.254.549,1.938c0,.649-.174,1.241-.523,1.774s-.865.957-1.548,1.271c.889.205,1.579.631,2.071,1.276.492.646.738,1.454.738,2.425,0,1.312-.479,2.426-1.436,3.338-.957.913-2.167,1.369-3.63,1.369-1.319,0-2.415-.394-3.286-1.18-.872-.786-1.369-1.805-1.492-3.056Z" fill="#fff" stroke-width="0"/><path d="M247.43,38.263c0,7.593-6.246,13.745-13.95,13.745-7.707,0-13.953-6.152-13.953-13.745s6.246-13.755,13.953-13.755c7.704,0,13.95,6.159,13.95,13.755" fill="#211f1f" stroke="#fff" stroke-miterlimit="10" stroke-width="1.5"/><path d="M235.077,45.304h-1.846v-11.761c-.444.424-1.027.848-1.749,1.271s-1.369.742-1.943.954v-1.784c1.032-.485,1.935-1.073,2.707-1.764s1.319-1.36,1.641-2.01h1.189v15.094Z" fill="#fff" stroke-width="0"/><polyline points="215.734 255.553 187.001 243.299 165.674 248.721 194.409 260.971 187.041 262.839 219.911 264.24 223.097 253.679 215.734 255.553" fill="#000" stroke-width="0"/><polyline points="196 66.947 220.607 67.022 219.604 48.809 195.003 48.743 194.688 40.773 180.237 57.764 196.314 75.507 195.978 68.409" fill="#000" stroke="#fff" stroke-linecap="round" stroke-linejoin="round" stroke-width="2"/><path d="M157.423,137.898c34.875,1.077,45.306,34.201,45.306,34.201l9.198-5.217-10.729,25.188-24.561-6.874,8.126-4.142s.085-22.708-27.219-25.38l-.12-17.776Z" fill="#000" stroke="#fff" stroke-linecap="round" stroke-linejoin="round" stroke-width="2"/></svg>