<?xml version="1.0" encoding="UTF-8"?><svg id="a" xmlns="http://www.w3.org/2000/svg" width="4.1in" height="2.25in" viewBox="0 0 295.2 162"><rect x="22.81" y="82.265" width="269.854" height="52.671" fill="#d9d9d9" stroke-width="0"/><path d="M234.305,90.743c-.091-.146-.205-.274-.341-.384s-.29-.196-.462-.258-.352-.092-.54-.092c-.344,0-.636.066-.875.199-.24.133-.435.312-.583.535-.149.224-.258.479-.326.764-.068.286-.102.581-.102.885,0,.292.034.576.102.851.068.276.177.524.326.745.149.22.344.397.583.53.24.133.532.2.875.2.467,0,.832-.143,1.095-.428.263-.285.423-.662.481-1.128h1.479c-.039.435-.139.827-.301,1.177s-.376.648-.642.895c-.266.247-.578.435-.934.564-.357.13-.749.195-1.177.195-.532,0-1.01-.092-1.435-.277-.425-.185-.783-.439-1.075-.764s-.516-.706-.671-1.143c-.156-.438-.233-.91-.233-1.416,0-.519.078-1,.233-1.445.156-.444.379-.832.671-1.162.292-.331.65-.59,1.075-.778.424-.188.903-.282,1.435-.282.383,0,.744.055,1.085.166.34.11.645.271.915.481.269.211.491.472.666.783.175.311.286.668.331,1.07h-1.479c-.026-.175-.084-.335-.175-.481Z" fill="#221f1f" stroke-width="0"/><path d="M236.941,92.231c.123-.327.298-.606.525-.836.227-.23.499-.409.817-.535s.674-.189,1.07-.189.754.063,1.075.189c.321.126.595.305.822.535s.402.509.525.836c.123.328.185.692.185,1.095s-.062.765-.185,1.089c-.124.324-.298.602-.525.832-.227.23-.501.407-.822.53-.321.124-.679.185-1.075.185s-.752-.062-1.07-.185c-.318-.123-.59-.3-.817-.53-.228-.23-.402-.508-.525-.832-.124-.324-.185-.688-.185-1.089s.062-.767.185-1.095ZM238.196,93.915c.039.191.105.363.199.516.094.152.219.274.375.365.156.091.351.136.584.136s.429-.045.588-.136c.159-.091.285-.212.379-.365.094-.152.161-.324.2-.516.039-.191.058-.387.058-.588s-.02-.399-.058-.594c-.039-.194-.106-.366-.2-.516-.094-.149-.221-.271-.379-.365-.159-.094-.355-.141-.588-.141s-.428.047-.584.141c-.155.094-.28.216-.375.365-.094.149-.161.321-.199.516-.039.195-.059.393-.059.594s.02.397.059.588Z" fill="#221f1f" stroke-width="0"/><path d="M244.169,90.806v.701h.029c.175-.292.402-.504.681-.637s.564-.199.856-.199c.37,0,.673.05.91.15.237.101.423.24.56.418.136.179.231.396.287.652s.083.54.083.851v3.094h-1.381v-2.841c0-.415-.065-.725-.195-.929-.13-.205-.36-.307-.69-.307-.376,0-.649.112-.817.335-.169.224-.253.592-.253,1.104v2.636h-1.381v-5.03h1.313Z" fill="#221f1f" stroke-width="0"/><path d="M251.387,90.806v.924h-1.012v2.491c0,.233.039.389.117.467.078.078.233.117.467.117.078,0,.152-.003.224-.01.071-.006.139-.016.204-.029v1.07c-.117.02-.247.032-.389.039-.143.006-.282.01-.418.01-.214,0-.417-.015-.608-.044s-.36-.086-.506-.17c-.146-.084-.261-.204-.345-.36-.084-.156-.126-.36-.126-.613v-2.967h-.836v-.924h.836v-1.508h1.381v1.508h1.012Z" fill="#221f1f" stroke-width="0"/><path d="M253.362,90.806v.934h.02c.064-.156.152-.3.263-.433.11-.133.236-.247.379-.341.143-.094.296-.167.458-.219s.33-.078.506-.078c.091,0,.19.016.301.048v1.284c-.064-.013-.143-.024-.233-.034s-.178-.015-.263-.015c-.253,0-.467.042-.642.126-.175.084-.316.2-.423.346-.107.146-.184.316-.229.511-.045.194-.067.405-.067.632v2.267h-1.382v-5.03h1.313Z" fill="#221f1f" stroke-width="0"/><path d="M255.688,92.231c.123-.327.298-.606.525-.836.227-.23.499-.409.817-.535.317-.126.674-.189,1.07-.189s.754.063,1.074.189c.321.126.596.305.822.535s.402.509.525.836c.123.328.185.692.185,1.095s-.062.765-.185,1.089-.299.602-.525.832c-.227.23-.501.407-.822.53-.32.124-.679.185-1.074.185s-.753-.062-1.07-.185c-.318-.123-.591-.3-.817-.53-.228-.23-.402-.508-.525-.832s-.185-.688-.185-1.089.062-.767.185-1.095ZM256.942,93.915c.039.191.105.363.199.516.095.152.22.274.375.365s.351.136.584.136.429-.045.588-.136.285-.212.38-.365c.094-.152.16-.324.199-.516s.059-.387.059-.588-.02-.399-.059-.594c-.039-.194-.105-.366-.199-.516-.095-.149-.221-.271-.38-.365-.159-.094-.354-.141-.588-.141s-.429.047-.584.141c-.155.094-.28.216-.375.365-.094.149-.16.321-.199.516-.039.195-.059.393-.059.594s.02.397.059.588Z" fill="#221f1f" stroke-width="0"/><path d="M263.021,88.89v6.946h-1.381v-6.946h1.381Z" fill="#221f1f" stroke-width="0"/><path d="M265.531,88.89v6.946h-1.381v-6.946h1.381Z" fill="#221f1f" stroke-width="0"/><path d="M268.101,94.629c.208.201.506.302.896.302.278,0,.519-.069.72-.209s.324-.287.369-.443h1.217c-.195.603-.493,1.035-.896,1.294s-.889.389-1.459.389c-.396,0-.753-.063-1.07-.19-.317-.126-.587-.306-.808-.54s-.391-.512-.511-.837c-.12-.324-.18-.681-.18-1.07,0-.376.062-.727.185-1.051s.299-.604.525-.841.498-.423.812-.56.663-.204,1.046-.204c.428,0,.801.083,1.118.248.318.165.579.387.783.666.205.279.353.597.443.954.091.357.123.729.097,1.119h-3.629c.02.448.134.772.341.973ZM269.662,91.983c-.165-.181-.417-.272-.754-.272-.221,0-.403.038-.55.112-.146.074-.263.167-.351.277-.087.11-.148.227-.185.351-.035.123-.057.233-.063.331h2.248c-.065-.35-.181-.616-.346-.798Z" fill="#221f1f" stroke-width="0"/><path d="M273.52,90.806v.934h.02c.064-.156.152-.3.263-.433.11-.133.236-.247.379-.341.143-.094.295-.167.457-.219s.331-.078.506-.078c.091,0,.191.016.302.048v1.284c-.064-.013-.143-.024-.233-.034s-.179-.015-.263-.015c-.253,0-.467.042-.642.126-.176.084-.316.2-.424.346-.106.146-.183.316-.229.511-.045.194-.067.405-.067.632v2.267h-1.382v-5.03h1.313Z" fill="#221f1f" stroke-width="0"/><path d="M282.109,88.89c.33,0,.632.029.904.087.272.058.506.154.7.287s.346.31.452.53c.107.221.161.493.161.817,0,.35-.08.642-.238.875-.159.233-.395.425-.705.574.428.123.747.339.958.647s.316.679.316,1.114c0,.35-.068.653-.205.91-.136.256-.319.465-.55.627-.229.162-.492.282-.787.36-.296.078-.599.117-.91.117h-3.366v-6.946h3.27ZM281.914,91.701c.272,0,.496-.064.672-.194.175-.13.263-.34.263-.632,0-.162-.029-.295-.088-.399-.059-.104-.136-.185-.233-.243s-.209-.099-.336-.122c-.126-.022-.258-.034-.394-.034h-1.431v1.625h1.547ZM282.002,94.649c.149,0,.292-.015.428-.043.137-.029.257-.078.36-.146.104-.068.187-.161.248-.277s.093-.266.093-.448c0-.356-.102-.611-.302-.764-.201-.152-.467-.229-.798-.229h-1.664v1.907h1.635Z" fill="#221f1f" stroke-width="0"/><rect x="22.81" y="27.825" width="269.854" height="51.822" fill="#d9d9d9" stroke-width="0"/><rect x="77.713" y="48.943" width="45.832" height="25.616" fill="#26a7df" stroke-width="0"/><path d="M89.388,57.803c.435,0,.804.063,1.109.189.305.126.553.293.745.501.191.208.331.444.418.71.088.266.131.542.131.827,0,.279-.043.553-.131.822-.087.269-.227.507-.418.715-.191.208-.439.375-.745.501-.305.126-.674.19-1.109.19h-1.605v2.49h-1.527v-6.946h3.132ZM88.969,61.072c.175,0,.344-.013.506-.039s.305-.076.428-.151c.123-.074.222-.18.297-.316.074-.136.112-.314.112-.535s-.038-.399-.112-.535c-.075-.136-.174-.241-.297-.316s-.266-.125-.428-.151-.331-.039-.506-.039h-1.187v2.082h1.187Z" fill="#fff" stroke-width="0"/><path d="M93.912,63.037c.084.163.196.294.335.394.139.101.303.175.491.224.188.048.383.073.583.073.136,0,.282-.011.438-.034.156-.022.302-.066.438-.131.136-.064.25-.154.34-.268.091-.113.136-.258.136-.433,0-.188-.06-.341-.18-.458s-.277-.214-.472-.292c-.194-.078-.415-.146-.662-.205-.247-.058-.496-.123-.749-.194-.259-.065-.512-.145-.759-.238-.247-.094-.467-.216-.662-.365-.194-.149-.352-.336-.472-.56s-.18-.495-.18-.812c0-.356.076-.666.229-.929.152-.263.352-.482.598-.657.246-.175.525-.305.836-.389.312-.084.623-.126.934-.126.363,0,.711.041,1.046.122.334.081.63.212.89.394.259.182.465.414.618.695.152.282.229.625.229,1.026h-1.479c-.013-.208-.057-.379-.131-.516-.075-.136-.174-.243-.297-.321-.123-.078-.264-.133-.423-.166-.159-.032-.332-.048-.521-.048-.123,0-.246.013-.37.039-.123.026-.235.072-.335.136-.101.065-.183.146-.248.243s-.097.221-.097.37c0,.136.026.247.078.331s.154.162.307.233c.152.071.363.143.632.214.269.072.621.162,1.055.272.13.026.31.073.54.141.23.068.459.177.686.326.227.149.423.349.588.599.166.25.248.569.248.958,0,.318-.062.613-.185.885-.124.272-.307.508-.55.706s-.545.352-.905.462-.777.166-1.25.166c-.383,0-.754-.047-1.114-.141-.36-.094-.678-.242-.954-.443-.276-.201-.495-.457-.657-.769-.162-.311-.24-.681-.233-1.109h1.479c0,.233.042.432.126.593Z" fill="#fff" stroke-width="0"/><path d="M104.165,64.219c-.525.458-1.252.686-2.179.686-.94,0-1.668-.227-2.184-.681-.516-.454-.773-1.154-.773-2.101v-4.319h1.527v4.319c0,.188.016.373.049.554.032.182.1.342.204.481.104.14.248.253.433.341.185.087.433.131.744.131.544,0,.921-.122,1.128-.365s.311-.625.311-1.143v-4.319h1.527v4.319c0,.94-.262,1.639-.788,2.096Z" fill="#fff" stroke-width="0"/><path d="M107.823,59.471c.104-.334.259-.625.467-.875.208-.25.469-.444.783-.583s.676-.209,1.085-.209c.311,0,.608.048.89.146.282.098.53.237.744.418s.384.405.511.671.189.564.189.895c0,.344-.055.639-.165.885-.11.247-.256.465-.438.657s-.388.365-.618.521c-.23.155-.462.31-.696.462-.233.152-.46.316-.681.491-.221.175-.415.379-.584.613h3.22v1.187h-5c0-.396.057-.739.17-1.031s.268-.553.462-.783c.195-.23.423-.442.686-.637.263-.194.54-.392.832-.593.149-.104.308-.209.477-.316.168-.107.322-.225.462-.355.14-.129.256-.275.35-.438.094-.162.141-.347.141-.555,0-.331-.096-.588-.287-.773-.191-.185-.437-.277-.735-.277-.201,0-.371.047-.511.141-.139.094-.251.217-.335.37-.084.152-.145.321-.18.506-.036.185-.053.368-.053.55h-1.323c-.013-.389.032-.75.136-1.085Z" fill="#fff" stroke-width="0"/><path d="M233.15,38.014c-.091-.146-.205-.274-.341-.384s-.29-.196-.462-.258-.352-.092-.54-.092c-.344,0-.636.066-.875.199-.24.133-.435.312-.583.535-.149.224-.258.479-.326.764-.068.286-.102.581-.102.885,0,.292.034.576.102.851.068.276.177.524.326.745.149.22.344.397.583.53.24.133.532.2.875.2.467,0,.832-.143,1.095-.428.263-.285.423-.662.481-1.128h1.479c-.039.435-.139.827-.301,1.177s-.376.648-.642.895c-.266.247-.578.435-.934.564-.357.13-.749.195-1.177.195-.532,0-1.01-.092-1.435-.277-.425-.185-.783-.439-1.075-.764s-.516-.706-.671-1.143c-.156-.438-.233-.91-.233-1.416,0-.519.078-1,.233-1.445.156-.444.379-.832.671-1.162.292-.331.65-.59,1.075-.778.424-.188.903-.282,1.435-.282.383,0,.744.055,1.085.166.34.11.645.271.915.481.269.211.491.472.666.783.175.311.286.668.331,1.07h-1.479c-.026-.175-.084-.335-.175-.481Z" fill="#221f1f" stroke-width="0"/><path d="M235.787,39.502c.123-.327.298-.606.525-.836.227-.23.499-.409.817-.535s.674-.189,1.07-.189.754.063,1.075.189c.321.126.595.305.822.535s.402.509.525.836c.123.328.185.692.185,1.095s-.062.765-.185,1.089c-.124.324-.298.602-.525.832-.227.23-.501.407-.822.53-.321.124-.679.185-1.075.185s-.752-.062-1.07-.185c-.318-.123-.59-.3-.817-.53-.228-.23-.402-.508-.525-.832-.124-.324-.185-.688-.185-1.089s.062-.767.185-1.095ZM237.042,41.185c.039.191.105.363.199.516.094.152.219.274.375.365.156.091.351.136.584.136s.429-.045.588-.136c.159-.091.285-.212.379-.365.094-.152.161-.324.2-.516.039-.191.058-.387.058-.588s-.02-.399-.058-.594c-.039-.194-.106-.366-.2-.516-.094-.149-.221-.271-.379-.365-.159-.094-.355-.141-.588-.141s-.428.047-.584.141c-.155.094-.28.216-.375.365-.094.149-.161.321-.199.516-.039.195-.059.393-.059.594s.02.397.059.588Z" fill="#221f1f" stroke-width="0"/><path d="M243.015,38.077v.701h.029c.175-.292.402-.504.681-.637s.564-.199.856-.199c.37,0,.673.05.91.15.237.101.423.24.56.418.136.179.231.396.287.652s.083.54.083.851v3.094h-1.381v-2.841c0-.415-.065-.725-.195-.929-.13-.205-.36-.307-.69-.307-.376,0-.649.112-.817.335-.169.224-.253.592-.253,1.104v2.636h-1.381v-5.03h1.313Z" fill="#221f1f" stroke-width="0"/><path d="M250.233,38.077v.924h-1.012v2.491c0,.233.039.389.117.467.078.078.233.117.467.117.078,0,.152-.003.224-.01.071-.006.139-.016.204-.029v1.07c-.117.02-.247.032-.389.039-.143.006-.282.01-.418.01-.214,0-.417-.015-.608-.044s-.36-.086-.506-.17c-.146-.084-.261-.204-.345-.36-.084-.156-.126-.36-.126-.613v-2.967h-.836v-.924h.836v-1.508h1.381v1.508h1.012Z" fill="#221f1f" stroke-width="0"/><path d="M252.208,38.077v.934h.019c.065-.156.152-.3.263-.433.11-.133.237-.247.379-.341.143-.094.296-.167.458-.219s.33-.078.506-.078c.091,0,.19.016.301.048v1.284c-.064-.013-.143-.024-.233-.034s-.178-.015-.263-.015c-.253,0-.467.042-.642.126-.175.084-.316.2-.423.346s-.184.316-.229.511c-.045.194-.068.405-.068.632v2.267h-1.381v-5.03h1.313Z" fill="#221f1f" stroke-width="0"/><path d="M254.533,39.502c.123-.327.298-.606.525-.836.227-.23.499-.409.817-.535.317-.126.674-.189,1.07-.189s.754.063,1.074.189c.321.126.596.305.822.535.228.23.402.509.525.836.123.328.185.692.185,1.095s-.062.765-.185,1.089-.298.602-.525.832c-.227.23-.501.407-.822.53-.32.124-.679.185-1.074.185s-.753-.062-1.07-.185c-.318-.123-.591-.3-.817-.53-.228-.23-.402-.508-.525-.832s-.185-.688-.185-1.089.062-.767.185-1.095ZM255.788,41.185c.039.191.105.363.199.516.095.152.22.274.375.365s.351.136.584.136.429-.045.588-.136.285-.212.38-.365c.094-.152.16-.324.199-.516s.059-.387.059-.588-.02-.399-.059-.594c-.039-.194-.105-.366-.199-.516-.095-.149-.221-.271-.38-.365-.159-.094-.354-.141-.588-.141s-.429.047-.584.141c-.155.094-.28.216-.375.365-.094.149-.16.321-.199.516-.039.195-.059.393-.059.594s.02.397.059.588Z" fill="#221f1f" stroke-width="0"/><path d="M261.867,36.161v6.946h-1.381v-6.946h1.381Z" fill="#221f1f" stroke-width="0"/><path d="M264.377,36.161v6.946h-1.381v-6.946h1.381Z" fill="#221f1f" stroke-width="0"/><path d="M266.946,41.9c.208.201.506.302.896.302.278,0,.519-.069.72-.209s.324-.287.369-.443h1.217c-.195.603-.493,1.035-.896,1.294s-.889.389-1.459.389c-.396,0-.753-.063-1.07-.19-.317-.126-.587-.306-.808-.54s-.391-.512-.511-.837c-.12-.324-.18-.681-.18-1.07,0-.376.062-.727.185-1.051s.299-.604.525-.841.498-.423.812-.56.663-.204,1.046-.204c.428,0,.801.083,1.118.248.318.165.579.387.783.666.205.279.353.597.443.954.091.357.123.729.097,1.119h-3.629c.02.448.134.772.341.973ZM268.508,39.254c-.165-.181-.417-.272-.754-.272-.221,0-.403.038-.55.112-.146.074-.263.167-.351.277-.087.11-.148.227-.185.351-.035.123-.057.233-.063.331h2.248c-.065-.35-.181-.616-.346-.798Z" fill="#221f1f" stroke-width="0"/><path d="M272.365,38.077v.934h.02c.064-.156.152-.3.263-.433.11-.133.236-.247.379-.341.143-.094.295-.167.457-.219s.331-.078.506-.078c.091,0,.191.016.302.048v1.284c-.064-.013-.143-.024-.233-.034s-.179-.015-.263-.015c-.253,0-.467.042-.642.126-.176.084-.316.2-.424.346-.106.146-.183.316-.229.511-.045.194-.067.405-.067.632v2.267h-1.382v-5.03h1.313Z" fill="#221f1f" stroke-width="0"/><path d="M281.149,36.161l2.598,6.946h-1.586l-.525-1.547h-2.598l-.545,1.547h-1.537l2.627-6.946h1.566ZM281.236,40.421l-.875-2.549h-.02l-.905,2.549h1.8Z" fill="#221f1f" stroke-width="0"/><polyline points="28.747 61.326 12.642 61.326 12.642 14.77 24.521 14.77" fill="none" stroke="#fff" stroke-miterlimit="10" stroke-width="5.656"/><polyline points="28.747 61.326 12.642 61.326 12.642 14.77 24.521 14.77" fill="none" stroke="#1e4a92" stroke-miterlimit="10" stroke-width="2.828"/><polyline points="28.747 116.871 4.664 116.871 4.664 8.936 24.521 8.936" fill="none" stroke="#fff" stroke-miterlimit="10" stroke-width="5.656"/><polyline points="28.747 116.871 4.664 116.871 4.664 8.936 24.521 8.936" fill="none" stroke="#1e4a92" stroke-miterlimit="10" stroke-width="2.828"/><polyline points="123.877 115.881 165.355 115.881 165.355 149.105 153.34 149.105" fill="none" stroke="#fff" stroke-miterlimit="10" stroke-width="5.656"/><polyline points="123.877 115.881 165.355 115.881 165.355 149.105 153.34 149.105" fill="none" stroke="#26a7df" stroke-miterlimit="10" stroke-width="2.828"/><polyline points="153.34 154.4 173.572 154.4 173.572 104.842 137.777 104.842 137.777 61.329 123.454 61.329" fill="none" stroke="#fff" stroke-miterlimit="10" stroke-width="5.656"/><polyline points="153.34 154.4 173.572 154.4 173.572 104.842 137.777 104.842 137.777 61.329 123.454 61.329" fill="none" stroke="#26a7df" stroke-miterlimit="10" stroke-width="2.828"/><rect x="22.81" y="2.336" width="131.37" height="18.855" fill="#1e4a92" stroke-width="0"/><path d="M33.657,8.445c.421,0,.779.062,1.075.184s.536.284.721.485c.185.201.32.431.405.688.085.258.127.525.127.801,0,.271-.042.536-.127.797s-.22.492-.405.693c-.186.201-.426.363-.721.485s-.654.184-1.075.184h-1.556v2.413h-1.48v-6.731h3.036ZM33.251,11.612c.169,0,.333-.012.49-.038.157-.025.295-.074.415-.146.119-.072.215-.174.288-.307.072-.132.108-.305.108-.519s-.036-.386-.108-.518c-.072-.132-.168-.234-.288-.307-.12-.072-.258-.121-.415-.146-.157-.025-.321-.038-.49-.038h-1.15v2.017h1.15Z" fill="#fff" stroke-width="0"/><path d="M36.795,11.683c.12-.317.289-.587.509-.811.22-.223.484-.396.792-.519.308-.123.653-.184,1.037-.184s.731.062,1.042.184.576.295.796.519.39.493.509.811c.119.317.179.671.179,1.061s-.06.742-.179,1.056c-.12.314-.289.583-.509.806s-.485.395-.796.514c-.311.12-.659.179-1.042.179s-.729-.06-1.037-.179c-.308-.119-.572-.291-.792-.514-.22-.223-.39-.492-.509-.806-.119-.314-.179-.666-.179-1.056s.06-.743.179-1.061ZM38.012,13.314c.038.186.102.352.193.5.091.148.212.266.363.354.151.088.339.132.565.132s.417-.044.57-.132c.154-.088.277-.206.368-.354.091-.147.156-.314.193-.5.038-.185.057-.375.057-.57s-.019-.387-.057-.575-.102-.355-.193-.5c-.091-.145-.213-.262-.368-.354-.154-.091-.344-.137-.57-.137s-.415.046-.565.137c-.151.091-.272.209-.363.354-.091.145-.156.311-.193.5s-.057.38-.057.575.019.385.057.57Z" fill="#fff" stroke-width="0"/><path d="M46.722,15.176l-.867-3.271h-.019l-.83,3.271h-1.386l-1.546-4.874h1.414l.896,3.309h.019l.811-3.309h1.301l.83,3.299h.019l.896-3.299h1.376l-1.536,4.874h-1.376Z" fill="#fff" stroke-width="0"/><path d="M51.633,14.007c.201.195.49.292.867.292.271,0,.503-.068.698-.203.195-.135.314-.278.358-.429h1.178c-.188.584-.478,1.002-.867,1.254-.39.251-.861.377-1.414.377-.383,0-.729-.062-1.037-.184-.308-.123-.569-.297-.782-.523-.214-.226-.379-.497-.495-.811-.116-.314-.174-.66-.174-1.037,0-.364.06-.704.179-1.018.119-.314.289-.586.509-.815.22-.229.482-.41.787-.542.305-.132.643-.198,1.014-.198.415,0,.776.08,1.084.241.308.16.561.375.759.646.198.271.341.578.429.924.088.346.119.707.094,1.084h-3.517c.019.434.129.748.33.943ZM53.146,11.443c-.16-.176-.404-.264-.73-.264-.214,0-.392.036-.533.108-.142.072-.255.162-.339.269-.085.107-.145.22-.179.339-.035.12-.055.227-.062.321h2.178c-.063-.339-.174-.597-.334-.773Z" fill="#fff" stroke-width="0"/><path d="M56.884,10.302v.905h.019c.062-.151.147-.291.254-.419.106-.129.229-.239.368-.33.138-.091.286-.162.443-.212s.321-.076.49-.076c.088,0,.186.016.292.047v1.244c-.063-.012-.139-.023-.227-.033-.088-.01-.173-.014-.254-.014-.245,0-.453.041-.622.123-.17.082-.307.193-.41.334-.104.142-.178.307-.222.495s-.066.393-.066.613v2.196h-1.338v-4.874h1.272Z" fill="#fff" stroke-width="0"/><path d="M63.026,13.964c.06.104.137.188.231.254.094.066.203.115.325.146.123.031.25.047.382.047.094,0,.193-.011.297-.033.104-.022.198-.057.283-.104.085-.047.156-.11.212-.188.057-.079.085-.177.085-.297,0-.201-.133-.352-.4-.453-.268-.1-.64-.201-1.117-.302-.195-.043-.385-.096-.57-.155-.186-.06-.351-.138-.495-.236-.145-.097-.261-.22-.349-.368-.088-.147-.132-.328-.132-.542,0-.314.061-.572.184-.773s.284-.36.485-.476.427-.198.679-.245c.251-.047.509-.071.773-.071s.52.025.769.076c.248.05.47.135.665.254.195.12.356.278.485.476s.206.448.231.75h-1.272c-.019-.258-.116-.432-.292-.523-.176-.091-.383-.137-.622-.137-.075,0-.157.005-.245.014-.088.01-.168.03-.24.062s-.134.077-.184.137c-.051.06-.076.14-.076.24,0,.12.044.217.132.292.088.075.203.137.344.184.142.047.303.09.485.127s.368.079.556.123c.195.044.385.097.57.16.186.063.351.146.495.25.145.104.261.232.349.386.088.154.132.344.132.57,0,.321-.065.589-.193.806-.129.217-.297.391-.504.523-.208.132-.445.225-.712.278s-.539.08-.815.08c-.283,0-.559-.028-.83-.085-.27-.057-.51-.151-.721-.283-.21-.132-.383-.306-.518-.523-.135-.217-.209-.489-.222-.815h1.272c0,.145.03.269.09.372Z" fill="#fff" stroke-width="0"/><path d="M66.989,11.683c.12-.317.289-.587.509-.811.22-.223.484-.396.792-.519.308-.123.653-.184,1.037-.184s.731.062,1.042.184.576.295.796.519.39.493.509.811c.119.317.179.671.179,1.061s-.06.742-.179,1.056c-.12.314-.289.583-.509.806s-.485.395-.796.514c-.311.12-.659.179-1.042.179s-.729-.06-1.037-.179c-.308-.119-.572-.291-.792-.514-.22-.223-.39-.492-.509-.806-.119-.314-.179-.666-.179-1.056s.06-.743.179-1.061ZM68.206,13.314c.038.186.102.352.193.5.091.148.212.266.363.354.151.088.339.132.565.132s.417-.044.57-.132c.154-.088.277-.206.368-.354.091-.147.156-.314.193-.5.038-.185.057-.375.057-.57s-.019-.387-.057-.575-.102-.355-.193-.5c-.091-.145-.213-.262-.368-.354-.154-.091-.344-.137-.57-.137s-.415.046-.565.137c-.151.091-.272.209-.363.354-.091.145-.156.311-.193.5s-.057.38-.057.575.019.385.057.57Z" fill="#fff" stroke-width="0"/><path d="M76.021,15.176v-.679h-.028c-.17.283-.39.487-.66.613-.27.125-.546.188-.83.188-.358,0-.652-.047-.881-.142s-.41-.228-.542-.4-.225-.383-.278-.632c-.054-.248-.08-.523-.08-.825v-2.998h1.338v2.752c0,.402.063.702.188.9.125.198.349.297.669.297.364,0,.628-.108.792-.325.163-.217.245-.573.245-1.07v-2.555h1.338v4.874h-1.272Z" fill="#fff" stroke-width="0"/><path d="M79.584,10.302v.905h.019c.062-.151.147-.291.254-.419.106-.129.229-.239.368-.33.138-.091.286-.162.443-.212s.321-.076.49-.076c.088,0,.186.016.292.047v1.244c-.063-.012-.139-.023-.227-.033-.088-.01-.173-.014-.254-.014-.245,0-.453.041-.622.123-.17.082-.307.193-.41.334-.104.142-.178.307-.222.495s-.066.393-.066.613v2.196h-1.338v-4.874h1.272Z" fill="#fff" stroke-width="0"/><path d="M84.137,11.179c-.214,0-.393.049-.537.146-.145.098-.263.223-.354.377-.091.154-.156.324-.193.509-.038.186-.057.369-.057.552,0,.176.019.355.057.537.038.183.099.347.184.495.085.147.2.269.344.363s.321.142.528.142c.321,0,.567-.09.74-.269s.281-.419.325-.721h1.292c-.088.647-.339,1.141-.754,1.48-.415.339-.946.509-1.593.509-.365,0-.699-.062-1.004-.184-.305-.123-.564-.294-.777-.514-.214-.22-.38-.482-.5-.787-.119-.305-.179-.639-.179-1.004,0-.377.055-.727.165-1.051.11-.323.271-.603.485-.839.213-.235.474-.419.782-.551.308-.132.66-.198,1.056-.198.289,0,.567.038.834.113s.506.19.716.344c.21.154.382.346.514.575.132.229.207.501.226.815h-1.311c-.088-.559-.418-.839-.99-.839Z" fill="#fff" stroke-width="0"/><path d="M88.652,14.007c.201.195.49.292.867.292.271,0,.503-.068.698-.203.195-.135.314-.278.358-.429h1.178c-.188.584-.478,1.002-.867,1.254-.39.251-.861.377-1.414.377-.383,0-.729-.062-1.037-.184-.308-.123-.569-.297-.782-.523-.214-.226-.379-.497-.495-.811-.116-.314-.174-.66-.174-1.037,0-.364.06-.704.179-1.018.119-.314.289-.586.509-.815.22-.229.482-.41.787-.542.305-.132.643-.198,1.014-.198.415,0,.776.08,1.084.241.308.16.561.375.759.646.198.271.341.578.429.924.088.346.119.707.094,1.084h-3.517c.019.434.129.748.33.943ZM90.166,11.443c-.16-.176-.404-.264-.73-.264-.214,0-.392.036-.533.108-.142.072-.255.162-.339.269-.085.107-.145.22-.179.339-.035.12-.055.227-.062.321h2.178c-.063-.339-.174-.597-.334-.773Z" fill="#fff" stroke-width="0"/><path d="M95.279,11.683c.12-.317.289-.587.509-.811.22-.223.484-.396.792-.519.308-.123.653-.184,1.037-.184s.731.062,1.042.184.576.295.796.519.39.493.509.811c.119.317.179.671.179,1.061s-.06.742-.179,1.056c-.12.314-.289.583-.509.806s-.485.395-.796.514c-.311.12-.659.179-1.042.179s-.729-.06-1.037-.179c-.308-.119-.572-.291-.792-.514-.22-.223-.39-.492-.509-.806-.119-.314-.179-.666-.179-1.056s.06-.743.179-1.061ZM96.496,13.314c.038.186.102.352.193.5.091.148.212.266.363.354.151.088.339.132.565.132s.417-.044.57-.132c.154-.088.277-.206.368-.354.091-.147.156-.314.193-.5.038-.185.057-.375.057-.57s-.019-.387-.057-.575-.102-.355-.193-.5c-.091-.145-.213-.262-.368-.354-.154-.091-.344-.137-.57-.137s-.415.046-.565.137c-.151.091-.272.209-.363.354-.091.145-.156.311-.193.5s-.057.38-.057.575.019.385.057.57Z" fill="#fff" stroke-width="0"/><path d="M102.284,10.302v.679h.028c.169-.283.39-.489.66-.618s.547-.193.83-.193c.358,0,.652.049.881.146.229.097.41.232.542.405.132.173.225.383.278.631.053.249.08.523.08.825v2.998h-1.338v-2.752c0-.402-.063-.703-.189-.9-.125-.198-.349-.297-.669-.297-.365,0-.628.108-.792.325s-.245.573-.245,1.07v2.555h-1.338v-4.874h1.272Z" fill="#fff" stroke-width="0"/><path d="M111.55,11.179c-.214,0-.393.049-.537.146-.145.098-.263.223-.354.377-.091.154-.156.324-.193.509-.038.186-.057.369-.057.552,0,.176.019.355.057.537.038.183.099.347.184.495.085.147.2.269.344.363s.321.142.528.142c.321,0,.567-.09.74-.269s.281-.419.325-.721h1.292c-.088.647-.339,1.141-.754,1.48-.415.339-.946.509-1.593.509-.365,0-.699-.062-1.004-.184-.305-.123-.564-.294-.777-.514-.214-.22-.38-.482-.5-.787-.119-.305-.179-.639-.179-1.004,0-.377.055-.727.165-1.051.11-.323.271-.603.485-.839.213-.235.474-.419.782-.551.308-.132.66-.198,1.056-.198.289,0,.567.038.834.113s.506.19.716.344c.21.154.382.346.514.575.132.229.207.501.226.815h-1.311c-.088-.559-.418-.839-.99-.839Z" fill="#fff" stroke-width="0"/><path d="M114.67,9.548v-1.103h1.338v1.103h-1.338ZM116.009,10.302v4.874h-1.338v-4.874h1.338Z" fill="#fff" stroke-width="0"/><path d="M118.337,10.302v.905h.019c.062-.151.147-.291.254-.419.106-.129.229-.239.368-.33.138-.091.286-.162.443-.212s.321-.076.49-.076c.088,0,.186.016.292.047v1.244c-.063-.012-.139-.023-.227-.033-.088-.01-.173-.014-.254-.014-.245,0-.453.041-.622.123-.17.082-.307.193-.41.334-.104.142-.178.307-.222.495s-.066.393-.066.613v2.196h-1.338v-4.874h1.272Z" fill="#fff" stroke-width="0"/><path d="M122.891,11.179c-.214,0-.393.049-.537.146-.145.098-.263.223-.354.377-.091.154-.156.324-.193.509-.038.186-.057.369-.057.552,0,.176.019.355.057.537.038.183.099.347.184.495.085.147.2.269.344.363s.321.142.528.142c.321,0,.567-.09.74-.269s.281-.419.325-.721h1.292c-.088.647-.339,1.141-.754,1.48-.415.339-.946.509-1.593.509-.365,0-.699-.062-1.004-.184-.305-.123-.564-.294-.777-.514-.214-.22-.38-.482-.5-.787-.119-.305-.179-.639-.179-1.004,0-.377.055-.727.165-1.051.11-.323.271-.603.485-.839.213-.235.474-.419.782-.551.308-.132.66-.198,1.056-.198.289,0,.567.038.834.113s.506.19.716.344c.21.154.382.346.514.575.132.229.207.501.226.815h-1.311c-.088-.559-.418-.839-.99-.839Z" fill="#fff" stroke-width="0"/><path d="M129.272,15.176v-.679h-.028c-.17.283-.39.487-.66.613-.27.125-.546.188-.83.188-.358,0-.652-.047-.881-.142s-.41-.228-.542-.4-.225-.383-.278-.632c-.054-.248-.08-.523-.08-.825v-2.998h1.338v2.752c0,.402.063.702.188.9.125.198.349.297.669.297.364,0,.628-.108.792-.325.163-.217.245-.573.245-1.07v-2.555h1.338v4.874h-1.272Z" fill="#fff" stroke-width="0"/><path d="M131.601,9.548v-1.103h1.338v1.103h-1.338ZM132.939,10.302v4.874h-1.338v-4.874h1.338Z" fill="#fff" stroke-width="0"/><path d="M136.672,10.302v.896h-.98v2.413c0,.227.038.377.113.453.076.075.227.113.453.113.076,0,.147-.003.217-.01.069-.006.135-.016.198-.028v1.037c-.113.019-.239.031-.377.038s-.273.01-.405.01c-.208,0-.404-.014-.589-.042-.185-.028-.349-.083-.49-.165-.142-.082-.253-.198-.335-.349-.082-.15-.123-.349-.123-.594v-2.875h-.811v-.896h.811v-1.461h1.339v1.461h.98Z" fill="#fff" stroke-width="0"/><path d="M143.431,8.445l2.517,6.731h-1.537l-.509-1.499h-2.517l-.528,1.499h-1.49l2.545-6.731h1.518ZM143.516,12.574l-.849-2.47h-.019l-.877,2.47h1.744Z" fill="#fff" stroke-width="0"/><rect x="22.81" y="141.976" width="131.37" height="18.855" fill="#26a7df" stroke-width="0"/><path d="M33.657,148.085c.421,0,.779.062,1.075.184.295.123.536.284.721.485.185.201.32.431.405.688s.127.524.127.801c0,.271-.042.536-.127.797s-.22.492-.405.693c-.186.201-.426.362-.721.485-.295.122-.654.184-1.075.184h-1.556v2.413h-1.48v-6.73h3.036ZM33.251,151.252c.169,0,.333-.012.49-.037.157-.025.295-.074.415-.146.119-.072.215-.174.288-.307.072-.132.108-.305.108-.519s-.036-.386-.108-.518c-.072-.133-.168-.234-.288-.307-.12-.072-.258-.121-.415-.146-.157-.024-.321-.037-.49-.037h-1.15v2.017h1.15Z" fill="#fff" stroke-width="0"/><path d="M36.795,151.323c.12-.317.289-.588.509-.811.22-.224.484-.396.792-.519.308-.123.653-.185,1.037-.185s.731.062,1.042.185c.311.122.576.295.796.519.22.223.39.493.509.811.119.317.179.671.179,1.061s-.06.741-.179,1.056c-.12.314-.289.583-.509.806-.22.224-.485.395-.796.514-.311.12-.659.18-1.042.18s-.729-.06-1.037-.18c-.308-.119-.572-.29-.792-.514-.22-.223-.39-.491-.509-.806-.119-.314-.179-.666-.179-1.056s.06-.743.179-1.061ZM38.012,152.954c.038.186.102.352.193.499.091.148.212.266.363.354.151.089.339.133.565.133s.417-.044.57-.133c.154-.088.277-.205.368-.354.091-.147.156-.313.193-.499s.057-.376.057-.57c0-.195-.019-.387-.057-.575s-.102-.355-.193-.5c-.091-.145-.213-.262-.368-.354-.154-.091-.344-.137-.57-.137s-.415.046-.565.137c-.151.092-.272.209-.363.354-.091.145-.156.312-.193.5s-.057.38-.057.575.019.385.057.57Z" fill="#fff" stroke-width="0"/><path d="M46.722,154.815l-.867-3.271h-.019l-.83,3.271h-1.386l-1.546-4.873h1.414l.896,3.309h.019l.811-3.309h1.301l.83,3.299h.019l.896-3.299h1.376l-1.536,4.873h-1.376Z" fill="#fff" stroke-width="0"/><path d="M51.633,153.646c.201.195.49.293.867.293.271,0,.503-.068.698-.203s.314-.278.358-.429h1.178c-.188.584-.478,1.002-.867,1.254-.39.251-.861.377-1.414.377-.383,0-.729-.062-1.037-.184-.308-.123-.569-.298-.782-.523-.214-.227-.379-.497-.495-.811-.116-.314-.174-.66-.174-1.037,0-.364.06-.704.179-1.019.119-.314.289-.586.509-.815.22-.229.482-.41.787-.542s.643-.198,1.014-.198c.415,0,.776.08,1.084.241.308.16.561.375.759.646.198.271.341.578.429.924.088.346.119.707.094,1.084h-3.517c.019.434.129.748.33.942ZM53.146,151.083c-.16-.176-.404-.265-.73-.265-.214,0-.392.036-.533.108-.142.072-.255.162-.339.269-.085.107-.145.221-.179.34-.035.119-.055.227-.062.32h2.178c-.063-.339-.174-.597-.334-.772Z" fill="#fff" stroke-width="0"/><path d="M56.884,149.942v.904h.019c.062-.15.147-.29.254-.419.106-.129.229-.239.368-.33.138-.091.286-.162.443-.212.157-.051.321-.076.49-.076.088,0,.186.017.292.048v1.244c-.063-.013-.139-.023-.227-.033s-.173-.014-.254-.014c-.245,0-.453.041-.622.122-.17.082-.307.193-.41.335s-.178.307-.222.495-.066.393-.066.612v2.196h-1.338v-4.873h1.272Z" fill="#fff" stroke-width="0"/><path d="M63.026,153.604c.06.104.137.188.231.254.094.066.203.115.325.146s.25.047.382.047c.094,0,.193-.011.297-.032.104-.022.198-.057.283-.104.085-.047.156-.109.212-.188.057-.078.085-.177.085-.297,0-.201-.133-.352-.4-.452-.268-.101-.64-.201-1.117-.302-.195-.044-.385-.096-.57-.155-.186-.06-.351-.139-.495-.236-.145-.097-.261-.22-.349-.367-.088-.147-.132-.328-.132-.542,0-.314.061-.572.184-.773s.284-.359.485-.476.427-.198.679-.245.509-.071.773-.071.52.025.769.076c.248.05.47.135.665.254.195.12.356.278.485.477.129.197.206.447.231.749h-1.272c-.019-.258-.116-.432-.292-.523-.176-.091-.383-.137-.622-.137-.075,0-.157.005-.245.015s-.168.03-.24.062-.134.077-.184.137c-.051.06-.076.14-.076.24,0,.119.044.217.132.292s.203.137.344.184c.142.048.303.09.485.128.182.037.368.078.556.122.195.044.385.098.57.16.186.063.351.146.495.25s.261.232.349.387.132.344.132.57c0,.32-.065.589-.193.806-.129.217-.297.392-.504.523s-.445.225-.712.278c-.267.053-.539.08-.815.08-.283,0-.559-.028-.83-.085-.27-.057-.51-.151-.721-.283-.21-.132-.383-.306-.518-.522-.135-.218-.209-.489-.222-.815h1.272c0,.145.03.269.09.372Z" fill="#fff" stroke-width="0"/><path d="M66.989,151.323c.12-.317.289-.588.509-.811.22-.224.484-.396.792-.519.308-.123.653-.185,1.037-.185s.731.062,1.042.185c.311.122.576.295.796.519.22.223.39.493.509.811.119.317.179.671.179,1.061s-.06.741-.179,1.056c-.12.314-.289.583-.509.806-.22.224-.485.395-.796.514-.311.12-.659.18-1.042.18s-.729-.06-1.037-.18c-.308-.119-.572-.29-.792-.514-.22-.223-.39-.491-.509-.806-.119-.314-.179-.666-.179-1.056s.06-.743.179-1.061ZM68.206,152.954c.038.186.102.352.193.499.091.148.212.266.363.354.151.089.339.133.565.133s.417-.044.57-.133c.154-.088.277-.205.368-.354.091-.147.156-.313.193-.499s.057-.376.057-.57c0-.195-.019-.387-.057-.575s-.102-.355-.193-.5c-.091-.145-.213-.262-.368-.354-.154-.091-.344-.137-.57-.137s-.415.046-.565.137c-.151.092-.272.209-.363.354-.091.145-.156.312-.193.5s-.057.38-.057.575.019.385.057.57Z" fill="#fff" stroke-width="0"/><path d="M76.021,154.815v-.679h-.028c-.17.283-.39.487-.66.613-.27.125-.546.188-.83.188-.358,0-.652-.048-.881-.142-.229-.095-.41-.228-.542-.4s-.225-.384-.278-.632c-.054-.248-.08-.523-.08-.825v-2.997h1.338v2.752c0,.402.063.702.188.9s.349.297.669.297c.364,0,.628-.108.792-.325.163-.217.245-.573.245-1.069v-2.555h1.338v4.873h-1.272Z" fill="#fff" stroke-width="0"/><path d="M79.584,149.942v.904h.019c.062-.15.147-.29.254-.419.106-.129.229-.239.368-.33.138-.091.286-.162.443-.212.157-.051.321-.076.49-.076.088,0,.186.017.292.048v1.244c-.063-.013-.139-.023-.227-.033s-.173-.014-.254-.014c-.245,0-.453.041-.622.122-.17.082-.307.193-.41.335s-.178.307-.222.495-.066.393-.066.612v2.196h-1.338v-4.873h1.272Z" fill="#fff" stroke-width="0"/><path d="M84.137,150.818c-.214,0-.393.049-.537.146s-.263.223-.354.377c-.091.154-.156.324-.193.509-.038.186-.057.369-.057.552,0,.176.019.355.057.537.038.183.099.348.184.495.085.147.2.269.344.363.145.094.321.142.528.142.321,0,.567-.09.74-.27.173-.179.281-.419.325-.721h1.292c-.088.647-.339,1.141-.754,1.479-.415.34-.946.51-1.593.51-.365,0-.699-.062-1.004-.184-.305-.123-.564-.294-.777-.515-.214-.22-.38-.481-.5-.787-.119-.305-.179-.639-.179-1.004,0-.377.055-.727.165-1.051.11-.323.271-.604.485-.839.213-.235.474-.42.782-.552s.66-.198,1.056-.198c.289,0,.567.038.834.113s.506.19.716.345c.21.153.382.346.514.574.132.229.207.502.226.815h-1.311c-.088-.559-.418-.839-.99-.839Z" fill="#fff" stroke-width="0"/><path d="M88.652,153.646c.201.195.49.293.867.293.271,0,.503-.068.698-.203s.314-.278.358-.429h1.178c-.188.584-.478,1.002-.867,1.254-.39.251-.861.377-1.414.377-.383,0-.729-.062-1.037-.184-.308-.123-.569-.298-.782-.523-.214-.227-.379-.497-.495-.811-.116-.314-.174-.66-.174-1.037,0-.364.06-.704.179-1.019.119-.314.289-.586.509-.815.22-.229.482-.41.787-.542s.643-.198,1.014-.198c.415,0,.776.08,1.084.241.308.16.561.375.759.646.198.271.341.578.429.924.088.346.119.707.094,1.084h-3.517c.019.434.129.748.33.942ZM90.166,151.083c-.16-.176-.404-.265-.73-.265-.214,0-.392.036-.533.108-.142.072-.255.162-.339.269-.085.107-.145.221-.179.34-.035.119-.055.227-.062.32h2.178c-.063-.339-.174-.597-.334-.772Z" fill="#fff" stroke-width="0"/><path d="M95.279,151.323c.12-.317.289-.588.509-.811.22-.224.484-.396.792-.519.308-.123.653-.185,1.037-.185s.731.062,1.042.185c.311.122.576.295.796.519.22.223.39.493.509.811.119.317.179.671.179,1.061s-.06.741-.179,1.056c-.12.314-.289.583-.509.806-.22.224-.485.395-.796.514-.311.12-.659.18-1.042.18s-.729-.06-1.037-.18c-.308-.119-.572-.29-.792-.514-.22-.223-.39-.491-.509-.806-.119-.314-.179-.666-.179-1.056s.06-.743.179-1.061ZM96.496,152.954c.038.186.102.352.193.499.091.148.212.266.363.354.151.089.339.133.565.133s.417-.044.57-.133c.154-.088.277-.205.368-.354.091-.147.156-.313.193-.499s.057-.376.057-.57c0-.195-.019-.387-.057-.575s-.102-.355-.193-.5c-.091-.145-.213-.262-.368-.354-.154-.091-.344-.137-.57-.137s-.415.046-.565.137c-.151.092-.272.209-.363.354-.091.145-.156.312-.193.5s-.057.38-.057.575.019.385.057.57Z" fill="#fff" stroke-width="0"/><path d="M102.284,149.942v.679h.028c.169-.283.39-.489.66-.618s.547-.193.83-.193c.358,0,.652.049.881.146s.41.232.542.405c.132.173.225.384.278.632.053.248.08.523.08.825v2.997h-1.338v-2.752c0-.402-.063-.703-.189-.9-.125-.198-.349-.297-.669-.297-.365,0-.628.108-.792.325s-.245.573-.245,1.069v2.555h-1.338v-4.873h1.272Z" fill="#fff" stroke-width="0"/><path d="M111.55,150.818c-.214,0-.393.049-.537.146s-.263.223-.354.377c-.091.154-.156.324-.193.509-.038.186-.057.369-.057.552,0,.176.019.355.057.537.038.183.099.348.184.495.085.147.2.269.344.363.145.094.321.142.528.142.321,0,.567-.09.74-.27.173-.179.281-.419.325-.721h1.292c-.088.647-.339,1.141-.754,1.479-.415.34-.946.51-1.593.51-.365,0-.699-.062-1.004-.184-.305-.123-.564-.294-.777-.515-.214-.22-.38-.481-.5-.787-.119-.305-.179-.639-.179-1.004,0-.377.055-.727.165-1.051.11-.323.271-.604.485-.839.213-.235.474-.42.782-.552s.66-.198,1.056-.198c.289,0,.567.038.834.113s.506.19.716.345c.21.153.382.346.514.574.132.229.207.502.226.815h-1.311c-.088-.559-.418-.839-.99-.839Z" fill="#fff" stroke-width="0"/><path d="M114.67,149.188v-1.103h1.338v1.103h-1.338ZM116.009,149.942v4.873h-1.338v-4.873h1.338Z" fill="#fff" stroke-width="0"/><path d="M118.337,149.942v.904h.019c.062-.15.147-.29.254-.419.106-.129.229-.239.368-.33.138-.091.286-.162.443-.212.157-.051.321-.076.49-.076.088,0,.186.017.292.048v1.244c-.063-.013-.139-.023-.227-.033s-.173-.014-.254-.014c-.245,0-.453.041-.622.122-.17.082-.307.193-.41.335s-.178.307-.222.495-.066.393-.066.612v2.196h-1.338v-4.873h1.272Z" fill="#fff" stroke-width="0"/><path d="M122.891,150.818c-.214,0-.393.049-.537.146s-.263.223-.354.377c-.091.154-.156.324-.193.509-.038.186-.057.369-.057.552,0,.176.019.355.057.537.038.183.099.348.184.495.085.147.2.269.344.363.145.094.321.142.528.142.321,0,.567-.09.74-.27.173-.179.281-.419.325-.721h1.292c-.088.647-.339,1.141-.754,1.479-.415.34-.946.51-1.593.51-.365,0-.699-.062-1.004-.184-.305-.123-.564-.294-.777-.515-.214-.22-.38-.481-.5-.787-.119-.305-.179-.639-.179-1.004,0-.377.055-.727.165-1.051.11-.323.271-.604.485-.839.213-.235.474-.42.782-.552s.66-.198,1.056-.198c.289,0,.567.038.834.113s.506.19.716.345c.21.153.382.346.514.574.132.229.207.502.226.815h-1.311c-.088-.559-.418-.839-.99-.839Z" fill="#fff" stroke-width="0"/><path d="M129.272,154.815v-.679h-.028c-.17.283-.39.487-.66.613-.27.125-.546.188-.83.188-.358,0-.652-.048-.881-.142-.229-.095-.41-.228-.542-.4s-.225-.384-.278-.632c-.054-.248-.08-.523-.08-.825v-2.997h1.338v2.752c0,.402.063.702.188.9s.349.297.669.297c.364,0,.628-.108.792-.325.163-.217.245-.573.245-1.069v-2.555h1.338v4.873h-1.272Z" fill="#fff" stroke-width="0"/><path d="M131.601,149.188v-1.103h1.338v1.103h-1.338ZM132.939,149.942v4.873h-1.338v-4.873h1.338Z" fill="#fff" stroke-width="0"/><path d="M136.672,149.942v.896h-.98v2.413c0,.227.038.377.113.452.076.075.227.113.453.113.076,0,.147-.003.217-.01.069-.006.135-.016.198-.028v1.037c-.113.02-.239.031-.377.038-.138.006-.273.01-.405.01-.208,0-.404-.015-.589-.043-.185-.028-.349-.083-.49-.165-.142-.081-.253-.198-.335-.349s-.123-.349-.123-.594v-2.875h-.811v-.896h.811v-1.462h1.339v1.462h.98Z" fill="#fff" stroke-width="0"/><path d="M143.243,148.085c.32,0,.613.028.877.085.264.057.49.149.679.278.188.129.334.3.438.514.104.213.156.478.156.792,0,.339-.077.622-.231.848-.154.227-.382.412-.684.557.415.119.724.328.929.627.204.298.306.658.306,1.079,0,.34-.066.633-.198.882-.132.248-.31.45-.533.607s-.478.273-.764.349c-.286.076-.58.113-.881.113h-3.262v-6.73h3.167ZM143.054,150.81c.264,0,.481-.063.65-.188.17-.126.254-.33.254-.613,0-.157-.028-.286-.084-.387-.057-.101-.132-.179-.227-.235s-.203-.096-.325-.118c-.123-.021-.25-.032-.382-.032h-1.386v1.574h1.499ZM143.139,153.666c.145,0,.283-.015.415-.043s.248-.075.349-.142c.101-.065.181-.155.241-.269.06-.113.089-.258.089-.434,0-.346-.097-.592-.292-.74-.195-.147-.453-.221-.773-.221h-1.612v1.848h1.584Z" fill="#fff" stroke-width="0"/><rect x="28.518" y="104.233" width="45.832" height="25.616" fill="#1e4a92" stroke-width="0"/><rect x="77.713" y="104.233" width="45.832" height="25.616" fill="#26a7df" stroke-width="0"/><path d="M42.052,113.091c.435,0,.804.063,1.109.189.305.126.553.293.745.501.191.208.331.444.418.71.088.266.131.542.131.827,0,.279-.043.553-.131.822-.087.269-.227.507-.418.715-.191.208-.439.375-.745.501-.305.126-.674.19-1.109.19h-1.605v2.49h-1.527v-6.946h3.132ZM41.633,116.36c.175,0,.344-.013.506-.039s.305-.076.428-.151c.123-.074.222-.18.297-.316.074-.136.112-.314.112-.535s-.038-.399-.112-.535c-.075-.136-.174-.241-.297-.316s-.266-.125-.428-.151-.331-.039-.506-.039h-1.187v2.082h1.187Z" fill="#fff" stroke-width="0"/><path d="M46.576,118.325c.084.163.196.294.335.394.139.101.303.175.491.224.188.048.383.073.583.073.136,0,.282-.011.438-.034.156-.022.302-.066.438-.131.136-.064.25-.154.34-.268.091-.113.136-.258.136-.433,0-.188-.06-.341-.18-.458s-.277-.214-.472-.292c-.194-.078-.415-.146-.662-.205-.247-.058-.496-.123-.749-.194-.259-.065-.512-.145-.759-.238-.247-.094-.467-.216-.662-.365-.194-.149-.352-.336-.472-.56s-.18-.495-.18-.812c0-.356.076-.666.229-.929.152-.263.352-.482.598-.657.246-.175.525-.305.836-.389.312-.084.623-.126.934-.126.363,0,.711.041,1.046.122.334.081.63.212.89.394.259.182.465.414.618.695.152.282.229.625.229,1.026h-1.479c-.013-.208-.057-.379-.131-.516-.075-.136-.174-.243-.297-.321-.123-.078-.264-.133-.423-.166-.159-.032-.332-.048-.521-.048-.123,0-.246.013-.37.039-.123.026-.235.072-.335.136-.101.065-.183.146-.248.243s-.097.221-.097.37c0,.136.026.247.078.331s.154.162.307.233c.152.071.363.143.632.214.269.072.621.162,1.055.272.13.026.31.073.54.141.23.068.459.177.686.326.227.149.423.349.588.599.166.25.248.569.248.958,0,.318-.062.613-.185.885-.124.272-.307.508-.55.706s-.545.352-.905.462-.777.166-1.25.166c-.383,0-.754-.047-1.114-.141-.36-.094-.678-.242-.954-.443-.276-.201-.495-.457-.657-.769-.162-.311-.24-.681-.233-1.109h1.479c0,.233.042.432.126.593Z" fill="#fff" stroke-width="0"/><path d="M56.829,119.507c-.525.458-1.252.686-2.179.686-.94,0-1.668-.227-2.184-.681-.516-.454-.773-1.154-.773-2.101v-4.319h1.527v4.319c0,.188.016.373.049.554.032.182.1.342.204.481.104.14.248.253.433.341.185.087.433.131.744.131.544,0,.921-.122,1.128-.365s.311-.625.311-1.143v-4.319h1.527v4.319c0,.94-.262,1.639-.788,2.096Z" fill="#fff" stroke-width="0"/><path d="M62.423,120.037v-4.417h-1.712v-1.041c.24.006.472-.011.696-.054.224-.042.425-.117.603-.224s.329-.248.453-.423c.123-.175.204-.392.243-.652h1.099v6.81h-1.381Z" fill="#fff" stroke-width="0"/><path d="M89.388,113.091c.435,0,.804.063,1.109.189.305.126.553.293.745.501.191.208.331.444.418.71.088.266.131.542.131.827,0,.279-.043.553-.131.822-.087.269-.227.507-.418.715-.191.208-.439.375-.745.501-.305.126-.674.19-1.109.19h-1.605v2.49h-1.527v-6.946h3.132ZM88.969,116.36c.175,0,.344-.013.506-.039s.305-.076.428-.151c.123-.074.222-.18.297-.316.074-.136.112-.314.112-.535s-.038-.399-.112-.535c-.075-.136-.174-.241-.297-.316s-.266-.125-.428-.151-.331-.039-.506-.039h-1.187v2.082h1.187Z" fill="#fff" stroke-width="0"/><path d="M93.912,118.325c.084.163.196.294.335.394.139.101.303.175.491.224.188.048.383.073.583.073.136,0,.282-.011.438-.034.156-.022.302-.066.438-.131.136-.064.25-.154.34-.268.091-.113.136-.258.136-.433,0-.188-.06-.341-.18-.458s-.277-.214-.472-.292c-.194-.078-.415-.146-.662-.205-.247-.058-.496-.123-.749-.194-.259-.065-.512-.145-.759-.238-.247-.094-.467-.216-.662-.365-.194-.149-.352-.336-.472-.56s-.18-.495-.18-.812c0-.356.076-.666.229-.929.152-.263.352-.482.598-.657.246-.175.525-.305.836-.389.312-.084.623-.126.934-.126.363,0,.711.041,1.046.122.334.081.63.212.89.394.259.182.465.414.618.695.152.282.229.625.229,1.026h-1.479c-.013-.208-.057-.379-.131-.516-.075-.136-.174-.243-.297-.321-.123-.078-.264-.133-.423-.166-.159-.032-.332-.048-.521-.048-.123,0-.246.013-.37.039-.123.026-.235.072-.335.136-.101.065-.183.146-.248.243s-.097.221-.097.37c0,.136.026.247.078.331s.154.162.307.233c.152.071.363.143.632.214.269.072.621.162,1.055.272.13.026.31.073.54.141.23.068.459.177.686.326.227.149.423.349.588.599.166.25.248.569.248.958,0,.318-.062.613-.185.885-.124.272-.307.508-.55.706s-.545.352-.905.462-.777.166-1.25.166c-.383,0-.754-.047-1.114-.141-.36-.094-.678-.242-.954-.443-.276-.201-.495-.457-.657-.769-.162-.311-.24-.681-.233-1.109h1.479c0,.233.042.432.126.593Z" fill="#fff" stroke-width="0"/><path d="M104.165,119.507c-.525.458-1.252.686-2.179.686-.94,0-1.668-.227-2.184-.681-.516-.454-.773-1.154-.773-2.101v-4.319h1.527v4.319c0,.188.016.373.049.554.032.182.1.342.204.481.104.14.248.253.433.341.185.087.433.131.744.131.544,0,.921-.122,1.128-.365s.311-.625.311-1.143v-4.319h1.527v4.319c0,.94-.262,1.639-.788,2.096Z" fill="#fff" stroke-width="0"/><path d="M107.823,114.759c.104-.334.259-.625.467-.875.208-.25.469-.444.783-.583s.676-.209,1.085-.209c.311,0,.608.048.89.146.282.098.53.237.744.418s.384.405.511.671.189.564.189.895c0,.344-.055.639-.165.885-.11.247-.256.465-.438.657s-.388.365-.618.521c-.23.155-.462.31-.696.462-.233.152-.46.316-.681.491-.221.175-.415.379-.584.613h3.22v1.187h-5c0-.396.057-.739.17-1.031s.268-.553.462-.783c.195-.23.423-.442.686-.637.263-.194.54-.392.832-.593.149-.104.308-.209.477-.316.168-.107.322-.225.462-.355.14-.129.256-.275.35-.438.094-.162.141-.347.141-.555,0-.331-.096-.588-.287-.773-.191-.185-.437-.277-.735-.277-.201,0-.371.047-.511.141-.139.094-.251.217-.335.37-.084.152-.145.321-.18.506-.036.185-.053.368-.053.55h-1.323c-.013-.389.032-.75.136-1.085Z" fill="#fff" stroke-width="0"/><rect x="28.518" y="48.943" width="45.832" height="25.616" fill="#1e4a92" stroke-width="0"/><path d="M42.052,57.803c.435,0,.804.063,1.109.189.305.126.553.293.745.501.191.208.331.444.418.71.088.266.131.542.131.827,0,.279-.043.553-.131.822-.087.269-.227.507-.418.715-.191.208-.439.375-.745.501-.305.126-.674.19-1.109.19h-1.605v2.49h-1.527v-6.946h3.132ZM41.633,61.072c.175,0,.344-.013.506-.039s.305-.076.428-.151c.123-.074.222-.18.297-.316.074-.136.112-.314.112-.535s-.038-.399-.112-.535c-.075-.136-.174-.241-.297-.316s-.266-.125-.428-.151-.331-.039-.506-.039h-1.187v2.082h1.187Z" fill="#fff" stroke-width="0"/><path d="M46.576,63.037c.084.163.196.294.335.394.139.101.303.175.491.224.188.048.383.073.583.073.136,0,.282-.011.438-.034.156-.022.302-.066.438-.131.136-.064.25-.154.34-.268.091-.113.136-.258.136-.433,0-.188-.06-.341-.18-.458s-.277-.214-.472-.292c-.194-.078-.415-.146-.662-.205-.247-.058-.496-.123-.749-.194-.259-.065-.512-.145-.759-.238-.247-.094-.467-.216-.662-.365-.194-.149-.352-.336-.472-.56s-.18-.495-.18-.812c0-.356.076-.666.229-.929.152-.263.352-.482.598-.657.246-.175.525-.305.836-.389.312-.084.623-.126.934-.126.363,0,.711.041,1.046.122.334.081.63.212.89.394.259.182.465.414.618.695.152.282.229.625.229,1.026h-1.479c-.013-.208-.057-.379-.131-.516-.075-.136-.174-.243-.297-.321-.123-.078-.264-.133-.423-.166-.159-.032-.332-.048-.521-.048-.123,0-.246.013-.37.039-.123.026-.235.072-.335.136-.101.065-.183.146-.248.243s-.097.221-.097.37c0,.136.026.247.078.331s.154.162.307.233c.152.071.363.143.632.214.269.072.621.162,1.055.272.13.026.31.073.54.141.23.068.459.177.686.326.227.149.423.349.588.599.166.25.248.569.248.958,0,.318-.062.613-.185.885-.124.272-.307.508-.55.706s-.545.352-.905.462-.777.166-1.25.166c-.383,0-.754-.047-1.114-.141-.36-.094-.678-.242-.954-.443-.276-.201-.495-.457-.657-.769-.162-.311-.24-.681-.233-1.109h1.479c0,.233.042.432.126.593Z" fill="#fff" stroke-width="0"/><path d="M56.829,64.219c-.525.458-1.252.686-2.179.686-.94,0-1.668-.227-2.184-.681-.516-.454-.773-1.154-.773-2.101v-4.319h1.527v4.319c0,.188.016.373.049.554.032.182.1.342.204.481.104.14.248.253.433.341.185.087.433.131.744.131.544,0,.921-.122,1.128-.365s.311-.625.311-1.143v-4.319h1.527v4.319c0,.94-.262,1.639-.788,2.096Z" fill="#fff" stroke-width="0"/><path d="M62.423,64.749v-4.417h-1.712v-1.041c.24.006.472-.011.696-.054.224-.042.425-.117.603-.224s.329-.248.453-.423c.123-.175.204-.392.243-.652h1.099v6.81h-1.381Z" fill="#fff" stroke-width="0"/></svg>