<?xml version="1.0" encoding="UTF-8"?><svg id="b" xmlns="http://www.w3.org/2000/svg" width="4in" height="3.2in" xmlns:xlink="http://www.w3.org/1999/xlink" viewBox="0 0 288 230.4"><defs><clipPath id="c"><rect x="6.385" y="9.384" width="270" height="216" fill="none" stroke-width="0"/></clipPath></defs><g clip-path="url(#c)"><path d="M128.739,38.666l17.014-8.507,25.778,9.28-8.765,4.64.516,13.405,2.578,2.062v3.093l-2.32,2.32,2.062,14.694,2.32,1.031,3.351,47.432-.258,32.223-.516,10.311-10.311,6.96-20.881-9.022s-1.804-4.64-1.804-7.476v-8.249l2.578-3.351-6.445-62.642,1.031-8.507-2.836-3.609-1.547-15.209,1.289-5.929s-3.351-2.32-2.836-14.952Z" fill="#dbdcdd" stroke-width="0"/><line x1="68.022" y1="1.38" x2="279.037" y2="78.746" fill="none" stroke="#231f20" stroke-miterlimit="10" stroke-width=".5"/><path d="M19.617-1.559s-.145,3.214,2.124,6.053c0,0,2.225,1.121,2.466,5.8l1.375,15.83s-.105.965-.383,1.752" fill="none" stroke="#231f20" stroke-miterlimit="10" stroke-width=".5"/><path d="M21.054,4.363c-2.115,1.321-4.74.789-4.74.789L.523-.847" fill="none" stroke="#231f20" stroke-miterlimit="10" stroke-width=".5"/><path d="M29.064,88.159s-3.475-29.673-5.307-52.919c0,0-.175-4.362-2.913-5.06L2.266,22.44c-1.881-.034-1.655,4.835-1.655,4.835.173,2.109,5.72,60.291,5.72,60.291" fill="none" stroke="#231f20" stroke-miterlimit="10" stroke-width=".5"/><path d="M10.421,7.017l6.63,2.446s1.75,1.004,1.839,3.578l.708,13.748L.938,19.209" fill="none" stroke="#231f20" stroke-linecap="round" stroke-linejoin="round" stroke-width=".5"/><path d="M7.517,4.658l10.921,4.03s1.75,1.004,1.839,3.578l.708,13.748" fill="none" stroke="#231f20" stroke-linecap="round" stroke-linejoin="round" stroke-width=".5"/><line x1="19.597" y1="26.79" x2="25.145" y2="23.78" fill="none" stroke="#231f20" stroke-linecap="round" stroke-linejoin="round" stroke-width=".5"/><polygon points="13.712 33.786 15.821 30.786 19.938 35.328 17.86 46.549 13.712 33.786" fill="none" stroke="#231f20" stroke-linecap="round" stroke-linejoin="round" stroke-width=".5"/><polygon points="3.92 29.765 6.029 26.765 10.147 31.306 8.068 42.527 3.92 29.765" fill="none" stroke="#231f20" stroke-linecap="round" stroke-linejoin="round" stroke-width=".5"/><polygon points="16.531 62.919 18.64 59.919 22.757 64.46 20.679 75.681 16.531 62.919" fill="none" stroke="#231f20" stroke-linecap="round" stroke-linejoin="round" stroke-width=".5"/><polygon points="16.212 53.59 14.003 56.518 10.041 51.84 12.495 40.696 16.212 53.59" fill="none" stroke="#231f20" stroke-linecap="round" stroke-linejoin="round" stroke-width=".5"/><polygon points="18.69 83.48 16.481 86.408 12.518 81.73 14.973 70.586 18.69 83.48" fill="none" stroke="#231f20" stroke-linecap="round" stroke-linejoin="round" stroke-width=".5"/><polygon points="6.739 58.897 8.848 55.897 12.966 60.439 10.887 71.659 6.739 58.897" fill="none" stroke="#231f20" stroke-linecap="round" stroke-linejoin="round" stroke-width=".5"/><path d="M47.439,8.744s-.145,3.214,2.124,6.053c0,0,2.225,1.121,2.466,5.8l1.375,15.83s-.105.965-.383,1.752" fill="none" stroke="#231f20" stroke-miterlimit="10" stroke-width=".5"/><path d="M48.876,14.667c-2.115,1.321-4.74.789-4.74.789l-15.791-5.999" fill="none" stroke="#231f20" stroke-miterlimit="10" stroke-width=".5"/><path d="M56.886,98.463s-3.475-29.673-5.307-52.919c0,0-.175-4.362-2.913-5.06l-18.578-7.741c-1.881-.034-1.655,4.835-1.655,4.835.173,2.109,5.72,60.291,5.72,60.291" fill="none" stroke="#231f20" stroke-miterlimit="10" stroke-width=".5"/><path d="M27.067,13.198l17.806,6.57s1.75,1.004,1.839,3.578l.708,13.748-21.224-8.624-1.665-13.646s-.539-3.235,2.538-1.626Z" fill="none" stroke="#231f20" stroke-linecap="round" stroke-linejoin="round" stroke-width=".5"/><path d="M26.016,12.671c.239-.629.867-1.07,2.438-.249l17.806,6.57s1.75,1.004,1.839,3.578l.708,13.748" fill="none" stroke="#231f20" stroke-linecap="round" stroke-linejoin="round" stroke-width=".5"/><line x1="47.419" y1="37.094" x2="52.966" y2="34.084" fill="none" stroke="#231f20" stroke-linecap="round" stroke-linejoin="round" stroke-width=".5"/><polygon points="41.533 44.09 43.642 41.09 47.76 45.632 45.681 56.852 41.533 44.09" fill="none" stroke="#231f20" stroke-linecap="round" stroke-linejoin="round" stroke-width=".5"/><polygon points="31.742 40.068 33.851 37.068 37.968 41.61 35.89 52.831 31.742 40.068" fill="none" stroke="#231f20" stroke-linecap="round" stroke-linejoin="round" stroke-width=".5"/><polygon points="44.352 73.222 46.461 70.222 50.579 74.764 48.5 85.984 44.352 73.222" fill="none" stroke="#231f20" stroke-linecap="round" stroke-linejoin="round" stroke-width=".5"/><polygon points="44.033 63.894 41.825 66.821 37.862 62.144 40.316 50.999 44.033 63.894" fill="none" stroke="#231f20" stroke-linecap="round" stroke-linejoin="round" stroke-width=".5"/><polygon points="46.511 93.784 44.303 96.711 40.34 92.034 42.794 80.889 46.511 93.784" fill="none" stroke="#231f20" stroke-linecap="round" stroke-linejoin="round" stroke-width=".5"/><polygon points="34.561 69.201 36.67 66.201 40.787 70.742 38.709 81.963 34.561 69.201" fill="none" stroke="#231f20" stroke-linecap="round" stroke-linejoin="round" stroke-width=".5"/><path d="M76.697,24.97c-2.115,1.321-4.74.789-4.74.789l-15.791-5.999c-3.085-1.131-4.37-6.106-4.37-6.106l-.897-8.649c-.039-3.686,2.795-2.636,2.795-2.636l18.375,6.495s2.926.493,2.847,4.894l.345,5.29s-.145,3.214,2.124,6.053c0,0,2.225,1.121,2.466,5.8l1.375,15.83s-.105.965-.383,1.752" fill="none" stroke="#231f20" stroke-miterlimit="10" stroke-width=".5"/><path d="M84.707,108.766s-3.475-29.673-5.307-52.919c0,0-.175-4.362-2.913-5.06l-18.578-7.741c-1.881-.034-1.655,4.835-1.655,4.835.173,2.109,5.72,60.291,5.72,60.291" fill="none" stroke="#231f20" stroke-miterlimit="10" stroke-width=".5"/><polygon points="60.032 11.228 56.568 10.061 56.528 7.595 60.078 8.716 60.032 11.228" fill="none" stroke="#231f20" stroke-linecap="round" stroke-linejoin="round" stroke-width=".5"/><polygon points="66.788 13.73 63.324 12.562 63.283 10.097 66.833 11.218 66.788 13.73" fill="none" stroke="#231f20" stroke-linecap="round" stroke-linejoin="round" stroke-width=".5"/><path d="M54.888,23.501l17.806,6.57s1.75,1.004,1.839,3.578l.708,13.748-21.224-8.624-1.665-13.646s-.539-3.235,2.538-1.626Z" fill="none" stroke="#231f20" stroke-linecap="round" stroke-linejoin="round" stroke-width=".5"/><path d="M53.838,22.974c.239-.629.867-1.07,2.438-.249l17.806,6.57s1.75,1.004,1.839,3.578l.708,13.748" fill="none" stroke="#231f20" stroke-linecap="round" stroke-linejoin="round" stroke-width=".5"/><line x1="75.24" y1="47.397" x2="80.788" y2="44.387" fill="none" stroke="#231f20" stroke-linecap="round" stroke-linejoin="round" stroke-width=".5"/><polygon points="69.355 54.394 71.464 51.394 75.581 55.935 73.503 67.156 69.355 54.394" fill="none" stroke="#231f20" stroke-linecap="round" stroke-linejoin="round" stroke-width=".5"/><polygon points="59.563 50.372 61.672 47.372 65.79 51.914 63.711 63.134 59.563 50.372" fill="none" stroke="#231f20" stroke-linecap="round" stroke-linejoin="round" stroke-width=".5"/><polygon points="72.174 83.526 74.283 80.526 78.4 85.068 76.322 96.288 72.174 83.526" fill="none" stroke="#231f20" stroke-linecap="round" stroke-linejoin="round" stroke-width=".5"/><polygon points="71.855 74.198 69.646 77.125 65.684 72.447 68.138 61.303 71.855 74.198" fill="none" stroke="#231f20" stroke-linecap="round" stroke-linejoin="round" stroke-width=".5"/><polygon points="74.333 104.088 72.124 107.015 68.161 102.337 70.616 91.193 74.333 104.088" fill="none" stroke="#231f20" stroke-linecap="round" stroke-linejoin="round" stroke-width=".5"/><polygon points="62.382 79.504 64.491 76.504 68.609 81.046 66.53 92.266 62.382 79.504" fill="none" stroke="#231f20" stroke-linecap="round" stroke-linejoin="round" stroke-width=".5"/><path d="M104.519,35.274c-2.115,1.321-4.74.789-4.74.789l-15.791-5.999c-3.085-1.131-4.37-6.106-4.37-6.106l-.897-8.649c-.039-3.686,2.795-2.636,2.795-2.636l18.375,6.495s2.926.493,2.847,4.894l.345,5.29s-.145,3.214,2.124,6.053c0,0,2.225,1.121,2.466,5.8l1.375,15.83s-.105.965-.383,1.752" fill="none" stroke="#231f20" stroke-miterlimit="10" stroke-width=".5"/><path d="M112.529,119.07s-3.475-29.673-5.307-52.919c0,0-.175-4.362-2.913-5.06l-18.578-7.741c-1.881-.034-1.655,4.835-1.655,4.835.173,2.109,5.72,60.291,5.72,60.291" fill="none" stroke="#231f20" stroke-miterlimit="10" stroke-width=".5"/><polygon points="87.854 21.532 84.39 20.364 84.349 17.898 87.899 19.019 87.854 21.532" fill="none" stroke="#231f20" stroke-linecap="round" stroke-linejoin="round" stroke-width=".5"/><polygon points="94.609 24.034 91.145 22.866 91.105 20.4 94.655 21.521 94.609 24.034" fill="none" stroke="#231f20" stroke-linecap="round" stroke-linejoin="round" stroke-width=".5"/><path d="M82.71,33.805l17.806,6.57s1.75,1.004,1.839,3.578l.708,13.748-21.224-8.624-1.665-13.646s-.539-3.235,2.538-1.626Z" fill="none" stroke="#231f20" stroke-linecap="round" stroke-linejoin="round" stroke-width=".5"/><path d="M81.659,33.278c.239-.629.867-1.07,2.438-.249l17.806,6.57s1.75,1.004,1.839,3.578l.708,13.748" fill="none" stroke="#231f20" stroke-linecap="round" stroke-linejoin="round" stroke-width=".5"/><line x1="103.062" y1="57.701" x2="108.609" y2="54.691" fill="none" stroke="#231f20" stroke-linecap="round" stroke-linejoin="round" stroke-width=".5"/><polygon points="97.176 64.697 99.285 61.697 103.403 66.239 101.324 77.459 97.176 64.697" fill="none" stroke="#231f20" stroke-linecap="round" stroke-linejoin="round" stroke-width=".5"/><polygon points="87.385 60.675 89.494 57.676 93.611 62.217 91.533 73.438 87.385 60.675" fill="none" stroke="#231f20" stroke-linecap="round" stroke-linejoin="round" stroke-width=".5"/><polygon points="99.995 93.829 102.104 90.83 106.222 95.371 104.143 106.592 99.995 93.829" fill="none" stroke="#231f20" stroke-linecap="round" stroke-linejoin="round" stroke-width=".5"/><polygon points="99.676 84.501 97.468 87.429 93.505 82.751 95.959 71.607 99.676 84.501" fill="none" stroke="#231f20" stroke-linecap="round" stroke-linejoin="round" stroke-width=".5"/><polygon points="102.154 114.391 99.946 117.319 95.983 112.641 98.437 101.497 102.154 114.391" fill="none" stroke="#231f20" stroke-linecap="round" stroke-linejoin="round" stroke-width=".5"/><polygon points="90.204 89.808 92.313 86.808 96.43 91.349 94.352 102.57 90.204 89.808" fill="none" stroke="#231f20" stroke-linecap="round" stroke-linejoin="round" stroke-width=".5"/><path d="M130.903,37.888l-.345-3.523c.079-4.401-2.847-4.894-2.847-4.894l-18.375-6.495s-2.834-1.05-2.795,2.636l.897,8.649s1.285,4.976,4.37,6.106l15.791,5.999s.751.548,1.396.145" fill="none" stroke="#231f20" stroke-miterlimit="10" stroke-width=".5"/><path d="M130.863,70.867l-17.312-7.213c-1.881-.034-1.655,4.835-1.655,4.835.173,2.109,5.72,60.291,5.72,60.291" fill="none" stroke="#231f20" stroke-miterlimit="10" stroke-width=".5"/><polygon points="115.675 31.835 112.211 30.668 112.171 28.202 115.721 29.323 115.675 31.835" fill="none" stroke="#231f20" stroke-linecap="round" stroke-linejoin="round" stroke-width=".5"/><polygon points="122.431 34.337 118.967 33.17 118.926 30.704 122.476 31.825 122.431 34.337" fill="none" stroke="#231f20" stroke-linecap="round" stroke-linejoin="round" stroke-width=".5"/><path d="M130.443,67.826l-20.784-8.445-1.665-13.646s-.539-3.235,2.538-1.626l17.806,6.57s1.75,1.004,1.839,3.578l.225,4.375" fill="none" stroke="#231f20" stroke-linecap="round" stroke-linejoin="round" stroke-width=".5"/><line x1="131.563" y1="53.48" x2="131.763" y2="57.795" fill="none" stroke="#231f20" stroke-linecap="round" stroke-linejoin="round" stroke-width=".5"/><path d="M109.481,43.582c.239-.629.867-1.07,2.438-.249l17.806,6.57" fill="none" stroke="#231f20" stroke-linecap="round" stroke-linejoin="round" stroke-width=".5"/><polygon points="124.998 75.001 127.107 72.001 131.224 76.542 129.146 87.763 124.998 75.001" fill="none" stroke="#231f20" stroke-linecap="round" stroke-linejoin="round" stroke-width=".5"/><polygon points="115.206 70.979 117.315 67.979 121.433 72.521 119.354 83.741 115.206 70.979" fill="none" stroke="#231f20" stroke-linecap="round" stroke-linejoin="round" stroke-width=".5"/><polygon points="127.817 104.133 129.926 101.133 134.043 105.675 131.965 116.895 127.817 104.133" fill="none" stroke="#231f20" stroke-linecap="round" stroke-linejoin="round" stroke-width=".5"/><polygon points="127.498 94.805 125.289 97.732 121.327 93.055 123.781 81.91 127.498 94.805" fill="none" stroke="#231f20" stroke-linecap="round" stroke-linejoin="round" stroke-width=".5"/><polygon points="129.976 124.695 127.767 127.622 123.804 122.945 126.259 111.8 129.976 124.695" fill="none" stroke="#231f20" stroke-linecap="round" stroke-linejoin="round" stroke-width=".5"/><polygon points="118.025 100.111 120.134 97.111 124.252 101.653 122.173 112.874 118.025 100.111" fill="none" stroke="#231f20" stroke-linecap="round" stroke-linejoin="round" stroke-width=".5"/><path d="M187.983,66.185c-2.115,1.321-4.74.789-4.74.789l-15.791-5.999c-3.085-1.131-4.37-6.106-4.37-6.106l-.897-8.649c-.039-3.686,2.795-2.636,2.795-2.636l18.375,6.495s2.926.493,2.847,4.894l.345,5.29s-.145,3.214,2.124,6.053c0,0,2.225,1.121,2.466,5.8l1.375,15.83s-.105.965-.383,1.752" fill="none" stroke="#231f20" stroke-miterlimit="10" stroke-width=".5"/><path d="M195.993,149.981s-3.475-29.673-5.307-52.919c0,0-.175-4.362-2.913-5.06l-18.578-7.741c-1.881-.034-1.655,4.835-1.655,4.835.173,2.109,5.72,60.291,5.72,60.291" fill="none" stroke="#231f20" stroke-miterlimit="10" stroke-width=".5"/><polygon points="171.318 52.443 167.854 51.275 167.814 48.809 171.364 49.93 171.318 52.443" fill="none" stroke="#231f20" stroke-linecap="round" stroke-linejoin="round" stroke-width=".5"/><polygon points="178.074 54.944 174.61 53.777 174.569 51.311 178.119 52.432 178.074 54.944" fill="none" stroke="#231f20" stroke-linecap="round" stroke-linejoin="round" stroke-width=".5"/><path d="M166.174,64.716l17.806,6.57s1.75,1.004,1.839,3.578l.708,13.748-21.224-8.624-1.665-13.646s-.539-3.235,2.538-1.626Z" fill="none" stroke="#231f20" stroke-linecap="round" stroke-linejoin="round" stroke-width=".5"/><path d="M165.124,64.189c.239-.629.867-1.07,2.438-.249l17.806,6.57s1.75,1.004,1.839,3.578l.708,13.748" fill="none" stroke="#231f20" stroke-linecap="round" stroke-linejoin="round" stroke-width=".5"/><line x1="186.526" y1="88.612" x2="192.074" y2="85.602" fill="none" stroke="#231f20" stroke-linecap="round" stroke-linejoin="round" stroke-width=".5"/><polygon points="180.641 95.608 182.75 92.608 186.867 97.15 184.789 108.37 180.641 95.608" fill="none" stroke="#231f20" stroke-linecap="round" stroke-linejoin="round" stroke-width=".5"/><polygon points="170.849 91.586 172.958 88.586 177.076 93.128 174.997 104.349 170.849 91.586" fill="none" stroke="#231f20" stroke-linecap="round" stroke-linejoin="round" stroke-width=".5"/><polygon points="183.46 124.74 185.569 121.74 189.686 126.282 187.608 137.503 183.46 124.74" fill="none" stroke="#231f20" stroke-linecap="round" stroke-linejoin="round" stroke-width=".5"/><polygon points="183.141 115.412 180.932 118.339 176.97 113.662 179.424 102.518 183.141 115.412" fill="none" stroke="#231f20" stroke-linecap="round" stroke-linejoin="round" stroke-width=".5"/><polygon points="185.619 145.302 183.41 148.229 179.448 143.552 181.902 132.408 185.619 145.302" fill="none" stroke="#231f20" stroke-linecap="round" stroke-linejoin="round" stroke-width=".5"/><polygon points="173.668 120.719 175.777 117.719 179.895 122.26 177.816 133.481 173.668 120.719" fill="none" stroke="#231f20" stroke-linecap="round" stroke-linejoin="round" stroke-width=".5"/><path d="M215.805,76.489c-2.115,1.321-4.74.789-4.74.789l-15.791-5.999c-3.085-1.131-4.37-6.106-4.37-6.106l-.897-8.649c-.039-3.686,2.795-2.636,2.795-2.636l18.375,6.495s2.926.493,2.847,4.894l.345,5.29s-.145,3.214,2.124,6.053c0,0,2.225,1.121,2.466,5.8l1.375,15.83s-.105.965-.383,1.752" fill="none" stroke="#231f20" stroke-miterlimit="10" stroke-width=".5"/><path d="M223.815,160.284s-3.475-29.673-5.307-52.919c0,0-.175-4.362-2.913-5.06l-18.578-7.741c-1.881-.034-1.655,4.835-1.655,4.835.173,2.109,5.72,60.291,5.72,60.291" fill="none" stroke="#231f20" stroke-miterlimit="10" stroke-width=".5"/><polygon points="199.14 62.746 195.676 61.579 195.635 59.113 199.185 60.234 199.14 62.746" fill="none" stroke="#231f20" stroke-linecap="round" stroke-linejoin="round" stroke-width=".5"/><polygon points="205.895 65.248 202.431 64.081 202.391 61.615 205.941 62.736 205.895 65.248" fill="none" stroke="#231f20" stroke-linecap="round" stroke-linejoin="round" stroke-width=".5"/><path d="M193.996,75.019l17.806,6.57s1.75,1.004,1.839,3.578l.708,13.748-21.224-8.624-1.665-13.646s-.539-3.235,2.538-1.626Z" fill="none" stroke="#231f20" stroke-linecap="round" stroke-linejoin="round" stroke-width=".5"/><path d="M192.945,74.492c.239-.629.867-1.07,2.438-.249l17.806,6.57s1.75,1.004,1.839,3.578l.708,13.748" fill="none" stroke="#231f20" stroke-linecap="round" stroke-linejoin="round" stroke-width=".5"/><line x1="214.348" y1="98.915" x2="219.896" y2="95.906" fill="none" stroke="#231f20" stroke-linecap="round" stroke-linejoin="round" stroke-width=".5"/><polygon points="208.462 105.912 210.571 102.912 214.689 107.453 212.611 118.674 208.462 105.912" fill="none" stroke="#231f20" stroke-linecap="round" stroke-linejoin="round" stroke-width=".5"/><polygon points="198.671 101.89 200.78 98.89 204.897 103.432 202.819 114.652 198.671 101.89" fill="none" stroke="#231f20" stroke-linecap="round" stroke-linejoin="round" stroke-width=".5"/><polygon points="211.281 135.044 213.39 132.044 217.508 136.586 215.43 147.806 211.281 135.044" fill="none" stroke="#231f20" stroke-linecap="round" stroke-linejoin="round" stroke-width=".5"/><polygon points="210.962 125.716 208.754 128.643 204.791 123.966 207.246 112.821 210.962 125.716" fill="none" stroke="#231f20" stroke-linecap="round" stroke-linejoin="round" stroke-width=".5"/><polygon points="213.44 155.606 211.232 158.533 207.269 153.855 209.723 142.711 213.44 155.606" fill="none" stroke="#231f20" stroke-linecap="round" stroke-linejoin="round" stroke-width=".5"/><polygon points="201.49 131.022 203.599 128.022 207.716 132.564 205.638 143.785 201.49 131.022" fill="none" stroke="#231f20" stroke-linecap="round" stroke-linejoin="round" stroke-width=".5"/><path d="M243.626,86.792c-2.115,1.321-4.74.789-4.74.789l-15.791-5.999c-3.085-1.131-4.37-6.106-4.37-6.106l-.897-8.649c-.039-3.686,2.795-2.636,2.795-2.636l18.375,6.495s2.926.493,2.847,4.894l.345,5.29s-.145,3.214,2.124,6.053c0,0,2.225,1.121,2.466,5.8l1.375,15.83s-.105.965-.383,1.752" fill="none" stroke="#231f20" stroke-miterlimit="10" stroke-width=".5"/><path d="M246.329,117.669s-.175-4.362-2.913-5.06l-18.578-7.741c-1.881-.034-1.655,4.835-1.655,4.835.173,2.109,5.72,60.291,5.72,60.291" fill="none" stroke="#231f20" stroke-miterlimit="10" stroke-width=".5"/><polygon points="226.961 73.05 223.497 71.882 223.457 69.416 227.007 70.538 226.961 73.05" fill="none" stroke="#231f20" stroke-linecap="round" stroke-linejoin="round" stroke-width=".5"/><polygon points="233.717 75.552 230.253 74.384 230.212 71.918 233.762 73.039 233.717 75.552" fill="none" stroke="#231f20" stroke-linecap="round" stroke-linejoin="round" stroke-width=".5"/><path d="M221.818,85.323l17.806,6.57s1.75,1.004,1.839,3.578l.708,13.748-21.224-8.624-1.665-13.646s-.539-3.235,2.538-1.626Z" fill="none" stroke="#231f20" stroke-linecap="round" stroke-linejoin="round" stroke-width=".5"/><path d="M220.767,84.796c.239-.629.867-1.07,2.438-.249l17.806,6.57s1.75,1.004,1.839,3.578l.708,13.748" fill="none" stroke="#231f20" stroke-linecap="round" stroke-linejoin="round" stroke-width=".5"/><line x1="242.17" y1="109.219" x2="247.717" y2="106.209" fill="none" stroke="#231f20" stroke-linecap="round" stroke-linejoin="round" stroke-width=".5"/><polygon points="236.284 116.215 238.393 113.215 242.511 117.757 240.432 128.978 236.284 116.215" fill="none" stroke="#231f20" stroke-linecap="round" stroke-linejoin="round" stroke-width=".5"/><polygon points="226.492 112.194 228.601 109.194 232.719 113.735 230.641 124.956 226.492 112.194" fill="none" stroke="#231f20" stroke-linecap="round" stroke-linejoin="round" stroke-width=".5"/><polygon points="238.784 136.019 236.575 138.947 232.613 134.269 235.067 123.125 238.784 136.019" fill="none" stroke="#231f20" stroke-linecap="round" stroke-linejoin="round" stroke-width=".5"/><polygon points="229.311 141.326 231.42 138.326 235.538 142.868 233.46 154.088 229.311 141.326" fill="none" stroke="#231f20" stroke-linecap="round" stroke-linejoin="round" stroke-width=".5"/><path d="M271.448,97.096c-2.115,1.321-4.74.789-4.74.789l-15.791-5.999c-3.085-1.131-4.37-6.106-4.37-6.106l-.897-8.649c-.039-3.686,2.795-2.636,2.795-2.636l18.375,6.495s2.926.493,2.847,4.894l.345,5.29s-.145,3.214,2.124,6.053c0,0,2.225,1.121,2.466,5.8l1.375,15.83s-.105.965-.383,1.752" fill="none" stroke="#231f20" stroke-miterlimit="10" stroke-width=".5"/><polygon points="254.783 83.353 251.319 82.186 251.278 79.72 254.828 80.841 254.783 83.353" fill="none" stroke="#231f20" stroke-linecap="round" stroke-linejoin="round" stroke-width=".5"/><polygon points="261.538 85.855 258.074 84.688 258.034 82.222 261.584 83.343 261.538 85.855" fill="none" stroke="#231f20" stroke-linecap="round" stroke-linejoin="round" stroke-width=".5"/><path d="M249.639,95.627l17.806,6.57s1.75,1.004,1.839,3.578l.708,13.748-21.224-8.624-1.665-13.646s-.539-3.235,2.538-1.626Z" fill="none" stroke="#231f20" stroke-linecap="round" stroke-linejoin="round" stroke-width=".5"/><path d="M248.588,95.1c.239-.629.867-1.07,2.438-.249l17.806,6.57s1.75,1.004,1.839,3.578l.708,13.748" fill="none" stroke="#231f20" stroke-linecap="round" stroke-linejoin="round" stroke-width=".5"/><path d="M193.293,172.762l1.038,9.63c-.559,3.493-3.655,1.796-3.655,1.796,0,0-17.308-6.425-19.039-9.125s-1.402-12.674-1.402-12.674c-.729-4.29,4.519-5.82,4.519-5.82l19.462,7.674s-1.751,1.73-.922,8.518Z" fill="none" stroke="#231f20" stroke-linecap="round" stroke-linejoin="round" stroke-width=".5"/><path d="M137.624,160.734s-17.308-6.425-19.039-9.125-1.402-12.674-1.402-12.674c-.729-4.29,4.519-5.82,4.519-5.82l19.462,7.674s-1.751,1.73-.922,8.518" fill="none" stroke="#231f20" stroke-linecap="round" stroke-linejoin="round" stroke-width=".5"/><path d="M113.715,137.58l1.038,9.63c-.559,3.493-3.655,1.796-3.655,1.796,0,0-17.308-6.425-19.039-9.125-1.732-2.7-1.402-12.674-1.402-12.674-.729-4.29,4.519-5.82,4.519-5.82l19.462,7.674s-1.751,1.73-.922,8.518Z" fill="none" stroke="#231f20" stroke-linecap="round" stroke-linejoin="round" stroke-width=".5"/><path d="M87.189,125.853l1.038,9.63c-.559,3.493-3.655,1.796-3.655,1.796,0,0-17.308-6.425-19.039-9.125-1.732-2.7-1.402-12.674-1.402-12.674-.729-4.29,4.519-5.82,4.519-5.82l19.462,7.674s-1.751,1.73-.922,8.518Z" fill="none" stroke="#231f20" stroke-linecap="round" stroke-linejoin="round" stroke-width=".5"/><path d="M60.663,114.126l1.038,9.63c-.559,3.493-3.655,1.796-3.655,1.796,0,0-17.308-6.425-19.039-9.125s-1.402-12.674-1.402-12.674c-.729-4.29,4.519-5.82,4.519-5.82l19.462,7.674s-1.751,1.73-.922,8.518Z" fill="none" stroke="#231f20" stroke-linecap="round" stroke-linejoin="round" stroke-width=".5"/><path d="M34.137,102.399l1.038,9.63c-.559,3.493-3.655,1.796-3.655,1.796,0,0-17.308-6.425-19.039-9.125s-1.402-12.674-1.402-12.674c-.729-4.29,4.519-5.82,4.519-5.82l19.462,7.674s-1.751,1.73-.922,8.518Z" fill="none" stroke="#231f20" stroke-linecap="round" stroke-linejoin="round" stroke-width=".5"/><line x1="89.5" y1="2.377" x2="278.836" y2="71.795" fill="none" stroke="#231f20" stroke-miterlimit="10" stroke-width=".5"/><line x1="51.914" y1="2.463" x2="59.459" y2="-1.226" fill="none" stroke="#231f20" stroke-miterlimit="10" stroke-width=".5"/><line x1="74.556" y1="10.01" x2="82.1" y2="6.321" fill="none" stroke="#231f20" stroke-miterlimit="10" stroke-width=".5"/><line x1="79.799" y1="12.838" x2="87.343" y2="9.15" fill="none" stroke="#231f20" stroke-miterlimit="10" stroke-width=".5"/><line x1="102.44" y1="20.386" x2="109.984" y2="16.697" fill="none" stroke="#231f20" stroke-miterlimit="10" stroke-width=".5"/><line x1="107.683" y1="23.214" x2="115.228" y2="19.526" fill="none" stroke="#231f20" stroke-miterlimit="10" stroke-width=".5"/><line x1="130.324" y1="30.761" x2="137.869" y2="27.073" fill="none" stroke="#231f20" stroke-miterlimit="10" stroke-width=".5"/><line x1="163.419" y1="43.527" x2="171.782" y2="39.459" fill="none" stroke="#231f20" stroke-miterlimit="10" stroke-width=".5"/><line x1="186.06" y1="51.075" x2="193.605" y2="47.386" fill="none" stroke="#231f20" stroke-miterlimit="10" stroke-width=".5"/><line x1="190.951" y1="54.104" x2="199.314" y2="50.035" fill="none" stroke="#231f20" stroke-miterlimit="10" stroke-width=".5"/><line x1="213.593" y1="61.651" x2="221.137" y2="57.963" fill="none" stroke="#231f20" stroke-miterlimit="10" stroke-width=".5"/><line x1="218.819" y1="64.177" x2="227.182" y2="60.108" fill="none" stroke="#231f20" stroke-miterlimit="10" stroke-width=".5"/><line x1="241.461" y1="71.724" x2="249.005" y2="68.035" fill="none" stroke="#231f20" stroke-miterlimit="10" stroke-width=".5"/><line x1="246.687" y1="74.417" x2="255.05" y2="70.349" fill="none" stroke="#231f20" stroke-miterlimit="10" stroke-width=".5"/><line x1="269.329" y1="81.964" x2="276.873" y2="78.276" fill="none" stroke="#231f20" stroke-miterlimit="10" stroke-width=".5"/><path d="M154.126,60.546c-2.115,1.321-4.74.789-4.74.789l-15.791-5.999c-3.085-1.131-4.37-6.106-4.37-6.106l-.897-8.649c-.039-3.686,2.795-2.636,2.795-2.636l18.375,6.495s2.926.493,2.847,4.894l.345,5.29s-.145,3.214,2.124,6.053c0,0,2.225,1.121,2.466,5.8l1.375,15.83s-.401.646-.383,1.752c0,0,.56.547.746,2.165s4.791,47.975,4.791,47.975" fill="none" stroke="#231f20" stroke-linecap="round" stroke-linejoin="round" stroke-width=".5"/><path d="M162.136,144.341s-3.475-29.673-5.307-52.919c0,0-.175-4.362-2.913-5.06l-18.578-7.741c-1.881-.034-1.655,4.835-1.655,4.835.173,2.109,5.72,60.291,5.72,60.291" fill="none" stroke="#231f20" stroke-miterlimit="10" stroke-width=".5"/><polygon points="137.461 46.803 133.997 45.636 133.956 43.17 137.506 44.291 137.461 46.803" fill="none" stroke="#231f20" stroke-linecap="round" stroke-linejoin="round" stroke-width=".5"/><polygon points="144.216 49.305 140.752 48.138 140.711 45.672 144.261 46.793 144.216 49.305" fill="none" stroke="#231f20" stroke-linecap="round" stroke-linejoin="round" stroke-width=".5"/><path d="M132.317,59.076l17.806,6.57s1.75,1.004,1.839,3.578l.708,13.748-21.224-8.624-1.665-13.646s-.539-3.235,2.538-1.626Z" fill="none" stroke="#231f20" stroke-linecap="round" stroke-linejoin="round" stroke-width=".5"/><path d="M131.266,58.549c.239-.629.867-1.07,2.438-.249l17.806,6.57s1.75,1.004,1.839,3.578l.708,13.748" fill="none" stroke="#231f20" stroke-linecap="round" stroke-linejoin="round" stroke-width=".5"/><line x1="152.669" y1="82.972" x2="158.216" y2="79.963" fill="none" stroke="#231f20" stroke-linecap="round" stroke-linejoin="round" stroke-width=".5"/><polygon points="146.783 89.969 148.892 86.969 153.01 91.51 150.931 102.731 146.783 89.969" fill="none" stroke="#231f20" stroke-linecap="round" stroke-linejoin="round" stroke-width=".5"/><polygon points="136.992 85.947 139.101 82.947 143.218 87.489 141.14 98.709 136.992 85.947" fill="none" stroke="#231f20" stroke-linecap="round" stroke-linejoin="round" stroke-width=".5"/><polygon points="149.602 119.101 151.711 116.101 155.829 120.643 153.75 131.863 149.602 119.101" fill="none" stroke="#231f20" stroke-linecap="round" stroke-linejoin="round" stroke-width=".5"/><polygon points="149.283 109.773 147.075 112.7 143.112 108.023 145.566 96.878 149.283 109.773" fill="none" stroke="#231f20" stroke-linecap="round" stroke-linejoin="round" stroke-width=".5"/><polygon points="151.761 139.663 149.553 142.59 145.59 137.913 148.044 126.768 151.761 139.663" fill="none" stroke="#231f20" stroke-linecap="round" stroke-linejoin="round" stroke-width=".5"/><polygon points="139.811 115.079 141.92 112.079 146.037 116.621 143.959 127.842 139.811 115.079" fill="none" stroke="#231f20" stroke-linecap="round" stroke-linejoin="round" stroke-width=".5"/><path d="M160.731,165.699l1.038,9.63c-.559,3.493-3.655,1.796-3.655,1.796,0,0-17.308-6.425-19.039-9.125-1.732-2.7-1.402-12.674-1.402-12.674-.729-4.29,4.519-5.82,4.519-5.82l19.462,7.674s-1.751,1.73-.922,8.518Z" fill="none" stroke="#231f20" stroke-linecap="round" stroke-linejoin="round" stroke-width=".5"/><line x1="145.383" y1="30.286" x2="129.154" y2="38.354" fill="none" stroke="#231f20" stroke-linecap="round" stroke-linejoin="round" stroke-width=".5"/><line x1="151.845" y1="45.682" x2="166.682" y2="37.916" fill="none" stroke="#231f20" stroke-miterlimit="10" stroke-width=".5"/><line x1="163.788" y1="174.094" x2="170.076" y2="170.785" fill="none" stroke="#231f20" stroke-linecap="round" stroke-linejoin="round" stroke-width=".5"/><line x1="154.813" y1="60.676" x2="162.766" y2="56.975" fill="none" stroke="#231f20" stroke-linecap="round" stroke-linejoin="round" stroke-width=".5"/><path d="M15.793,150.016c15.345-6.074,49.551-15.345,90.15-6.074,0,0,8.312,2.877,26.534,4.476l5.792.354s2.09.627,3.135-3.553.418-11.912.418-11.912l-.456-2.503s-2.915-14.063-24.189-21.87c-21.274-7.807-33.765-7.612-33.765-7.612l-32.008-.586s-18.416-7.258-23.03-15.809c-3.841-7.117-21.164-50.533-4.63-81.872C23.744,3.056,1.944-5.832,1.944,7.485,1.944,30.877.449,156.09,15.793,150.016Z" fill="#fff" stroke-width="0"/><path d="M182.467,229.886h99.2V55.787c-14.731,23.025-35.597,60.594-37.563,64.168-2.768,5.033-5.033,13.842-18.876,33.976-2.912,4.236-5.992,9.018-9.039,13.928l-.641-1.585c-8.14-26.772-31.114-34.189-31.114-34.189-20.441-7.959-25.506.904-25.506.904l-2.352-.904s-3.256-.181-5.608,5.065c-2.352,5.246.543,9.587,4.522,13.929,3.98,4.341,15.919,10.492,15.919,10.492,0,0,7.006,9.223,7.258,27.847,0,0-1.51,10.57-.503,17.114.785,5.106-1.034,16.952-2.588,24.543-.438,2.138,6.89-1.187,6.89-1.187Z" fill="#fff" stroke-width="0"/><path d="M141.059,130.812s-2.607-14.071-23.881-21.878c-21.274-7.807-33.765-7.612-33.765-7.612l-32.008-.586s-18.416-7.258-23.03-15.809c-3.841-7.117-21.164-50.533-4.63-81.872" fill="none" stroke="#231f20" stroke-miterlimit="10" stroke-width=".5"/><path d="M15.793,150.016c15.345-6.074,49.551-15.345,90.15-6.074,0,0,8.312,2.877,26.534,4.476" fill="none" stroke="#231f20" stroke-miterlimit="10" stroke-width=".5"/><path d="M141.823,133.307s-1.463-5.434-8.777-7.106c-7.315-1.672-15.047-1.045-15.047-1.045,0,0-13.584,2.717-3.344,17.555,0,0,4.598,3.762,23.616,6.061,0,0,2.09.627,3.135-3.553s.418-11.912.418-11.912Z" fill="none" stroke="#231f20" stroke-miterlimit="10" stroke-width=".5"/><path d="M78.86,119.594s-4.532,12.173,2.201,17.482" fill="none" stroke="#231f20" stroke-linecap="round" stroke-linejoin="round" stroke-width=".5"/><path d="M82.608,129.253s-1.813-12.561,8.288-16.317" fill="none" stroke="#231f20" stroke-linecap="round" stroke-linejoin="round" stroke-width=".5"/><path d="M87.14,122.002s5.439,6.604,2.201,14.115" fill="none" stroke="#231f20" stroke-linecap="round" stroke-linejoin="round" stroke-width=".5"/><path d="M158.93,132.989s5.065-8.864,25.506-.904c0,0,22.974,7.417,31.114,34.189" fill="none" stroke="#231f20" stroke-linecap="round" stroke-linejoin="round" stroke-width=".5"/><path d="M156.578,132.084s11.215,5.246,13.024,10.854c1.809,5.608,4.341,15.919,1.809,18.632,0,0-11.939-6.15-15.919-10.492-3.98-4.341-6.874-8.683-4.522-13.929,2.352-5.246,5.608-5.065,5.608-5.065Z" fill="none" stroke="#231f20" stroke-linecap="round" stroke-linejoin="round" stroke-width=".5"/><path d="M171.411,161.57s7.006,9.223,7.258,27.847c0,0-1.51,10.57-.503,17.114.755,4.908-.897,16.044-2.407,23.642" fill="none" stroke="#231f20" stroke-linecap="round" stroke-linejoin="round" stroke-width=".5"/><path d="M193.769,206.53s17.617-32.466,31.459-52.6c13.842-20.134,16.107-28.943,18.876-33.976,1.84-3.345,20.242-36.481,34.67-59.589" fill="none" stroke="#231f20" stroke-linecap="round" stroke-linejoin="round" stroke-width=".5"/><path d="M176.235,164.941s2.364-14.005,8.185-16.915" fill="none" stroke="#231f20" stroke-linecap="round" stroke-linejoin="round" stroke-width=".5"/><path d="M179.509,164.577s4.729-3.456,7.457-9.64" fill="none" stroke="#231f20" stroke-linecap="round" stroke-linejoin="round" stroke-width=".5"/></g></svg>