<?xml version="1.0" encoding="UTF-8"?><svg xmlns="http://www.w3.org/2000/svg" width="3.125in" height="3.75in" viewBox="0 0 225 270"><g id="a"><path d="M118.949,186.441c6.381,0,11.602-5.221,11.602-11.602h0c0-6.381-5.221-11.602-11.602-11.602h-16.14V50.885c0-.792.648-1.44,1.44-1.44h7.668v2.734s.081.533.8.533h14.842s.788.046.765-.51l.042-2.757h8.543c.792,0,1.44.648,1.44,1.44v162.052c0,.792-.648,1.44-1.44,1.44h-8.551s0-1.69,0-2.515-.857-.952-.857-.952c0,0-14.155-.159-14.885,0s-.666.92-.666.92v2.547h-7.701c-.792,0-1.44-.648-1.44-1.44v-26.497h16.14Z" fill="#d0d2d3" stroke="#231f20" stroke-miterlimit="10" stroke-width=".5"/><path d="M201.012,214.377h-58.466c-.792,0-1.44-.648-1.44-1.44V50.885c0-.792.648-1.44,1.44-1.44h58.466" fill="#d0d2d3" stroke="#231f20" stroke-miterlimit="10" stroke-width=".5"/><rect x="108.488" y="83.089" width="19.995" height="12.66" rx="6.33" ry="6.33" fill="#fff" stroke="#231f20" stroke-linecap="round" stroke-linejoin="round" stroke-width=".5"/><circle cx="119.324" cy="68.956" r="6.048" fill="none" stroke="#231f20" stroke-linecap="round" stroke-linejoin="round" stroke-width=".5"/><circle cx="119.324" cy="68.956" r="4.06" fill="none" stroke="#231f20" stroke-linecap="round" stroke-linejoin="round" stroke-width=".5"/><rect x="104.973" y="96.869" width="30.866" height="60.424" rx="1.44" ry="1.44" fill="none" stroke="#fff" stroke-linecap="round" stroke-linejoin="round" stroke-width=".5"/><rect x="138.354" y="50.643" width="2.792" height="162.479" rx="1.396" ry="1.396" fill="#231f20"/><polygon points="71.789 50.418 26.395 50.418 25.028 51.668 26.395 231.304 70.399 232.289 71.789 231.304 71.789 50.418" fill="#272626"/><rect x="25.027" y="51.655" width="45.394" height="180.649" fill="#4e4f4f"/><polygon points="63.117 170.154 32.864 170.154 32.864 152.003 47.739 152.003 63.117 152.003 63.117 170.154" fill="#fff" stroke="#231f20" stroke-miterlimit="10"/><circle cx="39.562" cy="117.936" r="3.737" fill="#fff" stroke="#231f20" stroke-miterlimit="10" stroke-width=".525"/><circle cx="39.562" cy="129.79" r="3.737" fill="#fff" stroke="#231f20" stroke-miterlimit="10" stroke-width=".525"/><circle cx="39.562" cy="141.644" r="3.737" fill="#fff" stroke="#231f20" stroke-miterlimit="10" stroke-width=".525"/><path d="M51.019,126.415c0-.492-.369-.738-.738-.738s-.738.369-.738.738l.492,4.55c0,.246.123.246.246.246s.246-.123.246-.246l.492-4.55M51.142,132.932c0-.492-.369-.861-.861-.861s-.861.369-.861.861c0,.369.369.738.861.738s.861-.369.861-.738Z" fill="#fff" fill-rule="evenodd"/><line x1="47.993" y1="170.147" x2="47.993" y2="152.05" fill="none" stroke="#231f20" stroke-miterlimit="10" stroke-width=".453"/><path d="M53.846,116.764c-.492-1.967-2.582-3.074-4.55-2.582-2.09.615-3.197,2.705-2.582,4.672.615,1.967,2.705,3.074,4.673,2.582,1.967-.615,3.074-2.705,2.459-4.673M53.355,117.502c.246,1.598-.984,3.197-2.705,3.32-1.23.246-2.582-.492-3.074-1.721l2.09-2.09.861,3.32,2.828-2.828ZM47.206,118.24c-.123-1.721.984-3.32,2.705-3.443,1.353-.246,2.582.492,3.197,1.721l-2.09,2.09-.861-3.32-2.951,2.951Z" fill="#fff" fill-rule="evenodd"/><path d="M54.085,141.516c0-2.053-1.691-3.744-3.864-3.744-2.053,0-3.744,1.691-3.744,3.744,0,2.174,1.691,3.864,3.744,3.864,2.174,0,3.864-1.691,3.864-3.864ZM53.119,141.516c0,1.691-1.328,2.898-2.898,2.898s-2.898-1.208-2.898-2.898c0-1.57,1.328-2.778,2.898-2.778s2.898,1.208,2.898,2.778ZM50.824,140.791c0,.362-.242.604-.604.604s-.604-.242-.604-.604.242-.604.604-.604.604.242.604.604ZM49.013,141.516l1.087,2.174s.121.121.242,0l1.208-2.174c.362-.725,0-1.57-.604-1.932-.725-.362-1.57-.121-1.932.604-.242.362-.242.845,0,1.328Z" fill="#fff" fill-rule="evenodd"/><polygon points="135.556 154.987 105.303 154.987 105.303 136.836 120.178 136.836 135.556 136.836 135.556 154.987" fill="#4e4f4f"/><circle cx="112.001" cy="102.769" r="3.737" fill="#231f20"/><circle cx="112.001" cy="114.623" r="3.737" fill="#231f20"/><circle cx="112.001" cy="126.477" r="3.737" fill="#231f20"/><line x1="120.432" y1="154.98" x2="120.432" y2="136.883" fill="none" stroke="#d0d2d3" stroke-miterlimit="10" stroke-width=".5"/><path d="M111.443,144.952l-.775.776-.746-.776v-3.447l.746-.761.775.761v3.447ZM111.443,150.16l-.775.761-.746-.761v-3.447l.746-.776.775.776v3.447ZM115.891,140.625l-.761.776h-3.567l-.79-.776.775-.761h3.582l.761.761ZM115.891,151.041l-.761.761h-3.567l-.79-.761.775-.776h3.582l.761.776ZM116.771,144.952l-.776.776-.761-.776v-3.447l.761-.761.776.761v3.447ZM116.771,150.16l-.776.761-.761-.761v-3.447l.761-.776.776.776v3.447Z" fill="#37b24a"/><path d="M125.483,144.952l-.775.776-.746-.776v-3.447l.746-.761.775.761v3.447ZM125.483,150.16l-.775.761-.746-.761v-3.447l.746-.776.775.776v3.447ZM129.931,140.625l-.761.776h-3.567l-.79-.776.775-.761h3.582l.761.761ZM129.931,151.041l-.761.761h-3.567l-.79-.761.775-.776h3.582l.761.776ZM130.811,144.952l-.776.776-.761-.776v-3.447l.761-.761.776.761v3.447ZM130.811,150.16l-.776.761-.761-.761v-3.447l.761-.776.776.776v3.447Z" fill="#37b24a"/><rect x="98.961" y="41.981" width="45.394" height="180.649" fill="none" stroke="#fff" stroke-linecap="round" stroke-linejoin="round" stroke-width="3"/><rect x="98.961" y="41.981" width="45.394" height="180.649" fill="none" stroke="#b3b3b3" stroke-dasharray="2.403" stroke-linecap="round" stroke-linejoin="round" stroke-width="1.201"/><polygon points="100.136 75.671 85.928 82.923 85.777 87.801 74.708 83.955 84.945 69.581 84.749 75.89 100.397 67.287 100.136 75.671" fill="#fff" stroke="#fff" stroke-linecap="round" stroke-linejoin="round" stroke-width="2.403"/><polygon points="100.136 75.671 85.928 82.923 85.777 87.801 74.708 83.955 84.945 69.581 84.749 75.89 100.397 67.287 100.136 75.671" fill="#ee7623"/><circle cx="125.177" cy="120.636" r="3.734" fill="#ee7623" stroke="#231f20" stroke-miterlimit="10" stroke-width=".5"/></g><g id="b"><line x1="114.269" y1="157.002" x2="93" y2="233.213" fill="none" stroke="#fff" stroke-linecap="round" stroke-linejoin="round" stroke-width="2"/><line x1="114.269" y1="157.002" x2="93" y2="233.213" fill="none" stroke="#221f1f" stroke-linecap="round" stroke-linejoin="round" stroke-width=".75"/><line x1="128.888" y1="125.572" x2="169.01" y2="201.006" fill="none" stroke="#fff" stroke-linecap="round" stroke-linejoin="round" stroke-width="2"/><line x1="128.888" y1="125.572" x2="169.01" y2="201.006" fill="none" stroke="#221f1f" stroke-linecap="round" stroke-linejoin="round" stroke-width=".75"/><line x1="26.317" y1="34.584" x2="34.487" y2="48.533" fill="none" stroke="#221f1f" stroke-linecap="round" stroke-linejoin="round" stroke-width=".75"/><path d="M37.706,19.126c0,6.834-5.621,12.371-12.555,12.371s-12.557-5.537-12.557-12.371,5.621-12.379,12.557-12.379,12.555,5.543,12.555,12.379" fill="#211f1f" stroke="#fff" stroke-miterlimit="10" stroke-width="1.35"/><rect x="12.55" y="11.931" width="24.505" height="22.312" fill="none"/><path d="M26.587,25.463h-1.661v-10.585c-.399.381-.924.763-1.573,1.144-.649.382-1.231.668-1.749.858v-1.606c.93-.437,1.741-.966,2.437-1.587.695-.622,1.188-1.225,1.477-1.809h1.07v13.584Z" fill="#fff"/><line x1="109.79" y1="34.584" x2="125.388" y2="60.262" fill="none" stroke="#fff" stroke-linecap="round" stroke-linejoin="round" stroke-width="2"/><line x1="109.79" y1="34.584" x2="125.388" y2="60.262" fill="none" stroke="#221f1f" stroke-linecap="round" stroke-linejoin="round" stroke-width=".75"/><path d="M121.178,19.126c0,6.834-5.621,12.371-12.555,12.371s-12.557-5.537-12.557-12.371,5.621-12.379,12.557-12.379,12.555,5.543,12.555,12.379" fill="#211f1f" stroke="#fff" stroke-miterlimit="10" stroke-width="1.35"/><rect x="96.022" y="11.931" width="24.505" height="22.312" fill="none"/><path d="M112.534,23.867v1.597h-8.942c-.013-.4.052-.784.193-1.153.228-.609.593-1.209,1.094-1.8.502-.591,1.226-1.273,2.174-2.049,1.47-1.206,2.464-2.161,2.98-2.865s.775-1.371.775-1.998c0-.658-.235-1.213-.706-1.666-.471-.452-1.085-.678-1.841-.678-.8,0-1.44.24-1.92.72-.479.479-.723,1.144-.729,1.993l-1.707-.175c.117-1.273.557-2.244,1.32-2.912.763-.667,1.787-1.001,3.072-1.001,1.299,0,2.326.36,3.083,1.08.757.72,1.135,1.612,1.135,2.677,0,.541-.11,1.073-.332,1.596s-.589,1.074-1.103,1.652c-.515.579-1.368,1.372-2.562,2.381-.996.837-1.637,1.405-1.919,1.703-.283.298-.518.598-.702.899h6.636Z" fill="#fff"/><path d="M104.113,249.98c0,6.834-5.621,12.371-12.555,12.371s-12.557-5.537-12.557-12.371,5.621-12.379,12.557-12.379,12.555,5.543,12.555,12.379" fill="#211f1f" stroke="#fff" stroke-miterlimit="10" stroke-width="1.35"/><rect x="78.957" y="242.785" width="24.505" height="22.312" fill="none"/><path d="M92.062,256.318v-3.239h-5.869v-1.522l6.174-8.768h1.356v8.768h1.827v1.522h-1.827v3.239h-1.661ZM92.062,251.556v-6.101l-4.236,6.101h4.236Z" fill="#fff"/><path d="M190.259,217.303c0,6.834-5.621,12.371-12.555,12.371s-12.557-5.537-12.557-12.371,5.621-12.379,12.557-12.379,12.555,5.543,12.555,12.379" fill="#211f1f" stroke="#fff" stroke-miterlimit="10" stroke-width="1.35"/><rect x="165.103" y="210.108" width="24.505" height="22.312" fill="none"/><path d="M172.893,220.069l1.661-.222c.19.941.515,1.62.974,2.035.458.415,1.017.623,1.675.623.781,0,1.441-.271,1.979-.812s.808-1.212.808-2.012c0-.763-.249-1.392-.748-1.888-.498-.495-1.132-.742-1.9-.742-.314,0-.705.062-1.173.185l.185-1.458c.111.012.2.019.268.019.708,0,1.345-.186,1.911-.555.565-.369.849-.938.849-1.707,0-.608-.206-1.113-.618-1.514-.412-.399-.944-.6-1.597-.6-.646,0-1.185.203-1.615.609s-.707,1.015-.83,1.827l-1.661-.295c.203-1.114.664-1.977,1.384-2.589s1.615-.918,2.686-.918c.738,0,1.418.158,2.04.475.621.317,1.097.749,1.426,1.297s.493,1.129.493,1.744c0,.585-.156,1.117-.471,1.597-.313.479-.778.861-1.394,1.145.8.185,1.422.567,1.864,1.148.443.582.665,1.31.665,2.183,0,1.182-.431,2.183-1.292,3.004s-1.95,1.232-3.268,1.232c-1.188,0-2.173-.354-2.957-1.062-.785-.707-1.232-1.624-1.343-2.75Z" fill="#fff"/></g></svg>