<?xml version="1.0" encoding="utf-8"?>
<!-- Generator: Adobe Illustrator 28.3.0, SVG Export Plug-In . SVG Version: 6.00 Build 0)  -->
<svg version="1.1" id="Layer_1" xmlns="http://www.w3.org/2000/svg" xmlns:xlink="http://www.w3.org/1999/xlink" x="0px" y="0px"
	 width="234px" height="101.0463px" viewBox="0 0 234 101.0463" enable-background="new 0 0 234 101.0463" xml:space="preserve">
<g>
	<g>
		<g>
			<g>
				<g>
					
						<line fill="none" stroke="#00A6CE" stroke-width="1.6661" stroke-linecap="round" stroke-linejoin="round" x1="18.2454" y1="50.8463" x2="3.3358" y2="37.0145"/>
					<g>
						<polygon fill="#00A6CE" points="22.5575,54.8467 18.7846,46.7268 17.923,50.5473 14.1784,51.6919 						"/>
					</g>
				</g>
			</g>
			<g>
				<g>
					<g>
						<g>
							<polygon fill="#6BCDB2" stroke="#FFFFFF" stroke-width="0.7046" stroke-miterlimit="10" points="24.0795,44.9746 
								16.0899,36.985 16.0899,25.6881 24.0795,17.6969 35.3773,17.6969 43.3685,25.6881 43.3685,36.985 35.3773,44.9746 							"/>
						</g>
						<polygon fill="#FFFFFF" points="37.6253,37.0692 29.7296,26.4947 21.8331,37.0692 						"/>
					</g>
					<rect x="26.2684" y="36.5769" fill="#FFFFFF" width="6.8421" height="4.1463"/>
				</g>
				
					<line fill="none" stroke="#FFFFFF" stroke-width="0.8293" stroke-linecap="round" stroke-linejoin="round" stroke-miterlimit="10" x1="29.7199" y1="20.8697" x2="29.7199" y2="25.1099"/>
				
					<line fill="none" stroke="#FFFFFF" stroke-width="0.8293" stroke-linecap="round" stroke-linejoin="round" stroke-miterlimit="10" x1="24.0714" y1="23.1502" x2="27.0693" y2="26.1481"/>
				
					<line fill="none" stroke="#FFFFFF" stroke-width="0.8293" stroke-linecap="round" stroke-linejoin="round" stroke-miterlimit="10" x1="35.3683" y1="23.1502" x2="32.3704" y2="26.1481"/>
				
					<line fill="none" stroke="#FFFFFF" stroke-width="0.8293" stroke-linecap="round" stroke-linejoin="round" stroke-miterlimit="10" x1="32.7397" y1="21.9629" x2="31.7517" y2="24.0831"/>
				
					<line fill="none" stroke="#FFFFFF" stroke-width="0.8293" stroke-linecap="round" stroke-linejoin="round" stroke-miterlimit="10" x1="26.8005" y1="21.9629" x2="27.7893" y2="24.0831"/>
			</g>
			<g>
				<defs>
					<rect id="SVGID_1_" y="4.9805" width="113.7614" height="93.2726"/>
				</defs>
				<clipPath id="SVGID_00000133500887661587656050000005841164073223631782_">
					<use xlink:href="#SVGID_1_"  overflow="visible"/>
				</clipPath>
				<g clip-path="url(#SVGID_00000133500887661587656050000005841164073223631782_)">
					<g>
						<g>
							<g>
								<polyline fill="none" stroke="#231F20" stroke-width="0.3367" stroke-miterlimit="10" points="154.8351,63.5519 
									143.4349,60.4003 143.4349,49.2854 154.8351,52.6855 								"/>
								
									<line fill="none" stroke="#231F20" stroke-width="0.3367" stroke-miterlimit="10" x1="146.5231" y1="48.0504" x2="143.4349" y2="49.2854"/>
								
									<path fill="#E6E7E8" stroke="#231F20" stroke-width="0.4698" stroke-linecap="round" stroke-linejoin="round" stroke-miterlimit="10" d="
									M155.0719,63.7379l-10.8913-3.0343V47.3767l10.6545,3.0687 M64.3378,44.3283l90.4972,25.5768 M154.8351,41.9021
									L63.9024,16.2065 M141.6934,60.1518l-74.9082-20.987V26.1396l74.5753,21.2371L141.6934,60.1518z"/>
								<polygon fill="none" stroke="#231F20" stroke-width="0.3367" stroke-miterlimit="10" points="140.4483,48.0504 
									67.4487,27.3011 67.4487,38.5833 122.852,53.9658 140.9461,58.9903 								"/>
								
									<line fill="none" stroke="#231F20" stroke-width="0.3367" stroke-miterlimit="10" x1="122.4479" y1="43.0558" x2="122.4885" y2="53.8658"/>
								
									<line fill="none" stroke="#231F20" stroke-width="0.3367" stroke-miterlimit="10" x1="104.1975" y1="48.7883" x2="104.1975" y2="37.9204"/>
								
									<line fill="none" stroke="#231F20" stroke-width="0.3367" stroke-miterlimit="10" x1="85.7985" y1="32.5178" x2="85.8094" y2="43.6811"/>
								
									<line fill="none" stroke="#231F20" stroke-width="0.3367" stroke-miterlimit="10" x1="67.4487" y1="38.3238" x2="82.8361" y2="31.6751"/>
								
									<line fill="none" stroke="#231F20" stroke-width="0.3367" stroke-miterlimit="10" x1="71.7602" y1="36.4603" x2="71.6727" y2="28.5032"/>
								
									<line fill="none" stroke="#231F20" stroke-width="0.3367" stroke-miterlimit="10" x1="71.7602" y1="36.4603" x2="85.7985" y2="40.3451"/>
								
									<line fill="none" stroke="#231F20" stroke-width="0.3367" stroke-miterlimit="10" x1="103.9864" y1="48.46" x2="119.0173" y2="41.9599"/>
								
									<line fill="none" stroke="#231F20" stroke-width="0.3367" stroke-miterlimit="10" x1="122.4885" y1="53.8658" x2="137.0864" y2="47.0953"/>
								
									<line fill="none" stroke="#231F20" stroke-width="0.3367" stroke-miterlimit="10" x1="108.3394" y1="38.9241" x2="108.3831" y2="46.5591"/>
								
									<line fill="none" stroke="#231F20" stroke-width="0.3367" stroke-miterlimit="10" x1="108.3831" y1="46.5591" x2="122.4479" y2="50.4798"/>
								
									<line fill="none" stroke="#231F20" stroke-width="0.3367" stroke-miterlimit="10" x1="126.4897" y1="44.0844" x2="126.5015" y2="52.004"/>
								
									<line fill="none" stroke="#231F20" stroke-width="0.3367" stroke-miterlimit="10" x1="126.5015" y1="52.004" x2="140.8031" y2="55.8371"/>
								
									<line fill="none" stroke="#231F20" stroke-width="0.3367" stroke-miterlimit="10" x1="143.4349" y1="60.4003" x2="154.8351" y2="55.2775"/>
								<path fill="#F2F2F2" stroke="#231F20" stroke-width="0.3367" stroke-miterlimit="10" d="M149.2956,43.2324
									c0.1563,0.6253-0.1423,1.2397-0.6659,1.371c-0.5245,0.1329-1.0787-0.2673-1.2358-0.8927
									c-0.1571-0.6238,0.1415-1.2381,0.6659-1.3694C148.5843,42.2085,149.1377,42.6087,149.2956,43.2324z"/>
								<path fill="#F2F2F2" stroke="#231F20" stroke-width="0.3367" stroke-miterlimit="10" d="M132.3763,38.4488
									c0.1563,0.6238-0.1407,1.2381-0.6659,1.3695c-0.5237,0.1329-1.0779-0.2673-1.235-0.8927
									c-0.1571-0.6238,0.1415-1.2381,0.6652-1.3694C131.6649,37.4233,132.2191,37.8235,132.3763,38.4488z"/>
								<path fill="#F2F2F2" stroke="#231F20" stroke-width="0.3367" stroke-miterlimit="10" d="M156.0224,45.1631
									c0.1571,0.6253-0.1399,1.2397-0.6652,1.371c-0.5244,0.1313-1.0779-0.2673-1.2342-0.8911
									c-0.1571-0.6253,0.1407-1.2397,0.6644-1.371C155.3119,44.1391,155.8661,44.5393,156.0224,45.1631z"/>
							</g>
							<g>
								<polygon fill="#A7A9AC" stroke="#231F20" stroke-width="0.3367" stroke-miterlimit="10" points="87.1591,32.9406 
									55.918,46.3824 50.3606,44.7222 46.9596,46.3824 46.9596,46.7952 43.4751,48.3725 42.4801,48.0395 37.0876,50.6955 
									37.0876,63.9677 54.7564,69.2766 104.3631,48.2067 104.1652,37.7324 								"/>
								
									<line fill="#A7A9AC" stroke="#231F20" stroke-width="0.3367" stroke-miterlimit="10" x1="55.918" y1="46.3824" x2="68.3617" y2="49.8654"/>
								
									<line fill="#A7A9AC" stroke="#231F20" stroke-width="0.3367" stroke-miterlimit="10" x1="68.5688" y1="53.8877" x2="104.3631" y2="37.9204"/>
								
									<line fill="#A7A9AC" stroke="#231F20" stroke-width="0.3367" stroke-miterlimit="10" x1="37.0876" y1="50.6955" x2="54.0726" y2="55.5886"/>
								<polyline fill="#A7A9AC" stroke="#231F20" stroke-width="0.3367" stroke-miterlimit="10" points="54.5704,69.0687 
									54.3211,64.0505 52.0614,64.9823 52.0614,62.0183 54.3211,61.3961 54.0726,55.6917 59.9208,53.2858 59.9208,53.8877 
									64.4316,51.8758 64.4316,51.1864 68.3617,49.8654 68.5688,53.8877 								"/>
								<path fill="none" stroke="#231F20" stroke-width="0.3367" stroke-miterlimit="10" d="M46.9628,46.4343
									c0,0,2.8577,0.9314,3.0655,1.0862c0.5183,0.3877,0.4917,0.9849-1.0888,1.5664c-0.6738,0.2486-2.4372,0.2705-3.5635-0.0312
									c-0.9278-0.247-1.9314-0.6426-1.9314-0.6426"/>
								<path fill="#A7A9AC" stroke="#231F20" stroke-width="0.3367" stroke-miterlimit="10" d="M59.9208,53.2858
									c0,0-0.9356-0.311-1.3515-0.4565c-0.1578-0.0547-1.6195-0.4596-1.8219-0.8332c-0.2705-0.4986-0.0259-0.8551,0.6847-1.1584
									c0.4737-0.2032,1.439-0.4221,2.4966-0.4205c0.8629,0,1.242,0.0844,2.2682,0.2627c0.8114,0.1407,2.2347,0.5065,2.2347,0.5065
									"/>
							</g>
							<g>
								<path fill="#595A5C" stroke="#231F20" stroke-width="0.3367" stroke-miterlimit="10" d="M24.9221,76.4755l24.3129-9.3766
									c0,0-0.1071,0.0641,0,0c2.1581-1.3038,2.7256-5.0603,1.2272-8.7324c-1.5711-3.8488-4.8274-6.1765-7.3372-5.2761
									L20.0838,63.8176"/>
								<path fill="#595A5C" stroke="#231F20" stroke-width="0.3367" stroke-miterlimit="10" d="M27.3195,68.1745
									c1.3507,3.2641,0.7941,6.6408-1.2092,7.8477c-0.1337,0.0812-0.2744,0.1516-0.4197,0.2111
									c-2.3426,0.9707-5.4074-1.0677-6.8487-4.5491c-1.2608-3.0469-0.8606-6.1891,0.8262-7.5772
									c0.2408-0.1986,0.5104-0.3627,0.8035-0.4846C22.8125,62.6546,25.8788,64.6931,27.3195,68.1745z"/>
								<path fill="#595A5C" stroke="#231F20" stroke-width="0.3367" stroke-miterlimit="10" d="M30.1537,59.1341
									c0.1086-0.0626,0.2211-0.1173,0.3384-0.1658c2.341-0.9708,5.4652,1.2053,6.9761,4.8587
									c1.4703,3.5533,0.8731,7.1957-1.3171,8.2807c-0.0609,0.0297-0.1227,0.0594-0.186,0.0844"/>
								<path fill="#595A5C" stroke="#231F20" stroke-width="0.3367" stroke-miterlimit="10" d="M34.9545,56.9299
									c0.1024-0.061,0.2095-0.1157,0.319-0.1642c2.4442-1.0959,5.756,0.9849,7.3958,4.6461
									c1.5383,3.4329,1.0599,7.0363-1.0208,8.3745c-0.1243,0.0812-0.2556,0.1532-0.3916,0.2172"/>
								<path fill="#595A5C" stroke="#231F20" stroke-width="0.3367" stroke-miterlimit="10" d="M-61.6164,110.9102
									c0,0,86.9153-35.6181,86.9248-35.6243c1.847-1.0959,2.4012-4.0958,1.2123-6.9691c-1.2686-3.064-4.041-4.8274-6.1929-3.9379
									c-0.0195,0.0078-86.537,35.4321-86.537,35.4321"/>
							</g>
							<path fill="#28A8E0" stroke="#231F20" stroke-width="0.5827" stroke-miterlimit="10" d="M28.7194,54.0534
								c0.322-0.2063,5.9217-2.6951,6.046-2.6528c0.1243,0.0406,17.4203,4.9759,17.5446,5.1838
								c0.1235,0.2079,0.2908,9.4563,0.2486,9.5813c-0.0407,0.1235-4.5624,2.198-4.5624,2.1573c0-0.0422-1.908-0.4158-2.3645-0.7473
								c-0.4557-0.3314,0.3322-7.7976,0.0836-7.7147c-0.2493,0.0828-8.8762,0.3736-9.2499,0.3736s-2.0323,0.7457-2.1573,0.9113
								c-0.1235,0.1673,0.7058,1.1631,0.7886,2.1574c0.0829,0.9958,0.4151,4.0222-2.0729,6.3875
								c-2.4895,2.3636-3.7128,2.3856-6.1398,1.4523c-2.4262-0.9333-3.8566-1.7837-5.3503-2.2199
								c-1.4929-0.4345-2.0948-0.5393-3.6088-0.6831c-1.514-0.1454-2.6544-0.5393-3.2555-0.7473
								c-0.6019-0.2063-2.2613-0.5596-2.6967-0.705c-0.4361-0.147-1.7829-0.9959-1.7422-1.5773
								c0.0422-0.58,0.6018-1.285,1.1201-1.285c0.5198,0,1.4726,0.3111,2.0541,0.6644c0.58,0.3517,0.8911,0.6628,2.1151-0.3126
								c1.224-0.9739,4.5405-4.4382,6.9675-5.226c2.4262-0.7879,4.2514-0.58,4.9775-0.4753
								c0.7261,0.1017,1.8259-0.6113,1.9392-0.7582c0.2064-0.2689-0.1586-1.271-0.4698-1.8946
								C28.6232,55.3025,28.4427,54.2317,28.7194,54.0534z M18.1946,66.1031c1.4429,0.1001,2.1573-0.4346,7.2582,2.1151
								c5.1017,2.5513,6.1547-0.1235,6.8862-1.4727c0.5331-0.9848,0.7942-2.3933,0.5839-3.4298
								c-0.2477-1.2116-2.4184-2.9546-4.6164-3.0172c-0.8019-0.0219-1.3139,0.283-3.2883,0.283
								c-1.6806,0-3.9356,1.8306-4.5586,2.348c-0.6221,0.519-1.5859,1.5398-2.5653,2.1385
								C17.8945,65.0682,16.5102,65.9875,18.1946,66.1031z"/>
						</g>
					</g>
				</g>
			</g>
		</g>
	</g>
	<g>
		<g>
			<g>
				<defs>
					
						<rect id="SVGID_00000073680275330453735130000011423945798378154166_" x="115.4428" y="4.9805" width="117.7201" height="93.2726"/>
				</defs>
				<clipPath id="SVGID_00000039107927470943873900000001055181889439888060_">
					<use xlink:href="#SVGID_00000073680275330453735130000011423945798378154166_"  overflow="visible"/>
				</clipPath>
				<g clip-path="url(#SVGID_00000039107927470943873900000001055181889439888060_)">
					<g>
						<g>
							<g>
								<path fill="#E6E7E8" stroke="#231F20" stroke-width="0.3367" stroke-miterlimit="10" d="M274.5678,63.7379l-10.8913-3.0343
									V47.3767l10.6545,3.0687 M183.8337,44.3283L274.331,69.905 M274.331,41.9021l-90.9327-25.6956 M261.1893,60.1518
									l-74.9082-20.987V26.1396l74.5753,21.2371L261.1893,60.1518z"/>
								<polygon fill="none" stroke="#231F20" stroke-width="0.3367" stroke-miterlimit="10" points="259.9442,48.0504 
									186.9446,27.3011 186.9446,38.5833 242.3479,53.9658 260.442,58.9903 								"/>
								
									<line fill="none" stroke="#231F20" stroke-width="0.3367" stroke-miterlimit="10" x1="223.6934" y1="48.7883" x2="223.6934" y2="37.9204"/>
								
									<line fill="none" stroke="#231F20" stroke-width="0.3367" stroke-miterlimit="10" x1="205.2944" y1="32.5178" x2="205.3053" y2="43.6811"/>
								
									<line fill="none" stroke="#231F20" stroke-width="0.3367" stroke-miterlimit="10" x1="186.9446" y1="38.3238" x2="202.332" y2="31.6751"/>
								
									<line fill="none" stroke="#231F20" stroke-width="0.3367" stroke-miterlimit="10" x1="191.2561" y1="36.4603" x2="191.1686" y2="28.5032"/>
								
									<line fill="none" stroke="#231F20" stroke-width="0.3367" stroke-miterlimit="10" x1="191.2561" y1="36.4603" x2="205.2944" y2="40.3451"/>
								
									<line fill="none" stroke="#231F20" stroke-width="0.3367" stroke-miterlimit="10" x1="223.4823" y1="48.46" x2="238.5132" y2="41.9599"/>
								
									<line fill="none" stroke="#231F20" stroke-width="0.3367" stroke-miterlimit="10" x1="227.8353" y1="38.9241" x2="227.879" y2="46.5591"/>
								
									<line fill="none" stroke="#231F20" stroke-width="0.3367" stroke-miterlimit="10" x1="227.879" y1="46.5591" x2="241.9438" y2="50.4798"/>
							</g>
						</g>
					</g>
				</g>
			</g>
			<g>
				<polygon fill="#CDDE00" stroke="#FFFFFF" stroke-width="0.7046" stroke-miterlimit="10" points="208.7853,61.1243 
					200.7773,69.1307 200.7773,80.4538 208.7853,88.4618 220.1076,88.4618 228.1165,80.4538 228.1165,69.1307 220.1076,61.1243 				
					"/>
				<polygon fill="#FFFFFF" points="222.3605,69.0469 214.4473,79.6454 206.5332,69.0469 				"/>
				<rect x="210.9778" y="65.3848" fill="#FFFFFF" width="6.8578" height="4.1561"/>
				
					<line fill="none" stroke="#FFFFFF" stroke-width="0.763" stroke-linecap="round" stroke-linejoin="round" stroke-miterlimit="10" x1="214.438" y1="85.2825" x2="214.438" y2="81.0325"/>
				
					<line fill="none" stroke="#FFFFFF" stroke-width="0.763" stroke-linecap="round" stroke-linejoin="round" stroke-miterlimit="10" x1="208.7764" y1="82.9963" x2="211.7816" y2="79.992"/>
				
					<line fill="none" stroke="#FFFFFF" stroke-width="0.763" stroke-linecap="round" stroke-linejoin="round" stroke-miterlimit="10" x1="220.0987" y1="82.9963" x2="217.0936" y2="79.992"/>
				
					<line fill="none" stroke="#FFFFFF" stroke-width="0.763" stroke-linecap="round" stroke-linejoin="round" stroke-miterlimit="10" x1="217.4643" y1="84.186" x2="216.4738" y2="82.0611"/>
				
					<line fill="none" stroke="#FFFFFF" stroke-width="0.763" stroke-linecap="round" stroke-linejoin="round" stroke-miterlimit="10" x1="211.5114" y1="84.186" x2="212.502" y2="82.0611"/>
			</g>
			<g>
				<defs>
					
						<rect id="SVGID_00000084520788577903353250000006070034714527202972_" x="136.4689" y="5.5145" transform="matrix(-1 -5.009472e-11 5.009472e-11 -1 370.4688 106.5608)" width="97.5311" height="95.5318"/>
				</defs>
				<clipPath id="SVGID_00000029756838745214652590000017952781889577028541_">
					<use xlink:href="#SVGID_00000084520788577903353250000006070034714527202972_"  overflow="visible"/>
				</clipPath>
				<g clip-path="url(#SVGID_00000029756838745214652590000017952781889577028541_)">
					<path fill="#E5E6E6" d="M199.0715,36.943c0.0035,0.6009,0.207,8.3809,0.1418,8.8695c-0.0659,0.4878,0.8535,0.8708,1.247,0.9244
						c0.3949,0.0543,15.0315,3.8242,15.7524,3.9342c0.7217,0.1093,1.9183,0.5971,1.9835-0.4127
						c0.0851-1.3109-0.1914-8.1043-0.2545-8.6711c-0.0475-0.4379,0.2751-0.7651-1.2355-1.148
						c-1.5093-0.3823-15.3157-4.189-16.6712-4.4438C198.6781,35.7414,199.0701,36.6513,199.0715,36.943"/>
					<path fill="none" stroke="#221F1F" stroke-width="0.3212" stroke-miterlimit="10" d="M199.0715,36.943
						c0.0035,0.6009,0.207,8.3809,0.1418,8.8695c-0.0659,0.4878,0.8535,0.8708,1.247,0.9244
						c0.3949,0.0543,15.0315,3.8242,15.7524,3.9342c0.7217,0.1093,1.9183,0.5971,1.9835-0.4127
						c0.0851-1.3109-0.1914-8.1043-0.2545-8.6711c-0.0475-0.4379,0.2751-0.7651-1.2355-1.148
						c-1.5093-0.3823-15.3157-4.189-16.6712-4.4438C198.6781,35.7414,199.0701,36.6513,199.0715,36.943z"/>
					
						<line fill="none" stroke="#221F1F" stroke-width="0.3212" stroke-miterlimit="10" x1="199.3782" y1="44.9026" x2="213.3279" y2="39.5301"/>
					
						<line fill="none" stroke="#221F1F" stroke-width="0.3212" stroke-miterlimit="10" x1="206.6666" y1="37.6294" x2="206.6438" y2="42.1051"/>
					
						<line fill="none" stroke="#221F1F" stroke-width="0.3212" stroke-miterlimit="10" x1="206.6437" y1="42.1047" x2="217.9073" y2="45.1588"/>
					<polygon fill="#A7A8AB" points="206.6825,32.916 168.8863,49.0459 169.2273,60.6979 187.1092,68.5062 190.736,66.7964 
						190.7083,65.2669 196.0797,62.7862 196.1548,64.2398 200.9845,61.9617 200.8328,58.9143 223.6207,48.2387 223.7587,37.6131 
											"/>
					<polygon fill="none" stroke="#221F1F" stroke-width="0.3212" stroke-miterlimit="10" points="206.5445,32.916 
						168.8863,49.0459 169.2273,60.6979 187.1092,68.5062 190.736,66.7964 190.7083,65.2669 196.0797,62.7862 196.1548,64.2398 
						200.9845,61.9617 200.8328,58.9143 223.7587,48.2387 223.7587,37.7666 					"/>
					<line fill="#A7A8AB" x1="186.3654" y1="55.3951" x2="217.912" y2="41.0815"/>
					
						<line fill="none" stroke="#221F1F" stroke-width="0.3212" stroke-miterlimit="10" x1="186.3654" y1="55.3951" x2="223.6207" y2="37.8201"/>
					<line fill="#A7A8AB" x1="168.8866" y1="49.0457" x2="186.5034" y2="55.2515"/>
					
						<line fill="none" stroke="#221F1F" stroke-width="0.3212" stroke-miterlimit="10" x1="168.8866" y1="49.0457" x2="186.5034" y2="55.2515"/>
					<polyline fill="#A7A8AB" points="187.1096,68.5059 186.7551,63.4071 184.303,64.2164 184.2144,61.208 186.6693,60.471 
						186.3652,55.3954 					"/>
					<polyline fill="none" stroke="#221F1F" stroke-width="0.3212" stroke-miterlimit="10" points="187.1096,68.5059 
						186.7551,63.4071 184.303,64.2164 184.2144,61.208 186.6693,60.471 186.3652,55.3954 					"/>
					<path fill="#59595C" d="M156.7973,75.6484l24.0649-9.7851c0,0-0.1049,0.0659,0,0c2.1317-1.3486,2.6556-5.1648,1.1257-8.876
						c-1.6035-3.8901-4.8644-6.2151-7.3491-5.2748l-22.7868,11.1417"/>
					<path fill="none" stroke="#221F1F" stroke-width="0.3212" stroke-miterlimit="10" d="M156.7973,75.6484l24.0649-9.7851
						c0,0-0.1049,0.0659,0,0c2.1317-1.3486,2.6556-5.1648,1.1257-8.876c-1.6035-3.8901-4.8644-6.2151-7.3491-5.2748
						l-22.7868,11.1417"/>
					<path fill="#59595C" d="M159.0908,67.1974c1.3781,3.2994,0.8606,6.7312-1.118,7.9778c-0.1312,0.0832-0.2709,0.157-0.414,0.22
						c-2.3181,1.0091-5.3891-1.0257-6.8579-4.5444c-1.2859-3.0772-0.9215-6.2702,0.7401-7.6983
						c0.2375-0.2042,0.5033-0.3735,0.7918-0.4995C154.5531,61.644,157.6205,63.6788,159.0908,67.1974"/>
					<path fill="none" stroke="#221F1F" stroke-width="0.3212" stroke-miterlimit="10" d="M159.0908,67.1974
						c1.3781,3.2994,0.8606,6.7312-1.118,7.9778c-0.1312,0.0832-0.2709,0.157-0.414,0.22
						c-2.3181,1.0091-5.3891-1.0257-6.8579-4.5444c-1.2859-3.0772-0.9215-6.2702,0.7401-7.6983
						c0.2375-0.2042,0.5033-0.3735,0.7918-0.4995C154.5531,61.644,157.6205,63.6788,159.0908,67.1974z"/>
					<path fill="#59595C" d="M161.8108,57.9901c0.1049-0.0651,0.2183-0.123,0.3338-0.1729
						c2.3174-1.0091,5.4436,1.1647,6.9848,4.8542c1.5007,3.5903,0.9471,7.293-1.2186,8.42
						c-0.0582,0.0325-0.1205,0.0608-0.1823,0.089"/>
					<path fill="none" stroke="#221F1F" stroke-width="0.3212" stroke-miterlimit="10" d="M161.8108,57.9901
						c0.1049-0.0651,0.2183-0.123,0.3338-0.1729c2.3174-1.0091,5.4436,1.1647,6.9848,4.8542c1.5007,3.5903,0.9471,7.293-1.2186,8.42
						c-0.0582,0.0325-0.1205,0.0608-0.1823,0.089"/>
					<path fill="#59595C" d="M166.5571,55.6998c0.1035-0.0629,0.2077-0.1187,0.3168-0.1708
						c2.4174-1.1393,5.7322,0.9359,7.4016,4.6341c1.5667,3.468,1.1286,7.1308-0.9237,8.5119
						c-0.1234,0.0832-0.2531,0.16-0.3871,0.2244"/>
					<path fill="none" stroke="#221F1F" stroke-width="0.3212" stroke-miterlimit="10" d="M166.5571,55.6998
						c0.1035-0.0629,0.2077-0.1187,0.3168-0.1708c2.4174-1.1393,5.7322,0.9359,7.4016,4.6341
						c1.5667,3.468,1.1286,7.1308-0.9237,8.5119c-0.1234,0.0832-0.2531,0.16-0.3871,0.2244"/>
					<path fill="#59595C" d="M114.012,92.6061c0,0,43.1456-18.1624,43.1577-18.1689c1.8219-1.1336,2.3415-4.1839,1.1279-7.0881
						c-1.2952-3.096-4.0699-4.8565-6.1972-3.927c-0.0191,0.0065-42.7734,17.9663-42.7734,17.9663"/>
					<path fill="none" stroke="#221F1F" stroke-width="0.3212" stroke-miterlimit="10" d="M114.012,92.6061
						c0,0,43.1456-18.1624,43.1577-18.1689c1.8219-1.1336,2.3415-4.1839,1.1279-7.0881c-1.2952-3.096-4.0699-4.8565-6.1972-3.927
						c-0.0191,0.0065-42.7734,17.9663-42.7734,17.9663"/>
					<path fill="#59595C" d="M115.524,85.3173c1.2115,2.9049,0.6932,5.9538-1.1315,7.0873
						c-0.1198,0.0761-0.2481,0.1426-0.3807,0.2013c-2.1289,0.9273-4.9041-0.8325-6.1986-3.9291
						c-1.1314-2.7109-0.7557-5.5455,0.7819-6.834c0.219-0.1853,0.4622-0.3402,0.7316-0.4546
						C111.4548,80.4609,114.2295,82.2206,115.524,85.3173"/>
					<path fill="none" stroke="#221F1F" stroke-width="0.3212" stroke-miterlimit="10" d="M115.524,85.3173
						c1.2115,2.9049,0.6932,5.9538-1.1315,7.0873c-0.1198,0.0761-0.2481,0.1426-0.3807,0.2013
						c-2.1289,0.9273-4.9041-0.8325-6.1986-3.9291c-1.1314-2.7109-0.7557-5.5455,0.7819-6.834
						c0.219-0.1853,0.4622-0.3402,0.7316-0.4546C111.4548,80.4609,114.2295,82.2206,115.524,85.3173z"/>
					<path fill="#221F1F" d="M167.9112,71.091c2.7498-1.1552,6.6749-2.7145,7.7596-3.4441
						c1.0846-0.7282,1.7737-1.9356,1.7949-2.7884c0.0837-3.2248-0.8202-5.1235-1.1229-5.7865
						c-1.7297-3.7909-4.6773-4.7905-5.8697-4.6987c-0.4671,0.0355-0.6734-0.1122-2.4428,0.5705
						c-0.9599,0.3691-2.5109,1.2103-3.6934,1.6576c0,0-0.1035-3.2812-0.0106-3.3442c0.2821-0.1896,5.1274-2.4459,5.2387-2.409
						c0.1085,0.0362,14.2964,4.3316,14.4069,4.5155c0.1128,0.1882,0.4055,11.34,0.3693,11.4544
						c-0.0354,0.1115-4.5546,2.0428-4.5546,2.0058c-0.0007-0.0376-3.4594,0.3626-5.1466,0.7304c0,0-2.4953,0.5559-4.398,1.3312
						c0,0-1.5737,1.0185-1.9268,1.4058c-2.2692,2.4995-0.7444,4.0246-4.6334,5.9936c-3.3942,1.7192-9.5517,1.5983-11.6606,0.5125
						c-2.8576-1.4665-1.6142-1.1459,0.8577-2.3953c0,0-0.0291,1.1155,1.807,1.2161c1.6906,0.0876,4.1746-0.0471,4.5447-0.2099
						c0.3106-0.1368,2.1969-0.2273,3.3595-1.0062c3.8692-2.5885,3.5686-4.5654,3.5686-4.5654
						C166.7762,71.5978,167.9112,71.091,167.9112,71.091"/>
					<path fill="#25A9E0" stroke="#231F20" stroke-width="0.5826" stroke-miterlimit="10" d="M167.9112,71.091
						c2.7498-1.1552,6.6749-2.7145,7.7596-3.4441c1.0846-0.7282,1.7737-1.9356,1.7949-2.7884
						c0.0837-3.2248-0.8202-5.1235-1.1229-5.7865c-1.7297-3.7909-4.6773-4.7905-5.8697-4.6987
						c-0.4671,0.0355-0.6734-0.1122-2.4428,0.5705c-0.9599,0.3691-2.5109,1.2103-3.6934,1.6576c0,0-0.1035-3.2812-0.0106-3.3442
						c0.2821-0.1896,5.1274-2.4459,5.2387-2.409c0.1085,0.0362,14.2964,4.3316,14.4069,4.5155
						c0.1128,0.1882,0.4055,11.34,0.3693,11.4544c-0.0354,0.1115-4.5546,2.0428-4.5546,2.0058
						c-0.0007-0.0376-3.4594,0.3626-5.1466,0.7304c0,0-2.4953,0.5559-4.398,1.3312c0,0-1.5737,1.0185-1.9268,1.4058
						c-2.2692,2.4995-0.7444,4.0246-4.6334,5.9936c-3.3942,1.7192-9.5517,1.5983-11.6606,0.5125
						c-2.8576-1.4665-1.6142-1.1459,0.8577-2.3953c0,0-0.0291,1.1155,1.807,1.2161c1.6906,0.0876,4.1746-0.0471,4.5447-0.2099
						c0.3106-0.1368,2.1969-0.2273,3.3595-1.0062c3.8692-2.5885,3.5686-4.5654,3.5686-4.5654
						C166.7762,71.5978,167.9112,71.091,167.9112,71.091z"/>
				</g>
			</g>
		</g>
		<g>
			<g>
				
					<line fill="none" stroke="#00A6CE" stroke-width="1.6661" stroke-linecap="round" stroke-linejoin="round" x1="179.6121" y1="76.2704" x2="194.5218" y2="90.1023"/>
				<g>
					<polygon fill="#00A6CE" points="175.3,72.27 179.0729,80.39 179.9345,76.5695 183.6792,75.4248 					"/>
				</g>
			</g>
		</g>
	</g>
	
		<line fill="#FFFFFF" stroke="#231F20" stroke-width="0.9395" stroke-miterlimit="10" x1="126.1622" y1="99.5011" x2="126.1622" y2="0"/>
</g>
</svg>
