<?xml version="1.0" encoding="UTF-8"?><svg id="a" xmlns="http://www.w3.org/2000/svg" width="5.3in" height="3in" xmlns:xlink="http://www.w3.org/1999/xlink" viewBox="0 0 381.6 216"><defs><clipPath id="b"><rect x="9.032" y="-11.737" width="369.609" height="236.666" fill="none"/></clipPath><clipPath id="c"><circle cx="266.741" cy="138.251" r="29.5" fill="none"/></clipPath><clipPath id="d"><circle cx="52.973" cy="143.632" r="42.5" fill="none"/></clipPath></defs><g clip-path="url(#b)"><line x1="-16.379" y1="3.368" x2="475.912" y2="8.862" fill="none" stroke="#241f20" stroke-linecap="round" stroke-linejoin="round" stroke-width=".5"/><line x1="255.303" y1="175.003" x2="476.335" y2="166.48" fill="none" stroke="#241f20" stroke-linecap="round" stroke-linejoin="round" stroke-width=".5"/><line x1="-16.802" y1="185.495" x2="48.406" y2="182.981" fill="none" stroke="#241f20" stroke-linecap="round" stroke-linejoin="round" stroke-width=".5"/><line x1="255.117" y1="170.809" x2="475.067" y2="162.676" fill="none" stroke="#241f20" stroke-linecap="round" stroke-linejoin="round" stroke-width=".5"/><line x1="-16.379" y1="180.847" x2="48.034" y2="178.465" fill="none" stroke="#241f20" stroke-linecap="round" stroke-linejoin="round" stroke-width=".5"/><line x1="255.213" y1="167.492" x2="475.912" y2="159.718" fill="none" stroke="#241f20" stroke-linecap="round" stroke-linejoin="round" stroke-width=".5"/><line x1="-15.957" y1="177.044" x2="47.748" y2="174.8" fill="none" stroke="#241f20" stroke-linecap="round" stroke-linejoin="round" stroke-width=".5"/><line x1="-16.304" y1="5.858" x2="475.869" y2="11.144" fill="none" stroke="#241f20" stroke-linecap="round" stroke-linejoin="round" stroke-width=".5"/><line x1="336.768" y1="13.017" x2="476.072" y2="14.396" fill="none" stroke="#241f20" stroke-linecap="round" stroke-linejoin="round" stroke-width=".5"/><polyline points="249.189 91.868 249.622 12.153 161.038 11.276 161.038 7.934" fill="none" stroke="#241f20" stroke-linecap="round" stroke-linejoin="round" stroke-width=".5"/><line x1="-16.508" y1="9.517" x2="63.233" y2="10.307" fill="none" stroke="#241f20" stroke-linecap="round" stroke-linejoin="round" stroke-width=".5"/><path d="M158.228,11.985s-1.436-2.284-4.828-2.284l-81.618-.931s-3.725.732-3.592,3.991l.381,14.388h2.167v3.222h-1.389v5.333h2.667s1.667-3.944,4.055-4.333l17.833,10.222s.722.333.278,1.722c0,0-3,7.389.5,15.278,0,0,.556,1.444-.556,2.278l-16,9.5s-.944.333-2.056-.833" fill="none" stroke="#241f20" stroke-linecap="round" stroke-linejoin="round" stroke-width=".5"/><path d="M79.872,26.883l14.568-14.379,15.798.095s1.419,0,1.419,1.135l.095,4.635-1.135.946s-14.852,1.041-23.65,14.285l-7.095-3.879s-1.703-1.135,0-2.838Z" fill="none" stroke="#241f20" stroke-linecap="round" stroke-linejoin="round" stroke-width=".5"/><path d="M116.388,12.598l16.366.378,15.041,14.474s1.514,1.419.095,2.554l-6.054,3.406s-.946.284-1.703-.473c0,0-7.19-11.257-23.555-13.622,0,0-1.161-.279-1.263-1.263l-.068-4.241s.349-1.136,1.141-1.213Z" fill="none" stroke="#241f20" stroke-linecap="round" stroke-linejoin="round" stroke-width=".5"/><line x1="68.15" y1="94.634" x2="391.808" y2="90.356" fill="none" stroke="#241f20" stroke-linecap="round" stroke-linejoin="round" stroke-width=".5"/><path d="M71.171,96.396l-24.347,13.817s-.975-.195-.975,2.145l4.261,89.736s-.313,3.028,2.819,2.924l199.959-8.458s1.984.209,1.984-2.297l-1.357-2.193" fill="none" stroke="#241f20" stroke-linecap="round" stroke-linejoin="round" stroke-width=".5"/><polygon points="58.083 106.463 247.345 102.94 254.896 107.218 48.771 111.748 58.083 106.463" fill="none" stroke="#241f20" stroke-linecap="round" stroke-linejoin="round" stroke-width=".5"/><path d="M48.37,111.775l4.024,86.844s.485,4.238,4.43,3.855l193.302-8.888,1.521-1.413s2.716.109,2.825-1.63l.423-83.327" fill="none" stroke="#241f20" stroke-linecap="round" stroke-linejoin="round" stroke-width=".5"/><polyline points="238.597 94.099 250.721 102.081 250.721 103.522 248.236 103.522" fill="none" stroke="#241f20" stroke-linecap="round" stroke-linejoin="round" stroke-width=".5"/><path d="M240.488,94.52l31.782-.486,119.467-1.827,4.477,3.059s3.059,2.089-.373,2.089l-116.925.895-6.865-3.283" fill="none" stroke="#241f20" stroke-linecap="round" stroke-linejoin="round" stroke-width=".5"/><path d="M246.159,98.624s.149-.895,1.642-.895,26.564-.149,26.564-.149l2.388,1.194s.746,16.416-.224,27.683l118.044-3.059s1.94-.224,1.94-2.462l.97-24.176" fill="none" stroke="#241f20" stroke-linecap="round" stroke-linejoin="round" stroke-width=".5"/><path d="M247.931,100.28s-.336-1.427,2.014-1.343h25.596s.252,22.827-.168,27.862l-20.141.336" fill="none" stroke="#241f20" stroke-linecap="round" stroke-linejoin="round" stroke-width=".5"/><path d="M206.254,72.682l.031,3.055s.151,2.468-2.871,2.468l-44.68.504s-2.418-.151-2.418-2.368l-1.007-61.102s.08-1.986,1.778-1.986l46,.235s2.59,0,2.59,2.355l.173,17.046" fill="none" stroke="#241f20" stroke-linecap="round" stroke-linejoin="round" stroke-width=".5"/><path d="M163.94,31.846l10.262-10.995,17.906.209s5.55.524,5.55,7.016l.314,36.963s-.105,5.759-5.864,5.759l-16.754.524-10.785-10.157-.628-29.319Z" fill="none" stroke="#241f20" stroke-linecap="round" stroke-linejoin="round" stroke-width=".5"/><rect x="180.275" y="29.437" width="8.796" height="4.398" fill="none" stroke="#241f20" stroke-linecap="round" stroke-linejoin="round" stroke-width=".5"/><rect x="171.898" y="43.469" width="8.796" height="4.398" fill="none" stroke="#241f20" stroke-linecap="round" stroke-linejoin="round" stroke-width=".5"/><rect x="180.485" y="57.709" width="8.796" height="4.398" fill="none" stroke="#241f20" stroke-linecap="round" stroke-linejoin="round" stroke-width=".5"/><path d="M90.959,33.915s7.511-9.877,18.931-10.7c0,0,1.95-.529,1.95,1.277l.181,3.839s.045,1.987-1.355,1.987c0,0-7.091.406-13.414,7.588,0,0-.632,1.219-2.349.316l-4.02-2.303s-.662-1.072.076-2.004Z" fill="none" stroke="#241f20" stroke-linecap="round" stroke-linejoin="round" stroke-width=".5"/><path d="M117.118,22.891s11.506,1.169,19.566,11.352c0,0,1.077.954-.338,2.154l-3.353,2.092s-.861.861-2.154-.308c0,0-4.369-6.276-14.029-7.968,0,0-1.2-.123-1.292-1.569l-.123-4.276s.031-1.661,1.723-1.477Z" fill="none" stroke="#241f20" stroke-linecap="round" stroke-linejoin="round" stroke-width=".5"/><path d="M97.853,64.064s5.085,6.215,14.124,7.768c0,0,1.306.34,1.433,1.433v4.666s.042,1.177-1.681.841c0,0-13.031-1.681-19.84-11.265,0,0-.588-1.051.294-1.555l4.161-2.48s.623-.453,1.51.593Z" fill="none" stroke="#241f20" stroke-linecap="round" stroke-linejoin="round" stroke-width=".5"/><path d="M117.669,71.979s9.098-1.265,14.207-8.417c0,0,.681-.584,1.8,0s3.795,2.335,3.795,2.335c0,0,1.07.73.195,1.751,0,0-5.765,9.487-18.975,11.093,0,0-1.533.097-1.63-1.362l-.146-4.427s0-.681.754-.973Z" fill="none" stroke="#241f20" stroke-linecap="round" stroke-linejoin="round" stroke-width=".5"/><path d="M155.47,35.353s-.977-2.504-3.725-3.847l-17.159,10.075s-.977.489-.366,2.32,2.748,9.16.427,14.289c0,0-.977,1.527.733,2.504s14.777,8.244,14.777,8.244" fill="none" stroke="#241f20" stroke-linecap="round" stroke-linejoin="round" stroke-width=".5"/><path d="M113.508,82.791c-.07-.7-1.401-.49-1.401-.49-15.479-2.101-22.763-12.257-23.603-13.237s-1.191-.28-1.191-.28l-5.883,3.712s-1.051.7-.35,1.961c0,0,8.895,8.265,9.455,8.755" fill="none" stroke="#241f20" stroke-linecap="round" stroke-linejoin="round" stroke-width=".5"/><path d="M117.5,83.071s.28-.84,1.471-.911,14.218-1.681,21.922-13.097c0,0,1.051-.911,2.241-.14s4.903,2.661,4.903,2.661" fill="none" stroke="#241f20" stroke-linecap="round" stroke-linejoin="round" stroke-width=".5"/><path d="M148.317,79.919v-7.494s-.14-2.802,1.611-2.802h3.712s1.751.14,1.751,1.821l.28,12.187s.7,6.584-4.833,8.054l-74.009.87s-8.347-2.019-8.347-9.693l.119-11.49s0-1.348,1.423-1.423l3.97-.075s.732.205,1.28.779c.329.345.593.822.593,1.468l.15,8.839s-.075,2.547,2.023,2.547l67.644-.674s2.793-.586,2.632-2.915Z" fill="none" stroke="#241f20" stroke-linecap="round" stroke-linejoin="round" stroke-width=".5"/><path d="M78.412,82.806s-.041-6.144-.127-7.961c-.085-1.792-.739-2.057-.739-2.057l-1.794-1.53.196-5.472,1.544-1.593.199-5.876.249-10.756s-.05-4.158-1.942-4.233" fill="none" stroke="#241f20" stroke-linecap="round" stroke-linejoin="round" stroke-width=".5"/><polyline points="70.97 69.869 70.92 62.649 72.564 60.956 72.663 56.723 75.352 56.624 75.402 61.703 73.659 63.844 73.659 69.67" fill="none" stroke="#241f20" stroke-linecap="round" stroke-linejoin="round" stroke-width=".5"/><path d="M72.663,56.723l-.199-2.141-.199-7.967s.398-3.038,1.494-3.287h2.241s-1.096.448-.946,3.386l.149,7.917.149,1.992" fill="none" stroke="#241f20" stroke-linecap="round" stroke-linejoin="round" stroke-width=".5"/><line x1="73.659" y1="63.844" x2="75.95" y2="65.786" fill="none" stroke="#241f20" stroke-linecap="round" stroke-linejoin="round" stroke-width=".5"/><line x1="59.919" y1="10.655" x2="63.766" y2="99.936" fill="none" stroke="#241f20" stroke-linecap="round" stroke-linejoin="round" stroke-width=".5"/><polyline points="67.613 97.946 63.235 7.073 68.911 9.929" fill="none" stroke="#241f20" stroke-linecap="round" stroke-linejoin="round" stroke-width=".5"/><polyline points="153.339 69.401 153.061 62.116 151.392 60.504 151.003 40.764 155.507 40.764" fill="none" stroke="#241f20" stroke-linecap="round" stroke-linejoin="round" stroke-width=".5"/><polyline points="150.447 69.623 150.336 63.284 148.501 61.06 148.433 55.665 148.278 43.433 150.948 43.433" fill="none" stroke="#241f20" stroke-linecap="round" stroke-linejoin="round" stroke-width=".5"/><line x1="151.226" y1="55.722" x2="148.433" y2="55.722" fill="none" stroke="#241f20" stroke-linecap="round" stroke-linejoin="round" stroke-width=".5"/><line x1="156.008" y1="61.227" x2="152.56" y2="61.227" fill="none" stroke="#241f20" stroke-linecap="round" stroke-linejoin="round" stroke-width=".5"/><path d="M207.732,73.514s-2.298-1.426-3.566-2.139-1.585-3.09-1.585-3.09l-.555-30.506s.475-3.169,2.377-3.645,4.992-1.109,4.992-1.109c0,0,4.833-.555,4.992,3.011l.238,33.676s0,3.249-2.615,3.883l-4.279-.079Z" fill="none" stroke="#241f20" stroke-linecap="round" stroke-linejoin="round" stroke-width=".5"/><path d="M209.396,33.024c-3.803.555-3.486,4.833-3.486,4.833v30.982s-.079,3.169,1.902,4.2" fill="none" stroke="#241f20" stroke-linecap="round" stroke-linejoin="round" stroke-width=".5"/><circle cx="211.615" cy="28.349" r="5.071" fill="none" stroke="#241f20" stroke-linecap="round" stroke-linejoin="round" stroke-width=".5"/><circle cx="182.636" cy="84.57" r="4.451" fill="none" stroke="#241f20" stroke-linecap="round" stroke-linejoin="round" stroke-width=".5"/><circle cx="353.945" cy="83.059" r="4.451" fill="none" stroke="#241f20" stroke-linecap="round" stroke-linejoin="round" stroke-width=".5"/><circle cx="211.615" cy="28.349" r="2.683" fill="none" stroke="#241f20" stroke-linecap="round" stroke-linejoin="round" stroke-width=".5"/><path d="M221.603,12.411v10.45h4.41s2.493-.192,2.493,2.013v6.136s.192,2.013-1.822,2.013h-5.081v59.343" fill="none" stroke="#241f20" stroke-linecap="round" stroke-linejoin="round" stroke-width=".5"/><line x1="214.701" y1="37.049" x2="221.315" y2="37.049" fill="none" stroke="#241f20" stroke-linecap="round" stroke-linejoin="round" stroke-width=".5"/><polyline points="214.701 68.686 219.973 68.686 221.315 68.686" fill="none" stroke="#241f20" stroke-linecap="round" stroke-linejoin="round" stroke-width=".5"/><path d="M153.723,91.705l63.397-1.112s2.47,0,2.47-2.1v-19.807" fill="none" stroke="#241f20" stroke-linecap="round" stroke-linejoin="round" stroke-width=".5"/><circle cx="79.268" cy="17.228" r="7.371" fill="none" stroke="#241f20" stroke-linecap="round" stroke-linejoin="round" stroke-width=".5"/><line x1="78.31" y1="12.893" x2="78.601" y2="20.987" fill="none" stroke="#241f20" stroke-linecap="round" stroke-linejoin="round" stroke-width=".5"/><line x1="74.583" y1="16.969" x2="82.386" y2="16.853" fill="none" stroke="#241f20" stroke-linecap="round" stroke-linejoin="round" stroke-width=".5"/><circle cx="147.804" cy="17.833" r="6.981" fill="none" stroke="#241f20" stroke-linecap="round" stroke-linejoin="round" stroke-width=".5"/><line x1="146.897" y1="13.728" x2="147.173" y2="21.394" fill="none" stroke="#241f20" stroke-linecap="round" stroke-linejoin="round" stroke-width=".5"/><line x1="143.367" y1="17.589" x2="150.757" y2="17.478" fill="none" stroke="#241f20" stroke-linecap="round" stroke-linejoin="round" stroke-width=".5"/><circle cx="263.019" cy="18.565" r="6.648" fill="none" stroke="#241f20" stroke-linecap="round" stroke-linejoin="round" stroke-width=".5"/><line x1="263.883" y1="14.656" x2="263.62" y2="21.956" fill="none" stroke="#241f20" stroke-linecap="round" stroke-linejoin="round" stroke-width=".5"/><line x1="267.244" y1="18.332" x2="260.207" y2="18.227" fill="none" stroke="#241f20" stroke-linecap="round" stroke-linejoin="round" stroke-width=".5"/><circle cx="325.002" cy="19.096" r="6.648" fill="none" stroke="#241f20" stroke-linecap="round" stroke-linejoin="round" stroke-width=".5"/><line x1="325.866" y1="15.187" x2="325.604" y2="22.487" fill="none" stroke="#241f20" stroke-linecap="round" stroke-linejoin="round" stroke-width=".5"/><line x1="329.227" y1="18.863" x2="322.19" y2="18.758" fill="none" stroke="#241f20" stroke-linecap="round" stroke-linejoin="round" stroke-width=".5"/><path d="M220.387,36.259l-.087-19.36s.174-2.965-4.186-2.703c0,0,.995-1.871-2.433-2.092" fill="none" stroke="#241f20" stroke-linecap="round" stroke-linejoin="round" stroke-width=".5"/><path d="M334.667,14.551c0-3.035-4.202-2.902-4.202-2.902l-73.459-.663c-3.58,0-3.978,3.978-3.978,3.978l-.09,69.634h1.25s-.114,4.317,4.09,4.317" fill="none" stroke="#241f20" stroke-linecap="round" stroke-linejoin="round" stroke-width=".5"/><path d="M268.972,33.668l-5.923-3.15c-1.47-.966-.228-2.379-.228-2.379l14.086-13.746,14.052-.078s1.38-.173,1.622.932l.483,3.762s.035,1.484-1.001,1.864c0,0-12.251-.035-21.707,12.872l-1.385-.077Z" fill="none" stroke="#241f20" stroke-linecap="round" stroke-linejoin="round" stroke-width=".5"/><path d="M273.467,35.18s5.965-9.787,18.356-11.005l1.134.42v5.25l-.756.924s-8.863,1.302-13.189,7.897l-1.428.126-3.78-2.1s-.42-.756-.336-1.512Z" fill="none" stroke="#241f20" stroke-linecap="round" stroke-linejoin="round" stroke-width=".5"/><path d="M296.308,24.896l.903-.694s10.346.104,18.123,10.693l-.104,1.25-4.097,2.778-.972-.069s-3.09-5.833-13.228-8.228l-.799-.66.174-5.069Z" fill="none" stroke="#241f20" stroke-linecap="round" stroke-linejoin="round" stroke-width=".5"/><path d="M295.641,15.174l.769,4.435s.498,1.086,1.539,1.267,11.767,1.086,20.185,12.491c0,0,.453.453,1.539.272l4.978-3.349s.724-.543-.091-1.629l-13.125-14.075-14.664-.226-1.131.815Z" fill="none" stroke="#241f20" stroke-linecap="round" stroke-linejoin="round" stroke-width=".5"/><path d="M253.12,35.756l2.469.154s2.315-3.549,3.549-3.549l16.744,9.105s1.003.617.463,2.006-2.778,6.25-.154,14.815c0,0,.694.926-.772,1.852s-8.179,4.861-8.179,4.861l-3.858,1.929-1.312,1.003" fill="none" stroke="#241f20" stroke-linecap="round" stroke-linejoin="round" stroke-width=".5"/><path d="M264.617,69.938l.694-.617,3.395-1.698.926-.231s7.485,11.96,21.682,12.886l.772.849" fill="none" stroke="#241f20" stroke-linecap="round" stroke-linejoin="round" stroke-width=".5"/><path d="M295.635,81.358l.386-1.157s13.04-.463,21.605-12.577l1.157-.154s4.012,2.778,4.784,3.395l.154,1.312-8.488,8.719" fill="none" stroke="#241f20" stroke-linecap="round" stroke-linejoin="round" stroke-width=".5"/><path d="M330.126,40.54v-5.864l-2.392-2.16c-1.235.617-6.096,4.09-6.096,4.09l-9.028,5.556-.386.926c2.546,5.401.386,13.966-.077,15.201-.463,1.235.617,1.775.617,1.775l8.333,5.015,2.469,2.006,3.086,1.775" fill="none" stroke="#241f20" stroke-linecap="round" stroke-linejoin="round" stroke-width=".5"/><path d="M330.002,69.208l-.054,8.633c0,2.389-2.823,3.095-2.823,3.095l-59.831.597c-2.443.054-2.769-3.475-2.769-3.475v-6.841c0-2.28-2.443-2.388-2.443-2.388h-2.882c-1.199,0-1.525,1.09-1.525,1.09v10.896c0,6.429,7.082,6.864,7.082,6.864l66.215-.371c4.774,0,5.423-4.888,5.423-4.888l-.344-12.717c0-1.031-1.757-1.337-1.757-1.337h-3.361c-.687,0-1.337.42-1.337.42l-4.354,2.902v8.812" fill="none" stroke="#241f20" stroke-linecap="round" stroke-linejoin="round" stroke-width=".5"/><path d="M278.665,62.922s5.39,6.97,11.989,7.342c0,0,1.626.372,1.626,1.441s-.046,3.903-.046,3.903c0,0,.279,1.766-1.859,1.487s-11.06-2.091-16.961-10.363c0,0-.511-.836,0-1.348s3.764-2.602,3.764-2.602l1.487.139Z" fill="none" stroke="#241f20" stroke-linecap="round" stroke-linejoin="round" stroke-width=".5"/><path d="M296.522,70.573s7.599-.912,12.853-7.773l1.346-.304,3.561,2.258s.912.565.304,1.346-7.339,10.422-18.021,10.986l-.999-.608-.106-4.364s.015-1.12,1.061-1.542Z" fill="none" stroke="#241f20" stroke-linecap="round" stroke-linejoin="round" stroke-width=".5"/><polyline points="253.192 40.748 256.411 40.748 256.411 60.787 253.258 60.787" fill="none" stroke="#241f20" stroke-linecap="round" stroke-linejoin="round" stroke-width=".5"/><path d="M257.266,40.748h1.445s1.38,1.051,1.38,3.285v12.089s.131,4.731-3.614,4.993" fill="none" stroke="#241f20" stroke-linecap="round" stroke-linejoin="round" stroke-width=".5"/><path d="M260.485,43.376h1.511s1.84,1.248,1.38,10.775h-2.891" fill="none" stroke="#241f20" stroke-linecap="round" stroke-linejoin="round" stroke-width=".5"/><polyline points="260.682 56.319 262.85 56.319 263.376 54.151" fill="none" stroke="#241f20" stroke-linecap="round" stroke-linejoin="round" stroke-width=".5"/><polyline points="257.463 70.445 257.463 63.743 260.485 60.195 260.485 56.38" fill="none" stroke="#241f20" stroke-linecap="round" stroke-linejoin="round" stroke-width=".5"/><polyline points="262.85 56.648 262.982 60.524 261.803 61.864 261.803 68.829" fill="none" stroke="#241f20" stroke-linecap="round" stroke-linejoin="round" stroke-width=".5"/><line x1="259.2" y1="68.829" x2="259.2" y2="61.962" fill="none" stroke="#241f20" stroke-linecap="round" stroke-linejoin="round" stroke-width=".5"/><line x1="48.039" y1="42.933" x2="51.247" y2="106.885" fill="none" stroke="#241f20" stroke-linecap="round" stroke-linejoin="round" stroke-width=".5"/><line x1="57.236" y1="43.147" x2="60.255" y2="102.013" fill="none" stroke="#241f20" stroke-linecap="round" stroke-linejoin="round" stroke-width=".5"/><path d="M43.485,26.663h9.304l.115,2.872,2.757,2.068.574,10.797h-9.419v-2.986s-3.101-5.973-3.216-8.959c0,0-.115-4.25-.115-3.79Z" fill="none" stroke="#241f20" stroke-linecap="round" stroke-linejoin="round" stroke-width=".5"/><line x1="55.546" y1="38.953" x2="46.816" y2="38.953" fill="none" stroke="#241f20" stroke-linecap="round" stroke-linejoin="round" stroke-width=".5"/><polyline points="45.667 26.433 45.438 11.386 54.603 11.296 55.086 31.028" fill="none" stroke="#241f20" stroke-linecap="round" stroke-linejoin="round" stroke-width=".5"/><polyline points="54.603 11.296 57.187 12.935 58.322 35.127 57.314 36.072 57.061 30.777 55.66 31.602" fill="none" stroke="#241f20" stroke-linecap="round" stroke-linejoin="round" stroke-width=".5"/><line x1="59.961" y1="14.574" x2="57.187" y2="12.935" fill="none" stroke="#241f20" stroke-linecap="round" stroke-linejoin="round" stroke-width=".5"/><path d="M328.562,89.607l54.658-.737s3.388.737,3.388-3.241l2.652-66.886s.442-2.505-2.505-2.947v-2.357" fill="none" stroke="#241f20" stroke-linecap="round" stroke-linejoin="round" stroke-width=".5"/><path d="M333.164,43.686l.426-25.917s0-2.728,3.24-2.984l40.751.426s2.046.085,2.046,2.643l-2.046,56.181s0,2.217-2.131,2.217l-38.875.341" fill="none" stroke="#241f20" stroke-linecap="round" stroke-linejoin="round" stroke-width=".5"/><path d="M341.434,31.921l9.463-9.889,15.516.085s5.456.682,5.456,5.797l-1.108,33.675s.512,8.184-6.479,8.184l-14.663.085-9.207-9.889,1.023-28.048Z" fill="none" stroke="#241f20" stroke-linecap="round" stroke-linejoin="round" stroke-width=".5"/><rect x="352.091" y="30.472" width="7.161" height="3.581" fill="none" stroke="#241f20" stroke-linecap="round" stroke-linejoin="round" stroke-width=".5"/><rect x="346.123" y="44.027" width="7.161" height="3.581" fill="none" stroke="#241f20" stroke-linecap="round" stroke-linejoin="round" stroke-width=".5"/><rect x="351.238" y="57.412" width="7.161" height="3.581" fill="none" stroke="#241f20" stroke-linecap="round" stroke-linejoin="round" stroke-width=".5"/><path d="M330.528,68.013v-5.565l-1.518-1.574-.393-5.003.45-1.855c.562-9.444-2.024-10.568-2.024-10.568-2.698,0-2.923,5.509-2.923,5.509l.281,8.039.787,1.18.112,4.385,1.743,1.967v5.734" fill="none" stroke="#241f20" stroke-linecap="round" stroke-linejoin="round" stroke-width=".5"/><polyline points="333.508 68.238 333.058 61.436 331.484 59.806 331.315 55.983 331.821 53.847" fill="none" stroke="#241f20" stroke-linecap="round" stroke-linejoin="round" stroke-width=".5"/><path d="M329.067,53.847h2.754c.612-5.166-.462-7.887-1.406-9.231-.618-.879-1.18-1.169-1.18-1.169h-2.192v-2.554s2.327-.572,3.327,2.811" fill="none" stroke="#241f20" stroke-linecap="round" stroke-linejoin="round" stroke-width=".5"/><line x1="327.043" y1="64.528" x2="330.528" y2="62.448" fill="none" stroke="#241f20" stroke-linecap="round" stroke-linejoin="round" stroke-width=".5"/><ellipse cx="326.593" cy="50.727" rx="1.012" ry="3.738" fill="none" stroke="#241f20" stroke-linecap="round" stroke-linejoin="round" stroke-width=".5"/><path d="M327.226,40.846l2.382-.095s5.907,2.62,2.144,16.959" fill="none" stroke="#241f20" stroke-linecap="round" stroke-linejoin="round" stroke-width=".5"/><path d="M-7.082,12.929C-.294,18.739,6.246,24.821,12.755,30.936c11.046,9.975,22.239,19.792,32.95,30.132.023.02-.011.058-.034.037-11.281-9.716-22.085-19.959-33.033-30.041C6.022,25.143-.918,19.126-7.082,12.929h0Z" fill="#241f20"/><path d="M8.587,12.592c6.396,5.23,12.154,11.159,18.382,16.574,6.222,5.421,12.327,10.973,18.231,16.739.022.02-.011.058-.034.037-6.297-5.335-12.399-10.89-18.382-16.574-5.907-5.691-12.633-10.929-18.198-16.776h0Z" fill="#241f20"/><path d="M24.592,12.256c3.114,2.284,5.582,5.261,8.527,7.729,2.914,2.493,5.839,5.073,8.373,7.929-3.047-2.318-5.846-5.014-8.559-7.728-2.623-2.74-6.058-5.035-8.341-7.93h0Z" fill="#241f20"/><path d="M-14.832,20.342c7.596,6.54,15.824,14.085,23.185,20.976,12.906,11.625,25.959,23.091,38.531,35.081.024.02-.011.058-.034.037-13.141-11.365-25.805-23.258-38.614-34.99C.739,34.774-7.827,27.259-14.832,20.342h0Z" fill="#241f20"/><path d="M-14.395,82.094c6.425-6.87,13.11-13.48,19.828-20.058,10.988-11.171,21.824-22.494,33.163-33.315.021-.022.058.013.035.035-10.739,11.416-21.984,22.333-33.075,33.401-6.528,6.694-13.166,13.706-19.95,19.936h0Z" fill="#241f20"/><path d="M-15.406,67.1c6.425-6.87,13.11-13.48,19.828-20.058,10.988-11.171,21.824-22.494,33.163-33.315.021-.022.058.013.035.035C26.881,25.178,15.635,36.095,4.544,47.163c-6.528,6.694-13.166,13.706-19.95,19.936h0Z" fill="#241f20"/><path d="M-14.981,50.118c5.869-6.486,12.407-12.302,18.454-18.612,6.052-6.303,12.23-12.483,18.612-18.453.021-.022.057.013.035.035-5.97,6.382-12.15,12.559-18.453,18.612-6.307,5.976-12.201,12.792-18.647,18.418h0Z" fill="#241f20"/><path d="M-13.97,32.765c3.006-3.623,6.678-6.573,9.861-10.019,3.207-3.415,6.499-6.837,10.055-9.859-3.035,3.555-6.442,6.846-9.861,10.052-3.442,3.113-6.472,7.059-10.055,9.826h0Z" fill="#241f20"/><path d="M-13.296,97.292c7.024-7.505,14.309-14.752,21.627-21.966,11.988-12.231,23.822-24.614,36.161-36.495.021-.022.058.013.035.035-11.738,12.476-23.983,24.453-36.074,36.582-7.128,7.33-14.365,14.979-21.75,21.845h0Z" fill="#241f20"/><path d="M-13.128,112.96c9.712-10.417,20.021-20.246,29.909-30.489,9.87-10.262,19.866-20.4,30.069-30.332.021-.022.058.013.036.035-9.788,10.34-19.787,20.476-29.909,30.489-10.103,9.959-19.863,20.686-30.104,30.297h0Z" fill="#241f20"/><path d="M-13.128,128.629c9.851-10.64,20.302-20.695,30.33-31.162,10.01-10.486,20.146-20.849,30.49-31.006.021-.022.058.013.036.035-9.928,10.564-20.067,20.925-30.33,31.162-10.244,10.184-20.142,21.135-30.526,30.971h0Z" fill="#241f20"/><path d="M-13.296,144.466c10.049-10.726,20.695-20.863,30.92-31.415,10.207-10.571,20.54-21.018,31.079-31.258.021-.022.058.013.036.035-10.125,10.65-20.461,21.095-30.92,31.416-10.439,10.267-20.537,21.304-31.115,31.223h0Z" fill="#241f20"/><path d="M158.964,193.127c9.469-10.047,20.259-20.999,30.054-30.848,16.688-17.146,33.192-34.474,50.222-51.284.021-.023.058.013.036.035-16.416,17.41-33.362,34.306-50.123,51.381-9.63,9.954-20.381,21.249-30.189,30.716h0Z" fill="#241f20"/><path d="M141.473,194.073c9.658-10.199,20.659-21.32,30.645-31.321,16.871-17.267,33.989-35.122,51.207-52.071.021-.023.058.013.036.035-16.63,17.535-34.155,34.976-51.108,52.169-9.82,10.106-20.783,21.57-30.78,31.188h0Z" fill="#241f20"/><path d="M123.982,194.388c9.64-10.124,20.62-21.16,30.586-31.085,16.984-17.278,33.784-34.738,51.108-51.677.021-.023.058.013.035.035-16.713,17.543-33.954,34.569-51.009,51.775-9.801,10.03-20.744,21.41-30.72,30.952h0Z" fill="#241f20"/><path d="M114.189,186.93c8.696-9.152,18.624-19.105,27.64-28.051,15.347-15.592,30.511-31.368,46.199-46.622.021-.023.058.013.035.035-15.077,15.858-30.681,31.199-46.099,46.72-8.85,9.051-18.744,19.35-27.774,27.918h0Z" fill="#241f20"/><path d="M98.785,184.441c8.426-8.872,18.054-18.513,26.798-27.177,14.879-15.107,29.575-30.397,44.795-45.165.021-.023.058.013.035.035-14.609,15.373-29.745,30.227-44.696,45.263-8.579,8.769-18.173,18.756-26.932,27.044h0Z" fill="#241f20"/><path d="M69.144,197.382c9.829-10.37,21.02-21.68,31.176-31.853,17.164-17.56,34.582-35.715,52.093-52.958.021-.023.058.013.036.035-16.923,17.829-34.749,35.569-51.994,53.055-9.992,10.278-21.144,21.931-31.312,31.72h0Z" fill="#241f20"/><path d="M58.744,189.345c8.864-9.272,18.979-19.359,28.163-28.426,15.638-15.8,31.093-31.784,47.07-47.245.021-.023.058.013.035.035-15.368,16.067-31.262,31.615-46.972,47.344-9.019,9.172-19.1,19.604-28.297,28.292h0Z" fill="#241f20"/><path d="M59.375,171.697c6.978-7.49,14.218-14.721,21.491-21.92,11.912-12.205,23.671-24.561,35.936-36.418.021-.022.058.013.036.035-11.662,12.449-23.832,24.401-35.848,36.504-7.083,7.314-14.274,14.947-21.615,21.798h0Z" fill="#241f20"/><path d="M57.169,154.205c5.032-5.307,10.321-10.351,15.642-15.361,8.663-8.562,17.177-17.279,26.185-25.485.021-.021.057.014.035.036-8.418,8.811-17.334,17.115-26.099,25.573-5.133,5.13-10.381,10.575-15.763,15.238h0Z" fill="#241f20"/><path d="M56.538,137.502c3.666-4.356,8.007-8.047,11.852-12.229,3.855-4.17,7.818-8.235,12.011-12.072.021-.021.057.013.036.035-3.761,4.263-7.752,8.299-11.852,12.229-4.108,3.85-7.795,8.533-12.047,12.037h0Z" fill="#241f20"/><path d="M55.595,120.308c.654-1.102,1.561-1.955,2.525-2.762,1.389-1.545,2.578-3.371,4.352-4.496-1.053,1.84-2.765,3.129-4.235,4.607-.743.946-1.617,2.155-2.643,2.651h0Z" fill="#241f20"/><path d="M176.455,192.182c8.655-9.158,18.538-19.118,27.513-28.071,15.276-15.603,30.369-31.389,45.987-46.655.021-.023.058.013.036.035-15.006,15.868-30.539,31.22-45.888,46.752-8.809,9.058-18.657,19.363-27.648,27.938h0Z" fill="#241f20"/><path d="M193.946,190.921c6.723-7.156,13.707-14.052,20.723-20.915,11.486-11.647,22.819-23.447,34.655-34.743.021-.022.058.013.035.035-11.237,11.893-22.979,23.286-34.568,34.83-6.827,6.98-13.764,14.278-20.846,20.793h0Z" fill="#241f20"/><path d="M249.628,150.03c-5.241-4.693-10.224-9.65-15.177-14.64-8.458-8.106-17.068-16.058-25.18-24.518-.022-.021.012-.058.035-.036,8.701,7.854,16.908,16.22,25.266,24.43,5.066,4.799,10.45,9.704,15.056,14.764h0Z" fill="#241f20"/><path d="M211.122,190.291c6.004-6.746,12.682-12.828,18.864-19.398,6.188-6.565,12.502-13.007,19.024-19.242.021-.022.058.013.036.035-6.105,6.643-12.422,13.082-18.864,19.398-6.446,6.239-12.47,13.315-19.059,19.207h0Z" fill="#241f20"/><path d="M227.352,190.922c.553-1.022,1.362-1.799,2.23-2.532,1.224-1.417,2.246-3.112,3.863-4.114-.886,1.706-2.435,2.872-3.743,4.223-.644.869-1.416,1.997-2.35,2.423h0Z" fill="#241f20"/><path d="M-13.802,159.965c10.133-10.81,20.863-21.032,31.173-31.668,10.292-10.655,20.708-21.187,31.332-31.511.021-.022.058.013.036.035-10.21,10.734-20.629,21.263-31.173,31.668-10.524,10.352-20.706,21.472-31.368,31.476h0Z" fill="#241f20"/><path d="M-10.015,171.388c6.425-6.87,13.11-13.48,19.828-20.058,10.988-11.171,21.824-22.494,33.163-33.315.021-.022.058.013.035.035-10.739,11.416-21.984,22.333-33.075,33.401-6.528,6.694-13.166,13.706-19.95,19.936h0Z" fill="#241f20"/><path d="M12.481,164.346c5.079-5.837,10.835-11.011,16.094-16.673,5.264-5.656,10.656-11.19,16.254-16.517.021-.021.058.013.036.035-5.181,5.733-10.575,11.265-16.094,16.673-5.523,5.332-10.622,11.497-16.29,16.482h0Z" fill="#241f20"/><path d="M17.872,173.444c4.243-4.804,9.149-8.932,13.568-13.558,4.429-4.615,8.963-9.122,13.725-13.399.021-.021.057.014.035.036-4.336,4.709-8.899,9.187-13.568,13.558-4.677,4.291-8.946,9.422-13.76,13.363h0Z" fill="#241f20"/><path d="M34.046,172.938c1.598-2.271,3.871-3.878,5.648-5.975,1.799-2.064,3.691-4.141,5.844-5.815-1.633,2.201-3.63,4.148-5.647,6.006-2.04,1.77-3.656,4.355-5.844,5.784h0Z" fill="#241f20"/><path d="M-15.674,34.326c10.833,9.214,21.107,19.052,31.775,28.451,10.686,9.38,21.255,18.89,31.626,28.617.024.02-.011.059-.033.037-10.761-9.294-21.327-18.807-31.775-28.451-10.394-9.626-21.54-18.874-31.592-28.654h0Z" fill="#241f20"/><path d="M-15.674,48.31c7.757,6.64,16.166,14.299,23.69,21.292,13.187,11.8,26.52,23.441,39.374,35.608.024.02-.011.058-.033.037-13.421-11.54-26.366-23.609-39.456-35.517C.239,62.955-8.507,55.329-15.674,48.31h0Z" fill="#241f20"/><path d="M-13.989,63.81c7.271,6.188,14.296,12.649,21.29,19.144,11.853,10.607,23.852,21.054,35.373,32.028.023.02-.01.059-.033.037-12.087-10.346-23.699-21.222-35.455-31.936-7.1-6.3-14.524-12.695-21.174-19.272h0Z" fill="#241f20"/><path d="M-14.158,77.962c7.501,6.292,14.758,12.858,21.984,19.459,12.239,10.782,24.622,21.403,36.531,32.555.024.02-.01.059-.033.037-12.471-10.52-24.47-21.572-36.613-32.463-7.331-6.405-14.987-12.903-21.869-19.588h0Z" fill="#241f20"/><path d="M-13.821,92.956c7.562,6.184,14.882,12.646,22.173,19.143,12.344,10.606,24.829,21.049,36.848,32.029.024.02-.009.059-.033.038-12.572-10.341-24.68-21.22-36.928-31.936-7.393-6.299-15.112-12.687-22.06-19.273h0Z" fill="#241f20"/><path d="M-15.001,106.097c7.793,6.374,15.346,13.025,22.868,19.711,12.73,10.922,25.601,21.681,38.006,32.976.024.02-.009.059-.033.038-12.958-10.656-25.452-21.852-38.087-32.883-7.625-6.489-15.575-13.066-22.755-19.842h0Z" fill="#241f20"/><path d="M-15.001,120.249c7.729,6.246,15.218,12.772,22.678,19.332,12.624,10.711,25.389,21.258,37.69,32.345.024.02-.009.059-.032.038-12.851-10.444-25.241-21.43-37.77-32.251C.004,133.35-7.883,126.901-15.001,120.249h0Z" fill="#241f20"/><path d="M-15.001,134.401c5.855,4.646,11.47,9.571,17.055,14.53,9.5,8.043,19.142,15.924,28.319,24.342.023.019-.009.059-.032.038-9.727-7.777-18.993-16.095-28.399-24.249-5.687-4.762-11.699-9.611-16.943-14.662h0Z" fill="#241f20"/><path d="M-14.495,148.722c3.917,2.808,7.213,6.33,10.967,9.327,3.724,3.024,7.462,6.132,10.821,9.532-3.852-2.842-7.468-6.075-11-9.325-3.441-3.28-7.683-6.088-10.788-9.534h0Z" fill="#241f20"/><path d="M240.599,157.528c-6.138-5.496-12.022-11.256-17.873-17.05-9.956-9.445-20.063-18.734-29.675-28.535-.022-.021.012-.058.035-.036,10.197,9.191,19.905,18.897,29.76,28.446,5.964,5.602,12.248,11.309,17.754,17.175h0Z" fill="#241f20"/><path d="M232.642,166.862c-7.362-6.662-14.47-13.59-21.546-20.55-11.997-11.389-24.143-22.623-35.796-34.369-.023-.021.012-.058.035-.036,12.238,11.136,23.985,22.786,35.881,34.28,7.188,6.769,14.697,13.642,21.426,20.675h0Z" fill="#241f20"/><path d="M232.949,183.389c-9.272-8.404-19.364-18.013-28.437-26.742-15.806-14.848-31.791-29.508-47.268-44.704-.023-.021.012-.058.034-.036,16.066,14.572,31.626,29.682,47.363,44.603,9.174,8.561,19.611,18.127,28.307,26.879h0Z" fill="#241f20"/><path d="M223.155,190.428c-10.19-9.157-21.307-19.606-31.306-29.094-17.4-16.155-34.978-32.121-52.05-48.626-.024-.021.012-.058.034-.036,17.658,15.877,34.814,32.295,52.145,48.524,10.1,9.32,21.559,19.722,31.177,29.232h0Z" fill="#241f20"/><path d="M206.17,191.04c-10.263-9.157-21.462-19.606-31.535-29.094-17.528-16.154-35.232-32.12-52.433-48.626-.024-.021.011-.058.034-.037,17.784,15.876,35.068,32.295,52.527,48.524,10.174,9.32,21.714,19.721,31.407,29.233h0Z" fill="#241f20"/><path d="M189.032,192.111c-10.575-9.34-22.122-19.994-32.51-29.667-17.921-16.332-36.442-32.893-54.059-49.583-.024-.021.011-.059.034-.037,18.182,16.082,36.302,33.064,54.153,49.48,10.488,9.505,22.377,20.109,32.383,29.807h0Z" fill="#241f20"/><path d="M172.505,193.336c-10.831-9.467-22.666-20.265-33.314-30.069-18.364-16.553-37.336-33.339-55.398-50.252-.024-.02.011-.059.033-.037,18.623,16.302,37.198,33.512,55.491,50.149,10.747,9.635,22.922,20.38,33.187,30.209h0Z" fill="#241f20"/><path d="M155.061,193.03c-11.013-9.392-23.053-20.108-33.887-29.839-18.679-16.426-37.973-33.08-56.355-49.87-.024-.02.01-.059.033-.037,18.936,16.172,37.837,33.255,56.447,49.766,10.931,9.561,23.31,20.22,33.761,29.981h0Z" fill="#241f20"/><path d="M137.004,193.642c-9.855-8.492-20.604-18.204-30.272-27.027-16.826-15.006-33.825-29.821-50.329-45.184-.024-.02.01-.059.033-.037,17.078,14.724,33.664,29.998,50.422,45.08,9.765,8.653,20.856,18.313,30.146,27.168h0Z" fill="#241f20"/><path d="M119.56,194.254c-7.655-6.382-15.954-13.755-23.38-20.491-13.014-11.355-26.172-22.549-38.859-34.275-.024-.02.01-.059.033-.037,13.245,11.092,26.021,22.719,38.94,34.183,7.56,6.516,16.196,13.853,23.266,20.621h0Z" fill="#241f20"/><path d="M90.889,184.355c-5.799-4.287-10.988-9.299-16.626-13.778-5.628-4.49-11.159-9.096-16.482-13.95-.023-.019.008-.058.032-.038,5.713,4.389,11.218,9.026,16.626,13.778,5.328,4.768,11.457,9.05,16.45,13.988h0Z" fill="#241f20"/><path d="M75.095,188.784c-2.9-2.054-5.159-4.805-7.891-7.045-2.701-2.264-5.415-4.616-7.739-7.245,2.833,2.089,5.421,4.557,7.923,7.043,2.413,2.513,5.633,4.576,7.707,7.247h0Z" fill="#241f20"/><path d="M249.627,133.044c-3.98-3.495-7.277-7.646-11.077-11.315-3.789-3.679-7.469-7.462-10.917-11.47-.02-.022.014-.057.036-.035,3.884,3.587,7.535,7.398,11.077,11.315,3.463,3.923,7.768,7.448,10.881,11.505h0Z" fill="#241f20"/><polygon points="103.885 195.977 85.665 196.618 85.579 187.08 103.799 186.439 103.885 195.977" fill="#241f20"/><ellipse cx="99.25" cy="191.511" rx="2.331" ry="2.247" transform="translate(-68.673 56.126) rotate(-23.728)" fill="#fff"/><path d="M94.48,189.959l-.005-.507-.686.024c-.092-.196-.256-.348-.459-.433l-.006-.681-.52.018.005.59-.745.026-.005-.59-.52.018.005.59-.736.026-.005-.59-.52.018.005.59-.727.026-.005-.59-.52.018.006.663c-.215.098-.385.272-.478.484l-.686.024.005.507.605-.021.007.717-.605.021.005.507.605-.021.007.717-.605.021.005.507.605-.021.007.717-.605.021.005.507.693-.024c.094.194.258.347.462.43l.006.675.52-.018-.005-.59.745-.026.005.59.52-.018-.005-.59.736-.026.005.59.52-.018-.005-.59.727-.026.005.59.52-.018-.006-.669c.207-.097.37-.264.462-.468l.693-.024-.005-.507-.605.021-.007-.717.605-.021-.005-.507-.605.021-.007-.717.605-.021-.005-.507-.605.021-.007-.717.605-.021ZM91.073,192.762l-.421.015-1.054-1.587.015,1.624-.378.013-.02-2.209.418-.015,1.05,1.591-.008-1.627.378-.013.02,2.209ZM92.484,192.712l-.442.016-.774-2.182.412-.014.583,1.728.572-1.769.403-.014-.754,2.236Z" fill="#fff"/><polygon points="250.523 177.933 234.372 178.463 234.372 170.359 250.523 169.83 250.523 177.933" fill="#241f20"/><path d="M247.318,176.41l-3.044.1c-.496.016-.902-.376-.902-.872v-3.044c0-.496.406-.915.902-.931l3.044-.1c.496-.016.902.376.902.872v3.044c0,.496-.406.915-.902.931Z" fill="#fff"/><path d="M238.784,176.685c-.143.005-.258-.035-.347-.118-.089-.084-.133-.194-.133-.333,0-.134.044-.247.133-.342.089-.094.204-.143.347-.147s.257.037.344.125c.086.089.13.199.13.333,0,.139-.043.252-.13.342-.086.089-.201.136-.344.141ZM238.667,175.243c0-.074-.01-.198-.029-.372-.019-.175-.04-.362-.061-.563-.022-.2-.042-.394-.061-.581s-.031-.333-.036-.436c-.013-.208-.027-.396-.042-.566s-.023-.303-.023-.399c0-.173.036-.297.107-.372.071-.076.157-.116.256-.119.104-.003.19.031.259.102.069.071.104.193.104.366,0,.095-.005.228-.016.396-.011.17-.025.361-.042.573-.004.104-.016.25-.036.439s-.04.384-.061.585c-.022.202-.041.391-.059.567-.017.175-.026.3-.026.373l-.233.008Z" fill="#fff"/></g><circle cx="92.445" cy="189.637" r="22.497" fill="none" stroke="#fff" stroke-miterlimit="10" stroke-width="4"/><circle cx="92.445" cy="189.637" r="22.497" fill="none" stroke="#241f20" stroke-dasharray="3" stroke-linecap="round" stroke-miterlimit="10"/><circle cx="241.197" cy="174.21" r="15.861" fill="none" stroke="#fff" stroke-linecap="round" stroke-miterlimit="10" stroke-width="3"/><circle cx="241.197" cy="174.21" r="15.861" fill="none" stroke="#241f20" stroke-dasharray="2.93 2.93" stroke-linecap="round" stroke-miterlimit="10"/><path d="M319.386,149.788c2.053-2.842,4.796-5.036,7.033-7.708,2.261-2.641,4.61-5.294,7.232-7.554-2.088,2.775-4.55,5.301-7.032,7.74-2.507,2.35-4.572,5.512-7.233,7.521h0Z" fill="#241f20"/><path d="M319.744,139.189c.327-.774.91-1.299,1.551-1.784.845-1.001,1.497-2.284,2.732-2.864-.519,1.288-1.676,2.038-2.612,2.973-.414.624-.966,1.485-1.671,1.675h0Z" fill="#241f20"/><path d="M334.927,154.01c.327-.774.91-1.299,1.551-1.784.845-1.001,1.497-2.284,2.732-2.864-.519,1.288-1.676,2.038-2.612,2.973-.414.624-.965,1.485-1.671,1.675h0Z" fill="#241f20"/><path d="M324.708,155.232c2.112-2.907,4.913-5.165,7.208-7.902,2.319-2.706,4.726-5.423,7.407-7.748-2.146,2.839-4.667,5.43-7.207,7.935-2.565,2.415-4.689,5.641-7.409,7.716h0Z" fill="#241f20"/><path d="M339.302,148.934c-2.701-2.052-4.732-4.775-7.258-7.006-2.493-2.253-4.996-4.596-7.098-7.2,2.631,2.085,5.004,4.537,7.29,7.006,2.196,2.492,5.214,4.565,7.065,7.201h0Z" fill="#241f20"/><path d="M338.595,139.154c-.747-.37-1.229-.978-1.667-1.643-.938-.897-2.169-1.618-2.661-2.878,1.244.59,1.911,1.782,2.777,2.765.592.447,1.411,1.045,1.551,1.756h0Z" fill="#241f20"/><path d="M324.241,154.818c-.759-.373-1.255-.987-1.708-1.657-.96-.905-2.212-1.631-2.729-2.902,1.264.595,1.956,1.797,2.845,2.789.604.451,1.438,1.052,1.592,1.771h0Z" fill="#241f20"/><path d="M333.935,154.241c-2.701-2.052-4.732-4.775-7.258-7.006-2.493-2.254-4.996-4.596-7.098-7.201,2.631,2.085,5.004,4.537,7.29,7.006,2.196,2.492,5.214,4.565,7.065,7.201h0Z" fill="#241f20"/><circle cx="266.97" cy="138.023" r="29.728" fill="#fff"/><g clip-path="url(#c)"><path d="M178.169,168.875c12.201-12.62,26.033-26.434,38.575-38.868,21.068-21.274,42.981-43.654,64.423-64.65.022-.023.058.013.035.035-20.905,21.564-43.143,43.559-64.324,64.748-12.38,12.543-26.169,26.695-38.709,38.735h0Z" fill="#241f20"/><path d="M210.097,167.685c8.408-9.377,17.339-18.238,26.337-27.036,14.6-15.054,28.816-30.48,44.129-44.83.043-.044.115.026.071.07-14.046,15.592-29.19,30.109-43.953,45.002-8.615,9.027-17.45,18.688-26.584,26.794h0Z" fill="#241f20"/><path d="M240.282,168.859c.995-1.932,2.515-3.362,4.141-4.715,2.269-2.639,4.153-5.85,7.195-7.644-1.588,3.202-4.514,5.355-6.955,7.863-1.195,1.745-2.477,3.393-4.307,4.564-.041.03-.101-.022-.074-.067h0Z" fill="#241f20"/><path d="M250.122,124.116c-13.72-12.362-26.931-25.255-40.078-38.215-22.299-21.198-44.966-42.009-66.57-63.929-.046-.042.025-.116.069-.072,22.831,20.639,44.6,42.387,66.741,63.751,13.372,12.575,27.385,25.361,39.839,38.465h0Z" fill="#241f20"/><path d="M250.691,154.853c-17.986-16.202-35.467-32.937-52.885-49.741-29.418-27.594-59.173-54.833-87.916-83.14-.047-.042.024-.117.068-.073,29.921,27.057,58.836,55.188,88.085,82.961,17.639,16.418,35.924,33.04,52.647,49.992h0Z" fill="#241f20"/><polygon points="283.379 144.704 253.342 145.688 253.342 130.617 283.379 129.632 283.379 144.704" fill="#241f20"/><path d="M277.418,141.871l-5.661.186c-.922.03-1.677-.7-1.677-1.622v-5.661c0-.922.755-1.702,1.677-1.732l5.661-.186c.922-.03,1.677.7,1.677,1.622v5.661c0,.922-.755,1.702-1.677,1.732Z" fill="#fff"/><path d="M261.547,142.382c-.266.009-.481-.065-.646-.22-.165-.156-.247-.362-.247-.62,0-.249.082-.46.247-.636.165-.174.38-.265.646-.274s.478.069.639.232c.161.165.242.37.242.62,0,.258-.081.469-.242.636-.161.165-.374.253-.639.262ZM261.33,139.699c0-.138-.018-.367-.054-.691-.036-.326-.074-.673-.114-1.047-.04-.372-.078-.733-.114-1.081s-.058-.619-.067-.811c-.024-.386-.05-.736-.078-1.053s-.042-.564-.042-.742c0-.322.066-.552.199-.693.132-.142.292-.216.476-.222.193-.006.353.057.482.191.128.132.193.358.193.68,0,.177-.009.423-.03.737-.02.315-.046.671-.078,1.065-.008.193-.03.465-.066.816s-.075.714-.114,1.089c-.04.376-.077.727-.109,1.054-.032.326-.048.557-.048.695l-.434.014Z" fill="#fff"/></g><circle cx="266.741" cy="138.251" r="29.5" fill="none" stroke="#fff" stroke-miterlimit="10" stroke-width="4"/><circle cx="266.741" cy="138.251" r="29.5" fill="none" stroke="#241f20" stroke-linecap="round" stroke-miterlimit="10"/><circle cx="266.97" cy="138.023" r="29.728" fill="none" stroke="#fff" stroke-miterlimit="10" stroke-width="4"/><circle cx="266.97" cy="138.023" r="29.728" fill="none" stroke="#241f20" stroke-miterlimit="10"/><path d="M251.427,121.976c0,7.593-6.246,13.745-13.95,13.745s-13.953-6.152-13.953-13.745,6.246-13.755,13.953-13.755,13.95,6.159,13.95,13.755" fill="#221f1f" stroke="#fff" stroke-miterlimit="10" stroke-width="1.5"/><rect x="224.471" y="113.982" width="26.233" height="24.791" fill="none"/><path d="M242.32,127.244v1.774h-9.936c-.014-.444.058-.872.215-1.282.253-.677.658-1.343,1.215-2,.557-.656,1.362-1.415,2.415-2.276,1.634-1.34,2.738-2.401,3.312-3.184s.861-1.523.861-2.22c0-.731-.262-1.348-.784-1.851-.523-.502-1.205-.753-2.046-.753-.889,0-1.6.267-2.133.8s-.803,1.271-.81,2.215l-1.897-.195c.13-1.415.619-2.493,1.466-3.235.848-.741,1.986-1.112,3.415-1.112,1.442,0,2.584.4,3.425,1.2s1.261,1.791,1.261,2.974c0,.602-.123,1.193-.369,1.774s-.655,1.193-1.225,1.835c-.571.643-1.52,1.524-2.846,2.646-1.107.93-1.818,1.561-2.133,1.892s-.574.665-.779,1h7.373Z" fill="#fff"/><circle cx="52.973" cy="143.632" r="42.5" fill="#fff"/><g clip-path="url(#d)"><line x1="5.489" y1="171.539" x2="102.597" y2="167.432" fill="none" stroke="#241f20" stroke-linecap="round" stroke-linejoin="round"/><line x1="-14.321" y1="167.885" x2="105.532" y2="162.374" fill="none" stroke="#241f20" stroke-linecap="round" stroke-linejoin="round"/><path d="M64.948,133.814c16.507-17.479,33.536-34.439,50.631-51.336,28.09-28.559,55.832-57.463,84.618-85.329.043-.046.116.027.071.07-27.565,29.074-56.178,57.116-84.443,85.502-16.715,17.127-33.649,34.894-50.877,51.093h0Z" fill="#241f20"/><path d="M8.952,158.261c7.09-8.023,14.703-15.529,22.382-22.972,12.404-12.796,24.423-25.965,37.538-38.057.042-.044.114.026.071.07-11.849,13.334-24.796,25.593-37.362,38.229-7.297,7.673-14.813,15.977-22.629,22.73h0Z" fill="#241f20"/><path d="M137.165,151.181c-18.47-16.209-38.812-34.516-57.146-51.104C48.493,71.912,16.169,43.308-15.101,14.764c-.025-.02.01-.059.033-.037,31.813,27.973,63.753,56.943,95.213,85.208,18.439,16.425,39.103,34.66,57.02,51.245h0Z" fill="#241f20"/><path d="M104.194,152.356c-15.069-12.511-29.651-25.574-44.173-38.706C35.444,92.188,10.543,71.092-13.383,48.895c-.048-.04.02-.117.066-.075,25.06,20.908,49.153,42.924,73.567,64.571,14.73,12.739,30.11,25.66,43.944,38.965h0Z" fill="#241f20"/><path d="M50.031,133.655c-8.18-6.118-15.886-12.798-23.534-19.549C13.391,103.278-.056,92.864-12.515,81.272c-.047-.039.017-.116.064-.076,13.598,10.232,26.211,21.642,39.17,32.645,7.848,6.352,16.34,12.873,23.312,19.814h0Z" fill="#241f20"/><path d="M20.193,142.022c-4.07-2.956-7.656-6.43-11.149-10.016-6.214-5.536-12.981-10.665-18.377-16.985,6.79,4.83,12.512,11.055,18.595,16.745,3.754,3.146,8.085,6.534,10.931,10.255h0Z" fill="#241f20"/><polygon points="74.584 155.609 40.164 156.82 40.001 138.801 74.421 137.59 74.584 155.609" fill="#241f20"/><path d="M70.205,147.019c.021,2.357-1.922,4.337-4.34,4.422s-4.396-1.757-4.417-4.114c-.021-2.357,1.922-4.337,4.34-4.422s4.396,1.757,4.417,4.114Z" fill="#fff"/><path d="M56.816,144.24l-.009-.957-1.296.046c-.174-.37-.484-.657-.867-.818l-.012-1.287-.982.035.01,1.115-1.407.049-.01-1.115-.982.035.01,1.115-1.39.049-.01-1.115-.982.035.01,1.115-1.373.048-.01-1.115-.982.035.011,1.252c-.406.184-.728.514-.903.915l-1.296.046.009.957,1.144-.04.012,1.354-1.144.04.009.957,1.144-.04.012,1.355-1.144.04.009.957,1.144-.04.012,1.354-1.144.04.009.957,1.308-.046c.178.367.488.655.872.812l.012,1.275.982-.035-.01-1.115,1.407-.049.01,1.115.982-.035-.01-1.115,1.39-.049.01,1.115.982-.035-.01-1.115,1.373-.048.01,1.115.982-.035-.011-1.264c.39-.183.699-.499.874-.885l1.308-.046-.009-.957-1.144.04-.012-1.354,1.144-.04-.009-.957-1.144.04-.012-1.355,1.144-.04-.009-.957-1.144.04-.012-1.354,1.144-.04ZM50.381,149.535l-.794.028-1.992-2.999.028,3.068-.713.025-.038-4.173.79-.028,1.983,3.005-.014-3.074.713-.025.038,4.173ZM53.045,149.441l-.836.029-1.462-4.123.779-.027,1.102,3.264,1.081-3.341.761-.027-1.425,4.224Z" fill="#fff"/></g><circle cx="52.973" cy="143.632" r="42.5" fill="none" stroke="#fff" stroke-miterlimit="10" stroke-width="4"/><circle cx="52.973" cy="143.632" r="42.5" fill="none" stroke="#241f20" stroke-linecap="round" stroke-miterlimit="10"/><path d="M29.898,118.972c0,7.593-6.246,13.745-13.95,13.745s-13.953-6.152-13.953-13.745,6.246-13.755,13.953-13.755,13.95,6.159,13.95,13.755" fill="#221f1f" stroke="#fff" stroke-miterlimit="10" stroke-width="1.5"/><rect x="1.947" y="110.978" width="27.228" height="24.791" fill="none"/><path d="M17.545,126.014h-1.846v-11.761c-.444.424-1.027.848-1.749,1.271s-1.369.742-1.943.954v-1.784c1.032-.485,1.935-1.073,2.707-1.764s1.319-1.36,1.641-2.01h1.189v15.094Z" fill="#fff"/></svg>