<?xml version="1.0" encoding="UTF-8"?>
<svg id="Layer_1" xmlns="http://www.w3.org/2000/svg" version="1.1" viewBox="0 0 369 297">
  <!-- Generator: Adobe Illustrator 29.0.1, SVG Export Plug-In . SVG Version: 2.1.0 Build 192)  -->
  <defs>
    <style>
      .st0, .st1, .st2, .st3, .st4, .st5, .st6, .st7, .st8, .st9, .st10, .st11, .st12, .st13, .st14, .st15, .st16, .st17, .st18 {
        fill: none;
      }

      .st1 {
        stroke-width: .5px;
      }

      .st1, .st2, .st3, .st4, .st5, .st6, .st7, .st8, .st9, .st10, .st11, .st12, .st13, .st14, .st15, .st16, .st18 {
        stroke-linecap: round;
        stroke-linejoin: round;
      }

      .st1, .st2, .st3, .st4, .st5, .st6, .st7, .st8, .st9, .st10, .st11, .st12, .st13, .st15 {
        stroke: #231f20;
      }

      .st2 {
        stroke-width: .5px;
      }

      .st3 {
        stroke-width: .5px;
      }

      .st4 {
        stroke-width: .5px;
      }

      .st5 {
        stroke-width: .5px;
      }

      .st6 {
        stroke-width: .5px;
      }

      .st7, .st17, .st18 {
        stroke-width: .5px;
      }

      .st8 {
        stroke-width: .5px;
      }

      .st9 {
        stroke-width: .5px;
      }

      .st10 {
        stroke-width: .4px;
      }

      .st11 {
        stroke-width: .3px;
      }

      .st12 {
        stroke-width: .6px;
      }

      .st13 {
        stroke-width: .4px;
      }

      .st19 {
        fill: #231f20;
      }

      .st20 {
        fill: #211f1f;
        stroke-width: 1.5px;
      }

      .st20, .st16 {
        stroke: #fff;
      }

      .st20, .st17 {
        stroke-miterlimit: 10;
      }

      .st14, .st17, .st18 {
        stroke: #000;
      }

      .st21 {
        fill: #fff;
      }

      .st16 {
        stroke-width: 4px;
      }

      .st22 {
        fill: #babcbe;
      }
    </style>
  </defs>
  <g id="a">
    <path class="st22" d="M209.8,196.3l10.9,1.7s2.7-5.7-.5-8c0,0-2.5-2.8-7-1.3l-2.5,2.5s-1.1,3.2-.8,5h0Z"/>
    <path class="st7" d="M81.8,211.5l.9-2-1.2.4,12.4-27.5c1.1-2.3-1.1-3.8-1.1-3.8L2.3,119.5l44.3-62.4"/>
    <path class="st7" d="M134.5,240.8c-.3,3.2-1.9,2.6-1.9,2.6l-50.7-32s1.3-.2,2.1-2.8l50.5,32.1h0Z"/>
    <path class="st7" d="M8,123.1l.9-.4,8,5,1-1.5.7-1.1,9.2,5.7s-.3,1.5-.7,1.5l4.4,3s.7-1.1,1-1.1l43,28.2s0,1.1-.3,1.6l5.7,3.6s.6-.9,1.1-.8l9,6.1-.6,1.2-1.6,1.8"/>
    <line class="st7" x1="32.6" y1="135.9" x2="74" y2="163.1"/>
    <line class="st7" x1="81.8" y1="168.4" x2="89.6" y2="173.7"/>
    <line class="st7" x1="19" y1="127.1" x2="25.9" y2="131.4"/>
    <polyline class="st7" points="72.1 30.8 72.9 29.8 73.6 28.9 91.2 41.9 91.1 42.9 91.6 43.3 92 42.8 93.1 41.3 93.8 40.4 101.9 46.2 101.9 46.7 104.6 48.9 105.4 48.9 108.7 51.3 108.9 52 164.1 92.8 165 92.9 179.3 103.6 178.6 104.4 177.8 106.6 92.6 43.6"/>
    <line class="st7" x1="177.9" y1="103.9" x2="93.7" y2="42"/>
    <polyline class="st7" points="177 108.5 67.4 27.8 48.3 54.6"/>
    <polygon class="st7" points="143.5 110 136.7 110 134.6 108.3 134.5 107.6 118.7 96.6 110.6 106 112.9 108 113.8 108 117.1 110.3 117.1 111 127.5 118.5 134.8 118.6 143.5 110"/>
    <line class="st7" x1="136.5" y1="109.9" x2="127.6" y2="118.5"/>
    <path class="st7" d="M80.1,128.4h9c0,0,22.1,15.2,22.1,15.2l8.2-8.2-22.4-16h-7.5c-1.4,0-2-.3-2-.3l-32.2-23-7.6,9.5,8.7,6.1,11.7.3,3,10,51.6,36.2"/>
    <line class="st7" x1="80.5" y1="128.1" x2="88.2" y2="119.6"/>
    <line class="st7" x1="90.1" y1="127.6" x2="96.9" y2="120.3"/>
    <path class="st7" d="M115.5,139.8l3.4,2.3s.9.8,1.1,1.3l.5,1.5s.6,1.4,1.5,2,4.3,3.1,4.3,3.1l8.5-8.1-3.9-2.9s-1-.8-1.5-1.7c-.5-1-.9-2.1-.9-2.1-.3-1-2.1-2.2-2.1-2.2l-18.4-13.1-3.8,4.3"/>
    <line class="st7" x1="120.2" y1="141.8" x2="126.8" y2="135.2"/>
    <path class="st7" d="M140,236.6c0-1.8,1.5-1.5,1.5-1.5l40-125.3-.6-.6-2.1-.3c-2.1-.3-2.5,1-2.5,1l-42.3,125.2s-1.7,1.9.9,3.6l2.6,1.6s1.6-.3,1.6-2c0,0,0-1.9-3.4-1.1l-.6.6"/>
    <line class="st7" x1="135.6" y1="234.4" x2="139.4" y2="235.1"/>
    <polyline class="st7" points="134.6 243.5 137.1 244.8 139.9 242.9 141.1 239.4 140.8 238.2"/>
    <line class="st7" x1="137.6" y1="240.9" x2="136.8" y2="243.2"/>
    <path class="st7" d="M122.6,237.5s-1.1,2.4,0,4.3"/>
    <polyline class="st7" points="131 243.4 120.6 241.7 119.2 244"/>
    <path class="st7" d="M309,286.3l-.7.7-7.9-1.4-.3.9-173.7-30.7c.3-1.6-1-1.9-1-1.9-5.1-.1-5.3-3.4-5.3-3.4v-4.7c0-1.4,2.6-1.3,2.6-1.3l11.9,2,.5.7,2.4-1.3,139,24,1,1-1.9,9.9-.6.6"/>
    <polyline class="st7" points="338.2 280.3 338.2 278.4 339.2 278.6 343.9 280.8 344 281.8 306.9 274.7 306 275.7 303.8 275.7 303.9 274.4 283 270.9 281.9 271.1 278.3 270.7"/>
    <path class="st7" d="M307.9,285.8s-.3-1.7,1.2-1.6l21,3.8s.3,2-.7,2.2l-20.4-3.4"/>
    <path class="st7" d="M330.6,289.4s.8.5,1.3,0c0,0,2.1.6,2.5.3,0,0,1.8.9,2.5,0l4.1.7,3-8.4"/>
    <polyline class="st7" points="140.5 245.9 142.4 239.5 142.2 236.2 141.6 235.7"/>
    <polyline class="st7" points="141.9 242.9 155 245 155 248.6"/>
    <polyline class="st7" points="168.6 251.2 168.6 247.2 177.2 248.7 177.3 252.6"/>
    <line class="st7" x1="142.6" y1="237.4" x2="149.9" y2="215.2"/>
    <path class="st7" d="M181.5,253.1l.2-1.3c.8-1.6.5-4.6.5-4.6l2.5-9.8c.5-1.7,1.4-.5,1.4-.5v2.5l1.3-5s.4-1.4.4-2.4.2-4.7.2-4.7h-.7"/>
    <path class="st7" d="M185.6,236.4s1.6-3.8,1.7-9.1l1.9-8.7-2.7-.4s-.9,0-1.1.8l-.2,1.9"/>
    <path class="st7" d="M143.7,243.1l6.5-21.2-.3-8.6,1.5-4.9,6.1.9-1.4,5.2.9-.2c9.1.5,8.8,6.2,8.8,6.2,0,0,1.4,3,4.9,3.4s5.4-2.2,5.4-2.2c0,0,.5-4.9,6.6-3.9,0,0,.8,1.1,2.6,1.2"/>
    <line class="st7" x1="150.7" y1="213.7" x2="155.3" y2="214.4"/>
    <path class="st7" d="M152.7,208.3s0-2,.7-4.4,1.8-5.4,1.8-5.4"/>
    <path class="st7" d="M157.8,211.7l5.1.8s0-1.6.5-2.4l8.1,1.3-.2,2.5,6.6,1.1"/>
    <path class="st7" d="M156.6,196.1l-1.4-.3,2.8-8.9,9.2,1.5s2,.1,1.5,1.8l-.6,1.6v2.5"/>
    <polyline class="st7" points="169 191.5 170.7 193.2 176.8 194.6 183.1 192.6 186.7 192.5"/>
    <path class="st7" d="M157.4,191.9l2.4.4s.9.2.7,1.4v2.6"/>
    <path class="st7" d="M159,196.5l5.6.9s3.1.1,3.1-2.3l7.4,1.1s0,2.6,1.7,3.2l4.6.7s1.1-.3,1.4-2.9l2.4.3"/>
    <polyline class="st7" points="164 187.8 164.6 186 158.8 184.8 158.1 187"/>
    <path class="st7" d="M181.6,211.9l-2.4-.2s-1.1-.5-1.1,1v5.6"/>
    <path class="st7" d="M206.3,130.1l-2.9-.7c2.5-9.8,4.2-16.3,4.2-16.3l2.7.4"/>
    <path class="st7" d="M201.5,148.7l-3-.7c1.6-6.3,3.2-12.3,4.5-17.5l2.9.6"/>
    <path class="st7" d="M196.3,169.1l-3.1-.6c1.7-6.4,3.3-12.9,4.9-19.1l2.9.6"/>
    <path class="st7" d="M190.9,190.9l-3.3-.7c1.6-6.2,3.4-13.2,5.3-20.4l3.1.6"/>
    <path class="st7" d="M181.2,217.5v-1.8c.1,0,0-1.2.5-2.6.1-.4,2.4-9.2,5.5-21.3l3.3.6"/>
    <line class="st7" x1="211.4" y1="110.1" x2="184.4" y2="217.3"/>
    <polyline class="st7" points="177.8 106.6 180.5 107 182.7 106.1 273.3 117.5 274 119.4 278 119.7 279 118.3 288.6 119.4 288.8 120 288.8 120.6 289 122.7 291.9 123.2 292.8 121.9 310.3 124.2"/>
    <polyline class="st7" points="310.4 123.3 308.8 123.1 308.7 122.4 292.8 120.4 288.8 120.6"/>
    <path class="st7" d="M310.6,123.7s.1-.7,1-.9l3.9.6-2.1,112.1-4.4-.7s-1.4-.2-1.4-1.9,2.9-109.2,2.9-109.2Z"/>
    <line class="st7" x1="213.8" y1="110" x2="187.5" y2="218"/>
    <polyline class="st7" points="162.3 173.2 164.9 165.4 174.1 166.8 175.3 167.6 174.6 169.8 174.4 171.8"/>
    <path class="st7" d="M164.6,170.9l2.3.4s-1.1,2.8.7,3.1,4.9.7,4.9.7c0,0,1.5-.4,2-2.5l7.2,1s-.8,2.6.6,2.8l5.7,1,.8-2.9,2.3.4"/>
    <polyline class="st7" points="175.5 169.4 176.8 171.1 182.6 172.6 189.4 170.6 192.4 170.3"/>
    <polyline class="st7" points="187.8 188.2 185 187.9 184.3 192.4"/>
    <polyline class="st7" points="193.6 166.4 190.6 165.9 190.4 170.2"/>
    <polyline class="st7" points="184.3 191.1 178.1 190.1 178.2 187.5 170.4 186.2 169.8 188.9 168.8 189"/>
    <polyline class="st7" points="170.7 166.1 171.3 164.4 165.5 163.6"/>
    <polyline class="st7" points="170.7 149 171.8 145.7 180.5 146.8 181 147.2 180.4 149.5"/>
    <path class="st7" d="M181.3,149.5l1.8,1.8,5.3,1,4.7-1.2s1.4-1.2,4.5-1.2"/>
    <path class="st7" d="M170.9,150.4l2.5.4s-.7,2.7,1.8,3,4.4.5,5.2-1.8l6.9,1.1s0,2.4,1.9,3l4.4.5s.9-1.6.9-2.7l2.1.3"/>
    <path class="st7" d="M176.2,130.2l1.1-3,8.7,1.1.6.3-.3,2.1,2.1,2.2,5.2.9,4.9-1.5s1.9-1.4,4.3-1.2"/>
    <path class="st7" d="M176.7,131.5l2.6.3s-.5,2.1-.3,2.4l5.5.9s1.4-.7,1.7-1.9l6.3,1s.8,2,1.5,2.2l4.7.6.9-3s1.6-.3,2.6,0"/>
    <polyline class="st7" points="176.6 146.2 177.2 144.4 172.2 143.6"/>
    <polyline class="st7" points="182.5 127.4 182.7 126 177.8 125.3"/>
    <path class="st7" d="M175.9,167.4l.8-2.9,7.6,1.1s-.9,2.8.4,3.3l5.3.7"/>
    <path class="st7" d="M180.8,115.9l2.1-6.1,7.5.9s1.6.2,1.6,1l-.5,1.6v1.6"/>
    <path class="st7" d="M212.3,119.7l72.9,9.8s1,0,.9,1.1"/>
    <path class="st7" d="M45.3,57.3l-3.9-2.7s.5-2.9,3-3.6l3.5,2.4s.7,1.6-2.5,3.9Z"/>
    <path class="st7" d="M47.5,56.8l1.9,1.2s.7-.2.7-1l-1.9-1.2"/>
    <polyline class="st7" points="177.5 107.6 184.1 107.9 210.6 111.6"/>
    <path class="st7" d="M206.3,117.4l-2.1-.4-.6,2.3-4.7-.7c-1.5-.4-1.3-2.6-1.3-2.6l-6.9-.8s0,2.3-2.1,2.4l-4-.6s.4-1.9.4-2.7-.8-.7-.8-.7l-1.9-.2"/>
    <polyline class="st7" points="197.9 116.7 200 117 200.4 116.2 203.8 116.8"/>
    <polyline class="st7" points="186.9 128.8 187.7 128.9 188.3 126.6 195.1 127.5 194.6 129.9 200.8 130.7"/>
    <polyline class="st7" points="198.7 146.2 196.3 145.9 195.8 146.4 195.7 149.9"/>
    <line class="st7" x1="261.2" y1="128.6" x2="258.5" y2="148.3"/>
    <line class="st7" x1="192.7" y1="213.8" x2="204.1" y2="215.6"/>
    <polyline class="st7" points="193 207.9 194.5 208.2 194.5 212.8"/>
    <polyline class="st7" points="195.4 208.3 197 208.6 197 213.2"/>
    <polyline class="st7" points="197.9 208.7 199.4 209 199.4 213.6"/>
    <polyline class="st7" points="200.3 209.1 201.9 209.4 201.9 214"/>
    <polyline class="st7" points="193.6 206.2 195.2 206.5 195.2 207.6"/>
    <polyline class="st7" points="196.1 206.6 197.6 206.9 197.6 208.1"/>
    <polyline class="st7" points="198.5 207 200.1 207.3 200.1 208.5"/>
    <polyline class="st7" points="201 207.4 202.5 207.7 202.5 208.9"/>
    <polyline class="st7" points="204.5 201 206.1 201.3 206.1 203.2"/>
    <polyline class="st7" points="196.7 200.5 196.7 199.7 195.2 199.4 195.2 203"/>
    <polyline class="st7" points="197.6 199.8 199.1 200.1 199.1 201"/>
    <polyline class="st7" points="199.9 200.2 201.4 200.5 201.4 201.4"/>
    <polyline class="st7" points="202.3 200.6 203.8 200.9 203.8 201.7"/>
    <polyline class="st7" points="205 199.3 206.6 199.6 206.6 200.7"/>
    <polyline class="st7" points="195.7 197.7 197.2 198 197.2 198.8"/>
    <polyline class="st7" points="198.1 198.1 199.6 198.3 199.6 199.2"/>
    <polyline class="st7" points="200.4 198.5 201.9 198.7 201.9 199.6"/>
    <polyline class="st7" points="202.8 198.9 204.3 199.1 204.3 200"/>
    <polyline class="st7" points="205.3 197.6 206.9 197.9 206.9 199"/>
    <polyline class="st7" points="196 196 197.5 196.3 197.5 197.1"/>
    <polyline class="st7" points="198.3 196.4 199.9 196.7 199.9 197.5"/>
    <polyline class="st7" points="200.7 196.8 202.2 197.1 202.2 198"/>
    <polyline class="st7" points="203 197.2 204.6 197.5 204.6 198.3"/>
    <polyline class="st7" points="205.6 196 207.2 196.2 207.2 197.4"/>
    <polyline class="st7" points="196.4 194.4 197.9 194.7 197.9 195.5"/>
    <polyline class="st7" points="198.7 194.8 200.2 195.1 200.2 195.9"/>
    <polyline class="st7" points="201 195.2 202.5 195.4 202.5 196.3"/>
    <polyline class="st7" points="203.4 195.6 204.9 195.8 204.9 196.7"/>
    <polyline class="st7" points="205.9 194.3 207.4 194.6 207.4 195.7"/>
    <polyline class="st7" points="196.8 192.8 198.2 193 198.2 193.8"/>
    <polyline class="st7" points="199.1 193.1 200.5 193.4 200.5 194.2"/>
    <polyline class="st7" points="201.4 193.5 202.8 193.8 202.8 194.6"/>
    <polyline class="st7" points="203.7 193.9 205.1 194.2 205.1 195"/>
    <polyline class="st7" points="206.2 192.8 207.8 193 207.8 194.1"/>
    <polyline class="st7" points="197.1 191.2 198.6 191.5 198.6 192.2"/>
    <polyline class="st7" points="199.4 191.6 200.9 191.8 200.9 192.7"/>
    <polyline class="st7" points="201.7 192 203.2 192.2 203.2 193.1"/>
    <polyline class="st7" points="204 192.3 205.5 192.6 205.5 193.5"/>
    <polyline class="st7" points="206.5 191.1 208 191.4 208 192.5"/>
    <polyline class="st7" points="197.4 189.5 198.9 189.8 198.9 190.6"/>
    <polyline class="st7" points="199.7 189.9 201.2 190.2 201.2 191"/>
    <polyline class="st7" points="202 190.3 203.5 190.6 203.5 191.4"/>
    <polyline class="st7" points="204.3 190.7 205.8 190.9 205.8 191.8"/>
    <polyline class="st7" points="206.9 189.4 208.4 189.7 208.4 190.8"/>
    <polyline class="st7" points="197.8 187.8 199.2 188.1 199.2 188.9"/>
    <polyline class="st7" points="200.1 188.2 201.5 188.5 201.5 189.3"/>
    <polyline class="st7" points="202.4 188.6 203.9 188.9 203.9 189.7"/>
    <polyline class="st7" points="204.7 189 206.2 189.3 206.2 190.1"/>
    <polyline class="st7" points="207.5 187.7 209 188 209 189.1"/>
    <polyline class="st7" points="200.7 186.6 202.2 186.8 202.2 187.7"/>
    <polyline class="st7" points="203 186.9 204.5 187.2 204.5 188.1"/>
    <polyline class="st7" points="205.3 187.3 206.8 187.6 206.8 188.4"/>
    <polyline class="st7" points="207.8 186.1 209.4 186.4 209.4 187.5"/>
    <polyline class="st7" points="201 185 202.5 185.2 202.5 186.1"/>
    <polyline class="st7" points="203.3 185.4 204.8 185.6 204.8 186.5"/>
    <polyline class="st7" points="205.6 185.7 207.1 186 207.1 186.8"/>
    <polyline class="st7" points="208 184.5 209.6 184.7 209.6 185.8"/>
    <polyline class="st7" points="201.2 183.3 202.7 183.6 202.7 184.4"/>
    <polyline class="st7" points="203.5 183.7 205 183.9 205 184.8"/>
    <polyline class="st7" points="205.8 184.1 207.3 184.3 207.3 185.2"/>
    <polyline class="st7" points="196.1 204.7 197.7 205 197.7 206.2"/>
    <polyline class="st7" points="198.6 205.1 200.2 205.4 200.2 206.6"/>
    <polyline class="st7" points="201 205.5 202.6 205.8 202.6 207"/>
    <polyline class="st7" points="196.4 203 198.1 203.3 198.1 204.5"/>
    <polyline class="st7" points="199 203.4 200.7 203.7 200.7 204.9"/>
    <polyline class="st7" points="201.6 203.8 203.2 204.1 203.2 205.3"/>
    <polyline class="st7" points="196.7 201.2 198.4 201.5 198.4 202.7"/>
    <polyline class="st7" points="199.3 201.6 201 201.9 201 203.1"/>
    <polyline class="st7" points="201.9 202 203.5 202.3 203.5 203.5"/>
    <polyline class="st7" points="192.8 211.8 191.9 215.3 203.9 217.2 209.8 190.2 209.8 189.5"/>
    <line class="st7" x1="191.9" y1="215.3" x2="191.9" y2="217.8"/>
    <path class="st7" d="M318.5,243.9l10.3,1.6s.9.2.5,1.8l-.7,4.5s-.2,1.2-1.9.9-9.6-1.6-9.6-1.6l1-6-.2-.8v-2.3s0-.7-.8-.7"/>
    <line class="st7" x1="328.3" y1="247.1" x2="318.9" y2="245.6"/>
    <polyline class="st7" points="315.3 240.1 317 240.4 317 251.1 315.2 250.8"/>
    <path class="st7" d="M315.4,257.1s1.6-.1,1.9,1.4c0,0,.5,2.4-2.1,2.1"/>
    <polyline class="st7" points="315.2 261.7 316.8 261.7 316.7 260.3"/>
    <path class="st7" d="M317.1,260.8s.8,0,.8,1.1l.3,2.4-.3,11.6"/>
    <line class="st7" x1="315.3" y1="264.2" x2="318.2" y2="264.2"/>
    <path class="st7" d="M313.5,272.4s3.9,0,3.7,2.2v1"/>
    <line class="st7" x1="333.2" y1="278.7" x2="307.3" y2="273.8"/>
    <path class="st7" d="M337.4,280.4l.2-3.2s-.1-1.1-1.5-1.3-5.7-1-5.7-1c0,0-1.4-.4-1.8.5l-.4,2"/>
    <polyline class="st7" points="312.8 274.6 312.8 272.3 283.6 267.4 277.9 267.5 277.9 269.5 282 269.7 283 270.9"/>
    <polyline class="st7" points="276.6 270 276.6 266.5 201.2 253.8 199.7 254.3 199.2 256.3"/>
    <path class="st7" d="M188.1,228.2l5.3.9,2.9-1.1v-2.1l-7.1-1.2,1.3-5.3,4.8-.5s.5,0,.5.7,0,2.4,0,2.4c0,0,.1.8,1.7.6s4.9-.5,4.9-.5"/>
    <polyline class="st7" points="196.4 227.9 196.1 234.2 193.1 235.6 193.5 229.1"/>
    <path class="st7" d="M189.1,218.6l5.9-.5s1.2-.1.9,1.4"/>
    <polygon class="st7" points="282.8 154.4 282.7 156 222.2 147.6 222.5 146 282.8 154.4"/>
    <polygon class="st7" points="222.6 145.1 222.9 143.7 283 151.8 282.9 152.6 282.9 153.3 222.6 145.1"/>
    <polyline class="st7" points="222.2 146.6 221.2 146.5 220.8 153"/>
    <polyline class="st7" points="222.7 144.4 221.7 144.2 221.5 146.4"/>
    <line class="st7" x1="222.2" y1="147.6" x2="222" y2="150.7"/>
    <polyline class="st7" points="274.9 166.5 283.5 167.6 283.9 165.3 284.9 164.7 284.2 163.6 283.5 163.6 283.2 162.7 281.6 162.6 282.7 156"/>
    <polyline class="st7" points="282.9 152.6 283.9 152.7 283.6 154.8"/>
    <polyline class="st7" points="282.9 155.1 283.9 155.2 283.1 160"/>
    <polygon class="st7" points="280.1 185.8 280 187.6 215.9 178.5 216.2 176.7 280.1 185.8"/>
    <polygon class="st7" points="216.4 175.8 216.7 174.2 280.3 183.1 280.3 183.9 280.2 184.7 216.4 175.8"/>
    <polyline class="st7" points="215.9 177.4 214.8 177.3 213.9 186.5 215.1 186.7"/>
    <polyline class="st7" points="216.4 175 215.4 174.8 215.2 177.2"/>
    <polyline class="st7" points="253.9 194 215.1 187.8 215.9 178.5"/>
    <line class="st7" x1="280" y1="187.6" x2="278.6" y2="196.5"/>
    <polyline class="st7" points="280.3 183.9 281.2 184 280.9 186.3"/>
    <polyline class="st7" points="280.2 186.5 281.2 186.7 280.1 194.6"/>
    <polygon class="st7" points="266.1 155.1 231.7 150.4 230.6 156.4 222.4 155.3 220 166.5 228.5 167.8 227.3 174 263.5 179.2 264.2 173.1 272.9 174.4 274.1 162.5 265.5 161.3 266.1 155.1"/>
    <path class="st7" d="M210.5,191c1.2-2.6,2.4-2.2,2.4-2.2l-.7,1.1c-2.7,1.2-2.1,6.4-2.1,6.4l10.5,1.7s2.5-4-.4-6.9v-1.3s2.1.8,1.7,3.4"/>
    <path class="st7" d="M218.6,195.8c.8-.5,1.3-1.2,1.5-2,.3-1.8-1.4-3.6-3.8-3.9s-4.6.8-4.9,2.6c-.1.8.1,1.6.7,2.2l6.5,1.2h0Z"/>
    <path class="st7" d="M211.7,191.1c.1-.9.7-1.6,1.6-2.1.9-.5,2.1-.7,3.3-.5,1.2.2,2.2.7,2.9,1.4s1,1.6.9,2.5"/>
    <ellipse class="st7" cx="224.3" cy="153.2" rx="1.8" ry="1.1"/>
    <line class="st7" x1="222.5" y1="154.6" x2="222.5" y2="153.2"/>
    <line class="st7" x1="226" y1="155.1" x2="226" y2="153.5"/>
    <ellipse class="st7" cx="220.4" cy="171.3" rx="1.8" ry="1.1"/>
    <line class="st7" x1="218.6" y1="172.7" x2="218.7" y2="171.3"/>
    <line class="st7" x1="222.2" y1="173.2" x2="222.2" y2="171.5"/>
    <ellipse class="st7" cx="270.9" cy="179" rx="1.8" ry="1.1"/>
    <line class="st7" x1="269.1" y1="180.2" x2="269.1" y2="179"/>
    <line class="st7" x1="272.6" y1="180.4" x2="272.6" y2="179.3"/>
    <ellipse class="st7" cx="272.7" cy="160" rx="1.8" ry="1.1"/>
    <line class="st7" x1="270.9" y1="161.3" x2="270.9" y2="160"/>
    <line class="st7" x1="274.5" y1="161.8" x2="274.5" y2="160.3"/>
    <path class="st7" d="M266.7,154.6h.9c0,.1.5.7.5.7,0,0-1,2.8,2.6,3.9"/>
    <path class="st7" d="M226.2,152.7s3.5,1.4,3.7-2.8l.5-.2h1"/>
    <path class="st7" d="M220.6,160.7s.5-8.2.8-9.1.8-.5,1.6-1.4,4.1-.3,4.7.5.4,2.2-.4,5.1"/>
    <path class="st7" d="M268.4,161.6s.9-.5,1.2-2.3.3-2.9,1.9-2.8,5,.4,4.8,3.4-2.1,6.4-2.7,7.4"/>
    <line class="st7" x1="220" y1="166.5" x2="219.7" y2="170"/>
    <line class="st7" x1="272.9" y1="174.4" x2="272.5" y2="178.4"/>
    <path class="st7" d="M217.7,174.2s-.2-1.8,1.6-1.4,2.7.5,3.4.4.5,1.7.5,1.7"/>
    <path class="st7" d="M266.6,180.9s0-1.4,1.4-.9,3.8.9,5,.6.7,1.2.7,1.2"/>
    <path class="st7" d="M231.5,223c-4.3-.6-3.2-4.5-3.2-4.5,0,0-.3,1.2.7-2.4s-2.2-4.2-2.2-4.2c0,0-1.2-.3-4.5-.6-3.3-.3-2.7-3.2-2.7-3.2l3.5-17.1,28.4,4.2s.7-.4,3.2-1.1c2.5-.8,4.7,0,4.7,0l48.9,7.6"/>
    <line class="st7" x1="281.2" y1="188.3" x2="308.7" y2="192.7"/>
    <polyline class="st7" points="313.6 122.2 338.8 125.4 338.7 125.9 334.4 126.6 334.4 125.4"/>
    <path class="st7" d="M338.7,125.9l-1.8,7.5s0,.8-1.2.9-3.4.4-3.4.4l2.1-8"/>
    <path class="st7" d="M319.9,132.4l3.7.5c1.5,0,1.6-.7,1.6-.7l2.1-6.3c.4-.9,1.9-.5,1.9-.5,0,0,2.8.4,4-.5"/>
    <path class="st7" d="M315.4,133.3l8.2.9s1.9.4,2.4-1.6,1.5-4.9,1.5-4.9c0,0,.2-1,1.7-.8,2.1.2,3.4.4,3.4.4h.9s.2-2.5.2-2.5"/>
    <path class="st7" d="M333.1,128.1l-1.8,7.5-2.6-.2s.1,1.7-.6,1.9l-9.2-1.1"/>
    <path class="st7" d="M315.2,139.3l2.4.3s1-.6,1-4l-3.1-.5"/>
    <path class="st7" d="M315.7,128.8l4.2.6s.5,2.6-.5,4.3"/>
    <ellipse class="st7" cx="320" cy="125.6" rx="1.4" ry="1.1"/>
    <path class="st7" d="M313.7,230l8.2.7v4.3c0,0-.2.7-.2.7h-.6v-.8s-.6-2.4-3.2-2.6-4.3-.2-4.3-.2"/>
    <line class="st7" x1="321.6" y1="235.7" x2="320.1" y2="240.6"/>
    <polyline class="st7" points="253.5 194.5 253.9 195.7 308.4 204.1"/>
    <line class="st7" x1="255.4" y1="209.4" x2="280.8" y2="213.3"/>
    <line class="st7" x1="255.6" y1="208.4" x2="281" y2="212.4"/>
    <line class="st7" x1="255.7" y1="207.5" x2="281.1" y2="211.4"/>
    <line class="st7" x1="255.9" y1="206.5" x2="281.3" y2="210.4"/>
    <line class="st7" x1="261.9" y1="206.4" x2="275.3" y2="208.5"/>
    <line class="st7" x1="262" y1="205.6" x2="275.4" y2="207.7"/>
    <line class="st7" x1="262.1" y1="204.9" x2="275.5" y2="206.9"/>
    <line class="st7" x1="262.2" y1="204.1" x2="275.6" y2="206.2"/>
    <line class="st7" x1="255.9" y1="202.5" x2="252.9" y2="226"/>
    <line class="st7" x1="254" y1="220.8" x2="279.9" y2="224.9"/>
    <polyline class="st7" points="200 253.5 200.4 250.5 312.1 269.4 314.9 268.1 315 249.7"/>
    <path class="st7" d="M314.6,236.7v11c.1,0,.4,2.3-2,1.9l-14.7-2.1-1,17.1,14.6,2.5s2.5.2,2.5,1.1"/>
    <path class="st7" d="M206.4,220.2l-3.2-.5-6.4,29.8s1.3,1.2,3.5,0l6.2-29.3,1.7-1.1,104.9,17.1,5.3,1.1,1.8,3.3-.2,1.4h-.7l-1.7-3.1-2.6-.5"/>
    <path class="st7" d="M219.5,199.2l-1.9,9s-2,4.6,4.5,5.5c0,0,7-.3,6.1,3.9"/>
    <polygon class="st7" points="181.6 203.5 181.9 202.3 172.5 200.7 172.1 201.8 181.6 203.5"/>
    <polygon class="st7" points="181.4 204.3 181.1 205.6 171.5 203.9 171.9 202.7 181.4 204.3"/>
    <polygon class="st7" points="187.6 180.2 187.9 179 178.8 177.4 178.4 178.6 187.6 180.2"/>
    <polygon class="st7" points="187.4 181 187 182.3 177.9 180.6 178.2 179.4 187.4 181"/>
    <polygon class="st7" points="193.4 159.1 193.7 157.9 184.6 156.5 184.3 157.6 193.4 159.1"/>
    <polygon class="st7" points="193.2 159.8 192.9 160.9 183.7 159.4 184 158.3 193.2 159.8"/>
    <polygon class="st7" points="198.6 139.4 198.9 138.4 190.3 137.2 190 138.1 198.6 139.4"/>
    <polygon class="st7" points="198.3 140.2 198 141.1 189.4 139.9 189.7 139 198.3 140.2"/>
    <polygon class="st7" points="203.1 121.5 203.4 120.5 195.4 119.3 195.1 120.2 203.1 121.5"/>
    <polygon class="st7" points="202.8 122.2 202.5 123.1 194.5 122 194.7 121.1 202.8 122.2"/>
    <path class="st7" d="M160.5,184.7s-.4-1.5.4-4,3-7.5,3-7.5"/>
    <path class="st7" d="M167,163.7s-.2-1.4.8-4.3,2.4-6.1,2.4-6.1"/>
    <path class="st7" d="M173.9,143.6s-.6-.2.2-2.8,2.3-6.9,2.3-6.9"/>
    <path class="st7" d="M179.5,125.3s-.3-.9.5-3.3,2.1-6.2,2.1-6.2"/>
    <path class="st7" d="M195.7,149.2l-6.5-.9.5-2.7-6.7-1c-.8,1.2-.5,2.9-.5,2.9l-1.2-.2"/>
    <line class="st7" x1="188.4" y1="110.5" x2="189" y2="108.6"/>
    <line class="st7" x1="182.8" y1="109.9" x2="183.4" y2="108"/>
    <polyline class="st7" points="281.7 197.3 283.3 195.4 284.9 196.1 286.3 194.8 286.3 192.6 284 192.1 283.9 194.2 285.9 194.7"/>
    <polyline class="st7" points="280.3 193.3 282.1 193.5 284 192.1"/>
    <polyline class="st7" points="283.9 194.2 282.5 195.1 279.3 194.5"/>
    <polygon class="st7" points="284 189.4 286.4 189.9 286.4 191.9 283.8 191.3 284 189.4"/>
    <polyline class="st7" points="283.5 191.5 282.2 192.3 280.7 192.1"/>
    <polyline class="st7" points="281.1 190.3 282.3 190.5 284 189.4"/>
    <polyline class="st7" points="214.2 180.8 211.3 179.6 211.8 177.8 214.5 178.8"/>
    <polyline class="st7" points="211.3 178.6 209.1 178.4 208.6 180.4 210.8 180.6 211.3 179.6"/>
    <polyline class="st7" points="214 183.6 210.9 182.4 211.4 180.9 214.3 181.9"/>
    <polyline class="st7" points="210.8 182.8 210.3 183.5 208.3 183.2 208.6 181.5 210.6 181.6 211.4 180.9"/>
    <polyline class="st7" points="211.8 188.4 212 187 210.6 184.5 211.7 183"/>
    <line class="st7" x1="208.3" y1="183.2" x2="209" y2="184.4"/>
    <line class="st7" x1="248.9" y1="221" x2="251.8" y2="198.7"/>
    <polygon class="st7" points="252.7 198.4 253 196.7 251.6 195.7 251.4 197 252.7 198.4"/>
    <polygon class="st7" points="249.6 221.9 249.4 223.9 247.9 222.7 248.1 220.7 249.6 221.9"/>
    <polyline class="st7" points="247.9 222.7 244.9 222.3 245.4 220.3 248.1 220.7"/>
    <polyline class="st7" points="251.4 197 248.9 196.8 249.2 195.4 251.6 195.7"/>
    <polyline class="st7" points="248.9 196.8 248.9 198.4 251 198.6"/>
    <polyline class="st7" points="244.9 222.3 244.9 223.8 247.9 224.2"/>
    <path class="st7" d="M237,211.5c-.4,1.1-.7,4.1-.7,4.1,0,0,.3.7,2.1.3,0,0,.4-2.9.1-4"/>
    <ellipse class="st6" cx="237.8" cy="211.7" rx=".5" ry=".7" transform="translate(-1.7 421.4) rotate(-82.9)"/>
    <path class="st7" d="M229.1,193.2c-.4,1.1-.5,3-.5,3,0,0,.3.7,2.1.3,0,0,.2-1.9,0-3"/>
    <ellipse class="st6" cx="229.9" cy="193.3" rx=".5" ry=".7" transform="translate(9.6 397.5) rotate(-82.9)"/>
    <ellipse class="st7" cx="225" cy="194.4" rx="1.2" ry=".8"/>
    <ellipse class="st7" cx="240.3" cy="196.8" rx="1.2" ry=".8"/>
    <ellipse class="st10" cx="237" cy="131.9" rx=".6" ry=".9" transform="translate(77.5 351.2) rotate(-83.1)"/>
    <ellipse class="st10" cx="236" cy="142.2" rx=".6" ry=".9" transform="translate(66.3 359.3) rotate(-83.1)"/>
    <ellipse class="st10" cx="250.5" cy="133.6" rx=".6" ry=".9" transform="translate(87.6 366.2) rotate(-83.1)"/>
    <ellipse class="st7" cx="223.2" cy="207.9" rx="1.2" ry=".8"/>
    <ellipse class="st7" cx="236.7" cy="219.7" rx="1.2" ry=".8"/>
    <line class="st7" x1="281.5" y1="226.1" x2="305.6" y2="229.5"/>
    <line class="st7" x1="282.4" y1="216.8" x2="305.7" y2="220.2"/>
    <polyline class="st7" points="306 210.1 253.5 201.9 252.6 200.8 251.7 200.6"/>
    <line class="st7" x1="186.8" y1="228.4" x2="184.6" y2="236.8"/>
    <ellipse class="st5" cx="125.4" cy="248.3" rx="1.3" ry="2.4" transform="translate(-148.1 298.8) rotate(-73.7)"/>
    <polyline class="st7" points="220.8 148.4 218.4 147.7 218.1 149.2 220.7 150"/>
    <polyline class="st7" points="220.5 151.1 218.1 150.3 217.8 151.9 220.4 152.7"/>
    <polyline class="st7" points="218.1 148.3 215.8 148.2 215.5 149.9 217.8 149.9 218.1 149.2"/>
    <polyline class="st7" points="217.7 150.8 215.4 150.8 215.1 152.5 217.4 152.4 217.7 151.8"/>
    <polyline class="st7" points="215.1 152.5 215.8 153.7 217.2 153.8"/>
    <polyline class="st7" points="217.6 153 217.2 153.8 218.4 155.9 220.8 156.2"/>
    <polyline class="st7" points="218.7 156 218.4 158.3 220.6 158.6"/>
    <line class="st7" x1="214.1" y1="198.9" x2="213.4" y2="202.1"/>
    <line class="st7" x1="211.7" y1="200" x2="215.8" y2="200.7"/>
    <line class="st7" x1="216" y1="191.5" x2="215.6" y2="193.8"/>
    <line class="st7" x1="214.4" y1="192.4" x2="217.2" y2="192.9"/>
    <polyline class="st7" points="193.1 235.6 188.9 235.1 188.8 236.9 187.7 236.8 183.4 253.8"/>
    <path class="st7" d="M186.2,229.2l-20.3-3.1s-.8,0-1.5-.7-.8-.9-2.2-1-3.9-.5-5-.7-1-.3-2.4.2-4-.4-4-.4c0,0,.4-1.9-.5-1.9"/>
    <polyline class="st7" points="166.9 221.8 171.5 222.5 171.6 220 176.2 220.6"/>
    <line class="st7" x1="190.6" y1="224.8" x2="202.1" y2="223.6"/>
    <line class="st7" x1="196.1" y1="220.4" x2="202.6" y2="221.3"/>
    <ellipse class="st1" cx="278.4" cy="206.8" rx=".9" ry="1.4" transform="translate(40.7 459.3) rotate(-83.3)"/>
    <path class="st13" d="M279.4,207.7c0,.4-.5.8-1.1.8s-1.2-.3-1.2-.8"/>
    <path class="st13" d="M279.3,208.5c0,.4-.5.8-1.1.8s-1.2-.3-1.2-.8"/>
    <ellipse class="st12" cx="276.4" cy="228.8" rx="1" ry="1.6" transform="translate(17.1 476.8) rotate(-83.3)"/>
    <path class="st12" d="M255.2,225.6c0-.6.8-1,1.7-.9s1.5.6,1.4,1.2-.8,1-1.7.9-1.5-.6-1.4-1.2Z"/>
    <ellipse class="st1" cx="259.3" cy="204" rx=".9" ry="1.4" transform="translate(26.7 437.9) rotate(-83.3)"/>
    <path class="st13" d="M260.3,204.9c0,.4-.5.8-1.1.8s-1.2-.3-1.2-.8"/>
    <path class="st13" d="M260.2,205.7c0,.4-.5.8-1.1.8s-1.2-.3-1.2-.8"/>
    <line class="st7" x1="253.8" y1="221.7" x2="279.7" y2="225.8"/>
    <line class="st7" x1="253.7" y1="222.5" x2="279.6" y2="226.6"/>
    <line class="st7" x1="253.5" y1="223.3" x2="279.4" y2="227.4"/>
    <line class="st7" x1="253.3" y1="224.1" x2="279.2" y2="228.2"/>
    <line class="st7" x1="259.8" y1="226" x2="273.6" y2="228.1"/>
    <line class="st7" x1="259.6" y1="226.8" x2="273.6" y2="229"/>
    <path class="st7" d="M306.1,205.7l-.6,27.9s0,.9.4,1.2"/>
    <polyline class="st7" points="305.4 232.7 280.4 229 282.1 208.5 282.8 207.6 281.4 225.8 280.4 229"/>
    <line class="st7" x1="282.9" y1="207.5" x2="305.9" y2="211.1"/>
    <path class="st7" d="M81.8,166.4l4.8-5.4-3.1-7.2-2.2-1.7h-1l-1.7,1.6-.6.2-3.8-2.7,1.9-2.4-.2-.7s-35.5-24.6-36.3-25.2-1.1,0-1.1,0l-7.2,8.7-1.4,2.2"/>
    <polyline class="st7" points="31.6 132.1 76.3 161.7 83.1 154.4"/>
    <line class="st7" x1="46.9" y1="127.7" x2="56.3" y2="111.8"/>
    <line class="st7" x1="61.8" y1="138.3" x2="71" y2="122.1"/>
    <ellipse class="st3" cx="286" cy="131.6" rx=".8" ry="1.2" transform="translate(132 406.2) rotate(-85.4)"/>
    <polyline class="st2" points="261 131.3 285.1 134.5 285.7 134.3 285.9 132.4"/>
    <line class="st7" x1="289" y1="122.7" x2="287.6" y2="130.8"/>
    <line class="st7" x1="297.4" y1="134.3" x2="310.1" y2="136.1"/>
    <polyline class="st7" points="286.8 132.6 287.7 133 294.6 133.9"/>
    <ellipse class="st9" cx="296.6" cy="131" rx=".7" ry="1.1" transform="translate(122.2 404.3) rotate(-81.3)"/>
    <path class="st8" d="M295.5,130.8l-1.3,6.2c0,.4.4.8,1,.9s1.1-.1,1.2-.5l1.3-6.2"/>
    <polyline class="st7" points="275.1 164.7 280.9 165.4 281.6 162.6"/>
    <polyline class="st7" points="282 161.2 286.1 161.1 286.2 159.4 283.9 159.4 283.8 160.5"/>
    <polyline class="st7" points="286.2 161.3 286.2 162.1 288.5 162.5 288.4 160.7 286.5 160.4"/>
    <polyline class="st7" points="288.5 162.5 287.3 164 286.2 163.3 284.9 164.4"/>
    <polyline class="st7" points="283.5 158.9 286.5 158.6 286.5 157 284.3 157.3 284.1 158.3"/>
    <polyline class="st7" points="286.8 158 288.7 158.4 288.6 160 286.6 159.6 286.5 158.6"/>
    <line class="st7" x1="288.4" y1="160.7" x2="288.6" y2="160"/>
    <line class="st7" x1="284.1" y1="157.6" x2="283.7" y2="157.7"/>
    <line class="st7" x1="283.8" y1="159.7" x2="283.3" y2="159.7"/>
    <line class="st7" x1="296.3" y1="161.7" x2="309.1" y2="163.8"/>
    <line class="st7" x1="289" y1="160.6" x2="292.4" y2="161.1"/>
    <ellipse class="st4" cx="294.2" cy="162" rx=".9" ry="1.4" transform="translate(101 436.8) rotate(-83.7)"/>
    <ellipse class="st11" cx="257.2" cy="126.9" rx=".6" ry="1" transform="translate(103 368.7) rotate(-83.7)"/>
    <ellipse class="st4" cx="291.5" cy="205.1" rx=".9" ry="1.4" transform="translate(55.8 472.5) rotate(-83.7)"/>
  </g>
  <g id="b">
    <path class="st22" d="M241.2,57.3s-9.1-22,9.6-29c0,0,13.1-7.3,26.2,11.6l-3.8,4.3s7.6,20.2-2.3,28.3l-.3,5.6-3.8-2.3.3-4-22.5-11.4v2.5l-4-.8.5-4.8h0Z"/>
    <path class="st22" d="M324.9,78.5s-28.2-23.2-18.6-31.8l4.2-4s9.5-3.6,23.2,8.5c11.5,10.1,15.2,19.8,15.2,19.8,0,0,2.3,17.9-10.3,15.1l-13.6-7.6h0Z"/>
    <path class="st20" d="M368.3,33.3c0,7.6-6.2,13.7-14,13.7s-14-6.2-14-13.7,6.2-13.8,14-13.8,14,6.2,14,13.8"/>
    <rect class="st0" x="341.1" y="25.3" width="27.2" height="24.8"/>
    <path class="st21" d="M359.4,38.6v1.8h-9.9c0-.4,0-.9.2-1.3.3-.7.7-1.3,1.2-2,.6-.7,1.4-1.4,2.4-2.3,1.6-1.3,2.7-2.4,3.3-3.2s.9-1.5.9-2.2-.3-1.3-.8-1.9c-.5-.5-1.2-.8-2-.8s-1.6.3-2.1.8-.8,1.3-.8,2.2l-1.9-.2c.1-1.4.6-2.5,1.5-3.2.8-.7,2-1.1,3.4-1.1s2.6.4,3.4,1.2,1.3,1.8,1.3,3-.1,1.2-.4,1.8-.7,1.2-1.2,1.8c-.6.6-1.5,1.5-2.8,2.6-1.1.9-1.8,1.6-2.1,1.9s-.6.7-.8,1h7.4Z"/>
    <path class="st20" d="M241,16.4c0,7.6-6.2,13.7-13.9,13.7s-14-6.2-14-13.7,6.2-13.8,14-13.8,13.9,6.2,13.9,13.8"/>
    <rect class="st0" x="213" y="8.4" width="27.2" height="24.8"/>
    <path class="st21" d="M228.6,23.5h-1.8v-11.8c-.4.4-1,.8-1.7,1.3s-1.4.7-1.9,1v-1.8c1-.5,1.9-1.1,2.7-1.8s1.3-1.4,1.6-2h1.2v15.1h0Z"/>
    <path class="st17" d="M276.9,85.2l.7-19.4c1.1-4,.5-11.4-.6-15.2s-.1-6.9-.1-6.9c4.5-4,6.7-.3,6.7-.3,4.1,5.5,3.8,15.8,3.8,15.8l-1.1,21.4-9.5,5.6-41.7-22.5.7-17.3c-.4-13.1,10.4-19.8,10.4-19.8l2.8-1.6s.6-.2,1.8,0l1.8,1.4"/>
    <path class="st18" d="M270.8,73c10.5-10.3,2.8-27.6,2.8-27.6-7.6-18.3-22.2-16.7-22.2-16.7-20,4.4-10,28.4-10,28.4v5s3.5,1.9,3.5,1.9v-3.6c0,0,22.7,12.1,22.7,12.1v3.9c-.1,0,3.4,1.8,3.4,1.8l-.2-5.2h0Z"/>
    <path class="st17" d="M273.7,43.9s0-1,1.3-1.6,3.5-1.8,3.5-1.8c0,0,2.2.4,3.3,1.4"/>
    <path class="st17" d="M246,30.4s6.8-5.9,15.8-3.2,15.2,13.2,15.2,13.2"/>
    <polygon class="st18" points="252.1 66.4 259.9 70.6 259.6 74.5 252 70.5 252.1 66.4"/>
    <line class="st14" x1="257.3" y1="40.2" x2="256.2" y2="57.7"/>
    <line class="st14" x1="248.5" y1="44.5" x2="264.8" y2="53.1"/>
    <path class="st19" d="M277.4,25.8l7.3,2.4s.4-19-12.7-18c-12.1,1-14.8,5.5-14.8,5.5l2.6,3.2-11.5-.5,1.3-12.6,3,3.1c-1.7,1,18-8.3,24.5,2.8,3.3,7.5.3,14.1.3,14.1h0Z"/>
    <path class="st18" d="M350,101.5l9.4-5,1-20.7s1.1-13.3-4.7-17.4c0,0-2.4-2.3-5.1,0s-1.1,5.9-1.1,5.9c0,0,3.2,8.5,1.9,16.1l-1.4,21.2h0Z"/>
    <polyline class="st18" points="350 101.5 308 79.2 308.8 63.5"/>
    <path class="st18" d="M354.1,57.1l-2-1.6-5,2.7s-1.6,1.8.1,6.1c1.7,4.3,4.5,19.2-3.7,24v4.3l-2.1-.9v-3.7c-.1,0-23.2-12.8-23.2-12.8l-.6,3.5-2.7-1.8s.1-1.8.9-3.4c0,0-2.6-3.2-2.7-5.1"/>
    <path class="st18" d="M306.1,46.9l4.7-4.2s7.3-3.6,19.2,5.7c9.5,7.4,16.3,14.4,18.9,23.4"/>
    <path class="st18" d="M338,85.6c7.1.3,7.5-3.8,7.5-3.8.2-11.2-16.4-25.3-16.4-25.3-18.9-16.7-24.2-8.3-24.2-8.3,0,0-3.8,5.7,9.3,20.1l10.8,10.5"/>
    <polygon class="st18" points="325.1 81.5 333.3 85.9 333.1 89.9 325.2 85.8 325.1 81.5"/>
    <line class="st14" x1="322.2" y1="59.4" x2="324.9" y2="71.3"/>
    <line class="st14" x1="316.5" y1="61.9" x2="330.4" y2="68.5"/>
    <polyline points="314.3 22.7 322.5 40.2 335.4 45.8 327.2 28.4 331.6 30.4 316.3 16.7 309.9 20.8 314.3 22.7"/>
    <line class="st16" x1="288.4" y1="99.4" x2="221.8" y2="186.6"/>
    <line class="st15" x1="288.4" y1="99.4" x2="221.8" y2="186.6"/>
    <polyline class="st15" points="252.4 79.4 252.4 99.2 323.4 99.2 323.4 93.4"/>
  </g>
</svg>