<?xml version="1.0" encoding="UTF-8"?><svg xmlns="http://www.w3.org/2000/svg" width="4.88in" height="2.44in" viewBox="0 0 351.5 175.59"><g id="a"><line x1="18.23" y1="76.73" x2="19.54" y2="93.47" fill="none" stroke="#231f20" stroke-linecap="round" stroke-linejoin="round" stroke-width=".5"/><polyline points="15.66 43.43 307.82 75.09 323.73 49.24 320.32 48.95 320.97 47.92 87.5 29.11 84.63 29.68 79.39 29.27 15.66 43.43 17.25 63.56" fill="none" stroke="#231f20" stroke-linecap="round" stroke-linejoin="round" stroke-width=".5"/><polyline points="304.04 93.72 240.28 86.22 239.59 67.89" fill="none" stroke="#231f20" stroke-linecap="round" stroke-linejoin="round" stroke-width=".5"/><polyline points="167.51 76.45 124.1 71.39 120.78 54.88" fill="none" stroke="#231f20" stroke-linecap="round" stroke-linejoin="round" stroke-width=".5"/><polyline points="112 69.97 74.17 65.15 70.91 49.26" fill="none" stroke="#231f20" stroke-linecap="round" stroke-linejoin="round" stroke-width=".5"/><polyline points="61.75 63.56 29.7 59.48 25.72 44.14" fill="none" stroke="#231f20" stroke-linecap="round" stroke-linejoin="round" stroke-width=".5"/><path d="m60.76,82.66l46.96,7.01c-1.28-7.52-.52-13.63-.52-13.63l-46.66-6.27s-1.71,3.78.21,12.89Z" fill="none" stroke="#231f20" stroke-linecap="round" stroke-linejoin="round" stroke-width=".5"/><path d="m62.46,68.2l-4.95,1.65-41.64-5.59s-1.98,5.24.29,12.22l41.87,6.25,2.39-1.28" fill="none" stroke="#231f20" stroke-linecap="round" stroke-linejoin="round" stroke-width=".5"/><path d="m161.89,98.5l-51.21-7.54c-2.17-8.54-.12-13.63-.12-13.63l51.39,6.97s.74.17.64,1.37-.72,9.18.05,11.39c0,0-.15,1.05-.75,1.44Z" fill="none" stroke="#231f20" stroke-linecap="round" stroke-linejoin="round" stroke-width=".5"/><path d="m299.72,119.44l-67.67-10.37c-1.19-10.56.81-15.3.81-15.3l67.92,9.5s.79.1.75,1.38-1.01,13.96-1.01,13.96c0,0-.04.84-.79.83Z" fill="none" stroke="#231f20" stroke-linecap="round" stroke-linejoin="round" stroke-width=".5"/><path d="m248.29,111.5s-.58-6.5.68-15.54" fill="none" stroke="#231f20" stroke-linecap="round" stroke-linejoin="round" stroke-width=".5"/><line x1="232.87" y1="93.68" x2="240.98" y2="86.34" fill="none" stroke="#231f20" stroke-linecap="round" stroke-linejoin="round" stroke-width=".5"/><polyline points="234.15 92.85 295.62 100.87 300.15 93.3" fill="none" stroke="#231f20" stroke-linecap="round" stroke-linejoin="round" stroke-width=".5"/><polyline points="255.64 95.39 261.89 88.99 261.83 96.48" fill="none" stroke="#231f20" stroke-linecap="round" stroke-linejoin="round" stroke-width=".5"/><path d="m219.14,121.34l.4,6.58,64.28,11.74,1.56-.46,10.43,1.7s5.42.42,5.83-1.85l-.5-1.81,3.79-53.13.94-1.55.38-7.66" fill="none" stroke="#231f20" stroke-linecap="round" stroke-linejoin="round" stroke-width=".5"/><line x1="301.3" y1="103.49" x2="303.78" y2="99.54" fill="none" stroke="#231f20" stroke-linecap="round" stroke-linejoin="round" stroke-width=".5"/><line x1="300.53" y1="118.83" x2="302.33" y2="115.81" fill="none" stroke="#231f20" stroke-linecap="round" stroke-linejoin="round" stroke-width=".5"/><path d="m63.38,95.5l-33.97-5.58s-.84.16-.74-1.31.99-10.07.99-10.07" fill="none" stroke="#231f20" stroke-linecap="round" stroke-linejoin="round" stroke-width=".5"/><path d="m112.6,103.58l-38.68-6.35s-1.31.34-1.11-1.64,1.09-10.86,1.09-10.86" fill="none" stroke="#231f20" stroke-linecap="round" stroke-linejoin="round" stroke-width=".5"/><path d="m167.64,112.38l-43.54-7.21s-1.74.03-1.55-1.8c.21-2.08,1.27-10.46,1.27-10.46" fill="none" stroke="#231f20" stroke-linecap="round" stroke-linejoin="round" stroke-width=".5"/><path d="m301.24,134.58l-61.01-10.11s-2.4-.36-2.17-2.23,1.11-12.02,1.11-12.02" fill="none" stroke="#231f20" stroke-linecap="round" stroke-linejoin="round" stroke-width=".5"/><path d="m123.5,79.15s-1.25,6.02.16,13.71" fill="none" stroke="#231f20" stroke-linecap="round" stroke-linejoin="round" stroke-width=".5"/><polyline points="124.1 71.39 114.83 75.41 114.07 75.76 112.23 76.62 111.8 53.8" fill="none" stroke="#231f20" stroke-linecap="round" stroke-linejoin="round" stroke-width=".5"/><polyline points="113.08 76.47 130.18 78.88 159.9 82.58 167.39 78.32" fill="none" stroke="#231f20" stroke-linecap="round" stroke-linejoin="round" stroke-width=".5"/><polyline points="129.73 78.66 140.69 73.44 140.79 80.06" fill="none" stroke="#231f20" stroke-linecap="round" stroke-linejoin="round" stroke-width=".5"/><line x1="107.32" y1="76.14" x2="112.02" y2="74.09" fill="none" stroke="#231f20" stroke-linecap="round" stroke-linejoin="round" stroke-width=".5"/><polyline points="111.9 71.96 105.44 74.58 62.51 69.07 74.17 65.15" fill="none" stroke="#231f20" stroke-linecap="round" stroke-linejoin="round" stroke-width=".5"/><polyline points="79.16 70.85 89.21 67.32 89.22 72.51" fill="none" stroke="#231f20" stroke-linecap="round" stroke-linejoin="round" stroke-width=".5"/><path d="m72.79,84.21s-1.83-4.26-.47-12.76" fill="none" stroke="#231f20" stroke-linecap="round" stroke-linejoin="round" stroke-width=".5"/><path d="m56.85,69.77s-.71,4.86.52,12.87" fill="none" stroke="#231f20" stroke-linecap="round" stroke-linejoin="round" stroke-width=".5"/><polyline points="31.34 64.89 43.2 61.4 43.38 66.34" fill="none" stroke="#231f20" stroke-linecap="round" stroke-linejoin="round" stroke-width=".5"/><polyline points="30.51 60.06 17.71 63.49 56.18 68.62 62.36 66.65" fill="none" stroke="#231f20" stroke-linecap="round" stroke-linejoin="round" stroke-width=".5"/><path d="m25.93,65.89s-1.22,5.22.79,12.05" fill="none" stroke="#231f20" stroke-linecap="round" stroke-linejoin="round" stroke-width=".5"/><path d="m16.49,64.33s.24-.55,1.16-.85" fill="none" stroke="#231f20" stroke-linecap="round" stroke-linejoin="round" stroke-width=".5"/><path d="m61.5,69.94s.38-.85,1.01-.87l-1.25-20.88-9.99,14.1-4.09,4.53" fill="none" stroke="#231f20" stroke-linecap="round" stroke-linejoin="round" stroke-width=".5"/><line x1="234.3" y1="91.16" x2="235.12" y2="67.74" fill="none" stroke="#231f20" stroke-linecap="round" stroke-linejoin="round" stroke-width=".5"/><line x1="232.97" y1="129.24" x2="233.68" y2="108.8" fill="none" stroke="#231f20" stroke-linecap="round" stroke-linejoin="round" stroke-width=".5"/><polyline points="252.88 136.06 220.75 130.83 220.24 128.32" fill="none" stroke="#231f20" stroke-linecap="round" stroke-linejoin="round" stroke-width=".5"/><polyline points="307.82 75.09 307.68 80.55 306.84 81.23 303.06 137.22 302.5 138.81 302.22 143.83 301.28 143.63 300.43 143.8 285.22 141.33" fill="none" stroke="#231f20" stroke-linecap="round" stroke-linejoin="round" stroke-width=".5"/><path d="m177.46,116.69l.25,3.18-.48.72s-1.28-.78-1.89.38c-.83,1.58-1.12,1.8-1.12,1.8l-67.07-11.55-.06-3.39,1.27-.62s1.99.58,2.75-.31c0,0-.86-.69,1.48-1.48" fill="none" stroke="#231f20" stroke-linecap="round" stroke-linejoin="round" stroke-width=".5"/><path d="m107.34,108.35l66.45,11.55s1.38.17,1.44-.74l-1.32-.54.39-.92,2.55-.33.61-.68-2.64-.51-2.47,2.4-62.4-10.55,2.81-1.16" fill="none" stroke="#231f20" stroke-linecap="round" stroke-linejoin="round" stroke-width=".5"/><line x1="121.92" y1="105.1" x2="115.5" y2="108.53" fill="none" stroke="#231f20" stroke-linecap="round" stroke-linejoin="round" stroke-width=".5"/><line x1="112.61" y1="91.19" x2="112.95" y2="108.55" fill="none" stroke="#231f20" stroke-linecap="round" stroke-linejoin="round" stroke-width=".5"/><line x1="115.04" y1="91.61" x2="115.39" y2="108.59" fill="none" stroke="#231f20" stroke-linecap="round" stroke-linejoin="round" stroke-width=".5"/><polyline points="63.08 83.15 63.42 99.82 65.86 100.29" fill="none" stroke="#231f20" stroke-linecap="round" stroke-linejoin="round" stroke-width=".5"/><polyline points="65.52 83.54 65.86 100.29 72.9 97.1" fill="none" stroke="#231f20" stroke-linecap="round" stroke-linejoin="round" stroke-width=".5"/><polyline points="20.1 93.72 69.88 102.02 82.71 98.88" fill="none" stroke="#231f20" stroke-linecap="round" stroke-linejoin="round" stroke-width=".5"/><polyline points="53.83 47.21 44.55 60.33 42.29 60.09 51.34 47.07" fill="none" stroke="#231f20" stroke-linecap="round" stroke-linejoin="round" stroke-width=".5"/><polyline points="46.26 46.49 37.49 59.57 39.75 59.81 48.68 46.79" fill="none" stroke="#231f20" stroke-linecap="round" stroke-linejoin="round" stroke-width=".5"/><polyline points="43.69 46.14 34.95 59.29 32.7 59 41.48 45.9" fill="none" stroke="#231f20" stroke-linecap="round" stroke-linejoin="round" stroke-width=".5"/><polyline points="36.32 45.3 29.88 55.17 30.6 58.11 38.9 45.51" fill="none" stroke="#231f20" stroke-linecap="round" stroke-linejoin="round" stroke-width=".5"/><polyline points="31.65 44.75 28.5 49.51 29.15 52.18 34.2 45.06" fill="none" stroke="#231f20" stroke-linecap="round" stroke-linejoin="round" stroke-width=".5"/><polyline points="27.24 44.36 27.73 46.36 29.14 44.5" fill="none" stroke="#231f20" stroke-linecap="round" stroke-linejoin="round" stroke-width=".5"/><polyline points="44.1 66.38 43.98 64.25 46.38 61.7 56.26 47.38" fill="none" stroke="#231f20" stroke-linecap="round" stroke-linejoin="round" stroke-width=".5"/><polyline points="44.62 66.55 48.87 62.05 59 47.8" fill="none" stroke="#231f20" stroke-linecap="round" stroke-linejoin="round" stroke-width=".5"/><polyline points="49.51 67.09 53.68 62.52 61.49 51.81" fill="none" stroke="#231f20" stroke-linecap="round" stroke-linejoin="round" stroke-width=".5"/><polyline points="52.15 67.48 56.09 62.98 61.53 55.46" fill="none" stroke="#231f20" stroke-linecap="round" stroke-linejoin="round" stroke-width=".5"/><polyline points="54.71 67.83 58.72 63.25 61.73 59.04" fill="none" stroke="#231f20" stroke-linecap="round" stroke-linejoin="round" stroke-width=".5"/><polyline points="57.86 67.16 61.17 63.49 61.96 62.4" fill="none" stroke="#231f20" stroke-linecap="round" stroke-linejoin="round" stroke-width=".5"/><line x1="64.64" y1="68.26" x2="63.34" y2="48.36" fill="none" stroke="#231f20" stroke-linecap="round" stroke-linejoin="round" stroke-width=".5"/><line x1="114.28" y1="54.05" x2="114.83" y2="75.41" fill="none" stroke="#231f20" stroke-linecap="round" stroke-linejoin="round" stroke-width=".5"/><polyline points="63.09 93.91 60.94 93.56 63.28 91.11" fill="none" stroke="#231f20" stroke-linecap="round" stroke-linejoin="round" stroke-width=".5"/><polyline points="63.13 85.49 56.17 92.78 58.27 93.13 63.13 88.2" fill="none" stroke="#231f20" stroke-linecap="round" stroke-linejoin="round" stroke-width=".5"/><polyline points="60.59 82.25 51.12 91.96 53.27 92.31 62.59 82.97" fill="none" stroke="#231f20" stroke-linecap="round" stroke-linejoin="round" stroke-width=".5"/><polyline points="55.04 82.29 46.35 91.19 48.25 91.5 57.22 82.65" fill="none" stroke="#231f20" stroke-linecap="round" stroke-linejoin="round" stroke-width=".5"/><polyline points="50.06 81.61 41.4 90.38 43.53 90.73 52.27 81.88" fill="none" stroke="#231f20" stroke-linecap="round" stroke-linejoin="round" stroke-width=".5"/><polyline points="45.43 80.86 36.91 89.65 39.11 90.01 47.43 81.19" fill="none" stroke="#231f20" stroke-linecap="round" stroke-linejoin="round" stroke-width=".5"/><polyline points="40.66 80.14 31.9 88.88 34.18 89.25 42.84 80.47" fill="none" stroke="#231f20" stroke-linecap="round" stroke-linejoin="round" stroke-width=".5"/><polyline points="35.74 79.43 30.38 84.46 30.1 86.98 37.89 79.7" fill="none" stroke="#231f20" stroke-linecap="round" stroke-linejoin="round" stroke-width=".5"/><polyline points="31.06 78.71 30.76 81.08 33.08 79.04" fill="none" stroke="#231f20" stroke-linecap="round" stroke-linejoin="round" stroke-width=".5"/><polyline points="101.88 52.8 90.55 66.23 88.1 65.9 98.9 52.33" fill="none" stroke="#231f20" stroke-linecap="round" stroke-linejoin="round" stroke-width=".5"/><polyline points="93.41 51.64 82.72 65.19 85.48 65.55 96.17 51.98" fill="none" stroke="#231f20" stroke-linecap="round" stroke-linejoin="round" stroke-width=".5"/><polyline points="87.89 51.03 77.38 64.48 80.1 64.84 90.65 51.37" fill="none" stroke="#231f20" stroke-linecap="round" stroke-linejoin="round" stroke-width=".5"/><polyline points="82.51 50.49 74.68 60.69 75.27 63.45 85.2 50.76" fill="none" stroke="#231f20" stroke-linecap="round" stroke-linejoin="round" stroke-width=".5"/><polyline points="77.17 49.92 73.42 54.81 74.06 57.81 79.93 50.15" fill="none" stroke="#231f20" stroke-linecap="round" stroke-linejoin="round" stroke-width=".5"/><polyline points="72.27 49.42 72.76 51.71 74.62 49.51" fill="none" stroke="#231f20" stroke-linecap="round" stroke-linejoin="round" stroke-width=".5"/><polyline points="112.68 101.65 108.83 101.05 112.65 97.09" fill="none" stroke="#231f20" stroke-linecap="round" stroke-linejoin="round" stroke-width=".5"/><polyline points="112.48 91.18 103.26 100.17 106.03 100.6 112.57 93.81" fill="none" stroke="#231f20" stroke-linecap="round" stroke-linejoin="round" stroke-width=".5"/><polyline points="110.03 88.11 107.63 89.67 97.75 99.3 100.23 99.69 110.46 89.93" fill="none" stroke="#231f20" stroke-linecap="round" stroke-linejoin="round" stroke-width=".5"/><polyline points="102.06 88.92 92.35 98.45 94.94 98.86 104.67 89.36" fill="none" stroke="#231f20" stroke-linecap="round" stroke-linejoin="round" stroke-width=".5"/><polyline points="96.69 88.1 87.15 97.63 89.61 98.02 98.94 88.54" fill="none" stroke="#231f20" stroke-linecap="round" stroke-linejoin="round" stroke-width=".5"/><polyline points="91.33 87.29 81.8 96.79 84.12 97.15 93.89 87.77" fill="none" stroke="#231f20" stroke-linecap="round" stroke-linejoin="round" stroke-width=".5"/><polyline points="86.04 86.6 76.43 95.94 78.95 96.34 88.56 86.92" fill="none" stroke="#231f20" stroke-linecap="round" stroke-linejoin="round" stroke-width=".5"/><polyline points="80.63 85.82 74.65 91.78 74.25 94.78 83.24 86.23" fill="none" stroke="#231f20" stroke-linecap="round" stroke-linejoin="round" stroke-width=".5"/><polyline points="75.54 85.14 75.15 88.04 77.99 85.38" fill="none" stroke="#231f20" stroke-linecap="round" stroke-linejoin="round" stroke-width=".5"/><polyline points="104.64 52.87 89.88 70.41 89.92 72.36" fill="none" stroke="#231f20" stroke-linecap="round" stroke-linejoin="round" stroke-width=".5"/><line x1="90.72" y1="72.55" x2="107.44" y2="53.21" fill="none" stroke="#231f20" stroke-linecap="round" stroke-linejoin="round" stroke-width=".5"/><polyline points="93.52 73.04 98.05 68.23 110.28 53.48" fill="none" stroke="#231f20" stroke-linecap="round" stroke-linejoin="round" stroke-width=".5"/><polyline points="96.17 73.39 100.74 68.61 111.73 55.35" fill="none" stroke="#231f20" stroke-linecap="round" stroke-linejoin="round" stroke-width=".5"/><polyline points="99 73.77 103.54 68.85 111.81 59.03" fill="none" stroke="#231f20" stroke-linecap="round" stroke-linejoin="round" stroke-width=".5"/><polyline points="101.47 73.99 106.26 69.22 111.96 62.45" fill="none" stroke="#231f20" stroke-linecap="round" stroke-linejoin="round" stroke-width=".5"/><polyline points="104.35 74.45 109.24 69.61 111.96 66.13" fill="none" stroke="#231f20" stroke-linecap="round" stroke-linejoin="round" stroke-width=".5"/><line x1="108.34" y1="73.45" x2="111.72" y2="70.13" fill="none" stroke="#231f20" stroke-linecap="round" stroke-linejoin="round" stroke-width=".5"/><polyline points="147.3 80.84 167.48 59.91 167.56 84.96" fill="none" stroke="#231f20" stroke-linecap="round" stroke-linejoin="round" stroke-width=".5"/><line x1="167.67" y1="118.17" x2="167.61" y2="99.68" fill="none" stroke="#231f20" stroke-linecap="round" stroke-linejoin="round" stroke-width=".5"/><polyline points="141.32 95.71 131.85 104.56 134.67 105.02 144.5 96.07" fill="none" stroke="#231f20" stroke-linecap="round" stroke-linejoin="round" stroke-width=".5"/><polyline points="147.79 96.54 137.88 105.54 140.65 105.99 150.54 96.94" fill="none" stroke="#231f20" stroke-linecap="round" stroke-linejoin="round" stroke-width=".5"/><polyline points="153.79 97.45 143.85 106.52 146.53 106.95 156.61 97.81" fill="none" stroke="#231f20" stroke-linecap="round" stroke-linejoin="round" stroke-width=".5"/><polyline points="159.9 98.28 149.96 107.51 152.61 107.94 165.15 96.83" fill="none" stroke="#231f20" stroke-linecap="round" stroke-linejoin="round" stroke-width=".5"/><polyline points="166.75 98.62 156.02 108.5 158.7 108.94 167.53 101.05" fill="none" stroke="#231f20" stroke-linecap="round" stroke-linejoin="round" stroke-width=".5"/><polyline points="167.58 104.32 161.96 109.47 164.8 109.93 167.58 107.53" fill="none" stroke="#231f20" stroke-linecap="round" stroke-linejoin="round" stroke-width=".5"/><polyline points="136.22 94.77 126.54 103.59 129.14 103.98 138.9 95.15" fill="none" stroke="#231f20" stroke-linecap="round" stroke-linejoin="round" stroke-width=".5"/><polyline points="130.72 94.03 124.52 99.4 124.02 102.5 133.19 94.33" fill="none" stroke="#231f20" stroke-linecap="round" stroke-linejoin="round" stroke-width=".5"/><polyline points="125.2 93.13 124.88 95.96 127.79 93.58" fill="none" stroke="#231f20" stroke-linecap="round" stroke-linejoin="round" stroke-width=".5"/><polyline points="283.19 72.74 263.65 87.97 260.25 87.59 279.39 72.17" fill="none" stroke="#231f20" stroke-linecap="round" stroke-linejoin="round" stroke-width=".5"/><polyline points="271.3 71.15 252.64 86.49 256.24 86.9 275.18 71.54" fill="none" stroke="#231f20" stroke-linecap="round" stroke-linejoin="round" stroke-width=".5"/><polyline points="263.49 70.3 244.91 85.7 248.57 86.12 267.05 70.72" fill="none" stroke="#231f20" stroke-linecap="round" stroke-linejoin="round" stroke-width=".5"/><polyline points="255.11 69.7 241.43 81.05 241.47 83.97 241.83 84.23 258.81 70.15" fill="none" stroke="#231f20" stroke-linecap="round" stroke-linejoin="round" stroke-width=".5"/><polyline points="247.71 68.89 241.32 74.12 241.38 77.76 251.38 69.21" fill="none" stroke="#231f20" stroke-linecap="round" stroke-linejoin="round" stroke-width=".5"/><polyline points="241.23 68.16 241.27 70.76 243.9 68.44" fill="none" stroke="#231f20" stroke-linecap="round" stroke-linejoin="round" stroke-width=".5"/><polyline points="287.72 73.05 266.93 89.41 262.94 92.4 263 95.76 270.35 89.97 291.52 73.53" fill="none" stroke="#231f20" stroke-linecap="round" stroke-linejoin="round" stroke-width=".5"/><polyline points="266.24 96.78 274.39 90.48 295.64 74.04" fill="none" stroke="#231f20" stroke-linecap="round" stroke-linejoin="round" stroke-width=".5"/><polyline points="269.54 97.32 277.94 90.91 299.68 74.36" fill="none" stroke="#231f20" stroke-linecap="round" stroke-linejoin="round" stroke-width=".5"/><polyline points="274.04 97.74 283.17 91.01 304.01 75.14 304.29 75.32 304.3 78.15 286.63 91.53 277.76 98.34" fill="none" stroke="#231f20" stroke-linecap="round" stroke-linejoin="round" stroke-width=".5"/><polyline points="289.77 99.9 297.14 94.44 297.23 97.6 293.55 100.5" fill="none" stroke="#231f20" stroke-linecap="round" stroke-linejoin="round" stroke-width=".5"/><polygon points="303.02 92.52 303.21 89.4 299.6 92.02 303.02 92.52" fill="none" stroke="#231f20" stroke-linecap="round" stroke-linejoin="round" stroke-width=".5"/><polyline points="285.33 99.42 294.49 92.33 303.93 85.32 304.12 82.19 290.9 91.8 281.55 98.94" fill="none" stroke="#231f20" stroke-linecap="round" stroke-linejoin="round" stroke-width=".5"/><polyline points="241.39 110.5 241.05 113.22 244.09 110.95" fill="none" stroke="#231f20" stroke-linecap="round" stroke-linejoin="round" stroke-width=".5"/><polyline points="247.82 111.52 240.65 117.24 240.3 120.76 251.1 112.08" fill="none" stroke="#231f20" stroke-linecap="round" stroke-linejoin="round" stroke-width=".5"/><polyline points="255.12 112.65 243.02 122.71 246.28 123.23 258.56 113.1" fill="none" stroke="#231f20" stroke-linecap="round" stroke-linejoin="round" stroke-width=".5"/><polyline points="262.63 113.72 250.15 123.85 253.69 124.41 266.14 114.29" fill="none" stroke="#231f20" stroke-linecap="round" stroke-linejoin="round" stroke-width=".5"/><polyline points="270.38 114.91 257.66 125.04 260.85 125.55 273.88 115.59" fill="none" stroke="#231f20" stroke-linecap="round" stroke-linejoin="round" stroke-width=".5"/><polyline points="278.18 116.15 264.96 126.2 268.35 126.74 281.74 116.77" fill="none" stroke="#231f20" stroke-linecap="round" stroke-linejoin="round" stroke-width=".5"/><polyline points="286.21 117.28 273.15 127.46 276.62 128.01 289.71 117.96" fill="none" stroke="#231f20" stroke-linecap="round" stroke-linejoin="round" stroke-width=".5"/><polyline points="294.06 118.58 280.84 128.97 284.35 129.53 297.62 119.26" fill="none" stroke="#231f20" stroke-linecap="round" stroke-linejoin="round" stroke-width=".5"/><polygon points="301.14 124.1 301.43 120.45 289.04 130.23 292.66 130.81 301.14 124.1" fill="none" stroke="#231f20" stroke-linecap="round" stroke-linejoin="round" stroke-width=".5"/><polygon points="300.96 128.44 300.67 132.06 297.19 131.5 300.96 128.44" fill="none" stroke="#231f20" stroke-linecap="round" stroke-linejoin="round" stroke-width=".5"/><line x1="20.68" y1="62.64" x2="20.47" y2="60.19" fill="none" stroke="#231f20" stroke-linecap="round" stroke-linejoin="round" stroke-width=".5"/><path d="m13.37,83.13l2.49-.83s-.96-1.66.7-1.47l2.37.29,2.52.63,3.09-1.11-.07-.88-1.65-.03-.15-2.26" fill="none" stroke="#231f20" stroke-linecap="round" stroke-linejoin="round" stroke-width=".5"/><line x1="7.97" y1="75.26" x2="7.91" y2="74.4" fill="none" stroke="#231f20" stroke-linecap="round" stroke-linejoin="round" stroke-width=".5"/><polygon points="2.2 61.63 9.64 62.66 11.18 62.17 4.33 61.18 2.2 61.63" fill="none" stroke="#231f20" stroke-linecap="round" stroke-linejoin="round" stroke-width=".5"/><line x1="2.98" y1="74.73" x2="2.2" y2="61.63" fill="none" stroke="#231f20" stroke-linecap="round" stroke-linejoin="round" stroke-width=".5"/><line x1="9.64" y1="62.66" x2="10.64" y2="77.1" fill="none" stroke="#231f20" stroke-linecap="round" stroke-linejoin="round" stroke-width=".5"/><path d="m11.18,62.17l1.32.27,7.96-2.25s1.99.19,1.78-1.08" fill="none" stroke="#231f20" stroke-linecap="round" stroke-linejoin="round" stroke-width=".5"/><line x1="2.93" y1="73.37" x2="10.39" y2="74.67" fill="none" stroke="#231f20" stroke-linecap="round" stroke-linejoin="round" stroke-width=".5"/><path d="m13.56,62.25l.69,15.61.09,2.12-1.24.5.21,3.35,1.17-.53.13,3.14-.73,1.05-1.18-.16-7.93-1.06-4.29-5.56-.23-5.37,7.11,1.2c-.09,1.15,1.14,1.45,1.14,1.45l3.74.71.47,8.63" fill="none" stroke="#231f20" stroke-linecap="round" stroke-linejoin="round" stroke-width=".5"/><line x1="12.41" y1="62.45" x2="13.1" y2="77.71" fill="none" stroke="#231f20" stroke-linecap="round" stroke-linejoin="round" stroke-width=".5"/><ellipse cx="4.02" cy="63.62" rx=".61" ry=".78" transform="translate(-27.52 8.22) rotate(-26.04)" fill="none" stroke="#231f20" stroke-linecap="round" stroke-linejoin="round" stroke-width=".5"/><ellipse cx="4.15" cy="66.31" rx=".61" ry=".78" transform="translate(-28.69 8.55) rotate(-26.04)" fill="none" stroke="#231f20" stroke-linecap="round" stroke-linejoin="round" stroke-width=".5"/><ellipse cx="4.27" cy="68.99" rx=".61" ry=".78" transform="translate(-29.85 8.88) rotate(-26.04)" fill="none" stroke="#231f20" stroke-linecap="round" stroke-linejoin="round" stroke-width=".5"/><ellipse cx="4.4" cy="71.68" rx=".61" ry=".78" transform="translate(-31.02 9.2) rotate(-26.04)" fill="none" stroke="#231f20" stroke-linecap="round" stroke-linejoin="round" stroke-width=".5"/><line x1="7.36" y1="76.54" x2="9.32" y2="75.82" fill="none" stroke="#231f20" stroke-linecap="round" stroke-linejoin="round" stroke-width=".5"/><path d="m12.24,78.71l1.96-.72-3.74-.71s-1.23-.3-1.14-1.45l-7.11-1.2-1.96.72" fill="none" stroke="#231f20" stroke-linecap="round" stroke-linejoin="round" stroke-width=".5"/><line x1="170.65" y1="100.25" x2="170.78" y2="119.4" fill="none" stroke="#231f20" stroke-linecap="round" stroke-linejoin="round" stroke-width=".5"/><line x1="170.37" y1="60.17" x2="170.53" y2="82.99" fill="none" stroke="#231f20" stroke-linecap="round" stroke-linejoin="round" stroke-width=".5"/><line x1="112.23" y1="76.62" x2="111.84" y2="77.32" fill="none" stroke="#231f20" stroke-linecap="round" stroke-linejoin="round" stroke-width=".5"/><line x1="162.35" y1="84.47" x2="167.49" y2="81.4" fill="none" stroke="#231f20" stroke-linecap="round" stroke-linejoin="round" stroke-width=".5"/><line x1="161.89" y1="98.5" x2="166.57" y2="95.94" fill="none" stroke="#231f20" stroke-linecap="round" stroke-linejoin="round" stroke-width=".5"/><path d="m168.32,85.09s-1.16,0-1.28.99c0,0-1.1,6-.03,12.72,0,0,.06.69,1.07.84s13.49,2.09,13.49,2.09l.33-.15s-1.04-6-.03-14.69l-13.55-1.79Z" fill="none" stroke="#231f20" stroke-linecap="round" stroke-linejoin="round" stroke-width=".5"/><polyline points="231.04 84.65 178.84 77.93 176.63 60.81" fill="none" stroke="#231f20" stroke-linecap="round" stroke-linejoin="round" stroke-width=".5"/><polyline points="179.62 78.17 168.45 84.42 168.32 85.09" fill="none" stroke="#231f20" stroke-linecap="round" stroke-linejoin="round" stroke-width=".5"/><polyline points="169.78 83.87 223.3 90.98 230.49 84.89" fill="none" stroke="#231f20" stroke-linecap="round" stroke-linejoin="round" stroke-width=".5"/><path d="m177.81,101.31l-1.26,10.71s-.36,1.92,1.92,2.15,51.47,8.56,51.47,8.56" fill="none" stroke="#231f20" stroke-linecap="round" stroke-linejoin="round" stroke-width=".5"/><polyline points="215.01 65 199.33 79.5 196.27 79.11 211.54 64.64" fill="none" stroke="#231f20" stroke-linecap="round" stroke-linejoin="round" stroke-width=".5"/><polyline points="207.81 64.23 192.7 78.65 189.53 78.24 204.49 63.87" fill="none" stroke="#231f20" stroke-linecap="round" stroke-linejoin="round" stroke-width=".5"/><polyline points="200.92 63.41 186.11 77.81 182.99 77.41 197.9 63.11" fill="none" stroke="#231f20" stroke-linecap="round" stroke-linejoin="round" stroke-width=".5"/><polyline points="193.92 62.7 180.67 75.86 180.08 75.47 179.84 73.11 190.96 62.39" fill="none" stroke="#231f20" stroke-linecap="round" stroke-linejoin="round" stroke-width=".5"/><polyline points="187.38 61.93 179.48 69.7 179.16 66.53 184.22 61.52" fill="none" stroke="#231f20" stroke-linecap="round" stroke-linejoin="round" stroke-width=".5"/><polyline points="178.6 61.12 178.8 63.05 180.79 61.22" fill="none" stroke="#231f20" stroke-linecap="round" stroke-linejoin="round" stroke-width=".5"/><polyline points="197.57 87.46 197.57 80.51 188.94 86.34" fill="none" stroke="#231f20" stroke-linecap="round" stroke-linejoin="round" stroke-width=".5"/><polyline points="218.82 65.37 198.64 83.76 198.64 86.88 221.98 65.65" fill="none" stroke="#231f20" stroke-linecap="round" stroke-linejoin="round" stroke-width=".5"/><line x1="201.42" y1="88.06" x2="225.75" y2="66.1" fill="none" stroke="#231f20" stroke-linecap="round" stroke-linejoin="round" stroke-width=".5"/><line x1="204.7" y1="88.43" x2="229.25" y2="66.5" fill="none" stroke="#231f20" stroke-linecap="round" stroke-linejoin="round" stroke-width=".5"/><line x1="208.13" y1="88.95" x2="231.47" y2="68.27" fill="none" stroke="#231f20" stroke-linecap="round" stroke-linejoin="round" stroke-width=".5"/><line x1="211.46" y1="89.35" x2="231.47" y2="71.67" fill="none" stroke="#231f20" stroke-linecap="round" stroke-linejoin="round" stroke-width=".5"/><line x1="215" y1="89.87" x2="231.25" y2="75.77" fill="none" stroke="#231f20" stroke-linecap="round" stroke-linejoin="round" stroke-width=".5"/><line x1="218.4" y1="90.2" x2="231.25" y2="79.09" fill="none" stroke="#231f20" stroke-linecap="round" stroke-linejoin="round" stroke-width=".5"/><polyline points="222.13 90.79 227.81 85.88 228.51 86.4" fill="none" stroke="#231f20" stroke-linecap="round" stroke-linejoin="round" stroke-width=".5"/><line x1="231.67" y1="66.78" x2="229.83" y2="128.78" fill="none" stroke="#231f20" stroke-linecap="round" stroke-linejoin="round" stroke-width=".5"/><path d="m179.64,101.58l-.27,2.33,2.53-2.35s41.39,6.6,43.24,6.82,1.52-1.47,1.52-1.47c-.27-3.43.27-10.5.38-12.18s-1.09-1.8-1.09-1.8l-43.6-5.63" fill="none" stroke="#231f20" stroke-linecap="round" stroke-linejoin="round" stroke-width=".5"/><polyline points="185.38 102.29 178.97 107.47 178.57 111.02 188.41 102.75" fill="none" stroke="#231f20" stroke-linecap="round" stroke-linejoin="round" stroke-width=".5"/><polyline points="191.9 103.28 181.05 112.6 184.04 113.1 194.82 103.68" fill="none" stroke="#231f20" stroke-linecap="round" stroke-linejoin="round" stroke-width=".5"/><polyline points="198.31 104.21 187.59 113.7 190.62 114.21 201.39 104.79" fill="none" stroke="#231f20" stroke-linecap="round" stroke-linejoin="round" stroke-width=".5"/><polyline points="204.89 105.31 194.18 114.8 197.07 115.28 208.09 105.84" fill="none" stroke="#231f20" stroke-linecap="round" stroke-linejoin="round" stroke-width=".5"/><polyline points="211.7 106.42 200.9 115.93 203.73 116.4 214.9 106.83" fill="none" stroke="#231f20" stroke-linecap="round" stroke-linejoin="round" stroke-width=".5"/><polyline points="218.63 107.41 207.4 117.01 210.37 117.51 221.77 107.93" fill="none" stroke="#231f20" stroke-linecap="round" stroke-linejoin="round" stroke-width=".5"/><polyline points="225.61 108.4 214.1 118.13 217.29 118.67 230.39 107.99" fill="none" stroke="#231f20" stroke-linecap="round" stroke-linejoin="round" stroke-width=".5"/><polyline points="230.39 111.31 221.01 119.29 224.23 119.83 230.21 114.98" fill="none" stroke="#231f20" stroke-linecap="round" stroke-linejoin="round" stroke-width=".5"/><polyline points="229.72 120.75 228.32 120.51 230.04 118.6" fill="none" stroke="#231f20" stroke-linecap="round" stroke-linejoin="round" stroke-width=".5"/><polyline points="155.26 58.33 142.2 72.48 139.82 72.19 152.34 57.93" fill="none" stroke="#231f20" stroke-linecap="round" stroke-linejoin="round" stroke-width=".5"/><polyline points="146.21 57.25 133.72 71.46 136.46 71.79 149.02 57.53" fill="none" stroke="#231f20" stroke-linecap="round" stroke-linejoin="round" stroke-width=".5"/><polyline points="139.91 56.73 127.94 70.76 130.51 71.07 143 56.96" fill="none" stroke="#231f20" stroke-linecap="round" stroke-linejoin="round" stroke-width=".5"/><polyline points="133.89 55.93 124.91 66.25 125.42 68.99 136.93 56.33" fill="none" stroke="#231f20" stroke-linecap="round" stroke-linejoin="round" stroke-width=".5"/><polyline points="128.11 55.3 123.76 60.12 124.34 63.2 130.8 55.53" fill="none" stroke="#231f20" stroke-linecap="round" stroke-linejoin="round" stroke-width=".5"/><polyline points="122.84 55.18 123.15 56.85 125.13 55.07" fill="none" stroke="#231f20" stroke-linecap="round" stroke-linejoin="round" stroke-width=".5"/><polyline points="161.33 59.02 141.86 79.24 141.8 76.66 158.41 58.56" fill="none" stroke="#231f20" stroke-linecap="round" stroke-linejoin="round" stroke-width=".5"/><line x1="144.43" y1="80.5" x2="164.71" y2="59.48" fill="none" stroke="#231f20" stroke-linecap="round" stroke-linejoin="round" stroke-width=".5"/><line x1="150.51" y1="81.3" x2="167.58" y2="63.78" fill="none" stroke="#231f20" stroke-linecap="round" stroke-linejoin="round" stroke-width=".5"/><line x1="153.31" y1="81.7" x2="167.52" y2="67.33" fill="none" stroke="#231f20" stroke-linecap="round" stroke-linejoin="round" stroke-width=".5"/><line x1="156.58" y1="82.16" x2="167.46" y2="71.11" fill="none" stroke="#231f20" stroke-linecap="round" stroke-linejoin="round" stroke-width=".5"/><line x1="159.9" y1="82.58" x2="167.52" y2="74.83" fill="none" stroke="#231f20" stroke-linecap="round" stroke-linejoin="round" stroke-width=".5"/><line x1="177.24" y1="120.59" x2="176.85" y2="117.37" fill="none" stroke="#231f20" stroke-linecap="round" stroke-linejoin="round" stroke-width=".5"/><path d="m178.02,118.49s7.18-3.29,12.57-2.24" fill="none" stroke="#231f20" stroke-linecap="round" stroke-linejoin="round" stroke-width=".5"/><line x1="170.99" y1="118.04" x2="176.83" y2="113.85" fill="none" stroke="#231f20" stroke-linecap="round" stroke-linejoin="round" stroke-width=".5"/><path d="m259.44,135.25l-43.6,7.41s-1.46.21-1.72.78" fill="none" stroke="#231f20" stroke-linecap="round" stroke-linejoin="round" stroke-width=".5"/><path d="m286.93,139.65s-.44,1.9-5.46,2.73l-48.95,9.23s-.82,1.36-2.46,1.43" fill="none" stroke="#231f20" stroke-linecap="round" stroke-linejoin="round" stroke-width=".5"/><path d="m194,161.16c.45.05,1.75-.1,1.75-.1,0,0,32.46-6.11,33.21-6.26s.9-.65.9-.65l.1-2.75c0-.7-.5-.9-.5-.9,0,0-15.68-6.86-16.83-7.41s-2.1-.6-2.1-.6l-33.36,5.82s-3.01.5-2.75,2.46.33,3.2,3.99,5.69l-.07,2.03,2.94-.78s3.07,1.31,8.1,1.76l1.83,1.18,2.07-.33s.85-.58.33-1.24c0,0-.46-.42-2.43-.61,0,0-10.43-.18-14.27-5.77,0,0-.52-.77-.23-1.7,0,0,.42-1,1.31-.88s1.29.46,1.27,1.03c-.18,7.38,15.12,6.53,15.12,6.53l35.32-6.52" fill="none" stroke="#231f20" stroke-linecap="round" stroke-linejoin="round" stroke-width=".5"/><path d="m174.41,150.15v4.37c.26,1.96.33,3.2,3.99,5.69l-.07,2.03,2.94-.78s3.07,1.31,8.1,1.76l1.83,1.18,2.07-.33s.85-.58.33-1.24v-3.32" fill="none" stroke="#231f20" stroke-linecap="round" stroke-linejoin="round" stroke-width=".5"/><line x1="181.27" y1="157.68" x2="181.27" y2="161.45" fill="none" stroke="#231f20" stroke-linecap="round" stroke-linejoin="round" stroke-width=".5"/><line x1="178.33" y1="158.47" x2="178.33" y2="162.23" fill="none" stroke="#231f20" stroke-linecap="round" stroke-linejoin="round" stroke-width=".5"/><line x1="189.38" y1="159.45" x2="189.38" y2="163.21" fill="none" stroke="#231f20" stroke-linecap="round" stroke-linejoin="round" stroke-width=".5"/><line x1="191.21" y1="160.62" x2="191.21" y2="164.39" fill="none" stroke="#231f20" stroke-linecap="round" stroke-linejoin="round" stroke-width=".5"/><line x1="179.15" y1="154.84" x2="179.15" y2="150.72" fill="none" stroke="#231f20" stroke-linecap="round" stroke-linejoin="round" stroke-width=".5"/><path d="m177.68,153.66s.85-.15,1.36.06" fill="none" stroke="#231f20" stroke-linecap="round" stroke-linejoin="round" stroke-width=".5"/><ellipse cx="191.09" cy="151.98" rx="8.38" ry="3.48" fill="none" stroke="#231f20" stroke-linecap="round" stroke-linejoin="round" stroke-width=".5"/><path d="m183.96,153.84c1.48-.99,4.12-1.65,7.13-1.65s5.44.61,6.95,1.54" fill="none" stroke="#231f20" stroke-linecap="round" stroke-linejoin="round" stroke-width=".5"/><ellipse cx="241.39" cy="142.66" rx="1.96" ry=".86" fill="none" stroke="#231f20" stroke-linecap="round" stroke-linejoin="round" stroke-width=".5"/><ellipse cx="270.42" cy="138.17" rx="1.96" ry=".86" fill="none" stroke="#231f20" stroke-linecap="round" stroke-linejoin="round" stroke-width=".5"/><polyline points="21.5 81.8 22.41 92.59 22.52 93.9" fill="none" stroke="#231f20" stroke-linecap="round" stroke-linejoin="round" stroke-width=".5"/><line x1="18.04" y1="43.98" x2="19.72" y2="62.69" fill="none" stroke="#231f20" stroke-linecap="round" stroke-linejoin="round" stroke-width=".5"/><line x1="29.41" y1="89.92" x2="22.41" y2="92.59" fill="none" stroke="#231f20" stroke-linecap="round" stroke-linejoin="round" stroke-width=".5"/><polyline points="28.47 96.45 20.17 94.94 19.54 93.47" fill="none" stroke="#231f20" stroke-linecap="round" stroke-linejoin="round" stroke-width=".5"/><polyline points="87.54 99.65 70.38 104.06 46.77 99.78" fill="none" stroke="#231f20" stroke-linecap="round" stroke-linejoin="round" stroke-width=".5"/><line x1="28.38" y1="95.13" x2="30.32" y2="110.52" fill="none" stroke="#231f20" stroke-linecap="round" stroke-linejoin="round" stroke-width=".5"/><line x1="46.17" y1="98.05" x2="49.55" y2="110.32" fill="none" stroke="#231f20" stroke-linecap="round" stroke-linejoin="round" stroke-width=".5"/><path d="m29.64,111.23s.12-.57,1.32-.6,18.08-.24,18.08-.24c0,0,1.08-.18,1.35.51s2.6,9.76,2.6,9.76c0,0,.24,1.17-.87,1.68s-7.9,2.66-12.42,2.57l-2.93,1.26s-.78,0-.45-1.17c0,0-4.49-.06-6.91-.66l-2.04.39s-1.62-1.23,1.41-1.62c0,0,10.27,2.66,21.01-1.11,0,0,.99-.63-.27-.66s-1.44.33-1.44.33c0,0-12.39,4.1-17.27-.36l-1.17-10.09Z" fill="none" stroke="#231f20" stroke-linecap="round" stroke-linejoin="round" stroke-width=".5"/><path d="m53.07,120.96l.27,3.29c-.18.63-1.23,1.02-1.23,1.02-1.11.51-7.9,2.66-12.42,2.57l-2.93,1.26s-.78,0-.45-1.17c0,0-4.49-.06-6.91-.66l-2.04.39v-2.93" fill="none" stroke="#231f20" stroke-linecap="round" stroke-linejoin="round" stroke-width=".5"/><line x1="30.81" y1="123.35" x2="30.75" y2="121.53" fill="none" stroke="#231f20" stroke-linecap="round" stroke-linejoin="round" stroke-width=".5"/><line x1="29.4" y1="124.34" x2="29.4" y2="127.27" fill="none" stroke="#231f20" stroke-linecap="round" stroke-linejoin="round" stroke-width=".5"/><line x1="36.76" y1="126.16" x2="36.76" y2="129.1" fill="none" stroke="#231f20" stroke-linecap="round" stroke-linejoin="round" stroke-width=".5"/><line x1="39.69" y1="124.91" x2="39.69" y2="127.78" fill="none" stroke="#231f20" stroke-linecap="round" stroke-linejoin="round" stroke-width=".5"/><polyline points="26.85 123.77 26.85 126.25 27.36 127.66" fill="none" stroke="#231f20" stroke-linecap="round" stroke-linejoin="round" stroke-width=".5"/><ellipse cx="41.54" cy="119.38" rx="7.23" ry="2.29" transform="translate(-14.83 6.25) rotate(-7.3)" fill="none" stroke="#231f20" stroke-linecap="round" stroke-linejoin="round" stroke-width=".5"/><path d="m47.21,120.12c-1.38-.35-3.44-.42-5.7-.13s-4.03.82-5.29,1.46" fill="none" stroke="#231f20" stroke-linecap="round" stroke-linejoin="round" stroke-width=".5"/><ellipse cx="37.24" cy="105.24" rx="1.74" ry=".5" fill="none" stroke="#231f20" stroke-linecap="round" stroke-linejoin="round" stroke-width=".5"/><ellipse cx="37.36" cy="97.23" rx="1.74" ry=".5" fill="none" stroke="#231f20" stroke-linecap="round" stroke-linejoin="round" stroke-width=".5"/><polyline points="330.63 39.13 351.24 5.92 209.37 .25 105.42 23.13 330.61 39.1 330.46 44.6 351.18 8.47 351.25 5.91" fill="none" stroke="#231f20" stroke-linecap="round" stroke-linejoin="round" stroke-width=".5"/><polyline points="331.09 77.76 351.12 28.04 351.18 8.47" fill="none" stroke="#231f20" stroke-linecap="round" stroke-linejoin="round" stroke-width=".5"/><line x1="307.76" y1="80.43" x2="317.93" y2="63.64" fill="none" stroke="#231f20" stroke-linecap="round" stroke-linejoin="round" stroke-width=".5"/><path d="m314.31,120.81l-.82-.16s-.6.52-1.46.43" fill="none" stroke="#231f20" stroke-linecap="round" stroke-linejoin="round" stroke-width=".5"/><path d="m317.78,64.18l-.92,1.54,1.1.19.06-5.72,1.19-.09.09,1.89,6.85.53.03-1.54,4.65.35s1.16.19,1.26,1.13-4.82,59.7-4.82,59.7c0,0-.13,1.62-1.85,1.62l-3.96-.52-.26-1.07-3.44-.69" fill="none" stroke="#231f20" stroke-linecap="round" stroke-linejoin="round" stroke-width=".5"/><path d="m312.13,120.18l.71-.09,3.1-42.83s.13.56,1.5.73l.17-5.59s-1.38-.21-1.38-.73l.62-5.94" fill="none" stroke="#231f20" stroke-linecap="round" stroke-linejoin="round" stroke-width=".5"/><path d="m315.93,77.08s.66-2.71,1.64-3.57" fill="none" stroke="#231f20" stroke-linecap="round" stroke-linejoin="round" stroke-width=".5"/><ellipse cx="321.78" cy="108.38" rx="4.58" ry="4.09" fill="none" stroke="#231f20" stroke-linecap="round" stroke-linejoin="round" stroke-width=".5"/><ellipse cx="324.15" cy="76.65" rx="4.26" ry="3.91" fill="none" stroke="#231f20" stroke-linecap="round" stroke-linejoin="round" stroke-width=".5"/><ellipse cx="320.54" cy="81.25" rx=".98" ry="1.17" transform="translate(207.86 392.14) rotate(-84.3)" fill="none" stroke="#231f20" stroke-linecap="round" stroke-linejoin="round" stroke-width=".5"/><path d="m318.17,69.26l1.4-2.03c.51-.47,1.26-.72,2.07-.63,1.4.15,2.45,1.28,2.34,2.51-.02.2-.06.38-.14.56l-1.22,2.13" fill="none" stroke="#231f20" stroke-linecap="round" stroke-linejoin="round" stroke-width=".5"/><path d="m318.21,71.54c-.26-.4-.39-.86-.35-1.35s.27-.93.61-1.26c.51-.51,1.3-.79,2.14-.7,1.4.15,2.45,1.28,2.34,2.51-.01.13-.04.26-.07.39-.18.61-.66,1.1-1.27,1.37" fill="none" stroke="#231f20" stroke-linecap="round" stroke-linejoin="round" stroke-width=".5"/><ellipse cx="319.86" cy="71.96" rx="1.57" ry="1.66" transform="translate(-3.54 18.1) rotate(-3.22)" fill="none" stroke="#231f20" stroke-linecap="round" stroke-linejoin="round" stroke-width=".5"/><ellipse cx="327.14" cy="81.78" rx=".98" ry="1.17" transform="translate(213.28 399.18) rotate(-84.3)" fill="none" stroke="#231f20" stroke-linecap="round" stroke-linejoin="round" stroke-width=".5"/><ellipse cx="323.38" cy="85.56" rx="1.14" ry="1.17" transform="translate(206.13 398.85) rotate(-84.3)" fill="none" stroke="#231f20" stroke-linecap="round" stroke-linejoin="round" stroke-width=".5"/><path d="m314.45,117.38l1.4-2.27c.51-.52,1.26-.8,2.07-.71,1.4.17,2.45,1.43,2.34,2.8-.02.22-.06.43-.14.63l-1.22,2.39" fill="none" stroke="#231f20" stroke-linecap="round" stroke-linejoin="round" stroke-width=".5"/><path d="m314.49,119.94c-.26-.44-.39-.96-.35-1.5s.27-1.03.61-1.41c.51-.57,1.3-.88,2.14-.78,1.4.17,2.45,1.43,2.34,2.8-.01.15-.04.29-.07.43-.18.69-.66,1.23-1.27,1.53" fill="none" stroke="#231f20" stroke-linecap="round" stroke-linejoin="round" stroke-width=".5"/><ellipse cx="316.14" cy="120.41" rx="1.57" ry="1.85" transform="translate(-2.05 5.53) rotate(-1)" fill="none" stroke="#231f20" stroke-linecap="round" stroke-linejoin="round" stroke-width=".5"/><line x1="302.3" y1="143.67" x2="312.77" y2="118.56" fill="none" stroke="#231f20" stroke-linecap="round" stroke-linejoin="round" stroke-width=".5"/><line x1="81.23" y1="29.29" x2="107.02" y2="23.55" fill="none" stroke="#231f20" stroke-linecap="round" stroke-linejoin="round" stroke-width=".5"/><line x1="91.12" y1="29.33" x2="113.73" y2="24.15" fill="none" stroke="#231f20" stroke-linecap="round" stroke-linejoin="round" stroke-width=".5"/><polyline points="102.83 26.71 133.29 29.24 143.15 26.51" fill="none" stroke="#231f20" stroke-linecap="round" stroke-linejoin="round" stroke-width=".5"/><polyline points="181.4 29.2 172.65 31.98 232.21 36.78 238.86 33.33" fill="none" stroke="#231f20" stroke-linecap="round" stroke-linejoin="round" stroke-width=".5"/><polyline points="323.73 49.24 329.91 39.91 329.7 44.27 319.42 61.23" fill="none" stroke="#231f20" stroke-linecap="round" stroke-linejoin="round" stroke-width=".5"/><line x1="322.52" y1="48.9" x2="328.74" y2="39.71" fill="none" stroke="#231f20" stroke-linecap="round" stroke-linejoin="round" stroke-width=".5"/><polyline points="285.35 36.54 280.69 40.5 324.31 43.87 327.29 39.72" fill="none" stroke="#231f20" stroke-linecap="round" stroke-linejoin="round" stroke-width=".5"/><line x1="105.36" y1="23.88" x2="105.42" y2="23.13" fill="none" stroke="#231f20" stroke-linecap="round" stroke-linejoin="round" stroke-width=".5"/></g><g id="b"><polygon points="162.79 56.22 149.32 61.96 156.08 62.83 129.37 66.45 126.97 59.3 134.12 60.2 147.87 54.33 162.79 56.22" fill="#231f20" stroke-width="0"/><polygon points="126.97 59.3 129.37 66.45 156.08 62.83 149.32 61.96 162.79 56.22 147.87 54.33 134.12 60.2 126.97 59.3" fill="none" stroke="#fff" stroke-linecap="round" stroke-linejoin="round" stroke-width="4"/><polygon points="150.88 52.99 164.35 47.22 157.59 46.35 184.3 42.73 186.7 49.89 179.55 48.97 165.74 54.87 150.88 52.99" fill="#231f20" stroke-width="0"/><polygon points="186.7 49.89 184.3 42.73 157.59 46.35 164.35 47.22 150.88 52.99 165.74 54.87 179.55 48.97 186.7 49.89" fill="none" stroke="#fff" stroke-linecap="round" stroke-linejoin="round" stroke-width="4"/><polygon points="162.79 56.22 149.32 61.96 156.08 62.83 129.37 66.45 126.97 59.3 134.12 60.2 147.87 54.33 162.79 56.22" fill="#231f20" stroke-width="0"/><polygon points="150.88 52.99 164.35 47.22 157.59 46.35 184.3 42.73 186.7 49.89 179.55 48.97 165.74 54.87 150.88 52.99" fill="#231f20" stroke-width="0"/><path d="m108.18,158.8c0,7.59-6.25,13.75-13.95,13.75s-13.95-6.15-13.95-13.75,6.25-13.75,13.95-13.75,13.95,6.16,13.95,13.75" fill="#221f1f" stroke="#fff" stroke-miterlimit="10" stroke-width="1.5"/><path d="m95.83,165.84h-1.85v-11.76c-.44.42-1.03.85-1.75,1.27s-1.37.74-1.94.95v-1.78c1.03-.49,1.93-1.07,2.71-1.76s1.32-1.36,1.64-2.01h1.19v15.09Z" fill="#fff" stroke-width="0"/><path d="m60.36,123.48c10.35-1.7,35.85-6.99,44.18-18.86" fill="none" stroke="#000" stroke-dasharray="0 0 2 3" stroke-linecap="round" stroke-linejoin="round" stroke-width="1.25"/><polygon points="61.73 126.39 55.92 124.13 60.79 120.23 61.73 126.39" stroke-width="0"/><path d="m172.06,144.54c-1.11-4.27-1.83-11.55,1.89-20.75" fill="none" stroke="#000" stroke-dasharray="0 0 2 3" stroke-linecap="round" stroke-linejoin="round" stroke-width="1.25"/><polygon points="174.79 142.61 173.63 148.74 168.91 144.67 174.79 142.61" stroke-width="0"/><line x1="41.15" y1="130.47" x2="79.35" y2="152.94" fill="none" stroke="#000" stroke-linecap="round" stroke-linejoin="round"/><line x1="109.2" y1="161.67" x2="173.72" y2="161.44" fill="none" stroke="#000" stroke-linecap="round" stroke-linejoin="round"/></g></svg>