<?xml version="1.0" encoding="UTF-8"?><svg id="a" xmlns="http://www.w3.org/2000/svg" width="2.2856in" height="1.3496in" viewBox="0 0 164.5636 97.1699"><rect x="1.2818" y="1.2818" width="162" height="94.6062" fill="none" stroke="#939598" stroke-width="2.5636"/><polygon points="163.2818 1.2818 80.4296 1.2818 80.4296 23.7088 137.2214 23.7088 163.2818 23.7088 163.2818 1.2818" fill="#939598" stroke="#939598" stroke-width="2.5636"/><rect x="1.2818" y="1.2818" width="77.5167" height="22.4269" fill="none" stroke="#939598" stroke-width="2.5636"/><path d="M85.7139,9.7273v5.2378h3.1318v1.188h-4.5449v-6.4258h1.4131Z" fill="#fff" stroke-width="0"/><path d="M91.0508,9.7273v6.4258h-1.4131v-6.4258h1.4131Z" fill="#fff" stroke-width="0"/><path d="M96.8106,9.7273v1.188h-3.1045v1.4849h2.6904v1.0981h-2.6904v2.6548h-1.4131v-6.4258h4.5176Z" fill="#fff" stroke-width="0"/><path d="M97.126,10.9153v-1.188h5.2646v1.188h-1.9258v5.2378h-1.4131v-5.2378h-1.9258Z" fill="#fff" stroke-width="0"/><path d="M104.542,9.7273v6.4258h-1.4131v-6.4258h1.4131Z" fill="#fff" stroke-width="0"/><path d="M107.1875,9.7273l2.6816,4.3105h.0176v-4.3105h1.3232v6.4258h-1.4131l-2.6729-4.3018h-.0176v4.3018h-1.3232v-6.4258h1.4043Z" fill="#fff" stroke-width="0"/><path d="M116.2588,16.1038c-.3057.1289-.6152.1934-.9268.1934-.4922,0-.9346-.0854-1.3271-.2563-.3936-.1714-.7246-.4067-.9951-.7065-.2695-.3003-.4766-.6528-.6211-1.0576-.1436-.4053-.2158-.8413-.2158-1.3096,0-.48.0723-.9253.2158-1.3364.1445-.4111.3516-.7695.6211-1.0757.2705-.3057.6016-.5459.9951-.7197.3926-.1743.835-.2612,1.3271-.2612.3301,0,.6494.0498.959.1484.3086.0991.5879.2446.8369.4365.248.1924.4541.4292.6162.7109.1621.2822.2607.6064.2969.9722h-1.3496c-.084-.3599-.2461-.6299-.4863-.8101-.2402-.1797-.5312-.27-.873-.27-.3184,0-.5879.0615-.8096.1846-.2227.123-.4023.2881-.54.4951-.1387.207-.2393.4424-.3018.7065-.0635.2642-.0947.5371-.0947.8188,0,.27.0312.5327.0947.7876.0625.2549.1631.4844.3018.6885.1377.2041.3174.3677.54.4902.2217.123.4912.1846.8096.1846.4678,0,.8291-.1182,1.085-.3555.2549-.2368.4033-.5806.4453-1.0303h-1.4219v-1.0532h2.6992v3.4741h-.8994l-.1445-.729c-.252.3242-.5303.5508-.8369.6797Z" fill="#fff" stroke-width="0"/><path d="M123.1983,9.7273v2.4658h2.6006v-2.4658h1.4131v6.4258h-1.4131v-2.772h-2.6006v2.772h-1.4131v-6.4258h1.4131Z" fill="#fff" stroke-width="0"/><path d="M131.6582,9.7273l2.4023,6.4258h-1.4668l-.4854-1.4312h-2.4033l-.5039,1.4312h-1.4219l2.4297-6.4258h1.4492ZM131.7393,13.6692l-.8105-2.3579h-.0176l-.8369,2.3579h1.665Z" fill="#fff" stroke-width="0"/><path d="M137.6524,10.9153h-3.1777v-1.188h5.0586v1.1157l-3.4473,4.1221h3.5371v1.188h-5.418v-1.1162l3.4473-4.1216Z" fill="#fff" stroke-width="0"/><path d="M143.6553,9.7273l2.4023,6.4258h-1.4668l-.4854-1.4312h-2.4033l-.5039,1.4312h-1.4219l2.4297-6.4258h1.4492ZM143.7364,13.6692l-.8105-2.3579h-.0176l-.8369,2.3579h1.665Z" fill="#fff" stroke-width="0"/><path d="M150.0811,9.7273c.2881,0,.5479.0464.7783.1392.2314.0933.4287.2207.5947.3828.1641.1616.29.3496.3779.5625.0869.2129.1299.4424.1299.6885,0,.3779-.0791.7051-.2383.981s-.4189.4858-.7783.6299v.0181c.1738.0479.3174.1216.4316.2202.1143.0991.207.2163.2793.3511.0723.1353.124.2837.1572.4458.0332.1616.0557.3237.0674.4858.0059.1021.0127.2222.0186.3599.0059.1382.0166.2793.0312.4233.0146.1436.0391.2803.0723.4092.0322.1294.082.2388.1484.3286h-1.4131c-.0781-.2041-.126-.4468-.1445-.729-.0176-.2817-.0449-.5518-.0811-.8101-.0479-.3359-.1494-.582-.3057-.7378-.1562-.1562-.4111-.2344-.7646-.2344h-1.4131v2.5112h-1.4131v-6.4258h3.4648ZM149.5772,12.634c.3242,0,.5674-.0718.7285-.2158.1621-.144.2432-.3779.2432-.7021,0-.312-.0811-.5386-.2432-.6797-.1611-.1406-.4043-.2114-.7285-.2114h-1.5479v1.8091h1.5479Z" fill="#fff" stroke-width="0"/><path d="M155.8858,9.7273c.4141,0,.7998.0659,1.1572.1978.3564.1318.666.3301.9268.5942.2607.2637.4648.5938.6123.9897.1465.396.2197.8613.2197,1.395,0,.4683-.0596.8999-.1797,1.2959s-.3018.7383-.5439,1.0264c-.2432.2876-.5469.5142-.9092.6792-.3633.165-.791.2476-1.2832.2476h-2.7715v-6.4258h2.7715ZM155.7871,14.9651c.2041,0,.4023-.0327.5938-.0991.1924-.0659.3633-.1753.5137-.3286.1494-.1528.2695-.3521.3594-.5981s.1357-.5459.1357-.8999c0-.3242-.0322-.6167-.0947-.8779-.0635-.2607-.167-.4844-.3105-.6704-.1445-.186-.335-.3286-.5713-.4272-.2373-.0991-.5303-.1484-.8779-.1484h-1.0078v4.0498h1.2598Z" fill="#fff" stroke-width="0"/><path d="M9.1039,18.5546h12.5354c.2648,0,.2496-.2836.1327-.4848,0,0-6.0741-12.1808-6.2335-12.5033-.0321-.0351-.077-.0787-.1661-.0787-.0879,0-.1333.0436-.1661.0787-.1611.3225-6.2333,12.5033-6.2333,12.5033-.1158.2012-.1334.4848.1308.4848Z" fill="#f79320" fill-rule="evenodd" stroke-width="0"/><path d="M30.7188,10.7351c-.0933-.1499-.21-.2817-.3501-.395s-.2983-.2017-.4751-.2651-.3613-.0952-.5547-.0952c-.3535,0-.6538.0688-.8999.2051-.2471.1367-.4468.3203-.6001.5503-.1538.23-.2651.4917-.335.7847-.0703.2935-.105.5967-.105.9102,0,.2998.0347.5918.105.875.0698.2837.1812.5386.335.7651.1533.2266.353.4082.6001.5449.2461.1367.5464.2051.8999.2051.48,0,.855-.1465,1.125-.4399s.4351-.6802.4946-1.1602h1.52c-.0396.4468-.1431.8501-.3096,1.21-.167.3599-.3867.667-.6602.9199-.2734.2534-.5933.4468-.96.5801s-.77.2002-1.21.2002c-.5469,0-1.0386-.0952-1.4751-.2852s-.8052-.4517-1.105-.7852c-.3003-.333-.5303-.7246-.6899-1.1748-.1602-.4502-.2402-.9351-.2402-1.4551,0-.5332.0801-1.0283.2402-1.4849.1597-.4565.3896-.855.6899-1.1953.2998-.3398.6685-.6064,1.105-.7998s.9282-.29,1.4751-.29c.3931,0,.7646.0566,1.1147.1699.3501.1138.6636.2788.9399.4951.2769.2168.5054.4849.6851.8052.1802.3198.2935.6865.3403,1.0996h-1.52c-.0269-.1797-.0869-.3447-.1802-.4946Z" fill="#221f1f" stroke-width="0"/><path d="M37.0186,8.8298l2.6699,7.1401h-1.6299l-.54-1.5898h-2.6699l-.5601,1.5898h-1.5801l2.7002-7.1401h1.6099ZM37.1084,13.2102l-.8999-2.6201h-.02l-.9297,2.6201h1.8496Z" fill="#221f1f" stroke-width="0"/><path d="M45.4688,15.4251c-.54.4697-1.2866.7051-2.2397.7051-.9668,0-1.7153-.2334-2.2451-.7002-.5303-.4663-.7949-1.1865-.7949-2.1602v-4.4399h1.5698v4.4399c0,.1938.0166.3838.0498.5703.0337.1865.1035.3516.2104.4951.1064.1431.2549.2598.4448.3496.1899.0903.4448.1353.7651.1353.5596,0,.9463-.125,1.1597-.375s.3203-.6416.3203-1.1753v-4.4399h1.5698v4.4399c0,.9668-.27,1.6851-.8101,2.1553Z" fill="#221f1f" stroke-width="0"/><path d="M46.9786,10.1502v-1.3203h5.8501v1.3203h-2.1401v5.8198h-1.5698v-5.8198h-2.1401Z" fill="#221f1f" stroke-width="0"/><path d="M55.1285,8.8298v7.1401h-1.5698v-7.1401h1.5698Z" fill="#221f1f" stroke-width="0"/><path d="M56.3487,10.9451c.1597-.4565.3896-.855.6899-1.1953.2998-.3398.6685-.6064,1.105-.7998s.9282-.29,1.4751-.29c.5532,0,1.0464.0967,1.48.29.4331.1934.7998.46,1.1001.7998.2998.3403.5298.7388.6899,1.1953.1597.4565.2397.9517.2397,1.4849,0,.52-.0801,1.0049-.2397,1.4551-.1602.4502-.3901.8418-.6899,1.1748-.3003.3335-.667.5952-1.1001.7852-.4336.1899-.9268.2852-1.48.2852-.5469,0-1.0386-.0952-1.4751-.2852s-.8052-.4517-1.105-.7852c-.3003-.333-.5303-.7246-.6899-1.1748-.1602-.4502-.2402-.9351-.2402-1.4551,0-.5332.0801-1.0283.2402-1.4849ZM57.7837,13.3049c.0698.2837.1812.5386.335.7651.1533.2266.353.4082.6001.5449.2461.1367.5464.2051.8999.2051.353,0,.6533-.0684.8999-.2051s.4463-.3184.6001-.5449c.1533-.2266.2646-.4814.335-.7651.0698-.2832.105-.5752.105-.875,0-.3135-.0352-.6167-.105-.9102-.0703-.293-.1816-.5547-.335-.7847-.1538-.23-.3535-.4136-.6001-.5503-.2466-.1362-.5469-.2051-.8999-.2051-.3535,0-.6538.0688-.8999.2051-.2471.1367-.4468.3203-.6001.5503-.1538.23-.2651.4917-.335.7847-.0703.2935-.105.5967-.105.9102,0,.2998.0347.5918.105.875Z" fill="#221f1f" stroke-width="0"/><path d="M65.6685,8.8298l2.98,4.79h.02v-4.79h1.4702v7.1401h-1.5703l-2.9697-4.7798h-.02v4.7798h-1.4702v-7.1401h1.5601Z" fill="#221f1f" stroke-width="0"/><path d="M9.4972,19.1619c-.6909,0-1.2491-.5588-1.2491-1.2473,0-.2909.1497-.5346.2624-.7673l5.8782-11.7856c.2268-.2922.5825-.48.9837-.48s.7594.1878.9855.48l5.8765,11.7856c.1344.2327.2605.4764.2605.7673,0,.6885-.5582,1.2473-1.2479,1.2473h-11.7499ZM9.4972,18.1509h11.7499c.2491,0,.2358-.2727.1261-.4606,0,0-5.6965-11.4196-5.8443-11.719-.0333-.0315-.0715-.0763-.1564-.0763-.0848,0-.1266.0448-.1545.0763-.1503.2994-5.8456,11.719-5.8456,11.719-.109.1879-.1254.4606.1249.4606Z" fill="#f79320" fill-rule="evenodd" stroke-width="0"/><path d="M16.2573,16.4212c0,.4885-.3957.8838-.8849.8838-.4884,0-.8843-.3952-.8843-.8838,0-.4897.3958-.8847.8843-.8847.4892,0,.8849.3951.8849.8847Z" fill="#fff" fill-rule="evenodd" stroke-width="0"/><path d="M15.3725,9.0296c-.4539,0-.8206.3684-.8206.8193l.2715,4.4267c0,.3031.2468.5455.5491.5455.3006,0,.5449-.2424.5449-.5455l.2758-4.4267c0-.4509-.3673-.8193-.8207-.8193Z" fill="#fff" fill-rule="evenodd" stroke-width="0"/><rect x="112.355" y="53.7928" width="22.0306" height="9.485" fill="#fff" stroke-width="0"/><path d="M134.3856,63.2778h-22.0306v-9.485h22.0306v9.485ZM135.5093,64.4028h-24.278v-11.7335h24.278v11.7335" fill="#221f1f" fill-rule="evenodd" stroke-width="0"/><path d="M111.0137,40.5006c0,1.8861-1.5285,3.4109-3.4151,3.4109-1.8837,0-3.4116-1.5249-3.4116-3.4109,0-1.8849,1.528-3.4134,3.4116-3.4134,1.8867,0,3.4151,1.5285,3.4151,3.4134Z" fill="#221f1f" fill-rule="evenodd" stroke-width="0"/><path d="M101.8712,44.8073c.7806-1.3661,2.7068-2.0668,3.8267-1.234l2.9147,1.9844,2.6187,6.3613,5.094,4.794c.6655.6667.6655,1.7454,0,2.4097-.6648.6679-1.7448.6679-2.4133,0l-6.4244-5.3298-.7497-2.6206-2.2443,4.868,5.6164,7.1104c.8054,1.0194.5872,2.4837.3721,3.0001l-3.8721,9.7456c-.4303,1.0351-1.6237,1.5272-2.6607,1.0945-1.0369-.4327-1.5291-1.6207-1.0951-2.6595l3.0661-7.9661c.2176-.5831-.1079-1.4462-.517-1.9019l-6.9012-8.0474c-1.0249-1.0254-1.1401-2.6545-.4097-4.1164l3.7788-7.4922" fill="#221f1f" fill-rule="evenodd" stroke-width="0"/><path d="M135.7298,40.5006c0,1.8861,1.528,3.4109,3.4116,3.4109s3.4134-1.5249,3.4134-3.4109c0-1.8849-1.5298-3.4134-3.4134-3.4134s-3.4116,1.5285-3.4116,3.4134Z" fill="#221f1f" fill-rule="evenodd" stroke-width="0"/><path d="M144.8724,44.8073c-.7811-1.3661-2.7066-2.0668-3.8291-1.234l-2.9147,1.9844-2.6194,6.3613-5.0953,4.794c-.6648.6667-.6648,1.7454,0,2.4097.6667.6679,1.7485.6679,2.4133,0l6.4268-5.3298.7485-2.6206,2.2455,4.868-5.6152,7.1104c-.8061,1.0194-.5886,2.4837-.3758,3.0001l3.874,9.7456c.4316,1.0351,1.6237,1.5272,2.6619,1.0945,1.0363-.4327,1.5266-1.6207,1.0951-2.6595l-3.0637-7.9661c-.2218-.5831.1049-1.4462.5098-1.9019l6.905-8.0474c1.0254-1.0254,1.1418-2.6545.4121-4.1164l-3.7789-7.4922" fill="#221f1f" fill-rule="evenodd" stroke-width="0"/><path d="M13.9434,76.6599l-.7866.0615c-.0703-.3105-.1699-.5361-.2988-.6768-.2139-.2256-.4775-.3389-.791-.3389-.252,0-.4731.0703-.6636.2109-.249.1816-.4453.4473-.5889.7959s-.2183.8457-.2241,1.4902c.1904-.29.4233-.5059.6987-.6465s.564-.2109.8657-.2109c.5273,0,.9761.1943,1.3467.582.3706.3887.5562.8906.5562,1.5059,0,.4043-.0874.7803-.2612,1.127-.1748.3477-.4141.6133-.7188.7979s-.6504.2773-1.0371.2773c-.6592,0-1.1968-.2432-1.6128-.7275-.416-.4854-.624-1.2842-.624-2.3975,0-1.2451.23-2.1514.6899-2.7168.4014-.4922.9419-.7383,1.6216-.7383.5068,0,.9219.1426,1.2456.4268s.5181.6768.5825,1.1777ZM10.7134,79.4373c0,.2725.0576.5332.1738.7822.1152.249.2773.4395.4854.5693.208.1309.4263.1953.6548.1953.334,0,.6211-.1348.8613-.4043s.3604-.6357.3604-1.0986c0-.4453-.1187-.7959-.356-1.0527-.2373-.2559-.5361-.3838-.8965-.3838-.3574,0-.6606.1279-.9097.3838-.249.2568-.3735.5928-.3735,1.0088Z" fill="#231f20" stroke-width="0"/><path d="M18.8589,76.6599l-.7866.0615c-.0703-.3105-.1699-.5361-.2988-.6768-.2139-.2256-.4775-.3389-.791-.3389-.252,0-.4731.0703-.6636.2109-.249.1816-.4453.4473-.5889.7959s-.2183.8457-.2241,1.4902c.1904-.29.4233-.5059.6987-.6465s.564-.2109.8657-.2109c.5273,0,.9761.1943,1.3467.582.3706.3887.5562.8906.5562,1.5059,0,.4043-.0874.7803-.2612,1.127-.1748.3477-.4141.6133-.7188.7979s-.6504.2773-1.0371.2773c-.6592,0-1.1968-.2432-1.6128-.7275-.416-.4854-.624-1.2842-.624-2.3975,0-1.2451.23-2.1514.6899-2.7168.4014-.4922.9419-.7383,1.6216-.7383.5068,0,.9219.1426,1.2456.4268s.5181.6768.5825,1.1777ZM15.6289,79.4373c0,.2725.0576.5332.1738.7822.1152.249.2773.4395.4854.5693.208.1309.4263.1953.6548.1953.334,0,.6211-.1348.8613-.4043s.3604-.6357.3604-1.0986c0-.4453-.1187-.7959-.356-1.0527-.2373-.2559-.5361-.3838-.8965-.3838-.3574,0-.6606.1279-.9097.3838-.249.2568-.3735.5928-.3735,1.0088Z" fill="#231f20" stroke-width="0"/><path d="M20.1133,81.5252v-.9014h.9009v.9014h-.9009Z" fill="#231f20" stroke-width="0"/><path d="M22.1329,75.9255v-.7598h4.1704v.6152c-.4102.4365-.8169,1.0166-1.2197,1.7402s-.7139,1.4678-.9336,2.2324c-.1582.5391-.2593,1.1299-.3032,1.7715h-.813c.0088-.5068.1084-1.1191.2988-1.8369s.4639-1.4102.8193-2.0771c.3564-.666.7349-1.2285,1.1362-1.6855h-3.1553Z" fill="#231f20" stroke-width="0"/><path d="M28.2129,78.031c-.3281-.1201-.5713-.291-.7295-.5137s-.2373-.4893-.2373-.7998c0-.4688.1685-.8633.5054-1.1826s.7852-.4795,1.3447-.4795c.5625,0,1.0151.1641,1.3579.4902.3428.3271.5142.7246.5142,1.1934,0,.2988-.0786.5586-.2349.7803-.1572.2207-.395.3916-.7144.5117.3955.1289.6968.3369.9028.624.207.2871.3101.6299.3101,1.0283,0,.5508-.1948,1.0137-.5845,1.3887-.3896.376-.9023.5635-1.5381.5635s-1.1484-.1885-1.5381-.5654c-.3896-.376-.5845-.8457-.5845-1.4082,0-.4189.106-.7695.3188-1.0527.2119-.2832.5146-.4756.9072-.5781ZM27.7998,79.6658c0,.2256.0532.4443.1602.6553s.2661.374.4771.4902c.2109.1152.438.1729.6812.1729.3779,0,.6899-.1211.936-.3643s.3691-.5527.3691-.9277c0-.3809-.127-.6953-.3804-.9443s-.5703-.374-.9512-.374c-.3721,0-.6807.123-.9248.3691-.2451.2461-.3672.5537-.3672.9229ZM28.0547,76.6912c0,.3047.0981.5537.2944.7471s.4512.29.7646.29c.3047,0,.5542-.0967.7495-.2881.1943-.1924.292-.4268.292-.7051,0-.291-.1006-.5342-.3008-.7324-.2012-.1973-.4507-.2969-.7495-.2969-.3018,0-.5522.0967-.7515.29s-.2988.4258-.2988.6953Z" fill="#231f20" stroke-width="0"/><path d="M34.5235,81.5252v-6.4434h.791v6.4434h-.791Z" fill="#231f20" stroke-width="0"/><path d="M37.1802,81.5252h-.7339v-6.4434h.791v2.2988c.334-.4189.7603-.6279,1.2788-.6279.2871,0,.5586.0576.8149.1729.2563.1162.4673.2783.6328.4883.1655.209.2954.4619.3892.7578s.1406.6123.1406.9492c0,.7998-.1978,1.418-.5933,1.8545-.3955.4375-.8701.6553-1.4238.6553-.5508,0-.9829-.2295-1.2964-.6904v.585ZM37.1714,79.156c0,.5596.0762.9639.2285,1.2129.249.4072.5859.6113,1.0107.6113.3457,0,.6445-.1504.8965-.4502.252-.3008.3779-.748.3779-1.3428,0-.6094-.1206-1.0596-.3628-1.3496-.2412-.29-.5337-.4346-.8765-.4346-.3457,0-.6445.1494-.8965.4502-.252.2998-.3779.7344-.3779,1.3027Z" fill="#231f20" stroke-width="0"/><path d="M41.0494,80.1316l.7822-.123c.0439.3135.166.5537.3667.7207s.4814.251.8418.251c.3633,0,.6328-.0742.8086-.2217.1758-.1484.2637-.3223.2637-.5215,0-.1787-.0776-.3193-.2329-.4219-.1084-.0703-.3779-.1592-.8086-.2676-.5801-.1465-.9819-.2734-1.2065-.3799-.2236-.1074-.394-.2559-.5098-.4443-.1157-.1895-.1733-.3975-.1733-.626,0-.208.0474-.4014.1431-.5781.0947-.1777.2246-.3242.3887-.4414.123-.0908.2905-.168.5029-.2314.2124-.0625.4404-.0938.6836-.0938.3662,0,.6875.0527.9648.1582.2764.1055.481.248.6128.4277.1318.1807.2227.4219.2725.7236l-.7734.1055c-.0352-.2402-.1372-.4277-.3052-.5625-.1689-.1348-.4067-.2021-.7144-.2021-.3633,0-.6226.0596-.7778.1797s-.2329.2607-.2329.4219c0,.1025.0322.1953.0967.2773.0645.085.1655.1553.3032.2109.0791.0293.312.0967.6987.2021.5596.1494.9497.2715,1.1714.3662.2207.0957.3945.2344.5205.416s.189.4072.189.6768c0,.2637-.0767.5117-.231.7451-.1533.2324-.3755.4131-.6655.54-.29.1279-.6182.1914-.9844.1914-.6064,0-1.0688-.126-1.3862-.3779-.3184-.252-.521-.626-.6089-1.1211Z" fill="#231f20" stroke-width="0"/><path d="M49.6983,83.4197c-.4365-.5508-.8057-1.1953-1.1074-1.9346-.3018-.7383-.4526-1.5029-.4526-2.2939,0-.6973.1128-1.3652.3384-2.0039.2637-.7412.6709-1.4795,1.2217-2.2148h.5669c-.3545.6094-.5889,1.0439-.7031,1.3047-.1787.4053-.3193.8271-.4219,1.2666-.126.5479-.189,1.0986-.189,1.6523,0,1.4092.438,2.8174,1.314,4.2236h-.5669Z" fill="#231f20" stroke-width="0"/><path d="M50.878,79.824l.791-.1055c.0908.4482.2451.7715.4639.9697.2178.1973.4839.2959.7974.2959.3721,0,.686-.1289.9429-.3867.2559-.2578.3843-.5771.3843-.958,0-.3633-.1187-.6621-.356-.8984s-.5391-.3535-.9053-.3535c-.1494,0-.3354.0293-.5581.0879l.0879-.6943c.0527.0059.0952.0088.1274.0088.3369,0,.6401-.0879.9097-.2637s.4043-.4473.4043-.8135c0-.29-.0981-.5303-.2944-.7207s-.4497-.2861-.7603-.2861c-.3076,0-.564.0967-.769.29s-.3369.4834-.3955.8711l-.791-.1406c.0967-.5303.3164-.9414.6592-1.2334.3428-.291.769-.4375,1.2788-.4375.3516,0,.6753.0762.9712.2266.2959.1514.522.3564.6787.6172s.2354.5381.2354.8311c0,.2783-.0747.5322-.2241.7607s-.3706.4102-.6636.5449c.3809.0879.6768.2695.8877.5469.2109.2764.3164.623.3164,1.0391,0,.5625-.2051,1.04-.6152,1.4307-.4102.3916-.9287.5869-1.5557.5869-.5654,0-1.0352-.168-1.4082-.5059-.374-.3369-.5869-.7734-.6396-1.3096Z" fill="#231f20" stroke-width="0"/><path d="M55.7891,78.3474c0-.7617.0781-1.375.2349-1.8389.1567-.4648.3896-.8232.6992-1.0752.3086-.252.6978-.3779,1.1665-.3779.3457,0,.6489.0703.9097.209.2607.1396.4761.3398.646.6025.1699.2617.3032.5811.3999.958.0967.376.145.8838.145,1.5225,0,.7559-.0776,1.3662-.2329,1.8311-.1553.4639-.3877.8232-.6963,1.0762-.3096.2539-.6997.3809-1.1714.3809-.6211,0-1.1089-.2227-1.4634-.6689-.4248-.5361-.6372-1.4092-.6372-2.6191ZM56.6021,78.3474c0,1.0576.1235,1.7617.3711,2.1123.2476.3496.5532.5244.9165.5244s.6685-.1758.9165-.5273c.2471-.3516.3711-1.0547.3711-2.1094,0-1.0605-.124-1.7646-.3711-2.1143-.248-.3486-.5562-.5225-.9253-.5225-.3633,0-.6533.1533-.8701.4609-.2725.3936-.4087,1.1182-.4087,2.1758Z" fill="#231f20" stroke-width="0"/><path d="M61.1485,81.5252v-.9014h.9009v.9014h-.9009Z" fill="#231f20" stroke-width="0"/><path d="M63.1197,79.824l.791-.1055c.0908.4482.2451.7715.4639.9697.2178.1973.4839.2959.7974.2959.3721,0,.686-.1289.9429-.3867.2559-.2578.3843-.5771.3843-.958,0-.3633-.1187-.6621-.356-.8984s-.5391-.3535-.9053-.3535c-.1494,0-.3354.0293-.5581.0879l.0879-.6943c.0527.0059.0952.0088.1274.0088.3369,0,.6401-.0879.9097-.2637s.4043-.4473.4043-.8135c0-.29-.0981-.5303-.2944-.7207s-.4497-.2861-.7603-.2861c-.3076,0-.564.0967-.769.29s-.3369.4834-.3955.8711l-.791-.1406c.0967-.5303.3164-.9414.6592-1.2334.3428-.291.769-.4375,1.2788-.4375.3516,0,.6753.0762.9712.2266.2959.1514.522.3564.6787.6172s.2354.5381.2354.8311c0,.2783-.0747.5322-.2241.7607s-.3706.4102-.6636.5449c.3809.0879.6768.2695.8877.5469.2109.2764.3164.623.3164,1.0391,0,.5625-.2051,1.04-.6152,1.4307-.4102.3916-.9287.5869-1.5557.5869-.5654,0-1.0352-.168-1.4082-.5059-.374-.3369-.5869-.7734-.6396-1.3096Z" fill="#231f20" stroke-width="0"/><path d="M68.149,80.0349l.7603-.0703c.0645.3574.1875.6172.3691.7783s.4146.2412.6987.2412c.2432,0,.4561-.0557.6396-.167.1826-.1113.333-.2598.4502-.4453.1172-.1865.2153-.4375.2944-.7539s.1187-.6387.1187-.9668c0-.0352-.0015-.0879-.0044-.1582-.1582.252-.3745.4561-.6479.6133-.2744.1562-.5708.2344-.8901.2344-.5332,0-.9844-.1934-1.3535-.5801s-.5537-.8965-.5537-1.5293c0-.6533.1924-1.1797.5776-1.5781s.8682-.5977,1.4482-.5977c.4189,0,.8018.1133,1.1494.3389.3467.2256.6104.5469.791.9648.1797.417.27,1.0215.27,1.8125,0,.8232-.0894,1.4795-.2681,1.9668-.1787.4883-.4448.8594-.7979,1.1143s-.7666.3828-1.2412.3828c-.5039,0-.9155-.1406-1.2349-.4199-.3193-.2803-.5112-.6738-.5757-1.1807ZM71.3877,77.1921c0-.4541-.1206-.8154-.3628-1.082-.2412-.2666-.5322-.3994-.8721-.3994-.3516,0-.6577.1436-.9185.4307s-.3911.6592-.3911,1.1162c0,.4102.1235.7432.3711,1,.2476.2559.5532.3848.9165.3848.3662,0,.667-.1289.9028-.3848.2358-.2568.354-.6113.354-1.0654Z" fill="#231f20" stroke-width="0"/><path d="M75.5806,81.5252v-6.4434h.791v3.6748l1.8716-1.8984h1.0254l-1.7852,1.7314,1.9648,2.9355h-.9766l-1.542-2.3867-.5581.5361v1.8506h-.791Z" fill="#231f20" stroke-width="0"/><path d="M79.8409,81.9119l.7686.1143c.0322.2373.1221.4102.2686.5186.1963.1465.4639.2197.8037.2197.3662,0,.6494-.0732.8486-.2197s.334-.3516.4043-.6152c.041-.1611.0596-.499.0576-1.0156-.3467.4082-.7773.6113-1.293.6113-.6406,0-1.1377-.2314-1.4893-.6943s-.5273-1.0186-.5273-1.666c0-.4453.0801-.8564.2412-1.2324.1611-.377.3955-.667.7012-.8721.3066-.2051.666-.3076,1.0791-.3076.5508,0,1.0049.2227,1.3623.668v-.5625h.7295v4.0342c0,.7266-.0742,1.2412-.2217,1.5449-.1484.3027-.3828.543-.7031.7188-.3213.1758-.7158.2637-1.1846.2637-.5566,0-1.0068-.126-1.3486-.376-.3438-.251-.5088-.6279-.4971-1.1318ZM80.4961,79.1082c0,.6123.1211,1.0586.3643,1.3398s.5479.4219.9141.4219c.3633,0,.668-.1396.9141-.4189.2461-.2803.3691-.7188.3691-1.3164,0-.5713-.127-1.002-.3799-1.292-.2539-.29-.5596-.4355-.916-.4355-.3516,0-.6504.1426-.8965.4287-.2461.2852-.3691.71-.3691,1.2725Z" fill="#231f20" stroke-width="0"/><path d="M85.419,83.4197h-.5664c.876-1.4062,1.3145-2.8145,1.3145-4.2236,0-.5508-.0635-1.0977-.1895-1.6396-.0996-.4395-.2393-.8613-.418-1.2656-.1133-.2637-.3496-.7031-.707-1.3184h.5664c.5508.7354.959,1.4736,1.2227,2.2148.2246.6387.3379,1.3066.3379,2.0039,0,.791-.1514,1.5557-.4551,2.2939-.3027.7393-.6719,1.3838-1.1055,1.9346Z" fill="#231f20" stroke-width="0"/><polyline points="46.5218 68.7645 71.2406 54.3053 71.2406 47.9049" fill="#fff" stroke="#221f1f" stroke-linecap="round" stroke-linejoin="round" stroke-width=".7655"/><polyline points="24.5296 49.5001 49.2912 35.2259 71.2272 47.9049 46.4766 62.1718" fill="#fff" stroke="#221f1f" stroke-linecap="round" stroke-linejoin="round" stroke-width=".7655"/><polygon points="46.473 68.7401 46.473 62.1766 24.5326 49.5038 24.4992 55.7879 46.473 68.7401" fill="#fff" stroke="#221f1f" stroke-linecap="round" stroke-linejoin="round" stroke-width=".7655"/></svg>