<?xml version="1.0" encoding="UTF-8"?><svg xmlns="http://www.w3.org/2000/svg" width="4.75in" height="3.75in" viewBox="0 0 342 270"><g id="a"><g id="b"><line x1="106.56" y1="212.132" x2="106.056" y2="211.855" fill="#fff" stroke="#231f20" stroke-linecap="round" stroke-linejoin="round" stroke-width=".5"/></g><g id="c"><line x1="102.848" y1="210.036" x2="102.344" y2="209.719" fill="#fff" stroke="#231f20" stroke-linecap="round" stroke-linejoin="round" stroke-width=".5"/></g><g id="d"><line x1="99.141" y1="207.902" x2="98.652" y2="207.622" fill="#fff" stroke="#231f20" stroke-linecap="round" stroke-linejoin="round" stroke-width=".5"/></g><g id="e"><line x1="95.452" y1="205.761" x2="94.906" y2="205.479" fill="#fff" stroke="#231f20" stroke-linecap="round" stroke-linejoin="round" stroke-width=".5"/></g><g id="f"><line x1="54.784" y1="182.484" x2="54.303" y2="182.175" fill="#fff" stroke="#231f20" stroke-linecap="round" stroke-linejoin="round" stroke-width=".5"/></g><g id="g"><line x1="51.098" y1="180.346" x2="50.588" y2="180.06" fill="#fff" stroke="#231f20" stroke-linecap="round" stroke-linejoin="round" stroke-width=".5"/></g><g id="h"><line x1="47.386" y1="178.225" x2="46.881" y2="177.922" fill="#fff" stroke="#231f20" stroke-linecap="round" stroke-linejoin="round" stroke-width=".5"/></g><g id="i"><line x1="43.674" y1="176.087" x2="43.172" y2="175.804" fill="#fff" stroke="#231f20" stroke-linecap="round" stroke-linejoin="round" stroke-width=".5"/></g><g id="j"><line x1="42.406" y1="179.654" x2="42.065" y2="175.741" fill="#fff" stroke="#231f20" stroke-linecap="round" stroke-linejoin="round" stroke-width=".5"/></g><g id="k"><line x1="44.056" y1="180.62" x2="43.674" y2="176.087" fill="#fff" stroke="#231f20" stroke-linecap="round" stroke-linejoin="round" stroke-width=".5"/></g><g id="l"><line x1="46.097" y1="181.79" x2="45.772" y2="177.861" fill="#fff" stroke="#231f20" stroke-linecap="round" stroke-linejoin="round" stroke-width=".5"/></g><g id="m"><line x1="47.769" y1="182.74" x2="47.386" y2="178.225" fill="#fff" stroke="#231f20" stroke-linecap="round" stroke-linejoin="round" stroke-width=".5"/></g><g id="n"><line x1="49.804" y1="183.91" x2="49.482" y2="179.999" fill="#fff" stroke="#231f20" stroke-linecap="round" stroke-linejoin="round" stroke-width=".5"/></g><g id="o"><line x1="51.476" y1="184.879" x2="51.098" y2="180.346" fill="#fff" stroke="#231f20" stroke-linecap="round" stroke-linejoin="round" stroke-width=".5"/></g><g id="p"><line x1="53.514" y1="186.048" x2="53.171" y2="182.109" fill="#fff" stroke="#231f20" stroke-linecap="round" stroke-linejoin="round" stroke-width=".5"/></g><g id="q"><line x1="55.167" y1="186.996" x2="54.784" y2="182.484" fill="#fff" stroke="#231f20" stroke-linecap="round" stroke-linejoin="round" stroke-width=".5"/></g><g id="r"><line x1="94.159" y1="209.352" x2="93.837" y2="205.42" fill="#fff" stroke="#231f20" stroke-linecap="round" stroke-linejoin="round" stroke-width=".5"/></g><g id="s"><line x1="95.83" y1="210.3" x2="95.452" y2="205.761" fill="#fff" stroke="#231f20" stroke-linecap="round" stroke-linejoin="round" stroke-width=".5"/></g><g id="t"><line x1="97.868" y1="211.464" x2="97.528" y2="207.538" fill="#fff" stroke="#231f20" stroke-linecap="round" stroke-linejoin="round" stroke-width=".5"/></g><g id="u"><line x1="99.524" y1="212.415" x2="99.141" y2="207.902" fill="#fff" stroke="#231f20" stroke-linecap="round" stroke-linejoin="round" stroke-width=".5"/></g><g id="v"><line x1="101.557" y1="213.587" x2="101.232" y2="209.674" fill="#fff" stroke="#231f20" stroke-linecap="round" stroke-linejoin="round" stroke-width=".5"/></g><g id="w"><line x1="103.234" y1="214.556" x2="102.848" y2="210.036" fill="#fff" stroke="#231f20" stroke-linecap="round" stroke-linejoin="round" stroke-width=".5"/></g><g id="x"><line x1="105.269" y1="215.723" x2="104.95" y2="211.791" fill="#fff" stroke="#231f20" stroke-linecap="round" stroke-linejoin="round" stroke-width=".5"/></g><g id="y"><line x1="106.941" y1="216.676" x2="106.56" y2="212.132" fill="#fff" stroke="#231f20" stroke-linecap="round" stroke-linejoin="round" stroke-width=".5"/></g><g id="z"><line x1="42.065" y1="175.741" x2="56.381" y2="166.994" fill="#fff" stroke="#231f20" stroke-linecap="round" stroke-linejoin="round" stroke-width=".5"/></g><g id="aa"><line x1="43.674" y1="176.087" x2="57.85" y2="167.431" fill="#fff" stroke="#231f20" stroke-linecap="round" stroke-linejoin="round" stroke-width=".5"/></g><g id="ab"><line x1="45.772" y1="177.861" x2="59.542" y2="169.451" fill="#fff" stroke="#231f20" stroke-linecap="round" stroke-linejoin="round" stroke-width=".5"/></g><g id="ac"><line x1="47.386" y1="178.225" x2="60.922" y2="169.957" fill="#fff" stroke="#231f20" stroke-linecap="round" stroke-linejoin="round" stroke-width=".5"/></g><g id="ad"><line x1="49.482" y1="179.999" x2="62.985" y2="171.746" fill="#fff" stroke="#231f20" stroke-linecap="round" stroke-linejoin="round" stroke-width=".5"/></g><g id="ae"><line x1="51.098" y1="180.346" x2="63.694" y2="172.641" fill="#fff" stroke="#231f20" stroke-linecap="round" stroke-linejoin="round" stroke-width=".5"/></g><g id="af"><line x1="53.171" y1="182.109" x2="66.021" y2="174.259" fill="#fff" stroke="#231f20" stroke-linecap="round" stroke-linejoin="round" stroke-width=".5"/></g><g id="ag"><line x1="54.784" y1="182.484" x2="67.177" y2="174.904" fill="#fff" stroke="#231f20" stroke-linecap="round" stroke-linejoin="round" stroke-width=".5"/></g><g id="ah"><line x1="93.837" y1="205.42" x2="106.095" y2="197.928" fill="#fff" stroke="#231f20" stroke-linecap="round" stroke-linejoin="round" stroke-width=".5"/></g><g id="ai"><line x1="95.452" y1="205.761" x2="107.342" y2="198.492" fill="#fff" stroke="#231f20" stroke-linecap="round" stroke-linejoin="round" stroke-width=".5"/></g><g id="aj"><line x1="97.528" y1="207.538" x2="109.894" y2="199.984" fill="#fff" stroke="#231f20" stroke-linecap="round" stroke-linejoin="round" stroke-width=".5"/></g><g id="ak"><line x1="99.141" y1="207.902" x2="110.846" y2="200.747" fill="#fff" stroke="#231f20" stroke-linecap="round" stroke-linejoin="round" stroke-width=".5"/></g><g id="al"><line x1="101.232" y1="209.674" x2="113.227" y2="202.338" fill="#fff" stroke="#231f20" stroke-linecap="round" stroke-linejoin="round" stroke-width=".5"/></g><g id="am"><line x1="102.848" y1="210.036" x2="114.332" y2="203.016" fill="#fff" stroke="#231f20" stroke-linecap="round" stroke-linejoin="round" stroke-width=".5"/></g><g id="an"><line x1="104.95" y1="211.791" x2="117.014" y2="204.416" fill="#fff" stroke="#231f20" stroke-linecap="round" stroke-linejoin="round" stroke-width=".5"/></g><g id="ao"><line x1="106.56" y1="212.132" x2="117.677" y2="205.342" fill="#fff" stroke="#231f20" stroke-linecap="round" stroke-linejoin="round" stroke-width=".5"/></g><g id="ap"><line x1="134.4" y1="207.538" x2="134.4" y2="211.451" fill="#fff" stroke="#231f20" stroke-linecap="round" stroke-linejoin="round" stroke-width=".5"/></g><g id="aq"><line x1="121.7" y1="235.095" x2="13.255" y2="172.923" fill="#fff" stroke="#231f20" stroke-linecap="round" stroke-linejoin="round" stroke-width=".5"/></g><g id="ar"><line x1="4.644" y1="182.175" x2="30.855" y2="196.108" fill="#fff" stroke="#231f20" stroke-linecap="round" stroke-linejoin="round" stroke-width=".5"/></g><g id="as"><line x1="130.225" y1="265.846" x2="128.174" y2="264.658" fill="#fff" stroke="#231f20" stroke-linecap="round" stroke-linejoin="round" stroke-width=".5"/></g><g id="at"><line x1="36.297" y1="209.972" x2="34.359" y2="208.869" fill="#fff" stroke="#231f20" stroke-linecap="round" stroke-linejoin="round" stroke-width=".5"/></g><g id="au"><line x1="131.377" y1="263.845" x2="129.32" y2="262.66" fill="#fff" stroke="#231f20" stroke-linecap="round" stroke-linejoin="round" stroke-width=".5"/></g><g id="av"><line x1="39.402" y1="213.484" x2="36.563" y2="210.162" fill="#fff" stroke="#231f20" stroke-linecap="round" stroke-linejoin="round" stroke-width=".5"/></g><g id="aw"><line x1="41.419" y1="208.787" x2="42.348" y2="209.312" fill="#fff" stroke="#231f20" stroke-linecap="round" stroke-linejoin="round" stroke-width=".5"/></g><g id="ax"><polyline points="33.939 203.773 35.892 204.876 38.778 208.343 40.006 208.969" fill="#fff" stroke="#231f20" stroke-linecap="round" stroke-linejoin="round" stroke-width=".5"/></g><g id="ay"><line x1="39.217" y1="205.888" x2="41.419" y2="208.787" fill="#fff" stroke="#231f20" stroke-linecap="round" stroke-linejoin="round" stroke-width=".5"/></g><g id="az"><line x1="31.959" y1="204.718" x2="32.003" y2="203.989" fill="#fff" stroke="#231f20" stroke-linecap="round" stroke-linejoin="round" stroke-width=".5"/></g><g id="ba"><line x1="131.635" y1="264.737" x2="131.635" y2="264.598" fill="#fff" stroke="#231f20" stroke-linecap="round" stroke-linejoin="round" stroke-width=".5"/></g><g id="bb"><line x1="131.635" y1="264.471" x2="131.635" y2="264.331" fill="#fff" stroke="#231f20" stroke-linecap="round" stroke-linejoin="round" stroke-width=".5"/></g><g id="bc"><line x1="131.635" y1="264.737" x2="131.635" y2="264.471" fill="#fff" stroke="#231f20" stroke-linecap="round" stroke-linejoin="round" stroke-width=".5"/></g><g id="bd"><line x1="131.133" y1="265.603" x2="130.933" y2="265.738" fill="#fff" stroke="#231f20" stroke-linecap="round" stroke-linejoin="round" stroke-width=".5"/></g><g id="be"><path d="M131.133,265.603c.04-.039.121-.1.182-.166.061-.055.124-.135.142-.198.055-.106.098-.18.121-.261.021-.082.021-.182.056-.24" fill="#fff" stroke="#231f20" stroke-linecap="round" stroke-linejoin="round" stroke-width=".5"/></g><g id="bf"><path d="M131.635,264.331c0-.058,0-.1-.034-.161,0-.045-.021-.1-.045-.143-.098-.14-.158-.158-.18-.182" fill="#fff" stroke="#231f20" stroke-linecap="round" stroke-linejoin="round" stroke-width=".5"/></g><g id="bg"><path d="M130.225,265.846c.039.018.103.037.142.037.082.021.14.021.18,0,.087,0,.121-.019.185-.037.063-.045.119-.066.201-.108" fill="#fff" stroke="#231f20" stroke-linecap="round" stroke-linejoin="round" stroke-width=".5"/></g><g id="bh"><path d="M129.964,265.361c0,.042,0,.1.024.142,0,.061.037.1.058.156.1.121.14.142.18.187" fill="#fff" stroke="#231f20" stroke-linecap="round" stroke-linejoin="round" stroke-width=".5"/></g><g id="bi"><path d="M131.377,263.845c-.145-.056-.185-.077-.225-.077-.074,0-.161.021-.219.055-.106.021-.18.064-.264.124-.1.04-.161.122-.238.201-.084.108-.121.182-.206.283-.061.105-.1.198-.158.306-.042.098-.079.219-.103.322v.301" fill="#fff" stroke="#231f20" stroke-linecap="round" stroke-linejoin="round" stroke-width=".5"/></g><g id="bj"><path d="M34.359,208.869c-.357-.206-.66-.462-.943-.763-.285-.304-.546-.665-.766-1.074-.243-.357-.401-.761-.531-1.188-.116-.364-.161-.75-.161-1.125" fill="#fff" stroke="#231f20" stroke-linecap="round" stroke-linejoin="round" stroke-width=".5"/></g><g id="bk"><line x1="36.563" y1="210.162" x2="36.315" y2="209.999" fill="#fff" stroke="#231f20" stroke-linecap="round" stroke-linejoin="round" stroke-width=".5"/></g><g id="bl"><path d="M31.959,204.718c0-.121.024-.269.045-.383,0,0,.533-1.21,1.552-.747.121.037.24.101.383.185" fill="#fff" stroke="#231f20" stroke-linecap="round" stroke-linejoin="round" stroke-width=".5"/></g><g id="bm"><path d="M33.088,202.482c-.195.018-.411.089-.52.177,0,0-.582.429-.565,1.331" fill="#fff" stroke="#231f20" stroke-linecap="round" stroke-linejoin="round" stroke-width=".5"/></g><g id="bn"><path d="M40.006,208.969c.261.158.505.359.726.589.259.237.486.523.686.805.222.301.401.644.525.969.143.32.261.623.32.969.084.275.106.576.084.887,0,0-.147,1.031-1.228,1.146-.232,0-.729-.264-.729-.264l-.99-.586" fill="#fff" stroke="#231f20" stroke-linecap="round" stroke-linejoin="round" stroke-width=".5"/></g><g id="bo"><path d="M36.297,209.972c-.222-.116-.42-.275-.602-.457-.222-.203-.42-.401-.607-.626-.346-.467-.665-1.009-.887-1.55,0,0-1.362-3.211-.103-2.925.185.061.261.098.325.142l.99.536.544.914.325,3.952" fill="#fff" stroke="#231f20" stroke-linecap="round" stroke-linejoin="round" stroke-width=".5"/></g><g id="bp"><path d="M44.481,215.644c-.061.042-.201.064-.298.098-.106,0-.227.024-.322,0-.124,0-.243-.019-.386-.055-.121-.042-.243-.085-.388-.14l-.517-.24-.222-.124-.987-.57-.208-.245" fill="#fff" stroke="#231f20" stroke-linecap="round" stroke-linejoin="round" stroke-width=".5"/></g><g id="bq"><path d="M42.348,209.312c.28.164.523.338.782.586.283.219.507.505.731.805.217.304.444.605.62.948.182.319.346.665.467,1.024.098.311.158.644.219.99.016.285.061.586,0,.869-.016.145-.061.264-.079.364-.042.116-.098.219-.14.322-.064.084-.122.158-.206.238-.079.063-.153.121-.261.185" fill="#fff" stroke="#231f20" stroke-linecap="round" stroke-linejoin="round" stroke-width=".5"/></g><g id="br"><path d="M36.12,208.283s-.045-.055-.127-.158c-.101-.1-.195-.264-.298-.428-.1-.18-.203-.341-.267-.523-.058-.158-.116-.338-.137-.499,0,0-.184-1.053.293-1.212" fill="#fff" stroke="#231f20" stroke-linecap="round" stroke-linejoin="round" stroke-width=".5"/></g><g id="bs"><polyline points="45.313 216.409 45.831 216.676 46.316 216.85 46.784 216.974 47.264 217.019" fill="#fff" stroke="#231f20" stroke-linecap="round" stroke-linejoin="round" stroke-width=".5"/></g><g id="bt"><polyline points="83.571 236.145 83.798 236.243 84.419 236.473 85.026 236.608 85.612 236.571 86.174 236.447 86.394 236.37" fill="#fff" stroke="#231f20" stroke-linecap="round" stroke-linejoin="round" stroke-width=".5"/></g><g id="bu"><path d="M125.106,269.025L15.671,206.286s-.382-.324-.41-1.249" fill="#fff" stroke="#231f20" stroke-linecap="round" stroke-linejoin="round" stroke-width=".5"/></g><g id="bv"><line x1="125.892" y1="267.856" x2="126.392" y2="268.159" fill="#fff" stroke="#231f20" stroke-linecap="round" stroke-linejoin="round" stroke-width=".5"/></g><g id="bw"><line x1="14.992" y1="204.251" x2="14.461" y2="203.968" fill="#fff" stroke="#231f20" stroke-linecap="round" stroke-linejoin="round" stroke-width=".5"/></g><g id="bx"><line x1="44.138" y1="215.741" x2="45.313" y2="216.409" fill="#fff" stroke="#231f20" stroke-linecap="round" stroke-linejoin="round" stroke-width=".5"/></g><g id="by"><line x1="49.483" y1="216.571" x2="83.571" y2="236.127" fill="#fff" stroke="#231f20" stroke-linecap="round" stroke-linejoin="round" stroke-width=".5"/></g><g id="bz"><line x1="135.633" y1="264.452" x2="133.998" y2="263.481" fill="#fff" stroke="#231f20" stroke-linecap="round" stroke-linejoin="round" stroke-width=".5"/></g><g id="ca"><line x1="29.36" y1="202.859" x2="14.461" y2="194.334" fill="#fff" stroke="#231f20" stroke-linecap="round" stroke-linejoin="round" stroke-width=".5"/></g><g id="cb"><line x1="31.959" y1="208.75" x2="38.609" y2="212.571" fill="#fff" stroke="#231f20" stroke-linecap="round" stroke-linejoin="round" stroke-width=".5"/></g><g id="cc"><line x1="31.518" y1="208.449" x2="31.959" y2="208.75" fill="#fff" stroke="#231f20" stroke-linecap="round" stroke-linejoin="round" stroke-width=".5"/></g><g id="cd"><line x1="107.991" y1="240.259" x2="122.199" y2="239.631" fill="#fff" stroke="#231f20" stroke-linecap="round" stroke-linejoin="round" stroke-width=".5"/></g><g id="ce"><line x1="9.542" y1="178.207" x2="9.621" y2="178.241" fill="#fff" stroke="#231f20" stroke-linecap="round" stroke-linejoin="round" stroke-width=".5"/></g><g id="cf"><line x1="9.685" y1="178.262" x2="9.788" y2="178.31" fill="#fff" stroke="#231f20" stroke-linecap="round" stroke-linejoin="round" stroke-width=".5"/></g><g id="cg"><line x1="5.373" y1="187.986" x2="29.263" y2="201.671" fill="#fff" stroke="#231f20" stroke-linecap="round" stroke-linejoin="round" stroke-width=".5"/></g><g id="ch"><line x1="4.951" y1="187.176" x2="4.138" y2="186.73" fill="#fff" stroke="#231f20" stroke-linecap="round" stroke-linejoin="round" stroke-width=".5"/></g><g id="ci"><line x1="3.734" y1="181.634" x2="4.644" y2="182.175" fill="#fff" stroke="#231f20" stroke-linecap="round" stroke-linejoin="round" stroke-width=".5"/></g><g id="cj"><line x1="9.621" y1="178.241" x2="110.003" y2="235.805" fill="#fff" stroke="#231f20" stroke-linecap="round" stroke-linejoin="round" stroke-width=".5"/></g><g id="ck"><line x1="12.79" y1="172.62" x2="13.255" y2="172.923" fill="#fff" stroke="#231f20" stroke-linecap="round" stroke-linejoin="round" stroke-width=".5"/></g><g id="cl"><line x1="122.183" y1="235.361" x2="121.7" y2="235.095" fill="#fff" stroke="#231f20" stroke-linecap="round" stroke-linejoin="round" stroke-width=".5"/></g><g id="cm"><line x1="3.699" y1="186.104" x2="3.25" y2="181.003" fill="#fff" stroke="#231f20" stroke-linecap="round" stroke-linejoin="round" stroke-width=".5"/></g><g id="cn"><line x1="13.054" y1="192.375" x2="13.917" y2="202.986" fill="#fff" stroke="#231f20" stroke-linecap="round" stroke-linejoin="round" stroke-width=".5"/></g><g id="co"><line x1="14.306" y1="193.08" x2="15.275" y2="205.159" fill="#fff" stroke="#231f20" stroke-linecap="round" stroke-linejoin="round" stroke-width=".5"/></g><g id="cp"><line x1="13.231" y1="180.301" x2="12.589" y2="172.377" fill="#fff" stroke="#231f20" stroke-linecap="round" stroke-linejoin="round" stroke-width=".5"/></g><g id="cq"><line x1="132.602" y1="230.221" x2="132.142" y2="229.996" fill="#fff" stroke="#231f20" stroke-linecap="round" stroke-linejoin="round" stroke-width=".5"/></g><g id="cr"><line x1="21.154" y1="167.5" x2="129.578" y2="229.65" fill="#fff" stroke="#231f20" stroke-linecap="round" stroke-linejoin="round" stroke-width=".5"/></g><g id="cs"><line x1="66.238" y1="189.436" x2="85.955" y2="200.739" fill="#fff" stroke="#231f20" stroke-linecap="round" stroke-linejoin="round" stroke-width=".5"/></g><g id="ct"><line x1="86.101" y1="200.608" x2="93.776" y2="204.795" fill="#fff" stroke="#231f20" stroke-linecap="round" stroke-linejoin="round" stroke-width=".5"/></g><g id="cu"><line x1="21.154" y1="166.294" x2="21.556" y2="166.568" fill="#fff" stroke="#231f20" stroke-linecap="round" stroke-linejoin="round" stroke-width=".5"/></g><g id="cv"><polyline points="29.543 205.001 29.646 205.523 29.865 206.228 30.15 206.867 30.533 207.48 30.974 207.997 31.518 208.449" fill="#fff" stroke="#231f20" stroke-linecap="round" stroke-linejoin="round" stroke-width=".5"/></g><g id="cw"><line x1="29.543" y1="204.982" x2="29.099" y2="199.472" fill="#fff" stroke="#231f20" stroke-linecap="round" stroke-linejoin="round" stroke-width=".5"/></g><g id="cx"><line x1="47.264" y1="217.019" x2="47.769" y2="216.974" fill="#fff" stroke="#231f20" stroke-linecap="round" stroke-linejoin="round" stroke-width=".5"/></g><g id="cy"><line x1="130.587" y1="214.741" x2="144.562" y2="222.743" fill="#fff" stroke="#231f20" stroke-linecap="round" stroke-linejoin="round" stroke-width=".5"/></g><g id="cz"><line x1="134.481" y1="216.061" x2="130.532" y2="213.793" fill="#fff" stroke="#231f20" stroke-linecap="round" stroke-linejoin="round" stroke-width=".5"/></g><g id="da"><line x1="134.181" y1="212.338" x2="145.988" y2="219.126" fill="#fff" stroke="#231f20" stroke-linecap="round" stroke-linejoin="round" stroke-width=".5"/></g><g id="db"><line x1="134.4" y1="207.538" x2="138.373" y2="209.795" fill="#fff" stroke="#231f20" stroke-linecap="round" stroke-linejoin="round" stroke-width=".5"/></g><g id="dc"><line x1="29.543" y1="204.982" x2="29.543" y2="205.001" fill="#fff" stroke="#231f20" stroke-linecap="round" stroke-linejoin="round" stroke-width=".5"/></g><g id="dd"><line x1="47.769" y1="216.974" x2="48.313" y2="216.869" fill="#fff" stroke="#231f20" stroke-linecap="round" stroke-linejoin="round" stroke-width=".5"/></g><g id="de"><line x1="132.786" y1="261.168" x2="131.514" y2="258.881" fill="#fff" stroke="#231f20" stroke-linecap="round" stroke-linejoin="round" stroke-width=".5"/></g><g id="df"><line x1="70.715" y1="191.932" x2="69.415" y2="176.024" fill="#fff" stroke="#231f20" stroke-linecap="round" stroke-linejoin="round" stroke-width=".5"/></g><g id="dg"><line x1="86.28" y1="204.837" x2="85.955" y2="200.739" fill="#fff" stroke="#231f20" stroke-linecap="round" stroke-linejoin="round" stroke-width=".5"/></g><g id="dh"><line x1="97.121" y1="202.743" x2="96.267" y2="192.463" fill="#fff" stroke="#231f20" stroke-linecap="round" stroke-linejoin="round" stroke-width=".5"/></g><g id="di"><line x1="131.398" y1="258.525" x2="129.945" y2="240.705" fill="#fff" stroke="#231f20" stroke-linecap="round" stroke-linejoin="round" stroke-width=".5"/></g><g id="dj"><line x1="130.125" y1="230.617" x2="130.125" y2="230.522" fill="#fff" stroke="#231f20" stroke-linecap="round" stroke-linejoin="round" stroke-width=".5"/></g><g id="dk"><line x1="29.146" y1="199.179" x2="30.348" y2="196.615" fill="#fff" stroke="#231f20" stroke-linecap="round" stroke-linejoin="round" stroke-width=".5"/></g><g id="dl"><line x1="130.587" y1="214.741" x2="130.532" y2="213.793" fill="#fff" stroke="#231f20" stroke-linecap="round" stroke-linejoin="round" stroke-width=".5"/></g><g id="dm"><line x1="133.877" y1="237.27" x2="136.071" y2="264.149" fill="#fff" stroke="#231f20" stroke-linecap="round" stroke-linejoin="round" stroke-width=".5"/></g><g id="dn"><line x1="134.481" y1="216.061" x2="134.181" y2="212.338" fill="#fff" stroke="#231f20" stroke-linecap="round" stroke-linejoin="round" stroke-width=".5"/></g><g id="do"><line x1="137.505" y1="227.837" x2="137.423" y2="227.076" fill="#fff" stroke="#231f20" stroke-linecap="round" stroke-linejoin="round" stroke-width=".5"/></g><g id="dp"><line x1="137.708" y1="228.124" x2="138.212" y2="234.554" fill="#fff" stroke="#231f20" stroke-linecap="round" stroke-linejoin="round" stroke-width=".5"/></g><g id="dq"><line x1="146.196" y1="221.708" x2="145.988" y2="219.126" fill="#fff" stroke="#231f20" stroke-linecap="round" stroke-linejoin="round" stroke-width=".5"/></g><g id="dr"><line x1="30.509" y1="196.428" x2="30.855" y2="196.127" fill="#fff" stroke="#231f20" stroke-linecap="round" stroke-linejoin="round" stroke-width=".5"/></g><g id="ds"><line x1="30.855" y1="196.127" x2="30.855" y2="196.127" fill="#fff" stroke="#231f20" stroke-linecap="round" stroke-linejoin="round" stroke-width=".5"/></g><g id="dt"><line x1="3.942" y1="180.121" x2="3.734" y2="180.221" fill="#fff" stroke="#231f20" stroke-linecap="round" stroke-linejoin="round" stroke-width=".5"/></g><g id="du"><line x1="5.732" y1="179.854" x2="5.798" y2="179.82" fill="#fff" stroke="#231f20" stroke-linecap="round" stroke-linejoin="round" stroke-width=".5"/></g><g id="dv"><line x1="21.154" y1="166.294" x2="37.356" y2="156.717" fill="#fff" stroke="#231f20" stroke-linecap="round" stroke-linejoin="round" stroke-width=".5"/></g><g id="dw"><line x1="12.806" y1="172.031" x2="21.516" y2="166.695" fill="#fff" stroke="#231f20" stroke-linecap="round" stroke-linejoin="round" stroke-width=".5"/></g><g id="dx"><line x1="12.766" y1="174.695" x2="3.942" y2="180.121" fill="#fff" stroke="#231f20" stroke-linecap="round" stroke-linejoin="round" stroke-width=".5"/></g><g id="dy"><line x1="5.798" y1="179.82" x2="8.275" y2="178.286" fill="#fff" stroke="#231f20" stroke-linecap="round" stroke-linejoin="round" stroke-width=".5"/></g><g id="dz"><line x1="131.601" y1="264.149" x2="132.689" y2="262.073" fill="#fff" stroke="#231f20" stroke-linecap="round" stroke-linejoin="round" stroke-width=".5"/></g><g id="ea"><line x1="62.161" y1="190.991" x2="70.248" y2="186.048" fill="#fff" stroke="#231f20" stroke-linecap="round" stroke-linejoin="round" stroke-width=".5"/></g><g id="eb"><line x1="66.238" y1="189.436" x2="62.929" y2="191.451" fill="#fff" stroke="#231f20" stroke-linecap="round" stroke-linejoin="round" stroke-width=".5"/></g><g id="ec"><line x1="70.367" y1="187.617" x2="66.845" y2="189.771" fill="#fff" stroke="#231f20" stroke-linecap="round" stroke-linejoin="round" stroke-width=".5"/></g><g id="ed"><line x1="70.473" y1="188.932" x2="67.967" y2="190.439" fill="#fff" stroke="#231f20" stroke-linecap="round" stroke-linejoin="round" stroke-width=".5"/></g><g id="ee"><line x1="87.624" y1="235.763" x2="88.091" y2="235.401" fill="#fff" stroke="#231f20" stroke-linecap="round" stroke-linejoin="round" stroke-width=".5"/></g><g id="ef"><line x1="85.955" y1="200.739" x2="82.65" y2="202.759" fill="#fff" stroke="#231f20" stroke-linecap="round" stroke-linejoin="round" stroke-width=".5"/></g><g id="eg"><line x1="48.896" y1="216.676" x2="49.023" y2="216.613" fill="#fff" stroke="#231f20" stroke-linecap="round" stroke-linejoin="round" stroke-width=".5"/></g><g id="eh"><line x1="146.957" y1="199.855" x2="134.4" y2="207.538" fill="#fff" stroke="#231f20" stroke-linecap="round" stroke-linejoin="round" stroke-width=".5"/></g><g id="ei"><line x1="113.895" y1="220.684" x2="134.4" y2="208.148" fill="#fff" stroke="#231f20" stroke-linecap="round" stroke-linejoin="round" stroke-width=".5"/></g><g id="ej"><line x1="116.44" y1="222.136" x2="132.005" y2="212.621" fill="#fff" stroke="#231f20" stroke-linecap="round" stroke-linejoin="round" stroke-width=".5"/></g><g id="ek"><line x1="134.4" y1="211.451" x2="130.532" y2="213.793" fill="#fff" stroke="#231f20" stroke-linecap="round" stroke-linejoin="round" stroke-width=".5"/></g><g id="el"><line x1="138.373" y1="209.795" x2="134.181" y2="212.338" fill="#fff" stroke="#231f20" stroke-linecap="round" stroke-linejoin="round" stroke-width=".5"/></g><g id="em"><path d="M110.003,235.805l.164,1.634-2.5,1.526s-1.37,1.107.325,1.294" fill="none" stroke="#231f20" stroke-linecap="round" stroke-linejoin="round" stroke-width=".5"/></g><g id="en"><line x1="145.988" y1="219.126" x2="154.09" y2="214.186" fill="#fff" stroke="#231f20" stroke-linecap="round" stroke-linejoin="round" stroke-width=".5"/></g><g id="eo"><line x1="87.305" y1="235.969" x2="87.41" y2="235.924" fill="#fff" stroke="#231f20" stroke-linecap="round" stroke-linejoin="round" stroke-width=".5"/></g><g id="ep"><line x1="87.283" y1="236.003" x2="87.305" y2="235.969" fill="#fff" stroke="#231f20" stroke-linecap="round" stroke-linejoin="round" stroke-width=".5"/></g><g id="eq"><line x1="48.313" y1="216.869" x2="48.896" y2="216.676" fill="#fff" stroke="#231f20" stroke-linecap="round" stroke-linejoin="round" stroke-width=".5"/></g><g id="er"><line x1="123.213" y1="235.338" x2="131.941" y2="229.996" fill="#fff" stroke="#231f20" stroke-linecap="round" stroke-linejoin="round" stroke-width=".5"/></g><g id="es"><path d="M161.524,212.345l-.509,1.147.097,1.545s.29.483-1.159,1.449-7.244,4.443-7.244,4.443c0,0-2.897.29,0-1.352l1.352-.773s1.256-.869.386-1.256l-1.156-.172-15.869,9.699" fill="#fff" stroke="#231f20" stroke-linecap="round" stroke-linejoin="round" stroke-width=".5"/></g><g id="et"><line x1="137.246" y1="227.903" x2="133.594" y2="230.16" fill="#fff" stroke="#231f20" stroke-linecap="round" stroke-linejoin="round" stroke-width=".5"/></g><g id="eu"><path d="M122.764,239.472l2.123-1.315s2.022-1.119,3.95.311" fill="#fff" stroke="#231f20" stroke-linecap="round" stroke-linejoin="round" stroke-width=".5"/></g><g id="ev"><line x1="133.877" y1="237.27" x2="138.819" y2="234.252" fill="#fff" stroke="#231f20" stroke-linecap="round" stroke-linejoin="round" stroke-width=".5"/></g><g id="ew"><line x1="87.283" y1="236.003" x2="86.394" y2="236.37" fill="#fff" stroke="#231f20" stroke-linecap="round" stroke-linejoin="round" stroke-width=".5"/></g><g id="ex"><line x1="131.58" y1="264.978" x2="133.998" y2="263.481" fill="#fff" stroke="#231f20" stroke-linecap="round" stroke-linejoin="round" stroke-width=".5"/></g><g id="ey"><polyline points="127.828 267.916 129.32 266.992 129.724 266.707" fill="#fff" stroke="#231f20" stroke-linecap="round" stroke-linejoin="round" stroke-width=".5"/></g><g id="ez"><polyline points="135.973 264.471 332.726 144.213 331.193 107.895" fill="#fff" stroke="#231f20" stroke-linecap="round" stroke-linejoin="round" stroke-width=".5"/></g><g id="fa"><path d="M4.644,181.613v.161" fill="#fff" stroke="#231f20" stroke-linecap="round" stroke-linejoin="round" stroke-width=".5"/></g><g id="fb"><path d="M130.45,266.047c.021-.069.058-.1.098-.142" fill="#fff" stroke="#231f20" stroke-linecap="round" stroke-linejoin="round" stroke-width=".5"/></g><g id="fc"><path d="M127.688,268.001c.042-.019.074-.042.14-.085" fill="#fff" stroke="#231f20" stroke-linecap="round" stroke-linejoin="round" stroke-width=".5"/></g><g id="fd"><path d="M129.945,240.705c0-.042,0-.1-.021-.14" fill="#fff" stroke="#231f20" stroke-linecap="round" stroke-linejoin="round" stroke-width=".5"/></g><g id="fe"><path d="M33.088,202.482c.264.055.486.158.684.277l9.523,5.468" fill="#fff" stroke="#231f20" stroke-linecap="round" stroke-linejoin="round" stroke-width=".5"/></g><g id="ff"><path d="M44.138,215.741c1.983-.505,2.12-.647,2.22-.808.119-.219.161-.443.219-.657.024-.283.024-.586,0-.853-.016-.343-.1-.668-.182-.966-.198-.729-.52-1.407-.924-2.054-.409-.608-.882-1.194-1.431-1.677" fill="none" stroke="#231f20" stroke-linecap="round" stroke-linejoin="round" stroke-width=".5"/></g><g id="fg"><path d="M44.04,208.726c-.084-.042-.145-.1-.18-.145-.187-.132-.37-.259-.565-.354" fill="#fff" stroke="#231f20" stroke-linecap="round" stroke-linejoin="round" stroke-width=".5"/></g><g id="fh"><path d="M29.099,199.472c0-.098,0-.195.047-.293" fill="#fff" stroke="#231f20" stroke-linecap="round" stroke-linejoin="round" stroke-width=".5"/></g><g id="fi"><path d="M30.348,196.615c.042-.066.103-.121.161-.187" fill="#fff" stroke="#231f20" stroke-linecap="round" stroke-linejoin="round" stroke-width=".5"/></g><g id="fj"><line x1="30.958" y1="196.082" x2="30.915" y2="196.082" fill="#fff" stroke="#231f20" stroke-linecap="round" stroke-linejoin="round" stroke-width=".5"/></g><g id="fk"><line x1="30.915" y1="196.082" x2="30.871" y2="196.108" fill="#fff" stroke="#231f20" stroke-linecap="round" stroke-linejoin="round" stroke-width=".5"/></g><g id="fl"><line x1="30.871" y1="196.108" x2="30.855" y2="196.127" fill="#fff" stroke="#231f20" stroke-linecap="round" stroke-linejoin="round" stroke-width=".5"/></g><g id="fm"><line x1="87.489" y1="235.847" x2="87.41" y2="235.924" fill="#fff" stroke="#231f20" stroke-linecap="round" stroke-linejoin="round" stroke-width=".5"/></g><g id="fn"><line x1="87.489" y1="235.847" x2="87.624" y2="235.763" fill="#fff" stroke="#231f20" stroke-linecap="round" stroke-linejoin="round" stroke-width=".5"/></g><g id="fo"><path d="M13.917,202.986c.021.201.082.414.182.602.084.158.222.28.362.38" fill="#fff" stroke="#231f20" stroke-linecap="round" stroke-linejoin="round" stroke-width=".5"/></g><g id="fp"><path d="M15.211,204.351c-.082-.016-.187-.064-.219-.1" fill="#fff" stroke="#231f20" stroke-linecap="round" stroke-linejoin="round" stroke-width=".5"/></g><g id="fq"><path d="M126.392,268.159c.166.1.404.127.61.1.243-.034.486-.135.708-.259" fill="#fff" stroke="#231f20" stroke-linecap="round" stroke-linejoin="round" stroke-width=".5"/></g><g id="fr"><path d="M125.892,267.856c-.098-.056-.185-.14-.224-.177" fill="#fff" stroke="#231f20" stroke-linecap="round" stroke-linejoin="round" stroke-width=".5"/></g><g id="fs"><path d="M125.668,267.679c-.058-.063-.116-.103-.14-.18-.103-.18-.182-.404-.182-.628" fill="#fff" stroke="#231f20" stroke-linecap="round" stroke-linejoin="round" stroke-width=".5"/></g><g id="ft"><path d="M122.199,239.631c.066,0,.106,0,.166-.034.119,0,.283-.048.399-.124" fill="#fff" stroke="#231f20" stroke-linecap="round" stroke-linejoin="round" stroke-width=".5"/></g><g id="fu"><path d="M3.734,180.221c-.1.079-.195.164-.24.24" fill="#fff" stroke="#231f20" stroke-linecap="round" stroke-linejoin="round" stroke-width=".5"/></g><g id="fv"><path d="M3.493,180.462c-.058.04-.119.098-.119.14-.077.127-.14.267-.124.401" fill="#fff" stroke="#231f20" stroke-linecap="round" stroke-linejoin="round" stroke-width=".5"/></g><g id="fw"><path d="M128.976,262.778c.079-.039.164-.055.243-.1" fill="#fff" stroke="#231f20" stroke-linecap="round" stroke-linejoin="round" stroke-width=".5"/></g><g id="fx"><line x1="129.219" y1="262.678" x2="129.32" y2="262.66" fill="#fff" stroke="#231f20" stroke-linecap="round" stroke-linejoin="round" stroke-width=".5"/></g><g id="fy"><path d="M129.32,262.66c.203-.019.301,0,.404.063" fill="#fff" stroke="#231f20" stroke-linecap="round" stroke-linejoin="round" stroke-width=".5"/></g><g id="fz"><path d="M132.689,262.073c.04-.045.061-.058.077-.121.04-.119.082-.283.082-.409" fill="#fff" stroke="#231f20" stroke-linecap="round" stroke-linejoin="round" stroke-width=".5"/></g><g id="ga"><path d="M8.275,178.286c.198-.103.401-.166.663-.182.206-.021.425.016.605.103" fill="#fff" stroke="#231f20" stroke-linecap="round" stroke-linejoin="round" stroke-width=".5"/></g><g id="gb"><path d="M129.724,266.707c.24-.198.502-.417.726-.66" fill="#fff" stroke="#231f20" stroke-linecap="round" stroke-linejoin="round" stroke-width=".5"/></g><g id="gc"><polyline points="125.346 266.871 123.564 245.242 108.952 245.849 107.083 246.287 86.618 234.554 86.032 227.662 30.958 196.082" fill="#fff" stroke="#231f20" stroke-linecap="round" stroke-linejoin="round" stroke-width=".5"/></g><g id="gd"><path d="M5.373,187.986c-.222-.224-.267-.404-.267-.57" fill="#fff" stroke="#231f20" stroke-linecap="round" stroke-linejoin="round" stroke-width=".5"/></g><g id="ge"><path d="M128.134,264.553c-.082-.296.016-.665.156-.969.166-.32.406-.62.686-.805" fill="#fff" stroke="#231f20" stroke-linecap="round" stroke-linejoin="round" stroke-width=".5"/></g><g id="gf"><line x1="4.644" y1="182.175" x2="4.644" y2="182.017" fill="#fff" stroke="#231f20" stroke-linecap="round" stroke-linejoin="round" stroke-width=".5"/></g><g id="gg"><path d="M5.107,187.416c-.039-.079-.082-.177-.156-.24" fill="#fff" stroke="#231f20" stroke-linecap="round" stroke-linejoin="round" stroke-width=".5"/></g><g id="gh"><path d="M4.138,186.73c-.116-.055-.243-.156-.319-.28-.085-.1-.119-.222-.119-.346" fill="#fff" stroke="#231f20" stroke-linecap="round" stroke-linejoin="round" stroke-width=".5"/></g><g id="gi"><line x1="4.644" y1="182.017" x2="4.644" y2="181.834" fill="#fff" stroke="#231f20" stroke-linecap="round" stroke-linejoin="round" stroke-width=".5"/></g><g id="gj"><path d="M129.724,262.723c.064.032.137.116.201.198" fill="#fff" stroke="#231f20" stroke-linecap="round" stroke-linejoin="round" stroke-width=".5"/></g><g id="gk"><path d="M3.25,181.003c.048.127.087.264.124.37.119.095.201.198.359.261" fill="#fff" stroke="#231f20" stroke-linecap="round" stroke-linejoin="round" stroke-width=".5"/></g><g id="gl"><path d="M129.924,240.565c-.063-.428-.161-.871-.364-1.236-.182-.364-.42-.663-.724-.861" fill="#fff" stroke="#231f20" stroke-linecap="round" stroke-linejoin="round" stroke-width=".5"/></g><g id="gm"><path d="M131.514,258.881c-.037-.074-.055-.153-.074-.238" fill="#fff" stroke="#231f20" stroke-linecap="round" stroke-linejoin="round" stroke-width=".5"/></g><g id="gn"><line x1="131.44" y1="258.644" x2="131.398" y2="258.525" fill="#fff" stroke="#231f20" stroke-linecap="round" stroke-linejoin="round" stroke-width=".5"/></g><g id="go"><line x1="132.847" y1="261.543" x2="132.847" y2="261.405" fill="#fff" stroke="#231f20" stroke-linecap="round" stroke-linejoin="round" stroke-width=".5"/></g><g id="gp"><path d="M132.847,261.405c0-.077-.042-.164-.061-.238" fill="#fff" stroke="#231f20" stroke-linecap="round" stroke-linejoin="round" stroke-width=".5"/></g><g id="gq"><path d="M4.644,181.613c.024-.145.058-.283.098-.404.164-.449.409-.845.734-1.149" fill="#fff" stroke="#231f20" stroke-linecap="round" stroke-linejoin="round" stroke-width=".5"/></g><g id="gr"><line x1="5.476" y1="180.06" x2="5.732" y2="179.854" fill="#fff" stroke="#231f20" stroke-linecap="round" stroke-linejoin="round" stroke-width=".5"/></g><g id="gs"><path d="M12.806,172.031c-.04.047-.114.105-.177.161-.021.042-.04.13-.04.185" fill="#fff" stroke="#231f20" stroke-linecap="round" stroke-linejoin="round" stroke-width=".5"/></g><g id="gt"><path d="M137.708,228.124c0-.063,0-.103-.024-.142" fill="#fff" stroke="#231f20" stroke-linecap="round" stroke-linejoin="round" stroke-width=".5"/></g><g id="gu"><path d="M130.225,231.047c-.116-.684-.18-.871-.28-1.024-.101-.151-.201-.267-.367-.372" fill="#fff" stroke="#231f20" stroke-linecap="round" stroke-linejoin="round" stroke-width=".5"/></g><g id="gv"><path d="M135.973,264.471c-.061.024-.098.024-.161.024-.061,0-.121-.024-.18-.042" fill="#fff" stroke="#231f20" stroke-linecap="round" stroke-linejoin="round" stroke-width=".5"/></g><g id="gw"><path d="M126.74,268.26c-1.355.813-1.394.813-1.413.813-.058.021-.18.021-.222-.047" fill="#fff" stroke="#231f20" stroke-linecap="round" stroke-linejoin="round" stroke-width=".5"/></g><g id="gx"><path d="M123.213,235.338c-.142.079-.322.121-.523.121-.185.045-.362-.016-.507-.098" fill="#fff" stroke="#231f20" stroke-linecap="round" stroke-linejoin="round" stroke-width=".5"/></g><g id="gy"><path d="M12.589,172.377c0,.045.018.1.063.14.04.039.082.084.137.103" fill="#fff" stroke="#231f20" stroke-linecap="round" stroke-linejoin="round" stroke-width=".5"/></g><g id="gz"><path d="M133.594,230.16c-.145.084-.322.119-.465.119-.18.021-.364,0-.528-.058" fill="#fff" stroke="#231f20" stroke-linecap="round" stroke-linejoin="round" stroke-width=".5"/></g><g id="ha"><path d="M137.586,227.86c-.061-.024-.098-.024-.164-.024-.04.024-.119.042-.177.066" fill="#fff" stroke="#231f20" stroke-linecap="round" stroke-linejoin="round" stroke-width=".5"/></g><g id="hb"><path d="M131.941,229.996c.037-.021.103-.042.143-.021" fill="#fff" stroke="#231f20" stroke-linecap="round" stroke-linejoin="round" stroke-width=".5"/></g><g id="hc"><path d="M136.071,264.149c.024.082.024.124,0,.206" fill="#fff" stroke="#231f20" stroke-linecap="round" stroke-linejoin="round" stroke-width=".5"/></g><g id="hd"><path d="M54.055,209.328c0,.309-.016.602-.077.914-.061.48-.203.966-.343,1.436-.182.499-.404.982-.663,1.426-.243.465-.549.908-.887,1.333-.325.362-.644.7-1.008,1.022-.346.283-.684.549-1.085.752-.288.161-.589.277-.969.401" fill="#fff" stroke="#231f20" stroke-linecap="round" stroke-linejoin="round" stroke-width=".5"/></g><polyline points="151.938 205.765 153.998 216.325 331.193 107.895" fill="#fff" stroke="#231f20" stroke-linecap="round" stroke-linejoin="round" stroke-width=".496"/><path d="M14.448,134.391l-7.472,4.95,117.834,71.048s1.245.336,2.042-.012,7.512-4.291,7.512-4.291" fill="#fff" stroke="#231f20" stroke-linecap="round" stroke-linejoin="round" stroke-width=".5"/><polyline points="195.821 38.649 201.117 36.069 336.512 95.061 338.122 96.996" fill="#fff" stroke="#231f20" stroke-linecap="round" stroke-linejoin="round" stroke-width=".5"/><path d="M13.271,132.876L195.821,38.649l135.653,58.745-195.478,108.657s-.835-.312-2.459-.144L13.271,132.876Z" fill="#fff" stroke="#231f20" stroke-linecap="round" stroke-linejoin="round" stroke-width=".5"/><polyline points="136.98 207.751 332.655 98.975 338.122 96.996 338.339 102.738 137.245 213.484 135.996 206.051" fill="#fff" stroke="#231f20" stroke-linecap="round" stroke-linejoin="round" stroke-width=".5"/><path d="M166.472,57.422l8.029-4.178s3.413-1.903,8.051.587c4.638,2.49.425,5.545.425,5.545l-6.775,3.792s-4.749,2.629-9.485-.655-.245-5.091-.245-5.091Z" fill="none" stroke="#231f20" stroke-linecap="round" stroke-linejoin="round" stroke-width=".5"/><path d="M174.58,60.156c.075,1.289-1.478,2.239-3.468,2.122s-3.665-1.256-3.74-2.545,1.478-2.239,3.468-2.122,3.665,1.256,3.74,2.545Z" fill="none" stroke="#231f20" stroke-linecap="round" stroke-linejoin="round" stroke-width=".5"/><path d="M154.234,70.291c.042.728-.78,1.269-1.836,1.207s-1.947-.703-1.99-1.431.78-1.269,1.836-1.207,1.947.703,1.99,1.431Z" fill="none" stroke="#231f20" stroke-linecap="round" stroke-linejoin="round" stroke-width=".5"/><path d="M161.64,66.519c.042.728-.78,1.269-1.836,1.207s-1.947-.703-1.99-1.431.78-1.269,1.836-1.207,1.947.703,1.99,1.431Z" fill="none" stroke="#231f20" stroke-linecap="round" stroke-linejoin="round" stroke-width=".5"/><path d="M188.577,52.065c.042.728-.78,1.269-1.836,1.207s-1.947-.703-1.99-1.431.78-1.269,1.836-1.207,1.947.703,1.99,1.431Z" fill="none" stroke="#231f20" stroke-linecap="round" stroke-linejoin="round" stroke-width=".5"/><polygon points="168.738 59.572 171.409 61.408 172.178 58.891 168.738 59.572" fill="#231f20"/><line x1="174.981" y1="54.878" x2="181.626" y2="58.684" fill="none" stroke="#231f20" stroke-linecap="round" stroke-linejoin="round" stroke-width=".5"/><line x1="176.627" y1="53.917" x2="182.964" y2="57.593" fill="none" stroke="#231f20" stroke-linecap="round" stroke-linejoin="round" stroke-width=".5"/><line x1="173.268" y1="55.801" x2="179.935" y2="59.53" fill="none" stroke="#231f20" stroke-linecap="round" stroke-linejoin="round" stroke-width=".5"/><polygon points="148.04 58.398 133.087 58.3 135.32 48.377 138.466 50.715 145.731 46.789 152.444 52.072 144.825 55.879 148.04 58.398"/><polygon points="152.913 38.969 167.882 39.076 165.656 49.069 162.5 46.658 155.221 50.588 148.863 45.572 156.126 41.502 152.913 38.969"/><path d="M267.97,48.561c-5.855.306-9.782,3.093-9.782,3.093l-7.411-3.952,2.511,15.349,27.645.83-7.796-4.162s4.102-2.757,10.091-3.015l-15.257-8.142Z" fill="#231f20" stroke="#fff" stroke-linecap="round" stroke-linejoin="round" stroke-width="4.958"/><path d="M267.97,48.561l3.637.156c2.24.305,4.653.998,7.172,2.343l15.317,8.174c-2.511-1.339-4.93-2.037-7.187-2.35l-4.781-.099" fill="#231f20" stroke="#fff" stroke-linecap="round" stroke-linejoin="round" stroke-width="4.958"/><path d="M289.147,57.323c1.595.408,3.248,1.005,4.948,1.91,2.034,1.084,3.649,2.232,4.979,3.388l-9.927-5.298Z" fill="#231f20" stroke="#fff" stroke-linecap="round" stroke-linejoin="round" stroke-width="4.958"/><path d="M289.032,62.662c-.318-1.386-.938-3.022-2.126-4.75.284.172,14.235,7.43,14.235,7.43,1.174,1.722,2.887,4.104,3.2,5.487l.272,1.932c.069,1.306-.116,2.122-.116,2.122l-15.285-8.217s.168-.794.095-2.069l-.275-1.935Z" fill="#231f20" stroke="#fff" stroke-linecap="round" stroke-linejoin="round" stroke-width="4.958"/><path d="M267.97,48.561c-5.855.306-9.782,3.093-9.782,3.093l-7.411-3.952,2.511,15.349,27.645.83-7.796-4.162s4.102-2.757,10.091-3.015l-15.257-8.142Z" fill="#231f20"/><path d="M267.97,48.561l3.637.156c2.24.305,4.653.998,7.172,2.343l15.317,8.174c-2.511-1.339-4.93-2.037-7.187-2.35l-4.781-.099" fill="#231f20"/><path d="M289.147,57.323c1.595.408,3.248,1.005,4.948,1.91,2.034,1.084,3.649,2.232,4.979,3.388l-9.927-5.298Z" fill="#231f20"/><path d="M289.032,62.662c-.318-1.386-.938-3.022-2.126-4.75.284.172,14.235,7.43,14.235,7.43,1.174,1.722,2.887,4.104,3.2,5.487l.272,1.932c.069,1.306-.116,2.122-.116,2.122l-15.285-8.217s.168-.794.095-2.069l-.275-1.935Z" fill="#231f20"/><path d="M239.633,66.52c5.584-29.679,25.104-28.505,25.104-28.505l9.062,4.054-4.165-14.428-26.809-1.912,7.641,4.142s-19.835,9.553-15.071,34.683l4.238,1.965Z" stroke="#fff" stroke-linecap="round" stroke-linejoin="round" stroke-width="1.487"/><line x1="176.855" y1="25.93" x2="169.962" y2="55.831" fill="none" stroke="#fff" stroke-linecap="round" stroke-linejoin="round" stroke-width="2.975"/><line x1="176.855" y1="25.93" x2="169.962" y2="55.831" fill="#231f20" stroke="#231f20" stroke-linecap="round" stroke-linejoin="round" stroke-width=".496"/><polyline points="120.411 245.625 120.865 254.317 109.563 248.178 109.423 246.224" fill="none" stroke="#231f20" stroke-linecap="round" stroke-linejoin="round" stroke-width=".496"/><polygon points="107.536 249.394 108.181 256.833 116.335 261.362 115.618 253.994 107.536 249.394" fill="none" stroke="#231f20" stroke-linecap="round" stroke-linejoin="round" stroke-width=".496"/><polyline points="105.429 245.481 106.105 251.111 87.279 240.705 87.578 247.272" fill="none" stroke="#231f20" stroke-linecap="round" stroke-linejoin="round" stroke-width=".496"/><ellipse cx="90.702" cy="246.003" rx=".949" ry="1.128" transform="translate(-147.911 137.339) rotate(-45.277)" fill="none" stroke="#231f20" stroke-linecap="round" stroke-linejoin="round" stroke-width=".496"/><ellipse cx="93.673" cy="247.71" rx=".949" ry="1.128" transform="translate(-148.244 139.956) rotate(-45.277)" fill="none" stroke="#231f20" stroke-linecap="round" stroke-linejoin="round" stroke-width=".496"/><ellipse cx="96.716" cy="249.353" rx=".949" ry="1.128" transform="translate(-148.51 142.605) rotate(-45.277)" fill="none" stroke="#231f20" stroke-linecap="round" stroke-linejoin="round" stroke-width=".496"/><path d="M100.452,250.387l3.301,1.885s.501.465.43,1.002-.467.736-.467.736l-.285.159-3.077-1.726-.475-1.162s-.036-.931.573-.895Z" fill="none" stroke="#231f20" stroke-linecap="round" stroke-linejoin="round" stroke-width=".496"/><ellipse cx="128.789" cy="260.349" rx="2.33" ry="1.684" transform="translate(-160.307 232.21) rotate(-58.12)" fill="#fff" stroke="#231f20" stroke-linecap="round" stroke-linejoin="round" stroke-width=".5"/><ellipse cx="138.656" cy="258.34" rx="1.709" ry="1.235" transform="translate(-153.945 239.642) rotate(-58.12)" fill="#fff" stroke="#231f20" stroke-linecap="round" stroke-linejoin="round" stroke-width=".5"/><ellipse cx="137.782" cy="248.12" rx="1.709" ry="1.235" transform="translate(-145.679 234.077) rotate(-58.12)" fill="#fff" stroke="#231f20" stroke-linecap="round" stroke-linejoin="round" stroke-width=".5"/><ellipse cx="137.011" cy="238.384" rx="1.709" ry="1.235" transform="translate(-137.775 228.828) rotate(-58.12)" fill="#fff" stroke="#231f20" stroke-linecap="round" stroke-linejoin="round" stroke-width=".5"/><path d="M125.024,237.759c-.313-.449-.28-1.193.125-1.845.499-.802,1.372-1.159,1.952-.799s.645,1.302.146,2.104c-.071.115-.15.22-.235.316" fill="#fff" stroke="#231f20" stroke-linecap="round" stroke-linejoin="round" stroke-width=".5"/><ellipse cx="77.514" cy="204.304" rx="1.821" ry="1.127" transform="translate(-25.011 11.335) rotate(-7.205)" fill="#fff" stroke="#231f20" stroke-linecap="round" stroke-linejoin="round" stroke-width=".5"/><ellipse cx="65.671" cy="197.524" rx="1.821" ry="1.127" transform="translate(-24.254 9.796) rotate(-7.205)" fill="#fff" stroke="#231f20" stroke-linecap="round" stroke-linejoin="round" stroke-width=".5"/></g><g id="he"><path d="M191.879,15.257c0,7.593-6.246,13.745-13.95,13.745s-13.953-6.152-13.953-13.745,6.246-13.755,13.953-13.755,13.95,6.159,13.95,13.755" fill="#221f1f" stroke="#fff" stroke-miterlimit="10" stroke-width="1.5"/><rect x="163.736" y="7.2" width="27.228" height="24.791" fill="none"/><path d="M179.334,22.236h-1.846v-11.761c-.443.424-1.027.848-1.748,1.271s-1.369.742-1.943.954v-1.784c1.033-.485,1.936-1.073,2.707-1.764.773-.69,1.32-1.36,1.641-2.01h1.189v15.094Z" fill="#fff"/></g></svg>