<?xml version="1.0" encoding="UTF-8"?><svg id="a" xmlns="http://www.w3.org/2000/svg" width="4.1in" height="2.5in" viewBox="0 0 295.2 180"><rect x="60.763" y="12.702" width="52.218" height="8.724" fill="#d9d9d9" stroke-width="0"/><rect x="184.828" y="12.702" width="52.218" height="8.724" fill="#d9d9d9" stroke-width="0"/><rect x="60.763" y="1.764" width="52.218" height="8.724" fill="#d9d9d9" stroke-width="0"/><rect x="184.828" y="1.764" width="52.218" height="8.724" fill="#d9d9d9" stroke-width="0"/><rect x="60.763" y="23.842" width="52.218" height="8.724" fill="#d9d9d9" stroke-width="0"/><rect x="184.828" y="23.842" width="52.218" height="8.724" fill="#d9d9d9" stroke-width="0"/><rect x="60.763" y="34.982" width="52.218" height="8.724" fill="#d9d9d9" stroke-width="0"/><rect x="184.828" y="34.982" width="52.218" height="8.724" fill="#d9d9d9" stroke-width="0"/><rect x="60.763" y="46.122" width="52.218" height="8.724" fill="#d9d9d9" stroke-width="0"/><rect x="184.828" y="46.122" width="52.218" height="8.724" fill="#d9d9d9" stroke-width="0"/><rect x="60.763" y="79.542" width="52.218" height="8.724" fill="#d9d9d9" stroke-width="0"/><rect x="184.828" y="79.542" width="52.218" height="8.724" fill="#d9d9d9" stroke-width="0"/><rect x="184.828" y="57.262" width="52.218" height="19.864" fill="#d9d9d9" stroke-width="0"/><rect x="60.763" y="57.262" width="52.218" height="19.864" fill="#d9d9d9" stroke-width="0"/><rect x="60.763" y="90.682" width="52.218" height="8.724" fill="#d9d9d9" stroke-width="0"/><rect x="184.828" y="90.682" width="52.218" height="8.724" fill="#d9d9d9" stroke-width="0"/><rect x="60.763" y="101.822" width="52.218" height="8.724" fill="#d9d9d9" stroke-width="0"/><rect x="184.828" y="101.822" width="52.218" height="8.724" fill="#d9d9d9" stroke-width="0"/><rect x="60.763" y="112.962" width="52.218" height="8.724" fill="#d9d9d9" stroke-width="0"/><rect x="184.828" y="112.962" width="52.218" height="8.724" fill="#d9d9d9" stroke-width="0"/><rect x="60.763" y="124.102" width="52.218" height="8.724" fill="#d9d9d9" stroke-width="0"/><rect x="184.828" y="124.102" width="52.218" height="8.724" fill="#d9d9d9" stroke-width="0"/><rect x="57.752" y="136.165" width="44.201" height="18.597" fill="#1e4a92" stroke-width="0"/><rect x="103.03" y="136.165" width="44.201" height="18.597" fill="#26a7df" stroke-width="0"/><rect x="194.666" y="136.165" width="44.201" height="18.597" fill="#26a7df" stroke-width="0"/><rect x="149.118" y="136.165" width="44.201" height="18.597" fill="#1e4a92" stroke-width="0"/><rect x="117.584" y="1.764" width="30.347" height="131.061" fill="#1e4a92" stroke-width="0"/><path d="M63.738,141.531h3.447c2.013,0,3.231,1.193,3.231,2.917v.024c0,1.953-1.519,2.966-3.412,2.966h-1.41v2.531h-1.856v-8.438ZM67.065,145.786c.928,0,1.47-.555,1.47-1.278v-.024c0-.832-.579-1.278-1.507-1.278h-1.434v2.58h1.471Z" fill="#fff" stroke-width="0"/><path d="M71.215,148.739l1.097-1.313c.76.627,1.555,1.024,2.52,1.024.759,0,1.217-.302,1.217-.796v-.023c0-.471-.289-.712-1.7-1.073-1.699-.434-2.796-.904-2.796-2.58v-.024c0-1.531,1.229-2.543,2.953-2.543,1.23,0,2.278.386,3.134,1.073l-.964,1.398c-.747-.519-1.482-.832-2.194-.832s-1.085.326-1.085.735v.024c0,.554.362.735,1.82,1.109,1.712.446,2.676,1.061,2.676,2.531v.024c0,1.676-1.278,2.616-3.098,2.616-1.278,0-2.567-.446-3.58-1.351Z" fill="#fff" stroke-width="0"/><path d="M79.378,146.353v-4.822h1.856v4.774c0,1.374.687,2.085,1.82,2.085s1.82-.687,1.82-2.025v-4.833h1.856v4.761c0,2.556-1.435,3.81-3.701,3.81s-3.652-1.266-3.652-3.749Z" fill="#fff" stroke-width="0"/><path d="M93.377,143.351l-1.471.361-.386-1.519,2.423-.724h1.266v8.499h-1.833v-6.618Z" fill="#fff" stroke-width="0"/><path d="M107.872,141.531h3.447c2.013,0,3.231,1.193,3.231,2.917v.024c0,1.953-1.519,2.966-3.412,2.966h-1.41v2.531h-1.856v-8.438ZM111.199,145.786c.928,0,1.47-.555,1.47-1.278v-.024c0-.832-.579-1.278-1.507-1.278h-1.434v2.58h1.471Z" fill="#fff" stroke-width="0"/><path d="M115.349,148.739l1.097-1.313c.76.627,1.555,1.024,2.52,1.024.759,0,1.217-.302,1.217-.796v-.023c0-.471-.289-.712-1.7-1.073-1.699-.434-2.796-.904-2.796-2.58v-.024c0-1.531,1.229-2.543,2.953-2.543,1.23,0,2.278.386,3.134,1.073l-.964,1.398c-.747-.519-1.482-.832-2.194-.832s-1.085.326-1.085.735v.024c0,.554.362.735,1.82,1.109,1.712.446,2.676,1.061,2.676,2.531v.024c0,1.676-1.278,2.616-3.098,2.616-1.278,0-2.567-.446-3.58-1.351Z" fill="#fff" stroke-width="0"/><path d="M123.512,146.353v-4.822h1.856v4.774c0,1.374.687,2.085,1.82,2.085s1.82-.687,1.82-2.025v-4.833h1.856v4.761c0,2.556-1.435,3.81-3.701,3.81s-3.652-1.266-3.652-3.749Z" fill="#fff" stroke-width="0"/><path d="M135.956,148.498l2.809-2.302c1.049-.868,1.458-1.327,1.458-2.026,0-.711-.47-1.097-1.133-1.097-.651,0-1.097.361-1.724,1.133l-1.302-1.048c.832-1.133,1.639-1.748,3.146-1.748,1.748,0,2.905,1.024,2.905,2.604v.024c0,1.41-.723,2.109-2.218,3.267l-1.374,1.062h3.677v1.603h-6.244v-1.471Z" fill="#fff" stroke-width="0"/><path d="M154.093,141.531h3.447c2.013,0,3.231,1.193,3.231,2.917v.024c0,1.953-1.519,2.966-3.412,2.966h-1.41v2.531h-1.856v-8.438ZM157.42,145.786c.928,0,1.471-.555,1.471-1.278v-.024c0-.832-.579-1.278-1.507-1.278h-1.434v2.58h1.47Z" fill="#fff" stroke-width="0"/><path d="M161.57,148.739l1.097-1.313c.76.627,1.555,1.024,2.52,1.024.759,0,1.217-.302,1.217-.796v-.023c0-.471-.289-.712-1.699-1.073-1.7-.434-2.797-.904-2.797-2.58v-.024c0-1.531,1.229-2.543,2.953-2.543,1.23,0,2.278.386,3.134,1.073l-.964,1.398c-.747-.519-1.482-.832-2.194-.832s-1.085.326-1.085.735v.024c0,.554.362.735,1.82,1.109,1.712.446,2.676,1.061,2.676,2.531v.024c0,1.676-1.278,2.616-3.098,2.616-1.278,0-2.568-.446-3.58-1.351Z" fill="#fff" stroke-width="0"/><path d="M169.733,146.353v-4.822h1.856v4.774c0,1.374.687,2.085,1.82,2.085s1.82-.687,1.82-2.025v-4.833h1.856v4.761c0,2.556-1.435,3.81-3.701,3.81s-3.653-1.266-3.653-3.749Z" fill="#fff" stroke-width="0"/><path d="M182.044,148.655l1.278-1.218c.579.651,1.181,1.013,2.037,1.013.699,0,1.193-.397,1.193-1.024v-.024c0-.688-.615-1.073-1.651-1.073h-.771l-.289-1.181,2.013-2.025h-3.315v-1.591h5.702v1.398l-2.133,2.038c1.145.193,2.266.795,2.266,2.363v.024c0,1.591-1.157,2.76-3.038,2.76-1.519,0-2.568-.603-3.291-1.458Z" fill="#fff" stroke-width="0"/><path d="M199.377,141.531h3.447c2.013,0,3.231,1.193,3.231,2.917v.024c0,1.953-1.519,2.966-3.412,2.966h-1.41v2.531h-1.856v-8.438ZM202.704,145.786c.928,0,1.471-.555,1.471-1.278v-.024c0-.832-.579-1.278-1.507-1.278h-1.434v2.58h1.47Z" fill="#fff" stroke-width="0"/><path d="M206.854,148.739l1.097-1.313c.76.627,1.555,1.024,2.52,1.024.759,0,1.217-.302,1.217-.796v-.023c0-.471-.289-.712-1.699-1.073-1.7-.434-2.797-.904-2.797-2.58v-.024c0-1.531,1.229-2.543,2.953-2.543,1.23,0,2.278.386,3.134,1.073l-.964,1.398c-.747-.519-1.482-.832-2.194-.832s-1.085.326-1.085.735v.024c0,.554.362.735,1.82,1.109,1.712.446,2.676,1.061,2.676,2.531v.024c0,1.676-1.278,2.616-3.098,2.616-1.278,0-2.568-.446-3.58-1.351Z" fill="#fff" stroke-width="0"/><path d="M215.017,146.353v-4.822h1.856v4.774c0,1.374.687,2.085,1.82,2.085s1.82-.687,1.82-2.025v-4.833h1.856v4.761c0,2.556-1.435,3.81-3.701,3.81s-3.653-1.266-3.653-3.749Z" fill="#fff" stroke-width="0"/><path d="M231.668,148.148h-4.123l-.302-1.313,4.629-5.365h1.567v5.171h1.133v1.507h-1.133v1.82h-1.772v-1.82ZM231.668,146.642v-2.628l-2.242,2.628h2.242Z" fill="#fff" stroke-width="0"/><rect x="149.586" y="1.764" width="30.347" height="131.061" fill="#26a7df" stroke-width="0"/><polyline points="79.899 155.229 79.899 165.947 51.422 165.947" fill="none" stroke="#1e4a92" stroke-miterlimit="10" stroke-width="2.658"/><polyline points="126.813 155.229 126.813 175.011 51.422 175.011" fill="none" stroke="#26a7df" stroke-miterlimit="10" stroke-width="2.658"/><polyline points="220.057 155.229 220.057 165.947 243.988 165.947" fill="none" stroke="#26a7df" stroke-miterlimit="10" stroke-width="2.658"/><polyline points="171.994 155.229 171.994 175.011 243.988 175.011" fill="none" stroke="#1e4a92" stroke-miterlimit="10" stroke-width="2.658"/><path d="M251.187,154.414l2.808-2.303c1.049-.868,1.459-1.326,1.459-2.025,0-.711-.47-1.097-1.133-1.097-.651,0-1.098.361-1.724,1.133l-1.303-1.048c.832-1.134,1.64-1.748,3.146-1.748,1.748,0,2.905,1.024,2.905,2.604v.024c0,1.41-.724,2.109-2.218,3.267l-1.374,1.061h3.676v1.604h-6.244v-1.471Z" fill="#6d6f70" stroke-width="0"/><path d="M258.928,149.423h1.833v.917c.422-.543.964-1.037,1.893-1.037,1.386,0,2.193.916,2.193,2.398v4.184h-1.832v-3.604c0-.868-.41-1.314-1.109-1.314s-1.145.446-1.145,1.314v3.604h-1.833v-6.462Z" fill="#6d6f70" stroke-width="0"/><path d="M266.151,152.666v-.024c0-2.157,1.41-3.339,2.941-3.339.977,0,1.579.446,2.013.965v-3.183h1.833v8.8h-1.833v-.929c-.445.603-1.061,1.049-2.013,1.049-1.507,0-2.941-1.182-2.941-3.339ZM271.13,152.666v-.024c0-1.072-.711-1.784-1.567-1.784s-1.579.699-1.579,1.784v.024c0,1.073.724,1.784,1.579,1.784s1.567-.711,1.567-1.784Z" fill="#6d6f70" stroke-width="0"/><path d="M251.416,160.189h1.832v.929c.446-.603,1.061-1.049,2.014-1.049,1.507,0,2.94,1.182,2.94,3.339v.024c0,2.157-1.41,3.339-2.94,3.339-.977,0-1.579-.446-2.014-.964v2.772h-1.832v-8.391ZM256.37,163.433v-.024c0-1.072-.723-1.784-1.579-1.784s-1.567.712-1.567,1.784v.024c0,1.073.712,1.784,1.567,1.784s1.579-.699,1.579-1.784Z" fill="#6d6f70" stroke-width="0"/><path d="M259.241,163.457v-.024c0-1.856,1.495-3.363,3.508-3.363,2.002,0,3.484,1.482,3.484,3.339v.024c0,1.856-1.495,3.363-3.508,3.363-2.001,0-3.484-1.482-3.484-3.339ZM264.425,163.457v-.024c0-.952-.687-1.784-1.699-1.784-1.049,0-1.676.808-1.676,1.76v.024c0,.952.688,1.784,1.699,1.784,1.049,0,1.676-.808,1.676-1.76Z" fill="#6d6f70" stroke-width="0"/><path d="M266.729,160.189h1.856l1.037,3.918,1.217-3.941h1.579l1.23,3.954,1.061-3.931h1.82l-2.014,6.51h-1.651l-1.241-3.966-1.266,3.966h-1.64l-1.989-6.51Z" fill="#6d6f70" stroke-width="0"/><path d="M277.027,163.457v-.024c0-1.845,1.314-3.363,3.195-3.363,2.157,0,3.146,1.676,3.146,3.508,0,.145-.012.313-.023.482h-4.497c.181.832.76,1.266,1.579,1.266.615,0,1.062-.193,1.567-.663l1.049.928c-.603.748-1.471,1.206-2.64,1.206-1.941,0-3.376-1.362-3.376-3.339ZM281.584,162.914c-.108-.819-.59-1.374-1.361-1.374-.76,0-1.254.542-1.398,1.374h2.76Z" fill="#6d6f70" stroke-width="0"/><path d="M284.732,160.189h1.833v1.303c.373-.893.976-1.471,2.061-1.423v1.917h-.096c-1.218,0-1.965.735-1.965,2.278v2.387h-1.833v-6.462Z" fill="#6d6f70" stroke-width="0"/><path d="M250.91,176.562l.784-1.206c.699.507,1.435.771,2.037.771.53,0,.771-.192.771-.482v-.023c0-.398-.627-.53-1.338-.748-.904-.265-1.929-.687-1.929-1.94v-.024c0-1.313,1.061-2.049,2.363-2.049.819,0,1.712.277,2.411.747l-.699,1.266c-.639-.373-1.278-.603-1.748-.603-.446,0-.675.193-.675.446v.024c0,.361.614.53,1.313.771.904.301,1.953.735,1.953,1.916v.024c0,1.435-1.073,2.085-2.471,2.085-.904,0-1.917-.301-2.773-.976Z" fill="#6d6f70" stroke-width="0"/><path d="M257.155,174.223v-.024c0-1.856,1.495-3.363,3.508-3.363,2.002,0,3.484,1.483,3.484,3.34v.023c0,1.856-1.495,3.363-3.508,3.363-2.001,0-3.484-1.482-3.484-3.339ZM262.339,174.223v-.024c0-.952-.687-1.784-1.699-1.784-1.049,0-1.676.808-1.676,1.761v.023c0,.952.688,1.784,1.699,1.784,1.049,0,1.676-.808,1.676-1.76Z" fill="#6d6f70" stroke-width="0"/><path d="M265.428,175.139v-4.183h1.832v3.604c0,.867.41,1.313,1.109,1.313s1.146-.446,1.146-1.313v-3.604h1.832v6.461h-1.832v-.916c-.422.542-.965,1.036-1.893,1.036-1.387,0-2.194-.916-2.194-2.398Z" fill="#6d6f70" stroke-width="0"/><path d="M272.988,170.956h1.833v1.302c.373-.893.976-1.471,2.061-1.423v1.917h-.096c-1.218,0-1.965.735-1.965,2.278v2.387h-1.833v-6.461Z" fill="#6d6f70" stroke-width="0"/><path d="M277.534,174.223v-.024c0-1.844,1.411-3.363,3.388-3.363,1.218,0,1.977.41,2.58,1.085l-1.121,1.206c-.41-.435-.82-.712-1.471-.712-.916,0-1.567.808-1.567,1.761v.023c0,.988.639,1.784,1.64,1.784.614,0,1.036-.265,1.482-.687l1.073,1.084c-.627.688-1.351,1.182-2.641,1.182-1.94,0-3.363-1.494-3.363-3.339Z" fill="#6d6f70" stroke-width="0"/><path d="M284.238,174.223v-.024c0-1.844,1.314-3.363,3.195-3.363,2.157,0,3.146,1.676,3.146,3.508,0,.145-.012.313-.023.482h-4.497c.181.832.76,1.266,1.579,1.266.615,0,1.062-.192,1.567-.663l1.049.929c-.603.747-1.471,1.205-2.64,1.205-1.941,0-3.376-1.362-3.376-3.339ZM288.795,173.68c-.108-.819-.59-1.374-1.361-1.374-.76,0-1.254.543-1.398,1.374h2.76Z" fill="#6d6f70" stroke-width="0"/><path d="M29.771,149.267l-1.471.361-.386-1.519,2.423-.724h1.266v8.499h-1.833v-6.618Z" fill="#6d6f70" stroke-width="0"/><path d="M33.028,155.028l.784-1.205c.699.506,1.434.771,2.037.771.53,0,.771-.193.771-.482v-.023c0-.398-.627-.531-1.338-.748-.904-.265-1.929-.687-1.929-1.94v-.024c0-1.313,1.061-2.049,2.363-2.049.82,0,1.712.277,2.411.747l-.699,1.266c-.639-.374-1.278-.603-1.748-.603-.446,0-.675.192-.675.446v.023c0,.362.615.53,1.314.771.904.302,1.953.735,1.953,1.917v.024c0,1.435-1.073,2.085-2.471,2.085-.904,0-1.917-.301-2.772-.977Z" fill="#6d6f70" stroke-width="0"/><path d="M39.769,154.052v-3.062h-.771v-1.567h.771v-1.651h1.832v1.651h1.519v1.567h-1.519v2.761c0,.422.181.627.591.627.337,0,.639-.085.904-.229v1.471c-.386.229-.832.374-1.447.374-1.121,0-1.88-.446-1.88-1.941Z" fill="#6d6f70" stroke-width="0"/><path d="M6.114,160.189h1.832v.929c.446-.603,1.061-1.049,2.013-1.049,1.507,0,2.941,1.182,2.941,3.339v.024c0,2.157-1.411,3.339-2.941,3.339-.977,0-1.579-.446-2.013-.964v2.772h-1.832v-8.391ZM11.068,163.433v-.024c0-1.072-.723-1.784-1.579-1.784s-1.567.712-1.567,1.784v.024c0,1.073.711,1.784,1.567,1.784s1.579-.699,1.579-1.784Z" fill="#6d6f70" stroke-width="0"/><path d="M13.939,163.457v-.024c0-1.856,1.495-3.363,3.508-3.363,2.001,0,3.484,1.482,3.484,3.339v.024c0,1.856-1.495,3.363-3.508,3.363-2.001,0-3.484-1.482-3.484-3.339ZM19.123,163.457v-.024c0-.952-.688-1.784-1.7-1.784-1.049,0-1.676.808-1.676,1.76v.024c0,.952.687,1.784,1.7,1.784,1.049,0,1.676-.808,1.676-1.76Z" fill="#6d6f70" stroke-width="0"/><path d="M21.428,160.189h1.856l1.037,3.918,1.217-3.941h1.579l1.229,3.954,1.061-3.931h1.82l-2.013,6.51h-1.652l-1.241-3.966-1.266,3.966h-1.639l-1.989-6.51Z" fill="#6d6f70" stroke-width="0"/><path d="M31.726,163.457v-.024c0-1.845,1.314-3.363,3.194-3.363,2.158,0,3.146,1.676,3.146,3.508,0,.145-.012.313-.024.482h-4.496c.181.832.759,1.266,1.579,1.266.615,0,1.061-.193,1.567-.663l1.049.928c-.603.748-1.471,1.206-2.64,1.206-1.94,0-3.375-1.362-3.375-3.339ZM36.282,162.914c-.108-.819-.591-1.374-1.362-1.374-.759,0-1.253.542-1.398,1.374h2.761Z" fill="#6d6f70" stroke-width="0"/><path d="M39.431,160.189h1.832v1.303c.374-.893.977-1.471,2.062-1.423v1.917h-.097c-1.217,0-1.965.735-1.965,2.278v2.387h-1.832v-6.462Z" fill="#6d6f70" stroke-width="0"/><path d="M3.437,176.562l.784-1.206c.699.507,1.434.771,2.037.771.53,0,.771-.192.771-.482v-.023c0-.398-.627-.53-1.338-.748-.904-.265-1.929-.687-1.929-1.94v-.024c0-1.313,1.061-2.049,2.363-2.049.82,0,1.712.277,2.411.747l-.699,1.266c-.639-.373-1.278-.603-1.748-.603-.446,0-.675.193-.675.446v.024c0,.361.615.53,1.314.771.904.301,1.953.735,1.953,1.916v.024c0,1.435-1.073,2.085-2.471,2.085-.904,0-1.917-.301-2.772-.976Z" fill="#6d6f70" stroke-width="0"/><path d="M9.683,174.223v-.024c0-1.856,1.495-3.363,3.508-3.363,2.001,0,3.484,1.483,3.484,3.34v.023c0,1.856-1.495,3.363-3.508,3.363-2.001,0-3.484-1.482-3.484-3.339ZM14.866,174.223v-.024c0-.952-.687-1.784-1.699-1.784-1.049,0-1.676.808-1.676,1.761v.023c0,.952.687,1.784,1.7,1.784,1.049,0,1.675-.808,1.675-1.76Z" fill="#6d6f70" stroke-width="0"/><path d="M17.955,175.139v-4.183h1.832v3.604c0,.867.41,1.313,1.109,1.313s1.145-.446,1.145-1.313v-3.604h1.833v6.461h-1.833v-.916c-.422.542-.964,1.036-1.893,1.036-1.386,0-2.194-.916-2.194-2.398Z" fill="#6d6f70" stroke-width="0"/><path d="M25.516,170.956h1.832v1.302c.374-.893.977-1.471,2.062-1.423v1.917h-.097c-1.217,0-1.965.735-1.965,2.278v2.387h-1.832v-6.461Z" fill="#6d6f70" stroke-width="0"/><path d="M30.062,174.223v-.024c0-1.844,1.41-3.363,3.387-3.363,1.217,0,1.977.41,2.58,1.085l-1.121,1.206c-.41-.435-.819-.712-1.471-.712-.916,0-1.567.808-1.567,1.761v.023c0,.988.639,1.784,1.639,1.784.615,0,1.037-.265,1.483-.687l1.073,1.084c-.627.688-1.35,1.182-2.64,1.182-1.941,0-3.363-1.494-3.363-3.339Z" fill="#6d6f70" stroke-width="0"/><path d="M36.766,174.223v-.024c0-1.844,1.314-3.363,3.194-3.363,2.158,0,3.146,1.676,3.146,3.508,0,.145-.012.313-.024.482h-4.496c.181.832.759,1.266,1.579,1.266.615,0,1.061-.192,1.567-.663l1.049.929c-.603.747-1.471,1.205-2.64,1.205-1.94,0-3.375-1.362-3.375-3.339ZM41.323,173.68c-.108-.819-.591-1.374-1.362-1.374-.759,0-1.253.543-1.398,1.374h2.761Z" fill="#6d6f70" stroke-width="0"/><path d="M133.24,101.672h-.024c-2.426,0-4.414-1.829-4.414-4.45,0-1.609.537-2.572,1.317-3.365l1.377,1.195c-.597.658-.963,1.329-.963,2.182,0,1.438,1.195,2.475,2.658,2.475h.024c1.463,0,2.682-1.012,2.682-2.475,0-.975-.39-1.573-1-2.243l1.207-1.195c.938.878,1.524,1.853,1.524,3.499,0,2.511-1.938,4.377-4.389,4.377Z" fill="#fff" stroke-width="0"/><path d="M134.251,92.931h-.024c-1.877,0-3.401-1.512-3.401-3.548,0-2.023,1.5-3.523,3.377-3.523h.024c1.878,0,3.402,1.512,3.402,3.548,0,2.024-1.5,3.523-3.377,3.523ZM134.251,87.688h-.024c-.963,0-1.804.695-1.804,1.719,0,1.061.817,1.695,1.78,1.695h.024c.963,0,1.805-.695,1.805-1.719,0-1.061-.817-1.694-1.78-1.694Z" fill="#fff" stroke-width="0"/><path d="M130.948,84.519v-1.853h.926c-.548-.427-1.048-.976-1.048-1.914,0-1.402.927-2.219,2.426-2.219h4.23v1.854h-3.646c-.877,0-1.329.415-1.329,1.122s.451,1.158,1.329,1.158h3.646v1.853h-6.535Z" fill="#fff" stroke-width="0"/><path d="M135.629,76.619h-3.097v.78h-1.585v-.78h-1.67v-1.853h1.67v-1.536h1.585v1.536h2.792c.426,0,.634-.183.634-.598,0-.341-.085-.646-.232-.914h1.488c.231.39.378.841.378,1.463,0,1.134-.451,1.902-1.963,1.902Z" fill="#fff" stroke-width="0"/><path d="M130.948,71.865v-1.853h1.316c-.902-.378-1.487-.988-1.438-2.085h1.938v.098c0,1.231.744,1.987,2.304,1.987h2.414v1.853h-6.535Z" fill="#fff" stroke-width="0"/><path d="M134.251,67.269h-.024c-1.877,0-3.401-1.512-3.401-3.548,0-2.023,1.5-3.523,3.377-3.523h.024c1.878,0,3.402,1.512,3.402,3.548,0,2.024-1.5,3.523-3.377,3.523ZM134.251,62.026h-.024c-.963,0-1.804.695-1.804,1.719,0,1.061.817,1.695,1.78,1.695h.024c.963,0,1.805-.695,1.805-1.719,0-1.061-.817-1.694-1.78-1.694Z" fill="#fff" stroke-width="0"/><path d="M128.583,58.771v-1.853h8.9v1.853h-8.9Z" fill="#fff" stroke-width="0"/><path d="M128.583,55.089v-1.853h8.9v1.853h-8.9Z" fill="#fff" stroke-width="0"/><path d="M134.251,51.81h-.024c-1.865,0-3.401-1.329-3.401-3.23,0-2.183,1.695-3.182,3.548-3.182.146,0,.317.012.488.024v4.547c.841-.183,1.28-.768,1.28-1.597,0-.622-.195-1.073-.67-1.585l.939-1.061c.756.609,1.219,1.487,1.219,2.67,0,1.963-1.378,3.414-3.377,3.414ZM133.703,47.202c-.829.11-1.39.598-1.39,1.378,0,.768.549,1.268,1.39,1.414v-2.792Z" fill="#fff" stroke-width="0"/><path d="M130.948,44.02v-1.853h1.316c-.902-.378-1.487-.988-1.438-2.085h1.938v.098c0,1.231.744,1.987,2.304,1.987h2.414v1.853h-6.535Z" fill="#fff" stroke-width="0"/><path d="M128.887,32.146v-1.731l8.595-3.658v1.963l-1.914.78v3.609l1.914.78v1.914l-8.595-3.658ZM133.91,30.17l-2.768,1.134,2.768,1.134v-2.268Z" fill="#fff" stroke-width="0"/><path d="M165.136,101.672h-.024c-2.426,0-4.414-1.829-4.414-4.45,0-1.609.537-2.572,1.317-3.365l1.377,1.195c-.597.658-.963,1.329-.963,2.182,0,1.438,1.195,2.475,2.658,2.475h.024c1.463,0,2.682-1.012,2.682-2.475,0-.975-.39-1.573-1-2.243l1.207-1.195c.938.878,1.524,1.853,1.524,3.499,0,2.511-1.938,4.377-4.389,4.377Z" fill="#fff" stroke-width="0"/><path d="M166.148,92.931h-.024c-1.877,0-3.401-1.512-3.401-3.548,0-2.023,1.5-3.523,3.377-3.523h.024c1.878,0,3.402,1.512,3.402,3.548,0,2.024-1.5,3.523-3.377,3.523ZM166.148,87.688h-.024c-.963,0-1.804.695-1.804,1.719,0,1.061.817,1.695,1.78,1.695h.024c.963,0,1.805-.695,1.805-1.719,0-1.061-.817-1.694-1.78-1.694Z" fill="#fff" stroke-width="0"/><path d="M162.844,84.519v-1.853h.926c-.548-.427-1.048-.976-1.048-1.914,0-1.402.927-2.219,2.426-2.219h4.23v1.854h-3.646c-.877,0-1.329.415-1.329,1.122s.451,1.158,1.329,1.158h3.646v1.853h-6.535Z" fill="#fff" stroke-width="0"/><path d="M167.526,76.619h-3.097v.78h-1.585v-.78h-1.67v-1.853h1.67v-1.536h1.585v1.536h2.792c.426,0,.634-.183.634-.598,0-.341-.085-.646-.232-.914h1.488c.231.39.378.841.378,1.463,0,1.134-.451,1.902-1.963,1.902Z" fill="#fff" stroke-width="0"/><path d="M162.844,71.865v-1.853h1.316c-.902-.378-1.487-.988-1.438-2.085h1.938v.098c0,1.231.744,1.987,2.304,1.987h2.414v1.853h-6.535Z" fill="#fff" stroke-width="0"/><path d="M166.148,67.269h-.024c-1.877,0-3.401-1.512-3.401-3.548,0-2.023,1.5-3.523,3.377-3.523h.024c1.878,0,3.402,1.512,3.402,3.548,0,2.024-1.5,3.523-3.377,3.523ZM166.148,62.026h-.024c-.963,0-1.804.695-1.804,1.719,0,1.061.817,1.695,1.78,1.695h.024c.963,0,1.805-.695,1.805-1.719,0-1.061-.817-1.694-1.78-1.694Z" fill="#fff" stroke-width="0"/><path d="M160.479,58.771v-1.853h8.9v1.853h-8.9Z" fill="#fff" stroke-width="0"/><path d="M160.479,55.089v-1.853h8.9v1.853h-8.9Z" fill="#fff" stroke-width="0"/><path d="M166.148,51.81h-.024c-1.865,0-3.401-1.329-3.401-3.23,0-2.183,1.695-3.182,3.548-3.182.146,0,.317.012.488.024v4.547c.841-.183,1.28-.768,1.28-1.597,0-.622-.195-1.073-.67-1.585l.939-1.061c.756.609,1.219,1.487,1.219,2.67,0,1.963-1.378,3.414-3.377,3.414ZM165.6,47.202c-.829.11-1.39.598-1.39,1.378,0,.768.549,1.268,1.39,1.414v-2.792Z" fill="#fff" stroke-width="0"/><path d="M162.844,44.02v-1.853h1.316c-.902-.378-1.487-.988-1.438-2.085h1.938v.098c0,1.231.744,1.987,2.304,1.987h2.414v1.853h-6.535Z" fill="#fff" stroke-width="0"/><path d="M160.845,35.072v-3.962c0-.976.268-1.744.756-2.231.39-.39.866-.585,1.451-.585h.024c.963,0,1.5.512,1.841,1.122.378-.987.951-1.597,2.097-1.597h.024c1.561,0,2.341,1.268,2.341,3.194v4.06h-8.534ZM163.368,30.158c-.561,0-.877.439-.877,1.231v1.853h1.804v-1.731c0-.829-.268-1.354-.902-1.354h-.024ZM165.855,31.073v2.17h1.877v-2.231c0-.829-.292-1.329-.926-1.329h-.024c-.573,0-.927.427-.927,1.39Z" fill="#fff" stroke-width="0"/></svg>