<?xml version="1.0" encoding="utf-8"?>
<!-- Generator: Adobe Illustrator 28.3.0, SVG Export Plug-In . SVG Version: 6.00 Build 0)  -->
<svg version="1.1" xmlns="http://www.w3.org/2000/svg" xmlns:xlink="http://www.w3.org/1999/xlink" x="0px" y="0px" width="360px"
	 height="260.5417px" viewBox="0 0 360 260.5417" style="enable-background:new 0 0 360 260.5417;" xml:space="preserve">
<style type="text/css">
	.st0{fill:none;stroke:#FFFFFF;stroke-width:5;stroke-miterlimit:10;}
	.st1{fill:none;stroke:#BCBEC0;stroke-width:2.2915;stroke-miterlimit:10;}
	.st2{fill:none;stroke:#BCBEC0;stroke-width:2.2915;stroke-miterlimit:10;stroke-dasharray:2.2102;}
	.st3{fill:none;stroke:#1670B9;stroke-width:2.2915;stroke-miterlimit:10;}
	.st4{fill:none;stroke:#F5A800;stroke-width:2.2915;stroke-miterlimit:10;}
	.st5{fill:none;stroke:#1670B9;stroke-width:2.2915;stroke-miterlimit:10;stroke-dasharray:2.2102;}
	.st6{fill:none;stroke:#F5A800;stroke-width:2.2915;stroke-miterlimit:10;stroke-dasharray:2.2102;}
	.st7{fill:#FFFFFF;stroke:#000000;stroke-width:1.2213;stroke-miterlimit:10;}
	.st8{fill:#FFFFFF;stroke:#000000;stroke-width:1.25;stroke-miterlimit:10;}
	.st9{fill:#FFFFFF;stroke:#BCBEC0;stroke-width:1.2213;stroke-miterlimit:10;}
	.st10{fill:#FFFFFF;stroke:#BCBEC0;stroke-width:1.25;stroke-miterlimit:10;}
	.st11{fill:#A7A9AC;}
	.st12{fill:#231F20;}
	.st13{fill:none;stroke:#231F20;stroke-width:1.4842;stroke-miterlimit:10;}
</style>
<g id="Layer_1">
	<g>
		<g>
			<line class="st0" x1="146.9953" y1="34.3336" x2="250.3177" y2="34.3336"/>
			<line class="st1" x1="146.9953" y1="34.3336" x2="250.3177" y2="34.3336"/>
		</g>
		<g>
			<polyline class="st0" points="145.659,237.0148 196.7081,237.0148 196.7081,56.4358 250.3177,56.4358 			"/>
			<polyline class="st2" points="145.659,237.0148 196.7081,237.0148 196.7081,56.4358 250.3177,56.4358 			"/>
		</g>
		<g>
			<polyline class="st0" points="145.659,163.6945 219.0959,163.6945 219.0959,84.4542 250.3177,84.4542 			"/>
			<polyline class="st1" points="145.659,163.6945 219.0959,163.6945 219.0959,84.4542 250.3177,84.4542 			"/>
		</g>
		<g>
			<polyline class="st0" points="145.659,90.6386 180.0175,90.6386 180.0175,168.3106 250.3177,168.3106 			"/>
			<polyline class="st3" points="145.659,90.6386 180.0175,90.6386 180.0175,168.3106 250.3177,168.3106 			"/>
		</g>
		<g>
			<line class="st0" x1="145.659" y1="105.9013" x2="250.3177" y2="105.9013"/>
			<line class="st2" x1="145.659" y1="105.9013" x2="250.3177" y2="105.9013"/>
		</g>
		<g>
			<polyline class="st0" points="145.659,222.0029 173.3109,222.0029 173.3109,215.5565 250.3177,215.5565 			"/>
			<polyline class="st4" points="145.659,222.0029 173.3109,222.0029 173.3109,215.5565 250.3177,215.5565 			"/>
		</g>
		<g>
			<polyline class="st0" points="145.659,51.0045 208.264,51.0045 208.264,236.7003 250.3177,236.7003 			"/>
			<polyline class="st5" points="145.659,51.0045 208.264,51.0045 208.264,236.7003 250.3177,236.7003 			"/>
		</g>
		<g>
			<polyline class="st0" points="146.0377,181.5744 234.918,181.5744 234.918,187.538 250.3177,187.538 			"/>
			<polyline class="st6" points="146.0377,181.5744 234.918,181.5744 234.918,187.538 250.3177,187.538 			"/>
		</g>
		<rect x="7.534" y="20.5322" class="st7" width="138.125" height="99.8255"/>
		<g>
			<path d="M42.9683,70.4964l0.9771,0.2466c-0.2046,0.8022-0.5732,1.4141-1.1055,1.8354c-0.5317,0.4209-1.1821,0.6318-1.9507,0.6318
				c-0.7959,0-1.4429-0.1621-1.9414-0.4858c-0.498-0.3242-0.8774-0.793-1.1377-1.4072s-0.3901-1.2739-0.3901-1.979
				c0-0.7686,0.1465-1.439,0.4404-2.0117c0.2939-0.5723,0.7114-1.0068,1.2539-1.3037c0.542-0.2974,1.1387-0.4458,1.79-0.4458
				c0.7383,0,1.3594,0.188,1.8628,0.564s0.854,0.9048,1.0522,1.5859l-0.9614,0.2266c-0.1714-0.5371-0.4199-0.9282-0.7456-1.1729
				c-0.3252-0.2451-0.7349-0.3677-1.2285-0.3677c-0.5674,0-1.0415,0.1357-1.4224,0.4077s-0.6484,0.6372-0.8027,1.0952
				c-0.1548,0.458-0.2319,0.9307-0.2319,1.4175c0,0.6274,0.0913,1.1758,0.2744,1.644s0.4673,0.8179,0.8535,1.0498
				c0.3857,0.2314,0.8037,0.3472,1.2539,0.3472c0.5469,0,1.0103-0.1577,1.3896-0.4731
				C42.5771,71.5858,42.834,71.1175,42.9683,70.4964z"/>
			<path d="M44.6953,70.4105c0-0.9897,0.2754-1.7236,0.8257-2.2002c0.46-0.396,1.0205-0.5942,1.6816-0.5942
				c0.7354,0,1.3364,0.2412,1.8027,0.7227c0.4668,0.4819,0.6997,1.1475,0.6997,1.9966c0,0.688-0.103,1.2295-0.3096,1.6235
				c-0.2061,0.3945-0.5068,0.7007-0.9014,0.9189c-0.394,0.2183-0.8247,0.3271-1.2915,0.3271c-0.7485,0-1.3535-0.2397-1.8149-0.7197
				S44.6953,71.3138,44.6953,70.4105z M45.627,70.4105c0,0.6851,0.1494,1.1978,0.4482,1.5386
				c0.2983,0.3408,0.6743,0.5107,1.1274,0.5107c0.4502,0,0.8242-0.1709,1.123-0.5132c0.2988-0.3428,0.4482-0.8647,0.4482-1.5659
				c0-0.6616-0.1504-1.1626-0.4507-1.5034c-0.3003-0.3403-0.6738-0.5107-1.1206-0.5107c-0.4531,0-0.8291,0.1694-1.1274,0.5083
				C45.7764,69.2142,45.627,69.7259,45.627,70.4105z"/>
			<path d="M50.7676,73.0843v-5.3472h0.8159v0.7603c0.3926-0.5874,0.96-0.8813,1.7017-0.8813c0.3223,0,0.6187,0.0581,0.8887,0.1738
				s0.4727,0.2676,0.6069,0.4556c0.1338,0.188,0.228,0.4116,0.2817,0.6699c0.0337,0.168,0.0503,0.4614,0.0503,0.8809v3.2881h-0.9062
				v-3.2524c0-0.3696-0.0352-0.6455-0.1055-0.8286c-0.0708-0.1826-0.1958-0.3286-0.3755-0.438
				c-0.1797-0.1089-0.3901-0.1636-0.6318-0.1636c-0.3857,0-0.7192,0.1226-0.9995,0.3677s-0.4204,0.71-0.4204,1.3945v2.9204H50.7676z
				"/>
			<path d="M58.4814,72.2737l0.1309,0.8003c-0.2554,0.0537-0.4834,0.0806-0.6851,0.0806c-0.3286,0-0.584-0.0518-0.7651-0.1558
				s-0.3091-0.2407-0.3828-0.4106c-0.0737-0.1694-0.1108-0.5259-0.1108-1.0698v-3.0762h-0.6646v-0.7051h0.6646v-1.3242
				l0.9014-0.5439v1.8682h0.9116v0.7051h-0.9116v3.1265c0,0.2588,0.0161,0.4248,0.0479,0.4985s0.084,0.1328,0.1562,0.1763
				s0.1753,0.0654,0.3096,0.0654C58.1841,72.3089,58.3169,72.2972,58.4814,72.2737z"/>
			<path d="M59.3574,73.0843v-5.3472h0.8159v0.8105c0.208-0.3794,0.4004-0.6294,0.5767-0.75
				c0.1763-0.1211,0.3701-0.1816,0.5815-0.1816c0.3052,0,0.6157,0.0977,0.9312,0.292l-0.312,0.8413
				c-0.2217-0.1313-0.4429-0.1968-0.6646-0.1968c-0.1982,0-0.376,0.0596-0.5337,0.1787c-0.1577,0.1196-0.2705,0.2847-0.3374,0.4961
				c-0.1006,0.3223-0.1509,0.6748-0.1509,1.0576v2.7993H59.3574z"/>
			<path d="M62.4639,70.4105c0-0.9897,0.2754-1.7236,0.8257-2.2002c0.46-0.396,1.0205-0.5942,1.6816-0.5942
				c0.7354,0,1.3364,0.2412,1.8027,0.7227c0.4668,0.4819,0.6997,1.1475,0.6997,1.9966c0,0.688-0.103,1.2295-0.3096,1.6235
				c-0.2061,0.3945-0.5068,0.7007-0.9014,0.9189c-0.394,0.2183-0.8247,0.3271-1.2915,0.3271c-0.7485,0-1.3535-0.2397-1.8149-0.7197
				S62.4639,71.3138,62.4639,70.4105z M63.3955,70.4105c0,0.6851,0.1494,1.1978,0.4482,1.5386
				c0.2983,0.3408,0.6743,0.5107,1.1274,0.5107c0.4502,0,0.8242-0.1709,1.123-0.5132c0.2988-0.3428,0.4482-0.8647,0.4482-1.5659
				c0-0.6616-0.1504-1.1626-0.4507-1.5034c-0.3003-0.3403-0.6738-0.5107-1.1206-0.5107c-0.4531,0-0.8291,0.1694-1.1274,0.5083
				C63.5449,69.2142,63.3955,69.7259,63.3955,70.4105z"/>
			<path d="M68.5166,73.0843v-7.3813h0.9062v7.3813H68.5166z"/>
			<path d="M70.8071,73.0843v-7.3813h0.9062v7.3813H70.8071z"/>
			<path d="M76.7788,71.3621l0.9365,0.1162c-0.1479,0.5469-0.4214,0.9717-0.8208,1.2734c-0.3994,0.3022-0.9097,0.4531-1.5308,0.4531
				c-0.7822,0-1.4023-0.2407-1.8604-0.7222c-0.458-0.4819-0.6875-1.1572-0.6875-2.0269c0-0.8994,0.2319-1.5977,0.6948-2.0942
				c0.4634-0.4971,1.0645-0.7456,1.8027-0.7456c0.7148,0,1.2988,0.2437,1.7524,0.7305c0.4531,0.4863,0.6797,1.1714,0.6797,2.0542
				c0,0.0537-0.002,0.1343-0.0054,0.2417h-3.9878c0.0337,0.5874,0.1997,1.0371,0.4985,1.3491
				c0.2988,0.3125,0.6714,0.4683,1.1177,0.4683c0.3325,0,0.6162-0.0869,0.8511-0.2617
				C76.4546,72.0237,76.6411,71.7449,76.7788,71.3621z M73.8032,69.8973h2.9854c-0.04-0.4502-0.1543-0.7871-0.3423-1.0122
				c-0.2886-0.3491-0.6631-0.5234-1.1226-0.5234c-0.4165,0-0.7661,0.1392-1.0498,0.4175
				C73.9902,69.0579,73.833,69.4305,73.8032,69.8973z"/>
			<path d="M78.8428,73.0843v-5.3472h0.8159v0.8105c0.208-0.3794,0.4004-0.6294,0.5767-0.75
				c0.1763-0.1211,0.3701-0.1816,0.5815-0.1816c0.3052,0,0.6157,0.0977,0.9312,0.292l-0.312,0.8413
				c-0.2217-0.1313-0.4429-0.1968-0.6646-0.1968c-0.1982,0-0.376,0.0596-0.5337,0.1787c-0.1577,0.1196-0.2705,0.2847-0.3374,0.4961
				c-0.1006,0.3223-0.1509,0.6748-0.1509,1.0576v2.7993H78.8428z"/>
			<path d="M83.8882,73.0843l2.835-7.3813h1.0522l3.021,7.3813h-1.1128l-0.8608-2.2354h-3.0864l-0.811,2.2354H83.8882z
				 M86.0181,70.053h2.5024L87.75,68.0091c-0.2349-0.6211-0.4097-1.1313-0.5234-1.5308C87.1323,66.9515,87,67.4217,86.8286,67.888
				L86.0181,70.053z"/>
		</g>
		<g>
			<rect x="7.534" y="151.3148" class="st7" width="138.125" height="99.8255"/>
		</g>
		<g>
			<path d="M42.3994,204.4984l0.9771,0.2471c-0.2046,0.8018-0.5732,1.4141-1.1055,1.835c-0.5317,0.4209-1.1821,0.6318-1.9507,0.6318
				c-0.7959,0-1.4429-0.1621-1.9414-0.4863c-0.498-0.3232-0.8774-0.793-1.1377-1.4072s-0.3901-1.2734-0.3901-1.9785
				c0-0.7686,0.1465-1.4395,0.4404-2.0117s0.7114-1.0068,1.2539-1.3037c0.542-0.2969,1.1387-0.4453,1.79-0.4453
				c0.7383,0,1.3594,0.1875,1.8628,0.5635s0.854,0.9043,1.0522,1.5859l-0.9614,0.2266c-0.1714-0.5371-0.4199-0.9277-0.7456-1.1729
				c-0.3252-0.2451-0.7349-0.3682-1.2285-0.3682c-0.5674,0-1.0415,0.1367-1.4224,0.4082s-0.6484,0.6367-0.8027,1.0947
				c-0.1548,0.459-0.2319,0.9307-0.2319,1.418c0,0.6279,0.0913,1.1758,0.2744,1.6436c0.1831,0.4688,0.4673,0.8184,0.8535,1.0498
				c0.3857,0.2314,0.8037,0.3477,1.2539,0.3477c0.5469,0,1.0103-0.1582,1.3896-0.4736
				C42.0083,205.5872,42.2651,205.1194,42.3994,204.4984z"/>
			<path d="M44.1265,204.4124c0-0.9902,0.2754-1.7236,0.8257-2.2002c0.46-0.3955,1.0205-0.5938,1.6816-0.5938
				c0.7354,0,1.3364,0.2402,1.8027,0.7227c0.4668,0.4814,0.6997,1.1465,0.6997,1.9961c0,0.6885-0.103,1.2295-0.3096,1.624
				c-0.2061,0.3945-0.5068,0.7002-0.9014,0.9189c-0.394,0.2178-0.8247,0.3271-1.2915,0.3271c-0.7485,0-1.3535-0.2402-1.8149-0.7207
				C44.3574,206.0071,44.1265,205.3157,44.1265,204.4124z M45.0581,204.4124c0,0.6846,0.1494,1.1982,0.4482,1.5381
				c0.2983,0.3408,0.6743,0.5117,1.1274,0.5117c0.4502,0,0.8242-0.1719,1.123-0.5137c0.2988-0.3428,0.4482-0.8643,0.4482-1.5664
				c0-0.6611-0.1504-1.1621-0.4507-1.5029s-0.6738-0.5107-1.1206-0.5107c-0.4531,0-0.8291,0.1699-1.1274,0.5088
				C45.2075,203.2161,45.0581,203.7278,45.0581,204.4124z"/>
			<path d="M50.1987,207.0862v-5.3477h0.8159v0.7607c0.3926-0.5879,0.96-0.8809,1.7017-0.8809c0.3223,0,0.6187,0.0576,0.8887,0.1738
				c0.27,0.1152,0.4727,0.2676,0.6069,0.4551c0.1338,0.1885,0.228,0.4111,0.2817,0.6699c0.0337,0.168,0.0503,0.4619,0.0503,0.8809
				v3.2881h-0.9062v-3.2529c0-0.3691-0.0352-0.6445-0.1055-0.8281c-0.0708-0.1826-0.1958-0.3291-0.3755-0.4375
				c-0.1797-0.1094-0.3901-0.1641-0.6318-0.1641c-0.3857,0-0.7192,0.123-0.9995,0.3672c-0.2803,0.2451-0.4204,0.71-0.4204,1.3955
				v2.9199H50.1987z"/>
			<path d="M57.9126,206.2757l0.1309,0.8008c-0.2554,0.0537-0.4834,0.0801-0.6851,0.0801c-0.3286,0-0.584-0.0518-0.7651-0.1562
				c-0.1812-0.1035-0.3091-0.2402-0.3828-0.4102c-0.0737-0.1689-0.1108-0.5264-0.1108-1.0693v-3.0771h-0.6646v-0.7051h0.6646
				v-1.3242l0.9014-0.543v1.8672h0.9116v0.7051H57.001v3.127c0,0.2588,0.0161,0.4248,0.0479,0.499
				c0.0317,0.0732,0.084,0.1318,0.1562,0.1758s0.1753,0.0654,0.3096,0.0654C57.6152,206.3109,57.748,206.2991,57.9126,206.2757z"/>
			<path d="M58.7886,207.0862v-5.3477h0.8159v0.8115c0.208-0.3799,0.4004-0.6299,0.5767-0.751
				c0.1763-0.1201,0.3701-0.1807,0.5815-0.1807c0.3052,0,0.6157,0.0967,0.9312,0.292l-0.312,0.8408
				c-0.2217-0.1309-0.4429-0.1963-0.6646-0.1963c-0.1982,0-0.376,0.0596-0.5337,0.1787s-0.2705,0.2842-0.3374,0.4961
				c-0.1006,0.3223-0.1509,0.6738-0.1509,1.0566v2.7998H58.7886z"/>
			<path d="M61.895,204.4124c0-0.9902,0.2754-1.7236,0.8257-2.2002c0.46-0.3955,1.0205-0.5938,1.6816-0.5938
				c0.7354,0,1.3364,0.2402,1.8027,0.7227c0.4668,0.4814,0.6997,1.1465,0.6997,1.9961c0,0.6885-0.103,1.2295-0.3096,1.624
				c-0.2061,0.3945-0.5068,0.7002-0.9014,0.9189c-0.394,0.2178-0.8247,0.3271-1.2915,0.3271c-0.7485,0-1.3535-0.2402-1.8149-0.7207
				C62.126,206.0071,61.895,205.3157,61.895,204.4124z M62.8267,204.4124c0,0.6846,0.1494,1.1982,0.4482,1.5381
				c0.2983,0.3408,0.6743,0.5117,1.1274,0.5117c0.4502,0,0.8242-0.1719,1.123-0.5137c0.2988-0.3428,0.4482-0.8643,0.4482-1.5664
				c0-0.6611-0.1504-1.1621-0.4507-1.5029s-0.6738-0.5107-1.1206-0.5107c-0.4531,0-0.8291,0.1699-1.1274,0.5088
				C62.9761,203.2161,62.8267,203.7278,62.8267,204.4124z"/>
			<path d="M67.9478,207.0862v-7.3818h0.9062v7.3818H67.9478z"/>
			<path d="M70.2383,207.0862v-7.3818h0.9062v7.3818H70.2383z"/>
			<path d="M76.21,205.3646l0.9365,0.1152c-0.1479,0.5479-0.4214,0.9717-0.8208,1.2744c-0.3994,0.3018-0.9097,0.4531-1.5308,0.4531
				c-0.7822,0-1.4023-0.2412-1.8604-0.7227s-0.6875-1.1572-0.6875-2.0264c0-0.9004,0.2319-1.5986,0.6948-2.0947
				c0.4634-0.4971,1.0645-0.7451,1.8027-0.7451c0.7148,0,1.2988,0.2432,1.7524,0.7295c0.4531,0.4873,0.6797,1.1719,0.6797,2.0547
				c0,0.0537-0.002,0.1338-0.0054,0.2412h-3.9878c0.0337,0.5879,0.1997,1.0381,0.4985,1.3496
				c0.2988,0.3125,0.6714,0.4688,1.1177,0.4688c0.3325,0,0.6162-0.0879,0.8511-0.2617
				C75.8857,206.0257,76.0723,205.7474,76.21,205.3646z M73.2344,203.8987h2.9854c-0.04-0.4492-0.1543-0.7871-0.3423-1.0117
				c-0.2886-0.3486-0.6631-0.5234-1.1226-0.5234c-0.4165,0-0.7661,0.1387-1.0498,0.418
				C73.4214,203.0599,73.2642,203.4329,73.2344,203.8987z"/>
			<path d="M78.2739,207.0862v-5.3477h0.8159v0.8115c0.208-0.3799,0.4004-0.6299,0.5767-0.751
				c0.1763-0.1201,0.3701-0.1807,0.5815-0.1807c0.3052,0,0.6157,0.0967,0.9312,0.292l-0.312,0.8408
				c-0.2217-0.1309-0.4429-0.1963-0.6646-0.1963c-0.1982,0-0.376,0.0596-0.5337,0.1787s-0.2705,0.2842-0.3374,0.4961
				c-0.1006,0.3223-0.1509,0.6738-0.1509,1.0566v2.7998H78.2739z"/>
			<path d="M84.6592,207.0862v-7.3818h2.769c0.564,0,1.0161,0.0752,1.3569,0.2246s0.6074,0.3789,0.8008,0.6895
				c0.1929,0.3105,0.2896,0.6357,0.2896,0.9746c0,0.3154-0.0854,0.6123-0.2568,0.8906c-0.1714,0.2793-0.4297,0.5039-0.7754,0.6748
				c0.4463,0.1309,0.7896,0.3545,1.0298,0.6699c0.2397,0.3154,0.3599,0.6885,0.3599,1.1182c0,0.3457-0.0732,0.667-0.2192,0.9639
				s-0.3262,0.5264-0.541,0.6875s-0.4844,0.2822-0.8081,0.3652c-0.3242,0.082-0.7212,0.123-1.1909,0.123H84.6592z M85.6357,202.806
				h1.5962c0.4331,0,0.7437-0.0283,0.9316-0.085c0.248-0.0742,0.4355-0.1963,0.5615-0.3682
				c0.1255-0.1709,0.1885-0.3857,0.1885-0.6445c0-0.2441-0.0586-0.46-0.1763-0.6465c-0.1172-0.1865-0.2852-0.3135-0.5034-0.3828
				c-0.2183-0.0684-0.5923-0.1035-1.1226-0.1035h-1.4756V202.806z M85.6357,206.2151h1.8379c0.3154,0,0.5371-0.0117,0.6646-0.0352
				c0.2251-0.04,0.4131-0.1074,0.564-0.2012c0.1514-0.0938,0.2754-0.2314,0.3726-0.4111c0.0977-0.1787,0.146-0.3867,0.146-0.6211
				c0-0.2754-0.0703-0.5146-0.2114-0.7178s-0.3364-0.3457-0.5864-0.4277s-0.6104-0.124-1.0801-0.124h-1.707V206.2151z"/>
		</g>
		<g>
			<rect x="250.3177" y="151.6345" class="st7" width="102.1833" height="99.8255"/>
			<g>
				<g>
					<g>
						<rect x="250.3177" y="160.5353" class="st8" width="32.0211" height="11.7177"/>
						<g>
							<path d="M262.3369,168.221l0.9365,0.1152c-0.1475,0.5479-0.4209,0.9717-0.8203,1.2744
								c-0.3994,0.3018-0.9102,0.4531-1.5303,0.4531c-0.7822,0-1.4023-0.2412-1.8613-0.7227
								c-0.458-0.4814-0.6865-1.1572-0.6865-2.0264c0-0.9004,0.2314-1.5986,0.6943-2.0947
								c0.4639-0.4971,1.0645-0.7451,1.8027-0.7451c0.7148,0,1.2988,0.2432,1.752,0.7295c0.4531,0.4873,0.6797,1.1719,0.6797,2.0547
								c0,0.0537-0.001,0.1338-0.0049,0.2412h-3.9873c0.0332,0.5879,0.1992,1.0381,0.498,1.3496
								c0.2988,0.3125,0.6719,0.4688,1.1182,0.4688c0.332,0,0.6152-0.0879,0.8506-0.2617
								C262.0137,168.8821,262.1992,168.6038,262.3369,168.221z M259.3613,166.7552h2.9863
								c-0.041-0.4492-0.1543-0.7871-0.3428-1.0117c-0.2891-0.3486-0.6631-0.5234-1.123-0.5234c-0.416,0-0.7656,0.1387-1.0498,0.418
								C259.5488,165.9163,259.3916,166.2894,259.3613,166.7552z"/>
							<path d="M264.1602,166.3021c0-0.8721,0.0898-1.5752,0.2695-2.1064c0.1797-0.5322,0.4463-0.9424,0.8008-1.2314
								c0.3535-0.2891,0.7998-0.4326,1.3369-0.4326c0.3955,0,0.7432,0.0791,1.042,0.2383c0.2988,0.1602,0.5459,0.3896,0.7402,0.6904
								c0.1943,0.2998,0.3477,0.666,0.458,1.0977c0.1113,0.4307,0.166,1.0127,0.166,1.7441c0,0.8662-0.0889,1.5654-0.2666,2.0977
								s-0.4443,0.9434-0.7979,1.2334c-0.3545,0.29-0.8018,0.4355-1.3418,0.4355c-0.7119,0-1.2705-0.2549-1.6768-0.7656
								C264.4033,168.6888,264.1602,167.6888,264.1602,166.3021z M265.0918,166.3021c0,1.2119,0.1416,2.0186,0.4258,2.4199
								c0.2832,0.4004,0.6338,0.6016,1.0498,0.6016s0.7656-0.2012,1.0498-0.6045c0.2832-0.4023,0.4248-1.208,0.4248-2.417
								c0-1.2148-0.1416-2.0225-0.4248-2.4219c-0.2842-0.3994-0.6367-0.5986-1.0605-0.5986c-0.416,0-0.748,0.1758-0.9961,0.5283
								C265.248,164.2601,265.0918,165.0901,265.0918,166.3021z"/>
							<path d="M273.6357,169.2835c-0.3359,0.2852-0.6592,0.4863-0.9688,0.6035c-0.3105,0.1182-0.6445,0.1768-1,0.1768
								c-0.5869,0-1.0391-0.1436-1.3545-0.4307s-0.4727-0.6533-0.4727-1.1006c0-0.2617,0.0596-0.501,0.1787-0.7168
								c0.1191-0.2168,0.2744-0.3906,0.4678-0.5215s0.4102-0.2295,0.6523-0.2969c0.1777-0.0469,0.4463-0.0928,0.8057-0.1357
								c0.7314-0.0879,1.2705-0.1914,1.6162-0.3125c0.0029-0.124,0.0049-0.2031,0.0049-0.2363c0-0.3691-0.0859-0.6299-0.2568-0.7812
								c-0.2314-0.2041-0.5762-0.3066-1.0322-0.3066c-0.4268,0-0.7412,0.0742-0.9443,0.2236s-0.3535,0.4141-0.4502,0.793
								l-0.8867-0.1201c0.0811-0.3799,0.2139-0.6855,0.3984-0.9189s0.4512-0.4131,0.7998-0.5391
								c0.3496-0.126,0.7539-0.1885,1.2139-0.1885c0.4561,0,0.8271,0.0537,1.1133,0.1611c0.2852,0.1074,0.4941,0.2422,0.6289,0.4053
								c0.1338,0.1621,0.2285,0.3682,0.2822,0.6162c0.0303,0.1543,0.0449,0.4336,0.0449,0.8359v1.209
								c0,0.8418,0.0195,1.375,0.0576,1.5986c0.0391,0.2227,0.1152,0.4365,0.2295,0.6416h-0.9463
								C273.7227,169.7552,273.6631,169.5345,273.6357,169.2835z M273.5605,167.2591c-0.3291,0.1338-0.8223,0.248-1.4805,0.3428
								c-0.373,0.0537-0.6357,0.1133-0.791,0.1807c-0.1543,0.0674-0.2734,0.165-0.3574,0.2949
								c-0.084,0.1289-0.126,0.2725-0.126,0.4307c0,0.2412,0.0918,0.4424,0.2744,0.6035c0.1836,0.1611,0.4512,0.2422,0.8037,0.2422
								c0.3486,0,0.6592-0.0762,0.9316-0.2295c0.2715-0.1523,0.4717-0.3613,0.5986-0.627c0.0977-0.2041,0.1465-0.5068,0.1465-0.9062
								V167.2591z"/>
						</g>
					</g>
				</g>
				<g>
					<g>
						<rect x="250.3177" y="181.6792" class="st8" width="32.0211" height="11.7177"/>
						<g>
							<path d="M262.3369,189.3646l0.9365,0.1152c-0.1475,0.5479-0.4209,0.9717-0.8203,1.2744
								c-0.3994,0.3018-0.9102,0.4531-1.5303,0.4531c-0.7822,0-1.4023-0.2412-1.8613-0.7227
								c-0.458-0.4814-0.6865-1.1572-0.6865-2.0264c0-0.9004,0.2314-1.5986,0.6943-2.0947
								c0.4639-0.4971,1.0645-0.7451,1.8027-0.7451c0.7148,0,1.2988,0.2432,1.752,0.7295c0.4531,0.4873,0.6797,1.1719,0.6797,2.0547
								c0,0.0537-0.001,0.1338-0.0049,0.2412h-3.9873c0.0332,0.5879,0.1992,1.0381,0.498,1.3496
								c0.2988,0.3125,0.6719,0.4688,1.1182,0.4688c0.332,0,0.6152-0.0879,0.8506-0.2617
								C262.0137,190.0257,262.1992,189.7474,262.3369,189.3646z M259.3613,187.8987h2.9863
								c-0.041-0.4492-0.1543-0.7871-0.3428-1.0117c-0.2891-0.3486-0.6631-0.5234-1.123-0.5234c-0.416,0-0.7656,0.1387-1.0498,0.418
								C259.5488,187.0599,259.3916,187.4329,259.3613,187.8987z"/>
							<path d="M264.1602,187.4456c0-0.8721,0.0898-1.5752,0.2695-2.1064c0.1797-0.5322,0.4463-0.9424,0.8008-1.2314
								c0.3535-0.2891,0.7998-0.4326,1.3369-0.4326c0.3955,0,0.7432,0.0791,1.042,0.2383c0.2988,0.1602,0.5459,0.3896,0.7402,0.6904
								c0.1943,0.2998,0.3477,0.666,0.458,1.0977c0.1113,0.4307,0.166,1.0127,0.166,1.7441c0,0.8662-0.0889,1.5654-0.2666,2.0977
								s-0.4443,0.9434-0.7979,1.2334c-0.3545,0.29-0.8018,0.4355-1.3418,0.4355c-0.7119,0-1.2705-0.2549-1.6768-0.7656
								C264.4033,189.8323,264.1602,188.8323,264.1602,187.4456z M265.0918,187.4456c0,1.2119,0.1416,2.0186,0.4258,2.4199
								c0.2832,0.4004,0.6338,0.6016,1.0498,0.6016s0.7656-0.2012,1.0498-0.6045c0.2832-0.4023,0.4248-1.208,0.4248-2.417
								c0-1.2148-0.1416-2.0225-0.4248-2.4219c-0.2842-0.3994-0.6367-0.5986-1.0605-0.5986c-0.416,0-0.748,0.1758-0.9961,0.5283
								C265.248,185.4036,265.0918,186.2337,265.0918,187.4456z"/>
							<path d="M270.9824,191.0862h-0.8408v-7.3818h0.9062v2.6338c0.3828-0.4805,0.8711-0.7197,1.4648-0.7197
								c0.3291,0,0.6406,0.0664,0.9346,0.1982c0.293,0.1328,0.5352,0.3193,0.7246,0.5596c0.1895,0.2393,0.3379,0.5293,0.4453,0.8682
								s0.1611,0.7012,0.1611,1.0879c0,0.916-0.2266,1.624-0.6797,2.125c-0.4531,0.5-0.9961,0.75-1.6309,0.75
								c-0.6309,0-1.126-0.2637-1.4854-0.791V191.0862z M270.9727,188.3724c0,0.6416,0.0869,1.1045,0.2617,1.3896
								c0.2852,0.4668,0.6709,0.7002,1.1582,0.7002c0.3955,0,0.7383-0.1719,1.0264-0.5166
								c0.2891-0.3438,0.4336-0.8564,0.4336-1.5381c0-0.6982-0.1387-1.2139-0.416-1.5459c-0.2764-0.332-0.6113-0.498-1.0039-0.498
								c-0.3965,0-0.7383,0.1719-1.0273,0.5156C271.1162,187.2239,270.9727,187.721,270.9727,188.3724z"/>
						</g>
					</g>
				</g>
				<g>
					<g>
						<rect x="250.3177" y="209.6976" class="st8" width="32.0211" height="11.7177"/>
						<g>
							<path d="M262.3369,217.3831l0.9365,0.1152c-0.1475,0.5479-0.4209,0.9717-0.8203,1.2744
								c-0.3994,0.3018-0.9102,0.4531-1.5303,0.4531c-0.7822,0-1.4023-0.2412-1.8613-0.7227
								c-0.458-0.4814-0.6865-1.1572-0.6865-2.0264c0-0.9004,0.2314-1.5986,0.6943-2.0947
								c0.4639-0.4971,1.0645-0.7451,1.8027-0.7451c0.7148,0,1.2988,0.2432,1.752,0.7295c0.4531,0.4873,0.6797,1.1719,0.6797,2.0547
								c0,0.0537-0.001,0.1338-0.0049,0.2412h-3.9873c0.0332,0.5879,0.1992,1.0381,0.498,1.3496
								c0.2988,0.3125,0.6719,0.4688,1.1182,0.4688c0.332,0,0.6152-0.0879,0.8506-0.2617
								C262.0137,218.0443,262.1992,217.7659,262.3369,217.3831z M259.3613,215.9173h2.9863
								c-0.041-0.4492-0.1543-0.7871-0.3428-1.0117c-0.2891-0.3486-0.6631-0.5234-1.123-0.5234c-0.416,0-0.7656,0.1387-1.0498,0.418
								C259.5488,215.0784,259.3916,215.4515,259.3613,215.9173z"/>
							<path d="M264.1602,215.4642c0-0.8721,0.0898-1.5752,0.2695-2.1064c0.1797-0.5322,0.4463-0.9424,0.8008-1.2314
								c0.3535-0.2891,0.7998-0.4326,1.3369-0.4326c0.3955,0,0.7432,0.0791,1.042,0.2383c0.2988,0.1602,0.5459,0.3896,0.7402,0.6904
								c0.1943,0.2998,0.3477,0.666,0.458,1.0977c0.1113,0.4307,0.166,1.0127,0.166,1.7441c0,0.8662-0.0889,1.5654-0.2666,2.0977
								s-0.4443,0.9434-0.7979,1.2334c-0.3545,0.29-0.8018,0.4355-1.3418,0.4355c-0.7119,0-1.2705-0.2549-1.6768-0.7656
								C264.4033,217.8509,264.1602,216.8509,264.1602,215.4642z M265.0918,215.4642c0,1.2119,0.1416,2.0186,0.4258,2.4199
								c0.2832,0.4004,0.6338,0.6016,1.0498,0.6016s0.7656-0.2012,1.0498-0.6045c0.2832-0.4023,0.4248-1.208,0.4248-2.417
								c0-1.2148-0.1416-2.0225-0.4248-2.4219c-0.2842-0.3994-0.6367-0.5986-1.0605-0.5986c-0.416,0-0.748,0.1758-0.9961,0.5283
								C265.248,213.4222,265.0918,214.2523,265.0918,215.4642z"/>
							<path d="M273.6357,218.4456c-0.3359,0.2852-0.6592,0.4863-0.9688,0.6035c-0.3105,0.1182-0.6445,0.1768-1,0.1768
								c-0.5869,0-1.0391-0.1436-1.3545-0.4307s-0.4727-0.6533-0.4727-1.1006c0-0.2617,0.0596-0.501,0.1787-0.7168
								c0.1191-0.2168,0.2744-0.3906,0.4678-0.5215s0.4102-0.2295,0.6523-0.2969c0.1777-0.0469,0.4463-0.0928,0.8057-0.1357
								c0.7314-0.0879,1.2705-0.1914,1.6162-0.3125c0.0029-0.124,0.0049-0.2031,0.0049-0.2363c0-0.3691-0.0859-0.6299-0.2568-0.7812
								c-0.2314-0.2041-0.5762-0.3066-1.0322-0.3066c-0.4268,0-0.7412,0.0742-0.9443,0.2236s-0.3535,0.4141-0.4502,0.793
								l-0.8867-0.1201c0.0811-0.3799,0.2139-0.6855,0.3984-0.9189s0.4512-0.4131,0.7998-0.5391
								c0.3496-0.126,0.7539-0.1885,1.2139-0.1885c0.4561,0,0.8271,0.0537,1.1133,0.1611c0.2852,0.1074,0.4941,0.2422,0.6289,0.4053
								c0.1338,0.1621,0.2285,0.3682,0.2822,0.6162c0.0303,0.1543,0.0449,0.4336,0.0449,0.8359v1.209
								c0,0.8418,0.0195,1.375,0.0576,1.5986c0.0391,0.2227,0.1152,0.4365,0.2295,0.6416h-0.9463
								C273.7227,218.9173,273.6631,218.6966,273.6357,218.4456z M273.5605,216.4212c-0.3291,0.1338-0.8223,0.248-1.4805,0.3428
								c-0.373,0.0537-0.6357,0.1133-0.791,0.1807c-0.1543,0.0674-0.2734,0.165-0.3574,0.2949
								c-0.084,0.1289-0.126,0.2725-0.126,0.4307c0,0.2412,0.0918,0.4424,0.2744,0.6035c0.1836,0.1611,0.4512,0.2422,0.8037,0.2422
								c0.3486,0,0.6592-0.0762,0.9316-0.2295c0.2715-0.1523,0.4717-0.3613,0.5986-0.627c0.0977-0.2041,0.1465-0.5068,0.1465-0.9062
								V216.4212z"/>
						</g>
					</g>
				</g>
				<g>
					<g>
						<rect x="250.3177" y="230.8415" class="st8" width="32.0211" height="11.7177"/>
						<g>
							<path d="M262.3369,238.5267l0.9365,0.1152c-0.1475,0.5479-0.4209,0.9717-0.8203,1.2744
								c-0.3994,0.3018-0.9102,0.4531-1.5303,0.4531c-0.7822,0-1.4023-0.2412-1.8613-0.7227
								c-0.458-0.4814-0.6865-1.1572-0.6865-2.0264c0-0.9004,0.2314-1.5986,0.6943-2.0947
								c0.4639-0.4971,1.0645-0.7451,1.8027-0.7451c0.7148,0,1.2988,0.2432,1.752,0.7295c0.4531,0.4873,0.6797,1.1719,0.6797,2.0547
								c0,0.0537-0.001,0.1338-0.0049,0.2412h-3.9873c0.0332,0.5879,0.1992,1.0381,0.498,1.3496
								c0.2988,0.3125,0.6719,0.4688,1.1182,0.4688c0.332,0,0.6152-0.0879,0.8506-0.2617
								C262.0137,239.1878,262.1992,238.9095,262.3369,238.5267z M259.3613,237.0609h2.9863
								c-0.041-0.4492-0.1543-0.7871-0.3428-1.0117c-0.2891-0.3486-0.6631-0.5234-1.123-0.5234c-0.416,0-0.7656,0.1387-1.0498,0.418
								C259.5488,236.222,259.3916,236.595,259.3613,237.0609z"/>
							<path d="M264.1602,236.6077c0-0.8721,0.0898-1.5752,0.2695-2.1064c0.1797-0.5322,0.4463-0.9424,0.8008-1.2314
								c0.3535-0.2891,0.7998-0.4326,1.3369-0.4326c0.3955,0,0.7432,0.0791,1.042,0.2383c0.2988,0.1602,0.5459,0.3896,0.7402,0.6904
								c0.1943,0.2998,0.3477,0.666,0.458,1.0977c0.1113,0.4307,0.166,1.0127,0.166,1.7441c0,0.8662-0.0889,1.5654-0.2666,2.0977
								s-0.4443,0.9434-0.7979,1.2334c-0.3545,0.29-0.8018,0.4355-1.3418,0.4355c-0.7119,0-1.2705-0.2549-1.6768-0.7656
								C264.4033,238.9944,264.1602,237.9944,264.1602,236.6077z M265.0918,236.6077c0,1.2119,0.1416,2.0186,0.4258,2.4199
								c0.2832,0.4004,0.6338,0.6016,1.0498,0.6016s0.7656-0.2012,1.0498-0.6045c0.2832-0.4023,0.4248-1.208,0.4248-2.417
								c0-1.2148-0.1416-2.0225-0.4248-2.4219c-0.2842-0.3994-0.6367-0.5986-1.0605-0.5986c-0.416,0-0.748,0.1758-0.9961,0.5283
								C265.248,234.5657,265.0918,235.3958,265.0918,236.6077z"/>
							<path d="M270.9824,240.2484h-0.8408v-7.3818h0.9062v2.6338c0.3828-0.4805,0.8711-0.7197,1.4648-0.7197
								c0.3291,0,0.6406,0.0664,0.9346,0.1982c0.293,0.1328,0.5352,0.3193,0.7246,0.5596c0.1895,0.2393,0.3379,0.5293,0.4453,0.8682
								s0.1611,0.7012,0.1611,1.0879c0,0.916-0.2266,1.624-0.6797,2.125c-0.4531,0.5-0.9961,0.75-1.6309,0.75
								c-0.6309,0-1.126-0.2637-1.4854-0.791V240.2484z M270.9727,237.5345c0,0.6416,0.0869,1.1045,0.2617,1.3896
								c0.2852,0.4668,0.6709,0.7002,1.1582,0.7002c0.3955,0,0.7383-0.1719,1.0264-0.5166
								c0.2891-0.3438,0.4336-0.8564,0.4336-1.5381c0-0.6982-0.1387-1.2139-0.416-1.5459c-0.2764-0.332-0.6113-0.498-1.0039-0.498
								c-0.3965,0-0.7383,0.1719-1.0273,0.5156C271.1162,236.386,270.9727,236.8831,270.9727,237.5345z"/>
						</g>
					</g>
				</g>
			</g>
			<line class="st8" x1="250.3177" y1="201.5472" x2="352.501" y2="201.5472"/>
		</g>
		<g>
			<path d="M285.8223,142.3275l0.9219-0.0801c0.0439,0.3691,0.1455,0.6719,0.3047,0.9082c0.1592,0.2373,0.4072,0.4287,0.7422,0.5742
				c0.3359,0.1465,0.7139,0.2197,1.1328,0.2197c0.373,0,0.7021-0.0557,0.9873-0.167c0.2852-0.1104,0.4971-0.2627,0.6367-0.4551
				c0.1396-0.1934,0.209-0.4043,0.209-0.6318c0-0.2314-0.0674-0.4346-0.2012-0.6074c-0.1348-0.1729-0.3555-0.3174-0.665-0.4355
				c-0.1982-0.0771-0.6357-0.1963-1.3135-0.3594c-0.6787-0.1631-1.1533-0.3164-1.4248-0.4609
				c-0.3525-0.1846-0.6152-0.4141-0.7881-0.6875s-0.2598-0.5801-0.2598-0.9189c0-0.3721,0.1055-0.7207,0.3174-1.0449
				c0.2109-0.3232,0.5205-0.5693,0.9268-0.7373c0.4053-0.168,0.8574-0.252,1.3545-0.252c0.5469,0,1.0293,0.0889,1.4473,0.2646
				s0.7393,0.4355,0.9639,0.7783c0.2246,0.3418,0.3457,0.7295,0.3623,1.1631l-0.9365,0.0703
				c-0.0498-0.4668-0.2207-0.8193-0.5107-1.0576s-0.7188-0.3574-1.2861-0.3574c-0.5908,0-1.0215,0.1084-1.292,0.3252
				c-0.2695,0.2158-0.4053,0.4775-0.4053,0.7822c0,0.2656,0.0957,0.4834,0.2871,0.6553c0.1885,0.1709,0.6787,0.3457,1.4727,0.5254
				s1.3389,0.3369,1.6338,0.4707c0.4297,0.1982,0.7471,0.4492,0.9521,0.7529c0.2041,0.3037,0.3066,0.6543,0.3066,1.0498
				c0,0.3926-0.1123,0.7627-0.3369,1.1104s-0.5479,0.6182-0.9697,0.8105c-0.4209,0.1934-0.8955,0.29-1.4219,0.29
				c-0.668,0-1.2275-0.0977-1.6797-0.292c-0.4512-0.1953-0.8057-0.4883-1.0625-0.8789S285.8359,142.8216,285.8223,142.3275z"/>
			<path d="M292.917,144.6995v-7.3818h0.9062v2.6484c0.4229-0.4902,0.957-0.7354,1.6016-0.7354
				c0.3955,0,0.7402,0.0781,1.0322,0.2344s0.501,0.3721,0.627,0.6475c0.125,0.2754,0.1885,0.6748,0.1885,1.1982v3.3887h-0.9062
				v-3.3887c0-0.4531-0.0986-0.7832-0.2949-0.9893c-0.1963-0.207-0.4736-0.3096-0.833-0.3096c-0.2686,0-0.5215,0.0693-0.7578,0.209
				c-0.2363,0.1387-0.4053,0.3281-0.5059,0.5664s-0.1514,0.5674-0.1514,0.9863v2.9258H292.917z"/>
			<path d="M302.3125,142.9769l0.9365,0.1162c-0.1475,0.5469-0.4209,0.9717-0.8203,1.2734
				c-0.3994,0.3027-0.9102,0.4531-1.5303,0.4531c-0.7822,0-1.4023-0.2402-1.8613-0.7217c-0.458-0.4824-0.6865-1.1572-0.6865-2.0273
				c0-0.8994,0.2314-1.5977,0.6943-2.0938c0.4639-0.4971,1.0645-0.7461,1.8027-0.7461c0.7148,0,1.2988,0.2441,1.752,0.7305
				s0.6797,1.1719,0.6797,2.0547c0,0.0537-0.001,0.1338-0.0049,0.2412h-3.9873c0.0332,0.5879,0.1992,1.0371,0.498,1.3496
				s0.6719,0.4678,1.1182,0.4678c0.332,0,0.6152-0.0869,0.8506-0.2617C301.9893,143.639,302.1748,143.3597,302.3125,142.9769z
				 M299.3369,141.512h2.9863c-0.041-0.4502-0.1543-0.7871-0.3428-1.0117c-0.2891-0.3496-0.6631-0.5234-1.123-0.5234
				c-0.416,0-0.7656,0.1387-1.0498,0.417C299.5244,140.6732,299.3672,141.0452,299.3369,141.512z"/>
			<path d="M304.3662,144.6995v-7.3818h0.9062v7.3818H304.3662z"/>
			<path d="M306.8945,144.6995v-4.6426h-0.8008v-0.7051h0.8008v-0.5684c0-0.3594,0.0312-0.626,0.0957-0.8008
				c0.0869-0.2354,0.2402-0.4258,0.46-0.5713c0.2207-0.1465,0.5283-0.2197,0.9248-0.2197c0.2549,0,0.5361,0.0303,0.8457,0.0908
				l-0.1357,0.791c-0.1885-0.0342-0.3662-0.0508-0.5342-0.0508c-0.2754,0-0.4697,0.0586-0.584,0.1758
				c-0.1143,0.1182-0.1709,0.3379-0.1709,0.6602v0.4932h1.042v0.7051h-1.042v4.6426H306.8945z"/>
			<path d="M316.9189,143.8284v0.8711H312.04c-0.0068-0.2188,0.0283-0.4287,0.1055-0.6299c0.124-0.332,0.3232-0.6592,0.5967-0.9814
				s0.6689-0.6953,1.1855-1.1182c0.8027-0.6572,1.3447-1.1787,1.626-1.5635c0.2822-0.3838,0.4238-0.7471,0.4238-1.0898
				c0-0.3594-0.1289-0.6621-0.3857-0.9092c-0.2568-0.2461-0.5918-0.3701-1.0039-0.3701c-0.4365,0-0.7861,0.1318-1.0479,0.3936
				s-0.3945,0.624-0.3975,1.0869l-0.9316-0.0957c0.0635-0.6943,0.3037-1.2236,0.7197-1.5879s0.9756-0.5469,1.6768-0.5469
				c0.708,0,1.2686,0.1963,1.6816,0.5889c0.4131,0.3936,0.6191,0.8799,0.6191,1.4609c0,0.2949-0.0596,0.5859-0.1807,0.8711
				s-0.3213,0.5859-0.6016,0.9014s-0.7461,0.748-1.3975,1.2988c-0.5439,0.4561-0.8926,0.7656-1.0479,0.9287
				c-0.1543,0.1631-0.2812,0.3262-0.3818,0.4912H316.9189z"/>
		</g>
		<g>
			<path d="M301.6279,179.7093v-7.3818h1.002l3.877,5.7959v-5.7959h0.9365v7.3818h-1.002l-3.877-5.8008v5.8008H301.6279z"/>
			<path d="M308.7529,177.3382l0.9219-0.0811c0.0439,0.3691,0.1455,0.6719,0.3047,0.9092c0.1592,0.2363,0.4072,0.4277,0.7422,0.5732
				c0.3359,0.1465,0.7139,0.2197,1.1328,0.2197c0.373,0,0.7021-0.0557,0.9873-0.166c0.2852-0.1113,0.4971-0.2627,0.6367-0.4561
				s0.209-0.4033,0.209-0.6318c0-0.2314-0.0674-0.4336-0.2012-0.6064c-0.1348-0.1729-0.3555-0.3184-0.665-0.4355
				c-0.1982-0.0771-0.6357-0.1973-1.3135-0.3604c-0.6787-0.1631-1.1533-0.3164-1.4248-0.4609
				c-0.3525-0.1846-0.6152-0.4131-0.7881-0.6875c-0.1729-0.2734-0.2598-0.5791-0.2598-0.918c0-0.373,0.1055-0.7217,0.3174-1.0449
				c0.2109-0.3242,0.5205-0.5703,0.9268-0.7383c0.4053-0.168,0.8574-0.251,1.3545-0.251c0.5469,0,1.0293,0.0879,1.4473,0.2637
				c0.418,0.1768,0.7393,0.4355,0.9639,0.7783c0.2246,0.3418,0.3457,0.7295,0.3623,1.1631l-0.9365,0.0703
				c-0.0498-0.4668-0.2207-0.8193-0.5107-1.0576s-0.7188-0.3574-1.2861-0.3574c-0.5908,0-1.0215,0.1084-1.292,0.3252
				c-0.2695,0.2158-0.4053,0.4775-0.4053,0.7822c0,0.2656,0.0957,0.4834,0.2871,0.6553c0.1885,0.1709,0.6787,0.3467,1.4727,0.5264
				c0.7939,0.1787,1.3389,0.3359,1.6338,0.4707c0.4297,0.1973,0.7471,0.4482,0.9521,0.752
				c0.2041,0.3047,0.3066,0.6543,0.3066,1.0498c0,0.3936-0.1123,0.7637-0.3369,1.1104c-0.2246,0.3477-0.5479,0.6182-0.9697,0.8105
				c-0.4209,0.1934-0.8955,0.29-1.4219,0.29c-0.668,0-1.2275-0.0977-1.6797-0.292c-0.4512-0.1943-0.8057-0.4873-1.0625-0.8789
				C308.9014,178.2737,308.7666,177.8314,308.7529,177.3382z"/>
			<path d="M315.9336,179.7093v-7.3818h1.4697l1.7471,5.2266c0.1611,0.4873,0.2793,0.8516,0.3525,1.0928
				c0.084-0.2686,0.2148-0.6631,0.3926-1.1836l1.7676-5.1357h1.3145v7.3818h-0.9414v-6.1777l-2.1455,6.1777h-0.8809l-2.1348-6.2842
				v6.2842H315.9336z"/>
			<path d="M326.0391,179.7093l2.834-7.3818h1.0527l3.0205,7.3818h-1.1123l-0.8613-2.2354h-3.0859l-0.8105,2.2354H326.0391z
				 M328.168,176.678h2.5029l-0.7705-2.0439c-0.2354-0.6211-0.4092-1.1309-0.5234-1.5312
				c-0.0938,0.4736-0.2266,0.9434-0.3975,1.4102L328.168,176.678z"/>
		</g>
		<g>
			<path d="M301.0586,229.7659v-7.3818h1.002l3.877,5.7959v-5.7959h0.9365v7.3818h-1.002l-3.877-5.8008v5.8008H301.0586z"/>
			<path d="M308.1836,227.3948l0.9219-0.0811c0.0439,0.3691,0.1455,0.6719,0.3047,0.9092c0.1592,0.2363,0.4072,0.4277,0.7422,0.5732
				c0.3359,0.1465,0.7139,0.2197,1.1328,0.2197c0.373,0,0.7021-0.0557,0.9873-0.166c0.2852-0.1113,0.4971-0.2627,0.6367-0.4561
				s0.209-0.4033,0.209-0.6318c0-0.2314-0.0674-0.4336-0.2012-0.6064c-0.1348-0.1729-0.3555-0.3184-0.665-0.4355
				c-0.1982-0.0771-0.6357-0.1973-1.3135-0.3604c-0.6787-0.1631-1.1533-0.3164-1.4248-0.4609
				c-0.3525-0.1846-0.6152-0.4131-0.7881-0.6875c-0.1729-0.2734-0.2598-0.5791-0.2598-0.918c0-0.373,0.1055-0.7217,0.3174-1.0449
				c0.2109-0.3242,0.5205-0.5703,0.9268-0.7383c0.4053-0.168,0.8574-0.251,1.3545-0.251c0.5469,0,1.0293,0.0879,1.4473,0.2637
				c0.418,0.1768,0.7393,0.4355,0.9639,0.7783c0.2246,0.3418,0.3457,0.7295,0.3623,1.1631l-0.9365,0.0703
				c-0.0498-0.4668-0.2207-0.8193-0.5107-1.0576s-0.7188-0.3574-1.2861-0.3574c-0.5908,0-1.0215,0.1084-1.292,0.3252
				c-0.2695,0.2158-0.4053,0.4775-0.4053,0.7822c0,0.2656,0.0957,0.4834,0.2871,0.6553c0.1885,0.1709,0.6787,0.3467,1.4727,0.5264
				c0.7939,0.1787,1.3389,0.3359,1.6338,0.4707c0.4297,0.1973,0.7471,0.4482,0.9521,0.752
				c0.2041,0.3047,0.3066,0.6543,0.3066,1.0498c0,0.3936-0.1123,0.7637-0.3369,1.1104c-0.2246,0.3477-0.5479,0.6182-0.9697,0.8105
				c-0.4209,0.1934-0.8955,0.29-1.4219,0.29c-0.668,0-1.2275-0.0977-1.6797-0.292c-0.4512-0.1943-0.8057-0.4873-1.0625-0.8789
				C308.332,228.3304,308.1973,227.888,308.1836,227.3948z"/>
			<path d="M315.3643,229.7659v-7.3818h1.4697l1.7471,5.2266c0.1611,0.4873,0.2793,0.8516,0.3525,1.0928
				c0.084-0.2686,0.2148-0.6631,0.3926-1.1836l1.7676-5.1357h1.3145v7.3818h-0.9414v-6.1777l-2.1455,6.1777h-0.8809l-2.1348-6.2842
				v6.2842H315.3643z"/>
			<path d="M326.8076,229.7659v-7.3818h2.7695c0.5645,0,1.0166,0.0752,1.3574,0.2246c0.3398,0.1494,0.6074,0.3789,0.7998,0.6895
				c0.1934,0.3105,0.29,0.6357,0.29,0.9746c0,0.3154-0.0859,0.6123-0.2568,0.8906c-0.1709,0.2793-0.4297,0.5039-0.7754,0.6748
				c0.4463,0.1309,0.79,0.3545,1.0293,0.6699c0.2402,0.3154,0.3604,0.6885,0.3604,1.1182c0,0.3457-0.0732,0.667-0.2188,0.9639
				c-0.1465,0.2969-0.3271,0.5264-0.542,0.6875s-0.4834,0.2822-0.8076,0.3652c-0.3242,0.082-0.7207,0.123-1.1904,0.123H326.8076z
				 M327.7852,225.4857h1.5957c0.4326,0,0.7432-0.0283,0.9316-0.085c0.248-0.0742,0.4355-0.1963,0.5615-0.3682
				c0.126-0.1709,0.1885-0.3857,0.1885-0.6445c0-0.2441-0.0586-0.46-0.1758-0.6465c-0.1182-0.1865-0.2861-0.3135-0.5039-0.3828
				c-0.2178-0.0684-0.5928-0.1035-1.123-0.1035h-1.4746V225.4857z M327.7852,228.8948h1.8379c0.3154,0,0.5361-0.0117,0.6641-0.0352
				c0.2246-0.04,0.4131-0.1074,0.5645-0.2012c0.1504-0.0938,0.2744-0.2314,0.3721-0.4111c0.0977-0.1787,0.1465-0.3867,0.1465-0.6211
				c0-0.2754-0.0713-0.5146-0.2119-0.7178s-0.3369-0.3457-0.5869-0.4277s-0.6094-0.124-1.0801-0.124h-1.7061V228.8948z"/>
		</g>
		<g>
			<rect x="250.3177" y="20.5322" class="st9" width="102.1833" height="99.8255"/>
			<g>
				<g>
					<g>
						<rect x="250.3177" y="29.433" class="st10" width="32.0211" height="11.7177"/>
						<g>
							<path class="st11" d="M262.3369,37.1175l0.9365,0.1162c-0.1475,0.5469-0.4209,0.9717-0.8203,1.2734
								c-0.3994,0.3022-0.9102,0.4531-1.5303,0.4531c-0.7822,0-1.4023-0.2407-1.8613-0.7222
								c-0.458-0.4819-0.6865-1.1572-0.6865-2.0269c0-0.8994,0.2314-1.5977,0.6943-2.0942
								c0.4639-0.4971,1.0645-0.7456,1.8027-0.7456c0.7148,0,1.2988,0.2437,1.752,0.7305c0.4531,0.4863,0.6797,1.1714,0.6797,2.0542
								c0,0.0537-0.001,0.1343-0.0049,0.2417h-3.9873c0.0332,0.5874,0.1992,1.0371,0.498,1.3491
								c0.2988,0.3125,0.6719,0.4683,1.1182,0.4683c0.332,0,0.6152-0.0869,0.8506-0.2617
								C262.0137,37.7791,262.1992,37.5003,262.3369,37.1175z M259.3613,35.6527h2.9863c-0.041-0.4502-0.1543-0.7871-0.3428-1.0122
								c-0.2891-0.3491-0.6631-0.5234-1.123-0.5234c-0.416,0-0.7656,0.1392-1.0498,0.4175
								C259.5488,34.8133,259.3916,35.1859,259.3613,35.6527z"/>
							<path class="st11" d="M264.1602,35.1995c0-0.873,0.0898-1.5752,0.2695-2.1074c0.1797-0.5317,0.4463-0.9424,0.8008-1.231
								c0.3535-0.2886,0.7998-0.4331,1.3369-0.4331c0.3955,0,0.7432,0.0796,1.042,0.2393c0.2988,0.1592,0.5459,0.3892,0.7402,0.6899
								c0.1943,0.3003,0.3477,0.666,0.458,1.0977c0.1113,0.4312,0.166,1.0127,0.166,1.7446c0,0.8657-0.0889,1.5649-0.2666,2.0967
								c-0.1777,0.5322-0.4443,0.9434-0.7979,1.2339c-0.3545,0.2905-0.8018,0.4355-1.3418,0.4355
								c-0.7119,0-1.2705-0.2554-1.6768-0.7656C264.4033,37.5858,264.1602,36.5858,264.1602,35.1995z M265.0918,35.1995
								c0,1.2114,0.1416,2.0181,0.4258,2.4189c0.2832,0.4014,0.6338,0.6021,1.0498,0.6021s0.7656-0.2017,1.0498-0.6045
								c0.2832-0.4028,0.4248-1.2085,0.4248-2.4165c0-1.2153-0.1416-2.0225-0.4248-2.4219
								c-0.2842-0.3994-0.6367-0.5996-1.0605-0.5996c-0.416,0-0.748,0.1763-0.9961,0.5288
								C265.248,33.157,265.0918,33.9876,265.0918,35.1995z"/>
							<path class="st11" d="M273.6357,38.18c-0.3359,0.2856-0.6592,0.4868-0.9688,0.6045c-0.3105,0.1172-0.6445,0.1758-1,0.1758
								c-0.5869,0-1.0391-0.1431-1.3545-0.4302s-0.4727-0.6538-0.4727-1.1001c0-0.2622,0.0596-0.501,0.1787-0.7178
								c0.1191-0.2163,0.2744-0.3901,0.4678-0.521s0.4102-0.23,0.6523-0.2969c0.1777-0.0474,0.4463-0.0923,0.8057-0.1362
								c0.7314-0.0874,1.2705-0.1914,1.6162-0.312c0.0029-0.124,0.0049-0.2031,0.0049-0.2368c0-0.3691-0.0859-0.6294-0.2568-0.7803
								c-0.2314-0.2046-0.5762-0.3071-1.0322-0.3071c-0.4268,0-0.7412,0.0747-0.9443,0.2241s-0.3535,0.4136-0.4502,0.793
								l-0.8867-0.1211c0.0811-0.3789,0.2139-0.6855,0.3984-0.9189c0.1846-0.2329,0.4512-0.4126,0.7998-0.5386
								c0.3496-0.126,0.7539-0.189,1.2139-0.189c0.4561,0,0.8271,0.0537,1.1133,0.1611c0.2852,0.1074,0.4941,0.2427,0.6289,0.4053
								c0.1338,0.1631,0.2285,0.3687,0.2822,0.6172c0.0303,0.1543,0.0449,0.4326,0.0449,0.8354v1.2085
								c0,0.8428,0.0195,1.3755,0.0576,1.5986c0.0391,0.2236,0.1152,0.4375,0.2295,0.6421h-0.9463
								C273.7227,38.6517,273.6631,38.4319,273.6357,38.18z M273.5605,36.1561c-0.3291,0.1343-0.8223,0.2485-1.4805,0.3423
								c-0.373,0.0537-0.6357,0.1143-0.791,0.1812c-0.1543,0.0674-0.2734,0.1655-0.3574,0.2944
								c-0.084,0.1294-0.126,0.2729-0.126,0.4307c0,0.2417,0.0918,0.4434,0.2744,0.6045c0.1836,0.1611,0.4512,0.2417,0.8037,0.2417
								c0.3486,0,0.6592-0.0767,0.9316-0.2295c0.2715-0.1523,0.4717-0.3613,0.5986-0.6265
								c0.0977-0.2051,0.1465-0.5068,0.1465-0.9067V36.1561z"/>
						</g>
					</g>
				</g>
				<g>
					<g>
						<rect x="250.3177" y="50.5769" class="st10" width="32.0211" height="11.7177"/>
						<g>
							<path class="st11" d="M262.3369,58.2615l0.9365,0.1162c-0.1475,0.5469-0.4209,0.9717-0.8203,1.2734
								c-0.3994,0.3022-0.9102,0.4531-1.5303,0.4531c-0.7822,0-1.4023-0.2407-1.8613-0.7222
								c-0.458-0.4819-0.6865-1.1572-0.6865-2.0269c0-0.8994,0.2314-1.5977,0.6943-2.0942
								c0.4639-0.4971,1.0645-0.7456,1.8027-0.7456c0.7148,0,1.2988,0.2437,1.752,0.7305c0.4531,0.4863,0.6797,1.1714,0.6797,2.0542
								c0,0.0537-0.001,0.1343-0.0049,0.2417h-3.9873c0.0332,0.5874,0.1992,1.0371,0.498,1.3491
								c0.2988,0.3125,0.6719,0.4683,1.1182,0.4683c0.332,0,0.6152-0.0869,0.8506-0.2617
								C262.0137,58.9232,262.1992,58.6444,262.3369,58.2615z M259.3613,56.7967h2.9863c-0.041-0.4502-0.1543-0.7871-0.3428-1.0122
								c-0.2891-0.3491-0.6631-0.5234-1.123-0.5234c-0.416,0-0.7656,0.1392-1.0498,0.4175
								C259.5488,55.9573,259.3916,56.3299,259.3613,56.7967z"/>
							<path class="st11" d="M264.1602,56.3436c0-0.873,0.0898-1.5752,0.2695-2.1074c0.1797-0.5317,0.4463-0.9424,0.8008-1.231
								c0.3535-0.2886,0.7998-0.4331,1.3369-0.4331c0.3955,0,0.7432,0.0796,1.042,0.2393c0.2988,0.1592,0.5459,0.3892,0.7402,0.6899
								c0.1943,0.3003,0.3477,0.666,0.458,1.0977c0.1113,0.4312,0.166,1.0127,0.166,1.7446c0,0.8657-0.0889,1.5649-0.2666,2.0967
								c-0.1777,0.5322-0.4443,0.9434-0.7979,1.2339c-0.3545,0.2905-0.8018,0.4355-1.3418,0.4355
								c-0.7119,0-1.2705-0.2554-1.6768-0.7656C264.4033,58.7298,264.1602,57.7298,264.1602,56.3436z M265.0918,56.3436
								c0,1.2114,0.1416,2.0181,0.4258,2.4189c0.2832,0.4014,0.6338,0.6021,1.0498,0.6021s0.7656-0.2017,1.0498-0.6045
								c0.2832-0.4028,0.4248-1.2085,0.4248-2.4165c0-1.2153-0.1416-2.0225-0.4248-2.4219
								c-0.2842-0.3994-0.6367-0.5996-1.0605-0.5996c-0.416,0-0.748,0.1763-0.9961,0.5288
								C265.248,54.3011,265.0918,55.1317,265.0918,56.3436z"/>
							<path class="st11" d="M270.9824,59.9837h-0.8408v-7.3813h0.9062v2.6333c0.3828-0.48,0.8711-0.7202,1.4648-0.7202
								c0.3291,0,0.6406,0.0664,0.9346,0.1992c0.293,0.1323,0.5352,0.3188,0.7246,0.5586c0.1895,0.2402,0.3379,0.5298,0.4453,0.8687
								c0.1074,0.3394,0.1611,0.7017,0.1611,1.0874c0,0.9165-0.2266,1.625-0.6797,2.125s-0.9961,0.75-1.6309,0.75
								c-0.6309,0-1.126-0.2632-1.4854-0.79V59.9837z M270.9727,57.2698c0,0.6411,0.0869,1.1045,0.2617,1.3896
								c0.2852,0.4668,0.6709,0.6997,1.1582,0.6997c0.3955,0,0.7383-0.1719,1.0264-0.5161
								c0.2891-0.3438,0.4336-0.8564,0.4336-1.5381c0-0.6982-0.1387-1.2134-0.416-1.5459c-0.2764-0.332-0.6113-0.498-1.0039-0.498
								c-0.3965,0-0.7383,0.1719-1.0273,0.5156C271.1162,56.1209,270.9727,56.6185,270.9727,57.2698z"/>
						</g>
					</g>
				</g>
				<g>
					<g>
						<rect x="250.3177" y="78.5954" class="st10" width="32.0211" height="11.7177"/>
						<g>
							<path class="st11" d="M262.3369,86.2806l0.9365,0.1162c-0.1475,0.5469-0.4209,0.9717-0.8203,1.2734
								c-0.3994,0.3022-0.9102,0.4531-1.5303,0.4531c-0.7822,0-1.4023-0.2407-1.8613-0.7222
								c-0.458-0.4819-0.6865-1.1572-0.6865-2.0269c0-0.8994,0.2314-1.5977,0.6943-2.0942
								c0.4639-0.4971,1.0645-0.7456,1.8027-0.7456c0.7148,0,1.2988,0.2437,1.752,0.7305c0.4531,0.4863,0.6797,1.1714,0.6797,2.0542
								c0,0.0537-0.001,0.1343-0.0049,0.2417h-3.9873c0.0332,0.5874,0.1992,1.0371,0.498,1.3491
								c0.2988,0.3125,0.6719,0.4683,1.1182,0.4683c0.332,0,0.6152-0.0869,0.8506-0.2617
								C262.0137,86.9422,262.1992,86.6634,262.3369,86.2806z M259.3613,84.8157h2.9863c-0.041-0.4502-0.1543-0.7871-0.3428-1.0122
								c-0.2891-0.3491-0.6631-0.5234-1.123-0.5234c-0.416,0-0.7656,0.1392-1.0498,0.4175
								C259.5488,83.9764,259.3916,84.3489,259.3613,84.8157z"/>
							<path class="st11" d="M264.1602,84.3626c0-0.873,0.0898-1.5752,0.2695-2.1074c0.1797-0.5317,0.4463-0.9424,0.8008-1.231
								c0.3535-0.2886,0.7998-0.4331,1.3369-0.4331c0.3955,0,0.7432,0.0796,1.042,0.2393c0.2988,0.1592,0.5459,0.3892,0.7402,0.6899
								c0.1943,0.3003,0.3477,0.666,0.458,1.0977c0.1113,0.4312,0.166,1.0127,0.166,1.7446c0,0.8657-0.0889,1.5649-0.2666,2.0967
								c-0.1777,0.5322-0.4443,0.9434-0.7979,1.2339c-0.3545,0.2905-0.8018,0.4355-1.3418,0.4355
								c-0.7119,0-1.2705-0.2554-1.6768-0.7656C264.4033,86.7488,264.1602,85.7488,264.1602,84.3626z M265.0918,84.3626
								c0,1.2114,0.1416,2.0181,0.4258,2.4189c0.2832,0.4014,0.6338,0.6021,1.0498,0.6021s0.7656-0.2017,1.0498-0.6045
								c0.2832-0.4028,0.4248-1.2085,0.4248-2.4165c0-1.2153-0.1416-2.0225-0.4248-2.4219
								c-0.2842-0.3994-0.6367-0.5996-1.0605-0.5996c-0.416,0-0.748,0.1763-0.9961,0.5288
								C265.248,82.3201,265.0918,83.1507,265.0918,84.3626z"/>
							<path class="st11" d="M273.6357,87.3431c-0.3359,0.2856-0.6592,0.4868-0.9688,0.6045c-0.3105,0.1172-0.6445,0.1758-1,0.1758
								c-0.5869,0-1.0391-0.1431-1.3545-0.4302s-0.4727-0.6538-0.4727-1.1001c0-0.2622,0.0596-0.501,0.1787-0.7178
								c0.1191-0.2163,0.2744-0.3901,0.4678-0.521s0.4102-0.23,0.6523-0.2969c0.1777-0.0474,0.4463-0.0923,0.8057-0.1362
								c0.7314-0.0874,1.2705-0.1914,1.6162-0.312c0.0029-0.124,0.0049-0.2031,0.0049-0.2368c0-0.3691-0.0859-0.6294-0.2568-0.7803
								c-0.2314-0.2046-0.5762-0.3071-1.0322-0.3071c-0.4268,0-0.7412,0.0747-0.9443,0.2241s-0.3535,0.4136-0.4502,0.793
								l-0.8867-0.1211c0.0811-0.3789,0.2139-0.6855,0.3984-0.9189c0.1846-0.2329,0.4512-0.4126,0.7998-0.5386
								c0.3496-0.126,0.7539-0.189,1.2139-0.189c0.4561,0,0.8271,0.0537,1.1133,0.1611c0.2852,0.1074,0.4941,0.2427,0.6289,0.4053
								c0.1338,0.1631,0.2285,0.3687,0.2822,0.6172c0.0303,0.1543,0.0449,0.4326,0.0449,0.8354v1.2085
								c0,0.8428,0.0195,1.3755,0.0576,1.5986c0.0391,0.2236,0.1152,0.4375,0.2295,0.6421h-0.9463
								C273.7227,87.8148,273.6631,87.595,273.6357,87.3431z M273.5605,85.3192c-0.3291,0.1343-0.8223,0.2485-1.4805,0.3423
								c-0.373,0.0537-0.6357,0.1143-0.791,0.1812c-0.1543,0.0674-0.2734,0.1655-0.3574,0.2944
								c-0.084,0.1294-0.126,0.2729-0.126,0.4307c0,0.2417,0.0918,0.4434,0.2744,0.6045c0.1836,0.1611,0.4512,0.2417,0.8037,0.2417
								c0.3486,0,0.6592-0.0767,0.9316-0.2295c0.2715-0.1523,0.4717-0.3613,0.5986-0.6265
								c0.0977-0.2051,0.1465-0.5068,0.1465-0.9067V85.3192z"/>
						</g>
					</g>
				</g>
				<g>
					<g>
						<rect x="250.3177" y="99.7392" class="st10" width="32.0211" height="11.7177"/>
						<g>
							<path class="st11" d="M262.3369,107.4241l0.9365,0.1162c-0.1475,0.5469-0.4209,0.9717-0.8203,1.2734
								c-0.3994,0.3027-0.9102,0.4531-1.5303,0.4531c-0.7822,0-1.4023-0.2402-1.8613-0.7217
								c-0.458-0.4824-0.6865-1.1572-0.6865-2.0273c0-0.8994,0.2314-1.5977,0.6943-2.0942
								c0.4639-0.4971,1.0645-0.7456,1.8027-0.7456c0.7148,0,1.2988,0.2437,1.752,0.7305c0.4531,0.4863,0.6797,1.1714,0.6797,2.0547
								c0,0.0537-0.001,0.1338-0.0049,0.2412h-3.9873c0.0332,0.5879,0.1992,1.0371,0.498,1.3496s0.6719,0.4678,1.1182,0.4678
								c0.332,0,0.6152-0.0869,0.8506-0.2617C262.0137,108.0862,262.1992,107.8069,262.3369,107.4241z M259.3613,105.9593h2.9863
								c-0.041-0.4502-0.1543-0.7871-0.3428-1.0122c-0.2891-0.3491-0.6631-0.5234-1.123-0.5234
								c-0.416,0-0.7656,0.1392-1.0498,0.4175C259.5488,105.1199,259.3916,105.4925,259.3613,105.9593z"/>
							<path class="st11" d="M264.1602,105.5062c0-0.873,0.0898-1.5752,0.2695-2.1074c0.1797-0.5317,0.4463-0.9424,0.8008-1.231
								c0.3535-0.2886,0.7998-0.4331,1.3369-0.4331c0.3955,0,0.7432,0.0796,1.042,0.2393c0.2988,0.1592,0.5459,0.3892,0.7402,0.6899
								c0.1943,0.3003,0.3477,0.666,0.458,1.0977c0.1113,0.4312,0.166,1.0127,0.166,1.7446c0,0.8662-0.0889,1.5654-0.2666,2.0967
								c-0.1777,0.5322-0.4443,0.9434-0.7979,1.2344c-0.3545,0.29-0.8018,0.4355-1.3418,0.4355
								c-0.7119,0-1.2705-0.2559-1.6768-0.7656C264.4033,107.8929,264.1602,106.8929,264.1602,105.5062z M265.0918,105.5062
								c0,1.2119,0.1416,2.0186,0.4258,2.4189c0.2832,0.4014,0.6338,0.6025,1.0498,0.6025s0.7656-0.2021,1.0498-0.6045
								c0.2832-0.4033,0.4248-1.209,0.4248-2.417c0-1.2153-0.1416-2.0225-0.4248-2.4219c-0.2842-0.3994-0.6367-0.5996-1.0605-0.5996
								c-0.416,0-0.748,0.1763-0.9961,0.5288C265.248,103.4637,265.0918,104.2943,265.0918,105.5062z"/>
							<path class="st11" d="M270.9824,109.1468h-0.8408v-7.3818h0.9062v2.6333c0.3828-0.48,0.8711-0.7202,1.4648-0.7202
								c0.3291,0,0.6406,0.0664,0.9346,0.1992c0.293,0.1323,0.5352,0.3188,0.7246,0.5586c0.1895,0.2402,0.3379,0.5298,0.4453,0.8687
								c0.1074,0.3394,0.1611,0.7017,0.1611,1.0874c0,0.917-0.2266,1.625-0.6797,2.125s-0.9961,0.75-1.6309,0.75
								c-0.6309,0-1.126-0.2627-1.4854-0.79V109.1468z M270.9727,106.4329c0,0.6406,0.0869,1.1045,0.2617,1.3896
								c0.2852,0.4668,0.6709,0.6992,1.1582,0.6992c0.3955,0,0.7383-0.1719,1.0264-0.5156
								c0.2891-0.3438,0.4336-0.8564,0.4336-1.5381c0-0.6987-0.1387-1.2139-0.416-1.5464c-0.2764-0.332-0.6113-0.498-1.0039-0.498
								c-0.3965,0-0.7383,0.1719-1.0273,0.5156C271.1162,105.2835,270.9727,105.7811,270.9727,106.4329z"/>
						</g>
					</g>
				</g>
			</g>
			<line class="st10" x1="250.3177" y1="70.445" x2="352.501" y2="70.445"/>
		</g>
		<g>
			<path class="st11" d="M285.8223,11.2264l0.9219-0.0806c0.0439,0.3691,0.1455,0.6724,0.3047,0.9087
				c0.1592,0.2368,0.4072,0.4282,0.7422,0.5742c0.3359,0.146,0.7139,0.2192,1.1328,0.2192c0.373,0,0.7021-0.0557,0.9873-0.1665
				s0.4971-0.2627,0.6367-0.4556s0.209-0.4038,0.209-0.6318c0-0.2314-0.0674-0.4341-0.2012-0.6069
				c-0.1348-0.1729-0.3555-0.3179-0.665-0.4355c-0.1982-0.0771-0.6357-0.1968-1.3135-0.3599
				c-0.6787-0.1626-1.1533-0.3164-1.4248-0.4604c-0.3525-0.1846-0.6152-0.4141-0.7881-0.6875s-0.2598-0.5801-0.2598-0.9189
				c0-0.3726,0.1055-0.7207,0.3174-1.0449c0.2109-0.3237,0.5205-0.5693,0.9268-0.7373c0.4053-0.168,0.8574-0.252,1.3545-0.252
				c0.5469,0,1.0293,0.0884,1.4473,0.2642c0.418,0.1763,0.7393,0.4355,0.9639,0.7783c0.2246,0.3423,0.3457,0.73,0.3623,1.1631
				L290.54,8.3665c-0.0498-0.4663-0.2207-0.8188-0.5107-1.0571c-0.29-0.2388-0.7188-0.3579-1.2861-0.3579
				c-0.5908,0-1.0215,0.1084-1.292,0.3252c-0.2695,0.2163-0.4053,0.4775-0.4053,0.7827c0,0.2651,0.0957,0.4834,0.2871,0.6548
				c0.1885,0.1709,0.6787,0.3462,1.4727,0.5259s1.3389,0.3364,1.6338,0.4707c0.4297,0.1982,0.7471,0.4492,0.9521,0.7529
				c0.2041,0.3037,0.3066,0.6538,0.3066,1.0498c0,0.3926-0.1123,0.7627-0.3369,1.1104c-0.2246,0.3472-0.5479,0.6177-0.9697,0.8105
				c-0.4209,0.1929-0.8955,0.2896-1.4219,0.2896c-0.668,0-1.2275-0.0977-1.6797-0.292c-0.4512-0.1948-0.8057-0.4878-1.0625-0.8789
				C285.9707,12.1624,285.8359,11.72,285.8223,11.2264z"/>
			<path class="st11" d="M292.917,13.598V6.2166h0.9062v2.6484c0.4229-0.4902,0.957-0.7354,1.6016-0.7354
				c0.3955,0,0.7402,0.0781,1.0322,0.2344s0.501,0.3716,0.627,0.647c0.125,0.2754,0.1885,0.6748,0.1885,1.1982v3.3887h-0.9062
				v-3.3887c0-0.4531-0.0986-0.7827-0.2949-0.9893s-0.4736-0.3096-0.833-0.3096c-0.2686,0-0.5215,0.0693-0.7578,0.209
				c-0.2363,0.1392-0.4053,0.3281-0.5059,0.5664s-0.1514,0.5674-0.1514,0.9868v2.9253H292.917z"/>
			<path class="st11" d="M302.3125,11.8758l0.9365,0.1162c-0.1475,0.5469-0.4209,0.9717-0.8203,1.2734
				c-0.3994,0.3022-0.9102,0.4531-1.5303,0.4531c-0.7822,0-1.4023-0.2407-1.8613-0.7222c-0.458-0.4819-0.6865-1.1572-0.6865-2.0269
				c0-0.8994,0.2314-1.5977,0.6943-2.0942c0.4639-0.4971,1.0645-0.7456,1.8027-0.7456c0.7148,0,1.2988,0.2437,1.752,0.7305
				c0.4531,0.4863,0.6797,1.1714,0.6797,2.0542c0,0.0537-0.001,0.1343-0.0049,0.2417h-3.9873
				c0.0332,0.5874,0.1992,1.0371,0.498,1.3491c0.2988,0.3125,0.6719,0.4683,1.1182,0.4683c0.332,0,0.6152-0.0869,0.8506-0.2617
				C301.9893,12.5374,302.1748,12.2586,302.3125,11.8758z M299.3369,10.411h2.9863c-0.041-0.4502-0.1543-0.7871-0.3428-1.0122
				c-0.2891-0.3491-0.6631-0.5234-1.123-0.5234c-0.416,0-0.7656,0.1392-1.0498,0.4175
				C299.5244,9.5716,299.3672,9.9442,299.3369,10.411z"/>
			<path class="st11" d="M304.3662,13.598V6.2166h0.9062v7.3813H304.3662z"/>
			<path class="st11" d="M306.8945,13.598V8.9559h-0.8008V8.2508h0.8008V7.6819c0-0.3594,0.0312-0.626,0.0957-0.8008
				c0.0869-0.2349,0.2402-0.4253,0.46-0.5713c0.2207-0.146,0.5283-0.2192,0.9248-0.2192c0.2549,0,0.5361,0.0303,0.8457,0.0908
				L309.085,6.972c-0.1885-0.0337-0.3662-0.0503-0.5342-0.0503c-0.2754,0-0.4697,0.0586-0.584,0.1758
				c-0.1143,0.1177-0.1709,0.3374-0.1709,0.6597v0.4937h1.042v0.7051h-1.042v4.6421H306.8945z"/>
			<path class="st11" d="M315.5693,13.598h-0.9062V7.8226c-0.2188,0.2085-0.5049,0.4165-0.8584,0.6245
				c-0.3545,0.208-0.6729,0.3643-0.9541,0.4683v-0.876c0.5068-0.2383,0.9492-0.5269,1.3291-0.8662
				c0.3789-0.3389,0.6475-0.668,0.8057-0.9868h0.584V13.598z"/>
		</g>
		<g>
			<path class="st11" d="M301.6279,48.6072v-7.3813h1.002l3.877,5.7954v-5.7954h0.9365v7.3813h-1.002l-3.877-5.8003v5.8003H301.6279
				z"/>
			<path class="st11" d="M308.7529,46.2357l0.9219-0.0806c0.0439,0.3691,0.1455,0.6724,0.3047,0.9087
				c0.1592,0.2368,0.4072,0.4282,0.7422,0.5742c0.3359,0.146,0.7139,0.2192,1.1328,0.2192c0.373,0,0.7021-0.0557,0.9873-0.1665
				s0.4971-0.2627,0.6367-0.4556s0.209-0.4038,0.209-0.6318c0-0.2314-0.0674-0.4341-0.2012-0.6069
				c-0.1348-0.1729-0.3555-0.3179-0.665-0.4355c-0.1982-0.0771-0.6357-0.1968-1.3135-0.3599
				c-0.6787-0.1626-1.1533-0.3164-1.4248-0.4604c-0.3525-0.1846-0.6152-0.4141-0.7881-0.6875s-0.2598-0.5801-0.2598-0.9189
				c0-0.3726,0.1055-0.7207,0.3174-1.0449c0.2109-0.3237,0.5205-0.5693,0.9268-0.7373c0.4053-0.168,0.8574-0.252,1.3545-0.252
				c0.5469,0,1.0293,0.0884,1.4473,0.2642c0.418,0.1763,0.7393,0.4355,0.9639,0.7783c0.2246,0.3423,0.3457,0.73,0.3623,1.1631
				l-0.9365,0.0703c-0.0498-0.4663-0.2207-0.8188-0.5107-1.0571c-0.29-0.2388-0.7188-0.3579-1.2861-0.3579
				c-0.5908,0-1.0215,0.1084-1.292,0.3252c-0.2695,0.2163-0.4053,0.4775-0.4053,0.7827c0,0.2651,0.0957,0.4834,0.2871,0.6548
				c0.1885,0.1709,0.6787,0.3462,1.4727,0.5259s1.3389,0.3364,1.6338,0.4707c0.4297,0.1982,0.7471,0.4492,0.9521,0.7529
				c0.2041,0.3037,0.3066,0.6538,0.3066,1.0498c0,0.3926-0.1123,0.7627-0.3369,1.1104c-0.2246,0.3472-0.5479,0.6177-0.9697,0.8105
				c-0.4209,0.1929-0.8955,0.2896-1.4219,0.2896c-0.668,0-1.2275-0.0977-1.6797-0.292c-0.4512-0.1948-0.8057-0.4878-1.0625-0.8789
				C308.9014,47.1717,308.7666,46.7293,308.7529,46.2357z"/>
			<path class="st11" d="M315.9336,48.6072v-7.3813h1.4697l1.7471,5.2266c0.1611,0.4863,0.2793,0.8506,0.3525,1.0923
				c0.084-0.2686,0.2148-0.6626,0.3926-1.1831l1.7676-5.1357h1.3145v7.3813h-0.9414V42.429l-2.1455,6.1782h-0.8809l-2.1348-6.2837
				v6.2837H315.9336z"/>
			<path class="st11" d="M326.0391,48.6072l2.834-7.3813h1.0527l3.0205,7.3813h-1.1123l-0.8613-2.2354h-3.0859l-0.8105,2.2354
				H326.0391z M328.168,45.576h2.5029l-0.7705-2.0439c-0.2354-0.6211-0.4092-1.1313-0.5234-1.5308
				c-0.0938,0.4731-0.2266,0.9434-0.3975,1.4097L328.168,45.576z"/>
		</g>
		<g>
			<path class="st11" d="M301.0586,98.6629v-7.3813h1.002l3.877,5.7954v-5.7954h0.9365v7.3813h-1.002l-3.877-5.8003v5.8003H301.0586
				z"/>
			<path class="st11" d="M308.1836,96.2913l0.9219-0.0806c0.0439,0.3691,0.1455,0.6724,0.3047,0.9087
				c0.1592,0.2368,0.4072,0.4282,0.7422,0.5742c0.3359,0.146,0.7139,0.2192,1.1328,0.2192c0.373,0,0.7021-0.0557,0.9873-0.1665
				s0.4971-0.2627,0.6367-0.4556s0.209-0.4038,0.209-0.6318c0-0.2314-0.0674-0.4341-0.2012-0.6069
				c-0.1348-0.1729-0.3555-0.3179-0.665-0.4355c-0.1982-0.0771-0.6357-0.1968-1.3135-0.3599
				c-0.6787-0.1626-1.1533-0.3164-1.4248-0.4604c-0.3525-0.1846-0.6152-0.4141-0.7881-0.6875s-0.2598-0.5801-0.2598-0.9189
				c0-0.3726,0.1055-0.7207,0.3174-1.0449c0.2109-0.3237,0.5205-0.5693,0.9268-0.7373c0.4053-0.168,0.8574-0.252,1.3545-0.252
				c0.5469,0,1.0293,0.0884,1.4473,0.2642c0.418,0.1763,0.7393,0.4355,0.9639,0.7783c0.2246,0.3423,0.3457,0.73,0.3623,1.1631
				l-0.9365,0.0703c-0.0498-0.4663-0.2207-0.8188-0.5107-1.0571c-0.29-0.2388-0.7188-0.3579-1.2861-0.3579
				c-0.5908,0-1.0215,0.1084-1.292,0.3252c-0.2695,0.2163-0.4053,0.4775-0.4053,0.7827c0,0.2651,0.0957,0.4834,0.2871,0.6548
				c0.1885,0.1709,0.6787,0.3462,1.4727,0.5259s1.3389,0.3364,1.6338,0.4707c0.4297,0.1982,0.7471,0.4492,0.9521,0.7529
				c0.2041,0.3037,0.3066,0.6538,0.3066,1.0498c0,0.3926-0.1123,0.7627-0.3369,1.1104c-0.2246,0.3472-0.5479,0.6177-0.9697,0.8105
				c-0.4209,0.1929-0.8955,0.2896-1.4219,0.2896c-0.668,0-1.2275-0.0977-1.6797-0.292c-0.4512-0.1948-0.8057-0.4878-1.0625-0.8789
				C308.332,97.2274,308.1973,96.785,308.1836,96.2913z"/>
			<path class="st11" d="M315.3643,98.6629v-7.3813h1.4697l1.7471,5.2266c0.1611,0.4863,0.2793,0.8506,0.3525,1.0923
				c0.084-0.2686,0.2148-0.6626,0.3926-1.1831l1.7676-5.1357h1.3145v7.3813h-0.9414v-6.1782l-2.1455,6.1782h-0.8809l-2.1348-6.2837
				v6.2837H315.3643z"/>
			<path class="st11" d="M326.8076,98.6629v-7.3813h2.7695c0.5645,0,1.0166,0.0747,1.3574,0.2241
				c0.3398,0.1494,0.6074,0.3794,0.7998,0.6895c0.1934,0.3105,0.29,0.6357,0.29,0.9746c0,0.3154-0.0859,0.6123-0.2568,0.8911
				s-0.4297,0.5034-0.7754,0.6748c0.4463,0.1309,0.79,0.354,1.0293,0.6694c0.2402,0.3159,0.3604,0.6885,0.3604,1.1177
				c0,0.3462-0.0732,0.6675-0.2188,0.9644c-0.1465,0.2974-0.3271,0.5264-0.542,0.6875s-0.4834,0.2827-0.8076,0.3647
				c-0.3242,0.0825-0.7207,0.1235-1.1904,0.1235H326.8076z M327.7852,94.3831h1.5957c0.4326,0,0.7432-0.0283,0.9316-0.0854
				c0.248-0.0737,0.4355-0.1968,0.5615-0.3677c0.126-0.1714,0.1885-0.3862,0.1885-0.6445c0-0.2451-0.0586-0.4609-0.1758-0.647
				c-0.1182-0.1865-0.2861-0.314-0.5039-0.3828s-0.5928-0.103-1.123-0.103h-1.4746V94.3831z M327.7852,97.7918h1.8379
				c0.3154,0,0.5361-0.0117,0.6641-0.0352c0.2246-0.0405,0.4131-0.1074,0.5645-0.2017c0.1504-0.0938,0.2744-0.2305,0.3721-0.4102
				s0.1465-0.3867,0.1465-0.6221c0-0.2749-0.0713-0.5142-0.2119-0.7173s-0.3369-0.3457-0.5869-0.4277
				c-0.25-0.0825-0.6094-0.1235-1.0801-0.1235h-1.7061V97.7918z"/>
		</g>
	</g>
</g>
<g id="Layer_2">
	<g>
		<g>
			<g>
				<g>
					<path class="st12" d="M106.9302,55.4525l-0.0703-0.7236c0.3232-0.0347,0.5869-0.1143,0.7939-0.2397
						c0.2061-0.125,0.373-0.3193,0.501-0.583c0.127-0.2637,0.1914-0.5605,0.1914-0.8901c0-0.2925-0.0488-0.5508-0.1455-0.7749
						s-0.2295-0.3911-0.3975-0.5005c-0.1689-0.1094-0.3525-0.1641-0.5518-0.1641c-0.2021,0-0.3789,0.0527-0.5293,0.1582
						c-0.1514,0.1055-0.2773,0.2793-0.3799,0.522c-0.0674,0.1558-0.1729,0.4995-0.3145,1.0322
						c-0.1426,0.5327-0.2764,0.9058-0.4023,1.1191c-0.1611,0.2769-0.3613,0.4834-0.5996,0.6191
						c-0.2393,0.1357-0.5059,0.2036-0.8027,0.2036c-0.3242,0-0.6289-0.083-0.9111-0.249c-0.2832-0.166-0.4971-0.4087-0.6436-0.7275
						c-0.1465-0.3193-0.2207-0.6738-0.2207-1.064c0-0.4302,0.0771-0.8091,0.2314-1.1372c0.1533-0.3281,0.3799-0.5806,0.6787-0.7573
						s0.6367-0.2715,1.0156-0.2847l0.0605,0.7354c-0.4062,0.0396-0.7139,0.1733-0.9219,0.4014s-0.3125,0.5649-0.3125,1.0107
						c0,0.4639,0.0947,0.8022,0.2832,1.0142c0.1895,0.2124,0.417,0.3188,0.6836,0.3188c0.2314,0,0.4219-0.0752,0.5713-0.2256
						c0.1494-0.1479,0.3027-0.5332,0.459-1.1567c0.1572-0.6235,0.2939-1.0518,0.4111-1.2837
						c0.1729-0.3374,0.3916-0.5864,0.6572-0.7476c0.2646-0.1606,0.5703-0.2412,0.916-0.2412c0.3428,0,0.666,0.0884,0.9688,0.2651
						c0.3037,0.1768,0.5391,0.4302,0.708,0.7612c0.168,0.3311,0.252,0.7036,0.252,1.1172c0,0.5249-0.085,0.9644-0.2539,1.3193
						c-0.1699,0.3545-0.4258,0.6328-0.7676,0.8345C107.7476,55.3358,107.3618,55.4417,106.9302,55.4525z"/>
					<path class="st12" d="M109.0005,49.8953h-6.4424v-0.7119h6.4424V49.8953z"/>
					<path class="st12" d="M106.6665,48.345c-0.8633,0-1.5039-0.2163-1.9199-0.6484c-0.3457-0.3613-0.5186-0.8018-0.5186-1.3213
						c0-0.5771,0.21-1.0493,0.6309-1.4155c0.4199-0.3667,1.001-0.5498,1.7422-0.5498c0.6006,0,1.0732,0.0811,1.417,0.2432
						c0.3447,0.1621,0.6123,0.3979,0.8027,0.708c0.1895,0.3096,0.2852,0.6479,0.2852,1.0142c0,0.5884-0.209,1.0635-0.6289,1.4258
						C108.0591,48.1639,107.4556,48.345,106.6665,48.345z M106.6665,47.6136c0.5977,0,1.0459-0.1177,1.3428-0.3521
						c0.2979-0.2349,0.4463-0.5303,0.4463-0.8862c0-0.353-0.1494-0.647-0.4482-0.8818c-0.2988-0.2344-0.7539-0.3521-1.3662-0.3521
						c-0.5771,0-1.0146,0.1182-1.3125,0.354c-0.2969,0.2358-0.4453,0.5293-0.4453,0.8799c0,0.356,0.1475,0.6514,0.4434,0.8862
						C105.6226,47.4959,106.0688,47.6136,106.6665,47.6136z"/>
					<path class="st12" d="M108.2935,42.0208l0.6982-0.1025c0.0469,0.2002,0.0703,0.3794,0.0703,0.5376
						c0,0.2583-0.0459,0.459-0.1357,0.6011c-0.0908,0.1426-0.2109,0.2427-0.3584,0.3008c-0.1484,0.0581-0.46,0.0869-0.9346,0.0869
						h-2.6846v0.522h-0.6152v-0.522h-1.1553l-0.4746-0.708h1.6299v-0.7158h0.6152v0.7158h2.7295
						c0.2256,0,0.3701-0.0122,0.4346-0.0376c0.0645-0.0249,0.1162-0.0659,0.1533-0.1226c0.0391-0.0566,0.0576-0.1377,0.0576-0.2432
						C108.3237,42.2542,108.314,42.1502,108.2935,42.0208z"/>
					<path class="st12" d="M109.0005,36.5906v0.7119h-5.041c0.1826,0.1714,0.3643,0.396,0.5449,0.6743
						c0.1826,0.2783,0.3184,0.5278,0.4092,0.7495h-0.7646c-0.208-0.3984-0.46-0.7461-0.7559-1.0444
						c-0.2959-0.2979-0.583-0.5088-0.8613-0.6328v-0.4585H109.0005z"/>
					<path class="st12" d="M109.0005,32.6873v0.7119h-5.041c0.1826,0.1714,0.3643,0.396,0.5449,0.6743
						c0.1826,0.2783,0.3184,0.5278,0.4092,0.7495h-0.7646c-0.208-0.3984-0.46-0.7461-0.7559-1.0444
						c-0.2959-0.2979-0.583-0.5088-0.8613-0.6328v-0.4585H109.0005z"/>
				</g>
			</g>
		</g>
		<g>
			<g>
				<path class="st11" d="M130.2202,38.3519c-0.3579,0.3042-0.7026,0.519-1.0342,0.6445c-0.3311,0.1255-0.6865,0.188-1.0659,0.188
					c-0.6265,0-1.1084-0.1533-1.4448-0.459c-0.3364-0.3066-0.5049-0.6978-0.5049-1.1738c0-0.2793,0.0635-0.5342,0.1904-0.7656
					c0.1274-0.2305,0.2939-0.416,0.5-0.5557c0.2056-0.1396,0.4375-0.2451,0.6953-0.3169c0.1899-0.0503,0.4761-0.0986,0.8594-0.145
					c0.7808-0.0933,1.3555-0.2041,1.7241-0.333c0.0034-0.1323,0.0054-0.2168,0.0054-0.2524c0-0.394-0.0913-0.6714-0.2739-0.8325
					c-0.2471-0.2183-0.6143-0.3276-1.1011-0.3276c-0.4546,0-0.7905,0.0796-1.0068,0.2388c-0.2168,0.1597-0.377,0.4414-0.481,0.8462
					l-0.9453-0.1289c0.0859-0.4048,0.2275-0.7314,0.4243-0.98c0.1968-0.249,0.4814-0.4404,0.854-0.5752
					c0.3726-0.1338,0.8037-0.2012,1.2944-0.2012c0.4868,0,0.8828,0.0571,1.187,0.1719s0.5283,0.2588,0.6714,0.4326
					c0.1431,0.1733,0.2437,0.3926,0.3008,0.6577c0.0322,0.1646,0.0483,0.4619,0.0483,0.8916v1.2891
					c0,0.8989,0.0205,1.4673,0.062,1.7056c0.041,0.2378,0.1226,0.4663,0.2441,0.6846h-1.0098
					C130.3135,38.8548,130.249,38.6204,130.2202,38.3519z M130.1396,36.1927c-0.3511,0.1431-0.8774,0.2651-1.5791,0.3652
					c-0.3975,0.0571-0.6787,0.1216-0.8433,0.1934s-0.292,0.1763-0.3813,0.314c-0.0894,0.1382-0.1343,0.291-0.1343,0.4595
					c0,0.2578,0.0977,0.4727,0.293,0.6445c0.1948,0.1719,0.4805,0.2578,0.8564,0.2578c0.3726,0,0.7036-0.0815,0.9937-0.2446
					c0.29-0.1626,0.5029-0.3857,0.6392-0.6685c0.104-0.2183,0.1558-0.5405,0.1558-0.9668V36.1927z"/>
			</g>
		</g>
		<g>
			<g>
				<path class="st12" d="M127.3896,55.8778h-0.897v-7.874h0.9668v2.8091c0.4082-0.5122,0.9292-0.7681,1.563-0.7681
					c0.3511,0,0.6831,0.0708,0.9966,0.2119c0.313,0.1416,0.5708,0.3403,0.7734,0.5967c0.2021,0.2559,0.3604,0.5645,0.4751,0.9263
					s0.1719,0.7485,0.1719,1.1602c0,0.9775-0.2417,1.7329-0.7251,2.2666s-1.0635,0.8003-1.7402,0.8003
					c-0.6733,0-1.2012-0.2812-1.5845-0.8433V55.8778z M127.3789,52.9827c0,0.6841,0.0933,1.1782,0.2793,1.4824
					c0.3042,0.4976,0.7163,0.7466,1.2354,0.7466c0.4224,0,0.7876-0.1836,1.0957-0.5508c0.3081-0.3667,0.4619-0.9136,0.4619-1.6406
					c0-0.7446-0.1479-1.2944-0.4429-1.6489c-0.2959-0.3545-0.6528-0.5317-1.0718-0.5317c-0.4224,0-0.7876,0.1836-1.0957,0.5508
					C127.5327,51.7571,127.3789,52.2879,127.3789,52.9827z"/>
			</g>
		</g>
		<line class="st13" x1="113.2" y1="28.2372" x2="113.2" y2="59.7117"/>
		<g>
			<polyline class="st13" points="145.7356,59.9396 98.3515,59.9396 98.3515,27.8407 145.7356,27.8407 			"/>
			<line class="st13" x1="145.2989" y1="43.8901" x2="113.2" y2="43.8901"/>
		</g>
	</g>
	<g>
		<g>
			<g>
				<g>
					<path class="st12" d="M106.9302,108.8538l-0.0703-0.7236c0.3232-0.0352,0.5869-0.1143,0.7939-0.2402
						c0.2061-0.125,0.373-0.3184,0.501-0.582c0.127-0.2637,0.1914-0.5605,0.1914-0.8906c0-0.2925-0.0488-0.5508-0.1455-0.7749
						s-0.2295-0.3911-0.3975-0.5005c-0.1689-0.1094-0.3525-0.1641-0.5518-0.1641c-0.2021,0-0.3789,0.0527-0.5293,0.1582
						c-0.1514,0.1055-0.2773,0.2793-0.3799,0.522c-0.0674,0.1558-0.1729,0.4995-0.3145,1.0327
						c-0.1426,0.5322-0.2764,0.9053-0.4023,1.1191c-0.1611,0.2764-0.3613,0.4824-0.5996,0.6191
						c-0.2393,0.1348-0.5059,0.2031-0.8027,0.2031c-0.3242,0-0.6289-0.083-0.9111-0.249c-0.2832-0.166-0.4971-0.4092-0.6436-0.7275
						c-0.1465-0.3193-0.2207-0.6738-0.2207-1.0645c0-0.4297,0.0771-0.8086,0.2314-1.1367c0.1533-0.3281,0.3799-0.5806,0.6787-0.7573
						s0.6367-0.2715,1.0156-0.2847l0.0605,0.7354c-0.4062,0.0396-0.7139,0.1733-0.9219,0.4014s-0.3125,0.5649-0.3125,1.0107
						c0,0.4639,0.0947,0.8027,0.2832,1.0137c0.1895,0.2129,0.417,0.3193,0.6836,0.3193c0.2314,0,0.4219-0.0752,0.5713-0.2256
						c0.1494-0.1484,0.3027-0.5332,0.459-1.1562c0.1572-0.624,0.2939-1.0522,0.4111-1.2842
						c0.1729-0.3374,0.3916-0.5864,0.6572-0.7476c0.2646-0.1606,0.5703-0.2412,0.916-0.2412c0.3428,0,0.666,0.0884,0.9688,0.2651
						c0.3037,0.1768,0.5391,0.4302,0.708,0.7612c0.168,0.3311,0.252,0.7036,0.252,1.1177c0,0.5244-0.085,0.9639-0.2539,1.3184
						c-0.1699,0.3555-0.4258,0.6328-0.7676,0.835C107.7476,108.7376,107.3618,108.8431,106.9302,108.8538z"/>
					<path class="st12" d="M109.0005,103.2967h-6.4424v-0.7119h6.4424V103.2967z"/>
					<path class="st12" d="M106.6665,101.7464c-0.8633,0-1.5039-0.2163-1.9199-0.6484c-0.3457-0.3613-0.5186-0.8018-0.5186-1.3213
						c0-0.5771,0.21-1.0493,0.6309-1.4155c0.4199-0.3667,1.001-0.5498,1.7422-0.5498c0.6006,0,1.0732,0.0811,1.417,0.2432
						c0.3447,0.1621,0.6123,0.3979,0.8027,0.708c0.1895,0.3096,0.2852,0.6479,0.2852,1.0142c0,0.5884-0.209,1.0635-0.6289,1.4258
						C108.0591,101.5652,107.4556,101.7464,106.6665,101.7464z M106.6665,101.015c0.5977,0,1.0459-0.1177,1.3428-0.3521
						c0.2979-0.2349,0.4463-0.5303,0.4463-0.8862c0-0.353-0.1494-0.647-0.4482-0.8818c-0.2988-0.2344-0.7539-0.3521-1.3662-0.3521
						c-0.5771,0-1.0146,0.1182-1.3125,0.354c-0.2969,0.2358-0.4453,0.5293-0.4453,0.8799c0,0.356,0.1475,0.6514,0.4434,0.8862
						C105.6226,100.8973,106.0688,101.015,106.6665,101.015z"/>
					<path class="st12" d="M108.2935,95.4222l0.6982-0.1025c0.0469,0.2002,0.0703,0.3794,0.0703,0.5376
						c0,0.2583-0.0459,0.459-0.1357,0.6011c-0.0908,0.1426-0.2109,0.2427-0.3584,0.3008c-0.1484,0.0581-0.46,0.0869-0.9346,0.0869
						h-2.6846v0.522h-0.6152v-0.522h-1.1553l-0.4746-0.708h1.6299v-0.7158h0.6152v0.7158h2.7295
						c0.2256,0,0.3701-0.0122,0.4346-0.0376c0.0645-0.0249,0.1162-0.0659,0.1533-0.1226c0.0391-0.0566,0.0576-0.1377,0.0576-0.2432
						C108.3237,95.6556,108.314,95.5516,108.2935,95.4222z"/>
					<path class="st12" d="M109.0005,89.992v0.7119h-5.041c0.1826,0.1714,0.3643,0.396,0.5449,0.6743
						c0.1826,0.2783,0.3184,0.5278,0.4092,0.7495h-0.7646c-0.208-0.3984-0.46-0.7461-0.7559-1.0444
						c-0.2959-0.2979-0.583-0.5088-0.8613-0.6328V89.992H109.0005z"/>
					<path class="st12" d="M105.8228,88.1688c-0.7607,0-1.374-0.0708-1.8389-0.2119c-0.4639-0.1411-0.8223-0.3506-1.0742-0.6289
						c-0.252-0.2778-0.3779-0.6279-0.3779-1.0498c0-0.311,0.0693-0.584,0.209-0.8188c0.1387-0.2349,0.3398-0.4282,0.6016-0.5815
						c0.2627-0.1528,0.582-0.2729,0.958-0.3599c0.377-0.0869,0.8848-0.1304,1.5225-0.1304c0.7559,0,1.3662,0.0698,1.8311,0.2095
						c0.4639,0.1396,0.8232,0.3486,1.0762,0.627c0.2539,0.2783,0.3799,0.6294,0.3799,1.0542c0,0.5591-0.2217,0.998-0.668,1.3169
						C107.9067,87.9774,107.0337,88.1688,105.8228,88.1688z M105.8228,87.4368c1.0586,0,1.7617-0.1113,2.1123-0.334
						c0.3496-0.2231,0.5244-0.498,0.5244-0.8247c0-0.3271-0.1758-0.6021-0.5273-0.8247s-1.0547-0.3345-2.1094-0.3345
						c-1.0596,0-1.7646,0.1118-2.1133,0.3345s-0.5234,0.5005-0.5234,0.8325c0,0.3271,0.1543,0.5879,0.4619,0.7832
						C104.0405,87.3143,104.7661,87.4368,105.8228,87.4368z"/>
				</g>
			</g>
		</g>
		<g>
			<g>
				<path class="st12" d="M130.2202,91.3646c-0.3579,0.3042-0.7026,0.519-1.0342,0.6445c-0.3311,0.1255-0.6865,0.188-1.0659,0.188
					c-0.6265,0-1.1084-0.1533-1.4448-0.459c-0.3364-0.3066-0.5049-0.6978-0.5049-1.1738c0-0.2793,0.0635-0.5342,0.1904-0.7656
					c0.1274-0.2305,0.2939-0.416,0.5-0.5557c0.2056-0.1396,0.4375-0.2451,0.6953-0.3169c0.1899-0.0503,0.4761-0.0986,0.8594-0.145
					c0.7808-0.0933,1.3555-0.2041,1.7241-0.333c0.0034-0.1323,0.0054-0.2168,0.0054-0.2524c0-0.394-0.0913-0.6714-0.2739-0.8325
					c-0.2471-0.2183-0.6143-0.3276-1.1011-0.3276c-0.4546,0-0.7905,0.0796-1.0068,0.2388c-0.2168,0.1597-0.377,0.4414-0.481,0.8462
					l-0.9453-0.1289c0.0859-0.4048,0.2275-0.7314,0.4243-0.98c0.1968-0.249,0.4814-0.4404,0.854-0.5752
					c0.3726-0.1338,0.8037-0.2012,1.2944-0.2012c0.4868,0,0.8828,0.0571,1.187,0.1719s0.5283,0.2588,0.6714,0.4326
					c0.1431,0.1733,0.2437,0.3926,0.3008,0.6577c0.0322,0.1646,0.0483,0.4619,0.0483,0.8916v1.2891
					c0,0.8989,0.0205,1.4673,0.062,1.7056c0.041,0.2378,0.1226,0.4663,0.2441,0.6846h-1.0098
					C130.3135,91.8675,130.249,91.6331,130.2202,91.3646z M130.1396,89.2054c-0.3511,0.1431-0.8774,0.2651-1.5791,0.3652
					c-0.3975,0.0571-0.6787,0.1216-0.8433,0.1934s-0.292,0.1763-0.3813,0.314c-0.0894,0.1382-0.1343,0.291-0.1343,0.4595
					c0,0.2578,0.0977,0.4727,0.293,0.6445c0.1948,0.1719,0.4805,0.2578,0.8564,0.2578c0.3726,0,0.7036-0.0815,0.9937-0.2446
					c0.29-0.1626,0.5029-0.3857,0.6392-0.6685c0.104-0.2183,0.1558-0.5405,0.1558-0.9668V89.2054z"/>
			</g>
		</g>
		<g>
			<g>
				<path class="st11" d="M127.3896,108.89h-0.897v-7.8735h0.9668v2.8091c0.4082-0.5122,0.9292-0.7681,1.563-0.7681
					c0.3511,0,0.6831,0.0708,0.9966,0.2119c0.313,0.1416,0.5708,0.3403,0.7734,0.5967c0.2021,0.2559,0.3604,0.5645,0.4751,0.9263
					s0.1719,0.7485,0.1719,1.1602c0,0.9775-0.2417,1.7324-0.7251,2.2666c-0.4834,0.5332-1.0635,0.7998-1.7402,0.7998
					c-0.6733,0-1.2012-0.2812-1.5845-0.8428V108.89z M127.3789,105.9954c0,0.6836,0.0933,1.1777,0.2793,1.4824
					c0.3042,0.4971,0.7163,0.7461,1.2354,0.7461c0.4224,0,0.7876-0.1836,1.0957-0.5508c0.3081-0.3662,0.4619-0.9131,0.4619-1.6401
					c0-0.7446-0.1479-1.2944-0.4429-1.6489c-0.2959-0.3545-0.6528-0.5317-1.0718-0.5317c-0.4224,0-0.7876,0.1836-1.0957,0.5508
					C127.5327,104.7698,127.3789,105.3006,127.3789,105.9954z"/>
			</g>
		</g>
		<line class="st13" x1="113.2" y1="81.2498" x2="113.2" y2="112.7244"/>
		<g>
			<polyline class="st13" points="145.7356,112.9522 98.3515,112.9522 98.3515,80.8533 145.7356,80.8533 			"/>
			<line class="st13" x1="145.2989" y1="96.9028" x2="113.2" y2="96.9028"/>
		</g>
	</g>
	<g>
		<g>
			<g>
				<g>
					<path class="st12" d="M106.9302,184.8138l-0.0703-0.7236c0.3232-0.0342,0.5869-0.1143,0.7939-0.2393
						c0.2061-0.125,0.373-0.3203,0.501-0.584c0.127-0.2637,0.1914-0.5605,0.1914-0.8896c0-0.292-0.0488-0.5508-0.1455-0.7744
						c-0.0967-0.2246-0.2295-0.3916-0.3975-0.501c-0.1689-0.1094-0.3525-0.1641-0.5518-0.1641
						c-0.2021,0-0.3789,0.0527-0.5293,0.1582c-0.1514,0.1055-0.2773,0.2793-0.3799,0.5225
						c-0.0674,0.1553-0.1729,0.499-0.3145,1.0312c-0.1426,0.5332-0.2764,0.9062-0.4023,1.1191
						c-0.1611,0.2773-0.3613,0.4844-0.5996,0.6191c-0.2393,0.1367-0.5059,0.2041-0.8027,0.2041c-0.3242,0-0.6289-0.083-0.9111-0.249
						c-0.2832-0.166-0.4971-0.4082-0.6436-0.7275s-0.2207-0.6738-0.2207-1.0635c0-0.4307,0.0771-0.8096,0.2314-1.1377
						c0.1533-0.3281,0.3799-0.5811,0.6787-0.7568c0.2988-0.1777,0.6367-0.2715,1.0156-0.2852l0.0605,0.7354
						c-0.4062,0.04-0.7139,0.1729-0.9219,0.4014s-0.3125,0.5645-0.3125,1.0107c0,0.4639,0.0947,0.8018,0.2832,1.0146
						c0.1895,0.2119,0.417,0.3184,0.6836,0.3184c0.2314,0,0.4219-0.0752,0.5713-0.2256c0.1494-0.1475,0.3027-0.5332,0.459-1.1572
						c0.1572-0.623,0.2939-1.0508,0.4111-1.2832c0.1729-0.3379,0.3916-0.5859,0.6572-0.748
						c0.2646-0.1602,0.5703-0.2402,0.916-0.2402c0.3428,0,0.666,0.0879,0.9688,0.2646c0.3037,0.1768,0.5391,0.4307,0.708,0.7607
						c0.168,0.332,0.252,0.7041,0.252,1.1172c0,0.5254-0.085,0.9648-0.2539,1.3203c-0.1699,0.3535-0.4258,0.6328-0.7676,0.834
						C107.7476,184.6966,107.3618,184.803,106.9302,184.8138z"/>
					<path class="st12" d="M109.0005,179.2571h-6.4424v-0.7129h6.4424V179.2571z"/>
					<path class="st12" d="M106.6665,177.7064c-0.8633,0-1.5039-0.2168-1.9199-0.6484c-0.3457-0.3613-0.5186-0.8018-0.5186-1.3213
						c0-0.5771,0.21-1.0498,0.6309-1.415c0.4199-0.3672,1.001-0.5508,1.7422-0.5508c0.6006,0,1.0732,0.082,1.417,0.2441
						c0.3447,0.1621,0.6123,0.3975,0.8027,0.707c0.1895,0.3105,0.2852,0.6484,0.2852,1.0146c0,0.5889-0.209,1.0635-0.6289,1.4258
						C108.0591,177.5247,107.4556,177.7064,106.6665,177.7064z M106.6665,176.9749c0.5977,0,1.0459-0.1182,1.3428-0.3525
						c0.2979-0.2344,0.4463-0.5293,0.4463-0.8857c0-0.3525-0.1494-0.6475-0.4482-0.8818s-0.7539-0.3516-1.3662-0.3516
						c-0.5771,0-1.0146,0.1172-1.3125,0.3535c-0.2969,0.2363-0.4453,0.5293-0.4453,0.8799c0,0.3564,0.1475,0.6514,0.4434,0.8857
						S106.0688,176.9749,106.6665,176.9749z"/>
					<path class="st12" d="M108.2935,171.3821l0.6982-0.1025c0.0469,0.2002,0.0703,0.3799,0.0703,0.5381
						c0,0.2578-0.0459,0.459-0.1357,0.6006c-0.0908,0.1426-0.2109,0.2432-0.3584,0.3008c-0.1484,0.0576-0.46,0.0869-0.9346,0.0869
						h-2.6846v0.5215h-0.6152v-0.5215h-1.1553l-0.4746-0.708h1.6299v-0.7158h0.6152v0.7158h2.7295
						c0.2256,0,0.3701-0.0127,0.4346-0.0381c0.0645-0.0244,0.1162-0.0654,0.1533-0.1221c0.0391-0.0566,0.0576-0.1377,0.0576-0.2432
						C108.3237,171.6155,108.314,171.511,108.2935,171.3821z"/>
					<path class="st12" d="M109.0005,165.9525v0.7109h-5.041c0.1826,0.1719,0.3643,0.3965,0.5449,0.6748
						c0.1826,0.2783,0.3184,0.5283,0.4092,0.749h-0.7646c-0.208-0.3984-0.46-0.7461-0.7559-1.0439s-0.583-0.5088-0.8613-0.6328
						v-0.458H109.0005z"/>
					<path class="st12" d="M109.0005,162.0482v0.7129h-5.041c0.1826,0.1709,0.3643,0.3955,0.5449,0.6738
						c0.1826,0.2783,0.3184,0.5273,0.4092,0.75h-0.7646c-0.208-0.3984-0.46-0.7461-0.7559-1.0449
						c-0.2959-0.2979-0.583-0.5088-0.8613-0.6328v-0.459H109.0005z"/>
				</g>
			</g>
		</g>
		<g>
			<g>
				<path class="st11" d="M130.2202,167.7122c-0.3579,0.3047-0.7026,0.5195-1.0342,0.6445
					c-0.3311,0.126-0.6865,0.1885-1.0659,0.1885c-0.6265,0-1.1084-0.1533-1.4448-0.459c-0.3364-0.3066-0.5049-0.6982-0.5049-1.1738
					c0-0.2793,0.0635-0.5342,0.1904-0.7656c0.1274-0.2305,0.2939-0.416,0.5-0.5557c0.2056-0.1396,0.4375-0.2451,0.6953-0.3174
					c0.1899-0.0498,0.4761-0.0986,0.8594-0.1445c0.7808-0.0938,1.3555-0.2041,1.7241-0.333
					c0.0034-0.1328,0.0054-0.2168,0.0054-0.2529c0-0.3936-0.0913-0.6709-0.2739-0.832c-0.2471-0.2188-0.6143-0.3281-1.1011-0.3281
					c-0.4546,0-0.7905,0.0801-1.0068,0.2393c-0.2168,0.1592-0.377,0.4414-0.481,0.8457l-0.9453-0.1289
					c0.0859-0.4043,0.2275-0.7314,0.4243-0.9795c0.1968-0.249,0.4814-0.4404,0.854-0.5752
					c0.3726-0.1338,0.8037-0.2012,1.2944-0.2012c0.4868,0,0.8828,0.0566,1.187,0.1719c0.3042,0.1143,0.5283,0.2588,0.6714,0.4326
					c0.1431,0.1729,0.2437,0.3926,0.3008,0.6572c0.0322,0.165,0.0483,0.4619,0.0483,0.8916v1.2891
					c0,0.8994,0.0205,1.4678,0.062,1.7061c0.041,0.2373,0.1226,0.4658,0.2441,0.6846h-1.0098
					C130.3135,168.2151,130.249,167.9808,130.2202,167.7122z M130.1396,165.553c-0.3511,0.1436-0.8774,0.2656-1.5791,0.3652
					c-0.3975,0.0576-0.6787,0.1221-0.8433,0.1934c-0.1646,0.0723-0.292,0.1768-0.3813,0.3145s-0.1343,0.291-0.1343,0.459
					c0,0.2578,0.0977,0.4727,0.293,0.6445c0.1948,0.1719,0.4805,0.2578,0.8564,0.2578c0.3726,0,0.7036-0.0811,0.9937-0.2441
					s0.5029-0.3857,0.6392-0.6689c0.104-0.2178,0.1558-0.54,0.1558-0.9668V165.553z"/>
			</g>
		</g>
		<g>
			<g>
				<path class="st12" d="M127.3896,185.2386h-0.897v-7.874h0.9668v2.8086c0.4082-0.5117,0.9292-0.7676,1.563-0.7676
					c0.3511,0,0.6831,0.0703,0.9966,0.2119c0.313,0.1416,0.5708,0.3398,0.7734,0.5967c0.2021,0.2559,0.3604,0.5645,0.4751,0.9258
					c0.1147,0.3623,0.1719,0.749,0.1719,1.1602c0,0.9775-0.2417,1.7334-0.7251,2.2666c-0.4834,0.5342-1.0635,0.8008-1.7402,0.8008
					c-0.6733,0-1.2012-0.2812-1.5845-0.8438V185.2386z M127.3789,182.3431c0,0.6846,0.0933,1.1787,0.2793,1.4824
					c0.3042,0.498,0.7163,0.7471,1.2354,0.7471c0.4224,0,0.7876-0.1836,1.0957-0.5508s0.4619-0.9141,0.4619-1.6406
					c0-0.7451-0.1479-1.2949-0.4429-1.6494c-0.2959-0.3545-0.6528-0.5312-1.0718-0.5312c-0.4224,0-0.7876,0.1836-1.0957,0.5508
					C127.5327,181.1175,127.3789,181.6487,127.3789,182.3431z"/>
			</g>
		</g>
		<line class="st13" x1="113.2" y1="157.598" x2="113.2" y2="189.0726"/>
		<g>
			<polyline class="st13" points="145.7356,189.3004 98.3515,189.3004 98.3515,157.2015 145.7356,157.2015 			"/>
			<line class="st13" x1="145.2989" y1="173.2509" x2="113.2" y2="173.2509"/>
		</g>
	</g>
	<g>
		<g>
			<g>
				<g>
					<path class="st12" d="M106.9302,239.9739l-0.0703-0.7236c0.3232-0.0342,0.5869-0.1143,0.7939-0.2393
						c0.2061-0.125,0.373-0.3203,0.501-0.584c0.127-0.2637,0.1914-0.5605,0.1914-0.8896c0-0.292-0.0488-0.5508-0.1455-0.7744
						c-0.0967-0.2246-0.2295-0.3916-0.3975-0.501c-0.1689-0.1094-0.3525-0.1641-0.5518-0.1641
						c-0.2021,0-0.3789,0.0527-0.5293,0.1582c-0.1514,0.1055-0.2773,0.2793-0.3799,0.5225
						c-0.0674,0.1553-0.1729,0.499-0.3145,1.0312c-0.1426,0.5332-0.2764,0.9062-0.4023,1.1191
						c-0.1611,0.2773-0.3613,0.4844-0.5996,0.6191c-0.2393,0.1367-0.5059,0.2041-0.8027,0.2041c-0.3242,0-0.6289-0.083-0.9111-0.249
						c-0.2832-0.166-0.4971-0.4082-0.6436-0.7275s-0.2207-0.6738-0.2207-1.0635c0-0.4307,0.0771-0.8096,0.2314-1.1377
						c0.1533-0.3281,0.3799-0.5811,0.6787-0.7568c0.2988-0.1777,0.6367-0.2715,1.0156-0.2852l0.0605,0.7354
						c-0.4062,0.04-0.7139,0.1729-0.9219,0.4014s-0.3125,0.5645-0.3125,1.0107c0,0.4639,0.0947,0.8018,0.2832,1.0146
						c0.1895,0.2119,0.417,0.3184,0.6836,0.3184c0.2314,0,0.4219-0.0752,0.5713-0.2256c0.1494-0.1475,0.3027-0.5332,0.459-1.1572
						c0.1572-0.623,0.2939-1.0508,0.4111-1.2832c0.1729-0.3379,0.3916-0.5859,0.6572-0.748
						c0.2646-0.1602,0.5703-0.2402,0.916-0.2402c0.3428,0,0.666,0.0879,0.9688,0.2646c0.3037,0.1768,0.5391,0.4307,0.708,0.7607
						c0.168,0.332,0.252,0.7041,0.252,1.1172c0,0.5254-0.085,0.9648-0.2539,1.3203c-0.1699,0.3535-0.4258,0.6328-0.7676,0.834
						C107.7476,239.8568,107.3618,239.9632,106.9302,239.9739z"/>
					<path class="st12" d="M109.0005,234.4173h-6.4424v-0.7129h6.4424V234.4173z"/>
					<path class="st12" d="M106.6665,232.8665c-0.8633,0-1.5039-0.2168-1.9199-0.6484c-0.3457-0.3613-0.5186-0.8018-0.5186-1.3213
						c0-0.5771,0.21-1.0498,0.6309-1.415c0.4199-0.3672,1.001-0.5508,1.7422-0.5508c0.6006,0,1.0732,0.082,1.417,0.2441
						c0.3447,0.1621,0.6123,0.3975,0.8027,0.707c0.1895,0.3105,0.2852,0.6484,0.2852,1.0146c0,0.5889-0.209,1.0635-0.6289,1.4258
						C108.0591,232.6849,107.4556,232.8665,106.6665,232.8665z M106.6665,232.1351c0.5977,0,1.0459-0.1182,1.3428-0.3525
						c0.2979-0.2344,0.4463-0.5293,0.4463-0.8857c0-0.3525-0.1494-0.6475-0.4482-0.8818s-0.7539-0.3516-1.3662-0.3516
						c-0.5771,0-1.0146,0.1172-1.3125,0.3535c-0.2969,0.2363-0.4453,0.5293-0.4453,0.8799c0,0.3564,0.1475,0.6514,0.4434,0.8857
						S106.0688,232.1351,106.6665,232.1351z"/>
					<path class="st12" d="M108.2935,226.5423l0.6982-0.1025c0.0469,0.2002,0.0703,0.3799,0.0703,0.5381
						c0,0.2578-0.0459,0.459-0.1357,0.6006c-0.0908,0.1426-0.2109,0.2432-0.3584,0.3008c-0.1484,0.0576-0.46,0.0869-0.9346,0.0869
						h-2.6846v0.5215h-0.6152v-0.5215h-1.1553l-0.4746-0.708h1.6299v-0.7158h0.6152v0.7158h2.7295
						c0.2256,0,0.3701-0.0127,0.4346-0.0381c0.0645-0.0244,0.1162-0.0654,0.1533-0.1221c0.0391-0.0566,0.0576-0.1377,0.0576-0.2432
						C108.3237,226.7757,108.314,226.6712,108.2935,226.5423z"/>
					<path class="st12" d="M109.0005,221.1126v0.7109h-5.041c0.1826,0.1719,0.3643,0.3965,0.5449,0.6748
						c0.1826,0.2783,0.3184,0.5283,0.4092,0.749h-0.7646c-0.208-0.3984-0.46-0.7461-0.7559-1.0439s-0.583-0.5088-0.8613-0.6328
						v-0.458H109.0005z"/>
					<path class="st12" d="M105.8228,219.2884c-0.7607,0-1.374-0.0703-1.8389-0.2109c-0.4639-0.1416-0.8223-0.3516-1.0742-0.6289
						c-0.252-0.2783-0.3779-0.6289-0.3779-1.0508c0-0.3105,0.0693-0.584,0.209-0.8184c0.1387-0.2344,0.3398-0.4277,0.6016-0.582
						c0.2627-0.1523,0.582-0.2725,0.958-0.3594c0.377-0.0869,0.8848-0.1309,1.5225-0.1309c0.7559,0,1.3662,0.0703,1.8311,0.21
						c0.4639,0.1396,0.8232,0.3486,1.0762,0.627c0.2539,0.2783,0.3799,0.6299,0.3799,1.0537c0,0.5596-0.2217,0.998-0.668,1.3174
						C107.9067,219.097,107.0337,219.2884,105.8228,219.2884z M105.8228,218.5569c1.0586,0,1.7617-0.1113,2.1123-0.334
						c0.3496-0.2236,0.5244-0.498,0.5244-0.8252c0-0.3262-0.1758-0.6016-0.5273-0.8242s-1.0547-0.334-2.1094-0.334
						c-1.0596,0-1.7646,0.1113-2.1133,0.334s-0.5234,0.5-0.5234,0.832c0,0.3281,0.1543,0.5879,0.4619,0.7832
						C104.0405,218.4349,104.7661,218.5569,105.8228,218.5569z"/>
				</g>
			</g>
		</g>
		<g>
			<g>
				<path class="st12" d="M130.2202,222.4857c-0.3579,0.3047-0.7026,0.5195-1.0342,0.6445
					c-0.3311,0.126-0.6865,0.1885-1.0659,0.1885c-0.6265,0-1.1084-0.1533-1.4448-0.459c-0.3364-0.3066-0.5049-0.6982-0.5049-1.1738
					c0-0.2793,0.0635-0.5342,0.1904-0.7656c0.1274-0.2305,0.2939-0.416,0.5-0.5557c0.2056-0.1396,0.4375-0.2451,0.6953-0.3174
					c0.1899-0.0498,0.4761-0.0986,0.8594-0.1445c0.7808-0.0938,1.3555-0.2041,1.7241-0.333
					c0.0034-0.1328,0.0054-0.2168,0.0054-0.2529c0-0.3936-0.0913-0.6709-0.2739-0.832c-0.2471-0.2188-0.6143-0.3281-1.1011-0.3281
					c-0.4546,0-0.7905,0.0801-1.0068,0.2393c-0.2168,0.1592-0.377,0.4414-0.481,0.8457l-0.9453-0.1289
					c0.0859-0.4043,0.2275-0.7314,0.4243-0.9795c0.1968-0.249,0.4814-0.4404,0.854-0.5752
					c0.3726-0.1338,0.8037-0.2012,1.2944-0.2012c0.4868,0,0.8828,0.0566,1.187,0.1719c0.3042,0.1143,0.5283,0.2588,0.6714,0.4326
					c0.1431,0.1729,0.2437,0.3926,0.3008,0.6572c0.0322,0.165,0.0483,0.4619,0.0483,0.8916v1.2891
					c0,0.8994,0.0205,1.4678,0.062,1.7061c0.041,0.2373,0.1226,0.4658,0.2441,0.6846h-1.0098
					C130.3135,222.9886,130.249,222.7542,130.2202,222.4857z M130.1396,220.3265c-0.3511,0.1436-0.8774,0.2656-1.5791,0.3652
					c-0.3975,0.0576-0.6787,0.1221-0.8433,0.1934c-0.1646,0.0723-0.292,0.1768-0.3813,0.3145s-0.1343,0.291-0.1343,0.459
					c0,0.2578,0.0977,0.4727,0.293,0.6445c0.1948,0.1719,0.4805,0.2578,0.8564,0.2578c0.3726,0,0.7036-0.0811,0.9937-0.2441
					s0.5029-0.3857,0.6392-0.6689c0.104-0.2178,0.1558-0.54,0.1558-0.9668V220.3265z"/>
			</g>
		</g>
		<g>
			<g>
				<path class="st11" d="M127.3896,240.012h-0.897v-7.874h0.9668v2.8086c0.4082-0.5117,0.9292-0.7676,1.563-0.7676
					c0.3511,0,0.6831,0.0703,0.9966,0.2119c0.313,0.1416,0.5708,0.3398,0.7734,0.5967c0.2021,0.2559,0.3604,0.5645,0.4751,0.9258
					c0.1147,0.3623,0.1719,0.749,0.1719,1.1602c0,0.9775-0.2417,1.7334-0.7251,2.2666c-0.4834,0.5342-1.0635,0.8008-1.7402,0.8008
					c-0.6733,0-1.2012-0.2812-1.5845-0.8438V240.012z M127.3789,237.1165c0,0.6846,0.0933,1.1787,0.2793,1.4824
					c0.3042,0.498,0.7163,0.7471,1.2354,0.7471c0.4224,0,0.7876-0.1836,1.0957-0.5508s0.4619-0.9141,0.4619-1.6406
					c0-0.7451-0.1479-1.2949-0.4429-1.6494c-0.2959-0.3545-0.6528-0.5312-1.0718-0.5312c-0.4224,0-0.7876,0.1836-1.0957,0.5508
					C127.5327,235.8909,127.3789,236.4222,127.3789,237.1165z"/>
			</g>
		</g>
		<line class="st13" x1="113.2" y1="212.3713" x2="113.2" y2="243.8458"/>
		<g>
			<polyline class="st13" points="145.7356,244.0736 98.3515,244.0736 98.3515,211.9747 145.7356,211.9747 			"/>
			<line class="st13" x1="145.2989" y1="228.0242" x2="113.2" y2="228.0242"/>
		</g>
	</g>
</g>
</svg>
