<?xml version="1.0" encoding="UTF-8"?><svg xmlns="http://www.w3.org/2000/svg" width="5.95in" height="2.75in" xmlns:xlink="http://www.w3.org/1999/xlink" viewBox="0 0 428.4 198"><defs><clipPath id="b"><polygon points="118.727 111.205 120.116 173.206 148.582 169.526 146.568 109.538 118.727 111.205" fill="none"/></clipPath><clipPath id="e"><circle cx="383.784" cy="54.967" r="40.25" fill="none"/></clipPath></defs><g id="a"><path d="M353.526,99.304l.711.032.156-5.122L35.879,111.197s-1.121.047-1.028,1.308.234,5.543.234,5.543l-22.376-39.446-.103-3.507,182.067-4.945,159.66,23.995" fill="none" stroke="#231f20" stroke-linecap="round" stroke-linejoin="round" stroke-width=".5"/><polyline points="13.56 74.902 10.61 70.658 174.418 67.253 192.96 70.128" fill="none" stroke="#231f20" stroke-linecap="round" stroke-linejoin="round" stroke-width=".5"/><polyline points="10.61 70.658 10.61 73.588 12.451 76.369" fill="none" stroke="#231f20" stroke-linecap="round" stroke-linejoin="round" stroke-width=".5"/><line x1="34.912" y1="111.558" x2="12.605" y2="75.095" fill="none" stroke="#231f20" stroke-linecap="round" stroke-linejoin="round" stroke-width=".5"/><polyline points="353.178 102.595 353.61 95.382 47.998 112.501 37.122 113.11 41.12 185.093" fill="none" stroke="#231f20" stroke-linecap="round" stroke-linejoin="round" stroke-width=".5"/><line x1="350.301" y1="150.648" x2="352.988" y2="105.772" fill="none" stroke="#231f20" stroke-linecap="round" stroke-linejoin="round" stroke-width=".5"/><line x1="229.683" y1="164.104" x2="300.597" y2="156.349" fill="none" stroke="#231f20" stroke-linecap="round" stroke-linejoin="round" stroke-width=".5"/><polyline points="155.562 172.464 40.537 185.35 12.529 102.61 10.61 73.588" fill="none" stroke="#231f20" stroke-linecap="round" stroke-linejoin="round" stroke-width=".5"/><line x1="229.766" y1="162.376" x2="296.556" y2="155.09" fill="none" stroke="#231f20" stroke-linecap="round" stroke-linejoin="round" stroke-width=".5"/><line x1="348.195" y1="143.321" x2="349.969" y2="107.755" fill="none" stroke="#231f20" stroke-linecap="round" stroke-linejoin="round" stroke-width=".5"/><line x1="346.092" y1="138.852" x2="347.84" y2="105.273" fill="none" stroke="#231f20" stroke-linecap="round" stroke-linejoin="round" stroke-width=".5"/><polygon points="349.054 107.341 349.099 104.868 347.13 104.776 347.176 103.173 346.306 102.486 346.443 99.463 347.405 99.509 347.542 97.586 350.153 97.952 349.924 104.318 351.893 102.898 351.893 104.639 349.791 106.479 349.695 107.387 349.054 107.341" fill="none" stroke="#231f20" stroke-linecap="round" stroke-linejoin="round" stroke-width=".5"/><polyline points="352.146 102.786 352.351 97.815 350.153 97.952" fill="none" stroke="#231f20" stroke-linecap="round" stroke-linejoin="round" stroke-width=".5"/><polyline points="351.893 102.898 354.14 102.898 354.14 104.561 351.93 104.561" fill="none" stroke="#231f20" stroke-linecap="round" stroke-linejoin="round" stroke-width=".5"/><polyline points="354.146 104.532 351.839 106.529 351.808 107.377 349.695 107.387" fill="none" stroke="#231f20" stroke-linecap="round" stroke-linejoin="round" stroke-width=".5"/><line x1="351.839" y1="106.529" x2="349.791" y2="106.479" fill="none" stroke="#231f20" stroke-linecap="round" stroke-linejoin="round" stroke-width=".5"/><polyline points="347.542 97.586 349.638 97.379 352.351 97.815" fill="none" stroke="#231f20" stroke-linecap="round" stroke-linejoin="round" stroke-width=".5"/><polygon points="350.637 99.009 351.774 98.93 351.298 100.12 350.637 99.009" fill="#231f20"/><line x1="335.382" y1="135.916" x2="336.842" y2="108.544" fill="none" stroke="#231f20" stroke-linecap="round" stroke-linejoin="round" stroke-width=".5"/><line x1="333.336" y1="136.833" x2="334.713" y2="106.062" fill="none" stroke="#231f20" stroke-linecap="round" stroke-linejoin="round" stroke-width=".5"/><polygon points="335.926 108.13 335.972 105.657 334.003 105.565 334.049 103.962 333.179 103.275 333.316 100.252 334.278 100.298 334.415 98.375 337.026 98.741 336.797 105.107 338.766 103.687 338.766 105.428 336.663 107.268 336.568 108.175 335.926 108.13" fill="none" stroke="#231f20" stroke-linecap="round" stroke-linejoin="round" stroke-width=".5"/><polyline points="339.019 103.575 339.224 98.604 337.026 98.741" fill="none" stroke="#231f20" stroke-linecap="round" stroke-linejoin="round" stroke-width=".5"/><polyline points="338.766 103.687 341.013 103.687 341.013 105.35 338.802 105.35" fill="none" stroke="#231f20" stroke-linecap="round" stroke-linejoin="round" stroke-width=".5"/><polyline points="341.019 105.321 338.712 107.318 338.681 108.166 336.568 108.175" fill="none" stroke="#231f20" stroke-linecap="round" stroke-linejoin="round" stroke-width=".5"/><line x1="338.712" y1="107.318" x2="336.663" y2="107.268" fill="none" stroke="#231f20" stroke-linecap="round" stroke-linejoin="round" stroke-width=".5"/><polyline points="334.415 98.375 336.511 98.168 339.224 98.604" fill="none" stroke="#231f20" stroke-linecap="round" stroke-linejoin="round" stroke-width=".5"/><polygon points="337.51 99.798 338.647 99.719 338.171 100.909 337.51 99.798" fill="#231f20"/><line x1="321.597" y1="143.076" x2="323.016" y2="109.436" fill="none" stroke="#231f20" stroke-linecap="round" stroke-linejoin="round" stroke-width=".5"/><line x1="319.263" y1="144.24" x2="320.887" y2="106.954" fill="none" stroke="#231f20" stroke-linecap="round" stroke-linejoin="round" stroke-width=".5"/><polygon points="322.101 109.022 322.146 106.549 320.177 106.457 320.223 104.854 319.353 104.167 319.49 101.144 320.452 101.19 320.589 99.267 323.2 99.633 322.971 105.999 324.94 104.579 324.94 106.32 322.838 108.16 322.742 109.067 322.101 109.022" fill="none" stroke="#231f20" stroke-linecap="round" stroke-linejoin="round" stroke-width=".5"/><polyline points="325.193 104.467 325.398 99.496 323.2 99.633" fill="none" stroke="#231f20" stroke-linecap="round" stroke-linejoin="round" stroke-width=".5"/><polyline points="324.94 104.579 327.187 104.579 327.187 106.242 324.977 106.242" fill="none" stroke="#231f20" stroke-linecap="round" stroke-linejoin="round" stroke-width=".5"/><polyline points="327.193 106.213 324.886 108.21 324.856 109.058 322.742 109.067" fill="none" stroke="#231f20" stroke-linecap="round" stroke-linejoin="round" stroke-width=".5"/><line x1="324.886" y1="108.21" x2="322.838" y2="108.16" fill="none" stroke="#231f20" stroke-linecap="round" stroke-linejoin="round" stroke-width=".5"/><polyline points="320.589 99.267 322.685 99.06 325.398 99.496" fill="none" stroke="#231f20" stroke-linecap="round" stroke-linejoin="round" stroke-width=".5"/><polygon points="323.684 100.69 324.821 100.611 324.345 101.801 323.684 100.69" fill="#231f20"/><polyline points="305.622 103.259 305.664 101.858 306.626 101.904 306.763 99.98 309.374 100.347 309.197 104.097" fill="none" stroke="#231f20" stroke-linecap="round" stroke-linejoin="round" stroke-width=".5"/><polyline points="311.367 104.855 311.572 100.209 309.374 100.347" fill="none" stroke="#231f20" stroke-linecap="round" stroke-linejoin="round" stroke-width=".5"/><polyline points="306.763 99.98 308.86 99.774 311.572 100.209" fill="none" stroke="#231f20" stroke-linecap="round" stroke-linejoin="round" stroke-width=".5"/><polygon points="309.858 101.404 310.996 101.324 310.52 102.514 309.858 101.404" fill="#231f20"/><polyline points="348.111 97.441 348.111 97.009 286.298 100.413 270.189 101.225" fill="none" stroke="#231f20" stroke-linecap="round" stroke-linejoin="round" stroke-width=".5"/><line x1="292.511" y1="105.891" x2="292.606" y2="100.193" fill="none" stroke="#231f20" stroke-linecap="round" stroke-linejoin="round" stroke-width=".5"/><line x1="269.103" y1="110.568" x2="269.253" y2="101.248" fill="none" stroke="#231f20" stroke-linecap="round" stroke-linejoin="round" stroke-width=".5"/><line x1="267.746" y1="156.683" x2="267.746" y2="144.219" fill="none" stroke="#231f20" stroke-linecap="round" stroke-linejoin="round" stroke-width=".5"/><polygon points="227.268 134.988 232.066 137.08 269.772 133.902 267.587 131.752 227.268 134.988" fill="none" stroke="#231f20" stroke-linecap="round" stroke-linejoin="round" stroke-width=".5"/><line x1="267.432" y1="134.075" x2="267.432" y2="131.984" fill="none" stroke="#231f20" stroke-linecap="round" stroke-linejoin="round" stroke-width=".5"/><path d="M214.273,135.158l6.139,2.727,9.533-.835,1.88.865s35.853-3.205,38.257-3.205c2.102,0,1.111-1.14,1.111-1.14l-3.166-2.906-53.753,4.495v1.189" fill="none" stroke="#231f20" stroke-linecap="round" stroke-linejoin="round" stroke-width=".5"/><polyline points="222.296 138.918 231.503 138.091 231.503 147.587 229.753 147.766" fill="none" stroke="#231f20" stroke-linecap="round" stroke-linejoin="round" stroke-width=".5"/><line x1="222.296" y1="138.918" x2="221.226" y2="138.491" fill="none" stroke="#231f20" stroke-linecap="round" stroke-linejoin="round" stroke-width=".5"/><path d="M231.984,147.561l38.172-3.649s1.263-.07,1.333-2.316l-.047-7.438" fill="none" stroke="#231f20" stroke-linecap="round" stroke-linejoin="round" stroke-width=".5"/><path d="M223.691,140.782l-11.689-5.286-59.11,4.714,11.853,7.64s.982.584.982,2.07l.121,29.99-12.837-10.31-.12-29.36" fill="none" stroke="#231f20" stroke-linecap="round" stroke-linejoin="round" stroke-width=".5"/><line x1="229.801" y1="161.103" x2="294.436" y2="154.072" fill="none" stroke="#231f20" stroke-linecap="round" stroke-linejoin="round" stroke-width=".5"/><path d="M149.859,168.434s2.337-.516,2.404-4.223" fill="none" stroke="#231f20" stroke-linecap="round" stroke-linejoin="round" stroke-width=".5"/><line x1="151.6" y1="121.4" x2="152.406" y2="170.238" fill="none" stroke="#231f20" stroke-linecap="round" stroke-linejoin="round" stroke-width=".5"/><path d="M148.039,119.703h-.809l.539,1.213.607,38.554,2.292,1.955s.472,4.92-.741,6.066" fill="none" stroke="#231f20" stroke-linecap="round" stroke-linejoin="round" stroke-width=".5"/><path d="M147.869,117.866l-.501-.401v-1.955l-.902-1.955v-2.456h.902c0,.15-.05-2.055-.05-2.055l.204.099,1.45.703v7.619l.899-1.711h3.198v2.035l-.872,2.118v1.059h-3.344v-.976l1.142-2.243-.062-1.994" fill="none" stroke="#231f20" stroke-linecap="round" stroke-linejoin="round" stroke-width=".5"/><polyline points="148.27 120.673 148.27 115.611 147.869 115.26" fill="none" stroke="#231f20" stroke-linecap="round" stroke-linejoin="round" stroke-width=".5"/><polyline points="147.522 108.894 149.924 108.894 151.729 109.69 151.729 115.46" fill="none" stroke="#231f20" stroke-linecap="round" stroke-linejoin="round" stroke-width=".5"/><line x1="148.972" y1="109.847" x2="151.729" y2="109.847" fill="none" stroke="#231f20" stroke-linecap="round" stroke-linejoin="round" stroke-width=".5"/><line x1="149.995" y1="117.748" x2="153.069" y2="117.748" fill="none" stroke="#231f20" stroke-linecap="round" stroke-linejoin="round" stroke-width=".5"/><line x1="148.853" y1="119.991" x2="152.197" y2="119.991" fill="none" stroke="#231f20" stroke-linecap="round" stroke-linejoin="round" stroke-width=".5"/><line x1="112.789" y1="123.904" x2="113.596" y2="174.585" fill="none" stroke="#231f20" stroke-linecap="round" stroke-linejoin="round" stroke-width=".5"/><path d="M109.229,122.207h-.809l.539,1.213,1.019,39.887,2.292,1.955s.59,4.963-.623,6.109" fill="none" stroke="#231f20" stroke-linecap="round" stroke-linejoin="round" stroke-width=".5"/><path d="M109.059,120.37l-.501-.401v-1.955l-.902-1.955v-2.456h.902c0,.15-.05-2.055-.05-2.055l.204.099,1.45.703v7.619l.899-1.711h3.198v2.035l-.872,2.118v1.059h-3.344v-.976l1.142-2.243-.062-1.994" fill="none" stroke="#231f20" stroke-linecap="round" stroke-linejoin="round" stroke-width=".5"/><polyline points="109.46 123.177 109.46 118.115 109.059 117.764" fill="none" stroke="#231f20" stroke-linecap="round" stroke-linejoin="round" stroke-width=".5"/><polyline points="108.711 111.398 111.114 111.398 112.918 112.194 112.918 117.964" fill="none" stroke="#231f20" stroke-linecap="round" stroke-linejoin="round" stroke-width=".5"/><line x1="110.161" y1="112.351" x2="112.918" y2="112.351" fill="none" stroke="#231f20" stroke-linecap="round" stroke-linejoin="round" stroke-width=".5"/><line x1="111.185" y1="120.252" x2="114.259" y2="120.252" fill="none" stroke="#231f20" stroke-linecap="round" stroke-linejoin="round" stroke-width=".5"/><line x1="110.043" y1="122.494" x2="113.386" y2="122.494" fill="none" stroke="#231f20" stroke-linecap="round" stroke-linejoin="round" stroke-width=".5"/><line x1="92.14" y1="125.572" x2="93.809" y2="176.815" fill="none" stroke="#231f20" stroke-linecap="round" stroke-linejoin="round" stroke-width=".5"/><path d="M88.629,123.938l-.791.023.549,1.225,1.289,39.406,2.275,1.934s.962,5.406-.204,6.612" fill="none" stroke="#231f20" stroke-linecap="round" stroke-linejoin="round" stroke-width=".5"/><path d="M88.429,122.064l-.497-.396-.035-1.999-.917-1.973-.044-2.511.882-.025c.003.154-.086-2.1-.086-2.1l.201.095,1.43.678.138,7.79.848-1.775,3.126-.09.037,2.081-.814,2.191.019,1.083-3.268.094-.018-.998,1.076-2.326-.097-2.037" fill="none" stroke="#231f20" stroke-linecap="round" stroke-linejoin="round" stroke-width=".5"/><polyline points="88.872 124.923 88.781 119.746 88.382 119.399" fill="none" stroke="#231f20" stroke-linecap="round" stroke-linejoin="round" stroke-width=".5"/><polyline points="87.928 112.899 90.276 112.832 92.054 113.594 92.158 119.495" fill="none" stroke="#231f20" stroke-linecap="round" stroke-linejoin="round" stroke-width=".5"/><line x1="89.362" y1="113.832" x2="92.057" y2="113.755" fill="none" stroke="#231f20" stroke-linecap="round" stroke-linejoin="round" stroke-width=".5"/><line x1="90.506" y1="121.883" x2="93.51" y2="121.796" fill="none" stroke="#231f20" stroke-linecap="round" stroke-linejoin="round" stroke-width=".5"/><line x1="89.43" y1="124.208" x2="92.698" y2="124.114" fill="none" stroke="#231f20" stroke-linecap="round" stroke-linejoin="round" stroke-width=".5"/><polyline points="70.946 126.479 73.02 177.163 74.424 178.766" fill="none" stroke="#231f20" stroke-linecap="round" stroke-linejoin="round" stroke-width=".5"/><polyline points="67.432 124.843 66.644 124.866 67.201 126.094 68.809 167.271 71.094 169.209 71.094 179.17" fill="none" stroke="#231f20" stroke-linecap="round" stroke-linejoin="round" stroke-width=".5"/><path d="M67.218,122.964l-.499-.397-.052-2.004-.931-1.978-.065-2.518.879-.026c.004.154-.103-2.106-.103-2.106l.202.096,1.432.679.201,7.812.831-1.781,3.117-.093.054,2.087-.794,2.197.028,1.086-3.258.098-.026-1.001,1.054-2.333-.113-2.042" fill="none" stroke="#231f20" stroke-linecap="round" stroke-linejoin="round" stroke-width=".5"/><polyline points="67.682 125.83 67.549 120.64 67.149 120.292" fill="none" stroke="#231f20" stroke-linecap="round" stroke-linejoin="round" stroke-width=".5"/><polyline points="66.643 113.775 68.984 113.705 70.763 114.468 70.915 120.385" fill="none" stroke="#231f20" stroke-linecap="round" stroke-linejoin="round" stroke-width=".5"/><line x1="68.081" y1="114.709" x2="70.767" y2="114.629" fill="none" stroke="#231f20" stroke-linecap="round" stroke-linejoin="round" stroke-width=".5"/><line x1="69.287" y1="122.781" x2="72.282" y2="122.691" fill="none" stroke="#231f20" stroke-linecap="round" stroke-linejoin="round" stroke-width=".5"/><line x1="68.233" y1="125.114" x2="71.491" y2="125.016" fill="none" stroke="#231f20" stroke-linecap="round" stroke-linejoin="round" stroke-width=".5"/><line x1="111.563" y1="165.179" x2="111.73" y2="174.987" fill="none" stroke="#231f20" stroke-linecap="round" stroke-linejoin="round" stroke-width=".5"/><line x1="91.448" y1="166.301" x2="91.615" y2="177.106" fill="none" stroke="#231f20" stroke-linecap="round" stroke-linejoin="round" stroke-width=".5"/><polyline points="107.708 109.298 109.522 110.931 90.012 111.902 88.265 110.232" fill="none" stroke="#231f20" stroke-linecap="round" stroke-linejoin="round" stroke-width=".5"/><polyline points="146.525 107.123 148.294 108.479 110.74 110.56 109.038 109.168" fill="none" stroke="#231f20" stroke-linecap="round" stroke-linejoin="round" stroke-width=".5"/><polyline points="67.882 111.563 69.301 113.041 88.829 112.045 87.238 110.421" fill="none" stroke="#231f20" stroke-linecap="round" stroke-linejoin="round" stroke-width=".5"/><polyline points="66.558 111.683 68.039 113.163 48.823 114.197 48.012 112.513 51.829 180.175" fill="none" stroke="#231f20" stroke-linecap="round" stroke-linejoin="round" stroke-width=".5"/><line x1="149.706" y1="160.748" x2="149.706" y2="170.716" fill="none" stroke="#231f20" stroke-linecap="round" stroke-linejoin="round" stroke-width=".5"/><line x1="35.085" y1="118.048" x2="39.134" y2="181.347" fill="none" stroke="#231f20" stroke-linecap="round" stroke-linejoin="round" stroke-width=".5"/><line x1="217.335" y1="103.169" x2="217.335" y2="133.924" fill="none" stroke="#231f20" stroke-linecap="round" stroke-linejoin="round" stroke-width=".5"/><line x1="208.58" y1="129.97" x2="208.58" y2="134.737" fill="none" stroke="#231f20" stroke-linecap="round" stroke-linejoin="round" stroke-width=".5"/><line x1="208.58" y1="103.982" x2="208.58" y2="115.368" fill="none" stroke="#231f20" stroke-linecap="round" stroke-linejoin="round" stroke-width=".5"/><path d="M156.912,139.788c-2.816-.343-3.299-2.608-3.299-2.608l-.195-26.856s-.343-3.777,4.808-3.984" fill="none" stroke="#231f20" stroke-linecap="round" stroke-linejoin="round" stroke-width=".5"/><path d="M186.798,106.271s-.962-1.305-3.434-1.305" fill="none" stroke="#231f20" stroke-linecap="round" stroke-linejoin="round" stroke-width=".5"/><path d="M157.402,113.346l5.563-5.563,5.563-.549s1.03.824.962,2.404l-.481.549s-4.876.343-8.448,5.907l-2.198-.893s-1.168-1.099-.962-1.854Z" fill="none" stroke="#231f20" stroke-linecap="round" stroke-linejoin="round" stroke-width=".5"/><path d="M170.726,109.912s-.137-2.266-.618-2.679l5.907-.206,5.975,5.22s-1.58,2.473-2.473,2.541c0,0-2.953-4.739-8.791-4.876Z" fill="none" stroke="#231f20" stroke-linecap="round" stroke-linejoin="round" stroke-width=".5"/><path d="M187.141,131.477s14.011-.962,14.972-1.099.893-.893.893-.893l.206-22.596c0-1.099-1.099-1.099-1.099-1.099l-16.038.807s-.715-.191-.715.811v11.825" fill="none" stroke="#231f20" stroke-linecap="round" stroke-linejoin="round" stroke-width=".5"/><path d="M154.792,118.703s-.412-2.404,1.305-3.365l1.992,1.03,1.923.687,3.091,1.717s-1.374,3.915.275,7.074c0,0-3.915,3.091-5.151,3.091" fill="none" stroke="#231f20" stroke-linecap="round" stroke-linejoin="round" stroke-width=".5"/><path d="M161.592,116.505l2.404,1.236s1.58-3.022,5.288-3.777l.069-2.541s-3.777-.618-7.761,5.082Z" fill="none" stroke="#231f20" stroke-linecap="round" stroke-linejoin="round" stroke-width=".5"/><path d="M170.795,113.964s3.434,0,5.769,2.885l1.992-1.374s-3.091-4.19-7.761-4.258v2.747Z" fill="none" stroke="#231f20" stroke-linecap="round" stroke-linejoin="round" stroke-width=".5"/><path d="M163.996,127.082l-2.06,1.648s2.198,3.915,7.761,3.846l-.137-2.679s-2.679.137-5.563-2.816Z" fill="none" stroke="#231f20" stroke-linecap="round" stroke-linejoin="round" stroke-width=".5"/><path d="M170.795,129.898l.275,2.473s5.014-.275,7.624-5.22l-2.06-1.03s-2.129,3.297-5.838,3.777Z" fill="none" stroke="#231f20" stroke-linecap="round" stroke-linejoin="round" stroke-width=".5"/><path d="M183.274,127.188l-.108.415-.486.486-.918-.756-.918-.378c-.918-.432-3.458-2.107-3.458-2.107,1.783-3.35-.108-6.862-.108-6.862,0,0,3.08-1.081,4.214-3.512,0,0,1.243-.54,1.513-1.027,0,0,.973.054,1.027,1.135v2.269" fill="none" stroke="#231f20" stroke-linecap="round" stroke-linejoin="round" stroke-width=".5"/><path d="M188.407,113.826l3.836-4.43,6.429-.486s1.837.378,1.837,3.296-.108,12.805-.108,12.805c0,0-.108,2.377-1.837,2.701s-6.429.702-6.429.702l-3.836-3.674.108-10.914Z" fill="none" stroke="#231f20" stroke-linecap="round" stroke-linejoin="round" stroke-width=".5"/><path d="M189.757,126.036l3.404-.162s2.107-.648,2.215-2.755l.054-13.885" fill="none" stroke="#231f20" stroke-linecap="round" stroke-linejoin="round" stroke-width=".5"/><path d="M177.493,134.464c2.972-2.647,4.484-5.403,4.484-5.403-.702-.864-2.377-1.135-2.377-1.135-3.458,5.403-8.644,5.835-8.644,5.835,0,0,.486.594-.324,1.351" fill="none" stroke="#231f20" stroke-linecap="round" stroke-linejoin="round" stroke-width=".5"/><path d="M169.389,135.005c.648-.702-.054-1.243-.054-1.243-5.133.27-8.644-4.484-8.644-4.484l-2.377.918" fill="none" stroke="#231f20" stroke-linecap="round" stroke-linejoin="round" stroke-width=".5"/><path d="M156.854,130.899l2.323-.054.27,3.782s.27,1.405,1.729,1.297,23.124-1.945,23.124-1.945c0,0,.756.162.702-1.189s-.216-3.674-.216-3.674l1.945-.054.378,4.268s.54,2.323-1.513,3.026l-26.149,2.161s-2.161-.216-2.377-2.539l-.216-5.079Z" fill="none" stroke="#231f20" stroke-linecap="round" stroke-linejoin="round" stroke-width=".5"/><path d="M156.854,130.899l-1.621.648.054,4.268s.378,3.35,4.16,2.701" fill="none" stroke="#231f20" stroke-linecap="round" stroke-linejoin="round" stroke-width=".5"/><polyline points="183.058 133.816 182.842 129.602 184.787 129.116" fill="none" stroke="#231f20" stroke-linecap="round" stroke-linejoin="round" stroke-width=".5"/><path d="M154.963,119.229v7.456s2.053,1.081,2.269-2.593c0,0,.324-4.863-2.269-4.863Z" fill="none" stroke="#231f20" stroke-linecap="round" stroke-linejoin="round" stroke-width=".5"/><path d="M156.809,119.931c2.266-.259,1.776,5.062,1.776,5.062l-1.167.076v2.125l-.361.882v2.726" fill="none" stroke="#231f20" stroke-linecap="round" stroke-linejoin="round" stroke-width=".5"/><polyline points="158.38 125.27 158.38 127.194 158.02 128.076 158.02 130.801" fill="none" stroke="#231f20" stroke-linecap="round" stroke-linejoin="round" stroke-width=".5"/><polyline points="156.296 126.632 156.296 127.434 155.935 128.316 155.935 131.042" fill="none" stroke="#231f20" stroke-linecap="round" stroke-linejoin="round" stroke-width=".5"/><path d="M182.772,126.352l1.56-.167-.167-2.423.446-.529v-3.231s-.557-1.671-1.699-1.504c0,0-.975.111-1.058,1.922v2.757l.696.863.223,2.312Z" fill="none" stroke="#231f20" stroke-linecap="round" stroke-linejoin="round" stroke-width=".5"/><path d="M184.527,126.102l.14-.065.612-.286-.167-2.128.446-.529v-3.231s-.557-1.671-1.699-1.504l-.947.139" fill="none" stroke="#231f20" stroke-linecap="round" stroke-linejoin="round" stroke-width=".5"/><polyline points="183.387 126.349 183.387 127.912 183.886 128.544 183.886 129.143" fill="none" stroke="#231f20" stroke-linecap="round" stroke-linejoin="round" stroke-width=".5"/><polyline points="184.318 126.083 184.318 127.646 184.817 128.278 184.817 128.877" fill="none" stroke="#231f20" stroke-linecap="round" stroke-linejoin="round" stroke-width=".5"/><polyline points="185.216 125.817 185.216 127.38 185.715 128.012 185.715 128.611" fill="none" stroke="#231f20" stroke-linecap="round" stroke-linejoin="round" stroke-width=".5"/><ellipse cx="183.208" cy="121.399" rx=".51" ry="1.391" fill="none" stroke="#231f20" stroke-linecap="round" stroke-linejoin="round" stroke-width=".5"/><ellipse cx="155.968" cy="122.981" rx=".51" ry="1.391" fill="none" stroke="#231f20" stroke-linecap="round" stroke-linejoin="round" stroke-width=".5"/><ellipse cx="182.277" cy="108.341" rx="2.435" ry="2.345" transform="translate(5.404 225.295) rotate(-64.2)" fill="none" stroke="#231f20" stroke-linecap="round" stroke-linejoin="round" stroke-width=".5"/><line x1="182.404" y1="106.788" x2="182.404" y2="109.792" fill="none" stroke="#231f20" stroke-linecap="round" stroke-linejoin="round" stroke-width=".5"/><line x1="181.116" y1="108.457" x2="183.596" y2="108.266" fill="none" stroke="#231f20" stroke-linecap="round" stroke-linejoin="round" stroke-width=".5"/><ellipse cx="156.852" cy="109.792" rx="2.244" ry="2.116" transform="translate(10.35 233.056) rotate(-75.068)" fill="none" stroke="#231f20" stroke-linecap="round" stroke-linejoin="round" stroke-width=".5"/><line x1="156.965" y1="108.356" x2="156.965" y2="111.134" fill="none" stroke="#231f20" stroke-linecap="round" stroke-linejoin="round" stroke-width=".5"/><line x1="155.808" y1="109.9" x2="158.037" y2="109.723" fill="none" stroke="#231f20" stroke-linecap="round" stroke-linejoin="round" stroke-width=".5"/><path d="M183.06,118.249v-1.482s1.688.124,2.017,1.935" fill="none" stroke="#231f20" stroke-linecap="round" stroke-linejoin="round" stroke-width=".5"/><path d="M188.412,116.723l2.606,1.249s1.458.865-.309,1.441l-2.253-1.009" fill="none" stroke="#231f20" stroke-linecap="round" stroke-linejoin="round" stroke-width=".5"/><path d="M188.456,115.57l4.329,2.066s1.458.865-.309,1.441l-1.634.336" fill="none" stroke="#231f20" stroke-linecap="round" stroke-linejoin="round" stroke-width=".5"/><path d="M192.741,124.183l1.634-.336c1.767-.576.309-1.441.309-1.441l-2.606-1.27-2.429.177,3.269,1.43s1.458.865-.309,1.441l-3.004-1.369v-1.06" fill="none" stroke="#231f20" stroke-linecap="round" stroke-linejoin="round" stroke-width=".5"/><path d="M190.995,110.888l1.878.9s1.458.865-.309,1.441l-2.253-1.009" fill="none" stroke="#231f20" stroke-linecap="round" stroke-linejoin="round" stroke-width=".5"/><path d="M191.685,110.041l2.956,1.41s1.458.865-.309,1.441l-1.634.336" fill="none" stroke="#231f20" stroke-linecap="round" stroke-linejoin="round" stroke-width=".5"/><path d="M206.587,113.496l.18-8.08s-.283-.921-2.126-.85l-18.776.992" fill="none" stroke="#231f20" stroke-linecap="round" stroke-linejoin="round" stroke-width=".5"/><polyline points="186.928 135.529 206.129 134.041 206.238 129.602" fill="none" stroke="#231f20" stroke-linecap="round" stroke-linejoin="round" stroke-width=".5"/><path d="M203.188,127.517l6.071,2.76s1.962.797,2.576-.797v-11.591s.368-1.288-1.472-1.84l-5.397-1.901s-1.472-.184-1.717.613" fill="none" stroke="#231f20" stroke-linecap="round" stroke-linejoin="round" stroke-width=".5"/><path d="M203.924,115.804l4.354,1.717s.981-.061.981,1.41v10.119" fill="none" stroke="#231f20" stroke-linecap="round" stroke-linejoin="round" stroke-width=".5"/><line x1="204.292" y1="118.747" x2="204.292" y2="124.328" fill="none" stroke="#231f20" stroke-linecap="round" stroke-linejoin="round" stroke-width=".5"/><line x1="205.211" y1="119.176" x2="205.211" y2="124.757" fill="none" stroke="#231f20" stroke-linecap="round" stroke-linejoin="round" stroke-width=".5"/><line x1="206.131" y1="119.606" x2="206.131" y2="125.186" fill="none" stroke="#231f20" stroke-linecap="round" stroke-linejoin="round" stroke-width=".5"/><ellipse cx="204.832" cy="111.036" rx="1.004" ry=".77" transform="translate(76.597 305.563) rotate(-85.068)" fill="none" stroke="#231f20" stroke-linecap="round" stroke-linejoin="round" stroke-width=".5"/><path d="M221.461,132.889c-2.555-.331-2.85-2.38-2.85-2.38l.198-24.158s-.283-3.412,4.397-3.56" fill="none" stroke="#231f20" stroke-linecap="round" stroke-linejoin="round" stroke-width=".5"/><path d="M222.405,109.647l5.095-4.98,5.057-.454s.929.752.855,2.177l-.441.492s-4.432.273-7.717,5.268l-1.989-.822s-1.052-1.001-.859-1.681Z" fill="none" stroke="#231f20" stroke-linecap="round" stroke-linejoin="round" stroke-width=".5"/><path d="M234.532,106.648s-.108-2.047-.541-2.422l5.366-.142,5.387,4.757s-1.453,2.22-2.265,2.275c0,0-2.646-4.3-7.948-4.468Z" fill="none" stroke="#231f20" stroke-linecap="round" stroke-linejoin="round" stroke-width=".5"/><path d="M249.278,126.238s12.733-.762,13.607-.879.818-.799.818-.799l.358-20.395c.008-.992-.99-1-.99-1l-14.573.607s-.648-.178-.656.726-.09,10.674-.09,10.674" fill="none" stroke="#231f20" stroke-linecap="round" stroke-linejoin="round" stroke-width=".5"/><path d="M219.994,114.463s-.356-2.173,1.211-3.028l1.801.945,1.741.634,2.794,1.573s-1.277,3.523.196,6.388c0,0-3.579,2.76-4.702,2.751" fill="none" stroke="#231f20" stroke-linecap="round" stroke-linejoin="round" stroke-width=".5"/><path d="M226.186,112.531l2.174,1.134s1.458-2.716,4.832-3.37l.082-2.293s-3.426-.586-7.087,4.529Z" fill="none" stroke="#231f20" stroke-linecap="round" stroke-linejoin="round" stroke-width=".5"/><path d="M234.564,110.306s3.119.026,5.218,2.647l1.819-1.225s-2.775-3.805-7.017-3.902l-.021,2.48Z" fill="none" stroke="#231f20" stroke-linecap="round" stroke-linejoin="round" stroke-width=".5"/><path d="M228.289,122.096l-1.884,1.472s1.966,3.55,7.02,3.53l-.104-2.419s-2.434.104-5.031-2.584Z" fill="none" stroke="#231f20" stroke-linecap="round" stroke-linejoin="round" stroke-width=".5"/><path d="M234.443,124.689l.231,2.234s4.556-.21,6.964-4.654l-1.864-.945s-1.959,2.96-5.331,3.366Z" fill="none" stroke="#231f20" stroke-linecap="round" stroke-linejoin="round" stroke-width=".5"/><path d="M245.798,122.337l-.101.374-.445.435-.828-.69-.831-.348c-.831-.397-3.125-1.928-3.125-1.928,1.645-3.01-.046-6.194-.046-6.194,0,0,2.805-.952,3.854-3.138,0,0,1.133-.478,1.382-.915,0,0,.883.056.924,1.032l-.017,2.048" fill="none" stroke="#231f20" stroke-linecap="round" stroke-linejoin="round" stroke-width=".5"/><path d="M250.561,110.314l3.518-3.97,5.843-.391s1.666.355,1.643,2.989c-.022,2.633-.195,11.557-.195,11.557,0,0-.116,2.145-1.689,2.425s-5.845.586-5.845.586l-3.456-3.345.181-9.85Z" fill="none" stroke="#231f20" stroke-linecap="round" stroke-linejoin="round" stroke-width=".5"/><path d="M251.695,121.346l3.093-.121s1.919-.569,2.033-2.471l.154-12.533" fill="none" stroke="#231f20" stroke-linecap="round" stroke-linejoin="round" stroke-width=".5"/><path d="M240.492,128.862c2.719-2.367,4.114-4.843,4.114-4.843-.631-.786-2.15-1.042-2.15-1.042-3.181,4.851-7.895,5.202-7.895,5.202,0,0,.437.54-.305,1.217" fill="none" stroke="#231f20" stroke-linecap="round" stroke-linejoin="round" stroke-width=".5"/><path d="M233.127,129.288c.594-.629-.04-1.122-.04-1.122-4.664.205-7.817-4.113-7.817-4.113l-2.166.811" fill="none" stroke="#231f20" stroke-linecap="round" stroke-linejoin="round" stroke-width=".5"/><path d="M221.774,125.487l2.11-.031.217,3.416s.235,1.27,1.56,1.183,21.017-1.582,21.017-1.582c0,0,.686.152.647-1.068s-.168-3.318-.168-3.318l1.767-.034.311,3.856s.473,2.101-1.397,2.72l-23.766,1.754s-1.961-.211-2.14-2.31l-.158-4.586Z" fill="none" stroke="#231f20" stroke-linecap="round" stroke-linejoin="round" stroke-width=".5"/><path d="M221.774,125.487l-1.477.573.017,3.853s.318,3.026,3.758,2.47" fill="none" stroke="#231f20" stroke-linecap="round" stroke-linejoin="round" stroke-width=".5"/><polyline points="245.551 128.318 245.387 124.513 247.157 124.088" fill="none" stroke="#231f20" stroke-linecap="round" stroke-linejoin="round" stroke-width=".5"/><path d="M220.145,114.939l-.056,6.73s1.856.991,2.081-2.324c0,0,.331-4.387-2.024-4.406Z" fill="none" stroke="#231f20" stroke-linecap="round" stroke-linejoin="round" stroke-width=".5"/><path d="M221.816,115.587c2.06-.216,1.575,4.583,1.575,4.583l-1.06.06-.016,1.918-.334.793-.021,2.46" fill="none" stroke="#231f20" stroke-linecap="round" stroke-linejoin="round" stroke-width=".5"/><polyline points="223.203 120.418 223.188 122.155 222.854 122.948 222.833 125.409" fill="none" stroke="#231f20" stroke-linecap="round" stroke-linejoin="round" stroke-width=".5"/><polyline points="221.299 121.632 221.293 122.356 220.959 123.149 220.938 125.61" fill="none" stroke="#231f20" stroke-linecap="round" stroke-linejoin="round" stroke-width=".5"/><path d="M245.348,121.579l1.418-.139-.133-2.188.409-.474.024-2.916s-.493-1.513-1.532-1.37c0,0-.886.093-.976,1.727l-.021,2.489.626.785.185,2.088Z" fill="none" stroke="#231f20" stroke-linecap="round" stroke-linejoin="round" stroke-width=".5"/><path d="M246.944,121.366l.127-.058.558-.253-.136-1.922.409-.474.024-2.916s-.493-1.513-1.532-1.37l-.861.119" fill="none" stroke="#231f20" stroke-linecap="round" stroke-linejoin="round" stroke-width=".5"/><polyline points="245.907 121.581 245.895 122.992 246.343 123.566 246.339 124.106" fill="none" stroke="#231f20" stroke-linecap="round" stroke-linejoin="round" stroke-width=".5"/><polyline points="246.754 121.348 246.743 122.759 247.191 123.333 247.186 123.873" fill="none" stroke="#231f20" stroke-linecap="round" stroke-linejoin="round" stroke-width=".5"/><polyline points="247.572 121.114 247.56 122.525 248.008 123.099 248.004 123.64" fill="none" stroke="#231f20" stroke-linecap="round" stroke-linejoin="round" stroke-width=".5"/><ellipse cx="245.782" cy="117.111" rx="1.255" ry=".463" transform="translate(126.609 361.899) rotate(-89.518)" fill="none" stroke="#231f20" stroke-linecap="round" stroke-linejoin="round" stroke-width=".5"/><ellipse cx="221.029" cy="118.334" rx="1.255" ry=".463" transform="translate(100.841 338.361) rotate(-89.518)" fill="none" stroke="#231f20" stroke-linecap="round" stroke-linejoin="round" stroke-width=".5"/><ellipse cx="244.641" cy="104.676" rx="2.201" ry="2.127" transform="translate(30.525 262.666) rotate(-59.587)" fill="none" stroke="#231f20" stroke-linecap="round" stroke-linejoin="round" stroke-width=".5"/><line x1="244.768" y1="103.276" x2="244.745" y2="105.988" fill="none" stroke="#231f20" stroke-linecap="round" stroke-linejoin="round" stroke-width=".5"/><ellipse cx="222.178" cy="105.894" rx="2.027" ry="1.921" transform="translate(55.642 287.118) rotate(-72.902)" fill="none" stroke="#231f20" stroke-linecap="round" stroke-linejoin="round" stroke-width=".5"/><line x1="222.292" y1="104.599" x2="222.271" y2="107.106" fill="none" stroke="#231f20" stroke-linecap="round" stroke-linejoin="round" stroke-width=".5"/><line x1="221.229" y1="105.983" x2="223.256" y2="105.841" fill="none" stroke="#231f20" stroke-linecap="round" stroke-linejoin="round" stroke-width=".5"/><path d="M245.671,114.267l.011-1.338s1.532.124,1.817,1.762" fill="none" stroke="#231f20" stroke-linecap="round" stroke-linejoin="round" stroke-width=".5"/><path d="M250.544,112.929l2.358,1.147s1.317.791-.292,1.298l-2.038-.928" fill="none" stroke="#231f20" stroke-linecap="round" stroke-linejoin="round" stroke-width=".5"/><path d="M250.593,111.889l3.916,1.897s1.317.791-.292,1.298l-1.487.291" fill="none" stroke="#231f20" stroke-linecap="round" stroke-linejoin="round" stroke-width=".5"/><path d="M254.419,119.696l1.487-.291c1.609-.507.292-1.298.292-1.298l-2.357-1.166-2.208.141,2.958,1.315s1.317.791-.292,1.298l-2.718-1.259.008-.957" fill="none" stroke="#231f20" stroke-linecap="round" stroke-linejoin="round" stroke-width=".5"/><path d="M252.934,107.682l1.699.827s1.317.791-.292,1.298l-2.038-.928" fill="none" stroke="#231f20" stroke-linecap="round" stroke-linejoin="round" stroke-width=".5"/><path d="M253.566,106.923l2.674,1.295s1.317.791-.292,1.298l-1.487.291" fill="none" stroke="#231f20" stroke-linecap="round" stroke-linejoin="round" stroke-width=".5"/><path d="M267.075,110.153l.225-7.292s-.25-.834-1.924-.783l-17.061.754" fill="none" stroke="#231f20" stroke-linecap="round" stroke-linejoin="round" stroke-width=".5"/><polyline points="249.054 129.893 266.504 128.695 266.637 124.689" fill="none" stroke="#231f20" stroke-linecap="round" stroke-linejoin="round" stroke-width=".5"/><path d="M263.882,122.784l7.31,2.565s1.776.734,2.345-.7l.088-11.035s.344-1.16-1.323-1.672l-6.704-1.785s-1.335-.177-1.564.541" fill="none" stroke="#231f20" stroke-linecap="round" stroke-linejoin="round" stroke-width=".5"/><path d="M265.093,111.928l5.232,1.483s.892-.048.88,1.281l-.077,9.134" fill="none" stroke="#231f20" stroke-linecap="round" stroke-linejoin="round" stroke-width=".5"/><line x1="265.541" y1="114.616" x2="265.495" y2="120.082" fill="none" stroke="#231f20" stroke-linecap="round" stroke-linejoin="round" stroke-width=".5"/><line x1="266.373" y1="114.926" x2="266.327" y2="120.392" fill="none" stroke="#231f20" stroke-linecap="round" stroke-linejoin="round" stroke-width=".5"/><line x1="267.205" y1="115.237" x2="267.159" y2="120.702" fill="none" stroke="#231f20" stroke-linecap="round" stroke-linejoin="round" stroke-width=".5"/><ellipse cx="265.5" cy="107.919" rx=".906" ry=".7" transform="translate(132.448 361.758) rotate(-84.459)" fill="none" stroke="#231f20" stroke-linecap="round" stroke-linejoin="round" stroke-width=".5"/><path d="M244.529,101.573s3.554-.184,3.969,2.199" fill="none" stroke="#231f20" stroke-linecap="round" stroke-linejoin="round" stroke-width=".5"/><line x1="243.543" y1="104.726" x2="246.007" y2="104.628" fill="none" stroke="#231f20" stroke-linecap="round" stroke-linejoin="round" stroke-width=".5"/><line x1="268.547" y1="124.818" x2="268.547" y2="130.8" fill="none" stroke="#231f20" stroke-linecap="round" stroke-linejoin="round" stroke-width=".5"/><ellipse cx="115.91" cy="122.453" rx=".887" ry=".961" fill="#231f20"/><ellipse cx="96.225" cy="124.864" rx=".878" ry=".95" transform="translate(-4.786 3.839) rotate(-2.23)" fill="#231f20"/><ellipse cx="96.097" cy="121.592" rx=".878" ry=".95" transform="translate(-4.659 3.832) rotate(-2.23)" fill="#231f20"/><ellipse cx="97.82" cy="169.304" rx=".878" ry=".95" transform="translate(-11.578 7.24) rotate(-4.002)" fill="#231f20"/><ellipse cx="97.754" cy="166.046" rx=".878" ry=".95" transform="translate(-11.351 7.228) rotate(-4.002)" fill="#231f20"/><polygon points="149.744 110.887 150.884 110.852 150.361 112.023 149.744 110.887" fill="#231f20"/><polygon points="111.014 113.696 112.154 113.662 111.631 114.832 111.014 113.696" fill="#231f20"/><polygon points="90.254 114.959 91.393 114.924 90.871 116.094 90.254 114.959" fill="#231f20"/><polygon points="68.935 115.759 70.075 115.724 69.552 116.895 68.935 115.759" fill="#231f20"/><polyline points="153.42 170.531 47.692 181.972 45.253 144.298 39.157 144.664" fill="none" stroke="#231f20" stroke-linecap="round" stroke-linejoin="round" stroke-width=".5"/><g clip-path="url(#b)"><path d="M147.321,146.603c-7.189-6.461-14.94-13.897-21.886-20.698-2.399-2.335-4.875-4.588-7.31-6.884-.052-.049-.054-.131-.007-.184l8.137-9.18c.09-.102.249-.108.346-.013,7.015,6.637,14.341,13.564,21.106,20.38-7.148-6.408-14.458-13.367-21.44-20.03,0,0,.346-.013.346-.013l-8.301,9.032-.007-.183c2.419,2.313,4.797,4.67,7.252,6.945,7.091,6.589,15.169,14.008,21.763,20.828h0Z" fill="#231f20"/><path d="M147.203,152.186c-9.835-8.762-19.538-18.616-29.195-27.583,4.275-5.204,9.386-10.224,14.005-15.301.099-.104.264-.109.368-.01,2.572,2.436,5.118,4.899,7.654,7.372,2.472,2.466,5.297,5.003,7.561,7.471-5.237-4.772-10.428-9.595-15.572-14.467,0,0,.367-.011.367-.011-4.687,5.023-9.443,9.981-14.198,14.941l-.005-.184c2.418,2.314,4.798,4.668,7.253,6.944,7.092,6.587,15.167,14.011,21.763,20.828h0Z" fill="#231f20"/><path d="M147.263,157.591c-7.535-6.468-14.608-13.436-21.901-20.166,0,0-7.359-6.658-7.359-6.658-.085-.077-.09-.21-.009-.293,3.287-3.539,6.603-7.05,9.945-10.537,2.987-2.955,7.217-7.616,10.179-10.315-2.789,3.098-6.93,7.559-9.814,10.662-3.31,3.517-6.646,7.01-10.011,10.474l-.009-.292,7.21,6.82c7.204,6.749,14.984,13.327,21.771,20.306h0Z" fill="#231f20"/><path d="M147.657,163.795c-7.484-6.522-14.688-13.349-21.891-20.177,0,0-7.333-6.687-7.333-6.687-.061-.056-.064-.152-.009-.213,8.194-9.201,16.589-18.634,25.083-27.359-8.11,9.346-16.416,18.517-24.858,27.563,0,0-.009-.213-.009-.213l7.236,6.791c7.294,6.651,14.944,13.371,21.781,20.295h0Z" fill="#231f20"/><path d="M148.138,169.998c-7.277-6.427-15.185-13.78-22.258-20.513-2.43-2.325-4.919-4.588-7.405-6.854-.048-.043-.05-.119-.008-.167,6.857-7.796,13.704-15.602,20.718-23.258l7.018-7.653.006.141c-.007-.019-2.758-2.676-2.708-2.713.044-.054,2.814,2.567,2.848,2.566.04.037.041.101.006.141l-6.844,7.809c-6.783,7.553-14.134,16.102-20.874,22.959,9.581,9.069,20.299,18.301,29.501,27.541h0Z" fill="#231f20"/><path d="M144.161,171.764c-8.765-7.566-16.992-15.714-25.542-23.515,4.24-5.297,9.146-10.482,13.673-15.68,4.604-5.068,9.322-10.44,14.007-15.235-4.483,5.244-9.023,10.437-13.617,15.583-4.53,4.919-9.511,10.814-13.913,15.171,8.368,7.918,17.415,15.555,25.393,23.676h0Z" fill="#231f20"/><path d="M147.417,121.764c-8.968,10.915-19.009,21.713-28.186,32.501,0,0-.011-.205-.011-.205,3.225,2.93,11.455,10.419,14.532,13.293,0,0,4.798,4.48,4.798,4.48l-.328.019c3.278-3.689,6.483-7.52,9.822-11.117-3.047,3.853-6.333,7.608-9.476,11.414-.08.096-.222.108-.317.029-.008.005-4.841-4.445-4.85-4.445-3.069-2.811-11.246-10.505-14.381-13.456-.058-.053-.062-.145-.011-.205,9.453-10.488,18.825-22.183,28.407-32.307h0Z" fill="#231f20"/><path d="M134.826,170.101c1.749-2.6,4.198-4.562,6.133-6.995,1.959-2.401,4.008-4.817,6.335-6.844-1.785,2.531-3.947,4.823-6.131,7.027-2.211,2.116-3.965,5.032-6.337,6.812h0Z" fill="#231f20"/><path d="M147.46,127.638c-4.588,5.536-9.467,10.809-14.363,16.068-4.798,5.347-9.434,10.839-14.28,16.144,0,0-.017-.359-.017-.359,3.319,3.102,6.606,6.238,9.846,9.424.023.02-.012.058-.034.037-3.427-2.983-6.81-6.016-10.16-9.084-.102-.095-.109-.256-.017-.36,4.76-5.381,9.729-10.575,14.535-15.914,4.71-5.357,9.499-11.049,14.489-15.956h0Z" fill="#231f20"/><path d="M127.839,173.684c-3.135-2.694-6.205-5.46-9.229-8.277-.087-.08-.091-.216-.014-.304,2.412-2.648,4.924-5.205,7.295-7.889,6.856-7.77,14.502-16.653,21.678-23.855-6.661,7.912-14.457,16.361-21.55,23.97-2.428,2.633-4.714,5.394-7.102,8.064l-.014-.304c2.97,2.798,6.25,5.709,8.935,8.595h0Z" fill="#231f20"/><path d="M122.142,174.029c-1.19-1.01-2.369-2.031-3.531-3.07-.068-.061-.075-.165-.015-.234,2.339-2.71,4.718-5.384,7.196-7.97,7.241-7.921,14.024-16.254,21.555-23.915-2.046,2.71-4.67,5.486-6.952,8.18-4.698,5.398-9.759,10.469-14.415,15.903-2.297,2.745-4.692,5.402-7.127,8.023l-.011-.238c1.051,1.084,2.445,2.24,3.301,3.319h0Z" fill="#231f20"/><path d="M147.436,141.192c-5.171-4.345-9.807-9.254-14.742-13.848-5.007-4.517-9.967-9.085-14.741-13.849-.068-.061-.07-.17-.002-.232,1.009-.909,2.012-1.913,3.051-2.75-.869,1.019-1.891,1.993-2.826,2.98,0,0-.002-.232-.002-.232,5.023,4.501,9.859,9.199,14.648,13.947,4.791,4.671,10.229,9.096,14.613,13.984h0Z" fill="#231f20"/><path d="M120.83,110.192c4.761,3.92,8.867,8.525,13.456,12.626,4.578,4.112,9.052,8.332,13.302,12.788.022.021-.012.057-.034.036-4.669-4.016-9.114-8.266-13.456-12.626-4.262-4.37-9.35-8.305-13.268-12.824h0Z" fill="#231f20"/><path d="M147.346,145.062c-3.992,5.013-8.682,9.384-12.859,14.228-4.187,4.833-8.486,9.564-13.024,14.077-.02.022-.058-.011-.037-.034,4.09-4.922,8.419-9.626,12.859-14.228,4.452-4.522,8.453-9.863,13.061-14.043h0Z" fill="#231f20"/><path d="M130.462,168.623c2.485-3.325,5.662-6.004,8.331-9.16,2.694-3.125,5.474-6.261,8.531-9.007-2.518,3.259-5.416,6.268-8.33,9.193-2.941,2.834-5.437,6.481-8.532,8.974h0Z" fill="#231f20"/><path d="M126.692,172.693c.035-.452.318-.642.663-.799.351-.486.489-1.102,1.215-1.229.02-.005.04.013.037.034-.072.734-.675.918-1.133,1.306-.13.356-.298.654-.745.722-.02.004-.039-.014-.037-.034h0Z" fill="#231f20"/><path d="M143.229,171.715c.439-.886,1.132-1.523,1.883-2.117,1.03-1.187,1.864-2.655,3.283-3.42-.7,1.477-2.047,2.41-3.164,3.53-.527.733-1.187,1.715-2.002,2.007h0Z" fill="#231f20"/></g><polyline points="12.251 100.8 11.998 102.074 8.648 102.118 8.161 102.91 5.448 102.962 3.392 71.033 4.036 70.481 6.27 70.425 6.36 71.114 9.67 71.054 9.725 70.393 10.151 70.35 10.571 71.029" fill="none" stroke="#231f20" stroke-linecap="round" stroke-linejoin="round" stroke-width=".5"/><ellipse cx="7.399" cy="78.511" rx="1.547" ry="1.925" transform="translate(-71.186 85.079) rotate(-89.395)" fill="none" stroke="#231f20" stroke-linecap="round" stroke-linejoin="round" stroke-width=".5"/><ellipse cx="8.587" cy="95.195" rx="2.026" ry="2.266" transform="translate(-86.694 102.775) rotate(-89.395)" fill="none" stroke="#231f20" stroke-linecap="round" stroke-linejoin="round" stroke-width=".5"/><path d="M102.343,174.939l-.887.073c-.166.014-.303-.112-.303-.28v-.897c0-.168.136-.316.302-.33l.887-.073c.166-.014.303.112.303.28v.897c0,.168-.136.316-.302.33Z" fill="#231f20"/><path d="M82.775,177.006l-.887.073c-.166.014-.303-.112-.303-.28v-.897c0-.168.136-.316.302-.33l.887-.073c.166-.014.303.112.303.28v.897c0,.168-.136.316-.302.33Z" fill="#231f20"/><path d="M61.072,179.308l-.887.073c-.166.014-.303-.112-.303-.28v-.897c0-.168.136-.316.302-.33l.887-.073c.166-.014.303.112.303.28v.897c0,.168-.136.316-.302.33Z" fill="#231f20"/><path d="M340.067,149.841l-.887.073c-.166.014-.303-.112-.303-.28v-.897c0-.168.136-.316.302-.33l.887-.073c.166-.014.303.112.303.28v.897c0,.168-.136.316-.302.33Z" fill="#231f20"/><path d="M114.696,120.714l.115,3.458,3.706-.198-.216-6.533-3.706.198.009.26s.241.009.241.261l.009,2.191-.158.364Z" fill="#231f20"/><ellipse cx="116.626" cy="122.592" rx=".852" ry=".832" transform="translate(-46.163 168.746) rotate(-62.258)" fill="#fff"/><path d="M117.651,118.745l-.006-.19-.247.013c-.035-.073-.096-.129-.17-.16l-.008-.255-.188.01.007.221-.269.014-.007-.221-.188.01.007.221-.265.014-.007-.221-.188.01.007.221-.262.014-.007-.221-.188.01.008.248c-.077.038-.137.104-.168.184l-.247.013.006.19.218-.012.009.269-.218.012.006.19.218-.012.009.269-.218.012.006.19.218-.012.009.269-.218.012.006.19.25-.013c.036.072.096.128.171.158l.008.253.188-.01-.007-.221.269-.014.007.221.188-.01-.007-.221.265-.014.007.221.188-.01-.007-.221.262-.014.007.221.188-.01-.008-.251c.074-.037.131-.101.163-.178l.25-.013-.006-.19-.218.012-.009-.269.218-.012-.006-.19-.218.012-.009-.269.218-.012-.006-.19-.218.012-.009-.269.218-.012ZM116.447,119.816l-.152.008-.395-.588.02.608-.136.007-.027-.827.151-.008.393.589-.018-.61.136-.007.027.827ZM116.956,119.789l-.16.009-.299-.813.149-.008.226.644.19-.666.145-.008-.252.842Z" fill="#fff" stroke="#231f20" stroke-miterlimit="10" stroke-width=".02"/><polygon points="134.182 171.412 129.41 171.999 129.398 169.512 134.171 169.045 134.182 171.412" fill="#231f20"/><path d="M130.711,171.37c-.042.004-.076-.006-.103-.03-.026-.024-.039-.057-.04-.1,0-.041.013-.077.039-.107.026-.03.06-.048.102-.052s.076.006.102.032c.026.026.039.059.039.1,0,.043-.012.078-.038.107-.025.029-.059.046-.101.05ZM130.674,170.858c0-.023-.003-.06-.009-.113-.006-.053-.012-.11-.019-.172-.007-.061-.013-.12-.019-.177s-.01-.102-.011-.133c-.004-.063-.008-.121-.013-.173s-.007-.093-.007-.122c0-.053.01-.092.031-.116.021-.025.046-.039.076-.041.031-.003.056.006.077.027.02.02.031.057.031.11,0,.029-.001.07-.004.122-.003.052-.007.111-.012.177-.001.032-.004.077-.01.135s-.011.119-.017.181c-.006.062-.012.121-.017.175-.005.054-.007.092-.007.115l-.069.007Z" fill="#fff" stroke="#fff" stroke-miterlimit="10" stroke-width=".05"/><path d="M133.206,171.05l-.846.088c-.159.016-.288-.101-.289-.261v-.855c0-.16.13-.304.288-.321l.846-.088c.159-.016.288.101.289.261v.855c0,.16-.13.304-.288.321Z" fill="#fff"/><polygon points="331.764 124.976 326.935 125.336 327.38 116.066 332.223 115.77 331.764 124.976" fill="none" stroke="#231f20" stroke-linecap="round" stroke-linejoin="round" stroke-width=".5"/><polyline points="326.939 125.279 326.05 124.768 326.495 115.498 331.338 115.201 332.228 115.749" fill="none" stroke="#231f20" stroke-linecap="round" stroke-linejoin="round" stroke-width=".5"/><line x1="327.38" y1="116.066" x2="326.495" y2="115.498" fill="none" stroke="#231f20" stroke-linecap="round" stroke-linejoin="round" stroke-width=".5"/><polyline points="326.786 140.328 327.028 132.616 331.87 132.32 331.715 137.821" fill="none" stroke="#231f20" stroke-linecap="round" stroke-linejoin="round" stroke-width=".5"/><polyline points="325.851 140.881 326.143 132.048 330.986 131.751 331.876 132.299" fill="none" stroke="#231f20" stroke-linecap="round" stroke-linejoin="round" stroke-width=".5"/><line x1="327.028" y1="132.616" x2="326.143" y2="132.048" fill="none" stroke="#231f20" stroke-linecap="round" stroke-linejoin="round" stroke-width=".5"/><path d="M162.528,146.584v6.878s0,1.376-.963.688l-8.666-5.86" fill="none" stroke="#231f20" stroke-linecap="round" stroke-linejoin="round" stroke-width=".5"/><path d="M164.745,147.85s-.077-.292-.064-.639c.017-.476.201-1.057.98-1.13,1.346-.126,60.04-5.217,60.04-5.217l3.282,1.599s.631.084.673,1.557l-.463,27.643-61.004,7.573s-1.262.168-1.304-1.262l-.14-29.211s-.77-1.821-1.968-1.629" fill="none" stroke="#231f20" stroke-linecap="round" stroke-linejoin="round" stroke-width=".5"/><polyline points="165.848 179.911 166.317 180.286 229.175 172.84 229.192 171.663" fill="none" stroke="#231f20" stroke-linecap="round" stroke-linejoin="round" stroke-width=".5"/><line x1="167.763" y1="148.121" x2="227.505" y2="142.891" fill="none" stroke="#231f20" stroke-linecap="round" stroke-linejoin="round" stroke-width=".5"/><path d="M168.656,163.356c1.92-2.798,4.542-4.961,6.649-7.592,2.131-2.601,4.351-5.215,6.851-7.442-1.956,2.731-4.291,5.221-6.647,7.624-2.383,2.315-4.309,5.432-6.853,7.409h0Z" fill="#231f20"/><path d="M168.548,157.757c.744-1.278,1.752-2.318,2.817-3.315,1.551-1.851,2.889-3.976,4.843-5.424-1.2,2.135-3.088,3.742-4.721,5.53-.84,1.125-1.8,2.524-2.939,3.209h0Z" fill="#231f20"/><path d="M168.205,152.018c.133-.549.513-.838.954-1.091.511-.644.816-1.431,1.698-1.715.021-.009.044.013.036.034-.235.897-1.002,1.246-1.617,1.792-.227.454-.495.851-1.035,1.014-.021.008-.043-.013-.036-.034h0Z" fill="#231f20"/><path d="M168.722,169.474c2.78-3.859,6.272-7.094,9.24-10.788,2.995-3.665,6.075-7.344,9.444-10.642-2.814,3.794-6.017,7.349-9.238,10.822-3.251,3.381-6.032,7.564-9.447,10.609h0Z" fill="#231f20"/><path d="M168.926,175.214c3.663-4.789,8.032-8.947,11.882-13.57,3.861-4.612,7.834-9.124,12.05-13.422.02-.022.058.01.037.033-3.762,4.7-7.766,9.185-11.882,13.57-4.13,4.306-7.797,9.422-12.087,13.388h0Z" fill="#231f20"/><path d="M172.198,177.531c4.118-5.336,8.944-10.044,13.25-15.215,4.316-5.16,8.745-10.221,13.418-15.068.02-.023.058.01.038.033-4.217,5.248-8.677,10.281-13.25,15.215-4.586,4.854-8.707,10.519-13.455,15.034h0Z" fill="#231f20"/><path d="M178.208,176.195c4.119-5.278,8.944-9.923,13.25-15.035,4.317-5.101,8.746-10.101,13.417-14.886.02-.022.058.01.037.033-4.218,5.189-8.677,10.162-13.25,15.035-4.585,4.793-8.709,10.399-13.454,14.853h0Z" fill="#231f20"/><path d="M183.942,175.522c3.929-5.272,8.576-9.927,12.696-15.036,4.13-5.099,8.375-10.1,12.866-14.891.019-.023.058.009.038.032-4.029,5.185-8.305,10.16-12.696,15.036-4.405,4.797-8.332,10.398-12.904,14.859h0Z" fill="#231f20"/><path d="M189.628,174.66c3.916-5.188,8.547-9.753,12.652-14.778,4.116-5.014,8.346-9.929,12.821-14.631.02-.022.058.009.038.033-4.016,5.1-8.277,9.988-12.652,14.778-4.389,4.71-8.306,10.226-12.859,14.598h0Z" fill="#231f20"/><path d="M195.138,174.042c3.818-5.169,8.356-9.722,12.364-14.73,4.019-4.997,8.154-9.896,12.535-14.585.019-.023.058.009.038.032-3.918,5.082-8.084,9.955-12.364,14.73-4.295,4.695-8.11,10.193-12.573,14.552h0Z" fill="#231f20"/><path d="M200.672,173.176c3.821-5.145,8.36-9.673,12.37-14.656,4.022-4.972,8.158-9.847,12.54-14.511.019-.023.058.009.038.032-3.921,5.058-8.088,9.906-12.37,14.656-4.296,4.671-8.115,10.144-12.579,14.479h0Z" fill="#231f20"/><path d="M205.984,172.601c3.331-4.696,7.389-8.786,10.912-13.323,3.534-4.527,7.184-8.957,11.084-13.18.019-.023.058.008.038.032-3.432,4.611-7.114,9.015-10.912,13.323-3.813,4.229-7.138,9.253-11.123,13.148h0Z" fill="#231f20"/><path d="M211.062,172.122c2.06-3.131,4.842-5.65,7.093-8.621,2.277-2.941,4.642-5.898,7.3-8.478-2.097,3.066-4.583,5.902-7.09,8.654-2.538,2.663-4.593,6.115-7.303,8.445h0Z" fill="#231f20"/><path d="M216.377,171.484c1.602-2.609,3.93-4.608,5.725-7.057,1.82-2.419,3.73-4.856,5.932-6.914-1.642,2.542-3.669,4.859-5.722,7.089-2.083,2.143-3.679,5.069-5.935,6.882h0Z" fill="#231f20"/><path d="M221.124,170.804c.034-.507.341-.781.713-1.025.374-.608.526-1.33,1.307-1.618.02-.009.043.009.04.03-.073.829-.73,1.165-1.218,1.686-.138.423-.321.791-.802.957-.02.008-.043-.009-.04-.03h0Z" fill="#231f20"/><line x1="243.778" y1="157.19" x2="245.826" y2="154.569" fill="#231f20"/><path d="M243.758,157.175c.04-.507.35-.777.724-1.017.381-.603.541-1.325,1.324-1.604.02-.009.043.009.039.031-.082.828-.742,1.157-1.236,1.673-.142.421-.33.788-.812.948-.02.008-.042-.01-.039-.031h0Z" fill="#231f20"/><line x1="237.419" y1="150.684" x2="239.609" y2="148.341" fill="#231f20"/><path d="M237.401,150.667c.074-.491.396-.722.78-.917.416-.55.621-1.236,1.41-1.427.02-.007.042.013.036.034-.138.8-.807,1.051-1.328,1.503-.169.396-.378.734-.862.841-.02.006-.041-.013-.036-.034h0Z" fill="#231f20"/><path d="M168.621,152.749c4.209,3.249,7.777,7.196,11.817,10.63,4.029,3.444,7.957,7,11.667,10.795.022.02-.011.057-.034.037-4.119-3.347-8.019-6.933-11.817-10.63-3.719-3.709-8.254-6.967-11.633-10.832h0Z" fill="#231f20"/><path d="M171.313,149.332c4.692,3.7,8.742,8.098,13.265,11.983,4.512,3.895,8.922,7.902,13.114,12.148.022.02-.011.058-.034.037-4.601-3.798-8.984-7.835-13.265-11.983-4.201-4.16-9.22-7.87-13.08-12.185h0Z" fill="#231f20"/><path d="M176.944,148.918c4.618,3.625,8.596,7.948,13.046,11.759,4.439,3.821,8.776,7.753,12.895,11.924.022.02-.011.058-.034.037-4.528-3.723-8.838-7.685-13.046-11.759-4.128-4.085-9.074-7.72-12.861-11.961h0Z" fill="#231f20"/><path d="M182.723,148.252c4.588,3.647,8.532,7.987,12.951,11.818,4.408,3.841,8.713,7.792,12.799,11.982.022.02-.011.057-.034.037-4.498-3.744-8.775-7.725-12.951-11.818-4.096-4.103-9.011-7.761-12.765-12.019h0Z" fill="#231f20"/><path d="M188.357,148.04c4.526,3.572,8.408,7.84,12.765,11.596,4.346,3.767,8.589,7.645,12.613,11.761.022.02-.011.057-.034.037-4.435-3.669-8.651-7.577-12.765-11.596-4.034-4.03-8.887-7.613-12.579-11.798h0Z" fill="#231f20"/><path d="M193.786,147.629c4.45,3.468,8.26,7.633,12.542,11.286,4.271,3.663,8.44,7.437,12.391,11.451.022.02-.011.057-.034.037-4.36-3.565-8.502-7.37-12.542-11.286-3.961-3.928-8.738-7.404-12.358-11.488h0Z" fill="#231f20"/><path d="M199.23,146.561c4.209,3.249,7.777,7.196,11.817,10.63,4.029,3.444,7.957,7,11.667,10.795.022.02-.011.057-.034.037-4.119-3.347-8.019-6.933-11.817-10.63-3.719-3.709-8.254-6.967-11.633-10.832h0Z" fill="#231f20"/><path d="M204.282,146.189c3.566,2.629,6.494,5.958,9.893,8.772,3.368,2.84,6.749,5.766,9.743,8.974-3.5-2.662-6.755-5.708-9.926-8.771-3.08-3.091-6.969-5.726-9.71-8.976h0Z" fill="#231f20"/><path d="M209.871,145.64c2.907,2.029,5.178,4.759,7.918,6.974,2.709,2.24,5.433,4.568,7.767,7.176-2.84-2.064-5.438-4.508-7.95-6.972-2.423-2.491-5.65-4.527-7.735-7.178h0Z" fill="#231f20"/><path d="M215.569,145.171c2.382,1.609,4.117,3.91,6.33,5.703,2.181,1.816,4.376,3.723,6.176,5.902-2.313-1.646-4.382-3.662-6.362-5.701-1.893-2.064-4.59-3.683-6.144-5.903h0Z" fill="#231f20"/><path d="M220.667,144.573c1.109.631,1.973,1.519,2.794,2.464,1.562,1.355,3.402,2.505,4.551,4.254-1.852-1.014-3.163-2.697-4.66-4.134-.955-.722-2.174-1.572-2.685-2.584h0Z" fill="#231f20"/><line x1="237.201" y1="155.366" x2="243.795" y2="148.067" fill="#231f20"/><path d="M237.182,155.35c.619-1.102,1.496-1.96,2.431-2.775,1.336-1.551,2.468-3.38,4.199-4.519-.995,1.84-2.659,3.141-4.078,4.628-.711.948-1.548,2.161-2.552,2.666h0Z" fill="#231f20"/><line x1="239.566" y1="157.632" x2="245.959" y2="150.031" fill="#231f20"/><path d="M239.547,157.616c.587-1.132,1.441-2.03,2.354-2.886,1.293-1.613,2.372-3.496,4.074-4.711-.941,1.889-2.572,3.264-3.95,4.815-.685.982-1.486,2.233-2.478,2.782h0Z" fill="#231f20"/><line x1="237.553" y1="151.088" x2="243.392" y2="157.179" fill="#231f20"/><path d="M237.571,151.07c.934.571,1.606,1.38,2.23,2.245,1.25,1.233,2.792,2.284,3.601,3.881-1.561-.917-2.539-2.455-3.717-3.769-.775-.65-1.798-1.447-2.113-2.357h0Z" fill="#231f20"/><line x1="240.02" y1="148.621" x2="245.708" y2="154.309" fill="#231f20"/><path d="M240.037,148.604c.911.516,1.565,1.277,2.173,2.093,1.218,1.148,2.724,2.11,3.507,3.63-1.522-.827-2.474-2.284-3.622-3.516-.755-.598-1.757-1.34-2.058-2.208h0Z" fill="#231f20"/><path d="M226.093,144.025c.402-.019.543.215.654.512.059.072.146.113.243.143.392.114.68.345.748.821.003.02-.013.038-.033.037-.688-.004-.735-.49-1.066-.881-.306-.078-.555-.193-.58-.595-.002-.02.014-.037.033-.037h0Z" fill="#231f20"/><path d="M169.028,158.532c3.249,2.415,5.851,5.522,8.93,8.121,3.048,2.624,6.108,5.334,8.777,8.321-3.182-2.448-6.115-5.276-8.963-8.12-2.757-2.871-6.328-5.297-8.744-8.322h0Z" fill="#231f20"/><path d="M168.353,164.124c2.388,1.564,4.137,3.828,6.357,5.578,2.189,1.773,4.393,3.638,6.206,5.779-2.319-1.602-4.398-3.577-6.389-5.576-1.904-2.025-4.606-3.595-6.174-5.781h0Z" fill="#231f20"/><path d="M168.76,169.95c1.043.602,1.837,1.456,2.585,2.368,1.447,1.301,3.176,2.404,4.2,4.09-1.742-.967-2.932-2.59-4.312-3.973-.888-.69-2.035-1.513-2.474-2.486h0Z" fill="#231f20"/><path d="M168.871,175.73c.487.061.717.374.914.75.548.398,1.227.584,1.422,1.361.007.02-.012.042-.033.037-.793-.116-1.046-.772-1.497-1.278-.393-.157-.729-.355-.838-.833-.006-.02.013-.041.033-.037h0Z" fill="#231f20"/><ellipse cx="164.028" cy="155.804" rx=".596" ry="2.012" transform="translate(-6.565 7.217) rotate(-2.471)" fill="none" stroke="#231f20" stroke-linecap="round" stroke-linejoin="round" stroke-width=".5"/><ellipse cx="159.634" cy="148.835" rx=".734" ry="2.485" transform="translate(-6.269 7.021) rotate(-2.471)" fill="none" stroke="#231f20" stroke-linecap="round" stroke-linejoin="round" stroke-width=".5"/><ellipse cx="164.222" cy="174.911" rx=".596" ry="2.012" transform="translate(-7.715 7.578) rotate(-2.583)" fill="none" stroke="#231f20" stroke-linecap="round" stroke-linejoin="round" stroke-width=".5"/><path d="M225.6,166.558l-.424.022c-.36.018-.656-.255-.657-.607l-.002-.65c0-.352.293-.656.654-.674l.424-.022c.36-.018.656.255.657.607l.002.65c0,.352-.293.656-.654.674Z" fill="#231f20"/><line x1="244.173" y1="148.083" x2="245.803" y2="149.577" fill="#231f20"/><path d="M244.19,148.065c.403-.014.541.221.649.519.058.073.145.115.241.146.391.118.677.352.739.829.003.02-.014.038-.034.037-.688-.012-.73-.498-1.056-.892-.306-.082-.553-.199-.573-.601-.002-.02.014-.037.034-.037h0Z" fill="#231f20"/><line x1="237.112" y1="155.879" x2="238.971" y2="157.63" fill="#231f20"/><path d="M237.129,155.861c.433.02.6.287.736.616.46.335,1.022.421,1.123,1.135.004.02-.014.039-.034.036-.72-.059-.837-.614-1.2-1.053-.336-.115-.613-.267-.659-.697-.003-.02.014-.038.034-.036h0Z" fill="#231f20"/><polygon points="105.416 141.025 97.772 141.654 97.393 128.415 105.082 127.823 105.416 141.025" fill="none" stroke="#231f20" stroke-linecap="round" stroke-linejoin="round" stroke-width=".53"/><polyline points="97.773 141.669 96.596 140.894 96.216 127.656 103.607 127.092 105.089 127.793" fill="none" stroke="#231f20" stroke-linecap="round" stroke-linejoin="round" stroke-width=".53"/><line x1="97.387" y1="128.33" x2="96.364" y2="127.736" fill="none" stroke="#231f20" stroke-linecap="round" stroke-linejoin="round" stroke-width=".5"/><polygon points="106.236 162.536 98.593 163.169 98.213 149.931 105.902 149.339 106.236 162.536" fill="none" stroke="#231f20" stroke-linecap="round" stroke-linejoin="round" stroke-width=".53"/><polyline points="98.594 163.184 97.416 162.409 97.037 149.171 104.427 148.607 105.909 149.308" fill="none" stroke="#231f20" stroke-linecap="round" stroke-linejoin="round" stroke-width=".53"/><line x1="98.207" y1="149.845" x2="97.184" y2="149.251" fill="none" stroke="#231f20" stroke-linecap="round" stroke-linejoin="round" stroke-width=".5"/><ellipse cx="75.543" cy="126.185" rx=".877" ry=".951" transform="translate(-9.75 6.375) rotate(-4.54)" fill="#231f20"/><ellipse cx="75.396" cy="122.912" rx=".877" ry=".951" transform="translate(-9.492 6.353) rotate(-4.54)" fill="#231f20"/><ellipse cx="77.405" cy="170.625" rx=".877" ry=".951" transform="translate(-18.22 9.503) rotate(-6.287)" fill="#231f20"/><ellipse cx="77.32" cy="167.367" rx=".877" ry=".951" transform="translate(-17.864 9.474) rotate(-6.287)" fill="#231f20"/><polygon points="84.831 142.346 77.192 142.975 76.732 129.736 84.418 129.144 84.831 142.346" fill="none" stroke="#231f20" stroke-linecap="round" stroke-linejoin="round" stroke-width=".53"/><polyline points="77.192 142.99 76.011 142.215 75.551 128.976 82.939 128.413 84.425 129.114" fill="none" stroke="#231f20" stroke-linecap="round" stroke-linejoin="round" stroke-width=".53"/><line x1="76.726" y1="129.65" x2="75.699" y2="129.057" fill="none" stroke="#231f20" stroke-linecap="round" stroke-linejoin="round" stroke-width=".5"/><polygon points="85.781 163.856 78.141 164.49 77.682 151.251 85.367 150.659 85.781 163.856" fill="none" stroke="#231f20" stroke-linecap="round" stroke-linejoin="round" stroke-width=".53"/><polyline points="78.142 164.505 76.96 163.73 76.501 150.492 83.888 149.928 85.374 150.629" fill="none" stroke="#231f20" stroke-linecap="round" stroke-linejoin="round" stroke-width=".53"/><line x1="77.676" y1="151.166" x2="76.649" y2="150.572" fill="none" stroke="#231f20" stroke-linecap="round" stroke-linejoin="round" stroke-width=".5"/><ellipse cx="53.809" cy="127.642" rx=".879" ry=".948" transform="translate(-15.311 7.599) rotate(-7.075)" fill="#231f20"/><ellipse cx="53.642" cy="124.38" rx=".879" ry=".948" transform="translate(-14.911 7.554) rotate(-7.075)" fill="#231f20"/><ellipse cx="55.945" cy="171.947" rx=".879" ry=".949" transform="translate(-25.961 10.742) rotate(-8.911)" fill="#231f20"/><ellipse cx="55.84" cy="168.699" rx=".879" ry=".949" transform="translate(-25.459 10.686) rotate(-8.911)" fill="#231f20"/><polygon points="63.223 143.748 55.564 144.38 55.024 131.182 62.729 130.586 63.223 143.748" fill="none" stroke="#231f20" stroke-linecap="round" stroke-linejoin="round" stroke-width=".53"/><polyline points="55.565 144.395 54.375 143.624 53.835 130.425 61.241 129.858 62.735 130.555" fill="none" stroke="#231f20" stroke-linecap="round" stroke-linejoin="round" stroke-width=".53"/><line x1="55.017" y1="131.096" x2="53.984" y2="130.505" fill="none" stroke="#231f20" stroke-linecap="round" stroke-linejoin="round" stroke-width=".5"/><polygon points="64.305 165.193 56.646 165.83 56.106 152.632 63.811 152.036 64.305 165.193" fill="none" stroke="#231f20" stroke-linecap="round" stroke-linejoin="round" stroke-width=".53"/><polyline points="56.647 165.845 55.457 165.073 54.917 151.875 62.323 151.307 63.817 152.005" fill="none" stroke="#231f20" stroke-linecap="round" stroke-linejoin="round" stroke-width=".53"/><line x1="56.099" y1="152.546" x2="55.066" y2="151.955" fill="none" stroke="#231f20" stroke-linecap="round" stroke-linejoin="round" stroke-width=".5"/><path d="M341.396,106.335c.85.544,1.489,1.286,2.087,2.073,1.169,1.14,2.576,2.126,3.385,3.57-1.424-.875-2.37-2.271-3.48-3.477-.72-.611-1.649-1.34-1.992-2.166h0Z" fill="#231f20"/><path d="M338.746,98.547c1.197.887,2.185,1.973,3.132,3.105,1.748,1.714,3.734,3.269,5.128,5.291-2.004-1.44-3.531-3.421-5.223-5.197-1.065-.956-2.353-2.026-3.036-3.199h0Z" fill="#231f20"/><path d="M345.945,130.791c-.68-.366-1.148-.929-1.577-1.539-.885-.842-2.01-1.535-2.532-2.68,1.137.583,1.801,1.674,2.627,2.586.552.431,1.301.983,1.481,1.632h0Z" fill="#231f20"/><path d="M345.756,135.277c-.829-.499-1.45-1.2-2.032-1.947-1.137-1.07-2.512-1.982-3.294-3.361,1.388.801,2.307,2.13,3.388,3.266.7.568,1.61,1.251,1.938,2.042h0Z" fill="#231f20"/><path d="M339.55,101.674c.168-.508.539-.807.959-1.072.516-.626.866-1.373,1.688-1.701.017-.008.038.01.03.028-.29.836-1.02,1.22-1.621,1.765-.244.432-.526.816-1.026,1.008-.017.008-.037-.011-.03-.028h0Z" fill="#231f20"/><path d="M341.521,136.183c-.775-.446-1.341-1.092-1.869-1.785-1.047-.98-2.331-1.804-3.022-3.093,1.297.713,2.126,1.95,3.116,2.998.647.514,1.5,1.144,1.775,1.88h0Z" fill="#231f20"/><path d="M341.692,102.922c.357-.712.92-1.22,1.531-1.69.838-.948,1.516-2.129,2.67-2.726-.568,1.19-1.664,1.926-2.573,2.818-.427.587-.968,1.376-1.628,1.599h0Z" fill="#231f20"/><path d="M337.875,111.229c.81-1.193,1.827-2.184,2.891-3.136,1.595-1.75,3.022-3.732,4.937-5.139-1.312,1.996-3.181,3.534-4.84,5.231-.884,1.063-1.874,2.354-2.988,3.044h0Z" fill="#231f20"/><path d="M347.458,105.55c-.726,1.128-1.663,2.057-2.646,2.948-1.459,1.645-2.747,3.521-4.53,4.826,1.174-1.887,2.908-3.325,4.431-4.917.802-1,1.707-2.226,2.744-2.857h0Z" fill="#231f20"/><path d="M347.209,110.182c-.825,1.206-1.858,2.209-2.937,3.174-1.621,1.771-3.074,3.775-5.014,5.202,1.338-2.018,3.233-3.577,4.917-5.294.9-1.076,1.905-2.379,3.034-3.082h0Z" fill="#231f20"/><path d="M340.951,120.741c.564-.926,1.333-1.649,2.15-2.333,1.183-1.304,2.202-2.842,3.702-3.798-.906,1.549-2.356,2.641-3.605,3.89-.636.798-1.381,1.813-2.247,2.241h0Z" fill="#231f20"/><path d="M336.419,129.431c1.083-1.483,2.374-2.764,3.712-4.007,2.051-2.234,3.933-4.699,6.305-6.591-1.765,2.481-4.095,4.502-6.208,6.683-1.158,1.352-2.421,2.938-3.809,3.915h0Z" fill="#231f20"/><path d="M346.252,121.295c-1.419-1.112-2.63-2.425-3.8-3.783-2.119-2.091-4.476-4.022-6.242-6.421,2.376,1.814,4.273,4.176,6.337,6.327,1.286,1.183,2.802,2.478,3.705,3.877h0Z" fill="#231f20"/><path d="M339.092,108.859c1.097.797,1.984,1.792,2.83,2.833,1.581,1.563,3.401,2.969,4.625,4.837-1.838-1.292-3.196-3.118-4.72-4.743-.965-.865-2.151-1.846-2.735-2.926h0Z" fill="#231f20"/><path d="M346.376,124.882c-.878,1.243-1.961,2.283-3.091,3.283-1.706,1.832-3.247,3.898-5.27,5.384,1.425-2.081,3.404-3.698,5.173-5.476.951-1.113,2.01-2.454,3.187-3.191h0Z" fill="#231f20"/><path d="M340.161,135.452c.579-.923,1.361-1.64,2.19-2.318,1.205-1.296,2.25-2.828,3.768-3.773-.931,1.545-2.401,2.626-3.672,3.866-.65.794-1.411,1.804-2.286,2.225h0Z" fill="#231f20"/><path d="M342.545,98.233c.579.261.945.718,1.273,1.223.717.666,1.674,1.187,2.024,2.155-.966-.413-1.462-1.321-2.12-2.061-.501-.335-.954-.706-1.207-1.288-.009-.017.012-.038.029-.029h0Z" fill="#231f20"/><path d="M343.432,142.975c-.68-.366-1.148-.929-1.577-1.539-.885-.842-2.01-1.535-2.532-2.68,1.137.583,1.801,1.674,2.627,2.586.552.431,1.301.983,1.481,1.632h0Z" fill="#231f20"/><path d="M343.243,147.46c-.992-.71-1.77-1.616-2.508-2.566-1.402-1.415-3.045-2.676-4.085-4.391,1.662,1.148,2.838,2.822,4.182,4.299.859.776,1.935,1.672,2.411,2.658h0Z" fill="#231f20"/><path d="M339.007,148.366c-.609-.322-.998-.835-1.349-1.393-.759-.761-1.763-1.383-2.147-2.434,1.018.513,1.547,1.512,2.245,2.343.481.382,1.146.894,1.25,1.484h0Z" fill="#231f20"/><path d="M340.101,140.608c-.402.795-1.016,1.392-1.679,1.953-.92,1.093-1.672,2.415-2.92,3.169.641-1.329,1.829-2.218,2.82-3.258.477-.671,1.06-1.553,1.779-1.864h0Z" fill="#231f20"/><path d="M337.647,147.636c.404-.773,1.015-1.344,1.674-1.878.918-1.052,1.672-2.335,2.91-3.04-.643,1.292-1.824,2.134-2.812,3.131-.476.647-1.061,1.503-1.772,1.787h0Z" fill="#231f20"/><line x1="270.189" y1="101.225" x2="270.04" y2="110.544" fill="none" stroke="#231f20" stroke-linecap="round" stroke-linejoin="round" stroke-width=".5"/><line x1="348.234" y1="97.418" x2="348.234" y2="96.986" fill="none" stroke="#d23af6" stroke-linecap="round" stroke-linejoin="round" stroke-width=".5"/><line x1="269.258" y1="144.152" x2="269.115" y2="156.512" fill="none" stroke="#231f20" stroke-linecap="round" stroke-linejoin="round" stroke-width=".5"/><line x1="269.483" y1="125.315" x2="269.415" y2="131.183" fill="none" stroke="#231f20" stroke-linecap="round" stroke-linejoin="round" stroke-width=".5"/><line x1="293.583" y1="100.416" x2="292.127" y2="154.164" fill="none" stroke="#231f20" stroke-linecap="round" stroke-linejoin="round" stroke-width=".5"/><polygon points="281.86 116.841 274.792 117.22 274.795 112.967 281.967 112.566 281.86 116.841" fill="none" stroke="#231f20" stroke-linecap="round" stroke-linejoin="round" stroke-width=".5"/><polygon points="281.473 139.344 274.145 140.089 274.349 128.599 281.684 128.158 281.473 139.344" fill="none" stroke="#231f20" stroke-linecap="round" stroke-linejoin="round" stroke-width=".5"/><polyline points="281.477 135.076 280.713 135.134 280.735 136.146 279.725 136.23 279.712 138.218 275.67 138.674 275.778 129.922 279.702 129.71 279.748 131.825 280.818 131.756 280.839 132.713 281.434 132.708" fill="none" stroke="#231f20" stroke-linecap="round" stroke-linejoin="round" stroke-width=".5"/><line x1="279.725" y1="136.23" x2="275.986" y2="135.29" fill="none" stroke="#231f20" stroke-linecap="round" stroke-linejoin="round" stroke-width=".5"/><line x1="280.668" y1="135.128" x2="275.827" y2="133.878" fill="none" stroke="#231f20" stroke-linecap="round" stroke-linejoin="round" stroke-width=".5"/><line x1="279.763" y1="137.977" x2="276.024" y2="137.038" fill="none" stroke="#231f20" stroke-linecap="round" stroke-linejoin="round" stroke-width=".5"/><polygon points="281.092 153.068 273.721 153.83 273.917 142.4 281.295 141.659 281.092 153.068" fill="none" stroke="#231f20" stroke-linecap="round" stroke-linejoin="round" stroke-width=".5"/><polyline points="281.093 148.544 280.324 148.633 280.347 149.639 279.375 149.888 279.32 151.915 275.255 152.36 275.355 143.656 279.302 143.284 279.35 145.384 280.427 145.271 280.448 146.222 281.047 146.192" fill="none" stroke="#231f20" stroke-linecap="round" stroke-linejoin="round" stroke-width=".5"/><line x1="279.375" y1="149.888" x2="275.569" y2="148.984" fill="none" stroke="#231f20" stroke-linecap="round" stroke-linejoin="round" stroke-width=".5"/><line x1="280.279" y1="148.63" x2="275.408" y2="147.586" fill="none" stroke="#231f20" stroke-linecap="round" stroke-linejoin="round" stroke-width=".5"/><line x1="279.37" y1="151.673" x2="275.609" y2="150.719" fill="none" stroke="#231f20" stroke-linecap="round" stroke-linejoin="round" stroke-width=".5"/><polyline points="274.907 113.089 280.614 114.677 280.639 115.826 274.931 116.182" fill="none" stroke="#231f20" stroke-linecap="round" stroke-linejoin="round" stroke-width=".5"/><line x1="274.859" y1="114.901" x2="280.614" y2="114.677" fill="none" stroke="#231f20" stroke-linecap="round" stroke-linejoin="round" stroke-width=".5"/><ellipse cx="274.56" cy="110.162" rx=".671" ry=".828" transform="translate(-4.941 13.219) rotate(-2.733)" fill="#231f20"/><ellipse cx="274.504" cy="107.608" rx=".671" ry=".828" transform="translate(-4.819 13.214) rotate(-2.733)" fill="#231f20"/><ellipse cx="274.449" cy="105.054" rx=".671" ry=".828" transform="translate(-4.698 13.208) rotate(-2.733)" fill="#231f20"/><path d="M275.908,126.21h0c-.576-.048-1.043-.584-1.037-1.191l.044-4.588c.006-.607.482-1.065,1.058-1.018h0c.576.048,1.043.584,1.037,1.191l-.044,4.588c-.006.607-.482,1.065-1.058,1.018Z" fill="none" stroke="#231f20" stroke-miterlimit="10" stroke-width=".5"/><path d="M288.24,111.777l-1.007,37.656s.118,1.549-2.22,3.392" fill="none" stroke="#231f20" stroke-linecap="round" stroke-linejoin="round" stroke-width=".5"/><line x1="284.963" y1="154.631" x2="286.058" y2="109.195" fill="none" stroke="#231f20" stroke-linecap="round" stroke-linejoin="round" stroke-width=".5"/><polygon points="287.316 111.358 287.308 108.741 285.338 108.684 285.349 106.988 284.464 106.279 284.536 103.079 285.499 103.108 285.595 101.07 288.213 101.404 288.121 108.143 290.059 106.601 290.097 108.442 288.034 110.431 287.958 111.393 287.316 111.358" fill="none" stroke="#231f20" stroke-linecap="round" stroke-linejoin="round" stroke-width=".5"/><polyline points="290.31 106.477 290.408 101.214 288.213 101.404" fill="none" stroke="#231f20" stroke-linecap="round" stroke-linejoin="round" stroke-width=".5"/><polyline points="290.059 106.601 292.305 106.555 292.341 108.314 290.131 108.359" fill="none" stroke="#231f20" stroke-linecap="round" stroke-linejoin="round" stroke-width=".5"/><polyline points="292.347 108.283 290.083 110.442 290.071 111.34 287.958 111.393" fill="none" stroke="#231f20" stroke-linecap="round" stroke-linejoin="round" stroke-width=".5"/><line x1="290.083" y1="110.442" x2="288.034" y2="110.431" fill="none" stroke="#231f20" stroke-linecap="round" stroke-linejoin="round" stroke-width=".5"/><polyline points="285.595 101.07 287.686 100.809 290.408 101.214" fill="none" stroke="#231f20" stroke-linecap="round" stroke-linejoin="round" stroke-width=".5"/><polygon points="288.72 102.513 289.855 102.406 289.405 103.674 288.72 102.513" fill="#231f20"/></g><g id="c"><path d="M362.98,128.968s1.571-13.686-15.434-18.882" fill="none" stroke="#fff" stroke-linecap="round" stroke-linejoin="round" stroke-width="8"/><path d="M363.111,126.071c-1.019-5.005-4.565-12.888-16.559-16.497" fill="none" stroke="#000" stroke-dasharray="2 3" stroke-linecap="round" stroke-linejoin="round" stroke-width="1.25"/><polygon points="366.037 124.855 363.484 130.54 359.836 125.487 366.037 124.855"/><path d="M341.448,142.637l17.512-9.271s2.884-1.648,5.872.206,3.09,3.502,3.09,3.502l4.018,12.568-1.03,1.236,1.442,4.327-4.842,2.678s1.339,1.133,2.06,1.339l.309,1.133s-2.266,1.339-3.915.618l-2.472-2.472-1.03.103v-1.442l.824-.206-.721-1.442-22.251,9.992s-2.266.515-3.296-.103l2.472-.412,1.957-22.354ZM366.66,147.434c.481-1.419.661-3.118.443-4.906-.544-4.474-3.48-8.337-6.304-7.453-2.542.795-3.835,4.291-3.29,8.765s3.779,7.034,5.425,6.997c.523-.012.843.202,1.292-.066,0,0,.321-2.686,1.053-3.547l1.033-.172.348.384Z" fill="#d0cfce" stroke="#fff" stroke-linecap="round" stroke-linejoin="round" stroke-width="2"/><polygon points="294.983 100.327 310.156 99.431 342.406 106.503 343.123 107.062 340.329 164.245 339.894 165.176 325.738 166.976 324.683 166.231 293.701 153.628 294.322 128.792 294.857 111.24 294.983 100.327" fill="#d0cfce" stroke="#fff" stroke-linecap="round" stroke-linejoin="round" stroke-width="2"/><path d="M341.448,142.637l17.512-9.271s2.884-1.648,5.872.206,3.09,3.502,3.09,3.502l4.018,12.568-1.03,1.236,1.442,4.327-4.842,2.678s1.339,1.133,2.06,1.339l.309,1.133s-2.266,1.339-3.915.618l-2.472-2.472-1.03.103v-1.442l.824-.206-.721-1.442-22.251,9.992s-2.266.515-3.296-.103l2.472-.412,1.957-22.354ZM366.66,147.434c.481-1.419.661-3.118.443-4.906-.544-4.474-3.48-8.337-6.304-7.453-2.542.795-3.835,4.291-3.29,8.765s3.779,7.034,5.425,6.997c.523-.012.843.202,1.292-.066,0,0,.321-2.686,1.053-3.547l1.033-.172.348.384Z" fill="#d0cfce"/><polygon points="295.105 100.337 310.156 99.431 342.406 106.503 343.123 107.062 340.329 164.245 339.894 165.176 325.738 166.976 324.683 166.231 293.701 153.628 295.105 100.337" fill="#d0cfce"/><line x1="309.611" y1="99.333" x2="342.598" y2="106.499" fill="none" stroke="#231f20" stroke-linecap="round" stroke-linejoin="round" stroke-width=".5"/><path d="M341.28,142.578l18.186-9.389s4.25-1.73,7.462,3.904l4.194,12.683.914-.131-4.151-12.75s-2.835-4.743-6.838-4.051" fill="none" stroke="#231f20" stroke-linecap="round" stroke-linejoin="round" stroke-width=".5"/><path d="M363.306,156.985l-.589-1.526s-19.853,8.861-22.068,9.884-3.408.17-3.408.17" fill="none" stroke="#231f20" stroke-linecap="round" stroke-linejoin="round" stroke-width=".5"/><path d="M362.509,157.298l.069,1.318.832-.277,2.254,2.427s.867.659,1.526-.485l-.416-.902h-.798s-1.318-1.144-1.318-1.63l5.132-2.323-1.352-4.612-1.63.763-.659-2.393.763-.208s-1.56-1.352-1.56-1.838c0,0-1.179,1.11-1.006,5.513l-1.56.728.832,1.907,1.56-.624.659,1.318-3.329,1.318Z" fill="none" stroke="#231f20" stroke-linecap="round" stroke-linejoin="round" stroke-width=".5"/><path d="M367.591,151.117l-.679-2.142.957-.085c-.247,0-1.515-1.794-1.515-1.794l-1.002.041" fill="none" stroke="#231f20" stroke-linecap="round" stroke-linejoin="round" stroke-width=".5"/><polyline points="368.438 150.813 371.024 150.838 372.478 155.138 369.756 155.23" fill="none" stroke="#231f20" stroke-linecap="round" stroke-linejoin="round" stroke-width=".5"/><polyline points="364.659 157.748 367.437 157.643 372.478 155.138" fill="none" stroke="#231f20" stroke-linecap="round" stroke-linejoin="round" stroke-width=".5"/><path d="M367.684,157.89s.773,1.268,1.979,1.423l.186.897s-.649,1.237-3.464.866" fill="none" stroke="#231f20" stroke-linecap="round" stroke-linejoin="round" stroke-width=".5"/><path d="M364.231,150.779c-.448.269-.936.443-1.455.506-2.937.357-5.759-2.98-6.304-7.453s1.395-8.39,4.332-8.748c2.937-.357,5.759,2.98,6.304,7.453.218,1.788.038,3.488-.443,4.906" fill="none" stroke="#231f20" stroke-linecap="round" stroke-linejoin="round" stroke-width=".5"/><path d="M363.74,150.861c-2.937.357-5.759-2.98-6.304-7.453-.435-3.574.715-6.792,2.693-8.124" fill="none" stroke="#231f20" stroke-linecap="round" stroke-linejoin="round" stroke-width=".5"/><line x1="369.59" y1="150.772" x2="371.122" y2="149.775" fill="none" stroke="#231f20" stroke-linecap="round" stroke-linejoin="round" stroke-width=".5"/><line x1="372.036" y1="149.644" x2="370.69" y2="150.654" fill="none" stroke="#231f20" stroke-linecap="round" stroke-linejoin="round" stroke-width=".5"/><line x1="324.822" y1="166.361" x2="293.606" y2="153.497" fill="none" stroke="#231f20" stroke-linecap="round" stroke-linejoin="round" stroke-width=".5"/><line x1="327.227" y1="107.801" x2="295.147" y2="100.489" fill="none" stroke="#231f20" stroke-linecap="round" stroke-linejoin="round" stroke-width=".5"/><polygon points="325.876 168.99 342.287 175.385 335.395 176.255 365.157 180.501 365.158 172.759 357.857 173.651 341.102 167.12 325.876 168.99" fill="#221f20"/><polygon points="365.158 172.759 365.157 180.501 335.395 176.255 342.287 175.385 325.876 168.99 341.102 167.12 357.857 173.651 365.158 172.759" fill="none" stroke="#fff" stroke-linecap="round" stroke-linejoin="round" stroke-width="4"/><polygon points="325.876 168.99 342.287 175.385 335.395 176.255 365.157 180.501 365.158 172.759 357.857 173.651 341.102 167.12 325.876 168.99" fill="#221f20"/><polygon points="340.28 164.254 343.09 106.92 342.598 106.499 327.576 107.534 327.071 108.045 324.822 166.361 325.455 166.783 339.858 164.956 340.28 164.254" fill="none" stroke="#231f20" stroke-linecap="round" stroke-linejoin="round" stroke-width=".5"/><polyline points="337.587 105.455 322.551 106.228 322.059 107 319.811 164.192" fill="none" stroke="#231f20" stroke-linecap="round" stroke-linejoin="round" stroke-width=".5"/><path d="M332.979,164.684l-.872.103c-.163.019-.297-.1-.297-.265v-.881c0-.165.133-.315.297-.335l.872-.103c.163-.019.297.1.297.265v.881c0,.165-.133.315-.297.335Z" fill="#231f20"/><line x1="291.386" y1="153.687" x2="292.453" y2="109.339" fill="none" stroke="#231f20" stroke-linecap="round" stroke-linejoin="round" stroke-width=".5"/><ellipse cx="330.172" cy="115.954" rx=".962" ry=".867" transform="translate(110.548 388.395) rotate(-70.477)" fill="#231f20"/><ellipse cx="330.238" cy="112.677" rx=".962" ry=".867" transform="translate(113.681 386.276) rotate(-70.477)" fill="#231f20"/><ellipse cx="329.136" cy="160.455" rx=".96" ry=".868" transform="translate(72.609 421.74) rotate(-71.516)" fill="#231f20"/><ellipse cx="329.264" cy="157.191" rx=".96" ry=".868" transform="translate(75.791 419.632) rotate(-71.516)" fill="#231f20"/><polygon points="338.397 132.065 330.725 132.759 331.129 119.501 338.844 118.844 338.397 132.065" fill="none" stroke="#231f20" stroke-linecap="round" stroke-linejoin="round" stroke-width=".53"/><polyline points="330.725 132.774 329.595 132.008 329.999 118.75 337.414 118.124 338.853 118.814" fill="none" stroke="#231f20" stroke-linecap="round" stroke-linejoin="round" stroke-width=".53"/><line x1="331.128" y1="119.416" x2="330.141" y2="118.83" fill="none" stroke="#231f20" stroke-linecap="round" stroke-linejoin="round" stroke-width=".5"/><polygon points="337.943 153.604 330.271 154.303 330.675 141.046 338.39 140.388 337.943 153.604" fill="none" stroke="#231f20" stroke-linecap="round" stroke-linejoin="round" stroke-width=".53"/><polyline points="330.271 154.318 329.141 153.552 329.545 140.294 336.961 139.668 338.399 140.358" fill="none" stroke="#231f20" stroke-linecap="round" stroke-linejoin="round" stroke-width=".53"/><line x1="330.675" y1="140.96" x2="329.688" y2="140.374" fill="none" stroke="#231f20" stroke-linecap="round" stroke-linejoin="round" stroke-width=".5"/></g><g id="d"><line x1="375.437" y1="154.659" x2="392.128" y2="96.933" fill="none" stroke="#fff" stroke-linecap="round" stroke-miterlimit="10" stroke-width="4"/><line x1="375.437" y1="154.659" x2="392.128" y2="96.933" fill="none" stroke="#231f20" stroke-linecap="round" stroke-linejoin="round"/><circle cx="383.784" cy="54.967" r="40.25" fill="#fff"/><path d="M379.945,93.787l.923-24.552-2-.308v-2.462l3.078.462v-6.309h-2.616v-6.309l-2.462-4.463.154-10.002h2l.462-7.694,6.771.154,10.156.308-.462,18.312,4.616.154.923,1.231.308,5.848-5.848,8.463-.154,3.078-5.078.769-.769,21.936s-7.386,1.231-10.002,1.385Z" fill="#d0cfce"/><g clip-path="url(#e)"><polyline points="395.938 51.03 396.336 32.48 386.531 32.48 379.509 32.083 379.509 40.165 377.124 40.033 376.859 49.838 379.376 54.475 379.244 60.57 382.026 60.835 382.158 52.223 384.146 52.488 384.051 69.802 385.868 70.104 385.868 66.4 391.698 58.715 391.831 52.753 390.771 51.295 388.783 56.993 385.868 58.98 386.531 32.48" fill="none" stroke="#231f20" stroke-linecap="round" stroke-linejoin="round" stroke-width=".5"/><polyline points="390.771 51.295 400.708 51.163 401.768 52.62 401.901 57.655 395.806 66.135 395.806 69.977 385.946 70.102" fill="none" stroke="#231f20" stroke-linecap="round" stroke-linejoin="round" stroke-width=".5"/><line x1="385.868" y1="66.4" x2="395.585" y2="66.304" fill="none" stroke="#231f20" stroke-linecap="round" stroke-linejoin="round" stroke-width=".5"/><line x1="384.11" y1="57.896" x2="382.281" y2="57.692" fill="none" stroke="#231f20" stroke-linecap="round" stroke-linejoin="round" stroke-width=".5"/><polyline points="382.026 60.835 382.026 66.751 378.983 66.339 378.983 68.761 379.805 68.898" fill="none" stroke="#231f20" stroke-linecap="round" stroke-linejoin="round" stroke-width=".5"/><path d="M383.851,69.733l-2.697-.545-2.864,120.167,5.614,5.425s.252,11.418-4.353,15.392v1.325s6.182-.568,7.128-9.841c0,0,.767-9.222,1.035-20.039l3.19-111.57" fill="none" stroke="#231f20" stroke-linecap="round" stroke-linejoin="round" stroke-width=".5"/><polygon points="387.851 36.32 395.219 36.32 391.535 44.098 387.851 36.32" fill="#231f20"/><path d="M383.887,31.948s.091-1.367-4.649-1.276-52.05.182-52.05.182c0,0-3.464-.82-3.464,4.375l-.091,94.072" fill="none" stroke="#231f20" stroke-miterlimit="10" stroke-width=".5"/><path d="M355.916,33.391c2.812,2.197,5.085,4.88,7.268,7.659,3.983,4.216,8.867,8.146,11.821,13.036-4.638-3.689-8.163-8.417-12.058-12.815-2.495-2.388-5.425-4.924-7.03-7.879h0Z" fill="#231f20"/><path d="M345.176,40.714c3.586,3.072,6.645,6.618,9.602,10.268,5.282,5.664,11.461,11.046,15.71,17.383-5.936-5.144-10.761-11.314-15.949-17.163-3.275-3.258-6.982-6.666-9.364-10.487h0Z" fill="#231f20"/><path d="M353.721,32.969c-.608,1.619-1.761,2.758-3.026,3.824-1.054,1.237-1.719,2.795-2.827,3.99-.727.805-1.508,1.565-2.447,2.194l-.077-.064c1.035-2.643,3.25-4.319,5.101-6.326.813-1.44,1.721-2.784,3.198-3.681,0,0,.077.064.077.064h0Z" fill="#231f20"/><path d="M370.074,33.215c-3.664,4.902-7.885,9.292-12.184,13.621-4.085,4.516-7.829,9.344-11.993,13.794,0,0-.004-.713-.004-.713,2.607,2.888,5.166,5.815,7.583,8.868,0,0-.073.068-.073.068-2.982-2.746-5.825-5.629-8.612-8.568,2.128-2.401,4.334-4.732,6.548-7.056,2.121-2.188,4.302-4.323,6.315-6.609,3.904-4.591,7.875-9.658,12.422-13.406h0Z" fill="#231f20"/><path d="M354.622,68.663c2.226-3.253,4.98-6.008,7.835-8.68,4.319-4.764,8.28-10.406,13.352-14.197-3.743,5.377-8.607,9.725-13.114,14.416-2.443,2.952-4.996,6.353-8.074,8.461h0Z" fill="#231f20"/><path d="M363.493,96.874c2.143,1.495,3.742,3.47,5.253,5.543,1.709,1.886,3.782,3.436,5.443,5.367,1.118,1.277,2.174,2.611,3.091,4.073l-.074.068c-3.521-2.514-5.923-6.063-8.699-9.289-1.94-1.678-3.776-3.435-5.088-5.695,0,0,.074-.068.074-.068h0Z" fill="#231f20"/><path d="M353.856,103.445c3.265,2.714,5.99,5.913,8.624,9.205,4.736,5.076,10.377,9.865,14.08,15.612-5.395-4.552-9.671-10.137-14.319-15.393-2.947-2.905-6.333-5.955-8.386-9.425h0Z" fill="#231f20"/><path d="M361.523,96.502c-.502,1.491-1.548,2.501-2.706,3.439-.947,1.108-1.506,2.538-2.507,3.604-.656.719-1.365,1.394-2.234,1.937l-.077-.064c.858-2.428,2.893-3.889,4.568-5.684.707-1.312,1.507-2.527,2.879-3.296,0,0,.077.064.077.064h0Z" fill="#231f20"/><path d="M376.197,96.723c-2.335,3.42-5.202,6.347-8.171,9.192-4.507,5.048-8.646,10.971-13.914,15.052,3.925-5.656,8.98-10.293,13.674-15.27,2.555-3.121,5.214-6.693,8.411-8.975h0Z" fill="#231f20"/><path d="M367.049,123.862c.842-1.71,2.197-2.908,3.659-4.025,1.262-1.301,2.157-2.948,3.471-4.203.864-.846,1.779-1.643,2.844-2.3l.073.069c-1.423,2.797-3.96,4.549-6.152,6.657-1.035,1.519-2.159,2.938-3.821,3.871,0,0-.073-.069-.073-.069h0Z" fill="#231f20"/><ellipse cx="338.562" cy="45.214" rx="2.931" ry="3.017" fill="#231f20"/><ellipse cx="338.562" cy="54.351" rx="2.931" ry="3.017" fill="#231f20"/><ellipse cx="338.562" cy="63.488" rx="2.931" ry="3.017" fill="#231f20"/><polyline points="369.684 92.178 369.684 74.16 338.713 75.378 338.713 86.667" fill="none" stroke="#231f20" stroke-miterlimit="10" stroke-width=".5"/><line x1="340.995" y1="82.771" x2="338.911" y2="81.502" fill="none" stroke="#231f20" stroke-miterlimit="10" stroke-width=".5"/><line x1="340.995" y1="86.395" x2="338.911" y2="85.127" fill="none" stroke="#231f20" stroke-miterlimit="10" stroke-width=".5"/><path d="M346.132,121.707l-3.454.203c-1.478.087-2.646-1.093-2.596-2.623l.622-19.112c.05-1.53,1.299-2.853,2.777-2.94l3.454-.203c1.478-.087,2.646,1.093,2.596,2.623l-.622,19.112c-.05,1.53-1.299,2.853-2.777,2.94Z" fill="none" stroke="#231f20" stroke-miterlimit="10" stroke-width=".5"/><line x1="311.152" y1="25" x2="417.112" y2="25.744" fill="none" stroke="#231f20" stroke-miterlimit="10" stroke-width=".5"/><line x1="311.152" y1="19.206" x2="410.566" y2="19.904" fill="none" stroke="#231f20" stroke-miterlimit="10" stroke-width=".5"/><line x1="406.56" y1="111.504" x2="409.402" y2="30.039" fill="none" stroke="#231f20" stroke-miterlimit="10" stroke-width=".5"/><line x1="419.214" y1="28.785" x2="232.374" y2="28.532" fill="none" stroke="#231f20" stroke-miterlimit="10" stroke-width=".5"/><polyline points="372.775 33.107 345.436 33.323 345.436 69.273 372.892 68.377" fill="none"/><polyline points="375.913 94.982 353.788 95.802 353.485 128.56" fill="none"/><line x1="319.347" y1="30.78" x2="326.215" y2="30.78" fill="none" stroke="#231f20" stroke-miterlimit="10" stroke-width=".5"/></g><circle cx="383.784" cy="54.967" r="40.25" fill="none" stroke="#fff" stroke-miterlimit="10" stroke-width="4"/><circle cx="383.784" cy="54.967" r="40.25" fill="none" stroke="#231f20" stroke-miterlimit="10"/><polygon points="388.407 30.334 378.567 20.985 383.58 21.019 383.789 3.546 393.669 3.63 393.46 21.104 398.472 21.148 388.407 30.334" fill="#2c2a26" stroke="#fff" stroke-linecap="round" stroke-linejoin="round"/><path d="M371.861,19.668c0,7.593-6.246,13.745-13.95,13.745s-13.953-6.152-13.953-13.745,6.246-13.755,13.953-13.755,13.95,6.159,13.95,13.755" fill="#211f1f" stroke="#fff" stroke-miterlimit="10" stroke-width="1.5"/><rect x="343.91" y="11.674" width="27.228" height="24.791" fill="none"/><path d="M359.508,26.709h-1.846v-11.761c-.444.424-1.027.848-1.749,1.271-.721.424-1.368.742-1.942.954v-1.784c1.032-.485,1.935-1.073,2.707-1.764s1.319-1.36,1.641-2.01h1.189v15.094Z" fill="#fff"/></g></svg>