<?xml version="1.0" encoding="UTF-8"?><svg xmlns="http://www.w3.org/2000/svg" width="616.223" height="252.551" viewBox="0 0 616.223 252.551"><g id="a"><path d="M515.262,99.525l2.51.29,2.607-3.379,11.876,2.221-.097,53.009-1.545,2.124-16.125,8.304-5.504-.966v-50.788s-.097-3.09,1.448-4.635,4.828-6.18,4.828-6.18Z" fill="#ee7623" stroke-width="0"/><path d="M263.6,98.407l2.51.29,2.607-3.379,11.876,2.221-.097,53.009-1.545,2.124-4.481,2.937-11.206,5.891-5.802-1.107-.14-51.17s-.097-3.09,1.448-4.635c1.545-1.545,4.828-6.18,4.828-6.18Z" fill="#ee7623" stroke-width="0"/><path d="M129.469,98.491l2.51.29,2.607-3.379,11.876,2.221-.097,53.009-1.545,2.124-4.481,2.937-11.206,5.891-5.802-1.107-.14-51.17s-.097-3.09,1.448-4.635,4.828-6.18,4.828-6.18Z" fill="#ee7623" stroke-width="0"/><path d="M53.506,109.928l.023-12.381-11.876-2.221-2.607,3.379-2.51-.29s-3.283,4.635-4.828,6.18c-1.545,1.545-1.448,4.635-1.448,4.635l.026,9.422s1.418-.943,2.14-2.12,5.545-7.483,5.545-7.483c0,0,.646-1.823,3.039-1.367l12.497,2.246Z" fill="#ee7623" stroke-width="0"/><path d="M393.672,99.525l2.51.29,2.607-3.379,11.876,2.221-.097,53.009-2.373,3.29-2.123,1.775-1.428-.077-11.309,5.79-5.941-1.316v-50.788s-.097-3.09,1.448-4.635,4.828-6.18,4.828-6.18Z" fill="#ee7623" stroke-width="0"/><path d="M144.105,183.893l52.255,8.853.184,16.353s-1.414,1.168-4.119.553l-54.837-9.898s-2.521-1.045-2.459-2.521l.184-4.611s.184,2.213,3.197,2.889,3.996.676,3.996.676c0,0,2.705-.184,2.275-2.275l-.738-.307.061-9.713ZM187.897,193.796c-2.393-1.368-5.236-.897-6.351,1.053-1.115,1.949-.079,4.639,2.314,6.007s5.236.897,6.351-1.053.079-4.639-2.314-6.007Z" fill="#ee7623" stroke-width="0"/><path d="M278.248,183.866l52.255,8.853.184,16.353s-1.414,1.168-4.119.553l-54.837-9.898s-2.521-1.045-2.459-2.521l.184-4.611s.184,2.213,3.197,2.889,3.996.676,3.996.676c0,0,2.705-.184,2.275-2.275l-.738-.307.061-9.713ZM322.039,193.769c-2.393-1.368-5.236-.897-6.351,1.053s-.079,4.639,2.314,6.007,5.236.897,6.351-1.053.079-4.639-2.314-6.007Z" fill="#ee7623" stroke-width="0"/><path d="M429.268,156.398l52.255,8.853.184,16.353s-1.414,1.168-4.119.553l-54.837-9.898s-2.521-1.045-2.459-2.521l.184-4.611s.184,2.213,3.197,2.889,3.996.676,3.996.676c0,0,2.705-.184,2.275-2.275l-.738-.307.061-9.713ZM473.059,166.3c-2.393-1.368-5.236-.897-6.351,1.053s-.079,4.639,2.314,6.007,5.236.897,6.351-1.053.079-4.639-2.314-6.007Z" fill="#ee7623" stroke-width="0"/><path d="M21.647,126.57l17.312,3.447.114,48.33s.1,2.147.999,2.397l-4.594-.799s-1.598-.749-1.348-3.445l.15-2.347s-.849-1.947-1.897-2.147c-1.049-.2-9.087-1.598-9.087-1.598,0,0-1.698.3-1.548-2.946s-.1-40.893-.1-40.893ZM29.874,129.951c-2.537-1.107-5.382-.199-6.354,2.028-.972,2.228.296,4.931,2.833,6.039,2.537,1.107,5.382.199,6.354-2.028.972-2.228-.296-4.931-2.833-6.039Z" fill="#ee7623" stroke-width="0"/><polygon points="532.201 101.097 538.78 102.331 538.78 153.014 532.159 151.664 532.201 101.097" fill="#ee7623" stroke-width="0"/></g><g id="b"><line x1="488.763" y1="151.704" x2="489.098" y2="151.764" fill="none" stroke="#2d2a26" stroke-miterlimit="2" stroke-width="1.211"/><line x1="488.753" y1="151.703" x2="488.765" y2="151.703" fill="none" stroke="#2d2a26" stroke-miterlimit="2" stroke-width="1.211"/><polyline points="468.893 111.632 468.898 111.624 468.922 111.592 468.942 111.559 468.962 111.527 468.974 111.499 468.99 111.463 469.002 111.43 469.015 111.394 469.027 111.358 469.035 111.325 469.039 111.289 469.047 111.257 469.047 111.224 469.047 111.192" fill="none" stroke="#2d2a26" stroke-miterlimit="2" stroke-width="1.211"/><path d="M457.545,54.794c-1.505,1.08-3.435.687-3.435.687,0,0-4.122-.851-6.019-1.21s-1.668-1.08-1.668-1.08c.196-1.21,2.552-.981,2.552-.981,0,0-2.911-.883-2.388-2.486s1.767-1.276,1.767-1.276l6.498,1.203s2.976.322,2.9,3.38l.218,77.965-9.766,13.497" fill="none" stroke="#2d2a26" stroke-miterlimit="10" stroke-width=".6"/><line x1="457.635" y1="52.229" x2="475.185" y2="28.237" fill="none" stroke="#2d2a26" stroke-miterlimit="10" stroke-width=".6"/><path d="M467.85,105.625l1.148,1.428v4.429s-7.956,11.261-7.956,11.261c0,0-.991,1.982-2.973,1.982" fill="none" stroke="#2d2a26" stroke-linecap="round" stroke-linejoin="round" stroke-width=".6"/><path d="M446.366,53.213v25.408s.074.522,1.629.792c1.555.27,6.458,1.127,6.458,1.127,0,0,2.031.206,3.078-.778" fill="none" stroke="#2d2a26" stroke-miterlimit="10" stroke-width=".6"/><path d="M447.012,79.203s-1.059,1.589-.927,5.163v20.604" fill="none" stroke="#2d2a26" stroke-miterlimit="10" stroke-width=".6"/><path d="M474.503,100.166l-4.779,6.528v-3.88l-11.54,16.284-.462-.853-10.314,14.102s-.326.874-1.45.744c-1.124-.13-5.059-.908-5.059-.908,0,0-1.297-.476-1.124-1.6" fill="none" stroke="#2d2a26" stroke-linecap="round" stroke-linejoin="round" stroke-width=".6"/><path d="M455.557,80.595s.282,24.055.307,35.113" fill="none" stroke="#2d2a26" stroke-linecap="round" stroke-linejoin="round" stroke-width=".6"/><polyline points="410.544 151.755 410.544 98.628 398.602 96.399 396.178 99.915 393.813 99.43" fill="none" stroke="#2d2a26" stroke-linecap="round" stroke-linejoin="round" stroke-width=".6"/><path d="M420.228,156.35l-3.334,2.613s-1.362-3.837-5.136-4.235-5.649,2.058-5.649,2.058l-1.655-.265v2.505l1.192,2.251s4.237,7.48,10.459,3.244l1.059-1.522,2.78-1.38" fill="none" stroke="#2d2a26" stroke-linecap="round" stroke-linejoin="round" stroke-width=".6"/><line x1="404.308" y1="90.759" x2="399.892" y2="96.492" fill="none" stroke="#2d2a26" stroke-linecap="round" stroke-linejoin="round" stroke-width=".6"/><line x1="408.423" y1="154.604" x2="410.544" y2="151.755" fill="none" stroke="#2d2a26" stroke-linecap="round" stroke-linejoin="round" stroke-width=".6"/><path d="M407.71,81.512l-19.377,24.826s-1.066,1.024-1.066,4.819l.102,50.311,5.778,1.016,11.158-5.409" fill="none" stroke="#2d2a26" stroke-linecap="round" stroke-linejoin="round" stroke-width=".6"/><path d="M393.942,99.152l-5.609,7.186s-1.066,1.024-1.066,4.819l.102,50.311,5.778,1.016,11.158-5.409" fill="none" stroke="#2d2a26" stroke-linecap="round" stroke-linejoin="round" stroke-width=".6"/><path d="M410.544,98.628c-.618,2.349-2.695,3.253-2.695,3.253l-13.072,6.204s-2.65.723-2.229,4.217v50.07" fill="none" stroke="#2d2a26" stroke-linecap="round" stroke-linejoin="round" stroke-width=".6"/><line x1="387.61" y1="110.133" x2="392.308" y2="110.916" fill="none" stroke="#2d2a26" stroke-linecap="round" stroke-linejoin="round" stroke-width=".6"/><line x1="407.937" y1="108.691" x2="407.937" y2="150.738" fill="none" stroke="#2d2a26" stroke-linecap="round" stroke-linejoin="round" stroke-width=".75"/><line x1="405.129" y1="115.16" x2="405.129" y2="148.184" fill="none" stroke="#2d2a26" stroke-linecap="round" stroke-linejoin="round" stroke-width=".75"/><line x1="401.894" y1="121.713" x2="401.894" y2="144.354" fill="none" stroke="#2d2a26" stroke-linecap="round" stroke-linejoin="round" stroke-width=".75"/><line x1="398.149" y1="127.076" x2="398.149" y2="140.779" fill="none" stroke="#2d2a26" stroke-linecap="round" stroke-linejoin="round" stroke-width=".75"/><line x1="395.17" y1="132.778" x2="395.17" y2="137.289" fill="none" stroke="#2d2a26" stroke-linecap="round" stroke-linejoin="round" stroke-width=".75"/><path d="M410.767,142.204l30.903-43.108s1.667-.859,2.073,1.843.18,3.874.18,3.874" fill="none" stroke="#2d2a26" stroke-linecap="round" stroke-linejoin="round" stroke-width=".6"/><polyline points="449.711 104.569 449.711 100.677 453.967 101.461 453.967 83.759 454.453 80.539" fill="none" stroke="#2d2a26" stroke-linecap="round" stroke-linejoin="round" stroke-width=".6"/><line x1="449.641" y1="104.844" x2="452.362" y2="101.284" fill="none" stroke="#2d2a26" stroke-linecap="round" stroke-linejoin="round" stroke-width=".6"/><polyline points="450.075 106.108 454.325 106.771 455.4 105.134" fill="none" stroke="#2d2a26" stroke-linecap="round" stroke-linejoin="round" stroke-width=".6"/><line x1="440.185" y1="101.171" x2="443.712" y2="101.809" fill="none" stroke="#2d2a26" stroke-linecap="round" stroke-linejoin="round" stroke-width=".6"/><path d="M455.458,37.304l-2.558-9.261-4.596-.865s-3.785,1.514-3.406,7.218l.162,4.461s-.162,2.055-.865,3.758c-.554,1.343-1.838,5.191-1.838,5.191" fill="none" stroke="#2d2a26" stroke-linecap="round" stroke-linejoin="round" stroke-width=".6"/><path d="M452.202,27.97c-1.047.693-2.826,2.755-2.673,6.671l.162,4.461s-.162,2.055-.865,3.758c-.554,1.343-1.838,5.191-1.838,5.191" fill="none" stroke="#2d2a26" stroke-linecap="round" stroke-linejoin="round" stroke-width=".6"/><path d="M444.915,37.85l-32.797,44.832s-4.008,5.472-3.883,15.494" fill="none" stroke="#2d2a26" stroke-linecap="round" stroke-linejoin="round" stroke-width=".6"/><path d="M453.927,30.222l6.877,1.32-1.598,2.362s-1.25-.278-2.431,1.598-9.17,12.852-9.17,12.852" fill="none" stroke="#2d2a26" stroke-linecap="round" stroke-linejoin="round" stroke-width=".6"/><path d="M446.98,48.839l-6.498-1.053s-2.018.44-2.199,3.156l-.543,5.355,8.554,21.022" fill="none" stroke="#2d2a26" stroke-linecap="round" stroke-linejoin="round" stroke-width=".6"/><path d="M444.874,48.717s-2.018.44-2.199,3.156l-.543,5.355,4.022,9.884" fill="none" stroke="#2d2a26" stroke-linecap="round" stroke-linejoin="round" stroke-width=".6"/><path d="M410.677,144.457s5.316-2.883,11.623,1.982" fill="none" stroke="#2d2a26" stroke-linecap="round" stroke-linejoin="round" stroke-width=".6"/><path d="M410.768,150.078c.847-1.011,3.253-3.009,7.927-.846l2.343-1.081c-4.028-3.808-8.592-2.676-10.159-2.118" fill="none" stroke="#2d2a26" stroke-linecap="round" stroke-linejoin="round" stroke-width=".6"/><path d="M432.841,153.344v-5.103l-1.712-1.892-5.316-1.171-2.613.991-2.883,4.054-.09,20.092s.27,1.622,2.883,2.162,54.443,9.87,54.443,9.87c0,0,3.13,1.302,5.562-2.212,2.433-3.514,9.28-12.704,9.28-12.704v-12.794s-.45-2.523-2.072-2.703-58.474-10.271-58.474-10.271" fill="none" stroke="#2d2a26" stroke-linecap="round" stroke-linejoin="round" stroke-width=".6"/><polyline points="429.141 166.288 429.11 156.212 431.28 153.174 482.329 162.381 483.319 163.483 491.637 152.936" fill="none" stroke="#2d2a26" stroke-linecap="round" stroke-linejoin="round" stroke-width=".6"/><path d="M481.026,162.273c-.76,3.364-4.341,2.279-4.341,2.279l-47.359-8.231" fill="none" stroke="#2d2a26" stroke-linecap="round" stroke-linejoin="round" stroke-width=".6"/><line x1="481.569" y1="181.805" x2="481.569" y2="165.854" fill="none" stroke="#2d2a26" stroke-linecap="round" stroke-linejoin="round" stroke-width=".6"/><path d="M420.476,164.877l9.441,1.628s.527,2.713-2.589,2.202l-4.124-.76s-2.837-.248-2.728-3.07Z" fill="none" stroke="#2d2a26" stroke-linecap="round" stroke-linejoin="round" stroke-width=".6"/><line x1="439.055" y1="102.976" x2="439.055" y2="108.427" fill="none" stroke="#2d2a26" stroke-linecap="round" stroke-linejoin="round" stroke-width=".6"/><path d="M433.411,111.055s4.214-4.6,11.636-1.701c0,0,4.076,1.436,6.174,5.55l-22.434,30.633" fill="none" stroke="#2d2a26" stroke-linecap="round" stroke-linejoin="round" stroke-width=".6"/><path d="M437.138,142.646l3.546-4.583s1.254-2.551.995-5.751" fill="none" stroke="#2d2a26" stroke-linecap="round" stroke-linejoin="round" stroke-width=".6"/><path d="M443.667,143.814l3.546-4.583s1.513-4.886.303-6.659" fill="none" stroke="#2d2a26" stroke-linecap="round" stroke-linejoin="round" stroke-width=".6"/><ellipse cx="471.034" cy="169.926" rx="4.066" ry="4.991" transform="translate(89.714 494.491) rotate(-60.24)" fill="none" stroke="#2d2a26" stroke-linecap="round" stroke-linejoin="round" stroke-width=".6"/><path d="M439.524,106.988s4.323-3.517,9.819-1.172,5.203,9.599,5.203,9.599" fill="none" stroke="#2d2a26" stroke-linecap="round" stroke-linejoin="round" stroke-width=".6"/><line x1="451.221" y1="114.905" x2="457.549" y2="116.147" fill="none" stroke="#2d2a26" stroke-linecap="round" stroke-linejoin="round" stroke-width=".6"/><line x1="454.325" y1="106.771" x2="454.325" y2="112.741" fill="none" stroke="#2d2a26" stroke-miterlimit="10" stroke-width=".6"/><path d="M404.057,97.371s.138-10.609,2.894-14.744l37.813-49.884" fill="none" stroke="#2d2a26" stroke-linecap="round" stroke-linejoin="round" stroke-width=".6"/><line x1="416.894" y1="158.963" x2="420.238" y2="159.724" fill="none" stroke="#2d2a26" stroke-linecap="round" stroke-linejoin="round" stroke-width=".6"/><line x1="416.894" y1="163.725" x2="420.134" y2="164.227" fill="none" stroke="#2d2a26" stroke-linecap="round" stroke-linejoin="round" stroke-width=".6"/><path d="M297.209,171.871l9.97-13.959.019-12.084c.118-2.831-2.477-2.713-2.477-2.713l-4.494-.834" fill="none" stroke="#2d2a26" stroke-linecap="round" stroke-linejoin="round" stroke-width=".6"/><line x1="327.765" y1="51.169" x2="345.316" y2="27.177" fill="none" stroke="#2d2a26" stroke-miterlimit="10" stroke-width=".6"/><path d="M316.266,124.786l2.366-3.272,9.483,1.649c1.982,0,2.973-1.982,2.973-1.982l7.956-11.261v-4.429s-1.148-1.428-1.148-1.428" fill="none" stroke="#2d2a26" stroke-linecap="round" stroke-linejoin="round" stroke-width=".6"/><path d="M327.662,78.702c-1.047.984-3.078.778-3.078.778,0,0-4.903-.857-6.458-1.127-1.555-.27-1.629-.792-1.629-.792l-.043-25.059s.355-1.495,2.534-1.293c0,0-2.771-.639-2.078-2.889.406-1.318,1.834-.869,1.834-.869l6.77,1.258c2.816.659,2.217,5.032,2.217,5.032l.434,63.637" fill="none" stroke="#2d2a26" stroke-linecap="round" stroke-linejoin="round" stroke-width=".6"/><path d="M323.509,127.543l-4.779,6.528v-3.88l-11.54,16.284-.462-.853-10.314,14.102s-.326.874-1.45.744c-1.124-.13-5.059-.908-5.059-.908,0,0-1.297-.476-1.124-1.6" fill="none" stroke="#2d2a26" stroke-linecap="round" stroke-linejoin="round" stroke-width=".6"/><path d="M325.688,79.535s.148,26.337.173,37.395l2.304.448,11.648-15.615.192,2.88" fill="none" stroke="#2d2a26" stroke-linecap="round" stroke-linejoin="round" stroke-width=".6"/><path d="M269.234,183.727l-3.334,2.613s-1.362-3.837-5.136-4.235c-3.773-.397-5.649,2.058-5.649,2.058l-1.655-.265v2.505l1.192,2.251s4.237,7.48,10.459,3.244l1.059-1.522,2.78-1.38" fill="none" stroke="#2d2a26" stroke-linecap="round" stroke-linejoin="round" stroke-width=".6"/><line x1="275.382" y1="88.179" x2="270.023" y2="95.432" fill="none" stroke="#2d2a26" stroke-linecap="round" stroke-linejoin="round" stroke-width=".6"/><path d="M280.828,150.168l-.152-52.601-11.942-2.229-2.425,3.516-2.657-.608-5.188,7.031s-1.066,1.024-1.066,4.819l.102,50.311,5.778,1.016,10.909-5.657,4.974-3.336,1.668-2.263Z" fill="none" stroke="#2d2a26" stroke-linecap="round" stroke-linejoin="round" stroke-width=".6"/><path d="M280.675,97.568c-.618,2.349-2.695,3.253-2.695,3.253l-13.072,6.204s-2.65.723-2.229,4.217v50.07" fill="none" stroke="#2d2a26" stroke-linecap="round" stroke-linejoin="round" stroke-width=".6"/><line x1="257.741" y1="109.073" x2="262.439" y2="109.856" fill="none" stroke="#2d2a26" stroke-linecap="round" stroke-linejoin="round" stroke-width=".6"/><line x1="278.068" y1="107.631" x2="278.068" y2="149.677" fill="none" stroke="#2d2a26" stroke-linecap="round" stroke-linejoin="round" stroke-width=".75"/><line x1="275.259" y1="114.099" x2="275.259" y2="147.124" fill="none" stroke="#2d2a26" stroke-linecap="round" stroke-linejoin="round" stroke-width=".75"/><line x1="272.025" y1="120.653" x2="272.025" y2="143.294" fill="none" stroke="#2d2a26" stroke-linecap="round" stroke-linejoin="round" stroke-width=".75"/><line x1="268.28" y1="126.015" x2="268.28" y2="139.719" fill="none" stroke="#2d2a26" stroke-linecap="round" stroke-linejoin="round" stroke-width=".75"/><line x1="265.301" y1="131.718" x2="265.301" y2="136.229" fill="none" stroke="#2d2a26" stroke-linecap="round" stroke-linejoin="round" stroke-width=".75"/><line x1="280.898" y1="141.144" x2="295.168" y2="121.061" fill="none" stroke="#2d2a26" stroke-linecap="round" stroke-linejoin="round" stroke-width=".6"/><path d="M321.047,29.327l-4.596-.865s-3.391,1.38-3.81,7.138" fill="none" stroke="#2d2a26" stroke-linecap="round" stroke-linejoin="round" stroke-width=".6"/><path d="M311.403,41.21l-29.154,41.178s-4.008,4.706-3.883,14.727" fill="none" stroke="#2d2a26" stroke-linecap="round" stroke-linejoin="round" stroke-width=".6"/><path d="M318.025,46.732s7.7-10.415,8.881-12.29,2.431-1.598,2.431-1.598l1.598-2.362-3.761-.742-3.757-.741-2.097,1.857v7.548l2.217.3" fill="none" stroke="#2d2a26" stroke-linecap="round" stroke-linejoin="round" stroke-width=".6"/><path d="M271.306,173.816c-6.307-4.865-11.945-2.071-11.945-2.071,0,0-5.24,1.37-4.526,9.111" fill="none" stroke="#2d2a26" stroke-linecap="round" stroke-linejoin="round" stroke-width=".6"/><path d="M255.687,179.753s-.239-7.571,8.715-7.076c0,0,3.558.306,5.822,2.672l-2.343,1.081c-6.037-2.793-8.289,1.351-8.289,1.351l-.648,1.467-1.727-.357-3.756,5.007" fill="none" stroke="#2d2a26" stroke-linecap="round" stroke-linejoin="round" stroke-width=".6"/><path d="M281.848,180.721v-5.103l-1.712-1.892-5.316-1.171-2.613.991-2.883,4.054-.09,20.092s.27,1.622,2.883,2.162c2.613.541,54.443,9.87,54.443,9.87,0,0,3.13,1.302,5.562-2.212s9.28-12.704,9.28-12.704v-12.794s-.45-2.523-2.072-2.703-58.474-10.271-58.474-10.271" fill="none" stroke="#2d2a26" stroke-linecap="round" stroke-linejoin="round" stroke-width=".6"/><polyline points="278.147 193.665 278.116 183.589 280.286 180.551 331.335 189.758 332.325 190.86 340.643 180.313" fill="none" stroke="#2d2a26" stroke-linecap="round" stroke-linejoin="round" stroke-width=".6"/><path d="M330.033,189.649c-.76,3.364-4.341,2.279-4.341,2.279l-47.359-8.231" fill="none" stroke="#2d2a26" stroke-linecap="round" stroke-linejoin="round" stroke-width=".6"/><line x1="330.575" y1="209.182" x2="330.575" y2="193.23" fill="none" stroke="#2d2a26" stroke-linecap="round" stroke-linejoin="round" stroke-width=".6"/><path d="M269.482,192.254l9.441,1.628s.527,2.713-2.589,2.202l-4.124-.76s-2.837-.248-2.728-3.07Z" fill="none" stroke="#2d2a26" stroke-linecap="round" stroke-linejoin="round" stroke-width=".6"/><path d="M282.417,138.432s4.214-4.6,11.636-1.701c0,0,4.076,1.436,6.174,5.55l-22.434,30.633" fill="none" stroke="#2d2a26" stroke-linecap="round" stroke-linejoin="round" stroke-width=".6"/><path d="M286.144,170.023l3.546-4.583s1.254-2.551.995-5.751" fill="none" stroke="#2d2a26" stroke-linecap="round" stroke-linejoin="round" stroke-width=".6"/><path d="M292.673,171.19l3.546-4.583s1.513-4.886.303-6.659" fill="none" stroke="#2d2a26" stroke-linecap="round" stroke-linejoin="round" stroke-width=".6"/><ellipse cx="320.04" cy="197.303" rx="4.066" ry="4.991" transform="translate(-10.098 377.199) rotate(-60.24)" fill="none" stroke="#2d2a26" stroke-linecap="round" stroke-linejoin="round" stroke-width=".6"/><path d="M274.188,96.311s.138-8.27,2.894-12.405l35.487-49.412" fill="none" stroke="#2d2a26" stroke-linecap="round" stroke-linejoin="round" stroke-width=".6"/><line x1="265.9" y1="186.339" x2="269.244" y2="187.101" fill="none" stroke="#2d2a26" stroke-linecap="round" stroke-linejoin="round" stroke-width=".6"/><line x1="265.9" y1="191.101" x2="269.141" y2="191.604" fill="none" stroke="#2d2a26" stroke-linecap="round" stroke-linejoin="round" stroke-width=".6"/><line x1="257.574" y1="172.519" x2="266.745" y2="160.132" fill="none" stroke="#2d2a26" stroke-linecap="round" stroke-linejoin="round" stroke-width=".6"/><path d="M306.078,142.821l10.025-13.622v-15.745s.234-9.551,3.807-10.22c0,0,.852.254.911,3.498v15.155" fill="none" stroke="#2d2a26" stroke-linecap="round" stroke-linejoin="round" stroke-width=".6"/><path d="M295.109,131.676v-18.045s-.413-6.133,2.418-9.848l18.969-26.223" fill="none" stroke="#2d2a26" stroke-linecap="round" stroke-linejoin="round" stroke-width=".6"/><line x1="318.549" y1="104.432" x2="318.633" y2="121.514" fill="none" stroke="#2d2a26" stroke-linecap="round" stroke-linejoin="round" stroke-width=".6"/><line x1="339.045" y1="106.002" x2="344.484" y2="98.882" fill="none" stroke="#2d2a26" stroke-linecap="round" stroke-linejoin="round" stroke-width=".6"/><polyline points="264.594 98.303 289.089 64.387 290.45 64.073" fill="none" stroke="#2d2a26" stroke-linecap="round" stroke-linejoin="round" stroke-width=".6"/><line x1="312.642" y1="35.6" x2="303.325" y2="95.058" fill="none" stroke="#2d2a26" stroke-linecap="round" stroke-linejoin="round" stroke-width=".6"/><path d="M321.047,29.327s-2.753,1.562-3.695,7.738l-7.432,49.095" fill="none" stroke="#2d2a26" stroke-linecap="round" stroke-linejoin="round" stroke-width=".6"/><line x1="324.196" y1="37.386" x2="327.174" y2="29.74" fill="none" stroke="#2d2a26" stroke-linecap="round" stroke-linejoin="round" stroke-width=".6"/><path d="M316.692,53.171l7.618,1.327s2.319.451,3.42-.757" fill="none" stroke="#2d2a26" stroke-linecap="round" stroke-linejoin="round" stroke-width=".6"/><path d="M325.391,85.135l-15.165,20.672s-1.864,2.118-1.694,5.93,2.542.678,2.542.678l14.487-20.079" fill="none" stroke="#2d2a26" stroke-linecap="round" stroke-linejoin="round" stroke-width=".6"/><path d="M288.049,135.728s2.72-6.237,10.235-2.626c6.912,3.322,5.091,9.324,5.091,9.324" fill="none" stroke="#2d2a26" stroke-linecap="round" stroke-linejoin="round" stroke-width=".6"/><path d="M303.364,129.02l2.049-2.821,2.863.457-.133,1.57-4.501,5.948-4.769-1.232-.054-4.715,4.545.794-.169-15.08c.085-4.49,1.779-7.879,1.779-7.879l19.61-26.582" fill="none" stroke="#2d2a26" stroke-linecap="round" stroke-linejoin="round" stroke-width=".6"/><line x1="303.481" y1="138.675" x2="303.267" y2="134.335" fill="none" stroke="#2d2a26" stroke-linecap="round" stroke-linejoin="round" stroke-width=".6"/><line x1="321.349" y1="121.783" x2="325.623" y2="116.042" fill="none" stroke="#2d2a26" stroke-linecap="round" stroke-linejoin="round" stroke-width=".6"/><line x1="100.546" y1="51.169" x2="118.097" y2="27.177" fill="none" stroke="#000" stroke-miterlimit="10" stroke-width=".6"/><path d="M89.047,124.786l2.366-3.272,9.483,1.649c1.982,0,2.973-1.982,2.973-1.982l7.956-11.261v-4.429s-1.148-1.428-1.148-1.428" fill="none" stroke="#000" stroke-linecap="round" stroke-linejoin="round" stroke-width=".6"/><path d="M100.443,78.702c-1.047.984-3.078.778-3.078.778,0,0-4.903-.857-6.458-1.127-1.555-.27-1.629-.792-1.629-.792l-.043-25.059s.355-1.495,2.534-1.293c0,0-2.771-.639-2.078-2.889.406-1.318,1.834-.869,1.834-.869l6.77,1.258c2.816.659,2.217,5.032,2.217,5.032l.434,63.637" fill="none" stroke="#000" stroke-linecap="round" stroke-linejoin="round" stroke-width=".6"/><path d="M98.469,79.535s.148,26.337.173,37.395l2.304.448,11.648-15.615.192,2.88" fill="none" stroke="#000" stroke-linecap="round" stroke-linejoin="round" stroke-width=".6"/><path d="M21.828,164.736l-3.54.843-2.192,2.866.084,5.395,2.697,3.035,26.048,4.805.169,2.95-3.363,4.364-2.78,1.38-1.059,1.522c-6.222,4.237-10.459-3.244-10.459-3.244l-1.192-2.251v-2.505l1.655.265s1.801-2.627,5.574-2.23c3.773.397,5.211,4.407,5.211,4.407" fill="none" stroke="#000" stroke-linecap="round" stroke-linejoin="round" stroke-width=".6"/><line x1="48.163" y1="88.179" x2="42.804" y2="95.432" fill="none" stroke="#000" stroke-linecap="round" stroke-linejoin="round" stroke-width=".6"/><path d="M53.492,110.023l-.036-12.455-11.942-2.229-2.425,3.516-2.657-.608-5.188,7.031s-1.066,1.024-1.066,4.819l-.008,8.164" fill="none" stroke="#2d2a26" stroke-linecap="round" stroke-linejoin="round" stroke-width=".6"/><path d="M53.456,97.568c-.618,2.349-2.695,3.253-2.695,3.253l-13.072,6.204s-2.65.723-2.229,4.217" fill="none" stroke="#2d2a26" stroke-linecap="round" stroke-linejoin="round" stroke-width=".6"/><line x1="30.521" y1="109.073" x2="35.22" y2="109.856" fill="none" stroke="#2d2a26" stroke-linecap="round" stroke-linejoin="round" stroke-width=".6"/><line x1="61.24" y1="130.369" x2="67.949" y2="121.061" fill="none" stroke="#000" stroke-linecap="round" stroke-linejoin="round" stroke-width=".6"/><path d="M93.828,29.327l-4.596-.865s-3.391,1.38-3.81,7.138" fill="none" stroke="#000" stroke-linecap="round" stroke-linejoin="round" stroke-width=".6"/><path d="M84.184,41.21l-29.154,41.178s-4.008,4.706-3.883,14.727" fill="none" stroke="#000" stroke-linecap="round" stroke-linejoin="round" stroke-width=".6"/><path d="M90.806,46.732s7.7-10.415,8.881-12.29,2.431-1.598,2.431-1.598l1.598-2.362-3.761-.742-3.757-.741-2.097,1.857v7.548l2.217.3" fill="none" stroke="#000" stroke-linecap="round" stroke-linejoin="round" stroke-width=".6"/><polyline points="26.241 183.898 29.182 180.12 30.943 181.806" fill="none" stroke="#000" stroke-linecap="round" stroke-linejoin="round" stroke-width=".6"/><path d="M46.968,96.311s.138-8.27,2.894-12.405l35.487-49.412" fill="none" stroke="#000" stroke-linecap="round" stroke-linejoin="round" stroke-width=".6"/><polyline points="38.681 186.339 41.136 186.102 44.422 181.595" fill="none" stroke="#000" stroke-linecap="round" stroke-linejoin="round" stroke-width=".6"/><path d="M93.601,121.887v-15.155c-.059-3.243-.911-3.498-.911-3.498-3.573.669-3.807,10.22-3.807,10.22v15.745l-12.363,16.927-1.81-.467" fill="none" stroke="#000" stroke-linecap="round" stroke-linejoin="round" stroke-width=".6"/><path d="M67.89,131.676v-18.045s-.413-6.133,2.418-9.848l18.969-26.223" fill="none" stroke="#000" stroke-linecap="round" stroke-linejoin="round" stroke-width=".6"/><line x1="91.33" y1="104.432" x2="91.413" y2="121.514" fill="none" stroke="#000" stroke-linecap="round" stroke-linejoin="round" stroke-width=".6"/><line x1="111.826" y1="106.002" x2="117.265" y2="98.882" fill="none" stroke="#000" stroke-linecap="round" stroke-linejoin="round" stroke-width=".6"/><polyline points="37.374 98.303 61.869 64.387 63.23 64.073" fill="none" stroke="#000" stroke-linecap="round" stroke-linejoin="round" stroke-width=".6"/><line x1="85.422" y1="35.6" x2="76.106" y2="95.058" fill="none" stroke="#000" stroke-linecap="round" stroke-linejoin="round" stroke-width=".6"/><path d="M93.828,29.327s-2.753,1.562-3.695,7.738l-7.432,49.095" fill="none" stroke="#000" stroke-linecap="round" stroke-linejoin="round" stroke-width=".6"/><line x1="96.977" y1="37.386" x2="99.955" y2="29.74" fill="none" stroke="#000" stroke-linecap="round" stroke-linejoin="round" stroke-width=".6"/><path d="M89.473,53.171l7.618,1.327s2.319.451,3.42-.757" fill="none" stroke="#000" stroke-linecap="round" stroke-linejoin="round" stroke-width=".6"/><path d="M98.172,85.135l-15.165,20.672s-1.864,2.118-1.694,5.93,2.542.678,2.542.678l14.487-20.079" fill="none" stroke="#000" stroke-linecap="round" stroke-linejoin="round" stroke-width=".6"/><path d="M71.636,132.352l-.036-4.126,4.545.794-.169-15.08c.085-4.49,1.779-7.879,1.779-7.879l19.61-26.582" fill="none" stroke="#000" stroke-linecap="round" stroke-linejoin="round" stroke-width=".6"/><polyline points="76.145 129.02 78.235 126.184 81.007 126.611 80.924 128.226 76.553 133.982 74.212 133.592" fill="none" stroke="#000" stroke-linecap="round" stroke-linejoin="round" stroke-width=".6"/><line x1="94.13" y1="121.783" x2="98.404" y2="116.042" fill="none" stroke="#000" stroke-linecap="round" stroke-linejoin="round" stroke-width=".6"/><path d="M72.601,133.516l-17.058,22.851-.032-21.885-.032-21.821c-.064-2.768-2.897-3.025-2.897-3.025,0,0-9.333-1.545-11.779-2.06-2.446-.515-2.897,1.352-2.897,1.352l-5.92,8.057s-.785,1.865-3.927,2.307c0,0-3.731.295-4.86,2.307,0,0-1.227,1.669-1.473,4.958l.133,41.825s-.253,1.771,1.349,2.023,9.106,1.518,9.106,1.518c0,0,1.686.337,1.771,1.939v2.951s-.506,2.192,1.349,3.035" fill="none" stroke="#000" stroke-linecap="round" stroke-linejoin="round" stroke-width=".6"/><path d="M55.929,133.838l2.06-2.703s-.257-1.416,4.377-.451,10.368,2.023,10.368,2.023c0,0,1.665-.106,1.63,2.516v11.693s.461,2.657-1.205,5.173c-1.665,2.516-25.185,34.513-25.185,34.513,0,0-2.614,4.948-9.536,4.465" fill="none" stroke="#000" stroke-linecap="round" stroke-linejoin="round" stroke-width=".6"/><path d="M40.323,180.86c-1.18-.253-1.265-2.192-1.265-2.192l-.084-49.069s.084-3.878,4.216-5.396l10.302-14.18" fill="none" stroke="#000" stroke-linecap="round" stroke-linejoin="round" stroke-width=".6"/><line x1="21.727" y1="126.557" x2="38.845" y2="129.816" fill="none" stroke="#000" stroke-linecap="round" stroke-linejoin="round" stroke-width=".6"/><ellipse cx="28.162" cy="134.013" rx="4.401" ry="5.012" transform="translate(-105.926 106.212) rotate(-66.419)" fill="none" stroke="#000" stroke-linecap="round" stroke-linejoin="round" stroke-width=".6"/><polyline points="43.068 181.18 48.478 174.541 48.805 185.114" fill="none" stroke="#000" stroke-linecap="round" stroke-linejoin="round" stroke-width=".6"/><path d="M44.269,179.366l.111-53.099s-.003-1.834-1.19-2.064" fill="none" stroke="#000" stroke-linecap="round" stroke-linejoin="round" stroke-width=".6"/><line x1="75.961" y1="133.994" x2="75.92" y2="145.717" fill="none" stroke="#000" stroke-linecap="round" stroke-linejoin="round" stroke-width=".6"/><line x1="16.764" y1="167.597" x2="21.514" y2="168.562" fill="none" stroke="#000" stroke-linecap="round" stroke-linejoin="round" stroke-width=".6"/><line x1="31.508" y1="181.975" x2="31.508" y2="179.554" fill="none" stroke="#000" stroke-linecap="round" stroke-linejoin="round" stroke-width=".6"/><path d="M579.242,118.259V52.949c.241-2.976-2.735-3.298-2.735-3.298l-6.498-1.203s-1.243-.327-1.767,1.276,2.388,2.486,2.388,2.486c0,0-2.355-.229-2.552.981,0,0-.229.72,1.668,1.08s6.019,1.21,6.019,1.21c0,0,1.93.393,3.435-.687" fill="none" stroke="#2d2a26" stroke-miterlimit="10" stroke-width=".6"/><line x1="579.292" y1="52.229" x2="596.842" y2="28.237" fill="none" stroke="#2d2a26" stroke-miterlimit="10" stroke-width=".6"/><path d="M573.78,123.212l4.196.816s2.506.816,4.08-1.282c1.574-2.098,8.509-11.715,8.509-11.715v-4.429l-1.057-.977" fill="none" stroke="#2d2a26" stroke-linecap="round" stroke-linejoin="round" stroke-width=".6"/><path d="M568.023,53.213v25.408s.074.522,1.629.792c1.555.27,6.458,1.127,6.458,1.127,0,0,2.031.206,3.078-.778" fill="none" stroke="#2d2a26" stroke-miterlimit="10" stroke-width=".6"/><path d="M568.477,79.139s-1.059,1.589-.927,5.163v19.66" fill="none" stroke="#2d2a26" stroke-miterlimit="10" stroke-width=".6"/><path d="M577.215,80.595s.274,37.642.062,37.43l2.564.466,11.54-15.678v3.147l4.779-6.528" fill="none" stroke="#2d2a26" stroke-linecap="round" stroke-linejoin="round" stroke-width=".6"/><path d="M555.502,106.543l2.449-3.442s.463-.861,2.052-.463,12.312,2.317,12.312,2.317c0,0,1.853,0,1.787,2.449s0,11.981,0,11.981c0,0,.794,2.449-1.787,5.958l-24.426,33.495s-3.111,5.362-9.4,4.634" fill="none" stroke="#2d2a26" stroke-linecap="round" stroke-linejoin="round" stroke-width=".6"/><polyline points="532.202 151.755 532.202 98.628 520.259 96.399 517.835 99.915 515.471 99.43" fill="none" stroke="#2d2a26" stroke-linecap="round" stroke-linejoin="round" stroke-width=".6"/><path d="M526.112,156.521v2.052l1.192,2.251s4.237,7.48,10.459,3.244l1.059-1.522,2.78-.927,3.508-4.634v-2.979l-12.312-2.147" fill="none" stroke="#2d2a26" stroke-linecap="round" stroke-linejoin="round" stroke-width=".6"/><path d="M543.918,154.27l-3.045,4.237-1.853.53s-1.986-4.369-5.759-4.766-5.494,2.515-5.494,2.515l-1.655-.265" fill="none" stroke="#2d2a26" stroke-linecap="round" stroke-linejoin="round" stroke-width=".6"/><polyline points="543.19 153.278 548.419 146.724 548.419 158.11" fill="none" stroke="#2d2a26" stroke-linecap="round" stroke-linejoin="round" stroke-width=".6"/><path d="M572.316,104.955l-16.914,23.808v-42.723s.778-3.459-3.286-4.151l-11.848-2.162s-1.47-.432-2.854,1.73-6.227,9.167-6.227,9.167l-7.119,1.759-2.777,4.138" fill="none" stroke="#2d2a26" stroke-linecap="round" stroke-linejoin="round" stroke-width=".6"/><path d="M566.158,32.858l-56.168,73.48s-1.066,1.024-1.066,4.819l.102,49.877,5.778,1.016,15.88-8.339,1.517-1.956" fill="none" stroke="#2d2a26" stroke-linecap="round" stroke-linejoin="round" stroke-width=".6"/><path d="M515.51,99.116l-5.52,7.222s-1.066,1.024-1.066,4.819l.102,49.877,5.778,1.016,15.88-8.339,1.517-1.956" fill="none" stroke="#2d2a26" stroke-linecap="round" stroke-linejoin="round" stroke-width=".6"/><line x1="544.139" y1="151.99" x2="544.139" y2="95.317" fill="none" stroke="#2d2a26" stroke-linecap="round" stroke-linejoin="round" stroke-width=".6"/><path d="M552.89,82.317l-10.111,14.274s-3.399.798-3.993,5.327v50.782" fill="none" stroke="#2d2a26" stroke-linecap="round" stroke-linejoin="round" stroke-width=".6"/><line x1="532.158" y1="101.009" x2="538.687" y2="102.243" fill="none" stroke="#2d2a26" stroke-linecap="round" stroke-linejoin="round" stroke-width=".6"/><path d="M532.202,98.628c-.618,2.349-2.695,3.253-2.695,3.253l-13.072,6.204s-2.65.723-2.229,4.217v49.636" fill="none" stroke="#2d2a26" stroke-linecap="round" stroke-linejoin="round" stroke-width=".6"/><line x1="509.267" y1="110.133" x2="513.966" y2="110.916" fill="none" stroke="#2d2a26" stroke-linecap="round" stroke-linejoin="round" stroke-width=".6"/><line x1="529.595" y1="108.691" x2="529.595" y2="150.738" fill="none" stroke="#2d2a26" stroke-linecap="round" stroke-linejoin="round" stroke-width=".75"/><line x1="526.786" y1="115.16" x2="526.786" y2="148.184" fill="none" stroke="#2d2a26" stroke-linecap="round" stroke-linejoin="round" stroke-width=".75"/><line x1="523.551" y1="121.713" x2="523.551" y2="144.354" fill="none" stroke="#2d2a26" stroke-linecap="round" stroke-linejoin="round" stroke-width=".75"/><line x1="519.806" y1="127.076" x2="519.806" y2="140.779" fill="none" stroke="#2d2a26" stroke-linecap="round" stroke-linejoin="round" stroke-width=".75"/><line x1="516.827" y1="132.778" x2="516.827" y2="137.289" fill="none" stroke="#2d2a26" stroke-linecap="round" stroke-linejoin="round" stroke-width=".75"/><path d="M560.558,102.812l2.77-3.716s1.554-1.216,1.959,1.486,0,2.973,0,2.973" fill="none" stroke="#2d2a26" stroke-linecap="round" stroke-linejoin="round" stroke-width=".6"/><polyline points="571.368 104.569 571.368 100.677 575.624 101.461 575.624 83.759 576.11 80.539" fill="none" stroke="#2d2a26" stroke-linecap="round" stroke-linejoin="round" stroke-width=".6"/><line x1="571.079" y1="104.698" x2="573.799" y2="101.138" fill="none" stroke="#2d2a26" stroke-linecap="round" stroke-linejoin="round" stroke-width=".6"/><polyline points="573.799 106.109 575.983 106.478 577.057 105.134" fill="none" stroke="#2d2a26" stroke-linecap="round" stroke-linejoin="round" stroke-width=".6"/><line x1="575.512" y1="106.612" x2="575.512" y2="118.536" fill="none" stroke="#2d2a26" stroke-linecap="round" stroke-linejoin="round" stroke-width=".6"/><polyline points="574.102 118.267 576.05 118.67 577.225 117.092" fill="none" stroke="#2d2a26" stroke-linecap="round" stroke-linejoin="round" stroke-width=".6"/><line x1="561.842" y1="101.171" x2="565.369" y2="101.809" fill="none" stroke="#2d2a26" stroke-linecap="round" stroke-linejoin="round" stroke-width=".6"/><path d="M577.116,37.304l-2.558-9.261-4.596-.865s-3.785,1.514-3.406,7.218l.162,4.461s-.162,2.055-.865,3.758c-.554,1.343-1.838,5.191-1.838,5.191" fill="none" stroke="#2d2a26" stroke-linecap="round" stroke-linejoin="round" stroke-width=".6"/><path d="M573.859,27.97c-1.047.693-2.826,2.755-2.673,6.671l.162,4.461s-.162,2.055-.865,3.758c-.554,1.343-1.838,5.191-1.838,5.191" fill="none" stroke="#2d2a26" stroke-linecap="round" stroke-linejoin="round" stroke-width=".6"/><path d="M566.573,37.85l-33.059,45.388s-3.196,4.384-3.014,7.397" fill="none" stroke="#2d2a26" stroke-linecap="round" stroke-linejoin="round" stroke-width=".6"/><path d="M575.584,30.222l6.877,1.32-1.598,2.362s-1.25-.278-2.431,1.598-9.17,12.852-9.17,12.852" fill="none" stroke="#2d2a26" stroke-linecap="round" stroke-linejoin="round" stroke-width=".6"/><path d="M568.637,48.839l-6.498-1.053s-2.018.44-2.199,3.156l-.543,5.355,8.554,21.022" fill="none" stroke="#2d2a26" stroke-linecap="round" stroke-linejoin="round" stroke-width=".6"/><path d="M566.531,48.717s-2.018.44-2.199,3.156l-.543,5.355,4.022,9.884" fill="none" stroke="#2d2a26" stroke-linecap="round" stroke-linejoin="round" stroke-width=".6"/><path d="M526.398,91.61s-.461-4.838,5.644-13.938" fill="none" stroke="#2d2a26" stroke-linecap="round" stroke-linejoin="round" stroke-width=".6"/><line x1="215.533" y1="151.704" x2="215.868" y2="151.764" fill="none" stroke="#2d2a26" stroke-miterlimit="2" stroke-width="1.211"/><line x1="215.523" y1="151.703" x2="215.535" y2="151.703" fill="none" stroke="#2d2a26" stroke-miterlimit="2" stroke-width="1.211"/><line x1="232.926" y1="5.167" x2="232.926" y2="246.506" fill="none" stroke="#000" stroke-miterlimit="10" stroke-width="1.2"/><line x1="368.794" y1="5.167" x2="368.794" y2="246.506" fill="none" stroke="#000" stroke-miterlimit="10" stroke-width="1.2"/><path d="M344.175,157.026c0,7.593-6.246,13.745-13.95,13.745s-13.953-6.152-13.953-13.745,6.246-13.755,13.953-13.755,13.95,6.159,13.95,13.755" fill="#231f1f" stroke="#fff" stroke-miterlimit="10" stroke-width="1.5"/><path d="M335.3,162.294v1.774h-9.936c-.014-.444.058-.872.215-1.282.253-.677.658-1.343,1.215-2,.557-.656,1.362-1.415,2.415-2.276,1.634-1.34,2.738-2.401,3.312-3.184s.861-1.523.861-2.22c0-.731-.262-1.348-.784-1.851-.523-.502-1.205-.753-2.046-.753-.889,0-1.6.267-2.133.8s-.803,1.271-.81,2.215l-1.897-.195c.13-1.415.619-2.493,1.466-3.235.848-.741,1.986-1.112,3.415-1.112,1.442,0,2.584.4,3.425,1.2s1.261,1.791,1.261,2.974c0,.602-.123,1.193-.369,1.774s-.655,1.193-1.225,1.835c-.571.643-1.52,1.524-2.846,2.646-1.107.93-1.818,1.561-2.133,1.892s-.574.665-.779,1h7.373Z" fill="#fff" stroke-width="0"/><path d="M163.063,171.871l9.97-13.959.019-12.084c.118-2.831-2.477-2.713-2.477-2.713l-4.494-.834" fill="none" stroke="#2d2a26" stroke-linecap="round" stroke-linejoin="round" stroke-width=".6"/><line x1="193.619" y1="51.169" x2="211.169" y2="27.177" fill="none" stroke="#2d2a26" stroke-miterlimit="10" stroke-width=".6"/><path d="M182.12,124.786l2.366-3.272,9.483,1.649c1.982,0,2.973-1.982,2.973-1.982l7.956-11.261v-4.429s-1.148-1.428-1.148-1.428" fill="none" stroke="#2d2a26" stroke-linecap="round" stroke-linejoin="round" stroke-width=".6"/><path d="M193.516,78.702c-1.047.984-3.078.778-3.078.778,0,0-4.903-.857-6.458-1.127-1.555-.27-1.629-.792-1.629-.792l-.043-25.059s.355-1.495,2.534-1.293c0,0-2.771-.639-2.078-2.889.406-1.318,1.834-.869,1.834-.869l6.77,1.258c2.816.659,2.217,5.032,2.217,5.032l.434,63.637" fill="none" stroke="#2d2a26" stroke-linecap="round" stroke-linejoin="round" stroke-width=".6"/><path d="M189.363,127.543l-4.779,6.528v-3.88l-11.54,16.284-.462-.853-10.314,14.102s-.326.874-1.45.744c-1.124-.13-5.059-.908-5.059-.908,0,0-1.297-.476-1.124-1.6" fill="none" stroke="#2d2a26" stroke-linecap="round" stroke-linejoin="round" stroke-width=".6"/><path d="M191.542,79.535s.148,26.337.173,37.395l2.304.448,11.648-15.615.192,2.88" fill="none" stroke="#2d2a26" stroke-linecap="round" stroke-linejoin="round" stroke-width=".6"/><path d="M135.087,183.727l-3.334,2.613s-1.362-3.837-5.136-4.235c-3.773-.397-5.649,2.058-5.649,2.058l-1.655-.265v2.505l1.192,2.251s4.237,7.48,10.459,3.244l1.059-1.522,2.78-1.38" fill="none" stroke="#2d2a26" stroke-linecap="round" stroke-linejoin="round" stroke-width=".6"/><line x1="141.236" y1="88.179" x2="135.877" y2="95.432" fill="none" stroke="#2d2a26" stroke-linecap="round" stroke-linejoin="round" stroke-width=".6"/><path d="M146.681,150.168l-.152-52.601-11.942-2.229-2.425,3.516-2.657-.608-5.188,7.031s-1.066,1.024-1.066,4.819l.102,50.311,5.778,1.016,10.909-5.657,4.974-3.336,1.668-2.263Z" fill="none" stroke="#2d2a26" stroke-linecap="round" stroke-linejoin="round" stroke-width=".6"/><path d="M146.529,97.568c-.618,2.349-2.695,3.253-2.695,3.253l-13.072,6.204s-2.65.723-2.229,4.217v50.07" fill="none" stroke="#2d2a26" stroke-linecap="round" stroke-linejoin="round" stroke-width=".6"/><line x1="123.594" y1="109.073" x2="128.293" y2="109.856" fill="none" stroke="#2d2a26" stroke-linecap="round" stroke-linejoin="round" stroke-width=".6"/><line x1="143.922" y1="107.631" x2="143.922" y2="149.677" fill="none" stroke="#2d2a26" stroke-linecap="round" stroke-linejoin="round" stroke-width=".75"/><line x1="141.113" y1="114.099" x2="141.113" y2="147.124" fill="none" stroke="#2d2a26" stroke-linecap="round" stroke-linejoin="round" stroke-width=".75"/><line x1="137.879" y1="120.653" x2="137.879" y2="143.294" fill="none" stroke="#2d2a26" stroke-linecap="round" stroke-linejoin="round" stroke-width=".75"/><line x1="134.134" y1="126.015" x2="134.134" y2="139.719" fill="none" stroke="#2d2a26" stroke-linecap="round" stroke-linejoin="round" stroke-width=".75"/><line x1="131.155" y1="131.718" x2="131.155" y2="136.229" fill="none" stroke="#2d2a26" stroke-linecap="round" stroke-linejoin="round" stroke-width=".75"/><line x1="146.752" y1="141.144" x2="161.022" y2="121.061" fill="none" stroke="#2d2a26" stroke-linecap="round" stroke-linejoin="round" stroke-width=".6"/><path d="M186.901,29.327l-4.596-.865s-3.391,1.38-3.81,7.138" fill="none" stroke="#2d2a26" stroke-linecap="round" stroke-linejoin="round" stroke-width=".6"/><path d="M177.257,41.21l-29.154,41.178s-4.008,4.706-3.883,14.727" fill="none" stroke="#2d2a26" stroke-linecap="round" stroke-linejoin="round" stroke-width=".6"/><path d="M183.879,46.732s7.7-10.415,8.881-12.29,2.431-1.598,2.431-1.598l1.598-2.362-3.761-.742-3.757-.741-2.097,1.857v7.548l2.217.3" fill="none" stroke="#2d2a26" stroke-linecap="round" stroke-linejoin="round" stroke-width=".6"/><path d="M137.16,173.816c-6.307-4.865-11.945-2.071-11.945-2.071,0,0-5.24,1.37-4.526,9.111" fill="none" stroke="#2d2a26" stroke-linecap="round" stroke-linejoin="round" stroke-width=".6"/><path d="M121.54,179.753s-.239-7.571,8.715-7.076c0,0,3.558.306,5.822,2.672l-2.343,1.081c-6.037-2.793-8.289,1.351-8.289,1.351l-.648,1.467-1.727-.357-3.756,5.007" fill="none" stroke="#2d2a26" stroke-linecap="round" stroke-linejoin="round" stroke-width=".6"/><path d="M147.701,180.721v-5.103l-1.712-1.892-5.316-1.171-2.613.991-2.883,4.054-.09,20.092s.27,1.622,2.883,2.162c2.613.541,54.443,9.87,54.443,9.87,0,0,3.13,1.302,5.562-2.212s9.28-12.704,9.28-12.704v-12.794s-.45-2.523-2.072-2.703-58.474-10.271-58.474-10.271" fill="none" stroke="#2d2a26" stroke-linecap="round" stroke-linejoin="round" stroke-width=".6"/><polyline points="144.001 193.665 143.969 183.589 146.14 180.551 197.188 189.758 198.178 190.86 206.497 180.313" fill="none" stroke="#2d2a26" stroke-linecap="round" stroke-linejoin="round" stroke-width=".6"/><path d="M195.886,189.649c-.76,3.364-4.341,2.279-4.341,2.279l-47.359-8.231" fill="none" stroke="#2d2a26" stroke-linecap="round" stroke-linejoin="round" stroke-width=".6"/><polyline points="196.429 209.182 196.429 192.869 192.426 192.07" fill="none" stroke="#2d2a26" stroke-linecap="round" stroke-linejoin="round" stroke-width=".6"/><path d="M135.335,192.254l9.441,1.628s.527,2.713-2.589,2.202l-4.124-.76s-2.837-.248-2.728-3.07Z" fill="none" stroke="#2d2a26" stroke-linecap="round" stroke-linejoin="round" stroke-width=".6"/><path d="M148.27,138.432s4.214-4.6,11.636-1.701c0,0,4.076,1.436,6.174,5.55l-22.434,30.633" fill="none" stroke="#2d2a26" stroke-linecap="round" stroke-linejoin="round" stroke-width=".6"/><path d="M151.997,170.023l3.546-4.583s1.254-2.551.995-5.751" fill="none" stroke="#2d2a26" stroke-linecap="round" stroke-linejoin="round" stroke-width=".6"/><path d="M158.527,171.19l3.546-4.583s1.513-4.886.303-6.659" fill="none" stroke="#2d2a26" stroke-linecap="round" stroke-linejoin="round" stroke-width=".6"/><ellipse cx="185.893" cy="197.303" rx="4.066" ry="4.991" transform="translate(-77.659 260.745) rotate(-60.24)" fill="none" stroke="#2d2a26" stroke-linecap="round" stroke-linejoin="round" stroke-width=".6"/><path d="M140.041,96.311s.138-8.27,2.894-12.405l35.487-49.412" fill="none" stroke="#2d2a26" stroke-linecap="round" stroke-linejoin="round" stroke-width=".6"/><line x1="131.754" y1="186.339" x2="135.098" y2="187.101" fill="none" stroke="#2d2a26" stroke-linecap="round" stroke-linejoin="round" stroke-width=".6"/><line x1="131.754" y1="191.101" x2="134.994" y2="191.604" fill="none" stroke="#2d2a26" stroke-linecap="round" stroke-linejoin="round" stroke-width=".6"/><line x1="123.428" y1="172.519" x2="132.599" y2="160.132" fill="none" stroke="#2d2a26" stroke-linecap="round" stroke-linejoin="round" stroke-width=".6"/><path d="M171.931,142.821l10.025-13.622v-15.745s.234-9.551,3.807-10.22c0,0,.852.254.911,3.498v15.155" fill="none" stroke="#2d2a26" stroke-linecap="round" stroke-linejoin="round" stroke-width=".6"/><path d="M160.963,131.676v-18.045s-.413-6.133,2.418-9.848l18.969-26.223" fill="none" stroke="#2d2a26" stroke-linecap="round" stroke-linejoin="round" stroke-width=".6"/><line x1="184.402" y1="104.432" x2="184.486" y2="121.514" fill="none" stroke="#2d2a26" stroke-linecap="round" stroke-linejoin="round" stroke-width=".6"/><line x1="204.899" y1="106.002" x2="210.338" y2="98.882" fill="none" stroke="#2d2a26" stroke-linecap="round" stroke-linejoin="round" stroke-width=".6"/><polyline points="130.447 98.303 154.942 64.387 156.303 64.073" fill="none" stroke="#2d2a26" stroke-linecap="round" stroke-linejoin="round" stroke-width=".6"/><line x1="178.495" y1="35.6" x2="169.179" y2="95.058" fill="none" stroke="#2d2a26" stroke-linecap="round" stroke-linejoin="round" stroke-width=".6"/><path d="M186.901,29.327s-2.753,1.562-3.695,7.738l-7.432,49.095" fill="none" stroke="#2d2a26" stroke-linecap="round" stroke-linejoin="round" stroke-width=".6"/><line x1="190.05" y1="37.386" x2="193.028" y2="29.74" fill="none" stroke="#2d2a26" stroke-linecap="round" stroke-linejoin="round" stroke-width=".6"/><path d="M182.546,53.171l7.618,1.327s2.319.451,3.42-.757" fill="none" stroke="#2d2a26" stroke-linecap="round" stroke-linejoin="round" stroke-width=".6"/><path d="M191.245,85.135l-15.165,20.672s-1.864,2.118-1.694,5.93,2.542.678,2.542.678l14.487-20.079" fill="none" stroke="#2d2a26" stroke-linecap="round" stroke-linejoin="round" stroke-width=".6"/><path d="M153.902,135.728s2.72-6.237,10.235-2.626c6.912,3.322,5.091,9.324,5.091,9.324" fill="none" stroke="#2d2a26" stroke-linecap="round" stroke-linejoin="round" stroke-width=".6"/><path d="M169.218,129.02l2.049-2.821,2.863.457-.133,1.57-4.501,5.948-4.769-1.232-.054-4.715,4.545.794-.169-15.08c.085-4.49,1.779-7.879,1.779-7.879l19.61-26.582" fill="none" stroke="#2d2a26" stroke-linecap="round" stroke-linejoin="round" stroke-width=".6"/><line x1="169.335" y1="138.675" x2="169.12" y2="134.335" fill="none" stroke="#2d2a26" stroke-linecap="round" stroke-linejoin="round" stroke-width=".6"/><line x1="187.203" y1="121.783" x2="191.476" y2="116.042" fill="none" stroke="#2d2a26" stroke-linecap="round" stroke-linejoin="round" stroke-width=".6"/><path d="M219.114,144.315c0,7.593-6.246,13.745-13.95,13.745s-13.953-6.152-13.953-13.745,6.246-13.755,13.953-13.755,13.95,6.159,13.95,13.755" fill="#231f1f" stroke="#fff" stroke-miterlimit="10" stroke-width="1.5"/><path d="M207.492,151.357h-1.846v-11.761c-.444.424-1.027.848-1.749,1.271s-1.369.742-1.943.954v-1.784c1.032-.485,1.935-1.073,2.707-1.764s1.319-1.36,1.641-2.01h1.189v15.094Z" fill="#fff" stroke-width="0"/></g><g id="c"><path d="M463.287,154.367c2.325-17.357-5.993-35.447-21.807-43.747-2.819-1.48-5.92-2.471-8.967-3.448-1.606-.515-2.245-1.28-2.081-2.923.163-1.64.186-3.294.271-4.942-.171-.083-.341-.167-.512-.25-3.753,3.019-7.508,6.037-11.26,9.058-1.013.816-2.109,1.557-2.985,2.501-.352.379-.528,1.515-.257,1.793,4.274,4.391,8.634,8.699,12.982,13.018.064.064.234.021.683.048.086-1.37.204-2.745.251-4.121.112-3.294.325-3.476,3.444-2.213,11.404,4.616,17.97,13.049,19.43,25.264.367,3.07.382,6.03.034,8.867l10.775,1.097Z" fill="none" stroke="#fff" stroke-linecap="round" stroke-linejoin="round" stroke-width="3.081"/><path d="M463.287,154.367c2.325-17.357-5.993-35.447-21.807-43.747-2.819-1.48-5.92-2.471-8.967-3.448-1.606-.515-2.245-1.28-2.081-2.923.163-1.64.186-3.294.271-4.942-.171-.083-.341-.167-.512-.25-3.753,3.019-7.508,6.037-11.26,9.058-1.013.816-2.109,1.557-2.985,2.501-.352.379-.528,1.515-.257,1.793,4.274,4.391,8.634,8.699,12.982,13.018.064.064.234.021.683.048.086-1.37.204-2.745.251-4.121.112-3.294.325-3.476,3.444-2.213,11.404,4.616,17.97,13.049,19.43,25.264.367,3.07.382,6.03.034,8.867l10.775,1.097Z" fill="#000" stroke-width="0"/><polygon points="297.562 195.956 305.373 209.441 298.452 208.123 285.334 229.843 267.719 226.575 282.74 205.133 275.757 203.802 297.562 195.956" fill="#000" stroke="#fff" stroke-linecap="round" stroke-linejoin="round" stroke-width="3.17"/><polygon points="297.562 195.956 305.373 209.441 298.452 208.123 285.334 229.843 267.719 226.575 282.74 205.133 275.757 203.802 297.562 195.956" fill="#000" stroke-width="0"/><line x1="368.913" y1="5.24" x2="368.913" y2="246.578" fill="none" stroke="#000" stroke-miterlimit="10" stroke-width="1.2"/><path d="M342.857,156.38c0,7.593-6.246,13.745-13.95,13.745s-13.953-6.152-13.953-13.745,6.246-13.755,13.953-13.755,13.95,6.159,13.95,13.755" fill="#221f1f" stroke="#fff" stroke-miterlimit="10" stroke-width="1.5"/><path d="M333.982,161.648v1.774h-9.936c-.014-.444.058-.872.215-1.282.253-.677.658-1.343,1.215-2,.557-.656,1.362-1.415,2.415-2.276,1.634-1.34,2.738-2.401,3.312-3.184s.861-1.523.861-2.22c0-.731-.262-1.348-.784-1.851-.523-.502-1.205-.753-2.046-.753-.889,0-1.6.267-2.133.8s-.803,1.271-.81,2.215l-1.897-.195c.13-1.415.619-2.493,1.466-3.235.848-.741,1.986-1.112,3.415-1.112,1.442,0,2.584.4,3.425,1.2s1.261,1.791,1.261,2.974c0,.602-.123,1.193-.369,1.774s-.655,1.193-1.225,1.835c-.571.643-1.52,1.524-2.846,2.646-1.107.93-1.818,1.561-2.133,1.892s-.574.665-.779,1h7.373Z" fill="#fff" stroke-width="0"/><path d="M497.089,127.857c0,7.593-6.246,13.745-13.95,13.745s-13.953-6.152-13.953-13.745,6.246-13.755,13.953-13.755,13.95,6.159,13.95,13.755" fill="#221f1f" stroke="#fff" stroke-miterlimit="10" stroke-width="1.5"/><path d="M478.694,130.93l1.846-.246c.212,1.046.572,1.799,1.082,2.261.509.461,1.129.692,1.861.692.868,0,1.601-.301,2.2-.902.598-.602.897-1.347.897-2.235,0-.848-.277-1.546-.831-2.097-.554-.55-1.258-.825-2.112-.825-.349,0-.783.068-1.302.205l.205-1.62c.123.014.222.021.297.021.786,0,1.494-.205,2.123-.615s.943-1.042.943-1.897c0-.677-.229-1.237-.687-1.682s-1.049-.667-1.774-.667c-.718,0-1.316.226-1.794.677s-.786,1.128-.923,2.03l-1.846-.328c.226-1.237.738-2.196,1.538-2.876s1.794-1.021,2.984-1.021c.82,0,1.576.176,2.266.528s1.218.832,1.584,1.44.549,1.254.549,1.938c0,.649-.174,1.241-.523,1.774s-.865.957-1.548,1.271c.889.205,1.579.631,2.071,1.276.492.646.738,1.455.738,2.425,0,1.312-.479,2.425-1.436,3.337-.957.913-2.167,1.369-3.63,1.369-1.319,0-2.415-.393-3.286-1.179-.872-.786-1.369-1.805-1.492-3.056Z" fill="#fff" stroke-width="0"/><path d="M140.047,123.209c18.564-.682,36.815,8.236,43.965,25.781,1.275,3.128,2.005,6.503,2.725,9.82.379,1.748,1.122,2.501,2.874,2.496,1.748-.005,3.497.14,5.246.219.071.189.141.377.212.566-3.571,3.655-7.141,7.311-10.714,10.964-.965.987-1.859,2.068-2.945,2.897-.437.333-1.654.403-1.92.089-4.2-4.961-8.304-10.004-12.42-15.036-.061-.074.001-.249.02-.726,1.456.05,2.919.065,4.377.156,3.49.218,3.703.011,2.689-3.41-6.504-24.303-31.02-24.115-34.05-24.037l-.058-9.779Z" fill="none" stroke="#fff" stroke-linecap="round" stroke-linejoin="round" stroke-width="3.268"/><path d="M140.047,123.209c18.564-.682,36.815,8.236,43.965,25.781,1.275,3.128,2.005,6.503,2.725,9.82.379,1.748,1.122,2.501,2.874,2.496,1.748-.005,3.497.14,5.246.219.071.189.141.377.212.566-3.571,3.655-7.141,7.311-10.714,10.964-.965.987-1.859,2.068-2.945,2.897-.437.333-1.654.403-1.92.089-4.2-4.961-8.304-10.004-12.42-15.036-.061-.074.001-.249.02-.726,1.456.05,2.919.065,4.377.156,3.49.218,3.703.011,2.689-3.41-3.937-22.717-31.02-24.115-34.05-24.037l-.058-9.779Z" fill="#000" stroke-width="0"/></g></svg>