<?xml version="1.0" encoding="UTF-8"?><svg id="a" xmlns="http://www.w3.org/2000/svg" width="451.593" height="320.958" viewBox="0 0 451.593 320.958"><line x1="182.72" y1="37.343" x2="317.501" y2="37.343" fill="none" stroke="#1670b9" stroke-miterlimit="10" stroke-width="2.989"/><polyline points="180.977 206.129 276.773 206.129 276.773 102.724 317.501 102.724" fill="none" stroke="#fff" stroke-miterlimit="10" stroke-width="4.484"/><polyline points="180.977 206.091 276.773 206.091 276.773 102.724 317.501 102.724" fill="none" stroke="#f5a800" stroke-miterlimit="10" stroke-width="2.989"/><polyline points="180.977 59.443 262.643 59.443 262.643 130.775 317.501 130.775" fill="none" stroke="#fff" stroke-miterlimit="10" stroke-width="7.473"/><line x1="180.977" y1="59.09" x2="182.418" y2="59.09" fill="none" stroke="#1670b9" stroke-miterlimit="10" stroke-width="2.989"/><line x1="185.336" y1="59.09" x2="259.743" y2="59.09" fill="none" stroke="#1670b9" stroke-dasharray="0 0 2.918 2.918" stroke-miterlimit="10" stroke-width="2.989"/><polyline points="261.202 59.09 262.643 59.09 262.643 60.531" fill="none" stroke="#1670b9" stroke-miterlimit="10" stroke-width="2.989"/><line x1="262.643" y1="63.523" x2="262.643" y2="127.838" fill="none" stroke="#1670b9" stroke-dasharray="0 0 2.991 2.991" stroke-miterlimit="10" stroke-width="2.989"/><polyline points="262.643 129.334 262.643 130.775 264.085 130.775" fill="none" stroke="#1670b9" stroke-miterlimit="10" stroke-width="2.989"/><line x1="266.82" y1="130.775" x2="314.692" y2="130.775" fill="none" stroke="#1670b9" stroke-dasharray="0 0 2.736 2.736" stroke-miterlimit="10" stroke-width="2.989"/><line x1="316.06" y1="130.775" x2="317.501" y2="130.775" fill="none" stroke="#1670b9" stroke-miterlimit="10" stroke-width="2.989"/><polyline points="181.471 229.415 297.413 229.415 297.413 66.763 317.501 66.763" fill="none" stroke="#fff" stroke-miterlimit="10" stroke-width="7.473"/><line x1="181.471" y1="229.415" x2="182.912" y2="229.415" fill="none" stroke="#f5a800" stroke-miterlimit="10" stroke-width="2.989"/><line x1="185.811" y1="229.415" x2="294.522" y2="229.415" fill="none" stroke="#f5a800" stroke-dasharray="0 0 2.899 2.899" stroke-miterlimit="10" stroke-width="2.989"/><polyline points="295.971 229.415 297.413 229.415 297.413 227.973" fill="none" stroke="#f5a800" stroke-miterlimit="10" stroke-width="2.989"/><line x1="297.413" y1="225.068" x2="297.413" y2="69.657" fill="none" stroke="#f5a800" stroke-dasharray="0 0 2.905 2.905" stroke-miterlimit="10" stroke-width="2.989"/><polyline points="297.413 68.205 297.413 66.763 298.854 66.763" fill="none" stroke="#f5a800" stroke-miterlimit="10" stroke-width="2.989"/><line x1="301.312" y1="66.763" x2="314.831" y2="66.763" fill="none" stroke="#f5a800" stroke-dasharray="0 0 2.458 2.458" stroke-miterlimit="10" stroke-width="2.989"/><line x1="316.06" y1="66.763" x2="317.501" y2="66.763" fill="none" stroke="#f5a800" stroke-miterlimit="10" stroke-width="2.989"/><rect x=".797" y="19.339" width="180.18" height="130.22" fill="#fff" stroke="#231f20" stroke-miterlimit="10" stroke-width="1.593"/><rect x="139.206" y="28.873" width="41.771" height="19.788" fill="#fff" stroke="#231f20" stroke-miterlimit="10" stroke-width="1.855"/><rect x="121.798" y="28.873" width="18.114" height="39.434" fill="#fff" stroke="#231f20" stroke-miterlimit="10" stroke-width="1.855"/><rect x="140.132" y="48.661" width="40.845" height="19.788" fill="#fff" stroke="#231f20" stroke-miterlimit="10" stroke-width="1.855"/><path d="M47.02,84.517l1.274.322c-.267,1.046-.748,1.845-1.441,2.394-.694.55-1.542.824-2.545.824-1.038,0-1.882-.211-2.532-.634-.65-.422-1.146-1.034-1.484-1.835-.34-.802-.509-1.662-.509-2.582,0-1.002.191-1.877.575-2.624s.928-1.313,1.635-1.701c.708-.387,1.486-.581,2.335-.581.963,0,1.773.245,2.431.735.657.491,1.114,1.18,1.373,2.069l-1.254.295c-.224-.701-.547-1.211-.972-1.53-.425-.32-.959-.479-1.603-.479-.74,0-1.359.177-1.855.532-.497.355-.847.831-1.048,1.429s-.302,1.214-.302,1.849c0,.819.12,1.534.358,2.145.239.611.61,1.067,1.113,1.369.504.302,1.049.453,1.636.453.713,0,1.318-.206,1.813-.617.495-.412.83-1.022,1.005-1.833Z" fill="#231f20" stroke-width="0"/><path d="M49.273,84.405c0-1.292.359-2.249,1.077-2.87.6-.517,1.331-.775,2.194-.775.958,0,1.743.314,2.351.942.609.628.913,1.497.913,2.604,0,.898-.135,1.604-.404,2.119-.27.514-.662.914-1.176,1.198-.515.285-1.076.427-1.685.427-.977,0-1.766-.313-2.368-.939-.602-.626-.903-1.528-.903-2.706ZM50.488,84.405c0,.894.195,1.562.584,2.007s.88.667,1.472.667c.586,0,1.075-.223,1.464-.67s.584-1.127.584-2.042c0-.863-.196-1.516-.588-1.961-.392-.444-.879-.667-1.461-.667-.591,0-1.082.221-1.472.664-.39.442-.584,1.11-.584,2.003Z" fill="#231f20" stroke-width="0"/><path d="M57.194,87.893v-6.975h1.064v.992c.512-.767,1.252-1.149,2.22-1.149.42,0,.807.075,1.159.227.353.151.616.349.792.594.175.245.298.537.368.874.044.219.066.602.066,1.149v4.289h-1.183v-4.243c0-.481-.046-.842-.138-1.08-.092-.239-.255-.429-.489-.572-.234-.142-.509-.213-.824-.213-.504,0-.938.16-1.304.479-.365.32-.548.926-.548,1.819v3.81h-1.182Z" fill="#231f20" stroke-width="0"/><path d="M67.256,86.835l.171,1.044c-.333.07-.63.105-.893.105-.429,0-.762-.068-.999-.204s-.403-.314-.499-.535c-.097-.221-.145-.687-.145-1.396v-4.013h-.867v-.919h.867v-1.728l1.176-.709v2.437h1.188v.919h-1.188v4.079c0,.337.021.554.062.65.042.096.11.173.204.23.094.057.229.085.404.085.131,0,.304-.015.519-.046Z" fill="#231f20" stroke-width="0"/><path d="M68.399,87.893v-6.975h1.064v1.057c.271-.495.522-.821.752-.979.23-.158.483-.236.759-.236.398,0,.804.127,1.215.381l-.407,1.097c-.289-.17-.578-.256-.867-.256-.258,0-.49.078-.696.233-.206.156-.353.371-.44.647-.131.42-.197.88-.197,1.379v3.652h-1.182Z" fill="#231f20" stroke-width="0"/><path d="M72.452,84.405c0-1.292.359-2.249,1.077-2.87.6-.517,1.331-.775,2.194-.775.958,0,1.743.314,2.351.942.609.628.913,1.497.913,2.604,0,.898-.135,1.604-.404,2.119-.27.514-.662.914-1.176,1.198-.515.285-1.076.427-1.685.427-.977,0-1.766-.313-2.368-.939-.602-.626-.903-1.528-.903-2.706ZM73.667,84.405c0,.894.195,1.562.584,2.007s.88.667,1.472.667c.586,0,1.075-.223,1.464-.67s.584-1.127.584-2.042c0-.863-.196-1.516-.588-1.961-.392-.444-.879-.667-1.461-.667-.591,0-1.082.221-1.472.664-.39.442-.584,1.11-.584,2.003Z" fill="#231f20" stroke-width="0"/><path d="M80.346,87.893v-9.629h1.182v9.629h-1.182Z" fill="#231f20" stroke-width="0"/><path d="M83.335,87.893v-9.629h1.182v9.629h-1.182Z" fill="#231f20" stroke-width="0"/><path d="M91.125,85.646l1.222.151c-.193.714-.549,1.268-1.07,1.662-.521.394-1.187.591-1.997.591-1.02,0-1.829-.314-2.427-.942-.598-.628-.896-1.51-.896-2.644,0-1.173.302-2.084.906-2.732.604-.648,1.388-.972,2.352-.972.933,0,1.694.317,2.286.952.591.635.887,1.528.887,2.68,0,.07-.002.175-.007.315h-5.202c.043.766.26,1.353.65,1.76.39.407.875.611,1.458.611.434,0,.803-.114,1.11-.341.307-.228.549-.591.729-1.09ZM87.243,83.735h3.895c-.053-.586-.201-1.027-.447-1.32-.376-.455-.865-.683-1.464-.683-.543,0-1,.182-1.37.545s-.575.85-.614,1.458Z" fill="#231f20" stroke-width="0"/><path d="M93.818,87.893v-6.975h1.064v1.057c.271-.495.522-.821.752-.979.23-.158.483-.236.759-.236.398,0,.804.127,1.215.381l-.407,1.097c-.289-.17-.578-.256-.867-.256-.258,0-.49.078-.696.233-.206.156-.353.371-.44.647-.131.42-.197.88-.197,1.379v3.652h-1.182Z" fill="#231f20" stroke-width="0"/><path d="M100.399,87.893l3.698-9.629h1.373l3.941,9.629h-1.452l-1.123-2.916h-4.026l-1.057,2.916h-1.353ZM103.177,83.938h3.264l-1.005-2.667c-.307-.81-.534-1.476-.683-1.997-.123.617-.295,1.23-.519,1.839l-1.057,2.824Z" fill="#231f20" stroke-width="0"/><rect x=".797" y="189.942" width="180.18" height="130.22" fill="#fff" stroke="#231f20" stroke-miterlimit="10" stroke-width="1.593"/><path d="M132.132,59.983l-.078-.804c.358-.038.652-.126.881-.266.229-.139.415-.355.557-.648s.212-.623.212-.989c0-.325-.054-.612-.161-.861s-.255-.434-.442-.556-.392-.183-.613-.183c-.225,0-.421.059-.588.176s-.309.311-.422.58c-.075.173-.191.555-.349,1.147s-.307,1.006-.447,1.244c-.179.308-.401.537-.667.688-.265.151-.562.227-.891.227-.361,0-.699-.092-1.013-.277s-.553-.454-.715-.809-.244-.749-.244-1.182c0-.478.085-.898.256-1.264.171-.364.422-.645.754-.841s.708-.302,1.128-.316l.068.817c-.453.044-.794.193-1.025.446-.231.254-.347.628-.347,1.123,0,.516.105.892.315,1.127.21.236.463.354.759.354.257,0,.469-.083.635-.25.166-.164.336-.592.51-1.285s.326-1.168.457-1.426c.192-.375.436-.652.73-.831s.634-.268,1.018-.268c.381,0,.74.098,1.077.294s.599.479.786.846c.187.368.281.782.281,1.242,0,.583-.094,1.072-.283,1.465-.189.395-.473.703-.852.928-.379.224-.808.342-1.287.354Z" fill="#231f20" stroke-width="0"/><path d="M134.432,53.809h-7.158v-.791h7.158v.791Z" fill="#231f20" stroke-width="0"/><path d="M131.839,52.086c-.96,0-1.671-.24-2.134-.721-.384-.401-.576-.891-.576-1.468,0-.642.233-1.166.701-1.573s1.112-.611,1.936-.611c.667,0,1.192.09,1.575.27.382.181.68.443.891.787s.317.72.317,1.127c0,.653-.233,1.182-.698,1.584-.465.403-1.136.604-2.012.604ZM131.839,51.273c.664,0,1.161-.13,1.492-.391s.496-.589.496-.984c0-.393-.166-.719-.498-.98s-.838-.391-1.519-.391c-.641,0-1.127.131-1.458.394s-.496.588-.496.978c0,.396.165.724.493.984s.825.391,1.489.391Z" fill="#231f20" stroke-width="0"/><path d="M133.646,45.06l.776-.114c.052.223.078.422.078.598,0,.287-.05.51-.151.668s-.233.27-.398.334-.51.097-1.038.097h-2.983v.58h-.684v-.58h-1.284l-.527-.787h1.812v-.795h.684v.795h3.032c.25,0,.412-.014.483-.042s.128-.073.171-.137c.042-.062.063-.153.063-.27,0-.088-.011-.204-.034-.347Z" fill="#231f20" stroke-width="0"/><path d="M134.432,39.026v.791h-5.601c.202.19.404.44.605.75s.353.586.454.833h-.85c-.231-.442-.511-.829-.84-1.16s-.648-.565-.957-.703v-.51h7.188Z" fill="#231f20" stroke-width="0"/><path d="M46.278,259.319l1.274.322c-.267,1.046-.748,1.844-1.441,2.394-.694.55-1.542.824-2.545.824-1.038,0-1.882-.211-2.532-.634-.65-.423-1.146-1.034-1.484-1.836-.34-.801-.509-1.661-.509-2.581,0-1.003.191-1.877.575-2.624.383-.746.928-1.313,1.635-1.701.708-.388,1.486-.581,2.335-.581.963,0,1.773.245,2.431.735.657.49,1.114,1.181,1.373,2.069l-1.254.295c-.224-.7-.547-1.21-.972-1.53-.425-.319-.959-.479-1.603-.479-.74,0-1.359.178-1.855.532-.497.354-.847.831-1.048,1.429s-.302,1.214-.302,1.849c0,.819.12,1.534.358,2.145.239.611.61,1.067,1.113,1.37.504.302,1.049.453,1.636.453.713,0,1.318-.206,1.813-.618.495-.411.83-1.021,1.005-1.832Z" fill="#231f20" stroke-width="0"/><path d="M48.531,259.208c0-1.292.359-2.249,1.077-2.871.6-.517,1.331-.774,2.194-.774.958,0,1.743.314,2.351.942.609.628.913,1.496.913,2.604,0,.897-.135,1.604-.404,2.118-.27.515-.662.914-1.176,1.198-.515.285-1.076.427-1.685.427-.977,0-1.766-.312-2.368-.938-.602-.627-.903-1.528-.903-2.706ZM49.746,259.208c0,.893.195,1.562.584,2.006s.88.667,1.472.667c.586,0,1.075-.224,1.464-.67s.584-1.128.584-2.043c0-.862-.196-1.516-.588-1.96-.392-.444-.879-.667-1.461-.667-.591,0-1.082.221-1.472.663s-.584,1.11-.584,2.004Z" fill="#231f20" stroke-width="0"/><path d="M56.452,262.695v-6.976h1.064v.992c.512-.767,1.252-1.149,2.22-1.149.42,0,.807.075,1.159.227s.616.35.792.595c.175.245.298.536.368.873.044.219.066.603.066,1.149v4.289h-1.183v-4.243c0-.481-.046-.842-.138-1.08-.092-.239-.255-.43-.489-.571-.234-.143-.509-.214-.824-.214-.504,0-.938.16-1.304.479-.365.319-.548.926-.548,1.819v3.81h-1.182Z" fill="#231f20" stroke-width="0"/><path d="M66.514,261.637l.171,1.045c-.333.069-.63.104-.893.104-.429,0-.762-.067-.999-.203s-.403-.314-.499-.535c-.097-.222-.145-.687-.145-1.396v-4.013h-.867v-.92h.867v-1.728l1.176-.709v2.437h1.188v.92h-1.188v4.079c0,.337.021.554.062.649.042.097.11.174.204.23.094.057.229.085.404.085.131,0,.304-.015.519-.046Z" fill="#231f20" stroke-width="0"/><path d="M67.657,262.695v-6.976h1.064v1.058c.271-.495.522-.821.752-.979.23-.157.483-.236.759-.236.398,0,.804.127,1.215.381l-.407,1.097c-.289-.171-.578-.256-.867-.256-.258,0-.49.077-.696.233-.206.155-.353.371-.44.646-.131.421-.197.88-.197,1.379v3.652h-1.182Z" fill="#231f20" stroke-width="0"/><path d="M71.71,259.208c0-1.292.359-2.249,1.077-2.871.6-.517,1.331-.774,2.194-.774.958,0,1.743.314,2.351.942.609.628.913,1.496.913,2.604,0,.897-.135,1.604-.404,2.118-.27.515-.662.914-1.176,1.198-.515.285-1.076.427-1.685.427-.977,0-1.766-.312-2.368-.938-.602-.627-.903-1.528-.903-2.706ZM72.925,259.208c0,.893.195,1.562.584,2.006s.88.667,1.472.667c.586,0,1.075-.224,1.464-.67s.584-1.128.584-2.043c0-.862-.196-1.516-.588-1.96-.392-.444-.879-.667-1.461-.667-.591,0-1.082.221-1.472.663s-.584,1.11-.584,2.004Z" fill="#231f20" stroke-width="0"/><path d="M79.604,262.695v-9.629h1.182v9.629h-1.182Z" fill="#231f20" stroke-width="0"/><path d="M82.593,262.695v-9.629h1.182v9.629h-1.182Z" fill="#231f20" stroke-width="0"/><path d="M90.383,260.449l1.222.15c-.193.714-.549,1.269-1.07,1.662-.521.395-1.187.591-1.997.591-1.02,0-1.829-.313-2.427-.942-.598-.628-.896-1.509-.896-2.644,0-1.173.302-2.084.906-2.732.604-.647,1.388-.972,2.352-.972.933,0,1.694.317,2.286.952s.887,1.528.887,2.68c0,.07-.002.176-.007.315h-5.202c.043.767.26,1.354.65,1.761.39.407.875.61,1.458.61.434,0,.803-.114,1.11-.342s.549-.591.729-1.09ZM86.501,258.538h3.895c-.053-.587-.201-1.027-.447-1.32-.376-.456-.865-.684-1.464-.684-.543,0-1,.182-1.37.545-.37.364-.575.85-.614,1.459Z" fill="#231f20" stroke-width="0"/><path d="M93.075,262.695v-6.976h1.064v1.058c.271-.495.522-.821.752-.979.23-.157.483-.236.759-.236.398,0,.804.127,1.215.381l-.407,1.097c-.289-.171-.578-.256-.867-.256-.258,0-.49.077-.696.233-.206.155-.353.371-.44.646-.131.421-.197.88-.197,1.379v3.652h-1.182Z" fill="#231f20" stroke-width="0"/><path d="M101.404,262.695v-9.629h3.612c.736,0,1.326.098,1.77.292.444.195.792.495,1.044.9s.377.828.377,1.271c0,.412-.111.8-.335,1.163-.223.363-.561.656-1.011.88.582.171,1.03.462,1.343.873.313.412.47.898.47,1.459,0,.45-.096.87-.286,1.258-.19.387-.426.686-.706.896-.28.21-.631.368-1.054.476-.422.107-.94.161-1.553.161h-3.671ZM102.678,257.112h2.082c.565,0,.97-.037,1.215-.111.324-.097.568-.257.732-.479.164-.224.246-.504.246-.841,0-.319-.077-.601-.23-.844s-.372-.41-.657-.5c-.285-.089-.773-.134-1.464-.134h-1.925v2.909ZM102.678,261.558h2.397c.412,0,.701-.015.867-.046.293-.052.539-.14.735-.263.197-.122.359-.301.486-.535.127-.234.19-.505.19-.811,0-.359-.092-.672-.276-.937-.184-.265-.439-.451-.765-.559-.326-.106-.796-.16-1.409-.16h-2.227v3.31Z" fill="#231f20" stroke-width="0"/><rect x="317.501" y="19.339" width="133.295" height="130.22" fill="#fff" stroke="#231f20" stroke-miterlimit="10" stroke-width="1.593"/><rect x="317.501" y="30.95" width="41.771" height="15.285" fill="#fff" stroke="#231f20" stroke-miterlimit="10" stroke-width="1.631"/><path d="M333.18,40.975l1.222.151c-.193.714-.55,1.268-1.071,1.662-.521.394-1.187.591-1.996.591-1.021,0-1.829-.314-2.428-.942-.598-.628-.896-1.51-.896-2.644,0-1.173.303-2.084.907-2.732.604-.648,1.388-.972,2.351-.972.933,0,1.695.317,2.286.952.591.635.887,1.528.887,2.68,0,.07-.002.175-.007.315h-5.202c.044.766.261,1.353.65,1.76s.876.611,1.458.611c.434,0,.804-.114,1.11-.341.307-.228.55-.591.729-1.09ZM329.299,39.063h3.895c-.053-.586-.201-1.027-.446-1.32-.377-.455-.865-.683-1.465-.683-.543,0-1,.182-1.369.545-.37.363-.575.85-.614,1.458Z" fill="#231f20" stroke-width="0"/><path d="M335.558,38.472c0-1.139.117-2.055.352-2.749.233-.694.582-1.229,1.044-1.606.462-.376,1.043-.565,1.744-.565.517,0,.97.104,1.359.312.39.208.711.508.966.9.253.392.453.869.598,1.432.145.562.216,1.321.216,2.276,0,1.129-.115,2.042-.348,2.735-.232.694-.579,1.23-1.041,1.609s-1.046.568-1.75.568c-.929,0-1.658-.333-2.188-.998-.635-.801-.952-2.106-.952-3.915ZM336.773,38.472c0,1.581.185,2.633.555,3.156.37.523.827.785,1.37.785s.999-.263,1.369-.788.555-1.576.555-3.152c0-1.585-.185-2.638-.555-3.16-.37-.521-.831-.781-1.383-.781-.543,0-.977.229-1.301.689-.407.587-.61,1.67-.61,3.251Z" fill="#231f20" stroke-width="0"/><path d="M347.919,42.36c-.438.372-.859.635-1.265.788s-.84.23-1.304.23c-.767,0-1.355-.188-1.767-.562-.412-.375-.617-.853-.617-1.435,0-.342.077-.654.232-.936.156-.283.359-.509.611-.68.252-.171.535-.3.851-.388.232-.062.582-.121,1.051-.177.955-.114,1.657-.25,2.108-.407.004-.162.007-.265.007-.309,0-.481-.112-.821-.335-1.018-.303-.267-.751-.4-1.347-.4-.557,0-.967.098-1.231.292s-.461.54-.588,1.034l-1.156-.158c.105-.495.278-.894.52-1.199.24-.304.589-.539,1.044-.703s.982-.246,1.583-.246c.596,0,1.079.07,1.451.21s.646.316.821.529.298.48.368.805c.039.201.059.565.059,1.09v1.576c0,1.099.025,1.794.075,2.085.051.291.15.57.299.837h-1.234c-.123-.245-.201-.532-.236-.86ZM347.82,39.72c-.429.175-1.073.324-1.931.447-.486.07-.83.149-1.031.236-.202.088-.357.216-.467.384-.109.169-.164.356-.164.562,0,.315.119.578.358.789.238.21.588.315,1.047.315.456,0,.86-.1,1.216-.299.354-.199.615-.472.781-.818.127-.267.19-.661.19-1.182v-.434Z" fill="#231f20" stroke-width="0"/><rect x="317.501" y="58.532" width="41.771" height="15.285" fill="#fff" stroke="#231f20" stroke-miterlimit="10" stroke-width="1.631"/><path d="M333.18,68.556l1.222.151c-.193.714-.55,1.268-1.071,1.662-.521.394-1.187.591-1.996.591-1.021,0-1.829-.314-2.428-.942-.598-.628-.896-1.51-.896-2.644,0-1.173.303-2.084.907-2.732.604-.648,1.388-.972,2.351-.972.933,0,1.695.317,2.286.952.591.635.887,1.528.887,2.68,0,.07-.002.175-.007.315h-5.202c.044.766.261,1.353.65,1.76s.876.611,1.458.611c.434,0,.804-.114,1.11-.341.307-.228.55-.591.729-1.09ZM329.299,66.645h3.895c-.053-.586-.201-1.027-.446-1.32-.377-.455-.865-.683-1.465-.683-.543,0-1,.182-1.369.545-.37.363-.575.85-.614,1.458Z" fill="#231f20" stroke-width="0"/><path d="M335.558,66.054c0-1.139.117-2.055.352-2.749.233-.694.582-1.229,1.044-1.606.462-.376,1.043-.565,1.744-.565.517,0,.97.104,1.359.312.39.208.711.508.966.9.253.392.453.869.598,1.432.145.562.216,1.321.216,2.276,0,1.129-.115,2.042-.348,2.735-.232.694-.579,1.23-1.041,1.609s-1.046.568-1.75.568c-.929,0-1.658-.333-2.188-.998-.635-.801-.952-2.106-.952-3.915ZM336.773,66.054c0,1.581.185,2.633.555,3.156.37.523.827.785,1.37.785s.999-.263,1.369-.788.555-1.576.555-3.152c0-1.585-.185-2.638-.555-3.16-.37-.521-.831-.781-1.383-.781-.543,0-.977.229-1.301.689-.407.587-.61,1.67-.61,3.251Z" fill="#231f20" stroke-width="0"/><path d="M344.457,70.802h-1.097v-9.629h1.183v3.435c.499-.626,1.136-.939,1.911-.939.429,0,.835.086,1.219.259.383.173.698.416.945.729s.441.691.581,1.133c.141.442.211.915.211,1.418,0,1.195-.296,2.119-.887,2.772-.592.652-1.301.979-2.128.979s-1.47-.344-1.938-1.031v.874ZM344.444,67.262c0,.836.114,1.44.342,1.812.372.609.875.913,1.511.913.517,0,.963-.224,1.34-.673.376-.449.564-1.118.564-2.006,0-.911-.181-1.583-.542-2.017s-.798-.65-1.311-.65c-.517,0-.963.224-1.34.673-.376.449-.564,1.098-.564,1.948Z" fill="#231f20" stroke-width="0"/><rect x="317.501" y="95.081" width="41.771" height="15.285" fill="#fff" stroke="#231f20" stroke-miterlimit="10" stroke-width="1.631"/><path d="M333.18,105.107l1.222.151c-.193.714-.55,1.268-1.071,1.662-.521.394-1.187.591-1.996.591-1.021,0-1.829-.314-2.428-.942-.598-.628-.896-1.51-.896-2.644,0-1.173.303-2.084.907-2.732.604-.648,1.388-.972,2.351-.972.933,0,1.695.317,2.286.952.591.635.887,1.528.887,2.68,0,.07-.002.175-.007.315h-5.202c.044.766.261,1.353.65,1.76s.876.611,1.458.611c.434,0,.804-.114,1.11-.341.307-.228.55-.591.729-1.09ZM329.299,103.195h3.895c-.053-.586-.201-1.027-.446-1.32-.377-.455-.865-.683-1.465-.683-.543,0-1,.182-1.369.545-.37.363-.575.85-.614,1.458Z" fill="#231f20" stroke-width="0"/><path d="M335.558,102.604c0-1.139.117-2.055.352-2.749.233-.694.582-1.229,1.044-1.606.462-.376,1.043-.565,1.744-.565.517,0,.97.104,1.359.312.39.208.711.508.966.9.253.392.453.869.598,1.432.145.562.216,1.321.216,2.276,0,1.129-.115,2.042-.348,2.735-.232.694-.579,1.23-1.041,1.609s-1.046.568-1.75.568c-.929,0-1.658-.333-2.188-.998-.635-.801-.952-2.106-.952-3.915ZM336.773,102.604c0,1.581.185,2.633.555,3.156.37.523.827.785,1.37.785s.999-.263,1.369-.788.555-1.576.555-3.152c0-1.585-.185-2.638-.555-3.16-.37-.521-.831-.781-1.383-.781-.543,0-.977.229-1.301.689-.407.587-.61,1.67-.61,3.251Z" fill="#231f20" stroke-width="0"/><path d="M347.919,106.493c-.438.372-.859.635-1.265.788s-.84.23-1.304.23c-.767,0-1.355-.188-1.767-.562-.412-.375-.617-.853-.617-1.435,0-.342.077-.654.232-.936.156-.283.359-.509.611-.68.252-.171.535-.3.851-.388.232-.062.582-.121,1.051-.177.955-.114,1.657-.25,2.108-.407.004-.162.007-.265.007-.309,0-.481-.112-.821-.335-1.018-.303-.267-.751-.4-1.347-.4-.557,0-.967.098-1.231.292s-.461.54-.588,1.034l-1.156-.158c.105-.495.278-.894.52-1.199.24-.304.589-.539,1.044-.703s.982-.246,1.583-.246c.596,0,1.079.07,1.451.21s.646.316.821.529.298.48.368.805c.039.201.059.565.059,1.09v1.576c0,1.099.025,1.794.075,2.085.051.291.15.57.299.837h-1.234c-.123-.245-.201-.532-.236-.86ZM347.82,103.852c-.429.175-1.073.324-1.931.447-.486.07-.83.149-1.031.236-.202.088-.357.216-.467.384-.109.169-.164.356-.164.562,0,.315.119.578.358.789.238.21.588.315,1.047.315.456,0,.86-.1,1.216-.299.354-.199.615-.472.781-.818.127-.267.19-.661.19-1.182v-.434Z" fill="#231f20" stroke-width="0"/><rect x="317.501" y="122.663" width="41.771" height="15.285" fill="#fff" stroke="#231f20" stroke-miterlimit="10" stroke-width="1.631"/><path d="M333.18,132.687l1.222.15c-.193.714-.55,1.269-1.071,1.662-.521.395-1.187.591-1.996.591-1.021,0-1.829-.313-2.428-.942-.598-.628-.896-1.509-.896-2.644,0-1.173.303-2.084.907-2.732.604-.647,1.388-.972,2.351-.972.933,0,1.695.317,2.286.952s.887,1.528.887,2.68c0,.07-.002.176-.007.315h-5.202c.044.767.261,1.354.65,1.761s.876.61,1.458.61c.434,0,.804-.114,1.11-.342s.55-.591.729-1.09ZM329.299,130.776h3.895c-.053-.587-.201-1.027-.446-1.32-.377-.456-.865-.684-1.465-.684-.543,0-1,.182-1.369.545-.37.364-.575.85-.614,1.459Z" fill="#231f20" stroke-width="0"/><path d="M335.558,130.184c0-1.138.117-2.055.352-2.748.233-.694.582-1.229,1.044-1.606.462-.376,1.043-.564,1.744-.564.517,0,.97.104,1.359.312s.711.508.966.9c.253.392.453.869.598,1.432s.216,1.321.216,2.275c0,1.13-.115,2.042-.348,2.736-.232.693-.579,1.23-1.041,1.608-.462.379-1.046.568-1.75.568-.929,0-1.658-.333-2.188-.998-.635-.802-.952-2.106-.952-3.915ZM336.773,130.184c0,1.581.185,2.633.555,3.156s.827.785,1.37.785.999-.263,1.369-.788.555-1.577.555-3.153c0-1.585-.185-2.638-.555-3.159-.37-.521-.831-.781-1.383-.781-.543,0-.977.229-1.301.689-.407.587-.61,1.671-.61,3.251Z" fill="#231f20" stroke-width="0"/><path d="M344.457,134.933h-1.097v-9.629h1.183v3.436c.499-.627,1.136-.939,1.911-.939.429,0,.835.086,1.219.26.383.173.698.416.945.729.247.313.441.69.581,1.133.141.442.211.915.211,1.419,0,1.195-.296,2.119-.887,2.771-.592.652-1.301.979-2.128.979s-1.47-.344-1.938-1.031v.874ZM344.444,131.393c0,.836.114,1.44.342,1.812.372.608.875.913,1.511.913.517,0,.963-.225,1.34-.673.376-.449.564-1.118.564-2.007,0-.911-.181-1.583-.542-2.017s-.798-.65-1.311-.65c-.517,0-.963.225-1.34.674-.376.448-.564,1.098-.564,1.947Z" fill="#231f20" stroke-width="0"/><line x1="317.501" y1="84.449" x2="450.797" y2="84.449" fill="#fff" stroke="#231f20" stroke-miterlimit="10" stroke-width="1.631"/><path d="M363.815,8.45l1.202-.105c.057.482.188.877.396,1.186s.531.558.97.749c.438.19.93.286,1.478.286.486,0,.915-.072,1.287-.217s.649-.343.831-.595c.182-.251.272-.526.272-.824,0-.302-.088-.566-.263-.792-.175-.225-.464-.415-.867-.568-.258-.101-.83-.257-1.714-.47-.885-.212-1.504-.413-1.859-.601-.459-.241-.802-.54-1.027-.896s-.339-.756-.339-1.199c0-.486.139-.94.414-1.363.276-.422.679-.743,1.209-.962.529-.219,1.118-.328,1.767-.328.714,0,1.343.115,1.889.345.545.23.964.568,1.258,1.015.293.447.45.953.473,1.518l-1.222.092c-.065-.608-.288-1.068-.667-1.379s-.938-.466-1.678-.466c-.771,0-1.333.141-1.685.424-.353.282-.529.623-.529,1.021,0,.346.125.631.374.854.246.223.886.452,1.922.687,1.035.234,1.746.439,2.131.614.561.259.975.586,1.241.982.268.396.401.853.401,1.37,0,.512-.147.995-.44,1.448s-.715.806-1.265,1.058c-.549.251-1.168.377-1.855.377-.871,0-1.602-.127-2.19-.381s-1.051-.636-1.386-1.146-.511-1.087-.528-1.731Z" fill="#231f20" stroke-width="0"/><path d="M373.069,11.543V1.915h1.183v3.455c.552-.64,1.248-.959,2.088-.959.517,0,.966.102,1.347.305s.653.485.818.844c.164.359.246.88.246,1.563v4.42h-1.183v-4.42c0-.591-.128-1.021-.384-1.291-.257-.27-.619-.404-1.087-.404-.351,0-.681.091-.989.272s-.528.428-.66.739c-.131.311-.196.74-.196,1.288v3.816h-1.183Z" fill="#231f20" stroke-width="0"/><path d="M385.326,9.297l1.222.151c-.193.714-.55,1.268-1.071,1.662-.521.394-1.187.591-1.996.591-1.021,0-1.829-.314-2.428-.942-.598-.628-.896-1.51-.896-2.644,0-1.173.303-2.084.907-2.732.604-.648,1.388-.972,2.351-.972.933,0,1.695.317,2.286.952.591.635.887,1.528.887,2.68,0,.07-.002.175-.007.315h-5.202c.044.766.261,1.353.65,1.76s.876.611,1.458.611c.434,0,.804-.114,1.11-.341.307-.228.55-.591.729-1.09ZM381.444,7.386h3.895c-.053-.586-.201-1.027-.446-1.32-.377-.455-.865-.683-1.465-.683-.543,0-1,.182-1.369.545-.37.363-.575.85-.614,1.458Z" fill="#231f20" stroke-width="0"/><path d="M388.006,11.543V1.915h1.183v9.629h-1.183Z" fill="#231f20" stroke-width="0"/><path d="M391.302,11.543v-6.056h-1.044v-.919h1.044v-.742c0-.469.042-.817.125-1.044.114-.307.314-.555.601-.746.287-.19.688-.286,1.206-.286.332,0,.7.04,1.103.118l-.177,1.031c-.245-.044-.478-.066-.696-.066-.359,0-.613.077-.762.23-.149.153-.224.44-.224.86v.644h1.359v.919h-1.359v6.056h-1.176Z" fill="#231f20" stroke-width="0"/><path d="M402.62,11.543h-1.183v-7.534c-.284.271-.658.543-1.12.814s-.877.475-1.244.611v-1.143c.661-.311,1.239-.688,1.733-1.13.495-.442.846-.872,1.052-1.288h.762v9.668Z" fill="#231f20" stroke-width="0"/><path d="M384.433,55.962v-9.629h1.308l5.057,7.56v-7.56h1.222v9.629h-1.307l-5.058-7.566v7.566h-1.222Z" fill="#231f20" stroke-width="0"/><path d="M393.727,52.868l1.202-.105c.057.482.188.877.396,1.186s.531.558.97.749c.438.19.93.286,1.478.286.486,0,.915-.072,1.287-.217s.649-.343.831-.595c.182-.251.272-.526.272-.824,0-.302-.088-.566-.263-.792-.175-.225-.464-.415-.867-.568-.258-.101-.83-.257-1.714-.47-.885-.212-1.504-.413-1.859-.601-.459-.241-.802-.54-1.027-.896s-.339-.756-.339-1.199c0-.486.139-.94.414-1.363.276-.422.679-.743,1.209-.962.529-.219,1.118-.328,1.767-.328.714,0,1.343.115,1.889.345.545.23.964.568,1.258,1.015.293.447.45.953.473,1.518l-1.222.092c-.065-.608-.288-1.068-.667-1.379s-.938-.466-1.678-.466c-.771,0-1.333.141-1.685.424-.353.282-.529.623-.529,1.021,0,.346.125.631.374.854.246.223.886.452,1.922.687,1.035.234,1.746.439,2.131.614.561.259.975.586,1.241.982.268.396.401.853.401,1.37,0,.512-.147.995-.44,1.448s-.715.806-1.265,1.058c-.549.251-1.168.377-1.855.377-.871,0-1.602-.127-2.19-.381s-1.051-.636-1.386-1.146-.511-1.087-.528-1.731Z" fill="#231f20" stroke-width="0"/><path d="M403.093,55.962v-9.629h1.918l2.279,6.818c.21.635.363,1.11.46,1.425.109-.351.28-.865.512-1.543l2.306-6.7h1.715v9.629h-1.229v-8.059l-2.798,8.059h-1.149l-2.785-8.197v8.197h-1.229Z" fill="#231f20" stroke-width="0"/><path d="M416.276,55.962l3.697-9.629h1.373l3.941,9.629h-1.452l-1.123-2.916h-4.026l-1.058,2.916h-1.353ZM419.054,52.008h3.265l-1.006-2.667c-.306-.81-.534-1.476-.683-1.997-.123.617-.296,1.23-.519,1.839l-1.058,2.824Z" fill="#231f20" stroke-width="0"/><path d="M383.691,121.258v-9.629h1.308l5.057,7.56v-7.56h1.222v9.629h-1.307l-5.058-7.566v7.566h-1.222Z" fill="#231f20" stroke-width="0"/><path d="M392.985,118.165l1.202-.105c.057.482.188.877.396,1.186.208.308.531.558.97.75.438.189.93.285,1.478.285.486,0,.915-.072,1.287-.217s.649-.343.831-.595c.182-.251.272-.526.272-.824,0-.302-.088-.566-.263-.792-.175-.225-.464-.415-.867-.568-.258-.101-.83-.257-1.714-.47-.885-.212-1.504-.413-1.859-.601-.459-.241-.802-.54-1.027-.896s-.339-.756-.339-1.199c0-.486.139-.94.414-1.363.276-.422.679-.743,1.209-.962.529-.219,1.118-.328,1.767-.328.714,0,1.343.115,1.889.345.545.23.964.568,1.258,1.015.293.447.45.953.473,1.518l-1.222.092c-.065-.608-.288-1.068-.667-1.379s-.938-.466-1.678-.466c-.771,0-1.333.141-1.685.424-.353.282-.529.623-.529,1.021,0,.346.125.631.374.854.246.223.886.452,1.922.687,1.035.234,1.746.439,2.131.614.561.259.975.586,1.241.982.268.396.401.853.401,1.37,0,.512-.147.995-.44,1.448-.293.454-.715.807-1.265,1.058-.549.252-1.168.378-1.855.378-.871,0-1.602-.127-2.19-.381s-1.051-.636-1.386-1.146c-.335-.51-.511-1.086-.528-1.73Z" fill="#231f20" stroke-width="0"/><path d="M402.351,121.258v-9.629h1.918l2.279,6.818c.21.635.363,1.11.46,1.425.109-.351.28-.865.512-1.543l2.306-6.7h1.715v9.629h-1.229v-8.059l-2.798,8.059h-1.149l-2.785-8.197v8.197h-1.229Z" fill="#231f20" stroke-width="0"/><path d="M417.281,121.258v-9.629h3.612c.735,0,1.325.098,1.771.292.444.195.792.495,1.044.9.252.405.378.829.378,1.271,0,.412-.112.799-.335,1.163-.224.364-.561.657-1.012.88.582.171,1.03.462,1.343.874.313.412.47.897.47,1.458,0,.451-.095.87-.285,1.258-.19.387-.426.686-.706.896-.28.21-.632.368-1.055.476s-.94.161-1.553.161h-3.672ZM418.555,115.675h2.082c.564,0,.97-.037,1.215-.111.324-.097.568-.256.732-.479.164-.224.246-.504.246-.841,0-.32-.076-.601-.229-.844-.153-.243-.372-.409-.657-.499-.284-.09-.772-.135-1.465-.135h-1.924v2.91ZM418.555,120.122h2.397c.411,0,.7-.015.866-.045.294-.053.539-.141.736-.264.196-.122.358-.301.485-.535.127-.234.19-.504.19-.811,0-.359-.092-.671-.275-.936-.184-.265-.439-.451-.766-.558s-.796-.161-1.408-.161h-2.227v3.31Z" fill="#231f20" stroke-width="0"/><rect x="139.206" y="199.917" width="41.771" height="19.788" fill="#fff" stroke="#231f20" stroke-miterlimit="10" stroke-width="1.855"/><rect x="121.798" y="199.917" width="18.114" height="39.434" fill="#fff" stroke="#231f20" stroke-miterlimit="10" stroke-width="1.855"/><rect x="140.132" y="219.705" width="40.845" height="19.788" fill="#fff" stroke="#231f20" stroke-miterlimit="10" stroke-width="1.855"/><path d="M161.251,42.155c-.438.372-.859.635-1.265.788-.405.153-.839.23-1.304.23-.766,0-1.355-.188-1.767-.562-.412-.375-.618-.853-.618-1.435,0-.342.078-.654.233-.936.155-.283.359-.509.611-.68.251-.171.535-.3.851-.388.232-.062.582-.121,1.051-.177.955-.114,1.657-.25,2.108-.407.004-.162.007-.265.007-.309,0-.481-.112-.821-.335-1.018-.302-.267-.751-.4-1.346-.4-.556,0-.967.098-1.231.292-.265.195-.461.54-.588,1.034l-1.156-.158c.105-.495.278-.894.519-1.199.241-.304.589-.539,1.044-.703.455-.164.983-.246,1.583-.246.595,0,1.079.07,1.451.21.373.14.646.316.821.529.175.212.298.48.368.805.04.201.059.565.059,1.09v1.576c0,1.099.025,1.794.076,2.085s.15.57.299.837h-1.235c-.123-.245-.201-.532-.236-.86ZM161.152,39.515c-.429.175-1.073.324-1.931.447-.486.07-.83.149-1.031.236-.201.088-.357.216-.466.384-.109.169-.164.356-.164.562,0,.315.119.578.358.789.239.21.588.315,1.048.315.455,0,.86-.1,1.215-.299.355-.199.615-.472.782-.818.127-.267.19-.661.19-1.182v-.434Z" fill="#231f20" stroke-width="0"/><path d="M157.789,63.345h-1.097v-9.629h1.183v3.435c.499-.626,1.136-.939,1.911-.939.429,0,.835.086,1.218.259.383.173.699.416.946.729.248.313.441.691.582,1.133.14.442.21.915.21,1.418,0,1.195-.295,2.119-.887,2.772-.591.652-1.3.979-2.128.979-.823,0-1.469-.344-1.938-1.031v.874ZM157.776,59.805c0,.836.114,1.44.341,1.812.373.609.876.913,1.511.913.517,0,.963-.224,1.34-.673.377-.449.565-1.118.565-2.006,0-.911-.181-1.583-.542-2.017-.361-.434-.798-.65-1.31-.65-.517,0-.963.224-1.34.673-.377.449-.565,1.098-.565,1.948Z" fill="#231f20" stroke-width="0"/><path d="M161.251,213.2c-.438.372-.859.635-1.265.788-.405.153-.839.229-1.304.229-.766,0-1.355-.187-1.767-.562-.412-.374-.618-.853-.618-1.435,0-.342.078-.653.233-.937.155-.282.359-.509.611-.68.251-.171.535-.3.851-.388.232-.061.582-.12,1.051-.177.955-.114,1.657-.25,2.108-.407.004-.162.007-.265.007-.309,0-.481-.112-.821-.335-1.019-.302-.267-.751-.4-1.346-.4-.556,0-.967.098-1.231.292-.265.195-.461.54-.588,1.035l-1.156-.158c.105-.494.278-.895.519-1.198.241-.305.589-.539,1.044-.703.455-.164.983-.246,1.583-.246.595,0,1.079.07,1.451.21.373.141.646.316.821.528.175.213.298.481.368.805.04.202.059.565.059,1.091v1.576c0,1.1.025,1.794.076,2.085.05.292.15.571.299.838h-1.235c-.123-.245-.201-.532-.236-.86ZM161.152,210.559c-.429.176-1.073.324-1.931.447-.486.069-.83.148-1.031.236-.201.087-.357.216-.466.384-.109.169-.164.355-.164.562,0,.315.119.578.358.788s.588.315,1.048.315c.455,0,.86-.1,1.215-.299.355-.199.615-.472.782-.817.127-.268.19-.661.19-1.183v-.434Z" fill="#231f20" stroke-width="0"/><path d="M157.789,234.39h-1.097v-9.629h1.183v3.436c.499-.627,1.136-.939,1.911-.939.429,0,.835.086,1.218.26.383.173.699.416.946.729.248.313.441.69.582,1.133s.21.915.21,1.419c0,1.195-.295,2.119-.887,2.771-.591.652-1.3.979-2.128.979-.823,0-1.469-.344-1.938-1.031v.874ZM157.776,230.85c0,.836.114,1.44.341,1.812.373.608.876.913,1.511.913.517,0,.963-.225,1.34-.673.377-.449.565-1.118.565-2.007,0-.911-.181-1.583-.542-2.017-.361-.434-.798-.65-1.31-.65-.517,0-.963.225-1.34.674-.377.448-.565,1.098-.565,1.947Z" fill="#231f20" stroke-width="0"/><path d="M132.132,230.711l-.078-.805c.358-.037.652-.126.881-.266.229-.139.415-.354.557-.648.142-.292.212-.622.212-.988,0-.325-.054-.612-.161-.861s-.255-.435-.442-.556c-.187-.122-.392-.183-.613-.183-.225,0-.421.059-.588.176s-.309.311-.422.58c-.075.173-.191.556-.349,1.146-.158.593-.307,1.007-.447,1.244-.179.308-.401.537-.667.688-.265.151-.562.227-.891.227-.361,0-.699-.092-1.013-.277-.314-.184-.553-.453-.715-.809-.163-.354-.244-.748-.244-1.182,0-.478.085-.898.256-1.264.171-.364.422-.645.754-.842.332-.195.708-.301,1.128-.316l.068.818c-.453.043-.794.192-1.025.445-.231.254-.347.628-.347,1.123,0,.516.105.892.315,1.127.21.236.463.354.759.354.257,0,.469-.083.635-.25.166-.164.336-.593.51-1.285.174-.693.326-1.168.457-1.426.192-.375.436-.652.73-.831s.634-.269,1.018-.269c.381,0,.74.099,1.077.295s.599.479.786.846c.187.368.281.782.281,1.242,0,.583-.094,1.071-.283,1.465-.189.395-.473.703-.852.928-.379.224-.808.342-1.287.354Z" fill="#231f20" stroke-width="0"/><path d="M134.432,224.537h-7.158v-.791h7.158v.791Z" fill="#231f20" stroke-width="0"/><path d="M131.839,222.815c-.96,0-1.671-.24-2.134-.721-.384-.401-.576-.891-.576-1.468,0-.642.233-1.166.701-1.573s1.112-.611,1.936-.611c.667,0,1.192.091,1.575.271.382.181.68.442.891.787.211.344.317.72.317,1.127,0,.653-.233,1.182-.698,1.584-.465.403-1.136.604-2.012.604ZM131.839,222.002c.664,0,1.161-.131,1.492-.392s.496-.589.496-.984c0-.393-.166-.719-.498-.979s-.838-.392-1.519-.392c-.641,0-1.127.131-1.458.394-.331.262-.496.588-.496.978,0,.396.165.724.493.984s.825.392,1.489.392Z" fill="#231f20" stroke-width="0"/><path d="M133.646,215.788l.776-.114c.052.223.078.422.078.598,0,.287-.05.51-.151.668s-.233.27-.398.334-.51.097-1.038.097h-2.983v.58h-.684v-.58h-1.284l-.527-.787h1.812v-.795h.684v.795h3.032c.25,0,.412-.014.483-.041.072-.028.128-.073.171-.137.042-.062.063-.152.063-.27,0-.088-.011-.204-.034-.348Z" fill="#231f20" stroke-width="0"/><path d="M134.432,209.753v.791h-5.601c.202.191.404.44.605.75.202.309.353.586.454.832h-.85c-.231-.441-.511-.828-.84-1.16-.329-.33-.648-.564-.957-.703v-.51h7.188Z" fill="#231f20" stroke-width="0"/></svg>