<?xml version="1.0" encoding="UTF-8"?><svg xmlns="http://www.w3.org/2000/svg" width="4.541in" height="4.433in" viewBox="0 0 326.966 319.192"><g id="a"><path d="M134.588,107.234c-2.901.182-5.174,1.897-5.174,3.985,0,2.21,2.546,4.001,5.686,4.001s5.686-1.791,5.686-4.001l-.657-.305-4.69-3.311.309-.722-.425-.245-.735.598Z" fill="#d0cfcd"/><path d="M135.201,115.332c-1.942.446-4.156-1.098-4.156-1.098-1.868-1.727-1.647-3.37-1.647-3.37-.209.419-.323.87-.323,1.34,0,.362.068.714.195,1.048.659,1.733,2.913,3.009,5.592,3.009l.338-.929Z" fill="#d0cfcd"/></g><g id="b"><path d="M196.096,313.912l.318-24.544s.444-1.206-1.587-2.348S.25,158.093.25,158.093v26.141l195.846,129.885,1.714-1.015" fill="none" stroke="#231f20" stroke-linecap="round" stroke-linejoin="round" stroke-width=".5"/><path d="M.25,158.093l.625-1.286.08-2.953s-.04-.838.798-.599,4.75,1.796,4.75,1.796l1.317,2.155v1.157l.679,1.317,5.867,3.871s.679.279.399-.679c0,0-.16-.599-.758-.918s-1.756-1.118-1.756-1.118l-.439-.878,1.197-.479,151.883,100.729,1.281,2.069-.049,1.182.64,1.182,5.764,3.842s.562.426.662-.236-.749-1.186-.749-1.186l-1.86-1.198-.312-.824,1.099-.474,19.97,13.2s.42.178.614.785c.068.212.108.478.093.806-.059,1.267-.029,4.154-.029,4.154l-.56,1.208" fill="none" stroke="#231f20" stroke-linecap="round" stroke-linejoin="round" stroke-width=".5"/><path d="M316.342,206.678l-115.625,73.779s-.977.43-.911,1.712" fill="none" stroke="#231f20" stroke-linecap="round" stroke-linejoin="round" stroke-width=".5"/><polyline points="197.764 281.143 197.394 312.656 199.959 314.26" fill="none" stroke="#231f20" stroke-linecap="round" stroke-linejoin="round" stroke-width=".5"/><path d="M200.244,314.102l-1.33-2.629,1.298-2.597.317-17.767s.158-2.882,3.357-1.71l9.818,6.492s1.457,1.298,3.04.253l28.656-18.7.354-1.119" fill="none" stroke="#231f20" stroke-linecap="round" stroke-linejoin="round" stroke-width=".5"/><path d="M304.742,239.645l20.996-13.381s.074-1.257-.961-1.996-2.883-2.07-2.883-2.07c0,0-.739-.296-1.774.37s-82.505,52.638-82.505,52.638l-.887-.222-23.288,14.86s-1.183.518-.296,1.109l3.549,2.366s.961,1.109.813,2.144" fill="none" stroke="#231f20" stroke-linecap="round" stroke-linejoin="round" stroke-width=".5"/><path d="M259.806,279.922s-7.561,4.863-9.628,6.128-2.277-.717-2.277-.717l-.042-5.946,58.024-36.94" fill="none" stroke="#231f20" stroke-linecap="round" stroke-linejoin="round" stroke-width=".5"/><path d="M263.841,277.321s1.349-.759,2.91-3.078,3.331-3.12,3.331-3.12c0,0,31.542-20.114,33.946-21.675s1.982-2.825,1.982-2.825l.211-4.006s-.97-1.898-1.265-2.488-.97-1.012-.97-1.012l-58.189,37.168s.66.578.825,1.155,1.238,1.948,1.238,1.948" fill="none" stroke="#231f20" stroke-linecap="round" stroke-linejoin="round" stroke-width=".5"/><path d="M201.875,316.279l.59.663,2.137,1.327s1.142.7,1.216-.884.295-20.487.295-20.487c0,0,.074-.921,1.032-.405s6.444,4.28,6.444,4.28c0,0,1.727,1.278,4.095-.301,2.552-1.701,25.535-16.287,25.535-16.287,0,0,2.248,3.943,6.08,2.285" fill="none" stroke="#231f20" stroke-linecap="round" stroke-linejoin="round" stroke-width=".5"/><line x1="216.592" y1="296.352" x2="216.592" y2="300.945" fill="none" stroke="#231f20" stroke-linecap="round" stroke-linejoin="round" stroke-width=".5"/><path d="M205.65,318.044s1.183,1.237,2.098.807,115.434-73.693,115.434-73.693l.027-.785" fill="none" stroke="#231f20" stroke-linecap="round" stroke-linejoin="round" stroke-width=".5"/><polyline points="291.183 265.329 291.303 258.827 307.287 248.572 307.367 243.805" fill="none" stroke="#231f20" stroke-linecap="round" stroke-linejoin="round" stroke-width=".5"/><path d="M323.571,233.448l-.048,9.475s.048,1.378-1.039,1.74" fill="none" stroke="#231f20" stroke-linecap="round" stroke-linejoin="round" stroke-width=".5"/><path d="M306.205,244.406l19.308-12.218s.24-.28.24-.801c0,0,1.001-.04.961-1.442s-.028-13.321-.028-13.321c0,0,.061-1.104-.809-1.608s-1.253-.783-1.253-.783" fill="none" stroke="#231f20" stroke-linecap="round" stroke-linejoin="round" stroke-width=".5"/><line x1="324.583" y1="212.218" x2="324.387" y2="223.899" fill="none" stroke="#231f20" stroke-linecap="round" stroke-linejoin="round" stroke-width=".5"/><path d="M325.338,232.447l-.067,9.113s.102,1.314-1.748,1.363" fill="none" stroke="#231f20" stroke-linecap="round" stroke-linejoin="round" stroke-width=".5"/><polygon points="308.389 245.207 315.894 240.436 315.841 246.923 308.309 251.801 308.389 245.207" fill="none" stroke="#231f20" stroke-linecap="round" stroke-linejoin="round" stroke-width=".5"/><path d="M301.877,254.123l2.98-1.913s.439-.031.439.314v.659l-.721,1.004-2.321,1.474-.659-.188-.094-.878.376-.47Z" fill="none" stroke="#231f20" stroke-linecap="round" stroke-linejoin="round" stroke-width=".5"/><ellipse cx="299.056" cy="257.034" rx=".925" ry=".721" transform="translate(-78.102 372.155) rotate(-57.653)" fill="none" stroke="#231f20" stroke-linecap="round" stroke-linejoin="round" stroke-width=".5"/><ellipse cx="296.264" cy="258.979" rx=".925" ry=".721" transform="translate(-81.043 370.701) rotate(-57.653)" fill="none" stroke="#231f20" stroke-linecap="round" stroke-linejoin="round" stroke-width=".5"/><ellipse cx="293.472" cy="260.923" rx=".925" ry=".721" transform="translate(-83.984 369.247) rotate(-57.653)" fill="none" stroke="#231f20" stroke-linecap="round" stroke-linejoin="round" stroke-width=".5"/><path d="M280.499,259.997l10.946-6.867s.541-.464.541.325v2.14s-.09.473-.811.946-10.632,6.78-10.632,6.78c0,0-.541.428-.541-.225s.023-2.388.023-2.388c0,0,.093-.476.475-.711Z" fill="none" stroke="#231f20" stroke-linecap="round" stroke-linejoin="round" stroke-width=".5"/><path d="M254.794,281.65l5.719-2.068h.572s2.859-.968,3.255-4.047c0,0,.396-2.727-2.111-1.496l-1.276.792-5.939,1.892-2.815,1.76s-2.551,2.375-1.584,4.531c0,0,.528.924,2.024.088s2.155-1.452,2.155-1.452Z" fill="none" stroke="#231f20" stroke-linecap="round" stroke-linejoin="round" stroke-width=".5"/><path d="M256.042,275.239l4.835-1.285s1.714-1.653,3.06-.826c0,0,.796.704.49,1.989" fill="none" stroke="#231f20" stroke-linecap="round" stroke-linejoin="round" stroke-width=".5"/><path d="M249.768,283.992s.367,1.591,3.152.275" fill="none" stroke="#231f20" stroke-linecap="round" stroke-linejoin="round" stroke-width=".5"/><path d="M264.183,276.708s2.387-3.244,1.714-5.447c0,0-.275-1.683-2.693-.765l-10.773,6.947" fill="none" stroke="#231f20" stroke-linecap="round" stroke-linejoin="round" stroke-width=".5"/><polyline points="233.425 277.036 233.479 273.653 239.073 270.057 239.818 270.483 239.845 273.706" fill="none" stroke="#231f20" stroke-linecap="round" stroke-linejoin="round" stroke-width=".5"/><polyline points="241.603 272.508 240.298 269.258 242.935 267.553 244.373 268.299 244.4 270.723" fill="none" stroke="#231f20" stroke-linecap="round" stroke-linejoin="round" stroke-width=".5"/><line x1="235.796" y1="275.571" x2="233.585" y2="274.053" fill="none" stroke="#231f20" stroke-linecap="round" stroke-linejoin="round" stroke-width=".5"/><line x1="207.846" y1="286.719" x2="207.76" y2="291.813" fill="none" stroke="#231f20" stroke-linecap="round" stroke-linejoin="round" stroke-width=".5"/><ellipse cx="201.808" cy="286.226" rx="1.214" ry="1.73" transform="translate(-124.662 159.46) rotate(-33.593)" fill="none" stroke="#231f20" stroke-linecap="round" stroke-linejoin="round" stroke-width=".5"/><ellipse cx="193.633" cy="289.909" rx="1.214" ry="1.73" transform="translate(-128.064 155.552) rotate(-33.593)" fill="none" stroke="#231f20" stroke-linecap="round" stroke-linejoin="round" stroke-width=".5"/><ellipse cx="193.633" cy="299.29" rx="1.214" ry="1.73" transform="translate(-133.255 157.119) rotate(-33.593)" fill="none" stroke="#231f20" stroke-linecap="round" stroke-linejoin="round" stroke-width=".5"/><ellipse cx="193.633" cy="308.671" rx="1.214" ry="1.73" transform="translate(-138.445 158.685) rotate(-33.593)" fill="none" stroke="#231f20" stroke-linecap="round" stroke-linejoin="round" stroke-width=".5"/><polygon points="29.025 163.482 51.513 149.026 57.431 152.83 61.574 150.209 74.762 159.086 52.359 173.458 46.441 169.485 42.214 172.359 29.025 163.482" fill="none" stroke="#231f20" stroke-linecap="round" stroke-linejoin="round" stroke-width=".5"/><polygon points="58.446 144.968 71.465 153.337 75.946 151.055 81.525 154.69 104.267 140.403 90.994 131.357 86.767 134.147 80.934 130.173 58.446 144.968" fill="none" stroke="#231f20" stroke-linecap="round" stroke-linejoin="round" stroke-width=".5"/><polygon points="87.95 126.031 101.175 134.708 105.278 132.161 111.368 135.753 133.772 121.55 120.414 112.589 116.356 115.463 110.438 111.32 87.95 126.031" fill="none" stroke="#231f20" stroke-linecap="round" stroke-linejoin="round" stroke-width=".5"/><polygon points="109.359 157.474 102.363 152.852 116.853 143.483 124.473 148.355 133.467 142.734 165.195 163.719 156.576 169.84 163.696 174.712 149.581 184.205 141.711 178.834 132.842 184.83 100.74 163.47 109.359 157.474" fill="none" stroke="#231f20" stroke-linecap="round" stroke-linejoin="round" stroke-width=".5"/><polygon points="167.24 212.842 181.606 203.598 189.18 208.499 198.201 202.707 230.053 223.979 221.366 229.882 228.271 234.559 214.238 244.026 206.442 239.126 197.532 245.028 165.68 223.645 174.479 217.854 167.24 212.842" fill="none" stroke="#231f20" stroke-linecap="round" stroke-linejoin="round" stroke-width=".5"/><polyline points="149.581 184.205 148.975 207.608 163.787 198.364 163.696 174.712" fill="none" stroke="#231f20" stroke-linecap="round" stroke-linejoin="round" stroke-width=".5"/><polyline points="141.711 178.834 141.691 202.439 148.975 207.608" fill="none" stroke="#231f20" stroke-linecap="round" stroke-linejoin="round" stroke-width=".5"/><line x1="135.275" y1="205.774" x2="141.691" y2="202.439" fill="none" stroke="#231f20" stroke-linecap="round" stroke-linejoin="round" stroke-width=".5"/><line x1="132.521" y1="203.691" x2="132.842" y2="184.83" fill="none" stroke="#231f20" stroke-linecap="round" stroke-linejoin="round" stroke-width=".5"/><line x1="100.74" y1="163.47" x2="100.475" y2="182.462" fill="none" stroke="#231f20" stroke-linecap="round" stroke-linejoin="round" stroke-width=".5"/><line x1="102.363" y1="152.852" x2="102.146" y2="162.404" fill="none" stroke="#231f20" stroke-linecap="round" stroke-linejoin="round" stroke-width=".5"/><line x1="104.267" y1="140.403" x2="104.005" y2="151.474" fill="none" stroke="#231f20" stroke-linecap="round" stroke-linejoin="round" stroke-width=".5"/><polyline points="101.953 160.033 81.368 173.262 74.718 168.947" fill="none" stroke="#231f20" stroke-linecap="round" stroke-linejoin="round" stroke-width=".5"/><line x1="111.079" y1="147.017" x2="111.368" y2="135.753" fill="none" stroke="#231f20" stroke-linecap="round" stroke-linejoin="round" stroke-width=".5"/><polyline points="122.539 146.875 133.575 139.801 133.772 121.55" fill="none" stroke="#231f20" stroke-linecap="round" stroke-linejoin="round" stroke-width=".5"/><line x1="87.95" y1="126.031" x2="87.805" y2="133.364" fill="none" stroke="#231f20" stroke-linecap="round" stroke-linejoin="round" stroke-width=".5"/><line x1="105.278" y1="132.161" x2="104.924" y2="151.12" fill="none" stroke="#231f20" stroke-linecap="round" stroke-linejoin="round" stroke-width=".5"/><line x1="101.175" y1="134.708" x2="101.034" y2="137.962" fill="none" stroke="#231f20" stroke-linecap="round" stroke-linejoin="round" stroke-width=".5"/><polyline points="83.985 132.02 86.073 130.782 87.805 129.756" fill="none" stroke="#231f20" stroke-linecap="round" stroke-linejoin="round" stroke-width=".5"/><line x1="86.178" y1="133.576" x2="86.073" y2="130.782" fill="none" stroke="#231f20" stroke-linecap="round" stroke-linejoin="round" stroke-width=".5"/><line x1="54.522" y1="150.885" x2="58.074" y2="148.593" fill="none" stroke="#231f20" stroke-linecap="round" stroke-linejoin="round" stroke-width=".5"/><line x1="58.446" y1="144.968" x2="58.188" y2="152.375" fill="none" stroke="#231f20" stroke-linecap="round" stroke-linejoin="round" stroke-width=".5"/><line x1="71.465" y1="153.337" x2="71.595" y2="156.729" fill="none" stroke="#231f20" stroke-linecap="round" stroke-linejoin="round" stroke-width=".5"/><line x1="75.946" y1="151.055" x2="75.835" y2="169.677" fill="none" stroke="#231f20" stroke-linecap="round" stroke-linejoin="round" stroke-width=".5"/><line x1="81.525" y1="154.69" x2="81.368" y2="173.262" fill="none" stroke="#231f20" stroke-linecap="round" stroke-linejoin="round" stroke-width=".5"/><polyline points="74.762 159.086 74.689 177.349 57.27 188.54" fill="none" stroke="#231f20" stroke-linecap="round" stroke-linejoin="round" stroke-width=".5"/><line x1="52.359" y1="173.458" x2="52.147" y2="185.309" fill="none" stroke="#231f20" stroke-linecap="round" stroke-linejoin="round" stroke-width=".5"/><line x1="46.441" y1="169.485" x2="46.236" y2="181.447" fill="none" stroke="#231f20" stroke-linecap="round" stroke-linejoin="round" stroke-width=".5"/><line x1="42.214" y1="172.359" x2="42.138" y2="178.61" fill="none" stroke="#231f20" stroke-linecap="round" stroke-linejoin="round" stroke-width=".5"/><line x1="29.025" y1="163.482" x2="28.896" y2="169.703" fill="none" stroke="#231f20" stroke-linecap="round" stroke-linejoin="round" stroke-width=".5"/><path d="M115.758,100.485l.151-1.281,4.219-2.336.151-3.315-1.206-.678.151-4.219.98-1.281.151-5.952-.527-.603v-3.089l.904-.603,5.35,1.884,1.26,2.171-.051,1.17.661,1.221,4.934,3.205s.116,1.148-3.006,1.148c0,0-3.784-1.23-4.54.378,0,0-.662,1.703.946,2.649s13.999,9.175,13.999,9.175c0,0,1.513,1.23,3.784,1.23,0,0,.662-.095,3.689,2.081s37.458,24.877,37.458,24.877c0,0,1.08.585.341,1.455,0,0-.392.609.653,1.262s52.99,35.12,52.99,35.12c0,0,1.098.676.953,1.856,0,0-.269,1.077,1.139,1.864s62.39,41.345,62.39,41.345c0,0,.65,1.626,2.222.921s6.285-3.956,6.285-3.956c0,0,.538-.389-.052-1.322-.204-.323-.543-.711-1.086-1.17l.921-.596-2.746-1.822-2.118.032.064-1.412-2.599-1.765-2.471,1.636s-1.155.674-3.048-.642-6.482-4.332-6.482-4.332c0,0-.802-.898.257-1.572s2.246-1.38,2.246-1.38l-2.771-1.709" fill="none" stroke="#231f20" stroke-linecap="round" stroke-linejoin="round" stroke-width=".5"/><path d="M151.344,99.046l-.35-.156-.117-.933-.7-.7-.039-1.206-4.161-2.8s-.7-.078-.739.894c0,0-.7-.506-1.789-.35l-1.478-.894-.272-.7-1.672,1.167s7.933,5.25,9.139,6.105,1.633.389,1.633.389l1.244-.894,8.011,5.25-.078,1.478,2.139-.039,22.75,14.972.194,1.594h2.1l8.244,5.561-2.178,1.322c-1.089.778-.233,1.633-.233,1.633l7.505,4.939c1.828,1.4,3.344.311,3.344.311l2.022-1.283,6.3,4.122-1.867,1.089s8.167,5.561,9.372,6.339,1.633.233,1.633.233l1.206-.739,5.989,3.85-.117,1.361,2.061.078,5.717,3.694s-.856.467-2.178,1.283-.233,1.711-.233,1.711c0,0,4.861,3.15,6.611,4.433s2.994.389,2.994.389l2.294-1.439,7.194,4.705v1.478l2.061-.117,20.36,13.475c-.67,1.722.351,1.34.351,1.34h1.563l5.231,3.508-.893.67,9.186,6.092c.925.67,1.6-.133,1.6-.133,0-.342-.684-.969-.684-.969,0,0-.684-.513-1.652-1.054s-.285-1.253-.285-1.253l1.196-.456,20.531,13.641.175.698.629-.21,3.98,2.768-.928.657,1.078.725,8.241,5.54s-115.569,73.769-116.512,74.388-1.562,0-1.562,0c0,0-7.543-4.95-8.309-5.48s-.825-.029-.825-.029c-.796.53-1.503-.206-1.503-.206l-3.742-2.357" fill="none" stroke="#231f20" stroke-linecap="round" stroke-linejoin="round" stroke-width=".5"/><path d="M141.389,91.929l-2.022-1.322-2.217.039.233-1.439-3.531-2.379c-.102-.356-1.272-1.323-2.187-1.78s-.356-1.221-.356-1.221l1.323-.458,151.931,100.932.988,1.756v1.262l.768,1.262,5.434,3.568" fill="none" stroke="#231f20" stroke-linecap="round" stroke-linejoin="round" stroke-width=".5"/><polyline points="303.608 200.481 303.159 199.358 298.41 196.118 296.453 195.765 295.33 194.995 295.073 193.839" fill="none" stroke="#231f20" stroke-linecap="round" stroke-linejoin="round" stroke-width=".5"/><line x1="311.583" y1="202.737" x2="311.574" y2="204.705" fill="none" stroke="#231f20" stroke-linecap="round" stroke-linejoin="round" stroke-width=".5"/><line x1="312.033" y1="205.184" x2="312.035" y2="206.483" fill="none" stroke="#231f20" stroke-linecap="round" stroke-linejoin="round" stroke-width=".5"/><polyline points="236.16 154.734 236.329 156.001 237.451 156.787 239.472 157.048 244.335 160.341 244.822 161.538" fill="none" stroke="#231f20" stroke-linecap="round" stroke-linejoin="round" stroke-width=".5"/><path d="M222.08,146.001l-.68-.489-.136-.924-.598-.462-.082-.951s-.054-.571-.734-.979-3.534-2.338-3.534-2.338c0,0-.734.136-.625,1.196,0,0-.027-.544-1.658-.516l-1.577-.897-.292-.812" fill="none" stroke="#231f20" stroke-linecap="round" stroke-linejoin="round" stroke-width=".5"/><polyline points="195.405 127.784 195.657 128.994 197.381 130.19 199.527 130.577 203.89 133.427 204.347 134.623 204.945 135.081" fill="none" stroke="#231f20" stroke-linecap="round" stroke-linejoin="round" stroke-width=".5"/><path d="M129.891,93.235s-1.849.308-1.849,3.312-.308,18.333-.308,18.333l4.622,3.312s1.914,1.384,3.772-.473" fill="none" stroke="#231f20" stroke-linecap="round" stroke-linejoin="round" stroke-width=".5"/><path d="M135.745,97.163l-.077,1.155-4.545-2.85s-.693-.385-.693,1.155-.077,10.784-.077,10.784" fill="none" stroke="#231f20" stroke-linecap="round" stroke-linejoin="round" stroke-width=".5"/><path d="M139.52,117.191l28.578,18.641s1.232,1.155,1.232,1.926" fill="none" stroke="#231f20" stroke-linecap="round" stroke-linejoin="round" stroke-width=".5"/><path d="M171.169,140.603s1.421,1.128,2.391.383,1.669-.18,1.669-.18l15.326,10.108s.969.444.888,1.816-.081,4.762-.081,4.762c0,0,.04.969,1.937,1.856" fill="none" stroke="#231f20" stroke-linecap="round" stroke-linejoin="round" stroke-width=".5"/><ellipse cx="170.647" cy="139.019" rx="1.15" ry="1.751" transform="translate(-49.159 127.522) rotate(-36.174)" fill="none" stroke="#231f20" stroke-linecap="round" stroke-linejoin="round" stroke-width=".5"/><path d="M169.584,136.959c.081-.152.19-.281.328-.382.725-.53,1.967-.065,2.774,1.039s.874,2.428.149,2.958c-.318.233-.736.274-1.173.153" fill="none" stroke="#231f20" stroke-linecap="round" stroke-linejoin="round" stroke-width=".5"/><polyline points="193.218 160.801 193.379 152.085 200.603 147.363 200.684 141.875 201.612 141.31" fill="none" stroke="#231f20" stroke-linecap="round" stroke-linejoin="round" stroke-width=".5"/><polyline points="206.333 144.498 198.424 149.744 221.83 165.321 229.941 159.994" fill="none" stroke="#231f20" stroke-linecap="round" stroke-linejoin="round" stroke-width=".5"/><line x1="205.446" y1="145.022" x2="200.684" y2="141.875" fill="none" stroke="#231f20" stroke-linecap="round" stroke-linejoin="round" stroke-width=".5"/><polyline points="198.424 149.744 198.303 155.717 193.379 152.085" fill="none" stroke="#231f20" stroke-linecap="round" stroke-linejoin="round" stroke-width=".5"/><polyline points="221.83 165.321 221.547 183.804 229.941 178.437" fill="none" stroke="#231f20" stroke-linecap="round" stroke-linejoin="round" stroke-width=".5"/><polyline points="230.264 160.357 229.982 184.127 228.69 185.015 228.731 179.244" fill="none" stroke="#231f20" stroke-linecap="round" stroke-linejoin="round" stroke-width=".5"/><polyline points="221.547 183.804 216.664 180.656 216.624 186.387 220.74 183.683" fill="none" stroke="#231f20" stroke-linecap="round" stroke-linejoin="round" stroke-width=".5"/><line x1="224.534" y1="182.109" x2="228.69" y2="185.015" fill="none" stroke="#231f20" stroke-linecap="round" stroke-linejoin="round" stroke-width=".5"/><line x1="211.308" y1="182.84" x2="216.597" y2="186.36" fill="none" stroke="#231f20" stroke-linecap="round" stroke-linejoin="round" stroke-width=".5"/><line x1="270.209" y1="209.809" x2="271.483" y2="209.074" fill="none" stroke="#231f20" stroke-linecap="round" stroke-linejoin="round" stroke-width=".5"/><line x1="238.352" y1="187.019" x2="237.176" y2="187.755" fill="none" stroke="#231f20" stroke-linecap="round" stroke-linejoin="round" stroke-width=".5"/><polyline points="237.225 188.245 237.225 188.833 236.686 189.127 236.686 190.94 237.96 191.848 237.911 190.548 269.522 211.524 269.473 212.799 270.619 213.539 270.619 211.921" fill="none" stroke="#231f20" stroke-linecap="round" stroke-linejoin="round" stroke-width=".5"/><path d="M291.731,222.177l-14.522-9.735s-.745-.266-.692.745l-2.979-1.809s.372-.692-.319-1.436l-2.181-1.489s-.745-.16-.745.426l-31.433-20.998c.282-.969-.767-1.493-.767-1.493,0,0-1.493-.969-1.937-1.211s-.646.202-.646.202c0,0,.04.404,0,1.17s-.646.404-.646.404l-4.762-3.188" fill="none" stroke="#231f20" stroke-linecap="round" stroke-linejoin="round" stroke-width=".5"/><polyline points="270.209 209.809 270.147 211.357 271.097 211.868 273.485 210.309" fill="none" stroke="#231f20" stroke-linecap="round" stroke-linejoin="round" stroke-width=".5"/><polyline points="272.047 212.478 272.072 214.086 277.164 217.35 277.773 217.009 277.724 215.864 277.213 216.083 276.53 215.718 278.504 214.427 278.991 214.841 278.577 215.255 278.553 216.473 280.77 215.206" fill="none" stroke="#231f20" stroke-linecap="round" stroke-linejoin="round" stroke-width=".5"/><polyline points="212.935 200.377 213.141 194.125 214.768 193.152 270.196 229.816 270.412 235.747" fill="none" stroke="#231f20" stroke-linecap="round" stroke-linejoin="round" stroke-width=".5"/><polyline points="206.356 204.259 206.356 198.112 208.082 196.926 263.726 234.13 263.834 239.845" fill="none" stroke="#231f20" stroke-linecap="round" stroke-linejoin="round" stroke-width=".5"/><polyline points="199.778 203.827 199.778 202.426 201.504 201.455 257.148 238.228 257.148 244.051" fill="none" stroke="#231f20" stroke-linecap="round" stroke-linejoin="round" stroke-width=".5"/><polyline points="230.053 223.979 230.038 228.953 229.973 250.845 238.169 256.129" fill="none" stroke="#231f20" stroke-linecap="round" stroke-linejoin="round" stroke-width=".5"/><polyline points="230.038 228.953 250.46 242.581 250.41 248.718" fill="none" stroke="#231f20" stroke-linecap="round" stroke-linejoin="round" stroke-width=".5"/><polyline points="230.266 231.296 248.777 243.521 248.728 249.609" fill="none" stroke="#231f20" stroke-linecap="round" stroke-linejoin="round" stroke-width=".5"/><polyline points="255.459 245.303 255.459 239.265 199.778 202.426" fill="none" stroke="#231f20" stroke-linecap="round" stroke-linejoin="round" stroke-width=".5"/><polyline points="206.356 198.112 261.893 235.058 261.943 241.096" fill="none" stroke="#231f20" stroke-linecap="round" stroke-linejoin="round" stroke-width=".5"/><polyline points="268.724 236.988 268.575 230.85 213.388 194.323" fill="none" stroke="#231f20" stroke-linecap="round" stroke-linejoin="round" stroke-width=".5"/><polyline points="228.271 234.559 228.29 258.7 216.356 266.159" fill="none" stroke="#231f20" stroke-linecap="round" stroke-linejoin="round" stroke-width=".5"/><line x1="197.532" y1="245.028" x2="197.26" y2="251.838" fill="none" stroke="#231f20" stroke-linecap="round" stroke-linejoin="round" stroke-width=".5"/><line x1="206.442" y1="239.126" x2="206.311" y2="258.103" fill="none" stroke="#231f20" stroke-linecap="round" stroke-linejoin="round" stroke-width=".5"/><line x1="214.238" y1="244.026" x2="213.77" y2="262.678" fill="none" stroke="#231f20" stroke-linecap="round" stroke-linejoin="round" stroke-width=".5"/><line x1="167.24" y1="212.842" x2="166.981" y2="222.478" fill="none" stroke="#231f20" stroke-linecap="round" stroke-linejoin="round" stroke-width=".5"/><line x1="165.68" y1="223.645" x2="165.478" y2="230.466" fill="none" stroke="#231f20" stroke-linecap="round" stroke-linejoin="round" stroke-width=".5"/><polyline points="158.805 238.454 158.617 228.963 160.497 227.741 216.007 264.615 215.894 270.577" fill="none" stroke="#231f20" stroke-linecap="round" stroke-linejoin="round" stroke-width=".5"/><polyline points="149.407 240.616 149.407 234.789 151.099 233.662 206.703 270.487 206.68 276.584" fill="none" stroke="#231f20" stroke-linecap="round" stroke-linejoin="round" stroke-width=".5"/><polyline points="142.923 245.315 142.923 239.112 144.521 237.984 200.222 274.665 200.061 280.932" fill="none" stroke="#231f20" stroke-linecap="round" stroke-linejoin="round" stroke-width=".5"/><polyline points="150.065 234.789 204.948 271.44 205.032 277.736" fill="none" stroke="#231f20" stroke-linecap="round" stroke-linejoin="round" stroke-width=".5"/><polyline points="158.617 228.963 214.44 265.708 214.291 271.684" fill="none" stroke="#231f20" stroke-linecap="round" stroke-linejoin="round" stroke-width=".5"/><polyline points="142.923 239.112 198.464 275.763 198.392 281.146" fill="none" stroke="#231f20" stroke-linecap="round" stroke-linejoin="round" stroke-width=".5"/><line x1="198.464" y1="275.763" x2="200.222" y2="274.665" fill="none" stroke="#231f20" stroke-linecap="round" stroke-linejoin="round" stroke-width=".5"/><line x1="204.948" y1="271.44" x2="206.703" y2="270.487" fill="none" stroke="#231f20" stroke-linecap="round" stroke-linejoin="round" stroke-width=".5"/><line x1="214.44" y1="265.708" x2="216.007" y2="264.615" fill="none" stroke="#231f20" stroke-linecap="round" stroke-linejoin="round" stroke-width=".5"/><line x1="195.874" y1="280.89" x2="195.944" y2="287.629" fill="none" stroke="#231f20" stroke-linecap="round" stroke-linejoin="round" stroke-width=".5"/><line x1="248.777" y1="243.521" x2="250.46" y2="242.581" fill="none" stroke="#231f20" stroke-linecap="round" stroke-linejoin="round" stroke-width=".5"/><line x1="255.459" y1="239.265" x2="257.148" y2="238.228" fill="none" stroke="#231f20" stroke-linecap="round" stroke-linejoin="round" stroke-width=".5"/><line x1="261.893" y1="235.058" x2="263.726" y2="234.13" fill="none" stroke="#231f20" stroke-linecap="round" stroke-linejoin="round" stroke-width=".5"/><line x1="268.575" y1="230.85" x2="270.196" y2="229.816" fill="none" stroke="#231f20" stroke-linecap="round" stroke-linejoin="round" stroke-width=".5"/><polyline points="64.869 193.562 64.869 187.343 66.547 186.257 71.282 189.374 122.026 222.782 122.125 231.469" fill="none" stroke="#231f20" stroke-linecap="round" stroke-linejoin="round" stroke-width=".5"/><polyline points="128.64 225.645 128.64 218.636 77.902 184.871 73.161 181.716 71.483 182.999 71.282 189.374" fill="none" stroke="#231f20" stroke-linecap="round" stroke-linejoin="round" stroke-width=".5"/><polyline points="135.155 221.301 135.155 214.391 79.775 177.767 78.097 178.656 77.902 184.871" fill="none" stroke="#231f20" stroke-linecap="round" stroke-linejoin="round" stroke-width=".5"/><polyline points="84.612 180.334 84.81 174.312 86.389 173.424 142 210.298 141.967 217.056" fill="none" stroke="#231f20" stroke-linecap="round" stroke-linejoin="round" stroke-width=".5"/><polyline points="78.097 178.656 133.675 215.477 133.773 222.387" fill="none" stroke="#231f20" stroke-linecap="round" stroke-linejoin="round" stroke-width=".5"/><polyline points="71.483 182.999 126.962 219.722 127.061 226.731" fill="none" stroke="#231f20" stroke-linecap="round" stroke-linejoin="round" stroke-width=".5"/><polyline points="64.869 187.343 120.348 223.868 120.348 230.482" fill="none" stroke="#231f20" stroke-linecap="round" stroke-linejoin="round" stroke-width=".5"/><polyline points="84.81 174.312 140.347 211.338 140.321 218.317" fill="none" stroke="#231f20" stroke-linecap="round" stroke-linejoin="round" stroke-width=".5"/><line x1="120.348" y1="223.868" x2="122.026" y2="222.782" fill="none" stroke="#231f20" stroke-linecap="round" stroke-linejoin="round" stroke-width=".5"/><line x1="126.962" y1="219.722" x2="128.64" y2="218.636" fill="none" stroke="#231f20" stroke-linecap="round" stroke-linejoin="round" stroke-width=".5"/><line x1="133.675" y1="215.477" x2="135.155" y2="214.391" fill="none" stroke="#231f20" stroke-linecap="round" stroke-linejoin="round" stroke-width=".5"/><line x1="140.347" y1="211.338" x2="142" y2="210.298" fill="none" stroke="#231f20" stroke-linecap="round" stroke-linejoin="round" stroke-width=".5"/><polyline points="135.51 143.99 135.671 142.139 137.361 140.932 142.179 144.127 192.807 177.708 192.807 184.71" fill="none" stroke="#231f20" stroke-linecap="round" stroke-linejoin="round" stroke-width=".5"/><polyline points="199.406 180.605 199.326 173.443 143.96 136.828 142.35 137.874 142.179 144.127" fill="none" stroke="#231f20" stroke-linecap="round" stroke-linejoin="round" stroke-width=".5"/><polyline points="148.949 139.242 148.869 133.609 150.559 132.482 205.925 169.259 206.005 176.421" fill="none" stroke="#231f20" stroke-linecap="round" stroke-linejoin="round" stroke-width=".5"/><polyline points="165.607 168.132 186.128 181.893 186.369 188.894" fill="none" stroke="#231f20" stroke-linecap="round" stroke-linejoin="round" stroke-width=".5"/><polyline points="165.195 163.719 165.257 170.389 165.446 190.584 179.449 200 180.253 200 181.139 200.563 181.541 201.207 182.426 201.69 185.22 200.102 185.294 195.253 183.349 193.8 182.98 192.545 181.528 192.2 181.503 195.967" fill="none" stroke="#231f20" stroke-linecap="round" stroke-linejoin="round" stroke-width=".5"/><polyline points="165.257 170.389 184.438 182.859 184.519 190.021" fill="none" stroke="#231f20" stroke-linecap="round" stroke-linejoin="round" stroke-width=".5"/><polyline points="135.671 142.139 191.198 178.835 191.117 185.595" fill="none" stroke="#231f20" stroke-linecap="round" stroke-linejoin="round" stroke-width=".5"/><polyline points="148.869 133.609 204.315 170.224 204.315 177.145" fill="none" stroke="#231f20" stroke-linecap="round" stroke-linejoin="round" stroke-width=".5"/><polyline points="142.833 138.115 197.797 174.57 197.716 181.732" fill="none" stroke="#231f20" stroke-linecap="round" stroke-linejoin="round" stroke-width=".5"/><line x1="184.438" y1="182.859" x2="186.128" y2="181.893" fill="none" stroke="#231f20" stroke-linecap="round" stroke-linejoin="round" stroke-width=".5"/><line x1="191.198" y1="178.835" x2="192.807" y2="177.708" fill="none" stroke="#231f20" stroke-linecap="round" stroke-linejoin="round" stroke-width=".5"/><line x1="197.797" y1="174.57" x2="199.326" y2="173.443" fill="none" stroke="#231f20" stroke-linecap="round" stroke-linejoin="round" stroke-width=".5"/><line x1="204.315" y1="170.224" x2="205.925" y2="169.259" fill="none" stroke="#231f20" stroke-linecap="round" stroke-linejoin="round" stroke-width=".5"/><polyline points="165.474 184.94 180.001 195.08 182.55 196.859 182.436 201.329" fill="none" stroke="#231f20" stroke-linecap="round" stroke-linejoin="round" stroke-width=".5"/><line x1="179.778" y1="199.941" x2="179.937" y2="195.223" fill="none" stroke="#231f20" stroke-linecap="round" stroke-linejoin="round" stroke-width=".5"/><line x1="185.86" y1="199.585" x2="188.544" y2="197.936" fill="none" stroke="#231f20" stroke-linecap="round" stroke-linejoin="round" stroke-width=".5"/><polyline points="185.466 190.945 185.762 191.88 187.756 193.554 187.805 194.096 187.682 194.588 185.934 195.671" fill="none" stroke="#231f20" stroke-linecap="round" stroke-linejoin="round" stroke-width=".5"/><line x1="181.7" y1="192.028" x2="184.063" y2="190.526" fill="none" stroke="#231f20" stroke-linecap="round" stroke-linejoin="round" stroke-width=".5"/><line x1="185.466" y1="191.191" x2="183.226" y2="192.569" fill="none" stroke="#231f20" stroke-linecap="round" stroke-linejoin="round" stroke-width=".5"/><polyline points="188.672 198.034 188.746 193.184 186.801 191.732 186.432 190.476 184.979 190.131" fill="none" stroke="#231f20" stroke-linecap="round" stroke-linejoin="round" stroke-width=".5"/><line x1="189.312" y1="197.517" x2="191.995" y2="195.867" fill="none" stroke="#231f20" stroke-linecap="round" stroke-linejoin="round" stroke-width=".5"/><polyline points="188.918 188.876 189.214 189.811 191.208 191.485 191.257 192.027 191.134 192.519 189.386 193.602" fill="none" stroke="#231f20" stroke-linecap="round" stroke-linejoin="round" stroke-width=".5"/><line x1="185.152" y1="189.959" x2="187.515" y2="188.457" fill="none" stroke="#231f20" stroke-linecap="round" stroke-linejoin="round" stroke-width=".5"/><line x1="188.918" y1="189.122" x2="186.678" y2="190.501" fill="none" stroke="#231f20" stroke-linecap="round" stroke-linejoin="round" stroke-width=".5"/><polyline points="191.802 195.927 191.876 191.077 189.931 189.625 189.562 188.369 188.109 188.025" fill="none" stroke="#231f20" stroke-linecap="round" stroke-linejoin="round" stroke-width=".5"/><line x1="192.442" y1="195.41" x2="195.125" y2="193.761" fill="none" stroke="#231f20" stroke-linecap="round" stroke-linejoin="round" stroke-width=".5"/><polyline points="192.048 186.769 192.343 187.705 194.337 189.379 194.387 189.92 194.264 190.413 192.516 191.496" fill="none" stroke="#231f20" stroke-linecap="round" stroke-linejoin="round" stroke-width=".5"/><line x1="188.282" y1="187.852" x2="190.645" y2="186.351" fill="none" stroke="#231f20" stroke-linecap="round" stroke-linejoin="round" stroke-width=".5"/><line x1="192.048" y1="187.015" x2="189.808" y2="188.394" fill="none" stroke="#231f20" stroke-linecap="round" stroke-linejoin="round" stroke-width=".5"/><polyline points="195.142 193.941 195.216 189.091 193.271 187.639 192.902 186.383 191.45 186.039" fill="none" stroke="#231f20" stroke-linecap="round" stroke-linejoin="round" stroke-width=".5"/><line x1="195.782" y1="193.424" x2="198.466" y2="191.774" fill="none" stroke="#231f20" stroke-linecap="round" stroke-linejoin="round" stroke-width=".5"/><polyline points="195.389 184.783 195.684 185.718 197.678 187.392 197.727 187.934 197.604 188.426 195.856 189.51" fill="none" stroke="#231f20" stroke-linecap="round" stroke-linejoin="round" stroke-width=".5"/><line x1="191.622" y1="185.866" x2="193.985" y2="184.365" fill="none" stroke="#231f20" stroke-linecap="round" stroke-linejoin="round" stroke-width=".5"/><line x1="195.389" y1="185.029" x2="193.148" y2="186.408" fill="none" stroke="#231f20" stroke-linecap="round" stroke-linejoin="round" stroke-width=".5"/><polyline points="198.423 191.804 198.497 186.954 196.552 185.502 196.183 184.246 194.73 183.902" fill="none" stroke="#231f20" stroke-linecap="round" stroke-linejoin="round" stroke-width=".5"/><line x1="199.063" y1="191.287" x2="201.746" y2="189.638" fill="none" stroke="#231f20" stroke-linecap="round" stroke-linejoin="round" stroke-width=".5"/><polyline points="198.669 182.646 198.964 183.582 200.958 185.256 201.008 185.797 200.885 186.29 199.137 187.373" fill="none" stroke="#231f20" stroke-linecap="round" stroke-linejoin="round" stroke-width=".5"/><line x1="194.902" y1="183.729" x2="197.266" y2="182.228" fill="none" stroke="#231f20" stroke-linecap="round" stroke-linejoin="round" stroke-width=".5"/><line x1="198.669" y1="182.892" x2="196.429" y2="184.271" fill="none" stroke="#231f20" stroke-linecap="round" stroke-linejoin="round" stroke-width=".5"/><polyline points="201.703 189.667 201.777 184.818 199.832 183.365 199.463 182.11 198.01 181.765" fill="none" stroke="#231f20" stroke-linecap="round" stroke-linejoin="round" stroke-width=".5"/><line x1="202.343" y1="189.15" x2="205.026" y2="187.501" fill="none" stroke="#231f20" stroke-linecap="round" stroke-linejoin="round" stroke-width=".5"/><polyline points="201.949 180.51 202.245 181.445 204.239 183.119 204.288 183.661 204.165 184.153 202.417 185.236" fill="none" stroke="#231f20" stroke-linecap="round" stroke-linejoin="round" stroke-width=".5"/><line x1="198.183" y1="181.593" x2="200.546" y2="180.091" fill="none" stroke="#231f20" stroke-linecap="round" stroke-linejoin="round" stroke-width=".5"/><line x1="201.949" y1="180.756" x2="199.709" y2="182.134" fill="none" stroke="#231f20" stroke-linecap="round" stroke-linejoin="round" stroke-width=".5"/><polyline points="204.972 187.525 205.045 182.676 203.101 181.223 202.731 179.968 201.279 179.623" fill="none" stroke="#231f20" stroke-linecap="round" stroke-linejoin="round" stroke-width=".5"/><line x1="205.612" y1="187.008" x2="208.295" y2="185.359" fill="none" stroke="#231f20" stroke-linecap="round" stroke-linejoin="round" stroke-width=".5"/><polyline points="205.218 178.368 205.513 179.303 207.507 180.977 207.556 181.519 207.433 182.011 205.686 183.094" fill="none" stroke="#231f20" stroke-linecap="round" stroke-linejoin="round" stroke-width=".5"/><line x1="201.451" y1="179.451" x2="203.815" y2="177.949" fill="none" stroke="#231f20" stroke-linecap="round" stroke-linejoin="round" stroke-width=".5"/><line x1="205.218" y1="178.614" x2="202.978" y2="179.993" fill="none" stroke="#231f20" stroke-linecap="round" stroke-linejoin="round" stroke-width=".5"/><polyline points="208.342 185.449 208.416 180.599 206.471 179.147 206.102 177.891 204.65 177.547" fill="none" stroke="#231f20" stroke-linecap="round" stroke-linejoin="round" stroke-width=".5"/><polyline points="208.982 184.932 210.986 183.58 211.01 179.986" fill="none" stroke="#231f20" stroke-linecap="round" stroke-linejoin="round" stroke-width=".5"/><polyline points="204.822 177.374 207.185 175.873 208.588 176.291 208.884 177.227 210.878 178.901 210.927 179.442 210.804 179.935 209.056 181.018" fill="none" stroke="#231f20" stroke-linecap="round" stroke-linejoin="round" stroke-width=".5"/><line x1="208.588" y1="176.537" x2="206.348" y2="177.916" fill="none" stroke="#231f20" stroke-linecap="round" stroke-linejoin="round" stroke-width=".5"/><path d="M181.432,193.791l2.68,2.68s.521-.409,1.005-.298" fill="none" stroke="#231f20" stroke-linecap="round" stroke-linejoin="round" stroke-width=".5"/><polyline points="123.783 232.794 123.836 229.215 125.288 229.56 125.657 230.815 127.602 232.268 127.528 233.028" fill="none" stroke="#231f20" stroke-linecap="round" stroke-linejoin="round" stroke-width=".5"/><line x1="128.857" y1="236.177" x2="130.852" y2="234.951" fill="none" stroke="#231f20" stroke-linecap="round" stroke-linejoin="round" stroke-width=".5"/><polyline points="127.775 227.959 128.07 228.895 130.064 230.569 130.113 231.11 129.99 231.603 128.242 232.686 128.188 235.547" fill="none" stroke="#231f20" stroke-linecap="round" stroke-linejoin="round" stroke-width=".5"/><line x1="124.008" y1="229.043" x2="126.371" y2="227.541" fill="none" stroke="#231f20" stroke-linecap="round" stroke-linejoin="round" stroke-width=".5"/><line x1="127.775" y1="228.206" x2="125.534" y2="229.584" fill="none" stroke="#231f20" stroke-linecap="round" stroke-linejoin="round" stroke-width=".5"/><polyline points="130.952 234.773 131.026 229.923 129.081 228.47 128.712 227.215 127.26 226.87" fill="none" stroke="#231f20" stroke-linecap="round" stroke-linejoin="round" stroke-width=".5"/><line x1="131.592" y1="234.256" x2="134.276" y2="232.606" fill="none" stroke="#231f20" stroke-linecap="round" stroke-linejoin="round" stroke-width=".5"/><polyline points="131.198 225.615 131.494 226.55 133.488 228.224 133.537 228.766 133.414 229.258 131.666 230.341" fill="none" stroke="#231f20" stroke-linecap="round" stroke-linejoin="round" stroke-width=".5"/><line x1="127.432" y1="226.698" x2="129.795" y2="225.196" fill="none" stroke="#231f20" stroke-linecap="round" stroke-linejoin="round" stroke-width=".5"/><line x1="131.198" y1="225.861" x2="128.958" y2="227.24" fill="none" stroke="#231f20" stroke-linecap="round" stroke-linejoin="round" stroke-width=".5"/><polyline points="134.19 232.726 134.264 227.876 132.319 226.424 131.95 225.168 130.498 224.823" fill="none" stroke="#231f20" stroke-linecap="round" stroke-linejoin="round" stroke-width=".5"/><line x1="134.83" y1="232.209" x2="137.513" y2="230.559" fill="none" stroke="#231f20" stroke-linecap="round" stroke-linejoin="round" stroke-width=".5"/><polyline points="134.436 223.568 134.732 224.503 136.726 226.177 136.775 226.719 136.652 227.211 134.904 228.294" fill="none" stroke="#231f20" stroke-linecap="round" stroke-linejoin="round" stroke-width=".5"/><line x1="130.67" y1="224.651" x2="133.033" y2="223.149" fill="none" stroke="#231f20" stroke-linecap="round" stroke-linejoin="round" stroke-width=".5"/><line x1="134.436" y1="223.814" x2="132.196" y2="225.193" fill="none" stroke="#231f20" stroke-linecap="round" stroke-linejoin="round" stroke-width=".5"/><polyline points="137.577 230.604 137.651 225.755 135.706 224.302 135.337 223.047 133.884 222.702" fill="none" stroke="#231f20" stroke-linecap="round" stroke-linejoin="round" stroke-width=".5"/><line x1="138.217" y1="230.087" x2="140.9" y2="228.438" fill="none" stroke="#231f20" stroke-linecap="round" stroke-linejoin="round" stroke-width=".5"/><polyline points="137.823 221.447 138.118 222.382 140.112 224.056 140.162 224.598 140.039 225.09 138.291 226.173" fill="none" stroke="#231f20" stroke-linecap="round" stroke-linejoin="round" stroke-width=".5"/><line x1="134.057" y1="222.53" x2="136.42" y2="221.028" fill="none" stroke="#231f20" stroke-linecap="round" stroke-linejoin="round" stroke-width=".5"/><line x1="137.823" y1="221.693" x2="135.583" y2="223.071" fill="none" stroke="#231f20" stroke-linecap="round" stroke-linejoin="round" stroke-width=".5"/><polyline points="140.815 228.446 140.889 223.596 138.944 222.144 138.574 220.888 137.122 220.543" fill="none" stroke="#231f20" stroke-linecap="round" stroke-linejoin="round" stroke-width=".5"/><line x1="141.455" y1="227.929" x2="144.138" y2="226.279" fill="none" stroke="#231f20" stroke-linecap="round" stroke-linejoin="round" stroke-width=".5"/><polyline points="141.061 219.288 141.356 220.223 143.35 221.897 143.4 222.439 143.276 222.931 141.529 224.015" fill="none" stroke="#231f20" stroke-linecap="round" stroke-linejoin="round" stroke-width=".5"/><line x1="137.294" y1="220.371" x2="139.658" y2="218.869" fill="none" stroke="#231f20" stroke-linecap="round" stroke-linejoin="round" stroke-width=".5"/><line x1="141.061" y1="219.534" x2="138.821" y2="220.913" fill="none" stroke="#231f20" stroke-linecap="round" stroke-linejoin="round" stroke-width=".5"/><polyline points="144.09 226.399 144.164 221.549 142.219 220.097 141.85 218.841 140.397 218.497" fill="none" stroke="#231f20" stroke-linecap="round" stroke-linejoin="round" stroke-width=".5"/><line x1="144.73" y1="225.882" x2="147.413" y2="224.232" fill="none" stroke="#231f20" stroke-linecap="round" stroke-linejoin="round" stroke-width=".5"/><polyline points="144.336 217.241 144.631 218.177 146.625 219.851 146.675 220.392 146.551 220.884 144.804 221.968" fill="none" stroke="#231f20" stroke-linecap="round" stroke-linejoin="round" stroke-width=".5"/><line x1="140.569" y1="218.324" x2="142.933" y2="216.823" fill="none" stroke="#231f20" stroke-linecap="round" stroke-linejoin="round" stroke-width=".5"/><line x1="144.336" y1="217.487" x2="142.096" y2="218.866" fill="none" stroke="#231f20" stroke-linecap="round" stroke-linejoin="round" stroke-width=".5"/><polyline points="147.514 224.203 147.588 219.353 145.643 217.901 145.273 216.645 143.821 216.301" fill="none" stroke="#231f20" stroke-linecap="round" stroke-linejoin="round" stroke-width=".5"/><polyline points="148.154 223.686 150.044 222.334 150.068 218.74" fill="none" stroke="#231f20" stroke-linecap="round" stroke-linejoin="round" stroke-width=".5"/><polyline points="143.993 216.128 146.357 214.627 147.76 215.045 148.055 215.981 150.049 217.655 150.099 218.196 149.975 218.689 148.228 219.772" fill="none" stroke="#231f20" stroke-linecap="round" stroke-linejoin="round" stroke-width=".5"/><line x1="147.76" y1="215.291" x2="145.52" y2="216.67" fill="none" stroke="#231f20" stroke-linecap="round" stroke-linejoin="round" stroke-width=".5"/><polyline points="127.305 233.158 126.753 233.207 126.428 234.539" fill="none" stroke="#231f20" stroke-linecap="round" stroke-linejoin="round" stroke-width=".5"/><polyline points="15.915 160.657 19.343 158.508 22.157 160.299 24.92 158.559 22.106 156.666 25.994 154.21 28.91 155.95" fill="none" stroke="#231f20" stroke-linecap="round" stroke-linejoin="round" stroke-width=".5"/><polyline points="31.213 154.619 29.013 153.084 29.013 152.163 32.696 149.81 35.613 151.652" fill="none" stroke="#231f20" stroke-linecap="round" stroke-linejoin="round" stroke-width=".5"/><polyline points="37.864 150.168 35.869 148.838 35.817 148.019 39.552 145.563 42.366 147.354" fill="none" stroke="#231f20" stroke-linecap="round" stroke-linejoin="round" stroke-width=".5"/><polyline points="71.719 128.782 69.724 127.452 69.673 126.633 73.408 124.178 76.222 125.968" fill="none" stroke="#231f20" stroke-linecap="round" stroke-linejoin="round" stroke-width=".5"/><polyline points="78.419 124.35 76.423 123.02 76.372 122.201 80.107 119.746 82.921 121.536" fill="none" stroke="#231f20" stroke-linecap="round" stroke-linejoin="round" stroke-width=".5"/><polyline points="85.015 120.124 83.02 118.794 82.969 117.976 86.704 115.52 89.518 117.31" fill="none" stroke="#231f20" stroke-linecap="round" stroke-linejoin="round" stroke-width=".5"/><polyline points="91.818 115.796 89.822 114.465 89.771 113.647 93.506 111.191 96.32 112.982" fill="none" stroke="#231f20" stroke-linecap="round" stroke-linejoin="round" stroke-width=".5"/><polyline points="98.517 111.467 96.522 110.136 96.471 109.318 100.206 106.862 103.02 108.653 104.497 107.81 102.51 106.419 108.671 102.593 121.242 110.94 121.242 113.027" fill="none" stroke="#231f20" stroke-linecap="round" stroke-linejoin="round" stroke-width=".5"/><polyline points="62.87 130.962 66.605 128.507 69.419 130.297" fill="none" stroke="#231f20" stroke-linecap="round" stroke-linejoin="round" stroke-width=".5"/><polyline points="44.771 145.922 42.622 144.591 42.622 143.466 46.357 141.214 49.12 143.056" fill="none" stroke="#231f20" stroke-linecap="round" stroke-linejoin="round" stroke-width=".5"/><polyline points="51.474 141.573 49.427 140.14 49.376 139.27 54.85 135.893 57.767 137.838" fill="none" stroke="#231f20" stroke-linecap="round" stroke-linejoin="round" stroke-width=".5"/><polyline points="61.103 138.162 61.206 131.771 69.761 137.337" fill="none" stroke="#231f20" stroke-linecap="round" stroke-linejoin="round" stroke-width=".5"/><line x1="115.677" y1="114.667" x2="121.242" y2="110.94" fill="none" stroke="#231f20" stroke-linecap="round" stroke-linejoin="round" stroke-width=".5"/><polyline points="110.41 103.537 110.46 102.394 109.963 100.655 113.044 98.767 125.913 107.313 123.081 109.3 110.46 100.953" fill="none" stroke="#231f20" stroke-linecap="round" stroke-linejoin="round" stroke-width=".5"/><line x1="123.081" y1="109.3" x2="122.882" y2="114.12" fill="none" stroke="#231f20" stroke-linecap="round" stroke-linejoin="round" stroke-width=".5"/><polyline points="124.224 115.064 125.76 113.9 125.913 107.313" fill="none" stroke="#231f20" stroke-linecap="round" stroke-linejoin="round" stroke-width=".5"/><path d="M134.824,116.403c-4.981-.155-5.428-3.276-5.428-3.276l-.402-.186c-1.237-2.66,1.237-5.011,1.237-5.011l4.88-3.061,7.97,5.299" fill="none" stroke="#231f20" stroke-linecap="round" stroke-linejoin="round" stroke-width=".5"/><path d="M135.212,115.427c-2.382.186-3.991-1.063-3.991-1.063-3.588-2.753-.804-5.445-.804-5.445,1.021-1.64,4.176-1.732,4.176-1.732l.742-.557.402.309-.309.742,4.826,3.341.526.062" fill="none" stroke="#231f20" stroke-linecap="round" stroke-linejoin="round" stroke-width=".5"/><path d="M140.471,112.446s-.842,1.618-3.193,2.206c0,0-4.261.818-1.478,2.755" fill="none" stroke="#231f20" stroke-linecap="round" stroke-linejoin="round" stroke-width=".5"/><path d="M140.935,113.374s-1.423,1.578-3.712,1.98c0,0-2.722.557-1.145,2.258,0,0,1.825.495,3.991-.959s2.908-1.918,2.908-1.918" fill="none" stroke="#231f20" stroke-linecap="round" stroke-linejoin="round" stroke-width=".5"/><path d="M142.307,110.966l1.717.499s1.75.845,1.651,2.202c0,0-.118,1.278-1.573,1.317l-2.241-.727s-1.494-1.101-1.199-2.221c0,0,.048-1.201,1.645-1.069Z" fill="none" stroke="#231f20" stroke-linecap="round" stroke-linejoin="round" stroke-width=".5"/><path d="M141.056,111.111s.098-1.121,2.084-.786l1.828.727s2.556,1.691.295,3.519" fill="none" stroke="#231f20" stroke-linecap="round" stroke-linejoin="round" stroke-width=".5"/><line x1="142.159" y1="113.435" x2="142.159" y2="111.773" fill="none" stroke="#231f20" stroke-linecap="round" stroke-linejoin="round" stroke-width=".5"/><line x1="143.871" y1="114.028" x2="143.871" y2="112.365" fill="none" stroke="#231f20" stroke-linecap="round" stroke-linejoin="round" stroke-width=".5"/><ellipse cx="132.575" cy="99.826" rx="1.211" ry="1.692" transform="translate(-32.712 84.935) rotate(-31.831)" fill="none" stroke="#231f20" stroke-linecap="round" stroke-linejoin="round" stroke-width=".5"/><path d="M131.201,98.446c.002-.459.153-.831.456-1.019.643-.399,1.729.185,2.424,1.305s.738,2.352.094,2.751c-.241.15-.545.161-.866.058" fill="none" stroke="#231f20" stroke-linecap="round" stroke-linejoin="round" stroke-width=".5"/><line x1="148.965" y1="107.385" x2="193.163" y2="136.793" fill="none" stroke="#231f20" stroke-linecap="round" stroke-linejoin="round" stroke-width=".5"/><polyline points="150.014 105.03 146.622 107.246 146.431 109.872 145.474 110.529 143.449 109.079 143.449 110.036" fill="none" stroke="#231f20" stroke-linecap="round" stroke-linejoin="round" stroke-width=".5"/><polyline points="143.695 108.969 145.856 107.574 145.884 106.808 147.498 105.741 148.045 106.097" fill="none" stroke="#231f20" stroke-linecap="round" stroke-linejoin="round" stroke-width=".5"/><polyline points="146.814 107.191 147.935 107.875 151.218 105.796" fill="none" stroke="#231f20" stroke-linecap="round" stroke-linejoin="round" stroke-width=".5"/><polyline points="194.093 136.276 191.819 137.655 194.024 139.068 196.265 137.689 196.23 147.476 193.956 148.958 194.059 139.102" fill="none" stroke="#231f20" stroke-linecap="round" stroke-linejoin="round" stroke-width=".5"/><polyline points="193.714 148.82 191.474 147.339 191.708 146.791 191.812 137.658" fill="none" stroke="#231f20" stroke-linecap="round" stroke-linejoin="round" stroke-width=".5"/><path d="M191.578,146.998l-.822-.508.213-9.304-43.71-28.859-.069,3.756s1.172.827.758,1.93c0,0,0,.896-1.31.586l-.069,3.412,44.045,29.311" fill="none" stroke="#231f20" stroke-linecap="round" stroke-linejoin="round" stroke-width=".5"/><path d="M144.103,114.984s1.023,1.251,2.414,1.348" fill="none" stroke="#231f20" stroke-linecap="round" stroke-linejoin="round" stroke-width=".5"/></g><g id="c"><path d="M187.848,54.131l3.356-.748s5.001-.71,14.819-6.46,10.224-13.454,10.224-13.454l5.363-3.708-3.514-2.14-1.54,1.157c-2.347,1.588-4.924.107-4.924.107,0,0-23.123-13.343-24.548-14.671s2.976-3.25,2.976-3.25l-3.616-2.283-5.257,3.374s-12.322,1.198-19.999,8.286-4.808,18.033-4.808,18.033" fill="#d0cfcd"/><path d="M218.067,83.534l.965,7.173c2.069,9.866,15.397,17.132,31.255,16.588,17.035-.585,30.538-9.96,30.161-20.941l-.591-6.431" fill="#d1d3d4" stroke="#231f20" stroke-linecap="round" stroke-linejoin="round" stroke-width=".521"/><ellipse cx="248.982" cy="81.869" rx="30.862" ry="19.894" transform="translate(-2.662 8.59) rotate(-1.966)" fill="#d1d3d4" stroke="#231f20" stroke-linecap="round" stroke-linejoin="round" stroke-width=".521"/><line x1="238.625" y1="75.838" x2="258.916" y2="87.909" fill="none" stroke="#231f20" stroke-linecap="round" stroke-linejoin="round" stroke-width="3"/><line x1="258.589" y1="75.395" x2="239.202" y2="88.431" fill="none" stroke="#231f20" stroke-linecap="round" stroke-linejoin="round" stroke-width="3"/><path d="M282.383,87.825s-5.145,2.819-8.959,3.149-5.417.239-5.682,1.178c0,0-1.317,2.142-.648,5.488,0,0-.058,3.116,1.219,3.328s3.706,2.035,3.706,2.035l9.933-4.408.43-10.77Z" fill="#fff"/><path d="M156.377,38.374l-.13.749s-.123,9.224,8.541,15.308c0,0,9.332,6.295,21.204,5.601l.323-4.537,1.533-1.364" fill="#d0cfcd"/><path d="M234.444,30.925l.237,13.669-19.287,12.947c-5.176,4.192-14.758,7.51-19.833,8.091-5.075.581-6.612-3.443-6.612-3.443-1.851-5.997,3.374-7.051,3.374-7.051,13.07-3.18,20.654-9.9,20.654-9.9l21.439-14.396L184.281.25l-22.806,15.437s-8.833,7.33-8.883,17.599l-.107,8.244,2.917,1.66s-1.781-5.644.074-9.566" fill="none" stroke="#231f20" stroke-linecap="round" stroke-linejoin="round" stroke-width=".5"/><path d="M188.947,62.189l-1.391.521s-1.033.164-1.282-2.01.04-5.204.04-5.204l1.533-1.364" fill="none" stroke="#231f20" stroke-linecap="round" stroke-linejoin="round" stroke-width=".5"/><polygon points="196.78 17.736 201.666 14.554 211.566 20.434 206.673 23.698 196.78 17.736" fill="none" stroke="#231f20" stroke-linecap="round" stroke-linejoin="round" stroke-width=".5"/><path d="M156.276,39.102s-.123,9.224,8.541,15.308c0,0,9.332,6.295,21.204,5.601" fill="none" stroke="#231f20" stroke-linecap="round" stroke-linejoin="round" stroke-width=".507"/><path d="M181.184,12.056s-17.014.797-23.136,12.719c0,0-8.601,14.3,6.939,24.212,0,0,15.993,11.268,35.436,1.278,0,0,15.273-7.265,15.823-16.796l5.363-3.708-3.514-2.14-1.788,1.236s-1.893,1.57-4.677.028-24.548-14.671-24.548-14.671c0,0-.972-.854.361-1.724,1.308-.853,2.614-1.526,2.614-1.526l-3.616-2.283-5.257,3.374Z" fill="none" stroke="#231f20" stroke-linecap="round" stroke-linejoin="round" stroke-width=".507"/><line x1="171.722" y1="27.25" x2="192.014" y2="39.321" fill="none" stroke="#231f20" stroke-linecap="round" stroke-linejoin="round" stroke-width="3"/><line x1="191.686" y1="26.807" x2="172.299" y2="39.843" fill="none" stroke="#231f20" stroke-linecap="round" stroke-linejoin="round" stroke-width="3"/><path d="M315.272,69.015l.237,13.669-19.287,12.947c-5.176,4.192-14.758,7.51-19.833,8.091s-6.612-3.443-6.612-3.443c-1.851-5.997,3.374-7.051,3.374-7.051,13.07-3.18,20.654-9.9,20.654-9.9l21.439-14.396-50.134-30.592-22.806,15.437s-4.857,4.03-7.388,10.301" fill="none" stroke="#231f20" stroke-linecap="round" stroke-linejoin="round" stroke-width=".5"/><path d="M238.876,62.865c6.122-11.923,23.136-12.719,23.136-12.719l5.257-3.374,3.616,2.283s-1.307.673-2.614,1.526c-1.334.87-.361,1.724-.361,1.724,0,0,21.764,13.13,24.548,14.671s4.677-.028,4.677-.028l1.788-1.236,3.514,2.14-5.363,3.708c-.55,9.53-15.823,16.796-15.823,16.796-.255.131-.514.251-.764.383-4.689,2.461-10.998,2.646-10.998,2.646,0,0-1.955.302-2.346,2.201,0,0-.289,3.03-.04,5.204s1.282,2.01,1.282,2.01l3.011,1.75" fill="none" stroke="#231f20" stroke-linecap="round" stroke-linejoin="round" stroke-width=".507"/><polygon points="277.609 55.826 282.494 52.644 292.395 58.525 287.501 61.789 277.609 55.826" fill="none" stroke="#231f20" stroke-linecap="round" stroke-linejoin="round" stroke-width=".5"/><line x1="173.228" y1="62.524" x2="135.368" y2="110.347" fill="none" stroke="#fff" stroke-linecap="round" stroke-linejoin="round" stroke-width="3"/><line x1="173.228" y1="62.524" x2="135.368" y2="110.347" fill="#231f20" stroke="#231f20" stroke-linecap="round" stroke-linejoin="round" stroke-width=".5"/></g><g id="d"><line x1="245.82" y1="121.709" x2="245.302" y2="122.02" fill="#231f20"/><polygon points="217.035 100.55 226.111 106.109 210.775 115.302 215.371 118.087 199.187 117.41 197.176 107.065 201.634 109.762 217.035 100.55" fill="#231f20"/><path d="M149.346,60.72c-.673.414-2.693,1.658-4.723,2.46-2.342.924-4.11.863-5.236.107l-.014.026,11.338,9.459c1.125.755,2.893.816,5.237-.108,2.029-.802,4.049-2.045,4.722-2.459l-11.324-9.485Z" stroke="#fff"/><path d="M139.374,63.313c-1.785-1.991-1.098-6.787,2.197-13.426l.101-.334-2.766-2.316,12.605-2.806,3.658,16.427-2.764-2.315c-3.633,7.317-4.169,12.569-1.693,14.229l-11.338-9.459Z" stroke="#fff" stroke-linejoin="round"/><path d="M148.212,28.444c0,7.593-6.246,13.745-13.95,13.745s-13.953-6.152-13.953-13.745,6.246-13.755,13.953-13.755,13.95,6.159,13.95,13.755" fill="#231f20" stroke="#fff" stroke-miterlimit="10" stroke-width="1.5"/><rect x="120.069" y="20.387" width="27.228" height="24.791" fill="none"/><path d="M135.667,35.422h-1.846v-11.761c-.444.424-1.027.848-1.749,1.271s-1.369.742-1.943.954v-1.784c1.032-.485,1.935-1.073,2.707-1.764s1.319-1.36,1.641-2.01h1.189v15.094Z" fill="#fff"/><path d="M215.359,87.588c0,7.593-6.246,13.745-13.95,13.745s-13.953-6.152-13.953-13.745,6.246-13.755,13.953-13.755,13.95,6.159,13.95,13.755" fill="#231f20" stroke="#fff" stroke-miterlimit="10" stroke-width="1.5"/><rect x="188.09" y="79.531" width="27.228" height="24.791" fill="none"/><path d="M206.436,92.793v1.774h-9.936c-.014-.444.058-.872.215-1.282.253-.677.658-1.343,1.216-2,.557-.656,1.361-1.415,2.414-2.276,1.634-1.34,2.738-2.401,3.312-3.184s.861-1.523.861-2.22c0-.731-.262-1.348-.784-1.851-.523-.502-1.205-.753-2.046-.753-.889,0-1.6.267-2.133.8s-.804,1.271-.811,2.215l-1.896-.195c.13-1.415.618-2.493,1.466-3.235.848-.741,1.986-1.112,3.415-1.112,1.442,0,2.584.4,3.425,1.2s1.261,1.791,1.261,2.974c0,.602-.123,1.193-.369,1.774s-.654,1.193-1.225,1.835c-.571.643-1.52,1.524-2.846,2.646-1.107.93-1.818,1.561-2.133,1.892s-.574.665-.779,1h7.372Z" fill="#fff"/></g></svg>