<?xml version="1.0" encoding="UTF-8"?><svg id="a" xmlns="http://www.w3.org/2000/svg" width="4.1in" height="1.65in" viewBox="0 0 295.2 118.8"><polyline points="18.725 44.467 4.15 44.467 4.15 12.322 19.87 12.322" fill="none" stroke="#fff" stroke-miterlimit="10" stroke-width="5.754"/><polyline points="18.725 44.467 4.15 44.467 4.15 12.322 19.87 12.322" fill="none" stroke="#1e4a93" stroke-miterlimit="10" stroke-width="2.877"/><polyline points="18.725 104.87 4.15 104.87 4.15 73.684 19.87 73.684" fill="none" stroke="#fff" stroke-miterlimit="10" stroke-width="5.754"/><polyline points="18.725 104.87 4.15 104.87 4.15 73.684 19.87 73.684" fill="none" stroke="#26a9e0" stroke-miterlimit="10" stroke-width="2.877"/><rect x="17.217" y="3.744" width="131.725" height="19.182" fill="#1e4a93" stroke-width="0"/><path d="M28.217,10.023c.424,0,.785.062,1.083.186s.54.287.727.489c.187.203.323.434.408.693s.128.529.128.808c0,.272-.043.54-.128.803s-.222.496-.408.698c-.187.203-.429.366-.727.489s-.659.185-1.083.185h-1.567v2.432h-1.492v-6.783h3.059ZM27.809,13.215c.171,0,.335-.013.494-.038s.298-.074.418-.147c.121-.073.217-.176.29-.309s.109-.307.109-.522-.037-.39-.109-.522c-.073-.133-.169-.236-.29-.309-.12-.073-.26-.122-.418-.147s-.323-.038-.494-.038h-1.159v2.033h1.159Z" fill="#fff" stroke-width="0"/><path d="M31.38,13.287c.12-.32.291-.592.513-.817.221-.225.487-.399.798-.522.31-.124.659-.185,1.045-.185s.736.062,1.05.185.581.298.803.522c.222.225.393.498.513.817.12.32.18.676.18,1.068s-.06.748-.18,1.064c-.121.317-.292.588-.513.812s-.489.397-.803.518c-.313.121-.664.181-1.05.181s-.735-.06-1.045-.181c-.311-.12-.577-.293-.798-.518-.222-.225-.393-.496-.513-.812-.121-.316-.181-.671-.181-1.064s.06-.749.181-1.068ZM32.606,14.93c.038.187.103.355.195.504.092.149.213.268.366.356.152.089.342.133.57.133s.419-.044.575-.133c.155-.088.279-.207.371-.356s.157-.317.195-.504c.038-.187.057-.378.057-.575s-.019-.389-.057-.579c-.038-.19-.103-.358-.195-.504-.092-.146-.215-.264-.371-.356s-.347-.138-.575-.138-.418.046-.57.138c-.152.092-.274.21-.366.356-.092.146-.157.313-.195.504-.038.19-.057.383-.057.579s.019.388.057.575Z" fill="#fff" stroke-width="0"/><path d="M41.384,16.806l-.874-3.296h-.019l-.836,3.296h-1.396l-1.558-4.912h1.425l.902,3.334h.019l.817-3.334h1.311l.836,3.325h.019l.902-3.325h1.387l-1.548,4.912h-1.387Z" fill="#fff" stroke-width="0"/><path d="M46.333,15.628c.203.197.494.295.874.295.272,0,.506-.068.703-.205.196-.136.316-.28.361-.432h1.188c-.19.589-.481,1.01-.874,1.264s-.868.38-1.425.38c-.387,0-.735-.062-1.045-.185-.31-.124-.573-.299-.788-.527-.216-.228-.382-.5-.499-.817-.117-.317-.176-.665-.176-1.045,0-.367.06-.709.181-1.026.12-.316.291-.59.513-.822.221-.231.486-.413.793-.546.307-.133.647-.199,1.021-.199.418,0,.782.081,1.092.242.31.162.565.378.765.651.2.272.344.583.433.931.088.349.12.713.095,1.093h-3.543c.019.437.13.754.333.95ZM47.858,13.044c-.162-.177-.407-.266-.736-.266-.215,0-.395.036-.537.109-.143.073-.257.163-.342.271s-.146.222-.181.342c-.035.121-.055.228-.062.323h2.194c-.063-.342-.176-.602-.337-.779Z" fill="#fff" stroke-width="0"/><path d="M51.625,11.895v.912h.019c.063-.152.149-.293.256-.423.108-.129.231-.241.371-.333s.288-.163.447-.213c.158-.051.323-.076.494-.076.089,0,.187.016.294.047v1.254c-.063-.013-.139-.023-.228-.033-.089-.009-.174-.014-.257-.014-.247,0-.456.042-.627.124-.171.083-.309.195-.413.337s-.179.309-.223.499c-.044.19-.067.396-.067.618v2.213h-1.349v-4.912h1.282Z" fill="#fff" stroke-width="0"/><path d="M57.814,15.585c.06.104.138.19.232.256.095.066.205.116.328.147.123.032.251.047.384.047.095,0,.195-.011.299-.033.104-.022.2-.057.285-.104s.157-.111.214-.19.085-.179.085-.299c0-.203-.135-.354-.404-.456-.269-.101-.645-.203-1.126-.304-.196-.044-.388-.096-.575-.157-.187-.06-.353-.139-.499-.237-.146-.098-.263-.222-.352-.371-.089-.148-.133-.331-.133-.546,0-.317.062-.577.185-.779s.287-.362.489-.479.431-.2.684-.247.513-.071.779-.071.524.025.774.076c.25.05.473.136.67.256.196.12.359.28.489.479.129.2.207.452.232.755h-1.282c-.019-.26-.117-.436-.294-.527-.178-.092-.387-.138-.627-.138-.076,0-.158.005-.247.014-.089.01-.17.03-.243.062s-.134.078-.185.138-.076.141-.076.242c0,.121.044.219.133.294.088.076.204.138.347.186.143.047.306.09.489.128s.371.08.561.124c.196.044.388.098.575.162.187.063.353.147.499.252.146.104.263.234.352.389.089.155.133.347.133.575,0,.323-.065.594-.195.812-.13.218-.299.394-.508.527-.209.133-.448.227-.717.28s-.543.081-.822.081c-.285,0-.564-.028-.836-.085-.272-.057-.515-.152-.727-.285-.212-.133-.387-.309-.523-.527-.136-.218-.21-.492-.223-.822h1.283c0,.146.03.271.09.375Z" fill="#fff" stroke-width="0"/><path d="M61.809,13.287c.12-.32.291-.592.513-.817.221-.225.487-.399.798-.522.31-.124.659-.185,1.045-.185s.736.062,1.05.185.581.298.803.522c.222.225.393.498.513.817.12.32.18.676.18,1.068s-.06.748-.18,1.064c-.121.317-.292.588-.513.812s-.489.397-.803.518c-.313.121-.664.181-1.05.181s-.735-.06-1.045-.181c-.311-.12-.577-.293-.798-.518-.222-.225-.393-.496-.513-.812-.121-.316-.181-.671-.181-1.064s.06-.749.181-1.068ZM63.034,14.93c.038.187.103.355.195.504.092.149.213.268.366.356.152.089.342.133.57.133s.419-.044.575-.133c.155-.088.279-.207.371-.356s.157-.317.195-.504c.038-.187.057-.378.057-.575s-.019-.389-.057-.579c-.038-.19-.103-.358-.195-.504-.092-.146-.215-.264-.371-.356s-.347-.138-.575-.138-.418.046-.57.138c-.152.092-.274.21-.366.356-.092.146-.157.313-.195.504-.038.19-.057.383-.057.579s.019.388.057.575Z" fill="#fff" stroke-width="0"/><path d="M70.909,16.806v-.684h-.028c-.171.285-.393.491-.665.618-.272.126-.551.19-.836.19-.361,0-.657-.047-.888-.143-.231-.095-.414-.229-.546-.404-.133-.174-.227-.386-.28-.636-.054-.25-.081-.527-.081-.832v-3.021h1.349v2.774c0,.406.063.708.19.907.127.2.352.299.675.299.367,0,.633-.109.798-.328.165-.218.247-.578.247-1.078v-2.575h1.349v4.912h-1.283Z" fill="#fff" stroke-width="0"/><path d="M74.5,11.895v.912h.019c.063-.152.149-.293.256-.423.108-.129.231-.241.371-.333s.288-.163.447-.213c.158-.051.323-.076.494-.076.089,0,.187.016.294.047v1.254c-.063-.013-.139-.023-.228-.033-.089-.009-.174-.014-.257-.014-.247,0-.456.042-.627.124-.171.083-.309.195-.413.337s-.179.309-.223.499c-.044.19-.067.396-.067.618v2.213h-1.349v-4.912h1.282Z" fill="#fff" stroke-width="0"/><path d="M79.089,12.778c-.215,0-.396.049-.542.147s-.264.225-.356.38c-.092.155-.157.327-.195.513-.038.187-.057.372-.057.556,0,.178.019.358.057.542.038.184.1.35.185.499s.201.271.347.366c.146.095.323.143.532.143.323,0,.571-.09.746-.271s.284-.423.328-.727h1.302c-.089.652-.342,1.149-.76,1.491-.418.342-.953.513-1.605.513-.367,0-.705-.062-1.012-.185-.307-.124-.568-.296-.784-.518s-.383-.486-.503-.793c-.121-.307-.181-.645-.181-1.012,0-.38.056-.733.167-1.06s.274-.608.489-.845c.215-.238.478-.423.789-.556.31-.133.665-.199,1.064-.199.291,0,.571.038.841.114.269.076.51.192.722.347.212.155.385.349.518.58.133.231.209.505.228.822h-1.321c-.089-.563-.421-.845-.998-.845Z" fill="#fff" stroke-width="0"/><path d="M83.639,15.628c.203.197.494.295.874.295.272,0,.506-.068.703-.205.196-.136.316-.28.361-.432h1.188c-.19.589-.481,1.01-.874,1.264s-.868.38-1.425.38c-.387,0-.735-.062-1.045-.185-.31-.124-.573-.299-.788-.527-.216-.228-.382-.5-.499-.817-.117-.317-.176-.665-.176-1.045,0-.367.06-.709.181-1.026.12-.316.291-.59.513-.822.221-.231.486-.413.793-.546.307-.133.647-.199,1.021-.199.418,0,.782.081,1.092.242.31.162.565.378.765.651.2.272.344.583.433.931.088.349.12.713.095,1.093h-3.543c.019.437.13.754.333.95ZM85.164,13.044c-.162-.177-.407-.266-.736-.266-.215,0-.395.036-.537.109-.143.073-.257.163-.342.271s-.146.222-.181.342c-.035.121-.055.228-.062.323h2.194c-.063-.342-.176-.602-.337-.779Z" fill="#fff" stroke-width="0"/><path d="M90.317,13.287c.12-.32.291-.592.513-.817.221-.225.487-.399.798-.522.31-.124.659-.185,1.045-.185s.736.062,1.05.185.581.298.803.522c.222.225.393.498.513.817.12.32.18.676.18,1.068s-.06.748-.18,1.064c-.121.317-.292.588-.513.812s-.489.397-.803.518c-.313.121-.664.181-1.05.181s-.735-.06-1.045-.181c-.311-.12-.577-.293-.798-.518-.222-.225-.393-.496-.513-.812-.121-.316-.181-.671-.181-1.064s.06-.749.181-1.068ZM91.543,14.93c.038.187.103.355.195.504.092.149.213.268.366.356.152.089.342.133.57.133s.419-.044.575-.133c.155-.088.279-.207.371-.356s.157-.317.195-.504c.038-.187.057-.378.057-.575s-.019-.389-.057-.579c-.038-.19-.103-.358-.195-.504-.092-.146-.215-.264-.371-.356s-.347-.138-.575-.138-.418.046-.57.138c-.152.092-.274.21-.366.356-.092.146-.157.313-.195.504-.038.19-.057.383-.057.579s.019.388.057.575Z" fill="#fff" stroke-width="0"/><path d="M97.376,11.895v.684h.029c.171-.285.393-.492.665-.622.272-.13.551-.195.836-.195.361,0,.657.049.888.147.231.099.413.234.546.409.133.174.227.386.28.637.054.25.081.527.081.831v3.021h-1.349v-2.774c0-.405-.063-.708-.19-.907-.127-.2-.352-.299-.674-.299-.368,0-.634.109-.798.328-.165.219-.247.578-.247,1.078v2.575h-1.349v-4.912h1.282Z" fill="#fff" stroke-width="0"/><path d="M106.714,12.778c-.215,0-.396.049-.542.147s-.264.225-.356.38c-.092.155-.157.327-.195.513-.038.187-.057.372-.057.556,0,.178.019.358.057.542.038.184.1.35.185.499s.201.271.347.366c.146.095.323.143.532.143.323,0,.571-.09.746-.271s.284-.423.328-.727h1.302c-.089.652-.342,1.149-.76,1.491-.418.342-.953.513-1.605.513-.367,0-.705-.062-1.012-.185-.307-.124-.568-.296-.784-.518s-.383-.486-.503-.793c-.121-.307-.181-.645-.181-1.012,0-.38.056-.733.167-1.06s.274-.608.489-.845c.215-.238.478-.423.789-.556.31-.133.665-.199,1.064-.199.291,0,.571.038.841.114.269.076.51.192.722.347.212.155.385.349.518.58.133.231.209.505.228.822h-1.321c-.089-.563-.421-.845-.998-.845Z" fill="#fff" stroke-width="0"/><path d="M109.858,11.135v-1.112h1.349v1.112h-1.349ZM111.208,11.895v4.912h-1.349v-4.912h1.349Z" fill="#fff" stroke-width="0"/><path d="M113.554,11.895v.912h.019c.063-.152.149-.293.256-.423.108-.129.231-.241.371-.333s.288-.163.447-.213c.158-.051.323-.076.494-.076.089,0,.187.016.294.047v1.254c-.063-.013-.139-.023-.228-.033-.089-.009-.174-.014-.257-.014-.247,0-.456.042-.627.124-.171.083-.309.195-.413.337s-.179.309-.223.499c-.044.19-.067.396-.067.618v2.213h-1.349v-4.912h1.282Z" fill="#fff" stroke-width="0"/><path d="M118.143,12.778c-.215,0-.396.049-.542.147s-.264.225-.356.38c-.092.155-.157.327-.195.513-.038.187-.057.372-.057.556,0,.178.019.358.057.542.038.184.1.35.185.499s.201.271.347.366c.146.095.323.143.532.143.323,0,.571-.09.746-.271s.284-.423.328-.727h1.302c-.089.652-.342,1.149-.76,1.491-.418.342-.953.513-1.605.513-.367,0-.705-.062-1.012-.185-.307-.124-.568-.296-.784-.518s-.383-.486-.503-.793c-.121-.307-.181-.645-.181-1.012,0-.38.056-.733.167-1.06s.274-.608.489-.845c.215-.238.478-.423.789-.556.31-.133.665-.199,1.064-.199.291,0,.571.038.841.114.269.076.51.192.722.347.212.155.385.349.518.58.133.231.209.505.228.822h-1.321c-.089-.563-.421-.845-.998-.845Z" fill="#fff" stroke-width="0"/><path d="M124.574,16.806v-.684h-.028c-.171.285-.393.491-.665.618-.272.126-.551.19-.836.19-.361,0-.657-.047-.888-.143-.231-.095-.414-.229-.546-.404-.133-.174-.227-.386-.28-.636-.054-.25-.081-.527-.081-.832v-3.021h1.349v2.774c0,.406.063.708.19.907.127.2.352.299.675.299.367,0,.633-.109.798-.328.165-.218.247-.578.247-1.078v-2.575h1.349v4.912h-1.283Z" fill="#fff" stroke-width="0"/><path d="M126.92,11.135v-1.112h1.349v1.112h-1.349ZM128.27,11.895v4.912h-1.349v-4.912h1.349Z" fill="#fff" stroke-width="0"/><path d="M132.031,11.895v.903h-.988v2.432c0,.228.038.38.114.456.076.076.228.114.456.114.076,0,.149-.003.219-.01.069-.006.136-.016.199-.028v1.045c-.114.019-.241.032-.38.038-.14.006-.275.009-.409.009-.209,0-.407-.014-.594-.042-.187-.029-.352-.084-.494-.167-.143-.082-.255-.199-.337-.352-.083-.152-.124-.351-.124-.598v-2.897h-.817v-.903h.817v-1.472h1.349v1.472h.988Z" fill="#fff" stroke-width="0"/><path d="M138.843,10.023l2.537,6.783h-1.549l-.513-1.511h-2.537l-.532,1.511h-1.501l2.565-6.783h1.53ZM138.928,14.184l-.855-2.489h-.019l-.883,2.489h1.757Z" fill="#fff" stroke-width="0"/><rect x="17.217" y="95.776" width="131.725" height="19.182" fill="#26a9e0" stroke-width="0"/><path d="M28.217,102.055c.424,0,.785.062,1.083.186s.54.287.727.489c.187.203.323.434.408.693s.128.529.128.808c0,.272-.043.54-.128.803s-.222.496-.408.698c-.187.203-.429.366-.727.489s-.659.185-1.083.185h-1.567v2.432h-1.492v-6.783h3.059ZM27.809,105.248c.171,0,.335-.013.494-.038s.298-.074.418-.147c.121-.073.217-.176.29-.309s.109-.307.109-.522-.037-.39-.109-.522c-.073-.133-.169-.236-.29-.309-.12-.073-.26-.122-.418-.147s-.323-.038-.494-.038h-1.159v2.033h1.159Z" fill="#fff" stroke-width="0"/><path d="M31.38,105.319c.12-.32.291-.592.513-.817.221-.225.487-.399.798-.522.31-.124.659-.185,1.045-.185s.736.062,1.05.185.581.298.803.522c.222.225.393.498.513.817.12.32.18.676.18,1.068s-.06.748-.18,1.064c-.121.317-.292.588-.513.812s-.489.397-.803.518c-.313.121-.664.181-1.05.181s-.735-.06-1.045-.181c-.311-.12-.577-.293-.798-.518-.222-.225-.393-.496-.513-.812-.121-.316-.181-.671-.181-1.064s.06-.749.181-1.068ZM32.606,106.962c.038.187.103.355.195.504.092.149.213.268.366.356.152.089.342.133.57.133s.419-.044.575-.133c.155-.088.279-.207.371-.356s.157-.317.195-.504c.038-.187.057-.378.057-.575s-.019-.389-.057-.579c-.038-.19-.103-.358-.195-.504-.092-.146-.215-.264-.371-.356s-.347-.138-.575-.138-.418.046-.57.138c-.152.092-.274.21-.366.356-.092.146-.157.313-.195.504-.038.19-.057.383-.057.579s.019.388.057.575Z" fill="#fff" stroke-width="0"/><path d="M41.384,108.838l-.874-3.296h-.019l-.836,3.296h-1.396l-1.558-4.912h1.425l.902,3.334h.019l.817-3.334h1.311l.836,3.325h.019l.902-3.325h1.387l-1.548,4.912h-1.387Z" fill="#fff" stroke-width="0"/><path d="M46.333,107.66c.203.197.494.295.874.295.272,0,.506-.068.703-.205.196-.136.316-.28.361-.432h1.188c-.19.589-.481,1.01-.874,1.264s-.868.38-1.425.38c-.387,0-.735-.062-1.045-.185-.31-.124-.573-.299-.788-.527-.216-.228-.382-.5-.499-.817-.117-.317-.176-.665-.176-1.045,0-.367.06-.709.181-1.026.12-.316.291-.59.513-.822.221-.231.486-.413.793-.546.307-.133.647-.199,1.021-.199.418,0,.782.081,1.092.242.31.162.565.378.765.651.2.272.344.583.433.931.088.349.12.713.095,1.093h-3.543c.019.437.13.754.333.95ZM47.858,105.076c-.162-.177-.407-.266-.736-.266-.215,0-.395.036-.537.109-.143.073-.257.163-.342.271s-.146.222-.181.342c-.035.121-.055.228-.062.323h2.194c-.063-.342-.176-.602-.337-.779Z" fill="#fff" stroke-width="0"/><path d="M51.625,103.927v.912h.019c.063-.152.149-.293.256-.423.108-.129.231-.241.371-.333s.288-.163.447-.213c.158-.051.323-.076.494-.076.089,0,.187.016.294.047v1.254c-.063-.013-.139-.023-.228-.033-.089-.009-.174-.014-.257-.014-.247,0-.456.042-.627.124-.171.083-.309.195-.413.337s-.179.309-.223.499c-.044.19-.067.396-.067.618v2.213h-1.349v-4.912h1.282Z" fill="#fff" stroke-width="0"/><path d="M57.814,107.618c.06.104.138.19.232.256.095.066.205.116.328.147.123.032.251.047.384.047.095,0,.195-.011.299-.033.104-.022.2-.057.285-.104s.157-.111.214-.19.085-.179.085-.299c0-.203-.135-.354-.404-.456-.269-.101-.645-.203-1.126-.304-.196-.044-.388-.096-.575-.157-.187-.06-.353-.139-.499-.237-.146-.098-.263-.222-.352-.371-.089-.148-.133-.331-.133-.546,0-.317.062-.577.185-.779s.287-.362.489-.479.431-.2.684-.247.513-.071.779-.071.524.025.774.076c.25.05.473.136.67.256.196.12.359.28.489.479.129.2.207.452.232.755h-1.282c-.019-.26-.117-.436-.294-.527-.178-.092-.387-.138-.627-.138-.076,0-.158.005-.247.014-.089.01-.17.03-.243.062s-.134.078-.185.138-.076.141-.076.242c0,.121.044.219.133.294.088.076.204.138.347.186.143.047.306.09.489.128s.371.08.561.124c.196.044.388.098.575.162.187.063.353.147.499.252.146.104.263.234.352.389.089.155.133.347.133.575,0,.323-.065.594-.195.812-.13.218-.299.394-.508.527-.209.133-.448.227-.717.28s-.543.081-.822.081c-.285,0-.564-.028-.836-.085-.272-.057-.515-.152-.727-.285-.212-.133-.387-.309-.523-.527-.136-.218-.21-.492-.223-.822h1.283c0,.146.03.271.09.375Z" fill="#fff" stroke-width="0"/><path d="M61.809,105.319c.12-.32.291-.592.513-.817.221-.225.487-.399.798-.522.31-.124.659-.185,1.045-.185s.736.062,1.05.185.581.298.803.522c.222.225.393.498.513.817.12.32.18.676.18,1.068s-.06.748-.18,1.064c-.121.317-.292.588-.513.812s-.489.397-.803.518c-.313.121-.664.181-1.05.181s-.735-.06-1.045-.181c-.311-.12-.577-.293-.798-.518-.222-.225-.393-.496-.513-.812-.121-.316-.181-.671-.181-1.064s.06-.749.181-1.068ZM63.034,106.962c.038.187.103.355.195.504.092.149.213.268.366.356.152.089.342.133.57.133s.419-.044.575-.133c.155-.088.279-.207.371-.356s.157-.317.195-.504c.038-.187.057-.378.057-.575s-.019-.389-.057-.579c-.038-.19-.103-.358-.195-.504-.092-.146-.215-.264-.371-.356s-.347-.138-.575-.138-.418.046-.57.138c-.152.092-.274.21-.366.356-.092.146-.157.313-.195.504-.038.19-.057.383-.057.579s.019.388.057.575Z" fill="#fff" stroke-width="0"/><path d="M70.909,108.838v-.684h-.028c-.171.285-.393.491-.665.618-.272.126-.551.19-.836.19-.361,0-.657-.047-.888-.143-.231-.095-.414-.229-.546-.404-.133-.174-.227-.386-.28-.636-.054-.25-.081-.527-.081-.832v-3.021h1.349v2.774c0,.406.063.708.19.907.127.2.352.299.675.299.367,0,.633-.109.798-.328.165-.218.247-.578.247-1.078v-2.575h1.349v4.912h-1.283Z" fill="#fff" stroke-width="0"/><path d="M74.5,103.927v.912h.019c.063-.152.149-.293.256-.423.108-.129.231-.241.371-.333s.288-.163.447-.213c.158-.051.323-.076.494-.076.089,0,.187.016.294.047v1.254c-.063-.013-.139-.023-.228-.033-.089-.009-.174-.014-.257-.014-.247,0-.456.042-.627.124-.171.083-.309.195-.413.337s-.179.309-.223.499c-.044.19-.067.396-.067.618v2.213h-1.349v-4.912h1.282Z" fill="#fff" stroke-width="0"/><path d="M79.089,104.811c-.215,0-.396.049-.542.147s-.264.225-.356.38c-.092.155-.157.327-.195.513-.038.187-.057.372-.057.556,0,.178.019.358.057.542.038.184.1.35.185.499s.201.271.347.366c.146.095.323.143.532.143.323,0,.571-.09.746-.271s.284-.423.328-.727h1.302c-.089.652-.342,1.149-.76,1.491-.418.342-.953.513-1.605.513-.367,0-.705-.062-1.012-.185-.307-.124-.568-.296-.784-.518s-.383-.486-.503-.793c-.121-.307-.181-.645-.181-1.012,0-.38.056-.733.167-1.06s.274-.608.489-.845c.215-.238.478-.423.789-.556.31-.133.665-.199,1.064-.199.291,0,.571.038.841.114.269.076.51.192.722.347.212.155.385.349.518.58.133.231.209.505.228.822h-1.321c-.089-.563-.421-.845-.998-.845Z" fill="#fff" stroke-width="0"/><path d="M83.639,107.66c.203.197.494.295.874.295.272,0,.506-.068.703-.205.196-.136.316-.28.361-.432h1.188c-.19.589-.481,1.01-.874,1.264s-.868.38-1.425.38c-.387,0-.735-.062-1.045-.185-.31-.124-.573-.299-.788-.527-.216-.228-.382-.5-.499-.817-.117-.317-.176-.665-.176-1.045,0-.367.06-.709.181-1.026.12-.316.291-.59.513-.822.221-.231.486-.413.793-.546.307-.133.647-.199,1.021-.199.418,0,.782.081,1.092.242.31.162.565.378.765.651.2.272.344.583.433.931.088.349.12.713.095,1.093h-3.543c.019.437.13.754.333.95ZM85.164,105.076c-.162-.177-.407-.266-.736-.266-.215,0-.395.036-.537.109-.143.073-.257.163-.342.271s-.146.222-.181.342c-.035.121-.055.228-.062.323h2.194c-.063-.342-.176-.602-.337-.779Z" fill="#fff" stroke-width="0"/><path d="M90.317,105.319c.12-.32.291-.592.513-.817.221-.225.487-.399.798-.522.31-.124.659-.185,1.045-.185s.736.062,1.05.185.581.298.803.522c.222.225.393.498.513.817.12.32.18.676.18,1.068s-.06.748-.18,1.064c-.121.317-.292.588-.513.812s-.489.397-.803.518c-.313.121-.664.181-1.05.181s-.735-.06-1.045-.181c-.311-.12-.577-.293-.798-.518-.222-.225-.393-.496-.513-.812-.121-.316-.181-.671-.181-1.064s.06-.749.181-1.068ZM91.543,106.962c.038.187.103.355.195.504.092.149.213.268.366.356.152.089.342.133.57.133s.419-.044.575-.133c.155-.088.279-.207.371-.356s.157-.317.195-.504c.038-.187.057-.378.057-.575s-.019-.389-.057-.579c-.038-.19-.103-.358-.195-.504-.092-.146-.215-.264-.371-.356s-.347-.138-.575-.138-.418.046-.57.138c-.152.092-.274.21-.366.356-.092.146-.157.313-.195.504-.038.19-.057.383-.057.579s.019.388.057.575Z" fill="#fff" stroke-width="0"/><path d="M97.376,103.927v.684h.029c.171-.285.393-.492.665-.622.272-.13.551-.195.836-.195.361,0,.657.049.888.147.231.099.413.234.546.409.133.174.227.386.28.637.054.25.081.527.081.831v3.021h-1.349v-2.774c0-.405-.063-.708-.19-.907-.127-.2-.352-.299-.674-.299-.368,0-.634.109-.798.328-.165.219-.247.578-.247,1.078v2.575h-1.349v-4.912h1.282Z" fill="#fff" stroke-width="0"/><path d="M106.714,104.811c-.215,0-.396.049-.542.147s-.264.225-.356.38c-.092.155-.157.327-.195.513-.038.187-.057.372-.057.556,0,.178.019.358.057.542.038.184.1.35.185.499s.201.271.347.366c.146.095.323.143.532.143.323,0,.571-.09.746-.271s.284-.423.328-.727h1.302c-.089.652-.342,1.149-.76,1.491-.418.342-.953.513-1.605.513-.367,0-.705-.062-1.012-.185-.307-.124-.568-.296-.784-.518s-.383-.486-.503-.793c-.121-.307-.181-.645-.181-1.012,0-.38.056-.733.167-1.06s.274-.608.489-.845c.215-.238.478-.423.789-.556.31-.133.665-.199,1.064-.199.291,0,.571.038.841.114.269.076.51.192.722.347.212.155.385.349.518.58.133.231.209.505.228.822h-1.321c-.089-.563-.421-.845-.998-.845Z" fill="#fff" stroke-width="0"/><path d="M109.858,103.167v-1.112h1.349v1.112h-1.349ZM111.208,103.927v4.912h-1.349v-4.912h1.349Z" fill="#fff" stroke-width="0"/><path d="M113.554,103.927v.912h.019c.063-.152.149-.293.256-.423.108-.129.231-.241.371-.333s.288-.163.447-.213c.158-.051.323-.076.494-.076.089,0,.187.016.294.047v1.254c-.063-.013-.139-.023-.228-.033-.089-.009-.174-.014-.257-.014-.247,0-.456.042-.627.124-.171.083-.309.195-.413.337s-.179.309-.223.499c-.044.19-.067.396-.067.618v2.213h-1.349v-4.912h1.282Z" fill="#fff" stroke-width="0"/><path d="M118.143,104.811c-.215,0-.396.049-.542.147s-.264.225-.356.38c-.092.155-.157.327-.195.513-.038.187-.057.372-.057.556,0,.178.019.358.057.542.038.184.1.35.185.499s.201.271.347.366c.146.095.323.143.532.143.323,0,.571-.09.746-.271s.284-.423.328-.727h1.302c-.089.652-.342,1.149-.76,1.491-.418.342-.953.513-1.605.513-.367,0-.705-.062-1.012-.185-.307-.124-.568-.296-.784-.518s-.383-.486-.503-.793c-.121-.307-.181-.645-.181-1.012,0-.38.056-.733.167-1.06s.274-.608.489-.845c.215-.238.478-.423.789-.556.31-.133.665-.199,1.064-.199.291,0,.571.038.841.114.269.076.51.192.722.347.212.155.385.349.518.58.133.231.209.505.228.822h-1.321c-.089-.563-.421-.845-.998-.845Z" fill="#fff" stroke-width="0"/><path d="M124.574,108.838v-.684h-.028c-.171.285-.393.491-.665.618-.272.126-.551.19-.836.19-.361,0-.657-.047-.888-.143-.231-.095-.414-.229-.546-.404-.133-.174-.227-.386-.28-.636-.054-.25-.081-.527-.081-.832v-3.021h1.349v2.774c0,.406.063.708.19.907.127.2.352.299.675.299.367,0,.633-.109.798-.328.165-.218.247-.578.247-1.078v-2.575h1.349v4.912h-1.283Z" fill="#fff" stroke-width="0"/><path d="M126.92,103.167v-1.112h1.349v1.112h-1.349ZM128.27,103.927v4.912h-1.349v-4.912h1.349Z" fill="#fff" stroke-width="0"/><path d="M132.031,103.927v.903h-.988v2.432c0,.228.038.38.114.456.076.076.228.114.456.114.076,0,.149-.003.219-.01.069-.006.136-.016.199-.028v1.045c-.114.019-.241.032-.38.038-.14.006-.275.009-.409.009-.209,0-.407-.014-.594-.042-.187-.029-.352-.084-.494-.167-.143-.082-.255-.199-.337-.352-.083-.152-.124-.351-.124-.598v-2.897h-.817v-.903h.817v-1.472h1.349v1.472h.988Z" fill="#fff" stroke-width="0"/><path d="M138.653,102.055c.323,0,.617.029.883.086.266.057.494.15.684.28.19.13.337.303.442.518s.157.481.157.798c0,.342-.078.627-.233.855s-.385.415-.689.561c.418.121.73.331.936.632.206.301.309.664.309,1.088,0,.342-.066.638-.199.888-.133.25-.312.455-.537.613-.225.158-.481.275-.77.352-.288.076-.584.114-.888.114h-3.287v-6.783h3.192ZM138.463,104.801c.266,0,.484-.063.655-.19.171-.126.256-.333.256-.618,0-.158-.028-.288-.085-.389-.057-.102-.133-.181-.228-.238-.095-.057-.204-.096-.328-.119-.124-.022-.252-.033-.385-.033h-1.396v1.586h1.511ZM138.548,107.679c.146,0,.285-.014.418-.042.133-.029.25-.076.352-.143.101-.066.182-.157.242-.271.06-.114.09-.259.09-.437,0-.349-.099-.597-.295-.746-.196-.148-.456-.223-.779-.223h-1.625v1.862h1.596Z" fill="#fff" stroke-width="0"/><rect x="74.122" y="31.144" width="218.029" height="26.678" fill="#d9d9d9" stroke-width="0"/><rect x="17.217" y="31.144" width="53.789" height="26.678" fill="#1e4a93" stroke-width="0"/><rect x="74.122" y="60.398" width="218.029" height="26.678" fill="#d9d9d9" stroke-width="0"/><rect x="17.217" y="60.398" width="53.789" height="26.678" fill="#26a9e0" stroke-width="0"/><path d="M231.896,71.028c-.093-.15-.21-.282-.35-.395s-.298-.202-.475-.265-.361-.095-.555-.095c-.354,0-.654.069-.9.205-.247.137-.447.32-.6.55-.154.23-.265.492-.335.785-.07.293-.105.597-.105.91,0,.3.035.592.105.875.07.284.181.539.335.765.153.227.353.408.6.545.246.137.546.205.9.205.48,0,.855-.146,1.125-.44s.435-.68.495-1.16h1.52c-.04.447-.143.85-.31,1.21-.167.36-.387.667-.66.92-.273.253-.593.447-.96.58s-.77.2-1.21.2c-.547,0-1.039-.095-1.475-.285s-.805-.452-1.105-.785c-.3-.333-.53-.725-.69-1.175-.16-.45-.24-.935-.24-1.455,0-.533.08-1.028.24-1.485.16-.457.39-.855.69-1.195.3-.34.668-.606,1.105-.8s.928-.29,1.475-.29c.393,0,.765.057,1.115.17.35.114.664.279.94.495.277.217.505.485.685.805.18.32.293.687.34,1.1h-1.52c-.027-.18-.087-.345-.18-.495Z" fill="#231f20" stroke-width="0"/><path d="M234.606,72.558c.127-.336.307-.623.54-.86s.513-.42.84-.55c.326-.13.693-.195,1.1-.195s.775.065,1.105.195c.33.13.612.313.845.55s.413.523.54.86c.126.337.19.712.19,1.125s-.063.787-.19,1.12c-.127.333-.307.618-.54.855s-.515.418-.845.545c-.33.126-.698.19-1.105.19s-.773-.063-1.1-.19c-.327-.126-.607-.308-.84-.545s-.413-.521-.54-.855c-.126-.333-.19-.707-.19-1.12s.063-.788.19-1.125ZM235.896,74.288c.04.197.108.374.205.53s.225.282.385.375c.16.093.36.14.6.14s.442-.046.605-.14c.164-.093.293-.218.39-.375s.165-.333.205-.53c.04-.196.06-.398.06-.605s-.02-.41-.06-.61c-.04-.2-.108-.376-.205-.53-.097-.153-.227-.278-.39-.375-.163-.096-.365-.145-.605-.145s-.44.049-.6.145c-.16.097-.289.222-.385.375-.097.154-.165.33-.205.53-.04.2-.06.403-.06.61s.02.409.06.605Z" fill="#231f20" stroke-width="0"/><path d="M242.036,71.093v.72h.03c.18-.3.414-.518.7-.655s.58-.205.88-.205c.38,0,.691.052.935.155.243.103.435.247.575.43.14.184.238.407.295.67.056.264.085.555.085.875v3.18h-1.42v-2.92c0-.427-.067-.745-.2-.955s-.37-.315-.71-.315c-.387,0-.667.115-.84.345-.174.23-.26.609-.26,1.135v2.71h-1.42v-5.17h1.35Z" fill="#231f20" stroke-width="0"/><path d="M249.456,71.093v.95h-1.04v2.56c0,.24.04.4.12.48.08.08.24.12.48.12.08,0,.157-.003.23-.01.073-.007.144-.017.21-.03v1.1c-.12.02-.253.033-.4.04-.146.006-.29.01-.43.01-.22,0-.428-.015-.625-.045-.196-.03-.37-.088-.52-.175-.15-.086-.268-.21-.355-.37-.086-.16-.13-.37-.13-.63v-3.05h-.86v-.95h.86v-1.55h1.42v1.55h1.04Z" fill="#231f20" stroke-width="0"/><path d="M251.485,71.093v.96h.021c.066-.16.156-.308.27-.445s.242-.253.391-.35c.146-.097.303-.172.469-.225.168-.053.34-.08.52-.08.094,0,.197.017.311.05v1.32c-.066-.013-.146-.025-.24-.035-.094-.01-.184-.015-.27-.015-.26,0-.48.043-.66.13-.18.086-.324.205-.436.355-.109.15-.188.325-.234.525s-.07.417-.07.65v2.33h-1.42v-5.17h1.35Z" fill="#231f20" stroke-width="0"/><path d="M253.876,72.558c.126-.336.307-.623.54-.86s.513-.42.84-.55c.326-.13.693-.195,1.1-.195s.775.065,1.105.195c.33.13.611.313.845.55s.413.523.54.86c.127.337.19.712.19,1.125s-.063.787-.19,1.12-.307.618-.54.855-.515.418-.845.545-.698.19-1.105.19-.773-.063-1.1-.19c-.327-.126-.606-.308-.84-.545s-.414-.521-.54-.855c-.127-.333-.19-.707-.19-1.12s.063-.788.19-1.125ZM255.166,74.288c.04.197.108.374.205.53.096.157.225.282.385.375s.359.14.6.14.441-.046.605-.14c.163-.093.293-.218.39-.375s.165-.333.205-.53c.04-.196.06-.398.06-.605s-.02-.41-.06-.61c-.04-.2-.108-.376-.205-.53-.097-.153-.227-.278-.39-.375-.164-.096-.365-.145-.605-.145s-.439.049-.6.145c-.16.097-.289.222-.385.375-.097.154-.165.33-.205.53-.04.2-.061.403-.061.61s.021.409.061.605Z" fill="#231f20" stroke-width="0"/><path d="M261.416,69.123v7.14h-1.42v-7.14h1.42Z" fill="#231f20" stroke-width="0"/><path d="M263.996,69.123v7.14h-1.42v-7.14h1.42Z" fill="#231f20" stroke-width="0"/><path d="M266.636,75.022c.214.207.521.31.921.31.286,0,.533-.071.739-.215.207-.143.334-.295.38-.455h1.25c-.199.62-.506,1.063-.92,1.33-.413.267-.913.4-1.5.4-.406,0-.773-.065-1.1-.195-.327-.13-.604-.315-.83-.555-.227-.24-.401-.526-.525-.86-.123-.333-.185-.7-.185-1.1,0-.387.063-.747.19-1.08.126-.333.306-.622.539-.865s.512-.435.836-.575c.323-.14.681-.21,1.074-.21.44,0,.823.085,1.15.255.326.17.595.398.805.685s.361.614.455.98c.094.367.127.75.101,1.15h-3.73c.021.46.137.793.35,1ZM268.241,72.303c-.17-.187-.429-.28-.775-.28-.227,0-.415.039-.564.115-.15.077-.271.172-.36.285s-.153.233-.189.36c-.037.126-.059.24-.065.34h2.31c-.066-.36-.185-.633-.354-.82Z" fill="#231f20" stroke-width="0"/><path d="M272.205,71.093v.96h.021c.066-.16.156-.308.27-.445s.243-.253.391-.35c.146-.097.303-.172.47-.225s.34-.08.52-.08c.094,0,.197.017.311.05v1.32c-.066-.013-.146-.025-.24-.035-.094-.01-.184-.015-.27-.015-.261,0-.48.043-.66.13-.181.086-.325.205-.436.355-.109.15-.188.325-.234.525-.047.2-.07.417-.07.65v2.33h-1.42v-5.17h1.35Z" fill="#231f20" stroke-width="0"/><path d="M281.035,69.123c.34,0,.65.03.931.09.279.06.52.158.72.295s.354.318.465.545.165.507.165.84c0,.36-.082.66-.245.9-.163.24-.405.437-.725.59.439.126.768.348.984.665.217.316.325.698.325,1.145,0,.36-.07.671-.21.935-.14.263-.328.478-.565.645-.236.167-.506.29-.81.37s-.615.12-.935.12h-3.46v-7.14h3.359ZM280.835,72.013c.28,0,.511-.066.69-.2.18-.133.27-.35.27-.65,0-.167-.029-.303-.09-.41-.06-.107-.14-.19-.239-.25-.101-.06-.216-.102-.346-.125s-.265-.035-.404-.035h-1.471v1.67h1.59ZM280.926,75.042c.153,0,.3-.015.439-.045.14-.03.264-.08.37-.15s.191-.165.255-.285c.063-.12.095-.273.095-.46,0-.366-.104-.628-.31-.785-.207-.157-.48-.235-.82-.235h-1.71v1.96h1.681Z" fill="#231f20" stroke-width="0"/><path d="M232.015,44.116c-.093-.15-.21-.282-.35-.395s-.298-.202-.475-.265-.361-.095-.555-.095c-.354,0-.654.069-.9.205-.247.137-.447.32-.6.55-.154.23-.265.492-.335.785-.07.293-.105.597-.105.91,0,.3.035.592.105.875.07.284.181.539.335.765.153.227.353.408.6.545.246.137.546.205.9.205.48,0,.855-.146,1.125-.44s.435-.68.495-1.16h1.52c-.04.447-.143.85-.31,1.21-.167.36-.387.667-.66.92-.273.253-.593.447-.96.58s-.77.2-1.21.2c-.547,0-1.039-.095-1.475-.285s-.805-.452-1.105-.785c-.3-.333-.53-.725-.69-1.175-.16-.45-.24-.935-.24-1.455,0-.533.08-1.028.24-1.485.16-.457.39-.855.69-1.195.3-.34.668-.606,1.105-.8s.928-.29,1.475-.29c.393,0,.765.057,1.115.17.35.114.664.279.94.495.277.217.505.485.685.805.18.32.293.687.34,1.1h-1.52c-.027-.18-.087-.345-.18-.495Z" fill="#231f20" stroke-width="0"/><path d="M234.725,45.646c.127-.336.307-.623.54-.86s.513-.42.84-.55c.326-.13.693-.195,1.1-.195s.775.065,1.105.195c.33.13.612.313.845.55s.413.523.54.86c.126.337.19.712.19,1.125s-.063.787-.19,1.12c-.127.333-.307.618-.54.855s-.515.418-.845.545c-.33.126-.698.19-1.105.19s-.773-.063-1.1-.19c-.327-.126-.607-.308-.84-.545s-.413-.521-.54-.855c-.126-.333-.19-.707-.19-1.12s.063-.788.19-1.125ZM236.015,47.375c.04.197.108.374.205.53s.225.282.385.375c.16.093.36.14.6.14s.442-.046.605-.14c.164-.093.293-.218.39-.375s.165-.333.205-.53c.04-.196.06-.398.06-.605s-.02-.41-.06-.61c-.04-.2-.108-.376-.205-.53-.097-.153-.227-.278-.39-.375-.163-.096-.365-.145-.605-.145s-.44.049-.6.145c-.16.097-.289.222-.385.375-.097.154-.165.33-.205.53-.04.2-.06.403-.06.61s.02.409.06.605Z" fill="#231f20" stroke-width="0"/><path d="M242.155,44.181v.72h.03c.18-.3.414-.518.7-.655s.58-.205.88-.205c.38,0,.691.052.935.155.243.103.435.247.575.43.14.184.238.407.295.67.056.264.085.555.085.875v3.18h-1.42v-2.92c0-.427-.067-.745-.2-.955s-.37-.315-.71-.315c-.387,0-.667.115-.84.345-.174.23-.26.609-.26,1.135v2.71h-1.42v-5.17h1.35Z" fill="#231f20" stroke-width="0"/><path d="M249.574,44.181v.95h-1.04v2.56c0,.24.04.4.12.48.08.08.24.12.48.12.08,0,.157-.003.23-.01.073-.007.144-.017.21-.03v1.1c-.12.02-.253.033-.4.04-.146.006-.29.01-.43.01-.22,0-.428-.015-.625-.045-.196-.03-.37-.088-.52-.175-.15-.086-.268-.21-.355-.37-.086-.16-.13-.37-.13-.63v-3.05h-.86v-.95h.86v-1.55h1.42v1.55h1.04Z" fill="#231f20" stroke-width="0"/><path d="M251.604,44.181v.96h.021c.066-.16.156-.308.27-.445s.243-.253.391-.35c.146-.097.303-.172.47-.225s.34-.08.52-.08c.094,0,.197.017.311.05v1.32c-.066-.013-.146-.025-.24-.035-.094-.01-.184-.015-.27-.015-.261,0-.481.043-.661.13-.181.086-.325.205-.436.355-.109.15-.188.325-.234.525-.047.2-.07.417-.07.65v2.33h-1.42v-5.17h1.35Z" fill="#231f20" stroke-width="0"/><path d="M253.995,45.646c.126-.336.307-.623.54-.86s.513-.42.84-.55c.326-.13.693-.195,1.1-.195s.775.065,1.105.195c.33.13.611.313.845.55s.413.523.54.86c.127.337.19.712.19,1.125s-.063.787-.19,1.12-.307.618-.54.855-.515.418-.845.545-.698.19-1.105.19-.773-.063-1.1-.19c-.327-.126-.606-.308-.84-.545s-.414-.521-.54-.855c-.127-.333-.19-.707-.19-1.12s.063-.788.19-1.125ZM255.285,47.375c.04.197.108.374.205.53.096.157.225.282.385.375s.359.14.6.14.441-.046.605-.14c.163-.093.293-.218.39-.375s.165-.333.205-.53c.04-.196.06-.398.06-.605s-.02-.41-.06-.61c-.04-.2-.108-.376-.205-.53-.097-.153-.227-.278-.39-.375-.164-.096-.365-.145-.605-.145s-.439.049-.6.145c-.16.097-.289.222-.385.375-.097.154-.165.33-.205.53-.04.2-.061.403-.061.61s.021.409.061.605Z" fill="#231f20" stroke-width="0"/><path d="M261.535,42.21v7.14h-1.42v-7.14h1.42Z" fill="#231f20" stroke-width="0"/><path d="M264.114,42.21v7.14h-1.42v-7.14h1.42Z" fill="#231f20" stroke-width="0"/><path d="M266.754,48.11c.214.207.521.31.921.31.286,0,.533-.071.739-.215.207-.143.334-.295.38-.455h1.25c-.199.62-.506,1.063-.92,1.33-.413.267-.913.4-1.5.4-.406,0-.773-.065-1.1-.195-.327-.13-.604-.315-.83-.555-.227-.24-.401-.526-.525-.86-.123-.333-.185-.7-.185-1.1,0-.387.063-.747.19-1.08.126-.333.306-.622.539-.865s.512-.435.836-.575c.323-.14.681-.21,1.074-.21.44,0,.823.085,1.15.255.326.17.595.398.805.685s.361.614.455.98c.094.367.127.75.101,1.15h-3.73c.021.46.137.793.35,1ZM268.359,45.391c-.17-.187-.429-.28-.775-.28-.227,0-.415.039-.564.115-.15.077-.271.172-.36.285s-.153.233-.189.36c-.037.126-.059.24-.065.34h2.31c-.066-.36-.185-.633-.354-.82Z" fill="#231f20" stroke-width="0"/><path d="M272.324,44.181v.96h.021c.066-.16.156-.308.27-.445s.243-.253.391-.35c.146-.097.303-.172.47-.225s.34-.08.52-.08c.094,0,.197.017.311.05v1.32c-.066-.013-.146-.025-.24-.035-.094-.01-.184-.015-.27-.015-.261,0-.48.043-.66.13-.181.086-.325.205-.436.355-.109.15-.188.325-.234.525-.047.2-.07.417-.07.65v2.33h-1.42v-5.17h1.35Z" fill="#231f20" stroke-width="0"/><path d="M281.354,42.21l2.67,7.14h-1.63l-.54-1.59h-2.67l-.561,1.59h-1.579l2.699-7.14h1.61ZM281.444,46.591l-.899-2.62h-.021l-.93,2.62h1.85Z" fill="#231f20" stroke-width="0"/><path d="M33.435,41.029c.446,0,.826.065,1.14.195.313.13.568.302.765.515.197.213.34.457.43.73.09.273.135.557.135.85,0,.287-.045.568-.135.845-.09.276-.233.521-.43.735s-.452.385-.765.515-.693.195-1.14.195h-1.65v2.56h-1.57v-7.14h3.22ZM33.005,44.39c.18,0,.354-.014.52-.04.167-.027.313-.079.44-.155s.229-.185.305-.325c.077-.14.115-.323.115-.55s-.038-.41-.115-.55-.179-.249-.305-.325-.273-.128-.44-.155c-.167-.027-.34-.04-.52-.04h-1.22v2.14h1.22Z" fill="#fff" stroke-width="0"/><path d="M38.085,46.41c.086.167.202.301.345.405.144.104.312.18.505.23.193.05.393.075.6.075.14,0,.29-.012.45-.035s.31-.068.45-.135c.14-.066.256-.158.35-.275.093-.116.14-.265.14-.445,0-.193-.062-.35-.185-.47-.124-.12-.285-.22-.485-.3-.2-.08-.427-.15-.68-.21s-.51-.126-.77-.2c-.267-.066-.526-.148-.78-.245-.253-.096-.48-.221-.68-.375-.2-.153-.362-.345-.485-.575-.124-.23-.185-.508-.185-.835,0-.367.078-.685.235-.955s.362-.495.615-.675c.253-.18.54-.313.86-.4.32-.086.64-.13.96-.13.374,0,.731.042,1.075.125.343.083.648.218.915.405.267.187.478.425.635.715s.235.642.235,1.055h-1.52c-.014-.213-.059-.39-.135-.53s-.178-.25-.305-.33c-.126-.08-.271-.136-.435-.17-.164-.033-.342-.05-.535-.05-.127,0-.253.013-.38.04-.127.026-.242.073-.345.14-.104.067-.188.15-.255.25-.067.1-.1.227-.1.38,0,.14.026.253.08.34.053.086.158.167.315.24.157.074.373.147.65.22s.638.167,1.085.28c.133.027.318.075.555.145.236.07.472.182.705.335.233.154.435.359.605.615.17.257.255.585.255.985,0,.327-.063.63-.19.91-.127.28-.315.521-.565.725-.25.203-.56.362-.93.475s-.798.17-1.285.17c-.393,0-.775-.049-1.145-.145-.37-.097-.696-.249-.98-.455-.283-.207-.508-.47-.675-.79s-.247-.7-.24-1.14h1.52c0,.24.043.443.13.61Z" fill="#fff" stroke-width="0"/><path d="M48.625,47.625c-.54.47-1.287.705-2.24.705-.967,0-1.715-.233-2.245-.7-.53-.466-.795-1.187-.795-2.16v-4.44h1.57v4.44c0,.194.017.384.05.57.034.187.104.352.21.495.106.143.255.26.445.35.19.09.445.135.765.135.56,0,.946-.125,1.16-.375s.32-.642.32-1.175v-4.44h1.57v4.44c0,.967-.27,1.685-.81,2.155Z" fill="#fff" stroke-width="0"/><path d="M54.375,48.169v-4.54h-1.76v-1.07c.246.006.485-.012.715-.055s.437-.12.62-.23c.183-.11.338-.255.465-.435.126-.18.21-.403.25-.67h1.13v7h-1.42Z" fill="#fff" stroke-width="0"/><path d="M33.435,69.538c.446,0,.826.065,1.14.195.313.13.568.302.765.515.197.213.34.457.43.73.09.273.135.557.135.85,0,.287-.045.568-.135.845-.09.276-.233.521-.43.735s-.452.385-.765.515-.693.195-1.14.195h-1.65v2.56h-1.57v-7.14h3.22ZM33.005,72.898c.18,0,.354-.014.52-.04.167-.027.313-.079.44-.155s.229-.185.305-.325c.077-.14.115-.323.115-.55s-.038-.41-.115-.55-.179-.249-.305-.325-.273-.128-.44-.155c-.167-.027-.34-.04-.52-.04h-1.22v2.14h1.22Z" fill="#fff" stroke-width="0"/><path d="M38.085,74.918c.086.167.202.301.345.405.144.104.312.18.505.23.193.05.393.075.6.075.14,0,.29-.012.45-.035s.31-.068.45-.135c.14-.066.256-.158.35-.275.093-.116.14-.265.14-.445,0-.193-.062-.35-.185-.47-.124-.12-.285-.22-.485-.3-.2-.08-.427-.15-.68-.21s-.51-.126-.77-.2c-.267-.066-.526-.148-.78-.245-.253-.096-.48-.221-.68-.375-.2-.153-.362-.345-.485-.575-.124-.23-.185-.508-.185-.835,0-.367.078-.685.235-.955s.362-.495.615-.675c.253-.18.54-.313.86-.4.32-.086.64-.13.96-.13.374,0,.731.042,1.075.125.343.083.648.218.915.405.267.187.478.425.635.715s.235.642.235,1.055h-1.52c-.014-.213-.059-.39-.135-.53s-.178-.25-.305-.33c-.126-.08-.271-.136-.435-.17-.164-.033-.342-.05-.535-.05-.127,0-.253.013-.38.04-.127.026-.242.073-.345.14-.104.067-.188.15-.255.25-.067.1-.1.227-.1.38,0,.14.026.253.08.34.053.086.158.167.315.24.157.074.373.147.65.22s.638.167,1.085.28c.133.027.318.075.555.145.236.07.472.182.705.335.233.154.435.359.605.615.17.257.255.585.255.985,0,.327-.063.63-.19.91-.127.28-.315.521-.565.725-.25.203-.56.362-.93.475s-.798.17-1.285.17c-.393,0-.775-.049-1.145-.145-.37-.097-.696-.249-.98-.455-.283-.207-.508-.47-.675-.79s-.247-.7-.24-1.14h1.52c0,.24.043.443.13.61Z" fill="#fff" stroke-width="0"/><path d="M48.625,76.133c-.54.47-1.287.705-2.24.705-.967,0-1.715-.233-2.245-.7-.53-.466-.795-1.187-.795-2.16v-4.44h1.57v4.44c0,.194.017.384.05.57.034.187.104.352.21.495.106.143.255.26.445.35.19.09.445.135.765.135.56,0,.946-.125,1.16-.375s.32-.642.32-1.175v-4.44h1.57v4.44c0,.967-.27,1.685-.81,2.155Z" fill="#fff" stroke-width="0"/><path d="M52.384,71.253c.107-.343.267-.644.48-.9.213-.256.481-.457.805-.6.323-.144.695-.215,1.115-.215.32,0,.625.05.915.15.29.1.545.244.765.43.22.187.395.417.525.69.13.273.195.58.195.92,0,.354-.057.657-.17.91-.114.253-.264.479-.45.675-.187.197-.398.375-.635.535-.237.16-.475.318-.715.475-.24.157-.473.325-.7.505-.227.18-.427.39-.6.63h3.31v1.22h-5.14c0-.407.058-.76.175-1.06.117-.3.275-.568.475-.805.2-.236.435-.455.705-.655s.555-.403.855-.61c.153-.106.316-.215.49-.325.173-.11.332-.231.475-.365.144-.133.264-.284.36-.45s.145-.356.145-.57c0-.34-.099-.605-.295-.795-.197-.19-.449-.285-.755-.285-.207,0-.381.048-.525.145s-.258.223-.345.38c-.087.157-.148.33-.185.52-.037.19-.055.378-.055.565h-1.36c-.014-.4.033-.771.14-1.115Z" fill="#fff" stroke-width="0"/></svg>