<?xml version="1.0" encoding="UTF-8"?><svg id="a" xmlns="http://www.w3.org/2000/svg" width="452" height="321" viewBox="0 0 452 321"><line x1="182.72" y1="37.343" x2="317.501" y2="37.343" fill="none" stroke="#1670b9" stroke-miterlimit="10" stroke-width="2.989"/><polyline points="180.977 206.129 276.773 206.129 276.773 102.724 317.501 102.724" fill="none" stroke="#fff" stroke-miterlimit="10" stroke-width="4.484"/><polyline points="180.977 206.091 276.773 206.091 276.773 102.724 317.501 102.724" fill="none" stroke="#f5a800" stroke-miterlimit="10" stroke-width="2.989"/><polyline points="180.977 59.09 262.643 59.09 262.643 130.775 317.501 130.775" fill="none" stroke="#fff" stroke-miterlimit="10" stroke-width="7"/><line x1="180.977" y1="59.09" x2="182.418" y2="59.09" fill="none" stroke="#1670b9" stroke-miterlimit="10" stroke-width="3"/><line x1="185.336" y1="59.09" x2="259.743" y2="59.09" fill="none" stroke="#1670b9" stroke-dasharray="0 0 2.918 2.918" stroke-miterlimit="10" stroke-width="3"/><polyline points="261.202 59.09 262.643 59.09 262.643 60.531" fill="none" stroke="#1670b9" stroke-miterlimit="10" stroke-width="3"/><line x1="262.643" y1="63.523" x2="262.643" y2="127.838" fill="none" stroke="#1670b9" stroke-dasharray="0 0 2.991 2.991" stroke-miterlimit="10" stroke-width="3"/><polyline points="262.643 129.334 262.643 130.775 264.085 130.775" fill="none" stroke="#1670b9" stroke-miterlimit="10" stroke-width="3"/><line x1="266.82" y1="130.775" x2="314.692" y2="130.775" fill="none" stroke="#1670b9" stroke-dasharray="0 0 2.736 2.736" stroke-miterlimit="10" stroke-width="3"/><line x1="316.06" y1="130.775" x2="317.501" y2="130.775" fill="none" stroke="#1670b9" stroke-miterlimit="10" stroke-width="3"/><polyline points="181.471 229.415 297.413 229.415 297.413 66.763 317.501 66.763" fill="none" stroke="#fff" stroke-miterlimit="10" stroke-width="7"/><line x1="181.471" y1="229.415" x2="182.912" y2="229.415" fill="none" stroke="#f5a800" stroke-miterlimit="10" stroke-width="3"/><line x1="185.811" y1="229.415" x2="294.522" y2="229.415" fill="none" stroke="#f5a800" stroke-dasharray="0 0 2.899 2.899" stroke-miterlimit="10" stroke-width="3"/><polyline points="295.971 229.415 297.413 229.415 297.413 227.973" fill="none" stroke="#f5a800" stroke-miterlimit="10" stroke-width="3"/><line x1="297.413" y1="225.068" x2="297.413" y2="69.657" fill="none" stroke="#f5a800" stroke-dasharray="0 0 2.905 2.905" stroke-miterlimit="10" stroke-width="3"/><polyline points="297.413 68.205 297.413 66.763 298.854 66.763" fill="none" stroke="#f5a800" stroke-miterlimit="10" stroke-width="3"/><line x1="301.312" y1="66.763" x2="314.831" y2="66.763" fill="none" stroke="#f5a800" stroke-dasharray="0 0 2.458 2.458" stroke-miterlimit="10" stroke-width="3"/><line x1="316.06" y1="66.763" x2="317.501" y2="66.763" fill="none" stroke="#f5a800" stroke-miterlimit="10" stroke-width="3"/><rect x=".797" y="19.339" width="180.18" height="130.22" fill="#fff" stroke="#231f20" stroke-miterlimit="10" stroke-width="1.593"/><rect x="139.206" y="28.873" width="41.771" height="19.788" fill="#fff" stroke="#231f20" stroke-miterlimit="10" stroke-width="1.855"/><rect x="121.798" y="28.873" width="18.114" height="39.434" fill="#fff" stroke="#231f20" stroke-miterlimit="10" stroke-width="1.855"/><rect x="140.132" y="48.661" width="40.845" height="19.788" fill="#fff" stroke="#231f20" stroke-miterlimit="10" stroke-width="1.855"/><path d="M47.921,84.63l1.231.311c-.258,1.011-.723,1.783-1.394,2.314-.67.531-1.49.796-2.459.796-1.003,0-1.819-.204-2.447-.613-.629-.408-1.107-1-1.435-1.774-.328-.774-.492-1.606-.492-2.495,0-.969.185-1.814.556-2.536.37-.721.897-1.27,1.58-1.644.684-.375,1.436-.562,2.257-.562.931,0,1.714.237,2.349.711s1.077,1.141,1.327,2l-1.212.286c-.216-.677-.529-1.17-.939-1.479s-.927-.463-1.549-.463c-.715,0-1.313.171-1.793.514-.48.343-.818.803-1.013,1.381-.195.577-.292,1.173-.292,1.787,0,.792.115,1.482.346,2.073.231.59.589,1.031,1.076,1.323s1.014.438,1.581.438c.69,0,1.274-.199,1.752-.597s.802-.988.971-1.771Z" fill="#231f20" stroke-width="0"/><path d="M50.099,84.522c0-1.249.347-2.173,1.041-2.774.58-.5,1.287-.749,2.12-.749.927,0,1.684.304,2.272.911.588.607.882,1.446.882,2.517,0,.868-.13,1.55-.39,2.047-.261.498-.639.884-1.137,1.159-.497.275-1.04.413-1.628.413-.944,0-1.707-.303-2.288-.908-.582-.605-.873-1.477-.873-2.615ZM51.273,84.522c0,.863.188,1.51.565,1.939.376.43.851.645,1.422.645.567,0,1.039-.216,1.416-.647s.565-1.09.565-1.974c0-.833-.189-1.465-.568-1.895-.378-.429-.849-.644-1.412-.644-.571,0-1.045.214-1.422.641s-.565,1.073-.565,1.936Z" fill="#231f20" stroke-width="0"/><path d="M57.754,87.893v-6.741h1.028v.958c.495-.741,1.21-1.111,2.146-1.111.406,0,.78.073,1.121.219.34.146.595.338.765.575s.288.519.355.844c.042.211.063.582.063,1.111v4.145h-1.143v-4.101c0-.465-.044-.813-.133-1.044-.089-.231-.247-.415-.473-.553-.226-.137-.492-.206-.796-.206-.487,0-.907.154-1.26.463-.353.309-.53.895-.53,1.758v3.682h-1.143Z" fill="#231f20" stroke-width="0"/><path d="M67.479,86.871l.165,1.009c-.322.068-.609.102-.863.102-.415,0-.736-.065-.965-.197s-.389-.304-.482-.517c-.093-.214-.14-.664-.14-1.349v-3.878h-.838v-.889h.838v-1.669l1.136-.686v2.355h1.149v.889h-1.149v3.942c0,.326.02.535.06.628.041.093.106.167.197.222.091.055.221.083.39.083.127,0,.294-.015.501-.044Z" fill="#231f20" stroke-width="0"/><path d="M68.583,87.893v-6.741h1.028v1.022c.262-.478.504-.793.727-.946.222-.152.466-.229.733-.229.385,0,.776.123,1.174.368l-.394,1.06c-.279-.165-.559-.248-.838-.248-.25,0-.474.075-.673.226-.199.15-.341.358-.425.625-.127.406-.19.851-.19,1.333v3.529h-1.143Z" fill="#231f20" stroke-width="0"/><path d="M72.5,84.522c0-1.249.347-2.173,1.041-2.774.58-.5,1.287-.749,2.12-.749.927,0,1.684.304,2.272.911.588.607.882,1.446.882,2.517,0,.868-.13,1.55-.39,2.047-.261.498-.639.884-1.137,1.159-.497.275-1.04.413-1.628.413-.944,0-1.707-.303-2.288-.908-.582-.605-.873-1.477-.873-2.615ZM73.674,84.522c0,.863.188,1.51.565,1.939.376.43.851.645,1.422.645.567,0,1.039-.216,1.416-.647s.565-1.09.565-1.974c0-.833-.189-1.465-.568-1.895-.378-.429-.849-.644-1.412-.644-.571,0-1.045.214-1.422.641s-.565,1.073-.565,1.936Z" fill="#231f20" stroke-width="0"/><path d="M80.129,87.893v-9.306h1.143v9.306h-1.143Z" fill="#231f20" stroke-width="0"/><path d="M83.018,87.893v-9.306h1.143v9.306h-1.143Z" fill="#231f20" stroke-width="0"/><path d="M90.546,85.722l1.181.146c-.186.69-.531,1.225-1.035,1.606s-1.147.571-1.93.571c-.986,0-1.768-.304-2.345-.911-.578-.607-.867-1.458-.867-2.555,0-1.134.292-2.014.876-2.641s1.341-.939,2.272-.939c.901,0,1.638.307,2.209.92s.857,1.477.857,2.59c0,.068-.002.169-.006.305h-5.027c.042.741.252,1.308.628,1.701s.846.59,1.409.59c.419,0,.776-.11,1.073-.33s.531-.571.705-1.054ZM86.794,83.875h3.764c-.051-.567-.195-.992-.432-1.276-.364-.44-.836-.66-1.416-.66-.525,0-.966.176-1.324.527-.357.351-.555.821-.593,1.409Z" fill="#231f20" stroke-width="0"/><path d="M93.148,87.893v-6.741h1.028v1.022c.262-.478.504-.793.727-.946.222-.152.466-.229.733-.229.385,0,.776.123,1.174.368l-.394,1.06c-.279-.165-.559-.248-.838-.248-.25,0-.474.075-.673.226-.199.15-.341.358-.425.625-.127.406-.19.851-.19,1.333v3.529h-1.143Z" fill="#231f20" stroke-width="0"/><path d="M99.509,87.893l3.574-9.306h1.327l3.809,9.306h-1.403l-1.085-2.818h-3.891l-1.022,2.818h-1.308ZM102.194,84.071h3.155l-.971-2.577c-.296-.783-.516-1.426-.66-1.93-.119.597-.286,1.189-.501,1.777l-1.022,2.729Z" fill="#231f20" stroke-width="0"/><rect x=".797" y="189.942" width="180.18" height="130.22" fill="#fff" stroke="#231f20" stroke-miterlimit="10" stroke-width="1.593"/><path d="M132.132,59.983l-.078-.804c.358-.038.652-.126.881-.266.229-.139.415-.355.557-.648s.212-.623.212-.989c0-.325-.054-.612-.161-.861s-.255-.434-.442-.556-.392-.183-.613-.183c-.225,0-.421.059-.588.176s-.309.311-.422.58c-.075.173-.191.555-.349,1.147s-.307,1.006-.447,1.244c-.179.308-.401.537-.667.688-.265.151-.562.227-.891.227-.361,0-.699-.092-1.013-.277s-.553-.454-.715-.809-.244-.749-.244-1.182c0-.478.085-.898.256-1.264.171-.364.422-.645.754-.841s.708-.302,1.128-.316l.068.817c-.453.044-.794.193-1.025.446-.231.254-.347.628-.347,1.123,0,.516.105.892.315,1.127.21.236.463.354.759.354.257,0,.469-.083.635-.25.166-.164.336-.592.51-1.285s.326-1.168.457-1.426c.192-.375.436-.652.73-.831s.634-.268,1.018-.268c.381,0,.74.098,1.077.294s.599.479.786.846c.187.368.281.782.281,1.242,0,.583-.094,1.072-.283,1.465-.189.395-.473.703-.852.928-.379.224-.808.342-1.287.354Z" fill="#231f20" stroke-width="0"/><path d="M134.432,53.809h-7.158v-.791h7.158v.791Z" fill="#231f20" stroke-width="0"/><path d="M131.839,52.086c-.96,0-1.671-.24-2.134-.721-.384-.401-.576-.891-.576-1.468,0-.642.233-1.166.701-1.573s1.112-.611,1.936-.611c.667,0,1.192.09,1.575.27.382.181.68.443.891.787s.317.72.317,1.127c0,.653-.233,1.182-.698,1.584-.465.403-1.136.604-2.012.604ZM131.839,51.273c.664,0,1.161-.13,1.492-.391s.496-.589.496-.984c0-.393-.166-.719-.498-.98s-.838-.391-1.519-.391c-.641,0-1.127.131-1.458.394s-.496.588-.496.978c0,.396.165.724.493.984s.825.391,1.489.391Z" fill="#231f20" stroke-width="0"/><path d="M133.646,45.06l.776-.114c.052.223.078.422.078.598,0,.287-.05.51-.151.668s-.233.27-.398.334-.51.097-1.038.097h-2.983v.58h-.684v-.58h-1.284l-.527-.787h1.812v-.795h.684v.795h3.032c.25,0,.412-.014.483-.042s.128-.073.171-.137c.042-.062.063-.153.063-.27,0-.088-.011-.204-.034-.347Z" fill="#231f20" stroke-width="0"/><path d="M134.432,39.026v.791h-5.601c.202.19.404.44.605.75s.353.586.454.833h-.85c-.231-.442-.511-.829-.84-1.16s-.648-.565-.957-.703v-.51h7.188Z" fill="#231f20" stroke-width="0"/><path d="M47.204,259.432l1.231.312c-.258,1.01-.723,1.781-1.394,2.312-.67.531-1.49.797-2.459.797-1.003,0-1.819-.205-2.447-.613-.629-.408-1.107-.998-1.435-1.773-.328-.773-.492-1.605-.492-2.494,0-.969.185-1.814.556-2.537.37-.721.897-1.27,1.58-1.643.684-.375,1.436-.562,2.257-.562.931,0,1.714.236,2.349.711s1.077,1.141,1.327,2l-1.212.285c-.216-.678-.529-1.17-.939-1.479s-.927-.463-1.549-.463c-.715,0-1.313.17-1.793.514-.48.342-.818.803-1.013,1.381-.195.576-.292,1.172-.292,1.787,0,.791.115,1.48.346,2.072.231.59.589,1.031,1.076,1.322.487.293,1.014.439,1.581.439.69,0,1.274-.199,1.752-.598s.802-.988.971-1.771Z" fill="#231f20" stroke-width="0"/><path d="M49.381,259.324c0-1.248.347-2.174,1.041-2.773.58-.5,1.287-.75,2.12-.75.927,0,1.684.305,2.272.912s.882,1.445.882,2.516c0,.867-.13,1.551-.39,2.047-.261.498-.639.885-1.137,1.16-.497.273-1.04.412-1.628.412-.944,0-1.707-.303-2.288-.908-.582-.605-.873-1.477-.873-2.615ZM50.555,259.324c0,.863.188,1.51.565,1.939s.851.645,1.422.645c.567,0,1.039-.217,1.416-.648s.565-1.09.565-1.973c0-.834-.189-1.467-.568-1.896-.378-.43-.849-.643-1.412-.643-.571,0-1.045.213-1.422.641s-.565,1.072-.565,1.936Z" fill="#231f20" stroke-width="0"/><path d="M57.036,262.695v-6.742h1.028v.959c.495-.74,1.21-1.111,2.146-1.111.406,0,.78.074,1.121.219.34.146.595.338.765.576.169.236.288.518.355.844.042.211.063.582.063,1.111v4.145h-1.143v-4.102c0-.465-.044-.812-.133-1.043s-.247-.416-.473-.553c-.226-.139-.492-.207-.796-.207-.487,0-.907.154-1.26.465-.353.309-.53.895-.53,1.758v3.682h-1.143Z" fill="#231f20" stroke-width="0"/><path d="M66.761,261.674l.165,1.008c-.322.068-.609.102-.863.102-.415,0-.736-.064-.965-.195-.229-.133-.389-.305-.482-.518-.093-.215-.14-.664-.14-1.35v-3.879h-.838v-.889h.838v-1.668l1.136-.686v2.354h1.149v.889h-1.149v3.943c0,.324.02.535.06.627.041.094.106.168.197.223.091.055.221.082.39.082.127,0,.294-.014.501-.043Z" fill="#231f20" stroke-width="0"/><path d="M67.865,262.695v-6.742h1.028v1.023c.262-.479.504-.795.727-.947.222-.152.466-.229.733-.229.385,0,.776.123,1.174.369l-.394,1.061c-.279-.166-.559-.248-.838-.248-.25,0-.474.074-.673.225s-.341.359-.425.625c-.127.406-.19.852-.19,1.334v3.529h-1.143Z" fill="#231f20" stroke-width="0"/><path d="M71.782,259.324c0-1.248.347-2.174,1.041-2.773.58-.5,1.287-.75,2.12-.75.927,0,1.684.305,2.272.912s.882,1.445.882,2.516c0,.867-.13,1.551-.39,2.047-.261.498-.639.885-1.137,1.16-.497.273-1.04.412-1.628.412-.944,0-1.707-.303-2.288-.908-.582-.605-.873-1.477-.873-2.615ZM72.956,259.324c0,.863.188,1.51.565,1.939s.851.645,1.422.645c.567,0,1.039-.217,1.416-.648s.565-1.09.565-1.973c0-.834-.189-1.467-.568-1.896-.378-.43-.849-.643-1.412-.643-.571,0-1.045.213-1.422.641s-.565,1.072-.565,1.936Z" fill="#231f20" stroke-width="0"/><path d="M79.412,262.695v-9.307h1.143v9.307h-1.143Z" fill="#231f20" stroke-width="0"/><path d="M82.3,262.695v-9.307h1.143v9.307h-1.143Z" fill="#231f20" stroke-width="0"/><path d="M89.828,260.523l1.181.146c-.186.689-.531,1.225-1.035,1.605s-1.147.572-1.93.572c-.986,0-1.768-.305-2.345-.912-.578-.607-.867-1.459-.867-2.555,0-1.133.292-2.014.876-2.641.584-.625,1.341-.939,2.272-.939.901,0,1.638.307,2.209.922.571.613.857,1.477.857,2.59,0,.066-.002.168-.006.305h-5.027c.042.74.252,1.307.628,1.701.376.393.846.59,1.409.59.419,0,.776-.111,1.073-.33.296-.221.531-.572.705-1.055ZM86.077,258.678h3.764c-.051-.568-.195-.994-.432-1.277-.364-.439-.836-.66-1.416-.66-.525,0-.966.176-1.324.527-.357.352-.555.82-.593,1.41Z" fill="#231f20" stroke-width="0"/><path d="M92.431,262.695v-6.742h1.028v1.023c.262-.479.504-.795.727-.947.222-.152.466-.229.733-.229.385,0,.776.123,1.174.369l-.394,1.061c-.279-.166-.559-.248-.838-.248-.25,0-.474.074-.673.225s-.341.359-.425.625c-.127.406-.19.852-.19,1.334v3.529h-1.143Z" fill="#231f20" stroke-width="0"/><path d="M100.479,262.695v-9.307h3.491c.711,0,1.281.094,1.711.283.429.188.766.479,1.009.869.244.393.365.801.365,1.229,0,.398-.108.771-.324,1.123s-.542.635-.978.852c.563.164.996.445,1.298.844.302.398.454.867.454,1.41,0,.436-.092.84-.276,1.215-.185.375-.412.664-.683.867s-.61.355-1.019.459c-.409.104-.909.156-1.501.156h-3.548ZM101.711,257.299h2.012c.546,0,.938-.035,1.174-.107.313-.094.549-.248.708-.463.158-.217.238-.486.238-.812,0-.309-.074-.582-.222-.816s-.36-.395-.635-.482c-.275-.086-.747-.129-1.416-.129h-1.86v2.811ZM101.711,261.598h2.317c.398,0,.677-.016.838-.045.284-.051.521-.137.711-.254.19-.119.347-.291.47-.518s.184-.488.184-.783c0-.348-.089-.65-.267-.906s-.424-.436-.739-.539c-.315-.104-.77-.154-1.362-.154h-2.152v3.199Z" fill="#231f20" stroke-width="0"/><rect x="317.501" y="19.339" width="133.295" height="130.22" fill="#fff" stroke="#231f20" stroke-miterlimit="10" stroke-width="1.593"/><rect x="317.501" y="30.95" width="41.771" height="15.285" fill="#fff" stroke="#231f20" stroke-miterlimit="10" stroke-width="1.631"/><path d="M332.99,41.05l1.181.146c-.187.69-.531,1.225-1.035,1.606-.503.381-1.146.571-1.93.571-.985,0-1.768-.304-2.345-.911-.578-.607-.866-1.458-.866-2.555,0-1.134.291-2.014.875-2.641s1.342-.939,2.273-.939c.9,0,1.637.307,2.209.92.57.614.856,1.477.856,2.59,0,.068-.002.169-.007.305h-5.027c.043.741.252,1.308.629,1.701s.847.59,1.409.59c.419,0,.776-.11,1.073-.33.296-.22.53-.571.704-1.054ZM329.239,39.203h3.764c-.051-.567-.194-.992-.432-1.276-.364-.44-.836-.66-1.416-.66-.524,0-.966.176-1.323.527s-.556.821-.593,1.409Z" fill="#231f20" stroke-width="0"/><path d="M335.287,38.631c0-1.1.113-1.986.34-2.657.227-.67.563-1.188,1.01-1.552s1.008-.546,1.686-.546c.499,0,.937.101,1.313.302.377.201.688.491.933.869.246.379.438.84.578,1.384.14.544.209,1.277.209,2.2,0,1.092-.111,1.973-.336,2.644-.225.67-.56,1.189-1.006,1.555-.446.366-1.011.549-1.691.549-.897,0-1.603-.322-2.114-.965-.613-.774-.921-2.036-.921-3.783ZM336.462,38.631c0,1.528.179,2.544.536,3.05.357.505.799.758,1.324.758s.966-.254,1.323-.762.536-1.523.536-3.047c0-1.532-.179-2.55-.536-3.053s-.804-.755-1.337-.755c-.524,0-.943.222-1.256.667-.395.567-.591,1.614-.591,3.142Z" fill="#231f20" stroke-width="0"/><path d="M347.234,42.389c-.423.36-.83.614-1.222.762s-.812.222-1.261.222c-.74,0-1.31-.181-1.707-.543-.397-.361-.597-.824-.597-1.387,0-.33.075-.632.226-.904.15-.273.347-.492.59-.657s.518-.29.822-.375c.225-.059.562-.116,1.016-.171.923-.11,1.602-.241,2.037-.394.005-.157.007-.256.007-.298,0-.465-.108-.793-.323-.984-.293-.258-.727-.387-1.302-.387-.537,0-.935.094-1.19.283-.256.188-.445.521-.568,1l-1.117-.152c.102-.478.27-.864.502-1.159.232-.294.569-.521,1.01-.679.439-.159.949-.238,1.529-.238.575,0,1.043.068,1.402.203.36.135.625.306.794.511.169.206.288.465.355.778.038.195.058.546.058,1.054v1.523c0,1.062.023,1.734.072,2.015.049.282.146.551.289.81h-1.193c-.118-.237-.194-.514-.229-.832ZM347.139,39.837c-.414.169-1.036.313-1.865.432-.471.068-.803.144-.997.229s-.345.208-.45.372c-.106.163-.159.344-.159.542,0,.305.115.559.346.762s.568.305,1.013.305c.44,0,.832-.096,1.174-.289.344-.193.595-.456.756-.791.123-.258.184-.639.184-1.143v-.419Z" fill="#231f20" stroke-width="0"/><rect x="317.501" y="58.532" width="41.771" height="15.285" fill="#fff" stroke="#231f20" stroke-miterlimit="10" stroke-width="1.631"/><path d="M332.99,68.631l1.181.146c-.187.69-.531,1.225-1.035,1.606-.503.381-1.146.571-1.93.571-.985,0-1.768-.304-2.345-.911-.578-.607-.866-1.458-.866-2.555,0-1.134.291-2.014.875-2.641s1.342-.939,2.273-.939c.9,0,1.637.307,2.209.92.57.614.856,1.477.856,2.59,0,.068-.002.169-.007.305h-5.027c.043.741.252,1.308.629,1.701s.847.59,1.409.59c.419,0,.776-.11,1.073-.33.296-.22.53-.571.704-1.054ZM329.239,66.784h3.764c-.051-.567-.194-.992-.432-1.276-.364-.44-.836-.66-1.416-.66-.524,0-.966.176-1.323.527s-.556.821-.593,1.409Z" fill="#231f20" stroke-width="0"/><path d="M335.287,66.213c0-1.1.113-1.986.34-2.657.227-.67.563-1.188,1.01-1.552s1.008-.546,1.686-.546c.499,0,.937.101,1.313.302.377.201.688.491.933.869.246.379.438.84.578,1.384.14.544.209,1.277.209,2.2,0,1.092-.111,1.973-.336,2.644-.225.67-.56,1.189-1.006,1.555-.446.366-1.011.549-1.691.549-.897,0-1.603-.322-2.114-.965-.613-.774-.921-2.036-.921-3.783ZM336.462,66.213c0,1.528.179,2.544.536,3.05.357.505.799.758,1.324.758s.966-.254,1.323-.762.536-1.523.536-3.047c0-1.532-.179-2.55-.536-3.053s-.804-.755-1.337-.755c-.524,0-.943.222-1.256.667-.395.567-.591,1.614-.591,3.142Z" fill="#231f20" stroke-width="0"/><path d="M343.889,70.802h-1.06v-9.306h1.143v3.32c.482-.605,1.099-.908,1.847-.908.415,0,.808.083,1.178.251.37.167.675.402.914.704.239.303.427.668.562,1.095.135.427.203.884.203,1.371,0,1.155-.286,2.048-.857,2.679s-1.257.946-2.057.946-1.42-.332-1.873-.997v.844ZM343.877,67.381c0,.808.109,1.392.33,1.752.359.588.846.882,1.459.882.5,0,.932-.217,1.295-.65.364-.434.547-1.081.547-1.939,0-.88-.175-1.53-.524-1.949-.349-.419-.771-.628-1.267-.628-.499,0-.931.217-1.295.65-.363.434-.545,1.062-.545,1.882Z" fill="#231f20" stroke-width="0"/><rect x="317.501" y="95.081" width="41.771" height="15.285" fill="#fff" stroke="#231f20" stroke-miterlimit="10" stroke-width="1.631"/><path d="M332.99,105.182l1.181.146c-.187.69-.531,1.225-1.035,1.606-.503.381-1.146.571-1.93.571-.985,0-1.768-.304-2.345-.911-.578-.607-.866-1.458-.866-2.555,0-1.134.291-2.014.875-2.641s1.342-.939,2.273-.939c.9,0,1.637.307,2.209.92.57.614.856,1.477.856,2.59,0,.068-.002.169-.007.305h-5.027c.043.741.252,1.308.629,1.701s.847.59,1.409.59c.419,0,.776-.11,1.073-.33.296-.22.53-.571.704-1.054ZM329.239,103.335h3.764c-.051-.567-.194-.992-.432-1.276-.364-.44-.836-.66-1.416-.66-.524,0-.966.176-1.323.527s-.556.821-.593,1.409Z" fill="#231f20" stroke-width="0"/><path d="M335.287,102.764c0-1.1.113-1.986.34-2.657.227-.67.563-1.188,1.01-1.552s1.008-.546,1.686-.546c.499,0,.937.101,1.313.302.377.201.688.491.933.869.246.379.438.84.578,1.384.14.544.209,1.277.209,2.2,0,1.092-.111,1.973-.336,2.644-.225.67-.56,1.189-1.006,1.555-.446.366-1.011.549-1.691.549-.897,0-1.603-.322-2.114-.965-.613-.774-.921-2.036-.921-3.783ZM336.462,102.764c0,1.528.179,2.544.536,3.05.357.505.799.758,1.324.758s.966-.254,1.323-.762.536-1.523.536-3.047c0-1.532-.179-2.55-.536-3.053s-.804-.755-1.337-.755c-.524,0-.943.222-1.256.667-.395.567-.591,1.614-.591,3.142Z" fill="#231f20" stroke-width="0"/><path d="M347.234,106.521c-.423.36-.83.614-1.222.762s-.812.222-1.261.222c-.74,0-1.31-.181-1.707-.543-.397-.361-.597-.824-.597-1.387,0-.33.075-.632.226-.904.15-.273.347-.492.59-.657s.518-.29.822-.375c.225-.059.562-.116,1.016-.171.923-.11,1.602-.241,2.037-.394.005-.157.007-.256.007-.298,0-.465-.108-.793-.323-.984-.293-.258-.727-.387-1.302-.387-.537,0-.935.094-1.19.283-.256.188-.445.521-.568,1l-1.117-.152c.102-.478.27-.864.502-1.159.232-.294.569-.521,1.01-.679.439-.159.949-.238,1.529-.238.575,0,1.043.068,1.402.203.36.135.625.306.794.511.169.206.288.465.355.778.038.195.058.546.058,1.054v1.523c0,1.062.023,1.734.072,2.015.049.282.146.551.289.81h-1.193c-.118-.237-.194-.514-.229-.832ZM347.139,103.97c-.414.169-1.036.313-1.865.432-.471.068-.803.144-.997.229s-.345.208-.45.372c-.106.163-.159.344-.159.542,0,.305.115.559.346.762s.568.305,1.013.305c.44,0,.832-.096,1.174-.289.344-.193.595-.456.756-.791.123-.258.184-.639.184-1.143v-.419Z" fill="#231f20" stroke-width="0"/><rect x="317.501" y="122.663" width="41.771" height="15.285" fill="#fff" stroke="#231f20" stroke-miterlimit="10" stroke-width="1.631"/><path d="M332.99,132.762l1.181.146c-.187.69-.531,1.226-1.035,1.606-.503.381-1.146.571-1.93.571-.985,0-1.768-.304-2.345-.911-.578-.607-.866-1.459-.866-2.555,0-1.134.291-2.015.875-2.641s1.342-.939,2.273-.939c.9,0,1.637.307,2.209.921.57.613.856,1.477.856,2.59,0,.067-.002.169-.007.305h-5.027c.043.74.252,1.307.629,1.701.377.393.847.59,1.409.59.419,0,.776-.11,1.073-.33.296-.22.53-.571.704-1.054ZM329.239,130.916h3.764c-.051-.567-.194-.993-.432-1.276-.364-.44-.836-.66-1.416-.66-.524,0-.966.176-1.323.526-.357.352-.556.821-.593,1.41Z" fill="#231f20" stroke-width="0"/><path d="M335.287,130.343c0-1.1.113-1.985.34-2.656s.563-1.188,1.01-1.552,1.008-.546,1.686-.546c.499,0,.937.101,1.313.302s.688.49.933.869c.246.379.438.84.578,1.384s.209,1.277.209,2.199c0,1.092-.111,1.974-.336,2.645s-.56,1.188-1.006,1.555-1.011.549-1.691.549c-.897,0-1.603-.321-2.114-.965-.613-.773-.921-2.035-.921-3.783ZM336.462,130.343c0,1.528.179,2.545.536,3.051s.799.758,1.324.758.966-.254,1.323-.762.536-1.523.536-3.047c0-1.531-.179-2.549-.536-3.053s-.804-.756-1.337-.756c-.524,0-.943.223-1.256.667-.395.567-.591,1.614-.591,3.142Z" fill="#231f20" stroke-width="0"/><path d="M343.889,134.933h-1.06v-9.306h1.143v3.319c.482-.604,1.099-.907,1.847-.907.415,0,.808.084,1.178.251s.675.401.914.704.427.668.562,1.095c.135.428.203.885.203,1.371,0,1.156-.286,2.049-.857,2.68-.571.63-1.257.945-2.057.945s-1.42-.332-1.873-.996v.844ZM343.877,131.511c0,.809.109,1.393.33,1.752.359.589.846.883,1.459.883.5,0,.932-.217,1.295-.65.364-.434.547-1.08.547-1.939,0-.88-.175-1.529-.524-1.949-.349-.418-.771-.628-1.267-.628-.499,0-.931.217-1.295.65-.363.434-.545,1.062-.545,1.882Z" fill="#231f20" stroke-width="0"/><line x1="317.501" y1="84.449" x2="450.797" y2="84.449" fill="#fff" stroke="#231f20" stroke-miterlimit="10" stroke-width="1.631"/><path d="M364.498,8.554l1.162-.102c.055.465.183.847.384,1.146.201.298.513.539.937.724.423.184.898.276,1.428.276.47,0,.885-.07,1.244-.209s.627-.331.803-.574c.176-.244.264-.509.264-.797,0-.292-.085-.547-.254-.765-.169-.218-.448-.401-.838-.549-.25-.097-.802-.249-1.656-.454-.855-.206-1.454-.399-1.797-.581-.444-.233-.775-.521-.993-.866-.218-.345-.327-.731-.327-1.159,0-.47.133-.909.4-1.317.266-.409.655-.719,1.168-.93.512-.211,1.081-.317,1.707-.317.689,0,1.298.111,1.825.333.526.222.932.549,1.216.98.283.432.436.92.457,1.466l-1.182.089c-.062-.588-.277-1.033-.644-1.333s-.907-.451-1.622-.451c-.745,0-1.287.137-1.628.409-.341.273-.511.602-.511.987,0,.334.12.609.361.825.237.216.855.437,1.856.663,1.001.227,1.688.424,2.06.594.542.25.942.566,1.2.949.258.383.388.824.388,1.323,0,.495-.143.962-.426,1.399-.283.438-.69.779-1.222,1.022-.531.243-1.129.365-1.794.365-.842,0-1.547-.123-2.116-.368s-1.016-.615-1.34-1.108c-.323-.493-.494-1.05-.511-1.672Z" fill="#231f20" stroke-width="0"/><path d="M373.442,11.543V2.238h1.143v3.339c.533-.618,1.205-.927,2.018-.927.5,0,.934.099,1.302.295.368.197.632.469.79.816.159.347.238.851.238,1.511v4.272h-1.143v-4.272c0-.571-.124-.987-.371-1.248-.248-.26-.598-.39-1.051-.39-.339,0-.657.088-.955.263-.299.176-.512.414-.639.714s-.189.715-.189,1.244v3.688h-1.143Z" fill="#231f20" stroke-width="0"/><path d="M385.286,9.373l1.181.146c-.187.69-.531,1.225-1.035,1.606-.503.381-1.146.571-1.93.571-.985,0-1.768-.304-2.345-.911-.578-.607-.866-1.458-.866-2.555,0-1.134.291-2.014.875-2.641s1.342-.939,2.273-.939c.9,0,1.637.307,2.209.92.57.614.856,1.477.856,2.59,0,.068-.002.169-.007.305h-5.027c.043.741.252,1.308.629,1.701s.847.59,1.409.59c.419,0,.776-.11,1.073-.33.296-.22.53-.571.704-1.054ZM381.535,7.525h3.764c-.051-.567-.194-.992-.432-1.276-.364-.44-.836-.66-1.416-.66-.524,0-.966.176-1.323.527s-.556.821-.593,1.409Z" fill="#231f20" stroke-width="0"/><path d="M387.877,11.543V2.238h1.143v9.306h-1.143Z" fill="#231f20" stroke-width="0"/><path d="M391.063,11.543v-5.853h-1.009v-.889h1.009v-.717c0-.453.04-.789.12-1.009.11-.296.304-.536.581-.721.277-.184.666-.276,1.165-.276.321,0,.677.038,1.066.114l-.172.997c-.236-.042-.461-.063-.672-.063-.348,0-.593.074-.736.222-.145.148-.217.425-.217.832v.622h1.314v.889h-1.314v5.853h-1.136Z" fill="#231f20" stroke-width="0"/><path d="M402,11.543h-1.143v-7.281c-.275.262-.637.525-1.083.787s-.847.459-1.202.59v-1.104c.639-.3,1.197-.665,1.676-1.092.478-.427.816-.842,1.016-1.244h.736v9.344Z" fill="#231f20" stroke-width="0"/><path d="M385.09,55.962v-9.306h1.264l4.887,7.306v-7.306h1.182v9.306h-1.264l-4.888-7.312v7.312h-1.181Z" fill="#231f20" stroke-width="0"/><path d="M394.072,52.972l1.162-.102c.055.465.183.847.384,1.146.201.298.513.539.937.724.423.184.898.276,1.428.276.47,0,.885-.07,1.244-.209s.627-.331.803-.574c.176-.244.264-.509.264-.797,0-.292-.085-.547-.254-.765-.169-.218-.448-.401-.838-.549-.25-.097-.802-.249-1.656-.454-.855-.206-1.454-.399-1.797-.581-.444-.233-.775-.521-.993-.866-.218-.345-.327-.731-.327-1.159,0-.47.133-.909.4-1.317.266-.409.655-.719,1.168-.93.512-.211,1.081-.317,1.707-.317.689,0,1.298.111,1.825.333.526.222.932.549,1.216.98.283.432.436.92.457,1.466l-1.182.089c-.062-.588-.277-1.033-.644-1.333s-.907-.451-1.622-.451c-.745,0-1.287.137-1.628.409-.341.273-.511.602-.511.987,0,.334.12.609.361.825.237.216.855.437,1.856.663,1.001.227,1.688.424,2.06.594.542.25.942.566,1.2.949.258.383.388.824.388,1.323,0,.495-.143.962-.426,1.399-.283.438-.69.779-1.222,1.022-.531.243-1.129.365-1.794.365-.842,0-1.547-.123-2.116-.368s-1.016-.615-1.34-1.108c-.323-.493-.494-1.05-.511-1.672Z" fill="#231f20" stroke-width="0"/><path d="M403.123,55.962v-9.306h1.854l2.203,6.589c.203.614.351,1.073.443,1.377.106-.338.271-.836.496-1.492l2.228-6.475h1.657v9.306h-1.188v-7.789l-2.704,7.789h-1.11l-2.691-7.922v7.922h-1.188Z" fill="#231f20" stroke-width="0"/><path d="M415.863,55.962l3.574-9.306h1.326l3.809,9.306h-1.402l-1.086-2.818h-3.891l-1.021,2.818h-1.309ZM418.549,52.141h3.154l-.971-2.577c-.296-.783-.517-1.426-.66-1.93-.118.597-.285,1.189-.502,1.777l-1.021,2.729Z" fill="#231f20" stroke-width="0"/><path d="M384.373,121.258v-9.306h1.264l4.887,7.306v-7.306h1.182v9.306h-1.264l-4.888-7.312v7.312h-1.181Z" fill="#231f20" stroke-width="0"/><path d="M393.355,118.269l1.162-.102c.055.465.183.847.384,1.146.201.298.513.539.937.724.423.184.898.276,1.428.276.47,0,.885-.07,1.244-.21s.627-.331.803-.574c.176-.244.264-.509.264-.797,0-.292-.085-.547-.254-.765-.169-.218-.448-.401-.838-.549-.25-.097-.802-.249-1.656-.454-.855-.206-1.454-.399-1.797-.581-.444-.233-.775-.521-.993-.866-.218-.345-.327-.731-.327-1.159,0-.47.133-.909.4-1.317.266-.409.655-.719,1.168-.93.512-.211,1.081-.317,1.707-.317.689,0,1.298.111,1.825.333.526.222.932.549,1.216.98.283.432.436.92.457,1.466l-1.182.089c-.062-.588-.277-1.033-.644-1.333s-.907-.451-1.622-.451c-.745,0-1.287.137-1.628.409-.341.273-.511.602-.511.987,0,.334.12.609.361.825.237.216.855.437,1.856.663,1.001.227,1.688.424,2.06.594.542.25.942.566,1.2.949.258.383.388.824.388,1.323,0,.495-.143.962-.426,1.399-.283.438-.69.779-1.222,1.022s-1.129.364-1.794.364c-.842,0-1.547-.122-2.116-.367-.569-.246-1.016-.615-1.34-1.108-.323-.493-.494-1.05-.511-1.672Z" fill="#231f20" stroke-width="0"/><path d="M402.406,121.258v-9.306h1.854l2.203,6.589c.203.614.351,1.072.443,1.377.106-.338.271-.835.496-1.491l2.228-6.475h1.657v9.306h-1.188v-7.789l-2.704,7.789h-1.11l-2.691-7.922v7.922h-1.188Z" fill="#231f20" stroke-width="0"/><path d="M416.835,121.258v-9.306h3.491c.711,0,1.281.094,1.711.282.43.188.766.479,1.009.87.243.391.365.801.365,1.228,0,.398-.108.772-.323,1.124-.217.351-.542.635-.979.851.563.165.996.446,1.299.844s.453.868.453,1.409c0,.436-.092.841-.275,1.215-.185.375-.412.664-.683.867s-.61.356-1.019.46-.909.155-1.502.155h-3.548ZM418.066,115.863h2.012c.547,0,.938-.036,1.175-.108.313-.093.549-.248.708-.463.158-.216.238-.487.238-.812,0-.309-.074-.581-.223-.815-.148-.235-.359-.396-.635-.482-.275-.087-.747-.13-1.416-.13h-1.859v2.812ZM418.066,120.161h2.316c.398,0,.678-.016.838-.045.284-.051.521-.135.711-.254.191-.119.348-.291.471-.518.122-.226.184-.487.184-.784,0-.347-.089-.648-.267-.905-.178-.256-.424-.436-.739-.539-.315-.104-.77-.156-1.361-.156h-2.152v3.2Z" fill="#231f20" stroke-width="0"/><rect x="139.206" y="199.917" width="41.771" height="19.788" fill="#fff" stroke="#231f20" stroke-miterlimit="10" stroke-width="1.855"/><rect x="121.798" y="199.917" width="18.114" height="39.434" fill="#fff" stroke="#231f20" stroke-miterlimit="10" stroke-width="1.855"/><rect x="140.132" y="219.705" width="40.845" height="19.788" fill="#fff" stroke="#231f20" stroke-miterlimit="10" stroke-width="1.855"/><path d="M161.194,42.184c-.423.36-.831.614-1.222.762-.392.148-.812.222-1.26.222-.741,0-1.31-.181-1.708-.543-.398-.361-.597-.824-.597-1.387,0-.33.075-.632.226-.904.15-.273.347-.492.59-.657.244-.165.518-.29.822-.375.224-.059.563-.116,1.016-.171.922-.11,1.602-.241,2.038-.394.004-.157.006-.256.006-.298,0-.465-.108-.793-.324-.984-.292-.258-.726-.387-1.301-.387-.538,0-.934.094-1.19.283-.256.188-.445.521-.568,1l-1.117-.152c.102-.478.269-.864.501-1.159.233-.294.569-.521,1.009-.679.44-.159.95-.238,1.53-.238.576,0,1.043.068,1.403.203s.624.306.793.511c.169.206.288.465.355.778.038.195.057.546.057,1.054v1.523c0,1.062.024,1.734.073,2.015.049.282.145.551.289.81h-1.193c-.119-.237-.195-.514-.229-.832ZM161.099,39.632c-.415.169-1.037.313-1.866.432-.47.068-.802.144-.997.229s-.345.208-.451.372c-.106.163-.159.344-.159.542,0,.305.115.559.346.762.231.203.568.305,1.013.305.44,0,.832-.096,1.174-.289.343-.193.595-.456.755-.791.123-.258.184-.639.184-1.143v-.419Z" fill="#231f20" stroke-width="0"/><path d="M157.849,63.345h-1.06v-9.306h1.143v3.32c.482-.605,1.098-.908,1.847-.908.415,0,.807.083,1.177.251.371.167.675.402.914.704.239.303.427.668.562,1.095s.203.884.203,1.371c0,1.155-.286,2.048-.857,2.679s-1.257.946-2.057.946c-.795,0-1.42-.332-1.873-.997v.844ZM157.836,59.924c0,.808.11,1.392.33,1.752.36.588.846.882,1.46.882.5,0,.931-.217,1.295-.65.364-.434.546-1.081.546-1.939,0-.88-.174-1.53-.524-1.949-.349-.419-.771-.628-1.266-.628-.5,0-.931.217-1.295.65-.364.434-.546,1.062-.546,1.882Z" fill="#231f20" stroke-width="0"/><path d="M161.194,213.229c-.423.359-.831.613-1.222.762-.392.148-.812.223-1.26.223-.741,0-1.31-.182-1.708-.543s-.597-.824-.597-1.387c0-.33.075-.633.226-.904.15-.273.347-.492.59-.658.244-.164.518-.289.822-.373.224-.061.563-.117,1.016-.172.922-.111,1.602-.242,2.038-.395.004-.156.006-.256.006-.297,0-.467-.108-.795-.324-.984-.292-.258-.726-.387-1.301-.387-.538,0-.934.094-1.19.281-.256.189-.445.521-.568,1l-1.117-.152c.102-.479.269-.865.501-1.158.233-.295.569-.521,1.009-.68s.95-.238,1.53-.238c.576,0,1.043.068,1.403.203.36.137.624.307.793.512s.288.465.355.777c.038.195.057.547.057,1.055v1.523c0,1.061.024,1.732.073,2.014.049.281.145.553.289.811h-1.193c-.119-.238-.195-.514-.229-.832ZM161.099,210.678c-.415.168-1.037.312-1.866.432-.47.066-.802.143-.997.229-.195.084-.345.207-.451.371-.106.162-.159.344-.159.543,0,.305.115.559.346.762.231.203.568.305,1.013.305.44,0,.832-.098,1.174-.289.343-.193.595-.457.755-.791.123-.258.184-.639.184-1.143v-.418Z" fill="#231f20" stroke-width="0"/><path d="M157.849,234.391h-1.06v-9.307h1.143v3.32c.482-.605,1.098-.908,1.847-.908.415,0,.807.084,1.177.252.371.166.675.4.914.703.239.303.427.668.562,1.096s.203.885.203,1.371c0,1.156-.286,2.049-.857,2.68-.571.629-1.257.945-2.057.945-.795,0-1.42-.332-1.873-.996v.844ZM157.836,230.969c0,.809.11,1.393.33,1.752.36.588.846.883,1.46.883.5,0,.931-.217,1.295-.65s.546-1.08.546-1.939c0-.881-.174-1.529-.524-1.949-.349-.418-.771-.629-1.266-.629-.5,0-.931.217-1.295.65s-.546,1.062-.546,1.883Z" fill="#231f20" stroke-width="0"/><path d="M132.132,230.711l-.078-.805c.358-.037.652-.125.881-.266.229-.139.415-.354.557-.648.142-.291.212-.621.212-.988,0-.324-.054-.611-.161-.861-.107-.248-.255-.434-.442-.555-.187-.123-.392-.184-.613-.184-.225,0-.421.059-.588.176s-.309.311-.422.58c-.075.174-.191.557-.349,1.146-.158.594-.307,1.008-.447,1.244-.179.309-.401.537-.667.688-.265.152-.562.227-.891.227-.361,0-.699-.092-1.013-.277-.314-.184-.553-.453-.715-.809-.163-.354-.244-.748-.244-1.182,0-.477.085-.898.256-1.264.171-.363.422-.645.754-.842.332-.195.708-.301,1.128-.316l.068.818c-.453.043-.794.193-1.025.445-.231.254-.347.629-.347,1.123,0,.516.105.893.315,1.127.21.236.463.354.759.354.257,0,.469-.082.635-.25.166-.164.336-.592.51-1.285s.326-1.168.457-1.426c.192-.375.436-.652.73-.83.294-.18.634-.27,1.018-.27.381,0,.74.1,1.077.295.337.197.599.479.786.846.187.369.281.783.281,1.242,0,.584-.094,1.072-.283,1.465-.189.395-.473.703-.852.928s-.808.342-1.287.354Z" fill="#231f20" stroke-width="0"/><path d="M134.432,224.537h-7.158v-.791h7.158v.791Z" fill="#231f20" stroke-width="0"/><path d="M131.839,222.814c-.96,0-1.671-.24-2.134-.721-.384-.4-.576-.891-.576-1.467,0-.643.233-1.166.701-1.574.467-.406,1.112-.611,1.936-.611.667,0,1.192.092,1.575.271s.68.441.891.787c.211.344.317.719.317,1.127,0,.652-.233,1.182-.698,1.584s-1.136.604-2.012.604ZM131.839,222.002c.664,0,1.161-.131,1.492-.391.331-.262.496-.59.496-.984s-.166-.719-.498-.98c-.332-.26-.838-.391-1.519-.391-.641,0-1.127.131-1.458.393s-.496.588-.496.979c0,.395.165.723.493.984.329.26.825.391,1.489.391Z" fill="#231f20" stroke-width="0"/><path d="M133.646,215.787l.776-.113c.052.223.078.422.078.598,0,.287-.05.51-.151.668s-.233.27-.398.334-.51.096-1.038.096h-2.983v.58h-.684v-.58h-1.284l-.527-.787h1.812v-.795h.684v.795h3.032c.25,0,.412-.014.483-.041s.128-.072.171-.137c.042-.062.063-.152.063-.27,0-.088-.011-.203-.034-.348Z" fill="#231f20" stroke-width="0"/><path d="M134.432,209.754v.791h-5.601c.202.191.404.439.605.75.202.309.353.586.454.832h-.85c-.231-.441-.511-.828-.84-1.16-.329-.33-.648-.564-.957-.703v-.51h7.188Z" fill="#231f20" stroke-width="0"/></svg>