<?xml version="1.0" encoding="UTF-8"?><svg id="a" xmlns="http://www.w3.org/2000/svg" width="6in" height="4.5in" viewBox="0 0 432 324"><polyline points="147.427 210.725 243.223 210.725 243.223 103.955 283.951 103.955" fill="none" stroke="#f5a800" stroke-miterlimit="10" stroke-width="2.989"/><polyline points="147.921 230.645 216.737 230.645 216.737 248.506 283.951 248.506" fill="none" stroke="#fff" stroke-miterlimit="10" stroke-width="7"/><line x1="147.921" y1="230.645" x2="149.362" y2="230.645" fill="none" stroke="#f5a800" stroke-miterlimit="10" stroke-width="3"/><line x1="152.229" y1="230.645" x2="213.862" y2="230.645" fill="none" stroke="#f5a800" stroke-dasharray="2.867 2.867" stroke-miterlimit="10" stroke-width="3"/><polyline points="215.295 230.645 216.737 230.645 216.737 232.087" fill="none" stroke="#f5a800" stroke-miterlimit="10" stroke-width="3"/><line x1="216.737" y1="235.083" x2="216.737" y2="245.567" fill="none" stroke="#f5a800" stroke-dasharray="2.996 2.996" stroke-miterlimit="10" stroke-width="3"/><polyline points="216.737 247.065 216.737 248.506 218.178 248.506" fill="none" stroke="#f5a800" stroke-miterlimit="10" stroke-width="3"/><line x1="220.975" y1="248.506" x2="281.111" y2="248.506" fill="none" stroke="#f5a800" stroke-dasharray="2.797 2.797" stroke-miterlimit="10" stroke-width="3"/><line x1="282.51" y1="248.506" x2="283.951" y2="248.506" fill="none" stroke="#f5a800" stroke-miterlimit="10" stroke-width="3"/><line x1="147.427" y1="283.723" x2="283.387" y2="283.723" fill="none" stroke="#f5a800" stroke-miterlimit="10" stroke-width="2.989"/><polyline points="147.921 303.644 260.134 303.644 260.134 67.224 283.951 67.224" fill="none" stroke="#fff" stroke-miterlimit="10" stroke-width="7"/><line x1="147.921" y1="303.644" x2="149.362" y2="303.644" fill="none" stroke="#f5a800" stroke-miterlimit="10" stroke-width="3"/><line x1="152.317" y1="303.644" x2="257.215" y2="303.644" fill="none" stroke="#f5a800" stroke-dasharray="2.955 2.955" stroke-miterlimit="10" stroke-width="3"/><polyline points="258.693 303.644 260.134 303.644 260.134 302.202" fill="none" stroke="#f5a800" stroke-miterlimit="10" stroke-width="3"/><line x1="260.134" y1="299.319" x2="260.134" y2="70.107" fill="none" stroke="#f5a800" stroke-dasharray="2.883 2.883" stroke-miterlimit="10" stroke-width="3"/><polyline points="260.134 68.665 260.134 67.224 261.576 67.224" fill="none" stroke="#f5a800" stroke-miterlimit="10" stroke-width="3"/><line x1="264.566" y1="67.224" x2="281.014" y2="67.224" fill="none" stroke="#f5a800" stroke-dasharray="2.991 2.991" stroke-miterlimit="10" stroke-width="3"/><line x1="282.51" y1="67.224" x2="283.951" y2="67.224" fill="none" stroke="#f5a800" stroke-miterlimit="10" stroke-width="3"/><line x1="149.17" y1="38.574" x2="283.951" y2="38.574" fill="none" stroke="#1670b9" stroke-miterlimit="10" stroke-width="2.989"/><polyline points="147.427 60.321 191.224 60.321 191.224 313.12 283.951 313.12" fill="none" stroke="#fff" stroke-miterlimit="10" stroke-width="7"/><line x1="147.427" y1="60.321" x2="148.868" y2="60.321" fill="none" stroke="#1670b9" stroke-miterlimit="10" stroke-width="3"/><line x1="151.596" y1="60.321" x2="188.419" y2="60.321" fill="none" stroke="#1670b9" stroke-dasharray="2.728 2.728" stroke-miterlimit="10" stroke-width="3"/><polyline points="189.783 60.321 191.224 60.321 191.224 61.762" fill="none" stroke="#1670b9" stroke-miterlimit="10" stroke-width="3"/><line x1="191.224" y1="64.635" x2="191.224" y2="310.242" fill="none" stroke="#1670b9" stroke-dasharray="2.873 2.873" stroke-miterlimit="10" stroke-width="3"/><polyline points="191.224 311.678 191.224 313.12 192.666 313.12" fill="none" stroke="#1670b9" stroke-miterlimit="10" stroke-width="3"/><line x1="195.564" y1="313.12" x2="281.061" y2="313.12" fill="none" stroke="#1670b9" stroke-dasharray="2.898 2.898" stroke-miterlimit="10" stroke-width="3"/><line x1="282.51" y1="313.12" x2="283.951" y2="313.12" fill="none" stroke="#1670b9" stroke-miterlimit="10" stroke-width="3"/><polyline points="148.05 112.581 217.177 112.581 217.177 221.399 283.561 221.399" fill="none" stroke="#fff" stroke-miterlimit="10" stroke-width="7"/><polyline points="148.05 112.581 217.177 112.581 217.177 221.399 283.561 221.399" fill="none" stroke="#1670b9" stroke-miterlimit="10" stroke-width="3"/><line x1="148.287" y1="131.872" x2="283.951" y2="131.872" fill="none" stroke="#fff" stroke-miterlimit="10" stroke-width="7"/><line x1="148.287" y1="131.872" x2="149.728" y2="131.872" fill="none" stroke="#1670b9" stroke-miterlimit="10" stroke-width="3"/><line x1="152.553" y1="131.872" x2="281.097" y2="131.872" fill="none" stroke="#1670b9" stroke-dasharray="2.825 2.825" stroke-miterlimit="10" stroke-width="3"/><line x1="282.51" y1="131.872" x2="283.951" y2="131.872" fill="none" stroke="#1670b9" stroke-miterlimit="10" stroke-width="3"/><rect x="3.428" y="20.57" width="144" height="130.22" fill="#fff" stroke="#231f20" stroke-miterlimit="10" stroke-width="1.593"/><rect x="105.656" y="30.104" width="41.771" height="19.788" fill="#fff" stroke="#231f20" stroke-miterlimit="10" stroke-width="1.855"/><rect x="88.248" y="30.104" width="18.114" height="39.434" fill="#fff" stroke="#231f20" stroke-miterlimit="10" stroke-width="1.855"/><rect x="106.582" y="49.892" width="40.845" height="19.788" fill="#fff" stroke="#231f20" stroke-miterlimit="10" stroke-width="1.855"/><path d="M27.151,87.413l1.231.311c-.258,1.011-.723,1.783-1.394,2.314-.67.531-1.49.796-2.459.796-1.003,0-1.819-.204-2.447-.613-.629-.408-1.107-1-1.435-1.774-.328-.774-.492-1.606-.492-2.495,0-.969.185-1.814.556-2.536.37-.721.897-1.27,1.58-1.644.684-.375,1.436-.562,2.257-.562.931,0,1.714.237,2.349.711s1.077,1.141,1.327,2l-1.212.286c-.216-.677-.529-1.17-.939-1.479s-.927-.463-1.549-.463c-.715,0-1.313.171-1.793.514-.48.343-.818.803-1.013,1.381-.195.577-.292,1.173-.292,1.787,0,.792.115,1.482.346,2.073.231.59.589,1.031,1.076,1.323s1.014.438,1.581.438c.69,0,1.274-.199,1.752-.597s.802-.988.971-1.771Z" fill="#231f20"/><path d="M29.328,87.305c0-1.249.347-2.173,1.041-2.774.58-.5,1.287-.749,2.12-.749.927,0,1.684.304,2.272.911.588.607.882,1.446.882,2.517,0,.868-.13,1.55-.39,2.047-.261.498-.639.884-1.137,1.159-.497.275-1.04.413-1.628.413-.944,0-1.707-.303-2.288-.908-.582-.605-.873-1.477-.873-2.615ZM30.502,87.305c0,.863.188,1.51.565,1.939.376.43.851.645,1.422.645.567,0,1.039-.216,1.416-.647s.565-1.09.565-1.974c0-.833-.189-1.465-.568-1.895-.378-.429-.849-.644-1.412-.644-.571,0-1.045.214-1.422.641s-.565,1.073-.565,1.936Z" fill="#231f20"/><path d="M36.983,90.676v-6.741h1.028v.958c.495-.741,1.21-1.111,2.146-1.111.406,0,.78.073,1.121.219.34.146.595.338.765.575s.288.519.355.844c.042.211.063.582.063,1.111v4.145h-1.143v-4.101c0-.465-.044-.813-.133-1.044-.089-.231-.247-.415-.473-.553-.226-.137-.492-.206-.796-.206-.487,0-.907.154-1.26.463-.353.309-.53.895-.53,1.758v3.682h-1.143Z" fill="#231f20"/><path d="M46.708,89.654l.165,1.009c-.322.068-.609.102-.863.102-.415,0-.736-.065-.965-.197s-.389-.304-.482-.517c-.093-.214-.14-.664-.14-1.349v-3.878h-.838v-.889h.838v-1.669l1.136-.686v2.355h1.149v.889h-1.149v3.942c0,.326.02.535.06.628.041.093.106.167.197.222.091.055.221.083.39.083.127,0,.294-.015.501-.044Z" fill="#231f20"/><path d="M47.812,90.676v-6.741h1.028v1.022c.262-.478.504-.793.727-.946.222-.152.466-.229.733-.229.385,0,.776.123,1.174.368l-.394,1.06c-.279-.165-.559-.248-.838-.248-.25,0-.474.075-.673.226-.199.15-.341.358-.425.625-.127.406-.19.851-.19,1.333v3.529h-1.143Z" fill="#231f20"/><path d="M51.729,87.305c0-1.249.347-2.173,1.041-2.774.58-.5,1.287-.749,2.12-.749.927,0,1.684.304,2.272.911.588.607.882,1.446.882,2.517,0,.868-.13,1.55-.39,2.047-.261.498-.639.884-1.137,1.159-.497.275-1.04.413-1.628.413-.944,0-1.707-.303-2.288-.908-.582-.605-.873-1.477-.873-2.615ZM52.903,87.305c0,.863.188,1.51.565,1.939.376.43.851.645,1.422.645.567,0,1.039-.216,1.416-.647s.565-1.09.565-1.974c0-.833-.189-1.465-.568-1.895-.378-.429-.849-.644-1.412-.644-.571,0-1.045.214-1.422.641s-.565,1.073-.565,1.936Z" fill="#231f20"/><path d="M59.359,90.676v-9.306h1.143v9.306h-1.143Z" fill="#231f20"/><path d="M62.247,90.676v-9.306h1.143v9.306h-1.143Z" fill="#231f20"/><path d="M69.775,88.505l1.181.146c-.186.69-.531,1.225-1.035,1.606s-1.147.571-1.93.571c-.986,0-1.768-.304-2.345-.911-.578-.607-.867-1.458-.867-2.555,0-1.134.292-2.014.876-2.641s1.341-.939,2.272-.939c.901,0,1.638.307,2.209.92s.857,1.477.857,2.59c0,.068-.002.169-.006.305h-5.027c.042.741.252,1.308.628,1.701s.846.59,1.409.59c.419,0,.776-.11,1.073-.33s.531-.571.705-1.054ZM66.024,86.658h3.764c-.051-.567-.195-.992-.432-1.276-.364-.44-.836-.66-1.416-.66-.525,0-.966.176-1.324.527-.357.351-.555.821-.593,1.409Z" fill="#231f20"/><path d="M72.378,90.676v-6.741h1.028v1.022c.262-.478.504-.793.727-.946.222-.152.466-.229.733-.229.385,0,.776.123,1.174.368l-.394,1.06c-.279-.165-.559-.248-.838-.248-.25,0-.474.075-.673.226-.199.15-.341.358-.425.625-.127.406-.19.851-.19,1.333v3.529h-1.143Z" fill="#231f20"/><path d="M78.738,90.676l3.574-9.306h1.327l3.809,9.306h-1.403l-1.085-2.818h-3.891l-1.022,2.818h-1.308ZM81.423,86.854h3.155l-.971-2.577c-.296-.783-.516-1.426-.66-1.93-.119.597-.286,1.189-.501,1.777l-1.022,2.729Z" fill="#231f20"/><rect x="3.428" y="191.173" width="144" height="130.22" fill="#fff" stroke="#231f20" stroke-miterlimit="10" stroke-width="1.593"/><path d="M98.582,61.214l-.078-.804c.358-.038.652-.126.881-.266.229-.139.415-.355.557-.648s.212-.623.212-.989c0-.325-.054-.612-.161-.861s-.255-.434-.442-.556-.392-.183-.613-.183c-.225,0-.421.059-.588.176s-.309.311-.422.58c-.075.173-.191.555-.349,1.147s-.307,1.006-.447,1.244c-.179.308-.401.537-.667.688-.265.151-.562.227-.891.227-.361,0-.699-.092-1.013-.277s-.553-.454-.715-.809-.244-.749-.244-1.182c0-.478.085-.898.256-1.264.171-.364.422-.645.754-.841s.708-.302,1.128-.316l.068.817c-.453.044-.794.193-1.025.446-.231.254-.347.628-.347,1.123,0,.516.105.892.315,1.127.21.236.463.354.759.354.257,0,.469-.083.635-.25.166-.164.336-.592.51-1.285s.326-1.168.457-1.426c.192-.375.436-.652.73-.831s.634-.268,1.018-.268c.381,0,.74.098,1.077.294s.599.479.786.846c.187.368.281.782.281,1.242,0,.583-.094,1.072-.283,1.465-.189.395-.473.703-.852.928-.379.224-.808.342-1.287.354Z" fill="#231f20"/><path d="M100.882,55.04h-7.158v-.791h7.158v.791Z" fill="#231f20"/><path d="M98.289,53.317c-.96,0-1.671-.24-2.134-.721-.384-.401-.576-.891-.576-1.468,0-.642.233-1.166.701-1.573s1.112-.611,1.936-.611c.667,0,1.192.09,1.575.27.382.181.68.443.891.787s.317.72.317,1.127c0,.653-.233,1.182-.698,1.584-.465.403-1.136.604-2.012.604ZM98.289,52.504c.664,0,1.161-.13,1.492-.391s.496-.589.496-.984c0-.393-.166-.719-.498-.98s-.838-.391-1.519-.391c-.641,0-1.127.131-1.458.394s-.496.588-.496.978c0,.396.165.724.493.984s.825.391,1.489.391Z" fill="#231f20"/><path d="M100.096,46.291l.776-.114c.052.223.078.422.078.598,0,.287-.05.51-.151.668s-.233.27-.398.334-.51.097-1.038.097h-2.983v.58h-.684v-.58h-1.284l-.527-.787h1.812v-.795h.684v.795h3.032c.25,0,.412-.014.483-.042s.128-.073.171-.137c.042-.062.063-.153.063-.27,0-.088-.011-.204-.034-.347Z" fill="#231f20"/><path d="M98.992,43.232l-.117-.791c.498-.091.857-.245,1.077-.464.22-.218.33-.484.33-.797,0-.372-.143-.686-.43-.943-.287-.256-.641-.384-1.064-.384-.404,0-.736.119-.999.356s-.393.539-.393.905c0,.149.033.335.098.558l-.771-.088c.006-.053.01-.095.01-.127,0-.337-.098-.64-.293-.91s-.497-.404-.903-.404c-.322,0-.589.098-.801.294s-.317.45-.317.76c0,.308.107.564.322.769s.537.337.967.396l-.156.791c-.589-.097-1.046-.316-1.37-.659s-.486-.769-.486-1.279c0-.352.084-.675.251-.971s.396-.522.686-.679.597-.235.923-.235c.309,0,.591.075.845.224s.456.371.605.664c.098-.381.3-.677.608-.888s.692-.316,1.155-.316c.625,0,1.155.205,1.589.615s.652.929.652,1.556c0,.565-.187,1.035-.562,1.408-.375.374-.859.587-1.455.64Z" fill="#231f20"/><path d="M26.792,259.007l1.231.312c-.258,1.011-.723,1.782-1.394,2.313-.67.531-1.49.796-2.459.796-1.003,0-1.819-.204-2.447-.612-.629-.408-1.107-.999-1.435-1.774-.328-.773-.492-1.605-.492-2.494,0-.969.185-1.814.556-2.536.37-.722.897-1.27,1.58-1.644.684-.375,1.436-.562,2.257-.562.931,0,1.714.237,2.349.711.635.475,1.077,1.141,1.327,2l-1.212.285c-.216-.677-.529-1.17-.939-1.479s-.927-.463-1.549-.463c-.715,0-1.313.171-1.793.514-.48.343-.818.803-1.013,1.381-.195.577-.292,1.173-.292,1.787,0,.791.115,1.481.346,2.072.231.59.589,1.031,1.076,1.323s1.014.438,1.581.438c.69,0,1.274-.199,1.752-.598.478-.397.802-.987.971-1.771Z" fill="#231f20"/><path d="M28.969,258.899c0-1.248.347-2.173,1.041-2.773.58-.499,1.287-.749,2.12-.749.927,0,1.684.304,2.272.911s.882,1.446.882,2.517c0,.867-.13,1.55-.39,2.047-.261.497-.639.884-1.137,1.159-.497.274-1.04.412-1.628.412-.944,0-1.707-.303-2.288-.908-.582-.604-.873-1.477-.873-2.615ZM30.144,258.899c0,.863.188,1.51.565,1.939s.851.645,1.422.645c.567,0,1.039-.216,1.416-.647s.565-1.09.565-1.974c0-.834-.189-1.466-.568-1.896-.378-.43-.849-.644-1.412-.644-.571,0-1.045.213-1.422.641s-.565,1.072-.565,1.936Z" fill="#231f20"/><path d="M36.625,262.27v-6.741h1.028v.958c.495-.74,1.21-1.11,2.146-1.11.406,0,.78.073,1.121.219.34.146.595.338.765.575.169.236.288.518.355.844.042.212.063.582.063,1.111v4.145h-1.143v-4.101c0-.466-.044-.813-.133-1.044s-.247-.415-.473-.553c-.226-.138-.492-.206-.796-.206-.487,0-.907.154-1.26.464-.353.309-.53.895-.53,1.758v3.682h-1.143Z" fill="#231f20"/><path d="M46.349,261.249l.165,1.009c-.322.067-.609.102-.863.102-.415,0-.736-.065-.965-.196-.229-.132-.389-.304-.482-.518s-.14-.664-.14-1.35v-3.878h-.838v-.889h.838v-1.669l1.136-.686v2.354h1.149v.889h-1.149v3.942c0,.325.02.535.06.628.041.093.106.167.197.222.091.056.221.083.39.083.127,0,.294-.015.501-.044Z" fill="#231f20"/><path d="M47.454,262.27v-6.741h1.028v1.022c.262-.479.504-.794.727-.946.222-.152.466-.229.733-.229.385,0,.776.123,1.174.368l-.394,1.061c-.279-.166-.559-.248-.838-.248-.25,0-.474.075-.673.226s-.341.358-.425.625c-.127.406-.19.851-.19,1.333v3.529h-1.143Z" fill="#231f20"/><path d="M51.37,258.899c0-1.248.347-2.173,1.041-2.773.58-.499,1.287-.749,2.12-.749.927,0,1.684.304,2.272.911s.882,1.446.882,2.517c0,.867-.13,1.55-.39,2.047-.261.497-.639.884-1.137,1.159-.497.274-1.04.412-1.628.412-.944,0-1.707-.303-2.288-.908-.582-.604-.873-1.477-.873-2.615ZM52.544,258.899c0,.863.188,1.51.565,1.939s.851.645,1.422.645c.567,0,1.039-.216,1.416-.647s.565-1.09.565-1.974c0-.834-.189-1.466-.568-1.896-.378-.43-.849-.644-1.412-.644-.571,0-1.045.213-1.422.641s-.565,1.072-.565,1.936Z" fill="#231f20"/><path d="M59,262.27v-9.306h1.143v9.306h-1.143Z" fill="#231f20"/><path d="M61.888,262.27v-9.306h1.143v9.306h-1.143Z" fill="#231f20"/><path d="M69.417,260.099l1.181.146c-.186.69-.531,1.226-1.035,1.606s-1.147.571-1.93.571c-.986,0-1.768-.304-2.345-.911-.578-.607-.867-1.459-.867-2.555,0-1.134.292-2.015.876-2.641s1.341-.939,2.272-.939c.901,0,1.638.307,2.209.921.571.613.857,1.477.857,2.59,0,.067-.002.169-.006.305h-5.027c.042.74.252,1.307.628,1.701.376.393.846.59,1.409.59.419,0,.776-.11,1.073-.33s.531-.571.705-1.054ZM65.665,258.252h3.764c-.051-.567-.195-.993-.432-1.276-.364-.44-.836-.66-1.416-.66-.525,0-.966.176-1.324.526-.357.352-.555.821-.593,1.41Z" fill="#231f20"/><path d="M72.019,262.27v-6.741h1.028v1.022c.262-.479.504-.794.727-.946.222-.152.466-.229.733-.229.385,0,.776.123,1.174.368l-.394,1.061c-.279-.166-.559-.248-.838-.248-.25,0-.474.075-.673.226s-.341.358-.425.625c-.127.406-.19.851-.19,1.333v3.529h-1.143Z" fill="#231f20"/><path d="M80.068,262.27v-9.306h3.491c.711,0,1.281.094,1.711.282.429.188.766.479,1.009.87.244.392.365.801.365,1.228,0,.398-.108.772-.324,1.124s-.542.635-.978.851c.563.165.996.446,1.298.844.302.398.454.868.454,1.41,0,.436-.092.841-.276,1.215-.185.375-.412.664-.683.867s-.61.356-1.019.46c-.409.104-.909.155-1.501.155h-3.548ZM81.299,256.874h2.012c.546,0,.938-.036,1.174-.108.313-.093.549-.247.708-.463.158-.216.238-.486.238-.812,0-.309-.074-.581-.222-.815-.148-.235-.36-.396-.635-.482s-.747-.13-1.416-.13h-1.86v2.812ZM81.299,261.172h2.317c.398,0,.677-.016.838-.045.284-.051.521-.136.711-.254s.347-.291.47-.518.184-.487.184-.783c0-.348-.089-.649-.267-.905s-.424-.436-.739-.539c-.315-.104-.77-.155-1.362-.155h-2.152v3.199Z" fill="#231f20"/><path d="M337.634,9.675l1.162-.102c.055.465.183.847.384,1.146.201.298.513.539.937.724.423.184.898.276,1.428.276.47,0,.885-.07,1.244-.209s.627-.331.803-.574c.176-.244.264-.509.264-.797,0-.292-.085-.547-.254-.765-.169-.218-.448-.401-.838-.549-.25-.097-.802-.249-1.656-.454-.855-.206-1.454-.399-1.797-.581-.444-.233-.775-.521-.993-.866-.218-.345-.327-.731-.327-1.159,0-.47.133-.909.4-1.317.266-.409.655-.719,1.168-.93.512-.211,1.081-.317,1.707-.317.689,0,1.298.111,1.825.333.526.222.932.549,1.216.98.283.432.436.92.457,1.466l-1.182.089c-.062-.588-.277-1.033-.644-1.333s-.907-.451-1.622-.451c-.745,0-1.287.137-1.628.409-.341.273-.511.602-.511.987,0,.334.12.609.361.825.237.216.855.437,1.856.663,1.001.227,1.688.424,2.06.594.542.25.942.566,1.2.949.258.383.388.824.388,1.323,0,.495-.143.962-.426,1.399-.283.438-.69.779-1.222,1.022-.531.243-1.129.365-1.794.365-.842,0-1.547-.123-2.116-.368s-1.016-.615-1.34-1.108c-.323-.493-.494-1.05-.511-1.672Z" fill="#231f20"/><path d="M346.578,12.665V3.359h1.143v3.339c.533-.618,1.205-.927,2.018-.927.5,0,.934.099,1.302.295.368.197.632.469.79.816.159.347.238.851.238,1.511v4.272h-1.143v-4.272c0-.571-.124-.987-.371-1.248-.248-.26-.598-.39-1.051-.39-.339,0-.657.088-.955.263-.299.176-.512.414-.639.714s-.189.715-.189,1.244v3.688h-1.143Z" fill="#231f20"/><path d="M358.422,10.494l1.181.146c-.187.69-.531,1.225-1.035,1.606-.503.381-1.146.571-1.93.571-.985,0-1.768-.304-2.345-.911-.578-.607-.866-1.458-.866-2.555,0-1.134.291-2.014.875-2.641s1.342-.939,2.273-.939c.9,0,1.637.307,2.209.92.57.614.856,1.477.856,2.59,0,.068-.002.169-.007.305h-5.027c.043.741.252,1.308.629,1.701s.847.59,1.409.59c.419,0,.776-.11,1.073-.33.296-.22.53-.571.704-1.054ZM354.671,8.646h3.764c-.051-.567-.194-.992-.432-1.276-.364-.44-.836-.66-1.416-.66-.524,0-.966.176-1.323.527s-.556.821-.593,1.409Z" fill="#231f20"/><path d="M361.013,12.665V3.359h1.143v9.306h-1.143Z" fill="#231f20"/><path d="M364.199,12.665v-5.853h-1.009v-.889h1.009v-.717c0-.453.04-.789.12-1.009.11-.296.304-.536.581-.721.277-.184.666-.276,1.165-.276.321,0,.677.038,1.066.114l-.172.997c-.236-.042-.461-.063-.672-.063-.348,0-.593.074-.736.222-.145.148-.217.425-.217.832v.622h1.314v.889h-1.314v5.853h-1.136Z" fill="#231f20"/><path d="M375.136,12.665h-1.143v-7.281c-.275.262-.637.525-1.083.787s-.847.459-1.202.59v-1.104c.639-.3,1.197-.665,1.676-1.092.478-.427.816-.842,1.016-1.244h.736v9.344Z" fill="#231f20"/><path d="M351.604,57.193v-9.306h1.264l4.887,7.306v-7.306h1.182v9.306h-1.264l-4.888-7.312v7.312h-1.181Z" fill="#231f20"/><path d="M360.585,54.203l1.162-.102c.055.465.183.847.384,1.146.201.298.513.539.937.724.423.184.898.276,1.428.276.47,0,.885-.07,1.244-.209s.627-.331.803-.574c.176-.244.264-.509.264-.797,0-.292-.085-.547-.254-.765-.169-.218-.448-.401-.838-.549-.25-.097-.802-.249-1.656-.454-.855-.206-1.454-.399-1.797-.581-.444-.233-.775-.521-.993-.866-.218-.345-.327-.731-.327-1.159,0-.47.133-.909.4-1.317.266-.409.655-.719,1.168-.93.512-.211,1.081-.317,1.707-.317.689,0,1.298.111,1.825.333.526.222.932.549,1.216.98.283.432.436.92.457,1.466l-1.182.089c-.062-.588-.277-1.033-.644-1.333s-.907-.451-1.622-.451c-.745,0-1.287.137-1.628.409-.341.273-.511.602-.511.987,0,.334.12.609.361.825.237.216.855.437,1.856.663,1.001.227,1.688.424,2.06.594.542.25.942.566,1.2.949.258.383.388.824.388,1.323,0,.495-.143.962-.426,1.399-.283.438-.69.779-1.222,1.022-.531.243-1.129.365-1.794.365-.842,0-1.547-.123-2.116-.368s-1.016-.615-1.34-1.108c-.323-.493-.494-1.05-.511-1.672Z" fill="#231f20"/><path d="M369.638,57.193v-9.306h1.854l2.203,6.589c.203.614.351,1.073.443,1.377.106-.338.271-.836.496-1.492l2.228-6.475h1.657v9.306h-1.188v-7.789l-2.704,7.789h-1.11l-2.691-7.922v7.922h-1.188Z" fill="#231f20"/><path d="M382.376,57.193l3.574-9.306h1.326l3.809,9.306h-1.402l-1.086-2.818h-3.891l-1.021,2.818h-1.309ZM385.062,53.372h3.154l-.971-2.577c-.296-.783-.517-1.426-.66-1.93-.118.597-.285,1.189-.502,1.777l-1.021,2.729Z" fill="#231f20"/><rect x="284.372" y="20.57" width="144" height="130.22" fill="#fff" stroke="#231f20" stroke-miterlimit="10" stroke-width="1.593"/><rect x="284.373" y="32.181" width="41.771" height="15.285" fill="#fff" stroke="#231f20" stroke-miterlimit="10" stroke-width="1.631"/><path d="M299.862,42.281l1.181.146c-.187.69-.531,1.225-1.035,1.606-.503.381-1.146.571-1.93.571-.985,0-1.768-.304-2.345-.911-.578-.607-.866-1.458-.866-2.555,0-1.134.291-2.014.875-2.641s1.342-.939,2.273-.939c.9,0,1.637.307,2.209.92.57.614.856,1.477.856,2.59,0,.068-.002.169-.007.305h-5.027c.043.741.252,1.308.629,1.701s.847.59,1.409.59c.419,0,.776-.11,1.073-.33.296-.22.53-.571.704-1.054ZM296.111,40.434h3.764c-.051-.567-.194-.992-.432-1.276-.364-.44-.836-.66-1.416-.66-.524,0-.966.176-1.323.527s-.556.821-.593,1.409Z" fill="#231f20"/><path d="M301.677,44.452l3.6-4.85-3.174-4.456h1.467l1.688,2.387c.352.495.602.876.75,1.143.207-.338.452-.692.736-1.06l1.872-2.469h1.339l-3.269,4.386,3.522,4.919h-1.523l-2.342-3.32c-.131-.19-.267-.398-.406-.622-.207.338-.355.571-.444.698l-2.336,3.244h-1.479Z" fill="#231f20"/><path d="M315.548,43.62c-.423.36-.83.614-1.222.762s-.812.222-1.261.222c-.74,0-1.31-.181-1.707-.543-.397-.361-.597-.824-.597-1.387,0-.33.075-.632.226-.904.15-.273.347-.492.59-.657s.518-.29.822-.375c.225-.059.562-.116,1.016-.171.923-.11,1.602-.241,2.037-.394.005-.157.007-.256.007-.298,0-.465-.108-.793-.323-.984-.293-.258-.727-.387-1.302-.387-.537,0-.935.094-1.19.283-.256.188-.445.521-.568,1l-1.117-.152c.102-.478.27-.864.502-1.159.232-.294.569-.521,1.01-.679.439-.159.949-.238,1.529-.238.575,0,1.043.068,1.402.203.36.135.625.306.794.511.169.206.288.465.355.778.038.195.058.546.058,1.054v1.523c0,1.062.023,1.734.072,2.015.049.282.146.551.289.81h-1.193c-.118-.237-.194-.514-.229-.832ZM315.452,41.068c-.414.169-1.036.313-1.865.432-.471.068-.803.144-.997.229s-.345.208-.45.372c-.106.163-.159.344-.159.542,0,.305.115.559.346.762s.568.305,1.013.305c.44,0,.832-.096,1.174-.289.344-.193.595-.456.756-.791.123-.258.184-.639.184-1.143v-.419Z" fill="#231f20"/><rect x="284.373" y="59.763" width="41.771" height="15.285" fill="#fff" stroke="#231f20" stroke-miterlimit="10" stroke-width="1.631"/><path d="M299.862,69.862l1.181.146c-.187.69-.531,1.225-1.035,1.606-.503.381-1.146.571-1.93.571-.985,0-1.768-.304-2.345-.911-.578-.607-.866-1.458-.866-2.555,0-1.134.291-2.014.875-2.641s1.342-.939,2.273-.939c.9,0,1.637.307,2.209.92.57.614.856,1.477.856,2.59,0,.068-.002.169-.007.305h-5.027c.043.741.252,1.308.629,1.701s.847.59,1.409.59c.419,0,.776-.11,1.073-.33.296-.22.53-.571.704-1.054ZM296.111,68.015h3.764c-.051-.567-.194-.992-.432-1.276-.364-.44-.836-.66-1.416-.66-.524,0-.966.176-1.323.527s-.556.821-.593,1.409Z" fill="#231f20"/><path d="M301.677,72.033l3.6-4.85-3.174-4.456h1.467l1.688,2.387c.352.495.602.876.75,1.143.207-.338.452-.692.736-1.06l1.872-2.469h1.339l-3.269,4.386,3.522,4.919h-1.523l-2.342-3.32c-.131-.19-.267-.398-.406-.622-.207.338-.355.571-.444.698l-2.336,3.244h-1.479Z" fill="#231f20"/><path d="M312.202,72.033h-1.06v-9.306h1.143v3.32c.482-.605,1.099-.908,1.847-.908.415,0,.808.083,1.178.251.37.167.675.402.914.704.239.303.427.668.562,1.095.135.427.203.884.203,1.371,0,1.155-.286,2.048-.857,2.679s-1.257.946-2.057.946-1.42-.332-1.873-.997v.844ZM312.19,68.612c0,.808.109,1.392.33,1.752.359.588.846.882,1.459.882.5,0,.932-.217,1.295-.65.364-.434.547-1.081.547-1.939,0-.88-.175-1.53-.524-1.949-.349-.419-.771-.628-1.267-.628-.499,0-.931.217-1.295.65-.363.434-.545,1.062-.545,1.882Z" fill="#231f20"/><rect x="284.373" y="96.312" width="41.771" height="15.285" fill="#fff" stroke="#231f20" stroke-miterlimit="10" stroke-width="1.631"/><path d="M299.862,106.413l1.181.146c-.187.69-.531,1.225-1.035,1.606-.503.381-1.146.571-1.93.571-.985,0-1.768-.304-2.345-.911-.578-.607-.866-1.458-.866-2.555,0-1.134.291-2.014.875-2.641s1.342-.939,2.273-.939c.9,0,1.637.307,2.209.92.57.614.856,1.477.856,2.59,0,.068-.002.169-.007.305h-5.027c.043.741.252,1.308.629,1.701s.847.59,1.409.59c.419,0,.776-.11,1.073-.33.296-.22.53-.571.704-1.054ZM296.111,104.566h3.764c-.051-.567-.194-.992-.432-1.276-.364-.44-.836-.66-1.416-.66-.524,0-.966.176-1.323.527s-.556.821-.593,1.409Z" fill="#231f20"/><path d="M301.677,108.584l3.6-4.85-3.174-4.456h1.467l1.688,2.387c.352.495.602.876.75,1.143.207-.338.452-.692.736-1.06l1.872-2.469h1.339l-3.269,4.386,3.522,4.919h-1.523l-2.342-3.32c-.131-.19-.267-.398-.406-.622-.207.338-.355.571-.444.698l-2.336,3.244h-1.479Z" fill="#231f20"/><path d="M315.548,107.752c-.423.36-.83.614-1.222.762s-.812.222-1.261.222c-.74,0-1.31-.181-1.707-.543-.397-.361-.597-.824-.597-1.387,0-.33.075-.632.226-.904.15-.273.347-.492.59-.657s.518-.29.822-.375c.225-.059.562-.116,1.016-.171.923-.11,1.602-.241,2.037-.394.005-.157.007-.256.007-.298,0-.465-.108-.793-.323-.984-.293-.258-.727-.387-1.302-.387-.537,0-.935.094-1.19.283-.256.188-.445.521-.568,1l-1.117-.152c.102-.478.27-.864.502-1.159.232-.294.569-.521,1.01-.679.439-.159.949-.238,1.529-.238.575,0,1.043.068,1.402.203.36.135.625.306.794.511.169.206.288.465.355.778.038.195.058.546.058,1.054v1.523c0,1.062.023,1.734.072,2.015.049.282.146.551.289.81h-1.193c-.118-.237-.194-.514-.229-.832ZM315.452,105.201c-.414.169-1.036.313-1.865.432-.471.068-.803.144-.997.229s-.345.208-.45.372c-.106.163-.159.344-.159.542,0,.305.115.559.346.762s.568.305,1.013.305c.44,0,.832-.096,1.174-.289.344-.193.595-.456.756-.791.123-.258.184-.639.184-1.143v-.419Z" fill="#231f20"/><rect x="284.373" y="123.894" width="41.771" height="15.285" fill="#fff" stroke="#231f20" stroke-miterlimit="10" stroke-width="1.631"/><path d="M299.862,133.993l1.181.146c-.187.69-.531,1.226-1.035,1.606-.503.381-1.146.571-1.93.571-.985,0-1.768-.304-2.345-.911-.578-.607-.866-1.459-.866-2.555,0-1.134.291-2.015.875-2.641s1.342-.939,2.273-.939c.9,0,1.637.307,2.209.921.57.613.856,1.477.856,2.59,0,.067-.002.169-.007.305h-5.027c.043.74.252,1.307.629,1.701.377.393.847.59,1.409.59.419,0,.776-.11,1.073-.33.296-.22.53-.571.704-1.054ZM296.111,132.146h3.764c-.051-.567-.194-.993-.432-1.276-.364-.44-.836-.66-1.416-.66-.524,0-.966.176-1.323.526-.357.352-.556.821-.593,1.41Z" fill="#231f20"/><path d="M301.677,136.164l3.6-4.85-3.174-4.456h1.467l1.688,2.387c.352.495.602.876.75,1.143.207-.339.452-.692.736-1.06l1.872-2.47h1.339l-3.269,4.386,3.522,4.92h-1.523l-2.342-3.32c-.131-.189-.267-.397-.406-.621-.207.338-.355.57-.444.697l-2.336,3.244h-1.479Z" fill="#231f20"/><path d="M312.202,136.164h-1.06v-9.306h1.143v3.319c.482-.604,1.099-.907,1.847-.907.415,0,.808.084,1.178.251s.675.401.914.704.427.668.562,1.095c.135.428.203.885.203,1.371,0,1.156-.286,2.049-.857,2.68-.571.63-1.257.945-2.057.945s-1.42-.332-1.873-.996v.844ZM312.19,132.742c0,.809.109,1.393.33,1.752.359.589.846.883,1.459.883.5,0,.932-.217,1.295-.65.364-.434.547-1.08.547-1.939,0-.88-.175-1.529-.524-1.949-.349-.418-.771-.628-1.267-.628-.499,0-.931.217-1.295.65-.363.434-.545,1.062-.545,1.882Z" fill="#231f20"/><line x1="284.373" y1="85.68" x2="428.215" y2="85.68" fill="#fff" stroke="#231f20" stroke-miterlimit="10" stroke-width="1.631"/><path d="M358.167,122.489v-9.306h1.264l4.887,7.306v-7.306h1.182v9.306h-1.264l-4.888-7.312v7.312h-1.181Z" fill="#231f20"/><path d="M367.149,119.499l1.162-.102c.055.465.183.847.384,1.146.201.298.513.539.937.724.423.184.898.276,1.428.276.47,0,.885-.07,1.244-.21s.627-.331.803-.574c.176-.244.264-.509.264-.797,0-.292-.085-.547-.254-.765-.169-.218-.448-.401-.838-.549-.25-.097-.802-.249-1.656-.454-.855-.206-1.454-.399-1.797-.581-.444-.233-.775-.521-.993-.866-.218-.345-.327-.731-.327-1.159,0-.47.133-.909.4-1.317.266-.409.655-.719,1.168-.93.512-.211,1.081-.317,1.707-.317.689,0,1.298.111,1.825.333.526.222.932.549,1.216.98.283.432.436.92.457,1.466l-1.182.089c-.062-.588-.277-1.033-.644-1.333s-.907-.451-1.622-.451c-.745,0-1.287.137-1.628.409-.341.273-.511.602-.511.987,0,.334.12.609.361.825.237.216.855.437,1.856.663,1.001.227,1.688.424,2.06.594.542.25.942.566,1.2.949.258.383.388.824.388,1.323,0,.495-.143.962-.426,1.399-.283.438-.69.779-1.222,1.022s-1.129.364-1.794.364c-.842,0-1.547-.122-2.116-.367-.569-.246-1.016-.615-1.34-1.108-.323-.493-.494-1.05-.511-1.672Z" fill="#231f20"/><path d="M376.2,122.489v-9.306h1.854l2.203,6.589c.203.614.351,1.072.443,1.377.106-.338.271-.835.496-1.491l2.228-6.475h1.657v9.306h-1.188v-7.789l-2.704,7.789h-1.11l-2.691-7.922v7.922h-1.188Z" fill="#231f20"/><path d="M390.629,122.489v-9.306h3.491c.711,0,1.281.094,1.711.282.43.188.766.479,1.009.87.243.391.365.801.365,1.228,0,.398-.108.772-.323,1.124-.217.351-.542.635-.979.851.563.165.996.446,1.299.844s.453.868.453,1.409c0,.436-.092.841-.275,1.215-.185.375-.412.664-.683.867s-.61.356-1.019.46-.909.155-1.502.155h-3.548ZM391.86,117.094h2.012c.547,0,.938-.036,1.175-.108.313-.093.549-.248.708-.463.158-.216.238-.487.238-.812,0-.309-.074-.581-.223-.815-.148-.235-.359-.396-.635-.482-.275-.087-.747-.13-1.416-.13h-1.859v2.812ZM391.86,121.392h2.316c.398,0,.678-.016.838-.045.284-.051.521-.135.711-.254.191-.119.348-.291.471-.518.122-.226.184-.487.184-.784,0-.347-.089-.648-.267-.905-.178-.256-.424-.436-.739-.539-.315-.104-.77-.156-1.361-.156h-2.152v3.2Z" fill="#231f20"/><path d="M358.525,57.32v-9.306h1.264l4.887,7.306v-7.306h1.182v9.306h-1.264l-4.888-7.312v7.312h-1.181Z" fill="#231f20"/><path d="M367.507,54.331l1.162-.102c.055.465.183.847.384,1.146.201.298.513.539.937.724.423.184.898.276,1.428.276.47,0,.885-.07,1.244-.21s.627-.331.803-.574c.176-.244.264-.509.264-.797,0-.292-.085-.547-.254-.765-.169-.218-.448-.401-.838-.549-.25-.097-.802-.249-1.656-.454-.855-.206-1.454-.399-1.797-.581-.444-.233-.775-.521-.993-.866-.218-.345-.327-.731-.327-1.159,0-.47.133-.909.4-1.317.266-.409.655-.719,1.168-.93.512-.211,1.081-.317,1.707-.317.689,0,1.298.111,1.825.333.526.222.932.549,1.216.98.283.432.436.92.457,1.466l-1.182.089c-.062-.588-.277-1.033-.644-1.333s-.907-.451-1.622-.451c-.745,0-1.287.137-1.628.409-.341.273-.511.602-.511.987,0,.334.12.609.361.825.237.216.855.437,1.856.663,1.001.227,1.688.424,2.06.594.542.25.942.566,1.2.949.258.383.388.824.388,1.323,0,.495-.143.962-.426,1.399-.283.438-.69.779-1.222,1.022s-1.129.364-1.794.364c-.842,0-1.547-.122-2.116-.367-.569-.246-1.016-.615-1.34-1.108-.323-.493-.494-1.05-.511-1.672Z" fill="#231f20"/><path d="M376.56,57.32v-9.306h1.854l2.203,6.589c.203.614.351,1.072.443,1.377.106-.338.271-.835.496-1.491l2.228-6.475h1.657v9.306h-1.188v-7.789l-2.704,7.789h-1.11l-2.691-7.922v7.922h-1.188Z" fill="#231f20"/><path d="M389.298,57.32l3.574-9.306h1.326l3.809,9.306h-1.402l-1.086-2.818h-3.891l-1.021,2.818h-1.309ZM391.983,53.499h3.154l-.971-2.577c-.296-.783-.517-1.426-.66-1.93-.118.597-.285,1.189-.502,1.777l-1.021,2.729Z" fill="#231f20"/><path d="M337.634,180.103l1.162-.102c.055.466.183.848.384,1.146.201.298.513.539.937.724.423.184.898.275,1.428.275.47,0,.885-.069,1.244-.209s.627-.331.803-.574c.176-.244.264-.51.264-.797,0-.292-.085-.547-.254-.765-.169-.219-.448-.401-.838-.55-.25-.097-.802-.248-1.656-.453-.855-.206-1.454-.399-1.797-.581-.444-.233-.775-.521-.993-.866-.218-.346-.327-.731-.327-1.159,0-.47.133-.908.4-1.316.266-.409.655-.719,1.168-.931.512-.211,1.081-.317,1.707-.317.689,0,1.298.111,1.825.334.526.222.932.549,1.216.98.283.432.436.92.457,1.466l-1.182.089c-.062-.588-.277-1.032-.644-1.333-.366-.3-.907-.45-1.622-.45-.745,0-1.287.137-1.628.409-.341.273-.511.602-.511.987,0,.334.12.609.361.825.237.216.855.437,1.856.663s1.688.424,2.06.594c.542.249.942.565,1.2.949.258.383.388.823.388,1.323,0,.495-.143.962-.426,1.399-.283.438-.69.778-1.222,1.022-.531.243-1.129.364-1.794.364-.842,0-1.547-.122-2.116-.368-.569-.245-1.016-.614-1.34-1.107-.323-.493-.494-1.051-.511-1.673Z" fill="#231f20"/><path d="M346.578,183.093v-9.306h1.143v3.339c.533-.618,1.205-.927,2.018-.927.5,0,.934.099,1.302.295.368.197.632.469.79.815.159.348.238.851.238,1.511v4.272h-1.143v-4.272c0-.571-.124-.986-.371-1.247-.248-.26-.598-.391-1.051-.391-.339,0-.657.088-.955.264-.299.176-.512.414-.639.714-.127.301-.189.716-.189,1.244v3.688h-1.143Z" fill="#231f20"/><path d="M358.422,180.922l1.181.146c-.187.69-.531,1.226-1.035,1.606-.503.381-1.146.571-1.93.571-.985,0-1.768-.304-2.345-.911-.578-.607-.866-1.459-.866-2.555,0-1.135.291-2.015.875-2.641.584-.627,1.342-.939,2.273-.939.9,0,1.637.307,2.209.92.57.614.856,1.478.856,2.59,0,.068-.002.17-.007.305h-5.027c.043.741.252,1.308.629,1.701s.847.591,1.409.591c.419,0,.776-.11,1.073-.33.296-.221.53-.571.704-1.054ZM354.671,179.075h3.764c-.051-.566-.194-.992-.432-1.275-.364-.44-.836-.66-1.416-.66-.524,0-.966.176-1.323.526-.357.352-.556.821-.593,1.409Z" fill="#231f20"/><path d="M361.013,183.093v-9.306h1.143v9.306h-1.143Z" fill="#231f20"/><path d="M364.199,183.093v-5.853h-1.009v-.889h1.009v-.718c0-.452.04-.789.12-1.009.11-.297.304-.536.581-.721.277-.184.666-.276,1.165-.276.321,0,.677.038,1.066.114l-.172.997c-.236-.043-.461-.063-.672-.063-.348,0-.593.074-.736.222-.145.148-.217.426-.217.832v.622h1.314v.889h-1.314v5.853h-1.136Z" fill="#231f20"/><path d="M376.837,181.995v1.099h-6.151c-.009-.275.036-.54.134-.794.156-.419.407-.831.752-1.237s.843-.876,1.494-1.409c1.012-.83,1.695-1.486,2.051-1.971.355-.485.533-.943.533-1.375,0-.452-.162-.834-.485-1.146-.324-.311-.746-.467-1.267-.467-.55,0-.99.165-1.32.495s-.497.787-.502,1.371l-1.174-.12c.08-.876.383-1.544.908-2.003.524-.459,1.229-.688,2.113-.688.893,0,1.6.247,2.12.742s.78,1.109.78,1.841c0,.373-.076.738-.229,1.099-.152.359-.404.738-.758,1.136-.354.398-.94.944-1.762,1.638-.686.576-1.126.966-1.32,1.172-.194.205-.355.411-.482.618h4.564Z" fill="#231f20"/><path d="M351.604,227.795v-9.306h1.264l4.887,7.306v-7.306h1.182v9.306h-1.264l-4.888-7.312v7.312h-1.181Z" fill="#231f20"/><path d="M360.585,224.805l1.162-.102c.055.466.183.848.384,1.146.201.298.513.539.937.724.423.184.898.275,1.428.275.47,0,.885-.069,1.244-.209s.627-.331.803-.574c.176-.244.264-.51.264-.797,0-.292-.085-.547-.254-.765-.169-.219-.448-.401-.838-.55-.25-.097-.802-.248-1.656-.453-.855-.206-1.454-.399-1.797-.581-.444-.233-.775-.521-.993-.866-.218-.346-.327-.731-.327-1.159,0-.47.133-.908.4-1.316.266-.409.655-.719,1.168-.931.512-.211,1.081-.317,1.707-.317.689,0,1.298.111,1.825.334.526.222.932.549,1.216.98.283.432.436.92.457,1.466l-1.182.089c-.062-.588-.277-1.032-.644-1.333-.366-.3-.907-.45-1.622-.45-.745,0-1.287.137-1.628.409-.341.273-.511.602-.511.987,0,.334.12.609.361.825.237.216.855.437,1.856.663s1.688.424,2.06.594c.542.249.942.565,1.2.949.258.383.388.823.388,1.323,0,.495-.143.962-.426,1.399-.283.438-.69.778-1.222,1.022-.531.243-1.129.364-1.794.364-.842,0-1.547-.122-2.116-.368-.569-.245-1.016-.614-1.34-1.107-.323-.493-.494-1.051-.511-1.673Z" fill="#231f20"/><path d="M369.638,227.795v-9.306h1.854l2.203,6.589c.203.613.351,1.072.443,1.377.106-.338.271-.836.496-1.491l2.228-6.475h1.657v9.306h-1.188v-7.789l-2.704,7.789h-1.11l-2.691-7.922v7.922h-1.188Z" fill="#231f20"/><path d="M382.376,227.795l3.574-9.306h1.326l3.809,9.306h-1.402l-1.086-2.818h-3.891l-1.021,2.818h-1.309ZM385.062,223.974h3.154l-.971-2.577c-.296-.783-.517-1.427-.66-1.93-.118.597-.285,1.188-.502,1.777l-1.021,2.729Z" fill="#231f20"/><rect x="284.372" y="191.173" width="144" height="130.22" fill="#fff" stroke="#231f20" stroke-miterlimit="10" stroke-width="1.593"/><rect x="284.373" y="202.784" width="41.771" height="15.285" fill="#fff" stroke="#231f20" stroke-miterlimit="10" stroke-width="1.631"/><path d="M299.862,212.883l1.181.146c-.187.69-.531,1.226-1.035,1.606-.503.381-1.146.571-1.93.571-.985,0-1.768-.304-2.345-.911-.578-.607-.866-1.459-.866-2.555,0-1.135.291-2.015.875-2.641.584-.627,1.342-.939,2.273-.939.9,0,1.637.307,2.209.92.57.614.856,1.478.856,2.59,0,.068-.002.17-.007.305h-5.027c.043.741.252,1.308.629,1.701s.847.591,1.409.591c.419,0,.776-.11,1.073-.33.296-.221.53-.571.704-1.054ZM296.111,211.036h3.764c-.051-.566-.194-.992-.432-1.275-.364-.44-.836-.66-1.416-.66-.524,0-.966.176-1.323.526-.357.352-.556.821-.593,1.409Z" fill="#231f20"/><path d="M301.677,215.054l3.6-4.85-3.174-4.456h1.467l1.688,2.387c.352.495.602.876.75,1.143.207-.339.452-.692.736-1.061l1.872-2.469h1.339l-3.269,4.386,3.522,4.92h-1.523l-2.342-3.32c-.131-.19-.267-.397-.406-.622-.207.339-.355.571-.444.698l-2.336,3.244h-1.479Z" fill="#231f20"/><path d="M315.548,214.222c-.423.36-.83.614-1.222.762-.392.148-.812.223-1.261.223-.74,0-1.31-.181-1.707-.543-.397-.361-.597-.824-.597-1.387,0-.33.075-.632.226-.904.15-.273.347-.492.59-.657s.518-.29.822-.375c.225-.059.562-.116,1.016-.171.923-.11,1.602-.241,2.037-.394.005-.157.007-.256.007-.299,0-.465-.108-.793-.323-.983-.293-.259-.727-.388-1.302-.388-.537,0-.935.095-1.19.283-.256.188-.445.521-.568.999l-1.117-.152c.102-.478.27-.864.502-1.158s.569-.521,1.01-.679c.439-.159.949-.238,1.529-.238.575,0,1.043.067,1.402.203.36.135.625.306.794.511s.288.465.355.777c.038.195.058.546.058,1.054v1.523c0,1.062.023,1.734.072,2.016s.146.551.289.81h-1.193c-.118-.237-.194-.515-.229-.832ZM315.452,211.67c-.414.17-1.036.313-1.865.432-.471.068-.803.145-.997.229-.194.085-.345.209-.45.372-.106.162-.159.344-.159.542,0,.305.115.559.346.762s.568.305,1.013.305c.44,0,.832-.096,1.174-.288.344-.193.595-.456.756-.791.123-.258.184-.639.184-1.143v-.419Z" fill="#231f20"/><rect x="284.373" y="230.365" width="41.771" height="15.285" fill="#fff" stroke="#231f20" stroke-miterlimit="10" stroke-width="1.631"/><path d="M299.862,240.464l1.181.146c-.187.689-.531,1.225-1.035,1.605-.503.381-1.146.571-1.93.571-.985,0-1.768-.304-2.345-.911-.578-.606-.866-1.458-.866-2.555,0-1.134.291-2.014.875-2.641.584-.626,1.342-.939,2.273-.939.9,0,1.637.307,2.209.921.57.613.856,1.477.856,2.59,0,.067-.002.169-.007.305h-5.027c.043.74.252,1.308.629,1.701s.847.59,1.409.59c.419,0,.776-.109,1.073-.33.296-.22.53-.571.704-1.054ZM296.111,238.618h3.764c-.051-.567-.194-.992-.432-1.276-.364-.439-.836-.66-1.416-.66-.524,0-.966.176-1.323.527-.357.351-.556.82-.593,1.409Z" fill="#231f20"/><path d="M301.677,242.635l3.6-4.85-3.174-4.456h1.467l1.688,2.387c.352.495.602.876.75,1.143.207-.338.452-.691.736-1.06l1.872-2.47h1.339l-3.269,4.387,3.522,4.919h-1.523l-2.342-3.319c-.131-.19-.267-.398-.406-.622-.207.338-.355.571-.444.698l-2.336,3.243h-1.479Z" fill="#231f20"/><path d="M312.202,242.635h-1.06v-9.306h1.143v3.32c.482-.605,1.099-.908,1.847-.908.415,0,.808.084,1.178.251s.675.402.914.704c.239.303.427.668.562,1.096.135.427.203.884.203,1.371,0,1.155-.286,2.048-.857,2.679-.571.63-1.257.945-2.057.945s-1.42-.332-1.873-.996v.844ZM312.19,239.214c0,.808.109,1.392.33,1.752.359.588.846.882,1.459.882.5,0,.932-.217,1.295-.65.364-.434.547-1.08.547-1.939,0-.88-.175-1.529-.524-1.948-.349-.419-.771-.629-1.267-.629-.499,0-.931.217-1.295.65-.363.435-.545,1.062-.545,1.883Z" fill="#231f20"/><rect x="284.373" y="266.915" width="41.771" height="15.285" fill="#fff" stroke="#231f20" stroke-miterlimit="10" stroke-width="1.631"/><path d="M299.862,277.015l1.181.146c-.187.689-.531,1.225-1.035,1.605-.503.381-1.146.571-1.93.571-.985,0-1.768-.304-2.345-.911-.578-.606-.866-1.458-.866-2.555,0-1.134.291-2.014.875-2.641.584-.626,1.342-.939,2.273-.939.9,0,1.637.307,2.209.921.57.613.856,1.477.856,2.59,0,.067-.002.169-.007.305h-5.027c.043.74.252,1.308.629,1.701s.847.59,1.409.59c.419,0,.776-.109,1.073-.33.296-.22.53-.571.704-1.054ZM296.111,275.168h3.764c-.051-.567-.194-.992-.432-1.276-.364-.439-.836-.66-1.416-.66-.524,0-.966.176-1.323.527-.357.351-.556.82-.593,1.409Z" fill="#231f20"/><path d="M301.677,279.186l3.6-4.85-3.174-4.456h1.467l1.688,2.387c.352.495.602.876.75,1.143.207-.338.452-.691.736-1.06l1.872-2.47h1.339l-3.269,4.387,3.522,4.919h-1.523l-2.342-3.319c-.131-.19-.267-.398-.406-.622-.207.338-.355.571-.444.698l-2.336,3.243h-1.479Z" fill="#231f20"/><path d="M315.548,278.355c-.423.359-.83.613-1.222.762-.392.147-.812.222-1.261.222-.74,0-1.31-.181-1.707-.543-.397-.361-.597-.823-.597-1.387,0-.33.075-.632.226-.904.15-.273.347-.492.59-.657s.518-.29.822-.374c.225-.06.562-.116,1.016-.172.923-.109,1.602-.241,2.037-.394.005-.156.007-.256.007-.298,0-.466-.108-.794-.323-.984-.293-.258-.727-.387-1.302-.387-.537,0-.935.094-1.19.282s-.445.521-.568,1l-1.117-.152c.102-.479.27-.864.502-1.159.232-.294.569-.521,1.01-.679.439-.159.949-.238,1.529-.238.575,0,1.043.068,1.402.203.36.136.625.306.794.511.169.206.288.465.355.778.038.194.058.546.058,1.054v1.523c0,1.062.023,1.733.072,2.015.049.282.146.552.289.81h-1.193c-.118-.236-.194-.514-.229-.831ZM315.452,275.803c-.414.169-1.036.312-1.865.432-.471.067-.803.144-.997.229-.194.084-.345.208-.45.371-.106.163-.159.344-.159.543,0,.305.115.559.346.762s.568.305,1.013.305c.44,0,.832-.097,1.174-.289.344-.192.595-.456.756-.79.123-.259.184-.64.184-1.143v-.419Z" fill="#231f20"/><rect x="284.373" y="294.496" width="41.771" height="15.285" fill="#fff" stroke="#231f20" stroke-miterlimit="10" stroke-width="1.631"/><path d="M299.862,304.595l1.181.146c-.187.69-.531,1.226-1.035,1.606-.503.381-1.146.571-1.93.571-.985,0-1.768-.304-2.345-.911-.578-.607-.866-1.459-.866-2.555,0-1.134.291-2.015.875-2.641s1.342-.939,2.273-.939c.9,0,1.637.307,2.209.921.57.613.856,1.477.856,2.59,0,.067-.002.169-.007.305h-5.027c.043.74.252,1.307.629,1.701.377.393.847.59,1.409.59.419,0,.776-.11,1.073-.33.296-.22.53-.571.704-1.054ZM296.111,302.749h3.764c-.051-.567-.194-.993-.432-1.276-.364-.44-.836-.66-1.416-.66-.524,0-.966.176-1.323.526-.357.352-.556.821-.593,1.41Z" fill="#231f20"/><path d="M301.677,306.766l3.6-4.85-3.174-4.456h1.467l1.688,2.387c.352.495.602.876.75,1.143.207-.339.452-.692.736-1.06l1.872-2.47h1.339l-3.269,4.386,3.522,4.92h-1.523l-2.342-3.32c-.131-.189-.267-.397-.406-.621-.207.338-.355.57-.444.697l-2.336,3.244h-1.479Z" fill="#231f20"/><path d="M312.202,306.766h-1.06v-9.306h1.143v3.319c.482-.604,1.099-.907,1.847-.907.415,0,.808.084,1.178.251s.675.401.914.704.427.668.562,1.095c.135.428.203.885.203,1.371,0,1.156-.286,2.049-.857,2.68-.571.63-1.257.945-2.057.945s-1.42-.332-1.873-.996v.844ZM312.19,303.344c0,.809.109,1.393.33,1.752.359.589.846.883,1.459.883.5,0,.932-.217,1.295-.65.364-.434.547-1.08.547-1.939,0-.88-.175-1.529-.524-1.949-.349-.418-.771-.628-1.267-.628-.499,0-.931.217-1.295.65-.363.434-.545,1.062-.545,1.882Z" fill="#231f20"/><line x1="284.373" y1="256.283" x2="428.215" y2="256.283" fill="#fff" stroke="#231f20" stroke-miterlimit="10" stroke-width="1.631"/><path d="M358.167,293.091v-9.306h1.264l4.887,7.307v-7.307h1.182v9.306h-1.264l-4.888-7.312v7.312h-1.181Z" fill="#231f20"/><path d="M367.149,290.102l1.162-.102c.055.465.183.847.384,1.146.201.298.513.539.937.724.423.184.898.276,1.428.276.47,0,.885-.07,1.244-.21s.627-.331.803-.574.264-.509.264-.797c0-.292-.085-.547-.254-.765s-.448-.401-.838-.549c-.25-.098-.802-.249-1.656-.454-.855-.205-1.454-.398-1.797-.581-.444-.232-.775-.521-.993-.866s-.327-.731-.327-1.158c0-.47.133-.909.4-1.317.266-.408.655-.719,1.168-.93.512-.212,1.081-.317,1.707-.317.689,0,1.298.11,1.825.333.526.222.932.549,1.216.98.283.432.436.921.457,1.467l-1.182.089c-.062-.589-.277-1.033-.644-1.333-.366-.301-.907-.451-1.622-.451-.745,0-1.287.137-1.628.409-.341.273-.511.603-.511.987,0,.335.12.609.361.825.237.216.855.438,1.856.663,1.001.227,1.688.425,2.06.594.542.25.942.566,1.2.949s.388.824.388,1.323c0,.495-.143.962-.426,1.399-.283.438-.69.779-1.222,1.022s-1.129.364-1.794.364c-.842,0-1.547-.122-2.116-.367-.569-.246-1.016-.615-1.34-1.108-.323-.493-.494-1.05-.511-1.672Z" fill="#231f20"/><path d="M376.2,293.091v-9.306h1.854l2.203,6.589c.203.614.351,1.072.443,1.377.106-.338.271-.835.496-1.491l2.228-6.475h1.657v9.306h-1.188v-7.788l-2.704,7.788h-1.11l-2.691-7.922v7.922h-1.188Z" fill="#231f20"/><path d="M390.629,293.091v-9.306h3.491c.711,0,1.281.095,1.711.282.43.188.766.479,1.009.87s.365.801.365,1.229c0,.397-.108.772-.323,1.123-.217.352-.542.635-.979.851.563.165.996.446,1.299.845.303.397.453.867.453,1.409,0,.436-.092.841-.275,1.215-.185.375-.412.664-.683.867s-.61.356-1.019.46-.909.155-1.502.155h-3.548ZM391.86,287.696h2.012c.547,0,.938-.036,1.175-.107.313-.094.549-.248.708-.464.158-.216.238-.486.238-.812,0-.309-.074-.581-.223-.815-.148-.235-.359-.396-.635-.482s-.747-.13-1.416-.13h-1.859v2.812ZM391.86,291.994h2.316c.398,0,.678-.016.838-.045.284-.051.521-.135.711-.254.191-.119.348-.291.471-.518.122-.226.184-.487.184-.783,0-.348-.089-.648-.267-.905-.178-.256-.424-.436-.739-.539s-.77-.155-1.361-.155h-2.152v3.199Z" fill="#231f20"/><path d="M358.525,227.922v-9.306h1.264l4.887,7.307v-7.307h1.182v9.306h-1.264l-4.888-7.312v7.312h-1.181Z" fill="#231f20"/><path d="M367.507,224.933l1.162-.102c.055.465.183.847.384,1.146.201.298.513.539.937.724.423.184.898.276,1.428.276.47,0,.885-.07,1.244-.21s.627-.331.803-.574.264-.509.264-.797c0-.292-.085-.547-.254-.765s-.448-.401-.838-.549c-.25-.098-.802-.249-1.656-.454-.855-.205-1.454-.398-1.797-.581-.444-.232-.775-.521-.993-.866s-.327-.731-.327-1.158c0-.47.133-.909.4-1.317.266-.408.655-.719,1.168-.93.512-.212,1.081-.317,1.707-.317.689,0,1.298.11,1.825.333.526.222.932.549,1.216.98.283.432.436.921.457,1.467l-1.182.089c-.062-.589-.277-1.033-.644-1.333-.366-.301-.907-.451-1.622-.451-.745,0-1.287.137-1.628.409-.341.273-.511.603-.511.987,0,.335.12.609.361.825.237.216.855.438,1.856.663,1.001.227,1.688.425,2.06.594.542.25.942.566,1.2.949s.388.824.388,1.323c0,.495-.143.962-.426,1.399-.283.438-.69.779-1.222,1.022s-1.129.364-1.794.364c-.842,0-1.547-.122-2.116-.367-.569-.246-1.016-.615-1.34-1.108-.323-.493-.494-1.05-.511-1.672Z" fill="#231f20"/><path d="M376.56,227.922v-9.306h1.854l2.203,6.589c.203.614.351,1.072.443,1.377.106-.338.271-.835.496-1.491l2.228-6.475h1.657v9.306h-1.188v-7.788l-2.704,7.788h-1.11l-2.691-7.922v7.922h-1.188Z" fill="#231f20"/><path d="M389.298,227.922l3.574-9.306h1.326l3.809,9.306h-1.402l-1.086-2.818h-3.891l-1.021,2.818h-1.309ZM391.983,224.101h3.154l-.971-2.577c-.296-.782-.517-1.426-.66-1.93-.118.597-.285,1.189-.502,1.777l-1.021,2.729Z" fill="#231f20"/><rect x="105.656" y="201.148" width="41.771" height="19.788" fill="#fff" stroke="#231f20" stroke-miterlimit="10" stroke-width="1.855"/><rect x="88.248" y="201.148" width="18.114" height="39.434" fill="#fff" stroke="#231f20" stroke-miterlimit="10" stroke-width="1.855"/><rect x="106.582" y="220.936" width="40.845" height="19.788" fill="#fff" stroke="#231f20" stroke-miterlimit="10" stroke-width="1.855"/><path d="M120.629,42.076l1.181.146c-.186.69-.531,1.225-1.035,1.606s-1.147.571-1.93.571c-.986,0-1.768-.304-2.345-.911-.578-.607-.867-1.458-.867-2.555,0-1.134.292-2.014.876-2.641s1.341-.939,2.272-.939c.901,0,1.638.307,2.209.92s.857,1.477.857,2.59c0,.068-.002.169-.006.305h-5.027c.042.741.252,1.308.628,1.701s.846.59,1.409.59c.419,0,.776-.11,1.073-.33s.531-.571.705-1.054ZM116.878,40.228h3.764c-.051-.567-.195-.992-.432-1.276-.364-.44-.836-.66-1.416-.66-.525,0-.966.176-1.324.527-.357.351-.555.821-.593,1.409Z" fill="#231f20"/><path d="M122.934,41.79l1.143-.152c.131.647.354,1.114.67,1.4.315.285.699.428,1.152.428.538,0,.991-.186,1.362-.559.37-.373.555-.833.555-1.384,0-.525-.171-.958-.514-1.298-.343-.34-.779-.511-1.308-.511-.216,0-.484.042-.806.127l.127-1.003c.076.008.138.013.184.013.487,0,.925-.127,1.314-.381s.584-.646.584-1.174c0-.419-.142-.766-.425-1.041s-.649-.413-1.098-.413c-.444,0-.814.14-1.111.419s-.487.698-.571,1.257l-1.143-.203c.14-.766.457-1.359.952-1.78.495-.421,1.111-.632,1.847-.632.508,0,.976.109,1.403.327.427.218.754.515.98.892.227.376.34.776.34,1.2,0,.402-.108.768-.324,1.098s-.535.592-.958.787c.55.127.978.391,1.282.79.305.4.457.9.457,1.501,0,.812-.296,1.501-.889,2.066-.592.565-1.341.848-2.247.848-.817,0-1.495-.243-2.034-.73-.54-.487-.848-1.117-.924-1.892Z" fill="#231f20"/><path d="M134.874,43.415c-.423.36-.831.614-1.222.762-.392.148-.812.222-1.26.222-.741,0-1.31-.181-1.708-.543-.398-.361-.597-.824-.597-1.387,0-.33.075-.632.226-.904.15-.273.347-.492.59-.657.244-.165.518-.29.822-.375.224-.059.563-.116,1.016-.171.922-.11,1.602-.241,2.038-.394.004-.157.006-.256.006-.298,0-.465-.108-.793-.324-.984-.292-.258-.726-.387-1.301-.387-.538,0-.934.094-1.19.283-.256.188-.445.521-.568,1l-1.117-.152c.102-.478.269-.864.501-1.159.233-.294.569-.521,1.009-.679.44-.159.95-.238,1.53-.238.576,0,1.043.068,1.403.203s.624.306.793.511c.169.206.288.465.355.778.038.195.057.546.057,1.054v1.523c0,1.062.024,1.734.073,2.015.049.282.145.551.289.81h-1.193c-.119-.237-.195-.514-.229-.832ZM134.778,40.863c-.415.169-1.037.313-1.866.432-.47.068-.802.144-.997.229s-.345.208-.451.372c-.106.163-.159.344-.159.542,0,.305.115.559.346.762.231.203.568.305,1.013.305.44,0,.832-.096,1.174-.289.343-.193.595-.456.755-.791.123-.258.184-.639.184-1.143v-.419Z" fill="#231f20"/><path d="M120.629,62.405l1.181.146c-.186.69-.531,1.225-1.035,1.606s-1.147.571-1.93.571c-.986,0-1.768-.304-2.345-.911-.578-.607-.867-1.458-.867-2.555,0-1.134.292-2.014.876-2.641s1.341-.939,2.272-.939c.901,0,1.638.307,2.209.92s.857,1.477.857,2.59c0,.068-.002.169-.006.305h-5.027c.042.741.252,1.308.628,1.701s.846.59,1.409.59c.419,0,.776-.11,1.073-.33s.531-.571.705-1.054ZM116.878,60.558h3.764c-.051-.567-.195-.992-.432-1.276-.364-.44-.836-.66-1.416-.66-.525,0-.966.176-1.324.527-.357.351-.555.821-.593,1.409Z" fill="#231f20"/><path d="M122.934,62.12l1.143-.152c.131.647.354,1.114.67,1.4.315.285.699.428,1.152.428.538,0,.991-.186,1.362-.559.37-.373.555-.833.555-1.384,0-.525-.171-.958-.514-1.298-.343-.34-.779-.511-1.308-.511-.216,0-.484.042-.806.127l.127-1.003c.076.008.138.013.184.013.487,0,.925-.127,1.314-.381s.584-.646.584-1.174c0-.419-.142-.766-.425-1.041s-.649-.413-1.098-.413c-.444,0-.814.14-1.111.419s-.487.698-.571,1.257l-1.143-.203c.14-.766.457-1.359.952-1.78.495-.421,1.111-.632,1.847-.632.508,0,.976.109,1.403.327.427.218.754.515.98.892.227.376.34.776.34,1.2,0,.402-.108.768-.324,1.098s-.535.592-.958.787c.55.127.978.391,1.282.79.305.4.457.9.457,1.501,0,.812-.296,1.501-.889,2.066-.592.565-1.341.848-2.247.848-.817,0-1.495-.243-2.034-.73-.54-.487-.848-1.117-.924-1.892Z" fill="#231f20"/><path d="M131.528,64.576h-1.06v-9.306h1.143v3.32c.482-.605,1.098-.908,1.847-.908.415,0,.807.083,1.177.251.371.167.675.402.914.704.239.303.427.668.562,1.095s.203.884.203,1.371c0,1.155-.286,2.048-.857,2.679s-1.257.946-2.057.946c-.795,0-1.42-.332-1.873-.997v.844ZM131.516,61.155c0,.808.11,1.392.33,1.752.36.588.846.882,1.46.882.5,0,.931-.217,1.295-.65.364-.434.546-1.081.546-1.939,0-.88-.174-1.53-.524-1.949-.349-.419-.771-.628-1.266-.628-.5,0-.931.217-1.295.65-.364.434-.546,1.062-.546,1.882Z" fill="#231f20"/><path d="M120.629,213.12l1.181.146c-.186.69-.531,1.226-1.035,1.606s-1.147.571-1.93.571c-.986,0-1.768-.304-2.345-.911-.578-.607-.867-1.459-.867-2.555,0-1.134.292-2.015.876-2.641s1.341-.939,2.272-.939c.901,0,1.638.307,2.209.921.571.613.857,1.477.857,2.59,0,.067-.002.169-.006.305h-5.027c.042.74.252,1.307.628,1.701.376.393.846.59,1.409.59.419,0,.776-.11,1.073-.33s.531-.571.705-1.054ZM116.878,211.273h3.764c-.051-.567-.195-.993-.432-1.276-.364-.44-.836-.66-1.416-.66-.525,0-.966.176-1.324.526-.357.352-.555.821-.593,1.41Z" fill="#231f20"/><path d="M122.934,212.833l1.143-.152c.131.648.354,1.114.67,1.4.315.285.699.428,1.152.428.538,0,.991-.186,1.362-.559.37-.372.555-.833.555-1.383,0-.525-.171-.958-.514-1.299s-.779-.511-1.308-.511c-.216,0-.484.042-.806.127l.127-1.003c.076.009.138.013.184.013.487,0,.925-.127,1.314-.381s.584-.646.584-1.175c0-.418-.142-.766-.425-1.041-.284-.274-.649-.412-1.098-.412-.444,0-.814.14-1.111.419s-.487.698-.571,1.257l-1.143-.203c.14-.766.457-1.359.952-1.78s1.111-.632,1.847-.632c.508,0,.976.109,1.403.327s.754.515.98.892c.227.377.34.776.34,1.199,0,.402-.108.769-.324,1.099s-.535.593-.958.787c.55.127.978.391,1.282.79.305.4.457.9.457,1.502,0,.812-.296,1.501-.889,2.065-.592.565-1.341.848-2.247.848-.817,0-1.495-.243-2.034-.729-.54-.487-.848-1.117-.924-1.893Z" fill="#231f20"/><path d="M134.874,214.458c-.423.36-.831.614-1.222.762-.392.148-.812.223-1.26.223-.741,0-1.31-.181-1.708-.543-.398-.361-.597-.824-.597-1.387,0-.33.075-.632.226-.904.15-.273.347-.492.59-.657.244-.165.518-.29.822-.374.224-.06.563-.117,1.016-.172.922-.11,1.602-.241,2.038-.394.004-.156.006-.256.006-.298,0-.466-.108-.794-.324-.984-.292-.258-.726-.387-1.301-.387-.538,0-.934.094-1.19.282-.256.188-.445.521-.568.999l-1.117-.152c.102-.478.269-.864.501-1.158s.569-.521,1.009-.679c.44-.159.95-.238,1.53-.238.576,0,1.043.067,1.403.203s.624.306.793.511.288.465.355.777c.038.195.057.547.057,1.055v1.523c0,1.062.024,1.733.073,2.015.049.281.145.552.289.81h-1.193c-.119-.237-.195-.514-.229-.832ZM134.778,211.908c-.415.169-1.037.312-1.866.432-.47.067-.802.144-.997.229-.195.084-.345.208-.451.371s-.159.344-.159.543c0,.305.115.559.346.762.231.203.568.305,1.013.305.44,0,.832-.097,1.174-.289s.595-.456.755-.791c.123-.258.184-.639.184-1.143v-.418Z" fill="#231f20"/><path d="M120.629,233.45l1.181.146c-.186.69-.531,1.226-1.035,1.606s-1.147.571-1.93.571c-.986,0-1.768-.304-2.345-.911-.578-.607-.867-1.459-.867-2.555,0-1.134.292-2.015.876-2.641s1.341-.939,2.272-.939c.901,0,1.638.307,2.209.921.571.613.857,1.477.857,2.59,0,.067-.002.169-.006.305h-5.027c.042.74.252,1.307.628,1.701.376.393.846.59,1.409.59.419,0,.776-.11,1.073-.33s.531-.571.705-1.054ZM116.878,231.603h3.764c-.051-.567-.195-.993-.432-1.276-.364-.44-.836-.66-1.416-.66-.525,0-.966.176-1.324.526-.357.352-.555.821-.593,1.41Z" fill="#231f20"/><path d="M122.934,233.164l1.143-.152c.131.648.354,1.114.67,1.4.315.285.699.428,1.152.428.538,0,.991-.186,1.362-.559.37-.372.555-.833.555-1.383,0-.525-.171-.958-.514-1.299s-.779-.511-1.308-.511c-.216,0-.484.042-.806.127l.127-1.003c.076.009.138.013.184.013.487,0,.925-.127,1.314-.381s.584-.646.584-1.175c0-.418-.142-.766-.425-1.041-.284-.274-.649-.412-1.098-.412-.444,0-.814.14-1.111.419s-.487.698-.571,1.257l-1.143-.203c.14-.766.457-1.359.952-1.78s1.111-.632,1.847-.632c.508,0,.976.109,1.403.327s.754.515.98.892c.227.377.34.776.34,1.199,0,.402-.108.769-.324,1.099s-.535.593-.958.787c.55.127.978.391,1.282.79.305.4.457.9.457,1.502,0,.812-.296,1.501-.889,2.065-.592.565-1.341.848-2.247.848-.817,0-1.495-.243-2.034-.729-.54-.487-.848-1.117-.924-1.893Z" fill="#231f20"/><path d="M131.528,235.621h-1.06v-9.306h1.143v3.319c.482-.604,1.098-.907,1.847-.907.415,0,.807.084,1.177.251.371.167.675.401.914.704.239.303.427.668.562,1.095.135.428.203.885.203,1.371,0,1.156-.286,2.049-.857,2.68-.571.63-1.257.945-2.057.945-.795,0-1.42-.332-1.873-.996v.844ZM131.516,232.199c0,.809.11,1.393.33,1.752.36.589.846.883,1.46.883.5,0,.931-.217,1.295-.65s.546-1.08.546-1.939c0-.88-.174-1.529-.524-1.949-.349-.418-.771-.628-1.266-.628-.5,0-.931.217-1.295.65s-.546,1.062-.546,1.882Z" fill="#231f20"/><path d="M98.582,231.942l-.078-.805c.358-.037.652-.126.881-.266.229-.139.415-.354.557-.648.142-.292.212-.622.212-.988,0-.325-.054-.612-.161-.861s-.255-.435-.442-.556c-.187-.122-.392-.183-.613-.183-.225,0-.421.059-.588.176s-.309.311-.422.58c-.075.173-.191.556-.349,1.146-.158.593-.307,1.007-.447,1.244-.179.308-.401.537-.667.688-.265.151-.562.227-.891.227-.361,0-.699-.092-1.013-.277-.314-.184-.553-.453-.715-.809-.163-.354-.244-.748-.244-1.182,0-.478.085-.898.256-1.264.171-.364.422-.645.754-.842.332-.195.708-.301,1.128-.316l.068.818c-.453.043-.794.192-1.025.445-.231.254-.347.628-.347,1.123,0,.516.105.892.315,1.127.21.236.463.354.759.354.257,0,.469-.083.635-.25.166-.164.336-.593.51-1.285.174-.693.326-1.168.457-1.426.192-.375.436-.652.73-.831s.634-.269,1.018-.269c.381,0,.74.099,1.077.295s.599.479.786.846c.187.368.281.782.281,1.242,0,.583-.094,1.071-.283,1.465-.189.395-.473.703-.852.928-.379.224-.808.342-1.287.354Z" fill="#231f20"/><path d="M100.882,225.767h-7.158v-.791h7.158v.791Z" fill="#231f20"/><path d="M98.289,224.045c-.96,0-1.671-.24-2.134-.721-.384-.401-.576-.891-.576-1.468,0-.642.233-1.166.701-1.573s1.112-.611,1.936-.611c.667,0,1.192.091,1.575.271.382.181.68.442.891.787.211.344.317.72.317,1.127,0,.653-.233,1.182-.698,1.584-.465.403-1.136.604-2.012.604ZM98.289,223.233c.664,0,1.161-.131,1.492-.392s.496-.589.496-.984c0-.393-.166-.719-.498-.979s-.838-.392-1.519-.392c-.641,0-1.127.131-1.458.394-.331.262-.496.588-.496.978,0,.396.165.724.493.984s.825.392,1.489.392Z" fill="#231f20"/><path d="M100.096,217.018l.776-.114c.052.223.078.422.078.598,0,.287-.05.51-.151.668s-.233.27-.398.334-.51.097-1.038.097h-2.983v.58h-.684v-.58h-1.284l-.527-.787h1.812v-.795h.684v.795h3.032c.25,0,.412-.014.483-.041.072-.028.128-.073.171-.137.042-.062.063-.152.063-.27,0-.088-.011-.204-.034-.348Z" fill="#231f20"/><path d="M98.992,213.959l-.117-.791c.498-.091.857-.245,1.077-.464.22-.218.33-.483.33-.797,0-.372-.143-.687-.43-.943-.287-.256-.641-.385-1.064-.385-.404,0-.736.119-.999.356s-.393.539-.393.905c0,.149.033.336.098.559l-.771-.088c.006-.053.01-.096.01-.128,0-.337-.098-.64-.293-.909s-.497-.404-.903-.404c-.322,0-.589.098-.801.294s-.317.45-.317.761c0,.307.107.563.322.769s.537.337.967.396l-.156.791c-.589-.097-1.046-.316-1.37-.659s-.486-.769-.486-1.278c0-.352.084-.676.251-.972s.396-.522.686-.679c.29-.157.597-.235.923-.235.309,0,.591.075.845.224.254.15.456.371.605.664.098-.381.3-.677.608-.888s.692-.316,1.155-.316c.625,0,1.155.205,1.589.615s.652.929.652,1.556c0,.565-.187,1.035-.562,1.408-.375.374-.859.587-1.455.64Z" fill="#231f20"/><rect x="105.656" y="102.294" width="41.771" height="19.788" fill="#fff" stroke="#231f20" stroke-miterlimit="10" stroke-width="1.855"/><rect x="88.248" y="102.294" width="18.114" height="39.434" fill="#fff" stroke="#231f20" stroke-miterlimit="10" stroke-width="1.855"/><rect x="106.582" y="122.081" width="40.845" height="19.788" fill="#fff" stroke="#231f20" stroke-miterlimit="10" stroke-width="1.855"/><path d="M98.582,133.404l-.078-.804c.358-.038.652-.126.881-.266.229-.139.415-.355.557-.648s.212-.623.212-.989c0-.325-.054-.612-.161-.861s-.255-.434-.442-.556-.392-.183-.613-.183c-.225,0-.421.059-.588.176s-.309.311-.422.58c-.075.173-.191.555-.349,1.147s-.307,1.006-.447,1.244c-.179.308-.401.537-.667.688-.265.151-.562.227-.891.227-.361,0-.699-.092-1.013-.277s-.553-.454-.715-.809-.244-.749-.244-1.182c0-.478.085-.898.256-1.264.171-.364.422-.645.754-.841s.708-.302,1.128-.316l.068.817c-.453.044-.794.193-1.025.446-.231.254-.347.628-.347,1.123,0,.516.105.892.315,1.127.21.236.463.354.759.354.257,0,.469-.083.635-.25.166-.164.336-.592.51-1.285s.326-1.168.457-1.426c.192-.375.436-.652.73-.831s.634-.268,1.018-.268c.381,0,.74.098,1.077.294s.599.479.786.846c.187.368.281.782.281,1.242,0,.583-.094,1.072-.283,1.465-.189.395-.473.703-.852.928-.379.224-.808.342-1.287.354Z" fill="#231f20"/><path d="M100.882,127.229h-7.158v-.791h7.158v.791Z" fill="#231f20"/><path d="M98.289,125.507c-.96,0-1.671-.24-2.134-.721-.384-.401-.576-.891-.576-1.468,0-.642.233-1.166.701-1.573s1.112-.611,1.936-.611c.667,0,1.192.09,1.575.27.382.181.68.443.891.787s.317.72.317,1.127c0,.653-.233,1.182-.698,1.584-.465.403-1.136.604-2.012.604ZM98.289,124.694c.664,0,1.161-.13,1.492-.391s.496-.589.496-.984c0-.393-.166-.719-.498-.98s-.838-.391-1.519-.391c-.641,0-1.127.131-1.458.394s-.496.588-.496.978c0,.396.165.724.493.984s.825.391,1.489.391Z" fill="#231f20"/><path d="M100.096,118.48l.776-.114c.052.223.078.422.078.598,0,.287-.05.51-.151.668s-.233.27-.398.334-.51.097-1.038.097h-2.983v.58h-.684v-.58h-1.284l-.527-.787h1.812v-.795h.684v.795h3.032c.25,0,.412-.014.483-.042s.128-.073.171-.137c.042-.062.063-.153.063-.27,0-.088-.011-.204-.034-.347Z" fill="#231f20"/><path d="M100.882,112.446v.791h-5.601c.202.19.404.44.605.75s.353.586.454.833h-.85c-.231-.442-.511-.829-.84-1.16s-.648-.565-.957-.703v-.51h7.188Z" fill="#231f20"/><rect x="105.656" y="273.338" width="41.771" height="19.788" fill="#fff" stroke="#231f20" stroke-miterlimit="10" stroke-width="1.855"/><rect x="88.248" y="273.338" width="18.114" height="39.434" fill="#fff" stroke="#231f20" stroke-miterlimit="10" stroke-width="1.855"/><rect x="106.582" y="293.126" width="40.845" height="19.788" fill="#fff" stroke="#231f20" stroke-miterlimit="10" stroke-width="1.855"/><path d="M120.629,114.265l1.181.146c-.186.69-.531,1.225-1.035,1.606s-1.147.571-1.93.571c-.986,0-1.768-.304-2.345-.911-.578-.607-.867-1.458-.867-2.555,0-1.134.292-2.014.876-2.641s1.341-.939,2.272-.939c.901,0,1.638.307,2.209.92s.857,1.477.857,2.59c0,.068-.002.169-.006.305h-5.027c.042.741.252,1.308.628,1.701s.846.59,1.409.59c.419,0,.776-.11,1.073-.33s.531-.571.705-1.054ZM116.878,112.418h3.764c-.051-.567-.195-.992-.432-1.276-.364-.44-.836-.66-1.416-.66-.525,0-.966.176-1.324.527-.357.351-.555.821-.593,1.409Z" fill="#231f20"/><path d="M127.231,116.436h-1.143v-7.281c-.275.262-.636.525-1.083.787-.446.262-.847.459-1.203.59v-1.104c.639-.3,1.198-.665,1.676-1.092s.817-.842,1.016-1.244h.736v9.344Z" fill="#231f20"/><path d="M134.874,115.604c-.423.36-.831.614-1.222.762-.392.148-.812.222-1.26.222-.741,0-1.31-.181-1.708-.543-.398-.361-.597-.824-.597-1.387,0-.33.075-.632.226-.904.15-.273.347-.492.59-.657.244-.165.518-.29.822-.375.224-.059.563-.116,1.016-.171.922-.11,1.602-.241,2.038-.394.004-.157.006-.256.006-.298,0-.465-.108-.793-.324-.984-.292-.258-.726-.387-1.301-.387-.538,0-.934.094-1.19.283-.256.188-.445.521-.568,1l-1.117-.152c.102-.478.269-.864.501-1.159.233-.294.569-.521,1.009-.679.44-.159.95-.238,1.53-.238.576,0,1.043.068,1.403.203s.624.306.793.511c.169.206.288.465.355.778.038.195.057.546.057,1.054v1.523c0,1.062.024,1.734.073,2.015.049.282.145.551.289.81h-1.193c-.119-.237-.195-.514-.229-.832ZM134.778,113.053c-.415.169-1.037.313-1.866.432-.47.068-.802.144-.997.229s-.345.208-.451.372c-.106.163-.159.344-.159.542,0,.305.115.559.346.762.231.203.568.305,1.013.305.44,0,.832-.096,1.174-.289.343-.193.595-.456.755-.791.123-.258.184-.639.184-1.143v-.419Z" fill="#231f20"/><path d="M120.629,134.595l1.181.146c-.186.69-.531,1.225-1.035,1.606s-1.147.571-1.93.571c-.986,0-1.768-.304-2.345-.911-.578-.607-.867-1.458-.867-2.555,0-1.134.292-2.014.876-2.641s1.341-.939,2.272-.939c.901,0,1.638.307,2.209.92s.857,1.477.857,2.59c0,.068-.002.169-.006.305h-5.027c.042.741.252,1.308.628,1.701s.846.59,1.409.59c.419,0,.776-.11,1.073-.33s.531-.571.705-1.054ZM116.878,132.748h3.764c-.051-.567-.195-.992-.432-1.276-.364-.44-.836-.66-1.416-.66-.525,0-.966.176-1.324.527-.357.351-.555.821-.593,1.409Z" fill="#231f20"/><path d="M127.231,136.766h-1.143v-7.281c-.275.262-.636.525-1.083.787-.446.262-.847.459-1.203.59v-1.104c.639-.3,1.198-.665,1.676-1.092s.817-.842,1.016-1.244h.736v9.344Z" fill="#231f20"/><path d="M131.528,136.766h-1.06v-9.306h1.143v3.32c.482-.605,1.098-.908,1.847-.908.415,0,.807.083,1.177.251.371.167.675.402.914.704.239.303.427.668.562,1.095s.203.884.203,1.371c0,1.155-.286,2.048-.857,2.679s-1.257.946-2.057.946c-.795,0-1.42-.332-1.873-.997v.844ZM131.516,133.344c0,.808.11,1.392.33,1.752.36.588.846.882,1.46.882.5,0,.931-.217,1.295-.65.364-.434.546-1.081.546-1.939,0-.88-.174-1.53-.524-1.949-.349-.419-.771-.628-1.266-.628-.5,0-.931.217-1.295.65-.364.434-.546,1.062-.546,1.882Z" fill="#231f20"/><path d="M120.629,285.31l1.181.146c-.186.69-.531,1.226-1.035,1.606s-1.147.571-1.93.571c-.986,0-1.768-.304-2.345-.911-.578-.607-.867-1.459-.867-2.555,0-1.134.292-2.015.876-2.641s1.341-.939,2.272-.939c.901,0,1.638.307,2.209.921.571.613.857,1.477.857,2.59,0,.067-.002.169-.006.305h-5.027c.042.74.252,1.307.628,1.701.376.393.846.59,1.409.59.419,0,.776-.11,1.073-.33s.531-.571.705-1.054ZM116.878,283.463h3.764c-.051-.567-.195-.993-.432-1.276-.364-.44-.836-.66-1.416-.66-.525,0-.966.176-1.324.526-.357.352-.555.821-.593,1.41Z" fill="#231f20"/><path d="M127.231,287.481h-1.143v-7.281c-.275.263-.636.525-1.083.787-.446.263-.847.46-1.203.591v-1.104c.639-.301,1.198-.664,1.676-1.092s.817-.842,1.016-1.244h.736v9.344Z" fill="#231f20"/><path d="M134.874,286.649c-.423.36-.831.614-1.222.762-.392.148-.812.223-1.26.223-.741,0-1.31-.181-1.708-.543-.398-.361-.597-.824-.597-1.387,0-.33.075-.632.226-.904.15-.273.347-.492.59-.657.244-.165.518-.29.822-.374.224-.06.563-.117,1.016-.172.922-.11,1.602-.241,2.038-.394.004-.156.006-.256.006-.298,0-.466-.108-.794-.324-.984-.292-.258-.726-.387-1.301-.387-.538,0-.934.094-1.19.282-.256.188-.445.521-.568.999l-1.117-.152c.102-.478.269-.864.501-1.158s.569-.521,1.009-.679c.44-.159.95-.238,1.53-.238.576,0,1.043.067,1.403.203s.624.306.793.511.288.465.355.777c.038.195.057.547.057,1.055v1.523c0,1.062.024,1.733.073,2.015.049.281.145.552.289.81h-1.193c-.119-.237-.195-.514-.229-.832ZM134.778,284.098c-.415.169-1.037.312-1.866.432-.47.067-.802.144-.997.229-.195.084-.345.208-.451.371s-.159.344-.159.543c0,.305.115.559.346.762.231.203.568.305,1.013.305.44,0,.832-.097,1.174-.289s.595-.456.755-.791c.123-.258.184-.639.184-1.143v-.418Z" fill="#231f20"/><path d="M120.629,305.64l1.181.146c-.186.69-.531,1.226-1.035,1.606s-1.147.571-1.93.571c-.986,0-1.768-.304-2.345-.911-.578-.607-.867-1.459-.867-2.555,0-1.134.292-2.015.876-2.641s1.341-.939,2.272-.939c.901,0,1.638.307,2.209.921.571.613.857,1.477.857,2.59,0,.067-.002.169-.006.305h-5.027c.042.74.252,1.307.628,1.701.376.393.846.59,1.409.59.419,0,.776-.11,1.073-.33s.531-.571.705-1.054ZM116.878,303.793h3.764c-.051-.567-.195-.993-.432-1.276-.364-.44-.836-.66-1.416-.66-.525,0-.966.176-1.324.526-.357.352-.555.821-.593,1.41Z" fill="#231f20"/><path d="M127.231,307.811h-1.143v-7.281c-.275.263-.636.525-1.083.787-.446.263-.847.46-1.203.591v-1.104c.639-.301,1.198-.664,1.676-1.092s.817-.842,1.016-1.244h.736v9.344Z" fill="#231f20"/><path d="M131.528,307.811h-1.06v-9.306h1.143v3.319c.482-.604,1.098-.907,1.847-.907.415,0,.807.084,1.177.251.371.167.675.401.914.704.239.303.427.668.562,1.095.135.428.203.885.203,1.371,0,1.156-.286,2.049-.857,2.68-.571.63-1.257.945-2.057.945-.795,0-1.42-.332-1.873-.996v.844ZM131.516,304.389c0,.809.11,1.393.33,1.752.36.589.846.883,1.46.883.5,0,.931-.217,1.295-.65s.546-1.08.546-1.939c0-.88-.174-1.529-.524-1.949-.349-.418-.771-.628-1.266-.628-.5,0-.931.217-1.295.65s-.546,1.062-.546,1.882Z" fill="#231f20"/><path d="M98.582,304.132l-.078-.805c.358-.037.652-.126.881-.266.229-.139.415-.354.557-.648.142-.292.212-.622.212-.988,0-.325-.054-.612-.161-.861s-.255-.435-.442-.556c-.187-.122-.392-.183-.613-.183-.225,0-.421.059-.588.176s-.309.311-.422.58c-.075.173-.191.556-.349,1.146-.158.593-.307,1.007-.447,1.244-.179.308-.401.537-.667.688-.265.151-.562.227-.891.227-.361,0-.699-.092-1.013-.277-.314-.184-.553-.453-.715-.809-.163-.354-.244-.748-.244-1.182,0-.478.085-.898.256-1.264.171-.364.422-.645.754-.842.332-.195.708-.301,1.128-.316l.068.818c-.453.043-.794.192-1.025.445-.231.254-.347.628-.347,1.123,0,.516.105.892.315,1.127.21.236.463.354.759.354.257,0,.469-.083.635-.25.166-.164.336-.593.51-1.285.174-.693.326-1.168.457-1.426.192-.375.436-.652.73-.831s.634-.269,1.018-.269c.381,0,.74.099,1.077.295s.599.479.786.846c.187.368.281.782.281,1.242,0,.583-.094,1.071-.283,1.465-.189.395-.473.703-.852.928-.379.224-.808.342-1.287.354Z" fill="#231f20"/><path d="M100.882,297.958h-7.158v-.791h7.158v.791Z" fill="#231f20"/><path d="M98.289,296.236c-.96,0-1.671-.24-2.134-.721-.384-.401-.576-.891-.576-1.468,0-.642.233-1.166.701-1.573s1.112-.611,1.936-.611c.667,0,1.192.091,1.575.271.382.181.68.442.891.787.211.344.317.72.317,1.127,0,.653-.233,1.182-.698,1.584-.465.403-1.136.604-2.012.604ZM98.289,295.423c.664,0,1.161-.131,1.492-.392s.496-.589.496-.984c0-.393-.166-.719-.498-.979s-.838-.392-1.519-.392c-.641,0-1.127.131-1.458.394-.331.262-.496.588-.496.978,0,.396.165.724.493.984s.825.392,1.489.392Z" fill="#231f20"/><path d="M100.096,289.208l.776-.114c.052.223.078.422.078.598,0,.287-.05.51-.151.668s-.233.27-.398.334-.51.097-1.038.097h-2.983v.58h-.684v-.58h-1.284l-.527-.787h1.812v-.795h.684v.795h3.032c.25,0,.412-.014.483-.041.072-.028.128-.073.171-.137.042-.062.063-.152.063-.27,0-.088-.011-.204-.034-.348Z" fill="#231f20"/><path d="M100.882,283.174v.791h-5.601c.202.191.404.44.605.75.202.309.353.586.454.832h-.85c-.231-.441-.511-.828-.84-1.16-.329-.33-.648-.564-.957-.703v-.51h7.188Z" fill="#231f20"/></svg>