<?xml version="1.0" encoding="UTF-8"?><svg id="a" xmlns="http://www.w3.org/2000/svg" width="4.75in" height="1.258in" viewBox="0 0 342 90.602"><polyline points="143.804 59.768 143.804 79.432 222.424 79.432" fill="none" stroke="#fff" stroke-linecap="round" stroke-linejoin="round" stroke-width="6.148"/><polyline points="143.804 59.768 143.804 79.432 222.424 79.432" fill="none" stroke="#a25eb5" stroke-miterlimit="10" stroke-width="2.591"/><path d="M9.138,70.46h1.283l2.086,3.242,2.086-3.242h1.284v6.857h-1.205v-4.918l-2.165,3.233h-.039l-2.146-3.214v4.898h-1.185v-6.857Z" fill="#58595b" stroke-width="0"/><path d="M17.157,75.828v-.02c0-1.116.882-1.665,2.146-1.665.578,0,.989.088,1.391.216v-.128c0-.734-.451-1.126-1.283-1.126-.578,0-1.009.127-1.479.323l-.323-.931c.578-.255,1.137-.422,1.959-.422.774,0,1.352.206,1.714.578.382.372.558.921.558,1.597v3.066h-1.156v-.646c-.353.421-.892.754-1.685.754-.97,0-1.842-.558-1.842-1.597ZM20.713,75.456v-.353c-.304-.117-.705-.206-1.175-.206-.764,0-1.215.323-1.215.862v.02c0,.5.441.784,1.009.784.784,0,1.381-.451,1.381-1.107Z" fill="#58595b" stroke-width="0"/><path d="M23.255,72.145h1.195v.794c.333-.479.813-.901,1.617-.901,1.166,0,1.841.784,1.841,1.979v3.302h-1.185v-2.938c0-.804-.402-1.264-1.107-1.264-.686,0-1.166.479-1.166,1.283v2.919h-1.195v-5.173Z" fill="#58595b" stroke-width="0"/><path d="M28.99,75.828v-.02c0-1.116.882-1.665,2.146-1.665.578,0,.989.088,1.391.216v-.128c0-.734-.451-1.126-1.283-1.126-.578,0-1.009.127-1.479.323l-.323-.931c.578-.255,1.137-.422,1.959-.422.774,0,1.352.206,1.714.578.382.372.558.921.558,1.597v3.066h-1.156v-.646c-.353.421-.892.754-1.685.754-.97,0-1.842-.558-1.842-1.597ZM32.546,75.456v-.353c-.304-.117-.705-.206-1.175-.206-.764,0-1.215.323-1.215.862v.02c0,.5.441.784,1.009.784.784,0,1.381-.451,1.381-1.107Z" fill="#58595b" stroke-width="0"/><path d="M35.088,78.287l.44-.892c.559.343,1.137.539,1.842.539,1.058,0,1.636-.539,1.636-1.577v-.392c-.431.548-.97.94-1.822.94-1.225,0-2.351-.901-2.351-2.42v-.02c0-1.528,1.146-2.43,2.351-2.43.872,0,1.411.401,1.812.882v-.774h1.185v4.115c0,.871-.225,1.518-.656,1.949-.47.47-1.195.695-2.126.695-.852,0-1.646-.216-2.312-.617ZM39.016,74.477v-.02c0-.843-.696-1.411-1.519-1.411s-1.469.559-1.469,1.411v.02c0,.843.656,1.42,1.469,1.42.823,0,1.519-.577,1.519-1.42Z" fill="#58595b" stroke-width="0"/><path d="M41.392,74.751v-.02c0-1.479,1.048-2.694,2.527-2.694,1.646,0,2.479,1.293,2.479,2.782,0,.107-.01.216-.02.333h-3.801c.127.843.725,1.312,1.489,1.312.578,0,.989-.215,1.401-.617l.695.617c-.49.588-1.166.97-2.116.97-1.499,0-2.655-1.087-2.655-2.684ZM45.222,74.369c-.078-.765-.529-1.362-1.312-1.362-.725,0-1.234.559-1.342,1.362h2.655Z" fill="#58595b" stroke-width="0"/><path d="M47.587,72.145h1.195v.784c.333-.46.784-.892,1.577-.892.745,0,1.273.362,1.548.911.412-.549.96-.911,1.744-.911,1.127,0,1.812.715,1.812,1.979v3.302h-1.186v-2.938c0-.823-.382-1.264-1.048-1.264-.646,0-1.107.45-1.107,1.283v2.919h-1.186v-2.948c0-.804-.392-1.254-1.048-1.254s-1.107.489-1.107,1.283v2.919h-1.195v-5.173Z" fill="#58595b" stroke-width="0"/><path d="M56.616,74.751v-.02c0-1.479,1.048-2.694,2.527-2.694,1.646,0,2.479,1.293,2.479,2.782,0,.107-.01.216-.02.333h-3.801c.127.843.725,1.312,1.489,1.312.578,0,.989-.215,1.401-.617l.695.617c-.49.588-1.166.97-2.116.97-1.499,0-2.655-1.087-2.655-2.684ZM60.446,74.369c-.078-.765-.529-1.362-1.312-1.362-.725,0-1.234.559-1.342,1.362h2.655Z" fill="#58595b" stroke-width="0"/><path d="M62.812,72.145h1.195v.794c.333-.479.813-.901,1.617-.901,1.166,0,1.841.784,1.841,1.979v3.302h-1.185v-2.938c0-.804-.402-1.264-1.107-1.264-.686,0-1.166.479-1.166,1.283v2.919h-1.195v-5.173Z" fill="#58595b" stroke-width="0"/><path d="M69.145,75.887v-2.723h-.656v-1.02h.656v-1.42h1.186v1.42h1.391v1.02h-1.391v2.537c0,.46.235.646.637.646.265,0,.5-.059.735-.177v.97c-.294.167-.617.265-1.068.265-.872,0-1.489-.382-1.489-1.519Z" fill="#58595b" stroke-width="0"/><path d="M75.449,76.642l.529-.804c.568.422,1.166.637,1.695.637.509,0,.803-.215.803-.558v-.021c0-.401-.548-.538-1.156-.725-.764-.216-1.616-.529-1.616-1.509v-.02c0-.989.813-1.587,1.841-1.587.647,0,1.352.226,1.901.588l-.47.843c-.5-.304-1.029-.49-1.46-.49-.46,0-.725.226-.725.51v.02c0,.382.558.539,1.166.734.754.235,1.606.578,1.606,1.509v.02c0,1.088-.842,1.626-1.92,1.626-.735,0-1.548-.255-2.194-.773Z" fill="#58595b" stroke-width="0"/><path d="M80.193,72.145h1.225l1.038,3.547,1.146-3.566h1.019l1.146,3.566,1.058-3.547h1.195l-1.695,5.212h-1.068l-1.156-3.536-1.166,3.536h-1.058l-1.685-5.212Z" fill="#58595b" stroke-width="0"/><path d="M89.095,70.225h1.273v1.127h-1.273v-1.127ZM89.134,72.145h1.195v5.173h-1.195v-5.173Z" fill="#58595b" stroke-width="0"/><path d="M92.124,75.887v-2.723h-.656v-1.02h.656v-1.42h1.186v1.42h1.391v1.02h-1.391v2.537c0,.46.235.646.637.646.265,0,.5-.059.735-.177v.97c-.294.167-.617.265-1.068.265-.872,0-1.489-.382-1.489-1.519Z" fill="#58595b" stroke-width="0"/><path d="M95.477,74.761v-.02c0-1.47,1.136-2.704,2.694-2.704.97,0,1.577.362,2.067.892l-.744.794c-.363-.373-.745-.647-1.333-.647-.862,0-1.499.745-1.499,1.646v.02c0,.921.637,1.655,1.548,1.655.559,0,.96-.255,1.342-.637l.715.705c-.51.568-1.107.97-2.116.97-1.538,0-2.674-1.204-2.674-2.674Z" fill="#58595b" stroke-width="0"/><path d="M101.349,70.166h1.195v2.772c.333-.479.813-.901,1.617-.901,1.166,0,1.841.784,1.841,1.979v3.302h-1.185v-2.938c0-.804-.402-1.264-1.107-1.264-.686,0-1.166.479-1.166,1.283v2.919h-1.195v-7.151Z" fill="#58595b" stroke-width="0"/><polygon points="156.524 48.359 8.776 48.359 16.735 41.521 149.062 41.521 156.524 48.359 156.524 48.359 156.524 48.359" fill="#58595b" fill-rule="evenodd" stroke-width="0"/><polygon points="8.776 50.602 156.524 50.602 156.524 64.508 8.776 64.508 8.776 50.602 8.776 50.602" fill="#58595b" fill-rule="evenodd" stroke-width="0"/><path d="M114.574,61.801h-4.851v-3.028h4.851v3.028h0ZM114.574,56.585h-4.851v-3.026h4.851v3.026h0ZM120.247,61.801h-4.853v-3.028h4.853v3.028h0ZM120.247,56.585h-4.853v-3.026h4.853v3.026h0ZM125.918,61.801h-4.852v-3.028h4.852v3.028h0ZM125.918,56.585h-4.852v-3.026h4.852v3.026h0ZM131.588,61.801h-4.851v-3.028h4.851v3.028h0ZM131.588,56.585h-4.851v-3.026h4.851v3.026h0ZM108.904,56.585h-4.852v-3.026h4.852v3.026h0ZM103.234,61.801h-4.852v-3.028h4.852v3.028h0ZM103.234,56.585h-4.852v-3.026h4.852v3.026h0ZM108.904,61.801h-4.852v-3.028h4.852v3.028h0Z" fill="#fff" fill-rule="evenodd" stroke-width="0"/><path d="M76.767,61.801h-4.852v-3.028h4.852v3.028h0ZM76.767,56.585h-4.852v-3.026h4.852v3.026h0ZM82.438,61.801h-4.852v-3.028h4.852v3.028h0ZM82.438,56.585h-4.852v-3.026h4.852v3.026h0ZM88.111,61.801h-4.853v-3.028h4.853v3.028h0ZM88.111,56.585h-4.853v-3.026h4.853v3.026h0ZM93.781,61.801h-4.852v-3.028h4.852v3.028h0ZM93.781,56.585h-4.852v-3.026h4.852v3.026h0ZM71.096,56.585h-4.852v-3.026h4.852v3.026h0ZM65.426,61.801h-4.852v-3.028h4.852v3.028h0ZM65.426,56.585h-4.852v-3.026h4.852v3.026h0ZM71.096,61.801h-4.852v-3.028h4.852v3.028h0Z" fill="#fff" fill-rule="evenodd" stroke-width="0"/><path d="M26.089,61.541h-12.738v-4h12.738v4h0ZM42.256,61.541h-12.737v-4h12.737v4h0Z" fill="#fff" fill-rule="evenodd" stroke-width="0"/><rect x="232.99" y="16.355" width="84.152" height="50.391" fill="#fff" stroke-width="0"/><rect x="234.386" y="18.554" width="81.295" height="45.658" fill="#fff" stroke-width="0"/><path d="M325.045,14.39c0-3.899-3.158-7.057-7.055-7.057h-85.844c-3.897,0-7.053,3.158-7.053,7.057v55.124h99.952V14.39ZM275.068,9.836c1.369,0,2.482,1.111,2.482,2.482s-1.113,2.482-2.482,2.482-2.484-1.111-2.484-2.482,1.111-2.482,2.484-2.482ZM317.142,66.747h-84.152V16.355h84.152v50.391ZM214.812,73.48v.317c0,4.696,3.812,8.506,8.506,8.506h103.5c4.696,0,8.506-3.81,8.506-8.506v-.317h-120.512Z" fill="#58595b" stroke-width="0"/><path d="M258.72,37.536h1.205v5.76h3.604v1.097h-4.81v-6.857Z" fill="#58595b" stroke-width="0"/><path d="M264.288,42.904v-.02c0-1.117.882-1.665,2.146-1.665.578,0,.989.088,1.392.215v-.127c0-.734-.451-1.126-1.284-1.126-.577,0-1.009.127-1.479.323l-.323-.931c.578-.254,1.136-.421,1.959-.421.773,0,1.352.206,1.714.578.383.373.559.921.559,1.597v3.066h-1.156v-.646c-.353.421-.891.754-1.685.754-.97,0-1.842-.559-1.842-1.597ZM267.845,42.532v-.353c-.304-.118-.706-.206-1.176-.206-.765,0-1.215.323-1.215.862v.02c0,.5.44.784,1.009.784.784,0,1.382-.451,1.382-1.107Z" fill="#58595b" stroke-width="0"/><path d="M270.386,39.221h1.195v.862c.382-.539.921-.97,1.764-.97,1.215,0,2.399.96,2.399,2.684v.02c0,1.714-1.175,2.684-2.399,2.684-.862,0-1.401-.431-1.764-.911v2.371h-1.195v-6.74ZM274.54,41.818v-.02c0-.999-.687-1.655-1.479-1.655-.804,0-1.509.666-1.509,1.655v.02c0,.989.705,1.655,1.509,1.655.812,0,1.479-.637,1.479-1.655Z" fill="#58595b" stroke-width="0"/><path d="M277.219,42.964v-2.723h-.656v-1.019h.656v-1.42h1.186v1.42h1.391v1.019h-1.391v2.537c0,.46.235.646.637.646.265,0,.5-.059.734-.176v.97c-.294.167-.617.265-1.067.265-.872,0-1.489-.382-1.489-1.519Z" fill="#58595b" stroke-width="0"/><path d="M280.571,41.837v-.02c0-1.479,1.176-2.704,2.763-2.704s2.753,1.205,2.753,2.684v.02c0,1.469-1.176,2.694-2.772,2.694-1.577,0-2.743-1.205-2.743-2.674ZM284.901,41.837v-.02c0-.911-.656-1.666-1.587-1.666-.95,0-1.558.745-1.558,1.646v.02c0,.901.656,1.655,1.577,1.655.96,0,1.567-.745,1.567-1.636Z" fill="#58595b" stroke-width="0"/><path d="M287.286,39.221h1.195v.862c.382-.539.921-.97,1.764-.97,1.215,0,2.399.96,2.399,2.684v.02c0,1.714-1.175,2.684-2.399,2.684-.862,0-1.401-.431-1.764-.911v2.371h-1.195v-6.74ZM291.44,41.818v-.02c0-.999-.687-1.655-1.479-1.655-.804,0-1.509.666-1.509,1.655v.02c0,.989.705,1.655,1.509,1.655.812,0,1.479-.637,1.479-1.655Z" fill="#58595b" stroke-width="0"/></svg>