<?xml version="1.0" encoding="UTF-8"?><svg id="a" xmlns="http://www.w3.org/2000/svg" width="30" height="30" viewBox="0 0 30 30"><path d="M29.492,15.07c0,8.008-6.49,14.498-14.498,14.498S.492,23.078.492,15.07,6.986.569,14.994.569s14.498,6.494,14.498,14.501Z" fill="#000" stroke-width="0"/><path d="M11.476,20.695c-.763-.93-1.144-2.06-1.144-3.392h1.878c.08.926.253,1.599.52,2.018.466.753,1.309,1.129,2.527,1.129.946,0,1.705-.253,2.278-.759s.859-1.159.859-1.958c0-.986-.301-1.676-.904-2.068-.603-.393-1.44-.59-2.512-.59-.12,0-.242.002-.365.006-.124.003-.249.008-.375.015v-1.589c.186.021.343.033.469.04s.263.01.41.01c.673,0,1.226-.106,1.658-.319.759-.373,1.139-1.039,1.139-1.998,0-.713-.253-1.262-.759-1.648-.506-.386-1.096-.579-1.769-.579-1.199,0-2.028.399-2.487,1.198-.253.439-.396,1.066-.43,1.879h-1.778c0-1.065.213-1.972.64-2.718.732-1.332,2.021-1.998,3.866-1.998,1.458,0,2.587.324,3.387.974s1.199,1.591,1.199,2.822c0,.88-.236,1.593-.709,2.139-.293.34-.673.605-1.139.799.752.207,1.34.604,1.763,1.194.423.589.634,1.311.634,2.162,0,1.366-.449,2.478-1.349,3.337-.899.859-2.174,1.289-3.826,1.289-1.692,0-2.919-.465-3.682-1.394Z" fill="#fff" stroke-width="0"/></svg>