<?xml version="1.0" encoding="UTF-8"?><svg id="a" xmlns="http://www.w3.org/2000/svg" width="30" height="30" viewBox="0 0 30 30"><path d="M29.492,15.07c0,8.008-6.49,14.498-14.498,14.498S.492,23.078.492,15.07,6.986.569,14.994.569s14.498,6.494,14.498,14.501Z"/><path d="M6.041,11.661v-1.379c1.299-.127,2.205-.338,2.717-.635.513-.296.896-.997,1.149-2.103h1.419v14.246h-1.918v-10.13h-3.367Z" fill="#fff"/><path d="M22.967,9.772c.639,1.179.959,2.794.959,4.846,0,1.944-.29,3.553-.869,4.825-.839,1.825-2.211,2.737-4.116,2.737-1.719,0-2.998-.746-3.836-2.238-.699-1.245-1.049-2.917-1.049-5.015,0-1.625.21-3.021.629-4.187.786-2.171,2.208-3.257,4.266-3.257,1.852,0,3.19.763,4.016,2.288ZM21.157,19.303c.554-.826.831-2.364.831-4.616,0-1.625-.2-2.962-.601-4.011s-1.177-1.573-2.332-1.573c-1.061,0-1.836.498-2.327,1.493-.49.996-.735,2.463-.735,4.401,0,1.458.157,2.631.47,3.517.48,1.352,1.301,2.027,2.462,2.027.934,0,1.678-.413,2.231-1.238Z" fill="#fff"/></svg>