<?xml version="1.0" encoding="UTF-8"?><svg id="a" xmlns="http://www.w3.org/2000/svg" width="30" height="30" viewBox="0 0 30 30"><path d="M29.492,15.07c0,8.008-6.49,14.498-14.498,14.498S.492,23.078.492,15.07,6.986.569,14.994.569s14.498,6.494,14.498,14.501Z"/><path d="M20.451,7.815v1.568c-.459.446-1.071,1.223-1.833,2.328s-1.437,2.298-2.023,3.576c-.579,1.246-1.019,2.381-1.318,3.407-.193.659-.443,1.722-.75,3.187h-1.988c.453-2.73,1.452-5.448,2.997-8.152.913-1.585,1.872-2.953,2.877-4.105h-7.912v-1.809h9.95Z" fill="#fff"/></svg>