<?xml version="1.0" encoding="UTF-8"?><svg id="a" xmlns="http://www.w3.org/2000/svg" width="30" height="30" viewBox="0 0 30 30"><path d="M29.492,15.07c0,8.008-6.49,14.498-14.498,14.498S.492,23.078.492,15.07,6.986.569,14.994.569s14.498,6.494,14.498,14.501Z"/><path d="M11.699,13.145c-.526-.532-.79-1.226-.79-2.078,0-1.065.386-1.981,1.158-2.747.771-.766,1.866-1.148,3.283-1.148,1.371,0,2.445.361,3.223,1.083.778.724,1.167,1.567,1.167,2.533,0,.893-.226,1.615-.679,2.168-.253.312-.646.619-1.178.919.595.273,1.063.586,1.404.939.635.666.953,1.531.953,2.597,0,1.259-.423,2.326-1.269,3.202-.846.876-2.042,1.313-3.586,1.313-1.392,0-2.569-.378-3.532-1.134s-1.444-1.853-1.444-3.292c0-.846.207-1.576.62-2.192.413-.616,1.025-1.087,1.838-1.414-.5-.213-.889-.463-1.168-.749ZM17.499,19.614c.549-.449.824-1.12.824-2.013,0-.926-.283-1.629-.849-2.108-.566-.479-1.292-.719-2.178-.719-.859,0-1.56.244-2.103.734-.543.489-.814,1.167-.814,2.032,0,.746.248,1.391.744,1.934s1.264.814,2.303.814c.833,0,1.524-.225,2.073-.675ZM17.165,12.539c.445-.444.668-.974.668-1.588,0-.533-.212-1.024-.638-1.472-.425-.447-1.073-.671-1.944-.671-.864,0-1.489.224-1.875.671-.386.447-.579.972-.579,1.572,0,.674.25,1.201.748,1.582s1.086.571,1.765.571c.791,0,1.409-.223,1.854-.666Z" fill="#fff"/></svg>