<?xml version="1.0" encoding="UTF-8"?><svg id="a" xmlns="http://www.w3.org/2000/svg" width="30" height="30" viewBox="0 0 30 30"><path d="M29.492,15.07c0,8.008-6.49,14.498-14.498,14.498S.492,23.078.492,15.07,6.986.569,14.994.569s14.498,6.494,14.498,14.501Z" fill="#000" stroke-width="0"/><path d="M10.973,18.208c.443-.912,1.307-1.742,2.592-2.487l1.918-1.109c.859-.499,1.462-.926,1.809-1.28.546-.554.819-1.188.819-1.901,0-.834-.25-1.496-.75-1.987-.5-.49-1.166-.735-1.998-.735-1.232,0-2.085.468-2.558,1.402-.253.502-.393,1.196-.419,2.084h-1.828c.02-1.245.25-2.261.689-3.047.779-1.385,2.155-2.077,4.126-2.077,1.639,0,2.836.442,3.592,1.328s1.134,1.871,1.134,2.957c0,1.146-.403,2.125-1.209,2.938-.466.473-1.302,1.045-2.507,1.718l-1.369.76c-.653.359-1.166.702-1.539,1.028-.666.58-1.085,1.223-1.259,1.929h7.812v1.698h-9.821c.067-1.232.321-2.305.765-3.217Z" fill="#fff" stroke-width="0"/></svg>