<?xml version="1.0" encoding="UTF-8"?><svg id="a" xmlns="http://www.w3.org/2000/svg" width="30" height="30" viewBox="0 0 30 30"><path d="M29.492,15.07c0,8.008-6.49,14.498-14.498,14.498S.492,23.078.492,15.07,6.986.569,14.994.569s14.498,6.494,14.498,14.501Z" fill="#000" stroke-width="0"/><path d="M12.096,18.417c.12,1.025.596,1.735,1.429,2.128.426.2.919.3,1.479.3,1.066,0,1.855-.34,2.368-1.02.513-.679.77-1.432.77-2.258,0-.999-.305-1.771-.914-2.317s-1.34-.819-2.193-.819c-.62,0-1.151.12-1.594.359-.443.24-.821.573-1.134.999l-1.559-.09,1.089-7.702h7.433v1.738h-6.084l-.609,3.977c.333-.254.649-.443.949-.57.533-.22,1.149-.329,1.848-.329,1.312,0,2.424.423,3.337,1.269s1.369,1.918,1.369,3.217c0,1.353-.418,2.545-1.254,3.577s-2.169,1.548-4.001,1.548c-1.166,0-2.196-.328-3.092-.983-.896-.656-1.397-1.664-1.504-3.022h1.868Z" fill="#fff" stroke-width="0"/></svg>