<?xml version="1.0" encoding="UTF-8"?><svg id="a" xmlns="http://www.w3.org/2000/svg" width="30" height="30" viewBox="0 0 30 30"><path d="M29.492,15.07c0,8.008-6.49,14.498-14.498,14.498S.492,23.078.492,15.07,6.986.569,14.994.569s14.498,6.494,14.498,14.501Z"/><path d="M18.622,8.759c.629.829.944,1.683.944,2.562h-1.778c-.106-.566-.276-1.009-.509-1.329-.433-.6-1.089-.899-1.968-.899-1.006,0-1.805.465-2.397,1.395-.593.929-.923,2.259-.989,3.99.413-.605.933-1.059,1.559-1.358.573-.267,1.212-.399,1.918-.399,1.199,0,2.245.383,3.137,1.148.892.767,1.338,1.908,1.338,3.427,0,1.299-.423,2.45-1.269,3.452s-2.051,1.504-3.617,1.504c-1.338,0-2.494-.508-3.466-1.524-.973-1.016-1.459-2.726-1.459-5.13,0-1.778.217-3.286.649-4.525.833-2.371,2.354-3.557,4.566-3.557,1.598,0,2.712.415,3.342,1.244ZM17.273,19.699c.469-.636.704-1.388.704-2.253,0-.732-.21-1.431-.629-2.093-.419-.663-1.182-.994-2.288-.994-.773,0-1.451.256-2.033.769-.583.514-.874,1.286-.874,2.318,0,.905.265,1.667.794,2.282.53.616,1.264.925,2.203.925.945,0,1.653-.318,2.123-.954Z" fill="#fff"/></svg>