<?xml version="1.0" encoding="UTF-8"?><svg id="a" xmlns="http://www.w3.org/2000/svg" width="30" height="30" viewBox="0 0 30 30"><path d="M29.492,15.07c0,8.008-6.49,14.498-14.498,14.498S.492,23.078.492,15.07,6.986.569,14.994.569s14.498,6.494,14.498,14.501Z"/><path d="M7.615,11.661v-1.379c1.299-.127,2.205-.338,2.717-.635.513-.296.896-.997,1.149-2.103h1.419v14.246h-1.918v-10.13h-3.367Z" fill="#fff"/><path d="M15.439,11.661v-1.379c1.299-.127,2.205-.338,2.717-.635.513-.296.896-.997,1.149-2.103h1.419v14.246h-1.918v-10.13h-3.367Z" fill="#fff"/></svg>