<?xml version="1.0" encoding="UTF-8"?><svg id="a" xmlns="http://www.w3.org/2000/svg" width="30" height="30" viewBox="0 0 30 30"><path d="M29.492,15.07c0,8.008-6.49,14.498-14.498,14.498S.492,23.078.492,15.07,6.986.569,14.994.569s14.498,6.494,14.498,14.501Z"/><path d="M12.469,18.05c.053.992.436,1.679,1.149,2.059.366.199.779.299,1.239.299.859,0,1.592-.357,2.198-1.073.606-.716,1.036-2.17,1.289-4.361-.4.633-.894,1.078-1.484,1.334-.589.257-1.224.385-1.903.385-1.379,0-2.469-.43-3.272-1.287-.803-.858-1.204-1.963-1.204-3.313,0-1.298.396-2.438,1.188-3.424.792-.984,1.961-1.477,3.507-1.477,2.084,0,3.523.938,4.316,2.815.439,1.031.659,2.323.659,3.874,0,1.75-.263,3.301-.789,4.652-.873,2.249-2.351,3.374-4.436,3.374-1.398,0-2.461-.366-3.187-1.099-.726-.732-1.089-1.652-1.089-2.758h1.818ZM17.149,14.41c.589-.469.884-1.288.884-2.458,0-1.051-.265-1.834-.794-2.35-.529-.515-1.204-.772-2.023-.772-.879,0-1.577.294-2.093.883-.516.588-.774,1.375-.774,2.358,0,.932.226,1.671.679,2.22.453.549,1.175.822,2.168.822.712,0,1.364-.233,1.953-.703Z" fill="#fff"/></svg>