<?xml version="1.0" encoding="UTF-8"?><svg id="a" xmlns="http://www.w3.org/2000/svg" width="1.76in" height=".35in" viewBox="0 0 126.72 25.2"><path d="M.993,12.411c-.546.762-.827,1.569-.827,2.263,0,1.036.627,1.819,1.931,1.819,1.644,0,1.558-1.326-.476-3.346-.238-.237-.448-.483-.628-.735ZM.166,10.148c0,.693.281,1.501.827,2.263.18.252.39.499.628.735,2.034,2.02,2.12,3.346.476,3.346h63.056v-8.163H2.097c-1.304,0-1.931.783-1.931,1.819ZM65.154,6.745v11.333l20.111,1.056V5.688l-20.111,1.056ZM87.199,2.327v20.168h1.644V2.327h-1.644ZM85.265,5.688v13.445l1.934,3.362V2.327l-1.934,3.361ZM91.357,3.768c-1.402,0-2.299-.978-2.514-1.441v20.168c.215-.463,1.112-1.441,2.514-1.441,4.158,0,8.459,3.601,16.922,3.601V.166c-8.463,0-12.764,3.601-16.922,3.601ZM108.279,18.077v5.378h17.887v-5.378h-17.887ZM108.279,18.077h17.887V6.745h-17.887v11.333ZM108.279,6.745h17.887V1.367h-17.887v5.378Z" fill="#2968b2" fill-rule="evenodd" stroke="#e6e7e8" stroke-miterlimit="10" stroke-width=".332"/><path d="M.993,12.411c-.546.762-.827,1.569-.827,2.263,0,1.036.627,1.819,1.931,1.819,1.644,0,1.558-1.326-.476-3.346-.238-.237-.448-.483-.628-.735ZM.166,10.148c0,.693.281,1.501.827,2.263.18.252.39.499.628.735,2.034,2.02,2.12,3.346.476,3.346h63.056v-8.163H2.097c-1.304,0-1.931.783-1.931,1.819ZM65.154,6.745v11.333l20.111,1.056V5.688l-20.111,1.056ZM87.199,2.327v20.168h1.644V2.327h-1.644ZM85.265,5.688v13.445l1.934,3.362V2.327l-1.934,3.361ZM91.357,3.768c-1.402,0-2.299-.978-2.514-1.441v20.168c.215-.463,1.112-1.441,2.514-1.441,4.158,0,8.459,3.601,16.922,3.601V.166c-8.463,0-12.764,3.601-16.922,3.601ZM108.279,18.077v5.378h17.887v-5.378h-17.887ZM108.279,18.077h17.887V6.745h-17.887v11.333ZM108.279,6.745h17.887V1.367h-17.887v5.378Z" fill="none" stroke="#759ed3" stroke-linecap="round" stroke-linejoin="round" stroke-width=".015"/><path d="M67.861,6.603v6.865c0,.477.39.864.87.864h0c.481,0,.87-.387.87-.864h0v-6.956l-1.74.091ZM74.823,6.237v7.231c0,.477.39.864.87.864h0c.481,0,.87-.387.87-.864v-7.322l-1.74.091ZM81.784,5.871v7.596c0,.477.39.864.87.864h0c.481,0,.87-.387.87-.864h0v-7.688l-1.74.091ZM80.044,18.86v-7.505c0-.477-.39-.865-.871-.865s-.87.387-.87.865v7.413l1.741.091ZM73.082,18.494v-7.139c0-.477-.39-.865-.87-.865s-.87.387-.87.865v7.048l1.74.091Z" fill="#4174ba" fill-rule="evenodd" stroke-width="0"/></svg>