<?xml version="1.0" encoding="UTF-8"?><svg id="a" xmlns="http://www.w3.org/2000/svg" width="2.61in" height="1.1in" xmlns:xlink="http://www.w3.org/1999/xlink" viewBox="0 0 187.92 79.2"><defs><clipPath id="b"><path d="M3.682,42.769c0,17.809,40.295,32.247,90,32.247s90-14.438,90-32.247S143.387,10.523,93.682,10.523,3.682,24.96,3.682,42.769" fill="none" stroke-width="0"/></clipPath></defs><line x1="47.573" y1="40.739" x2="45.714" y2="39.682" fill="none" stroke="#cdde00" stroke-miterlimit="10" stroke-width="1.309"/><path d="M183.682,42.77c0,17.809-40.295,32.247-90,32.247S3.682,60.579,3.682,42.77,43.977,10.523,93.682,10.523s90,14.437,90,32.247" fill="#fff" stroke-width="0"/><ellipse cx="93.682" cy="42.77" rx="90" ry="32.247" fill="none" stroke="#fff" stroke-miterlimit="10" stroke-width="7.364"/><g clip-path="url(#b)"><polygon points="-8.115 -16.281 -8.115 19.922 140.306 56.25 140.306 20.046 -8.115 -16.281" fill="#bcbdbf" stroke-width="0"/><polygon points="-8.115 -16.281 -8.115 19.922 140.306 56.25 140.306 20.046 -8.115 -16.281" fill="none" stroke="#221f1f" stroke-miterlimit="10" stroke-width=".276"/><polyline points="157.789 13.97 145.514 19.55 145.514 56.25 157.789 50.174" fill="none" stroke="#221f1f" stroke-miterlimit="10" stroke-width=".276"/><polyline points="157.789 12.111 143.902 18.682 -6.367 -17.645" fill="none" stroke="#221f1f" stroke-miterlimit="10" stroke-width=".276"/><polyline points="157.789 51.662 142.291 58.729 -9.83 21.533" fill="none" stroke="#221f1f" stroke-miterlimit="10" stroke-width=".276"/><line x1="140.306" y1="20.046" x2="142.909" y2="20.233" fill="none" stroke="#221f1f" stroke-miterlimit="10" stroke-width=".276"/><line x1="142.91" y1="20.233" x2="145.514" y2="19.55" fill="none" stroke="#221f1f" stroke-miterlimit="10" stroke-width=".276"/><line x1="141.608" y1="20.233" x2="141.608" y2="58.565" fill="none" stroke="#221f1f" stroke-miterlimit="10" stroke-width=".276"/><line x1="143.305" y1="20.233" x2="143.305" y2="58.266" fill="none" stroke="#221f1f" stroke-miterlimit="10" stroke-width=".276"/><line x1="144.584" y1="18.682" x2="144.398" y2="56.302" fill="none" stroke="#221f1f" stroke-miterlimit="10" stroke-width=".276"/><line x1="144.212" y1="56.25" x2="145.514" y2="56.621" fill="none" stroke="#221f1f" stroke-miterlimit="10" stroke-width=".276"/><line x1="141.406" y1="18.078" x2="140.306" y2="20.046" fill="none" stroke="#221f1f" stroke-miterlimit="10" stroke-width=".276"/><line x1="142.497" y1="18.682" x2="141.918" y2="19.89" fill="none" stroke="#221f1f" stroke-miterlimit="10" stroke-width=".276"/><line x1="142.497" y1="18.078" x2="143.531" y2="20.232" fill="none" stroke="#221f1f" stroke-miterlimit="10" stroke-width=".276"/><line x1="140.306" y1="56.25" x2="141.381" y2="56.621" fill="none" stroke="#221f1f" stroke-miterlimit="10" stroke-width=".276"/><line x1="141.381" y1="56.621" x2="143.305" y2="56.621" fill="none" stroke="#221f1f" stroke-miterlimit="10" stroke-width=".276"/><line x1="143.305" y1="56.621" x2="144.398" y2="56.302" fill="none" stroke="#221f1f" stroke-miterlimit="10" stroke-width=".276"/><path d="M48.5,8.399c.277-.164.775-.409,1.32-.663.762-.353,1.613-.723,2.069-.916.331-.139,1.937.251,3.124.538,1.188.287,13.194,3.401,13.644,3.551,1.554.521,1.835.16,1.805,1.903-.023,1.346.019,9.301.019,9.301-.518.356-1.191.669-1.832.909-.409.153-.806.277-1.142.364-.635.165-1.044-.034-1.889-.18" fill="#fff" stroke-width="0"/><path d="M48.5,8.399c.277-.164.775-.409,1.32-.663.762-.353,1.613-.723,2.069-.916.331-.139,1.937.251,3.124.538,1.188.287,13.194,3.401,13.644,3.551,1.554.521,1.835.16,1.805,1.903-.023,1.346.019,9.301.019,9.301-.518.356-1.191.669-1.832.909-.409.153-.806.277-1.142.364-.635.165-1.044-.034-1.889-.18" fill="none" stroke="#221f1f" stroke-miterlimit="10" stroke-width=".276"/><path d="M48.192,9.654c.003.591.208,8.256.142,8.736-.066.482.859.858,1.255.912.396.053,15.118,3.765,15.843,3.874.726.108,1.928.588,1.995-.408.086-1.289-.193-7.981-.255-8.54-.049-.431.275-.754-1.243-1.131-1.518-.376-15.404-4.124-16.768-4.376-1.365-.25-.97.646-.969.933" fill="#fff" stroke-width="0"/><path d="M48.192,9.654c.003.591.208,8.256.142,8.736-.066.482.859.858,1.255.912.396.053,15.118,3.765,15.843,3.874.726.108,1.928.588,1.995-.408.086-1.289-.193-7.981-.255-8.54-.049-.431.275-.754-1.243-1.131-1.518-.376-15.404-4.124-16.768-4.376-1.365-.25-.97.646-.969.933Z" fill="none" stroke="#221f1f" stroke-miterlimit="10" stroke-width=".276"/><line x1="48.5" y1="17.494" x2="62.53" y2="12.202" fill="none" stroke="#221f1f" stroke-miterlimit="10" stroke-width=".276"/><line x1="55.831" y1="10.331" x2="55.808" y2="14.738" fill="none" stroke="#221f1f" stroke-miterlimit="10" stroke-width=".276"/><line x1="55.808" y1="14.738" x2="67.136" y2="17.747" fill="none" stroke="#221f1f" stroke-miterlimit="10" stroke-width=".276"/><polyline points="68.861 23.104 70.957 23.6 70.899 10.747 49.892 5.726 49.892 7.74" fill="none" stroke="#221f1f" stroke-miterlimit="10" stroke-width=".276"/><polyline points="50.397 7.328 50.397 6.314 52.371 6.791" fill="none" stroke="#221f1f" stroke-miterlimit="10" stroke-width=".276"/><polyline points="68.838 10.833 70.481 11.204 70.481 12.747" fill="none" stroke="#221f1f" stroke-miterlimit="10" stroke-width=".276"/><polyline points="69.667 22.672 70.481 22.912 70.48 21.906" fill="none" stroke="#221f1f" stroke-miterlimit="10" stroke-width=".276"/><path d="M-21.755-8.66c.276-.163.775-.409,1.32-.662.761-.354,1.613-.724,2.069-.915.329-.139,1.936.252,3.124.538,1.188.285,13.193,3.4,13.643,3.55C-.044-5.626.236-5.987.207-4.245c-.022,1.345.019,13.764.019,13.764-.517.356-1.19.669-1.83.909-.411.153-.808.278-1.142.364-.635.166-1.045-.035-1.889-.182" fill="#e5e6e6" stroke-width="0"/><path d="M-21.755-8.66c.276-.163.775-.409,1.32-.662.761-.354,1.613-.724,2.069-.915.329-.139,1.936.252,3.124.538,1.188.285,13.193,3.4,13.643,3.55C-.044-5.626.236-5.987.207-4.245c-.022,1.345.019,13.764.019,13.764-.517.356-1.19.669-1.83.909-.411.153-.808.278-1.142.364-.635.166-1.045-.035-1.889-.182" fill="none" stroke="#221f1f" stroke-miterlimit="10" stroke-width=".276"/><polyline points="-1.394 10.51 .703 11.005 .643 -6.311 -20.364 -11.333 -20.364 -9.318" fill="none" stroke="#221f1f" stroke-miterlimit="10" stroke-width=".276"/><polyline points="-.588 10.078 .226 10.318 .225 9.31" fill="none" stroke="#221f1f" stroke-miterlimit="10" stroke-width=".276"/><path d="M88.709,18.349c.276-.165.774-.409,1.32-.663.761-.353,1.613-.724,2.068-.916.332-.138,1.937.251,3.125.539,1.189.287,13.193,3.4,13.644,3.551,1.554.522,1.835.16,1.805,1.903-.023,1.345.019,9.3.019,9.3-.518.357-1.191.669-1.832.91-.409.153-.806.277-1.142.364-.635.165-1.043-.034-1.888-.181" fill="#e5e6e6" stroke-width="0"/><path d="M88.709,18.349c.276-.165.774-.409,1.32-.663.761-.353,1.613-.724,2.068-.916.332-.138,1.937.251,3.125.539,1.189.287,13.193,3.4,13.644,3.551,1.554.522,1.835.16,1.805,1.903-.023,1.345.019,9.3.019,9.3-.518.357-1.191.669-1.832.91-.409.153-.806.277-1.142.364-.635.165-1.043-.034-1.888-.181" fill="none" stroke="#221f1f" stroke-miterlimit="10" stroke-width=".276"/><path d="M88.401,19.605c.003.592.208,8.255.143,8.736-.066.481.858.858,1.254.91.397.054,15.118,3.767,15.843,3.875.726.108,1.929.588,1.995-.406.086-1.291-.193-7.983-.256-8.541-.048-.431.277-.754-1.243-1.131-1.518-.377-15.404-4.126-16.768-4.377-1.365-.25-.97.646-.969.933" fill="#e5e6e6" stroke-width="0"/><path d="M88.401,19.605c.003.592.208,8.255.143,8.736-.066.481.858.858,1.254.91.397.054,15.118,3.767,15.843,3.875.726.108,1.929.588,1.995-.406.086-1.291-.193-7.983-.256-8.541-.048-.431.277-.754-1.243-1.131-1.518-.377-15.404-4.126-16.768-4.377-1.365-.25-.97.646-.969.933Z" fill="none" stroke="#221f1f" stroke-miterlimit="10" stroke-width=".276"/><line x1="88.709" y1="27.445" x2="102.74" y2="22.153" fill="none" stroke="#221f1f" stroke-miterlimit="10" stroke-width=".276"/><line x1="96.04" y1="20.281" x2="96.017" y2="24.689" fill="none" stroke="#221f1f" stroke-miterlimit="10" stroke-width=".276"/><line x1="96.017" y1="24.689" x2="107.346" y2="27.697" fill="none" stroke="#221f1f" stroke-miterlimit="10" stroke-width=".276"/><polyline points="109.069 33.054 111.166 33.55 111.107 20.698 90.101 15.677 90.101 17.691" fill="none" stroke="#221f1f" stroke-miterlimit="10" stroke-width=".276"/><polyline points="90.607 17.278 90.607 16.265 92.58 16.742" fill="none" stroke="#221f1f" stroke-miterlimit="10" stroke-width=".276"/><polyline points="109.046 20.782 110.691 21.154 110.691 22.697" fill="none" stroke="#221f1f" stroke-miterlimit="10" stroke-width=".276"/><polyline points="109.876 32.623 110.691 32.863 110.689 31.857" fill="none" stroke="#221f1f" stroke-miterlimit="10" stroke-width=".276"/><path d="M119.152,28.913c.126.769-.305,1.482-.964,1.591s-1.296-.429-1.422-1.199c-.126-.769.304-1.482.964-1.59.658-.109,1.295.428,1.423,1.198" fill="#fff" stroke-width="0"/><path d="M119.152,28.913c.126.769-.305,1.482-.964,1.591s-1.296-.429-1.422-1.199c-.126-.769.304-1.482.964-1.59.658-.109,1.295.428,1.423,1.198Z" fill="none" stroke="#221f1f" stroke-miterlimit="10" stroke-width=".276"/><path d="M78.792,18.959c.127.77-.304,1.482-.963,1.59-.658.109-1.296-.427-1.422-1.197-.126-.77.304-1.481.963-1.591.659-.108,1.296.428,1.423,1.198" fill="#fff" stroke-width="0"/><path d="M78.792,18.959c.127.77-.304,1.482-.963,1.59-.658.109-1.296-.427-1.422-1.197-.126-.77.304-1.481.963-1.591.659-.108,1.296.428,1.423,1.198Z" fill="none" stroke="#221f1f" stroke-miterlimit="10" stroke-width=".276"/><path d="M143.531,3.97c0,.503-1.156.909-2.583.909s-2.584-.406-2.584-.909,1.157-.909,2.584-.909,2.583.406,2.583.909Z" fill="none" stroke="#221f1f" stroke-miterlimit="10" stroke-width=".276"/><path d="M150.888,30.259c-.497,1.728-1.733,2.888-2.761,2.593-1.028-.297-1.458-1.936-.962-3.663.498-1.728,1.734-2.888,2.762-2.592,1.027.295,1.457,1.936.961,3.663Z" fill="none" stroke="#221f1f" stroke-miterlimit="10" stroke-width=".276"/><path d="M149.321,29.856c-.123.429-.429.717-.684.642-.254-.073-.362-.479-.239-.907.124-.429.431-.716.684-.643.255.073.362.48.239.908Z" fill="none" stroke="#221f1f" stroke-miterlimit="10" stroke-width=".276"/><path d="M150.721,44.699c-.496,1.728-1.735,2.889-2.761,2.593-1.029-.295-1.458-1.936-.962-3.663.498-1.727,1.734-2.888,2.761-2.592,1.03.295,1.459,1.936.962,3.663Z" fill="none" stroke="#221f1f" stroke-miterlimit="10" stroke-width=".276"/><path d="M149.154,44.296c-.123.428-.429.716-.684.643-.254-.074-.362-.48-.239-.908.124-.428.43-.716.684-.642.255.072.362.478.238.907Z" fill="none" stroke="#221f1f" stroke-miterlimit="10" stroke-width=".276"/><path d="M125.263,61.622c1.074.249,2.15.579,2.356.579s.784-.414.784-.91v-4.671c0-.62.487-1.168-1.05-1.544C125.815,54.7.226,23.993.226,23.993c0,0-.227.516-1.923,1.426-1.694.909-5.81,1.86-6.418,2.685-.608.826-1.063,10.458-1.063,10.458,0,0-2.089,1.322,1.063-.62,3.152-1.943,2.905-1.612,2.905-1.612,0,0,.041-1.489.247-.331.207,1.157-.247,4.588.455,5.206.703.621,1.239,1.407,5.126,1.655,3.884.247,21.365,4.215,22.689,4.339,1.322.123,7.852,1.446,8.678,1.694.826.247,3.472.702,6.572-.62,3.099-1.323,12.393-4.667,14.279-4.235,7.962,1.817,72.427,17.585,72.427,17.585" fill="#e5e6e6" stroke-width="0"/><path d="M125.263,61.622c1.074.249,2.15.579,2.356.579s.784-.414.784-.91v-4.671c0-.62.487-1.168-1.05-1.544C125.815,54.7.226,23.993.226,23.993c0,0-.227.516-1.923,1.426-1.694.909-5.81,1.86-6.418,2.685-.608.826-1.063,10.458-1.063,10.458,0,0-2.089,1.322,1.063-.62,3.152-1.943,2.905-1.612,2.905-1.612,0,0,.041-1.489.247-.331.207,1.157-.247,4.588.455,5.206.703.621,1.239,1.407,5.126,1.655,3.884.247,21.365,4.215,22.689,4.339,1.322.123,7.852,1.446,8.678,1.694.826.247,3.472.702,6.572-.62,3.099-1.323,12.393-4.667,14.279-4.235,7.962,1.817,72.427,17.585,72.427,17.585Z" fill="none" stroke="#221f1f" stroke-miterlimit="10" stroke-width=".276"/><path d="M127.825,55.351c.083.712-.01,1.426-.227,1.798-.217.371-.199,4.649-.187,4.835" fill="none" stroke="#221f1f" stroke-miterlimit="10" stroke-width=".276"/><path d="M128.403,56.621s-71.427-17.605-72.888-17.771c-1.46-.165-4.056-.909-7.015,0-2.96.91-11.018,4.112-12.217,4.246-1.199.136-15.292-1.519-20.168-2.965-4.876-1.446-10.271-4.028-11.263-4.463-.992-.434-5.208-1.303-6.572-1.797-1.363-.497-2.602-.497-2.541-1.179.061-.682,2.507-3.037,3.671-3.471,1.164-.434,5.069-1.426,5.628-1.985.558-.556,1.24-.68.186-1.053-1.054-.371-1.735-1.054-3.596-.867-1.86.185-7.688,3.099-8.493,3.533" fill="none" stroke="#221f1f" stroke-miterlimit="10" stroke-width=".276"/><path d="M128.403,58.266s-71.813-18.176-73.275-18.342c-1.46-.165-3.199-.702-6.157.206-2.96.91-11.117,3.834-12.315,3.968-1.198.135-15.83-1.487-20.706-2.932-4.876-1.447-11.076-4.444-12.068-4.877-.991-.436-4.545-1.038-5.931-1.467-1.468-.456-3.079-.703-2.831-1.819" fill="none" stroke="#221f1f" stroke-miterlimit="10" stroke-width=".276"/><line x1="1.655" y1="34.779" x2="1.659" y2="35.684" fill="none" stroke="#221f1f" stroke-miterlimit="10" stroke-width=".276"/><line x1="1.655" y1="34.779" x2="3.902" y2="33.816" fill="none" stroke="#221f1f" stroke-miterlimit="10" stroke-width=".276"/><line x1="4.177" y1="36.421" x2="4.253" y2="35.458" fill="none" stroke="#221f1f" stroke-miterlimit="10" stroke-width=".276"/><line x1="4.253" y1="35.458" x2="6.816" y2="34.779" fill="none" stroke="#221f1f" stroke-miterlimit="10" stroke-width=".276"/><line x1="13.29" y1="40.28" x2="13.553" y2="39.47" fill="none" stroke="#221f1f" stroke-miterlimit="10" stroke-width=".276"/><line x1="13.677" y1="39.47" x2="16.054" y2="38.478" fill="none" stroke="#221f1f" stroke-miterlimit="10" stroke-width=".276"/><line x1="16.219" y1="41.241" x2="16.308" y2="40.187" fill="none" stroke="#221f1f" stroke-miterlimit="10" stroke-width=".276"/><line x1="16.308" y1="40.187" x2="18.533" y2="39.47" fill="none" stroke="#221f1f" stroke-miterlimit="10" stroke-width=".276"/><line x1="32.847" y1="43.826" x2="34.337" y2="42.992" fill="none" stroke="#221f1f" stroke-miterlimit="10" stroke-width=".276"/><line x1="32.847" y1="44.016" x2="32.847" y2="49.075" fill="none" stroke="#221f1f" stroke-miterlimit="10" stroke-width=".276"/><line x1="36.532" y1="42.992" x2="36.903" y2="44.016" fill="none" stroke="#221f1f" stroke-miterlimit="10" stroke-width=".276"/><line x1="36.903" y1="44.016" x2="36.717" y2="48.878" fill="none" stroke="#221f1f" stroke-miterlimit="10" stroke-width=".276"/><line x1="49.459" y1="38.608" x2="49.891" y2="39.47" fill="none" stroke="#221f1f" stroke-miterlimit="10" stroke-width=".276"/><line x1="49.891" y1="39.47" x2="49.891" y2="44.416" fill="none" stroke="#221f1f" stroke-miterlimit="10" stroke-width=".276"/><polygon points="1.031 37.486 1.031 40.714 4.176 39.828 1.031 37.486" fill="none" stroke="#221f1f" stroke-miterlimit="10" stroke-width=".276"/><path d="M24.753,40.131c-.565.356,8.753,2.356,9.583,2.17.831-.185,14.159-4.423,14.718-4.815.557-.392.647-.516-.916-.826-1.564-.309-3.981-.889-5.449-1.22-1.467-.33-1.24-.144-3.285.372-2.045.518-13.928,3.865-14.651,4.319Z" fill="none" stroke="#221f1f" stroke-miterlimit="10" stroke-width=".276"/><line x1="25.691" y1="40.587" x2="41.698" y2="35.916" fill="none" stroke="#221f1f" stroke-miterlimit="10" stroke-width=".276"/><line x1="41.698" y1="35.916" x2="48.922" y2="37.553" fill="none" stroke="#221f1f" stroke-miterlimit="10" stroke-width=".276"/><path d="M-.588,33.003c.791.149,5.337,1.035,6.122,1.251.786.217,5.498,2.406,6.82,2.902,1.323.496,5.993,2.315,6.944,2.314.95,0,1.528.095,4.256-.675,2.728-.771,11.697-3.149,12.978-3.676,1.281-.525,1.487-.633-.497-1.302-1.983-.67-22.73-5.464-24.383-6.043-1.652-.579-3.057-.578-3.926,0-.868.579-4.293,1.323-5.121,1.737-.83.412-3.392,2.23-3.805,2.726-.414.496.219.691.612.765Z" fill="none" stroke="#221f1f" stroke-miterlimit="10" stroke-width=".276"/><path d="M3.758,33.601c-.24-.033-.248-.579,3.058-2.15,3.306-1.57,9.879-1.281,10.333-1.281s8.141,1.901,9.258,2.19c1.116.289,1.446,1.447,1.488,2.328.041.883-2.605,2.466-4.092,2.796-1.487.33-5.785.909-7.232.992,0,0-12.048-4.774-12.813-4.877Z" fill="none" stroke="#221f1f" stroke-miterlimit="10" stroke-width=".276"/><path d="M8.425,35.458c-.717-.541,3.939-.793,6.688-.878,3.193-.098,9.168,2.241,9.879,2.491.711.249-8.684,1.549-8.684,1.549,0,0-7.006-2.496-7.883-3.162Z" fill="none" stroke="#221f1f" stroke-miterlimit="10" stroke-width=".276"/><line x1="17.149" y1="30.172" x2="17.159" y2="34.779" fill="none" stroke="#221f1f" stroke-miterlimit="10" stroke-width=".276"/><line x1="26.406" y1="32.361" x2="26.737" y2="35.916" fill="none" stroke="#221f1f" stroke-miterlimit="10" stroke-width=".276"/><line x1="2.126" y1="33.406" x2="8.35" y2="28.043" fill="none" stroke="#221f1f" stroke-miterlimit="10" stroke-width=".276"/><line x1="8.351" y1="28.042" x2="9.596" y2="28.042" fill="none" stroke="#221f1f" stroke-miterlimit="10" stroke-width=".276"/><line x1="9.906" y1="28.042" x2="16.691" y2="29.724" fill="none" stroke="#221f1f" stroke-miterlimit="10" stroke-width=".276"/><line x1="27.15" y1="32.155" x2="37.287" y2="34.779" fill="none" stroke="#221f1f" stroke-miterlimit="10" stroke-width=".276"/><line x1=".226" y1="25.673" x2=".493" y2="26.659" fill="none" stroke="#221f1f" stroke-miterlimit="10" stroke-width=".276"/><line x1=".493" y1="26.659" x2=".493" y2="28.642" fill="none" stroke="#221f1f" stroke-miterlimit="10" stroke-width=".276"/><line x1="2.604" y1="28.227" x2="2.604" y2="26.165" fill="none" stroke="#221f1f" stroke-miterlimit="10" stroke-width=".276"/><line x1="2.604" y1="26.165" x2="2.99" y2="25.347" fill="none" stroke="#221f1f" stroke-miterlimit="10" stroke-width=".276"/><line x1="-8.351" y1="30.582" x2="1.031" y2="26.659" fill="none" stroke="#221f1f" stroke-miterlimit="10" stroke-width=".276"/><line x1="1.031" y1="26.659" x2="2.797" y2="26.452" fill="none" stroke="#221f1f" stroke-miterlimit="10" stroke-width=".276"/><line x1="2.797" y1="26.452" x2="5.238" y2="27.057" fill="none" stroke="#221f1f" stroke-miterlimit="10" stroke-width=".276"/><line x1="-1.186" y1="29.535" x2="1.552" y2="30.15" fill="none" stroke="#221f1f" stroke-miterlimit="10" stroke-width=".276"/><line x1=".45" y1="28.883" x2="2.354" y2="29.535" fill="none" stroke="#221f1f" stroke-miterlimit="10" stroke-width=".276"/><line x1="4.177" y1="27.686" x2="6.362" y2="28.228" fill="none" stroke="#221f1f" stroke-miterlimit="10" stroke-width=".276"/><line x1="5.238" y1="27.057" x2="7.726" y2="27.774" fill="none" stroke="#221f1f" stroke-miterlimit="10" stroke-width=".276"/><line x1="140.844" y1="61.622" x2="140.844" y2="63.606" fill="none" stroke="#221f1f" stroke-miterlimit="10" stroke-width=".276"/><line x1="143.305" y1="61.787" x2="143.305" y2="63.606" fill="none" stroke="#221f1f" stroke-miterlimit="10" stroke-width=".276"/><line x1="143.571" y1="60.134" x2="143.571" y2="61.415" fill="none" stroke="#221f1f" stroke-miterlimit="10" stroke-width=".276"/><line x1="146.175" y1="59.803" x2="146.133" y2="61.787" fill="none" stroke="#221f1f" stroke-miterlimit="10" stroke-width=".276"/><line x1="149.206" y1="60.589" x2="149.206" y2="62.201" fill="none" stroke="#221f1f" stroke-miterlimit="10" stroke-width=".276"/><line x1="150.266" y1="60.589" x2="150.225" y2="62.201" fill="none" stroke="#221f1f" stroke-miterlimit="10" stroke-width=".276"/><line x1="151.652" y1="59.473" x2="151.652" y2="61.622" fill="none" stroke="#221f1f" stroke-miterlimit="10" stroke-width=".276"/><line x1="150.226" y1="57.2" x2="150.226" y2="58.894" fill="none" stroke="#221f1f" stroke-miterlimit="10" stroke-width=".276"/><path d="M128.477,60.548c1.25.165,10.962,2.769,11.829,2.809.868.041,3.057.498,3.265,0,.207-.495,0-1.735,0-1.735,0,0-.165.041.827,0,.992-.041,2.107-.125,2.976.165.867.29,1.652.868,2.313.827.662-.041,2.15-.992,2.15-.992l-.185-2.397-1.014-.331s.414-.165.662-.848c.248-.682-.207-2.797-.538-2.913" fill="none" stroke="#221f1f" stroke-miterlimit="10" stroke-width=".276"/><path d="M128.621,58.729c.526.155,11.519,2.826,11.871,2.893.352.066,1.984.315,2.355.252.373-.062,1.131-.248.28-.558-.853-.31-1.348-.424-.092-1.01,1.254-.585,1.286-.513,1.642-.503.356.01,1.127-.006,2.965.503,1.839.51,2.314.51,2.583.366.268-.145,1.281-.972,1.281-.972l.155-.339s-2.904-.896-2.944-1.094c-.041-.2-.076-.384.489-.633.565-.248,1.626-.812,1.804-1.171.177-.361-.019-1.173-.195-1.292" fill="none" stroke="#221f1f" stroke-miterlimit="10" stroke-width=".276"/><polygon points="88.977 18.628 58.041 31.526 58.384 43.003 76.369 50.694 80.017 49.01 79.989 47.504 85.392 45.06 85.467 46.492 90.325 44.248 90.172 41.246 107.57 33.003 107.346 23.425 88.977 18.628" fill="#a7a8ab" stroke-width="0"/><polygon points="88.977 18.628 58.041 31.526 58.384 43.003 76.369 50.694 80.017 49.01 79.989 47.504 85.392 45.06 85.467 46.492 90.325 44.248 90.172 41.246 107.57 33.003 107.346 23.425 88.977 18.628" fill="none" stroke="#221f1f" stroke-miterlimit="10" stroke-width=".276"/><line x1="75.621" y1="37.78" x2="107.35" y2="23.681" fill="#a7a8ab" stroke-width="0"/><line x1="75.621" y1="37.78" x2="107.35" y2="23.681" fill="none" stroke="#221f1f" stroke-miterlimit="10" stroke-width=".276"/><line x1="58.041" y1="31.526" x2="75.76" y2="37.638" fill="#a7a8ab" stroke-width="0"/><line x1="58.041" y1="31.526" x2="75.76" y2="37.638" fill="none" stroke="#221f1f" stroke-miterlimit="10" stroke-width=".276"/><polyline points="76.37 50.694 76.013 45.672 73.547 46.469 73.458 43.506 75.927 42.78 75.621 37.78" fill="#a7a8ab" stroke-width="0"/><polyline points="76.37 50.694 76.013 45.672 73.547 46.469 73.458 43.506 75.927 42.78 75.621 37.78" fill="none" stroke="#221f1f" stroke-miterlimit="10" stroke-width=".276"/><path d="M45.882,57.729l24.204-9.638s-.105.065,0,0c2.144-1.328,2.671-5.087,1.132-8.743-1.613-3.832-4.893-6.122-7.392-5.196l-22.919,10.974" fill="#59595c" stroke-width="0"/><path d="M45.882,57.729l24.204-9.638s-.105.065,0,0c2.144-1.328,2.671-5.087,1.132-8.743-1.613-3.832-4.893-6.122-7.392-5.196l-22.919,10.974" fill="none" stroke="#221f1f" stroke-miterlimit="10" stroke-width=".276"/><path d="M48.189,49.405c1.386,3.25.866,6.63-1.124,7.858-.132.082-.272.155-.416.217-2.332.994-5.42-1.01-6.898-4.476-1.293-3.031-.927-6.176.744-7.583.239-.201.506-.368.796-.492,2.334-.994,5.419,1.01,6.898,4.476" fill="#59595c" stroke-width="0"/><path d="M48.189,49.405c1.386,3.25.866,6.63-1.124,7.858-.132.082-.272.155-.416.217-2.332.994-5.42-1.01-6.898-4.476-1.293-3.031-.927-6.176.744-7.583.239-.201.506-.368.796-.492,2.334-.994,5.419,1.01,6.898,4.476Z" fill="none" stroke="#221f1f" stroke-miterlimit="10" stroke-width=".276"/><path d="M50.925,40.336c.105-.064.22-.121.336-.17,2.331-.994,5.475,1.147,7.025,4.781,1.509,3.536.953,7.184-1.226,8.294-.058.032-.121.06-.183.088" fill="#59595c" stroke-width="0"/><path d="M50.925,40.336c.105-.064.22-.121.336-.17,2.331-.994,5.475,1.147,7.025,4.781,1.509,3.536.953,7.184-1.226,8.294-.058.032-.121.06-.183.088" fill="none" stroke="#221f1f" stroke-miterlimit="10" stroke-width=".276"/><path d="M55.698,38.08c.104-.062.209-.117.319-.168,2.431-1.122,5.765.922,7.444,4.565,1.576,3.416,1.135,7.024-.929,8.384-.124.082-.255.158-.389.221" fill="#59595c" stroke-width="0"/><path d="M55.698,38.08c.104-.062.209-.117.319-.168,2.431-1.122,5.765.922,7.444,4.565,1.576,3.416,1.135,7.024-.929,8.384-.124.082-.255.158-.389.221" fill="none" stroke="#221f1f" stroke-miterlimit="10" stroke-width=".276"/><path d="M21.388,67.691s24.856-11.148,24.869-11.155c1.832-1.117,2.355-4.121,1.134-6.982-1.303-3.05-4.093-4.784-6.233-3.868-.019.006-24.482,10.955-24.482,10.955" fill="#59595c" stroke-width="0"/><path d="M21.388,67.691s24.856-11.148,24.869-11.155c1.832-1.117,2.355-4.121,1.134-6.982-1.303-3.05-4.093-4.784-6.233-3.868-.019.006-24.482,10.955-24.482,10.955" fill="none" stroke="#221f1f" stroke-miterlimit="10" stroke-width=".276"/><path d="M22.909,60.512c1.219,2.861.697,5.864-1.138,6.981-.12.075-.25.14-.383.198-2.141.913-4.932-.82-6.234-3.87-1.138-2.67-.76-5.462.786-6.731.22-.183.465-.335.736-.448,2.14-.913,4.931.82,6.233,3.87" fill="#59595c" stroke-width="0"/><path d="M22.909,60.512c1.219,2.861.697,5.864-1.138,6.981-.12.075-.25.14-.383.198-2.141.913-4.932-.82-6.234-3.87-1.138-2.67-.76-5.462.786-6.731.22-.183.465-.335.736-.448,2.14-.913,4.931.82,6.233,3.87Z" fill="none" stroke="#221f1f" stroke-miterlimit="10" stroke-width=".276"/><path d="M57.06,53.24c2.766-1.138,6.714-2.674,7.804-3.392,1.091-.717,1.784-1.907,1.805-2.747.084-3.176-.825-5.047-1.129-5.7-1.74-3.734-4.704-4.719-5.904-4.628-.47.035-.677-.111-2.457.562-.965.364-2.525,1.192-3.715,1.633,0,0-.104-3.232-.011-3.294.284-.187,5.157-2.409,5.269-2.373.109.036,14.379,4.267,14.49,4.448.113.185.408,11.17.371,11.282-.036.11-4.581,2.012-4.581,1.976,0-.037-3.479.357-5.176.719,0,0-2.51.548-4.423,1.311,0,0-1.583,1.003-1.938,1.385-2.282,2.462-.749,3.964-4.66,5.904-3.414,1.693-9.607,1.574-11.728.505-2.874-1.445-1.623-1.129.863-2.359,0,0-.029,1.099,1.817,1.198,1.7.086,4.199-.046,4.571-.207.312-.135,2.21-.224,3.379-.991,3.892-2.55,3.589-4.497,3.589-4.497.621-.235,1.763-.734,1.763-.734" fill="#221f1f" stroke-width="0"/><path d="M57.06,53.24c2.766-1.138,6.714-2.674,7.804-3.392,1.091-.717,1.784-1.907,1.805-2.747.084-3.176-.825-5.047-1.129-5.7-1.74-3.734-4.704-4.719-5.904-4.628-.47.035-.677-.111-2.457.562-.965.364-2.525,1.192-3.715,1.633,0,0-.104-3.232-.011-3.294.284-.187,5.157-2.409,5.269-2.373.109.036,14.379,4.267,14.49,4.448.113.185.408,11.17.371,11.282-.036.11-4.581,2.012-4.581,1.976,0-.037-3.479.357-5.176.719,0,0-2.51.548-4.423,1.311,0,0-1.583,1.003-1.938,1.385-2.282,2.462-.749,3.964-4.66,5.904-3.414,1.693-9.607,1.574-11.728.505-2.874-1.445-1.623-1.129.863-2.359,0,0-.029,1.099,1.817,1.198,1.7.086,4.199-.046,4.571-.207.312-.135,2.21-.224,3.379-.991,3.892-2.55,3.589-4.497,3.589-4.497.621-.235,1.763-.734,1.763-.734Z" fill="#25a9e0" stroke="#231f20" stroke-miterlimit="10" stroke-width=".5"/><polygon points="81.051 73.928 195.807 67.602 195.807 15.912 149.169 13.321 81.051 73.928" fill="#fff" stroke-width="0"/></g><ellipse cx="93.682" cy="42.77" rx="90" ry="32.247" fill="none" stroke="#cdde00" stroke-miterlimit="10" stroke-width="2.618"/><polygon points="42.657 .736 49.528 7.605 49.528 17.32 42.657 24.19 32.944 24.19 26.072 17.32 26.072 7.605 32.944 .736 42.657 .736" fill="#cdde00" stroke-width="0"/><polygon points="42.657 .736 49.528 7.605 49.528 17.32 42.657 24.19 32.944 24.19 26.072 17.32 26.072 7.605 32.944 .736 42.657 .736" fill="none" stroke="#fff" stroke-miterlimit="10" stroke-width="1.473"/><polygon points="31.011 7.534 37.8 16.626 44.59 7.534 31.011 7.534" fill="#fff" stroke-width="0"/><rect x="34.893" y="4.392" width="5.884" height="3.566" fill="#fff" stroke-width="0"/><line x1="37.808" y1="21.463" x2="37.808" y2="17.817" fill="none" stroke="#fff" stroke-linecap="round" stroke-linejoin="round" stroke-width=".655"/><line x1="42.665" y1="19.501" x2="40.087" y2="16.924" fill="none" stroke="#fff" stroke-linecap="round" stroke-linejoin="round" stroke-width=".655"/><line x1="32.951" y1="19.501" x2="35.529" y2="16.924" fill="none" stroke="#fff" stroke-linecap="round" stroke-linejoin="round" stroke-width=".655"/><line x1="35.211" y1="20.522" x2="36.061" y2="18.699" fill="none" stroke="#fff" stroke-linecap="round" stroke-linejoin="round" stroke-width=".655"/><line x1="40.319" y1="20.522" x2="39.469" y2="18.699" fill="none" stroke="#fff" stroke-linecap="round" stroke-linejoin="round" stroke-width=".655"/><path d="M134.753,40.673h2.322c1.401,0,2.323.745,2.323,1.969v.018c0,1.339-1.117,2.03-2.438,2.03h-1.507v2.189h-.7v-6.206ZM136.986,44.051c1.028,0,1.702-.55,1.702-1.365v-.018c0-.887-.664-1.348-1.666-1.348h-1.569v2.73h1.533Z" fill="#221f1f" stroke-width="0"/><path d="M140.489,45.142v-2.846h.683v2.677c0,.852.461,1.383,1.268,1.383.78,0,1.374-.576,1.374-1.436v-2.624h.674v4.583h-.674v-.798c-.31.496-.779.896-1.568.896-1.108,0-1.756-.745-1.756-1.835Z" fill="#221f1f" stroke-width="0"/><path d="M146.084,40.407h.683v6.472h-.683v-6.472Z" fill="#221f1f" stroke-width="0"/><path d="M148.415,40.407h.683v6.472h-.683v-6.472Z" fill="#221f1f" stroke-width="0"/><path d="M150.499,43.855h2.465v.719h-2.465v-.719Z" fill="#221f1f" stroke-width="0"/><path d="M154.542,45.664v-2.766h-.639v-.603h.639v-1.384h.683v1.384h1.454v.603h-1.454v2.678c0,.558.311.762.771.762.23,0,.425-.044.665-.159v.585c-.24.124-.497.195-.825.195-.735,0-1.294-.363-1.294-1.295Z" fill="#221f1f" stroke-width="0"/><path d="M157.539,45.549v-.018c0-.966.798-1.48,1.959-1.48.585,0,1.002.08,1.409.195v-.16c0-.824-.505-1.25-1.365-1.25-.54,0-.966.143-1.392.337l-.204-.559c.506-.23,1.002-.381,1.667-.381.647,0,1.144.169,1.48.506.311.31.47.753.47,1.338v2.802h-.656v-.691c-.318.417-.851.789-1.657.789-.852,0-1.711-.487-1.711-1.428ZM160.916,45.194v-.443c-.337-.098-.789-.194-1.347-.194-.86,0-1.339.372-1.339.948v.018c0,.576.531.913,1.152.913.842,0,1.533-.514,1.533-1.241Z" fill="#221f1f" stroke-width="0"/><path d="M163.701,46.001v.878h-.683v-6.472h.683v2.811c.372-.55.913-1.02,1.755-1.02,1.1,0,2.189.868,2.189,2.376v.018c0,1.498-1.081,2.385-2.189,2.385-.851,0-1.4-.461-1.755-.976ZM166.945,44.601v-.018c0-1.082-.744-1.773-1.613-1.773-.851,0-1.657.718-1.657,1.765v.018c0,1.063.807,1.772,1.657,1.772.887,0,1.613-.655,1.613-1.764Z" fill="#221f1f" stroke-width="0"/><line x1="69.634" y1="56.337" x2="129.432" y2="45.901" fill="none" stroke="#00a6ce" stroke-linecap="round" stroke-linejoin="round" stroke-width="1.429"/><polygon points="64.663 57.204 72.167 58.844 70.005 56.272 71.168 53.121 64.663 57.204" fill="#00a6ce" stroke-width="0"/></svg>