<?xml version="1.0" encoding="UTF-8"?><svg id="a" xmlns="http://www.w3.org/2000/svg" width="1.75in" height=".25in" xmlns:xlink="http://www.w3.org/1999/xlink" viewBox="0 0 126 18"><defs><clipPath id="b"><rect y="1" width="126" height="17.181" fill="none" stroke-width="0"/></clipPath></defs><g clip-path="url(#b)"><path d="M.953,9.491c-.3.417-.454.859-.454,1.239,0,.567.344.996,1.061.996.903,0,.856-.726-.262-1.833-.131-.13-.246-.265-.345-.403ZM35.053,11.727v-4.47H1.559c-.716,0-1.061.429-1.061.996,0,.38.154.822.454,1.239.099.138.214.273.345.403,1.117,1.106,1.164,1.833.262,1.833h33.494ZM41.222,11.727h4.529v-4.47h-4.529v4.47ZM47.255,12.76l2.257.097v-1.057h.752v1.089l2.257.098v-1.187h.752v1.219l2.258.098v-1.317h.751v1.349l2.256.098v-1.447h.754v1.479l2.256.098v-1.577h.754v1.609l2.256.098v-1.707h.754v1.74l2.256.098v-1.837h.586v-4.62h-.586v-1.837l-2.256.098v1.74h-.754v-1.707l-2.256.098v1.61h-.754v-1.577l-2.256.098v1.48h-.754v-1.447l-2.256.097v1.349h-.751v-1.317l-2.258.098v1.219h-.752v-1.187l-2.257.098v1.089h-.752v-1.057l-2.257.098v.959h-.752v-.927l-.752.033v6.408l.752.033v-.927h.752v.959ZM68.227,2.786v13.411h-25.576c-.831,0-1.504-.667-1.504-1.49h0V4.276c0-.823.674-1.49,1.504-1.49h25.576ZM68.227,17.687h3.763V1.296h-30.843c-3.324,0-6.018,2.669-6.018,5.961v4.47c0,3.292,2.694,5.961,6.018,5.961h27.08Z" fill="#2868b1" fill-rule="evenodd" stroke-width="0"/><path d="M.953,9.491c-.3.417-.454.859-.454,1.239,0,.567.344.996,1.061.996.903,0,.856-.726-.262-1.833-.131-.13-.246-.265-.345-.403ZM35.053,11.727v-4.47H1.559c-.716,0-1.061.429-1.061.996,0,.38.154.822.454,1.239.099.138.214.273.345.403,1.117,1.106,1.164,1.833.262,1.833h33.494ZM41.222,11.727h4.529v-4.47h-4.529v4.47ZM47.255,12.76l2.257.097v-1.057h.752v1.089l2.257.098v-1.187h.752v1.219l2.258.098v-1.317h.751v1.349l2.256.098v-1.447h.754v1.479l2.256.098v-1.577h.754v1.609l2.256.098v-1.707h.754v1.74l2.256.098v-1.837h.586v-4.62h-.586v-1.837l-2.256.098v1.74h-.754v-1.707l-2.256.098v1.61h-.754v-1.577l-2.256.098v1.48h-.754v-1.447l-2.256.097v1.349h-.751v-1.317l-2.258.098v1.219h-.752v-1.187l-2.257.098v1.089h-.752v-1.057l-2.257.098v.959h-.752v-.927l-.752.033v6.408l.752.033v-.927h.752v.959ZM68.227,2.786v13.411h-25.576c-.831,0-1.504-.667-1.504-1.49h0V4.276c0-.823.674-1.49,1.504-1.49h25.576ZM68.227,17.687h3.763V1.296h-30.843c-3.324,0-6.018,2.669-6.018,5.961v4.47c0,3.292,2.694,5.961,6.018,5.961h27.08Z" fill="none" stroke="#749dd2" stroke-linecap="round" stroke-linejoin="round" stroke-width=".012"/><path d="M54.026,13.053l.751.033v-7.188l-.751.033v7.123ZM57.033,13.183l.754.033v-7.448l-.754.033v7.383ZM60.043,13.313l.754.033v-7.709l-.754.033v7.644ZM63.052,13.443l.754.033v-7.969l-.754.033v7.904ZM66.061,13.573l.751.033V5.377l-.751.033v8.164ZM48.007,12.793l.752.033v-6.668l-.752.033v6.603ZM51.016,12.923l.752.033v-6.928l-.752.033v6.863Z" fill="#4174b8" fill-rule="evenodd" stroke-width="0"/><path d="M76.353,2.655h-4.363v13.672h4.363V2.655ZM76.353,2.655v13.672h9.477V2.655h-9.477ZM123.593,16.328h2.107v-.745h-2.107v.745ZM123.593,16.328v-.745h2.107V3.401h-3.158v11.213h-12.789v1.714h13.84ZM87.334,4.09c0-.514.422-.931.942-.931h10.907c.52,0,.939.417.939.931v10.803c0,.514-.419.932-.939.932h-10.907c-.52,0-.942-.417-.942-.932V4.09ZM109.754,16.328v-1.714h12.789V3.401h3.158v-.745h-39.871v13.672h23.924ZM87.334,4.09v10.803c0,.514.422.932.942.932h10.907c.52,0,.939-.417.939-.932V4.09c0-.514-.419-.931-.939-.931h-10.907c-.52,0-.942.417-.942.931Z" fill="#d9d9d9" fill-rule="evenodd" stroke-width="0"/><path d="M76.353,2.655h-4.363v13.672h4.363V2.655ZM76.353,2.655v13.672h9.477V2.655h-9.477ZM123.593,16.328h2.107v-.745h-2.107v.745ZM123.593,16.328v-.745h2.107V3.401h-3.158v11.213h-12.789v1.714h13.84ZM87.334,4.09c0-.514.422-.931.942-.931h10.907c.52,0,.939.417.939.931v10.803c0,.514-.419.932-.939.932h-10.907c-.52,0-.942-.417-.942-.932V4.09ZM109.754,16.328v-1.714h12.789V3.401h3.158v-.745h-39.871v13.672h23.924ZM87.334,4.09v10.803c0,.514.422.932.942.932h10.907c.52,0,.939-.417.939-.932V4.09c0-.514-.419-.931-.939-.931h-10.907c-.52,0-.942.417-.942.931Z" fill="none" stroke="#999" stroke-linecap="round" stroke-linejoin="round" stroke-width=".209"/><rect x="122.542" y="4.369" width="1.323" height="1.304" fill="#a6a6a6" stroke-width="0"/><rect x="122.542" y="4.369" width="1.323" height="1.304" fill="none" stroke="#999" stroke-linecap="round" stroke-linejoin="round" stroke-width=".209"/><rect x="122.542" y="13.31" width="1.323" height="1.304" fill="#a6a6a6" stroke-width="0"/><rect x="122.542" y="13.31" width="1.323" height="1.304" fill="none" stroke="#999" stroke-linecap="round" stroke-linejoin="round" stroke-width=".209"/></g></svg>