<?xml version="1.0" encoding="UTF-8"?><svg id="a" xmlns="http://www.w3.org/2000/svg" width="2.6in" height="1.125in" xmlns:xlink="http://www.w3.org/1999/xlink" viewBox="0 0 187.2 81"><defs><clipPath id="b"><path d="M183.234,44.929c0,17.81-40.294,32.248-89.999,32.248S3.234,62.739,3.234,44.929,43.529,12.683,93.235,12.683s89.999,14.437,89.999,32.246Z" fill="none" stroke-width="0"/></clipPath></defs><path d="M21.443,34.081h2.324c1.401,0,2.323.745,2.323,1.969v.018c0,1.339-1.117,2.03-2.439,2.03h-1.507v2.191h-.701v-6.209ZM23.678,37.46c1.029,0,1.703-.549,1.703-1.366v-.017c0-.887-.665-1.349-1.667-1.349h-1.57v2.732h1.535Z" fill="#221f1f" stroke-width="0"/><path d="M27.18,38.551v-2.847h.682v2.678c-.09.669.38,1.284,1.049,1.374.073.01.146.013.219.009.747.013,1.364-.581,1.377-1.329,0-.036,0-.072-.002-.108v-2.625h.675v4.585h-.675v-.798c-.316.567-.921.913-1.57.896-.924.049-1.712-.66-1.761-1.584-.004-.084-.003-.168.006-.252Z" fill="#221f1f" stroke-width="0"/><path d="M32.775,33.815h.682v6.475h-.682v-6.475Z" fill="#221f1f" stroke-width="0"/><path d="M35.106,33.815h.682v6.475h-.682v-6.475Z" fill="#221f1f" stroke-width="0"/><path d="M37.191,37.264h2.466v.719h-2.466v-.719Z" fill="#221f1f" stroke-width="0"/><path d="M41.233,39.075v-2.767h-.638v-.603h.638v-1.384h.683v1.384h1.455v.603h-1.455v2.678c-.05.372.211.714.582.764.063.009.127.008.19-.001.231,0,.459-.054.664-.16v.586c-.254.132-.537.199-.824.194-.64.075-1.22-.382-1.295-1.022-.011-.09-.011-.181,0-.271Z" fill="#221f1f" stroke-width="0"/><path d="M44.228,38.959v-.017c0-.967.798-1.482,1.961-1.482.477-.004.952.062,1.41.195v-.16c0-.824-.505-1.25-1.365-1.25-.484.005-.96.12-1.393.337l-.204-.559c.519-.253,1.09-.383,1.667-.381.542-.038,1.075.144,1.481.505.332.364.502.847.47,1.339v2.803h-.657v-.692c-.393.516-1.01.81-1.658.79-.848.095-1.612-.516-1.707-1.364-.002-.021-.004-.043-.006-.064ZM47.608,38.605v-.444c-.438-.129-.892-.195-1.349-.195-.859,0-1.339.373-1.339.95v.017c0,.577.532.914,1.154.914.762.085,1.448-.463,1.533-1.225,0-.006.001-.011.002-.017h0Z" fill="#221f1f" stroke-width="0"/><path d="M50.392,39.411v.878h-.682v-6.475h.682v2.811c.366-.624,1.033-1.011,1.757-1.019,1.235.023,2.217,1.042,2.194,2.277,0,.033-.002.066-.004.1v.017c.078,1.237-.861,2.304-2.098,2.383-.03.002-.061.003-.091.004-.715,0-1.379-.369-1.757-.975ZM53.639,38.01v-.018c.067-.91-.615-1.702-1.525-1.77-.03-.002-.06-.004-.09-.004-.944.028-1.686.817-1.658,1.761,0,.002,0,.003,0,.005v.017c-.038.942.695,1.736,1.637,1.774.007,0,.014,0,.021,0,.894.002,1.62-.722,1.622-1.616,0-.05-.002-.1-.007-.15Z" fill="#221f1f" stroke-width="0"/><line x1="53.158" y1="51.739" x2="37.372" y2="44.312" fill="none" stroke="#00a6ce" stroke-linecap="round" stroke-linejoin="round" stroke-width="1.429"/><polygon points="57.723 53.888 52.527 48.232 52.817 51.579 50.053 53.489 57.723 53.888" fill="#00a6ce" stroke-width="0"/><g clip-path="url(#b)"><line x1="179.25" y1="66.143" x2="92.014" y2="41.486" fill="none" stroke="#231f20" stroke-miterlimit="10" stroke-width=".289"/><polygon points="82.871 50.382 178.824 77.197 179.251 69.879 89.879 45.302 82.871 50.382" fill="#e6e7e8" stroke="#231f20" stroke-miterlimit="10" stroke-width=".289"/><line x1="146.244" y1="72.024" x2="79.454" y2="53.299" fill="none" stroke="#231f20" stroke-miterlimit="10" stroke-width=".289"/><polyline points="179.251 59.418 169.471 56.714 169.471 47.18 179.251 50.097" fill="none" stroke="#231f20" stroke-miterlimit="10" stroke-width=".289"/><line x1="172.12" y1="46.121" x2="169.471" y2="47.18" fill="none" stroke="#231f20" stroke-miterlimit="10" stroke-width=".289"/><path d="M179.453,59.578l-9.343-2.603v-11.432l9.14,2.632M179.25,40.847l-78.003-22.042.373,24.123,77.63,21.94M167.977,56.502l-64.257-18.003v-11.173l63.972,18.218.286,10.959Z" fill="#bbbdbf" stroke="#231f20" stroke-miterlimit="10" stroke-width=".289"/><polygon points="166.909 46.12 104.289 28.322 104.289 37.999 151.814 51.195 167.336 55.505 166.909 46.12" fill="none" stroke="#231f20" stroke-miterlimit="10" stroke-width=".289"/><line x1="151.468" y1="41.836" x2="151.503" y2="51.109" fill="none" stroke="#231f20" stroke-miterlimit="10" stroke-width=".289"/><line x1="135.812" y1="46.754" x2="135.812" y2="37.431" fill="none" stroke="#231f20" stroke-miterlimit="10" stroke-width=".289"/><line x1="120.03" y1="32.797" x2="120.039" y2="42.373" fill="none" stroke="#231f20" stroke-miterlimit="10" stroke-width=".289"/><line x1="104.289" y1="37.777" x2="117.488" y2="32.074" fill="none" stroke="#231f20" stroke-miterlimit="10" stroke-width=".289"/><line x1="107.987" y1="36.179" x2="107.912" y2="29.353" fill="none" stroke="#231f20" stroke-miterlimit="10" stroke-width=".289"/><line x1="107.987" y1="36.179" x2="120.03" y2="39.511" fill="none" stroke="#231f20" stroke-miterlimit="10" stroke-width=".289"/><line x1="135.631" y1="46.472" x2="148.525" y2="40.896" fill="none" stroke="#231f20" stroke-miterlimit="10" stroke-width=".289"/><line x1="151.503" y1="51.109" x2="164.025" y2="45.302" fill="none" stroke="#231f20" stroke-miterlimit="10" stroke-width=".289"/><line x1="139.365" y1="38.292" x2="139.403" y2="44.842" fill="none" stroke="#231f20" stroke-miterlimit="10" stroke-width=".289"/><line x1="139.403" y1="44.842" x2="151.468" y2="48.205" fill="none" stroke="#231f20" stroke-miterlimit="10" stroke-width=".289"/><line x1="154.935" y1="42.719" x2="154.945" y2="49.512" fill="none" stroke="#231f20" stroke-miterlimit="10" stroke-width=".289"/><line x1="154.945" y1="49.512" x2="167.213" y2="52.8" fill="none" stroke="#231f20" stroke-miterlimit="10" stroke-width=".289"/><line x1="169.471" y1="56.715" x2="179.25" y2="52.32" fill="none" stroke="#231f20" stroke-miterlimit="10" stroke-width=".289"/><path d="M174.498,41.988c.035.47-.318.88-.788.915-.47.035-.88-.318-.915-.788-.031-.414.24-.79.643-.891.503-.077.974.263,1.06.764Z" fill="#f1f1f2" stroke="#231f20" stroke-miterlimit="10" stroke-width=".289"/><path d="M159.985,37.884c.034.47-.319.879-.79.913-.47.034-.879-.319-.913-.79-.03-.413.241-.788.642-.889.503-.078.976.264,1.06.766Z" fill="#f1f1f2" stroke="#231f20" stroke-miterlimit="10" stroke-width=".289"/><path d="M144.211,33.542c.034.47-.319.88-.789.914-.47.034-.88-.319-.914-.789-.03-.414.241-.789.643-.89.503-.077.975.264,1.06.766Z" fill="#f1f1f2" stroke="#231f20" stroke-miterlimit="10" stroke-width=".289"/><path d="M128.6,29.109c.034.47-.319.878-.789.912-.47.034-.878-.319-.912-.789-.03-.413.241-.788.642-.889.503-.078.975.264,1.059.766Z" fill="#f1f1f2" stroke="#231f20" stroke-miterlimit="10" stroke-width=".289"/><path d="M112.875,24.711c.034.47-.319.88-.789.914-.47.034-.88-.319-.914-.789-.03-.414.241-.79.644-.891.503-.077.975.264,1.059.766Z" fill="#f1f1f2" stroke="#231f20" stroke-miterlimit="10" stroke-width=".289"/><path d="M128.675,15.175c.717,1.525.47,3.155-.555,3.637-1.026.484-2.441-.362-3.16-1.888s-.469-3.155.555-3.637c1.025-.484,2.441.361,3.159,1.888Z" fill="none" stroke="#231f20" stroke-miterlimit="10" stroke-width=".289"/><path d="M168.573,26.251c.718,1.526.375,3.2-.766,3.737s-2.653-.262-3.371-1.789-.375-3.2.766-3.736c1.421-.405,2.909.384,3.371,1.787Z" fill="none" stroke="#231f20" stroke-miterlimit="10" stroke-width=".289"/><path d="M150.938,64.645c.049.633-1.224,1.247-2.839,1.372-1.617.122-2.966-.291-3.015-.925-.048-.634,1.225-1.247,2.84-1.372,1.616-.122,2.967.291,3.014.925Z" fill="#fff" stroke="#231f20" stroke-miterlimit="10" stroke-width=".289"/><path d="M77.833,10.64l.091,5.07c-.184.429-.293.886-.321,1.352,0,.622.356,1.014.321,1.281s.65,21.794.65,21.794" fill="none" stroke="#231f20" stroke-miterlimit="10" stroke-width=".289"/><path d="M76.822,10.387l.078,5.322c-.184.429-.292.886-.32,1.352,0,.622.355,1.014.32,1.281s.792,26.17.792,26.17" fill="none" stroke="#231f20" stroke-miterlimit="10" stroke-width=".289"/><line x1="77.924" y1="15.905" x2="80.659" y2="14.815" fill="none" stroke="#231f20" stroke-miterlimit="10" stroke-width=".289"/><line x1="77.924" y1="18.334" x2="80.569" y2="17.194" fill="none" stroke="#231f20" stroke-miterlimit="10" stroke-width=".289"/><path d="M80.659,25.262s-.885-.267-1.511-.453c-.445-.141-.919.106-1.06.551-.031.098-.044.201-.038.304,0,.561.305,12.888.305,12.888" fill="none" stroke="#231f20" stroke-miterlimit="10" stroke-width=".289"/><path d="M80.659,26.385s-.555-.194-.948-.333-.689.216-.689.626.192,9.447.192,9.447" fill="none" stroke="#231f20" stroke-miterlimit="10" stroke-width=".289"/><line x1="78.574" y1="24.768" x2="80.659" y2="24.088" fill="none" stroke="#231f20" stroke-miterlimit="10" stroke-width=".289"/><polygon points="154.332 27.894 153.211 28.448 153.211 30.439 154.474 31.524 155.756 31.062 155.756 29.282 154.332 27.894" fill="none" stroke="#231f20" stroke-miterlimit="10" stroke-width=".289"/><polygon points="157.853 28.927 156.732 29.479 156.732 31.472 157.996 32.555 159.277 32.094 159.277 30.314 157.853 28.927" fill="none" stroke="#231f20" stroke-miterlimit="10" stroke-width=".289"/><polygon points="161.298 29.87 160.178 30.42 160.178 32.413 161.441 33.498 162.722 33.037 162.722 31.257 161.298 29.87" fill="none" stroke="#231f20" stroke-miterlimit="10" stroke-width=".289"/><polygon points="171.916 32.797 170.796 33.348 170.796 35.34 172.058 36.425 173.339 35.964 173.339 34.184 171.916 32.797" fill="none" stroke="#231f20" stroke-miterlimit="10" stroke-width=".289"/><polygon points="175.438 33.829 174.317 34.38 174.317 36.373 175.579 37.458 176.861 36.995 176.861 35.215 175.438 33.829" fill="none" stroke="#231f20" stroke-miterlimit="10" stroke-width=".289"/><polygon points="173.471 29.743 172.351 30.294 172.351 32.285 173.613 33.373 174.894 32.91 174.894 31.132 173.471 29.743" fill="none" stroke="#231f20" stroke-miterlimit="10" stroke-width=".289"/><polygon points="176.992 30.775 175.872 31.327 175.872 33.319 177.134 34.404 178.416 33.943 178.416 32.164 176.992 30.775" fill="none" stroke="#231f20" stroke-miterlimit="10" stroke-width=".289"/><polygon points="178.883 34.77 177.762 35.323 177.762 37.315 179.026 38.399 180.307 37.938 180.307 36.158 178.883 34.77" fill="none" stroke="#231f20" stroke-miterlimit="10" stroke-width=".289"/><polygon points="143.854 24.994 142.734 25.545 142.734 27.539 143.997 28.624 145.278 28.162 145.278 26.383 143.854 24.994" fill="none" stroke="#231f20" stroke-miterlimit="10" stroke-width=".289"/><polygon points="147.377 26.029 146.254 26.578 146.254 28.572 147.518 29.658 148.799 29.194 148.799 27.415 147.377 26.029" fill="none" stroke="#231f20" stroke-miterlimit="10" stroke-width=".289"/><polygon points="150.822 26.97 149.699 27.522 149.699 29.514 150.963 30.599 152.246 30.137 152.246 28.357 150.822 26.97" fill="none" stroke="#231f20" stroke-miterlimit="10" stroke-width=".289"/><polygon points="133.573 21.83 132.453 22.38 132.453 24.374 133.717 25.459 134.998 24.995 134.998 23.218 133.573 21.83" fill="none" stroke="#231f20" stroke-miterlimit="10" stroke-width=".289"/><polygon points="130.061 21.048 128.939 21.598 128.939 23.59 130.202 24.677 131.483 24.214 131.483 22.435 130.061 21.048" fill="none" stroke="#231f20" stroke-miterlimit="10" stroke-width=".289"/><polygon points="137.096 22.863 135.974 23.414 135.974 25.407 137.238 26.492 138.519 26.029 138.519 24.251 137.096 22.863" fill="none" stroke="#231f20" stroke-miterlimit="10" stroke-width=".289"/><polygon points="140.541 23.804 139.419 24.357 139.419 26.349 140.683 27.434 141.964 26.972 141.964 25.192 140.541 23.804" fill="none" stroke="#231f20" stroke-miterlimit="10" stroke-width=".289"/><polygon points="152.519 23.921 151.399 24.47 151.399 26.464 152.662 27.548 153.943 27.087 153.943 25.307 152.519 23.921" fill="none" stroke="#231f20" stroke-miterlimit="10" stroke-width=".289"/><polygon points="156.041 24.952 154.921 25.504 154.921 27.495 156.183 28.58 157.464 28.119 157.464 26.339 156.041 24.952" fill="none" stroke="#231f20" stroke-miterlimit="10" stroke-width=".289"/><polygon points="159.487 25.894 158.366 26.447 158.366 28.438 159.629 29.523 160.911 29.062 160.911 27.283 159.487 25.894" fill="none" stroke="#231f20" stroke-miterlimit="10" stroke-width=".289"/><polygon points="142.042 21.02 140.922 21.572 140.922 23.564 142.186 24.65 143.466 24.186 143.466 22.407 142.042 21.02" fill="none" stroke="#231f20" stroke-miterlimit="10" stroke-width=".289"/><polygon points="145.564 22.053 144.444 22.604 144.444 24.597 145.707 25.682 146.988 25.219 146.988 23.439 145.564 22.053" fill="none" stroke="#231f20" stroke-miterlimit="10" stroke-width=".289"/><polygon points="149.009 22.995 147.889 23.547 147.889 25.539 149.152 26.624 150.433 26.162 150.433 24.382 149.009 22.995" fill="none" stroke="#231f20" stroke-miterlimit="10" stroke-width=".289"/><polygon points="138.729 19.829 137.608 20.38 137.608 22.373 138.872 23.458 140.153 22.997 140.153 21.217 138.729 19.829" fill="none" stroke="#231f20" stroke-miterlimit="10" stroke-width=".289"/><polygon points="135.178 18.804 134.057 19.355 134.057 21.348 135.319 22.433 136.601 21.972 136.601 20.193 135.178 18.804" fill="none" stroke="#231f20" stroke-miterlimit="10" stroke-width=".289"/><polygon points="123.127 19.107 122.006 19.659 122.006 21.65 123.269 22.735 124.551 22.274 124.551 20.494 123.127 19.107" fill="none" stroke="#231f20" stroke-miterlimit="10" stroke-width=".289"/><polygon points="112.847 15.942 111.726 16.493 111.726 18.485 112.989 19.57 114.271 19.108 114.271 17.328 112.847 15.942" fill="none" stroke="#231f20" stroke-miterlimit="10" stroke-width=".289"/><polygon points="109.333 15.158 108.212 15.71 108.212 17.704 109.474 18.788 110.756 18.325 110.756 16.547 109.333 15.158" fill="none" stroke="#231f20" stroke-miterlimit="10" stroke-width=".289"/><polygon points="116.368 16.973 115.248 17.525 115.248 19.518 116.511 20.603 117.792 20.14 117.792 18.362 116.368 16.973" fill="none" stroke="#231f20" stroke-miterlimit="10" stroke-width=".289"/><polygon points="117.798 13.933 116.677 14.485 116.677 16.477 117.941 17.562 119.221 17.099 119.221 15.32 117.798 13.933" fill="none" stroke="#231f20" stroke-miterlimit="10" stroke-width=".289"/><polygon points="114.283 13.15 113.162 13.702 113.162 15.695 114.424 16.779 115.706 16.317 115.706 14.538 114.283 13.15" fill="none" stroke="#231f20" stroke-miterlimit="10" stroke-width=".289"/><polygon points="121.319 14.966 120.198 15.517 120.198 17.509 121.462 18.594 122.742 18.132 122.742 16.353 121.319 14.966" fill="none" stroke="#231f20" stroke-miterlimit="10" stroke-width=".289"/><polygon points="119.813 17.917 118.693 18.467 118.693 20.459 119.957 21.545 121.237 21.083 121.237 19.303 119.813 17.917" fill="none" stroke="#231f20" stroke-miterlimit="10" stroke-width=".289"/><path d="M82.004,9.305s.403,16.384.403,17.237-4.163,22.243-4.483,22.97l14.09-.696-.561-39.123" fill="#e6e7e8" stroke="#231f20" stroke-miterlimit="10" stroke-width=".289"/><polygon points="121.367 33.018 94.398 44.69 89.631 43.265 86.713 44.69 86.713 45.044 83.724 46.397 82.871 46.112 78.244 48.39 78.244 59.775 93.401 64.329 135.954 46.255 135.954 37.074 121.367 33.018" fill="#a6a8ab" stroke="#231f20" stroke-miterlimit="10" stroke-width=".289"/><line x1="94.398" y1="44.69" x2="105.072" y2="47.678" fill="none" stroke="#231f20" stroke-miterlimit="10" stroke-width=".289"/><line x1="105.25" y1="51.128" x2="135.955" y2="37.431" fill="none" stroke="#231f20" stroke-miterlimit="10" stroke-width=".289"/><line x1="78.245" y1="48.39" x2="92.815" y2="52.587" fill="none" stroke="#231f20" stroke-miterlimit="10" stroke-width=".289"/><polyline points="93.242 64.15 93.028 59.845 91.089 60.645 91.089 58.103 93.028 57.569 92.814 52.675 97.832 50.612 97.832 51.128 101.701 49.402 101.701 48.81 105.072 47.678 105.249 51.128" fill="#a6a8ab" stroke="#231f20" stroke-miterlimit="10" stroke-width=".289"/><path d="M86.984,44.847s2.183.687,2.361.819c.445.333.422.845-.934,1.344-1.007.228-2.054.218-3.057-.027-.796-.212-1.657-.551-1.657-.551" fill="#a6a8ab" stroke="#231f20" stroke-miterlimit="10" stroke-width=".289"/><path d="M97.831,50.612s-.802-.267-1.159-.392c-.135-.047-1.389-.394-1.562-.715-.232-.428-.022-.734.588-.994.686-.249,1.412-.371,2.142-.361.655.007,1.307.083,1.946.225.696.121,1.917.434,1.917.434" fill="#a6a8ab" stroke="#231f20" stroke-miterlimit="10" stroke-width=".289"/><path d="M88.704,46.569c-.021.358-.847.602-1.846.547-1-.058-1.793-.394-1.773-.752s.847-.602,1.847-.546,1.792.393,1.771.751Z" fill="#a6a8ab" stroke="#231f20" stroke-miterlimit="10" stroke-width=".289"/><path d="M99.259,49.508c-.02.358-.846.602-1.845.547-1-.058-1.792-.394-1.773-.754.02-.357.846-.601,1.847-.544.998.056,1.793.393,1.771.751Z" fill="#a6a8ab" stroke="#231f20" stroke-miterlimit="10" stroke-width=".289"/><path d="M67.809,70.504l20.856-8.044h0c1.851-1.118,2.338-4.341,1.053-7.491-1.348-3.302-4.141-5.298-6.294-4.526l-19.765,9.202" fill="#58595b" stroke="#231f20" stroke-miterlimit="10" stroke-width=".289"/><path d="M69.866,63.384c1.159,2.8.681,5.697-1.038,6.732-.115.07-.235.13-.36.181-2.01.833-4.639-.916-5.875-3.902-1.082-2.614-.738-5.309.709-6.5.208-.172.44-.312.689-.416,2.008-.83,4.638.919,5.875,3.905Z" fill="#58595b" stroke="#231f20" stroke-miterlimit="10" stroke-width=".289"/><path d="M72.297,55.629c.094-.054.19-.101.29-.142,2.008-.833,4.688,1.034,5.984,4.168,1.261,3.048.749,6.173-1.13,7.103-.052.025-.105.051-.16.072" fill="#58595b" stroke="#231f20" stroke-miterlimit="10" stroke-width=".289"/><path d="M76.415,53.738c.088-.052.18-.099.274-.141,2.097-.94,4.937.845,6.344,3.986,1.32,2.945.909,6.036-.876,7.184-.108.07-.22.132-.336.186" fill="#58595b" stroke="#231f20" stroke-miterlimit="10" stroke-width=".289"/><path d="M46.702,78.821s21.43-9.332,21.438-9.338c1.584-.94,2.06-3.513,1.04-5.978-1.088-2.628-3.467-4.141-5.312-3.378-.017.007-21.105,9.173-21.105,9.173" fill="#58595b" stroke="#231f20" stroke-miterlimit="10" stroke-width=".289"/><path d="M48.074,72.678c1.019,2.465.544,5.037-1.04,5.978-.107.063-.218.118-.332.165-1.845.764-4.223-.748-5.312-3.378-.951-2.3-.602-4.692.736-5.768.192-.155.406-.282.635-.375,1.845-.765,4.223.747,5.312,3.377Z" fill="#58595b" stroke="#231f20" stroke-miterlimit="10" stroke-width=".289"/><path d="M71.066,51.27c.276-.177,5.08-2.312,5.186-2.276s14.943,4.268,15.05,4.447.25,8.112.213,8.219-3.914,1.885-3.914,1.85c-.693-.155-1.372-.37-2.028-.641-.391-.284.285-6.689.072-6.618s-7.614.321-7.935.321c-.654.16-1.279.424-1.85.782-.106.143.606.998.676,1.85.311,2.005-.349,4.039-1.778,5.479-2.136,2.028-3.185,2.046-5.267,1.246s-3.308-1.53-4.59-1.904c-1.005-.317-2.044-.513-3.096-.586-.954-.097-1.892-.313-2.793-.641-.516-.177-1.94-.48-2.313-.605s-1.529-.854-1.495-1.353.516-1.102.961-1.102c.622.058,1.224.252,1.762.57.497.302.764.568,1.814-.268s3.895-3.807,5.977-4.483c1.372-.468,2.834-.608,4.27-.408.612-.023,1.198-.252,1.663-.65.177-.231-.136-1.09-.403-1.625-.268-.532-.422-1.451-.185-1.603ZM62.038,61.607c1.238.086,1.85-.373,6.226,1.814s5.28-.106,5.907-1.263c.476-.902.652-1.933.501-2.942-.732-1.536-2.26-2.534-3.96-2.587-.687-.019-1.127.243-2.821.243-1.442,0-3.376,1.57-3.91,2.014-.686.666-1.421,1.279-2.2,1.834,0,0-1.188.788.257.887Z" fill="#25a9e0" stroke="#231f20" stroke-miterlimit="10" stroke-width=".5"/></g><path d="M183.234,44.929c0,17.81-40.294,32.248-89.999,32.248S3.234,62.739,3.234,44.929,43.529,12.683,93.235,12.683s89.999,14.437,89.999,32.246Z" fill="none" stroke="#6bcdb2" stroke-miterlimit="10" stroke-width="2.746"/><polygon points="40.411 23.943 33.796 17.328 33.796 7.974 40.411 1.358 49.766 1.358 56.382 7.974 56.382 17.328 49.766 23.943 40.411 23.943" fill="#6bcdb2" stroke="#fff" stroke-miterlimit="10" stroke-width="1.545"/><polygon points="51.627 17.398 45.089 8.643 38.551 17.398 51.627 17.398" fill="#fff" stroke-width="0"/><rect x="42.223" y="16.99" width="5.665" height="3.433" fill="#fff" stroke-width="0"/><line x1="45.081" y1="3.985" x2="45.081" y2="7.496" fill="none" stroke="#fff" stroke-linecap="round" stroke-linejoin="round" stroke-width=".687"/><line x1="40.404" y1="5.873" x2="42.886" y2="8.356" fill="none" stroke="#fff" stroke-linecap="round" stroke-linejoin="round" stroke-width=".687"/><line x1="49.758" y1="5.873" x2="47.275" y2="8.356" fill="none" stroke="#fff" stroke-linecap="round" stroke-linejoin="round" stroke-width=".687"/><line x1="47.581" y1="4.89" x2="46.763" y2="6.646" fill="none" stroke="#fff" stroke-linecap="round" stroke-linejoin="round" stroke-width=".687"/><line x1="42.664" y1="4.89" x2="43.482" y2="6.646" fill="none" stroke="#fff" stroke-linecap="round" stroke-linejoin="round" stroke-width=".687"/></svg>