<?xml version="1.0" encoding="UTF-8"?><svg id="a" xmlns="http://www.w3.org/2000/svg" width=".375in" height=".26in" viewBox="0 0 27 18.72"><path d="M0,17.796h27V.375c0-.209-.174-.375-.388-.375H.386c-.216,0-.386.166-.386.375v17.421Z" fill="#ee7623" stroke-width="0"/><path d="M9.361,12.486l1.611-1.535c.729.82,1.489,1.276,2.568,1.276.882,0,1.505-.501,1.505-1.292v-.03c0-.866-.775-1.353-2.082-1.353h-.973l-.365-1.489,2.538-2.553h-4.18v-2.007h7.188v1.763l-2.689,2.569c1.443.243,2.857,1.003,2.857,2.979v.03c0,2.006-1.459,3.48-3.83,3.48-1.915,0-3.237-.76-4.149-1.839Z" fill="#fff" stroke-width="0"/></svg>