<?xml version="1.0" encoding="UTF-8"?><svg id="a" xmlns="http://www.w3.org/2000/svg" width="2.286in" height="1.35in" viewBox="0 0 164.564 97.17"><rect x="1.282" y="1.282" width="162" height="94.606" fill="none" stroke="#929497" stroke-width="2.564"/><polygon points="163.282 1.282 80.43 1.282 80.43 23.709 137.221 23.709 163.282 23.709 163.282 1.282" fill="#929497" stroke="#929497" stroke-width="2.564"/><rect x="1.282" y="1.282" width="77.517" height="22.427" fill="none" stroke="#929497" stroke-width="2.564"/><path d="M83.818,10.726h1.308v4.759h2.966v1.19h-4.274v-5.949Z" fill="#fff" stroke-width="0"/><path d="M89.135,10.726h1.309v5.949h-1.309v-5.949Z" fill="#fff" stroke-width="0"/><path d="M91.93,10.726h4.529v1.19h-3.221v1.267h2.839v1.19h-2.839v2.303h-1.308v-5.949Z" fill="#fff" stroke-width="0"/><path d="M98.887,11.933h-1.81v-1.207h4.929v1.207h-1.81v4.742h-1.309v-4.742Z" fill="#fff" stroke-width="0"/><path d="M103.065,10.726h1.309v5.949h-1.309v-5.949Z" fill="#fff" stroke-width="0"/><path d="M105.859,10.726h1.207l2.787,3.663v-3.663h1.292v5.949h-1.113l-2.881-3.782v3.782h-1.291v-5.949Z" fill="#fff" stroke-width="0"/><path d="M112.306,13.718v-.017c0-1.692,1.317-3.077,3.119-3.077,1.071,0,1.717.288,2.337.815l-.824.994c-.459-.383-.867-.603-1.555-.603-.952,0-1.708.842-1.708,1.853v.017c0,1.088.747,1.886,1.801,1.886.476,0,.901-.119,1.233-.357v-.849h-1.317v-1.13h2.584v2.583c-.612.518-1.454.944-2.541.944-1.853,0-3.127-1.3-3.127-3.059Z" fill="#fff" stroke-width="0"/><path d="M121.776,10.726h1.308v2.354h2.413v-2.354h1.309v5.949h-1.309v-2.388h-2.413v2.388h-1.308v-5.949Z" fill="#fff" stroke-width="0"/><path d="M130.271,10.684h1.207l2.55,5.991h-1.369l-.544-1.334h-2.515l-.544,1.334h-1.335l2.55-5.991ZM131.647,14.185l-.79-1.929-.791,1.929h1.581Z" fill="#fff" stroke-width="0"/><path d="M134.762,15.681l3.272-3.807h-3.17v-1.147h4.853v.994l-3.272,3.807h3.272v1.147h-4.954v-.994Z" fill="#fff" stroke-width="0"/><path d="M142.993,10.684h1.208l2.549,5.991h-1.368l-.544-1.334h-2.516l-.544,1.334h-1.334l2.549-5.991ZM144.371,14.185l-.791-1.929-.79,1.929h1.581Z" fill="#fff" stroke-width="0"/><path d="M147.665,10.726h2.719c.756,0,1.342.212,1.733.603.331.332.51.799.51,1.36v.017c0,.96-.518,1.564-1.275,1.844l1.454,2.125h-1.53l-1.274-1.903h-1.028v1.903h-1.308v-5.949ZM150.298,13.616c.638,0,1.003-.339,1.003-.841v-.017c0-.561-.39-.85-1.028-.85h-1.3v1.708h1.325Z" fill="#fff" stroke-width="0"/><path d="M153.805,10.726h2.32c1.869,0,3.162,1.283,3.162,2.958v.017c0,1.674-1.292,2.974-3.162,2.974h-2.32v-5.949ZM155.114,11.908v3.587h1.011c1.071,0,1.793-.722,1.793-1.776v-.017c0-1.054-.722-1.794-1.793-1.794h-1.011Z" fill="#fff" stroke-width="0"/><path d="M9.104,18.555h12.535c.265,0,.25-.284.133-.485,0,0-6.074-12.181-6.233-12.503-.032-.035-.077-.079-.166-.079-.088,0-.133.044-.166.079-.161.322-6.233,12.503-6.233,12.503-.116.201-.133.485.131.485Z" fill="#f69220" fill-rule="evenodd" stroke-width="0"/><path d="M26.216,13.749v-.019c0-1.882,1.419-3.423,3.453-3.423,1.248,0,1.996.416,2.611,1.021l-.927,1.069c-.511-.463-1.031-.746-1.693-.746-1.116,0-1.92.927-1.92,2.062v.018c0,1.136.785,2.081,1.92,2.081.756,0,1.22-.302,1.74-.775l.927.936c-.681.728-1.438,1.182-2.715,1.182-1.949,0-3.396-1.504-3.396-3.405Z" fill="#221f1f" stroke-width="0"/><path d="M35.674,10.372h1.343l2.838,6.669h-1.523l-.605-1.485h-2.8l-.605,1.485h-1.485l2.838-6.669ZM37.206,14.27l-.879-2.147-.88,2.147h1.759Z" fill="#221f1f" stroke-width="0"/><path d="M40.686,14.203v-3.783h1.457v3.746c0,1.078.539,1.636,1.428,1.636s1.428-.539,1.428-1.589v-3.792h1.457v3.736c0,2.005-1.125,2.989-2.904,2.989s-2.866-.993-2.866-2.942Z" fill="#221f1f" stroke-width="0"/><path d="M49.397,11.763h-2.014v-1.343h5.486v1.343h-2.015v5.278h-1.457v-5.278Z" fill="#221f1f" stroke-width="0"/><path d="M53.965,10.42h1.457v6.621h-1.457v-6.621Z" fill="#221f1f" stroke-width="0"/><path d="M56.698,13.749v-.019c0-1.882,1.485-3.423,3.528-3.423s3.509,1.522,3.509,3.405v.018c0,1.883-1.485,3.425-3.528,3.425s-3.509-1.522-3.509-3.405ZM62.213,13.749v-.019c0-1.134-.833-2.08-2.005-2.08s-1.986.927-1.986,2.062v.018c0,1.136.832,2.081,2.005,2.081s1.987-.927,1.987-2.062Z" fill="#221f1f" stroke-width="0"/><path d="M64.945,10.42h1.343l3.102,4.077v-4.077h1.438v6.621h-1.239l-3.207-4.209v4.209h-1.438v-6.621Z" fill="#221f1f" stroke-width="0"/><path d="M9.497,19.162c-.691,0-1.249-.559-1.249-1.247,0-.291.15-.535.262-.767l5.878-11.786c.227-.292.583-.48.984-.48s.759.188.986.48l5.876,11.786c.134.233.261.476.261.767,0,.689-.558,1.247-1.248,1.247h-11.75ZM9.497,18.151h11.75c.249,0,.236-.273.126-.461,0,0-5.697-11.42-5.844-11.719-.033-.032-.071-.076-.156-.076s-.127.045-.155.076c-.15.299-5.846,11.719-5.846,11.719-.109.188-.125.461.125.461Z" fill="#f69220" fill-rule="evenodd" stroke-width="0"/><path d="M16.257,16.421c0,.489-.396.884-.885.884s-.884-.395-.884-.884.396-.885.884-.885.885.395.885.885Z" fill="#fff" fill-rule="evenodd" stroke-width="0"/><path d="M15.372,9.03c-.454,0-.821.368-.821.819l.271,4.427c0,.303.247.546.549.546.301,0,.545-.242.545-.546l.276-4.427c0-.451-.367-.819-.821-.819Z" fill="#fff" fill-rule="evenodd" stroke-width="0"/><rect x="112.355" y="53.793" width="22.031" height="9.485" fill="#fff" stroke-width="0"/><path d="M134.386,63.278h-22.031v-9.485h22.031v9.485ZM135.509,64.403h-24.278v-11.733h24.278v11.733" fill="#221f1f" fill-rule="evenodd" stroke-width="0"/><path d="M111.014,40.501c0,1.886-1.528,3.411-3.415,3.411s-3.412-1.525-3.412-3.411,1.528-3.413,3.412-3.413,3.415,1.528,3.415,3.413Z" fill="#221f1f" fill-rule="evenodd" stroke-width="0"/><path d="M101.871,44.807c.781-1.366,2.707-2.067,3.827-1.234l2.915,1.984,2.619,6.361,5.094,4.794c.666.667.666,1.745,0,2.41-.665.668-1.745.668-2.413,0l-6.424-5.33-.75-2.621-2.244,4.868,5.616,7.11c.805,1.019.587,2.484.372,3l-3.872,9.746c-.43,1.035-1.624,1.527-2.661,1.095-1.037-.433-1.529-1.621-1.095-2.659l3.066-7.966c.218-.583-.108-1.446-.517-1.902l-6.901-8.047c-1.025-1.025-1.14-2.654-.41-4.116l3.779-7.492" fill="#221f1f" fill-rule="evenodd" stroke-width="0"/><path d="M135.73,40.501c0,1.886,1.528,3.411,3.412,3.411s3.413-1.525,3.413-3.411-1.53-3.413-3.413-3.413-3.412,1.528-3.412,3.413Z" fill="#221f1f" fill-rule="evenodd" stroke-width="0"/><path d="M144.872,44.807c-.781-1.366-2.707-2.067-3.829-1.234l-2.915,1.984-2.619,6.361-5.095,4.794c-.665.667-.665,1.745,0,2.41.667.668,1.749.668,2.413,0l6.427-5.33.748-2.621,2.246,4.868-5.615,7.11c-.806,1.019-.589,2.484-.376,3l3.874,9.746c.432,1.035,1.624,1.527,2.662,1.095,1.036-.433,1.527-1.621,1.095-2.659l-3.064-7.966c-.222-.583.105-1.446.51-1.902l6.905-8.047c1.025-1.025,1.142-2.654.412-4.116l-3.779-7.492" fill="#221f1f" fill-rule="evenodd" stroke-width="0"/><path d="M12.614,81.858v-.482l2.747-1.107v-.015l-2.747-1.114v-.474l3.336,1.38v.424l-3.336,1.388ZM12.614,82.569v-.417h3.322v.417h-3.322Z" fill="#221f1f" stroke-width="0"/><path d="M21.762,81.376h-2.653l-.144-.409,2.847-3.466h.496v3.401h.784v.474h-.784v1.194h-.547v-1.194ZM21.762,80.902v-2.595l-2.114,2.595h2.114Z" fill="#221f1f" stroke-width="0"/><path d="M24.807,78.09l-.949.295-.136-.46,1.229-.424h.417v5.069h-.561v-4.479Z" fill="#221f1f" stroke-width="0"/><path d="M26.678,81.815h.662v.755h-.662v-.755Z" fill="#221f1f" stroke-width="0"/><path d="M28.267,82.131l1.826-1.61c.769-.69,1.05-1.078,1.05-1.582,0-.589-.468-.963-1.014-.963-.575,0-.949.302-1.352.863l-.417-.302c.453-.676.928-1.072,1.812-1.072.906,0,1.56.604,1.56,1.424v.015c0,.733-.388,1.185-1.272,1.955l-1.345,1.194h2.668v.517h-3.516v-.439Z" fill="#221f1f" stroke-width="0"/><path d="M32.627,81.757l.41-.367c.389.474.856.747,1.474.747.611,0,1.1-.388,1.1-.978v-.015c0-.626-.583-.97-1.41-.97h-.323l-.115-.338,1.589-1.79h-2.459v-.511h3.214v.417l-1.581,1.755c.877.072,1.661.496,1.661,1.416v.015c0,.898-.748,1.516-1.683,1.516-.841,0-1.467-.366-1.877-.898Z" fill="#221f1f" stroke-width="0"/><path d="M39.575,77.321h.554v5.248h-.554v-5.248Z" fill="#221f1f" stroke-width="0"/><path d="M42.007,81.858v.711h-.554v-5.248h.554v2.278c.302-.445.741-.826,1.423-.826.892,0,1.776.704,1.776,1.926v.014c0,1.215-.877,1.935-1.776,1.935-.69,0-1.136-.374-1.423-.791ZM44.638,80.721v-.014c0-.878-.604-1.439-1.309-1.439-.69,0-1.344.583-1.344,1.431v.014c0,.863.654,1.439,1.344,1.439.719,0,1.309-.532,1.309-1.431Z" fill="#221f1f" stroke-width="0"/><path d="M45.956,82.094l.28-.395c.403.302.848.475,1.287.475.446,0,.769-.23.769-.589v-.015c0-.373-.438-.517-.928-.654-.582-.165-1.229-.367-1.229-1.05v-.014c0-.64.532-1.064,1.265-1.064.453,0,.956.158,1.337.41l-.252.417c-.345-.223-.741-.359-1.1-.359-.438,0-.719.23-.719.539v.015c0,.352.46.489.956.64.575.172,1.193.394,1.193,1.063v.015c0,.704-.583,1.114-1.323,1.114-.532,0-1.122-.209-1.539-.547Z" fill="#221f1f" stroke-width="0"/><path d="M51.948,80.506c0-1.323.712-2.358,1.992-3.078l.237.367c-1.093.698-1.668,1.561-1.668,2.711s.575,2.013,1.668,2.71l-.237.367c-1.28-.719-1.992-1.754-1.992-3.077Z" fill="#221f1f" stroke-width="0"/><path d="M55.092,81.858v-.482l2.747-1.107v-.015l-2.747-1.114v-.474l3.336,1.38v.424l-3.336,1.388ZM55.092,82.569v-.417h3.322v.417h-3.322Z" fill="#221f1f" stroke-width="0"/><path d="M62.422,78.09l-.949.295-.136-.46,1.229-.424h.417v5.069h-.561v-4.479Z" fill="#221f1f" stroke-width="0"/><path d="M64.12,81.218v-.014c0-.597.432-1.021,1.035-1.237-.467-.215-.862-.575-.862-1.158v-.014c0-.777.798-1.331,1.718-1.331s1.719.553,1.719,1.331v.014c0,.583-.395.943-.863,1.158.597.223,1.035.633,1.035,1.23v.014c0,.856-.82,1.431-1.891,1.431s-1.891-.582-1.891-1.424ZM67.327,81.204v-.015c0-.561-.582-.956-1.316-.956s-1.316.395-1.316.956v.015c0,.51.489.941,1.316.941s1.316-.432,1.316-.941ZM67.161,78.845v-.014c0-.496-.496-.87-1.15-.87s-1.15.367-1.15.87v.014c0,.547.51.92,1.15.92s1.15-.373,1.15-.92Z" fill="#221f1f" stroke-width="0"/><path d="M68.861,81.815h.662v.755h-.662v-.755Z" fill="#221f1f" stroke-width="0"/><path d="M73.363,78.054h-2.768v-.517h3.415v.424l-2.286,4.609h-.633l2.272-4.515Z" fill="#221f1f" stroke-width="0"/><path d="M77.241,77.321h.554v3.623l2.006-2.092h.69l-1.56,1.597,1.61,2.12h-.662l-1.33-1.732-.755.762v.97h-.554v-5.248Z" fill="#221f1f" stroke-width="0"/><path d="M81.327,83.216l.252-.432c.424.31.899.475,1.431.475.82,0,1.351-.453,1.351-1.323v-.438c-.323.43-.776.784-1.459.784-.892,0-1.747-.669-1.747-1.74v-.015c0-1.086.863-1.754,1.747-1.754.698,0,1.15.345,1.453.747v-.669h.553v3.07c0,.575-.172,1.014-.474,1.316-.331.331-.827.496-1.416.496-.618,0-1.193-.173-1.689-.518ZM84.375,80.535v-.015c0-.761-.661-1.257-1.366-1.257s-1.287.489-1.287,1.251v.014c0,.747.597,1.266,1.287,1.266.705,0,1.366-.511,1.366-1.258Z" fill="#221f1f" stroke-width="0"/><path d="M85.966,83.216c1.093-.697,1.668-1.56,1.668-2.71s-.575-2.013-1.668-2.711l.237-.367c1.28.72,1.992,1.755,1.992,3.078s-.712,2.358-1.992,3.077l-.237-.367Z" fill="#221f1f" stroke-width="0"/><line x1="27.356" y1="51.046" x2="27.356" y2="59.894" fill="#fff" stroke="#221f1f" stroke-linejoin="round" stroke-width=".765"/><polyline points="48.507 71.954 73.271 57.737 73.258 48.95" fill="#fff" stroke="#221f1f" stroke-linejoin="round" stroke-width=".765"/><polyline points="26.56 50.546 51.322 36.271 73.258 48.95 48.507 63.217" fill="#fff" stroke="#221f1f" stroke-linejoin="round" stroke-width=".765"/><polygon points="48.504 71.839 48.504 63.222 26.563 50.549 26.53 59.365 48.504 71.839" fill="#fff" stroke="#221f1f" stroke-linejoin="round" stroke-width=".765"/><line x1="48.349" y1="67.432" x2="26.754" y2="54.981" fill="#fff" stroke="#221f1f" stroke-linejoin="round" stroke-width=".765"/></svg>