<?xml version="1.0" encoding="UTF-8"?><svg id="a" xmlns="http://www.w3.org/2000/svg" width=".375in" height=".259in" viewBox="0 0 27 18.654"><path d="M0,17.796h27V.375c0-.209-.174-.375-.388-.375H.386c-.216,0-.386.166-.386.375v17.421Z" fill="#fcb918" stroke-width="0"/><path d="M9.513,12.288l3.541-2.902c1.322-1.095,1.839-1.672,1.839-2.554,0-.896-.593-1.383-1.429-1.383-.821,0-1.383.456-2.174,1.429l-1.641-1.322c1.048-1.429,2.066-2.203,3.966-2.203,2.204,0,3.663,1.291,3.663,3.282v.03c0,1.778-.912,2.66-2.796,4.119l-1.733,1.337h4.636v2.021h-7.872v-1.854Z" fill="#fff" stroke-width="0"/></svg>