<?xml version="1.0" encoding="UTF-8"?><svg id="a" xmlns="http://www.w3.org/2000/svg" width="1.53in" height=".2in" viewBox="0 0 110.16 14.4"><polygon points="97.908 2.164 97.908 12.147 101.22 12.147 101.22 11.626 104.832 11.626 104.832 2.686 101.22 2.686 101.22 2.164 97.908 2.164" fill="#d9d9d9" fill-rule="evenodd" stroke-width="0"/><path d="M78.561,1.021c-4.234,0-4.022,3.575-6.103,3.575v5.119c2.08,0,1.869,3.575,6.103,3.575h20.692V1.021h-20.692Z" fill="#2968b2" fill-rule="evenodd" stroke-width="0"/><path d="M67.138,5.092H1.499c-.483-.059-.923.285-.981.769-.006.052-.008.105-.005.157.019.418.167.82.422,1.151.096.134.204.259.321.374,1.039,1.029,1.083,1.704.243,1.704h65.635c.164-1.38.166-2.775.004-4.155Z" fill="#2968b2" stroke-width="0"/><path d="M67.123,4.982s.006.042.015.11c.162,1.381.16,2.775-.004,4.156-.005.039-.006.075-.011.114l5.335.337v-5.103l-5.335.386Z" fill="#4174ba" stroke-width="0"/><rect x="88.743" y="4.013" width="9.895" height="6.269" fill="#2968b2" stroke="#fff" stroke-miterlimit="10" stroke-width=".336"/><path d="M108.511,2.584c-.015-.237-.212-.421-.449-.42h-6.841v.522h3.612v8.94h-3.612v.522h6.842c.237,0,.434-.183.449-.42" fill="#d9d9d9" fill-rule="evenodd" stroke-width="0"/><path d="M107.312,9.511h-2.773c-.083-.001-.152.066-.153.149,0,0,0,.001,0,.002v.06c0,.083.067.151.151.151,0,0,.001,0,.002,0h2.164c.167,0,.304.134.305.302h0v.302c-.001.168-.138.302-.305.302h-2.164c-.083-.001-.152.065-.153.149,0,0,0,.001,0,.002v.06c0,.083.067.151.151.151,0,0,.001,0,.002,0h2.773v-1.629Z" fill="#a6a6a6" fill-rule="evenodd" stroke-width="0"/><path d="M107.312,3.18h-2.773c-.083-.001-.152.066-.153.149,0,0,0,.001,0,.002v.06c0,.083.067.151.151.151,0,0,.001,0,.002,0h2.164c.168,0,.304.134.305.302h0v.302c-.001.168-.138.302-.305.302h-2.164c-.083-.001-.152.066-.153.149,0,0,0,.001,0,.002v.06c0,.083.067.151.151.151,0,0,.001,0,.002,0h2.773v-1.629Z" fill="#a6a6a6" fill-rule="evenodd" stroke-width="0"/></svg>