<?xml version="1.0" encoding="UTF-8"?><svg id="a" xmlns="http://www.w3.org/2000/svg" width="1.77in" height=".25in" xmlns:xlink="http://www.w3.org/1999/xlink" viewBox="0 0 127.44 18"><defs><clipPath id="b"><polygon points="125.191 13.001 126.606 13.001 126.606 4.763 125.191 4.763 125.191 1.03 96.486 1.03 96.486 16.734 125.191 16.734 125.191 13.001" fill="none" stroke-width="0"/></clipPath></defs><g clip-path="url(#b)"><rect x="96.1" y=".644" width="30.893" height="16.476" fill="none" stroke="#000" stroke-miterlimit="10" stroke-width="1.287"/></g><polygon points="125.191 13.001 126.606 13.001 126.606 4.763 125.191 4.763 125.191 1.03 96.486 1.03 96.486 16.734 125.191 16.734 125.191 13.001" fill="#d9d9d9" stroke-width="0"/><path d="M119.012,13.387v-.772h4.763v-.644h-4.763v-.644h4.763v-.772h-4.763v-.644h4.763v-.644h-4.763v-.772h4.763v-.644h-4.763v-.644h4.763v-.772h-4.763v-.644h4.763v-.644h-4.763v-.772h4.763v-.644h-4.763l-9.139,1.545c-.772.129-1.545.257-2.446.257h-11.199v6.693h11.327c.772,0,1.545.129,2.446.257l9.139,1.545h4.763v-.644h-4.891Z" fill="#4174ba" fill-rule="evenodd" stroke-width="0"/><rect x="123.775" y="3.733" width="1.416" height=".644" fill="#a6a6a6" stroke-width="0"/><rect x="123.775" y="5.149" width="1.416" height=".644" fill="#a6a6a6" stroke-width="0"/><rect x="123.775" y="6.436" width="1.416" height=".644" fill="#a6a6a6" stroke-width="0"/><rect x="123.775" y="7.852" width="1.416" height=".644" fill="#a6a6a6" stroke-width="0"/><rect x="123.775" y="9.268" width="1.416" height=".644" fill="#a6a6a6" stroke-width="0"/><rect x="123.775" y="10.555" width="1.416" height=".644" fill="#a6a6a6" stroke-width="0"/><rect x="123.775" y="11.971" width="1.416" height=".644" fill="#a6a6a6" stroke-width="0"/><rect x="123.775" y="13.387" width="1.416" height=".644" fill="#a6a6a6" stroke-width="0"/><path d="M1.25,8.882c-.386.644-.644,1.287-.644,1.802,0,.901.515,1.545,1.673,1.545,1.416,0,1.287-1.158-.386-2.703-.257-.257-.386-.386-.644-.644Z" fill="#2968b2" fill-rule="evenodd" stroke-width="0"/><path d="M1.25,8.882c-.386.644-.644,1.287-.644,1.802,0,.901.515,1.545,1.673,1.545,1.416,0,1.287-1.158-.386-2.703-.257-.257-.386-.386-.644-.644Z" fill="none" stroke="#759ed3" stroke-linecap="round" stroke-linejoin="round" stroke-width=".25"/><path d="M.606,6.951c0,.515.257,1.287.644,1.931.129.257.386.386.515.644,1.802,1.673,1.802,2.703.515,2.703h94.206v-6.693H2.28c-1.158,0-1.673.644-1.673,1.416Z" fill="#2968b2" fill-rule="evenodd" stroke-width="0"/><path d="M.606,6.951c0,.515.257,1.287.644,1.931.129.257.386.386.515.644,1.802,1.673,1.802,2.703.515,2.703h94.206v-6.693H2.28c-1.158,0-1.673.644-1.673,1.416Z" fill="none" stroke="#759ed3" stroke-linecap="round" stroke-linejoin="round" stroke-width=".25"/><path d="M123.775,1.03v15.704M115.794,6.693v-1.931h9.397M115.794,11.07h2.317M125.191,13.001h-9.397v-1.931h-12.743v-4.377h15.06" fill="none" stroke="#999" stroke-linecap="round" stroke-linejoin="round" stroke-width=".15"/><polyline points="125.169 13.005 115.773 13.005 115.773 11.074 103.029 11.074 103.029 6.697 115.773 6.697 115.773 6.697 115.773 4.767 125.169 4.767" fill="#d9d9d9" opacity=".5" stroke-width="0"/><polyline points="125.21 12.989 115.813 12.989 115.813 11.058 103.07 11.058 103.07 6.682 118.13 6.682" fill="none" stroke="#999" stroke-linecap="round" stroke-linejoin="round" stroke-width=".15"/><polyline points="115.809 6.68 115.809 4.75 125.206 4.75" fill="none" stroke="#999" stroke-linecap="round" stroke-linejoin="round" stroke-width=".15"/><line x1="115.738" y1="10.984" x2="118.06" y2="10.984" fill="none" stroke="#999" stroke-linecap="round" stroke-linejoin="round" stroke-width=".15"/></svg>