<?xml version="1.0" encoding="UTF-8"?><svg id="a" xmlns="http://www.w3.org/2000/svg" width="2.1in" height=".9in" xmlns:xlink="http://www.w3.org/1999/xlink" viewBox="0 0 151.2 64.8"><defs><clipPath id="b"><path d="M148.234,36.215c0,14.248-32.235,25.799-71.999,25.799S4.234,50.463,4.234,36.215,36.471,10.418,76.235,10.418s71.999,11.55,71.999,25.797Z" fill="none" stroke-width="0"/></clipPath></defs><path d="M18.802,27.536h1.859c1.121,0,1.858.596,1.858,1.575v.015c0,1.071-.894,1.624-1.951,1.624h-1.206v1.753h-.561v-4.967ZM20.59,30.239c.823,0,1.362-.44,1.362-1.093v-.014c0-.71-.532-1.079-1.334-1.079h-1.256v2.185h1.228Z" fill="#221f1f" stroke-width="0"/><path d="M23.392,31.112v-2.277h.546v2.143c-.072.535.304,1.027.839,1.099.058.008.117.01.175.008.598.011,1.091-.465,1.102-1.063,0-.029,0-.058-.002-.086v-2.1h.54v3.668h-.54v-.639c-.253.454-.736.73-1.256.717-.739.039-1.37-.528-1.409-1.267-.004-.067-.002-.134.004-.201Z" fill="#221f1f" stroke-width="0"/><path d="M27.867,27.323h.546v5.18h-.546v-5.18Z" fill="#221f1f" stroke-width="0"/><path d="M29.733,27.323h.546v5.18h-.546v-5.18Z" fill="#221f1f" stroke-width="0"/><path d="M31.4,30.083h1.973v.575h-1.973v-.575Z" fill="#221f1f" stroke-width="0"/><path d="M34.634,31.531v-2.214h-.511v-.482h.511v-1.107h.546v1.107h1.164v.482h-1.164v2.143c-.04.297.168.571.466.611.051.007.102.006.152-.001.185,0,.367-.043.531-.128v.469c-.203.106-.43.159-.659.155-.512.06-.976-.306-1.036-.818-.009-.072-.009-.145,0-.217Z" fill="#221f1f" stroke-width="0"/><path d="M37.03,31.438v-.014c0-.773.639-1.185,1.568-1.185.382-.003.762.049,1.128.156v-.128c0-.659-.404-1-1.092-1-.387.004-.768.096-1.114.27l-.163-.447c.416-.202.872-.306,1.334-.305.433-.031.86.115,1.185.404.266.291.402.678.376,1.071v2.242h-.525v-.554c-.314.412-.808.648-1.326.632-.678.076-1.29-.413-1.365-1.091-.002-.017-.003-.034-.005-.051ZM39.734,31.155v-.355c-.35-.103-.714-.156-1.079-.156-.688,0-1.071.299-1.071.76v.014c0,.462.426.732.923.732.609.068,1.158-.371,1.226-.98,0-.005,0-.009.001-.014h0Z" fill="#221f1f" stroke-width="0"/><path d="M41.961,31.801v.702h-.546v-5.18h.546v2.249c.293-.5.826-.809,1.405-.815.988.018,1.774.834,1.755,1.822,0,.027-.002.053-.003.08v.014c.063.99-.689,1.843-1.679,1.906-.024.002-.049.003-.073.003-.572,0-1.103-.295-1.405-.78ZM44.559,30.68v-.015c.054-.728-.492-1.362-1.22-1.416-.024-.002-.048-.003-.072-.003-.755.023-1.349.653-1.326,1.408,0,.001,0,.002,0,.004v.014c-.03.754.556,1.389,1.31,1.419.005,0,.011,0,.016,0,.715.001,1.296-.577,1.297-1.293,0-.04-.002-.08-.005-.12Z" fill="#221f1f" stroke-width="0"/><line x1="44.174" y1="41.663" x2="31.545" y2="35.721" fill="none" stroke="#00a6ce" stroke-linecap="round" stroke-linejoin="round" stroke-width="1.143"/><polygon points="47.826 43.382 43.669 38.857 43.901 41.535 41.69 43.063 47.826 43.382" fill="#00a6ce" stroke-width="0"/><g clip-path="url(#b)"><line x1="145.048" y1="53.186" x2="75.259" y2="33.461" fill="none" stroke="#231f20" stroke-miterlimit="10" stroke-width=".231"/><polygon points="67.944 40.577 144.707 62.029 145.048 56.175 73.551 36.513 67.944 40.577" fill="#e6e7e8" stroke="#231f20" stroke-miterlimit="10" stroke-width=".231"/><line x1="118.643" y1="57.891" x2="65.211" y2="42.911" fill="none" stroke="#231f20" stroke-miterlimit="10" stroke-width=".231"/><polyline points="145.048 47.806 137.224 45.643 137.224 38.016 145.048 40.349" fill="none" stroke="#231f20" stroke-miterlimit="10" stroke-width=".231"/><line x1="139.344" y1="37.168" x2="137.224" y2="38.016" fill="none" stroke="#231f20" stroke-miterlimit="10" stroke-width=".231"/><path d="M145.21,47.934l-7.474-2.082v-9.146l7.312,2.106M145.048,32.949l-62.403-17.634.299,19.299,62.104,17.552M136.029,45.473l-51.406-14.402v-8.939l51.177,14.574.229,8.767Z" fill="#bbbdbf" stroke="#231f20" stroke-miterlimit="10" stroke-width=".231"/><polygon points="135.175 37.168 85.079 22.929 85.079 30.671 123.099 41.228 135.516 44.676 135.175 37.168" fill="none" stroke="#231f20" stroke-miterlimit="10" stroke-width=".231"/><line x1="122.822" y1="33.741" x2="122.85" y2="41.159" fill="none" stroke="#231f20" stroke-miterlimit="10" stroke-width=".231"/><line x1="110.298" y1="37.675" x2="110.298" y2="30.217" fill="none" stroke="#231f20" stroke-miterlimit="10" stroke-width=".231"/><line x1="97.671" y1="26.509" x2="97.679" y2="34.17" fill="none" stroke="#231f20" stroke-miterlimit="10" stroke-width=".231"/><line x1="85.079" y1="30.493" x2="95.638" y2="25.931" fill="none" stroke="#231f20" stroke-miterlimit="10" stroke-width=".231"/><line x1="88.037" y1="29.215" x2="87.977" y2="23.754" fill="none" stroke="#231f20" stroke-miterlimit="10" stroke-width=".231"/><line x1="88.037" y1="29.215" x2="97.671" y2="31.881" fill="none" stroke="#231f20" stroke-miterlimit="10" stroke-width=".231"/><line x1="110.153" y1="37.449" x2="120.468" y2="32.989" fill="none" stroke="#231f20" stroke-miterlimit="10" stroke-width=".231"/><line x1="122.85" y1="41.159" x2="132.868" y2="36.513" fill="none" stroke="#231f20" stroke-miterlimit="10" stroke-width=".231"/><line x1="113.14" y1="30.905" x2="113.17" y2="36.145" fill="none" stroke="#231f20" stroke-miterlimit="10" stroke-width=".231"/><line x1="113.17" y1="36.145" x2="122.822" y2="38.835" fill="none" stroke="#231f20" stroke-miterlimit="10" stroke-width=".231"/><line x1="125.596" y1="34.447" x2="125.604" y2="39.882" fill="none" stroke="#231f20" stroke-miterlimit="10" stroke-width=".231"/><line x1="125.604" y1="39.882" x2="135.418" y2="42.512" fill="none" stroke="#231f20" stroke-miterlimit="10" stroke-width=".231"/><line x1="137.224" y1="45.644" x2="145.048" y2="42.128" fill="none" stroke="#231f20" stroke-miterlimit="10" stroke-width=".231"/><path d="M141.246,33.862c.028.376-.254.704-.63.732-.376.028-.704-.254-.732-.63-.025-.331.192-.632.514-.713.402-.061.779.211.848.611Z" fill="#f1f1f2" stroke="#231f20" stroke-miterlimit="10" stroke-width=".231"/><path d="M129.635,30.579c.027.376-.256.703-.632.73-.376.027-.703-.256-.73-.632-.024-.33.193-.63.514-.711.403-.062.781.211.848.613Z" fill="#f1f1f2" stroke="#231f20" stroke-miterlimit="10" stroke-width=".231"/><path d="M117.016,27.105c.028.376-.255.704-.631.731-.376.028-.704-.255-.731-.631-.024-.331.193-.631.515-.712.402-.062.78.211.848.612Z" fill="#f1f1f2" stroke="#231f20" stroke-miterlimit="10" stroke-width=".231"/><path d="M104.528,23.559c.027.376-.256.703-.632.73-.376.027-.703-.256-.73-.632-.024-.33.193-.63.514-.711.403-.062.78.211.848.613Z" fill="#f1f1f2" stroke="#231f20" stroke-miterlimit="10" stroke-width=".231"/><path d="M91.947,20.04c.028.376-.255.704-.631.731-.376.028-.704-.255-.731-.631-.024-.331.193-.632.515-.713.402-.062.78.211.848.613Z" fill="#f1f1f2" stroke="#231f20" stroke-miterlimit="10" stroke-width=".231"/><path d="M104.588,12.411c.574,1.22.376,2.524-.444,2.909-.821.387-1.953-.29-2.528-1.51s-.376-2.524.444-2.91c.82-.387,1.952.289,2.528,1.511Z" fill="none" stroke="#231f20" stroke-miterlimit="10" stroke-width=".231"/><path d="M136.506,21.273c.574,1.221.3,2.56-.613,2.99s-2.122-.21-2.697-1.431-.3-2.56.613-2.989c1.137-.324,2.327.307,2.697,1.43Z" fill="none" stroke="#231f20" stroke-miterlimit="10" stroke-width=".231"/><path d="M122.398,51.988c.039.506-.979.998-2.272,1.097-1.293.098-2.372-.233-2.412-.74-.038-.507.98-.998,2.272-1.097,1.293-.098,2.373.233,2.412.74Z" fill="#fff" stroke="#231f20" stroke-miterlimit="10" stroke-width=".231"/><path d="M63.914,8.784l.073,4.056c-.147.343-.234.709-.256,1.081,0,.498.285.811.256,1.024s.52,17.435.52,17.435" fill="none" stroke="#231f20" stroke-miterlimit="10" stroke-width=".231"/><path d="M63.105,8.581l.062,4.258c-.147.343-.234.709-.256,1.081,0,.498.284.811.256,1.024s.633,20.936.633,20.936" fill="none" stroke="#231f20" stroke-miterlimit="10" stroke-width=".231"/><line x1="63.987" y1="12.996" x2="66.175" y2="12.124" fill="none" stroke="#231f20" stroke-miterlimit="10" stroke-width=".231"/><line x1="63.987" y1="14.939" x2="66.103" y2="14.027" fill="none" stroke="#231f20" stroke-miterlimit="10" stroke-width=".231"/><path d="M66.175,20.481s-.708-.213-1.208-.363c-.356-.113-.735.085-.848.44-.025.078-.035.161-.03.243,0,.448.244,10.311.244,10.311" fill="none" stroke="#231f20" stroke-miterlimit="10" stroke-width=".231"/><path d="M66.175,21.38s-.444-.156-.758-.266-.551.173-.551.501.153,7.558.153,7.558" fill="none" stroke="#231f20" stroke-miterlimit="10" stroke-width=".231"/><line x1="64.507" y1="20.086" x2="66.175" y2="19.542" fill="none" stroke="#231f20" stroke-miterlimit="10" stroke-width=".231"/><polygon points="125.113 22.587 124.216 23.03 124.216 24.623 125.227 25.491 126.252 25.121 126.252 23.697 125.113 22.587" fill="none" stroke="#231f20" stroke-miterlimit="10" stroke-width=".231"/><polygon points="127.93 23.413 127.033 23.855 127.033 25.449 128.044 26.316 129.069 25.947 129.069 24.523 127.93 23.413" fill="none" stroke="#231f20" stroke-miterlimit="10" stroke-width=".231"/><polygon points="130.686 24.168 129.79 24.608 129.79 26.202 130.8 27.07 131.825 26.701 131.825 25.277 130.686 24.168" fill="none" stroke="#231f20" stroke-miterlimit="10" stroke-width=".231"/><polygon points="139.18 26.509 138.284 26.95 138.284 28.544 139.294 29.412 140.319 29.043 140.319 27.619 139.18 26.509" fill="none" stroke="#231f20" stroke-miterlimit="10" stroke-width=".231"/><polygon points="141.998 27.335 141.101 27.776 141.101 29.37 142.111 30.238 143.136 29.868 143.136 28.444 141.998 27.335" fill="none" stroke="#231f20" stroke-miterlimit="10" stroke-width=".231"/><polygon points="140.424 24.066 139.528 24.507 139.528 26.1 140.538 26.97 141.563 26.6 141.563 25.177 140.424 24.066" fill="none" stroke="#231f20" stroke-miterlimit="10" stroke-width=".231"/><polygon points="143.241 24.892 142.345 25.333 142.345 26.927 143.355 27.795 144.38 27.426 144.38 26.003 143.241 24.892" fill="none" stroke="#231f20" stroke-miterlimit="10" stroke-width=".231"/><polygon points="144.754 28.088 143.857 28.53 143.857 30.124 144.868 30.991 145.893 30.622 145.893 29.198 144.754 28.088" fill="none" stroke="#231f20" stroke-miterlimit="10" stroke-width=".231"/><polygon points="116.731 20.267 115.835 20.708 115.835 22.303 116.845 23.171 117.87 22.801 117.87 21.378 116.731 20.267" fill="none" stroke="#231f20" stroke-miterlimit="10" stroke-width=".231"/><polygon points="119.549 21.095 118.651 21.534 118.651 23.129 119.662 23.998 120.687 23.627 120.687 22.204 119.549 21.095" fill="none" stroke="#231f20" stroke-miterlimit="10" stroke-width=".231"/><polygon points="122.305 21.848 121.407 22.289 121.407 23.883 122.418 24.751 123.444 24.381 123.444 22.957 122.305 21.848" fill="none" stroke="#231f20" stroke-miterlimit="10" stroke-width=".231"/><polygon points="108.506 17.736 107.61 18.176 107.61 19.771 108.621 20.639 109.646 20.268 109.646 18.846 108.506 17.736" fill="none" stroke="#231f20" stroke-miterlimit="10" stroke-width=".231"/><polygon points="105.696 17.11 104.799 17.55 104.799 19.144 105.809 20.013 106.834 19.643 106.834 18.22 105.696 17.11" fill="none" stroke="#231f20" stroke-miterlimit="10" stroke-width=".231"/><polygon points="111.324 18.562 110.427 19.003 110.427 20.597 111.438 21.465 112.463 21.095 112.463 19.672 111.324 18.562" fill="none" stroke="#231f20" stroke-miterlimit="10" stroke-width=".231"/><polygon points="114.08 19.315 113.183 19.757 113.183 21.351 114.194 22.219 115.219 21.849 115.219 20.425 114.08 19.315" fill="none" stroke="#231f20" stroke-miterlimit="10" stroke-width=".231"/><polygon points="123.663 19.408 122.767 19.848 122.767 21.443 123.777 22.31 124.802 21.941 124.802 20.517 123.663 19.408" fill="none" stroke="#231f20" stroke-miterlimit="10" stroke-width=".231"/><polygon points="126.48 20.233 125.584 20.675 125.584 22.268 126.594 23.136 127.619 22.767 127.619 21.343 126.48 20.233" fill="none" stroke="#231f20" stroke-miterlimit="10" stroke-width=".231"/><polygon points="129.237 20.987 128.34 21.429 128.34 23.022 129.351 23.89 130.376 23.521 130.376 22.098 129.237 20.987" fill="none" stroke="#231f20" stroke-miterlimit="10" stroke-width=".231"/><polygon points="115.281 17.088 114.385 17.529 114.385 19.123 115.396 19.992 116.42 19.62 116.42 18.197 115.281 17.088" fill="none" stroke="#231f20" stroke-miterlimit="10" stroke-width=".231"/><polygon points="118.099 17.914 117.203 18.355 117.203 19.949 118.213 20.817 119.238 20.447 119.238 19.023 118.099 17.914" fill="none" stroke="#231f20" stroke-miterlimit="10" stroke-width=".231"/><polygon points="120.855 18.668 119.959 19.109 119.959 20.703 120.969 21.571 121.994 21.201 121.994 19.777 120.855 18.668" fill="none" stroke="#231f20" stroke-miterlimit="10" stroke-width=".231"/><polygon points="112.631 16.135 111.734 16.576 111.734 18.17 112.745 19.038 113.77 18.669 113.77 17.245 112.631 16.135" fill="none" stroke="#231f20" stroke-miterlimit="10" stroke-width=".231"/><polygon points="109.79 15.315 108.893 15.756 108.893 17.35 109.903 18.218 110.928 17.849 110.928 16.426 109.79 15.315" fill="none" stroke="#231f20" stroke-miterlimit="10" stroke-width=".231"/><polygon points="100.149 15.557 99.252 15.999 99.252 17.592 100.263 18.46 101.288 18.091 101.288 16.667 100.149 15.557" fill="none" stroke="#231f20" stroke-miterlimit="10" stroke-width=".231"/><polygon points="91.925 13.025 91.028 13.466 91.028 15.06 92.039 15.928 93.064 15.558 93.064 14.134 91.925 13.025" fill="none" stroke="#231f20" stroke-miterlimit="10" stroke-width=".231"/><polygon points="89.114 12.398 88.217 12.84 88.217 14.435 89.227 15.302 90.252 14.932 90.252 13.509 89.114 12.398" fill="none" stroke="#231f20" stroke-miterlimit="10" stroke-width=".231"/><polygon points="94.742 13.85 93.846 14.292 93.846 15.886 94.856 16.754 95.881 16.384 95.881 14.961 94.742 13.85" fill="none" stroke="#231f20" stroke-miterlimit="10" stroke-width=".231"/><polygon points="95.886 11.418 94.989 11.86 94.989 13.453 96 14.321 97.024 13.951 97.024 12.528 95.886 11.418" fill="none" stroke="#231f20" stroke-miterlimit="10" stroke-width=".231"/><polygon points="93.074 10.792 92.177 11.233 92.177 12.828 93.187 13.695 94.212 13.325 94.212 11.902 93.074 10.792" fill="none" stroke="#231f20" stroke-miterlimit="10" stroke-width=".231"/><polygon points="98.703 12.244 97.806 12.685 97.806 14.279 98.817 15.147 99.841 14.777 99.841 13.354 98.703 12.244" fill="none" stroke="#231f20" stroke-miterlimit="10" stroke-width=".231"/><polygon points="97.498 14.605 96.602 15.045 96.602 16.639 97.613 17.508 98.637 17.138 98.637 15.714 97.498 14.605" fill="none" stroke="#231f20" stroke-miterlimit="10" stroke-width=".231"/><path d="M67.251,7.716s.322,13.108.322,13.79-3.33,17.795-3.586,18.376l11.272-.557-.449-31.298" fill="#e6e7e8" stroke="#231f20" stroke-miterlimit="10" stroke-width=".231"/><polygon points="98.741 26.686 77.166 36.024 73.352 34.884 71.018 36.024 71.018 36.307 68.627 37.389 67.944 37.161 64.243 38.984 64.243 48.092 76.368 51.735 110.411 37.276 110.411 29.931 98.741 26.686" fill="#a6a8ab" stroke="#231f20" stroke-miterlimit="10" stroke-width=".231"/><line x1="77.166" y1="36.024" x2="85.705" y2="38.414" fill="none" stroke="#231f20" stroke-miterlimit="10" stroke-width=".231"/><line x1="85.847" y1="41.174" x2="110.411" y2="30.217" fill="none" stroke="#231f20" stroke-miterlimit="10" stroke-width=".231"/><line x1="64.243" y1="38.984" x2="75.899" y2="42.341" fill="none" stroke="#231f20" stroke-miterlimit="10" stroke-width=".231"/><polyline points="76.241 51.592 76.07 48.148 74.519 48.788 74.519 46.754 76.07 46.327 75.899 42.412 79.913 40.761 79.913 41.174 83.008 39.793 83.008 39.32 85.705 38.414 85.847 41.174" fill="#a6a8ab" stroke="#231f20" stroke-miterlimit="10" stroke-width=".231"/><path d="M71.235,36.149s1.746.549,1.889.655c.356.266.337.676-.747,1.075-.806.182-1.643.175-2.446-.021-.637-.17-1.325-.441-1.325-.441" fill="#a6a8ab" stroke="#231f20" stroke-miterlimit="10" stroke-width=".231"/><path d="M79.912,40.761s-.642-.213-.927-.313c-.108-.037-1.111-.315-1.25-.572-.186-.342-.018-.587.47-.795.549-.199,1.129-.297,1.713-.289.524.006,1.045.066,1.557.18.557.097,1.534.348,1.534.348" fill="#a6a8ab" stroke="#231f20" stroke-miterlimit="10" stroke-width=".231"/><path d="M72.611,37.527c-.017.286-.677.482-1.477.438-.8-.046-1.434-.315-1.418-.602s.677-.482,1.478-.437,1.434.314,1.417.601Z" fill="#a6a8ab" stroke="#231f20" stroke-miterlimit="10" stroke-width=".231"/><path d="M81.055,39.878c-.016.286-.677.482-1.476.438-.8-.046-1.434-.315-1.418-.603.016-.285.677-.481,1.477-.436.799.045,1.434.314,1.417.601Z" fill="#a6a8ab" stroke="#231f20" stroke-miterlimit="10" stroke-width=".231"/><path d="M55.895,56.675l16.685-6.435h0c1.481-.895,1.87-3.473.842-5.993-1.078-2.641-3.313-4.239-5.035-3.621l-15.812,7.362" fill="#58595b" stroke="#231f20" stroke-miterlimit="10" stroke-width=".231"/><path d="M57.54,50.979c.927,2.24.545,4.557-.83,5.385-.092.056-.188.104-.288.145-1.608.666-3.711-.733-4.7-3.122-.865-2.091-.591-4.247.567-5.2.166-.137.352-.25.551-.333,1.607-.664,3.711.735,4.7,3.124Z" fill="#58595b" stroke="#231f20" stroke-miterlimit="10" stroke-width=".231"/><path d="M59.485,44.775c.075-.043.152-.081.232-.114,1.606-.666,3.75.827,4.787,3.334,1.009,2.438.599,4.938-.904,5.683-.042.02-.084.041-.128.058" fill="#58595b" stroke="#231f20" stroke-miterlimit="10" stroke-width=".231"/><path d="M62.779,43.262c.071-.042.144-.08.219-.113,1.677-.752,3.95.676,5.075,3.188,1.056,2.356.727,4.829-.701,5.747-.086.056-.176.106-.269.149" fill="#58595b" stroke="#231f20" stroke-miterlimit="10" stroke-width=".231"/><path d="M39.009,63.329s17.144-7.466,17.15-7.47c1.268-.752,1.648-2.811.832-4.783-.871-2.103-2.773-3.313-4.25-2.702-.013.005-16.884,7.338-16.884,7.338" fill="#58595b" stroke="#231f20" stroke-miterlimit="10" stroke-width=".231"/><path d="M40.107,58.414c.815,1.972.435,4.029-.832,4.783-.085.05-.174.094-.266.132-1.476.611-3.379-.599-4.249-2.702-.761-1.84-.481-3.754.589-4.614.154-.124.325-.225.508-.3,1.476-.612,3.378.598,4.249,2.702Z" fill="#58595b" stroke="#231f20" stroke-miterlimit="10" stroke-width=".231"/><path d="M58.5,41.288c.221-.142,4.064-1.849,4.149-1.82s11.955,3.415,12.04,3.557.2,6.489.171,6.575-3.131,1.508-3.131,1.48c-.555-.124-1.097-.296-1.623-.513-.313-.227.228-5.351.057-5.294s-6.091.256-6.348.256c-.524.128-1.023.339-1.48.625-.085.115.484.798.541,1.48.249,1.604-.279,3.231-1.423,4.383-1.708,1.622-2.548,1.637-4.213.997s-2.647-1.224-3.672-1.523c-.804-.253-1.635-.411-2.477-.469-.763-.078-1.513-.25-2.234-.513-.413-.142-1.552-.384-1.851-.484s-1.224-.683-1.196-1.082.413-.882.769-.882c.498.046.979.202,1.41.456.398.241.611.455,1.451-.215s3.116-3.046,4.781-3.586c1.097-.374,2.267-.486,3.416-.326.489-.019.958-.202,1.331-.52.142-.185-.109-.872-.322-1.3-.214-.425-.338-1.161-.148-1.283ZM51.278,49.557c.99.069,1.48-.298,4.981,1.452s4.224-.085,4.726-1.011c.381-.722.521-1.546.401-2.354-.585-1.229-1.808-2.027-3.168-2.07-.55-.015-.902.194-2.257.194-1.153,0-2.701,1.256-3.128,1.611-.549.533-1.137,1.023-1.76,1.467,0,0-.95.63.205.71Z" fill="#25a9e0" stroke="#231f20" stroke-miterlimit="10" stroke-width=".4"/></g><path d="M148.234,36.215c0,14.248-32.235,25.799-71.999,25.799S4.234,50.463,4.234,36.215,36.471,10.418,76.235,10.418s71.999,11.55,71.999,25.797Z" fill="none" stroke="#6bcdb2" stroke-miterlimit="10" stroke-width="2.197"/><polygon points="33.976 19.426 28.684 14.134 28.684 6.651 33.976 1.358 41.46 1.358 46.753 6.651 46.753 14.134 41.46 19.426 33.976 19.426" fill="#6bcdb2" stroke="#fff" stroke-miterlimit="10" stroke-width="1.236"/><polygon points="42.949 14.19 37.719 7.186 32.488 14.19 42.949 14.19" fill="#fff" stroke-width="0"/><rect x="35.426" y="13.864" width="4.532" height="2.746" fill="#fff" stroke-width="0"/><line x1="37.712" y1="3.46" x2="37.712" y2="6.268" fill="none" stroke="#fff" stroke-linecap="round" stroke-linejoin="round" stroke-width=".549"/><line x1="33.971" y1="4.97" x2="35.957" y2="6.956" fill="none" stroke="#fff" stroke-linecap="round" stroke-linejoin="round" stroke-width=".549"/><line x1="41.454" y1="4.97" x2="39.468" y2="6.956" fill="none" stroke="#fff" stroke-linecap="round" stroke-linejoin="round" stroke-width=".549"/><line x1="39.713" y1="4.184" x2="39.058" y2="5.588" fill="none" stroke="#fff" stroke-linecap="round" stroke-linejoin="round" stroke-width=".549"/><line x1="35.778" y1="4.184" x2="36.433" y2="5.588" fill="none" stroke="#fff" stroke-linecap="round" stroke-linejoin="round" stroke-width=".549"/></svg>