<?xml version="1.0" encoding="UTF-8"?><svg id="a" xmlns="http://www.w3.org/2000/svg" width=".375in" height=".247in" viewBox="0 0 27 17.784"><path d="M0,17.784h27V.389c0-.26-.13-.389-.389-.389H.389c-.26,0-.389.13-.389.389v17.394Z" fill="#a25eb5" stroke-width="0"/><path d="M10.125,5.971c.13-.519.389-1.038.779-1.428s.649-.649,1.168-.909c.519-.26,1.038-.389,1.688-.389.519,0,.909.13,1.428.26.389.13.779.389,1.038.649s.649.649.909,1.038c.26.389.26.909.26,1.428s-.13,1.038-.26,1.428c-.13.389-.389.779-.649,1.038-.26.26-.649.519-.909.779-.389.26-.779.519-1.038.779-.389.26-.779.519-1.038.779-.519.26-.779.519-1.038.909h5.062v1.817h-7.788c0-.649.13-1.168.26-1.558,0-.519.26-.909.649-1.298.389-.389.649-.649,1.038-.909s.909-.649,1.298-.909c.26-.13.519-.389.779-.519.26-.13.519-.389.779-.519s.389-.389.519-.649.26-.519.26-.909c0-.519-.13-.909-.389-1.168-.519-.389-.779-.519-1.298-.519-.389,0-.649,0-.779.13-.26.26-.389.389-.519.649s-.26.519-.26.779-.13.519-.13.909h-2.077c0-.649,0-1.168.26-1.688Z" fill="#fff" stroke-width="0"/></svg>