<?xml version="1.0" encoding="UTF-8"?><svg id="a" xmlns="http://www.w3.org/2000/svg" width="1.75in" height=".3in" viewBox="0 0 126 21.6"><polygon points="126 6.486 126 4.878 125.615 4.509 122.559 4.509 122.559 6.856 125.615 6.856 126 6.486" fill="#bfbfbf" fill-rule="evenodd" stroke-width="0"/><polygon points="126 16.347 126 14.74 125.615 14.37 122.559 14.37 122.559 16.718 125.615 16.718 126 16.347" fill="#bfbfbf" fill-rule="evenodd" stroke-width="0"/><path d="M122.559,9.88V1.484h-26.77V0h-11.089v.986l-54.49,1.127v1.409H1.035c-.504-.063-.964.294-1.027.799-.007.054-.009.109-.006.164.021.435.175.854.443,1.198.101.139.213.269.336.389,1.088,1.07,1.134,1.771.254,1.771h29.176v1.409l54.49,1.126v.47l-54.49,1.127v1.409H1.035c-.504-.063-.964.294-1.027.798-.007.055-.009.11-.006.164.021.435.175.854.443,1.198.101.139.213.269.336.389,1.088,1.069,1.134,1.771.254,1.771h29.176v1.409l54.49,1.127v.986h11.089v-1.484h26.771v-8.397h-24.478v-1.465h24.477Z" fill="#2968b2" fill-rule="evenodd" stroke-width="0"/></svg>