<?xml version="1.0" encoding="UTF-8"?><svg id="a" xmlns="http://www.w3.org/2000/svg" width="1.388in" height=".254in" xmlns:xlink="http://www.w3.org/1999/xlink" viewBox="0 0 99.943 18.259"><defs><clipPath id="b"><rect width="99.943" height="18.259" fill="none" stroke-width="0"/></clipPath></defs><g clip-path="url(#b)"><path d="M18.457,10.316v.26l9.356.312c.376-1.221.376-2.525,0-3.746l-9.356.312v2.861ZM47.123,6.498l-14.562.486c-.695,1.266-.695,2.796,0,4.063l17.091.57v-5.202l-2.528.084ZM1.2,10.316c.526,0,.498-.422-.152-1.066-.076-.075-.143-.154-.201-.234-.175.243-.264.5-.264.721,0,.33.2.579.618.579ZM.583,8.294c0,.221.09.478.264.721.058.08.125.159.201.234.65.644.678,1.066.152,1.066h11.66c-.131-.862-.131-1.739,0-2.601H1.2c-.417,0-.618.25-.618.58ZM18.457,10.316v-2.601h-3.195c-.179.858-.179,1.744,0,2.601h3.195ZM15.04,9.015c0-3.592,2.942-6.503,6.572-6.503s6.572,2.912,6.572,6.503-2.942,6.503-6.572,6.503-6.572-2.912-6.572-6.503ZM42.604,11.469l-3.61,1.532c-.547.232-1.134.351-1.728.351h-.933c-2.42,0-4.38-1.941-4.38-4.336s1.96-4.336,4.38-4.336h.933c.594,0,1.181.119,1.728.351l3.61,1.532,4.123-.137-7.375-3.128c-.544-.232-1.131-.351-1.725-.351h-3.842c-.791,0-1.567-.213-2.247-.615l-1.277-.756c-1.36-.805-2.915-1.23-4.499-1.23h-4.15c-4.839,0-8.762,3.882-8.762,8.671s3.923,8.671,8.762,8.671h4.15c1.585,0,3.14-.425,4.499-1.231l1.277-.756c.68-.403,1.456-.615,2.247-.615h3.842c.593,0,1.181-.119,1.725-.351l7.375-3.128-4.123-.137Z" fill="#2868b1" fill-rule="evenodd" stroke="#999" stroke-miterlimit="10" stroke-width=".183"/><path d="M18.457,10.316v.26l9.356.312c.376-1.221.376-2.525,0-3.746l-9.356.312v2.861ZM47.123,6.498l-14.562.486c-.695,1.266-.695,2.796,0,4.063l17.091.57v-5.202l-2.528.084ZM1.2,10.316c.526,0,.498-.422-.152-1.066-.076-.075-.143-.154-.201-.234-.175.243-.264.5-.264.721,0,.33.2.579.618.579ZM.583,8.294c0,.221.09.478.264.721.058.08.125.159.201.234.65.644.678,1.066.152,1.066h11.66c-.131-.862-.131-1.739,0-2.601H1.2c-.417,0-.618.25-.618.58ZM18.457,10.316v-2.601h-3.195c-.179.858-.179,1.744,0,2.601h3.195ZM15.04,9.015c0-3.592,2.942-6.503,6.572-6.503s6.572,2.912,6.572,6.503-2.942,6.503-6.572,6.503-6.572-2.912-6.572-6.503ZM42.604,11.469l-3.61,1.532c-.547.232-1.134.351-1.728.351h-.933c-2.42,0-4.38-1.941-4.38-4.336s1.96-4.336,4.38-4.336h.933c.594,0,1.181.119,1.728.351l3.61,1.532,4.123-.137-7.375-3.128c-.544-.232-1.131-.351-1.725-.351h-3.842c-.791,0-1.567-.213-2.247-.615l-1.277-.756c-1.36-.805-2.915-1.23-4.499-1.23h-4.15c-4.839,0-8.762,3.882-8.762,8.671s3.923,8.671,8.762,8.671h4.15c1.585,0,3.14-.425,4.499-1.231l1.277-.756c.68-.403,1.456-.615,2.247-.615h3.842c.593,0,1.181-.119,1.725-.351l7.375-3.128-4.123-.137Z" fill="none" stroke="#749dd2" stroke-linecap="round" stroke-linejoin="round" stroke-width=".009"/><path d="M52.366,13.048c0-.671.55-1.214,1.227-1.214s1.227.544,1.227,1.214-.55,1.214-1.227,1.214-1.227-.544-1.227-1.214ZM52.366,4.983c0-.67.55-1.214,1.227-1.214s1.227.544,1.227,1.214-.55,1.214-1.227,1.214-1.227-.544-1.227-1.214ZM49.652,14.955h8.321V3.076h-8.321v11.88ZM52.366,13.048c0,.67.55,1.214,1.227,1.214s1.227-.544,1.227-1.214-.55-1.214-1.227-1.214-1.227.544-1.227,1.214ZM52.366,4.983c0,.671.55,1.214,1.227,1.214s1.227-.544,1.227-1.214-.55-1.214-1.227-1.214-1.227.544-1.227,1.214ZM57.973,3.206v11.62h7.1v-.607h4.204V3.813h-4.204v-.607h-7.1ZM71.555,4.94c0-.24.198-.434.439-.434h22.342c.244,0,.439.194.439.434v8.151c0,.24-.195.434-.439.434h-22.342c-.241,0-.439-.194-.439-.434V4.94ZM98.769,14.825c.275,0,.507-.214.522-.489l.303-4.888v-.867l-.303-4.888c-.016-.274-.247-.489-.522-.489h-33.696v.607h4.204v10.405h-4.204v.607h33.696ZM71.555,4.94v8.151c0,.24.198.434.439.434h22.342c.244,0,.439-.194.439-.434h0V4.94c0-.24-.195-.434-.439-.434h-22.342c-.241,0-.439.194-.439.434Z" fill="#d9d9d9" fill-rule="evenodd" stroke="#999" stroke-miterlimit="10" stroke-width=".183"/><path d="M52.366,13.048c0-.671.55-1.214,1.227-1.214s1.227.544,1.227,1.214-.55,1.214-1.227,1.214-1.227-.544-1.227-1.214ZM52.366,4.983c0-.67.55-1.214,1.227-1.214s1.227.544,1.227,1.214-.55,1.214-1.227,1.214-1.227-.544-1.227-1.214ZM49.652,14.955h8.321V3.076h-8.321v11.88ZM52.366,13.048c0,.67.55,1.214,1.227,1.214s1.227-.544,1.227-1.214-.55-1.214-1.227-1.214-1.227.544-1.227,1.214ZM52.366,4.983c0,.671.55,1.214,1.227,1.214s1.227-.544,1.227-1.214-.55-1.214-1.227-1.214-1.227.544-1.227,1.214ZM57.973,3.206v11.62h7.1v-.607h4.204V3.813h-4.204v-.607h-7.1ZM71.555,4.94c0-.24.198-.434.439-.434h22.342c.244,0,.439.194.439.434v8.151c0,.24-.195.434-.439.434h-22.342c-.241,0-.439-.194-.439-.434V4.94ZM98.769,14.825c.275,0,.507-.214.522-.489l.303-4.888v-.867l-.303-4.888c-.016-.274-.247-.489-.522-.489h-33.696v.607h4.204v10.405h-4.204v.607h33.696ZM71.555,4.94v8.151c0,.24.198.434.439.434h22.342c.244,0,.439-.194.439-.434h0V4.94c0-.24-.195-.434-.439-.434h-22.342c-.241,0-.439.194-.439.434Z" fill="none" stroke="#999" stroke-linecap="round" stroke-linejoin="round" stroke-width=".009"/><path d="M58.764,12.18h3.984c.124,0,.22-.097.22-.217v-.087c0-.12-.096-.217-.22-.217h-3.11c-.241,0-.439-.194-.439-.433h0v-.434c0-.239.198-.434.439-.434h3.11c.124,0,.22-.097.22-.217v-.087c0-.12-.096-.217-.22-.217h-3.984v2.341ZM58.764,8.192h3.984c.124,0,.22-.097.22-.217v-.087c0-.12-.096-.217-.22-.217h-3.11c-.241,0-.439-.194-.439-.434h0v-.434c0-.239.198-.433.439-.433h3.11c.124,0,.22-.097.22-.217v-.087c0-.12-.096-.217-.22-.217h-3.984v2.341Z" fill="#a6a6a6" fill-rule="evenodd" stroke-width="0"/><path d="M58.764,12.18h3.984c.124,0,.22-.097.22-.217v-.087c0-.12-.096-.217-.22-.217h-3.11c-.241,0-.439-.194-.439-.433h0v-.434c0-.239.198-.434.439-.434h3.11c.124,0,.22-.097.22-.217v-.087c0-.12-.096-.217-.22-.217h-3.984v2.341ZM58.764,8.192h3.984c.124,0,.22-.097.22-.217v-.087c0-.12-.096-.217-.22-.217h-3.11c-.241,0-.439-.194-.439-.434h0v-.434c0-.239.198-.433.439-.433h3.11c.124,0,.22-.097.22-.217v-.087c0-.12-.096-.217-.22-.217h-3.984v2.341Z" fill="none" stroke="#999" stroke-linecap="round" stroke-linejoin="round" stroke-width=".009"/></g></svg>