<?xml version="1.0" encoding="UTF-8"?><svg id="a" xmlns="http://www.w3.org/2000/svg" width="1.8in" height=".33in" viewBox="0 0 129.6 23.76"><path d="M1.532,13.25c-.316.409-.498.906-.522,1.422-.035.6.424,1.115,1.024,1.149.065.004.13.002.195-.006,1.038,0,.983-.834-.301-2.103-.145-.143-.277-.298-.396-.462ZM52.361,7.761v-1.385h-7.65l2.566,1.386h5.084ZM33.738,18.176c-3.655-.04-6.586-3.036-6.546-6.692s3.036-6.586,6.691-6.546c3.627.04,6.546,2.991,6.546,6.619-.021,3.675-3.017,6.638-6.692,6.618h0ZM58.689,15.149v-7.183h-11.412l-8.937-4.796c-4.676-2.516-10.506-.806-13.083,3.837-2.516,4.598-.828,10.364,3.77,12.88.036.02.073.039.109.059,2.874,1.54,6.329,1.54,9.203,0l8.937-4.796h11.412ZM27.838,12.429c.197,1.295.82,2.486,1.771,3.387h8.258c.951-.9,1.574-2.092,1.771-3.387h-11.801ZM1.01,11.828c.024.516.206,1.013.522,1.422.119.165.252.319.396.462,1.284,1.27,1.338,2.103.301,2.103h22.643c-.522-1.061-.844-2.209-.951-3.387H2.229c-.565.068-1.087-.313-1.194-.872-.017.089-.025.18-.025.271ZM1.532,9.864c-.316.409-.498.906-.522,1.422-.035.6.424,1.115,1.024,1.149.065.004.13.002.195-.006,1.038,0,.983-.833-.301-2.103-.145-.143-.277-.297-.396-.462ZM2.229,7.299c-.597-.073-1.14.352-1.213.948-.008.065-.01.13-.006.195.024.516.206,1.013.522,1.422.119.165.252.319.396.462,1.284,1.27,1.338,2.103.301,2.103h21.692c-.16-1.765.169-3.54.951-5.131H2.229ZM27.838,12.429h11.801c.285-1.897-.377-3.813-1.771-5.131h-8.258c-1.394,1.317-2.056,3.234-1.771,5.131ZM52.361,15.34l-4.985-.011-2.628,1.41h7.613v-1.399Z" fill="#2968b2" fill-rule="evenodd" stroke-width="0"/><path d="M1.532,13.25c-.316.409-.498.906-.522,1.422-.035.6.424,1.115,1.024,1.149.065.004.13.002.195-.006,1.038,0,.983-.834-.301-2.103-.145-.143-.277-.298-.396-.462ZM52.361,7.761v-1.385h-7.65l2.566,1.386h5.084ZM33.738,18.176c-3.655-.04-6.586-3.036-6.546-6.692s3.036-6.586,6.691-6.546c3.627.04,6.546,2.991,6.546,6.619-.021,3.675-3.017,6.638-6.692,6.618h0ZM58.689,15.149v-7.183h-11.412l-8.937-4.796c-4.676-2.516-10.506-.806-13.083,3.837-2.516,4.598-.828,10.364,3.77,12.88.036.02.073.039.109.059,2.874,1.54,6.329,1.54,9.203,0l8.937-4.796h11.412ZM27.838,12.429c.197,1.295.82,2.486,1.771,3.387h8.258c.951-.9,1.574-2.092,1.771-3.387h-11.801ZM1.01,11.828c.024.516.206,1.013.522,1.422.119.165.252.319.396.462,1.284,1.27,1.338,2.103.301,2.103h22.643c-.522-1.061-.844-2.209-.951-3.387H2.229c-.565.068-1.087-.313-1.194-.872-.017.089-.025.18-.025.271ZM1.532,9.864c-.316.409-.498.906-.522,1.422-.035.6.424,1.115,1.024,1.149.065.004.13.002.195-.006,1.038,0,.983-.833-.301-2.103-.145-.143-.277-.297-.396-.462ZM2.229,7.299c-.597-.073-1.14.352-1.213.948-.008.065-.01.13-.006.195.024.516.206,1.013.522,1.422.119.165.252.319.396.462,1.284,1.27,1.338,2.103.301,2.103h21.692c-.16-1.765.169-3.54.951-5.131H2.229ZM27.838,12.429h11.801c.285-1.897-.377-3.813-1.771-5.131h-8.258c-1.394,1.317-2.056,3.234-1.771,5.131ZM52.361,15.34l-4.985-.011-2.628,1.41h7.613v-1.399Z" fill="none" stroke="#759ed3" stroke-linecap="round" stroke-linejoin="round" stroke-width=".016"/><path d="M33.738,18.689c3.939-.043,7.097-3.271,7.054-7.209-.043-3.939-3.271-7.097-7.209-7.054-3.908.043-7.054,3.223-7.054,7.132.022,3.96,3.25,7.153,7.21,7.132ZM33.738,17.663c-3.372-.037-6.075-2.801-6.038-6.174.038-3.372,2.801-6.075,6.174-6.038,3.346.037,6.038,2.76,6.038,6.106-.019,3.391-2.783,6.124-6.174,6.106ZM33.738,21.1c5.3.029,9.62-4.243,9.649-9.543-.061-5.329-4.43-9.6-9.759-9.539-5.243.06-9.479,4.296-9.539,9.539.03,5.299,4.349,9.572,9.649,9.543h0ZM33.738,20.074c-4.704-.052-8.475-3.907-8.423-8.611.052-4.704,3.907-8.475,8.611-8.423,4.667.052,8.423,3.85,8.423,8.517-.026,4.73-3.882,8.543-8.611,8.517,0,0,0,0,0,0Z" fill="#4174ba" fill-rule="evenodd" stroke-width="0"/><path d="M33.738,18.689c3.939-.043,7.097-3.271,7.054-7.209-.043-3.939-3.271-7.097-7.209-7.054-3.908.043-7.054,3.223-7.054,7.132.022,3.96,3.25,7.153,7.21,7.132ZM33.738,17.663c-3.372-.037-6.075-2.801-6.038-6.174.038-3.372,2.801-6.075,6.174-6.038,3.346.037,6.038,2.76,6.038,6.106-.019,3.391-2.783,6.124-6.174,6.106ZM33.738,21.1c5.3.029,9.62-4.243,9.649-9.543-.061-5.329-4.43-9.6-9.759-9.539-5.243.06-9.479,4.296-9.539,9.539.03,5.299,4.349,9.572,9.649,9.543h0ZM33.738,20.074c-4.704-.052-8.475-3.907-8.423-8.611.052-4.704,3.907-8.475,8.611-8.423,4.667.052,8.423,3.85,8.423,8.517-.026,4.73-3.882,8.543-8.611,8.517,0,0,0,0,0,0Z" fill="none" stroke="#759ed3" stroke-linecap="round" stroke-linejoin="round" stroke-width=".016"/><path d="M56.519,17.477c-.011-1.012.8-1.84,1.811-1.852,1.012-.011,1.84.8,1.852,1.811s-.8,1.84-1.811,1.852c-.007,0-.013,0-.02,0-1.006.005-1.825-.806-1.832-1.812ZM56.519,5.44c-.011-1.012.801-1.84,1.812-1.851,1.012-.011,1.84.801,1.851,1.812.011,1.012-.801,1.84-1.812,1.851-.006,0-.013,0-.019,0-1.006.005-1.826-.806-1.832-1.812ZM52.469,20.324h12.419V2.593h-12.419v17.73ZM56.519,17.477c-.011,1.012.801,1.84,1.812,1.851,1.012.011,1.84-.801,1.851-1.812.011-1.012-.801-1.84-1.812-1.851-.006,0-.013,0-.019,0-1.006-.005-1.826.806-1.832,1.812ZM56.519,5.44c-.011,1.012.8,1.84,1.811,1.852,1.012.011,1.84-.8,1.852-1.811.011-1.012-.8-1.84-1.811-1.852-.007,0-.013,0-.02,0-1.006-.005-1.825.806-1.832,1.812ZM64.888,2.788v17.342h10.598v-.906h6.274V3.694h-6.275v-.906h-10.597ZM85.16,5.377c.003-.359.296-.649.655-.647h33.345c.359-.003.652.285.655.644,0,.001,0,.002,0,.004v12.165c-.002.359-.294.648-.653.646,0,0-.002,0-.002,0h-33.345c-.359.001-.652-.288-.655-.647V5.377ZM125.776,20.13c.412,0,.753-.318.78-.729l.452-7.295v-1.295l-.452-7.295c-.027-.41-.369-.729-.78-.728h-50.291v.906h6.274v15.53h-6.274v.906h50.291ZM85.16,5.376v12.165c.003.359.296.649.655.647h33.345c.359.003.652-.285.655-.644,0-.001,0-.002,0-.004h0V5.376c-.001-.359-.293-.649-.651-.648-.001,0-.002,0-.004,0h-33.345c-.359-.001-.652.288-.655.647Z" fill="#d9d9d9" fill-rule="evenodd" stroke="#231f20" stroke-miterlimit="10" stroke-width=".146"/><path d="M56.519,17.477c-.011-1.012.8-1.84,1.811-1.852,1.012-.011,1.84.8,1.852,1.811s-.8,1.84-1.811,1.852c-.007,0-.013,0-.02,0-1.006.005-1.825-.806-1.832-1.812ZM56.519,5.44c-.011-1.012.801-1.84,1.812-1.851,1.012-.011,1.84.801,1.851,1.812.011,1.012-.801,1.84-1.812,1.851-.006,0-.013,0-.019,0-1.006.005-1.826-.806-1.832-1.812ZM52.469,20.324h12.419V2.593h-12.419v17.73ZM56.519,17.477c-.011,1.012.801,1.84,1.812,1.851,1.012.011,1.84-.801,1.851-1.812.011-1.012-.801-1.84-1.812-1.851-.006,0-.013,0-.019,0-1.006-.005-1.826.806-1.832,1.812ZM56.519,5.44c-.011,1.012.8,1.84,1.811,1.852,1.012.011,1.84-.8,1.852-1.811.011-1.012-.8-1.84-1.811-1.852-.007,0-.013,0-.02,0-1.006-.005-1.825.806-1.832,1.812ZM64.888,2.788v17.342h10.598v-.906h6.274V3.694h-6.275v-.906h-10.597ZM85.16,5.377c.003-.359.296-.649.655-.647h33.345c.359-.003.652.285.655.644,0,.001,0,.002,0,.004v12.165c-.002.359-.294.648-.653.646,0,0-.002,0-.002,0h-33.345c-.359.001-.652-.288-.655-.647V5.377ZM125.776,20.13c.412,0,.753-.318.78-.729l.452-7.295v-1.295l-.452-7.295c-.027-.41-.369-.729-.78-.728h-50.291v.906h6.274v15.53h-6.274v.906h50.291ZM85.16,5.376v12.165c.003.359.296.649.655.647h33.345c.359.003.652-.285.655-.644,0-.001,0-.002,0-.004h0V5.376c-.001-.359-.293-.649-.651-.648-.001,0-.002,0-.004,0h-33.345c-.359-.001-.652.288-.655.647Z" fill="none" stroke="#999" stroke-linecap="round" stroke-linejoin="round" stroke-width=".02"/><path d="M66.069,16.183h5.947c.179.002.325-.141.328-.319,0-.002,0-.003,0-.005v-.129c0-.179-.144-.323-.323-.324-.002,0-.003,0-.005,0h-4.641c-.359.002-.652-.288-.655-.647h0v-.647c.003-.359.296-.648.655-.647h4.641c.178.002.325-.14.328-.319,0-.002,0-.003,0-.005v-.129c0-.179-.145-.324-.324-.324-.001,0-.003,0-.004,0h-5.947v3.495ZM66.069,10.229h5.947c.179.002.325-.141.328-.32,0-.001,0-.003,0-.004v-.13c0-.178-.145-.323-.323-.323-.002,0-.003,0-.005,0h-4.641c-.359.001-.652-.288-.655-.647h0v-.647c.003-.359.296-.649.655-.647h4.641c.179.002.325-.14.328-.319,0-.002,0-.003,0-.005v-.13c0-.179-.144-.324-.323-.324-.002,0-.003,0-.005,0h-5.947v3.495Z" fill="#a6a6a6" fill-rule="evenodd" stroke-width="0"/><path d="M66.069,16.183h5.947c.179.002.325-.141.328-.319,0-.002,0-.003,0-.005v-.129c0-.179-.144-.323-.323-.324-.002,0-.003,0-.005,0h-4.641c-.359.002-.652-.288-.655-.647h0v-.647c.003-.359.296-.648.655-.647h4.641c.178.002.325-.14.328-.319,0-.002,0-.003,0-.005v-.129c0-.179-.145-.324-.324-.324-.001,0-.003,0-.004,0h-5.947v3.495ZM66.069,10.229h5.947c.179.002.325-.141.328-.32,0-.001,0-.003,0-.004v-.13c0-.178-.145-.323-.323-.323-.002,0-.003,0-.005,0h-4.641c-.359.001-.652-.288-.655-.647h0v-.647c.003-.359.296-.649.655-.647h4.641c.179.002.325-.14.328-.319,0-.002,0-.003,0-.005v-.13c0-.179-.144-.324-.323-.324-.002,0-.003,0-.005,0h-5.947v3.495Z" fill="none" stroke="#999" stroke-linecap="round" stroke-linejoin="round" stroke-width=".02"/></svg>